<svg width="30" height="22" viewBox="0 0 30 22" fill="none" xmlns="http://www.w3.org/2000/svg">
<path d="M13.5099 14.9375H4.875C4.56394 14.9375 4.3125 14.6855 4.3125 14.375C4.3125 14.0645 4.56394 13.8125 4.875 13.8125H13.5099C13.821 13.8125 14.0724 14.0645 14.0724 14.375C14.0724 14.6855 13.8204 14.9375 13.5099 14.9375Z" fill="#ACACAC"/>
<path d="M13.5099 8.1875H4.875C4.56394 8.1875 4.3125 7.9355 4.3125 7.625C4.3125 7.3145 4.56394 7.0625 4.875 7.0625H13.5099C13.821 7.0625 14.0724 7.3145 14.0724 7.625C14.0724 7.9355 13.8204 8.1875 13.5099 8.1875Z" fill="#ACACAC"/>
<path d="M12.75 11.5625H1.5C1.18894 11.5625 0.9375 11.3105 0.9375 11C0.9375 10.6895 1.18894 10.4375 1.5 10.4375H12.75C13.0611 10.4375 13.3125 10.6895 13.3125 11C13.3125 11.3105 13.0611 11.5625 12.75 11.5625Z" fill="#ACACAC"/>
<path d="M18.375 13.1947C17.2573 13.1947 16.125 12.4409 16.125 10.9998C16.125 9.55868 17.2573 8.80493 18.375 8.80493C19.4927 8.80493 20.625 9.55868 20.625 10.9998C20.625 12.4409 19.4927 13.1947 18.375 13.1947ZM18.375 9.92993C17.8558 9.92993 17.25 10.2101 17.25 10.9998C17.25 11.7896 17.8558 12.0697 18.375 12.0697C18.8942 12.0697 19.5 11.7896 19.5 10.9998C19.5 10.2101 18.8942 9.92993 18.375 9.92993Z" fill="#ACACAC"/>
<path d="M19.5683 10.3696C19.4243 10.3696 19.2803 10.3145 19.1706 10.2048C18.9506 9.98484 18.9506 9.62934 19.1706 9.4094L22.3526 6.22733C22.5726 6.00739 22.9281 6.00739 23.148 6.22733C23.3679 6.44727 23.3679 6.80277 23.148 7.02271L19.9659 10.2048C19.8563 10.3145 19.7123 10.3696 19.5683 10.3696Z" fill="#ACACAC"/>
<path d="M16.3867 13.5517C16.2427 13.5517 16.0987 13.4966 15.9891 13.3869C15.7691 13.1675 15.7691 12.8114 15.9891 12.5915L16.7844 11.7956C17.0044 11.5756 17.3599 11.5756 17.5798 11.7956C17.7997 12.0149 17.7997 12.371 17.5798 12.5909L16.7844 13.3869C16.6747 13.4966 16.5307 13.5517 16.3867 13.5517Z" fill="#ACACAC"/>
<path d="M18.375 21.6875C18.0639 21.6875 17.8125 21.4355 17.8125 21.125V19.4375C17.8125 19.127 18.0639 18.875 18.375 18.875C18.6861 18.875 18.9375 19.127 18.9375 19.4375V21.125C18.9375 21.4355 18.6861 21.6875 18.375 21.6875Z" fill="#ACACAC"/>
<path d="M25.5348 18.7218C25.3908 18.7218 25.2468 18.6667 25.1371 18.557L23.944 17.3634C23.7241 17.1435 23.7241 16.7874 23.944 16.568C24.1639 16.3481 24.5194 16.3481 24.7394 16.568L25.9325 17.7617C26.1524 17.9816 26.1524 18.3377 25.9325 18.557C25.8222 18.6667 25.6782 18.7218 25.5348 18.7218Z" fill="#ACACAC"/>
<path d="M24.3411 5.59671C24.1971 5.59671 24.0531 5.54159 23.9434 5.4319C23.7235 5.21253 23.7235 4.85647 23.9434 4.63653L25.1365 3.44291C25.3564 3.22297 25.7119 3.22297 25.9318 3.44291C26.1518 3.66228 26.1518 4.01834 25.9318 4.23828L24.7388 5.4319C24.6291 5.54159 24.4851 5.59671 24.3411 5.59671Z" fill="#ACACAC"/>
<path d="M18.375 3.125C18.0639 3.125 17.8125 2.873 17.8125 2.5625V0.875C17.8125 0.5645 18.0639 0.3125 18.375 0.3125C18.6861 0.3125 18.9375 0.5645 18.9375 0.875V2.5625C18.9375 2.873 18.6861 3.125 18.375 3.125Z" fill="#ACACAC"/>
<path d="M28.5 11.5625H26.8125C26.5014 11.5625 26.25 11.3105 26.25 11C26.25 10.6895 26.5014 10.4375 26.8125 10.4375H28.5C28.8111 10.4375 29.0625 10.6895 29.0625 11C29.0625 11.3105 28.8111 11.5625 28.5 11.5625Z" fill="#ACACAC"/>
<path d="M14.3188 4.8125H8.25C7.93894 4.8125 7.6875 4.5605 7.6875 4.25C7.6875 3.9395 7.93894 3.6875 8.25 3.6875H14.3188C14.6299 3.6875 14.8813 3.9395 14.8813 4.25C14.8813 4.5605 14.6299 4.8125 14.3188 4.8125Z" fill="#ACACAC"/>
<path d="M14.3188 18.3125H8.25C7.93894 18.3125 7.6875 18.0605 7.6875 17.75C7.6875 17.4395 7.93894 17.1875 8.25 17.1875H14.3188C14.6299 17.1875 14.8813 17.4395 14.8813 17.75C14.8813 18.0605 14.6299 18.3125 14.3188 18.3125Z" fill="#ACACAC"/>
<path d="M18.3402 21.6768C16.6915 21.6768 15.026 21.2971 13.4791 20.5C13.2029 20.3577 13.0943 20.0185 13.2367 19.7424C13.379 19.4662 13.7187 19.3576 13.9943 19.4999C18.4066 21.7735 23.9028 20.2503 26.5071 16.0321C29.1188 11.8015 28.0259 6.1996 24.0192 3.27854C21.1173 1.16354 17.182 0.857541 13.9943 2.49948C13.7187 2.64179 13.379 2.53379 13.2367 2.25704C13.0943 1.98085 13.2023 1.64167 13.4791 1.49935C17.0414 -0.336647 21.4379 0.00479042 24.6818 2.36898C29.1605 5.63373 30.3828 11.8949 27.464 16.6227C25.4665 19.8594 21.9458 21.6768 18.3402 21.6768V21.6768Z" fill="#ACACAC"/>
</svg>
