<svg width="28" height="20" viewBox="0 0 28 20" fill="none" xmlns="http://www.w3.org/2000/svg">
<path d="M27.9944 11.0683C27.9609 10.2929 27.2022 9.67365 25.735 9.22734C24.5969 8.88704 23.152 8.68062 21.59 8.64715V2.69457C21.5844 2.59415 21.5565 2.49931 21.5063 2.41563C21.3501 1.74059 20.5969 1.19387 19.2636 0.792195C18.0084 0.412837 16.3682 0.206421 14.6444 0.206421C12.9261 0.206421 11.3027 0.412837 10.0697 0.792195C9.05997 1.10461 7.84937 1.6848 7.84937 2.68341C7.84937 2.74478 7.85495 2.80614 7.86611 2.86751L7.92748 5.41144C4.30126 4.71967 0.803347 7.10182 0.117155 10.7225C0.0390516 11.1353 0 11.5481 0 11.9665C0 15.6485 2.99582 18.6444 6.67782 18.6444C8.21199 18.6444 9.69596 18.12 10.8842 17.1492C11.9275 17.3947 13.1548 17.5286 14.4547 17.5398C14.7392 19.0851 18.0865 19.7936 21.205 19.7936C22.9233 19.7936 24.5467 19.5816 25.7796 19.1967C26.7894 18.8842 28 18.2985 28 17.2999V11.1743C28 11.1409 28 11.1018 27.9944 11.0683ZM20.424 5.77964C20.424 5.85217 20.1562 6.2371 18.9456 6.60531C17.8131 6.94561 16.2455 7.14645 14.6499 7.14645C13.272 7.14645 11.9219 7.0014 10.8508 6.72804C10.834 6.72246 10.8229 6.72246 10.8061 6.71688C10.2762 6.29847 9.69038 5.96374 9.05997 5.72943L9.02092 4.15621C9.40586 4.35147 9.80753 4.50768 10.2259 4.61925C11.4365 4.97072 13.0042 5.1604 14.6499 5.1604C16.3682 5.1604 18.0139 4.95398 19.2692 4.57462C19.6876 4.45189 20.0948 4.2901 20.4798 4.08927V5.55091C20.4184 5.62901 20.424 5.70154 20.424 5.77964ZM10.4045 1.8689C11.5314 1.52302 13.0377 1.32776 14.6444 1.32776C16.2399 1.32776 17.8075 1.52302 18.94 1.8689C20.1506 2.2371 20.4184 2.61646 20.4184 2.68899C20.4184 2.76709 20.145 3.15203 18.9344 3.51465C17.802 3.85496 16.2399 4.05021 14.6444 4.05021C13.1046 4.05021 11.643 3.87169 10.5328 3.54812C9.33333 3.20224 8.99861 2.82288 8.97071 2.70014C8.97071 2.68899 8.96513 2.68899 8.96513 2.68899C8.97071 2.58299 9.22734 2.22595 10.4045 1.8689ZM10.4212 16.0837C8.15063 18.1478 4.6304 17.9861 2.56625 15.7155C0.502092 13.4449 0.663877 9.92469 2.93445 7.86054C3.95537 6.92888 5.29428 6.41563 6.67782 6.41563C7.2357 6.41563 7.78801 6.49931 8.32357 6.66109C10.2594 7.2636 11.7155 8.8703 12.1283 10.8508C12.2008 11.219 12.2399 11.5983 12.2399 11.9721C12.2455 13.5398 11.5816 15.0293 10.4212 16.0837ZM11.8382 16.2064C12.2901 15.6541 12.6527 15.0349 12.9093 14.371C13.3835 14.41 13.8745 14.4379 14.3877 14.4435V14.5439L14.4212 16.4352C13.5565 16.424 12.6918 16.3459 11.8382 16.2064ZM13.3278 11.3082C13.6513 11.3305 13.9916 11.3417 14.3375 11.3473L14.371 13.3222C13.9805 13.3166 13.5955 13.2999 13.2273 13.272C13.311 12.8424 13.3556 12.4017 13.3556 11.9665C13.3556 11.749 13.3445 11.5314 13.3278 11.3082ZM14.7001 10.2371C14.6834 10.2371 14.6611 10.2371 14.6444 10.2371C14.1088 10.2371 13.59 10.2148 13.1102 10.1813C12.8982 9.43376 12.5635 8.73083 12.1116 8.106C12.9484 8.212 13.7908 8.26779 14.6388 8.26779C16.3626 8.26779 18.0084 8.06137 19.2636 7.68201C19.682 7.55928 20.0837 7.3975 20.4686 7.20224V8.66388C18.0753 8.73083 15.6151 9.23292 14.7001 10.2371ZM15.4365 11.1241C15.4365 11.1186 15.4365 11.113 15.4421 11.1018C15.4923 10.9512 15.8884 10.583 17.0432 10.2594C18.1255 9.95259 19.537 9.78522 21.0209 9.78522H21.1158C22.7113 9.78522 24.2734 9.96932 25.4114 10.3152C26.5997 10.6723 26.8787 11.0405 26.8842 11.1241V11.1297C26.8787 11.2134 26.5997 11.5983 25.3612 11.9665C24.2176 12.3068 22.7113 12.4909 21.1213 12.4909C19.5816 12.4909 18.1199 12.3124 17.0098 11.9944C15.8103 11.6485 15.4812 11.2636 15.4477 11.1464C15.4365 11.1241 15.4365 11.1241 15.4365 11.1241ZM25.4561 18.1367C24.3291 18.4881 22.8173 18.6834 21.2106 18.6834C19.5983 18.6834 18.0921 18.4937 16.9763 18.1534C15.7992 17.7908 15.5537 17.417 15.5537 17.3333C15.5537 17.3278 15.5537 17.3278 15.5537 17.3222L15.5258 15.7043C15.9721 15.9219 16.4351 16.0893 16.9149 16.212C18.0865 16.5188 19.576 16.6918 21.1046 16.6918C22.8285 16.6918 24.463 16.4854 25.7127 16.106C26.1199 15.9833 26.5105 15.8215 26.8842 15.6318V17.3054H26.8898C26.8898 17.3835 26.6332 17.7685 25.4561 18.1367ZM26.8954 14.0307H26.8898C26.8898 14.0865 26.8563 14.1534 26.8563 14.2148C26.8563 14.2929 26.5941 14.6723 25.3891 15.0405C24.2455 15.3863 22.7225 15.576 21.1102 15.576C18.0195 15.576 15.9386 14.8787 15.5035 14.3375L15.4979 13.8689L15.4756 12.5858C15.8661 12.781 16.2734 12.9372 16.6918 13.0544C17.9024 13.4059 19.47 13.5955 21.1158 13.5955C22.8117 13.5955 24.4296 13.3947 25.6736 13.0265C26.0976 12.9094 26.5049 12.7476 26.8954 12.5467V14.0307Z" fill="#ACACAC"/>
</svg>
