<svg width="28" height="29" viewBox="0 0 28 29" fill="none" xmlns="http://www.w3.org/2000/svg">
<path d="M17.6094 22.7129C20.0217 22.7129 21.9844 24.7456 21.9844 27.2441C21.9844 27.5569 22.2293 27.8105 22.5312 27.8105C22.8332 27.8105 23.0781 27.5569 23.0781 27.2441C23.0781 24.7456 25.0408 22.7129 27.4531 22.7129C27.7551 22.7129 28 22.4593 28 22.1465C28 21.8337 27.7551 21.5801 27.4531 21.5801C25.0408 21.5801 23.0781 19.5474 23.0781 17.0488C23.0781 16.7361 22.8332 16.4824 22.5312 16.4824C22.2293 16.4824 21.9844 16.7361 21.9844 17.0488C21.9844 19.5474 20.0217 21.5801 17.6094 21.5801C17.3074 21.5801 17.0625 21.8337 17.0625 22.1465C17.0625 22.4593 17.3074 22.7129 17.6094 22.7129ZM22.5312 19.5167C23.0681 20.6605 23.9659 21.5904 25.0703 22.1465C23.966 22.7025 23.0681 23.6324 22.5312 24.7763C21.9944 23.6325 21.0966 22.7025 19.9922 22.1465C21.0966 21.5905 21.9944 20.6606 22.5312 19.5167Z" fill="#ACACAC"/>
<path d="M0.546875 5.7207C2.05461 5.7207 3.28125 6.99115 3.28125 8.55273C3.28125 8.8655 3.52609 9.11914 3.82812 9.11914C4.13016 9.11914 4.375 8.8655 4.375 8.55273C4.375 6.99115 5.60164 5.7207 7.10938 5.7207C7.41141 5.7207 7.65625 5.46707 7.65625 5.1543C7.65625 4.84153 7.41141 4.58789 7.10938 4.58789C5.60164 4.58789 4.375 3.31744 4.375 1.75586C4.375 1.44309 4.13016 1.18945 3.82812 1.18945C3.52609 1.18945 3.28125 1.44309 3.28125 1.75586C3.28125 3.31744 2.05461 4.58789 0.546875 4.58789C0.244836 4.58789 0 4.84153 0 5.1543C0 5.46707 0.244836 5.7207 0.546875 5.7207ZM3.82812 3.79628C4.15149 4.35193 4.60283 4.81944 5.13926 5.1543C4.60277 5.48916 4.15144 5.95667 3.82812 6.51231C3.50476 5.95667 3.05342 5.48916 2.51699 5.1543C3.05342 4.81944 3.50476 4.35193 3.82812 3.79628Z" fill="#ACACAC"/>
<path d="M15.2578 17.2188C15.5598 17.2188 15.8047 16.9652 15.8047 16.6523C15.8047 16.3395 15.5598 16.0859 15.2578 16.0859C14.9558 16.0859 14.7109 16.3395 14.7109 16.6523C14.7109 16.9652 14.9558 17.2188 15.2578 17.2188Z" fill="#ACACAC"/>
<path d="M16.7168 15.3606C16.8708 15.6296 17.2064 15.7183 17.4661 15.5586C18.8945 14.6808 20.5325 14.2168 22.2031 14.2168C22.5051 14.2168 22.75 13.9632 22.75 13.6504C22.75 13.3376 22.5051 13.084 22.2031 13.084C17.0768 13.084 12.9062 8.76446 12.9062 3.45508C12.9062 3.14231 12.6614 2.88867 12.3594 2.88867C12.0573 2.88867 11.8125 3.14231 11.8125 3.45508C11.8125 8.76446 7.64192 13.084 2.51562 13.084C2.21359 13.084 1.96875 13.3376 1.96875 13.6504C1.96875 13.9632 2.21359 14.2168 2.51562 14.2168C7.64192 14.2168 11.8125 18.5363 11.8125 23.8457C11.8125 24.1585 12.0573 24.4121 12.3594 24.4121C12.6614 24.4121 12.9062 24.1585 12.9062 23.8457C12.9062 22.1154 13.3542 20.4189 14.2018 18.9396C14.3559 18.6705 14.2703 18.323 14.0106 18.1634C13.7507 18.0036 13.4153 18.0924 13.2612 18.3614C12.8913 19.007 12.5896 19.6894 12.359 20.3966C11.3225 17.2317 8.90055 14.7236 5.84473 13.6504C8.90088 12.5771 11.323 10.0684 12.3594 6.90308C13.3956 10.068 15.8172 12.5765 18.8729 13.65C18.1901 13.8888 17.5313 14.2013 16.9079 14.5845C16.6482 14.7441 16.5626 15.0916 16.7168 15.3606Z" fill="#ACACAC"/>
</svg>
