<svg width="256" height="18" viewBox="0 0 256 18" fill="none" xmlns="http://www.w3.org/2000/svg">
<path d="M2.67285 8.40137H3.5752C4.01725 8.40137 4.38184 8.32845 4.66895 8.18262C4.96061 8.03223 5.17708 7.82943 5.31836 7.57422C5.46419 7.31445 5.53711 7.02279 5.53711 6.69922C5.53711 6.31641 5.47331 5.99512 5.3457 5.73535C5.2181 5.47559 5.02669 5.27962 4.77148 5.14746C4.51628 5.0153 4.19271 4.94922 3.80078 4.94922C3.44531 4.94922 3.13086 5.01986 2.85742 5.16113C2.58854 5.29785 2.37663 5.49382 2.22168 5.74902C2.07129 6.00423 1.99609 6.30501 1.99609 6.65137H0.731445C0.731445 6.14551 0.859049 5.68522 1.11426 5.27051C1.36947 4.85579 1.72721 4.52539 2.1875 4.2793C2.65234 4.0332 3.1901 3.91016 3.80078 3.91016C4.40234 3.91016 4.92871 4.01725 5.37988 4.23145C5.83105 4.44108 6.18197 4.75553 6.43262 5.1748C6.68327 5.58952 6.80859 6.10677 6.80859 6.72656C6.80859 6.97721 6.74935 7.24609 6.63086 7.5332C6.51693 7.81576 6.33691 8.08008 6.09082 8.32617C5.84928 8.57227 5.53483 8.77507 5.14746 8.93457C4.76009 9.08952 4.29525 9.16699 3.75293 9.16699H2.67285V8.40137ZM2.67285 9.44043V8.68164H3.75293C4.38639 8.68164 4.91048 8.75684 5.3252 8.90723C5.73991 9.05762 6.06576 9.25814 6.30273 9.50879C6.54427 9.75944 6.71289 10.0352 6.80859 10.3359C6.90885 10.6322 6.95898 10.9284 6.95898 11.2246C6.95898 11.6895 6.87923 12.1019 6.71973 12.4619C6.56478 12.8219 6.34375 13.1273 6.05664 13.3779C5.77409 13.6286 5.44141 13.8177 5.05859 13.9453C4.67578 14.0729 4.25879 14.1367 3.80762 14.1367C3.37467 14.1367 2.9668 14.0752 2.58398 13.9521C2.20573 13.8291 1.87077 13.6514 1.5791 13.4189C1.28743 13.182 1.05957 12.8926 0.895508 12.5508C0.731445 12.2044 0.649414 11.8102 0.649414 11.3682H1.91406C1.91406 11.7145 1.98926 12.0176 2.13965 12.2773C2.2946 12.5371 2.51335 12.7399 2.7959 12.8857C3.08301 13.027 3.42025 13.0977 3.80762 13.0977C4.19499 13.0977 4.52767 13.0316 4.80566 12.8994C5.08822 12.7627 5.30469 12.5576 5.45508 12.2842C5.61003 12.0107 5.6875 11.6667 5.6875 11.252C5.6875 10.8372 5.60091 10.4977 5.42773 10.2334C5.25456 9.96452 5.00846 9.76628 4.68945 9.63867C4.375 9.50651 4.00358 9.44043 3.5752 9.44043H2.67285ZM11.7236 14H9.64551L9.65918 12.9268H11.7236C12.4346 12.9268 13.027 12.7786 13.501 12.4824C13.9749 12.1816 14.3304 11.7624 14.5674 11.2246C14.8089 10.6823 14.9297 10.0488 14.9297 9.32422V8.71582C14.9297 8.14616 14.8613 7.6403 14.7246 7.19824C14.5879 6.75163 14.3874 6.37565 14.123 6.07031C13.8587 5.76042 13.5352 5.52572 13.1523 5.36621C12.7741 5.20671 12.3389 5.12695 11.8467 5.12695H9.60449V4.04688H11.8467C12.4984 4.04688 13.0931 4.15625 13.6309 4.375C14.1686 4.58919 14.6312 4.90137 15.0186 5.31152C15.4105 5.71712 15.7113 6.20931 15.9209 6.78809C16.1305 7.3623 16.2354 8.00944 16.2354 8.72949V9.32422C16.2354 10.0443 16.1305 10.6937 15.9209 11.2725C15.7113 11.8467 15.4082 12.3366 15.0117 12.7422C14.6198 13.1478 14.1458 13.46 13.5898 13.6787C13.0384 13.8929 12.4163 14 11.7236 14ZM10.3496 4.04688V14H9.03027V4.04688H10.3496ZM24.1309 9.24902V10.2881H20.7949V9.24902H24.1309ZM32.3135 10.7461H29.8867L29.873 9.73438H31.8555C32.2474 9.73438 32.5732 9.69564 32.833 9.61816C33.0973 9.54069 33.2956 9.42448 33.4277 9.26953C33.5599 9.11458 33.626 8.92318 33.626 8.69531C33.626 8.51758 33.5872 8.36263 33.5098 8.23047C33.4368 8.09375 33.3252 7.9821 33.1748 7.89551C33.0244 7.80436 32.8376 7.73828 32.6143 7.69727C32.3955 7.65169 32.138 7.62891 31.8418 7.62891H30.2217V14H28.957V6.60352H31.8418C32.3112 6.60352 32.7327 6.64453 33.1064 6.72656C33.4847 6.80859 33.806 6.93392 34.0703 7.10254C34.3392 7.2666 34.5443 7.47624 34.6855 7.73145C34.8268 7.98665 34.8975 8.28743 34.8975 8.63379C34.8975 8.8571 34.8519 9.06901 34.7607 9.26953C34.6696 9.47005 34.5352 9.64779 34.3574 9.80273C34.1797 9.95768 33.9609 10.0853 33.7012 10.1855C33.4414 10.2812 33.1429 10.3428 32.8057 10.3701L32.3135 10.7461ZM32.3135 14H29.4287L30.0576 12.9746H32.3135C32.6644 12.9746 32.9561 12.9313 33.1885 12.8447C33.4209 12.7536 33.5941 12.626 33.708 12.4619C33.8265 12.2933 33.8857 12.0928 33.8857 11.8604C33.8857 11.6279 33.8265 11.4297 33.708 11.2656C33.5941 11.097 33.4209 10.9694 33.1885 10.8828C32.9561 10.7917 32.6644 10.7461 32.3135 10.7461H30.3926L30.4062 9.73438H32.8057L33.2637 10.1172C33.6693 10.1491 34.0133 10.2493 34.2959 10.418C34.5785 10.5866 34.7926 10.8008 34.9385 11.0605C35.0843 11.3158 35.1572 11.5938 35.1572 11.8945C35.1572 12.2409 35.0911 12.5462 34.959 12.8105C34.8314 13.0749 34.6445 13.2959 34.3984 13.4736C34.1523 13.6468 33.8538 13.779 33.5029 13.8701C33.152 13.9567 32.7555 14 32.3135 14ZM38.2197 11.9971L41.6309 6.60352H42.9023V14H41.6309V8.60645L38.2197 14H36.9619V6.60352H38.2197V11.9971ZM47.6943 10.4658H46.334V9.68652H47.5918C47.9427 9.68652 48.2207 9.64323 48.4258 9.55664C48.6309 9.46549 48.7767 9.34017 48.8633 9.18066C48.9499 9.02116 48.9932 8.83431 48.9932 8.62012C48.9932 8.42871 48.943 8.2487 48.8428 8.08008C48.7471 7.9069 48.5921 7.7679 48.3779 7.66309C48.1637 7.55371 47.8766 7.49902 47.5166 7.49902C47.2249 7.49902 46.9606 7.55143 46.7236 7.65625C46.4867 7.75651 46.2975 7.89551 46.1562 8.07324C46.0195 8.24642 45.9512 8.44238 45.9512 8.66113H44.6865C44.6865 8.20996 44.8141 7.82259 45.0693 7.49902C45.3291 7.1709 45.6732 6.91797 46.1016 6.74023C46.5345 6.5625 47.0062 6.47363 47.5166 6.47363C47.945 6.47363 48.3278 6.52148 48.665 6.61719C49.0068 6.70833 49.2962 6.84505 49.5332 7.02734C49.7702 7.20508 49.9502 7.42839 50.0732 7.69727C50.2008 7.96159 50.2646 8.26921 50.2646 8.62012C50.2646 8.87077 50.2054 9.10775 50.0869 9.33105C49.9684 9.55436 49.7975 9.7526 49.5742 9.92578C49.3509 10.0944 49.0798 10.2266 48.7607 10.3223C48.4463 10.418 48.0908 10.4658 47.6943 10.4658ZM46.334 9.9873H47.6943C48.1364 9.9873 48.526 10.0306 48.8633 10.1172C49.2005 10.1992 49.4831 10.3223 49.7109 10.4863C49.9388 10.6504 50.1097 10.8532 50.2236 11.0947C50.3421 11.3317 50.4014 11.6051 50.4014 11.915C50.4014 12.2614 50.3307 12.5736 50.1895 12.8516C50.0527 13.125 49.8568 13.3574 49.6016 13.5488C49.3464 13.7402 49.041 13.8861 48.6855 13.9863C48.3346 14.0866 47.945 14.1367 47.5166 14.1367C47.0381 14.1367 46.5732 14.0547 46.1221 13.8906C45.6709 13.7266 45.2995 13.4736 45.0078 13.1318C44.7161 12.7855 44.5703 12.3457 44.5703 11.8125H45.835C45.835 12.0358 45.9056 12.2477 46.0469 12.4482C46.1882 12.6488 46.3841 12.8105 46.6348 12.9336C46.89 13.0566 47.1839 13.1182 47.5166 13.1182C47.8721 13.1182 48.1683 13.0635 48.4053 12.9541C48.6423 12.8447 48.82 12.6989 48.9385 12.5166C49.0615 12.3343 49.123 12.1361 49.123 11.9219C49.123 11.6439 49.0684 11.4206 48.959 11.252C48.8496 11.0833 48.681 10.9603 48.4531 10.8828C48.2298 10.8008 47.9427 10.7598 47.5918 10.7598H46.334V9.9873ZM54.1201 13.2344L56.1777 6.60352H57.5312L54.5645 15.1416C54.4961 15.3239 54.4049 15.5199 54.291 15.7295C54.1816 15.9437 54.0404 16.1465 53.8672 16.3379C53.694 16.5293 53.4844 16.6842 53.2383 16.8027C52.9967 16.9258 52.7074 16.9873 52.3701 16.9873C52.2699 16.9873 52.1423 16.9736 51.9873 16.9463C51.8324 16.9189 51.723 16.8962 51.6592 16.8779L51.6523 15.8525C51.6888 15.8571 51.7458 15.8617 51.8232 15.8662C51.9053 15.8753 51.9622 15.8799 51.9941 15.8799C52.2812 15.8799 52.5251 15.8411 52.7256 15.7637C52.9261 15.6908 53.0947 15.5654 53.2314 15.3877C53.3727 15.2145 53.4935 14.9753 53.5938 14.6699L54.1201 13.2344ZM52.6094 6.60352L54.5303 12.3457L54.8584 13.6787L53.9492 14.1436L51.2285 6.60352H52.6094ZM62.9248 12.7354V8.92773C62.9248 8.63607 62.8656 8.38314 62.7471 8.16895C62.6331 7.9502 62.46 7.78158 62.2275 7.66309C61.9951 7.5446 61.708 7.48535 61.3662 7.48535C61.0472 7.48535 60.7669 7.54004 60.5254 7.64941C60.2884 7.75879 60.1016 7.90234 59.9648 8.08008C59.8327 8.25781 59.7666 8.44922 59.7666 8.6543H58.502C58.502 8.38997 58.5703 8.12793 58.707 7.86816C58.8438 7.6084 59.0397 7.3737 59.2949 7.16406C59.5547 6.94987 59.8646 6.78125 60.2246 6.6582C60.5892 6.5306 60.9948 6.4668 61.4414 6.4668C61.9792 6.4668 62.4531 6.55794 62.8633 6.74023C63.278 6.92253 63.6016 7.19824 63.834 7.56738C64.071 7.93197 64.1895 8.38997 64.1895 8.94141V12.3867C64.1895 12.6328 64.21 12.8949 64.251 13.1729C64.2965 13.4508 64.3626 13.6901 64.4492 13.8906V14H63.1299C63.0661 13.8542 63.016 13.6605 62.9795 13.4189C62.943 13.1729 62.9248 12.945 62.9248 12.7354ZM63.1436 9.51562L63.1572 10.4043H61.8789C61.5189 10.4043 61.1976 10.4339 60.915 10.4932C60.6325 10.5479 60.3955 10.6322 60.2041 10.7461C60.0127 10.86 59.8669 11.0036 59.7666 11.1768C59.6663 11.3454 59.6162 11.5436 59.6162 11.7715C59.6162 12.0039 59.6686 12.2158 59.7734 12.4072C59.8783 12.5986 60.0355 12.7513 60.2451 12.8652C60.4593 12.9746 60.7214 13.0293 61.0312 13.0293C61.4186 13.0293 61.7604 12.9473 62.0566 12.7832C62.3529 12.6191 62.5876 12.4186 62.7607 12.1816C62.9385 11.9447 63.0342 11.7145 63.0479 11.4912L63.5879 12.0996C63.556 12.291 63.4694 12.5029 63.3281 12.7354C63.1868 12.9678 62.9977 13.1911 62.7607 13.4053C62.5283 13.6149 62.2503 13.7904 61.9268 13.9316C61.6077 14.0684 61.2477 14.1367 60.8467 14.1367C60.3454 14.1367 59.9056 14.0387 59.5273 13.8428C59.1536 13.6468 58.862 13.3848 58.6523 13.0566C58.4473 12.724 58.3447 12.3525 58.3447 11.9424C58.3447 11.5459 58.4222 11.1973 58.5771 10.8965C58.7321 10.5911 58.9554 10.3382 59.2471 10.1377C59.5387 9.93262 59.8896 9.77767 60.2998 9.67285C60.71 9.56803 61.168 9.51562 61.6738 9.51562H63.1436ZM71.1211 6.60352V7.64941H67.5459V6.60352H71.1211ZM72.2354 6.60352V14H70.9707V6.60352H72.2354ZM67.2383 6.60352H68.5098L68.3184 10.1719C68.2865 10.7233 68.234 11.2109 68.1611 11.6348C68.0928 12.054 67.9971 12.4141 67.874 12.7148C67.7555 13.0156 67.6051 13.2617 67.4229 13.4531C67.2451 13.64 67.0309 13.779 66.7803 13.8701C66.5296 13.9567 66.2402 14 65.9121 14H65.5156V12.8857L65.7891 12.8652C65.985 12.8516 66.1514 12.806 66.2881 12.7285C66.4294 12.651 66.5479 12.5371 66.6436 12.3867C66.7393 12.2318 66.8167 12.0335 66.876 11.792C66.9398 11.5505 66.9876 11.2633 67.0195 10.9307C67.056 10.598 67.0833 10.2106 67.1016 9.76855L67.2383 6.60352ZM75.6396 11.9971L79.0508 6.60352H80.3223V14H79.0508V8.60645L75.6396 14H74.3818V6.60352H75.6396V11.9971ZM85.1143 10.4658H83.7539V9.68652H85.0117C85.3626 9.68652 85.6406 9.64323 85.8457 9.55664C86.0508 9.46549 86.1966 9.34017 86.2832 9.18066C86.3698 9.02116 86.4131 8.83431 86.4131 8.62012C86.4131 8.42871 86.363 8.2487 86.2627 8.08008C86.167 7.9069 86.012 7.7679 85.7979 7.66309C85.5837 7.55371 85.2965 7.49902 84.9365 7.49902C84.6449 7.49902 84.3805 7.55143 84.1436 7.65625C83.9066 7.75651 83.7174 7.89551 83.5762 8.07324C83.4395 8.24642 83.3711 8.44238 83.3711 8.66113H82.1064C82.1064 8.20996 82.234 7.82259 82.4893 7.49902C82.749 7.1709 83.0931 6.91797 83.5215 6.74023C83.9544 6.5625 84.4261 6.47363 84.9365 6.47363C85.3649 6.47363 85.7477 6.52148 86.085 6.61719C86.4268 6.70833 86.7161 6.84505 86.9531 7.02734C87.1901 7.20508 87.3701 7.42839 87.4932 7.69727C87.6208 7.96159 87.6846 8.26921 87.6846 8.62012C87.6846 8.87077 87.6253 9.10775 87.5068 9.33105C87.3883 9.55436 87.2174 9.7526 86.9941 9.92578C86.7708 10.0944 86.4997 10.2266 86.1807 10.3223C85.8662 10.418 85.5107 10.4658 85.1143 10.4658ZM83.7539 9.9873H85.1143C85.5563 9.9873 85.946 10.0306 86.2832 10.1172C86.6204 10.1992 86.903 10.3223 87.1309 10.4863C87.3587 10.6504 87.5296 10.8532 87.6436 11.0947C87.762 11.3317 87.8213 11.6051 87.8213 11.915C87.8213 12.2614 87.7507 12.5736 87.6094 12.8516C87.4727 13.125 87.2767 13.3574 87.0215 13.5488C86.7663 13.7402 86.4609 13.8861 86.1055 13.9863C85.7546 14.0866 85.3649 14.1367 84.9365 14.1367C84.458 14.1367 83.9932 14.0547 83.542 13.8906C83.0908 13.7266 82.7194 13.4736 82.4277 13.1318C82.1361 12.7855 81.9902 12.3457 81.9902 11.8125H83.2549C83.2549 12.0358 83.3255 12.2477 83.4668 12.4482C83.6081 12.6488 83.804 12.8105 84.0547 12.9336C84.3099 13.0566 84.6038 13.1182 84.9365 13.1182C85.292 13.1182 85.5882 13.0635 85.8252 12.9541C86.0622 12.8447 86.2399 12.6989 86.3584 12.5166C86.4814 12.3343 86.543 12.1361 86.543 11.9219C86.543 11.6439 86.4883 11.4206 86.3789 11.252C86.2695 11.0833 86.1009 10.9603 85.873 10.8828C85.6497 10.8008 85.3626 10.7598 85.0117 10.7598H83.7539V9.9873ZM93.8232 12.7354V8.92773C93.8232 8.63607 93.764 8.38314 93.6455 8.16895C93.5316 7.9502 93.3584 7.78158 93.126 7.66309C92.8936 7.5446 92.6064 7.48535 92.2646 7.48535C91.9456 7.48535 91.6654 7.54004 91.4238 7.64941C91.1868 7.75879 91 7.90234 90.8633 8.08008C90.7311 8.25781 90.665 8.44922 90.665 8.6543H89.4004C89.4004 8.38997 89.4688 8.12793 89.6055 7.86816C89.7422 7.6084 89.9382 7.3737 90.1934 7.16406C90.4531 6.94987 90.763 6.78125 91.123 6.6582C91.4876 6.5306 91.8932 6.4668 92.3398 6.4668C92.8776 6.4668 93.3516 6.55794 93.7617 6.74023C94.1764 6.92253 94.5 7.19824 94.7324 7.56738C94.9694 7.93197 95.0879 8.38997 95.0879 8.94141V12.3867C95.0879 12.6328 95.1084 12.8949 95.1494 13.1729C95.195 13.4508 95.2611 13.6901 95.3477 13.8906V14H94.0283C93.9645 13.8542 93.9144 13.6605 93.8779 13.4189C93.8415 13.1729 93.8232 12.945 93.8232 12.7354ZM94.042 9.51562L94.0557 10.4043H92.7773C92.4173 10.4043 92.096 10.4339 91.8135 10.4932C91.5309 10.5479 91.2939 10.6322 91.1025 10.7461C90.9111 10.86 90.7653 11.0036 90.665 11.1768C90.5648 11.3454 90.5146 11.5436 90.5146 11.7715C90.5146 12.0039 90.5671 12.2158 90.6719 12.4072C90.7767 12.5986 90.9339 12.7513 91.1436 12.8652C91.3577 12.9746 91.6198 13.0293 91.9297 13.0293C92.3171 13.0293 92.6589 12.9473 92.9551 12.7832C93.2513 12.6191 93.486 12.4186 93.6592 12.1816C93.8369 11.9447 93.9326 11.7145 93.9463 11.4912L94.4863 12.0996C94.4544 12.291 94.3678 12.5029 94.2266 12.7354C94.0853 12.9678 93.8962 13.1911 93.6592 13.4053C93.4268 13.6149 93.1488 13.7904 92.8252 13.9316C92.5062 14.0684 92.1462 14.1367 91.7451 14.1367C91.2438 14.1367 90.804 14.0387 90.4258 13.8428C90.0521 13.6468 89.7604 13.3848 89.5508 13.0566C89.3457 12.724 89.2432 12.3525 89.2432 11.9424C89.2432 11.5459 89.3206 11.1973 89.4756 10.8965C89.6305 10.5911 89.8538 10.3382 90.1455 10.1377C90.4372 9.93262 90.7881 9.77767 91.1982 9.67285C91.6084 9.56803 92.0664 9.51562 92.5723 9.51562H94.042ZM97.1865 14V6.60352H98.4512V12.9609H101.855V6.60352H103.127V14H97.1865ZM104.002 12.9609L103.879 16.1943H102.751V14H101.787V12.9609H104.002ZM106.743 11.9971L110.154 6.60352H111.426V14H110.154V8.60645L106.743 14H105.485V6.60352H106.743V11.9971ZM114.953 10.4727H116.32L114.181 14H112.813L114.953 10.4727ZM116.013 6.60352H119.103V14H117.838V7.62891H116.013C115.653 7.62891 115.359 7.69043 115.131 7.81348C114.903 7.93197 114.737 8.08691 114.632 8.27832C114.527 8.46973 114.475 8.66797 114.475 8.87305C114.475 9.07357 114.522 9.26725 114.618 9.4541C114.714 9.63639 114.864 9.78678 115.069 9.90527C115.274 10.0238 115.539 10.083 115.862 10.083H118.18V11.1221H115.862C115.438 11.1221 115.062 11.0651 114.734 10.9512C114.406 10.8372 114.128 10.68 113.9 10.4795C113.673 10.2744 113.499 10.0352 113.381 9.76172C113.262 9.48372 113.203 9.18294 113.203 8.85938C113.203 8.53581 113.265 8.2373 113.388 7.96387C113.515 7.69043 113.698 7.45117 113.935 7.24609C114.176 7.04102 114.47 6.88379 114.816 6.77441C115.167 6.66048 115.566 6.60352 116.013 6.60352ZM129.541 6.60352V7.64941H125.802V6.60352H129.541ZM125.986 6.60352V14H124.722V6.60352H125.986ZM130.662 6.60352V14H129.391V6.60352H130.662ZM132.357 10.3838V10.2266C132.357 9.69336 132.435 9.19889 132.59 8.74316C132.745 8.28288 132.968 7.88411 133.26 7.54688C133.551 7.20508 133.905 6.94076 134.319 6.75391C134.734 6.5625 135.199 6.4668 135.714 6.4668C136.233 6.4668 136.701 6.5625 137.115 6.75391C137.535 6.94076 137.89 7.20508 138.182 7.54688C138.478 7.88411 138.703 8.28288 138.858 8.74316C139.013 9.19889 139.091 9.69336 139.091 10.2266V10.3838C139.091 10.917 139.013 11.4115 138.858 11.8672C138.703 12.3229 138.478 12.7217 138.182 13.0635C137.89 13.4007 137.537 13.665 137.122 13.8564C136.712 14.0433 136.247 14.1367 135.728 14.1367C135.208 14.1367 134.741 14.0433 134.326 13.8564C133.911 13.665 133.556 13.4007 133.26 13.0635C132.968 12.7217 132.745 12.3229 132.59 11.8672C132.435 11.4115 132.357 10.917 132.357 10.3838ZM133.622 10.2266V10.3838C133.622 10.7529 133.665 11.1016 133.752 11.4297C133.839 11.7533 133.968 12.0404 134.142 12.291C134.319 12.5417 134.54 12.7399 134.805 12.8857C135.069 13.027 135.377 13.0977 135.728 13.0977C136.074 13.0977 136.377 13.027 136.637 12.8857C136.901 12.7399 137.12 12.5417 137.293 12.291C137.466 12.0404 137.596 11.7533 137.683 11.4297C137.774 11.1016 137.819 10.7529 137.819 10.3838V10.2266C137.819 9.86198 137.774 9.5179 137.683 9.19434C137.596 8.86621 137.464 8.57682 137.286 8.32617C137.113 8.07096 136.894 7.87044 136.63 7.72461C136.37 7.57878 136.065 7.50586 135.714 7.50586C135.368 7.50586 135.062 7.57878 134.798 7.72461C134.538 7.87044 134.319 8.07096 134.142 8.32617C133.968 8.57682 133.839 8.86621 133.752 9.19434C133.665 9.5179 133.622 9.86198 133.622 10.2266ZM144.929 12.3184L147.444 6.60352H148.661L145.366 14H144.491L141.21 6.60352H142.427L144.929 12.3184ZM142.058 6.60352V14H140.793V6.60352H142.058ZM147.759 14V6.60352H149.03V14H147.759ZM154.137 14.1367C153.622 14.1367 153.155 14.0501 152.735 13.877C152.321 13.6992 151.963 13.4508 151.662 13.1318C151.366 12.8128 151.138 12.4346 150.979 11.9971C150.819 11.5596 150.739 11.0811 150.739 10.5615V10.2744C150.739 9.67285 150.828 9.13737 151.006 8.66797C151.184 8.19401 151.425 7.79297 151.73 7.46484C152.036 7.13672 152.382 6.88835 152.77 6.71973C153.157 6.55111 153.558 6.4668 153.973 6.4668C154.501 6.4668 154.957 6.55794 155.34 6.74023C155.727 6.92253 156.044 7.17773 156.29 7.50586C156.536 7.82943 156.718 8.21224 156.837 8.6543C156.955 9.0918 157.015 9.57031 157.015 10.0898V10.6572H151.491V9.625H155.75V9.5293C155.732 9.20117 155.663 8.88216 155.545 8.57227C155.431 8.26237 155.249 8.00716 154.998 7.80664C154.747 7.60612 154.406 7.50586 153.973 7.50586C153.686 7.50586 153.421 7.56738 153.18 7.69043C152.938 7.80892 152.731 7.98665 152.558 8.22363C152.384 8.46061 152.25 8.75 152.154 9.0918C152.059 9.43359 152.011 9.8278 152.011 10.2744V10.5615C152.011 10.9124 152.059 11.2428 152.154 11.5527C152.255 11.8581 152.398 12.127 152.585 12.3594C152.776 12.5918 153.007 12.7741 153.275 12.9062C153.549 13.0384 153.859 13.1045 154.205 13.1045C154.652 13.1045 155.03 13.0133 155.34 12.8311C155.65 12.6488 155.921 12.4049 156.153 12.0996L156.919 12.708C156.759 12.9495 156.557 13.1797 156.311 13.3984C156.064 13.6172 155.761 13.7949 155.401 13.9316C155.046 14.0684 154.624 14.1367 154.137 14.1367ZM168.772 12.9609L168.649 16.1943H167.521V14H166.558V12.9609H168.772ZM158.525 6.60352H159.79V12.9609H162.497V6.60352H163.769V12.9609H166.469V6.60352H167.733V14H158.525V6.60352ZM173.236 14.1367C172.721 14.1367 172.254 14.0501 171.835 13.877C171.42 13.6992 171.062 13.4508 170.762 13.1318C170.465 12.8128 170.238 12.4346 170.078 11.9971C169.919 11.5596 169.839 11.0811 169.839 10.5615V10.2744C169.839 9.67285 169.928 9.13737 170.105 8.66797C170.283 8.19401 170.525 7.79297 170.83 7.46484C171.135 7.13672 171.482 6.88835 171.869 6.71973C172.257 6.55111 172.658 6.4668 173.072 6.4668C173.601 6.4668 174.057 6.55794 174.439 6.74023C174.827 6.92253 175.144 7.17773 175.39 7.50586C175.636 7.82943 175.818 8.21224 175.937 8.6543C176.055 9.0918 176.114 9.57031 176.114 10.0898V10.6572H170.591V9.625H174.85V9.5293C174.831 9.20117 174.763 8.88216 174.645 8.57227C174.531 8.26237 174.348 8.00716 174.098 7.80664C173.847 7.60612 173.505 7.50586 173.072 7.50586C172.785 7.50586 172.521 7.56738 172.279 7.69043C172.038 7.80892 171.83 7.98665 171.657 8.22363C171.484 8.46061 171.35 8.75 171.254 9.0918C171.158 9.43359 171.11 9.8278 171.11 10.2744V10.5615C171.11 10.9124 171.158 11.2428 171.254 11.5527C171.354 11.8581 171.498 12.127 171.685 12.3594C171.876 12.5918 172.106 12.7741 172.375 12.9062C172.648 13.0384 172.958 13.1045 173.305 13.1045C173.751 13.1045 174.13 13.0133 174.439 12.8311C174.749 12.6488 175.021 12.4049 175.253 12.0996L176.019 12.708C175.859 12.9495 175.656 13.1797 175.41 13.3984C175.164 13.6172 174.861 13.7949 174.501 13.9316C174.146 14.0684 173.724 14.1367 173.236 14.1367ZM182.608 9.80957V10.835H178.698V9.80957H182.608ZM178.965 6.60352V14H177.7V6.60352H178.965ZM183.634 6.60352V14H182.362V6.60352H183.634ZM187.038 11.9971L190.449 6.60352H191.721V14H190.449V8.60645L187.038 14H185.78V6.60352H187.038V11.9971ZM195.118 11.9971L198.529 6.60352H199.801V14H198.529V8.60645L195.118 14H193.86V6.60352H195.118V11.9971ZM197.839 3.92383H198.864C198.864 4.2793 198.782 4.59603 198.618 4.87402C198.454 5.14746 198.219 5.36165 197.914 5.5166C197.609 5.67155 197.246 5.74902 196.827 5.74902C196.194 5.74902 195.692 5.5804 195.323 5.24316C194.959 4.90137 194.776 4.46159 194.776 3.92383H195.802C195.802 4.19271 195.879 4.42969 196.034 4.63477C196.189 4.83984 196.453 4.94238 196.827 4.94238C197.192 4.94238 197.451 4.83984 197.606 4.63477C197.761 4.42969 197.839 4.19271 197.839 3.92383ZM201.619 7.29395C201.619 7.07975 201.685 6.89974 201.817 6.75391C201.954 6.60352 202.15 6.52832 202.405 6.52832C202.66 6.52832 202.854 6.60352 202.986 6.75391C203.123 6.89974 203.191 7.07975 203.191 7.29395C203.191 7.50358 203.123 7.68132 202.986 7.82715C202.854 7.97298 202.66 8.0459 202.405 8.0459C202.15 8.0459 201.954 7.97298 201.817 7.82715C201.685 7.68132 201.619 7.50358 201.619 7.29395ZM203.062 12.4961V13.5146C203.062 13.9294 202.957 14.3669 202.747 14.8271C202.537 15.292 202.243 15.6794 201.865 15.9893L201.147 15.4902C201.293 15.2897 201.416 15.0846 201.517 14.875C201.617 14.6699 201.692 14.4557 201.742 14.2324C201.797 14.0137 201.824 13.7812 201.824 13.5352V12.4961H203.062Z" fill="#303030" fill-opacity="0.9"/>
</svg>
