<svg width="237" height="36" viewBox="0 0 237 36" fill="none" xmlns="http://www.w3.org/2000/svg">
<path d="M3.92383 13.0977C4.22461 13.0977 4.5026 13.0361 4.75781 12.9131C5.01302 12.79 5.22266 12.6214 5.38672 12.4072C5.55078 12.1885 5.64421 11.9401 5.66699 11.6621H6.87012C6.84733 12.0996 6.69922 12.5075 6.42578 12.8857C6.1569 13.2594 5.80371 13.5625 5.36621 13.7949C4.92871 14.0228 4.44792 14.1367 3.92383 14.1367C3.36784 14.1367 2.88249 14.0387 2.46777 13.8428C2.05762 13.6468 1.71582 13.3779 1.44238 13.0361C1.1735 12.6943 0.970703 12.3024 0.833984 11.8604C0.701823 11.4137 0.635742 10.9421 0.635742 10.4453V10.1582C0.635742 9.66146 0.701823 9.19206 0.833984 8.75C0.970703 8.30339 1.1735 7.90918 1.44238 7.56738C1.71582 7.22559 2.05762 6.95671 2.46777 6.76074C2.88249 6.56478 3.36784 6.4668 3.92383 6.4668C4.5026 6.4668 5.00846 6.58529 5.44141 6.82227C5.87435 7.05469 6.21387 7.3737 6.45996 7.7793C6.71061 8.18034 6.84733 8.63607 6.87012 9.14648H5.66699C5.64421 8.84115 5.55762 8.56543 5.40723 8.31934C5.26139 8.07324 5.06087 7.87728 4.80566 7.73145C4.55501 7.58105 4.26107 7.50586 3.92383 7.50586C3.53646 7.50586 3.21061 7.58333 2.94629 7.73828C2.68652 7.88867 2.47917 8.09375 2.32422 8.35352C2.17383 8.60872 2.06445 8.89355 1.99609 9.20801C1.93229 9.5179 1.90039 9.83464 1.90039 10.1582V10.4453C1.90039 10.7689 1.93229 11.0879 1.99609 11.4023C2.0599 11.7168 2.16699 12.0016 2.31738 12.2568C2.47233 12.512 2.67969 12.7171 2.93945 12.8721C3.20378 13.0225 3.5319 13.0977 3.92383 13.0977ZM11.3066 6.60352V14H10.0352V6.60352H11.3066ZM13.7881 6.60352V7.62891H7.60156V6.60352H13.7881ZM16.2969 8.02539V16.8438H15.0254V6.60352H16.1875L16.2969 8.02539ZM21.2803 10.2402V10.3838C21.2803 10.9215 21.2165 11.4206 21.0889 11.8809C20.9613 12.3366 20.7744 12.7331 20.5283 13.0703C20.2868 13.4076 19.9883 13.6696 19.6328 13.8564C19.2773 14.0433 18.8695 14.1367 18.4092 14.1367C17.9398 14.1367 17.5251 14.0592 17.165 13.9043C16.805 13.7493 16.4997 13.5238 16.249 13.2275C15.9984 12.9313 15.7979 12.5758 15.6475 12.1611C15.5016 11.7464 15.4014 11.2793 15.3467 10.7598V9.99414C15.4014 9.44727 15.5039 8.95736 15.6543 8.52441C15.8047 8.09147 16.0029 7.72233 16.249 7.41699C16.4997 7.1071 16.8027 6.8724 17.1582 6.71289C17.5137 6.54883 17.9238 6.4668 18.3887 6.4668C18.8535 6.4668 19.266 6.55794 19.626 6.74023C19.986 6.91797 20.2891 7.17318 20.5352 7.50586C20.7812 7.83854 20.9658 8.2373 21.0889 8.70215C21.2165 9.16243 21.2803 9.67513 21.2803 10.2402ZM20.0088 10.3838V10.2402C20.0088 9.87109 19.9701 9.52474 19.8926 9.20117C19.8151 8.87305 19.6943 8.58594 19.5303 8.33984C19.3708 8.08919 19.1657 7.89323 18.915 7.75195C18.6644 7.60612 18.3659 7.5332 18.0195 7.5332C17.7005 7.5332 17.4225 7.58789 17.1855 7.69727C16.9531 7.80664 16.7549 7.95475 16.5908 8.1416C16.4268 8.32389 16.2923 8.53353 16.1875 8.77051C16.0872 9.00293 16.012 9.24447 15.9619 9.49512V11.2656C16.0531 11.5846 16.1807 11.8854 16.3447 12.168C16.5088 12.446 16.7275 12.6715 17.001 12.8447C17.2744 13.0133 17.6185 13.0977 18.0332 13.0977C18.375 13.0977 18.6689 13.027 18.915 12.8857C19.1657 12.7399 19.3708 12.5417 19.5303 12.291C19.6943 12.0404 19.8151 11.7533 19.8926 11.4297C19.9701 11.1016 20.0088 10.7529 20.0088 10.3838ZM22.5586 10.3838V10.2266C22.5586 9.69336 22.6361 9.19889 22.791 8.74316C22.946 8.28288 23.1693 7.88411 23.4609 7.54688C23.7526 7.20508 24.1058 6.94076 24.5205 6.75391C24.9352 6.5625 25.4001 6.4668 25.915 6.4668C26.4346 6.4668 26.9017 6.5625 27.3164 6.75391C27.7357 6.94076 28.0911 7.20508 28.3828 7.54688C28.679 7.88411 28.9046 8.28288 29.0596 8.74316C29.2145 9.19889 29.292 9.69336 29.292 10.2266V10.3838C29.292 10.917 29.2145 11.4115 29.0596 11.8672C28.9046 12.3229 28.679 12.7217 28.3828 13.0635C28.0911 13.4007 27.738 13.665 27.3232 13.8564C26.9131 14.0433 26.4482 14.1367 25.9287 14.1367C25.4092 14.1367 24.9421 14.0433 24.5273 13.8564C24.1126 13.665 23.7572 13.4007 23.4609 13.0635C23.1693 12.7217 22.946 12.3229 22.791 11.8672C22.6361 11.4115 22.5586 10.917 22.5586 10.3838ZM23.8232 10.2266V10.3838C23.8232 10.7529 23.8665 11.1016 23.9531 11.4297C24.0397 11.7533 24.1696 12.0404 24.3428 12.291C24.5205 12.5417 24.7415 12.7399 25.0059 12.8857C25.2702 13.027 25.5778 13.0977 25.9287 13.0977C26.2751 13.0977 26.5781 13.027 26.8379 12.8857C27.1022 12.7399 27.321 12.5417 27.4941 12.291C27.6673 12.0404 27.7972 11.7533 27.8838 11.4297C27.9749 11.1016 28.0205 10.7529 28.0205 10.3838V10.2266C28.0205 9.86198 27.9749 9.5179 27.8838 9.19434C27.7972 8.86621 27.665 8.57682 27.4873 8.32617C27.3141 8.07096 27.0954 7.87044 26.8311 7.72461C26.5713 7.57878 26.266 7.50586 25.915 7.50586C25.5687 7.50586 25.2633 7.57878 24.999 7.72461C24.7393 7.87044 24.5205 8.07096 24.3428 8.32617C24.1696 8.57682 24.0397 8.86621 23.9531 9.19434C23.8665 9.5179 23.8232 9.86198 23.8232 10.2266ZM32.2451 11.9971L35.6562 6.60352H36.9277V14H35.6562V8.60645L32.2451 14H30.9873V6.60352H32.2451V11.9971ZM41.9727 6.60352V14H40.7012V6.60352H41.9727ZM44.4541 6.60352V7.62891H38.2676V6.60352H44.4541ZM48.2207 14.1367C47.7057 14.1367 47.2386 14.0501 46.8193 13.877C46.4046 13.6992 46.0469 13.4508 45.7461 13.1318C45.4499 12.8128 45.222 12.4346 45.0625 11.9971C44.903 11.5596 44.8232 11.0811 44.8232 10.5615V10.2744C44.8232 9.67285 44.9121 9.13737 45.0898 8.66797C45.2676 8.19401 45.5091 7.79297 45.8145 7.46484C46.1198 7.13672 46.4661 6.88835 46.8535 6.71973C47.2409 6.55111 47.6419 6.4668 48.0566 6.4668C48.5853 6.4668 49.041 6.55794 49.4238 6.74023C49.8112 6.92253 50.1279 7.17773 50.374 7.50586C50.6201 7.82943 50.8024 8.21224 50.9209 8.6543C51.0394 9.0918 51.0986 9.57031 51.0986 10.0898V10.6572H45.5752V9.625H49.834V9.5293C49.8158 9.20117 49.7474 8.88216 49.6289 8.57227C49.515 8.26237 49.3327 8.00716 49.082 7.80664C48.8314 7.60612 48.4896 7.50586 48.0566 7.50586C47.7695 7.50586 47.5052 7.56738 47.2637 7.69043C47.0221 7.80892 46.8148 7.98665 46.6416 8.22363C46.4684 8.46061 46.334 8.75 46.2383 9.0918C46.1426 9.43359 46.0947 9.8278 46.0947 10.2744V10.5615C46.0947 10.9124 46.1426 11.2428 46.2383 11.5527C46.3385 11.8581 46.4821 12.127 46.6689 12.3594C46.8604 12.5918 47.0905 12.7741 47.3594 12.9062C47.6328 13.0384 47.9427 13.1045 48.2891 13.1045C48.7357 13.1045 49.1139 13.0133 49.4238 12.8311C49.7337 12.6488 50.0049 12.4049 50.2373 12.0996L51.0029 12.708C50.8434 12.9495 50.6406 13.1797 50.3945 13.3984C50.1484 13.6172 49.8454 13.7949 49.4854 13.9316C49.1299 14.0684 48.7083 14.1367 48.2207 14.1367ZM57.5176 6.60352V7.64941H53.9424V6.60352H57.5176ZM58.6318 6.60352V14H57.3672V6.60352H58.6318ZM53.6348 6.60352H54.9062L54.7148 10.1719C54.6829 10.7233 54.6305 11.2109 54.5576 11.6348C54.4893 12.054 54.3936 12.4141 54.2705 12.7148C54.152 13.0156 54.0016 13.2617 53.8193 13.4531C53.6416 13.64 53.4274 13.779 53.1768 13.8701C52.9261 13.9567 52.6367 14 52.3086 14H51.9121V12.8857L52.1855 12.8652C52.3815 12.8516 52.5479 12.806 52.6846 12.7285C52.8258 12.651 52.9443 12.5371 53.04 12.3867C53.1357 12.2318 53.2132 12.0335 53.2725 11.792C53.3363 11.5505 53.3841 11.2633 53.416 10.9307C53.4525 10.598 53.4798 10.2106 53.498 9.76855L53.6348 6.60352ZM61.708 9.14648H63.9297C64.5267 9.14648 65.0303 9.2513 65.4404 9.46094C65.8506 9.66602 66.1605 9.95085 66.3701 10.3154C66.5843 10.6755 66.6914 11.0856 66.6914 11.5459C66.6914 11.8877 66.6322 12.209 66.5137 12.5098C66.3952 12.806 66.2174 13.0658 65.9805 13.2891C65.748 13.5124 65.4587 13.6878 65.1123 13.8154C64.7705 13.9385 64.3763 14 63.9297 14H60.7852V6.60352H62.0498V12.9609H63.9297C64.2943 12.9609 64.5859 12.8949 64.8047 12.7627C65.0234 12.6305 65.1807 12.4596 65.2764 12.25C65.3721 12.0404 65.4199 11.8216 65.4199 11.5938C65.4199 11.3704 65.3721 11.1517 65.2764 10.9375C65.1807 10.7233 65.0234 10.5456 64.8047 10.4043C64.5859 10.2585 64.2943 10.1855 63.9297 10.1855H61.708V9.14648ZM73.2881 9.80957V10.835H69.3779V9.80957H73.2881ZM69.6445 6.60352V14H68.3799V6.60352H69.6445ZM74.3135 6.60352V14H73.042V6.60352H74.3135ZM77.3896 9.14648H79.6113C80.2083 9.14648 80.7119 9.2513 81.1221 9.46094C81.5322 9.66602 81.8421 9.95085 82.0518 10.3154C82.266 10.6755 82.373 11.0856 82.373 11.5459C82.373 11.8877 82.3138 12.209 82.1953 12.5098C82.0768 12.806 81.8991 13.0658 81.6621 13.2891C81.4297 13.5124 81.1403 13.6878 80.7939 13.8154C80.4521 13.9385 80.0579 14 79.6113 14H76.4668V6.60352H77.7314V12.9609H79.6113C79.9759 12.9609 80.2676 12.8949 80.4863 12.7627C80.7051 12.6305 80.8623 12.4596 80.958 12.25C81.0537 12.0404 81.1016 11.8216 81.1016 11.5938C81.1016 11.3704 81.0537 11.1517 80.958 10.9375C80.8623 10.7233 80.7051 10.5456 80.4863 10.4043C80.2676 10.2585 79.9759 10.1855 79.6113 10.1855H77.3896V9.14648ZM85.0049 6.60352V14H83.7402V6.60352H85.0049ZM88.5869 11.9971L91.998 6.60352H93.2695V14H91.998V8.60645L88.5869 14H87.3291V6.60352H88.5869V11.9971ZM91.3076 3.92383H92.333C92.333 4.2793 92.251 4.59603 92.0869 4.87402C91.9229 5.14746 91.6882 5.36165 91.3828 5.5166C91.0775 5.67155 90.7152 5.74902 90.2959 5.74902C89.6624 5.74902 89.1611 5.5804 88.792 5.24316C88.4274 4.90137 88.2451 4.46159 88.2451 3.92383H89.2705C89.2705 4.19271 89.348 4.42969 89.5029 4.63477C89.6579 4.83984 89.9222 4.94238 90.2959 4.94238C90.6605 4.94238 90.9202 4.83984 91.0752 4.63477C91.2301 4.42969 91.3076 4.19271 91.3076 3.92383ZM103.701 6.60352V7.64941H99.9619V6.60352H103.701ZM100.146 6.60352V14H98.8818V6.60352H100.146ZM104.822 6.60352V14H103.551V6.60352H104.822ZM111.795 6.60352V7.64941H108.22V6.60352H111.795ZM112.909 6.60352V14H111.645V6.60352H112.909ZM107.912 6.60352H109.184L108.992 10.1719C108.96 10.7233 108.908 11.2109 108.835 11.6348C108.767 12.054 108.671 12.4141 108.548 12.7148C108.429 13.0156 108.279 13.2617 108.097 13.4531C107.919 13.64 107.705 13.779 107.454 13.8701C107.203 13.9567 106.914 14 106.586 14H106.189V12.8857L106.463 12.8652C106.659 12.8516 106.825 12.806 106.962 12.7285C107.103 12.651 107.222 12.5371 107.317 12.3867C107.413 12.2318 107.491 12.0335 107.55 11.792C107.614 11.5505 107.661 11.2633 107.693 10.9307C107.73 10.598 107.757 10.2106 107.775 9.76855L107.912 6.60352ZM119.308 12.7354V8.92773C119.308 8.63607 119.248 8.38314 119.13 8.16895C119.016 7.9502 118.843 7.78158 118.61 7.66309C118.378 7.5446 118.091 7.48535 117.749 7.48535C117.43 7.48535 117.15 7.54004 116.908 7.64941C116.671 7.75879 116.484 7.90234 116.348 8.08008C116.215 8.25781 116.149 8.44922 116.149 8.6543H114.885C114.885 8.38997 114.953 8.12793 115.09 7.86816C115.227 7.6084 115.423 7.3737 115.678 7.16406C115.938 6.94987 116.247 6.78125 116.607 6.6582C116.972 6.5306 117.378 6.4668 117.824 6.4668C118.362 6.4668 118.836 6.55794 119.246 6.74023C119.661 6.92253 119.984 7.19824 120.217 7.56738C120.454 7.93197 120.572 8.38997 120.572 8.94141V12.3867C120.572 12.6328 120.593 12.8949 120.634 13.1729C120.679 13.4508 120.745 13.6901 120.832 13.8906V14H119.513C119.449 13.8542 119.399 13.6605 119.362 13.4189C119.326 13.1729 119.308 12.945 119.308 12.7354ZM119.526 9.51562L119.54 10.4043H118.262C117.902 10.4043 117.58 10.4339 117.298 10.4932C117.015 10.5479 116.778 10.6322 116.587 10.7461C116.396 10.86 116.25 11.0036 116.149 11.1768C116.049 11.3454 115.999 11.5436 115.999 11.7715C115.999 12.0039 116.051 12.2158 116.156 12.4072C116.261 12.5986 116.418 12.7513 116.628 12.8652C116.842 12.9746 117.104 13.0293 117.414 13.0293C117.801 13.0293 118.143 12.9473 118.439 12.7832C118.736 12.6191 118.97 12.4186 119.144 12.1816C119.321 11.9447 119.417 11.7145 119.431 11.4912L119.971 12.0996C119.939 12.291 119.852 12.5029 119.711 12.7354C119.57 12.9678 119.381 13.1911 119.144 13.4053C118.911 13.6149 118.633 13.7904 118.31 13.9316C117.991 14.0684 117.631 14.1367 117.229 14.1367C116.728 14.1367 116.288 14.0387 115.91 13.8428C115.536 13.6468 115.245 13.3848 115.035 13.0566C114.83 12.724 114.728 12.3525 114.728 11.9424C114.728 11.5459 114.805 11.1973 114.96 10.8965C115.115 10.5911 115.338 10.3382 115.63 10.1377C115.922 9.93262 116.272 9.77767 116.683 9.67285C117.093 9.56803 117.551 9.51562 118.057 9.51562H119.526ZM127.579 9.80957V10.835H123.669V9.80957H127.579ZM123.936 6.60352V14H122.671V6.60352H123.936ZM128.604 6.60352V14H127.333V6.60352H128.604ZM134.066 10.0215V9.95312C134.066 8.95964 134.178 8.06185 134.401 7.25977C134.625 6.45312 134.91 5.74674 135.256 5.14062C135.602 4.53451 135.967 4.0332 136.35 3.63672C136.732 3.23568 137.086 2.94629 137.409 2.76855L137.676 3.60254C137.407 3.80762 137.133 4.09017 136.855 4.4502C136.582 4.81022 136.329 5.25228 136.097 5.77637C135.869 6.30046 135.684 6.90885 135.543 7.60156C135.402 8.29427 135.331 9.07357 135.331 9.93945V10.0352C135.331 10.901 135.402 11.6826 135.543 12.3799C135.684 13.0726 135.869 13.6833 136.097 14.2119C136.329 14.7406 136.582 15.1895 136.855 15.5586C137.133 15.9323 137.407 16.2285 137.676 16.4473L137.409 17.2129C137.086 17.0352 136.732 16.7458 136.35 16.3447C135.967 15.9482 135.602 15.4469 135.256 14.8408C134.91 14.2393 134.625 13.5352 134.401 12.7285C134.178 11.9219 134.066 11.0195 134.066 10.0215ZM143.165 12.3184L145.681 6.60352H146.897L143.603 14H142.728L139.446 6.60352H140.663L143.165 12.3184ZM140.294 6.60352V14H139.029V6.60352H140.294ZM145.995 14V6.60352H147.267V14H145.995ZM148.969 10.3838V10.2266C148.969 9.69336 149.046 9.19889 149.201 8.74316C149.356 8.28288 149.579 7.88411 149.871 7.54688C150.163 7.20508 150.516 6.94076 150.931 6.75391C151.345 6.5625 151.81 6.4668 152.325 6.4668C152.845 6.4668 153.312 6.5625 153.727 6.75391C154.146 6.94076 154.501 7.20508 154.793 7.54688C155.089 7.88411 155.315 8.28288 155.47 8.74316C155.625 9.19889 155.702 9.69336 155.702 10.2266V10.3838C155.702 10.917 155.625 11.4115 155.47 11.8672C155.315 12.3229 155.089 12.7217 154.793 13.0635C154.501 13.4007 154.148 13.665 153.733 13.8564C153.323 14.0433 152.858 14.1367 152.339 14.1367C151.819 14.1367 151.352 14.0433 150.938 13.8564C150.523 13.665 150.167 13.4007 149.871 13.0635C149.579 12.7217 149.356 12.3229 149.201 11.8672C149.046 11.4115 148.969 10.917 148.969 10.3838ZM150.233 10.2266V10.3838C150.233 10.7529 150.277 11.1016 150.363 11.4297C150.45 11.7533 150.58 12.0404 150.753 12.291C150.931 12.5417 151.152 12.7399 151.416 12.8857C151.68 13.027 151.988 13.0977 152.339 13.0977C152.685 13.0977 152.988 13.027 153.248 12.8857C153.512 12.7399 153.731 12.5417 153.904 12.291C154.077 12.0404 154.207 11.7533 154.294 11.4297C154.385 11.1016 154.431 10.7529 154.431 10.3838V10.2266C154.431 9.86198 154.385 9.5179 154.294 9.19434C154.207 8.86621 154.075 8.57682 153.897 8.32617C153.724 8.07096 153.506 7.87044 153.241 7.72461C152.981 7.57878 152.676 7.50586 152.325 7.50586C151.979 7.50586 151.674 7.57878 151.409 7.72461C151.149 7.87044 150.931 8.07096 150.753 8.32617C150.58 8.57682 150.45 8.86621 150.363 9.19434C150.277 9.5179 150.233 9.86198 150.233 10.2266ZM162.306 9.80957V10.835H158.396V9.80957H162.306ZM158.662 6.60352V14H157.397V6.60352H158.662ZM163.331 6.60352V14H162.06V6.60352H163.331ZM168.383 6.60352V14H167.111V6.60352H168.383ZM170.864 6.60352V7.62891H164.678V6.60352H170.864ZM176.36 12.7354V8.92773C176.36 8.63607 176.301 8.38314 176.183 8.16895C176.069 7.9502 175.896 7.78158 175.663 7.66309C175.431 7.5446 175.144 7.48535 174.802 7.48535C174.483 7.48535 174.202 7.54004 173.961 7.64941C173.724 7.75879 173.537 7.90234 173.4 8.08008C173.268 8.25781 173.202 8.44922 173.202 8.6543H171.938C171.938 8.38997 172.006 8.12793 172.143 7.86816C172.279 7.6084 172.475 7.3737 172.73 7.16406C172.99 6.94987 173.3 6.78125 173.66 6.6582C174.025 6.5306 174.43 6.4668 174.877 6.4668C175.415 6.4668 175.889 6.55794 176.299 6.74023C176.714 6.92253 177.037 7.19824 177.27 7.56738C177.507 7.93197 177.625 8.38997 177.625 8.94141V12.3867C177.625 12.6328 177.646 12.8949 177.687 13.1729C177.732 13.4508 177.798 13.6901 177.885 13.8906V14H176.565C176.502 13.8542 176.451 13.6605 176.415 13.4189C176.379 13.1729 176.36 12.945 176.36 12.7354ZM176.579 9.51562L176.593 10.4043H175.314C174.954 10.4043 174.633 10.4339 174.351 10.4932C174.068 10.5479 173.831 10.6322 173.64 10.7461C173.448 10.86 173.302 11.0036 173.202 11.1768C173.102 11.3454 173.052 11.5436 173.052 11.7715C173.052 12.0039 173.104 12.2158 173.209 12.4072C173.314 12.5986 173.471 12.7513 173.681 12.8652C173.895 12.9746 174.157 13.0293 174.467 13.0293C174.854 13.0293 175.196 12.9473 175.492 12.7832C175.788 12.6191 176.023 12.4186 176.196 12.1816C176.374 11.9447 176.47 11.7145 176.483 11.4912L177.023 12.0996C176.992 12.291 176.905 12.5029 176.764 12.7354C176.622 12.9678 176.433 13.1911 176.196 13.4053C175.964 13.6149 175.686 13.7904 175.362 13.9316C175.043 14.0684 174.683 14.1367 174.282 14.1367C173.781 14.1367 173.341 14.0387 172.963 13.8428C172.589 13.6468 172.298 13.3848 172.088 13.0566C171.883 12.724 171.78 12.3525 171.78 11.9424C171.78 11.5459 171.858 11.1973 172.013 10.8965C172.168 10.5911 172.391 10.3382 172.683 10.1377C172.974 9.93262 173.325 9.77767 173.735 9.67285C174.146 9.56803 174.604 9.51562 175.109 9.51562H176.579ZM181.856 10.7803L179.054 6.60352H180.578L182.492 9.66602H183.969L183.784 10.7803H181.856ZM182.547 10.6504L180.4 14H178.801L181.747 9.73438L182.547 10.6504ZM184.618 6.60352V14H183.354V6.60352H184.618ZM188.932 6.60352L186.129 10.7803H184.201L184.003 9.66602H185.486L187.4 6.60352H188.932ZM187.578 14L185.425 10.6504L186.238 9.73438L189.178 14H187.578ZM200.211 8.66113V9.85059H193.389V8.66113H200.211ZM197.436 5.75586V13.002H196.171V5.75586H197.436ZM2.29688 24.6035H3.56152L3.45215 27.3721C3.4248 28.0739 3.34505 28.68 3.21289 29.1904C3.08073 29.7008 2.91211 30.1361 2.70703 30.4961C2.50195 30.8516 2.27181 31.1501 2.0166 31.3916C1.76595 31.6331 1.50618 31.8359 1.2373 32H0.608398L0.642578 30.9678L0.902344 30.9609C1.05273 30.7832 1.19857 30.6009 1.33984 30.4141C1.48112 30.2227 1.611 29.9971 1.72949 29.7373C1.84798 29.473 1.94596 29.1517 2.02344 28.7734C2.10547 28.3906 2.15788 27.9235 2.18066 27.3721L2.29688 24.6035ZM2.61133 24.6035H7.06152V32H5.79688V25.7725H2.61133V24.6035ZM0.321289 30.9609H8.01172V34.1807H6.74707V32H1.58594V34.1807H0.314453L0.321289 30.9609ZM12.4824 32.1367C11.9674 32.1367 11.5003 32.0501 11.0811 31.877C10.6663 31.6992 10.3086 31.4508 10.0078 31.1318C9.71159 30.8128 9.48372 30.4346 9.32422 29.9971C9.16471 29.5596 9.08496 29.0811 9.08496 28.5615V28.2744C9.08496 27.6729 9.17383 27.1374 9.35156 26.668C9.5293 26.194 9.77083 25.793 10.0762 25.4648C10.3815 25.1367 10.7279 24.8883 11.1152 24.7197C11.5026 24.5511 11.9036 24.4668 12.3184 24.4668C12.847 24.4668 13.3027 24.5579 13.6855 24.7402C14.0729 24.9225 14.3896 25.1777 14.6357 25.5059C14.8818 25.8294 15.0641 26.2122 15.1826 26.6543C15.3011 27.0918 15.3604 27.5703 15.3604 28.0898V28.6572H9.83691V27.625H14.0957V27.5293C14.0775 27.2012 14.0091 26.8822 13.8906 26.5723C13.7767 26.2624 13.5944 26.0072 13.3438 25.8066C13.0931 25.6061 12.7513 25.5059 12.3184 25.5059C12.0312 25.5059 11.7669 25.5674 11.5254 25.6904C11.2839 25.8089 11.0765 25.9867 10.9033 26.2236C10.7301 26.4606 10.5957 26.75 10.5 27.0918C10.4043 27.4336 10.3564 27.8278 10.3564 28.2744V28.5615C10.3564 28.9124 10.4043 29.2428 10.5 29.5527C10.6003 29.8581 10.7438 30.127 10.9307 30.3594C11.1221 30.5918 11.3522 30.7741 11.6211 30.9062C11.8945 31.0384 12.2044 31.1045 12.5508 31.1045C12.9974 31.1045 13.3757 31.0133 13.6855 30.8311C13.9954 30.6488 14.2666 30.4049 14.499 30.0996L15.2646 30.708C15.1051 30.9495 14.9023 31.1797 14.6562 31.3984C14.4102 31.6172 14.1071 31.7949 13.7471 31.9316C13.3916 32.0684 12.9701 32.1367 12.4824 32.1367ZM21.0889 30.3184L23.6045 24.6035H24.8213L21.5264 32H20.6514L17.3701 24.6035H18.5869L21.0889 30.3184ZM18.2178 24.6035V32H16.9531V24.6035H18.2178ZM23.9189 32V24.6035H25.1904V32H23.9189ZM26.8926 28.3838V28.2266C26.8926 27.6934 26.9701 27.1989 27.125 26.7432C27.2799 26.2829 27.5033 25.8841 27.7949 25.5469C28.0866 25.2051 28.4398 24.9408 28.8545 24.7539C29.2692 24.5625 29.734 24.4668 30.249 24.4668C30.7686 24.4668 31.2357 24.5625 31.6504 24.7539C32.0697 24.9408 32.4251 25.2051 32.7168 25.5469C33.013 25.8841 33.2386 26.2829 33.3936 26.7432C33.5485 27.1989 33.626 27.6934 33.626 28.2266V28.3838C33.626 28.917 33.5485 29.4115 33.3936 29.8672C33.2386 30.3229 33.013 30.7217 32.7168 31.0635C32.4251 31.4007 32.0719 31.665 31.6572 31.8564C31.2471 32.0433 30.7822 32.1367 30.2627 32.1367C29.7432 32.1367 29.276 32.0433 28.8613 31.8564C28.4466 31.665 28.0911 31.4007 27.7949 31.0635C27.5033 30.7217 27.2799 30.3229 27.125 29.8672C26.9701 29.4115 26.8926 28.917 26.8926 28.3838ZM28.1572 28.2266V28.3838C28.1572 28.7529 28.2005 29.1016 28.2871 29.4297C28.3737 29.7533 28.5036 30.0404 28.6768 30.291C28.8545 30.5417 29.0755 30.7399 29.3398 30.8857C29.6042 31.027 29.9118 31.0977 30.2627 31.0977C30.609 31.0977 30.9121 31.027 31.1719 30.8857C31.4362 30.7399 31.6549 30.5417 31.8281 30.291C32.0013 30.0404 32.1312 29.7533 32.2178 29.4297C32.3089 29.1016 32.3545 28.7529 32.3545 28.3838V28.2266C32.3545 27.862 32.3089 27.5179 32.2178 27.1943C32.1312 26.8662 31.999 26.5768 31.8213 26.3262C31.6481 26.071 31.4294 25.8704 31.165 25.7246C30.9053 25.5788 30.5999 25.5059 30.249 25.5059C29.9027 25.5059 29.5973 25.5788 29.333 25.7246C29.0732 25.8704 28.8545 26.071 28.6768 26.3262C28.5036 26.5768 28.3737 26.8662 28.2871 27.1943C28.2005 27.5179 28.1572 27.862 28.1572 28.2266ZM40.2295 27.8096V28.835H36.3193V27.8096H40.2295ZM36.5859 24.6035V32H35.3213V24.6035H36.5859ZM41.2549 24.6035V32H39.9834V24.6035H41.2549ZM46.3066 24.6035V32H45.0352V24.6035H46.3066ZM48.7881 24.6035V25.6289H42.6016V24.6035H48.7881ZM54.2842 30.7354V26.9277C54.2842 26.6361 54.2249 26.3831 54.1064 26.1689C53.9925 25.9502 53.8193 25.7816 53.5869 25.6631C53.3545 25.5446 53.0674 25.4854 52.7256 25.4854C52.4066 25.4854 52.1263 25.54 51.8848 25.6494C51.6478 25.7588 51.4609 25.9023 51.3242 26.0801C51.1921 26.2578 51.126 26.4492 51.126 26.6543H49.8613C49.8613 26.39 49.9297 26.1279 50.0664 25.8682C50.2031 25.6084 50.3991 25.3737 50.6543 25.1641C50.9141 24.9499 51.224 24.7812 51.584 24.6582C51.9486 24.5306 52.3542 24.4668 52.8008 24.4668C53.3385 24.4668 53.8125 24.5579 54.2227 24.7402C54.6374 24.9225 54.9609 25.1982 55.1934 25.5674C55.4303 25.932 55.5488 26.39 55.5488 26.9414V30.3867C55.5488 30.6328 55.5693 30.8949 55.6104 31.1729C55.6559 31.4508 55.722 31.6901 55.8086 31.8906V32H54.4893C54.4255 31.8542 54.3753 31.6605 54.3389 31.4189C54.3024 31.1729 54.2842 30.945 54.2842 30.7354ZM54.5029 27.5156L54.5166 28.4043H53.2383C52.8783 28.4043 52.557 28.4339 52.2744 28.4932C51.9919 28.5479 51.7549 28.6322 51.5635 28.7461C51.3721 28.86 51.2262 29.0036 51.126 29.1768C51.0257 29.3454 50.9756 29.5436 50.9756 29.7715C50.9756 30.0039 51.028 30.2158 51.1328 30.4072C51.2376 30.5986 51.3949 30.7513 51.6045 30.8652C51.8187 30.9746 52.0807 31.0293 52.3906 31.0293C52.778 31.0293 53.1198 30.9473 53.416 30.7832C53.7122 30.6191 53.9469 30.4186 54.1201 30.1816C54.2979 29.9447 54.3936 29.7145 54.4072 29.4912L54.9473 30.0996C54.9154 30.291 54.8288 30.5029 54.6875 30.7354C54.5462 30.9678 54.3571 31.1911 54.1201 31.4053C53.8877 31.6149 53.6097 31.7904 53.2861 31.9316C52.9671 32.0684 52.6071 32.1367 52.2061 32.1367C51.7048 32.1367 51.265 32.0387 50.8867 31.8428C50.513 31.6468 50.2214 31.3848 50.0117 31.0566C49.8066 30.724 49.7041 30.3525 49.7041 29.9424C49.7041 29.5459 49.7816 29.1973 49.9365 28.8965C50.0915 28.5911 50.3148 28.3382 50.6064 28.1377C50.8981 27.9326 51.249 27.7777 51.6592 27.6729C52.0693 27.568 52.5273 27.5156 53.0332 27.5156H54.5029ZM59.7803 28.7803L56.9775 24.6035H58.502L60.416 27.666H61.8926L61.708 28.7803H59.7803ZM60.4707 28.6504L58.3242 32H56.7246L59.6709 27.7344L60.4707 28.6504ZM62.542 24.6035V32H61.2773V24.6035H62.542ZM66.8555 24.6035L64.0527 28.7803H62.125L61.9268 27.666H63.4102L65.3242 24.6035H66.8555ZM65.502 32L63.3486 28.6504L64.1621 27.7344L67.1016 32H65.502ZM71.1826 27.9531V28.0215C71.1826 29.0195 71.071 29.9219 70.8477 30.7285C70.6243 31.5352 70.3395 32.2393 69.9932 32.8408C69.6468 33.4469 69.2822 33.9482 68.8994 34.3447C68.5166 34.7458 68.1634 35.0352 67.8398 35.2129L67.5732 34.4473C67.8421 34.2422 68.1133 33.9551 68.3867 33.5859C68.6602 33.2214 68.9131 32.7702 69.1455 32.2324C69.3779 31.6992 69.5648 31.084 69.7061 30.3867C69.8473 29.6849 69.918 28.901 69.918 28.0352V27.9395C69.918 27.0736 69.8428 26.292 69.6924 25.5947C69.542 24.8929 69.346 24.2754 69.1045 23.7422C68.8675 23.209 68.6123 22.7601 68.3389 22.3955C68.07 22.0264 67.8148 21.7415 67.5732 21.541L67.8398 20.7686C68.1634 20.9463 68.5166 21.2357 68.8994 21.6367C69.2822 22.0332 69.6468 22.5345 69.9932 23.1406C70.3395 23.7467 70.6243 24.4531 70.8477 25.2598C71.071 26.0618 71.1826 26.9596 71.1826 27.9531ZM72.9395 25.2939C72.9395 25.0798 73.0055 24.8997 73.1377 24.7539C73.2744 24.6035 73.4704 24.5283 73.7256 24.5283C73.9808 24.5283 74.1745 24.6035 74.3066 24.7539C74.4434 24.8997 74.5117 25.0798 74.5117 25.2939C74.5117 25.5036 74.4434 25.6813 74.3066 25.8271C74.1745 25.973 73.9808 26.0459 73.7256 26.0459C73.4704 26.0459 73.2744 25.973 73.1377 25.8271C73.0055 25.6813 72.9395 25.5036 72.9395 25.2939ZM74.3818 30.4961V31.5146C74.3818 31.9294 74.277 32.3669 74.0674 32.8271C73.8577 33.292 73.5638 33.6794 73.1855 33.9893L72.4678 33.4902C72.6136 33.2897 72.7367 33.0846 72.8369 32.875C72.9372 32.6699 73.0124 32.4557 73.0625 32.2324C73.1172 32.0137 73.1445 31.7812 73.1445 31.5352V30.4961H74.3818Z" fill="#303030" fill-opacity="0.9"/>
</svg>
