<svg width="279" height="16" viewBox="0 0 279 16" fill="none" xmlns="http://www.w3.org/2000/svg">
<path d="M3.92383 11.0977C4.22461 11.0977 4.5026 11.0361 4.75781 10.9131C5.01302 10.79 5.22266 10.6214 5.38672 10.4072C5.55078 10.1885 5.64421 9.9401 5.66699 9.66211H6.87012C6.84733 10.0996 6.69922 10.5075 6.42578 10.8857C6.1569 11.2594 5.80371 11.5625 5.36621 11.7949C4.92871 12.0228 4.44792 12.1367 3.92383 12.1367C3.36784 12.1367 2.88249 12.0387 2.46777 11.8428C2.05762 11.6468 1.71582 11.3779 1.44238 11.0361C1.1735 10.6943 0.970703 10.3024 0.833984 9.86035C0.701823 9.41374 0.635742 8.94206 0.635742 8.44531V8.1582C0.635742 7.66146 0.701823 7.19206 0.833984 6.75C0.970703 6.30339 1.1735 5.90918 1.44238 5.56738C1.71582 5.22559 2.05762 4.95671 2.46777 4.76074C2.88249 4.56478 3.36784 4.4668 3.92383 4.4668C4.5026 4.4668 5.00846 4.58529 5.44141 4.82227C5.87435 5.05469 6.21387 5.3737 6.45996 5.7793C6.71061 6.18034 6.84733 6.63607 6.87012 7.14648H5.66699C5.64421 6.84115 5.55762 6.56543 5.40723 6.31934C5.26139 6.07324 5.06087 5.87728 4.80566 5.73145C4.55501 5.58105 4.26107 5.50586 3.92383 5.50586C3.53646 5.50586 3.21061 5.58333 2.94629 5.73828C2.68652 5.88867 2.47917 6.09375 2.32422 6.35352C2.17383 6.60872 2.06445 6.89355 1.99609 7.20801C1.93229 7.5179 1.90039 7.83464 1.90039 8.1582V8.44531C1.90039 8.76888 1.93229 9.08789 1.99609 9.40234C2.0599 9.7168 2.16699 10.0016 2.31738 10.2568C2.47233 10.512 2.67969 10.7171 2.93945 10.8721C3.20378 11.0225 3.5319 11.0977 3.92383 11.0977ZM11.3066 4.60352V12H10.0352V4.60352H11.3066ZM13.7881 4.60352V5.62891H7.60156V4.60352H13.7881ZM16.2969 6.02539V14.8438H15.0254V4.60352H16.1875L16.2969 6.02539ZM21.2803 8.24023V8.38379C21.2803 8.92155 21.2165 9.42057 21.0889 9.88086C20.9613 10.3366 20.7744 10.7331 20.5283 11.0703C20.2868 11.4076 19.9883 11.6696 19.6328 11.8564C19.2773 12.0433 18.8695 12.1367 18.4092 12.1367C17.9398 12.1367 17.5251 12.0592 17.165 11.9043C16.805 11.7493 16.4997 11.5238 16.249 11.2275C15.9984 10.9313 15.7979 10.5758 15.6475 10.1611C15.5016 9.74642 15.4014 9.2793 15.3467 8.75977V7.99414C15.4014 7.44727 15.5039 6.95736 15.6543 6.52441C15.8047 6.09147 16.0029 5.72233 16.249 5.41699C16.4997 5.1071 16.8027 4.8724 17.1582 4.71289C17.5137 4.54883 17.9238 4.4668 18.3887 4.4668C18.8535 4.4668 19.266 4.55794 19.626 4.74023C19.986 4.91797 20.2891 5.17318 20.5352 5.50586C20.7812 5.83854 20.9658 6.2373 21.0889 6.70215C21.2165 7.16243 21.2803 7.67513 21.2803 8.24023ZM20.0088 8.38379V8.24023C20.0088 7.87109 19.9701 7.52474 19.8926 7.20117C19.8151 6.87305 19.6943 6.58594 19.5303 6.33984C19.3708 6.08919 19.1657 5.89323 18.915 5.75195C18.6644 5.60612 18.3659 5.5332 18.0195 5.5332C17.7005 5.5332 17.4225 5.58789 17.1855 5.69727C16.9531 5.80664 16.7549 5.95475 16.5908 6.1416C16.4268 6.32389 16.2923 6.53353 16.1875 6.77051C16.0872 7.00293 16.012 7.24447 15.9619 7.49512V9.26562C16.0531 9.58464 16.1807 9.88542 16.3447 10.168C16.5088 10.446 16.7275 10.6715 17.001 10.8447C17.2744 11.0133 17.6185 11.0977 18.0332 11.0977C18.375 11.0977 18.6689 11.027 18.915 10.8857C19.1657 10.7399 19.3708 10.5417 19.5303 10.291C19.6943 10.0404 19.8151 9.75326 19.8926 9.42969C19.9701 9.10156 20.0088 8.75293 20.0088 8.38379ZM22.5586 8.38379V8.22656C22.5586 7.69336 22.6361 7.19889 22.791 6.74316C22.946 6.28288 23.1693 5.88411 23.4609 5.54688C23.7526 5.20508 24.1058 4.94076 24.5205 4.75391C24.9352 4.5625 25.4001 4.4668 25.915 4.4668C26.4346 4.4668 26.9017 4.5625 27.3164 4.75391C27.7357 4.94076 28.0911 5.20508 28.3828 5.54688C28.679 5.88411 28.9046 6.28288 29.0596 6.74316C29.2145 7.19889 29.292 7.69336 29.292 8.22656V8.38379C29.292 8.91699 29.2145 9.41146 29.0596 9.86719C28.9046 10.3229 28.679 10.7217 28.3828 11.0635C28.0911 11.4007 27.738 11.665 27.3232 11.8564C26.9131 12.0433 26.4482 12.1367 25.9287 12.1367C25.4092 12.1367 24.9421 12.0433 24.5273 11.8564C24.1126 11.665 23.7572 11.4007 23.4609 11.0635C23.1693 10.7217 22.946 10.3229 22.791 9.86719C22.6361 9.41146 22.5586 8.91699 22.5586 8.38379ZM23.8232 8.22656V8.38379C23.8232 8.75293 23.8665 9.10156 23.9531 9.42969C24.0397 9.75326 24.1696 10.0404 24.3428 10.291C24.5205 10.5417 24.7415 10.7399 25.0059 10.8857C25.2702 11.027 25.5778 11.0977 25.9287 11.0977C26.2751 11.0977 26.5781 11.027 26.8379 10.8857C27.1022 10.7399 27.321 10.5417 27.4941 10.291C27.6673 10.0404 27.7972 9.75326 27.8838 9.42969C27.9749 9.10156 28.0205 8.75293 28.0205 8.38379V8.22656C28.0205 7.86198 27.9749 7.5179 27.8838 7.19434C27.7972 6.86621 27.665 6.57682 27.4873 6.32617C27.3141 6.07096 27.0954 5.87044 26.8311 5.72461C26.5713 5.57878 26.266 5.50586 25.915 5.50586C25.5687 5.50586 25.2633 5.57878 24.999 5.72461C24.7393 5.87044 24.5205 6.07096 24.3428 6.32617C24.1696 6.57682 24.0397 6.86621 23.9531 7.19434C23.8665 7.5179 23.8232 7.86198 23.8232 8.22656ZM32.2451 9.99707L35.6562 4.60352H36.9277V12H35.6562V6.60645L32.2451 12H30.9873V4.60352H32.2451V9.99707ZM41.9727 4.60352V12H40.7012V4.60352H41.9727ZM44.4541 4.60352V5.62891H38.2676V4.60352H44.4541ZM48.2207 12.1367C47.7057 12.1367 47.2386 12.0501 46.8193 11.877C46.4046 11.6992 46.0469 11.4508 45.7461 11.1318C45.4499 10.8128 45.222 10.4346 45.0625 9.99707C44.903 9.55957 44.8232 9.08105 44.8232 8.56152V8.27441C44.8232 7.67285 44.9121 7.13737 45.0898 6.66797C45.2676 6.19401 45.5091 5.79297 45.8145 5.46484C46.1198 5.13672 46.4661 4.88835 46.8535 4.71973C47.2409 4.55111 47.6419 4.4668 48.0566 4.4668C48.5853 4.4668 49.041 4.55794 49.4238 4.74023C49.8112 4.92253 50.1279 5.17773 50.374 5.50586C50.6201 5.82943 50.8024 6.21224 50.9209 6.6543C51.0394 7.0918 51.0986 7.57031 51.0986 8.08984V8.65723H45.5752V7.625H49.834V7.5293C49.8158 7.20117 49.7474 6.88216 49.6289 6.57227C49.515 6.26237 49.3327 6.00716 49.082 5.80664C48.8314 5.60612 48.4896 5.50586 48.0566 5.50586C47.7695 5.50586 47.5052 5.56738 47.2637 5.69043C47.0221 5.80892 46.8148 5.98665 46.6416 6.22363C46.4684 6.46061 46.334 6.75 46.2383 7.0918C46.1426 7.43359 46.0947 7.8278 46.0947 8.27441V8.56152C46.0947 8.91243 46.1426 9.24284 46.2383 9.55273C46.3385 9.85807 46.4821 10.127 46.6689 10.3594C46.8604 10.5918 47.0905 10.7741 47.3594 10.9062C47.6328 11.0384 47.9427 11.1045 48.2891 11.1045C48.7357 11.1045 49.1139 11.0133 49.4238 10.8311C49.7337 10.6488 50.0049 10.4049 50.2373 10.0996L51.0029 10.708C50.8434 10.9495 50.6406 11.1797 50.3945 11.3984C50.1484 11.6172 49.8454 11.7949 49.4854 11.9316C49.1299 12.0684 48.7083 12.1367 48.2207 12.1367ZM57.5176 4.60352V5.64941H53.9424V4.60352H57.5176ZM58.6318 4.60352V12H57.3672V4.60352H58.6318ZM53.6348 4.60352H54.9062L54.7148 8.17188C54.6829 8.72331 54.6305 9.21094 54.5576 9.63477C54.4893 10.054 54.3936 10.4141 54.2705 10.7148C54.152 11.0156 54.0016 11.2617 53.8193 11.4531C53.6416 11.64 53.4274 11.779 53.1768 11.8701C52.9261 11.9567 52.6367 12 52.3086 12H51.9121V10.8857L52.1855 10.8652C52.3815 10.8516 52.5479 10.806 52.6846 10.7285C52.8258 10.651 52.9443 10.5371 53.04 10.3867C53.1357 10.2318 53.2132 10.0335 53.2725 9.79199C53.3363 9.55046 53.3841 9.26335 53.416 8.93066C53.4525 8.59798 53.4798 8.21061 53.498 7.76855L53.6348 4.60352ZM61.708 7.14648H63.9297C64.5267 7.14648 65.0303 7.2513 65.4404 7.46094C65.8506 7.66602 66.1605 7.95085 66.3701 8.31543C66.5843 8.67546 66.6914 9.08561 66.6914 9.5459C66.6914 9.8877 66.6322 10.209 66.5137 10.5098C66.3952 10.806 66.2174 11.0658 65.9805 11.2891C65.748 11.5124 65.4587 11.6878 65.1123 11.8154C64.7705 11.9385 64.3763 12 63.9297 12H60.7852V4.60352H62.0498V10.9609H63.9297C64.2943 10.9609 64.5859 10.8949 64.8047 10.7627C65.0234 10.6305 65.1807 10.4596 65.2764 10.25C65.3721 10.0404 65.4199 9.82161 65.4199 9.59375C65.4199 9.37044 65.3721 9.15169 65.2764 8.9375C65.1807 8.72331 65.0234 8.54557 64.8047 8.4043C64.5859 8.25846 64.2943 8.18555 63.9297 8.18555H61.708V7.14648ZM73.2881 7.80957V8.83496H69.3779V7.80957H73.2881ZM69.6445 4.60352V12H68.3799V4.60352H69.6445ZM74.3135 4.60352V12H73.042V4.60352H74.3135ZM77.3896 7.14648H79.6113C80.2083 7.14648 80.7119 7.2513 81.1221 7.46094C81.5322 7.66602 81.8421 7.95085 82.0518 8.31543C82.266 8.67546 82.373 9.08561 82.373 9.5459C82.373 9.8877 82.3138 10.209 82.1953 10.5098C82.0768 10.806 81.8991 11.0658 81.6621 11.2891C81.4297 11.5124 81.1403 11.6878 80.7939 11.8154C80.4521 11.9385 80.0579 12 79.6113 12H76.4668V4.60352H77.7314V10.9609H79.6113C79.9759 10.9609 80.2676 10.8949 80.4863 10.7627C80.7051 10.6305 80.8623 10.4596 80.958 10.25C81.0537 10.0404 81.1016 9.82161 81.1016 9.59375C81.1016 9.37044 81.0537 9.15169 80.958 8.9375C80.8623 8.72331 80.7051 8.54557 80.4863 8.4043C80.2676 8.25846 79.9759 8.18555 79.6113 8.18555H77.3896V7.14648ZM85.0049 4.60352V12H83.7402V4.60352H85.0049ZM88.5869 9.99707L91.998 4.60352H93.2695V12H91.998V6.60645L88.5869 12H87.3291V4.60352H88.5869V9.99707ZM91.3076 1.92383H92.333C92.333 2.2793 92.251 2.59603 92.0869 2.87402C91.9229 3.14746 91.6882 3.36165 91.3828 3.5166C91.0775 3.67155 90.7152 3.74902 90.2959 3.74902C89.6624 3.74902 89.1611 3.5804 88.792 3.24316C88.4274 2.90137 88.2451 2.46159 88.2451 1.92383H89.2705C89.2705 2.19271 89.348 2.42969 89.5029 2.63477C89.6579 2.83984 89.9222 2.94238 90.2959 2.94238C90.6605 2.94238 90.9202 2.83984 91.0752 2.63477C91.2301 2.42969 91.3076 2.19271 91.3076 1.92383ZM103.701 4.60352V5.64941H99.9619V4.60352H103.701ZM100.146 4.60352V12H98.8818V4.60352H100.146ZM104.822 4.60352V12H103.551V4.60352H104.822ZM111.795 4.60352V5.64941H108.22V4.60352H111.795ZM112.909 4.60352V12H111.645V4.60352H112.909ZM107.912 4.60352H109.184L108.992 8.17188C108.96 8.72331 108.908 9.21094 108.835 9.63477C108.767 10.054 108.671 10.4141 108.548 10.7148C108.429 11.0156 108.279 11.2617 108.097 11.4531C107.919 11.64 107.705 11.779 107.454 11.8701C107.203 11.9567 106.914 12 106.586 12H106.189V10.8857L106.463 10.8652C106.659 10.8516 106.825 10.806 106.962 10.7285C107.103 10.651 107.222 10.5371 107.317 10.3867C107.413 10.2318 107.491 10.0335 107.55 9.79199C107.614 9.55046 107.661 9.26335 107.693 8.93066C107.73 8.59798 107.757 8.21061 107.775 7.76855L107.912 4.60352ZM119.308 10.7354V6.92773C119.308 6.63607 119.248 6.38314 119.13 6.16895C119.016 5.9502 118.843 5.78158 118.61 5.66309C118.378 5.5446 118.091 5.48535 117.749 5.48535C117.43 5.48535 117.15 5.54004 116.908 5.64941C116.671 5.75879 116.484 5.90234 116.348 6.08008C116.215 6.25781 116.149 6.44922 116.149 6.6543H114.885C114.885 6.38997 114.953 6.12793 115.09 5.86816C115.227 5.6084 115.423 5.3737 115.678 5.16406C115.938 4.94987 116.247 4.78125 116.607 4.6582C116.972 4.5306 117.378 4.4668 117.824 4.4668C118.362 4.4668 118.836 4.55794 119.246 4.74023C119.661 4.92253 119.984 5.19824 120.217 5.56738C120.454 5.93197 120.572 6.38997 120.572 6.94141V10.3867C120.572 10.6328 120.593 10.8949 120.634 11.1729C120.679 11.4508 120.745 11.6901 120.832 11.8906V12H119.513C119.449 11.8542 119.399 11.6605 119.362 11.4189C119.326 11.1729 119.308 10.945 119.308 10.7354ZM119.526 7.51562L119.54 8.4043H118.262C117.902 8.4043 117.58 8.43392 117.298 8.49316C117.015 8.54785 116.778 8.63216 116.587 8.74609C116.396 8.86003 116.25 9.00358 116.149 9.17676C116.049 9.34538 115.999 9.54362 115.999 9.77148C115.999 10.0039 116.051 10.2158 116.156 10.4072C116.261 10.5986 116.418 10.7513 116.628 10.8652C116.842 10.9746 117.104 11.0293 117.414 11.0293C117.801 11.0293 118.143 10.9473 118.439 10.7832C118.736 10.6191 118.97 10.4186 119.144 10.1816C119.321 9.94466 119.417 9.71452 119.431 9.49121L119.971 10.0996C119.939 10.291 119.852 10.5029 119.711 10.7354C119.57 10.9678 119.381 11.1911 119.144 11.4053C118.911 11.6149 118.633 11.7904 118.31 11.9316C117.991 12.0684 117.631 12.1367 117.229 12.1367C116.728 12.1367 116.288 12.0387 115.91 11.8428C115.536 11.6468 115.245 11.3848 115.035 11.0566C114.83 10.724 114.728 10.3525 114.728 9.94238C114.728 9.5459 114.805 9.19727 114.96 8.89648C115.115 8.59115 115.338 8.33822 115.63 8.1377C115.922 7.93262 116.272 7.77767 116.683 7.67285C117.093 7.56803 117.551 7.51562 118.057 7.51562H119.526ZM127.579 7.80957V8.83496H123.669V7.80957H127.579ZM123.936 4.60352V12H122.671V4.60352H123.936ZM128.604 4.60352V12H127.333V4.60352H128.604ZM134.066 8.02148V7.95312C134.066 6.95964 134.178 6.06185 134.401 5.25977C134.625 4.45312 134.91 3.74674 135.256 3.14062C135.602 2.53451 135.967 2.0332 136.35 1.63672C136.732 1.23568 137.086 0.946289 137.409 0.768555L137.676 1.60254C137.407 1.80762 137.133 2.09017 136.855 2.4502C136.582 2.81022 136.329 3.25228 136.097 3.77637C135.869 4.30046 135.684 4.90885 135.543 5.60156C135.402 6.29427 135.331 7.07357 135.331 7.93945V8.03516C135.331 8.90104 135.402 9.68262 135.543 10.3799C135.684 11.0726 135.869 11.6833 136.097 12.2119C136.329 12.7406 136.582 13.1895 136.855 13.5586C137.133 13.9323 137.407 14.2285 137.676 14.4473L137.409 15.2129C137.086 15.0352 136.732 14.7458 136.35 14.3447C135.967 13.9482 135.602 13.4469 135.256 12.8408C134.91 12.2393 134.625 11.5352 134.401 10.7285C134.178 9.92188 134.066 9.01953 134.066 8.02148ZM143.165 10.3184L145.681 4.60352H146.897L143.603 12H142.728L139.446 4.60352H140.663L143.165 10.3184ZM140.294 4.60352V12H139.029V4.60352H140.294ZM145.995 12V4.60352H147.267V12H145.995ZM148.969 8.38379V8.22656C148.969 7.69336 149.046 7.19889 149.201 6.74316C149.356 6.28288 149.579 5.88411 149.871 5.54688C150.163 5.20508 150.516 4.94076 150.931 4.75391C151.345 4.5625 151.81 4.4668 152.325 4.4668C152.845 4.4668 153.312 4.5625 153.727 4.75391C154.146 4.94076 154.501 5.20508 154.793 5.54688C155.089 5.88411 155.315 6.28288 155.47 6.74316C155.625 7.19889 155.702 7.69336 155.702 8.22656V8.38379C155.702 8.91699 155.625 9.41146 155.47 9.86719C155.315 10.3229 155.089 10.7217 154.793 11.0635C154.501 11.4007 154.148 11.665 153.733 11.8564C153.323 12.0433 152.858 12.1367 152.339 12.1367C151.819 12.1367 151.352 12.0433 150.938 11.8564C150.523 11.665 150.167 11.4007 149.871 11.0635C149.579 10.7217 149.356 10.3229 149.201 9.86719C149.046 9.41146 148.969 8.91699 148.969 8.38379ZM150.233 8.22656V8.38379C150.233 8.75293 150.277 9.10156 150.363 9.42969C150.45 9.75326 150.58 10.0404 150.753 10.291C150.931 10.5417 151.152 10.7399 151.416 10.8857C151.68 11.027 151.988 11.0977 152.339 11.0977C152.685 11.0977 152.988 11.027 153.248 10.8857C153.512 10.7399 153.731 10.5417 153.904 10.291C154.077 10.0404 154.207 9.75326 154.294 9.42969C154.385 9.10156 154.431 8.75293 154.431 8.38379V8.22656C154.431 7.86198 154.385 7.5179 154.294 7.19434C154.207 6.86621 154.075 6.57682 153.897 6.32617C153.724 6.07096 153.506 5.87044 153.241 5.72461C152.981 5.57878 152.676 5.50586 152.325 5.50586C151.979 5.50586 151.674 5.57878 151.409 5.72461C151.149 5.87044 150.931 6.07096 150.753 6.32617C150.58 6.57682 150.45 6.86621 150.363 7.19434C150.277 7.5179 150.233 7.86198 150.233 8.22656ZM162.306 7.80957V8.83496H158.396V7.80957H162.306ZM158.662 4.60352V12H157.397V4.60352H158.662ZM163.331 4.60352V12H162.06V4.60352H163.331ZM168.383 4.60352V12H167.111V4.60352H168.383ZM170.864 4.60352V5.62891H164.678V4.60352H170.864ZM176.36 10.7354V6.92773C176.36 6.63607 176.301 6.38314 176.183 6.16895C176.069 5.9502 175.896 5.78158 175.663 5.66309C175.431 5.5446 175.144 5.48535 174.802 5.48535C174.483 5.48535 174.202 5.54004 173.961 5.64941C173.724 5.75879 173.537 5.90234 173.4 6.08008C173.268 6.25781 173.202 6.44922 173.202 6.6543H171.938C171.938 6.38997 172.006 6.12793 172.143 5.86816C172.279 5.6084 172.475 5.3737 172.73 5.16406C172.99 4.94987 173.3 4.78125 173.66 4.6582C174.025 4.5306 174.43 4.4668 174.877 4.4668C175.415 4.4668 175.889 4.55794 176.299 4.74023C176.714 4.92253 177.037 5.19824 177.27 5.56738C177.507 5.93197 177.625 6.38997 177.625 6.94141V10.3867C177.625 10.6328 177.646 10.8949 177.687 11.1729C177.732 11.4508 177.798 11.6901 177.885 11.8906V12H176.565C176.502 11.8542 176.451 11.6605 176.415 11.4189C176.379 11.1729 176.36 10.945 176.36 10.7354ZM176.579 7.51562L176.593 8.4043H175.314C174.954 8.4043 174.633 8.43392 174.351 8.49316C174.068 8.54785 173.831 8.63216 173.64 8.74609C173.448 8.86003 173.302 9.00358 173.202 9.17676C173.102 9.34538 173.052 9.54362 173.052 9.77148C173.052 10.0039 173.104 10.2158 173.209 10.4072C173.314 10.5986 173.471 10.7513 173.681 10.8652C173.895 10.9746 174.157 11.0293 174.467 11.0293C174.854 11.0293 175.196 10.9473 175.492 10.7832C175.788 10.6191 176.023 10.4186 176.196 10.1816C176.374 9.94466 176.47 9.71452 176.483 9.49121L177.023 10.0996C176.992 10.291 176.905 10.5029 176.764 10.7354C176.622 10.9678 176.433 11.1911 176.196 11.4053C175.964 11.6149 175.686 11.7904 175.362 11.9316C175.043 12.0684 174.683 12.1367 174.282 12.1367C173.781 12.1367 173.341 12.0387 172.963 11.8428C172.589 11.6468 172.298 11.3848 172.088 11.0566C171.883 10.724 171.78 10.3525 171.78 9.94238C171.78 9.5459 171.858 9.19727 172.013 8.89648C172.168 8.59115 172.391 8.33822 172.683 8.1377C172.974 7.93262 173.325 7.77767 173.735 7.67285C174.146 7.56803 174.604 7.51562 175.109 7.51562H176.579ZM181.856 8.78027L179.054 4.60352H180.578L182.492 7.66602H183.969L183.784 8.78027H181.856ZM182.547 8.65039L180.4 12H178.801L181.747 7.73438L182.547 8.65039ZM184.618 4.60352V12H183.354V4.60352H184.618ZM188.932 4.60352L186.129 8.78027H184.201L184.003 7.66602H185.486L187.4 4.60352H188.932ZM187.578 12L185.425 8.65039L186.238 7.73438L189.178 12H187.578ZM200.211 6.66113V7.85059H193.389V6.66113H200.211ZM197.436 3.75586V11.002H196.171V3.75586H197.436ZM206.568 4.60352H207.833L207.724 7.37207C207.696 8.07389 207.617 8.68001 207.484 9.19043C207.352 9.70085 207.184 10.1361 206.979 10.4961C206.773 10.8516 206.543 11.1501 206.288 11.3916C206.037 11.6331 205.778 11.8359 205.509 12H204.88L204.914 10.9678L205.174 10.9609C205.324 10.7832 205.47 10.6009 205.611 10.4141C205.753 10.2227 205.882 9.99707 206.001 9.7373C206.119 9.47298 206.217 9.15169 206.295 8.77344C206.377 8.39062 206.429 7.9235 206.452 7.37207L206.568 4.60352ZM206.883 4.60352H211.333V12H210.068V5.77246H206.883V4.60352ZM204.593 10.9609H212.283V14.1807H211.019V12H205.857V14.1807H204.586L204.593 10.9609ZM216.754 12.1367C216.239 12.1367 215.772 12.0501 215.353 11.877C214.938 11.6992 214.58 11.4508 214.279 11.1318C213.983 10.8128 213.755 10.4346 213.596 9.99707C213.436 9.55957 213.356 9.08105 213.356 8.56152V8.27441C213.356 7.67285 213.445 7.13737 213.623 6.66797C213.801 6.19401 214.042 5.79297 214.348 5.46484C214.653 5.13672 214.999 4.88835 215.387 4.71973C215.774 4.55111 216.175 4.4668 216.59 4.4668C217.118 4.4668 217.574 4.55794 217.957 4.74023C218.344 4.92253 218.661 5.17773 218.907 5.50586C219.153 5.82943 219.336 6.21224 219.454 6.6543C219.573 7.0918 219.632 7.57031 219.632 8.08984V8.65723H214.108V7.625H218.367V7.5293C218.349 7.20117 218.281 6.88216 218.162 6.57227C218.048 6.26237 217.866 6.00716 217.615 5.80664C217.365 5.60612 217.023 5.50586 216.59 5.50586C216.303 5.50586 216.038 5.56738 215.797 5.69043C215.555 5.80892 215.348 5.98665 215.175 6.22363C215.002 6.46061 214.867 6.75 214.771 7.0918C214.676 7.43359 214.628 7.8278 214.628 8.27441V8.56152C214.628 8.91243 214.676 9.24284 214.771 9.55273C214.872 9.85807 215.015 10.127 215.202 10.3594C215.394 10.5918 215.624 10.7741 215.893 10.9062C216.166 11.0384 216.476 11.1045 216.822 11.1045C217.269 11.1045 217.647 11.0133 217.957 10.8311C218.267 10.6488 218.538 10.4049 218.771 10.0996L219.536 10.708C219.377 10.9495 219.174 11.1797 218.928 11.3984C218.682 11.6172 218.379 11.7949 218.019 11.9316C217.663 12.0684 217.242 12.1367 216.754 12.1367ZM225.36 10.3184L227.876 4.60352H229.093L225.798 12H224.923L221.642 4.60352H222.858L225.36 10.3184ZM222.489 4.60352V12H221.225V4.60352H222.489ZM228.19 12V4.60352H229.462V12H228.19ZM231.164 8.38379V8.22656C231.164 7.69336 231.242 7.19889 231.396 6.74316C231.551 6.28288 231.775 5.88411 232.066 5.54688C232.358 5.20508 232.711 4.94076 233.126 4.75391C233.541 4.5625 234.006 4.4668 234.521 4.4668C235.04 4.4668 235.507 4.5625 235.922 4.75391C236.341 4.94076 236.697 5.20508 236.988 5.54688C237.285 5.88411 237.51 6.28288 237.665 6.74316C237.82 7.19889 237.897 7.69336 237.897 8.22656V8.38379C237.897 8.91699 237.82 9.41146 237.665 9.86719C237.51 10.3229 237.285 10.7217 236.988 11.0635C236.697 11.4007 236.343 11.665 235.929 11.8564C235.519 12.0433 235.054 12.1367 234.534 12.1367C234.015 12.1367 233.548 12.0433 233.133 11.8564C232.718 11.665 232.363 11.4007 232.066 11.0635C231.775 10.7217 231.551 10.3229 231.396 9.86719C231.242 9.41146 231.164 8.91699 231.164 8.38379ZM232.429 8.22656V8.38379C232.429 8.75293 232.472 9.10156 232.559 9.42969C232.645 9.75326 232.775 10.0404 232.948 10.291C233.126 10.5417 233.347 10.7399 233.611 10.8857C233.876 11.027 234.183 11.0977 234.534 11.0977C234.881 11.0977 235.184 11.027 235.443 10.8857C235.708 10.7399 235.926 10.5417 236.1 10.291C236.273 10.0404 236.403 9.75326 236.489 9.42969C236.58 9.10156 236.626 8.75293 236.626 8.38379V8.22656C236.626 7.86198 236.58 7.5179 236.489 7.19434C236.403 6.86621 236.271 6.57682 236.093 6.32617C235.92 6.07096 235.701 5.87044 235.437 5.72461C235.177 5.57878 234.871 5.50586 234.521 5.50586C234.174 5.50586 233.869 5.57878 233.604 5.72461C233.345 5.87044 233.126 6.07096 232.948 6.32617C232.775 6.57682 232.645 6.86621 232.559 7.19434C232.472 7.5179 232.429 7.86198 232.429 8.22656ZM244.501 7.80957V8.83496H240.591V7.80957H244.501ZM240.857 4.60352V12H239.593V4.60352H240.857ZM245.526 4.60352V12H244.255V4.60352H245.526ZM250.578 4.60352V12H249.307V4.60352H250.578ZM253.06 4.60352V5.62891H246.873V4.60352H253.06ZM258.556 10.7354V6.92773C258.556 6.63607 258.496 6.38314 258.378 6.16895C258.264 5.9502 258.091 5.78158 257.858 5.66309C257.626 5.5446 257.339 5.48535 256.997 5.48535C256.678 5.48535 256.398 5.54004 256.156 5.64941C255.919 5.75879 255.732 5.90234 255.596 6.08008C255.464 6.25781 255.397 6.44922 255.397 6.6543H254.133C254.133 6.38997 254.201 6.12793 254.338 5.86816C254.475 5.6084 254.671 5.3737 254.926 5.16406C255.186 4.94987 255.495 4.78125 255.855 4.6582C256.22 4.5306 256.626 4.4668 257.072 4.4668C257.61 4.4668 258.084 4.55794 258.494 4.74023C258.909 4.92253 259.232 5.19824 259.465 5.56738C259.702 5.93197 259.82 6.38997 259.82 6.94141V10.3867C259.82 10.6328 259.841 10.8949 259.882 11.1729C259.927 11.4508 259.993 11.6901 260.08 11.8906V12H258.761C258.697 11.8542 258.647 11.6605 258.61 11.4189C258.574 11.1729 258.556 10.945 258.556 10.7354ZM258.774 7.51562L258.788 8.4043H257.51C257.15 8.4043 256.828 8.43392 256.546 8.49316C256.263 8.54785 256.026 8.63216 255.835 8.74609C255.644 8.86003 255.498 9.00358 255.397 9.17676C255.297 9.34538 255.247 9.54362 255.247 9.77148C255.247 10.0039 255.299 10.2158 255.404 10.4072C255.509 10.5986 255.666 10.7513 255.876 10.8652C256.09 10.9746 256.352 11.0293 256.662 11.0293C257.049 11.0293 257.391 10.9473 257.688 10.7832C257.984 10.6191 258.218 10.4186 258.392 10.1816C258.569 9.94466 258.665 9.71452 258.679 9.49121L259.219 10.0996C259.187 10.291 259.1 10.5029 258.959 10.7354C258.818 10.9678 258.629 11.1911 258.392 11.4053C258.159 11.6149 257.881 11.7904 257.558 11.9316C257.239 12.0684 256.879 12.1367 256.478 12.1367C255.976 12.1367 255.536 12.0387 255.158 11.8428C254.785 11.6468 254.493 11.3848 254.283 11.0566C254.078 10.724 253.976 10.3525 253.976 9.94238C253.976 9.5459 254.053 9.19727 254.208 8.89648C254.363 8.59115 254.586 8.33822 254.878 8.1377C255.17 7.93262 255.521 7.77767 255.931 7.67285C256.341 7.56803 256.799 7.51562 257.305 7.51562H258.774ZM264.052 8.78027L261.249 4.60352H262.773L264.688 7.66602H266.164L265.979 8.78027H264.052ZM264.742 8.65039L262.596 12H260.996L263.942 7.73438L264.742 8.65039ZM266.813 4.60352V12H265.549V4.60352H266.813ZM271.127 4.60352L268.324 8.78027H266.396L266.198 7.66602H267.682L269.596 4.60352H271.127ZM269.773 12L267.62 8.65039L268.434 7.73438L271.373 12H269.773ZM275.454 7.95312V8.02148C275.454 9.01953 275.342 9.92188 275.119 10.7285C274.896 11.5352 274.611 12.2393 274.265 12.8408C273.918 13.4469 273.554 13.9482 273.171 14.3447C272.788 14.7458 272.435 15.0352 272.111 15.2129L271.845 14.4473C272.114 14.2422 272.385 13.9551 272.658 13.5859C272.932 13.2214 273.185 12.7702 273.417 12.2324C273.649 11.6992 273.836 11.084 273.978 10.3867C274.119 9.6849 274.189 8.90104 274.189 8.03516V7.93945C274.189 7.07357 274.114 6.29199 273.964 5.59473C273.813 4.8929 273.618 4.27539 273.376 3.74219C273.139 3.20898 272.884 2.76009 272.61 2.39551C272.341 2.02637 272.086 1.74154 271.845 1.54102L272.111 0.768555C272.435 0.946289 272.788 1.23568 273.171 1.63672C273.554 2.0332 273.918 2.53451 274.265 3.14062C274.611 3.74674 274.896 4.45312 275.119 5.25977C275.342 6.06185 275.454 6.95964 275.454 7.95312ZM277.211 5.29395C277.211 5.07975 277.277 4.89974 277.409 4.75391C277.546 4.60352 277.742 4.52832 277.997 4.52832C278.252 4.52832 278.446 4.60352 278.578 4.75391C278.715 4.89974 278.783 5.07975 278.783 5.29395C278.783 5.50358 278.715 5.68132 278.578 5.82715C278.446 5.97298 278.252 6.0459 277.997 6.0459C277.742 6.0459 277.546 5.97298 277.409 5.82715C277.277 5.68132 277.211 5.50358 277.211 5.29395ZM278.653 10.4961V11.5146C278.653 11.9294 278.549 12.3669 278.339 12.8271C278.129 13.292 277.835 13.6794 277.457 13.9893L276.739 13.4902C276.885 13.2897 277.008 13.0846 277.108 12.875C277.209 12.6699 277.284 12.4557 277.334 12.2324C277.389 12.0137 277.416 11.7812 277.416 11.5352V10.4961H278.653Z" fill="#303030" fill-opacity="0.9"/>
</svg>
