<svg width="256" height="18" viewBox="0 0 256 18" fill="none" xmlns="http://www.w3.org/2000/svg">
<path d="M3.92383 13.0977C4.22461 13.0977 4.5026 13.0361 4.75781 12.9131C5.01302 12.79 5.22266 12.6214 5.38672 12.4072C5.55078 12.1885 5.64421 11.9401 5.66699 11.6621H6.87012C6.84733 12.0996 6.69922 12.5075 6.42578 12.8857C6.1569 13.2594 5.80371 13.5625 5.36621 13.7949C4.92871 14.0228 4.44792 14.1367 3.92383 14.1367C3.36784 14.1367 2.88249 14.0387 2.46777 13.8428C2.05762 13.6468 1.71582 13.3779 1.44238 13.0361C1.1735 12.6943 0.970703 12.3024 0.833984 11.8604C0.701823 11.4137 0.635742 10.9421 0.635742 10.4453V10.1582C0.635742 9.66146 0.701823 9.19206 0.833984 8.75C0.970703 8.30339 1.1735 7.90918 1.44238 7.56738C1.71582 7.22559 2.05762 6.95671 2.46777 6.76074C2.88249 6.56478 3.36784 6.4668 3.92383 6.4668C4.5026 6.4668 5.00846 6.58529 5.44141 6.82227C5.87435 7.05469 6.21387 7.3737 6.45996 7.7793C6.71061 8.18034 6.84733 8.63607 6.87012 9.14648H5.66699C5.64421 8.84115 5.55762 8.56543 5.40723 8.31934C5.26139 8.07324 5.06087 7.87728 4.80566 7.73145C4.55501 7.58105 4.26107 7.50586 3.92383 7.50586C3.53646 7.50586 3.21061 7.58333 2.94629 7.73828C2.68652 7.88867 2.47917 8.09375 2.32422 8.35352C2.17383 8.60872 2.06445 8.89355 1.99609 9.20801C1.93229 9.5179 1.90039 9.83464 1.90039 10.1582V10.4453C1.90039 10.7689 1.93229 11.0879 1.99609 11.4023C2.0599 11.7168 2.16699 12.0016 2.31738 12.2568C2.47233 12.512 2.67969 12.7171 2.93945 12.8721C3.20378 13.0225 3.5319 13.0977 3.92383 13.0977ZM9.14648 6.60352L10.7666 9.29688L12.4072 6.60352H13.8906L11.4707 10.2539L13.9658 14H12.5029L10.7939 11.2246L9.08496 14H7.61523L10.1035 10.2539L7.69043 6.60352H9.14648ZM18.1699 14.1367C17.6549 14.1367 17.1878 14.0501 16.7686 13.877C16.3538 13.6992 15.9961 13.4508 15.6953 13.1318C15.3991 12.8128 15.1712 12.4346 15.0117 11.9971C14.8522 11.5596 14.7725 11.0811 14.7725 10.5615V10.2744C14.7725 9.67285 14.8613 9.13737 15.0391 8.66797C15.2168 8.19401 15.4583 7.79297 15.7637 7.46484C16.069 7.13672 16.4154 6.88835 16.8027 6.71973C17.1901 6.55111 17.5911 6.4668 18.0059 6.4668C18.5345 6.4668 18.9902 6.55794 19.373 6.74023C19.7604 6.92253 20.0771 7.17773 20.3232 7.50586C20.5693 7.82943 20.7516 8.21224 20.8701 8.6543C20.9886 9.0918 21.0479 9.57031 21.0479 10.0898V10.6572H15.5244V9.625H19.7832V9.5293C19.765 9.20117 19.6966 8.88216 19.5781 8.57227C19.4642 8.26237 19.2819 8.00716 19.0312 7.80664C18.7806 7.60612 18.4388 7.50586 18.0059 7.50586C17.7188 7.50586 17.4544 7.56738 17.2129 7.69043C16.9714 7.80892 16.764 7.98665 16.5908 8.22363C16.4176 8.46061 16.2832 8.75 16.1875 9.0918C16.0918 9.43359 16.0439 9.8278 16.0439 10.2744V10.5615C16.0439 10.9124 16.0918 11.2428 16.1875 11.5527C16.2878 11.8581 16.4313 12.127 16.6182 12.3594C16.8096 12.5918 17.0397 12.7741 17.3086 12.9062C17.582 13.0384 17.8919 13.1045 18.2383 13.1045C18.6849 13.1045 19.0632 13.0133 19.373 12.8311C19.6829 12.6488 19.9541 12.4049 20.1865 12.0996L20.9521 12.708C20.7926 12.9495 20.5898 13.1797 20.3438 13.3984C20.0977 13.6172 19.7946 13.7949 19.4346 13.9316C19.0791 14.0684 18.6576 14.1367 18.1699 14.1367ZM26.7764 12.3184L29.292 6.60352H30.5088L27.2139 14H26.3389L23.0576 6.60352H24.2744L26.7764 12.3184ZM23.9053 6.60352V14H22.6406V6.60352H23.9053ZM29.6064 14V6.60352H30.8779V14H29.6064ZM37.2764 12.7354V8.92773C37.2764 8.63607 37.2171 8.38314 37.0986 8.16895C36.9847 7.9502 36.8115 7.78158 36.5791 7.66309C36.3467 7.5446 36.0596 7.48535 35.7178 7.48535C35.3988 7.48535 35.1185 7.54004 34.877 7.64941C34.64 7.75879 34.4531 7.90234 34.3164 8.08008C34.1842 8.25781 34.1182 8.44922 34.1182 8.6543H32.8535C32.8535 8.38997 32.9219 8.12793 33.0586 7.86816C33.1953 7.6084 33.3913 7.3737 33.6465 7.16406C33.9062 6.94987 34.2161 6.78125 34.5762 6.6582C34.9408 6.5306 35.3464 6.4668 35.793 6.4668C36.3307 6.4668 36.8047 6.55794 37.2148 6.74023C37.6296 6.92253 37.9531 7.19824 38.1855 7.56738C38.4225 7.93197 38.541 8.38997 38.541 8.94141V12.3867C38.541 12.6328 38.5615 12.8949 38.6025 13.1729C38.6481 13.4508 38.7142 13.6901 38.8008 13.8906V14H37.4814C37.4176 13.8542 37.3675 13.6605 37.3311 13.4189C37.2946 13.1729 37.2764 12.945 37.2764 12.7354ZM37.4951 9.51562L37.5088 10.4043H36.2305C35.8704 10.4043 35.5492 10.4339 35.2666 10.4932C34.984 10.5479 34.7471 10.6322 34.5557 10.7461C34.3643 10.86 34.2184 11.0036 34.1182 11.1768C34.0179 11.3454 33.9678 11.5436 33.9678 11.7715C33.9678 12.0039 34.0202 12.2158 34.125 12.4072C34.2298 12.5986 34.387 12.7513 34.5967 12.8652C34.8109 12.9746 35.0729 13.0293 35.3828 13.0293C35.7702 13.0293 36.112 12.9473 36.4082 12.7832C36.7044 12.6191 36.9391 12.4186 37.1123 12.1816C37.29 11.9447 37.3857 11.7145 37.3994 11.4912L37.9395 12.0996C37.9076 12.291 37.821 12.5029 37.6797 12.7354C37.5384 12.9678 37.3493 13.1911 37.1123 13.4053C36.8799 13.6149 36.6019 13.7904 36.2783 13.9316C35.9593 14.0684 35.5993 14.1367 35.1982 14.1367C34.6969 14.1367 34.2572 14.0387 33.8789 13.8428C33.5052 13.6468 33.2135 13.3848 33.0039 13.0566C32.7988 12.724 32.6963 12.3525 32.6963 11.9424C32.6963 11.5459 32.7738 11.1973 32.9287 10.8965C33.0837 10.5911 33.307 10.3382 33.5986 10.1377C33.8903 9.93262 34.2412 9.77767 34.6514 9.67285C35.0615 9.56803 35.5195 9.51562 36.0254 9.51562H37.4951ZM48.9316 6.60352V7.64941H45.1924V6.60352H48.9316ZM45.377 6.60352V14H44.1123V6.60352H45.377ZM50.0527 6.60352V14H48.7812V6.60352H50.0527ZM51.748 10.3838V10.2266C51.748 9.69336 51.8255 9.19889 51.9805 8.74316C52.1354 8.28288 52.3587 7.88411 52.6504 7.54688C52.9421 7.20508 53.2952 6.94076 53.71 6.75391C54.1247 6.5625 54.5895 6.4668 55.1045 6.4668C55.624 6.4668 56.0911 6.5625 56.5059 6.75391C56.9251 6.94076 57.2806 7.20508 57.5723 7.54688C57.8685 7.88411 58.0941 8.28288 58.249 8.74316C58.404 9.19889 58.4814 9.69336 58.4814 10.2266V10.3838C58.4814 10.917 58.404 11.4115 58.249 11.8672C58.0941 12.3229 57.8685 12.7217 57.5723 13.0635C57.2806 13.4007 56.9274 13.665 56.5127 13.8564C56.1025 14.0433 55.6377 14.1367 55.1182 14.1367C54.5986 14.1367 54.1315 14.0433 53.7168 13.8564C53.3021 13.665 52.9466 13.4007 52.6504 13.0635C52.3587 12.7217 52.1354 12.3229 51.9805 11.8672C51.8255 11.4115 51.748 10.917 51.748 10.3838ZM53.0127 10.2266V10.3838C53.0127 10.7529 53.056 11.1016 53.1426 11.4297C53.2292 11.7533 53.359 12.0404 53.5322 12.291C53.71 12.5417 53.931 12.7399 54.1953 12.8857C54.4596 13.027 54.7673 13.0977 55.1182 13.0977C55.4645 13.0977 55.7676 13.027 56.0273 12.8857C56.2917 12.7399 56.5104 12.5417 56.6836 12.291C56.8568 12.0404 56.9867 11.7533 57.0732 11.4297C57.1644 11.1016 57.21 10.7529 57.21 10.3838V10.2266C57.21 9.86198 57.1644 9.5179 57.0732 9.19434C56.9867 8.86621 56.8545 8.57682 56.6768 8.32617C56.5036 8.07096 56.2848 7.87044 56.0205 7.72461C55.7607 7.57878 55.4554 7.50586 55.1045 7.50586C54.7581 7.50586 54.4528 7.57878 54.1885 7.72461C53.9287 7.87044 53.71 8.07096 53.5322 8.32617C53.359 8.57682 53.2292 8.86621 53.1426 9.19434C53.056 9.5179 53.0127 9.86198 53.0127 10.2266ZM62.9316 6.60352V14H61.6602V6.60352H62.9316ZM65.4131 6.60352V7.62891H59.2266V6.60352H65.4131ZM66.0352 10.3838V10.2266C66.0352 9.69336 66.1126 9.19889 66.2676 8.74316C66.4225 8.28288 66.6458 7.88411 66.9375 7.54688C67.2292 7.20508 67.5824 6.94076 67.9971 6.75391C68.4118 6.5625 68.8766 6.4668 69.3916 6.4668C69.9111 6.4668 70.3783 6.5625 70.793 6.75391C71.2122 6.94076 71.5677 7.20508 71.8594 7.54688C72.1556 7.88411 72.3812 8.28288 72.5361 8.74316C72.6911 9.19889 72.7686 9.69336 72.7686 10.2266V10.3838C72.7686 10.917 72.6911 11.4115 72.5361 11.8672C72.3812 12.3229 72.1556 12.7217 71.8594 13.0635C71.5677 13.4007 71.2145 13.665 70.7998 13.8564C70.3896 14.0433 69.9248 14.1367 69.4053 14.1367C68.8857 14.1367 68.4186 14.0433 68.0039 13.8564C67.5892 13.665 67.2337 13.4007 66.9375 13.0635C66.6458 12.7217 66.4225 12.3229 66.2676 11.8672C66.1126 11.4115 66.0352 10.917 66.0352 10.3838ZM67.2998 10.2266V10.3838C67.2998 10.7529 67.3431 11.1016 67.4297 11.4297C67.5163 11.7533 67.6462 12.0404 67.8193 12.291C67.9971 12.5417 68.2181 12.7399 68.4824 12.8857C68.7467 13.027 69.0544 13.0977 69.4053 13.0977C69.7516 13.0977 70.0547 13.027 70.3145 12.8857C70.5788 12.7399 70.7975 12.5417 70.9707 12.291C71.1439 12.0404 71.2738 11.7533 71.3604 11.4297C71.4515 11.1016 71.4971 10.7529 71.4971 10.3838V10.2266C71.4971 9.86198 71.4515 9.5179 71.3604 9.19434C71.2738 8.86621 71.1416 8.57682 70.9639 8.32617C70.7907 8.07096 70.5719 7.87044 70.3076 7.72461C70.0479 7.57878 69.7425 7.50586 69.3916 7.50586C69.0452 7.50586 68.7399 7.57878 68.4756 7.72461C68.2158 7.87044 67.9971 8.07096 67.8193 8.32617C67.6462 8.57682 67.5163 8.86621 67.4297 9.19434C67.3431 9.5179 67.2998 9.86198 67.2998 10.2266ZM79.1875 6.60352V7.64941H75.6123V6.60352H79.1875ZM80.3018 6.60352V14H79.0371V6.60352H80.3018ZM75.3047 6.60352H76.5762L76.3848 10.1719C76.3529 10.7233 76.3005 11.2109 76.2275 11.6348C76.1592 12.054 76.0635 12.4141 75.9404 12.7148C75.8219 13.0156 75.6715 13.2617 75.4893 13.4531C75.3115 13.64 75.0973 13.779 74.8467 13.8701C74.596 13.9567 74.3066 14 73.9785 14H73.582V12.8857L73.8555 12.8652C74.0514 12.8516 74.2178 12.806 74.3545 12.7285C74.4958 12.651 74.6143 12.5371 74.71 12.3867C74.8057 12.2318 74.8831 12.0335 74.9424 11.792C75.0062 11.5505 75.054 11.2633 75.0859 10.9307C75.1224 10.598 75.1497 10.2106 75.168 9.76855L75.3047 6.60352ZM82.0039 10.3838V10.2266C82.0039 9.69336 82.0814 9.19889 82.2363 8.74316C82.3913 8.28288 82.6146 7.88411 82.9062 7.54688C83.1979 7.20508 83.5511 6.94076 83.9658 6.75391C84.3805 6.5625 84.8454 6.4668 85.3604 6.4668C85.8799 6.4668 86.347 6.5625 86.7617 6.75391C87.181 6.94076 87.5365 7.20508 87.8281 7.54688C88.1243 7.88411 88.3499 8.28288 88.5049 8.74316C88.6598 9.19889 88.7373 9.69336 88.7373 10.2266V10.3838C88.7373 10.917 88.6598 11.4115 88.5049 11.8672C88.3499 12.3229 88.1243 12.7217 87.8281 13.0635C87.5365 13.4007 87.1833 13.665 86.7686 13.8564C86.3584 14.0433 85.8936 14.1367 85.374 14.1367C84.8545 14.1367 84.3874 14.0433 83.9727 13.8564C83.5579 13.665 83.2025 13.4007 82.9062 13.0635C82.6146 12.7217 82.3913 12.3229 82.2363 11.8672C82.0814 11.4115 82.0039 10.917 82.0039 10.3838ZM83.2686 10.2266V10.3838C83.2686 10.7529 83.3118 11.1016 83.3984 11.4297C83.485 11.7533 83.6149 12.0404 83.7881 12.291C83.9658 12.5417 84.1868 12.7399 84.4512 12.8857C84.7155 13.027 85.0231 13.0977 85.374 13.0977C85.7204 13.0977 86.0234 13.027 86.2832 12.8857C86.5475 12.7399 86.7663 12.5417 86.9395 12.291C87.1126 12.0404 87.2425 11.7533 87.3291 11.4297C87.4202 11.1016 87.4658 10.7529 87.4658 10.3838V10.2266C87.4658 9.86198 87.4202 9.5179 87.3291 9.19434C87.2425 8.86621 87.1104 8.57682 86.9326 8.32617C86.7594 8.07096 86.5407 7.87044 86.2764 7.72461C86.0166 7.57878 85.7113 7.50586 85.3604 7.50586C85.014 7.50586 84.7087 7.57878 84.4443 7.72461C84.1846 7.87044 83.9658 8.07096 83.7881 8.32617C83.6149 8.57682 83.485 8.86621 83.3984 9.19434C83.3118 9.5179 83.2686 9.86198 83.2686 10.2266ZM95.9014 6.60352V14H94.6367V6.60352H95.9014ZM95.4707 10.001V11.04C95.2155 11.1357 94.9557 11.2223 94.6914 11.2998C94.4316 11.3727 94.1559 11.432 93.8643 11.4775C93.5771 11.5186 93.265 11.5391 92.9277 11.5391C92.3444 11.5391 91.8385 11.4388 91.4102 11.2383C90.9818 11.0332 90.6514 10.7256 90.4189 10.3154C90.1865 9.90072 90.0703 9.37891 90.0703 8.75V6.58984H91.335V8.75C91.335 9.16016 91.3965 9.49284 91.5195 9.74805C91.6426 10.0033 91.8226 10.1924 92.0596 10.3154C92.2965 10.4339 92.5859 10.4932 92.9277 10.4932C93.2559 10.4932 93.5635 10.4727 93.8506 10.4316C94.1423 10.3861 94.4202 10.3268 94.6846 10.2539C94.9535 10.181 95.2155 10.0967 95.4707 10.001ZM102.956 9.80957V10.835H99.0459V9.80957H102.956ZM99.3125 6.60352V14H98.0479V6.60352H99.3125ZM103.981 6.60352V14H102.71V6.60352H103.981ZM107.058 9.14648H109.279C109.876 9.14648 110.38 9.2513 110.79 9.46094C111.2 9.66602 111.51 9.95085 111.72 10.3154C111.934 10.6755 112.041 11.0856 112.041 11.5459C112.041 11.8877 111.982 12.209 111.863 12.5098C111.745 12.806 111.567 13.0658 111.33 13.2891C111.098 13.5124 110.808 13.6878 110.462 13.8154C110.12 13.9385 109.726 14 109.279 14H106.135V6.60352H107.399V12.9609H109.279C109.644 12.9609 109.936 12.8949 110.154 12.7627C110.373 12.6305 110.53 12.4596 110.626 12.25C110.722 12.0404 110.77 11.8216 110.77 11.5938C110.77 11.3704 110.722 11.1517 110.626 10.9375C110.53 10.7233 110.373 10.5456 110.154 10.4043C109.936 10.2585 109.644 10.1855 109.279 10.1855H107.058V9.14648ZM114.673 6.60352V14H113.408V6.60352H114.673ZM117.742 6.60352L119.362 9.29688L121.003 6.60352H122.486L120.066 10.2539L122.562 14H121.099L119.39 11.2246L117.681 14H116.211L118.699 10.2539L116.286 6.60352H117.742ZM132.234 6.60352V7.64941H128.495V6.60352H132.234ZM128.68 6.60352V14H127.415V6.60352H128.68ZM133.355 6.60352V14H132.084V6.60352H133.355ZM135.051 10.3838V10.2266C135.051 9.69336 135.128 9.19889 135.283 8.74316C135.438 8.28288 135.661 7.88411 135.953 7.54688C136.245 7.20508 136.598 6.94076 137.013 6.75391C137.427 6.5625 137.892 6.4668 138.407 6.4668C138.927 6.4668 139.394 6.5625 139.809 6.75391C140.228 6.94076 140.583 7.20508 140.875 7.54688C141.171 7.88411 141.397 8.28288 141.552 8.74316C141.707 9.19889 141.784 9.69336 141.784 10.2266V10.3838C141.784 10.917 141.707 11.4115 141.552 11.8672C141.397 12.3229 141.171 12.7217 140.875 13.0635C140.583 13.4007 140.23 13.665 139.815 13.8564C139.405 14.0433 138.94 14.1367 138.421 14.1367C137.901 14.1367 137.434 14.0433 137.02 13.8564C136.605 13.665 136.249 13.4007 135.953 13.0635C135.661 12.7217 135.438 12.3229 135.283 11.8672C135.128 11.4115 135.051 10.917 135.051 10.3838ZM136.315 10.2266V10.3838C136.315 10.7529 136.359 11.1016 136.445 11.4297C136.532 11.7533 136.662 12.0404 136.835 12.291C137.013 12.5417 137.234 12.7399 137.498 12.8857C137.762 13.027 138.07 13.0977 138.421 13.0977C138.767 13.0977 139.07 13.027 139.33 12.8857C139.594 12.7399 139.813 12.5417 139.986 12.291C140.16 12.0404 140.289 11.7533 140.376 11.4297C140.467 11.1016 140.513 10.7529 140.513 10.3838V10.2266C140.513 9.86198 140.467 9.5179 140.376 9.19434C140.289 8.86621 140.157 8.57682 139.979 8.32617C139.806 8.07096 139.588 7.87044 139.323 7.72461C139.063 7.57878 138.758 7.50586 138.407 7.50586C138.061 7.50586 137.756 7.57878 137.491 7.72461C137.231 7.87044 137.013 8.07096 136.835 8.32617C136.662 8.57682 136.532 8.86621 136.445 9.19434C136.359 9.5179 136.315 9.86198 136.315 10.2266ZM144.744 6.60352V14H143.479V6.60352H144.744ZM149.598 6.60352L146.091 10.8418H144.32L144.129 9.73438H145.578L148.06 6.60352H149.598ZM148.237 14L145.517 10.6504L146.33 9.73438L149.844 14H148.237ZM152.209 8.02539V16.8438H150.938V6.60352H152.1L152.209 8.02539ZM157.192 10.2402V10.3838C157.192 10.9215 157.129 11.4206 157.001 11.8809C156.873 12.3366 156.687 12.7331 156.44 13.0703C156.199 13.4076 155.9 13.6696 155.545 13.8564C155.189 14.0433 154.782 14.1367 154.321 14.1367C153.852 14.1367 153.437 14.0592 153.077 13.9043C152.717 13.7493 152.412 13.5238 152.161 13.2275C151.91 12.9313 151.71 12.5758 151.56 12.1611C151.414 11.7464 151.313 11.2793 151.259 10.7598V9.99414C151.313 9.44727 151.416 8.95736 151.566 8.52441C151.717 8.09147 151.915 7.72233 152.161 7.41699C152.412 7.1071 152.715 6.8724 153.07 6.71289C153.426 6.54883 153.836 6.4668 154.301 6.4668C154.766 6.4668 155.178 6.55794 155.538 6.74023C155.898 6.91797 156.201 7.17318 156.447 7.50586C156.693 7.83854 156.878 8.2373 157.001 8.70215C157.129 9.16243 157.192 9.67513 157.192 10.2402ZM155.921 10.3838V10.2402C155.921 9.87109 155.882 9.52474 155.805 9.20117C155.727 8.87305 155.606 8.58594 155.442 8.33984C155.283 8.08919 155.078 7.89323 154.827 7.75195C154.576 7.60612 154.278 7.5332 153.932 7.5332C153.613 7.5332 153.335 7.58789 153.098 7.69727C152.865 7.80664 152.667 7.95475 152.503 8.1416C152.339 8.32389 152.204 8.53353 152.1 8.77051C151.999 9.00293 151.924 9.24447 151.874 9.49512V11.2656C151.965 11.5846 152.093 11.8854 152.257 12.168C152.421 12.446 152.64 12.6715 152.913 12.8447C153.187 13.0133 153.531 13.0977 153.945 13.0977C154.287 13.0977 154.581 13.027 154.827 12.8857C155.078 12.7399 155.283 12.5417 155.442 12.291C155.606 12.0404 155.727 11.7533 155.805 11.4297C155.882 11.1016 155.921 10.7529 155.921 10.3838ZM159.845 9.14648H162.066C162.663 9.14648 163.167 9.2513 163.577 9.46094C163.987 9.66602 164.297 9.95085 164.507 10.3154C164.721 10.6755 164.828 11.0856 164.828 11.5459C164.828 11.8877 164.769 12.209 164.65 12.5098C164.532 12.806 164.354 13.0658 164.117 13.2891C163.885 13.5124 163.595 13.6878 163.249 13.8154C162.907 13.9385 162.513 14 162.066 14H158.922V6.60352H160.187V12.9609H162.066C162.431 12.9609 162.723 12.8949 162.941 12.7627C163.16 12.6305 163.317 12.4596 163.413 12.25C163.509 12.0404 163.557 11.8216 163.557 11.5938C163.557 11.3704 163.509 11.1517 163.413 10.9375C163.317 10.7233 163.16 10.5456 162.941 10.4043C162.723 10.2585 162.431 10.1855 162.066 10.1855H159.845V9.14648ZM167.46 6.60352V14H166.195V6.60352H167.46ZM172.689 6.60352V14H171.418V6.60352H172.689ZM175.171 6.60352V7.62891H168.984V6.60352H175.171ZM177.782 11.9971L181.193 6.60352H182.465V14H181.193V8.60645L177.782 14H176.524V6.60352H177.782V11.9971ZM185.862 11.9971L189.273 6.60352H190.545V14H189.273V8.60645L185.862 14H184.604V6.60352H185.862V11.9971ZM188.583 3.92383H189.608C189.608 4.2793 189.526 4.59603 189.362 4.87402C189.198 5.14746 188.964 5.36165 188.658 5.5166C188.353 5.67155 187.991 5.74902 187.571 5.74902C186.938 5.74902 186.437 5.5804 186.067 5.24316C185.703 4.90137 185.521 4.46159 185.521 3.92383H186.546C186.546 4.19271 186.623 4.42969 186.778 4.63477C186.933 4.83984 187.198 4.94238 187.571 4.94238C187.936 4.94238 188.196 4.83984 188.351 4.63477C188.506 4.42969 188.583 4.19271 188.583 3.92383ZM192.363 7.29395C192.363 7.07975 192.429 6.89974 192.562 6.75391C192.698 6.60352 192.894 6.52832 193.149 6.52832C193.405 6.52832 193.598 6.60352 193.73 6.75391C193.867 6.89974 193.936 7.07975 193.936 7.29395C193.936 7.50358 193.867 7.68132 193.73 7.82715C193.598 7.97298 193.405 8.0459 193.149 8.0459C192.894 8.0459 192.698 7.97298 192.562 7.82715C192.429 7.68132 192.363 7.50358 192.363 7.29395ZM193.806 12.4961V13.5146C193.806 13.9294 193.701 14.3669 193.491 14.8271C193.282 15.292 192.988 15.6794 192.609 15.9893L191.892 15.4902C192.037 15.2897 192.16 15.0846 192.261 14.875C192.361 14.6699 192.436 14.4557 192.486 14.2324C192.541 14.0137 192.568 13.7812 192.568 13.5352V12.4961H193.806Z" fill="#303030" fill-opacity="0.9"/>
</svg>
