<svg width="256" height="18" viewBox="0 0 256 18" fill="none" xmlns="http://www.w3.org/2000/svg">
<path d="M5.89258 6.60352V7.64941H2.15332V6.60352H5.89258ZM2.33789 6.60352V14H1.07324V6.60352H2.33789ZM7.01367 6.60352V14H5.74219V6.60352H7.01367ZM13.9863 6.60352V7.64941H10.4111V6.60352H13.9863ZM15.1006 6.60352V14H13.8359V6.60352H15.1006ZM10.1035 6.60352H11.375L11.1836 10.1719C11.1517 10.7233 11.0993 11.2109 11.0264 11.6348C10.958 12.054 10.8623 12.4141 10.7393 12.7148C10.6208 13.0156 10.4704 13.2617 10.2881 13.4531C10.1104 13.64 9.89616 13.779 9.64551 13.8701C9.39486 13.9567 9.10547 14 8.77734 14H8.38086V12.8857L8.6543 12.8652C8.85026 12.8516 9.0166 12.806 9.15332 12.7285C9.2946 12.651 9.41309 12.5371 9.50879 12.3867C9.60449 12.2318 9.68197 12.0335 9.74121 11.792C9.80501 11.5505 9.85286 11.2633 9.88477 10.9307C9.92122 10.598 9.94857 10.2106 9.9668 9.76855L10.1035 6.60352ZM21.499 12.7354V8.92773C21.499 8.63607 21.4398 8.38314 21.3213 8.16895C21.2074 7.9502 21.0342 7.78158 20.8018 7.66309C20.5693 7.5446 20.2822 7.48535 19.9404 7.48535C19.6214 7.48535 19.3411 7.54004 19.0996 7.64941C18.8626 7.75879 18.6758 7.90234 18.5391 8.08008C18.4069 8.25781 18.3408 8.44922 18.3408 8.6543H17.0762C17.0762 8.38997 17.1445 8.12793 17.2812 7.86816C17.418 7.6084 17.6139 7.3737 17.8691 7.16406C18.1289 6.94987 18.4388 6.78125 18.7988 6.6582C19.1634 6.5306 19.569 6.4668 20.0156 6.4668C20.5534 6.4668 21.0273 6.55794 21.4375 6.74023C21.8522 6.92253 22.1758 7.19824 22.4082 7.56738C22.6452 7.93197 22.7637 8.38997 22.7637 8.94141V12.3867C22.7637 12.6328 22.7842 12.8949 22.8252 13.1729C22.8708 13.4508 22.9368 13.6901 23.0234 13.8906V14H21.7041C21.6403 13.8542 21.5902 13.6605 21.5537 13.4189C21.5173 13.1729 21.499 12.945 21.499 12.7354ZM21.7178 9.51562L21.7314 10.4043H20.4531C20.0931 10.4043 19.7718 10.4339 19.4893 10.4932C19.2067 10.5479 18.9697 10.6322 18.7783 10.7461C18.5869 10.86 18.4411 11.0036 18.3408 11.1768C18.2406 11.3454 18.1904 11.5436 18.1904 11.7715C18.1904 12.0039 18.2428 12.2158 18.3477 12.4072C18.4525 12.5986 18.6097 12.7513 18.8193 12.8652C19.0335 12.9746 19.2956 13.0293 19.6055 13.0293C19.9928 13.0293 20.3346 12.9473 20.6309 12.7832C20.9271 12.6191 21.1618 12.4186 21.335 12.1816C21.5127 11.9447 21.6084 11.7145 21.6221 11.4912L22.1621 12.0996C22.1302 12.291 22.0436 12.5029 21.9023 12.7354C21.7611 12.9678 21.5719 13.1911 21.335 13.4053C21.1025 13.6149 20.8245 13.7904 20.501 13.9316C20.182 14.0684 19.8219 14.1367 19.4209 14.1367C18.9196 14.1367 18.4798 14.0387 18.1016 13.8428C17.7279 13.6468 17.4362 13.3848 17.2266 13.0566C17.0215 12.724 16.9189 12.3525 16.9189 11.9424C16.9189 11.5459 16.9964 11.1973 17.1514 10.8965C17.3063 10.5911 17.5296 10.3382 17.8213 10.1377C18.113 9.93262 18.4639 9.77767 18.874 9.67285C19.2842 9.56803 19.7422 9.51562 20.248 9.51562H21.7178ZM29.7705 9.80957V10.835H25.8604V9.80957H29.7705ZM26.127 6.60352V14H24.8623V6.60352H26.127ZM30.7959 6.60352V14H29.5244V6.60352H30.7959ZM34.2002 11.9971L37.6113 6.60352H38.8828V14H37.6113V8.60645L34.2002 14H32.9424V6.60352H34.2002V11.9971ZM42.1777 8.02539V16.8438H40.9062V6.60352H42.0684L42.1777 8.02539ZM47.1611 10.2402V10.3838C47.1611 10.9215 47.0973 11.4206 46.9697 11.8809C46.8421 12.3366 46.6553 12.7331 46.4092 13.0703C46.1676 13.4076 45.8691 13.6696 45.5137 13.8564C45.1582 14.0433 44.7503 14.1367 44.29 14.1367C43.8206 14.1367 43.4059 14.0592 43.0459 13.9043C42.6859 13.7493 42.3805 13.5238 42.1299 13.2275C41.8792 12.9313 41.6787 12.5758 41.5283 12.1611C41.3825 11.7464 41.2822 11.2793 41.2275 10.7598V9.99414C41.2822 9.44727 41.3848 8.95736 41.5352 8.52441C41.6855 8.09147 41.8838 7.72233 42.1299 7.41699C42.3805 7.1071 42.6836 6.8724 43.0391 6.71289C43.3945 6.54883 43.8047 6.4668 44.2695 6.4668C44.7344 6.4668 45.1468 6.55794 45.5068 6.74023C45.8669 6.91797 46.1699 7.17318 46.416 7.50586C46.6621 7.83854 46.8467 8.2373 46.9697 8.70215C47.0973 9.16243 47.1611 9.67513 47.1611 10.2402ZM45.8896 10.3838V10.2402C45.8896 9.87109 45.8509 9.52474 45.7734 9.20117C45.696 8.87305 45.5752 8.58594 45.4111 8.33984C45.2516 8.08919 45.0465 7.89323 44.7959 7.75195C44.5452 7.60612 44.2467 7.5332 43.9004 7.5332C43.5814 7.5332 43.3034 7.58789 43.0664 7.69727C42.834 7.80664 42.6357 7.95475 42.4717 8.1416C42.3076 8.32389 42.1732 8.53353 42.0684 8.77051C41.9681 9.00293 41.8929 9.24447 41.8428 9.49512V11.2656C41.9339 11.5846 42.0615 11.8854 42.2256 12.168C42.3896 12.446 42.6084 12.6715 42.8818 12.8447C43.1553 13.0133 43.4993 13.0977 43.9141 13.0977C44.2559 13.0977 44.5498 13.027 44.7959 12.8857C45.0465 12.7399 45.2516 12.5417 45.4111 12.291C45.5752 12.0404 45.696 11.7533 45.7734 11.4297C45.8509 11.1016 45.8896 10.7529 45.8896 10.3838ZM48.4395 10.3838V10.2266C48.4395 9.69336 48.5169 9.19889 48.6719 8.74316C48.8268 8.28288 49.0501 7.88411 49.3418 7.54688C49.6335 7.20508 49.9867 6.94076 50.4014 6.75391C50.8161 6.5625 51.2809 6.4668 51.7959 6.4668C52.3154 6.4668 52.7826 6.5625 53.1973 6.75391C53.6165 6.94076 53.972 7.20508 54.2637 7.54688C54.5599 7.88411 54.7855 8.28288 54.9404 8.74316C55.0954 9.19889 55.1729 9.69336 55.1729 10.2266V10.3838C55.1729 10.917 55.0954 11.4115 54.9404 11.8672C54.7855 12.3229 54.5599 12.7217 54.2637 13.0635C53.972 13.4007 53.6188 13.665 53.2041 13.8564C52.7939 14.0433 52.3291 14.1367 51.8096 14.1367C51.29 14.1367 50.8229 14.0433 50.4082 13.8564C49.9935 13.665 49.638 13.4007 49.3418 13.0635C49.0501 12.7217 48.8268 12.3229 48.6719 11.8672C48.5169 11.4115 48.4395 10.917 48.4395 10.3838ZM49.7041 10.2266V10.3838C49.7041 10.7529 49.7474 11.1016 49.834 11.4297C49.9206 11.7533 50.0505 12.0404 50.2236 12.291C50.4014 12.5417 50.6224 12.7399 50.8867 12.8857C51.151 13.027 51.4587 13.0977 51.8096 13.0977C52.1559 13.0977 52.459 13.027 52.7188 12.8857C52.9831 12.7399 53.2018 12.5417 53.375 12.291C53.5482 12.0404 53.6781 11.7533 53.7646 11.4297C53.8558 11.1016 53.9014 10.7529 53.9014 10.3838V10.2266C53.9014 9.86198 53.8558 9.5179 53.7646 9.19434C53.6781 8.86621 53.5459 8.57682 53.3682 8.32617C53.195 8.07096 52.9762 7.87044 52.7119 7.72461C52.4521 7.57878 52.1468 7.50586 51.7959 7.50586C51.4495 7.50586 51.1442 7.57878 50.8799 7.72461C50.6201 7.87044 50.4014 8.07096 50.2236 8.32617C50.0505 8.57682 49.9206 8.86621 49.834 9.19434C49.7474 9.5179 49.7041 9.86198 49.7041 10.2266ZM60.2314 10.7461H57.8047L57.791 9.73438H59.7734C60.1654 9.73438 60.4912 9.69564 60.751 9.61816C61.0153 9.54069 61.2135 9.42448 61.3457 9.26953C61.4779 9.11458 61.5439 8.92318 61.5439 8.69531C61.5439 8.51758 61.5052 8.36263 61.4277 8.23047C61.3548 8.09375 61.2432 7.9821 61.0928 7.89551C60.9424 7.80436 60.7555 7.73828 60.5322 7.69727C60.3135 7.65169 60.056 7.62891 59.7598 7.62891H58.1396V14H56.875V6.60352H59.7598C60.2292 6.60352 60.6507 6.64453 61.0244 6.72656C61.4027 6.80859 61.724 6.93392 61.9883 7.10254C62.2572 7.2666 62.4622 7.47624 62.6035 7.73145C62.7448 7.98665 62.8154 8.28743 62.8154 8.63379C62.8154 8.8571 62.7699 9.06901 62.6787 9.26953C62.5876 9.47005 62.4531 9.64779 62.2754 9.80273C62.0977 9.95768 61.8789 10.0853 61.6191 10.1855C61.3594 10.2812 61.0609 10.3428 60.7236 10.3701L60.2314 10.7461ZM60.2314 14H57.3467L57.9756 12.9746H60.2314C60.5824 12.9746 60.874 12.9313 61.1064 12.8447C61.3389 12.7536 61.512 12.626 61.626 12.4619C61.7445 12.2933 61.8037 12.0928 61.8037 11.8604C61.8037 11.6279 61.7445 11.4297 61.626 11.2656C61.512 11.097 61.3389 10.9694 61.1064 10.8828C60.874 10.7917 60.5824 10.7461 60.2314 10.7461H58.3105L58.3242 9.73438H60.7236L61.1816 10.1172C61.5872 10.1491 61.9313 10.2493 62.2139 10.418C62.4964 10.5866 62.7106 10.8008 62.8564 11.0605C63.0023 11.3158 63.0752 11.5938 63.0752 11.8945C63.0752 12.2409 63.0091 12.5462 62.877 12.8105C62.7493 13.0749 62.5625 13.2959 62.3164 13.4736C62.0703 13.6468 61.7718 13.779 61.4209 13.8701C61.07 13.9567 60.6735 14 60.2314 14ZM64.4355 10.3838V10.2266C64.4355 9.69336 64.513 9.19889 64.668 8.74316C64.8229 8.28288 65.0462 7.88411 65.3379 7.54688C65.6296 7.20508 65.9827 6.94076 66.3975 6.75391C66.8122 6.5625 67.277 6.4668 67.792 6.4668C68.3115 6.4668 68.7786 6.5625 69.1934 6.75391C69.6126 6.94076 69.9681 7.20508 70.2598 7.54688C70.556 7.88411 70.7816 8.28288 70.9365 8.74316C71.0915 9.19889 71.1689 9.69336 71.1689 10.2266V10.3838C71.1689 10.917 71.0915 11.4115 70.9365 11.8672C70.7816 12.3229 70.556 12.7217 70.2598 13.0635C69.9681 13.4007 69.6149 13.665 69.2002 13.8564C68.79 14.0433 68.3252 14.1367 67.8057 14.1367C67.2861 14.1367 66.819 14.0433 66.4043 13.8564C65.9896 13.665 65.6341 13.4007 65.3379 13.0635C65.0462 12.7217 64.8229 12.3229 64.668 11.8672C64.513 11.4115 64.4355 10.917 64.4355 10.3838ZM65.7002 10.2266V10.3838C65.7002 10.7529 65.7435 11.1016 65.8301 11.4297C65.9167 11.7533 66.0465 12.0404 66.2197 12.291C66.3975 12.5417 66.6185 12.7399 66.8828 12.8857C67.1471 13.027 67.4548 13.0977 67.8057 13.0977C68.152 13.0977 68.4551 13.027 68.7148 12.8857C68.9792 12.7399 69.1979 12.5417 69.3711 12.291C69.5443 12.0404 69.6742 11.7533 69.7607 11.4297C69.8519 11.1016 69.8975 10.7529 69.8975 10.3838V10.2266C69.8975 9.86198 69.8519 9.5179 69.7607 9.19434C69.6742 8.86621 69.542 8.57682 69.3643 8.32617C69.1911 8.07096 68.9723 7.87044 68.708 7.72461C68.4482 7.57878 68.1429 7.50586 67.792 7.50586C67.4456 7.50586 67.1403 7.57878 66.876 7.72461C66.6162 7.87044 66.3975 8.07096 66.2197 8.32617C66.0465 8.57682 65.9167 8.86621 65.8301 9.19434C65.7435 9.5179 65.7002 9.86198 65.7002 10.2266ZM78.333 6.60352V14H77.0684V6.60352H78.333ZM77.9023 10.001V11.04C77.6471 11.1357 77.3874 11.2223 77.123 11.2998C76.8633 11.3727 76.5876 11.432 76.2959 11.4775C76.0088 11.5186 75.6966 11.5391 75.3594 11.5391C74.776 11.5391 74.2702 11.4388 73.8418 11.2383C73.4134 11.0332 73.083 10.7256 72.8506 10.3154C72.6182 9.90072 72.502 9.37891 72.502 8.75V6.58984H73.7666V8.75C73.7666 9.16016 73.8281 9.49284 73.9512 9.74805C74.0742 10.0033 74.2542 10.1924 74.4912 10.3154C74.7282 10.4339 75.0176 10.4932 75.3594 10.4932C75.6875 10.4932 75.9951 10.4727 76.2822 10.4316C76.5739 10.3861 76.8519 10.3268 77.1162 10.2539C77.3851 10.181 77.6471 10.0967 77.9023 10.001ZM85.3877 9.80957V10.835H81.4775V9.80957H85.3877ZM81.7441 6.60352V14H80.4795V6.60352H81.7441ZM86.4131 6.60352V14H85.1416V6.60352H86.4131ZM88.1152 10.3838V10.2266C88.1152 9.69336 88.1927 9.19889 88.3477 8.74316C88.5026 8.28288 88.7259 7.88411 89.0176 7.54688C89.3092 7.20508 89.6624 6.94076 90.0771 6.75391C90.4919 6.5625 90.9567 6.4668 91.4717 6.4668C91.9912 6.4668 92.4583 6.5625 92.873 6.75391C93.2923 6.94076 93.6478 7.20508 93.9395 7.54688C94.2357 7.88411 94.4613 8.28288 94.6162 8.74316C94.7712 9.19889 94.8486 9.69336 94.8486 10.2266V10.3838C94.8486 10.917 94.7712 11.4115 94.6162 11.8672C94.4613 12.3229 94.2357 12.7217 93.9395 13.0635C93.6478 13.4007 93.2946 13.665 92.8799 13.8564C92.4697 14.0433 92.0049 14.1367 91.4854 14.1367C90.9658 14.1367 90.4987 14.0433 90.084 13.8564C89.6693 13.665 89.3138 13.4007 89.0176 13.0635C88.7259 12.7217 88.5026 12.3229 88.3477 11.8672C88.1927 11.4115 88.1152 10.917 88.1152 10.3838ZM89.3799 10.2266V10.3838C89.3799 10.7529 89.4232 11.1016 89.5098 11.4297C89.5964 11.7533 89.7262 12.0404 89.8994 12.291C90.0771 12.5417 90.2982 12.7399 90.5625 12.8857C90.8268 13.027 91.1344 13.0977 91.4854 13.0977C91.8317 13.0977 92.1348 13.027 92.3945 12.8857C92.6589 12.7399 92.8776 12.5417 93.0508 12.291C93.224 12.0404 93.3538 11.7533 93.4404 11.4297C93.5316 11.1016 93.5771 10.7529 93.5771 10.3838V10.2266C93.5771 9.86198 93.5316 9.5179 93.4404 9.19434C93.3538 8.86621 93.2217 8.57682 93.0439 8.32617C92.8708 8.07096 92.652 7.87044 92.3877 7.72461C92.1279 7.57878 91.8226 7.50586 91.4717 7.50586C91.1253 7.50586 90.82 7.57878 90.5557 7.72461C90.2959 7.87044 90.0771 8.07096 89.8994 8.32617C89.7262 8.57682 89.5964 8.86621 89.5098 9.19434C89.4232 9.5179 89.3799 9.86198 89.3799 10.2266ZM99.5039 14.1367C98.9889 14.1367 98.5218 14.0501 98.1025 13.877C97.6878 13.6992 97.3301 13.4508 97.0293 13.1318C96.7331 12.8128 96.5052 12.4346 96.3457 11.9971C96.1862 11.5596 96.1064 11.0811 96.1064 10.5615V10.2744C96.1064 9.67285 96.1953 9.13737 96.373 8.66797C96.5508 8.19401 96.7923 7.79297 97.0977 7.46484C97.403 7.13672 97.7493 6.88835 98.1367 6.71973C98.5241 6.55111 98.9251 6.4668 99.3398 6.4668C99.8685 6.4668 100.324 6.55794 100.707 6.74023C101.094 6.92253 101.411 7.17773 101.657 7.50586C101.903 7.82943 102.086 8.21224 102.204 8.6543C102.323 9.0918 102.382 9.57031 102.382 10.0898V10.6572H96.8584V9.625H101.117V9.5293C101.099 9.20117 101.031 8.88216 100.912 8.57227C100.798 8.26237 100.616 8.00716 100.365 7.80664C100.115 7.60612 99.7728 7.50586 99.3398 7.50586C99.0527 7.50586 98.7884 7.56738 98.5469 7.69043C98.3053 7.80892 98.098 7.98665 97.9248 8.22363C97.7516 8.46061 97.6172 8.75 97.5215 9.0918C97.4258 9.43359 97.3779 9.8278 97.3779 10.2744V10.5615C97.3779 10.9124 97.4258 11.2428 97.5215 11.5527C97.6217 11.8581 97.7653 12.127 97.9521 12.3594C98.1436 12.5918 98.3737 12.7741 98.6426 12.9062C98.916 13.0384 99.2259 13.1045 99.5723 13.1045C100.019 13.1045 100.397 13.0133 100.707 12.8311C101.017 12.6488 101.288 12.4049 101.521 12.0996L102.286 12.708C102.127 12.9495 101.924 13.1797 101.678 13.3984C101.432 13.6172 101.129 13.7949 100.769 13.9316C100.413 14.0684 99.9915 14.1367 99.5039 14.1367ZM108.596 8.02539V16.8438H107.324V6.60352H108.486L108.596 8.02539ZM113.579 10.2402V10.3838C113.579 10.9215 113.515 11.4206 113.388 11.8809C113.26 12.3366 113.073 12.7331 112.827 13.0703C112.586 13.4076 112.287 13.6696 111.932 13.8564C111.576 14.0433 111.168 14.1367 110.708 14.1367C110.239 14.1367 109.824 14.0592 109.464 13.9043C109.104 13.7493 108.799 13.5238 108.548 13.2275C108.297 12.9313 108.097 12.5758 107.946 12.1611C107.8 11.7464 107.7 11.2793 107.646 10.7598V9.99414C107.7 9.44727 107.803 8.95736 107.953 8.52441C108.104 8.09147 108.302 7.72233 108.548 7.41699C108.799 7.1071 109.102 6.8724 109.457 6.71289C109.812 6.54883 110.223 6.4668 110.688 6.4668C111.152 6.4668 111.565 6.55794 111.925 6.74023C112.285 6.91797 112.588 7.17318 112.834 7.50586C113.08 7.83854 113.265 8.2373 113.388 8.70215C113.515 9.16243 113.579 9.67513 113.579 10.2402ZM112.308 10.3838V10.2402C112.308 9.87109 112.269 9.52474 112.191 9.20117C112.114 8.87305 111.993 8.58594 111.829 8.33984C111.67 8.08919 111.465 7.89323 111.214 7.75195C110.963 7.60612 110.665 7.5332 110.318 7.5332C109.999 7.5332 109.721 7.58789 109.484 7.69727C109.252 7.80664 109.054 7.95475 108.89 8.1416C108.726 8.32389 108.591 8.53353 108.486 8.77051C108.386 9.00293 108.311 9.24447 108.261 9.49512V11.2656C108.352 11.5846 108.479 11.8854 108.644 12.168C108.808 12.446 109.026 12.6715 109.3 12.8447C109.573 13.0133 109.917 13.0977 110.332 13.0977C110.674 13.0977 110.968 13.027 111.214 12.8857C111.465 12.7399 111.67 12.5417 111.829 12.291C111.993 12.0404 112.114 11.7533 112.191 11.4297C112.269 11.1016 112.308 10.7529 112.308 10.3838ZM118.262 14.1367C117.747 14.1367 117.28 14.0501 116.86 13.877C116.446 13.6992 116.088 13.4508 115.787 13.1318C115.491 12.8128 115.263 12.4346 115.104 11.9971C114.944 11.5596 114.864 11.0811 114.864 10.5615V10.2744C114.864 9.67285 114.953 9.13737 115.131 8.66797C115.309 8.19401 115.55 7.79297 115.855 7.46484C116.161 7.13672 116.507 6.88835 116.895 6.71973C117.282 6.55111 117.683 6.4668 118.098 6.4668C118.626 6.4668 119.082 6.55794 119.465 6.74023C119.852 6.92253 120.169 7.17773 120.415 7.50586C120.661 7.82943 120.843 8.21224 120.962 8.6543C121.08 9.0918 121.14 9.57031 121.14 10.0898V10.6572H115.616V9.625H119.875V9.5293C119.857 9.20117 119.788 8.88216 119.67 8.57227C119.556 8.26237 119.374 8.00716 119.123 7.80664C118.872 7.60612 118.531 7.50586 118.098 7.50586C117.811 7.50586 117.546 7.56738 117.305 7.69043C117.063 7.80892 116.856 7.98665 116.683 8.22363C116.509 8.46061 116.375 8.75 116.279 9.0918C116.184 9.43359 116.136 9.8278 116.136 10.2744V10.5615C116.136 10.9124 116.184 11.2428 116.279 11.5527C116.38 11.8581 116.523 12.127 116.71 12.3594C116.901 12.5918 117.132 12.7741 117.4 12.9062C117.674 13.0384 117.984 13.1045 118.33 13.1045C118.777 13.1045 119.155 13.0133 119.465 12.8311C119.775 12.6488 120.046 12.4049 120.278 12.0996L121.044 12.708C120.884 12.9495 120.682 13.1797 120.436 13.3984C120.189 13.6172 119.886 13.7949 119.526 13.9316C119.171 14.0684 118.749 14.1367 118.262 14.1367ZM122.726 6.60352H123.99V12.9609H126.697V6.60352H127.969V12.9609H130.669V6.60352H131.934V14H122.726V6.60352ZM137.02 14.1367C136.505 14.1367 136.037 14.0501 135.618 13.877C135.203 13.6992 134.846 13.4508 134.545 13.1318C134.249 12.8128 134.021 12.4346 133.861 11.9971C133.702 11.5596 133.622 11.0811 133.622 10.5615V10.2744C133.622 9.67285 133.711 9.13737 133.889 8.66797C134.066 8.19401 134.308 7.79297 134.613 7.46484C134.919 7.13672 135.265 6.88835 135.652 6.71973C136.04 6.55111 136.441 6.4668 136.855 6.4668C137.384 6.4668 137.84 6.55794 138.223 6.74023C138.61 6.92253 138.927 7.17773 139.173 7.50586C139.419 7.82943 139.601 8.21224 139.72 8.6543C139.838 9.0918 139.897 9.57031 139.897 10.0898V10.6572H134.374V9.625H138.633V9.5293C138.615 9.20117 138.546 8.88216 138.428 8.57227C138.314 8.26237 138.132 8.00716 137.881 7.80664C137.63 7.60612 137.288 7.50586 136.855 7.50586C136.568 7.50586 136.304 7.56738 136.062 7.69043C135.821 7.80892 135.614 7.98665 135.44 8.22363C135.267 8.46061 135.133 8.75 135.037 9.0918C134.941 9.43359 134.894 9.8278 134.894 10.2744V10.5615C134.894 10.9124 134.941 11.2428 135.037 11.5527C135.137 11.8581 135.281 12.127 135.468 12.3594C135.659 12.5918 135.889 12.7741 136.158 12.9062C136.432 13.0384 136.742 13.1045 137.088 13.1045C137.535 13.1045 137.913 13.0133 138.223 12.8311C138.533 12.6488 138.804 12.4049 139.036 12.0996L139.802 12.708C139.642 12.9495 139.439 13.1797 139.193 13.3984C138.947 13.6172 138.644 13.7949 138.284 13.9316C137.929 14.0684 137.507 14.1367 137.02 14.1367ZM146.392 9.80957V10.835H142.481V9.80957H146.392ZM142.748 6.60352V14H141.483V6.60352H142.748ZM147.417 6.60352V14H146.146V6.60352H147.417ZM150.821 11.9971L154.232 6.60352H155.504V14H154.232V8.60645L150.821 14H149.563V6.60352H150.821V11.9971ZM160.604 14.1367C160.089 14.1367 159.621 14.0501 159.202 13.877C158.787 13.6992 158.43 13.4508 158.129 13.1318C157.833 12.8128 157.605 12.4346 157.445 11.9971C157.286 11.5596 157.206 11.0811 157.206 10.5615V10.2744C157.206 9.67285 157.295 9.13737 157.473 8.66797C157.65 8.19401 157.892 7.79297 158.197 7.46484C158.503 7.13672 158.849 6.88835 159.236 6.71973C159.624 6.55111 160.025 6.4668 160.439 6.4668C160.968 6.4668 161.424 6.55794 161.807 6.74023C162.194 6.92253 162.511 7.17773 162.757 7.50586C163.003 7.82943 163.185 8.21224 163.304 8.6543C163.422 9.0918 163.481 9.57031 163.481 10.0898V10.6572H157.958V9.625H162.217V9.5293C162.199 9.20117 162.13 8.88216 162.012 8.57227C161.898 8.26237 161.715 8.00716 161.465 7.80664C161.214 7.60612 160.872 7.50586 160.439 7.50586C160.152 7.50586 159.888 7.56738 159.646 7.69043C159.405 7.80892 159.198 7.98665 159.024 8.22363C158.851 8.46061 158.717 8.75 158.621 9.0918C158.525 9.43359 158.478 9.8278 158.478 10.2744V10.5615C158.478 10.9124 158.525 11.2428 158.621 11.5527C158.721 11.8581 158.865 12.127 159.052 12.3594C159.243 12.5918 159.473 12.7741 159.742 12.9062C160.016 13.0384 160.326 13.1045 160.672 13.1045C161.118 13.1045 161.497 13.0133 161.807 12.8311C162.117 12.6488 162.388 12.4049 162.62 12.0996L163.386 12.708C163.226 12.9495 163.023 13.1797 162.777 13.3984C162.531 13.6172 162.228 13.7949 161.868 13.9316C161.513 14.0684 161.091 14.1367 160.604 14.1367ZM164.746 7.29395C164.746 7.07975 164.812 6.89974 164.944 6.75391C165.081 6.60352 165.277 6.52832 165.532 6.52832C165.787 6.52832 165.981 6.60352 166.113 6.75391C166.25 6.89974 166.318 7.07975 166.318 7.29395C166.318 7.50358 166.25 7.68132 166.113 7.82715C165.981 7.97298 165.787 8.0459 165.532 8.0459C165.277 8.0459 165.081 7.97298 164.944 7.82715C164.812 7.68132 164.746 7.50358 164.746 7.29395ZM166.188 12.4961V13.5146C166.188 13.9294 166.084 14.3669 165.874 14.8271C165.664 15.292 165.37 15.6794 164.992 15.9893L164.274 15.4902C164.42 15.2897 164.543 15.0846 164.644 14.875C164.744 14.6699 164.819 14.4557 164.869 14.2324C164.924 14.0137 164.951 13.7812 164.951 13.5352V12.4961H166.188Z" fill="#303030" fill-opacity="0.9"/>
</svg>
