<svg width="261" height="18" viewBox="0 0 261 18" fill="none" xmlns="http://www.w3.org/2000/svg">
<path d="M4.43652 10.7461H2.00977L1.99609 9.73438H3.97852C4.37044 9.73438 4.69629 9.69564 4.95605 9.61816C5.22038 9.54069 5.41862 9.42448 5.55078 9.26953C5.68294 9.11458 5.74902 8.92318 5.74902 8.69531C5.74902 8.51758 5.71029 8.36263 5.63281 8.23047C5.5599 8.09375 5.44824 7.9821 5.29785 7.89551C5.14746 7.80436 4.96061 7.73828 4.7373 7.69727C4.51855 7.65169 4.26107 7.62891 3.96484 7.62891H2.34473V14H1.08008V6.60352H3.96484C4.43424 6.60352 4.85579 6.64453 5.22949 6.72656C5.60775 6.80859 5.92904 6.93392 6.19336 7.10254C6.46224 7.2666 6.66732 7.47624 6.80859 7.73145C6.94987 7.98665 7.02051 8.28743 7.02051 8.63379C7.02051 8.8571 6.97493 9.06901 6.88379 9.26953C6.79264 9.47005 6.6582 9.64779 6.48047 9.80273C6.30273 9.95768 6.08398 10.0853 5.82422 10.1855C5.56445 10.2812 5.26595 10.3428 4.92871 10.3701L4.43652 10.7461ZM4.43652 14H1.55176L2.18066 12.9746H4.43652C4.78743 12.9746 5.0791 12.9313 5.31152 12.8447C5.54395 12.7536 5.71712 12.626 5.83105 12.4619C5.94954 12.2933 6.00879 12.0928 6.00879 11.8604C6.00879 11.6279 5.94954 11.4297 5.83105 11.2656C5.71712 11.097 5.54395 10.9694 5.31152 10.8828C5.0791 10.7917 4.78743 10.7461 4.43652 10.7461H2.51562L2.5293 9.73438H4.92871L5.38672 10.1172C5.79232 10.1491 6.13639 10.2493 6.41895 10.418C6.7015 10.5866 6.91569 10.8008 7.06152 11.0605C7.20736 11.3158 7.28027 11.5938 7.28027 11.8945C7.28027 12.2409 7.21419 12.5462 7.08203 12.8105C6.95443 13.0749 6.76758 13.2959 6.52148 13.4736C6.27539 13.6468 5.97689 13.779 5.62598 13.8701C5.27507 13.9567 4.87858 14 4.43652 14ZM12.0449 14.1367C11.5299 14.1367 11.0628 14.0501 10.6436 13.877C10.2288 13.6992 9.87109 13.4508 9.57031 13.1318C9.27409 12.8128 9.04622 12.4346 8.88672 11.9971C8.72721 11.5596 8.64746 11.0811 8.64746 10.5615V10.2744C8.64746 9.67285 8.73633 9.13737 8.91406 8.66797C9.0918 8.19401 9.33333 7.79297 9.63867 7.46484C9.94401 7.13672 10.2904 6.88835 10.6777 6.71973C11.0651 6.55111 11.4661 6.4668 11.8809 6.4668C12.4095 6.4668 12.8652 6.55794 13.248 6.74023C13.6354 6.92253 13.9521 7.17773 14.1982 7.50586C14.4443 7.82943 14.6266 8.21224 14.7451 8.6543C14.8636 9.0918 14.9229 9.57031 14.9229 10.0898V10.6572H9.39941V9.625H13.6582V9.5293C13.64 9.20117 13.5716 8.88216 13.4531 8.57227C13.3392 8.26237 13.1569 8.00716 12.9062 7.80664C12.6556 7.60612 12.3138 7.50586 11.8809 7.50586C11.5938 7.50586 11.3294 7.56738 11.0879 7.69043C10.8464 7.80892 10.639 7.98665 10.4658 8.22363C10.2926 8.46061 10.1582 8.75 10.0625 9.0918C9.9668 9.43359 9.91895 9.8278 9.91895 10.2744V10.5615C9.91895 10.9124 9.9668 11.2428 10.0625 11.5527C10.1628 11.8581 10.3063 12.127 10.4932 12.3594C10.6846 12.5918 10.9147 12.7741 11.1836 12.9062C11.457 13.0384 11.7669 13.1045 12.1133 13.1045C12.5599 13.1045 12.9382 13.0133 13.248 12.8311C13.5579 12.6488 13.8291 12.4049 14.0615 12.0996L14.8271 12.708C14.6676 12.9495 14.4648 13.1797 14.2188 13.3984C13.9727 13.6172 13.6696 13.7949 13.3096 13.9316C12.9541 14.0684 12.5326 14.1367 12.0449 14.1367ZM17.7324 6.60352H18.9971L18.8877 9.37207C18.8604 10.0739 18.7806 10.68 18.6484 11.1904C18.5163 11.7008 18.3477 12.1361 18.1426 12.4961C17.9375 12.8516 17.7074 13.1501 17.4521 13.3916C17.2015 13.6331 16.9417 13.8359 16.6729 14H16.0439L16.0781 12.9678L16.3379 12.9609C16.4883 12.7832 16.6341 12.6009 16.7754 12.4141C16.9167 12.2227 17.0465 11.9971 17.165 11.7373C17.2835 11.473 17.3815 11.1517 17.459 10.7734C17.541 10.3906 17.5934 9.9235 17.6162 9.37207L17.7324 6.60352ZM18.0469 6.60352H22.4971V14H21.2324V7.77246H18.0469V6.60352ZM15.7568 12.9609H23.4473V16.1807H22.1826V14H17.0215V16.1807H15.75L15.7568 12.9609ZM24.5137 10.3838V10.2266C24.5137 9.69336 24.5911 9.19889 24.7461 8.74316C24.901 8.28288 25.1243 7.88411 25.416 7.54688C25.7077 7.20508 26.0609 6.94076 26.4756 6.75391C26.8903 6.5625 27.3551 6.4668 27.8701 6.4668C28.3896 6.4668 28.8568 6.5625 29.2715 6.75391C29.6908 6.94076 30.0462 7.20508 30.3379 7.54688C30.6341 7.88411 30.8597 8.28288 31.0146 8.74316C31.1696 9.19889 31.2471 9.69336 31.2471 10.2266V10.3838C31.2471 10.917 31.1696 11.4115 31.0146 11.8672C30.8597 12.3229 30.6341 12.7217 30.3379 13.0635C30.0462 13.4007 29.693 13.665 29.2783 13.8564C28.8682 14.0433 28.4033 14.1367 27.8838 14.1367C27.3643 14.1367 26.8971 14.0433 26.4824 13.8564C26.0677 13.665 25.7122 13.4007 25.416 13.0635C25.1243 12.7217 24.901 12.3229 24.7461 11.8672C24.5911 11.4115 24.5137 10.917 24.5137 10.3838ZM25.7783 10.2266V10.3838C25.7783 10.7529 25.8216 11.1016 25.9082 11.4297C25.9948 11.7533 26.1247 12.0404 26.2979 12.291C26.4756 12.5417 26.6966 12.7399 26.9609 12.8857C27.2253 13.027 27.5329 13.0977 27.8838 13.0977C28.2301 13.0977 28.5332 13.027 28.793 12.8857C29.0573 12.7399 29.276 12.5417 29.4492 12.291C29.6224 12.0404 29.7523 11.7533 29.8389 11.4297C29.93 11.1016 29.9756 10.7529 29.9756 10.3838V10.2266C29.9756 9.86198 29.93 9.5179 29.8389 9.19434C29.7523 8.86621 29.6201 8.57682 29.4424 8.32617C29.2692 8.07096 29.0505 7.87044 28.7861 7.72461C28.5264 7.57878 28.221 7.50586 27.8701 7.50586C27.5238 7.50586 27.2184 7.57878 26.9541 7.72461C26.6943 7.87044 26.4756 8.07096 26.2979 8.32617C26.1247 8.57682 25.9948 8.86621 25.9082 9.19434C25.8216 9.5179 25.7783 9.86198 25.7783 10.2266ZM37.085 12.3184L39.6006 6.60352H40.8174L37.5225 14H36.6475L33.3662 6.60352H34.583L37.085 12.3184ZM34.2139 6.60352V14H32.9492V6.60352H34.2139ZM39.915 14V6.60352H41.1865V14H39.915ZM42.8887 10.3838V10.2266C42.8887 9.69336 42.9661 9.19889 43.1211 8.74316C43.276 8.28288 43.4993 7.88411 43.791 7.54688C44.0827 7.20508 44.4359 6.94076 44.8506 6.75391C45.2653 6.5625 45.7301 6.4668 46.2451 6.4668C46.7646 6.4668 47.2318 6.5625 47.6465 6.75391C48.0658 6.94076 48.4212 7.20508 48.7129 7.54688C49.0091 7.88411 49.2347 8.28288 49.3896 8.74316C49.5446 9.19889 49.6221 9.69336 49.6221 10.2266V10.3838C49.6221 10.917 49.5446 11.4115 49.3896 11.8672C49.2347 12.3229 49.0091 12.7217 48.7129 13.0635C48.4212 13.4007 48.068 13.665 47.6533 13.8564C47.2432 14.0433 46.7783 14.1367 46.2588 14.1367C45.7393 14.1367 45.2721 14.0433 44.8574 13.8564C44.4427 13.665 44.0872 13.4007 43.791 13.0635C43.4993 12.7217 43.276 12.3229 43.1211 11.8672C42.9661 11.4115 42.8887 10.917 42.8887 10.3838ZM44.1533 10.2266V10.3838C44.1533 10.7529 44.1966 11.1016 44.2832 11.4297C44.3698 11.7533 44.4997 12.0404 44.6729 12.291C44.8506 12.5417 45.0716 12.7399 45.3359 12.8857C45.6003 13.027 45.9079 13.0977 46.2588 13.0977C46.6051 13.0977 46.9082 13.027 47.168 12.8857C47.4323 12.7399 47.651 12.5417 47.8242 12.291C47.9974 12.0404 48.1273 11.7533 48.2139 11.4297C48.305 11.1016 48.3506 10.7529 48.3506 10.3838V10.2266C48.3506 9.86198 48.305 9.5179 48.2139 9.19434C48.1273 8.86621 47.9951 8.57682 47.8174 8.32617C47.6442 8.07096 47.4255 7.87044 47.1611 7.72461C46.9014 7.57878 46.596 7.50586 46.2451 7.50586C45.8988 7.50586 45.5934 7.57878 45.3291 7.72461C45.0693 7.87044 44.8506 8.07096 44.6729 8.32617C44.4997 8.57682 44.3698 8.86621 44.2832 9.19434C44.1966 9.5179 44.1533 9.86198 44.1533 10.2266ZM54.168 13.0977C54.4688 13.0977 54.7467 13.0361 55.002 12.9131C55.2572 12.79 55.4668 12.6214 55.6309 12.4072C55.7949 12.1885 55.8883 11.9401 55.9111 11.6621H57.1143C57.0915 12.0996 56.9434 12.5075 56.6699 12.8857C56.401 13.2594 56.0479 13.5625 55.6104 13.7949C55.1729 14.0228 54.6921 14.1367 54.168 14.1367C53.612 14.1367 53.1266 14.0387 52.7119 13.8428C52.3018 13.6468 51.96 13.3779 51.6865 13.0361C51.4176 12.6943 51.2148 12.3024 51.0781 11.8604C50.946 11.4137 50.8799 10.9421 50.8799 10.4453V10.1582C50.8799 9.66146 50.946 9.19206 51.0781 8.75C51.2148 8.30339 51.4176 7.90918 51.6865 7.56738C51.96 7.22559 52.3018 6.95671 52.7119 6.76074C53.1266 6.56478 53.612 6.4668 54.168 6.4668C54.7467 6.4668 55.2526 6.58529 55.6855 6.82227C56.1185 7.05469 56.458 7.3737 56.7041 7.7793C56.9548 8.18034 57.0915 8.63607 57.1143 9.14648H55.9111C55.8883 8.84115 55.8018 8.56543 55.6514 8.31934C55.5055 8.07324 55.305 7.87728 55.0498 7.73145C54.7992 7.58105 54.5052 7.50586 54.168 7.50586C53.7806 7.50586 53.4548 7.58333 53.1904 7.73828C52.9307 7.88867 52.7233 8.09375 52.5684 8.35352C52.418 8.60872 52.3086 8.89355 52.2402 9.20801C52.1764 9.5179 52.1445 9.83464 52.1445 10.1582V10.4453C52.1445 10.7689 52.1764 11.0879 52.2402 11.4023C52.304 11.7168 52.4111 12.0016 52.5615 12.2568C52.7165 12.512 52.9238 12.7171 53.1836 12.8721C53.4479 13.0225 53.776 13.0977 54.168 13.0977ZM61.5508 6.60352V14H60.2793V6.60352H61.5508ZM64.0322 6.60352V7.62891H57.8457V6.60352H64.0322ZM66.3154 9.14648H68.5371C69.1341 9.14648 69.6377 9.2513 70.0479 9.46094C70.458 9.66602 70.7679 9.95085 70.9775 10.3154C71.1917 10.6755 71.2988 11.0856 71.2988 11.5459C71.2988 11.8877 71.2396 12.209 71.1211 12.5098C71.0026 12.806 70.8249 13.0658 70.5879 13.2891C70.3555 13.5124 70.0661 13.6878 69.7197 13.8154C69.3779 13.9385 68.9837 14 68.5371 14H65.3926V6.60352H66.6572V12.9609H68.5371C68.9017 12.9609 69.1934 12.8949 69.4121 12.7627C69.6309 12.6305 69.7881 12.4596 69.8838 12.25C69.9795 12.0404 70.0273 11.8216 70.0273 11.5938C70.0273 11.3704 69.9795 11.1517 69.8838 10.9375C69.7881 10.7233 69.6309 10.5456 69.4121 10.4043C69.1934 10.2585 68.9017 10.1855 68.5371 10.1855H66.3154V9.14648ZM77.6836 6.60352H78.9482L78.8389 9.37207C78.8115 10.0739 78.7318 10.68 78.5996 11.1904C78.4674 11.7008 78.2988 12.1361 78.0938 12.4961C77.8887 12.8516 77.6585 13.1501 77.4033 13.3916C77.1527 13.6331 76.8929 13.8359 76.624 14H75.9951L76.0293 12.9678L76.2891 12.9609C76.4395 12.7832 76.5853 12.6009 76.7266 12.4141C76.8678 12.2227 76.9977 11.9971 77.1162 11.7373C77.2347 11.473 77.3327 11.1517 77.4102 10.7734C77.4922 10.3906 77.5446 9.9235 77.5674 9.37207L77.6836 6.60352ZM77.998 6.60352H82.4482V14H81.1836V7.77246H77.998V6.60352ZM75.708 12.9609H83.3984V16.1807H82.1338V14H76.9727V16.1807H75.7012L75.708 12.9609ZM88.2725 10.7461H85.8457L85.832 9.73438H87.8145C88.2064 9.73438 88.5322 9.69564 88.792 9.61816C89.0563 9.54069 89.2546 9.42448 89.3867 9.26953C89.5189 9.11458 89.585 8.92318 89.585 8.69531C89.585 8.51758 89.5462 8.36263 89.4688 8.23047C89.3958 8.09375 89.2842 7.9821 89.1338 7.89551C88.9834 7.80436 88.7965 7.73828 88.5732 7.69727C88.3545 7.65169 88.097 7.62891 87.8008 7.62891H86.1807V14H84.916V6.60352H87.8008C88.2702 6.60352 88.6917 6.64453 89.0654 6.72656C89.4437 6.80859 89.765 6.93392 90.0293 7.10254C90.2982 7.2666 90.5033 7.47624 90.6445 7.73145C90.7858 7.98665 90.8564 8.28743 90.8564 8.63379C90.8564 8.8571 90.8109 9.06901 90.7197 9.26953C90.6286 9.47005 90.4941 9.64779 90.3164 9.80273C90.1387 9.95768 89.9199 10.0853 89.6602 10.1855C89.4004 10.2812 89.1019 10.3428 88.7646 10.3701L88.2725 10.7461ZM88.2725 14H85.3877L86.0166 12.9746H88.2725C88.6234 12.9746 88.915 12.9313 89.1475 12.8447C89.3799 12.7536 89.5531 12.626 89.667 12.4619C89.7855 12.2933 89.8447 12.0928 89.8447 11.8604C89.8447 11.6279 89.7855 11.4297 89.667 11.2656C89.5531 11.097 89.3799 10.9694 89.1475 10.8828C88.915 10.7917 88.6234 10.7461 88.2725 10.7461H86.3516L86.3652 9.73438H88.7646L89.2227 10.1172C89.6283 10.1491 89.9723 10.2493 90.2549 10.418C90.5374 10.5866 90.7516 10.8008 90.8975 11.0605C91.0433 11.3158 91.1162 11.5938 91.1162 11.8945C91.1162 12.2409 91.0501 12.5462 90.918 12.8105C90.7904 13.0749 90.6035 13.2959 90.3574 13.4736C90.1113 13.6468 89.8128 13.779 89.4619 13.8701C89.111 13.9567 88.7145 14 88.2725 14ZM95.8809 14.1367C95.3659 14.1367 94.8988 14.0501 94.4795 13.877C94.0648 13.6992 93.707 13.4508 93.4062 13.1318C93.11 12.8128 92.8822 12.4346 92.7227 11.9971C92.5632 11.5596 92.4834 11.0811 92.4834 10.5615V10.2744C92.4834 9.67285 92.5723 9.13737 92.75 8.66797C92.9277 8.19401 93.1693 7.79297 93.4746 7.46484C93.7799 7.13672 94.1263 6.88835 94.5137 6.71973C94.901 6.55111 95.3021 6.4668 95.7168 6.4668C96.2454 6.4668 96.7012 6.55794 97.084 6.74023C97.4714 6.92253 97.7881 7.17773 98.0342 7.50586C98.2803 7.82943 98.4626 8.21224 98.5811 8.6543C98.6995 9.0918 98.7588 9.57031 98.7588 10.0898V10.6572H93.2354V9.625H97.4941V9.5293C97.4759 9.20117 97.4076 8.88216 97.2891 8.57227C97.1751 8.26237 96.9928 8.00716 96.7422 7.80664C96.4915 7.60612 96.1497 7.50586 95.7168 7.50586C95.4297 7.50586 95.1654 7.56738 94.9238 7.69043C94.6823 7.80892 94.4749 7.98665 94.3018 8.22363C94.1286 8.46061 93.9941 8.75 93.8984 9.0918C93.8027 9.43359 93.7549 9.8278 93.7549 10.2744V10.5615C93.7549 10.9124 93.8027 11.2428 93.8984 11.5527C93.9987 11.8581 94.1423 12.127 94.3291 12.3594C94.5205 12.5918 94.7507 12.7741 95.0195 12.9062C95.293 13.0384 95.6029 13.1045 95.9492 13.1045C96.3958 13.1045 96.7741 13.0133 97.084 12.8311C97.3939 12.6488 97.665 12.4049 97.8975 12.0996L98.6631 12.708C98.5036 12.9495 98.3008 13.1797 98.0547 13.3984C97.8086 13.6172 97.5055 13.7949 97.1455 13.9316C96.79 14.0684 96.3685 14.1367 95.8809 14.1367ZM101.5 8.02539V16.8438H100.229V6.60352H101.391L101.5 8.02539ZM106.483 10.2402V10.3838C106.483 10.9215 106.42 11.4206 106.292 11.8809C106.164 12.3366 105.978 12.7331 105.731 13.0703C105.49 13.4076 105.191 13.6696 104.836 13.8564C104.48 14.0433 104.073 14.1367 103.612 14.1367C103.143 14.1367 102.728 14.0592 102.368 13.9043C102.008 13.7493 101.703 13.5238 101.452 13.2275C101.201 12.9313 101.001 12.5758 100.851 12.1611C100.705 11.7464 100.604 11.2793 100.55 10.7598V9.99414C100.604 9.44727 100.707 8.95736 100.857 8.52441C101.008 8.09147 101.206 7.72233 101.452 7.41699C101.703 7.1071 102.006 6.8724 102.361 6.71289C102.717 6.54883 103.127 6.4668 103.592 6.4668C104.057 6.4668 104.469 6.55794 104.829 6.74023C105.189 6.91797 105.492 7.17318 105.738 7.50586C105.984 7.83854 106.169 8.2373 106.292 8.70215C106.42 9.16243 106.483 9.67513 106.483 10.2402ZM105.212 10.3838V10.2402C105.212 9.87109 105.173 9.52474 105.096 9.20117C105.018 8.87305 104.897 8.58594 104.733 8.33984C104.574 8.08919 104.369 7.89323 104.118 7.75195C103.868 7.60612 103.569 7.5332 103.223 7.5332C102.904 7.5332 102.626 7.58789 102.389 7.69727C102.156 7.80664 101.958 7.95475 101.794 8.1416C101.63 8.32389 101.495 8.53353 101.391 8.77051C101.29 9.00293 101.215 9.24447 101.165 9.49512V11.2656C101.256 11.5846 101.384 11.8854 101.548 12.168C101.712 12.446 101.931 12.6715 102.204 12.8447C102.478 13.0133 102.822 13.0977 103.236 13.0977C103.578 13.0977 103.872 13.027 104.118 12.8857C104.369 12.7399 104.574 12.5417 104.733 12.291C104.897 12.0404 105.018 11.7533 105.096 11.4297C105.173 11.1016 105.212 10.7529 105.212 10.3838ZM113.114 9.80957V10.835H109.204V9.80957H113.114ZM109.471 6.60352V14H108.206V6.60352H109.471ZM114.14 6.60352V14H112.868V6.60352H114.14ZM117.216 9.14648H119.438C120.035 9.14648 120.538 9.2513 120.948 9.46094C121.358 9.66602 121.668 9.95085 121.878 10.3154C122.092 10.6755 122.199 11.0856 122.199 11.5459C122.199 11.8877 122.14 12.209 122.021 12.5098C121.903 12.806 121.725 13.0658 121.488 13.2891C121.256 13.5124 120.966 13.6878 120.62 13.8154C120.278 13.9385 119.884 14 119.438 14H116.293V6.60352H117.558V12.9609H119.438C119.802 12.9609 120.094 12.8949 120.312 12.7627C120.531 12.6305 120.688 12.4596 120.784 12.25C120.88 12.0404 120.928 11.8216 120.928 11.5938C120.928 11.3704 120.88 11.1517 120.784 10.9375C120.688 10.7233 120.531 10.5456 120.312 10.4043C120.094 10.2585 119.802 10.1855 119.438 10.1855H117.216V9.14648ZM124.831 6.60352V14H123.566V6.60352H124.831ZM127.9 6.60352L129.521 9.29688L131.161 6.60352H132.645L130.225 10.2539L132.72 14H131.257L129.548 11.2246L127.839 14H126.369L128.857 10.2539L126.444 6.60352H127.9ZM137.129 10.3838V10.2266C137.129 9.69336 137.206 9.19889 137.361 8.74316C137.516 8.28288 137.74 7.88411 138.031 7.54688C138.323 7.20508 138.676 6.94076 139.091 6.75391C139.506 6.5625 139.97 6.4668 140.485 6.4668C141.005 6.4668 141.472 6.5625 141.887 6.75391C142.306 6.94076 142.661 7.20508 142.953 7.54688C143.249 7.88411 143.475 8.28288 143.63 8.74316C143.785 9.19889 143.862 9.69336 143.862 10.2266V10.3838C143.862 10.917 143.785 11.4115 143.63 11.8672C143.475 12.3229 143.249 12.7217 142.953 13.0635C142.661 13.4007 142.308 13.665 141.894 13.8564C141.483 14.0433 141.019 14.1367 140.499 14.1367C139.979 14.1367 139.512 14.0433 139.098 13.8564C138.683 13.665 138.327 13.4007 138.031 13.0635C137.74 12.7217 137.516 12.3229 137.361 11.8672C137.206 11.4115 137.129 10.917 137.129 10.3838ZM138.394 10.2266V10.3838C138.394 10.7529 138.437 11.1016 138.523 11.4297C138.61 11.7533 138.74 12.0404 138.913 12.291C139.091 12.5417 139.312 12.7399 139.576 12.8857C139.84 13.027 140.148 13.0977 140.499 13.0977C140.845 13.0977 141.148 13.027 141.408 12.8857C141.673 12.7399 141.891 12.5417 142.064 12.291C142.238 12.0404 142.368 11.7533 142.454 11.4297C142.545 11.1016 142.591 10.7529 142.591 10.3838V10.2266C142.591 9.86198 142.545 9.5179 142.454 9.19434C142.368 8.86621 142.235 8.57682 142.058 8.32617C141.884 8.07096 141.666 7.87044 141.401 7.72461C141.142 7.57878 140.836 7.50586 140.485 7.50586C140.139 7.50586 139.834 7.57878 139.569 7.72461C139.31 7.87044 139.091 8.07096 138.913 8.32617C138.74 8.57682 138.61 8.86621 138.523 9.19434C138.437 9.5179 138.394 9.86198 138.394 10.2266ZM146.822 6.60352V14H145.558V6.60352H146.822ZM151.676 6.60352L148.169 10.8418H146.398L146.207 9.73438H147.656L150.138 6.60352H151.676ZM150.315 14L147.595 10.6504L148.408 9.73438L151.922 14H150.315ZM152.537 10.3838V10.2266C152.537 9.69336 152.615 9.19889 152.77 8.74316C152.924 8.28288 153.148 7.88411 153.439 7.54688C153.731 7.20508 154.084 6.94076 154.499 6.75391C154.914 6.5625 155.379 6.4668 155.894 6.4668C156.413 6.4668 156.88 6.5625 157.295 6.75391C157.714 6.94076 158.07 7.20508 158.361 7.54688C158.658 7.88411 158.883 8.28288 159.038 8.74316C159.193 9.19889 159.271 9.69336 159.271 10.2266V10.3838C159.271 10.917 159.193 11.4115 159.038 11.8672C158.883 12.3229 158.658 12.7217 158.361 13.0635C158.07 13.4007 157.716 13.665 157.302 13.8564C156.892 14.0433 156.427 14.1367 155.907 14.1367C155.388 14.1367 154.921 14.0433 154.506 13.8564C154.091 13.665 153.736 13.4007 153.439 13.0635C153.148 12.7217 152.924 12.3229 152.77 11.8672C152.615 11.4115 152.537 10.917 152.537 10.3838ZM153.802 10.2266V10.3838C153.802 10.7529 153.845 11.1016 153.932 11.4297C154.018 11.7533 154.148 12.0404 154.321 12.291C154.499 12.5417 154.72 12.7399 154.984 12.8857C155.249 13.027 155.556 13.0977 155.907 13.0977C156.254 13.0977 156.557 13.027 156.816 12.8857C157.081 12.7399 157.299 12.5417 157.473 12.291C157.646 12.0404 157.776 11.7533 157.862 11.4297C157.953 11.1016 157.999 10.7529 157.999 10.3838V10.2266C157.999 9.86198 157.953 9.5179 157.862 9.19434C157.776 8.86621 157.644 8.57682 157.466 8.32617C157.293 8.07096 157.074 7.87044 156.81 7.72461C156.55 7.57878 156.244 7.50586 155.894 7.50586C155.547 7.50586 155.242 7.57878 154.978 7.72461C154.718 7.87044 154.499 8.07096 154.321 8.32617C154.148 8.57682 154.018 8.86621 153.932 9.19434C153.845 9.5179 153.802 9.86198 153.802 10.2266ZM165.874 9.80957V10.835H161.964V9.80957H165.874ZM162.23 6.60352V14H160.966V6.60352H162.23ZM166.899 6.60352V14H165.628V6.60352H166.899ZM173.954 9.80957V10.835H170.044V9.80957H173.954ZM170.311 6.60352V14H169.046V6.60352H170.311ZM174.979 6.60352V14H173.708V6.60352H174.979ZM178.056 9.14648H180.277C180.874 9.14648 181.378 9.2513 181.788 9.46094C182.198 9.66602 182.508 9.95085 182.718 10.3154C182.932 10.6755 183.039 11.0856 183.039 11.5459C183.039 11.8877 182.98 12.209 182.861 12.5098C182.743 12.806 182.565 13.0658 182.328 13.2891C182.096 13.5124 181.806 13.6878 181.46 13.8154C181.118 13.9385 180.724 14 180.277 14H177.133V6.60352H178.397V12.9609H180.277C180.642 12.9609 180.934 12.8949 181.152 12.7627C181.371 12.6305 181.528 12.4596 181.624 12.25C181.72 12.0404 181.768 11.8216 181.768 11.5938C181.768 11.3704 181.72 11.1517 181.624 10.9375C181.528 10.7233 181.371 10.5456 181.152 10.4043C180.934 10.2585 180.642 10.1855 180.277 10.1855H178.056V9.14648ZM185.671 6.60352V14H184.406V6.60352H185.671ZM188.74 6.60352L190.36 9.29688L192.001 6.60352H193.484L191.064 10.2539L193.56 14H192.097L190.388 11.2246L188.679 14H187.209L189.697 10.2539L187.284 6.60352H188.74ZM203.232 6.60352V7.64941H199.493V6.60352H203.232ZM199.678 6.60352V14H198.413V6.60352H199.678ZM204.354 6.60352V14H203.082V6.60352H204.354ZM207.648 8.02539V16.8438H206.377V6.60352H207.539L207.648 8.02539ZM212.632 10.2402V10.3838C212.632 10.9215 212.568 11.4206 212.44 11.8809C212.313 12.3366 212.126 12.7331 211.88 13.0703C211.638 13.4076 211.34 13.6696 210.984 13.8564C210.629 14.0433 210.221 14.1367 209.761 14.1367C209.291 14.1367 208.877 14.0592 208.517 13.9043C208.157 13.7493 207.851 13.5238 207.601 13.2275C207.35 12.9313 207.149 12.5758 206.999 12.1611C206.853 11.7464 206.753 11.2793 206.698 10.7598V9.99414C206.753 9.44727 206.855 8.95736 207.006 8.52441C207.156 8.09147 207.354 7.72233 207.601 7.41699C207.851 7.1071 208.154 6.8724 208.51 6.71289C208.865 6.54883 209.275 6.4668 209.74 6.4668C210.205 6.4668 210.618 6.55794 210.978 6.74023C211.338 6.91797 211.641 7.17318 211.887 7.50586C212.133 7.83854 212.317 8.2373 212.44 8.70215C212.568 9.16243 212.632 9.67513 212.632 10.2402ZM211.36 10.3838V10.2402C211.36 9.87109 211.322 9.52474 211.244 9.20117C211.167 8.87305 211.046 8.58594 210.882 8.33984C210.722 8.08919 210.517 7.89323 210.267 7.75195C210.016 7.60612 209.717 7.5332 209.371 7.5332C209.052 7.5332 208.774 7.58789 208.537 7.69727C208.305 7.80664 208.106 7.95475 207.942 8.1416C207.778 8.32389 207.644 8.53353 207.539 8.77051C207.439 9.00293 207.364 9.24447 207.313 9.49512V11.2656C207.405 11.5846 207.532 11.8854 207.696 12.168C207.86 12.446 208.079 12.6715 208.353 12.8447C208.626 13.0133 208.97 13.0977 209.385 13.0977C209.727 13.0977 210.021 13.027 210.267 12.8857C210.517 12.7399 210.722 12.5417 210.882 12.291C211.046 12.0404 211.167 11.7533 211.244 11.4297C211.322 11.1016 211.36 10.7529 211.36 10.3838ZM213.91 10.3838V10.2266C213.91 9.69336 213.988 9.19889 214.143 8.74316C214.298 8.28288 214.521 7.88411 214.812 7.54688C215.104 7.20508 215.457 6.94076 215.872 6.75391C216.287 6.5625 216.752 6.4668 217.267 6.4668C217.786 6.4668 218.253 6.5625 218.668 6.75391C219.087 6.94076 219.443 7.20508 219.734 7.54688C220.031 7.88411 220.256 8.28288 220.411 8.74316C220.566 9.19889 220.644 9.69336 220.644 10.2266V10.3838C220.644 10.917 220.566 11.4115 220.411 11.8672C220.256 12.3229 220.031 12.7217 219.734 13.0635C219.443 13.4007 219.09 13.665 218.675 13.8564C218.265 14.0433 217.8 14.1367 217.28 14.1367C216.761 14.1367 216.294 14.0433 215.879 13.8564C215.464 13.665 215.109 13.4007 214.812 13.0635C214.521 12.7217 214.298 12.3229 214.143 11.8672C213.988 11.4115 213.91 10.917 213.91 10.3838ZM215.175 10.2266V10.3838C215.175 10.7529 215.218 11.1016 215.305 11.4297C215.391 11.7533 215.521 12.0404 215.694 12.291C215.872 12.5417 216.093 12.7399 216.357 12.8857C216.622 13.027 216.929 13.0977 217.28 13.0977C217.627 13.0977 217.93 13.027 218.189 12.8857C218.454 12.7399 218.673 12.5417 218.846 12.291C219.019 12.0404 219.149 11.7533 219.235 11.4297C219.326 11.1016 219.372 10.7529 219.372 10.3838V10.2266C219.372 9.86198 219.326 9.5179 219.235 9.19434C219.149 8.86621 219.017 8.57682 218.839 8.32617C218.666 8.07096 218.447 7.87044 218.183 7.72461C217.923 7.57878 217.618 7.50586 217.267 7.50586C216.92 7.50586 216.615 7.57878 216.351 7.72461C216.091 7.87044 215.872 8.07096 215.694 8.32617C215.521 8.57682 215.391 8.86621 215.305 9.19434C215.218 9.5179 215.175 9.86198 215.175 10.2266ZM225.299 14.1367C224.784 14.1367 224.317 14.0501 223.897 13.877C223.483 13.6992 223.125 13.4508 222.824 13.1318C222.528 12.8128 222.3 12.4346 222.141 11.9971C221.981 11.5596 221.901 11.0811 221.901 10.5615V10.2744C221.901 9.67285 221.99 9.13737 222.168 8.66797C222.346 8.19401 222.587 7.79297 222.893 7.46484C223.198 7.13672 223.544 6.88835 223.932 6.71973C224.319 6.55111 224.72 6.4668 225.135 6.4668C225.663 6.4668 226.119 6.55794 226.502 6.74023C226.889 6.92253 227.206 7.17773 227.452 7.50586C227.698 7.82943 227.881 8.21224 227.999 8.6543C228.118 9.0918 228.177 9.57031 228.177 10.0898V10.6572H222.653V9.625H226.912V9.5293C226.894 9.20117 226.826 8.88216 226.707 8.57227C226.593 8.26237 226.411 8.00716 226.16 7.80664C225.91 7.60612 225.568 7.50586 225.135 7.50586C224.848 7.50586 224.583 7.56738 224.342 7.69043C224.1 7.80892 223.893 7.98665 223.72 8.22363C223.547 8.46061 223.412 8.75 223.316 9.0918C223.221 9.43359 223.173 9.8278 223.173 10.2744V10.5615C223.173 10.9124 223.221 11.2428 223.316 11.5527C223.417 11.8581 223.56 12.127 223.747 12.3594C223.938 12.5918 224.169 12.7741 224.438 12.9062C224.711 13.0384 225.021 13.1045 225.367 13.1045C225.814 13.1045 226.192 13.0133 226.502 12.8311C226.812 12.6488 227.083 12.4049 227.315 12.0996L228.081 12.708C227.922 12.9495 227.719 13.1797 227.473 13.3984C227.227 13.6172 226.924 13.7949 226.563 13.9316C226.208 14.0684 225.786 14.1367 225.299 14.1367ZM222.927 4.62793C222.927 4.42285 222.991 4.24967 223.118 4.1084C223.246 3.96712 223.43 3.89648 223.672 3.89648C223.918 3.89648 224.105 3.96712 224.232 4.1084C224.36 4.24967 224.424 4.42285 224.424 4.62793C224.424 4.82389 224.36 4.99251 224.232 5.13379C224.105 5.27051 223.918 5.33887 223.672 5.33887C223.43 5.33887 223.246 5.27051 223.118 5.13379C222.991 4.99251 222.927 4.82389 222.927 4.62793ZM225.873 4.6416C225.873 4.43652 225.935 4.26335 226.058 4.12207C226.185 3.98079 226.372 3.91016 226.618 3.91016C226.86 3.91016 227.044 3.98079 227.172 4.12207C227.304 4.26335 227.37 4.43652 227.37 4.6416C227.37 4.83757 227.304 5.00618 227.172 5.14746C227.044 5.28418 226.86 5.35254 226.618 5.35254C226.372 5.35254 226.185 5.28418 226.058 5.14746C225.935 5.00618 225.873 4.83757 225.873 4.6416ZM233.905 12.3184L236.421 6.60352H237.638L234.343 14H233.468L230.187 6.60352H231.403L233.905 12.3184ZM231.034 6.60352V14H229.77V6.60352H231.034ZM236.735 14V6.60352H238.007V14H236.735ZM239.709 10.3838V10.2266C239.709 9.69336 239.786 9.19889 239.941 8.74316C240.096 8.28288 240.32 7.88411 240.611 7.54688C240.903 7.20508 241.256 6.94076 241.671 6.75391C242.086 6.5625 242.55 6.4668 243.065 6.4668C243.585 6.4668 244.052 6.5625 244.467 6.75391C244.886 6.94076 245.242 7.20508 245.533 7.54688C245.829 7.88411 246.055 8.28288 246.21 8.74316C246.365 9.19889 246.442 9.69336 246.442 10.2266V10.3838C246.442 10.917 246.365 11.4115 246.21 11.8672C246.055 12.3229 245.829 12.7217 245.533 13.0635C245.242 13.4007 244.888 13.665 244.474 13.8564C244.063 14.0433 243.599 14.1367 243.079 14.1367C242.56 14.1367 242.092 14.0433 241.678 13.8564C241.263 13.665 240.908 13.4007 240.611 13.0635C240.32 12.7217 240.096 12.3229 239.941 11.8672C239.786 11.4115 239.709 10.917 239.709 10.3838ZM240.974 10.2266V10.3838C240.974 10.7529 241.017 11.1016 241.104 11.4297C241.19 11.7533 241.32 12.0404 241.493 12.291C241.671 12.5417 241.892 12.7399 242.156 12.8857C242.421 13.027 242.728 13.0977 243.079 13.0977C243.425 13.0977 243.729 13.027 243.988 12.8857C244.253 12.7399 244.471 12.5417 244.645 12.291C244.818 12.0404 244.948 11.7533 245.034 11.4297C245.125 11.1016 245.171 10.7529 245.171 10.3838V10.2266C245.171 9.86198 245.125 9.5179 245.034 9.19434C244.948 8.86621 244.815 8.57682 244.638 8.32617C244.465 8.07096 244.246 7.87044 243.981 7.72461C243.722 7.57878 243.416 7.50586 243.065 7.50586C242.719 7.50586 242.414 7.57878 242.149 7.72461C241.89 7.87044 241.671 8.07096 241.493 8.32617C241.32 8.57682 241.19 8.86621 241.104 9.19434C241.017 9.5179 240.974 9.86198 240.974 10.2266ZM251.501 10.7461H249.074L249.061 9.73438H251.043C251.435 9.73438 251.761 9.69564 252.021 9.61816C252.285 9.54069 252.483 9.42448 252.615 9.26953C252.747 9.11458 252.813 8.92318 252.813 8.69531C252.813 8.51758 252.775 8.36263 252.697 8.23047C252.624 8.09375 252.513 7.9821 252.362 7.89551C252.212 7.80436 252.025 7.73828 251.802 7.69727C251.583 7.65169 251.326 7.62891 251.029 7.62891H249.409V14H248.145V6.60352H251.029C251.499 6.60352 251.92 6.64453 252.294 6.72656C252.672 6.80859 252.993 6.93392 253.258 7.10254C253.527 7.2666 253.732 7.47624 253.873 7.73145C254.014 7.98665 254.085 8.28743 254.085 8.63379C254.085 8.8571 254.039 9.06901 253.948 9.26953C253.857 9.47005 253.723 9.64779 253.545 9.80273C253.367 9.95768 253.148 10.0853 252.889 10.1855C252.629 10.2812 252.33 10.3428 251.993 10.3701L251.501 10.7461ZM251.501 14H248.616L249.245 12.9746H251.501C251.852 12.9746 252.144 12.9313 252.376 12.8447C252.608 12.7536 252.782 12.626 252.896 12.4619C253.014 12.2933 253.073 12.0928 253.073 11.8604C253.073 11.6279 253.014 11.4297 252.896 11.2656C252.782 11.097 252.608 10.9694 252.376 10.8828C252.144 10.7917 251.852 10.7461 251.501 10.7461H249.58L249.594 9.73438H251.993L252.451 10.1172C252.857 10.1491 253.201 10.2493 253.483 10.418C253.766 10.5866 253.98 10.8008 254.126 11.0605C254.272 11.3158 254.345 11.5938 254.345 11.8945C254.345 12.2409 254.279 12.5462 254.146 12.8105C254.019 13.0749 253.832 13.2959 253.586 13.4736C253.34 13.6468 253.041 13.779 252.69 13.8701C252.34 13.9567 251.943 14 251.501 14ZM255.828 7.29395C255.828 7.07975 255.894 6.89974 256.026 6.75391C256.163 6.60352 256.359 6.52832 256.614 6.52832C256.869 6.52832 257.063 6.60352 257.195 6.75391C257.332 6.89974 257.4 7.07975 257.4 7.29395C257.4 7.50358 257.332 7.68132 257.195 7.82715C257.063 7.97298 256.869 8.0459 256.614 8.0459C256.359 8.0459 256.163 7.97298 256.026 7.82715C255.894 7.68132 255.828 7.50358 255.828 7.29395ZM257.271 12.4961V13.5146C257.271 13.9294 257.166 14.3669 256.956 14.8271C256.746 15.292 256.452 15.6794 256.074 15.9893L255.356 15.4902C255.502 15.2897 255.625 15.0846 255.726 14.875C255.826 14.6699 255.901 14.4557 255.951 14.2324C256.006 14.0137 256.033 13.7812 256.033 13.5352V12.4961H257.271Z" fill="#303030" fill-opacity="0.9"/>
</svg>
