<svg width="300" height="14" viewBox="0 0 300 14" fill="none" xmlns="http://www.w3.org/2000/svg">
<path d="M6.54199 3.60352V11H5.27734V3.60352H6.54199ZM6.11133 7.00098V8.04004C5.85612 8.13574 5.59635 8.22233 5.33203 8.2998C5.07227 8.37272 4.79655 8.43197 4.50488 8.47754C4.21777 8.51855 3.9056 8.53906 3.56836 8.53906C2.98503 8.53906 2.47917 8.4388 2.05078 8.23828C1.6224 8.0332 1.29199 7.72559 1.05957 7.31543C0.827148 6.90072 0.710938 6.37891 0.710938 5.75V3.58984H1.97559V5.75C1.97559 6.16016 2.03711 6.49284 2.16016 6.74805C2.2832 7.00326 2.46322 7.19238 2.7002 7.31543C2.93717 7.43392 3.22656 7.49316 3.56836 7.49316C3.89648 7.49316 4.2041 7.47266 4.49121 7.43164C4.78288 7.38607 5.06087 7.32682 5.3252 7.25391C5.59408 7.18099 5.85612 7.09668 6.11133 7.00098ZM11.6484 11.1367C11.1335 11.1367 10.6663 11.0501 10.2471 10.877C9.83236 10.6992 9.47461 10.4508 9.17383 10.1318C8.8776 9.81283 8.64974 9.43457 8.49023 8.99707C8.33073 8.55957 8.25098 8.08105 8.25098 7.56152V7.27441C8.25098 6.67285 8.33984 6.13737 8.51758 5.66797C8.69531 5.19401 8.93685 4.79297 9.24219 4.46484C9.54753 4.13672 9.89388 3.88835 10.2812 3.71973C10.6686 3.55111 11.0697 3.4668 11.4844 3.4668C12.013 3.4668 12.4688 3.55794 12.8516 3.74023C13.2389 3.92253 13.5557 4.17773 13.8018 4.50586C14.0479 4.82943 14.2301 5.21224 14.3486 5.6543C14.4671 6.0918 14.5264 6.57031 14.5264 7.08984V7.65723H9.00293V6.625H13.2617V6.5293C13.2435 6.20117 13.1751 5.88216 13.0566 5.57227C12.9427 5.26237 12.7604 5.00716 12.5098 4.80664C12.2591 4.60612 11.9173 4.50586 11.4844 4.50586C11.1973 4.50586 10.9329 4.56738 10.6914 4.69043C10.4499 4.80892 10.2425 4.98665 10.0693 5.22363C9.89616 5.46061 9.76172 5.75 9.66602 6.0918C9.57031 6.43359 9.52246 6.8278 9.52246 7.27441V7.56152C9.52246 7.91243 9.57031 8.24284 9.66602 8.55273C9.76628 8.85807 9.90983 9.12695 10.0967 9.35938C10.2881 9.5918 10.5182 9.77409 10.7871 9.90625C11.0605 10.0384 11.3704 10.1045 11.7168 10.1045C12.1634 10.1045 12.5417 10.0133 12.8516 9.83105C13.1615 9.64876 13.4326 9.40495 13.665 9.09961L14.4307 9.70801C14.2712 9.94954 14.0684 10.1797 13.8223 10.3984C13.5762 10.6172 13.2731 10.7949 12.9131 10.9316C12.5576 11.0684 12.1361 11.1367 11.6484 11.1367ZM17.2676 5.02539V13.8438H15.9961V3.60352H17.1582L17.2676 5.02539ZM22.251 7.24023V7.38379C22.251 7.92155 22.1872 8.42057 22.0596 8.88086C21.932 9.33659 21.7451 9.73307 21.499 10.0703C21.2575 10.4076 20.959 10.6696 20.6035 10.8564C20.248 11.0433 19.8402 11.1367 19.3799 11.1367C18.9105 11.1367 18.4958 11.0592 18.1357 10.9043C17.7757 10.7493 17.4704 10.5238 17.2197 10.2275C16.9691 9.93132 16.7686 9.57585 16.6182 9.16113C16.4723 8.74642 16.3721 8.2793 16.3174 7.75977V6.99414C16.3721 6.44727 16.4746 5.95736 16.625 5.52441C16.7754 5.09147 16.9736 4.72233 17.2197 4.41699C17.4704 4.1071 17.7734 3.8724 18.1289 3.71289C18.4844 3.54883 18.8945 3.4668 19.3594 3.4668C19.8242 3.4668 20.2367 3.55794 20.5967 3.74023C20.9567 3.91797 21.2598 4.17318 21.5059 4.50586C21.752 4.83854 21.9365 5.2373 22.0596 5.70215C22.1872 6.16243 22.251 6.67513 22.251 7.24023ZM20.9795 7.38379V7.24023C20.9795 6.87109 20.9408 6.52474 20.8633 6.20117C20.7858 5.87305 20.665 5.58594 20.501 5.33984C20.3415 5.08919 20.1364 4.89323 19.8857 4.75195C19.6351 4.60612 19.3366 4.5332 18.9902 4.5332C18.6712 4.5332 18.3932 4.58789 18.1562 4.69727C17.9238 4.80664 17.7256 4.95475 17.5615 5.1416C17.3975 5.32389 17.263 5.53353 17.1582 5.77051C17.0579 6.00293 16.9827 6.24447 16.9326 6.49512V8.26562C17.0238 8.58464 17.1514 8.88542 17.3154 9.16797C17.4795 9.44596 17.6982 9.67155 17.9717 9.84473C18.2451 10.0133 18.5892 10.0977 19.0039 10.0977C19.3457 10.0977 19.6396 10.027 19.8857 9.88574C20.1364 9.73991 20.3415 9.54167 20.501 9.29102C20.665 9.04036 20.7858 8.75326 20.8633 8.42969C20.9408 8.10156 20.9795 7.75293 20.9795 7.38379ZM26.332 3.60352V11H25.0605V3.60352H26.332ZM28.8135 3.60352V4.62891H22.627V3.60352H28.8135ZM32.5801 11.1367C32.0651 11.1367 31.598 11.0501 31.1787 10.877C30.764 10.6992 30.4062 10.4508 30.1055 10.1318C29.8092 9.81283 29.5814 9.43457 29.4219 8.99707C29.2624 8.55957 29.1826 8.08105 29.1826 7.56152V7.27441C29.1826 6.67285 29.2715 6.13737 29.4492 5.66797C29.627 5.19401 29.8685 4.79297 30.1738 4.46484C30.4792 4.13672 30.8255 3.88835 31.2129 3.71973C31.6003 3.55111 32.0013 3.4668 32.416 3.4668C32.9447 3.4668 33.4004 3.55794 33.7832 3.74023C34.1706 3.92253 34.4873 4.17773 34.7334 4.50586C34.9795 4.82943 35.1618 5.21224 35.2803 5.6543C35.3988 6.0918 35.458 6.57031 35.458 7.08984V7.65723H29.9346V6.625H34.1934V6.5293C34.1751 6.20117 34.1068 5.88216 33.9883 5.57227C33.8743 5.26237 33.6921 5.00716 33.4414 4.80664C33.1908 4.60612 32.849 4.50586 32.416 4.50586C32.1289 4.50586 31.8646 4.56738 31.623 4.69043C31.3815 4.80892 31.1742 4.98665 31.001 5.22363C30.8278 5.46061 30.6934 5.75 30.5977 6.0918C30.502 6.43359 30.4541 6.8278 30.4541 7.27441V7.56152C30.4541 7.91243 30.502 8.24284 30.5977 8.55273C30.6979 8.85807 30.8415 9.12695 31.0283 9.35938C31.2197 9.5918 31.4499 9.77409 31.7188 9.90625C31.9922 10.0384 32.3021 10.1045 32.6484 10.1045C33.0951 10.1045 33.4733 10.0133 33.7832 9.83105C34.0931 9.64876 34.3643 9.40495 34.5967 9.09961L35.3623 9.70801C35.2028 9.94954 35 10.1797 34.7539 10.3984C34.5078 10.6172 34.2048 10.7949 33.8447 10.9316C33.4893 11.0684 33.0677 11.1367 32.5801 11.1367ZM39.1768 7.78027L36.374 3.60352H37.8984L39.8125 6.66602H41.2891L41.1045 7.78027H39.1768ZM39.8672 7.65039L37.7207 11H36.1211L39.0674 6.73438L39.8672 7.65039ZM41.9385 3.60352V11H40.6738V3.60352H41.9385ZM46.252 3.60352L43.4492 7.78027H41.5215L41.3232 6.66602H42.8066L44.7207 3.60352H46.252ZM44.8984 11L42.7451 7.65039L43.5586 6.73438L46.498 11H44.8984ZM49.0342 8.99707L52.4453 3.60352H53.7168V11H52.4453V5.60645L49.0342 11H47.7764V3.60352H49.0342V8.99707ZM64.2373 6.80957V7.83496H60.3271V6.80957H64.2373ZM60.5938 3.60352V11H59.3291V3.60352H60.5938ZM65.2627 3.60352V11H63.9912V3.60352H65.2627ZM71.6611 9.73535V5.92773C71.6611 5.63607 71.6019 5.38314 71.4834 5.16895C71.3695 4.9502 71.1963 4.78158 70.9639 4.66309C70.7314 4.5446 70.4443 4.48535 70.1025 4.48535C69.7835 4.48535 69.5033 4.54004 69.2617 4.64941C69.0247 4.75879 68.8379 4.90234 68.7012 5.08008C68.569 5.25781 68.5029 5.44922 68.5029 5.6543H67.2383C67.2383 5.38997 67.3066 5.12793 67.4434 4.86816C67.5801 4.6084 67.776 4.3737 68.0312 4.16406C68.291 3.94987 68.6009 3.78125 68.9609 3.6582C69.3255 3.5306 69.7311 3.4668 70.1777 3.4668C70.7155 3.4668 71.1895 3.55794 71.5996 3.74023C72.0143 3.92253 72.3379 4.19824 72.5703 4.56738C72.8073 4.93197 72.9258 5.38997 72.9258 5.94141V9.38672C72.9258 9.63281 72.9463 9.89486 72.9873 10.1729C73.0329 10.4508 73.099 10.6901 73.1855 10.8906V11H71.8662C71.8024 10.8542 71.7523 10.6605 71.7158 10.4189C71.6794 10.1729 71.6611 9.94499 71.6611 9.73535ZM71.8799 6.51562L71.8936 7.4043H70.6152C70.2552 7.4043 69.9339 7.43392 69.6514 7.49316C69.3688 7.54785 69.1318 7.63216 68.9404 7.74609C68.749 7.86003 68.6032 8.00358 68.5029 8.17676C68.4027 8.34538 68.3525 8.54362 68.3525 8.77148C68.3525 9.00391 68.4049 9.21582 68.5098 9.40723C68.6146 9.59863 68.7718 9.7513 68.9814 9.86523C69.1956 9.97461 69.4577 10.0293 69.7676 10.0293C70.1549 10.0293 70.4967 9.94727 70.793 9.7832C71.0892 9.61914 71.3239 9.41862 71.4971 9.18164C71.6748 8.94466 71.7705 8.71452 71.7842 8.49121L72.3242 9.09961C72.2923 9.29102 72.2057 9.50293 72.0645 9.73535C71.9232 9.96777 71.734 10.1911 71.4971 10.4053C71.2646 10.6149 70.9867 10.7904 70.6631 10.9316C70.3441 11.0684 69.984 11.1367 69.583 11.1367C69.0817 11.1367 68.6419 11.0387 68.2637 10.8428C67.89 10.6468 67.5983 10.3848 67.3887 10.0566C67.1836 9.72396 67.0811 9.35254 67.0811 8.94238C67.0811 8.5459 67.1585 8.19727 67.3135 7.89648C67.4684 7.59115 67.6917 7.33822 67.9834 7.1377C68.2751 6.93262 68.626 6.77767 69.0361 6.67285C69.4463 6.56803 69.9043 6.51562 70.4102 6.51562H71.8799ZM79.8438 3.60352V4.64941H76.1045V3.60352H79.8438ZM76.2891 3.60352V11H75.0244V3.60352H76.2891ZM80.9648 3.60352V11H79.6934V3.60352H80.9648ZM82.6602 7.38379V7.22656C82.6602 6.69336 82.7376 6.19889 82.8926 5.74316C83.0475 5.28288 83.2708 4.88411 83.5625 4.54688C83.8542 4.20508 84.2074 3.94076 84.6221 3.75391C85.0368 3.5625 85.5016 3.4668 86.0166 3.4668C86.5361 3.4668 87.0033 3.5625 87.418 3.75391C87.8372 3.94076 88.1927 4.20508 88.4844 4.54688C88.7806 4.88411 89.0062 5.28288 89.1611 5.74316C89.3161 6.19889 89.3936 6.69336 89.3936 7.22656V7.38379C89.3936 7.91699 89.3161 8.41146 89.1611 8.86719C89.0062 9.32292 88.7806 9.72168 88.4844 10.0635C88.1927 10.4007 87.8395 10.665 87.4248 10.8564C87.0146 11.0433 86.5498 11.1367 86.0303 11.1367C85.5107 11.1367 85.0436 11.0433 84.6289 10.8564C84.2142 10.665 83.8587 10.4007 83.5625 10.0635C83.2708 9.72168 83.0475 9.32292 82.8926 8.86719C82.7376 8.41146 82.6602 7.91699 82.6602 7.38379ZM83.9248 7.22656V7.38379C83.9248 7.75293 83.9681 8.10156 84.0547 8.42969C84.1413 8.75326 84.2712 9.04036 84.4443 9.29102C84.6221 9.54167 84.8431 9.73991 85.1074 9.88574C85.3717 10.027 85.6794 10.0977 86.0303 10.0977C86.3766 10.0977 86.6797 10.027 86.9395 9.88574C87.2038 9.73991 87.4225 9.54167 87.5957 9.29102C87.7689 9.04036 87.8988 8.75326 87.9854 8.42969C88.0765 8.10156 88.1221 7.75293 88.1221 7.38379V7.22656C88.1221 6.86198 88.0765 6.5179 87.9854 6.19434C87.8988 5.86621 87.7666 5.57682 87.5889 5.32617C87.4157 5.07096 87.1969 4.87044 86.9326 4.72461C86.6729 4.57878 86.3675 4.50586 86.0166 4.50586C85.6702 4.50586 85.3649 4.57878 85.1006 4.72461C84.8408 4.87044 84.6221 5.07096 84.4443 5.32617C84.2712 5.57682 84.1413 5.86621 84.0547 6.19434C83.9681 6.5179 83.9248 6.86198 83.9248 7.22656ZM95.8125 3.60352V4.64941H92.2373V3.60352H95.8125ZM96.9268 3.60352V11H95.6621V3.60352H96.9268ZM91.9297 3.60352H93.2012L93.0098 7.17188C92.9779 7.72331 92.9255 8.21094 92.8525 8.63477C92.7842 9.05404 92.6885 9.41406 92.5654 9.71484C92.4469 10.0156 92.2965 10.2617 92.1143 10.4531C91.9365 10.64 91.7223 10.779 91.4717 10.8701C91.221 10.9567 90.9316 11 90.6035 11H90.207V9.88574L90.4805 9.86523C90.6764 9.85156 90.8428 9.80599 90.9795 9.72852C91.1208 9.65104 91.2393 9.53711 91.335 9.38672C91.4307 9.23177 91.5081 9.03353 91.5674 8.79199C91.6312 8.55046 91.679 8.26335 91.7109 7.93066C91.7474 7.59798 91.7747 7.21061 91.793 6.76855L91.9297 3.60352ZM100.003 6.14648H102.225C102.822 6.14648 103.325 6.2513 103.735 6.46094C104.146 6.66602 104.455 6.95085 104.665 7.31543C104.879 7.67546 104.986 8.08561 104.986 8.5459C104.986 8.8877 104.927 9.20898 104.809 9.50977C104.69 9.80599 104.512 10.0658 104.275 10.2891C104.043 10.5124 103.754 10.6878 103.407 10.8154C103.065 10.9385 102.671 11 102.225 11H99.0801V3.60352H100.345V9.96094H102.225C102.589 9.96094 102.881 9.89486 103.1 9.7627C103.318 9.63053 103.476 9.45964 103.571 9.25C103.667 9.04036 103.715 8.82161 103.715 8.59375C103.715 8.37044 103.667 8.15169 103.571 7.9375C103.476 7.72331 103.318 7.54557 103.1 7.4043C102.881 7.25846 102.589 7.18555 102.225 7.18555H100.003V6.14648ZM111.583 6.80957V7.83496H107.673V6.80957H111.583ZM107.939 3.60352V11H106.675V3.60352H107.939ZM112.608 3.60352V11H111.337V3.60352H112.608ZM115.685 6.14648H117.906C118.503 6.14648 119.007 6.2513 119.417 6.46094C119.827 6.66602 120.137 6.95085 120.347 7.31543C120.561 7.67546 120.668 8.08561 120.668 8.5459C120.668 8.8877 120.609 9.20898 120.49 9.50977C120.372 9.80599 120.194 10.0658 119.957 10.2891C119.725 10.5124 119.435 10.6878 119.089 10.8154C118.747 10.9385 118.353 11 117.906 11H114.762V3.60352H116.026V9.96094H117.906C118.271 9.96094 118.562 9.89486 118.781 9.7627C119 9.63053 119.157 9.45964 119.253 9.25C119.349 9.04036 119.396 8.82161 119.396 8.59375C119.396 8.37044 119.349 8.15169 119.253 7.9375C119.157 7.72331 119 7.54557 118.781 7.4043C118.562 7.25846 118.271 7.18555 117.906 7.18555H115.685V6.14648ZM123.3 3.60352V11H122.035V3.60352H123.3ZM126.369 3.60352L127.989 6.29688L129.63 3.60352H131.113L128.693 7.25391L131.188 11H129.726L128.017 8.22461L126.308 11H124.838L127.326 7.25391L124.913 3.60352H126.369ZM140.861 3.60352V4.64941H137.122V3.60352H140.861ZM137.307 3.60352V11H136.042V3.60352H137.307ZM141.982 3.60352V11H140.711V3.60352H141.982ZM143.678 7.38379V7.22656C143.678 6.69336 143.755 6.19889 143.91 5.74316C144.065 5.28288 144.288 4.88411 144.58 4.54688C144.872 4.20508 145.225 3.94076 145.64 3.75391C146.054 3.5625 146.519 3.4668 147.034 3.4668C147.554 3.4668 148.021 3.5625 148.436 3.75391C148.855 3.94076 149.21 4.20508 149.502 4.54688C149.798 4.88411 150.024 5.28288 150.179 5.74316C150.334 6.19889 150.411 6.69336 150.411 7.22656V7.38379C150.411 7.91699 150.334 8.41146 150.179 8.86719C150.024 9.32292 149.798 9.72168 149.502 10.0635C149.21 10.4007 148.857 10.665 148.442 10.8564C148.032 11.0433 147.567 11.1367 147.048 11.1367C146.528 11.1367 146.061 11.0433 145.646 10.8564C145.232 10.665 144.876 10.4007 144.58 10.0635C144.288 9.72168 144.065 9.32292 143.91 8.86719C143.755 8.41146 143.678 7.91699 143.678 7.38379ZM144.942 7.22656V7.38379C144.942 7.75293 144.986 8.10156 145.072 8.42969C145.159 8.75326 145.289 9.04036 145.462 9.29102C145.64 9.54167 145.861 9.73991 146.125 9.88574C146.389 10.027 146.697 10.0977 147.048 10.0977C147.394 10.0977 147.697 10.027 147.957 9.88574C148.221 9.73991 148.44 9.54167 148.613 9.29102C148.786 9.04036 148.916 8.75326 149.003 8.42969C149.094 8.10156 149.14 7.75293 149.14 7.38379V7.22656C149.14 6.86198 149.094 6.5179 149.003 6.19434C148.916 5.86621 148.784 5.57682 148.606 5.32617C148.433 5.07096 148.215 4.87044 147.95 4.72461C147.69 4.57878 147.385 4.50586 147.034 4.50586C146.688 4.50586 146.382 4.57878 146.118 4.72461C145.858 4.87044 145.64 5.07096 145.462 5.32617C145.289 5.57682 145.159 5.86621 145.072 6.19434C144.986 6.5179 144.942 6.86198 144.942 7.22656ZM153.371 3.60352V11H152.106V3.60352H153.371ZM158.225 3.60352L154.718 7.8418H152.947L152.756 6.73438H154.205L156.687 3.60352H158.225ZM156.864 11L154.144 7.65039L154.957 6.73438L158.471 11H156.864ZM160.836 5.02539V13.8438H159.564V3.60352H160.727L160.836 5.02539ZM165.819 7.24023V7.38379C165.819 7.92155 165.756 8.42057 165.628 8.88086C165.5 9.33659 165.313 9.73307 165.067 10.0703C164.826 10.4076 164.527 10.6696 164.172 10.8564C163.816 11.0433 163.409 11.1367 162.948 11.1367C162.479 11.1367 162.064 11.0592 161.704 10.9043C161.344 10.7493 161.039 10.5238 160.788 10.2275C160.537 9.93132 160.337 9.57585 160.187 9.16113C160.041 8.74642 159.94 8.2793 159.886 7.75977V6.99414C159.94 6.44727 160.043 5.95736 160.193 5.52441C160.344 5.09147 160.542 4.72233 160.788 4.41699C161.039 4.1071 161.342 3.8724 161.697 3.71289C162.053 3.54883 162.463 3.4668 162.928 3.4668C163.393 3.4668 163.805 3.55794 164.165 3.74023C164.525 3.91797 164.828 4.17318 165.074 4.50586C165.32 4.83854 165.505 5.2373 165.628 5.70215C165.756 6.16243 165.819 6.67513 165.819 7.24023ZM164.548 7.38379V7.24023C164.548 6.87109 164.509 6.52474 164.432 6.20117C164.354 5.87305 164.233 5.58594 164.069 5.33984C163.91 5.08919 163.705 4.89323 163.454 4.75195C163.203 4.60612 162.905 4.5332 162.559 4.5332C162.24 4.5332 161.962 4.58789 161.725 4.69727C161.492 4.80664 161.294 4.95475 161.13 5.1416C160.966 5.32389 160.831 5.53353 160.727 5.77051C160.626 6.00293 160.551 6.24447 160.501 6.49512V8.26562C160.592 8.58464 160.72 8.88542 160.884 9.16797C161.048 9.44596 161.267 9.67155 161.54 9.84473C161.813 10.0133 162.158 10.0977 162.572 10.0977C162.914 10.0977 163.208 10.027 163.454 9.88574C163.705 9.73991 163.91 9.54167 164.069 9.29102C164.233 9.04036 164.354 8.75326 164.432 8.42969C164.509 8.10156 164.548 7.75293 164.548 7.38379ZM168.472 6.14648H170.693C171.29 6.14648 171.794 6.2513 172.204 6.46094C172.614 6.66602 172.924 6.95085 173.134 7.31543C173.348 7.67546 173.455 8.08561 173.455 8.5459C173.455 8.8877 173.396 9.20898 173.277 9.50977C173.159 9.80599 172.981 10.0658 172.744 10.2891C172.512 10.5124 172.222 10.6878 171.876 10.8154C171.534 10.9385 171.14 11 170.693 11H167.549V3.60352H168.813V9.96094H170.693C171.058 9.96094 171.35 9.89486 171.568 9.7627C171.787 9.63053 171.944 9.45964 172.04 9.25C172.136 9.04036 172.184 8.82161 172.184 8.59375C172.184 8.37044 172.136 8.15169 172.04 7.9375C171.944 7.72331 171.787 7.54557 171.568 7.4043C171.35 7.25846 171.058 7.18555 170.693 7.18555H168.472V6.14648ZM176.087 3.60352V11H174.822V3.60352H176.087ZM181.316 3.60352V11H180.045V3.60352H181.316ZM183.798 3.60352V4.62891H177.611V3.60352H183.798ZM186.409 8.99707L189.82 3.60352H191.092V11H189.82V5.60645L186.409 11H185.151V3.60352H186.409V8.99707ZM194.489 8.99707L197.9 3.60352H199.172V11H197.9V5.60645L194.489 11H193.231V3.60352H194.489V8.99707ZM197.21 0.923828H198.235C198.235 1.2793 198.153 1.59603 197.989 1.87402C197.825 2.14746 197.59 2.36165 197.285 2.5166C196.98 2.67155 196.618 2.74902 196.198 2.74902C195.565 2.74902 195.063 2.5804 194.694 2.24316C194.33 1.90137 194.147 1.46159 194.147 0.923828H195.173C195.173 1.19271 195.25 1.42969 195.405 1.63477C195.56 1.83984 195.825 1.94238 196.198 1.94238C196.563 1.94238 196.823 1.83984 196.978 1.63477C197.132 1.42969 197.21 1.19271 197.21 0.923828ZM202.351 9.49609V10.5146C202.351 10.9294 202.246 11.3669 202.036 11.8271C201.826 12.292 201.533 12.6794 201.154 12.9893L200.437 12.4902C200.582 12.2897 200.705 12.0846 200.806 11.875C200.906 11.6699 200.981 11.4557 201.031 11.2324C201.086 11.0137 201.113 10.7812 201.113 10.5352V9.49609H202.351ZM210.451 3.60352V11H209.18V3.60352H210.451ZM212.933 3.60352V4.62891H206.746V3.60352H212.933ZM216.699 11.1367C216.184 11.1367 215.717 11.0501 215.298 10.877C214.883 10.6992 214.525 10.4508 214.225 10.1318C213.928 9.81283 213.701 9.43457 213.541 8.99707C213.382 8.55957 213.302 8.08105 213.302 7.56152V7.27441C213.302 6.67285 213.391 6.13737 213.568 5.66797C213.746 5.19401 213.988 4.79297 214.293 4.46484C214.598 4.13672 214.945 3.88835 215.332 3.71973C215.719 3.55111 216.12 3.4668 216.535 3.4668C217.064 3.4668 217.52 3.55794 217.902 3.74023C218.29 3.92253 218.606 4.17773 218.853 4.50586C219.099 4.82943 219.281 5.21224 219.399 5.6543C219.518 6.0918 219.577 6.57031 219.577 7.08984V7.65723H214.054V6.625H218.312V6.5293C218.294 6.20117 218.226 5.88216 218.107 5.57227C217.993 5.26237 217.811 5.00716 217.561 4.80664C217.31 4.60612 216.968 4.50586 216.535 4.50586C216.248 4.50586 215.984 4.56738 215.742 4.69043C215.501 4.80892 215.293 4.98665 215.12 5.22363C214.947 5.46061 214.812 5.75 214.717 6.0918C214.621 6.43359 214.573 6.8278 214.573 7.27441V7.56152C214.573 7.91243 214.621 8.24284 214.717 8.55273C214.817 8.85807 214.961 9.12695 215.147 9.35938C215.339 9.5918 215.569 9.77409 215.838 9.90625C216.111 10.0384 216.421 10.1045 216.768 10.1045C217.214 10.1045 217.592 10.0133 217.902 9.83105C218.212 9.64876 218.483 9.40495 218.716 9.09961L219.481 9.70801C219.322 9.94954 219.119 10.1797 218.873 10.3984C218.627 10.6172 218.324 10.7949 217.964 10.9316C217.608 11.0684 217.187 11.1367 216.699 11.1367ZM214.327 1.62793C214.327 1.42285 214.391 1.24967 214.519 1.1084C214.646 0.967122 214.831 0.896484 215.072 0.896484C215.318 0.896484 215.505 0.967122 215.633 1.1084C215.76 1.24967 215.824 1.42285 215.824 1.62793C215.824 1.82389 215.76 1.99251 215.633 2.13379C215.505 2.27051 215.318 2.33887 215.072 2.33887C214.831 2.33887 214.646 2.27051 214.519 2.13379C214.391 1.99251 214.327 1.82389 214.327 1.62793ZM217.273 1.6416C217.273 1.43652 217.335 1.26335 217.458 1.12207C217.586 0.980794 217.772 0.910156 218.019 0.910156C218.26 0.910156 218.445 0.980794 218.572 1.12207C218.704 1.26335 218.771 1.43652 218.771 1.6416C218.771 1.83757 218.704 2.00618 218.572 2.14746C218.445 2.28418 218.26 2.35254 218.019 2.35254C217.772 2.35254 217.586 2.28418 217.458 2.14746C217.335 2.00618 217.273 1.83757 217.273 1.6416ZM225.982 3.60352V4.64941H222.243V3.60352H225.982ZM222.428 3.60352V11H221.163V3.60352H222.428ZM227.104 3.60352V11H225.832V3.60352H227.104ZM234.076 3.60352V4.64941H230.501V3.60352H234.076ZM235.19 3.60352V11H233.926V3.60352H235.19ZM230.193 3.60352H231.465L231.273 7.17188C231.242 7.72331 231.189 8.21094 231.116 8.63477C231.048 9.05404 230.952 9.41406 230.829 9.71484C230.711 10.0156 230.56 10.2617 230.378 10.4531C230.2 10.64 229.986 10.779 229.735 10.8701C229.485 10.9567 229.195 11 228.867 11H228.471V9.88574L228.744 9.86523C228.94 9.85156 229.106 9.80599 229.243 9.72852C229.384 9.65104 229.503 9.53711 229.599 9.38672C229.694 9.23177 229.772 9.03353 229.831 8.79199C229.895 8.55046 229.943 8.26335 229.975 7.93066C230.011 7.59798 230.038 7.21061 230.057 6.76855L230.193 3.60352ZM238.267 6.14648H240.488C241.085 6.14648 241.589 6.2513 241.999 6.46094C242.409 6.66602 242.719 6.95085 242.929 7.31543C243.143 7.67546 243.25 8.08561 243.25 8.5459C243.25 8.8877 243.191 9.20898 243.072 9.50977C242.954 9.80599 242.776 10.0658 242.539 10.2891C242.307 10.5124 242.017 10.6878 241.671 10.8154C241.329 10.9385 240.935 11 240.488 11H237.344V3.60352H238.608V9.96094H240.488C240.853 9.96094 241.145 9.89486 241.363 9.7627C241.582 9.63053 241.739 9.45964 241.835 9.25C241.931 9.04036 241.979 8.82161 241.979 8.59375C241.979 8.37044 241.931 8.15169 241.835 7.9375C241.739 7.72331 241.582 7.54557 241.363 7.4043C241.145 7.25846 240.853 7.18555 240.488 7.18555H238.267V6.14648ZM245.882 3.60352V11H244.617V3.60352H245.882ZM248.951 3.60352L250.571 6.29688L252.212 3.60352H253.695L251.275 7.25391L253.771 11H252.308L250.599 8.22461L248.89 11H247.42L249.908 7.25391L247.495 3.60352H248.951ZM263.443 3.60352V4.64941H259.704V3.60352H263.443ZM259.889 3.60352V11H258.624V3.60352H259.889ZM264.564 3.60352V11H263.293V3.60352H264.564ZM266.26 7.38379V7.22656C266.26 6.69336 266.337 6.19889 266.492 5.74316C266.647 5.28288 266.87 4.88411 267.162 4.54688C267.454 4.20508 267.807 3.94076 268.222 3.75391C268.636 3.5625 269.101 3.4668 269.616 3.4668C270.136 3.4668 270.603 3.5625 271.018 3.75391C271.437 3.94076 271.792 4.20508 272.084 4.54688C272.38 4.88411 272.606 5.28288 272.761 5.74316C272.916 6.19889 272.993 6.69336 272.993 7.22656V7.38379C272.993 7.91699 272.916 8.41146 272.761 8.86719C272.606 9.32292 272.38 9.72168 272.084 10.0635C271.792 10.4007 271.439 10.665 271.024 10.8564C270.614 11.0433 270.149 11.1367 269.63 11.1367C269.11 11.1367 268.643 11.0433 268.229 10.8564C267.814 10.665 267.458 10.4007 267.162 10.0635C266.87 9.72168 266.647 9.32292 266.492 8.86719C266.337 8.41146 266.26 7.91699 266.26 7.38379ZM267.524 7.22656V7.38379C267.524 7.75293 267.568 8.10156 267.654 8.42969C267.741 8.75326 267.871 9.04036 268.044 9.29102C268.222 9.54167 268.443 9.73991 268.707 9.88574C268.971 10.027 269.279 10.0977 269.63 10.0977C269.976 10.0977 270.279 10.027 270.539 9.88574C270.803 9.73991 271.022 9.54167 271.195 9.29102C271.368 9.04036 271.498 8.75326 271.585 8.42969C271.676 8.10156 271.722 7.75293 271.722 7.38379V7.22656C271.722 6.86198 271.676 6.5179 271.585 6.19434C271.498 5.86621 271.366 5.57682 271.188 5.32617C271.015 5.07096 270.797 4.87044 270.532 4.72461C270.272 4.57878 269.967 4.50586 269.616 4.50586C269.27 4.50586 268.965 4.57878 268.7 4.72461C268.44 4.87044 268.222 5.07096 268.044 5.32617C267.871 5.57682 267.741 5.86621 267.654 6.19434C267.568 6.5179 267.524 6.86198 267.524 7.22656ZM279.412 3.60352V4.64941H275.837V3.60352H279.412ZM280.526 3.60352V11H279.262V3.60352H280.526ZM275.529 3.60352H276.801L276.609 7.17188C276.577 7.72331 276.525 8.21094 276.452 8.63477C276.384 9.05404 276.288 9.41406 276.165 9.71484C276.047 10.0156 275.896 10.2617 275.714 10.4531C275.536 10.64 275.322 10.779 275.071 10.8701C274.821 10.9567 274.531 11 274.203 11H273.807V9.88574L274.08 9.86523C274.276 9.85156 274.442 9.80599 274.579 9.72852C274.72 9.65104 274.839 9.53711 274.935 9.38672C275.03 9.23177 275.108 9.03353 275.167 8.79199C275.231 8.55046 275.279 8.26335 275.311 7.93066C275.347 7.59798 275.374 7.21061 275.393 6.76855L275.529 3.60352ZM282.229 7.38379V7.22656C282.229 6.69336 282.306 6.19889 282.461 5.74316C282.616 5.28288 282.839 4.88411 283.131 4.54688C283.423 4.20508 283.776 3.94076 284.19 3.75391C284.605 3.5625 285.07 3.4668 285.585 3.4668C286.104 3.4668 286.572 3.5625 286.986 3.75391C287.406 3.94076 287.761 4.20508 288.053 4.54688C288.349 4.88411 288.575 5.28288 288.729 5.74316C288.884 6.19889 288.962 6.69336 288.962 7.22656V7.38379C288.962 7.91699 288.884 8.41146 288.729 8.86719C288.575 9.32292 288.349 9.72168 288.053 10.0635C287.761 10.4007 287.408 10.665 286.993 10.8564C286.583 11.0433 286.118 11.1367 285.599 11.1367C285.079 11.1367 284.612 11.0433 284.197 10.8564C283.783 10.665 283.427 10.4007 283.131 10.0635C282.839 9.72168 282.616 9.32292 282.461 8.86719C282.306 8.41146 282.229 7.91699 282.229 7.38379ZM283.493 7.22656V7.38379C283.493 7.75293 283.536 8.10156 283.623 8.42969C283.71 8.75326 283.84 9.04036 284.013 9.29102C284.19 9.54167 284.411 9.73991 284.676 9.88574C284.94 10.027 285.248 10.0977 285.599 10.0977C285.945 10.0977 286.248 10.027 286.508 9.88574C286.772 9.73991 286.991 9.54167 287.164 9.29102C287.337 9.04036 287.467 8.75326 287.554 8.42969C287.645 8.10156 287.69 7.75293 287.69 7.38379V7.22656C287.69 6.86198 287.645 6.5179 287.554 6.19434C287.467 5.86621 287.335 5.57682 287.157 5.32617C286.984 5.07096 286.765 4.87044 286.501 4.72461C286.241 4.57878 285.936 4.50586 285.585 4.50586C285.239 4.50586 284.933 4.57878 284.669 4.72461C284.409 4.87044 284.19 5.07096 284.013 5.32617C283.84 5.57682 283.71 5.86621 283.623 6.19434C283.536 6.5179 283.493 6.86198 283.493 7.22656ZM294.021 7.74609H291.594L291.58 6.73438H293.562C293.954 6.73438 294.28 6.69564 294.54 6.61816C294.804 6.54069 295.003 6.42448 295.135 6.26953C295.267 6.11458 295.333 5.92318 295.333 5.69531C295.333 5.51758 295.294 5.36263 295.217 5.23047C295.144 5.09375 295.032 4.9821 294.882 4.89551C294.731 4.80436 294.545 4.73828 294.321 4.69727C294.103 4.65169 293.845 4.62891 293.549 4.62891H291.929V11H290.664V3.60352H293.549C294.018 3.60352 294.44 3.64453 294.813 3.72656C295.192 3.80859 295.513 3.93392 295.777 4.10254C296.046 4.2666 296.251 4.47624 296.393 4.73145C296.534 4.98665 296.604 5.28743 296.604 5.63379C296.604 5.8571 296.559 6.06901 296.468 6.26953C296.377 6.47005 296.242 6.64779 296.064 6.80273C295.887 6.95768 295.668 7.08529 295.408 7.18555C295.148 7.28125 294.85 7.34277 294.513 7.37012L294.021 7.74609ZM294.021 11H291.136L291.765 9.97461H294.021C294.371 9.97461 294.663 9.93132 294.896 9.84473C295.128 9.75358 295.301 9.62598 295.415 9.46191C295.534 9.29329 295.593 9.09277 295.593 8.86035C295.593 8.62793 295.534 8.42969 295.415 8.26562C295.301 8.09701 295.128 7.9694 294.896 7.88281C294.663 7.79167 294.371 7.74609 294.021 7.74609H292.1L292.113 6.73438H294.513L294.971 7.11719C295.376 7.14909 295.72 7.24935 296.003 7.41797C296.285 7.58659 296.5 7.80078 296.646 8.06055C296.791 8.31576 296.864 8.59375 296.864 8.89453C296.864 9.24089 296.798 9.54622 296.666 9.81055C296.538 10.0749 296.352 10.2959 296.105 10.4736C295.859 10.6468 295.561 10.779 295.21 10.8701C294.859 10.9567 294.463 11 294.021 11ZM298.348 4.29395C298.348 4.07975 298.414 3.89974 298.546 3.75391C298.683 3.60352 298.879 3.52832 299.134 3.52832C299.389 3.52832 299.583 3.60352 299.715 3.75391C299.852 3.89974 299.92 4.07975 299.92 4.29395C299.92 4.50358 299.852 4.68132 299.715 4.82715C299.583 4.97298 299.389 5.0459 299.134 5.0459C298.879 5.0459 298.683 4.97298 298.546 4.82715C298.414 4.68132 298.348 4.50358 298.348 4.29395ZM299.79 9.49609V10.5146C299.79 10.9294 299.685 11.3669 299.476 11.8271C299.266 12.292 298.972 12.6794 298.594 12.9893L297.876 12.4902C298.022 12.2897 298.145 12.0846 298.245 11.875C298.345 11.6699 298.421 11.4557 298.471 11.2324C298.525 11.0137 298.553 10.7812 298.553 10.5352V9.49609H299.79Z" fill="#303030" fill-opacity="0.9"/>
</svg>
