<svg width="237" height="36" viewBox="0 0 237 36" fill="none" xmlns="http://www.w3.org/2000/svg">
<path d="M6.54199 6.60352V14H5.27734V6.60352H6.54199ZM6.11133 10.001V11.04C5.85612 11.1357 5.59635 11.2223 5.33203 11.2998C5.07227 11.3727 4.79655 11.432 4.50488 11.4775C4.21777 11.5186 3.9056 11.5391 3.56836 11.5391C2.98503 11.5391 2.47917 11.4388 2.05078 11.2383C1.6224 11.0332 1.29199 10.7256 1.05957 10.3154C0.827148 9.90072 0.710938 9.37891 0.710938 8.75V6.58984H1.97559V8.75C1.97559 9.16016 2.03711 9.49284 2.16016 9.74805C2.2832 10.0033 2.46322 10.1924 2.7002 10.3154C2.93717 10.4339 3.22656 10.4932 3.56836 10.4932C3.89648 10.4932 4.2041 10.4727 4.49121 10.4316C4.78288 10.3861 5.06087 10.3268 5.3252 10.2539C5.59408 10.181 5.85612 10.0967 6.11133 10.001ZM11.6484 14.1367C11.1335 14.1367 10.6663 14.0501 10.2471 13.877C9.83236 13.6992 9.47461 13.4508 9.17383 13.1318C8.8776 12.8128 8.64974 12.4346 8.49023 11.9971C8.33073 11.5596 8.25098 11.0811 8.25098 10.5615V10.2744C8.25098 9.67285 8.33984 9.13737 8.51758 8.66797C8.69531 8.19401 8.93685 7.79297 9.24219 7.46484C9.54753 7.13672 9.89388 6.88835 10.2812 6.71973C10.6686 6.55111 11.0697 6.4668 11.4844 6.4668C12.013 6.4668 12.4688 6.55794 12.8516 6.74023C13.2389 6.92253 13.5557 7.17773 13.8018 7.50586C14.0479 7.82943 14.2301 8.21224 14.3486 8.6543C14.4671 9.0918 14.5264 9.57031 14.5264 10.0898V10.6572H9.00293V9.625H13.2617V9.5293C13.2435 9.20117 13.1751 8.88216 13.0566 8.57227C12.9427 8.26237 12.7604 8.00716 12.5098 7.80664C12.2591 7.60612 11.9173 7.50586 11.4844 7.50586C11.1973 7.50586 10.9329 7.56738 10.6914 7.69043C10.4499 7.80892 10.2425 7.98665 10.0693 8.22363C9.89616 8.46061 9.76172 8.75 9.66602 9.0918C9.57031 9.43359 9.52246 9.8278 9.52246 10.2744V10.5615C9.52246 10.9124 9.57031 11.2428 9.66602 11.5527C9.76628 11.8581 9.90983 12.127 10.0967 12.3594C10.2881 12.5918 10.5182 12.7741 10.7871 12.9062C11.0605 13.0384 11.3704 13.1045 11.7168 13.1045C12.1634 13.1045 12.5417 13.0133 12.8516 12.8311C13.1615 12.6488 13.4326 12.4049 13.665 12.0996L14.4307 12.708C14.2712 12.9495 14.0684 13.1797 13.8223 13.3984C13.5762 13.6172 13.2731 13.7949 12.9131 13.9316C12.5576 14.0684 12.1361 14.1367 11.6484 14.1367ZM17.2676 8.02539V16.8438H15.9961V6.60352H17.1582L17.2676 8.02539ZM22.251 10.2402V10.3838C22.251 10.9215 22.1872 11.4206 22.0596 11.8809C21.932 12.3366 21.7451 12.7331 21.499 13.0703C21.2575 13.4076 20.959 13.6696 20.6035 13.8564C20.248 14.0433 19.8402 14.1367 19.3799 14.1367C18.9105 14.1367 18.4958 14.0592 18.1357 13.9043C17.7757 13.7493 17.4704 13.5238 17.2197 13.2275C16.9691 12.9313 16.7686 12.5758 16.6182 12.1611C16.4723 11.7464 16.3721 11.2793 16.3174 10.7598V9.99414C16.3721 9.44727 16.4746 8.95736 16.625 8.52441C16.7754 8.09147 16.9736 7.72233 17.2197 7.41699C17.4704 7.1071 17.7734 6.8724 18.1289 6.71289C18.4844 6.54883 18.8945 6.4668 19.3594 6.4668C19.8242 6.4668 20.2367 6.55794 20.5967 6.74023C20.9567 6.91797 21.2598 7.17318 21.5059 7.50586C21.752 7.83854 21.9365 8.2373 22.0596 8.70215C22.1872 9.16243 22.251 9.67513 22.251 10.2402ZM20.9795 10.3838V10.2402C20.9795 9.87109 20.9408 9.52474 20.8633 9.20117C20.7858 8.87305 20.665 8.58594 20.501 8.33984C20.3415 8.08919 20.1364 7.89323 19.8857 7.75195C19.6351 7.60612 19.3366 7.5332 18.9902 7.5332C18.6712 7.5332 18.3932 7.58789 18.1562 7.69727C17.9238 7.80664 17.7256 7.95475 17.5615 8.1416C17.3975 8.32389 17.263 8.53353 17.1582 8.77051C17.0579 9.00293 16.9827 9.24447 16.9326 9.49512V11.2656C17.0238 11.5846 17.1514 11.8854 17.3154 12.168C17.4795 12.446 17.6982 12.6715 17.9717 12.8447C18.2451 13.0133 18.5892 13.0977 19.0039 13.0977C19.3457 13.0977 19.6396 13.027 19.8857 12.8857C20.1364 12.7399 20.3415 12.5417 20.501 12.291C20.665 12.0404 20.7858 11.7533 20.8633 11.4297C20.9408 11.1016 20.9795 10.7529 20.9795 10.3838ZM26.332 6.60352V14H25.0605V6.60352H26.332ZM28.8135 6.60352V7.62891H22.627V6.60352H28.8135ZM32.5801 14.1367C32.0651 14.1367 31.598 14.0501 31.1787 13.877C30.764 13.6992 30.4062 13.4508 30.1055 13.1318C29.8092 12.8128 29.5814 12.4346 29.4219 11.9971C29.2624 11.5596 29.1826 11.0811 29.1826 10.5615V10.2744C29.1826 9.67285 29.2715 9.13737 29.4492 8.66797C29.627 8.19401 29.8685 7.79297 30.1738 7.46484C30.4792 7.13672 30.8255 6.88835 31.2129 6.71973C31.6003 6.55111 32.0013 6.4668 32.416 6.4668C32.9447 6.4668 33.4004 6.55794 33.7832 6.74023C34.1706 6.92253 34.4873 7.17773 34.7334 7.50586C34.9795 7.82943 35.1618 8.21224 35.2803 8.6543C35.3988 9.0918 35.458 9.57031 35.458 10.0898V10.6572H29.9346V9.625H34.1934V9.5293C34.1751 9.20117 34.1068 8.88216 33.9883 8.57227C33.8743 8.26237 33.6921 8.00716 33.4414 7.80664C33.1908 7.60612 32.849 7.50586 32.416 7.50586C32.1289 7.50586 31.8646 7.56738 31.623 7.69043C31.3815 7.80892 31.1742 7.98665 31.001 8.22363C30.8278 8.46061 30.6934 8.75 30.5977 9.0918C30.502 9.43359 30.4541 9.8278 30.4541 10.2744V10.5615C30.4541 10.9124 30.502 11.2428 30.5977 11.5527C30.6979 11.8581 30.8415 12.127 31.0283 12.3594C31.2197 12.5918 31.4499 12.7741 31.7188 12.9062C31.9922 13.0384 32.3021 13.1045 32.6484 13.1045C33.0951 13.1045 33.4733 13.0133 33.7832 12.8311C34.0931 12.6488 34.3643 12.4049 34.5967 12.0996L35.3623 12.708C35.2028 12.9495 35 13.1797 34.7539 13.3984C34.5078 13.6172 34.2048 13.7949 33.8447 13.9316C33.4893 14.0684 33.0677 14.1367 32.5801 14.1367ZM39.1768 10.7803L36.374 6.60352H37.8984L39.8125 9.66602H41.2891L41.1045 10.7803H39.1768ZM39.8672 10.6504L37.7207 14H36.1211L39.0674 9.73438L39.8672 10.6504ZM41.9385 6.60352V14H40.6738V6.60352H41.9385ZM46.252 6.60352L43.4492 10.7803H41.5215L41.3232 9.66602H42.8066L44.7207 6.60352H46.252ZM44.8984 14L42.7451 10.6504L43.5586 9.73438L46.498 14H44.8984ZM49.0342 11.9971L52.4453 6.60352H53.7168V14H52.4453V8.60645L49.0342 14H47.7764V6.60352H49.0342V11.9971ZM64.2373 9.80957V10.835H60.3271V9.80957H64.2373ZM60.5938 6.60352V14H59.3291V6.60352H60.5938ZM65.2627 6.60352V14H63.9912V6.60352H65.2627ZM71.6611 12.7354V8.92773C71.6611 8.63607 71.6019 8.38314 71.4834 8.16895C71.3695 7.9502 71.1963 7.78158 70.9639 7.66309C70.7314 7.5446 70.4443 7.48535 70.1025 7.48535C69.7835 7.48535 69.5033 7.54004 69.2617 7.64941C69.0247 7.75879 68.8379 7.90234 68.7012 8.08008C68.569 8.25781 68.5029 8.44922 68.5029 8.6543H67.2383C67.2383 8.38997 67.3066 8.12793 67.4434 7.86816C67.5801 7.6084 67.776 7.3737 68.0312 7.16406C68.291 6.94987 68.6009 6.78125 68.9609 6.6582C69.3255 6.5306 69.7311 6.4668 70.1777 6.4668C70.7155 6.4668 71.1895 6.55794 71.5996 6.74023C72.0143 6.92253 72.3379 7.19824 72.5703 7.56738C72.8073 7.93197 72.9258 8.38997 72.9258 8.94141V12.3867C72.9258 12.6328 72.9463 12.8949 72.9873 13.1729C73.0329 13.4508 73.099 13.6901 73.1855 13.8906V14H71.8662C71.8024 13.8542 71.7523 13.6605 71.7158 13.4189C71.6794 13.1729 71.6611 12.945 71.6611 12.7354ZM71.8799 9.51562L71.8936 10.4043H70.6152C70.2552 10.4043 69.9339 10.4339 69.6514 10.4932C69.3688 10.5479 69.1318 10.6322 68.9404 10.7461C68.749 10.86 68.6032 11.0036 68.5029 11.1768C68.4027 11.3454 68.3525 11.5436 68.3525 11.7715C68.3525 12.0039 68.4049 12.2158 68.5098 12.4072C68.6146 12.5986 68.7718 12.7513 68.9814 12.8652C69.1956 12.9746 69.4577 13.0293 69.7676 13.0293C70.1549 13.0293 70.4967 12.9473 70.793 12.7832C71.0892 12.6191 71.3239 12.4186 71.4971 12.1816C71.6748 11.9447 71.7705 11.7145 71.7842 11.4912L72.3242 12.0996C72.2923 12.291 72.2057 12.5029 72.0645 12.7354C71.9232 12.9678 71.734 13.1911 71.4971 13.4053C71.2646 13.6149 70.9867 13.7904 70.6631 13.9316C70.3441 14.0684 69.984 14.1367 69.583 14.1367C69.0817 14.1367 68.6419 14.0387 68.2637 13.8428C67.89 13.6468 67.5983 13.3848 67.3887 13.0566C67.1836 12.724 67.0811 12.3525 67.0811 11.9424C67.0811 11.5459 67.1585 11.1973 67.3135 10.8965C67.4684 10.5911 67.6917 10.3382 67.9834 10.1377C68.2751 9.93262 68.626 9.77767 69.0361 9.67285C69.4463 9.56803 69.9043 9.51562 70.4102 9.51562H71.8799ZM79.8438 6.60352V7.64941H76.1045V6.60352H79.8438ZM76.2891 6.60352V14H75.0244V6.60352H76.2891ZM80.9648 6.60352V14H79.6934V6.60352H80.9648ZM82.6602 10.3838V10.2266C82.6602 9.69336 82.7376 9.19889 82.8926 8.74316C83.0475 8.28288 83.2708 7.88411 83.5625 7.54688C83.8542 7.20508 84.2074 6.94076 84.6221 6.75391C85.0368 6.5625 85.5016 6.4668 86.0166 6.4668C86.5361 6.4668 87.0033 6.5625 87.418 6.75391C87.8372 6.94076 88.1927 7.20508 88.4844 7.54688C88.7806 7.88411 89.0062 8.28288 89.1611 8.74316C89.3161 9.19889 89.3936 9.69336 89.3936 10.2266V10.3838C89.3936 10.917 89.3161 11.4115 89.1611 11.8672C89.0062 12.3229 88.7806 12.7217 88.4844 13.0635C88.1927 13.4007 87.8395 13.665 87.4248 13.8564C87.0146 14.0433 86.5498 14.1367 86.0303 14.1367C85.5107 14.1367 85.0436 14.0433 84.6289 13.8564C84.2142 13.665 83.8587 13.4007 83.5625 13.0635C83.2708 12.7217 83.0475 12.3229 82.8926 11.8672C82.7376 11.4115 82.6602 10.917 82.6602 10.3838ZM83.9248 10.2266V10.3838C83.9248 10.7529 83.9681 11.1016 84.0547 11.4297C84.1413 11.7533 84.2712 12.0404 84.4443 12.291C84.6221 12.5417 84.8431 12.7399 85.1074 12.8857C85.3717 13.027 85.6794 13.0977 86.0303 13.0977C86.3766 13.0977 86.6797 13.027 86.9395 12.8857C87.2038 12.7399 87.4225 12.5417 87.5957 12.291C87.7689 12.0404 87.8988 11.7533 87.9854 11.4297C88.0765 11.1016 88.1221 10.7529 88.1221 10.3838V10.2266C88.1221 9.86198 88.0765 9.5179 87.9854 9.19434C87.8988 8.86621 87.7666 8.57682 87.5889 8.32617C87.4157 8.07096 87.1969 7.87044 86.9326 7.72461C86.6729 7.57878 86.3675 7.50586 86.0166 7.50586C85.6702 7.50586 85.3649 7.57878 85.1006 7.72461C84.8408 7.87044 84.6221 8.07096 84.4443 8.32617C84.2712 8.57682 84.1413 8.86621 84.0547 9.19434C83.9681 9.5179 83.9248 9.86198 83.9248 10.2266ZM95.8125 6.60352V7.64941H92.2373V6.60352H95.8125ZM96.9268 6.60352V14H95.6621V6.60352H96.9268ZM91.9297 6.60352H93.2012L93.0098 10.1719C92.9779 10.7233 92.9255 11.2109 92.8525 11.6348C92.7842 12.054 92.6885 12.4141 92.5654 12.7148C92.4469 13.0156 92.2965 13.2617 92.1143 13.4531C91.9365 13.64 91.7223 13.779 91.4717 13.8701C91.221 13.9567 90.9316 14 90.6035 14H90.207V12.8857L90.4805 12.8652C90.6764 12.8516 90.8428 12.806 90.9795 12.7285C91.1208 12.651 91.2393 12.5371 91.335 12.3867C91.4307 12.2318 91.5081 12.0335 91.5674 11.792C91.6312 11.5505 91.679 11.2633 91.7109 10.9307C91.7474 10.598 91.7747 10.2106 91.793 9.76855L91.9297 6.60352ZM100.003 9.14648H102.225C102.822 9.14648 103.325 9.2513 103.735 9.46094C104.146 9.66602 104.455 9.95085 104.665 10.3154C104.879 10.6755 104.986 11.0856 104.986 11.5459C104.986 11.8877 104.927 12.209 104.809 12.5098C104.69 12.806 104.512 13.0658 104.275 13.2891C104.043 13.5124 103.754 13.6878 103.407 13.8154C103.065 13.9385 102.671 14 102.225 14H99.0801V6.60352H100.345V12.9609H102.225C102.589 12.9609 102.881 12.8949 103.1 12.7627C103.318 12.6305 103.476 12.4596 103.571 12.25C103.667 12.0404 103.715 11.8216 103.715 11.5938C103.715 11.3704 103.667 11.1517 103.571 10.9375C103.476 10.7233 103.318 10.5456 103.1 10.4043C102.881 10.2585 102.589 10.1855 102.225 10.1855H100.003V9.14648ZM111.583 9.80957V10.835H107.673V9.80957H111.583ZM107.939 6.60352V14H106.675V6.60352H107.939ZM112.608 6.60352V14H111.337V6.60352H112.608ZM115.685 9.14648H117.906C118.503 9.14648 119.007 9.2513 119.417 9.46094C119.827 9.66602 120.137 9.95085 120.347 10.3154C120.561 10.6755 120.668 11.0856 120.668 11.5459C120.668 11.8877 120.609 12.209 120.49 12.5098C120.372 12.806 120.194 13.0658 119.957 13.2891C119.725 13.5124 119.435 13.6878 119.089 13.8154C118.747 13.9385 118.353 14 117.906 14H114.762V6.60352H116.026V12.9609H117.906C118.271 12.9609 118.562 12.8949 118.781 12.7627C119 12.6305 119.157 12.4596 119.253 12.25C119.349 12.0404 119.396 11.8216 119.396 11.5938C119.396 11.3704 119.349 11.1517 119.253 10.9375C119.157 10.7233 119 10.5456 118.781 10.4043C118.562 10.2585 118.271 10.1855 117.906 10.1855H115.685V9.14648ZM123.3 6.60352V14H122.035V6.60352H123.3ZM126.369 6.60352L127.989 9.29688L129.63 6.60352H131.113L128.693 10.2539L131.188 14H129.726L128.017 11.2246L126.308 14H124.838L127.326 10.2539L124.913 6.60352H126.369ZM140.861 6.60352V7.64941H137.122V6.60352H140.861ZM137.307 6.60352V14H136.042V6.60352H137.307ZM141.982 6.60352V14H140.711V6.60352H141.982ZM143.678 10.3838V10.2266C143.678 9.69336 143.755 9.19889 143.91 8.74316C144.065 8.28288 144.288 7.88411 144.58 7.54688C144.872 7.20508 145.225 6.94076 145.64 6.75391C146.054 6.5625 146.519 6.4668 147.034 6.4668C147.554 6.4668 148.021 6.5625 148.436 6.75391C148.855 6.94076 149.21 7.20508 149.502 7.54688C149.798 7.88411 150.024 8.28288 150.179 8.74316C150.334 9.19889 150.411 9.69336 150.411 10.2266V10.3838C150.411 10.917 150.334 11.4115 150.179 11.8672C150.024 12.3229 149.798 12.7217 149.502 13.0635C149.21 13.4007 148.857 13.665 148.442 13.8564C148.032 14.0433 147.567 14.1367 147.048 14.1367C146.528 14.1367 146.061 14.0433 145.646 13.8564C145.232 13.665 144.876 13.4007 144.58 13.0635C144.288 12.7217 144.065 12.3229 143.91 11.8672C143.755 11.4115 143.678 10.917 143.678 10.3838ZM144.942 10.2266V10.3838C144.942 10.7529 144.986 11.1016 145.072 11.4297C145.159 11.7533 145.289 12.0404 145.462 12.291C145.64 12.5417 145.861 12.7399 146.125 12.8857C146.389 13.027 146.697 13.0977 147.048 13.0977C147.394 13.0977 147.697 13.027 147.957 12.8857C148.221 12.7399 148.44 12.5417 148.613 12.291C148.786 12.0404 148.916 11.7533 149.003 11.4297C149.094 11.1016 149.14 10.7529 149.14 10.3838V10.2266C149.14 9.86198 149.094 9.5179 149.003 9.19434C148.916 8.86621 148.784 8.57682 148.606 8.32617C148.433 8.07096 148.215 7.87044 147.95 7.72461C147.69 7.57878 147.385 7.50586 147.034 7.50586C146.688 7.50586 146.382 7.57878 146.118 7.72461C145.858 7.87044 145.64 8.07096 145.462 8.32617C145.289 8.57682 145.159 8.86621 145.072 9.19434C144.986 9.5179 144.942 9.86198 144.942 10.2266ZM153.371 6.60352V14H152.106V6.60352H153.371ZM158.225 6.60352L154.718 10.8418H152.947L152.756 9.73438H154.205L156.687 6.60352H158.225ZM156.864 14L154.144 10.6504L154.957 9.73438L158.471 14H156.864ZM160.836 8.02539V16.8438H159.564V6.60352H160.727L160.836 8.02539ZM165.819 10.2402V10.3838C165.819 10.9215 165.756 11.4206 165.628 11.8809C165.5 12.3366 165.313 12.7331 165.067 13.0703C164.826 13.4076 164.527 13.6696 164.172 13.8564C163.816 14.0433 163.409 14.1367 162.948 14.1367C162.479 14.1367 162.064 14.0592 161.704 13.9043C161.344 13.7493 161.039 13.5238 160.788 13.2275C160.537 12.9313 160.337 12.5758 160.187 12.1611C160.041 11.7464 159.94 11.2793 159.886 10.7598V9.99414C159.94 9.44727 160.043 8.95736 160.193 8.52441C160.344 8.09147 160.542 7.72233 160.788 7.41699C161.039 7.1071 161.342 6.8724 161.697 6.71289C162.053 6.54883 162.463 6.4668 162.928 6.4668C163.393 6.4668 163.805 6.55794 164.165 6.74023C164.525 6.91797 164.828 7.17318 165.074 7.50586C165.32 7.83854 165.505 8.2373 165.628 8.70215C165.756 9.16243 165.819 9.67513 165.819 10.2402ZM164.548 10.3838V10.2402C164.548 9.87109 164.509 9.52474 164.432 9.20117C164.354 8.87305 164.233 8.58594 164.069 8.33984C163.91 8.08919 163.705 7.89323 163.454 7.75195C163.203 7.60612 162.905 7.5332 162.559 7.5332C162.24 7.5332 161.962 7.58789 161.725 7.69727C161.492 7.80664 161.294 7.95475 161.13 8.1416C160.966 8.32389 160.831 8.53353 160.727 8.77051C160.626 9.00293 160.551 9.24447 160.501 9.49512V11.2656C160.592 11.5846 160.72 11.8854 160.884 12.168C161.048 12.446 161.267 12.6715 161.54 12.8447C161.813 13.0133 162.158 13.0977 162.572 13.0977C162.914 13.0977 163.208 13.027 163.454 12.8857C163.705 12.7399 163.91 12.5417 164.069 12.291C164.233 12.0404 164.354 11.7533 164.432 11.4297C164.509 11.1016 164.548 10.7529 164.548 10.3838ZM168.472 9.14648H170.693C171.29 9.14648 171.794 9.2513 172.204 9.46094C172.614 9.66602 172.924 9.95085 173.134 10.3154C173.348 10.6755 173.455 11.0856 173.455 11.5459C173.455 11.8877 173.396 12.209 173.277 12.5098C173.159 12.806 172.981 13.0658 172.744 13.2891C172.512 13.5124 172.222 13.6878 171.876 13.8154C171.534 13.9385 171.14 14 170.693 14H167.549V6.60352H168.813V12.9609H170.693C171.058 12.9609 171.35 12.8949 171.568 12.7627C171.787 12.6305 171.944 12.4596 172.04 12.25C172.136 12.0404 172.184 11.8216 172.184 11.5938C172.184 11.3704 172.136 11.1517 172.04 10.9375C171.944 10.7233 171.787 10.5456 171.568 10.4043C171.35 10.2585 171.058 10.1855 170.693 10.1855H168.472V9.14648ZM176.087 6.60352V14H174.822V6.60352H176.087ZM181.316 6.60352V14H180.045V6.60352H181.316ZM183.798 6.60352V7.62891H177.611V6.60352H183.798ZM186.409 11.9971L189.82 6.60352H191.092V14H189.82V8.60645L186.409 14H185.151V6.60352H186.409V11.9971ZM194.489 11.9971L197.9 6.60352H199.172V14H197.9V8.60645L194.489 14H193.231V6.60352H194.489V11.9971ZM197.21 3.92383H198.235C198.235 4.2793 198.153 4.59603 197.989 4.87402C197.825 5.14746 197.59 5.36165 197.285 5.5166C196.98 5.67155 196.618 5.74902 196.198 5.74902C195.565 5.74902 195.063 5.5804 194.694 5.24316C194.33 4.90137 194.147 4.46159 194.147 3.92383H195.173C195.173 4.19271 195.25 4.42969 195.405 4.63477C195.56 4.83984 195.825 4.94238 196.198 4.94238C196.563 4.94238 196.823 4.83984 196.978 4.63477C197.132 4.42969 197.21 4.19271 197.21 3.92383ZM202.351 12.4961V13.5146C202.351 13.9294 202.246 14.3669 202.036 14.8271C201.826 15.292 201.533 15.6794 201.154 15.9893L200.437 15.4902C200.582 15.2897 200.705 15.0846 200.806 14.875C200.906 14.6699 200.981 14.4557 201.031 14.2324C201.086 14.0137 201.113 13.7812 201.113 13.5352V12.4961H202.351ZM3.97852 24.6035V32H2.70703V24.6035H3.97852ZM6.45996 24.6035V25.6289H0.273438V24.6035H6.45996ZM10.2266 32.1367C9.71159 32.1367 9.24447 32.0501 8.8252 31.877C8.41048 31.6992 8.05273 31.4508 7.75195 31.1318C7.45573 30.8128 7.22786 30.4346 7.06836 29.9971C6.90885 29.5596 6.8291 29.0811 6.8291 28.5615V28.2744C6.8291 27.6729 6.91797 27.1374 7.0957 26.668C7.27344 26.194 7.51497 25.793 7.82031 25.4648C8.12565 25.1367 8.47201 24.8883 8.85938 24.7197C9.24674 24.5511 9.64779 24.4668 10.0625 24.4668C10.5911 24.4668 11.0469 24.5579 11.4297 24.7402C11.8171 24.9225 12.1338 25.1777 12.3799 25.5059C12.626 25.8294 12.8083 26.2122 12.9268 26.6543C13.0452 27.0918 13.1045 27.5703 13.1045 28.0898V28.6572H7.58105V27.625H11.8398V27.5293C11.8216 27.2012 11.7533 26.8822 11.6348 26.5723C11.5208 26.2624 11.3385 26.0072 11.0879 25.8066C10.8372 25.6061 10.4954 25.5059 10.0625 25.5059C9.77539 25.5059 9.51107 25.5674 9.26953 25.6904C9.02799 25.8089 8.82064 25.9867 8.64746 26.2236C8.47428 26.4606 8.33984 26.75 8.24414 27.0918C8.14844 27.4336 8.10059 27.8278 8.10059 28.2744V28.5615C8.10059 28.9124 8.14844 29.2428 8.24414 29.5527C8.3444 29.8581 8.48796 30.127 8.6748 30.3594C8.86621 30.5918 9.09635 30.7741 9.36523 30.9062C9.63867 31.0384 9.94857 31.1045 10.2949 31.1045C10.7415 31.1045 11.1198 31.0133 11.4297 30.8311C11.7396 30.6488 12.0107 30.4049 12.2432 30.0996L13.0088 30.708C12.8493 30.9495 12.6465 31.1797 12.4004 31.3984C12.1543 31.6172 11.8512 31.7949 11.4912 31.9316C11.1357 32.0684 10.7142 32.1367 10.2266 32.1367ZM7.85449 22.6279C7.85449 22.4229 7.91829 22.2497 8.0459 22.1084C8.1735 21.9671 8.35807 21.8965 8.59961 21.8965C8.8457 21.8965 9.03255 21.9671 9.16016 22.1084C9.28776 22.2497 9.35156 22.4229 9.35156 22.6279C9.35156 22.8239 9.28776 22.9925 9.16016 23.1338C9.03255 23.2705 8.8457 23.3389 8.59961 23.3389C8.35807 23.3389 8.1735 23.2705 8.0459 23.1338C7.91829 22.9925 7.85449 22.8239 7.85449 22.6279ZM10.8008 22.6416C10.8008 22.4365 10.8623 22.2633 10.9854 22.1221C11.113 21.9808 11.2998 21.9102 11.5459 21.9102C11.7874 21.9102 11.972 21.9808 12.0996 22.1221C12.2318 22.2633 12.2979 22.4365 12.2979 22.6416C12.2979 22.8376 12.2318 23.0062 12.0996 23.1475C11.972 23.2842 11.7874 23.3525 11.5459 23.3525C11.2998 23.3525 11.113 23.2842 10.9854 23.1475C10.8623 23.0062 10.8008 22.8376 10.8008 22.6416ZM19.5098 24.6035V25.6494H15.7705V24.6035H19.5098ZM15.9551 24.6035V32H14.6904V24.6035H15.9551ZM20.6309 24.6035V32H19.3594V24.6035H20.6309ZM27.6035 24.6035V25.6494H24.0283V24.6035H27.6035ZM28.7178 24.6035V32H27.4531V24.6035H28.7178ZM23.7207 24.6035H24.9922L24.8008 28.1719C24.7689 28.7233 24.7165 29.2109 24.6436 29.6348C24.5752 30.054 24.4795 30.4141 24.3564 30.7148C24.238 31.0156 24.0876 31.2617 23.9053 31.4531C23.7275 31.64 23.5133 31.779 23.2627 31.8701C23.012 31.9567 22.7227 32 22.3945 32H21.998V30.8857L22.2715 30.8652C22.4674 30.8516 22.6338 30.806 22.7705 30.7285C22.9118 30.651 23.0303 30.5371 23.126 30.3867C23.2217 30.2318 23.2992 30.0335 23.3584 29.792C23.4222 29.5505 23.4701 29.2633 23.502 28.9307C23.5384 28.598 23.5658 28.2106 23.584 27.7686L23.7207 24.6035ZM31.7939 27.1465H34.0156C34.6126 27.1465 35.1162 27.2513 35.5264 27.4609C35.9365 27.666 36.2464 27.9508 36.4561 28.3154C36.6702 28.6755 36.7773 29.0856 36.7773 29.5459C36.7773 29.8877 36.7181 30.209 36.5996 30.5098C36.4811 30.806 36.3034 31.0658 36.0664 31.2891C35.834 31.5124 35.5446 31.6878 35.1982 31.8154C34.8564 31.9385 34.4622 32 34.0156 32H30.8711V24.6035H32.1357V30.9609H34.0156C34.3802 30.9609 34.6719 30.8949 34.8906 30.7627C35.1094 30.6305 35.2666 30.4596 35.3623 30.25C35.458 30.0404 35.5059 29.8216 35.5059 29.5938C35.5059 29.3704 35.458 29.1517 35.3623 28.9375C35.2666 28.7233 35.1094 28.5456 34.8906 28.4043C34.6719 28.2585 34.3802 28.1855 34.0156 28.1855H31.7939V27.1465ZM39.4092 24.6035V32H38.1445V24.6035H39.4092ZM42.4785 24.6035L44.0986 27.2969L45.7393 24.6035H47.2227L44.8027 28.2539L47.2979 32H45.835L44.126 29.2246L42.417 32H40.9473L43.4355 28.2539L41.0225 24.6035H42.4785ZM56.9707 24.6035V25.6494H53.2314V24.6035H56.9707ZM53.416 24.6035V32H52.1514V24.6035H53.416ZM58.0918 24.6035V32H56.8203V24.6035H58.0918ZM59.7871 28.3838V28.2266C59.7871 27.6934 59.8646 27.1989 60.0195 26.7432C60.1745 26.2829 60.3978 25.8841 60.6895 25.5469C60.9811 25.2051 61.3343 24.9408 61.749 24.7539C62.1637 24.5625 62.6286 24.4668 63.1436 24.4668C63.6631 24.4668 64.1302 24.5625 64.5449 24.7539C64.9642 24.9408 65.3197 25.2051 65.6113 25.5469C65.9076 25.8841 66.1331 26.2829 66.2881 26.7432C66.443 27.1989 66.5205 27.6934 66.5205 28.2266V28.3838C66.5205 28.917 66.443 29.4115 66.2881 29.8672C66.1331 30.3229 65.9076 30.7217 65.6113 31.0635C65.3197 31.4007 64.9665 31.665 64.5518 31.8564C64.1416 32.0433 63.6768 32.1367 63.1572 32.1367C62.6377 32.1367 62.1706 32.0433 61.7559 31.8564C61.3411 31.665 60.9857 31.4007 60.6895 31.0635C60.3978 30.7217 60.1745 30.3229 60.0195 29.8672C59.8646 29.4115 59.7871 28.917 59.7871 28.3838ZM61.0518 28.2266V28.3838C61.0518 28.7529 61.0951 29.1016 61.1816 29.4297C61.2682 29.7533 61.3981 30.0404 61.5713 30.291C61.749 30.5417 61.9701 30.7399 62.2344 30.8857C62.4987 31.027 62.8063 31.0977 63.1572 31.0977C63.5036 31.0977 63.8066 31.027 64.0664 30.8857C64.3307 30.7399 64.5495 30.5417 64.7227 30.291C64.8958 30.0404 65.0257 29.7533 65.1123 29.4297C65.2035 29.1016 65.249 28.7529 65.249 28.3838V28.2266C65.249 27.862 65.2035 27.5179 65.1123 27.1943C65.0257 26.8662 64.8936 26.5768 64.7158 26.3262C64.5426 26.071 64.3239 25.8704 64.0596 25.7246C63.7998 25.5788 63.4945 25.5059 63.1436 25.5059C62.7972 25.5059 62.4919 25.5788 62.2275 25.7246C61.9678 25.8704 61.749 26.071 61.5713 26.3262C61.3981 26.5768 61.2682 26.8662 61.1816 27.1943C61.0951 27.5179 61.0518 27.862 61.0518 28.2266ZM72.9395 24.6035V25.6494H69.3643V24.6035H72.9395ZM74.0537 24.6035V32H72.7891V24.6035H74.0537ZM69.0566 24.6035H70.3281L70.1367 28.1719C70.1048 28.7233 70.0524 29.2109 69.9795 29.6348C69.9111 30.054 69.8154 30.4141 69.6924 30.7148C69.5739 31.0156 69.4235 31.2617 69.2412 31.4531C69.0635 31.64 68.8493 31.779 68.5986 31.8701C68.348 31.9567 68.0586 32 67.7305 32H67.334V30.8857L67.6074 30.8652C67.8034 30.8516 67.9697 30.806 68.1064 30.7285C68.2477 30.651 68.3662 30.5371 68.4619 30.3867C68.5576 30.2318 68.6351 30.0335 68.6943 29.792C68.7581 29.5505 68.806 29.2633 68.8379 28.9307C68.8743 28.598 68.9017 28.2106 68.9199 27.7686L69.0566 24.6035ZM75.7559 28.3838V28.2266C75.7559 27.6934 75.8333 27.1989 75.9883 26.7432C76.1432 26.2829 76.3665 25.8841 76.6582 25.5469C76.9499 25.2051 77.3031 24.9408 77.7178 24.7539C78.1325 24.5625 78.5973 24.4668 79.1123 24.4668C79.6318 24.4668 80.099 24.5625 80.5137 24.7539C80.9329 24.9408 81.2884 25.2051 81.5801 25.5469C81.8763 25.8841 82.1019 26.2829 82.2568 26.7432C82.4118 27.1989 82.4893 27.6934 82.4893 28.2266V28.3838C82.4893 28.917 82.4118 29.4115 82.2568 29.8672C82.1019 30.3229 81.8763 30.7217 81.5801 31.0635C81.2884 31.4007 80.9352 31.665 80.5205 31.8564C80.1104 32.0433 79.6455 32.1367 79.126 32.1367C78.6064 32.1367 78.1393 32.0433 77.7246 31.8564C77.3099 31.665 76.9544 31.4007 76.6582 31.0635C76.3665 30.7217 76.1432 30.3229 75.9883 29.8672C75.8333 29.4115 75.7559 28.917 75.7559 28.3838ZM77.0205 28.2266V28.3838C77.0205 28.7529 77.0638 29.1016 77.1504 29.4297C77.237 29.7533 77.3669 30.0404 77.54 30.291C77.7178 30.5417 77.9388 30.7399 78.2031 30.8857C78.4674 31.027 78.7751 31.0977 79.126 31.0977C79.4723 31.0977 79.7754 31.027 80.0352 30.8857C80.2995 30.7399 80.5182 30.5417 80.6914 30.291C80.8646 30.0404 80.9945 29.7533 81.0811 29.4297C81.1722 29.1016 81.2178 28.7529 81.2178 28.3838V28.2266C81.2178 27.862 81.1722 27.5179 81.0811 27.1943C80.9945 26.8662 80.8623 26.5768 80.6846 26.3262C80.5114 26.071 80.2926 25.8704 80.0283 25.7246C79.7686 25.5788 79.4632 25.5059 79.1123 25.5059C78.766 25.5059 78.4606 25.5788 78.1963 25.7246C77.9365 25.8704 77.7178 26.071 77.54 26.3262C77.3669 26.5768 77.237 26.8662 77.1504 27.1943C77.0638 27.5179 77.0205 27.862 77.0205 28.2266ZM87.5479 28.7461H85.1211L85.1074 27.7344H87.0898C87.4818 27.7344 87.8076 27.6956 88.0674 27.6182C88.3317 27.5407 88.5299 27.4245 88.6621 27.2695C88.7943 27.1146 88.8604 26.9232 88.8604 26.6953C88.8604 26.5176 88.8216 26.3626 88.7441 26.2305C88.6712 26.0938 88.5596 25.9821 88.4092 25.8955C88.2588 25.8044 88.0719 25.7383 87.8486 25.6973C87.6299 25.6517 87.3724 25.6289 87.0762 25.6289H85.4561V32H84.1914V24.6035H87.0762C87.5456 24.6035 87.9671 24.6445 88.3408 24.7266C88.7191 24.8086 89.0404 24.9339 89.3047 25.1025C89.5736 25.2666 89.7786 25.4762 89.9199 25.7314C90.0612 25.9867 90.1318 26.2874 90.1318 26.6338C90.1318 26.8571 90.0863 27.069 89.9951 27.2695C89.904 27.4701 89.7695 27.6478 89.5918 27.8027C89.4141 27.9577 89.1953 28.0853 88.9355 28.1855C88.6758 28.2812 88.3773 28.3428 88.04 28.3701L87.5479 28.7461ZM87.5479 32H84.6631L85.292 30.9746H87.5479C87.8988 30.9746 88.1904 30.9313 88.4229 30.8447C88.6553 30.7536 88.8285 30.626 88.9424 30.4619C89.0609 30.2933 89.1201 30.0928 89.1201 29.8604C89.1201 29.6279 89.0609 29.4297 88.9424 29.2656C88.8285 29.097 88.6553 28.9694 88.4229 28.8828C88.1904 28.7917 87.8988 28.7461 87.5479 28.7461H85.627L85.6406 27.7344H88.04L88.498 28.1172C88.9036 28.1491 89.2477 28.2493 89.5303 28.418C89.8128 28.5866 90.027 28.8008 90.1729 29.0605C90.3187 29.3158 90.3916 29.5938 90.3916 29.8945C90.3916 30.2409 90.3255 30.5462 90.1934 30.8105C90.0658 31.0749 89.8789 31.2959 89.6328 31.4736C89.3867 31.6468 89.0882 31.779 88.7373 31.8701C88.3864 31.9567 87.9899 32 87.5479 32ZM91.875 25.2939C91.875 25.0798 91.9411 24.8997 92.0732 24.7539C92.21 24.6035 92.4059 24.5283 92.6611 24.5283C92.9163 24.5283 93.11 24.6035 93.2422 24.7539C93.3789 24.8997 93.4473 25.0798 93.4473 25.2939C93.4473 25.5036 93.3789 25.6813 93.2422 25.8271C93.11 25.973 92.9163 26.0459 92.6611 26.0459C92.4059 26.0459 92.21 25.973 92.0732 25.8271C91.9411 25.6813 91.875 25.5036 91.875 25.2939ZM93.3174 30.4961V31.5146C93.3174 31.9294 93.2126 32.3669 93.0029 32.8271C92.7933 33.292 92.4993 33.6794 92.1211 33.9893L91.4033 33.4902C91.5492 33.2897 91.6722 33.0846 91.7725 32.875C91.8727 32.6699 91.9479 32.4557 91.998 32.2324C92.0527 32.0137 92.0801 31.7812 92.0801 31.5352V30.4961H93.3174Z" fill="#303030" fill-opacity="0.9"/>
</svg>
