<svg width="256" height="18" viewBox="0 0 256 18" fill="none" xmlns="http://www.w3.org/2000/svg">
<path d="M5.89258 6.60352V7.64941H2.15332V6.60352H5.89258ZM2.33789 6.60352V14H1.07324V6.60352H2.33789ZM7.01367 6.60352V14H5.74219V6.60352H7.01367ZM13.9863 6.60352V7.64941H10.4111V6.60352H13.9863ZM15.1006 6.60352V14H13.8359V6.60352H15.1006ZM10.1035 6.60352H11.375L11.1836 10.1719C11.1517 10.7233 11.0993 11.2109 11.0264 11.6348C10.958 12.054 10.8623 12.4141 10.7393 12.7148C10.6208 13.0156 10.4704 13.2617 10.2881 13.4531C10.1104 13.64 9.89616 13.779 9.64551 13.8701C9.39486 13.9567 9.10547 14 8.77734 14H8.38086V12.8857L8.6543 12.8652C8.85026 12.8516 9.0166 12.806 9.15332 12.7285C9.2946 12.651 9.41309 12.5371 9.50879 12.3867C9.60449 12.2318 9.68197 12.0335 9.74121 11.792C9.80501 11.5505 9.85286 11.2633 9.88477 10.9307C9.92122 10.598 9.94857 10.2106 9.9668 9.76855L10.1035 6.60352ZM21.499 12.7354V8.92773C21.499 8.63607 21.4398 8.38314 21.3213 8.16895C21.2074 7.9502 21.0342 7.78158 20.8018 7.66309C20.5693 7.5446 20.2822 7.48535 19.9404 7.48535C19.6214 7.48535 19.3411 7.54004 19.0996 7.64941C18.8626 7.75879 18.6758 7.90234 18.5391 8.08008C18.4069 8.25781 18.3408 8.44922 18.3408 8.6543H17.0762C17.0762 8.38997 17.1445 8.12793 17.2812 7.86816C17.418 7.6084 17.6139 7.3737 17.8691 7.16406C18.1289 6.94987 18.4388 6.78125 18.7988 6.6582C19.1634 6.5306 19.569 6.4668 20.0156 6.4668C20.5534 6.4668 21.0273 6.55794 21.4375 6.74023C21.8522 6.92253 22.1758 7.19824 22.4082 7.56738C22.6452 7.93197 22.7637 8.38997 22.7637 8.94141V12.3867C22.7637 12.6328 22.7842 12.8949 22.8252 13.1729C22.8708 13.4508 22.9368 13.6901 23.0234 13.8906V14H21.7041C21.6403 13.8542 21.5902 13.6605 21.5537 13.4189C21.5173 13.1729 21.499 12.945 21.499 12.7354ZM21.7178 9.51562L21.7314 10.4043H20.4531C20.0931 10.4043 19.7718 10.4339 19.4893 10.4932C19.2067 10.5479 18.9697 10.6322 18.7783 10.7461C18.5869 10.86 18.4411 11.0036 18.3408 11.1768C18.2406 11.3454 18.1904 11.5436 18.1904 11.7715C18.1904 12.0039 18.2428 12.2158 18.3477 12.4072C18.4525 12.5986 18.6097 12.7513 18.8193 12.8652C19.0335 12.9746 19.2956 13.0293 19.6055 13.0293C19.9928 13.0293 20.3346 12.9473 20.6309 12.7832C20.9271 12.6191 21.1618 12.4186 21.335 12.1816C21.5127 11.9447 21.6084 11.7145 21.6221 11.4912L22.1621 12.0996C22.1302 12.291 22.0436 12.5029 21.9023 12.7354C21.7611 12.9678 21.5719 13.1911 21.335 13.4053C21.1025 13.6149 20.8245 13.7904 20.501 13.9316C20.182 14.0684 19.8219 14.1367 19.4209 14.1367C18.9196 14.1367 18.4798 14.0387 18.1016 13.8428C17.7279 13.6468 17.4362 13.3848 17.2266 13.0566C17.0215 12.724 16.9189 12.3525 16.9189 11.9424C16.9189 11.5459 16.9964 11.1973 17.1514 10.8965C17.3063 10.5911 17.5296 10.3382 17.8213 10.1377C18.113 9.93262 18.4639 9.77767 18.874 9.67285C19.2842 9.56803 19.7422 9.51562 20.248 9.51562H21.7178ZM29.7705 9.80957V10.835H25.8604V9.80957H29.7705ZM26.127 6.60352V14H24.8623V6.60352H26.127ZM30.7959 6.60352V14H29.5244V6.60352H30.7959ZM37.5703 8.02539V16.8438H36.2988V6.60352H37.4609L37.5703 8.02539ZM42.5537 10.2402V10.3838C42.5537 10.9215 42.4899 11.4206 42.3623 11.8809C42.2347 12.3366 42.0479 12.7331 41.8018 13.0703C41.5602 13.4076 41.2617 13.6696 40.9062 13.8564C40.5508 14.0433 40.1429 14.1367 39.6826 14.1367C39.2132 14.1367 38.7985 14.0592 38.4385 13.9043C38.0785 13.7493 37.7731 13.5238 37.5225 13.2275C37.2718 12.9313 37.0713 12.5758 36.9209 12.1611C36.7751 11.7464 36.6748 11.2793 36.6201 10.7598V9.99414C36.6748 9.44727 36.7773 8.95736 36.9277 8.52441C37.0781 8.09147 37.2764 7.72233 37.5225 7.41699C37.7731 7.1071 38.0762 6.8724 38.4316 6.71289C38.7871 6.54883 39.1973 6.4668 39.6621 6.4668C40.127 6.4668 40.5394 6.55794 40.8994 6.74023C41.2594 6.91797 41.5625 7.17318 41.8086 7.50586C42.0547 7.83854 42.2393 8.2373 42.3623 8.70215C42.4899 9.16243 42.5537 9.67513 42.5537 10.2402ZM41.2822 10.3838V10.2402C41.2822 9.87109 41.2435 9.52474 41.166 9.20117C41.0885 8.87305 40.9678 8.58594 40.8037 8.33984C40.6442 8.08919 40.4391 7.89323 40.1885 7.75195C39.9378 7.60612 39.6393 7.5332 39.293 7.5332C38.974 7.5332 38.696 7.58789 38.459 7.69727C38.2266 7.80664 38.0283 7.95475 37.8643 8.1416C37.7002 8.32389 37.5658 8.53353 37.4609 8.77051C37.3607 9.00293 37.2855 9.24447 37.2354 9.49512V11.2656C37.3265 11.5846 37.4541 11.8854 37.6182 12.168C37.7822 12.446 38.001 12.6715 38.2744 12.8447C38.5479 13.0133 38.8919 13.0977 39.3066 13.0977C39.6484 13.0977 39.9424 13.027 40.1885 12.8857C40.4391 12.7399 40.6442 12.5417 40.8037 12.291C40.9678 12.0404 41.0885 11.7533 41.166 11.4297C41.2435 11.1016 41.2822 10.7529 41.2822 10.3838ZM48.5283 12.7354V8.92773C48.5283 8.63607 48.4691 8.38314 48.3506 8.16895C48.2367 7.9502 48.0635 7.78158 47.8311 7.66309C47.5986 7.5446 47.3115 7.48535 46.9697 7.48535C46.6507 7.48535 46.3704 7.54004 46.1289 7.64941C45.8919 7.75879 45.7051 7.90234 45.5684 8.08008C45.4362 8.25781 45.3701 8.44922 45.3701 8.6543H44.1055C44.1055 8.38997 44.1738 8.12793 44.3105 7.86816C44.4473 7.6084 44.6432 7.3737 44.8984 7.16406C45.1582 6.94987 45.4681 6.78125 45.8281 6.6582C46.1927 6.5306 46.5983 6.4668 47.0449 6.4668C47.5827 6.4668 48.0566 6.55794 48.4668 6.74023C48.8815 6.92253 49.2051 7.19824 49.4375 7.56738C49.6745 7.93197 49.793 8.38997 49.793 8.94141V12.3867C49.793 12.6328 49.8135 12.8949 49.8545 13.1729C49.9001 13.4508 49.9661 13.6901 50.0527 13.8906V14H48.7334C48.6696 13.8542 48.6195 13.6605 48.583 13.4189C48.5465 13.1729 48.5283 12.945 48.5283 12.7354ZM48.7471 9.51562L48.7607 10.4043H47.4824C47.1224 10.4043 46.8011 10.4339 46.5186 10.4932C46.236 10.5479 45.999 10.6322 45.8076 10.7461C45.6162 10.86 45.4704 11.0036 45.3701 11.1768C45.2699 11.3454 45.2197 11.5436 45.2197 11.7715C45.2197 12.0039 45.2721 12.2158 45.377 12.4072C45.4818 12.5986 45.639 12.7513 45.8486 12.8652C46.0628 12.9746 46.3249 13.0293 46.6348 13.0293C47.0221 13.0293 47.3639 12.9473 47.6602 12.7832C47.9564 12.6191 48.1911 12.4186 48.3643 12.1816C48.542 11.9447 48.6377 11.7145 48.6514 11.4912L49.1914 12.0996C49.1595 12.291 49.0729 12.5029 48.9316 12.7354C48.7904 12.9678 48.6012 13.1911 48.3643 13.4053C48.1318 13.6149 47.8538 13.7904 47.5303 13.9316C47.2113 14.0684 46.8512 14.1367 46.4502 14.1367C45.9489 14.1367 45.5091 14.0387 45.1309 13.8428C44.7572 13.6468 44.4655 13.3848 44.2559 13.0566C44.0508 12.724 43.9482 12.3525 43.9482 11.9424C43.9482 11.5459 44.0257 11.1973 44.1807 10.8965C44.3356 10.5911 44.5589 10.3382 44.8506 10.1377C45.1423 9.93262 45.4932 9.77767 45.9033 9.67285C46.3135 9.56803 46.7715 9.51562 47.2773 9.51562H48.7471ZM54.7422 13.0977C55.043 13.0977 55.321 13.0361 55.5762 12.9131C55.8314 12.79 56.041 12.6214 56.2051 12.4072C56.3691 12.1885 56.4626 11.9401 56.4854 11.6621H57.6885C57.6657 12.0996 57.5176 12.5075 57.2441 12.8857C56.9753 13.2594 56.6221 13.5625 56.1846 13.7949C55.7471 14.0228 55.2663 14.1367 54.7422 14.1367C54.1862 14.1367 53.7008 14.0387 53.2861 13.8428C52.876 13.6468 52.5342 13.3779 52.2607 13.0361C51.9919 12.6943 51.7891 12.3024 51.6523 11.8604C51.5202 11.4137 51.4541 10.9421 51.4541 10.4453V10.1582C51.4541 9.66146 51.5202 9.19206 51.6523 8.75C51.7891 8.30339 51.9919 7.90918 52.2607 7.56738C52.5342 7.22559 52.876 6.95671 53.2861 6.76074C53.7008 6.56478 54.1862 6.4668 54.7422 6.4668C55.321 6.4668 55.8268 6.58529 56.2598 6.82227C56.6927 7.05469 57.0322 7.3737 57.2783 7.7793C57.529 8.18034 57.6657 8.63607 57.6885 9.14648H56.4854C56.4626 8.84115 56.376 8.56543 56.2256 8.31934C56.0798 8.07324 55.8792 7.87728 55.624 7.73145C55.3734 7.58105 55.0794 7.50586 54.7422 7.50586C54.3548 7.50586 54.029 7.58333 53.7646 7.73828C53.5049 7.88867 53.2975 8.09375 53.1426 8.35352C52.9922 8.60872 52.8828 8.89355 52.8145 9.20801C52.7507 9.5179 52.7188 9.83464 52.7188 10.1582V10.4453C52.7188 10.7689 52.7507 11.0879 52.8145 11.4023C52.8783 11.7168 52.9854 12.0016 53.1357 12.2568C53.2907 12.512 53.498 12.7171 53.7578 12.8721C54.0221 13.0225 54.3503 13.0977 54.7422 13.0977ZM62.0703 13.0977C62.3711 13.0977 62.6491 13.0361 62.9043 12.9131C63.1595 12.79 63.3691 12.6214 63.5332 12.4072C63.6973 12.1885 63.7907 11.9401 63.8135 11.6621H65.0166C64.9938 12.0996 64.8457 12.5075 64.5723 12.8857C64.3034 13.2594 63.9502 13.5625 63.5127 13.7949C63.0752 14.0228 62.5944 14.1367 62.0703 14.1367C61.5143 14.1367 61.029 14.0387 60.6143 13.8428C60.2041 13.6468 59.8623 13.3779 59.5889 13.0361C59.32 12.6943 59.1172 12.3024 58.9805 11.8604C58.8483 11.4137 58.7822 10.9421 58.7822 10.4453V10.1582C58.7822 9.66146 58.8483 9.19206 58.9805 8.75C59.1172 8.30339 59.32 7.90918 59.5889 7.56738C59.8623 7.22559 60.2041 6.95671 60.6143 6.76074C61.029 6.56478 61.5143 6.4668 62.0703 6.4668C62.6491 6.4668 63.1549 6.58529 63.5879 6.82227C64.0208 7.05469 64.3604 7.3737 64.6064 7.7793C64.8571 8.18034 64.9938 8.63607 65.0166 9.14648H63.8135C63.7907 8.84115 63.7041 8.56543 63.5537 8.31934C63.4079 8.07324 63.2074 7.87728 62.9521 7.73145C62.7015 7.58105 62.4076 7.50586 62.0703 7.50586C61.6829 7.50586 61.3571 7.58333 61.0928 7.73828C60.833 7.88867 60.6257 8.09375 60.4707 8.35352C60.3203 8.60872 60.2109 8.89355 60.1426 9.20801C60.0788 9.5179 60.0469 9.83464 60.0469 10.1582V10.4453C60.0469 10.7689 60.0788 11.0879 60.1426 11.4023C60.2064 11.7168 60.3135 12.0016 60.4639 12.2568C60.6188 12.512 60.8262 12.7171 61.0859 12.8721C61.3503 13.0225 61.6784 13.0977 62.0703 13.0977ZM69.4531 6.60352V14H68.1816V6.60352H69.4531ZM71.9346 6.60352V7.62891H65.748V6.60352H71.9346ZM77.4307 12.7354V8.92773C77.4307 8.63607 77.3714 8.38314 77.2529 8.16895C77.139 7.9502 76.9658 7.78158 76.7334 7.66309C76.501 7.5446 76.2139 7.48535 75.8721 7.48535C75.5531 7.48535 75.2728 7.54004 75.0312 7.64941C74.7943 7.75879 74.6074 7.90234 74.4707 8.08008C74.3385 8.25781 74.2725 8.44922 74.2725 8.6543H73.0078C73.0078 8.38997 73.0762 8.12793 73.2129 7.86816C73.3496 7.6084 73.5456 7.3737 73.8008 7.16406C74.0605 6.94987 74.3704 6.78125 74.7305 6.6582C75.0951 6.5306 75.5007 6.4668 75.9473 6.4668C76.485 6.4668 76.959 6.55794 77.3691 6.74023C77.7839 6.92253 78.1074 7.19824 78.3398 7.56738C78.5768 7.93197 78.6953 8.38997 78.6953 8.94141V12.3867C78.6953 12.6328 78.7158 12.8949 78.7568 13.1729C78.8024 13.4508 78.8685 13.6901 78.9551 13.8906V14H77.6357C77.5719 13.8542 77.5218 13.6605 77.4854 13.4189C77.4489 13.1729 77.4307 12.945 77.4307 12.7354ZM77.6494 9.51562L77.6631 10.4043H76.3848C76.0247 10.4043 75.7035 10.4339 75.4209 10.4932C75.1383 10.5479 74.9014 10.6322 74.71 10.7461C74.5186 10.86 74.3727 11.0036 74.2725 11.1768C74.1722 11.3454 74.1221 11.5436 74.1221 11.7715C74.1221 12.0039 74.1745 12.2158 74.2793 12.4072C74.3841 12.5986 74.5413 12.7513 74.751 12.8652C74.9652 12.9746 75.2272 13.0293 75.5371 13.0293C75.9245 13.0293 76.2663 12.9473 76.5625 12.7832C76.8587 12.6191 77.0934 12.4186 77.2666 12.1816C77.4443 11.9447 77.54 11.7145 77.5537 11.4912L78.0938 12.0996C78.0618 12.291 77.9753 12.5029 77.834 12.7354C77.6927 12.9678 77.5036 13.1911 77.2666 13.4053C77.0342 13.6149 76.7562 13.7904 76.4326 13.9316C76.1136 14.0684 75.7536 14.1367 75.3525 14.1367C74.8512 14.1367 74.4115 14.0387 74.0332 13.8428C73.6595 13.6468 73.3678 13.3848 73.1582 13.0566C72.9531 12.724 72.8506 12.3525 72.8506 11.9424C72.8506 11.5459 72.9281 11.1973 73.083 10.8965C73.238 10.5911 73.4613 10.3382 73.7529 10.1377C74.0446 9.93262 74.3955 9.77767 74.8057 9.67285C75.2158 9.56803 75.6738 9.51562 76.1797 9.51562H77.6494ZM85.7021 9.80957V10.835H81.792V9.80957H85.7021ZM82.0586 6.60352V14H80.7939V6.60352H82.0586ZM86.7275 6.60352V14H85.4561V6.60352H86.7275ZM88.4297 10.3838V10.2266C88.4297 9.69336 88.5072 9.19889 88.6621 8.74316C88.8171 8.28288 89.0404 7.88411 89.332 7.54688C89.6237 7.20508 89.9769 6.94076 90.3916 6.75391C90.8063 6.5625 91.2712 6.4668 91.7861 6.4668C92.3057 6.4668 92.7728 6.5625 93.1875 6.75391C93.6068 6.94076 93.9622 7.20508 94.2539 7.54688C94.5501 7.88411 94.7757 8.28288 94.9307 8.74316C95.0856 9.19889 95.1631 9.69336 95.1631 10.2266V10.3838C95.1631 10.917 95.0856 11.4115 94.9307 11.8672C94.7757 12.3229 94.5501 12.7217 94.2539 13.0635C93.9622 13.4007 93.609 13.665 93.1943 13.8564C92.7842 14.0433 92.3193 14.1367 91.7998 14.1367C91.2803 14.1367 90.8132 14.0433 90.3984 13.8564C89.9837 13.665 89.6283 13.4007 89.332 13.0635C89.0404 12.7217 88.8171 12.3229 88.6621 11.8672C88.5072 11.4115 88.4297 10.917 88.4297 10.3838ZM89.6943 10.2266V10.3838C89.6943 10.7529 89.7376 11.1016 89.8242 11.4297C89.9108 11.7533 90.0407 12.0404 90.2139 12.291C90.3916 12.5417 90.6126 12.7399 90.877 12.8857C91.1413 13.027 91.4489 13.0977 91.7998 13.0977C92.1462 13.0977 92.4492 13.027 92.709 12.8857C92.9733 12.7399 93.1921 12.5417 93.3652 12.291C93.5384 12.0404 93.6683 11.7533 93.7549 11.4297C93.846 11.1016 93.8916 10.7529 93.8916 10.3838V10.2266C93.8916 9.86198 93.846 9.5179 93.7549 9.19434C93.6683 8.86621 93.5361 8.57682 93.3584 8.32617C93.1852 8.07096 92.9665 7.87044 92.7021 7.72461C92.4424 7.57878 92.137 7.50586 91.7861 7.50586C91.4398 7.50586 91.1344 7.57878 90.8701 7.72461C90.6104 7.87044 90.3916 8.07096 90.2139 8.32617C90.0407 8.57682 89.9108 8.86621 89.8242 9.19434C89.7376 9.5179 89.6943 9.86198 89.6943 10.2266ZM100.222 10.7461H97.7949L97.7812 9.73438H99.7637C100.156 9.73438 100.481 9.69564 100.741 9.61816C101.006 9.54069 101.204 9.42448 101.336 9.26953C101.468 9.11458 101.534 8.92318 101.534 8.69531C101.534 8.51758 101.495 8.36263 101.418 8.23047C101.345 8.09375 101.233 7.9821 101.083 7.89551C100.933 7.80436 100.746 7.73828 100.522 7.69727C100.304 7.65169 100.046 7.62891 99.75 7.62891H98.1299V14H96.8652V6.60352H99.75C100.219 6.60352 100.641 6.64453 101.015 6.72656C101.393 6.80859 101.714 6.93392 101.979 7.10254C102.247 7.2666 102.452 7.47624 102.594 7.73145C102.735 7.98665 102.806 8.28743 102.806 8.63379C102.806 8.8571 102.76 9.06901 102.669 9.26953C102.578 9.47005 102.443 9.64779 102.266 9.80273C102.088 9.95768 101.869 10.0853 101.609 10.1855C101.35 10.2812 101.051 10.3428 100.714 10.3701L100.222 10.7461ZM100.222 14H97.3369L97.9658 12.9746H100.222C100.573 12.9746 100.864 12.9313 101.097 12.8447C101.329 12.7536 101.502 12.626 101.616 12.4619C101.735 12.2933 101.794 12.0928 101.794 11.8604C101.794 11.6279 101.735 11.4297 101.616 11.2656C101.502 11.097 101.329 10.9694 101.097 10.8828C100.864 10.7917 100.573 10.7461 100.222 10.7461H98.3008L98.3145 9.73438H100.714L101.172 10.1172C101.577 10.1491 101.922 10.2493 102.204 10.418C102.487 10.5866 102.701 10.8008 102.847 11.0605C102.993 11.3158 103.065 11.5938 103.065 11.8945C103.065 12.2409 102.999 12.5462 102.867 12.8105C102.74 13.0749 102.553 13.2959 102.307 13.4736C102.061 13.6468 101.762 13.779 101.411 13.8701C101.06 13.9567 100.664 14 100.222 14ZM106.135 6.60352V14H104.87V6.60352H106.135ZM110.988 6.60352L107.481 10.8418H105.711L105.52 9.73438H106.969L109.45 6.60352H110.988ZM109.628 14L106.907 10.6504L107.721 9.73438L111.234 14H109.628ZM113.702 11.9971L117.113 6.60352H118.385V14H117.113V8.60645L113.702 14H112.444V6.60352H113.702V11.9971ZM128.14 12.3184L130.655 6.60352H131.872L128.577 14H127.702L124.421 6.60352H125.638L128.14 12.3184ZM125.269 6.60352V14H124.004V6.60352H125.269ZM130.97 14V6.60352H132.241V14H130.97ZM137.348 14.1367C136.833 14.1367 136.366 14.0501 135.946 13.877C135.532 13.6992 135.174 13.4508 134.873 13.1318C134.577 12.8128 134.349 12.4346 134.189 11.9971C134.03 11.5596 133.95 11.0811 133.95 10.5615V10.2744C133.95 9.67285 134.039 9.13737 134.217 8.66797C134.395 8.19401 134.636 7.79297 134.941 7.46484C135.247 7.13672 135.593 6.88835 135.98 6.71973C136.368 6.55111 136.769 6.4668 137.184 6.4668C137.712 6.4668 138.168 6.55794 138.551 6.74023C138.938 6.92253 139.255 7.17773 139.501 7.50586C139.747 7.82943 139.929 8.21224 140.048 8.6543C140.166 9.0918 140.226 9.57031 140.226 10.0898V10.6572H134.702V9.625H138.961V9.5293C138.943 9.20117 138.874 8.88216 138.756 8.57227C138.642 8.26237 138.46 8.00716 138.209 7.80664C137.958 7.60612 137.617 7.50586 137.184 7.50586C136.896 7.50586 136.632 7.56738 136.391 7.69043C136.149 7.80892 135.942 7.98665 135.769 8.22363C135.595 8.46061 135.461 8.75 135.365 9.0918C135.27 9.43359 135.222 9.8278 135.222 10.2744V10.5615C135.222 10.9124 135.27 11.2428 135.365 11.5527C135.465 11.8581 135.609 12.127 135.796 12.3594C135.987 12.5918 136.217 12.7741 136.486 12.9062C136.76 13.0384 137.07 13.1045 137.416 13.1045C137.863 13.1045 138.241 13.0133 138.551 12.8311C138.861 12.6488 139.132 12.4049 139.364 12.0996L140.13 12.708C139.97 12.9495 139.768 13.1797 139.521 13.3984C139.275 13.6172 138.972 13.7949 138.612 13.9316C138.257 14.0684 137.835 14.1367 137.348 14.1367ZM146.446 3.38379H147.485C147.485 3.8304 147.417 4.18587 147.28 4.4502C147.144 4.70996 146.957 4.91048 146.72 5.05176C146.487 5.19303 146.223 5.30013 145.927 5.37305C145.635 5.44596 145.332 5.5166 145.018 5.58496C144.626 5.66699 144.261 5.79688 143.924 5.97461C143.591 6.14779 143.304 6.39388 143.062 6.71289C142.826 7.0319 142.65 7.44661 142.536 7.95703C142.427 8.46745 142.397 9.09863 142.447 9.85059V10.4795H141.408V9.85059C141.408 9.00749 141.488 8.27148 141.647 7.64258C141.812 7.01367 142.042 6.48275 142.338 6.0498C142.634 5.61686 142.985 5.27279 143.391 5.01758C143.801 4.76237 144.252 4.58691 144.744 4.49121C145.1 4.42285 145.405 4.34993 145.66 4.27246C145.915 4.19043 146.109 4.08105 146.241 3.94434C146.378 3.80762 146.446 3.62077 146.446 3.38379ZM144.949 7.02734C145.432 7.02734 145.863 7.11165 146.241 7.28027C146.619 7.44889 146.941 7.68359 147.205 7.98438C147.469 8.28516 147.67 8.64062 147.807 9.05078C147.948 9.45638 148.019 9.89844 148.019 10.377V10.5273C148.019 11.0423 147.943 11.5208 147.793 11.9629C147.647 12.4004 147.431 12.7832 147.144 13.1113C146.861 13.4349 146.515 13.6878 146.104 13.8701C145.699 14.0524 145.236 14.1436 144.717 14.1436C144.197 14.1436 143.732 14.0524 143.322 13.8701C142.917 13.6878 142.57 13.4349 142.283 13.1113C141.996 12.7832 141.777 12.4004 141.627 11.9629C141.481 11.5208 141.408 11.0423 141.408 10.5273V10.377C141.408 10.263 141.429 10.1514 141.47 10.042C141.511 9.93262 141.561 9.82096 141.62 9.70703C141.684 9.5931 141.741 9.47233 141.791 9.34473C141.96 8.93457 142.19 8.55404 142.481 8.20312C142.778 7.85221 143.131 7.56966 143.541 7.35547C143.956 7.13672 144.425 7.02734 144.949 7.02734ZM144.703 8.05957C144.238 8.05957 143.855 8.16667 143.555 8.38086C143.258 8.59505 143.037 8.87988 142.892 9.23535C142.746 9.58626 142.673 9.9668 142.673 10.377V10.5273C142.673 10.8737 142.714 11.2018 142.796 11.5117C142.878 11.8216 143.001 12.0973 143.165 12.3389C143.334 12.5758 143.546 12.7627 143.801 12.8994C144.061 13.0361 144.366 13.1045 144.717 13.1045C145.068 13.1045 145.371 13.0361 145.626 12.8994C145.881 12.7627 146.091 12.5758 146.255 12.3389C146.419 12.0973 146.542 11.8216 146.624 11.5117C146.706 11.2018 146.747 10.8737 146.747 10.5273V10.377C146.747 10.0671 146.706 9.77311 146.624 9.49512C146.542 9.21712 146.417 8.97103 146.248 8.75684C146.084 8.54264 145.872 8.37402 145.612 8.25098C145.357 8.12337 145.054 8.05957 144.703 8.05957ZM152.523 14.1367C152.008 14.1367 151.541 14.0501 151.122 13.877C150.707 13.6992 150.35 13.4508 150.049 13.1318C149.753 12.8128 149.525 12.4346 149.365 11.9971C149.206 11.5596 149.126 11.0811 149.126 10.5615V10.2744C149.126 9.67285 149.215 9.13737 149.393 8.66797C149.57 8.19401 149.812 7.79297 150.117 7.46484C150.423 7.13672 150.769 6.88835 151.156 6.71973C151.544 6.55111 151.945 6.4668 152.359 6.4668C152.888 6.4668 153.344 6.55794 153.727 6.74023C154.114 6.92253 154.431 7.17773 154.677 7.50586C154.923 7.82943 155.105 8.21224 155.224 8.6543C155.342 9.0918 155.401 9.57031 155.401 10.0898V10.6572H149.878V9.625H154.137V9.5293C154.118 9.20117 154.05 8.88216 153.932 8.57227C153.818 8.26237 153.635 8.00716 153.385 7.80664C153.134 7.60612 152.792 7.50586 152.359 7.50586C152.072 7.50586 151.808 7.56738 151.566 7.69043C151.325 7.80892 151.118 7.98665 150.944 8.22363C150.771 8.46061 150.637 8.75 150.541 9.0918C150.445 9.43359 150.397 9.8278 150.397 10.2744V10.5615C150.397 10.9124 150.445 11.2428 150.541 11.5527C150.641 11.8581 150.785 12.127 150.972 12.3594C151.163 12.5918 151.393 12.7741 151.662 12.9062C151.936 13.0384 152.245 13.1045 152.592 13.1045C153.038 13.1045 153.417 13.0133 153.727 12.8311C154.036 12.6488 154.308 12.4049 154.54 12.0996L155.306 12.708C155.146 12.9495 154.943 13.1797 154.697 13.3984C154.451 13.6172 154.148 13.7949 153.788 13.9316C153.433 14.0684 153.011 14.1367 152.523 14.1367ZM161.82 6.60352V7.64941H158.245V6.60352H161.82ZM162.935 6.60352V14H161.67V6.60352H162.935ZM157.938 6.60352H159.209L159.018 10.1719C158.986 10.7233 158.933 11.2109 158.86 11.6348C158.792 12.054 158.696 12.4141 158.573 12.7148C158.455 13.0156 158.304 13.2617 158.122 13.4531C157.944 13.64 157.73 13.779 157.479 13.8701C157.229 13.9567 156.939 14 156.611 14H156.215V12.8857L156.488 12.8652C156.684 12.8516 156.851 12.806 156.987 12.7285C157.129 12.651 157.247 12.5371 157.343 12.3867C157.438 12.2318 157.516 12.0335 157.575 11.792C157.639 11.5505 157.687 11.2633 157.719 10.9307C157.755 10.598 157.783 10.2106 157.801 9.76855L157.938 6.60352ZM166.339 11.9971L169.75 6.60352H171.021V14H169.75V8.60645L166.339 14H165.081V6.60352H166.339V11.9971ZM172.84 7.29395C172.84 7.07975 172.906 6.89974 173.038 6.75391C173.175 6.60352 173.371 6.52832 173.626 6.52832C173.881 6.52832 174.075 6.60352 174.207 6.75391C174.344 6.89974 174.412 7.07975 174.412 7.29395C174.412 7.50358 174.344 7.68132 174.207 7.82715C174.075 7.97298 173.881 8.0459 173.626 8.0459C173.371 8.0459 173.175 7.97298 173.038 7.82715C172.906 7.68132 172.84 7.50358 172.84 7.29395ZM174.282 12.4961V13.5146C174.282 13.9294 174.177 14.3669 173.968 14.8271C173.758 15.292 173.464 15.6794 173.086 15.9893L172.368 15.4902C172.514 15.2897 172.637 15.0846 172.737 14.875C172.838 14.6699 172.913 14.4557 172.963 14.2324C173.018 14.0137 173.045 13.7812 173.045 13.5352V12.4961H174.282Z" fill="#303030" fill-opacity="0.9"/>
</svg>
