<svg width="237" height="36" viewBox="0 0 237 36" fill="none" xmlns="http://www.w3.org/2000/svg">
<path d="M3.92383 13.0977C4.22461 13.0977 4.5026 13.0361 4.75781 12.9131C5.01302 12.79 5.22266 12.6214 5.38672 12.4072C5.55078 12.1885 5.64421 11.9401 5.66699 11.6621H6.87012C6.84733 12.0996 6.69922 12.5075 6.42578 12.8857C6.1569 13.2594 5.80371 13.5625 5.36621 13.7949C4.92871 14.0228 4.44792 14.1367 3.92383 14.1367C3.36784 14.1367 2.88249 14.0387 2.46777 13.8428C2.05762 13.6468 1.71582 13.3779 1.44238 13.0361C1.1735 12.6943 0.970703 12.3024 0.833984 11.8604C0.701823 11.4137 0.635742 10.9421 0.635742 10.4453V10.1582C0.635742 9.66146 0.701823 9.19206 0.833984 8.75C0.970703 8.30339 1.1735 7.90918 1.44238 7.56738C1.71582 7.22559 2.05762 6.95671 2.46777 6.76074C2.88249 6.56478 3.36784 6.4668 3.92383 6.4668C4.5026 6.4668 5.00846 6.58529 5.44141 6.82227C5.87435 7.05469 6.21387 7.3737 6.45996 7.7793C6.71061 8.18034 6.84733 8.63607 6.87012 9.14648H5.66699C5.64421 8.84115 5.55762 8.56543 5.40723 8.31934C5.26139 8.07324 5.06087 7.87728 4.80566 7.73145C4.55501 7.58105 4.26107 7.50586 3.92383 7.50586C3.53646 7.50586 3.21061 7.58333 2.94629 7.73828C2.68652 7.88867 2.47917 8.09375 2.32422 8.35352C2.17383 8.60872 2.06445 8.89355 1.99609 9.20801C1.93229 9.5179 1.90039 9.83464 1.90039 10.1582V10.4453C1.90039 10.7689 1.93229 11.0879 1.99609 11.4023C2.0599 11.7168 2.16699 12.0016 2.31738 12.2568C2.47233 12.512 2.67969 12.7171 2.93945 12.8721C3.20378 13.0225 3.5319 13.0977 3.92383 13.0977ZM9.14648 6.60352L10.7666 9.29688L12.4072 6.60352H13.8906L11.4707 10.2539L13.9658 14H12.5029L10.7939 11.2246L9.08496 14H7.61523L10.1035 10.2539L7.69043 6.60352H9.14648ZM18.1699 14.1367C17.6549 14.1367 17.1878 14.0501 16.7686 13.877C16.3538 13.6992 15.9961 13.4508 15.6953 13.1318C15.3991 12.8128 15.1712 12.4346 15.0117 11.9971C14.8522 11.5596 14.7725 11.0811 14.7725 10.5615V10.2744C14.7725 9.67285 14.8613 9.13737 15.0391 8.66797C15.2168 8.19401 15.4583 7.79297 15.7637 7.46484C16.069 7.13672 16.4154 6.88835 16.8027 6.71973C17.1901 6.55111 17.5911 6.4668 18.0059 6.4668C18.5345 6.4668 18.9902 6.55794 19.373 6.74023C19.7604 6.92253 20.0771 7.17773 20.3232 7.50586C20.5693 7.82943 20.7516 8.21224 20.8701 8.6543C20.9886 9.0918 21.0479 9.57031 21.0479 10.0898V10.6572H15.5244V9.625H19.7832V9.5293C19.765 9.20117 19.6966 8.88216 19.5781 8.57227C19.4642 8.26237 19.2819 8.00716 19.0312 7.80664C18.7806 7.60612 18.4388 7.50586 18.0059 7.50586C17.7188 7.50586 17.4544 7.56738 17.2129 7.69043C16.9714 7.80892 16.764 7.98665 16.5908 8.22363C16.4176 8.46061 16.2832 8.75 16.1875 9.0918C16.0918 9.43359 16.0439 9.8278 16.0439 10.2744V10.5615C16.0439 10.9124 16.0918 11.2428 16.1875 11.5527C16.2878 11.8581 16.4313 12.127 16.6182 12.3594C16.8096 12.5918 17.0397 12.7741 17.3086 12.9062C17.582 13.0384 17.8919 13.1045 18.2383 13.1045C18.6849 13.1045 19.0632 13.0133 19.373 12.8311C19.6829 12.6488 19.9541 12.4049 20.1865 12.0996L20.9521 12.708C20.7926 12.9495 20.5898 13.1797 20.3438 13.3984C20.0977 13.6172 19.7946 13.7949 19.4346 13.9316C19.0791 14.0684 18.6576 14.1367 18.1699 14.1367ZM26.7764 12.3184L29.292 6.60352H30.5088L27.2139 14H26.3389L23.0576 6.60352H24.2744L26.7764 12.3184ZM23.9053 6.60352V14H22.6406V6.60352H23.9053ZM29.6064 14V6.60352H30.8779V14H29.6064ZM37.2764 12.7354V8.92773C37.2764 8.63607 37.2171 8.38314 37.0986 8.16895C36.9847 7.9502 36.8115 7.78158 36.5791 7.66309C36.3467 7.5446 36.0596 7.48535 35.7178 7.48535C35.3988 7.48535 35.1185 7.54004 34.877 7.64941C34.64 7.75879 34.4531 7.90234 34.3164 8.08008C34.1842 8.25781 34.1182 8.44922 34.1182 8.6543H32.8535C32.8535 8.38997 32.9219 8.12793 33.0586 7.86816C33.1953 7.6084 33.3913 7.3737 33.6465 7.16406C33.9062 6.94987 34.2161 6.78125 34.5762 6.6582C34.9408 6.5306 35.3464 6.4668 35.793 6.4668C36.3307 6.4668 36.8047 6.55794 37.2148 6.74023C37.6296 6.92253 37.9531 7.19824 38.1855 7.56738C38.4225 7.93197 38.541 8.38997 38.541 8.94141V12.3867C38.541 12.6328 38.5615 12.8949 38.6025 13.1729C38.6481 13.4508 38.7142 13.6901 38.8008 13.8906V14H37.4814C37.4176 13.8542 37.3675 13.6605 37.3311 13.4189C37.2946 13.1729 37.2764 12.945 37.2764 12.7354ZM37.4951 9.51562L37.5088 10.4043H36.2305C35.8704 10.4043 35.5492 10.4339 35.2666 10.4932C34.984 10.5479 34.7471 10.6322 34.5557 10.7461C34.3643 10.86 34.2184 11.0036 34.1182 11.1768C34.0179 11.3454 33.9678 11.5436 33.9678 11.7715C33.9678 12.0039 34.0202 12.2158 34.125 12.4072C34.2298 12.5986 34.387 12.7513 34.5967 12.8652C34.8109 12.9746 35.0729 13.0293 35.3828 13.0293C35.7702 13.0293 36.112 12.9473 36.4082 12.7832C36.7044 12.6191 36.9391 12.4186 37.1123 12.1816C37.29 11.9447 37.3857 11.7145 37.3994 11.4912L37.9395 12.0996C37.9076 12.291 37.821 12.5029 37.6797 12.7354C37.5384 12.9678 37.3493 13.1911 37.1123 13.4053C36.8799 13.6149 36.6019 13.7904 36.2783 13.9316C35.9593 14.0684 35.5993 14.1367 35.1982 14.1367C34.6969 14.1367 34.2572 14.0387 33.8789 13.8428C33.5052 13.6468 33.2135 13.3848 33.0039 13.0566C32.7988 12.724 32.6963 12.3525 32.6963 11.9424C32.6963 11.5459 32.7738 11.1973 32.9287 10.8965C33.0837 10.5911 33.307 10.3382 33.5986 10.1377C33.8903 9.93262 34.2412 9.77767 34.6514 9.67285C35.0615 9.56803 35.5195 9.51562 36.0254 9.51562H37.4951ZM45.2676 8.02539V16.8438H43.9961V6.60352H45.1582L45.2676 8.02539ZM50.251 10.2402V10.3838C50.251 10.9215 50.1872 11.4206 50.0596 11.8809C49.932 12.3366 49.7451 12.7331 49.499 13.0703C49.2575 13.4076 48.959 13.6696 48.6035 13.8564C48.248 14.0433 47.8402 14.1367 47.3799 14.1367C46.9105 14.1367 46.4958 14.0592 46.1357 13.9043C45.7757 13.7493 45.4704 13.5238 45.2197 13.2275C44.9691 12.9313 44.7686 12.5758 44.6182 12.1611C44.4723 11.7464 44.3721 11.2793 44.3174 10.7598V9.99414C44.3721 9.44727 44.4746 8.95736 44.625 8.52441C44.7754 8.09147 44.9736 7.72233 45.2197 7.41699C45.4704 7.1071 45.7734 6.8724 46.1289 6.71289C46.4844 6.54883 46.8945 6.4668 47.3594 6.4668C47.8242 6.4668 48.2367 6.55794 48.5967 6.74023C48.9567 6.91797 49.2598 7.17318 49.5059 7.50586C49.752 7.83854 49.9365 8.2373 50.0596 8.70215C50.1872 9.16243 50.251 9.67513 50.251 10.2402ZM48.9795 10.3838V10.2402C48.9795 9.87109 48.9408 9.52474 48.8633 9.20117C48.7858 8.87305 48.665 8.58594 48.501 8.33984C48.3415 8.08919 48.1364 7.89323 47.8857 7.75195C47.6351 7.60612 47.3366 7.5332 46.9902 7.5332C46.6712 7.5332 46.3932 7.58789 46.1562 7.69727C45.9238 7.80664 45.7256 7.95475 45.5615 8.1416C45.3975 8.32389 45.263 8.53353 45.1582 8.77051C45.0579 9.00293 44.9827 9.24447 44.9326 9.49512V11.2656C45.0238 11.5846 45.1514 11.8854 45.3154 12.168C45.4795 12.446 45.6982 12.6715 45.9717 12.8447C46.2451 13.0133 46.5892 13.0977 47.0039 13.0977C47.3457 13.0977 47.6396 13.027 47.8857 12.8857C48.1364 12.7399 48.3415 12.5417 48.501 12.291C48.665 12.0404 48.7858 11.7533 48.8633 11.4297C48.9408 11.1016 48.9795 10.7529 48.9795 10.3838ZM56.2256 12.7354V8.92773C56.2256 8.63607 56.1663 8.38314 56.0479 8.16895C55.9339 7.9502 55.7607 7.78158 55.5283 7.66309C55.2959 7.5446 55.0088 7.48535 54.667 7.48535C54.348 7.48535 54.0677 7.54004 53.8262 7.64941C53.5892 7.75879 53.4023 7.90234 53.2656 8.08008C53.1335 8.25781 53.0674 8.44922 53.0674 8.6543H51.8027C51.8027 8.38997 51.8711 8.12793 52.0078 7.86816C52.1445 7.6084 52.3405 7.3737 52.5957 7.16406C52.8555 6.94987 53.1654 6.78125 53.5254 6.6582C53.89 6.5306 54.2956 6.4668 54.7422 6.4668C55.2799 6.4668 55.7539 6.55794 56.1641 6.74023C56.5788 6.92253 56.9023 7.19824 57.1348 7.56738C57.3717 7.93197 57.4902 8.38997 57.4902 8.94141V12.3867C57.4902 12.6328 57.5107 12.8949 57.5518 13.1729C57.5973 13.4508 57.6634 13.6901 57.75 13.8906V14H56.4307C56.3669 13.8542 56.3167 13.6605 56.2803 13.4189C56.2438 13.1729 56.2256 12.945 56.2256 12.7354ZM56.4443 9.51562L56.458 10.4043H55.1797C54.8197 10.4043 54.4984 10.4339 54.2158 10.4932C53.9333 10.5479 53.6963 10.6322 53.5049 10.7461C53.3135 10.86 53.1676 11.0036 53.0674 11.1768C52.9671 11.3454 52.917 11.5436 52.917 11.7715C52.917 12.0039 52.9694 12.2158 53.0742 12.4072C53.179 12.5986 53.3363 12.7513 53.5459 12.8652C53.7601 12.9746 54.0221 13.0293 54.332 13.0293C54.7194 13.0293 55.0612 12.9473 55.3574 12.7832C55.6536 12.6191 55.8883 12.4186 56.0615 12.1816C56.2393 11.9447 56.335 11.7145 56.3486 11.4912L56.8887 12.0996C56.8568 12.291 56.7702 12.5029 56.6289 12.7354C56.4876 12.9678 56.2985 13.1911 56.0615 13.4053C55.8291 13.6149 55.5511 13.7904 55.2275 13.9316C54.9085 14.0684 54.5485 14.1367 54.1475 14.1367C53.6462 14.1367 53.2064 14.0387 52.8281 13.8428C52.4544 13.6468 52.1628 13.3848 51.9531 13.0566C51.748 12.724 51.6455 12.3525 51.6455 11.9424C51.6455 11.5459 51.723 11.1973 51.8779 10.8965C52.0329 10.5911 52.2562 10.3382 52.5479 10.1377C52.8395 9.93262 53.1904 9.77767 53.6006 9.67285C54.0107 9.56803 54.4688 9.51562 54.9746 9.51562H56.4443ZM62.4395 13.0977C62.7402 13.0977 63.0182 13.0361 63.2734 12.9131C63.5286 12.79 63.7383 12.6214 63.9023 12.4072C64.0664 12.1885 64.1598 11.9401 64.1826 11.6621H65.3857C65.363 12.0996 65.2148 12.5075 64.9414 12.8857C64.6725 13.2594 64.3193 13.5625 63.8818 13.7949C63.4443 14.0228 62.9635 14.1367 62.4395 14.1367C61.8835 14.1367 61.3981 14.0387 60.9834 13.8428C60.5732 13.6468 60.2314 13.3779 59.958 13.0361C59.6891 12.6943 59.4863 12.3024 59.3496 11.8604C59.2174 11.4137 59.1514 10.9421 59.1514 10.4453V10.1582C59.1514 9.66146 59.2174 9.19206 59.3496 8.75C59.4863 8.30339 59.6891 7.90918 59.958 7.56738C60.2314 7.22559 60.5732 6.95671 60.9834 6.76074C61.3981 6.56478 61.8835 6.4668 62.4395 6.4668C63.0182 6.4668 63.5241 6.58529 63.957 6.82227C64.39 7.05469 64.7295 7.3737 64.9756 7.7793C65.2262 8.18034 65.363 8.63607 65.3857 9.14648H64.1826C64.1598 8.84115 64.0732 8.56543 63.9229 8.31934C63.777 8.07324 63.5765 7.87728 63.3213 7.73145C63.0706 7.58105 62.7767 7.50586 62.4395 7.50586C62.0521 7.50586 61.7262 7.58333 61.4619 7.73828C61.2021 7.88867 60.9948 8.09375 60.8398 8.35352C60.6895 8.60872 60.5801 8.89355 60.5117 9.20801C60.4479 9.5179 60.416 9.83464 60.416 10.1582V10.4453C60.416 10.7689 60.4479 11.0879 60.5117 11.4023C60.5755 11.7168 60.6826 12.0016 60.833 12.2568C60.988 12.512 61.1953 12.7171 61.4551 12.8721C61.7194 13.0225 62.0475 13.0977 62.4395 13.0977ZM69.7676 13.0977C70.0684 13.0977 70.3464 13.0361 70.6016 12.9131C70.8568 12.79 71.0664 12.6214 71.2305 12.4072C71.3945 12.1885 71.488 11.9401 71.5107 11.6621H72.7139C72.6911 12.0996 72.543 12.5075 72.2695 12.8857C72.0007 13.2594 71.6475 13.5625 71.21 13.7949C70.7725 14.0228 70.2917 14.1367 69.7676 14.1367C69.2116 14.1367 68.7262 14.0387 68.3115 13.8428C67.9014 13.6468 67.5596 13.3779 67.2861 13.0361C67.0173 12.6943 66.8145 12.3024 66.6777 11.8604C66.5456 11.4137 66.4795 10.9421 66.4795 10.4453V10.1582C66.4795 9.66146 66.5456 9.19206 66.6777 8.75C66.8145 8.30339 67.0173 7.90918 67.2861 7.56738C67.5596 7.22559 67.9014 6.95671 68.3115 6.76074C68.7262 6.56478 69.2116 6.4668 69.7676 6.4668C70.3464 6.4668 70.8522 6.58529 71.2852 6.82227C71.7181 7.05469 72.0576 7.3737 72.3037 7.7793C72.5544 8.18034 72.6911 8.63607 72.7139 9.14648H71.5107C71.488 8.84115 71.4014 8.56543 71.251 8.31934C71.1051 8.07324 70.9046 7.87728 70.6494 7.73145C70.3988 7.58105 70.1048 7.50586 69.7676 7.50586C69.3802 7.50586 69.0544 7.58333 68.79 7.73828C68.5303 7.88867 68.3229 8.09375 68.168 8.35352C68.0176 8.60872 67.9082 8.89355 67.8398 9.20801C67.776 9.5179 67.7441 9.83464 67.7441 10.1582V10.4453C67.7441 10.7689 67.776 11.0879 67.8398 11.4023C67.9036 11.7168 68.0107 12.0016 68.1611 12.2568C68.3161 12.512 68.5234 12.7171 68.7832 12.8721C69.0475 13.0225 69.3757 13.0977 69.7676 13.0977ZM77.1504 6.60352V14H75.8789V6.60352H77.1504ZM79.6318 6.60352V7.62891H73.4453V6.60352H79.6318ZM85.1279 12.7354V8.92773C85.1279 8.63607 85.0687 8.38314 84.9502 8.16895C84.8363 7.9502 84.6631 7.78158 84.4307 7.66309C84.1982 7.5446 83.9111 7.48535 83.5693 7.48535C83.2503 7.48535 82.9701 7.54004 82.7285 7.64941C82.4915 7.75879 82.3047 7.90234 82.168 8.08008C82.0358 8.25781 81.9697 8.44922 81.9697 8.6543H80.7051C80.7051 8.38997 80.7734 8.12793 80.9102 7.86816C81.0469 7.6084 81.2428 7.3737 81.498 7.16406C81.7578 6.94987 82.0677 6.78125 82.4277 6.6582C82.7923 6.5306 83.1979 6.4668 83.6445 6.4668C84.1823 6.4668 84.6562 6.55794 85.0664 6.74023C85.4811 6.92253 85.8047 7.19824 86.0371 7.56738C86.2741 7.93197 86.3926 8.38997 86.3926 8.94141V12.3867C86.3926 12.6328 86.4131 12.8949 86.4541 13.1729C86.4997 13.4508 86.5658 13.6901 86.6523 13.8906V14H85.333C85.2692 13.8542 85.2191 13.6605 85.1826 13.4189C85.1462 13.1729 85.1279 12.945 85.1279 12.7354ZM85.3467 9.51562L85.3604 10.4043H84.082C83.722 10.4043 83.4007 10.4339 83.1182 10.4932C82.8356 10.5479 82.5986 10.6322 82.4072 10.7461C82.2158 10.86 82.07 11.0036 81.9697 11.1768C81.8695 11.3454 81.8193 11.5436 81.8193 11.7715C81.8193 12.0039 81.8717 12.2158 81.9766 12.4072C82.0814 12.5986 82.2386 12.7513 82.4482 12.8652C82.6624 12.9746 82.9245 13.0293 83.2344 13.0293C83.6217 13.0293 83.9635 12.9473 84.2598 12.7832C84.556 12.6191 84.7907 12.4186 84.9639 12.1816C85.1416 11.9447 85.2373 11.7145 85.251 11.4912L85.791 12.0996C85.7591 12.291 85.6725 12.5029 85.5312 12.7354C85.39 12.9678 85.2008 13.1911 84.9639 13.4053C84.7314 13.6149 84.4535 13.7904 84.1299 13.9316C83.8109 14.0684 83.4508 14.1367 83.0498 14.1367C82.5485 14.1367 82.1087 14.0387 81.7305 13.8428C81.3568 13.6468 81.0651 13.3848 80.8555 13.0566C80.6504 12.724 80.5479 12.3525 80.5479 11.9424C80.5479 11.5459 80.6253 11.1973 80.7803 10.8965C80.9352 10.5911 81.1585 10.3382 81.4502 10.1377C81.7419 9.93262 82.0928 9.77767 82.5029 9.67285C82.9131 9.56803 83.3711 9.51562 83.877 9.51562H85.3467ZM93.3994 9.80957V10.835H89.4893V9.80957H93.3994ZM89.7559 6.60352V14H88.4912V6.60352H89.7559ZM94.4248 6.60352V14H93.1533V6.60352H94.4248ZM96.127 10.3838V10.2266C96.127 9.69336 96.2044 9.19889 96.3594 8.74316C96.5143 8.28288 96.7376 7.88411 97.0293 7.54688C97.321 7.20508 97.6742 6.94076 98.0889 6.75391C98.5036 6.5625 98.9684 6.4668 99.4834 6.4668C100.003 6.4668 100.47 6.5625 100.885 6.75391C101.304 6.94076 101.66 7.20508 101.951 7.54688C102.247 7.88411 102.473 8.28288 102.628 8.74316C102.783 9.19889 102.86 9.69336 102.86 10.2266V10.3838C102.86 10.917 102.783 11.4115 102.628 11.8672C102.473 12.3229 102.247 12.7217 101.951 13.0635C101.66 13.4007 101.306 13.665 100.892 13.8564C100.481 14.0433 100.017 14.1367 99.4971 14.1367C98.9775 14.1367 98.5104 14.0433 98.0957 13.8564C97.681 13.665 97.3255 13.4007 97.0293 13.0635C96.7376 12.7217 96.5143 12.3229 96.3594 11.8672C96.2044 11.4115 96.127 10.917 96.127 10.3838ZM97.3916 10.2266V10.3838C97.3916 10.7529 97.4349 11.1016 97.5215 11.4297C97.6081 11.7533 97.738 12.0404 97.9111 12.291C98.0889 12.5417 98.3099 12.7399 98.5742 12.8857C98.8385 13.027 99.1462 13.0977 99.4971 13.0977C99.8434 13.0977 100.146 13.027 100.406 12.8857C100.671 12.7399 100.889 12.5417 101.062 12.291C101.236 12.0404 101.366 11.7533 101.452 11.4297C101.543 11.1016 101.589 10.7529 101.589 10.3838V10.2266C101.589 9.86198 101.543 9.5179 101.452 9.19434C101.366 8.86621 101.233 8.57682 101.056 8.32617C100.882 8.07096 100.664 7.87044 100.399 7.72461C100.14 7.57878 99.8343 7.50586 99.4834 7.50586C99.137 7.50586 98.8317 7.57878 98.5674 7.72461C98.3076 7.87044 98.0889 8.07096 97.9111 8.32617C97.738 8.57682 97.6081 8.86621 97.5215 9.19434C97.4349 9.5179 97.3916 9.86198 97.3916 10.2266ZM107.919 10.7461H105.492L105.479 9.73438H107.461C107.853 9.73438 108.179 9.69564 108.438 9.61816C108.703 9.54069 108.901 9.42448 109.033 9.26953C109.165 9.11458 109.231 8.92318 109.231 8.69531C109.231 8.51758 109.193 8.36263 109.115 8.23047C109.042 8.09375 108.931 7.9821 108.78 7.89551C108.63 7.80436 108.443 7.73828 108.22 7.69727C108.001 7.65169 107.743 7.62891 107.447 7.62891H105.827V14H104.562V6.60352H107.447C107.917 6.60352 108.338 6.64453 108.712 6.72656C109.09 6.80859 109.411 6.93392 109.676 7.10254C109.945 7.2666 110.15 7.47624 110.291 7.73145C110.432 7.98665 110.503 8.28743 110.503 8.63379C110.503 8.8571 110.457 9.06901 110.366 9.26953C110.275 9.47005 110.141 9.64779 109.963 9.80273C109.785 9.95768 109.566 10.0853 109.307 10.1855C109.047 10.2812 108.748 10.3428 108.411 10.3701L107.919 10.7461ZM107.919 14H105.034L105.663 12.9746H107.919C108.27 12.9746 108.562 12.9313 108.794 12.8447C109.026 12.7536 109.2 12.626 109.313 12.4619C109.432 12.2933 109.491 12.0928 109.491 11.8604C109.491 11.6279 109.432 11.4297 109.313 11.2656C109.2 11.097 109.026 10.9694 108.794 10.8828C108.562 10.7917 108.27 10.7461 107.919 10.7461H105.998L106.012 9.73438H108.411L108.869 10.1172C109.275 10.1491 109.619 10.2493 109.901 10.418C110.184 10.5866 110.398 10.8008 110.544 11.0605C110.69 11.3158 110.763 11.5938 110.763 11.8945C110.763 12.2409 110.697 12.5462 110.564 12.8105C110.437 13.0749 110.25 13.2959 110.004 13.4736C109.758 13.6468 109.459 13.779 109.108 13.8701C108.757 13.9567 108.361 14 107.919 14ZM113.832 6.60352V14H112.567V6.60352H113.832ZM118.686 6.60352L115.179 10.8418H113.408L113.217 9.73438H114.666L117.147 6.60352H118.686ZM117.325 14L114.604 10.6504L115.418 9.73438L118.932 14H117.325ZM121.399 11.9971L124.811 6.60352H126.082V14H124.811V8.60645L121.399 14H120.142V6.60352H121.399V11.9971ZM131.25 10.3838V10.2266C131.25 9.69336 131.327 9.19889 131.482 8.74316C131.637 8.28288 131.861 7.88411 132.152 7.54688C132.444 7.20508 132.797 6.94076 133.212 6.75391C133.627 6.5625 134.091 6.4668 134.606 6.4668C135.126 6.4668 135.593 6.5625 136.008 6.75391C136.427 6.94076 136.783 7.20508 137.074 7.54688C137.37 7.88411 137.596 8.28288 137.751 8.74316C137.906 9.19889 137.983 9.69336 137.983 10.2266V10.3838C137.983 10.917 137.906 11.4115 137.751 11.8672C137.596 12.3229 137.37 12.7217 137.074 13.0635C136.783 13.4007 136.429 13.665 136.015 13.8564C135.604 14.0433 135.14 14.1367 134.62 14.1367C134.101 14.1367 133.633 14.0433 133.219 13.8564C132.804 13.665 132.449 13.4007 132.152 13.0635C131.861 12.7217 131.637 12.3229 131.482 11.8672C131.327 11.4115 131.25 10.917 131.25 10.3838ZM132.515 10.2266V10.3838C132.515 10.7529 132.558 11.1016 132.645 11.4297C132.731 11.7533 132.861 12.0404 133.034 12.291C133.212 12.5417 133.433 12.7399 133.697 12.8857C133.962 13.027 134.269 13.0977 134.62 13.0977C134.966 13.0977 135.27 13.027 135.529 12.8857C135.794 12.7399 136.012 12.5417 136.186 12.291C136.359 12.0404 136.489 11.7533 136.575 11.4297C136.666 11.1016 136.712 10.7529 136.712 10.3838V10.2266C136.712 9.86198 136.666 9.5179 136.575 9.19434C136.489 8.86621 136.356 8.57682 136.179 8.32617C136.006 8.07096 135.787 7.87044 135.522 7.72461C135.263 7.57878 134.957 7.50586 134.606 7.50586C134.26 7.50586 133.955 7.57878 133.69 7.72461C133.431 7.87044 133.212 8.07096 133.034 8.32617C132.861 8.57682 132.731 8.86621 132.645 9.19434C132.558 9.5179 132.515 9.86198 132.515 10.2266ZM142.529 13.0977C142.83 13.0977 143.108 13.0361 143.363 12.9131C143.618 12.79 143.828 12.6214 143.992 12.4072C144.156 12.1885 144.25 11.9401 144.272 11.6621H145.476C145.453 12.0996 145.305 12.5075 145.031 12.8857C144.762 13.2594 144.409 13.5625 143.972 13.7949C143.534 14.0228 143.053 14.1367 142.529 14.1367C141.973 14.1367 141.488 14.0387 141.073 13.8428C140.663 13.6468 140.321 13.3779 140.048 13.0361C139.779 12.6943 139.576 12.3024 139.439 11.8604C139.307 11.4137 139.241 10.9421 139.241 10.4453V10.1582C139.241 9.66146 139.307 9.19206 139.439 8.75C139.576 8.30339 139.779 7.90918 140.048 7.56738C140.321 7.22559 140.663 6.95671 141.073 6.76074C141.488 6.56478 141.973 6.4668 142.529 6.4668C143.108 6.4668 143.614 6.58529 144.047 6.82227C144.48 7.05469 144.819 7.3737 145.065 7.7793C145.316 8.18034 145.453 8.63607 145.476 9.14648H144.272C144.25 8.84115 144.163 8.56543 144.013 8.31934C143.867 8.07324 143.666 7.87728 143.411 7.73145C143.16 7.58105 142.867 7.50586 142.529 7.50586C142.142 7.50586 141.816 7.58333 141.552 7.73828C141.292 7.88867 141.085 8.09375 140.93 8.35352C140.779 8.60872 140.67 8.89355 140.602 9.20801C140.538 9.5179 140.506 9.83464 140.506 10.1582V10.4453C140.506 10.7689 140.538 11.0879 140.602 11.4023C140.665 11.7168 140.772 12.0016 140.923 12.2568C141.078 12.512 141.285 12.7171 141.545 12.8721C141.809 13.0225 142.137 13.0977 142.529 13.0977ZM150.37 10.7461H147.943L147.93 9.73438H149.912C150.304 9.73438 150.63 9.69564 150.89 9.61816C151.154 9.54069 151.352 9.42448 151.484 9.26953C151.617 9.11458 151.683 8.92318 151.683 8.69531C151.683 8.51758 151.644 8.36263 151.566 8.23047C151.493 8.09375 151.382 7.9821 151.231 7.89551C151.081 7.80436 150.894 7.73828 150.671 7.69727C150.452 7.65169 150.195 7.62891 149.898 7.62891H148.278V14H147.014V6.60352H149.898C150.368 6.60352 150.789 6.64453 151.163 6.72656C151.541 6.80859 151.863 6.93392 152.127 7.10254C152.396 7.2666 152.601 7.47624 152.742 7.73145C152.883 7.98665 152.954 8.28743 152.954 8.63379C152.954 8.8571 152.909 9.06901 152.817 9.26953C152.726 9.47005 152.592 9.64779 152.414 9.80273C152.236 9.95768 152.018 10.0853 151.758 10.1855C151.498 10.2812 151.2 10.3428 150.862 10.3701L150.37 10.7461ZM150.37 14H147.485L148.114 12.9746H150.37C150.721 12.9746 151.013 12.9313 151.245 12.8447C151.478 12.7536 151.651 12.626 151.765 12.4619C151.883 12.2933 151.942 12.0928 151.942 11.8604C151.942 11.6279 151.883 11.4297 151.765 11.2656C151.651 11.097 151.478 10.9694 151.245 10.8828C151.013 10.7917 150.721 10.7461 150.37 10.7461H148.449L148.463 9.73438H150.862L151.32 10.1172C151.726 10.1491 152.07 10.2493 152.353 10.418C152.635 10.5866 152.849 10.8008 152.995 11.0605C153.141 11.3158 153.214 11.5938 153.214 11.8945C153.214 12.2409 153.148 12.5462 153.016 12.8105C152.888 13.0749 152.701 13.2959 152.455 13.4736C152.209 13.6468 151.91 13.779 151.56 13.8701C151.209 13.9567 150.812 14 150.37 14ZM157.979 14.1367C157.464 14.1367 156.996 14.0501 156.577 13.877C156.162 13.6992 155.805 13.4508 155.504 13.1318C155.208 12.8128 154.98 12.4346 154.82 11.9971C154.661 11.5596 154.581 11.0811 154.581 10.5615V10.2744C154.581 9.67285 154.67 9.13737 154.848 8.66797C155.025 8.19401 155.267 7.79297 155.572 7.46484C155.878 7.13672 156.224 6.88835 156.611 6.71973C156.999 6.55111 157.4 6.4668 157.814 6.4668C158.343 6.4668 158.799 6.55794 159.182 6.74023C159.569 6.92253 159.886 7.17773 160.132 7.50586C160.378 7.82943 160.56 8.21224 160.679 8.6543C160.797 9.0918 160.856 9.57031 160.856 10.0898V10.6572H155.333V9.625H159.592V9.5293C159.574 9.20117 159.505 8.88216 159.387 8.57227C159.273 8.26237 159.09 8.00716 158.84 7.80664C158.589 7.60612 158.247 7.50586 157.814 7.50586C157.527 7.50586 157.263 7.56738 157.021 7.69043C156.78 7.80892 156.573 7.98665 156.399 8.22363C156.226 8.46061 156.092 8.75 155.996 9.0918C155.9 9.43359 155.853 9.8278 155.853 10.2744V10.5615C155.853 10.9124 155.9 11.2428 155.996 11.5527C156.096 11.8581 156.24 12.127 156.427 12.3594C156.618 12.5918 156.848 12.7741 157.117 12.9062C157.391 13.0384 157.701 13.1045 158.047 13.1045C158.493 13.1045 158.872 13.0133 159.182 12.8311C159.492 12.6488 159.763 12.4049 159.995 12.0996L160.761 12.708C160.601 12.9495 160.398 13.1797 160.152 13.3984C159.906 13.6172 159.603 13.7949 159.243 13.9316C158.888 14.0684 158.466 14.1367 157.979 14.1367ZM165.266 6.60352V14H163.994V6.60352H165.266ZM167.747 6.60352V7.62891H161.561V6.60352H167.747ZM170.358 11.9971L173.77 6.60352H175.041V14H173.77V8.60645L170.358 14H169.101V6.60352H170.358V11.9971ZM180.086 6.60352V14H178.814V6.60352H180.086ZM182.567 6.60352V7.62891H176.381V6.60352H182.567ZM186.334 14.1367C185.819 14.1367 185.352 14.0501 184.933 13.877C184.518 13.6992 184.16 13.4508 183.859 13.1318C183.563 12.8128 183.335 12.4346 183.176 11.9971C183.016 11.5596 182.937 11.0811 182.937 10.5615V10.2744C182.937 9.67285 183.025 9.13737 183.203 8.66797C183.381 8.19401 183.622 7.79297 183.928 7.46484C184.233 7.13672 184.579 6.88835 184.967 6.71973C185.354 6.55111 185.755 6.4668 186.17 6.4668C186.699 6.4668 187.154 6.55794 187.537 6.74023C187.924 6.92253 188.241 7.17773 188.487 7.50586C188.733 7.82943 188.916 8.21224 189.034 8.6543C189.153 9.0918 189.212 9.57031 189.212 10.0898V10.6572H183.688V9.625H187.947V9.5293C187.929 9.20117 187.861 8.88216 187.742 8.57227C187.628 8.26237 187.446 8.00716 187.195 7.80664C186.945 7.60612 186.603 7.50586 186.17 7.50586C185.883 7.50586 185.618 7.56738 185.377 7.69043C185.135 7.80892 184.928 7.98665 184.755 8.22363C184.582 8.46061 184.447 8.75 184.352 9.0918C184.256 9.43359 184.208 9.8278 184.208 10.2744V10.5615C184.208 10.9124 184.256 11.2428 184.352 11.5527C184.452 11.8581 184.595 12.127 184.782 12.3594C184.974 12.5918 185.204 12.7741 185.473 12.9062C185.746 13.0384 186.056 13.1045 186.402 13.1045C186.849 13.1045 187.227 13.0133 187.537 12.8311C187.847 12.6488 188.118 12.4049 188.351 12.0996L189.116 12.708C188.957 12.9495 188.754 13.1797 188.508 13.3984C188.262 13.6172 187.959 13.7949 187.599 13.9316C187.243 14.0684 186.822 14.1367 186.334 14.1367ZM195.631 6.60352V7.64941H192.056V6.60352H195.631ZM196.745 6.60352V14H195.48V6.60352H196.745ZM191.748 6.60352H193.02L192.828 10.1719C192.796 10.7233 192.744 11.2109 192.671 11.6348C192.603 12.054 192.507 12.4141 192.384 12.7148C192.265 13.0156 192.115 13.2617 191.933 13.4531C191.755 13.64 191.541 13.779 191.29 13.8701C191.039 13.9567 190.75 14 190.422 14H190.025V12.8857L190.299 12.8652C190.495 12.8516 190.661 12.806 190.798 12.7285C190.939 12.651 191.058 12.5371 191.153 12.3867C191.249 12.2318 191.326 12.0335 191.386 11.792C191.45 11.5505 191.497 11.2633 191.529 10.9307C191.566 10.598 191.593 10.2106 191.611 9.76855L191.748 6.60352ZM199.821 9.14648H202.043C202.64 9.14648 203.144 9.2513 203.554 9.46094C203.964 9.66602 204.274 9.95085 204.483 10.3154C204.698 10.6755 204.805 11.0856 204.805 11.5459C204.805 11.8877 204.745 12.209 204.627 12.5098C204.508 12.806 204.331 13.0658 204.094 13.2891C203.861 13.5124 203.572 13.6878 203.226 13.8154C202.884 13.9385 202.49 14 202.043 14H198.898V6.60352H200.163V12.9609H202.043C202.408 12.9609 202.699 12.8949 202.918 12.7627C203.137 12.6305 203.294 12.4596 203.39 12.25C203.485 12.0404 203.533 11.8216 203.533 11.5938C203.533 11.3704 203.485 11.1517 203.39 10.9375C203.294 10.7233 203.137 10.5456 202.918 10.4043C202.699 10.2585 202.408 10.1855 202.043 10.1855H199.821V9.14648ZM211.401 9.80957V10.835H207.491V9.80957H211.401ZM207.758 6.60352V14H206.493V6.60352H207.758ZM212.427 6.60352V14H211.155V6.60352H212.427ZM215.503 9.14648H217.725C218.322 9.14648 218.825 9.2513 219.235 9.46094C219.646 9.66602 219.955 9.95085 220.165 10.3154C220.379 10.6755 220.486 11.0856 220.486 11.5459C220.486 11.8877 220.427 12.209 220.309 12.5098C220.19 12.806 220.012 13.0658 219.775 13.2891C219.543 13.5124 219.254 13.6878 218.907 13.8154C218.565 13.9385 218.171 14 217.725 14H214.58V6.60352H215.845V12.9609H217.725C218.089 12.9609 218.381 12.8949 218.6 12.7627C218.818 12.6305 218.976 12.4596 219.071 12.25C219.167 12.0404 219.215 11.8216 219.215 11.5938C219.215 11.3704 219.167 11.1517 219.071 10.9375C218.976 10.7233 218.818 10.5456 218.6 10.4043C218.381 10.2585 218.089 10.1855 217.725 10.1855H215.503V9.14648ZM223.118 6.60352V14H221.854V6.60352H223.118ZM226.188 6.60352L227.808 9.29688L229.448 6.60352H230.932L228.512 10.2539L231.007 14H229.544L227.835 11.2246L226.126 14H224.656L227.145 10.2539L224.731 6.60352H226.188ZM5.89258 24.6035V25.6494H2.15332V24.6035H5.89258ZM2.33789 24.6035V32H1.07324V24.6035H2.33789ZM7.01367 24.6035V32H5.74219V24.6035H7.01367ZM10.3086 26.0254V34.8438H9.03711V24.6035H10.1992L10.3086 26.0254ZM15.292 28.2402V28.3838C15.292 28.9215 15.2282 29.4206 15.1006 29.8809C14.973 30.3366 14.7861 30.7331 14.54 31.0703C14.2985 31.4076 14 31.6696 13.6445 31.8564C13.2891 32.0433 12.8812 32.1367 12.4209 32.1367C11.9515 32.1367 11.5368 32.0592 11.1768 31.9043C10.8167 31.7493 10.5114 31.5238 10.2607 31.2275C10.0101 30.9313 9.80957 30.5758 9.65918 30.1611C9.51335 29.7464 9.41309 29.2793 9.3584 28.7598V27.9941C9.41309 27.4473 9.51562 26.9574 9.66602 26.5244C9.81641 26.0915 10.0146 25.7223 10.2607 25.417C10.5114 25.1071 10.8145 24.8724 11.1699 24.7129C11.5254 24.5488 11.9355 24.4668 12.4004 24.4668C12.8652 24.4668 13.2777 24.5579 13.6377 24.7402C13.9977 24.918 14.3008 25.1732 14.5469 25.5059C14.793 25.8385 14.9775 26.2373 15.1006 26.7021C15.2282 27.1624 15.292 27.6751 15.292 28.2402ZM14.0205 28.3838V28.2402C14.0205 27.8711 13.9818 27.5247 13.9043 27.2012C13.8268 26.873 13.7061 26.5859 13.542 26.3398C13.3825 26.0892 13.1774 25.8932 12.9268 25.752C12.6761 25.6061 12.3776 25.5332 12.0312 25.5332C11.7122 25.5332 11.4342 25.5879 11.1973 25.6973C10.9648 25.8066 10.7666 25.9548 10.6025 26.1416C10.4385 26.3239 10.304 26.5335 10.1992 26.7705C10.099 27.0029 10.0238 27.2445 9.97363 27.4951V29.2656C10.0648 29.5846 10.1924 29.8854 10.3564 30.168C10.5205 30.446 10.7393 30.6715 11.0127 30.8447C11.2861 31.0133 11.6302 31.0977 12.0449 31.0977C12.3867 31.0977 12.6807 31.027 12.9268 30.8857C13.1774 30.7399 13.3825 30.5417 13.542 30.291C13.7061 30.0404 13.8268 29.7533 13.9043 29.4297C13.9818 29.1016 14.0205 28.7529 14.0205 28.3838ZM18.2725 29.9971L21.6836 24.6035H22.9551V32H21.6836V26.6064L18.2725 32H17.0146V24.6035H18.2725V29.9971ZM29.7295 21.3838H30.7686C30.7686 21.8304 30.7002 22.1859 30.5635 22.4502C30.4268 22.71 30.2399 22.9105 30.0029 23.0518C29.7705 23.193 29.5062 23.3001 29.21 23.373C28.9183 23.446 28.6152 23.5166 28.3008 23.585C27.9089 23.667 27.5443 23.7969 27.207 23.9746C26.8743 24.1478 26.5872 24.3939 26.3457 24.7129C26.1087 25.0319 25.9333 25.4466 25.8193 25.957C25.71 26.4674 25.6803 27.0986 25.7305 27.8506V28.4795H24.6914V27.8506C24.6914 27.0075 24.7712 26.2715 24.9307 25.6426C25.0947 25.0137 25.3249 24.4827 25.6211 24.0498C25.9173 23.6169 26.2682 23.2728 26.6738 23.0176C27.084 22.7624 27.5352 22.5869 28.0273 22.4912C28.3828 22.4229 28.6882 22.3499 28.9434 22.2725C29.1986 22.1904 29.3923 22.0811 29.5244 21.9443C29.6611 21.8076 29.7295 21.6208 29.7295 21.3838ZM28.2324 25.0273C28.7155 25.0273 29.1462 25.1117 29.5244 25.2803C29.9027 25.4489 30.224 25.6836 30.4883 25.9844C30.7526 26.2852 30.9531 26.6406 31.0898 27.0508C31.2311 27.4564 31.3018 27.8984 31.3018 28.377V28.5273C31.3018 29.0423 31.2266 29.5208 31.0762 29.9629C30.9303 30.4004 30.7139 30.7832 30.4268 31.1113C30.1442 31.4349 29.7979 31.6878 29.3877 31.8701C28.9821 32.0524 28.5195 32.1436 28 32.1436C27.4805 32.1436 27.0156 32.0524 26.6055 31.8701C26.1999 31.6878 25.8535 31.4349 25.5664 31.1113C25.2793 30.7832 25.0605 30.4004 24.9102 29.9629C24.7643 29.5208 24.6914 29.0423 24.6914 28.5273V28.377C24.6914 28.263 24.7119 28.1514 24.7529 28.042C24.7939 27.9326 24.8441 27.821 24.9033 27.707C24.9671 27.5931 25.0241 27.4723 25.0742 27.3447C25.2428 26.9346 25.473 26.554 25.7646 26.2031C26.0609 25.8522 26.4141 25.5697 26.8242 25.3555C27.2389 25.1367 27.7083 25.0273 28.2324 25.0273ZM27.9863 26.0596C27.5215 26.0596 27.1387 26.1667 26.8379 26.3809C26.5417 26.5951 26.3206 26.8799 26.1748 27.2354C26.029 27.5863 25.9561 27.9668 25.9561 28.377V28.5273C25.9561 28.8737 25.9971 29.2018 26.0791 29.5117C26.1611 29.8216 26.2842 30.0973 26.4482 30.3389C26.6169 30.5758 26.8288 30.7627 27.084 30.8994C27.3438 31.0361 27.6491 31.1045 28 31.1045C28.3509 31.1045 28.654 31.0361 28.9092 30.8994C29.1644 30.7627 29.374 30.5758 29.5381 30.3389C29.7021 30.0973 29.8252 29.8216 29.9072 29.5117C29.9893 29.2018 30.0303 28.8737 30.0303 28.5273V28.377C30.0303 28.0671 29.9893 27.7731 29.9072 27.4951C29.8252 27.2171 29.6999 26.971 29.5312 26.7568C29.3672 26.5426 29.1553 26.374 28.8955 26.251C28.6403 26.1234 28.3372 26.0596 27.9863 26.0596ZM32.4023 28.3838V28.2266C32.4023 27.6934 32.4798 27.1989 32.6348 26.7432C32.7897 26.2829 33.013 25.8841 33.3047 25.5469C33.5964 25.2051 33.9495 24.9408 34.3643 24.7539C34.779 24.5625 35.2438 24.4668 35.7588 24.4668C36.2783 24.4668 36.7454 24.5625 37.1602 24.7539C37.5794 24.9408 37.9349 25.2051 38.2266 25.5469C38.5228 25.8841 38.7484 26.2829 38.9033 26.7432C39.0583 27.1989 39.1357 27.6934 39.1357 28.2266V28.3838C39.1357 28.917 39.0583 29.4115 38.9033 29.8672C38.7484 30.3229 38.5228 30.7217 38.2266 31.0635C37.9349 31.4007 37.5817 31.665 37.167 31.8564C36.7568 32.0433 36.292 32.1367 35.7725 32.1367C35.2529 32.1367 34.7858 32.0433 34.3711 31.8564C33.9564 31.665 33.6009 31.4007 33.3047 31.0635C33.013 30.7217 32.7897 30.3229 32.6348 29.8672C32.4798 29.4115 32.4023 28.917 32.4023 28.3838ZM33.667 28.2266V28.3838C33.667 28.7529 33.7103 29.1016 33.7969 29.4297C33.8835 29.7533 34.0133 30.0404 34.1865 30.291C34.3643 30.5417 34.5853 30.7399 34.8496 30.8857C35.1139 31.027 35.4215 31.0977 35.7725 31.0977C36.1188 31.0977 36.4219 31.027 36.6816 30.8857C36.946 30.7399 37.1647 30.5417 37.3379 30.291C37.5111 30.0404 37.641 29.7533 37.7275 29.4297C37.8187 29.1016 37.8643 28.7529 37.8643 28.3838V28.2266C37.8643 27.862 37.8187 27.5179 37.7275 27.1943C37.641 26.8662 37.5088 26.5768 37.3311 26.3262C37.1579 26.071 36.9391 25.8704 36.6748 25.7246C36.415 25.5788 36.1097 25.5059 35.7588 25.5059C35.4124 25.5059 35.1071 25.5788 34.8428 25.7246C34.583 25.8704 34.3643 26.071 34.1865 26.3262C34.0133 26.5768 33.8835 26.8662 33.7969 27.1943C33.7103 27.5179 33.667 27.862 33.667 28.2266ZM41.9863 26.0254V34.8438H40.7148V24.6035H41.877L41.9863 26.0254ZM46.9697 28.2402V28.3838C46.9697 28.9215 46.9059 29.4206 46.7783 29.8809C46.6507 30.3366 46.4639 30.7331 46.2178 31.0703C45.9762 31.4076 45.6777 31.6696 45.3223 31.8564C44.9668 32.0433 44.5589 32.1367 44.0986 32.1367C43.6292 32.1367 43.2145 32.0592 42.8545 31.9043C42.4945 31.7493 42.1891 31.5238 41.9385 31.2275C41.6878 30.9313 41.4873 30.5758 41.3369 30.1611C41.1911 29.7464 41.0908 29.2793 41.0361 28.7598V27.9941C41.0908 27.4473 41.1934 26.9574 41.3438 26.5244C41.4941 26.0915 41.6924 25.7223 41.9385 25.417C42.1891 25.1071 42.4922 24.8724 42.8477 24.7129C43.2031 24.5488 43.6133 24.4668 44.0781 24.4668C44.543 24.4668 44.9554 24.5579 45.3154 24.7402C45.6755 24.918 45.9785 25.1732 46.2246 25.5059C46.4707 25.8385 46.6553 26.2373 46.7783 26.7021C46.9059 27.1624 46.9697 27.6751 46.9697 28.2402ZM45.6982 28.3838V28.2402C45.6982 27.8711 45.6595 27.5247 45.582 27.2012C45.5046 26.873 45.3838 26.5859 45.2197 26.3398C45.0602 26.0892 44.8551 25.8932 44.6045 25.752C44.3538 25.6061 44.0553 25.5332 43.709 25.5332C43.39 25.5332 43.112 25.5879 42.875 25.6973C42.6426 25.8066 42.4443 25.9548 42.2803 26.1416C42.1162 26.3239 41.9818 26.5335 41.877 26.7705C41.7767 27.0029 41.7015 27.2445 41.6514 27.4951V29.2656C41.7425 29.5846 41.8701 29.8854 42.0342 30.168C42.1982 30.446 42.417 30.6715 42.6904 30.8447C42.9639 31.0133 43.3079 31.0977 43.7227 31.0977C44.0645 31.0977 44.3584 31.027 44.6045 30.8857C44.8551 30.7399 45.0602 30.5417 45.2197 30.291C45.3838 30.0404 45.5046 29.7533 45.582 29.4297C45.6595 29.1016 45.6982 28.7529 45.6982 28.3838ZM48.248 28.3838V28.2266C48.248 27.6934 48.3255 27.1989 48.4805 26.7432C48.6354 26.2829 48.8587 25.8841 49.1504 25.5469C49.4421 25.2051 49.7952 24.9408 50.21 24.7539C50.6247 24.5625 51.0895 24.4668 51.6045 24.4668C52.124 24.4668 52.5911 24.5625 53.0059 24.7539C53.4251 24.9408 53.7806 25.2051 54.0723 25.5469C54.3685 25.8841 54.5941 26.2829 54.749 26.7432C54.904 27.1989 54.9814 27.6934 54.9814 28.2266V28.3838C54.9814 28.917 54.904 29.4115 54.749 29.8672C54.5941 30.3229 54.3685 30.7217 54.0723 31.0635C53.7806 31.4007 53.4274 31.665 53.0127 31.8564C52.6025 32.0433 52.1377 32.1367 51.6182 32.1367C51.0986 32.1367 50.6315 32.0433 50.2168 31.8564C49.8021 31.665 49.4466 31.4007 49.1504 31.0635C48.8587 30.7217 48.6354 30.3229 48.4805 29.8672C48.3255 29.4115 48.248 28.917 48.248 28.3838ZM49.5127 28.2266V28.3838C49.5127 28.7529 49.556 29.1016 49.6426 29.4297C49.7292 29.7533 49.859 30.0404 50.0322 30.291C50.21 30.5417 50.431 30.7399 50.6953 30.8857C50.9596 31.027 51.2673 31.0977 51.6182 31.0977C51.9645 31.0977 52.2676 31.027 52.5273 30.8857C52.7917 30.7399 53.0104 30.5417 53.1836 30.291C53.3568 30.0404 53.4867 29.7533 53.5732 29.4297C53.6644 29.1016 53.71 28.7529 53.71 28.3838V28.2266C53.71 27.862 53.6644 27.5179 53.5732 27.1943C53.4867 26.8662 53.3545 26.5768 53.1768 26.3262C53.0036 26.071 52.7848 25.8704 52.5205 25.7246C52.2607 25.5788 51.9554 25.5059 51.6045 25.5059C51.2581 25.5059 50.9528 25.5788 50.6885 25.7246C50.4287 25.8704 50.21 26.071 50.0322 26.3262C49.859 26.5768 49.7292 26.8662 49.6426 27.1943C49.556 27.5179 49.5127 27.862 49.5127 28.2266ZM60.04 28.7461H57.6133L57.5996 27.7344H59.582C59.974 27.7344 60.2998 27.6956 60.5596 27.6182C60.8239 27.5407 61.0221 27.4245 61.1543 27.2695C61.2865 27.1146 61.3525 26.9232 61.3525 26.6953C61.3525 26.5176 61.3138 26.3626 61.2363 26.2305C61.1634 26.0938 61.0518 25.9821 60.9014 25.8955C60.751 25.8044 60.5641 25.7383 60.3408 25.6973C60.1221 25.6517 59.8646 25.6289 59.5684 25.6289H57.9482V32H56.6836V24.6035H59.5684C60.0378 24.6035 60.4593 24.6445 60.833 24.7266C61.2113 24.8086 61.5326 24.9339 61.7969 25.1025C62.0658 25.2666 62.2708 25.4762 62.4121 25.7314C62.5534 25.9867 62.624 26.2874 62.624 26.6338C62.624 26.8571 62.5785 27.069 62.4873 27.2695C62.3962 27.4701 62.2617 27.6478 62.084 27.8027C61.9062 27.9577 61.6875 28.0853 61.4277 28.1855C61.168 28.2812 60.8695 28.3428 60.5322 28.3701L60.04 28.7461ZM60.04 32H57.1553L57.7842 30.9746H60.04C60.391 30.9746 60.6826 30.9313 60.915 30.8447C61.1475 30.7536 61.3206 30.626 61.4346 30.4619C61.5531 30.2933 61.6123 30.0928 61.6123 29.8604C61.6123 29.6279 61.5531 29.4297 61.4346 29.2656C61.3206 29.097 61.1475 28.9694 60.915 28.8828C60.6826 28.7917 60.391 28.7461 60.04 28.7461H58.1191L58.1328 27.7344H60.5322L60.9902 28.1172C61.3958 28.1491 61.7399 28.2493 62.0225 28.418C62.305 28.5866 62.5192 28.8008 62.665 29.0605C62.8109 29.3158 62.8838 29.5938 62.8838 29.8945C62.8838 30.2409 62.8177 30.5462 62.6855 30.8105C62.5579 31.0749 62.3711 31.2959 62.125 31.4736C61.8789 31.6468 61.5804 31.779 61.2295 31.8701C60.8786 31.9567 60.4821 32 60.04 32ZM64.3672 25.2939C64.3672 25.0798 64.4333 24.8997 64.5654 24.7539C64.7021 24.6035 64.8981 24.5283 65.1533 24.5283C65.4085 24.5283 65.6022 24.6035 65.7344 24.7539C65.8711 24.8997 65.9395 25.0798 65.9395 25.2939C65.9395 25.5036 65.8711 25.6813 65.7344 25.8271C65.6022 25.973 65.4085 26.0459 65.1533 26.0459C64.8981 26.0459 64.7021 25.973 64.5654 25.8271C64.4333 25.6813 64.3672 25.5036 64.3672 25.2939ZM65.8096 30.4961V31.5146C65.8096 31.9294 65.7048 32.3669 65.4951 32.8271C65.2855 33.292 64.9915 33.6794 64.6133 33.9893L63.8955 33.4902C64.0413 33.2897 64.1644 33.0846 64.2646 32.875C64.3649 32.6699 64.4401 32.4557 64.4902 32.2324C64.5449 32.0137 64.5723 31.7812 64.5723 31.5352V30.4961H65.8096Z" fill="#303030" fill-opacity="0.9"/>
</svg>
