<svg width="301" height="14" viewBox="0 0 301 14" fill="none" xmlns="http://www.w3.org/2000/svg">
<path d="M3.92383 10.0977C4.22461 10.0977 4.5026 10.0361 4.75781 9.91309C5.01302 9.79004 5.22266 9.62142 5.38672 9.40723C5.55078 9.18848 5.64421 8.9401 5.66699 8.66211H6.87012C6.84733 9.09961 6.69922 9.50749 6.42578 9.88574C6.1569 10.2594 5.80371 10.5625 5.36621 10.7949C4.92871 11.0228 4.44792 11.1367 3.92383 11.1367C3.36784 11.1367 2.88249 11.0387 2.46777 10.8428C2.05762 10.6468 1.71582 10.3779 1.44238 10.0361C1.1735 9.69434 0.970703 9.30241 0.833984 8.86035C0.701823 8.41374 0.635742 7.94206 0.635742 7.44531V7.1582C0.635742 6.66146 0.701823 6.19206 0.833984 5.75C0.970703 5.30339 1.1735 4.90918 1.44238 4.56738C1.71582 4.22559 2.05762 3.95671 2.46777 3.76074C2.88249 3.56478 3.36784 3.4668 3.92383 3.4668C4.5026 3.4668 5.00846 3.58529 5.44141 3.82227C5.87435 4.05469 6.21387 4.3737 6.45996 4.7793C6.71061 5.18034 6.84733 5.63607 6.87012 6.14648H5.66699C5.64421 5.84115 5.55762 5.56543 5.40723 5.31934C5.26139 5.07324 5.06087 4.87728 4.80566 4.73145C4.55501 4.58105 4.26107 4.50586 3.92383 4.50586C3.53646 4.50586 3.21061 4.58333 2.94629 4.73828C2.68652 4.88867 2.47917 5.09375 2.32422 5.35352C2.17383 5.60872 2.06445 5.89355 1.99609 6.20801C1.93229 6.5179 1.90039 6.83464 1.90039 7.1582V7.44531C1.90039 7.76888 1.93229 8.08789 1.99609 8.40234C2.0599 8.7168 2.16699 9.00163 2.31738 9.25684C2.47233 9.51204 2.67969 9.71712 2.93945 9.87207C3.20378 10.0225 3.5319 10.0977 3.92383 10.0977ZM9.14648 3.60352L10.7666 6.29688L12.4072 3.60352H13.8906L11.4707 7.25391L13.9658 11H12.5029L10.7939 8.22461L9.08496 11H7.61523L10.1035 7.25391L7.69043 3.60352H9.14648ZM18.1699 11.1367C17.6549 11.1367 17.1878 11.0501 16.7686 10.877C16.3538 10.6992 15.9961 10.4508 15.6953 10.1318C15.3991 9.81283 15.1712 9.43457 15.0117 8.99707C14.8522 8.55957 14.7725 8.08105 14.7725 7.56152V7.27441C14.7725 6.67285 14.8613 6.13737 15.0391 5.66797C15.2168 5.19401 15.4583 4.79297 15.7637 4.46484C16.069 4.13672 16.4154 3.88835 16.8027 3.71973C17.1901 3.55111 17.5911 3.4668 18.0059 3.4668C18.5345 3.4668 18.9902 3.55794 19.373 3.74023C19.7604 3.92253 20.0771 4.17773 20.3232 4.50586C20.5693 4.82943 20.7516 5.21224 20.8701 5.6543C20.9886 6.0918 21.0479 6.57031 21.0479 7.08984V7.65723H15.5244V6.625H19.7832V6.5293C19.765 6.20117 19.6966 5.88216 19.5781 5.57227C19.4642 5.26237 19.2819 5.00716 19.0312 4.80664C18.7806 4.60612 18.4388 4.50586 18.0059 4.50586C17.7188 4.50586 17.4544 4.56738 17.2129 4.69043C16.9714 4.80892 16.764 4.98665 16.5908 5.22363C16.4176 5.46061 16.2832 5.75 16.1875 6.0918C16.0918 6.43359 16.0439 6.8278 16.0439 7.27441V7.56152C16.0439 7.91243 16.0918 8.24284 16.1875 8.55273C16.2878 8.85807 16.4313 9.12695 16.6182 9.35938C16.8096 9.5918 17.0397 9.77409 17.3086 9.90625C17.582 10.0384 17.8919 10.1045 18.2383 10.1045C18.6849 10.1045 19.0632 10.0133 19.373 9.83105C19.6829 9.64876 19.9541 9.40495 20.1865 9.09961L20.9521 9.70801C20.7926 9.94954 20.5898 10.1797 20.3438 10.3984C20.0977 10.6172 19.7946 10.7949 19.4346 10.9316C19.0791 11.0684 18.6576 11.1367 18.1699 11.1367ZM26.7764 9.31836L29.292 3.60352H30.5088L27.2139 11H26.3389L23.0576 3.60352H24.2744L26.7764 9.31836ZM23.9053 3.60352V11H22.6406V3.60352H23.9053ZM29.6064 11V3.60352H30.8779V11H29.6064ZM37.2764 9.73535V5.92773C37.2764 5.63607 37.2171 5.38314 37.0986 5.16895C36.9847 4.9502 36.8115 4.78158 36.5791 4.66309C36.3467 4.5446 36.0596 4.48535 35.7178 4.48535C35.3988 4.48535 35.1185 4.54004 34.877 4.64941C34.64 4.75879 34.4531 4.90234 34.3164 5.08008C34.1842 5.25781 34.1182 5.44922 34.1182 5.6543H32.8535C32.8535 5.38997 32.9219 5.12793 33.0586 4.86816C33.1953 4.6084 33.3913 4.3737 33.6465 4.16406C33.9062 3.94987 34.2161 3.78125 34.5762 3.6582C34.9408 3.5306 35.3464 3.4668 35.793 3.4668C36.3307 3.4668 36.8047 3.55794 37.2148 3.74023C37.6296 3.92253 37.9531 4.19824 38.1855 4.56738C38.4225 4.93197 38.541 5.38997 38.541 5.94141V9.38672C38.541 9.63281 38.5615 9.89486 38.6025 10.1729C38.6481 10.4508 38.7142 10.6901 38.8008 10.8906V11H37.4814C37.4176 10.8542 37.3675 10.6605 37.3311 10.4189C37.2946 10.1729 37.2764 9.94499 37.2764 9.73535ZM37.4951 6.51562L37.5088 7.4043H36.2305C35.8704 7.4043 35.5492 7.43392 35.2666 7.49316C34.984 7.54785 34.7471 7.63216 34.5557 7.74609C34.3643 7.86003 34.2184 8.00358 34.1182 8.17676C34.0179 8.34538 33.9678 8.54362 33.9678 8.77148C33.9678 9.00391 34.0202 9.21582 34.125 9.40723C34.2298 9.59863 34.387 9.7513 34.5967 9.86523C34.8109 9.97461 35.0729 10.0293 35.3828 10.0293C35.7702 10.0293 36.112 9.94727 36.4082 9.7832C36.7044 9.61914 36.9391 9.41862 37.1123 9.18164C37.29 8.94466 37.3857 8.71452 37.3994 8.49121L37.9395 9.09961C37.9076 9.29102 37.821 9.50293 37.6797 9.73535C37.5384 9.96777 37.3493 10.1911 37.1123 10.4053C36.8799 10.6149 36.6019 10.7904 36.2783 10.9316C35.9593 11.0684 35.5993 11.1367 35.1982 11.1367C34.6969 11.1367 34.2572 11.0387 33.8789 10.8428C33.5052 10.6468 33.2135 10.3848 33.0039 10.0566C32.7988 9.72396 32.6963 9.35254 32.6963 8.94238C32.6963 8.5459 32.7738 8.19727 32.9287 7.89648C33.0837 7.59115 33.307 7.33822 33.5986 7.1377C33.8903 6.93262 34.2412 6.77767 34.6514 6.67285C35.0615 6.56803 35.5195 6.51562 36.0254 6.51562H37.4951ZM45.2676 5.02539V13.8438H43.9961V3.60352H45.1582L45.2676 5.02539ZM50.251 7.24023V7.38379C50.251 7.92155 50.1872 8.42057 50.0596 8.88086C49.932 9.33659 49.7451 9.73307 49.499 10.0703C49.2575 10.4076 48.959 10.6696 48.6035 10.8564C48.248 11.0433 47.8402 11.1367 47.3799 11.1367C46.9105 11.1367 46.4958 11.0592 46.1357 10.9043C45.7757 10.7493 45.4704 10.5238 45.2197 10.2275C44.9691 9.93132 44.7686 9.57585 44.6182 9.16113C44.4723 8.74642 44.3721 8.2793 44.3174 7.75977V6.99414C44.3721 6.44727 44.4746 5.95736 44.625 5.52441C44.7754 5.09147 44.9736 4.72233 45.2197 4.41699C45.4704 4.1071 45.7734 3.8724 46.1289 3.71289C46.4844 3.54883 46.8945 3.4668 47.3594 3.4668C47.8242 3.4668 48.2367 3.55794 48.5967 3.74023C48.9567 3.91797 49.2598 4.17318 49.5059 4.50586C49.752 4.83854 49.9365 5.2373 50.0596 5.70215C50.1872 6.16243 50.251 6.67513 50.251 7.24023ZM48.9795 7.38379V7.24023C48.9795 6.87109 48.9408 6.52474 48.8633 6.20117C48.7858 5.87305 48.665 5.58594 48.501 5.33984C48.3415 5.08919 48.1364 4.89323 47.8857 4.75195C47.6351 4.60612 47.3366 4.5332 46.9902 4.5332C46.6712 4.5332 46.3932 4.58789 46.1562 4.69727C45.9238 4.80664 45.7256 4.95475 45.5615 5.1416C45.3975 5.32389 45.263 5.53353 45.1582 5.77051C45.0579 6.00293 44.9827 6.24447 44.9326 6.49512V8.26562C45.0238 8.58464 45.1514 8.88542 45.3154 9.16797C45.4795 9.44596 45.6982 9.67155 45.9717 9.84473C46.2451 10.0133 46.5892 10.0977 47.0039 10.0977C47.3457 10.0977 47.6396 10.027 47.8857 9.88574C48.1364 9.73991 48.3415 9.54167 48.501 9.29102C48.665 9.04036 48.7858 8.75326 48.8633 8.42969C48.9408 8.10156 48.9795 7.75293 48.9795 7.38379ZM56.2256 9.73535V5.92773C56.2256 5.63607 56.1663 5.38314 56.0479 5.16895C55.9339 4.9502 55.7607 4.78158 55.5283 4.66309C55.2959 4.5446 55.0088 4.48535 54.667 4.48535C54.348 4.48535 54.0677 4.54004 53.8262 4.64941C53.5892 4.75879 53.4023 4.90234 53.2656 5.08008C53.1335 5.25781 53.0674 5.44922 53.0674 5.6543H51.8027C51.8027 5.38997 51.8711 5.12793 52.0078 4.86816C52.1445 4.6084 52.3405 4.3737 52.5957 4.16406C52.8555 3.94987 53.1654 3.78125 53.5254 3.6582C53.89 3.5306 54.2956 3.4668 54.7422 3.4668C55.2799 3.4668 55.7539 3.55794 56.1641 3.74023C56.5788 3.92253 56.9023 4.19824 57.1348 4.56738C57.3717 4.93197 57.4902 5.38997 57.4902 5.94141V9.38672C57.4902 9.63281 57.5107 9.89486 57.5518 10.1729C57.5973 10.4508 57.6634 10.6901 57.75 10.8906V11H56.4307C56.3669 10.8542 56.3167 10.6605 56.2803 10.4189C56.2438 10.1729 56.2256 9.94499 56.2256 9.73535ZM56.4443 6.51562L56.458 7.4043H55.1797C54.8197 7.4043 54.4984 7.43392 54.2158 7.49316C53.9333 7.54785 53.6963 7.63216 53.5049 7.74609C53.3135 7.86003 53.1676 8.00358 53.0674 8.17676C52.9671 8.34538 52.917 8.54362 52.917 8.77148C52.917 9.00391 52.9694 9.21582 53.0742 9.40723C53.179 9.59863 53.3363 9.7513 53.5459 9.86523C53.7601 9.97461 54.0221 10.0293 54.332 10.0293C54.7194 10.0293 55.0612 9.94727 55.3574 9.7832C55.6536 9.61914 55.8883 9.41862 56.0615 9.18164C56.2393 8.94466 56.335 8.71452 56.3486 8.49121L56.8887 9.09961C56.8568 9.29102 56.7702 9.50293 56.6289 9.73535C56.4876 9.96777 56.2985 10.1911 56.0615 10.4053C55.8291 10.6149 55.5511 10.7904 55.2275 10.9316C54.9085 11.0684 54.5485 11.1367 54.1475 11.1367C53.6462 11.1367 53.2064 11.0387 52.8281 10.8428C52.4544 10.6468 52.1628 10.3848 51.9531 10.0566C51.748 9.72396 51.6455 9.35254 51.6455 8.94238C51.6455 8.5459 51.723 8.19727 51.8779 7.89648C52.0329 7.59115 52.2562 7.33822 52.5479 7.1377C52.8395 6.93262 53.1904 6.77767 53.6006 6.67285C54.0107 6.56803 54.4688 6.51562 54.9746 6.51562H56.4443ZM62.4395 10.0977C62.7402 10.0977 63.0182 10.0361 63.2734 9.91309C63.5286 9.79004 63.7383 9.62142 63.9023 9.40723C64.0664 9.18848 64.1598 8.9401 64.1826 8.66211H65.3857C65.363 9.09961 65.2148 9.50749 64.9414 9.88574C64.6725 10.2594 64.3193 10.5625 63.8818 10.7949C63.4443 11.0228 62.9635 11.1367 62.4395 11.1367C61.8835 11.1367 61.3981 11.0387 60.9834 10.8428C60.5732 10.6468 60.2314 10.3779 59.958 10.0361C59.6891 9.69434 59.4863 9.30241 59.3496 8.86035C59.2174 8.41374 59.1514 7.94206 59.1514 7.44531V7.1582C59.1514 6.66146 59.2174 6.19206 59.3496 5.75C59.4863 5.30339 59.6891 4.90918 59.958 4.56738C60.2314 4.22559 60.5732 3.95671 60.9834 3.76074C61.3981 3.56478 61.8835 3.4668 62.4395 3.4668C63.0182 3.4668 63.5241 3.58529 63.957 3.82227C64.39 4.05469 64.7295 4.3737 64.9756 4.7793C65.2262 5.18034 65.363 5.63607 65.3857 6.14648H64.1826C64.1598 5.84115 64.0732 5.56543 63.9229 5.31934C63.777 5.07324 63.5765 4.87728 63.3213 4.73145C63.0706 4.58105 62.7767 4.50586 62.4395 4.50586C62.0521 4.50586 61.7262 4.58333 61.4619 4.73828C61.2021 4.88867 60.9948 5.09375 60.8398 5.35352C60.6895 5.60872 60.5801 5.89355 60.5117 6.20801C60.4479 6.5179 60.416 6.83464 60.416 7.1582V7.44531C60.416 7.76888 60.4479 8.08789 60.5117 8.40234C60.5755 8.7168 60.6826 9.00163 60.833 9.25684C60.988 9.51204 61.1953 9.71712 61.4551 9.87207C61.7194 10.0225 62.0475 10.0977 62.4395 10.0977ZM69.7676 10.0977C70.0684 10.0977 70.3464 10.0361 70.6016 9.91309C70.8568 9.79004 71.0664 9.62142 71.2305 9.40723C71.3945 9.18848 71.488 8.9401 71.5107 8.66211H72.7139C72.6911 9.09961 72.543 9.50749 72.2695 9.88574C72.0007 10.2594 71.6475 10.5625 71.21 10.7949C70.7725 11.0228 70.2917 11.1367 69.7676 11.1367C69.2116 11.1367 68.7262 11.0387 68.3115 10.8428C67.9014 10.6468 67.5596 10.3779 67.2861 10.0361C67.0173 9.69434 66.8145 9.30241 66.6777 8.86035C66.5456 8.41374 66.4795 7.94206 66.4795 7.44531V7.1582C66.4795 6.66146 66.5456 6.19206 66.6777 5.75C66.8145 5.30339 67.0173 4.90918 67.2861 4.56738C67.5596 4.22559 67.9014 3.95671 68.3115 3.76074C68.7262 3.56478 69.2116 3.4668 69.7676 3.4668C70.3464 3.4668 70.8522 3.58529 71.2852 3.82227C71.7181 4.05469 72.0576 4.3737 72.3037 4.7793C72.5544 5.18034 72.6911 5.63607 72.7139 6.14648H71.5107C71.488 5.84115 71.4014 5.56543 71.251 5.31934C71.1051 5.07324 70.9046 4.87728 70.6494 4.73145C70.3988 4.58105 70.1048 4.50586 69.7676 4.50586C69.3802 4.50586 69.0544 4.58333 68.79 4.73828C68.5303 4.88867 68.3229 5.09375 68.168 5.35352C68.0176 5.60872 67.9082 5.89355 67.8398 6.20801C67.776 6.5179 67.7441 6.83464 67.7441 7.1582V7.44531C67.7441 7.76888 67.776 8.08789 67.8398 8.40234C67.9036 8.7168 68.0107 9.00163 68.1611 9.25684C68.3161 9.51204 68.5234 9.71712 68.7832 9.87207C69.0475 10.0225 69.3757 10.0977 69.7676 10.0977ZM77.1504 3.60352V11H75.8789V3.60352H77.1504ZM79.6318 3.60352V4.62891H73.4453V3.60352H79.6318ZM85.1279 9.73535V5.92773C85.1279 5.63607 85.0687 5.38314 84.9502 5.16895C84.8363 4.9502 84.6631 4.78158 84.4307 4.66309C84.1982 4.5446 83.9111 4.48535 83.5693 4.48535C83.2503 4.48535 82.9701 4.54004 82.7285 4.64941C82.4915 4.75879 82.3047 4.90234 82.168 5.08008C82.0358 5.25781 81.9697 5.44922 81.9697 5.6543H80.7051C80.7051 5.38997 80.7734 5.12793 80.9102 4.86816C81.0469 4.6084 81.2428 4.3737 81.498 4.16406C81.7578 3.94987 82.0677 3.78125 82.4277 3.6582C82.7923 3.5306 83.1979 3.4668 83.6445 3.4668C84.1823 3.4668 84.6562 3.55794 85.0664 3.74023C85.4811 3.92253 85.8047 4.19824 86.0371 4.56738C86.2741 4.93197 86.3926 5.38997 86.3926 5.94141V9.38672C86.3926 9.63281 86.4131 9.89486 86.4541 10.1729C86.4997 10.4508 86.5658 10.6901 86.6523 10.8906V11H85.333C85.2692 10.8542 85.2191 10.6605 85.1826 10.4189C85.1462 10.1729 85.1279 9.94499 85.1279 9.73535ZM85.3467 6.51562L85.3604 7.4043H84.082C83.722 7.4043 83.4007 7.43392 83.1182 7.49316C82.8356 7.54785 82.5986 7.63216 82.4072 7.74609C82.2158 7.86003 82.07 8.00358 81.9697 8.17676C81.8695 8.34538 81.8193 8.54362 81.8193 8.77148C81.8193 9.00391 81.8717 9.21582 81.9766 9.40723C82.0814 9.59863 82.2386 9.7513 82.4482 9.86523C82.6624 9.97461 82.9245 10.0293 83.2344 10.0293C83.6217 10.0293 83.9635 9.94727 84.2598 9.7832C84.556 9.61914 84.7907 9.41862 84.9639 9.18164C85.1416 8.94466 85.2373 8.71452 85.251 8.49121L85.791 9.09961C85.7591 9.29102 85.6725 9.50293 85.5312 9.73535C85.39 9.96777 85.2008 10.1911 84.9639 10.4053C84.7314 10.6149 84.4535 10.7904 84.1299 10.9316C83.8109 11.0684 83.4508 11.1367 83.0498 11.1367C82.5485 11.1367 82.1087 11.0387 81.7305 10.8428C81.3568 10.6468 81.0651 10.3848 80.8555 10.0566C80.6504 9.72396 80.5479 9.35254 80.5479 8.94238C80.5479 8.5459 80.6253 8.19727 80.7803 7.89648C80.9352 7.59115 81.1585 7.33822 81.4502 7.1377C81.7419 6.93262 82.0928 6.77767 82.5029 6.67285C82.9131 6.56803 83.3711 6.51562 83.877 6.51562H85.3467ZM93.3994 6.80957V7.83496H89.4893V6.80957H93.3994ZM89.7559 3.60352V11H88.4912V3.60352H89.7559ZM94.4248 3.60352V11H93.1533V3.60352H94.4248ZM96.127 7.38379V7.22656C96.127 6.69336 96.2044 6.19889 96.3594 5.74316C96.5143 5.28288 96.7376 4.88411 97.0293 4.54688C97.321 4.20508 97.6742 3.94076 98.0889 3.75391C98.5036 3.5625 98.9684 3.4668 99.4834 3.4668C100.003 3.4668 100.47 3.5625 100.885 3.75391C101.304 3.94076 101.66 4.20508 101.951 4.54688C102.247 4.88411 102.473 5.28288 102.628 5.74316C102.783 6.19889 102.86 6.69336 102.86 7.22656V7.38379C102.86 7.91699 102.783 8.41146 102.628 8.86719C102.473 9.32292 102.247 9.72168 101.951 10.0635C101.66 10.4007 101.306 10.665 100.892 10.8564C100.481 11.0433 100.017 11.1367 99.4971 11.1367C98.9775 11.1367 98.5104 11.0433 98.0957 10.8564C97.681 10.665 97.3255 10.4007 97.0293 10.0635C96.7376 9.72168 96.5143 9.32292 96.3594 8.86719C96.2044 8.41146 96.127 7.91699 96.127 7.38379ZM97.3916 7.22656V7.38379C97.3916 7.75293 97.4349 8.10156 97.5215 8.42969C97.6081 8.75326 97.738 9.04036 97.9111 9.29102C98.0889 9.54167 98.3099 9.73991 98.5742 9.88574C98.8385 10.027 99.1462 10.0977 99.4971 10.0977C99.8434 10.0977 100.146 10.027 100.406 9.88574C100.671 9.73991 100.889 9.54167 101.062 9.29102C101.236 9.04036 101.366 8.75326 101.452 8.42969C101.543 8.10156 101.589 7.75293 101.589 7.38379V7.22656C101.589 6.86198 101.543 6.5179 101.452 6.19434C101.366 5.86621 101.233 5.57682 101.056 5.32617C100.882 5.07096 100.664 4.87044 100.399 4.72461C100.14 4.57878 99.8343 4.50586 99.4834 4.50586C99.137 4.50586 98.8317 4.57878 98.5674 4.72461C98.3076 4.87044 98.0889 5.07096 97.9111 5.32617C97.738 5.57682 97.6081 5.86621 97.5215 6.19434C97.4349 6.5179 97.3916 6.86198 97.3916 7.22656ZM107.919 7.74609H105.492L105.479 6.73438H107.461C107.853 6.73438 108.179 6.69564 108.438 6.61816C108.703 6.54069 108.901 6.42448 109.033 6.26953C109.165 6.11458 109.231 5.92318 109.231 5.69531C109.231 5.51758 109.193 5.36263 109.115 5.23047C109.042 5.09375 108.931 4.9821 108.78 4.89551C108.63 4.80436 108.443 4.73828 108.22 4.69727C108.001 4.65169 107.743 4.62891 107.447 4.62891H105.827V11H104.562V3.60352H107.447C107.917 3.60352 108.338 3.64453 108.712 3.72656C109.09 3.80859 109.411 3.93392 109.676 4.10254C109.945 4.2666 110.15 4.47624 110.291 4.73145C110.432 4.98665 110.503 5.28743 110.503 5.63379C110.503 5.8571 110.457 6.06901 110.366 6.26953C110.275 6.47005 110.141 6.64779 109.963 6.80273C109.785 6.95768 109.566 7.08529 109.307 7.18555C109.047 7.28125 108.748 7.34277 108.411 7.37012L107.919 7.74609ZM107.919 11H105.034L105.663 9.97461H107.919C108.27 9.97461 108.562 9.93132 108.794 9.84473C109.026 9.75358 109.2 9.62598 109.313 9.46191C109.432 9.29329 109.491 9.09277 109.491 8.86035C109.491 8.62793 109.432 8.42969 109.313 8.26562C109.2 8.09701 109.026 7.9694 108.794 7.88281C108.562 7.79167 108.27 7.74609 107.919 7.74609H105.998L106.012 6.73438H108.411L108.869 7.11719C109.275 7.14909 109.619 7.24935 109.901 7.41797C110.184 7.58659 110.398 7.80078 110.544 8.06055C110.69 8.31576 110.763 8.59375 110.763 8.89453C110.763 9.24089 110.697 9.54622 110.564 9.81055C110.437 10.0749 110.25 10.2959 110.004 10.4736C109.758 10.6468 109.459 10.779 109.108 10.8701C108.757 10.9567 108.361 11 107.919 11ZM113.832 3.60352V11H112.567V3.60352H113.832ZM118.686 3.60352L115.179 7.8418H113.408L113.217 6.73438H114.666L117.147 3.60352H118.686ZM117.325 11L114.604 7.65039L115.418 6.73438L118.932 11H117.325ZM121.399 8.99707L124.811 3.60352H126.082V11H124.811V5.60645L121.399 11H120.142V3.60352H121.399V8.99707ZM131.25 7.38379V7.22656C131.25 6.69336 131.327 6.19889 131.482 5.74316C131.637 5.28288 131.861 4.88411 132.152 4.54688C132.444 4.20508 132.797 3.94076 133.212 3.75391C133.627 3.5625 134.091 3.4668 134.606 3.4668C135.126 3.4668 135.593 3.5625 136.008 3.75391C136.427 3.94076 136.783 4.20508 137.074 4.54688C137.37 4.88411 137.596 5.28288 137.751 5.74316C137.906 6.19889 137.983 6.69336 137.983 7.22656V7.38379C137.983 7.91699 137.906 8.41146 137.751 8.86719C137.596 9.32292 137.37 9.72168 137.074 10.0635C136.783 10.4007 136.429 10.665 136.015 10.8564C135.604 11.0433 135.14 11.1367 134.62 11.1367C134.101 11.1367 133.633 11.0433 133.219 10.8564C132.804 10.665 132.449 10.4007 132.152 10.0635C131.861 9.72168 131.637 9.32292 131.482 8.86719C131.327 8.41146 131.25 7.91699 131.25 7.38379ZM132.515 7.22656V7.38379C132.515 7.75293 132.558 8.10156 132.645 8.42969C132.731 8.75326 132.861 9.04036 133.034 9.29102C133.212 9.54167 133.433 9.73991 133.697 9.88574C133.962 10.027 134.269 10.0977 134.62 10.0977C134.966 10.0977 135.27 10.027 135.529 9.88574C135.794 9.73991 136.012 9.54167 136.186 9.29102C136.359 9.04036 136.489 8.75326 136.575 8.42969C136.666 8.10156 136.712 7.75293 136.712 7.38379V7.22656C136.712 6.86198 136.666 6.5179 136.575 6.19434C136.489 5.86621 136.356 5.57682 136.179 5.32617C136.006 5.07096 135.787 4.87044 135.522 4.72461C135.263 4.57878 134.957 4.50586 134.606 4.50586C134.26 4.50586 133.955 4.57878 133.69 4.72461C133.431 4.87044 133.212 5.07096 133.034 5.32617C132.861 5.57682 132.731 5.86621 132.645 6.19434C132.558 6.5179 132.515 6.86198 132.515 7.22656ZM142.529 10.0977C142.83 10.0977 143.108 10.0361 143.363 9.91309C143.618 9.79004 143.828 9.62142 143.992 9.40723C144.156 9.18848 144.25 8.9401 144.272 8.66211H145.476C145.453 9.09961 145.305 9.50749 145.031 9.88574C144.762 10.2594 144.409 10.5625 143.972 10.7949C143.534 11.0228 143.053 11.1367 142.529 11.1367C141.973 11.1367 141.488 11.0387 141.073 10.8428C140.663 10.6468 140.321 10.3779 140.048 10.0361C139.779 9.69434 139.576 9.30241 139.439 8.86035C139.307 8.41374 139.241 7.94206 139.241 7.44531V7.1582C139.241 6.66146 139.307 6.19206 139.439 5.75C139.576 5.30339 139.779 4.90918 140.048 4.56738C140.321 4.22559 140.663 3.95671 141.073 3.76074C141.488 3.56478 141.973 3.4668 142.529 3.4668C143.108 3.4668 143.614 3.58529 144.047 3.82227C144.48 4.05469 144.819 4.3737 145.065 4.7793C145.316 5.18034 145.453 5.63607 145.476 6.14648H144.272C144.25 5.84115 144.163 5.56543 144.013 5.31934C143.867 5.07324 143.666 4.87728 143.411 4.73145C143.16 4.58105 142.867 4.50586 142.529 4.50586C142.142 4.50586 141.816 4.58333 141.552 4.73828C141.292 4.88867 141.085 5.09375 140.93 5.35352C140.779 5.60872 140.67 5.89355 140.602 6.20801C140.538 6.5179 140.506 6.83464 140.506 7.1582V7.44531C140.506 7.76888 140.538 8.08789 140.602 8.40234C140.665 8.7168 140.772 9.00163 140.923 9.25684C141.078 9.51204 141.285 9.71712 141.545 9.87207C141.809 10.0225 142.137 10.0977 142.529 10.0977ZM150.37 7.74609H147.943L147.93 6.73438H149.912C150.304 6.73438 150.63 6.69564 150.89 6.61816C151.154 6.54069 151.352 6.42448 151.484 6.26953C151.617 6.11458 151.683 5.92318 151.683 5.69531C151.683 5.51758 151.644 5.36263 151.566 5.23047C151.493 5.09375 151.382 4.9821 151.231 4.89551C151.081 4.80436 150.894 4.73828 150.671 4.69727C150.452 4.65169 150.195 4.62891 149.898 4.62891H148.278V11H147.014V3.60352H149.898C150.368 3.60352 150.789 3.64453 151.163 3.72656C151.541 3.80859 151.863 3.93392 152.127 4.10254C152.396 4.2666 152.601 4.47624 152.742 4.73145C152.883 4.98665 152.954 5.28743 152.954 5.63379C152.954 5.8571 152.909 6.06901 152.817 6.26953C152.726 6.47005 152.592 6.64779 152.414 6.80273C152.236 6.95768 152.018 7.08529 151.758 7.18555C151.498 7.28125 151.2 7.34277 150.862 7.37012L150.37 7.74609ZM150.37 11H147.485L148.114 9.97461H150.37C150.721 9.97461 151.013 9.93132 151.245 9.84473C151.478 9.75358 151.651 9.62598 151.765 9.46191C151.883 9.29329 151.942 9.09277 151.942 8.86035C151.942 8.62793 151.883 8.42969 151.765 8.26562C151.651 8.09701 151.478 7.9694 151.245 7.88281C151.013 7.79167 150.721 7.74609 150.37 7.74609H148.449L148.463 6.73438H150.862L151.32 7.11719C151.726 7.14909 152.07 7.24935 152.353 7.41797C152.635 7.58659 152.849 7.80078 152.995 8.06055C153.141 8.31576 153.214 8.59375 153.214 8.89453C153.214 9.24089 153.148 9.54622 153.016 9.81055C152.888 10.0749 152.701 10.2959 152.455 10.4736C152.209 10.6468 151.91 10.779 151.56 10.8701C151.209 10.9567 150.812 11 150.37 11ZM157.979 11.1367C157.464 11.1367 156.996 11.0501 156.577 10.877C156.162 10.6992 155.805 10.4508 155.504 10.1318C155.208 9.81283 154.98 9.43457 154.82 8.99707C154.661 8.55957 154.581 8.08105 154.581 7.56152V7.27441C154.581 6.67285 154.67 6.13737 154.848 5.66797C155.025 5.19401 155.267 4.79297 155.572 4.46484C155.878 4.13672 156.224 3.88835 156.611 3.71973C156.999 3.55111 157.4 3.4668 157.814 3.4668C158.343 3.4668 158.799 3.55794 159.182 3.74023C159.569 3.92253 159.886 4.17773 160.132 4.50586C160.378 4.82943 160.56 5.21224 160.679 5.6543C160.797 6.0918 160.856 6.57031 160.856 7.08984V7.65723H155.333V6.625H159.592V6.5293C159.574 6.20117 159.505 5.88216 159.387 5.57227C159.273 5.26237 159.09 5.00716 158.84 4.80664C158.589 4.60612 158.247 4.50586 157.814 4.50586C157.527 4.50586 157.263 4.56738 157.021 4.69043C156.78 4.80892 156.573 4.98665 156.399 5.22363C156.226 5.46061 156.092 5.75 155.996 6.0918C155.9 6.43359 155.853 6.8278 155.853 7.27441V7.56152C155.853 7.91243 155.9 8.24284 155.996 8.55273C156.096 8.85807 156.24 9.12695 156.427 9.35938C156.618 9.5918 156.848 9.77409 157.117 9.90625C157.391 10.0384 157.701 10.1045 158.047 10.1045C158.493 10.1045 158.872 10.0133 159.182 9.83105C159.492 9.64876 159.763 9.40495 159.995 9.09961L160.761 9.70801C160.601 9.94954 160.398 10.1797 160.152 10.3984C159.906 10.6172 159.603 10.7949 159.243 10.9316C158.888 11.0684 158.466 11.1367 157.979 11.1367ZM165.266 3.60352V11H163.994V3.60352H165.266ZM167.747 3.60352V4.62891H161.561V3.60352H167.747ZM170.358 8.99707L173.77 3.60352H175.041V11H173.77V5.60645L170.358 11H169.101V3.60352H170.358V8.99707ZM180.086 3.60352V11H178.814V3.60352H180.086ZM182.567 3.60352V4.62891H176.381V3.60352H182.567ZM186.334 11.1367C185.819 11.1367 185.352 11.0501 184.933 10.877C184.518 10.6992 184.16 10.4508 183.859 10.1318C183.563 9.81283 183.335 9.43457 183.176 8.99707C183.016 8.55957 182.937 8.08105 182.937 7.56152V7.27441C182.937 6.67285 183.025 6.13737 183.203 5.66797C183.381 5.19401 183.622 4.79297 183.928 4.46484C184.233 4.13672 184.579 3.88835 184.967 3.71973C185.354 3.55111 185.755 3.4668 186.17 3.4668C186.699 3.4668 187.154 3.55794 187.537 3.74023C187.924 3.92253 188.241 4.17773 188.487 4.50586C188.733 4.82943 188.916 5.21224 189.034 5.6543C189.153 6.0918 189.212 6.57031 189.212 7.08984V7.65723H183.688V6.625H187.947V6.5293C187.929 6.20117 187.861 5.88216 187.742 5.57227C187.628 5.26237 187.446 5.00716 187.195 4.80664C186.945 4.60612 186.603 4.50586 186.17 4.50586C185.883 4.50586 185.618 4.56738 185.377 4.69043C185.135 4.80892 184.928 4.98665 184.755 5.22363C184.582 5.46061 184.447 5.75 184.352 6.0918C184.256 6.43359 184.208 6.8278 184.208 7.27441V7.56152C184.208 7.91243 184.256 8.24284 184.352 8.55273C184.452 8.85807 184.595 9.12695 184.782 9.35938C184.974 9.5918 185.204 9.77409 185.473 9.90625C185.746 10.0384 186.056 10.1045 186.402 10.1045C186.849 10.1045 187.227 10.0133 187.537 9.83105C187.847 9.64876 188.118 9.40495 188.351 9.09961L189.116 9.70801C188.957 9.94954 188.754 10.1797 188.508 10.3984C188.262 10.6172 187.959 10.7949 187.599 10.9316C187.243 11.0684 186.822 11.1367 186.334 11.1367ZM195.631 3.60352V4.64941H192.056V3.60352H195.631ZM196.745 3.60352V11H195.48V3.60352H196.745ZM191.748 3.60352H193.02L192.828 7.17188C192.796 7.72331 192.744 8.21094 192.671 8.63477C192.603 9.05404 192.507 9.41406 192.384 9.71484C192.265 10.0156 192.115 10.2617 191.933 10.4531C191.755 10.64 191.541 10.779 191.29 10.8701C191.039 10.9567 190.75 11 190.422 11H190.025V9.88574L190.299 9.86523C190.495 9.85156 190.661 9.80599 190.798 9.72852C190.939 9.65104 191.058 9.53711 191.153 9.38672C191.249 9.23177 191.326 9.03353 191.386 8.79199C191.45 8.55046 191.497 8.26335 191.529 7.93066C191.566 7.59798 191.593 7.21061 191.611 6.76855L191.748 3.60352ZM199.821 6.14648H202.043C202.64 6.14648 203.144 6.2513 203.554 6.46094C203.964 6.66602 204.274 6.95085 204.483 7.31543C204.698 7.67546 204.805 8.08561 204.805 8.5459C204.805 8.8877 204.745 9.20898 204.627 9.50977C204.508 9.80599 204.331 10.0658 204.094 10.2891C203.861 10.5124 203.572 10.6878 203.226 10.8154C202.884 10.9385 202.49 11 202.043 11H198.898V3.60352H200.163V9.96094H202.043C202.408 9.96094 202.699 9.89486 202.918 9.7627C203.137 9.63053 203.294 9.45964 203.39 9.25C203.485 9.04036 203.533 8.82161 203.533 8.59375C203.533 8.37044 203.485 8.15169 203.39 7.9375C203.294 7.72331 203.137 7.54557 202.918 7.4043C202.699 7.25846 202.408 7.18555 202.043 7.18555H199.821V6.14648ZM211.401 6.80957V7.83496H207.491V6.80957H211.401ZM207.758 3.60352V11H206.493V3.60352H207.758ZM212.427 3.60352V11H211.155V3.60352H212.427ZM215.503 6.14648H217.725C218.322 6.14648 218.825 6.2513 219.235 6.46094C219.646 6.66602 219.955 6.95085 220.165 7.31543C220.379 7.67546 220.486 8.08561 220.486 8.5459C220.486 8.8877 220.427 9.20898 220.309 9.50977C220.19 9.80599 220.012 10.0658 219.775 10.2891C219.543 10.5124 219.254 10.6878 218.907 10.8154C218.565 10.9385 218.171 11 217.725 11H214.58V3.60352H215.845V9.96094H217.725C218.089 9.96094 218.381 9.89486 218.6 9.7627C218.818 9.63053 218.976 9.45964 219.071 9.25C219.167 9.04036 219.215 8.82161 219.215 8.59375C219.215 8.37044 219.167 8.15169 219.071 7.9375C218.976 7.72331 218.818 7.54557 218.6 7.4043C218.381 7.25846 218.089 7.18555 217.725 7.18555H215.503V6.14648ZM223.118 3.60352V11H221.854V3.60352H223.118ZM226.188 3.60352L227.808 6.29688L229.448 3.60352H230.932L228.512 7.25391L231.007 11H229.544L227.835 8.22461L226.126 11H224.656L227.145 7.25391L224.731 3.60352H226.188ZM240.68 3.60352V4.64941H236.94V3.60352H240.68ZM237.125 3.60352V11H235.86V3.60352H237.125ZM241.801 3.60352V11H240.529V3.60352H241.801ZM245.096 5.02539V13.8438H243.824V3.60352H244.986L245.096 5.02539ZM250.079 7.24023V7.38379C250.079 7.92155 250.015 8.42057 249.888 8.88086C249.76 9.33659 249.573 9.73307 249.327 10.0703C249.086 10.4076 248.787 10.6696 248.432 10.8564C248.076 11.0433 247.668 11.1367 247.208 11.1367C246.739 11.1367 246.324 11.0592 245.964 10.9043C245.604 10.7493 245.299 10.5238 245.048 10.2275C244.797 9.93132 244.597 9.57585 244.446 9.16113C244.3 8.74642 244.2 8.2793 244.146 7.75977V6.99414C244.2 6.44727 244.303 5.95736 244.453 5.52441C244.604 5.09147 244.802 4.72233 245.048 4.41699C245.299 4.1071 245.602 3.8724 245.957 3.71289C246.312 3.54883 246.723 3.4668 247.188 3.4668C247.652 3.4668 248.065 3.55794 248.425 3.74023C248.785 3.91797 249.088 4.17318 249.334 4.50586C249.58 4.83854 249.765 5.2373 249.888 5.70215C250.015 6.16243 250.079 6.67513 250.079 7.24023ZM248.808 7.38379V7.24023C248.808 6.87109 248.769 6.52474 248.691 6.20117C248.614 5.87305 248.493 5.58594 248.329 5.33984C248.17 5.08919 247.965 4.89323 247.714 4.75195C247.463 4.60612 247.165 4.5332 246.818 4.5332C246.499 4.5332 246.221 4.58789 245.984 4.69727C245.752 4.80664 245.554 4.95475 245.39 5.1416C245.226 5.32389 245.091 5.53353 244.986 5.77051C244.886 6.00293 244.811 6.24447 244.761 6.49512V8.26562C244.852 8.58464 244.979 8.88542 245.144 9.16797C245.308 9.44596 245.526 9.67155 245.8 9.84473C246.073 10.0133 246.417 10.0977 246.832 10.0977C247.174 10.0977 247.468 10.027 247.714 9.88574C247.965 9.73991 248.17 9.54167 248.329 9.29102C248.493 9.04036 248.614 8.75326 248.691 8.42969C248.769 8.10156 248.808 7.75293 248.808 7.38379ZM253.06 8.99707L256.471 3.60352H257.742V11H256.471V5.60645L253.06 11H251.802V3.60352H253.06V8.99707ZM264.517 0.383789H265.556C265.556 0.830404 265.487 1.18587 265.351 1.4502C265.214 1.70996 265.027 1.91048 264.79 2.05176C264.558 2.19303 264.293 2.30013 263.997 2.37305C263.705 2.44596 263.402 2.5166 263.088 2.58496C262.696 2.66699 262.331 2.79688 261.994 2.97461C261.661 3.14779 261.374 3.39388 261.133 3.71289C260.896 4.0319 260.72 4.44661 260.606 4.95703C260.497 5.46745 260.467 6.09863 260.518 6.85059V7.47949H259.479V6.85059C259.479 6.00749 259.558 5.27148 259.718 4.64258C259.882 4.01367 260.112 3.48275 260.408 3.0498C260.704 2.61686 261.055 2.27279 261.461 2.01758C261.871 1.76237 262.322 1.58691 262.814 1.49121C263.17 1.42285 263.475 1.34993 263.73 1.27246C263.986 1.19043 264.179 1.08105 264.312 0.944336C264.448 0.807617 264.517 0.620768 264.517 0.383789ZM263.02 4.02734C263.503 4.02734 263.933 4.11165 264.312 4.28027C264.69 4.44889 265.011 4.68359 265.275 4.98438C265.54 5.28516 265.74 5.64062 265.877 6.05078C266.018 6.45638 266.089 6.89844 266.089 7.37695V7.52734C266.089 8.04232 266.014 8.52083 265.863 8.96289C265.717 9.40039 265.501 9.7832 265.214 10.1113C264.931 10.4349 264.585 10.6878 264.175 10.8701C263.769 11.0524 263.307 11.1436 262.787 11.1436C262.268 11.1436 261.803 11.0524 261.393 10.8701C260.987 10.6878 260.641 10.4349 260.354 10.1113C260.066 9.7832 259.848 9.40039 259.697 8.96289C259.551 8.52083 259.479 8.04232 259.479 7.52734V7.37695C259.479 7.26302 259.499 7.15137 259.54 7.04199C259.581 6.93262 259.631 6.82096 259.69 6.70703C259.754 6.5931 259.811 6.47233 259.861 6.34473C260.03 5.93457 260.26 5.55404 260.552 5.20312C260.848 4.85221 261.201 4.56966 261.611 4.35547C262.026 4.13672 262.495 4.02734 263.02 4.02734ZM262.773 5.05957C262.309 5.05957 261.926 5.16667 261.625 5.38086C261.329 5.59505 261.108 5.87988 260.962 6.23535C260.816 6.58626 260.743 6.9668 260.743 7.37695V7.52734C260.743 7.8737 260.784 8.20182 260.866 8.51172C260.948 8.82161 261.071 9.09733 261.235 9.33887C261.404 9.57585 261.616 9.7627 261.871 9.89941C262.131 10.0361 262.436 10.1045 262.787 10.1045C263.138 10.1045 263.441 10.0361 263.696 9.89941C263.951 9.7627 264.161 9.57585 264.325 9.33887C264.489 9.09733 264.612 8.82161 264.694 8.51172C264.776 8.20182 264.817 7.8737 264.817 7.52734V7.37695C264.817 7.06706 264.776 6.77311 264.694 6.49512C264.612 6.21712 264.487 5.97103 264.318 5.75684C264.154 5.54264 263.942 5.37402 263.683 5.25098C263.427 5.12337 263.124 5.05957 262.773 5.05957ZM267.189 7.38379V7.22656C267.189 6.69336 267.267 6.19889 267.422 5.74316C267.577 5.28288 267.8 4.88411 268.092 4.54688C268.383 4.20508 268.737 3.94076 269.151 3.75391C269.566 3.5625 270.031 3.4668 270.546 3.4668C271.065 3.4668 271.533 3.5625 271.947 3.75391C272.367 3.94076 272.722 4.20508 273.014 4.54688C273.31 4.88411 273.535 5.28288 273.69 5.74316C273.845 6.19889 273.923 6.69336 273.923 7.22656V7.38379C273.923 7.91699 273.845 8.41146 273.69 8.86719C273.535 9.32292 273.31 9.72168 273.014 10.0635C272.722 10.4007 272.369 10.665 271.954 10.8564C271.544 11.0433 271.079 11.1367 270.56 11.1367C270.04 11.1367 269.573 11.0433 269.158 10.8564C268.743 10.665 268.388 10.4007 268.092 10.0635C267.8 9.72168 267.577 9.32292 267.422 8.86719C267.267 8.41146 267.189 7.91699 267.189 7.38379ZM268.454 7.22656V7.38379C268.454 7.75293 268.497 8.10156 268.584 8.42969C268.671 8.75326 268.8 9.04036 268.974 9.29102C269.151 9.54167 269.372 9.73991 269.637 9.88574C269.901 10.027 270.209 10.0977 270.56 10.0977C270.906 10.0977 271.209 10.027 271.469 9.88574C271.733 9.73991 271.952 9.54167 272.125 9.29102C272.298 9.04036 272.428 8.75326 272.515 8.42969C272.606 8.10156 272.651 7.75293 272.651 7.38379V7.22656C272.651 6.86198 272.606 6.5179 272.515 6.19434C272.428 5.86621 272.296 5.57682 272.118 5.32617C271.945 5.07096 271.726 4.87044 271.462 4.72461C271.202 4.57878 270.897 4.50586 270.546 4.50586C270.2 4.50586 269.894 4.57878 269.63 4.72461C269.37 4.87044 269.151 5.07096 268.974 5.32617C268.8 5.57682 268.671 5.86621 268.584 6.19434C268.497 6.5179 268.454 6.86198 268.454 7.22656ZM276.773 5.02539V13.8438H275.502V3.60352H276.664L276.773 5.02539ZM281.757 7.24023V7.38379C281.757 7.92155 281.693 8.42057 281.565 8.88086C281.438 9.33659 281.251 9.73307 281.005 10.0703C280.763 10.4076 280.465 10.6696 280.109 10.8564C279.754 11.0433 279.346 11.1367 278.886 11.1367C278.416 11.1367 278.002 11.0592 277.642 10.9043C277.282 10.7493 276.976 10.5238 276.726 10.2275C276.475 9.93132 276.274 9.57585 276.124 9.16113C275.978 8.74642 275.878 8.2793 275.823 7.75977V6.99414C275.878 6.44727 275.98 5.95736 276.131 5.52441C276.281 5.09147 276.479 4.72233 276.726 4.41699C276.976 4.1071 277.279 3.8724 277.635 3.71289C277.99 3.54883 278.4 3.4668 278.865 3.4668C279.33 3.4668 279.743 3.55794 280.103 3.74023C280.463 3.91797 280.766 4.17318 281.012 4.50586C281.258 4.83854 281.442 5.2373 281.565 5.70215C281.693 6.16243 281.757 6.67513 281.757 7.24023ZM280.485 7.38379V7.24023C280.485 6.87109 280.447 6.52474 280.369 6.20117C280.292 5.87305 280.171 5.58594 280.007 5.33984C279.847 5.08919 279.642 4.89323 279.392 4.75195C279.141 4.60612 278.842 4.5332 278.496 4.5332C278.177 4.5332 277.899 4.58789 277.662 4.69727C277.43 4.80664 277.231 4.95475 277.067 5.1416C276.903 5.32389 276.769 5.53353 276.664 5.77051C276.564 6.00293 276.489 6.24447 276.438 6.49512V8.26562C276.53 8.58464 276.657 8.88542 276.821 9.16797C276.985 9.44596 277.204 9.67155 277.478 9.84473C277.751 10.0133 278.095 10.0977 278.51 10.0977C278.852 10.0977 279.146 10.027 279.392 9.88574C279.642 9.73991 279.847 9.54167 280.007 9.29102C280.171 9.04036 280.292 8.75326 280.369 8.42969C280.447 8.10156 280.485 7.75293 280.485 7.38379ZM283.035 7.38379V7.22656C283.035 6.69336 283.113 6.19889 283.268 5.74316C283.423 5.28288 283.646 4.88411 283.938 4.54688C284.229 4.20508 284.582 3.94076 284.997 3.75391C285.412 3.5625 285.877 3.4668 286.392 3.4668C286.911 3.4668 287.378 3.5625 287.793 3.75391C288.212 3.94076 288.568 4.20508 288.859 4.54688C289.156 4.88411 289.381 5.28288 289.536 5.74316C289.691 6.19889 289.769 6.69336 289.769 7.22656V7.38379C289.769 7.91699 289.691 8.41146 289.536 8.86719C289.381 9.32292 289.156 9.72168 288.859 10.0635C288.568 10.4007 288.215 10.665 287.8 10.8564C287.39 11.0433 286.925 11.1367 286.405 11.1367C285.886 11.1367 285.419 11.0433 285.004 10.8564C284.589 10.665 284.234 10.4007 283.938 10.0635C283.646 9.72168 283.423 9.32292 283.268 8.86719C283.113 8.41146 283.035 7.91699 283.035 7.38379ZM284.3 7.22656V7.38379C284.3 7.75293 284.343 8.10156 284.43 8.42969C284.516 8.75326 284.646 9.04036 284.819 9.29102C284.997 9.54167 285.218 9.73991 285.482 9.88574C285.747 10.027 286.054 10.0977 286.405 10.0977C286.752 10.0977 287.055 10.027 287.314 9.88574C287.579 9.73991 287.798 9.54167 287.971 9.29102C288.144 9.04036 288.274 8.75326 288.36 8.42969C288.451 8.10156 288.497 7.75293 288.497 7.38379V7.22656C288.497 6.86198 288.451 6.5179 288.36 6.19434C288.274 5.86621 288.142 5.57682 287.964 5.32617C287.791 5.07096 287.572 4.87044 287.308 4.72461C287.048 4.57878 286.743 4.50586 286.392 4.50586C286.045 4.50586 285.74 4.57878 285.476 4.72461C285.216 4.87044 284.997 5.07096 284.819 5.32617C284.646 5.57682 284.516 5.86621 284.43 6.19434C284.343 6.5179 284.3 6.86198 284.3 7.22656ZM294.827 7.74609H292.4L292.387 6.73438H294.369C294.761 6.73438 295.087 6.69564 295.347 6.61816C295.611 6.54069 295.809 6.42448 295.941 6.26953C296.074 6.11458 296.14 5.92318 296.14 5.69531C296.14 5.51758 296.101 5.36263 296.023 5.23047C295.951 5.09375 295.839 4.9821 295.688 4.89551C295.538 4.80436 295.351 4.73828 295.128 4.69727C294.909 4.65169 294.652 4.62891 294.355 4.62891H292.735V11H291.471V3.60352H294.355C294.825 3.60352 295.246 3.64453 295.62 3.72656C295.998 3.80859 296.32 3.93392 296.584 4.10254C296.853 4.2666 297.058 4.47624 297.199 4.73145C297.34 4.98665 297.411 5.28743 297.411 5.63379C297.411 5.8571 297.366 6.06901 297.274 6.26953C297.183 6.47005 297.049 6.64779 296.871 6.80273C296.693 6.95768 296.475 7.08529 296.215 7.18555C295.955 7.28125 295.657 7.34277 295.319 7.37012L294.827 7.74609ZM294.827 11H291.942L292.571 9.97461H294.827C295.178 9.97461 295.47 9.93132 295.702 9.84473C295.935 9.75358 296.108 9.62598 296.222 9.46191C296.34 9.29329 296.399 9.09277 296.399 8.86035C296.399 8.62793 296.34 8.42969 296.222 8.26562C296.108 8.09701 295.935 7.9694 295.702 7.88281C295.47 7.79167 295.178 7.74609 294.827 7.74609H292.906L292.92 6.73438H295.319L295.777 7.11719C296.183 7.14909 296.527 7.24935 296.81 7.41797C297.092 7.58659 297.306 7.80078 297.452 8.06055C297.598 8.31576 297.671 8.59375 297.671 8.89453C297.671 9.24089 297.605 9.54622 297.473 9.81055C297.345 10.0749 297.158 10.2959 296.912 10.4736C296.666 10.6468 296.368 10.779 296.017 10.8701C295.666 10.9567 295.269 11 294.827 11ZM299.154 4.29395C299.154 4.07975 299.22 3.89974 299.353 3.75391C299.489 3.60352 299.685 3.52832 299.94 3.52832C300.196 3.52832 300.389 3.60352 300.521 3.75391C300.658 3.89974 300.727 4.07975 300.727 4.29395C300.727 4.50358 300.658 4.68132 300.521 4.82715C300.389 4.97298 300.196 5.0459 299.94 5.0459C299.685 5.0459 299.489 4.97298 299.353 4.82715C299.22 4.68132 299.154 4.50358 299.154 4.29395ZM300.597 9.49609V10.5146C300.597 10.9294 300.492 11.3669 300.282 11.8271C300.073 12.292 299.779 12.6794 299.4 12.9893L298.683 12.4902C298.828 12.2897 298.951 12.0846 299.052 11.875C299.152 11.6699 299.227 11.4557 299.277 11.2324C299.332 11.0137 299.359 10.7812 299.359 10.5352V9.49609H300.597Z" fill="#303030" fill-opacity="0.9"/>
</svg>
