<svg width="237" height="36" viewBox="0 0 237 36" fill="none" xmlns="http://www.w3.org/2000/svg">
<path d="M0.628906 10.3838V10.2266C0.628906 9.69336 0.70638 9.19889 0.861328 8.74316C1.01628 8.28288 1.23958 7.88411 1.53125 7.54688C1.82292 7.20508 2.17611 6.94076 2.59082 6.75391C3.00553 6.5625 3.47038 6.4668 3.98535 6.4668C4.50488 6.4668 4.97201 6.5625 5.38672 6.75391C5.80599 6.94076 6.16146 7.20508 6.45312 7.54688C6.74935 7.88411 6.97493 8.28288 7.12988 8.74316C7.28483 9.19889 7.3623 9.69336 7.3623 10.2266V10.3838C7.3623 10.917 7.28483 11.4115 7.12988 11.8672C6.97493 12.3229 6.74935 12.7217 6.45312 13.0635C6.16146 13.4007 5.80827 13.665 5.39355 13.8564C4.9834 14.0433 4.51855 14.1367 3.99902 14.1367C3.47949 14.1367 3.01237 14.0433 2.59766 13.8564C2.18294 13.665 1.82747 13.4007 1.53125 13.0635C1.23958 12.7217 1.01628 12.3229 0.861328 11.8672C0.70638 11.4115 0.628906 10.917 0.628906 10.3838ZM1.89355 10.2266V10.3838C1.89355 10.7529 1.93685 11.1016 2.02344 11.4297C2.11003 11.7533 2.23991 12.0404 2.41309 12.291C2.59082 12.5417 2.81185 12.7399 3.07617 12.8857C3.34049 13.027 3.64811 13.0977 3.99902 13.0977C4.34538 13.0977 4.64844 13.027 4.9082 12.8857C5.17253 12.7399 5.39128 12.5417 5.56445 12.291C5.73763 12.0404 5.86751 11.7533 5.9541 11.4297C6.04525 11.1016 6.09082 10.7529 6.09082 10.3838V10.2266C6.09082 9.86198 6.04525 9.5179 5.9541 9.19434C5.86751 8.86621 5.73535 8.57682 5.55762 8.32617C5.38444 8.07096 5.16569 7.87044 4.90137 7.72461C4.6416 7.57878 4.33626 7.50586 3.98535 7.50586C3.639 7.50586 3.33366 7.57878 3.06934 7.72461C2.80957 7.87044 2.59082 8.07096 2.41309 8.32617C2.23991 8.57682 2.11003 8.86621 2.02344 9.19434C1.93685 9.5179 1.89355 9.86198 1.89355 10.2266ZM13.6924 3.38379H14.7314C14.7314 3.8304 14.6631 4.18587 14.5264 4.4502C14.3896 4.70996 14.2028 4.91048 13.9658 5.05176C13.7334 5.19303 13.4691 5.30013 13.1729 5.37305C12.8812 5.44596 12.5781 5.5166 12.2637 5.58496C11.8717 5.66699 11.5072 5.79688 11.1699 5.97461C10.8372 6.14779 10.5501 6.39388 10.3086 6.71289C10.0716 7.0319 9.89616 7.44661 9.78223 7.95703C9.67285 8.46745 9.64323 9.09863 9.69336 9.85059V10.4795H8.6543V9.85059C8.6543 9.00749 8.73405 8.27148 8.89355 7.64258C9.05762 7.01367 9.28776 6.48275 9.58398 6.0498C9.88021 5.61686 10.2311 5.27279 10.6367 5.01758C11.0469 4.76237 11.498 4.58691 11.9902 4.49121C12.3457 4.42285 12.651 4.34993 12.9062 4.27246C13.1615 4.19043 13.3551 4.08105 13.4873 3.94434C13.624 3.80762 13.6924 3.62077 13.6924 3.38379ZM12.1953 7.02734C12.6784 7.02734 13.109 7.11165 13.4873 7.28027C13.8656 7.44889 14.1868 7.68359 14.4512 7.98438C14.7155 8.28516 14.916 8.64062 15.0527 9.05078C15.194 9.45638 15.2646 9.89844 15.2646 10.377V10.5273C15.2646 11.0423 15.1895 11.5208 15.0391 11.9629C14.8932 12.4004 14.6768 12.7832 14.3896 13.1113C14.1071 13.4349 13.7607 13.6878 13.3506 13.8701C12.945 14.0524 12.4824 14.1436 11.9629 14.1436C11.4434 14.1436 10.9785 14.0524 10.5684 13.8701C10.1628 13.6878 9.81641 13.4349 9.5293 13.1113C9.24219 12.7832 9.02344 12.4004 8.87305 11.9629C8.72721 11.5208 8.6543 11.0423 8.6543 10.5273V10.377C8.6543 10.263 8.6748 10.1514 8.71582 10.042C8.75684 9.93262 8.80697 9.82096 8.86621 9.70703C8.93001 9.5931 8.98698 9.47233 9.03711 9.34473C9.20573 8.93457 9.43587 8.55404 9.72754 8.20312C10.0238 7.85221 10.377 7.56966 10.7871 7.35547C11.2018 7.13672 11.6712 7.02734 12.1953 7.02734ZM11.9492 8.05957C11.4844 8.05957 11.1016 8.16667 10.8008 8.38086C10.5046 8.59505 10.2835 8.87988 10.1377 9.23535C9.99186 9.58626 9.91895 9.9668 9.91895 10.377V10.5273C9.91895 10.8737 9.95996 11.2018 10.042 11.5117C10.124 11.8216 10.2471 12.0973 10.4111 12.3389C10.5798 12.5758 10.7917 12.7627 11.0469 12.8994C11.3066 13.0361 11.612 13.1045 11.9629 13.1045C12.3138 13.1045 12.6169 13.0361 12.8721 12.8994C13.1273 12.7627 13.3369 12.5758 13.501 12.3389C13.665 12.0973 13.7881 11.8216 13.8701 11.5117C13.9521 11.2018 13.9932 10.8737 13.9932 10.5273V10.377C13.9932 10.0671 13.9521 9.77311 13.8701 9.49512C13.7881 9.21712 13.6628 8.97103 13.4941 8.75684C13.3301 8.54264 13.1182 8.37402 12.8584 8.25098C12.6032 8.12337 12.3001 8.05957 11.9492 8.05957ZM20.8291 12.3184L23.3447 6.60352H24.5615L21.2666 14H20.3916L17.1104 6.60352H18.3271L20.8291 12.3184ZM17.958 6.60352V14H16.6934V6.60352H17.958ZM23.6592 14V6.60352H24.9307V14H23.6592ZM30.0371 14.1367C29.5221 14.1367 29.055 14.0501 28.6357 13.877C28.221 13.6992 27.8633 13.4508 27.5625 13.1318C27.2663 12.8128 27.0384 12.4346 26.8789 11.9971C26.7194 11.5596 26.6396 11.0811 26.6396 10.5615V10.2744C26.6396 9.67285 26.7285 9.13737 26.9062 8.66797C27.084 8.19401 27.3255 7.79297 27.6309 7.46484C27.9362 7.13672 28.2826 6.88835 28.6699 6.71973C29.0573 6.55111 29.4583 6.4668 29.873 6.4668C30.4017 6.4668 30.8574 6.55794 31.2402 6.74023C31.6276 6.92253 31.9443 7.17773 32.1904 7.50586C32.4365 7.82943 32.6188 8.21224 32.7373 8.6543C32.8558 9.0918 32.915 9.57031 32.915 10.0898V10.6572H27.3916V9.625H31.6504V9.5293C31.6322 9.20117 31.5638 8.88216 31.4453 8.57227C31.3314 8.26237 31.1491 8.00716 30.8984 7.80664C30.6478 7.60612 30.306 7.50586 29.873 7.50586C29.5859 7.50586 29.3216 7.56738 29.0801 7.69043C28.8385 7.80892 28.6312 7.98665 28.458 8.22363C28.2848 8.46061 28.1504 8.75 28.0547 9.0918C27.959 9.43359 27.9111 9.8278 27.9111 10.2744V10.5615C27.9111 10.9124 27.959 11.2428 28.0547 11.5527C28.1549 11.8581 28.2985 12.127 28.4854 12.3594C28.6768 12.5918 28.9069 12.7741 29.1758 12.9062C29.4492 13.0384 29.7591 13.1045 30.1055 13.1045C30.5521 13.1045 30.9303 13.0133 31.2402 12.8311C31.5501 12.6488 31.8213 12.4049 32.0537 12.0996L32.8193 12.708C32.6598 12.9495 32.457 13.1797 32.2109 13.3984C31.9648 13.6172 31.6618 13.7949 31.3018 13.9316C30.9463 14.0684 30.5247 14.1367 30.0371 14.1367ZM35.6562 8.02539V16.8438H34.3848V6.60352H35.5469L35.6562 8.02539ZM40.6396 10.2402V10.3838C40.6396 10.9215 40.5758 11.4206 40.4482 11.8809C40.3206 12.3366 40.1338 12.7331 39.8877 13.0703C39.6462 13.4076 39.3477 13.6696 38.9922 13.8564C38.6367 14.0433 38.2288 14.1367 37.7686 14.1367C37.2992 14.1367 36.8844 14.0592 36.5244 13.9043C36.1644 13.7493 35.859 13.5238 35.6084 13.2275C35.3577 12.9313 35.1572 12.5758 35.0068 12.1611C34.861 11.7464 34.7607 11.2793 34.7061 10.7598V9.99414C34.7607 9.44727 34.8633 8.95736 35.0137 8.52441C35.1641 8.09147 35.3623 7.72233 35.6084 7.41699C35.859 7.1071 36.1621 6.8724 36.5176 6.71289C36.873 6.54883 37.2832 6.4668 37.748 6.4668C38.2129 6.4668 38.6253 6.55794 38.9854 6.74023C39.3454 6.91797 39.6484 7.17318 39.8945 7.50586C40.1406 7.83854 40.3252 8.2373 40.4482 8.70215C40.5758 9.16243 40.6396 9.67513 40.6396 10.2402ZM39.3682 10.3838V10.2402C39.3682 9.87109 39.3294 9.52474 39.252 9.20117C39.1745 8.87305 39.0537 8.58594 38.8896 8.33984C38.7301 8.08919 38.5251 7.89323 38.2744 7.75195C38.0238 7.60612 37.7253 7.5332 37.3789 7.5332C37.0599 7.5332 36.7819 7.58789 36.5449 7.69727C36.3125 7.80664 36.1143 7.95475 35.9502 8.1416C35.7861 8.32389 35.6517 8.53353 35.5469 8.77051C35.4466 9.00293 35.3714 9.24447 35.3213 9.49512V11.2656C35.4124 11.5846 35.54 11.8854 35.7041 12.168C35.8682 12.446 36.0869 12.6715 36.3604 12.8447C36.6338 13.0133 36.9779 13.0977 37.3926 13.0977C37.7344 13.0977 38.0283 13.027 38.2744 12.8857C38.5251 12.7399 38.7301 12.5417 38.8896 12.291C39.0537 12.0404 39.1745 11.7533 39.252 11.4297C39.3294 11.1016 39.3682 10.7529 39.3682 10.3838ZM43.292 9.14648H45.5137C46.1107 9.14648 46.6143 9.2513 47.0244 9.46094C47.4346 9.66602 47.7445 9.95085 47.9541 10.3154C48.1683 10.6755 48.2754 11.0856 48.2754 11.5459C48.2754 11.8877 48.2161 12.209 48.0977 12.5098C47.9792 12.806 47.8014 13.0658 47.5645 13.2891C47.332 13.5124 47.0426 13.6878 46.6963 13.8154C46.3545 13.9385 45.9603 14 45.5137 14H42.3691V6.60352H43.6338V12.9609H45.5137C45.8783 12.9609 46.1699 12.8949 46.3887 12.7627C46.6074 12.6305 46.7646 12.4596 46.8604 12.25C46.9561 12.0404 47.0039 11.8216 47.0039 11.5938C47.0039 11.3704 46.9561 11.1517 46.8604 10.9375C46.7646 10.7233 46.6074 10.5456 46.3887 10.4043C46.1699 10.2585 45.8783 10.1855 45.5137 10.1855H43.292V9.14648ZM50.9072 6.60352V14H49.6426V6.60352H50.9072ZM56.5469 10.0215V9.95312C56.5469 8.95964 56.6585 8.06185 56.8818 7.25977C57.1051 6.45312 57.39 5.74674 57.7363 5.14062C58.0827 4.53451 58.4473 4.0332 58.8301 3.63672C59.2129 3.23568 59.5661 2.94629 59.8896 2.76855L60.1562 3.60254C59.8874 3.80762 59.6139 4.09017 59.3359 4.4502C59.0625 4.81022 58.8096 5.25228 58.5771 5.77637C58.3493 6.30046 58.1647 6.90885 58.0234 7.60156C57.8822 8.29427 57.8115 9.07357 57.8115 9.93945V10.0352C57.8115 10.901 57.8822 11.6826 58.0234 12.3799C58.1647 13.0726 58.3493 13.6833 58.5771 14.2119C58.8096 14.7406 59.0625 15.1895 59.3359 15.5586C59.6139 15.9323 59.8874 16.2285 60.1562 16.4473L59.8896 17.2129C59.5661 17.0352 59.2129 16.7458 58.8301 16.3447C58.4473 15.9482 58.0827 15.4469 57.7363 14.8408C57.39 14.2393 57.1051 13.5352 56.8818 12.7285C56.6585 11.9219 56.5469 11.0195 56.5469 10.0215ZM64.3535 13.0977C64.6543 13.0977 64.9323 13.0361 65.1875 12.9131C65.4427 12.79 65.6523 12.6214 65.8164 12.4072C65.9805 12.1885 66.0739 11.9401 66.0967 11.6621H67.2998C67.277 12.0996 67.1289 12.5075 66.8555 12.8857C66.5866 13.2594 66.2334 13.5625 65.7959 13.7949C65.3584 14.0228 64.8776 14.1367 64.3535 14.1367C63.7975 14.1367 63.3122 14.0387 62.8975 13.8428C62.4873 13.6468 62.1455 13.3779 61.8721 13.0361C61.6032 12.6943 61.4004 12.3024 61.2637 11.8604C61.1315 11.4137 61.0654 10.9421 61.0654 10.4453V10.1582C61.0654 9.66146 61.1315 9.19206 61.2637 8.75C61.4004 8.30339 61.6032 7.90918 61.8721 7.56738C62.1455 7.22559 62.4873 6.95671 62.8975 6.76074C63.3122 6.56478 63.7975 6.4668 64.3535 6.4668C64.9323 6.4668 65.4382 6.58529 65.8711 6.82227C66.304 7.05469 66.6436 7.3737 66.8896 7.7793C67.1403 8.18034 67.277 8.63607 67.2998 9.14648H66.0967C66.0739 8.84115 65.9873 8.56543 65.8369 8.31934C65.6911 8.07324 65.4906 7.87728 65.2354 7.73145C64.9847 7.58105 64.6908 7.50586 64.3535 7.50586C63.9661 7.50586 63.6403 7.58333 63.376 7.73828C63.1162 7.88867 62.9089 8.09375 62.7539 8.35352C62.6035 8.60872 62.4941 8.89355 62.4258 9.20801C62.362 9.5179 62.3301 9.83464 62.3301 10.1582V10.4453C62.3301 10.7689 62.362 11.0879 62.4258 11.4023C62.4896 11.7168 62.5967 12.0016 62.7471 12.2568C62.902 12.512 63.1094 12.7171 63.3691 12.8721C63.6335 13.0225 63.9616 13.0977 64.3535 13.0977ZM77.123 6.60352V7.64941H73.3838V6.60352H77.123ZM73.5684 6.60352V14H72.3037V6.60352H73.5684ZM78.2441 6.60352V14H76.9727V6.60352H78.2441ZM81.5391 8.02539V16.8438H80.2676V6.60352H81.4297L81.5391 8.02539ZM86.5225 10.2402V10.3838C86.5225 10.9215 86.4587 11.4206 86.3311 11.8809C86.2035 12.3366 86.0166 12.7331 85.7705 13.0703C85.529 13.4076 85.2305 13.6696 84.875 13.8564C84.5195 14.0433 84.1117 14.1367 83.6514 14.1367C83.182 14.1367 82.7673 14.0592 82.4072 13.9043C82.0472 13.7493 81.7419 13.5238 81.4912 13.2275C81.2406 12.9313 81.04 12.5758 80.8896 12.1611C80.7438 11.7464 80.6436 11.2793 80.5889 10.7598V9.99414C80.6436 9.44727 80.7461 8.95736 80.8965 8.52441C81.0469 8.09147 81.2451 7.72233 81.4912 7.41699C81.7419 7.1071 82.0449 6.8724 82.4004 6.71289C82.7559 6.54883 83.166 6.4668 83.6309 6.4668C84.0957 6.4668 84.5081 6.55794 84.8682 6.74023C85.2282 6.91797 85.5312 7.17318 85.7773 7.50586C86.0234 7.83854 86.208 8.2373 86.3311 8.70215C86.4587 9.16243 86.5225 9.67513 86.5225 10.2402ZM85.251 10.3838V10.2402C85.251 9.87109 85.2122 9.52474 85.1348 9.20117C85.0573 8.87305 84.9365 8.58594 84.7725 8.33984C84.613 8.08919 84.4079 7.89323 84.1572 7.75195C83.9066 7.60612 83.6081 7.5332 83.2617 7.5332C82.9427 7.5332 82.6647 7.58789 82.4277 7.69727C82.1953 7.80664 81.9971 7.95475 81.833 8.1416C81.6689 8.32389 81.5345 8.53353 81.4297 8.77051C81.3294 9.00293 81.2542 9.24447 81.2041 9.49512V11.2656C81.2952 11.5846 81.4229 11.8854 81.5869 12.168C81.751 12.446 81.9697 12.6715 82.2432 12.8447C82.5166 13.0133 82.8607 13.0977 83.2754 13.0977C83.6172 13.0977 83.9111 13.027 84.1572 12.8857C84.4079 12.7399 84.613 12.5417 84.7725 12.291C84.9365 12.0404 85.0573 11.7533 85.1348 11.4297C85.2122 11.1016 85.251 10.7529 85.251 10.3838ZM89.5029 11.9971L92.9141 6.60352H94.1855V14H92.9141V8.60645L89.5029 14H88.2451V6.60352H89.5029V11.9971ZM99.6885 10.7461H97.2617L97.248 9.73438H99.2305C99.6224 9.73438 99.9482 9.69564 100.208 9.61816C100.472 9.54069 100.671 9.42448 100.803 9.26953C100.935 9.11458 101.001 8.92318 101.001 8.69531C101.001 8.51758 100.962 8.36263 100.885 8.23047C100.812 8.09375 100.7 7.9821 100.55 7.89551C100.399 7.80436 100.213 7.73828 99.9893 7.69727C99.7705 7.65169 99.513 7.62891 99.2168 7.62891H97.5967V14H96.332V6.60352H99.2168C99.6862 6.60352 100.108 6.64453 100.481 6.72656C100.86 6.80859 101.181 6.93392 101.445 7.10254C101.714 7.2666 101.919 7.47624 102.061 7.73145C102.202 7.98665 102.272 8.28743 102.272 8.63379C102.272 8.8571 102.227 9.06901 102.136 9.26953C102.045 9.47005 101.91 9.64779 101.732 9.80273C101.555 9.95768 101.336 10.0853 101.076 10.1855C100.816 10.2812 100.518 10.3428 100.181 10.3701L99.6885 10.7461ZM99.6885 14H96.8037L97.4326 12.9746H99.6885C100.039 12.9746 100.331 12.9313 100.563 12.8447C100.796 12.7536 100.969 12.626 101.083 12.4619C101.201 12.2933 101.261 12.0928 101.261 11.8604C101.261 11.6279 101.201 11.4297 101.083 11.2656C100.969 11.097 100.796 10.9694 100.563 10.8828C100.331 10.7917 100.039 10.7461 99.6885 10.7461H97.7676L97.7812 9.73438H100.181L100.639 10.1172C101.044 10.1491 101.388 10.2493 101.671 10.418C101.953 10.5866 102.168 10.8008 102.313 11.0605C102.459 11.3158 102.532 11.5938 102.532 11.8945C102.532 12.2409 102.466 12.5462 102.334 12.8105C102.206 13.0749 102.02 13.2959 101.773 13.4736C101.527 13.6468 101.229 13.779 100.878 13.8701C100.527 13.9567 100.131 14 99.6885 14ZM105.725 10.4727H107.092L104.952 14H103.585L105.725 10.4727ZM106.784 6.60352H109.874V14H108.609V7.62891H106.784C106.424 7.62891 106.13 7.69043 105.902 7.81348C105.674 7.93197 105.508 8.08691 105.403 8.27832C105.299 8.46973 105.246 8.66797 105.246 8.87305C105.246 9.07357 105.294 9.26725 105.39 9.4541C105.485 9.63639 105.636 9.78678 105.841 9.90527C106.046 10.0238 106.31 10.083 106.634 10.083H108.951V11.1221H106.634C106.21 11.1221 105.834 11.0651 105.506 10.9512C105.178 10.8372 104.9 10.68 104.672 10.4795C104.444 10.2744 104.271 10.0352 104.152 9.76172C104.034 9.48372 103.975 9.18294 103.975 8.85938C103.975 8.53581 104.036 8.2373 104.159 7.96387C104.287 7.69043 104.469 7.45117 104.706 7.24609C104.948 7.04102 105.242 6.88379 105.588 6.77441C105.939 6.66048 106.338 6.60352 106.784 6.60352ZM114.673 10.4658H113.312V9.68652H114.57C114.921 9.68652 115.199 9.64323 115.404 9.55664C115.609 9.46549 115.755 9.34017 115.842 9.18066C115.928 9.02116 115.972 8.83431 115.972 8.62012C115.972 8.42871 115.922 8.2487 115.821 8.08008C115.726 7.9069 115.571 7.7679 115.356 7.66309C115.142 7.55371 114.855 7.49902 114.495 7.49902C114.203 7.49902 113.939 7.55143 113.702 7.65625C113.465 7.75651 113.276 7.89551 113.135 8.07324C112.998 8.24642 112.93 8.44238 112.93 8.66113H111.665C111.665 8.20996 111.793 7.82259 112.048 7.49902C112.308 7.1709 112.652 6.91797 113.08 6.74023C113.513 6.5625 113.985 6.47363 114.495 6.47363C114.924 6.47363 115.306 6.52148 115.644 6.61719C115.985 6.70833 116.275 6.84505 116.512 7.02734C116.749 7.20508 116.929 7.42839 117.052 7.69727C117.179 7.96159 117.243 8.26921 117.243 8.62012C117.243 8.87077 117.184 9.10775 117.065 9.33105C116.947 9.55436 116.776 9.7526 116.553 9.92578C116.329 10.0944 116.058 10.2266 115.739 10.3223C115.425 10.418 115.069 10.4658 114.673 10.4658ZM113.312 9.9873H114.673C115.115 9.9873 115.505 10.0306 115.842 10.1172C116.179 10.1992 116.462 10.3223 116.689 10.4863C116.917 10.6504 117.088 10.8532 117.202 11.0947C117.321 11.3317 117.38 11.6051 117.38 11.915C117.38 12.2614 117.309 12.5736 117.168 12.8516C117.031 13.125 116.835 13.3574 116.58 13.5488C116.325 13.7402 116.02 13.8861 115.664 13.9863C115.313 14.0866 114.924 14.1367 114.495 14.1367C114.017 14.1367 113.552 14.0547 113.101 13.8906C112.649 13.7266 112.278 13.4736 111.986 13.1318C111.695 12.7855 111.549 12.3457 111.549 11.8125H112.813C112.813 12.0358 112.884 12.2477 113.025 12.4482C113.167 12.6488 113.363 12.8105 113.613 12.9336C113.868 13.0566 114.162 13.1182 114.495 13.1182C114.851 13.1182 115.147 13.0635 115.384 12.9541C115.621 12.8447 115.799 12.6989 115.917 12.5166C116.04 12.3343 116.102 12.1361 116.102 11.9219C116.102 11.6439 116.047 11.4206 115.938 11.252C115.828 11.0833 115.66 10.9603 115.432 10.8828C115.208 10.8008 114.921 10.7598 114.57 10.7598H113.312V9.9873ZM120.395 6.60352V14H119.13V6.60352H120.395ZM125.248 6.60352L121.741 10.8418H119.971L119.779 9.73438H121.229L123.71 6.60352H125.248ZM123.888 14L121.167 10.6504L121.98 9.73438L125.494 14H123.888ZM126.109 10.3838V10.2266C126.109 9.69336 126.187 9.19889 126.342 8.74316C126.497 8.28288 126.72 7.88411 127.012 7.54688C127.303 7.20508 127.657 6.94076 128.071 6.75391C128.486 6.5625 128.951 6.4668 129.466 6.4668C129.985 6.4668 130.452 6.5625 130.867 6.75391C131.286 6.94076 131.642 7.20508 131.934 7.54688C132.23 7.88411 132.455 8.28288 132.61 8.74316C132.765 9.19889 132.843 9.69336 132.843 10.2266V10.3838C132.843 10.917 132.765 11.4115 132.61 11.8672C132.455 12.3229 132.23 12.7217 131.934 13.0635C131.642 13.4007 131.289 13.665 130.874 13.8564C130.464 14.0433 129.999 14.1367 129.479 14.1367C128.96 14.1367 128.493 14.0433 128.078 13.8564C127.663 13.665 127.308 13.4007 127.012 13.0635C126.72 12.7217 126.497 12.3229 126.342 11.8672C126.187 11.4115 126.109 10.917 126.109 10.3838ZM127.374 10.2266V10.3838C127.374 10.7529 127.417 11.1016 127.504 11.4297C127.59 11.7533 127.72 12.0404 127.894 12.291C128.071 12.5417 128.292 12.7399 128.557 12.8857C128.821 13.027 129.129 13.0977 129.479 13.0977C129.826 13.0977 130.129 13.027 130.389 12.8857C130.653 12.7399 130.872 12.5417 131.045 12.291C131.218 12.0404 131.348 11.7533 131.435 11.4297C131.526 11.1016 131.571 10.7529 131.571 10.3838V10.2266C131.571 9.86198 131.526 9.5179 131.435 9.19434C131.348 8.86621 131.216 8.57682 131.038 8.32617C130.865 8.07096 130.646 7.87044 130.382 7.72461C130.122 7.57878 129.817 7.50586 129.466 7.50586C129.119 7.50586 128.814 7.57878 128.55 7.72461C128.29 7.87044 128.071 8.07096 127.894 8.32617C127.72 8.57682 127.59 8.86621 127.504 9.19434C127.417 9.5179 127.374 9.86198 127.374 10.2266ZM135.796 11.9971L139.207 6.60352H140.479V14H139.207V8.60645L135.796 14H134.538V6.60352H135.796V11.9971ZM138.517 3.92383H139.542C139.542 4.2793 139.46 4.59603 139.296 4.87402C139.132 5.14746 138.897 5.36165 138.592 5.5166C138.286 5.67155 137.924 5.74902 137.505 5.74902C136.871 5.74902 136.37 5.5804 136.001 5.24316C135.636 4.90137 135.454 4.46159 135.454 3.92383H136.479C136.479 4.19271 136.557 4.42969 136.712 4.63477C136.867 4.83984 137.131 4.94238 137.505 4.94238C137.869 4.94238 138.129 4.83984 138.284 4.63477C138.439 4.42969 138.517 4.19271 138.517 3.92383ZM2.33105 29.9971L5.74219 24.6035H7.01367V32H5.74219V26.6064L2.33105 32H1.07324V24.6035H2.33105V29.9971ZM14.0615 27.8096V28.835H10.1514V27.8096H14.0615ZM10.418 24.6035V32H9.15332V24.6035H10.418ZM15.0869 24.6035V32H13.8154V24.6035H15.0869ZM19.3662 28.7803L16.5635 24.6035H18.0879L20.002 27.666H21.4785L21.2939 28.7803H19.3662ZM20.0566 28.6504L17.9102 32H16.3105L19.2568 27.7344L20.0566 28.6504ZM22.1279 24.6035V32H20.8633V24.6035H22.1279ZM26.4414 24.6035L23.6387 28.7803H21.7109L21.5127 27.666H22.9961L24.9102 24.6035H26.4414ZM25.0879 32L22.9346 28.6504L23.748 27.7344L26.6875 32H25.0879ZM30.7891 32.1367C30.2741 32.1367 29.807 32.0501 29.3877 31.877C28.973 31.6992 28.6152 31.4508 28.3145 31.1318C28.0182 30.8128 27.7904 30.4346 27.6309 29.9971C27.4714 29.5596 27.3916 29.0811 27.3916 28.5615V28.2744C27.3916 27.6729 27.4805 27.1374 27.6582 26.668C27.8359 26.194 28.0775 25.793 28.3828 25.4648C28.6882 25.1367 29.0345 24.8883 29.4219 24.7197C29.8092 24.5511 30.2103 24.4668 30.625 24.4668C31.1536 24.4668 31.6094 24.5579 31.9922 24.7402C32.3796 24.9225 32.6963 25.1777 32.9424 25.5059C33.1885 25.8294 33.3708 26.2122 33.4893 26.6543C33.6077 27.0918 33.667 27.5703 33.667 28.0898V28.6572H28.1436V27.625H32.4023V27.5293C32.3841 27.2012 32.3158 26.8822 32.1973 26.5723C32.0833 26.2624 31.901 26.0072 31.6504 25.8066C31.3997 25.6061 31.0579 25.5059 30.625 25.5059C30.3379 25.5059 30.0736 25.5674 29.832 25.6904C29.5905 25.8089 29.3831 25.9867 29.21 26.2236C29.0368 26.4606 28.9023 26.75 28.8066 27.0918C28.7109 27.4336 28.6631 27.8278 28.6631 28.2744V28.5615C28.6631 28.9124 28.7109 29.2428 28.8066 29.5527C28.9069 29.8581 29.0505 30.127 29.2373 30.3594C29.4287 30.5918 29.6589 30.7741 29.9277 30.9062C30.2012 31.0384 30.5111 31.1045 30.8574 31.1045C31.304 31.1045 31.6823 31.0133 31.9922 30.8311C32.3021 30.6488 32.5732 30.4049 32.8057 30.0996L33.5713 30.708C33.4118 30.9495 33.209 31.1797 32.9629 31.3984C32.7168 31.6172 32.4137 31.7949 32.0537 31.9316C31.6982 32.0684 31.2767 32.1367 30.7891 32.1367ZM40.1611 27.8096V28.835H36.251V27.8096H40.1611ZM36.5176 24.6035V32H35.2529V24.6035H36.5176ZM41.1865 24.6035V32H39.915V24.6035H41.1865ZM46.293 32.1367C45.778 32.1367 45.3109 32.0501 44.8916 31.877C44.4769 31.6992 44.1191 31.4508 43.8184 31.1318C43.5221 30.8128 43.2943 30.4346 43.1348 29.9971C42.9753 29.5596 42.8955 29.0811 42.8955 28.5615V28.2744C42.8955 27.6729 42.9844 27.1374 43.1621 26.668C43.3398 26.194 43.5814 25.793 43.8867 25.4648C44.1921 25.1367 44.5384 24.8883 44.9258 24.7197C45.3132 24.5511 45.7142 24.4668 46.1289 24.4668C46.6576 24.4668 47.1133 24.5579 47.4961 24.7402C47.8835 24.9225 48.2002 25.1777 48.4463 25.5059C48.6924 25.8294 48.8747 26.2122 48.9932 26.6543C49.1117 27.0918 49.1709 27.5703 49.1709 28.0898V28.6572H43.6475V27.625H47.9062V27.5293C47.888 27.2012 47.8197 26.8822 47.7012 26.5723C47.5872 26.2624 47.4049 26.0072 47.1543 25.8066C46.9036 25.6061 46.5618 25.5059 46.1289 25.5059C45.8418 25.5059 45.5775 25.5674 45.3359 25.6904C45.0944 25.8089 44.887 25.9867 44.7139 26.2236C44.5407 26.4606 44.4062 26.75 44.3105 27.0918C44.2148 27.4336 44.167 27.8278 44.167 28.2744V28.5615C44.167 28.9124 44.2148 29.2428 44.3105 29.5527C44.4108 29.8581 44.5544 30.127 44.7412 30.3594C44.9326 30.5918 45.1628 30.7741 45.4316 30.9062C45.7051 31.0384 46.015 31.1045 46.3613 31.1045C46.8079 31.1045 47.1862 31.0133 47.4961 30.8311C47.806 30.6488 48.0771 30.4049 48.3096 30.0996L49.0752 30.708C48.9157 30.9495 48.7129 31.1797 48.4668 31.3984C48.2207 31.6172 47.9176 31.7949 47.5576 31.9316C47.2021 32.0684 46.7806 32.1367 46.293 32.1367ZM51.9121 26.0254V34.8438H50.6406V24.6035H51.8027L51.9121 26.0254ZM56.8955 28.2402V28.3838C56.8955 28.9215 56.8317 29.4206 56.7041 29.8809C56.5765 30.3366 56.3896 30.7331 56.1436 31.0703C55.902 31.4076 55.6035 31.6696 55.248 31.8564C54.8926 32.0433 54.4847 32.1367 54.0244 32.1367C53.555 32.1367 53.1403 32.0592 52.7803 31.9043C52.4202 31.7493 52.1149 31.5238 51.8643 31.2275C51.6136 30.9313 51.4131 30.5758 51.2627 30.1611C51.1169 29.7464 51.0166 29.2793 50.9619 28.7598V27.9941C51.0166 27.4473 51.1191 26.9574 51.2695 26.5244C51.4199 26.0915 51.6182 25.7223 51.8643 25.417C52.1149 25.1071 52.418 24.8724 52.7734 24.7129C53.1289 24.5488 53.5391 24.4668 54.0039 24.4668C54.4688 24.4668 54.8812 24.5579 55.2412 24.7402C55.6012 24.918 55.9043 25.1732 56.1504 25.5059C56.3965 25.8385 56.5811 26.2373 56.7041 26.7021C56.8317 27.1624 56.8955 27.6751 56.8955 28.2402ZM55.624 28.3838V28.2402C55.624 27.8711 55.5853 27.5247 55.5078 27.2012C55.4303 26.873 55.3096 26.5859 55.1455 26.3398C54.986 26.0892 54.7809 25.8932 54.5303 25.752C54.2796 25.6061 53.9811 25.5332 53.6348 25.5332C53.3158 25.5332 53.0378 25.5879 52.8008 25.6973C52.5684 25.8066 52.3701 25.9548 52.2061 26.1416C52.042 26.3239 51.9076 26.5335 51.8027 26.7705C51.7025 27.0029 51.6273 27.2445 51.5771 27.4951V29.2656C51.6683 29.5846 51.7959 29.8854 51.96 30.168C52.124 30.446 52.3428 30.6715 52.6162 30.8447C52.8896 31.0133 53.2337 31.0977 53.6484 31.0977C53.9902 31.0977 54.2842 31.027 54.5303 30.8857C54.7809 30.7399 54.986 30.5417 55.1455 30.291C55.3096 30.0404 55.4303 29.7533 55.5078 29.4297C55.5853 29.1016 55.624 28.7529 55.624 28.3838ZM63.5264 27.8096V28.835H59.6162V27.8096H63.5264ZM59.8828 24.6035V32H58.6182V24.6035H59.8828ZM64.5518 24.6035V32H63.2803V24.6035H64.5518ZM67.6279 27.1465H69.8496C70.4466 27.1465 70.9502 27.2513 71.3604 27.4609C71.7705 27.666 72.0804 27.9508 72.29 28.3154C72.5042 28.6755 72.6113 29.0856 72.6113 29.5459C72.6113 29.8877 72.5521 30.209 72.4336 30.5098C72.3151 30.806 72.1374 31.0658 71.9004 31.2891C71.668 31.5124 71.3786 31.6878 71.0322 31.8154C70.6904 31.9385 70.2962 32 69.8496 32H66.7051V24.6035H67.9697V30.9609H69.8496C70.2142 30.9609 70.5059 30.8949 70.7246 30.7627C70.9434 30.6305 71.1006 30.4596 71.1963 30.25C71.292 30.0404 71.3398 29.8216 71.3398 29.5938C71.3398 29.3704 71.292 29.1517 71.1963 28.9375C71.1006 28.7233 70.9434 28.5456 70.7246 28.4043C70.5059 28.2585 70.2142 28.1855 69.8496 28.1855H67.6279V27.1465ZM75.2432 24.6035V32H73.9785V24.6035H75.2432ZM78.3125 24.6035L79.9326 27.2969L81.5732 24.6035H83.0566L80.6367 28.2539L83.1318 32H81.6689L79.96 29.2246L78.251 32H76.7812L79.2695 28.2539L76.8564 24.6035H78.3125ZM89.25 24.6035V32H87.9854V24.6035H89.25ZM94.1035 24.6035L90.5967 28.8418H88.8262L88.6348 27.7344H90.084L92.5654 24.6035H94.1035ZM92.7432 32L90.0225 28.6504L90.8359 27.7344L94.3496 32H92.7432ZM94.9648 28.3838V28.2266C94.9648 27.6934 95.0423 27.1989 95.1973 26.7432C95.3522 26.2829 95.5755 25.8841 95.8672 25.5469C96.1589 25.2051 96.512 24.9408 96.9268 24.7539C97.3415 24.5625 97.8063 24.4668 98.3213 24.4668C98.8408 24.4668 99.3079 24.5625 99.7227 24.7539C100.142 24.9408 100.497 25.2051 100.789 25.5469C101.085 25.8841 101.311 26.2829 101.466 26.7432C101.621 27.1989 101.698 27.6934 101.698 28.2266V28.3838C101.698 28.917 101.621 29.4115 101.466 29.8672C101.311 30.3229 101.085 30.7217 100.789 31.0635C100.497 31.4007 100.144 31.665 99.7295 31.8564C99.3193 32.0433 98.8545 32.1367 98.335 32.1367C97.8154 32.1367 97.3483 32.0433 96.9336 31.8564C96.5189 31.665 96.1634 31.4007 95.8672 31.0635C95.5755 30.7217 95.3522 30.3229 95.1973 29.8672C95.0423 29.4115 94.9648 28.917 94.9648 28.3838ZM96.2295 28.2266V28.3838C96.2295 28.7529 96.2728 29.1016 96.3594 29.4297C96.446 29.7533 96.5758 30.0404 96.749 30.291C96.9268 30.5417 97.1478 30.7399 97.4121 30.8857C97.6764 31.027 97.984 31.0977 98.335 31.0977C98.6813 31.0977 98.9844 31.027 99.2441 30.8857C99.5085 30.7399 99.7272 30.5417 99.9004 30.291C100.074 30.0404 100.203 29.7533 100.29 29.4297C100.381 29.1016 100.427 28.7529 100.427 28.3838V28.2266C100.427 27.862 100.381 27.5179 100.29 27.1943C100.203 26.8662 100.071 26.5768 99.8936 26.3262C99.7204 26.071 99.5016 25.8704 99.2373 25.7246C98.9775 25.5788 98.6722 25.5059 98.3213 25.5059C97.9749 25.5059 97.6696 25.5788 97.4053 25.7246C97.1455 25.8704 96.9268 26.071 96.749 26.3262C96.5758 26.5768 96.446 26.8662 96.3594 27.1943C96.2728 27.5179 96.2295 27.862 96.2295 28.2266ZM107.536 30.3184L110.052 24.6035H111.269L107.974 32H107.099L103.817 24.6035H105.034L107.536 30.3184ZM104.665 24.6035V32H103.4V24.6035H104.665ZM110.366 32V24.6035H111.638V32H110.366ZM117.927 30.3184L120.442 24.6035H121.659L118.364 32H117.489L114.208 24.6035H115.425L117.927 30.3184ZM115.056 24.6035V32H113.791V24.6035H115.056ZM120.757 32V24.6035H122.028V32H120.757ZM126.144 31.2344L128.201 24.6035H129.555L126.588 33.1416C126.52 33.3239 126.428 33.5199 126.314 33.7295C126.205 33.9437 126.064 34.1465 125.891 34.3379C125.717 34.5293 125.508 34.6842 125.262 34.8027C125.02 34.9258 124.731 34.9873 124.394 34.9873C124.293 34.9873 124.166 34.9736 124.011 34.9463C123.856 34.9189 123.746 34.8962 123.683 34.8779L123.676 33.8525C123.712 33.8571 123.769 33.8617 123.847 33.8662C123.929 33.8753 123.986 33.8799 124.018 33.8799C124.305 33.8799 124.549 33.8411 124.749 33.7637C124.95 33.6908 125.118 33.5654 125.255 33.3877C125.396 33.2145 125.517 32.9753 125.617 32.6699L126.144 31.2344ZM124.633 24.6035L126.554 30.3457L126.882 31.6787L125.973 32.1436L123.252 24.6035H124.633ZM135.714 27.8096V28.835H131.804V27.8096H135.714ZM132.07 24.6035V32H130.806V24.6035H132.07ZM136.739 24.6035V32H135.468V24.6035H136.739ZM140.144 29.9971L143.555 24.6035H144.826V32H143.555V26.6064L140.144 32H138.886V24.6035H140.144V29.9971ZM148.23 24.6035V32H146.966V24.6035H148.23ZM153.084 24.6035L149.577 28.8418H147.807L147.615 27.7344H149.064L151.546 24.6035H153.084ZM151.724 32L149.003 28.6504L149.816 27.7344L153.33 32H151.724ZM158.792 30.7354V26.9277C158.792 26.6361 158.733 26.3831 158.614 26.1689C158.5 25.9502 158.327 25.7816 158.095 25.6631C157.862 25.5446 157.575 25.4854 157.233 25.4854C156.914 25.4854 156.634 25.54 156.393 25.6494C156.156 25.7588 155.969 25.9023 155.832 26.0801C155.7 26.2578 155.634 26.4492 155.634 26.6543H154.369C154.369 26.39 154.438 26.1279 154.574 25.8682C154.711 25.6084 154.907 25.3737 155.162 25.1641C155.422 24.9499 155.732 24.7812 156.092 24.6582C156.456 24.5306 156.862 24.4668 157.309 24.4668C157.846 24.4668 158.32 24.5579 158.73 24.7402C159.145 24.9225 159.469 25.1982 159.701 25.5674C159.938 25.932 160.057 26.39 160.057 26.9414V30.3867C160.057 30.6328 160.077 30.8949 160.118 31.1729C160.164 31.4508 160.23 31.6901 160.316 31.8906V32H158.997C158.933 31.8542 158.883 31.6605 158.847 31.4189C158.81 31.1729 158.792 30.945 158.792 30.7354ZM159.011 27.5156L159.024 28.4043H157.746C157.386 28.4043 157.065 28.4339 156.782 28.4932C156.5 28.5479 156.263 28.6322 156.071 28.7461C155.88 28.86 155.734 29.0036 155.634 29.1768C155.534 29.3454 155.483 29.5436 155.483 29.7715C155.483 30.0039 155.536 30.2158 155.641 30.4072C155.745 30.5986 155.903 30.7513 156.112 30.8652C156.326 30.9746 156.589 31.0293 156.898 31.0293C157.286 31.0293 157.628 30.9473 157.924 30.7832C158.22 30.6191 158.455 30.4186 158.628 30.1816C158.806 29.9447 158.901 29.7145 158.915 29.4912L159.455 30.0996C159.423 30.291 159.337 30.5029 159.195 30.7354C159.054 30.9678 158.865 31.1911 158.628 31.4053C158.396 31.6149 158.118 31.7904 157.794 31.9316C157.475 32.0684 157.115 32.1367 156.714 32.1367C156.213 32.1367 155.773 32.0387 155.395 31.8428C155.021 31.6468 154.729 31.3848 154.52 31.0566C154.314 30.724 154.212 30.3525 154.212 29.9424C154.212 29.5459 154.289 29.1973 154.444 28.8965C154.599 28.5911 154.823 28.3382 155.114 28.1377C155.406 27.9326 155.757 27.7777 156.167 27.6729C156.577 27.568 157.035 27.5156 157.541 27.5156H159.011ZM162.155 32V24.6035H163.42V30.9609H166.824V24.6035H168.096V32H162.155ZM168.971 30.9609L168.848 34.1943H167.72V32H166.756V30.9609H168.971ZM171.712 29.9971L175.123 24.6035H176.395V32H175.123V26.6064L171.712 32H170.454V24.6035H171.712V29.9971ZM179.792 29.9971L183.203 24.6035H184.475V32H183.203V26.6064L179.792 32H178.534V24.6035H179.792V29.9971ZM182.513 21.9238H183.538C183.538 22.2793 183.456 22.596 183.292 22.874C183.128 23.1475 182.893 23.3617 182.588 23.5166C182.283 23.6715 181.92 23.749 181.501 23.749C180.868 23.749 180.366 23.5804 179.997 23.2432C179.632 22.9014 179.45 22.4616 179.45 21.9238H180.476C180.476 22.1927 180.553 22.4297 180.708 22.6348C180.863 22.8398 181.127 22.9424 181.501 22.9424C181.866 22.9424 182.125 22.8398 182.28 22.6348C182.435 22.4297 182.513 22.1927 182.513 21.9238ZM189.417 27.9531V28.0215C189.417 29.0195 189.305 29.9219 189.082 30.7285C188.859 31.5352 188.574 32.2393 188.228 32.8408C187.881 33.4469 187.517 33.9482 187.134 34.3447C186.751 34.7458 186.398 35.0352 186.074 35.2129L185.808 34.4473C186.076 34.2422 186.348 33.9551 186.621 33.5859C186.895 33.2214 187.147 32.7702 187.38 32.2324C187.612 31.6992 187.799 31.084 187.94 30.3867C188.082 29.6849 188.152 28.901 188.152 28.0352V27.9395C188.152 27.0736 188.077 26.292 187.927 25.5947C187.776 24.8929 187.58 24.2754 187.339 23.7422C187.102 23.209 186.847 22.7601 186.573 22.3955C186.304 22.0264 186.049 21.7415 185.808 21.541L186.074 20.7686C186.398 20.9463 186.751 21.2357 187.134 21.6367C187.517 22.0332 187.881 22.5345 188.228 23.1406C188.574 23.7467 188.859 24.4531 189.082 25.2598C189.305 26.0618 189.417 26.9596 189.417 27.9531ZM191.174 25.2939C191.174 25.0798 191.24 24.8997 191.372 24.7539C191.509 24.6035 191.705 24.5283 191.96 24.5283C192.215 24.5283 192.409 24.6035 192.541 24.7539C192.678 24.8997 192.746 25.0798 192.746 25.2939C192.746 25.5036 192.678 25.6813 192.541 25.8271C192.409 25.973 192.215 26.0459 191.96 26.0459C191.705 26.0459 191.509 25.973 191.372 25.8271C191.24 25.6813 191.174 25.5036 191.174 25.2939ZM192.616 30.4961V31.5146C192.616 31.9294 192.511 32.3669 192.302 32.8271C192.092 33.292 191.798 33.6794 191.42 33.9893L190.702 33.4902C190.848 33.2897 190.971 33.0846 191.071 32.875C191.172 32.6699 191.247 32.4557 191.297 32.2324C191.352 32.0137 191.379 31.7812 191.379 31.5352V30.4961H192.616Z" fill="#303030" fill-opacity="0.9"/>
</svg>
