<svg width="338" height="16" viewBox="0 0 338 16" fill="none" xmlns="http://www.w3.org/2000/svg">
<path d="M0.628906 8.38379V8.22656C0.628906 7.69336 0.70638 7.19889 0.861328 6.74316C1.01628 6.28288 1.23958 5.88411 1.53125 5.54688C1.82292 5.20508 2.17611 4.94076 2.59082 4.75391C3.00553 4.5625 3.47038 4.4668 3.98535 4.4668C4.50488 4.4668 4.97201 4.5625 5.38672 4.75391C5.80599 4.94076 6.16146 5.20508 6.45312 5.54688C6.74935 5.88411 6.97493 6.28288 7.12988 6.74316C7.28483 7.19889 7.3623 7.69336 7.3623 8.22656V8.38379C7.3623 8.91699 7.28483 9.41146 7.12988 9.86719C6.97493 10.3229 6.74935 10.7217 6.45312 11.0635C6.16146 11.4007 5.80827 11.665 5.39355 11.8564C4.9834 12.0433 4.51855 12.1367 3.99902 12.1367C3.47949 12.1367 3.01237 12.0433 2.59766 11.8564C2.18294 11.665 1.82747 11.4007 1.53125 11.0635C1.23958 10.7217 1.01628 10.3229 0.861328 9.86719C0.70638 9.41146 0.628906 8.91699 0.628906 8.38379ZM1.89355 8.22656V8.38379C1.89355 8.75293 1.93685 9.10156 2.02344 9.42969C2.11003 9.75326 2.23991 10.0404 2.41309 10.291C2.59082 10.5417 2.81185 10.7399 3.07617 10.8857C3.34049 11.027 3.64811 11.0977 3.99902 11.0977C4.34538 11.0977 4.64844 11.027 4.9082 10.8857C5.17253 10.7399 5.39128 10.5417 5.56445 10.291C5.73763 10.0404 5.86751 9.75326 5.9541 9.42969C6.04525 9.10156 6.09082 8.75293 6.09082 8.38379V8.22656C6.09082 7.86198 6.04525 7.5179 5.9541 7.19434C5.86751 6.86621 5.73535 6.57682 5.55762 6.32617C5.38444 6.07096 5.16569 5.87044 4.90137 5.72461C4.6416 5.57878 4.33626 5.50586 3.98535 5.50586C3.639 5.50586 3.33366 5.57878 3.06934 5.72461C2.80957 5.87044 2.59082 6.07096 2.41309 6.32617C2.23991 6.57682 2.11003 6.86621 2.02344 7.19434C1.93685 7.5179 1.89355 7.86198 1.89355 8.22656ZM13.6924 1.38379H14.7314C14.7314 1.8304 14.6631 2.18587 14.5264 2.4502C14.3896 2.70996 14.2028 2.91048 13.9658 3.05176C13.7334 3.19303 13.4691 3.30013 13.1729 3.37305C12.8812 3.44596 12.5781 3.5166 12.2637 3.58496C11.8717 3.66699 11.5072 3.79688 11.1699 3.97461C10.8372 4.14779 10.5501 4.39388 10.3086 4.71289C10.0716 5.0319 9.89616 5.44661 9.78223 5.95703C9.67285 6.46745 9.64323 7.09863 9.69336 7.85059V8.47949H8.6543V7.85059C8.6543 7.00749 8.73405 6.27148 8.89355 5.64258C9.05762 5.01367 9.28776 4.48275 9.58398 4.0498C9.88021 3.61686 10.2311 3.27279 10.6367 3.01758C11.0469 2.76237 11.498 2.58691 11.9902 2.49121C12.3457 2.42285 12.651 2.34993 12.9062 2.27246C13.1615 2.19043 13.3551 2.08105 13.4873 1.94434C13.624 1.80762 13.6924 1.62077 13.6924 1.38379ZM12.1953 5.02734C12.6784 5.02734 13.109 5.11165 13.4873 5.28027C13.8656 5.44889 14.1868 5.68359 14.4512 5.98438C14.7155 6.28516 14.916 6.64062 15.0527 7.05078C15.194 7.45638 15.2646 7.89844 15.2646 8.37695V8.52734C15.2646 9.04232 15.1895 9.52083 15.0391 9.96289C14.8932 10.4004 14.6768 10.7832 14.3896 11.1113C14.1071 11.4349 13.7607 11.6878 13.3506 11.8701C12.945 12.0524 12.4824 12.1436 11.9629 12.1436C11.4434 12.1436 10.9785 12.0524 10.5684 11.8701C10.1628 11.6878 9.81641 11.4349 9.5293 11.1113C9.24219 10.7832 9.02344 10.4004 8.87305 9.96289C8.72721 9.52083 8.6543 9.04232 8.6543 8.52734V8.37695C8.6543 8.26302 8.6748 8.15137 8.71582 8.04199C8.75684 7.93262 8.80697 7.82096 8.86621 7.70703C8.93001 7.5931 8.98698 7.47233 9.03711 7.34473C9.20573 6.93457 9.43587 6.55404 9.72754 6.20312C10.0238 5.85221 10.377 5.56966 10.7871 5.35547C11.2018 5.13672 11.6712 5.02734 12.1953 5.02734ZM11.9492 6.05957C11.4844 6.05957 11.1016 6.16667 10.8008 6.38086C10.5046 6.59505 10.2835 6.87988 10.1377 7.23535C9.99186 7.58626 9.91895 7.9668 9.91895 8.37695V8.52734C9.91895 8.8737 9.95996 9.20182 10.042 9.51172C10.124 9.82161 10.2471 10.0973 10.4111 10.3389C10.5798 10.5758 10.7917 10.7627 11.0469 10.8994C11.3066 11.0361 11.612 11.1045 11.9629 11.1045C12.3138 11.1045 12.6169 11.0361 12.8721 10.8994C13.1273 10.7627 13.3369 10.5758 13.501 10.3389C13.665 10.0973 13.7881 9.82161 13.8701 9.51172C13.9521 9.20182 13.9932 8.8737 13.9932 8.52734V8.37695C13.9932 8.06706 13.9521 7.77311 13.8701 7.49512C13.7881 7.21712 13.6628 6.97103 13.4941 6.75684C13.3301 6.54264 13.1182 6.37402 12.8584 6.25098C12.6032 6.12337 12.3001 6.05957 11.9492 6.05957ZM20.8291 10.3184L23.3447 4.60352H24.5615L21.2666 12H20.3916L17.1104 4.60352H18.3271L20.8291 10.3184ZM17.958 4.60352V12H16.6934V4.60352H17.958ZM23.6592 12V4.60352H24.9307V12H23.6592ZM30.0371 12.1367C29.5221 12.1367 29.055 12.0501 28.6357 11.877C28.221 11.6992 27.8633 11.4508 27.5625 11.1318C27.2663 10.8128 27.0384 10.4346 26.8789 9.99707C26.7194 9.55957 26.6396 9.08105 26.6396 8.56152V8.27441C26.6396 7.67285 26.7285 7.13737 26.9062 6.66797C27.084 6.19401 27.3255 5.79297 27.6309 5.46484C27.9362 5.13672 28.2826 4.88835 28.6699 4.71973C29.0573 4.55111 29.4583 4.4668 29.873 4.4668C30.4017 4.4668 30.8574 4.55794 31.2402 4.74023C31.6276 4.92253 31.9443 5.17773 32.1904 5.50586C32.4365 5.82943 32.6188 6.21224 32.7373 6.6543C32.8558 7.0918 32.915 7.57031 32.915 8.08984V8.65723H27.3916V7.625H31.6504V7.5293C31.6322 7.20117 31.5638 6.88216 31.4453 6.57227C31.3314 6.26237 31.1491 6.00716 30.8984 5.80664C30.6478 5.60612 30.306 5.50586 29.873 5.50586C29.5859 5.50586 29.3216 5.56738 29.0801 5.69043C28.8385 5.80892 28.6312 5.98665 28.458 6.22363C28.2848 6.46061 28.1504 6.75 28.0547 7.0918C27.959 7.43359 27.9111 7.8278 27.9111 8.27441V8.56152C27.9111 8.91243 27.959 9.24284 28.0547 9.55273C28.1549 9.85807 28.2985 10.127 28.4854 10.3594C28.6768 10.5918 28.9069 10.7741 29.1758 10.9062C29.4492 11.0384 29.7591 11.1045 30.1055 11.1045C30.5521 11.1045 30.9303 11.0133 31.2402 10.8311C31.5501 10.6488 31.8213 10.4049 32.0537 10.0996L32.8193 10.708C32.6598 10.9495 32.457 11.1797 32.2109 11.3984C31.9648 11.6172 31.6618 11.7949 31.3018 11.9316C30.9463 12.0684 30.5247 12.1367 30.0371 12.1367ZM35.6562 6.02539V14.8438H34.3848V4.60352H35.5469L35.6562 6.02539ZM40.6396 8.24023V8.38379C40.6396 8.92155 40.5758 9.42057 40.4482 9.88086C40.3206 10.3366 40.1338 10.7331 39.8877 11.0703C39.6462 11.4076 39.3477 11.6696 38.9922 11.8564C38.6367 12.0433 38.2288 12.1367 37.7686 12.1367C37.2992 12.1367 36.8844 12.0592 36.5244 11.9043C36.1644 11.7493 35.859 11.5238 35.6084 11.2275C35.3577 10.9313 35.1572 10.5758 35.0068 10.1611C34.861 9.74642 34.7607 9.2793 34.7061 8.75977V7.99414C34.7607 7.44727 34.8633 6.95736 35.0137 6.52441C35.1641 6.09147 35.3623 5.72233 35.6084 5.41699C35.859 5.1071 36.1621 4.8724 36.5176 4.71289C36.873 4.54883 37.2832 4.4668 37.748 4.4668C38.2129 4.4668 38.6253 4.55794 38.9854 4.74023C39.3454 4.91797 39.6484 5.17318 39.8945 5.50586C40.1406 5.83854 40.3252 6.2373 40.4482 6.70215C40.5758 7.16243 40.6396 7.67513 40.6396 8.24023ZM39.3682 8.38379V8.24023C39.3682 7.87109 39.3294 7.52474 39.252 7.20117C39.1745 6.87305 39.0537 6.58594 38.8896 6.33984C38.7301 6.08919 38.5251 5.89323 38.2744 5.75195C38.0238 5.60612 37.7253 5.5332 37.3789 5.5332C37.0599 5.5332 36.7819 5.58789 36.5449 5.69727C36.3125 5.80664 36.1143 5.95475 35.9502 6.1416C35.7861 6.32389 35.6517 6.53353 35.5469 6.77051C35.4466 7.00293 35.3714 7.24447 35.3213 7.49512V9.26562C35.4124 9.58464 35.54 9.88542 35.7041 10.168C35.8682 10.446 36.0869 10.6715 36.3604 10.8447C36.6338 11.0133 36.9779 11.0977 37.3926 11.0977C37.7344 11.0977 38.0283 11.027 38.2744 10.8857C38.5251 10.7399 38.7301 10.5417 38.8896 10.291C39.0537 10.0404 39.1745 9.75326 39.252 9.42969C39.3294 9.10156 39.3682 8.75293 39.3682 8.38379ZM43.292 7.14648H45.5137C46.1107 7.14648 46.6143 7.2513 47.0244 7.46094C47.4346 7.66602 47.7445 7.95085 47.9541 8.31543C48.1683 8.67546 48.2754 9.08561 48.2754 9.5459C48.2754 9.8877 48.2161 10.209 48.0977 10.5098C47.9792 10.806 47.8014 11.0658 47.5645 11.2891C47.332 11.5124 47.0426 11.6878 46.6963 11.8154C46.3545 11.9385 45.9603 12 45.5137 12H42.3691V4.60352H43.6338V10.9609H45.5137C45.8783 10.9609 46.1699 10.8949 46.3887 10.7627C46.6074 10.6305 46.7646 10.4596 46.8604 10.25C46.9561 10.0404 47.0039 9.82161 47.0039 9.59375C47.0039 9.37044 46.9561 9.15169 46.8604 8.9375C46.7646 8.72331 46.6074 8.54557 46.3887 8.4043C46.1699 8.25846 45.8783 8.18555 45.5137 8.18555H43.292V7.14648ZM50.9072 4.60352V12H49.6426V4.60352H50.9072ZM56.5469 8.02148V7.95312C56.5469 6.95964 56.6585 6.06185 56.8818 5.25977C57.1051 4.45312 57.39 3.74674 57.7363 3.14062C58.0827 2.53451 58.4473 2.0332 58.8301 1.63672C59.2129 1.23568 59.5661 0.946289 59.8896 0.768555L60.1562 1.60254C59.8874 1.80762 59.6139 2.09017 59.3359 2.4502C59.0625 2.81022 58.8096 3.25228 58.5771 3.77637C58.3493 4.30046 58.1647 4.90885 58.0234 5.60156C57.8822 6.29427 57.8115 7.07357 57.8115 7.93945V8.03516C57.8115 8.90104 57.8822 9.68262 58.0234 10.3799C58.1647 11.0726 58.3493 11.6833 58.5771 12.2119C58.8096 12.7406 59.0625 13.1895 59.3359 13.5586C59.6139 13.9323 59.8874 14.2285 60.1562 14.4473L59.8896 15.2129C59.5661 15.0352 59.2129 14.7458 58.8301 14.3447C58.4473 13.9482 58.0827 13.4469 57.7363 12.8408C57.39 12.2393 57.1051 11.5352 56.8818 10.7285C56.6585 9.92188 56.5469 9.01953 56.5469 8.02148ZM64.3535 11.0977C64.6543 11.0977 64.9323 11.0361 65.1875 10.9131C65.4427 10.79 65.6523 10.6214 65.8164 10.4072C65.9805 10.1885 66.0739 9.9401 66.0967 9.66211H67.2998C67.277 10.0996 67.1289 10.5075 66.8555 10.8857C66.5866 11.2594 66.2334 11.5625 65.7959 11.7949C65.3584 12.0228 64.8776 12.1367 64.3535 12.1367C63.7975 12.1367 63.3122 12.0387 62.8975 11.8428C62.4873 11.6468 62.1455 11.3779 61.8721 11.0361C61.6032 10.6943 61.4004 10.3024 61.2637 9.86035C61.1315 9.41374 61.0654 8.94206 61.0654 8.44531V8.1582C61.0654 7.66146 61.1315 7.19206 61.2637 6.75C61.4004 6.30339 61.6032 5.90918 61.8721 5.56738C62.1455 5.22559 62.4873 4.95671 62.8975 4.76074C63.3122 4.56478 63.7975 4.4668 64.3535 4.4668C64.9323 4.4668 65.4382 4.58529 65.8711 4.82227C66.304 5.05469 66.6436 5.3737 66.8896 5.7793C67.1403 6.18034 67.277 6.63607 67.2998 7.14648H66.0967C66.0739 6.84115 65.9873 6.56543 65.8369 6.31934C65.6911 6.07324 65.4906 5.87728 65.2354 5.73145C64.9847 5.58105 64.6908 5.50586 64.3535 5.50586C63.9661 5.50586 63.6403 5.58333 63.376 5.73828C63.1162 5.88867 62.9089 6.09375 62.7539 6.35352C62.6035 6.60872 62.4941 6.89355 62.4258 7.20801C62.362 7.5179 62.3301 7.83464 62.3301 8.1582V8.44531C62.3301 8.76888 62.362 9.08789 62.4258 9.40234C62.4896 9.7168 62.5967 10.0016 62.7471 10.2568C62.902 10.512 63.1094 10.7171 63.3691 10.8721C63.6335 11.0225 63.9616 11.0977 64.3535 11.0977ZM77.123 4.60352V5.64941H73.3838V4.60352H77.123ZM73.5684 4.60352V12H72.3037V4.60352H73.5684ZM78.2441 4.60352V12H76.9727V4.60352H78.2441ZM81.5391 6.02539V14.8438H80.2676V4.60352H81.4297L81.5391 6.02539ZM86.5225 8.24023V8.38379C86.5225 8.92155 86.4587 9.42057 86.3311 9.88086C86.2035 10.3366 86.0166 10.7331 85.7705 11.0703C85.529 11.4076 85.2305 11.6696 84.875 11.8564C84.5195 12.0433 84.1117 12.1367 83.6514 12.1367C83.182 12.1367 82.7673 12.0592 82.4072 11.9043C82.0472 11.7493 81.7419 11.5238 81.4912 11.2275C81.2406 10.9313 81.04 10.5758 80.8896 10.1611C80.7438 9.74642 80.6436 9.2793 80.5889 8.75977V7.99414C80.6436 7.44727 80.7461 6.95736 80.8965 6.52441C81.0469 6.09147 81.2451 5.72233 81.4912 5.41699C81.7419 5.1071 82.0449 4.8724 82.4004 4.71289C82.7559 4.54883 83.166 4.4668 83.6309 4.4668C84.0957 4.4668 84.5081 4.55794 84.8682 4.74023C85.2282 4.91797 85.5312 5.17318 85.7773 5.50586C86.0234 5.83854 86.208 6.2373 86.3311 6.70215C86.4587 7.16243 86.5225 7.67513 86.5225 8.24023ZM85.251 8.38379V8.24023C85.251 7.87109 85.2122 7.52474 85.1348 7.20117C85.0573 6.87305 84.9365 6.58594 84.7725 6.33984C84.613 6.08919 84.4079 5.89323 84.1572 5.75195C83.9066 5.60612 83.6081 5.5332 83.2617 5.5332C82.9427 5.5332 82.6647 5.58789 82.4277 5.69727C82.1953 5.80664 81.9971 5.95475 81.833 6.1416C81.6689 6.32389 81.5345 6.53353 81.4297 6.77051C81.3294 7.00293 81.2542 7.24447 81.2041 7.49512V9.26562C81.2952 9.58464 81.4229 9.88542 81.5869 10.168C81.751 10.446 81.9697 10.6715 82.2432 10.8447C82.5166 11.0133 82.8607 11.0977 83.2754 11.0977C83.6172 11.0977 83.9111 11.027 84.1572 10.8857C84.4079 10.7399 84.613 10.5417 84.7725 10.291C84.9365 10.0404 85.0573 9.75326 85.1348 9.42969C85.2122 9.10156 85.251 8.75293 85.251 8.38379ZM89.5029 9.99707L92.9141 4.60352H94.1855V12H92.9141V6.60645L89.5029 12H88.2451V4.60352H89.5029V9.99707ZM99.6885 8.74609H97.2617L97.248 7.73438H99.2305C99.6224 7.73438 99.9482 7.69564 100.208 7.61816C100.472 7.54069 100.671 7.42448 100.803 7.26953C100.935 7.11458 101.001 6.92318 101.001 6.69531C101.001 6.51758 100.962 6.36263 100.885 6.23047C100.812 6.09375 100.7 5.9821 100.55 5.89551C100.399 5.80436 100.213 5.73828 99.9893 5.69727C99.7705 5.65169 99.513 5.62891 99.2168 5.62891H97.5967V12H96.332V4.60352H99.2168C99.6862 4.60352 100.108 4.64453 100.481 4.72656C100.86 4.80859 101.181 4.93392 101.445 5.10254C101.714 5.2666 101.919 5.47624 102.061 5.73145C102.202 5.98665 102.272 6.28743 102.272 6.63379C102.272 6.8571 102.227 7.06901 102.136 7.26953C102.045 7.47005 101.91 7.64779 101.732 7.80273C101.555 7.95768 101.336 8.08529 101.076 8.18555C100.816 8.28125 100.518 8.34277 100.181 8.37012L99.6885 8.74609ZM99.6885 12H96.8037L97.4326 10.9746H99.6885C100.039 10.9746 100.331 10.9313 100.563 10.8447C100.796 10.7536 100.969 10.626 101.083 10.4619C101.201 10.2933 101.261 10.0928 101.261 9.86035C101.261 9.62793 101.201 9.42969 101.083 9.26562C100.969 9.09701 100.796 8.9694 100.563 8.88281C100.331 8.79167 100.039 8.74609 99.6885 8.74609H97.7676L97.7812 7.73438H100.181L100.639 8.11719C101.044 8.14909 101.388 8.24935 101.671 8.41797C101.953 8.58659 102.168 8.80078 102.313 9.06055C102.459 9.31576 102.532 9.59375 102.532 9.89453C102.532 10.2409 102.466 10.5462 102.334 10.8105C102.206 11.0749 102.02 11.2959 101.773 11.4736C101.527 11.6468 101.229 11.779 100.878 11.8701C100.527 11.9567 100.131 12 99.6885 12ZM105.725 8.47266H107.092L104.952 12H103.585L105.725 8.47266ZM106.784 4.60352H109.874V12H108.609V5.62891H106.784C106.424 5.62891 106.13 5.69043 105.902 5.81348C105.674 5.93197 105.508 6.08691 105.403 6.27832C105.299 6.46973 105.246 6.66797 105.246 6.87305C105.246 7.07357 105.294 7.26725 105.39 7.4541C105.485 7.63639 105.636 7.78678 105.841 7.90527C106.046 8.02376 106.31 8.08301 106.634 8.08301H108.951V9.12207H106.634C106.21 9.12207 105.834 9.0651 105.506 8.95117C105.178 8.83724 104.9 8.68001 104.672 8.47949C104.444 8.27441 104.271 8.03516 104.152 7.76172C104.034 7.48372 103.975 7.18294 103.975 6.85938C103.975 6.53581 104.036 6.2373 104.159 5.96387C104.287 5.69043 104.469 5.45117 104.706 5.24609C104.948 5.04102 105.242 4.88379 105.588 4.77441C105.939 4.66048 106.338 4.60352 106.784 4.60352ZM114.673 8.46582H113.312V7.68652H114.57C114.921 7.68652 115.199 7.64323 115.404 7.55664C115.609 7.46549 115.755 7.34017 115.842 7.18066C115.928 7.02116 115.972 6.83431 115.972 6.62012C115.972 6.42871 115.922 6.2487 115.821 6.08008C115.726 5.9069 115.571 5.7679 115.356 5.66309C115.142 5.55371 114.855 5.49902 114.495 5.49902C114.203 5.49902 113.939 5.55143 113.702 5.65625C113.465 5.75651 113.276 5.89551 113.135 6.07324C112.998 6.24642 112.93 6.44238 112.93 6.66113H111.665C111.665 6.20996 111.793 5.82259 112.048 5.49902C112.308 5.1709 112.652 4.91797 113.08 4.74023C113.513 4.5625 113.985 4.47363 114.495 4.47363C114.924 4.47363 115.306 4.52148 115.644 4.61719C115.985 4.70833 116.275 4.84505 116.512 5.02734C116.749 5.20508 116.929 5.42839 117.052 5.69727C117.179 5.96159 117.243 6.26921 117.243 6.62012C117.243 6.87077 117.184 7.10775 117.065 7.33105C116.947 7.55436 116.776 7.7526 116.553 7.92578C116.329 8.0944 116.058 8.22656 115.739 8.32227C115.425 8.41797 115.069 8.46582 114.673 8.46582ZM113.312 7.9873H114.673C115.115 7.9873 115.505 8.0306 115.842 8.11719C116.179 8.19922 116.462 8.32227 116.689 8.48633C116.917 8.65039 117.088 8.85319 117.202 9.09473C117.321 9.33171 117.38 9.60514 117.38 9.91504C117.38 10.2614 117.309 10.5736 117.168 10.8516C117.031 11.125 116.835 11.3574 116.58 11.5488C116.325 11.7402 116.02 11.8861 115.664 11.9863C115.313 12.0866 114.924 12.1367 114.495 12.1367C114.017 12.1367 113.552 12.0547 113.101 11.8906C112.649 11.7266 112.278 11.4736 111.986 11.1318C111.695 10.7855 111.549 10.3457 111.549 9.8125H112.813C112.813 10.0358 112.884 10.2477 113.025 10.4482C113.167 10.6488 113.363 10.8105 113.613 10.9336C113.868 11.0566 114.162 11.1182 114.495 11.1182C114.851 11.1182 115.147 11.0635 115.384 10.9541C115.621 10.8447 115.799 10.6989 115.917 10.5166C116.04 10.3343 116.102 10.1361 116.102 9.92188C116.102 9.64388 116.047 9.42057 115.938 9.25195C115.828 9.08333 115.66 8.96029 115.432 8.88281C115.208 8.80078 114.921 8.75977 114.57 8.75977H113.312V7.9873ZM120.395 4.60352V12H119.13V4.60352H120.395ZM125.248 4.60352L121.741 8.8418H119.971L119.779 7.73438H121.229L123.71 4.60352H125.248ZM123.888 12L121.167 8.65039L121.98 7.73438L125.494 12H123.888ZM126.109 8.38379V8.22656C126.109 7.69336 126.187 7.19889 126.342 6.74316C126.497 6.28288 126.72 5.88411 127.012 5.54688C127.303 5.20508 127.657 4.94076 128.071 4.75391C128.486 4.5625 128.951 4.4668 129.466 4.4668C129.985 4.4668 130.452 4.5625 130.867 4.75391C131.286 4.94076 131.642 5.20508 131.934 5.54688C132.23 5.88411 132.455 6.28288 132.61 6.74316C132.765 7.19889 132.843 7.69336 132.843 8.22656V8.38379C132.843 8.91699 132.765 9.41146 132.61 9.86719C132.455 10.3229 132.23 10.7217 131.934 11.0635C131.642 11.4007 131.289 11.665 130.874 11.8564C130.464 12.0433 129.999 12.1367 129.479 12.1367C128.96 12.1367 128.493 12.0433 128.078 11.8564C127.663 11.665 127.308 11.4007 127.012 11.0635C126.72 10.7217 126.497 10.3229 126.342 9.86719C126.187 9.41146 126.109 8.91699 126.109 8.38379ZM127.374 8.22656V8.38379C127.374 8.75293 127.417 9.10156 127.504 9.42969C127.59 9.75326 127.72 10.0404 127.894 10.291C128.071 10.5417 128.292 10.7399 128.557 10.8857C128.821 11.027 129.129 11.0977 129.479 11.0977C129.826 11.0977 130.129 11.027 130.389 10.8857C130.653 10.7399 130.872 10.5417 131.045 10.291C131.218 10.0404 131.348 9.75326 131.435 9.42969C131.526 9.10156 131.571 8.75293 131.571 8.38379V8.22656C131.571 7.86198 131.526 7.5179 131.435 7.19434C131.348 6.86621 131.216 6.57682 131.038 6.32617C130.865 6.07096 130.646 5.87044 130.382 5.72461C130.122 5.57878 129.817 5.50586 129.466 5.50586C129.119 5.50586 128.814 5.57878 128.55 5.72461C128.29 5.87044 128.071 6.07096 127.894 6.32617C127.72 6.57682 127.59 6.86621 127.504 7.19434C127.417 7.5179 127.374 7.86198 127.374 8.22656ZM135.796 9.99707L139.207 4.60352H140.479V12H139.207V6.60645L135.796 12H134.538V4.60352H135.796V9.99707ZM138.517 1.92383H139.542C139.542 2.2793 139.46 2.59603 139.296 2.87402C139.132 3.14746 138.897 3.36165 138.592 3.5166C138.286 3.67155 137.924 3.74902 137.505 3.74902C136.871 3.74902 136.37 3.5804 136.001 3.24316C135.636 2.90137 135.454 2.46159 135.454 1.92383H136.479C136.479 2.19271 136.557 2.42969 136.712 2.63477C136.867 2.83984 137.131 2.94238 137.505 2.94238C137.869 2.94238 138.129 2.83984 138.284 2.63477C138.439 2.42969 138.517 2.19271 138.517 1.92383ZM147.349 9.99707L150.76 4.60352H152.031V12H150.76V6.60645L147.349 12H146.091V4.60352H147.349V9.99707ZM159.079 7.80957V8.83496H155.169V7.80957H159.079ZM155.436 4.60352V12H154.171V4.60352H155.436ZM160.104 4.60352V12H158.833V4.60352H160.104ZM164.384 8.78027L161.581 4.60352H163.105L165.02 7.66602H166.496L166.312 8.78027H164.384ZM165.074 8.65039L162.928 12H161.328L164.274 7.73438L165.074 8.65039ZM167.146 4.60352V12H165.881V4.60352H167.146ZM171.459 4.60352L168.656 8.78027H166.729L166.53 7.66602H168.014L169.928 4.60352H171.459ZM170.105 12L167.952 8.65039L168.766 7.73438L171.705 12H170.105ZM175.807 12.1367C175.292 12.1367 174.825 12.0501 174.405 11.877C173.991 11.6992 173.633 11.4508 173.332 11.1318C173.036 10.8128 172.808 10.4346 172.648 9.99707C172.489 9.55957 172.409 9.08105 172.409 8.56152V8.27441C172.409 7.67285 172.498 7.13737 172.676 6.66797C172.854 6.19401 173.095 5.79297 173.4 5.46484C173.706 5.13672 174.052 4.88835 174.439 4.71973C174.827 4.55111 175.228 4.4668 175.643 4.4668C176.171 4.4668 176.627 4.55794 177.01 4.74023C177.397 4.92253 177.714 5.17773 177.96 5.50586C178.206 5.82943 178.388 6.21224 178.507 6.6543C178.625 7.0918 178.685 7.57031 178.685 8.08984V8.65723H173.161V7.625H177.42V7.5293C177.402 7.20117 177.333 6.88216 177.215 6.57227C177.101 6.26237 176.919 6.00716 176.668 5.80664C176.417 5.60612 176.076 5.50586 175.643 5.50586C175.355 5.50586 175.091 5.56738 174.85 5.69043C174.608 5.80892 174.401 5.98665 174.228 6.22363C174.054 6.46061 173.92 6.75 173.824 7.0918C173.729 7.43359 173.681 7.8278 173.681 8.27441V8.56152C173.681 8.91243 173.729 9.24284 173.824 9.55273C173.924 9.85807 174.068 10.127 174.255 10.3594C174.446 10.5918 174.676 10.7741 174.945 10.9062C175.219 11.0384 175.529 11.1045 175.875 11.1045C176.322 11.1045 176.7 11.0133 177.01 10.8311C177.32 10.6488 177.591 10.4049 177.823 10.0996L178.589 10.708C178.429 10.9495 178.227 11.1797 177.98 11.3984C177.734 11.6172 177.431 11.7949 177.071 11.9316C176.716 12.0684 176.294 12.1367 175.807 12.1367ZM185.179 7.80957V8.83496H181.269V7.80957H185.179ZM181.535 4.60352V12H180.271V4.60352H181.535ZM186.204 4.60352V12H184.933V4.60352H186.204ZM191.311 12.1367C190.796 12.1367 190.328 12.0501 189.909 11.877C189.494 11.6992 189.137 11.4508 188.836 11.1318C188.54 10.8128 188.312 10.4346 188.152 9.99707C187.993 9.55957 187.913 9.08105 187.913 8.56152V8.27441C187.913 7.67285 188.002 7.13737 188.18 6.66797C188.357 6.19401 188.599 5.79297 188.904 5.46484C189.21 5.13672 189.556 4.88835 189.943 4.71973C190.331 4.55111 190.732 4.4668 191.146 4.4668C191.675 4.4668 192.131 4.55794 192.514 4.74023C192.901 4.92253 193.218 5.17773 193.464 5.50586C193.71 5.82943 193.892 6.21224 194.011 6.6543C194.129 7.0918 194.188 7.57031 194.188 8.08984V8.65723H188.665V7.625H192.924V7.5293C192.906 7.20117 192.837 6.88216 192.719 6.57227C192.605 6.26237 192.423 6.00716 192.172 5.80664C191.921 5.60612 191.579 5.50586 191.146 5.50586C190.859 5.50586 190.595 5.56738 190.354 5.69043C190.112 5.80892 189.905 5.98665 189.731 6.22363C189.558 6.46061 189.424 6.75 189.328 7.0918C189.232 7.43359 189.185 7.8278 189.185 8.27441V8.56152C189.185 8.91243 189.232 9.24284 189.328 9.55273C189.428 9.85807 189.572 10.127 189.759 10.3594C189.95 10.5918 190.18 10.7741 190.449 10.9062C190.723 11.0384 191.033 11.1045 191.379 11.1045C191.826 11.1045 192.204 11.0133 192.514 10.8311C192.824 10.6488 193.095 10.4049 193.327 10.0996L194.093 10.708C193.933 10.9495 193.73 11.1797 193.484 11.3984C193.238 11.6172 192.935 11.7949 192.575 11.9316C192.22 12.0684 191.798 12.1367 191.311 12.1367ZM196.93 6.02539V14.8438H195.658V4.60352H196.82L196.93 6.02539ZM201.913 8.24023V8.38379C201.913 8.92155 201.849 9.42057 201.722 9.88086C201.594 10.3366 201.407 10.7331 201.161 11.0703C200.92 11.4076 200.621 11.6696 200.266 11.8564C199.91 12.0433 199.502 12.1367 199.042 12.1367C198.573 12.1367 198.158 12.0592 197.798 11.9043C197.438 11.7493 197.132 11.5238 196.882 11.2275C196.631 10.9313 196.431 10.5758 196.28 10.1611C196.134 9.74642 196.034 9.2793 195.979 8.75977V7.99414C196.034 7.44727 196.137 6.95736 196.287 6.52441C196.438 6.09147 196.636 5.72233 196.882 5.41699C197.132 5.1071 197.436 4.8724 197.791 4.71289C198.146 4.54883 198.557 4.4668 199.021 4.4668C199.486 4.4668 199.899 4.55794 200.259 4.74023C200.619 4.91797 200.922 5.17318 201.168 5.50586C201.414 5.83854 201.599 6.2373 201.722 6.70215C201.849 7.16243 201.913 7.67513 201.913 8.24023ZM200.642 8.38379V8.24023C200.642 7.87109 200.603 7.52474 200.525 7.20117C200.448 6.87305 200.327 6.58594 200.163 6.33984C200.004 6.08919 199.799 5.89323 199.548 5.75195C199.297 5.60612 198.999 5.5332 198.652 5.5332C198.333 5.5332 198.055 5.58789 197.818 5.69727C197.586 5.80664 197.388 5.95475 197.224 6.1416C197.06 6.32389 196.925 6.53353 196.82 6.77051C196.72 7.00293 196.645 7.24447 196.595 7.49512V9.26562C196.686 9.58464 196.813 9.88542 196.978 10.168C197.142 10.446 197.36 10.6715 197.634 10.8447C197.907 11.0133 198.251 11.0977 198.666 11.0977C199.008 11.0977 199.302 11.027 199.548 10.8857C199.799 10.7399 200.004 10.5417 200.163 10.291C200.327 10.0404 200.448 9.75326 200.525 9.42969C200.603 9.10156 200.642 8.75293 200.642 8.38379ZM208.544 7.80957V8.83496H204.634V7.80957H208.544ZM204.9 4.60352V12H203.636V4.60352H204.9ZM209.569 4.60352V12H208.298V4.60352H209.569ZM212.646 7.14648H214.867C215.464 7.14648 215.968 7.2513 216.378 7.46094C216.788 7.66602 217.098 7.95085 217.308 8.31543C217.522 8.67546 217.629 9.08561 217.629 9.5459C217.629 9.8877 217.57 10.209 217.451 10.5098C217.333 10.806 217.155 11.0658 216.918 11.2891C216.686 11.5124 216.396 11.6878 216.05 11.8154C215.708 11.9385 215.314 12 214.867 12H211.723V4.60352H212.987V10.9609H214.867C215.232 10.9609 215.523 10.8949 215.742 10.7627C215.961 10.6305 216.118 10.4596 216.214 10.25C216.31 10.0404 216.357 9.82161 216.357 9.59375C216.357 9.37044 216.31 9.15169 216.214 8.9375C216.118 8.72331 215.961 8.54557 215.742 8.4043C215.523 8.25846 215.232 8.18555 214.867 8.18555H212.646V7.14648ZM220.261 4.60352V12H218.996V4.60352H220.261ZM223.33 4.60352L224.95 7.29688L226.591 4.60352H228.074L225.654 8.25391L228.149 12H226.687L224.978 9.22461L223.269 12H221.799L224.287 8.25391L221.874 4.60352H223.33ZM234.268 4.60352V12H233.003V4.60352H234.268ZM239.121 4.60352L235.614 8.8418H233.844L233.652 7.73438H235.102L237.583 4.60352H239.121ZM237.761 12L235.04 8.65039L235.854 7.73438L239.367 12H237.761ZM239.982 8.38379V8.22656C239.982 7.69336 240.06 7.19889 240.215 6.74316C240.37 6.28288 240.593 5.88411 240.885 5.54688C241.176 5.20508 241.53 4.94076 241.944 4.75391C242.359 4.5625 242.824 4.4668 243.339 4.4668C243.858 4.4668 244.326 4.5625 244.74 4.75391C245.16 4.94076 245.515 5.20508 245.807 5.54688C246.103 5.88411 246.328 6.28288 246.483 6.74316C246.638 7.19889 246.716 7.69336 246.716 8.22656V8.38379C246.716 8.91699 246.638 9.41146 246.483 9.86719C246.328 10.3229 246.103 10.7217 245.807 11.0635C245.515 11.4007 245.162 11.665 244.747 11.8564C244.337 12.0433 243.872 12.1367 243.353 12.1367C242.833 12.1367 242.366 12.0433 241.951 11.8564C241.536 11.665 241.181 11.4007 240.885 11.0635C240.593 10.7217 240.37 10.3229 240.215 9.86719C240.06 9.41146 239.982 8.91699 239.982 8.38379ZM241.247 8.22656V8.38379C241.247 8.75293 241.29 9.10156 241.377 9.42969C241.464 9.75326 241.593 10.0404 241.767 10.291C241.944 10.5417 242.165 10.7399 242.43 10.8857C242.694 11.027 243.002 11.0977 243.353 11.0977C243.699 11.0977 244.002 11.027 244.262 10.8857C244.526 10.7399 244.745 10.5417 244.918 10.291C245.091 10.0404 245.221 9.75326 245.308 9.42969C245.399 9.10156 245.444 8.75293 245.444 8.38379V8.22656C245.444 7.86198 245.399 7.5179 245.308 7.19434C245.221 6.86621 245.089 6.57682 244.911 6.32617C244.738 6.07096 244.519 5.87044 244.255 5.72461C243.995 5.57878 243.69 5.50586 243.339 5.50586C242.993 5.50586 242.687 5.57878 242.423 5.72461C242.163 5.87044 241.944 6.07096 241.767 6.32617C241.593 6.57682 241.464 6.86621 241.377 7.19434C241.29 7.5179 241.247 7.86198 241.247 8.22656ZM252.554 10.3184L255.069 4.60352H256.286L252.991 12H252.116L248.835 4.60352H250.052L252.554 10.3184ZM249.683 4.60352V12H248.418V4.60352H249.683ZM255.384 12V4.60352H256.655V12H255.384ZM262.944 10.3184L265.46 4.60352H266.677L263.382 12H262.507L259.226 4.60352H260.442L262.944 10.3184ZM260.073 4.60352V12H258.809V4.60352H260.073ZM265.774 12V4.60352H267.046V12H265.774ZM271.161 11.2344L273.219 4.60352H274.572L271.605 13.1416C271.537 13.3239 271.446 13.5199 271.332 13.7295C271.223 13.9437 271.081 14.1465 270.908 14.3379C270.735 14.5293 270.525 14.6842 270.279 14.8027C270.038 14.9258 269.748 14.9873 269.411 14.9873C269.311 14.9873 269.183 14.9736 269.028 14.9463C268.873 14.9189 268.764 14.8962 268.7 14.8779L268.693 13.8525C268.73 13.8571 268.787 13.8617 268.864 13.8662C268.946 13.8753 269.003 13.8799 269.035 13.8799C269.322 13.8799 269.566 13.8411 269.767 13.7637C269.967 13.6908 270.136 13.5654 270.272 13.3877C270.414 13.2145 270.535 12.9753 270.635 12.6699L271.161 11.2344ZM269.65 4.60352L271.571 10.3457L271.899 11.6787L270.99 12.1436L268.27 4.60352H269.65ZM280.731 7.80957V8.83496H276.821V7.80957H280.731ZM277.088 4.60352V12H275.823V4.60352H277.088ZM281.757 4.60352V12H280.485V4.60352H281.757ZM285.161 9.99707L288.572 4.60352H289.844V12H288.572V6.60645L285.161 12H283.903V4.60352H285.161V9.99707ZM293.248 4.60352V12H291.983V4.60352H293.248ZM298.102 4.60352L294.595 8.8418H292.824L292.633 7.73438H294.082L296.563 4.60352H298.102ZM296.741 12L294.021 8.65039L294.834 7.73438L298.348 12H296.741ZM303.81 10.7354V6.92773C303.81 6.63607 303.75 6.38314 303.632 6.16895C303.518 5.9502 303.345 5.78158 303.112 5.66309C302.88 5.5446 302.593 5.48535 302.251 5.48535C301.932 5.48535 301.652 5.54004 301.41 5.64941C301.173 5.75879 300.986 5.90234 300.85 6.08008C300.717 6.25781 300.651 6.44922 300.651 6.6543H299.387C299.387 6.38997 299.455 6.12793 299.592 5.86816C299.729 5.6084 299.924 5.3737 300.18 5.16406C300.439 4.94987 300.749 4.78125 301.109 4.6582C301.474 4.5306 301.88 4.4668 302.326 4.4668C302.864 4.4668 303.338 4.55794 303.748 4.74023C304.163 4.92253 304.486 5.19824 304.719 5.56738C304.956 5.93197 305.074 6.38997 305.074 6.94141V10.3867C305.074 10.6328 305.095 10.8949 305.136 11.1729C305.181 11.4508 305.247 11.6901 305.334 11.8906V12H304.015C303.951 11.8542 303.901 11.6605 303.864 11.4189C303.828 11.1729 303.81 10.945 303.81 10.7354ZM304.028 7.51562L304.042 8.4043H302.764C302.404 8.4043 302.082 8.43392 301.8 8.49316C301.517 8.54785 301.28 8.63216 301.089 8.74609C300.897 8.86003 300.752 9.00358 300.651 9.17676C300.551 9.34538 300.501 9.54362 300.501 9.77148C300.501 10.0039 300.553 10.2158 300.658 10.4072C300.763 10.5986 300.92 10.7513 301.13 10.8652C301.344 10.9746 301.606 11.0293 301.916 11.0293C302.303 11.0293 302.645 10.9473 302.941 10.7832C303.238 10.6191 303.472 10.4186 303.646 10.1816C303.823 9.94466 303.919 9.71452 303.933 9.49121L304.473 10.0996C304.441 10.291 304.354 10.5029 304.213 10.7354C304.072 10.9678 303.882 11.1911 303.646 11.4053C303.413 11.6149 303.135 11.7904 302.812 11.9316C302.493 12.0684 302.132 12.1367 301.731 12.1367C301.23 12.1367 300.79 12.0387 300.412 11.8428C300.038 11.6468 299.747 11.3848 299.537 11.0566C299.332 10.724 299.229 10.3525 299.229 9.94238C299.229 9.5459 299.307 9.19727 299.462 8.89648C299.617 8.59115 299.84 8.33822 300.132 8.1377C300.424 7.93262 300.774 7.77767 301.185 7.67285C301.595 7.56803 302.053 7.51562 302.559 7.51562H304.028ZM307.173 12V4.60352H308.438V10.9609H311.842V4.60352H313.113V12H307.173ZM313.988 10.9609L313.865 14.1943H312.737V12H311.773V10.9609H313.988ZM316.729 9.99707L320.141 4.60352H321.412V12H320.141V6.60645L316.729 12H315.472V4.60352H316.729V9.99707ZM324.81 9.99707L328.221 4.60352H329.492V12H328.221V6.60645L324.81 12H323.552V4.60352H324.81V9.99707ZM327.53 1.92383H328.556C328.556 2.2793 328.474 2.59603 328.31 2.87402C328.146 3.14746 327.911 3.36165 327.605 3.5166C327.3 3.67155 326.938 3.74902 326.519 3.74902C325.885 3.74902 325.384 3.5804 325.015 3.24316C324.65 2.90137 324.468 2.46159 324.468 1.92383H325.493C325.493 2.19271 325.571 2.42969 325.726 2.63477C325.881 2.83984 326.145 2.94238 326.519 2.94238C326.883 2.94238 327.143 2.83984 327.298 2.63477C327.453 2.42969 327.53 2.19271 327.53 1.92383ZM334.435 7.95312V8.02148C334.435 9.01953 334.323 9.92188 334.1 10.7285C333.876 11.5352 333.591 12.2393 333.245 12.8408C332.899 13.4469 332.534 13.9482 332.151 14.3447C331.769 14.7458 331.415 15.0352 331.092 15.2129L330.825 14.4473C331.094 14.2422 331.365 13.9551 331.639 13.5859C331.912 13.2214 332.165 12.7702 332.397 12.2324C332.63 11.6992 332.817 11.084 332.958 10.3867C333.099 9.6849 333.17 8.90104 333.17 8.03516V7.93945C333.17 7.07357 333.095 6.29199 332.944 5.59473C332.794 4.8929 332.598 4.27539 332.356 3.74219C332.119 3.20898 331.864 2.76009 331.591 2.39551C331.322 2.02637 331.067 1.74154 330.825 1.54102L331.092 0.768555C331.415 0.946289 331.769 1.23568 332.151 1.63672C332.534 2.0332 332.899 2.53451 333.245 3.14062C333.591 3.74674 333.876 4.45312 334.1 5.25977C334.323 6.06185 334.435 6.95964 334.435 7.95312ZM336.191 5.29395C336.191 5.07975 336.257 4.89974 336.39 4.75391C336.526 4.60352 336.722 4.52832 336.978 4.52832C337.233 4.52832 337.426 4.60352 337.559 4.75391C337.695 4.89974 337.764 5.07975 337.764 5.29395C337.764 5.50358 337.695 5.68132 337.559 5.82715C337.426 5.97298 337.233 6.0459 336.978 6.0459C336.722 6.0459 336.526 5.97298 336.39 5.82715C336.257 5.68132 336.191 5.50358 336.191 5.29395ZM337.634 10.4961V11.5146C337.634 11.9294 337.529 12.3669 337.319 12.8271C337.11 13.292 336.816 13.6794 336.438 13.9893L335.72 13.4902C335.866 13.2897 335.989 13.0846 336.089 12.875C336.189 12.6699 336.264 12.4557 336.314 12.2324C336.369 12.0137 336.396 11.7812 336.396 11.5352V10.4961H337.634Z" fill="#303030" fill-opacity="0.9"/>
</svg>
