<svg width="291" height="14" viewBox="0 0 291 14" fill="none" xmlns="http://www.w3.org/2000/svg">
<path d="M3.92383 10.0977C4.22461 10.0977 4.5026 10.0361 4.75781 9.91309C5.01302 9.79004 5.22266 9.62142 5.38672 9.40723C5.55078 9.18848 5.64421 8.9401 5.66699 8.66211H6.87012C6.84733 9.09961 6.69922 9.50749 6.42578 9.88574C6.1569 10.2594 5.80371 10.5625 5.36621 10.7949C4.92871 11.0228 4.44792 11.1367 3.92383 11.1367C3.36784 11.1367 2.88249 11.0387 2.46777 10.8428C2.05762 10.6468 1.71582 10.3779 1.44238 10.0361C1.1735 9.69434 0.970703 9.30241 0.833984 8.86035C0.701823 8.41374 0.635742 7.94206 0.635742 7.44531V7.1582C0.635742 6.66146 0.701823 6.19206 0.833984 5.75C0.970703 5.30339 1.1735 4.90918 1.44238 4.56738C1.71582 4.22559 2.05762 3.95671 2.46777 3.76074C2.88249 3.56478 3.36784 3.4668 3.92383 3.4668C4.5026 3.4668 5.00846 3.58529 5.44141 3.82227C5.87435 4.05469 6.21387 4.3737 6.45996 4.7793C6.71061 5.18034 6.84733 5.63607 6.87012 6.14648H5.66699C5.64421 5.84115 5.55762 5.56543 5.40723 5.31934C5.26139 5.07324 5.06087 4.87728 4.80566 4.73145C4.55501 4.58105 4.26107 4.50586 3.92383 4.50586C3.53646 4.50586 3.21061 4.58333 2.94629 4.73828C2.68652 4.88867 2.47917 5.09375 2.32422 5.35352C2.17383 5.60872 2.06445 5.89355 1.99609 6.20801C1.93229 6.5179 1.90039 6.83464 1.90039 7.1582V7.44531C1.90039 7.76888 1.93229 8.08789 1.99609 8.40234C2.0599 8.7168 2.16699 9.00163 2.31738 9.25684C2.47233 9.51204 2.67969 9.71712 2.93945 9.87207C3.20378 10.0225 3.5319 10.0977 3.92383 10.0977ZM9.14648 3.60352L10.7666 6.29688L12.4072 3.60352H13.8906L11.4707 7.25391L13.9658 11H12.5029L10.7939 8.22461L9.08496 11H7.61523L10.1035 7.25391L7.69043 3.60352H9.14648ZM18.1699 11.1367C17.6549 11.1367 17.1878 11.0501 16.7686 10.877C16.3538 10.6992 15.9961 10.4508 15.6953 10.1318C15.3991 9.81283 15.1712 9.43457 15.0117 8.99707C14.8522 8.55957 14.7725 8.08105 14.7725 7.56152V7.27441C14.7725 6.67285 14.8613 6.13737 15.0391 5.66797C15.2168 5.19401 15.4583 4.79297 15.7637 4.46484C16.069 4.13672 16.4154 3.88835 16.8027 3.71973C17.1901 3.55111 17.5911 3.4668 18.0059 3.4668C18.5345 3.4668 18.9902 3.55794 19.373 3.74023C19.7604 3.92253 20.0771 4.17773 20.3232 4.50586C20.5693 4.82943 20.7516 5.21224 20.8701 5.6543C20.9886 6.0918 21.0479 6.57031 21.0479 7.08984V7.65723H15.5244V6.625H19.7832V6.5293C19.765 6.20117 19.6966 5.88216 19.5781 5.57227C19.4642 5.26237 19.2819 5.00716 19.0312 4.80664C18.7806 4.60612 18.4388 4.50586 18.0059 4.50586C17.7188 4.50586 17.4544 4.56738 17.2129 4.69043C16.9714 4.80892 16.764 4.98665 16.5908 5.22363C16.4176 5.46061 16.2832 5.75 16.1875 6.0918C16.0918 6.43359 16.0439 6.8278 16.0439 7.27441V7.56152C16.0439 7.91243 16.0918 8.24284 16.1875 8.55273C16.2878 8.85807 16.4313 9.12695 16.6182 9.35938C16.8096 9.5918 17.0397 9.77409 17.3086 9.90625C17.582 10.0384 17.8919 10.1045 18.2383 10.1045C18.6849 10.1045 19.0632 10.0133 19.373 9.83105C19.6829 9.64876 19.9541 9.40495 20.1865 9.09961L20.9521 9.70801C20.7926 9.94954 20.5898 10.1797 20.3438 10.3984C20.0977 10.6172 19.7946 10.7949 19.4346 10.9316C19.0791 11.0684 18.6576 11.1367 18.1699 11.1367ZM26.7764 9.31836L29.292 3.60352H30.5088L27.2139 11H26.3389L23.0576 3.60352H24.2744L26.7764 9.31836ZM23.9053 3.60352V11H22.6406V3.60352H23.9053ZM29.6064 11V3.60352H30.8779V11H29.6064ZM37.2764 9.73535V5.92773C37.2764 5.63607 37.2171 5.38314 37.0986 5.16895C36.9847 4.9502 36.8115 4.78158 36.5791 4.66309C36.3467 4.5446 36.0596 4.48535 35.7178 4.48535C35.3988 4.48535 35.1185 4.54004 34.877 4.64941C34.64 4.75879 34.4531 4.90234 34.3164 5.08008C34.1842 5.25781 34.1182 5.44922 34.1182 5.6543H32.8535C32.8535 5.38997 32.9219 5.12793 33.0586 4.86816C33.1953 4.6084 33.3913 4.3737 33.6465 4.16406C33.9062 3.94987 34.2161 3.78125 34.5762 3.6582C34.9408 3.5306 35.3464 3.4668 35.793 3.4668C36.3307 3.4668 36.8047 3.55794 37.2148 3.74023C37.6296 3.92253 37.9531 4.19824 38.1855 4.56738C38.4225 4.93197 38.541 5.38997 38.541 5.94141V9.38672C38.541 9.63281 38.5615 9.89486 38.6025 10.1729C38.6481 10.4508 38.7142 10.6901 38.8008 10.8906V11H37.4814C37.4176 10.8542 37.3675 10.6605 37.3311 10.4189C37.2946 10.1729 37.2764 9.94499 37.2764 9.73535ZM37.4951 6.51562L37.5088 7.4043H36.2305C35.8704 7.4043 35.5492 7.43392 35.2666 7.49316C34.984 7.54785 34.7471 7.63216 34.5557 7.74609C34.3643 7.86003 34.2184 8.00358 34.1182 8.17676C34.0179 8.34538 33.9678 8.54362 33.9678 8.77148C33.9678 9.00391 34.0202 9.21582 34.125 9.40723C34.2298 9.59863 34.387 9.7513 34.5967 9.86523C34.8109 9.97461 35.0729 10.0293 35.3828 10.0293C35.7702 10.0293 36.112 9.94727 36.4082 9.7832C36.7044 9.61914 36.9391 9.41862 37.1123 9.18164C37.29 8.94466 37.3857 8.71452 37.3994 8.49121L37.9395 9.09961C37.9076 9.29102 37.821 9.50293 37.6797 9.73535C37.5384 9.96777 37.3493 10.1911 37.1123 10.4053C36.8799 10.6149 36.6019 10.7904 36.2783 10.9316C35.9593 11.0684 35.5993 11.1367 35.1982 11.1367C34.6969 11.1367 34.2572 11.0387 33.8789 10.8428C33.5052 10.6468 33.2135 10.3848 33.0039 10.0566C32.7988 9.72396 32.6963 9.35254 32.6963 8.94238C32.6963 8.5459 32.7738 8.19727 32.9287 7.89648C33.0837 7.59115 33.307 7.33822 33.5986 7.1377C33.8903 6.93262 34.2412 6.77767 34.6514 6.67285C35.0615 6.56803 35.5195 6.51562 36.0254 6.51562H37.4951ZM47.4756 7.74609H45.0488L45.0352 6.73438H47.0176C47.4095 6.73438 47.7354 6.69564 47.9951 6.61816C48.2594 6.54069 48.4577 6.42448 48.5898 6.26953C48.722 6.11458 48.7881 5.92318 48.7881 5.69531C48.7881 5.51758 48.7493 5.36263 48.6719 5.23047C48.599 5.09375 48.4873 4.9821 48.3369 4.89551C48.1865 4.80436 47.9997 4.73828 47.7764 4.69727C47.5576 4.65169 47.3001 4.62891 47.0039 4.62891H45.3838V11H44.1191V3.60352H47.0039C47.4733 3.60352 47.8949 3.64453 48.2686 3.72656C48.6468 3.80859 48.9681 3.93392 49.2324 4.10254C49.5013 4.2666 49.7064 4.47624 49.8477 4.73145C49.9889 4.98665 50.0596 5.28743 50.0596 5.63379C50.0596 5.8571 50.014 6.06901 49.9229 6.26953C49.8317 6.47005 49.6973 6.64779 49.5195 6.80273C49.3418 6.95768 49.123 7.08529 48.8633 7.18555C48.6035 7.28125 48.305 7.34277 47.9678 7.37012L47.4756 7.74609ZM47.4756 11H44.5908L45.2197 9.97461H47.4756C47.8265 9.97461 48.1182 9.93132 48.3506 9.84473C48.583 9.75358 48.7562 9.62598 48.8701 9.46191C48.9886 9.29329 49.0479 9.09277 49.0479 8.86035C49.0479 8.62793 48.9886 8.42969 48.8701 8.26562C48.7562 8.09701 48.583 7.9694 48.3506 7.88281C48.1182 7.79167 47.8265 7.74609 47.4756 7.74609H45.5547L45.5684 6.73438H47.9678L48.4258 7.11719C48.8314 7.14909 49.1755 7.24935 49.458 7.41797C49.7406 7.58659 49.9548 7.80078 50.1006 8.06055C50.2464 8.31576 50.3193 8.59375 50.3193 8.89453C50.3193 9.24089 50.2533 9.54622 50.1211 9.81055C49.9935 10.0749 49.8066 10.2959 49.5605 10.4736C49.3145 10.6468 49.016 10.779 48.665 10.8701C48.3141 10.9567 47.9176 11 47.4756 11ZM53.3887 3.60352V11H52.124V3.60352H53.3887ZM58.2422 3.60352L54.7354 7.8418H52.9648L52.7734 6.73438H54.2227L56.7041 3.60352H58.2422ZM56.8818 11L54.1611 7.65039L54.9746 6.73438L58.4883 11H56.8818ZM64.5312 3.60352V4.64941H60.9561V3.60352H64.5312ZM65.6455 3.60352V11H64.3809V3.60352H65.6455ZM60.6484 3.60352H61.9199L61.7285 7.17188C61.6966 7.72331 61.6442 8.21094 61.5713 8.63477C61.5029 9.05404 61.4072 9.41406 61.2842 9.71484C61.1657 10.0156 61.0153 10.2617 60.833 10.4531C60.6553 10.64 60.4411 10.779 60.1904 10.8701C59.9398 10.9567 59.6504 11 59.3223 11H58.9258V9.88574L59.1992 9.86523C59.3952 9.85156 59.5615 9.80599 59.6982 9.72852C59.8395 9.65104 59.958 9.53711 60.0537 9.38672C60.1494 9.23177 60.2269 9.03353 60.2861 8.79199C60.3499 8.55046 60.3978 8.26335 60.4297 7.93066C60.4661 7.59798 60.4935 7.21061 60.5117 6.76855L60.6484 3.60352ZM71.8936 6.74121V7.77344H67.9629V6.74121H71.8936ZM69.0635 3.60352V11H67.7988V3.60352H69.0635ZM70.8135 7.38379V7.22656C70.8135 6.69336 70.891 6.19889 71.0459 5.74316C71.2008 5.28288 71.4242 4.88411 71.7158 4.54688C72.012 4.20508 72.3652 3.94076 72.7754 3.75391C73.1901 3.5625 73.6549 3.4668 74.1699 3.4668C74.694 3.4668 75.1634 3.5625 75.5781 3.75391C75.9928 3.94076 76.346 4.20508 76.6377 4.54688C76.9339 4.88411 77.1595 5.28288 77.3145 5.74316C77.4694 6.19889 77.5469 6.69336 77.5469 7.22656V7.38379C77.5469 7.91699 77.4694 8.41146 77.3145 8.86719C77.1595 9.32292 76.9362 9.72168 76.6445 10.0635C76.3529 10.4007 75.9997 10.665 75.585 10.8564C75.1702 11.0433 74.7031 11.1367 74.1836 11.1367C73.6641 11.1367 73.1969 11.0433 72.7822 10.8564C72.3675 10.665 72.012 10.4007 71.7158 10.0635C71.4242 9.72168 71.2008 9.32292 71.0459 8.86719C70.891 8.41146 70.8135 7.91699 70.8135 7.38379ZM72.085 7.22656V7.38379C72.085 7.75293 72.1283 8.10156 72.2148 8.42969C72.3014 8.75326 72.4313 9.04036 72.6045 9.29102C72.7822 9.54167 73.001 9.73991 73.2607 9.88574C73.5251 10.027 73.8327 10.0977 74.1836 10.0977C74.5345 10.0977 74.8398 10.027 75.0996 9.88574C75.3639 9.73991 75.5827 9.54167 75.7559 9.29102C75.929 9.04036 76.0589 8.75326 76.1455 8.42969C76.2367 8.10156 76.2822 7.75293 76.2822 7.38379V7.22656C76.2822 6.86198 76.2367 6.5179 76.1455 6.19434C76.0589 5.86621 75.9268 5.57682 75.749 5.32617C75.5758 5.07096 75.3571 4.87044 75.0928 4.72461C74.8285 4.57878 74.5208 4.50586 74.1699 4.50586C73.8236 4.50586 73.5205 4.57878 73.2607 4.72461C73.001 4.87044 72.7822 5.07096 72.6045 5.32617C72.4313 5.57682 72.3014 5.86621 72.2148 6.19434C72.1283 6.5179 72.085 6.86198 72.085 7.22656ZM84.6904 3.60352V11H83.4258V3.60352H84.6904ZM84.2598 7.00098V8.04004C84.0046 8.13574 83.7448 8.22233 83.4805 8.2998C83.2207 8.37272 82.945 8.43197 82.6533 8.47754C82.3662 8.51855 82.054 8.53906 81.7168 8.53906C81.1335 8.53906 80.6276 8.4388 80.1992 8.23828C79.7708 8.0332 79.4404 7.72559 79.208 7.31543C78.9756 6.90072 78.8594 6.37891 78.8594 5.75V3.58984H80.124V5.75C80.124 6.16016 80.1855 6.49284 80.3086 6.74805C80.4316 7.00326 80.6117 7.19238 80.8486 7.31543C81.0856 7.43392 81.375 7.49316 81.7168 7.49316C82.0449 7.49316 82.3525 7.47266 82.6396 7.43164C82.9313 7.38607 83.2093 7.32682 83.4736 7.25391C83.7425 7.18099 84.0046 7.09668 84.2598 7.00098ZM89.7969 11.1367C89.2819 11.1367 88.8148 11.0501 88.3955 10.877C87.9808 10.6992 87.623 10.4508 87.3223 10.1318C87.026 9.81283 86.7982 9.43457 86.6387 8.99707C86.4792 8.55957 86.3994 8.08105 86.3994 7.56152V7.27441C86.3994 6.67285 86.4883 6.13737 86.666 5.66797C86.8438 5.19401 87.0853 4.79297 87.3906 4.46484C87.696 4.13672 88.0423 3.88835 88.4297 3.71973C88.8171 3.55111 89.2181 3.4668 89.6328 3.4668C90.1615 3.4668 90.6172 3.55794 91 3.74023C91.3874 3.92253 91.7041 4.17773 91.9502 4.50586C92.1963 4.82943 92.3786 5.21224 92.4971 5.6543C92.6156 6.0918 92.6748 6.57031 92.6748 7.08984V7.65723H87.1514V6.625H91.4102V6.5293C91.3919 6.20117 91.3236 5.88216 91.2051 5.57227C91.0911 5.26237 90.9089 5.00716 90.6582 4.80664C90.4076 4.60612 90.0658 4.50586 89.6328 4.50586C89.3457 4.50586 89.0814 4.56738 88.8398 4.69043C88.5983 4.80892 88.391 4.98665 88.2178 5.22363C88.0446 5.46061 87.9102 5.75 87.8145 6.0918C87.7188 6.43359 87.6709 6.8278 87.6709 7.27441V7.56152C87.6709 7.91243 87.7188 8.24284 87.8145 8.55273C87.9147 8.85807 88.0583 9.12695 88.2451 9.35938C88.4365 9.5918 88.6667 9.77409 88.9355 9.90625C89.209 10.0384 89.5189 10.1045 89.8652 10.1045C90.3118 10.1045 90.6901 10.0133 91 9.83105C91.3099 9.64876 91.5811 9.40495 91.8135 9.09961L92.5791 9.70801C92.4196 9.94954 92.2168 10.1797 91.9707 10.3984C91.7246 10.6172 91.4215 10.7949 91.0615 10.9316C90.7061 11.0684 90.2845 11.1367 89.7969 11.1367ZM99.1689 6.80957V7.83496H95.2588V6.80957H99.1689ZM95.5254 3.60352V11H94.2607V3.60352H95.5254ZM100.194 3.60352V11H98.9229V3.60352H100.194ZM103.599 8.99707L107.01 3.60352H108.281V11H107.01V5.60645L103.599 11H102.341V3.60352H103.599V8.99707ZM111.809 7.47266H113.176L111.036 11H109.669L111.809 7.47266ZM112.868 3.60352H115.958V11H114.693V4.62891H112.868C112.508 4.62891 112.214 4.69043 111.986 4.81348C111.758 4.93197 111.592 5.08691 111.487 5.27832C111.382 5.46973 111.33 5.66797 111.33 5.87305C111.33 6.07357 111.378 6.26725 111.474 6.4541C111.569 6.63639 111.72 6.78678 111.925 6.90527C112.13 7.02376 112.394 7.08301 112.718 7.08301H115.035V8.12207H112.718C112.294 8.12207 111.918 8.0651 111.59 7.95117C111.262 7.83724 110.984 7.68001 110.756 7.47949C110.528 7.27441 110.355 7.03516 110.236 6.76172C110.118 6.48372 110.059 6.18294 110.059 5.85938C110.059 5.53581 110.12 5.2373 110.243 4.96387C110.371 4.69043 110.553 4.45117 110.79 4.24609C111.032 4.04102 111.326 3.88379 111.672 3.77441C112.023 3.66048 112.422 3.60352 112.868 3.60352ZM121.133 7.38379V7.22656C121.133 6.69336 121.21 6.19889 121.365 5.74316C121.52 5.28288 121.743 4.88411 122.035 4.54688C122.327 4.20508 122.68 3.94076 123.095 3.75391C123.509 3.5625 123.974 3.4668 124.489 3.4668C125.009 3.4668 125.476 3.5625 125.891 3.75391C126.31 3.94076 126.665 4.20508 126.957 4.54688C127.253 4.88411 127.479 5.28288 127.634 5.74316C127.789 6.19889 127.866 6.69336 127.866 7.22656V7.38379C127.866 7.91699 127.789 8.41146 127.634 8.86719C127.479 9.32292 127.253 9.72168 126.957 10.0635C126.665 10.4007 126.312 10.665 125.897 10.8564C125.487 11.0433 125.022 11.1367 124.503 11.1367C123.983 11.1367 123.516 11.0433 123.102 10.8564C122.687 10.665 122.331 10.4007 122.035 10.0635C121.743 9.72168 121.52 9.32292 121.365 8.86719C121.21 8.41146 121.133 7.91699 121.133 7.38379ZM122.397 7.22656V7.38379C122.397 7.75293 122.441 8.10156 122.527 8.42969C122.614 8.75326 122.744 9.04036 122.917 9.29102C123.095 9.54167 123.316 9.73991 123.58 9.88574C123.844 10.027 124.152 10.0977 124.503 10.0977C124.849 10.0977 125.152 10.027 125.412 9.88574C125.676 9.73991 125.895 9.54167 126.068 9.29102C126.242 9.04036 126.371 8.75326 126.458 8.42969C126.549 8.10156 126.595 7.75293 126.595 7.38379V7.22656C126.595 6.86198 126.549 6.5179 126.458 6.19434C126.371 5.86621 126.239 5.57682 126.062 5.32617C125.888 5.07096 125.67 4.87044 125.405 4.72461C125.146 4.57878 124.84 4.50586 124.489 4.50586C124.143 4.50586 123.838 4.57878 123.573 4.72461C123.313 4.87044 123.095 5.07096 122.917 5.32617C122.744 5.57682 122.614 5.86621 122.527 6.19434C122.441 6.5179 122.397 6.86198 122.397 7.22656ZM132.412 10.0977C132.713 10.0977 132.991 10.0361 133.246 9.91309C133.501 9.79004 133.711 9.62142 133.875 9.40723C134.039 9.18848 134.132 8.9401 134.155 8.66211H135.358C135.336 9.09961 135.188 9.50749 134.914 9.88574C134.645 10.2594 134.292 10.5625 133.854 10.7949C133.417 11.0228 132.936 11.1367 132.412 11.1367C131.856 11.1367 131.371 11.0387 130.956 10.8428C130.546 10.6468 130.204 10.3779 129.931 10.0361C129.662 9.69434 129.459 9.30241 129.322 8.86035C129.19 8.41374 129.124 7.94206 129.124 7.44531V7.1582C129.124 6.66146 129.19 6.19206 129.322 5.75C129.459 5.30339 129.662 4.90918 129.931 4.56738C130.204 4.22559 130.546 3.95671 130.956 3.76074C131.371 3.56478 131.856 3.4668 132.412 3.4668C132.991 3.4668 133.497 3.58529 133.93 3.82227C134.363 4.05469 134.702 4.3737 134.948 4.7793C135.199 5.18034 135.336 5.63607 135.358 6.14648H134.155C134.132 5.84115 134.046 5.56543 133.896 5.31934C133.75 5.07324 133.549 4.87728 133.294 4.73145C133.043 4.58105 132.749 4.50586 132.412 4.50586C132.025 4.50586 131.699 4.58333 131.435 4.73828C131.175 4.88867 130.967 5.09375 130.812 5.35352C130.662 5.60872 130.553 5.89355 130.484 6.20801C130.421 6.5179 130.389 6.83464 130.389 7.1582V7.44531C130.389 7.76888 130.421 8.08789 130.484 8.40234C130.548 8.7168 130.655 9.00163 130.806 9.25684C130.961 9.51204 131.168 9.71712 131.428 9.87207C131.692 10.0225 132.02 10.0977 132.412 10.0977ZM140.253 7.74609H137.826L137.812 6.73438H139.795C140.187 6.73438 140.513 6.69564 140.772 6.61816C141.037 6.54069 141.235 6.42448 141.367 6.26953C141.499 6.11458 141.565 5.92318 141.565 5.69531C141.565 5.51758 141.527 5.36263 141.449 5.23047C141.376 5.09375 141.265 4.9821 141.114 4.89551C140.964 4.80436 140.777 4.73828 140.554 4.69727C140.335 4.65169 140.077 4.62891 139.781 4.62891H138.161V11H136.896V3.60352H139.781C140.251 3.60352 140.672 3.64453 141.046 3.72656C141.424 3.80859 141.745 3.93392 142.01 4.10254C142.279 4.2666 142.484 4.47624 142.625 4.73145C142.766 4.98665 142.837 5.28743 142.837 5.63379C142.837 5.8571 142.791 6.06901 142.7 6.26953C142.609 6.47005 142.475 6.64779 142.297 6.80273C142.119 6.95768 141.9 7.08529 141.641 7.18555C141.381 7.28125 141.082 7.34277 140.745 7.37012L140.253 7.74609ZM140.253 11H137.368L137.997 9.97461H140.253C140.604 9.97461 140.896 9.93132 141.128 9.84473C141.36 9.75358 141.534 9.62598 141.647 9.46191C141.766 9.29329 141.825 9.09277 141.825 8.86035C141.825 8.62793 141.766 8.42969 141.647 8.26562C141.534 8.09701 141.36 7.9694 141.128 7.88281C140.896 7.79167 140.604 7.74609 140.253 7.74609H138.332L138.346 6.73438H140.745L141.203 7.11719C141.609 7.14909 141.953 7.24935 142.235 7.41797C142.518 7.58659 142.732 7.80078 142.878 8.06055C143.024 8.31576 143.097 8.59375 143.097 8.89453C143.097 9.24089 143.031 9.54622 142.898 9.81055C142.771 10.0749 142.584 10.2959 142.338 10.4736C142.092 10.6468 141.793 10.779 141.442 10.8701C141.091 10.9567 140.695 11 140.253 11ZM147.861 11.1367C147.346 11.1367 146.879 11.0501 146.46 10.877C146.045 10.6992 145.688 10.4508 145.387 10.1318C145.09 9.81283 144.863 9.43457 144.703 8.99707C144.544 8.55957 144.464 8.08105 144.464 7.56152V7.27441C144.464 6.67285 144.553 6.13737 144.73 5.66797C144.908 5.19401 145.15 4.79297 145.455 4.46484C145.76 4.13672 146.107 3.88835 146.494 3.71973C146.882 3.55111 147.283 3.4668 147.697 3.4668C148.226 3.4668 148.682 3.55794 149.064 3.74023C149.452 3.92253 149.769 4.17773 150.015 4.50586C150.261 4.82943 150.443 5.21224 150.562 5.6543C150.68 6.0918 150.739 6.57031 150.739 7.08984V7.65723H145.216V6.625H149.475V6.5293C149.456 6.20117 149.388 5.88216 149.27 5.57227C149.156 5.26237 148.973 5.00716 148.723 4.80664C148.472 4.60612 148.13 4.50586 147.697 4.50586C147.41 4.50586 147.146 4.56738 146.904 4.69043C146.663 4.80892 146.455 4.98665 146.282 5.22363C146.109 5.46061 145.975 5.75 145.879 6.0918C145.783 6.43359 145.735 6.8278 145.735 7.27441V7.56152C145.735 7.91243 145.783 8.24284 145.879 8.55273C145.979 8.85807 146.123 9.12695 146.31 9.35938C146.501 9.5918 146.731 9.77409 147 9.90625C147.273 10.0384 147.583 10.1045 147.93 10.1045C148.376 10.1045 148.755 10.0133 149.064 9.83105C149.374 9.64876 149.646 9.40495 149.878 9.09961L150.644 9.70801C150.484 9.94954 150.281 10.1797 150.035 10.3984C149.789 10.6172 149.486 10.7949 149.126 10.9316C148.771 11.0684 148.349 11.1367 147.861 11.1367ZM155.148 3.60352V11H153.877V3.60352H155.148ZM157.63 3.60352V4.62891H151.443V3.60352H157.63ZM160.241 8.99707L163.652 3.60352H164.924V11H163.652V5.60645L160.241 11H158.983V3.60352H160.241V8.99707ZM169.969 3.60352V11H168.697V3.60352H169.969ZM172.45 3.60352V4.62891H166.264V3.60352H172.45ZM176.217 11.1367C175.702 11.1367 175.235 11.0501 174.815 10.877C174.401 10.6992 174.043 10.4508 173.742 10.1318C173.446 9.81283 173.218 9.43457 173.059 8.99707C172.899 8.55957 172.819 8.08105 172.819 7.56152V7.27441C172.819 6.67285 172.908 6.13737 173.086 5.66797C173.264 5.19401 173.505 4.79297 173.811 4.46484C174.116 4.13672 174.462 3.88835 174.85 3.71973C175.237 3.55111 175.638 3.4668 176.053 3.4668C176.581 3.4668 177.037 3.55794 177.42 3.74023C177.807 3.92253 178.124 4.17773 178.37 4.50586C178.616 4.82943 178.799 5.21224 178.917 5.6543C179.035 6.0918 179.095 6.57031 179.095 7.08984V7.65723H173.571V6.625H177.83V6.5293C177.812 6.20117 177.743 5.88216 177.625 5.57227C177.511 5.26237 177.329 5.00716 177.078 4.80664C176.827 4.60612 176.486 4.50586 176.053 4.50586C175.766 4.50586 175.501 4.56738 175.26 4.69043C175.018 4.80892 174.811 4.98665 174.638 5.22363C174.465 5.46061 174.33 5.75 174.234 6.0918C174.139 6.43359 174.091 6.8278 174.091 7.27441V7.56152C174.091 7.91243 174.139 8.24284 174.234 8.55273C174.335 8.85807 174.478 9.12695 174.665 9.35938C174.856 9.5918 175.087 9.77409 175.355 9.90625C175.629 10.0384 175.939 10.1045 176.285 10.1045C176.732 10.1045 177.11 10.0133 177.42 9.83105C177.73 9.64876 178.001 9.40495 178.233 9.09961L178.999 9.70801C178.84 9.94954 178.637 10.1797 178.391 10.3984C178.145 10.6172 177.841 10.7949 177.481 10.9316C177.126 11.0684 176.704 11.1367 176.217 11.1367ZM185.514 3.60352V4.64941H181.938V3.60352H185.514ZM186.628 3.60352V11H185.363V3.60352H186.628ZM181.631 3.60352H182.902L182.711 7.17188C182.679 7.72331 182.627 8.21094 182.554 8.63477C182.485 9.05404 182.39 9.41406 182.267 9.71484C182.148 10.0156 181.998 10.2617 181.815 10.4531C181.638 10.64 181.424 10.779 181.173 10.8701C180.922 10.9567 180.633 11 180.305 11H179.908V9.88574L180.182 9.86523C180.378 9.85156 180.544 9.80599 180.681 9.72852C180.822 9.65104 180.94 9.53711 181.036 9.38672C181.132 9.23177 181.209 9.03353 181.269 8.79199C181.332 8.55046 181.38 8.26335 181.412 7.93066C181.449 7.59798 181.476 7.21061 181.494 6.76855L181.631 3.60352ZM189.704 6.14648H191.926C192.523 6.14648 193.026 6.2513 193.437 6.46094C193.847 6.66602 194.157 6.95085 194.366 7.31543C194.58 7.67546 194.688 8.08561 194.688 8.5459C194.688 8.8877 194.628 9.20898 194.51 9.50977C194.391 9.80599 194.214 10.0658 193.977 10.2891C193.744 10.5124 193.455 10.6878 193.108 10.8154C192.767 10.9385 192.372 11 191.926 11H188.781V3.60352H190.046V9.96094H191.926C192.29 9.96094 192.582 9.89486 192.801 9.7627C193.02 9.63053 193.177 9.45964 193.272 9.25C193.368 9.04036 193.416 8.82161 193.416 8.59375C193.416 8.37044 193.368 8.15169 193.272 7.9375C193.177 7.72331 193.02 7.54557 192.801 7.4043C192.582 7.25846 192.29 7.18555 191.926 7.18555H189.704V6.14648ZM201.284 6.80957V7.83496H197.374V6.80957H201.284ZM197.641 3.60352V11H196.376V3.60352H197.641ZM202.31 3.60352V11H201.038V3.60352H202.31ZM205.386 6.14648H207.607C208.204 6.14648 208.708 6.2513 209.118 6.46094C209.528 6.66602 209.838 6.95085 210.048 7.31543C210.262 7.67546 210.369 8.08561 210.369 8.5459C210.369 8.8877 210.31 9.20898 210.191 9.50977C210.073 9.80599 209.895 10.0658 209.658 10.2891C209.426 10.5124 209.136 10.6878 208.79 10.8154C208.448 10.9385 208.054 11 207.607 11H204.463V3.60352H205.728V9.96094H207.607C207.972 9.96094 208.264 9.89486 208.482 9.7627C208.701 9.63053 208.858 9.45964 208.954 9.25C209.05 9.04036 209.098 8.82161 209.098 8.59375C209.098 8.37044 209.05 8.15169 208.954 7.9375C208.858 7.72331 208.701 7.54557 208.482 7.4043C208.264 7.25846 207.972 7.18555 207.607 7.18555H205.386V6.14648ZM213.001 3.60352V11H211.736V3.60352H213.001ZM216.07 3.60352L217.69 6.29688L219.331 3.60352H220.814L218.395 7.25391L220.89 11H219.427L217.718 8.22461L216.009 11H214.539L217.027 7.25391L214.614 3.60352H216.07ZM230.562 3.60352V4.64941H226.823V3.60352H230.562ZM227.008 3.60352V11H225.743V3.60352H227.008ZM231.684 3.60352V11H230.412V3.60352H231.684ZM234.979 5.02539V13.8438H233.707V3.60352H234.869L234.979 5.02539ZM239.962 7.24023V7.38379C239.962 7.92155 239.898 8.42057 239.771 8.88086C239.643 9.33659 239.456 9.73307 239.21 10.0703C238.968 10.4076 238.67 10.6696 238.314 10.8564C237.959 11.0433 237.551 11.1367 237.091 11.1367C236.621 11.1367 236.207 11.0592 235.847 10.9043C235.487 10.7493 235.181 10.5238 234.931 10.2275C234.68 9.93132 234.479 9.57585 234.329 9.16113C234.183 8.74642 234.083 8.2793 234.028 7.75977V6.99414C234.083 6.44727 234.186 5.95736 234.336 5.52441C234.486 5.09147 234.685 4.72233 234.931 4.41699C235.181 4.1071 235.484 3.8724 235.84 3.71289C236.195 3.54883 236.605 3.4668 237.07 3.4668C237.535 3.4668 237.948 3.55794 238.308 3.74023C238.668 3.91797 238.971 4.17318 239.217 4.50586C239.463 4.83854 239.647 5.2373 239.771 5.70215C239.898 6.16243 239.962 6.67513 239.962 7.24023ZM238.69 7.38379V7.24023C238.69 6.87109 238.652 6.52474 238.574 6.20117C238.497 5.87305 238.376 5.58594 238.212 5.33984C238.052 5.08919 237.847 4.89323 237.597 4.75195C237.346 4.60612 237.048 4.5332 236.701 4.5332C236.382 4.5332 236.104 4.58789 235.867 4.69727C235.635 4.80664 235.437 4.95475 235.272 5.1416C235.108 5.32389 234.974 5.53353 234.869 5.77051C234.769 6.00293 234.694 6.24447 234.644 6.49512V8.26562C234.735 8.58464 234.862 8.88542 235.026 9.16797C235.19 9.44596 235.409 9.67155 235.683 9.84473C235.956 10.0133 236.3 10.0977 236.715 10.0977C237.057 10.0977 237.351 10.027 237.597 9.88574C237.847 9.73991 238.052 9.54167 238.212 9.29102C238.376 9.04036 238.497 8.75326 238.574 8.42969C238.652 8.10156 238.69 7.75293 238.69 7.38379ZM242.942 8.99707L246.354 3.60352H247.625V11H246.354V5.60645L242.942 11H241.685V3.60352H242.942V8.99707ZM254.399 0.383789H255.438C255.438 0.830404 255.37 1.18587 255.233 1.4502C255.097 1.70996 254.91 1.91048 254.673 2.05176C254.44 2.19303 254.176 2.30013 253.88 2.37305C253.588 2.44596 253.285 2.5166 252.971 2.58496C252.579 2.66699 252.214 2.79688 251.877 2.97461C251.544 3.14779 251.257 3.39388 251.016 3.71289C250.779 4.0319 250.603 4.44661 250.489 4.95703C250.38 5.46745 250.35 6.09863 250.4 6.85059V7.47949H249.361V6.85059C249.361 6.00749 249.441 5.27148 249.601 4.64258C249.765 4.01367 249.995 3.48275 250.291 3.0498C250.587 2.61686 250.938 2.27279 251.344 2.01758C251.754 1.76237 252.205 1.58691 252.697 1.49121C253.053 1.42285 253.358 1.34993 253.613 1.27246C253.868 1.19043 254.062 1.08105 254.194 0.944336C254.331 0.807617 254.399 0.620768 254.399 0.383789ZM252.902 4.02734C253.385 4.02734 253.816 4.11165 254.194 4.28027C254.573 4.44889 254.894 4.68359 255.158 4.98438C255.423 5.28516 255.623 5.64062 255.76 6.05078C255.901 6.45638 255.972 6.89844 255.972 7.37695V7.52734C255.972 8.04232 255.896 8.52083 255.746 8.96289C255.6 9.40039 255.384 9.7832 255.097 10.1113C254.814 10.4349 254.468 10.6878 254.058 10.8701C253.652 11.0524 253.189 11.1436 252.67 11.1436C252.15 11.1436 251.686 11.0524 251.275 10.8701C250.87 10.6878 250.523 10.4349 250.236 10.1113C249.949 9.7832 249.73 9.40039 249.58 8.96289C249.434 8.52083 249.361 8.04232 249.361 7.52734V7.37695C249.361 7.26302 249.382 7.15137 249.423 7.04199C249.464 6.93262 249.514 6.82096 249.573 6.70703C249.637 6.5931 249.694 6.47233 249.744 6.34473C249.913 5.93457 250.143 5.55404 250.435 5.20312C250.731 4.85221 251.084 4.56966 251.494 4.35547C251.909 4.13672 252.378 4.02734 252.902 4.02734ZM252.656 5.05957C252.191 5.05957 251.809 5.16667 251.508 5.38086C251.212 5.59505 250.991 5.87988 250.845 6.23535C250.699 6.58626 250.626 6.9668 250.626 7.37695V7.52734C250.626 7.8737 250.667 8.20182 250.749 8.51172C250.831 8.82161 250.954 9.09733 251.118 9.33887C251.287 9.57585 251.499 9.7627 251.754 9.89941C252.014 10.0361 252.319 10.1045 252.67 10.1045C253.021 10.1045 253.324 10.0361 253.579 9.89941C253.834 9.7627 254.044 9.57585 254.208 9.33887C254.372 9.09733 254.495 8.82161 254.577 8.51172C254.659 8.20182 254.7 7.8737 254.7 7.52734V7.37695C254.7 7.06706 254.659 6.77311 254.577 6.49512C254.495 6.21712 254.37 5.97103 254.201 5.75684C254.037 5.54264 253.825 5.37402 253.565 5.25098C253.31 5.12337 253.007 5.05957 252.656 5.05957ZM257.072 7.38379V7.22656C257.072 6.69336 257.15 6.19889 257.305 5.74316C257.46 5.28288 257.683 4.88411 257.975 4.54688C258.266 4.20508 258.619 3.94076 259.034 3.75391C259.449 3.5625 259.914 3.4668 260.429 3.4668C260.948 3.4668 261.415 3.5625 261.83 3.75391C262.249 3.94076 262.605 4.20508 262.896 4.54688C263.193 4.88411 263.418 5.28288 263.573 5.74316C263.728 6.19889 263.806 6.69336 263.806 7.22656V7.38379C263.806 7.91699 263.728 8.41146 263.573 8.86719C263.418 9.32292 263.193 9.72168 262.896 10.0635C262.605 10.4007 262.252 10.665 261.837 10.8564C261.427 11.0433 260.962 11.1367 260.442 11.1367C259.923 11.1367 259.456 11.0433 259.041 10.8564C258.626 10.665 258.271 10.4007 257.975 10.0635C257.683 9.72168 257.46 9.32292 257.305 8.86719C257.15 8.41146 257.072 7.91699 257.072 7.38379ZM258.337 7.22656V7.38379C258.337 7.75293 258.38 8.10156 258.467 8.42969C258.553 8.75326 258.683 9.04036 258.856 9.29102C259.034 9.54167 259.255 9.73991 259.52 9.88574C259.784 10.027 260.091 10.0977 260.442 10.0977C260.789 10.0977 261.092 10.027 261.352 9.88574C261.616 9.73991 261.835 9.54167 262.008 9.29102C262.181 9.04036 262.311 8.75326 262.397 8.42969C262.489 8.10156 262.534 7.75293 262.534 7.38379V7.22656C262.534 6.86198 262.489 6.5179 262.397 6.19434C262.311 5.86621 262.179 5.57682 262.001 5.32617C261.828 5.07096 261.609 4.87044 261.345 4.72461C261.085 4.57878 260.78 4.50586 260.429 4.50586C260.082 4.50586 259.777 4.57878 259.513 4.72461C259.253 4.87044 259.034 5.07096 258.856 5.32617C258.683 5.57682 258.553 5.86621 258.467 6.19434C258.38 6.5179 258.337 6.86198 258.337 7.22656ZM266.656 5.02539V13.8438H265.385V3.60352H266.547L266.656 5.02539ZM271.64 7.24023V7.38379C271.64 7.92155 271.576 8.42057 271.448 8.88086C271.321 9.33659 271.134 9.73307 270.888 10.0703C270.646 10.4076 270.348 10.6696 269.992 10.8564C269.637 11.0433 269.229 11.1367 268.769 11.1367C268.299 11.1367 267.884 11.0592 267.524 10.9043C267.164 10.7493 266.859 10.5238 266.608 10.2275C266.358 9.93132 266.157 9.57585 266.007 9.16113C265.861 8.74642 265.761 8.2793 265.706 7.75977V6.99414C265.761 6.44727 265.863 5.95736 266.014 5.52441C266.164 5.09147 266.362 4.72233 266.608 4.41699C266.859 4.1071 267.162 3.8724 267.518 3.71289C267.873 3.54883 268.283 3.4668 268.748 3.4668C269.213 3.4668 269.625 3.55794 269.985 3.74023C270.345 3.91797 270.648 4.17318 270.895 4.50586C271.141 4.83854 271.325 5.2373 271.448 5.70215C271.576 6.16243 271.64 6.67513 271.64 7.24023ZM270.368 7.38379V7.24023C270.368 6.87109 270.329 6.52474 270.252 6.20117C270.174 5.87305 270.054 5.58594 269.89 5.33984C269.73 5.08919 269.525 4.89323 269.274 4.75195C269.024 4.60612 268.725 4.5332 268.379 4.5332C268.06 4.5332 267.782 4.58789 267.545 4.69727C267.312 4.80664 267.114 4.95475 266.95 5.1416C266.786 5.32389 266.652 5.53353 266.547 5.77051C266.447 6.00293 266.371 6.24447 266.321 6.49512V8.26562C266.412 8.58464 266.54 8.88542 266.704 9.16797C266.868 9.44596 267.087 9.67155 267.36 9.84473C267.634 10.0133 267.978 10.0977 268.393 10.0977C268.734 10.0977 269.028 10.027 269.274 9.88574C269.525 9.73991 269.73 9.54167 269.89 9.29102C270.054 9.04036 270.174 8.75326 270.252 8.42969C270.329 8.10156 270.368 7.75293 270.368 7.38379ZM272.918 7.38379V7.22656C272.918 6.69336 272.995 6.19889 273.15 5.74316C273.305 5.28288 273.529 4.88411 273.82 4.54688C274.112 4.20508 274.465 3.94076 274.88 3.75391C275.295 3.5625 275.759 3.4668 276.274 3.4668C276.794 3.4668 277.261 3.5625 277.676 3.75391C278.095 3.94076 278.451 4.20508 278.742 4.54688C279.038 4.88411 279.264 5.28288 279.419 5.74316C279.574 6.19889 279.651 6.69336 279.651 7.22656V7.38379C279.651 7.91699 279.574 8.41146 279.419 8.86719C279.264 9.32292 279.038 9.72168 278.742 10.0635C278.451 10.4007 278.097 10.665 277.683 10.8564C277.272 11.0433 276.808 11.1367 276.288 11.1367C275.769 11.1367 275.301 11.0433 274.887 10.8564C274.472 10.665 274.117 10.4007 273.82 10.0635C273.529 9.72168 273.305 9.32292 273.15 8.86719C272.995 8.41146 272.918 7.91699 272.918 7.38379ZM274.183 7.22656V7.38379C274.183 7.75293 274.226 8.10156 274.312 8.42969C274.399 8.75326 274.529 9.04036 274.702 9.29102C274.88 9.54167 275.101 9.73991 275.365 9.88574C275.63 10.027 275.937 10.0977 276.288 10.0977C276.634 10.0977 276.938 10.027 277.197 9.88574C277.462 9.73991 277.68 9.54167 277.854 9.29102C278.027 9.04036 278.157 8.75326 278.243 8.42969C278.334 8.10156 278.38 7.75293 278.38 7.38379V7.22656C278.38 6.86198 278.334 6.5179 278.243 6.19434C278.157 5.86621 278.024 5.57682 277.847 5.32617C277.674 5.07096 277.455 4.87044 277.19 4.72461C276.931 4.57878 276.625 4.50586 276.274 4.50586C275.928 4.50586 275.623 4.57878 275.358 4.72461C275.099 4.87044 274.88 5.07096 274.702 5.32617C274.529 5.57682 274.399 5.86621 274.312 6.19434C274.226 6.5179 274.183 6.86198 274.183 7.22656ZM284.71 7.74609H282.283L282.27 6.73438H284.252C284.644 6.73438 284.97 6.69564 285.229 6.61816C285.494 6.54069 285.692 6.42448 285.824 6.26953C285.956 6.11458 286.022 5.92318 286.022 5.69531C286.022 5.51758 285.984 5.36263 285.906 5.23047C285.833 5.09375 285.722 4.9821 285.571 4.89551C285.421 4.80436 285.234 4.73828 285.011 4.69727C284.792 4.65169 284.535 4.62891 284.238 4.62891H282.618V11H281.354V3.60352H284.238C284.708 3.60352 285.129 3.64453 285.503 3.72656C285.881 3.80859 286.202 3.93392 286.467 4.10254C286.736 4.2666 286.941 4.47624 287.082 4.73145C287.223 4.98665 287.294 5.28743 287.294 5.63379C287.294 5.8571 287.248 6.06901 287.157 6.26953C287.066 6.47005 286.932 6.64779 286.754 6.80273C286.576 6.95768 286.357 7.08529 286.098 7.18555C285.838 7.28125 285.539 7.34277 285.202 7.37012L284.71 7.74609ZM284.71 11H281.825L282.454 9.97461H284.71C285.061 9.97461 285.353 9.93132 285.585 9.84473C285.817 9.75358 285.991 9.62598 286.104 9.46191C286.223 9.29329 286.282 9.09277 286.282 8.86035C286.282 8.62793 286.223 8.42969 286.104 8.26562C285.991 8.09701 285.817 7.9694 285.585 7.88281C285.353 7.79167 285.061 7.74609 284.71 7.74609H282.789L282.803 6.73438H285.202L285.66 7.11719C286.066 7.14909 286.41 7.24935 286.692 7.41797C286.975 7.58659 287.189 7.80078 287.335 8.06055C287.481 8.31576 287.554 8.59375 287.554 8.89453C287.554 9.24089 287.488 9.54622 287.355 9.81055C287.228 10.0749 287.041 10.2959 286.795 10.4736C286.549 10.6468 286.25 10.779 285.899 10.8701C285.549 10.9567 285.152 11 284.71 11ZM289.037 4.29395C289.037 4.07975 289.103 3.89974 289.235 3.75391C289.372 3.60352 289.568 3.52832 289.823 3.52832C290.078 3.52832 290.272 3.60352 290.404 3.75391C290.541 3.89974 290.609 4.07975 290.609 4.29395C290.609 4.50358 290.541 4.68132 290.404 4.82715C290.272 4.97298 290.078 5.0459 289.823 5.0459C289.568 5.0459 289.372 4.97298 289.235 4.82715C289.103 4.68132 289.037 4.50358 289.037 4.29395ZM290.479 9.49609V10.5146C290.479 10.9294 290.375 11.3669 290.165 11.8271C289.955 12.292 289.661 12.6794 289.283 12.9893L288.565 12.4902C288.711 12.2897 288.834 12.0846 288.935 11.875C289.035 11.6699 289.11 11.4557 289.16 11.2324C289.215 11.0137 289.242 10.7812 289.242 10.5352V9.49609H290.479Z" fill="#303030" fill-opacity="0.9"/>
</svg>
