<svg width="237" height="36" viewBox="0 0 237 36" fill="none" xmlns="http://www.w3.org/2000/svg">
<path d="M3.92383 13.0977C4.22461 13.0977 4.5026 13.0361 4.75781 12.9131C5.01302 12.79 5.22266 12.6214 5.38672 12.4072C5.55078 12.1885 5.64421 11.9401 5.66699 11.6621H6.87012C6.84733 12.0996 6.69922 12.5075 6.42578 12.8857C6.1569 13.2594 5.80371 13.5625 5.36621 13.7949C4.92871 14.0228 4.44792 14.1367 3.92383 14.1367C3.36784 14.1367 2.88249 14.0387 2.46777 13.8428C2.05762 13.6468 1.71582 13.3779 1.44238 13.0361C1.1735 12.6943 0.970703 12.3024 0.833984 11.8604C0.701823 11.4137 0.635742 10.9421 0.635742 10.4453V10.1582C0.635742 9.66146 0.701823 9.19206 0.833984 8.75C0.970703 8.30339 1.1735 7.90918 1.44238 7.56738C1.71582 7.22559 2.05762 6.95671 2.46777 6.76074C2.88249 6.56478 3.36784 6.4668 3.92383 6.4668C4.5026 6.4668 5.00846 6.58529 5.44141 6.82227C5.87435 7.05469 6.21387 7.3737 6.45996 7.7793C6.71061 8.18034 6.84733 8.63607 6.87012 9.14648H5.66699C5.64421 8.84115 5.55762 8.56543 5.40723 8.31934C5.26139 8.07324 5.06087 7.87728 4.80566 7.73145C4.55501 7.58105 4.26107 7.50586 3.92383 7.50586C3.53646 7.50586 3.21061 7.58333 2.94629 7.73828C2.68652 7.88867 2.47917 8.09375 2.32422 8.35352C2.17383 8.60872 2.06445 8.89355 1.99609 9.20801C1.93229 9.5179 1.90039 9.83464 1.90039 10.1582V10.4453C1.90039 10.7689 1.93229 11.0879 1.99609 11.4023C2.0599 11.7168 2.16699 12.0016 2.31738 12.2568C2.47233 12.512 2.67969 12.7171 2.93945 12.8721C3.20378 13.0225 3.5319 13.0977 3.92383 13.0977ZM9.14648 6.60352L10.7666 9.29688L12.4072 6.60352H13.8906L11.4707 10.2539L13.9658 14H12.5029L10.7939 11.2246L9.08496 14H7.61523L10.1035 10.2539L7.69043 6.60352H9.14648ZM18.1699 14.1367C17.6549 14.1367 17.1878 14.0501 16.7686 13.877C16.3538 13.6992 15.9961 13.4508 15.6953 13.1318C15.3991 12.8128 15.1712 12.4346 15.0117 11.9971C14.8522 11.5596 14.7725 11.0811 14.7725 10.5615V10.2744C14.7725 9.67285 14.8613 9.13737 15.0391 8.66797C15.2168 8.19401 15.4583 7.79297 15.7637 7.46484C16.069 7.13672 16.4154 6.88835 16.8027 6.71973C17.1901 6.55111 17.5911 6.4668 18.0059 6.4668C18.5345 6.4668 18.9902 6.55794 19.373 6.74023C19.7604 6.92253 20.0771 7.17773 20.3232 7.50586C20.5693 7.82943 20.7516 8.21224 20.8701 8.6543C20.9886 9.0918 21.0479 9.57031 21.0479 10.0898V10.6572H15.5244V9.625H19.7832V9.5293C19.765 9.20117 19.6966 8.88216 19.5781 8.57227C19.4642 8.26237 19.2819 8.00716 19.0312 7.80664C18.7806 7.60612 18.4388 7.50586 18.0059 7.50586C17.7188 7.50586 17.4544 7.56738 17.2129 7.69043C16.9714 7.80892 16.764 7.98665 16.5908 8.22363C16.4176 8.46061 16.2832 8.75 16.1875 9.0918C16.0918 9.43359 16.0439 9.8278 16.0439 10.2744V10.5615C16.0439 10.9124 16.0918 11.2428 16.1875 11.5527C16.2878 11.8581 16.4313 12.127 16.6182 12.3594C16.8096 12.5918 17.0397 12.7741 17.3086 12.9062C17.582 13.0384 17.8919 13.1045 18.2383 13.1045C18.6849 13.1045 19.0632 13.0133 19.373 12.8311C19.6829 12.6488 19.9541 12.4049 20.1865 12.0996L20.9521 12.708C20.7926 12.9495 20.5898 13.1797 20.3438 13.3984C20.0977 13.6172 19.7946 13.7949 19.4346 13.9316C19.0791 14.0684 18.6576 14.1367 18.1699 14.1367ZM26.7764 12.3184L29.292 6.60352H30.5088L27.2139 14H26.3389L23.0576 6.60352H24.2744L26.7764 12.3184ZM23.9053 6.60352V14H22.6406V6.60352H23.9053ZM29.6064 14V6.60352H30.8779V14H29.6064ZM37.2764 12.7354V8.92773C37.2764 8.63607 37.2171 8.38314 37.0986 8.16895C36.9847 7.9502 36.8115 7.78158 36.5791 7.66309C36.3467 7.5446 36.0596 7.48535 35.7178 7.48535C35.3988 7.48535 35.1185 7.54004 34.877 7.64941C34.64 7.75879 34.4531 7.90234 34.3164 8.08008C34.1842 8.25781 34.1182 8.44922 34.1182 8.6543H32.8535C32.8535 8.38997 32.9219 8.12793 33.0586 7.86816C33.1953 7.6084 33.3913 7.3737 33.6465 7.16406C33.9062 6.94987 34.2161 6.78125 34.5762 6.6582C34.9408 6.5306 35.3464 6.4668 35.793 6.4668C36.3307 6.4668 36.8047 6.55794 37.2148 6.74023C37.6296 6.92253 37.9531 7.19824 38.1855 7.56738C38.4225 7.93197 38.541 8.38997 38.541 8.94141V12.3867C38.541 12.6328 38.5615 12.8949 38.6025 13.1729C38.6481 13.4508 38.7142 13.6901 38.8008 13.8906V14H37.4814C37.4176 13.8542 37.3675 13.6605 37.3311 13.4189C37.2946 13.1729 37.2764 12.945 37.2764 12.7354ZM37.4951 9.51562L37.5088 10.4043H36.2305C35.8704 10.4043 35.5492 10.4339 35.2666 10.4932C34.984 10.5479 34.7471 10.6322 34.5557 10.7461C34.3643 10.86 34.2184 11.0036 34.1182 11.1768C34.0179 11.3454 33.9678 11.5436 33.9678 11.7715C33.9678 12.0039 34.0202 12.2158 34.125 12.4072C34.2298 12.5986 34.387 12.7513 34.5967 12.8652C34.8109 12.9746 35.0729 13.0293 35.3828 13.0293C35.7702 13.0293 36.112 12.9473 36.4082 12.7832C36.7044 12.6191 36.9391 12.4186 37.1123 12.1816C37.29 11.9447 37.3857 11.7145 37.3994 11.4912L37.9395 12.0996C37.9076 12.291 37.821 12.5029 37.6797 12.7354C37.5384 12.9678 37.3493 13.1911 37.1123 13.4053C36.8799 13.6149 36.6019 13.7904 36.2783 13.9316C35.9593 14.0684 35.5993 14.1367 35.1982 14.1367C34.6969 14.1367 34.2572 14.0387 33.8789 13.8428C33.5052 13.6468 33.2135 13.3848 33.0039 13.0566C32.7988 12.724 32.6963 12.3525 32.6963 11.9424C32.6963 11.5459 32.7738 11.1973 32.9287 10.8965C33.0837 10.5911 33.307 10.3382 33.5986 10.1377C33.8903 9.93262 34.2412 9.77767 34.6514 9.67285C35.0615 9.56803 35.5195 9.51562 36.0254 9.51562H37.4951ZM47.4756 10.7461H45.0488L45.0352 9.73438H47.0176C47.4095 9.73438 47.7354 9.69564 47.9951 9.61816C48.2594 9.54069 48.4577 9.42448 48.5898 9.26953C48.722 9.11458 48.7881 8.92318 48.7881 8.69531C48.7881 8.51758 48.7493 8.36263 48.6719 8.23047C48.599 8.09375 48.4873 7.9821 48.3369 7.89551C48.1865 7.80436 47.9997 7.73828 47.7764 7.69727C47.5576 7.65169 47.3001 7.62891 47.0039 7.62891H45.3838V14H44.1191V6.60352H47.0039C47.4733 6.60352 47.8949 6.64453 48.2686 6.72656C48.6468 6.80859 48.9681 6.93392 49.2324 7.10254C49.5013 7.2666 49.7064 7.47624 49.8477 7.73145C49.9889 7.98665 50.0596 8.28743 50.0596 8.63379C50.0596 8.8571 50.014 9.06901 49.9229 9.26953C49.8317 9.47005 49.6973 9.64779 49.5195 9.80273C49.3418 9.95768 49.123 10.0853 48.8633 10.1855C48.6035 10.2812 48.305 10.3428 47.9678 10.3701L47.4756 10.7461ZM47.4756 14H44.5908L45.2197 12.9746H47.4756C47.8265 12.9746 48.1182 12.9313 48.3506 12.8447C48.583 12.7536 48.7562 12.626 48.8701 12.4619C48.9886 12.2933 49.0479 12.0928 49.0479 11.8604C49.0479 11.6279 48.9886 11.4297 48.8701 11.2656C48.7562 11.097 48.583 10.9694 48.3506 10.8828C48.1182 10.7917 47.8265 10.7461 47.4756 10.7461H45.5547L45.5684 9.73438H47.9678L48.4258 10.1172C48.8314 10.1491 49.1755 10.2493 49.458 10.418C49.7406 10.5866 49.9548 10.8008 50.1006 11.0605C50.2464 11.3158 50.3193 11.5938 50.3193 11.8945C50.3193 12.2409 50.2533 12.5462 50.1211 12.8105C49.9935 13.0749 49.8066 13.2959 49.5605 13.4736C49.3145 13.6468 49.016 13.779 48.665 13.8701C48.3141 13.9567 47.9176 14 47.4756 14ZM53.3887 6.60352V14H52.124V6.60352H53.3887ZM58.2422 6.60352L54.7354 10.8418H52.9648L52.7734 9.73438H54.2227L56.7041 6.60352H58.2422ZM56.8818 14L54.1611 10.6504L54.9746 9.73438L58.4883 14H56.8818ZM64.5312 6.60352V7.64941H60.9561V6.60352H64.5312ZM65.6455 6.60352V14H64.3809V6.60352H65.6455ZM60.6484 6.60352H61.9199L61.7285 10.1719C61.6966 10.7233 61.6442 11.2109 61.5713 11.6348C61.5029 12.054 61.4072 12.4141 61.2842 12.7148C61.1657 13.0156 61.0153 13.2617 60.833 13.4531C60.6553 13.64 60.4411 13.779 60.1904 13.8701C59.9398 13.9567 59.6504 14 59.3223 14H58.9258V12.8857L59.1992 12.8652C59.3952 12.8516 59.5615 12.806 59.6982 12.7285C59.8395 12.651 59.958 12.5371 60.0537 12.3867C60.1494 12.2318 60.2269 12.0335 60.2861 11.792C60.3499 11.5505 60.3978 11.2633 60.4297 10.9307C60.4661 10.598 60.4935 10.2106 60.5117 9.76855L60.6484 6.60352ZM71.8936 9.74121V10.7734H67.9629V9.74121H71.8936ZM69.0635 6.60352V14H67.7988V6.60352H69.0635ZM70.8135 10.3838V10.2266C70.8135 9.69336 70.891 9.19889 71.0459 8.74316C71.2008 8.28288 71.4242 7.88411 71.7158 7.54688C72.012 7.20508 72.3652 6.94076 72.7754 6.75391C73.1901 6.5625 73.6549 6.4668 74.1699 6.4668C74.694 6.4668 75.1634 6.5625 75.5781 6.75391C75.9928 6.94076 76.346 7.20508 76.6377 7.54688C76.9339 7.88411 77.1595 8.28288 77.3145 8.74316C77.4694 9.19889 77.5469 9.69336 77.5469 10.2266V10.3838C77.5469 10.917 77.4694 11.4115 77.3145 11.8672C77.1595 12.3229 76.9362 12.7217 76.6445 13.0635C76.3529 13.4007 75.9997 13.665 75.585 13.8564C75.1702 14.0433 74.7031 14.1367 74.1836 14.1367C73.6641 14.1367 73.1969 14.0433 72.7822 13.8564C72.3675 13.665 72.012 13.4007 71.7158 13.0635C71.4242 12.7217 71.2008 12.3229 71.0459 11.8672C70.891 11.4115 70.8135 10.917 70.8135 10.3838ZM72.085 10.2266V10.3838C72.085 10.7529 72.1283 11.1016 72.2148 11.4297C72.3014 11.7533 72.4313 12.0404 72.6045 12.291C72.7822 12.5417 73.001 12.7399 73.2607 12.8857C73.5251 13.027 73.8327 13.0977 74.1836 13.0977C74.5345 13.0977 74.8398 13.027 75.0996 12.8857C75.3639 12.7399 75.5827 12.5417 75.7559 12.291C75.929 12.0404 76.0589 11.7533 76.1455 11.4297C76.2367 11.1016 76.2822 10.7529 76.2822 10.3838V10.2266C76.2822 9.86198 76.2367 9.5179 76.1455 9.19434C76.0589 8.86621 75.9268 8.57682 75.749 8.32617C75.5758 8.07096 75.3571 7.87044 75.0928 7.72461C74.8285 7.57878 74.5208 7.50586 74.1699 7.50586C73.8236 7.50586 73.5205 7.57878 73.2607 7.72461C73.001 7.87044 72.7822 8.07096 72.6045 8.32617C72.4313 8.57682 72.3014 8.86621 72.2148 9.19434C72.1283 9.5179 72.085 9.86198 72.085 10.2266ZM84.6904 6.60352V14H83.4258V6.60352H84.6904ZM84.2598 10.001V11.04C84.0046 11.1357 83.7448 11.2223 83.4805 11.2998C83.2207 11.3727 82.945 11.432 82.6533 11.4775C82.3662 11.5186 82.054 11.5391 81.7168 11.5391C81.1335 11.5391 80.6276 11.4388 80.1992 11.2383C79.7708 11.0332 79.4404 10.7256 79.208 10.3154C78.9756 9.90072 78.8594 9.37891 78.8594 8.75V6.58984H80.124V8.75C80.124 9.16016 80.1855 9.49284 80.3086 9.74805C80.4316 10.0033 80.6117 10.1924 80.8486 10.3154C81.0856 10.4339 81.375 10.4932 81.7168 10.4932C82.0449 10.4932 82.3525 10.4727 82.6396 10.4316C82.9313 10.3861 83.2093 10.3268 83.4736 10.2539C83.7425 10.181 84.0046 10.0967 84.2598 10.001ZM89.7969 14.1367C89.2819 14.1367 88.8148 14.0501 88.3955 13.877C87.9808 13.6992 87.623 13.4508 87.3223 13.1318C87.026 12.8128 86.7982 12.4346 86.6387 11.9971C86.4792 11.5596 86.3994 11.0811 86.3994 10.5615V10.2744C86.3994 9.67285 86.4883 9.13737 86.666 8.66797C86.8438 8.19401 87.0853 7.79297 87.3906 7.46484C87.696 7.13672 88.0423 6.88835 88.4297 6.71973C88.8171 6.55111 89.2181 6.4668 89.6328 6.4668C90.1615 6.4668 90.6172 6.55794 91 6.74023C91.3874 6.92253 91.7041 7.17773 91.9502 7.50586C92.1963 7.82943 92.3786 8.21224 92.4971 8.6543C92.6156 9.0918 92.6748 9.57031 92.6748 10.0898V10.6572H87.1514V9.625H91.4102V9.5293C91.3919 9.20117 91.3236 8.88216 91.2051 8.57227C91.0911 8.26237 90.9089 8.00716 90.6582 7.80664C90.4076 7.60612 90.0658 7.50586 89.6328 7.50586C89.3457 7.50586 89.0814 7.56738 88.8398 7.69043C88.5983 7.80892 88.391 7.98665 88.2178 8.22363C88.0446 8.46061 87.9102 8.75 87.8145 9.0918C87.7188 9.43359 87.6709 9.8278 87.6709 10.2744V10.5615C87.6709 10.9124 87.7188 11.2428 87.8145 11.5527C87.9147 11.8581 88.0583 12.127 88.2451 12.3594C88.4365 12.5918 88.6667 12.7741 88.9355 12.9062C89.209 13.0384 89.5189 13.1045 89.8652 13.1045C90.3118 13.1045 90.6901 13.0133 91 12.8311C91.3099 12.6488 91.5811 12.4049 91.8135 12.0996L92.5791 12.708C92.4196 12.9495 92.2168 13.1797 91.9707 13.3984C91.7246 13.6172 91.4215 13.7949 91.0615 13.9316C90.7061 14.0684 90.2845 14.1367 89.7969 14.1367ZM99.1689 9.80957V10.835H95.2588V9.80957H99.1689ZM95.5254 6.60352V14H94.2607V6.60352H95.5254ZM100.194 6.60352V14H98.9229V6.60352H100.194ZM103.599 11.9971L107.01 6.60352H108.281V14H107.01V8.60645L103.599 14H102.341V6.60352H103.599V11.9971ZM111.809 10.4727H113.176L111.036 14H109.669L111.809 10.4727ZM112.868 6.60352H115.958V14H114.693V7.62891H112.868C112.508 7.62891 112.214 7.69043 111.986 7.81348C111.758 7.93197 111.592 8.08691 111.487 8.27832C111.382 8.46973 111.33 8.66797 111.33 8.87305C111.33 9.07357 111.378 9.26725 111.474 9.4541C111.569 9.63639 111.72 9.78678 111.925 9.90527C112.13 10.0238 112.394 10.083 112.718 10.083H115.035V11.1221H112.718C112.294 11.1221 111.918 11.0651 111.59 10.9512C111.262 10.8372 110.984 10.68 110.756 10.4795C110.528 10.2744 110.355 10.0352 110.236 9.76172C110.118 9.48372 110.059 9.18294 110.059 8.85938C110.059 8.53581 110.12 8.2373 110.243 7.96387C110.371 7.69043 110.553 7.45117 110.79 7.24609C111.032 7.04102 111.326 6.88379 111.672 6.77441C112.023 6.66048 112.422 6.60352 112.868 6.60352ZM121.133 10.3838V10.2266C121.133 9.69336 121.21 9.19889 121.365 8.74316C121.52 8.28288 121.743 7.88411 122.035 7.54688C122.327 7.20508 122.68 6.94076 123.095 6.75391C123.509 6.5625 123.974 6.4668 124.489 6.4668C125.009 6.4668 125.476 6.5625 125.891 6.75391C126.31 6.94076 126.665 7.20508 126.957 7.54688C127.253 7.88411 127.479 8.28288 127.634 8.74316C127.789 9.19889 127.866 9.69336 127.866 10.2266V10.3838C127.866 10.917 127.789 11.4115 127.634 11.8672C127.479 12.3229 127.253 12.7217 126.957 13.0635C126.665 13.4007 126.312 13.665 125.897 13.8564C125.487 14.0433 125.022 14.1367 124.503 14.1367C123.983 14.1367 123.516 14.0433 123.102 13.8564C122.687 13.665 122.331 13.4007 122.035 13.0635C121.743 12.7217 121.52 12.3229 121.365 11.8672C121.21 11.4115 121.133 10.917 121.133 10.3838ZM122.397 10.2266V10.3838C122.397 10.7529 122.441 11.1016 122.527 11.4297C122.614 11.7533 122.744 12.0404 122.917 12.291C123.095 12.5417 123.316 12.7399 123.58 12.8857C123.844 13.027 124.152 13.0977 124.503 13.0977C124.849 13.0977 125.152 13.027 125.412 12.8857C125.676 12.7399 125.895 12.5417 126.068 12.291C126.242 12.0404 126.371 11.7533 126.458 11.4297C126.549 11.1016 126.595 10.7529 126.595 10.3838V10.2266C126.595 9.86198 126.549 9.5179 126.458 9.19434C126.371 8.86621 126.239 8.57682 126.062 8.32617C125.888 8.07096 125.67 7.87044 125.405 7.72461C125.146 7.57878 124.84 7.50586 124.489 7.50586C124.143 7.50586 123.838 7.57878 123.573 7.72461C123.313 7.87044 123.095 8.07096 122.917 8.32617C122.744 8.57682 122.614 8.86621 122.527 9.19434C122.441 9.5179 122.397 9.86198 122.397 10.2266ZM132.412 13.0977C132.713 13.0977 132.991 13.0361 133.246 12.9131C133.501 12.79 133.711 12.6214 133.875 12.4072C134.039 12.1885 134.132 11.9401 134.155 11.6621H135.358C135.336 12.0996 135.188 12.5075 134.914 12.8857C134.645 13.2594 134.292 13.5625 133.854 13.7949C133.417 14.0228 132.936 14.1367 132.412 14.1367C131.856 14.1367 131.371 14.0387 130.956 13.8428C130.546 13.6468 130.204 13.3779 129.931 13.0361C129.662 12.6943 129.459 12.3024 129.322 11.8604C129.19 11.4137 129.124 10.9421 129.124 10.4453V10.1582C129.124 9.66146 129.19 9.19206 129.322 8.75C129.459 8.30339 129.662 7.90918 129.931 7.56738C130.204 7.22559 130.546 6.95671 130.956 6.76074C131.371 6.56478 131.856 6.4668 132.412 6.4668C132.991 6.4668 133.497 6.58529 133.93 6.82227C134.363 7.05469 134.702 7.3737 134.948 7.7793C135.199 8.18034 135.336 8.63607 135.358 9.14648H134.155C134.132 8.84115 134.046 8.56543 133.896 8.31934C133.75 8.07324 133.549 7.87728 133.294 7.73145C133.043 7.58105 132.749 7.50586 132.412 7.50586C132.025 7.50586 131.699 7.58333 131.435 7.73828C131.175 7.88867 130.967 8.09375 130.812 8.35352C130.662 8.60872 130.553 8.89355 130.484 9.20801C130.421 9.5179 130.389 9.83464 130.389 10.1582V10.4453C130.389 10.7689 130.421 11.0879 130.484 11.4023C130.548 11.7168 130.655 12.0016 130.806 12.2568C130.961 12.512 131.168 12.7171 131.428 12.8721C131.692 13.0225 132.02 13.0977 132.412 13.0977ZM140.253 10.7461H137.826L137.812 9.73438H139.795C140.187 9.73438 140.513 9.69564 140.772 9.61816C141.037 9.54069 141.235 9.42448 141.367 9.26953C141.499 9.11458 141.565 8.92318 141.565 8.69531C141.565 8.51758 141.527 8.36263 141.449 8.23047C141.376 8.09375 141.265 7.9821 141.114 7.89551C140.964 7.80436 140.777 7.73828 140.554 7.69727C140.335 7.65169 140.077 7.62891 139.781 7.62891H138.161V14H136.896V6.60352H139.781C140.251 6.60352 140.672 6.64453 141.046 6.72656C141.424 6.80859 141.745 6.93392 142.01 7.10254C142.279 7.2666 142.484 7.47624 142.625 7.73145C142.766 7.98665 142.837 8.28743 142.837 8.63379C142.837 8.8571 142.791 9.06901 142.7 9.26953C142.609 9.47005 142.475 9.64779 142.297 9.80273C142.119 9.95768 141.9 10.0853 141.641 10.1855C141.381 10.2812 141.082 10.3428 140.745 10.3701L140.253 10.7461ZM140.253 14H137.368L137.997 12.9746H140.253C140.604 12.9746 140.896 12.9313 141.128 12.8447C141.36 12.7536 141.534 12.626 141.647 12.4619C141.766 12.2933 141.825 12.0928 141.825 11.8604C141.825 11.6279 141.766 11.4297 141.647 11.2656C141.534 11.097 141.36 10.9694 141.128 10.8828C140.896 10.7917 140.604 10.7461 140.253 10.7461H138.332L138.346 9.73438H140.745L141.203 10.1172C141.609 10.1491 141.953 10.2493 142.235 10.418C142.518 10.5866 142.732 10.8008 142.878 11.0605C143.024 11.3158 143.097 11.5938 143.097 11.8945C143.097 12.2409 143.031 12.5462 142.898 12.8105C142.771 13.0749 142.584 13.2959 142.338 13.4736C142.092 13.6468 141.793 13.779 141.442 13.8701C141.091 13.9567 140.695 14 140.253 14ZM147.861 14.1367C147.346 14.1367 146.879 14.0501 146.46 13.877C146.045 13.6992 145.688 13.4508 145.387 13.1318C145.09 12.8128 144.863 12.4346 144.703 11.9971C144.544 11.5596 144.464 11.0811 144.464 10.5615V10.2744C144.464 9.67285 144.553 9.13737 144.73 8.66797C144.908 8.19401 145.15 7.79297 145.455 7.46484C145.76 7.13672 146.107 6.88835 146.494 6.71973C146.882 6.55111 147.283 6.4668 147.697 6.4668C148.226 6.4668 148.682 6.55794 149.064 6.74023C149.452 6.92253 149.769 7.17773 150.015 7.50586C150.261 7.82943 150.443 8.21224 150.562 8.6543C150.68 9.0918 150.739 9.57031 150.739 10.0898V10.6572H145.216V9.625H149.475V9.5293C149.456 9.20117 149.388 8.88216 149.27 8.57227C149.156 8.26237 148.973 8.00716 148.723 7.80664C148.472 7.60612 148.13 7.50586 147.697 7.50586C147.41 7.50586 147.146 7.56738 146.904 7.69043C146.663 7.80892 146.455 7.98665 146.282 8.22363C146.109 8.46061 145.975 8.75 145.879 9.0918C145.783 9.43359 145.735 9.8278 145.735 10.2744V10.5615C145.735 10.9124 145.783 11.2428 145.879 11.5527C145.979 11.8581 146.123 12.127 146.31 12.3594C146.501 12.5918 146.731 12.7741 147 12.9062C147.273 13.0384 147.583 13.1045 147.93 13.1045C148.376 13.1045 148.755 13.0133 149.064 12.8311C149.374 12.6488 149.646 12.4049 149.878 12.0996L150.644 12.708C150.484 12.9495 150.281 13.1797 150.035 13.3984C149.789 13.6172 149.486 13.7949 149.126 13.9316C148.771 14.0684 148.349 14.1367 147.861 14.1367ZM155.148 6.60352V14H153.877V6.60352H155.148ZM157.63 6.60352V7.62891H151.443V6.60352H157.63ZM160.241 11.9971L163.652 6.60352H164.924V14H163.652V8.60645L160.241 14H158.983V6.60352H160.241V11.9971ZM169.969 6.60352V14H168.697V6.60352H169.969ZM172.45 6.60352V7.62891H166.264V6.60352H172.45ZM176.217 14.1367C175.702 14.1367 175.235 14.0501 174.815 13.877C174.401 13.6992 174.043 13.4508 173.742 13.1318C173.446 12.8128 173.218 12.4346 173.059 11.9971C172.899 11.5596 172.819 11.0811 172.819 10.5615V10.2744C172.819 9.67285 172.908 9.13737 173.086 8.66797C173.264 8.19401 173.505 7.79297 173.811 7.46484C174.116 7.13672 174.462 6.88835 174.85 6.71973C175.237 6.55111 175.638 6.4668 176.053 6.4668C176.581 6.4668 177.037 6.55794 177.42 6.74023C177.807 6.92253 178.124 7.17773 178.37 7.50586C178.616 7.82943 178.799 8.21224 178.917 8.6543C179.035 9.0918 179.095 9.57031 179.095 10.0898V10.6572H173.571V9.625H177.83V9.5293C177.812 9.20117 177.743 8.88216 177.625 8.57227C177.511 8.26237 177.329 8.00716 177.078 7.80664C176.827 7.60612 176.486 7.50586 176.053 7.50586C175.766 7.50586 175.501 7.56738 175.26 7.69043C175.018 7.80892 174.811 7.98665 174.638 8.22363C174.465 8.46061 174.33 8.75 174.234 9.0918C174.139 9.43359 174.091 9.8278 174.091 10.2744V10.5615C174.091 10.9124 174.139 11.2428 174.234 11.5527C174.335 11.8581 174.478 12.127 174.665 12.3594C174.856 12.5918 175.087 12.7741 175.355 12.9062C175.629 13.0384 175.939 13.1045 176.285 13.1045C176.732 13.1045 177.11 13.0133 177.42 12.8311C177.73 12.6488 178.001 12.4049 178.233 12.0996L178.999 12.708C178.84 12.9495 178.637 13.1797 178.391 13.3984C178.145 13.6172 177.841 13.7949 177.481 13.9316C177.126 14.0684 176.704 14.1367 176.217 14.1367ZM185.514 6.60352V7.64941H181.938V6.60352H185.514ZM186.628 6.60352V14H185.363V6.60352H186.628ZM181.631 6.60352H182.902L182.711 10.1719C182.679 10.7233 182.627 11.2109 182.554 11.6348C182.485 12.054 182.39 12.4141 182.267 12.7148C182.148 13.0156 181.998 13.2617 181.815 13.4531C181.638 13.64 181.424 13.779 181.173 13.8701C180.922 13.9567 180.633 14 180.305 14H179.908V12.8857L180.182 12.8652C180.378 12.8516 180.544 12.806 180.681 12.7285C180.822 12.651 180.94 12.5371 181.036 12.3867C181.132 12.2318 181.209 12.0335 181.269 11.792C181.332 11.5505 181.38 11.2633 181.412 10.9307C181.449 10.598 181.476 10.2106 181.494 9.76855L181.631 6.60352ZM189.704 9.14648H191.926C192.523 9.14648 193.026 9.2513 193.437 9.46094C193.847 9.66602 194.157 9.95085 194.366 10.3154C194.58 10.6755 194.688 11.0856 194.688 11.5459C194.688 11.8877 194.628 12.209 194.51 12.5098C194.391 12.806 194.214 13.0658 193.977 13.2891C193.744 13.5124 193.455 13.6878 193.108 13.8154C192.767 13.9385 192.372 14 191.926 14H188.781V6.60352H190.046V12.9609H191.926C192.29 12.9609 192.582 12.8949 192.801 12.7627C193.02 12.6305 193.177 12.4596 193.272 12.25C193.368 12.0404 193.416 11.8216 193.416 11.5938C193.416 11.3704 193.368 11.1517 193.272 10.9375C193.177 10.7233 193.02 10.5456 192.801 10.4043C192.582 10.2585 192.29 10.1855 191.926 10.1855H189.704V9.14648ZM201.284 9.80957V10.835H197.374V9.80957H201.284ZM197.641 6.60352V14H196.376V6.60352H197.641ZM202.31 6.60352V14H201.038V6.60352H202.31ZM205.386 9.14648H207.607C208.204 9.14648 208.708 9.2513 209.118 9.46094C209.528 9.66602 209.838 9.95085 210.048 10.3154C210.262 10.6755 210.369 11.0856 210.369 11.5459C210.369 11.8877 210.31 12.209 210.191 12.5098C210.073 12.806 209.895 13.0658 209.658 13.2891C209.426 13.5124 209.136 13.6878 208.79 13.8154C208.448 13.9385 208.054 14 207.607 14H204.463V6.60352H205.728V12.9609H207.607C207.972 12.9609 208.264 12.8949 208.482 12.7627C208.701 12.6305 208.858 12.4596 208.954 12.25C209.05 12.0404 209.098 11.8216 209.098 11.5938C209.098 11.3704 209.05 11.1517 208.954 10.9375C208.858 10.7233 208.701 10.5456 208.482 10.4043C208.264 10.2585 207.972 10.1855 207.607 10.1855H205.386V9.14648ZM213.001 6.60352V14H211.736V6.60352H213.001ZM216.07 6.60352L217.69 9.29688L219.331 6.60352H220.814L218.395 10.2539L220.89 14H219.427L217.718 11.2246L216.009 14H214.539L217.027 10.2539L214.614 6.60352H216.07ZM5.89258 24.6035V25.6494H2.15332V24.6035H5.89258ZM2.33789 24.6035V32H1.07324V24.6035H2.33789ZM7.01367 24.6035V32H5.74219V24.6035H7.01367ZM10.3086 26.0254V34.8438H9.03711V24.6035H10.1992L10.3086 26.0254ZM15.292 28.2402V28.3838C15.292 28.9215 15.2282 29.4206 15.1006 29.8809C14.973 30.3366 14.7861 30.7331 14.54 31.0703C14.2985 31.4076 14 31.6696 13.6445 31.8564C13.2891 32.0433 12.8812 32.1367 12.4209 32.1367C11.9515 32.1367 11.5368 32.0592 11.1768 31.9043C10.8167 31.7493 10.5114 31.5238 10.2607 31.2275C10.0101 30.9313 9.80957 30.5758 9.65918 30.1611C9.51335 29.7464 9.41309 29.2793 9.3584 28.7598V27.9941C9.41309 27.4473 9.51562 26.9574 9.66602 26.5244C9.81641 26.0915 10.0146 25.7223 10.2607 25.417C10.5114 25.1071 10.8145 24.8724 11.1699 24.7129C11.5254 24.5488 11.9355 24.4668 12.4004 24.4668C12.8652 24.4668 13.2777 24.5579 13.6377 24.7402C13.9977 24.918 14.3008 25.1732 14.5469 25.5059C14.793 25.8385 14.9775 26.2373 15.1006 26.7021C15.2282 27.1624 15.292 27.6751 15.292 28.2402ZM14.0205 28.3838V28.2402C14.0205 27.8711 13.9818 27.5247 13.9043 27.2012C13.8268 26.873 13.7061 26.5859 13.542 26.3398C13.3825 26.0892 13.1774 25.8932 12.9268 25.752C12.6761 25.6061 12.3776 25.5332 12.0312 25.5332C11.7122 25.5332 11.4342 25.5879 11.1973 25.6973C10.9648 25.8066 10.7666 25.9548 10.6025 26.1416C10.4385 26.3239 10.304 26.5335 10.1992 26.7705C10.099 27.0029 10.0238 27.2445 9.97363 27.4951V29.2656C10.0648 29.5846 10.1924 29.8854 10.3564 30.168C10.5205 30.446 10.7393 30.6715 11.0127 30.8447C11.2861 31.0133 11.6302 31.0977 12.0449 31.0977C12.3867 31.0977 12.6807 31.027 12.9268 30.8857C13.1774 30.7399 13.3825 30.5417 13.542 30.291C13.7061 30.0404 13.8268 29.7533 13.9043 29.4297C13.9818 29.1016 14.0205 28.7529 14.0205 28.3838ZM18.2725 29.9971L21.6836 24.6035H22.9551V32H21.6836V26.6064L18.2725 32H17.0146V24.6035H18.2725V29.9971ZM29.7295 21.3838H30.7686C30.7686 21.8304 30.7002 22.1859 30.5635 22.4502C30.4268 22.71 30.2399 22.9105 30.0029 23.0518C29.7705 23.193 29.5062 23.3001 29.21 23.373C28.9183 23.446 28.6152 23.5166 28.3008 23.585C27.9089 23.667 27.5443 23.7969 27.207 23.9746C26.8743 24.1478 26.5872 24.3939 26.3457 24.7129C26.1087 25.0319 25.9333 25.4466 25.8193 25.957C25.71 26.4674 25.6803 27.0986 25.7305 27.8506V28.4795H24.6914V27.8506C24.6914 27.0075 24.7712 26.2715 24.9307 25.6426C25.0947 25.0137 25.3249 24.4827 25.6211 24.0498C25.9173 23.6169 26.2682 23.2728 26.6738 23.0176C27.084 22.7624 27.5352 22.5869 28.0273 22.4912C28.3828 22.4229 28.6882 22.3499 28.9434 22.2725C29.1986 22.1904 29.3923 22.0811 29.5244 21.9443C29.6611 21.8076 29.7295 21.6208 29.7295 21.3838ZM28.2324 25.0273C28.7155 25.0273 29.1462 25.1117 29.5244 25.2803C29.9027 25.4489 30.224 25.6836 30.4883 25.9844C30.7526 26.2852 30.9531 26.6406 31.0898 27.0508C31.2311 27.4564 31.3018 27.8984 31.3018 28.377V28.5273C31.3018 29.0423 31.2266 29.5208 31.0762 29.9629C30.9303 30.4004 30.7139 30.7832 30.4268 31.1113C30.1442 31.4349 29.7979 31.6878 29.3877 31.8701C28.9821 32.0524 28.5195 32.1436 28 32.1436C27.4805 32.1436 27.0156 32.0524 26.6055 31.8701C26.1999 31.6878 25.8535 31.4349 25.5664 31.1113C25.2793 30.7832 25.0605 30.4004 24.9102 29.9629C24.7643 29.5208 24.6914 29.0423 24.6914 28.5273V28.377C24.6914 28.263 24.7119 28.1514 24.7529 28.042C24.7939 27.9326 24.8441 27.821 24.9033 27.707C24.9671 27.5931 25.0241 27.4723 25.0742 27.3447C25.2428 26.9346 25.473 26.554 25.7646 26.2031C26.0609 25.8522 26.4141 25.5697 26.8242 25.3555C27.2389 25.1367 27.7083 25.0273 28.2324 25.0273ZM27.9863 26.0596C27.5215 26.0596 27.1387 26.1667 26.8379 26.3809C26.5417 26.5951 26.3206 26.8799 26.1748 27.2354C26.029 27.5863 25.9561 27.9668 25.9561 28.377V28.5273C25.9561 28.8737 25.9971 29.2018 26.0791 29.5117C26.1611 29.8216 26.2842 30.0973 26.4482 30.3389C26.6169 30.5758 26.8288 30.7627 27.084 30.8994C27.3438 31.0361 27.6491 31.1045 28 31.1045C28.3509 31.1045 28.654 31.0361 28.9092 30.8994C29.1644 30.7627 29.374 30.5758 29.5381 30.3389C29.7021 30.0973 29.8252 29.8216 29.9072 29.5117C29.9893 29.2018 30.0303 28.8737 30.0303 28.5273V28.377C30.0303 28.0671 29.9893 27.7731 29.9072 27.4951C29.8252 27.2171 29.6999 26.971 29.5312 26.7568C29.3672 26.5426 29.1553 26.374 28.8955 26.251C28.6403 26.1234 28.3372 26.0596 27.9863 26.0596ZM32.4023 28.3838V28.2266C32.4023 27.6934 32.4798 27.1989 32.6348 26.7432C32.7897 26.2829 33.013 25.8841 33.3047 25.5469C33.5964 25.2051 33.9495 24.9408 34.3643 24.7539C34.779 24.5625 35.2438 24.4668 35.7588 24.4668C36.2783 24.4668 36.7454 24.5625 37.1602 24.7539C37.5794 24.9408 37.9349 25.2051 38.2266 25.5469C38.5228 25.8841 38.7484 26.2829 38.9033 26.7432C39.0583 27.1989 39.1357 27.6934 39.1357 28.2266V28.3838C39.1357 28.917 39.0583 29.4115 38.9033 29.8672C38.7484 30.3229 38.5228 30.7217 38.2266 31.0635C37.9349 31.4007 37.5817 31.665 37.167 31.8564C36.7568 32.0433 36.292 32.1367 35.7725 32.1367C35.2529 32.1367 34.7858 32.0433 34.3711 31.8564C33.9564 31.665 33.6009 31.4007 33.3047 31.0635C33.013 30.7217 32.7897 30.3229 32.6348 29.8672C32.4798 29.4115 32.4023 28.917 32.4023 28.3838ZM33.667 28.2266V28.3838C33.667 28.7529 33.7103 29.1016 33.7969 29.4297C33.8835 29.7533 34.0133 30.0404 34.1865 30.291C34.3643 30.5417 34.5853 30.7399 34.8496 30.8857C35.1139 31.027 35.4215 31.0977 35.7725 31.0977C36.1188 31.0977 36.4219 31.027 36.6816 30.8857C36.946 30.7399 37.1647 30.5417 37.3379 30.291C37.5111 30.0404 37.641 29.7533 37.7275 29.4297C37.8187 29.1016 37.8643 28.7529 37.8643 28.3838V28.2266C37.8643 27.862 37.8187 27.5179 37.7275 27.1943C37.641 26.8662 37.5088 26.5768 37.3311 26.3262C37.1579 26.071 36.9391 25.8704 36.6748 25.7246C36.415 25.5788 36.1097 25.5059 35.7588 25.5059C35.4124 25.5059 35.1071 25.5788 34.8428 25.7246C34.583 25.8704 34.3643 26.071 34.1865 26.3262C34.0133 26.5768 33.8835 26.8662 33.7969 27.1943C33.7103 27.5179 33.667 27.862 33.667 28.2266ZM41.9863 26.0254V34.8438H40.7148V24.6035H41.877L41.9863 26.0254ZM46.9697 28.2402V28.3838C46.9697 28.9215 46.9059 29.4206 46.7783 29.8809C46.6507 30.3366 46.4639 30.7331 46.2178 31.0703C45.9762 31.4076 45.6777 31.6696 45.3223 31.8564C44.9668 32.0433 44.5589 32.1367 44.0986 32.1367C43.6292 32.1367 43.2145 32.0592 42.8545 31.9043C42.4945 31.7493 42.1891 31.5238 41.9385 31.2275C41.6878 30.9313 41.4873 30.5758 41.3369 30.1611C41.1911 29.7464 41.0908 29.2793 41.0361 28.7598V27.9941C41.0908 27.4473 41.1934 26.9574 41.3438 26.5244C41.4941 26.0915 41.6924 25.7223 41.9385 25.417C42.1891 25.1071 42.4922 24.8724 42.8477 24.7129C43.2031 24.5488 43.6133 24.4668 44.0781 24.4668C44.543 24.4668 44.9554 24.5579 45.3154 24.7402C45.6755 24.918 45.9785 25.1732 46.2246 25.5059C46.4707 25.8385 46.6553 26.2373 46.7783 26.7021C46.9059 27.1624 46.9697 27.6751 46.9697 28.2402ZM45.6982 28.3838V28.2402C45.6982 27.8711 45.6595 27.5247 45.582 27.2012C45.5046 26.873 45.3838 26.5859 45.2197 26.3398C45.0602 26.0892 44.8551 25.8932 44.6045 25.752C44.3538 25.6061 44.0553 25.5332 43.709 25.5332C43.39 25.5332 43.112 25.5879 42.875 25.6973C42.6426 25.8066 42.4443 25.9548 42.2803 26.1416C42.1162 26.3239 41.9818 26.5335 41.877 26.7705C41.7767 27.0029 41.7015 27.2445 41.6514 27.4951V29.2656C41.7425 29.5846 41.8701 29.8854 42.0342 30.168C42.1982 30.446 42.417 30.6715 42.6904 30.8447C42.9639 31.0133 43.3079 31.0977 43.7227 31.0977C44.0645 31.0977 44.3584 31.027 44.6045 30.8857C44.8551 30.7399 45.0602 30.5417 45.2197 30.291C45.3838 30.0404 45.5046 29.7533 45.582 29.4297C45.6595 29.1016 45.6982 28.7529 45.6982 28.3838ZM48.248 28.3838V28.2266C48.248 27.6934 48.3255 27.1989 48.4805 26.7432C48.6354 26.2829 48.8587 25.8841 49.1504 25.5469C49.4421 25.2051 49.7952 24.9408 50.21 24.7539C50.6247 24.5625 51.0895 24.4668 51.6045 24.4668C52.124 24.4668 52.5911 24.5625 53.0059 24.7539C53.4251 24.9408 53.7806 25.2051 54.0723 25.5469C54.3685 25.8841 54.5941 26.2829 54.749 26.7432C54.904 27.1989 54.9814 27.6934 54.9814 28.2266V28.3838C54.9814 28.917 54.904 29.4115 54.749 29.8672C54.5941 30.3229 54.3685 30.7217 54.0723 31.0635C53.7806 31.4007 53.4274 31.665 53.0127 31.8564C52.6025 32.0433 52.1377 32.1367 51.6182 32.1367C51.0986 32.1367 50.6315 32.0433 50.2168 31.8564C49.8021 31.665 49.4466 31.4007 49.1504 31.0635C48.8587 30.7217 48.6354 30.3229 48.4805 29.8672C48.3255 29.4115 48.248 28.917 48.248 28.3838ZM49.5127 28.2266V28.3838C49.5127 28.7529 49.556 29.1016 49.6426 29.4297C49.7292 29.7533 49.859 30.0404 50.0322 30.291C50.21 30.5417 50.431 30.7399 50.6953 30.8857C50.9596 31.027 51.2673 31.0977 51.6182 31.0977C51.9645 31.0977 52.2676 31.027 52.5273 30.8857C52.7917 30.7399 53.0104 30.5417 53.1836 30.291C53.3568 30.0404 53.4867 29.7533 53.5732 29.4297C53.6644 29.1016 53.71 28.7529 53.71 28.3838V28.2266C53.71 27.862 53.6644 27.5179 53.5732 27.1943C53.4867 26.8662 53.3545 26.5768 53.1768 26.3262C53.0036 26.071 52.7848 25.8704 52.5205 25.7246C52.2607 25.5788 51.9554 25.5059 51.6045 25.5059C51.2581 25.5059 50.9528 25.5788 50.6885 25.7246C50.4287 25.8704 50.21 26.071 50.0322 26.3262C49.859 26.5768 49.7292 26.8662 49.6426 27.1943C49.556 27.5179 49.5127 27.862 49.5127 28.2266ZM60.04 28.7461H57.6133L57.5996 27.7344H59.582C59.974 27.7344 60.2998 27.6956 60.5596 27.6182C60.8239 27.5407 61.0221 27.4245 61.1543 27.2695C61.2865 27.1146 61.3525 26.9232 61.3525 26.6953C61.3525 26.5176 61.3138 26.3626 61.2363 26.2305C61.1634 26.0938 61.0518 25.9821 60.9014 25.8955C60.751 25.8044 60.5641 25.7383 60.3408 25.6973C60.1221 25.6517 59.8646 25.6289 59.5684 25.6289H57.9482V32H56.6836V24.6035H59.5684C60.0378 24.6035 60.4593 24.6445 60.833 24.7266C61.2113 24.8086 61.5326 24.9339 61.7969 25.1025C62.0658 25.2666 62.2708 25.4762 62.4121 25.7314C62.5534 25.9867 62.624 26.2874 62.624 26.6338C62.624 26.8571 62.5785 27.069 62.4873 27.2695C62.3962 27.4701 62.2617 27.6478 62.084 27.8027C61.9062 27.9577 61.6875 28.0853 61.4277 28.1855C61.168 28.2812 60.8695 28.3428 60.5322 28.3701L60.04 28.7461ZM60.04 32H57.1553L57.7842 30.9746H60.04C60.391 30.9746 60.6826 30.9313 60.915 30.8447C61.1475 30.7536 61.3206 30.626 61.4346 30.4619C61.5531 30.2933 61.6123 30.0928 61.6123 29.8604C61.6123 29.6279 61.5531 29.4297 61.4346 29.2656C61.3206 29.097 61.1475 28.9694 60.915 28.8828C60.6826 28.7917 60.391 28.7461 60.04 28.7461H58.1191L58.1328 27.7344H60.5322L60.9902 28.1172C61.3958 28.1491 61.7399 28.2493 62.0225 28.418C62.305 28.5866 62.5192 28.8008 62.665 29.0605C62.8109 29.3158 62.8838 29.5938 62.8838 29.8945C62.8838 30.2409 62.8177 30.5462 62.6855 30.8105C62.5579 31.0749 62.3711 31.2959 62.125 31.4736C61.8789 31.6468 61.5804 31.779 61.2295 31.8701C60.8786 31.9567 60.4821 32 60.04 32ZM64.3672 25.2939C64.3672 25.0798 64.4333 24.8997 64.5654 24.7539C64.7021 24.6035 64.8981 24.5283 65.1533 24.5283C65.4085 24.5283 65.6022 24.6035 65.7344 24.7539C65.8711 24.8997 65.9395 25.0798 65.9395 25.2939C65.9395 25.5036 65.8711 25.6813 65.7344 25.8271C65.6022 25.973 65.4085 26.0459 65.1533 26.0459C64.8981 26.0459 64.7021 25.973 64.5654 25.8271C64.4333 25.6813 64.3672 25.5036 64.3672 25.2939ZM65.8096 30.4961V31.5146C65.8096 31.9294 65.7048 32.3669 65.4951 32.8271C65.2855 33.292 64.9915 33.6794 64.6133 33.9893L63.8955 33.4902C64.0413 33.2897 64.1644 33.0846 64.2646 32.875C64.3649 32.6699 64.4401 32.4557 64.4902 32.2324C64.5449 32.0137 64.5723 31.7812 64.5723 31.5352V30.4961H65.8096Z" fill="#303030" fill-opacity="0.9"/>
</svg>
