<svg width="256" height="18" viewBox="0 0 256 18" fill="none" xmlns="http://www.w3.org/2000/svg">
<path d="M5.89258 6.60352V7.64941H2.15332V6.60352H5.89258ZM2.33789 6.60352V14H1.07324V6.60352H2.33789ZM7.01367 6.60352V14H5.74219V6.60352H7.01367ZM13.9863 6.60352V7.64941H10.4111V6.60352H13.9863ZM15.1006 6.60352V14H13.8359V6.60352H15.1006ZM10.1035 6.60352H11.375L11.1836 10.1719C11.1517 10.7233 11.0993 11.2109 11.0264 11.6348C10.958 12.054 10.8623 12.4141 10.7393 12.7148C10.6208 13.0156 10.4704 13.2617 10.2881 13.4531C10.1104 13.64 9.89616 13.779 9.64551 13.8701C9.39486 13.9567 9.10547 14 8.77734 14H8.38086V12.8857L8.6543 12.8652C8.85026 12.8516 9.0166 12.806 9.15332 12.7285C9.2946 12.651 9.41309 12.5371 9.50879 12.3867C9.60449 12.2318 9.68197 12.0335 9.74121 11.792C9.80501 11.5505 9.85286 11.2633 9.88477 10.9307C9.92122 10.598 9.94857 10.2106 9.9668 9.76855L10.1035 6.60352ZM21.499 12.7354V8.92773C21.499 8.63607 21.4398 8.38314 21.3213 8.16895C21.2074 7.9502 21.0342 7.78158 20.8018 7.66309C20.5693 7.5446 20.2822 7.48535 19.9404 7.48535C19.6214 7.48535 19.3411 7.54004 19.0996 7.64941C18.8626 7.75879 18.6758 7.90234 18.5391 8.08008C18.4069 8.25781 18.3408 8.44922 18.3408 8.6543H17.0762C17.0762 8.38997 17.1445 8.12793 17.2812 7.86816C17.418 7.6084 17.6139 7.3737 17.8691 7.16406C18.1289 6.94987 18.4388 6.78125 18.7988 6.6582C19.1634 6.5306 19.569 6.4668 20.0156 6.4668C20.5534 6.4668 21.0273 6.55794 21.4375 6.74023C21.8522 6.92253 22.1758 7.19824 22.4082 7.56738C22.6452 7.93197 22.7637 8.38997 22.7637 8.94141V12.3867C22.7637 12.6328 22.7842 12.8949 22.8252 13.1729C22.8708 13.4508 22.9368 13.6901 23.0234 13.8906V14H21.7041C21.6403 13.8542 21.5902 13.6605 21.5537 13.4189C21.5173 13.1729 21.499 12.945 21.499 12.7354ZM21.7178 9.51562L21.7314 10.4043H20.4531C20.0931 10.4043 19.7718 10.4339 19.4893 10.4932C19.2067 10.5479 18.9697 10.6322 18.7783 10.7461C18.5869 10.86 18.4411 11.0036 18.3408 11.1768C18.2406 11.3454 18.1904 11.5436 18.1904 11.7715C18.1904 12.0039 18.2428 12.2158 18.3477 12.4072C18.4525 12.5986 18.6097 12.7513 18.8193 12.8652C19.0335 12.9746 19.2956 13.0293 19.6055 13.0293C19.9928 13.0293 20.3346 12.9473 20.6309 12.7832C20.9271 12.6191 21.1618 12.4186 21.335 12.1816C21.5127 11.9447 21.6084 11.7145 21.6221 11.4912L22.1621 12.0996C22.1302 12.291 22.0436 12.5029 21.9023 12.7354C21.7611 12.9678 21.5719 13.1911 21.335 13.4053C21.1025 13.6149 20.8245 13.7904 20.501 13.9316C20.182 14.0684 19.8219 14.1367 19.4209 14.1367C18.9196 14.1367 18.4798 14.0387 18.1016 13.8428C17.7279 13.6468 17.4362 13.3848 17.2266 13.0566C17.0215 12.724 16.9189 12.3525 16.9189 11.9424C16.9189 11.5459 16.9964 11.1973 17.1514 10.8965C17.3063 10.5911 17.5296 10.3382 17.8213 10.1377C18.113 9.93262 18.4639 9.77767 18.874 9.67285C19.2842 9.56803 19.7422 9.51562 20.248 9.51562H21.7178ZM29.7705 9.80957V10.835H25.8604V9.80957H29.7705ZM26.127 6.60352V14H24.8623V6.60352H26.127ZM30.7959 6.60352V14H29.5244V6.60352H30.7959ZM39.2656 13.0977C39.5664 13.0977 39.8444 13.0361 40.0996 12.9131C40.3548 12.79 40.5645 12.6214 40.7285 12.4072C40.8926 12.1885 40.986 11.9401 41.0088 11.6621H42.2119C42.1891 12.0996 42.041 12.5075 41.7676 12.8857C41.4987 13.2594 41.1455 13.5625 40.708 13.7949C40.2705 14.0228 39.7897 14.1367 39.2656 14.1367C38.7096 14.1367 38.2243 14.0387 37.8096 13.8428C37.3994 13.6468 37.0576 13.3779 36.7842 13.0361C36.5153 12.6943 36.3125 12.3024 36.1758 11.8604C36.0436 11.4137 35.9775 10.9421 35.9775 10.4453V10.1582C35.9775 9.66146 36.0436 9.19206 36.1758 8.75C36.3125 8.30339 36.5153 7.90918 36.7842 7.56738C37.0576 7.22559 37.3994 6.95671 37.8096 6.76074C38.2243 6.56478 38.7096 6.4668 39.2656 6.4668C39.8444 6.4668 40.3503 6.58529 40.7832 6.82227C41.2161 7.05469 41.5557 7.3737 41.8018 7.7793C42.0524 8.18034 42.1891 8.63607 42.2119 9.14648H41.0088C40.986 8.84115 40.8994 8.56543 40.749 8.31934C40.6032 8.07324 40.4027 7.87728 40.1475 7.73145C39.8968 7.58105 39.6029 7.50586 39.2656 7.50586C38.8783 7.50586 38.5524 7.58333 38.2881 7.73828C38.0283 7.88867 37.821 8.09375 37.666 8.35352C37.5156 8.60872 37.4062 8.89355 37.3379 9.20801C37.2741 9.5179 37.2422 9.83464 37.2422 10.1582V10.4453C37.2422 10.7689 37.2741 11.0879 37.3379 11.4023C37.4017 11.7168 37.5088 12.0016 37.6592 12.2568C37.8141 12.512 38.0215 12.7171 38.2812 12.8721C38.5456 13.0225 38.8737 13.0977 39.2656 13.0977ZM47.9951 12.7354V8.92773C47.9951 8.63607 47.9359 8.38314 47.8174 8.16895C47.7035 7.9502 47.5303 7.78158 47.2979 7.66309C47.0654 7.5446 46.7783 7.48535 46.4365 7.48535C46.1175 7.48535 45.8372 7.54004 45.5957 7.64941C45.3587 7.75879 45.1719 7.90234 45.0352 8.08008C44.903 8.25781 44.8369 8.44922 44.8369 8.6543H43.5723C43.5723 8.38997 43.6406 8.12793 43.7773 7.86816C43.9141 7.6084 44.11 7.3737 44.3652 7.16406C44.625 6.94987 44.9349 6.78125 45.2949 6.6582C45.6595 6.5306 46.0651 6.4668 46.5117 6.4668C47.0495 6.4668 47.5234 6.55794 47.9336 6.74023C48.3483 6.92253 48.6719 7.19824 48.9043 7.56738C49.1413 7.93197 49.2598 8.38997 49.2598 8.94141V12.3867C49.2598 12.6328 49.2803 12.8949 49.3213 13.1729C49.3669 13.4508 49.4329 13.6901 49.5195 13.8906V14H48.2002C48.1364 13.8542 48.0863 13.6605 48.0498 13.4189C48.0133 13.1729 47.9951 12.945 47.9951 12.7354ZM48.2139 9.51562L48.2275 10.4043H46.9492C46.5892 10.4043 46.2679 10.4339 45.9854 10.4932C45.7028 10.5479 45.4658 10.6322 45.2744 10.7461C45.083 10.86 44.9372 11.0036 44.8369 11.1768C44.7367 11.3454 44.6865 11.5436 44.6865 11.7715C44.6865 12.0039 44.7389 12.2158 44.8438 12.4072C44.9486 12.5986 45.1058 12.7513 45.3154 12.8652C45.5296 12.9746 45.7917 13.0293 46.1016 13.0293C46.4889 13.0293 46.8307 12.9473 47.127 12.7832C47.4232 12.6191 47.6579 12.4186 47.8311 12.1816C48.0088 11.9447 48.1045 11.7145 48.1182 11.4912L48.6582 12.0996C48.6263 12.291 48.5397 12.5029 48.3984 12.7354C48.2572 12.9678 48.068 13.1911 47.8311 13.4053C47.5986 13.6149 47.3206 13.7904 46.9971 13.9316C46.6781 14.0684 46.318 14.1367 45.917 14.1367C45.4157 14.1367 44.9759 14.0387 44.5977 13.8428C44.224 13.6468 43.9323 13.3848 43.7227 13.0566C43.5176 12.724 43.415 12.3525 43.415 11.9424C43.415 11.5459 43.4925 11.1973 43.6475 10.8965C43.8024 10.5911 44.0257 10.3382 44.3174 10.1377C44.609 9.93262 44.96 9.77767 45.3701 9.67285C45.7803 9.56803 46.2383 9.51562 46.7441 9.51562H48.2139ZM56.2666 9.80957V10.835H52.3564V9.80957H56.2666ZM52.623 6.60352V14H51.3584V6.60352H52.623ZM57.292 6.60352V14H56.0205V6.60352H57.292ZM62.3438 6.60352V14H61.0723V6.60352H62.3438ZM64.8252 6.60352V7.62891H58.6387V6.60352H64.8252ZM68.5918 14.1367C68.0768 14.1367 67.6097 14.0501 67.1904 13.877C66.7757 13.6992 66.418 13.4508 66.1172 13.1318C65.821 12.8128 65.5931 12.4346 65.4336 11.9971C65.2741 11.5596 65.1943 11.0811 65.1943 10.5615V10.2744C65.1943 9.67285 65.2832 9.13737 65.4609 8.66797C65.6387 8.19401 65.8802 7.79297 66.1855 7.46484C66.4909 7.13672 66.8372 6.88835 67.2246 6.71973C67.612 6.55111 68.013 6.4668 68.4277 6.4668C68.9564 6.4668 69.4121 6.55794 69.7949 6.74023C70.1823 6.92253 70.499 7.17773 70.7451 7.50586C70.9912 7.82943 71.1735 8.21224 71.292 8.6543C71.4105 9.0918 71.4697 9.57031 71.4697 10.0898V10.6572H65.9463V9.625H70.2051V9.5293C70.1868 9.20117 70.1185 8.88216 70 8.57227C69.8861 8.26237 69.7038 8.00716 69.4531 7.80664C69.2025 7.60612 68.8607 7.50586 68.4277 7.50586C68.1406 7.50586 67.8763 7.56738 67.6348 7.69043C67.3932 7.80892 67.1859 7.98665 67.0127 8.22363C66.8395 8.46061 66.7051 8.75 66.6094 9.0918C66.5137 9.43359 66.4658 9.8278 66.4658 10.2744V10.5615C66.4658 10.9124 66.5137 11.2428 66.6094 11.5527C66.7096 11.8581 66.8532 12.127 67.04 12.3594C67.2314 12.5918 67.4616 12.7741 67.7305 12.9062C68.0039 13.0384 68.3138 13.1045 68.6602 13.1045C69.1068 13.1045 69.485 13.0133 69.7949 12.8311C70.1048 12.6488 70.376 12.4049 70.6084 12.0996L71.374 12.708C71.2145 12.9495 71.0117 13.1797 70.7656 13.3984C70.5195 13.6172 70.2165 13.7949 69.8564 13.9316C69.501 14.0684 69.0794 14.1367 68.5918 14.1367ZM73.8008 6.60352L75.4209 9.29688L77.0615 6.60352H78.5449L76.125 10.2539L78.6201 14H77.1572L75.4482 11.2246L73.7393 14H72.2695L74.7578 10.2539L72.3447 6.60352H73.8008ZM84.9092 9.80957V10.835H80.999V9.80957H84.9092ZM81.2656 6.60352V14H80.001V6.60352H81.2656ZM85.9346 6.60352V14H84.6631V6.60352H85.9346ZM89.3389 11.9971L92.75 6.60352H94.0215V14H92.75V8.60645L89.3389 14H88.0811V6.60352H89.3389V11.9971ZM101.63 6.60352V14H100.365V6.60352H101.63ZM101.199 10.001V11.04C100.944 11.1357 100.684 11.2223 100.42 11.2998C100.16 11.3727 99.8844 11.432 99.5928 11.4775C99.3057 11.5186 98.9935 11.5391 98.6562 11.5391C98.0729 11.5391 97.5671 11.4388 97.1387 11.2383C96.7103 11.0332 96.3799 10.7256 96.1475 10.3154C95.915 9.90072 95.7988 9.37891 95.7988 8.75V6.58984H97.0635V8.75C97.0635 9.16016 97.125 9.49284 97.248 9.74805C97.3711 10.0033 97.5511 10.1924 97.7881 10.3154C98.0251 10.4339 98.3145 10.4932 98.6562 10.4932C98.9844 10.4932 99.292 10.4727 99.5791 10.4316C99.8708 10.3861 100.149 10.3268 100.413 10.2539C100.682 10.181 100.944 10.0967 101.199 10.001ZM106.736 14.1367C106.221 14.1367 105.754 14.0501 105.335 13.877C104.92 13.6992 104.562 13.4508 104.262 13.1318C103.965 12.8128 103.738 12.4346 103.578 11.9971C103.419 11.5596 103.339 11.0811 103.339 10.5615V10.2744C103.339 9.67285 103.428 9.13737 103.605 8.66797C103.783 8.19401 104.025 7.79297 104.33 7.46484C104.635 7.13672 104.982 6.88835 105.369 6.71973C105.757 6.55111 106.158 6.4668 106.572 6.4668C107.101 6.4668 107.557 6.55794 107.939 6.74023C108.327 6.92253 108.644 7.17773 108.89 7.50586C109.136 7.82943 109.318 8.21224 109.437 8.6543C109.555 9.0918 109.614 9.57031 109.614 10.0898V10.6572H104.091V9.625H108.35V9.5293C108.331 9.20117 108.263 8.88216 108.145 8.57227C108.031 8.26237 107.848 8.00716 107.598 7.80664C107.347 7.60612 107.005 7.50586 106.572 7.50586C106.285 7.50586 106.021 7.56738 105.779 7.69043C105.538 7.80892 105.33 7.98665 105.157 8.22363C104.984 8.46061 104.85 8.75 104.754 9.0918C104.658 9.43359 104.61 9.8278 104.61 10.2744V10.5615C104.61 10.9124 104.658 11.2428 104.754 11.5527C104.854 11.8581 104.998 12.127 105.185 12.3594C105.376 12.5918 105.606 12.7741 105.875 12.9062C106.148 13.0384 106.458 13.1045 106.805 13.1045C107.251 13.1045 107.63 13.0133 107.939 12.8311C108.249 12.6488 108.521 12.4049 108.753 12.0996L109.519 12.708C109.359 12.9495 109.156 13.1797 108.91 13.3984C108.664 13.6172 108.361 13.7949 108.001 13.9316C107.646 14.0684 107.224 14.1367 106.736 14.1367ZM114.051 13.0977C114.352 13.0977 114.63 13.0361 114.885 12.9131C115.14 12.79 115.35 12.6214 115.514 12.4072C115.678 12.1885 115.771 11.9401 115.794 11.6621H116.997C116.974 12.0996 116.826 12.5075 116.553 12.8857C116.284 13.2594 115.931 13.5625 115.493 13.7949C115.056 14.0228 114.575 14.1367 114.051 14.1367C113.495 14.1367 113.009 14.0387 112.595 13.8428C112.185 13.6468 111.843 13.3779 111.569 13.0361C111.3 12.6943 111.098 12.3024 110.961 11.8604C110.829 11.4137 110.763 10.9421 110.763 10.4453V10.1582C110.763 9.66146 110.829 9.19206 110.961 8.75C111.098 8.30339 111.3 7.90918 111.569 7.56738C111.843 7.22559 112.185 6.95671 112.595 6.76074C113.009 6.56478 113.495 6.4668 114.051 6.4668C114.63 6.4668 115.135 6.58529 115.568 6.82227C116.001 7.05469 116.341 7.3737 116.587 7.7793C116.838 8.18034 116.974 8.63607 116.997 9.14648H115.794C115.771 8.84115 115.685 8.56543 115.534 8.31934C115.388 8.07324 115.188 7.87728 114.933 7.73145C114.682 7.58105 114.388 7.50586 114.051 7.50586C113.663 7.50586 113.338 7.58333 113.073 7.73828C112.813 7.88867 112.606 8.09375 112.451 8.35352C112.301 8.60872 112.191 8.89355 112.123 9.20801C112.059 9.5179 112.027 9.83464 112.027 10.1582V10.4453C112.027 10.7689 112.059 11.0879 112.123 11.4023C112.187 11.7168 112.294 12.0016 112.444 12.2568C112.599 12.512 112.807 12.7171 113.066 12.8721C113.331 13.0225 113.659 13.0977 114.051 13.0977ZM119.793 6.60352V14H118.528V6.60352H119.793ZM124.646 6.60352L121.14 10.8418H119.369L119.178 9.73438H120.627L123.108 6.60352H124.646ZM123.286 14L120.565 10.6504L121.379 9.73438L124.893 14H123.286ZM125.508 10.3838V10.2266C125.508 9.69336 125.585 9.19889 125.74 8.74316C125.895 8.28288 126.118 7.88411 126.41 7.54688C126.702 7.20508 127.055 6.94076 127.47 6.75391C127.884 6.5625 128.349 6.4668 128.864 6.4668C129.384 6.4668 129.851 6.5625 130.266 6.75391C130.685 6.94076 131.04 7.20508 131.332 7.54688C131.628 7.88411 131.854 8.28288 132.009 8.74316C132.164 9.19889 132.241 9.69336 132.241 10.2266V10.3838C132.241 10.917 132.164 11.4115 132.009 11.8672C131.854 12.3229 131.628 12.7217 131.332 13.0635C131.04 13.4007 130.687 13.665 130.272 13.8564C129.862 14.0433 129.397 14.1367 128.878 14.1367C128.358 14.1367 127.891 14.0433 127.477 13.8564C127.062 13.665 126.706 13.4007 126.41 13.0635C126.118 12.7217 125.895 12.3229 125.74 11.8672C125.585 11.4115 125.508 10.917 125.508 10.3838ZM126.772 10.2266V10.3838C126.772 10.7529 126.816 11.1016 126.902 11.4297C126.989 11.7533 127.119 12.0404 127.292 12.291C127.47 12.5417 127.691 12.7399 127.955 12.8857C128.219 13.027 128.527 13.0977 128.878 13.0977C129.224 13.0977 129.527 13.027 129.787 12.8857C130.051 12.7399 130.27 12.5417 130.443 12.291C130.617 12.0404 130.746 11.7533 130.833 11.4297C130.924 11.1016 130.97 10.7529 130.97 10.3838V10.2266C130.97 9.86198 130.924 9.5179 130.833 9.19434C130.746 8.86621 130.614 8.57682 130.437 8.32617C130.263 8.07096 130.045 7.87044 129.78 7.72461C129.521 7.57878 129.215 7.50586 128.864 7.50586C128.518 7.50586 128.213 7.57878 127.948 7.72461C127.688 7.87044 127.47 8.07096 127.292 8.32617C127.119 8.57682 126.989 8.86621 126.902 9.19434C126.816 9.5179 126.772 9.86198 126.772 10.2266ZM138.605 6.60352V7.64941H135.188V14H133.923V6.60352H138.605ZM139.234 10.3838V10.2266C139.234 9.69336 139.312 9.19889 139.467 8.74316C139.622 8.28288 139.845 7.88411 140.137 7.54688C140.428 7.20508 140.782 6.94076 141.196 6.75391C141.611 6.5625 142.076 6.4668 142.591 6.4668C143.11 6.4668 143.577 6.5625 143.992 6.75391C144.411 6.94076 144.767 7.20508 145.059 7.54688C145.355 7.88411 145.58 8.28288 145.735 8.74316C145.89 9.19889 145.968 9.69336 145.968 10.2266V10.3838C145.968 10.917 145.89 11.4115 145.735 11.8672C145.58 12.3229 145.355 12.7217 145.059 13.0635C144.767 13.4007 144.414 13.665 143.999 13.8564C143.589 14.0433 143.124 14.1367 142.604 14.1367C142.085 14.1367 141.618 14.0433 141.203 13.8564C140.788 13.665 140.433 13.4007 140.137 13.0635C139.845 12.7217 139.622 12.3229 139.467 11.8672C139.312 11.4115 139.234 10.917 139.234 10.3838ZM140.499 10.2266V10.3838C140.499 10.7529 140.542 11.1016 140.629 11.4297C140.715 11.7533 140.845 12.0404 141.019 12.291C141.196 12.5417 141.417 12.7399 141.682 12.8857C141.946 13.027 142.254 13.0977 142.604 13.0977C142.951 13.0977 143.254 13.027 143.514 12.8857C143.778 12.7399 143.997 12.5417 144.17 12.291C144.343 12.0404 144.473 11.7533 144.56 11.4297C144.651 11.1016 144.696 10.7529 144.696 10.3838V10.2266C144.696 9.86198 144.651 9.5179 144.56 9.19434C144.473 8.86621 144.341 8.57682 144.163 8.32617C143.99 8.07096 143.771 7.87044 143.507 7.72461C143.247 7.57878 142.942 7.50586 142.591 7.50586C142.244 7.50586 141.939 7.57878 141.675 7.72461C141.415 7.87044 141.196 8.07096 141.019 8.32617C140.845 8.57682 140.715 8.86621 140.629 9.19434C140.542 9.5179 140.499 9.86198 140.499 10.2266ZM150.691 10.3838V10.2266C150.691 9.69336 150.769 9.19889 150.924 8.74316C151.079 8.28288 151.302 7.88411 151.594 7.54688C151.885 7.20508 152.239 6.94076 152.653 6.75391C153.068 6.5625 153.533 6.4668 154.048 6.4668C154.567 6.4668 155.035 6.5625 155.449 6.75391C155.868 6.94076 156.224 7.20508 156.516 7.54688C156.812 7.88411 157.037 8.28288 157.192 8.74316C157.347 9.19889 157.425 9.69336 157.425 10.2266V10.3838C157.425 10.917 157.347 11.4115 157.192 11.8672C157.037 12.3229 156.812 12.7217 156.516 13.0635C156.224 13.4007 155.871 13.665 155.456 13.8564C155.046 14.0433 154.581 14.1367 154.062 14.1367C153.542 14.1367 153.075 14.0433 152.66 13.8564C152.245 13.665 151.89 13.4007 151.594 13.0635C151.302 12.7217 151.079 12.3229 150.924 11.8672C150.769 11.4115 150.691 10.917 150.691 10.3838ZM151.956 10.2266V10.3838C151.956 10.7529 151.999 11.1016 152.086 11.4297C152.173 11.7533 152.302 12.0404 152.476 12.291C152.653 12.5417 152.874 12.7399 153.139 12.8857C153.403 13.027 153.711 13.0977 154.062 13.0977C154.408 13.0977 154.711 13.027 154.971 12.8857C155.235 12.7399 155.454 12.5417 155.627 12.291C155.8 12.0404 155.93 11.7533 156.017 11.4297C156.108 11.1016 156.153 10.7529 156.153 10.3838V10.2266C156.153 9.86198 156.108 9.5179 156.017 9.19434C155.93 8.86621 155.798 8.57682 155.62 8.32617C155.447 8.07096 155.228 7.87044 154.964 7.72461C154.704 7.57878 154.399 7.50586 154.048 7.50586C153.701 7.50586 153.396 7.57878 153.132 7.72461C152.872 7.87044 152.653 8.07096 152.476 8.32617C152.302 8.57682 152.173 8.86621 152.086 9.19434C151.999 9.5179 151.956 9.86198 151.956 10.2266ZM163.755 3.38379H164.794C164.794 3.8304 164.726 4.18587 164.589 4.4502C164.452 4.70996 164.265 4.91048 164.028 5.05176C163.796 5.19303 163.532 5.30013 163.235 5.37305C162.944 5.44596 162.641 5.5166 162.326 5.58496C161.934 5.66699 161.57 5.79688 161.232 5.97461C160.9 6.14779 160.613 6.39388 160.371 6.71289C160.134 7.0319 159.959 7.44661 159.845 7.95703C159.735 8.46745 159.706 9.09863 159.756 9.85059V10.4795H158.717V9.85059C158.717 9.00749 158.797 8.27148 158.956 7.64258C159.12 7.01367 159.35 6.48275 159.646 6.0498C159.943 5.61686 160.294 5.27279 160.699 5.01758C161.109 4.76237 161.561 4.58691 162.053 4.49121C162.408 4.42285 162.714 4.34993 162.969 4.27246C163.224 4.19043 163.418 4.08105 163.55 3.94434C163.687 3.80762 163.755 3.62077 163.755 3.38379ZM162.258 7.02734C162.741 7.02734 163.172 7.11165 163.55 7.28027C163.928 7.44889 164.249 7.68359 164.514 7.98438C164.778 8.28516 164.979 8.64062 165.115 9.05078C165.257 9.45638 165.327 9.89844 165.327 10.377V10.5273C165.327 11.0423 165.252 11.5208 165.102 11.9629C164.956 12.4004 164.739 12.7832 164.452 13.1113C164.17 13.4349 163.823 13.6878 163.413 13.8701C163.007 14.0524 162.545 14.1436 162.025 14.1436C161.506 14.1436 161.041 14.0524 160.631 13.8701C160.225 13.6878 159.879 13.4349 159.592 13.1113C159.305 12.7832 159.086 12.4004 158.936 11.9629C158.79 11.5208 158.717 11.0423 158.717 10.5273V10.377C158.717 10.263 158.737 10.1514 158.778 10.042C158.819 9.93262 158.869 9.82096 158.929 9.70703C158.993 9.5931 159.049 9.47233 159.1 9.34473C159.268 8.93457 159.498 8.55404 159.79 8.20312C160.086 7.85221 160.439 7.56966 160.85 7.35547C161.264 7.13672 161.734 7.02734 162.258 7.02734ZM162.012 8.05957C161.547 8.05957 161.164 8.16667 160.863 8.38086C160.567 8.59505 160.346 8.87988 160.2 9.23535C160.054 9.58626 159.981 9.9668 159.981 10.377V10.5273C159.981 10.8737 160.022 11.2018 160.104 11.5117C160.187 11.8216 160.31 12.0973 160.474 12.3389C160.642 12.5758 160.854 12.7627 161.109 12.8994C161.369 13.0361 161.674 13.1045 162.025 13.1045C162.376 13.1045 162.679 13.0361 162.935 12.8994C163.19 12.7627 163.399 12.5758 163.563 12.3389C163.728 12.0973 163.851 11.8216 163.933 11.5117C164.015 11.2018 164.056 10.8737 164.056 10.5273V10.377C164.056 10.0671 164.015 9.77311 163.933 9.49512C163.851 9.21712 163.725 8.97103 163.557 8.75684C163.393 8.54264 163.181 8.37402 162.921 8.25098C162.666 8.12337 162.363 8.05957 162.012 8.05957ZM166.428 10.3838V10.2266C166.428 9.69336 166.505 9.19889 166.66 8.74316C166.815 8.28288 167.038 7.88411 167.33 7.54688C167.622 7.20508 167.975 6.94076 168.39 6.75391C168.804 6.5625 169.269 6.4668 169.784 6.4668C170.304 6.4668 170.771 6.5625 171.186 6.75391C171.605 6.94076 171.96 7.20508 172.252 7.54688C172.548 7.88411 172.774 8.28288 172.929 8.74316C173.084 9.19889 173.161 9.69336 173.161 10.2266V10.3838C173.161 10.917 173.084 11.4115 172.929 11.8672C172.774 12.3229 172.548 12.7217 172.252 13.0635C171.96 13.4007 171.607 13.665 171.192 13.8564C170.782 14.0433 170.317 14.1367 169.798 14.1367C169.278 14.1367 168.811 14.0433 168.396 13.8564C167.982 13.665 167.626 13.4007 167.33 13.0635C167.038 12.7217 166.815 12.3229 166.66 11.8672C166.505 11.4115 166.428 10.917 166.428 10.3838ZM167.692 10.2266V10.3838C167.692 10.7529 167.736 11.1016 167.822 11.4297C167.909 11.7533 168.039 12.0404 168.212 12.291C168.39 12.5417 168.611 12.7399 168.875 12.8857C169.139 13.027 169.447 13.0977 169.798 13.0977C170.144 13.0977 170.447 13.027 170.707 12.8857C170.971 12.7399 171.19 12.5417 171.363 12.291C171.536 12.0404 171.666 11.7533 171.753 11.4297C171.844 11.1016 171.89 10.7529 171.89 10.3838V10.2266C171.89 9.86198 171.844 9.5179 171.753 9.19434C171.666 8.86621 171.534 8.57682 171.356 8.32617C171.183 8.07096 170.965 7.87044 170.7 7.72461C170.44 7.57878 170.135 7.50586 169.784 7.50586C169.438 7.50586 169.132 7.57878 168.868 7.72461C168.608 7.87044 168.39 8.07096 168.212 8.32617C168.039 8.57682 167.909 8.86621 167.822 9.19434C167.736 9.5179 167.692 9.86198 167.692 10.2266ZM176.012 8.02539V16.8438H174.74V6.60352H175.902L176.012 8.02539ZM180.995 10.2402V10.3838C180.995 10.9215 180.931 11.4206 180.804 11.8809C180.676 12.3366 180.489 12.7331 180.243 13.0703C180.002 13.4076 179.703 13.6696 179.348 13.8564C178.992 14.0433 178.584 14.1367 178.124 14.1367C177.655 14.1367 177.24 14.0592 176.88 13.9043C176.52 13.7493 176.215 13.5238 175.964 13.2275C175.713 12.9313 175.513 12.5758 175.362 12.1611C175.216 11.7464 175.116 11.2793 175.062 10.7598V9.99414C175.116 9.44727 175.219 8.95736 175.369 8.52441C175.52 8.09147 175.718 7.72233 175.964 7.41699C176.215 7.1071 176.518 6.8724 176.873 6.71289C177.229 6.54883 177.639 6.4668 178.104 6.4668C178.568 6.4668 178.981 6.55794 179.341 6.74023C179.701 6.91797 180.004 7.17318 180.25 7.50586C180.496 7.83854 180.681 8.2373 180.804 8.70215C180.931 9.16243 180.995 9.67513 180.995 10.2402ZM179.724 10.3838V10.2402C179.724 9.87109 179.685 9.52474 179.607 9.20117C179.53 8.87305 179.409 8.58594 179.245 8.33984C179.086 8.08919 178.881 7.89323 178.63 7.75195C178.379 7.60612 178.081 7.5332 177.734 7.5332C177.415 7.5332 177.137 7.58789 176.9 7.69727C176.668 7.80664 176.47 7.95475 176.306 8.1416C176.142 8.32389 176.007 8.53353 175.902 8.77051C175.802 9.00293 175.727 9.24447 175.677 9.49512V11.2656C175.768 11.5846 175.896 11.8854 176.06 12.168C176.224 12.446 176.442 12.6715 176.716 12.8447C176.989 13.0133 177.333 13.0977 177.748 13.0977C178.09 13.0977 178.384 13.027 178.63 12.8857C178.881 12.7399 179.086 12.5417 179.245 12.291C179.409 12.0404 179.53 11.7533 179.607 11.4297C179.685 11.1016 179.724 10.7529 179.724 10.3838ZM184.604 13.2344L186.662 6.60352H188.016L185.049 15.1416C184.98 15.3239 184.889 15.5199 184.775 15.7295C184.666 15.9437 184.525 16.1465 184.352 16.3379C184.178 16.5293 183.969 16.6842 183.723 16.8027C183.481 16.9258 183.192 16.9873 182.854 16.9873C182.754 16.9873 182.627 16.9736 182.472 16.9463C182.317 16.9189 182.207 16.8962 182.144 16.8779L182.137 15.8525C182.173 15.8571 182.23 15.8617 182.308 15.8662C182.39 15.8753 182.447 15.8799 182.479 15.8799C182.766 15.8799 183.009 15.8411 183.21 15.7637C183.41 15.6908 183.579 15.5654 183.716 15.3877C183.857 15.2145 183.978 14.9753 184.078 14.6699L184.604 13.2344ZM183.094 6.60352L185.015 12.3457L185.343 13.6787L184.434 14.1436L181.713 6.60352H183.094ZM190.107 6.60352H191.372L191.263 9.37207C191.235 10.0739 191.156 10.68 191.023 11.1904C190.891 11.7008 190.723 12.1361 190.518 12.4961C190.312 12.8516 190.082 13.1501 189.827 13.3916C189.576 13.6331 189.317 13.8359 189.048 14H188.419L188.453 12.9678L188.713 12.9609C188.863 12.7832 189.009 12.6009 189.15 12.4141C189.292 12.2227 189.422 11.9971 189.54 11.7373C189.659 11.473 189.757 11.1517 189.834 10.7734C189.916 10.3906 189.968 9.9235 189.991 9.37207L190.107 6.60352ZM190.422 6.60352H194.872V14H193.607V7.77246H190.422V6.60352ZM188.132 12.9609H195.822V16.1807H194.558V14H189.396V16.1807H188.125L188.132 12.9609ZM196.889 10.3838V10.2266C196.889 9.69336 196.966 9.19889 197.121 8.74316C197.276 8.28288 197.499 7.88411 197.791 7.54688C198.083 7.20508 198.436 6.94076 198.851 6.75391C199.265 6.5625 199.73 6.4668 200.245 6.4668C200.765 6.4668 201.232 6.5625 201.646 6.75391C202.066 6.94076 202.421 7.20508 202.713 7.54688C203.009 7.88411 203.235 8.28288 203.39 8.74316C203.545 9.19889 203.622 9.69336 203.622 10.2266V10.3838C203.622 10.917 203.545 11.4115 203.39 11.8672C203.235 12.3229 203.009 12.7217 202.713 13.0635C202.421 13.4007 202.068 13.665 201.653 13.8564C201.243 14.0433 200.778 14.1367 200.259 14.1367C199.739 14.1367 199.272 14.0433 198.857 13.8564C198.443 13.665 198.087 13.4007 197.791 13.0635C197.499 12.7217 197.276 12.3229 197.121 11.8672C196.966 11.4115 196.889 10.917 196.889 10.3838ZM198.153 10.2266V10.3838C198.153 10.7529 198.197 11.1016 198.283 11.4297C198.37 11.7533 198.5 12.0404 198.673 12.291C198.851 12.5417 199.072 12.7399 199.336 12.8857C199.6 13.027 199.908 13.0977 200.259 13.0977C200.605 13.0977 200.908 13.027 201.168 12.8857C201.432 12.7399 201.651 12.5417 201.824 12.291C201.997 12.0404 202.127 11.7533 202.214 11.4297C202.305 11.1016 202.351 10.7529 202.351 10.3838V10.2266C202.351 9.86198 202.305 9.5179 202.214 9.19434C202.127 8.86621 201.995 8.57682 201.817 8.32617C201.644 8.07096 201.425 7.87044 201.161 7.72461C200.901 7.57878 200.596 7.50586 200.245 7.50586C199.899 7.50586 199.593 7.57878 199.329 7.72461C199.069 7.87044 198.851 8.07096 198.673 8.32617C198.5 8.57682 198.37 8.86621 198.283 9.19434C198.197 9.5179 198.153 9.86198 198.153 10.2266ZM208.681 10.7461H206.254L206.24 9.73438H208.223C208.615 9.73438 208.94 9.69564 209.2 9.61816C209.465 9.54069 209.663 9.42448 209.795 9.26953C209.927 9.11458 209.993 8.92318 209.993 8.69531C209.993 8.51758 209.954 8.36263 209.877 8.23047C209.804 8.09375 209.692 7.9821 209.542 7.89551C209.392 7.80436 209.205 7.73828 208.981 7.69727C208.763 7.65169 208.505 7.62891 208.209 7.62891H206.589V14H205.324V6.60352H208.209C208.678 6.60352 209.1 6.64453 209.474 6.72656C209.852 6.80859 210.173 6.93392 210.438 7.10254C210.706 7.2666 210.911 7.47624 211.053 7.73145C211.194 7.98665 211.265 8.28743 211.265 8.63379C211.265 8.8571 211.219 9.06901 211.128 9.26953C211.037 9.47005 210.902 9.64779 210.725 9.80273C210.547 9.95768 210.328 10.0853 210.068 10.1855C209.809 10.2812 209.51 10.3428 209.173 10.3701L208.681 10.7461ZM208.681 14H205.796L206.425 12.9746H208.681C209.032 12.9746 209.323 12.9313 209.556 12.8447C209.788 12.7536 209.961 12.626 210.075 12.4619C210.194 12.2933 210.253 12.0928 210.253 11.8604C210.253 11.6279 210.194 11.4297 210.075 11.2656C209.961 11.097 209.788 10.9694 209.556 10.8828C209.323 10.7917 209.032 10.7461 208.681 10.7461H206.76L206.773 9.73438H209.173L209.631 10.1172C210.036 10.1491 210.381 10.2493 210.663 10.418C210.946 10.5866 211.16 10.8008 211.306 11.0605C211.451 11.3158 211.524 11.5938 211.524 11.8945C211.524 12.2409 211.458 12.5462 211.326 12.8105C211.199 13.0749 211.012 13.2959 210.766 13.4736C210.52 13.6468 210.221 13.779 209.87 13.8701C209.519 13.9567 209.123 14 208.681 14ZM217.581 12.7354V8.92773C217.581 8.63607 217.522 8.38314 217.403 8.16895C217.289 7.9502 217.116 7.78158 216.884 7.66309C216.651 7.5446 216.364 7.48535 216.022 7.48535C215.703 7.48535 215.423 7.54004 215.182 7.64941C214.945 7.75879 214.758 7.90234 214.621 8.08008C214.489 8.25781 214.423 8.44922 214.423 8.6543H213.158C213.158 8.38997 213.227 8.12793 213.363 7.86816C213.5 7.6084 213.696 7.3737 213.951 7.16406C214.211 6.94987 214.521 6.78125 214.881 6.6582C215.245 6.5306 215.651 6.4668 216.098 6.4668C216.635 6.4668 217.109 6.55794 217.52 6.74023C217.934 6.92253 218.258 7.19824 218.49 7.56738C218.727 7.93197 218.846 8.38997 218.846 8.94141V12.3867C218.846 12.6328 218.866 12.8949 218.907 13.1729C218.953 13.4508 219.019 13.6901 219.105 13.8906V14H217.786C217.722 13.8542 217.672 13.6605 217.636 13.4189C217.599 13.1729 217.581 12.945 217.581 12.7354ZM217.8 9.51562L217.813 10.4043H216.535C216.175 10.4043 215.854 10.4339 215.571 10.4932C215.289 10.5479 215.052 10.6322 214.86 10.7461C214.669 10.86 214.523 11.0036 214.423 11.1768C214.323 11.3454 214.272 11.5436 214.272 11.7715C214.272 12.0039 214.325 12.2158 214.43 12.4072C214.535 12.5986 214.692 12.7513 214.901 12.8652C215.116 12.9746 215.378 13.0293 215.688 13.0293C216.075 13.0293 216.417 12.9473 216.713 12.7832C217.009 12.6191 217.244 12.4186 217.417 12.1816C217.595 11.9447 217.69 11.7145 217.704 11.4912L218.244 12.0996C218.212 12.291 218.126 12.5029 217.984 12.7354C217.843 12.9678 217.654 13.1911 217.417 13.4053C217.185 13.6149 216.907 13.7904 216.583 13.9316C216.264 14.0684 215.904 14.1367 215.503 14.1367C215.002 14.1367 214.562 14.0387 214.184 13.8428C213.81 13.6468 213.518 13.3848 213.309 13.0566C213.104 12.724 213.001 12.3525 213.001 11.9424C213.001 11.5459 213.078 11.1973 213.233 10.8965C213.388 10.5911 213.612 10.3382 213.903 10.1377C214.195 9.93262 214.546 9.77767 214.956 9.67285C215.366 9.56803 215.824 9.51562 216.33 9.51562H217.8ZM225.853 9.80957V10.835H221.942V9.80957H225.853ZM222.209 6.60352V14H220.944V6.60352H222.209ZM226.878 6.60352V14H225.606V6.60352H226.878ZM230.282 11.9971L233.693 6.60352H234.965V14H233.693V8.60645L230.282 14H229.024V6.60352H230.282V11.9971ZM238.492 10.4727H239.859L237.72 14H236.353L238.492 10.4727ZM239.552 6.60352H242.642V14H241.377V7.62891H239.552C239.192 7.62891 238.898 7.69043 238.67 7.81348C238.442 7.93197 238.276 8.08691 238.171 8.27832C238.066 8.46973 238.014 8.66797 238.014 8.87305C238.014 9.07357 238.062 9.26725 238.157 9.4541C238.253 9.63639 238.403 9.78678 238.608 9.90527C238.813 10.0238 239.078 10.083 239.401 10.083H241.719V11.1221H239.401C238.978 11.1221 238.602 11.0651 238.273 10.9512C237.945 10.8372 237.667 10.68 237.439 10.4795C237.212 10.2744 237.038 10.0352 236.92 9.76172C236.801 9.48372 236.742 9.18294 236.742 8.85938C236.742 8.53581 236.804 8.2373 236.927 7.96387C237.054 7.69043 237.237 7.45117 237.474 7.24609C237.715 7.04102 238.009 6.88379 238.355 6.77441C238.706 6.66048 239.105 6.60352 239.552 6.60352ZM244.467 7.29395C244.467 7.07975 244.533 6.89974 244.665 6.75391C244.802 6.60352 244.998 6.52832 245.253 6.52832C245.508 6.52832 245.702 6.60352 245.834 6.75391C245.971 6.89974 246.039 7.07975 246.039 7.29395C246.039 7.50358 245.971 7.68132 245.834 7.82715C245.702 7.97298 245.508 8.0459 245.253 8.0459C244.998 8.0459 244.802 7.97298 244.665 7.82715C244.533 7.68132 244.467 7.50358 244.467 7.29395ZM245.909 12.4961V13.5146C245.909 13.9294 245.804 14.3669 245.595 14.8271C245.385 15.292 245.091 15.6794 244.713 15.9893L243.995 15.4902C244.141 15.2897 244.264 15.0846 244.364 14.875C244.465 14.6699 244.54 14.4557 244.59 14.2324C244.645 14.0137 244.672 13.7812 244.672 13.5352V12.4961H245.909Z" fill="#303030" fill-opacity="0.9"/>
</svg>
