<svg width="237" height="36" viewBox="0 0 237 36" fill="none" xmlns="http://www.w3.org/2000/svg">
<path d="M5.89258 6.60352V7.64941H2.15332V6.60352H5.89258ZM2.33789 6.60352V14H1.07324V6.60352H2.33789ZM7.01367 6.60352V14H5.74219V6.60352H7.01367ZM10.3086 8.02539V16.8438H9.03711V6.60352H10.1992L10.3086 8.02539ZM15.292 10.2402V10.3838C15.292 10.9215 15.2282 11.4206 15.1006 11.8809C14.973 12.3366 14.7861 12.7331 14.54 13.0703C14.2985 13.4076 14 13.6696 13.6445 13.8564C13.2891 14.0433 12.8812 14.1367 12.4209 14.1367C11.9515 14.1367 11.5368 14.0592 11.1768 13.9043C10.8167 13.7493 10.5114 13.5238 10.2607 13.2275C10.0101 12.9313 9.80957 12.5758 9.65918 12.1611C9.51335 11.7464 9.41309 11.2793 9.3584 10.7598V9.99414C9.41309 9.44727 9.51562 8.95736 9.66602 8.52441C9.81641 8.09147 10.0146 7.72233 10.2607 7.41699C10.5114 7.1071 10.8145 6.8724 11.1699 6.71289C11.5254 6.54883 11.9355 6.4668 12.4004 6.4668C12.8652 6.4668 13.2777 6.55794 13.6377 6.74023C13.9977 6.91797 14.3008 7.17318 14.5469 7.50586C14.793 7.83854 14.9775 8.2373 15.1006 8.70215C15.2282 9.16243 15.292 9.67513 15.292 10.2402ZM14.0205 10.3838V10.2402C14.0205 9.87109 13.9818 9.52474 13.9043 9.20117C13.8268 8.87305 13.7061 8.58594 13.542 8.33984C13.3825 8.08919 13.1774 7.89323 12.9268 7.75195C12.6761 7.60612 12.3776 7.5332 12.0312 7.5332C11.7122 7.5332 11.4342 7.58789 11.1973 7.69727C10.9648 7.80664 10.7666 7.95475 10.6025 8.1416C10.4385 8.32389 10.304 8.53353 10.1992 8.77051C10.099 9.00293 10.0238 9.24447 9.97363 9.49512V11.2656C10.0648 11.5846 10.1924 11.8854 10.3564 12.168C10.5205 12.446 10.7393 12.6715 11.0127 12.8447C11.2861 13.0133 11.6302 13.0977 12.0449 13.0977C12.3867 13.0977 12.6807 13.027 12.9268 12.8857C13.1774 12.7399 13.3825 12.5417 13.542 12.291C13.7061 12.0404 13.8268 11.7533 13.9043 11.4297C13.9818 11.1016 14.0205 10.7529 14.0205 10.3838ZM16.5703 10.3838V10.2266C16.5703 9.69336 16.6478 9.19889 16.8027 8.74316C16.9577 8.28288 17.181 7.88411 17.4727 7.54688C17.7643 7.20508 18.1175 6.94076 18.5322 6.75391C18.9469 6.5625 19.4118 6.4668 19.9268 6.4668C20.4463 6.4668 20.9134 6.5625 21.3281 6.75391C21.7474 6.94076 22.1029 7.20508 22.3945 7.54688C22.6908 7.88411 22.9163 8.28288 23.0713 8.74316C23.2262 9.19889 23.3037 9.69336 23.3037 10.2266V10.3838C23.3037 10.917 23.2262 11.4115 23.0713 11.8672C22.9163 12.3229 22.6908 12.7217 22.3945 13.0635C22.1029 13.4007 21.7497 13.665 21.335 13.8564C20.9248 14.0433 20.46 14.1367 19.9404 14.1367C19.4209 14.1367 18.9538 14.0433 18.5391 13.8564C18.1243 13.665 17.7689 13.4007 17.4727 13.0635C17.181 12.7217 16.9577 12.3229 16.8027 11.8672C16.6478 11.4115 16.5703 10.917 16.5703 10.3838ZM17.835 10.2266V10.3838C17.835 10.7529 17.8783 11.1016 17.9648 11.4297C18.0514 11.7533 18.1813 12.0404 18.3545 12.291C18.5322 12.5417 18.7533 12.7399 19.0176 12.8857C19.2819 13.027 19.5895 13.0977 19.9404 13.0977C20.2868 13.0977 20.5898 13.027 20.8496 12.8857C21.1139 12.7399 21.3327 12.5417 21.5059 12.291C21.679 12.0404 21.8089 11.7533 21.8955 11.4297C21.9867 11.1016 22.0322 10.7529 22.0322 10.3838V10.2266C22.0322 9.86198 21.9867 9.5179 21.8955 9.19434C21.8089 8.86621 21.6768 8.57682 21.499 8.32617C21.3258 8.07096 21.1071 7.87044 20.8428 7.72461C20.583 7.57878 20.2777 7.50586 19.9268 7.50586C19.5804 7.50586 19.2751 7.57878 19.0107 7.72461C18.751 7.87044 18.5322 8.07096 18.3545 8.32617C18.1813 8.57682 18.0514 8.86621 17.9648 9.19434C17.8783 9.5179 17.835 9.86198 17.835 10.2266ZM26.1543 8.02539V16.8438H24.8828V6.60352H26.0449L26.1543 8.02539ZM31.1377 10.2402V10.3838C31.1377 10.9215 31.0739 11.4206 30.9463 11.8809C30.8187 12.3366 30.6318 12.7331 30.3857 13.0703C30.1442 13.4076 29.8457 13.6696 29.4902 13.8564C29.1348 14.0433 28.7269 14.1367 28.2666 14.1367C27.7972 14.1367 27.3825 14.0592 27.0225 13.9043C26.6624 13.7493 26.3571 13.5238 26.1064 13.2275C25.8558 12.9313 25.6553 12.5758 25.5049 12.1611C25.359 11.7464 25.2588 11.2793 25.2041 10.7598V9.99414C25.2588 9.44727 25.3613 8.95736 25.5117 8.52441C25.6621 8.09147 25.8604 7.72233 26.1064 7.41699C26.3571 7.1071 26.6602 6.8724 27.0156 6.71289C27.3711 6.54883 27.7812 6.4668 28.2461 6.4668C28.7109 6.4668 29.1234 6.55794 29.4834 6.74023C29.8434 6.91797 30.1465 7.17318 30.3926 7.50586C30.6387 7.83854 30.8232 8.2373 30.9463 8.70215C31.0739 9.16243 31.1377 9.67513 31.1377 10.2402ZM29.8662 10.3838V10.2402C29.8662 9.87109 29.8275 9.52474 29.75 9.20117C29.6725 8.87305 29.5518 8.58594 29.3877 8.33984C29.2282 8.08919 29.0231 7.89323 28.7725 7.75195C28.5218 7.60612 28.2233 7.5332 27.877 7.5332C27.5579 7.5332 27.2799 7.58789 27.043 7.69727C26.8105 7.80664 26.6123 7.95475 26.4482 8.1416C26.2842 8.32389 26.1497 8.53353 26.0449 8.77051C25.9447 9.00293 25.8695 9.24447 25.8193 9.49512V11.2656C25.9105 11.5846 26.0381 11.8854 26.2021 12.168C26.3662 12.446 26.585 12.6715 26.8584 12.8447C27.1318 13.0133 27.4759 13.0977 27.8906 13.0977C28.2324 13.0977 28.5264 13.027 28.7725 12.8857C29.0231 12.7399 29.2282 12.5417 29.3877 12.291C29.5518 12.0404 29.6725 11.7533 29.75 11.4297C29.8275 11.1016 29.8662 10.7529 29.8662 10.3838ZM37.1123 12.7354V8.92773C37.1123 8.63607 37.0531 8.38314 36.9346 8.16895C36.8206 7.9502 36.6475 7.78158 36.415 7.66309C36.1826 7.5446 35.8955 7.48535 35.5537 7.48535C35.2347 7.48535 34.9544 7.54004 34.7129 7.64941C34.4759 7.75879 34.2891 7.90234 34.1523 8.08008C34.0202 8.25781 33.9541 8.44922 33.9541 8.6543H32.6895C32.6895 8.38997 32.7578 8.12793 32.8945 7.86816C33.0312 7.6084 33.2272 7.3737 33.4824 7.16406C33.7422 6.94987 34.0521 6.78125 34.4121 6.6582C34.7767 6.5306 35.1823 6.4668 35.6289 6.4668C36.1667 6.4668 36.6406 6.55794 37.0508 6.74023C37.4655 6.92253 37.7891 7.19824 38.0215 7.56738C38.2585 7.93197 38.377 8.38997 38.377 8.94141V12.3867C38.377 12.6328 38.3975 12.8949 38.4385 13.1729C38.484 13.4508 38.5501 13.6901 38.6367 13.8906V14H37.3174C37.2536 13.8542 37.2035 13.6605 37.167 13.4189C37.1305 13.1729 37.1123 12.945 37.1123 12.7354ZM37.3311 9.51562L37.3447 10.4043H36.0664C35.7064 10.4043 35.3851 10.4339 35.1025 10.4932C34.82 10.5479 34.583 10.6322 34.3916 10.7461C34.2002 10.86 34.0544 11.0036 33.9541 11.1768C33.8538 11.3454 33.8037 11.5436 33.8037 11.7715C33.8037 12.0039 33.8561 12.2158 33.9609 12.4072C34.0658 12.5986 34.223 12.7513 34.4326 12.8652C34.6468 12.9746 34.9089 13.0293 35.2188 13.0293C35.6061 13.0293 35.9479 12.9473 36.2441 12.7832C36.5404 12.6191 36.7751 12.4186 36.9482 12.1816C37.126 11.9447 37.2217 11.7145 37.2354 11.4912L37.7754 12.0996C37.7435 12.291 37.6569 12.5029 37.5156 12.7354C37.3743 12.9678 37.1852 13.1911 36.9482 13.4053C36.7158 13.6149 36.4378 13.7904 36.1143 13.9316C35.7952 14.0684 35.4352 14.1367 35.0342 14.1367C34.5329 14.1367 34.0931 14.0387 33.7148 13.8428C33.3411 13.6468 33.0495 13.3848 32.8398 13.0566C32.6348 12.724 32.5322 12.3525 32.5322 11.9424C32.5322 11.5459 32.6097 11.1973 32.7646 10.8965C32.9196 10.5911 33.1429 10.3382 33.4346 10.1377C33.7262 9.93262 34.0771 9.77767 34.4873 9.67285C34.8975 9.56803 35.3555 9.51562 35.8613 9.51562H37.3311ZM45.1104 3.38379H46.1494C46.1494 3.8304 46.0811 4.18587 45.9443 4.4502C45.8076 4.70996 45.6208 4.91048 45.3838 5.05176C45.1514 5.19303 44.887 5.30013 44.5908 5.37305C44.2992 5.44596 43.9961 5.5166 43.6816 5.58496C43.2897 5.66699 42.9251 5.79688 42.5879 5.97461C42.2552 6.14779 41.9681 6.39388 41.7266 6.71289C41.4896 7.0319 41.3141 7.44661 41.2002 7.95703C41.0908 8.46745 41.0612 9.09863 41.1113 9.85059V10.4795H40.0723V9.85059C40.0723 9.00749 40.152 8.27148 40.3115 7.64258C40.4756 7.01367 40.7057 6.48275 41.002 6.0498C41.2982 5.61686 41.6491 5.27279 42.0547 5.01758C42.4648 4.76237 42.916 4.58691 43.4082 4.49121C43.7637 4.42285 44.069 4.34993 44.3242 4.27246C44.5794 4.19043 44.7731 4.08105 44.9053 3.94434C45.042 3.80762 45.1104 3.62077 45.1104 3.38379ZM43.6133 7.02734C44.0964 7.02734 44.527 7.11165 44.9053 7.28027C45.2835 7.44889 45.6048 7.68359 45.8691 7.98438C46.1335 8.28516 46.334 8.64062 46.4707 9.05078C46.612 9.45638 46.6826 9.89844 46.6826 10.377V10.5273C46.6826 11.0423 46.6074 11.5208 46.457 11.9629C46.3112 12.4004 46.0947 12.7832 45.8076 13.1113C45.5251 13.4349 45.1787 13.6878 44.7686 13.8701C44.363 14.0524 43.9004 14.1436 43.3809 14.1436C42.8613 14.1436 42.3965 14.0524 41.9863 13.8701C41.5807 13.6878 41.2344 13.4349 40.9473 13.1113C40.6602 12.7832 40.4414 12.4004 40.291 11.9629C40.1452 11.5208 40.0723 11.0423 40.0723 10.5273V10.377C40.0723 10.263 40.0928 10.1514 40.1338 10.042C40.1748 9.93262 40.2249 9.82096 40.2842 9.70703C40.348 9.5931 40.4049 9.47233 40.4551 9.34473C40.6237 8.93457 40.8538 8.55404 41.1455 8.20312C41.4417 7.85221 41.7949 7.56966 42.2051 7.35547C42.6198 7.13672 43.0892 7.02734 43.6133 7.02734ZM43.3672 8.05957C42.9023 8.05957 42.5195 8.16667 42.2188 8.38086C41.9225 8.59505 41.7015 8.87988 41.5557 9.23535C41.4098 9.58626 41.3369 9.9668 41.3369 10.377V10.5273C41.3369 10.8737 41.3779 11.2018 41.46 11.5117C41.542 11.8216 41.665 12.0973 41.8291 12.3389C41.9977 12.5758 42.2096 12.7627 42.4648 12.8994C42.7246 13.0361 43.0299 13.1045 43.3809 13.1045C43.7318 13.1045 44.0348 13.0361 44.29 12.8994C44.5452 12.7627 44.7549 12.5758 44.9189 12.3389C45.083 12.0973 45.2061 11.8216 45.2881 11.5117C45.3701 11.2018 45.4111 10.8737 45.4111 10.5273V10.377C45.4111 10.0671 45.3701 9.77311 45.2881 9.49512C45.2061 9.21712 45.0807 8.97103 44.9121 8.75684C44.748 8.54264 44.5361 8.37402 44.2764 8.25098C44.0212 8.12337 43.7181 8.05957 43.3672 8.05957ZM47.7832 10.3838V10.2266C47.7832 9.69336 47.8607 9.19889 48.0156 8.74316C48.1706 8.28288 48.3939 7.88411 48.6855 7.54688C48.9772 7.20508 49.3304 6.94076 49.7451 6.75391C50.1598 6.5625 50.6247 6.4668 51.1396 6.4668C51.6592 6.4668 52.1263 6.5625 52.541 6.75391C52.9603 6.94076 53.3158 7.20508 53.6074 7.54688C53.9036 7.88411 54.1292 8.28288 54.2842 8.74316C54.4391 9.19889 54.5166 9.69336 54.5166 10.2266V10.3838C54.5166 10.917 54.4391 11.4115 54.2842 11.8672C54.1292 12.3229 53.9036 12.7217 53.6074 13.0635C53.3158 13.4007 52.9626 13.665 52.5479 13.8564C52.1377 14.0433 51.6729 14.1367 51.1533 14.1367C50.6338 14.1367 50.1667 14.0433 49.752 13.8564C49.3372 13.665 48.9818 13.4007 48.6855 13.0635C48.3939 12.7217 48.1706 12.3229 48.0156 11.8672C47.8607 11.4115 47.7832 10.917 47.7832 10.3838ZM49.0479 10.2266V10.3838C49.0479 10.7529 49.0911 11.1016 49.1777 11.4297C49.2643 11.7533 49.3942 12.0404 49.5674 12.291C49.7451 12.5417 49.9661 12.7399 50.2305 12.8857C50.4948 13.027 50.8024 13.0977 51.1533 13.0977C51.4997 13.0977 51.8027 13.027 52.0625 12.8857C52.3268 12.7399 52.5456 12.5417 52.7188 12.291C52.8919 12.0404 53.0218 11.7533 53.1084 11.4297C53.1995 11.1016 53.2451 10.7529 53.2451 10.3838V10.2266C53.2451 9.86198 53.1995 9.5179 53.1084 9.19434C53.0218 8.86621 52.8896 8.57682 52.7119 8.32617C52.5387 8.07096 52.32 7.87044 52.0557 7.72461C51.7959 7.57878 51.4906 7.50586 51.1396 7.50586C50.7933 7.50586 50.488 7.57878 50.2236 7.72461C49.9639 7.87044 49.7451 8.07096 49.5674 8.32617C49.3942 8.57682 49.2643 8.86621 49.1777 9.19434C49.0911 9.5179 49.0479 9.86198 49.0479 10.2266ZM58.9668 6.60352V14H57.6953V6.60352H58.9668ZM61.4482 6.60352V7.62891H55.2617V6.60352H61.4482ZM64.0664 6.60352V14H62.8018V6.60352H64.0664ZM68.9199 6.60352L65.4131 10.8418H63.6426L63.4512 9.73438H64.9004L67.3818 6.60352H68.9199ZM67.5596 14L64.8389 10.6504L65.6523 9.73438L69.166 14H67.5596ZM74.6279 12.7354V8.92773C74.6279 8.63607 74.5687 8.38314 74.4502 8.16895C74.3363 7.9502 74.1631 7.78158 73.9307 7.66309C73.6982 7.5446 73.4111 7.48535 73.0693 7.48535C72.7503 7.48535 72.4701 7.54004 72.2285 7.64941C71.9915 7.75879 71.8047 7.90234 71.668 8.08008C71.5358 8.25781 71.4697 8.44922 71.4697 8.6543H70.2051C70.2051 8.38997 70.2734 8.12793 70.4102 7.86816C70.5469 7.6084 70.7428 7.3737 70.998 7.16406C71.2578 6.94987 71.5677 6.78125 71.9277 6.6582C72.2923 6.5306 72.6979 6.4668 73.1445 6.4668C73.6823 6.4668 74.1562 6.55794 74.5664 6.74023C74.9811 6.92253 75.3047 7.19824 75.5371 7.56738C75.7741 7.93197 75.8926 8.38997 75.8926 8.94141V12.3867C75.8926 12.6328 75.9131 12.8949 75.9541 13.1729C75.9997 13.4508 76.0658 13.6901 76.1523 13.8906V14H74.833C74.7692 13.8542 74.7191 13.6605 74.6826 13.4189C74.6462 13.1729 74.6279 12.945 74.6279 12.7354ZM74.8467 9.51562L74.8604 10.4043H73.582C73.222 10.4043 72.9007 10.4339 72.6182 10.4932C72.3356 10.5479 72.0986 10.6322 71.9072 10.7461C71.7158 10.86 71.57 11.0036 71.4697 11.1768C71.3695 11.3454 71.3193 11.5436 71.3193 11.7715C71.3193 12.0039 71.3717 12.2158 71.4766 12.4072C71.5814 12.5986 71.7386 12.7513 71.9482 12.8652C72.1624 12.9746 72.4245 13.0293 72.7344 13.0293C73.1217 13.0293 73.4635 12.9473 73.7598 12.7832C74.056 12.6191 74.2907 12.4186 74.4639 12.1816C74.6416 11.9447 74.7373 11.7145 74.751 11.4912L75.291 12.0996C75.2591 12.291 75.1725 12.5029 75.0312 12.7354C74.89 12.9678 74.7008 13.1911 74.4639 13.4053C74.2314 13.6149 73.9535 13.7904 73.6299 13.9316C73.3109 14.0684 72.9508 14.1367 72.5498 14.1367C72.0485 14.1367 71.6087 14.0387 71.2305 13.8428C70.8568 13.6468 70.5651 13.3848 70.3555 13.0566C70.1504 12.724 70.0479 12.3525 70.0479 11.9424C70.0479 11.5459 70.1253 11.1973 70.2803 10.8965C70.4352 10.5911 70.6585 10.3382 70.9502 10.1377C71.2419 9.93262 71.5928 9.77767 72.0029 9.67285C72.4131 9.56803 72.8711 9.51562 73.377 9.51562H74.8467ZM83.4326 13.2344L85.4902 6.60352H86.8438L83.877 15.1416C83.8086 15.3239 83.7174 15.5199 83.6035 15.7295C83.4941 15.9437 83.3529 16.1465 83.1797 16.3379C83.0065 16.5293 82.7969 16.6842 82.5508 16.8027C82.3092 16.9258 82.0199 16.9873 81.6826 16.9873C81.5824 16.9873 81.4548 16.9736 81.2998 16.9463C81.1449 16.9189 81.0355 16.8962 80.9717 16.8779L80.9648 15.8525C81.0013 15.8571 81.0583 15.8617 81.1357 15.8662C81.2178 15.8753 81.2747 15.8799 81.3066 15.8799C81.5938 15.8799 81.8376 15.8411 82.0381 15.7637C82.2386 15.6908 82.4072 15.5654 82.5439 15.3877C82.6852 15.2145 82.806 14.9753 82.9062 14.6699L83.4326 13.2344ZM81.9219 6.60352L83.8428 12.3457L84.1709 13.6787L83.2617 14.1436L80.541 6.60352H81.9219ZM90.7471 10.4658H89.3867V9.68652H90.6445C90.9954 9.68652 91.2734 9.64323 91.4785 9.55664C91.6836 9.46549 91.8294 9.34017 91.916 9.18066C92.0026 9.02116 92.0459 8.83431 92.0459 8.62012C92.0459 8.42871 91.9958 8.2487 91.8955 8.08008C91.7998 7.9069 91.6449 7.7679 91.4307 7.66309C91.2165 7.55371 90.9294 7.49902 90.5693 7.49902C90.2777 7.49902 90.0133 7.55143 89.7764 7.65625C89.5394 7.75651 89.3503 7.89551 89.209 8.07324C89.0723 8.24642 89.0039 8.44238 89.0039 8.66113H87.7393C87.7393 8.20996 87.8669 7.82259 88.1221 7.49902C88.3818 7.1709 88.7259 6.91797 89.1543 6.74023C89.5872 6.5625 90.0589 6.47363 90.5693 6.47363C90.9977 6.47363 91.3805 6.52148 91.7178 6.61719C92.0596 6.70833 92.349 6.84505 92.5859 7.02734C92.8229 7.20508 93.0029 7.42839 93.126 7.69727C93.2536 7.96159 93.3174 8.26921 93.3174 8.62012C93.3174 8.87077 93.2581 9.10775 93.1396 9.33105C93.0212 9.55436 92.8503 9.7526 92.627 9.92578C92.4036 10.0944 92.1325 10.2266 91.8135 10.3223C91.499 10.418 91.1436 10.4658 90.7471 10.4658ZM89.3867 9.9873H90.7471C91.1891 9.9873 91.5788 10.0306 91.916 10.1172C92.2533 10.1992 92.5358 10.3223 92.7637 10.4863C92.9915 10.6504 93.1624 10.8532 93.2764 11.0947C93.3949 11.3317 93.4541 11.6051 93.4541 11.915C93.4541 12.2614 93.3835 12.5736 93.2422 12.8516C93.1055 13.125 92.9095 13.3574 92.6543 13.5488C92.3991 13.7402 92.0938 13.8861 91.7383 13.9863C91.3874 14.0866 90.9977 14.1367 90.5693 14.1367C90.0908 14.1367 89.626 14.0547 89.1748 13.8906C88.7236 13.7266 88.3522 13.4736 88.0605 13.1318C87.7689 12.7855 87.623 12.3457 87.623 11.8125H88.8877C88.8877 12.0358 88.9583 12.2477 89.0996 12.4482C89.2409 12.6488 89.4368 12.8105 89.6875 12.9336C89.9427 13.0566 90.2367 13.1182 90.5693 13.1182C90.9248 13.1182 91.221 13.0635 91.458 12.9541C91.695 12.8447 91.8727 12.6989 91.9912 12.5166C92.1143 12.3343 92.1758 12.1361 92.1758 11.9219C92.1758 11.6439 92.1211 11.4206 92.0117 11.252C91.9023 11.0833 91.7337 10.9603 91.5059 10.8828C91.2826 10.8008 90.9954 10.7598 90.6445 10.7598H89.3867V9.9873ZM100.037 6.60352V7.64941H96.4619V6.60352H100.037ZM101.151 6.60352V14H99.8867V6.60352H101.151ZM96.1543 6.60352H97.4258L97.2344 10.1719C97.2025 10.7233 97.1501 11.2109 97.0771 11.6348C97.0088 12.054 96.9131 12.4141 96.79 12.7148C96.6715 13.0156 96.5212 13.2617 96.3389 13.4531C96.1611 13.64 95.9469 13.779 95.6963 13.8701C95.4456 13.9567 95.1562 14 94.8281 14H94.4316V12.8857L94.7051 12.8652C94.901 12.8516 95.0674 12.806 95.2041 12.7285C95.3454 12.651 95.4639 12.5371 95.5596 12.3867C95.6553 12.2318 95.7327 12.0335 95.792 11.792C95.8558 11.5505 95.9036 11.2633 95.9355 10.9307C95.972 10.598 95.9993 10.2106 96.0176 9.76855L96.1543 6.60352ZM102.854 10.3838V10.2266C102.854 9.69336 102.931 9.19889 103.086 8.74316C103.241 8.28288 103.464 7.88411 103.756 7.54688C104.048 7.20508 104.401 6.94076 104.815 6.75391C105.23 6.5625 105.695 6.4668 106.21 6.4668C106.729 6.4668 107.197 6.5625 107.611 6.75391C108.031 6.94076 108.386 7.20508 108.678 7.54688C108.974 7.88411 109.2 8.28288 109.354 8.74316C109.509 9.19889 109.587 9.69336 109.587 10.2266V10.3838C109.587 10.917 109.509 11.4115 109.354 11.8672C109.2 12.3229 108.974 12.7217 108.678 13.0635C108.386 13.4007 108.033 13.665 107.618 13.8564C107.208 14.0433 106.743 14.1367 106.224 14.1367C105.704 14.1367 105.237 14.0433 104.822 13.8564C104.408 13.665 104.052 13.4007 103.756 13.0635C103.464 12.7217 103.241 12.3229 103.086 11.8672C102.931 11.4115 102.854 10.917 102.854 10.3838ZM104.118 10.2266V10.3838C104.118 10.7529 104.161 11.1016 104.248 11.4297C104.335 11.7533 104.465 12.0404 104.638 12.291C104.815 12.5417 105.036 12.7399 105.301 12.8857C105.565 13.027 105.873 13.0977 106.224 13.0977C106.57 13.0977 106.873 13.027 107.133 12.8857C107.397 12.7399 107.616 12.5417 107.789 12.291C107.962 12.0404 108.092 11.7533 108.179 11.4297C108.27 11.1016 108.315 10.7529 108.315 10.3838V10.2266C108.315 9.86198 108.27 9.5179 108.179 9.19434C108.092 8.86621 107.96 8.57682 107.782 8.32617C107.609 8.07096 107.39 7.87044 107.126 7.72461C106.866 7.57878 106.561 7.50586 106.21 7.50586C105.864 7.50586 105.558 7.57878 105.294 7.72461C105.034 7.87044 104.815 8.07096 104.638 8.32617C104.465 8.57682 104.335 8.86621 104.248 9.19434C104.161 9.5179 104.118 9.86198 104.118 10.2266ZM114.646 10.7461H112.219L112.205 9.73438H114.188C114.579 9.73438 114.905 9.69564 115.165 9.61816C115.429 9.54069 115.628 9.42448 115.76 9.26953C115.892 9.11458 115.958 8.92318 115.958 8.69531C115.958 8.51758 115.919 8.36263 115.842 8.23047C115.769 8.09375 115.657 7.9821 115.507 7.89551C115.356 7.80436 115.17 7.73828 114.946 7.69727C114.728 7.65169 114.47 7.62891 114.174 7.62891H112.554V14H111.289V6.60352H114.174C114.643 6.60352 115.065 6.64453 115.438 6.72656C115.817 6.80859 116.138 6.93392 116.402 7.10254C116.671 7.2666 116.876 7.47624 117.018 7.73145C117.159 7.98665 117.229 8.28743 117.229 8.63379C117.229 8.8571 117.184 9.06901 117.093 9.26953C117.002 9.47005 116.867 9.64779 116.689 9.80273C116.512 9.95768 116.293 10.0853 116.033 10.1855C115.773 10.2812 115.475 10.3428 115.138 10.3701L114.646 10.7461ZM114.646 14H111.761L112.39 12.9746H114.646C114.996 12.9746 115.288 12.9313 115.521 12.8447C115.753 12.7536 115.926 12.626 116.04 12.4619C116.159 12.2933 116.218 12.0928 116.218 11.8604C116.218 11.6279 116.159 11.4297 116.04 11.2656C115.926 11.097 115.753 10.9694 115.521 10.8828C115.288 10.7917 114.996 10.7461 114.646 10.7461H112.725L112.738 9.73438H115.138L115.596 10.1172C116.001 10.1491 116.345 10.2493 116.628 10.418C116.91 10.5866 117.125 10.8008 117.271 11.0605C117.416 11.3158 117.489 11.5938 117.489 11.8945C117.489 12.2409 117.423 12.5462 117.291 12.8105C117.163 13.0749 116.977 13.2959 116.73 13.4736C116.484 13.6468 116.186 13.779 115.835 13.8701C115.484 13.9567 115.088 14 114.646 14ZM127.675 9.80957V10.835H123.765V9.80957H127.675ZM124.031 6.60352V14H122.767V6.60352H124.031ZM128.7 6.60352V14H127.429V6.60352H128.7ZM133.807 14.1367C133.292 14.1367 132.825 14.0501 132.405 13.877C131.991 13.6992 131.633 13.4508 131.332 13.1318C131.036 12.8128 130.808 12.4346 130.648 11.9971C130.489 11.5596 130.409 11.0811 130.409 10.5615V10.2744C130.409 9.67285 130.498 9.13737 130.676 8.66797C130.854 8.19401 131.095 7.79297 131.4 7.46484C131.706 7.13672 132.052 6.88835 132.439 6.71973C132.827 6.55111 133.228 6.4668 133.643 6.4668C134.171 6.4668 134.627 6.55794 135.01 6.74023C135.397 6.92253 135.714 7.17773 135.96 7.50586C136.206 7.82943 136.388 8.21224 136.507 8.6543C136.625 9.0918 136.685 9.57031 136.685 10.0898V10.6572H131.161V9.625H135.42V9.5293C135.402 9.20117 135.333 8.88216 135.215 8.57227C135.101 8.26237 134.919 8.00716 134.668 7.80664C134.417 7.60612 134.076 7.50586 133.643 7.50586C133.355 7.50586 133.091 7.56738 132.85 7.69043C132.608 7.80892 132.401 7.98665 132.228 8.22363C132.054 8.46061 131.92 8.75 131.824 9.0918C131.729 9.43359 131.681 9.8278 131.681 10.2744V10.5615C131.681 10.9124 131.729 11.2428 131.824 11.5527C131.924 11.8581 132.068 12.127 132.255 12.3594C132.446 12.5918 132.676 12.7741 132.945 12.9062C133.219 13.0384 133.529 13.1045 133.875 13.1045C134.322 13.1045 134.7 13.0133 135.01 12.8311C135.32 12.6488 135.591 12.4049 135.823 12.0996L136.589 12.708C136.429 12.9495 136.227 13.1797 135.98 13.3984C135.734 13.6172 135.431 13.7949 135.071 13.9316C134.716 14.0684 134.294 14.1367 133.807 14.1367ZM141.094 6.60352V14H139.822V6.60352H141.094ZM143.575 6.60352V7.62891H137.389V6.60352H143.575ZM146.187 11.9971L149.598 6.60352H150.869V14H149.598V8.60645L146.187 14H144.929V6.60352H146.187V11.9971ZM157.828 6.60352V7.64941H154.089V6.60352H157.828ZM154.273 6.60352V14H153.009V6.60352H154.273ZM158.949 6.60352V14H157.678V6.60352H158.949ZM160.645 10.3838V10.2266C160.645 9.69336 160.722 9.19889 160.877 8.74316C161.032 8.28288 161.255 7.88411 161.547 7.54688C161.839 7.20508 162.192 6.94076 162.606 6.75391C163.021 6.5625 163.486 6.4668 164.001 6.4668C164.521 6.4668 164.988 6.5625 165.402 6.75391C165.822 6.94076 166.177 7.20508 166.469 7.54688C166.765 7.88411 166.991 8.28288 167.146 8.74316C167.3 9.19889 167.378 9.69336 167.378 10.2266V10.3838C167.378 10.917 167.3 11.4115 167.146 11.8672C166.991 12.3229 166.765 12.7217 166.469 13.0635C166.177 13.4007 165.824 13.665 165.409 13.8564C164.999 14.0433 164.534 14.1367 164.015 14.1367C163.495 14.1367 163.028 14.0433 162.613 13.8564C162.199 13.665 161.843 13.4007 161.547 13.0635C161.255 12.7217 161.032 12.3229 160.877 11.8672C160.722 11.4115 160.645 10.917 160.645 10.3838ZM161.909 10.2266V10.3838C161.909 10.7529 161.952 11.1016 162.039 11.4297C162.126 11.7533 162.256 12.0404 162.429 12.291C162.606 12.5417 162.827 12.7399 163.092 12.8857C163.356 13.027 163.664 13.0977 164.015 13.0977C164.361 13.0977 164.664 13.027 164.924 12.8857C165.188 12.7399 165.407 12.5417 165.58 12.291C165.753 12.0404 165.883 11.7533 165.97 11.4297C166.061 11.1016 166.106 10.7529 166.106 10.3838V10.2266C166.106 9.86198 166.061 9.5179 165.97 9.19434C165.883 8.86621 165.751 8.57682 165.573 8.32617C165.4 8.07096 165.181 7.87044 164.917 7.72461C164.657 7.57878 164.352 7.50586 164.001 7.50586C163.655 7.50586 163.349 7.57878 163.085 7.72461C162.825 7.87044 162.606 8.07096 162.429 8.32617C162.256 8.57682 162.126 8.86621 162.039 9.19434C161.952 9.5179 161.909 9.86198 161.909 10.2266ZM172.437 10.7461H170.01L169.996 9.73438H171.979C172.37 9.73438 172.696 9.69564 172.956 9.61816C173.22 9.54069 173.419 9.42448 173.551 9.26953C173.683 9.11458 173.749 8.92318 173.749 8.69531C173.749 8.51758 173.71 8.36263 173.633 8.23047C173.56 8.09375 173.448 7.9821 173.298 7.89551C173.147 7.80436 172.961 7.73828 172.737 7.69727C172.519 7.65169 172.261 7.62891 171.965 7.62891H170.345V14H169.08V6.60352H171.965C172.434 6.60352 172.856 6.64453 173.229 6.72656C173.608 6.80859 173.929 6.93392 174.193 7.10254C174.462 7.2666 174.667 7.47624 174.809 7.73145C174.95 7.98665 175.021 8.28743 175.021 8.63379C175.021 8.8571 174.975 9.06901 174.884 9.26953C174.793 9.47005 174.658 9.64779 174.48 9.80273C174.303 9.95768 174.084 10.0853 173.824 10.1855C173.564 10.2812 173.266 10.3428 172.929 10.3701L172.437 10.7461ZM172.437 14H169.552L170.181 12.9746H172.437C172.787 12.9746 173.079 12.9313 173.312 12.8447C173.544 12.7536 173.717 12.626 173.831 12.4619C173.95 12.2933 174.009 12.0928 174.009 11.8604C174.009 11.6279 173.95 11.4297 173.831 11.2656C173.717 11.097 173.544 10.9694 173.312 10.8828C173.079 10.7917 172.787 10.7461 172.437 10.7461H170.516L170.529 9.73438H172.929L173.387 10.1172C173.792 10.1491 174.136 10.2493 174.419 10.418C174.701 10.5866 174.916 10.8008 175.062 11.0605C175.207 11.3158 175.28 11.5938 175.28 11.8945C175.28 12.2409 175.214 12.5462 175.082 12.8105C174.954 13.0749 174.768 13.2959 174.521 13.4736C174.275 13.6468 173.977 13.779 173.626 13.8701C173.275 13.9567 172.879 14 172.437 14ZM178.015 9.14648H180.236C180.833 9.14648 181.337 9.2513 181.747 9.46094C182.157 9.66602 182.467 9.95085 182.677 10.3154C182.891 10.6755 182.998 11.0856 182.998 11.5459C182.998 11.8877 182.939 12.209 182.82 12.5098C182.702 12.806 182.524 13.0658 182.287 13.2891C182.055 13.5124 181.765 13.6878 181.419 13.8154C181.077 13.9385 180.683 14 180.236 14H177.092V6.60352H178.356V12.9609H180.236C180.601 12.9609 180.893 12.8949 181.111 12.7627C181.33 12.6305 181.487 12.4596 181.583 12.25C181.679 12.0404 181.727 11.8216 181.727 11.5938C181.727 11.3704 181.679 11.1517 181.583 10.9375C181.487 10.7233 181.33 10.5456 181.111 10.4043C180.893 10.2585 180.601 10.1855 180.236 10.1855H178.015V9.14648ZM185.63 6.60352V14H184.365V6.60352H185.63ZM188.699 6.60352L190.319 9.29688L191.96 6.60352H193.443L191.023 10.2539L193.519 14H192.056L190.347 11.2246L188.638 14H187.168L189.656 10.2539L187.243 6.60352H188.699ZM2.33789 24.6035V32H1.07324V24.6035H2.33789ZM7.19141 24.6035L3.68457 28.8418H1.91406L1.72266 27.7344H3.17188L5.65332 24.6035H7.19141ZM5.83105 32L3.11035 28.6504L3.92383 27.7344L7.4375 32H5.83105ZM8.05273 28.3838V28.2266C8.05273 27.6934 8.13021 27.1989 8.28516 26.7432C8.4401 26.2829 8.66341 25.8841 8.95508 25.5469C9.24674 25.2051 9.59993 24.9408 10.0146 24.7539C10.4294 24.5625 10.8942 24.4668 11.4092 24.4668C11.9287 24.4668 12.3958 24.5625 12.8105 24.7539C13.2298 24.9408 13.5853 25.2051 13.877 25.5469C14.1732 25.8841 14.3988 26.2829 14.5537 26.7432C14.7087 27.1989 14.7861 27.6934 14.7861 28.2266V28.3838C14.7861 28.917 14.7087 29.4115 14.5537 29.8672C14.3988 30.3229 14.1732 30.7217 13.877 31.0635C13.5853 31.4007 13.2321 31.665 12.8174 31.8564C12.4072 32.0433 11.9424 32.1367 11.4229 32.1367C10.9033 32.1367 10.4362 32.0433 10.0215 31.8564C9.60677 31.665 9.2513 31.4007 8.95508 31.0635C8.66341 30.7217 8.4401 30.3229 8.28516 29.8672C8.13021 29.4115 8.05273 28.917 8.05273 28.3838ZM9.31738 28.2266V28.3838C9.31738 28.7529 9.36068 29.1016 9.44727 29.4297C9.53385 29.7533 9.66374 30.0404 9.83691 30.291C10.0146 30.5417 10.2357 30.7399 10.5 30.8857C10.7643 31.027 11.0719 31.0977 11.4229 31.0977C11.7692 31.0977 12.0723 31.027 12.332 30.8857C12.5964 30.7399 12.8151 30.5417 12.9883 30.291C13.1615 30.0404 13.2913 29.7533 13.3779 29.4297C13.4691 29.1016 13.5146 28.7529 13.5146 28.3838V28.2266C13.5146 27.862 13.4691 27.5179 13.3779 27.1943C13.2913 26.8662 13.1592 26.5768 12.9814 26.3262C12.8083 26.071 12.5895 25.8704 12.3252 25.7246C12.0654 25.5788 11.7601 25.5059 11.4092 25.5059C11.0628 25.5059 10.7575 25.5788 10.4932 25.7246C10.2334 25.8704 10.0146 26.071 9.83691 26.3262C9.66374 26.5768 9.53385 26.8662 9.44727 27.1943C9.36068 27.5179 9.31738 27.862 9.31738 28.2266ZM21.3896 27.8096V28.835H17.4795V27.8096H21.3896ZM17.7461 24.6035V32H16.4814V24.6035H17.7461ZM22.415 24.6035V32H21.1436V24.6035H22.415ZM27.4121 31.0977C27.7129 31.0977 27.9909 31.0361 28.2461 30.9131C28.5013 30.79 28.7109 30.6214 28.875 30.4072C29.0391 30.1885 29.1325 29.9401 29.1553 29.6621H30.3584C30.3356 30.0996 30.1875 30.5075 29.9141 30.8857C29.6452 31.2594 29.292 31.5625 28.8545 31.7949C28.417 32.0228 27.9362 32.1367 27.4121 32.1367C26.8561 32.1367 26.3708 32.0387 25.9561 31.8428C25.5459 31.6468 25.2041 31.3779 24.9307 31.0361C24.6618 30.6943 24.459 30.3024 24.3223 29.8604C24.1901 29.4137 24.124 28.9421 24.124 28.4453V28.1582C24.124 27.6615 24.1901 27.1921 24.3223 26.75C24.459 26.3034 24.6618 25.9092 24.9307 25.5674C25.2041 25.2256 25.5459 24.9567 25.9561 24.7607C26.3708 24.5648 26.8561 24.4668 27.4121 24.4668C27.9909 24.4668 28.4967 24.5853 28.9297 24.8223C29.3626 25.0547 29.7021 25.3737 29.9482 25.7793C30.1989 26.1803 30.3356 26.6361 30.3584 27.1465H29.1553C29.1325 26.8411 29.0459 26.5654 28.8955 26.3193C28.7497 26.0732 28.5492 25.8773 28.2939 25.7314C28.0433 25.5811 27.7493 25.5059 27.4121 25.5059C27.0247 25.5059 26.6989 25.5833 26.4346 25.7383C26.1748 25.8887 25.9674 26.0938 25.8125 26.3535C25.6621 26.6087 25.5527 26.8936 25.4844 27.208C25.4206 27.5179 25.3887 27.8346 25.3887 28.1582V28.4453C25.3887 28.7689 25.4206 29.0879 25.4844 29.4023C25.5482 29.7168 25.6553 30.0016 25.8057 30.2568C25.9606 30.512 26.168 30.7171 26.4277 30.8721C26.6921 31.0225 27.0202 31.0977 27.4121 31.0977ZM34.7949 24.6035V32H33.5234V24.6035H34.7949ZM37.2764 24.6035V25.6289H31.0898V24.6035H37.2764ZM39.7852 26.0254V34.8438H38.5137V24.6035H39.6758L39.7852 26.0254ZM44.7686 28.2402V28.3838C44.7686 28.9215 44.7048 29.4206 44.5771 29.8809C44.4495 30.3366 44.2627 30.7331 44.0166 31.0703C43.7751 31.4076 43.4766 31.6696 43.1211 31.8564C42.7656 32.0433 42.3577 32.1367 41.8975 32.1367C41.4281 32.1367 41.0133 32.0592 40.6533 31.9043C40.2933 31.7493 39.988 31.5238 39.7373 31.2275C39.4867 30.9313 39.2861 30.5758 39.1357 30.1611C38.9899 29.7464 38.8896 29.2793 38.835 28.7598V27.9941C38.8896 27.4473 38.9922 26.9574 39.1426 26.5244C39.293 26.0915 39.4912 25.7223 39.7373 25.417C39.988 25.1071 40.291 24.8724 40.6465 24.7129C41.002 24.5488 41.4121 24.4668 41.877 24.4668C42.3418 24.4668 42.7542 24.5579 43.1143 24.7402C43.4743 24.918 43.7773 25.1732 44.0234 25.5059C44.2695 25.8385 44.4541 26.2373 44.5771 26.7021C44.7048 27.1624 44.7686 27.6751 44.7686 28.2402ZM43.4971 28.3838V28.2402C43.4971 27.8711 43.4583 27.5247 43.3809 27.2012C43.3034 26.873 43.1826 26.5859 43.0186 26.3398C42.859 26.0892 42.654 25.8932 42.4033 25.752C42.1527 25.6061 41.8542 25.5332 41.5078 25.5332C41.1888 25.5332 40.9108 25.5879 40.6738 25.6973C40.4414 25.8066 40.2432 25.9548 40.0791 26.1416C39.915 26.3239 39.7806 26.5335 39.6758 26.7705C39.5755 27.0029 39.5003 27.2445 39.4502 27.4951V29.2656C39.5413 29.5846 39.6689 29.8854 39.833 30.168C39.9971 30.446 40.2158 30.6715 40.4893 30.8447C40.7627 31.0133 41.1068 31.0977 41.5215 31.0977C41.8633 31.0977 42.1572 31.027 42.4033 30.8857C42.654 30.7399 42.859 30.5417 43.0186 30.291C43.1826 30.0404 43.3034 29.7533 43.3809 29.4297C43.4583 29.1016 43.4971 28.7529 43.4971 28.3838ZM48.3779 31.2344L50.4355 24.6035H51.7891L48.8223 33.1416C48.7539 33.3239 48.6628 33.5199 48.5488 33.7295C48.4395 33.9437 48.2982 34.1465 48.125 34.3379C47.9518 34.5293 47.7422 34.6842 47.4961 34.8027C47.2546 34.9258 46.9652 34.9873 46.6279 34.9873C46.5277 34.9873 46.4001 34.9736 46.2451 34.9463C46.0902 34.9189 45.9808 34.8962 45.917 34.8779L45.9102 33.8525C45.9466 33.8571 46.0036 33.8617 46.0811 33.8662C46.1631 33.8753 46.2201 33.8799 46.252 33.8799C46.5391 33.8799 46.7829 33.8411 46.9834 33.7637C47.1839 33.6908 47.3525 33.5654 47.4893 33.3877C47.6305 33.2145 47.7513 32.9753 47.8516 32.6699L48.3779 31.2344ZM46.8672 24.6035L48.7881 30.3457L49.1162 31.6787L48.207 32.1436L45.4863 24.6035H46.8672ZM54.3047 24.6035V32H53.04V24.6035H54.3047ZM59.1582 24.6035L55.6514 28.8418H53.8809L53.6895 27.7344H55.1387L57.6201 24.6035H59.1582ZM57.7979 32L55.0771 28.6504L55.8906 27.7344L59.4043 32H57.7979ZM60.6143 32V24.6035H61.8789V30.9609H65.2832V24.6035H66.5547V32H60.6143ZM67.4297 30.9609L67.3066 34.1943H66.1787V32H65.2148V30.9609H67.4297ZM70.1709 29.9971L73.582 24.6035H74.8535V32H73.582V26.6064L70.1709 32H68.9131V24.6035H70.1709V29.9971ZM78.251 29.9971L81.6621 24.6035H82.9336V32H81.6621V26.6064L78.251 32H76.9932V24.6035H78.251V29.9971ZM80.9717 21.9238H81.9971C81.9971 22.2793 81.915 22.596 81.751 22.874C81.5869 23.1475 81.3522 23.3617 81.0469 23.5166C80.7415 23.6715 80.3792 23.749 79.96 23.749C79.3265 23.749 78.8252 23.5804 78.4561 23.2432C78.0915 22.9014 77.9092 22.4616 77.9092 21.9238H78.9346C78.9346 22.1927 79.012 22.4297 79.167 22.6348C79.3219 22.8398 79.5863 22.9424 79.96 22.9424C80.3245 22.9424 80.5843 22.8398 80.7393 22.6348C80.8942 22.4297 80.9717 22.1927 80.9717 21.9238ZM84.752 25.2939C84.752 25.0798 84.818 24.8997 84.9502 24.7539C85.0869 24.6035 85.2829 24.5283 85.5381 24.5283C85.7933 24.5283 85.987 24.6035 86.1191 24.7539C86.2559 24.8997 86.3242 25.0798 86.3242 25.2939C86.3242 25.5036 86.2559 25.6813 86.1191 25.8271C85.987 25.973 85.7933 26.0459 85.5381 26.0459C85.2829 26.0459 85.0869 25.973 84.9502 25.8271C84.818 25.6813 84.752 25.5036 84.752 25.2939ZM86.1943 30.4961V31.5146C86.1943 31.9294 86.0895 32.3669 85.8799 32.8271C85.6702 33.292 85.3763 33.6794 84.998 33.9893L84.2803 33.4902C84.4261 33.2897 84.5492 33.0846 84.6494 32.875C84.7497 32.6699 84.8249 32.4557 84.875 32.2324C84.9297 32.0137 84.957 31.7812 84.957 31.5352V30.4961H86.1943Z" fill="#303030" fill-opacity="0.9"/>
</svg>
