<svg width="283" height="14" viewBox="0 0 283 14" fill="none" xmlns="http://www.w3.org/2000/svg">
<path d="M4.89258 3.60352V4.64941H1.15332V3.60352H4.89258ZM1.33789 3.60352V11H0.0732422V3.60352H1.33789ZM6.01367 3.60352V11H4.74219V3.60352H6.01367ZM9.30859 5.02539V13.8438H8.03711V3.60352H9.19922L9.30859 5.02539ZM14.292 7.24023V7.38379C14.292 7.92155 14.2282 8.42057 14.1006 8.88086C13.973 9.33659 13.7861 9.73307 13.54 10.0703C13.2985 10.4076 13 10.6696 12.6445 10.8564C12.2891 11.0433 11.8812 11.1367 11.4209 11.1367C10.9515 11.1367 10.5368 11.0592 10.1768 10.9043C9.81673 10.7493 9.51139 10.5238 9.26074 10.2275C9.01009 9.93132 8.80957 9.57585 8.65918 9.16113C8.51335 8.74642 8.41309 8.2793 8.3584 7.75977V6.99414C8.41309 6.44727 8.51562 5.95736 8.66602 5.52441C8.81641 5.09147 9.01465 4.72233 9.26074 4.41699C9.51139 4.1071 9.81445 3.8724 10.1699 3.71289C10.5254 3.54883 10.9355 3.4668 11.4004 3.4668C11.8652 3.4668 12.2777 3.55794 12.6377 3.74023C12.9977 3.91797 13.3008 4.17318 13.5469 4.50586C13.793 4.83854 13.9775 5.2373 14.1006 5.70215C14.2282 6.16243 14.292 6.67513 14.292 7.24023ZM13.0205 7.38379V7.24023C13.0205 6.87109 12.9818 6.52474 12.9043 6.20117C12.8268 5.87305 12.7061 5.58594 12.542 5.33984C12.3825 5.08919 12.1774 4.89323 11.9268 4.75195C11.6761 4.60612 11.3776 4.5332 11.0312 4.5332C10.7122 4.5332 10.4342 4.58789 10.1973 4.69727C9.96484 4.80664 9.7666 4.95475 9.60254 5.1416C9.43848 5.32389 9.30404 5.53353 9.19922 5.77051C9.09896 6.00293 9.02376 6.24447 8.97363 6.49512V8.26562C9.06478 8.58464 9.19238 8.88542 9.35645 9.16797C9.52051 9.44596 9.73926 9.67155 10.0127 9.84473C10.2861 10.0133 10.6302 10.0977 11.0449 10.0977C11.3867 10.0977 11.6807 10.027 11.9268 9.88574C12.1774 9.73991 12.3825 9.54167 12.542 9.29102C12.7061 9.04036 12.8268 8.75326 12.9043 8.42969C12.9818 8.10156 13.0205 7.75293 13.0205 7.38379ZM15.5703 7.38379V7.22656C15.5703 6.69336 15.6478 6.19889 15.8027 5.74316C15.9577 5.28288 16.181 4.88411 16.4727 4.54688C16.7643 4.20508 17.1175 3.94076 17.5322 3.75391C17.9469 3.5625 18.4118 3.4668 18.9268 3.4668C19.4463 3.4668 19.9134 3.5625 20.3281 3.75391C20.7474 3.94076 21.1029 4.20508 21.3945 4.54688C21.6908 4.88411 21.9163 5.28288 22.0713 5.74316C22.2262 6.19889 22.3037 6.69336 22.3037 7.22656V7.38379C22.3037 7.91699 22.2262 8.41146 22.0713 8.86719C21.9163 9.32292 21.6908 9.72168 21.3945 10.0635C21.1029 10.4007 20.7497 10.665 20.335 10.8564C19.9248 11.0433 19.46 11.1367 18.9404 11.1367C18.4209 11.1367 17.9538 11.0433 17.5391 10.8564C17.1243 10.665 16.7689 10.4007 16.4727 10.0635C16.181 9.72168 15.9577 9.32292 15.8027 8.86719C15.6478 8.41146 15.5703 7.91699 15.5703 7.38379ZM16.835 7.22656V7.38379C16.835 7.75293 16.8783 8.10156 16.9648 8.42969C17.0514 8.75326 17.1813 9.04036 17.3545 9.29102C17.5322 9.54167 17.7533 9.73991 18.0176 9.88574C18.2819 10.027 18.5895 10.0977 18.9404 10.0977C19.2868 10.0977 19.5898 10.027 19.8496 9.88574C20.1139 9.73991 20.3327 9.54167 20.5059 9.29102C20.679 9.04036 20.8089 8.75326 20.8955 8.42969C20.9867 8.10156 21.0322 7.75293 21.0322 7.38379V7.22656C21.0322 6.86198 20.9867 6.5179 20.8955 6.19434C20.8089 5.86621 20.6768 5.57682 20.499 5.32617C20.3258 5.07096 20.1071 4.87044 19.8428 4.72461C19.583 4.57878 19.2777 4.50586 18.9268 4.50586C18.5804 4.50586 18.2751 4.57878 18.0107 4.72461C17.751 4.87044 17.5322 5.07096 17.3545 5.32617C17.1813 5.57682 17.0514 5.86621 16.9648 6.19434C16.8783 6.5179 16.835 6.86198 16.835 7.22656ZM25.1543 5.02539V13.8438H23.8828V3.60352H25.0449L25.1543 5.02539ZM30.1377 7.24023V7.38379C30.1377 7.92155 30.0739 8.42057 29.9463 8.88086C29.8187 9.33659 29.6318 9.73307 29.3857 10.0703C29.1442 10.4076 28.8457 10.6696 28.4902 10.8564C28.1348 11.0433 27.7269 11.1367 27.2666 11.1367C26.7972 11.1367 26.3825 11.0592 26.0225 10.9043C25.6624 10.7493 25.3571 10.5238 25.1064 10.2275C24.8558 9.93132 24.6553 9.57585 24.5049 9.16113C24.359 8.74642 24.2588 8.2793 24.2041 7.75977V6.99414C24.2588 6.44727 24.3613 5.95736 24.5117 5.52441C24.6621 5.09147 24.8604 4.72233 25.1064 4.41699C25.3571 4.1071 25.6602 3.8724 26.0156 3.71289C26.3711 3.54883 26.7812 3.4668 27.2461 3.4668C27.7109 3.4668 28.1234 3.55794 28.4834 3.74023C28.8434 3.91797 29.1465 4.17318 29.3926 4.50586C29.6387 4.83854 29.8232 5.2373 29.9463 5.70215C30.0739 6.16243 30.1377 6.67513 30.1377 7.24023ZM28.8662 7.38379V7.24023C28.8662 6.87109 28.8275 6.52474 28.75 6.20117C28.6725 5.87305 28.5518 5.58594 28.3877 5.33984C28.2282 5.08919 28.0231 4.89323 27.7725 4.75195C27.5218 4.60612 27.2233 4.5332 26.877 4.5332C26.5579 4.5332 26.2799 4.58789 26.043 4.69727C25.8105 4.80664 25.6123 4.95475 25.4482 5.1416C25.2842 5.32389 25.1497 5.53353 25.0449 5.77051C24.9447 6.00293 24.8695 6.24447 24.8193 6.49512V8.26562C24.9105 8.58464 25.0381 8.88542 25.2021 9.16797C25.3662 9.44596 25.585 9.67155 25.8584 9.84473C26.1318 10.0133 26.4759 10.0977 26.8906 10.0977C27.2324 10.0977 27.5264 10.027 27.7725 9.88574C28.0231 9.73991 28.2282 9.54167 28.3877 9.29102C28.5518 9.04036 28.6725 8.75326 28.75 8.42969C28.8275 8.10156 28.8662 7.75293 28.8662 7.38379ZM36.1123 9.73535V5.92773C36.1123 5.63607 36.0531 5.38314 35.9346 5.16895C35.8206 4.9502 35.6475 4.78158 35.415 4.66309C35.1826 4.5446 34.8955 4.48535 34.5537 4.48535C34.2347 4.48535 33.9544 4.54004 33.7129 4.64941C33.4759 4.75879 33.2891 4.90234 33.1523 5.08008C33.0202 5.25781 32.9541 5.44922 32.9541 5.6543H31.6895C31.6895 5.38997 31.7578 5.12793 31.8945 4.86816C32.0312 4.6084 32.2272 4.3737 32.4824 4.16406C32.7422 3.94987 33.0521 3.78125 33.4121 3.6582C33.7767 3.5306 34.1823 3.4668 34.6289 3.4668C35.1667 3.4668 35.6406 3.55794 36.0508 3.74023C36.4655 3.92253 36.7891 4.19824 37.0215 4.56738C37.2585 4.93197 37.377 5.38997 37.377 5.94141V9.38672C37.377 9.63281 37.3975 9.89486 37.4385 10.1729C37.484 10.4508 37.5501 10.6901 37.6367 10.8906V11H36.3174C36.2536 10.8542 36.2035 10.6605 36.167 10.4189C36.1305 10.1729 36.1123 9.94499 36.1123 9.73535ZM36.3311 6.51562L36.3447 7.4043H35.0664C34.7064 7.4043 34.3851 7.43392 34.1025 7.49316C33.82 7.54785 33.583 7.63216 33.3916 7.74609C33.2002 7.86003 33.0544 8.00358 32.9541 8.17676C32.8538 8.34538 32.8037 8.54362 32.8037 8.77148C32.8037 9.00391 32.8561 9.21582 32.9609 9.40723C33.0658 9.59863 33.223 9.7513 33.4326 9.86523C33.6468 9.97461 33.9089 10.0293 34.2188 10.0293C34.6061 10.0293 34.9479 9.94727 35.2441 9.7832C35.5404 9.61914 35.7751 9.41862 35.9482 9.18164C36.126 8.94466 36.2217 8.71452 36.2354 8.49121L36.7754 9.09961C36.7435 9.29102 36.6569 9.50293 36.5156 9.73535C36.3743 9.96777 36.1852 10.1911 35.9482 10.4053C35.7158 10.6149 35.4378 10.7904 35.1143 10.9316C34.7952 11.0684 34.4352 11.1367 34.0342 11.1367C33.5329 11.1367 33.0931 11.0387 32.7148 10.8428C32.3411 10.6468 32.0495 10.3848 31.8398 10.0566C31.6348 9.72396 31.5322 9.35254 31.5322 8.94238C31.5322 8.5459 31.6097 8.19727 31.7646 7.89648C31.9196 7.59115 32.1429 7.33822 32.4346 7.1377C32.7262 6.93262 33.0771 6.77767 33.4873 6.67285C33.8975 6.56803 34.3555 6.51562 34.8613 6.51562H36.3311ZM44.1104 0.383789H45.1494C45.1494 0.830404 45.0811 1.18587 44.9443 1.4502C44.8076 1.70996 44.6208 1.91048 44.3838 2.05176C44.1514 2.19303 43.887 2.30013 43.5908 2.37305C43.2992 2.44596 42.9961 2.5166 42.6816 2.58496C42.2897 2.66699 41.9251 2.79688 41.5879 2.97461C41.2552 3.14779 40.9681 3.39388 40.7266 3.71289C40.4896 4.0319 40.3141 4.44661 40.2002 4.95703C40.0908 5.46745 40.0612 6.09863 40.1113 6.85059V7.47949H39.0723V6.85059C39.0723 6.00749 39.152 5.27148 39.3115 4.64258C39.4756 4.01367 39.7057 3.48275 40.002 3.0498C40.2982 2.61686 40.6491 2.27279 41.0547 2.01758C41.4648 1.76237 41.916 1.58691 42.4082 1.49121C42.7637 1.42285 43.069 1.34993 43.3242 1.27246C43.5794 1.19043 43.7731 1.08105 43.9053 0.944336C44.042 0.807617 44.1104 0.620768 44.1104 0.383789ZM42.6133 4.02734C43.0964 4.02734 43.527 4.11165 43.9053 4.28027C44.2835 4.44889 44.6048 4.68359 44.8691 4.98438C45.1335 5.28516 45.334 5.64062 45.4707 6.05078C45.612 6.45638 45.6826 6.89844 45.6826 7.37695V7.52734C45.6826 8.04232 45.6074 8.52083 45.457 8.96289C45.3112 9.40039 45.0947 9.7832 44.8076 10.1113C44.5251 10.4349 44.1787 10.6878 43.7686 10.8701C43.363 11.0524 42.9004 11.1436 42.3809 11.1436C41.8613 11.1436 41.3965 11.0524 40.9863 10.8701C40.5807 10.6878 40.2344 10.4349 39.9473 10.1113C39.6602 9.7832 39.4414 9.40039 39.291 8.96289C39.1452 8.52083 39.0723 8.04232 39.0723 7.52734V7.37695C39.0723 7.26302 39.0928 7.15137 39.1338 7.04199C39.1748 6.93262 39.2249 6.82096 39.2842 6.70703C39.348 6.5931 39.4049 6.47233 39.4551 6.34473C39.6237 5.93457 39.8538 5.55404 40.1455 5.20312C40.4417 4.85221 40.7949 4.56966 41.2051 4.35547C41.6198 4.13672 42.0892 4.02734 42.6133 4.02734ZM42.3672 5.05957C41.9023 5.05957 41.5195 5.16667 41.2188 5.38086C40.9225 5.59505 40.7015 5.87988 40.5557 6.23535C40.4098 6.58626 40.3369 6.9668 40.3369 7.37695V7.52734C40.3369 7.8737 40.3779 8.20182 40.46 8.51172C40.542 8.82161 40.665 9.09733 40.8291 9.33887C40.9977 9.57585 41.2096 9.7627 41.4648 9.89941C41.7246 10.0361 42.0299 10.1045 42.3809 10.1045C42.7318 10.1045 43.0348 10.0361 43.29 9.89941C43.5452 9.7627 43.7549 9.57585 43.9189 9.33887C44.083 9.09733 44.2061 8.82161 44.2881 8.51172C44.3701 8.20182 44.4111 7.8737 44.4111 7.52734V7.37695C44.4111 7.06706 44.3701 6.77311 44.2881 6.49512C44.2061 6.21712 44.0807 5.97103 43.9121 5.75684C43.748 5.54264 43.5361 5.37402 43.2764 5.25098C43.0212 5.12337 42.7181 5.05957 42.3672 5.05957ZM46.7832 7.38379V7.22656C46.7832 6.69336 46.8607 6.19889 47.0156 5.74316C47.1706 5.28288 47.3939 4.88411 47.6855 4.54688C47.9772 4.20508 48.3304 3.94076 48.7451 3.75391C49.1598 3.5625 49.6247 3.4668 50.1396 3.4668C50.6592 3.4668 51.1263 3.5625 51.541 3.75391C51.9603 3.94076 52.3158 4.20508 52.6074 4.54688C52.9036 4.88411 53.1292 5.28288 53.2842 5.74316C53.4391 6.19889 53.5166 6.69336 53.5166 7.22656V7.38379C53.5166 7.91699 53.4391 8.41146 53.2842 8.86719C53.1292 9.32292 52.9036 9.72168 52.6074 10.0635C52.3158 10.4007 51.9626 10.665 51.5479 10.8564C51.1377 11.0433 50.6729 11.1367 50.1533 11.1367C49.6338 11.1367 49.1667 11.0433 48.752 10.8564C48.3372 10.665 47.9818 10.4007 47.6855 10.0635C47.3939 9.72168 47.1706 9.32292 47.0156 8.86719C46.8607 8.41146 46.7832 7.91699 46.7832 7.38379ZM48.0479 7.22656V7.38379C48.0479 7.75293 48.0911 8.10156 48.1777 8.42969C48.2643 8.75326 48.3942 9.04036 48.5674 9.29102C48.7451 9.54167 48.9661 9.73991 49.2305 9.88574C49.4948 10.027 49.8024 10.0977 50.1533 10.0977C50.4997 10.0977 50.8027 10.027 51.0625 9.88574C51.3268 9.73991 51.5456 9.54167 51.7188 9.29102C51.8919 9.04036 52.0218 8.75326 52.1084 8.42969C52.1995 8.10156 52.2451 7.75293 52.2451 7.38379V7.22656C52.2451 6.86198 52.1995 6.5179 52.1084 6.19434C52.0218 5.86621 51.8896 5.57682 51.7119 5.32617C51.5387 5.07096 51.32 4.87044 51.0557 4.72461C50.7959 4.57878 50.4906 4.50586 50.1396 4.50586C49.7933 4.50586 49.488 4.57878 49.2236 4.72461C48.9639 4.87044 48.7451 5.07096 48.5674 5.32617C48.3942 5.57682 48.2643 5.86621 48.1777 6.19434C48.0911 6.5179 48.0479 6.86198 48.0479 7.22656ZM57.9668 3.60352V11H56.6953V3.60352H57.9668ZM60.4482 3.60352V4.62891H54.2617V3.60352H60.4482ZM63.0664 3.60352V11H61.8018V3.60352H63.0664ZM67.9199 3.60352L64.4131 7.8418H62.6426L62.4512 6.73438H63.9004L66.3818 3.60352H67.9199ZM66.5596 11L63.8389 7.65039L64.6523 6.73438L68.166 11H66.5596ZM73.6279 9.73535V5.92773C73.6279 5.63607 73.5687 5.38314 73.4502 5.16895C73.3363 4.9502 73.1631 4.78158 72.9307 4.66309C72.6982 4.5446 72.4111 4.48535 72.0693 4.48535C71.7503 4.48535 71.4701 4.54004 71.2285 4.64941C70.9915 4.75879 70.8047 4.90234 70.668 5.08008C70.5358 5.25781 70.4697 5.44922 70.4697 5.6543H69.2051C69.2051 5.38997 69.2734 5.12793 69.4102 4.86816C69.5469 4.6084 69.7428 4.3737 69.998 4.16406C70.2578 3.94987 70.5677 3.78125 70.9277 3.6582C71.2923 3.5306 71.6979 3.4668 72.1445 3.4668C72.6823 3.4668 73.1562 3.55794 73.5664 3.74023C73.9811 3.92253 74.3047 4.19824 74.5371 4.56738C74.7741 4.93197 74.8926 5.38997 74.8926 5.94141V9.38672C74.8926 9.63281 74.9131 9.89486 74.9541 10.1729C74.9997 10.4508 75.0658 10.6901 75.1523 10.8906V11H73.833C73.7692 10.8542 73.7191 10.6605 73.6826 10.4189C73.6462 10.1729 73.6279 9.94499 73.6279 9.73535ZM73.8467 6.51562L73.8604 7.4043H72.582C72.222 7.4043 71.9007 7.43392 71.6182 7.49316C71.3356 7.54785 71.0986 7.63216 70.9072 7.74609C70.7158 7.86003 70.57 8.00358 70.4697 8.17676C70.3695 8.34538 70.3193 8.54362 70.3193 8.77148C70.3193 9.00391 70.3717 9.21582 70.4766 9.40723C70.5814 9.59863 70.7386 9.7513 70.9482 9.86523C71.1624 9.97461 71.4245 10.0293 71.7344 10.0293C72.1217 10.0293 72.4635 9.94727 72.7598 9.7832C73.056 9.61914 73.2907 9.41862 73.4639 9.18164C73.6416 8.94466 73.7373 8.71452 73.751 8.49121L74.291 9.09961C74.2591 9.29102 74.1725 9.50293 74.0312 9.73535C73.89 9.96777 73.7008 10.1911 73.4639 10.4053C73.2314 10.6149 72.9535 10.7904 72.6299 10.9316C72.3109 11.0684 71.9508 11.1367 71.5498 11.1367C71.0485 11.1367 70.6087 11.0387 70.2305 10.8428C69.8568 10.6468 69.5651 10.3848 69.3555 10.0566C69.1504 9.72396 69.0479 9.35254 69.0479 8.94238C69.0479 8.5459 69.1253 8.19727 69.2803 7.89648C69.4352 7.59115 69.6585 7.33822 69.9502 7.1377C70.2419 6.93262 70.5928 6.77767 71.0029 6.67285C71.4131 6.56803 71.8711 6.51562 72.377 6.51562H73.8467ZM82.4326 10.2344L84.4902 3.60352H85.8438L82.877 12.1416C82.8086 12.3239 82.7174 12.5199 82.6035 12.7295C82.4941 12.9437 82.3529 13.1465 82.1797 13.3379C82.0065 13.5293 81.7969 13.6842 81.5508 13.8027C81.3092 13.9258 81.0199 13.9873 80.6826 13.9873C80.5824 13.9873 80.4548 13.9736 80.2998 13.9463C80.1449 13.9189 80.0355 13.8962 79.9717 13.8779L79.9648 12.8525C80.0013 12.8571 80.0583 12.8617 80.1357 12.8662C80.2178 12.8753 80.2747 12.8799 80.3066 12.8799C80.5938 12.8799 80.8376 12.8411 81.0381 12.7637C81.2386 12.6908 81.4072 12.5654 81.5439 12.3877C81.6852 12.2145 81.806 11.9753 81.9062 11.6699L82.4326 10.2344ZM80.9219 3.60352L82.8428 9.3457L83.1709 10.6787L82.2617 11.1436L79.541 3.60352H80.9219ZM89.7471 7.46582H88.3867V6.68652H89.6445C89.9954 6.68652 90.2734 6.64323 90.4785 6.55664C90.6836 6.46549 90.8294 6.34017 90.916 6.18066C91.0026 6.02116 91.0459 5.83431 91.0459 5.62012C91.0459 5.42871 90.9958 5.2487 90.8955 5.08008C90.7998 4.9069 90.6449 4.7679 90.4307 4.66309C90.2165 4.55371 89.9294 4.49902 89.5693 4.49902C89.2777 4.49902 89.0133 4.55143 88.7764 4.65625C88.5394 4.75651 88.3503 4.89551 88.209 5.07324C88.0723 5.24642 88.0039 5.44238 88.0039 5.66113H86.7393C86.7393 5.20996 86.8669 4.82259 87.1221 4.49902C87.3818 4.1709 87.7259 3.91797 88.1543 3.74023C88.5872 3.5625 89.0589 3.47363 89.5693 3.47363C89.9977 3.47363 90.3805 3.52148 90.7178 3.61719C91.0596 3.70833 91.349 3.84505 91.5859 4.02734C91.8229 4.20508 92.0029 4.42839 92.126 4.69727C92.2536 4.96159 92.3174 5.26921 92.3174 5.62012C92.3174 5.87077 92.2581 6.10775 92.1396 6.33105C92.0212 6.55436 91.8503 6.7526 91.627 6.92578C91.4036 7.0944 91.1325 7.22656 90.8135 7.32227C90.499 7.41797 90.1436 7.46582 89.7471 7.46582ZM88.3867 6.9873H89.7471C90.1891 6.9873 90.5788 7.0306 90.916 7.11719C91.2533 7.19922 91.5358 7.32227 91.7637 7.48633C91.9915 7.65039 92.1624 7.85319 92.2764 8.09473C92.3949 8.33171 92.4541 8.60514 92.4541 8.91504C92.4541 9.26139 92.3835 9.57357 92.2422 9.85156C92.1055 10.125 91.9095 10.3574 91.6543 10.5488C91.3991 10.7402 91.0938 10.8861 90.7383 10.9863C90.3874 11.0866 89.9977 11.1367 89.5693 11.1367C89.0908 11.1367 88.626 11.0547 88.1748 10.8906C87.7236 10.7266 87.3522 10.4736 87.0605 10.1318C86.7689 9.78548 86.623 9.3457 86.623 8.8125H87.8877C87.8877 9.03581 87.9583 9.24772 88.0996 9.44824C88.2409 9.64876 88.4368 9.81055 88.6875 9.93359C88.9427 10.0566 89.2367 10.1182 89.5693 10.1182C89.9248 10.1182 90.221 10.0635 90.458 9.9541C90.695 9.84473 90.8727 9.69889 90.9912 9.5166C91.1143 9.33431 91.1758 9.13607 91.1758 8.92188C91.1758 8.64388 91.1211 8.42057 91.0117 8.25195C90.9023 8.08333 90.7337 7.96029 90.5059 7.88281C90.2826 7.80078 89.9954 7.75977 89.6445 7.75977H88.3867V6.9873ZM99.0371 3.60352V4.64941H95.4619V3.60352H99.0371ZM100.151 3.60352V11H98.8867V3.60352H100.151ZM95.1543 3.60352H96.4258L96.2344 7.17188C96.2025 7.72331 96.1501 8.21094 96.0771 8.63477C96.0088 9.05404 95.9131 9.41406 95.79 9.71484C95.6715 10.0156 95.5212 10.2617 95.3389 10.4531C95.1611 10.64 94.9469 10.779 94.6963 10.8701C94.4456 10.9567 94.1562 11 93.8281 11H93.4316V9.88574L93.7051 9.86523C93.901 9.85156 94.0674 9.80599 94.2041 9.72852C94.3454 9.65104 94.4639 9.53711 94.5596 9.38672C94.6553 9.23177 94.7327 9.03353 94.792 8.79199C94.8558 8.55046 94.9036 8.26335 94.9355 7.93066C94.972 7.59798 94.9993 7.21061 95.0176 6.76855L95.1543 3.60352ZM101.854 7.38379V7.22656C101.854 6.69336 101.931 6.19889 102.086 5.74316C102.241 5.28288 102.464 4.88411 102.756 4.54688C103.048 4.20508 103.401 3.94076 103.815 3.75391C104.23 3.5625 104.695 3.4668 105.21 3.4668C105.729 3.4668 106.197 3.5625 106.611 3.75391C107.031 3.94076 107.386 4.20508 107.678 4.54688C107.974 4.88411 108.2 5.28288 108.354 5.74316C108.509 6.19889 108.587 6.69336 108.587 7.22656V7.38379C108.587 7.91699 108.509 8.41146 108.354 8.86719C108.2 9.32292 107.974 9.72168 107.678 10.0635C107.386 10.4007 107.033 10.665 106.618 10.8564C106.208 11.0433 105.743 11.1367 105.224 11.1367C104.704 11.1367 104.237 11.0433 103.822 10.8564C103.408 10.665 103.052 10.4007 102.756 10.0635C102.464 9.72168 102.241 9.32292 102.086 8.86719C101.931 8.41146 101.854 7.91699 101.854 7.38379ZM103.118 7.22656V7.38379C103.118 7.75293 103.161 8.10156 103.248 8.42969C103.335 8.75326 103.465 9.04036 103.638 9.29102C103.815 9.54167 104.036 9.73991 104.301 9.88574C104.565 10.027 104.873 10.0977 105.224 10.0977C105.57 10.0977 105.873 10.027 106.133 9.88574C106.397 9.73991 106.616 9.54167 106.789 9.29102C106.962 9.04036 107.092 8.75326 107.179 8.42969C107.27 8.10156 107.315 7.75293 107.315 7.38379V7.22656C107.315 6.86198 107.27 6.5179 107.179 6.19434C107.092 5.86621 106.96 5.57682 106.782 5.32617C106.609 5.07096 106.39 4.87044 106.126 4.72461C105.866 4.57878 105.561 4.50586 105.21 4.50586C104.864 4.50586 104.558 4.57878 104.294 4.72461C104.034 4.87044 103.815 5.07096 103.638 5.32617C103.465 5.57682 103.335 5.86621 103.248 6.19434C103.161 6.5179 103.118 6.86198 103.118 7.22656ZM113.646 7.74609H111.219L111.205 6.73438H113.188C113.579 6.73438 113.905 6.69564 114.165 6.61816C114.429 6.54069 114.628 6.42448 114.76 6.26953C114.892 6.11458 114.958 5.92318 114.958 5.69531C114.958 5.51758 114.919 5.36263 114.842 5.23047C114.769 5.09375 114.657 4.9821 114.507 4.89551C114.356 4.80436 114.17 4.73828 113.946 4.69727C113.728 4.65169 113.47 4.62891 113.174 4.62891H111.554V11H110.289V3.60352H113.174C113.643 3.60352 114.065 3.64453 114.438 3.72656C114.817 3.80859 115.138 3.93392 115.402 4.10254C115.671 4.2666 115.876 4.47624 116.018 4.73145C116.159 4.98665 116.229 5.28743 116.229 5.63379C116.229 5.8571 116.184 6.06901 116.093 6.26953C116.002 6.47005 115.867 6.64779 115.689 6.80273C115.512 6.95768 115.293 7.08529 115.033 7.18555C114.773 7.28125 114.475 7.34277 114.138 7.37012L113.646 7.74609ZM113.646 11H110.761L111.39 9.97461H113.646C113.996 9.97461 114.288 9.93132 114.521 9.84473C114.753 9.75358 114.926 9.62598 115.04 9.46191C115.159 9.29329 115.218 9.09277 115.218 8.86035C115.218 8.62793 115.159 8.42969 115.04 8.26562C114.926 8.09701 114.753 7.9694 114.521 7.88281C114.288 7.79167 113.996 7.74609 113.646 7.74609H111.725L111.738 6.73438H114.138L114.596 7.11719C115.001 7.14909 115.345 7.24935 115.628 7.41797C115.91 7.58659 116.125 7.80078 116.271 8.06055C116.416 8.31576 116.489 8.59375 116.489 8.89453C116.489 9.24089 116.423 9.54622 116.291 9.81055C116.163 10.0749 115.977 10.2959 115.73 10.4736C115.484 10.6468 115.186 10.779 114.835 10.8701C114.484 10.9567 114.088 11 113.646 11ZM126.675 6.80957V7.83496H122.765V6.80957H126.675ZM123.031 3.60352V11H121.767V3.60352H123.031ZM127.7 3.60352V11H126.429V3.60352H127.7ZM132.807 11.1367C132.292 11.1367 131.825 11.0501 131.405 10.877C130.991 10.6992 130.633 10.4508 130.332 10.1318C130.036 9.81283 129.808 9.43457 129.648 8.99707C129.489 8.55957 129.409 8.08105 129.409 7.56152V7.27441C129.409 6.67285 129.498 6.13737 129.676 5.66797C129.854 5.19401 130.095 4.79297 130.4 4.46484C130.706 4.13672 131.052 3.88835 131.439 3.71973C131.827 3.55111 132.228 3.4668 132.643 3.4668C133.171 3.4668 133.627 3.55794 134.01 3.74023C134.397 3.92253 134.714 4.17773 134.96 4.50586C135.206 4.82943 135.388 5.21224 135.507 5.6543C135.625 6.0918 135.685 6.57031 135.685 7.08984V7.65723H130.161V6.625H134.42V6.5293C134.402 6.20117 134.333 5.88216 134.215 5.57227C134.101 5.26237 133.919 5.00716 133.668 4.80664C133.417 4.60612 133.076 4.50586 132.643 4.50586C132.355 4.50586 132.091 4.56738 131.85 4.69043C131.608 4.80892 131.401 4.98665 131.228 5.22363C131.054 5.46061 130.92 5.75 130.824 6.0918C130.729 6.43359 130.681 6.8278 130.681 7.27441V7.56152C130.681 7.91243 130.729 8.24284 130.824 8.55273C130.924 8.85807 131.068 9.12695 131.255 9.35938C131.446 9.5918 131.676 9.77409 131.945 9.90625C132.219 10.0384 132.529 10.1045 132.875 10.1045C133.322 10.1045 133.7 10.0133 134.01 9.83105C134.32 9.64876 134.591 9.40495 134.823 9.09961L135.589 9.70801C135.429 9.94954 135.227 10.1797 134.98 10.3984C134.734 10.6172 134.431 10.7949 134.071 10.9316C133.716 11.0684 133.294 11.1367 132.807 11.1367ZM140.094 3.60352V11H138.822V3.60352H140.094ZM142.575 3.60352V4.62891H136.389V3.60352H142.575ZM145.187 8.99707L148.598 3.60352H149.869V11H148.598V5.60645L145.187 11H143.929V3.60352H145.187V8.99707ZM156.828 3.60352V4.64941H153.089V3.60352H156.828ZM153.273 3.60352V11H152.009V3.60352H153.273ZM157.949 3.60352V11H156.678V3.60352H157.949ZM159.645 7.38379V7.22656C159.645 6.69336 159.722 6.19889 159.877 5.74316C160.032 5.28288 160.255 4.88411 160.547 4.54688C160.839 4.20508 161.192 3.94076 161.606 3.75391C162.021 3.5625 162.486 3.4668 163.001 3.4668C163.521 3.4668 163.988 3.5625 164.402 3.75391C164.822 3.94076 165.177 4.20508 165.469 4.54688C165.765 4.88411 165.991 5.28288 166.146 5.74316C166.3 6.19889 166.378 6.69336 166.378 7.22656V7.38379C166.378 7.91699 166.3 8.41146 166.146 8.86719C165.991 9.32292 165.765 9.72168 165.469 10.0635C165.177 10.4007 164.824 10.665 164.409 10.8564C163.999 11.0433 163.534 11.1367 163.015 11.1367C162.495 11.1367 162.028 11.0433 161.613 10.8564C161.199 10.665 160.843 10.4007 160.547 10.0635C160.255 9.72168 160.032 9.32292 159.877 8.86719C159.722 8.41146 159.645 7.91699 159.645 7.38379ZM160.909 7.22656V7.38379C160.909 7.75293 160.952 8.10156 161.039 8.42969C161.126 8.75326 161.256 9.04036 161.429 9.29102C161.606 9.54167 161.827 9.73991 162.092 9.88574C162.356 10.027 162.664 10.0977 163.015 10.0977C163.361 10.0977 163.664 10.027 163.924 9.88574C164.188 9.73991 164.407 9.54167 164.58 9.29102C164.753 9.04036 164.883 8.75326 164.97 8.42969C165.061 8.10156 165.106 7.75293 165.106 7.38379V7.22656C165.106 6.86198 165.061 6.5179 164.97 6.19434C164.883 5.86621 164.751 5.57682 164.573 5.32617C164.4 5.07096 164.181 4.87044 163.917 4.72461C163.657 4.57878 163.352 4.50586 163.001 4.50586C162.655 4.50586 162.349 4.57878 162.085 4.72461C161.825 4.87044 161.606 5.07096 161.429 5.32617C161.256 5.57682 161.126 5.86621 161.039 6.19434C160.952 6.5179 160.909 6.86198 160.909 7.22656ZM171.437 7.74609H169.01L168.996 6.73438H170.979C171.37 6.73438 171.696 6.69564 171.956 6.61816C172.22 6.54069 172.419 6.42448 172.551 6.26953C172.683 6.11458 172.749 5.92318 172.749 5.69531C172.749 5.51758 172.71 5.36263 172.633 5.23047C172.56 5.09375 172.448 4.9821 172.298 4.89551C172.147 4.80436 171.961 4.73828 171.737 4.69727C171.519 4.65169 171.261 4.62891 170.965 4.62891H169.345V11H168.08V3.60352H170.965C171.434 3.60352 171.856 3.64453 172.229 3.72656C172.608 3.80859 172.929 3.93392 173.193 4.10254C173.462 4.2666 173.667 4.47624 173.809 4.73145C173.95 4.98665 174.021 5.28743 174.021 5.63379C174.021 5.8571 173.975 6.06901 173.884 6.26953C173.793 6.47005 173.658 6.64779 173.48 6.80273C173.303 6.95768 173.084 7.08529 172.824 7.18555C172.564 7.28125 172.266 7.34277 171.929 7.37012L171.437 7.74609ZM171.437 11H168.552L169.181 9.97461H171.437C171.787 9.97461 172.079 9.93132 172.312 9.84473C172.544 9.75358 172.717 9.62598 172.831 9.46191C172.95 9.29329 173.009 9.09277 173.009 8.86035C173.009 8.62793 172.95 8.42969 172.831 8.26562C172.717 8.09701 172.544 7.9694 172.312 7.88281C172.079 7.79167 171.787 7.74609 171.437 7.74609H169.516L169.529 6.73438H171.929L172.387 7.11719C172.792 7.14909 173.136 7.24935 173.419 7.41797C173.701 7.58659 173.916 7.80078 174.062 8.06055C174.207 8.31576 174.28 8.59375 174.28 8.89453C174.28 9.24089 174.214 9.54622 174.082 9.81055C173.954 10.0749 173.768 10.2959 173.521 10.4736C173.275 10.6468 172.977 10.779 172.626 10.8701C172.275 10.9567 171.879 11 171.437 11ZM177.015 6.14648H179.236C179.833 6.14648 180.337 6.2513 180.747 6.46094C181.157 6.66602 181.467 6.95085 181.677 7.31543C181.891 7.67546 181.998 8.08561 181.998 8.5459C181.998 8.8877 181.939 9.20898 181.82 9.50977C181.702 9.80599 181.524 10.0658 181.287 10.2891C181.055 10.5124 180.765 10.6878 180.419 10.8154C180.077 10.9385 179.683 11 179.236 11H176.092V3.60352H177.356V9.96094H179.236C179.601 9.96094 179.893 9.89486 180.111 9.7627C180.33 9.63053 180.487 9.45964 180.583 9.25C180.679 9.04036 180.727 8.82161 180.727 8.59375C180.727 8.37044 180.679 8.15169 180.583 7.9375C180.487 7.72331 180.33 7.54557 180.111 7.4043C179.893 7.25846 179.601 7.18555 179.236 7.18555H177.015V6.14648ZM184.63 3.60352V11H183.365V3.60352H184.63ZM187.699 3.60352L189.319 6.29688L190.96 3.60352H192.443L190.023 7.25391L192.519 11H191.056L189.347 8.22461L187.638 11H186.168L188.656 7.25391L186.243 3.60352H187.699ZM198.637 3.60352V11H197.372V3.60352H198.637ZM203.49 3.60352L199.983 7.8418H198.213L198.021 6.73438H199.471L201.952 3.60352H203.49ZM202.13 11L199.409 7.65039L200.223 6.73438L203.736 11H202.13ZM204.352 7.38379V7.22656C204.352 6.69336 204.429 6.19889 204.584 5.74316C204.739 5.28288 204.962 4.88411 205.254 4.54688C205.546 4.20508 205.899 3.94076 206.313 3.75391C206.728 3.5625 207.193 3.4668 207.708 3.4668C208.228 3.4668 208.695 3.5625 209.109 3.75391C209.529 3.94076 209.884 4.20508 210.176 4.54688C210.472 4.88411 210.698 5.28288 210.853 5.74316C211.007 6.19889 211.085 6.69336 211.085 7.22656V7.38379C211.085 7.91699 211.007 8.41146 210.853 8.86719C210.698 9.32292 210.472 9.72168 210.176 10.0635C209.884 10.4007 209.531 10.665 209.116 10.8564C208.706 11.0433 208.241 11.1367 207.722 11.1367C207.202 11.1367 206.735 11.0433 206.32 10.8564C205.906 10.665 205.55 10.4007 205.254 10.0635C204.962 9.72168 204.739 9.32292 204.584 8.86719C204.429 8.41146 204.352 7.91699 204.352 7.38379ZM205.616 7.22656V7.38379C205.616 7.75293 205.66 8.10156 205.746 8.42969C205.833 8.75326 205.963 9.04036 206.136 9.29102C206.313 9.54167 206.535 9.73991 206.799 9.88574C207.063 10.027 207.371 10.0977 207.722 10.0977C208.068 10.0977 208.371 10.027 208.631 9.88574C208.895 9.73991 209.114 9.54167 209.287 9.29102C209.46 9.04036 209.59 8.75326 209.677 8.42969C209.768 8.10156 209.813 7.75293 209.813 7.38379V7.22656C209.813 6.86198 209.768 6.5179 209.677 6.19434C209.59 5.86621 209.458 5.57682 209.28 5.32617C209.107 5.07096 208.888 4.87044 208.624 4.72461C208.364 4.57878 208.059 4.50586 207.708 4.50586C207.362 4.50586 207.056 4.57878 206.792 4.72461C206.532 4.87044 206.313 5.07096 206.136 5.32617C205.963 5.57682 205.833 5.86621 205.746 6.19434C205.66 6.5179 205.616 6.86198 205.616 7.22656ZM217.688 6.80957V7.83496H213.778V6.80957H217.688ZM214.045 3.60352V11H212.78V3.60352H214.045ZM218.714 3.60352V11H217.442V3.60352H218.714ZM223.711 10.0977C224.012 10.0977 224.29 10.0361 224.545 9.91309C224.8 9.79004 225.01 9.62142 225.174 9.40723C225.338 9.18848 225.431 8.9401 225.454 8.66211H226.657C226.634 9.09961 226.486 9.50749 226.213 9.88574C225.944 10.2594 225.591 10.5625 225.153 10.7949C224.716 11.0228 224.235 11.1367 223.711 11.1367C223.155 11.1367 222.67 11.0387 222.255 10.8428C221.845 10.6468 221.503 10.3779 221.229 10.0361C220.961 9.69434 220.758 9.30241 220.621 8.86035C220.489 8.41374 220.423 7.94206 220.423 7.44531V7.1582C220.423 6.66146 220.489 6.19206 220.621 5.75C220.758 5.30339 220.961 4.90918 221.229 4.56738C221.503 4.22559 221.845 3.95671 222.255 3.76074C222.67 3.56478 223.155 3.4668 223.711 3.4668C224.29 3.4668 224.796 3.58529 225.229 3.82227C225.661 4.05469 226.001 4.3737 226.247 4.7793C226.498 5.18034 226.634 5.63607 226.657 6.14648H225.454C225.431 5.84115 225.345 5.56543 225.194 5.31934C225.049 5.07324 224.848 4.87728 224.593 4.73145C224.342 4.58105 224.048 4.50586 223.711 4.50586C223.324 4.50586 222.998 4.58333 222.733 4.73828C222.474 4.88867 222.266 5.09375 222.111 5.35352C221.961 5.60872 221.852 5.89355 221.783 6.20801C221.719 6.5179 221.688 6.83464 221.688 7.1582V7.44531C221.688 7.76888 221.719 8.08789 221.783 8.40234C221.847 8.7168 221.954 9.00163 222.104 9.25684C222.259 9.51204 222.467 9.71712 222.727 9.87207C222.991 10.0225 223.319 10.0977 223.711 10.0977ZM231.094 3.60352V11H229.822V3.60352H231.094ZM233.575 3.60352V4.62891H227.389V3.60352H233.575ZM236.084 5.02539V13.8438H234.812V3.60352H235.975L236.084 5.02539ZM241.067 7.24023V7.38379C241.067 7.92155 241.004 8.42057 240.876 8.88086C240.748 9.33659 240.562 9.73307 240.315 10.0703C240.074 10.4076 239.775 10.6696 239.42 10.8564C239.064 11.0433 238.657 11.1367 238.196 11.1367C237.727 11.1367 237.312 11.0592 236.952 10.9043C236.592 10.7493 236.287 10.5238 236.036 10.2275C235.785 9.93132 235.585 9.57585 235.435 9.16113C235.289 8.74642 235.188 8.2793 235.134 7.75977V6.99414C235.188 6.44727 235.291 5.95736 235.441 5.52441C235.592 5.09147 235.79 4.72233 236.036 4.41699C236.287 4.1071 236.59 3.8724 236.945 3.71289C237.301 3.54883 237.711 3.4668 238.176 3.4668C238.641 3.4668 239.053 3.55794 239.413 3.74023C239.773 3.91797 240.076 4.17318 240.322 4.50586C240.568 4.83854 240.753 5.2373 240.876 5.70215C241.004 6.16243 241.067 6.67513 241.067 7.24023ZM239.796 7.38379V7.24023C239.796 6.87109 239.757 6.52474 239.68 6.20117C239.602 5.87305 239.481 5.58594 239.317 5.33984C239.158 5.08919 238.953 4.89323 238.702 4.75195C238.451 4.60612 238.153 4.5332 237.807 4.5332C237.488 4.5332 237.21 4.58789 236.973 4.69727C236.74 4.80664 236.542 4.95475 236.378 5.1416C236.214 5.32389 236.079 5.53353 235.975 5.77051C235.874 6.00293 235.799 6.24447 235.749 6.49512V8.26562C235.84 8.58464 235.968 8.88542 236.132 9.16797C236.296 9.44596 236.515 9.67155 236.788 9.84473C237.062 10.0133 237.406 10.0977 237.82 10.0977C238.162 10.0977 238.456 10.027 238.702 9.88574C238.953 9.73991 239.158 9.54167 239.317 9.29102C239.481 9.04036 239.602 8.75326 239.68 8.42969C239.757 8.10156 239.796 7.75293 239.796 7.38379ZM244.677 10.2344L246.734 3.60352H248.088L245.121 12.1416C245.053 12.3239 244.962 12.5199 244.848 12.7295C244.738 12.9437 244.597 13.1465 244.424 13.3379C244.251 13.5293 244.041 13.6842 243.795 13.8027C243.553 13.9258 243.264 13.9873 242.927 13.9873C242.826 13.9873 242.699 13.9736 242.544 13.9463C242.389 13.9189 242.28 13.8962 242.216 13.8779L242.209 12.8525C242.245 12.8571 242.302 12.8617 242.38 12.8662C242.462 12.8753 242.519 12.8799 242.551 12.8799C242.838 12.8799 243.082 12.8411 243.282 12.7637C243.483 12.6908 243.651 12.5654 243.788 12.3877C243.929 12.2145 244.05 11.9753 244.15 11.6699L244.677 10.2344ZM243.166 3.60352L245.087 9.3457L245.415 10.6787L244.506 11.1436L241.785 3.60352H243.166ZM250.604 3.60352V11H249.339V3.60352H250.604ZM255.457 3.60352L251.95 7.8418H250.18L249.988 6.73438H251.438L253.919 3.60352H255.457ZM254.097 11L251.376 7.65039L252.189 6.73438L255.703 11H254.097ZM256.913 11V3.60352H258.178V9.96094H261.582V3.60352H262.854V11H256.913ZM263.729 9.96094L263.605 13.1943H262.478V11H261.514V9.96094H263.729ZM266.47 8.99707L269.881 3.60352H271.152V11H269.881V5.60645L266.47 11H265.212V3.60352H266.47V8.99707ZM274.55 8.99707L277.961 3.60352H279.232V11H277.961V5.60645L274.55 11H273.292V3.60352H274.55V8.99707ZM277.271 0.923828H278.296C278.296 1.2793 278.214 1.59603 278.05 1.87402C277.886 2.14746 277.651 2.36165 277.346 2.5166C277.04 2.67155 276.678 2.74902 276.259 2.74902C275.625 2.74902 275.124 2.5804 274.755 2.24316C274.39 1.90137 274.208 1.46159 274.208 0.923828H275.233C275.233 1.19271 275.311 1.42969 275.466 1.63477C275.621 1.83984 275.885 1.94238 276.259 1.94238C276.623 1.94238 276.883 1.83984 277.038 1.63477C277.193 1.42969 277.271 1.19271 277.271 0.923828ZM281.051 4.29395C281.051 4.07975 281.117 3.89974 281.249 3.75391C281.386 3.60352 281.582 3.52832 281.837 3.52832C282.092 3.52832 282.286 3.60352 282.418 3.75391C282.555 3.89974 282.623 4.07975 282.623 4.29395C282.623 4.50358 282.555 4.68132 282.418 4.82715C282.286 4.97298 282.092 5.0459 281.837 5.0459C281.582 5.0459 281.386 4.97298 281.249 4.82715C281.117 4.68132 281.051 4.50358 281.051 4.29395ZM282.493 9.49609V10.5146C282.493 10.9294 282.388 11.3669 282.179 11.8271C281.969 12.292 281.675 12.6794 281.297 12.9893L280.579 12.4902C280.725 12.2897 280.848 12.0846 280.948 11.875C281.049 11.6699 281.124 11.4557 281.174 11.2324C281.229 11.0137 281.256 10.7812 281.256 10.5352V9.49609H282.493Z" fill="#303030" fill-opacity="0.9"/>
</svg>
