<svg width="256" height="18" viewBox="0 0 256 18" fill="none" xmlns="http://www.w3.org/2000/svg">
<path d="M4.43652 10.7461H2.00977L1.99609 9.73438H3.97852C4.37044 9.73438 4.69629 9.69564 4.95605 9.61816C5.22038 9.54069 5.41862 9.42448 5.55078 9.26953C5.68294 9.11458 5.74902 8.92318 5.74902 8.69531C5.74902 8.51758 5.71029 8.36263 5.63281 8.23047C5.5599 8.09375 5.44824 7.9821 5.29785 7.89551C5.14746 7.80436 4.96061 7.73828 4.7373 7.69727C4.51855 7.65169 4.26107 7.62891 3.96484 7.62891H2.34473V14H1.08008V6.60352H3.96484C4.43424 6.60352 4.85579 6.64453 5.22949 6.72656C5.60775 6.80859 5.92904 6.93392 6.19336 7.10254C6.46224 7.2666 6.66732 7.47624 6.80859 7.73145C6.94987 7.98665 7.02051 8.28743 7.02051 8.63379C7.02051 8.8571 6.97493 9.06901 6.88379 9.26953C6.79264 9.47005 6.6582 9.64779 6.48047 9.80273C6.30273 9.95768 6.08398 10.0853 5.82422 10.1855C5.56445 10.2812 5.26595 10.3428 4.92871 10.3701L4.43652 10.7461ZM4.43652 14H1.55176L2.18066 12.9746H4.43652C4.78743 12.9746 5.0791 12.9313 5.31152 12.8447C5.54395 12.7536 5.71712 12.626 5.83105 12.4619C5.94954 12.2933 6.00879 12.0928 6.00879 11.8604C6.00879 11.6279 5.94954 11.4297 5.83105 11.2656C5.71712 11.097 5.54395 10.9694 5.31152 10.8828C5.0791 10.7917 4.78743 10.7461 4.43652 10.7461H2.51562L2.5293 9.73438H4.92871L5.38672 10.1172C5.79232 10.1491 6.13639 10.2493 6.41895 10.418C6.7015 10.5866 6.91569 10.8008 7.06152 11.0605C7.20736 11.3158 7.28027 11.5938 7.28027 11.8945C7.28027 12.2409 7.21419 12.5462 7.08203 12.8105C6.95443 13.0749 6.76758 13.2959 6.52148 13.4736C6.27539 13.6468 5.97689 13.779 5.62598 13.8701C5.27507 13.9567 4.87858 14 4.43652 14ZM12.0449 14.1367C11.5299 14.1367 11.0628 14.0501 10.6436 13.877C10.2288 13.6992 9.87109 13.4508 9.57031 13.1318C9.27409 12.8128 9.04622 12.4346 8.88672 11.9971C8.72721 11.5596 8.64746 11.0811 8.64746 10.5615V10.2744C8.64746 9.67285 8.73633 9.13737 8.91406 8.66797C9.0918 8.19401 9.33333 7.79297 9.63867 7.46484C9.94401 7.13672 10.2904 6.88835 10.6777 6.71973C11.0651 6.55111 11.4661 6.4668 11.8809 6.4668C12.4095 6.4668 12.8652 6.55794 13.248 6.74023C13.6354 6.92253 13.9521 7.17773 14.1982 7.50586C14.4443 7.82943 14.6266 8.21224 14.7451 8.6543C14.8636 9.0918 14.9229 9.57031 14.9229 10.0898V10.6572H9.39941V9.625H13.6582V9.5293C13.64 9.20117 13.5716 8.88216 13.4531 8.57227C13.3392 8.26237 13.1569 8.00716 12.9062 7.80664C12.6556 7.60612 12.3138 7.50586 11.8809 7.50586C11.5938 7.50586 11.3294 7.56738 11.0879 7.69043C10.8464 7.80892 10.639 7.98665 10.4658 8.22363C10.2926 8.46061 10.1582 8.75 10.0625 9.0918C9.9668 9.43359 9.91895 9.8278 9.91895 10.2744V10.5615C9.91895 10.9124 9.9668 11.2428 10.0625 11.5527C10.1628 11.8581 10.3063 12.127 10.4932 12.3594C10.6846 12.5918 10.9147 12.7741 11.1836 12.9062C11.457 13.0384 11.7669 13.1045 12.1133 13.1045C12.5599 13.1045 12.9382 13.0133 13.248 12.8311C13.5579 12.6488 13.8291 12.4049 14.0615 12.0996L14.8271 12.708C14.6676 12.9495 14.4648 13.1797 14.2188 13.3984C13.9727 13.6172 13.6696 13.7949 13.3096 13.9316C12.9541 14.0684 12.5326 14.1367 12.0449 14.1367ZM17.7324 6.60352H18.9971L18.8877 9.37207C18.8604 10.0739 18.7806 10.68 18.6484 11.1904C18.5163 11.7008 18.3477 12.1361 18.1426 12.4961C17.9375 12.8516 17.7074 13.1501 17.4521 13.3916C17.2015 13.6331 16.9417 13.8359 16.6729 14H16.0439L16.0781 12.9678L16.3379 12.9609C16.4883 12.7832 16.6341 12.6009 16.7754 12.4141C16.9167 12.2227 17.0465 11.9971 17.165 11.7373C17.2835 11.473 17.3815 11.1517 17.459 10.7734C17.541 10.3906 17.5934 9.9235 17.6162 9.37207L17.7324 6.60352ZM18.0469 6.60352H22.4971V14H21.2324V7.77246H18.0469V6.60352ZM15.7568 12.9609H23.4473V16.1807H22.1826V14H17.0215V16.1807H15.75L15.7568 12.9609ZM24.5137 10.3838V10.2266C24.5137 9.69336 24.5911 9.19889 24.7461 8.74316C24.901 8.28288 25.1243 7.88411 25.416 7.54688C25.7077 7.20508 26.0609 6.94076 26.4756 6.75391C26.8903 6.5625 27.3551 6.4668 27.8701 6.4668C28.3896 6.4668 28.8568 6.5625 29.2715 6.75391C29.6908 6.94076 30.0462 7.20508 30.3379 7.54688C30.6341 7.88411 30.8597 8.28288 31.0146 8.74316C31.1696 9.19889 31.2471 9.69336 31.2471 10.2266V10.3838C31.2471 10.917 31.1696 11.4115 31.0146 11.8672C30.8597 12.3229 30.6341 12.7217 30.3379 13.0635C30.0462 13.4007 29.693 13.665 29.2783 13.8564C28.8682 14.0433 28.4033 14.1367 27.8838 14.1367C27.3643 14.1367 26.8971 14.0433 26.4824 13.8564C26.0677 13.665 25.7122 13.4007 25.416 13.0635C25.1243 12.7217 24.901 12.3229 24.7461 11.8672C24.5911 11.4115 24.5137 10.917 24.5137 10.3838ZM25.7783 10.2266V10.3838C25.7783 10.7529 25.8216 11.1016 25.9082 11.4297C25.9948 11.7533 26.1247 12.0404 26.2979 12.291C26.4756 12.5417 26.6966 12.7399 26.9609 12.8857C27.2253 13.027 27.5329 13.0977 27.8838 13.0977C28.2301 13.0977 28.5332 13.027 28.793 12.8857C29.0573 12.7399 29.276 12.5417 29.4492 12.291C29.6224 12.0404 29.7523 11.7533 29.8389 11.4297C29.93 11.1016 29.9756 10.7529 29.9756 10.3838V10.2266C29.9756 9.86198 29.93 9.5179 29.8389 9.19434C29.7523 8.86621 29.6201 8.57682 29.4424 8.32617C29.2692 8.07096 29.0505 7.87044 28.7861 7.72461C28.5264 7.57878 28.221 7.50586 27.8701 7.50586C27.5238 7.50586 27.2184 7.57878 26.9541 7.72461C26.6943 7.87044 26.4756 8.07096 26.2979 8.32617C26.1247 8.57682 25.9948 8.86621 25.9082 9.19434C25.8216 9.5179 25.7783 9.86198 25.7783 10.2266ZM37.085 12.3184L39.6006 6.60352H40.8174L37.5225 14H36.6475L33.3662 6.60352H34.583L37.085 12.3184ZM34.2139 6.60352V14H32.9492V6.60352H34.2139ZM39.915 14V6.60352H41.1865V14H39.915ZM42.8887 10.3838V10.2266C42.8887 9.69336 42.9661 9.19889 43.1211 8.74316C43.276 8.28288 43.4993 7.88411 43.791 7.54688C44.0827 7.20508 44.4359 6.94076 44.8506 6.75391C45.2653 6.5625 45.7301 6.4668 46.2451 6.4668C46.7646 6.4668 47.2318 6.5625 47.6465 6.75391C48.0658 6.94076 48.4212 7.20508 48.7129 7.54688C49.0091 7.88411 49.2347 8.28288 49.3896 8.74316C49.5446 9.19889 49.6221 9.69336 49.6221 10.2266V10.3838C49.6221 10.917 49.5446 11.4115 49.3896 11.8672C49.2347 12.3229 49.0091 12.7217 48.7129 13.0635C48.4212 13.4007 48.068 13.665 47.6533 13.8564C47.2432 14.0433 46.7783 14.1367 46.2588 14.1367C45.7393 14.1367 45.2721 14.0433 44.8574 13.8564C44.4427 13.665 44.0872 13.4007 43.791 13.0635C43.4993 12.7217 43.276 12.3229 43.1211 11.8672C42.9661 11.4115 42.8887 10.917 42.8887 10.3838ZM44.1533 10.2266V10.3838C44.1533 10.7529 44.1966 11.1016 44.2832 11.4297C44.3698 11.7533 44.4997 12.0404 44.6729 12.291C44.8506 12.5417 45.0716 12.7399 45.3359 12.8857C45.6003 13.027 45.9079 13.0977 46.2588 13.0977C46.6051 13.0977 46.9082 13.027 47.168 12.8857C47.4323 12.7399 47.651 12.5417 47.8242 12.291C47.9974 12.0404 48.1273 11.7533 48.2139 11.4297C48.305 11.1016 48.3506 10.7529 48.3506 10.3838V10.2266C48.3506 9.86198 48.305 9.5179 48.2139 9.19434C48.1273 8.86621 47.9951 8.57682 47.8174 8.32617C47.6442 8.07096 47.4255 7.87044 47.1611 7.72461C46.9014 7.57878 46.596 7.50586 46.2451 7.50586C45.8988 7.50586 45.5934 7.57878 45.3291 7.72461C45.0693 7.87044 44.8506 8.07096 44.6729 8.32617C44.4997 8.57682 44.3698 8.86621 44.2832 9.19434C44.1966 9.5179 44.1533 9.86198 44.1533 10.2266ZM54.168 13.0977C54.4688 13.0977 54.7467 13.0361 55.002 12.9131C55.2572 12.79 55.4668 12.6214 55.6309 12.4072C55.7949 12.1885 55.8883 11.9401 55.9111 11.6621H57.1143C57.0915 12.0996 56.9434 12.5075 56.6699 12.8857C56.401 13.2594 56.0479 13.5625 55.6104 13.7949C55.1729 14.0228 54.6921 14.1367 54.168 14.1367C53.612 14.1367 53.1266 14.0387 52.7119 13.8428C52.3018 13.6468 51.96 13.3779 51.6865 13.0361C51.4176 12.6943 51.2148 12.3024 51.0781 11.8604C50.946 11.4137 50.8799 10.9421 50.8799 10.4453V10.1582C50.8799 9.66146 50.946 9.19206 51.0781 8.75C51.2148 8.30339 51.4176 7.90918 51.6865 7.56738C51.96 7.22559 52.3018 6.95671 52.7119 6.76074C53.1266 6.56478 53.612 6.4668 54.168 6.4668C54.7467 6.4668 55.2526 6.58529 55.6855 6.82227C56.1185 7.05469 56.458 7.3737 56.7041 7.7793C56.9548 8.18034 57.0915 8.63607 57.1143 9.14648H55.9111C55.8883 8.84115 55.8018 8.56543 55.6514 8.31934C55.5055 8.07324 55.305 7.87728 55.0498 7.73145C54.7992 7.58105 54.5052 7.50586 54.168 7.50586C53.7806 7.50586 53.4548 7.58333 53.1904 7.73828C52.9307 7.88867 52.7233 8.09375 52.5684 8.35352C52.418 8.60872 52.3086 8.89355 52.2402 9.20801C52.1764 9.5179 52.1445 9.83464 52.1445 10.1582V10.4453C52.1445 10.7689 52.1764 11.0879 52.2402 11.4023C52.304 11.7168 52.4111 12.0016 52.5615 12.2568C52.7165 12.512 52.9238 12.7171 53.1836 12.8721C53.4479 13.0225 53.776 13.0977 54.168 13.0977ZM61.5508 6.60352V14H60.2793V6.60352H61.5508ZM64.0322 6.60352V7.62891H57.8457V6.60352H64.0322ZM66.3154 9.14648H68.5371C69.1341 9.14648 69.6377 9.2513 70.0479 9.46094C70.458 9.66602 70.7679 9.95085 70.9775 10.3154C71.1917 10.6755 71.2988 11.0856 71.2988 11.5459C71.2988 11.8877 71.2396 12.209 71.1211 12.5098C71.0026 12.806 70.8249 13.0658 70.5879 13.2891C70.3555 13.5124 70.0661 13.6878 69.7197 13.8154C69.3779 13.9385 68.9837 14 68.5371 14H65.3926V6.60352H66.6572V12.9609H68.5371C68.9017 12.9609 69.1934 12.8949 69.4121 12.7627C69.6309 12.6305 69.7881 12.4596 69.8838 12.25C69.9795 12.0404 70.0273 11.8216 70.0273 11.5938C70.0273 11.3704 69.9795 11.1517 69.8838 10.9375C69.7881 10.7233 69.6309 10.5456 69.4121 10.4043C69.1934 10.2585 68.9017 10.1855 68.5371 10.1855H66.3154V9.14648ZM76.0156 10.3838V10.2266C76.0156 9.69336 76.0931 9.19889 76.248 8.74316C76.403 8.28288 76.6263 7.88411 76.918 7.54688C77.2096 7.20508 77.5628 6.94076 77.9775 6.75391C78.3923 6.5625 78.8571 6.4668 79.3721 6.4668C79.8916 6.4668 80.3587 6.5625 80.7734 6.75391C81.1927 6.94076 81.5482 7.20508 81.8398 7.54688C82.1361 7.88411 82.3617 8.28288 82.5166 8.74316C82.6715 9.19889 82.749 9.69336 82.749 10.2266V10.3838C82.749 10.917 82.6715 11.4115 82.5166 11.8672C82.3617 12.3229 82.1361 12.7217 81.8398 13.0635C81.5482 13.4007 81.195 13.665 80.7803 13.8564C80.3701 14.0433 79.9053 14.1367 79.3857 14.1367C78.8662 14.1367 78.3991 14.0433 77.9844 13.8564C77.5697 13.665 77.2142 13.4007 76.918 13.0635C76.6263 12.7217 76.403 12.3229 76.248 11.8672C76.0931 11.4115 76.0156 10.917 76.0156 10.3838ZM77.2803 10.2266V10.3838C77.2803 10.7529 77.3236 11.1016 77.4102 11.4297C77.4967 11.7533 77.6266 12.0404 77.7998 12.291C77.9775 12.5417 78.1986 12.7399 78.4629 12.8857C78.7272 13.027 79.0348 13.0977 79.3857 13.0977C79.7321 13.0977 80.0352 13.027 80.2949 12.8857C80.5592 12.7399 80.778 12.5417 80.9512 12.291C81.1243 12.0404 81.2542 11.7533 81.3408 11.4297C81.432 11.1016 81.4775 10.7529 81.4775 10.3838V10.2266C81.4775 9.86198 81.432 9.5179 81.3408 9.19434C81.2542 8.86621 81.1221 8.57682 80.9443 8.32617C80.7712 8.07096 80.5524 7.87044 80.2881 7.72461C80.0283 7.57878 79.723 7.50586 79.3721 7.50586C79.0257 7.50586 78.7204 7.57878 78.4561 7.72461C78.1963 7.87044 77.9775 8.07096 77.7998 8.32617C77.6266 8.57682 77.4967 8.86621 77.4102 9.19434C77.3236 9.5179 77.2803 9.86198 77.2803 10.2266ZM87.1992 6.60352V14H85.9277V6.60352H87.1992ZM89.6807 6.60352V7.62891H83.4941V6.60352H89.6807ZM91.6699 6.60352H92.9346L92.8252 9.37207C92.7979 10.0739 92.7181 10.68 92.5859 11.1904C92.4538 11.7008 92.2852 12.1361 92.0801 12.4961C91.875 12.8516 91.6449 13.1501 91.3896 13.3916C91.139 13.6331 90.8792 13.8359 90.6104 14H89.9814L90.0156 12.9678L90.2754 12.9609C90.4258 12.7832 90.5716 12.6009 90.7129 12.4141C90.8542 12.2227 90.984 11.9971 91.1025 11.7373C91.221 11.473 91.319 11.1517 91.3965 10.7734C91.4785 10.3906 91.5309 9.9235 91.5537 9.37207L91.6699 6.60352ZM91.9844 6.60352H96.4346V14H95.1699V7.77246H91.9844V6.60352ZM89.6943 12.9609H97.3848V16.1807H96.1201V14H90.959V16.1807H89.6875L89.6943 12.9609ZM101.855 14.1367C101.34 14.1367 100.873 14.0501 100.454 13.877C100.039 13.6992 99.6816 13.4508 99.3809 13.1318C99.0846 12.8128 98.8568 12.4346 98.6973 11.9971C98.5378 11.5596 98.458 11.0811 98.458 10.5615V10.2744C98.458 9.67285 98.5469 9.13737 98.7246 8.66797C98.9023 8.19401 99.1439 7.79297 99.4492 7.46484C99.7546 7.13672 100.101 6.88835 100.488 6.71973C100.876 6.55111 101.277 6.4668 101.691 6.4668C102.22 6.4668 102.676 6.55794 103.059 6.74023C103.446 6.92253 103.763 7.17773 104.009 7.50586C104.255 7.82943 104.437 8.21224 104.556 8.6543C104.674 9.0918 104.733 9.57031 104.733 10.0898V10.6572H99.21V9.625H103.469V9.5293C103.451 9.20117 103.382 8.88216 103.264 8.57227C103.15 8.26237 102.967 8.00716 102.717 7.80664C102.466 7.60612 102.124 7.50586 101.691 7.50586C101.404 7.50586 101.14 7.56738 100.898 7.69043C100.657 7.80892 100.45 7.98665 100.276 8.22363C100.103 8.46061 99.9688 8.75 99.873 9.0918C99.7773 9.43359 99.7295 9.8278 99.7295 10.2744V10.5615C99.7295 10.9124 99.7773 11.2428 99.873 11.5527C99.9733 11.8581 100.117 12.127 100.304 12.3594C100.495 12.5918 100.725 12.7741 100.994 12.9062C101.268 13.0384 101.577 13.1045 101.924 13.1045C102.37 13.1045 102.749 13.0133 103.059 12.8311C103.368 12.6488 103.64 12.4049 103.872 12.0996L104.638 12.708C104.478 12.9495 104.275 13.1797 104.029 13.3984C103.783 13.6172 103.48 13.7949 103.12 13.9316C102.765 14.0684 102.343 14.1367 101.855 14.1367ZM111.152 6.60352V7.64941H107.577V6.60352H111.152ZM112.267 6.60352V14H111.002V6.60352H112.267ZM107.27 6.60352H108.541L108.35 10.1719C108.318 10.7233 108.265 11.2109 108.192 11.6348C108.124 12.054 108.028 12.4141 107.905 12.7148C107.787 13.0156 107.636 13.2617 107.454 13.4531C107.276 13.64 107.062 13.779 106.812 13.8701C106.561 13.9567 106.271 14 105.943 14H105.547V12.8857L105.82 12.8652C106.016 12.8516 106.183 12.806 106.319 12.7285C106.461 12.651 106.579 12.5371 106.675 12.3867C106.771 12.2318 106.848 12.0335 106.907 11.792C106.971 11.5505 107.019 11.2633 107.051 10.9307C107.087 10.598 107.115 10.2106 107.133 9.76855L107.27 6.60352ZM115.678 6.60352V14H114.413V6.60352H115.678ZM120.531 6.60352L117.024 10.8418H115.254L115.062 9.73438H116.512L118.993 6.60352H120.531ZM119.171 14L116.45 10.6504L117.264 9.73438L120.777 14H119.171ZM123.245 11.9971L126.656 6.60352H127.928V14H126.656V8.60645L123.245 14H121.987V6.60352H123.245V11.9971ZM138.359 6.60352V7.64941H134.62V6.60352H138.359ZM134.805 6.60352V14H133.54V6.60352H134.805ZM139.48 6.60352V14H138.209V6.60352H139.48ZM141.176 10.3838V10.2266C141.176 9.69336 141.253 9.19889 141.408 8.74316C141.563 8.28288 141.786 7.88411 142.078 7.54688C142.37 7.20508 142.723 6.94076 143.138 6.75391C143.552 6.5625 144.017 6.4668 144.532 6.4668C145.052 6.4668 145.519 6.5625 145.934 6.75391C146.353 6.94076 146.708 7.20508 147 7.54688C147.296 7.88411 147.522 8.28288 147.677 8.74316C147.832 9.19889 147.909 9.69336 147.909 10.2266V10.3838C147.909 10.917 147.832 11.4115 147.677 11.8672C147.522 12.3229 147.296 12.7217 147 13.0635C146.708 13.4007 146.355 13.665 145.94 13.8564C145.53 14.0433 145.065 14.1367 144.546 14.1367C144.026 14.1367 143.559 14.0433 143.145 13.8564C142.73 13.665 142.374 13.4007 142.078 13.0635C141.786 12.7217 141.563 12.3229 141.408 11.8672C141.253 11.4115 141.176 10.917 141.176 10.3838ZM142.44 10.2266V10.3838C142.44 10.7529 142.484 11.1016 142.57 11.4297C142.657 11.7533 142.787 12.0404 142.96 12.291C143.138 12.5417 143.359 12.7399 143.623 12.8857C143.887 13.027 144.195 13.0977 144.546 13.0977C144.892 13.0977 145.195 13.027 145.455 12.8857C145.719 12.7399 145.938 12.5417 146.111 12.291C146.285 12.0404 146.414 11.7533 146.501 11.4297C146.592 11.1016 146.638 10.7529 146.638 10.3838V10.2266C146.638 9.86198 146.592 9.5179 146.501 9.19434C146.414 8.86621 146.282 8.57682 146.104 8.32617C145.931 8.07096 145.713 7.87044 145.448 7.72461C145.188 7.57878 144.883 7.50586 144.532 7.50586C144.186 7.50586 143.881 7.57878 143.616 7.72461C143.356 7.87044 143.138 8.07096 142.96 8.32617C142.787 8.57682 142.657 8.86621 142.57 9.19434C142.484 9.5179 142.44 9.86198 142.44 10.2266ZM153.747 12.3184L156.263 6.60352H157.479L154.185 14H153.31L150.028 6.60352H151.245L153.747 12.3184ZM150.876 6.60352V14H149.611V6.60352H150.876ZM156.577 14V6.60352H157.849V14H156.577ZM162.955 14.1367C162.44 14.1367 161.973 14.0501 161.554 13.877C161.139 13.6992 160.781 13.4508 160.48 13.1318C160.184 12.8128 159.956 12.4346 159.797 11.9971C159.637 11.5596 159.558 11.0811 159.558 10.5615V10.2744C159.558 9.67285 159.646 9.13737 159.824 8.66797C160.002 8.19401 160.243 7.79297 160.549 7.46484C160.854 7.13672 161.201 6.88835 161.588 6.71973C161.975 6.55111 162.376 6.4668 162.791 6.4668C163.32 6.4668 163.775 6.55794 164.158 6.74023C164.546 6.92253 164.862 7.17773 165.108 7.50586C165.354 7.82943 165.537 8.21224 165.655 8.6543C165.774 9.0918 165.833 9.57031 165.833 10.0898V10.6572H160.31V9.625H164.568V9.5293C164.55 9.20117 164.482 8.88216 164.363 8.57227C164.249 8.26237 164.067 8.00716 163.816 7.80664C163.566 7.60612 163.224 7.50586 162.791 7.50586C162.504 7.50586 162.24 7.56738 161.998 7.69043C161.757 7.80892 161.549 7.98665 161.376 8.22363C161.203 8.46061 161.068 8.75 160.973 9.0918C160.877 9.43359 160.829 9.8278 160.829 10.2744V10.5615C160.829 10.9124 160.877 11.2428 160.973 11.5527C161.073 11.8581 161.216 12.127 161.403 12.3594C161.595 12.5918 161.825 12.7741 162.094 12.9062C162.367 13.0384 162.677 13.1045 163.023 13.1045C163.47 13.1045 163.848 13.0133 164.158 12.8311C164.468 12.6488 164.739 12.4049 164.972 12.0996L165.737 12.708C165.578 12.9495 165.375 13.1797 165.129 13.3984C164.883 13.6172 164.58 13.7949 164.22 13.9316C163.864 14.0684 163.443 14.1367 162.955 14.1367ZM177.591 12.9609L177.468 16.1943H176.34V14H175.376V12.9609H177.591ZM167.344 6.60352H168.608V12.9609H171.315V6.60352H172.587V12.9609H175.287V6.60352H176.552V14H167.344V6.60352ZM182.055 14.1367C181.54 14.1367 181.073 14.0501 180.653 13.877C180.239 13.6992 179.881 13.4508 179.58 13.1318C179.284 12.8128 179.056 12.4346 178.896 11.9971C178.737 11.5596 178.657 11.0811 178.657 10.5615V10.2744C178.657 9.67285 178.746 9.13737 178.924 8.66797C179.102 8.19401 179.343 7.79297 179.648 7.46484C179.954 7.13672 180.3 6.88835 180.688 6.71973C181.075 6.55111 181.476 6.4668 181.891 6.4668C182.419 6.4668 182.875 6.55794 183.258 6.74023C183.645 6.92253 183.962 7.17773 184.208 7.50586C184.454 7.82943 184.636 8.21224 184.755 8.6543C184.873 9.0918 184.933 9.57031 184.933 10.0898V10.6572H179.409V9.625H183.668V9.5293C183.65 9.20117 183.581 8.88216 183.463 8.57227C183.349 8.26237 183.167 8.00716 182.916 7.80664C182.665 7.60612 182.324 7.50586 181.891 7.50586C181.604 7.50586 181.339 7.56738 181.098 7.69043C180.856 7.80892 180.649 7.98665 180.476 8.22363C180.302 8.46061 180.168 8.75 180.072 9.0918C179.977 9.43359 179.929 9.8278 179.929 10.2744V10.5615C179.929 10.9124 179.977 11.2428 180.072 11.5527C180.173 11.8581 180.316 12.127 180.503 12.3594C180.694 12.5918 180.924 12.7741 181.193 12.9062C181.467 13.0384 181.777 13.1045 182.123 13.1045C182.57 13.1045 182.948 13.0133 183.258 12.8311C183.568 12.6488 183.839 12.4049 184.071 12.0996L184.837 12.708C184.677 12.9495 184.475 13.1797 184.229 13.3984C183.982 13.6172 183.679 13.7949 183.319 13.9316C182.964 14.0684 182.542 14.1367 182.055 14.1367ZM191.427 9.80957V10.835H187.517V9.80957H191.427ZM187.783 6.60352V14H186.519V6.60352H187.783ZM192.452 6.60352V14H191.181V6.60352H192.452ZM195.856 11.9971L199.268 6.60352H200.539V14H199.268V8.60645L195.856 14H194.599V6.60352H195.856V11.9971ZM203.937 11.9971L207.348 6.60352H208.619V14H207.348V8.60645L203.937 14H202.679V6.60352H203.937V11.9971ZM206.657 3.92383H207.683C207.683 4.2793 207.601 4.59603 207.437 4.87402C207.272 5.14746 207.038 5.36165 206.732 5.5166C206.427 5.67155 206.065 5.74902 205.646 5.74902C205.012 5.74902 204.511 5.5804 204.142 5.24316C203.777 4.90137 203.595 4.46159 203.595 3.92383H204.62C204.62 4.19271 204.698 4.42969 204.853 4.63477C205.007 4.83984 205.272 4.94238 205.646 4.94238C206.01 4.94238 206.27 4.83984 206.425 4.63477C206.58 4.42969 206.657 4.19271 206.657 3.92383ZM210.67 13.3301C210.67 13.1159 210.736 12.9359 210.868 12.79C211.005 12.6396 211.201 12.5645 211.456 12.5645C211.711 12.5645 211.905 12.6396 212.037 12.79C212.174 12.9359 212.242 13.1159 212.242 13.3301C212.242 13.5397 212.174 13.7174 212.037 13.8633C211.905 14.0091 211.711 14.082 211.456 14.082C211.201 14.082 211.005 14.0091 210.868 13.8633C210.736 13.7174 210.67 13.5397 210.67 13.3301Z" fill="#303030" fill-opacity="0.9"/>
</svg>
