<svg width="237" height="36" viewBox="0 0 237 36" fill="none" xmlns="http://www.w3.org/2000/svg">
<path d="M3.92383 13.0977C4.22461 13.0977 4.5026 13.0361 4.75781 12.9131C5.01302 12.79 5.22266 12.6214 5.38672 12.4072C5.55078 12.1885 5.64421 11.9401 5.66699 11.6621H6.87012C6.84733 12.0996 6.69922 12.5075 6.42578 12.8857C6.1569 13.2594 5.80371 13.5625 5.36621 13.7949C4.92871 14.0228 4.44792 14.1367 3.92383 14.1367C3.36784 14.1367 2.88249 14.0387 2.46777 13.8428C2.05762 13.6468 1.71582 13.3779 1.44238 13.0361C1.1735 12.6943 0.970703 12.3024 0.833984 11.8604C0.701823 11.4137 0.635742 10.9421 0.635742 10.4453V10.1582C0.635742 9.66146 0.701823 9.19206 0.833984 8.75C0.970703 8.30339 1.1735 7.90918 1.44238 7.56738C1.71582 7.22559 2.05762 6.95671 2.46777 6.76074C2.88249 6.56478 3.36784 6.4668 3.92383 6.4668C4.5026 6.4668 5.00846 6.58529 5.44141 6.82227C5.87435 7.05469 6.21387 7.3737 6.45996 7.7793C6.71061 8.18034 6.84733 8.63607 6.87012 9.14648H5.66699C5.64421 8.84115 5.55762 8.56543 5.40723 8.31934C5.26139 8.07324 5.06087 7.87728 4.80566 7.73145C4.55501 7.58105 4.26107 7.50586 3.92383 7.50586C3.53646 7.50586 3.21061 7.58333 2.94629 7.73828C2.68652 7.88867 2.47917 8.09375 2.32422 8.35352C2.17383 8.60872 2.06445 8.89355 1.99609 9.20801C1.93229 9.5179 1.90039 9.83464 1.90039 10.1582V10.4453C1.90039 10.7689 1.93229 11.0879 1.99609 11.4023C2.0599 11.7168 2.16699 12.0016 2.31738 12.2568C2.47233 12.512 2.67969 12.7171 2.93945 12.8721C3.20378 13.0225 3.5319 13.0977 3.92383 13.0977ZM9.14648 6.60352L10.7666 9.29688L12.4072 6.60352H13.8906L11.4707 10.2539L13.9658 14H12.5029L10.7939 11.2246L9.08496 14H7.61523L10.1035 10.2539L7.69043 6.60352H9.14648ZM18.1699 14.1367C17.6549 14.1367 17.1878 14.0501 16.7686 13.877C16.3538 13.6992 15.9961 13.4508 15.6953 13.1318C15.3991 12.8128 15.1712 12.4346 15.0117 11.9971C14.8522 11.5596 14.7725 11.0811 14.7725 10.5615V10.2744C14.7725 9.67285 14.8613 9.13737 15.0391 8.66797C15.2168 8.19401 15.4583 7.79297 15.7637 7.46484C16.069 7.13672 16.4154 6.88835 16.8027 6.71973C17.1901 6.55111 17.5911 6.4668 18.0059 6.4668C18.5345 6.4668 18.9902 6.55794 19.373 6.74023C19.7604 6.92253 20.0771 7.17773 20.3232 7.50586C20.5693 7.82943 20.7516 8.21224 20.8701 8.6543C20.9886 9.0918 21.0479 9.57031 21.0479 10.0898V10.6572H15.5244V9.625H19.7832V9.5293C19.765 9.20117 19.6966 8.88216 19.5781 8.57227C19.4642 8.26237 19.2819 8.00716 19.0312 7.80664C18.7806 7.60612 18.4388 7.50586 18.0059 7.50586C17.7188 7.50586 17.4544 7.56738 17.2129 7.69043C16.9714 7.80892 16.764 7.98665 16.5908 8.22363C16.4176 8.46061 16.2832 8.75 16.1875 9.0918C16.0918 9.43359 16.0439 9.8278 16.0439 10.2744V10.5615C16.0439 10.9124 16.0918 11.2428 16.1875 11.5527C16.2878 11.8581 16.4313 12.127 16.6182 12.3594C16.8096 12.5918 17.0397 12.7741 17.3086 12.9062C17.582 13.0384 17.8919 13.1045 18.2383 13.1045C18.6849 13.1045 19.0632 13.0133 19.373 12.8311C19.6829 12.6488 19.9541 12.4049 20.1865 12.0996L20.9521 12.708C20.7926 12.9495 20.5898 13.1797 20.3438 13.3984C20.0977 13.6172 19.7946 13.7949 19.4346 13.9316C19.0791 14.0684 18.6576 14.1367 18.1699 14.1367ZM26.7764 12.3184L29.292 6.60352H30.5088L27.2139 14H26.3389L23.0576 6.60352H24.2744L26.7764 12.3184ZM23.9053 6.60352V14H22.6406V6.60352H23.9053ZM29.6064 14V6.60352H30.8779V14H29.6064ZM37.2764 12.7354V8.92773C37.2764 8.63607 37.2171 8.38314 37.0986 8.16895C36.9847 7.9502 36.8115 7.78158 36.5791 7.66309C36.3467 7.5446 36.0596 7.48535 35.7178 7.48535C35.3988 7.48535 35.1185 7.54004 34.877 7.64941C34.64 7.75879 34.4531 7.90234 34.3164 8.08008C34.1842 8.25781 34.1182 8.44922 34.1182 8.6543H32.8535C32.8535 8.38997 32.9219 8.12793 33.0586 7.86816C33.1953 7.6084 33.3913 7.3737 33.6465 7.16406C33.9062 6.94987 34.2161 6.78125 34.5762 6.6582C34.9408 6.5306 35.3464 6.4668 35.793 6.4668C36.3307 6.4668 36.8047 6.55794 37.2148 6.74023C37.6296 6.92253 37.9531 7.19824 38.1855 7.56738C38.4225 7.93197 38.541 8.38997 38.541 8.94141V12.3867C38.541 12.6328 38.5615 12.8949 38.6025 13.1729C38.6481 13.4508 38.7142 13.6901 38.8008 13.8906V14H37.4814C37.4176 13.8542 37.3675 13.6605 37.3311 13.4189C37.2946 13.1729 37.2764 12.945 37.2764 12.7354ZM37.4951 9.51562L37.5088 10.4043H36.2305C35.8704 10.4043 35.5492 10.4339 35.2666 10.4932C34.984 10.5479 34.7471 10.6322 34.5557 10.7461C34.3643 10.86 34.2184 11.0036 34.1182 11.1768C34.0179 11.3454 33.9678 11.5436 33.9678 11.7715C33.9678 12.0039 34.0202 12.2158 34.125 12.4072C34.2298 12.5986 34.387 12.7513 34.5967 12.8652C34.8109 12.9746 35.0729 13.0293 35.3828 13.0293C35.7702 13.0293 36.112 12.9473 36.4082 12.7832C36.7044 12.6191 36.9391 12.4186 37.1123 12.1816C37.29 11.9447 37.3857 11.7145 37.3994 11.4912L37.9395 12.0996C37.9076 12.291 37.821 12.5029 37.6797 12.7354C37.5384 12.9678 37.3493 13.1911 37.1123 13.4053C36.8799 13.6149 36.6019 13.7904 36.2783 13.9316C35.9593 14.0684 35.5993 14.1367 35.1982 14.1367C34.6969 14.1367 34.2572 14.0387 33.8789 13.8428C33.5052 13.6468 33.2135 13.3848 33.0039 13.0566C32.7988 12.724 32.6963 12.3525 32.6963 11.9424C32.6963 11.5459 32.7738 11.1973 32.9287 10.8965C33.0837 10.5911 33.307 10.3382 33.5986 10.1377C33.8903 9.93262 34.2412 9.77767 34.6514 9.67285C35.0615 9.56803 35.5195 9.51562 36.0254 9.51562H37.4951ZM45.2676 8.02539V16.8438H43.9961V6.60352H45.1582L45.2676 8.02539ZM50.251 10.2402V10.3838C50.251 10.9215 50.1872 11.4206 50.0596 11.8809C49.932 12.3366 49.7451 12.7331 49.499 13.0703C49.2575 13.4076 48.959 13.6696 48.6035 13.8564C48.248 14.0433 47.8402 14.1367 47.3799 14.1367C46.9105 14.1367 46.4958 14.0592 46.1357 13.9043C45.7757 13.7493 45.4704 13.5238 45.2197 13.2275C44.9691 12.9313 44.7686 12.5758 44.6182 12.1611C44.4723 11.7464 44.3721 11.2793 44.3174 10.7598V9.99414C44.3721 9.44727 44.4746 8.95736 44.625 8.52441C44.7754 8.09147 44.9736 7.72233 45.2197 7.41699C45.4704 7.1071 45.7734 6.8724 46.1289 6.71289C46.4844 6.54883 46.8945 6.4668 47.3594 6.4668C47.8242 6.4668 48.2367 6.55794 48.5967 6.74023C48.9567 6.91797 49.2598 7.17318 49.5059 7.50586C49.752 7.83854 49.9365 8.2373 50.0596 8.70215C50.1872 9.16243 50.251 9.67513 50.251 10.2402ZM48.9795 10.3838V10.2402C48.9795 9.87109 48.9408 9.52474 48.8633 9.20117C48.7858 8.87305 48.665 8.58594 48.501 8.33984C48.3415 8.08919 48.1364 7.89323 47.8857 7.75195C47.6351 7.60612 47.3366 7.5332 46.9902 7.5332C46.6712 7.5332 46.3932 7.58789 46.1562 7.69727C45.9238 7.80664 45.7256 7.95475 45.5615 8.1416C45.3975 8.32389 45.263 8.53353 45.1582 8.77051C45.0579 9.00293 44.9827 9.24447 44.9326 9.49512V11.2656C45.0238 11.5846 45.1514 11.8854 45.3154 12.168C45.4795 12.446 45.6982 12.6715 45.9717 12.8447C46.2451 13.0133 46.5892 13.0977 47.0039 13.0977C47.3457 13.0977 47.6396 13.027 47.8857 12.8857C48.1364 12.7399 48.3415 12.5417 48.501 12.291C48.665 12.0404 48.7858 11.7533 48.8633 11.4297C48.9408 11.1016 48.9795 10.7529 48.9795 10.3838ZM56.2256 12.7354V8.92773C56.2256 8.63607 56.1663 8.38314 56.0479 8.16895C55.9339 7.9502 55.7607 7.78158 55.5283 7.66309C55.2959 7.5446 55.0088 7.48535 54.667 7.48535C54.348 7.48535 54.0677 7.54004 53.8262 7.64941C53.5892 7.75879 53.4023 7.90234 53.2656 8.08008C53.1335 8.25781 53.0674 8.44922 53.0674 8.6543H51.8027C51.8027 8.38997 51.8711 8.12793 52.0078 7.86816C52.1445 7.6084 52.3405 7.3737 52.5957 7.16406C52.8555 6.94987 53.1654 6.78125 53.5254 6.6582C53.89 6.5306 54.2956 6.4668 54.7422 6.4668C55.2799 6.4668 55.7539 6.55794 56.1641 6.74023C56.5788 6.92253 56.9023 7.19824 57.1348 7.56738C57.3717 7.93197 57.4902 8.38997 57.4902 8.94141V12.3867C57.4902 12.6328 57.5107 12.8949 57.5518 13.1729C57.5973 13.4508 57.6634 13.6901 57.75 13.8906V14H56.4307C56.3669 13.8542 56.3167 13.6605 56.2803 13.4189C56.2438 13.1729 56.2256 12.945 56.2256 12.7354ZM56.4443 9.51562L56.458 10.4043H55.1797C54.8197 10.4043 54.4984 10.4339 54.2158 10.4932C53.9333 10.5479 53.6963 10.6322 53.5049 10.7461C53.3135 10.86 53.1676 11.0036 53.0674 11.1768C52.9671 11.3454 52.917 11.5436 52.917 11.7715C52.917 12.0039 52.9694 12.2158 53.0742 12.4072C53.179 12.5986 53.3363 12.7513 53.5459 12.8652C53.7601 12.9746 54.0221 13.0293 54.332 13.0293C54.7194 13.0293 55.0612 12.9473 55.3574 12.7832C55.6536 12.6191 55.8883 12.4186 56.0615 12.1816C56.2393 11.9447 56.335 11.7145 56.3486 11.4912L56.8887 12.0996C56.8568 12.291 56.7702 12.5029 56.6289 12.7354C56.4876 12.9678 56.2985 13.1911 56.0615 13.4053C55.8291 13.6149 55.5511 13.7904 55.2275 13.9316C54.9085 14.0684 54.5485 14.1367 54.1475 14.1367C53.6462 14.1367 53.2064 14.0387 52.8281 13.8428C52.4544 13.6468 52.1628 13.3848 51.9531 13.0566C51.748 12.724 51.6455 12.3525 51.6455 11.9424C51.6455 11.5459 51.723 11.1973 51.8779 10.8965C52.0329 10.5911 52.2562 10.3382 52.5479 10.1377C52.8395 9.93262 53.1904 9.77767 53.6006 9.67285C54.0107 9.56803 54.4688 9.51562 54.9746 9.51562H56.4443ZM62.2412 10.4658H60.8809V9.68652H62.1387C62.4896 9.68652 62.7676 9.64323 62.9727 9.55664C63.1777 9.46549 63.3236 9.34017 63.4102 9.18066C63.4967 9.02116 63.54 8.83431 63.54 8.62012C63.54 8.42871 63.4899 8.2487 63.3896 8.08008C63.2939 7.9069 63.139 7.7679 62.9248 7.66309C62.7106 7.55371 62.4235 7.49902 62.0635 7.49902C61.7718 7.49902 61.5075 7.55143 61.2705 7.65625C61.0335 7.75651 60.8444 7.89551 60.7031 8.07324C60.5664 8.24642 60.498 8.44238 60.498 8.66113H59.2334C59.2334 8.20996 59.361 7.82259 59.6162 7.49902C59.876 7.1709 60.2201 6.91797 60.6484 6.74023C61.0814 6.5625 61.5531 6.47363 62.0635 6.47363C62.4919 6.47363 62.8747 6.52148 63.2119 6.61719C63.5537 6.70833 63.8431 6.84505 64.0801 7.02734C64.3171 7.20508 64.4971 7.42839 64.6201 7.69727C64.7477 7.96159 64.8115 8.26921 64.8115 8.62012C64.8115 8.87077 64.7523 9.10775 64.6338 9.33105C64.5153 9.55436 64.3444 9.7526 64.1211 9.92578C63.8978 10.0944 63.6266 10.2266 63.3076 10.3223C62.9932 10.418 62.6377 10.4658 62.2412 10.4658ZM60.8809 9.9873H62.2412C62.6833 9.9873 63.0729 10.0306 63.4102 10.1172C63.7474 10.1992 64.0299 10.3223 64.2578 10.4863C64.4857 10.6504 64.6566 10.8532 64.7705 11.0947C64.889 11.3317 64.9482 11.6051 64.9482 11.915C64.9482 12.2614 64.8776 12.5736 64.7363 12.8516C64.5996 13.125 64.4036 13.3574 64.1484 13.5488C63.8932 13.7402 63.5879 13.8861 63.2324 13.9863C62.8815 14.0866 62.4919 14.1367 62.0635 14.1367C61.585 14.1367 61.1201 14.0547 60.6689 13.8906C60.2178 13.7266 59.8464 13.4736 59.5547 13.1318C59.263 12.7855 59.1172 12.3457 59.1172 11.8125H60.3818C60.3818 12.0358 60.4525 12.2477 60.5938 12.4482C60.735 12.6488 60.931 12.8105 61.1816 12.9336C61.4368 13.0566 61.7308 13.1182 62.0635 13.1182C62.4189 13.1182 62.7152 13.0635 62.9521 12.9541C63.1891 12.8447 63.3669 12.6989 63.4854 12.5166C63.6084 12.3343 63.6699 12.1361 63.6699 11.9219C63.6699 11.6439 63.6152 11.4206 63.5059 11.252C63.3965 11.0833 63.2279 10.9603 63 10.8828C62.7767 10.8008 62.4896 10.7598 62.1387 10.7598H60.8809V9.9873ZM70.8408 12.3184L73.3564 6.60352H74.5732L71.2783 14H70.4033L67.1221 6.60352H68.3389L70.8408 12.3184ZM67.9697 6.60352V14H66.7051V6.60352H67.9697ZM73.6709 14V6.60352H74.9424V14H73.6709ZM80.0488 14.1367C79.5339 14.1367 79.0667 14.0501 78.6475 13.877C78.2327 13.6992 77.875 13.4508 77.5742 13.1318C77.278 12.8128 77.0501 12.4346 76.8906 11.9971C76.7311 11.5596 76.6514 11.0811 76.6514 10.5615V10.2744C76.6514 9.67285 76.7402 9.13737 76.918 8.66797C77.0957 8.19401 77.3372 7.79297 77.6426 7.46484C77.9479 7.13672 78.2943 6.88835 78.6816 6.71973C79.069 6.55111 79.4701 6.4668 79.8848 6.4668C80.4134 6.4668 80.8691 6.55794 81.252 6.74023C81.6393 6.92253 81.9561 7.17773 82.2021 7.50586C82.4482 7.82943 82.6305 8.21224 82.749 8.6543C82.8675 9.0918 82.9268 9.57031 82.9268 10.0898V10.6572H77.4033V9.625H81.6621V9.5293C81.6439 9.20117 81.5755 8.88216 81.457 8.57227C81.3431 8.26237 81.1608 8.00716 80.9102 7.80664C80.6595 7.60612 80.3177 7.50586 79.8848 7.50586C79.5977 7.50586 79.3333 7.56738 79.0918 7.69043C78.8503 7.80892 78.6429 7.98665 78.4697 8.22363C78.2965 8.46061 78.1621 8.75 78.0664 9.0918C77.9707 9.43359 77.9229 9.8278 77.9229 10.2744V10.5615C77.9229 10.9124 77.9707 11.2428 78.0664 11.5527C78.1667 11.8581 78.3102 12.127 78.4971 12.3594C78.6885 12.5918 78.9186 12.7741 79.1875 12.9062C79.4609 13.0384 79.7708 13.1045 80.1172 13.1045C80.5638 13.1045 80.9421 13.0133 81.252 12.8311C81.5618 12.6488 81.833 12.4049 82.0654 12.0996L82.8311 12.708C82.6715 12.9495 82.4688 13.1797 82.2227 13.3984C81.9766 13.6172 81.6735 13.7949 81.3135 13.9316C80.958 14.0684 80.5365 14.1367 80.0488 14.1367ZM94.6846 12.9609L94.5615 16.1943H93.4336V14H92.4697V12.9609H94.6846ZM84.4375 6.60352H85.7021V12.9609H88.4092V6.60352H89.6807V12.9609H92.3809V6.60352H93.6455V14H84.4375V6.60352ZM99.1484 14.1367C98.6335 14.1367 98.1663 14.0501 97.7471 13.877C97.3324 13.6992 96.9746 13.4508 96.6738 13.1318C96.3776 12.8128 96.1497 12.4346 95.9902 11.9971C95.8307 11.5596 95.751 11.0811 95.751 10.5615V10.2744C95.751 9.67285 95.8398 9.13737 96.0176 8.66797C96.1953 8.19401 96.4368 7.79297 96.7422 7.46484C97.0475 7.13672 97.3939 6.88835 97.7812 6.71973C98.1686 6.55111 98.5697 6.4668 98.9844 6.4668C99.513 6.4668 99.9688 6.55794 100.352 6.74023C100.739 6.92253 101.056 7.17773 101.302 7.50586C101.548 7.82943 101.73 8.21224 101.849 8.6543C101.967 9.0918 102.026 9.57031 102.026 10.0898V10.6572H96.5029V9.625H100.762V9.5293C100.743 9.20117 100.675 8.88216 100.557 8.57227C100.443 8.26237 100.26 8.00716 100.01 7.80664C99.7591 7.60612 99.4173 7.50586 98.9844 7.50586C98.6973 7.50586 98.4329 7.56738 98.1914 7.69043C97.9499 7.80892 97.7425 7.98665 97.5693 8.22363C97.3962 8.46061 97.2617 8.75 97.166 9.0918C97.0703 9.43359 97.0225 9.8278 97.0225 10.2744V10.5615C97.0225 10.9124 97.0703 11.2428 97.166 11.5527C97.2663 11.8581 97.4098 12.127 97.5967 12.3594C97.7881 12.5918 98.0182 12.7741 98.2871 12.9062C98.5605 13.0384 98.8704 13.1045 99.2168 13.1045C99.6634 13.1045 100.042 13.0133 100.352 12.8311C100.661 12.6488 100.933 12.4049 101.165 12.0996L101.931 12.708C101.771 12.9495 101.568 13.1797 101.322 13.3984C101.076 13.6172 100.773 13.7949 100.413 13.9316C100.058 14.0684 99.6361 14.1367 99.1484 14.1367ZM108.521 9.80957V10.835H104.61V9.80957H108.521ZM104.877 6.60352V14H103.612V6.60352H104.877ZM109.546 6.60352V14H108.274V6.60352H109.546ZM112.95 11.9971L116.361 6.60352H117.633V14H116.361V8.60645L112.95 14H111.692V6.60352H112.95V11.9971ZM121.16 10.4727H122.527L120.388 14H119.021L121.16 10.4727ZM122.22 6.60352H125.31V14H124.045V7.62891H122.22C121.86 7.62891 121.566 7.69043 121.338 7.81348C121.11 7.93197 120.944 8.08691 120.839 8.27832C120.734 8.46973 120.682 8.66797 120.682 8.87305C120.682 9.07357 120.729 9.26725 120.825 9.4541C120.921 9.63639 121.071 9.78678 121.276 9.90527C121.481 10.0238 121.746 10.083 122.069 10.083H124.387V11.1221H122.069C121.646 11.1221 121.27 11.0651 120.941 10.9512C120.613 10.8372 120.335 10.68 120.107 10.4795C119.88 10.2744 119.706 10.0352 119.588 9.76172C119.469 9.48372 119.41 9.18294 119.41 8.85938C119.41 8.53581 119.472 8.2373 119.595 7.96387C119.722 7.69043 119.905 7.45117 120.142 7.24609C120.383 7.04102 120.677 6.88379 121.023 6.77441C121.374 6.66048 121.773 6.60352 122.22 6.60352ZM135.563 3.38379H136.603C136.603 3.8304 136.534 4.18587 136.397 4.4502C136.261 4.70996 136.074 4.91048 135.837 5.05176C135.604 5.19303 135.34 5.30013 135.044 5.37305C134.752 5.44596 134.449 5.5166 134.135 5.58496C133.743 5.66699 133.378 5.79688 133.041 5.97461C132.708 6.14779 132.421 6.39388 132.18 6.71289C131.943 7.0319 131.767 7.44661 131.653 7.95703C131.544 8.46745 131.514 9.09863 131.564 9.85059V10.4795H130.525V9.85059C130.525 9.00749 130.605 8.27148 130.765 7.64258C130.929 7.01367 131.159 6.48275 131.455 6.0498C131.751 5.61686 132.102 5.27279 132.508 5.01758C132.918 4.76237 133.369 4.58691 133.861 4.49121C134.217 4.42285 134.522 4.34993 134.777 4.27246C135.033 4.19043 135.226 4.08105 135.358 3.94434C135.495 3.80762 135.563 3.62077 135.563 3.38379ZM134.066 7.02734C134.549 7.02734 134.98 7.11165 135.358 7.28027C135.737 7.44889 136.058 7.68359 136.322 7.98438C136.587 8.28516 136.787 8.64062 136.924 9.05078C137.065 9.45638 137.136 9.89844 137.136 10.377V10.5273C137.136 11.0423 137.061 11.5208 136.91 11.9629C136.764 12.4004 136.548 12.7832 136.261 13.1113C135.978 13.4349 135.632 13.6878 135.222 13.8701C134.816 14.0524 134.354 14.1436 133.834 14.1436C133.314 14.1436 132.85 14.0524 132.439 13.8701C132.034 13.6878 131.688 13.4349 131.4 13.1113C131.113 12.7832 130.895 12.4004 130.744 11.9629C130.598 11.5208 130.525 11.0423 130.525 10.5273V10.377C130.525 10.263 130.546 10.1514 130.587 10.042C130.628 9.93262 130.678 9.82096 130.737 9.70703C130.801 9.5931 130.858 9.47233 130.908 9.34473C131.077 8.93457 131.307 8.55404 131.599 8.20312C131.895 7.85221 132.248 7.56966 132.658 7.35547C133.073 7.13672 133.542 7.02734 134.066 7.02734ZM133.82 8.05957C133.355 8.05957 132.973 8.16667 132.672 8.38086C132.376 8.59505 132.155 8.87988 132.009 9.23535C131.863 9.58626 131.79 9.9668 131.79 10.377V10.5273C131.79 10.8737 131.831 11.2018 131.913 11.5117C131.995 11.8216 132.118 12.0973 132.282 12.3389C132.451 12.5758 132.663 12.7627 132.918 12.8994C133.178 13.0361 133.483 13.1045 133.834 13.1045C134.185 13.1045 134.488 13.0361 134.743 12.8994C134.998 12.7627 135.208 12.5758 135.372 12.3389C135.536 12.0973 135.659 11.8216 135.741 11.5117C135.823 11.2018 135.864 10.8737 135.864 10.5273V10.377C135.864 10.0671 135.823 9.77311 135.741 9.49512C135.659 9.21712 135.534 8.97103 135.365 8.75684C135.201 8.54264 134.989 8.37402 134.729 8.25098C134.474 8.12337 134.171 8.05957 133.82 8.05957ZM143.514 6.60352V7.64941H139.938V6.60352H143.514ZM144.628 6.60352V14H143.363V6.60352H144.628ZM139.631 6.60352H140.902L140.711 10.1719C140.679 10.7233 140.627 11.2109 140.554 11.6348C140.485 12.054 140.39 12.4141 140.267 12.7148C140.148 13.0156 139.998 13.2617 139.815 13.4531C139.638 13.64 139.424 13.779 139.173 13.8701C138.922 13.9567 138.633 14 138.305 14H137.908V12.8857L138.182 12.8652C138.378 12.8516 138.544 12.806 138.681 12.7285C138.822 12.651 138.94 12.5371 139.036 12.3867C139.132 12.2318 139.209 12.0335 139.269 11.792C139.332 11.5505 139.38 11.2633 139.412 10.9307C139.449 10.598 139.476 10.2106 139.494 9.76855L139.631 6.60352ZM146.33 10.3838V10.2266C146.33 9.69336 146.408 9.19889 146.562 8.74316C146.717 8.28288 146.941 7.88411 147.232 7.54688C147.524 7.20508 147.877 6.94076 148.292 6.75391C148.707 6.5625 149.172 6.4668 149.687 6.4668C150.206 6.4668 150.673 6.5625 151.088 6.75391C151.507 6.94076 151.863 7.20508 152.154 7.54688C152.451 7.88411 152.676 8.28288 152.831 8.74316C152.986 9.19889 153.063 9.69336 153.063 10.2266V10.3838C153.063 10.917 152.986 11.4115 152.831 11.8672C152.676 12.3229 152.451 12.7217 152.154 13.0635C151.863 13.4007 151.509 13.665 151.095 13.8564C150.685 14.0433 150.22 14.1367 149.7 14.1367C149.181 14.1367 148.714 14.0433 148.299 13.8564C147.884 13.665 147.529 13.4007 147.232 13.0635C146.941 12.7217 146.717 12.3229 146.562 11.8672C146.408 11.4115 146.33 10.917 146.33 10.3838ZM147.595 10.2266V10.3838C147.595 10.7529 147.638 11.1016 147.725 11.4297C147.811 11.7533 147.941 12.0404 148.114 12.291C148.292 12.5417 148.513 12.7399 148.777 12.8857C149.042 13.027 149.349 13.0977 149.7 13.0977C150.047 13.0977 150.35 13.027 150.609 12.8857C150.874 12.7399 151.092 12.5417 151.266 12.291C151.439 12.0404 151.569 11.7533 151.655 11.4297C151.746 11.1016 151.792 10.7529 151.792 10.3838V10.2266C151.792 9.86198 151.746 9.5179 151.655 9.19434C151.569 8.86621 151.437 8.57682 151.259 8.32617C151.086 8.07096 150.867 7.87044 150.603 7.72461C150.343 7.57878 150.037 7.50586 149.687 7.50586C149.34 7.50586 149.035 7.57878 148.771 7.72461C148.511 7.87044 148.292 8.07096 148.114 8.32617C147.941 8.57682 147.811 8.86621 147.725 9.19434C147.638 9.5179 147.595 9.86198 147.595 10.2266ZM156.023 6.60352V14H154.759V6.60352H156.023ZM160.877 6.60352L157.37 10.8418H155.6L155.408 9.73438H156.857L159.339 6.60352H160.877ZM159.517 14L156.796 10.6504L157.609 9.73438L161.123 14H159.517ZM161.738 10.3838V10.2266C161.738 9.69336 161.816 9.19889 161.971 8.74316C162.126 8.28288 162.349 7.88411 162.641 7.54688C162.932 7.20508 163.285 6.94076 163.7 6.75391C164.115 6.5625 164.58 6.4668 165.095 6.4668C165.614 6.4668 166.081 6.5625 166.496 6.75391C166.915 6.94076 167.271 7.20508 167.562 7.54688C167.859 7.88411 168.084 8.28288 168.239 8.74316C168.394 9.19889 168.472 9.69336 168.472 10.2266V10.3838C168.472 10.917 168.394 11.4115 168.239 11.8672C168.084 12.3229 167.859 12.7217 167.562 13.0635C167.271 13.4007 166.918 13.665 166.503 13.8564C166.093 14.0433 165.628 14.1367 165.108 14.1367C164.589 14.1367 164.122 14.0433 163.707 13.8564C163.292 13.665 162.937 13.4007 162.641 13.0635C162.349 12.7217 162.126 12.3229 161.971 11.8672C161.816 11.4115 161.738 10.917 161.738 10.3838ZM163.003 10.2266V10.3838C163.003 10.7529 163.046 11.1016 163.133 11.4297C163.219 11.7533 163.349 12.0404 163.522 12.291C163.7 12.5417 163.921 12.7399 164.186 12.8857C164.45 13.027 164.757 13.0977 165.108 13.0977C165.455 13.0977 165.758 13.027 166.018 12.8857C166.282 12.7399 166.501 12.5417 166.674 12.291C166.847 12.0404 166.977 11.7533 167.063 11.4297C167.155 11.1016 167.2 10.7529 167.2 10.3838V10.2266C167.2 9.86198 167.155 9.5179 167.063 9.19434C166.977 8.86621 166.845 8.57682 166.667 8.32617C166.494 8.07096 166.275 7.87044 166.011 7.72461C165.751 7.57878 165.446 7.50586 165.095 7.50586C164.748 7.50586 164.443 7.57878 164.179 7.72461C163.919 7.87044 163.7 8.07096 163.522 8.32617C163.349 8.57682 163.219 8.86621 163.133 9.19434C163.046 9.5179 163.003 9.86198 163.003 10.2266ZM173.53 10.7461H171.104L171.09 9.73438H173.072C173.464 9.73438 173.79 9.69564 174.05 9.61816C174.314 9.54069 174.512 9.42448 174.645 9.26953C174.777 9.11458 174.843 8.92318 174.843 8.69531C174.843 8.51758 174.804 8.36263 174.727 8.23047C174.654 8.09375 174.542 7.9821 174.392 7.89551C174.241 7.80436 174.054 7.73828 173.831 7.69727C173.612 7.65169 173.355 7.62891 173.059 7.62891H171.438V14H170.174V6.60352H173.059C173.528 6.60352 173.95 6.64453 174.323 6.72656C174.701 6.80859 175.023 6.93392 175.287 7.10254C175.556 7.2666 175.761 7.47624 175.902 7.73145C176.044 7.98665 176.114 8.28743 176.114 8.63379C176.114 8.8571 176.069 9.06901 175.978 9.26953C175.886 9.47005 175.752 9.64779 175.574 9.80273C175.396 9.95768 175.178 10.0853 174.918 10.1855C174.658 10.2812 174.36 10.3428 174.022 10.3701L173.53 10.7461ZM173.53 14H170.646L171.274 12.9746H173.53C173.881 12.9746 174.173 12.9313 174.405 12.8447C174.638 12.7536 174.811 12.626 174.925 12.4619C175.043 12.2933 175.103 12.0928 175.103 11.8604C175.103 11.6279 175.043 11.4297 174.925 11.2656C174.811 11.097 174.638 10.9694 174.405 10.8828C174.173 10.7917 173.881 10.7461 173.53 10.7461H171.609L171.623 9.73438H174.022L174.48 10.1172C174.886 10.1491 175.23 10.2493 175.513 10.418C175.795 10.5866 176.009 10.8008 176.155 11.0605C176.301 11.3158 176.374 11.5938 176.374 11.8945C176.374 12.2409 176.308 12.5462 176.176 12.8105C176.048 13.0749 175.861 13.2959 175.615 13.4736C175.369 13.6468 175.071 13.779 174.72 13.8701C174.369 13.9567 173.972 14 173.53 14ZM182.807 8.02539V16.8438H181.535V6.60352H182.697L182.807 8.02539ZM187.79 10.2402V10.3838C187.79 10.9215 187.726 11.4206 187.599 11.8809C187.471 12.3366 187.284 12.7331 187.038 13.0703C186.797 13.4076 186.498 13.6696 186.143 13.8564C185.787 14.0433 185.379 14.1367 184.919 14.1367C184.45 14.1367 184.035 14.0592 183.675 13.9043C183.315 13.7493 183.009 13.5238 182.759 13.2275C182.508 12.9313 182.308 12.5758 182.157 12.1611C182.011 11.7464 181.911 11.2793 181.856 10.7598V9.99414C181.911 9.44727 182.014 8.95736 182.164 8.52441C182.314 8.09147 182.513 7.72233 182.759 7.41699C183.009 7.1071 183.312 6.8724 183.668 6.71289C184.023 6.54883 184.434 6.4668 184.898 6.4668C185.363 6.4668 185.776 6.55794 186.136 6.74023C186.496 6.91797 186.799 7.17318 187.045 7.50586C187.291 7.83854 187.476 8.2373 187.599 8.70215C187.726 9.16243 187.79 9.67513 187.79 10.2402ZM186.519 10.3838V10.2402C186.519 9.87109 186.48 9.52474 186.402 9.20117C186.325 8.87305 186.204 8.58594 186.04 8.33984C185.881 8.08919 185.675 7.89323 185.425 7.75195C185.174 7.60612 184.876 7.5332 184.529 7.5332C184.21 7.5332 183.932 7.58789 183.695 7.69727C183.463 7.80664 183.265 7.95475 183.101 8.1416C182.937 8.32389 182.802 8.53353 182.697 8.77051C182.597 9.00293 182.522 9.24447 182.472 9.49512V11.2656C182.563 11.5846 182.69 11.8854 182.854 12.168C183.019 12.446 183.237 12.6715 183.511 12.8447C183.784 13.0133 184.128 13.0977 184.543 13.0977C184.885 13.0977 185.179 13.027 185.425 12.8857C185.675 12.7399 185.881 12.5417 186.04 12.291C186.204 12.0404 186.325 11.7533 186.402 11.4297C186.48 11.1016 186.519 10.7529 186.519 10.3838ZM189.068 10.3838V10.2266C189.068 9.69336 189.146 9.19889 189.301 8.74316C189.456 8.28288 189.679 7.88411 189.971 7.54688C190.262 7.20508 190.616 6.94076 191.03 6.75391C191.445 6.5625 191.91 6.4668 192.425 6.4668C192.944 6.4668 193.411 6.5625 193.826 6.75391C194.245 6.94076 194.601 7.20508 194.893 7.54688C195.189 7.88411 195.414 8.28288 195.569 8.74316C195.724 9.19889 195.802 9.69336 195.802 10.2266V10.3838C195.802 10.917 195.724 11.4115 195.569 11.8672C195.414 12.3229 195.189 12.7217 194.893 13.0635C194.601 13.4007 194.248 13.665 193.833 13.8564C193.423 14.0433 192.958 14.1367 192.438 14.1367C191.919 14.1367 191.452 14.0433 191.037 13.8564C190.622 13.665 190.267 13.4007 189.971 13.0635C189.679 12.7217 189.456 12.3229 189.301 11.8672C189.146 11.4115 189.068 10.917 189.068 10.3838ZM190.333 10.2266V10.3838C190.333 10.7529 190.376 11.1016 190.463 11.4297C190.549 11.7533 190.679 12.0404 190.853 12.291C191.03 12.5417 191.251 12.7399 191.516 12.8857C191.78 13.027 192.088 13.0977 192.438 13.0977C192.785 13.0977 193.088 13.027 193.348 12.8857C193.612 12.7399 193.831 12.5417 194.004 12.291C194.177 12.0404 194.307 11.7533 194.394 11.4297C194.485 11.1016 194.53 10.7529 194.53 10.3838V10.2266C194.53 9.86198 194.485 9.5179 194.394 9.19434C194.307 8.86621 194.175 8.57682 193.997 8.32617C193.824 8.07096 193.605 7.87044 193.341 7.72461C193.081 7.57878 192.776 7.50586 192.425 7.50586C192.078 7.50586 191.773 7.57878 191.509 7.72461C191.249 7.87044 191.03 8.07096 190.853 8.32617C190.679 8.57682 190.549 8.86621 190.463 9.19434C190.376 9.5179 190.333 9.86198 190.333 10.2266ZM200.149 10.4658H198.789V9.68652H200.047C200.398 9.68652 200.676 9.64323 200.881 9.55664C201.086 9.46549 201.232 9.34017 201.318 9.18066C201.405 9.02116 201.448 8.83431 201.448 8.62012C201.448 8.42871 201.398 8.2487 201.298 8.08008C201.202 7.9069 201.047 7.7679 200.833 7.66309C200.619 7.55371 200.332 7.49902 199.972 7.49902C199.68 7.49902 199.416 7.55143 199.179 7.65625C198.942 7.75651 198.753 7.89551 198.611 8.07324C198.475 8.24642 198.406 8.44238 198.406 8.66113H197.142C197.142 8.20996 197.269 7.82259 197.524 7.49902C197.784 7.1709 198.128 6.91797 198.557 6.74023C198.99 6.5625 199.461 6.47363 199.972 6.47363C200.4 6.47363 200.783 6.52148 201.12 6.61719C201.462 6.70833 201.751 6.84505 201.988 7.02734C202.225 7.20508 202.405 7.42839 202.528 7.69727C202.656 7.96159 202.72 8.26921 202.72 8.62012C202.72 8.87077 202.66 9.10775 202.542 9.33105C202.424 9.55436 202.253 9.7526 202.029 9.92578C201.806 10.0944 201.535 10.2266 201.216 10.3223C200.901 10.418 200.546 10.4658 200.149 10.4658ZM198.789 9.9873H200.149C200.591 9.9873 200.981 10.0306 201.318 10.1172C201.656 10.1992 201.938 10.3223 202.166 10.4863C202.394 10.6504 202.565 10.8532 202.679 11.0947C202.797 11.3317 202.856 11.6051 202.856 11.915C202.856 12.2614 202.786 12.5736 202.645 12.8516C202.508 13.125 202.312 13.3574 202.057 13.5488C201.801 13.7402 201.496 13.8861 201.141 13.9863C200.79 14.0866 200.4 14.1367 199.972 14.1367C199.493 14.1367 199.028 14.0547 198.577 13.8906C198.126 13.7266 197.755 13.4736 197.463 13.1318C197.171 12.7855 197.025 12.3457 197.025 11.8125H198.29C198.29 12.0358 198.361 12.2477 198.502 12.4482C198.643 12.6488 198.839 12.8105 199.09 12.9336C199.345 13.0566 199.639 13.1182 199.972 13.1182C200.327 13.1182 200.623 13.0635 200.86 12.9541C201.097 12.8447 201.275 12.6989 201.394 12.5166C201.517 12.3343 201.578 12.1361 201.578 11.9219C201.578 11.6439 201.523 11.4206 201.414 11.252C201.305 11.0833 201.136 10.9603 200.908 10.8828C200.685 10.8008 200.398 10.7598 200.047 10.7598H198.789V9.9873ZM207.566 14.1367C207.051 14.1367 206.584 14.0501 206.165 13.877C205.75 13.6992 205.393 13.4508 205.092 13.1318C204.796 12.8128 204.568 12.4346 204.408 11.9971C204.249 11.5596 204.169 11.0811 204.169 10.5615V10.2744C204.169 9.67285 204.258 9.13737 204.436 8.66797C204.613 8.19401 204.855 7.79297 205.16 7.46484C205.465 7.13672 205.812 6.88835 206.199 6.71973C206.587 6.55111 206.988 6.4668 207.402 6.4668C207.931 6.4668 208.387 6.55794 208.77 6.74023C209.157 6.92253 209.474 7.17773 209.72 7.50586C209.966 7.82943 210.148 8.21224 210.267 8.6543C210.385 9.0918 210.444 9.57031 210.444 10.0898V10.6572H204.921V9.625H209.18V9.5293C209.161 9.20117 209.093 8.88216 208.975 8.57227C208.861 8.26237 208.678 8.00716 208.428 7.80664C208.177 7.60612 207.835 7.50586 207.402 7.50586C207.115 7.50586 206.851 7.56738 206.609 7.69043C206.368 7.80892 206.16 7.98665 205.987 8.22363C205.814 8.46061 205.68 8.75 205.584 9.0918C205.488 9.43359 205.44 9.8278 205.44 10.2744V10.5615C205.44 10.9124 205.488 11.2428 205.584 11.5527C205.684 11.8581 205.828 12.127 206.015 12.3594C206.206 12.5918 206.436 12.7741 206.705 12.9062C206.979 13.0384 207.288 13.1045 207.635 13.1045C208.081 13.1045 208.46 13.0133 208.77 12.8311C209.079 12.6488 209.351 12.4049 209.583 12.0996L210.349 12.708C210.189 12.9495 209.986 13.1797 209.74 13.3984C209.494 13.6172 209.191 13.7949 208.831 13.9316C208.476 14.0684 208.054 14.1367 207.566 14.1367ZM214.854 6.60352V14H213.582V6.60352H214.854ZM217.335 6.60352V7.62891H211.148V6.60352H217.335ZM217.957 10.3838V10.2266C217.957 9.69336 218.035 9.19889 218.189 8.74316C218.344 8.28288 218.568 7.88411 218.859 7.54688C219.151 7.20508 219.504 6.94076 219.919 6.75391C220.334 6.5625 220.799 6.4668 221.313 6.4668C221.833 6.4668 222.3 6.5625 222.715 6.75391C223.134 6.94076 223.49 7.20508 223.781 7.54688C224.077 7.88411 224.303 8.28288 224.458 8.74316C224.613 9.19889 224.69 9.69336 224.69 10.2266V10.3838C224.69 10.917 224.613 11.4115 224.458 11.8672C224.303 12.3229 224.077 12.7217 223.781 13.0635C223.49 13.4007 223.136 13.665 222.722 13.8564C222.312 14.0433 221.847 14.1367 221.327 14.1367C220.808 14.1367 220.34 14.0433 219.926 13.8564C219.511 13.665 219.156 13.4007 218.859 13.0635C218.568 12.7217 218.344 12.3229 218.189 11.8672C218.035 11.4115 217.957 10.917 217.957 10.3838ZM219.222 10.2266V10.3838C219.222 10.7529 219.265 11.1016 219.352 11.4297C219.438 11.7533 219.568 12.0404 219.741 12.291C219.919 12.5417 220.14 12.7399 220.404 12.8857C220.669 13.027 220.976 13.0977 221.327 13.0977C221.674 13.0977 221.977 13.027 222.236 12.8857C222.501 12.7399 222.719 12.5417 222.893 12.291C223.066 12.0404 223.196 11.7533 223.282 11.4297C223.373 11.1016 223.419 10.7529 223.419 10.3838V10.2266C223.419 9.86198 223.373 9.5179 223.282 9.19434C223.196 8.86621 223.063 8.57682 222.886 8.32617C222.713 8.07096 222.494 7.87044 222.229 7.72461C221.97 7.57878 221.664 7.50586 221.313 7.50586C220.967 7.50586 220.662 7.57878 220.397 7.72461C220.138 7.87044 219.919 8.07096 219.741 8.32617C219.568 8.57682 219.438 8.86621 219.352 9.19434C219.265 9.5179 219.222 9.86198 219.222 10.2266ZM227.65 6.60352V14H226.386V6.60352H227.65ZM232.504 6.60352L228.997 10.8418H227.227L227.035 9.73438H228.484L230.966 6.60352H232.504ZM231.144 14L228.423 10.6504L229.236 9.73438L232.75 14H231.144ZM234.999 12.4961V13.5146C234.999 13.9294 234.894 14.3669 234.685 14.8271C234.475 15.292 234.181 15.6794 233.803 15.9893L233.085 15.4902C233.231 15.2897 233.354 15.0846 233.454 14.875C233.554 14.6699 233.63 14.4557 233.68 14.2324C233.734 14.0137 233.762 13.7812 233.762 13.5352V12.4961H234.999ZM4.43652 28.7461H2.00977L1.99609 27.7344H3.97852C4.37044 27.7344 4.69629 27.6956 4.95605 27.6182C5.22038 27.5407 5.41862 27.4245 5.55078 27.2695C5.68294 27.1146 5.74902 26.9232 5.74902 26.6953C5.74902 26.5176 5.71029 26.3626 5.63281 26.2305C5.5599 26.0938 5.44824 25.9821 5.29785 25.8955C5.14746 25.8044 4.96061 25.7383 4.7373 25.6973C4.51855 25.6517 4.26107 25.6289 3.96484 25.6289H2.34473V32H1.08008V24.6035H3.96484C4.43424 24.6035 4.85579 24.6445 5.22949 24.7266C5.60775 24.8086 5.92904 24.9339 6.19336 25.1025C6.46224 25.2666 6.66732 25.4762 6.80859 25.7314C6.94987 25.9867 7.02051 26.2874 7.02051 26.6338C7.02051 26.8571 6.97493 27.069 6.88379 27.2695C6.79264 27.4701 6.6582 27.6478 6.48047 27.8027C6.30273 27.9577 6.08398 28.0853 5.82422 28.1855C5.56445 28.2812 5.26595 28.3428 4.92871 28.3701L4.43652 28.7461ZM4.43652 32H1.55176L2.18066 30.9746H4.43652C4.78743 30.9746 5.0791 30.9313 5.31152 30.8447C5.54395 30.7536 5.71712 30.626 5.83105 30.4619C5.94954 30.2933 6.00879 30.0928 6.00879 29.8604C6.00879 29.6279 5.94954 29.4297 5.83105 29.2656C5.71712 29.097 5.54395 28.9694 5.31152 28.8828C5.0791 28.7917 4.78743 28.7461 4.43652 28.7461H2.51562L2.5293 27.7344H4.92871L5.38672 28.1172C5.79232 28.1491 6.13639 28.2493 6.41895 28.418C6.7015 28.5866 6.91569 28.8008 7.06152 29.0605C7.20736 29.3158 7.28027 29.5938 7.28027 29.8945C7.28027 30.2409 7.21419 30.5462 7.08203 30.8105C6.95443 31.0749 6.76758 31.2959 6.52148 31.4736C6.27539 31.6468 5.97689 31.779 5.62598 31.8701C5.27507 31.9567 4.87858 32 4.43652 32ZM10.0146 27.1465H12.2363C12.8333 27.1465 13.3369 27.2513 13.7471 27.4609C14.1572 27.666 14.4671 27.9508 14.6768 28.3154C14.891 28.6755 14.998 29.0856 14.998 29.5459C14.998 29.8877 14.9388 30.209 14.8203 30.5098C14.7018 30.806 14.5241 31.0658 14.2871 31.2891C14.0547 31.5124 13.7653 31.6878 13.4189 31.8154C13.0771 31.9385 12.6829 32 12.2363 32H9.0918V24.6035H10.3564V30.9609H12.2363C12.6009 30.9609 12.8926 30.8949 13.1113 30.7627C13.3301 30.6305 13.4873 30.4596 13.583 30.25C13.6787 30.0404 13.7266 29.8216 13.7266 29.5938C13.7266 29.3704 13.6787 29.1517 13.583 28.9375C13.4873 28.7233 13.3301 28.5456 13.1113 28.4043C12.8926 28.2585 12.6009 28.1855 12.2363 28.1855H10.0146V27.1465ZM17.6299 24.6035V32H16.3652V24.6035H17.6299ZM21.2188 24.6035V32H19.9541V24.6035H21.2188ZM26.0723 24.6035L22.5654 28.8418H20.7949L20.6035 27.7344H22.0527L24.5342 24.6035H26.0723ZM24.7119 32L21.9912 28.6504L22.8047 27.7344L26.3184 32H24.7119ZM32.3613 24.6035V25.6494H28.7861V24.6035H32.3613ZM33.4756 24.6035V32H32.2109V24.6035H33.4756ZM28.4785 24.6035H29.75L29.5586 28.1719C29.5267 28.7233 29.4743 29.2109 29.4014 29.6348C29.333 30.054 29.2373 30.4141 29.1143 30.7148C28.9958 31.0156 28.8454 31.2617 28.6631 31.4531C28.4854 31.64 28.2712 31.779 28.0205 31.8701C27.7699 31.9567 27.4805 32 27.1523 32H26.7559V30.8857L27.0293 30.8652C27.2253 30.8516 27.3916 30.806 27.5283 30.7285C27.6696 30.651 27.7881 30.5371 27.8838 30.3867C27.9795 30.2318 28.057 30.0335 28.1162 29.792C28.18 29.5505 28.2279 29.2633 28.2598 28.9307C28.2962 28.598 28.3236 28.2106 28.3418 27.7686L28.4785 24.6035ZM39.7236 27.7412V28.7734H35.793V27.7412H39.7236ZM36.8936 24.6035V32H35.6289V24.6035H36.8936ZM38.6436 28.3838V28.2266C38.6436 27.6934 38.721 27.1989 38.876 26.7432C39.0309 26.2829 39.2542 25.8841 39.5459 25.5469C39.8421 25.2051 40.1953 24.9408 40.6055 24.7539C41.0202 24.5625 41.485 24.4668 42 24.4668C42.5241 24.4668 42.9935 24.5625 43.4082 24.7539C43.8229 24.9408 44.1761 25.2051 44.4678 25.5469C44.764 25.8841 44.9896 26.2829 45.1445 26.7432C45.2995 27.1989 45.377 27.6934 45.377 28.2266V28.3838C45.377 28.917 45.2995 29.4115 45.1445 29.8672C44.9896 30.3229 44.7663 30.7217 44.4746 31.0635C44.1829 31.4007 43.8298 31.665 43.415 31.8564C43.0003 32.0433 42.5332 32.1367 42.0137 32.1367C41.4941 32.1367 41.027 32.0433 40.6123 31.8564C40.1976 31.665 39.8421 31.4007 39.5459 31.0635C39.2542 30.7217 39.0309 30.3229 38.876 29.8672C38.721 29.4115 38.6436 28.917 38.6436 28.3838ZM39.915 28.2266V28.3838C39.915 28.7529 39.9583 29.1016 40.0449 29.4297C40.1315 29.7533 40.2614 30.0404 40.4346 30.291C40.6123 30.5417 40.8311 30.7399 41.0908 30.8857C41.3551 31.027 41.6628 31.0977 42.0137 31.0977C42.3646 31.0977 42.6699 31.027 42.9297 30.8857C43.194 30.7399 43.4128 30.5417 43.5859 30.291C43.7591 30.0404 43.889 29.7533 43.9756 29.4297C44.0667 29.1016 44.1123 28.7529 44.1123 28.3838V28.2266C44.1123 27.862 44.0667 27.5179 43.9756 27.1943C43.889 26.8662 43.7568 26.5768 43.5791 26.3262C43.4059 26.071 43.1872 25.8704 42.9229 25.7246C42.6585 25.5788 42.3509 25.5059 42 25.5059C41.6536 25.5059 41.3506 25.5788 41.0908 25.7246C40.8311 25.8704 40.6123 26.071 40.4346 26.3262C40.2614 26.5768 40.1315 26.8662 40.0449 27.1943C39.9583 27.5179 39.915 27.862 39.915 28.2266ZM52.5205 24.6035V32H51.2559V24.6035H52.5205ZM52.0898 28.001V29.04C51.8346 29.1357 51.5749 29.2223 51.3105 29.2998C51.0508 29.3727 50.7751 29.432 50.4834 29.4775C50.1963 29.5186 49.8841 29.5391 49.5469 29.5391C48.9635 29.5391 48.4577 29.4388 48.0293 29.2383C47.6009 29.0332 47.2705 28.7256 47.0381 28.3154C46.8057 27.9007 46.6895 27.3789 46.6895 26.75V24.5898H47.9541V26.75C47.9541 27.1602 48.0156 27.4928 48.1387 27.748C48.2617 28.0033 48.4417 28.1924 48.6787 28.3154C48.9157 28.4339 49.2051 28.4932 49.5469 28.4932C49.875 28.4932 50.1826 28.4727 50.4697 28.4316C50.7614 28.3861 51.0394 28.3268 51.3037 28.2539C51.5726 28.181 51.8346 28.0967 52.0898 28.001ZM58.9189 30.7354V26.9277C58.9189 26.6361 58.8597 26.3831 58.7412 26.1689C58.6273 25.9502 58.4541 25.7816 58.2217 25.6631C57.9893 25.5446 57.7021 25.4854 57.3604 25.4854C57.0413 25.4854 56.7611 25.54 56.5195 25.6494C56.2826 25.7588 56.0957 25.9023 55.959 26.0801C55.8268 26.2578 55.7607 26.4492 55.7607 26.6543H54.4961C54.4961 26.39 54.5645 26.1279 54.7012 25.8682C54.8379 25.6084 55.0339 25.3737 55.2891 25.1641C55.5488 24.9499 55.8587 24.7812 56.2188 24.6582C56.5833 24.5306 56.9889 24.4668 57.4355 24.4668C57.9733 24.4668 58.4473 24.5579 58.8574 24.7402C59.2721 24.9225 59.5957 25.1982 59.8281 25.5674C60.0651 25.932 60.1836 26.39 60.1836 26.9414V30.3867C60.1836 30.6328 60.2041 30.8949 60.2451 31.1729C60.2907 31.4508 60.3568 31.6901 60.4434 31.8906V32H59.124C59.0602 31.8542 59.0101 31.6605 58.9736 31.4189C58.9372 31.1729 58.9189 30.945 58.9189 30.7354ZM59.1377 27.5156L59.1514 28.4043H57.873C57.513 28.4043 57.1917 28.4339 56.9092 28.4932C56.6266 28.5479 56.3896 28.6322 56.1982 28.7461C56.0068 28.86 55.861 29.0036 55.7607 29.1768C55.6605 29.3454 55.6104 29.5436 55.6104 29.7715C55.6104 30.0039 55.6628 30.2158 55.7676 30.4072C55.8724 30.5986 56.0296 30.7513 56.2393 30.8652C56.4535 30.9746 56.7155 31.0293 57.0254 31.0293C57.4128 31.0293 57.7546 30.9473 58.0508 30.7832C58.347 30.6191 58.5817 30.4186 58.7549 30.1816C58.9326 29.9447 59.0283 29.7145 59.042 29.4912L59.582 30.0996C59.5501 30.291 59.4635 30.5029 59.3223 30.7354C59.181 30.9678 58.9919 31.1911 58.7549 31.4053C58.5225 31.6149 58.2445 31.7904 57.9209 31.9316C57.6019 32.0684 57.2419 32.1367 56.8408 32.1367C56.3395 32.1367 55.8997 32.0387 55.5215 31.8428C55.1478 31.6468 54.8561 31.3848 54.6465 31.0566C54.4414 30.724 54.3389 30.3525 54.3389 29.9424C54.3389 29.5459 54.4163 29.1973 54.5713 28.8965C54.7262 28.5911 54.9495 28.3382 55.2412 28.1377C55.5329 27.9326 55.8838 27.7777 56.2939 27.6729C56.7041 27.568 57.1621 27.5156 57.668 27.5156H59.1377ZM65.0781 24.6035V32H63.8066V24.6035H65.0781ZM67.5596 24.6035V25.6289H61.373V24.6035H67.5596ZM71.3262 32.1367C70.8112 32.1367 70.3441 32.0501 69.9248 31.877C69.5101 31.6992 69.1523 31.4508 68.8516 31.1318C68.5553 30.8128 68.3275 30.4346 68.168 29.9971C68.0085 29.5596 67.9287 29.0811 67.9287 28.5615V28.2744C67.9287 27.6729 68.0176 27.1374 68.1953 26.668C68.373 26.194 68.6146 25.793 68.9199 25.4648C69.2253 25.1367 69.5716 24.8883 69.959 24.7197C70.3464 24.5511 70.7474 24.4668 71.1621 24.4668C71.6908 24.4668 72.1465 24.5579 72.5293 24.7402C72.9167 24.9225 73.2334 25.1777 73.4795 25.5059C73.7256 25.8294 73.9079 26.2122 74.0264 26.6543C74.1449 27.0918 74.2041 27.5703 74.2041 28.0898V28.6572H68.6807V27.625H72.9395V27.5293C72.9212 27.2012 72.8529 26.8822 72.7344 26.5723C72.6204 26.2624 72.4382 26.0072 72.1875 25.8066C71.9368 25.6061 71.5951 25.5059 71.1621 25.5059C70.875 25.5059 70.6107 25.5674 70.3691 25.6904C70.1276 25.8089 69.9202 25.9867 69.7471 26.2236C69.5739 26.4606 69.4395 26.75 69.3438 27.0918C69.248 27.4336 69.2002 27.8278 69.2002 28.2744V28.5615C69.2002 28.9124 69.248 29.2428 69.3438 29.5527C69.444 29.8581 69.5876 30.127 69.7744 30.3594C69.9658 30.5918 70.196 30.7741 70.4648 30.9062C70.7383 31.0384 71.0482 31.1045 71.3945 31.1045C71.8411 31.1045 72.2194 31.0133 72.5293 30.8311C72.8392 30.6488 73.1104 30.4049 73.3428 30.0996L74.1084 30.708C73.9489 30.9495 73.7461 31.1797 73.5 31.3984C73.2539 31.6172 72.9508 31.7949 72.5908 31.9316C72.2354 32.0684 71.8138 32.1367 71.3262 32.1367ZM80.623 24.6035V25.6494H77.0479V24.6035H80.623ZM81.7373 24.6035V32H80.4727V24.6035H81.7373ZM76.7402 24.6035H78.0117L77.8203 28.1719C77.7884 28.7233 77.736 29.2109 77.6631 29.6348C77.5947 30.054 77.499 30.4141 77.376 30.7148C77.2575 31.0156 77.1071 31.2617 76.9248 31.4531C76.7471 31.64 76.5329 31.779 76.2822 31.8701C76.0316 31.9567 75.7422 32 75.4141 32H75.0176V30.8857L75.291 30.8652C75.487 30.8516 75.6533 30.806 75.79 30.7285C75.9313 30.651 76.0498 30.5371 76.1455 30.3867C76.2412 30.2318 76.3187 30.0335 76.3779 29.792C76.4417 29.5505 76.4896 29.2633 76.5215 28.9307C76.5579 28.598 76.5853 28.2106 76.6035 27.7686L76.7402 24.6035ZM86.8438 32.1367C86.3288 32.1367 85.8617 32.0501 85.4424 31.877C85.0277 31.6992 84.6699 31.4508 84.3691 31.1318C84.0729 30.8128 83.8451 30.4346 83.6855 29.9971C83.526 29.5596 83.4463 29.0811 83.4463 28.5615V28.2744C83.4463 27.6729 83.5352 27.1374 83.7129 26.668C83.8906 26.194 84.1322 25.793 84.4375 25.4648C84.7428 25.1367 85.0892 24.8883 85.4766 24.7197C85.8639 24.5511 86.265 24.4668 86.6797 24.4668C87.2083 24.4668 87.6641 24.5579 88.0469 24.7402C88.4342 24.9225 88.751 25.1777 88.9971 25.5059C89.2432 25.8294 89.4255 26.2122 89.5439 26.6543C89.6624 27.0918 89.7217 27.5703 89.7217 28.0898V28.6572H84.1982V27.625H88.457V27.5293C88.4388 27.2012 88.3704 26.8822 88.252 26.5723C88.138 26.2624 87.9557 26.0072 87.7051 25.8066C87.4544 25.6061 87.1126 25.5059 86.6797 25.5059C86.3926 25.5059 86.1283 25.5674 85.8867 25.6904C85.6452 25.8089 85.4378 25.9867 85.2646 26.2236C85.0915 26.4606 84.957 26.75 84.8613 27.0918C84.7656 27.4336 84.7178 27.8278 84.7178 28.2744V28.5615C84.7178 28.9124 84.7656 29.2428 84.8613 29.5527C84.9616 29.8581 85.1051 30.127 85.292 30.3594C85.4834 30.5918 85.7135 30.7741 85.9824 30.9062C86.2559 31.0384 86.5658 31.1045 86.9121 31.1045C87.3587 31.1045 87.737 31.0133 88.0469 30.8311C88.3568 30.6488 88.6279 30.4049 88.8604 30.0996L89.626 30.708C89.4665 30.9495 89.2637 31.1797 89.0176 31.3984C88.7715 31.6172 88.4684 31.7949 88.1084 31.9316C87.7529 32.0684 87.3314 32.1367 86.8438 32.1367ZM92.5654 29.9971L95.9766 24.6035H97.248V32H95.9766V26.6064L92.5654 32H91.3076V24.6035H92.5654V29.9971ZM95.2861 21.9238H96.3115C96.3115 22.2793 96.2295 22.596 96.0654 22.874C95.9014 23.1475 95.6667 23.3617 95.3613 23.5166C95.056 23.6715 94.6937 23.749 94.2744 23.749C93.641 23.749 93.1396 23.5804 92.7705 23.2432C92.4059 22.9014 92.2236 22.4616 92.2236 21.9238H93.249C93.249 22.1927 93.3265 22.4297 93.4814 22.6348C93.6364 22.8398 93.9007 22.9424 94.2744 22.9424C94.639 22.9424 94.8988 22.8398 95.0537 22.6348C95.2087 22.4297 95.2861 22.1927 95.2861 21.9238ZM99.0664 25.2939C99.0664 25.0798 99.1325 24.8997 99.2646 24.7539C99.4014 24.6035 99.5973 24.5283 99.8525 24.5283C100.108 24.5283 100.301 24.6035 100.434 24.7539C100.57 24.8997 100.639 25.0798 100.639 25.2939C100.639 25.5036 100.57 25.6813 100.434 25.8271C100.301 25.973 100.108 26.0459 99.8525 26.0459C99.5973 26.0459 99.4014 25.973 99.2646 25.8271C99.1325 25.6813 99.0664 25.5036 99.0664 25.2939ZM100.509 30.4961V31.5146C100.509 31.9294 100.404 32.3669 100.194 32.8271C99.9847 33.292 99.6908 33.6794 99.3125 33.9893L98.5947 33.4902C98.7406 33.2897 98.8636 33.0846 98.9639 32.875C99.0641 32.6699 99.1393 32.4557 99.1895 32.2324C99.2441 32.0137 99.2715 31.7812 99.2715 31.5352V30.4961H100.509Z" fill="#303030" fill-opacity="0.9"/>
</svg>
