<svg width="256" height="18" viewBox="0 0 256 18" fill="none" xmlns="http://www.w3.org/2000/svg">
<path d="M2.22852 8.02539V16.8438H0.957031V6.60352H2.11914L2.22852 8.02539ZM7.21191 10.2402V10.3838C7.21191 10.9215 7.14811 11.4206 7.02051 11.8809C6.8929 12.3366 6.70605 12.7331 6.45996 13.0703C6.21842 13.4076 5.91992 13.6696 5.56445 13.8564C5.20898 14.0433 4.80111 14.1367 4.34082 14.1367C3.87142 14.1367 3.45671 14.0592 3.09668 13.9043C2.73665 13.7493 2.43132 13.5238 2.18066 13.2275C1.93001 12.9313 1.72949 12.5758 1.5791 12.1611C1.43327 11.7464 1.33301 11.2793 1.27832 10.7598V9.99414C1.33301 9.44727 1.43555 8.95736 1.58594 8.52441C1.73633 8.09147 1.93457 7.72233 2.18066 7.41699C2.43132 7.1071 2.73438 6.8724 3.08984 6.71289C3.44531 6.54883 3.85547 6.4668 4.32031 6.4668C4.78516 6.4668 5.19759 6.55794 5.55762 6.74023C5.91764 6.91797 6.2207 7.17318 6.4668 7.50586C6.71289 7.83854 6.89746 8.2373 7.02051 8.70215C7.14811 9.16243 7.21191 9.67513 7.21191 10.2402ZM5.94043 10.3838V10.2402C5.94043 9.87109 5.90169 9.52474 5.82422 9.20117C5.74674 8.87305 5.62598 8.58594 5.46191 8.33984C5.30241 8.08919 5.09733 7.89323 4.84668 7.75195C4.59603 7.60612 4.29753 7.5332 3.95117 7.5332C3.63216 7.5332 3.35417 7.58789 3.11719 7.69727C2.88477 7.80664 2.68652 7.95475 2.52246 8.1416C2.3584 8.32389 2.22396 8.53353 2.11914 8.77051C2.01888 9.00293 1.94368 9.24447 1.89355 9.49512V11.2656C1.9847 11.5846 2.1123 11.8854 2.27637 12.168C2.44043 12.446 2.65918 12.6715 2.93262 12.8447C3.20605 13.0133 3.55013 13.0977 3.96484 13.0977C4.30664 13.0977 4.60059 13.027 4.84668 12.8857C5.09733 12.7399 5.30241 12.5417 5.46191 12.291C5.62598 12.0404 5.74674 11.7533 5.82422 11.4297C5.90169 11.1016 5.94043 10.7529 5.94043 10.3838ZM13.1865 12.7354V8.92773C13.1865 8.63607 13.1273 8.38314 13.0088 8.16895C12.8949 7.9502 12.7217 7.78158 12.4893 7.66309C12.2568 7.5446 11.9697 7.48535 11.6279 7.48535C11.3089 7.48535 11.0286 7.54004 10.7871 7.64941C10.5501 7.75879 10.3633 7.90234 10.2266 8.08008C10.0944 8.25781 10.0283 8.44922 10.0283 8.6543H8.76367C8.76367 8.38997 8.83203 8.12793 8.96875 7.86816C9.10547 7.6084 9.30143 7.3737 9.55664 7.16406C9.81641 6.94987 10.1263 6.78125 10.4863 6.6582C10.8509 6.5306 11.2565 6.4668 11.7031 6.4668C12.2409 6.4668 12.7148 6.55794 13.125 6.74023C13.5397 6.92253 13.8633 7.19824 14.0957 7.56738C14.3327 7.93197 14.4512 8.38997 14.4512 8.94141V12.3867C14.4512 12.6328 14.4717 12.8949 14.5127 13.1729C14.5583 13.4508 14.6243 13.6901 14.7109 13.8906V14H13.3916C13.3278 13.8542 13.2777 13.6605 13.2412 13.4189C13.2048 13.1729 13.1865 12.945 13.1865 12.7354ZM13.4053 9.51562L13.4189 10.4043H12.1406C11.7806 10.4043 11.4593 10.4339 11.1768 10.4932C10.8942 10.5479 10.6572 10.6322 10.4658 10.7461C10.2744 10.86 10.1286 11.0036 10.0283 11.1768C9.92806 11.3454 9.87793 11.5436 9.87793 11.7715C9.87793 12.0039 9.93034 12.2158 10.0352 12.4072C10.14 12.5986 10.2972 12.7513 10.5068 12.8652C10.721 12.9746 10.9831 13.0293 11.293 13.0293C11.6803 13.0293 12.0221 12.9473 12.3184 12.7832C12.6146 12.6191 12.8493 12.4186 13.0225 12.1816C13.2002 11.9447 13.2959 11.7145 13.3096 11.4912L13.8496 12.0996C13.8177 12.291 13.7311 12.5029 13.5898 12.7354C13.4486 12.9678 13.2594 13.1911 13.0225 13.4053C12.79 13.6149 12.512 13.7904 12.1885 13.9316C11.8695 14.0684 11.5094 14.1367 11.1084 14.1367C10.6071 14.1367 10.1673 14.0387 9.78906 13.8428C9.41536 13.6468 9.1237 13.3848 8.91406 13.0566C8.70898 12.724 8.60645 12.3525 8.60645 11.9424C8.60645 11.5459 8.68392 11.1973 8.83887 10.8965C8.99382 10.5911 9.21712 10.3382 9.50879 10.1377C9.80046 9.93262 10.1514 9.77767 10.5615 9.67285C10.9717 9.56803 11.4297 9.51562 11.9355 9.51562H13.4053ZM19.2021 10.4658H17.8418V9.68652H19.0996C19.4505 9.68652 19.7285 9.64323 19.9336 9.55664C20.1387 9.46549 20.2845 9.34017 20.3711 9.18066C20.4577 9.02116 20.501 8.83431 20.501 8.62012C20.501 8.42871 20.4508 8.2487 20.3506 8.08008C20.2549 7.9069 20.0999 7.7679 19.8857 7.66309C19.6715 7.55371 19.3844 7.49902 19.0244 7.49902C18.7327 7.49902 18.4684 7.55143 18.2314 7.65625C17.9945 7.75651 17.8053 7.89551 17.6641 8.07324C17.5273 8.24642 17.459 8.44238 17.459 8.66113H16.1943C16.1943 8.20996 16.3219 7.82259 16.5771 7.49902C16.8369 7.1709 17.181 6.91797 17.6094 6.74023C18.0423 6.5625 18.514 6.47363 19.0244 6.47363C19.4528 6.47363 19.8356 6.52148 20.1729 6.61719C20.5146 6.70833 20.804 6.84505 21.041 7.02734C21.278 7.20508 21.458 7.42839 21.5811 7.69727C21.7087 7.96159 21.7725 8.26921 21.7725 8.62012C21.7725 8.87077 21.7132 9.10775 21.5947 9.33105C21.4762 9.55436 21.3053 9.7526 21.082 9.92578C20.8587 10.0944 20.5876 10.2266 20.2686 10.3223C19.9541 10.418 19.5986 10.4658 19.2021 10.4658ZM17.8418 9.9873H19.2021C19.6442 9.9873 20.0339 10.0306 20.3711 10.1172C20.7083 10.1992 20.9909 10.3223 21.2188 10.4863C21.4466 10.6504 21.6175 10.8532 21.7314 11.0947C21.8499 11.3317 21.9092 11.6051 21.9092 11.915C21.9092 12.2614 21.8385 12.5736 21.6973 12.8516C21.5605 13.125 21.3646 13.3574 21.1094 13.5488C20.8542 13.7402 20.5488 13.8861 20.1934 13.9863C19.8424 14.0866 19.4528 14.1367 19.0244 14.1367C18.5459 14.1367 18.0811 14.0547 17.6299 13.8906C17.1787 13.7266 16.8073 13.4736 16.5156 13.1318C16.224 12.7855 16.0781 12.3457 16.0781 11.8125H17.3428C17.3428 12.0358 17.4134 12.2477 17.5547 12.4482C17.696 12.6488 17.8919 12.8105 18.1426 12.9336C18.3978 13.0566 18.6917 13.1182 19.0244 13.1182C19.3799 13.1182 19.6761 13.0635 19.9131 12.9541C20.1501 12.8447 20.3278 12.6989 20.4463 12.5166C20.5693 12.3343 20.6309 12.1361 20.6309 11.9219C20.6309 11.6439 20.5762 11.4206 20.4668 11.252C20.3574 11.0833 20.1888 10.9603 19.9609 10.8828C19.7376 10.8008 19.4505 10.7598 19.0996 10.7598H17.8418V9.9873ZM27.0225 10.7461H24.5957L24.582 9.73438H26.5645C26.9564 9.73438 27.2822 9.69564 27.542 9.61816C27.8063 9.54069 28.0046 9.42448 28.1367 9.26953C28.2689 9.11458 28.335 8.92318 28.335 8.69531C28.335 8.51758 28.2962 8.36263 28.2188 8.23047C28.1458 8.09375 28.0342 7.9821 27.8838 7.89551C27.7334 7.80436 27.5465 7.73828 27.3232 7.69727C27.1045 7.65169 26.847 7.62891 26.5508 7.62891H24.9307V14H23.666V6.60352H26.5508C27.0202 6.60352 27.4417 6.64453 27.8154 6.72656C28.1937 6.80859 28.515 6.93392 28.7793 7.10254C29.0482 7.2666 29.2533 7.47624 29.3945 7.73145C29.5358 7.98665 29.6064 8.28743 29.6064 8.63379C29.6064 8.8571 29.5609 9.06901 29.4697 9.26953C29.3786 9.47005 29.2441 9.64779 29.0664 9.80273C28.8887 9.95768 28.6699 10.0853 28.4102 10.1855C28.1504 10.2812 27.8519 10.3428 27.5146 10.3701L27.0225 10.7461ZM27.0225 14H24.1377L24.7666 12.9746H27.0225C27.3734 12.9746 27.665 12.9313 27.8975 12.8447C28.1299 12.7536 28.3031 12.626 28.417 12.4619C28.5355 12.2933 28.5947 12.0928 28.5947 11.8604C28.5947 11.6279 28.5355 11.4297 28.417 11.2656C28.3031 11.097 28.1299 10.9694 27.8975 10.8828C27.665 10.7917 27.3734 10.7461 27.0225 10.7461H25.1016L25.1152 9.73438H27.5146L27.9727 10.1172C28.3783 10.1491 28.7223 10.2493 29.0049 10.418C29.2874 10.5866 29.5016 10.8008 29.6475 11.0605C29.7933 11.3158 29.8662 11.5938 29.8662 11.8945C29.8662 12.2409 29.8001 12.5462 29.668 12.8105C29.5404 13.0749 29.3535 13.2959 29.1074 13.4736C28.8613 13.6468 28.5628 13.779 28.2119 13.8701C27.861 13.9567 27.4645 14 27.0225 14ZM34.6309 14.1367C34.1159 14.1367 33.6488 14.0501 33.2295 13.877C32.8148 13.6992 32.457 13.4508 32.1562 13.1318C31.86 12.8128 31.6322 12.4346 31.4727 11.9971C31.3132 11.5596 31.2334 11.0811 31.2334 10.5615V10.2744C31.2334 9.67285 31.3223 9.13737 31.5 8.66797C31.6777 8.19401 31.9193 7.79297 32.2246 7.46484C32.5299 7.13672 32.8763 6.88835 33.2637 6.71973C33.651 6.55111 34.0521 6.4668 34.4668 6.4668C34.9954 6.4668 35.4512 6.55794 35.834 6.74023C36.2214 6.92253 36.5381 7.17773 36.7842 7.50586C37.0303 7.82943 37.2126 8.21224 37.3311 8.6543C37.4495 9.0918 37.5088 9.57031 37.5088 10.0898V10.6572H31.9854V9.625H36.2441V9.5293C36.2259 9.20117 36.1576 8.88216 36.0391 8.57227C35.9251 8.26237 35.7428 8.00716 35.4922 7.80664C35.2415 7.60612 34.8997 7.50586 34.4668 7.50586C34.1797 7.50586 33.9154 7.56738 33.6738 7.69043C33.4323 7.80892 33.2249 7.98665 33.0518 8.22363C32.8786 8.46061 32.7441 8.75 32.6484 9.0918C32.5527 9.43359 32.5049 9.8278 32.5049 10.2744V10.5615C32.5049 10.9124 32.5527 11.2428 32.6484 11.5527C32.7487 11.8581 32.8923 12.127 33.0791 12.3594C33.2705 12.5918 33.5007 12.7741 33.7695 12.9062C34.043 13.0384 34.3529 13.1045 34.6992 13.1045C35.1458 13.1045 35.5241 13.0133 35.834 12.8311C36.1439 12.6488 36.415 12.4049 36.6475 12.0996L37.4131 12.708C37.2536 12.9495 37.0508 13.1797 36.8047 13.3984C36.5586 13.6172 36.2555 13.7949 35.8955 13.9316C35.54 14.0684 35.1185 14.1367 34.6309 14.1367ZM32.2588 4.62793C32.2588 4.42285 32.3226 4.24967 32.4502 4.1084C32.5778 3.96712 32.7624 3.89648 33.0039 3.89648C33.25 3.89648 33.4368 3.96712 33.5645 4.1084C33.6921 4.24967 33.7559 4.42285 33.7559 4.62793C33.7559 4.82389 33.6921 4.99251 33.5645 5.13379C33.4368 5.27051 33.25 5.33887 33.0039 5.33887C32.7624 5.33887 32.5778 5.27051 32.4502 5.13379C32.3226 4.99251 32.2588 4.82389 32.2588 4.62793ZM35.2051 4.6416C35.2051 4.43652 35.2666 4.26335 35.3896 4.12207C35.5173 3.98079 35.7041 3.91016 35.9502 3.91016C36.1917 3.91016 36.3763 3.98079 36.5039 4.12207C36.6361 4.26335 36.7021 4.43652 36.7021 4.6416C36.7021 4.83757 36.6361 5.00618 36.5039 5.14746C36.3763 5.28418 36.1917 5.35254 35.9502 5.35254C35.7041 5.35254 35.5173 5.28418 35.3896 5.14746C35.2666 5.00618 35.2051 4.83757 35.2051 4.6416ZM40.25 8.02539V16.8438H38.9785V6.60352H40.1406L40.25 8.02539ZM45.2334 10.2402V10.3838C45.2334 10.9215 45.1696 11.4206 45.042 11.8809C44.9144 12.3366 44.7275 12.7331 44.4814 13.0703C44.2399 13.4076 43.9414 13.6696 43.5859 13.8564C43.2305 14.0433 42.8226 14.1367 42.3623 14.1367C41.8929 14.1367 41.4782 14.0592 41.1182 13.9043C40.7581 13.7493 40.4528 13.5238 40.2021 13.2275C39.9515 12.9313 39.751 12.5758 39.6006 12.1611C39.4548 11.7464 39.3545 11.2793 39.2998 10.7598V9.99414C39.3545 9.44727 39.457 8.95736 39.6074 8.52441C39.7578 8.09147 39.9561 7.72233 40.2021 7.41699C40.4528 7.1071 40.7559 6.8724 41.1113 6.71289C41.4668 6.54883 41.877 6.4668 42.3418 6.4668C42.8066 6.4668 43.2191 6.55794 43.5791 6.74023C43.9391 6.91797 44.2422 7.17318 44.4883 7.50586C44.7344 7.83854 44.9189 8.2373 45.042 8.70215C45.1696 9.16243 45.2334 9.67513 45.2334 10.2402ZM43.9619 10.3838V10.2402C43.9619 9.87109 43.9232 9.52474 43.8457 9.20117C43.7682 8.87305 43.6475 8.58594 43.4834 8.33984C43.3239 8.08919 43.1188 7.89323 42.8682 7.75195C42.6175 7.60612 42.319 7.5332 41.9727 7.5332C41.6536 7.5332 41.3757 7.58789 41.1387 7.69727C40.9062 7.80664 40.708 7.95475 40.5439 8.1416C40.3799 8.32389 40.2454 8.53353 40.1406 8.77051C40.0404 9.00293 39.9652 9.24447 39.915 9.49512V11.2656C40.0062 11.5846 40.1338 11.8854 40.2979 12.168C40.4619 12.446 40.6807 12.6715 40.9541 12.8447C41.2275 13.0133 41.5716 13.0977 41.9863 13.0977C42.3281 13.0977 42.6221 13.027 42.8682 12.8857C43.1188 12.7399 43.3239 12.5417 43.4834 12.291C43.6475 12.0404 43.7682 11.7533 43.8457 11.4297C43.9232 11.1016 43.9619 10.7529 43.9619 10.3838ZM49.3145 6.60352V14H48.043V6.60352H49.3145ZM51.7959 6.60352V7.62891H45.6094V6.60352H51.7959ZM54.4141 6.60352V14H53.1494V6.60352H54.4141ZM59.2676 6.60352L55.7607 10.8418H53.9902L53.7988 9.73438H55.248L57.7295 6.60352H59.2676ZM57.9072 14L55.1865 10.6504L56 9.73438L59.5137 14H57.9072ZM61.9814 11.9971L65.3926 6.60352H66.6641V14H65.3926V8.60645L61.9814 14H60.7236V6.60352H61.9814V11.9971ZM75.127 13.0977C75.4277 13.0977 75.7057 13.0361 75.9609 12.9131C76.2161 12.79 76.4258 12.6214 76.5898 12.4072C76.7539 12.1885 76.8473 11.9401 76.8701 11.6621H78.0732C78.0505 12.0996 77.9023 12.5075 77.6289 12.8857C77.36 13.2594 77.0068 13.5625 76.5693 13.7949C76.1318 14.0228 75.651 14.1367 75.127 14.1367C74.571 14.1367 74.0856 14.0387 73.6709 13.8428C73.2607 13.6468 72.9189 13.3779 72.6455 13.0361C72.3766 12.6943 72.1738 12.3024 72.0371 11.8604C71.9049 11.4137 71.8389 10.9421 71.8389 10.4453V10.1582C71.8389 9.66146 71.9049 9.19206 72.0371 8.75C72.1738 8.30339 72.3766 7.90918 72.6455 7.56738C72.9189 7.22559 73.2607 6.95671 73.6709 6.76074C74.0856 6.56478 74.571 6.4668 75.127 6.4668C75.7057 6.4668 76.2116 6.58529 76.6445 6.82227C77.0775 7.05469 77.417 7.3737 77.6631 7.7793C77.9137 8.18034 78.0505 8.63607 78.0732 9.14648H76.8701C76.8473 8.84115 76.7607 8.56543 76.6104 8.31934C76.4645 8.07324 76.264 7.87728 76.0088 7.73145C75.7581 7.58105 75.4642 7.50586 75.127 7.50586C74.7396 7.50586 74.4137 7.58333 74.1494 7.73828C73.8896 7.88867 73.6823 8.09375 73.5273 8.35352C73.377 8.60872 73.2676 8.89355 73.1992 9.20801C73.1354 9.5179 73.1035 9.83464 73.1035 10.1582V10.4453C73.1035 10.7689 73.1354 11.0879 73.1992 11.4023C73.263 11.7168 73.3701 12.0016 73.5205 12.2568C73.6755 12.512 73.8828 12.7171 74.1426 12.8721C74.4069 13.0225 74.735 13.0977 75.127 13.0977ZM84.4375 6.60352V7.64941H80.8623V6.60352H84.4375ZM85.5518 6.60352V14H84.2871V6.60352H85.5518ZM80.5547 6.60352H81.8262L81.6348 10.1719C81.6029 10.7233 81.5505 11.2109 81.4775 11.6348C81.4092 12.054 81.3135 12.4141 81.1904 12.7148C81.0719 13.0156 80.9215 13.2617 80.7393 13.4531C80.5615 13.64 80.3473 13.779 80.0967 13.8701C79.846 13.9567 79.5566 14 79.2285 14H78.832V12.8857L79.1055 12.8652C79.3014 12.8516 79.4678 12.806 79.6045 12.7285C79.7458 12.651 79.8643 12.5371 79.96 12.3867C80.0557 12.2318 80.1331 12.0335 80.1924 11.792C80.2562 11.5505 80.304 11.2633 80.3359 10.9307C80.3724 10.598 80.3997 10.2106 80.418 9.76855L80.5547 6.60352ZM87.2539 10.3838V10.2266C87.2539 9.69336 87.3314 9.19889 87.4863 8.74316C87.6413 8.28288 87.8646 7.88411 88.1562 7.54688C88.4479 7.20508 88.8011 6.94076 89.2158 6.75391C89.6305 6.5625 90.0954 6.4668 90.6104 6.4668C91.1299 6.4668 91.597 6.5625 92.0117 6.75391C92.431 6.94076 92.7865 7.20508 93.0781 7.54688C93.3743 7.88411 93.5999 8.28288 93.7549 8.74316C93.9098 9.19889 93.9873 9.69336 93.9873 10.2266V10.3838C93.9873 10.917 93.9098 11.4115 93.7549 11.8672C93.5999 12.3229 93.3743 12.7217 93.0781 13.0635C92.7865 13.4007 92.4333 13.665 92.0186 13.8564C91.6084 14.0433 91.1436 14.1367 90.624 14.1367C90.1045 14.1367 89.6374 14.0433 89.2227 13.8564C88.8079 13.665 88.4525 13.4007 88.1562 13.0635C87.8646 12.7217 87.6413 12.3229 87.4863 11.8672C87.3314 11.4115 87.2539 10.917 87.2539 10.3838ZM88.5186 10.2266V10.3838C88.5186 10.7529 88.5618 11.1016 88.6484 11.4297C88.735 11.7533 88.8649 12.0404 89.0381 12.291C89.2158 12.5417 89.4368 12.7399 89.7012 12.8857C89.9655 13.027 90.2731 13.0977 90.624 13.0977C90.9704 13.0977 91.2734 13.027 91.5332 12.8857C91.7975 12.7399 92.0163 12.5417 92.1895 12.291C92.3626 12.0404 92.4925 11.7533 92.5791 11.4297C92.6702 11.1016 92.7158 10.7529 92.7158 10.3838V10.2266C92.7158 9.86198 92.6702 9.5179 92.5791 9.19434C92.4925 8.86621 92.3604 8.57682 92.1826 8.32617C92.0094 8.07096 91.7907 7.87044 91.5264 7.72461C91.2666 7.57878 90.9613 7.50586 90.6104 7.50586C90.264 7.50586 89.9587 7.57878 89.6943 7.72461C89.4346 7.87044 89.2158 8.07096 89.0381 8.32617C88.8649 8.57682 88.735 8.86621 88.6484 9.19434C88.5618 9.5179 88.5186 9.86198 88.5186 10.2266ZM97.665 10.7803L94.8623 6.60352H96.3867L98.3008 9.66602H99.7773L99.5928 10.7803H97.665ZM98.3555 10.6504L96.209 14H94.6094L97.5557 9.73438L98.3555 10.6504ZM100.427 6.60352V14H99.1621V6.60352H100.427ZM104.74 6.60352L101.938 10.7803H100.01L99.8115 9.66602H101.295L103.209 6.60352H104.74ZM103.387 14L101.233 10.6504L102.047 9.73438L104.986 14H103.387ZM111.173 9.80957V10.835H107.263V9.80957H111.173ZM107.529 6.60352V14H106.265V6.60352H107.529ZM112.198 6.60352V14H110.927V6.60352H112.198ZM115.274 9.14648H117.496C118.093 9.14648 118.597 9.2513 119.007 9.46094C119.417 9.66602 119.727 9.95085 119.937 10.3154C120.151 10.6755 120.258 11.0856 120.258 11.5459C120.258 11.8877 120.199 12.209 120.08 12.5098C119.962 12.806 119.784 13.0658 119.547 13.2891C119.314 13.5124 119.025 13.6878 118.679 13.8154C118.337 13.9385 117.943 14 117.496 14H114.352V6.60352H115.616V12.9609H117.496C117.861 12.9609 118.152 12.8949 118.371 12.7627C118.59 12.6305 118.747 12.4596 118.843 12.25C118.938 12.0404 118.986 11.8216 118.986 11.5938C118.986 11.3704 118.938 11.1517 118.843 10.9375C118.747 10.7233 118.59 10.5456 118.371 10.4043C118.152 10.2585 117.861 10.1855 117.496 10.1855H115.274V9.14648ZM122.89 6.60352V14H121.625V6.60352H122.89ZM125.959 6.60352L127.579 9.29688L129.22 6.60352H130.703L128.283 10.2539L130.778 14H129.315L127.606 11.2246L125.897 14H124.428L126.916 10.2539L124.503 6.60352H125.959ZM138.113 7.50586C137.835 7.50586 137.569 7.56738 137.313 7.69043C137.063 7.81348 136.855 7.98438 136.691 8.20312C136.532 8.41732 136.452 8.66569 136.452 8.94824H135.242C135.242 8.50618 135.379 8.09831 135.652 7.72461C135.926 7.34635 136.281 7.04329 136.719 6.81543C137.156 6.58301 137.621 6.4668 138.113 6.4668C138.633 6.4668 139.093 6.56478 139.494 6.76074C139.895 6.95671 140.232 7.22559 140.506 7.56738C140.784 7.90918 140.993 8.30339 141.135 8.75C141.276 9.19206 141.347 9.66146 141.347 10.1582V10.4453C141.347 10.9421 141.274 11.4137 141.128 11.8604C140.987 12.3024 140.777 12.6966 140.499 13.043C140.226 13.3848 139.888 13.6536 139.487 13.8496C139.091 14.0456 138.635 14.1436 138.12 14.1436C137.569 14.1436 137.074 14.0251 136.637 13.7881C136.204 13.5511 135.862 13.2321 135.611 12.8311C135.365 12.4255 135.242 11.9697 135.242 11.4639H136.452C136.452 11.7692 136.525 12.0472 136.671 12.2979C136.821 12.5439 137.022 12.7399 137.272 12.8857C137.523 13.0316 137.806 13.1045 138.12 13.1045C138.462 13.1045 138.756 13.027 139.002 12.8721C139.253 12.7171 139.458 12.512 139.617 12.2568C139.777 12.0016 139.893 11.7168 139.966 11.4023C140.043 11.0833 140.082 10.7643 140.082 10.4453V10.1582C140.082 9.83464 140.043 9.51562 139.966 9.20117C139.893 8.88672 139.777 8.60189 139.617 8.34668C139.462 8.09147 139.259 7.88867 139.009 7.73828C138.763 7.58333 138.464 7.50586 138.113 7.50586ZM140.697 9.71387V10.7461H137.286V9.71387H140.697ZM147.902 6.60352V7.64941H144.327V6.60352H147.902ZM149.017 6.60352V14H147.752V6.60352H149.017ZM144.02 6.60352H145.291L145.1 10.1719C145.068 10.7233 145.015 11.2109 144.942 11.6348C144.874 12.054 144.778 12.4141 144.655 12.7148C144.537 13.0156 144.386 13.2617 144.204 13.4531C144.026 13.64 143.812 13.779 143.562 13.8701C143.311 13.9567 143.021 14 142.693 14H142.297V12.8857L142.57 12.8652C142.766 12.8516 142.933 12.806 143.069 12.7285C143.211 12.651 143.329 12.5371 143.425 12.3867C143.521 12.2318 143.598 12.0335 143.657 11.792C143.721 11.5505 143.769 11.2633 143.801 10.9307C143.837 10.598 143.865 10.2106 143.883 9.76855L144.02 6.60352ZM154.123 14.1367C153.608 14.1367 153.141 14.0501 152.722 13.877C152.307 13.6992 151.949 13.4508 151.648 13.1318C151.352 12.8128 151.124 12.4346 150.965 11.9971C150.805 11.5596 150.726 11.0811 150.726 10.5615V10.2744C150.726 9.67285 150.814 9.13737 150.992 8.66797C151.17 8.19401 151.411 7.79297 151.717 7.46484C152.022 7.13672 152.368 6.88835 152.756 6.71973C153.143 6.55111 153.544 6.4668 153.959 6.4668C154.488 6.4668 154.943 6.55794 155.326 6.74023C155.714 6.92253 156.03 7.17773 156.276 7.50586C156.522 7.82943 156.705 8.21224 156.823 8.6543C156.942 9.0918 157.001 9.57031 157.001 10.0898V10.6572H151.478V9.625H155.736V9.5293C155.718 9.20117 155.65 8.88216 155.531 8.57227C155.417 8.26237 155.235 8.00716 154.984 7.80664C154.734 7.60612 154.392 7.50586 153.959 7.50586C153.672 7.50586 153.408 7.56738 153.166 7.69043C152.924 7.80892 152.717 7.98665 152.544 8.22363C152.371 8.46061 152.236 8.75 152.141 9.0918C152.045 9.43359 151.997 9.8278 151.997 10.2744V10.5615C151.997 10.9124 152.045 11.2428 152.141 11.5527C152.241 11.8581 152.384 12.127 152.571 12.3594C152.763 12.5918 152.993 12.7741 153.262 12.9062C153.535 13.0384 153.845 13.1045 154.191 13.1045C154.638 13.1045 155.016 13.0133 155.326 12.8311C155.636 12.6488 155.907 12.4049 156.14 12.0996L156.905 12.708C156.746 12.9495 156.543 13.1797 156.297 13.3984C156.051 13.6172 155.748 13.7949 155.388 13.9316C155.032 14.0684 154.611 14.1367 154.123 14.1367ZM162.729 12.3184L165.245 6.60352H166.462L163.167 14H162.292L159.011 6.60352H160.228L162.729 12.3184ZM159.858 6.60352V14H158.594V6.60352H159.858ZM165.56 14V6.60352H166.831V14H165.56ZM171.938 14.1367C171.423 14.1367 170.955 14.0501 170.536 13.877C170.121 13.6992 169.764 13.4508 169.463 13.1318C169.167 12.8128 168.939 12.4346 168.779 11.9971C168.62 11.5596 168.54 11.0811 168.54 10.5615V10.2744C168.54 9.67285 168.629 9.13737 168.807 8.66797C168.984 8.19401 169.226 7.79297 169.531 7.46484C169.837 7.13672 170.183 6.88835 170.57 6.71973C170.958 6.55111 171.359 6.4668 171.773 6.4668C172.302 6.4668 172.758 6.55794 173.141 6.74023C173.528 6.92253 173.845 7.17773 174.091 7.50586C174.337 7.82943 174.519 8.21224 174.638 8.6543C174.756 9.0918 174.815 9.57031 174.815 10.0898V10.6572H169.292V9.625H173.551V9.5293C173.533 9.20117 173.464 8.88216 173.346 8.57227C173.232 8.26237 173.049 8.00716 172.799 7.80664C172.548 7.60612 172.206 7.50586 171.773 7.50586C171.486 7.50586 171.222 7.56738 170.98 7.69043C170.739 7.80892 170.532 7.98665 170.358 8.22363C170.185 8.46061 170.051 8.75 169.955 9.0918C169.859 9.43359 169.812 9.8278 169.812 10.2744V10.5615C169.812 10.9124 169.859 11.2428 169.955 11.5527C170.055 11.8581 170.199 12.127 170.386 12.3594C170.577 12.5918 170.807 12.7741 171.076 12.9062C171.35 13.0384 171.66 13.1045 172.006 13.1045C172.452 13.1045 172.831 13.0133 173.141 12.8311C173.451 12.6488 173.722 12.4049 173.954 12.0996L174.72 12.708C174.56 12.9495 174.357 13.1797 174.111 13.3984C173.865 13.6172 173.562 13.7949 173.202 13.9316C172.847 14.0684 172.425 14.1367 171.938 14.1367ZM181.31 9.80957V10.835H177.399V9.80957H181.31ZM177.666 6.60352V14H176.401V6.60352H177.666ZM182.335 6.60352V14H181.063V6.60352H182.335ZM187.387 6.60352V14H186.115V6.60352H187.387ZM189.868 6.60352V7.62891H183.682V6.60352H189.868ZM190.49 10.3838V10.2266C190.49 9.69336 190.568 9.19889 190.723 8.74316C190.878 8.28288 191.101 7.88411 191.393 7.54688C191.684 7.20508 192.037 6.94076 192.452 6.75391C192.867 6.5625 193.332 6.4668 193.847 6.4668C194.366 6.4668 194.833 6.5625 195.248 6.75391C195.667 6.94076 196.023 7.20508 196.314 7.54688C196.611 7.88411 196.836 8.28288 196.991 8.74316C197.146 9.19889 197.224 9.69336 197.224 10.2266V10.3838C197.224 10.917 197.146 11.4115 196.991 11.8672C196.836 12.3229 196.611 12.7217 196.314 13.0635C196.023 13.4007 195.67 13.665 195.255 13.8564C194.845 14.0433 194.38 14.1367 193.86 14.1367C193.341 14.1367 192.874 14.0433 192.459 13.8564C192.044 13.665 191.689 13.4007 191.393 13.0635C191.101 12.7217 190.878 12.3229 190.723 11.8672C190.568 11.4115 190.49 10.917 190.49 10.3838ZM191.755 10.2266V10.3838C191.755 10.7529 191.798 11.1016 191.885 11.4297C191.971 11.7533 192.101 12.0404 192.274 12.291C192.452 12.5417 192.673 12.7399 192.938 12.8857C193.202 13.027 193.509 13.0977 193.86 13.0977C194.207 13.0977 194.51 13.027 194.77 12.8857C195.034 12.7399 195.253 12.5417 195.426 12.291C195.599 12.0404 195.729 11.7533 195.815 11.4297C195.907 11.1016 195.952 10.7529 195.952 10.3838V10.2266C195.952 9.86198 195.907 9.5179 195.815 9.19434C195.729 8.86621 195.597 8.57682 195.419 8.32617C195.246 8.07096 195.027 7.87044 194.763 7.72461C194.503 7.57878 194.198 7.50586 193.847 7.50586C193.5 7.50586 193.195 7.57878 192.931 7.72461C192.671 7.87044 192.452 8.07096 192.274 8.32617C192.101 8.57682 191.971 8.86621 191.885 9.19434C191.798 9.5179 191.755 9.86198 191.755 10.2266ZM202.282 10.7461H199.855L199.842 9.73438H201.824C202.216 9.73438 202.542 9.69564 202.802 9.61816C203.066 9.54069 203.264 9.42448 203.396 9.26953C203.529 9.11458 203.595 8.92318 203.595 8.69531C203.595 8.51758 203.556 8.36263 203.479 8.23047C203.406 8.09375 203.294 7.9821 203.144 7.89551C202.993 7.80436 202.806 7.73828 202.583 7.69727C202.364 7.65169 202.107 7.62891 201.811 7.62891H200.19V14H198.926V6.60352H201.811C202.28 6.60352 202.701 6.64453 203.075 6.72656C203.453 6.80859 203.775 6.93392 204.039 7.10254C204.308 7.2666 204.513 7.47624 204.654 7.73145C204.796 7.98665 204.866 8.28743 204.866 8.63379C204.866 8.8571 204.821 9.06901 204.729 9.26953C204.638 9.47005 204.504 9.64779 204.326 9.80273C204.148 9.95768 203.93 10.0853 203.67 10.1855C203.41 10.2812 203.112 10.3428 202.774 10.3701L202.282 10.7461ZM202.282 14H199.397L200.026 12.9746H202.282C202.633 12.9746 202.925 12.9313 203.157 12.8447C203.39 12.7536 203.563 12.626 203.677 12.4619C203.795 12.2933 203.854 12.0928 203.854 11.8604C203.854 11.6279 203.795 11.4297 203.677 11.2656C203.563 11.097 203.39 10.9694 203.157 10.8828C202.925 10.7917 202.633 10.7461 202.282 10.7461H200.361L200.375 9.73438H202.774L203.232 10.1172C203.638 10.1491 203.982 10.2493 204.265 10.418C204.547 10.5866 204.761 10.8008 204.907 11.0605C205.053 11.3158 205.126 11.5938 205.126 11.8945C205.126 12.2409 205.06 12.5462 204.928 12.8105C204.8 13.0749 204.613 13.2959 204.367 13.4736C204.121 13.6468 203.823 13.779 203.472 13.8701C203.121 13.9567 202.724 14 202.282 14ZM213.254 13.0977C213.555 13.0977 213.833 13.0361 214.088 12.9131C214.343 12.79 214.553 12.6214 214.717 12.4072C214.881 12.1885 214.974 11.9401 214.997 11.6621H216.2C216.177 12.0996 216.029 12.5075 215.756 12.8857C215.487 13.2594 215.134 13.5625 214.696 13.7949C214.259 14.0228 213.778 14.1367 213.254 14.1367C212.698 14.1367 212.213 14.0387 211.798 13.8428C211.388 13.6468 211.046 13.3779 210.772 13.0361C210.504 12.6943 210.301 12.3024 210.164 11.8604C210.032 11.4137 209.966 10.9421 209.966 10.4453V10.1582C209.966 9.66146 210.032 9.19206 210.164 8.75C210.301 8.30339 210.504 7.90918 210.772 7.56738C211.046 7.22559 211.388 6.95671 211.798 6.76074C212.213 6.56478 212.698 6.4668 213.254 6.4668C213.833 6.4668 214.339 6.58529 214.771 6.82227C215.204 7.05469 215.544 7.3737 215.79 7.7793C216.041 8.18034 216.177 8.63607 216.2 9.14648H214.997C214.974 8.84115 214.888 8.56543 214.737 8.31934C214.591 8.07324 214.391 7.87728 214.136 7.73145C213.885 7.58105 213.591 7.50586 213.254 7.50586C212.867 7.50586 212.541 7.58333 212.276 7.73828C212.017 7.88867 211.809 8.09375 211.654 8.35352C211.504 8.60872 211.395 8.89355 211.326 9.20801C211.262 9.5179 211.23 9.83464 211.23 10.1582V10.4453C211.23 10.7689 211.262 11.0879 211.326 11.4023C211.39 11.7168 211.497 12.0016 211.647 12.2568C211.802 12.512 212.01 12.7171 212.27 12.8721C212.534 13.0225 212.862 13.0977 213.254 13.0977ZM220.637 6.60352V14H219.365V6.60352H220.637ZM223.118 6.60352V7.62891H216.932V6.60352H223.118ZM226.885 14.1367C226.37 14.1367 225.903 14.0501 225.483 13.877C225.069 13.6992 224.711 13.4508 224.41 13.1318C224.114 12.8128 223.886 12.4346 223.727 11.9971C223.567 11.5596 223.487 11.0811 223.487 10.5615V10.2744C223.487 9.67285 223.576 9.13737 223.754 8.66797C223.932 8.19401 224.173 7.79297 224.479 7.46484C224.784 7.13672 225.13 6.88835 225.518 6.71973C225.905 6.55111 226.306 6.4668 226.721 6.4668C227.249 6.4668 227.705 6.55794 228.088 6.74023C228.475 6.92253 228.792 7.17773 229.038 7.50586C229.284 7.82943 229.466 8.21224 229.585 8.6543C229.703 9.0918 229.763 9.57031 229.763 10.0898V10.6572H224.239V9.625H228.498V9.5293C228.48 9.20117 228.411 8.88216 228.293 8.57227C228.179 8.26237 227.997 8.00716 227.746 7.80664C227.495 7.60612 227.154 7.50586 226.721 7.50586C226.434 7.50586 226.169 7.56738 225.928 7.69043C225.686 7.80892 225.479 7.98665 225.306 8.22363C225.132 8.46061 224.998 8.75 224.902 9.0918C224.807 9.43359 224.759 9.8278 224.759 10.2744V10.5615C224.759 10.9124 224.807 11.2428 224.902 11.5527C225.003 11.8581 225.146 12.127 225.333 12.3594C225.524 12.5918 225.755 12.7741 226.023 12.9062C226.297 13.0384 226.607 13.1045 226.953 13.1045C227.4 13.1045 227.778 13.0133 228.088 12.8311C228.398 12.6488 228.669 12.4049 228.901 12.0996L229.667 12.708C229.507 12.9495 229.305 13.1797 229.059 13.3984C228.812 13.6172 228.509 13.7949 228.149 13.9316C227.794 14.0684 227.372 14.1367 226.885 14.1367ZM236.257 9.80957V10.835H232.347V9.80957H236.257ZM232.613 6.60352V14H231.349V6.60352H232.613ZM237.282 6.60352V14H236.011V6.60352H237.282ZM239.107 7.29395C239.107 7.07975 239.174 6.89974 239.306 6.75391C239.442 6.60352 239.638 6.52832 239.894 6.52832C240.149 6.52832 240.342 6.60352 240.475 6.75391C240.611 6.89974 240.68 7.07975 240.68 7.29395C240.68 7.50358 240.611 7.68132 240.475 7.82715C240.342 7.97298 240.149 8.0459 239.894 8.0459C239.638 8.0459 239.442 7.97298 239.306 7.82715C239.174 7.68132 239.107 7.50358 239.107 7.29395ZM240.55 12.4961V13.5146C240.55 13.9294 240.445 14.3669 240.235 14.8271C240.026 15.292 239.732 15.6794 239.354 15.9893L238.636 15.4902C238.782 15.2897 238.905 15.0846 239.005 14.875C239.105 14.6699 239.18 14.4557 239.23 14.2324C239.285 14.0137 239.312 13.7812 239.312 13.5352V12.4961H240.55Z" fill="#303030" fill-opacity="0.9"/>
</svg>
