<svg width="256" height="18" viewBox="0 0 256 18" fill="none" xmlns="http://www.w3.org/2000/svg">
<path d="M5.89258 6.60352V7.64941H2.15332V6.60352H5.89258ZM2.33789 6.60352V14H1.07324V6.60352H2.33789ZM7.01367 6.60352V14H5.74219V6.60352H7.01367ZM10.3086 8.02539V16.8438H9.03711V6.60352H10.1992L10.3086 8.02539ZM15.292 10.2402V10.3838C15.292 10.9215 15.2282 11.4206 15.1006 11.8809C14.973 12.3366 14.7861 12.7331 14.54 13.0703C14.2985 13.4076 14 13.6696 13.6445 13.8564C13.2891 14.0433 12.8812 14.1367 12.4209 14.1367C11.9515 14.1367 11.5368 14.0592 11.1768 13.9043C10.8167 13.7493 10.5114 13.5238 10.2607 13.2275C10.0101 12.9313 9.80957 12.5758 9.65918 12.1611C9.51335 11.7464 9.41309 11.2793 9.3584 10.7598V9.99414C9.41309 9.44727 9.51562 8.95736 9.66602 8.52441C9.81641 8.09147 10.0146 7.72233 10.2607 7.41699C10.5114 7.1071 10.8145 6.8724 11.1699 6.71289C11.5254 6.54883 11.9355 6.4668 12.4004 6.4668C12.8652 6.4668 13.2777 6.55794 13.6377 6.74023C13.9977 6.91797 14.3008 7.17318 14.5469 7.50586C14.793 7.83854 14.9775 8.2373 15.1006 8.70215C15.2282 9.16243 15.292 9.67513 15.292 10.2402ZM14.0205 10.3838V10.2402C14.0205 9.87109 13.9818 9.52474 13.9043 9.20117C13.8268 8.87305 13.7061 8.58594 13.542 8.33984C13.3825 8.08919 13.1774 7.89323 12.9268 7.75195C12.6761 7.60612 12.3776 7.5332 12.0312 7.5332C11.7122 7.5332 11.4342 7.58789 11.1973 7.69727C10.9648 7.80664 10.7666 7.95475 10.6025 8.1416C10.4385 8.32389 10.304 8.53353 10.1992 8.77051C10.099 9.00293 10.0238 9.24447 9.97363 9.49512V11.2656C10.0648 11.5846 10.1924 11.8854 10.3564 12.168C10.5205 12.446 10.7393 12.6715 11.0127 12.8447C11.2861 13.0133 11.6302 13.0977 12.0449 13.0977C12.3867 13.0977 12.6807 13.027 12.9268 12.8857C13.1774 12.7399 13.3825 12.5417 13.542 12.291C13.7061 12.0404 13.8268 11.7533 13.9043 11.4297C13.9818 11.1016 14.0205 10.7529 14.0205 10.3838ZM16.5703 10.3838V10.2266C16.5703 9.69336 16.6478 9.19889 16.8027 8.74316C16.9577 8.28288 17.181 7.88411 17.4727 7.54688C17.7643 7.20508 18.1175 6.94076 18.5322 6.75391C18.9469 6.5625 19.4118 6.4668 19.9268 6.4668C20.4463 6.4668 20.9134 6.5625 21.3281 6.75391C21.7474 6.94076 22.1029 7.20508 22.3945 7.54688C22.6908 7.88411 22.9163 8.28288 23.0713 8.74316C23.2262 9.19889 23.3037 9.69336 23.3037 10.2266V10.3838C23.3037 10.917 23.2262 11.4115 23.0713 11.8672C22.9163 12.3229 22.6908 12.7217 22.3945 13.0635C22.1029 13.4007 21.7497 13.665 21.335 13.8564C20.9248 14.0433 20.46 14.1367 19.9404 14.1367C19.4209 14.1367 18.9538 14.0433 18.5391 13.8564C18.1243 13.665 17.7689 13.4007 17.4727 13.0635C17.181 12.7217 16.9577 12.3229 16.8027 11.8672C16.6478 11.4115 16.5703 10.917 16.5703 10.3838ZM17.835 10.2266V10.3838C17.835 10.7529 17.8783 11.1016 17.9648 11.4297C18.0514 11.7533 18.1813 12.0404 18.3545 12.291C18.5322 12.5417 18.7533 12.7399 19.0176 12.8857C19.2819 13.027 19.5895 13.0977 19.9404 13.0977C20.2868 13.0977 20.5898 13.027 20.8496 12.8857C21.1139 12.7399 21.3327 12.5417 21.5059 12.291C21.679 12.0404 21.8089 11.7533 21.8955 11.4297C21.9867 11.1016 22.0322 10.7529 22.0322 10.3838V10.2266C22.0322 9.86198 21.9867 9.5179 21.8955 9.19434C21.8089 8.86621 21.6768 8.57682 21.499 8.32617C21.3258 8.07096 21.1071 7.87044 20.8428 7.72461C20.583 7.57878 20.2777 7.50586 19.9268 7.50586C19.5804 7.50586 19.2751 7.57878 19.0107 7.72461C18.751 7.87044 18.5322 8.07096 18.3545 8.32617C18.1813 8.57682 18.0514 8.86621 17.9648 9.19434C17.8783 9.5179 17.835 9.86198 17.835 10.2266ZM26.1543 8.02539V16.8438H24.8828V6.60352H26.0449L26.1543 8.02539ZM31.1377 10.2402V10.3838C31.1377 10.9215 31.0739 11.4206 30.9463 11.8809C30.8187 12.3366 30.6318 12.7331 30.3857 13.0703C30.1442 13.4076 29.8457 13.6696 29.4902 13.8564C29.1348 14.0433 28.7269 14.1367 28.2666 14.1367C27.7972 14.1367 27.3825 14.0592 27.0225 13.9043C26.6624 13.7493 26.3571 13.5238 26.1064 13.2275C25.8558 12.9313 25.6553 12.5758 25.5049 12.1611C25.359 11.7464 25.2588 11.2793 25.2041 10.7598V9.99414C25.2588 9.44727 25.3613 8.95736 25.5117 8.52441C25.6621 8.09147 25.8604 7.72233 26.1064 7.41699C26.3571 7.1071 26.6602 6.8724 27.0156 6.71289C27.3711 6.54883 27.7812 6.4668 28.2461 6.4668C28.7109 6.4668 29.1234 6.55794 29.4834 6.74023C29.8434 6.91797 30.1465 7.17318 30.3926 7.50586C30.6387 7.83854 30.8232 8.2373 30.9463 8.70215C31.0739 9.16243 31.1377 9.67513 31.1377 10.2402ZM29.8662 10.3838V10.2402C29.8662 9.87109 29.8275 9.52474 29.75 9.20117C29.6725 8.87305 29.5518 8.58594 29.3877 8.33984C29.2282 8.08919 29.0231 7.89323 28.7725 7.75195C28.5218 7.60612 28.2233 7.5332 27.877 7.5332C27.5579 7.5332 27.2799 7.58789 27.043 7.69727C26.8105 7.80664 26.6123 7.95475 26.4482 8.1416C26.2842 8.32389 26.1497 8.53353 26.0449 8.77051C25.9447 9.00293 25.8695 9.24447 25.8193 9.49512V11.2656C25.9105 11.5846 26.0381 11.8854 26.2021 12.168C26.3662 12.446 26.585 12.6715 26.8584 12.8447C27.1318 13.0133 27.4759 13.0977 27.8906 13.0977C28.2324 13.0977 28.5264 13.027 28.7725 12.8857C29.0231 12.7399 29.2282 12.5417 29.3877 12.291C29.5518 12.0404 29.6725 11.7533 29.75 11.4297C29.8275 11.1016 29.8662 10.7529 29.8662 10.3838ZM34.1182 11.9971L37.5293 6.60352H38.8008V14H37.5293V8.60645L34.1182 14H32.8604V6.60352H34.1182V11.9971ZM43.791 13.0977C44.0918 13.0977 44.3698 13.0361 44.625 12.9131C44.8802 12.79 45.0898 12.6214 45.2539 12.4072C45.418 12.1885 45.5114 11.9401 45.5342 11.6621H46.7373C46.7145 12.0996 46.5664 12.5075 46.293 12.8857C46.0241 13.2594 45.6709 13.5625 45.2334 13.7949C44.7959 14.0228 44.3151 14.1367 43.791 14.1367C43.235 14.1367 42.7497 14.0387 42.335 13.8428C41.9248 13.6468 41.583 13.3779 41.3096 13.0361C41.0407 12.6943 40.8379 12.3024 40.7012 11.8604C40.569 11.4137 40.5029 10.9421 40.5029 10.4453V10.1582C40.5029 9.66146 40.569 9.19206 40.7012 8.75C40.8379 8.30339 41.0407 7.90918 41.3096 7.56738C41.583 7.22559 41.9248 6.95671 42.335 6.76074C42.7497 6.56478 43.235 6.4668 43.791 6.4668C44.3698 6.4668 44.8757 6.58529 45.3086 6.82227C45.7415 7.05469 46.0811 7.3737 46.3271 7.7793C46.5778 8.18034 46.7145 8.63607 46.7373 9.14648H45.5342C45.5114 8.84115 45.4248 8.56543 45.2744 8.31934C45.1286 8.07324 44.9281 7.87728 44.6729 7.73145C44.4222 7.58105 44.1283 7.50586 43.791 7.50586C43.4036 7.50586 43.0778 7.58333 42.8135 7.73828C42.5537 7.88867 42.3464 8.09375 42.1914 8.35352C42.041 8.60872 41.9316 8.89355 41.8633 9.20801C41.7995 9.5179 41.7676 9.83464 41.7676 10.1582V10.4453C41.7676 10.7689 41.7995 11.0879 41.8633 11.4023C41.9271 11.7168 42.0342 12.0016 42.1846 12.2568C42.3395 12.512 42.5469 12.7171 42.8066 12.8721C43.071 13.0225 43.3991 13.0977 43.791 13.0977ZM47.8242 10.3838V10.2266C47.8242 9.69336 47.9017 9.19889 48.0566 8.74316C48.2116 8.28288 48.4349 7.88411 48.7266 7.54688C49.0182 7.20508 49.3714 6.94076 49.7861 6.75391C50.2008 6.5625 50.6657 6.4668 51.1807 6.4668C51.7002 6.4668 52.1673 6.5625 52.582 6.75391C53.0013 6.94076 53.3568 7.20508 53.6484 7.54688C53.9447 7.88411 54.1702 8.28288 54.3252 8.74316C54.4801 9.19889 54.5576 9.69336 54.5576 10.2266V10.3838C54.5576 10.917 54.4801 11.4115 54.3252 11.8672C54.1702 12.3229 53.9447 12.7217 53.6484 13.0635C53.3568 13.4007 53.0036 13.665 52.5889 13.8564C52.1787 14.0433 51.7139 14.1367 51.1943 14.1367C50.6748 14.1367 50.2077 14.0433 49.793 13.8564C49.3783 13.665 49.0228 13.4007 48.7266 13.0635C48.4349 12.7217 48.2116 12.3229 48.0566 11.8672C47.9017 11.4115 47.8242 10.917 47.8242 10.3838ZM49.0889 10.2266V10.3838C49.0889 10.7529 49.1322 11.1016 49.2188 11.4297C49.3053 11.7533 49.4352 12.0404 49.6084 12.291C49.7861 12.5417 50.0072 12.7399 50.2715 12.8857C50.5358 13.027 50.8434 13.0977 51.1943 13.0977C51.5407 13.0977 51.8438 13.027 52.1035 12.8857C52.3678 12.7399 52.5866 12.5417 52.7598 12.291C52.9329 12.0404 53.0628 11.7533 53.1494 11.4297C53.2406 11.1016 53.2861 10.7529 53.2861 10.3838V10.2266C53.2861 9.86198 53.2406 9.5179 53.1494 9.19434C53.0628 8.86621 52.9307 8.57682 52.7529 8.32617C52.5798 8.07096 52.361 7.87044 52.0967 7.72461C51.8369 7.57878 51.5316 7.50586 51.1807 7.50586C50.8343 7.50586 50.529 7.57878 50.2646 7.72461C50.0049 7.87044 49.7861 8.07096 49.6084 8.32617C49.4352 8.57682 49.3053 8.86621 49.2188 9.19434C49.1322 9.5179 49.0889 9.86198 49.0889 10.2266ZM59.6162 10.7461H57.1895L57.1758 9.73438H59.1582C59.5501 9.73438 59.876 9.69564 60.1357 9.61816C60.4001 9.54069 60.5983 9.42448 60.7305 9.26953C60.8626 9.11458 60.9287 8.92318 60.9287 8.69531C60.9287 8.51758 60.89 8.36263 60.8125 8.23047C60.7396 8.09375 60.6279 7.9821 60.4775 7.89551C60.3271 7.80436 60.1403 7.73828 59.917 7.69727C59.6982 7.65169 59.4408 7.62891 59.1445 7.62891H57.5244V14H56.2598V6.60352H59.1445C59.6139 6.60352 60.0355 6.64453 60.4092 6.72656C60.7874 6.80859 61.1087 6.93392 61.373 7.10254C61.6419 7.2666 61.847 7.47624 61.9883 7.73145C62.1296 7.98665 62.2002 8.28743 62.2002 8.63379C62.2002 8.8571 62.1546 9.06901 62.0635 9.26953C61.9723 9.47005 61.8379 9.64779 61.6602 9.80273C61.4824 9.95768 61.2637 10.0853 61.0039 10.1855C60.7441 10.2812 60.4456 10.3428 60.1084 10.3701L59.6162 10.7461ZM59.6162 14H56.7314L57.3604 12.9746H59.6162C59.9671 12.9746 60.2588 12.9313 60.4912 12.8447C60.7236 12.7536 60.8968 12.626 61.0107 12.4619C61.1292 12.2933 61.1885 12.0928 61.1885 11.8604C61.1885 11.6279 61.1292 11.4297 61.0107 11.2656C60.8968 11.097 60.7236 10.9694 60.4912 10.8828C60.2588 10.7917 59.9671 10.7461 59.6162 10.7461H57.6953L57.709 9.73438H60.1084L60.5664 10.1172C60.972 10.1491 61.3161 10.2493 61.5986 10.418C61.8812 10.5866 62.0954 10.8008 62.2412 11.0605C62.387 11.3158 62.46 11.5938 62.46 11.8945C62.46 12.2409 62.3939 12.5462 62.2617 12.8105C62.1341 13.0749 61.9473 13.2959 61.7012 13.4736C61.4551 13.6468 61.1566 13.779 60.8057 13.8701C60.4548 13.9567 60.0583 14 59.6162 14ZM65.5293 6.60352V14H64.2646V6.60352H65.5293ZM70.3828 6.60352L66.876 10.8418H65.1055L64.9141 9.73438H66.3633L68.8447 6.60352H70.3828ZM69.0225 14L66.3018 10.6504L67.1152 9.73438L70.6289 14H69.0225ZM76.0908 12.7354V8.92773C76.0908 8.63607 76.0316 8.38314 75.9131 8.16895C75.7992 7.9502 75.626 7.78158 75.3936 7.66309C75.1611 7.5446 74.874 7.48535 74.5322 7.48535C74.2132 7.48535 73.9329 7.54004 73.6914 7.64941C73.4544 7.75879 73.2676 7.90234 73.1309 8.08008C72.9987 8.25781 72.9326 8.44922 72.9326 8.6543H71.668C71.668 8.38997 71.7363 8.12793 71.873 7.86816C72.0098 7.6084 72.2057 7.3737 72.4609 7.16406C72.7207 6.94987 73.0306 6.78125 73.3906 6.6582C73.7552 6.5306 74.1608 6.4668 74.6074 6.4668C75.1452 6.4668 75.6191 6.55794 76.0293 6.74023C76.444 6.92253 76.7676 7.19824 77 7.56738C77.237 7.93197 77.3555 8.38997 77.3555 8.94141V12.3867C77.3555 12.6328 77.376 12.8949 77.417 13.1729C77.4626 13.4508 77.5286 13.6901 77.6152 13.8906V14H76.2959C76.2321 13.8542 76.182 13.6605 76.1455 13.4189C76.109 13.1729 76.0908 12.945 76.0908 12.7354ZM76.3096 9.51562L76.3232 10.4043H75.0449C74.6849 10.4043 74.3636 10.4339 74.0811 10.4932C73.7985 10.5479 73.5615 10.6322 73.3701 10.7461C73.1787 10.86 73.0329 11.0036 72.9326 11.1768C72.8324 11.3454 72.7822 11.5436 72.7822 11.7715C72.7822 12.0039 72.8346 12.2158 72.9395 12.4072C73.0443 12.5986 73.2015 12.7513 73.4111 12.8652C73.6253 12.9746 73.8874 13.0293 74.1973 13.0293C74.5846 13.0293 74.9264 12.9473 75.2227 12.7832C75.5189 12.6191 75.7536 12.4186 75.9268 12.1816C76.1045 11.9447 76.2002 11.7145 76.2139 11.4912L76.7539 12.0996C76.722 12.291 76.6354 12.5029 76.4941 12.7354C76.3529 12.9678 76.1637 13.1911 75.9268 13.4053C75.6943 13.6149 75.4163 13.7904 75.0928 13.9316C74.7738 14.0684 74.4137 14.1367 74.0127 14.1367C73.5114 14.1367 73.0716 14.0387 72.6934 13.8428C72.3197 13.6468 72.028 13.3848 71.8184 13.0566C71.6133 12.724 71.5107 12.3525 71.5107 11.9424C71.5107 11.5459 71.5882 11.1973 71.7432 10.8965C71.8981 10.5911 72.1214 10.3382 72.4131 10.1377C72.7048 9.93262 73.0557 9.77767 73.4658 9.67285C73.876 9.56803 74.334 9.51562 74.8398 9.51562H76.3096ZM82.4824 10.3838V10.2266C82.4824 9.69336 82.5599 9.19889 82.7148 8.74316C82.8698 8.28288 83.0931 7.88411 83.3848 7.54688C83.6764 7.20508 84.0296 6.94076 84.4443 6.75391C84.859 6.5625 85.3239 6.4668 85.8389 6.4668C86.3584 6.4668 86.8255 6.5625 87.2402 6.75391C87.6595 6.94076 88.015 7.20508 88.3066 7.54688C88.6029 7.88411 88.8285 8.28288 88.9834 8.74316C89.1383 9.19889 89.2158 9.69336 89.2158 10.2266V10.3838C89.2158 10.917 89.1383 11.4115 88.9834 11.8672C88.8285 12.3229 88.6029 12.7217 88.3066 13.0635C88.015 13.4007 87.6618 13.665 87.2471 13.8564C86.8369 14.0433 86.3721 14.1367 85.8525 14.1367C85.333 14.1367 84.8659 14.0433 84.4512 13.8564C84.0365 13.665 83.681 13.4007 83.3848 13.0635C83.0931 12.7217 82.8698 12.3229 82.7148 11.8672C82.5599 11.4115 82.4824 10.917 82.4824 10.3838ZM83.7471 10.2266V10.3838C83.7471 10.7529 83.7904 11.1016 83.877 11.4297C83.9635 11.7533 84.0934 12.0404 84.2666 12.291C84.4443 12.5417 84.6654 12.7399 84.9297 12.8857C85.194 13.027 85.5016 13.0977 85.8525 13.0977C86.1989 13.0977 86.502 13.027 86.7617 12.8857C87.026 12.7399 87.2448 12.5417 87.418 12.291C87.5911 12.0404 87.721 11.7533 87.8076 11.4297C87.8988 11.1016 87.9443 10.7529 87.9443 10.3838V10.2266C87.9443 9.86198 87.8988 9.5179 87.8076 9.19434C87.721 8.86621 87.5889 8.57682 87.4111 8.32617C87.238 8.07096 87.0192 7.87044 86.7549 7.72461C86.4951 7.57878 86.1898 7.50586 85.8389 7.50586C85.4925 7.50586 85.1872 7.57878 84.9229 7.72461C84.6631 7.87044 84.4443 8.07096 84.2666 8.32617C84.0934 8.57682 83.9635 8.86621 83.877 9.19434C83.7904 9.5179 83.7471 9.86198 83.7471 10.2266ZM93.666 6.60352V14H92.3945V6.60352H93.666ZM96.1475 6.60352V7.62891H89.9609V6.60352H96.1475ZM98.1367 6.60352H99.4014L99.292 9.37207C99.2646 10.0739 99.1849 10.68 99.0527 11.1904C98.9206 11.7008 98.752 12.1361 98.5469 12.4961C98.3418 12.8516 98.1117 13.1501 97.8564 13.3916C97.6058 13.6331 97.346 13.8359 97.0771 14H96.4482L96.4824 12.9678L96.7422 12.9609C96.8926 12.7832 97.0384 12.6009 97.1797 12.4141C97.321 12.2227 97.4508 11.9971 97.5693 11.7373C97.6878 11.473 97.7858 11.1517 97.8633 10.7734C97.9453 10.3906 97.9977 9.9235 98.0205 9.37207L98.1367 6.60352ZM98.4512 6.60352H102.901V14H101.637V7.77246H98.4512V6.60352ZM96.1611 12.9609H103.852V16.1807H102.587V14H97.4258V16.1807H96.1543L96.1611 12.9609ZM108.322 14.1367C107.807 14.1367 107.34 14.0501 106.921 13.877C106.506 13.6992 106.148 13.4508 105.848 13.1318C105.551 12.8128 105.324 12.4346 105.164 11.9971C105.005 11.5596 104.925 11.0811 104.925 10.5615V10.2744C104.925 9.67285 105.014 9.13737 105.191 8.66797C105.369 8.19401 105.611 7.79297 105.916 7.46484C106.221 7.13672 106.568 6.88835 106.955 6.71973C107.342 6.55111 107.743 6.4668 108.158 6.4668C108.687 6.4668 109.143 6.55794 109.525 6.74023C109.913 6.92253 110.229 7.17773 110.476 7.50586C110.722 7.82943 110.904 8.21224 111.022 8.6543C111.141 9.0918 111.2 9.57031 111.2 10.0898V10.6572H105.677V9.625H109.936V9.5293C109.917 9.20117 109.849 8.88216 109.73 8.57227C109.617 8.26237 109.434 8.00716 109.184 7.80664C108.933 7.60612 108.591 7.50586 108.158 7.50586C107.871 7.50586 107.607 7.56738 107.365 7.69043C107.124 7.80892 106.916 7.98665 106.743 8.22363C106.57 8.46061 106.436 8.75 106.34 9.0918C106.244 9.43359 106.196 9.8278 106.196 10.2744V10.5615C106.196 10.9124 106.244 11.2428 106.34 11.5527C106.44 11.8581 106.584 12.127 106.771 12.3594C106.962 12.5918 107.192 12.7741 107.461 12.9062C107.734 13.0384 108.044 13.1045 108.391 13.1045C108.837 13.1045 109.215 13.0133 109.525 12.8311C109.835 12.6488 110.106 12.4049 110.339 12.0996L111.104 12.708C110.945 12.9495 110.742 13.1797 110.496 13.3984C110.25 13.6172 109.947 13.7949 109.587 13.9316C109.231 14.0684 108.81 14.1367 108.322 14.1367ZM117.619 6.60352V7.64941H114.044V6.60352H117.619ZM118.733 6.60352V14H117.469V6.60352H118.733ZM113.736 6.60352H115.008L114.816 10.1719C114.785 10.7233 114.732 11.2109 114.659 11.6348C114.591 12.054 114.495 12.4141 114.372 12.7148C114.254 13.0156 114.103 13.2617 113.921 13.4531C113.743 13.64 113.529 13.779 113.278 13.8701C113.028 13.9567 112.738 14 112.41 14H112.014V12.8857L112.287 12.8652C112.483 12.8516 112.649 12.806 112.786 12.7285C112.927 12.651 113.046 12.5371 113.142 12.3867C113.237 12.2318 113.315 12.0335 113.374 11.792C113.438 11.5505 113.486 11.2633 113.518 10.9307C113.554 10.598 113.581 10.2106 113.6 9.76855L113.736 6.60352ZM122.145 6.60352V14H120.88V6.60352H122.145ZM126.998 6.60352L123.491 10.8418H121.721L121.529 9.73438H122.979L125.46 6.60352H126.998ZM125.638 14L122.917 10.6504L123.73 9.73438L127.244 14H125.638ZM129.712 11.9971L133.123 6.60352H134.395V14H133.123V8.60645L129.712 14H128.454V6.60352H129.712V11.9971ZM142.857 13.0977C143.158 13.0977 143.436 13.0361 143.691 12.9131C143.947 12.79 144.156 12.6214 144.32 12.4072C144.484 12.1885 144.578 11.9401 144.601 11.6621H145.804C145.781 12.0996 145.633 12.5075 145.359 12.8857C145.09 13.2594 144.737 13.5625 144.3 13.7949C143.862 14.0228 143.382 14.1367 142.857 14.1367C142.301 14.1367 141.816 14.0387 141.401 13.8428C140.991 13.6468 140.649 13.3779 140.376 13.0361C140.107 12.6943 139.904 12.3024 139.768 11.8604C139.635 11.4137 139.569 10.9421 139.569 10.4453V10.1582C139.569 9.66146 139.635 9.19206 139.768 8.75C139.904 8.30339 140.107 7.90918 140.376 7.56738C140.649 7.22559 140.991 6.95671 141.401 6.76074C141.816 6.56478 142.301 6.4668 142.857 6.4668C143.436 6.4668 143.942 6.58529 144.375 6.82227C144.808 7.05469 145.147 7.3737 145.394 7.7793C145.644 8.18034 145.781 8.63607 145.804 9.14648H144.601C144.578 8.84115 144.491 8.56543 144.341 8.31934C144.195 8.07324 143.994 7.87728 143.739 7.73145C143.489 7.58105 143.195 7.50586 142.857 7.50586C142.47 7.50586 142.144 7.58333 141.88 7.73828C141.62 7.88867 141.413 8.09375 141.258 8.35352C141.107 8.60872 140.998 8.89355 140.93 9.20801C140.866 9.5179 140.834 9.83464 140.834 10.1582V10.4453C140.834 10.7689 140.866 11.0879 140.93 11.4023C140.993 11.7168 141.101 12.0016 141.251 12.2568C141.406 12.512 141.613 12.7171 141.873 12.8721C142.137 13.0225 142.465 13.0977 142.857 13.0977ZM150.24 6.60352V14H148.969V6.60352H150.24ZM152.722 6.60352V7.62891H146.535V6.60352H152.722ZM156.488 14.1367C155.973 14.1367 155.506 14.0501 155.087 13.877C154.672 13.6992 154.314 13.4508 154.014 13.1318C153.717 12.8128 153.49 12.4346 153.33 11.9971C153.171 11.5596 153.091 11.0811 153.091 10.5615V10.2744C153.091 9.67285 153.18 9.13737 153.357 8.66797C153.535 8.19401 153.777 7.79297 154.082 7.46484C154.387 7.13672 154.734 6.88835 155.121 6.71973C155.508 6.55111 155.91 6.4668 156.324 6.4668C156.853 6.4668 157.309 6.55794 157.691 6.74023C158.079 6.92253 158.396 7.17773 158.642 7.50586C158.888 7.82943 159.07 8.21224 159.188 8.6543C159.307 9.0918 159.366 9.57031 159.366 10.0898V10.6572H153.843V9.625H158.102V9.5293C158.083 9.20117 158.015 8.88216 157.896 8.57227C157.783 8.26237 157.6 8.00716 157.35 7.80664C157.099 7.60612 156.757 7.50586 156.324 7.50586C156.037 7.50586 155.773 7.56738 155.531 7.69043C155.29 7.80892 155.082 7.98665 154.909 8.22363C154.736 8.46061 154.602 8.75 154.506 9.0918C154.41 9.43359 154.362 9.8278 154.362 10.2744V10.5615C154.362 10.9124 154.41 11.2428 154.506 11.5527C154.606 11.8581 154.75 12.127 154.937 12.3594C155.128 12.5918 155.358 12.7741 155.627 12.9062C155.9 13.0384 156.21 13.1045 156.557 13.1045C157.003 13.1045 157.382 13.0133 157.691 12.8311C158.001 12.6488 158.272 12.4049 158.505 12.0996L159.271 12.708C159.111 12.9495 158.908 13.1797 158.662 13.3984C158.416 13.6172 158.113 13.7949 157.753 13.9316C157.397 14.0684 156.976 14.1367 156.488 14.1367ZM165.86 9.80957V10.835H161.95V9.80957H165.86ZM162.217 6.60352V14H160.952V6.60352H162.217ZM166.886 6.60352V14H165.614V6.60352H166.886ZM168.711 7.29395C168.711 7.07975 168.777 6.89974 168.909 6.75391C169.046 6.60352 169.242 6.52832 169.497 6.52832C169.752 6.52832 169.946 6.60352 170.078 6.75391C170.215 6.89974 170.283 7.07975 170.283 7.29395C170.283 7.50358 170.215 7.68132 170.078 7.82715C169.946 7.97298 169.752 8.0459 169.497 8.0459C169.242 8.0459 169.046 7.97298 168.909 7.82715C168.777 7.68132 168.711 7.50358 168.711 7.29395ZM170.153 12.4961V13.5146C170.153 13.9294 170.049 14.3669 169.839 14.8271C169.629 15.292 169.335 15.6794 168.957 15.9893L168.239 15.4902C168.385 15.2897 168.508 15.0846 168.608 14.875C168.709 14.6699 168.784 14.4557 168.834 14.2324C168.889 14.0137 168.916 13.7812 168.916 13.5352V12.4961H170.153Z" fill="#303030" fill-opacity="0.9"/>
</svg>
