<svg width="126" height="100" viewBox="0 0 126 100" fill="none" xmlns="http://www.w3.org/2000/svg">
<path d="M16.0618 88.4416C16.346 88.0391 16.6539 87.8091 16.9381 87.6366C17.1039 87.5215 17.246 87.579 17.3881 87.6941C17.5775 87.8666 17.767 87.8091 17.9565 87.579C18.0986 87.349 18.2407 87.234 18.4065 87.234C18.7617 87.234 19.117 87.1765 19.4722 87.1765C19.638 87.1765 19.7801 87.2915 19.9222 87.464C20.0643 87.6941 20.2301 87.6366 20.3722 87.464C20.538 87.234 20.6801 87.349 20.7985 87.6366C20.8222 87.6941 20.8458 87.8091 20.8695 87.8666C21.0116 88.2116 21.2248 88.2116 21.3905 87.7516C21.4616 87.579 21.4616 87.4065 21.4142 87.234C21.3669 87.0615 21.3195 86.889 21.2485 86.8315C20.9879 86.544 20.7037 86.4865 20.4669 86.1414C20.3959 86.0839 20.3011 86.0839 20.2301 86.0264C19.5433 86.0264 18.8801 86.0264 18.1933 86.0264C17.9565 86.0264 17.7196 85.9689 17.4828 85.7389C17.2697 85.5664 17.0328 85.3939 16.796 85.2214C16.6776 85.1064 16.5592 85.1639 16.4407 85.1639C16.3223 85.1639 16.2039 85.1064 16.0855 85.1064C15.9671 85.1639 15.8487 85.2789 15.7539 85.3364C15.5881 85.3939 15.4224 85.2789 15.3039 85.0489C15.1382 84.7613 14.9961 84.4163 14.854 84.1288C14.7829 83.9563 14.7119 84.0138 14.6645 84.1863C14.5698 84.4738 14.475 84.8188 14.3092 84.8188C14.0724 84.8763 13.8356 84.8763 13.6224 84.4738C13.5514 84.3588 13.504 84.2438 13.433 84.1288C13.3382 83.9563 13.2435 83.8413 13.1014 83.7838C12.9356 83.7263 12.7935 83.7263 12.6277 83.7263C12.4619 83.7263 12.3198 83.6112 12.1777 83.4962C11.2778 82.7487 11.2778 82.7487 10.4252 82.6912C9.99888 82.6337 9.5489 82.7487 9.1226 82.5762C9.09892 82.5762 9.02786 82.5187 9.02786 82.4612C9.02786 82.2311 9.09891 82.1161 9.14628 82.0011C9.21732 81.8286 9.19365 81.6561 9.09892 81.5986C8.90945 81.4836 8.6963 81.4261 8.50683 81.4836C8.31737 81.4836 8.24632 81.6561 8.24632 82.1736C8.24632 82.5187 8.17526 82.6337 8.00948 82.5762C7.89107 82.5762 7.77265 82.4612 7.7016 82.2311C7.67792 82.1736 7.67792 82.0011 7.67792 81.9436C7.74896 81.4836 7.89107 81.1386 8.03317 80.7935C8.19895 80.4485 8.38841 80.3335 8.57788 80.391C8.6963 80.4485 8.79103 80.621 8.90945 80.506C8.93313 80.4485 8.95682 80.391 8.9805 80.276C8.9805 80.161 8.9805 80.046 8.95681 79.9885C8.88577 79.8735 8.81471 79.816 8.74367 79.7585C8.31737 79.701 7.86739 79.701 7.44109 79.2984C7.34635 79.1834 7.20425 79.2409 7.08583 79.1834C6.5648 79.1259 6.04377 79.0684 5.54642 79.0109C5.45168 79.0109 5.40432 78.8384 5.428 78.7234C5.45168 78.6659 5.49905 78.6084 5.52274 78.6084C5.75957 78.5509 5.9964 78.5509 6.23323 78.4934C6.44638 78.4934 6.49375 78.3209 6.51743 77.8033C6.51743 77.5733 6.54112 77.4583 6.65953 77.4008C6.89636 77.3433 7.13319 77.3433 7.37003 77.3433C7.60687 77.2858 7.63055 77.1708 7.67792 76.4807C7.67792 76.3082 7.72528 76.1357 7.74896 75.9057C7.77264 75.6757 7.65424 75.3306 7.5595 75.2731C7.51213 75.2731 7.48845 75.2156 7.44109 75.2156C7.32266 75.2731 7.20426 75.3306 7.10952 75.1581C6.849 74.5831 6.5648 74.4106 6.23323 74.4681C6.06745 74.5256 5.92535 74.4681 5.75957 74.4681C5.7122 74.4681 5.66483 74.5256 5.66483 74.5831C5.64115 74.7556 5.68852 74.8706 5.78325 74.9281C5.83062 74.9281 5.8543 74.9856 5.90167 74.9856C5.9964 75.0431 6.04377 75.1006 6.04377 75.3306C6.04377 75.3881 5.97271 75.4456 5.94903 75.4456C5.59378 75.5031 5.23853 75.5606 4.88328 75.5031C4.76486 75.5031 4.64645 75.3306 4.5754 75.1006C4.45699 74.6406 4.29121 74.4681 4.07806 74.4681C3.8886 74.4681 3.67545 74.4106 3.48599 74.4106C3.29652 74.4106 3.08337 74.3531 2.8939 74.2955C2.84654 74.2955 2.82285 74.1805 2.79916 74.123C2.82285 74.0655 2.87022 74.008 2.8939 73.9505C3.20178 73.778 3.53335 73.8355 3.84123 73.778C4.05438 73.7205 4.22015 73.6055 4.40962 73.3755C4.67013 73.0305 4.67014 73.0305 4.48067 72.4554C4.45699 72.3979 4.45699 72.2829 4.45699 72.2254C4.48067 72.1679 4.52803 72.1104 4.55171 72.1104C4.83592 72.0529 5.09644 71.8804 5.38063 71.7654C5.45168 71.7079 5.54642 71.8229 5.61746 71.8804C5.83061 71.9954 6.02008 71.7079 6.11482 71.3053C6.23323 70.7878 6.35166 70.3278 6.51743 69.8677C6.61217 69.5802 6.5648 69.4077 6.4227 69.2352C6.35165 69.1202 6.28059 69.0627 6.20955 68.9477C6.06744 68.7176 5.92535 68.6026 5.75957 68.6026C5.0017 68.5451 4.24385 68.6601 3.48599 68.7176C3.1781 68.7751 2.84654 68.7176 2.53865 68.7176C2.23077 68.7176 1.99394 68.5451 1.82815 67.9126C1.78079 67.7401 1.70973 67.6826 1.66236 67.51C1.54395 67.2225 1.54395 67.05 1.66236 66.8775C1.87551 66.6475 2.08865 66.4175 2.34917 66.36C2.98862 66.3025 3.62807 66.2449 4.26752 66.1299C4.31489 66.1299 4.36225 66.0724 4.36225 66.0149C4.38593 65.8999 4.33857 65.7849 4.24384 65.7274C4.07805 65.6699 3.93595 65.7274 3.77017 65.5549C3.67544 65.4399 3.65176 65.3249 3.65176 65.0949C3.65176 64.9223 3.69913 64.7498 3.79386 64.6923C3.98333 64.5773 4.19647 64.5773 4.38594 64.5198C4.69382 64.4048 4.90697 64.1173 5.02538 63.4272C5.09644 63.0247 5.21485 62.8522 5.38063 62.7372C5.428 62.7372 5.45168 62.6797 5.49905 62.6222C5.52273 62.5647 5.59378 62.5072 5.59378 62.4497C5.59378 62.2772 5.54641 62.1046 5.47537 61.9896C5.40431 61.8746 5.33327 61.7596 5.26222 61.7596C5.1438 61.7021 5.02538 61.7021 4.90697 61.7021C4.22015 61.7596 3.55702 61.5871 2.87021 61.5296C2.79916 61.5296 2.72811 61.4146 2.65707 61.2996C2.58602 61.1846 2.53865 61.0121 2.53865 60.8395C2.53865 60.667 2.58601 60.552 2.68074 60.4945C2.87021 60.437 3.08336 60.437 3.27283 60.3795C3.55702 60.322 3.81754 60.1495 4.03069 59.632C4.10175 59.4594 4.17278 59.4594 4.24384 59.5169C4.43331 59.5745 4.4333 59.5169 4.52803 59.2294C4.55171 59.1719 4.5754 59.0569 4.5754 58.9994C4.74118 58.3669 4.97801 58.1368 5.26222 57.9643C5.45168 57.8493 5.49905 57.1593 5.35695 56.7567C5.33327 56.6992 5.2859 56.6417 5.26222 56.5842C5.09644 56.4692 4.95433 56.5267 4.78855 56.5267C4.67014 56.5267 4.55171 56.5267 4.4333 56.4692C4.1491 56.3542 3.91228 55.9517 3.62808 55.9517C3.39124 55.9517 3.15441 55.8942 2.91757 55.8367C2.82285 55.8367 2.77548 55.6642 2.77548 55.5491C2.77548 55.4916 2.82285 55.3766 2.84653 55.3766C2.91758 55.3191 2.98863 55.2616 3.08336 55.2041C3.22547 55.0891 3.34387 54.8016 3.46229 54.5141C3.55702 54.2266 3.50965 53.939 3.41492 53.7665C3.24914 53.479 3.036 53.5365 2.84653 53.4215C2.82285 53.4215 2.77548 53.3065 2.75179 53.249C2.77548 53.1915 2.79916 53.0765 2.82284 53.019C3.08335 52.5589 3.39125 52.3289 3.72282 52.3289C3.8886 52.3289 4.03069 52.2714 4.19647 52.2714C4.4333 52.2714 4.67013 52.1564 4.88328 51.9264C5.0017 51.8114 5.12012 51.8114 5.23853 51.6964C5.33327 51.6389 5.38063 51.5238 5.35695 51.3513C5.35695 51.1788 5.30959 51.0063 5.21485 50.8913C5.09644 50.7763 4.97802 50.7188 4.85961 50.8338C4.55172 51.1213 4.24384 51.2363 3.93596 51.2363C3.36756 51.2363 2.82285 51.2363 2.25445 51.2363C2.20708 51.2363 2.15972 51.2363 2.13603 51.1788C2.06498 51.0638 2.01762 50.9488 1.94657 50.8338C1.92288 50.7763 1.92288 50.6613 1.94657 50.5463C1.97025 50.3738 2.01761 50.2012 2.08866 50.1437C2.32549 49.9137 2.56233 49.9712 2.79916 49.9137C2.96494 49.8562 2.94126 49.5112 2.94126 49.2812C2.94126 48.9362 3.10705 48.5336 3.24915 48.4761C3.3202 48.4186 3.41493 48.3611 3.48599 48.3611C3.79386 48.3036 4.12541 48.3036 4.40962 47.9011C4.48067 47.8436 4.55171 47.7861 4.64645 47.7861C4.76486 47.7286 4.88328 47.7286 5.0017 47.7286C5.23853 47.6711 5.47537 47.6711 5.7122 47.5561C5.94903 47.441 6.16219 47.096 6.39902 47.0385C6.4227 47.0385 6.47007 46.9235 6.49375 46.866C6.47007 46.8085 6.44638 46.751 6.4227 46.751C5.94903 46.6935 5.47537 46.6935 5.0017 46.6935C4.76486 46.6935 4.52803 46.636 4.31488 46.3485C4.22015 46.2335 4.07806 46.1759 3.98332 46.0609C3.88859 46.0034 3.74649 46.0034 3.74649 45.6584C3.74649 45.4859 3.84123 45.3709 3.91228 45.2559C3.98333 45.1409 4.00701 44.9684 4.00701 44.7383C3.98332 44.5658 3.93597 44.3933 3.84123 44.3933C3.77018 44.3358 3.67545 44.3358 3.6044 44.3358C3.20178 44.2783 2.79917 44.2783 2.42024 44.2783C2.25445 44.2783 2.11235 44.2208 1.94657 44.2208C1.8992 44.2208 1.85183 44.1058 1.85183 44.1058C1.85183 43.9333 1.92288 43.8183 1.99392 43.8183C2.23075 43.7608 2.46759 43.7033 2.68074 43.4157C2.84653 43.1857 3.05969 43.1857 3.24915 43.1282C3.34388 43.0707 3.39125 42.9557 3.39125 42.8407C3.39125 42.7832 3.32018 42.7257 3.2965 42.6682C3.05967 42.6107 2.82284 42.6107 2.58601 42.5532C2.46759 42.4957 2.34917 42.4957 2.23075 42.3807C1.97024 42.0931 1.68604 42.0356 1.42553 42.0356C1.25975 42.0356 1.11765 41.9781 0.951868 41.9206C0.904497 41.9206 0.880808 41.8056 0.857126 41.7481C0.880808 41.6906 0.928179 41.6331 0.951868 41.5756C1.07028 41.5181 1.1887 41.4606 1.30712 41.4606C2.06498 41.4606 2.82284 41.4606 3.58071 41.4031C4.05438 41.4031 4.52803 41.4031 5.0017 41.2306C5.02539 41.2306 5.07276 41.1156 5.07276 41.1156C5.07276 41.0006 5.04907 40.8856 5.0017 40.8856C4.78855 40.598 4.5754 40.368 4.33857 40.368C3.62807 40.3105 2.91758 40.253 2.1834 40.1955C2.06498 40.1955 1.94657 40.0805 1.85183 39.8505C1.82814 39.793 1.80447 39.678 1.78078 39.6205C1.73342 39.4479 1.78078 39.2754 1.89919 39.2754C2.20708 39.2179 2.53865 39.2179 2.84653 39.1604C3.13073 39.1029 3.39124 39.2179 3.65176 39.5054C3.67544 39.563 3.7228 39.563 3.77017 39.563C3.93595 39.6205 4.07805 39.5054 4.19647 39.2754C4.2912 38.7579 4.45699 38.5854 4.67014 38.5279C4.78855 38.4704 4.90697 38.3554 5.0017 38.2404C5.16748 38.0678 5.30959 38.1253 5.45169 38.2979C5.52274 38.4129 5.59379 38.4129 5.68852 38.3554C5.80694 38.2979 5.90167 38.1829 6.02008 38.0678C6.25692 37.8953 6.49375 37.8378 6.73059 38.0103C7.03847 38.1829 7.03847 38.1829 7.29898 37.8953C7.32266 37.8378 7.37004 37.7803 7.39372 37.7228C7.44108 37.5503 7.4174 37.4353 7.29898 37.4353C6.9911 37.3778 6.65953 37.3778 6.35165 37.3203C6.2806 37.3203 6.20955 37.2053 6.11482 37.2053C5.9964 37.1478 5.94904 36.7452 6.02008 36.5152C6.11482 36.0552 6.2806 35.7102 6.47006 35.7102C7.01478 35.6527 7.58319 35.5952 8.1279 35.5952C8.24632 35.5952 8.36473 35.6527 8.48315 35.8252C8.74366 36.2277 9.00418 36.1702 9.28838 36.1702C9.35943 36.1702 9.45416 36.1127 9.52521 36.0552C9.5489 36.0552 9.61994 35.9977 9.61994 35.9402C9.61994 35.8827 9.59627 35.7677 9.59627 35.6527C9.52522 35.4226 9.43048 35.2501 9.31207 35.1926C8.60156 35.0776 7.89106 35.1926 7.15689 35.0201C7.03846 35.0201 7.01479 34.8476 6.99111 34.3876C6.99111 34.0425 6.92005 33.9275 6.75427 33.9275C6.58849 33.9275 6.44638 34.0425 6.37534 34.5026C6.35166 34.5601 6.32797 34.6751 6.2806 34.6751C6.20955 34.6751 6.16219 34.5601 6.16219 34.3301C6.16219 34.2151 6.13851 34.1576 6.13851 34.0425C6.11482 33.6975 5.9964 33.525 5.90167 33.4675C5.23854 33.295 4.55173 33.2375 3.86491 33.295C3.74649 33.295 3.62808 33.295 3.50966 33.18C3.48598 33.1225 3.46229 33.065 3.41492 33.0075C3.43861 32.95 3.4623 32.835 3.50966 32.835C3.81755 32.6049 4.1491 32.8925 4.45699 32.7199C4.55172 32.6624 4.5754 32.5474 4.59909 32.3174C4.59909 31.6849 4.62277 31.6849 4.85961 31.7999C5.02539 31.9149 5.02539 31.9149 5.30959 31.6849C5.38064 31.6274 5.47537 31.5699 5.54642 31.5699C5.90167 31.5699 6.25692 31.5699 6.61217 31.6274C6.65953 31.6274 6.68322 31.6849 6.73059 31.6849C6.87268 31.8574 7.03847 31.8574 7.18057 31.6849C7.32266 31.5123 7.48845 31.5699 7.65423 31.6274C7.72528 31.6849 7.79634 31.7424 7.89107 31.7999C8.08053 31.9724 8.27 31.9724 8.45947 31.7999C8.50683 31.7424 8.53051 31.7424 8.57788 31.6849C8.76734 31.4548 8.95681 31.4548 9.14628 31.6849C9.50153 32.0299 9.85678 31.9724 10.212 31.9149C10.3304 31.9149 10.4252 31.6849 10.4962 31.4548C10.5199 31.3973 10.5436 31.2823 10.5199 31.1673C10.5199 31.1098 10.4725 31.0523 10.4489 30.9948C10.1883 30.8223 9.90415 30.8798 9.61994 30.8223C9.09891 30.7648 8.57788 30.7648 8.08053 30.7073C8.05685 30.7073 7.9858 30.6498 7.9858 30.5348C7.96211 30.4198 8.03317 30.3048 8.1279 30.2473C8.24632 30.1898 8.36473 30.1898 8.48315 30.1898C8.88577 30.1323 9.28838 30.1322 9.66732 30.1322C9.76205 30.1322 9.80941 29.9597 9.76205 29.8447C9.73836 29.7872 9.691 29.7297 9.66732 29.7297C9.50153 29.6722 9.35943 29.6722 9.19365 29.6722C8.8384 29.6722 8.48315 29.7297 8.15158 29.2697C8.08054 29.2122 7.9858 29.2122 7.91475 29.2697C7.74896 29.3847 7.60687 29.3847 7.44109 29.2697C7.20425 29.0397 6.96742 29.0972 6.73059 29.0972C6.49375 29.0397 6.25692 29.0972 6.02008 29.0397C5.90167 29.0397 5.80694 28.8672 5.68852 28.6946C5.5701 28.0621 5.30959 28.0046 5.07276 28.0046C4.83592 27.9471 4.59909 27.9471 4.36225 27.9471C4.03069 28.0046 3.74649 27.7171 3.46229 27.3145C3.32019 27.142 3.27284 26.6245 3.36756 26.337C3.50967 25.9344 3.65176 25.7044 3.86491 25.7044C3.91228 25.7044 3.93596 25.7044 3.98332 25.7044L3.95965 25.6469C4.00701 25.8194 4.05437 25.9919 4.12542 25.9919C4.48067 26.1644 4.83592 26.1644 5.19117 25.9919C5.28591 25.9344 5.33327 25.7619 5.30959 25.5894C5.28591 25.4169 5.23854 25.2444 5.16748 25.2444C5.09644 25.2444 5.0017 25.2444 4.93065 25.3594C4.78855 25.5319 4.69382 25.4169 4.62277 25.1869C4.55172 24.9569 4.48067 24.7268 4.40962 24.4968C4.33856 24.2668 4.24384 24.0943 4.12542 24.0368C4.00701 24.0368 3.88859 24.0368 3.77017 23.9793C3.69912 23.9793 3.60439 23.9218 3.53334 23.9218C3.50965 23.9218 3.4623 23.8068 3.43862 23.7493C3.41493 23.6343 3.43861 23.4618 3.53334 23.4042C4.40962 23.2892 5.28591 23.2892 6.16219 23.2892C7.7016 23.2892 9.2647 23.4042 10.8041 23.2317C10.8988 23.2317 10.9462 23.0592 10.9225 22.9442C10.8988 22.8867 10.8515 22.8292 10.8278 22.7717C10.7804 22.7142 10.7567 22.7142 10.7094 22.7142C9.59626 22.7142 8.48315 22.6567 7.37003 22.6567C7.15688 22.6567 6.96742 22.5992 6.77795 22.3692C6.63585 22.1967 6.47007 22.1967 6.30428 22.1967C5.7122 22.1967 5.12012 22.1391 4.50436 22.1391C4.07806 22.1391 3.62808 22.2542 3.20178 22.0241C3.1781 22.0241 3.13072 21.9091 3.10704 21.8516C3.13072 21.7941 3.1781 21.6791 3.20178 21.6791C3.6044 21.5066 3.98332 21.5066 4.38594 21.5641C4.78855 21.5641 5.19117 21.6216 5.5701 21.5066C5.68853 21.4491 5.73589 21.2191 5.64115 20.8741C5.5701 20.644 5.49906 20.414 5.45169 20.1265C5.428 19.954 5.45169 19.724 5.45169 19.5515C5.45169 19.494 5.40432 19.4365 5.38063 19.3789C5.19117 19.2064 4.97801 19.2064 4.78855 19.2064C4.22015 19.2639 3.67544 19.2064 3.10704 19.1489C3.05967 19.1489 3.03599 19.1489 2.98863 19.1489C2.82284 19.1489 2.84654 18.9189 3.01232 18.6889C3.24915 18.3439 3.50966 18.1139 3.79386 18.1139C4.55173 18.1139 5.30958 18.1139 6.06745 18.1139C6.89637 18.1139 7.74897 18.1139 8.57788 18.1139C8.6963 18.1139 8.81472 18.1139 8.93313 18.1139C9.64363 17.9413 10.3541 18.1139 11.0646 17.9413C11.112 17.9413 11.1357 17.8263 11.1594 17.7688C11.1357 17.7113 11.112 17.6538 11.0646 17.5963C10.9462 17.5388 10.8278 17.4813 10.7094 17.4813C10.3541 17.4813 9.99888 17.5388 9.64363 17.5963C9.52521 17.5963 9.40679 17.5963 9.28838 17.4813C9.02787 17.1938 8.76735 17.0788 8.48315 17.0213C7.20425 16.9638 5.92535 16.9638 4.67014 16.9063C4.48067 16.9063 4.26754 16.8488 4.07807 16.6762C3.93597 16.5612 3.77018 16.5037 3.6044 16.5037C3.3202 16.5037 3.036 16.4462 2.77549 16.5037C2.37287 16.5612 1.99392 16.2737 1.63867 15.8137C1.61499 15.7562 1.56763 15.6987 1.54395 15.6412C1.37817 15.3536 1.16501 15.2961 0.975543 15.2961C0.691348 15.2961 0.407146 15.2961 0.146625 15.2386C0.0518982 15.2386 -0.0191467 15.0661 0.0045349 14.9511C0.0282166 14.7786 0.122943 14.7211 0.217677 14.7211C1.02291 14.7211 1.80447 14.6061 2.6097 14.7211C2.8939 14.7786 3.1781 14.7211 3.43862 14.7211C3.86492 14.7211 4.31489 14.7211 4.74119 14.7211C5.04908 14.7211 5.38064 14.6636 5.68853 14.6061C5.80694 14.6061 5.92536 14.4911 6.02008 14.3761C6.20955 14.2036 6.39902 14.031 6.58849 14.031C6.94374 13.9735 7.29898 13.9735 7.65423 13.916C7.7016 13.916 7.74897 13.8585 7.74897 13.801C7.77265 13.686 7.70159 13.571 7.60687 13.571C7.32267 13.5135 7.06215 13.5135 6.77795 13.456C6.75427 13.456 6.7069 13.3985 6.68322 13.2835C6.63585 13.1685 6.68322 12.996 6.77795 12.996C7.60687 12.7659 8.45947 12.8235 9.28838 12.9385C9.40679 12.9385 9.52521 13.0535 9.64363 13.111C9.71468 13.1685 9.78573 13.1685 9.88047 13.111C10.141 12.881 10.4252 12.8235 10.7094 12.8235C10.8752 12.8235 11.041 12.8235 11.183 12.6509C11.4436 12.3634 11.7041 12.3059 11.9883 12.1334C12.0593 12.0759 12.1304 12.0184 12.2014 11.9609C12.3909 11.7309 12.5804 11.7309 12.7698 11.9609C12.8409 12.0759 12.9356 12.0759 13.0067 12.0184C13.3145 11.7309 13.6224 11.6734 13.9303 11.5584C13.954 11.5584 13.9777 11.4434 14.025 11.3858C14.0014 11.3283 13.9777 11.2708 13.9303 11.2133C13.6461 11.0408 13.3856 11.0408 13.1014 11.0983C12.5093 11.0983 11.9172 11.0408 11.3015 11.1558C11.0646 11.2133 10.8278 11.1558 10.591 10.9833C10.5436 10.9833 10.5199 10.8683 10.4962 10.8683C10.5199 10.8108 10.5436 10.7533 10.591 10.6958C10.8988 10.5233 11.2304 10.5233 11.5383 10.5233C12.1067 10.5233 12.6514 10.5233 13.2198 10.5233C13.2909 10.5233 13.3856 10.4658 13.4566 10.4083C13.504 10.4083 13.5277 10.2933 13.5514 10.2358C13.5277 10.1783 13.4803 10.1208 13.4566 10.0633C13.1724 9.89074 12.9119 9.94824 12.6277 10.0057C12.0356 10.0632 11.4436 10.0058 10.8278 9.94824C10.662 9.94824 10.5199 9.83324 10.3778 9.66072C10.2357 9.48821 10.0699 9.3732 9.92784 9.4307C9.16997 9.4307 8.4121 9.48821 7.65423 9.48821C7.29898 9.48821 6.94374 9.43071 6.58849 9.3732C6.54112 9.3732 6.51744 9.25818 6.49375 9.25818C6.51744 9.14318 6.58848 9.02817 6.68322 9.02817C6.9911 8.97066 7.32267 8.91316 7.63055 8.91316C9.31207 8.91316 10.9699 8.85566 12.6514 8.85566C13.0067 8.85566 13.3619 8.79816 13.7172 8.79816C13.7645 8.79816 13.8119 8.74065 13.8119 8.68314C13.8356 8.51063 13.7882 8.39563 13.7172 8.33812C13.6698 8.28062 13.6461 8.28062 13.5988 8.28062C13.504 8.28062 13.433 8.22311 13.3856 8.0506C13.3382 7.87809 13.433 7.41805 13.5277 7.36055C13.5987 7.30305 13.6698 7.18803 13.7408 7.18803C13.9066 7.13053 14.0487 7.07303 14.2145 7.01552C14.3092 6.95801 14.3566 6.78551 14.3566 6.61299C14.3566 6.44048 14.3329 6.26797 14.2619 6.15295C14.1908 6.03795 14.0961 5.92293 14.0724 5.80793C14.0487 5.63541 14.1435 5.52041 14.2145 5.4054C14.3092 5.29039 14.3092 5.11787 14.3092 4.94537C14.2856 4.48533 14.404 4.31282 14.5934 4.48534C14.6408 4.54284 14.6645 4.54284 14.7119 4.60034C14.7829 4.65784 14.854 4.77286 14.925 4.88786L14.9013 4.83036C14.9961 5.17538 15.1145 5.3479 15.3039 5.3479C15.6118 5.3479 15.9434 5.4054 16.2276 5.00287C16.2986 4.94537 16.3934 4.94537 16.4644 5.00287C16.6302 5.11788 16.7723 5.23289 16.9144 5.00287C16.9855 4.88786 17.0565 4.88786 17.1512 4.94537C17.2223 5.00287 17.2933 5.06038 17.3644 5.17538C17.5539 5.3479 17.7433 5.4054 17.9328 5.17538C18.0986 5.00288 18.2407 5.06037 18.3828 5.23289C18.4301 5.29039 18.4538 5.29039 18.5012 5.29039C18.9275 5.3479 19.3775 5.4054 19.8038 5.23289C19.9696 5.17538 20.1117 5.06038 20.2538 4.88786C20.4432 4.65785 20.6327 4.71536 20.8222 4.88786C20.9406 5.00288 21.059 5.00288 21.1537 4.88786C21.2248 4.83036 21.2958 4.77285 21.3669 4.65785C21.4616 4.54283 21.58 4.54284 21.6511 4.25531C21.6037 4.0828 21.5327 4.0253 21.4379 3.96779C21.2721 3.91029 21.13 3.79528 21.0116 3.45026C20.9406 3.27774 20.9643 3.10523 21.0353 2.99022C21.059 2.93272 21.1064 2.87521 21.13 2.87521C21.3195 2.76021 21.5327 2.7602 21.7221 2.99022C21.8879 3.16274 22.03 3.10523 22.1721 2.93272C22.1958 2.87521 22.2432 2.87521 22.2905 2.8177C22.7642 2.7602 23.2378 2.6452 23.7115 2.87521C23.8299 2.93272 23.8536 3.04772 23.8063 3.27774C23.7589 3.45026 23.7352 3.62277 23.6878 3.73778C23.5694 4.19782 23.5694 4.31281 23.7115 4.37032C23.901 4.42783 24.1141 4.48534 24.3036 4.42783C24.4694 4.37032 24.6115 4.19782 24.6588 3.73778C24.6588 3.62277 24.6825 3.56527 24.7062 3.45026C24.7299 3.10523 24.8483 2.93272 24.9431 2.87522C25.2036 2.76021 25.4878 2.70271 25.772 2.76021C25.8667 2.76021 25.9378 2.87522 25.9378 2.99022C25.9378 3.04772 25.9141 3.16273 25.8667 3.22024C25.7957 3.33524 25.7246 3.45026 25.6772 3.56526C25.5588 3.85278 25.4167 3.96779 25.2509 3.96779C25.1562 3.96779 25.1088 4.0253 25.0615 4.19782C25.1325 4.31282 25.2036 4.37032 25.2746 4.37032C25.4641 4.37032 25.6772 4.37033 25.8667 4.19782C26.1272 3.9678 26.3877 3.73777 26.6483 3.50776C26.7193 3.45025 26.7904 3.33525 26.8851 3.33525C27.2167 3.33525 27.5009 3.04772 27.8087 2.81771C27.8798 2.7602 27.9745 2.7602 28.0456 2.81771C28.5429 3.27774 29.0639 3.33525 29.5613 3.27774C30.3192 3.16274 31.077 3.27774 31.8112 3.27774C31.9296 3.27774 32.048 3.27774 32.1665 3.39275C32.3559 3.56526 32.5454 3.50777 32.7585 3.33525C32.9006 3.22025 33.0664 3.22024 33.2322 3.39275C33.3506 3.50776 33.469 3.62278 33.5638 3.62278C34.0374 3.68028 34.5111 3.73778 34.9848 3.56527C35.1032 3.50776 35.1979 3.39276 35.2927 3.16274C35.3163 3.10524 35.34 2.99022 35.34 2.93272C35.2927 2.7027 35.2216 2.6452 35.1506 2.76021C35.0795 2.81771 35.0085 2.87522 34.9374 2.99022C34.819 3.16274 34.7006 3.16274 34.6058 3.04773C34.3927 2.81771 34.1559 2.7027 33.919 2.7027C33.398 2.7027 32.877 2.76021 32.3796 2.5877C32.3322 2.5877 32.2849 2.53019 32.2849 2.47269C32.2612 2.30017 32.3086 2.12766 32.3559 1.95514C32.4033 1.78263 32.4743 1.72513 32.5691 1.66762C32.8059 1.61012 33.0428 1.55262 33.2796 1.49511C33.5638 1.49511 33.8243 1.49511 34.1085 1.49511C34.2743 1.49511 34.4164 1.3226 34.5585 1.20758C34.6532 1.15008 34.7953 1.20759 34.89 1.15009C34.9137 1.15009 34.9374 1.03508 34.9848 0.977573C35.1269 0.575046 35.1269 0.575046 35.269 0.747562C35.3874 0.862568 35.4821 0.977573 35.6005 1.09258C35.6716 1.15008 35.719 1.3226 35.7426 1.55262C35.6716 1.55262 35.5769 1.55262 35.5058 1.61013C35.4821 1.61013 35.4348 1.66763 35.4111 1.72513C35.3874 1.78263 35.3874 1.89765 35.3874 1.89765C35.4348 2.07016 35.5058 2.07016 35.5769 1.95514C35.6479 1.84014 35.6953 1.72512 35.6953 1.49511C35.79 1.49511 35.8611 1.49511 35.9558 1.49511C35.9795 1.78263 36.0742 1.95515 36.1926 2.01265C36.2637 2.07016 36.3347 2.01265 36.4058 2.01265C36.4295 2.01265 36.4768 1.95515 36.5005 1.89765C36.5242 1.78263 36.4768 1.66762 36.3821 1.66762C36.24 1.61012 36.0742 1.61013 35.9321 1.61013C35.9558 1.43761 35.9795 1.26509 36.0505 1.15009C36.1453 0.977573 36.24 0.862568 36.3584 0.747562C36.4531 0.632549 36.5716 0.517536 36.69 0.690052C36.8321 0.862568 36.9742 0.920071 37.1163 1.03508C37.2347 1.15009 37.3057 1.2651 37.3768 1.55262C37.4242 1.78264 37.5189 2.01265 37.6373 2.12766C37.661 2.30018 37.7084 2.47268 37.7794 2.53019C37.8031 2.5877 37.8505 2.5877 37.8741 2.5877C37.8978 2.5877 37.9452 2.53019 37.9689 2.47269C37.9926 2.35768 37.9452 2.24267 37.8505 2.18517C37.7794 2.18517 37.7084 2.18517 37.6136 2.18517C37.732 1.49511 37.9452 1.09259 38.2294 0.977574C38.6557 0.805058 39.0583 0.402531 39.4846 0.11501C39.603 0.0575073 39.7214 0.0575073 39.8399 0.11501C39.9109 0.172513 40.0056 0.172521 40.0767 0.172521C40.1951 0.172521 40.3135 0.0575075 40.4319 4.74164e-06C40.6925 0.230023 40.9767 0.287519 41.2135 0.632543C41.4266 0.977575 41.6635 0.920064 41.8766 0.632543C41.9003 0.57504 41.9477 0.517537 41.9714 0.517537C41.995 0.460035 42.0424 0.402532 42.0898 0.402532C42.2082 0.345029 42.3266 0.287527 42.445 0.402532C42.5871 0.517538 42.7292 0.747564 42.8713 0.862569C42.9424 0.920072 43.0371 0.920065 43.1082 0.920065C43.2739 0.920065 43.416 0.805059 43.5581 0.632543C43.7713 0.345022 44.0081 0.287519 44.245 0.345022C44.4107 0.345022 44.5528 0.40254 44.7186 0.460043C44.8844 0.517546 45.0028 0.690062 45.1212 1.03509C45.1923 1.2651 45.1923 1.4376 45.0739 1.49511C44.8607 1.66762 44.6239 1.78264 44.3871 1.95514C44.1502 2.12766 43.9134 2.07016 43.6766 2.07016C43.4397 2.12766 43.2029 2.01265 42.9897 1.72513C42.8476 1.55262 42.6819 1.61013 42.5161 1.72513C42.4687 1.72513 42.445 1.78264 42.3977 1.84014C42.2082 2.07016 42.0424 2.18517 41.8293 2.18517C41.1661 2.12767 40.4793 2.24267 39.8162 2.18517C39.6267 2.18517 39.4136 2.24267 39.2478 2.47269C39.0346 2.70271 38.7978 2.7027 38.561 2.81771C38.5373 2.7602 38.5373 2.6452 38.5136 2.5877C38.4899 2.53019 38.4662 2.53019 38.4425 2.53019C38.4425 2.6452 38.4899 2.76021 38.5846 2.76021C38.6083 3.04773 38.6557 3.27774 38.7504 3.50776C38.8452 3.68027 38.9636 3.79528 39.082 3.79528C39.153 3.79528 39.2478 3.73778 39.3188 3.68027C39.5557 3.50776 39.7925 3.39275 40.0293 3.39275C40.503 3.39275 40.9767 3.39275 41.4503 3.39275C41.6872 3.39275 41.924 3.33525 42.1608 3.10523C42.2319 3.04773 42.3029 3.04773 42.3977 3.10523C42.6582 3.39275 42.9187 3.62277 43.1555 3.85279C43.4397 3.9103 43.6765 4.37033 43.9608 4.42783C44.1502 4.48534 44.2213 4.77286 44.2213 5.17539C44.2213 5.40541 44.2686 5.52041 44.3634 5.52041C44.837 5.57792 45.3107 5.69293 45.7844 5.46291C45.8791 5.40541 45.9265 5.2904 45.8554 5.06038C45.7844 4.83037 45.7133 4.60034 45.666 4.37033C45.6186 4.14031 45.6423 4.0253 45.7607 3.96779C46.0449 3.79529 46.3054 3.79529 46.5659 4.08281C46.637 4.19781 46.6843 4.31283 46.6607 4.54285C46.637 4.94537 46.4949 5.2329 46.5186 5.63543C46.5186 5.80794 46.5896 5.98045 46.6607 5.98045C46.7791 6.03795 46.8975 5.92294 47.0159 5.80794C47.2054 5.63542 47.3948 5.57793 47.5843 5.75043C47.7738 5.92295 47.9632 6.03795 48.1527 5.80794C48.3185 5.57792 48.5553 5.63543 48.6974 5.34791C48.7685 5.2329 48.7685 5.06038 48.7448 4.83037C48.7211 4.77286 48.6974 4.65785 48.6501 4.65785C48.6264 4.60034 48.579 4.60035 48.5316 4.60035C48.3895 4.71536 48.2238 4.83036 48.0817 4.94537C47.9632 5.00288 47.8448 4.94537 47.7738 4.71535C47.679 4.42783 47.7264 4.14032 47.8448 4.02531C47.8922 3.9678 47.9159 3.9103 47.9632 3.9103C48.2711 3.8528 48.6027 3.85279 48.9106 3.79529C48.9816 3.79529 49.0764 3.8528 49.1474 3.9103C49.2895 4.02531 49.4316 4.31283 49.5974 4.25532C49.7158 4.19781 49.8342 4.08281 49.929 4.02531C50.0237 3.9678 50.1658 4.31283 50.1895 4.54285C50.1895 4.83037 50.1421 5.11789 50.1184 5.34791C50.1184 5.57793 50.1658 5.69292 50.2368 5.80794C50.2842 5.86544 50.3079 5.92295 50.3552 5.92295C50.6631 5.98045 50.9947 5.98045 51.3026 6.03796C51.5868 6.09546 51.8473 6.03796 52.1315 5.98045C52.2736 5.98045 52.2973 5.80794 52.2973 5.40541C52.2973 5.06038 52.392 4.83036 52.4867 4.94537C52.6288 5.11788 52.7709 5.2904 52.913 5.40541C52.9367 5.46291 52.9367 5.57793 52.9604 5.63543C52.9841 5.69293 53.0078 5.69293 53.0315 5.69293C53.0315 5.57792 52.9841 5.46291 52.913 5.46291C52.9367 4.83037 53.0315 4.37033 53.292 4.14031C53.5051 3.9103 53.742 3.73778 53.9551 3.50777C54.0735 3.39275 54.0735 3.04773 53.9788 2.81771C53.9551 2.76021 53.9314 2.6452 53.8841 2.6452C53.7656 2.58769 53.6472 2.53019 53.5288 2.53019C53.3393 2.47269 53.1262 2.47269 52.9367 2.30018C52.6762 2.07016 52.392 2.01266 52.1078 2.01266C51.1605 2.07016 50.1895 2.01266 49.2421 1.95515C49.0053 1.95515 48.7685 2.07016 48.5553 2.41518C48.3658 2.7027 48.1764 2.6452 47.9869 2.41518C47.8685 2.30018 47.7975 2.07016 47.7264 1.84014C47.6317 1.55262 47.679 0.977576 47.8448 0.920066C47.8922 0.920066 47.9159 0.86257 47.9632 0.86257C48.3185 0.805068 48.6737 0.747557 49.029 1.09258C49.1474 1.20759 49.2421 1.20759 49.3605 1.09258C49.479 0.977576 49.5974 0.920074 49.7158 0.862571C49.7868 0.805068 49.8816 0.862571 49.9526 0.862571C50.3079 0.862571 50.6631 0.862563 51.0184 0.805061C51.421 0.747558 51.7999 0.862564 52.2025 1.09258C52.2736 1.15009 52.3683 1.09259 52.4394 1.03509C52.6999 0.747566 52.9841 0.862564 53.2683 0.805061C53.5525 0.747559 53.813 0.862572 54.0972 1.03509C54.263 1.15009 54.4051 1.15009 54.5709 1.09258C54.9972 0.805062 55.4235 0.747567 55.8498 1.15009C55.9682 1.2651 56.0866 1.2651 56.205 1.2651C56.4892 1.3226 56.7497 1.38011 57.0339 1.32261C57.555 1.26511 58.076 1.15009 58.5734 1.20759C59.0944 1.2651 59.6154 1.38011 60.1128 1.38011C60.2312 1.38011 60.3496 1.43762 60.468 1.55262C60.7759 1.95516 61.0838 1.84015 61.3917 1.61013C61.5575 1.49512 61.6996 1.49512 61.8417 1.66763C62.1022 1.89765 62.3864 1.84014 62.6706 1.66763C62.7416 1.61012 62.8127 1.49512 62.86 1.38011C62.9311 1.2651 62.9785 1.09259 63.0258 0.977579C63.0732 1.09259 63.1442 1.2076 63.1916 1.32261C63.2627 1.43762 63.31 1.55263 63.3811 1.61013C63.4995 1.66764 63.6179 1.72514 63.7363 1.72514C64.9205 1.66764 66.1283 1.78263 67.3125 1.78263C67.502 1.78263 67.7151 1.78264 67.9046 1.72514C68.1888 1.66764 68.4493 1.72514 68.7098 2.01266C68.8993 2.24268 69.0887 2.18517 69.3019 2.12767C69.5387 2.07016 69.7519 1.84014 70.0124 2.07016C70.0834 2.12767 70.1782 2.07016 70.2492 1.95515C70.4387 1.72514 70.6282 1.78264 70.8176 2.01266C70.9124 2.12767 71.0308 2.24267 71.1492 2.24267C71.386 2.18517 71.6229 2.12767 71.8597 2.18518C72.0965 2.24268 72.3334 2.24267 72.5702 2.24267C72.8781 2.24267 73.2096 2.24268 73.5175 2.18518C73.707 2.18518 73.9201 2.07016 74.1096 1.89766C74.2991 1.66764 74.4885 1.72514 74.678 1.89766C74.7964 2.01266 74.9148 2.01266 75.0333 2.01266C75.4359 2.07016 75.8385 2.07016 76.2174 2.12767C76.3832 2.12767 76.5253 2.18518 76.6911 2.30018C76.8095 2.41519 76.9279 2.41519 77.0463 2.30018C77.1884 2.18518 77.3542 2.12767 77.52 2.07016C77.9226 2.07017 78.3252 2.01266 78.7042 2.01266C79.1305 1.95516 79.5805 2.01266 80.0068 2.24267C80.1725 2.35769 80.3146 2.30018 80.4804 2.18518C80.8594 1.95516 81.262 1.95516 81.6646 1.89766C82.1383 1.84015 82.6119 1.84016 83.0856 1.89766C83.3935 1.95516 83.725 1.95516 84.0329 1.89766C84.3171 1.84016 84.6013 1.89766 84.8618 2.18518C84.9329 2.24268 85.0276 2.30019 85.0987 2.18518C85.3592 1.89766 85.6434 1.84016 85.9276 1.89766C86.6854 1.89766 87.4433 1.95515 88.2012 1.95515C88.3196 1.95515 88.438 1.95515 88.5564 2.07017C88.9827 2.47269 89.409 2.47269 89.859 2.41519C90.0485 2.35769 90.2616 2.30019 90.4511 2.12767C90.5221 2.07017 90.5932 2.01266 90.6879 2.01267C91.0905 1.95516 91.4932 1.95516 91.8721 2.01267C92.251 2.35769 92.6536 2.30018 93.0563 2.35769C93.222 2.35769 93.3641 2.30019 93.5299 2.12767C93.601 2.07017 93.672 2.07017 93.7668 2.12767C93.9089 2.24268 94.0746 2.35769 94.2404 2.24268C94.5246 2.12767 94.7851 2.07017 95.0693 2.24268C95.543 2.24268 96.0167 2.5302 96.4903 2.35769C96.9166 2.41519 97.3666 2.4152 97.7929 2.4727C97.864 2.4727 97.9587 2.53021 98.0298 2.58771C98.2903 2.81773 98.5745 2.87523 98.8587 2.87523C99.1429 2.87523 99.4271 2.87522 99.6876 2.93273C99.8771 2.93273 100.09 3.04775 100.28 3.16275C100.517 3.33527 100.753 3.33527 100.99 3.16275C101.061 3.10525 101.132 3.16275 101.227 3.22026C101.345 3.27776 101.464 3.39276 101.582 3.39276C102.34 3.39276 103.098 3.45027 103.856 3.50778C104.069 3.50778 104.258 3.56529 104.448 3.7378C104.637 3.91031 104.827 3.85281 105.04 3.7378C105.466 3.39277 105.893 3.39276 106.319 3.7953C106.437 3.9103 106.556 3.9103 106.674 3.96781C106.864 3.96781 107.077 3.96781 107.266 3.96781C107.432 3.96781 107.574 4.08282 107.74 4.08282C108.071 4.48535 108.427 4.42785 108.782 4.48536C109.066 4.54286 109.327 4.54286 109.611 4.60036C109.895 4.60036 110.156 4.65786 110.416 4.94539C111.008 5.11789 111.577 5.69294 112.169 5.69294C112.334 5.69294 112.477 5.80796 112.619 5.92296C112.761 6.09548 112.927 6.15297 113.092 6.15297C113.163 6.15297 113.258 6.15298 113.329 6.21048C113.732 6.61302 114.182 6.72802 114.608 6.84303C114.703 6.84303 114.821 7.24557 114.798 7.47558C114.774 7.64809 114.75 7.87811 114.75 8.05062C114.75 8.22313 114.798 8.39564 114.892 8.45315C114.94 8.51066 114.963 8.51066 115.011 8.51066C115.342 8.45315 115.626 8.85568 115.911 9.2007C115.982 9.25821 116.029 9.48823 116.053 9.66074C116.147 10.2358 116.337 10.5808 116.574 10.7533C116.811 10.9258 117.024 11.1559 117.237 11.3284C117.426 11.4434 117.616 11.5584 117.805 11.7309C117.924 11.8459 118.042 11.9034 118.161 11.9609C118.35 12.0184 118.563 12.0759 118.729 12.2484C119.061 12.536 119.439 12.536 119.795 12.4785C119.889 12.4785 119.961 12.3634 119.961 12.2484C119.961 12.1909 119.913 12.0759 119.889 12.0184C119.653 11.7309 119.392 11.4434 119.155 11.0983C118.989 10.8683 118.847 10.9258 118.705 11.0983C118.658 11.1559 118.634 11.1559 118.587 11.2134C118.35 11.3859 118.113 11.3284 117.924 10.9258C117.782 10.5808 117.64 10.2933 117.474 10.0058C117.332 9.77575 117.19 9.77576 117.024 9.94826C116.953 10.0058 116.882 10.1208 116.811 10.1208C116.74 10.1783 116.645 10.0633 116.621 9.83325C116.597 9.60323 116.645 9.43073 116.716 9.37322C116.74 9.31572 116.787 9.25821 116.811 9.25821C117.047 9.2007 117.284 9.1432 117.521 9.1432C117.711 9.1432 117.924 9.14321 118.113 9.37322C118.421 9.66074 118.729 9.71825 119.061 9.71825C119.226 9.71825 119.368 9.66074 119.534 9.66074C119.653 9.66074 119.795 9.66074 119.889 9.77576C120.174 10.1783 120.482 10.2358 120.813 10.1783C121.097 10.1208 121.382 10.1208 121.642 10.1208C121.76 10.1208 121.879 10.1208 121.997 10.0058C122.305 9.66074 122.613 9.66074 122.921 9.66074C123.442 9.66074 123.963 9.60324 124.46 9.77576C124.579 9.83326 124.673 10.0058 124.768 10.1783C124.839 10.3508 124.839 10.5233 124.745 10.6383C124.508 10.9258 124.389 11.3284 124.295 11.9034C124.271 12.1334 124.271 12.3059 124.342 12.4209C124.579 12.766 124.721 13.3985 124.958 13.8011C125.1 14.0311 125.076 14.3186 124.934 14.7786C124.768 15.1812 124.768 15.2387 124.934 15.3537C125.052 15.4112 125.171 15.4687 125.266 15.6412C125.337 15.7562 125.431 16.2162 125.384 16.3887C125.36 16.5613 125.337 16.7338 125.289 16.9063C125.171 17.4238 125.1 17.9414 125.123 18.5739C125.147 19.149 125.147 19.724 125.1 20.299C125.076 20.4716 125.076 20.7016 125.052 20.8741C125.005 21.3341 124.792 21.7366 124.602 21.6791C124.531 21.6791 124.437 21.6216 124.366 21.5641C124.295 21.5066 124.2 21.5641 124.129 21.6216C123.987 21.7941 123.821 21.8517 123.655 21.8517C123.418 21.8517 123.181 21.8517 122.945 21.8517C122.945 21.7942 122.921 21.6791 122.921 21.6216C122.897 21.5641 122.874 21.5641 122.85 21.5641C122.85 21.6791 122.897 21.7366 122.968 21.7942C123.016 22.0817 123.11 22.2542 123.229 22.3117C123.347 22.3692 123.466 22.3692 123.584 22.3117C123.821 22.2542 124.058 22.3117 124.271 22.5992C124.46 22.8292 124.65 22.8867 124.839 22.9442C124.958 23.0017 125.029 23.3468 124.981 23.5768C124.887 23.9793 124.839 24.4969 124.65 24.7269C124.555 24.8419 124.531 25.0144 124.579 25.1294C124.602 25.1869 124.65 25.1869 124.673 25.2444C124.745 25.3019 124.816 25.3594 124.91 25.4169C124.934 25.4744 125.005 25.5319 125.005 25.5894C124.934 26.2795 125.1 26.912 125.076 27.6021C125.052 27.8896 125.005 28.1196 124.887 28.2346C124.768 28.3496 124.65 28.3496 124.555 28.5222C124.484 28.6372 124.437 28.8672 124.508 28.9822C124.579 29.2122 124.673 29.3272 124.768 29.5572C124.863 29.7872 124.887 30.0173 124.839 30.3048C124.816 30.4198 124.792 30.4773 124.792 30.5348C124.697 31.0523 124.697 31.2249 124.839 31.5699C124.887 31.6849 124.958 31.7999 125.005 31.9724C125.1 32.2024 125.076 32.5475 125.029 32.7775C124.91 33.18 124.673 33.2375 124.555 33.64C124.46 33.9276 124.579 34.3301 124.437 34.6751C124.295 34.9626 124.295 35.0776 124.389 35.3652C124.46 35.5952 124.531 35.8252 124.602 36.0552C124.673 36.2852 124.626 36.5728 124.531 36.8028C124.508 36.8603 124.46 36.9178 124.437 36.9753C124.342 37.2053 124.342 37.2628 124.389 37.7228C124.413 38.0104 124.46 38.2979 124.46 38.5854C124.46 39.1604 124.437 39.7355 124.437 40.3105C124.437 40.6556 124.318 40.8281 124.223 40.8856C124.01 41.0581 123.774 41.2881 123.56 41.4031C123.489 41.4606 123.395 41.4031 123.324 41.3456C123.11 41.2881 123.039 41.4031 123.039 41.9207C123.039 42.0357 123.039 42.0932 123.063 42.2082C122.992 42.2082 122.921 42.2082 122.85 42.2082C122.826 42.2082 122.779 42.2657 122.755 42.3232C122.731 42.3807 122.731 42.4382 122.731 42.4957C122.779 42.6682 122.85 42.6682 122.921 42.5532C122.992 42.4382 123.016 42.3232 123.039 42.1507C123.229 42.1507 123.442 42.2082 123.584 42.6107C123.75 43.0707 123.963 43.3008 124.223 43.3008C124.295 43.3008 124.389 43.3583 124.46 43.4158C124.555 43.4733 124.673 43.8183 124.65 44.0483C124.579 44.5084 124.579 44.9684 124.65 45.4284C124.673 45.6009 124.65 45.8309 124.602 45.946C124.389 46.3485 124.176 46.8085 123.963 47.2111C123.892 47.3261 123.821 47.3261 123.726 47.3261C123.513 47.3261 123.347 47.096 123.158 46.981C123.087 46.9235 122.992 46.981 122.921 47.0385C122.708 47.3261 122.566 47.8436 122.353 48.0161C122.258 48.1311 122.234 48.3036 122.305 48.3611C122.329 48.4186 122.376 48.4186 122.424 48.4186C122.495 48.4186 122.589 48.4761 122.66 48.3611C122.802 48.2461 122.945 48.0161 123.087 47.9011C123.276 47.7286 123.466 47.7861 123.655 48.0161C123.679 48.0736 123.726 48.1311 123.75 48.1886C123.821 48.5336 123.892 48.8787 123.939 49.2237C124.01 49.6837 124.129 50.0288 124.318 50.2588C124.46 50.4313 124.484 50.8338 124.366 51.2364C124.247 51.6389 124.129 52.0414 124.034 52.4439C123.939 52.789 123.821 52.9615 123.655 53.019C123.229 53.0765 122.779 53.134 122.353 53.249C122.258 53.249 122.21 53.479 122.21 53.6515C122.187 53.8815 122.234 54.0541 122.305 54.1116C122.376 54.1691 122.447 54.2266 122.518 54.2841C122.708 54.2841 122.921 54.2841 123.11 54.4566C123.229 54.5141 123.324 54.6866 123.371 54.9741C123.418 55.2042 123.395 55.3767 123.276 55.3767C122.874 55.4917 122.495 55.4917 122.092 55.4917C122.021 55.1466 121.903 54.9166 121.737 54.9166C121.547 54.9166 121.358 54.9166 121.168 54.9741C121.145 54.9741 121.097 55.0316 121.074 55.1466C121.05 55.2617 121.097 55.3767 121.192 55.4342C121.5 55.6067 121.784 55.4917 122.092 55.4917C122.139 55.7792 122.234 55.9517 122.353 56.0092C122.471 56.0667 122.589 56.1242 122.66 56.3542C122.731 56.5843 122.731 56.9868 122.613 57.0443C122.542 57.1018 122.471 57.1593 122.376 57.1593C122.21 57.1593 122.068 57.1018 121.903 56.9868C121.76 56.8718 121.595 56.7568 121.453 56.6993C121.145 56.6418 120.837 56.5267 120.529 56.2392C120.387 56.1242 120.221 56.0667 120.055 56.0667C119.653 56.0667 119.274 56.1242 118.871 56.1817C118.824 56.1817 118.8 56.1817 118.753 56.2392C118.611 56.2967 118.611 56.4692 118.729 56.4692C118.966 56.5843 119.203 56.5843 119.439 56.6418C119.558 56.6993 119.653 56.8143 119.747 57.0443C119.818 57.2168 119.842 57.3893 119.771 57.5043C119.747 57.5618 119.7 57.6193 119.676 57.6193C119.487 57.5043 119.297 57.3893 119.108 57.3318C118.871 57.2743 118.634 57.3318 118.397 57.3893C118.09 57.4468 117.782 57.7918 117.474 57.7918C117.19 57.7918 116.929 57.8493 116.645 57.9069C116.526 57.9644 116.432 58.1369 116.384 58.4244C116.361 58.4244 116.313 58.4819 116.29 58.4819C116.266 58.4819 116.266 58.5969 116.266 58.6544C116.337 58.6544 116.361 58.5969 116.361 58.3669C116.479 58.3669 116.597 58.4244 116.716 58.4244C116.953 58.4819 116.976 58.5969 116.929 59.1719C116.882 59.6895 116.882 59.747 116.953 59.977C117.166 60.552 117.379 61.1271 117.592 61.7021C117.64 61.8746 117.687 62.0472 117.663 62.2197C117.616 62.3922 117.545 62.4497 117.45 62.4497C117.332 62.5072 117.213 62.5072 117.095 62.5647C117 62.6222 116.905 62.9672 116.905 63.1972C116.882 63.6573 116.882 64.1748 116.953 64.6349C117.047 65.1524 117.166 65.6699 117.261 66.1875C117.332 66.5325 117.332 66.935 117.308 67.3376C117.308 67.4526 117.284 67.5101 117.261 67.6251C117.166 68.0851 117.166 68.5451 117.284 69.0052C117.379 69.3502 117.379 69.7527 117.332 70.0978C117.284 70.3853 117.213 70.6153 117.237 70.9028C117.308 71.4204 117.19 71.8229 117.071 72.2254C117 72.4554 117 72.743 117.071 73.0305C117.095 73.088 117.095 73.203 117.119 73.318C117.213 74.2956 117.213 75.2156 116.929 76.0782C116.882 76.2507 116.811 76.3657 116.787 76.5382C116.669 77.2858 116.645 78.0334 116.834 78.7234C116.929 79.0684 117.047 79.2984 117.237 79.2984C117.308 79.2984 117.403 79.2984 117.474 79.2984C117.521 79.2984 117.545 79.2984 117.592 79.356C117.64 79.4135 117.687 79.4135 117.687 79.471C117.711 79.586 117.663 79.701 117.568 79.7585C117.497 79.816 117.403 79.7585 117.332 79.816C117.071 79.8735 116.976 80.161 117.142 80.7361C117.332 81.3686 117.308 81.4261 117.024 81.6561C116.905 81.7136 116.811 81.8286 116.692 82.0012C116.597 82.1737 116.526 82.4612 116.597 82.7487C116.692 83.2087 116.74 83.6688 116.716 84.1288C116.669 84.7039 116.716 85.2789 116.763 85.8539C116.834 86.6015 116.834 86.6015 116.692 87.1765C116.669 87.234 116.645 87.3491 116.621 87.4066C116.574 87.5791 116.574 87.7516 116.597 87.9241C116.74 88.7292 116.882 89.4767 117.024 90.2818C117.071 90.6268 117.095 90.6843 116.858 90.8568C116.645 91.0293 116.503 91.2593 116.455 91.8344C116.455 91.9494 116.432 92.0069 116.432 92.1219C116.361 92.3519 116.29 92.5819 116.171 92.6394C116.053 92.697 115.934 92.697 115.816 92.7545C115.721 92.812 115.674 92.927 115.698 93.042C115.721 93.0995 115.769 93.157 115.792 93.2145C115.863 93.272 115.958 93.272 116.029 93.3295C116.147 93.387 116.219 93.732 116.195 94.0196C116.171 94.1921 116.124 94.4221 116.147 94.5946C116.195 94.8821 116.313 94.9971 116.384 95.1696C116.455 95.3421 116.455 95.5147 116.455 95.6872C116.408 96.2047 116.242 96.4922 116.053 96.6072C115.745 96.7798 115.413 96.8373 115.105 97.0098C114.869 97.1248 114.655 97.2973 114.395 97.2973C114.087 97.2973 113.755 97.4123 113.471 97.7573C113.329 97.9298 113.163 97.9298 112.998 97.9298C112.761 97.9873 112.524 97.9873 112.287 98.1599C112.027 98.3899 111.742 98.4474 111.458 98.5049C110.985 98.6199 110.511 98.6199 110.037 98.9649C109.895 99.0799 109.729 99.0799 109.564 99.0799C109.042 99.1374 108.521 99.1374 108.024 99.4825C107.953 99.54 107.858 99.4825 107.787 99.425C107.669 99.3674 107.55 99.3674 107.432 99.4825C107.172 99.7125 106.887 99.77 106.603 99.77C105.964 99.8275 105.324 99.8275 104.685 99.8275C103.998 99.8275 103.335 99.885 102.648 99.885C101.724 99.885 100.824 99.885 99.9007 99.9425C99.3087 100 98.7166 99.9425 98.1008 100C97.8877 100 97.6982 99.885 97.5324 99.655C97.4614 99.54 97.3903 99.5975 97.2956 99.655C97.1535 99.8275 96.9877 99.885 96.8219 99.885C96.1351 99.885 95.472 99.885 94.7851 99.885C94.7378 99.885 94.6904 99.885 94.6667 99.885C94.4536 99.655 94.2167 99.655 93.9799 99.7125C93.6247 99.3099 93.2931 99.425 92.9378 99.77C92.7484 99.9425 92.5589 100 92.3458 100C92.0616 99.9425 91.7774 100 91.5168 99.77C91.4458 99.7125 91.3511 99.77 91.28 99.8275C91.0669 100 90.9248 99.8275 90.7827 99.3674C90.6406 98.9074 90.4748 98.8499 90.2616 99.1374C90.0485 99.4249 89.8353 99.54 89.5748 99.54C89.2196 99.54 88.8643 99.5975 88.5091 99.54C88.3196 99.4825 88.1064 99.54 87.917 99.655C87.7275 99.8275 87.538 99.7125 87.3249 99.655C86.7565 99.4825 85.6434 99.4249 84.9329 99.4825C84.6487 99.54 84.3882 99.54 84.104 99.54C83.9855 99.54 83.8671 99.4825 83.7724 99.3099C83.5829 99.0799 83.3935 99.0224 83.204 99.2524C83.1093 99.3674 82.9908 99.4825 82.8724 99.4825C82.5645 99.4249 82.233 99.4825 81.9251 99.1949C81.5935 98.9074 81.2146 98.9649 80.8594 98.9649C80.7883 98.9649 80.6936 99.0224 80.6225 99.0799C80.4331 99.2524 80.2436 99.3674 80.0541 99.3674C79.7462 99.3674 79.4147 99.4249 79.1068 99.4825C78.8699 99.4825 78.6331 99.4249 78.3963 99.1949C78.2779 99.0799 78.1595 99.0224 78.041 99.0224C77.6384 99.0224 77.2358 98.9649 76.8569 99.3099C76.7148 99.4249 76.549 99.4825 76.3832 99.4825C76.1464 99.4825 75.9095 99.4249 75.6727 99.1949C75.5306 99.0224 75.3885 98.9074 75.2227 98.7349C75.1517 98.6774 75.0806 98.6774 74.9859 98.7349C74.607 99.0224 74.2043 98.9649 73.8017 98.9649C73.6833 98.9649 73.6596 98.7924 73.6833 98.5624C73.707 98.3324 73.707 98.1599 73.6359 98.0448C73.5649 97.9298 73.4938 97.8723 73.3991 97.9298C73.2807 97.9873 73.1623 98.0448 73.0439 98.1023C72.9728 98.1599 72.9018 98.1599 72.807 98.1023C72.6886 97.9873 72.5702 97.9873 72.4518 97.9298C72.286 97.8723 72.1202 97.8723 71.9781 98.0448C71.5281 98.5624 71.0545 98.5049 70.5808 98.5624C70.4624 98.5624 70.344 98.4474 70.2492 98.2749C70.0834 97.9873 69.9887 97.5848 69.8703 97.1823C69.8229 97.0098 69.7282 96.9523 69.6571 96.9523C69.5861 96.9523 69.4914 96.8948 69.4203 96.9523C69.1598 97.2398 68.8519 96.8948 68.6151 97.2398C68.3782 97.3548 68.1414 97.5273 67.9283 97.6998C67.8098 97.8148 67.6914 97.7573 67.573 97.6423C67.502 97.5848 67.4309 97.4698 67.3362 97.4698C66.6967 97.4123 66.0573 97.2973 65.4178 97.4698C65.2994 97.5273 65.2047 97.6998 65.1336 97.9298L65.1573 97.8723C65.0389 97.8148 64.9205 97.8723 64.8021 97.7573C64.6363 97.5848 64.5179 97.5273 64.3758 97.8148C64.3284 97.9298 64.2574 98.0448 64.1863 98.1598C64.1152 98.2749 64.0442 98.3324 63.9731 98.3899C63.6179 98.5049 63.2626 98.5624 62.9074 98.6199C62.6232 98.6199 62.3627 98.5624 62.0785 98.4474C61.9127 98.3899 61.9364 98.0448 61.9364 97.8148C61.9364 97.7573 61.9127 97.6423 61.889 97.5848C61.7706 97.4123 61.1548 97.0098 60.9891 96.9523C60.7996 96.8948 60.5864 96.8948 60.397 96.8372C60.2312 96.8372 60.0891 96.7222 59.947 96.4922C59.8049 96.3197 59.6628 96.1472 59.5207 96.0322C59.4496 95.9747 59.3549 95.9172 59.2839 95.9172C58.9286 96.0322 58.5734 95.6297 58.2181 95.7447C58.0286 95.8022 57.8155 95.7447 57.626 95.6872C57.1997 95.5722 56.7497 95.5722 56.3234 95.6297C56.0392 95.6872 55.7787 95.5146 55.5182 95.2846C55.3287 95.1121 55.1393 95.1696 54.9261 95.2271C54.8551 95.2846 54.7603 95.2846 54.6893 95.3996C54.4998 95.5722 54.3104 95.6297 54.0972 95.6872C53.813 95.6872 53.5525 95.7447 53.2683 95.7447C53.0551 95.7447 52.8657 95.6297 52.6999 95.3996C52.5341 95.2271 52.392 95.2271 52.2499 95.4571C52.0368 95.7447 51.8473 96.0322 51.7289 96.6072C51.6105 97.1823 51.3736 97.3548 51.1368 97.4123C50.9 97.4698 50.6631 97.4123 50.4263 97.4123C50.3079 97.4123 50.1895 97.4123 50.071 97.2973C49.5263 96.8948 48.9816 96.8948 48.4132 96.8372C48.129 96.8372 47.8685 96.7797 47.5843 96.4922C47.4659 96.3772 47.3475 96.3772 47.229 96.3772C46.4238 96.3772 45.6423 96.3197 44.837 96.3197C44.5528 96.3197 44.2923 96.2047 44.0318 95.9747C43.8897 95.8022 43.7239 95.8022 43.5581 95.7447C43.3923 95.7447 43.2503 95.7447 43.0845 95.7447C42.7292 95.7447 42.374 95.7447 42.0187 95.6872C41.8529 95.6872 41.7108 95.6297 41.5451 95.5146C41.3082 95.3421 41.0714 95.2846 40.8346 95.2846C40.3609 95.2846 39.8872 95.2271 39.4136 95.2271C39.1294 95.2271 38.8688 95.1696 38.5846 94.8821C38.3952 94.7096 38.2057 94.7096 37.9926 94.7096C37.3531 94.6521 36.7137 94.6521 36.0742 94.5946C35.9084 94.5946 35.7426 94.5946 35.6005 94.4796C35.2453 94.192 34.89 94.1345 34.5348 94.1345C34.1085 94.1345 33.6585 94.1345 33.2322 94.077C33.0664 94.077 32.9006 94.077 32.7585 93.962C32.4507 93.732 32.1428 93.6745 31.8112 93.6745C31.527 93.6745 31.2665 93.617 30.9823 93.617C30.8639 93.617 30.7455 93.617 30.627 93.502C30.2007 93.042 29.7744 93.157 29.3245 93.0995C29.1587 93.0995 29.0166 93.0995 28.8508 93.0995C28.6376 93.0995 28.4482 92.9845 28.2824 92.7544C28.0929 92.5244 27.9035 92.4094 27.714 92.4669C27.0272 92.6394 26.3641 92.5244 25.7009 92.4669C25.5351 92.4669 25.393 92.4094 25.2272 92.2369C25.0378 92.0644 24.8483 92.0069 24.6352 92.0069C24.3273 92.0069 23.9957 91.9494 23.6878 91.9494C23.38 91.8919 23.0484 91.8919 22.7405 91.6619C22.5984 91.5468 22.4326 91.5468 22.2668 91.4893C21.9826 91.4318 21.7221 91.4318 21.4379 91.3743C21.3195 91.3743 21.2011 91.3743 21.0827 91.2593C20.7037 90.8568 20.3011 90.8568 19.9222 90.8568C19.5196 90.8568 19.1406 90.6843 18.738 90.4543C18.2644 90.2242 17.7907 90.2817 17.317 90.1667C17.2933 90.1667 17.246 90.1092 17.246 90.0517C17.246 89.9367 17.2697 89.8217 17.2933 89.7642C17.3644 89.6492 17.4354 89.5917 17.4828 89.4767C17.5539 89.3617 17.6012 89.1892 17.6486 89.0742C17.6723 89.0167 17.696 88.9016 17.6723 88.8441C17.6486 88.7866 17.6012 88.6716 17.5775 88.6716C17.3881 88.6141 17.1749 88.6141 16.9855 88.4991C16.5592 88.3266 16.5118 88.3266 16.2276 88.7291C16.2039 88.7866 16.1802 88.8441 16.1565 88.9591C16.1329 89.0167 16.1329 89.1317 16.1092 89.2467L16.1329 89.1892C16.0144 89.1317 15.9434 88.9016 15.9197 88.6141C16.0855 88.7866 16.0855 88.6141 16.0618 88.4416ZM113.59 91.1443C113.519 91.1443 113.448 91.1443 113.377 91.1443C113.353 91.1443 113.305 91.2018 113.282 91.2593C113.258 91.3168 113.258 91.3744 113.258 91.4319C113.305 91.5469 113.377 91.6044 113.448 91.4894C113.519 91.4894 113.566 91.3168 113.59 91.1443C113.613 91.0868 113.637 91.0868 113.684 91.0293C113.708 91.0293 113.708 90.9143 113.708 90.8568C113.637 90.7993 113.59 90.9143 113.59 91.1443ZM114.774 92.2944C114.348 92.2369 113.898 92.2944 113.495 92.697C113.424 92.7545 113.353 92.812 113.258 92.812C112.903 92.927 112.548 92.9845 112.192 92.812C112.145 92.812 112.098 92.7545 112.074 92.697C112.05 92.5819 112.074 92.4094 112.145 92.2944C112.216 92.1794 112.24 92.0069 112.192 91.8919C112.169 91.8344 112.121 91.7769 112.098 91.7769C111.861 91.7194 111.624 91.7769 111.411 92.1219C111.221 92.4669 111.032 92.8695 110.819 93.042C110.771 93.0995 110.748 93.157 110.724 93.2145C110.629 93.387 110.582 93.6745 110.511 93.9045C110.463 94.0771 110.582 94.5371 110.653 94.5946C110.937 94.7096 111.198 94.6521 111.482 94.4796C111.671 94.3646 111.861 94.1346 112.05 94.1346C112.287 94.0771 112.524 94.0771 112.761 93.962C112.998 93.847 113.211 93.617 113.448 93.502C113.85 93.387 114.205 92.9845 114.584 92.697C114.703 92.6394 114.75 92.4669 114.774 92.2944C114.987 92.2944 115.224 92.2944 115.461 92.1794C115.508 92.1794 115.532 92.0644 115.555 92.0069C115.532 91.9494 115.508 91.8919 115.484 91.8344C115.342 91.7194 115.176 91.6619 115.011 91.7769C114.916 91.8919 114.821 92.0069 114.774 92.2944ZM67.502 4.14032C67.3599 4.31283 67.2178 4.48534 67.0757 4.65785C67.0046 4.71536 66.9099 4.71537 66.8388 4.77287C66.7915 4.77287 66.7678 4.77287 66.7204 4.71536C66.6257 4.65785 66.602 4.48534 66.6257 4.25532C66.6494 3.9103 66.5783 3.73779 66.4362 3.73779C66.1994 3.73779 65.9626 3.73779 65.7257 3.73779C65.6073 3.73779 65.4889 3.79529 65.3941 3.9678C65.1336 4.37033 64.8731 4.25533 64.5889 4.14031C64.1626 3.68028 63.7363 3.73779 63.31 3.9103C63.2627 3.9103 63.239 3.9678 63.1916 3.9678C63.1206 4.02531 63.0495 3.96781 62.9548 3.9103C62.8364 3.7953 62.7179 3.73779 62.5995 3.73779C62.4337 3.68028 62.3153 3.45027 62.2206 3.10523C62.1495 2.81771 62.0548 2.70271 61.9364 2.70271C61.889 2.70271 61.8653 2.70271 61.818 2.70271C61.5338 2.70271 61.2496 2.70271 60.9891 2.70271C60.6338 2.76021 60.3022 3.22025 59.947 3.22025C59.8759 3.22025 59.8049 3.33525 59.7338 3.39275C59.6865 3.45027 59.6628 3.50777 59.6391 3.50777C59.5444 3.62277 59.426 3.79529 59.3075 3.79529C58.9049 3.79529 58.5023 3.79529 58.1234 3.73779C58.005 3.73779 57.8865 3.62277 57.8155 3.39275C57.6734 2.99023 57.5076 2.81772 57.2945 2.76022C56.584 2.5877 55.8735 2.70271 55.1393 2.76022C55.0209 2.76022 54.9261 2.93272 54.8551 3.22025C54.8077 3.45026 54.713 3.68028 54.6182 3.85279C54.5235 3.9678 54.5235 4.14031 54.5472 4.25532C54.5709 4.31283 54.6182 4.37033 54.6419 4.37033C54.9261 4.48534 55.1866 4.48534 55.4708 4.71536C55.5419 4.77287 55.6366 4.77287 55.7077 4.71536C55.8735 4.60035 56.0156 4.60035 56.1813 4.77287C56.4419 5.00288 56.7024 5.2329 56.9629 5.40541C57.105 5.52042 57.2708 5.46291 57.4129 5.2904C57.5787 5.06039 57.7681 4.88787 57.9813 4.88787C58.1707 4.88787 58.3839 4.88787 58.5734 4.88787C58.7865 4.88787 58.976 5.00288 59.1418 5.2904C59.2839 5.52042 59.426 5.57792 59.5917 5.57792C60.1838 5.57792 60.7759 5.69293 61.368 5.40541C61.6522 5.40541 61.9364 5.46292 62.1969 5.40541C63.31 5.3479 64.4231 5.40541 65.5363 5.40541C66.2941 5.40541 67.052 5.40541 67.8098 5.34791C67.8572 5.34791 67.8809 5.34791 67.9283 5.2904C67.9756 5.2904 67.9993 5.2329 68.0467 5.1754C68.1651 5.11789 68.2125 4.77287 68.1414 4.48535C67.9756 3.62278 67.7151 3.50777 67.502 4.14032ZM32.8059 89.9367C32.498 90.3393 32.1428 90.6268 31.8112 90.8568C31.7402 90.9143 31.6691 90.8568 31.5744 90.7993C31.456 90.7418 31.3375 90.6843 31.2191 90.6268C31.0297 90.6268 30.8165 90.6268 30.627 90.6268C30.4613 90.6268 30.3192 90.5693 30.1771 90.3393C29.9876 90.1092 29.7981 90.0517 29.6087 90.1092C29.3718 90.1667 29.1587 90.3968 28.8982 90.2818C28.8271 90.2242 28.7561 90.3393 28.685 90.4543C28.4955 90.6843 28.3061 90.6843 28.1166 90.4543C28.0219 90.3393 27.9035 90.2242 27.785 90.1092C27.6666 89.9942 27.5719 90.0517 27.4535 90.2818C27.3351 90.5693 27.3587 90.8568 27.4772 90.9718C27.9508 91.4318 28.4482 91.7769 28.9929 91.6619C29.0639 91.6619 29.1587 91.6619 29.2297 91.6619C29.5139 91.6619 29.7744 91.7769 30.035 92.0644C30.1297 92.1794 30.2718 92.2369 30.3902 92.2369C30.556 92.2944 30.6981 92.2944 30.8639 92.2369C31.6928 92.0644 32.5454 92.2369 33.3743 92.2369C33.4927 92.2369 33.6111 92.3519 33.7296 92.4669C33.8717 92.5819 34.0374 92.6969 34.1559 92.927C34.3927 93.3295 34.6769 93.387 34.9374 93.617C35.0085 93.6745 35.1032 93.732 35.1742 93.617C35.3637 93.387 35.5532 93.272 35.7426 93.272C36.0979 93.272 36.4531 93.272 36.8084 92.9845C36.8794 92.927 36.9742 92.9845 37.0452 93.042C37.1636 93.0995 37.2821 93.272 37.3768 93.272C37.6136 93.3295 37.8268 93.6745 38.0162 94.0195C38.1347 94.3071 38.3004 94.3646 38.4662 94.3646C38.8215 94.3646 39.1767 94.3646 39.532 94.3646C39.8399 94.3646 40.1714 94.3071 40.4556 93.962C40.5267 93.9045 40.6214 93.9045 40.6925 93.9045C40.8109 93.9045 40.953 93.9045 41.0477 94.0195C41.3319 94.3646 41.6635 94.3646 41.9477 94.7096C42.0898 94.8821 42.2555 94.9396 42.4213 94.9396C42.6582 94.9396 42.895 94.9396 43.1318 94.9396C43.416 94.9396 43.6766 95.1121 43.9371 95.3421C44.0555 95.4571 44.1976 95.3421 44.2686 95.1121C44.3634 94.8246 44.4818 94.5371 44.6002 94.3071C44.7186 94.1345 44.6949 93.9045 44.5765 93.617C44.4818 93.387 44.4344 93.387 44.2449 93.502C44.1265 93.617 44.0081 93.617 43.8897 93.502C43.7002 93.3295 43.5345 93.157 43.345 92.927C43.2739 92.8694 43.1792 92.8694 43.1082 92.9845C42.8476 93.272 42.5634 93.3295 42.2792 93.3295C41.8056 93.272 41.3319 93.3295 40.8582 92.927C40.7872 92.9845 40.6925 92.9845 40.6451 93.042C40.5267 93.157 40.4082 93.157 40.3135 93.042C40.2425 92.927 40.1714 92.8119 40.1241 92.6969C39.9346 92.2944 39.7214 92.0644 39.4609 92.1219C38.8688 92.2369 38.2767 92.0069 37.6847 92.1794C37.6136 92.1794 37.5189 92.1219 37.4478 92.1219C37.2821 92.0644 37.1873 91.7769 37.14 91.3168C37.1163 90.9143 37.2584 90.5118 37.4005 90.6268C37.661 90.8568 37.9452 90.9143 38.2294 90.9143C38.8215 90.8568 39.4136 90.8568 40.0056 91.2593C40.0767 91.3168 40.1477 91.2593 40.2425 91.2018C40.3135 91.1443 40.3846 91.0868 40.4793 91.0868C41.0714 91.0293 41.6635 91.0293 42.2792 91.0293C42.3503 91.0293 42.445 91.0868 42.5161 91.1443C42.7055 91.3743 42.895 91.4318 43.0845 91.4318C43.5581 91.4318 44.0318 91.4318 44.5292 91.4318C44.766 91.4318 45.0028 91.4893 45.2397 91.7194C45.5475 92.0069 45.8554 92.1219 46.187 92.0644C46.4238 92.0644 46.6607 92.0644 46.8975 92.0644C47.1106 92.0644 47.3001 92.1794 47.4659 92.4094C47.608 92.5819 47.7738 92.5819 47.9395 92.4669C48.0817 92.3519 48.2237 92.1794 48.3658 92.0069C48.4369 91.8919 48.4843 91.7194 48.4606 91.6044C48.4369 91.5469 48.3895 91.4893 48.3658 91.4893C47.9395 91.4318 47.4896 91.4318 47.0633 91.3743C46.8975 91.3743 46.7554 91.3168 46.5896 91.2018C46.3528 91.0293 46.1159 90.9718 45.8791 90.9718C45.4054 90.9718 44.9318 90.9718 44.4581 90.9143C44.2923 90.9143 44.1265 90.8568 43.9844 90.7418C43.7239 90.5118 43.4397 90.4543 43.1555 90.4543C42.5161 90.5118 41.8766 90.3393 41.2372 90.3393C41.0714 90.3393 40.9293 90.2818 40.7635 90.1667C40.4556 89.9367 40.1477 89.8217 39.8162 89.8217C39.3425 89.8792 38.8688 89.8217 38.3952 89.4767C38.2531 89.3617 38.0873 89.4192 37.9215 89.3617C37.3531 89.3042 36.8084 89.2467 36.24 89.1892C36.0742 89.1892 35.9321 89.1317 35.7663 89.0167C35.4584 88.7866 35.1506 88.7291 34.819 88.7291C34.2506 88.7291 33.7059 88.6716 33.1375 88.6716C32.948 88.6716 32.7349 88.5566 32.5454 88.3841C32.4033 88.2116 32.2375 88.2116 32.0717 88.2116C31.7165 88.2116 31.3612 88.1541 31.006 88.1541C30.8402 88.1541 30.6744 88.1541 30.5323 87.9816C30.2244 87.6941 29.9166 87.6366 29.585 87.6366C29.1587 87.6366 28.7087 87.6366 28.2824 87.579C28.164 87.579 28.0456 87.579 27.9271 87.464C27.6193 87.1765 27.3114 87.119 26.9798 87.119C26.1509 87.0615 25.2983 87.0615 24.4694 87.1765C24.3983 87.1765 24.3036 87.234 24.2326 87.234C24.1852 87.234 24.1615 87.2915 24.1378 87.349C24.0905 87.464 24.1378 87.579 24.2562 87.6366C24.6115 87.8091 24.9667 87.6941 25.2983 88.0966C25.4404 88.2691 25.6062 88.2116 25.772 88.2116C26.1272 88.2116 26.4825 88.2116 26.8377 88.2116C27.0272 88.2116 27.2403 88.2691 27.4298 88.4416C27.7377 88.7866 28.0456 88.8441 28.3534 88.8441C28.7087 88.8441 29.0639 88.8441 29.4192 88.8441C29.7034 88.8441 29.9639 88.9592 30.2481 89.1892C30.3902 89.3042 30.556 89.3617 30.7218 89.3617C30.9586 89.3617 31.1954 89.3617 31.4323 89.3617C31.7875 89.3042 32.1428 89.3617 32.498 89.4192C32.6164 89.4192 32.7112 89.6492 32.7585 89.9367L32.8059 89.9367ZM71.2439 5.80794C71.8834 5.75044 72.357 5.75044 72.8307 5.75044C72.8781 5.75044 72.9018 5.75044 72.9491 5.75044C73.0202 5.69294 73.1149 5.69294 73.186 5.57792C73.3991 5.2904 73.6359 5.2904 73.8728 5.2329C73.9438 5.2329 74.0149 5.11789 74.0859 5.06039C74.1807 5.00289 74.3228 4.48534 74.2754 4.37034C74.228 4.19782 74.1333 4.19783 74.0622 4.14032C73.8728 4.08281 73.6596 4.08281 73.4702 4.31283C73.4228 4.37033 73.3991 4.42784 73.3754 4.42784C73.186 4.60035 73.1149 4.48534 73.1149 3.9678C73.1149 3.73779 73.0912 3.62278 72.9728 3.56527C72.736 3.45027 72.4991 3.62278 72.2623 3.62278C71.9781 3.62278 71.7176 3.56527 71.4334 3.56527C71.3623 3.56527 71.2913 3.68028 71.2202 3.79529C71.1018 3.9103 71.0545 4.19782 70.9597 4.37033C70.865 4.60035 70.7466 4.65786 70.6282 4.60035C70.5571 4.60035 70.4624 4.54285 70.3913 4.48535C69.9177 4.02531 69.4677 4.02531 69.0177 4.60035C68.923 4.71537 68.7809 4.71537 68.6624 4.77287C68.5677 4.83037 68.5203 4.94538 68.5677 5.06039C68.5914 5.11789 68.6388 5.1754 68.6624 5.1754C68.9466 5.2329 69.2072 5.2904 69.4677 5.57792C69.6098 5.75044 69.7756 5.80794 69.9413 5.75044C70.4624 5.80794 70.936 5.75044 71.2439 5.80794ZM28.685 65.6699C28.8034 65.6124 28.9455 65.6124 29.1113 65.4974C29.1587 65.4974 29.1824 65.3824 29.206 65.3824C29.3008 65.2674 29.3245 65.1524 29.3245 64.9224C29.3008 64.7498 29.2534 64.5198 29.1824 64.5198C28.8745 64.4048 28.5666 64.1173 28.2824 63.7148C28.2587 63.6573 28.2114 63.5998 28.1877 63.5998C27.9982 63.4272 27.8087 63.3122 27.5956 63.5422C27.3351 63.7723 27.0745 64.0023 26.7903 64.0023C26.3877 64.0023 25.9851 63.9448 25.6062 63.6573C25.1088 63.2547 24.5878 63.2547 24.0668 63.4847C23.9484 63.5422 23.8536 63.7148 23.7826 63.9448C23.7352 64.1173 23.7115 64.2898 23.7589 64.4623C23.8063 64.6348 23.8536 64.7498 23.9484 64.8073C23.9957 64.8073 24.0194 64.8648 24.0668 64.8648C24.5404 64.5198 25.0141 64.5198 25.4641 64.9224C25.6536 65.0949 25.8667 65.0374 26.0562 65.2099C26.293 65.4399 26.5062 65.3824 26.743 65.1524C26.9325 64.9799 27.1456 64.9799 27.3351 65.0949C27.5008 65.2099 27.6429 65.3249 27.7851 65.4399C28.0692 65.6124 28.3534 65.6699 28.685 65.6699ZM39.1293 85.5089C38.8925 85.7964 38.7031 86.2565 38.4425 86.544C38.4189 86.6015 38.3715 86.659 38.3715 86.774C38.3478 86.8315 38.3478 86.9465 38.3715 87.0615C38.4189 87.349 38.5373 87.464 38.6557 87.464C38.8452 87.464 39.0346 87.234 39.2004 87.0615C39.4136 86.774 39.4846 86.2565 39.2478 85.7389C39.2004 85.5664 39.1767 85.5664 39.1293 85.5089ZM24.9904 81.3686C24.9904 81.5986 25.0378 81.7136 25.1325 81.7711C25.4878 81.9436 25.8193 81.8286 26.1746 81.8861C26.4351 81.9436 26.7193 81.8861 26.9798 81.8286C27.0745 81.8286 27.1219 81.6561 27.0982 81.5986C27.0745 81.5411 27.0272 81.4836 27.0035 81.4836C26.6956 81.4261 26.3877 81.3686 26.0798 81.4261C25.7956 81.4836 25.5351 81.3111 25.2746 81.0811C25.2509 81.0236 25.2036 81.0811 25.1562 81.0811C25.0615 81.0236 25.0141 81.1961 24.9904 81.3686ZM37.8505 83.4962C37.7084 83.4962 37.5189 83.4962 37.3294 83.4962C37.3057 83.4962 37.2347 83.5538 37.2347 83.6113C37.211 83.7838 37.2584 83.9563 37.3294 84.0138C37.4952 84.2438 37.6847 84.4163 37.8741 84.2438C38.0873 84.0138 38.3478 84.1288 38.5373 83.8413C38.561 83.7838 38.561 83.7263 38.5846 83.6688C38.561 83.6113 38.5136 83.5538 38.4899 83.5538C38.3004 83.5538 38.0873 83.5538 37.8505 83.4962ZM113.258 8.51066C113.258 8.62567 113.282 8.68317 113.282 8.79818C113.329 9.0282 113.377 9.31571 113.448 9.54573C113.495 9.71824 113.59 9.77575 113.661 9.66074C113.732 9.60324 113.779 9.43072 113.803 9.25821C113.827 8.97069 113.827 8.68316 113.755 8.45315C113.661 8.16563 113.519 8.10813 113.329 8.33814C113.305 8.39565 113.282 8.45315 113.258 8.51066ZM22.9063 84.8188C22.9773 84.8188 23.0721 84.8188 23.1431 84.7613C23.1905 84.7613 23.2142 84.7038 23.2378 84.6463C23.2615 84.5888 23.2852 84.5313 23.2852 84.4738C23.2615 84.4163 23.2142 84.3013 23.1905 84.3013C22.93 84.2438 22.6695 84.0713 22.3853 84.0138C22.3616 84.0138 22.3142 84.1288 22.3142 84.1863C22.3142 84.2438 22.3142 84.4163 22.3379 84.4738C22.5037 84.8763 22.7168 84.7613 22.9063 84.8188ZM114.182 73.7205C114.253 73.7205 114.348 73.6055 114.371 73.433C114.371 73.3755 114.348 73.2605 114.324 73.1455C114.229 72.8005 114.087 72.6279 113.921 72.6279C113.827 72.6279 113.755 72.6855 113.708 72.8005C113.661 72.9155 113.684 73.088 113.755 73.2605C113.874 73.6055 114.016 73.7205 114.182 73.7205ZM11.6093 32.1449C11.7515 32.1449 11.9172 32.0874 12.0593 32.0874C12.083 32.0874 12.1304 32.0299 12.1541 31.9724C12.1777 31.9149 12.1304 31.7424 12.0356 31.7424C11.7751 31.6849 11.5146 31.6849 11.2304 31.6849C11.2067 31.6849 11.1594 31.7424 11.1357 31.7999C11.112 31.8574 11.0883 31.9149 11.0646 31.9724C11.0883 32.0299 11.112 32.0874 11.1594 32.1449C11.3015 32.2024 11.4672 32.2024 11.6093 32.1449ZM106.887 97.1823C106.84 97.1823 106.745 97.1823 106.674 97.2398C106.556 97.2398 106.532 97.3548 106.556 97.5848C106.579 97.7573 106.65 97.8723 106.722 97.9298C106.84 97.9873 106.935 97.8148 107.053 97.6998C107.124 97.6423 107.195 97.5273 107.219 97.3548C107.172 97.2398 107.1 97.1823 107.006 97.1823C107.006 97.1248 106.958 97.1248 106.887 97.1823ZM98.6692 95.4572C98.5034 95.5147 98.4324 95.5147 98.3376 95.5147C98.2903 95.5147 98.2429 95.5722 98.2429 95.6297C98.2192 95.7447 98.2903 95.8597 98.385 95.8597C98.5982 95.8597 98.835 96.0322 99.0481 95.8022C99.0718 95.8022 99.0955 95.6872 99.0955 95.6297C99.0718 95.5722 99.0481 95.4572 99.0008 95.4572C98.8587 95.4572 98.7166 95.4572 98.6692 95.4572ZM24.9904 84.8188C25.0615 84.8763 25.1325 84.9914 25.2036 85.0489C25.2272 85.1064 25.2746 85.1064 25.2983 85.1064C25.3693 85.1064 25.4404 84.9914 25.4878 84.8188C25.5351 84.5888 25.5115 84.4738 25.4167 84.4163C25.2746 84.4163 25.1088 84.4163 24.9667 84.4163C24.9194 84.4163 24.872 84.4738 24.872 84.4738C24.8483 84.6463 24.8957 84.7613 24.9904 84.8188ZM30.0113 82.3462C30.2007 82.3462 30.2718 82.3462 30.3428 82.3462C30.3665 82.3462 30.4139 82.2887 30.4376 82.2312C30.4613 82.1161 30.4139 82.0586 30.3192 82.0011C30.1297 82.0011 29.9402 82.0011 29.7508 82.0011C29.7271 82.0011 29.6797 82.0586 29.656 82.1161C29.6323 82.1736 29.6797 82.2887 29.7981 82.3462C29.8929 82.3462 30.0113 82.3462 30.0113 82.3462ZM3.74649 49.1662C3.84123 49.1662 3.77017 49.1662 3.69912 49.1662C3.60439 49.1662 3.53334 49.2237 3.50966 49.3962C3.48598 49.5112 3.55702 49.6837 3.65176 49.6837C3.84122 49.6837 4.03069 49.6837 4.22016 49.6262C4.31488 49.6262 4.38593 49.4537 4.36225 49.3962C4.31489 49.2237 4.24384 49.2237 4.1491 49.2237C4.07806 49.2237 3.98332 49.2237 3.74649 49.1662ZM79.2489 4.94538C79.3199 4.88788 79.3673 4.71536 79.3673 4.54285C79.3673 4.37034 79.3199 4.19783 79.2252 4.14032C79.1542 4.08281 79.0831 4.08281 78.9884 4.14032C78.8936 4.14032 78.8463 4.25533 78.87 4.48535C78.87 4.54285 78.8936 4.65786 78.9173 4.71536C79.0121 4.94538 79.1068 5.00288 79.2489 4.94538ZM37.5663 65.5549C37.4952 65.5549 37.4242 65.5549 37.3531 65.6124C37.2584 65.6699 37.211 65.7274 37.2347 65.8999C37.2584 65.9574 37.2821 66.0724 37.3057 66.0724C37.4005 66.1875 37.4952 66.3025 37.6136 66.4175C37.6847 66.475 37.7557 66.4175 37.8268 66.3025C37.8741 66.1875 37.9215 66.0149 37.8978 65.8424C37.8268 65.7849 37.7557 65.7274 37.6847 65.6699C37.6373 65.5549 37.5899 65.5549 37.5663 65.5549ZM5.26222 49.2237C5.19116 49.2237 5.09644 49.2237 5.02538 49.2812C4.97801 49.2812 4.95433 49.3387 4.93065 49.3962C4.95433 49.5112 5.02538 49.5687 5.09644 49.5687C5.16749 49.5687 5.26222 49.5687 5.33327 49.5687C5.40432 49.5687 5.49906 49.5687 5.54642 49.4537C5.59378 49.3387 5.45168 49.2237 5.26222 49.2237ZM123.371 12.1334C123.229 12.1334 123.063 12.3059 123.11 12.4209C123.158 12.5935 123.229 12.651 123.3 12.651C123.371 12.651 123.442 12.651 123.513 12.651C123.584 12.651 123.679 12.651 123.726 12.4785C123.75 12.421 123.679 12.2484 123.584 12.2484C123.537 12.1334 123.466 12.1334 123.371 12.1334ZM115.319 9.89076C115.2 9.89076 115.082 9.89075 114.987 10.1208C115.082 10.3508 115.2 10.3508 115.319 10.4083C115.366 10.4083 115.39 10.4083 115.437 10.4083C115.532 10.4083 115.603 10.3508 115.65 10.1783C115.603 10.0058 115.532 9.94826 115.461 9.94826C115.39 9.94826 115.366 9.94826 115.319 9.89076ZM75.7438 5.2329C75.6964 5.00288 75.649 4.77286 75.6017 4.54285C75.578 4.48534 75.5306 4.42784 75.5069 4.42784C75.4832 4.42784 75.4359 4.54285 75.4359 4.60035C75.3885 4.94538 75.4122 5.34791 75.5306 5.57792C75.6017 5.69294 75.6727 5.63543 75.7438 5.52042C75.7438 5.46292 75.7201 5.34791 75.7438 5.2329ZM54.334 92.5819C54.334 92.5819 54.263 92.5819 54.1919 92.5819C54.1446 92.5819 54.1209 92.5819 54.0972 92.6394C54.0735 92.6969 54.0262 92.7544 54.0025 92.7544C54.0262 92.8119 54.0498 92.927 54.0972 92.927C54.2156 92.9845 54.3104 92.9845 54.4288 92.9845C54.5946 92.9845 54.713 92.8119 54.6419 92.6969C54.5472 92.6394 54.4998 92.5819 54.334 92.5819ZM26.6482 85.3939C26.814 85.3364 26.9324 85.3364 27.0509 85.2789C27.0745 85.2789 27.1219 85.2214 27.1456 85.1639C27.1219 85.1064 27.0982 85.0489 27.0982 85.0489C26.9798 84.9914 26.8851 84.9339 26.7667 84.9339C26.6482 84.8763 26.4825 85.1064 26.5298 85.2214C26.5535 85.3364 26.6246 85.3939 26.6482 85.3939ZM121.287 47.9011C121.31 47.9586 121.358 48.0161 121.382 48.0161C121.5 48.0736 121.618 48.0736 121.689 47.8436C121.689 47.8436 121.642 47.6711 121.618 47.6711C121.5 47.5561 121.405 47.5561 121.287 47.7286C121.287 47.7286 121.287 47.8436 121.287 47.9011ZM27.5719 85.4514C27.5956 85.5089 27.5956 85.6239 27.6193 85.6814C27.6903 85.9114 27.9035 85.8539 27.9035 85.6814C27.9035 85.5089 27.8561 85.3364 27.8087 85.2214C27.7377 85.1064 27.6666 85.0489 27.6193 85.2214C27.5956 85.2789 27.5956 85.3364 27.5719 85.4514ZM101.061 95.7447C101.085 95.8022 101.109 95.9172 101.132 95.9172C101.251 95.9747 101.345 95.9747 101.44 95.8022C101.464 95.7447 101.488 95.6872 101.488 95.6297C101.464 95.4572 101.322 95.3421 101.203 95.4572C101.109 95.5147 101.061 95.5722 101.061 95.7447ZM86.7091 98.2174C86.7565 98.3899 86.8275 98.4474 86.8986 98.3899C86.9223 98.3899 86.946 98.2749 86.9696 98.2174C86.946 98.1599 86.9223 98.1023 86.8986 98.0448C86.8275 97.9873 86.7565 98.0448 86.7091 98.2174ZM70.5808 97.4123C70.6045 97.4123 70.6282 97.3548 70.6755 97.2973C70.6518 97.2398 70.6518 97.1823 70.6282 97.1248C70.5334 97.0673 70.4861 97.1823 70.5097 97.2973C70.4861 97.3548 70.5571 97.4123 70.5808 97.4123ZM31.006 82.6337C31.0297 82.6912 31.0297 82.8062 31.0533 82.8062C31.077 82.8062 31.1244 82.8062 31.1481 82.8062C31.2191 82.6912 31.1954 82.5762 31.077 82.5762C31.077 82.5762 31.0297 82.6337 31.006 82.6337ZM105.798 72.858C105.798 72.9155 105.798 73.0305 105.822 73.0305C105.845 73.088 105.893 73.088 105.94 73.088C106.035 72.973 106.035 72.858 105.916 72.8005C105.869 72.8005 105.822 72.858 105.798 72.858ZM33.0901 65.2674C33.1138 65.3249 33.1375 65.3824 33.1612 65.4399C33.2322 65.4974 33.3033 65.4399 33.3506 65.2674C33.3506 65.2674 33.3033 65.1524 33.2796 65.0949C33.2085 65.0374 33.1375 65.0949 33.0901 65.2674ZM122.045 46.4635C122.021 46.521 121.974 46.521 121.95 46.5785C121.974 46.636 121.997 46.6935 122.045 46.751C122.139 46.8085 122.187 46.6935 122.163 46.5785C122.139 46.521 122.092 46.521 122.045 46.4635ZM43.4871 5.34791C43.5108 5.40541 43.5345 5.46291 43.5581 5.52041C43.6292 5.57792 43.7002 5.52042 43.7239 5.34791C43.7239 5.34791 43.6766 5.23289 43.6529 5.17539C43.5818 5.11789 43.5345 5.17539 43.4871 5.34791ZM25.9851 85.2214L26.0325 85.1064L25.9614 85.1064L25.9851 85.2214Z" fill="white"/>
<g clip-path="url(#clip0)">
<path d="M87.7079 73.7086H86.5621V43.9169C87.5198 43.7935 88.3989 43.3227 89.0325 42.594C89.6662 41.8653 90.0103 40.9294 89.9996 39.9638C89.9996 37.2482 87.8225 36.3544 85.4162 34.7846V25.5836C85.4162 25.2797 85.2955 24.9882 85.0806 24.7734C84.8657 24.5585 84.5743 24.4378 84.2704 24.4378H77.3954C77.0915 24.4378 76.8001 24.5585 76.5852 24.7734C76.3703 24.9882 76.2496 25.2797 76.2496 25.5836V28.8607L65.6277 21.9284C64.6971 21.3219 63.6103 20.999 62.4996 20.999C61.3888 20.999 60.302 21.3219 59.3715 21.9284L36.8215 36.6294C36.1401 37.0782 35.6109 37.7231 35.3037 38.4789C34.9965 39.2348 34.9257 40.066 35.1007 40.8629C35.2757 41.6598 35.6883 42.3848 36.284 42.9424C36.8796 43.4999 37.6304 43.8637 38.4371 43.9857V73.7086H37.2913C36.9874 73.7086 36.6959 73.8293 36.481 74.0442C36.2662 74.2591 36.1454 74.5505 36.1454 74.8544C36.1454 75.1583 36.2662 75.4498 36.481 75.6647C36.6959 75.8795 36.9874 76.0003 37.2913 76.0003H87.7079C88.0118 76.0003 88.3032 75.8795 88.5181 75.6647C88.733 75.4498 88.8537 75.1583 88.8537 74.8544C88.8537 74.5505 88.733 74.2591 88.5181 74.0442C88.3032 73.8293 88.0118 73.7086 87.7079 73.7086ZM78.5412 26.7294H83.1246V33.3409L78.5412 30.3503V26.7294ZM37.2913 40.0096C37.2913 38.669 36.3288 39.7003 60.6204 23.8534C61.1792 23.4885 61.8322 23.2943 62.4996 23.2943C63.167 23.2943 63.8199 23.4885 64.3787 23.8534L86.9173 38.5544C87.3017 38.8051 87.5708 39.1983 87.6653 39.6474C87.7599 40.0965 87.6721 40.5648 87.4214 40.9492C87.1707 41.3336 86.7776 41.6027 86.3285 41.6973C85.8793 41.7918 85.4111 41.7041 85.0266 41.4534L63.1298 27.1763C62.2131 26.5805 63.5652 26.0305 39.9725 41.4534C39.7118 41.625 39.4094 41.7228 39.0976 41.7365C38.7858 41.7503 38.476 41.6794 38.2012 41.5314C37.9263 41.3834 37.6967 41.1638 37.5365 40.8959C37.3763 40.628 37.2916 40.3218 37.2913 40.0096ZM40.7288 73.7086C40.7288 40.3075 40.5111 43.8367 41.2215 43.3784L62.4996 29.5023L83.7777 43.3784C84.4766 43.8367 84.2704 40.2503 84.2704 73.7086H40.7288Z" fill="#00659E"/>
<path d="M77.178 43.3096C76.3874 43.1492 76.2728 43.4929 73.4655 46.2887L72.0332 45.819L71.5634 44.3867C74.3363 41.6023 74.703 41.4648 74.5426 40.6627C74.2218 39.1731 69.0999 38.3023 65.903 41.4992C65.1056 42.2961 64.501 43.2648 64.1356 44.3313C63.7701 45.3978 63.6535 46.5338 63.7947 47.6523C63.8269 48.0201 63.7756 48.3904 63.6446 48.7357C63.5137 49.0809 63.3064 49.3921 63.0384 49.646C56.5988 56.0856 56.2551 56.8533 54.754 56.67C53.4823 56.5129 52.1915 56.6886 51.0081 57.18C49.8246 57.6713 48.789 58.4615 48.0025 59.4732C47.216 60.4849 46.7056 61.6834 46.5213 62.9515C46.337 64.2196 46.485 65.5138 46.9509 66.7075C47.0205 66.8849 47.1332 67.0421 47.2788 67.165C47.4245 67.2878 47.5985 67.3724 47.785 67.4111C47.9716 67.4498 48.1649 67.4413 48.3473 67.3865C48.5298 67.3316 48.6957 67.2322 48.8301 67.0971L51.4999 64.4388L52.9322 64.9085L53.402 66.3408L50.7436 69.0106C50.6082 69.1442 50.5082 69.3094 50.4526 69.4912C50.397 69.6731 50.3875 69.8659 50.425 70.0524C50.4625 70.2388 50.5459 70.413 50.6675 70.5592C50.7891 70.7054 50.9452 70.819 51.1218 70.8898C52.3029 71.3553 53.5841 71.5086 54.8418 71.3351C56.0995 71.1615 57.2912 70.6669 58.3022 69.8989C59.3131 69.1309 60.1092 68.1154 60.6136 66.9503C61.1181 65.7852 61.3139 64.5098 61.1822 63.2471C61.1414 62.8572 61.187 62.463 61.3157 62.0927C61.4444 61.7224 61.6531 61.3849 61.927 61.1044C68.378 54.6533 68.6186 53.92 70.3718 54.0919C71.6336 54.2203 72.9073 54.0222 74.0706 53.5168C75.2339 53.0114 76.2479 52.2155 77.0151 51.2055C77.7824 50.1955 78.2773 49.0053 78.4522 47.7491C78.6272 46.4928 78.4765 45.2127 78.0145 44.0315C77.9472 43.8504 77.8352 43.6892 77.689 43.563C77.5428 43.4368 77.367 43.3496 77.178 43.3096ZM70.6009 51.7887C69.8688 51.7086 69.1281 51.7925 68.4324 52.0343C67.7368 52.2761 67.1037 52.6698 66.5791 53.1867L60.2999 59.4658C59.783 59.9904 59.3893 60.6235 59.1476 61.3192C58.9058 62.0148 58.8219 62.7556 58.902 63.4877C58.9771 64.1944 58.9036 64.9091 58.6863 65.5857C58.4689 66.2624 58.1126 66.8861 57.64 67.417C57.1674 67.9478 56.5891 68.374 55.9422 68.6681C55.2952 68.9623 54.5939 69.118 53.8832 69.1252C55.602 67.4065 56.0832 67.1429 55.8082 66.3065C54.8801 63.5335 54.903 63.1554 54.1926 62.9263C50.2509 61.62 51.2478 61.4481 48.7384 63.9575C48.7476 63.2397 48.9079 62.5319 49.2089 61.8802C49.5099 61.2285 49.9449 60.6475 50.4854 60.1751C51.0259 59.7027 51.6599 59.3495 52.346 59.1384C53.0321 58.9274 53.755 58.8632 54.4676 58.9502C55.1844 59.0364 55.9115 58.9551 56.5915 58.7125C57.2715 58.4699 57.8859 58.0727 58.3863 57.5523L64.6655 51.2731C67.5415 48.3971 64.5738 46.071 67.5186 43.1148C68.4644 42.176 69.7382 41.6419 71.0707 41.6252C68.5499 44.1575 68.7791 43.2408 70.0395 47.0794C70.2801 47.8012 70.7155 47.7898 73.477 48.695C74.3249 48.9815 74.6228 48.4429 76.2957 46.77C76.2876 47.4855 76.1293 48.1913 75.831 48.8418C75.5328 49.4922 75.1013 50.0728 74.5645 50.5459C74.0277 51.019 73.3975 51.3741 72.7147 51.5882C72.0319 51.8023 71.3118 51.8706 70.6009 51.7887Z" fill="#00659E"/>
</g>
<defs>
<clipPath id="clip0">
<rect width="55" height="55" fill="white" transform="translate(35 21)"/>
</clipPath>
</defs>
</svg>
