<svg width="120" height="94" viewBox="0 0 120 94" fill="none" xmlns="http://www.w3.org/2000/svg">
<path d="M104.072 10.8679C103.801 11.2463 103.508 11.4625 103.238 11.6246C103.08 11.7327 102.945 11.6787 102.81 11.5706C102.629 11.4084 102.449 11.4625 102.269 11.6787C102.133 11.8949 101.998 12.003 101.84 12.003C101.502 12.003 101.164 12.057 100.826 12.057C100.668 12.057 100.533 11.9489 100.397 11.7868C100.262 11.5706 100.104 11.6246 99.9691 11.7868C99.8113 12.003 99.6761 11.8949 99.5634 11.6246C99.5408 11.5706 99.5183 11.4625 99.4957 11.4084C99.3605 11.0841 99.1576 11.0841 98.9998 11.5165C98.9321 11.6787 98.9321 11.8408 98.9772 12.003C99.0223 12.1651 99.0674 12.3273 99.135 12.3813C99.383 12.6516 99.6535 12.7057 99.879 13.03C99.9466 13.084 100.037 13.084 100.104 13.1381C100.758 13.1381 101.389 13.1381 102.043 13.1381C102.269 13.1381 102.494 13.1921 102.719 13.4083C102.922 13.5705 103.148 13.7326 103.373 13.8948C103.486 14.0029 103.599 13.9489 103.711 13.9489C103.824 13.9489 103.937 14.0029 104.049 14.0029C104.162 13.9489 104.275 13.8408 104.365 13.7867C104.523 13.7326 104.681 13.8408 104.793 14.057C104.951 14.3272 105.086 14.6515 105.222 14.9218C105.289 15.084 105.357 15.0299 105.402 14.8677C105.492 14.5975 105.582 14.2732 105.74 14.2732C105.966 14.2191 106.191 14.2191 106.394 14.5975C106.462 14.7056 106.507 14.8137 106.574 14.9218C106.664 15.084 106.755 15.1921 106.89 15.2461C107.048 15.3002 107.183 15.3002 107.341 15.3002C107.499 15.3002 107.634 15.4083 107.769 15.5164C108.626 16.219 108.626 16.219 109.437 16.2731C109.843 16.3272 110.271 16.219 110.677 16.3812C110.7 16.3812 110.767 16.4353 110.767 16.4893C110.767 16.7055 110.7 16.8136 110.655 16.9217C110.587 17.0839 110.61 17.246 110.7 17.3001C110.88 17.4082 111.083 17.4622 111.263 17.4082C111.444 17.4082 111.511 17.246 111.511 16.7596C111.511 16.4353 111.579 16.3272 111.737 16.3812C111.849 16.3812 111.962 16.4893 112.03 16.7055C112.052 16.7596 112.052 16.9217 112.052 16.9758C111.985 17.4082 111.849 17.7325 111.714 18.0568C111.556 18.3811 111.376 18.4892 111.196 18.4352C111.083 18.3811 110.993 18.219 110.88 18.3271C110.858 18.3811 110.835 18.4352 110.812 18.5433C110.812 18.6514 110.812 18.7595 110.835 18.8135C110.903 18.9216 110.97 18.9757 111.038 19.0298C111.444 19.0838 111.872 19.0838 112.278 19.4622C112.368 19.5703 112.503 19.5162 112.616 19.5703C113.112 19.6243 113.608 19.6784 114.081 19.7324C114.171 19.7324 114.216 19.8946 114.194 20.0027C114.171 20.0567 114.126 20.1108 114.104 20.1108C113.878 20.1648 113.653 20.1648 113.427 20.2189C113.225 20.2189 113.18 20.3811 113.157 20.8675C113.157 21.0837 113.134 21.1918 113.022 21.2459C112.796 21.2999 112.571 21.2999 112.345 21.2999C112.12 21.354 112.097 21.4621 112.052 22.1107C112.052 22.2729 112.007 22.435 111.985 22.6512C111.962 22.8675 112.075 23.1918 112.165 23.2458C112.21 23.2458 112.233 23.2999 112.278 23.2999C112.39 23.2458 112.503 23.1918 112.593 23.3539C112.841 23.8944 113.112 24.0566 113.427 24.0025C113.585 23.9485 113.721 24.0025 113.878 24.0025C113.923 24.0025 113.969 23.9485 113.969 23.8944C113.991 23.7323 113.946 23.6242 113.856 23.5701C113.811 23.5701 113.788 23.5161 113.743 23.5161C113.653 23.462 113.608 23.408 113.608 23.1918C113.608 23.1377 113.675 23.0837 113.698 23.0837C114.036 23.0296 114.374 22.9756 114.712 23.0296C114.825 23.0296 114.938 23.1918 115.006 23.408C115.118 23.8404 115.276 24.0025 115.479 24.0025C115.659 24.0025 115.862 24.0566 116.042 24.0566C116.223 24.0566 116.426 24.1107 116.606 24.1647C116.651 24.1647 116.674 24.2728 116.696 24.3269C116.674 24.3809 116.629 24.435 116.606 24.489C116.313 24.6512 115.997 24.5971 115.704 24.6512C115.501 24.7052 115.344 24.8133 115.163 25.0295C114.915 25.3538 114.915 25.3538 115.096 25.8944C115.118 25.9484 115.118 26.0565 115.118 26.1106C115.096 26.1646 115.051 26.2187 115.028 26.2187C114.758 26.2727 114.51 26.4349 114.239 26.543C114.171 26.597 114.081 26.4889 114.014 26.4349C113.811 26.3268 113.63 26.597 113.54 26.9754C113.427 27.4619 113.315 27.8943 113.157 28.3267C113.067 28.597 113.112 28.7591 113.247 28.9213C113.315 29.0294 113.382 29.0834 113.45 29.1915C113.585 29.4078 113.721 29.5159 113.878 29.5159C114.6 29.5699 115.321 29.4618 116.042 29.4078C116.336 29.3537 116.651 29.4078 116.944 29.4078C117.237 29.4078 117.463 29.5699 117.621 30.1645C117.666 30.3266 117.733 30.3807 117.778 30.5428C117.891 30.8131 117.891 30.9753 117.778 31.1374C117.575 31.3536 117.373 31.5698 117.125 31.6239C116.516 31.6779 115.907 31.732 115.299 31.8401C115.253 31.8401 115.208 31.8942 115.208 31.9482C115.186 32.0563 115.231 32.1644 115.321 32.2185C115.479 32.2725 115.614 32.2185 115.772 32.3806C115.862 32.4887 115.885 32.5968 115.885 32.813C115.885 32.9752 115.84 33.1374 115.749 33.1914C115.569 33.2995 115.366 33.2995 115.186 33.3536C114.893 33.4617 114.69 33.7319 114.577 34.3806C114.51 34.7589 114.397 34.9211 114.239 35.0292C114.194 35.0292 114.171 35.0832 114.126 35.1373C114.104 35.1913 114.036 35.2454 114.036 35.2994C114.036 35.4616 114.081 35.6237 114.149 35.7318C114.216 35.84 114.284 35.9481 114.352 35.9481C114.464 36.0021 114.577 36.0021 114.69 36.0021C115.344 35.9481 115.975 36.1102 116.629 36.1643C116.696 36.1643 116.764 36.2724 116.832 36.3805C116.899 36.4886 116.944 36.6507 116.944 36.8129C116.944 36.975 116.899 37.0831 116.809 37.1372C116.629 37.1913 116.426 37.1913 116.245 37.2453C115.975 37.2994 115.727 37.4615 115.524 37.948C115.456 38.1101 115.389 38.1101 115.321 38.0561C115.141 38.002 115.141 38.0561 115.051 38.3263C115.028 38.3804 115.006 38.4885 115.006 38.5426C114.848 39.1371 114.622 39.3533 114.352 39.5155C114.171 39.6236 114.126 40.2722 114.262 40.6506C114.284 40.7046 114.329 40.7587 114.352 40.8127C114.51 40.9208 114.645 40.8668 114.803 40.8668C114.915 40.8668 115.028 40.8668 115.141 40.9208C115.411 41.029 115.637 41.4073 115.907 41.4073C116.133 41.4073 116.358 41.4614 116.584 41.5154C116.674 41.5154 116.719 41.6776 116.719 41.7857C116.719 41.8397 116.674 41.9478 116.651 41.9478C116.584 42.0019 116.516 42.0559 116.426 42.11C116.29 42.2181 116.178 42.4884 116.065 42.7586C115.975 43.0289 116.02 43.2991 116.11 43.4613C116.268 43.7316 116.471 43.6775 116.651 43.7856C116.674 43.7856 116.719 43.8937 116.741 43.9478C116.719 44.0018 116.696 44.1099 116.674 44.164C116.426 44.5964 116.133 44.8126 115.817 44.8126C115.659 44.8126 115.524 44.8667 115.366 44.8667C115.141 44.8667 114.915 44.9748 114.712 45.191C114.6 45.2991 114.487 45.2991 114.374 45.4072C114.284 45.4612 114.239 45.5693 114.262 45.7315C114.262 45.8936 114.307 46.0558 114.397 46.1639C114.51 46.272 114.622 46.3261 114.735 46.218C115.028 45.9477 115.321 45.8396 115.614 45.8396C116.155 45.8396 116.674 45.8396 117.215 45.8396C117.26 45.8396 117.305 45.8396 117.327 45.8936C117.395 46.0017 117.44 46.1099 117.508 46.218C117.53 46.272 117.53 46.3801 117.508 46.4882C117.485 46.6504 117.44 46.8125 117.373 46.8666C117.147 47.0828 116.922 47.0287 116.696 47.0828C116.538 47.1368 116.561 47.4612 116.561 47.6774C116.561 48.0017 116.403 48.38 116.268 48.4341C116.2 48.4881 116.11 48.5422 116.042 48.5422C115.749 48.5962 115.434 48.5962 115.163 48.9746C115.096 49.0287 115.028 49.0827 114.938 49.0827C114.825 49.1368 114.712 49.1368 114.6 49.1368C114.374 49.1908 114.149 49.1908 113.923 49.2989C113.698 49.407 113.495 49.7313 113.27 49.7854C113.247 49.7854 113.202 49.8935 113.18 49.9475C113.202 50.0016 113.225 50.0557 113.247 50.0557C113.698 50.1097 114.149 50.1097 114.6 50.1097C114.825 50.1097 115.051 50.1638 115.253 50.434C115.344 50.5421 115.479 50.5962 115.569 50.7043C115.659 50.7583 115.795 50.7583 115.795 51.0826C115.795 51.2448 115.704 51.3529 115.637 51.461C115.569 51.5691 115.547 51.7313 115.547 51.9475C115.569 52.1096 115.614 52.2718 115.704 52.2718C115.772 52.3258 115.862 52.3258 115.93 52.3258C116.313 52.3799 116.696 52.3799 117.057 52.3799C117.215 52.3799 117.35 52.4339 117.508 52.4339C117.553 52.4339 117.598 52.542 117.598 52.542C117.598 52.7042 117.53 52.8123 117.463 52.8123C117.237 52.8664 117.012 52.9204 116.809 53.1907C116.651 53.4069 116.448 53.4069 116.268 53.4609C116.178 53.515 116.133 53.6231 116.133 53.7312C116.133 53.7852 116.2 53.8393 116.223 53.8934C116.448 53.9474 116.674 53.9474 116.899 54.0015C117.012 54.0555 117.125 54.0555 117.237 54.1636C117.485 54.4339 117.756 54.4879 118.004 54.4879C118.162 54.4879 118.297 54.542 118.455 54.596C118.5 54.596 118.522 54.7041 118.545 54.7582C118.522 54.8122 118.477 54.8663 118.455 54.9203C118.342 54.9744 118.229 55.0284 118.116 55.0284C117.395 55.0284 116.674 55.0284 115.952 55.0825C115.501 55.0825 115.051 55.0825 114.6 55.2447C114.577 55.2447 114.532 55.3528 114.532 55.3528C114.532 55.4609 114.555 55.569 114.6 55.569C114.803 55.8392 115.006 56.0554 115.231 56.0554C115.907 56.1095 116.584 56.1635 117.282 56.2176C117.395 56.2176 117.508 56.3257 117.598 56.5419C117.621 56.596 117.643 56.7041 117.666 56.7581C117.711 56.9203 117.666 57.0824 117.553 57.0824C117.26 57.1365 116.944 57.1365 116.651 57.1905C116.381 57.2446 116.133 57.1365 115.885 56.8662C115.862 56.8122 115.817 56.8122 115.772 56.8122C115.614 56.7581 115.479 56.8662 115.366 57.0824C115.276 57.5689 115.118 57.731 114.915 57.7851C114.803 57.8392 114.69 57.9473 114.6 58.0554C114.442 58.2175 114.307 58.1635 114.171 58.0013C114.104 57.8932 114.036 57.8932 113.946 57.9473C113.833 58.0013 113.743 58.1094 113.63 58.2175C113.405 58.3797 113.18 58.4337 112.954 58.2716C112.661 58.1094 112.661 58.1094 112.413 58.3797C112.39 58.4337 112.345 58.4878 112.323 58.5418C112.278 58.704 112.3 58.8121 112.413 58.8121C112.706 58.8661 113.022 58.8661 113.315 58.9202C113.382 58.9202 113.45 59.0283 113.54 59.0283C113.653 59.0824 113.698 59.4607 113.63 59.6769C113.54 60.1093 113.382 60.4337 113.202 60.4337C112.684 60.4877 112.143 60.5418 111.624 60.5418C111.511 60.5418 111.399 60.4877 111.286 60.3256C111.038 59.9472 110.79 60.0012 110.519 60.0012C110.452 60.0012 110.362 60.0553 110.294 60.1093C110.271 60.1093 110.204 60.1634 110.204 60.2174C110.204 60.2715 110.226 60.3796 110.226 60.4877C110.294 60.7039 110.384 60.8661 110.497 60.9201C111.173 61.0282 111.849 60.9201 112.548 61.0823C112.661 61.0823 112.684 61.2444 112.706 61.6769C112.706 62.0012 112.774 62.1093 112.932 62.1093C113.089 62.1093 113.225 62.0012 113.292 61.5687C113.315 61.5147 113.337 61.4066 113.382 61.4066C113.45 61.4066 113.495 61.5147 113.495 61.7309C113.495 61.839 113.518 61.8931 113.518 62.0012C113.54 62.3255 113.653 62.4876 113.743 62.5417C114.374 62.7038 115.028 62.7579 115.682 62.7038C115.795 62.7038 115.907 62.7038 116.02 62.8119C116.042 62.866 116.065 62.9201 116.11 62.9741C116.088 63.0282 116.065 63.1363 116.02 63.1363C115.727 63.3525 115.411 63.0822 115.118 63.2444C115.028 63.2984 115.006 63.4065 114.983 63.6227C114.983 64.2173 114.96 64.2173 114.735 64.1092C114.577 64.0011 114.577 64.0011 114.307 64.2173C114.239 64.2714 114.149 64.3254 114.081 64.3254C113.743 64.3254 113.405 64.3254 113.067 64.2713C113.022 64.2713 112.999 64.2173 112.954 64.2173C112.819 64.0551 112.661 64.0551 112.526 64.2173C112.39 64.3795 112.233 64.3254 112.075 64.2713C112.007 64.2173 111.94 64.1632 111.849 64.1092C111.669 63.947 111.489 63.947 111.308 64.1092C111.263 64.1632 111.241 64.1632 111.196 64.2173C111.015 64.4335 110.835 64.4335 110.655 64.2173C110.317 63.893 109.978 63.947 109.64 64.0011C109.527 64.0011 109.437 64.2173 109.37 64.4335C109.347 64.4876 109.325 64.5957 109.347 64.7038C109.347 64.7578 109.392 64.8119 109.415 64.8659C109.663 65.0281 109.933 64.974 110.204 65.0281C110.7 65.0821 111.196 65.0821 111.669 65.1362C111.692 65.1362 111.759 65.1902 111.759 65.2983C111.782 65.4064 111.714 65.5145 111.624 65.5686C111.511 65.6227 111.399 65.6227 111.286 65.6227C110.903 65.6767 110.519 65.6767 110.159 65.6767C110.069 65.6767 110.023 65.8389 110.069 65.947C110.091 66.001 110.136 66.0551 110.159 66.0551C110.317 66.1091 110.452 66.1091 110.61 66.1091C110.948 66.1091 111.286 66.0551 111.601 66.4875C111.669 66.5415 111.759 66.5415 111.827 66.4875C111.985 66.3794 112.12 66.3794 112.278 66.4875C112.503 66.7037 112.729 66.6496 112.954 66.6496C113.18 66.7037 113.405 66.6496 113.63 66.7037C113.743 66.7037 113.833 66.8659 113.946 67.028C114.059 67.6226 114.307 67.6766 114.532 67.6766C114.758 67.7307 114.983 67.7307 115.208 67.7307C115.524 67.6766 115.795 67.9469 116.065 68.3253C116.2 68.4874 116.245 68.9739 116.155 69.2441C116.02 69.6225 115.885 69.8387 115.682 69.8387C115.637 69.8387 115.614 69.8387 115.569 69.8387L115.592 69.8928C115.547 69.7306 115.501 69.5685 115.434 69.5685C115.096 69.4063 114.758 69.4063 114.419 69.5685C114.329 69.6225 114.284 69.7847 114.307 69.9468C114.329 70.109 114.374 70.2711 114.442 70.2711C114.51 70.2711 114.6 70.2711 114.667 70.163C114.803 70.0009 114.893 70.109 114.96 70.3252C115.028 70.5414 115.096 70.7576 115.163 70.9738C115.231 71.19 115.321 71.3522 115.434 71.4062C115.547 71.4062 115.659 71.4062 115.772 71.4603C115.84 71.4603 115.93 71.5143 115.997 71.5143C116.02 71.5143 116.065 71.6224 116.088 71.6765C116.11 71.7846 116.088 71.9467 115.997 72.0008C115.163 72.1089 114.329 72.1089 113.495 72.1089C112.03 72.1089 110.542 72.0008 109.077 72.163C108.986 72.163 108.941 72.3251 108.964 72.4332C108.986 72.4873 109.032 72.5413 109.054 72.5954C109.099 72.6494 109.122 72.6494 109.167 72.6494C110.226 72.6494 111.286 72.7035 112.345 72.7035C112.548 72.7035 112.729 72.7575 112.909 72.9737C113.044 73.1359 113.202 73.1359 113.36 73.1359C113.923 73.1359 114.487 73.1899 115.073 73.1899C115.479 73.1899 115.907 73.0818 116.313 73.298C116.336 73.298 116.381 73.4062 116.403 73.4602C116.381 73.5143 116.336 73.6224 116.313 73.6224C115.93 73.7845 115.569 73.7845 115.186 73.7305C114.803 73.7305 114.419 73.6764 114.059 73.7845C113.946 73.8386 113.901 74.0548 113.991 74.3791C114.059 74.5953 114.126 74.8115 114.171 75.0818C114.194 75.2439 114.171 75.4601 114.171 75.6223C114.171 75.6763 114.216 75.7304 114.239 75.7844C114.419 75.9466 114.622 75.9466 114.803 75.9466C115.344 75.8926 115.862 75.9466 116.403 76.0007C116.448 76.0007 116.471 76.0007 116.516 76.0007C116.674 76.0007 116.651 76.2169 116.493 76.4331C116.268 76.7574 116.02 76.9736 115.749 76.9736C115.028 76.9736 114.307 76.9736 113.585 76.9736C112.796 76.9736 111.985 76.9736 111.196 76.9736C111.083 76.9736 110.97 76.9736 110.858 76.9736C110.181 77.1357 109.505 76.9736 108.829 77.1357C108.784 77.1357 108.761 77.2439 108.738 77.2979C108.761 77.352 108.784 77.406 108.829 77.4601C108.941 77.5141 109.054 77.5682 109.167 77.5682C109.505 77.5682 109.843 77.5141 110.181 77.4601C110.294 77.4601 110.407 77.4601 110.519 77.5682C110.767 77.8384 111.015 77.9465 111.286 78.0006C112.503 78.0546 113.721 78.0546 114.915 78.1087C115.096 78.1087 115.299 78.1627 115.479 78.3249C115.614 78.433 115.772 78.4871 115.93 78.4871C116.2 78.4871 116.471 78.5411 116.719 78.4871C117.102 78.433 117.463 78.7033 117.801 79.1357C117.823 79.1897 117.868 79.2438 117.891 79.2978C118.049 79.5681 118.252 79.6221 118.432 79.6221C118.703 79.6221 118.973 79.6221 119.221 79.6762C119.311 79.6762 119.379 79.8384 119.356 79.9465C119.334 80.1086 119.244 80.1627 119.153 80.1627C118.387 80.1627 117.643 80.2708 116.877 80.1627C116.606 80.1086 116.336 80.1627 116.088 80.1627C115.682 80.1627 115.253 80.1627 114.848 80.1627C114.555 80.1627 114.239 80.2167 113.946 80.2708C113.833 80.2708 113.721 80.3789 113.63 80.487C113.45 80.6491 113.27 80.8113 113.089 80.8113C112.751 80.8653 112.413 80.8653 112.075 80.9194C112.03 80.9194 111.985 80.9734 111.985 81.0275C111.962 81.1356 112.03 81.2437 112.12 81.2437C112.39 81.2978 112.638 81.2978 112.909 81.3518C112.932 81.3518 112.977 81.4059 112.999 81.514C113.044 81.6221 112.999 81.7842 112.909 81.7842C112.12 82.0004 111.308 81.9464 110.519 81.8383C110.407 81.8383 110.294 81.7302 110.181 81.6761C110.114 81.6221 110.046 81.6221 109.956 81.6761C109.708 81.8923 109.437 81.9464 109.167 81.9464C109.009 81.9464 108.851 81.9464 108.716 82.1085C108.468 82.3788 108.22 82.4329 107.949 82.595C107.882 82.6491 107.814 82.7031 107.747 82.7572C107.566 82.9734 107.386 82.9734 107.206 82.7572C107.138 82.6491 107.048 82.6491 106.98 82.7031C106.687 82.9734 106.394 83.0274 106.101 83.1355C106.078 83.1355 106.056 83.2436 106.011 83.2977C106.033 83.3517 106.056 83.4058 106.101 83.4598C106.371 83.622 106.619 83.622 106.89 83.5679C107.454 83.5679 108.017 83.622 108.603 83.5139C108.829 83.4598 109.054 83.5139 109.28 83.6761C109.325 83.6761 109.347 83.7842 109.37 83.7842C109.347 83.8382 109.325 83.8923 109.28 83.9463C108.986 84.1085 108.671 84.1085 108.378 84.1085C107.837 84.1085 107.318 84.1085 106.777 84.1085C106.71 84.1085 106.619 84.1625 106.552 84.2166C106.507 84.2166 106.484 84.3247 106.462 84.3787C106.484 84.4328 106.529 84.4868 106.552 84.5409C106.822 84.703 107.07 84.649 107.341 84.5949C107.904 84.5409 108.468 84.5949 109.054 84.649C109.212 84.649 109.347 84.7571 109.482 84.9193C109.618 85.0814 109.775 85.1895 109.911 85.1355C110.632 85.1355 111.354 85.0814 112.075 85.0814C112.413 85.0814 112.751 85.1355 113.089 85.1895C113.134 85.1895 113.157 85.2976 113.18 85.2976C113.157 85.4057 113.089 85.5138 112.999 85.5138C112.706 85.5679 112.39 85.6219 112.097 85.6219C110.497 85.6219 108.919 85.676 107.318 85.676C106.98 85.676 106.642 85.73 106.304 85.73C106.259 85.73 106.214 85.7841 106.214 85.8381C106.191 86.0003 106.236 86.1084 106.304 86.1624C106.349 86.2165 106.371 86.2165 106.417 86.2165C106.507 86.2165 106.574 86.2706 106.619 86.4327C106.664 86.5949 106.574 87.0273 106.484 87.0813C106.417 87.1354 106.349 87.2435 106.281 87.2435C106.123 87.2975 105.988 87.3516 105.83 87.4056C105.74 87.4597 105.695 87.6219 105.695 87.784C105.695 87.9462 105.718 88.1083 105.785 88.2164C105.853 88.3245 105.943 88.4326 105.966 88.5407C105.988 88.7029 105.898 88.811 105.83 88.9191C105.74 89.0272 105.74 89.1894 105.74 89.3515C105.763 89.7839 105.65 89.9461 105.47 89.7839C105.425 89.7299 105.402 89.7299 105.357 89.6758C105.289 89.6218 105.222 89.5137 105.154 89.4056L105.177 89.4596C105.086 89.1353 104.974 88.9732 104.793 88.9732C104.5 88.9732 104.185 88.9191 103.914 89.2975C103.847 89.3515 103.756 89.3515 103.689 89.2975C103.531 89.1894 103.396 89.0813 103.26 89.2975C103.193 89.4056 103.125 89.4056 103.035 89.3515C102.967 89.2975 102.9 89.2434 102.832 89.1353C102.652 88.9732 102.471 88.9191 102.291 89.1353C102.133 89.2975 101.998 89.2434 101.863 89.0813C101.818 89.0272 101.795 89.0272 101.75 89.0272C101.344 88.9732 100.916 88.9191 100.51 89.0813C100.352 89.1353 100.217 89.2434 100.082 89.4056C99.9015 89.6218 99.7212 89.5677 99.5408 89.4056C99.4281 89.2975 99.3154 89.2975 99.2252 89.4056C99.1576 89.4596 99.0899 89.5137 99.0223 89.6218C98.9321 89.7299 98.8194 89.7299 98.7518 90.0002C98.7969 90.1623 98.8645 90.2164 98.9547 90.2704C99.1125 90.3245 99.2477 90.4326 99.3605 90.7569C99.4281 90.919 99.4055 91.0812 99.3379 91.1893C99.3154 91.2433 99.2703 91.2974 99.2477 91.2974C99.0674 91.4055 98.8645 91.4055 98.6842 91.1893C98.5264 91.0271 98.3911 91.0812 98.2558 91.2433C98.2333 91.2974 98.1882 91.2974 98.1431 91.3514C97.6923 91.4055 97.2414 91.5136 96.7905 91.2974C96.6778 91.2433 96.6553 91.1352 96.7003 90.919C96.7454 90.7569 96.768 90.5947 96.8131 90.4866C96.9258 90.0542 96.9258 89.9461 96.7905 89.892C96.6102 89.838 96.4073 89.7839 96.2269 89.838C96.0691 89.892 95.9339 90.0542 95.8888 90.4866C95.8888 90.5947 95.8662 90.6488 95.8437 90.7569C95.8212 91.0812 95.7085 91.2433 95.6183 91.2974C95.3703 91.4055 95.0998 91.4595 94.8293 91.4055C94.7391 91.4055 94.6715 91.2974 94.6715 91.1893C94.6715 91.1352 94.694 91.0271 94.7391 90.9731C94.8067 90.865 94.8743 90.7569 94.9194 90.6488C95.0322 90.3785 95.1674 90.2704 95.3252 90.2704C95.4154 90.2704 95.4605 90.2164 95.5056 90.0542C95.4379 89.9461 95.3703 89.892 95.3027 89.892C95.1223 89.892 94.9194 89.892 94.7391 90.0542C94.4911 90.2704 94.2431 90.4866 93.9952 90.7028C93.9275 90.7569 93.8599 90.865 93.7697 90.865C93.4541 90.865 93.1836 91.1352 92.8905 91.3514C92.8229 91.4055 92.7327 91.4055 92.6651 91.3514C92.1917 90.919 91.6957 90.865 91.2223 90.919C90.5009 91.0271 89.7796 90.919 89.0807 90.919C88.968 90.919 88.8553 90.919 88.7426 90.8109C88.5622 90.6488 88.3819 90.7028 88.179 90.865C88.0437 90.9731 87.8859 90.9731 87.7281 90.8109C87.6154 90.7028 87.5027 90.5947 87.4125 90.5947C86.9616 90.5407 86.5108 90.4866 86.0599 90.6488C85.9472 90.7028 85.857 90.8109 85.7669 91.0271C85.7443 91.0812 85.7218 91.1893 85.7218 91.2433C85.7669 91.4596 85.8345 91.5136 85.9021 91.4055C85.9697 91.3514 86.0374 91.2974 86.105 91.1893C86.2177 91.0271 86.3304 91.0271 86.4206 91.1352C86.6235 91.3514 86.8489 91.4596 87.0744 91.4596C87.5703 91.4596 88.0663 91.4055 88.5397 91.5677C88.5848 91.5677 88.6299 91.6217 88.6299 91.6758C88.6524 91.8379 88.6073 92.0001 88.5622 92.1622C88.5171 92.3244 88.4495 92.3784 88.3593 92.4325C88.1339 92.4865 87.9085 92.5406 87.683 92.5947C87.4125 92.5947 87.1645 92.5947 86.894 92.5947C86.7362 92.5947 86.601 92.7568 86.4657 92.8649C86.3755 92.919 86.2403 92.8649 86.1501 92.919C86.1275 92.919 86.105 93.0271 86.0599 93.0811C85.9247 93.4595 85.9247 93.4595 85.7894 93.2973C85.6767 93.1892 85.5865 93.0811 85.4738 92.973C85.4062 92.919 85.3611 92.7568 85.3385 92.5406C85.4062 92.5406 85.4963 92.5406 85.564 92.4865C85.5865 92.4865 85.6316 92.4325 85.6541 92.3784C85.6767 92.3244 85.6767 92.2163 85.6767 92.2163C85.6316 92.0541 85.564 92.0541 85.4963 92.1622C85.4287 92.2703 85.3836 92.3784 85.3836 92.5947C85.2934 92.5947 85.2258 92.5947 85.1356 92.5947C85.1131 92.3244 85.0229 92.1622 84.9102 92.1082C84.8426 92.0541 84.7749 92.1082 84.7073 92.1082C84.6848 92.1082 84.6397 92.1622 84.6171 92.2163C84.5946 92.3244 84.6397 92.4325 84.7299 92.4325C84.8651 92.4865 85.0229 92.4865 85.1582 92.4865C85.1356 92.6487 85.1131 92.8109 85.0455 92.919C84.9553 93.0811 84.8651 93.1892 84.7524 93.2973C84.6622 93.4054 84.5495 93.5135 84.4368 93.3514C84.3015 93.1892 84.1663 93.1352 84.031 93.0271C83.9183 92.919 83.8507 92.8109 83.783 92.5406C83.738 92.3244 83.6478 92.1082 83.5351 92.0001C83.5125 91.8379 83.4674 91.6758 83.3998 91.6217C83.3773 91.5677 83.3322 91.5677 83.3096 91.5677C83.2871 91.5677 83.242 91.6217 83.2195 91.6758C83.1969 91.7839 83.242 91.892 83.3322 91.946C83.3998 91.946 83.4674 91.946 83.5576 91.946C83.4449 92.5946 83.242 92.973 82.9715 93.0811C82.5657 93.2433 82.1825 93.6216 81.7767 93.8919C81.664 93.946 81.5513 93.946 81.4385 93.8919C81.3709 93.8378 81.2807 93.8378 81.2131 93.8378C81.1004 93.8378 80.9877 93.9459 80.875 94C80.627 93.7838 80.3565 93.7297 80.131 93.4054C79.9281 93.0811 79.7027 93.1352 79.4998 93.4054C79.4773 93.4595 79.4322 93.5135 79.4096 93.5135C79.3871 93.5676 79.342 93.6216 79.2969 93.6216C79.1842 93.6757 79.0715 93.7297 78.9588 93.6216C78.8235 93.5135 78.6883 93.2973 78.553 93.1892C78.4854 93.1352 78.3952 93.1352 78.3276 93.1352C78.1698 93.1352 78.0345 93.2433 77.8992 93.4054C77.6964 93.6757 77.4709 93.7297 77.2455 93.6757C77.0877 93.6757 76.9524 93.6216 76.7946 93.5676C76.6368 93.5135 76.5241 93.3514 76.4114 93.0271C76.3438 92.8109 76.3438 92.6487 76.4565 92.5947C76.6594 92.4325 76.8848 92.3244 77.1102 92.1622C77.3357 92.0001 77.5611 92.0541 77.7865 92.0541C78.012 92.0001 78.2374 92.1082 78.4403 92.3784C78.5755 92.5406 78.7333 92.4865 78.8911 92.3784C78.9362 92.3784 78.9588 92.3244 79.0039 92.2703C79.1842 92.0541 79.342 91.946 79.5449 91.946C80.1761 92.0001 80.8299 91.892 81.4611 91.946C81.6414 91.946 81.8443 91.892 82.0021 91.6758C82.205 91.4595 82.4304 91.4596 82.6559 91.3514C82.6784 91.4055 82.6784 91.5136 82.701 91.5677C82.7235 91.6217 82.746 91.6217 82.7686 91.6217C82.7686 91.5136 82.7235 91.4055 82.6333 91.4055C82.6108 91.1352 82.5657 90.919 82.4755 90.7028C82.3854 90.5407 82.2726 90.4326 82.1599 90.4326C82.0923 90.4326 82.0021 90.4866 81.9345 90.5407C81.7091 90.7028 81.4836 90.8109 81.2582 90.8109C80.8073 90.8109 80.3565 90.8109 79.9056 90.8109C79.6802 90.8109 79.4547 90.865 79.2293 91.0812C79.1617 91.1352 79.094 91.1352 79.0039 91.0812C78.7559 90.8109 78.5079 90.5947 78.2825 90.3785C78.012 90.3245 77.7865 89.892 77.516 89.838C77.3357 89.7839 77.268 89.5137 77.268 89.1353C77.268 88.9191 77.2229 88.811 77.1328 88.811C76.6819 88.757 76.231 88.6488 75.7802 88.8651C75.69 88.9191 75.6449 89.0272 75.7125 89.2434C75.7802 89.4596 75.8478 89.6758 75.8929 89.892C75.938 90.1083 75.9154 90.2164 75.8027 90.2704C75.5322 90.4326 75.2842 90.4326 75.0362 90.1623C74.9686 90.0542 74.9235 89.9461 74.9461 89.7299C74.9686 89.3515 75.1039 89.0813 75.0813 88.7029C75.0813 88.5407 75.0137 88.3786 74.9461 88.3786C74.8334 88.3245 74.7206 88.4326 74.6079 88.5407C74.4276 88.7029 74.2472 88.757 74.0669 88.5948C73.8865 88.4326 73.7062 88.3245 73.5258 88.5407C73.368 88.757 73.1426 88.7029 73.0073 88.9732C72.9397 89.0813 72.9397 89.2434 72.9623 89.4596C72.9848 89.5137 73.0073 89.6218 73.0524 89.6218C73.075 89.6758 73.1201 89.6758 73.1651 89.6758C73.3004 89.5677 73.4582 89.4596 73.5935 89.3515C73.7062 89.2975 73.8189 89.3515 73.8865 89.5677C73.9767 89.838 73.9316 90.1083 73.8189 90.2164C73.7738 90.2704 73.7513 90.3245 73.7062 90.3245C73.4131 90.3785 73.0975 90.3785 72.8045 90.4326C72.7368 90.4326 72.6467 90.3785 72.579 90.3245C72.4438 90.2164 72.3085 89.9461 72.1507 90.0002C72.038 90.0542 71.9253 90.1623 71.8351 90.2164C71.7449 90.2704 71.6097 89.9461 71.5871 89.7299C71.5871 89.4596 71.6322 89.1894 71.6547 88.9732C71.6547 88.7569 71.6097 88.6488 71.542 88.5407C71.4969 88.4867 71.4744 88.4326 71.4293 88.4326C71.1363 88.3786 70.8206 88.3786 70.5276 88.3245C70.2571 88.2705 70.0091 88.3245 69.7386 88.3786C69.6033 88.3786 69.5808 88.5407 69.5808 88.9191C69.5808 89.2434 69.4906 89.4596 69.4004 89.3515C69.2652 89.1894 69.1299 89.0272 68.9946 88.9191C68.9721 88.8651 68.9721 88.7569 68.9496 88.7029C68.927 88.6488 68.9045 88.6488 68.8819 88.6488C68.8819 88.757 68.927 88.8651 68.9946 88.8651C68.9721 89.4596 68.8819 89.892 68.6339 90.1083C68.4311 90.3245 68.2056 90.4866 68.0027 90.7028C67.89 90.8109 67.89 91.1352 67.9802 91.3514C68.0027 91.4055 68.0253 91.5136 68.0704 91.5136C68.1831 91.5677 68.2958 91.6217 68.4085 91.6217C68.5889 91.6758 68.7917 91.6758 68.9721 91.8379C69.2201 92.0541 69.4906 92.1082 69.7611 92.1082C70.6628 92.0541 71.5871 92.1082 72.4888 92.1622C72.7143 92.1622 72.9397 92.0541 73.1426 91.7298C73.3229 91.4596 73.5033 91.5136 73.6836 91.7298C73.7964 91.8379 73.864 92.0541 73.9316 92.2703C74.0218 92.5406 73.9767 93.0811 73.8189 93.1352C73.7738 93.1352 73.7513 93.1892 73.7062 93.1892C73.368 93.2433 73.0299 93.2973 72.6917 92.973C72.579 92.8649 72.4888 92.8649 72.3761 92.973C72.2634 93.0811 72.1507 93.1352 72.038 93.1892C71.9704 93.2433 71.8802 93.1892 71.8125 93.1892C71.4744 93.1892 71.1362 93.1892 70.7981 93.2433C70.4149 93.2973 70.0542 93.1892 69.6709 92.973C69.6033 92.919 69.5131 92.973 69.4455 93.0271C69.1975 93.2973 68.927 93.1892 68.6565 93.2433C68.386 93.2973 68.138 93.1892 67.8675 93.0271C67.7097 92.919 67.5744 92.919 67.4166 92.973C67.0108 93.2433 66.605 93.2973 66.1993 92.919C66.0865 92.8109 65.9738 92.8109 65.8611 92.8109C65.5906 92.7568 65.3426 92.7028 65.0721 92.7568C64.5761 92.8109 64.0802 92.919 63.6068 92.8649C63.1108 92.8109 62.6149 92.7028 62.1415 92.7028C62.0288 92.7028 61.916 92.6487 61.8033 92.5406C61.5103 92.1622 61.2172 92.2703 60.9241 92.4865C60.7663 92.5946 60.6311 92.5947 60.4958 92.4325C60.2478 92.2163 59.9773 92.2703 59.7068 92.4325C59.6392 92.4865 59.5715 92.5947 59.5265 92.7028C59.4588 92.8109 59.4137 92.973 59.3687 93.0811C59.3236 92.973 59.2559 92.8649 59.2108 92.7568C59.1432 92.6487 59.0981 92.5406 59.0305 92.4865C58.9178 92.4325 58.8051 92.3784 58.6924 92.3784C57.5652 92.4325 56.4155 92.3244 55.2883 92.3244C55.108 92.3244 54.9051 92.3244 54.7247 92.3784C54.4542 92.4325 54.2062 92.3784 53.9583 92.1082C53.7779 91.892 53.5976 91.946 53.3947 92.0001C53.1692 92.0541 52.9664 92.2703 52.7184 92.0541C52.6507 92.0001 52.5606 92.0541 52.4929 92.1622C52.3126 92.3784 52.1322 92.3244 51.9519 92.1082C51.8617 92.0001 51.749 91.892 51.6363 91.892C51.4109 91.946 51.1854 92.0001 50.96 91.946C50.7346 91.892 50.5091 91.892 50.2837 91.892C49.9906 91.892 49.675 91.892 49.382 91.946C49.2016 91.946 48.9987 92.0541 48.8184 92.2163C48.638 92.4325 48.4577 92.3784 48.2773 92.2163C48.1646 92.1082 48.0519 92.1082 47.9392 92.1082C47.556 92.0541 47.1727 92.0541 46.812 92.0001C46.6542 92.0001 46.519 91.946 46.3612 91.8379C46.2484 91.7298 46.1357 91.7298 46.023 91.8379C45.8878 91.946 45.7299 92.0001 45.5721 92.0541C45.1889 92.0541 44.8057 92.1082 44.445 92.1082C44.0392 92.1622 43.6109 92.1082 43.2051 91.892C43.0473 91.7839 42.912 91.8379 42.7542 91.946C42.3935 92.1622 42.0103 92.1622 41.6271 92.2163C41.1762 92.2703 40.7253 92.2703 40.2745 92.2163C39.9814 92.1622 39.6658 92.1622 39.3727 92.2163C39.1022 92.2703 38.8317 92.2163 38.5837 91.946C38.5161 91.892 38.4259 91.8379 38.3583 91.946C38.1103 92.2163 37.8398 92.2703 37.5693 92.2163C36.8479 92.2163 36.1265 92.1622 35.4051 92.1622C35.2924 92.1622 35.1797 92.1622 35.067 92.0541C34.6612 91.6758 34.2554 91.6758 33.8271 91.7298C33.6467 91.7839 33.4439 91.8379 33.2635 92.0001C33.1959 92.0541 33.1282 92.1082 33.0381 92.1082C32.6548 92.1622 32.2716 92.1622 31.9109 92.1082C31.5502 91.7839 31.167 91.8379 30.7837 91.7839C30.6259 91.7839 30.4907 91.8379 30.3329 92.0001C30.2652 92.0541 30.1976 92.0541 30.1074 92.0001C29.9722 91.892 29.8144 91.7839 29.6566 91.892C29.3861 92.0001 29.1381 92.0541 28.8676 91.892C28.4167 91.892 27.9658 91.6217 27.515 91.7839C27.1092 91.7298 26.6809 91.7298 26.2751 91.6758C26.2075 91.6758 26.1173 91.6217 26.0496 91.5677C25.8017 91.3514 25.5312 91.2974 25.2606 91.2974C24.9901 91.2974 24.7196 91.2974 24.4716 91.2433C24.2913 91.2433 24.0884 91.1352 23.908 91.0271C23.6826 90.865 23.4572 90.865 23.2317 91.0271C23.1641 91.0812 23.0965 91.0271 23.0063 90.9731C22.8936 90.919 22.7809 90.8109 22.6682 90.8109C21.9468 90.8109 21.2254 90.7569 20.504 90.7028C20.3011 90.7028 20.1208 90.6488 19.9404 90.4866C19.7601 90.3245 19.5797 90.3785 19.3768 90.4866C18.9711 90.8109 18.5653 90.8109 18.1595 90.4326C18.0468 90.3245 17.9341 90.3245 17.8213 90.2704C17.641 90.2704 17.4381 90.2704 17.2578 90.2704C17.1 90.2704 16.9647 90.1623 16.8069 90.1623C16.4913 89.7839 16.1531 89.838 15.815 89.7839C15.5445 89.7299 15.2965 89.7299 15.026 89.6758C14.7555 89.6758 14.5075 89.6218 14.2595 89.3515C13.6959 89.1894 13.1549 88.6488 12.5913 88.6488C12.4335 88.6488 12.2982 88.5407 12.163 88.4326C12.0277 88.2705 11.8699 88.2164 11.7121 88.2164C11.6445 88.2164 11.5543 88.2164 11.4867 88.1624C11.1034 87.784 10.6751 87.6759 10.2693 87.5678C10.1792 87.5678 10.0664 87.1894 10.089 86.9732C10.1115 86.8111 10.1341 86.5949 10.1341 86.4327C10.1341 86.2706 10.089 86.1084 9.99882 86.0543C9.95373 86.0003 9.93119 86.0003 9.8861 86.0003C9.57049 86.0543 9.29998 85.676 9.02946 85.3517C8.96183 85.2976 8.91674 85.0814 8.8942 84.9193C8.80402 84.3787 8.62368 84.0544 8.39824 83.8923C8.17281 83.7301 7.96992 83.5139 7.76703 83.3517C7.58668 83.2436 7.40634 83.1355 7.22599 82.9734C7.11328 82.8653 7.00056 82.8112 6.88784 82.7572C6.7075 82.7031 6.50461 82.6491 6.3468 82.4869C6.0312 82.2166 5.6705 82.2166 5.33236 82.2707C5.24218 82.2707 5.17455 82.3788 5.17455 82.4869C5.17455 82.541 5.21964 82.6491 5.24218 82.7031C5.46761 82.9734 5.71559 83.2436 5.94102 83.5679C6.09883 83.7842 6.23409 83.7301 6.36935 83.5679C6.41443 83.5139 6.43698 83.5139 6.48206 83.4598C6.7075 83.2977 6.93293 83.3517 7.11328 83.7301C7.24854 84.0544 7.38379 84.3247 7.5416 84.5949C7.67686 84.8111 7.81212 84.8111 7.96992 84.649C8.03755 84.5949 8.10518 84.4868 8.17281 84.4868C8.24044 84.4328 8.33061 84.5409 8.35316 84.7571C8.3757 84.9733 8.33061 85.1355 8.26298 85.1895C8.24044 85.2436 8.19535 85.2976 8.17281 85.2976C7.94738 85.3517 7.72194 85.4057 7.49651 85.4057C7.31616 85.4057 7.11328 85.4057 6.93293 85.1895C6.63987 84.9193 6.3468 84.8652 6.0312 84.8652C5.87339 84.8652 5.73813 84.9193 5.58033 84.9193C5.46761 84.9193 5.33236 84.9193 5.24218 84.8111C4.97166 84.4328 4.6786 84.3787 4.36299 84.4328C4.09247 84.4868 3.82195 84.4868 3.57398 84.4868C3.46126 84.4868 3.34854 84.4868 3.23583 84.5949C2.94276 84.9193 2.6497 84.9193 2.35664 84.9193C1.86069 84.9193 1.36473 84.9733 0.891324 84.8111C0.778608 84.7571 0.688435 84.5949 0.598262 84.4328C0.530632 84.2706 0.530632 84.1085 0.620805 84.0004C0.846238 83.7301 0.958954 83.3517 1.04913 82.8112C1.07167 82.595 1.07167 82.4329 1.00404 82.3248C0.778608 82.0004 0.643348 81.4059 0.417915 81.0275C0.282655 80.8113 0.305199 80.541 0.440459 80.1086C0.598262 79.7302 0.598262 79.6762 0.440459 79.5681C0.327742 79.514 0.215025 79.46 0.124852 79.2978C0.0572224 79.1897 -0.0329508 78.7573 0.0121358 78.5952C0.0346791 78.433 0.0572224 78.2708 0.102309 78.1087C0.215025 77.6222 0.282655 77.1357 0.260112 76.5412C0.237569 76.0007 0.237569 75.4601 0.282655 74.9196C0.305199 74.7575 0.305199 74.5412 0.327742 74.3791C0.372829 73.9467 0.575718 73.5683 0.756065 73.6224C0.823695 73.6224 0.913868 73.6764 0.981498 73.7305C1.04913 73.7845 1.1393 73.7305 1.20693 73.6764C1.34219 73.5143 1.49999 73.4602 1.6578 73.4602C1.88323 73.4602 2.10866 73.4602 2.3341 73.4602C2.3341 73.5143 2.35664 73.6224 2.35664 73.6764C2.37918 73.7305 2.40173 73.7305 2.42427 73.7305C2.42427 73.6224 2.37918 73.5683 2.31155 73.5143C2.26647 73.244 2.17629 73.0818 2.06358 73.0278C1.95086 72.9737 1.83814 72.9737 1.72543 73.0278C1.49999 73.0818 1.27456 73.0278 1.07167 72.7575C0.891325 72.5413 0.710978 72.4873 0.530632 72.4332C0.417915 72.3792 0.350285 72.0548 0.395372 71.8386C0.485545 71.4603 0.530632 70.9738 0.710978 70.7576C0.801151 70.6495 0.823695 70.4873 0.778608 70.3792C0.756065 70.3252 0.710978 70.3252 0.688435 70.2711C0.620805 70.2171 0.553175 70.163 0.463002 70.109C0.440459 70.0549 0.372829 70.0009 0.372829 69.9468C0.440459 69.2982 0.282655 68.7036 0.305199 68.055C0.327742 67.7847 0.372829 67.5685 0.485545 67.4604C0.598262 67.3523 0.710978 67.3523 0.801151 67.1902C0.868781 67.0821 0.913868 66.8659 0.846238 66.7578C0.778608 66.5415 0.688435 66.4334 0.598262 66.2172C0.508088 66.001 0.485545 65.7848 0.530632 65.5145C0.553175 65.4064 0.575718 65.3524 0.575718 65.2983C0.665892 64.8119 0.665892 64.6497 0.530632 64.3254C0.485545 64.2173 0.417915 64.1092 0.372829 63.947C0.282655 63.7308 0.305199 63.4065 0.350285 63.1903C0.463002 62.8119 0.688435 62.7579 0.801151 62.3795C0.891325 62.1093 0.778608 61.7309 0.913868 61.4066C1.04913 61.1363 1.04913 61.0282 0.958954 60.758C0.891325 60.5418 0.823695 60.3256 0.756065 60.1093C0.688435 59.8931 0.733521 59.6229 0.823695 59.4067C0.846238 59.3526 0.891325 59.2986 0.913868 59.2445C1.00404 59.0283 1.00404 58.9742 0.958954 58.5418C0.936411 58.2716 0.891324 58.0013 0.891324 57.731C0.891324 57.1905 0.913868 56.65 0.913868 56.1095C0.913868 55.7852 1.02658 55.623 1.11676 55.569C1.31965 55.4068 1.54508 55.1906 1.74797 55.0825C1.8156 55.0284 1.90577 55.0825 1.9734 55.1366C2.17629 55.1906 2.24392 55.0825 2.24392 54.596C2.24392 54.4879 2.24392 54.4339 2.22138 54.3258C2.28901 54.3258 2.35664 54.3258 2.42427 54.3258C2.44681 54.3258 2.4919 54.2717 2.51444 54.2177C2.53699 54.1636 2.53699 54.1096 2.53699 54.0555C2.4919 53.8934 2.42427 53.8933 2.35664 54.0015C2.28901 54.1096 2.26647 54.2177 2.24392 54.3798C2.06358 54.3798 1.86069 54.3258 1.72543 53.9474C1.56762 53.515 1.36473 53.2988 1.11676 53.2988C1.04913 53.2988 0.958954 53.2447 0.891324 53.1907C0.801151 53.1366 0.688435 52.8123 0.710978 52.5961C0.778608 52.1637 0.778608 51.7313 0.710978 51.2988C0.688435 51.1367 0.710978 50.9205 0.756065 50.8124C0.958954 50.434 1.16184 50.0016 1.36473 49.6232C1.43236 49.5151 1.49999 49.5151 1.59017 49.5151C1.79306 49.5151 1.95086 49.7313 2.13121 49.8394C2.19884 49.8935 2.28901 49.8394 2.35664 49.7854C2.55953 49.5151 2.69479 49.0287 2.89768 48.8665C2.98785 48.7584 3.01039 48.5962 2.94276 48.5422C2.92022 48.4881 2.87513 48.4881 2.83005 48.4881C2.76242 48.4881 2.67225 48.4341 2.60462 48.5422C2.46936 48.6503 2.3341 48.8665 2.19884 48.9746C2.01849 49.1368 1.83814 49.0827 1.6578 48.8665C1.63525 48.8125 1.59017 48.7584 1.56762 48.7043C1.49999 48.38 1.43236 48.0557 1.38728 47.7314C1.31965 47.299 1.20693 46.9747 1.02658 46.7585C0.891325 46.5963 0.868781 46.218 0.981498 45.8396C1.09421 45.4612 1.20693 45.0829 1.2971 44.7045C1.38728 44.3802 1.49999 44.218 1.6578 44.164C2.06358 44.1099 2.4919 44.0559 2.89768 43.9478C2.98785 43.9478 3.03294 43.7316 3.03294 43.5694C3.05548 43.3532 3.01039 43.191 2.94276 43.137C2.87513 43.0829 2.80751 43.0289 2.73988 42.9748C2.55953 42.9748 2.35664 42.9748 2.17629 42.8127C2.06358 42.7586 1.9734 42.5965 1.92832 42.3262C1.88323 42.11 1.90577 41.9478 2.01849 41.9478C2.40173 41.8397 2.76242 41.8397 3.14565 41.8397C3.21328 42.164 3.326 42.3803 3.4838 42.3803C3.66415 42.3803 3.8445 42.3803 4.02484 42.3262C4.04739 42.3262 4.09247 42.2722 4.11502 42.164C4.13756 42.0559 4.09247 41.9478 4.0023 41.8938C3.70924 41.7316 3.43872 41.8397 3.14565 41.8397C3.10057 41.5695 3.01039 41.4073 2.89768 41.3533C2.78496 41.2992 2.67225 41.2452 2.60462 41.0289C2.53699 40.8127 2.53699 40.4344 2.6497 40.3803C2.71733 40.3263 2.78496 40.2722 2.87514 40.2722C3.03294 40.2722 3.1682 40.3263 3.326 40.4344C3.46126 40.5425 3.61906 40.6506 3.75432 40.7046C4.04739 40.7587 4.34045 40.8668 4.63351 41.1371C4.76877 41.2452 4.92658 41.2992 5.08438 41.2992C5.46761 41.2992 5.82831 41.2452 6.21154 41.1911C6.25663 41.1911 6.27917 41.1911 6.32426 41.1371C6.45952 41.083 6.45952 40.9208 6.3468 40.9208C6.12137 40.8127 5.89594 40.8127 5.6705 40.7587C5.55779 40.7046 5.46761 40.5965 5.37744 40.3803C5.30981 40.2182 5.28727 40.056 5.3549 39.9479C5.37744 39.8939 5.42253 39.8398 5.44507 39.8398C5.62542 39.9479 5.80576 40.056 5.98611 40.1101C6.21154 40.1641 6.43698 40.1101 6.66241 40.056C6.95547 40.002 7.24853 39.6777 7.5416 39.6777C7.81212 39.6777 8.06009 39.6236 8.33061 39.5695C8.44333 39.5155 8.5335 39.3533 8.57859 39.0831C8.60113 39.0831 8.64622 39.029 8.66876 39.029C8.69131 39.029 8.69131 38.9209 8.69131 38.8669C8.62368 38.8669 8.60113 38.9209 8.60113 39.1371C8.48842 39.1371 8.3757 39.0831 8.26298 39.0831C8.03755 39.029 8.01501 38.9209 8.06009 38.3804C8.10518 37.8939 8.10518 37.8399 8.03755 37.6237C7.83466 37.0832 7.63177 36.5426 7.42888 36.0021C7.38379 35.84 7.33871 35.6778 7.36125 35.5156C7.40634 35.3535 7.47397 35.2994 7.56414 35.2994C7.67686 35.2454 7.78957 35.2454 7.90229 35.1913C7.99246 35.1373 8.08264 34.813 8.08264 34.5968C8.10518 34.1643 8.10518 33.6779 8.03755 33.2455C7.94738 32.759 7.83466 32.2725 7.74449 31.786C7.67686 31.4617 7.67686 31.0834 7.6994 30.705C7.6994 30.5969 7.72194 30.5428 7.74449 30.4347C7.83466 30.0023 7.83466 29.5699 7.72194 29.1375C7.63177 28.8132 7.63177 28.4348 7.67686 28.1105C7.72194 27.8402 7.78957 27.624 7.76703 27.3538C7.6994 26.8673 7.81212 26.4889 7.92483 26.1106C7.99246 25.8944 7.99246 25.6241 7.92483 25.3538C7.90229 25.2998 7.90229 25.1917 7.87975 25.0836C7.78957 24.1647 7.78957 23.2999 8.06009 22.4891C8.10518 22.3269 8.17281 22.2188 8.19535 22.0567C8.30807 21.354 8.33061 20.6513 8.15027 20.0027C8.06009 19.6784 7.94738 19.4622 7.76703 19.4622C7.6994 19.4622 7.60923 19.4622 7.5416 19.4622C7.49651 19.4622 7.47397 19.4622 7.42888 19.4081C7.38379 19.3541 7.33871 19.3541 7.33871 19.3C7.31616 19.1919 7.36125 19.0838 7.45143 19.0298C7.51905 18.9757 7.60923 19.0298 7.67686 18.9757C7.92483 18.9217 8.01501 18.6514 7.8572 18.1109C7.67686 17.5163 7.6994 17.4622 7.96992 17.246C8.08264 17.192 8.17281 17.0839 8.28553 16.9217C8.3757 16.7596 8.44333 16.4893 8.3757 16.219C8.28553 15.7866 8.24044 15.3542 8.26298 14.9218C8.30807 14.3813 8.26298 13.8408 8.2179 13.3002C8.15027 12.5976 8.15027 12.5976 8.28553 12.057C8.30807 12.003 8.33061 11.8949 8.35316 11.8408C8.39824 11.6787 8.39824 11.5165 8.3757 11.3544C8.24044 10.5976 8.10518 9.89495 7.96992 9.13822C7.92483 8.81391 7.90229 8.75986 8.12772 8.5977C8.33061 8.43554 8.46587 8.21934 8.51096 7.67881C8.51096 7.57071 8.5335 7.51666 8.5335 7.40855C8.60113 7.19235 8.66876 6.97614 8.78148 6.92209C8.8942 6.86803 9.00691 6.86803 9.11963 6.81398C9.2098 6.75993 9.25489 6.65182 9.23235 6.54372C9.2098 6.48967 9.16472 6.43562 9.14217 6.38156C9.07454 6.32751 8.98437 6.32751 8.91674 6.27346C8.80402 6.21941 8.73639 5.8951 8.75894 5.62484C8.78148 5.46268 8.82657 5.24647 8.80402 5.08431C8.75894 4.81405 8.64622 4.70595 8.57859 4.54379C8.51096 4.38164 8.51096 4.21948 8.51096 4.05732C8.55605 3.57086 8.71385 3.3006 8.8942 3.19249C9.18726 3.03033 9.50286 2.97628 9.79593 2.81413C10.0214 2.70602 10.2243 2.54387 10.4722 2.54387C10.7653 2.54387 11.0809 2.43576 11.3514 2.11145C11.4867 1.94929 11.6445 1.94929 11.8023 1.94929C12.0277 1.89524 12.2531 1.89524 12.4786 1.73308C12.7266 1.51688 12.9971 1.46282 13.2676 1.40877C13.7185 1.30067 14.1693 1.30067 14.6202 0.976356C14.7555 0.868251 14.9133 0.868251 15.0711 0.868251C15.567 0.814199 16.063 0.814199 16.5364 0.489887C16.604 0.435835 16.6942 0.489887 16.7618 0.543939C16.8745 0.597991 16.9872 0.597991 17.1 0.489887C17.3479 0.273678 17.6185 0.219626 17.889 0.219626C18.4976 0.165574 19.1063 0.165574 19.715 0.165574C20.3687 0.165574 20.9999 0.111522 21.6537 0.111522C22.5329 0.111522 23.3895 0.111522 24.2687 0.0574701C24.8323 0.00341796 25.3959 0.0574701 25.982 0.00341797C26.1849 0.00341797 26.3653 0.111522 26.5231 0.327731C26.5907 0.435835 26.6583 0.381783 26.7485 0.327731C26.8837 0.165574 27.0416 0.111522 27.1994 0.111522C27.8531 0.111522 28.4843 0.111522 29.1381 0.111522C29.1832 0.111522 29.2283 0.111522 29.2508 0.111522C29.4537 0.327731 29.6791 0.327731 29.9046 0.273678C30.2427 0.652043 30.5583 0.543939 30.8965 0.219626C31.0768 0.05747 31.2572 0.00341797 31.46 0.00341797C31.7306 0.0574701 32.0011 0.00341795 32.2491 0.219626C32.3167 0.273678 32.4069 0.219626 32.4745 0.165574C32.6774 0.00341797 32.8126 0.165574 32.9479 0.597991C33.0832 1.03041 33.241 1.08446 33.4439 0.814199C33.6467 0.543939 33.8496 0.435835 34.0976 0.435835C34.4358 0.435835 34.7739 0.381783 35.1121 0.435835C35.2924 0.489887 35.4953 0.435835 35.6756 0.327731C35.856 0.165574 36.0363 0.273678 36.2392 0.327731C36.7803 0.489887 37.8398 0.543939 38.5161 0.489887C38.7866 0.435835 39.0346 0.435835 39.3051 0.435835C39.4178 0.435835 39.5305 0.489887 39.6207 0.652043C39.8011 0.868251 39.9814 0.922303 40.1618 0.706095C40.2519 0.597991 40.3646 0.489887 40.4774 0.489887C40.7704 0.543939 41.086 0.489887 41.3791 0.760147C41.6947 1.03041 42.0554 0.976356 42.3935 0.976356C42.4612 0.976356 42.5513 0.922303 42.619 0.868251C42.7993 0.706095 42.9797 0.597991 43.16 0.597991C43.4531 0.597991 43.7687 0.543939 44.0617 0.489887C44.2872 0.489887 44.5126 0.543939 44.738 0.760147C44.8508 0.868251 44.9635 0.922304 45.0762 0.922304C45.4594 0.922304 45.8427 0.976356 46.2034 0.652043C46.3386 0.543939 46.4964 0.489887 46.6542 0.489887C46.8797 0.489887 47.1051 0.543939 47.3305 0.760147C47.4658 0.922304 47.601 1.03041 47.7588 1.19256C47.8265 1.24662 47.8941 1.24662 47.9843 1.19256C48.345 0.922304 48.7282 0.976356 49.1114 0.976356C49.2242 0.976356 49.2467 1.13851 49.2242 1.35472C49.2016 1.57093 49.2016 1.73308 49.2692 1.84119C49.3369 1.94929 49.4045 2.00335 49.4947 1.94929C49.6074 1.89524 49.7201 1.84119 49.8328 1.78714C49.9005 1.73308 49.9681 1.73308 50.0583 1.78714C50.171 1.89524 50.2837 1.89524 50.3964 1.94929C50.5542 2.00335 50.712 2.00335 50.8473 1.84119C51.2756 1.35472 51.7265 1.40877 52.1773 1.35472C52.2901 1.35472 52.4028 1.46282 52.4929 1.62498C52.6507 1.89524 52.7409 2.27361 52.8536 2.65197C52.8987 2.81413 52.9889 2.86818 53.0565 2.86818C53.1242 2.86818 53.2143 2.92223 53.282 2.86818C53.5299 2.59792 53.823 2.92223 54.0484 2.59792C54.2739 2.48981 54.4993 2.32766 54.7022 2.1655C54.8149 2.0574 54.9276 2.11145 55.0403 2.21955C55.108 2.27361 55.1756 2.38171 55.2658 2.38171C55.8744 2.43576 56.4831 2.54387 57.0918 2.38171C57.2045 2.32766 57.2947 2.1655 57.3623 1.94929L57.3397 2.00335C57.4525 2.0574 57.5652 2.00335 57.6779 2.11145C57.8357 2.27361 57.9484 2.32766 58.0837 2.0574C58.1288 1.94929 58.1964 1.84119 58.264 1.73308C58.3317 1.62498 58.3993 1.57093 58.4669 1.51688C58.8051 1.40877 59.1432 1.35472 59.4814 1.30067C59.7519 1.30067 59.9999 1.35472 60.2704 1.46282C60.4282 1.51688 60.4056 1.84119 60.4056 2.0574C60.4056 2.11145 60.4282 2.21955 60.4507 2.27361C60.5634 2.43576 61.1496 2.81413 61.3074 2.86818C61.4877 2.92223 61.6906 2.92223 61.871 2.97628C62.0288 2.97628 62.164 3.08439 62.2993 3.3006C62.4345 3.46275 62.5698 3.62491 62.7051 3.73301C62.7727 3.78706 62.8629 3.84112 62.9305 3.84112C63.2686 3.73301 63.6068 4.11138 63.9449 4.00327C64.1253 3.94922 64.3282 4.00327 64.5085 4.05732C64.9143 4.16543 65.3426 4.16543 65.7484 4.11138C66.0189 4.05732 66.2669 4.21948 66.5149 4.43569C66.6952 4.59785 66.8756 4.54379 67.0785 4.48974C67.1461 4.43569 67.2363 4.43569 67.3039 4.32759C67.4842 4.16543 67.6646 4.11138 67.8675 4.05732C68.138 4.05732 68.386 4.00327 68.6565 4.00327C68.8594 4.00327 69.0397 4.11138 69.1975 4.32759C69.3553 4.48974 69.4906 4.48974 69.6259 4.27353C69.8287 4.00327 70.0091 3.73301 70.1218 3.19249C70.2345 2.65197 70.46 2.48981 70.6854 2.43576C70.9108 2.38171 71.1362 2.43576 71.3617 2.43576C71.4744 2.43576 71.5871 2.43576 71.6998 2.54387C72.2183 2.92223 72.7368 2.92223 73.2779 2.97628C73.5484 2.97628 73.7964 3.03033 74.0669 3.3006C74.1796 3.4087 74.2923 3.4087 74.405 3.4087C75.1715 3.4087 75.9154 3.46275 76.6819 3.46275C76.9524 3.46275 77.2004 3.57086 77.4484 3.78706C77.5836 3.94922 77.7414 3.94922 77.8992 4.00327C78.057 4.00327 78.1923 4.00327 78.3501 4.00327C78.6883 4.00327 79.0264 4.00327 79.3646 4.05732C79.5224 4.05732 79.6576 4.11138 79.8154 4.21948C80.0409 4.38164 80.2663 4.43569 80.4917 4.43569C80.9426 4.43569 81.3934 4.48974 81.8443 4.48974C82.1148 4.48974 82.3628 4.54379 82.6333 4.81405C82.8137 4.97621 82.994 4.97621 83.1969 4.97621C83.8056 5.03026 84.4143 5.03026 85.0229 5.08431C85.1807 5.08431 85.3385 5.08431 85.4738 5.19242C85.8119 5.46268 86.1501 5.51673 86.4882 5.51673C86.894 5.51673 87.3223 5.51673 87.7281 5.57078C87.8859 5.57078 88.0437 5.57078 88.179 5.67889C88.472 5.8951 88.7651 5.94915 89.0807 5.94915C89.3512 5.94915 89.5992 6.0032 89.8697 6.0032C89.9825 6.0032 90.0952 6.0032 90.2079 6.1113C90.6137 6.54372 91.0194 6.43562 91.4478 6.48967C91.6056 6.48967 91.7408 6.48967 91.8986 6.48967C92.1015 6.48967 92.2819 6.59777 92.4397 6.81398C92.62 7.03019 92.8004 7.13829 92.9807 7.08424C93.6345 6.92209 94.2657 7.03019 94.8969 7.08424C95.0547 7.08424 95.1899 7.13829 95.3478 7.30045C95.5281 7.46261 95.7084 7.51666 95.9113 7.51666C96.2044 7.51666 96.52 7.57071 96.8131 7.57071C97.1061 7.62476 97.4217 7.62476 97.7148 7.84097C97.8501 7.94908 98.0079 7.94908 98.1657 8.00313C98.4362 8.05718 98.6842 8.05718 98.9547 8.11123C99.0674 8.11123 99.1801 8.11123 99.2928 8.21934C99.6535 8.5977 100.037 8.5977 100.397 8.5977C100.781 8.5977 101.141 8.75986 101.525 8.97607C101.975 9.19227 102.426 9.13822 102.877 9.24633C102.9 9.24633 102.945 9.30038 102.945 9.35443C102.945 9.46253 102.922 9.57064 102.9 9.62469C102.832 9.73279 102.765 9.78685 102.719 9.89495C102.652 10.0031 102.607 10.1652 102.562 10.2733C102.539 10.3274 102.517 10.4355 102.539 10.4895C102.562 10.5436 102.607 10.6517 102.629 10.6517C102.81 10.7057 103.012 10.7057 103.193 10.8138C103.599 10.976 103.644 10.976 103.914 10.5976C103.937 10.5436 103.959 10.4895 103.982 10.3814C104.004 10.3274 104.004 10.2193 104.027 10.1112L104.004 10.1652C104.117 10.2193 104.185 10.4355 104.207 10.7057C104.049 10.5436 104.049 10.7057 104.072 10.8679ZM11.2387 8.32744C11.3063 8.32744 11.374 8.32744 11.4416 8.32744C11.4641 8.32744 11.5092 8.27339 11.5318 8.21934C11.5543 8.16528 11.5543 8.11123 11.5543 8.05718C11.5092 7.94908 11.4416 7.89502 11.374 8.00313C11.3063 8.00313 11.2612 8.16528 11.2387 8.32744C11.2162 8.38149 11.1936 8.38149 11.1485 8.43554C11.126 8.43554 11.126 8.54365 11.126 8.5977C11.1936 8.65175 11.2387 8.54365 11.2387 8.32744ZM10.1115 7.2464C10.5173 7.30045 10.9456 7.2464 11.3289 6.86803C11.3965 6.81398 11.4641 6.75993 11.5543 6.75993C11.8925 6.65182 12.2306 6.59777 12.5688 6.75993C12.6138 6.75993 12.6589 6.81398 12.6815 6.86803C12.704 6.97614 12.6815 7.13829 12.6138 7.2464C12.5462 7.3545 12.5237 7.51666 12.5688 7.62476C12.5913 7.67881 12.6364 7.73287 12.6589 7.73287C12.8844 7.78692 13.1098 7.73287 13.3127 7.40855C13.493 7.08424 13.6734 6.70588 13.8763 6.54372C13.9214 6.48967 13.9439 6.43562 13.9664 6.38156C14.0566 6.21941 14.1017 5.94915 14.1693 5.73294C14.2144 5.57078 14.1017 5.13837 14.0341 5.08431C13.7635 4.97621 13.5156 5.03026 13.2451 5.19242C13.0647 5.30052 12.8844 5.51673 12.704 5.51673C12.4786 5.57078 12.2531 5.57078 12.0277 5.67889C11.8023 5.78699 11.5994 6.0032 11.374 6.1113C10.9907 6.21941 10.6526 6.59777 10.2919 6.86803C10.1792 6.92209 10.1341 7.08424 10.1115 7.2464C9.90864 7.2464 9.68321 7.2464 9.45778 7.3545C9.41269 7.3545 9.39015 7.46261 9.36761 7.51666C9.39015 7.57071 9.41269 7.62476 9.43524 7.67881C9.57049 7.78692 9.7283 7.84097 9.8861 7.73287C9.97627 7.62476 10.0664 7.51666 10.1115 7.2464ZM55.108 90.1083C55.2432 89.9461 55.3785 89.7839 55.5137 89.6218C55.5814 89.5677 55.6715 89.5677 55.7392 89.5137C55.7843 89.5137 55.8068 89.5137 55.8519 89.5677C55.9421 89.6218 55.9646 89.7839 55.9421 90.0002C55.9195 90.3245 55.9872 90.4866 56.1224 90.4866C56.3478 90.4866 56.5733 90.4866 56.7987 90.4866C56.9114 90.4866 57.0241 90.4326 57.1143 90.2704C57.3623 89.892 57.6103 90.0001 57.8808 90.1083C58.2866 90.5407 58.6923 90.4866 59.0981 90.3245C59.1432 90.3245 59.1658 90.2704 59.2108 90.2704C59.2785 90.2164 59.3461 90.2704 59.4363 90.3245C59.549 90.4326 59.6617 90.4866 59.7744 90.4866C59.9322 90.5407 60.0449 90.7569 60.1351 91.0812C60.2028 91.3514 60.2929 91.4596 60.4056 91.4596C60.4507 91.4596 60.4733 91.4596 60.5184 91.4596C60.7889 91.4596 61.0594 91.4596 61.3074 91.4596C61.6455 91.4055 61.9611 90.9731 62.2993 90.9731C62.3669 90.9731 62.4345 90.865 62.5022 90.8109C62.5473 90.7569 62.5698 90.7028 62.5923 90.7028C62.6825 90.5947 62.7952 90.4326 62.9079 90.4326C63.2912 90.4326 63.6744 90.4326 64.0351 90.4866C64.1478 90.4866 64.2605 90.5947 64.3282 90.8109C64.4634 91.1893 64.6212 91.3514 64.8241 91.4055C65.5004 91.5677 66.1767 91.4595 66.8756 91.4055C66.9883 91.4055 67.0785 91.2433 67.1461 90.9731C67.1912 90.7569 67.2813 90.5407 67.3715 90.3785C67.4617 90.2704 67.4617 90.1083 67.4391 90.0002C67.4166 89.9461 67.3715 89.892 67.349 89.892C67.0785 89.7839 66.8305 89.7839 66.56 89.5677C66.4923 89.5137 66.4022 89.5137 66.3345 89.5677C66.1767 89.6758 66.0415 89.6758 65.8837 89.5137C65.6357 89.2975 65.3877 89.0813 65.1397 88.9191C65.0045 88.811 64.8467 88.8651 64.7114 89.0272C64.5536 89.2434 64.3733 89.4056 64.1704 89.4056C63.99 89.4056 63.7871 89.4056 63.6068 89.4056C63.4039 89.4056 63.2236 89.2975 63.0658 89.0272C62.9305 88.811 62.7952 88.757 62.6374 88.757C62.0738 88.757 61.5103 88.6488 60.9467 88.9191C60.6762 88.9191 60.4056 88.8651 60.1577 88.9191C59.0981 88.9732 58.0386 88.9191 56.9791 88.9191C56.2577 88.9191 55.5363 88.9191 54.8149 88.9732C54.7698 88.9732 54.7473 88.9732 54.7022 89.0272C54.6571 89.0272 54.6346 89.0813 54.5895 89.1353C54.4768 89.1894 54.4317 89.5137 54.4993 89.7839C54.6571 90.5947 54.9051 90.7028 55.108 90.1083ZM88.1339 9.46253C88.427 9.08417 88.7651 8.81391 89.0807 8.5977C89.1483 8.54365 89.216 8.5977 89.3062 8.65175C89.4189 8.7058 89.5316 8.75986 89.6443 8.81391C89.8246 8.81391 90.0275 8.81391 90.2079 8.81391C90.3657 8.81391 90.5009 8.86796 90.6362 9.08417C90.8166 9.30038 90.9969 9.35443 91.1772 9.30038C91.4027 9.24633 91.6056 9.03012 91.8535 9.13822C91.9212 9.19227 91.9888 9.08417 92.0564 8.97607C92.2368 8.75986 92.4171 8.75986 92.5975 8.97607C92.6876 9.08417 92.8004 9.19227 92.9131 9.30038C93.0258 9.40848 93.116 9.35443 93.2287 9.13822C93.3414 8.86796 93.3189 8.5977 93.2061 8.4896C92.7553 8.05718 92.2819 7.73287 91.7634 7.84097C91.6957 7.84097 91.6056 7.84097 91.5379 7.84097C91.2674 7.84097 91.0194 7.73287 90.7715 7.46261C90.6813 7.3545 90.546 7.30045 90.4333 7.30045C90.2755 7.2464 90.1403 7.2464 89.9825 7.30045C89.1934 7.46261 88.3819 7.30045 87.5929 7.30045C87.4801 7.30045 87.3674 7.19235 87.2547 7.08424C87.1194 6.97614 86.9616 6.86803 86.8489 6.65183C86.6235 6.27346 86.353 6.21941 86.105 6.0032C86.0374 5.94915 85.9472 5.8951 85.8796 6.0032C85.6992 6.21941 85.5189 6.32751 85.3385 6.32751C85.0004 6.32751 84.6622 6.32751 84.3241 6.59777C84.2564 6.65182 84.1663 6.59777 84.0986 6.54372C83.9859 6.48967 83.8732 6.32751 83.783 6.32751C83.5576 6.27346 83.3547 5.94915 83.1744 5.62484C83.0617 5.35457 82.9039 5.30052 82.746 5.30052C82.4079 5.30052 82.0697 5.30052 81.7316 5.30052C81.4385 5.30052 81.1229 5.35458 80.8524 5.67889C80.7848 5.73294 80.6946 5.73294 80.627 5.73294C80.5143 5.73294 80.379 5.73294 80.2888 5.62484C80.0183 5.30052 79.7027 5.30052 79.4322 4.97621C79.2969 4.81405 79.1391 4.76 78.9813 4.76C78.7559 4.76 78.5305 4.76 78.305 4.76C78.0345 4.76 77.7865 4.59785 77.5385 4.38164C77.4258 4.27353 77.2906 4.38164 77.2229 4.59785C77.1328 4.86811 77.0201 5.13837 76.9073 5.35457C76.7946 5.51673 76.8172 5.73294 76.9299 6.0032C77.0201 6.21941 77.0651 6.21941 77.2455 6.1113C77.3582 6.0032 77.4709 6.0032 77.5836 6.1113C77.764 6.27346 77.9218 6.43562 78.1021 6.65183C78.1698 6.70588 78.2599 6.70588 78.3276 6.59777C78.5755 6.32751 78.8461 6.27346 79.1166 6.27346C79.5674 6.32751 80.0183 6.27346 80.4692 6.65183C80.5368 6.59777 80.627 6.59777 80.6721 6.54372C80.7848 6.43562 80.8975 6.43562 80.9877 6.54372C81.0553 6.65182 81.1229 6.75993 81.168 6.86803C81.3484 7.2464 81.5513 7.46261 81.7992 7.40855C82.3628 7.30045 82.9264 7.51666 83.49 7.3545C83.5576 7.3545 83.6478 7.40855 83.7154 7.40855C83.8732 7.46261 83.9634 7.73287 84.0085 8.16528C84.031 8.54365 83.8958 8.92201 83.7605 8.81391C83.5125 8.5977 83.242 8.54365 82.9715 8.54365C82.4079 8.5977 81.8443 8.5977 81.2807 8.21934C81.2131 8.16528 81.1455 8.21934 81.0553 8.27339C80.9877 8.32744 80.92 8.38149 80.8299 8.38149C80.2663 8.43554 79.7027 8.43554 79.1166 8.43554C79.049 8.43554 78.9588 8.38149 78.8911 8.32744C78.7108 8.11123 78.5304 8.05718 78.3501 8.05718C77.8992 8.05718 77.4484 8.05718 76.975 8.05718C76.7495 8.05718 76.5241 8.00313 76.2987 7.78692C76.0056 7.51666 75.7125 7.40855 75.3969 7.46261C75.1715 7.46261 74.9461 7.46261 74.7206 7.46261C74.5177 7.46261 74.3374 7.3545 74.1796 7.13829C74.0443 6.97614 73.8865 6.97614 73.7287 7.08424C73.5935 7.19235 73.4582 7.3545 73.323 7.51666C73.2553 7.62476 73.2102 7.78692 73.2328 7.89502C73.2553 7.94908 73.3004 8.00313 73.323 8.00313C73.7287 8.05718 74.1571 8.05718 74.5628 8.11123C74.7206 8.11123 74.8559 8.16528 75.0137 8.27339C75.2391 8.43554 75.4646 8.4896 75.69 8.4896C76.1409 8.4896 76.5917 8.4896 77.0426 8.54365C77.2004 8.54365 77.3582 8.5977 77.4935 8.7058C77.7414 8.92201 78.012 8.97607 78.2825 8.97607C78.8911 8.92201 79.4998 9.08417 80.1085 9.08417C80.2663 9.08417 80.4016 9.13822 80.5594 9.24633C80.8524 9.46253 81.1455 9.57064 81.4611 9.57064C81.9119 9.51659 82.3628 9.57064 82.8137 9.89495C82.9489 10.0031 83.1067 9.949 83.2645 10.0031C83.8056 10.0571 84.3241 10.1112 84.8651 10.1652C85.0229 10.1652 85.1582 10.2193 85.316 10.3274C85.609 10.5436 85.9021 10.5976 86.2177 10.5976C86.7588 10.5976 87.2773 10.6517 87.8183 10.6517C87.9986 10.6517 88.2015 10.7598 88.3819 10.9219C88.5171 11.0841 88.6749 11.0841 88.8327 11.0841C89.1709 11.0841 89.509 11.1381 89.8472 11.1381C90.005 11.1381 90.1628 11.1381 90.2981 11.3003C90.5911 11.5706 90.8842 11.6246 91.1998 11.6246C91.6056 11.6246 92.0339 11.6246 92.4397 11.6787C92.5524 11.6787 92.6651 11.6787 92.7778 11.7868C93.0709 12.057 93.3639 12.1111 93.6796 12.1111C94.4686 12.1651 95.2801 12.1651 96.0691 12.057C96.1368 12.057 96.2269 12.003 96.2946 12.003C96.3397 12.003 96.3622 11.9489 96.3847 11.8949C96.4298 11.7868 96.3847 11.6787 96.272 11.6246C95.9339 11.4625 95.5957 11.5706 95.2801 11.1922C95.1449 11.03 94.9871 11.0841 94.8293 11.0841C94.4911 11.0841 94.153 11.0841 93.8148 11.0841C93.6345 11.0841 93.4316 11.03 93.2512 10.8679C92.9582 10.5436 92.6651 10.4895 92.372 10.4895C92.0339 10.4895 91.6957 10.4895 91.3576 10.4895C91.0871 10.4895 90.8391 10.3814 90.5686 10.1652C90.4333 10.0571 90.2755 10.0031 90.1177 10.0031C89.8923 10.0031 89.6668 10.0031 89.4414 10.0031C89.1033 10.0571 88.7651 10.0031 88.427 9.949C88.3142 9.949 88.2241 9.73279 88.179 9.46253H88.1339ZM51.5461 88.5407C50.9375 88.5948 50.4866 88.5948 50.0357 88.5948C49.9906 88.5948 49.9681 88.5948 49.923 88.5948C49.8554 88.6488 49.7652 88.6488 49.6976 88.757C49.4947 89.0272 49.2692 89.0272 49.0438 89.0813C48.9762 89.0813 48.9086 89.1894 48.8409 89.2434C48.7508 89.2975 48.6155 89.7839 48.6606 89.892C48.7057 90.0542 48.7958 90.0542 48.8635 90.1083C49.0438 90.1623 49.2467 90.1623 49.4271 89.9461C49.4721 89.892 49.4947 89.838 49.5172 89.838C49.6976 89.6758 49.7652 89.7839 49.7652 90.2704C49.7652 90.4866 49.7877 90.5947 49.9005 90.6488C50.1259 90.7569 50.3513 90.5947 50.5768 90.5947C50.8473 90.5947 51.0953 90.6488 51.3658 90.6488C51.4334 90.6488 51.501 90.5407 51.5687 90.4326C51.6814 90.3245 51.7265 90.0542 51.8166 89.892C51.9068 89.6758 52.0195 89.6218 52.1322 89.6758C52.1999 89.6758 52.2901 89.7299 52.3577 89.7839C52.8085 90.2164 53.2369 90.2164 53.6652 89.6758C53.7554 89.5677 53.8906 89.5677 54.0033 89.5137C54.0935 89.4596 54.1386 89.3515 54.0935 89.2434C54.071 89.1894 54.0259 89.1353 54.0033 89.1353C53.7328 89.0813 53.4848 89.0272 53.2369 88.757C53.1016 88.5948 52.9438 88.5407 52.786 88.5948C52.2901 88.5407 51.8392 88.5948 51.5461 88.5407ZM92.0564 32.2725C91.9437 32.3266 91.8085 32.3266 91.6507 32.4347C91.6056 32.4347 91.583 32.5428 91.5605 32.5428C91.4703 32.6509 91.4478 32.759 91.4478 32.9752C91.4703 33.1373 91.5154 33.3536 91.583 33.3536C91.8761 33.4617 92.1692 33.7319 92.4397 34.1103C92.4622 34.1643 92.5073 34.2184 92.5298 34.2184C92.7102 34.3805 92.8905 34.4887 93.0934 34.2724C93.3414 34.0562 93.5894 33.84 93.8599 33.84C94.2431 33.84 94.6264 33.8941 94.9871 34.1643C95.4605 34.5427 95.9564 34.5427 96.4524 34.3265C96.5651 34.2724 96.6553 34.1103 96.7229 33.8941C96.768 33.7319 96.7905 33.5698 96.7454 33.4076C96.7004 33.2455 96.6553 33.1373 96.5651 33.0833C96.52 33.0833 96.4975 33.0292 96.4524 33.0292C96.0015 33.3536 95.5506 33.3536 95.1223 32.9752C94.942 32.813 94.7391 32.8671 94.5587 32.7049C94.3333 32.4887 94.1304 32.5428 93.905 32.759C93.7246 32.9211 93.5217 32.9211 93.3414 32.813C93.1836 32.7049 93.0483 32.5968 92.9131 32.4887C92.6426 32.3266 92.372 32.2725 92.0564 32.2725ZM82.1148 13.6245C82.3403 13.3543 82.5206 12.9219 82.7686 12.6516C82.7911 12.5976 82.8362 12.5435 82.8362 12.4354C82.8588 12.3813 82.8588 12.2732 82.8362 12.1651C82.7911 11.8949 82.6784 11.7868 82.5657 11.7868C82.3854 11.7868 82.205 12.003 82.0472 12.1651C81.8443 12.4354 81.7767 12.9219 82.0021 13.4083C82.0472 13.5705 82.0698 13.5705 82.1148 13.6245ZM95.5732 17.5163C95.5732 17.3001 95.5281 17.192 95.4379 17.1379C95.0998 16.9758 94.7842 17.0839 94.446 17.0298C94.198 16.9758 93.9275 17.0298 93.6796 17.0839C93.5894 17.0839 93.5443 17.246 93.5668 17.3001C93.5894 17.3541 93.6345 17.4082 93.657 17.4082C93.9501 17.4622 94.2431 17.5163 94.5362 17.4622C94.8067 17.4082 95.0547 17.5703 95.3027 17.7866C95.3252 17.8406 95.3703 17.7866 95.4154 17.7866C95.5056 17.8406 95.5506 17.6785 95.5732 17.5163ZM83.3322 15.5164C83.4674 15.5164 83.6478 15.5164 83.8281 15.5164C83.8507 15.5164 83.9183 15.4623 83.9183 15.4083C83.9408 15.2461 83.8958 15.084 83.8281 15.0299C83.6703 14.8137 83.49 14.6515 83.3096 14.8137C83.1067 15.0299 82.8588 14.9218 82.6784 15.1921C82.6559 15.2461 82.6559 15.3002 82.6333 15.3542C82.6559 15.4083 82.701 15.4623 82.7235 15.4623C82.9039 15.4623 83.1067 15.4623 83.3322 15.5164ZM11.5543 86.0003C11.5543 85.8922 11.5318 85.8381 11.5318 85.73C11.4867 85.5138 11.4416 85.2436 11.374 85.0274C11.3289 84.8652 11.2387 84.8111 11.1711 84.9193C11.1034 84.9733 11.0584 85.1355 11.0358 85.2976C11.0133 85.5679 11.0133 85.8381 11.0809 86.0543C11.1711 86.3246 11.3063 86.3787 11.4867 86.1624C11.5092 86.1084 11.5318 86.0543 11.5543 86.0003ZM97.557 14.2732C97.4894 14.2732 97.3992 14.2732 97.3316 14.3272C97.2865 14.3272 97.2639 14.3813 97.2414 14.4353C97.2188 14.4894 97.1963 14.5434 97.1963 14.5975C97.2188 14.6515 97.2639 14.7596 97.2865 14.7596C97.5345 14.8137 97.7824 14.9758 98.0529 15.0299C98.0755 15.0299 98.1206 14.9218 98.1206 14.8677C98.1206 14.8137 98.1206 14.6515 98.098 14.5975C97.9402 14.2191 97.7374 14.3272 97.557 14.2732ZM10.6751 24.7052C10.6075 24.7052 10.5173 24.8133 10.4948 24.9755C10.4948 25.0295 10.5173 25.1376 10.5399 25.2457C10.63 25.5701 10.7653 25.7322 10.9231 25.7322C11.0133 25.7322 11.0809 25.6782 11.126 25.5701C11.1711 25.462 11.1485 25.2998 11.0809 25.1376C10.9682 24.8133 10.8329 24.7052 10.6751 24.7052ZM108.31 63.7849C108.175 63.7849 108.017 63.8389 107.882 63.8389C107.859 63.8389 107.814 63.893 107.792 63.947C107.769 64.0011 107.814 64.1632 107.904 64.1632C108.152 64.2173 108.4 64.2173 108.671 64.2173C108.693 64.2173 108.738 64.1632 108.761 64.1092C108.784 64.0551 108.806 64.0011 108.829 63.947C108.806 63.893 108.784 63.8389 108.738 63.7849C108.603 63.7308 108.445 63.7308 108.31 63.7849ZM17.6185 2.65197C17.6635 2.65197 17.7537 2.65197 17.8213 2.59792C17.9341 2.59792 17.9566 2.48981 17.9341 2.27361C17.9115 2.11145 17.8439 2.00335 17.7763 1.94929C17.6635 1.89524 17.5734 2.0574 17.4607 2.1655C17.393 2.21955 17.3254 2.32766 17.3028 2.48981C17.3479 2.59792 17.4156 2.65197 17.5057 2.65197C17.5057 2.70602 17.5508 2.70602 17.6185 2.65197ZM25.441 4.27353C25.5988 4.21948 25.6664 4.21948 25.7566 4.21948C25.8017 4.21948 25.8468 4.16543 25.8468 4.11138C25.8693 4.00327 25.8017 3.89517 25.7115 3.89517C25.5086 3.89517 25.2832 3.73301 25.0803 3.94922C25.0577 3.94922 25.0352 4.05732 25.0352 4.11138C25.0577 4.16543 25.0803 4.27353 25.1254 4.27353C25.2606 4.27353 25.3959 4.27353 25.441 4.27353ZM95.5732 14.2732C95.5056 14.2191 95.4379 14.111 95.3703 14.057C95.3478 14.0029 95.3027 14.0029 95.2801 14.0029C95.2125 14.0029 95.1449 14.111 95.0998 14.2732C95.0547 14.4894 95.0772 14.5975 95.1674 14.6515C95.3027 14.6515 95.4605 14.6515 95.5957 14.6515C95.6408 14.6515 95.6859 14.5975 95.6859 14.5975C95.7084 14.4353 95.6634 14.3272 95.5732 14.2732ZM90.794 16.5974C90.6137 16.5974 90.546 16.5974 90.4784 16.5974C90.4559 16.5974 90.4108 16.6515 90.3882 16.7055C90.3657 16.8136 90.4108 16.8677 90.5009 16.9217C90.6813 16.9217 90.8616 16.9217 91.042 16.9217C91.0645 16.9217 91.1096 16.8677 91.1322 16.8136C91.1547 16.7596 91.1096 16.6515 90.9969 16.5974C90.9067 16.5974 90.794 16.5974 90.794 16.5974ZM115.795 47.7855C115.704 47.7855 115.772 47.7855 115.84 47.7855C115.93 47.7855 115.997 47.7314 116.02 47.5693C116.042 47.4612 115.975 47.299 115.885 47.299C115.704 47.299 115.524 47.299 115.344 47.3531C115.253 47.3531 115.186 47.5152 115.208 47.5693C115.253 47.7314 115.321 47.7314 115.411 47.7314C115.479 47.7314 115.569 47.7314 115.795 47.7855ZM43.9265 89.3515C43.8589 89.4056 43.8138 89.5677 43.8138 89.7299C43.8138 89.892 43.8589 90.0542 43.949 90.1083C44.0167 90.1623 44.0843 90.1623 44.1745 90.1083C44.2646 90.1083 44.3097 90.0001 44.2872 89.7839C44.2872 89.7299 44.2646 89.6218 44.2421 89.5677C44.1519 89.3515 44.0617 89.2975 43.9265 89.3515ZM83.6027 32.3806C83.6703 32.3806 83.738 32.3806 83.8056 32.3266C83.8958 32.2725 83.9408 32.2185 83.9183 32.0563C83.8958 32.0023 83.8732 31.8942 83.8507 31.8942C83.7605 31.786 83.6703 31.6779 83.5576 31.5698C83.49 31.5158 83.4223 31.5698 83.3547 31.6779C83.3096 31.786 83.2645 31.9482 83.2871 32.1104C83.3547 32.1644 83.4224 32.2185 83.49 32.2725C83.5351 32.3806 83.5802 32.3806 83.6027 32.3806ZM114.352 47.7314C114.419 47.7314 114.51 47.7314 114.577 47.6774C114.622 47.6774 114.645 47.6233 114.667 47.5693C114.645 47.4612 114.577 47.4071 114.51 47.4071C114.442 47.4071 114.352 47.4071 114.284 47.4071C114.216 47.4071 114.126 47.4071 114.081 47.5152C114.036 47.6233 114.171 47.7314 114.352 47.7314ZM1.92832 82.595C2.06358 82.595 2.22138 82.4329 2.17629 82.3248C2.13121 82.1626 2.06358 82.1085 1.99595 82.1085C1.92832 82.1085 1.86069 82.1085 1.79306 82.1085C1.72543 82.1085 1.63525 82.1085 1.59017 82.2707C1.56762 82.3248 1.63525 82.4869 1.72543 82.4869C1.77051 82.595 1.83814 82.595 1.92832 82.595ZM9.59304 84.703C9.70576 84.703 9.81847 84.703 9.90864 84.4868C9.81847 84.2706 9.70576 84.2706 9.59304 84.2166C9.54795 84.2166 9.52541 84.2166 9.48032 84.2166C9.39015 84.2166 9.32252 84.2706 9.27743 84.4328C9.32252 84.5949 9.39015 84.649 9.45778 84.649C9.52541 84.649 9.54795 84.649 9.59304 84.703ZM47.2629 89.0813C47.308 89.2975 47.3531 89.5137 47.3982 89.7299C47.4207 89.7839 47.4658 89.838 47.4883 89.838C47.5109 89.838 47.556 89.7299 47.556 89.6758C47.601 89.3515 47.5785 88.9732 47.4658 88.757C47.3982 88.6488 47.3305 88.7029 47.2629 88.811C47.2629 88.8651 47.2854 88.9732 47.2629 89.0813ZM67.642 6.97614C67.642 6.97614 67.7097 6.97614 67.7773 6.97614C67.8224 6.97614 67.8449 6.97614 67.8675 6.92209C67.89 6.86803 67.9351 6.81398 67.9576 6.81398C67.9351 6.75993 67.9126 6.65183 67.8675 6.65183C67.7548 6.59777 67.6646 6.59777 67.5519 6.59777C67.3941 6.59777 67.2813 6.75993 67.349 6.86803C67.4391 6.92209 67.4842 6.97614 67.642 6.97614ZM93.9952 13.7326C93.8373 13.7867 93.7246 13.7867 93.6119 13.8408C93.5894 13.8408 93.5443 13.8948 93.5218 13.9489C93.5443 14.0029 93.5668 14.057 93.5668 14.057C93.6796 14.111 93.7697 14.1651 93.8824 14.1651C93.9952 14.2191 94.153 14.0029 94.1079 13.8948C94.0853 13.7867 94.0177 13.7326 93.9952 13.7326ZM3.91213 48.9746C3.88958 48.9206 3.8445 48.8665 3.82195 48.8665C3.70924 48.8125 3.59652 48.8125 3.52889 49.0287C3.52889 49.0287 3.57398 49.1908 3.59652 49.1908C3.70924 49.2989 3.79941 49.2989 3.91213 49.1368C3.91213 49.1368 3.91213 49.0287 3.91213 48.9746ZM93.116 13.6786C93.0934 13.6245 93.0934 13.5164 93.0709 13.4624C93.0033 13.2462 92.8004 13.3002 92.8004 13.4624C92.8004 13.6245 92.8455 13.7867 92.8905 13.8948C92.9582 14.0029 93.0258 14.057 93.0709 13.8948C93.0934 13.8408 93.0934 13.7867 93.116 13.6786ZM23.1641 4.00327C23.1416 3.94922 23.119 3.84112 23.0965 3.84112C22.9838 3.78706 22.8936 3.78706 22.8034 3.94922C22.7809 4.00327 22.7583 4.05732 22.7583 4.11138C22.7809 4.27353 22.9161 4.38164 23.0288 4.27353C23.119 4.21948 23.1641 4.16543 23.1641 4.00327ZM36.8253 1.67903C36.7803 1.51688 36.7126 1.46282 36.645 1.51688C36.6225 1.51688 36.5999 1.62498 36.5774 1.67903C36.5999 1.73308 36.6225 1.78714 36.645 1.84119C36.7126 1.89524 36.7803 1.84119 36.8253 1.67903ZM52.1773 2.43576C52.1548 2.43576 52.1322 2.48981 52.0872 2.54387C52.1097 2.59792 52.1097 2.65197 52.1322 2.70602C52.2224 2.76007 52.2675 2.65197 52.245 2.54387C52.2675 2.48981 52.1999 2.43576 52.1773 2.43576ZM89.8472 16.3272C89.8246 16.2731 89.8246 16.165 89.8021 16.165C89.7796 16.165 89.7345 16.165 89.7119 16.165C89.6443 16.2731 89.6668 16.3812 89.7796 16.3812C89.7796 16.3812 89.8246 16.3272 89.8472 16.3272ZM18.6554 25.516C18.6554 25.462 18.6554 25.3538 18.6329 25.3538C18.6104 25.2998 18.5653 25.2998 18.5202 25.2998C18.43 25.4079 18.43 25.516 18.5427 25.5701C18.5878 25.5701 18.6329 25.516 18.6554 25.516ZM87.8634 32.6509C87.8408 32.5968 87.8183 32.5428 87.7957 32.4887C87.7281 32.4347 87.6605 32.4887 87.6154 32.6509C87.6154 32.6509 87.6605 32.759 87.683 32.813C87.7507 32.8671 87.8183 32.813 87.8634 32.6509ZM3.19074 50.3259C3.21328 50.2719 3.25837 50.2719 3.28091 50.2178C3.25837 50.1638 3.23583 50.1097 3.19074 50.0557C3.10057 50.0016 3.05548 50.1097 3.07802 50.2178C3.10057 50.2719 3.14565 50.2719 3.19074 50.3259ZM77.9669 88.9732C77.9443 88.9191 77.9218 88.8651 77.8992 88.811C77.8316 88.757 77.764 88.811 77.7414 88.9732C77.7414 88.9732 77.7865 89.0813 77.8091 89.1353C77.8767 89.1894 77.9218 89.1353 77.9669 88.9732ZM94.6264 13.8948L94.5813 14.0029H94.6489L94.6264 13.8948Z" fill="white"/>
<path d="M70.2031 42.8086C71.325 42.8086 72.2344 41.8817 72.2344 40.7383C72.2344 39.5949 71.325 38.668 70.2031 38.668C69.0813 38.668 68.1719 39.5949 68.1719 40.7383C68.1719 41.8817 69.0813 42.8086 70.2031 42.8086Z" fill="#00659E"/>
<path d="M74.875 23.1406H72.2344V21.0703C72.2344 19.9269 71.325 19 70.2031 19C69.0813 19 68.1719 19.9269 68.1719 21.0703V23.1406H58.9297V21.0703C58.9297 19.9269 58.0203 19 56.8984 19C55.7766 19 54.8672 19.9269 54.8672 21.0703V23.1406H45.7266V21.0703C45.7266 19.9269 44.8172 19 43.6953 19C42.5735 19 41.6641 19.9269 41.6641 21.0703V23.1406H39.125C34.6449 23.1406 31 26.8556 31 31.4219V63.7188C31 68.285 34.6449 72 39.125 72H54.6641C55.7859 72 56.6953 71.0731 56.6953 69.9297C56.6953 68.7863 55.7859 67.8594 54.6641 67.8594H39.125C36.8849 67.8594 35.0625 66.0019 35.0625 63.7188V31.4219C35.0625 29.1387 36.8849 27.2812 39.125 27.2812H41.6641V29.3516C41.6641 30.495 42.5735 31.4219 43.6953 31.4219C44.8172 31.4219 45.7266 30.495 45.7266 29.3516V27.2812H54.8672V29.3516C54.8672 30.495 55.7766 31.4219 56.8984 31.4219C58.0203 31.4219 58.9297 30.495 58.9297 29.3516V27.2812H68.1719V29.3516C68.1719 30.495 69.0813 31.4219 70.2031 31.4219C71.325 31.4219 72.2344 30.495 72.2344 29.3516V27.2812H74.875C77.1151 27.2812 78.9375 29.1387 78.9375 31.4219V43.2227C78.9375 44.3661 79.8469 45.293 80.9688 45.293C82.0906 45.293 83 44.3661 83 43.2227V31.4219C83 26.8556 79.3551 23.1406 74.875 23.1406Z" fill="#00659E"/>
<path d="M70.7109 46.9492C63.9347 46.9492 58.4219 52.568 58.4219 59.4746C58.4219 66.3812 63.9347 72 70.7109 72C77.4872 72 83 66.3812 83 59.4746C83 52.568 77.4872 46.9492 70.7109 46.9492ZM70.7109 67.8594C66.1749 67.8594 62.4844 64.098 62.4844 59.4746C62.4844 54.8512 66.1749 51.0898 70.7109 51.0898C75.247 51.0898 78.9375 54.8512 78.9375 59.4746C78.9375 64.098 75.247 67.8594 70.7109 67.8594Z" fill="#00659E"/>
<path d="M73.6563 57.4043H72.7422V55.2305C72.7422 54.087 71.8328 53.1602 70.7109 53.1602C69.5891 53.1602 68.6797 54.087 68.6797 55.2305V59.4746C68.6797 60.618 69.5891 61.5449 70.7109 61.5449H73.6563C74.7781 61.5449 75.6875 60.618 75.6875 59.4746C75.6875 58.3312 74.7781 57.4043 73.6563 57.4043Z" fill="#00659E"/>
<path d="M61.3672 42.8086C62.489 42.8086 63.3984 41.8817 63.3984 40.7383C63.3984 39.5949 62.489 38.668 61.3672 38.668C60.2454 38.668 59.3359 39.5949 59.3359 40.7383C59.3359 41.8817 60.2454 42.8086 61.3672 42.8086Z" fill="#00659E"/>
<path d="M52.5312 51.8145C53.6531 51.8145 54.5625 50.8875 54.5625 49.7441C54.5625 48.6007 53.6531 47.6738 52.5312 47.6738C51.4094 47.6738 50.5 48.6007 50.5 49.7441C50.5 50.8875 51.4094 51.8145 52.5312 51.8145Z" fill="#00659E"/>
<path d="M43.6953 42.8086C44.8171 42.8086 45.7266 41.8817 45.7266 40.7383C45.7266 39.5949 44.8171 38.668 43.6953 38.668C42.5735 38.668 41.6641 39.5949 41.6641 40.7383C41.6641 41.8817 42.5735 42.8086 43.6953 42.8086Z" fill="#00659E"/>
<path d="M43.6953 51.8145C44.8171 51.8145 45.7266 50.8875 45.7266 49.7441C45.7266 48.6007 44.8171 47.6738 43.6953 47.6738C42.5735 47.6738 41.6641 48.6007 41.6641 49.7441C41.6641 50.8875 42.5735 51.8145 43.6953 51.8145Z" fill="#00659E"/>
<path d="M43.6953 60.8203C44.8171 60.8203 45.7266 59.8934 45.7266 58.75C45.7266 57.6066 44.8171 56.6797 43.6953 56.6797C42.5735 56.6797 41.6641 57.6066 41.6641 58.75C41.6641 59.8934 42.5735 60.8203 43.6953 60.8203Z" fill="#00659E"/>
<path d="M52.5312 60.8203C53.6531 60.8203 54.5625 59.8934 54.5625 58.75C54.5625 57.6066 53.6531 56.6797 52.5312 56.6797C51.4094 56.6797 50.5 57.6066 50.5 58.75C50.5 59.8934 51.4094 60.8203 52.5312 60.8203Z" fill="#00659E"/>
<path d="M52.5312 42.8086C53.6531 42.8086 54.5625 41.8817 54.5625 40.7383C54.5625 39.5949 53.6531 38.668 52.5312 38.668C51.4094 38.668 50.5 39.5949 50.5 40.7383C50.5 41.8817 51.4094 42.8086 52.5312 42.8086Z" fill="#00659E"/>
</svg>
