<svg width="120" height="109" viewBox="0 0 120 109" fill="none" xmlns="http://www.w3.org/2000/svg">
<path d="M111.717 44.2601C111.782 44.3661 111.846 44.472 111.932 44.5249C111.996 44.5779 112.082 44.6308 112.146 44.5779C112.361 44.3661 112.597 44.3131 112.832 44.3131C113.111 44.3131 113.368 44.3131 113.647 44.2601C113.926 44.2072 114.183 44.3131 114.462 44.3131C114.655 44.3131 114.848 44.419 115.02 44.6308C115.17 44.7897 115.32 44.7367 115.47 44.5779C115.556 44.5249 115.62 44.5249 115.684 44.5779C115.834 44.7367 115.963 44.8427 116.135 44.8427C116.285 44.8427 116.435 44.8956 116.585 44.9486C116.671 44.9486 116.799 45.3193 116.799 45.5311C116.821 45.9018 116.864 46.2725 116.842 46.6431C116.842 47.2257 116.799 47.7552 116.714 48.3377C116.671 48.6025 116.714 48.9202 116.821 49.0791C116.907 49.238 117.014 49.3968 117.1 49.5557C117.228 49.8205 117.292 50.1382 117.271 50.5618C117.25 50.7207 117.228 50.9325 117.207 51.0914C117.164 51.4091 117.228 51.568 117.378 51.621C117.571 51.621 117.764 51.621 117.957 51.6739C118.022 51.6739 118.107 51.7798 118.172 51.8857C118.322 52.2035 118.45 52.5742 118.558 52.9448C118.601 53.1037 118.643 53.2626 118.643 53.4744C118.665 53.8451 118.665 54.2158 118.686 54.5865C118.686 54.9572 118.643 55.3278 118.558 55.6456C118.493 55.9104 118.429 56.1222 118.365 56.3869C118.3 56.5988 118.322 56.8635 118.45 57.1283C118.536 57.3401 118.622 57.499 118.708 57.7108C118.815 57.9756 118.879 58.3463 118.901 58.717C118.901 59.1936 118.901 59.6702 118.901 60.1468C118.901 61.1529 118.901 61.2059 118.493 61.5236C118.45 61.5766 118.408 61.5766 118.386 61.6295C118.365 61.7355 118.386 61.8943 118.472 62.0002C118.622 62.1591 118.751 62.3709 118.836 62.6886C118.858 62.7416 118.879 62.8475 118.879 62.9534C118.879 63.0593 118.879 63.1652 118.879 63.2182C118.836 63.483 118.793 63.7478 118.751 64.0125C118.793 64.3832 118.944 64.5951 119.029 64.9128C119.072 65.0716 119.072 65.2835 119.029 65.4423C118.944 65.7601 118.815 65.9719 118.665 66.0778C118.579 66.1308 118.558 66.3426 118.579 66.5544C118.708 67.1899 118.686 67.8253 118.558 68.4608C118.536 68.5667 118.515 68.6197 118.515 68.7256C118.45 69.3081 118.472 69.8376 118.579 70.3672C118.622 70.5261 118.665 70.6849 118.708 70.8438C118.836 71.3733 118.858 71.5322 118.515 71.9029C118.343 72.1147 118.15 72.2206 117.979 72.3795C117.936 72.3795 117.914 72.4854 117.893 72.5384C117.871 72.6443 117.936 72.8031 118.022 72.8561C118.172 72.9091 118.322 72.962 118.472 73.0679C118.579 73.1209 118.686 73.2797 118.751 73.5445C118.772 73.5975 118.815 73.7034 118.793 73.8093C118.772 74.3918 118.643 74.8684 118.665 75.4509C118.708 76.0334 118.622 76.6689 118.493 77.2514C118.429 77.4632 118.45 77.8339 118.408 78.0987C118.365 78.3635 118.3 78.5753 118.172 78.6812C118.107 78.7871 118.043 78.893 117.979 78.946C117.871 79.1049 117.85 79.4226 117.957 79.6344C118.129 79.9521 118.193 80.3758 118.086 80.8524C118.043 81.0642 118.043 81.2231 118.086 81.3819C118.129 81.5408 118.129 81.7526 118.107 81.9115C118.064 82.1763 118 82.441 118 82.7058C117.979 83.1824 117.871 83.6061 117.893 84.0827C117.893 84.5063 117.871 84.7711 117.7 84.9829C117.636 85.0359 117.571 85.1947 117.528 85.3536C117.464 85.5125 117.443 85.6713 117.485 85.8302C117.507 85.8832 117.55 85.9361 117.593 85.9361C117.786 85.9361 117.979 85.9361 118.172 85.9891C118.3 85.9891 118.386 86.3068 118.365 86.5186C118.3 87.1541 118.193 87.7895 117.957 88.1602C117.893 88.2661 117.871 88.425 117.829 88.5839C117.807 88.6368 117.807 88.7427 117.786 88.8487L117.764 88.8487C117.528 88.9546 117.314 89.1134 117.164 89.59C117.1 89.8019 117.078 90.1725 117.142 90.3844C117.25 90.808 117.421 91.0198 117.55 91.3905C117.614 91.6023 117.678 91.8671 117.743 92.0789C117.764 92.1319 117.764 92.2378 117.764 92.3437C117.807 92.8203 117.657 93.3499 117.485 93.4028C117.292 93.4558 117.1 93.5087 116.907 93.5617C116.821 93.5617 116.756 93.6676 116.692 93.7206C116.606 93.7735 116.499 94.1972 116.542 94.356C116.606 94.4619 116.671 94.5149 116.756 94.409C116.821 94.356 116.907 94.2501 116.971 94.1972C117.035 94.1442 117.142 94.1442 117.185 94.1972C117.443 94.5149 117.7 94.6208 117.957 94.6738C118 94.6738 118.022 94.7797 118.043 94.8326C118.064 94.9385 118.022 95.0974 117.936 95.1504C117.678 95.2563 117.4 95.3092 117.164 95.627C117.035 95.8388 116.864 95.7858 116.714 95.8388C116.563 95.8917 116.413 95.8388 116.263 95.9976C116.177 96.0506 116.027 96.4213 116.027 96.5802C116.027 96.739 116.07 96.8979 116.135 97.0568C116.199 97.1627 116.263 97.3215 116.328 97.3215C116.435 97.3745 116.563 97.4274 116.671 97.4274C117.1 97.4804 117.507 97.4804 117.936 97.5334C117.979 97.5334 118.022 97.5863 118.043 97.6393C118.086 97.7452 118.064 97.904 118 98.0629C117.871 98.2747 117.743 98.4866 117.636 98.7513C117.485 99.0691 117.314 99.2279 117.121 99.2809C117.014 99.3338 116.885 99.3868 116.778 99.4398C116.714 99.4927 116.649 99.6516 116.628 99.8104C116.478 99.7575 116.328 99.8634 116.199 100.022C116.092 100.128 115.984 100.075 115.877 100.022C115.577 99.8104 115.277 99.7575 114.998 99.9693C114.977 99.9693 114.934 100.075 114.934 100.128C114.934 100.234 114.934 100.34 114.955 100.393C114.998 100.499 115.062 100.658 115.127 100.711C115.534 100.975 115.942 100.975 116.349 100.817C116.413 100.817 116.499 100.711 116.542 100.552C116.585 100.446 116.585 100.234 116.606 100.022C116.606 99.9164 116.606 99.8104 116.606 99.7575C116.671 99.8104 116.735 99.9164 116.778 100.075C116.821 100.34 116.885 100.552 116.928 100.817C116.992 101.187 116.992 101.346 116.928 101.558C116.821 101.823 116.714 102.088 116.606 102.299C116.521 102.458 116.413 102.617 116.306 102.617C116.113 102.617 115.942 102.67 115.749 102.67C115.556 102.67 115.384 102.564 115.213 102.299C115.148 102.193 115.084 102.14 114.998 102.088C114.977 102.035 114.977 101.929 114.955 101.876C114.934 101.823 114.912 101.823 114.891 101.823C114.891 101.929 114.934 102.035 115.02 102.035C114.998 102.511 115.062 102.935 115.191 103.358C115.363 103.888 115.577 104.312 115.856 104.365C115.92 104.365 116.006 104.471 116.07 104.523C116.135 104.629 116.199 104.735 116.242 104.894C116.285 105.053 116.263 105.265 116.177 105.318C115.963 105.53 115.749 105.689 115.534 105.847C115.47 105.9 115.384 105.953 115.32 105.953C115.084 106.059 114.848 106.006 114.634 106.218C114.462 106.377 114.29 106.589 114.097 106.642C113.926 106.695 113.947 106.748 114.097 107.118C114.226 107.436 114.248 107.489 114.162 107.807C114.14 107.913 114.119 107.966 114.119 108.071C114.012 108.707 113.84 108.972 113.454 108.813C113.347 108.76 113.24 108.548 113.283 108.23C113.326 107.86 113.154 107.489 113.304 107.171C113.368 107.065 113.433 106.959 113.433 106.748C113.433 106.748 113.368 106.695 113.347 106.642C113.197 106.589 113.047 106.589 112.897 106.536C112.789 106.536 112.661 106.536 112.554 106.642C112.339 106.906 112.125 107.065 111.889 107.012C111.739 107.012 111.589 107.012 111.417 107.065C111.353 107.065 111.246 107.118 111.203 107.224C111.16 107.33 111.16 107.542 111.16 107.754C111.16 107.966 111.117 108.071 111.01 108.124C110.817 108.124 110.624 108.124 110.431 108.177C110.302 108.177 110.195 108.071 110.088 107.966C110.002 107.86 109.938 107.86 109.873 107.966C109.616 108.23 109.337 108.23 109.08 108.23C108.994 108.23 108.908 108.23 108.865 108.124C108.501 107.542 108.051 107.648 107.643 107.277C107.45 107.224 107.257 107.224 107.064 107.171C106.957 107.118 106.828 107.065 106.743 106.906C106.635 106.748 106.55 106.589 106.507 106.324C106.55 106.165 106.592 106.059 106.657 105.9C106.678 105.847 106.721 105.794 106.743 105.688C106.828 105.424 106.807 105.106 106.7 105C106.421 104.788 106.164 104.788 105.949 105.265C105.735 105.741 105.542 106.006 105.327 106.218C105.263 106.271 105.177 106.377 105.113 106.324C104.899 106.165 104.727 106.377 104.555 106.536C104.47 106.589 104.405 106.642 104.32 106.536C104.105 106.271 103.869 106.271 103.655 106.536C103.312 106.589 102.969 106.642 102.626 106.324C102.475 106.165 102.325 106.165 102.175 106.165C101.939 106.112 101.725 106.006 101.511 105.794C101.403 105.688 101.296 105.636 101.189 105.53C101.039 105.424 100.889 105.424 100.739 105.318C100.481 105.106 100.224 105 99.9452 105C99.5592 105 99.1733 104.947 98.7873 104.947C98.5085 104.947 98.2512 104.894 97.9725 104.894C97.7366 104.894 97.5222 104.788 97.2863 104.629C96.9861 104.418 96.6859 104.365 96.3857 104.735C96.2785 104.841 96.1712 104.841 96.0426 104.788C95.9354 104.682 95.8282 104.682 95.6995 104.788C95.2492 105.212 94.7989 105.106 94.3486 104.682C94.1985 104.523 94.0484 104.523 93.8983 104.682C93.5981 105.053 93.2979 105.053 92.9977 104.735C92.8476 104.576 92.7189 104.471 92.5474 104.471C92.2472 104.471 91.9256 104.471 91.6254 104.523C90.9392 104.629 90.2316 104.471 89.5454 104.365C89.4596 104.365 89.3953 104.312 89.331 104.259C89.1809 104.153 89.0308 104.206 88.8807 104.312C88.5805 104.471 88.2803 104.418 87.9801 104.1C87.83 103.941 87.6799 103.888 87.5298 103.941C87.2939 103.994 87.0795 103.941 86.865 103.623C86.7578 103.464 86.6506 103.464 86.5434 103.623C86.3075 103.941 86.0288 104.047 85.7715 103.994C85.5785 103.941 85.3855 103.888 85.1925 103.888C85.0638 103.888 84.9566 103.782 84.8709 103.676C84.7208 103.517 84.5921 103.411 84.4206 103.464C84.1632 103.517 83.8845 103.464 83.6272 103.729C83.52 103.835 83.4127 103.782 83.3055 103.623C83.1983 103.517 83.0911 103.358 82.9839 103.358C82.5979 103.411 82.2119 103.411 81.826 103.464C81.7616 103.464 81.6759 103.57 81.6115 103.623C81.3113 103.888 81.0111 103.888 80.7109 103.676C80.6895 103.676 80.668 103.57 80.668 103.517C80.6895 103.464 80.7109 103.358 80.7538 103.358C81.054 103.358 81.247 102.882 81.4614 102.511C81.5258 102.405 81.5901 102.405 81.6759 102.458C81.826 102.617 81.9761 102.617 82.1262 102.458C82.2977 102.246 82.4907 102.14 82.6837 102.193C83.1125 102.246 83.5414 102.246 83.9488 102.14C84.0131 102.14 84.0989 102.035 84.1632 101.929C84.2276 101.823 84.2705 101.664 84.2919 101.505C84.3133 101.346 84.2705 101.187 84.1847 101.081C83.9702 100.817 83.7773 100.499 83.5414 100.499C83.1983 100.499 82.9624 100.075 82.7909 99.3338C82.7266 99.0161 82.6622 99.0161 82.5121 99.122C82.3191 99.2279 82.1262 99.3338 81.9546 99.4927C81.8045 99.6516 81.6544 99.6516 81.5043 99.4927C81.44 99.4398 81.3542 99.3868 81.2899 99.3868C81.054 99.3338 80.8181 99.3868 80.6466 99.8104C80.5823 99.9164 80.5394 100.075 80.4751 100.181C80.3035 100.446 80.132 100.552 79.939 100.393C79.8747 100.34 79.7889 100.234 79.7246 100.181C79.6173 100.075 79.4887 100.075 79.3815 100.181C79.2743 100.287 79.167 100.234 79.0384 100.128C78.8454 99.9693 78.6524 99.9163 78.4594 100.022C78.3522 100.075 78.245 100.234 78.1807 100.446C78.0735 100.817 77.9448 100.817 77.8161 100.446C77.7518 100.234 77.6875 99.9693 77.6232 99.7575C77.5374 99.4927 77.4302 99.4927 77.323 99.7045C77.2586 99.8104 77.2157 100.022 77.1729 100.128C77.0871 100.34 76.9799 100.446 76.8512 100.446C76.6582 100.499 76.4652 100.552 76.2723 100.34C75.9506 100.022 75.5861 99.9693 75.3073 99.4927C75.2001 99.3338 75.0929 99.3868 74.9857 99.5457C74.7713 99.8634 74.5568 99.9163 74.321 99.7045C74.128 99.4927 73.9564 99.4397 73.7634 99.6516C73.549 99.8634 73.3131 99.9693 73.0987 100.022C72.8628 100.075 72.6699 100.393 72.434 100.446C72.2624 100.446 72.1338 100.711 72.048 101.028C71.8121 101.823 71.4476 102.246 71.0831 102.564C71.0188 102.617 70.9115 102.617 70.8687 102.564C70.5899 102.193 70.2683 102.193 69.9681 102.193C69.8394 102.193 69.6679 101.876 69.6464 101.505C69.625 101.346 69.6035 101.134 69.6035 100.923C69.6035 100.393 69.5392 100.022 69.3033 99.9163C69.1103 99.8634 68.9388 99.6516 68.7673 99.3868C68.7029 99.2809 68.6172 99.175 68.6172 99.0161C68.6172 98.8572 68.7244 98.8043 68.8101 98.7513C68.9173 98.6984 69.046 98.6454 69.1532 98.5925C69.1961 98.5925 69.2175 98.4866 69.239 98.4336C69.2175 98.3806 69.1961 98.3277 69.1532 98.2747C69.046 98.1688 68.9173 98.2218 68.8101 98.2218C68.66 98.2218 68.5099 98.2218 68.3598 98.01C68.2526 97.8511 68.2312 97.5334 68.1454 97.3745C68.0596 97.1627 67.9524 97.1097 67.8452 97.2686C67.7809 97.3745 67.7165 97.4804 67.6737 97.6393C67.6308 97.7981 67.5879 97.957 67.545 98.1159C67.5021 98.3277 67.4378 98.4336 67.3949 98.3277C67.3735 98.2747 67.352 98.1688 67.3306 98.1159C67.3091 97.957 67.2877 97.7452 67.2662 97.5863C67.2019 97.2156 66.9232 97.0568 66.7731 97.3215C66.6658 97.4804 66.623 97.7452 66.5372 97.957C66.4729 98.1159 66.4085 98.1688 66.3442 98.2218C66.1083 98.3277 65.8939 98.3277 65.6795 98.01C65.6366 97.957 65.6151 97.904 65.5723 97.8511C65.3578 97.6393 65.1648 97.6922 65.0576 98.1688C64.9504 98.6984 64.8003 99.122 64.5859 99.3868C64.5216 99.4927 64.4358 99.5986 64.4358 99.7575C64.4358 99.9163 64.543 99.9693 64.6073 100.022C64.7145 100.075 64.8432 100.075 64.9504 100.128C65.0576 100.181 65.1648 100.34 65.2077 100.605L65.2292 100.552C65.122 100.658 65.0147 100.764 64.9075 100.923C64.8432 101.028 64.7574 101.028 64.6931 100.975C64.5216 100.817 64.35 100.605 64.1356 100.605C63.9855 100.605 63.8354 100.605 63.6638 100.552C63.5781 100.552 63.5137 100.446 63.4923 100.34C63.4923 100.287 63.5137 100.128 63.5352 100.075C63.6638 99.8634 63.7711 99.5986 63.8139 99.2279C63.8354 99.122 63.8354 99.0691 63.8568 98.9631C63.9212 98.7513 63.9212 98.5925 63.8354 98.4866C63.8139 98.4336 63.7711 98.4336 63.7282 98.4336C63.428 98.6984 63.1492 98.8572 62.8276 98.8043C62.6346 98.7513 62.4416 98.8043 62.2486 98.8572C62.0556 98.9102 61.8626 98.9631 61.6911 99.175C61.541 99.3868 61.3909 99.2809 61.2622 99.122C61.2194 99.0691 61.1979 99.0161 61.155 99.0161C60.962 98.8572 60.8334 98.5925 60.7262 98.1159C60.6618 97.8511 60.5546 97.7981 60.426 97.7452C60.3402 97.7452 60.2544 97.7452 60.2115 97.904C60.1901 98.0629 60.2544 98.2218 60.3402 98.3277C60.426 98.4336 60.4474 98.6454 60.3831 98.7513C60.1901 99.0691 60.0186 99.4397 59.847 99.8104C59.654 100.234 59.3753 100.128 59.2037 99.8104C58.9893 99.3868 58.7749 98.9631 58.6891 98.2747C58.9035 98.2747 59.1394 98.2747 59.3538 98.2747C59.4396 98.2747 59.4825 98.1159 59.4825 98.01C59.4825 97.957 59.4396 97.8511 59.3967 97.8511C59.3324 97.7981 59.2466 97.7981 59.1823 97.7981C58.9893 97.7452 58.8178 97.957 58.732 98.3806C58.3889 98.3806 58.0458 98.4336 57.6813 98.3806C57.4454 98.3806 57.2095 98.3277 56.9951 98.2747C56.8236 98.2218 56.8236 98.1688 56.7592 97.5334C56.7592 97.4804 56.7164 97.3745 56.6949 97.3215C56.5234 97.0568 56.1803 97.1627 56.0516 97.4804C56.0302 97.5334 55.9873 97.5863 55.9659 97.6922C55.8586 98.1688 55.6871 98.2747 55.4727 98.3277C55.3226 98.3806 55.1725 98.3806 55.0224 98.4336C54.9795 98.4336 54.9366 98.5395 54.9366 98.5925C54.9366 98.7513 54.9795 98.8572 55.0653 98.9102C55.2582 99.0161 55.4512 98.9102 55.6013 99.2809C55.6228 99.3338 55.6442 99.4927 55.6228 99.5457C55.6228 99.5986 55.5584 99.7575 55.537 99.7575C55.2797 99.5986 55.0224 99.4927 54.7651 99.4927C54.5077 99.4927 54.5077 99.4397 54.4005 98.7513C54.4005 98.6984 54.3576 98.5925 54.3362 98.5925C53.8001 98.4865 53.2641 98.4865 52.728 98.3806C52.6422 98.3806 52.5779 98.2218 52.5564 98.1159C52.5136 97.904 52.6636 97.5334 52.7494 97.5334C52.7923 97.5334 52.8352 97.5334 52.8566 97.5334C52.921 97.5863 53.0067 97.6922 53.0711 97.6922C53.1354 97.7452 53.2212 97.7452 53.3069 97.6922C53.4356 97.6922 53.4999 97.4274 53.5643 97.1627C53.6071 96.8979 53.5857 96.6331 53.4999 96.4213C53.4785 96.3683 53.4356 96.2624 53.4141 96.2624C53.3069 96.2095 53.1783 96.2095 53.0711 96.2095C52.7494 96.1036 52.4707 96.3683 52.2348 96.9508C52.1705 97.1097 52.0847 97.0568 52.0204 96.9508C51.9346 96.739 51.8488 96.5802 51.7631 96.3683C51.6987 96.2624 51.6558 96.1036 51.5915 95.9976C51.4628 95.7858 51.2913 95.8388 51.1841 96.1565C51.1198 96.3683 51.0554 96.6331 50.9911 96.8449C50.9911 96.8449 50.9268 96.8449 50.9268 96.792C50.8624 96.2624 50.841 95.6799 50.9053 95.0974C50.9482 94.6738 50.8625 94.4619 50.6695 94.4619C50.5837 94.4619 50.5194 94.4619 50.4336 94.5149C50.3049 94.5678 50.2192 94.7267 50.1763 95.0444C50.1334 95.3092 50.1334 95.574 50.0905 95.8388C50.0691 95.9976 50.0047 96.2095 49.9618 96.3154C49.7474 96.6861 49.5116 97.0568 49.2971 97.4274C49.1041 97.7981 48.8683 97.8511 48.6324 97.7981C48.4823 97.7452 48.3322 97.5863 48.1821 97.5334C48.0749 97.4804 47.9677 97.6393 47.839 97.5334C47.5388 97.2686 47.2386 97.3215 46.9598 97.7452C46.8955 97.8511 46.8097 97.957 46.8097 98.1159C46.8312 98.2747 46.917 98.3277 47.0027 98.3277C47.1099 98.3277 47.2386 98.3806 47.3458 98.3806C47.3673 98.3806 47.4101 98.4865 47.4316 98.5395C47.453 98.6454 47.4101 98.8043 47.3029 98.8043C47.0242 98.8043 46.7669 98.8043 46.4881 98.8043C46.3809 98.8043 46.2951 98.5395 46.3594 98.2218C46.4238 97.7981 46.3809 97.4804 46.2308 97.2686C46.1665 97.1627 46.0807 97.0568 46.1021 96.8449C46.1021 96.6861 46.1879 96.5802 46.2737 96.5802C46.5739 96.5272 46.8955 96.5272 47.1957 96.5272C47.26 96.5272 47.3458 96.4742 47.4101 96.4213C47.4959 96.3683 47.5388 96.2095 47.5174 95.9976C47.5174 95.8917 47.4745 95.7858 47.453 95.7858C47.3029 95.8388 47.1528 95.7858 47.0027 95.627C46.8955 95.521 46.7883 95.521 46.6596 95.574C46.5524 95.6799 46.4452 95.7858 46.338 95.8917C46.2737 95.9447 46.1665 95.9976 46.1236 95.9447C45.759 95.574 45.3731 95.521 44.9871 95.521C44.7512 95.521 44.5154 95.574 44.3009 95.627C44.2366 95.627 44.1508 95.7858 44.1079 95.8917C43.9793 96.1565 43.915 96.4742 43.8292 96.792C43.722 97.2156 43.4647 97.3215 43.3146 97.0568C43.1859 96.8449 43.0787 96.5802 42.95 96.3683C42.8428 96.2095 42.7356 96.1565 42.6284 96.2624C42.414 96.5272 42.1995 96.6331 41.9637 96.6331C41.6635 96.5802 41.3418 96.5802 41.0416 96.6331C40.5484 96.6861 40.0338 96.6861 39.5406 96.6331C39.2618 96.5802 39.0045 96.6331 38.7472 96.9508C38.6829 97.0038 38.5971 96.9508 38.5328 96.8979C38.4256 96.792 38.2969 96.792 38.1897 96.8979C38.0825 96.9508 37.9753 97.0038 37.8466 96.9508C37.6965 96.8449 37.5464 96.8449 37.3963 97.0038C37.2462 97.1627 37.0961 97.2156 36.946 97.2686L36.9675 97.3215C36.9031 96.8979 36.753 96.792 36.5815 96.8449C36.4957 96.8449 36.4314 96.8979 36.3456 96.9508C35.9382 97.4274 35.5093 97.2686 35.1019 97.2156C35.0376 97.2156 34.9518 97.1097 34.8875 97.0568C34.6945 96.8449 34.523 96.8979 34.33 97.1097C34.1584 97.3215 33.944 97.2686 33.7725 97.3745C33.6438 97.4274 33.558 97.5863 33.4937 97.7981C33.3222 98.5395 33.0649 98.4865 32.7861 98.3806C32.7432 98.3806 32.7218 98.3277 32.6789 98.2747C32.6146 98.2218 32.5288 98.1159 32.4645 98.0099C32.3144 97.8511 32.1643 97.8511 32.0142 97.8511C31.8641 97.904 31.714 97.957 31.5639 98.1159C31.4566 98.2218 31.3494 98.2218 31.2208 98.1159C30.9635 97.8511 30.6847 97.8511 30.4274 98.1159C30.2558 98.3277 30.0629 98.3806 29.8699 98.3806C29.5482 98.3806 29.2695 98.5925 29.055 99.2279C29.0122 99.3868 28.9264 99.4927 28.8621 99.4927C28.4761 99.4927 28.0901 99.5457 27.7041 99.4397C27.5969 99.3868 27.4897 99.2279 27.3825 99.175C27.2753 99.122 27.1466 99.2279 27.0394 99.2279C26.632 98.8043 26.2031 98.9102 25.7743 98.9631C25.6671 98.9631 25.5384 99.0691 25.4312 99.175C25.324 99.2809 25.2168 99.2809 25.0881 99.175C24.9809 99.0691 24.8522 99.0691 24.745 99.175C24.5949 99.3338 24.4448 99.2279 24.2947 99.122C24.0374 98.9102 23.7586 98.9102 23.5013 99.175C23.244 99.4397 22.9653 99.5457 22.7079 99.2809C22.4077 99.0161 22.1075 98.9631 21.8073 98.9102C21.4214 98.8572 21.0354 98.8572 20.6494 98.8572C20.3278 98.9102 20.049 98.6984 19.7703 98.2747C19.6845 98.1688 19.6631 98.0099 19.7059 97.7981C19.7488 97.6393 19.8132 97.5333 19.8775 97.4804C19.9418 97.4274 20.0276 97.4804 20.0919 97.5863C20.242 97.7452 20.3921 97.7981 20.5422 97.6393C20.7352 97.4274 20.9067 97.4274 21.0997 97.6393C21.1641 97.6922 21.2498 97.7452 21.3142 97.7452C21.7859 97.7981 23.2655 97.7452 23.9731 97.5863C23.9945 97.5863 24.016 97.4804 24.0588 97.4804C24.0374 97.4274 24.016 97.3215 23.9731 97.2686C23.7801 97.1627 23.5871 97.1097 23.4156 96.8449C23.3298 96.6861 23.2011 96.6331 23.0939 96.5801C22.9438 96.4742 22.7937 96.4742 22.6436 96.3683C22.4292 96.2095 22.1933 96.1036 21.9575 96.1036C21.4643 96.0506 20.9496 95.9976 20.4564 95.9976C20.1777 95.9976 19.9204 95.8917 19.6631 95.627C19.4915 95.4151 19.2771 95.4681 19.1055 95.4151C19.0627 95.4151 19.0198 95.3092 19.0198 95.2563C18.9983 95.0974 19.0627 94.9915 19.1484 94.9385C19.2128 94.8856 19.2985 94.8856 19.3629 94.7797C19.4486 94.6738 19.4701 94.5149 19.4701 94.356C19.4701 94.1442 19.4272 93.9853 19.3414 93.9324C19.1484 93.7735 18.9554 93.8265 18.7625 93.7735C18.6981 93.7735 18.6124 93.6676 18.548 93.5617C18.4837 93.4558 18.4194 93.2969 18.4623 93.0851C18.4837 92.8733 18.5695 92.7674 18.6552 92.8203C18.8053 92.9262 18.9554 93.0851 19.1055 93.138C19.3414 93.191 19.5773 93.191 19.7917 93.191C19.856 93.191 19.9418 93.138 20.0061 93.0851C20.049 93.0851 20.0919 92.9792 20.0919 92.9262C20.0919 92.8203 20.0705 92.7144 20.0276 92.6614C19.7488 92.2908 19.4701 91.973 19.1484 91.973C18.8482 91.973 18.548 91.8671 18.2478 91.6023C17.9905 91.3905 17.7118 91.3905 17.4544 91.2846C17.4116 91.2846 17.3687 91.1787 17.3687 91.1257C17.3472 90.9139 17.3901 90.755 17.4544 90.6491C17.5188 90.5432 17.5831 90.4373 17.6474 90.3844C17.8404 90.2784 18.0334 90.2255 18.2264 90.4373C18.5266 90.7021 18.8268 90.755 19.127 90.755C19.856 90.755 20.5851 90.808 21.3356 90.755C21.8717 90.755 22.4077 90.755 22.9653 90.7021C23.051 90.7021 23.1154 90.5432 23.0725 90.4373C23.051 90.3844 23.0081 90.2784 22.9867 90.2784C22.7937 90.2255 22.6007 90.2255 22.4077 90.2255C22.2576 90.2255 22.1076 90.1725 21.9575 90.0137C21.7859 89.8018 21.5929 89.7489 21.3999 89.7489C20.9711 89.6959 20.5422 89.6959 20.1348 89.643C19.9847 89.643 19.8132 89.59 19.6845 89.4312C19.4272 89.1134 19.1699 89.0075 18.8911 89.0605C18.6124 89.1134 18.355 89.0605 18.0977 88.7427C18.0334 88.6368 17.9476 88.6368 17.8833 88.5839C17.7332 88.5309 17.5831 88.5309 17.4116 88.5309C17.1757 88.5309 16.9613 88.425 16.7254 88.2132C16.6182 88.1073 16.511 88.0543 16.3823 88.0543C16.1464 88.0014 15.9106 87.9484 15.6961 87.9484C15.5031 87.9484 15.3102 87.8425 15.1386 87.6836C14.9885 87.5248 14.8384 87.5248 14.6883 87.5248C14.1522 87.4718 13.6162 87.3659 13.0801 87.3129C12.8442 87.3129 12.6298 87.1011 12.4154 86.8363C12.351 86.7304 12.2867 86.6245 12.2867 86.4657C12.2867 86.4127 12.351 86.3597 12.3725 86.3068C12.5655 86.2538 12.7585 86.2009 12.9514 86.2009C13.4232 86.2538 13.8735 86.3068 14.3452 86.2538C14.5382 86.2538 14.7312 86.3068 14.9242 86.3068C15.1172 86.3068 15.3102 86.4127 15.4817 86.5716C15.5889 86.6775 15.6961 86.7304 15.8248 86.7304C16.1035 86.7834 16.3609 86.7834 16.6396 86.7834C16.7897 86.7834 16.8755 86.6775 17.0041 86.2009C17.0685 85.9891 17.1328 85.7243 17.2615 85.6184C17.2829 85.7772 17.3258 85.9361 17.3901 86.042C17.4116 86.095 17.4544 86.095 17.4759 86.095C17.4973 86.095 17.5402 86.042 17.5617 85.9891C17.5831 85.8831 17.5402 85.7772 17.4544 85.7243C17.3901 85.7243 17.3258 85.6713 17.24 85.6713C17.2186 85.4595 17.2186 85.3006 17.1971 85.0888C17.1757 84.877 17.1328 84.7181 17.047 84.6652C16.7468 84.4004 16.4466 84.4533 16.1679 83.9767C15.9749 83.8708 15.7819 83.9767 15.6104 84.1356C15.5031 84.2415 15.3959 84.1356 15.3102 83.8179C15.2458 83.6061 15.2673 83.4472 15.3316 83.3413C15.3959 83.2354 15.4817 83.1824 15.546 83.1824C16.0821 83.1824 16.6182 83.1824 17.1542 83.1824C17.2615 83.1824 17.3043 83.0235 17.2829 82.9176C17.2615 82.8647 17.2186 82.8117 17.1757 82.8117C17.0256 82.7588 16.8755 82.7588 16.7039 82.7588C16.3609 82.7058 16.0178 82.7058 15.6747 82.5999C15.5246 82.5469 15.3745 82.3881 15.2673 82.0703C15.2458 82.0174 15.2244 81.9115 15.2029 81.8056C15.2029 81.7526 15.2244 81.6467 15.2458 81.5408C15.3316 81.2231 15.4817 81.0112 15.6318 80.9583C16.0178 80.9053 16.4037 80.8524 16.7897 80.9053C17.2186 80.9053 17.6474 80.9053 18.0548 80.8524C18.1621 80.8524 18.2049 80.6935 18.1835 80.5876C18.1621 80.5346 18.1192 80.4287 18.0977 80.4287C17.9476 80.3758 17.7975 80.3228 17.6474 80.2699C17.3258 79.8462 16.9827 79.7933 16.6396 79.7403C16.5324 79.7403 16.4037 79.7403 16.2965 79.6344C15.8248 79.1578 15.3102 79.2637 14.817 79.1048C14.7312 79.1048 14.6669 79.0519 14.6025 78.946C14.5382 78.893 14.4739 78.7871 14.4096 78.6282C14.3452 78.4694 14.3238 78.3105 14.3667 78.1516C14.3881 78.0987 14.431 77.9928 14.4524 77.9928C14.5597 77.9398 14.6883 77.9398 14.7955 77.9398C14.8813 77.9398 14.9456 77.8869 15.01 77.728C15.0528 77.6221 14.9456 77.1455 14.8599 77.0396C14.7955 76.9866 14.7098 76.8807 14.6454 76.8278C14.5382 76.7748 14.4096 76.7748 14.3023 76.7218C14.2166 76.7218 14.1308 76.6159 14.1308 76.4571C14.1094 76.2982 14.1737 76.0864 14.238 75.9805C14.3023 75.8746 14.3667 75.7686 14.431 75.7157C14.5382 75.6627 14.6669 75.6627 14.7741 75.6098C14.9242 75.6098 15.0743 75.4509 15.2029 75.1861C15.2887 75.0273 15.3745 74.8154 15.4817 74.7095C15.546 74.6036 15.6318 74.5507 15.6961 74.5507C15.9749 74.4977 16.2322 74.4977 16.511 74.4977C16.6611 74.4977 16.8112 74.3918 16.9613 74.18C17.0256 74.0741 17.0899 73.9152 17.0899 73.7563C17.1114 73.5975 17.047 73.4916 16.9613 73.4386C16.8755 73.3856 16.8112 73.3856 16.7254 73.3856C16.6182 73.3327 16.4895 73.3327 16.3823 73.2797C16.1679 73.1738 15.932 72.962 15.7176 72.8561C15.5246 72.7502 15.3316 72.7502 15.1386 72.6443C15.0528 72.5913 15.01 72.4324 15.0314 72.2206C15.0528 72.0088 15.0314 71.8499 14.9456 71.744C14.7955 71.6381 14.6454 71.5322 14.4953 71.4263C14.3452 71.2674 14.1951 71.2145 14.045 71.1615C13.7663 71.1086 13.509 71.0556 13.2302 71.0027C13.0158 70.9497 12.93 70.8438 12.9729 70.7379C13.0158 70.579 13.0801 70.5261 13.1659 70.4731C13.3803 70.3672 13.3803 70.3672 13.3803 69.9965C13.3803 69.5729 13.4232 69.414 13.5304 69.414C14.0021 69.414 14.4524 69.361 14.9242 69.361C15.4174 69.361 15.932 69.361 16.4252 69.3081C16.5324 69.3081 16.6396 69.2022 16.7468 68.9903C16.8112 68.8315 16.854 68.6726 16.8326 68.5137C16.8326 68.4608 16.7897 68.3549 16.7468 68.3549C16.6396 68.249 16.511 68.249 16.4252 68.0901C16.1893 67.7724 15.9106 67.6665 15.6532 67.5605C15.6104 67.5605 15.5889 67.5076 15.546 67.4546C15.5031 67.3487 15.546 67.1899 15.6532 67.1899C16.1464 67.1369 16.6611 67.0839 17.1542 66.978C17.2615 66.978 17.3043 66.8721 17.2615 66.7133C17.24 66.6603 17.2186 66.5544 17.1971 66.5014C16.9827 66.2367 16.7683 66.0248 16.5324 66.0248C16.0607 65.9719 15.6104 65.9189 15.1386 65.866C15.0314 65.866 14.9027 65.866 14.7955 65.7601C14.5382 65.4953 14.2809 65.3894 14.0021 65.3894C13.8092 65.3894 13.6162 65.2305 13.4446 65.0187C13.1873 64.7539 12.9086 64.8069 12.6512 64.7009C12.5655 64.648 12.5011 64.595 12.5011 64.4362C12.5011 64.3832 12.544 64.2773 12.5655 64.2243C12.8013 63.9066 13.0372 63.6418 13.3374 63.6418C14.0665 63.6418 14.7955 63.5889 15.5246 63.5359C15.6318 63.5359 15.7819 63.5889 15.8677 63.3771C15.9534 63.1652 15.8891 62.8475 15.8891 62.5827C15.8891 62.0532 15.8891 62.0002 15.7605 61.9473C15.6532 61.8943 15.5246 61.8943 15.4174 61.8943C15.3316 61.8943 15.2673 61.8414 15.1815 61.8414C15.1172 61.7884 15.0314 61.7884 14.9671 61.6825C14.7312 61.2588 14.4524 61.3118 14.1951 61.2588C14.0879 61.2059 14.045 61.1 14.0879 60.8882C14.1308 60.4116 13.9593 60.3056 13.852 60.0409C13.7663 59.829 13.7663 59.4584 13.8735 59.2995C13.9164 59.2465 13.9378 59.1936 13.9807 59.1406C14.1737 59.0877 14.3667 59.0347 14.5597 58.9818C14.7955 58.9288 14.9027 58.6111 14.8813 58.0286C14.8599 57.7108 14.7741 57.552 14.6669 57.6049C14.6025 57.6579 14.5168 57.7108 14.4524 57.7638C14.2809 57.8697 14.1522 57.7108 14.0236 57.446C13.9593 57.3401 13.9164 57.1813 13.8735 57.0224C13.8092 56.9165 13.7234 56.8635 13.6591 56.9165C13.3803 57.2342 13.0801 57.3401 12.7585 57.2872C12.4582 57.2342 12.1366 57.2872 11.8364 57.2342C11.7292 57.2342 11.6005 57.1813 11.4933 57.0754C11.3861 56.9695 11.2789 56.9695 11.1502 57.0224C11.043 57.0754 10.9358 57.1283 10.8072 57.1813C10.7214 57.2342 10.6571 57.1283 10.5927 56.9695C10.507 56.7576 10.5284 56.4928 10.5498 56.1751C10.5927 55.8044 10.5713 55.6456 10.4641 55.4867C10.2925 55.2749 10.121 55.0101 9.928 55.0101C9.58491 54.9571 9.24182 54.9042 8.89873 54.9042C8.61998 54.9042 8.36266 54.8512 8.10534 54.5865C7.91236 54.4276 7.71938 54.4276 7.52639 54.4276C6.45425 54.3746 5.36066 54.3217 4.28852 54.2158C4.1813 54.2158 4.13842 54.0569 4.11697 53.6333C4.11697 53.4214 4.09554 53.2626 3.98832 53.2096C3.60235 53.0507 3.21637 53.2096 2.8304 53.0507C2.72319 52.9978 2.61596 52.8389 2.53019 52.6271C2.50876 52.5741 2.46587 52.4682 2.46587 52.4153C2.48731 52.2035 2.57308 52.0975 2.63741 52.1505C2.85184 52.3623 3.00194 52.2564 3.10916 51.7798C3.15204 51.6209 3.23781 51.568 3.32358 51.568C3.36647 51.568 3.40936 51.568 3.4308 51.6209C3.66667 51.9916 3.94544 52.0446 4.20275 51.9387C4.20275 52.0446 4.22419 52.0975 4.24563 52.2035C4.26707 52.2564 4.28852 52.2564 4.3314 52.2564C4.3314 52.0975 4.28853 52.0446 4.20275 51.9916C4.30996 51.4621 4.46007 51.0384 4.69594 50.8266C4.97469 50.5089 5.25345 50.1911 5.57509 50.1911C5.76807 50.1911 5.96106 50.0323 6.13261 49.8734C6.34704 49.6616 6.5829 49.7675 6.81877 49.6086C6.8831 49.5557 6.94743 49.4498 7.01176 49.3439C7.07609 49.238 7.09753 49.0261 7.07609 48.8673C7.07609 48.8143 7.01176 48.7614 6.96888 48.7614C6.2827 48.6554 5.57509 48.6554 4.88891 48.6025C4.24563 48.5495 3.58091 48.6554 2.91618 48.6554C2.53021 48.6554 2.14423 48.6554 1.75826 48.4966C1.71538 48.4966 1.67248 48.4436 1.65104 48.4436C1.56527 48.3377 1.52239 48.2318 1.52239 48.02C1.52239 47.8082 1.54383 47.6493 1.65104 47.5963C1.75826 47.5434 1.86547 47.4904 1.99412 47.4904C2.72318 47.4375 3.45225 47.3845 4.1813 47.2786C4.22419 47.2786 4.28852 47.1727 4.28852 47.1727C4.28852 47.0668 4.22419 46.9609 4.13841 46.9609C4.09553 46.9609 4.05264 46.9609 4.03119 46.9609C3.64522 46.9609 3.25926 46.9079 2.87329 46.9609C2.33722 47.0138 1.80115 46.9609 1.26507 46.9079C1.1793 46.9079 1.11497 46.6961 1.13641 46.5902C1.13641 46.5372 1.1793 46.4313 1.22219 46.4313C1.41517 46.3784 1.60816 46.3254 1.80115 46.2724C2.14423 46.2195 2.46587 45.7958 2.8304 45.8488C3.13061 45.9018 3.45225 45.7958 3.75245 45.6899C3.81677 45.6899 3.90254 45.584 3.96687 45.5311C4.00976 45.4781 4.0312 45.4252 4.05265 45.3722C4.11698 45.2133 4.13843 45.0545 4.09554 44.8956C4.07409 44.8426 4.03121 44.7897 3.98833 44.7367C3.55946 44.6838 3.15204 44.6308 2.72319 44.6308C2.33722 44.6308 1.95124 44.5779 1.56527 44.5779C1.3294 44.5779 1.09353 44.5249 0.879103 44.5249C0.686117 44.5249 0.51457 44.2601 0.321585 44.3131C0.150038 44.366 0.0857219 44.1542 0.128607 43.8365C0.19293 43.4658 0.235815 43.1481 0.19293 42.7244C0.19293 42.6715 0.214377 42.5126 0.235823 42.5126C0.471693 42.1419 0.707564 41.8771 0.986319 41.8242C1.13642 41.8242 1.28651 41.7712 1.43661 41.6653C1.54383 41.6124 1.65104 41.4535 1.67248 41.1358C1.71537 40.6592 1.7797 40.2355 1.97269 39.9707C2.05846 39.8648 2.0799 39.653 2.01558 39.4941C1.84403 38.9646 1.69393 38.435 1.65105 37.7466C1.6296 37.4289 1.54384 37.27 1.41518 37.2171C1.22219 37.1641 1.0292 37.1111 0.836218 37.0582C0.750449 37.0582 0.686118 36.9523 0.686118 36.8464C0.686118 36.7934 0.728995 36.6875 0.750441 36.6345C0.857657 36.5286 0.964865 36.3698 1.0292 36.1579C1.13641 35.8402 1.15787 35.5225 0.986319 35.2047C0.90055 35.0459 0.793326 34.887 0.707549 34.7281C0.68611 34.6752 0.68611 34.5693 0.707549 34.5163C0.879096 34.3045 1.09354 34.3575 1.26507 34.1986C1.41518 34.0927 1.54383 33.8809 1.69393 33.8279C1.95125 33.722 2.23 33.722 2.50876 33.722C2.59453 33.722 2.65886 33.6161 2.6803 33.5102C2.6803 33.4572 2.63742 33.3513 2.61597 33.2984C2.18712 32.7158 2.18712 32.7158 1.75826 32.6099C1.60816 32.557 1.45806 32.557 1.30797 32.504C1.15787 32.4511 1.05064 32.1333 1.05064 31.7097C1.05064 31.4979 1.15785 31.0742 1.24363 31.0213C1.3294 30.9683 1.39372 30.9154 1.45805 30.9154C1.84402 30.9154 2.20856 30.5447 2.57309 30.2799C2.65886 30.2269 2.7232 30.121 2.70175 29.9622C2.70175 29.9092 2.63742 29.8033 2.61597 29.8033C2.46587 29.6974 2.31578 29.6444 2.16568 29.5915C2.14423 29.5915 2.12279 29.4856 2.10134 29.4326C2.31577 29.1678 2.55164 29.2737 2.78751 29.2208C2.89473 29.1678 3.02339 29.1149 3.13061 29.0619C3.21638 29.009 3.25925 28.8501 3.2807 28.6912C3.30214 28.4794 3.25925 28.3205 3.17348 28.2676C3.10915 28.2146 3.02338 28.1087 2.95905 28.0558C2.63741 27.738 2.29433 27.5792 1.95125 27.5792C1.56528 27.5792 1.17931 27.6321 0.793327 27.4203C0.750442 27.4203 0.728996 27.3144 0.70755 27.2614C0.728996 27.2085 0.75045 27.1555 0.771896 27.1026C0.793334 27.0496 0.836219 26.9966 0.879104 26.9966C1.35085 26.9966 1.7797 26.626 2.20856 26.2023C2.23 26.1494 2.2729 26.0964 2.2729 26.0434C2.2729 25.8316 2.23001 25.6728 2.16568 25.5668C2.01558 25.355 1.86547 25.355 1.71537 25.4609C1.6296 25.5139 1.56528 25.4609 1.52239 25.3021C1.45806 25.0373 1.45806 24.6666 1.52239 24.5077C1.58672 24.4018 1.62961 24.243 1.69393 24.19C1.84403 24.0841 1.99413 24.0311 2.14423 24.0311C2.5302 24.0311 2.89473 23.6605 3.25926 23.4486C3.34503 23.3957 3.38792 23.2368 3.36648 23.1309C3.34503 23.0779 3.30215 23.025 3.25926 22.972C3.02339 22.9191 2.78751 22.8661 2.57309 22.8661C2.42299 22.8661 2.27289 22.7602 2.1228 22.6013C1.97269 22.4425 1.82259 22.3895 1.67249 22.3895C1.43661 22.3366 1.22219 22.3366 0.98632 22.2306C0.879105 22.1777 0.857666 22.0718 0.879105 21.86C0.900551 21.7541 0.900551 21.6481 0.943436 21.6481C1.00776 21.5422 1.07208 21.4363 1.13641 21.3834C1.20074 21.3304 1.28652 21.2775 1.37229 21.2775C1.71538 21.2245 2.05846 21.1715 2.40155 21.1186C2.63742 21.0656 2.87329 21.1186 3.08772 21.0127C3.34504 20.8538 3.60235 20.642 3.85966 20.4302C3.94543 20.3772 4.00977 20.2713 4.05265 20.1124C4.20275 19.5299 4.50295 19.424 4.71738 19.0004C4.7817 18.8945 4.82459 18.7356 4.80315 18.5238C4.80315 18.4708 4.76026 18.4179 4.71738 18.3649C4.65305 18.3119 4.56728 18.259 4.50295 18.259C4.35284 18.206 4.20275 18.206 4.05265 18.206C4.00977 18.206 3.96687 18.1531 3.96687 18.0472C3.94543 17.9413 3.98833 17.7824 4.09554 17.7824C4.3743 17.7294 4.63161 17.7294 4.91036 17.6765C5.14624 17.6235 5.36066 17.5176 5.57509 17.2528C5.63942 17.1469 5.72519 17.094 5.78952 16.9881C6.11116 16.5644 6.45425 16.4585 6.79734 16.7762C6.88311 16.8292 6.94743 16.8821 7.01176 16.7762C7.18331 16.6174 7.37629 16.5115 7.56928 16.4585C7.78371 16.4056 7.86948 16.2996 7.80515 16.1408C7.74083 16.0349 7.6765 15.929 7.59073 15.929C7.50495 15.929 7.44062 15.823 7.39774 15.6642C7.39774 15.6112 7.44062 15.5053 7.46206 15.5053C7.80515 15.3464 8.10535 14.8698 8.42699 14.658C8.44843 14.658 8.46989 14.5521 8.49133 14.4992C8.44844 14.4462 8.427 14.3932 8.38412 14.3403C8.14825 14.2344 7.91237 14.2344 7.69794 14.3932C6.99033 14.8169 6.99033 14.8698 6.58291 14.8698C6.38992 14.8698 6.19695 14.9758 6.0254 15.1876C5.91818 15.2935 5.81096 15.3464 5.6823 15.3464C5.63942 15.3464 5.59654 15.3464 5.57509 15.2935C5.51077 15.1876 5.5322 15.0817 5.61798 14.9228C5.76808 14.6051 5.76807 14.5521 5.63942 14.3403C5.57509 14.2344 5.48933 14.1285 5.48933 13.9696C5.48933 13.8107 5.55365 13.6519 5.61798 13.546C5.68231 13.44 5.74664 13.3341 5.81097 13.2812C5.96107 13.2282 6.11117 13.1753 6.26127 13.1223C6.45425 13.0694 6.64723 13.0164 6.81877 12.8046C6.8831 12.7516 6.96887 12.6457 7.0332 12.6457C7.35484 12.5928 7.63361 12.3809 7.91237 12.0632C8.01959 11.9573 8.14824 11.9573 8.25545 11.9573C8.34123 11.9573 8.40555 11.9043 8.46988 11.7455C8.55565 11.5336 8.61999 11.2689 8.70576 11.163C8.79153 11.0571 8.94163 11.2159 9.04884 11.0571C9.28471 10.7923 9.54202 10.4745 9.77789 10.2098C9.79934 10.1568 9.84223 10.0509 9.84223 9.99795C9.84223 9.83908 9.7779 9.73317 9.69212 9.73317C9.54202 9.73317 9.37049 9.73316 9.24183 9.83907C8.94163 10.1038 8.64143 10.2627 8.34123 10.2098C7.95525 10.1038 7.56928 10.4216 7.20476 10.1568C7.18331 10.1568 7.16186 10.0509 7.14042 9.99795C7.16186 9.94499 7.18331 9.83907 7.2262 9.78612C7.33341 9.73316 7.46206 9.6802 7.56928 9.62725C7.71938 9.57429 7.86948 9.46839 7.99813 9.20361C8.06246 9.0977 8.10536 8.93883 8.16969 8.83291C8.2769 8.67405 8.36267 8.56814 8.49133 8.56814C8.68432 8.51518 8.87729 8.51519 9.07028 8.46223C9.19894 8.40928 9.26327 8.25041 9.30616 7.93268C9.39193 7.93268 9.45625 7.93268 9.54202 7.93268C9.58491 7.93268 9.60635 7.87972 9.64924 7.82677C9.67068 7.77381 9.67069 7.6679 9.67069 7.6679C9.62779 7.50903 9.54202 7.50903 9.4777 7.56199C9.41337 7.6679 9.37048 7.77381 9.34904 7.98563C9.24182 7.93268 9.11318 7.93268 9.02741 7.77381C9.00596 7.72085 8.96307 7.61494 8.96307 7.56199C8.94162 7.35016 8.98451 7.19131 9.04884 7.08539C9.09173 7.03244 9.11317 6.97948 9.15605 6.92653C9.37048 6.76766 9.60636 6.82062 9.82079 6.55584C10.0352 6.34402 10.2496 6.18515 10.4855 6.02628C10.5713 5.97333 10.6356 5.92037 10.6999 5.97333C10.9573 6.13219 11.1502 5.81446 11.3432 5.54968C11.4719 5.39081 11.5791 5.02012 11.6863 4.8083C11.7721 4.64944 11.9007 4.54352 11.9865 4.38466C12.0294 4.27875 11.9865 4.06692 12.008 3.8551C12.0508 3.43146 12.2224 3.43146 12.351 3.27259C12.4154 3.16668 12.5011 3.16669 12.5655 3.37851C12.6512 3.59033 12.6941 3.8551 12.8442 3.69623C12.9514 3.59032 13.0587 3.48442 13.1659 3.37851C13.4018 3.06077 13.6591 2.90191 13.9378 2.796C14.1094 2.47826 14.3238 2.796 14.4953 2.63713C14.6669 2.42531 14.8599 2.42531 15.0529 2.42531C15.2458 2.42531 15.4388 2.42531 15.6318 2.42531C15.9106 2.47826 16.1679 2.3194 16.4252 2.05463C16.6182 1.8428 16.7897 1.8428 16.9827 2.05463C17.1543 2.26644 17.3687 2.26644 17.5402 2.42531C17.7118 2.58417 17.8833 2.84895 18.0763 2.95486C18.2478 3.06077 18.3336 3.32555 18.4194 3.69623C18.4837 3.96101 18.548 4.17284 18.6552 4.3317C18.6767 4.38466 18.7196 4.43762 18.7625 4.43762C18.9983 4.38467 19.1913 4.11988 19.4272 4.11988C19.6416 4.06692 19.7488 3.7492 19.7917 3.21964C19.8346 2.74304 19.8989 2.69009 20.0062 2.95486C20.0705 3.11373 20.0919 3.2726 20.1777 3.21964C20.1991 3.21964 20.2206 3.06077 20.242 3.00781C20.2849 2.69008 20.3707 2.47826 20.4993 2.47826C20.7995 2.42531 21.0997 2.3194 21.3999 2.00166C21.4428 1.94871 21.4857 1.94871 21.5072 2.00166C21.6573 2.10757 21.7859 2.37235 21.9575 2.3194C22.1076 2.26644 22.2148 1.94871 22.3434 1.73688C22.4292 1.57802 22.5793 1.63097 22.6651 1.8428C22.7937 2.16053 22.9438 2.47826 23.0082 2.95486C23.0082 3.00782 23.0082 3.16669 22.9867 3.21964C22.9653 3.2726 22.9224 3.43146 22.9009 3.37851C22.6865 3.21964 22.4506 3.16668 22.2148 3.16668C22.0861 3.16668 21.9789 3.32555 21.936 3.59033C21.8502 4.01397 21.743 4.38466 21.5929 4.75535C21.4214 5.12604 21.2284 5.44377 20.9711 5.44377C20.7352 5.44377 20.4993 5.49673 20.2849 5.49673C20.0919 5.49673 19.8989 5.60264 19.7274 5.7615C19.513 5.97333 19.2771 5.92036 19.0412 5.81446C18.8482 5.70855 18.6767 5.49673 18.4837 5.44377C18.3336 5.39081 18.1835 5.39081 18.0334 5.60264C17.7975 5.92037 17.5188 6.02627 17.2615 6.07923C17.2186 6.07923 17.1757 6.07923 17.1542 6.07923C16.7683 5.97332 16.3823 6.18514 16.0392 6.60879C15.9963 6.66174 15.9749 6.66175 15.932 6.66175C15.8248 6.71471 15.7819 6.87356 15.8677 7.03243C16.0607 7.35016 16.2536 7.56199 16.511 7.29721C16.6396 7.13834 16.8112 7.13834 16.9613 7.03243C17.2186 6.76765 17.4759 6.60879 17.7546 6.60879C19.2985 6.66174 20.8424 6.50288 22.3863 6.50288C22.4935 6.50288 22.6222 6.50288 22.7294 6.44992C22.9224 6.34401 23.0939 6.13219 23.2869 6.07923C23.437 6.07923 23.5871 6.07924 23.7587 6.02628C23.8444 6.02628 23.9088 5.86742 23.8873 5.70855C23.8659 5.49673 23.7801 5.44377 23.6943 5.49673C23.5871 5.49673 23.4585 5.49673 23.3512 5.44377C23.2011 5.39081 23.1154 4.91421 23.2011 4.54352C23.244 4.38466 23.2655 4.17284 23.3084 4.06692C23.4799 3.69623 23.4799 3.32555 23.3941 2.796C23.3298 2.42531 23.4585 2.05462 23.63 2.00166C23.7801 1.94871 23.9302 1.94871 24.1017 1.94871C24.2518 1.94871 24.4019 1.8428 24.552 1.68393C24.745 1.52506 24.938 1.47211 25.1096 1.68393C25.3454 1.94871 25.5599 1.8428 25.7743 1.63097C25.8815 1.52507 26.0102 1.63098 26.0959 1.78985C26.1603 1.89576 26.2246 2.00166 26.2675 2.16053C26.4176 2.47826 26.5891 2.63713 26.7821 2.3194C26.9108 2.10758 27.0609 2.10757 27.211 2.26644C27.4897 2.63713 27.8114 2.63713 28.1116 2.37235C28.1759 2.3194 28.2617 2.21349 28.326 2.16053C28.6262 1.94871 28.9264 1.89575 29.2266 2.21349C29.441 2.42531 29.6555 2.58417 29.8913 2.58417C30.1272 2.58417 30.3631 2.58417 30.5775 2.58418C30.7061 2.58418 30.8134 2.47826 30.8991 2.37235C31.0492 2.16053 31.1779 2.10757 31.328 2.26644C31.4352 2.37235 31.5424 2.37235 31.6711 2.3194C31.7569 2.26644 31.8212 2.3194 31.8855 2.42531C32.0571 2.63713 32.25 2.69008 32.443 2.47826C32.5502 2.37235 32.6575 2.26644 32.7861 2.37235C32.9148 2.42531 33.022 2.3194 33.1292 2.21349C33.2364 2.10757 33.3436 2.10757 33.4723 2.16053C33.6867 2.3194 33.9011 2.63713 34.137 2.63713C34.33 2.63713 34.523 2.796 34.6945 2.95486C34.7589 3.00782 34.8446 2.90191 34.909 2.796C35.0805 2.42531 35.2949 2.16053 35.5094 1.94871C35.6166 1.8428 35.7238 1.78984 35.831 1.94871C35.9811 2.10757 36.1312 2.10757 36.2599 1.89575C36.5815 1.3662 36.9246 1.41915 37.2677 1.73689C37.5035 1.94871 37.7823 2.10757 37.9324 2.796C37.9538 2.84895 37.9967 2.95487 38.0182 2.95487C38.0611 2.95487 38.1039 2.95487 38.1254 2.90191C38.3398 2.47826 38.5328 2.00166 38.833 2.10758C38.8116 2.26644 38.7687 2.42531 38.7472 2.58418C38.6829 2.95487 38.7043 3.11373 38.833 3.11373C38.8973 3.11373 38.9831 3.11373 39.0474 3.06078C39.1332 3.00782 39.1761 2.9019 39.1975 2.74304C39.219 2.53122 39.1761 2.37235 39.1118 2.26644C39.0045 2.10758 38.8973 2.10758 38.7901 2.10758C38.8544 1.8428 38.9402 1.68393 39.0474 1.63097C39.2404 1.57802 39.4334 1.52506 39.6264 1.47211C39.755 1.47211 39.8408 1.3662 39.948 1.20733C40.2697 0.783692 40.6128 0.836648 40.9558 1.10143C41.0631 1.15438 41.1703 1.31325 41.2775 1.3662C41.3633 1.41916 41.4276 1.41915 41.5134 1.31324C41.7278 1.10142 41.9637 1.3662 42.1781 1.10143C42.3925 0.836648 42.6284 0.942559 42.8643 0.942559C43.2502 0.995515 43.6362 0.783692 44.0222 0.942559C44.3653 1.04846 44.7084 0.942559 45.0729 0.942559C45.1801 0.942559 45.3087 0.889596 45.416 0.783685C45.5661 0.624818 45.7162 0.677774 45.8663 0.783685C45.9306 0.836641 46.0164 0.836641 46.0807 0.783685C46.2308 0.624818 46.3809 0.624826 46.531 0.677781C46.5953 0.730737 46.6811 0.624826 46.7454 0.57187C46.8955 0.413003 47.0456 0.465959 47.1743 0.730737C47.2386 0.836648 47.2815 0.995515 47.3458 1.10143C47.453 1.31325 47.5174 1.31325 47.646 1.10143C47.7961 0.783693 47.9462 0.518907 48.1607 0.783685C48.2679 0.889596 48.3965 0.836648 48.5037 0.730737C48.5895 0.624826 48.6538 0.624826 48.7182 0.677782C48.9112 0.836649 49.1041 0.783693 49.2757 0.57187C49.34 0.465959 49.4258 0.465952 49.4901 0.518907C49.533 0.571863 49.5759 0.571863 49.5973 0.624818C49.919 1.10142 50.2621 1.10142 50.6051 0.677782C50.7552 0.518915 50.9053 0.571871 51.0554 0.677782C51.2055 0.783693 51.3556 0.889604 51.5057 0.995516C51.5915 1.04847 51.6344 1.20733 51.5915 1.31324C51.5701 1.3662 51.5272 1.41915 51.4843 1.41915C51.1412 1.41915 50.7981 1.47211 50.4336 1.47211C50.112 1.47211 49.8118 1.47212 49.533 1.89575C49.1899 2.05462 48.8468 2.21349 48.5037 1.89575C48.418 1.8428 48.3536 1.78984 48.2893 1.8428C48.1821 1.89575 48.0534 2.00166 47.9462 2.00166C47.6031 2.05462 47.26 2.05463 46.8955 2.05463C46.6168 2.05463 46.3594 2.00167 46.1021 1.78985C45.9949 1.68394 45.8877 1.63098 45.7591 1.63098C45.4803 1.57802 45.223 1.57803 44.9442 1.52507C44.6655 1.47212 44.4081 1.63097 44.1723 1.94871C44.0651 2.05462 43.9578 2.10758 43.8292 2.16053C43.2931 2.16053 42.7571 2.21349 42.221 2.16053C41.4062 2.05462 40.6128 2.21349 39.7979 2.16053C39.7336 2.16053 39.6478 2.26644 39.5835 2.37235C39.5621 2.37235 39.5835 2.53122 39.6049 2.63713C39.6264 2.796 39.6693 2.95487 39.6907 3.16668C39.7336 3.48441 39.8408 3.64328 39.948 3.69624C40.141 3.74919 40.334 3.7492 40.527 3.7492C40.5913 3.7492 40.6771 3.69624 40.7414 3.64329C41.0202 3.21964 41.2989 3.11373 41.6206 3.16668C42.0494 3.21964 42.4783 3.21964 42.8857 3.27259C42.9929 3.27259 43.1216 3.2726 43.2288 3.37851C43.5933 3.80216 44.0007 3.64328 44.3438 4.06693C44.4082 4.11988 44.4939 4.11989 44.5583 4.01398C44.6226 3.96102 44.7084 3.8551 44.7727 3.8551C45.2659 3.74919 45.7805 3.80215 46.2737 4.06693C46.4238 4.11988 46.5739 4.27876 46.724 4.27876C47.2172 4.3317 47.7318 4.3317 48.225 4.38466C48.5037 4.38466 48.761 4.27876 49.0184 4.01398C49.1685 3.85511 49.3186 3.96102 49.4472 4.22579C49.5116 4.3317 49.5544 4.49057 49.6188 4.59648C49.6831 4.70239 49.7689 4.70239 49.8332 4.64944C49.9833 4.49057 50.112 4.38466 50.2835 4.38466C50.4336 4.38466 50.5837 4.38466 50.7552 4.3317C50.9053 4.3317 51.0554 4.38466 51.2055 4.59648C51.3985 4.86126 51.5701 4.86126 51.7631 4.64944C51.8274 4.59648 51.9132 4.59649 51.9775 4.7024C52.1276 4.86126 52.2777 4.86126 52.4278 4.64944C52.5779 4.49057 52.7065 4.49057 52.8781 4.59648C53.1568 4.86126 53.1568 4.80831 53.2212 4.11988C53.2426 3.96102 53.2855 3.80215 53.3713 3.80215C53.6715 3.80215 53.9931 3.80215 54.2933 4.06693C54.4005 4.17284 54.5292 4.22579 54.6364 4.11988C54.8508 3.90806 55.0867 3.8551 55.3226 3.8551C56.0945 3.80215 56.8665 3.74919 57.6384 3.8551C57.9386 3.90806 58.2602 3.90807 58.5604 3.64329C58.8607 3.37851 59.1609 3.32556 59.4611 3.32556C59.8041 3.2726 60.1472 3.32555 60.5118 3.27259C60.6619 3.27259 60.812 3.21965 60.9621 3.06078C61.1336 2.84896 61.2408 3.00782 61.3695 3.32556C61.3909 3.37851 61.4338 3.48442 61.4552 3.53737C61.5839 3.80215 61.734 3.85511 61.8841 3.80215C61.927 3.80215 61.9699 3.80216 61.9913 3.7492C62.313 3.37851 62.656 3.32556 63.0206 3.32556C63.6853 3.2726 64.3286 3.27259 64.9933 3.27259C65.0791 3.27259 65.1434 3.21964 65.2077 3.16668C65.2292 3.16668 65.2506 3.00782 65.2506 3.00782C65.0791 2.69008 64.4787 2.21349 64.2857 2.21349C64.1356 2.21349 63.9855 2.21349 63.814 2.26644C63.5781 2.3194 63.3637 2.21349 63.1492 1.94871C62.849 1.63098 62.5488 1.52507 62.2486 1.78985C62.1414 1.89576 62.0342 1.89575 61.927 1.73689C61.8198 1.63098 61.6911 1.63098 61.6053 1.78985C61.3695 2.16053 61.1122 2.21349 60.8334 2.21349C60.5975 2.16053 60.3617 2.16053 60.1472 1.94871C59.8041 1.57802 59.4825 1.63098 59.1394 2.00167C58.8607 2.3194 58.6248 2.21349 58.3889 1.68393C58.3675 1.63098 58.3246 1.52506 58.3031 1.47211C58.2174 1.31324 58.1316 1.15438 58.0029 1.31324C57.8099 1.63098 57.5526 1.57803 57.3382 1.78985C57.2953 1.84281 57.2739 1.8428 57.231 1.8428C57.1881 1.8428 57.1452 1.84281 57.1238 1.78985C56.845 1.57803 56.5877 1.63098 56.3304 1.89575C56.1803 2.05462 56.0302 1.94872 55.9444 1.52507C55.8801 1.26029 55.7729 1.20734 55.6442 1.26029C55.5584 1.31325 55.4941 1.20734 55.4298 1.10143C55.4083 1.04847 55.3655 0.942553 55.3655 0.889597C55.3226 0.624819 55.3655 0.518915 55.4727 0.46596C55.7729 0.413004 56.0945 0.254137 56.3947 0.307093C56.8879 0.360049 57.4025 0.201182 57.8957 0.413004C58.0458 0.46596 58.1959 0.412997 58.346 0.360041C58.539 0.307085 58.732 0.360049 58.9035 0.518908C59.0108 0.624819 59.118 0.624819 59.2466 0.518908C59.3967 0.360049 59.5468 0.307093 59.6969 0.307093C60.2759 0.254138 60.8548 0.307093 61.4338 0.46596C61.541 0.518916 61.6697 0.571872 61.7769 0.677783C61.8627 0.730738 61.927 0.677775 61.9913 0.62482C62.2057 0.412997 62.4416 0.413005 62.6775 0.413005C62.9777 0.413005 63.2993 0.413005 63.5995 0.46596C63.7496 0.46596 63.8997 0.518916 64.0498 0.677783C64.2214 0.83665 64.4144 0.889606 64.6073 0.942561C64.7574 0.995517 64.929 0.995509 65.0576 0.783687C65.315 0.465953 65.5723 0.360049 65.851 0.413005C66.0869 0.413005 66.3228 0.413005 66.5372 0.413005C66.6873 0.413005 66.8374 0.465953 66.9875 0.62482C67.1376 0.783687 67.2877 0.889598 67.4378 0.889598C67.931 0.942554 68.4456 1.04847 68.9388 0.889598C69.1961 0.836643 69.4749 0.83665 69.7536 0.83665C69.9466 0.83665 70.1396 0.942554 70.3326 1.04847C70.5256 1.15438 70.6542 1.57802 70.8043 1.8428C70.9115 2.00167 71.0402 2.00167 71.126 1.8428C71.1474 1.78984 71.1903 1.73689 71.2117 1.63098C71.3404 1.04847 71.5548 0.942562 71.8121 0.942562C72.048 0.942562 72.2624 0.995517 72.4983 1.20733C72.7127 1.47211 72.9486 1.52507 73.1845 1.41915C73.3775 1.3662 73.5705 1.26029 73.7634 1.20733C73.8707 1.15438 73.9993 1.15438 74.1065 1.20733C74.5997 1.41916 75.0929 1.41916 75.6075 1.47211C75.9935 1.47211 76.3795 1.47211 76.7655 1.47211C77.1514 1.47211 77.5374 1.47211 77.9019 1.8428C78.0091 1.94871 78.1378 1.8428 78.245 1.73689C78.3951 1.57802 78.5452 1.63099 78.6953 1.78985C78.8454 1.94872 78.9955 2.05463 79.1456 2.05463C79.7246 2.05463 80.3035 2.21349 80.8825 2.05463C81.2256 1.94872 81.5687 2.05462 81.9117 2.16053C81.9761 2.16053 82.0618 2.26645 82.1262 2.37236C82.2334 2.53122 82.3192 2.74304 82.3406 3.00782C82.3835 3.48442 82.3835 3.96102 82.4264 4.38466C82.4478 4.54353 82.5121 4.7024 82.5765 4.80831C82.7266 4.96718 82.8767 4.96718 83.0268 5.02013C83.134 5.07309 83.2412 5.179 83.3484 5.33786C83.4342 5.49673 83.5414 5.70855 83.6272 5.81447C83.7344 5.97332 83.863 5.97333 83.9488 5.76151C84.0775 5.54969 84.1847 5.28491 84.2919 5.02013C84.3562 4.86126 84.3348 4.64944 84.2919 4.54353C84.2705 4.49057 84.2276 4.38466 84.1847 4.38466C83.9917 4.38466 83.7987 4.38466 83.6057 4.33171C83.4556 4.33171 83.3055 4.11989 83.1983 3.85511C83.1125 3.64329 83.0268 3.43147 82.9624 3.21965C82.941 3.16669 82.941 3.06078 82.941 2.95487C82.941 2.90191 82.9839 2.796 83.0053 2.796C83.7344 2.53122 84.5063 2.53122 85.0853 2.69009C85.1496 2.69009 85.2354 2.796 85.2997 2.84896C85.3426 2.90191 85.364 2.90191 85.4069 2.95487C85.557 3.16669 85.7071 3.11374 85.8358 2.90191C86.0073 2.63714 86.2003 2.63714 86.3933 2.69009C86.4362 2.69009 86.4791 2.74304 86.5005 2.74304C86.6935 2.79599 86.865 3.11374 87.058 3.11374C87.444 3.11374 87.83 3.2726 88.2159 3.21965C89.1809 3.11374 90.1458 3.16668 91.1107 3.2726C91.4109 3.2726 91.7326 3.37851 92.0113 3.64329C92.1614 3.80216 92.3115 3.80215 92.4616 3.80215C92.5903 3.80215 92.6975 3.90806 92.7833 4.06693C92.9334 4.27875 93.062 4.33171 93.2336 4.33171C93.2765 4.33171 93.3194 4.33171 93.3408 4.33171C93.8125 4.27875 94.2628 4.38467 94.7131 4.70241C95.0133 4.91422 95.3135 4.96718 95.6137 5.23195C95.7638 5.39082 95.9139 5.2849 96.064 5.12604C96.257 4.91422 96.45 4.91422 96.6216 5.12604C96.9218 5.49673 97.222 5.54969 97.5222 5.28491C97.6723 5.179 97.8224 5.179 97.9725 5.33787C98.1226 5.49673 98.2727 5.54969 98.4228 5.54969C98.53 5.54969 98.6586 5.49673 98.7658 5.49673C98.9588 5.49673 99.1518 5.65559 99.3019 5.92037C99.3662 6.02628 99.4306 6.1322 99.4949 6.23811C99.5592 6.34402 99.645 6.39698 99.7093 6.29107C99.8594 6.1322 99.9881 5.97333 100.16 5.97333C100.588 5.97333 101.017 5.97333 101.425 5.97333C101.661 5.97333 101.875 6.13219 102.089 6.34402C102.411 6.66175 102.754 6.7147 103.119 6.50288C103.226 6.44993 103.333 6.34402 103.462 6.29107C103.548 6.23811 103.612 6.23811 103.698 6.29107C103.891 6.39698 104.084 6.44993 104.277 6.44993C104.899 6.44993 105.52 6.44993 106.121 6.44993C106.442 6.44993 106.743 6.39697 107.043 6.18515C107.236 6.02628 107.429 5.97333 107.622 6.1322C108.179 6.55585 108.758 6.55585 109.337 6.55585C109.53 6.55585 109.702 6.82062 109.83 7.19131C109.895 7.40313 109.938 7.77382 109.873 7.98564C109.809 8.19746 109.745 8.46224 109.68 8.67406C109.573 9.04475 109.573 9.25658 109.702 9.30953C110.045 9.4684 110.366 9.78612 110.688 10.1039C110.795 10.2098 110.838 10.5275 110.86 10.7923C110.881 11.0041 110.774 11.4277 110.688 11.4807C110.581 11.5866 110.474 11.6925 110.366 11.7984C110.259 11.9043 110.216 12.275 110.281 12.4869C110.324 12.6457 110.388 12.7516 110.452 12.8575C110.624 13.2282 110.624 13.7048 110.581 14.1814C110.581 14.2873 110.559 14.3403 110.538 14.4462C110.474 14.8169 110.452 15.1876 110.452 15.5583C110.452 15.876 110.495 16.1408 110.581 16.3526C110.795 16.8822 111.031 17.4117 111.246 17.9413C111.331 18.1531 111.396 18.4708 111.331 18.7356C111.16 19.477 111.138 20.3772 110.945 21.1186C110.881 21.3834 110.924 21.7011 111.01 21.9129C111.16 22.3366 111.331 22.7073 111.481 23.1839C111.567 23.5016 111.524 23.9782 111.417 24.19C111.181 24.5607 110.924 24.6666 110.667 24.8784C110.624 24.8784 110.581 24.9844 110.581 25.0373C110.581 25.0903 110.602 25.1962 110.624 25.2491C110.795 25.5139 110.903 25.8846 110.967 26.3612C111.031 26.7848 111.031 26.7319 110.924 27.1026C110.795 27.5262 110.795 27.5792 110.838 27.8439C110.945 28.3735 111.074 28.7971 111.224 29.2737C111.353 29.6444 111.331 29.8033 111.203 30.2799C111.138 30.4917 111.031 30.7035 111.074 31.0213C111.117 31.4449 111.053 31.7097 110.945 32.0274C110.774 32.4511 110.795 32.504 110.988 32.8747C111.074 33.0336 111.181 33.1925 111.267 33.4043C111.439 33.8809 111.481 34.4104 111.374 34.9929C111.331 35.2577 111.267 35.4695 111.31 35.7873C111.374 36.105 111.288 36.3168 111.224 36.5286C111.117 36.8464 110.967 36.9523 110.838 37.1641C110.752 37.323 110.688 37.6407 110.731 37.9055C110.752 38.0644 110.774 38.2762 110.795 38.435C110.838 38.6998 110.838 38.9646 110.774 39.2294C110.667 39.653 110.688 40.1296 110.731 40.6062C110.752 40.871 110.795 41.1358 110.903 41.3476C110.967 41.4535 111.031 41.6124 111.031 41.7712C111.01 41.9301 110.924 42.036 110.86 42.1419C110.688 42.5656 110.731 42.9892 110.967 43.1481C111.01 43.201 111.031 43.201 111.074 43.201C111.31 43.3069 111.503 43.5717 111.696 43.8895C111.653 43.9954 111.696 44.1542 111.717 44.2601C111.696 44.3131 111.653 44.2601 111.61 44.3131C111.374 44.3131 111.16 44.2601 110.945 43.8895C110.924 43.8365 110.881 43.8365 110.838 43.8365C110.752 43.8365 110.688 43.8895 110.688 44.1013C110.688 44.1542 110.71 44.3131 110.731 44.3661C110.86 44.7367 111.053 44.8427 111.224 45.1074C111.331 45.2663 111.417 45.2133 111.524 45.0015C111.632 44.7367 111.717 44.5779 111.717 44.2601ZM86.2432 9.36248C86.2861 9.36248 86.329 9.36248 86.3504 9.36248C86.522 9.36248 86.6506 9.20362 86.6935 8.77997C86.7149 8.62111 86.7578 8.40928 86.7793 8.25042C86.8222 7.98564 86.7578 7.77382 86.6292 7.77382C86.3719 7.77382 86.2861 7.93268 86.2646 8.56814C86.2646 8.83292 86.2646 9.15065 86.2646 9.41543C86.2218 9.41543 86.2003 9.46839 86.1574 9.52134C86.136 9.52134 86.136 9.62726 86.136 9.68021C86.2003 9.68021 86.2432 9.5743 86.2432 9.36248ZM26.7392 3.69624C26.6749 3.32555 26.5891 3.11373 26.4176 3.11373C26.3104 3.11373 26.2031 3.16669 26.0959 3.21964C26.0102 3.2726 25.9673 3.43146 26.0102 3.53737C26.0316 3.59032 26.0745 3.64328 26.0959 3.69624C26.3104 3.80215 26.5248 3.80215 26.7607 3.69624C26.825 4.27875 26.9751 4.64944 27.1895 4.86126C27.2967 4.96717 27.4039 5.07308 27.5112 5.12604C27.5326 5.12604 27.5755 5.02013 27.5969 4.91421C27.6184 4.86126 27.6184 4.75535 27.5969 4.64944C27.4897 4.11988 27.3182 3.74919 27.0823 3.69624C26.9536 3.69624 26.8464 3.69624 26.7392 3.69624ZM98.7658 101.452C98.8945 101.611 99.0232 101.823 99.1733 101.929C99.3448 102.035 99.5378 102.088 99.7308 102.14C99.7522 102.14 99.7951 102.246 99.8165 102.299C99.9238 103.2 99.9238 103.2 100.181 103.464C100.374 103.676 100.546 103.306 100.546 102.776C100.546 102.564 100.524 102.352 100.567 102.299C100.631 102.193 100.717 102.193 100.781 102.14C100.824 102.14 100.867 102.088 100.889 102.035C100.91 101.982 100.953 101.929 100.953 101.823C100.974 101.664 100.932 101.558 100.824 101.505C100.674 101.452 100.524 101.452 100.374 101.452C100.095 101.505 99.838 101.399 99.6021 101.134C99.4306 100.923 99.2376 100.975 99.0446 101.028C98.9374 101.081 98.8302 101.24 98.8087 101.505C98.7444 101.505 98.6586 101.505 98.5943 101.505C98.5514 101.505 98.53 101.558 98.5085 101.611C98.4871 101.664 98.4871 101.77 98.4871 101.77C98.53 101.929 98.5943 101.929 98.6801 101.823C98.7015 101.77 98.7444 101.611 98.7658 101.452ZM92.9763 8.25042C92.9548 8.03859 92.9119 7.87973 92.8262 7.87973C92.6332 7.77382 92.4616 7.72086 92.2901 7.45608C92.2258 7.35017 92.14 7.35017 92.0757 7.40313C91.8612 7.66791 91.6468 7.77382 91.4109 7.77382C91.218 7.77382 91.025 7.72086 90.8534 7.87973C90.7677 7.93268 90.7248 8.09154 90.7462 8.30337C90.7462 8.35632 90.7891 8.46224 90.8105 8.5152C90.8749 8.62111 90.9392 8.67406 91.025 8.67406C91.1751 8.67406 91.3252 8.5152 91.4538 8.40928C91.561 8.30337 91.6683 8.35633 91.7755 8.5152C91.9899 8.83293 92.2043 8.83292 92.4188 8.56814C92.5903 8.35632 92.7618 8.19746 92.9548 8.19746C92.9763 8.30337 92.9763 8.40928 92.9977 8.46224C93.0835 8.6211 93.1907 8.77997 93.2765 8.93884C93.4051 9.15066 93.5552 9.20362 93.7053 9.04475C93.7697 8.93884 93.8554 8.88588 93.9198 8.88588C94.3486 8.88588 94.756 8.83293 95.1849 8.88589C95.2492 8.88589 95.335 8.93884 95.3993 9.04475C95.528 9.25657 95.6566 9.46839 95.7638 9.68021C95.8282 9.78612 95.9568 9.62726 96.0426 9.36248C96.0855 9.20361 96.0855 8.99179 96.0212 8.83292C95.9568 8.72701 95.8925 8.62111 95.8282 8.5152C95.7853 8.46224 95.7638 8.46224 95.721 8.46224C95.6352 8.46224 95.5709 8.40928 95.4851 8.40928C95.2492 8.35633 95.0348 8.30337 94.7989 8.30337C94.5202 8.30337 94.2843 7.98564 94.027 7.82677C93.7911 7.72086 93.5767 7.66791 93.3622 7.98564C93.2765 8.14451 93.1264 8.19746 92.9763 8.25042ZM98.53 9.99795C98.4442 9.4684 98.337 8.99179 98.1869 8.56814C98.1654 8.51519 98.1226 8.46224 98.1011 8.46224C97.9725 8.40928 97.8224 8.67406 97.758 9.04475C97.7366 9.20362 97.8224 9.62726 97.9081 9.73318C97.9725 9.78613 98.0582 9.89203 98.1226 9.89203C98.2727 9.94499 98.4228 9.94499 98.5729 9.94499C98.5943 10.1568 98.6372 10.3157 98.7015 10.4216C98.7658 10.5275 98.8516 10.5805 98.9159 10.6864C99.1518 11.11 99.4091 11.163 99.6879 10.9511C99.7951 10.8452 99.9023 10.8452 100.031 10.9511C100.438 11.2689 100.867 11.2159 101.296 11.11C101.403 11.11 101.532 11.0041 101.618 10.8452C101.746 10.6334 101.897 10.5805 102.068 10.5805C102.111 10.8452 102.197 11.0571 102.304 11.11C102.454 11.2159 102.604 11.2159 102.754 11.0571C102.776 11.0041 102.797 10.9511 102.819 10.8982C102.797 10.8452 102.754 10.7393 102.733 10.7393C102.497 10.6334 102.282 10.6334 102.047 10.6334C102.025 10.4216 101.961 10.3157 101.897 10.2627C101.789 10.1568 101.682 10.1039 101.575 9.99795C101.425 9.83909 101.36 9.4684 101.253 9.20362C101.167 8.9918 101.06 8.93883 100.953 9.0977C100.889 9.20361 100.824 9.30952 100.76 9.41543C100.631 9.68021 100.503 9.73317 100.353 9.62726C100.16 9.46839 99.9881 9.46839 99.7951 9.68021C99.5807 9.94499 99.3662 10.0509 99.1304 10.0509C98.8945 9.99795 98.723 9.99795 98.53 9.99795ZM87.1652 101.452C87.2725 101.558 87.3368 101.77 87.4011 102.035C87.5083 102.458 87.5941 102.617 87.7656 102.564C88.0015 102.511 88.2159 102.511 88.4518 102.405C88.6662 102.246 88.8807 102.088 89.1165 102.299C89.1809 102.352 89.2666 102.299 89.331 102.193C89.524 101.982 89.6955 101.982 89.8885 102.193C89.9528 102.246 90.0386 102.352 90.1029 102.299C90.3173 102.14 90.5532 102.14 90.7462 101.876C90.7676 101.823 90.8105 101.77 90.8105 101.664C90.832 101.558 90.832 101.452 90.8105 101.399C90.639 100.605 90.5318 100.393 90.1887 100.605C90.1029 100.658 90.0386 100.711 89.9743 100.605C89.7813 100.446 89.6097 100.499 89.4382 100.764C89.331 100.923 89.2238 100.923 89.1165 100.87C89.0522 100.87 88.9664 100.764 88.9021 100.711C88.8592 100.658 88.8378 100.658 88.7949 100.605C88.6877 100.499 88.559 100.393 88.4733 100.499C88.1516 100.817 87.8085 100.87 87.4654 100.923C87.3582 100.975 87.2725 101.134 87.2296 101.452C87.1867 101.452 87.1652 101.505 87.1224 101.558C87.1009 101.611 87.1009 101.664 87.1009 101.717C87.1224 101.77 87.1652 101.664 87.1652 101.452ZM19.7917 10.5805C19.7917 11.11 19.8132 11.6396 19.6845 12.1691C19.6631 12.2221 19.6631 12.328 19.6631 12.4339C19.6631 12.5928 19.706 12.7516 19.7917 12.8046C20.0919 12.9105 20.3921 12.8575 20.6923 12.7516C20.7566 12.7516 20.821 12.5928 20.8853 12.4868C20.9068 12.4339 20.9068 12.328 20.9282 12.2221C20.9496 12.0632 20.9496 11.8514 20.9711 11.6925L20.9496 11.7455C21.207 11.6925 21.4857 11.5866 21.7216 11.9573C21.7645 12.0103 21.8502 11.8514 21.8717 11.6925C21.8931 11.3218 21.8931 10.9511 21.8931 10.5805L21.8717 10.6334C21.9789 10.5805 22.1076 10.5805 22.1933 10.3686C22.2577 10.2627 22.2791 10.0509 22.2791 9.89203C22.2577 9.73316 22.2148 9.52134 22.129 9.52134C21.8931 9.46838 21.6787 9.46838 21.4428 9.41543C21.2498 9.41543 21.0783 9.25656 20.9496 8.83292C20.8853 8.56814 20.7781 8.46223 20.6709 8.40928C20.5208 8.35632 20.3707 8.30336 20.2206 8.30336C19.8775 8.30336 19.5344 8.35632 19.1913 8.40928C19.1055 8.40928 19.0412 8.51519 19.0412 8.67406C19.0412 8.77997 19.0627 8.88588 19.1055 8.88588C19.2556 9.04475 19.32 9.41543 19.3843 9.73317C19.4701 10.1039 19.6202 10.3686 19.7917 10.5805ZM31.2422 10.2098C31.4567 10.4745 31.6711 10.6864 31.8855 10.8982C32.0356 11.0571 32.1857 11.11 32.3358 11.0041C32.5288 10.8982 32.7003 10.7923 32.8933 10.8982C33.3222 11.11 33.7296 11.0571 34.137 10.6334C34.2442 10.5275 34.3729 10.5275 34.4801 10.6334C34.7589 11.0041 35.0591 11.0571 35.3807 11.0571C35.6809 11.0571 36.0025 11.0571 36.3027 11.0571C36.5386 11.0571 36.753 11.11 36.9889 11.3748C37.0532 11.4277 37.139 11.3748 37.2033 11.3218C37.3749 11.163 37.5679 10.9511 37.7394 10.7393C37.8895 10.8982 38.0396 11.0041 38.1683 11.163C38.3613 11.3748 38.5328 11.3748 38.7258 11.2159C39.1332 10.9511 39.5621 11.0041 39.9695 11.3218C40.2053 11.5337 40.4198 11.5337 40.6556 11.3218C40.7629 11.2159 40.8701 11.2159 40.9987 11.2689C41.256 11.3748 41.256 11.3748 41.449 11.2689C41.5562 11.2159 41.6849 11.163 41.7921 11.0571C41.835 11.0571 41.8564 10.9511 41.8779 10.8982C41.8993 10.7923 41.835 10.6864 41.7492 10.6864C41.4705 10.5805 41.2132 10.6334 40.9344 10.6334C40.5913 10.6334 40.2482 10.5275 39.9051 10.2627C39.755 10.1568 39.6049 10.2627 39.4548 10.3686C39.3476 10.4745 39.2404 10.5805 39.1118 10.5805C38.8759 10.5805 38.64 10.6334 38.4256 10.4216C38.2112 10.2098 37.9753 10.1568 37.7394 10.1039C37.3963 10.1039 37.0532 10.0509 36.6887 10.0509C36.5386 10.0509 36.3885 9.94499 36.2384 9.73317C36.0454 9.46839 35.8739 9.5743 35.6809 9.73317C35.5737 9.83908 35.4665 9.94498 35.3378 9.94498C35.0591 9.99794 34.8017 9.99795 34.523 9.99795C34.2871 9.99795 34.0727 9.94498 33.8368 9.68021C33.7296 9.5743 33.6009 9.52134 33.4937 9.62725C33.3436 9.73316 33.1935 9.73316 33.0434 9.5743C32.9362 9.46839 32.8075 9.46839 32.7003 9.46839C32.2071 9.46839 31.6925 9.46838 31.1993 9.52134C31.0921 9.52134 30.9635 9.62725 30.8562 9.68021C30.7705 9.73316 30.7062 9.78612 30.6418 9.68021C30.3845 9.41543 30.1272 9.41543 29.8699 9.78612C29.7627 9.94498 29.6554 9.94499 29.5482 9.99795C29.5053 9.99795 29.4839 10.0509 29.441 10.1039C29.3552 10.2098 29.3338 10.3686 29.3338 10.5275C29.3338 10.7393 29.3767 10.8982 29.4625 10.9511C29.8484 11.163 30.2344 11.11 30.6204 11.0041C30.7276 10.9511 30.8348 10.8452 30.942 10.6864C31.0492 10.4745 31.1564 10.3686 31.2422 10.2098ZM43.4218 5.44377C43.2717 5.49673 43.1645 5.49673 43.0573 5.54968C42.8857 5.60264 42.8214 5.81446 42.8857 6.07923C42.9929 6.50288 43.1001 6.87357 43.1859 7.29721C43.2502 7.56199 43.3574 7.6679 43.4647 7.72086C43.6148 7.77381 43.7649 7.77381 43.915 7.77381C44.1079 7.77381 44.2795 8.03859 44.4725 8.1445C44.5797 8.19746 44.7083 8.25041 44.8156 8.25041C45.0514 8.30337 45.2659 8.25041 45.4803 7.98564C45.6089 7.82677 45.759 7.72086 45.9306 7.72086C46.6597 7.72086 47.3887 7.72086 48.1178 7.77381C48.2679 7.77381 48.418 7.82677 48.5681 7.87972C48.8039 8.25041 49.1041 7.82677 49.34 8.19746C49.4258 8.19746 49.4901 8.19746 49.5759 8.1445C49.726 7.98564 49.8761 8.03859 50.0262 8.19746C50.0691 8.25041 50.0905 8.25041 50.1334 8.25041C50.3478 8.35632 50.4979 8.1445 50.648 7.82677C50.6695 7.77381 50.6909 7.6679 50.6695 7.56199C50.6695 7.50903 50.648 7.40312 50.6051 7.40312C50.3478 7.13835 50.0691 7.1913 49.8118 7.1913C49.4687 7.1913 49.1256 7.1913 48.7825 6.87357C48.7182 6.82061 48.6324 6.87357 48.5681 6.92653C48.418 7.08539 48.2679 7.03243 48.1178 6.87357C48.0534 6.82061 47.9677 6.82061 47.9033 6.87357C47.7532 6.97948 47.6031 7.03244 47.453 6.82062C47.3887 6.71471 47.3029 6.71471 47.2386 6.66175C47.0027 6.66175 46.7883 6.66175 46.5524 6.66175C46.4452 6.66175 46.338 6.55583 46.2308 6.44992C46.1236 6.34401 46.0164 6.29106 45.9092 6.44992C45.7805 6.60879 45.6304 6.76766 45.5017 6.92653C45.3516 7.08539 45.223 7.1913 45.0514 7.1913C44.8584 7.1913 44.6655 7.1913 44.4725 7.1913C44.3224 7.1913 44.1723 7.08539 44.0865 6.7147C44.0222 6.44992 43.9578 6.23811 43.8935 6.02628C43.7863 5.70855 43.6362 5.60264 43.4861 5.54968C43.4647 5.39082 43.4218 5.44377 43.4218 5.44377ZM91.4324 10.4745C91.2823 10.4745 90.9821 10.4745 90.6604 10.6334C90.6176 10.6334 90.5532 10.7393 90.5532 10.7393C90.5532 10.9511 90.6176 11.0041 90.7033 11.0571C90.9821 11.2689 90.9821 11.2689 90.7891 11.7984C90.7248 11.9573 90.7033 12.1162 90.7248 12.328C90.7462 12.4869 90.8105 12.6457 90.8749 12.6987C91.1322 12.8046 91.4109 12.9105 91.6683 12.6457C91.9256 12.3809 92.1829 12.275 92.4616 12.275C92.6975 12.275 92.9334 12.275 93.1478 12.0632C93.3622 11.8514 93.5981 11.7984 93.8125 11.7455C94.0055 11.7455 94.1985 11.6925 94.3915 11.6396C94.4558 11.6396 94.5202 11.4807 94.5845 11.3748C94.7346 11.11 94.756 10.7393 94.6274 10.4216C94.5202 10.1568 94.4129 9.89203 94.2843 9.68021C94.1771 9.52134 94.0484 9.52134 93.9626 9.68021C93.8769 9.83908 93.7697 9.99795 93.6839 10.1568C93.5767 10.3157 93.4695 10.3157 93.3622 10.2098C93.1693 9.99795 92.9763 9.99795 92.8047 10.1568C92.5045 10.4216 92.2043 10.5275 91.9041 10.5275C91.8184 10.5275 91.6897 10.5275 91.4324 10.4745ZM71.2546 2.796C71.2117 2.74305 71.1903 2.74305 71.1474 2.69009C71.0402 2.58418 70.933 2.53122 70.8043 2.53122C70.7186 2.53122 70.6542 2.63713 70.6113 2.796C70.547 3.00782 70.5685 3.37851 70.6757 3.53737C70.8043 3.74919 70.8901 4.01398 70.8687 4.43763C70.8687 4.49058 70.8901 4.59648 70.9115 4.64944C70.9973 4.80831 71.1045 4.96717 71.2117 5.07309C71.319 5.23195 71.4262 5.23195 71.5334 5.12604C71.6406 5.02013 71.7478 4.86126 71.8336 4.75535C72.0051 4.54353 72.0051 4.54353 71.8336 4.11988C71.8121 4.06693 71.7907 3.90806 71.7907 3.85511C71.7907 3.80215 71.855 3.7492 71.8979 3.7492C72.1338 3.69625 72.3482 3.64328 72.5841 3.53737C72.627 3.53737 72.6484 3.48442 72.6913 3.43146C72.6699 3.37851 72.6484 3.2726 72.627 3.21965C72.3697 2.796 72.0909 2.47827 71.8336 2.10758C71.6835 1.94871 71.5977 2.00167 71.4476 2.42531C71.3833 2.58418 71.319 2.74305 71.2546 2.796ZM88.6662 11.3218C88.7091 11.2159 88.752 11.163 88.752 11.11C88.7735 11.0041 88.7735 10.8982 88.752 10.8452C88.6019 10.4216 88.4518 9.99795 88.3017 9.57431C88.1731 9.20362 88.1087 8.77997 88.0658 8.30336C88.0444 7.93268 88.0015 7.93268 87.8729 8.35633C87.8085 8.56815 87.7228 8.77997 87.6155 8.88588C87.4654 9.04475 87.4226 9.41543 87.2939 9.68021C87.2296 9.78612 87.1652 9.89203 87.0795 9.89203C86.9723 9.89203 86.8436 9.945 86.7364 9.99795C86.6935 9.99795 86.6721 10.1039 86.6506 10.1568C86.6077 10.3157 86.6506 10.4745 86.6935 10.6334C86.7793 10.8452 86.8865 11.0041 86.9937 11.0041C87.3368 11.0571 87.6799 11.11 88.023 11.163C88.1302 11.163 88.2588 11.11 88.366 11.163C88.4733 11.163 88.5805 11.2689 88.6662 11.3218ZM67.4378 3.16668L67.4378 3.11373C67.6308 3.11373 67.8238 3.11373 68.0168 3.11373C68.0811 3.11373 68.1669 3.06077 68.2312 3.00782C68.317 2.95486 68.3384 2.796 68.2741 2.58418C68.1883 2.26644 68.0811 2.00167 67.9524 1.78985C67.8238 1.57803 67.6737 1.47212 67.5236 1.52507C67.4378 1.57803 67.3735 1.57802 67.3091 1.68393C67.1162 1.89576 66.9446 1.89576 66.7516 1.73689C66.6444 1.63098 66.5372 1.78985 66.4729 2.05463C66.3442 2.58418 66.4085 3.06078 66.6444 3.11373C66.9017 3.11373 67.1805 3.11373 67.4378 3.16668ZM96.9646 100.975C96.7931 100.923 96.5787 100.923 96.45 101.293C96.1712 101.929 95.8496 102.088 95.5065 102.035C95.3993 102.035 95.2706 102.035 95.1634 102.035C95.0991 102.035 95.0348 102.193 94.949 102.246C94.9704 102.352 94.9704 102.458 94.9919 102.511C95.142 102.829 95.2492 103.2 95.3779 103.517C95.4636 103.729 95.5923 103.782 95.6781 103.57C95.8067 103.358 95.9139 103.094 96.0426 102.882C96.2141 102.617 96.3857 102.405 96.5572 102.246C96.6644 102.14 96.7716 102.088 96.8789 101.982C96.9217 101.929 96.9432 101.929 96.9861 101.929C97.0933 101.823 97.1791 101.664 97.2219 101.346C97.2648 101.134 97.1576 100.975 96.9646 100.975ZM92.6761 103.147C92.9119 103.2 93.062 103.094 93.2121 102.829C93.2979 102.67 93.3622 102.299 93.3193 102.088C93.2979 101.982 93.2979 101.929 93.2765 101.823C93.2336 101.664 93.1907 101.505 93.1478 101.346C93.062 101.028 92.9334 100.87 92.7618 100.975C92.4616 101.134 92.3115 101.558 92.2901 102.352C92.2901 102.723 92.4187 103.094 92.5688 103.147C92.6117 103.147 92.6546 103.147 92.6761 103.147ZM29.4839 11.7455C29.2695 11.6396 29.1623 11.4277 29.0765 11.11C28.9907 10.7393 28.8406 10.6334 28.6905 10.6334C28.5833 10.6334 28.4546 10.6864 28.3474 10.7393C28.2402 10.7923 28.133 11.163 28.1759 11.3748C28.2188 11.6396 28.2831 11.8514 28.3474 12.1162C28.4546 12.5398 28.4547 12.5398 28.6048 12.4339C28.712 12.3809 28.8192 12.275 28.9478 12.275C29.0979 12.275 29.248 12.275 29.3981 12.275C29.4839 12.275 29.5482 12.2221 29.6126 12.0632C29.5697 11.8514 29.5053 11.7455 29.4839 11.7455ZM113.947 48.8143C113.883 48.8143 113.926 48.8143 113.947 48.8143C114.055 48.7614 114.14 48.7084 114.14 48.6025C114.14 48.3907 114.076 48.3377 113.99 48.2318C113.776 47.967 113.561 47.8611 113.326 47.8082C113.175 47.8082 113.025 47.6493 112.897 47.4904C112.768 47.3316 112.704 47.3845 112.597 47.5963C112.511 47.8611 112.511 48.1259 112.618 48.2848C112.854 48.6025 113.111 48.8143 113.368 48.8143C113.54 48.8143 113.69 48.8143 113.947 48.8143ZM49.6188 12.7516C49.8332 12.7516 49.9833 12.7516 50.1334 12.7516C50.1977 12.7516 50.2621 12.5928 50.3478 12.5398C50.4122 12.4339 50.4765 12.275 50.455 12.0632C50.455 11.9043 50.3693 11.8514 50.2835 11.7984C49.9833 11.6396 49.6831 11.6396 49.3829 11.8514C49.3186 11.9043 49.2542 12.0103 49.1899 12.1162C49.1685 12.1691 49.147 12.275 49.1256 12.328C49.0827 12.5398 49.1256 12.6457 49.2328 12.6457C49.3829 12.6987 49.533 12.6987 49.6188 12.7516ZM52.6422 12.275C52.4063 12.275 52.1705 12.275 51.956 12.275C51.8917 12.275 51.8059 12.328 51.7416 12.3809C51.6987 12.3809 51.6773 12.4868 51.6558 12.5398C51.6773 12.5928 51.7202 12.6987 51.7416 12.6987C52.1061 12.9634 52.4921 12.8046 52.8566 12.8046C53.0496 12.8046 53.2212 12.9634 53.3927 13.1223C53.457 13.1753 53.5428 13.2282 53.6071 13.2282C53.6286 13.2282 53.6715 13.1223 53.6929 13.0694C53.7144 13.0164 53.6929 12.9105 53.6929 12.8575C53.6286 12.5928 53.5428 12.4339 53.4142 12.3809C53.1568 12.3809 52.8995 12.328 52.6422 12.275ZM86.8222 3.7492C86.7578 3.80216 86.6721 3.80215 86.6077 3.85511C86.5648 3.85511 86.5434 3.96103 86.522 4.01398C86.4147 4.17285 86.3719 4.49058 86.3933 4.7024C86.4362 4.96718 86.522 5.179 86.6292 5.23195C86.6935 5.28491 86.7793 5.28491 86.8436 5.23195C87.0151 5.07309 87.1867 4.91422 87.3797 4.80831C87.4654 4.75535 87.5083 4.64944 87.5083 4.49057C87.5083 4.43762 87.4654 4.33171 87.444 4.27876C87.3153 4.11989 87.1652 3.96102 87.0366 3.80215C86.9723 3.7492 86.8865 3.7492 86.8222 3.7492ZM102.025 102.088C101.918 102.088 101.832 102.088 101.768 102.14C101.682 102.193 101.639 102.352 101.639 102.511C101.618 102.723 101.661 102.882 101.746 102.935C101.961 103.147 102.197 103.094 102.433 103.041C102.475 103.041 102.497 102.988 102.54 102.935C102.626 102.882 102.668 102.723 102.647 102.458C102.626 102.299 102.561 102.14 102.497 102.14C102.304 102.14 102.154 102.088 102.025 102.088ZM16.7254 9.36247C16.7254 9.36247 16.7254 9.41543 16.7254 9.36247C16.9184 9.41543 17.1114 9.41543 17.3043 9.41543C17.4116 9.41543 17.5188 9.25656 17.6045 9.09769C17.626 9.04474 17.626 8.88587 17.626 8.83292C17.6045 8.67405 17.5617 8.51519 17.4759 8.46223C17.433 8.46223 17.3901 8.40928 17.3687 8.46223C17.047 8.83291 16.704 8.93883 16.3609 8.93883C16.2751 8.93883 16.2108 8.93883 16.125 8.99178C16.0821 8.99178 16.0392 9.04475 16.0392 9.15065C16.0178 9.25656 16.0607 9.41543 16.1679 9.41543C16.3394 9.41543 16.5324 9.36247 16.7254 9.36247ZM75.7147 3.96102C75.7362 4.06693 75.7362 4.17284 75.7576 4.2258C75.9077 4.7024 76.0578 5.12604 76.2937 5.28491C76.4009 5.39082 76.5081 5.54968 76.6154 5.65559C76.6368 5.65559 76.6797 5.54969 76.7011 5.49673C76.7226 5.44378 76.7226 5.28491 76.7011 5.23195C76.5939 4.75536 76.4438 4.27875 76.2508 3.96102C76.1222 3.69624 75.9721 3.69624 75.822 3.80215C75.7791 3.80215 75.7576 3.90806 75.7147 3.96102ZM11.8364 56.2281C11.9865 56.2281 12.1366 56.2281 12.2867 56.2281C12.3939 56.2281 12.4368 56.1222 12.4368 56.0162C12.4368 55.9103 12.3939 55.8574 12.3725 55.8044C12.3082 55.6985 12.2438 55.5926 12.1795 55.5397C12.0294 55.3808 11.9007 55.2749 11.7292 55.4867C11.5577 55.6456 11.3647 55.8044 11.1931 56.0162C11.1717 56.0162 11.1717 56.1222 11.1502 56.1751C11.1931 56.2281 11.2146 56.281 11.2575 56.281C11.4504 56.2281 11.6434 56.2281 11.8364 56.2281ZM5.03901 52.786C5.21056 52.733 5.33922 52.733 5.44644 52.6801C5.51076 52.6271 5.59653 52.5741 5.66086 52.4682C5.72519 52.3623 5.76808 52.2035 5.76808 51.9916C5.76808 51.9387 5.70375 51.8857 5.66086 51.8857C5.51076 51.8328 5.36065 51.7798 5.21055 51.7798C5.14623 51.7798 5.06045 51.8857 4.99613 51.9387C4.88891 52.0446 4.82458 52.4682 4.88891 52.6271C4.95324 52.733 5.01758 52.786 5.03901 52.786ZM97.0719 15.6642C96.9218 15.6642 96.7931 15.6642 96.6859 15.6642C96.643 15.6642 96.6001 15.6642 96.5787 15.7171C96.4929 15.7171 96.4286 15.823 96.3642 15.929C96.3857 16.0878 96.45 16.1408 96.5358 16.1937C96.836 16.3526 97.1576 16.1937 97.4364 16.5115C97.4578 16.5644 97.5007 16.5115 97.5436 16.5115C97.6294 16.4585 97.6723 16.3526 97.7151 16.1937C97.758 15.9819 97.7151 15.823 97.6079 15.823C97.3935 15.7701 97.222 15.7171 97.0719 15.6642ZM12.2653 5.60264C12.2867 5.92037 12.351 6.07924 12.4368 6.2381C12.5226 6.39697 12.6512 6.39696 12.737 6.18514C12.8228 5.97332 12.8657 5.7615 12.9086 5.49673C12.9514 5.23195 12.9086 4.96717 12.8013 4.91421C12.6084 4.86126 12.4368 4.96717 12.3082 5.33786C12.2867 5.44377 12.2867 5.54968 12.2653 5.60264ZM70.4612 99.8634C70.3969 99.9163 70.3111 99.9163 70.2468 99.9693C70.161 100.022 70.1181 100.128 70.1181 100.34C70.1181 100.552 70.1825 100.658 70.2468 100.658C70.354 100.605 70.4612 100.605 70.5684 100.764C70.74 100.975 70.9115 101.028 71.1045 100.923C71.1903 100.87 71.2546 100.817 71.2761 100.658C71.2761 100.658 71.2332 100.499 71.1903 100.499C71.0188 100.393 70.8258 100.234 70.6757 100.022C70.6113 99.9163 70.5256 99.9163 70.4612 99.8634ZM24.8737 96.3683C24.7665 96.4213 24.7021 96.4213 24.6164 96.4742C24.5091 96.5272 24.4877 96.6861 24.552 96.8979C24.7021 97.4274 24.9166 97.4804 25.1524 97.3745C25.2382 97.3215 25.2597 97.1627 25.2811 96.9508C25.2811 96.739 25.2597 96.5802 25.1739 96.5272C25.0667 96.4213 24.9594 96.4213 24.8737 96.3683ZM85.9216 101.558C85.8787 101.77 85.9001 101.876 86.0073 101.982C86.2003 102.088 86.3719 102.035 86.5434 101.876C86.6292 101.77 86.6721 101.664 86.6506 101.452C86.6292 101.293 86.5863 101.134 86.5005 101.081C86.3504 100.975 86.2003 101.028 86.0717 101.187C85.9859 101.24 85.943 101.399 85.9216 101.558ZM102.947 13.493C102.947 13.493 102.861 13.493 102.797 13.493C102.711 13.546 102.561 13.546 102.754 13.8107C102.776 13.8637 102.819 13.8637 102.861 13.8637C103.054 13.9166 103.226 14.0226 103.419 14.1814C103.44 14.1814 103.483 14.1814 103.505 14.1285C103.526 14.0755 103.569 14.0226 103.569 13.9167C103.569 13.8107 103.569 13.7048 103.548 13.6519C103.398 13.3871 103.205 13.493 102.947 13.493ZM109.123 12.328C109.058 12.328 108.973 12.328 108.908 12.381C108.844 12.4339 108.801 12.5928 108.78 12.7516C108.758 12.9635 108.78 13.0694 108.865 13.2282C109.016 13.4401 109.144 13.4401 109.273 13.2282C109.359 13.1223 109.38 12.9635 109.359 12.8046C109.337 12.6457 109.316 12.4869 109.23 12.381C109.209 12.328 109.166 12.328 109.123 12.328ZM16.9398 13.3341C17.0256 13.3341 17.0899 13.3341 17.1757 13.2812C17.2186 13.2812 17.24 13.2282 17.2829 13.1753C17.3687 13.1223 17.3901 12.9634 17.3258 12.7516C17.2186 12.3809 17.0042 12.275 16.8112 12.4868C16.7468 12.5928 16.7039 12.7516 16.6825 12.9634C16.6611 13.1753 16.7897 13.3341 16.9398 13.3341ZM23.5228 9.52134C23.1583 9.52134 23.0082 9.52134 22.8581 9.52134C22.7723 9.52134 22.708 9.68021 22.7508 9.78612C22.7723 9.83907 22.8152 9.89203 22.8366 9.89203C23.1368 9.89203 23.437 9.83907 23.7372 9.83907C23.7801 9.83907 23.8015 9.73316 23.823 9.68021C23.8015 9.62725 23.7801 9.57429 23.7372 9.52134C23.6086 9.41543 23.4585 9.46838 23.5228 9.52134ZM88.2374 4.86126C88.3232 4.86126 88.3875 4.86126 88.4733 4.80831C88.5161 4.80831 88.559 4.75535 88.5805 4.75535C88.6234 4.7024 88.6662 4.64944 88.6662 4.59649C88.6662 4.38466 88.6019 4.27875 88.5376 4.2258C88.3875 4.11989 88.2803 3.85512 88.1087 3.90807C88.0444 3.90807 87.9801 4.06693 87.9586 4.2258C87.9372 4.43762 87.9586 4.59649 88.0444 4.70241C88.0873 4.75536 88.1731 4.80831 88.2374 4.86126ZM69.2604 3.11373C69.3462 3.11373 69.4105 3.06078 69.4534 2.90191C69.4534 2.84896 69.432 2.74305 69.4105 2.69009C69.239 2.37236 69.0675 2.05462 68.8745 1.73689C68.7887 1.57802 68.7458 1.63098 68.7029 1.8428C68.6815 1.89576 68.6815 2.00167 68.6815 2.10758C68.7458 2.69009 68.9817 3.11373 69.2604 3.11373ZM21.5072 92.3967C21.2498 92.3967 21.1426 92.3967 21.0354 92.3967C20.9282 92.3967 20.8853 92.5555 20.9067 92.6614C20.9282 92.7144 20.9711 92.8203 20.9925 92.8203C21.1855 92.8203 21.3785 92.8203 21.5715 92.8203C21.6787 92.8203 21.7216 92.6614 21.7001 92.6085C21.6787 92.5555 21.6358 92.5026 21.6144 92.5026C21.5286 92.3967 21.4428 92.3967 21.5072 92.3967ZM15.8462 12.9105C15.6747 12.9105 15.6104 12.9105 15.5246 12.9105C15.4817 12.9105 15.4388 12.9105 15.4174 12.9634C15.3745 13.0164 15.353 13.0694 15.3316 13.1223C15.3316 13.1223 15.353 13.2282 15.3745 13.2812C15.6104 13.44 15.8248 13.493 16.125 13.2812C16.1464 13.2812 16.1679 13.1753 16.1893 13.1223C16.1679 13.0694 16.125 12.9634 16.1035 12.9634C15.9749 12.9105 15.8677 12.9105 15.8462 12.9105ZM14.9456 9.41543C14.7312 9.41543 14.6669 9.41543 14.6025 9.41543C14.5597 9.41543 14.5382 9.41543 14.4953 9.46839C14.4524 9.52135 14.431 9.57429 14.4096 9.62725C14.4096 9.62725 14.431 9.73316 14.4524 9.78612C14.7098 9.99794 14.9456 9.99794 15.203 9.78612C15.2244 9.78612 15.2458 9.6802 15.2458 9.62725C15.2244 9.57429 15.1815 9.46839 15.1601 9.46839C15.0314 9.41543 14.9242 9.41543 14.9456 9.41543ZM82.748 8.88588C82.555 8.88588 82.4478 8.88588 82.3406 8.88588C82.3192 8.88588 82.2763 8.9918 82.2548 9.04475C82.2334 9.15066 82.2977 9.30953 82.3835 9.30953C82.5979 9.36248 82.8123 9.36248 83.0268 9.20362C83.0482 9.20362 83.0697 9.09771 83.0911 9.04475C83.0697 8.9918 83.0268 8.93884 83.0053 8.88588C82.8767 8.88588 82.7695 8.88588 82.748 8.88588ZM10.9573 7.24425C10.7428 7.1913 10.5713 7.29721 10.4426 7.72085C10.4212 7.77381 10.3997 7.87972 10.3997 7.93268C10.4426 8.1445 10.507 8.19745 10.5927 8.1445C10.7214 7.98563 10.8715 7.82677 11.0001 7.6679C11.0859 7.56199 11.1074 7.40312 11.043 7.29721C11.0001 7.24425 10.9573 7.24425 10.9573 7.24425ZM100.288 16.8292C100.203 16.8292 100.052 16.8822 99.9023 16.9351C99.8594 16.9351 99.8165 17.041 99.8165 17.094C99.838 17.2529 99.8809 17.3058 99.9666 17.3588C100.16 17.4117 100.331 17.4117 100.524 17.3058C100.61 17.2528 100.674 17.1469 100.653 17.041C100.653 16.9881 100.588 16.9351 100.567 16.8822C100.503 16.8822 100.417 16.8822 100.288 16.8292ZM77.13 5.28491C77.2158 5.54969 77.323 5.86742 77.4302 6.1322C77.4945 6.29107 77.5588 6.29106 77.6232 6.18515C77.6661 6.02628 77.6661 5.86741 77.6446 5.65559C77.5803 5.2849 77.4516 5.07309 77.3015 5.02013C77.2586 5.02013 77.2372 5.02013 77.1943 5.07309C77.1514 5.12604 77.13 5.179 77.13 5.28491ZM37.1605 13.3871C37.0961 13.3871 37.0104 13.3871 36.946 13.44C36.9031 13.44 36.8603 13.546 36.8603 13.5989C36.8603 13.7048 36.9031 13.8637 36.9889 13.8637C37.0961 13.9166 37.2033 13.8637 37.3106 13.8637C37.3963 13.8637 37.4821 13.7048 37.4607 13.5989C37.4392 13.44 37.3534 13.3871 37.2677 13.3871C37.2248 13.3871 37.2033 13.3871 37.1605 13.3871ZM103.269 9.68021C103.247 9.73317 103.205 9.83908 103.205 9.89204C103.205 9.99795 103.205 10.1039 103.226 10.1568C103.333 10.4745 103.676 10.5275 103.741 10.2627C103.741 10.2098 103.719 10.1039 103.698 10.0509C103.548 9.89204 103.419 9.68021 103.269 9.68021ZM61.5839 4.33171C61.5625 4.33171 61.5196 4.33171 61.4981 4.38466C61.4552 4.43762 61.4124 4.43762 61.4124 4.54353C61.4124 4.64944 61.4552 4.80831 61.541 4.80831C61.6482 4.80831 61.7554 4.80831 61.8626 4.80831C61.9484 4.80831 62.0342 4.64944 62.0128 4.59648C61.9913 4.43762 61.9055 4.38466 61.8198 4.38466C61.7554 4.33171 61.6697 4.33171 61.5839 4.33171ZM113.883 100.923C113.883 101.134 113.926 101.24 114.012 101.293C114.097 101.346 114.162 101.24 114.205 101.081C114.269 100.817 114.14 100.499 114.033 100.552C113.947 100.605 113.905 100.711 113.883 100.923ZM15.4603 77.4632C15.4603 77.6221 15.5031 77.781 15.5675 77.8339C15.6747 77.9398 15.8033 77.675 15.7819 77.4103C15.7605 77.2514 15.739 77.0925 15.6747 77.0396C15.5675 76.9337 15.4603 77.1984 15.4603 77.4632ZM84.9995 4.49057C85.021 4.54353 85.021 4.64945 85.0424 4.7024C85.1282 4.86126 85.2568 4.86126 85.364 4.80831C85.3855 4.80831 85.4498 4.7024 85.4498 4.64944C85.4498 4.49057 85.4069 4.38466 85.3212 4.33171C85.1282 4.2258 85.021 4.33171 84.9995 4.49057ZM24.2947 5.12604C24.2733 5.17899 24.2304 5.2849 24.2304 5.33786C24.209 5.54968 24.2518 5.70855 24.3162 5.81446C24.3805 5.92036 24.4448 5.92036 24.5092 5.81446C24.552 5.70855 24.552 5.54967 24.4877 5.39081C24.4234 5.17899 24.3805 5.12604 24.2947 5.12604ZM44.644 5.39081C44.5797 5.39081 44.5154 5.49673 44.451 5.60264C44.4939 5.76151 44.5583 5.86742 44.6226 5.86742C44.7727 5.92037 44.9228 5.81445 44.9013 5.65559C44.9228 5.54968 44.7727 5.39081 44.644 5.39081ZM14.8813 7.6679C14.8813 7.61494 14.8813 7.50903 14.8599 7.45608C14.817 7.29721 14.7526 7.24425 14.6883 7.24425C14.6669 7.24425 14.624 7.29721 14.6025 7.40312C14.5597 7.56199 14.6454 7.82677 14.7741 7.93268C14.817 7.98563 14.8599 7.87972 14.8813 7.6679ZM99.838 8.62111C99.9238 8.83293 100.031 8.83292 100.138 8.72701C100.267 8.6211 100.267 8.5152 100.16 8.40928C100.052 8.30337 99.9452 8.30337 99.8594 8.46224C99.838 8.46224 99.8165 8.56815 99.838 8.62111ZM18.2907 9.15065C18.3122 9.2036 18.3336 9.30952 18.3765 9.30952C18.4623 9.36248 18.5266 9.25656 18.5695 9.09769C18.6124 8.93883 18.6124 8.77997 18.5695 8.6211C18.5266 8.51519 18.4623 8.51519 18.3979 8.67406C18.3122 8.83292 18.2907 8.99179 18.2907 9.15065ZM84.2919 8.88588C84.2061 8.83293 84.1418 8.88588 84.0989 9.04475C84.1418 9.20362 84.2061 9.25657 84.2705 9.25657C84.4206 9.25657 84.5492 9.15066 84.4849 9.04475C84.4206 8.93884 84.3562 8.88588 84.2919 8.88588ZM11.0859 9.41543C11.0001 9.41543 10.9358 9.46838 10.8929 9.62725C10.9144 9.78612 10.9787 9.89203 11.0645 9.89203C11.2146 9.89203 11.3432 9.73316 11.3003 9.62725C11.236 9.46838 11.1717 9.41543 11.0859 9.41543ZM98.8087 16.8292C98.8087 16.9881 98.8302 17.1469 98.9159 17.1999C98.9803 17.3058 99.066 17.2529 99.1089 17.094C99.1304 16.9351 99.0875 16.7762 99.0446 16.6703C98.9803 16.5115 98.9159 16.5115 98.8731 16.6174C98.8302 16.6703 98.8087 16.7763 98.8087 16.8292ZM16.2322 77.781C16.2751 77.9398 16.3609 77.9928 16.4252 77.9928C16.511 77.9928 16.5753 77.9398 16.6182 77.781C16.6182 77.781 16.5967 77.6221 16.5753 77.6221C16.4681 77.5162 16.3609 77.4632 16.2536 77.6221C16.2536 77.6221 16.2536 77.728 16.2322 77.781ZM58.8821 95.521C58.9679 95.7329 59.2252 95.6799 59.2681 95.4681C59.2681 95.4151 59.2252 95.3092 59.2037 95.2563C59.0965 95.1504 58.9893 95.2033 58.9035 95.3622C58.8821 95.4151 58.8821 95.4681 58.8821 95.521ZM28.0472 98.0629C28.0258 98.1688 28.0043 98.2747 28.0043 98.3277C28.0472 98.5395 28.1116 98.5925 28.1973 98.4865C28.2831 98.3806 28.326 98.2218 28.3045 98.0099C28.3045 97.904 28.2617 97.7981 28.2402 97.7981C28.1759 97.7452 28.0901 97.8511 28.0472 98.0629ZM93.9412 102.723C93.8983 102.723 93.8769 102.723 93.834 102.776C93.7482 102.829 93.7268 102.988 93.7268 103.2C93.7268 103.253 93.7482 103.358 93.7696 103.411C93.834 103.517 93.8769 103.464 93.9412 103.306C94.0055 103.147 94.027 103.041 94.0055 102.882C94.0055 102.776 93.9626 102.776 93.9412 102.723ZM79.8532 3.32556C79.8103 3.21965 79.746 3.16668 79.6602 3.16668C79.5745 3.16668 79.5101 3.21965 79.4673 3.32556C79.4673 3.32556 79.4887 3.43147 79.5101 3.48442C79.6174 3.59034 79.7246 3.59034 79.8103 3.48442C79.8318 3.43147 79.8318 3.37851 79.8532 3.32556ZM106.442 103.676C106.464 103.623 106.528 103.517 106.528 103.464C106.507 103.253 106.421 103.2 106.357 103.253C106.335 103.306 106.271 103.411 106.292 103.411C106.292 103.676 106.378 103.729 106.442 103.676ZM105.199 103.306C105.177 103.358 105.134 103.411 105.113 103.464C105.134 103.517 105.156 103.623 105.177 103.623C105.242 103.676 105.306 103.623 105.349 103.464C105.349 103.464 105.306 103.306 105.284 103.306C105.284 103.306 105.242 103.306 105.199 103.306ZM84.9352 101.823C84.9352 101.77 84.9352 101.664 84.9137 101.664C84.8923 101.611 84.8494 101.611 84.8065 101.611C84.7208 101.717 84.7207 101.823 84.828 101.876C84.8709 101.929 84.9137 101.876 84.9352 101.823ZM112.768 101.134C112.789 101.187 112.811 101.293 112.832 101.293C112.897 101.346 112.961 101.293 113.004 101.134C113.004 101.134 112.961 100.975 112.94 100.975C112.875 100.923 112.811 100.975 112.768 101.134ZM115.856 48.4436C115.834 48.4966 115.791 48.5495 115.77 48.5495C115.791 48.6025 115.813 48.6554 115.834 48.7084C115.856 48.7614 115.899 48.7614 115.92 48.7084C115.942 48.7084 116.006 48.6025 116.006 48.6025C115.984 48.4436 115.92 48.3907 115.856 48.4436ZM1.95125 35.8402C1.92981 35.8932 1.88692 35.9461 1.86547 35.9461C1.88692 35.9991 1.90836 36.105 1.95125 36.105C2.05846 36.1579 2.10135 36.052 2.05846 35.8932C2.01558 35.8402 1.97269 35.8402 1.95125 35.8402ZM92.2043 15.4524C92.2687 15.5583 92.333 15.5053 92.3759 15.4524C92.3544 15.3994 92.333 15.3464 92.2901 15.3464C92.2687 15.3464 92.2258 15.3464 92.2043 15.3994C92.2043 15.3464 92.2043 15.3994 92.2043 15.4524ZM104.984 12.9105C104.963 12.9635 104.92 13.0164 104.899 13.0694C104.92 13.1223 104.941 13.2282 104.984 13.2282C105.091 13.2812 105.134 13.1753 105.091 13.0164C105.07 12.9105 105.006 12.9105 104.984 12.9105ZM21.55 8.6211C21.5929 8.67406 21.6144 8.72701 21.6573 8.67406C21.7001 8.67406 21.7216 8.56814 21.743 8.51519C21.7216 8.46223 21.7001 8.35632 21.6573 8.35632C21.6358 8.35632 21.5929 8.35632 21.55 8.40928C21.55 8.46223 21.55 8.56814 21.55 8.6211ZM75.243 7.35018C75.2644 7.40313 75.2859 7.50904 75.3073 7.50904C75.3717 7.56199 75.436 7.50904 75.5003 7.40313C75.4789 7.35017 75.4574 7.24426 75.436 7.24426C75.3502 7.13835 75.2859 7.19131 75.243 7.35018ZM72.4983 4.59648C72.5198 4.59648 72.5626 4.64944 72.5841 4.64944C72.6055 4.64944 72.6484 4.59648 72.6699 4.54353C72.6484 4.49057 72.627 4.43762 72.5841 4.38466C72.5626 4.38466 72.5198 4.38467 72.4769 4.43763C72.4983 4.43763 72.5198 4.54353 72.4983 4.59648ZM19.8989 13.7578L19.9418 13.6519L19.8775 13.6519L19.8989 13.7578ZM18.9769 10.1568L18.934 10.3157L18.9983 10.3157L18.9769 10.1568ZM92.3973 4.64944L92.4402 4.54353L92.3759 4.54353L92.3973 4.64944Z" fill="white"/>
<path d="M53.285 2.00269C52.899 1.94973 52.5345 1.89678 52.1914 1.36722C52.17 1.31427 52.1271 1.20835 52.1271 1.15539C52.1271 0.996528 52.17 0.890622 52.2558 0.837666C52.4487 0.731755 52.6203 0.572884 52.7918 0.361062C53.0277 0.0433292 53.2636 -0.115537 53.5423 0.0962847C53.8425 0.308107 54.1427 0.202197 54.4429 0.255153C54.5501 0.255153 54.6574 0.30811 54.786 0.414021C54.8718 0.466977 54.9147 0.625841 54.9361 0.784708C54.9576 0.99653 54.9361 1.1554 54.8503 1.20835C54.786 1.26131 54.7217 1.36722 54.6359 1.36722C54.4429 1.42018 54.2714 1.47313 54.0784 1.68495C53.8211 1.94973 53.5638 1.89677 53.285 2.00269Z" fill="#00659E"/>
<path d="M114.805 108.232C114.826 108.073 114.848 107.861 114.891 107.755C115.019 107.384 115.191 107.225 115.405 107.278C115.577 107.331 115.684 107.543 115.748 107.914C115.791 108.073 115.77 108.285 115.706 108.443C115.534 108.867 115.32 109.079 115.084 108.973C114.976 108.92 114.869 108.761 114.805 108.549C114.805 108.496 114.805 108.338 114.805 108.232Z" fill="#00659E"/>
<path d="M79.6601 101.771C79.7888 101.877 79.8745 102.036 79.9174 102.3C79.9818 102.565 79.9603 102.83 79.8531 102.989C79.7244 103.201 79.5743 103.254 79.4457 103.148C79.4028 103.148 79.3814 103.095 79.3385 103.042C79.2527 102.936 79.1669 102.512 79.2098 102.353C79.2527 102.195 79.317 102.089 79.3814 102.036C79.4886 101.93 79.5743 101.824 79.6601 101.771Z" fill="#00659E"/>
<path d="M36.9248 96.8461C36.8391 97.2697 36.7747 97.6934 36.689 98.0641C36.6461 98.2759 36.5818 98.3289 36.5174 98.3289C36.4102 98.2759 36.303 97.9052 36.3244 97.7463C36.3244 97.6404 36.3459 97.5875 36.3673 97.4816C36.4531 97.1638 36.5818 96.952 36.7319 96.952C36.7962 96.952 36.882 96.952 36.9463 96.8991L36.9248 96.8461Z" fill="#00659E"/>
<path d="M9.67089 56.812C9.73522 56.759 9.82099 56.6531 9.88532 56.6531C9.90676 56.6531 9.94964 56.7061 9.97109 56.759C10.014 56.9179 10.014 57.0767 9.94965 57.1827C9.82099 57.3945 9.67089 57.3415 9.52079 57.3415C9.43502 57.3415 9.37069 57.2886 9.30636 57.1827C9.3278 57.0238 9.39213 56.9708 9.45646 56.9179C9.52079 56.8649 9.58512 56.812 9.67089 56.812Z" fill="#00659E"/>
<path d="M16.1463 86.0435C16.082 86.0435 15.9962 86.0435 15.9319 85.9905C15.8461 85.9905 15.7818 85.8846 15.7818 85.7257C15.7818 85.5139 15.8461 85.408 15.9319 85.355C15.9962 85.3021 16.0606 85.1962 16.1463 85.1432C16.2321 85.0903 16.3608 85.1962 16.4251 85.4609C16.4465 85.5139 16.4465 85.6728 16.4465 85.7257C16.4251 85.8846 16.3608 85.9375 16.275 85.9905C16.2321 86.0435 16.1892 86.0435 16.1463 86.0435Z" fill="#00659E"/>
<path d="M0.000294853 48.6041C0.0217377 48.5511 0.0217404 48.4452 0.0431832 48.4452C0.150398 48.3393 0.257612 48.3393 0.364826 48.4452C0.386269 48.4452 0.407715 48.6041 0.407715 48.6041C0.364829 48.763 0.279052 48.8159 0.214724 48.8159C0.128952 48.8159 0.0646235 48.763 0.000294853 48.6041Z" fill="#00659E"/>
<path d="M45.6083 98.3292C45.5868 98.1173 45.6726 97.8526 45.7798 97.7467C45.8012 97.7467 45.8441 97.7467 45.8656 97.7996C45.9299 97.9585 45.9299 98.1173 45.8656 98.2762C45.8227 98.4351 45.7584 98.488 45.6726 98.488C45.6726 98.488 45.6297 98.3821 45.6083 98.3292Z" fill="#00659E"/>
<path d="M66.7088 100.659C66.7302 100.606 66.7302 100.5 66.7517 100.447C66.8589 100.288 66.9661 100.341 67.0733 100.447C67.0948 100.5 67.1162 100.606 67.1162 100.606C67.0733 100.765 66.9876 100.818 66.9232 100.818C66.8375 100.818 66.7731 100.765 66.7088 100.659Z" fill="#00659E"/>
<path d="M112.061 107.808C112.147 107.808 112.211 107.808 112.254 107.967C112.297 108.125 112.19 108.284 112.04 108.231C111.954 108.231 111.911 108.125 111.868 107.967C111.932 107.861 111.997 107.808 112.061 107.808Z" fill="#00659E"/>
<path d="M80.6466 102.512C80.6251 102.459 80.5822 102.354 80.5822 102.354C80.6037 102.195 80.668 102.142 80.7538 102.195C80.7752 102.195 80.8181 102.354 80.8181 102.354C80.7752 102.512 80.7109 102.565 80.6466 102.512Z" fill="#00659E"/>
<path d="M75.2224 101.824C75.1795 101.877 75.1581 101.93 75.1152 101.93C75.008 101.877 74.9865 101.718 75.0938 101.612C75.1152 101.559 75.1795 101.612 75.201 101.665C75.2224 101.665 75.2224 101.771 75.2224 101.824Z" fill="#00659E"/>
<path d="M62.9135 100.977C62.9564 101.083 62.9993 101.136 62.9993 101.189C62.9564 101.348 62.892 101.401 62.8277 101.348C62.8063 101.295 62.742 101.189 62.7634 101.189C62.7848 100.977 62.8492 100.924 62.9135 100.977Z" fill="#00659E"/>
<path d="M58.4738 99.6528C58.4524 99.6528 58.388 99.5999 58.388 99.5469C58.3666 99.3881 58.4309 99.2821 58.5167 99.3351C58.5381 99.3351 58.5596 99.441 58.5596 99.494C58.5167 99.5469 58.4952 99.6528 58.4738 99.6528Z" fill="#00659E"/>
<path d="M43.8499 97.5874C43.8928 97.6404 43.9357 97.6404 43.9357 97.6933C43.9786 97.8522 43.9357 97.9581 43.8285 97.9052C43.8071 97.9052 43.7856 97.7993 43.7427 97.7463C43.7856 97.6933 43.8285 97.6404 43.8499 97.5874Z" fill="#00659E"/>
<path d="M35.1666 97.7467C35.2095 97.5878 35.2738 97.4819 35.3596 97.5878C35.381 97.6408 35.4453 97.7467 35.4239 97.7997C35.381 98.0115 35.3167 98.0644 35.2309 97.9585C35.2095 97.9056 35.188 97.7997 35.1666 97.7467Z" fill="#00659E"/>
<path d="M19.1699 97.8524C19.1485 97.8524 19.1056 97.9583 19.0841 97.9053C18.9769 97.8524 18.9769 97.7465 19.0627 97.6406C19.0842 97.5876 19.127 97.6406 19.1699 97.6935C19.1699 97.6935 19.1699 97.7465 19.1699 97.8524Z" fill="#00659E"/>
<path d="M45.3517 96.4228C45.3731 96.4757 45.416 96.5817 45.416 96.6346C45.3946 96.8464 45.3088 96.8994 45.2445 96.7935C45.223 96.7405 45.1587 96.6346 45.1801 96.5817C45.1801 96.4228 45.2659 96.3169 45.3517 96.4228Z" fill="#00659E"/>
<path d="M17.8188 94.3047C17.8617 94.1458 17.926 94.0929 17.9904 94.1458C18.0118 94.1988 18.0547 94.3047 18.0547 94.3047C18.0118 94.4635 17.9475 94.5165 17.8831 94.4635C17.8403 94.4635 17.8403 94.4106 17.8188 94.3047Z" fill="#00659E"/>
<path d="M117.743 88.9032C117.807 89.0091 117.872 89.115 117.915 89.2209C117.958 89.3798 117.958 89.5386 117.893 89.6445C117.872 89.6445 117.829 89.6445 117.829 89.5916C117.786 89.5386 117.786 89.4857 117.765 89.3798C117.765 89.2209 117.765 89.0091 117.765 88.8502L117.743 88.9032Z" fill="#00659E"/>
<path d="M14.1096 82.9189C14.1525 82.7601 14.2168 82.7071 14.2811 82.7601C14.3026 82.813 14.3455 82.9189 14.3455 82.9189C14.3026 83.0778 14.2382 83.1308 14.1739 83.0778C14.1525 83.0248 14.131 82.9719 14.1096 82.9189Z" fill="#00659E"/>
<path d="M13.4664 76.6705C13.4664 76.6175 13.4664 76.5116 13.4664 76.5116C13.4879 76.4587 13.5308 76.4586 13.5737 76.4586C13.5951 76.4586 13.638 76.5646 13.6594 76.6175C13.638 76.6705 13.5951 76.7234 13.5737 76.7234C13.5308 76.7764 13.4879 76.7234 13.4664 76.6705Z" fill="#00659E"/>
<path d="M0.921835 48.5509C0.964721 48.392 1.02906 48.2861 1.09339 48.392C1.11483 48.445 1.15771 48.5509 1.15771 48.5509C1.11483 48.7627 1.0505 48.8157 0.986174 48.7097C0.964732 48.7097 0.943278 48.6038 0.921835 48.5509Z" fill="#00659E"/>
<path d="M5.81044 10.8994C5.81044 10.8465 5.81044 10.7406 5.81044 10.7406C5.83188 10.6876 5.87477 10.6876 5.91765 10.6876C5.9391 10.6876 5.96053 10.7935 6.00342 10.8465C5.98198 10.8994 5.9391 10.9524 5.91765 10.9524C5.87477 10.9524 5.85333 10.8994 5.81044 10.8994Z" fill="#00659E"/>
<path d="M77.9026 102.089C77.9883 102.142 78.0098 102.195 78.0098 102.354C77.9883 102.354 77.9669 102.301 77.9454 102.301C77.924 102.248 77.924 102.142 77.924 102.089L77.9026 102.089Z" fill="#00659E"/>
<path d="M72.8199 102.036C72.7984 102.248 72.777 102.301 72.7127 102.301C72.7341 102.248 72.7341 102.195 72.7555 102.142C72.777 102.089 72.8199 102.089 72.8413 102.089L72.8199 102.036Z" fill="#00659E"/>
<path d="M77.9229 102.036C77.8156 102.036 77.7942 101.93 77.7942 101.771C77.8156 101.771 77.8585 101.824 77.8585 101.824C77.88 101.877 77.88 101.983 77.9014 102.089L77.9229 102.036Z" fill="#00659E"/>
<path d="M72.8418 102.089C72.8418 101.93 72.8633 101.771 72.9276 101.665C72.9276 101.665 72.9705 101.771 72.9919 101.824C72.9491 101.93 72.8847 102.036 72.8204 102.036L72.8418 102.089Z" fill="#00659E"/>
<path d="M65.1648 100.341C65.2506 100.394 65.2935 100.447 65.2935 100.553C65.272 100.553 65.2291 100.553 65.2291 100.5C65.2077 100.447 65.2077 100.341 65.1862 100.288L65.1648 100.341Z" fill="#00659E"/>
<path d="M1.9519 52.8404C1.9519 53.0522 1.90902 53.1581 1.84469 53.1052C1.84469 53.0522 1.86613 52.9992 1.86613 52.9463C1.88757 52.8933 1.93046 52.8933 1.9519 52.8933L1.9519 52.8404Z" fill="#00659E"/>
<path d="M1.97262 52.8931C1.99406 52.6812 2.01551 52.5753 2.07983 52.6283C2.07983 52.6812 2.05839 52.7342 2.03695 52.7872C2.0155 52.8401 1.97262 52.8401 1.95118 52.8931L1.97262 52.8931Z" fill="#00659E"/>
<path d="M20.9487 11.6941C20.8629 11.6412 20.8201 11.5353 20.7772 11.3764C20.7343 11.1116 20.7557 10.8468 20.8629 10.688C20.8844 10.635 20.9273 10.635 20.9702 10.635C21.0559 10.688 21.0988 10.8468 21.0559 11.0057C21.013 11.2705 20.9702 11.4823 20.9058 11.7471L20.9487 11.6941Z" fill="#00659E"/>
<path d="M21.8933 10.5287C21.7861 10.5816 21.6789 10.5816 21.5931 10.4757C21.5717 10.4228 21.5288 10.3169 21.5288 10.3169C21.5502 10.105 21.6146 10.0521 21.7003 10.105C21.7861 10.105 21.8075 10.158 21.8933 10.5287Z" fill="#00659E"/>
<path d="M19.7915 10.5818C19.7915 10.37 19.8344 10.2641 19.8987 10.2641C19.8987 10.317 19.8987 10.4229 19.8772 10.4229C19.8558 10.4759 19.8129 10.4759 19.7915 10.5818Z" fill="#00659E"/>
<path d="M63.5 61.5H60.0625V64.875H63.5V61.5Z" fill="#00659E"/>
<path d="M53.1875 41.25H49.75V44.625H53.1875V41.25Z" fill="#00659E"/>
<path d="M84.125 21H73.8125C70.0156 21 66.9375 24.0221 66.9375 27.75V31.125H36V75H82.4062C87.1501 74.9944 90.9943 71.2201 91 66.5625V27.75C91 24.0221 87.9219 21 84.125 21ZM82.4062 71.625H39.4375V64.875H56.625V61.5H39.4375V54.75H53.1875V51.375H39.4375V44.625H46.3125V41.25H39.4375V34.5H66.9375V63.1875C66.9375 65.9835 69.246 68.25 72.0938 68.25H82.4062V61.5C85.254 61.5 87.5625 63.7665 87.5625 66.5625C87.5625 69.3585 85.254 71.625 82.4062 71.625ZM70.375 63.1875C70.375 62.2555 71.1445 61.5 72.0938 61.5H78.9688V64.875H72.0938C71.1445 64.875 70.375 64.1195 70.375 63.1875ZM87.5625 59.8564C86.0837 58.7396 84.272 58.1312 82.4062 58.125H72.0938C71.5069 58.1306 70.9254 58.2356 70.375 58.4355V27.75C70.375 25.8861 71.914 24.375 73.8125 24.375H84.125C86.0235 24.375 87.5625 25.8861 87.5625 27.75V59.8564Z" fill="#00659E"/>
</svg>
