<svg width="120" height="101" viewBox="0 0 120 101" fill="none" xmlns="http://www.w3.org/2000/svg">
<path d="M115.018 27.5666C115.249 27.5666 115.48 27.6064 115.69 27.6064C115.795 27.6064 115.922 27.6462 116.027 27.7258C116.321 27.9646 116.615 28.0044 116.909 28.0044C117.182 28.0044 117.434 28.0044 117.708 28.0044C117.855 28.0044 118.023 28.0044 118.149 28.084C118.464 28.283 118.8 28.3626 119.137 28.4422C119.2 28.4422 119.284 28.5616 119.326 28.681C119.389 28.8402 119.473 29.0392 119.494 29.2382C119.641 30.1138 119.809 30.9893 119.977 31.8649C120.019 32.0639 119.998 32.3027 119.956 32.5017C119.83 32.9395 119.788 33.4171 119.725 33.9345C119.662 34.4917 119.557 35.0091 119.494 35.6061C119.452 35.9245 119.452 36.1633 119.557 36.4021C119.599 36.5215 119.641 36.6409 119.683 36.7603C119.809 37.2379 119.809 37.7155 119.725 38.193C119.662 38.4716 119.536 38.6308 119.389 38.7104C119.242 38.79 119.095 38.79 118.947 38.8298C118.842 38.8696 118.716 38.9094 118.611 38.9492C118.527 38.989 118.485 39.1084 118.506 39.2676C118.506 39.3074 118.548 39.387 118.569 39.4268C118.59 39.4666 118.632 39.5462 118.653 39.5462C119.031 39.6258 119.389 39.9044 119.704 40.2626C119.746 40.3024 119.767 40.3422 119.788 40.382C119.872 40.5014 119.893 40.78 119.788 40.8994C119.473 41.2576 119.494 41.6556 119.62 42.173C119.683 42.4118 119.746 42.6904 119.746 42.969C119.746 43.3272 119.767 43.6854 119.746 44.0436C119.704 44.4018 119.62 44.7202 119.41 44.7998C119.368 44.7998 119.326 44.8396 119.305 44.8794C119.263 44.9192 119.221 44.9988 119.221 44.9988C119.263 45.1182 119.326 45.158 119.41 45.1978C119.515 45.2375 119.641 45.2375 119.746 45.2773C119.83 45.3171 119.935 45.6355 119.914 45.7947C119.872 46.1529 119.767 46.4713 119.83 46.8295C119.872 47.1479 119.851 47.2275 119.746 47.3469C119.578 47.5061 119.41 47.7051 119.263 47.8643C119.158 47.9837 119.137 48.3021 119.221 48.4215C119.284 48.5011 119.326 48.6205 119.389 48.7001C119.473 48.8593 119.557 48.9787 119.641 49.1379C119.725 49.2971 119.725 49.5757 119.662 49.7349C119.599 49.8145 119.557 49.9339 119.494 50.0135C119.347 50.2125 119.2 50.4513 119.095 50.7697C118.989 51.1279 118.821 51.2075 118.611 51.2473C118.464 51.2871 118.317 51.2871 118.17 51.3667C118.086 51.4065 118.044 51.5259 118.044 51.6851C118.044 51.8045 118.107 51.9637 118.191 51.9637C118.569 52.0433 118.947 52.0433 119.326 52.1229C119.389 52.1229 119.473 52.2423 119.536 52.2821C119.683 52.4413 119.725 52.7597 119.62 52.9586C119.41 53.3566 119.326 53.7546 119.494 54.3118C119.557 54.5108 119.536 54.7098 119.431 54.869C119.41 54.9088 119.368 54.9884 119.347 54.9884C119.2 55.068 119.053 55.1078 118.905 55.068C118.338 54.9884 117.771 55.1078 117.203 55.1078C117.161 55.1078 117.119 55.1476 117.098 55.1476C117.056 55.1874 117.035 55.2272 117.014 55.267C117.056 55.3068 117.077 55.3466 117.119 55.3864C117.371 55.5058 117.645 55.3864 117.918 55.466C118.023 55.5058 118.149 55.466 118.254 55.5854C118.611 55.9436 118.968 55.9436 119.347 55.9834C119.431 55.9834 119.473 56.1426 119.452 56.2222C119.431 56.262 119.41 56.3416 119.368 56.3416C119.326 56.3814 119.284 56.3814 119.263 56.3814C118.968 56.3814 118.653 56.3814 118.38 56.66C118.002 56.7794 117.666 57.1376 117.308 57.3366C117.287 57.3366 117.266 57.456 117.224 57.4958C117.245 57.5356 117.287 57.5754 117.308 57.6152C117.413 57.6948 117.519 57.6948 117.645 57.6948C118.023 57.6948 118.401 57.6948 118.779 57.6948C118.968 57.6948 119.137 57.8938 119.284 58.1326C119.368 58.2918 119.368 58.5306 119.305 58.6898C119.263 58.8092 119.2 58.849 119.116 58.9286C118.989 59.048 118.989 59.247 119.074 59.446C119.221 59.8838 119.494 60.043 119.704 60.3216C119.767 60.441 119.788 60.5603 119.767 60.7195C119.767 60.7991 119.746 60.8389 119.725 60.9185C119.683 61.0379 119.662 61.1573 119.62 61.3165C119.494 61.8339 119.368 61.8737 119.179 61.7543C118.989 61.6349 118.8 61.6349 118.632 61.7941C118.485 61.9135 118.338 61.9931 118.212 62.1523C118.002 62.3911 117.792 62.4309 117.561 62.4309C116.762 62.3911 115.964 62.3911 115.186 62.4309C114.955 62.4309 114.892 62.6299 114.976 62.9483C115.081 63.3861 115.039 63.7841 114.955 64.1821C114.913 64.3811 114.955 64.5801 115.039 64.7393C115.165 65.0179 115.312 65.2169 115.417 65.5353C115.48 65.7343 115.48 65.9731 115.417 66.1323C115.333 66.3711 115.207 66.5303 115.102 66.7293C114.892 67.0875 114.808 67.5651 114.787 68.0825C114.787 68.2814 114.787 68.5202 114.787 68.7192C114.787 69.0774 114.829 69.4356 114.955 69.7142C115.018 69.8734 115.102 70.0724 115.165 70.2316C115.228 70.4306 115.249 70.6296 115.249 70.8286C115.249 71.2664 115.207 71.6644 115.102 72.0624C115.039 72.3012 114.955 72.54 114.892 72.8186C114.85 73.0176 114.85 73.2166 114.892 73.4554C114.934 73.5748 114.955 73.6942 114.997 73.8534C115.018 73.9728 115.06 74.132 115.06 74.2514C115.039 74.729 115.081 75.2464 114.934 75.724C114.85 76.0424 114.808 76.4005 114.829 76.7587C114.871 77.4751 114.829 78.1915 114.745 78.9079C114.703 79.1865 114.703 79.4651 114.745 79.7437C114.808 80.2213 114.892 80.6989 114.997 81.1765C115.018 81.2959 115.018 81.4551 114.976 81.5745C114.871 82.0521 114.808 82.5297 114.808 83.0471C114.808 83.4053 114.724 83.7236 114.619 84.042C114.514 84.3206 114.451 84.6788 114.43 85.037C114.409 85.6738 114.367 86.3106 114.367 86.9474C114.367 87.4648 114.324 87.9424 114.198 88.3802C114.177 88.4598 114.177 88.4996 114.156 88.5792C114.114 89.0568 114.135 89.5742 114.009 90.0518C114.03 90.211 114.03 90.3304 114.051 90.4896C114.051 90.6488 114.093 90.808 114.051 90.9274C113.925 91.4845 113.904 92.0417 113.925 92.5989C113.946 93.0367 113.904 93.4745 113.799 93.8327C113.736 94.0317 113.715 94.2307 113.715 94.4297C113.694 94.7879 113.694 95.1461 113.652 95.5043C113.631 95.7829 113.526 96.0217 113.4 96.1809C113.127 96.5391 112.875 96.8575 112.559 96.8575C112.433 96.8575 112.349 96.9371 112.244 97.0565C112.097 97.1759 111.95 97.2157 111.803 97.2555C111.53 97.2953 111.278 97.2953 111.004 97.3351C110.857 97.3749 110.689 97.3351 110.563 97.4545C110.143 97.6535 109.744 97.6933 109.323 97.6933C108.231 97.6933 107.138 97.7331 106.024 97.7331C105.037 97.7331 104.049 97.7331 103.082 97.7331C102.767 97.7331 102.473 97.7729 102.2 97.9719C102.053 98.0515 101.885 98.0515 101.737 97.9719C101.674 97.9321 101.59 97.8923 101.527 97.8525C101.338 97.7729 101.149 97.7729 100.96 97.8923C100.813 97.9719 100.666 98.0515 100.519 98.0515C99.5731 98.0515 98.6275 98.1709 97.6819 98.1311C97.0094 98.0913 96.316 98.1709 95.6436 98.1709C95.4124 98.1709 95.2023 98.2505 94.9711 98.3699C94.8661 98.4495 94.74 98.4893 94.6349 98.4893C93.9205 98.5291 93.206 98.5689 92.4915 98.6087C92.3445 98.6087 92.1974 98.6883 92.0503 98.7678C91.9452 98.8474 91.8401 98.8474 91.714 98.8076C91.5249 98.6883 91.3358 98.6485 91.1677 98.8076C90.9155 99.0066 90.6424 99.0066 90.3902 99.0464C90.096 99.0862 89.7808 99.0464 89.4866 99.0464C89.1924 99.0464 88.8772 99.126 88.583 99.2852C88.2889 99.4444 87.9737 99.4444 87.6795 99.2852C87.3222 99.0862 86.944 99.0464 86.5868 98.7678C86.4817 98.6882 86.3556 98.728 86.2506 98.8076C86.0825 98.9668 85.8933 99.0464 85.7042 99.0464C85.431 99.0862 85.1789 99.0862 84.9267 99.2852C84.8216 99.3648 84.7166 99.3648 84.5905 99.4046C84.4224 99.4444 82.1529 99.4046 81.9848 99.3648C81.8798 99.325 81.7537 99.2852 81.6486 99.2056C81.5646 99.1658 81.5015 99.1658 81.4175 99.2056C81.3544 99.2454 81.2704 99.2852 81.2073 99.325C80.9762 99.4046 80.7661 99.4046 80.5349 99.2454C80.4509 99.2056 80.3878 99.2056 80.3248 99.2454C79.9255 99.524 79.5053 99.4842 79.106 99.1658C79.0009 99.0862 78.8959 99.0862 78.7698 99.1658C78.6647 99.2056 78.5597 99.2454 78.4336 99.1658C78.2444 99.0464 78.0553 99.0464 77.8662 99.1658C77.53 99.3648 77.1938 99.4444 76.8576 99.4444C76.3743 99.4444 75.8699 99.4842 75.3866 99.4842C75.1555 99.4842 74.9453 99.6036 74.7142 99.7628C74.5671 99.8822 74.42 99.8822 74.2729 99.7628C74.2099 99.723 74.1258 99.6832 74.0628 99.6434C73.9577 99.6036 73.8316 99.5638 73.7266 99.6832C73.4324 99.9618 73.1382 99.9618 72.844 99.8424C72.6129 99.7628 72.4027 99.6036 72.1716 99.7628C72.1085 99.8026 72.0245 99.7628 71.9614 99.723C71.7723 99.6036 71.6042 99.6434 71.4151 99.6832C70.9738 99.8424 70.5325 99.9618 70.0702 99.8822C69.9231 99.8424 69.776 99.8026 69.6079 99.8424C68.8935 100.002 68.179 99.8822 67.4646 99.922C66.9813 99.8026 66.4769 99.8424 65.9936 99.8822C65.7204 99.922 65.4683 99.8424 65.2161 99.6036C65.1531 99.5638 65.069 99.524 65.006 99.6036C64.7538 99.8026 64.5017 99.8822 64.2285 99.8822C63.8082 99.8822 63.388 99.922 62.9887 99.922C62.5054 99.9618 62.0011 99.8822 61.5178 99.7628C61.4127 99.723 61.3076 99.6434 61.1815 99.6036C61.0765 99.524 60.9504 99.524 60.8453 99.6036C60.6352 99.723 60.4041 99.8026 60.1729 99.8424C59.6055 99.922 59.0382 99.8026 58.4708 99.8026C58.3658 99.8026 58.2397 99.7628 58.1346 99.6832C57.8404 99.4842 57.5672 99.4046 57.252 99.6832C56.9999 99.8822 56.7267 99.8822 56.4745 99.723C56.4115 99.6832 56.3275 99.6036 56.2644 99.5638C56.2014 99.524 56.1173 99.4842 56.0333 99.4842C55.9282 99.4842 55.8021 99.4444 55.697 99.524C55.4449 99.723 55.1927 99.8026 54.9196 99.8026C54.6464 99.7628 54.3942 99.8424 54.121 99.8822C53.5117 99.922 52.9023 99.9618 52.3139 99.8424C52.1668 99.8026 52.0197 99.7628 51.8726 99.6832C51.7886 99.6434 51.7255 99.6434 51.6625 99.723C51.3683 99.9618 51.0741 99.8822 50.7799 100.081C50.6959 100.121 50.6328 100.121 50.5488 100.081C50.0655 99.8822 49.5821 99.8424 49.0778 99.922C48.4054 100.041 47.712 99.922 47.0395 99.922C46.8504 99.922 46.6613 99.8424 46.4932 99.723C46.3881 99.6434 46.283 99.6832 46.157 99.723C46.0519 99.7628 45.9258 99.8424 45.8207 99.8424C45.2534 99.8026 44.686 99.8822 44.1187 99.8822C43.9716 99.8822 43.8035 99.922 43.6564 99.8822C43.3622 99.8026 43.047 99.8822 42.7528 99.8424C42.6687 99.8424 42.6057 99.7628 42.5426 99.723C42.4796 99.6832 42.3956 99.6832 42.3325 99.7628C42.1644 99.922 41.9753 100.002 41.7862 99.9618C40.1681 99.8822 38.5291 99.9618 36.9111 99.8424C36.5748 99.8026 36.2386 99.8424 35.8814 99.8424C35.6923 99.8424 35.5032 99.8026 35.314 99.6832C35.209 99.6036 35.0829 99.6832 34.9778 99.723C34.8938 99.723 34.8307 99.7628 34.7467 99.723C34.4525 99.524 34.1583 99.524 33.8431 99.524C33.0866 99.524 32.3301 99.524 31.5736 99.4842C31.3215 99.4842 31.0483 99.4842 30.7962 99.2454C30.7331 99.1658 30.6491 99.126 30.586 99.2056C30.3339 99.4046 30.0817 99.4444 29.8085 99.4046C29.5353 99.3648 29.2832 99.4046 29.01 99.4046C28.8209 99.4046 28.6318 99.3648 28.4637 99.2454C28.4006 99.2056 28.3166 99.1658 28.2535 99.126C28.0224 99.0464 27.7912 99.0464 27.5811 99.2454C27.434 99.3648 27.2869 99.4046 27.1398 99.2852C26.9927 99.1658 26.8666 99.0862 26.6985 99.0862C26.2783 99.0862 25.858 99.0862 25.4587 99.0464C25.1856 99.0464 24.9334 99.0464 24.6812 98.8474C24.5552 98.7678 24.4711 98.927 24.4081 99.0862C24.366 99.2056 24.282 99.2454 24.219 99.2056C24.0298 99.0862 23.8407 99.0464 23.6516 99.0464C22.8951 99.0464 22.1386 99.0066 21.3821 99.0066C21.088 99.0066 20.7728 98.9668 20.4786 98.7678C20.2264 98.6086 19.9532 98.6882 19.7011 98.6086C19.5119 98.5688 19.3228 98.529 19.1337 98.4892C18.8185 98.1311 18.4823 98.1709 18.1461 98.1709C17.8309 98.1709 17.5367 98.1311 17.2635 97.8525C17.2005 97.7729 17.1164 97.7729 17.0534 97.7729C16.9693 97.7729 16.9063 97.7729 16.8222 97.7729C15.9817 97.8525 15.1622 97.7331 14.3216 97.6933C14.0485 97.6933 13.7963 97.5341 13.5862 97.2157C13.4601 97.0167 13.313 97.0565 13.1659 97.1759C13.0188 97.2953 12.8717 97.2555 12.7246 97.1361C12.5145 96.9371 12.3044 96.8575 12.0732 96.8575C11.8841 96.8575 11.695 96.8575 11.5058 96.8575C11.3587 96.8575 11.2117 96.7779 11.0646 96.6983C10.9595 96.6187 10.8334 96.6983 10.7283 96.6983C10.6443 96.6983 10.5812 96.7381 10.4972 96.6983C10.203 96.4993 9.90882 96.4993 9.59362 96.4993C8.83714 96.4595 8.08066 96.4595 7.32417 96.4197C7.26113 96.4197 7.17708 96.3401 7.11404 96.3003C7.02998 96.2605 6.98796 96.1411 7.00897 95.9421C7.02998 95.8227 7.07201 95.6635 7.15607 95.6635C7.45026 95.5839 7.74443 95.5043 8.03862 95.3053C8.10166 95.2655 8.18572 95.3053 8.26978 95.3451C8.47991 95.5043 8.71106 95.5839 8.94221 95.4247C9.15234 95.2655 9.38348 95.1859 9.61463 95.1461C9.69869 95.1063 9.76173 95.0665 9.76173 94.9471C9.76173 94.9471 9.69869 94.8675 9.65665 94.8675C9.08929 94.8277 8.52194 94.7879 7.95458 94.7879C7.57633 94.7879 7.19809 94.7481 6.81985 94.7481C6.52566 94.7481 6.21046 94.7083 5.93728 94.4695C5.87424 94.4297 5.79019 94.4297 5.70614 94.4695C5.22283 94.8277 4.73952 94.7083 4.25621 94.6287C4.19317 94.6287 4.10912 94.5491 4.04607 94.5093C3.89898 94.3899 3.75189 94.3501 3.6048 94.3501C3.37365 94.3103 3.1425 94.3103 2.93237 94.2705C2.89034 94.2705 2.84831 94.2307 2.8273 94.1909C2.80628 94.0715 2.86932 93.9919 2.93237 93.9123C3.24757 93.5541 3.56277 93.4745 3.92 93.6337C4.06709 93.7133 4.21418 93.7133 4.36128 93.6337C4.69749 93.4347 5.03371 93.4745 5.36993 93.6735C5.45398 93.7133 5.51702 93.7531 5.58006 93.7133C5.97932 93.4347 6.39958 93.5939 6.81985 93.5939C6.92491 93.5939 7.051 93.6337 7.15607 93.7133C7.34519 93.8327 7.51329 93.7929 7.70242 93.7133C8.29079 93.3949 8.90018 93.3551 9.48856 93.7531C9.76173 93.9521 9.99288 93.7531 10.203 93.4347C10.224 93.3949 10.224 93.2755 10.203 93.2755C10.14 93.2357 10.0559 93.1959 9.99288 93.1561C9.76173 93.1163 9.53058 93.0765 9.32045 93.1163C8.66903 93.2357 8.03863 93.1163 7.38722 93.0765C7.28214 93.0765 7.15607 93.0367 7.051 92.9571C6.90391 92.8377 6.75681 92.8775 6.60971 92.9571C6.50465 92.9969 6.37857 92.9571 6.27351 92.8775C6.12641 92.7581 5.97931 92.7581 5.83221 92.8775C5.53803 93.0765 5.24385 93.0765 4.94966 92.8775C4.63446 92.6387 4.29823 92.5989 3.94101 92.6387C3.66783 92.6785 3.41567 92.5591 3.18453 92.3203C2.99541 92.1213 2.82731 92.2009 2.63818 92.3999C2.59616 92.4397 2.57514 92.4795 2.53312 92.4795C2.44907 92.5591 2.32298 92.5193 2.23892 92.2805C2.11285 91.9621 1.96575 91.8427 1.75562 91.8427C1.67156 91.8427 1.60851 91.8427 1.52446 91.8029C1.44041 91.7631 1.39838 91.6437 1.39838 91.5243C1.39838 91.4845 1.44042 91.4049 1.48245 91.4049C1.71359 91.3651 1.92372 91.3253 2.15487 91.2457C2.23892 91.2059 2.28095 91.1263 2.32298 91.0069C2.38603 90.8477 2.28095 90.6089 2.15487 90.5293C2.11284 90.5293 2.07081 90.4895 2.0498 90.4895C1.94473 90.5293 1.83966 90.6089 1.7346 90.6885C1.5875 90.8079 1.44042 90.8477 1.29332 90.6885C1.23028 90.6089 1.16724 90.5691 1.08318 90.4895C1.02015 90.41 0.957108 90.3304 0.957108 90.1712C0.957108 90.1314 1.02015 90.0916 1.06218 90.0916C1.16724 90.0518 1.29332 90.0518 1.39838 90.0518C2.23892 90.0916 3.05846 90.012 3.89899 89.9722C4.06709 89.9722 4.19317 89.8528 4.29823 89.6538C4.52938 89.216 4.82357 89.1364 5.13877 89.1364C5.89526 89.1364 6.65173 89.1364 7.40822 89.0966C7.51329 89.0966 7.61836 88.9772 7.70242 88.7782C7.72343 88.7384 7.74443 88.6588 7.72342 88.5792C7.72342 88.5394 7.6814 88.4598 7.66039 88.4598C7.59734 88.42 7.51329 88.3802 7.45025 88.3404C7.00897 88.221 6.54667 88.2608 6.08437 88.2608C5.51701 88.2608 4.94966 88.2608 4.38229 88.2608C4.15115 88.2608 3.94101 88.221 3.70986 88.1016C3.56277 88.022 3.41568 88.022 3.26859 87.9822C2.80629 87.9424 2.36501 87.9822 1.92372 88.221C1.77663 88.3006 1.62954 88.2608 1.48245 88.1812C1.39839 88.1414 1.35636 88.022 1.35636 87.8628C1.35636 87.7832 1.37738 87.7434 1.37738 87.6638C1.39839 87.5842 1.4194 87.5444 1.44042 87.5046C1.62954 87.3056 1.81865 87.0668 2.0498 86.9872C2.15487 86.9474 2.28095 86.8678 2.365 86.7882C2.57514 86.5494 2.78528 86.5096 3.01643 86.5096C3.12149 86.5096 3.16352 86.43 3.12149 86.3106C3.10048 86.2708 3.07946 86.1912 3.03743 86.1912C2.8273 85.9922 2.63818 85.7932 2.38603 85.833C2.1969 85.833 2.00778 85.7932 1.81866 85.7534C1.75562 85.7534 1.65055 85.7136 1.60852 85.634C1.5665 85.5544 1.58752 85.3554 1.58752 85.236C1.58752 85.0768 1.54548 84.9972 1.46143 84.9574C1.35636 84.9176 1.23029 84.8778 1.12521 84.7982C1.06217 84.7584 0.999132 84.6788 0.93609 84.5594C0.831026 84.4002 0.788995 84.1614 0.831026 84.0022C0.957101 83.4848 1.08318 82.9674 1.20926 82.4501C1.2723 82.1715 1.37737 82.0123 1.52446 81.8531C1.62953 81.7735 1.71359 81.6541 1.79765 81.4949C1.83968 81.4153 1.86068 81.2561 1.88169 81.1367C1.90271 81.0173 1.75562 80.6989 1.67156 80.6989C1.62953 80.6989 1.58751 80.6591 1.56649 80.6591C1.37737 80.6591 1.18825 80.6193 0.999132 80.6193C0.810007 80.6193 0.620897 80.5795 0.43178 80.5795C0.326708 80.5795 0.284677 80.4999 0.305689 80.3805C0.305689 80.3009 0.347711 80.2611 0.36873 80.2213C0.599878 79.9825 0.852045 79.7835 1.12522 79.7835C1.20927 79.7835 1.27231 79.7835 1.35636 79.7437C1.58751 79.7039 1.67157 79.5049 1.69258 79.0671C1.69258 78.9079 1.58751 78.6293 1.50346 78.6293C1.12522 78.5497 0.746965 78.5099 0.368731 78.4303C0.263659 78.3905 0.158602 78.2711 0.0745487 78.1517C-0.0095043 78.0323 -0.0305309 77.7139 0.0535222 77.5945C0.242647 77.3557 0.431772 77.1169 0.62089 76.9179C0.725954 76.7985 0.831026 76.7189 0.936091 76.7189C1.27231 76.6791 1.60851 76.6791 1.94473 76.4801C2.21791 76.4403 2.47008 76.4403 2.74325 76.4005C3.16352 76.3607 3.58378 76.3209 3.98303 76.2811C4.02506 76.2811 4.04608 76.2413 4.08811 76.2015C4.06709 76.1617 4.06709 76.0821 4.04608 76.0821C3.83594 75.9229 3.62582 75.8035 3.47872 75.4055C3.35264 75.0872 3.14251 75.0872 2.95339 75.0474C2.86933 75.0474 2.80629 74.9678 2.76426 74.8484C2.76426 74.8484 2.80629 74.729 2.84832 74.729C3.03744 74.6494 3.22656 74.5698 3.39466 74.4106C3.56277 74.2116 3.7729 74.2912 3.94101 74.2116C3.98303 74.2116 4.02506 74.1718 4.04608 74.132C4.0881 74.0524 4.0671 73.933 4.00406 73.8136C3.87798 73.6544 3.75189 73.4952 3.64683 73.2962C3.49974 73.0574 3.31061 72.938 3.12149 72.938C2.84831 72.938 2.59616 72.8982 2.32299 72.8982C2.21792 72.8982 2.09183 72.8982 1.98677 72.8186C1.54548 72.54 1.08319 72.5798 0.641909 72.4604C0.557856 72.4206 0.494807 72.341 0.515826 72.2216C0.515826 72.142 0.536837 72.1022 0.557856 72.0226C0.62089 71.8236 0.725955 71.7042 0.831027 71.6644C1.02014 71.6246 1.20927 71.5848 1.39839 71.545C1.54548 71.5052 1.71359 71.545 1.83966 71.4654C2.17588 71.2266 2.5121 71.2664 2.84832 71.2266C3.14251 71.1868 3.45771 71.1868 3.75189 71.147C3.79392 71.147 3.81493 71.0674 3.83594 71.0276C3.81493 70.9878 3.81493 70.9082 3.77291 70.9082C3.70986 70.8684 3.62581 70.8286 3.56277 70.7888C3.18453 70.7092 2.80629 70.749 2.42805 70.749C2.1969 70.749 1.96575 70.749 1.75562 70.7092C1.7136 70.7092 1.67156 70.6694 1.67156 70.5898C1.65055 70.5102 1.69258 70.3908 1.77663 70.3908C1.96575 70.351 2.15487 70.351 2.344 70.351C2.49109 70.351 2.63818 70.3112 2.78527 70.1918C2.95338 70.0326 3.1425 69.9928 3.33163 69.953C3.66784 69.9132 4.00405 69.9132 4.36128 69.8734C4.46634 69.8734 4.59243 69.8734 4.6975 69.8336C4.90763 69.754 5.11776 69.5152 5.34891 69.5152C5.58006 69.5152 5.81121 69.5152 6.02134 69.3958C6.06337 69.3958 6.08438 69.3162 6.1054 69.2764C6.08438 69.2366 6.04236 69.1968 6.00033 69.157C5.85324 69.0774 5.70614 69.0774 5.55905 69.0774C5.11776 69.0774 4.65547 69.1172 4.21419 68.958C4.17217 68.958 4.15115 68.8784 4.13014 68.8386C4.15115 68.7988 4.19318 68.7192 4.21419 68.7192C4.31926 68.6794 4.44534 68.6396 4.5504 68.6396C4.97067 68.5998 5.36993 68.6396 5.7902 68.5202C5.81121 68.5202 5.85323 68.4406 5.87425 68.4008C5.85323 68.361 5.83222 68.2814 5.7902 68.2416C5.58007 68.1222 5.34891 68.162 5.13877 67.963C5.07573 67.8834 4.99168 67.8834 4.92865 67.963C4.76053 68.0824 4.57142 68.162 4.3823 68.162C4.15115 68.162 3.92 68.2018 3.70986 68.2018C3.47872 68.2018 3.26859 68.1222 3.05846 67.8834C2.99542 67.8038 2.93238 67.764 2.84832 67.7242C2.6592 67.6447 2.49109 67.565 2.32299 67.3661C1.94474 67.0079 1.54549 66.8089 1.12522 66.7691C1.02015 66.7691 0.978122 66.6497 1.02015 66.5701C1.04116 66.5303 1.08319 66.4905 1.12522 66.4905C1.73461 66.4507 2.34399 66.3711 2.93237 66.3313C3.20554 66.3313 3.45771 66.2915 3.70986 66.1323C3.81494 66.0527 3.94101 66.0527 4.04608 66.0925C4.23519 66.1721 4.40331 66.1721 4.59243 66.0925C4.78155 66.0129 4.97068 66.0129 5.1598 65.9731C5.49601 65.9333 5.83222 65.9333 6.18945 65.8935C6.33654 65.8935 6.50466 65.8935 6.63073 65.7741C6.98796 65.4955 7.36621 65.4955 7.74444 65.4159C7.97559 65.3761 8.18572 65.2169 8.35382 64.9781C8.37484 64.9383 8.37485 64.8587 8.37485 64.8189C8.35383 64.7791 8.31181 64.7393 8.26978 64.7393C7.70242 64.7393 7.13505 64.7393 6.56768 64.7393C6.42059 64.7393 6.25249 64.7393 6.12641 64.8189C5.87425 64.9781 5.60107 64.9781 5.34891 65.0179C4.8656 65.0577 4.36128 65.0577 3.87797 65.0975C3.49973 65.0975 3.12149 65.0975 2.76426 64.8587C2.61717 64.7393 2.47008 64.7791 2.32299 64.7791C2.04982 64.7791 1.79765 64.7791 1.54549 64.6199C1.46144 64.5801 1.41941 64.4607 1.39839 64.3015C1.37738 64.1423 1.39839 64.0229 1.50346 63.9831C1.5665 63.9433 1.65055 63.9035 1.7136 63.8637C1.94474 63.8239 2.15488 63.7841 2.38603 63.7443C2.61717 63.7443 2.82731 63.5851 3.05846 63.5055C3.12149 63.4657 3.20555 63.5055 3.2896 63.5055C3.39466 63.5453 3.49973 63.5851 3.6258 63.5055C3.91999 63.3065 4.21419 63.3065 4.52939 63.3065C4.80257 63.3065 5.05473 63.3065 5.3279 63.3065C5.39094 63.3065 5.47499 63.2269 5.53804 63.1871C5.60108 63.1473 5.66411 63.0279 5.72715 62.9483C5.91627 62.6697 6.12641 62.5503 6.35755 62.5503C6.96694 62.5105 7.57634 62.4707 8.16471 62.4309C8.26978 62.4309 8.39585 62.3911 8.50093 62.3115C8.75309 62.1125 9.00524 62.0329 9.27842 62.0329C9.50957 62.0329 9.74072 62.0329 9.95085 61.9931C10.0559 61.9931 10.182 61.9533 10.2871 61.8737C10.5392 61.7145 10.7914 61.5951 11.0436 61.4359C11.2537 61.2767 11.4848 61.2369 11.716 61.2369C11.9051 61.2369 12.0942 61.1175 12.2623 60.9583C12.3674 60.8787 12.4725 60.7991 12.5775 60.7991C12.9978 60.7593 13.4181 60.7195 13.7963 60.4409C14.0274 60.4011 14.2376 60.3215 14.4687 60.2817C14.5318 60.2419 14.6158 60.2021 14.6789 60.1225C14.7419 60.0429 14.8049 59.9236 14.8049 59.8042C14.8049 59.6848 14.7629 59.5654 14.6789 59.5654C14.5738 59.5256 14.4477 59.5256 14.3426 59.4858C14.2586 59.4858 14.1956 59.4062 14.1956 59.2868C14.1956 59.247 14.2586 59.2072 14.2796 59.1674C14.3847 59.1276 14.5108 59.1276 14.6158 59.0878C14.6999 59.0878 14.7839 59.0082 14.8049 58.8888C14.826 58.7694 14.7629 58.6102 14.6999 58.5306C14.6368 58.451 14.5738 58.3714 14.5108 58.3316C14.4057 58.2918 14.2796 58.252 14.1745 58.252C13.7122 58.2122 13.271 58.1724 12.8087 58.1724C12.5775 58.1724 12.3674 58.0928 12.1362 57.9734C11.9891 57.8938 11.8421 57.8938 11.695 57.8938C10.8544 57.854 10.0349 57.854 9.19436 57.854C9.00525 57.854 8.81614 57.854 8.62701 57.8142C8.52195 57.8142 8.41687 57.6948 8.31181 57.5754C8.24877 57.4958 8.18573 57.4162 8.12268 57.3764L8.1437 57.4162C8.18572 57.0978 8.33282 57.0182 8.43789 56.8192C8.54295 56.66 8.54295 56.4212 8.4589 56.262C8.41687 56.1824 8.35383 56.063 8.29079 55.9834C8.26978 55.9436 8.26978 55.8242 8.26978 55.8242C8.4589 55.5854 8.69005 55.5854 8.90018 55.4262C9.06829 55.3068 9.27842 55.3068 9.44653 55.2272C9.48855 55.2272 9.50957 55.1476 9.53058 55.1078C9.5516 55.0282 9.50956 54.9486 9.4045 54.9088C9.32045 54.869 9.25741 54.869 9.17336 54.869C9.13133 54.869 9.0893 54.869 9.06829 54.869C8.64802 54.869 8.24877 54.5904 7.84951 54.3914C7.80748 54.3914 7.78646 54.3118 7.76545 54.2322C7.76545 54.1924 7.78646 54.1128 7.8285 54.073C8.03862 53.874 8.24877 53.7944 8.47992 53.675C8.62701 53.5954 8.7741 53.5954 8.92119 53.5954C9.97186 53.5556 11.0436 53.5158 12.0942 53.4362C12.1783 53.4362 12.2413 53.3566 12.2413 53.277C12.2413 53.2372 12.1783 53.1576 12.1573 53.1576C12.0522 53.1178 11.9261 53.1178 11.821 53.1178C11.4848 53.1178 11.1486 53.078 10.7914 53.078C10.5392 53.078 10.3501 52.879 10.182 52.5606C10.161 52.5208 10.119 52.481 10.098 52.4014C10.0559 52.282 10.0139 52.1627 9.99289 52.0433C9.97187 51.9637 10.14 51.6055 10.203 51.6055C10.3081 51.5657 10.4132 51.4861 10.5392 51.4861C11.3798 51.4463 12.1993 51.4065 13.0398 51.4065C14.3216 51.4065 15.6035 51.4065 16.9063 51.4065C17.2845 51.4065 17.6628 51.3667 18.041 51.3269C18.083 51.3269 18.1251 51.2871 18.1461 51.2075C18.1671 51.1279 18.1251 51.0483 18.02 51.0483C17.6838 51.0085 17.3476 50.8891 17.0113 50.9289C16.8643 50.9289 16.7172 50.8891 16.5701 50.7697C16.402 50.6105 16.2128 50.5707 16.0237 50.5707C15.4984 50.5707 14.973 50.5309 14.4267 50.5309C14.0905 50.4911 13.7543 50.5309 13.4181 50.2523C13.313 50.1727 13.1869 50.2523 13.0818 50.3319C12.9348 50.4513 12.7877 50.4513 12.6406 50.3319C12.4935 50.2125 12.3464 50.1727 12.1993 50.1727C11.737 50.1329 11.2957 50.0931 10.8334 50.0533C10.7914 50.0533 10.7494 49.9737 10.7494 49.9339C10.7494 49.8543 10.7914 49.7349 10.8754 49.7349C11.4008 49.6951 11.9261 49.6951 12.4725 49.6951C13.6492 49.6951 14.826 49.7349 15.9817 49.7349C16.3599 49.7349 16.7382 49.6951 17.1164 49.6553C17.2005 49.6553 17.2635 49.5359 17.2425 49.4165C17.2425 49.3369 17.2215 49.2971 17.2005 49.2175C17.0954 48.9787 16.9693 48.8593 16.8012 48.8991C16.6961 48.9389 16.5701 48.9787 16.465 49.0583C16.3179 49.1777 16.1708 49.1777 16.0237 49.0583C15.8346 48.8991 15.6665 48.9389 15.4774 49.0981C15.3303 49.2175 15.1622 49.2573 15.0361 49.1379C14.6789 48.8195 14.3006 48.8195 13.9224 48.7001C13.8173 48.6603 13.7122 48.5409 13.6492 48.3419C13.5862 48.1827 13.6072 48.0633 13.7122 48.0235C13.8173 47.9439 13.9224 47.9439 14.0485 47.9439C14.5108 47.9439 14.952 47.9439 15.4143 47.9439C15.5194 47.9439 15.6455 47.9041 15.7505 47.9041C15.7926 47.9041 15.8136 47.8245 15.8556 47.7847C15.8346 47.7449 15.8136 47.7051 15.7926 47.6653C15.6455 47.5459 15.4984 47.5459 15.3513 47.5459C14.826 47.5459 14.3006 47.6255 13.7543 47.5061C13.6702 47.5061 13.6282 47.3867 13.6072 47.2275C13.6072 47.1081 13.6072 46.9091 13.5652 46.8295C13.5231 46.7499 13.4181 46.7101 13.355 46.7101C12.9768 46.6703 12.5985 46.6703 12.2203 46.6305C12.0732 46.6305 11.9261 46.5907 11.779 46.4713C11.6109 46.3121 11.4218 46.2723 11.2327 46.2723C10.8124 46.2723 10.3921 46.2325 9.99289 46.2325C9.88781 46.2325 9.76173 46.2325 9.65666 46.1529C9.15234 45.7151 8.606 45.9141 8.10167 45.7549C7.99661 45.7151 7.95459 45.6355 7.99661 45.4763C8.01762 45.3967 8.01762 45.3569 8.05965 45.2773C8.18573 44.9987 8.39586 44.9589 8.56396 44.8395C8.66903 44.7997 8.69005 44.6803 8.64802 44.5212C8.58498 44.2824 8.66903 44.1232 8.75309 44.0038C8.7741 43.964 8.81613 43.9242 8.81613 43.8446C8.83714 43.7252 8.77411 43.6456 8.69005 43.6456C8.58498 43.6058 8.4589 43.6058 8.35383 43.566C8.3118 43.566 8.2908 43.5262 8.26978 43.4466C8.22776 43.367 8.26978 43.2476 8.37485 43.2476C8.85816 43.1282 9.36248 43.2078 9.84579 43.168C10.0349 43.168 10.224 43.1282 10.3921 42.9292C10.4972 42.8098 10.6233 42.8098 10.7284 42.8894C10.9175 43.0088 11.0856 43.0884 11.2747 43.0884C11.3798 43.0884 11.5058 43.0884 11.6109 43.0884C13.313 43.0486 15.0151 43.0486 16.7172 43.1282C16.9063 43.1282 17.0954 43.0884 17.2845 43.0884C17.3686 43.0884 17.4316 43.0088 17.4526 42.9292C17.4106 42.8894 17.3896 42.8496 17.3476 42.8496C17.2425 42.8098 17.1164 42.8098 17.0113 42.8098C15.9607 42.8098 14.889 42.8098 13.8383 42.77C13.6492 42.77 13.4601 42.77 13.271 42.77C13.1659 42.77 13.0398 42.7302 12.9348 42.6506C12.7666 42.4914 12.5775 42.4516 12.3884 42.4118C11.9261 42.4118 11.4848 42.372 11.0225 42.372C10.7283 42.372 10.4132 42.3322 10.119 42.3322C10.0139 42.3322 9.88781 42.2924 9.78275 42.2128C9.57261 42.0536 9.36248 41.9342 9.13133 41.9342C8.83714 41.8944 8.52194 41.8944 8.22775 41.6954C8.08066 41.6158 7.93357 41.6158 7.78647 41.576C7.17709 41.5362 6.56769 41.5362 5.97931 41.4964C5.87425 41.4964 5.74817 41.4566 5.6431 41.4168C5.60108 41.4168 5.55905 41.377 5.53804 41.3372C5.51703 41.2178 5.55905 41.1382 5.6431 41.0984C5.74817 41.0586 5.87424 41.0188 5.93728 40.8198C5.9583 40.7004 5.89526 40.5412 5.83222 40.4616C5.81121 40.4218 5.76919 40.382 5.74817 40.3422C5.6431 40.2228 5.53803 40.2228 5.41195 40.2228C5.03371 40.2228 4.67648 40.0238 4.29824 39.785C4.08811 39.6656 4.08812 39.586 4.21419 39.188C4.34028 38.79 4.34027 38.79 4.19317 38.4716C4.08811 38.2328 4.0881 38.1532 4.25622 38.0736C4.44533 37.994 4.61344 37.8348 4.78155 37.7154C4.92864 37.6358 5.07574 37.596 5.22284 37.5164C5.43297 37.397 5.51702 36.9593 5.39094 36.6807C5.3279 36.5215 5.24386 36.3623 5.1598 36.2031C5.07574 36.0439 4.97067 35.9643 4.86561 35.9245C4.67649 35.8847 4.48736 35.8847 4.29824 35.8449C4.21419 35.8449 4.15114 35.7653 4.15114 35.6857C4.15114 35.6459 4.19317 35.5663 4.2352 35.5663C4.29825 35.5265 4.3823 35.4867 4.44534 35.4469C4.59244 35.3275 4.65547 35.0887 4.57142 34.7703C4.50838 34.4519 4.52939 34.2131 4.63447 33.9743C4.65548 33.9345 4.67648 33.8549 4.71851 33.8151C5.03371 33.2977 5.41196 32.9395 5.81121 32.7007C5.85324 32.7007 5.89526 32.6609 5.91628 32.6609C6.18945 32.7803 6.44162 32.5017 6.69378 32.4221C6.71479 32.4221 6.75681 32.3425 6.75681 32.2629C6.75681 32.2231 6.73581 32.1435 6.69378 32.1435C6.58871 32.0241 6.48363 32.0241 6.35756 32.0241C6.14742 31.9843 6.02135 31.7455 5.97932 31.3873C5.91627 31.0291 5.83222 30.9097 5.66411 30.8699C5.18081 30.8301 4.67648 30.7505 4.19317 30.7107C4.17216 30.7107 4.10913 30.6709 4.10913 30.6311C4.10913 30.5515 4.10912 30.4719 4.15114 30.4321C4.21419 30.3525 4.27724 30.2729 4.27724 30.1137C4.27724 30.0739 4.21419 30.0341 4.19317 30.0341C4.13013 29.9943 4.04608 29.9545 3.98304 29.9147C3.87797 29.8351 3.79393 29.7157 3.7519 29.5168C3.70988 29.3178 3.66785 29.1187 3.58379 28.9596C3.49974 28.8402 3.39467 28.7208 3.26859 28.7606C3.16353 28.8004 3.05845 28.88 2.93237 28.88C2.84832 28.88 2.78528 28.8004 2.74325 28.681C2.70123 28.5616 2.70123 28.4024 2.74325 28.283C2.86934 28.0044 3.03744 27.8054 3.22656 27.7656C3.41569 27.7258 3.60481 27.7258 3.79393 27.7258C3.87798 27.7258 3.94102 27.686 4.02507 27.6462C4.21419 27.6064 4.34028 27.2084 4.27724 26.8502C4.23521 26.6512 4.19318 26.4522 4.23521 26.2532C4.29825 25.9746 4.42432 25.8154 4.57142 25.696C4.88662 25.4174 5.20183 25.1786 5.53804 25.1388C5.62209 25.1388 5.66411 25.0194 5.66411 24.8602C5.6431 24.701 5.60108 24.6214 5.53804 24.5418C5.49602 24.502 5.475 24.4622 5.43297 24.4622C5.3279 24.4224 5.20182 24.3826 5.09675 24.3826C4.44533 24.3826 3.81494 24.3428 3.16353 24.3428C3.07947 24.3428 3.01643 24.3428 2.93237 24.303C2.70122 24.303 2.53311 23.9846 2.47008 23.507C2.44906 23.3478 2.49109 23.2284 2.57514 23.1886C2.63818 23.1488 2.72224 23.109 2.78528 23.109C3.54175 23.0294 4.29825 22.9896 5.05473 23.0294C5.32791 23.0294 5.58007 22.8702 5.79021 22.5916C5.81122 22.5518 5.83223 22.4722 5.85324 22.4324C5.85324 22.3926 5.83223 22.3528 5.79021 22.313C5.76919 22.2732 5.72716 22.2334 5.68513 22.2334C5.49602 22.1936 5.30689 22.1936 5.11777 22.1538C4.8446 22.1538 4.59244 22.114 4.34027 21.9548C4.15115 21.8752 3.96203 21.8354 3.77291 21.7956C3.68886 21.7558 3.64683 21.6364 3.64683 21.517C3.64683 21.4375 3.66785 21.3579 3.68886 21.3181C3.7519 21.1589 3.83595 20.9997 3.92001 20.8405C4.02507 20.6415 4.17217 20.5221 4.31927 20.5221C4.36129 20.5221 4.40332 20.5221 4.42433 20.5221C4.76054 20.5619 5.09675 20.4823 5.41195 20.2037C5.51702 20.1241 5.62209 20.0843 5.74818 20.0843C6.04237 20.0445 6.35756 20.0445 6.65175 19.9649C6.84087 19.9251 7.00898 19.8057 7.17709 19.5669C7.1981 19.5271 7.24012 19.4475 7.24012 19.4077C7.24012 19.3679 7.1981 19.2883 7.15607 19.2883C6.63074 19.1689 6.12641 18.8107 5.60108 18.7709C5.53804 18.7709 5.43297 18.6913 5.41195 18.5719C5.28587 18.2137 5.07574 18.0147 4.86561 17.8555C4.76054 17.7759 4.67648 17.6167 4.67648 17.3779C4.65547 17.1789 4.65548 16.9401 4.63447 16.7411C4.61346 16.5819 4.48737 16.3431 4.40331 16.3431C4.06709 16.3033 3.73088 16.2635 3.39467 16.1839C3.31062 16.1839 3.22656 16.0645 3.24757 15.9849C3.2896 15.8655 3.35265 15.8257 3.4367 15.8257C3.58379 15.8257 3.73088 15.7859 3.87798 15.7461C3.94102 15.7063 4.02507 15.6665 4.08811 15.6267C4.19318 15.5471 4.27724 15.3879 4.34027 15.1889C4.27724 14.9899 4.17217 14.9103 4.10913 14.7511C4.04609 14.6317 4.04609 14.5123 4.0671 14.3929C4.10913 14.2337 4.17216 14.1541 4.25622 14.194C4.4033 14.2735 4.5294 14.3531 4.6975 14.2735C4.80257 14.2337 4.92865 14.3133 5.03371 14.2735C5.13878 14.2337 5.24385 14.1143 5.34891 14.0347C5.41196 13.9949 5.49601 13.9949 5.55905 13.9552C5.58006 13.9153 5.60108 13.8756 5.6431 13.796C5.60108 13.7562 5.58007 13.7164 5.53804 13.7164C5.30689 13.6766 5.07574 13.6766 4.86561 13.6766C4.25622 13.7164 3.64684 13.6368 3.05846 13.5174C2.95339 13.4776 2.84832 13.3582 2.76427 13.199C2.70123 13.0398 2.72224 12.9204 2.8063 12.8408C2.86934 12.801 2.95339 12.7214 3.01643 12.7214C3.24758 12.6816 3.47873 12.6816 3.68887 12.6418C3.77292 12.6418 3.83595 12.5224 3.83595 12.403C3.83595 12.2438 3.79392 12.1244 3.73088 12.0448C3.56277 11.8458 3.37366 11.8458 3.18453 11.806C3.03745 11.7662 2.89034 11.6468 2.78528 11.4478C2.76426 11.408 2.72224 11.3284 2.72224 11.2488C2.72224 11.209 2.74326 11.1294 2.76427 11.0896C2.82731 10.9702 2.9744 10.8906 2.95339 10.6518C2.93238 10.4528 2.82731 10.2936 2.76427 10.1344C2.72224 9.97521 2.74325 9.85581 2.82731 9.81601C2.89034 9.7762 2.9744 9.73641 3.03744 9.73641C3.41568 9.73641 3.79393 9.73641 4.17217 9.69661C4.25623 9.69661 4.31926 9.6568 4.40331 9.6568C4.50838 9.6568 4.63446 9.33841 4.59244 9.21901C4.55041 9.09961 4.48737 8.98022 4.42433 8.94042C4.23521 8.86082 4.04609 8.86082 3.85696 8.82102C3.77291 8.82102 3.70988 8.74141 3.64684 8.66182C3.60481 8.58222 3.73089 8.18423 3.79393 8.14443C3.85697 8.10463 3.92001 8.02503 4.00407 7.98523C4.19318 7.90563 4.3823 7.82603 4.55041 7.70663C4.73953 7.54744 4.92864 7.62703 5.09675 7.74643C5.1808 7.78624 5.24384 7.82603 5.30689 7.74643C5.51702 7.58724 5.74817 7.50763 5.97932 7.50763C6.12641 7.50763 6.27351 7.54744 6.44161 7.50763C6.54668 7.50763 6.67276 7.50763 6.77782 7.42804C7.09303 7.14944 7.42925 7.14944 7.76546 7.10964C8.43789 7.06984 9.13133 7.03004 9.80376 7.03004C9.95086 7.03004 10.119 7.03004 10.245 6.91064C10.4972 6.71165 10.7494 6.67184 11.0225 6.67184C11.4848 6.67184 11.9261 6.63205 12.3884 6.59225C12.4935 6.59225 12.6196 6.59225 12.7246 6.51265C12.9768 6.35345 13.2289 6.27385 13.5021 6.27385C14.2166 6.23405 14.931 6.23405 15.6665 6.19425C15.8556 6.19425 16.0447 6.15446 16.2339 6.03506C16.423 5.91566 16.5911 5.83606 16.7802 5.83606C16.9273 5.83606 17.0744 5.83606 17.2425 5.83606C17.4736 5.79626 17.6838 5.71666 17.8729 5.43806C18.041 5.15947 18.2511 5.00027 18.5033 5.00027C19.3438 5.00027 20.1634 4.96047 21.0039 4.96047C21.4662 4.96047 21.9075 4.96047 22.3698 4.96047C22.643 4.96047 22.8951 4.88087 23.1473 4.76147C23.2523 4.68188 23.3784 4.68188 23.4835 4.64207C24.0509 4.52268 24.6182 4.56248 25.1856 4.60227C25.3327 4.60227 25.4798 4.72167 25.6269 4.80127C25.879 5.00027 26.1312 5.04007 26.4044 4.84107C26.5514 4.72168 26.6985 4.64207 26.8456 4.64207C27.1819 4.64207 27.5181 4.52268 27.8543 4.56248C28.2745 4.60228 28.6948 4.52267 29.0941 4.52267C29.2832 4.52267 29.4723 4.48288 29.6614 4.52267C30.1447 4.60228 30.6491 4.48288 31.1324 4.52267C31.5947 4.56248 32.036 4.56248 32.4982 4.56248C32.8345 4.56248 33.1707 4.56248 33.5279 4.56248C33.717 4.56248 33.9061 4.68188 34.0322 4.96047C34.0742 5.07987 34.1373 5.15947 34.2003 5.23907C34.2634 5.31866 34.3474 5.35847 34.4105 5.31866C34.4525 5.31866 34.4945 5.31866 34.5155 5.27886C34.8728 4.88087 35.23 4.92067 35.5872 5.27886C35.6923 5.39826 35.7974 5.35847 35.9024 5.27886C35.9655 5.23907 36.0285 5.15947 36.1126 5.07986C36.3227 4.92067 36.5538 4.92067 36.764 5.07986C36.9741 5.27886 37.1842 5.43806 37.4154 5.39826C37.5625 5.39826 37.7096 5.51766 37.8567 5.59726C37.9617 5.67687 38.0878 5.67687 38.1929 5.59726C38.403 5.39826 38.6342 5.35847 38.8653 5.35847C39.2435 5.31867 39.6218 5.39826 40 5.31867C40.1261 5.27887 40.2102 5.19927 40.1892 4.92067C40.1892 4.76148 40.2102 4.64208 40.2942 4.60227C40.3363 4.60227 40.3573 4.56248 40.3993 4.56248C40.4833 4.56248 40.5674 4.56248 40.6094 4.64208C40.8196 4.88088 41.0297 4.92068 41.2608 4.96047C41.3659 4.96047 41.492 4.92067 41.5971 4.84107C41.7652 4.64208 41.9333 4.52268 42.1224 4.52268C42.3956 4.52268 42.6477 4.44308 42.8999 4.28388C43.005 4.20428 43.131 4.20428 43.2361 4.20428C43.5303 4.16448 43.8455 4.20429 44.1397 4.16448C44.3918 4.12469 44.581 4.32369 44.7491 4.64208C44.8331 4.80128 44.9382 4.88088 45.0643 4.80127C45.1273 4.76148 45.2114 4.68188 45.2744 4.64208C45.4845 4.52268 45.7157 4.44308 45.9258 4.24408C46.0729 4.12469 46.22 4.12468 46.3671 4.12468C46.5982 4.16448 46.8294 4.16448 47.0395 4.32368C47.4388 4.64208 47.8591 4.56248 48.2793 4.52268C48.4895 4.28388 48.7206 4.36348 48.9307 4.48287C49.5401 4.52268 50.1495 4.60228 50.7379 4.52268C50.885 4.48288 51.0321 4.48288 51.1792 4.36348C51.5574 4.08489 51.9146 4.12469 52.2929 4.36348C52.482 4.48288 52.6501 4.44308 52.8392 4.28388C53.0704 4.08488 53.2805 4.12468 53.4486 4.52268C53.4907 4.64208 53.5537 4.72167 53.6167 4.80127C53.9319 4.56248 54.2892 4.68188 54.6044 4.36348C54.7725 4.20429 54.9616 4.12468 55.1507 4.12468C55.2978 4.12468 55.4449 4.12468 55.613 4.08488C55.7601 4.08488 55.9072 4.00528 56.0543 3.88588C56.2014 3.76649 56.3485 3.72669 56.4956 3.72669C56.7898 3.72669 57.105 3.72669 57.3991 3.72669C57.9665 3.72669 58.5339 3.72669 59.1012 3.68688C59.3954 3.68688 59.7106 3.64709 60.0048 3.72669C60.1939 3.76649 60.383 3.68688 60.5512 3.48789C60.8453 3.1695 61.1605 2.8909 61.4547 2.61231C61.5598 2.5327 61.6649 2.4531 61.7699 2.41331C62.3793 2.37351 62.9887 2.29391 63.5771 2.33371C63.7662 2.33371 63.9553 2.41331 64.1234 2.5725C64.2705 2.6919 64.4176 2.7715 64.5647 2.7715C65.027 2.7715 65.4683 2.7715 65.9306 2.81131C66.2038 2.81131 66.4559 2.7715 66.7081 2.61231C66.8132 2.5327 66.9182 2.49291 67.0443 2.49291C67.3175 2.45311 67.5696 2.41331 67.8428 2.45311C68.6834 2.49291 69.5029 2.45311 70.3434 2.41331C70.8687 2.41331 71.3941 2.45311 71.9404 2.49291C72.0455 2.49291 72.1716 2.41331 72.2346 2.25411C72.3187 2.09491 72.3817 1.93572 72.4658 1.77652C72.5498 1.61732 72.6759 1.57752 72.781 1.61732C72.844 1.65712 72.9281 1.65712 72.9911 1.73672C73.0752 1.81632 73.1382 1.85612 73.2012 1.77652C73.5585 1.49792 73.9367 1.57752 74.3149 1.57752C74.5041 1.57752 74.6932 1.49792 74.8613 1.33873C74.9664 1.21933 75.0714 1.21933 75.1765 1.33873C75.2395 1.37852 75.3026 1.45812 75.3866 1.53772C75.5337 1.65712 75.6808 1.65712 75.8279 1.61732C76.1221 1.53772 76.3953 1.25912 76.6895 1.09993C76.9837 0.900929 77.2778 0.821331 77.572 0.821331C78.2234 0.821331 78.8538 0.821331 79.5053 0.821331C79.9676 0.821331 80.4088 0.781529 80.8711 0.701931C80.9762 0.701931 81.1023 0.622334 81.2073 0.542736C81.3544 0.463131 81.5015 0.502934 81.6486 0.542737C81.7327 0.582531 81.7957 0.582531 81.8798 0.542737C82.0689 0.423337 82.237 0.383542 82.4471 0.383542C83.771 0.343739 85.0948 0.343732 86.4187 0.303937C87.1331 0.303937 87.8476 0.303937 88.5831 0.303937C88.8142 0.303937 89.0243 0.22434 89.2555 0.10494C89.4656 -0.0542629 89.6968 -0.0144604 89.9279 0.10494C89.991 0.144735 90.075 0.184545 90.1381 0.184545C90.2851 0.184545 90.4322 0.0253423 90.5793 0.10494C90.7264 0.144735 90.8735 0.303937 91.0206 0.303937C91.1257 0.303937 91.2518 0.303937 91.3568 0.22434C91.546 0.0651373 91.7141 0.0651373 91.9032 0.22434C92.0082 0.303937 92.1133 0.34374 92.2394 0.34374C92.6597 0.34374 93.0799 0.34374 93.4792 0.34374C93.6263 0.34374 93.7734 0.303938 93.9205 0.184545C94.2147 -0.0144523 94.5088 -0.0144599 94.803 0.22434C94.9081 0.303938 95.0132 0.34374 95.1392 0.34374C95.9378 0.303938 96.7363 0.423338 97.5138 0.423338C97.85 0.423338 98.1862 0.423338 98.5434 0.423338C98.7325 0.423338 98.9217 0.463141 99.0898 0.582541C99.2789 0.701933 99.447 0.741736 99.6361 0.781538C99.8673 0.821333 100.098 0.821333 100.309 0.861136C100.456 0.861136 100.603 0.940733 100.75 1.06013C101.002 1.25913 101.275 1.29893 101.527 1.09993C101.779 0.940726 102.032 0.861128 102.305 1.02033C102.389 1.06013 102.452 1.06013 102.536 1.02033C102.641 0.980528 102.767 0.900931 102.872 0.900931C103.208 0.900931 103.545 0.900931 103.902 0.861136C104.049 0.861136 104.196 0.900931 104.343 1.02033C104.532 1.13972 104.721 1.09993 104.889 0.980536C105.037 0.861136 105.184 0.861128 105.331 0.940734C105.583 1.09993 105.835 1.17953 106.108 1.17953C107.138 1.21933 108.147 1.25913 109.176 1.25913C109.407 1.25913 109.617 1.29893 109.849 1.45813C109.954 1.53773 110.059 1.53772 110.185 1.49792C110.248 1.45812 110.332 1.41833 110.395 1.41833C111.067 1.69692 111.74 1.61732 112.433 1.65713C112.727 1.69692 113.022 1.77652 113.316 1.89592C113.61 2.01531 113.904 2.01531 114.219 2.09492C114.346 2.13471 114.43 2.25412 114.514 2.37351C114.535 2.41331 114.556 2.49291 114.598 2.53271C114.661 2.65211 114.724 2.69191 114.787 2.65211C114.997 2.49291 115.228 2.41331 115.459 2.57251C115.522 2.61231 115.585 2.73171 115.627 2.8511C115.69 3.01031 115.606 3.2491 115.459 3.3287C115.417 3.3685 115.396 3.3685 115.354 3.3685C115.312 3.3685 115.27 3.40829 115.249 3.40829C115.249 3.3685 115.228 3.2889 115.228 3.2491C115.207 3.2093 115.186 3.2093 115.165 3.2093C115.165 3.2889 115.207 3.3685 115.27 3.40829C115.354 3.88589 115.501 4.28389 115.522 4.80128C115.564 5.35847 115.585 5.35847 115.333 5.55747C115.144 5.71667 115.018 5.95547 115.018 6.35346C115.018 6.43306 115.018 6.51266 115.018 6.55246C115.018 6.71166 115.018 6.83105 114.976 6.99025C114.892 7.34845 114.892 7.66685 115.039 7.94544C115.102 8.06484 115.144 8.18424 115.123 8.34344C115.102 8.46284 115.018 8.54243 114.976 8.66183C114.955 8.70163 114.934 8.78123 114.892 8.82103C114.808 9.02003 114.829 9.25883 114.955 9.33842C115.06 9.41802 115.165 9.45782 115.27 9.57722C115.354 9.65681 115.375 9.77621 115.375 9.89561C115.375 10.0548 115.333 10.1742 115.27 10.214C115.207 10.2936 115.123 10.2936 115.06 10.3334C114.913 10.413 114.871 10.612 114.955 10.7712C115.018 10.9304 115.102 11.0896 115.165 11.2488C115.27 11.4876 115.207 11.7662 115.039 11.9254C114.976 11.9652 114.892 12.005 114.829 12.005C114.745 12.0448 114.682 12.1244 114.682 12.2438C114.682 12.403 114.724 12.5224 114.787 12.602C114.85 12.6816 114.913 12.7214 114.976 12.801C115.123 12.9602 115.123 13 115.018 13.2388C114.892 13.4776 114.892 13.4776 115.039 13.6766C115.207 13.9552 115.249 14.1144 115.165 14.393C115.081 14.7113 114.997 15.0297 114.913 15.3481C114.85 15.5869 114.85 15.6267 114.955 15.9053C114.997 16.0247 115.06 16.1043 115.102 16.2237C115.165 16.4227 115.207 16.6217 115.165 16.8207C115.102 17.2187 115.018 17.6167 114.997 18.0545C114.976 18.4127 114.913 18.7311 114.85 19.0893C114.808 19.3281 114.85 19.5271 114.934 19.6863C115.102 20.0843 115.228 20.5221 115.333 20.9599C115.354 21.0793 115.354 21.2385 115.27 21.3181C115.144 21.4773 114.997 21.5967 114.913 21.8355C114.871 21.9549 114.85 22.1141 114.85 22.2335C114.85 22.3529 114.871 22.512 114.913 22.6314C115.018 23.0294 114.934 23.308 114.766 23.5468C114.661 23.706 114.661 23.905 114.766 24.104C114.871 24.303 114.976 24.502 115.081 24.701C115.144 24.8602 115.228 25.0592 115.186 25.298C115.039 26.1338 114.997 26.9696 115.039 27.8452C114.997 27.8452 114.976 27.8452 114.955 27.885C114.934 27.885 114.934 27.9646 114.934 28.0044C114.976 27.8054 115.018 27.7656 115.018 27.5666ZM9.90883 43.5262C9.80376 43.4864 9.6987 43.4864 9.57261 43.4864C9.53059 43.4864 9.50958 43.5262 9.46755 43.566C9.44654 43.6058 9.42551 43.6456 9.4045 43.6854C9.42551 43.7252 9.46754 43.8048 9.48856 43.8048C9.78274 43.9242 10.0769 43.8048 10.3501 43.8048C10.3921 43.8048 10.4342 43.765 10.4342 43.7252C10.4552 43.6456 10.4132 43.5262 10.3291 43.5262C10.203 43.5262 10.0559 43.5262 9.90883 43.5262ZM4.38229 90.41C4.40331 90.41 4.36128 90.41 4.34026 90.41C4.25621 90.4498 4.21419 90.5293 4.2352 90.6089C4.25621 90.6487 4.29824 90.6885 4.31926 90.7283C4.46636 90.7681 4.59243 90.7681 4.73953 90.6885C4.78156 90.6885 4.80256 90.6089 4.82357 90.5691C4.78155 90.4498 4.71851 90.3702 4.65547 90.3702C4.57141 90.41 4.48737 90.41 4.38229 90.41ZM63.409 4.64208C63.493 4.80128 63.5981 4.80128 63.7032 4.76148C63.7452 4.76148 63.7872 4.72167 63.7872 4.68187C63.8082 4.60227 63.7662 4.52268 63.6822 4.48287C63.5351 4.44308 63.409 4.52268 63.409 4.64208Z" fill="white"/>
<path d="M5.34881 96.3799C4.99159 96.3401 4.65537 96.3401 4.29814 96.3003C4.25612 96.3003 4.2141 96.2605 4.2141 96.1809C4.2141 96.1013 4.25612 95.9819 4.34017 95.9819C4.48727 95.9421 4.63436 95.9023 4.78145 95.8625C5.28577 95.3849 5.81112 95.5043 6.31544 95.9023C6.37848 95.9421 6.46253 95.9421 6.52557 96.0217C6.5676 96.0615 6.58861 96.1013 6.60962 96.1809C6.60962 96.1809 6.56759 96.2605 6.54658 96.3003C6.48354 96.3401 6.39949 96.3799 6.33645 96.3799C6.00023 96.3799 5.66402 96.3799 5.34881 96.3799Z" fill="#FFB820"/>
<path d="M12.2198 59.486C12.409 59.486 12.556 59.6054 12.514 59.685C12.43 59.8442 12.3039 59.8442 12.1988 59.8442C12.1148 59.8442 12.0517 59.8442 11.9887 59.8044C11.9677 59.8044 11.9256 59.7248 11.9046 59.685C11.9256 59.6452 11.9677 59.5656 11.9887 59.5656C12.0727 59.486 12.1568 59.486 12.2198 59.486Z" fill="#FFB820"/>
<path d="M0.957346 85.2758C1.0414 85.236 1.10444 85.2758 1.16748 85.3952C1.14647 85.5146 1.10444 85.5942 1.02038 85.5942C0.915317 85.5942 0.81025 85.5942 0.705183 85.5942C0.621129 85.5942 0.558081 85.5146 0.579095 85.435C0.579095 85.3952 0.621127 85.3554 0.663153 85.3156C0.70518 85.2758 0.726194 85.2758 0.76822 85.2758C0.831261 85.236 0.894306 85.2758 0.957346 85.2758Z" fill="#FFB820"/>
<path d="M56.8521 2.93068C56.8521 2.89083 56.8521 2.81111 56.8732 2.81111C56.9784 2.69155 57.0836 2.69155 57.1888 2.77126C57.2099 2.81112 57.252 2.85097 57.252 2.89082C57.252 3.01039 57.1047 3.09011 56.9573 3.01039C56.9153 3.05025 56.8732 2.97054 56.8521 2.93068Z" fill="#FFB820"/>
<path d="M4.99141 31.5464C4.99141 31.5065 4.99141 31.4268 4.99141 31.387C5.03349 31.2275 5.09663 31.2275 5.11768 31.4268C5.11768 31.4667 5.11768 31.5464 5.11768 31.5862C5.09663 31.6261 5.07559 31.7058 5.05455 31.7058C5.03351 31.666 5.01245 31.5862 4.99141 31.5464Z" fill="#FFB820"/>
<path d="M9.42505 51.9237L9.36218 51.9639L9.36218 51.8433L9.42505 51.9237Z" fill="#FFB820"/>
<path d="M6.54688 57.257C6.4627 57.257 6.42062 57.1773 6.42062 57.0976C6.44166 57.0976 6.48375 57.0976 6.48375 57.1375C6.50479 57.1773 6.50479 57.257 6.52584 57.2969L6.54688 57.257Z" fill="#FFB820"/>
<path d="M6.5256 57.2966C6.60977 57.2966 6.65186 57.3763 6.65186 57.4561C6.63081 57.4561 6.58873 57.4561 6.58873 57.4162C6.56768 57.3763 6.56768 57.2966 6.54664 57.2568L6.5256 57.2966Z" fill="#FFB820"/>
<path d="M8.12207 57.2567C8.12207 57.456 8.08051 57.4958 8.01816 57.4958C8.01816 57.456 8.03894 57.3763 8.03894 57.3763C8.0805 57.2966 8.10129 57.2966 8.12207 57.2567Z" fill="#FFB820"/>
<path d="M52.5364 63.0988C52.5224 63.0301 52.502 62.9624 52.4751 62.8969C52.4483 62.8324 52.415 62.7701 52.3763 62.7121C52.3376 62.653 52.2925 62.5982 52.2431 62.5488C52.1937 62.4994 52.1389 62.4543 52.0798 62.4156C52.0218 62.377 51.9595 62.3437 51.894 62.3168C51.8295 62.2899 51.7619 62.2685 51.6931 62.2556C51.5545 62.2276 51.4117 62.2276 51.2742 62.2556C51.2054 62.2685 51.1377 62.2899 51.0722 62.3168C51.0078 62.3437 50.9455 62.377 50.8875 62.4156C50.8284 62.4543 50.7736 62.4994 50.7242 62.5488C50.6748 62.5982 50.6296 62.653 50.591 62.7121C50.5512 62.7701 50.519 62.8324 50.4921 62.8969C50.4653 62.9624 50.4438 63.0301 50.4309 63.0988C50.4169 63.1676 50.4094 63.2385 50.4094 63.3083C50.4094 63.3781 50.4169 63.449 50.4309 63.5178C50.4438 63.5865 50.4653 63.6542 50.4921 63.7186C50.519 63.7842 50.5512 63.8465 50.591 63.9045C50.6296 63.9636 50.6748 64.0183 50.7242 64.0678C50.7736 64.1172 50.8284 64.1623 50.8875 64.201C50.9455 64.2397 51.0078 64.273 51.0722 64.2999C51.1377 64.3268 51.2054 64.3482 51.2742 64.3611C51.3429 64.3751 51.4138 64.3826 51.4836 64.3826C51.5535 64.3826 51.6244 64.3751 51.6931 64.3611C51.7619 64.3482 51.8295 64.3268 51.894 64.2999C51.9595 64.273 52.0218 64.2396 52.0798 64.201C52.1389 64.1623 52.1937 64.1172 52.2431 64.0678C52.2925 64.0183 52.3376 63.9636 52.3763 63.9045C52.415 63.8465 52.4483 63.7842 52.4751 63.7186C52.502 63.6542 52.5224 63.5865 52.5364 63.5178C52.5503 63.449 52.5579 63.3781 52.5579 63.3083C52.5579 63.2385 52.5503 63.1676 52.5364 63.0988Z" fill="#00659E"/>
<path d="M83.4133 63.43C83.4091 63.4193 83.4048 63.4087 83.4003 63.3981C82.4116 61.0846 80.0928 60.2295 77.3486 61.1668L69.8647 63.2363C69.432 61.926 68.3528 60.811 66.8267 60.2447C66.8173 60.2412 66.8078 60.2378 66.7983 60.2345L58.5718 57.4424C57.8871 56.5574 55.7423 54.2927 51.7265 54.2927C48.9201 54.2927 46.4375 56.2179 45.0172 58.3164H35.0742C34.4809 58.3164 34 58.7974 34 59.3906V72.9341C34 73.5274 34.4809 74.0083 35.0742 74.0083H41.4612C42.0545 74.0083 42.5354 73.5274 42.5354 72.9341V72.0066H45.5307C46.124 72.0066 46.6049 71.5257 46.6049 70.9324V70.6232C48.3509 70.7755 48.9252 71.1067 50.5288 72.0314C51.762 72.7425 53.6259 73.8173 56.9824 75.3265C56.9979 75.3334 57.0137 75.3401 57.0295 75.3463C57.6737 75.5997 58.933 75.9979 60.4856 75.9979C61.5663 75.9979 62.7893 75.8048 64.0446 75.2358L80.5866 69.313C80.616 69.3025 80.6451 69.2906 80.6734 69.2775C82.2543 68.5502 84.6102 66.5003 83.4133 63.43ZM40.387 71.8597H36.1484V60.4648H40.387V71.8597ZM44.4564 69.858H42.5354V60.4648H44.4564V69.858ZM79.815 67.3071L63.2804 73.2272C63.2659 73.2324 63.2462 73.2401 63.232 73.2459C63.2175 73.2518 63.203 73.2581 63.1887 73.2646C60.8859 74.3229 58.6969 73.6894 57.8391 73.3558C54.5969 71.8969 52.8664 70.8991 51.602 70.17C49.8442 69.1564 48.9972 68.6678 46.6049 68.4703V59.8183C47.6231 58.1494 49.5978 56.4411 51.7267 56.4411C55.3775 56.4411 56.9245 58.8156 56.9853 58.9114C57.1164 59.1248 57.3181 59.2856 57.5551 59.366L66.0925 62.2636C67.456 62.7754 68.1766 63.9431 67.8454 65.1075C67.6926 65.6453 67.3393 66.0913 66.851 66.3634C66.3669 66.6331 65.8072 66.6998 65.2737 66.5522L55.6495 63.5023C55.0836 63.323 54.4801 63.6363 54.3009 64.2019C54.1216 64.7674 54.4349 65.3711 55.0004 65.5504L64.6414 68.6056C64.6516 68.6088 64.6619 68.612 64.6722 68.6149C65.0571 68.7243 65.4489 68.7785 65.8384 68.7785C66.5515 68.7785 67.2567 68.5968 67.8968 68.2402C68.8864 67.6888 69.6021 66.7849 69.9119 65.6951C69.9366 65.6081 69.9585 65.5211 69.9775 65.4341L78.0431 63.1997C79.208 62.8018 80.7371 62.6584 81.4179 64.2265C82.1226 66.0673 80.2911 67.08 79.815 67.3071Z" fill="#00659E"/>
<path d="M72.5702 35.1306C72.5562 35.0618 72.5358 34.9941 72.5079 34.9286C72.481 34.8642 72.4488 34.8019 72.409 34.7438C72.3704 34.6848 72.3252 34.63 72.2758 34.5806C72.2264 34.5312 72.1716 34.486 72.1125 34.4474C72.0545 34.4087 71.9922 34.3754 71.9278 34.3485C71.8623 34.3217 71.7946 34.3002 71.7269 34.2873C71.5883 34.2594 71.4455 34.2594 71.3069 34.2873C71.2381 34.3002 71.1705 34.3217 71.106 34.3485C71.0405 34.3754 70.9782 34.4087 70.9202 34.4474C70.8611 34.486 70.8063 34.5312 70.7569 34.5806C70.7075 34.63 70.6624 34.6848 70.6237 34.7438C70.585 34.8019 70.5517 34.8642 70.5249 34.9286C70.498 34.9941 70.4765 35.0618 70.4636 35.1306C70.4497 35.1993 70.4421 35.2702 70.4421 35.34C70.4421 35.4099 70.4497 35.4808 70.4636 35.5495C70.4765 35.6183 70.498 35.6859 70.5249 35.7504C70.5517 35.8159 70.585 35.8782 70.6237 35.9362C70.6624 35.9953 70.7075 36.0501 70.7569 36.0995C70.8063 36.1489 70.8611 36.194 70.9202 36.2327C70.9782 36.2714 71.0405 36.3047 71.106 36.3315C71.1705 36.3584 71.2381 36.3788 71.3069 36.3928C71.3756 36.4067 71.4465 36.4143 71.5164 36.4143C71.5862 36.4143 71.6571 36.4067 71.7269 36.3928C71.7946 36.3788 71.8623 36.3584 71.9278 36.3315C71.9922 36.3047 72.0545 36.2714 72.1125 36.2327C72.1716 36.194 72.2264 36.1489 72.2758 36.0995C72.3252 36.0501 72.3704 35.9953 72.409 35.9362C72.4488 35.8782 72.481 35.8159 72.5079 35.7504C72.5358 35.6859 72.5562 35.6183 72.5702 35.5495C72.5841 35.4808 72.5906 35.4099 72.5906 35.34C72.5906 35.2702 72.5841 35.1993 72.5702 35.1306Z" fill="#00659E"/>
<path d="M87.9248 24.6408H81.5378C80.9445 24.6408 80.4636 25.1218 80.4636 25.715V26.6425H77.4684C76.8751 26.6425 76.3942 27.1235 76.3942 27.7167V28.0259C74.6481 27.8735 74.0738 27.5424 72.4704 26.6177C71.2372 25.9066 69.3733 24.8318 66.0167 23.3226C66.0011 23.3156 65.9854 23.309 65.9694 23.3028C64.8768 22.8729 62.0133 22.027 58.9549 23.4131L54.6322 24.9608L50.9886 21.3173C50.5691 20.8978 49.8889 20.8978 49.4694 21.3173L37.5071 33.2795C37.1202 33.6665 37.046 34.3376 37.5071 34.7987L57.9481 55.2397C58.2752 55.5669 59.0411 55.6659 59.4674 55.2397L70.3884 44.3188C70.6723 44.3433 70.967 44.3565 71.2724 44.3565C74.0789 44.3565 76.5614 42.4313 77.9816 40.3329H87.9248C88.5181 40.3329 88.999 39.852 88.999 39.2587V25.715C88.999 25.1218 88.5181 24.6408 87.9248 24.6408ZM50.2289 23.596L52.6772 26.0444C51.9495 26.4945 51.108 26.7353 50.2289 26.7353C49.3496 26.7353 48.5083 26.4946 47.7805 26.0444L50.2289 23.596ZM42.2343 36.4875L39.786 34.0391L42.2343 31.5907C42.6844 32.3185 42.9253 33.1599 42.9253 34.0391C42.9253 34.9182 42.6845 35.7596 42.2343 36.4875ZM58.7078 52.9609L56.2599 50.513C57.7544 49.5906 59.6609 49.5906 61.1556 50.513L58.7078 52.9609ZM62.7033 48.9654C60.3295 47.2435 57.086 47.2435 54.7122 48.9654L43.782 38.035C44.6208 36.8813 45.0737 35.4955 45.0737 34.0391C45.0737 32.5825 44.6209 31.1968 43.782 30.0431L46.233 27.5921C47.3867 28.431 48.7725 28.8839 50.229 28.8839C51.6855 28.8839 53.0713 28.431 54.225 27.5921L56.5484 29.9156C56.0471 29.9896 55.5582 30.1548 55.1023 30.4088C54.3323 30.8379 53.7281 31.4804 53.352 32.2577C52.1402 32.4821 51.0184 33.0687 50.1384 33.9486C47.751 36.3362 47.751 40.2209 50.1385 42.6084C51.3322 43.8021 52.9002 44.399 54.4684 44.399C56.0364 44.399 57.6046 43.8022 58.7983 42.6084C59.575 41.8318 60.1191 40.8772 60.3916 39.8369L64.0186 41.0679C63.6103 42.9594 64.0285 44.9493 65.1565 46.5122L62.7033 48.9654ZM56.1723 38.4045C56.1818 38.4079 56.1912 38.4113 56.2008 38.4146L58.3488 39.1436C58.1866 39.8757 57.8195 40.5488 57.2792 41.0893C55.7293 42.6389 53.2075 42.6391 51.6578 41.0893C50.1079 39.5395 50.1079 37.0178 51.6578 35.4679C52.0316 35.0938 52.4728 34.8015 52.9535 34.6033C53.1518 36.2536 54.34 37.7245 56.1723 38.4045ZM66.7044 44.9643C66.2897 44.2886 66.0551 43.5174 66.0181 42.7303C66.5326 43.1023 67.1615 43.4668 67.9126 43.7561L66.7044 44.9643ZM76.3941 38.8304C75.3759 40.4995 73.4013 42.2078 71.2724 42.2078C70.8741 42.2078 70.5008 42.1795 70.1518 42.129C70.1504 42.1288 70.149 42.1286 70.1476 42.1284C67.8277 41.7914 66.5798 40.4729 66.1685 39.9508C66.1465 39.9186 66.0532 39.7964 66.0393 39.7761C65.9142 39.5525 65.709 39.3727 65.4473 39.2838L56.9064 36.385C55.5435 35.8735 54.823 34.7064 55.1532 33.5423C55.1534 33.5416 55.1536 33.5408 55.1538 33.5401C55.1542 33.5392 55.1544 33.5383 55.1546 33.5374C55.3081 33.0014 55.6607 32.5567 56.1479 32.2853C56.632 32.0156 57.1915 31.9486 57.7252 32.0965L67.3495 35.1464C67.9151 35.3259 68.5188 35.0124 68.698 34.4468C68.8772 33.8813 68.5641 33.2775 67.9985 33.0983L60.3441 30.6727L60.2773 30.6059C60.2767 30.6052 60.276 30.6045 60.2753 30.6038L56.3125 26.641L59.7186 25.4214C59.7301 25.4172 59.7443 25.4119 59.7557 25.4073C59.7586 25.4061 59.7642 25.4039 59.767 25.4028C59.7816 25.3969 59.796 25.3906 59.8103 25.3841C62.113 24.3258 64.3018 24.9592 65.1598 25.2929C68.4021 26.7518 70.1326 27.7496 71.397 28.4787C73.1549 29.4924 74.0019 29.9809 76.3941 30.1784V38.8304ZM80.4636 38.1843H78.5426V28.791H80.4636V38.1843ZM86.8506 38.1843H82.6121V26.7893H86.8506V38.1843Z" fill="#00659E"/>
</svg>
