<svg width="114" height="116" viewBox="0 0 114 116" fill="none" xmlns="http://www.w3.org/2000/svg">
<path d="M7.03194 68.6951C6.97035 68.5827 6.90875 68.4703 6.82663 68.4141C6.76503 68.3579 6.68291 68.3017 6.62132 68.3579C6.416 68.5827 6.19016 68.6389 5.96432 68.6389C5.69741 68.6389 5.45104 68.6389 5.18413 68.6951C4.91722 68.7513 4.67085 68.6389 4.40394 68.6389C4.21916 68.6389 4.03438 68.5265 3.87013 68.3017C3.72641 68.1332 3.5827 68.1893 3.43898 68.3579C3.35685 68.4141 3.29526 68.4141 3.23367 68.3579C3.08995 68.1893 2.96676 68.077 2.80251 68.077C2.65879 68.077 2.51507 68.0208 2.37135 67.9646C2.28923 67.9646 2.16604 67.5713 2.16604 67.3465C2.14551 66.9532 2.10445 66.5598 2.12498 66.1665C2.12498 65.5484 2.16604 64.9865 2.24817 64.3684C2.28923 64.0874 2.24817 63.7503 2.14551 63.5817C2.06339 63.4131 1.96073 63.2446 1.87861 63.076C1.75542 62.795 1.69382 62.4579 1.71436 62.0084C1.73489 61.8398 1.75542 61.615 1.77595 61.4465C1.81701 61.1093 1.75542 60.9408 1.6117 60.8846C1.42692 60.8846 1.24214 60.8846 1.05736 60.8284C0.995764 60.8284 0.913639 60.716 0.852045 60.6036C0.708327 60.2665 0.585139 59.8731 0.482483 59.4798C0.441421 59.3112 0.400359 59.1427 0.400359 58.9179C0.379827 58.5246 0.379827 58.1312 0.359296 57.7379C0.359296 57.3446 0.400359 56.9512 0.482483 56.6141C0.544077 56.3331 0.605671 56.1084 0.667264 55.8274C0.728858 55.6026 0.708327 55.3217 0.585139 55.0407C0.503015 54.816 0.42089 54.6474 0.338765 54.4226C0.236109 54.1417 0.174515 53.7484 0.153984 53.355C0.153984 52.8493 0.153984 52.3436 0.153984 51.8379C0.153984 50.7702 0.153984 50.7141 0.544077 50.3769C0.585139 50.3207 0.626202 50.3207 0.646733 50.2645C0.667264 50.1522 0.646733 49.9836 0.564608 49.8712C0.42089 49.7026 0.297703 49.4779 0.215578 49.1407C0.195046 49.0845 0.174515 48.9721 0.174515 48.8598C0.174515 48.7474 0.174515 48.635 0.174515 48.5788C0.215578 48.2979 0.25664 48.0169 0.297703 47.736C0.25664 47.3426 0.112922 47.1179 0.0307968 46.7807C-0.0102656 46.6121 -0.0102656 46.3874 0.0307968 46.2188C0.112922 45.8817 0.236109 45.6569 0.379827 45.5445C0.461952 45.4883 0.482483 45.2636 0.461952 45.0388C0.338765 44.3645 0.359296 43.6902 0.482483 43.0159C0.503015 42.9036 0.523546 42.8474 0.523546 42.735C0.58514 42.1169 0.564608 41.555 0.461952 40.9931C0.42089 40.8245 0.379827 40.6559 0.338765 40.4874C0.215578 39.9255 0.195046 39.7569 0.523546 39.3635C0.687796 39.1388 0.872576 39.0264 1.03683 38.8578C1.07789 38.8578 1.09842 38.7455 1.11895 38.6893C1.13948 38.5769 1.07789 38.4083 0.995764 38.3521C0.852045 38.2959 0.708327 38.2397 0.564608 38.1274C0.461952 38.0712 0.359296 37.9026 0.297703 37.6216C0.277171 37.5654 0.236109 37.4531 0.25664 37.3407C0.277171 36.7226 0.400359 36.2169 0.379827 35.5988C0.338765 34.9807 0.42089 34.3064 0.544077 33.6883C0.605671 33.4635 0.58514 33.0702 0.626202 32.7892C0.667264 32.5083 0.728858 32.2835 0.852045 32.1711C0.913639 32.0588 0.975233 31.9464 1.03683 31.8902C1.13948 31.7216 1.16001 31.3845 1.05736 31.1597C0.893108 30.8226 0.831514 30.373 0.93417 29.8673C0.975233 29.6426 0.975233 29.474 0.93417 29.3054C0.893108 29.1368 0.893108 28.9121 0.913639 28.7435C0.954701 28.4626 1.01629 28.1816 1.01629 27.9007C1.03683 27.3949 1.13948 26.9454 1.11895 26.4397C1.11895 25.9902 1.13948 25.7092 1.30373 25.4845C1.36533 25.4283 1.42692 25.2597 1.46798 25.0911C1.52958 24.9226 1.55011 24.754 1.50904 24.5854C1.48851 24.5292 1.44745 24.473 1.40639 24.473C1.22161 24.473 1.03683 24.473 0.852045 24.4168C0.728858 24.4168 0.646733 24.0797 0.667264 23.8549C0.728858 23.1806 0.831514 22.5064 1.05736 22.113C1.11895 22.0006 1.13948 21.8321 1.18054 21.6635C1.20108 21.6073 1.20108 21.4949 1.22161 21.3825H1.24214C1.46798 21.2702 1.67329 21.1016 1.81701 20.5959C1.87861 20.3711 1.89914 19.9778 1.83754 19.753C1.73489 19.3035 1.57064 19.0787 1.44745 18.6854C1.38586 18.4606 1.32426 18.1797 1.26267 17.9549C1.24214 17.8987 1.24214 17.7863 1.24214 17.674C1.20108 17.1682 1.34479 16.6063 1.50904 16.5501C1.69382 16.494 1.87861 16.4378 2.06339 16.3816C2.14551 16.3816 2.20711 16.2692 2.2687 16.213C2.35082 16.1568 2.45348 15.7073 2.41242 15.5387C2.35082 15.4263 2.28923 15.3701 2.20711 15.4825C2.14551 15.5387 2.06339 15.6511 2.00179 15.7073C1.9402 15.7635 1.83754 15.7635 1.79648 15.7073C1.55011 15.3701 1.30373 15.2578 1.05736 15.2016C1.01629 15.2016 0.995764 15.0892 0.975232 15.033C0.954701 14.9206 0.995764 14.752 1.07789 14.6959C1.32426 14.5835 1.59117 14.5273 1.81701 14.1901C1.9402 13.9654 2.10445 14.0216 2.24817 13.9654C2.39189 13.9092 2.5356 13.9654 2.67932 13.7968C2.76145 13.7406 2.90517 13.3473 2.90517 13.1787C2.90517 13.0101 2.8641 12.8416 2.80251 12.673C2.74092 12.5606 2.67932 12.392 2.61773 12.392C2.51507 12.3358 2.39189 12.2797 2.28923 12.2797C1.87861 12.2235 1.48851 12.2235 1.07789 12.1673C1.03683 12.1673 0.995764 12.1111 0.975232 12.0549C0.93417 11.9425 0.954701 11.7739 1.01629 11.6054C1.13948 11.3806 1.26267 11.1558 1.36533 10.8749C1.50904 10.5377 1.67329 10.3692 1.85807 10.313C1.96073 10.2568 2.08392 10.2006 2.18657 10.1444C2.24817 10.0882 2.30976 9.91965 2.33029 9.75108C2.47401 9.80727 2.61773 9.69489 2.74092 9.52631C2.84357 9.41393 2.94623 9.47012 3.04888 9.52631C3.33632 9.75108 3.62376 9.80727 3.89066 9.5825C3.9112 9.5825 3.95226 9.47012 3.95226 9.41393C3.95226 9.30155 3.95226 9.18917 3.93173 9.13298C3.89066 9.0206 3.82907 8.85203 3.76748 8.79584C3.37738 8.51488 2.98729 8.51488 2.5972 8.68345C2.5356 8.68345 2.45348 8.79584 2.41242 8.96441C2.37135 9.07679 2.37135 9.30155 2.35082 9.52631C2.35082 9.63869 2.35082 9.75108 2.35082 9.80727C2.28923 9.75108 2.22764 9.63869 2.18657 9.47012C2.14551 9.18917 2.08392 8.96441 2.04286 8.68345C1.98126 8.29012 1.98126 8.12155 2.04286 7.89679C2.14551 7.61583 2.24817 7.33488 2.35082 7.11012C2.43295 6.94154 2.5356 6.77297 2.63826 6.77297C2.82304 6.77297 2.98729 6.71678 3.17207 6.71678C3.35685 6.71678 3.5211 6.82916 3.68535 7.11012C3.74695 7.2225 3.80854 7.27869 3.89066 7.33488C3.9112 7.39107 3.9112 7.50345 3.93173 7.55964C3.95226 7.61583 3.97279 7.61583 3.99332 7.61583C3.99332 7.50345 3.95226 7.39107 3.87013 7.39107C3.89066 6.88535 3.82907 6.43583 3.70588 5.9863C3.54163 5.4244 3.33632 4.97487 3.06942 4.91868C3.00782 4.91868 2.9257 4.8063 2.8641 4.75011C2.80251 4.63773 2.74092 4.52535 2.69985 4.35677C2.65879 4.1882 2.67932 3.96344 2.76145 3.90725C2.96676 3.68249 3.17207 3.51392 3.37738 3.34534C3.43898 3.28915 3.5211 3.23296 3.5827 3.23296C3.80854 3.12058 4.03438 3.17677 4.2397 2.95201C4.40394 2.78344 4.56819 2.55867 4.75297 2.50248C4.91722 2.44629 4.89669 2.3901 4.75297 1.99677C4.62979 1.65962 4.60926 1.60343 4.69138 1.26629C4.71191 1.15391 4.73244 1.09772 4.73244 0.985336C4.8351 0.311048 4.99935 0.0300949 5.36891 0.198667C5.47157 0.254857 5.57422 0.47962 5.53316 0.816764C5.4921 1.2101 5.65635 1.60343 5.51263 1.94058C5.45104 2.05296 5.38944 2.16534 5.38944 2.3901C5.38944 2.3901 5.45104 2.44629 5.47157 2.50248C5.61529 2.55867 5.759 2.55867 5.90272 2.61486C6.00538 2.61486 6.12857 2.61486 6.23122 2.50248C6.43653 2.22153 6.64185 2.05296 6.86769 2.10915C7.01141 2.10915 7.15513 2.10915 7.31938 2.05296C7.38097 2.05296 7.48363 1.99677 7.52469 1.88439C7.56575 1.772 7.56575 1.54724 7.56575 1.32248C7.56575 1.09772 7.60681 0.985336 7.70947 0.929145C7.89425 0.929145 8.07903 0.929145 8.26381 0.872955C8.387 0.872955 8.48966 0.985336 8.59231 1.09772C8.67444 1.2101 8.73603 1.2101 8.79762 1.09772C9.044 0.816764 9.3109 0.816764 9.55728 0.816764C9.6394 0.816764 9.72153 0.816764 9.76259 0.929145C10.1116 1.54724 10.5428 1.43486 10.9329 1.8282C11.1177 1.88439 11.3024 1.88439 11.4872 1.94058C11.5899 1.99677 11.7131 2.05296 11.7952 2.22153C11.8978 2.3901 11.98 2.55867 12.021 2.83963C11.98 3.0082 11.9389 3.12058 11.8773 3.28915C11.8568 3.34534 11.8157 3.40153 11.7952 3.51391C11.7131 3.79487 11.7336 4.13201 11.8362 4.24439C12.1031 4.46916 12.3495 4.46916 12.5548 3.96344C12.7601 3.45772 12.9449 3.17677 13.1502 2.95201C13.2118 2.89582 13.294 2.78344 13.3556 2.83963C13.5609 3.0082 13.7251 2.78344 13.8894 2.61486C13.9715 2.55867 14.0331 2.50248 14.1152 2.61486C14.3205 2.89582 14.5464 2.89582 14.7517 2.61486C15.0802 2.55867 15.4087 2.50248 15.7372 2.83963C15.8809 3.0082 16.0246 3.0082 16.1683 3.0082C16.3942 3.06439 16.5995 3.17677 16.8048 3.40153C16.9075 3.51392 17.0101 3.57011 17.1128 3.68249C17.2565 3.79487 17.4002 3.79487 17.5439 3.90725C17.7903 4.13201 18.0367 4.24439 18.3036 4.24439C18.6731 4.24439 19.0427 4.30058 19.4123 4.30058C19.6792 4.30058 19.9255 4.35677 20.1924 4.35677C20.4183 4.35677 20.6236 4.46916 20.8494 4.63773C21.1369 4.86249 21.4243 4.91868 21.7118 4.52535C21.8144 4.41297 21.9171 4.41297 22.0403 4.46916C22.1429 4.58154 22.2456 4.58154 22.3688 4.46916C22.7999 4.01963 23.2311 4.13201 23.6622 4.58154C23.8059 4.75011 23.9497 4.75011 24.0934 4.58154C24.3808 4.1882 24.6682 4.1882 24.9557 4.52535C25.0994 4.69392 25.2226 4.8063 25.3868 4.8063C25.6743 4.8063 25.9822 4.8063 26.2697 4.75011C26.9267 4.63773 27.6042 4.8063 28.2612 4.91868C28.3433 4.91868 28.4049 4.97487 28.4665 5.03106C28.6102 5.14344 28.754 5.08725 28.8977 4.97487C29.1851 4.8063 29.4726 4.86249 29.76 5.19963C29.9037 5.36821 30.0474 5.4244 30.1911 5.36821C30.417 5.31202 30.6223 5.36821 30.8276 5.70535C30.9303 5.87392 31.0329 5.87392 31.1356 5.70535C31.3614 5.36821 31.6283 5.25582 31.8747 5.31202C32.0595 5.36821 32.2443 5.4244 32.429 5.4244C32.5522 5.4244 32.6549 5.53678 32.737 5.64916C32.8807 5.81773 33.0039 5.93011 33.1682 5.87392C33.4145 5.81773 33.6814 5.87392 33.9278 5.59297C34.0305 5.48059 34.1331 5.53678 34.2358 5.70535C34.3384 5.81773 34.4411 5.9863 34.5438 5.9863C34.9133 5.93011 35.2829 5.93011 35.6524 5.87392C35.714 5.87392 35.7962 5.76154 35.8578 5.70535C36.1452 5.4244 36.4326 5.4244 36.7201 5.64916C36.7406 5.64916 36.7611 5.76154 36.7611 5.81773C36.7406 5.87392 36.7201 5.9863 36.679 5.9863C36.3916 5.9863 36.2068 6.49202 36.0015 6.88535C35.9399 6.99773 35.8783 6.99774 35.7962 6.94154C35.6524 6.77297 35.5087 6.77297 35.365 6.94154C35.2008 7.16631 35.016 7.27869 34.8312 7.2225C34.4206 7.16631 34.0099 7.16631 33.6199 7.27869C33.5583 7.27869 33.4761 7.39107 33.4145 7.50345C33.353 7.61583 33.3119 7.7844 33.2914 7.95298C33.2708 8.12155 33.3119 8.29012 33.394 8.4025C33.5993 8.68345 33.7841 9.0206 34.01 9.0206C34.3385 9.0206 34.5643 9.47012 34.7285 10.2568C34.7901 10.5939 34.8517 10.5939 34.9954 10.4816C35.1802 10.3692 35.365 10.2568 35.5293 10.0882C35.673 9.91965 35.8167 9.91965 35.9604 10.0882C36.022 10.1444 36.1041 10.2006 36.1657 10.2006C36.3916 10.2568 36.6174 10.2006 36.7817 9.75108C36.8433 9.63869 36.8843 9.47012 36.9459 9.35774C37.1102 9.07679 37.2744 8.96441 37.4592 9.13298C37.5208 9.18917 37.6029 9.30155 37.6645 9.35774C37.7672 9.47012 37.8904 9.47012 37.993 9.35774C38.0957 9.24536 38.1983 9.30155 38.3215 9.41393C38.5063 9.58251 38.6911 9.63869 38.8758 9.52631C38.9785 9.47012 39.0812 9.30155 39.1428 9.07679C39.2454 8.68345 39.3686 8.68345 39.4918 9.07679C39.5534 9.30155 39.615 9.5825 39.6766 9.80727C39.7587 10.0882 39.8613 10.0882 39.964 9.86346C40.0256 9.75108 40.0667 9.52631 40.1077 9.41393C40.1898 9.18917 40.2925 9.07679 40.4157 9.07679C40.6005 9.0206 40.7853 8.96441 40.97 9.18917C41.278 9.52631 41.627 9.5825 41.8939 10.0882C41.9966 10.2568 42.0992 10.2006 42.2019 10.032C42.4072 9.69489 42.6125 9.63869 42.8384 9.86346C43.0232 10.0882 43.1874 10.1444 43.3722 9.91965C43.5775 9.69489 43.8033 9.5825 44.0087 9.52631C44.2345 9.47012 44.4193 9.13298 44.6451 9.07679C44.8094 9.07679 44.9326 8.79584 45.0147 8.45869C45.2405 7.61583 45.5896 7.16631 45.9386 6.82916C46.0002 6.77297 46.1028 6.77297 46.1439 6.82916C46.4108 7.2225 46.7188 7.2225 47.0062 7.2225C47.1294 7.2225 47.2936 7.55964 47.3142 7.95298C47.3347 8.12155 47.3552 8.34631 47.3552 8.57107C47.3552 9.13298 47.4168 9.52631 47.6427 9.6387C47.8275 9.69489 47.9917 9.91965 48.156 10.2006C48.2175 10.313 48.2997 10.4254 48.2997 10.5939C48.2997 10.7625 48.197 10.8187 48.1149 10.8749C48.0122 10.9311 47.889 10.9873 47.7864 11.0435C47.7453 11.0435 47.7248 11.1558 47.7043 11.212C47.7248 11.2682 47.7453 11.3244 47.7864 11.3806C47.889 11.493 48.0122 11.4368 48.1149 11.4368C48.2586 11.4368 48.4023 11.4368 48.546 11.6616C48.6487 11.8301 48.6692 12.1673 48.7514 12.3358C48.8335 12.5606 48.9361 12.6168 49.0388 12.4482C49.1004 12.3358 49.162 12.2235 49.203 12.0549C49.2441 11.8863 49.2852 11.7177 49.3262 11.5492C49.3673 11.3244 49.4289 11.212 49.47 11.3244C49.4905 11.3806 49.511 11.493 49.5315 11.5492C49.5521 11.7177 49.5726 11.9425 49.5931 12.1111C49.6547 12.5044 49.9216 12.673 50.0654 12.392C50.168 12.2235 50.2091 11.9425 50.2912 11.7177C50.3528 11.5492 50.4144 11.493 50.476 11.4368C50.7018 11.3244 50.9071 11.3244 51.1124 11.6616C51.1535 11.7177 51.174 11.7739 51.2151 11.8301C51.4204 12.0549 51.6052 11.9987 51.7079 11.493C51.8105 10.9311 51.9542 10.4816 52.1595 10.2006C52.2211 10.0882 52.3033 9.97584 52.3033 9.80727C52.3033 9.63869 52.2006 9.5825 52.139 9.52631C52.0364 9.47012 51.9132 9.47012 51.8105 9.41393C51.7079 9.35774 51.6052 9.18917 51.5641 8.90822L51.5436 8.96441C51.6463 8.85203 51.7489 8.73965 51.8516 8.57107C51.9132 8.45869 51.9953 8.45869 52.0569 8.51488C52.2211 8.68345 52.3854 8.90822 52.5907 8.90822C52.7344 8.90822 52.8781 8.90822 53.0424 8.96441C53.1245 8.96441 53.1861 9.07679 53.2066 9.18917C53.2066 9.24536 53.1861 9.41393 53.1656 9.47012C53.0424 9.69489 52.9397 9.97584 52.8987 10.3692C52.8781 10.4816 52.8781 10.5377 52.8576 10.6501C52.796 10.8749 52.796 11.0435 52.8781 11.1558C52.8987 11.212 52.9397 11.212 52.9808 11.212C53.2682 10.9311 53.5351 10.7625 53.8431 10.8187C54.0279 10.8749 54.2127 10.8187 54.3974 10.7625C54.5822 10.7063 54.767 10.6501 54.9313 10.4254C55.075 10.2006 55.2187 10.313 55.3419 10.4816C55.3829 10.5377 55.4035 10.5939 55.4445 10.5939C55.6293 10.7625 55.7525 11.0435 55.8552 11.5492C55.9167 11.8301 56.0194 11.8863 56.1426 11.9425C56.2247 11.9425 56.3068 11.9425 56.3479 11.7739C56.3684 11.6054 56.3068 11.4368 56.2247 11.3244C56.1426 11.212 56.1221 10.9873 56.1837 10.8749C56.3684 10.5377 56.5327 10.1444 56.6969 9.75108C56.8817 9.30155 57.1486 9.41393 57.3129 9.75108C57.5182 10.2006 57.7235 10.6501 57.8056 11.3806C57.6003 11.3806 57.3745 11.3806 57.1692 11.3806C57.087 11.3806 57.046 11.5492 57.046 11.6616C57.046 11.7177 57.087 11.8301 57.1281 11.8301C57.1897 11.8863 57.2718 11.8863 57.3334 11.8863C57.5182 11.9425 57.6824 11.7177 57.7646 11.2682C58.0931 11.2682 58.4216 11.212 58.7706 11.2682C58.9964 11.2682 59.2223 11.3244 59.4276 11.3806C59.5918 11.4368 59.5918 11.493 59.6534 12.1673C59.6534 12.2235 59.6945 12.3358 59.715 12.392C59.8793 12.673 60.2078 12.5606 60.331 12.2235C60.3515 12.1673 60.3926 12.1111 60.4131 11.9987C60.5157 11.493 60.68 11.3806 60.8853 11.3244C61.029 11.2682 61.1727 11.2682 61.3165 11.212C61.3575 11.212 61.3986 11.0997 61.3986 11.0435C61.3986 10.8749 61.3575 10.7625 61.2754 10.7063C61.0906 10.5939 60.9058 10.7063 60.7621 10.313C60.7416 10.2568 60.7211 10.0882 60.7416 10.032C60.7416 9.97584 60.8032 9.80727 60.8237 9.80727C61.0701 9.97584 61.3165 10.0882 61.5628 10.0882C61.8092 10.0882 61.8092 10.1444 61.9119 10.8749C61.9119 10.9311 61.9529 11.0435 61.9735 11.0435C62.4867 11.1558 63 11.1558 63.5133 11.2682C63.5954 11.2682 63.657 11.4368 63.6775 11.5492C63.7186 11.7739 63.5749 12.1673 63.4928 12.1673C63.4517 12.1673 63.4106 12.1673 63.3901 12.1673C63.3285 12.1111 63.2464 11.9987 63.1848 11.9987C63.1232 11.9425 63.0411 11.9425 62.959 11.9987C62.8358 11.9987 62.7742 12.2797 62.7126 12.5606C62.6715 12.8416 62.6921 13.1225 62.7742 13.3473C62.7947 13.4035 62.8358 13.5159 62.8563 13.5159C62.959 13.572 63.0821 13.572 63.1848 13.572C63.4928 13.6844 63.7597 13.4035 63.9855 12.7854C64.0471 12.6168 64.1292 12.673 64.1908 12.7854C64.2729 13.0101 64.3551 13.1787 64.4372 13.4035C64.4988 13.5158 64.5399 13.6844 64.6015 13.7968C64.7246 14.0216 64.8889 13.9654 64.9915 13.6282C65.0531 13.4035 65.1147 13.1225 65.1763 12.8978C65.1763 12.8978 65.2379 12.8978 65.2379 12.9539C65.2995 13.5159 65.32 14.1339 65.2584 14.752C65.2174 15.2016 65.2995 15.4263 65.4843 15.4263C65.5664 15.4263 65.628 15.4263 65.7101 15.3701C65.8333 15.3139 65.9155 15.1454 65.9565 14.8082C65.9976 14.5273 65.9976 14.2463 66.0386 13.9654C66.0592 13.7968 66.1208 13.572 66.1618 13.4597C66.3671 13.0663 66.593 12.673 66.7983 12.2797C66.9831 11.8863 67.2089 11.8301 67.4348 11.8863C67.5785 11.9425 67.7222 12.1111 67.8659 12.1673C67.9686 12.2235 68.0712 12.0549 68.1944 12.1673C68.4818 12.4482 68.7693 12.392 69.0362 11.9425C69.0978 11.8301 69.1799 11.7177 69.1799 11.5492C69.1594 11.3806 69.0773 11.3244 68.9951 11.3244C68.8925 11.3244 68.7693 11.2682 68.6666 11.2682C68.6461 11.2682 68.605 11.1558 68.5845 11.0997C68.564 10.9873 68.605 10.8187 68.7077 10.8187C68.9746 10.8187 69.221 10.8187 69.4879 10.8187C69.5905 10.8187 69.6727 11.0997 69.6111 11.4368C69.5495 11.8863 69.5905 12.2235 69.7343 12.4482C69.7958 12.5606 69.878 12.673 69.8574 12.8978C69.8574 13.0663 69.7753 13.1787 69.6932 13.1787C69.4058 13.2349 69.0978 13.2349 68.8103 13.2349C68.7488 13.2349 68.6666 13.2911 68.605 13.3473C68.5229 13.4035 68.4818 13.572 68.5024 13.7968C68.5024 13.9092 68.5434 14.0216 68.564 14.0216C68.7077 13.9654 68.8514 14.0216 68.9951 14.1901C69.0978 14.3025 69.2004 14.3025 69.3236 14.2463C69.4263 14.1339 69.5289 14.0216 69.6316 13.9092C69.6932 13.853 69.7958 13.7968 69.8369 13.853C70.1859 14.2463 70.5555 14.3025 70.9251 14.3025C71.1509 14.3025 71.3768 14.2463 71.5821 14.1901C71.6437 14.1901 71.7258 14.0216 71.7668 13.9092C71.89 13.6282 71.9516 13.2911 72.0337 12.9539C72.1364 12.5044 72.3828 12.392 72.5265 12.673C72.6497 12.8978 72.7523 13.1787 72.8755 13.4035C72.9782 13.572 73.0808 13.6282 73.1835 13.5159C73.3888 13.2349 73.5941 13.1225 73.82 13.1225C74.1074 13.1787 74.4154 13.1787 74.7028 13.1225C75.175 13.0663 75.6678 13.0663 76.14 13.1225C76.4069 13.1787 76.6533 13.1225 76.8996 12.7854C76.9612 12.7292 77.0434 12.7854 77.105 12.8416C77.2076 12.9539 77.3308 12.9539 77.4335 12.8416C77.5361 12.7854 77.6388 12.7292 77.762 12.7854C77.9057 12.8978 78.0494 12.8978 78.1931 12.7292C78.3368 12.5606 78.4805 12.5044 78.6243 12.4482L78.6037 12.392C78.6653 12.8416 78.8091 12.9539 78.9733 12.8978C79.0554 12.8978 79.117 12.8416 79.1991 12.7854C79.5892 12.2797 79.9999 12.4482 80.39 12.5044C80.4515 12.5044 80.5337 12.6168 80.5953 12.673C80.78 12.8978 80.9443 12.8416 81.1291 12.6168C81.2933 12.392 81.4986 12.4482 81.6629 12.3358C81.7861 12.2797 81.8682 12.1111 81.9298 11.8863C82.094 11.0997 82.3404 11.1558 82.6073 11.2682C82.6484 11.2682 82.6689 11.3244 82.71 11.3806C82.7716 11.4368 82.8537 11.5492 82.9153 11.6616C83.059 11.8301 83.2027 11.8301 83.3464 11.8301C83.4902 11.7739 83.6339 11.7177 83.7776 11.5492C83.8803 11.4368 83.9829 11.4368 84.1061 11.5492C84.3525 11.8301 84.6194 11.8301 84.8658 11.5492C85.03 11.3244 85.2148 11.2682 85.3996 11.2682C85.7075 11.2682 85.9744 11.0435 86.1798 10.3692C86.2208 10.2006 86.3029 10.0882 86.3645 10.0882C86.7341 10.0882 87.1037 10.032 87.4732 10.1444C87.5759 10.2006 87.6785 10.3692 87.7812 10.4254C87.8838 10.4816 88.007 10.3692 88.1097 10.3692C88.4998 10.8187 88.9104 10.7063 89.321 10.6501C89.4237 10.6501 89.5469 10.5377 89.6495 10.4254C89.7522 10.313 89.8548 10.313 89.978 10.4254C90.0807 10.5377 90.2039 10.5377 90.3065 10.4254C90.4502 10.2568 90.594 10.3692 90.7377 10.4816C90.9841 10.7063 91.251 10.7063 91.4973 10.4254C91.7437 10.1444 92.0106 10.032 92.257 10.313C92.5444 10.5939 92.8319 10.6501 93.1193 10.7063C93.4889 10.7625 93.8584 10.7625 94.228 10.7625C94.536 10.7063 94.8029 10.9311 95.0698 11.3806C95.1519 11.493 95.1724 11.6616 95.1314 11.8863C95.0903 12.0549 95.0287 12.1673 94.9671 12.2235C94.9055 12.2797 94.8234 12.2235 94.7618 12.1111C94.6181 11.9425 94.4744 11.8863 94.3306 12.0549C94.1459 12.2797 93.9816 12.2797 93.7968 12.0549C93.7352 11.9987 93.6531 11.9425 93.5915 11.9425C93.1398 11.8863 91.7232 11.9425 91.0456 12.1111C91.0251 12.1111 91.0046 12.2235 90.9635 12.2235C90.9841 12.2797 91.0046 12.392 91.0456 12.4482C91.2304 12.5606 91.4152 12.6168 91.5795 12.8978C91.6616 13.0663 91.7848 13.1225 91.8874 13.1787C92.0312 13.2911 92.1749 13.2911 92.3186 13.4035C92.5239 13.572 92.7497 13.6844 92.9756 13.6844C93.4478 13.7406 93.9405 13.7968 94.4128 13.7968C94.6797 13.7968 94.926 13.9092 95.1724 14.1901C95.3367 14.4149 95.542 14.3587 95.7062 14.4149C95.7473 14.4149 95.7884 14.5273 95.7884 14.5835C95.8089 14.752 95.7473 14.8644 95.6652 14.9206C95.6036 14.9768 95.5215 14.9768 95.4599 15.0892C95.3777 15.2016 95.3572 15.3701 95.3572 15.5387C95.3572 15.7635 95.3983 15.932 95.4804 15.9882C95.6652 16.1568 95.85 16.1006 96.0347 16.1568C96.0963 16.1568 96.1785 16.2692 96.2401 16.3816C96.3016 16.494 96.3632 16.6625 96.3222 16.8873C96.3016 17.1121 96.2195 17.2244 96.1374 17.1682C95.9937 17.0559 95.85 16.8873 95.7062 16.8311C95.4804 16.7749 95.2545 16.7749 95.0492 16.7749C94.9876 16.7749 94.9055 16.8311 94.8439 16.8873C94.8029 16.8873 94.7618 16.9997 94.7618 17.0559C94.7618 17.1682 94.7823 17.2806 94.8234 17.3368C95.0903 17.7301 95.3572 18.0673 95.6652 18.0673C95.9526 18.0673 96.24 18.1797 96.5275 18.4606C96.7739 18.6854 97.0408 18.6854 97.2871 18.7978C97.3282 18.7978 97.3693 18.9102 97.3693 18.9663C97.3898 19.1911 97.3487 19.3597 97.2871 19.4721C97.2255 19.5844 97.1639 19.6968 97.1024 19.753C96.9176 19.8654 96.7328 19.9216 96.548 19.6968C96.2606 19.4159 95.9731 19.3597 95.6857 19.3597C94.9876 19.3597 94.2896 19.3035 93.571 19.3597C93.0577 19.3597 92.5444 19.3597 92.0106 19.4159C91.9285 19.4159 91.8669 19.5844 91.908 19.6968C91.9285 19.753 91.9696 19.8654 91.9901 19.8654C92.1749 19.9216 92.3596 19.9216 92.5444 19.9216C92.6881 19.9216 92.8319 19.9778 92.9756 20.1463C93.1398 20.3711 93.3246 20.4273 93.5094 20.4273C93.92 20.4835 94.3306 20.4835 94.7207 20.5397C94.8644 20.5397 95.0287 20.5959 95.1519 20.7644C95.3983 21.1016 95.6446 21.214 95.9115 21.1578C96.1785 21.1016 96.4248 21.1578 96.6712 21.4949C96.7328 21.6073 96.8149 21.6073 96.8765 21.6635C97.0202 21.7197 97.1639 21.7197 97.3282 21.7197C97.554 21.7197 97.7594 21.8321 97.9852 22.0568C98.0879 22.1692 98.1905 22.2254 98.3137 22.2254C98.5395 22.2816 98.7654 22.3378 98.9707 22.3378C99.1555 22.3378 99.3403 22.4502 99.5045 22.6187C99.6482 22.7873 99.7919 22.7873 99.9357 22.7873C100.449 22.8435 100.962 22.9559 101.476 23.0121C101.701 23.0121 101.907 23.2368 102.112 23.5178C102.174 23.6302 102.235 23.7425 102.235 23.9111C102.235 23.9673 102.174 24.0235 102.153 24.0797C101.968 24.1359 101.783 24.1921 101.599 24.1921C101.147 24.1359 100.716 24.0797 100.264 24.1359C100.079 24.1359 99.8946 24.0797 99.7098 24.0797C99.525 24.0797 99.3403 23.9673 99.176 23.7987C99.0733 23.6864 98.9707 23.6302 98.8475 23.6302C98.5806 23.574 98.3342 23.574 98.0673 23.574C97.9236 23.574 97.8415 23.6864 97.7183 24.1921C97.6567 24.4168 97.5951 24.6978 97.4719 24.8102C97.4514 24.6416 97.4103 24.473 97.3487 24.3606C97.3282 24.3045 97.2871 24.3045 97.2666 24.3045C97.2461 24.3045 97.205 24.3606 97.1845 24.4168C97.1639 24.5292 97.205 24.6416 97.2871 24.6978C97.3487 24.6978 97.4103 24.754 97.4924 24.754C97.513 24.9787 97.513 25.1473 97.5335 25.3721C97.554 25.5968 97.5951 25.7654 97.6772 25.8216C97.9647 26.1026 98.2521 26.0464 98.519 26.5521C98.7038 26.6645 98.8886 26.5521 99.0528 26.3835C99.1555 26.2711 99.2581 26.3835 99.3403 26.7207C99.4018 26.9454 99.3813 27.114 99.3197 27.2264C99.2581 27.3387 99.176 27.3949 99.1144 27.3949C98.6011 27.3949 98.0879 27.3949 97.5746 27.3949C97.4719 27.3949 97.4309 27.5635 97.4514 27.6759C97.4719 27.7321 97.513 27.7883 97.554 27.7883C97.6978 27.8445 97.8415 27.8445 98.0057 27.8445C98.3342 27.9007 98.6627 27.9007 98.9912 28.013C99.1349 28.0692 99.2787 28.2378 99.3813 28.5749C99.4019 28.6311 99.4224 28.7435 99.4429 28.8559C99.4429 28.9121 99.4224 29.0245 99.4019 29.1368C99.3197 29.474 99.176 29.6988 99.0323 29.7549C98.6627 29.8111 98.2932 29.8673 97.9236 29.8111C97.513 29.8111 97.1024 29.8111 96.7123 29.8673C96.6096 29.8673 96.5685 30.0359 96.5891 30.1483C96.6096 30.2045 96.6507 30.3169 96.6712 30.3169C96.8149 30.373 96.9586 30.4292 97.1024 30.4854C97.4103 30.9349 97.7388 30.9911 98.0673 31.0473C98.17 31.0473 98.2932 31.0473 98.3958 31.1597C98.8475 31.6654 99.3403 31.553 99.8125 31.7216C99.8946 31.7216 99.9562 31.7778 100.018 31.8902C100.079 31.9464 100.141 32.0588 100.203 32.2273C100.264 32.3959 100.285 32.5645 100.244 32.7331C100.223 32.7892 100.182 32.9016 100.162 32.9016C100.059 32.9578 99.9357 32.9578 99.833 32.9578C99.7509 32.9578 99.6893 33.014 99.6277 33.1826C99.5866 33.295 99.6893 33.8007 99.7714 33.9131C99.833 33.9692 99.9151 34.0816 99.9767 34.1378C100.079 34.194 100.203 34.194 100.305 34.2502C100.387 34.2502 100.469 34.3626 100.469 34.5312C100.49 34.6997 100.428 34.9245 100.367 35.0369C100.305 35.1492 100.244 35.2616 100.182 35.3178C100.079 35.374 99.9562 35.374 99.8535 35.4302C99.7098 35.4302 99.5661 35.5988 99.4429 35.8797C99.3608 36.0483 99.2787 36.2731 99.176 36.3854C99.1144 36.4978 99.0323 36.554 98.9707 36.554C98.7038 36.6102 98.4574 36.6102 98.1905 36.6102C98.0468 36.6102 97.9031 36.7226 97.7594 36.9473C97.6978 37.0597 97.6362 37.2283 97.6362 37.3969C97.6156 37.5654 97.6772 37.6778 97.7594 37.734C97.8415 37.7902 97.9031 37.7902 97.9852 37.7902C98.0879 37.8464 98.211 37.8464 98.3137 37.9026C98.519 38.015 98.7449 38.2397 98.9502 38.3521C99.1349 38.4645 99.3197 38.4645 99.5045 38.5769C99.5866 38.6331 99.6277 38.8016 99.6072 39.0264C99.5866 39.2512 99.6072 39.4197 99.6893 39.5321C99.833 39.6445 99.9767 39.7569 100.12 39.8693C100.264 40.0378 100.408 40.094 100.552 40.1502C100.819 40.2064 101.065 40.2626 101.332 40.3188C101.537 40.375 101.619 40.4874 101.578 40.5997C101.537 40.7683 101.476 40.8245 101.393 40.8807C101.188 40.9931 101.188 40.9931 101.188 41.3864C101.188 41.8359 101.147 42.0045 101.044 42.0045C100.593 42.0045 100.162 42.0607 99.7098 42.0607C99.2376 42.0607 98.7449 42.0607 98.2726 42.1169C98.17 42.1169 98.0673 42.2293 97.9647 42.454C97.9031 42.6226 97.862 42.7912 97.8825 42.9598C97.8825 43.0159 97.9236 43.1283 97.9647 43.1283C98.0673 43.2407 98.1905 43.2407 98.2726 43.4093C98.4985 43.7464 98.7654 43.8588 99.0118 43.9712C99.0528 43.9712 99.0734 44.0274 99.1144 44.0836C99.1555 44.1959 99.1144 44.3645 99.0118 44.3645C98.5395 44.4207 98.0468 44.4769 97.5746 44.5893C97.4719 44.5893 97.4309 44.7017 97.4719 44.8702C97.4925 44.9264 97.513 45.0388 97.5335 45.095C97.7388 45.3759 97.9441 45.6007 98.17 45.6007C98.6217 45.6569 99.0528 45.7131 99.5045 45.7693C99.6072 45.7693 99.7304 45.7693 99.833 45.8817C100.079 46.1626 100.326 46.275 100.593 46.275C100.777 46.275 100.962 46.4436 101.126 46.6683C101.373 46.9493 101.64 46.8931 101.886 47.0055C101.968 47.0617 102.03 47.1179 102.03 47.2864C102.03 47.3426 101.989 47.455 101.968 47.5112C101.742 47.8483 101.517 48.1293 101.229 48.1293C100.531 48.1293 99.833 48.1855 99.1349 48.2417C99.0323 48.2417 98.8886 48.1855 98.8064 48.4102C98.7243 48.635 98.7859 48.9721 98.7859 49.2531C98.7859 49.815 98.7859 49.8712 98.9091 49.9274C99.0118 49.9836 99.1349 49.9836 99.2376 49.9836C99.3197 49.9836 99.3813 50.0398 99.4634 50.0398C99.525 50.096 99.6072 50.096 99.6688 50.2083C99.8946 50.6579 100.162 50.6017 100.408 50.6579C100.511 50.7141 100.552 50.8264 100.511 51.0512C100.469 51.5569 100.634 51.6693 100.736 51.9503C100.819 52.175 100.819 52.5684 100.716 52.7369C100.675 52.7931 100.654 52.8493 100.613 52.9055C100.428 52.9617 100.244 53.0179 100.059 53.0741C99.833 53.1303 99.7303 53.4674 99.7509 54.0855C99.7714 54.4226 99.8535 54.5912 99.9562 54.535C100.018 54.4788 100.1 54.4226 100.162 54.3665C100.326 54.2541 100.449 54.4226 100.572 54.7036C100.634 54.816 100.675 54.9845 100.716 55.1531C100.777 55.2655 100.86 55.3217 100.921 55.2655C101.188 54.9284 101.476 54.816 101.783 54.8722C102.071 54.9284 102.379 54.8722 102.666 54.9284C102.769 54.9284 102.892 54.9845 102.995 55.0969C103.097 55.2093 103.2 55.2093 103.323 55.1531C103.426 55.0969 103.529 55.0407 103.652 54.9846C103.734 54.9284 103.796 55.0407 103.857 55.2093C103.939 55.4341 103.919 55.715 103.898 56.0522C103.857 56.4455 103.878 56.6141 103.98 56.7826C104.145 57.0074 104.309 57.2884 104.494 57.2884C104.822 57.3446 105.151 57.4007 105.479 57.4007C105.746 57.4007 105.992 57.4569 106.239 57.7379C106.424 57.9065 106.608 57.9065 106.793 57.9065C107.82 57.9627 108.867 58.0188 109.893 58.1312C109.996 58.1312 110.037 58.2998 110.058 58.7493C110.058 58.9741 110.078 59.1427 110.181 59.1988C110.55 59.3674 110.92 59.1988 111.289 59.3674C111.392 59.4236 111.495 59.5922 111.577 59.8169C111.597 59.8731 111.638 59.9855 111.638 60.0417C111.618 60.2665 111.536 60.3789 111.474 60.3227C111.269 60.0979 111.125 60.2103 111.023 60.716C110.981 60.8846 110.899 60.9408 110.817 60.9408C110.776 60.9408 110.735 60.9408 110.715 60.8846C110.489 60.4912 110.222 60.435 109.975 60.5474C109.975 60.435 109.955 60.3788 109.934 60.2665C109.914 60.2103 109.893 60.2103 109.852 60.2103C109.852 60.3788 109.893 60.435 109.975 60.4912C109.873 61.0531 109.729 61.5027 109.503 61.7274C109.236 62.0646 108.969 62.4017 108.661 62.4017C108.477 62.4017 108.292 62.5703 108.128 62.7389C107.922 62.9636 107.696 62.8512 107.471 63.0198C107.409 63.076 107.347 63.1884 107.286 63.3008C107.224 63.4131 107.204 63.6379 107.224 63.8065C107.224 63.8627 107.286 63.9189 107.327 63.9189C107.984 64.0312 108.661 64.0312 109.318 64.0874C109.934 64.1436 110.571 64.0312 111.207 64.0312C111.577 64.0312 111.946 64.0312 112.316 64.1998C112.357 64.1998 112.398 64.256 112.419 64.256C112.501 64.3684 112.542 64.4808 112.542 64.7055C112.542 64.9303 112.521 65.0989 112.419 65.1551C112.316 65.2113 112.213 65.2674 112.09 65.2674C111.392 65.3236 110.694 65.3798 109.996 65.4922C109.955 65.4922 109.893 65.6046 109.893 65.6046C109.893 65.717 109.955 65.8293 110.037 65.8293C110.078 65.8293 110.119 65.8293 110.14 65.8293C110.509 65.8293 110.879 65.8855 111.248 65.8293C111.762 65.7732 112.275 65.8293 112.788 65.8855C112.87 65.8855 112.932 66.1103 112.911 66.2227C112.911 66.2789 112.87 66.3913 112.829 66.3913C112.644 66.4474 112.46 66.5036 112.275 66.5598C111.946 66.616 111.638 67.0655 111.289 67.0093C111.002 66.9532 110.694 67.0655 110.407 67.1779C110.345 67.1779 110.263 67.2903 110.201 67.3465C110.16 67.4027 110.14 67.4589 110.119 67.5151C110.058 67.6836 110.037 67.8522 110.078 68.0208C110.099 68.077 110.14 68.1332 110.181 68.1894C110.591 68.2455 110.981 68.3017 111.392 68.3017C111.762 68.3017 112.131 68.3579 112.501 68.3579C112.727 68.3579 112.952 68.4141 113.158 68.4141C113.343 68.4141 113.507 68.6951 113.692 68.6389C113.856 68.5827 113.917 68.8074 113.876 69.1446C113.815 69.5379 113.774 69.8751 113.815 70.3246C113.815 70.3808 113.794 70.5494 113.774 70.5494C113.548 70.9427 113.322 71.2236 113.055 71.2798C112.911 71.2798 112.768 71.336 112.624 71.4484C112.521 71.5046 112.419 71.6732 112.398 72.0103C112.357 72.516 112.295 72.9656 112.111 73.2465C112.029 73.3589 112.008 73.5836 112.07 73.7522C112.234 74.3141 112.378 74.876 112.419 75.6065C112.439 75.9437 112.521 76.1122 112.644 76.1684C112.829 76.2246 113.014 76.2808 113.199 76.337C113.281 76.337 113.343 76.4494 113.343 76.5618C113.343 76.6179 113.301 76.7303 113.281 76.7865C113.178 76.8989 113.076 77.0675 113.014 77.2922C112.911 77.6294 112.891 77.9665 113.055 78.3037C113.137 78.4722 113.24 78.6408 113.322 78.8094C113.343 78.8656 113.343 78.978 113.322 79.0341C113.158 79.2589 112.952 79.2027 112.788 79.3713C112.644 79.4837 112.521 79.7084 112.378 79.7646C112.131 79.877 111.864 79.877 111.597 79.877C111.515 79.877 111.454 79.9894 111.433 80.1018C111.433 80.158 111.474 80.2703 111.495 80.3265C111.905 80.9446 111.905 80.9446 112.316 81.057C112.46 81.1132 112.603 81.1132 112.747 81.1694C112.891 81.2256 112.994 81.5627 112.994 82.0122C112.994 82.237 112.891 82.6865 112.809 82.7427C112.727 82.7989 112.665 82.8551 112.603 82.8551C112.234 82.8551 111.885 83.2484 111.536 83.5294C111.454 83.5856 111.392 83.698 111.413 83.8665C111.413 83.9227 111.474 84.0351 111.495 84.0351C111.638 84.1475 111.782 84.2037 111.926 84.2599C111.946 84.2599 111.967 84.3723 111.987 84.4284C111.782 84.7094 111.556 84.597 111.33 84.6532C111.228 84.7094 111.105 84.7656 111.002 84.8218C110.92 84.878 110.879 85.0465 110.858 85.2151C110.838 85.4399 110.879 85.6084 110.961 85.6646C111.023 85.7208 111.105 85.8332 111.166 85.8894C111.474 86.2265 111.803 86.3951 112.131 86.3951C112.501 86.3951 112.87 86.3389 113.24 86.5637C113.281 86.5637 113.301 86.6761 113.322 86.7323C113.301 86.7885 113.281 86.8447 113.26 86.9008C113.24 86.957 113.199 87.0132 113.158 87.0132C112.706 87.0132 112.295 87.4066 111.885 87.8561C111.864 87.9123 111.823 87.9685 111.823 88.0247C111.823 88.2494 111.864 88.418 111.926 88.5304C112.07 88.7551 112.213 88.7551 112.357 88.6427C112.439 88.5866 112.501 88.6427 112.542 88.8113C112.603 89.0923 112.603 89.4856 112.542 89.6542C112.48 89.7666 112.439 89.9351 112.378 89.9913C112.234 90.1037 112.09 90.1599 111.946 90.1599C111.577 90.1599 111.228 90.5532 110.879 90.778C110.797 90.8342 110.756 91.0028 110.776 91.1151C110.797 91.1713 110.838 91.2275 110.879 91.2837C111.105 91.3399 111.33 91.3961 111.536 91.3961C111.68 91.3961 111.823 91.5085 111.967 91.677C112.111 91.8456 112.254 91.9018 112.398 91.9018C112.624 91.958 112.829 91.958 113.055 92.0704C113.158 92.1266 113.178 92.2389 113.158 92.4637C113.137 92.5761 113.137 92.6885 113.096 92.6885C113.035 92.8008 112.973 92.9132 112.911 92.9694C112.85 93.0256 112.768 93.0818 112.686 93.0818C112.357 93.138 112.029 93.1942 111.7 93.2504C111.474 93.3066 111.248 93.2504 111.043 93.3628C110.797 93.5313 110.55 93.7561 110.304 93.9809C110.222 94.037 110.16 94.1494 110.119 94.318C109.975 94.9361 109.688 95.0485 109.483 95.498C109.421 95.6104 109.38 95.779 109.401 96.0037C109.401 96.0599 109.442 96.1161 109.483 96.1723C109.544 96.2285 109.626 96.2847 109.688 96.2847C109.832 96.3409 109.975 96.3409 110.119 96.3409C110.16 96.3409 110.201 96.397 110.201 96.5094C110.222 96.6218 110.181 96.7904 110.078 96.7904C109.811 96.8466 109.565 96.8466 109.298 96.9028C109.072 96.959 108.867 97.0713 108.661 97.3523C108.6 97.4647 108.518 97.5209 108.456 97.6332C108.148 98.0828 107.82 98.1952 107.491 97.858C107.409 97.8018 107.347 97.7456 107.286 97.858C107.122 98.0266 106.937 98.139 106.752 98.1952C106.547 98.2513 106.465 98.3637 106.526 98.5323C106.588 98.6447 106.649 98.7571 106.731 98.7571C106.814 98.7571 106.875 98.8694 106.916 99.038C106.916 99.0942 106.875 99.2066 106.855 99.2066C106.526 99.3752 106.239 99.8809 105.931 100.106C105.91 100.106 105.89 100.218 105.869 100.274C105.91 100.33 105.931 100.387 105.972 100.443C106.198 100.555 106.424 100.555 106.629 100.387C107.306 99.9371 107.306 99.8809 107.696 99.8809C107.881 99.8809 108.066 99.7685 108.23 99.5437C108.333 99.4314 108.436 99.3752 108.559 99.3752C108.6 99.3752 108.641 99.3752 108.661 99.4313C108.723 99.5437 108.702 99.6561 108.62 99.8247C108.477 100.162 108.477 100.218 108.6 100.443C108.661 100.555 108.744 100.668 108.744 100.836C108.744 101.005 108.682 101.173 108.62 101.286C108.559 101.398 108.497 101.51 108.436 101.567C108.292 101.623 108.148 101.679 108.004 101.735C107.82 101.791 107.635 101.848 107.471 102.072C107.409 102.129 107.327 102.241 107.265 102.241C106.957 102.297 106.69 102.522 106.424 102.859C106.321 102.971 106.198 102.971 106.095 102.971C106.013 102.971 105.951 103.028 105.89 103.196C105.808 103.421 105.746 103.702 105.664 103.814C105.582 103.927 105.438 103.758 105.335 103.927C105.11 104.208 104.863 104.545 104.637 104.826C104.617 104.882 104.576 104.994 104.576 105.05C104.576 105.219 104.637 105.331 104.719 105.331C104.863 105.331 105.027 105.331 105.151 105.219C105.438 104.938 105.725 104.769 106.013 104.826C106.382 104.938 106.752 104.601 107.101 104.882C107.122 104.882 107.142 104.994 107.163 105.05C107.142 105.107 107.122 105.219 107.081 105.275C106.978 105.331 106.855 105.388 106.752 105.444C106.608 105.5 106.465 105.612 106.341 105.893C106.28 106.006 106.239 106.174 106.177 106.287C106.074 106.455 105.992 106.568 105.869 106.568C105.684 106.624 105.5 106.624 105.315 106.68C105.192 106.736 105.13 106.905 105.089 107.242C105.007 107.242 104.945 107.242 104.863 107.242C104.822 107.242 104.802 107.298 104.76 107.354C104.74 107.41 104.74 107.523 104.74 107.523C104.781 107.691 104.863 107.691 104.925 107.635C104.986 107.523 105.027 107.41 105.048 107.186C105.151 107.242 105.274 107.242 105.356 107.41C105.376 107.467 105.418 107.579 105.418 107.635C105.438 107.86 105.397 108.029 105.335 108.141C105.294 108.197 105.274 108.253 105.233 108.309C105.027 108.478 104.802 108.422 104.596 108.703C104.391 108.928 104.186 109.096 103.96 109.265C103.878 109.321 103.816 109.377 103.754 109.321C103.508 109.152 103.323 109.489 103.139 109.77C103.015 109.939 102.913 110.332 102.81 110.557C102.728 110.726 102.605 110.838 102.523 111.007C102.482 111.119 102.523 111.344 102.502 111.569C102.461 112.018 102.297 112.018 102.174 112.187C102.112 112.299 102.03 112.299 101.968 112.074C101.886 111.849 101.845 111.569 101.701 111.737C101.599 111.849 101.496 111.962 101.393 112.074C101.168 112.411 100.921 112.58 100.654 112.692C100.49 113.029 100.285 112.692 100.12 112.861C99.9562 113.086 99.7714 113.086 99.5866 113.086C99.4019 113.086 99.2171 113.086 99.0323 113.086C98.7654 113.029 98.519 113.198 98.2726 113.479C98.0879 113.704 97.9236 113.704 97.7388 113.479C97.5746 113.254 97.3693 113.254 97.205 113.086C97.0408 112.917 96.8765 112.636 96.6917 112.524C96.5275 112.411 96.4454 112.13 96.3632 111.737C96.3016 111.456 96.2401 111.231 96.1374 111.063C96.1169 111.007 96.0758 110.95 96.0347 110.95C95.8089 111.007 95.6241 111.288 95.3983 111.288C95.193 111.344 95.0903 111.681 95.0492 112.243C95.0082 112.749 94.9466 112.805 94.8439 112.524C94.7823 112.355 94.7618 112.187 94.6797 112.243C94.6591 112.243 94.6386 112.411 94.6181 112.468C94.577 112.805 94.4949 113.029 94.3717 113.029C94.0843 113.086 93.7968 113.198 93.5094 113.535C93.4683 113.591 93.4273 113.591 93.4067 113.535C93.263 113.423 93.1398 113.142 92.9756 113.198C92.8319 113.254 92.7292 113.591 92.606 113.816C92.5239 113.985 92.3802 113.929 92.298 113.704C92.1749 113.367 92.0311 113.029 91.9696 112.524C91.9696 112.468 91.9696 112.299 91.9901 112.243C92.0106 112.187 92.0517 112.018 92.0722 112.074C92.2775 112.243 92.5034 112.299 92.7292 112.299C92.8524 112.299 92.955 112.13 92.9961 111.849C93.0782 111.4 93.1809 111.007 93.3246 110.613C93.4889 110.22 93.6736 109.883 93.92 109.883C94.1459 109.883 94.3717 109.827 94.577 109.827C94.7618 109.827 94.9466 109.714 95.1108 109.546C95.3161 109.321 95.542 109.377 95.7678 109.489C95.9526 109.602 96.1169 109.827 96.3016 109.883C96.4454 109.939 96.5891 109.939 96.7328 109.714C96.9586 109.377 97.2255 109.265 97.4719 109.209C97.513 109.209 97.554 109.209 97.5746 109.209C97.9441 109.321 98.3137 109.096 98.6422 108.647C98.6833 108.59 98.7038 108.59 98.7449 108.59C98.8475 108.534 98.8886 108.366 98.8064 108.197C98.6217 107.86 98.4369 107.635 98.1905 107.916C98.0673 108.085 97.9031 108.085 97.7594 108.197C97.513 108.478 97.2666 108.647 96.9997 108.647C95.5215 108.59 94.0432 108.759 92.565 108.759C92.4623 108.759 92.3391 108.759 92.2365 108.815C92.0517 108.928 91.8874 109.152 91.7027 109.209C91.5589 109.209 91.4152 109.209 91.251 109.265C91.1688 109.265 91.1072 109.433 91.1278 109.602C91.1483 109.827 91.2304 109.883 91.3126 109.827C91.4152 109.827 91.5384 109.827 91.6411 109.883C91.7848 109.939 91.8669 110.445 91.7848 110.838C91.7437 111.007 91.7232 111.231 91.6821 111.344C91.5179 111.737 91.5179 112.13 91.6 112.692C91.6616 113.086 91.5384 113.479 91.3741 113.535C91.2304 113.591 91.0867 113.591 90.9225 113.591C90.7787 113.591 90.635 113.704 90.4913 113.872C90.3065 114.041 90.1217 114.097 89.9575 113.872C89.7317 113.591 89.5263 113.704 89.321 113.929C89.2184 114.041 89.0952 113.929 89.0131 113.76C88.9515 113.648 88.8899 113.535 88.8488 113.367C88.7051 113.029 88.5408 112.861 88.3561 113.198C88.2329 113.423 88.0891 113.423 87.9454 113.254C87.6785 112.861 87.3706 112.861 87.0831 113.142C87.0215 113.198 86.9394 113.31 86.8778 113.367C86.5904 113.591 86.3029 113.648 86.0155 113.31C85.8102 113.086 85.6049 112.917 85.379 112.917C85.1532 112.917 84.9274 112.917 84.722 112.917C84.5989 112.917 84.4962 113.029 84.4141 113.142C84.2704 113.367 84.1472 113.423 84.0034 113.254C83.9008 113.142 83.7981 113.142 83.6749 113.198C83.5928 113.254 83.5312 113.198 83.4696 113.086C83.3054 112.861 83.1206 112.805 82.9358 113.029C82.8332 113.142 82.7305 113.254 82.6073 113.142C82.4841 113.086 82.3815 113.198 82.2788 113.31C82.1762 113.423 82.0735 113.423 81.9503 113.367C81.745 113.198 81.5397 112.861 81.3139 112.861C81.1291 112.861 80.9443 112.692 80.78 112.524C80.7185 112.468 80.6363 112.58 80.5747 112.692C80.4105 113.086 80.2052 113.367 79.9999 113.591C79.8972 113.704 79.7945 113.76 79.6919 113.591C79.5482 113.423 79.4045 113.423 79.2813 113.648C78.9733 114.209 78.6448 114.153 78.3163 113.816C78.0905 113.591 77.8235 113.423 77.6798 112.692C77.6593 112.636 77.6182 112.524 77.5977 112.524C77.5566 112.524 77.5156 112.524 77.495 112.58C77.2897 113.029 77.105 113.535 76.8175 113.423C76.8381 113.254 76.8791 113.086 76.8996 112.917C76.9612 112.524 76.9407 112.355 76.8175 112.355C76.7559 112.355 76.6738 112.355 76.6122 112.411C76.5301 112.468 76.489 112.58 76.4685 112.749C76.448 112.973 76.489 113.142 76.5506 113.254C76.6533 113.423 76.7559 113.423 76.8586 113.423C76.797 113.704 76.7149 113.872 76.6122 113.929C76.4274 113.985 76.2426 114.041 76.0579 114.097C75.9347 114.097 75.8526 114.209 75.7499 114.378C75.4419 114.828 75.1134 114.771 74.7849 114.49C74.6823 114.434 74.5796 114.266 74.477 114.209C74.3948 114.153 74.3332 114.153 74.2511 114.266C74.0458 114.49 73.82 114.209 73.6147 114.49C73.4093 114.771 73.1835 114.659 72.9576 114.659C72.5881 114.603 72.2185 114.828 71.849 114.659C71.5205 114.547 71.192 114.659 70.8429 114.659C70.7403 114.659 70.6171 114.715 70.5144 114.828C70.3707 114.996 70.227 114.94 70.0833 114.828C70.0217 114.771 69.9396 114.771 69.878 114.828C69.7343 114.996 69.5905 114.996 69.4468 114.94C69.3852 114.884 69.3031 114.996 69.2415 115.052C69.0978 115.221 68.9541 115.165 68.8309 114.884C68.7693 114.771 68.7282 114.603 68.6666 114.49C68.564 114.266 68.5024 114.266 68.3792 114.49C68.2355 114.828 68.0918 115.109 67.8864 114.828C67.7838 114.715 67.6606 114.771 67.5579 114.884C67.4758 114.996 67.4142 114.996 67.3526 114.94C67.1679 114.771 66.9831 114.828 66.8188 115.052C66.7572 115.165 66.6751 115.165 66.6135 115.109C66.5724 115.052 66.5314 115.052 66.5108 114.996C66.2029 114.49 65.8744 114.49 65.5459 114.94C65.4022 115.109 65.2585 115.052 65.1147 114.94C64.971 114.828 64.8273 114.715 64.6836 114.603C64.6014 114.547 64.5604 114.378 64.6015 114.266C64.622 114.209 64.663 114.153 64.7041 114.153C65.0326 114.153 65.3611 114.097 65.7101 114.097C66.0181 114.097 66.3055 114.097 66.5724 113.648C66.9009 113.479 67.2294 113.31 67.5579 113.648C67.6401 113.704 67.7017 113.76 67.7633 113.704C67.8659 113.648 67.9891 113.535 68.0918 113.535C68.4203 113.479 68.7488 113.479 69.0978 113.479C69.3647 113.479 69.6111 113.535 69.8574 113.76C69.9601 113.872 70.0628 113.929 70.1859 113.929C70.4528 113.985 70.6992 113.985 70.9661 114.041C71.233 114.097 71.4794 113.929 71.7053 113.591C71.8079 113.479 71.9106 113.423 72.0337 113.367C72.547 113.367 73.0603 113.31 73.5736 113.367C74.3538 113.479 75.1134 113.31 75.8936 113.367C75.9552 113.367 76.0373 113.254 76.0989 113.142C76.1195 113.142 76.0989 112.973 76.0784 112.861C76.0579 112.692 76.0168 112.524 75.9963 112.299C75.9552 111.962 75.8526 111.793 75.7499 111.737C75.5651 111.681 75.3803 111.681 75.1956 111.681C75.134 111.681 75.0518 111.737 74.9902 111.793C74.7233 112.243 74.4564 112.355 74.1485 112.299C73.7378 112.243 73.3272 112.243 72.9371 112.187C72.8345 112.187 72.7113 112.187 72.6086 112.074C72.2596 111.625 71.8695 111.793 71.541 111.344C71.4794 111.288 71.3973 111.288 71.3357 111.4C71.2741 111.456 71.192 111.569 71.1304 111.569C70.6582 111.681 70.1654 111.625 69.6932 111.344C69.5495 111.288 69.4058 111.119 69.262 111.119C68.7898 111.063 68.2971 111.063 67.8249 111.007C67.5579 111.007 67.3116 111.119 67.0652 111.4C66.9215 111.569 66.7778 111.456 66.6546 111.175C66.593 111.063 66.5519 110.894 66.4903 110.782C66.4287 110.669 66.3466 110.669 66.285 110.726C66.1413 110.894 66.0181 111.007 65.8539 111.007C65.7101 111.007 65.5664 111.007 65.4022 111.063C65.2584 111.063 65.1147 111.007 64.971 110.782C64.7862 110.501 64.622 110.501 64.4372 110.726C64.3756 110.782 64.2935 110.782 64.2319 110.669C64.0882 110.501 63.9445 110.501 63.8007 110.726C63.657 110.894 63.5338 110.894 63.3696 110.782C63.1027 110.501 63.1027 110.557 63.0411 111.288C63.0205 111.456 62.9795 111.625 62.8974 111.625C62.6099 111.625 62.302 111.625 62.0145 111.344C61.9119 111.231 61.7887 111.175 61.686 111.288C61.4807 111.512 61.2549 111.569 61.029 111.569C60.2899 111.625 59.5508 111.681 58.8116 111.569C58.5242 111.512 58.2162 111.512 57.9288 111.793C57.6414 112.074 57.3539 112.13 57.0665 112.13C56.738 112.187 56.4095 112.13 56.0605 112.187C55.9167 112.187 55.773 112.243 55.6293 112.411C55.4651 112.636 55.3624 112.468 55.2392 112.13C55.2187 112.074 55.1776 111.962 55.1571 111.906C55.0339 111.625 54.8902 111.569 54.7465 111.625C54.7054 111.625 54.6643 111.625 54.6438 111.681C54.3358 112.074 54.0073 112.13 53.6583 112.13C53.0218 112.187 52.4059 112.187 51.7694 112.187C51.6873 112.187 51.6257 112.243 51.5641 112.299C51.5436 112.299 51.5231 112.468 51.5231 112.468C51.6873 112.805 52.2622 113.31 52.447 113.31C52.5907 113.31 52.7344 113.31 52.8987 113.254C53.1245 113.198 53.3298 113.31 53.5351 113.591C53.8226 113.929 54.11 114.041 54.3974 113.76C54.5001 113.648 54.6027 113.648 54.7054 113.816C54.8081 113.929 54.9312 113.929 55.0134 113.76C55.2392 113.367 55.4856 113.31 55.7525 113.31C55.9783 113.367 56.2042 113.367 56.4095 113.591C56.738 113.985 57.046 113.929 57.3745 113.535C57.6414 113.198 57.8672 113.31 58.0931 113.872C58.1136 113.929 58.1546 114.041 58.1752 114.097C58.2573 114.266 58.3394 114.434 58.4626 114.266C58.6474 113.929 58.8938 113.985 59.0991 113.76C59.1401 113.704 59.1607 113.704 59.2017 113.704C59.2428 113.704 59.2839 113.704 59.3044 113.76C59.5713 113.985 59.8177 113.929 60.0641 113.648C60.2078 113.479 60.3515 113.591 60.4336 114.041C60.4952 114.322 60.5979 114.378 60.7211 114.322C60.8032 114.266 60.8648 114.378 60.9264 114.49C60.9469 114.547 60.988 114.659 60.988 114.715C61.029 114.996 60.988 115.109 60.8853 115.165C60.5979 115.221 60.2899 115.389 60.0025 115.333C59.5302 115.277 59.0375 115.446 58.5653 115.221C58.4216 115.165 58.2778 115.221 58.1341 115.277C57.9493 115.333 57.7646 115.277 57.6003 115.109C57.4977 114.996 57.395 114.996 57.2718 115.109C57.1281 115.277 56.9844 115.333 56.8407 115.333C56.2863 115.389 55.732 115.333 55.1776 115.165C55.075 115.109 54.9518 115.052 54.8491 114.94C54.767 114.884 54.7054 114.94 54.6438 114.996C54.4385 115.221 54.2127 115.221 53.9868 115.221C53.6994 115.221 53.3914 115.221 53.104 115.165C52.9603 115.165 52.8165 115.109 52.6728 114.94C52.5086 114.771 52.3238 114.715 52.139 114.659C51.9953 114.603 51.831 114.603 51.7079 114.828C51.4615 115.165 51.2151 115.277 50.9482 115.221C50.7224 115.221 50.4965 115.221 50.2912 115.221C50.1475 115.221 50.0038 115.165 49.86 114.996C49.7163 114.828 49.5726 114.715 49.4289 114.715C48.9567 114.659 48.4639 114.547 47.9917 114.715C47.7453 114.771 47.4784 114.771 47.2115 114.771C47.0267 114.771 46.842 114.659 46.6572 114.547C46.4724 114.434 46.3492 113.985 46.2055 113.704C46.1028 113.535 45.9796 113.535 45.8975 113.704C45.877 113.76 45.8359 113.816 45.8154 113.929C45.6922 114.547 45.4869 114.659 45.2405 114.659C45.0147 114.659 44.8094 114.603 44.5835 114.378C44.3782 114.097 44.1524 114.041 43.9265 114.153C43.7417 114.209 43.557 114.322 43.3722 114.378C43.2695 114.434 43.1463 114.434 43.0437 114.378C42.5715 114.153 42.0992 114.153 41.6065 114.097C41.2369 114.097 40.8674 114.097 40.4978 114.097C40.1283 114.097 39.7587 114.097 39.4097 113.704C39.307 113.591 39.1838 113.704 39.0812 113.816C38.9374 113.985 38.7937 113.929 38.65 113.76C38.5063 113.591 38.3626 113.479 38.2188 113.479C37.6645 113.479 37.1102 113.31 36.5558 113.479C36.2273 113.591 35.8988 113.479 35.5703 113.367C35.5087 113.367 35.4266 113.254 35.365 113.142C35.2624 112.973 35.1802 112.749 35.1597 112.468C35.1186 111.962 35.1186 111.456 35.0776 111.007C35.057 110.838 34.9954 110.669 34.9339 110.557C34.7901 110.389 34.6464 110.389 34.5027 110.332C34.4 110.276 34.2974 110.164 34.1947 109.995C34.1126 109.827 34.0099 109.602 33.9278 109.489C33.8252 109.321 33.702 109.321 33.6199 109.546C33.4967 109.77 33.394 110.051 33.2914 110.332C33.2298 110.501 33.2503 110.726 33.2914 110.838C33.3119 110.894 33.353 111.007 33.394 111.007C33.5788 111.007 33.7636 111.007 33.9484 111.063C34.0921 111.063 34.2358 111.288 34.3384 111.569C34.4206 111.793 34.5027 112.018 34.5643 112.243C34.5848 112.299 34.5848 112.411 34.5848 112.524C34.5848 112.58 34.5438 112.692 34.5232 112.692C33.8252 112.973 33.086 112.973 32.5317 112.805C32.4701 112.805 32.388 112.692 32.3264 112.636C32.2853 112.58 32.2648 112.58 32.2237 112.524C32.08 112.299 31.9363 112.355 31.8131 112.58C31.6489 112.861 31.4641 112.861 31.2793 112.805C31.2382 112.805 31.1972 112.749 31.1766 112.749C30.9919 112.692 30.8276 112.355 30.6428 112.355C30.2733 112.355 29.9037 112.187 29.5341 112.243C28.6102 112.355 27.6863 112.299 26.7624 112.187C26.475 112.187 26.167 112.074 25.9001 111.793C25.7564 111.625 25.6127 111.625 25.469 111.625C25.3458 111.625 25.2431 111.512 25.161 111.344C25.0173 111.119 24.8941 111.063 24.7298 111.063C24.6888 111.063 24.6477 111.063 24.6272 111.063C24.1755 111.119 23.7443 111.007 23.3132 110.669C23.0258 110.445 22.7383 110.389 22.4509 110.108C22.3072 109.939 22.1634 110.051 22.0197 110.22C21.8349 110.445 21.6502 110.445 21.4859 110.22C21.1985 109.827 20.911 109.77 20.6236 110.051C20.4799 110.164 20.3362 110.164 20.1924 109.995C20.0487 109.827 19.905 109.77 19.7613 109.77C19.6586 109.77 19.5354 109.827 19.4328 109.827C19.248 109.827 19.0632 109.658 18.9195 109.377C18.8579 109.265 18.7963 109.152 18.7347 109.04C18.6731 108.928 18.591 108.871 18.5294 108.984C18.3857 109.152 18.2625 109.321 18.0983 109.321C17.6876 109.321 17.277 109.321 16.8869 109.321C16.6611 109.321 16.4558 109.152 16.2505 108.928C15.9425 108.59 15.614 108.534 15.265 108.759C15.1623 108.815 15.0596 108.928 14.9365 108.984C14.8543 109.04 14.7927 109.04 14.7106 108.984C14.5258 108.871 14.3411 108.815 14.1563 108.815C13.5609 108.815 12.9655 108.815 12.3906 108.815C12.0826 108.815 11.7952 108.871 11.5077 109.096C11.323 109.265 11.1382 109.321 10.9534 109.152C10.4196 108.703 9.86525 108.703 9.3109 108.703C9.12612 108.703 8.96187 108.422 8.83869 108.029C8.77709 107.804 8.73603 107.41 8.79762 107.186C8.85922 106.961 8.92081 106.68 8.9824 106.455C9.08506 106.062 9.08506 105.837 8.96187 105.781C8.63337 105.612 8.32541 105.275 8.01744 104.938C7.91478 104.826 7.87372 104.489 7.85319 104.208C7.83266 103.983 7.93531 103.533 8.01744 103.477C8.12009 103.365 8.22275 103.252 8.32541 103.14C8.42806 103.028 8.46912 102.634 8.40753 102.409C8.36647 102.241 8.30487 102.129 8.24328 102.016C8.07903 101.623 8.07903 101.117 8.12009 100.611C8.12009 100.499 8.14062 100.443 8.16116 100.33C8.22275 99.9371 8.24328 99.5437 8.24328 99.1504C8.24328 98.8132 8.20222 98.5323 8.12009 98.3075C7.91478 97.7456 7.68894 97.1837 7.48363 96.6218C7.4015 96.397 7.33991 96.0599 7.4015 95.779C7.56575 94.9923 7.58628 94.037 7.77106 93.2504C7.83266 92.9694 7.79159 92.6323 7.70947 92.4075C7.56575 91.958 7.4015 91.5647 7.25778 91.0589C7.17566 90.7218 7.21672 90.2161 7.31938 89.9913C7.54522 89.598 7.79159 89.4856 8.03797 89.2608C8.07903 89.2608 8.12009 89.1485 8.12009 89.0923C8.12009 89.0361 8.09956 88.9237 8.07903 88.8675C7.91478 88.5866 7.81213 88.1932 7.75053 87.6875C7.68894 87.238 7.68894 87.2942 7.79159 86.9008C7.91478 86.4513 7.91478 86.3951 7.87372 86.1142C7.77106 85.5523 7.64788 85.1027 7.50416 84.597C7.38097 84.2037 7.4015 84.0351 7.52469 83.5294C7.58628 83.3046 7.68894 83.0799 7.64788 82.7427C7.60681 82.2932 7.66841 82.0123 7.77106 81.6751C7.93531 81.2256 7.91478 81.1694 7.73 80.7761C7.64788 80.6075 7.54522 80.4389 7.46309 80.2141C7.29884 79.7084 7.25778 79.1465 7.36044 78.5284C7.4015 78.2475 7.46309 78.0227 7.42203 77.6856C7.36044 77.3484 7.44256 77.1237 7.50416 76.8989C7.60681 76.5618 7.75053 76.4494 7.87372 76.2246C7.95584 76.056 8.01744 75.7189 7.97638 75.4379C7.95584 75.2694 7.93531 75.0446 7.91478 74.876C7.87372 74.5951 7.87372 74.3141 7.93531 74.0332C8.03797 73.5836 8.01744 73.0779 7.97638 72.5722C7.95584 72.2913 7.91478 72.0103 7.81213 71.7856C7.75053 71.6732 7.68894 71.5046 7.68894 71.336C7.70947 71.1675 7.79159 71.0551 7.85319 70.9427C8.01744 70.4932 7.97638 70.0436 7.75053 69.8751C7.70947 69.8189 7.68894 69.8189 7.64788 69.8189C7.42203 69.7065 7.23725 69.4255 7.05247 69.0884C7.09353 68.976 7.05247 68.8074 7.03194 68.6951C7.05247 68.6389 7.09353 68.6951 7.1346 68.6389C7.36044 68.6389 7.56575 68.6951 7.77106 69.0884C7.79159 69.1446 7.83266 69.1446 7.87372 69.1446C7.95584 69.1446 8.01744 69.0884 8.01744 68.8636C8.01744 68.8074 7.99691 68.6389 7.97638 68.5827C7.85319 68.1893 7.66841 68.077 7.50416 67.796C7.4015 67.6274 7.31938 67.6836 7.21672 67.9084C7.11406 68.1894 7.03194 68.3579 7.03194 68.6951ZM31.423 105.725C31.382 105.725 31.3409 105.725 31.3204 105.725C31.1561 105.725 31.0329 105.893 30.9919 106.343C30.9713 106.511 30.9303 106.736 30.9097 106.905C30.8687 107.186 30.9303 107.41 31.0535 107.41C31.2998 107.41 31.382 107.242 31.4025 106.568C31.4025 106.287 31.4025 105.949 31.4025 105.669C31.4435 105.669 31.4641 105.612 31.5051 105.556C31.5257 105.556 31.5257 105.444 31.5257 105.388C31.4641 105.388 31.423 105.5 31.423 105.725ZM88.3971 111.737C88.4587 112.13 88.5408 112.355 88.7051 112.355C88.8077 112.355 88.9104 112.299 89.0131 112.243C89.0952 112.187 89.1362 112.018 89.0952 111.906C89.0747 111.849 89.0336 111.793 89.0131 111.737C88.8077 111.625 88.6024 111.625 88.3766 111.737C88.315 111.119 88.1713 110.726 87.966 110.501C87.8633 110.389 87.7607 110.276 87.658 110.22C87.6375 110.22 87.5964 110.332 87.5759 110.445C87.5553 110.501 87.5553 110.613 87.5759 110.726C87.6785 111.288 87.8428 111.681 88.0686 111.737C88.1918 111.737 88.2945 111.737 88.3971 111.737ZM19.4328 8.00917C19.3096 7.84059 19.1864 7.61583 19.0427 7.50345C18.8784 7.39107 18.6937 7.33488 18.5089 7.27869C18.4884 7.27869 18.4473 7.16631 18.4268 7.11012C18.3241 6.15488 18.3241 6.15487 18.0777 5.87392C17.893 5.64916 17.7287 6.04249 17.7287 6.6044C17.7287 6.82916 17.7492 7.05393 17.7082 7.11012C17.6466 7.2225 17.5645 7.2225 17.5029 7.27869C17.4618 7.27869 17.4207 7.33488 17.4002 7.39107C17.3797 7.44726 17.3386 7.50345 17.3386 7.61583C17.3181 7.7844 17.3591 7.89679 17.4618 7.95298C17.6055 8.00917 17.7492 8.00917 17.893 8.00917C18.1599 7.95298 18.4062 8.06536 18.6321 8.34631C18.7963 8.57107 18.9811 8.51488 19.1659 8.45869C19.2685 8.4025 19.3712 8.23393 19.3917 7.95298C19.4533 7.95298 19.5354 7.95298 19.597 7.95298C19.6381 7.95298 19.6586 7.89678 19.6792 7.84059C19.6997 7.7844 19.6997 7.67202 19.6997 7.67202C19.6586 7.50345 19.597 7.50345 19.5149 7.61583C19.4944 7.67202 19.4533 7.84059 19.4328 8.00917ZM24.9762 106.905C24.9967 107.129 25.0378 107.298 25.1199 107.298C25.3047 107.41 25.469 107.467 25.6332 107.748C25.6948 107.86 25.7769 107.86 25.8385 107.804C26.0438 107.523 26.2492 107.41 26.475 107.41C26.6598 107.41 26.8446 107.467 27.0088 107.298C27.0909 107.242 27.132 107.073 27.1115 106.849C27.1115 106.792 27.0704 106.68 27.0499 106.624C26.9883 106.511 26.9267 106.455 26.8446 106.455C26.7008 106.455 26.5571 106.624 26.4339 106.736C26.3313 106.849 26.2286 106.792 26.126 106.624C25.9207 106.287 25.7153 106.287 25.51 106.568C25.3458 106.792 25.1815 106.961 24.9967 106.961C24.9762 106.849 24.9762 106.736 24.9557 106.68C24.8736 106.511 24.7709 106.343 24.6888 106.174C24.5656 105.949 24.4219 105.893 24.2782 106.062C24.2166 106.174 24.1344 106.23 24.0728 106.23C23.6622 106.23 23.2721 106.287 22.8615 106.23C22.7999 106.23 22.7178 106.174 22.6562 106.062C22.533 105.837 22.4098 105.612 22.3072 105.388C22.2456 105.275 22.1224 105.444 22.0403 105.725C21.9992 105.893 21.9992 106.118 22.0608 106.287C22.1224 106.399 22.184 106.511 22.2456 106.624C22.2866 106.68 22.3072 106.68 22.3482 106.68C22.4303 106.68 22.4919 106.736 22.5741 106.736C22.7999 106.792 23.0052 106.849 23.2311 106.849C23.498 106.849 23.7238 107.186 23.9702 107.354C24.196 107.467 24.4013 107.523 24.6067 107.186C24.6888 107.017 24.8325 106.961 24.9762 106.905ZM19.6586 105.05C19.7408 105.612 19.8434 106.118 19.9871 106.568C20.0077 106.624 20.0487 106.68 20.0693 106.68C20.1924 106.736 20.3362 106.455 20.3978 106.062C20.4183 105.893 20.3362 105.444 20.254 105.331C20.1924 105.275 20.1103 105.163 20.0487 105.163C19.905 105.107 19.7613 105.107 19.6176 105.107C19.597 104.882 19.556 104.713 19.4944 104.601C19.4328 104.489 19.3507 104.432 19.2891 104.32C19.0632 103.87 18.8169 103.814 18.5499 104.039C18.4473 104.151 18.3446 104.151 18.2214 104.039C17.8314 103.702 17.4207 103.758 17.0101 103.87C16.9075 103.87 16.7843 103.983 16.7021 104.151C16.579 104.376 16.4352 104.432 16.271 104.432C16.2299 104.151 16.1478 103.927 16.0451 103.87C15.9014 103.758 15.7577 103.758 15.614 103.927C15.5935 103.983 15.5729 104.039 15.5524 104.095C15.5729 104.151 15.614 104.264 15.6345 104.264C15.8604 104.376 16.0657 104.376 16.2915 104.376C16.312 104.601 16.3736 104.713 16.4352 104.769C16.5379 104.882 16.6405 104.938 16.7432 105.05C16.8869 105.219 16.9485 105.612 17.0512 105.893C17.1333 106.118 17.236 106.174 17.3386 106.006C17.4002 105.893 17.4618 105.781 17.5234 105.669C17.6466 105.388 17.7698 105.331 17.9135 105.444C18.0983 105.612 18.2625 105.612 18.4473 105.388C18.6526 105.107 18.8579 104.994 19.0838 104.994C19.3096 105.05 19.4739 105.05 19.6586 105.05ZM30.5402 8.00917C30.4375 7.89678 30.3759 7.67202 30.3143 7.39107C30.2117 6.94154 30.1296 6.77297 29.9653 6.82916C29.7395 6.88535 29.5341 6.88535 29.3083 6.99773C29.103 7.16631 28.8977 7.33488 28.6718 7.11012C28.6102 7.05393 28.5281 7.11012 28.4665 7.2225C28.2817 7.44726 28.1175 7.44726 27.9327 7.2225C27.8711 7.16631 27.789 7.05393 27.7274 7.11012C27.5221 7.27869 27.2962 7.27869 27.1115 7.55964C27.0909 7.61583 27.0499 7.67202 27.0499 7.7844C27.0293 7.89679 27.0293 8.00917 27.0499 8.06536C27.2141 8.90822 27.3168 9.13298 27.6453 8.90822C27.7274 8.85203 27.789 8.79584 27.8506 8.90822C28.0354 9.07679 28.1996 9.0206 28.3639 8.73965C28.4665 8.57107 28.5692 8.57107 28.6718 8.62726C28.7334 8.62726 28.8156 8.73965 28.8771 8.79584C28.9182 8.85203 28.9387 8.85203 28.9798 8.90822C29.0825 9.0206 29.2056 9.13298 29.2878 9.0206C29.5957 8.68345 29.9242 8.62726 30.2527 8.57107C30.3554 8.51488 30.4375 8.34631 30.4786 8.00917C30.5196 8.00917 30.5402 7.95298 30.5812 7.89679C30.6018 7.84059 30.6018 7.7844 30.6018 7.72821C30.5812 7.67202 30.5402 7.7844 30.5402 8.00917ZM95.0492 104.432C95.0492 103.87 95.0287 103.309 95.1519 102.747C95.1724 102.69 95.1724 102.578 95.1724 102.466C95.1724 102.297 95.1314 102.129 95.0492 102.072C94.7618 101.96 94.4744 102.016 94.1869 102.129C94.1253 102.129 94.0637 102.297 94.0021 102.409C93.9816 102.466 93.9816 102.578 93.9611 102.69C93.9406 102.859 93.9406 103.084 93.92 103.252L93.9406 103.196C93.6942 103.252 93.4273 103.365 93.2014 102.971C93.1604 102.915 93.0782 103.084 93.0577 103.252C93.0372 103.646 93.0372 104.039 93.0372 104.432L93.0577 104.376C92.9551 104.432 92.8319 104.432 92.7497 104.657C92.6881 104.769 92.6676 104.994 92.6676 105.163C92.6881 105.331 92.7292 105.556 92.8113 105.556C93.0372 105.612 93.2425 105.612 93.4683 105.669C93.6531 105.669 93.8174 105.837 93.9406 106.287C94.0021 106.568 94.1048 106.68 94.2075 106.736C94.3512 106.792 94.4949 106.849 94.6386 106.849C94.9671 106.849 95.2956 106.792 95.6241 106.736C95.7062 106.736 95.7678 106.624 95.7678 106.455C95.7678 106.343 95.7473 106.23 95.7062 106.23C95.5625 106.062 95.5009 105.669 95.4393 105.331C95.3572 104.938 95.2135 104.657 95.0492 104.432ZM84.0856 104.826C83.8803 104.545 83.6749 104.32 83.4696 104.095C83.3259 103.927 83.1822 103.87 83.0385 103.983C82.8537 104.095 82.6894 104.208 82.5047 104.095C82.094 103.87 81.7039 103.927 81.3139 104.376C81.2112 104.489 81.088 104.489 80.9854 104.376C80.7185 103.983 80.431 103.927 80.123 103.927C79.8356 103.927 79.5276 103.927 79.2402 103.927C79.0144 103.927 78.8091 103.87 78.5832 103.589C78.5216 103.533 78.4395 103.589 78.3779 103.646C78.2136 103.814 78.0289 104.039 77.8646 104.264C77.7209 104.095 77.5772 103.983 77.454 103.814C77.2692 103.589 77.105 103.589 76.9202 103.758C76.5301 104.039 76.1195 103.983 75.7294 103.646C75.5035 103.421 75.2982 103.421 75.0724 103.646C74.9697 103.758 74.8671 103.758 74.7439 103.702C74.4975 103.589 74.4975 103.589 74.3127 103.702C74.2101 103.758 74.0869 103.814 73.9842 103.927C73.9431 103.927 73.9226 104.039 73.9021 104.095C73.8816 104.208 73.9432 104.32 74.0253 104.32C74.2922 104.432 74.5386 104.376 74.8055 104.376C75.134 104.376 75.4625 104.489 75.791 104.769C75.9347 104.882 76.0784 104.769 76.2221 104.657C76.3248 104.545 76.4274 104.432 76.5506 104.432C76.7765 104.432 77.0023 104.376 77.2076 104.601C77.4129 104.826 77.6388 104.882 77.8646 104.938C78.1931 104.938 78.5216 104.994 78.8706 104.994C79.0144 104.994 79.1581 105.107 79.3018 105.331C79.4866 105.612 79.6508 105.5 79.8356 105.331C79.9383 105.219 80.0409 105.107 80.1641 105.107C80.431 105.05 80.6774 105.05 80.9443 105.05C81.1701 105.05 81.3755 105.107 81.6013 105.388C81.7039 105.5 81.8271 105.556 81.9298 105.444C82.0735 105.331 82.2172 105.331 82.3609 105.5C82.4636 105.612 82.5868 105.612 82.6895 105.612C83.1617 105.612 83.6544 105.612 84.1266 105.556C84.2293 105.556 84.3525 105.444 84.4551 105.388C84.5373 105.331 84.5988 105.275 84.6604 105.388C84.9068 105.669 85.1532 105.669 85.3996 105.275C85.5022 105.107 85.6049 105.107 85.7075 105.05C85.7486 105.05 85.7691 104.994 85.8102 104.938C85.8923 104.826 85.9128 104.657 85.9128 104.489C85.9128 104.264 85.8718 104.095 85.7897 104.039C85.4201 103.814 85.0505 103.87 84.681 103.983C84.5783 104.039 84.4757 104.151 84.373 104.32C84.2703 104.545 84.1677 104.657 84.0856 104.826ZM72.4238 109.883C72.5676 109.827 72.6702 109.827 72.7729 109.77C72.9371 109.714 72.9987 109.489 72.9371 109.209C72.8345 108.759 72.7318 108.366 72.6497 107.916C72.5881 107.635 72.4854 107.523 72.3828 107.467C72.2391 107.41 72.0953 107.41 71.9516 107.41C71.7668 107.41 71.6026 107.129 71.4178 107.017C71.3152 106.961 71.192 106.905 71.0893 106.905C70.8635 106.849 70.6582 106.905 70.4529 107.186C70.3297 107.354 70.1859 107.467 70.0217 107.467C69.3236 107.467 68.6256 107.467 67.9275 107.41C67.7838 107.41 67.6401 107.354 67.4964 107.298C67.2705 106.905 66.9831 107.354 66.7572 106.961C66.6751 106.961 66.6135 106.961 66.5314 107.017C66.3877 107.186 66.2439 107.129 66.1002 106.961C66.0592 106.905 66.0386 106.905 65.9976 106.905C65.7923 106.792 65.6485 107.017 65.5048 107.354C65.4843 107.41 65.4638 107.523 65.4843 107.635C65.4843 107.691 65.5048 107.804 65.5459 107.804C65.7923 108.085 66.0592 108.029 66.3055 108.029C66.634 108.029 66.9625 108.029 67.291 108.366C67.3526 108.422 67.4348 108.366 67.4964 108.309C67.6401 108.141 67.7838 108.197 67.9275 108.366C67.9891 108.422 68.0712 108.422 68.1328 108.366C68.2765 108.253 68.4203 108.197 68.564 108.422C68.6256 108.534 68.7077 108.534 68.7693 108.59C68.9951 108.59 69.2004 108.59 69.4263 108.59C69.5289 108.59 69.6316 108.703 69.7343 108.815C69.8369 108.928 69.9396 108.984 70.0422 108.815C70.1654 108.647 70.3091 108.478 70.4323 108.309C70.576 108.141 70.6992 108.029 70.8635 108.029C71.0482 108.029 71.233 108.029 71.4178 108.029C71.5615 108.029 71.7053 108.141 71.7874 108.534C71.849 108.815 71.9106 109.04 71.9722 109.265C72.0748 109.602 72.2185 109.714 72.3622 109.77C72.3828 109.939 72.4238 109.883 72.4238 109.883ZM26.4545 104.545C26.5982 104.545 26.8856 104.545 27.1936 104.376C27.2346 104.376 27.2962 104.264 27.2962 104.264C27.2962 104.039 27.2346 103.983 27.1525 103.927C26.8856 103.702 26.8856 103.702 27.0704 103.14C27.132 102.971 27.1525 102.803 27.132 102.578C27.1115 102.409 27.0499 102.241 26.9883 102.185C26.7419 102.072 26.475 101.96 26.2286 102.241C25.9822 102.522 25.7359 102.634 25.469 102.634C25.2431 102.634 25.0173 102.634 24.812 102.859C24.6067 103.084 24.3808 103.14 24.1755 103.196C23.9907 103.196 23.8059 103.252 23.6212 103.309C23.5596 103.309 23.498 103.477 23.4364 103.589C23.2927 103.87 23.2721 104.264 23.3953 104.601C23.498 104.882 23.6006 105.163 23.7238 105.388C23.8265 105.556 23.9497 105.556 24.0318 105.388C24.1139 105.219 24.2166 105.05 24.2987 104.882C24.4013 104.713 24.504 104.713 24.6067 104.826C24.7914 105.05 24.9762 105.05 25.1405 104.882C25.4279 104.601 25.7153 104.489 26.0028 104.489C26.0849 104.489 26.2081 104.489 26.4545 104.545ZM45.7743 112.692C45.8154 112.749 45.8359 112.749 45.877 112.805C45.9796 112.917 46.0823 112.973 46.2055 112.973C46.2876 112.973 46.3492 112.861 46.3903 112.692C46.4519 112.468 46.4313 112.074 46.3287 111.906C46.2055 111.681 46.1234 111.4 46.1439 110.95C46.1439 110.894 46.1234 110.782 46.1028 110.726C46.0207 110.557 45.9181 110.389 45.8154 110.276C45.7127 110.108 45.6101 110.108 45.5074 110.22C45.4048 110.332 45.3021 110.501 45.22 110.613C45.0557 110.838 45.0557 110.838 45.22 111.288C45.2405 111.344 45.2611 111.512 45.2611 111.569C45.2611 111.625 45.1995 111.681 45.1584 111.681C44.9326 111.737 44.7272 111.793 44.5014 111.906C44.4603 111.906 44.4398 111.962 44.3987 112.018C44.4193 112.074 44.4398 112.187 44.4603 112.243C44.7067 112.692 44.9736 113.029 45.22 113.423C45.3637 113.591 45.4458 113.535 45.5896 113.086C45.6511 112.917 45.7127 112.749 45.7743 112.692ZM29.103 103.646C29.0619 103.758 29.0209 103.814 29.0209 103.87C29.0003 103.983 29.0003 104.095 29.0209 104.151C29.1646 104.601 29.3083 105.05 29.452 105.5C29.5752 105.893 29.6368 106.343 29.6779 106.849C29.6984 107.242 29.7395 107.242 29.8626 106.792C29.9242 106.568 30.0064 106.343 30.109 106.23C30.2527 106.062 30.2938 105.669 30.417 105.388C30.4786 105.275 30.5402 105.163 30.6223 105.163C30.725 105.163 30.8481 105.107 30.9508 105.05C30.9919 105.05 31.0124 104.938 31.0329 104.882C31.074 104.713 31.0329 104.545 30.9919 104.376C30.9097 104.151 30.8071 103.983 30.7044 103.983C30.3759 103.927 30.0474 103.87 29.7189 103.814C29.6163 103.814 29.4931 103.87 29.3904 103.814C29.2878 103.814 29.1851 103.702 29.103 103.646ZM49.4289 112.299V112.355C49.2441 112.355 49.0593 112.355 48.8745 112.355C48.813 112.355 48.7308 112.411 48.6692 112.468C48.5871 112.524 48.5666 112.692 48.6282 112.917C48.7103 113.254 48.813 113.535 48.9361 113.76C49.0593 113.985 49.203 114.097 49.3468 114.041C49.4289 113.985 49.4905 113.985 49.5521 113.872C49.7369 113.648 49.9011 113.648 50.0859 113.816C50.1885 113.929 50.2912 113.76 50.3528 113.479C50.476 112.917 50.4144 112.411 50.1885 112.355C49.9422 112.355 49.6753 112.355 49.4289 112.299ZM21.1574 8.51488C21.3217 8.57107 21.527 8.57107 21.6502 8.17774C21.9171 7.50345 22.225 7.33488 22.5535 7.39107C22.6562 7.39107 22.7794 7.39107 22.882 7.39107C22.9436 7.39107 23.0052 7.2225 23.0873 7.16631C23.0668 7.05393 23.0668 6.94154 23.0463 6.88535C22.9026 6.54821 22.7999 6.15488 22.6767 5.81773C22.5946 5.59297 22.4714 5.53678 22.3893 5.76154C22.2661 5.9863 22.1634 6.26726 22.0403 6.49202C21.876 6.77297 21.7118 6.99773 21.5475 7.16631C21.4449 7.27869 21.3422 7.33488 21.2395 7.44726C21.1985 7.50345 21.1779 7.50345 21.1369 7.50345C21.0342 7.61583 20.9521 7.7844 20.911 8.12155C20.87 8.34631 20.9726 8.51488 21.1574 8.51488ZM25.2637 6.21107C25.0378 6.15487 24.8941 6.26726 24.7504 6.54821C24.6682 6.71678 24.6067 7.11012 24.6477 7.33488C24.6682 7.44726 24.6682 7.50345 24.6888 7.61583C24.7298 7.7844 24.7709 7.95298 24.812 8.12155C24.8941 8.45869 25.0173 8.62726 25.1815 8.51488C25.469 8.34631 25.6127 7.89679 25.6332 7.05393C25.6332 6.66059 25.51 6.26726 25.3663 6.21107C25.3252 6.21107 25.2842 6.21107 25.2637 6.21107ZM85.7691 103.196C85.9744 103.309 86.0771 103.533 86.1592 103.87C86.2413 104.264 86.3851 104.376 86.5288 104.376C86.6314 104.376 86.7546 104.32 86.8573 104.264C86.9599 104.208 87.0626 103.814 87.0215 103.589C86.9805 103.309 86.9189 103.084 86.8573 102.803C86.7546 102.353 86.7546 102.353 86.6109 102.466C86.5082 102.522 86.4056 102.634 86.2824 102.634C86.1387 102.634 85.995 102.634 85.8513 102.634C85.7691 102.634 85.7075 102.69 85.6459 102.859C85.687 103.084 85.7486 103.196 85.7691 103.196ZM4.89669 63.8627C4.95829 63.8627 4.91722 63.8627 4.89669 63.8627C4.79404 63.9189 4.71191 63.9751 4.71191 64.0874C4.71191 64.3122 4.77351 64.3684 4.85563 64.4808C5.06094 64.7617 5.26626 64.8741 5.4921 64.9303C5.63582 64.9303 5.77954 65.0989 5.90272 65.2674C6.02591 65.436 6.0875 65.3798 6.19016 65.1551C6.27228 64.8741 6.27228 64.5931 6.16963 64.4246C5.94379 64.0874 5.69741 63.8627 5.45104 63.8627C5.28679 63.8627 5.14307 63.8627 4.89669 63.8627ZM66.4903 102.129C66.285 102.129 66.1413 102.129 65.9976 102.129C65.936 102.129 65.8744 102.297 65.7923 102.353C65.7307 102.466 65.6691 102.634 65.6896 102.859C65.6896 103.028 65.7717 103.084 65.8539 103.14C66.1413 103.309 66.4287 103.309 66.7162 103.084C66.7778 103.028 66.8393 102.915 66.9009 102.803C66.9215 102.747 66.942 102.634 66.9625 102.578C67.0036 102.353 66.9625 102.241 66.8599 102.241C66.7162 102.185 66.5724 102.185 66.4903 102.129ZM63.5954 102.634C63.8213 102.634 64.0471 102.634 64.2524 102.634C64.314 102.634 64.3961 102.578 64.4577 102.522C64.4988 102.522 64.5193 102.409 64.5399 102.353C64.5193 102.297 64.4783 102.185 64.4577 102.185C64.1087 101.904 63.7391 102.072 63.3901 102.072C63.2053 102.072 63.0411 101.904 62.8768 101.735C62.8152 101.679 62.7331 101.623 62.6715 101.623C62.651 101.623 62.6099 101.735 62.5894 101.791C62.5689 101.848 62.5894 101.96 62.5894 102.016C62.651 102.297 62.7331 102.466 62.8563 102.522C63.1027 102.522 63.349 102.578 63.5954 102.634ZM30.8687 111.681C30.9303 111.625 31.0124 111.625 31.074 111.569C31.1151 111.569 31.1356 111.456 31.1561 111.4C31.2588 111.231 31.2998 110.894 31.2793 110.669C31.2382 110.389 31.1561 110.164 31.0535 110.108C30.9919 110.051 30.9097 110.051 30.8481 110.108C30.6839 110.276 30.5196 110.445 30.3349 110.557C30.2527 110.613 30.2117 110.726 30.2117 110.894C30.2117 110.95 30.2527 111.063 30.2733 111.119C30.3965 111.288 30.5402 111.456 30.6634 111.625C30.725 111.681 30.8071 111.681 30.8687 111.681ZM16.312 7.33488C16.4147 7.33488 16.4968 7.33488 16.5584 7.27869C16.6405 7.2225 16.6816 7.05393 16.6816 6.88535C16.7021 6.66059 16.6611 6.49202 16.579 6.43583C16.3736 6.21107 16.1478 6.26726 15.922 6.32345C15.8809 6.32345 15.8604 6.37964 15.8193 6.43583C15.7372 6.49202 15.6961 6.66059 15.7166 6.94154C15.7372 7.11012 15.7988 7.27869 15.8604 7.27869C16.0451 7.27869 16.1889 7.33488 16.312 7.33488ZM97.9852 105.725C97.9852 105.725 97.9852 105.669 97.9852 105.725C97.8004 105.669 97.6156 105.669 97.4309 105.669C97.3282 105.669 97.2255 105.837 97.1434 106.006C97.1229 106.062 97.1229 106.23 97.1229 106.287C97.1434 106.455 97.1845 106.624 97.2666 106.68C97.3077 106.68 97.3487 106.736 97.3693 106.68C97.6772 106.287 98.0057 106.174 98.3342 106.174C98.4164 106.174 98.478 106.174 98.5601 106.118C98.6011 106.118 98.6422 106.062 98.6422 105.949C98.6627 105.837 98.6217 105.669 98.519 105.669C98.3548 105.669 98.17 105.725 97.9852 105.725ZM41.5038 111.456C41.4833 111.344 41.4833 111.231 41.4628 111.175C41.3191 110.669 41.1753 110.22 40.9495 110.051C40.8468 109.939 40.7442 109.77 40.6415 109.658C40.621 109.658 40.5799 109.77 40.5594 109.827C40.5389 109.883 40.5389 110.051 40.5594 110.108C40.6621 110.613 40.8058 111.119 40.9906 111.456C41.1138 111.737 41.2575 111.737 41.4012 111.625C41.4422 111.625 41.4628 111.512 41.5038 111.456ZM102.666 55.996C102.523 55.996 102.379 55.996 102.235 55.996C102.132 55.996 102.091 56.1084 102.091 56.2207C102.091 56.3331 102.132 56.3893 102.153 56.4455C102.215 56.5579 102.276 56.6703 102.338 56.7265C102.482 56.895 102.605 57.0074 102.769 56.7826C102.933 56.6141 103.118 56.4455 103.282 56.2207C103.303 56.2207 103.303 56.1084 103.323 56.0522C103.282 55.996 103.262 55.9398 103.221 55.9398C103.036 55.996 102.851 55.996 102.666 55.996ZM109.175 59.6484C109.01 59.7046 108.887 59.7046 108.785 59.7608C108.723 59.8169 108.641 59.8731 108.579 59.9855C108.518 60.0979 108.477 60.2665 108.477 60.4912C108.477 60.5474 108.538 60.6036 108.579 60.6036C108.723 60.6598 108.867 60.716 109.01 60.716C109.072 60.716 109.154 60.6036 109.216 60.5474C109.318 60.435 109.38 59.9855 109.318 59.8169C109.257 59.7046 109.195 59.6484 109.175 59.6484ZM21.0548 99.038C21.1985 99.038 21.3217 99.038 21.4243 99.038C21.4654 99.038 21.5064 99.038 21.527 98.9818C21.6091 98.9818 21.6707 98.8694 21.7323 98.7571C21.7118 98.5885 21.6502 98.5323 21.568 98.4761C21.2806 98.3075 20.9726 98.4761 20.7057 98.139C20.6852 98.0828 20.6441 98.139 20.6031 98.139C20.5209 98.1952 20.4799 98.3075 20.4388 98.4761C20.3978 98.7009 20.4388 98.8694 20.5415 98.8694C20.7468 98.9256 20.911 98.9818 21.0548 99.038ZM102.256 109.714C102.235 109.377 102.174 109.209 102.091 109.04C102.009 108.871 101.886 108.871 101.804 109.096C101.722 109.321 101.681 109.546 101.64 109.827C101.599 110.108 101.64 110.389 101.742 110.445C101.927 110.501 102.091 110.389 102.215 109.995C102.235 109.883 102.235 109.77 102.256 109.714ZM46.534 9.69489C46.5956 9.6387 46.6777 9.63869 46.7393 9.5825C46.8214 9.52631 46.8625 9.41393 46.8625 9.18917C46.8625 8.96441 46.8009 8.85203 46.7393 8.85203C46.6366 8.90822 46.534 8.90822 46.4313 8.73965C46.2671 8.51488 46.1028 8.45869 45.9181 8.57107C45.8359 8.62726 45.7743 8.68345 45.7538 8.85203C45.7538 8.85203 45.7949 9.0206 45.8359 9.0206C46.0002 9.13298 46.185 9.30155 46.3287 9.52631C46.3903 9.63869 46.4724 9.6387 46.534 9.69489ZM90.1833 13.4035C90.286 13.3473 90.3476 13.3473 90.4297 13.2911C90.5324 13.2349 90.5529 13.0663 90.4913 12.8416C90.3476 12.2797 90.1423 12.2235 89.9164 12.3358C89.8343 12.392 89.8138 12.5606 89.7932 12.7854C89.7932 13.0101 89.8138 13.1787 89.8959 13.2349C89.9986 13.3473 90.1012 13.3473 90.1833 13.4035ZM31.731 7.89679C31.772 7.67202 31.7515 7.55964 31.6489 7.44726C31.4641 7.33488 31.2998 7.39107 31.1356 7.55964C31.0535 7.67202 31.0124 7.7844 31.0329 8.00917C31.0535 8.17774 31.0945 8.34631 31.1766 8.4025C31.3204 8.51488 31.4641 8.45869 31.5873 8.29012C31.6694 8.23393 31.7105 8.06536 31.731 7.89679ZM15.4292 101.342C15.4292 101.342 15.5113 101.342 15.5729 101.342C15.655 101.286 15.7988 101.286 15.614 101.005C15.5935 100.948 15.5524 100.949 15.5113 100.949C15.3265 100.892 15.1623 100.78 14.9775 100.611C14.957 100.611 14.9159 100.611 14.8954 100.668C14.8749 100.724 14.8338 100.78 14.8338 100.892C14.8338 101.005 14.8338 101.117 14.8543 101.173C14.9981 101.454 15.1828 101.342 15.4292 101.342ZM9.51622 102.578C9.57781 102.578 9.65993 102.578 9.72153 102.522C9.78312 102.466 9.82418 102.297 9.84472 102.129C9.86525 101.904 9.84472 101.791 9.76259 101.623C9.61887 101.398 9.49568 101.398 9.3725 101.623C9.29037 101.735 9.26984 101.904 9.29037 102.072C9.3109 102.241 9.33144 102.409 9.41356 102.522C9.43409 102.578 9.47515 102.578 9.51622 102.578ZM97.7799 101.51C97.6978 101.51 97.6362 101.51 97.554 101.567C97.513 101.567 97.4925 101.623 97.4514 101.679C97.3693 101.735 97.3487 101.904 97.4103 102.129C97.513 102.522 97.7183 102.634 97.9031 102.409C97.9647 102.297 98.0057 102.129 98.0263 101.904C98.0468 101.679 97.9236 101.51 97.7799 101.51ZM91.4768 105.556C91.8258 105.556 91.9696 105.556 92.1133 105.556C92.1954 105.556 92.257 105.388 92.2159 105.275C92.1954 105.219 92.1543 105.163 92.1338 105.163C91.8464 105.163 91.5589 105.219 91.2715 105.219C91.2304 105.219 91.2099 105.331 91.1894 105.388C91.2099 105.444 91.2304 105.5 91.2715 105.556C91.3947 105.669 91.5384 105.612 91.4768 105.556ZM29.5136 110.501C29.4315 110.501 29.3699 110.501 29.2878 110.557C29.2467 110.557 29.2056 110.613 29.1851 110.613C29.1441 110.669 29.103 110.726 29.103 110.782C29.103 111.007 29.1646 111.119 29.2262 111.175C29.3699 111.288 29.4726 111.569 29.6368 111.512C29.6984 111.512 29.76 111.344 29.7805 111.175C29.8011 110.95 29.7805 110.782 29.6984 110.669C29.6573 110.613 29.5752 110.557 29.5136 110.501ZM47.6837 112.355C47.6016 112.355 47.54 112.411 47.499 112.58C47.499 112.636 47.5195 112.749 47.54 112.805C47.7043 113.142 47.8685 113.479 48.0533 113.816C48.1354 113.985 48.1765 113.929 48.2175 113.704C48.2381 113.648 48.2381 113.535 48.2381 113.423C48.1765 112.805 47.9506 112.355 47.6837 112.355ZM93.4067 17.6178C93.6531 17.6178 93.7558 17.6178 93.8584 17.6178C93.9611 17.6178 94.0021 17.4492 93.9816 17.3368C93.9611 17.2806 93.92 17.1682 93.8995 17.1682C93.7147 17.1682 93.5299 17.1682 93.3451 17.1682C93.2425 17.1682 93.2014 17.3368 93.222 17.393C93.2425 17.4492 93.2835 17.5054 93.3041 17.5054C93.3862 17.6178 93.4683 17.6178 93.4067 17.6178ZM98.827 101.96C98.9912 101.96 99.0528 101.96 99.1349 101.96C99.176 101.96 99.2171 101.96 99.2376 101.904C99.2787 101.848 99.2992 101.791 99.3197 101.735C99.3197 101.735 99.2992 101.623 99.2787 101.567C99.0528 101.398 98.8475 101.342 98.5601 101.567C98.5395 101.567 98.519 101.679 98.4985 101.735C98.519 101.791 98.5601 101.904 98.5806 101.904C98.7038 101.96 98.8064 101.96 98.827 101.96ZM99.6893 105.669C99.8946 105.669 99.9562 105.669 100.018 105.669C100.059 105.669 100.079 105.669 100.12 105.612C100.162 105.556 100.182 105.5 100.203 105.444C100.203 105.444 100.182 105.331 100.162 105.275C99.9151 105.05 99.6893 105.05 99.4429 105.275C99.4224 105.275 99.4019 105.388 99.4019 105.444C99.4224 105.5 99.4634 105.612 99.484 105.612C99.6072 105.669 99.7098 105.669 99.6893 105.669ZM34.7696 106.23C34.9544 106.23 35.057 106.23 35.1597 106.23C35.1802 106.23 35.2213 106.118 35.2418 106.062C35.2624 105.949 35.2008 105.781 35.1186 105.781C34.9133 105.725 34.708 105.725 34.5027 105.893C34.4822 105.893 34.4616 106.006 34.4411 106.062C34.4616 106.118 34.5027 106.174 34.5232 106.23C34.6464 106.23 34.7491 106.23 34.7696 106.23ZM103.508 107.972C103.713 108.029 103.878 107.916 104.001 107.467C104.021 107.41 104.042 107.298 104.042 107.242C104.001 107.017 103.939 106.961 103.857 107.017C103.734 107.186 103.59 107.354 103.467 107.523C103.385 107.635 103.364 107.804 103.426 107.916C103.467 107.972 103.508 107.972 103.508 107.972ZM17.9751 97.8018C18.0572 97.8018 18.2009 97.7456 18.3446 97.6894C18.3857 97.6894 18.4268 97.5771 18.4268 97.5209C18.4062 97.3523 18.3652 97.2961 18.283 97.2399C18.0983 97.1837 17.934 97.1837 17.7492 97.2961C17.6671 97.3523 17.6055 97.4647 17.626 97.5771C17.626 97.6333 17.6876 97.6894 17.7082 97.7456C17.7698 97.7456 17.8519 97.7456 17.9751 97.8018ZM40.1488 110.051C40.0667 109.77 39.964 109.433 39.8613 109.152C39.7998 108.984 39.7382 108.984 39.6766 109.096C39.6355 109.265 39.6355 109.433 39.656 109.658C39.7176 110.051 39.8408 110.276 39.9845 110.332C40.0256 110.332 40.0461 110.332 40.0872 110.276C40.1283 110.22 40.1488 110.164 40.1488 110.051ZM78.419 101.454C78.4805 101.454 78.5627 101.454 78.6243 101.398C78.6653 101.398 78.7064 101.286 78.7064 101.229C78.7064 101.117 78.6653 100.949 78.5832 100.949C78.4806 100.892 78.3779 100.949 78.2752 100.949C78.1931 100.949 78.111 101.117 78.1315 101.229C78.152 101.398 78.2342 101.454 78.3163 101.454C78.3574 101.454 78.3779 101.454 78.419 101.454ZM15.1212 105.388C15.1418 105.331 15.1828 105.219 15.1828 105.163C15.1828 105.05 15.1828 104.938 15.1623 104.882C15.0596 104.545 14.7311 104.489 14.6696 104.769C14.6696 104.826 14.6901 104.938 14.7106 104.994C14.8543 105.163 14.9775 105.388 15.1212 105.388ZM55.0339 111.063C55.0544 111.063 55.0955 111.063 55.116 111.007C55.1571 110.95 55.1982 110.95 55.1982 110.838C55.1982 110.726 55.1571 110.557 55.075 110.557C54.9723 110.557 54.8697 110.557 54.767 110.557C54.6849 110.557 54.6028 110.726 54.6233 110.782C54.6438 110.95 54.7259 111.007 54.8081 111.007C54.8697 111.063 54.9518 111.063 55.0339 111.063ZM4.95829 8.57107C4.95829 8.34631 4.91722 8.23393 4.8351 8.17774C4.75297 8.12155 4.69138 8.23393 4.65032 8.4025C4.58873 8.68345 4.71191 9.0206 4.81457 8.96441C4.89669 8.90822 4.93776 8.79584 4.95829 8.57107ZM99.1965 33.4635C99.1965 33.295 99.1555 33.1264 99.0939 33.0702C98.9912 32.9578 98.868 33.2388 98.8886 33.5197C98.9091 33.6883 98.9296 33.8569 98.9912 33.9131C99.0939 34.0254 99.1965 33.7445 99.1965 33.4635ZM32.6138 110.894C32.5933 110.838 32.5933 110.726 32.5728 110.669C32.4906 110.501 32.3675 110.501 32.2648 110.557C32.2443 110.557 32.1827 110.669 32.1827 110.726C32.1827 110.894 32.2237 111.007 32.3059 111.063C32.4906 111.175 32.5933 111.063 32.6138 110.894ZM90.7377 110.22C90.7582 110.164 90.7993 110.051 90.7993 109.995C90.8198 109.77 90.7787 109.602 90.7171 109.489C90.6556 109.377 90.594 109.377 90.5324 109.489C90.4913 109.602 90.4913 109.77 90.5529 109.939C90.6145 110.164 90.6556 110.22 90.7377 110.22ZM71.2536 109.939C71.3152 109.939 71.3767 109.827 71.4383 109.714C71.3973 109.546 71.3357 109.433 71.2741 109.433C71.1304 109.377 70.9867 109.489 71.0072 109.658C70.9867 109.77 71.1304 109.939 71.2536 109.939ZM99.7509 107.523C99.7509 107.579 99.7509 107.691 99.7714 107.748C99.8125 107.916 99.8741 107.972 99.9357 107.972C99.9562 107.972 99.9973 107.916 100.018 107.804C100.059 107.635 99.9767 107.354 99.8535 107.242C99.8125 107.186 99.7714 107.298 99.7509 107.523ZM18.4062 106.511C18.3241 106.287 18.2214 106.287 18.1188 106.399C17.9956 106.511 17.9956 106.624 18.0983 106.736C18.2009 106.849 18.3036 106.849 18.3857 106.68C18.4062 106.68 18.4268 106.568 18.4062 106.511ZM96.4864 105.949C96.4659 105.893 96.4454 105.781 96.4043 105.781C96.3222 105.725 96.2606 105.837 96.2195 106.006C96.1785 106.174 96.1785 106.343 96.2195 106.511C96.2606 106.624 96.3222 106.624 96.3838 106.455C96.4659 106.287 96.4864 106.118 96.4864 105.949ZM33.2914 106.23C33.3735 106.287 33.4351 106.23 33.4761 106.062C33.4351 105.893 33.3735 105.837 33.3119 105.837C33.1682 105.837 33.045 105.949 33.1066 106.062C33.1682 106.174 33.2298 106.23 33.2914 106.23ZM103.385 105.669C103.467 105.669 103.529 105.612 103.57 105.444C103.549 105.275 103.488 105.163 103.405 105.163C103.262 105.163 103.139 105.331 103.18 105.444C103.241 105.612 103.303 105.669 103.385 105.669ZM19.3917 97.8018C19.3917 97.6332 19.3712 97.4647 19.2891 97.4085C19.2275 97.2961 19.1454 97.3523 19.1043 97.5209C19.0838 97.6894 19.1248 97.858 19.1659 97.9704C19.2275 98.139 19.2891 98.139 19.3301 98.0266C19.3712 97.9704 19.3917 97.858 19.3917 97.8018ZM98.4574 33.1264C98.4164 32.9578 98.3342 32.9016 98.2726 32.9016C98.1905 32.9016 98.1289 32.9578 98.0879 33.1264C98.0879 33.1264 98.1084 33.295 98.1289 33.295C98.2316 33.4073 98.3342 33.4635 98.4369 33.295C98.4369 33.295 98.4369 33.1826 98.4574 33.1264ZM57.6208 14.3025C57.5387 14.0778 57.2923 14.1339 57.2513 14.3587C57.2513 14.4149 57.2923 14.5273 57.3129 14.5835C57.4155 14.6959 57.5182 14.6397 57.6003 14.4711C57.6208 14.4149 57.6208 14.3587 57.6208 14.3025ZM87.1447 11.6054C87.1653 11.493 87.1858 11.3806 87.1858 11.3244C87.1447 11.0997 87.0831 11.0435 87.001 11.1558C86.9189 11.2682 86.8778 11.4368 86.8983 11.6616C86.8983 11.7739 86.9394 11.8863 86.9599 11.8863C87.0215 11.9425 87.1037 11.8301 87.1447 11.6054ZM24.0523 6.66059C24.0934 6.66059 24.1139 6.66059 24.155 6.6044C24.2371 6.54821 24.2576 6.37964 24.2576 6.15487C24.2576 6.09868 24.2371 5.9863 24.2166 5.93011C24.155 5.81773 24.1139 5.87392 24.0523 6.04249C23.9907 6.21107 23.9702 6.32345 23.9907 6.49202C23.9907 6.6044 24.0318 6.6044 24.0523 6.66059ZM37.5413 112.13C37.5824 112.243 37.644 112.299 37.7261 112.299C37.8082 112.299 37.8698 112.243 37.9109 112.13C37.9109 112.13 37.8903 112.018 37.8698 111.962C37.7672 111.849 37.6645 111.849 37.5824 111.962C37.5619 112.018 37.5619 112.074 37.5413 112.13ZM12.0826 5.64916C12.0621 5.70535 12.0005 5.81773 12.0005 5.87392C12.021 6.09868 12.1031 6.15488 12.1647 6.09868C12.1853 6.04249 12.2469 5.93011 12.2263 5.93011C12.2263 5.64916 12.1442 5.59297 12.0826 5.64916ZM13.2734 6.04249C13.294 5.9863 13.335 5.93011 13.3556 5.87392C13.335 5.81773 13.3145 5.70535 13.294 5.70535C13.2324 5.64916 13.1708 5.70535 13.1297 5.87392C13.1297 5.87392 13.1708 6.04249 13.1913 6.04249C13.1913 6.04249 13.2324 6.04249 13.2734 6.04249ZM32.6754 7.61583C32.6754 7.67202 32.6754 7.7844 32.696 7.7844C32.7165 7.84059 32.7575 7.84059 32.7986 7.84059C32.8807 7.72821 32.8807 7.61583 32.7781 7.55964C32.737 7.50345 32.696 7.55964 32.6754 7.61583ZM6.02591 8.34631C6.00538 8.29012 5.98485 8.17774 5.96432 8.17774C5.90272 8.12155 5.84113 8.17774 5.80007 8.34631C5.80007 8.34631 5.84113 8.51488 5.86166 8.51488C5.92325 8.57107 5.98485 8.51488 6.02591 8.34631ZM3.06942 64.256C3.08995 64.1998 3.13101 64.1436 3.15154 64.1436C3.13101 64.0874 3.11048 64.0312 3.08995 63.9751C3.06942 63.9189 3.02835 63.9189 3.00782 63.9751C2.98729 63.9751 2.9257 64.0874 2.9257 64.0874C2.94623 64.256 3.00782 64.3122 3.06942 64.256ZM112.131 77.6294C112.152 77.5732 112.193 77.517 112.213 77.517C112.193 77.4608 112.172 77.3484 112.131 77.3484C112.029 77.2922 111.987 77.4046 112.029 77.5732C112.07 77.6294 112.111 77.6294 112.131 77.6294ZM25.7153 99.2628C25.6537 99.1504 25.5922 99.2066 25.5511 99.2628C25.5716 99.319 25.5922 99.3752 25.6332 99.3752C25.6537 99.3752 25.6948 99.3752 25.7153 99.319C25.7153 99.3752 25.7153 99.319 25.7153 99.2628ZM13.4787 101.96C13.4993 101.904 13.5403 101.848 13.5609 101.791C13.5403 101.735 13.5198 101.623 13.4787 101.623C13.3761 101.567 13.335 101.679 13.3761 101.848C13.3966 101.96 13.4582 101.96 13.4787 101.96ZM93.3657 106.511C93.3246 106.455 93.3041 106.399 93.263 106.455C93.222 106.455 93.2014 106.568 93.1809 106.624C93.2014 106.68 93.222 106.792 93.263 106.792C93.2836 106.792 93.3246 106.792 93.3657 106.736C93.3657 106.68 93.3657 106.568 93.3657 106.511ZM41.9555 107.86C41.935 107.804 41.9145 107.691 41.8939 107.691C41.8323 107.635 41.7707 107.691 41.7092 107.804C41.7297 107.86 41.7502 107.972 41.7707 107.972C41.8529 108.085 41.9145 108.029 41.9555 107.86ZM44.5835 110.782C44.563 110.782 44.5219 110.726 44.5014 110.726C44.4809 110.726 44.4398 110.782 44.4193 110.838C44.4398 110.894 44.4603 110.95 44.5014 111.007C44.5219 111.007 44.563 111.007 44.6041 110.95C44.5835 110.95 44.563 110.838 44.5835 110.782ZM94.9466 101.061L94.9055 101.173H94.9671L94.9466 101.061ZM95.8294 104.882L95.8705 104.713H95.8089L95.8294 104.882ZM25.5306 110.726L25.4895 110.838H25.5511L25.5306 110.726Z" fill="white"/>
<path d="M62.9792 113.534C63.3487 113.59 63.6978 113.646 64.0263 114.208C64.0468 114.264 64.0879 114.377 64.0879 114.433C64.0879 114.601 64.0468 114.714 63.9647 114.77C63.7799 114.882 63.6156 115.051 63.4514 115.276C63.2256 115.613 62.9997 115.781 62.7328 115.557C62.4454 115.332 62.1579 115.444 61.8705 115.388C61.7678 115.388 61.6652 115.332 61.542 115.219C61.4599 115.163 61.4188 114.995 61.3983 114.826C61.3777 114.601 61.3983 114.433 61.4804 114.377C61.542 114.32 61.6036 114.208 61.6857 114.208C61.8705 114.152 62.0347 114.096 62.2195 113.871C62.4659 113.59 62.7123 113.646 62.9792 113.534Z" fill="#00659E"/>
<path d="M4.07513 0.815308C4.0546 0.98388 4.03406 1.20864 3.993 1.32102C3.86981 1.71436 3.70557 1.88293 3.50025 1.82674C3.336 1.77055 3.23335 1.54579 3.17175 1.15245C3.13069 0.98388 3.15122 0.759117 3.21282 0.590545C3.37707 0.14102 3.58238 -0.0837427 3.80822 0.0286386C3.91088 0.0848292 4.01353 0.253401 4.07513 0.478164C4.07513 0.534354 4.07513 0.702926 4.07513 0.815308Z" fill="#00659E"/>
<path d="M37.7266 7.67047C37.6034 7.55809 37.5213 7.38951 37.4802 7.10856C37.4186 6.82761 37.4391 6.54665 37.5418 6.37808C37.665 6.15332 37.8087 6.09713 37.9319 6.20951C37.973 6.20951 37.9935 6.2657 38.0345 6.32189C38.1167 6.43427 38.1988 6.8838 38.1577 7.05237C38.1167 7.22094 38.0551 7.33332 37.9935 7.38951C37.8908 7.5019 37.8087 7.61428 37.7266 7.67047Z" fill="#00659E"/>
<path d="M78.645 12.8966C78.7272 12.4471 78.7888 11.9975 78.8709 11.6042C78.912 11.3794 78.9735 11.3232 79.0351 11.3232C79.1378 11.3794 79.2404 11.7728 79.2199 11.9413C79.2199 12.0537 79.1994 12.1099 79.1789 12.2223C79.0967 12.5594 78.9735 12.7842 78.8298 12.7842C78.7682 12.7842 78.6861 12.7842 78.6245 12.8404L78.645 12.8966Z" fill="#00659E"/>
<path d="M104.74 55.3765C104.679 55.4327 104.597 55.5451 104.535 55.5451C104.515 55.5451 104.473 55.4889 104.453 55.4327C104.412 55.2641 104.412 55.0955 104.473 54.9832C104.597 54.7584 104.74 54.8146 104.884 54.8146C104.966 54.8146 105.028 54.8708 105.089 54.9832C105.069 55.1517 105.007 55.2079 104.946 55.2641C104.884 55.3203 104.822 55.3765 104.74 55.3765Z" fill="#00659E"/>
<path d="M98.5391 24.3591C98.6007 24.3591 98.6829 24.3591 98.7445 24.4153C98.8266 24.4153 98.8882 24.5277 98.8882 24.6963C98.8882 24.921 98.8266 25.0334 98.7445 25.0896C98.6829 25.1458 98.6213 25.2582 98.5391 25.3144C98.457 25.3706 98.3338 25.2582 98.2722 24.9772C98.2517 24.921 98.2517 24.7525 98.2517 24.6963C98.2722 24.5277 98.3338 24.4715 98.416 24.4153C98.457 24.3591 98.4981 24.3591 98.5391 24.3591Z" fill="#00659E"/>
<path d="M114 64.0858C113.979 64.142 113.979 64.2544 113.959 64.2544C113.856 64.3668 113.754 64.3668 113.651 64.2544C113.63 64.2544 113.61 64.0858 113.61 64.0858C113.651 63.9173 113.733 63.8611 113.795 63.8611C113.877 63.8611 113.938 63.9173 114 64.0858Z" fill="#00659E"/>
<path d="M70.3302 11.3229C70.3507 11.5476 70.2686 11.8286 70.1659 11.941C70.1454 11.941 70.1043 11.941 70.0838 11.8848C70.0222 11.7162 70.0222 11.5476 70.0838 11.3791C70.1249 11.2105 70.1865 11.1543 70.2686 11.1543C70.2686 11.1543 70.3096 11.2667 70.3302 11.3229Z" fill="#00659E"/>
<path d="M50.1264 8.8507C50.1059 8.90689 50.1059 9.01927 50.0854 9.07546C49.9827 9.24404 49.88 9.18785 49.7774 9.07546C49.7569 9.01927 49.7363 8.90689 49.7363 8.90689C49.7774 8.73832 49.8595 8.68213 49.9211 8.68213C50.0032 8.68213 50.0648 8.73832 50.1264 8.8507Z" fill="#00659E"/>
<path d="M6.70294 1.26475C6.62081 1.26475 6.55922 1.26475 6.51816 1.09617C6.47709 0.927602 6.57975 0.759031 6.72347 0.815221C6.80559 0.815221 6.84666 0.927602 6.88772 1.09617C6.82613 1.20856 6.76453 1.26475 6.70294 1.26475Z" fill="#00659E"/>
<path d="M36.7812 6.88386C36.8017 6.94006 36.8428 7.05244 36.8428 7.05244C36.8223 7.22101 36.7607 7.2772 36.6785 7.22101C36.658 7.22101 36.6169 7.05244 36.6169 7.05244C36.658 6.88386 36.7196 6.82767 36.7812 6.88386Z" fill="#00659E"/>
<path d="M41.9756 7.61458C42.0166 7.55839 42.0372 7.5022 42.0782 7.5022C42.1809 7.55839 42.2014 7.72696 42.0988 7.83934C42.0782 7.89553 42.0166 7.83934 41.9961 7.78315C41.9756 7.78315 41.9756 7.67077 41.9756 7.61458Z" fill="#00659E"/>
<path d="M53.7606 8.51353C53.7195 8.40115 53.6785 8.34496 53.6785 8.28876C53.7195 8.12019 53.7811 8.064 53.8427 8.12019C53.8633 8.17638 53.9248 8.28876 53.9043 8.28876C53.8838 8.51353 53.8222 8.56972 53.7606 8.51353Z" fill="#00659E"/>
<path d="M58.0108 9.91846C58.0314 9.91846 58.093 9.97465 58.093 10.0308C58.1135 10.1994 58.0519 10.3118 57.9698 10.2556C57.9492 10.2556 57.9287 10.1432 57.9287 10.087C57.9698 10.0308 57.9903 9.91846 58.0108 9.91846Z" fill="#00659E"/>
<path d="M72.0129 12.1096C71.9718 12.0534 71.9308 12.0534 71.9308 11.9972C71.8897 11.8286 71.9308 11.7162 72.0334 11.7724C72.054 11.7724 72.0745 11.8848 72.1156 11.941C72.0745 11.9972 72.0334 12.0534 72.0129 12.1096Z" fill="#00659E"/>
<path d="M80.3284 11.9411C80.2873 12.1097 80.2257 12.2221 80.1436 12.1097C80.1231 12.0535 80.0615 11.9411 80.082 11.8849C80.1231 11.6602 80.1847 11.604 80.2668 11.7163C80.2873 11.7725 80.3079 11.8849 80.3284 11.9411Z" fill="#00659E"/>
<path d="M95.644 11.8288C95.6646 11.8288 95.7056 11.7164 95.7262 11.7726C95.8288 11.8288 95.8288 11.9411 95.7467 12.0535C95.7262 12.1097 95.6851 12.0535 95.644 11.9973C95.644 11.9973 95.644 11.9411 95.644 11.8288Z" fill="#00659E"/>
<path d="M70.5753 13.346C70.5547 13.2898 70.5137 13.1774 70.5137 13.1212C70.5342 12.8965 70.6163 12.8403 70.6779 12.9527C70.6985 13.0089 70.76 13.1212 70.7395 13.1774C70.7395 13.346 70.6574 13.4584 70.5753 13.346Z" fill="#00659E"/>
<path d="M96.9373 15.5935C96.8962 15.762 96.8346 15.8182 96.773 15.762C96.7525 15.7058 96.7114 15.5935 96.7114 15.5935C96.7525 15.4249 96.8141 15.3687 96.8757 15.4249C96.9167 15.4249 96.9167 15.4811 96.9373 15.5935Z" fill="#00659E"/>
<path d="M1.26294 21.3248C1.20134 21.2124 1.13975 21.1 1.09869 20.9876C1.05762 20.819 1.05762 20.6505 1.11922 20.5381C1.13975 20.5381 1.18081 20.5381 1.18081 20.5943C1.22187 20.6505 1.22187 20.7067 1.2424 20.819C1.2424 20.9876 1.2424 21.2124 1.2424 21.3809L1.26294 21.3248Z" fill="#00659E"/>
<path d="M100.49 27.6743C100.449 27.8428 100.387 27.899 100.326 27.8428C100.305 27.7866 100.264 27.6743 100.264 27.6743C100.305 27.5057 100.367 27.4495 100.428 27.5057C100.449 27.5619 100.469 27.6181 100.49 27.6743Z" fill="#00659E"/>
<path d="M101.106 34.3046C101.106 34.3608 101.106 34.4731 101.106 34.4731C101.085 34.5293 101.044 34.5293 101.003 34.5293C100.983 34.5293 100.942 34.4169 100.921 34.3608C100.942 34.3046 100.983 34.2484 101.003 34.2484C101.044 34.1922 101.085 34.2484 101.106 34.3046Z" fill="#00659E"/>
<path d="M113.117 64.1422C113.076 64.3108 113.015 64.4232 112.953 64.3108C112.932 64.2546 112.891 64.1422 112.891 64.1422C112.932 63.9175 112.994 63.8613 113.056 63.9737C113.076 63.9737 113.097 64.0861 113.117 64.1422Z" fill="#00659E"/>
<path d="M108.435 104.094C108.435 104.15 108.435 104.263 108.435 104.263C108.414 104.319 108.373 104.319 108.332 104.319C108.312 104.319 108.291 104.206 108.25 104.15C108.271 104.094 108.312 104.038 108.332 104.038C108.373 104.038 108.394 104.094 108.435 104.094Z" fill="#00659E"/>
<path d="M39.4089 7.33344C39.3277 7.27725 39.3074 7.22106 39.3074 7.05249C39.3277 7.05249 39.348 7.10868 39.3683 7.10868C39.3886 7.16487 39.3886 7.27725 39.3886 7.33344H39.4089Z" fill="#00659E"/>
<path d="M44.2759 7.38984C44.2964 7.16508 44.317 7.10889 44.3786 7.10889C44.358 7.16508 44.358 7.22127 44.3375 7.27746C44.317 7.33365 44.2759 7.33365 44.2554 7.33365L44.2759 7.38984Z" fill="#00659E"/>
<path d="M39.3892 7.38993C39.4918 7.38993 39.5123 7.50231 39.5123 7.67088C39.4918 7.67088 39.4508 7.61469 39.4508 7.61469C39.4302 7.5585 39.4302 7.44612 39.4097 7.33374L39.3892 7.38993Z" fill="#00659E"/>
<path d="M44.2555 7.33374C44.2555 7.50231 44.235 7.67088 44.1734 7.78327C44.1734 7.78327 44.1323 7.67088 44.1118 7.61469C44.1529 7.50231 44.2145 7.38993 44.2761 7.38993L44.2555 7.33374Z" fill="#00659E"/>
<path d="M51.6049 9.18765C51.5228 9.13146 51.4817 9.07527 51.4817 8.96289C51.5022 8.96289 51.5433 8.96289 51.5433 9.01908C51.5638 9.07527 51.5638 9.18765 51.5843 9.24384L51.6049 9.18765Z" fill="#00659E"/>
<path d="M112.13 59.5907C112.13 59.3659 112.171 59.2535 112.232 59.3097C112.232 59.3659 112.212 59.4221 112.212 59.4783C112.191 59.5345 112.151 59.5345 112.13 59.5345V59.5907Z" fill="#00659E"/>
<path d="M112.111 59.5347C112.09 59.7594 112.07 59.8718 112.008 59.8156C112.008 59.7594 112.029 59.7032 112.049 59.647C112.07 59.5909 112.111 59.5909 112.131 59.5347H112.111Z" fill="#00659E"/>
<path d="M93.9408 103.251C94.0229 103.307 94.064 103.42 94.105 103.588C94.1461 103.869 94.1256 104.15 94.0229 104.319C94.0024 104.375 93.9613 104.375 93.9203 104.375C93.8381 104.319 93.7971 104.15 93.8381 103.981C93.8792 103.701 93.9203 103.476 93.9819 103.195L93.9408 103.251Z" fill="#00659E"/>
<path d="M93.0376 104.487C93.1403 104.431 93.2429 104.431 93.325 104.543C93.3456 104.599 93.3866 104.712 93.3866 104.712C93.3661 104.937 93.3045 104.993 93.2224 104.937C93.1403 104.937 93.1197 104.88 93.0376 104.487Z" fill="#00659E"/>
<path d="M95.0478 104.431C95.0478 104.656 95.0072 104.768 94.9463 104.768C94.9463 104.712 94.9463 104.6 94.9666 104.6C94.9869 104.544 95.0275 104.544 95.0478 104.431Z" fill="#00659E"/>
<path d="M49.7268 70.1162C48.2274 70.1162 47.4415 71.1514 46.9767 72.0498C46.9735 72.0262 46.9703 72.0028 46.9671 71.9802C46.8372 71.0386 46.6898 69.9714 46.3141 69.073C45.5208 67.1763 44.073 66.8931 43.2805 66.8931C41.9213 66.8931 40.0861 67.6561 39.0622 71.2909C38.5676 73.0467 38.4536 74.7763 38.449 74.849L41.6656 75.0528C41.6665 75.0384 41.7616 73.5953 42.1646 72.1647C42.571 70.7221 43.0514 70.1803 43.2472 70.1216C43.5073 70.4869 43.6794 71.7341 43.7742 72.4207C43.8795 73.1838 43.979 73.9046 44.1868 74.5422C44.5851 75.7635 45.4051 76.5793 46.7035 76.5793C47.4916 76.5793 48.2047 76.2366 48.7457 75.588C49.3387 74.8769 49.573 74.013 49.895 73.416C50.3373 73.6906 51.1119 74.635 51.6051 75.6495L54.5096 74.2523C54.1775 73.5617 52.3854 70.1162 49.7268 70.1162Z" fill="#00659E"/>
<path d="M78.6528 37.4384C77.2548 38.4368 75.721 39.653 74.116 41.0295V28H42.6084L32 38.7261V83.0086H74.116V54.2753C74.394 54.0026 74.6722 53.7276 74.9502 53.4495C78.6636 49.7361 81.9217 45.993 84.124 42.9097C85.8907 40.4365 88.1292 37.0001 86.3459 35.2167C84.542 33.4127 81.0947 35.6941 78.6528 37.4384ZM63.4804 59.3078C61.8154 60.5615 60.6462 61.2877 59.8543 61.708C60.2746 60.9162 61.0007 59.7471 62.2545 58.082C64.0766 55.6622 66.5329 52.8448 69.2605 50.039L71.5233 52.3018C68.7176 55.0293 65.9001 57.4857 63.4804 59.3078ZM41.6695 33.5329V37.7769H37.4721L41.6695 33.5329ZM70.8928 79.7854H35.2232V41.0001H44.8926V31.2232H70.8928V43.9218C69.9715 44.7839 69.0412 45.6838 68.1128 46.6122C64.3994 50.3256 61.1413 54.0688 58.9391 57.1521C57.8458 58.6827 56.0042 61.3915 56.0528 63.2305L53.2986 65.9847L55.5777 68.2638L58.3316 65.51C58.3589 65.5107 58.3862 65.5115 58.4134 65.5115C60.2397 65.5115 62.9071 63.6971 64.4104 62.6234C66.3646 61.2276 68.5841 59.4072 70.8928 57.316V79.7854ZM80.8085 41.9797C78.9865 44.3994 76.53 47.2169 73.8025 50.0227L71.5397 47.7599C74.3456 45.0324 77.163 42.576 79.5827 40.7539C81.2477 39.5001 82.4169 38.7741 83.2086 38.3538C82.7884 39.1455 82.0622 40.3147 80.8085 41.9797Z" fill="#00659E"/>
<path d="M38.4453 44.2234H54.776V47.4465H38.4453V44.2234Z" fill="#00659E"/>
<path d="M38.4453 50.6697H48.1148V53.8928H38.4453V50.6697Z" fill="#00659E"/>
<path d="M38.4453 57.116H48.1148V60.3391H38.4453V57.116Z" fill="#00659E"/>
</svg>
