<svg width="125" height="99" viewBox="0 0 125 99" fill="none" xmlns="http://www.w3.org/2000/svg">
<path d="M5.93296 71.5296C5.69457 71.5296 5.45619 71.4904 5.23948 71.4904C5.13112 71.4904 5.0011 71.4511 4.89274 71.3726C4.58934 71.1372 4.28594 71.0979 3.98255 71.0979C3.70082 71.0979 3.44077 71.0979 3.15904 71.0979C3.00734 71.0979 2.83397 71.0979 2.70394 71.0194C2.37888 70.8232 2.03214 70.7447 1.6854 70.6663C1.62038 70.6663 1.5337 70.5485 1.49036 70.4308C1.42534 70.2738 1.33866 70.0776 1.31699 69.8814C1.16529 69.0181 0.991917 68.1547 0.818547 67.2914C0.775205 67.0952 0.796876 66.8597 0.840218 66.6635C0.970246 66.2318 1.01359 65.7609 1.0786 65.2508C1.14362 64.7014 1.25197 64.1912 1.31699 63.6026C1.36033 63.2886 1.36033 63.0532 1.25197 62.8177C1.20863 62.7 1.16529 62.5823 1.12194 62.4645C0.991917 61.9936 0.991917 61.5227 1.0786 61.0518C1.14362 60.7771 1.27364 60.6201 1.42534 60.5416C1.57704 60.4632 1.72874 60.4632 1.88044 60.4239C1.98879 60.3847 2.11882 60.3454 2.22718 60.3062C2.31386 60.2669 2.3572 60.1492 2.33553 59.9922C2.33553 59.953 2.29219 59.8745 2.27052 59.8353C2.24885 59.796 2.20551 59.7175 2.18383 59.7175C1.79375 59.6391 1.42534 59.3644 1.10027 59.0112C1.05693 58.9719 1.03526 58.9327 1.01359 58.8934C0.926903 58.7757 0.905232 58.501 1.01359 58.3833C1.33866 58.0301 1.31699 57.6377 1.18696 57.1275C1.12194 56.8921 1.05693 56.6174 1.05693 56.3427C1.05693 55.9895 1.03526 55.6363 1.05693 55.2831C1.10027 54.9299 1.18696 54.616 1.40367 54.5375C1.44701 54.5375 1.49036 54.4983 1.51203 54.459C1.55537 54.4198 1.59871 54.3413 1.59871 54.3413C1.55537 54.2236 1.49036 54.1843 1.40367 54.1451C1.29531 54.1058 1.16529 54.1058 1.05693 54.0666C0.970246 54.0274 0.86189 53.7134 0.883561 53.5564C0.926903 53.2033 1.03526 52.8893 0.970246 52.5361C0.926903 52.2222 0.948575 52.1437 1.05693 52.026C1.2303 51.869 1.40367 51.6728 1.55537 51.5158C1.66373 51.3981 1.6854 51.0842 1.59871 50.9664C1.5337 50.8879 1.49036 50.7702 1.42534 50.6917C1.33866 50.5348 1.25197 50.417 1.16529 50.2601C1.0786 50.1031 1.0786 49.8284 1.14362 49.6714C1.20863 49.5929 1.25197 49.4752 1.31699 49.3967C1.46868 49.2005 1.62038 48.9651 1.72874 48.6511C1.8371 48.2979 2.01047 48.2194 2.22718 48.1802C2.37888 48.141 2.53057 48.141 2.68227 48.0625C2.76896 48.0232 2.8123 47.9055 2.8123 47.7485C2.8123 47.6308 2.74729 47.4738 2.6606 47.4738C2.27052 47.3953 1.88044 47.3953 1.49036 47.3169C1.42534 47.3169 1.33866 47.1991 1.27364 47.1599C1.12194 47.0029 1.0786 46.689 1.18696 46.4928C1.40367 46.1003 1.49036 45.7079 1.31699 45.1585C1.25197 44.9623 1.27364 44.7661 1.382 44.6091C1.40367 44.5699 1.44701 44.4914 1.46868 44.4914C1.62038 44.4129 1.77208 44.3737 1.92378 44.4129C2.5089 44.4914 3.09403 44.3737 3.67915 44.3737C3.72249 44.3737 3.76583 44.3344 3.78751 44.3344C3.83085 44.2952 3.85252 44.2559 3.87419 44.2167C3.83085 44.1774 3.80918 44.1382 3.76583 44.099C3.50578 43.9812 3.22405 44.099 2.94233 44.0205C2.83397 43.9812 2.70394 44.0205 2.59559 43.9027C2.22718 43.5496 1.85877 43.5496 1.46868 43.5103C1.382 43.5103 1.33866 43.3534 1.36033 43.2749C1.382 43.2356 1.40367 43.1571 1.44701 43.1571C1.49036 43.1179 1.5337 43.1179 1.55537 43.1179C1.85877 43.1179 2.18384 43.1179 2.46556 42.8432C2.85564 42.7255 3.20238 42.3723 3.57079 42.1761C3.59246 42.1761 3.61414 42.0583 3.65748 42.0191C3.63581 41.9799 3.59246 41.9406 3.57079 41.9014C3.46244 41.8229 3.35408 41.8229 3.22405 41.8229C2.83397 41.8229 2.44389 41.8229 2.05381 41.8229C1.85877 41.8229 1.6854 41.6267 1.5337 41.3912C1.44701 41.2342 1.44701 40.9988 1.51203 40.8418C1.55537 40.7241 1.62038 40.6848 1.70707 40.6064C1.8371 40.4886 1.8371 40.2924 1.75041 40.0962C1.59871 39.6645 1.31699 39.5076 1.10027 39.2329C1.03526 39.1151 1.01359 38.9974 1.03526 38.8404C1.03526 38.762 1.05693 38.7227 1.0786 38.6442C1.12194 38.5265 1.14362 38.4088 1.18696 38.2518C1.31699 37.7416 1.44701 37.7024 1.64205 37.8201C1.8371 37.9379 2.03214 37.9379 2.20551 37.7809C2.3572 37.6632 2.5089 37.5847 2.63893 37.4277C2.85564 37.1922 3.07236 37.153 3.31074 37.153C4.13425 37.1923 4.95775 37.1923 5.75959 37.153C5.99797 37.153 6.06299 36.9568 5.9763 36.6429C5.86794 36.2112 5.91129 35.8188 5.99797 35.4263C6.04131 35.2301 5.99797 35.0339 5.91129 34.8769C5.78126 34.6022 5.62956 34.406 5.52121 34.0921C5.45619 33.8959 5.45619 33.6604 5.52121 33.5034C5.60789 33.268 5.73792 33.111 5.84627 32.9148C6.06299 32.5616 6.14967 32.0907 6.17134 31.5805C6.17134 31.3843 6.17134 31.1489 6.17134 30.9527C6.17134 30.5995 6.128 30.2463 5.99797 29.9716C5.93296 29.8146 5.84627 29.6184 5.78126 29.4614C5.71625 29.2652 5.69458 29.069 5.69458 28.8728C5.69458 28.4411 5.73792 28.0487 5.84627 27.6563C5.91129 27.4208 5.99797 27.1854 6.06299 26.9107C6.10633 26.7145 6.10633 26.5182 6.06299 26.2828C6.01964 26.1651 5.99797 26.0473 5.95463 25.8904C5.93296 25.7726 5.88962 25.6157 5.88962 25.4979C5.91129 25.027 5.86795 24.5169 6.01964 24.046C6.10633 23.732 6.14967 23.3788 6.128 23.0256C6.08466 22.3193 6.128 21.6129 6.21468 20.9065C6.25803 20.6318 6.25803 20.3571 6.21468 20.0824C6.14967 19.6115 6.06299 19.1406 5.95463 18.6697C5.93296 18.552 5.93296 18.395 5.9763 18.2773C6.08466 17.8064 6.14967 17.3355 6.14967 16.8253C6.14967 16.4721 6.23636 16.1582 6.34471 15.8442C6.45307 15.5695 6.51808 15.2163 6.53975 14.8632C6.56142 14.2353 6.60477 13.6074 6.60477 12.9795C6.60477 12.4694 6.64811 11.9984 6.77814 11.5668C6.79981 11.4883 6.79981 11.4491 6.82148 11.3706C6.86482 10.8997 6.84315 10.3895 6.97318 9.91859C6.95151 9.76162 6.95151 9.64389 6.92984 9.48692C6.92984 9.32995 6.88649 9.17298 6.92984 9.05525C7.05986 8.50585 7.08153 7.95645 7.05986 7.40706C7.03819 6.97539 7.08153 6.54372 7.18989 6.19053C7.2549 5.99432 7.27658 5.79811 7.27658 5.60189C7.29825 5.24871 7.29825 4.89552 7.34159 4.54234C7.36326 4.26764 7.47162 4.03219 7.60164 3.87521C7.88337 3.52203 8.14342 3.20809 8.46849 3.20809C8.59852 3.20809 8.6852 3.1296 8.79356 3.01188C8.94526 2.89415 9.09696 2.8549 9.24866 2.81566C9.53038 2.77642 9.79044 2.77642 10.0722 2.73718C10.2239 2.69793 10.3972 2.73718 10.5273 2.61945C10.9607 2.42324 11.3724 2.38399 11.8059 2.38399C12.9328 2.38399 14.0597 2.34475 15.2082 2.34475C16.2268 2.34475 17.2453 2.34475 18.2422 2.34475C18.5673 2.34475 18.8707 2.30551 19.1524 2.10929C19.3041 2.03081 19.4775 2.03081 19.6292 2.10929C19.6942 2.14854 19.7809 2.18778 19.8459 2.22702C20.0409 2.30551 20.236 2.30551 20.431 2.18778C20.5827 2.10929 20.7344 2.03081 20.8861 2.03081C21.8613 2.03081 22.8365 1.91308 23.8117 1.95232C24.5052 1.99157 25.2204 1.91308 25.9138 1.91308C26.1522 1.91308 26.3689 1.8346 26.6073 1.71687C26.7157 1.63838 26.8457 1.59914 26.9541 1.59914C27.6909 1.5599 28.4277 1.52065 29.1645 1.48141C29.3162 1.48141 29.4679 1.40293 29.6196 1.32444C29.728 1.24596 29.8363 1.24595 29.9664 1.2852C30.1614 1.40293 30.3564 1.44217 30.5298 1.2852C30.7899 1.08898 31.0716 1.08898 31.3316 1.04974C31.635 1.0105 31.9601 1.04974 32.2635 1.04974C32.5669 1.04974 32.892 0.971256 33.1954 0.814286C33.4988 0.657315 33.8238 0.657315 34.1272 0.814286C34.4956 1.0105 34.8857 1.04974 35.2541 1.32444C35.3625 1.40293 35.4925 1.36368 35.6009 1.2852C35.7742 1.12823 35.9693 1.04974 36.1643 1.04974C36.4461 1.0105 36.7061 1.0105 36.9662 0.814286C37.0745 0.7358 37.1829 0.7358 37.3129 0.696558C37.4863 0.657315 39.8268 0.696558 40.0001 0.7358C40.1085 0.775043 40.2385 0.814286 40.3469 0.892771C40.4336 0.932014 40.4986 0.932014 40.5853 0.892771C40.6503 0.853528 40.737 0.814286 40.802 0.775043C41.0404 0.696558 41.2571 0.696558 41.4955 0.853528C41.5821 0.892771 41.6471 0.892771 41.7122 0.853528C42.1239 0.578829 42.5573 0.618072 42.9691 0.932014C43.0775 1.0105 43.1858 1.0105 43.3158 0.932014C43.4242 0.892771 43.5325 0.853528 43.6626 0.932014C43.8576 1.04974 44.0527 1.04974 44.2477 0.932014C44.5944 0.7358 44.9412 0.657315 45.2879 0.657315C45.7864 0.657315 46.3065 0.618072 46.8049 0.618072C47.0433 0.618072 47.26 0.500344 47.4984 0.343373C47.6501 0.225645 47.8018 0.225645 47.9535 0.343373C48.0185 0.382616 48.1052 0.421859 48.1702 0.461101C48.2785 0.500344 48.4086 0.539587 48.5169 0.421859C48.8203 0.14716 49.1237 0.14716 49.4271 0.264888C49.6655 0.343373 49.8822 0.500344 50.1206 0.343373C50.1856 0.304131 50.2723 0.343373 50.3373 0.382616C50.5324 0.500344 50.7057 0.461101 50.9008 0.421859C51.3559 0.264888 51.811 0.14716 52.2877 0.225645C52.4394 0.264888 52.5911 0.304131 52.7645 0.264888C53.5013 0.107917 54.2381 0.225645 54.975 0.186403C55.4734 0.304131 55.9935 0.264888 56.492 0.225645C56.7737 0.186403 57.0337 0.264888 57.2938 0.500344C57.3588 0.539587 57.4455 0.57883 57.5105 0.500344C57.7705 0.304131 58.0306 0.225645 58.3123 0.225645C58.7458 0.225645 59.1792 0.186403 59.5909 0.186403C60.0894 0.14716 60.6095 0.225645 61.1079 0.343373C61.2163 0.382616 61.3246 0.461101 61.4547 0.500344C61.563 0.57883 61.693 0.57883 61.8014 0.500344C62.0181 0.382616 62.2565 0.304131 62.4949 0.264888C63.08 0.186403 63.6651 0.304131 64.2503 0.304131C64.3586 0.304131 64.4886 0.343373 64.597 0.421859C64.9004 0.618072 65.1821 0.696558 65.5072 0.421859C65.7672 0.225645 66.049 0.225645 66.309 0.382616C66.374 0.421859 66.4607 0.500344 66.5257 0.539587C66.5907 0.57883 66.6774 0.618072 66.7641 0.618072C66.8725 0.618072 67.0025 0.657315 67.1109 0.578829C67.3709 0.382616 67.631 0.304131 67.9127 0.304131C68.1944 0.343373 68.4545 0.264888 68.7362 0.225645C69.3647 0.186403 69.9931 0.14716 70.5999 0.264888C70.7516 0.304131 70.9033 0.343373 71.055 0.421859C71.1417 0.461101 71.2067 0.461101 71.2717 0.382616C71.5751 0.14716 71.8785 0.225645 72.1819 0.029432C72.2686 -0.00981067 72.3336 -0.00981067 72.4203 0.029432C72.9187 0.225645 73.4172 0.264888 73.9373 0.186403C74.6308 0.0686747 75.3459 0.186403 76.0394 0.186403C76.2344 0.186403 76.4295 0.264888 76.6029 0.382616C76.7112 0.461101 76.8196 0.421859 76.9496 0.382616C77.058 0.343373 77.188 0.264888 77.2963 0.264888C77.8815 0.304131 78.4666 0.225645 79.0517 0.225645C79.2034 0.225645 79.3768 0.186403 79.5285 0.225645C79.8319 0.304131 80.1569 0.225645 80.4603 0.264888C80.547 0.264888 80.612 0.343373 80.677 0.382616C80.7421 0.421859 80.8287 0.421859 80.8938 0.343373C81.0671 0.186403 81.2622 0.107917 81.4572 0.14716C83.1259 0.225645 84.8163 0.14716 86.4849 0.264888C86.8317 0.304131 87.1784 0.264888 87.5468 0.264888C87.7419 0.264888 87.9369 0.304131 88.132 0.421859C88.2403 0.500344 88.3703 0.421859 88.4787 0.382616C88.5654 0.382616 88.6304 0.343373 88.7171 0.382616C89.0205 0.57883 89.3239 0.578829 89.6489 0.578829C90.4291 0.578829 91.2093 0.578829 91.9894 0.618072C92.2495 0.618072 92.5312 0.618072 92.7913 0.853528C92.8563 0.932014 92.943 0.971256 93.008 0.892771C93.268 0.696557 93.5281 0.657315 93.8098 0.696558C94.0915 0.7358 94.3516 0.696558 94.6333 0.696558C94.8284 0.696558 95.0234 0.7358 95.1968 0.853528C95.2618 0.892771 95.3485 0.932014 95.4135 0.971256C95.6519 1.04974 95.8903 1.04974 96.107 0.853528C96.2587 0.7358 96.4104 0.696558 96.5621 0.814286C96.7138 0.932014 96.8438 1.0105 97.0172 1.0105C97.4506 1.0105 97.884 1.0105 98.2958 1.04974C98.5775 1.04974 98.8375 1.04974 99.0976 1.24596C99.2276 1.32444 99.3143 1.16747 99.3793 1.0105C99.4227 0.892771 99.5093 0.853528 99.5744 0.892771C99.7694 1.0105 99.9644 1.04974 100.159 1.04974C100.94 1.04974 101.72 1.08898 102.5 1.08898C102.803 1.08898 103.128 1.12823 103.432 1.32444C103.692 1.48141 103.974 1.40293 104.234 1.48141C104.429 1.52065 104.624 1.5599 104.819 1.59914C105.144 1.95232 105.491 1.91308 105.837 1.91308C106.162 1.91308 106.466 1.95232 106.748 2.22702C106.813 2.30551 106.899 2.30551 106.964 2.30551C107.051 2.30551 107.116 2.30551 107.203 2.30551C108.069 2.22702 108.915 2.34475 109.782 2.38399C110.063 2.38399 110.323 2.54096 110.54 2.8549C110.67 3.05112 110.822 3.01188 110.973 2.89415C111.125 2.77642 111.277 2.81566 111.429 2.93339C111.645 3.1296 111.862 3.20809 112.1 3.20809C112.295 3.20809 112.49 3.20809 112.685 3.20809C112.837 3.20809 112.989 3.28657 113.141 3.36506C113.249 3.44354 113.379 3.36506 113.487 3.36506C113.574 3.36506 113.639 3.32582 113.726 3.36506C114.029 3.56127 114.332 3.56127 114.658 3.56127C115.438 3.60052 116.218 3.60052 116.998 3.63976C117.063 3.63976 117.15 3.71824 117.215 3.75749C117.301 3.79673 117.345 3.91446 117.323 4.11067C117.301 4.2284 117.258 4.38537 117.171 4.38537C116.868 4.46385 116.565 4.54234 116.261 4.73855C116.196 4.7778 116.11 4.73855 116.023 4.69931C115.806 4.54234 115.568 4.46385 115.329 4.62083C115.113 4.7778 114.874 4.85628 114.636 4.89552C114.549 4.93477 114.484 4.97401 114.484 5.09174C114.484 5.09174 114.549 5.17022 114.593 5.17022C115.178 5.20947 115.763 5.24871 116.348 5.24871C116.738 5.24871 117.128 5.28795 117.518 5.28795C117.822 5.28795 118.147 5.32719 118.428 5.56265C118.493 5.60189 118.58 5.60189 118.667 5.56265C119.165 5.20947 119.664 5.32719 120.162 5.40568C120.227 5.40568 120.314 5.48416 120.379 5.52341C120.53 5.64114 120.682 5.68038 120.834 5.68038C121.072 5.71962 121.311 5.71962 121.527 5.75886C121.571 5.75886 121.614 5.79811 121.636 5.83735C121.657 5.95508 121.592 6.03356 121.527 6.11205C121.202 6.46523 120.877 6.54372 120.509 6.38675C120.357 6.30826 120.205 6.30826 120.054 6.38675C119.707 6.58296 119.36 6.54372 119.013 6.3475C118.927 6.30826 118.862 6.26902 118.797 6.30826C118.385 6.58296 117.952 6.42599 117.518 6.42599C117.41 6.42599 117.28 6.38675 117.171 6.30826C116.976 6.19053 116.803 6.22977 116.608 6.30826C116.001 6.6222 115.373 6.66144 114.766 6.26902C114.484 6.0728 114.246 6.26902 114.029 6.58296C114.007 6.6222 114.007 6.73993 114.029 6.73993C114.094 6.77917 114.181 6.81841 114.246 6.85766C114.484 6.8969 114.723 6.93614 114.939 6.8969C115.611 6.77917 116.261 6.8969 116.933 6.93614C117.041 6.93614 117.171 6.97539 117.28 7.05387C117.431 7.1716 117.583 7.13236 117.735 7.05387C117.843 7.01463 117.973 7.05387 118.082 7.13236C118.233 7.25008 118.385 7.25008 118.537 7.13236C118.84 6.93614 119.143 6.93614 119.447 7.13236C119.772 7.36781 120.119 7.40706 120.487 7.36781C120.769 7.32857 121.029 7.4463 121.267 7.68175C121.462 7.87797 121.636 7.79948 121.831 7.60327C121.874 7.56403 121.896 7.52478 121.939 7.52478C122.026 7.4463 122.156 7.48554 122.242 7.721C122.372 8.03494 122.524 8.15267 122.741 8.15267C122.828 8.15267 122.893 8.15267 122.979 8.19191C123.066 8.23115 123.109 8.34888 123.109 8.46661C123.109 8.50585 123.066 8.58434 123.023 8.58434C122.784 8.62358 122.568 8.66282 122.329 8.74131C122.242 8.78055 122.199 8.85903 122.156 8.97676C122.091 9.13373 122.199 9.36919 122.329 9.44767C122.372 9.44767 122.416 9.48692 122.438 9.48692C122.546 9.44767 122.654 9.36919 122.763 9.2907C122.914 9.17298 123.066 9.13373 123.218 9.2907C123.283 9.36919 123.348 9.40843 123.434 9.48692C123.499 9.5654 123.564 9.64389 123.564 9.80086C123.564 9.8401 123.499 9.87934 123.456 9.87934C123.348 9.91859 123.218 9.91859 123.109 9.91859C122.242 9.87934 121.397 9.95783 120.53 9.99707C120.357 9.99707 120.227 10.1148 120.119 10.311C119.88 10.7427 119.577 10.8212 119.252 10.8212C118.472 10.8212 117.692 10.8212 116.911 10.8604C116.803 10.8604 116.695 10.9781 116.608 11.1744C116.586 11.2136 116.565 11.2921 116.586 11.3706C116.586 11.4098 116.63 11.4883 116.651 11.4883C116.716 11.5275 116.803 11.5668 116.868 11.606C117.323 11.7237 117.8 11.6845 118.277 11.6845C118.862 11.6845 119.447 11.6845 120.032 11.6845C120.27 11.6845 120.487 11.7238 120.725 11.8415C120.877 11.92 121.029 11.92 121.181 11.9592C121.657 11.9984 122.112 11.9592 122.568 11.7238C122.719 11.6453 122.871 11.6845 123.023 11.763C123.109 11.8022 123.153 11.92 123.153 12.0769C123.153 12.1554 123.131 12.1947 123.131 12.2731C123.109 12.3516 123.088 12.3909 123.066 12.4301C122.871 12.6263 122.676 12.8618 122.438 12.9403C122.329 12.9795 122.199 13.058 122.112 13.1365C121.896 13.3719 121.679 13.4112 121.441 13.4112C121.332 13.4112 121.289 13.4897 121.332 13.6074C121.354 13.6466 121.376 13.7251 121.419 13.7251C121.636 13.9213 121.831 14.1176 122.091 14.0783C122.286 14.0783 122.481 14.1176 122.676 14.1568C122.741 14.1568 122.849 14.196 122.893 14.2745C122.936 14.353 122.914 14.5492 122.914 14.667C122.914 14.8239 122.958 14.9024 123.044 14.9417C123.153 14.9809 123.283 15.0201 123.391 15.0986C123.456 15.1379 123.521 15.2163 123.586 15.3341C123.694 15.491 123.738 15.7265 123.694 15.8835C123.564 16.3936 123.434 16.9038 123.304 17.4139C123.239 17.6886 123.131 17.8456 122.979 18.0026C122.871 18.0811 122.784 18.1988 122.698 18.3558C122.654 18.4342 122.633 18.5912 122.611 18.7089C122.589 18.8267 122.741 19.1406 122.828 19.1406C122.871 19.1406 122.914 19.1799 122.936 19.1799C123.131 19.1799 123.326 19.2191 123.521 19.2191C123.716 19.2191 123.911 19.2583 124.106 19.2583C124.215 19.2583 124.258 19.3368 124.236 19.4546C124.236 19.533 124.193 19.5723 124.171 19.6115C123.933 19.847 123.673 20.0432 123.391 20.0432C123.304 20.0432 123.239 20.0432 123.153 20.0824C122.914 20.1217 122.828 20.3179 122.806 20.7496C122.806 20.9065 122.914 21.1812 123.001 21.1812C123.391 21.2597 123.781 21.299 124.171 21.3774C124.28 21.4167 124.388 21.5344 124.475 21.6521C124.561 21.7699 124.583 22.0838 124.496 22.2015C124.301 22.437 124.106 22.6725 123.911 22.8687C123.803 22.9864 123.694 23.0649 123.586 23.0649C123.239 23.1041 122.893 23.1041 122.546 23.3003C122.264 23.3396 122.004 23.3396 121.722 23.3788C121.289 23.4181 120.856 23.4573 120.444 23.4966C120.4 23.4966 120.379 23.5358 120.335 23.575C120.357 23.6143 120.357 23.6928 120.379 23.6928C120.595 23.8497 120.812 23.9675 120.964 24.3599C121.094 24.6738 121.311 24.6738 121.506 24.7131C121.592 24.7131 121.657 24.7916 121.701 24.9093C121.701 24.9093 121.657 25.027 121.614 25.027C121.419 25.1055 121.224 25.184 121.051 25.341C120.877 25.5372 120.66 25.4587 120.487 25.5372C120.444 25.5372 120.4 25.5764 120.379 25.6157C120.335 25.6941 120.357 25.8119 120.422 25.9296C120.552 26.0866 120.682 26.2435 120.79 26.4398C120.942 26.6752 121.137 26.7929 121.332 26.7929C121.614 26.7929 121.874 26.8322 122.156 26.8322C122.264 26.8322 122.394 26.8322 122.503 26.9107C122.958 27.1854 123.434 27.1461 123.889 27.2639C123.976 27.3031 124.041 27.3816 124.02 27.4993C124.02 27.5778 123.998 27.617 123.976 27.6955C123.911 27.8917 123.803 28.0095 123.694 28.0487C123.499 28.0879 123.304 28.1272 123.109 28.1664C122.958 28.2057 122.784 28.1664 122.654 28.2449C122.307 28.4804 121.961 28.4411 121.614 28.4804C121.311 28.5196 120.986 28.5196 120.682 28.5589C120.639 28.5589 120.617 28.6373 120.595 28.6766C120.617 28.7158 120.617 28.7943 120.66 28.7943C120.725 28.8336 120.812 28.8728 120.877 28.912C121.267 28.9905 121.657 28.9513 122.047 28.9513C122.286 28.9513 122.524 28.9513 122.741 28.9905C122.784 28.9905 122.828 29.0298 122.828 29.1083C122.849 29.1867 122.806 29.3045 122.719 29.3045C122.524 29.3437 122.329 29.3437 122.134 29.3437C121.982 29.3437 121.831 29.383 121.679 29.5007C121.506 29.6577 121.311 29.6969 121.116 29.7361C120.769 29.7754 120.422 29.7754 120.054 29.8146C119.945 29.8146 119.815 29.8146 119.707 29.8539C119.49 29.9324 119.274 30.1678 119.035 30.1678C118.797 30.1678 118.558 30.1678 118.342 30.2855C118.298 30.2855 118.277 30.364 118.255 30.4033C118.277 30.4425 118.32 30.4818 118.363 30.521C118.515 30.5995 118.667 30.5995 118.818 30.5995C119.274 30.5995 119.75 30.5602 120.205 30.7172C120.249 30.7172 120.27 30.7957 120.292 30.8349C120.27 30.8742 120.227 30.9527 120.205 30.9527C120.097 30.9919 119.967 31.0312 119.859 31.0312C119.425 31.0704 119.013 31.0311 118.58 31.1489C118.558 31.1489 118.515 31.2274 118.493 31.2666C118.515 31.3058 118.537 31.3843 118.58 31.4236C118.797 31.5413 119.035 31.5021 119.252 31.6983C119.317 31.7768 119.404 31.7768 119.469 31.6983C119.642 31.5805 119.837 31.5021 120.032 31.5021C120.27 31.5021 120.509 31.4628 120.725 31.4628C120.964 31.4628 121.181 31.5413 121.397 31.7768C121.462 31.8552 121.527 31.8945 121.614 31.9337C121.809 32.0122 121.982 32.0907 122.156 32.2869C122.546 32.6401 122.958 32.8363 123.391 32.8756C123.499 32.8756 123.543 32.9933 123.499 33.0718C123.478 33.111 123.434 33.1503 123.391 33.1503C122.763 33.1895 122.134 33.268 121.527 33.3072C121.246 33.3072 120.986 33.3465 120.725 33.5034C120.617 33.5819 120.487 33.5819 120.379 33.5427C120.184 33.4642 120.01 33.4642 119.815 33.5427C119.62 33.6212 119.425 33.6212 119.23 33.6604C118.883 33.6997 118.537 33.6997 118.168 33.7389C118.017 33.7389 117.843 33.7389 117.713 33.8566C117.345 34.1313 116.955 34.1313 116.565 34.2098C116.326 34.249 116.11 34.406 115.936 34.6415C115.914 34.6807 115.914 34.7592 115.914 34.7984C115.936 34.8377 115.979 34.8769 116.023 34.8769C116.608 34.8769 117.193 34.8769 117.778 34.8769C117.93 34.8769 118.103 34.8769 118.233 34.7984C118.493 34.6415 118.775 34.6415 119.035 34.6022C119.534 34.563 120.054 34.563 120.552 34.5237C120.942 34.5237 121.332 34.5237 121.701 34.7592C121.852 34.8769 122.004 34.8377 122.156 34.8377C122.438 34.8377 122.698 34.8377 122.958 34.9947C123.044 35.0339 123.088 35.1516 123.109 35.3086C123.131 35.4656 123.109 35.5833 123.001 35.6225C122.936 35.6618 122.849 35.701 122.784 35.7403C122.546 35.7795 122.329 35.8188 122.091 35.858C121.852 35.858 121.636 36.015 121.397 36.0935C121.332 36.1327 121.246 36.0935 121.159 36.0935C121.051 36.0542 120.942 36.015 120.812 36.0935C120.509 36.2897 120.205 36.2897 119.88 36.2897C119.599 36.2897 119.339 36.2897 119.057 36.2897C118.992 36.2897 118.905 36.3682 118.84 36.4074C118.775 36.4466 118.71 36.5644 118.645 36.6429C118.45 36.9176 118.233 37.0353 117.995 37.0353C117.366 37.0745 116.738 37.1138 116.131 37.153C116.023 37.153 115.893 37.1923 115.784 37.2707C115.524 37.467 115.264 37.5454 114.983 37.5454C114.744 37.5454 114.506 37.5454 114.289 37.5847C114.181 37.5847 114.051 37.6239 113.942 37.7024C113.682 37.8594 113.422 37.9771 113.162 38.1341C112.946 38.291 112.707 38.3303 112.469 38.3303C112.274 38.3303 112.079 38.448 111.905 38.605C111.797 38.6835 111.689 38.762 111.58 38.762C111.147 38.8012 110.713 38.8404 110.323 39.1151C110.085 39.1544 109.868 39.2329 109.63 39.2721C109.565 39.3114 109.478 39.3506 109.413 39.4291C109.348 39.5076 109.283 39.6253 109.283 39.743C109.283 39.8608 109.326 39.9785 109.413 39.9785C109.521 40.0177 109.651 40.0177 109.76 40.057C109.847 40.057 109.912 40.1355 109.912 40.2532C109.912 40.2924 109.847 40.3317 109.825 40.3709C109.717 40.4101 109.586 40.4102 109.478 40.4494C109.391 40.4494 109.305 40.5279 109.283 40.6456C109.261 40.7633 109.326 40.9203 109.391 40.9988C109.456 41.0773 109.521 41.1558 109.586 41.195C109.695 41.2342 109.825 41.2735 109.933 41.2735C110.41 41.3127 110.865 41.352 111.342 41.352C111.58 41.352 111.797 41.4305 112.035 41.5482C112.187 41.6267 112.339 41.6267 112.49 41.6267C113.357 41.6659 114.202 41.6659 115.069 41.6659C115.264 41.6659 115.459 41.6659 115.654 41.7052C115.763 41.7052 115.871 41.8229 115.979 41.9406C116.044 42.0191 116.11 42.0976 116.175 42.1368L116.153 42.0976C116.11 42.4115 115.958 42.49 115.849 42.6862C115.741 42.8432 115.741 43.0787 115.828 43.2356C115.871 43.3141 115.936 43.4318 116.001 43.5103C116.023 43.5496 116.023 43.6673 116.023 43.6673C115.828 43.9027 115.589 43.9027 115.373 44.0597C115.199 44.1774 114.983 44.1774 114.809 44.2559C114.766 44.2559 114.744 44.3344 114.723 44.3737C114.701 44.4521 114.744 44.5306 114.853 44.5699C114.939 44.6091 115.004 44.6091 115.091 44.6091C115.134 44.6091 115.178 44.6091 115.199 44.6091C115.633 44.6091 116.044 44.8838 116.456 45.08C116.5 45.08 116.521 45.1585 116.543 45.237C116.543 45.2762 116.521 45.3547 116.478 45.394C116.261 45.5902 116.044 45.6687 115.806 45.7864C115.654 45.8649 115.503 45.8649 115.351 45.8649C114.267 45.9041 113.162 45.9434 112.079 46.0219C111.992 46.0219 111.927 46.1003 111.927 46.1788C111.927 46.2181 111.992 46.2966 112.014 46.2966C112.122 46.3358 112.252 46.3358 112.36 46.3358C112.707 46.3358 113.054 46.375 113.422 46.375C113.682 46.375 113.877 46.5713 114.051 46.8852C114.072 46.9244 114.116 46.9637 114.137 47.0422C114.181 47.1599 114.224 47.2776 114.246 47.3953C114.267 47.4738 114.094 47.827 114.029 47.827C113.921 47.8663 113.812 47.9447 113.682 47.9447C112.815 47.984 111.97 48.0232 111.103 48.0232C109.782 48.0232 108.46 48.0232 107.116 48.0232C106.726 48.0232 106.336 48.0625 105.946 48.1017C105.902 48.1017 105.859 48.141 105.837 48.2194C105.816 48.2979 105.859 48.3764 105.967 48.3764C106.314 48.4157 106.661 48.5334 107.008 48.4941C107.159 48.4941 107.311 48.5334 107.463 48.6511C107.636 48.8081 107.831 48.8473 108.026 48.8473C108.568 48.8473 109.11 48.8866 109.673 48.8866C110.02 48.9258 110.367 48.8866 110.713 49.1613C110.822 49.2398 110.952 49.1613 111.06 49.0828C111.212 48.9651 111.364 48.9651 111.515 49.0828C111.667 49.2005 111.819 49.2398 111.97 49.2398C112.447 49.279 112.902 49.3182 113.379 49.3575C113.422 49.3575 113.466 49.436 113.466 49.4752C113.466 49.5537 113.422 49.6714 113.336 49.6714C112.794 49.7107 112.252 49.7107 111.689 49.7107C110.475 49.7107 109.261 49.6714 108.069 49.6714C107.679 49.6714 107.289 49.7107 106.899 49.7499C106.813 49.7499 106.748 49.8676 106.769 49.9854C106.769 50.0638 106.791 50.1031 106.813 50.1816C106.921 50.417 107.051 50.5348 107.224 50.4955C107.333 50.4563 107.463 50.417 107.571 50.3385C107.723 50.2208 107.874 50.2208 108.026 50.3385C108.221 50.4955 108.395 50.4563 108.59 50.2993C108.741 50.1816 108.915 50.1423 109.045 50.2601C109.413 50.574 109.803 50.574 110.193 50.6917C110.302 50.731 110.41 50.8487 110.475 51.0449C110.54 51.2019 110.518 51.3196 110.41 51.3589C110.302 51.4373 110.193 51.4373 110.063 51.4373C109.586 51.4373 109.131 51.4373 108.655 51.4373C108.546 51.4373 108.416 51.4766 108.308 51.4766C108.265 51.4766 108.243 51.5551 108.2 51.5943C108.221 51.6336 108.243 51.6728 108.265 51.712C108.416 51.8298 108.568 51.8298 108.72 51.8298C109.261 51.8298 109.803 51.7513 110.367 51.869C110.453 51.869 110.497 51.9867 110.518 52.1437C110.518 52.2614 110.518 52.4577 110.562 52.5361C110.605 52.6146 110.713 52.6539 110.778 52.6539C111.168 52.6931 111.559 52.6931 111.949 52.7323C112.1 52.7323 112.252 52.7716 112.404 52.8893C112.577 53.0463 112.772 53.0855 112.967 53.0855C113.401 53.0855 113.834 53.1248 114.246 53.1248C114.354 53.1248 114.484 53.1248 114.593 53.2033C115.113 53.6349 115.676 53.4387 116.196 53.5957C116.305 53.6349 116.348 53.7134 116.305 53.8704C116.283 53.9489 116.283 53.9881 116.24 54.0666C116.11 54.3413 115.893 54.3805 115.719 54.4983C115.611 54.5375 115.589 54.6552 115.633 54.8122C115.698 55.0477 115.611 55.2046 115.524 55.3224C115.503 55.3616 115.459 55.4009 115.459 55.4793C115.438 55.5971 115.503 55.6756 115.589 55.6756C115.698 55.7148 115.828 55.7148 115.936 55.754C115.979 55.754 116.001 55.7933 116.023 55.8718C116.066 55.9502 116.023 56.068 115.914 56.068C115.416 56.1857 114.896 56.1072 114.397 56.1465C114.202 56.1465 114.007 56.1857 113.834 56.3819C113.726 56.4996 113.596 56.4997 113.487 56.4212C113.292 56.3034 113.119 56.225 112.924 56.225C112.815 56.225 112.685 56.225 112.577 56.225C110.822 56.2642 109.066 56.2642 107.311 56.1857C107.116 56.1857 106.921 56.225 106.726 56.225C106.639 56.225 106.574 56.3034 106.553 56.3819C106.596 56.4212 106.618 56.4604 106.661 56.4604C106.769 56.4996 106.899 56.4996 107.008 56.4996C108.091 56.4996 109.196 56.4996 110.28 56.5389C110.475 56.5389 110.67 56.5389 110.865 56.5389C110.973 56.5389 111.103 56.5781 111.212 56.6566C111.385 56.8136 111.58 56.8528 111.775 56.8921C112.252 56.8921 112.707 56.9313 113.184 56.9313C113.487 56.9313 113.812 56.9706 114.116 56.9706C114.224 56.9706 114.354 57.0098 114.462 57.0883C114.679 57.2453 114.896 57.363 115.134 57.363C115.438 57.4022 115.763 57.4022 116.066 57.5984C116.218 57.6769 116.37 57.6769 116.521 57.7162C117.15 57.7554 117.778 57.7554 118.385 57.7947C118.493 57.7947 118.623 57.8339 118.732 57.8731C118.775 57.8731 118.818 57.9124 118.84 57.9516C118.862 58.0694 118.818 58.1478 118.732 58.1871C118.623 58.2263 118.493 58.2656 118.428 58.4618C118.407 58.5795 118.472 58.7365 118.537 58.815C118.558 58.8542 118.602 58.8935 118.623 58.9327C118.732 59.0504 118.84 59.0504 118.97 59.0504C119.36 59.0504 119.729 59.2466 120.119 59.4821C120.335 59.5998 120.335 59.6783 120.205 60.0707C120.075 60.4632 120.075 60.4632 120.227 60.7771C120.335 61.0126 120.335 61.091 120.162 61.1695C119.967 61.248 119.794 61.405 119.62 61.5227C119.469 61.6012 119.317 61.6404 119.165 61.7189C118.948 61.8367 118.862 62.2683 118.992 62.543C119.057 62.7 119.143 62.857 119.23 63.0139C119.317 63.1709 119.425 63.2494 119.534 63.2886C119.729 63.3279 119.924 63.3279 120.119 63.3671C120.205 63.3671 120.27 63.4456 120.27 63.5241C120.27 63.5633 120.227 63.6418 120.184 63.6418C120.119 63.6811 120.032 63.7203 119.967 63.7595C119.815 63.8773 119.75 64.1127 119.837 64.4267C119.902 64.7406 119.88 64.9761 119.772 65.2115C119.75 65.2508 119.729 65.3292 119.685 65.3685C119.36 65.8786 118.97 66.2318 118.558 66.4673C118.515 66.4673 118.472 66.5065 118.45 66.5065C118.168 66.3888 117.908 66.6635 117.648 66.742C117.626 66.742 117.583 66.8205 117.583 66.899C117.583 66.9382 117.605 67.0167 117.648 67.0167C117.757 67.1344 117.865 67.1344 117.995 67.1344C118.212 67.1737 118.342 67.4091 118.385 67.7623C118.45 68.1155 118.537 68.2332 118.71 68.2725C119.208 68.3117 119.729 68.3902 120.227 68.4294C120.249 68.4294 120.314 68.4687 120.314 68.5079C120.314 68.5864 120.314 68.6649 120.27 68.7041C120.205 68.7826 120.14 68.8611 120.14 69.0181C120.14 69.0573 120.205 69.0965 120.227 69.0965C120.292 69.1358 120.379 69.175 120.444 69.2143C120.552 69.2928 120.639 69.4105 120.682 69.6067C120.725 69.8029 120.769 69.9991 120.856 70.1561C120.942 70.2738 121.051 70.3916 121.181 70.3523C121.289 70.3131 121.397 70.2346 121.527 70.2346C121.614 70.2346 121.679 70.3131 121.722 70.4308C121.766 70.5485 121.766 70.7055 121.722 70.8232C121.592 71.0979 121.419 71.2941 121.224 71.3334C121.029 71.3726 120.834 71.3726 120.639 71.3726C120.552 71.3726 120.487 71.4119 120.4 71.4511C120.205 71.4903 120.075 71.8828 120.14 72.236C120.184 72.4322 120.227 72.6284 120.184 72.8246C120.119 73.0993 119.989 73.2563 119.837 73.374C119.512 73.6487 119.187 73.8842 118.84 73.9234C118.753 73.9234 118.71 74.0411 118.71 74.1981C118.732 74.3551 118.775 74.4336 118.84 74.512C118.883 74.5513 118.905 74.5905 118.948 74.5905C119.057 74.6298 119.187 74.669 119.295 74.669C119.967 74.669 120.617 74.7082 121.289 74.7082C121.376 74.7082 121.441 74.7083 121.527 74.7475C121.766 74.7475 121.939 75.0614 122.004 75.5323C122.026 75.6893 121.982 75.807 121.896 75.8463C121.831 75.8855 121.744 75.9248 121.679 75.9248C120.899 76.0033 120.119 76.0425 119.339 76.0033C119.057 76.0033 118.797 76.1602 118.58 76.4349C118.558 76.4742 118.537 76.5527 118.515 76.5919C118.515 76.6311 118.537 76.6704 118.58 76.7096C118.602 76.7489 118.645 76.7881 118.688 76.7881C118.883 76.8274 119.078 76.8274 119.274 76.8666C119.555 76.8666 119.815 76.9058 120.075 77.0628C120.27 77.1413 120.465 77.1805 120.66 77.2198C120.747 77.259 120.79 77.3768 120.79 77.4945C120.79 77.573 120.769 77.6515 120.747 77.6907C120.682 77.8477 120.595 78.0046 120.509 78.1616C120.4 78.3578 120.249 78.4755 120.097 78.4755C120.054 78.4755 120.01 78.4755 119.989 78.4755C119.642 78.4363 119.295 78.5148 118.97 78.7895C118.862 78.868 118.753 78.9072 118.623 78.9072C118.32 78.9465 117.995 78.9465 117.692 79.0249C117.496 79.0642 117.323 79.1819 117.15 79.4174C117.128 79.4566 117.085 79.5351 117.085 79.5743C117.085 79.6136 117.128 79.6921 117.171 79.6921C117.713 79.8098 118.233 80.163 118.775 80.2022C118.84 80.2022 118.948 80.2807 118.97 80.3984C119.1 80.7516 119.317 80.9478 119.534 81.1048C119.642 81.1833 119.729 81.3403 119.729 81.5757C119.75 81.7719 119.75 82.0074 119.772 82.2036C119.794 82.3606 119.924 82.596 120.01 82.596C120.357 82.6353 120.704 82.6745 121.051 82.753C121.137 82.753 121.224 82.8707 121.202 82.9492C121.159 83.0669 121.094 83.1062 121.007 83.1062C120.856 83.1062 120.704 83.1454 120.552 83.1847C120.487 83.2239 120.4 83.2632 120.335 83.3024C120.227 83.3809 120.14 83.5379 120.075 83.7341C120.14 83.9303 120.249 84.0088 120.314 84.1657C120.379 84.2835 120.379 84.4012 120.357 84.5189C120.314 84.6759 120.249 84.7544 120.162 84.7151C120.01 84.6366 119.88 84.5582 119.707 84.6366C119.599 84.6759 119.469 84.5974 119.36 84.6366C119.252 84.6759 119.143 84.7936 119.035 84.8721C118.97 84.9114 118.883 84.9113 118.818 84.9506C118.797 84.9898 118.775 85.0291 118.732 85.1076C118.775 85.1468 118.797 85.186 118.84 85.186C119.078 85.2253 119.317 85.2253 119.534 85.2253C120.162 85.186 120.79 85.2645 121.397 85.3823C121.506 85.4215 121.614 85.5392 121.701 85.6962C121.766 85.8532 121.744 85.9709 121.657 86.0494C121.592 86.0886 121.506 86.1671 121.441 86.1671C121.202 86.2064 120.964 86.2064 120.747 86.2456C120.66 86.2456 120.595 86.3633 120.595 86.4811C120.595 86.638 120.639 86.7558 120.704 86.8342C120.877 87.0305 121.072 87.0305 121.267 87.0697C121.419 87.1089 121.571 87.2267 121.679 87.4229C121.701 87.4621 121.744 87.5406 121.744 87.6191C121.744 87.6583 121.722 87.7368 121.701 87.7761C121.636 87.8938 121.484 87.9723 121.506 88.2077C121.527 88.4039 121.636 88.5609 121.701 88.7179C121.744 88.8749 121.722 88.9926 121.636 89.0318C121.571 89.0711 121.484 89.1103 121.419 89.1103C121.029 89.1103 120.639 89.1103 120.249 89.1496C120.162 89.1496 120.097 89.1888 120.01 89.1888C119.902 89.1888 119.772 89.5027 119.815 89.6205C119.859 89.7382 119.924 89.8559 119.989 89.8952C120.184 89.9737 120.379 89.9737 120.574 90.0129C120.66 90.0129 120.725 90.0914 120.79 90.1699C120.834 90.2484 120.704 90.6408 120.639 90.68C120.574 90.7193 120.509 90.7978 120.422 90.837C120.227 90.9155 120.032 90.994 119.859 91.1117C119.664 91.2687 119.469 91.1902 119.295 91.0724C119.208 91.0332 119.143 90.994 119.078 91.0724C118.862 91.2294 118.623 91.3079 118.385 91.3079C118.233 91.3079 118.082 91.2687 117.908 91.3079C117.8 91.3079 117.67 91.3079 117.561 91.3864C117.236 91.6611 116.89 91.6611 116.543 91.7003C115.849 91.7396 115.134 91.7788 114.441 91.7788C114.289 91.7788 114.116 91.7788 113.986 91.8965C113.726 92.0928 113.466 92.132 113.184 92.132C112.707 92.132 112.252 92.1712 111.775 92.2105C111.667 92.2105 111.537 92.2105 111.429 92.289C111.168 92.4459 110.908 92.5244 110.627 92.5244C109.89 92.5637 109.153 92.5637 108.395 92.6029C108.2 92.6029 108.004 92.6422 107.809 92.7599C107.614 92.8776 107.441 92.9561 107.246 92.9561C107.094 92.9561 106.943 92.9561 106.769 92.9561C106.531 92.9953 106.314 93.0738 106.119 93.3485C105.946 93.6232 105.729 93.7802 105.469 93.7802C104.602 93.7802 103.757 93.8194 102.89 93.8194C102.413 93.8194 101.958 93.8194 101.481 93.8194C101.2 93.8194 100.94 93.8979 100.68 94.0156C100.571 94.0941 100.441 94.0941 100.333 94.1334C99.7477 94.2511 99.1626 94.2119 98.5775 94.1726C98.4258 94.1726 98.2741 94.0549 98.1224 93.9764C97.8623 93.7802 97.6023 93.7409 97.3206 93.9372C97.1689 94.0549 97.0172 94.1334 96.8655 94.1334C96.5187 94.1334 96.172 94.2511 95.8252 94.2119C95.3918 94.1726 94.9584 94.2511 94.5466 94.2511C94.3516 94.2511 94.1566 94.2903 93.9615 94.2511C93.4631 94.1726 92.943 94.2903 92.4445 94.2511C91.9678 94.2119 91.5127 94.2119 91.0359 94.2119C90.6892 94.2119 90.3424 94.2119 89.974 94.2119C89.779 94.2119 89.5839 94.0941 89.4539 93.8194C89.4106 93.7017 89.3455 93.6232 89.2805 93.5447C89.2155 93.4663 89.1288 93.427 89.0638 93.4663C89.0205 93.4663 88.9771 93.4663 88.9555 93.5055C88.587 93.8979 88.2186 93.8587 87.8502 93.5055C87.7419 93.3878 87.6335 93.427 87.5252 93.5055C87.4601 93.5447 87.3951 93.6232 87.3084 93.7017C87.0917 93.8587 86.8534 93.8587 86.6366 93.7017C86.4199 93.5055 86.2032 93.3485 85.9648 93.3878C85.8131 93.3878 85.6614 93.27 85.5097 93.1916C85.4014 93.1131 85.2713 93.1131 85.163 93.1916C84.9463 93.3878 84.7079 93.427 84.4695 93.427C84.0794 93.4662 83.6893 93.3878 83.2993 93.4663C83.1692 93.5055 83.0826 93.584 83.1042 93.8587C83.1042 94.0156 83.0826 94.1334 82.9959 94.1726C82.9525 94.1726 82.9309 94.2119 82.8875 94.2119C82.8008 94.2119 82.7141 94.2119 82.6708 94.1334C82.4541 93.8979 82.2374 93.8587 81.999 93.8194C81.8906 93.8194 81.7606 93.8587 81.6523 93.9372C81.4789 94.1334 81.3055 94.2511 81.1105 94.2511C80.8287 94.2511 80.5687 94.3296 80.3086 94.4866C80.2003 94.565 80.0703 94.565 79.9619 94.565C79.6585 94.6043 79.3334 94.565 79.03 94.6043C78.77 94.6435 78.5749 94.4473 78.4016 94.1334C78.3149 93.9764 78.2065 93.8979 78.0765 93.9764C78.0115 94.0157 77.9248 94.0941 77.8598 94.1334C77.6431 94.2511 77.4047 94.3296 77.188 94.5258C77.0363 94.6435 76.8846 94.6435 76.7329 94.6435C76.4945 94.6043 76.2561 94.6043 76.0394 94.4473C75.6276 94.1334 75.1942 94.2119 74.7608 94.2511C74.5441 94.4866 74.3057 94.4081 74.089 94.2904C73.4605 94.2511 72.8321 94.1726 72.2253 94.2511C72.0736 94.2903 71.9219 94.2903 71.7702 94.4081C71.3801 94.6828 71.0117 94.6435 70.6216 94.4081C70.4266 94.2903 70.2532 94.3296 70.0581 94.4866C69.8198 94.6828 69.603 94.6435 69.4297 94.2511C69.3863 94.1334 69.3213 94.0549 69.2563 93.9764C68.9312 94.2119 68.5628 94.0941 68.2378 94.4081C68.0644 94.565 67.8694 94.6435 67.6743 94.6435C67.5226 94.6435 67.3709 94.6435 67.1975 94.6828C67.0458 94.6828 66.8941 94.7613 66.7424 94.879C66.5907 94.9967 66.439 95.036 66.2873 95.036C65.9839 95.036 65.6589 95.036 65.3555 95.036C64.7704 95.036 64.1852 95.036 63.6001 95.0752C63.2967 95.0752 62.9717 95.1144 62.6683 95.036C62.4732 94.9967 62.2782 95.0752 62.1048 95.2714C61.8014 95.5854 61.4763 95.8601 61.1729 96.1348C61.0646 96.2132 60.9562 96.2917 60.8479 96.331C60.2194 96.3702 59.5909 96.4487 58.9841 96.4095C58.7891 96.4095 58.5941 96.331 58.4207 96.174C58.269 96.0563 58.1173 95.9778 57.9656 95.9778C57.4888 95.9778 57.0337 95.9778 56.557 95.9385C56.2752 95.9385 56.0152 95.9778 55.7551 96.1348C55.6468 96.2132 55.5384 96.2525 55.4084 96.2525C55.1267 96.2917 54.8666 96.331 54.5849 96.2917C53.718 96.2525 52.8728 96.2917 52.006 96.331C51.4642 96.331 50.9224 96.2917 50.359 96.2525C50.2506 96.2525 50.1206 96.331 50.0556 96.4879C49.9689 96.6449 49.9039 96.8019 49.8172 96.9588C49.7305 97.1158 49.6005 97.1551 49.4921 97.1158C49.4271 97.0766 49.3404 97.0766 49.2754 96.9981C49.1887 96.9196 49.1237 96.8804 49.0587 96.9588C48.6903 97.2335 48.3002 97.1551 47.9101 97.1551C47.7151 97.1551 47.5201 97.2335 47.3467 97.3905C47.2383 97.5082 47.13 97.5082 47.0216 97.3905C46.9566 97.3513 46.8916 97.2728 46.8049 97.1943C46.6532 97.0766 46.5015 97.0766 46.3498 97.1158C46.0464 97.1943 45.7647 97.469 45.4613 97.626C45.1579 97.8222 44.8545 97.9007 44.5511 97.9007C43.8793 97.9007 43.2292 97.9007 42.5573 97.9007C42.0806 97.9007 41.6255 97.9399 41.1487 98.0184C41.0404 98.0184 40.9103 98.0969 40.802 98.1754C40.6503 98.2539 40.4986 98.2146 40.3469 98.1754C40.2602 98.1361 40.1952 98.1361 40.1085 98.1754C39.9135 98.2931 39.7401 98.3323 39.5234 98.3323C38.1581 98.3716 36.7928 98.3716 35.4275 98.4108C34.6907 98.4108 33.9539 98.4108 33.1954 98.4108C32.957 98.4108 32.7403 98.4893 32.5019 98.607C32.2852 98.764 32.0468 98.7248 31.8084 98.607C31.7434 98.5678 31.6567 98.5286 31.5917 98.5286C31.44 98.5286 31.2883 98.6855 31.1366 98.607C30.9849 98.5678 30.8332 98.4108 30.6815 98.4108C30.5732 98.4108 30.4431 98.4108 30.3348 98.4893C30.1397 98.6463 29.9664 98.6463 29.7713 98.4893C29.663 98.4108 29.5546 98.3716 29.4246 98.3716C28.9911 98.3716 28.5577 98.3716 28.146 98.3716C27.9943 98.3716 27.8426 98.4108 27.6909 98.5286C27.3875 98.7248 27.0841 98.7248 26.7807 98.4893C26.6723 98.4108 26.564 98.3716 26.4339 98.3716C25.6104 98.4108 24.7869 98.2931 23.9851 98.2931C23.6384 98.2931 23.2916 98.2931 22.9232 98.2931C22.7282 98.2931 22.5331 98.2539 22.3598 98.1361C22.1647 98.0184 21.9913 97.9792 21.7963 97.9399C21.5579 97.9007 21.3195 97.9007 21.1028 97.8614C20.9511 97.8614 20.7994 97.7829 20.6477 97.6652C20.3877 97.469 20.1059 97.4298 19.8459 97.626C19.5858 97.7829 19.3258 97.8614 19.0441 97.7045C18.9574 97.6652 18.8924 97.6652 18.8057 97.7045C18.6973 97.7437 18.5673 97.8222 18.4589 97.8222C18.1122 97.8222 17.7655 97.8222 17.397 97.8614C17.2453 97.8614 17.0936 97.8222 16.9419 97.7045C16.7469 97.5867 16.5519 97.626 16.3785 97.7437C16.2268 97.8614 16.0751 97.8614 15.9234 97.7829C15.6633 97.626 15.4033 97.5475 15.1216 97.5475C14.0597 97.5082 13.0195 97.469 11.9576 97.469C11.7192 97.469 11.5025 97.4298 11.2641 97.2728C11.1557 97.1943 11.0474 97.1943 10.9173 97.2336C10.8523 97.2728 10.7656 97.312 10.7006 97.312C10.0071 97.0373 9.31367 97.1158 8.59852 97.0766C8.29512 97.0373 7.99173 96.9589 7.68833 96.8411C7.38493 96.7234 7.08153 96.7234 6.75647 96.6449C6.62644 96.6057 6.53975 96.4879 6.45307 96.3702C6.4314 96.331 6.40973 96.2525 6.36638 96.2132C6.30137 96.0955 6.23636 96.0563 6.17134 96.0955C5.95463 96.2525 5.71625 96.331 5.47786 96.174C5.41285 96.1348 5.34784 96.017 5.30449 95.8993C5.23948 95.7423 5.32616 95.5069 5.47786 95.4284C5.52121 95.3891 5.54288 95.3891 5.58622 95.3891C5.62956 95.3891 5.6729 95.3499 5.69458 95.3499C5.69458 95.3891 5.71625 95.4676 5.71625 95.5069C5.73792 95.5461 5.75959 95.5461 5.78126 95.5461C5.78126 95.4676 5.73792 95.3891 5.6729 95.3499C5.58622 94.879 5.43452 94.4866 5.41285 93.9764C5.36951 93.427 5.34784 93.427 5.60789 93.2308C5.80293 93.0738 5.93296 92.8384 5.93296 92.4459C5.93296 92.3675 5.93296 92.289 5.93296 92.2497C5.93296 92.0928 5.93296 91.975 5.9763 91.8181C6.06299 91.4649 6.06299 91.1509 5.91129 90.8762C5.84627 90.7585 5.80293 90.6408 5.8246 90.4838C5.84627 90.3661 5.93296 90.2876 5.9763 90.1699C5.99797 90.1306 6.01964 90.0521 6.06299 90.0129C6.14967 89.8167 6.128 89.5812 5.99797 89.5027C5.88962 89.4243 5.78126 89.385 5.6729 89.2673C5.58622 89.1888 5.56455 89.0711 5.56455 88.9533C5.56455 88.7964 5.60789 88.6786 5.6729 88.6394C5.73792 88.5609 5.8246 88.5609 5.88962 88.5217C6.04131 88.4432 6.08466 88.247 5.99797 88.09C5.93296 87.933 5.84627 87.7761 5.78126 87.6191C5.6729 87.3836 5.73792 87.1089 5.91129 86.952C5.9763 86.9127 6.06299 86.8735 6.128 86.8735C6.21468 86.8342 6.2797 86.7558 6.2797 86.638C6.2797 86.4811 6.23636 86.3633 6.17134 86.2848C6.10633 86.2064 6.04131 86.1671 5.9763 86.0886C5.8246 85.9317 5.8246 85.8924 5.93296 85.657C6.06299 85.4215 6.06299 85.4215 5.91129 85.2253C5.73792 84.9506 5.69458 84.7936 5.78126 84.5189C5.86794 84.205 5.95463 83.891 6.04131 83.5771C6.10633 83.3416 6.10633 83.3024 5.99797 83.0277C5.95463 82.91 5.88962 82.8315 5.84627 82.7138C5.78126 82.5175 5.73792 82.3213 5.78126 82.1251C5.84627 81.7327 5.93296 81.3403 5.95463 80.9086C5.9763 80.5554 6.04131 80.2415 6.10633 79.8883C6.14967 79.6528 6.10633 79.4566 6.01964 79.2996C5.84627 78.9072 5.71625 78.4755 5.60789 78.0439C5.58622 77.9261 5.58622 77.7692 5.6729 77.6907C5.80293 77.5337 5.95463 77.416 6.04131 77.1805C6.08466 77.0628 6.10633 76.9058 6.10633 76.7881C6.10633 76.6704 6.08466 76.5134 6.04131 76.3957C5.93296 76.0033 6.01964 75.7286 6.19301 75.4931C6.30137 75.3361 6.30137 75.1399 6.19301 74.9437C6.08466 74.7475 5.9763 74.5513 5.86794 74.3551C5.80293 74.1981 5.71625 74.0019 5.75959 73.7664C5.91129 72.9423 5.95463 72.1182 5.91129 71.2549C5.95463 71.2549 5.9763 71.2549 5.99797 71.2157C6.01964 71.2157 6.01964 71.1372 6.01964 71.0979C5.9763 71.2941 5.93296 71.3334 5.93296 71.5296ZM114.332 55.7933C114.441 55.8325 114.549 55.8325 114.679 55.8325C114.723 55.8325 114.744 55.7933 114.788 55.754C114.809 55.7148 114.831 55.6756 114.853 55.6363C114.831 55.5971 114.788 55.5186 114.766 55.5186C114.462 55.4009 114.159 55.5186 113.877 55.5186C113.834 55.5186 113.791 55.5578 113.791 55.5971C113.769 55.6756 113.812 55.7933 113.899 55.7933C114.029 55.7933 114.181 55.7933 114.332 55.7933ZM120.032 9.5654C120.01 9.5654 120.054 9.5654 120.075 9.5654C120.162 9.52616 120.205 9.44767 120.184 9.36919C120.162 9.32995 120.119 9.2907 120.097 9.25146C119.945 9.21222 119.815 9.21222 119.664 9.2907C119.62 9.2907 119.599 9.36919 119.577 9.40843C119.62 9.52616 119.685 9.60465 119.75 9.60465C119.837 9.5654 119.924 9.5654 120.032 9.5654ZM59.1575 94.1334C59.0708 93.9764 58.9625 93.9764 58.8541 94.0156C58.8108 94.0156 58.7674 94.0549 58.7674 94.0941C58.7458 94.1726 58.7891 94.2511 58.8758 94.2904C59.0275 94.3296 59.1575 94.2511 59.1575 94.1334Z" fill="white"/>
<path d="M117.191 40.1699C116.837 40.1699 116.561 40.0518 116.64 39.9731C116.797 39.8157 117.033 39.8157 117.23 39.8157C117.387 39.8157 117.506 39.8157 117.624 39.855C117.663 39.855 117.742 39.9337 117.781 39.9731C117.742 40.0124 117.663 40.0911 117.624 40.0911C117.466 40.1699 117.309 40.1699 117.191 40.1699Z" fill="#FFB820"/>
<path d="M33.6055 96.091C33.6055 96.1304 33.6055 96.2092 33.5661 96.2092C33.369 96.3275 33.172 96.3275 32.9749 96.2486C32.9355 96.2092 32.8567 96.1698 32.8567 96.1304C32.8567 96.0122 33.1326 95.9334 33.4084 96.0122C33.4872 95.9728 33.5661 96.0516 33.6055 96.091Z" fill="#FFB820"/>
<path d="M122.425 47.6471L122.543 47.6077V47.7259L122.425 47.6471Z" fill="#FFB820"/>
<path d="M85.7746 47.5959C86.8175 46.3989 88 45.0409 88 43.3C88 41.5591 86.8175 40.2018 85.7753 39.0048C85.1492 38.2866 84.5026 37.5439 84.3446 36.9566C84.1733 36.3189 84.3629 35.3221 84.5463 34.3575C84.8368 32.8308 85.1668 31.1011 84.3185 29.6458C83.459 28.1716 81.7702 27.5885 80.2796 27.0733C79.3579 26.7555 78.4053 26.4258 77.9512 25.9764C77.4978 25.5256 77.1664 24.5799 76.8463 23.665C76.328 22.1852 75.7406 20.5087 74.2542 19.6547C72.7883 18.8126 71.0445 19.1402 69.508 19.4286C68.5363 19.6106 67.5315 19.7982 66.8899 19.6281C66.2983 19.4713 65.5508 18.8294 64.8274 18.2092C63.6216 17.1739 62.2537 16 60.5 16C58.7463 16 57.3791 17.1739 56.1733 18.2085C55.4499 18.8301 54.7017 19.472 54.1101 19.6288C53.4671 19.7961 52.4637 19.6113 51.492 19.4286C49.9548 19.1388 48.2117 18.8126 46.7458 19.6547C45.2608 20.508 44.6734 22.1845 44.1544 23.6643C43.8343 24.5792 43.5022 25.5249 43.0495 25.9757C42.5954 26.4258 41.6428 26.7548 40.7212 27.0726C39.2305 27.5871 37.5417 28.1702 36.6815 29.6458C35.8339 31.1004 36.1632 32.8315 36.4537 34.3575C36.6378 35.3221 36.8267 36.3189 36.6547 36.9566C36.4967 37.5439 35.8501 38.2859 35.2254 39.0041C34.1825 40.2011 33 41.5591 33 43.3C33 45.0409 34.1825 46.3982 35.2247 47.5952C35.8508 48.3134 36.4974 49.0561 36.6554 49.6434C36.8267 50.2811 36.6371 51.2779 36.4537 52.2425C36.1632 53.7692 35.8332 55.4989 36.6815 56.9542C37.541 58.4284 39.2298 59.0115 40.7204 59.5267C41.6421 59.8445 42.5947 60.1742 43.0488 60.6236C43.1038 60.6782 43.1567 60.7405 43.2081 60.8091L38.0015 77.1786C37.8668 77.6042 37.9429 78.0683 38.2088 78.4281C38.4746 78.7872 38.8963 79 39.3462 79H52.0385C52.6533 79 53.1984 78.6045 53.3831 78.0221L56.3884 68.5749C57.542 69.5605 58.8493 70.6 60.5 70.6C62.1514 70.6 63.458 69.5598 64.6116 68.5742L67.6169 78.0214C67.8016 78.6045 68.346 79 68.9615 79H81.6538C82.1037 79 82.5254 78.7872 82.7912 78.4281C83.057 78.0676 83.1332 77.6042 82.9985 77.1786L77.7919 60.8091C77.8433 60.7412 77.8962 60.6789 77.9505 60.6243C78.4046 60.1742 79.3572 59.8452 80.2788 59.5274C81.7695 59.0129 83.4583 58.4298 84.3185 56.9542C85.1661 55.4996 84.8368 53.7685 84.5463 52.2425C84.3622 51.2779 84.1733 50.2811 84.3453 49.6434C84.5026 49.0561 85.1492 48.3134 85.7746 47.5959ZM51.0047 76.2H41.2704L44.8969 64.7998C45.3172 65.6601 45.8756 66.4448 46.7458 66.9453C48.2117 67.7874 49.9555 67.4591 51.492 67.1714C52.3903 67.0027 53.3035 66.8417 53.9465 66.9516L51.0047 76.2ZM69.9953 76.2L67.0535 66.9509C67.6958 66.8424 68.609 67.002 69.508 67.1707C71.0452 67.4598 72.7883 67.7867 74.2542 66.9446C75.1251 66.4448 75.6828 65.6594 76.1031 64.7984L79.7296 76.2H69.9953ZM83.6409 45.7647C82.8067 46.7216 81.9451 47.7114 81.62 48.9203C81.2822 50.174 81.5326 51.49 81.7744 52.7619C81.9838 53.8609 82.2003 54.9977 81.8767 55.5521C81.5417 56.1261 80.429 56.5111 79.353 56.8821C78.131 57.3042 76.8674 57.7403 75.9571 58.6447C75.0461 59.5484 74.6068 60.8028 74.1816 62.0159C73.8072 63.0841 73.4201 64.1887 72.8419 64.5212C72.2834 64.8418 71.1383 64.6276 70.0326 64.4197C68.7493 64.1782 67.4244 63.9304 66.1622 64.265C64.9437 64.5884 63.9467 65.4445 62.9828 66.2726C62.107 67.0244 61.2037 67.8 60.5 67.8C59.7963 67.8 58.8923 67.0237 58.0172 66.2726C57.0533 65.4445 56.0563 64.5891 54.8385 64.2664C54.3978 64.1488 53.9494 64.1033 53.4988 64.1033C52.6569 64.1033 51.8037 64.2636 50.9688 64.4197C49.8603 64.6276 48.7159 64.8418 48.1581 64.5212C47.5799 64.1887 47.1921 63.0841 46.8184 62.0159C46.3932 60.8028 45.9539 59.5484 45.0429 58.6447C44.1326 57.7403 42.869 57.3042 41.647 56.8821C40.571 56.5104 39.4583 56.1261 39.1233 55.5521C38.7997 54.9977 39.0169 53.8616 39.2256 52.7633C39.4681 51.4907 39.7185 50.1747 39.3814 48.921C39.0556 47.7114 38.1933 46.7216 37.3591 45.7647C36.6018 44.8953 35.8205 43.9986 35.8205 43.3C35.8205 42.6014 36.6025 41.704 37.3591 40.8353C38.1933 39.8784 39.0549 38.8886 39.38 37.6797C39.7178 36.426 39.4674 35.11 39.2256 33.8381C39.0162 32.7391 38.7997 31.6023 39.1233 31.0479C39.4583 30.4739 40.571 30.0889 41.647 29.7179C42.869 29.2958 44.1326 28.8597 45.0429 27.9553C45.9539 27.0516 46.3932 25.7972 46.8184 24.5841C47.1928 23.5159 47.5799 22.4113 48.1581 22.0788C48.7152 21.7575 49.861 21.9724 50.9674 22.1803C52.25 22.4218 53.5756 22.6696 54.8378 22.335C56.0563 22.0116 57.0533 21.1555 58.0172 20.3274C58.893 19.5756 59.7963 18.8 60.5 18.8C61.2037 18.8 62.1077 19.5763 62.9828 20.3274C63.9467 21.1555 64.9437 22.0109 66.1615 22.3336C67.4251 22.6696 68.75 22.4211 70.0312 22.1803C71.1383 21.9717 72.2834 21.7575 72.8419 22.0788C73.4201 22.4113 73.8079 23.5159 74.1816 24.5841C74.6068 25.7972 75.0461 27.0516 75.9571 27.9553C76.8674 28.8597 78.131 29.2958 79.353 29.7179C80.429 30.0896 81.5417 30.4739 81.8767 31.0479C82.2003 31.6023 81.9831 32.7384 81.7744 33.8367C81.5319 35.1093 81.2815 36.4253 81.6186 37.679C81.9444 38.8886 82.8067 39.8784 83.6409 40.8353C84.3982 41.7047 85.1795 42.6014 85.1795 43.3C85.1795 43.9986 84.3975 44.896 83.6409 45.7647ZM60.5 25.8C50.7798 25.8 42.8718 33.6505 42.8718 43.3C42.8718 52.9495 50.7798 60.8 60.5 60.8C70.2202 60.8 78.1282 52.9495 78.1282 43.3C78.1282 33.6505 70.2202 25.8 60.5 25.8ZM60.5 58C52.3353 58 45.6923 51.4053 45.6923 43.3C45.6923 35.1947 52.3353 28.6 60.5 28.6C68.6647 28.6 75.3077 35.1947 75.3077 43.3C75.3077 51.4053 68.6647 58 60.5 58ZM69.1745 39.2323L64.0722 38.4595L61.777 33.605C61.5443 33.1136 61.0465 32.8 60.5 32.8C59.9535 32.8 59.4557 33.1136 59.223 33.605L56.9278 38.4595L51.8255 39.2323C51.303 39.3114 50.8694 39.6747 50.7008 40.1724C50.5323 40.6701 50.6592 41.2189 51.0287 41.5941L54.7215 45.3517L53.484 50.685C53.3606 51.2163 53.5587 51.7693 53.9917 52.1039C54.4246 52.4392 55.0134 52.4931 55.5021 52.2453L60.5 49.7029L65.4979 52.246C65.701 52.3496 65.921 52.4 66.141 52.4C66.4492 52.4 66.7552 52.2999 67.0076 52.1046C67.4399 51.7693 67.6387 51.2163 67.5153 50.6857L66.2778 45.3524L69.9706 41.5948C70.3394 41.2196 70.4663 40.6708 70.2985 40.1731C70.1306 39.6754 69.697 39.3121 69.1745 39.2323ZM63.721 43.944C63.3854 44.2849 63.2486 44.7721 63.3558 45.2362L64.0856 48.382L61.1424 46.884C60.9407 46.7818 60.7193 46.73 60.4993 46.73C60.2786 46.73 60.0579 46.7811 59.8562 46.884L56.913 48.382L57.6428 45.2362C57.75 44.7721 57.6132 44.2856 57.2776 43.944L54.9633 41.5899L58.0969 41.1146C58.5616 41.0432 58.9614 40.7478 59.161 40.325L60.5 37.4949L61.8376 40.325C62.0372 40.7478 62.437 41.0432 62.9017 41.1146L66.0353 41.5899L63.721 43.944Z" fill="#00659E"/>
</svg>
