<svg width="1160" height="202" viewBox="0 0 1160 202" fill="none" xmlns="http://www.w3.org/2000/svg">
<path d="M335.739 196.113C334.378 196.805 332.563 197.844 331.655 198.537C330.748 199.229 327.572 200.268 328.026 199.576C328.479 198.883 330.294 197.498 330.748 196.805C331.202 196.459 328.933 195.42 328.933 194.727C328.933 194.727 328.933 194.727 328.48 194.381C327.118 194.035 327.118 194.035 327.118 194.035C326.211 192.996 325.304 191.957 324.85 191.61C324.396 191.264 323.035 192.303 322.581 192.996C322.581 192.996 322.581 192.996 322.581 193.688C322.581 194.035 322.581 194.035 322.581 194.035C322.581 194.381 322.581 195.42 321.674 196.459C321.22 197.498 320.767 199.922 320.767 200.268C320.313 200.268 319.859 200.268 319.405 199.922C318.952 199.576 318.044 198.537 317.137 198.19C316.23 197.844 319.405 196.805 319.405 196.459C319.859 196.113 319.859 195.42 318.498 196.113C317.137 196.805 314.415 195.074 313.961 195.42C313.507 195.42 313.961 197.151 314.415 197.498C314.415 197.498 314.415 197.498 314.415 197.844C314.415 198.19 314.415 198.19 314.415 198.19C314.415 198.537 313.054 198.883 311.239 198.883C311.239 198.883 311.239 198.883 309.878 198.883C309.424 198.883 309.424 198.883 309.424 198.883C309.424 199.922 308.517 200.615 308.517 200.615C308.063 200.615 306.248 200.615 304.887 200.615C304.433 199.576 304.433 199.576 304.433 199.576C305.794 199.576 306.702 198.883 306.248 198.537C305.794 198.19 304.887 197.152 303.98 197.844C303.072 198.537 300.35 199.922 299.443 199.922C298.082 199.922 295.359 199.922 294.906 199.922C294.906 199.922 295.359 199.576 296.267 199.576C297.174 199.576 299.443 198.883 299.443 198.19C299.443 197.498 302.619 196.805 303.526 196.805C303.98 196.805 305.794 196.113 306.248 196.113C306.248 196.113 306.248 196.113 306.248 195.766C306.248 195.42 305.794 195.074 305.341 195.074C302.165 195.766 298.989 196.459 295.813 196.459C293.545 196.459 293.545 196.459 293.545 196.459C292.637 197.498 291.276 198.537 290.369 198.883C289.461 199.229 288.554 197.844 288.554 197.844C288.1 197.844 286.739 197.152 286.285 197.152C285.832 197.152 284.017 196.113 284.47 196.113C284.924 196.113 286.285 195.42 286.739 195.766C286.739 195.766 286.739 195.766 286.739 196.113C287.646 197.498 287.646 197.498 287.646 197.498C289.461 197.151 291.276 197.151 291.276 196.805C291.73 196.805 292.183 195.766 292.183 195.42C292.183 195.074 289.915 194.035 289.008 194.035C288.1 191.61 286.285 192.996 285.832 193.688C284.924 195.074 282.656 195.42 281.295 196.113C279.934 196.805 279.933 196.805 279.933 196.805C279.026 197.844 278.119 198.19 278.119 197.498C278.119 197.498 278.119 197.498 278.119 197.152C278.119 196.459 278.119 196.459 278.119 196.459C276.758 196.113 274.489 195.074 273.128 194.727C273.128 194.727 273.128 194.727 273.128 194.035C272.674 192.649 271.313 192.649 269.045 192.649C268.137 192.649 267.23 191.957 266.776 191.957C266.322 191.957 265.869 192.996 265.415 193.342C264.508 193.342 264.508 193.688 265.415 194.035C266.322 194.381 267.23 195.42 266.776 195.766C266.322 196.113 261.785 194.727 262.239 194.381C262.239 194.381 262.239 194.381 262.693 194.035C263.6 192.649 262.239 191.957 260.424 192.649C258.61 192.996 258.156 192.303 257.248 191.957C255.887 191.957 255.887 191.957 255.887 191.957C254.526 191.957 251.35 192.303 249.536 192.649C249.536 192.649 249.536 192.649 248.628 192.303C247.267 191.957 247.267 191.957 247.267 191.957C245.906 191.957 244.091 192.303 243.184 192.649C242.276 192.996 238.647 191.957 237.739 191.957C236.832 191.957 235.017 191.957 234.11 191.957C233.202 191.957 230.026 191.61 229.119 192.303C228.212 192.996 224.582 193.342 223.221 192.303C223.221 192.303 223.221 192.303 220.952 192.649C219.591 192.996 219.591 192.996 219.591 192.996C217.776 192.996 215.508 192.649 213.693 192.649C212.332 192.649 207.795 193.342 205.98 193.688C204.165 194.035 198.267 193.342 196.453 193.342C196.453 193.342 196.453 193.342 194.184 192.649C191.008 191.264 191.008 191.264 191.008 191.264C188.286 191.61 185.11 192.303 184.656 192.303C184.203 192.303 181.48 192.303 180.119 192.303C178.758 192.303 175.129 192.649 174.675 192.649C174.675 192.303 173.767 191.957 173.314 192.303C172.86 192.649 171.045 192.996 170.592 192.649C170.592 192.649 170.592 192.649 170.138 192.303C169.684 191.957 169.684 191.957 169.684 191.957C169.23 191.957 168.323 191.957 167.869 192.303C167.416 192.649 166.508 192.996 166.055 192.649C165.601 192.303 163.786 192.996 163.786 192.996C163.332 192.996 161.518 193.342 159.703 193.688C159.703 193.688 159.703 193.688 157.888 193.342C156.981 192.996 156.073 192.996 155.166 192.649C154.258 192.303 153.351 191.264 151.536 192.303C151.536 192.303 150.629 192.303 150.175 191.957C148.36 190.918 147.907 190.571 146.092 192.303C145.184 193.342 145.184 193.342 145.184 193.342C144.277 191.957 143.37 190.918 142.916 191.264C142.462 191.61 141.101 192.303 141.101 191.957C141.101 191.61 139.74 190.571 138.833 190.571C137.925 190.571 136.11 191.61 135.657 191.957C135.203 192.303 133.842 191.61 133.388 191.957C133.388 192.303 132.934 192.303 132.934 191.61C132.934 190.918 130.212 191.957 130.212 192.303C128.397 192.649 128.397 190.571 126.129 191.264C124.768 191.61 124.768 191.61 124.768 191.61C122.953 191.61 121.138 191.61 120.684 191.61C120.231 191.61 118.416 191.957 117.055 191.957C115.694 191.957 112.518 191.264 111.61 191.957C111.61 191.957 111.61 191.957 110.703 192.303C110.249 192.649 110.249 192.649 110.249 192.649C109.342 192.649 107.981 191.957 107.073 191.61C106.166 191.264 101.629 192.303 101.175 191.957C100.722 191.61 98.9068 190.918 98.4531 191.264C97.9994 191.61 95.7309 190.918 95.7309 190.918C95.7309 190.918 95.7309 190.918 95.2772 191.264C94.8235 191.61 94.8235 191.957 94.3698 191.957C93.4624 191.957 91.6476 192.303 91.6476 191.264C91.6476 190.918 91.6476 190.918 91.6476 190.918C93.0087 190.571 93.4624 189.879 93.0087 189.879C92.555 189.532 90.7402 189.532 90.2865 189.879C89.8328 190.225 88.018 191.264 88.018 190.225C88.018 190.225 88.018 190.225 88.018 189.879C88.018 189.532 87.5643 189.186 87.5643 189.186C86.6569 189.186 86.6569 189.186 86.6569 189.186C85.7495 189.186 84.8421 188.84 85.2958 188.147C85.2958 188.147 85.2958 188.147 83.481 188.493C83.0273 188.493 83.0273 188.493 83.0273 188.493C82.5736 188.84 81.6662 188.84 80.3051 188.493C78.944 187.801 74.407 187.801 73.4996 187.801C72.1385 187.801 68.5089 186.762 67.1477 186.762C66.2403 186.762 63.5181 187.108 63.0644 186.416C62.6107 185.723 58.0737 185.03 57.62 185.377C54.8978 183.299 54.8978 183.299 54.8978 183.299C50.8145 182.952 47.6386 182.606 47.1849 182.606C46.7312 182.606 44.9164 182.606 43.5553 182.606C42.1942 182.606 36.2961 182.952 34.0276 182.952C34.0276 182.952 34.0276 182.952 33.5739 180.874C33.5739 180.528 32.6665 180.182 32.2128 180.528C30.8517 180.874 30.8517 180.874 30.8517 180.874C29.4906 180.528 27.6758 179.835 27.6758 179.489C27.2221 179.143 24.9536 178.45 24.0462 178.45C23.1387 178.45 20.8702 177.411 20.4165 177.757C19.9628 177.757 19.0554 177.757 18.6017 177.065C18.6017 177.065 18.6017 177.065 18.148 176.719C17.6943 176.372 16.7869 176.372 16.3332 176.719C14.5184 177.411 12.7036 177.411 11.7962 177.411C9.07402 177.411 10.4351 176.719 10.4351 176.026C10.4351 175.68 9.07402 174.987 10.8888 174.987C11.7962 174.987 12.7036 174.641 13.611 174.294C14.5184 173.948 14.5184 173.602 13.611 173.255C12.7036 172.909 12.7036 172.909 12.7036 172.909C13.611 172.563 14.9721 171.524 16.3332 170.831C17.6943 170.138 18.6017 167.714 17.6943 167.368C17.6943 167.368 17.6943 167.368 16.7869 167.368C15.8795 167.368 15.8795 167.368 15.8795 167.368C14.9721 167.714 13.1573 167.714 12.2499 167.368C11.3425 167.021 11.3425 163.905 11.7962 162.866C12.2499 161.827 13.1573 158.363 12.7036 158.363C12.7036 158.363 11.3425 158.71 10.4351 159.402C10.4351 159.402 10.4351 159.402 9.07402 158.363C8.62032 157.671 8.62032 157.671 8.62032 157.671C8.62032 156.978 9.52772 156.286 9.98142 155.593C9.98142 155.593 9.98142 155.593 9.07402 155.247C8.62032 155.247 8.62032 155.247 8.62032 155.247C7.25922 155.593 6.35181 155.593 6.80551 154.9C6.80551 154.9 6.80551 154.9 6.80551 154.554C6.80551 153.169 6.80551 153.169 6.80551 153.169C5.89811 151.783 4.99071 150.052 4.99071 149.705C4.99071 149.013 6.35181 146.935 8.16662 146.589C9.98142 146.242 9.98142 142.779 8.62032 143.125C8.62032 143.125 8.62032 143.125 7.71292 143.472C6.80551 143.818 6.80551 143.818 6.80551 143.818C5.89811 144.164 4.08331 143.472 2.72221 142.433C2.72221 142.433 2.72221 142.433 3.17591 141.394C3.17591 141.047 3.17591 140.701 3.62961 140.355C4.99071 139.316 5.89811 138.623 6.80551 137.93C7.71292 137.238 8.62032 138.969 9.52772 137.93C9.52772 137.584 9.52772 137.584 9.52772 137.584C10.4351 137.584 10.4351 137.238 9.07402 136.891C9.07402 136.891 9.07402 136.892 9.07402 136.545C9.07402 136.199 9.52772 135.506 9.98142 135.16C10.4351 134.814 10.8888 134.814 11.3425 134.814C13.1573 134.121 13.1573 132.389 12.2499 132.389C10.8888 132.043 10.4351 131.697 9.98142 131.004C9.52772 130.658 9.52772 130.658 9.52772 130.658C7.71292 130.658 7.71292 129.965 9.98142 129.619C12.2499 129.272 17.6943 127.194 20.4165 128.233C20.4165 128.233 20.4165 128.233 23.5924 127.887C24.0462 127.887 25.4073 128.58 25.861 129.272C26.3147 130.658 26.3147 130.658 26.3147 130.658C27.6758 130.311 28.5832 129.272 28.1295 128.58C28.1295 128.58 28.1295 128.58 28.1295 127.887C28.5832 126.156 29.0369 124.424 29.4906 122.692C29.4906 122.346 29.4906 122.346 29.4906 122.346C31.3054 122 32.2128 121.307 32.6665 121.307C33.1202 121.307 34.4813 120.268 34.935 120.268C35.8424 120.268 38.1109 119.922 38.5646 119.922C39.0183 119.922 39.9257 119.229 40.3794 118.883C40.8331 118.536 42.6479 119.575 42.6479 119.922C43.1016 119.922 44.4627 120.268 44.4627 119.575C44.4627 118.883 45.8238 117.497 46.7312 118.19C47.6386 118.536 50.3608 117.844 50.3608 117.497C50.3608 117.497 49.9071 116.805 50.8145 116.459C50.8145 116.459 50.8145 116.459 51.2682 116.459C52.6293 116.805 54.4441 118.19 54.8978 116.112C55.3515 116.112 56.2589 116.112 57.1663 116.459C58.0737 116.805 60.7959 115.766 61.7033 115.766C62.6107 115.766 64.8792 115.766 66.2403 115.766C67.6014 115.766 69.8699 114.381 68.9626 114.034C68.0552 113.688 66.2403 112.303 66.694 111.264C67.1478 110.225 62.157 107.454 62.6107 107.454C63.0644 107.454 63.5181 106.415 62.157 105.723C62.157 105.723 62.157 105.723 62.157 105.03C62.157 103.645 62.157 103.645 62.157 103.645C60.7959 103.645 59.4348 103.298 58.5274 102.952C58.5274 102.952 58.5274 102.952 58.0737 102.606C57.1663 101.567 57.1663 101.567 57.1663 101.567C57.62 100.528 57.62 98.7961 57.1663 97.7571C57.1663 97.7571 57.1663 97.7571 56.7126 96.7182C56.7126 96.3719 56.7126 96.3719 56.7126 96.3719C56.7126 96.0255 58.0737 96.0255 59.4348 96.7182C60.7959 97.4108 64.8792 96.3719 64.8792 96.0255C64.8792 95.6792 64.4255 94.9866 63.5181 94.9866C63.5181 94.9866 63.5181 94.9866 63.0644 94.9866C62.157 95.3329 62.157 95.3329 62.157 95.3329C60.7959 95.6792 60.3422 95.6792 60.3422 95.3329C60.3422 95.3329 60.3422 95.3329 60.3422 94.9866C60.3422 94.6403 60.3422 94.6403 60.3422 94.6403C60.3422 94.2939 60.3422 93.9476 59.8885 93.9476C59.4348 93.9476 58.0737 94.2939 57.62 93.9476C57.1663 93.6013 58.0737 91.8697 58.9811 90.8307C58.9811 90.8307 58.9811 90.8307 60.7959 90.4844C61.2496 90.4844 61.7033 90.4844 61.7033 90.1381C61.2496 87.7138 61.2496 87.7138 61.2496 87.7138C64.4255 86.6748 65.7866 85.9822 65.3329 85.6359C64.4255 85.2896 61.7033 85.6359 61.2496 85.6359C60.7959 85.6359 57.1663 84.5969 54.4441 83.9043C54.4441 83.9043 54.4441 83.9043 51.7219 84.2506C50.3608 84.2506 50.3608 83.9043 49.9071 83.2116C50.3608 82.1727 50.3608 82.1727 50.3608 82.1727C49.4534 82.8653 48.0923 83.2116 46.7312 82.8653C45.3701 82.519 41.7405 81.48 41.2868 81.1337C42.1942 80.0947 42.1942 80.0947 42.1942 80.0947C41.7405 79.0558 40.8331 78.3631 40.3794 78.0168C39.9257 77.6705 39.0183 77.6705 39.0183 77.6705C39.0183 77.6705 39.0183 77.6705 38.5646 78.0168C38.1109 78.3631 38.1109 78.3631 38.1109 78.3631C37.6572 78.7094 36.2961 79.0558 35.3887 79.0558C34.4813 79.4021 31.3054 79.7484 30.8517 79.4021C30.398 79.0558 29.4906 77.6705 29.9443 77.3242C30.398 76.9778 34.0276 77.6705 35.3887 77.6705C35.3887 77.6705 35.3887 77.6705 35.3887 76.9778C35.8424 76.2852 34.935 74.8999 34.4813 74.8999C28.1295 74.5536 28.1295 74.5536 28.1295 74.5536C29.0369 71.783 29.0369 69.3587 28.1295 69.3587C27.2221 69.3587 25.861 70.3977 25.4073 70.3977C24.9536 70.3977 24.4999 69.7051 24.4999 69.7051C24.4999 69.7051 24.0462 69.0124 23.5924 68.3198C23.1387 67.6271 24.4999 65.8955 24.9536 65.2029C24.9536 65.2029 24.9536 65.2029 24.9536 64.8566C24.9536 64.5102 24.9536 64.5102 24.9536 64.5102C24.9536 64.1639 24.0462 63.8176 23.5924 63.8176C23.5924 63.8176 23.5924 63.8176 23.1387 63.8176C22.685 63.8176 22.685 63.8176 22.685 63.8176C22.2313 63.8176 21.7776 63.8176 21.3239 63.4713C22.2313 62.7786 22.2313 62.7786 22.2313 62.7786C23.5925 61.7397 23.5924 61.047 21.7776 61.3934C21.7776 61.3934 21.7776 61.3934 20.8702 61.3934C19.0554 61.3934 19.0554 61.3934 19.0554 61.3934C17.2406 61.3934 15.4258 61.047 14.9721 60.3544C14.9721 60.3544 14.9721 60.3544 14.9721 60.0081C15.4258 56.5448 15.4258 56.5448 15.4258 56.5448C13.1573 55.1596 10.8888 53.7743 10.4351 53.4279C10.4351 53.4279 10.4351 53.4279 10.4351 53.0816C9.98142 52.389 9.98142 52.389 9.98142 52.389C9.98142 51.35 9.52772 49.9647 9.07402 48.9258C9.07402 48.9258 9.07402 48.9258 8.16662 48.5794C4.99071 48.9258 4.99071 47.8868 5.44441 46.5015C5.44441 46.1552 5.44441 46.1552 5.44441 46.1552C5.44441 45.1162 4.08331 44.7699 2.2685 45.4625C2.2685 45.4625 2.26851 45.4625 3.17591 44.0773C4.08331 43.0383 2.2685 43.0383 1.8148 42.692C1.8148 42.692 0.453701 44.0773 0 42.692C0 42.3456 0 42.3456 0 42.3456C0.907402 41.9993 1.8148 41.653 1.8148 41.653C1.8148 41.653 1.3611 40.2677 0.453701 39.2288C0.453701 39.2288 0.453701 39.2288 0.907402 37.8435C0.907402 37.4971 1.3611 37.1508 1.3611 36.8045C1.3611 36.4582 1.3611 36.4582 1.3611 36.4582C0.907402 36.1119 0.907402 35.7655 1.3611 35.7655C1.8148 35.7655 4.08331 35.7655 4.53701 35.0729C4.99071 34.3802 4.08331 32.6486 4.53701 32.3023C6.35181 33.3413 7.71292 33.3413 9.07402 31.956C10.4351 30.917 10.4351 30.917 10.4351 30.917C12.2499 31.956 13.611 31.956 13.611 31.6097C13.611 31.2633 15.8795 29.8781 17.6943 29.1854C17.6943 29.1854 17.6943 29.1854 19.0554 30.917C19.9628 31.956 19.9628 31.956 19.9628 31.956C22.2313 31.2633 23.5924 30.2244 23.1387 30.2244C22.685 30.2244 21.7776 29.5317 21.7776 29.5317C22.685 29.5317 23.5925 29.5317 24.4999 29.8781C24.9536 29.8781 24.9536 29.8781 24.9536 29.8781C25.4073 29.8781 25.861 29.8781 26.3147 29.5317C26.7684 29.1854 28.1295 29.5317 28.1295 29.1854C28.1295 28.8391 29.0369 28.1465 29.4906 28.8391C29.9443 29.5317 32.2128 29.1854 33.1202 28.1465C33.1202 28.1465 33.1202 28.1465 34.0276 27.4538C34.4813 27.1075 34.4813 27.1075 34.4813 27.1075C35.3887 27.1075 36.7498 27.1075 37.6572 27.4538C38.5646 27.8001 42.6479 27.1075 43.1016 27.4538C44.009 27.8001 46.2775 28.4928 46.7312 27.4538C46.7312 27.4538 46.7312 27.4538 47.6386 26.7612C48.546 26.0685 48.546 26.0685 48.546 26.0685C49.9071 26.0685 51.7219 26.0685 52.1756 26.4148C53.083 26.7612 54.4441 25.3759 55.3515 25.3759C56.2589 25.3759 58.5274 25.7222 58.9811 26.0685C59.4348 26.4148 60.7959 26.4148 61.2496 26.0685C61.7033 25.3759 63.0644 23.9906 63.9718 24.3369C64.8792 24.6832 66.694 24.3369 67.6014 23.9906C68.0551 23.6443 70.3237 24.3369 70.3237 24.3369C70.3237 24.3369 70.3237 24.3369 70.3237 23.9906C70.3237 23.2979 70.3237 23.298 70.3237 23.298C71.2311 23.298 73.0459 23.9906 74.8607 24.3369C74.8607 24.3369 74.8607 24.3369 74.8607 22.6053C75.3144 22.6053 77.1292 22.259 78.4903 21.9127C80.3051 21.5663 86.2032 22.259 87.5643 22.259C87.5643 22.259 87.5643 22.259 88.4717 22.6053C90.7402 22.6053 91.1939 23.6443 91.1939 22.259L92.555 21.9127C93.9161 23.2979 96.1846 22.259 96.1846 21.9127C97.5457 20.8737 99.3605 22.259 100.268 21.22C100.722 20.8737 100.722 20.8737 100.722 20.8737C102.99 21.22 104.805 21.9127 105.259 21.9127C105.712 21.9127 107.073 21.22 108.435 20.5274C109.796 19.8347 113.879 20.8737 113.879 20.8737C113.879 19.1421 113.879 19.1421 113.879 19.1421C115.694 19.4884 118.87 19.4884 120.231 18.7958C120.231 18.7958 120.231 18.7958 121.592 20.1811C122.953 20.5274 122.953 20.5274 122.953 20.5274C124.314 20.1811 126.129 19.4884 127.036 19.1421C127.036 19.1421 127.036 19.1421 127.944 19.1421C128.397 19.1421 128.397 19.1421 128.397 19.1421C128.851 19.1421 129.758 19.1421 130.666 19.1421C131.573 19.1421 135.203 19.1421 136.11 19.1421C137.018 19.1421 139.74 18.4494 139.74 18.7958C140.194 19.1421 141.101 19.4884 141.101 19.1421C141.101 19.1421 141.101 19.1421 141.555 18.7958C142.008 18.4494 142.008 18.4494 142.008 18.4494C142.462 18.1031 142.462 18.1031 142.916 18.4494C143.37 18.7958 143.37 19.1421 143.823 19.4884C143.823 19.4884 143.823 19.4884 144.277 19.4884C145.638 18.7958 145.638 18.7958 145.638 18.7958C147.453 18.4494 149.721 18.1031 150.175 18.1031C150.175 18.1031 150.175 18.1031 150.629 17.7568C152.444 16.3715 152.444 16.3715 152.444 16.3715C153.351 17.7568 154.712 18.4494 155.166 18.1031C155.619 17.7568 156.527 17.0642 156.981 17.0642C157.434 17.0642 157.888 16.3715 158.342 14.9862C158.342 14.9862 158.342 14.9862 161.064 16.7178C161.518 17.0642 161.518 17.0642 161.518 17.0642C162.879 16.7178 164.693 16.7178 165.601 16.7178C166.508 16.7178 168.323 17.0642 168.323 16.7178C168.323 16.3715 171.045 16.3715 171.499 16.3715C171.953 16.3715 172.86 16.0252 172.406 14.6399C172.406 14.6399 172.406 14.6399 175.129 16.3715C175.582 16.3715 176.943 16.0252 177.851 15.6789C178.304 15.6789 178.304 15.6789 178.304 15.6789C178.758 15.3325 181.027 14.9862 182.841 14.6399C185.11 14.2936 190.101 16.0252 190.554 16.0252C191.008 16.0252 193.73 15.6789 195.091 15.3325C196.453 14.9862 203.258 15.3325 204.619 15.3325C204.619 15.3325 204.619 15.3325 205.073 14.9862C207.341 14.6399 207.341 14.6399 207.341 14.6399C208.702 14.9862 210.064 15.3325 210.971 15.6789C210.971 15.6789 210.971 15.6789 211.878 15.6789C213.239 15.6789 213.239 15.6789 213.239 15.6789C214.601 15.3325 216.415 14.6399 217.323 14.6399C218.23 14.6399 221.86 14.2936 223.675 14.2936C223.675 14.2936 223.675 14.2936 225.489 14.2936C225.943 14.2936 225.943 14.2936 225.943 14.2936C226.397 13.9473 227.304 14.2936 227.304 14.6399C227.304 14.9862 229.573 14.6399 230.026 14.6399C230.48 14.2936 231.841 13.9473 232.295 13.9473C232.749 13.9473 234.563 14.6399 235.017 14.6399C235.471 14.6399 238.647 13.6009 240.008 13.6009C240.008 13.6009 240.008 13.6009 240.462 13.9473C241.369 14.9862 242.73 12.9083 243.637 14.2936C244.091 14.9862 244.091 14.9862 244.091 14.9862C245.906 14.2936 247.721 14.2936 248.174 14.2936C248.628 14.6399 249.989 14.9862 250.443 14.9862C250.443 14.6399 251.35 14.2936 251.35 14.2936C251.35 14.2936 252.711 14.2936 253.165 13.9473C253.619 13.6009 257.248 13.6009 259.971 13.2546C259.971 13.2546 259.971 13.2546 262.693 13.9473C264.961 14.2936 267.684 14.6399 270.406 13.2546C271.767 12.562 271.767 12.562 271.767 12.562C274.035 12.9083 276.304 13.2546 276.304 13.6009C276.758 13.9473 278.119 13.9473 278.572 13.2546C279.48 12.562 282.656 13.9473 282.656 13.6009C282.656 13.2546 283.563 12.562 284.017 13.2546C284.017 13.6009 284.924 14.2936 285.378 13.6009C285.832 12.9083 289.461 13.9473 291.276 13.6009C291.276 13.6009 291.276 13.6009 293.091 13.9473C295.359 13.2546 295.359 13.2546 295.359 13.2546C298.082 12.562 300.804 12.2157 301.257 12.2157C301.257 12.562 302.165 12.9083 302.619 12.562C303.072 12.2157 303.98 11.523 304.433 11.523C306.248 12.562 306.248 12.562 306.248 12.562C308.517 12.562 311.693 12.2157 313.054 12.562C314.415 12.562 319.405 12.2157 320.313 12.9083C320.313 12.9083 320.313 12.9083 321.674 11.8693C321.674 11.523 323.489 12.2157 324.396 12.2157C327.118 12.2157 327.118 12.2157 327.118 12.2157C330.294 12.2157 334.831 11.8693 336.646 11.523C336.646 11.523 336.646 11.523 338.461 12.9083C338.915 13.2546 338.915 13.2546 338.915 13.2546C339.822 13.2546 341.637 12.9083 342.544 12.9083C343.452 12.9083 345.72 13.2546 345.72 12.9083C345.72 12.562 348.896 12.562 349.803 13.6009C349.803 13.6009 349.803 13.6009 351.618 12.562C352.072 12.2157 352.072 12.2157 352.072 12.2157C353.433 12.562 355.248 12.562 356.155 12.562C357.063 12.562 359.331 12.9083 360.239 12.9083C360.239 12.9083 360.239 12.9083 361.146 12.9083C361.6 12.9083 362.507 12.9083 362.961 12.9083C363.414 12.9083 364.322 12.562 364.776 12.562C365.229 12.562 365.229 12.562 365.229 12.562C365.683 12.562 366.59 12.562 367.498 12.562C368.405 12.562 370.22 12.9083 371.581 13.6009C371.581 13.6009 371.581 13.6009 371.581 12.2157C372.035 12.2157 374.757 12.562 376.572 13.2546C376.572 13.2546 376.572 13.2546 378.387 13.2546C379.748 13.2546 379.748 13.2546 379.748 13.2546C381.562 12.562 383.377 12.2157 383.831 11.8693C384.285 11.8693 385.646 12.2157 386.553 13.2546C386.553 13.2546 386.553 13.2546 388.368 12.9083C389.275 12.562 391.09 12.562 391.544 12.9083C393.359 13.2546 393.812 11.1767 395.174 11.523C396.535 11.8693 396.535 11.8693 396.535 11.8693C398.349 11.8693 400.618 12.2157 401.525 12.562C401.525 12.562 401.525 12.562 401.979 12.2157C403.794 11.1767 403.794 11.1767 403.794 11.1767C406.062 11.8693 407.877 12.2157 408.331 11.8693C408.785 11.523 410.146 11.1767 410.599 11.523C411.053 11.8693 412.414 12.9083 412.414 12.9083C412.414 12.9083 413.775 12.562 414.683 12.2157C415.59 11.8693 420.581 11.8693 421.942 11.8693C423.303 11.8693 427.386 11.8693 428.747 12.2157C430.109 12.562 432.831 11.523 433.738 11.8693C436.46 9.44508 436.46 9.44508 436.46 9.44508C440.544 10.1377 444.173 11.1767 445.081 11.1767C445.988 11.1767 447.803 10.8304 447.803 11.523C447.803 12.2157 451.432 10.8304 452.34 10.484C453.247 10.1377 455.062 10.484 455.969 10.484C456.423 10.484 458.238 10.1377 458.692 10.484C458.692 10.8304 459.599 11.1767 460.053 11.1767C460.507 10.8304 462.321 10.1377 464.136 10.1377C464.136 10.1377 464.136 10.1377 465.497 10.484L469.581 11.523C470.488 11.1767 470.488 11.1767 470.488 11.1767C471.849 10.484 472.756 10.484 472.756 10.484C472.756 10.8304 474.571 11.523 475.479 11.8693C475.479 11.8693 475.479 11.8693 477.747 10.484C478.201 10.484 478.201 10.484 478.201 10.484C478.655 10.484 479.562 10.8304 480.016 10.8304C480.469 11.1767 484.099 10.8304 486.367 10.484C487.275 9.7914 487.275 9.7914 487.275 9.7914C488.182 10.1377 489.09 11.1767 488.636 12.2157C488.636 12.2157 488.636 12.2157 491.358 11.1767C493.173 10.484 493.173 10.484 493.173 10.484C493.173 11.523 493.173 11.8693 493.173 11.1767C493.173 10.484 496.349 11.523 496.349 11.523C496.349 11.523 497.71 11.1767 499.071 11.1767C499.978 11.1767 504.062 11.8693 505.423 11.8693C506.784 11.8693 509.052 11.1767 509.506 11.1767C509.96 11.1767 510.867 12.2157 511.321 12.2157C511.321 12.2157 511.775 11.8693 512.228 11.523C512.682 11.1767 514.951 10.8304 515.858 11.1767C515.858 11.1767 515.858 11.1767 516.765 11.1767C517.219 11.1767 518.127 10.484 518.127 10.8304C519.488 11.523 519.488 11.523 519.488 11.523C520.849 11.1767 523.571 11.1767 525.386 11.523C525.386 11.523 525.386 11.523 527.201 11.8693C527.654 11.8693 527.654 11.8693 527.654 11.8693C528.562 11.8693 529.469 11.523 529.923 11.523C530.376 11.1767 532.191 11.1767 533.099 10.8304C533.552 10.484 537.636 11.1767 539.45 11.1767C539.45 11.1767 539.45 11.1767 541.265 11.1767C542.626 11.1767 542.626 11.1767 542.626 11.1767C544.441 11.523 545.802 11.523 546.256 11.523C546.71 11.523 548.524 10.8304 549.886 10.8304C549.886 10.8304 549.886 10.8304 550.793 11.1767C551.7 11.523 552.608 12.562 552.608 10.8304C552.608 10.8304 553.515 10.8304 553.969 10.8304C556.237 10.8304 558.96 11.523 561.228 11.1767C563.043 10.8304 563.043 10.8304 563.043 10.8304C564.404 11.1767 565.765 11.523 566.219 11.523C566.672 11.523 568.487 11.1767 569.395 11.1767C570.302 10.8304 576.2 11.1767 578.015 11.523C579.83 11.8693 584.367 10.1377 585.274 10.1377C586.182 10.1377 590.265 9.7914 591.626 9.44508C592.987 9.09875 596.163 10.8304 596.163 10.8304C596.617 10.8304 598.432 9.7914 599.339 10.484C599.339 10.484 599.339 10.484 600.246 10.484C601.154 10.484 602.515 9.7914 603.422 10.1377C605.237 10.484 605.237 10.484 605.237 10.484C606.145 9.7914 607.506 9.44508 607.959 9.44508C607.959 9.44508 607.959 9.44508 608.413 9.7914C609.32 10.1377 609.32 10.1377 609.32 10.1377C610.228 10.484 611.135 10.8304 611.589 10.484C612.043 10.1377 612.95 9.7914 613.404 10.1377C613.404 10.484 616.126 10.484 616.58 10.1377C617.033 9.7914 618.848 9.44508 619.302 9.7914C619.756 10.1377 621.117 11.1767 621.117 11.1767C622.478 9.44508 624.293 10.8304 626.107 10.8304C627.015 10.8304 627.015 10.8304 627.015 10.8304C628.376 10.484 629.283 10.484 630.191 10.484C630.644 10.484 632.005 10.484 632.913 10.8304C633.82 11.1767 637.45 10.484 639.265 10.484C639.265 10.484 639.265 10.484 641.079 10.1377C641.987 10.1377 643.348 10.8304 644.255 10.484C646.07 10.1377 646.07 10.1377 646.07 10.1377C647.885 10.484 650.154 10.484 651.515 10.8304C651.515 10.8304 651.515 10.8304 652.876 10.8304C655.144 10.484 655.144 10.484 655.144 10.484C657.866 10.484 660.135 10.1377 660.589 10.1377C661.042 10.1377 662.403 10.8304 662.857 11.1767C663.311 11.8693 666.487 10.8304 666.94 11.1767C667.394 11.523 668.755 11.8693 669.209 11.8693C669.209 11.523 668.302 10.484 668.302 10.484C669.663 10.1377 669.663 10.1377 669.663 10.1377C670.116 10.8304 670.57 11.523 671.024 11.8693C671.477 11.8693 672.385 11.523 672.839 11.523C673.292 11.1767 674.653 10.8304 675.107 11.1767C675.561 11.523 676.922 11.1767 676.922 10.1377C676.922 10.1377 676.922 10.1377 679.19 10.8304C678.737 11.523 679.644 11.8693 681.459 11.523C682.82 11.1767 686.903 12.562 686.903 12.562C686.903 12.562 686.903 12.562 686.903 12.2157C686.903 10.8304 686.903 10.8304 686.903 10.8304C688.264 11.1767 689.625 11.523 690.079 11.8693C690.533 12.2157 691.44 12.562 691.894 12.2157C692.348 11.8693 693.255 11.1767 694.162 11.523C695.07 11.8693 699.153 11.1767 700.061 11.1767C700.968 11.1767 704.144 12.2157 704.144 12.562C704.144 12.9083 707.32 12.2157 707.773 11.8693C708.227 11.523 710.496 11.1767 710.949 12.562C710.949 12.562 710.949 12.562 713.218 12.2157C715.487 11.8693 711.857 10.8304 713.672 10.8304C715.486 10.8304 715.487 10.8304 715.487 10.8304C717.301 10.8304 721.838 10.8304 725.468 10.8304C725.468 10.8304 725.468 10.8304 728.644 10.8304C730.459 10.8304 731.82 10.8304 733.635 10.8304C734.996 10.8304 734.996 10.8304 734.996 10.8304C736.357 11.1767 738.625 10.484 739.986 9.7914C739.986 9.7914 739.986 9.7914 741.347 11.1767C742.255 11.8693 742.255 11.8693 742.255 11.8693C742.255 11.1767 743.162 10.1377 744.07 9.7914C744.07 9.7914 744.07 9.7914 744.977 10.484C745.884 11.523 745.884 11.523 745.884 11.523C747.246 11.1767 749.06 10.8304 750.421 10.8304C751.783 10.8304 754.958 10.1377 755.866 9.7914C756.773 9.44508 759.949 10.484 760.857 10.484C761.764 10.484 764.94 10.8304 765.847 10.8304C766.301 10.484 768.57 10.1377 769.931 9.7914C769.931 9.7914 769.931 9.7914 770.838 9.44508C773.107 8.75243 773.107 8.75243 773.107 8.75243C774.014 9.7914 774.921 10.1377 774.921 9.7914C774.921 9.44508 776.282 8.40611 777.643 8.75243C779.005 9.09875 783.088 9.7914 783.995 9.7914C785.356 9.7914 789.44 8.40611 791.708 8.40611C791.708 8.40611 791.708 8.40611 793.523 8.40611C795.338 8.40611 797.153 8.05979 799.421 8.40611C800.782 8.40611 800.782 8.40611 800.782 8.40611C801.69 8.05979 803.504 8.05979 804.866 8.05979C804.866 8.05979 804.866 8.05979 805.319 7.71347C807.134 7.02082 807.588 7.36715 808.041 8.40611C808.949 8.40611 811.671 7.71347 813.486 6.6745C813.486 6.6745 813.486 6.6745 816.208 8.05979C816.662 8.05979 816.662 8.05979 816.662 8.05979C817.115 8.05979 817.115 7.71347 817.115 7.36715C817.115 7.02082 820.745 7.36715 821.652 7.71347C822.56 8.05979 825.736 7.71347 826.643 7.71347C827.551 7.71347 830.273 7.02082 831.18 7.02082C832.088 7.02082 834.81 6.32818 836.171 6.6745C837.532 7.02082 842.523 6.6745 843.43 6.6745C843.884 7.02082 845.699 7.71347 845.699 7.36715C845.699 7.02082 846.606 6.6745 847.06 7.36715C847.06 7.36715 847.06 7.36715 847.513 7.36715C848.421 7.71347 848.421 7.71347 848.421 7.71347C849.328 7.71347 852.05 7.36715 853.865 7.36715C853.865 7.36715 853.865 7.36715 854.773 7.02082C856.134 6.32818 856.134 6.32818 856.134 6.32818C857.041 6.6745 858.402 7.02082 858.856 7.02082C859.31 7.02082 860.671 6.6745 861.124 6.32818C861.578 6.32818 864.3 6.6745 865.661 7.02082C867.023 7.36715 871.106 6.32818 871.56 6.32818C872.013 6.32818 873.828 7.71347 873.828 7.36715C873.828 7.02082 875.189 5.98186 876.55 5.98186C876.55 5.98186 876.55 5.98186 877.458 5.98186C878.819 5.98186 878.819 5.98186 878.819 5.98186C880.18 6.32818 882.448 6.6745 883.81 6.6745C885.171 6.6745 888.346 5.63554 889.254 5.63554C890.161 5.63554 892.43 5.98186 892.43 5.63554C892.43 5.28921 893.337 4.25025 893.337 4.25025C894.698 5.28921 896.059 6.32818 898.328 4.94289C899.235 4.59657 899.235 4.59657 899.235 4.59657C900.596 4.94289 902.411 4.94289 902.865 4.94289C903.319 4.94289 905.587 5.28921 906.041 5.28921C906.041 5.28921 906.041 5.28921 906.495 5.28921C907.856 4.94289 907.856 4.94289 907.856 4.94289C909.67 4.59657 911.939 4.59657 913.3 4.59657C913.3 4.59657 913.3 4.59657 914.661 4.59657C915.569 4.59657 915.569 4.59657 915.569 4.59657C916.93 3.90393 918.291 3.55761 918.744 3.90393C919.198 4.25025 920.559 4.94289 921.013 4.59657C921.467 4.25025 924.189 3.55761 924.643 3.90393C925.096 4.25025 927.365 4.94289 929.633 4.94289C929.633 4.94289 929.633 4.94289 930.994 5.28921C932.356 5.63554 932.355 5.63554 932.355 5.63554C933.263 5.28921 935.078 4.94289 936.439 4.94289C936.439 4.94289 936.439 4.94289 937.346 4.59657C937.8 4.59657 937.8 4.59657 937.8 4.59657C938.707 4.59657 940.976 4.25025 943.244 3.90393C943.244 3.90393 943.244 3.90393 945.513 4.94289C946.874 5.63554 946.874 5.63554 946.874 5.63554C949.143 5.63554 950.957 4.94289 950.957 4.25025C950.957 3.55761 953.68 3.90393 954.587 4.25025C955.041 4.59657 957.763 4.59657 958.67 4.59657C959.578 4.59657 961.846 3.90393 961.846 3.90393C961.846 3.90393 962.753 4.25025 963.207 4.59657C963.661 4.94289 967.291 5.28922 966.837 4.94289C966.383 4.59657 966.383 4.25025 968.198 4.59657C968.198 4.59657 968.198 4.59657 970.013 3.55761C970.92 3.21128 973.189 3.55761 974.55 3.55761C975.911 3.55761 975.911 3.55761 975.911 3.55761C976.818 4.25025 977.726 4.59657 978.179 4.59657C978.633 4.59657 980.902 4.59657 983.17 4.94289C983.17 4.94289 983.17 4.94289 984.531 3.55761C984.985 3.21128 984.985 3.21128 984.985 3.21128C987.253 3.90393 988.614 3.90393 988.614 3.55761C988.614 3.21128 988.161 2.17232 988.161 2.17232C988.161 2.17232 989.976 1.826 991.337 1.826C992.698 1.826 996.781 2.51864 997.235 2.51864C997.235 2.51864 997.235 2.51864 997.688 2.51864C999.05 2.86496 999.05 2.86496 999.05 2.86496C1000.86 2.86496 1002.68 2.86496 1003.59 3.21128C1004.49 3.55761 1007.22 1.826 1009.03 0.787031C1009.03 0.787031 1009.03 0.787031 1010.85 1.13335C1013.11 1.826 1013.11 1.826 1013.11 1.826C1014.48 1.13335 1015.38 0.440709 1015.84 0.440709C1016.29 0.440709 1016.74 0.440709 1017.2 0.0943874C1017.65 -0.251934 1019.92 0.440709 1020.83 0.787031C1021.28 1.13335 1024 1.47967 1023.55 0.787031C1023.1 0.0943874 1025.82 0.787031 1026.27 0.440709C1026.73 0.0943874 1028.99 0.440709 1029.45 0.787031C1030.35 1.13335 1033.08 1.13335 1033.08 0.787031C1033.08 0.440709 1035.35 0.0943874 1039.43 0.0943874C1039.43 0.0943874 1039.43 0.0943874 1040.79 0.787031C1043.51 2.17232 1043.51 2.17232 1043.51 2.17232C1043.97 0.787031 1044.87 0.440709 1046.23 1.13335C1046.23 1.13335 1046.23 1.13335 1048.5 0.440709C1051.23 -0.251934 1054.4 0.0943874 1057.12 1.13335C1058.03 1.47967 1059.85 2.17232 1061.66 1.47967C1062.57 1.13335 1064.84 1.826 1066.2 2.51864C1067.1 2.86496 1064.38 3.21128 1066.2 3.55761C1066.65 3.55761 1067.56 2.86496 1068.01 3.21128C1068.92 3.21128 1070.73 3.55761 1070.73 3.90393C1071.64 5.28921 1071.64 5.28921 1071.64 5.28921C1073.91 5.63554 1076.63 6.32818 1077.99 6.6745C1079.35 7.02082 1083.89 7.36715 1084.35 7.36715C1085.25 7.36715 1087.52 7.71347 1088.43 7.71347C1088.88 7.71347 1090.24 7.36715 1090.24 8.05979C1090.24 8.75243 1092.97 7.71347 1093.42 7.71347C1093.87 7.71347 1096.14 7.71347 1097.5 7.71347C1099.32 7.71347 1103.4 9.09875 1103.85 9.09875C1104.31 9.09875 1105.67 9.09875 1105.67 9.44508C1105.67 9.7914 1107.03 10.8304 1108.85 10.484C1110.66 10.1377 1115.65 11.523 1117.47 11.8693C1117.47 11.8693 1117.47 11.8693 1117.92 13.6009C1118.37 14.2936 1121.1 14.6399 1121.55 16.0252C1122 16.7178 1122 16.7178 1122 16.7178C1123.82 17.4105 1125.63 17.7568 1126.09 17.7568C1126.54 17.7568 1126.99 18.4494 1126.54 19.1421C1128.35 19.4884 1128.35 19.4884 1128.35 19.4884C1127.9 20.1811 1127.45 21.5663 1127.45 22.259C1127.45 22.259 1127.45 22.259 1127.45 22.9516C1127.9 24.3369 1127.9 24.3369 1127.9 24.3369C1128.35 26.0685 1129.26 27.4538 1129.72 27.4538C1129.72 27.4538 1129.72 27.4538 1130.17 27.4538C1130.62 27.4538 1130.62 27.4538 1130.62 27.4538C1131.08 27.4538 1131.53 27.4538 1131.53 27.8001C1131.53 28.1465 1130.62 28.4928 1129.72 28.8391C1129.72 28.8391 1129.72 28.8391 1128.81 29.1854C1128.81 29.1854 1128.81 29.5317 1128.81 29.8781C1128.81 29.8781 1129.26 29.8781 1129.72 29.8781L1130.17 29.5317C1131.08 29.5317 1131.08 29.5317 1131.08 29.5317C1131.98 29.5317 1132.89 29.5317 1132.89 29.8781C1132.89 30.2244 1133.8 31.2633 1134.71 31.956C1134.71 31.956 1134.71 31.956 1135.61 32.6486C1136.07 32.995 1136.07 32.995 1136.07 32.995C1136.07 34.0339 1135.16 34.3802 1133.8 34.0339C1132.44 33.6876 1129.26 34.0339 1130.17 35.7655C1131.53 37.8435 1131.53 43.0383 1130.62 43.0383C1129.26 43.3846 1126.54 44.0773 1126.99 44.0773C1127.45 44.0773 1128.81 44.7699 1129.72 45.4625C1129.72 45.4625 1129.72 45.4625 1130.17 46.1552C1131.53 47.8868 1131.98 45.1162 1133.35 46.1552C1133.8 46.5015 1133.8 46.5015 1133.8 46.5015C1135.16 46.8478 1136.07 47.5405 1135.61 48.2331C1135.16 48.9258 1136.52 51.6963 1136.97 53.0816C1136.97 53.0816 1136.97 53.0816 1136.07 54.4669C1135.16 55.8522 1136.97 58.2765 1139.24 58.2765C1141.06 58.2765 1141.06 58.2765 1141.06 58.2765C1143.33 58.6228 1144.23 58.9691 1143.33 58.9691C1142.42 58.9691 1139.24 59.6617 1139.24 60.0081C1139.24 60.3544 1140.15 62.086 1141.51 61.7397C1141.51 61.7397 1141.51 61.7397 1142.87 61.7397C1143.78 61.7397 1143.78 61.7397 1143.78 61.7397C1144.69 61.7397 1145.59 61.7397 1146.5 62.086C1147.41 62.4323 1151.04 62.086 1152.4 62.086C1154.22 62.086 1156.03 64.8566 1156.03 65.2029C1156.03 65.2029 1156.03 65.2029 1155.12 65.2029C1153.31 64.8566 1152.4 65.8955 1152.85 66.9345C1153.31 67.6271 1153.76 68.3198 1154.67 68.6661C1156.48 69.3588 1156.48 69.3587 1156.48 69.3587C1156.48 70.744 1156.94 71.4367 1157.39 71.0904C1157.39 71.0904 1157.39 71.0904 1157.84 71.0904C1158.3 71.0904 1159.21 71.0904 1159.66 71.4367C1160.11 71.783 1160.11 72.1293 1159.66 72.4757C1158.75 73.1683 1157.84 73.8609 1156.03 73.5146C1155.58 73.5146 1155.12 73.8609 1155.12 74.2073C1155.12 74.5536 1155.58 74.8999 1156.03 74.8999C1157.39 75.2462 1157.39 75.2462 1157.39 75.2462C1158.75 75.5925 1158.75 76.2852 1157.39 76.9778C1157.39 76.9778 1157.39 76.9778 1156.03 76.9778C1154.67 76.9778 1154.67 76.9778 1154.67 76.9778C1152.85 76.2852 1151.49 76.6315 1151.49 77.6705C1151.49 77.6705 1151.49 77.6705 1151.04 78.3631C1150.59 79.4021 1150.59 79.4021 1150.59 79.4021C1149.22 79.7484 1146.96 80.0947 1146.05 80.0947C1145.14 80.0947 1145.14 82.1727 1146.05 83.5579C1146.5 84.5969 1147.86 88.4065 1146.96 88.7528C1146.05 89.0991 1146.96 91.177 1147.41 91.5234C1147.86 91.8697 1148.77 93.255 1148.32 93.255C1148.32 93.255 1148.32 93.255 1147.41 93.6013C1146.5 93.9476 1145.59 92.5623 1144.69 93.6013C1143.78 93.6013 1142.42 93.255 1141.51 92.9086C1140.6 92.5623 1136.52 93.255 1135.16 93.255C1133.35 93.6013 1128.35 92.5623 1126.99 91.8697C1125.63 91.5233 1120.64 91.5234 1119.73 91.5234C1118.83 91.5234 1116.1 90.4844 1115.65 90.8307C1115.2 91.177 1114.74 92.5623 1114.74 93.255C1114.74 93.9476 1117.92 94.2939 1118.83 94.2939C1118.83 94.2939 1118.83 94.2939 1119.28 94.6403C1120.19 94.9866 1119.28 96.3719 1121.55 96.0255C1122 96.0255 1122 96.0255 1122 96.0255C1122.46 96.7182 1123.82 97.0645 1124.72 96.3719C1124.72 96.3719 1124.72 96.3719 1124.72 98.1035C1124.72 98.4498 1124.72 98.4498 1124.72 98.4498C1126.09 98.7961 1127.9 98.7961 1129.26 98.7961C1129.26 98.7961 1129.26 98.7961 1129.72 99.8351C1129.72 100.528 1129.72 100.528 1129.72 100.528C1130.17 101.567 1129.72 101.913 1129.26 101.567C1128.81 101.22 1126.09 101.22 1125.63 101.22C1125.18 101.567 1123.36 101.913 1122.46 101.22C1121.55 100.874 1118.83 99.1424 1118.83 99.4888C1119.28 100.528 1120.64 101.567 1120.64 102.606C1120.19 103.645 1120.19 103.645 1120.19 103.645C1118.37 105.03 1117.47 106.069 1118.37 106.415C1118.83 106.762 1121.1 106.762 1122 106.069C1122 106.069 1122 106.069 1122.46 105.376C1122.91 105.03 1122.91 105.03 1122.91 105.03C1122.91 104.337 1123.36 103.991 1123.36 103.991C1124.72 105.03 1124.72 105.03 1124.72 105.03C1126.09 104.337 1127.9 103.991 1128.35 104.337C1128.81 104.337 1128.81 105.376 1126.99 106.415C1126.99 106.415 1126.99 106.415 1127.9 107.8C1128.35 108.147 1128.35 108.147 1128.35 108.147C1129.72 107.8 1131.08 108.493 1131.53 109.878C1131.98 110.917 1132.89 112.303 1132.89 112.303C1132.89 112.303 1131.08 112.649 1130.17 111.956C1130.17 111.956 1130.17 111.956 1129.26 111.61C1128.81 111.61 1127.9 111.956 1127.9 112.303C1127.45 112.649 1127.45 113.688 1127.9 114.034C1128.35 114.381 1131.08 114.727 1130.62 115.073C1130.17 115.42 1127.9 116.805 1128.35 117.151C1128.81 117.497 1129.72 118.536 1130.17 118.19C1130.17 118.19 1130.17 118.19 1130.62 118.19C1131.98 117.844 1133.35 118.883 1134.71 120.614C1135.16 121.307 1135.16 121.307 1135.16 121.307C1134.25 122 1133.8 122.692 1133.35 123.039C1132.89 123.039 1132.89 123.731 1133.8 124.078C1133.8 124.078 1133.8 124.078 1134.25 124.078C1136.07 124.078 1136.52 124.424 1135.61 125.463C1135.61 125.809 1135.16 126.156 1135.16 126.156C1136.07 126.502 1136.07 126.502 1136.07 126.502C1136.07 127.194 1134.71 127.541 1133.8 127.194C1133.8 127.194 1133.8 127.194 1133.35 126.502C1133.35 126.156 1133.35 126.156 1133.35 126.156C1131.08 126.156 1131.08 126.502 1133.35 127.194C1133.35 127.194 1133.35 127.194 1132.44 128.58C1131.98 129.272 1131.98 129.272 1131.98 129.272C1131.53 130.311 1131.53 131.004 1131.98 131.35C1132.44 131.697 1133.35 133.082 1132.89 133.775C1132.44 134.467 1129.26 135.16 1129.26 135.506C1129.26 135.506 1129.26 135.506 1129.72 135.853C1130.17 136.545 1130.17 136.545 1130.17 136.545C1130.62 137.584 1130.62 137.93 1130.17 137.584C1129.72 137.238 1127.45 136.892 1126.99 137.238C1126.54 137.238 1124.27 137.238 1123.36 137.238C1122.46 137.238 1120.64 137.238 1121.1 137.584C1121.55 137.93 1122.91 138.623 1123.36 138.969C1123.82 139.316 1126.09 138.623 1126.09 138.623C1126.09 138.623 1126.54 138.969 1126.54 139.662C1126.54 140.355 1129.72 139.662 1130.17 139.662C1130.62 139.662 1131.53 140.008 1130.62 140.355C1129.72 140.701 1126.99 141.394 1126.54 141.047C1126.54 140.701 1125.18 140.355 1124.72 140.355C1124.27 140.355 1122.91 142.086 1122.46 142.086C1122 142.086 1120.19 142.779 1119.73 143.818C1119.73 143.818 1119.73 143.818 1120.19 144.857C1120.64 145.896 1121.55 146.242 1122.91 146.589C1123.36 146.589 1123.36 146.589 1123.36 146.589C1123.82 146.935 1123.82 147.627 1122.91 147.974C1122.46 148.666 1119.73 149.705 1119.28 150.052C1118.83 150.398 1118.83 151.437 1118.83 151.437C1118.37 151.437 1117.92 152.13 1117.92 152.13C1117.92 152.13 1117.92 152.822 1118.83 153.169C1119.28 153.515 1120.64 155.247 1120.64 156.286C1120.64 156.286 1120.64 156.286 1119.73 156.978C1117.92 158.363 1118.37 159.402 1121.1 160.095C1123.36 160.788 1123.36 160.788 1123.36 160.788C1122 161.827 1120.64 163.212 1119.73 163.905C1119.28 164.597 1117.47 165.29 1118.83 165.29C1118.83 165.29 1118.83 165.29 1118.83 166.675C1118.83 167.368 1118.83 167.368 1118.83 167.368C1118.83 168.06 1119.28 169.446 1119.28 170.138C1119.28 170.138 1119.28 170.138 1120.19 170.485C1121.1 171.177 1121.1 171.177 1121.1 171.177C1120.64 171.87 1120.19 173.255 1119.73 173.948C1119.73 173.948 1119.73 173.948 1120.64 174.641C1122.91 176.719 1122.91 176.719 1122.91 176.719C1121.1 177.757 1119.28 178.45 1119.28 178.45C1119.28 178.45 1120.64 180.528 1122.91 182.606C1122.91 182.606 1122.91 182.606 1124.72 184.684C1125.18 185.377 1125.18 185.377 1125.18 185.377C1124.27 185.03 1123.36 185.03 1122.91 185.03C1122.91 185.03 1122 185.03 1121.1 185.377C1120.19 185.723 1118.37 186.416 1117.92 186.416C1117.47 186.416 1115.2 186.762 1114.29 187.108C1114.29 187.108 1114.29 187.108 1113.38 187.454C1112.02 187.801 1112.02 187.801 1112.02 187.801C1110.66 187.801 1107.03 188.147 1104.31 188.493C1101.59 188.84 1092.06 189.532 1090.24 189.879C1090.24 189.879 1090.24 189.879 1088.88 189.879C1087.52 189.879 1087.52 189.879 1087.52 189.879C1085.71 190.225 1082.08 190.571 1078.45 190.571C1078.45 190.571 1078.45 190.571 1075.27 190.571C1073.91 190.571 1073.91 190.571 1073.91 190.571C1072.55 190.918 1070.28 191.957 1068.92 192.649C1068.92 192.649 1068.92 192.649 1067.56 191.264C1067.56 190.918 1064.84 191.61 1064.84 191.61C1063.93 190.225 1062.57 192.649 1061.66 191.264C1061.21 190.918 1061.21 190.918 1061.21 190.918C1059.39 191.61 1057.58 191.957 1056.67 191.957C1055.31 192.649 1055.31 192.649 1055.31 192.649C1053.49 192.649 1051.23 192.649 1050.32 192.996C1049.41 193.342 1046.23 192.649 1045.78 192.649C1044.87 192.649 1041.24 192.996 1039.43 192.996C1037.61 192.996 1032.17 194.035 1031.72 193.688C1031.26 193.342 1028.09 194.381 1026.27 194.727C1026.27 194.727 1026.27 194.727 1024.91 194.381C1023.1 194.035 1023.1 194.035 1023.1 194.035C1020.83 194.381 1018.56 194.381 1017.2 194.727C1015.84 194.727 1013.11 195.42 1013.11 195.074C1013.11 194.727 1010.85 195.074 1009.48 195.766C1008.12 196.459 1003.59 195.42 1002.68 195.766C1002.68 195.766 1002.68 195.766 1002.23 195.42C1000.41 194.727 1000.41 194.727 1000.41 194.727C999.05 195.42 996.327 195.766 994.513 195.42C994.513 195.42 994.513 195.42 993.151 195.766C991.79 196.113 991.79 196.113 991.79 196.113C990.429 195.766 987.707 195.42 985.892 195.766C985.892 195.766 985.892 195.766 984.531 195.766C983.17 195.766 983.17 195.766 983.17 195.766C981.355 196.113 979.087 196.113 977.726 195.42C977.726 195.42 977.726 195.42 975.911 196.113C974.55 196.459 974.55 196.459 974.55 196.459C972.735 196.459 969.105 196.459 966.837 196.805C966.837 196.805 966.837 196.805 964.115 196.459C962.3 196.113 962.3 196.113 962.3 196.113C960.031 196.459 957.763 197.152 956.855 197.152C955.948 197.152 953.679 196.805 953.226 196.805C952.772 197.151 950.05 196.805 948.689 196.805C947.328 196.805 943.244 197.498 942.791 197.152C942.791 196.805 942.337 196.805 942.337 197.498C942.337 198.19 939.161 196.805 938.707 196.805C938.254 196.805 935.078 196.805 933.717 197.152C932.356 197.498 928.726 196.805 927.818 197.152C926.911 197.152 923.282 196.805 921.92 196.805C920.559 196.805 916.022 196.805 914.661 196.805C913.3 196.459 909.67 197.844 909.217 197.844C908.763 197.844 906.495 197.498 906.041 197.498C905.133 197.498 903.319 197.498 901.504 197.498C899.689 197.498 895.152 197.152 894.698 197.152C894.245 197.152 892.884 197.498 892.43 197.152C891.976 196.805 888.346 197.151 886.985 197.498C885.624 197.498 881.087 197.844 879.273 198.537C879.273 198.537 879.273 198.537 877.004 197.498C875.643 196.805 875.643 196.805 875.643 196.805C872.921 196.805 869.291 197.151 867.023 197.498C867.023 197.498 867.023 197.498 864.754 196.805C864.3 196.805 864.3 196.805 864.3 196.805C863.393 197.498 861.578 197.844 860.217 197.152C858.856 196.459 853.411 197.498 850.689 197.844C847.967 198.19 841.162 196.805 840.708 196.805C840.254 196.805 837.986 197.152 835.717 197.152C835.717 197.152 835.717 197.152 833.449 196.459C832.088 196.113 832.088 196.113 832.088 196.113C831.18 197.152 829.819 197.498 828.912 197.152C828.004 196.805 825.282 196.113 824.375 196.459C823.467 196.805 821.199 197.844 820.745 197.498C820.291 197.151 817.569 196.459 815.301 196.459C815.301 196.459 815.301 196.459 813.94 196.805C812.125 197.151 810.764 197.151 809.403 196.805C808.041 196.113 808.041 196.113 808.041 196.113C806.68 196.459 805.319 196.805 804.866 196.805C804.412 196.805 801.69 196.113 801.236 196.113C800.782 196.113 798.06 196.459 797.606 196.805C796.699 197.151 794.43 196.805 793.523 196.805C792.616 196.805 789.893 196.805 788.986 196.805C788.079 196.805 785.81 196.459 785.81 196.113C785.81 195.766 785.356 194.727 784.903 194.727C784.449 194.727 783.542 195.074 783.542 194.727C783.542 194.381 781.727 194.035 781.273 194.381C781.273 194.381 781.273 194.381 780.819 195.074C780.366 195.42 779.005 195.766 778.097 196.113C775.375 197.152 775.375 197.151 772.653 195.766C772.199 195.42 772.199 195.42 772.199 195.42C771.745 195.074 770.384 195.42 769.931 195.766C769.477 196.113 766.755 196.805 765.847 196.113C764.94 195.766 762.671 194.727 762.671 195.074C762.671 195.42 761.31 196.805 759.949 196.805C758.588 196.805 752.69 196.459 748.607 197.152C748.607 197.152 748.607 197.152 744.523 196.113C739.986 198.19 739.986 198.19 739.986 198.19C737.718 198.883 735.903 199.229 735.449 198.883C734.996 198.537 733.181 199.229 732.727 199.229C732.727 199.229 730.459 199.576 728.644 199.229C726.829 199.229 721.385 198.537 720.931 198.537C720.477 198.537 717.755 199.229 716.848 199.576C715.94 199.922 711.857 199.922 710.042 200.615C710.042 200.615 710.042 200.615 707.773 199.229C706.412 198.537 706.412 198.537 706.412 198.537C705.051 198.883 703.237 198.883 702.329 198.537C701.422 198.19 698.7 199.576 697.792 199.576C696.885 199.576 694.162 198.883 694.162 198.537C694.162 198.19 692.801 197.498 691.44 198.19C691.44 198.19 691.44 198.19 690.533 198.883C689.626 199.576 689.625 199.576 689.625 199.576C688.264 199.229 686.903 199.229 686.45 199.229C685.996 199.576 684.181 199.576 684.181 199.229C684.181 198.883 683.727 198.537 683.274 199.922C683.274 199.922 683.274 199.922 681.459 199.229C680.552 198.883 680.551 198.883 680.551 198.883C679.644 199.229 678.283 199.229 677.829 199.229C677.376 199.229 674.653 198.537 674.2 198.883C673.292 198.883 670.57 198.883 669.663 198.537C668.755 198.19 666.033 198.537 664.672 198.19C664.672 198.19 664.672 198.19 663.311 198.19C662.857 198.19 661.95 198.537 661.496 198.537C660.589 197.844 660.135 198.537 659.228 198.537C658.774 198.537 657.866 198.19 657.413 197.844C657.413 197.844 656.505 198.19 656.505 198.537C656.505 198.883 656.505 198.883 656.505 198.883C656.959 199.229 656.959 199.229 656.959 199.576C656.959 199.576 656.052 199.576 655.144 199.576C654.691 199.576 651.968 199.576 651.061 199.922C651.061 199.922 651.061 199.922 650.154 199.922C648.339 199.922 646.524 199.229 645.617 199.576C643.802 200.268 643.802 200.268 643.802 200.268C642.441 199.922 640.626 199.576 640.172 199.576C639.265 199.576 636.996 200.268 636.542 200.615C636.089 200.961 635.181 199.576 635.181 199.229C635.181 199.229 633.367 199.229 632.005 199.229C630.644 199.229 624.746 199.922 623.385 199.922C622.024 199.922 618.848 197.844 618.394 198.19C617.941 198.537 617.033 199.922 614.765 200.268C612.95 200.268 605.691 198.883 602.515 198.19C602.515 198.19 602.515 198.19 599.793 199.922C598.885 200.268 598.885 200.268 598.885 200.268C597.07 199.922 595.256 199.576 594.802 199.576C594.348 199.229 592.534 199.576 591.626 199.576C590.719 199.229 587.996 199.922 587.543 200.268C587.089 200.268 584.821 200.268 583.006 199.922C581.191 199.576 575.293 200.268 572.571 200.615C572.571 200.615 572.571 200.615 570.302 199.576C570.302 199.576 564.858 200.615 564.404 200.615C563.95 200.961 563.95 200.961 563.497 200.961C562.135 201.307 562.135 201.307 562.135 201.307C560.774 200.961 559.867 200.268 559.867 199.922C559.867 199.576 559.413 198.537 558.96 198.537C558.506 198.537 557.145 198.883 557.599 199.229C557.599 199.229 557.599 199.229 557.599 199.576C557.599 199.922 557.599 199.922 557.599 199.922C557.599 200.615 556.237 200.961 554.876 200.961C554.876 200.961 554.876 200.961 553.515 200.961C552.608 200.961 552.608 200.961 552.608 200.961C551.7 201.307 549.432 201.307 548.071 201.307C546.71 201.307 542.173 200.961 541.265 200.961C540.358 201.307 537.636 200.615 536.728 200.961C535.821 201.307 533.099 200.615 532.645 200.961C532.645 200.961 532.645 200.961 532.191 200.961C529.923 201.307 528.108 200.961 525.839 200.615C524.025 200.268 524.025 200.268 524.025 200.268C521.302 200.268 518.58 200.268 517.673 200.268C516.765 200.268 515.858 198.883 514.951 199.922C514.951 199.922 514.951 199.922 514.497 200.268C514.043 200.615 514.043 200.615 514.043 200.615C513.589 200.961 512.228 201.307 510.867 201.654C509.506 202 504.969 200.615 504.062 200.615C503.154 200.615 501.793 200.615 501.34 200.615C500.886 200.615 498.617 200.615 498.164 200.615C497.71 200.615 494.534 200.615 493.173 200.615C491.812 200.615 488.182 199.922 488.182 199.576C488.182 199.229 487.275 199.922 486.367 200.961C486.367 200.961 486.367 200.961 484.099 199.922C483.645 199.576 481.83 200.961 480.469 200.961C479.108 200.961 479.108 200.961 479.108 200.961C477.747 200.615 475.479 200.961 474.118 202C474.118 202 474.118 202 472.303 200.961C471.395 200.268 471.395 200.268 471.395 200.268C469.581 199.922 467.766 199.576 467.312 199.922C466.858 200.268 465.497 201.307 465.043 200.615C464.59 200.268 462.775 199.576 461.868 200.268C461.868 200.268 461.868 200.268 460.96 200.615C460.506 200.615 459.145 200.615 459.145 200.615C459.145 198.883 459.145 198.883 459.145 198.883C456.877 198.537 454.608 198.537 454.608 198.883C454.608 199.576 453.247 200.268 451.886 200.268C451.886 200.268 451.886 200.268 450.979 200.615C450.071 200.615 449.618 201.307 449.618 200.268C449.618 199.229 448.257 199.229 447.803 199.576C445.534 200.615 443.266 199.922 440.997 200.268C439.183 200.268 439.183 200.268 439.183 200.268C437.368 200.615 435.553 200.615 435.553 200.615C435.553 200.615 435.553 200.615 435.099 200.615C433.284 200.268 433.284 200.268 433.284 200.268C430.562 199.922 429.201 199.576 430.108 199.229C431.016 198.883 429.201 197.844 429.201 197.498C429.201 197.151 427.84 196.805 427.84 197.498C427.84 198.19 426.933 200.268 426.025 199.922C426.025 199.922 426.025 199.922 425.572 199.576C424.664 199.229 424.664 199.229 424.664 199.229C424.21 198.537 422.396 198.19 421.488 198.537C420.581 198.883 416.951 199.229 416.497 198.883C416.044 198.19 414.229 197.152 413.322 197.844C413.322 197.844 413.322 197.844 413.322 198.537C413.322 200.268 413.322 200.268 413.322 200.268C411.96 200.268 409.238 200.268 407.877 199.922C406.516 199.576 401.979 199.922 401.525 199.922C401.072 199.922 399.711 199.576 398.803 199.229C397.896 198.883 394.266 199.229 392.905 199.576C392.905 199.576 392.905 199.576 391.998 199.229C391.09 198.883 391.09 198.883 391.09 198.883C390.183 197.844 388.822 197.151 387.914 197.498C387.007 197.844 384.738 198.883 384.738 199.229C384.738 199.229 384.738 199.229 384.738 199.576C384.738 199.922 384.738 199.922 384.738 199.922C384.738 200.268 384.285 200.268 383.831 200.268C383.377 200.268 382.47 199.576 381.562 198.883C380.655 198.19 377.933 199.576 377.479 199.576C377.025 199.576 375.211 199.229 374.303 199.229C374.303 199.229 374.303 199.229 374.303 198.883C373.85 197.844 373.85 197.844 373.85 197.844C375.211 197.844 377.025 197.844 377.933 197.844C378.84 197.844 379.294 195.766 378.387 195.766C377.479 195.766 374.303 195.766 374.303 196.459C374.303 196.459 374.303 196.459 373.85 197.152C373.396 197.844 372.488 198.883 371.581 198.883C369.313 198.883 371.127 197.498 370.22 196.805C370.22 196.805 368.859 197.152 367.951 198.19C367.044 198.883 362.053 198.883 360.692 198.883C359.331 198.883 357.516 197.152 357.063 197.844C356.609 198.537 359.785 199.229 360.239 199.229C360.239 199.229 360.692 199.922 360.239 200.268C360.239 200.268 360.239 200.268 359.785 200.268C358.877 200.268 358.877 200.268 358.877 200.268C357.97 199.922 356.155 199.229 354.794 198.19C354.794 198.19 354.794 198.19 354.34 195.074C354.34 194.727 352.526 194.035 352.526 194.035C348.442 196.113 349.803 193.688 349.35 192.649C348.896 192.303 348.442 192.649 348.442 193.342C348.442 194.035 347.535 195.42 346.628 194.727C345.72 194.035 344.359 196.805 343.905 197.152C343.452 197.498 342.091 199.229 341.637 199.229C341.183 199.229 338.007 199.229 335.739 199.229C335.739 199.229 335.739 199.229 333.47 199.229C333.017 199.229 333.017 199.229 333.017 199.229C332.563 199.229 332.109 199.229 332.109 198.883C332.109 198.537 332.109 197.844 332.109 197.498C332.109 197.151 333.924 195.766 334.831 196.113C334.831 196.113 334.831 196.113 335.739 196.113C336.646 196.113 336.646 196.113 336.646 196.113C337.1 196.459 338.461 196.805 339.822 197.152C339.822 197.152 339.822 197.152 340.729 197.152C341.183 197.152 342.091 197.151 342.091 196.805C342.544 196.113 342.544 196.113 342.544 196.113C342.998 195.074 344.359 194.381 345.266 194.381C345.266 194.381 345.266 194.381 345.72 194.035C346.628 193.342 346.628 192.303 347.081 191.957C348.896 190.918 348.896 190.918 348.896 190.918C347.989 190.225 346.628 189.532 346.174 189.186C345.72 189.186 343.905 189.532 343.905 190.571C343.905 191.61 342.544 194.381 341.183 194.381C341.183 194.381 341.183 194.381 340.276 195.074C339.368 195.766 338.461 196.113 336.646 195.42C335.739 196.113 335.739 196.113 335.739 196.113ZM350.257 188.147C349.35 187.801 347.989 187.801 347.989 187.801C347.989 187.801 347.989 188.493 348.896 188.84C349.35 189.186 352.979 189.532 354.794 188.84C354.794 188.84 354.794 188.84 356.609 189.879C356.609 189.879 357.516 189.879 357.516 189.532C357.97 189.186 357.97 189.186 357.97 189.186C358.877 188.493 358.877 187.801 357.516 187.801C356.155 187.801 351.618 188.493 350.257 188.147ZM317.591 189.879C316.23 190.225 315.322 190.918 315.776 191.61C316.23 192.303 319.405 190.918 319.859 190.571C320.313 190.225 323.942 190.225 324.85 190.225C325.757 190.225 329.387 189.879 328.933 189.186C328.479 188.493 325.304 189.186 324.396 189.186C323.489 189.186 321.22 189.186 319.859 188.84C319.859 188.84 319.859 188.84 318.498 189.186C317.591 189.879 317.591 189.879 317.591 189.879ZM1108.85 93.255C1110.21 93.6013 1110.66 93.255 1110.21 92.5623C1109.75 91.8697 1107.48 89.4454 1106.58 88.0601C1106.58 88.0601 1106.58 88.0601 1104.76 89.7917C1103.4 91.177 1103.4 91.177 1103.4 91.177C1102.04 90.8307 1101.59 90.4844 1102.49 90.8307C1103.4 90.8307 1107.48 92.9086 1108.85 93.255ZM582.098 190.225C580.737 190.225 578.922 190.571 578.922 190.918C579.376 191.61 579.376 191.61 579.376 191.61C578.922 192.303 578.922 192.996 579.83 193.342C580.284 193.688 582.552 192.649 583.913 192.649C584.367 191.957 583.459 190.225 582.098 190.225ZM1128.35 92.216C1127.45 91.177 1126.99 91.177 1127.45 92.216C1127.9 93.255 1131.53 94.2939 1132.44 94.2939C1132.44 94.2939 1132.44 94.2939 1132.44 93.255C1132.44 92.9086 1132.44 92.9086 1132.44 92.9086C1133.35 91.8697 1132.44 91.8697 1130.17 92.9086C1130.17 92.9086 1130.17 92.9086 1129.26 92.5623C1128.35 92.216 1128.35 92.216 1128.35 92.216ZM307.156 188.84C304.433 189.186 303.072 189.532 304.433 189.532C305.341 189.532 308.517 190.571 308.97 190.918C309.878 191.264 312.146 191.61 312.146 191.264C312.146 190.918 311.239 189.532 309.878 189.879C309.878 189.879 309.878 189.879 309.424 189.879C307.156 188.84 307.156 188.84 307.156 188.84ZM418.766 192.303C418.312 192.303 418.312 193.342 419.22 194.727C419.22 194.727 419.22 194.727 420.581 195.074C421.942 195.766 421.942 195.766 421.942 195.766C423.303 196.459 425.118 196.805 426.025 196.805C426.025 196.805 426.025 196.805 426.025 196.459C426.479 196.113 426.479 196.113 426.479 196.113C426.479 195.42 425.118 195.074 423.303 195.074C423.303 195.074 423.303 195.074 422.396 194.727C421.488 194.381 421.488 194.381 421.488 194.381C421.035 193.342 419.22 192.303 418.766 192.303ZM786.718 192.303C787.625 191.957 787.625 191.61 787.171 191.264C786.717 190.918 784.903 189.879 784.449 189.532C783.995 189.186 782.18 189.532 782.634 190.571C783.088 191.61 786.264 192.303 786.718 192.303ZM382.47 194.035C382.016 192.996 382.016 192.996 382.47 194.035C382.47 194.727 382.016 196.805 382.924 196.805C383.831 196.805 382.47 195.074 382.47 194.035ZM34.4813 130.311C35.3887 130.311 35.8424 129.965 35.8424 129.272C34.0276 129.272 33.5739 128.58 33.5739 127.541C33.5739 127.194 33.5739 127.194 33.5739 127.194C33.1202 126.502 32.6665 126.848 31.7591 127.541C31.3054 128.58 33.5739 129.965 34.4813 130.311ZM19.0554 146.935C19.0554 146.589 18.148 146.242 17.6943 145.896C17.6943 145.896 17.6943 145.896 17.2406 145.55C16.7869 145.203 16.3332 144.857 15.4258 145.203C14.5184 145.55 14.0647 145.896 15.4258 146.589C16.3332 146.935 14.5184 148.666 16.7869 148.666C17.2406 148.666 18.148 147.627 19.0554 146.935Z" fill="#00659E"/>
</svg>
