<svg width="876" height="355" viewBox="0 0 876 355" fill="none" xmlns="http://www.w3.org/2000/svg">
<path d="M874.913 200.485C873.565 196.027 871.55 193.994 869.001 193.9C868.11 193.867 867.218 193.834 866.323 194.046C863.004 194.413 859.685 194.78 856.372 194.658C853.059 194.535 849.743 194.658 846.427 194.78C843.621 194.921 840.948 194.578 838.417 193.015C837.279 192.238 836.002 192.436 834.858 192.149C834.097 191.876 833.723 191.128 833.987 190.403C834.12 189.918 834.506 189.687 834.76 189.697C838.079 189.33 841.398 188.962 844.714 188.84C851.989 188.129 859.261 187.663 866.536 186.952C866.791 186.962 867.052 186.482 867.31 186.246C867.44 186.006 867.576 185.277 867.576 185.277C867.327 184.778 867.078 184.279 866.824 184.27C864.657 184.19 862.625 183.625 860.452 184.034C857.898 184.43 855.759 182.147 853.346 181.323C852.457 181.045 851.565 181.012 850.674 180.98C848.252 180.89 845.831 180.801 843.41 180.711C843.156 180.702 842.907 180.203 842.655 179.949C842.913 179.713 843.046 179.229 843.304 178.993C845.992 178.113 848.67 177.967 851.48 177.581C853.267 177.402 855.053 177.223 856.968 177.049C859.137 176.885 860.832 173.764 863.004 173.354C863.772 173.138 864.038 172.168 863.792 171.424C863.671 170.93 863.292 170.671 863.037 170.662C861.256 170.351 859.344 170.281 857.563 169.97C856.671 169.937 855.782 169.659 854.896 169.137C852.624 167.339 850.206 167.005 847.785 166.915C846.255 166.859 844.726 166.802 843.337 165.772C841.947 164.741 840.421 164.44 838.892 164.383C835.576 164.506 832.254 165.117 828.95 164.261C828.695 164.251 828.446 163.752 828.197 163.254C828.327 163.014 828.461 162.529 828.591 162.289C832.18 160.707 835.869 161.333 839.443 160.975C845.186 160.453 850.926 160.175 856.666 159.897C857.558 159.93 858.461 158.984 859.11 158.029C859.887 157.078 860.414 155.628 861.191 154.677C861.967 153.727 862.74 153.021 863.757 153.303C866.934 154.155 866.934 154.155 868.872 152.023C869.129 151.787 869.266 151.058 869.399 150.573C869.402 150.328 869.284 149.589 869.032 149.335C867.393 147.805 865.612 147.495 863.834 146.939C863.579 146.93 863.194 147.161 862.936 147.396C861.135 148.799 859.354 148.488 857.584 147.198C855.815 145.909 854.168 145.113 852.253 145.287C851.361 145.254 850.47 145.221 849.575 145.433C848.043 145.621 846.653 144.591 845.266 143.315C844.762 142.807 844.261 142.054 844.018 141.065C844.018 141.065 844.537 140.35 844.792 140.359C847.734 139.488 850.793 139.601 853.854 139.47C856.915 139.338 859.973 139.451 862.921 138.09C863.179 137.855 863.44 137.375 863.698 137.14C863.576 136.645 863.455 136.151 863.203 135.897C860.927 134.344 858.37 134.984 856.097 133.186C855.338 132.668 854.316 132.875 853.424 132.842C851.003 132.753 848.579 132.908 846.158 132.819C845.521 132.795 845.017 132.287 844.383 132.019C844.256 132.014 844.265 131.28 844.267 131.035C844.922 129.59 845.814 129.623 846.588 128.917C846.846 128.681 847.106 128.201 847.24 127.717C847.379 126.742 847.136 125.754 846.635 125.001C845.886 123.749 845 123.226 844.108 123.193C839.903 123.038 835.57 122.878 831.362 122.967C828.687 122.869 825.88 123.01 823.201 123.156C820.777 123.311 818.359 122.977 816.084 121.424C815.325 120.906 814.303 121.113 813.408 121.325C812.513 121.537 811.736 122.487 810.838 122.944C809.3 123.622 807.899 123.57 806.382 122.535C805.878 122.026 805.244 121.758 804.74 121.25C804.109 120.736 803.738 119.743 803.878 118.769C803.884 118.28 804.396 118.054 804.651 118.063C806.823 117.653 808.865 117.484 811.037 117.075C813.206 116.91 815.372 116.99 817.423 116.086C819.474 115.182 821.406 113.54 823.456 112.636C823.714 112.4 824.099 112.17 824.23 111.93C826.046 109.303 827.679 111.323 829.327 112.118C829.961 112.386 830.601 112.165 830.995 111.2C831.125 110.96 831.01 109.976 830.888 109.482C830.405 107.261 831.306 106.559 831.958 105.359C832.089 105.119 832.225 104.389 832.231 103.9C832.234 103.655 831.988 102.911 831.733 102.902C830.844 102.624 829.955 102.347 829.063 102.314C825.113 102.168 821.151 103.001 817.207 102.365C816.952 102.356 816.576 101.852 816.451 101.603C816.333 100.864 816.851 100.149 817.491 99.9273C819.921 99.2824 822.342 99.3719 824.766 99.2165C827.442 99.3154 830.251 98.9294 832.939 98.0492C833.194 98.0586 833.582 97.5832 833.713 97.3431C833.843 97.1031 833.979 96.3735 833.985 95.884C833.656 91.4643 835.437 91.7749 836.851 90.8476C837.109 90.6123 837.242 90.1275 837.375 89.6427C837.378 89.3979 837.129 88.899 837.005 88.6495C836.753 88.3953 836.501 88.1412 836.119 88.1271C831.022 87.9388 825.795 87.9906 820.698 87.8024C820.443 87.793 819.939 87.2846 819.942 87.0399C819.951 86.3056 820.342 85.5854 821.107 85.6137C823.789 85.223 826.595 85.0818 829.277 84.6911C829.914 84.7146 830.426 84.4887 831.067 84.2675C831.834 84.0509 832.886 81.3962 832.513 80.6479C832.139 79.8995 831.645 78.6568 831.262 78.6427C828.592 78.0544 825.789 77.9509 823.113 77.852C821.966 77.8097 820.692 77.7626 819.554 76.986C816.644 75.1644 813.586 75.0515 810.528 74.9385C808.107 74.8491 805.686 74.7597 803.262 74.915C801.733 74.8586 800.343 73.8278 798.956 72.5522C798.325 72.0392 797.952 71.2908 797.964 70.3118C797.967 70.067 798.479 69.8411 798.737 69.6057C798.995 69.3704 799.377 69.3845 799.632 69.3939C803.594 68.5608 807.547 68.4619 811.5 68.363C813.924 68.2077 816.345 68.2971 818.654 67.158C818.911 66.9227 819.045 66.4379 819.303 66.2025C819.051 65.9484 818.802 65.4494 818.547 65.44C817.658 65.1623 816.766 65.1294 815.874 65.0964C808.86 65.3271 801.976 65.3177 794.962 65.5484C791.391 65.6614 787.684 66.504 784.149 63.6798C782.623 63.3786 781.094 63.3221 779.564 63.2657C777.398 63.1857 775.351 63.8446 773.193 63.0304C772.938 63.0209 772.562 62.5173 772.441 62.0231C772.322 61.2841 772.841 60.5687 773.481 60.3474C777.446 59.2695 781.393 59.6602 785.224 59.0671C785.992 58.8506 786.259 57.881 786.013 57.1373C785.891 56.6431 785.512 56.3842 785.257 56.3748C783.728 56.3183 782.199 56.2618 780.67 56.2053C778.249 56.1159 775.828 56.0265 773.558 53.9837C772.802 53.2212 771.783 53.1836 770.891 53.1506C767.836 52.7929 764.905 52.6847 761.847 52.5717C761.592 52.5623 761.471 52.0681 761.219 51.8139C761.479 51.3338 761.613 50.849 761.871 50.6137C763.409 49.9359 764.701 48.5144 766.117 47.3424C767.537 45.9256 769.066 45.9821 770.449 47.5024C771.584 48.5238 772.725 49.0556 773.999 49.1027C780.116 49.3286 786.108 49.305 792.111 48.3024C793.389 48.1047 794.532 48.3918 795.67 49.1685C797.06 50.1993 798.58 50.99 800.112 50.8017C806.744 50.5569 813.503 50.3168 820.135 50.0721C820.773 50.0956 821.285 49.8697 821.928 49.4037C822.186 49.1683 822.447 48.6882 822.705 48.4529C822.453 48.1987 822.204 47.6998 821.952 47.4456C821.7 47.1914 821.448 46.9373 821.066 46.9231C819.792 46.8761 818.645 46.8337 817.371 46.7867C815.842 46.7302 814.458 45.2099 812.935 44.6639C812.3 44.3956 811.788 44.6215 811.142 45.3323C809.079 47.215 807.165 47.3892 805.02 45.5959C803.885 44.5745 802.741 44.2874 801.467 44.2403C799.3 44.1603 797.268 43.5955 795.247 42.0517C794.361 41.5292 793.469 41.4963 792.577 41.4633C789.518 41.3504 786.457 41.4822 783.527 41.374C781.357 41.5387 779.322 41.2187 777.301 39.6748C776.415 39.1524 775.526 38.8747 774.634 38.8417C770.938 38.7052 767.368 38.8182 763.672 38.6817C762.398 38.6347 761.251 38.5923 760.116 37.5709C758.727 36.5401 757.204 35.9942 755.674 35.9377C752.616 35.8247 749.555 35.9565 746.624 35.8483C743.949 35.7495 741.139 36.1355 738.487 34.0786C737.729 33.5608 736.709 33.5232 735.817 33.4902C731.867 33.3443 727.914 33.4432 723.964 33.2973C723.072 33.2644 722.183 32.9867 721.294 32.709C721.039 32.6996 720.663 32.1959 720.666 31.9512C720.544 31.4569 720.681 30.7274 720.814 30.2426C721.342 28.7928 722.118 27.842 723.016 27.3855C724.169 26.9383 725.443 26.9854 726.599 26.2935C727.239 26.0722 727.636 24.8626 727.39 24.1189C727.268 23.6247 726.892 23.121 726.637 23.1116C724.471 23.0316 722.435 22.7115 720.269 22.6315C718.74 22.5751 717.211 22.5186 715.821 21.4878C714.683 20.7112 713.412 20.4194 712.265 20.377C710.099 20.297 708.06 20.2217 705.894 20.1417C704.11 20.0758 702.329 19.7652 700.56 18.4755C700.053 18.2119 699.419 17.9436 698.782 17.9201C693.685 17.7318 688.461 17.5389 683.358 17.8402C680.042 17.9626 676.732 17.5954 673.416 17.7178C672.142 17.6708 671.001 17.1389 669.86 16.607C668.974 16.0846 668.085 15.8069 667.193 15.7739C664.135 15.661 661.074 15.7928 658.143 15.6846C655.085 15.5716 652.151 15.7081 649.114 13.8819C647.976 13.1053 646.699 13.3029 645.549 13.5054C640.067 13.5477 634.591 13.1006 629.23 13.6372C626.806 13.7926 624.385 13.7032 622.112 11.9052C621.226 11.3827 620.337 11.105 619.445 11.072C616.132 10.9497 612.816 11.0721 609.5 11.1945C606.439 11.3263 603.378 11.4581 600.444 11.5946C598.02 11.75 595.602 11.4158 593.196 10.1026C591.424 9.05767 589.637 9.23654 587.72 9.65547C586.188 9.84375 584.771 11.0158 583.364 11.4535C581.574 11.8771 579.817 9.60844 578.03 9.78732C576.756 9.74025 575.609 9.6979 574.335 9.65084C571.914 9.56142 569.49 9.71676 567.068 9.62735C565.539 9.57087 564.013 9.26964 562.621 8.4836C561.483 7.70697 560.211 7.41515 559.062 7.61756C551.535 8.07417 543.898 7.05753 536.366 8.00365C535.471 8.21547 534.579 8.18252 533.693 7.66007C532.172 6.86932 530.771 6.81755 529.236 7.25059C528.981 7.24118 528.602 6.98231 528.347 6.9729C527.209 6.19627 526.059 6.39867 524.773 7.33064C522.459 8.95923 520.032 9.35933 517.634 7.31185C515.868 5.77742 514.078 6.20105 512.295 6.13517C510.766 6.07869 509.233 6.26698 507.817 7.439C505.754 9.32176 503.843 9.25117 501.692 7.94738C500.554 7.17075 499.277 7.36844 498.13 7.32609C494.177 7.42496 490.224 7.52382 486.268 7.86745C483.589 8.01338 480.786 7.90984 478.261 5.85766C477.123 5.08103 475.846 5.27873 474.687 6.2154C473.271 7.38742 471.736 7.82047 470.215 7.02972C469.581 6.76143 469.072 6.74261 468.429 7.20859C466.372 8.60184 464.206 8.52184 462.185 6.97799C461.047 6.20136 459.773 6.1543 458.623 6.3567C457.088 6.78975 455.671 7.96177 454.264 8.39952C452.471 9.0679 450.717 6.55444 448.927 6.97807C447.137 7.4017 445.347 7.82533 443.554 8.49372C441.779 7.69356 440.004 6.8934 438.217 7.07227C437.963 7.06286 437.58 7.04874 437.326 7.03933C425.209 7.57128 413.092 8.10322 400.977 8.39042C399.703 8.34335 398.559 8.05624 397.419 7.52437C396.784 7.25608 396.275 7.23726 395.632 7.70324C393.457 8.35751 392.049 8.79526 390.52 8.73879C388.736 8.6729 386.822 8.84707 385.041 8.53642C384.149 8.50348 383.263 7.98102 382.374 7.70332C381.74 7.43503 381.233 7.17145 380.59 7.63744C378.53 9.27544 376.486 9.68966 374.319 9.60965C370.621 9.71793 367.053 9.58616 363.358 9.44968C362.466 9.41674 361.577 9.13904 360.691 8.61658C358.667 7.3175 356.504 6.99273 354.465 6.91744C351.786 7.06337 348.98 7.20459 346.304 7.10576C345.157 7.0634 343.883 7.01634 342.745 6.23972C340.084 4.9171 337.414 4.32875 334.608 4.46998C329.123 4.75713 323.644 4.55476 318.28 5.33614C317.13 5.53854 315.856 5.49148 314.709 5.44912C312.546 5.12436 310.504 5.29382 308.335 5.45858C306.803 5.64686 305.274 5.59039 303.742 5.77867C302.468 5.73161 301.327 5.19974 300.189 4.42311C297.54 2.12146 294.855 2.75691 292.158 4.37138C291.643 4.84207 291 5.30806 290.487 5.53399C289.331 6.22591 288.054 6.4236 286.913 5.89173C286.021 5.85879 285.269 4.85152 284.377 4.81858C280.809 4.68681 277.129 3.32654 273.549 4.1738C271.635 4.34797 269.851 4.28208 268.067 4.2162C267.175 4.18325 266.289 3.6608 265.403 3.13834C264.137 2.357 262.985 2.80416 261.826 3.74084C260.925 4.44217 260.033 4.40923 259.144 4.13153C258.255 3.85382 257.369 3.33137 256.468 4.0327C254.412 5.42595 252.248 5.10118 250.204 5.5154C247.777 5.9155 245.356 5.82608 243.08 4.27283C241.942 3.4962 240.665 3.6939 239.518 3.65154C231.997 3.61864 224.346 3.82578 216.825 3.79288C214.659 3.71288 212.62 3.63758 210.469 2.33379C209.583 1.81133 208.694 1.53363 207.799 1.74544C198.106 2.12205 188.425 1.51963 178.726 2.38575C175.152 2.74349 171.457 2.60701 167.758 2.71529C166.484 2.66823 165.337 2.62588 164.199 1.84925C162.178 0.305406 160.143 -0.0146499 157.974 0.150103C148.026 0.517299 137.947 1.12454 127.994 1.98126C123.4 2.30135 118.935 2.62615 114.348 2.45673C111.038 2.08961 107.716 2.70153 104.394 3.31344C102.859 3.74648 101.451 4.18423 100.035 5.35625C98.876 6.29293 97.7262 6.49533 96.449 6.69303C90.7061 7.21552 84.9602 7.98278 79.2143 8.75003C78.0645 8.95243 76.7903 8.90537 75.6317 9.84205C73.3143 11.7154 70.8903 11.8707 68.4634 12.2708C66.0394 12.4262 63.6094 13.071 61.295 14.6996C60.5216 15.4057 59.4993 15.6128 58.6043 15.8246C56.5596 16.2388 54.3875 16.6483 52.4525 18.5358C51.679 19.2418 50.6567 19.4489 49.7617 19.6607C47.717 20.075 45.5449 20.4845 43.3728 20.894C42.4779 21.1058 41.583 21.3176 40.6821 22.0189C38.3648 23.8923 35.9408 24.0476 33.5138 24.4477C31.5995 24.6219 29.9489 24.0712 28.8437 20.6022C28.3518 19.1149 27.4687 18.3477 26.4493 18.31C24.9232 18.0088 23.3971 17.7075 21.9895 18.1453C21.7317 18.3806 21.4739 18.616 21.2131 19.0961C20.822 19.8162 20.9346 21.0447 21.305 22.0379C21.6754 23.031 22.0487 23.7794 22.5495 24.5325C23.3022 25.5398 23.9215 27.0319 24.8075 27.5543C26.704 28.8487 26.6744 31.2963 26.3839 34.224C26.2417 35.443 26.7365 36.6857 26.3453 37.4058C25.9542 38.126 25.1867 38.3425 24.674 38.5684C23.7791 38.7802 23.0116 38.9968 22.1137 39.4533C20.7742 44.7909 18.5606 48.6271 15.4816 50.2274C14.969 50.4533 14.3259 50.9193 13.8073 51.6348C11.9967 53.7717 10.8054 57.4007 8.74589 59.0387C8.48808 59.2741 8.35176 60.0036 8.09394 60.239C7.18419 61.6746 7.88345 67.0875 9.02432 67.6194C10.7964 68.6643 12.5773 68.9749 14.216 70.5046C15.8517 72.2791 17.4934 73.5641 19.0047 75.0891C19.2566 75.3433 19.5055 75.8422 19.4995 76.3317C19.3573 77.5508 18.9631 78.5157 18.4446 79.2312C17.4074 80.6621 16.2546 81.1092 14.9774 81.3069C12.8053 81.7164 10.8702 83.6039 9.05963 85.7408C8.67143 86.2162 8.27136 87.6707 8.13207 88.645C7.99278 89.6193 7.97498 91.0878 8.09054 92.0716C8.44017 94.778 9.17207 97.4986 8.7542 100.422C8.47859 102.125 9.22533 103.622 9.4594 105.345C9.91866 109.525 9.87119 113.441 8.55247 117.065C8.67395 117.559 8.40724 118.529 8.01311 119.494C7.87975 119.979 7.61897 120.459 7.61304 120.948C7.34633 121.918 7.07665 123.132 7.06181 124.356C6.89879 127.288 6.73577 130.221 6.70017 133.158C6.6616 136.34 5.74294 138.51 5.19765 141.428C5.05539 142.647 4.9161 143.621 4.90127 144.845C4.86567 147.782 4.83007 150.719 4.92189 153.661C5.00778 157.092 4.7114 160.51 3.90533 163.908C3.3719 165.847 2.95997 168.281 2.551 170.469C2.00571 173.388 1.97307 176.08 2.31974 179.031C2.55382 180.754 2.7879 182.477 3.15236 183.959C3.51386 185.687 3.74794 187.409 3.47233 189.113C2.38471 194.705 1.93421 200.32 2.50012 206.218C2.71937 209.165 2.42892 212.092 1.8866 214.766C1.61692 215.98 1.60505 216.959 1.84506 218.192C2.56213 222.137 2.51169 226.298 2.71907 230.223C2.83166 231.452 2.6894 232.671 2.55012 233.645C2.14115 235.834 1.60476 238.018 1.32321 240.211C1.04166 242.405 1.012 244.852 0.348182 247.031C0.0785031 248.246 0.0666362 249.225 0.306648 250.458C1.26076 255.88 1.31402 262.004 2.91117 266.96C3.15415 267.949 3.26674 269.177 3.25191 270.401C3.18664 275.786 4.78677 280.497 5.36454 285.416C5.4801 286.4 5.97792 287.398 6.34833 288.391C6.9706 289.638 7.59288 290.885 8.21516 292.133C12.4526 300.125 12.4526 300.125 17.8754 304.978C20.3972 307.275 22.9248 309.082 25.3162 311.619C28.0869 314.415 31.1391 315.017 33.9157 317.324C36.1885 319.122 38.4703 320.186 40.8765 321.499C44.1865 321.866 47.3394 324.676 50.6465 325.288C53.8113 327.119 57.1124 328.22 60.4224 328.587C60.6773 328.597 61.0566 328.855 61.3114 328.865C63.5842 330.663 66.0053 330.752 68.4263 330.842C71.7393 330.964 75.0582 330.597 78.3415 333.167C79.8676 333.468 81.3967 333.525 82.9228 333.826C84.4489 334.127 85.978 334.183 87.3707 334.97C89.3947 336.269 91.5608 336.349 93.5996 336.424C96.2755 336.523 99.0818 336.382 101.758 336.48C102.904 336.523 104.179 336.57 105.317 337.346C107.34 338.645 109.376 338.966 111.542 339.046C115.744 339.446 120.089 338.627 124.137 341.225C125.023 341.747 125.918 341.535 126.809 341.568C131.652 341.747 136.497 341.681 141.342 341.615C142.488 341.658 143.766 341.46 144.903 342.237C147.559 344.049 150.237 343.903 153.044 343.762C158.144 343.705 163.371 343.653 168.471 343.597C170 343.653 171.532 343.465 172.922 344.496C174.694 345.541 176.475 345.851 178.259 345.917C181.954 346.054 185.525 345.941 189.22 346.077C190.367 346.12 191.641 346.167 192.782 346.698C194.806 347.998 196.972 348.078 199.011 348.153C203.598 348.322 208.061 348.242 212.651 348.167C215.072 348.256 217.493 348.346 219.899 349.659C221.292 350.445 222.948 350.506 224.353 350.313C228.306 350.214 232.259 350.115 236.215 349.772C237.489 349.819 238.642 349.372 239.801 348.435C242.124 346.072 244.424 345.667 246.687 348.2C247.443 348.962 248.46 349.245 249.351 349.277C250.881 349.334 252.413 349.146 253.939 349.447C254.831 349.48 255.85 349.517 256.606 350.28C258.879 352.078 261.303 351.923 263.724 352.012C270.993 351.791 278.262 351.57 285.531 351.348C287.955 351.193 290.376 351.282 292.779 352.84C293.665 353.363 294.557 353.396 295.449 353.429C302.721 352.963 309.987 352.986 317.253 353.01C323.882 353.01 330.523 352.031 337.279 352.035C339.955 352.134 342.761 351.993 345.419 353.56C346.305 354.083 347.197 354.116 348.089 354.149C353.82 354.605 359.557 354.572 365.425 354.299C376.013 353.711 386.609 352.388 397.188 352.534C398.335 352.576 399.615 352.134 400.762 352.176C405.865 351.875 411.098 351.333 416.195 351.522C420.145 351.668 424.098 351.569 428.054 351.225C434.177 350.961 440.171 350.693 446.294 350.43C447.568 350.477 448.715 350.519 449.856 351.051C450.49 351.319 450.996 351.583 451.64 351.117C454.081 349.493 456.369 350.067 458.772 351.625C460.165 352.411 461.691 352.712 463.078 353.988C464.337 355.259 465.496 354.322 466.284 352.392C467.336 349.737 468.619 349.05 470.276 349.111C472.06 349.177 473.847 348.998 475.619 350.043C477.391 351.088 479.169 351.644 480.944 352.444C481.578 352.712 482.085 352.976 482.728 352.51C484.144 351.338 485.679 350.905 487.211 350.716C491.164 350.618 495.117 350.519 499.07 350.42C499.962 350.453 500.854 350.486 501.746 350.519C504.046 350.114 505.32 350.161 507.039 345.082C507.436 343.872 507.952 343.402 508.583 343.915C510.861 345.223 513.137 346.777 515.692 346.381C517.609 345.962 519.251 347.247 520.623 349.747C521.245 350.994 522.131 351.516 523.038 350.326C523.296 350.09 523.553 349.855 523.811 349.619C524.712 348.918 525.607 348.706 526.49 349.474C528.763 351.272 531.048 352.091 533.599 351.94C539.721 351.676 545.713 351.653 551.835 351.389C553.364 351.446 554.887 351.992 556.277 353.022C557.16 353.79 558.055 353.578 558.956 352.876C561.534 350.523 564.21 350.622 566.996 352.194C567.63 352.462 568.133 352.97 568.771 352.994C569.408 353.018 570.042 353.286 570.557 352.815C571.713 352.123 572.875 350.942 574.028 350.495C577.349 349.883 580.665 349.76 583.961 351.351C587.256 352.942 590.572 352.82 593.784 350.735C596.996 348.649 600.312 348.527 603.604 350.363C605.376 351.408 607.163 351.229 608.956 350.56C609.211 350.57 609.472 350.09 609.854 350.104C610.494 349.883 611.01 349.412 611.65 349.191C612.675 348.739 613.555 349.751 614.05 350.993C615.283 354.467 616.936 354.773 618.857 354.109C619.497 353.888 620.009 353.662 620.652 353.196C622.97 351.323 625.4 350.678 627.696 350.518C629.483 350.339 631.27 350.16 633.181 350.231C642.865 350.588 652.561 349.967 662.263 348.856C663.795 348.668 665.324 348.724 666.851 349.026C667.36 349.044 668.116 349.807 668.362 350.551C669.343 353.77 670.62 353.572 672.164 352.405C674.478 350.777 676.899 350.866 679.217 348.993C680.891 347.585 682.799 347.901 684.568 349.19C686.086 350.226 687.484 350.522 688.904 349.105C689.935 348.164 691.218 347.477 692.368 347.274C693.263 347.063 694.155 347.096 695.047 347.129C700.786 346.851 706.526 346.573 712.269 346.051C714.056 345.872 715.843 345.693 717.645 344.29C718.804 343.353 719.956 342.906 721.231 342.953C727.228 342.44 733.353 341.932 739.354 341.174C740.631 340.976 741.784 340.529 742.815 339.588C744.232 338.416 745.524 336.994 746.94 335.822C747.456 335.352 748.09 335.62 748.588 336.618C749.838 338.623 751.098 339.894 752.769 338.731C754.826 337.338 756.989 337.663 759.034 337.248C760.183 337.046 761.461 336.848 762.495 335.662C764.433 333.53 766.478 333.116 768.647 332.951C770.813 333.031 772.852 333.106 775.021 332.942C777.187 333.022 779.235 332.363 781.294 330.725C782.195 330.023 783.081 330.546 783.967 331.068C784.856 331.346 785.878 331.139 786.406 329.689C787.197 327.514 787.977 326.319 789.366 327.35C790.252 327.872 791.147 327.66 792.048 326.959C793.468 325.542 794.878 324.86 796.407 324.916C797.681 324.963 798.828 325.006 800.102 325.053C801.632 325.109 803.167 324.676 804.459 323.255C805.62 322.073 806.758 322.85 807.899 323.382C808.154 323.391 808.536 323.405 808.794 323.17C809.309 322.699 809.828 321.984 809.97 320.765C810.116 319.301 809.87 318.557 809.108 318.284C806.062 317.192 803.122 317.818 800.064 317.705C799.172 317.672 798.277 317.884 797.382 318.096C796.105 318.294 794.949 318.985 793.918 319.927C793.014 320.873 792.122 320.84 791.236 320.318C787.695 317.983 784.13 317.606 780.648 320.906C779.747 321.607 778.977 322.069 777.958 322.031C771.963 322.299 765.838 322.808 759.852 322.342C759.597 322.332 759.093 321.824 759.096 321.579C759.105 320.845 759.621 320.374 760.261 320.153C762.943 319.762 765.743 320.111 768.078 316.769C768.336 316.533 768.718 316.547 768.976 316.312C771.024 315.653 773.077 314.505 775.012 312.617C775.528 312.147 776.168 311.925 776.805 311.949C779.229 311.793 781.653 311.638 783.923 313.681C784.427 314.189 785.194 313.973 785.707 313.747C786.605 313.29 787.381 312.339 788.155 311.633C789.571 310.461 790.863 309.04 792.277 308.113C793.432 307.421 794.704 307.713 795.859 307.021C797.012 306.573 798.046 305.387 799.329 304.7C799.842 304.474 800.476 304.742 801.11 305.011C801.744 305.279 802.251 305.543 802.894 305.077C803.668 304.371 804.569 303.669 805.345 302.718C805.603 302.483 805.739 301.754 805.745 301.264C805.748 301.019 805.372 300.516 805.117 300.506C801.176 299.626 797.214 300.459 793.388 300.563C790.072 300.685 786.756 300.808 783.44 300.93C782.803 300.906 782.166 300.883 781.659 300.619C781.152 300.356 780.655 299.358 780.281 298.61C779.783 297.612 780.832 295.202 781.852 295.239C787.343 294.463 792.704 293.926 798.195 293.149C800.876 292.759 803.683 292.618 806.255 290.754C807.286 289.812 808.685 290.109 809.837 289.662C810.732 289.45 811.63 288.993 812.404 288.287C813.047 287.821 813.314 286.852 813.456 285.632C813.598 284.413 813.355 283.425 812.596 282.907C812.09 282.644 811.459 282.131 810.952 281.867C809.168 281.801 807.259 281.486 805.47 281.909C797.555 282.841 789.779 282.799 781.876 282.752C781.621 282.743 781.242 282.484 780.99 282.23C780.862 282.225 780.744 281.486 780.871 281.491C781.129 281.255 781.39 280.775 781.648 280.54C782.797 280.337 784.075 280.14 785.224 279.937C786.756 279.749 788.048 278.328 789.465 277.156C789.98 276.685 790.621 276.464 791.258 276.487C792.153 276.275 793.045 276.308 793.939 276.096C798.787 275.786 803.638 275.23 808.486 274.92C809.764 274.722 810.792 274.025 811.953 272.844C812.211 272.609 812.469 272.373 812.727 272.138C813.5 271.432 814.274 270.726 814.549 269.022C814.049 268.269 813.542 268.005 812.905 267.982C809.844 268.113 806.786 268.001 803.852 268.137C801.686 268.057 799.641 268.471 797.481 267.902C797.226 267.892 797.104 267.398 796.853 267.144C797.11 266.909 797.371 266.428 797.629 266.193C798.269 265.972 798.782 265.746 799.419 265.77C803.253 264.932 803.253 264.932 808.258 262.178C808.771 261.952 809.408 261.976 810.045 261.999C810.682 262.023 811.186 262.531 811.82 262.799C813.335 264.08 814.739 263.887 816.159 262.47C816.932 261.764 817.83 261.307 818.725 261.095C820.515 260.672 822.302 260.493 824.216 260.319C824.471 260.328 824.732 259.848 824.989 259.613C825.12 259.373 825.253 258.888 825.383 258.648C825.132 258.394 824.886 257.65 824.631 257.641C819.54 256.963 814.31 257.259 809.204 257.805C807.035 257.97 804.99 258.384 802.836 257.325C802.581 257.316 802.459 256.822 802.335 256.572C802.593 256.337 802.853 255.857 803.111 255.621C804.261 255.419 805.541 254.977 806.688 255.019C815.486 254.854 824.299 253.466 833.1 253.056C833.992 253.089 834.89 252.632 835.788 252.176C836.431 251.71 836.698 250.74 836.712 249.516C836.727 248.293 836.357 247.3 835.723 247.031C835.216 246.768 834.582 246.499 833.945 246.476C832.798 246.433 831.524 246.386 830.249 246.339C829.995 246.33 829.618 245.826 829.494 245.577C829.248 244.833 829.515 243.864 830.279 243.892C836.662 243.148 843.042 242.649 849.298 241.901C849.552 241.91 849.813 241.43 850.074 240.95C850.338 240.225 850.095 239.237 849.33 239.208C837.213 239.74 825.108 239.293 812.985 240.315C810.306 240.461 807.503 240.357 804.827 240.258C804.572 240.249 804.193 239.99 804.072 239.496C803.823 238.997 804.086 238.272 804.984 237.815C807.29 236.921 809.829 237.749 812.028 235.137C812.544 234.666 813.181 234.69 813.812 235.203C814.95 235.98 816.091 236.511 817.365 236.559C819.789 236.403 822.213 236.248 824.637 236.093C826.297 235.909 827.461 234.483 828.258 231.819C828.658 230.364 829.562 229.418 830.339 228.467C831.888 226.811 833.687 225.653 835.477 225.229C837.907 224.584 840.319 225.408 842.63 224.024C842.761 223.784 842.894 223.299 843.152 223.064C842.9 222.81 842.651 222.311 842.396 222.301C836.662 222.089 830.928 221.878 825.194 221.666C824.939 221.657 824.56 221.398 824.305 221.388C823.544 221.115 823.17 220.367 823.185 219.143C823.2 217.919 823.591 217.199 824.234 216.733C825.132 216.277 826.012 217.289 826.904 217.321C828.054 217.119 829.213 216.182 830.365 215.735C831.263 215.279 832.158 215.067 833.05 215.1C835.474 214.944 837.898 214.789 840.322 214.634C842.491 214.469 844.533 214.3 846.593 212.662C848.374 212.972 850.166 212.304 851.962 211.391C853.118 210.699 854.386 211.235 855.521 212.257C856.404 213.024 857.296 213.057 858.194 212.6C860.505 211.216 862.938 210.327 865.01 207.71C866.69 205.813 868.471 206.124 870.249 206.679C870.504 206.688 870.883 206.947 871.135 207.201C871.639 207.71 872.27 208.223 872.777 208.486C873.79 209.014 874.566 208.063 875.215 207.107C875.257 203.681 875.405 201.972 874.913 200.485ZM532.562 342.842C531.145 344.014 529.741 344.207 528.221 343.416C527.587 343.147 527.346 341.914 527.231 340.931C527.246 339.707 527.513 338.737 528.028 338.266C528.802 337.56 529.821 337.598 530.579 338.116C531.59 338.888 532.598 339.904 533.608 340.676C533.469 341.651 533.075 342.616 532.562 342.842ZM559.751 329.398C559.49 329.879 559.356 330.363 559.099 330.599C557.027 333.216 554.834 335.339 552.41 335.494C550.241 335.659 548.199 335.828 546.261 337.96C546.004 338.196 545.618 338.426 545.364 338.417C543.209 337.358 541.262 340.224 539.096 340.144C537.312 340.079 535.522 340.502 533.735 340.681C533.62 339.697 533.504 338.714 533.389 337.73C533.149 336.497 532.153 334.501 531.516 334.477C530.624 334.444 529.735 334.167 528.843 334.134C525.527 334.256 522.211 334.379 518.895 334.501C517.621 334.454 516.48 333.922 515.345 332.901C512.699 330.354 510.011 331.234 507.445 332.609C505.892 334.51 504.102 334.934 502.188 335.108C498.872 335.231 495.556 335.353 492.237 335.72C490.068 335.885 488.044 334.586 486.156 332.557C485.401 331.795 485.297 329.832 485.955 328.142C486.349 327.177 486.865 326.707 487.508 326.241C488.664 325.549 489.941 325.351 491.082 325.883C491.971 326.161 492.857 326.683 493.743 327.206C495.132 328.236 496.653 329.027 498.185 328.839C503.67 328.552 509.152 328.509 514.51 328.217C516.042 328.029 517.58 327.351 518.869 326.175C519.512 325.709 520.024 325.483 520.653 326.24C522.039 327.516 523.568 327.572 525.092 328.118C529.783 330.251 529.783 330.251 533.098 330.128C533.99 330.161 535.013 329.954 535.771 330.472C537.665 332.011 539.2 331.578 540.637 328.693C541.028 327.972 541.793 328.001 542.306 327.775C542.56 327.784 542.94 328.043 543.195 328.052C544.715 328.843 546.116 328.895 547.66 327.728C548.176 327.257 548.819 326.791 549.332 326.565C549.972 326.344 550.484 326.118 551.121 326.141C551.376 326.151 551.759 326.165 552.01 326.419C553.154 326.706 554.28 328.462 555.56 328.019C556.713 327.572 557.872 326.636 559.025 326.188C559.282 325.953 559.662 326.212 559.783 326.706C560.287 327.215 560.275 328.194 559.751 329.398ZM708.084 28.7929C708.602 28.0775 709.118 27.6068 709.628 27.6256C710.52 27.6585 711.284 27.6868 712.173 27.9645C712.428 27.9739 712.677 28.4728 712.929 28.727C712.671 28.9623 712.538 29.4471 712.28 29.6825C712.022 29.9178 711.764 30.1532 711.509 30.1438C711 30.1249 710.362 30.1014 709.213 30.3038C708.576 30.2803 707.565 29.5084 708.084 28.7929ZM681.986 25.8701C682.626 25.6489 683.133 25.9125 683.63 26.9103C683.112 27.6258 682.596 28.0965 681.959 28.0729C681.322 28.0494 680.815 27.7858 680.314 27.0327C680.836 26.0725 681.349 25.8466 681.986 25.8701ZM575.605 315.047C582.37 314.318 587.855 314.03 591.802 314.421C592.057 314.43 592.178 314.925 592.43 315.179C592.172 315.414 591.912 315.894 591.654 316.13C589.227 316.53 586.8 316.93 584.376 317.085C581.454 316.243 578.5 318.092 575.459 316.511C575.204 316.502 575.083 316.007 574.831 315.753C574.961 315.513 575.222 315.033 575.605 315.047ZM567.966 19.7001C567.077 19.4224 566.959 18.6834 567.732 17.9773C567.99 17.742 568.369 18.0009 568.621 18.255C568.749 18.2597 568.74 18.994 568.864 19.2435C568.479 19.4741 568.218 19.9542 567.966 19.7001ZM622.869 338.586C621.076 339.254 619.286 339.678 617.651 337.904C615.384 335.616 612.96 335.771 610.767 337.894C609.35 339.066 607.943 339.504 606.432 337.979C606.18 337.725 605.928 337.471 605.546 337.456C604.025 336.666 602.499 336.364 601.083 337.536C598.508 339.645 595.944 340.775 593.144 340.427C592.507 340.403 591.867 340.624 591.357 340.605C590.083 340.558 588.939 340.271 587.941 338.52C586.317 335.767 584.29 334.712 582.118 335.122C581.478 335.343 580.971 335.08 580.334 335.056C579.059 335.009 577.922 334.232 576.914 333.216C576.034 332.204 575.142 332.171 574.366 333.122C572.428 335.254 570.383 335.668 568.223 335.099C567.713 335.08 567.085 334.322 566.581 333.814C566.077 333.305 565.579 332.307 565.594 331.084C565.479 330.1 565.873 329.135 566.516 328.669C567.672 327.977 568.827 327.285 569.986 326.348C571.53 325.181 572.929 325.478 574.315 326.753C575.198 327.52 575.963 327.549 576.864 326.847C577.379 326.377 578.017 326.4 578.532 325.929C581.184 327.986 583.869 327.351 586.548 327.205C595.604 326.805 604.651 327.139 613.582 326.489C614.474 326.522 615.497 326.315 616.255 326.833C617.772 327.868 619.186 326.941 620.721 326.508C621.746 326.056 623.13 327.577 623.743 329.558C624.235 331.046 624.342 332.764 624.321 334.477C624.428 336.195 623.637 338.369 622.869 338.586ZM648.458 330.961C648.203 330.951 647.82 330.937 647.566 330.928C646.034 331.116 644.504 331.06 642.845 331.243C641.188 331.182 639.405 331.116 637.624 330.805C637.369 330.796 637.12 330.297 636.868 330.043C636.998 329.803 637.132 329.318 637.387 329.327C640.966 328.48 644.537 328.367 648.111 328.009C649.003 328.042 649.895 328.075 650.644 329.327C650.896 329.582 649.477 330.998 648.458 330.961ZM700.76 327.995C699.604 328.687 698.449 329.379 697.417 330.32C696.644 331.026 695.743 331.728 694.851 331.695C692.809 331.864 690.64 332.029 688.474 331.949C687.837 331.925 687.203 331.657 686.699 331.149C685.188 329.624 683.783 329.817 682.488 331.483C681.712 332.434 680.689 332.641 679.937 331.634C678.55 330.358 677.16 329.327 675.628 329.516C671.672 329.859 667.844 330.207 663.89 330.306C661.212 330.452 658.408 330.349 655.738 329.76C655.484 329.751 655.235 329.252 654.983 328.998C655.241 328.763 655.501 328.282 655.756 328.292C659.078 327.68 662.4 327.068 665.713 327.19C670.3 327.36 674.769 326.79 679.744 326.484C685.363 325.712 691.352 325.933 697.355 324.931C698.505 324.728 699.776 325.02 700.923 325.063C701.178 325.072 701.682 325.58 701.679 325.825C701.794 326.809 701.4 327.774 700.76 327.995ZM708.557 315.795C706.151 314.482 703.724 314.882 701.303 314.792C699.774 314.736 698.36 315.663 696.946 316.59C695.53 317.762 693.998 317.951 692.481 316.915C690.961 316.124 689.565 315.583 688.148 316.755C686.99 317.692 685.837 318.139 684.563 318.092C682.776 318.271 680.992 318.205 679.078 318.379L679.075 318.624C677.543 318.812 676.014 318.756 674.482 318.944C672.95 319.132 671.423 318.831 670.034 317.8C669.148 317.278 668.247 317.979 667.352 318.191C666.712 318.412 666.069 318.878 665.565 318.37C662.916 316.068 660.231 316.703 657.552 316.849C649.646 317.047 641.74 317.245 633.958 317.692C630.005 317.791 626.043 318.624 622.22 318.483C618.27 318.337 614.317 318.436 610.367 318.29C609.475 318.257 608.586 317.979 607.836 316.727C607.339 315.729 607.096 314.741 607.487 314.021C607.748 313.541 608.005 313.305 608.26 313.315C609.152 313.348 610.044 313.381 610.933 313.658C612.705 314.703 614.353 315.499 616.267 315.325C627.11 314.746 638.083 313.927 648.92 313.837C662.818 313.616 676.731 312.171 690.756 311.954C696.238 311.912 701.602 311.13 707.09 310.598C710.409 310.231 713.722 310.354 717.029 310.965C717.284 310.975 717.533 311.474 717.785 311.728C717.518 312.698 717.002 313.168 716.362 313.389C714.315 314.048 712.157 313.234 710.095 315.117C709.704 315.837 709.064 316.058 708.557 315.795ZM716.709 326.87C715.559 327.072 714.285 327.025 713.138 326.983C712.246 326.95 711.351 327.162 710.459 327.129C710.204 327.12 709.955 326.621 709.703 326.366C709.834 326.126 709.967 325.642 710.095 325.646C712.406 324.262 714.821 324.841 717.115 324.926C717.37 324.935 717.873 325.444 717.87 325.689C717.864 326.178 717.349 326.649 716.709 326.87ZM726.535 326.009C725.895 326.23 725.385 326.211 724.751 325.943C724.496 325.933 724.25 325.19 723.998 324.935C724.778 323.74 725.67 323.773 726.559 324.05C726.814 324.06 727.063 324.559 727.312 325.058C727.051 325.538 726.79 326.018 726.535 326.009ZM751.575 321.546C750.68 321.758 749.916 321.73 749.024 321.697C748.387 321.673 748.01 321.17 747.637 320.421C748.031 319.456 748.547 318.986 749.184 319.009C749.439 319.019 749.694 319.028 750.079 318.797C750.588 318.816 751.226 318.84 751.732 319.103C751.987 319.113 752.236 319.612 752.488 319.866C752.606 320.605 752.34 321.575 751.575 321.546ZM780.859 72.1287C780.222 72.1052 779.715 71.8416 779.215 71.0885C779.609 70.1236 780.124 69.6529 780.759 69.9212C781.396 69.9447 781.902 70.2083 782.403 70.9614C782.012 71.6816 781.496 72.1522 780.859 72.1287ZM789.657 71.9639C788.765 71.931 788.004 71.658 787.115 71.3803C786.86 71.3709 786.739 70.8766 786.49 70.3777C786.747 70.1424 786.881 69.6576 787.139 69.4222C787.396 69.1869 787.651 69.1963 787.909 68.9609C788.419 68.9798 789.056 69.0033 789.314 68.768C790.209 68.5561 790.843 68.8244 791.216 69.5728C791.711 70.8154 790.677 72.0016 789.657 71.9639ZM818.055 242.706C818.31 242.715 818.696 242.484 818.82 242.734C819.706 243.256 819.697 243.991 818.796 244.692C818.538 244.927 818.284 244.918 818.032 244.664C817.78 244.41 817.658 243.915 817.406 243.661C817.664 243.426 817.795 243.186 818.055 242.706ZM813.335 243.021C813.587 243.275 813.708 243.769 813.833 244.019C813.575 244.254 813.441 244.739 813.184 244.974C812.929 244.965 812.671 245.2 812.419 244.946C812.167 244.692 811.918 244.193 811.921 243.948C812.315 242.983 812.701 242.753 813.335 243.021Z" fill="#00659E"/>
</svg>
