<svg width="1082" height="165" viewBox="0 0 1082 165" fill="none" xmlns="http://www.w3.org/2000/svg">
<path d="M313.163 160.191C311.894 160.757 310.201 161.605 309.354 162.171C308.508 162.737 305.546 163.586 305.969 163.02C306.392 162.454 308.085 161.322 308.508 160.757C308.931 160.474 306.815 159.625 306.815 159.059C306.815 159.059 306.815 159.059 306.392 158.777C305.123 158.494 305.122 158.494 305.122 158.494C304.276 157.645 303.43 156.796 303.007 156.513C302.583 156.231 301.314 157.079 300.891 157.645C300.891 157.645 300.891 157.645 300.891 158.211C300.891 158.494 300.891 158.494 300.891 158.494C300.891 158.777 300.891 159.625 300.044 160.474C299.621 161.322 299.198 163.303 299.198 163.586C298.775 163.586 298.351 163.586 297.928 163.303C297.505 163.02 296.659 162.171 295.812 161.888C294.966 161.605 297.928 160.757 297.928 160.474C298.351 160.191 298.351 159.625 297.082 160.191C295.812 160.757 293.273 159.342 292.85 159.625C292.427 159.625 292.85 161.04 293.273 161.322C293.273 161.322 293.273 161.322 293.273 161.605C293.273 161.888 293.273 161.888 293.273 161.888C293.273 162.171 292.004 162.454 290.311 162.454C290.311 162.454 290.311 162.454 289.041 162.454C288.618 162.454 288.618 162.454 288.618 162.454C288.618 163.303 287.772 163.868 287.772 163.868C287.348 163.868 285.656 163.868 284.386 163.868C283.963 163.02 283.963 163.02 283.963 163.02C285.232 163.02 286.079 162.454 285.656 162.171C285.232 161.888 284.386 161.04 283.54 161.605C282.693 162.171 280.154 163.303 279.308 163.303C278.038 163.303 275.499 163.303 275.076 163.303C275.076 163.303 275.499 163.02 276.345 163.02C277.192 163.02 279.308 162.454 279.308 161.888C279.308 161.322 282.27 160.757 283.116 160.757C283.54 160.757 285.232 160.191 285.656 160.191C285.656 160.191 285.656 160.191 285.656 159.908C285.656 159.625 285.232 159.342 284.809 159.342C281.847 159.908 278.884 160.474 275.922 160.474C273.806 160.474 273.806 160.474 273.806 160.474C272.96 161.322 271.69 162.171 270.844 162.454C269.997 162.737 269.151 161.605 269.151 161.605C268.728 161.605 267.458 161.04 267.035 161.04C266.612 161.04 264.919 160.191 265.342 160.191C265.766 160.191 267.035 159.625 267.458 159.908C267.458 159.908 267.458 159.908 267.458 160.191C268.305 161.322 268.305 161.322 268.305 161.322C269.997 161.04 271.69 161.04 271.69 160.757C272.113 160.757 272.537 159.908 272.537 159.625C272.537 159.342 270.421 158.494 269.574 158.494C268.728 156.513 267.035 157.645 266.612 158.211C265.766 159.342 263.65 159.625 262.38 160.191C261.11 160.757 261.11 160.757 261.11 160.757C260.264 161.605 259.418 161.888 259.418 161.322C259.418 161.322 259.418 161.322 259.418 161.04C259.418 160.474 259.418 160.474 259.418 160.474C258.148 160.191 256.032 159.342 254.762 159.059C254.762 159.059 254.762 159.059 254.762 158.494C254.339 157.362 253.07 157.362 250.954 157.362C250.107 157.362 249.261 156.796 248.838 156.796C248.415 156.796 247.991 157.645 247.568 157.928C246.722 157.928 246.722 158.211 247.568 158.494C248.415 158.777 249.261 159.625 248.838 159.908C248.415 160.191 244.183 159.059 244.606 158.777C244.606 158.777 244.606 158.777 245.029 158.494C245.875 157.362 244.606 156.796 242.913 157.362C241.22 157.645 240.797 157.079 239.951 156.796C238.681 156.796 238.681 156.796 238.681 156.796C237.412 156.796 234.449 157.079 232.756 157.362C232.756 157.362 232.756 157.362 231.91 157.079C230.64 156.796 230.64 156.796 230.64 156.796C229.371 156.796 227.678 157.079 226.832 157.362C225.985 157.645 222.6 156.796 221.753 156.796C220.907 156.796 219.214 156.796 218.368 156.796C217.521 156.796 214.559 156.513 213.713 157.079C212.866 157.645 209.481 157.928 208.211 157.079C208.211 157.079 208.211 157.079 206.095 157.362C204.826 157.645 204.826 157.645 204.826 157.645C203.133 157.645 201.017 157.362 199.324 157.362C198.055 157.362 193.823 157.928 192.13 158.211C190.437 158.494 184.936 157.928 183.243 157.928C183.243 157.928 183.243 157.928 181.127 157.362C178.164 156.231 178.164 156.231 178.164 156.231C175.625 156.513 172.663 157.079 172.24 157.079C171.817 157.079 169.277 157.079 168.008 157.079C166.738 157.079 163.353 157.362 162.93 157.362C162.93 157.079 162.083 156.796 161.66 157.079C161.237 157.362 159.544 157.645 159.121 157.362C159.121 157.362 159.121 157.362 158.698 157.079C158.274 156.796 158.274 156.796 158.274 156.796C157.851 156.796 157.005 156.796 156.582 157.079C156.158 157.362 155.312 157.645 154.889 157.362C154.466 157.079 152.773 157.645 152.773 157.645C152.35 157.645 150.657 157.928 148.964 158.211C148.964 158.211 148.964 158.211 147.271 157.928C146.425 157.645 145.579 157.645 144.732 157.362C143.886 157.079 143.039 156.231 141.347 157.079C141.347 157.079 140.5 157.079 140.077 156.796C138.384 155.948 137.961 155.665 136.268 157.079C135.422 157.928 135.422 157.928 135.422 157.928C134.576 156.796 133.729 155.948 133.306 156.231C132.883 156.513 131.613 157.079 131.613 156.796C131.613 156.513 130.344 155.665 129.497 155.665C128.651 155.665 126.958 156.513 126.535 156.796C126.112 157.079 124.842 156.513 124.419 156.796C124.419 157.079 123.996 157.079 123.996 156.513C123.996 155.948 121.457 156.796 121.457 157.079C119.764 157.362 119.764 155.665 117.648 156.231C116.378 156.513 116.378 156.513 116.378 156.513C114.685 156.513 112.993 156.513 112.569 156.513C112.146 156.513 110.454 156.796 109.184 156.796C107.914 156.796 104.952 156.231 104.106 156.796C104.106 156.796 104.106 156.796 103.259 157.079C102.836 157.362 102.836 157.362 102.836 157.362C101.99 157.362 100.72 156.796 99.8737 156.513C99.0273 156.231 94.7953 157.079 94.3722 156.796C93.949 156.513 92.2562 155.948 91.833 156.231C91.4098 156.513 89.2938 155.948 89.2938 155.948C89.2938 155.948 89.2938 155.948 88.8706 156.231C88.4474 156.513 88.4474 156.796 88.0243 156.796C87.1779 156.796 85.4851 157.079 85.4851 156.231C85.4851 155.948 85.4851 155.948 85.4851 155.948C86.7547 155.665 87.1779 155.099 86.7547 155.099C86.3315 154.816 84.6387 154.816 84.2155 155.099C83.7923 155.382 82.0995 156.231 82.0995 155.382C82.0995 155.382 82.0995 155.382 82.0995 155.099C82.0995 154.816 81.6764 154.533 81.6764 154.533C80.83 154.533 80.83 154.533 80.83 154.533C79.9836 154.533 79.1372 154.25 79.5604 153.685C79.5604 153.685 79.5604 153.685 77.8676 153.967C77.4444 153.967 77.4444 153.967 77.4444 153.967C77.0212 154.25 76.1748 154.25 74.9053 153.967C73.6357 153.402 69.4037 153.402 68.5574 153.402C67.2878 153.402 63.9022 152.553 62.6326 152.553C61.7863 152.553 59.2471 152.836 58.8239 152.27C58.4007 151.704 54.1688 151.139 53.7456 151.421C51.2064 149.724 51.2064 149.724 51.2064 149.724C47.3977 149.441 44.4353 149.158 44.0121 149.158C43.5889 149.158 41.8962 149.158 40.6266 149.158C39.357 149.158 33.8555 149.441 31.7395 149.441C31.7395 149.441 31.7395 149.441 31.3163 147.744C31.3163 147.461 30.4699 147.178 30.0467 147.461C28.7772 147.744 28.7772 147.744 28.7772 147.744C27.5076 147.461 25.8148 146.895 25.8148 146.612C25.3916 146.329 23.2756 145.764 22.4293 145.764C21.5829 145.764 19.4669 144.915 19.0437 145.198C18.6205 145.198 17.7741 145.198 17.3509 144.632C17.3509 144.632 17.3509 144.632 16.9277 144.349C16.5045 144.066 15.6582 144.066 15.235 144.349C13.5422 144.915 11.8494 144.915 11.003 144.915C8.46387 144.915 9.73345 144.349 9.73345 143.784C9.73345 143.501 8.46387 142.935 10.1566 142.935C11.003 142.935 11.8494 142.652 12.6958 142.369C13.5422 142.086 13.5422 141.803 12.6958 141.52C11.8494 141.238 11.8494 141.238 11.8494 141.238C12.6958 140.955 13.9654 140.106 15.235 139.54C16.5045 138.974 17.3509 136.994 16.5045 136.711C16.5045 136.711 16.5045 136.711 15.6582 136.711C14.8118 136.711 14.8118 136.711 14.8118 136.711C13.9654 136.994 12.2726 136.994 11.4262 136.711C10.5798 136.428 10.5798 133.882 11.003 133.034C11.4262 132.185 12.2726 129.356 11.8494 129.356C11.8494 129.356 10.5798 129.639 9.73345 130.205C9.73345 130.205 9.73345 130.205 8.46387 129.356C8.04068 128.791 8.04068 128.791 8.04068 128.791C8.04068 128.225 8.88706 127.659 9.31026 127.093C9.31026 127.093 9.31026 127.093 8.46387 126.81C8.04068 126.81 8.04068 126.81 8.04068 126.81C6.7711 127.093 5.92471 127.093 6.3479 126.527C6.3479 126.527 6.3479 126.527 6.3479 126.245C6.3479 125.113 6.3479 125.113 6.3479 125.113C5.50152 123.981 4.65513 122.567 4.65513 122.284C4.65513 121.718 5.92471 120.021 7.61748 119.738C9.31026 119.455 9.31026 116.626 8.04068 116.909C8.04068 116.909 8.04068 116.909 7.19429 117.192C6.3479 117.475 6.3479 117.475 6.3479 117.475C5.50152 117.758 3.80874 117.192 2.53916 116.344C2.53916 116.344 2.53916 116.344 2.96235 115.495C2.96235 115.212 2.96235 114.929 3.38555 114.646C4.65513 113.798 5.50152 113.232 6.3479 112.666C7.19429 112.1 8.04068 113.515 8.88706 112.666C8.88706 112.383 8.88706 112.383 8.88706 112.383C9.73345 112.383 9.73345 112.1 8.46387 111.817C8.46387 111.817 8.46387 111.817 8.46387 111.534C8.46387 111.252 8.88706 110.686 9.31026 110.403C9.73345 110.12 10.1566 110.12 10.5798 110.12C12.2726 109.554 12.2726 108.14 11.4262 108.14C10.1566 107.857 9.73345 107.574 9.31026 107.008C8.88706 106.725 8.88706 106.725 8.88706 106.725C7.19429 106.725 7.19429 106.16 9.31026 105.877C11.4262 105.594 16.5045 103.896 19.0437 104.745C19.0437 104.745 19.0437 104.745 22.0061 104.462C22.4293 104.462 23.6988 105.028 24.122 105.594C24.5452 106.725 24.5452 106.725 24.5452 106.725C25.8148 106.442 26.6612 105.594 26.238 105.028C26.238 105.028 26.238 105.028 26.238 104.462C26.6612 103.048 27.0844 101.633 27.5076 100.219C27.5076 99.9361 27.5076 99.9361 27.5076 99.9361C29.2004 99.6532 30.0467 99.0874 30.4699 99.0874C30.8931 99.0874 32.1627 98.2388 32.5859 98.2388C33.4323 98.2388 35.5483 97.9559 35.9714 97.9559C36.3946 97.9559 37.241 97.3901 37.6642 97.1072C38.0874 96.8243 39.7802 97.673 39.7802 97.9559C40.2034 97.9559 41.473 98.2388 41.473 97.673C41.473 97.1072 42.7425 95.9757 43.5889 96.5414C44.4353 96.8243 46.9745 96.2586 46.9745 95.9757C46.9745 95.9757 46.5513 95.4099 47.3977 95.127C47.3977 95.127 47.3977 95.127 47.8209 95.127C49.0904 95.4099 50.7832 96.5414 51.2064 94.8441C51.6296 94.8441 52.476 94.8441 53.3224 95.127C54.1688 95.4099 56.7079 94.5612 57.5543 94.5612C58.4007 94.5612 60.5167 94.5612 61.7863 94.5612C63.0558 94.5612 65.1718 93.4297 64.3254 93.1468C63.479 92.8639 61.7863 91.7324 62.2094 90.8837C62.6326 90.0351 57.9775 87.772 58.4007 87.772C58.8239 87.772 59.2471 86.9233 57.9775 86.3575C57.9775 86.3575 57.9775 86.3575 57.9775 85.7918C57.9775 84.6602 57.9775 84.6602 57.9775 84.6602C56.7079 84.6602 55.4384 84.3773 54.592 84.0944C54.592 84.0944 54.592 84.0944 54.1688 83.8115C53.3224 82.9629 53.3224 82.9629 53.3224 82.9629C53.7456 82.1142 53.7456 80.6998 53.3224 79.8511C53.3224 79.8511 53.3224 79.8511 52.8992 79.0025C52.8992 78.7196 52.8992 78.7196 52.8992 78.7196C52.8992 78.4367 54.1688 78.4367 55.4384 79.0025C56.7079 79.5683 60.5167 78.7196 60.5167 78.4367C60.5167 78.1538 60.0935 77.588 59.2471 77.588C59.2471 77.588 59.2471 77.588 58.8239 77.588C57.9775 77.8709 57.9775 77.8709 57.9775 77.8709C56.7079 78.1538 56.2847 78.1538 56.2847 77.8709C56.2847 77.8709 56.2847 77.8709 56.2847 77.588C56.2847 77.3052 56.2847 77.3052 56.2847 77.3052C56.2847 77.0223 56.2847 76.7394 55.8615 76.7394C55.4384 76.7394 54.1688 77.0223 53.7456 76.7394C53.3224 76.4565 54.1688 75.0421 55.0152 74.1934C55.0152 74.1934 55.0152 74.1934 56.7079 73.9105C57.1311 73.9105 57.5543 73.9105 57.5543 73.6276C57.1311 71.6474 57.1311 71.6474 57.1311 71.6474C60.0935 70.7988 61.3631 70.233 60.9399 69.9501C60.0935 69.6672 57.5543 69.9501 57.1311 69.9501C56.7079 69.9501 53.3224 69.1014 50.7832 68.5357C50.7832 68.5357 50.7832 68.5357 48.2441 68.8186C46.9745 68.8186 46.9745 68.5357 46.5513 67.9699C46.9745 67.1212 46.9745 67.1212 46.9745 67.1212C46.1281 67.687 44.8585 67.9699 43.5889 67.687C42.3194 67.4041 38.9338 66.5555 38.5106 66.2726C39.357 65.4239 39.357 65.4239 39.357 65.4239C38.9338 64.5753 38.0874 64.0095 37.6642 63.7266C37.241 63.4437 36.3946 63.4437 36.3946 63.4437C36.3946 63.4437 36.3946 63.4437 35.9714 63.7266C35.5483 64.0095 35.5483 64.0095 35.5483 64.0095C35.1251 64.2924 33.8555 64.5753 33.0091 64.5753C32.1627 64.8581 29.2003 65.141 28.7772 64.8581C28.354 64.5753 27.5076 63.4437 27.9308 63.1608C28.354 62.8779 31.7395 63.4437 33.0091 63.4437C33.0091 63.4437 33.0091 63.4437 33.0091 62.8779C33.4323 62.3122 32.5859 61.1806 32.1627 61.1806C26.238 60.8977 26.238 60.8977 26.238 60.8977C27.0844 58.6346 27.0844 56.6544 26.238 56.6544C25.3916 56.6544 24.122 57.5031 23.6988 57.5031C23.2756 57.5031 22.8524 56.9373 22.8524 56.9373C22.8524 56.9373 22.4293 56.3715 22.0061 55.8058C21.5829 55.24 22.8524 53.8256 23.2756 53.2598C23.2756 53.2598 23.2756 53.2598 23.2756 52.9769C23.2756 52.694 23.2756 52.694 23.2756 52.694C23.2756 52.4111 22.4293 52.1282 22.0061 52.1282C22.0061 52.1282 22.0061 52.1282 21.5829 52.1282C21.1597 52.1282 21.1597 52.1282 21.1597 52.1282C20.7365 52.1282 20.3133 52.1282 19.8901 51.8454C20.7365 51.2796 20.7365 51.2796 20.7365 51.2796C22.0061 50.4309 22.0061 49.8652 20.3133 50.148C20.3133 50.148 20.3133 50.148 19.4669 50.148C17.7741 50.148 17.7741 50.148 17.7741 50.148C16.0814 50.148 14.3886 49.8652 13.9654 49.2994C13.9654 49.2994 13.9654 49.2994 13.9654 49.0165C14.3886 46.1876 14.3886 46.1876 14.3886 46.1876C12.2726 45.0561 10.1566 43.9245 9.73345 43.6416C9.73345 43.6416 9.73345 43.6416 9.73345 43.3588C9.31026 42.793 9.31026 42.793 9.31026 42.793C9.31026 41.9443 8.88706 40.8128 8.46387 39.9641C8.46387 39.9641 8.46387 39.9641 7.61748 39.6812C4.65513 39.9641 4.65513 39.1155 5.07832 37.9839C5.07832 37.701 5.07832 37.701 5.07832 37.701C5.07832 36.8524 3.80874 36.5695 2.11597 37.1352C2.11597 37.1352 2.11597 37.1353 2.96235 36.0037C3.80874 35.155 2.11597 35.155 1.69277 34.8722C1.69277 34.8722 0.423194 36.0037 0 34.8722C0 34.5893 0 34.5893 0 34.5893C0.846387 34.3064 1.69277 34.0235 1.69277 34.0235C1.69277 34.0235 1.26958 32.8919 0.423194 32.0433C0.423194 32.0433 0.423194 32.0433 0.846387 30.9117C0.846387 30.6289 1.26958 30.346 1.26958 30.0631C1.26958 29.7802 1.26958 29.7802 1.26958 29.7802C0.846387 29.4973 0.846387 29.2144 1.26958 29.2144C1.69277 29.2144 3.80874 29.2144 4.23194 28.6486C4.65513 28.0829 3.80874 26.6684 4.23194 26.3856C5.92471 27.2342 7.19429 27.2342 8.46387 26.1027C9.73345 25.254 9.73345 25.254 9.73345 25.254C11.4262 26.1027 12.6958 26.1027 12.6958 25.8198C12.6958 25.5369 14.8118 24.4053 16.5045 23.8396C16.5045 23.8396 16.5045 23.8396 17.7741 25.254C18.6205 26.1027 18.6205 26.1027 18.6205 26.1027C20.7365 25.5369 22.0061 24.6882 21.5829 24.6882C21.1597 24.6882 20.3133 24.1225 20.3133 24.1225C21.1597 24.1225 22.0061 24.1225 22.8524 24.4053C23.2756 24.4053 23.2756 24.4053 23.2756 24.4053C23.6988 24.4053 24.122 24.4053 24.5452 24.1225C24.9684 23.8396 26.238 24.1225 26.238 23.8396C26.238 23.5567 27.0844 22.9909 27.5076 23.5567C27.9308 24.1225 30.0467 23.8396 30.8931 22.9909C30.8931 22.9909 30.8931 22.9909 31.7395 22.4251C32.1627 22.1423 32.1627 22.1423 32.1627 22.1423C33.0091 22.1423 34.2787 22.1423 35.1251 22.4251C35.9714 22.708 39.7802 22.1423 40.2034 22.4251C41.0498 22.708 43.1657 23.2738 43.5889 22.4251C43.5889 22.4251 43.5889 22.4251 44.4353 21.8594C45.2817 21.2936 45.2817 21.2936 45.2817 21.2936C46.5513 21.2936 48.2441 21.2936 48.6673 21.5765C49.5136 21.8594 50.7832 20.7278 51.6296 20.7278C52.476 20.7278 54.592 21.0107 55.0152 21.2936C55.4384 21.5765 56.7079 21.5765 57.1311 21.2936C57.5543 20.7278 58.8239 19.5963 59.6703 19.8792C60.5167 20.1621 62.2094 19.8792 63.0558 19.5963C63.479 19.3134 65.595 19.8792 65.595 19.8792C65.595 19.8792 65.595 19.8792 65.595 19.5963C65.595 19.0305 65.595 19.0305 65.595 19.0305C66.4414 19.0305 68.1342 19.5963 69.8269 19.8792C69.8269 19.8792 69.8269 19.8792 69.8269 18.4647C70.2501 18.4647 71.9429 18.1818 73.2125 17.899C74.9053 17.6161 80.4068 18.1818 81.6764 18.1818C81.6764 18.1818 81.6763 18.1818 82.5227 18.4647C84.6387 18.4647 85.0619 19.3134 85.0619 18.1818L86.3315 17.899C87.6011 19.0305 89.717 18.1818 89.717 17.899C90.9866 17.0503 92.6794 18.1818 93.5258 17.3332C93.949 17.0503 93.949 17.0503 93.949 17.0503C96.0649 17.3332 97.7577 17.899 98.1809 17.899C98.6041 17.899 99.8737 17.3332 101.143 16.7674C102.413 16.2016 106.222 17.0503 106.222 17.0503C106.222 15.6359 106.222 15.6359 106.222 15.6359C107.914 15.9188 110.877 15.9188 112.146 15.353C112.146 15.353 112.146 15.353 113.416 16.4845C114.685 16.7674 114.685 16.7674 114.685 16.7674C115.955 16.4845 117.648 15.9188 118.494 15.6359C118.494 15.6359 118.494 15.6359 119.341 15.6359C119.764 15.6359 119.764 15.6359 119.764 15.6359C120.187 15.6359 121.033 15.6359 121.88 15.6359C122.726 15.6359 126.112 15.6359 126.958 15.6359C127.804 15.6359 130.344 15.0701 130.344 15.353C130.767 15.6359 131.613 15.9188 131.613 15.6359C131.613 15.6359 131.613 15.6359 132.036 15.353C132.46 15.0701 132.46 15.0701 132.46 15.0701C132.883 14.7872 132.883 14.7872 133.306 15.0701C133.729 15.353 133.729 15.6359 134.152 15.9188C134.152 15.9188 134.152 15.9188 134.576 15.9188C135.845 15.353 135.845 15.353 135.845 15.353C137.538 15.0701 139.654 14.7872 140.077 14.7872C140.077 14.7872 140.077 14.7872 140.5 14.5043C142.193 13.3728 142.193 13.3728 142.193 13.3728C143.039 14.5043 144.309 15.0701 144.732 14.7872C145.155 14.5043 146.002 13.9385 146.425 13.9385C146.848 13.9385 147.271 13.3728 147.695 12.2412C147.695 12.2412 147.695 12.2412 150.234 13.6557C150.657 13.9385 150.657 13.9385 150.657 13.9385C151.926 13.6557 153.619 13.6557 154.466 13.6557C155.312 13.6557 157.005 13.9385 157.005 13.6557C157.005 13.3728 159.544 13.3728 159.967 13.3728C160.39 13.3728 161.237 13.0899 160.814 11.9583C160.814 11.9583 160.814 11.9583 163.353 13.3728C163.776 13.3728 165.045 13.0899 165.892 12.807C166.315 12.807 166.315 12.807 166.315 12.807C166.738 12.5241 168.854 12.2412 170.547 11.9583C172.663 11.6755 177.318 13.0899 177.741 13.0899C178.164 13.0899 180.704 12.807 181.973 12.5241C183.243 12.2412 189.591 12.5241 190.86 12.5241C190.86 12.5241 190.86 12.5241 191.283 12.2412C193.399 11.9583 193.399 11.9583 193.399 11.9583C194.669 12.2412 195.939 12.5241 196.785 12.807C196.785 12.807 196.785 12.807 197.631 12.807C198.901 12.807 198.901 12.807 198.901 12.807C200.171 12.5241 201.863 11.9583 202.71 11.9583C203.556 11.9583 206.942 11.6755 208.634 11.6755C208.634 11.6755 208.634 11.6755 210.327 11.6755C210.75 11.6755 210.75 11.6755 210.75 11.6755C211.174 11.3926 212.02 11.6755 212.02 11.9583C212.02 12.2412 214.136 11.9583 214.559 11.9583C214.982 11.6755 216.252 11.3926 216.675 11.3926C217.098 11.3926 218.791 11.9583 219.214 11.9583C219.637 11.9583 222.6 11.1097 223.869 11.1097C223.869 11.1097 223.869 11.1097 224.293 11.3926C225.139 12.2412 226.409 10.5439 227.255 11.6755C227.678 12.2412 227.678 12.2412 227.678 12.2412C229.371 11.6755 231.064 11.6755 231.487 11.6755C231.91 11.9583 233.18 12.2412 233.603 12.2412C233.603 11.9583 234.449 11.6755 234.449 11.6755C234.449 11.6755 235.719 11.6755 236.142 11.3926C236.565 11.1097 239.951 11.1097 242.49 10.8268C242.49 10.8268 242.49 10.8268 245.029 11.3926C247.145 11.6755 249.684 11.9583 252.223 10.8268C253.493 10.261 253.493 10.261 253.493 10.261C255.609 10.5439 257.725 10.8268 257.725 11.1097C258.148 11.3926 259.418 11.3926 259.841 10.8268C260.687 10.261 263.65 11.3926 263.65 11.1097C263.65 10.8268 264.496 10.261 264.919 10.8268C264.919 11.1097 265.766 11.6755 266.189 11.1097C266.612 10.5439 269.997 11.3926 271.69 11.1097C271.69 11.1097 271.69 11.1097 273.383 11.3926C275.499 10.8268 275.499 10.8268 275.499 10.8268C278.038 10.261 280.577 9.97813 281 9.97813C281 10.261 281.847 10.5439 282.27 10.261C282.693 9.97813 283.54 9.41236 283.963 9.41236C285.656 10.261 285.656 10.261 285.656 10.261C287.772 10.261 290.734 9.97813 292.004 10.261C293.273 10.261 297.928 9.97813 298.775 10.5439C298.775 10.5439 298.775 10.5439 300.044 9.69524C300.044 9.41236 301.737 9.97813 302.583 9.97813C305.123 9.97813 305.122 9.97813 305.122 9.97813C308.085 9.97813 312.317 9.69524 314.01 9.41236C314.01 9.41236 314.01 9.41236 315.702 10.5439C316.126 10.8268 316.126 10.8268 316.126 10.8268C316.972 10.8268 318.665 10.5439 319.511 10.5439C320.357 10.5439 322.473 10.8268 322.473 10.5439C322.473 10.261 325.436 10.261 326.282 11.1097C326.282 11.1097 326.282 11.1097 327.975 10.261C328.398 9.97813 328.398 9.97813 328.398 9.97813C329.668 10.261 331.361 10.261 332.207 10.261C333.053 10.261 335.169 10.5439 336.016 10.5439C336.016 10.5439 336.016 10.5439 336.862 10.5439C337.285 10.5439 338.132 10.5439 338.555 10.5439C338.978 10.5439 339.824 10.261 340.248 10.261C340.671 10.261 340.671 10.261 340.671 10.261C341.094 10.261 341.94 10.261 342.787 10.261C343.633 10.261 345.326 10.5439 346.595 11.1097C346.595 11.1097 346.595 11.1097 346.595 9.97813C347.019 9.97813 349.558 10.261 351.251 10.8268C351.251 10.8268 351.251 10.8268 352.943 10.8268C354.213 10.8268 354.213 10.8268 354.213 10.8268C355.906 10.261 357.599 9.97813 358.022 9.69524C358.445 9.69524 359.714 9.97813 360.561 10.8268C360.561 10.8268 360.561 10.8268 362.254 10.5439C363.1 10.261 364.793 10.261 365.216 10.5439C366.909 10.8268 367.332 9.12947 368.602 9.41236C369.871 9.69524 369.871 9.69524 369.871 9.69524C371.564 9.69524 373.68 9.97813 374.526 10.261C374.526 10.261 374.526 10.261 374.949 9.97813C376.642 9.12947 376.642 9.12947 376.642 9.12947C378.758 9.69524 380.451 9.97813 380.874 9.69524C381.297 9.41236 382.567 9.12947 382.99 9.41236C383.413 9.69524 384.683 10.5439 384.683 10.5439C384.683 10.5439 385.952 10.261 386.799 9.97813C387.645 9.69524 392.3 9.69524 393.57 9.69524C394.84 9.69524 398.648 9.69524 399.918 9.97813C401.187 10.261 403.727 9.41236 404.573 9.69524C407.112 7.71504 407.112 7.71504 407.112 7.71504C410.921 8.28081 414.306 9.12947 415.153 9.12947C415.999 9.12947 417.692 8.84658 417.692 9.41236C417.692 9.97813 421.078 8.84658 421.924 8.5637C422.77 8.28081 424.463 8.5637 425.309 8.5637C425.733 8.5637 427.425 8.28081 427.849 8.5637C427.849 8.84658 428.695 9.12947 429.118 9.12947C429.541 8.84658 431.234 8.28081 432.927 8.28081C432.927 8.28081 432.927 8.28081 434.197 8.5637L438.005 9.41236C438.852 9.12947 438.852 9.12947 438.852 9.12947C440.121 8.5637 440.968 8.5637 440.968 8.5637C440.968 8.84658 442.66 9.41236 443.507 9.69524C443.507 9.69524 443.507 9.69524 445.623 8.5637C446.046 8.5637 446.046 8.5637 446.046 8.5637C446.469 8.5637 447.316 8.84658 447.739 8.84658C448.162 9.12947 451.547 8.84658 453.663 8.5637C454.51 7.99792 454.51 7.99792 454.51 7.99792C455.356 8.28081 456.203 9.12947 455.779 9.97813C455.779 9.97813 455.779 9.97813 458.319 9.12947C460.011 8.5637 460.011 8.5637 460.011 8.5637C460.011 9.41236 460.011 9.69524 460.011 9.12947C460.011 8.5637 462.974 9.41236 462.974 9.41236C462.974 9.41236 464.243 9.12947 465.513 9.12947C466.359 9.12947 470.168 9.69524 471.438 9.69524C472.707 9.69524 474.823 9.12947 475.246 9.12947C475.669 9.12947 476.516 9.97813 476.939 9.97813C476.939 9.97813 477.362 9.69524 477.785 9.41236C478.209 9.12947 480.325 8.84658 481.171 9.12947C481.171 9.12947 481.171 9.12947 482.017 9.12947C482.441 9.12947 483.287 8.5637 483.287 8.84658C484.557 9.41236 484.557 9.41236 484.557 9.41236C485.826 9.12947 488.365 9.12947 490.058 9.41236C490.058 9.41236 490.058 9.41236 491.751 9.69524C492.174 9.69524 492.174 9.69524 492.174 9.69524C493.02 9.69524 493.867 9.41236 494.29 9.41236C494.713 9.12947 496.406 9.12947 497.252 8.84658C497.676 8.5637 501.484 9.12947 503.177 9.12947C503.177 9.12947 503.177 9.12947 504.87 9.12947C506.139 9.12947 506.139 9.12947 506.139 9.12947C507.832 9.41236 509.102 9.41236 509.525 9.41236C509.948 9.41236 511.641 8.84658 512.911 8.84658C512.911 8.84658 512.911 8.84658 513.757 9.12947C514.603 9.41236 515.45 10.261 515.45 8.84658C515.45 8.84658 516.296 8.84658 516.719 8.84658C518.835 8.84658 521.374 9.41236 523.49 9.12947C525.183 8.84658 525.183 8.84658 525.183 8.84658C526.453 9.12947 527.722 9.41236 528.145 9.41236C528.569 9.41236 530.261 9.12947 531.108 9.12947C531.954 8.84658 537.456 9.12947 539.148 9.41236C540.841 9.69524 545.073 8.28081 545.92 8.28081C546.766 8.28081 550.575 7.99792 551.844 7.71504C553.114 7.43215 556.076 8.84658 556.076 8.84658C556.5 8.84658 558.192 7.99792 559.039 8.5637C559.039 8.5637 559.039 8.5637 559.885 8.5637C560.731 8.5637 562.001 7.99792 562.847 8.28081C564.54 8.5637 564.54 8.5637 564.54 8.5637C565.387 7.99792 566.656 7.71504 567.079 7.71504C567.079 7.71504 567.079 7.71504 567.503 7.99792C568.349 8.28081 568.349 8.28081 568.349 8.28081C569.195 8.5637 570.042 8.84658 570.465 8.5637C570.888 8.28081 571.734 7.99792 572.158 8.28081C572.158 8.5637 574.697 8.5637 575.12 8.28081C575.543 7.99792 577.236 7.71504 577.659 7.99792C578.082 8.28081 579.352 9.12947 579.352 9.12947C580.622 7.71504 582.314 8.84658 584.007 8.84658C584.853 8.84658 584.853 8.84658 584.853 8.84658C586.123 8.5637 586.969 8.5637 587.816 8.5637C588.239 8.5637 589.509 8.5637 590.355 8.84658C591.201 9.12947 594.587 8.5637 596.28 8.5637C596.28 8.5637 596.28 8.5637 597.972 8.28081C598.819 8.28081 600.088 8.84658 600.935 8.5637C602.628 8.28081 602.628 8.28081 602.628 8.28081C604.32 8.5637 606.436 8.5637 607.706 8.84658C607.706 8.84658 607.706 8.84658 608.975 8.84658C611.091 8.5637 611.091 8.5637 611.091 8.5637C613.631 8.5637 615.747 8.28081 616.17 8.28081C616.593 8.28081 617.863 8.84658 618.286 9.12947C618.709 9.69524 621.671 8.84658 622.094 9.12947C622.518 9.41236 623.787 9.69524 624.21 9.69524C624.21 9.41236 623.364 8.5637 623.364 8.5637C624.634 8.28081 624.634 8.28081 624.634 8.28081C625.057 8.84658 625.48 9.41236 625.903 9.69524C626.326 9.69524 627.173 9.41236 627.596 9.41236C628.019 9.12947 629.289 8.84658 629.712 9.12947C630.135 9.41236 631.405 9.12947 631.405 8.28081C631.405 8.28081 631.405 8.28081 633.521 8.84658C633.098 9.41236 633.944 9.69524 635.637 9.41236C636.906 9.12947 640.715 10.261 640.715 10.261C640.715 10.261 640.715 10.261 640.715 9.97813C640.715 8.84658 640.715 8.84658 640.715 8.84658C641.985 9.12947 643.254 9.41236 643.677 9.69524C644.101 9.97813 644.947 10.261 645.37 9.97813C645.793 9.69524 646.64 9.12947 647.486 9.41236C648.332 9.69524 652.141 9.12947 652.988 9.12947C653.834 9.12947 656.796 9.97813 656.796 10.261C656.796 10.5439 659.759 9.97813 660.182 9.69524C660.605 9.41236 662.721 9.12947 663.144 10.261C663.144 10.261 663.144 10.261 665.26 9.97813C667.376 9.69524 663.991 8.84658 665.683 8.84658C667.376 8.84658 667.376 8.84658 667.376 8.84658C669.069 8.84658 673.301 8.84658 676.686 8.84658C676.686 8.84658 676.686 8.84658 679.649 8.84658C681.342 8.84658 682.611 8.84658 684.304 8.84658C685.574 8.84658 685.573 8.84658 685.573 8.84658C686.843 9.12947 688.959 8.5637 690.229 7.99792C690.229 7.99792 690.229 7.99792 691.498 9.12947C692.345 9.69524 692.345 9.69524 692.345 9.69524C692.345 9.12947 693.191 8.28081 694.037 7.99792C694.037 7.99792 694.037 7.99792 694.884 8.5637C695.73 9.41236 695.73 9.41236 695.73 9.41236C697 9.12947 698.693 8.84658 699.962 8.84658C701.232 8.84658 704.194 8.28081 705.04 7.99792C705.887 7.71504 708.849 8.5637 709.696 8.5637C710.542 8.5637 713.504 8.84658 714.351 8.84658C714.774 8.5637 716.89 8.28081 718.159 7.99792C718.159 7.99792 718.159 7.99792 719.006 7.71504C721.122 7.14926 721.122 7.14926 721.122 7.14926C721.968 7.99792 722.815 8.28081 722.815 7.99792C722.815 7.71504 724.084 6.86638 725.354 7.14926C726.623 7.43215 730.432 7.99792 731.278 7.99792C732.548 7.99792 736.357 6.86638 738.473 6.86638C738.473 6.86638 738.473 6.86638 740.165 6.86638C741.858 6.86638 743.551 6.58349 745.667 6.86638C746.937 6.86638 746.937 6.86638 746.937 6.86638C747.783 6.58349 749.476 6.58349 750.745 6.58349C750.745 6.58349 750.745 6.58349 751.168 6.3006C752.861 5.73483 753.284 6.01772 753.708 6.86638C754.554 6.86638 757.093 6.30061 758.786 5.45195C758.786 5.45195 758.786 5.45194 761.325 6.58349C761.748 6.58349 761.748 6.58349 761.748 6.58349C762.172 6.58349 762.172 6.3006 762.172 6.01772C762.172 5.73483 765.557 6.01772 766.403 6.3006C767.25 6.58349 770.212 6.3006 771.059 6.3006C771.905 6.3006 774.444 5.73483 775.291 5.73483C776.137 5.73483 778.676 5.16906 779.946 5.45195C781.215 5.73483 785.87 5.45195 786.717 5.45195C787.14 5.73483 788.833 6.3006 788.833 6.01772C788.833 5.73483 789.679 5.45194 790.102 6.01772C790.102 6.01772 790.102 6.01772 790.525 6.01772C791.372 6.3006 791.372 6.3006 791.372 6.3006C792.218 6.3006 794.757 6.01772 796.45 6.01772C796.45 6.01772 796.45 6.01772 797.297 5.73483C798.566 5.16906 798.566 5.16906 798.566 5.16906C799.413 5.45195 800.682 5.73483 801.105 5.73483C801.529 5.73483 802.798 5.45195 803.221 5.16906C803.644 5.16906 806.184 5.45194 807.453 5.73483C808.723 6.01772 812.532 5.16906 812.955 5.16906C813.378 5.16906 815.071 6.3006 815.071 6.01772C815.071 5.73483 816.34 4.88617 817.61 4.88617C817.61 4.88617 817.61 4.88617 818.456 4.88617C819.726 4.88617 819.726 4.88617 819.726 4.88617C820.995 5.16906 823.111 5.45195 824.381 5.45195C825.651 5.45195 828.613 4.60328 829.459 4.60328C830.306 4.60328 832.422 4.88617 832.422 4.60328C832.422 4.3204 833.268 3.47174 833.268 3.47174C834.538 4.3204 835.807 5.16906 837.923 4.03751C838.77 3.75463 838.77 3.75463 838.77 3.75463C840.039 4.03751 841.732 4.03751 842.155 4.03751C842.578 4.03751 844.694 4.3204 845.117 4.3204C845.117 4.3204 845.117 4.3204 845.541 4.3204C846.81 4.03751 846.81 4.03751 846.81 4.03751C848.503 3.75463 850.619 3.75463 851.889 3.75463C851.889 3.75463 851.889 3.75463 853.158 3.75463C854.005 3.75463 854.005 3.75463 854.005 3.75463C855.274 3.18885 856.544 2.90597 856.967 3.18885C857.39 3.47174 858.66 4.03751 859.083 3.75463C859.506 3.47174 862.045 2.90597 862.468 3.18885C862.892 3.47174 865.008 4.03751 867.124 4.03751C867.124 4.03751 867.124 4.03751 868.393 4.3204C869.663 4.60328 869.663 4.60328 869.663 4.60328C870.509 4.3204 872.202 4.03751 873.471 4.03751C873.471 4.03751 873.471 4.03751 874.318 3.75463C874.741 3.75463 874.741 3.75463 874.741 3.75463C875.587 3.75463 877.703 3.47174 879.819 3.18885C879.819 3.18885 879.819 3.18885 881.935 4.03751C883.205 4.60329 883.205 4.60328 883.205 4.60328C885.321 4.60328 887.014 4.03751 887.014 3.47174C887.014 2.90597 889.553 3.18885 890.399 3.47174C890.822 3.75463 893.362 3.75463 894.208 3.75463C895.054 3.75463 897.17 3.18885 897.17 3.18885C897.17 3.18885 898.017 3.47174 898.44 3.75463C898.863 4.03751 902.249 4.3204 901.825 4.03751C901.402 3.75463 901.402 3.47174 903.095 3.75463C903.095 3.75463 903.095 3.75463 904.788 2.90597C905.634 2.62308 907.75 2.90597 909.02 2.90597C910.289 2.90597 910.289 2.90597 910.289 2.90597C911.136 3.47174 911.982 3.75463 912.405 3.75463C912.828 3.75463 914.944 3.75463 917.06 4.03751C917.06 4.03751 917.06 4.03751 918.33 2.90597C918.753 2.62308 918.753 2.62308 918.753 2.62308C920.869 3.18885 922.139 3.18885 922.139 2.90597C922.139 2.62308 921.715 1.77442 921.715 1.77442C921.715 1.77442 923.408 1.49153 924.678 1.49153C925.947 1.49153 929.756 2.05731 930.179 2.05731C930.179 2.05731 930.179 2.05731 930.603 2.05731C931.872 2.34019 931.872 2.34019 931.872 2.34019C933.565 2.34019 935.258 2.34019 936.104 2.62308C936.95 2.90597 939.49 1.49153 941.182 0.642872C941.182 0.642872 941.182 0.642872 942.875 0.925759C944.991 1.49153 944.991 1.49153 944.991 1.49153C946.261 0.925759 947.107 0.359985 947.53 0.359985C947.953 0.359985 948.377 0.359985 948.8 0.0770986C949.223 -0.205788 951.339 0.359985 952.185 0.642872C952.609 0.925759 955.148 1.20865 954.725 0.642872C954.301 0.0770986 956.841 0.642872 957.264 0.359985C957.687 0.0770986 959.803 0.359985 960.226 0.642872C961.073 0.925759 963.612 0.925759 963.612 0.642872C963.612 0.359985 965.728 0.0770986 969.536 0.0770986C969.536 0.0770986 969.536 0.0770986 970.806 0.642872C973.345 1.77442 973.345 1.77442 973.345 1.77442C973.768 0.642872 974.615 0.359985 975.884 0.925759C975.884 0.925759 975.884 0.925759 978 0.359985C980.539 -0.205788 983.502 0.0770986 986.041 0.925759C986.887 1.20865 988.58 1.77442 990.273 1.20865C991.119 0.925759 993.235 1.49153 994.505 2.05731C995.351 2.34019 992.812 2.62308 994.505 2.90597C994.928 2.90597 995.774 2.34019 996.198 2.62308C997.044 2.62308 998.737 2.90597 998.737 3.18885C999.583 4.3204 999.583 4.3204 999.583 4.3204C1001.7 4.60328 1004.24 5.16906 1005.51 5.45195C1006.78 5.73483 1011.01 6.01772 1011.43 6.01772C1012.28 6.01772 1014.39 6.3006 1015.24 6.3006C1015.66 6.3006 1016.93 6.01772 1016.93 6.58349C1016.93 7.14926 1019.47 6.3006 1019.9 6.3006C1020.32 6.3006 1022.44 6.3006 1023.71 6.3006C1025.4 6.3006 1029.21 7.43215 1029.63 7.43215C1030.05 7.43215 1031.32 7.43215 1031.32 7.71504C1031.32 7.99792 1032.59 8.84658 1034.28 8.5637C1035.98 8.28081 1040.63 9.41236 1042.33 9.69524C1042.33 9.69524 1042.33 9.69524 1042.75 11.1097C1043.17 11.6755 1045.71 11.9583 1046.13 13.0899C1046.56 13.6557 1046.56 13.6557 1046.56 13.6557C1048.25 14.2214 1049.94 14.5043 1050.37 14.5043C1050.79 14.5043 1051.21 15.0701 1050.79 15.6359C1052.48 15.9188 1052.48 15.9188 1052.48 15.9188C1052.06 16.4845 1051.64 17.6161 1051.64 18.1818C1051.64 18.1818 1051.64 18.1818 1051.64 18.7476C1052.06 19.8792 1052.06 19.8792 1052.06 19.8792C1052.48 21.2936 1053.33 22.4251 1053.75 22.4251C1053.75 22.4251 1053.75 22.4251 1054.18 22.4251C1054.6 22.4251 1054.6 22.4251 1054.6 22.4251C1055.02 22.4251 1055.44 22.4251 1055.44 22.708C1055.44 22.9909 1054.6 23.2738 1053.75 23.5567C1053.75 23.5567 1053.75 23.5567 1052.91 23.8396C1052.91 23.8396 1052.91 24.1225 1052.91 24.4053C1052.91 24.4053 1053.33 24.4053 1053.75 24.4053L1054.18 24.1225C1055.02 24.1225 1055.02 24.1225 1055.02 24.1225C1055.87 24.1225 1056.71 24.1225 1056.71 24.4053C1056.71 24.6882 1057.56 25.5369 1058.41 26.1027C1058.41 26.1027 1058.41 26.1027 1059.25 26.6684C1059.68 26.9513 1059.68 26.9513 1059.68 26.9513C1059.68 27.8 1058.83 28.0829 1057.56 27.8C1056.29 27.5171 1053.33 27.8 1054.18 29.2144C1055.44 30.9117 1055.44 35.155 1054.6 35.155C1053.33 35.4379 1050.79 36.0037 1051.21 36.0037C1051.64 36.0037 1052.91 36.5695 1053.75 37.1352C1053.75 37.1352 1053.75 37.1353 1054.18 37.701C1055.44 39.1155 1055.87 36.8524 1057.14 37.701C1057.56 37.9839 1057.56 37.9839 1057.56 37.9839C1058.83 38.2668 1059.68 38.8326 1059.25 39.3983C1058.83 39.9641 1060.1 42.2272 1060.52 43.3588C1060.52 43.3588 1060.52 43.3588 1059.68 44.4903C1058.83 45.6218 1060.52 47.6021 1062.64 47.6021C1064.33 47.6021 1064.33 47.6021 1064.33 47.6021C1066.45 47.8849 1067.29 48.1678 1066.45 48.1678C1065.6 48.1678 1062.64 48.7336 1062.64 49.0165C1062.64 49.2994 1063.49 50.7138 1064.75 50.4309C1064.75 50.4309 1064.75 50.4309 1066.02 50.4309C1066.87 50.4309 1066.87 50.4309 1066.87 50.4309C1067.72 50.4309 1068.56 50.4309 1069.41 50.7138C1070.26 50.9967 1073.64 50.7138 1074.91 50.7138C1076.6 50.7138 1078.3 52.9769 1078.3 53.2598C1078.3 53.2598 1078.3 53.2598 1077.45 53.2598C1075.76 52.9769 1074.91 53.8256 1075.33 54.6742C1075.76 55.24 1076.18 55.8058 1077.03 56.0887C1078.72 56.6544 1078.72 56.6544 1078.72 56.6544C1078.72 57.786 1079.14 58.3517 1079.57 58.0689C1079.57 58.0689 1079.57 58.0689 1079.99 58.0689C1080.41 58.0689 1081.26 58.0689 1081.68 58.3517C1082.11 58.6346 1082.11 58.9175 1081.68 59.2004C1080.84 59.7662 1079.99 60.332 1078.3 60.0491C1077.87 60.0491 1077.45 60.332 1077.45 60.6148C1077.45 60.8977 1077.87 61.1806 1078.3 61.1806C1079.57 61.4635 1079.57 61.4635 1079.57 61.4635C1080.84 61.7464 1080.84 62.3122 1079.57 62.8779C1079.57 62.8779 1079.57 62.8779 1078.3 62.8779C1077.03 62.8779 1077.03 62.8779 1077.03 62.8779C1075.33 62.3122 1074.07 62.5951 1074.07 63.4437C1074.07 63.4437 1074.07 63.4437 1073.64 64.0095C1073.22 64.8581 1073.22 64.8581 1073.22 64.8581C1071.95 65.141 1069.83 65.4239 1068.99 65.4239C1068.14 65.4239 1068.14 67.1212 1068.99 68.2528C1069.41 69.1014 1070.68 72.2132 1069.83 72.4961C1068.99 72.779 1069.83 74.4763 1070.26 74.7592C1070.68 75.0421 1071.53 76.1736 1071.1 76.1736C1071.1 76.1736 1071.1 76.1736 1070.26 76.4565C1069.41 76.7394 1068.56 75.6078 1067.72 76.4565C1066.87 76.4565 1065.6 76.1736 1064.75 75.8907C1063.91 75.6078 1060.1 76.1736 1058.83 76.1736C1057.14 76.4565 1052.48 75.6078 1051.21 75.0421C1049.94 74.7592 1045.29 74.7592 1044.44 74.7592C1043.6 74.7592 1041.06 73.9105 1040.63 74.1934C1040.21 74.4763 1039.79 75.6078 1039.79 76.1736C1039.79 76.7394 1042.75 77.0223 1043.6 77.0223C1043.6 77.0223 1043.6 77.0223 1044.02 77.3052C1044.86 77.588 1044.02 78.7196 1046.13 78.4367C1046.56 78.4367 1046.56 78.4367 1046.56 78.4367C1046.98 79.0025 1048.25 79.2854 1049.1 78.7196C1049.1 78.7196 1049.1 78.7196 1049.1 80.134C1049.1 80.4169 1049.1 80.4169 1049.1 80.4169C1050.37 80.6998 1052.06 80.6998 1053.33 80.6998C1053.33 80.6998 1053.33 80.6998 1053.75 81.5485C1053.75 82.1142 1053.75 82.1142 1053.75 82.1142C1054.18 82.9629 1053.75 83.2458 1053.33 82.9629C1052.91 82.68 1050.37 82.68 1049.94 82.68C1049.52 82.9629 1047.83 83.2458 1046.98 82.68C1046.13 82.3971 1043.6 80.9827 1043.6 81.2656C1044.02 82.1142 1045.29 82.9629 1045.29 83.8115C1044.86 84.6602 1044.86 84.6602 1044.86 84.6602C1043.17 85.7918 1042.33 86.6404 1043.17 86.9233C1043.6 87.2062 1045.71 87.2062 1046.56 86.6404C1046.56 86.6404 1046.56 86.6404 1046.98 86.0746C1047.4 85.7918 1047.4 85.7918 1047.4 85.7918C1047.4 85.226 1047.83 84.9431 1047.83 84.9431C1049.1 85.7918 1049.1 85.7918 1049.1 85.7918C1050.37 85.226 1052.06 84.9431 1052.48 85.226C1052.91 85.226 1052.91 86.0746 1051.21 86.9233C1051.21 86.9233 1051.21 86.9233 1052.06 88.0548C1052.48 88.3377 1052.48 88.3377 1052.48 88.3377C1053.75 88.0548 1055.02 88.6206 1055.44 89.7522C1055.87 90.6008 1056.71 91.7324 1056.71 91.7324C1056.71 91.7324 1055.02 92.0153 1054.18 91.4495C1054.18 91.4495 1054.18 91.4495 1053.33 91.1666C1052.91 91.1666 1052.06 91.4495 1052.06 91.7324C1051.64 92.0153 1051.64 92.8639 1052.06 93.1468C1052.48 93.4297 1055.02 93.7126 1054.6 93.9955C1054.18 94.2784 1052.06 95.4099 1052.48 95.6928C1052.91 95.9757 1053.75 96.8243 1054.18 96.5414C1054.18 96.5414 1054.18 96.5414 1054.6 96.5414C1055.87 96.2586 1057.14 97.1072 1058.41 98.5216C1058.83 99.0874 1058.83 99.0874 1058.83 99.0874C1057.98 99.6532 1057.56 100.219 1057.14 100.502C1056.71 100.502 1056.71 101.068 1057.56 101.351C1057.56 101.351 1057.56 101.351 1057.98 101.351C1059.68 101.351 1060.1 101.633 1059.25 102.482C1059.25 102.765 1058.83 103.048 1058.83 103.048C1059.68 103.331 1059.68 103.331 1059.68 103.331C1059.68 103.896 1058.41 104.179 1057.56 103.896C1057.56 103.896 1057.56 103.896 1057.14 103.331C1057.14 103.048 1057.14 103.048 1057.14 103.048C1055.02 103.048 1055.02 103.331 1057.14 103.896C1057.14 103.896 1057.14 103.896 1056.29 105.028C1055.87 105.594 1055.87 105.594 1055.87 105.594C1055.44 106.442 1055.44 107.008 1055.87 107.291C1056.29 107.574 1057.14 108.706 1056.71 109.271C1056.29 109.837 1053.33 110.403 1053.33 110.686C1053.33 110.686 1053.33 110.686 1053.75 110.969C1054.18 111.534 1054.18 111.534 1054.18 111.534C1054.6 112.383 1054.6 112.666 1054.18 112.383C1053.75 112.1 1051.64 111.817 1051.21 112.1C1050.79 112.1 1048.67 112.1 1047.83 112.1C1046.98 112.1 1045.29 112.1 1045.71 112.383C1046.13 112.666 1047.4 113.232 1047.83 113.515C1048.25 113.798 1050.37 113.232 1050.37 113.232C1050.37 113.232 1050.79 113.515 1050.79 114.08C1050.79 114.646 1053.75 114.08 1054.18 114.08C1054.6 114.08 1055.44 114.363 1054.6 114.646C1053.75 114.929 1051.21 115.495 1050.79 115.212C1050.79 114.929 1049.52 114.646 1049.1 114.646C1048.67 114.646 1047.4 116.061 1046.98 116.061C1046.56 116.061 1044.86 116.626 1044.44 117.475C1044.44 117.475 1044.44 117.475 1044.86 118.324C1045.29 119.172 1046.13 119.455 1047.4 119.738C1047.83 119.738 1047.83 119.738 1047.83 119.738C1048.25 120.021 1048.25 120.587 1047.4 120.87C1046.98 121.435 1044.44 122.284 1044.02 122.567C1043.6 122.85 1043.6 123.699 1043.6 123.699C1043.17 123.699 1042.75 124.264 1042.75 124.264C1042.75 124.264 1042.75 124.83 1043.6 125.113C1044.02 125.396 1045.29 126.81 1045.29 127.659C1045.29 127.659 1045.29 127.659 1044.44 128.225C1042.75 129.356 1043.17 130.205 1045.71 130.771C1047.83 131.337 1047.83 131.337 1047.83 131.337C1046.56 132.185 1045.29 133.317 1044.44 133.882C1044.02 134.448 1042.33 135.014 1043.6 135.014C1043.6 135.014 1043.6 135.014 1043.6 136.146C1043.6 136.711 1043.6 136.711 1043.6 136.711C1043.6 137.277 1044.02 138.409 1044.02 138.974C1044.02 138.974 1044.02 138.974 1044.86 139.257C1045.71 139.823 1045.71 139.823 1045.71 139.823C1045.29 140.389 1044.86 141.52 1044.44 142.086C1044.44 142.086 1044.44 142.086 1045.29 142.652C1047.4 144.349 1047.4 144.349 1047.4 144.349C1045.71 145.198 1044.02 145.764 1044.02 145.764C1044.02 145.764 1045.29 147.461 1047.4 149.158C1047.4 149.158 1047.4 149.158 1049.1 150.856C1049.52 151.421 1049.52 151.421 1049.52 151.421C1048.67 151.139 1047.83 151.139 1047.4 151.139C1047.4 151.139 1046.56 151.139 1045.71 151.421C1044.86 151.704 1043.17 152.27 1042.75 152.27C1042.33 152.27 1040.21 152.553 1039.36 152.836C1039.36 152.836 1039.36 152.836 1038.52 153.119C1037.25 153.402 1037.25 153.402 1037.25 153.402C1035.98 153.402 1032.59 153.685 1030.05 153.967C1027.51 154.25 1018.63 154.816 1016.93 155.099C1016.93 155.099 1016.93 155.099 1015.66 155.099C1014.39 155.099 1014.39 155.099 1014.39 155.099C1012.7 155.382 1009.32 155.665 1005.93 155.665C1005.93 155.665 1005.93 155.665 1002.97 155.665C1001.7 155.665 1001.7 155.665 1001.7 155.665C1000.43 155.948 998.313 156.796 997.044 157.362C997.044 157.362 997.044 157.362 995.774 156.231C995.774 155.948 993.235 156.513 993.235 156.513C992.389 155.382 991.119 157.362 990.273 156.231C989.85 155.948 989.85 155.948 989.85 155.948C988.157 156.513 986.464 156.796 985.618 156.796C984.348 157.362 984.348 157.362 984.348 157.362C982.655 157.362 980.539 157.362 979.693 157.645C978.847 157.928 975.884 157.362 975.461 157.362C974.615 157.362 971.229 157.645 969.536 157.645C967.844 157.645 962.765 158.494 962.342 158.211C961.919 157.928 958.957 158.777 957.264 159.059C957.264 159.059 957.264 159.059 955.994 158.777C954.301 158.494 954.301 158.494 954.301 158.494C952.185 158.777 950.069 158.777 948.8 159.059C947.53 159.059 944.991 159.625 944.991 159.342C944.991 159.059 942.875 159.342 941.606 159.908C940.336 160.474 936.104 159.625 935.258 159.908C935.258 159.908 935.258 159.908 934.834 159.625C933.142 159.059 933.142 159.059 933.142 159.059C931.872 159.625 929.333 159.908 927.64 159.625C927.64 159.625 927.64 159.625 926.371 159.908C925.101 160.191 925.101 160.191 925.101 160.191C923.831 159.908 921.292 159.625 919.599 159.908C919.599 159.908 919.599 159.908 918.33 159.908C917.06 159.908 917.06 159.908 917.06 159.908C915.368 160.191 913.252 160.191 911.982 159.625C911.982 159.625 911.982 159.625 910.289 160.191C909.02 160.474 909.02 160.474 909.02 160.474C907.327 160.474 903.941 160.474 901.825 160.757C901.825 160.757 901.825 160.757 899.286 160.474C897.593 160.191 897.593 160.191 897.593 160.191C895.477 160.474 893.362 161.04 892.515 161.04C891.669 161.04 889.553 160.757 889.13 160.757C888.706 161.04 886.167 160.757 884.898 160.757C883.628 160.757 879.819 161.322 879.396 161.04C879.396 160.757 878.973 160.757 878.973 161.322C878.973 161.888 876.011 160.757 875.587 160.757C875.164 160.757 872.202 160.757 870.932 161.04C869.663 161.322 866.277 160.757 865.431 161.04C864.584 161.04 861.199 160.757 859.929 160.757C858.66 160.757 854.428 160.757 853.158 160.757C851.889 160.474 848.503 161.605 848.08 161.605C847.657 161.605 845.541 161.322 845.117 161.322C844.271 161.322 842.578 161.322 840.886 161.322C839.193 161.322 834.961 161.04 834.538 161.04C834.114 161.04 832.845 161.322 832.422 161.04C831.998 160.757 828.613 161.04 827.343 161.322C826.074 161.322 821.842 161.605 820.149 162.171C820.149 162.171 820.149 162.171 818.033 161.322C816.763 160.757 816.763 160.757 816.763 160.757C814.224 160.757 810.839 161.04 808.723 161.322C808.723 161.322 808.723 161.322 806.607 160.757C806.184 160.757 806.184 160.757 806.184 160.757C805.337 161.322 803.644 161.605 802.375 161.04C801.105 160.474 796.027 161.322 793.488 161.605C790.949 161.888 784.601 160.757 784.178 160.757C783.754 160.757 781.638 161.04 779.522 161.04C779.522 161.04 779.522 161.04 777.406 160.474C776.137 160.191 776.137 160.191 776.137 160.191C775.291 161.04 774.021 161.322 773.175 161.04C772.328 160.757 769.789 160.191 768.943 160.474C768.096 160.757 765.98 161.605 765.557 161.322C765.134 161.04 762.595 160.474 760.479 160.474C760.479 160.474 760.479 160.474 759.209 160.757C757.516 161.04 756.247 161.04 754.977 160.757C753.708 160.191 753.708 160.191 753.708 160.191C752.438 160.474 751.169 160.757 750.745 160.757C750.322 160.757 747.783 160.191 747.36 160.191C746.937 160.191 744.397 160.474 743.974 160.757C743.128 161.04 741.012 160.757 740.165 160.757C739.319 160.757 736.78 160.757 735.934 160.757C735.087 160.757 732.971 160.474 732.971 160.191C732.971 159.908 732.548 159.059 732.125 159.059C731.702 159.059 730.855 159.342 730.855 159.059C730.855 158.777 729.162 158.494 728.739 158.777C728.739 158.777 728.739 158.777 728.316 159.342C727.893 159.625 726.623 159.908 725.777 160.191C723.238 161.04 723.238 161.04 720.699 159.908C720.275 159.625 720.275 159.625 720.275 159.625C719.852 159.342 718.583 159.625 718.159 159.908C717.736 160.191 715.197 160.757 714.351 160.191C713.504 159.908 711.388 159.059 711.388 159.342C711.388 159.625 710.119 160.757 708.849 160.757C707.58 160.757 702.078 160.474 698.269 161.04C698.269 161.04 698.269 161.04 694.461 160.191C690.229 161.888 690.229 161.888 690.229 161.888C688.113 162.454 686.42 162.737 685.997 162.454C685.573 162.171 683.881 162.737 683.458 162.737C683.458 162.737 681.342 163.02 679.649 162.737C677.956 162.737 672.878 162.171 672.455 162.171C672.031 162.171 669.492 162.737 668.646 163.02C667.799 163.303 663.991 163.303 662.298 163.868C662.298 163.868 662.298 163.868 660.182 162.737C658.912 162.171 658.912 162.171 658.912 162.171C657.643 162.454 655.95 162.454 655.104 162.171C654.257 161.888 651.718 163.02 650.872 163.02C650.025 163.02 647.486 162.454 647.486 162.171C647.486 161.888 646.216 161.322 644.947 161.888C644.947 161.888 644.947 161.888 644.101 162.454C643.254 163.02 643.254 163.02 643.254 163.02C641.985 162.737 640.715 162.737 640.292 162.737C639.869 163.02 638.176 163.02 638.176 162.737C638.176 162.454 637.753 162.171 637.329 163.303C637.329 163.303 637.329 163.303 635.637 162.737C634.79 162.454 634.79 162.454 634.79 162.454C633.944 162.737 632.674 162.737 632.251 162.737C631.828 162.737 629.289 162.171 628.866 162.454C628.019 162.454 625.48 162.454 624.634 162.171C623.787 161.888 621.248 162.171 619.978 161.888C619.978 161.888 619.979 161.888 618.709 161.888C618.286 161.888 617.439 162.171 617.016 162.171C616.17 161.605 615.747 162.171 614.9 162.171C614.477 162.171 613.631 161.888 613.207 161.605C613.207 161.605 612.361 161.888 612.361 162.171C612.361 162.454 612.361 162.454 612.361 162.454C612.784 162.737 612.784 162.737 612.784 163.02C612.784 163.02 611.938 163.02 611.091 163.02C610.668 163.02 608.129 163.02 607.283 163.303C607.283 163.303 607.283 163.303 606.436 163.303C604.744 163.303 603.051 162.737 602.204 163.02C600.512 163.586 600.512 163.586 600.512 163.586C599.242 163.303 597.549 163.02 597.126 163.02C596.28 163.02 594.164 163.586 593.74 163.868C593.317 164.151 592.471 163.02 592.471 162.737C592.471 162.737 590.778 162.737 589.509 162.737C588.239 162.737 582.737 163.303 581.468 163.303C580.198 163.303 577.236 161.605 576.813 161.888C576.39 162.171 575.543 163.303 573.427 163.586C571.734 163.586 564.963 162.454 562.001 161.888C562.001 161.888 562.001 161.888 559.462 163.303C558.615 163.586 558.615 163.586 558.615 163.586C556.923 163.303 555.23 163.02 554.807 163.02C554.383 162.737 552.691 163.02 551.844 163.02C550.998 162.737 548.459 163.303 548.036 163.586C547.612 163.586 545.496 163.586 543.804 163.303C542.111 163.02 536.609 163.586 534.07 163.868C534.07 163.868 534.07 163.868 531.954 163.02C531.954 163.02 526.876 163.868 526.453 163.868C526.03 164.151 526.03 164.151 525.606 164.151C524.337 164.434 524.337 164.434 524.337 164.434C523.067 164.151 522.221 163.586 522.221 163.303C522.221 163.02 521.798 162.171 521.374 162.171C520.951 162.171 519.682 162.454 520.105 162.737C520.105 162.737 520.105 162.737 520.105 163.02C520.105 163.303 520.105 163.303 520.105 163.303C520.105 163.868 518.835 164.151 517.566 164.151C517.566 164.151 517.566 164.151 516.296 164.151C515.45 164.151 515.45 164.151 515.45 164.151C514.603 164.434 512.487 164.434 511.218 164.434C509.948 164.434 505.716 164.151 504.87 164.151C504.023 164.434 501.484 163.868 500.638 164.151C499.792 164.434 497.252 163.868 496.829 164.151C496.829 164.151 496.829 164.151 496.406 164.151C494.29 164.434 492.597 164.151 490.481 163.868C488.789 163.586 488.788 163.586 488.788 163.586C486.249 163.586 483.71 163.586 482.864 163.586C482.017 163.586 481.171 162.454 480.325 163.303C480.325 163.303 480.325 163.303 479.901 163.586C479.478 163.868 479.478 163.868 479.478 163.868C479.055 164.151 477.785 164.434 476.516 164.717C475.246 165 471.014 163.868 470.168 163.868C469.322 163.868 468.052 163.868 467.629 163.868C467.206 163.868 465.09 163.868 464.666 163.868C464.243 163.868 461.281 163.868 460.011 163.868C458.742 163.868 455.356 163.303 455.356 163.02C455.356 162.737 454.51 163.303 453.663 164.151C453.663 164.151 453.663 164.151 451.547 163.303C451.124 163.02 449.432 164.151 448.162 164.151C446.892 164.151 446.892 164.151 446.892 164.151C445.623 163.868 443.507 164.151 442.237 165C442.237 165 442.237 165 440.544 164.151C439.698 163.586 439.698 163.586 439.698 163.586C438.005 163.303 436.312 163.02 435.889 163.303C435.466 163.586 434.197 164.434 433.773 163.868C433.35 163.586 431.657 163.02 430.811 163.586C430.811 163.586 430.811 163.586 429.965 163.868C429.541 163.868 428.272 163.868 428.272 163.868C428.272 162.454 428.272 162.454 428.272 162.454C426.156 162.171 424.04 162.171 424.04 162.454C424.04 163.02 422.77 163.586 421.501 163.586C421.501 163.586 421.501 163.586 420.654 163.868C419.808 163.868 419.385 164.434 419.385 163.586C419.385 162.737 418.115 162.737 417.692 163.02C415.576 163.868 413.46 163.303 411.344 163.586C409.651 163.586 409.651 163.586 409.651 163.586C407.959 163.868 406.266 163.868 406.266 163.868C406.266 163.868 406.266 163.868 405.843 163.868C404.15 163.586 404.15 163.586 404.15 163.586C401.611 163.303 400.341 163.02 401.187 162.737C402.034 162.454 400.341 161.605 400.341 161.322C400.341 161.04 399.071 160.757 399.071 161.322C399.071 161.888 398.225 163.586 397.379 163.303C397.379 163.303 397.379 163.303 396.955 163.02C396.109 162.737 396.109 162.737 396.109 162.737C395.686 162.171 393.993 161.888 393.147 162.171C392.3 162.454 388.915 162.737 388.492 162.454C388.068 161.888 386.376 161.04 385.529 161.605C385.529 161.605 385.529 161.605 385.529 162.171C385.529 163.586 385.529 163.586 385.529 163.586C384.26 163.586 381.721 163.586 380.451 163.303C379.181 163.02 374.949 163.303 374.526 163.303C374.103 163.303 372.833 163.02 371.987 162.737C371.141 162.454 367.755 162.737 366.486 163.02C366.486 163.02 366.486 163.02 365.639 162.737C364.793 162.454 364.793 162.454 364.793 162.454C363.946 161.605 362.677 161.04 361.83 161.322C360.984 161.605 358.868 162.454 358.868 162.737C358.868 162.737 358.868 162.737 358.868 163.02C358.868 163.303 358.868 163.303 358.868 163.303C358.868 163.586 358.445 163.586 358.022 163.586C357.599 163.586 356.752 163.02 355.906 162.454C355.059 161.888 352.52 163.02 352.097 163.02C351.674 163.02 349.981 162.737 349.135 162.737C349.135 162.737 349.135 162.737 349.135 162.454C348.711 161.605 348.711 161.605 348.711 161.605C349.981 161.605 351.674 161.605 352.52 161.605C353.367 161.605 353.79 159.908 352.943 159.908C352.097 159.908 349.135 159.908 349.135 160.474C349.135 160.474 349.135 160.474 348.711 161.04C348.288 161.605 347.442 162.454 346.595 162.454C344.48 162.454 346.172 161.322 345.326 160.757C345.326 160.757 344.056 161.04 343.21 161.888C342.364 162.454 337.708 162.454 336.439 162.454C335.169 162.454 333.476 161.04 333.053 161.605C332.63 162.171 335.592 162.737 336.016 162.737C336.016 162.737 336.439 163.303 336.016 163.586C336.016 163.586 336.016 163.586 335.592 163.586C334.746 163.586 334.746 163.586 334.746 163.586C333.9 163.303 332.207 162.737 330.937 161.888C330.937 161.888 330.937 161.888 330.514 159.342C330.514 159.059 328.821 158.494 328.821 158.494C325.013 160.191 326.282 158.211 325.859 157.362C325.436 157.079 325.013 157.362 325.013 157.928C325.013 158.494 324.166 159.625 323.32 159.059C322.473 158.494 321.204 160.757 320.781 161.04C320.357 161.322 319.088 162.737 318.665 162.737C318.241 162.737 315.279 162.737 313.163 162.737C313.163 162.737 313.163 162.737 311.047 162.737C310.624 162.737 310.624 162.737 310.624 162.737C310.201 162.737 309.778 162.737 309.778 162.454C309.778 162.171 309.778 161.605 309.778 161.322C309.778 161.04 311.47 159.908 312.317 160.191C312.317 160.191 312.317 160.191 313.163 160.191C314.01 160.191 314.01 160.191 314.01 160.191C314.433 160.474 315.702 160.757 316.972 161.04C316.972 161.04 316.972 161.04 317.818 161.04C318.242 161.04 319.088 161.04 319.088 160.757C319.511 160.191 319.511 160.191 319.511 160.191C319.934 159.342 321.204 158.777 322.05 158.777C322.05 158.777 322.05 158.777 322.473 158.494C323.32 157.928 323.32 157.079 323.743 156.796C325.436 155.948 325.436 155.948 325.436 155.948C324.589 155.382 323.32 154.816 322.897 154.533C322.473 154.533 320.781 154.816 320.781 155.665C320.781 156.513 319.511 158.777 318.242 158.777C318.242 158.777 318.242 158.777 317.395 159.342C316.549 159.908 315.702 160.191 314.01 159.625C313.163 160.191 313.163 160.191 313.163 160.191ZM326.705 153.685C325.859 153.402 324.589 153.402 324.589 153.402C324.589 153.402 324.589 153.967 325.436 154.25C325.859 154.533 329.245 154.816 330.937 154.25C330.937 154.25 330.937 154.25 332.63 155.099C332.63 155.099 333.476 155.099 333.476 154.816C333.9 154.533 333.9 154.533 333.9 154.533C334.746 153.967 334.746 153.402 333.476 153.402C332.207 153.402 327.975 153.967 326.705 153.685ZM296.235 155.099C294.966 155.382 294.119 155.948 294.543 156.513C294.966 157.079 297.928 155.948 298.351 155.665C298.775 155.382 302.16 155.382 303.007 155.382C303.853 155.382 307.238 155.099 306.815 154.533C306.392 153.967 303.43 154.533 302.583 154.533C301.737 154.533 299.621 154.533 298.351 154.25C298.351 154.25 298.351 154.25 297.082 154.533C296.235 155.099 296.235 155.099 296.235 155.099ZM1034.28 76.1736C1035.55 76.4565 1035.98 76.1736 1035.55 75.6078C1035.13 75.0421 1033.02 73.0619 1032.17 71.9303C1032.17 71.9303 1032.17 71.9303 1030.48 73.3447C1029.21 74.4763 1029.21 74.4763 1029.21 74.4763C1027.94 74.1934 1027.51 73.9105 1028.36 74.1934C1029.21 74.1934 1033.02 75.8907 1034.28 76.1736ZM542.957 155.382C541.688 155.382 539.995 155.665 539.995 155.948C540.418 156.513 540.418 156.513 540.418 156.513C539.995 157.079 539.995 157.645 540.841 157.928C541.264 158.211 543.38 157.362 544.65 157.362C545.073 156.796 544.227 155.382 542.957 155.382ZM1052.48 75.325C1051.64 74.4763 1051.21 74.4763 1051.64 75.325C1052.06 76.1736 1055.44 77.0223 1056.29 77.0223C1056.29 77.0223 1056.29 77.0223 1056.29 76.1736C1056.29 75.8907 1056.29 75.8907 1056.29 75.8907C1057.14 75.0421 1056.29 75.0421 1054.18 75.8907C1054.18 75.8907 1054.18 75.8907 1053.33 75.6078C1052.48 75.325 1052.48 75.325 1052.48 75.325ZM286.502 154.25C283.963 154.533 282.693 154.816 283.963 154.816C284.809 154.816 287.772 155.665 288.195 155.948C289.041 156.231 291.157 156.513 291.157 156.231C291.157 155.948 290.311 154.816 289.041 155.099C289.041 155.099 289.041 155.099 288.618 155.099C286.502 154.25 286.502 154.25 286.502 154.25ZM390.608 157.079C390.184 157.079 390.184 157.928 391.031 159.059C391.031 159.059 391.031 159.059 392.3 159.342C393.57 159.908 393.57 159.908 393.57 159.908C394.84 160.474 396.532 160.757 397.379 160.757C397.379 160.757 397.379 160.757 397.379 160.474C397.802 160.191 397.802 160.191 397.802 160.191C397.802 159.625 396.532 159.342 394.84 159.342C394.84 159.342 394.84 159.342 393.993 159.059C393.147 158.777 393.147 158.777 393.147 158.777C392.724 157.928 391.031 157.079 390.608 157.079ZM733.818 157.079C734.664 156.796 734.664 156.513 734.241 156.231C733.818 155.948 732.125 155.099 731.702 154.816C731.278 154.533 729.586 154.816 730.009 155.665C730.432 156.513 733.394 157.079 733.818 157.079ZM356.752 158.494C356.329 157.645 356.329 157.645 356.752 158.494C356.752 159.059 356.329 160.757 357.175 160.757C358.022 160.757 356.752 159.342 356.752 158.494ZM32.1627 106.442C33.0091 106.442 33.4323 106.16 33.4323 105.594C31.7395 105.594 31.3163 105.028 31.3163 104.179C31.3163 103.896 31.3163 103.896 31.3163 103.896C30.8931 103.331 30.4699 103.614 29.6235 104.179C29.2004 105.028 31.3163 106.16 32.1627 106.442ZM17.7741 120.021C17.7741 119.738 16.9277 119.455 16.5045 119.172C16.5045 119.172 16.5045 119.172 16.0814 118.889C15.6582 118.607 15.235 118.324 14.3886 118.607C13.5422 118.889 13.119 119.172 14.3886 119.738C15.235 120.021 13.5422 121.435 15.6582 121.435C16.0814 121.435 16.9277 120.587 17.7741 120.021Z" fill="#FFB820"/>
</svg>
