<svg width="871" height="205" viewBox="0 0 871 205" fill="none" xmlns="http://www.w3.org/2000/svg">
<path d="M252.093 199.025C251.071 199.728 249.709 200.782 249.027 201.485C248.346 202.188 245.961 203.243 246.302 202.54C246.643 201.837 248.005 200.431 248.346 199.728C248.687 199.377 246.983 198.322 246.983 197.619C246.983 197.619 246.983 197.619 246.643 197.268C245.621 196.916 245.621 196.916 245.621 196.916C244.939 195.862 244.258 194.808 243.917 194.456C243.577 194.105 242.555 195.159 242.214 195.862C242.214 195.862 242.214 195.862 242.214 196.565C242.214 196.916 242.214 196.916 242.214 196.916C242.214 197.268 242.214 198.322 241.533 199.377C241.192 200.431 240.851 202.891 240.851 203.243C240.511 203.243 240.17 203.243 239.829 202.891C239.489 202.54 238.807 201.485 238.126 201.134C237.445 200.782 239.829 199.728 239.829 199.377C240.17 199.025 240.17 198.322 239.148 199.025C238.126 199.728 236.082 197.971 235.741 198.322C235.401 198.322 235.741 200.079 236.082 200.431C236.082 200.431 236.082 200.431 236.082 200.782C236.082 201.134 236.082 201.134 236.082 201.134C236.082 201.485 235.06 201.837 233.697 201.837C233.697 201.837 233.697 201.837 232.675 201.837C232.335 201.837 232.335 201.837 232.335 201.837C232.335 202.891 231.653 203.594 231.653 203.594C231.313 203.594 229.95 203.594 228.928 203.594C228.587 202.54 228.587 202.54 228.587 202.54C229.609 202.54 230.291 201.837 229.95 201.485C229.609 201.134 228.928 200.08 228.247 200.782C227.565 201.485 225.521 202.891 224.84 202.891C223.818 202.891 221.774 202.891 221.433 202.891C221.433 202.891 221.774 202.54 222.455 202.54C223.137 202.54 224.84 201.837 224.84 201.134C224.84 200.431 227.225 199.728 227.906 199.728C228.247 199.728 229.609 199.025 229.95 199.025C229.95 199.025 229.95 199.025 229.95 198.674C229.95 198.322 229.609 197.971 229.269 197.971C226.884 198.674 224.499 199.377 222.115 199.377C220.411 199.377 220.411 199.377 220.411 199.377C219.73 200.431 218.708 201.485 218.027 201.837C217.345 202.188 216.664 200.782 216.664 200.782C216.323 200.782 215.301 200.08 214.961 200.08C214.62 200.08 213.257 199.025 213.598 199.025C213.939 199.025 214.961 198.322 215.301 198.674C215.301 198.674 215.301 198.674 215.301 199.025C215.983 200.431 215.983 200.431 215.983 200.431C217.345 200.079 218.708 200.079 218.708 199.728C219.049 199.728 219.389 198.674 219.389 198.322C219.389 197.971 217.686 196.916 217.005 196.916C216.323 194.456 214.961 195.862 214.62 196.565C213.939 197.971 212.235 198.322 211.213 199.025C210.191 199.728 210.191 199.728 210.191 199.728C209.51 200.782 208.829 201.134 208.829 200.431C208.829 200.431 208.829 200.431 208.829 200.08C208.829 199.377 208.829 199.377 208.829 199.377C207.807 199.025 206.103 197.971 205.081 197.619C205.081 197.619 205.081 197.619 205.081 196.916C204.741 195.51 203.719 195.51 202.015 195.51C201.334 195.51 200.653 194.808 200.312 194.808C199.971 194.808 199.631 195.862 199.29 196.213C198.609 196.213 198.609 196.565 199.29 196.916C199.971 197.268 200.653 198.322 200.312 198.674C199.971 199.025 196.565 197.619 196.905 197.268C196.905 197.268 196.905 197.268 197.246 196.916C197.927 195.51 196.905 194.808 195.543 195.51C194.18 195.862 193.839 195.159 193.158 194.808C192.136 194.808 192.136 194.808 192.136 194.808C191.114 194.808 188.729 195.159 187.367 195.51C187.367 195.51 187.367 195.51 186.685 195.159C185.663 194.808 185.663 194.808 185.663 194.808C184.641 194.808 183.279 195.159 182.597 195.51C181.916 195.862 179.191 194.808 178.509 194.808C177.828 194.808 176.465 194.808 175.784 194.808C175.103 194.808 172.718 194.456 172.037 195.159C171.355 195.862 168.63 196.213 167.608 195.159C167.608 195.159 167.608 195.159 165.905 195.51C164.883 195.862 164.883 195.862 164.883 195.862C163.52 195.862 161.817 195.51 160.454 195.51C159.432 195.51 156.025 196.213 154.663 196.565C153.3 196.916 148.871 196.213 147.509 196.213C147.509 196.213 147.509 196.213 145.805 195.51C143.421 194.105 143.421 194.105 143.421 194.105C141.377 194.456 138.992 195.159 138.651 195.159C138.311 195.159 136.267 195.159 135.245 195.159C134.223 195.159 131.497 195.51 131.157 195.51C131.157 195.159 130.475 194.808 130.135 195.159C129.794 195.51 128.431 195.862 128.091 195.51C128.091 195.51 128.091 195.51 127.75 195.159C127.409 194.808 127.409 194.808 127.409 194.808C127.069 194.808 126.387 194.808 126.047 195.159C125.706 195.51 125.025 195.862 124.684 195.51C124.343 195.159 122.981 195.862 122.981 195.862C122.64 195.862 121.277 196.213 119.915 196.565C119.915 196.565 119.915 196.565 118.552 196.213C117.871 195.862 117.189 195.862 116.508 195.51C115.827 195.159 115.145 194.105 113.783 195.159C113.783 195.159 113.101 195.159 112.761 194.808C111.398 193.753 111.057 193.402 109.695 195.159C109.013 196.213 109.013 196.213 109.013 196.213C108.332 194.808 107.651 193.753 107.31 194.105C106.969 194.456 105.947 195.159 105.947 194.808C105.947 194.456 104.925 193.402 104.244 193.402C103.563 193.402 102.2 194.456 101.859 194.808C101.519 195.159 100.497 194.456 100.156 194.808C100.156 195.159 99.8154 195.159 99.8154 194.456C99.8154 193.753 97.7714 194.808 97.7714 195.159C96.4087 195.51 96.4087 193.402 94.7054 194.105C93.6834 194.456 93.6834 194.456 93.6834 194.456C92.3207 194.456 90.9581 194.456 90.6174 194.456C90.2767 194.456 88.9141 194.808 87.8921 194.808C86.8701 194.808 84.4854 194.105 83.8041 194.808C83.8041 194.808 83.804 194.808 83.1227 195.159C82.782 195.51 82.7821 195.51 82.7821 195.51C82.1007 195.51 81.0787 194.808 80.3974 194.456C79.716 194.105 76.3094 195.159 75.9687 194.808C75.628 194.456 74.2654 193.753 73.9247 194.105C73.584 194.456 71.8807 193.753 71.8807 193.753C71.8807 193.753 71.8807 193.753 71.54 194.105C71.1994 194.456 71.1994 194.808 70.8587 194.808C70.1774 194.808 68.8147 195.159 68.8147 194.105C68.8147 193.753 68.8147 193.753 68.8147 193.753C69.8367 193.402 70.1774 192.699 69.8367 192.699C69.496 192.347 68.1334 192.347 67.7927 192.699C67.452 193.05 66.0894 194.105 66.0894 193.05C66.0894 193.05 66.0894 193.05 66.0894 192.699C66.0894 192.347 65.7487 191.996 65.7487 191.996C65.0674 191.996 65.0674 191.996 65.0674 191.996C64.386 191.996 63.7047 191.644 64.0454 190.941C64.0454 190.941 64.0454 190.941 62.6827 191.293C62.342 191.293 62.342 191.293 62.342 191.293C62.0014 191.644 61.32 191.644 60.298 191.293C59.276 190.59 55.8694 190.59 55.188 190.59C54.166 190.59 51.4407 189.536 50.4187 189.536C49.7374 189.536 47.6934 189.887 47.3527 189.184C47.012 188.481 43.6054 187.778 43.2647 188.13C41.2207 186.021 41.2207 186.021 41.2207 186.021C38.1547 185.669 35.77 185.318 35.4294 185.318C35.0887 185.318 33.726 185.318 32.704 185.318C31.682 185.318 27.2533 185.669 25.55 185.669C25.55 185.669 25.55 185.669 25.2093 183.561C25.2093 183.209 24.528 182.858 24.1873 183.209C23.1653 183.561 23.1653 183.561 23.1653 183.561C22.1433 183.209 20.7807 182.506 20.7807 182.155C20.44 181.803 18.7367 181.1 18.0553 181.1C17.374 181.1 15.6707 180.046 15.33 180.397C14.9893 180.397 14.308 180.397 13.9673 179.695C13.9673 179.695 13.9673 179.695 13.6267 179.343C13.286 178.992 12.6047 178.992 12.264 179.343C10.9013 180.046 9.53867 180.046 8.85734 180.046C6.81334 180.046 7.83534 179.343 7.83534 178.64C7.83534 178.289 6.81334 177.586 8.176 177.586C8.85734 177.586 9.53867 177.234 10.22 176.883C10.9013 176.531 10.9013 176.18 10.22 175.828C9.53867 175.477 9.53867 175.477 9.53867 175.477C10.22 175.125 11.242 174.071 12.264 173.368C13.286 172.665 13.9673 170.205 13.286 169.853C13.286 169.853 13.286 169.853 12.6047 169.853C11.9233 169.853 11.9233 169.853 11.9233 169.853C11.242 170.205 9.87934 170.205 9.198 169.853C8.51667 169.502 8.51667 166.339 8.85734 165.284C9.19801 164.23 9.87934 160.715 9.53867 160.715C9.53867 160.715 8.51667 161.067 7.83534 161.77C7.83534 161.77 7.83534 161.77 6.81334 160.715C6.47267 160.012 6.47267 160.012 6.47267 160.012C6.47267 159.31 7.154 158.607 7.49467 157.904C7.49467 157.904 7.49467 157.904 6.81334 157.552C6.47267 157.552 6.47267 157.552 6.47267 157.552C5.45067 157.904 4.76934 157.904 5.11 157.201C5.11 157.201 5.11 157.201 5.11 156.849C5.11 155.443 5.11 155.443 5.11 155.443C4.42867 154.038 3.74734 152.28 3.74734 151.929C3.74734 151.226 4.76934 149.117 6.132 148.766C7.49467 148.414 7.49467 144.899 6.47267 145.251C6.47267 145.251 6.47267 145.251 5.79134 145.602C5.11 145.954 5.11 145.954 5.11 145.954C4.42867 146.305 3.066 145.602 2.044 144.548C2.044 144.548 2.044 144.548 2.38467 143.494C2.38467 143.142 2.38467 142.791 2.72533 142.439C3.74734 141.385 4.42867 140.682 5.11 139.979C5.79134 139.276 6.47267 141.033 7.154 139.979C7.154 139.627 7.154 139.627 7.154 139.627C7.83534 139.627 7.83534 139.276 6.81334 138.925C6.81334 138.925 6.81334 138.925 6.81334 138.573C6.81334 138.222 7.154 137.519 7.49467 137.167C7.83534 136.816 8.176 136.816 8.51667 136.816C9.87934 136.113 9.87934 134.356 9.198 134.356C8.176 134.004 7.83534 133.653 7.49467 132.95C7.154 132.598 7.154 132.598 7.154 132.598C5.79134 132.598 5.79134 131.895 7.49467 131.544C9.198 131.192 13.286 129.084 15.33 130.138C15.33 130.138 15.33 130.138 17.7147 129.786C18.0553 129.786 19.0773 130.489 19.418 131.192C19.7587 132.598 19.7587 132.598 19.7587 132.598C20.7807 132.247 21.462 131.192 21.1213 130.489C21.1213 130.489 21.1213 130.489 21.1213 129.786C21.462 128.029 21.8027 126.272 22.1433 124.514C22.1433 124.163 22.1433 124.163 22.1433 124.163C23.506 123.812 24.1873 123.109 24.528 123.109C24.8687 123.109 25.8907 122.054 26.2313 122.054C26.9127 122.054 28.616 121.703 28.9567 121.703C29.2974 121.703 29.9787 121 30.3194 120.648C30.66 120.297 32.0227 121.351 32.0227 121.703C32.3634 121.703 33.3854 122.054 33.3854 121.351C33.3854 120.648 34.4074 119.243 35.0887 119.945C35.77 120.297 37.814 119.594 37.814 119.242C37.814 119.242 37.4734 118.54 38.1547 118.188C38.1547 118.188 38.1547 118.188 38.4954 118.188C39.5174 118.54 40.88 119.945 41.2207 117.837C41.5614 117.837 42.2427 117.837 42.924 118.188C43.6054 118.54 45.6494 117.485 46.3307 117.485C47.012 117.485 48.7154 117.485 49.7374 117.485C50.7594 117.485 52.4627 116.079 51.7814 115.728C51.1 115.376 49.7374 113.971 50.078 112.916C50.4187 111.862 46.6714 109.05 47.012 109.05C47.3527 109.05 47.6934 107.996 46.6714 107.293C46.6714 107.293 46.6714 107.293 46.6714 106.59C46.6714 105.184 46.6714 105.184 46.6714 105.184C45.6494 105.184 44.6274 104.832 43.946 104.481C43.946 104.481 43.946 104.481 43.6054 104.129C42.924 103.075 42.924 103.075 42.924 103.075C43.2647 102.021 43.2647 100.263 42.924 99.209C42.924 99.209 42.924 99.209 42.5834 98.1546C42.5834 97.8031 42.5834 97.8031 42.5834 97.8031C42.5834 97.4517 43.6054 97.4517 44.6274 98.1546C45.6494 98.8575 48.7154 97.8031 48.7154 97.4517C48.7154 97.1002 48.3747 96.3973 47.6934 96.3973C47.6934 96.3973 47.6934 96.3973 47.3527 96.3973C46.6714 96.7487 46.6714 96.7487 46.6714 96.7487C45.6494 97.1002 45.3087 97.1002 45.3087 96.7487C45.3087 96.7487 45.3087 96.7487 45.3087 96.3973C45.3087 96.0458 45.3087 96.0458 45.3087 96.0458C45.3087 95.6943 45.3087 95.3429 44.968 95.3429C44.6274 95.3429 43.6054 95.6943 43.2647 95.3429C42.924 94.9914 43.6054 93.2341 44.2867 92.1797C44.2867 92.1797 44.2867 92.1797 45.6494 91.8282C45.99 91.8282 46.3307 91.8282 46.3307 91.4767C45.99 89.0165 45.99 89.0165 45.99 89.0165C48.3747 87.9621 49.3967 87.2592 49.056 86.9077C48.3747 86.5562 46.3307 86.9077 45.99 86.9077C45.6494 86.9077 42.924 85.8533 40.88 85.1504C40.88 85.1504 40.88 85.1504 38.836 85.5018C37.814 85.5018 37.814 85.1504 37.4734 84.4474C37.814 83.393 37.814 83.393 37.814 83.393C37.1327 84.096 36.1107 84.4474 35.0887 84.096C34.0667 83.7445 31.3414 82.6901 31.0007 82.3387C31.682 81.2843 31.682 81.2843 31.682 81.2843C31.3414 80.2299 30.66 79.5269 30.3194 79.1755C29.9787 78.824 29.2974 78.824 29.2974 78.824C29.2974 78.824 29.2974 78.824 28.9567 79.1755C28.616 79.5269 28.616 79.5269 28.616 79.5269C28.2754 79.8784 27.2533 80.2299 26.572 80.2299C25.8907 80.5813 23.506 80.9328 23.1653 80.5813C22.8247 80.2299 22.1433 78.824 22.484 78.4725C22.8247 78.1211 25.55 78.824 26.572 78.824C26.572 78.824 26.572 78.824 26.572 78.1211C26.9127 77.4181 26.2313 76.0123 25.8907 76.0123C21.1213 75.6608 21.1213 75.6608 21.1213 75.6608C21.8027 72.8491 21.8027 70.3888 21.1213 70.3888C20.44 70.3888 19.418 71.4432 19.0773 71.4432C18.7367 71.4432 18.396 70.7403 18.396 70.7403C18.396 70.7403 18.0553 70.0374 17.7147 69.3344C17.374 68.6315 18.396 66.8742 18.7367 66.1713C18.7367 66.1713 18.7367 66.1713 18.7367 65.8198C18.7367 65.4683 18.7367 65.4683 18.7367 65.4683C18.7367 65.1169 18.0553 64.7654 17.7147 64.7654C17.7147 64.7654 17.7147 64.7654 17.374 64.7654C17.0333 64.7654 17.0333 64.7654 17.0333 64.7654C16.6927 64.7654 16.352 64.7654 16.0113 64.4139C16.6927 63.711 16.6927 63.711 16.6927 63.711C17.7147 62.6566 17.7147 61.9537 16.352 62.3051C16.352 62.3051 16.352 62.3051 15.6707 62.3051C14.308 62.3051 14.308 62.3051 14.308 62.3051C12.9453 62.3051 11.5827 61.9537 11.242 61.2507C11.242 61.2507 11.242 61.2507 11.242 60.8993C11.5827 57.3846 11.5827 57.3846 11.5827 57.3846C9.87934 55.9788 8.176 54.5729 7.83534 54.2214C7.83534 54.2214 7.83534 54.2214 7.83534 53.87C7.49467 53.167 7.49467 53.167 7.49467 53.167C7.49467 52.1126 7.154 50.7068 6.81334 49.6524C6.81334 49.6524 6.81334 49.6524 6.132 49.3009C3.74734 49.6524 3.74734 48.598 4.088 47.1921C4.088 46.8407 4.088 46.8407 4.088 46.8407C4.088 45.7863 3.066 45.4348 1.70333 46.1377C1.70333 46.1377 1.70333 46.1377 2.38467 44.7319C3.066 43.6775 1.70333 43.6775 1.36267 43.326C1.36267 43.326 0.340667 44.7319 0 43.326C0 42.9745 0 42.9745 0 42.9745C0.681334 42.6231 1.36267 42.2716 1.36267 42.2716C1.36267 42.2716 1.022 40.8658 0.340667 39.8114C0.340667 39.8114 0.340667 39.8114 0.681334 38.4055C0.681334 38.054 1.022 37.7026 1.022 37.3511C1.022 36.9996 1.022 36.9996 1.022 36.9996C0.681334 36.6482 0.681334 36.2967 1.022 36.2967C1.36267 36.2967 3.066 36.2967 3.40667 35.5938C3.74734 34.8908 3.066 33.1335 3.40667 32.7821C4.76934 33.8365 5.79134 33.8364 6.81334 32.4306C7.83534 31.3762 7.83534 31.3762 7.83534 31.3762C9.19801 32.4306 10.22 32.4306 10.22 32.0791C10.22 31.7277 11.9233 30.3218 13.286 29.6189C13.286 29.6189 13.286 29.6189 14.308 31.3762C14.9893 32.4306 14.9893 32.4306 14.9893 32.4306C16.6927 31.7277 17.7147 30.6733 17.374 30.6733C17.0333 30.6733 16.352 29.9703 16.352 29.9703C17.0333 29.9703 17.7147 29.9703 18.396 30.3218C18.7367 30.3218 18.7367 30.3218 18.7367 30.3218C19.0773 30.3218 19.418 30.3218 19.7587 29.9703C20.0993 29.6189 21.1213 29.9703 21.1213 29.6189C21.1213 29.2674 21.8027 28.5645 22.1433 29.2674C22.484 29.9703 24.1873 29.6189 24.8687 28.5645C24.8687 28.5645 24.8687 28.5645 25.55 27.8615C25.8907 27.5101 25.8907 27.5101 25.8907 27.5101C26.572 27.5101 27.594 27.5101 28.2754 27.8615C28.9567 28.213 32.0227 27.5101 32.3634 27.8615C33.0447 28.213 34.748 28.9159 35.0887 27.8615C35.0887 27.8615 35.0887 27.8615 35.77 27.1586C36.4514 26.4557 36.4514 26.4557 36.4514 26.4557C37.4734 26.4557 38.836 26.4557 39.1767 26.8071C39.858 27.1586 40.88 25.7528 41.5614 25.7528C42.2427 25.7528 43.946 26.1042 44.2867 26.4557C44.6274 26.8071 45.6494 26.8071 45.99 26.4557C46.3307 25.7528 47.3527 24.3469 48.034 24.6984C48.7154 25.0498 50.078 24.6984 50.7594 24.3469C51.1 23.9954 52.8034 24.6984 52.8034 24.6984C52.8034 24.6984 52.8034 24.6984 52.8034 24.3469C52.8034 23.644 52.8034 23.644 52.8034 23.644C53.4847 23.644 54.8474 24.3469 56.21 24.6984C56.21 24.6984 56.21 24.6984 56.21 22.941C56.5507 22.941 57.9134 22.5896 58.9354 22.2381C60.298 21.8866 64.7267 22.5896 65.7487 22.5896C65.7487 22.5896 65.7487 22.5896 66.43 22.941C68.1334 22.941 68.474 23.9954 68.474 22.5896L69.496 22.2381C70.518 23.644 72.2214 22.5896 72.2214 22.2381C73.2434 21.1837 74.606 22.5896 75.2874 21.5352C75.628 21.1837 75.628 21.1837 75.628 21.1837C77.3314 21.5352 78.694 22.2381 79.0347 22.2381C79.3754 22.2381 80.3974 21.5352 81.4194 20.8322C82.4414 20.1293 85.5074 21.1837 85.5074 21.1837C85.5074 19.4264 85.5074 19.4264 85.5074 19.4264C86.8701 19.7778 89.2547 19.7778 90.2767 19.0749C90.2767 19.0749 90.2767 19.0749 91.2987 20.4808C92.3207 20.8322 92.3207 20.8322 92.3207 20.8322C93.3427 20.4808 94.7054 19.7778 95.3867 19.4264C95.3867 19.4264 95.3867 19.4264 96.0681 19.4264C96.4087 19.4264 96.4087 19.4264 96.4087 19.4264C96.7494 19.4264 97.4307 19.4264 98.1121 19.4264C98.7934 19.4264 101.519 19.4264 102.2 19.4264C102.881 19.4264 104.925 18.7234 104.925 19.0749C105.266 19.4264 105.947 19.7778 105.947 19.4264C105.947 19.4264 105.947 19.4264 106.288 19.0749C106.629 18.7234 106.629 18.7234 106.629 18.7234C106.969 18.372 106.969 18.372 107.31 18.7234C107.651 19.0749 107.651 19.4264 107.991 19.7778C107.991 19.7778 107.991 19.7778 108.332 19.7778C109.354 19.0749 109.354 19.0749 109.354 19.0749C110.717 18.7234 112.42 18.372 112.761 18.372C112.761 18.372 112.761 18.372 113.101 18.0205C114.464 16.6147 114.464 16.6147 114.464 16.6147C115.145 18.0205 116.167 18.7234 116.508 18.372C116.849 18.0205 117.53 17.3176 117.871 17.3176C118.211 17.3176 118.552 16.6147 118.893 15.2088C118.893 15.2088 118.893 15.2088 120.937 16.9661C121.277 17.3176 121.277 17.3176 121.277 17.3176C122.299 16.9661 123.662 16.9661 124.343 16.9661C125.025 16.9661 126.387 17.3176 126.387 16.9661C126.387 16.6147 128.431 16.6147 128.772 16.6147C129.113 16.6147 129.794 16.2632 129.453 14.8573C129.453 14.8573 129.453 14.8573 131.497 16.6147C131.838 16.6147 132.86 16.2632 133.541 15.9117C133.882 15.9117 133.882 15.9117 133.882 15.9117C134.223 15.5603 135.926 15.2088 137.289 14.8573C138.992 14.5059 142.739 16.2632 143.08 16.2632C143.421 16.2632 145.465 15.9117 146.487 15.5603C147.509 15.2088 152.619 15.5603 153.641 15.5603C153.641 15.5603 153.641 15.5603 153.981 15.2088C155.685 14.8573 155.685 14.8573 155.685 14.8573C156.707 15.2088 157.729 15.5603 158.41 15.9117C158.41 15.9117 158.41 15.9117 159.091 15.9117C160.113 15.9117 160.113 15.9117 160.113 15.9117C161.135 15.5603 162.498 14.8573 163.179 14.8573C163.861 14.8573 166.586 14.5059 167.949 14.5059C167.949 14.5059 167.949 14.5059 169.311 14.5059C169.652 14.5059 169.652 14.5059 169.652 14.5059C169.993 14.1544 170.674 14.5059 170.674 14.8573C170.674 15.2088 172.377 14.8573 172.718 14.8573C173.059 14.5059 174.081 14.1544 174.421 14.1544C174.762 14.1544 176.125 14.8573 176.465 14.8573C176.806 14.8573 179.191 13.8029 180.213 13.8029C180.213 13.8029 180.213 13.8029 180.553 14.1544C181.235 15.2088 182.257 13.1 182.938 14.5059C183.279 15.2088 183.279 15.2088 183.279 15.2088C184.641 14.5059 186.004 14.5059 186.345 14.5059C186.685 14.8573 187.707 15.2088 188.048 15.2088C188.048 14.8573 188.729 14.5059 188.729 14.5059C188.729 14.5059 189.751 14.5059 190.092 14.1544C190.433 13.8029 193.158 13.8029 195.202 13.4515C195.202 13.4515 195.202 13.4515 197.246 14.1544C198.949 14.5059 200.993 14.8573 203.037 13.4515C204.059 12.7485 204.059 12.7485 204.059 12.7485C205.763 13.1 207.466 13.4515 207.466 13.8029C207.807 14.1544 208.829 14.1544 209.169 13.4515C209.851 12.7485 212.235 14.1544 212.235 13.8029C212.235 13.4515 212.917 12.7485 213.257 13.4515C213.257 13.8029 213.939 14.5059 214.279 13.8029C214.62 13.1 217.345 14.1544 218.708 13.8029C218.708 13.8029 218.708 13.8029 220.071 14.1544C221.774 13.4515 221.774 13.4515 221.774 13.4515C223.818 12.7485 225.862 12.3971 226.203 12.3971C226.203 12.7485 226.884 13.1 227.225 12.7485C227.565 12.3971 228.247 11.6941 228.587 11.6941C229.95 12.7485 229.95 12.7485 229.95 12.7485C231.653 12.7485 234.038 12.3971 235.06 12.7485C236.082 12.7485 239.829 12.3971 240.511 13.1C240.511 13.1 240.511 13.1 241.533 12.0456C241.533 11.6941 242.895 12.3971 243.577 12.3971C245.621 12.3971 245.621 12.3971 245.621 12.3971C248.005 12.3971 251.412 12.0456 252.775 11.6941C252.775 11.6941 252.775 11.6941 254.137 13.1C254.478 13.4515 254.478 13.4515 254.478 13.4515C255.159 13.4515 256.522 13.1 257.203 13.1C257.885 13.1 259.588 13.4515 259.588 13.1C259.588 12.7485 261.973 12.7485 262.654 13.8029C262.654 13.8029 262.654 13.8029 264.017 12.7485C264.357 12.3971 264.357 12.3971 264.357 12.3971C265.379 12.7485 266.742 12.7485 267.423 12.7485C268.105 12.7485 269.808 13.1 270.489 13.1C270.489 13.1 270.489 13.1 271.171 13.1C271.511 13.1 272.193 13.1 272.533 13.1C272.874 13.1 273.555 12.7485 273.896 12.7485C274.237 12.7485 274.237 12.7485 274.237 12.7485C274.577 12.7485 275.259 12.7485 275.94 12.7485C276.621 12.7485 277.984 13.1 279.006 13.8029C279.006 13.8029 279.006 13.8029 279.006 12.3971C279.347 12.3971 281.391 12.7485 282.753 13.4515C282.753 13.4515 282.754 13.4515 284.116 13.4515C285.138 13.4515 285.138 13.4515 285.138 13.4515C286.501 12.7485 287.863 12.3971 288.204 12.0456C288.545 12.0456 289.567 12.3971 290.248 13.4515C290.248 13.4515 290.248 13.4515 291.611 13.1C292.292 12.7485 293.655 12.7485 293.995 13.1C295.358 13.4515 295.699 11.3427 296.721 11.6941C297.743 12.0456 297.743 12.0456 297.743 12.0456C299.106 12.0456 300.809 12.3971 301.49 12.7485C301.49 12.7485 301.49 12.7485 301.831 12.3971C303.194 11.3427 303.194 11.3427 303.194 11.3427C304.897 12.0456 306.26 12.3971 306.6 12.0456C306.941 11.6941 307.963 11.3427 308.304 11.6941C308.644 12.0456 309.666 13.1 309.666 13.1C309.666 13.1 310.688 12.7485 311.37 12.3971C312.051 12.0456 315.798 12.0456 316.82 12.0456C317.842 12.0456 320.908 12.0456 321.93 12.3971C322.952 12.7485 324.996 11.6941 325.678 12.0456C327.722 9.58535 327.722 9.58535 327.722 9.58535C330.788 10.2883 333.513 11.3427 334.194 11.3427C334.876 11.3427 336.238 10.9912 336.238 11.6941C336.238 12.3971 338.964 10.9912 339.645 10.6397C340.326 10.2883 341.689 10.6397 342.37 10.6397C342.711 10.6397 344.074 10.2883 344.414 10.6397C344.414 10.9912 345.096 11.3427 345.436 11.3427C345.777 10.9912 347.14 10.2883 348.502 10.2883C348.502 10.2883 348.502 10.2883 349.524 10.6397L352.59 11.6941C353.272 11.3427 353.272 11.3427 353.272 11.3427C354.294 10.6397 354.975 10.6397 354.975 10.6397C354.975 10.9912 356.338 11.6941 357.019 12.0456C357.019 12.0456 357.019 12.0456 358.722 10.6397C359.063 10.6397 359.063 10.6397 359.063 10.6397C359.404 10.6397 360.085 10.9912 360.426 10.9912C360.766 11.3427 363.492 10.9912 365.195 10.6397C365.876 9.93681 365.876 9.93681 365.876 9.93681C366.558 10.2883 367.239 11.3427 366.898 12.3971C366.898 12.3971 366.898 12.3971 368.942 11.3427C370.305 10.6397 370.305 10.6397 370.305 10.6397C370.305 11.6941 370.305 12.0456 370.305 11.3427C370.305 10.6397 372.69 11.6941 372.69 11.6941C372.69 11.6941 373.712 11.3427 374.734 11.3427C375.415 11.3427 378.481 12.0456 379.503 12.0456C380.525 12.0456 382.228 11.3427 382.569 11.3427C382.91 11.3427 383.591 12.3971 383.932 12.3971C383.932 12.3971 384.272 12.0456 384.613 11.6941C384.954 11.3427 386.657 10.9912 387.338 11.3427C387.338 11.3427 387.338 11.3427 388.02 11.3427C388.36 11.3427 389.042 10.6397 389.042 10.9912C390.064 11.6941 390.064 11.6941 390.064 11.6941C391.086 11.3427 393.13 11.3427 394.492 11.6941C394.492 11.6941 394.492 11.6941 395.855 12.0456C396.196 12.0456 396.196 12.0456 396.196 12.0456C396.877 12.0456 397.558 11.6941 397.899 11.6941C398.24 11.3427 399.602 11.3427 400.284 10.9912C400.624 10.6397 403.69 11.3427 405.053 11.3427C405.053 11.3427 405.053 11.3427 406.416 11.3427C407.438 11.3427 407.438 11.3427 407.438 11.3427C408.8 11.6941 409.822 11.6941 410.163 11.6941C410.504 11.6941 411.866 10.9912 412.888 10.9912C412.888 10.9912 412.888 10.9912 413.57 11.3427C414.251 11.6941 414.932 12.7485 414.932 10.9912C414.932 10.9912 415.614 10.9912 415.954 10.9912C417.658 10.9912 419.702 11.6941 421.405 11.3427C422.768 10.9912 422.768 10.9912 422.768 10.9912C423.79 11.3427 424.812 11.6941 425.152 11.6941C425.493 11.6941 426.856 11.3427 427.537 11.3427C428.218 10.9912 432.647 11.3427 434.01 11.6941C435.372 12.0456 438.779 10.2883 439.46 10.2883C440.142 10.2883 443.208 9.93682 444.23 9.58535C445.252 9.23388 447.636 10.9912 447.636 10.9912C447.977 10.9912 449.34 9.93681 450.021 10.6397C450.021 10.6397 450.021 10.6397 450.702 10.6397C451.384 10.6397 452.406 9.93682 453.087 10.2883C454.45 10.6397 454.45 10.6397 454.45 10.6397C455.131 9.93681 456.153 9.58535 456.494 9.58535C456.494 9.58535 456.494 9.58535 456.834 9.93681C457.516 10.2883 457.516 10.2883 457.516 10.2883C458.197 10.6397 458.878 10.9912 459.219 10.6397C459.56 10.2883 460.241 9.93682 460.582 10.2883C460.582 10.6397 462.626 10.6397 462.966 10.2883C463.307 9.93682 464.67 9.58535 465.01 9.93681C465.351 10.2883 466.373 11.3427 466.373 11.3427C467.395 9.58535 468.758 10.9912 470.12 10.9912C470.802 10.9912 470.802 10.9912 470.802 10.9912C471.824 10.6397 472.505 10.6397 473.186 10.6397C473.527 10.6397 474.549 10.6397 475.23 10.9912C475.912 11.3427 478.637 10.6397 480 10.6397C480 10.6397 480 10.6397 481.362 10.2883C482.044 10.2883 483.066 10.9912 483.747 10.6397C485.11 10.2883 485.11 10.2883 485.11 10.2883C486.472 10.6397 488.176 10.6397 489.198 10.9912C489.198 10.9912 489.198 10.9912 490.22 10.9912C491.923 10.6397 491.923 10.6397 491.923 10.6397C493.967 10.6397 495.67 10.2883 496.011 10.2883C496.352 10.2883 497.374 10.9912 497.714 11.3427C498.055 12.0456 500.44 10.9912 500.78 11.3427C501.121 11.6941 502.143 12.0456 502.484 12.0456C502.484 11.6941 501.802 10.6397 501.802 10.6397C502.824 10.2883 502.824 10.2883 502.824 10.2883C503.165 10.9912 503.506 11.6941 503.846 12.0456C504.187 12.0456 504.868 11.6941 505.209 11.6941C505.55 11.3427 506.572 10.9912 506.912 11.3427C507.253 11.6941 508.275 11.3427 508.275 10.2883C508.275 10.2883 508.275 10.2883 509.978 10.9912C509.638 11.6941 510.319 12.0456 511.682 11.6941C512.704 11.3427 515.77 12.7485 515.77 12.7485C515.77 12.7485 515.77 12.7485 515.77 12.3971C515.77 10.9912 515.77 10.9912 515.77 10.9912C516.792 11.3427 517.814 11.6941 518.154 12.0456C518.495 12.3971 519.176 12.7485 519.517 12.3971C519.858 12.0456 520.539 11.3427 521.22 11.6941C521.902 12.0456 524.968 11.3427 525.649 11.3427C526.33 11.3427 528.715 12.3971 528.715 12.7485C528.715 13.1 531.1 12.3971 531.44 12.0456C531.781 11.6941 533.484 11.3427 533.825 12.7485C533.825 12.7485 533.825 12.7485 535.528 12.3971C537.232 12.0456 534.506 10.9912 535.869 10.9912C537.232 10.9912 537.232 10.9912 537.232 10.9912C538.594 10.9912 542.001 10.9912 544.726 10.9912C544.726 10.9912 544.726 10.9912 547.111 10.9912C548.474 10.9912 549.496 10.9912 550.858 10.9912C551.88 10.9912 551.88 10.9912 551.88 10.9912C552.902 11.3427 554.606 10.6397 555.628 9.93681C555.628 9.93681 555.628 9.93682 556.65 11.3427C557.331 12.0456 557.331 12.0456 557.331 12.0456C557.331 11.3427 558.012 10.2883 558.694 9.93681C558.694 9.93681 558.694 9.93681 559.375 10.6397C560.056 11.6941 560.056 11.6941 560.056 11.6941C561.078 11.3427 562.441 10.9912 563.463 10.9912C564.485 10.9912 566.87 10.2883 567.551 9.93681C568.232 9.58535 570.617 10.6397 571.298 10.6397C571.98 10.6397 574.364 10.9912 575.046 10.9912C575.386 10.6397 577.09 10.2883 578.112 9.93681C578.112 9.93681 578.112 9.93682 578.793 9.58535C580.496 8.88242 580.496 8.88242 580.496 8.88242C581.178 9.93682 581.859 10.2883 581.859 9.93681C581.859 9.58535 582.881 8.53095 583.903 8.88242C584.925 9.23388 587.991 9.93681 588.672 9.93681C589.694 9.93681 592.76 8.53095 594.464 8.53095C594.464 8.53095 594.464 8.53095 595.826 8.53095C597.189 8.53095 598.552 8.17949 600.255 8.53095C601.277 8.53095 601.277 8.53095 601.277 8.53095C601.958 8.17949 603.321 8.17949 604.343 8.17949C604.343 8.17949 604.343 8.17949 604.684 7.82802C606.046 7.12509 606.387 7.47656 606.728 8.53095C607.409 8.53095 609.453 7.82802 610.816 6.77363C610.816 6.77363 610.816 6.77363 612.86 8.17949C613.2 8.17949 613.2 8.17949 613.2 8.17949C613.541 8.17949 613.541 7.82802 613.541 7.47656C613.541 7.12509 616.266 7.47656 616.948 7.82802C617.629 8.17949 620.014 7.82802 620.695 7.82802C621.376 7.82802 623.42 7.12509 624.102 7.12509C624.783 7.12509 626.827 6.42216 627.849 6.77363C628.871 7.12509 632.618 6.77363 633.3 6.77363C633.64 7.12509 635.003 7.82802 635.003 7.47656C635.003 7.12509 635.684 6.77363 636.025 7.47656C636.025 7.47656 636.025 7.47656 636.366 7.47656C637.047 7.82802 637.047 7.82802 637.047 7.82802C637.728 7.82802 639.772 7.47656 641.135 7.47656C641.135 7.47656 641.135 7.47656 641.816 7.12509C642.838 6.42216 642.838 6.42216 642.838 6.42216C643.52 6.77363 644.542 7.12509 644.882 7.12509C645.223 7.12509 646.245 6.77363 646.586 6.42216C646.926 6.42216 648.97 6.77363 649.992 7.12509C651.014 7.47656 654.08 6.42216 654.421 6.42216C654.762 6.42216 656.124 7.82802 656.124 7.47656C656.124 7.12509 657.146 6.0707 658.168 6.0707C658.168 6.0707 658.168 6.0707 658.85 6.0707C659.872 6.0707 659.872 6.0707 659.872 6.0707C660.894 6.42216 662.597 6.77363 663.619 6.77363C664.641 6.77363 667.026 5.71923 667.707 5.71923C668.388 5.71923 670.092 6.0707 670.092 5.71923C670.092 5.36777 670.773 4.31337 670.773 4.31337C671.795 5.36777 672.817 6.42216 674.52 5.0163C675.202 4.66484 675.202 4.66484 675.202 4.66484C676.224 5.0163 677.586 5.0163 677.927 5.0163C678.268 5.0163 679.971 5.36777 680.312 5.36777C680.312 5.36777 680.312 5.36777 680.652 5.36777C681.674 5.0163 681.674 5.0163 681.674 5.0163C683.037 4.66484 684.74 4.66484 685.762 4.66484C685.762 4.66484 685.762 4.66484 686.784 4.66484C687.466 4.66484 687.466 4.66484 687.466 4.66484C688.488 3.96191 689.51 3.61044 689.85 3.96191C690.191 4.31337 691.213 5.0163 691.554 4.66484C691.894 4.31337 693.938 3.61044 694.279 3.96191C694.62 4.31337 696.323 5.0163 698.026 5.0163C698.026 5.0163 698.026 5.0163 699.048 5.36777C700.07 5.71923 700.07 5.71923 700.07 5.71923C700.752 5.36777 702.114 5.0163 703.136 5.0163C703.136 5.0163 703.136 5.0163 703.818 4.66484C704.158 4.66484 704.158 4.66484 704.158 4.66484C704.84 4.66484 706.543 4.31337 708.246 3.96191C708.246 3.96191 708.246 3.96191 709.95 5.0163C710.972 5.71923 710.972 5.71923 710.972 5.71923C712.675 5.71923 714.038 5.0163 714.038 4.31337C714.038 3.61044 716.082 3.96191 716.763 4.31337C717.104 4.66484 719.148 4.66484 719.829 4.66484C720.51 4.66484 722.214 3.96191 722.214 3.96191C722.214 3.96191 722.895 4.31337 723.236 4.66484C723.576 5.0163 726.302 5.36777 725.961 5.0163C725.62 4.66484 725.62 4.31337 726.983 4.66484C726.983 4.66484 726.983 4.66484 728.346 3.61044C729.027 3.25898 730.73 3.61044 731.752 3.61044C732.774 3.61044 732.774 3.61044 732.774 3.61044C733.456 4.31337 734.137 4.66484 734.478 4.66484C734.818 4.66484 736.522 4.66484 738.225 5.0163C738.225 5.0163 738.225 5.0163 739.247 3.61044C739.588 3.25898 739.588 3.25898 739.588 3.25898C741.291 3.96191 742.313 3.96191 742.313 3.61044C742.313 3.25898 741.972 2.20458 741.972 2.20458C741.972 2.20458 743.335 1.85312 744.357 1.85312C745.379 1.85312 748.445 2.55605 748.786 2.55605C748.786 2.55605 748.786 2.55605 749.126 2.55605C750.148 2.90751 750.148 2.90751 750.148 2.90751C751.511 2.90751 752.874 2.90751 753.555 3.25898C754.236 3.61044 756.28 1.85312 757.643 0.79872C757.643 0.79872 757.643 0.79872 759.006 1.15018C760.709 1.85312 760.709 1.85312 760.709 1.85312C761.731 1.15018 762.412 0.447254 762.753 0.447254C763.094 0.447254 763.434 0.447254 763.775 0.0957892C764.116 -0.255676 765.819 0.447254 766.5 0.79872C766.841 1.15018 768.885 1.50165 768.544 0.79872C768.204 0.0957892 770.248 0.79872 770.588 0.447254C770.929 0.0957892 772.632 0.447254 772.973 0.79872C773.654 1.15018 775.698 1.15018 775.698 0.79872C775.698 0.447254 777.402 0.0957892 780.468 0.0957892C780.468 0.0957892 780.468 0.0957892 781.49 0.79872C783.534 2.20458 783.534 2.20458 783.534 2.20458C783.874 0.79872 784.556 0.447254 785.578 1.15018C785.578 1.15018 785.578 1.15018 787.281 0.447254C789.325 -0.255676 791.71 0.0957892 793.754 1.15018C794.435 1.50165 795.798 2.20458 797.16 1.50165C797.842 1.15018 799.545 1.85312 800.567 2.55605C801.248 2.90751 799.204 3.25898 800.567 3.61044C800.908 3.61044 801.589 2.90751 801.93 3.25898C802.611 3.25898 803.974 3.61044 803.974 3.96191C804.655 5.36777 804.655 5.36777 804.655 5.36777C806.359 5.71923 808.402 6.42216 809.424 6.77363C810.446 7.12509 813.853 7.47656 814.194 7.47656C814.875 7.47656 816.579 7.82802 817.26 7.82802C817.601 7.82802 818.622 7.47656 818.622 8.17949C818.622 8.88242 820.666 7.82802 821.007 7.82802C821.348 7.82802 823.051 7.82802 824.073 7.82802C825.436 7.82802 828.502 9.23389 828.842 9.23389C829.183 9.23389 830.205 9.23388 830.205 9.58535C830.205 9.93682 831.227 10.9912 832.59 10.6397C833.953 10.2883 837.7 11.6941 839.063 12.0456C839.063 12.0456 839.063 12.0456 839.403 13.8029C839.744 14.5059 841.788 14.8573 842.129 16.2632C842.469 16.9661 842.469 16.9661 842.469 16.9661C843.832 17.6691 845.195 18.0205 845.535 18.0205C845.876 18.0205 846.217 18.7234 845.876 19.4264C847.239 19.7778 847.239 19.7778 847.239 19.7778C846.898 20.4808 846.557 21.8866 846.557 22.5896C846.557 22.5896 846.557 22.5896 846.557 23.2925C846.898 24.6984 846.898 24.6984 846.898 24.6984C847.239 26.4557 847.92 27.8615 848.26 27.8615C848.26 27.8615 848.261 27.8615 848.601 27.8615C848.942 27.8615 848.942 27.8615 848.942 27.8615C849.283 27.8615 849.623 27.8615 849.623 28.213C849.623 28.5645 848.942 28.9159 848.26 29.2674C848.26 29.2674 848.261 29.2674 847.579 29.6189C847.579 29.6189 847.579 29.9703 847.579 30.3218C847.579 30.3218 847.92 30.3218 848.26 30.3218L848.601 29.9703C849.283 29.9703 849.283 29.9703 849.283 29.9703C849.964 29.9703 850.645 29.9703 850.645 30.3218C850.645 30.6733 851.327 31.7277 852.008 32.4306C852.008 32.4306 852.008 32.4306 852.689 33.1335C853.03 33.485 853.03 33.485 853.03 33.485C853.03 34.5394 852.349 34.8908 851.327 34.5394C850.305 34.1879 847.92 34.5394 848.601 36.2967C849.623 38.4055 849.623 43.6775 848.942 43.6775C847.92 44.0289 845.876 44.7319 846.217 44.7319C846.557 44.7319 847.579 45.4348 848.26 46.1377C848.26 46.1377 848.261 46.1377 848.601 46.8407C849.623 48.598 849.964 45.7863 850.986 46.8407C851.327 47.1921 851.327 47.1921 851.327 47.1921C852.349 47.5436 853.03 48.2465 852.689 48.9495C852.349 49.6524 853.371 52.4641 853.711 53.87C853.711 53.87 853.711 53.87 853.03 55.2758C852.349 56.6817 853.711 59.142 855.415 59.142C856.777 59.142 856.777 59.142 856.777 59.142C858.481 59.4934 859.162 59.8449 858.481 59.8449C857.799 59.8449 855.415 60.5478 855.415 60.8993C855.415 61.2507 856.096 63.0081 857.118 62.6566C857.118 62.6566 857.118 62.6566 858.14 62.6566C858.821 62.6566 858.821 62.6566 858.821 62.6566C859.503 62.6566 860.184 62.6566 860.865 63.0081C861.547 63.3595 864.272 63.0081 865.294 63.0081C866.657 63.0081 868.019 65.8198 868.019 66.1713C868.019 66.1713 868.019 66.1713 867.338 66.1713C865.975 65.8198 865.294 66.8742 865.635 67.9286C865.975 68.6315 866.316 69.3344 866.997 69.6859C868.36 70.3888 868.36 70.3888 868.36 70.3888C868.36 71.7947 868.701 72.4976 869.041 72.1462C869.041 72.1462 869.041 72.1462 869.382 72.1462C869.723 72.1462 870.404 72.1462 870.745 72.4976C871.085 72.8491 871.085 73.2006 870.745 73.552C870.063 74.255 869.382 74.9579 868.019 74.6064C867.679 74.6064 867.338 74.9579 867.338 75.3094C867.338 75.6608 867.679 76.0123 868.019 76.0123C869.041 76.3637 869.041 76.3637 869.041 76.3637C870.063 76.7152 870.063 77.4181 869.041 78.1211C869.041 78.1211 869.041 78.1211 868.019 78.1211C866.997 78.1211 866.997 78.1211 866.997 78.1211C865.635 77.4181 864.613 77.7696 864.613 78.824C864.613 78.824 864.613 78.824 864.272 79.5269C863.931 80.5813 863.931 80.5813 863.931 80.5813C862.909 80.9328 861.206 81.2843 860.525 81.2843C859.843 81.2843 859.843 83.393 860.525 84.7989C860.865 85.8533 861.887 89.7194 861.206 90.0709C860.525 90.4224 861.206 92.5311 861.547 92.8826C861.887 93.2341 862.569 94.6399 862.228 94.6399C862.228 94.6399 862.228 94.6399 861.547 94.9914C860.865 95.3429 860.184 93.937 859.503 94.9914C858.821 94.9914 857.799 94.6399 857.118 94.2885C856.437 93.937 853.371 94.6399 852.349 94.6399C850.986 94.9914 847.239 93.937 846.217 93.2341C845.195 92.8826 841.447 92.8826 840.766 92.8826C840.085 92.8826 838.041 91.8282 837.7 92.1797C837.359 92.5311 837.019 93.937 837.019 94.6399C837.019 95.3429 839.403 95.6943 840.085 95.6943C840.085 95.6943 840.085 95.6943 840.425 96.0458C841.107 96.3973 840.425 97.8031 842.129 97.4517C842.469 97.4517 842.469 97.4517 842.469 97.4517C842.81 98.1546 843.832 98.5061 844.513 97.8031C844.513 97.8031 844.513 97.8031 844.513 99.5605C844.513 99.9119 844.513 99.9119 844.513 99.9119C845.535 100.263 846.898 100.263 847.92 100.263C847.92 100.263 847.92 100.263 848.26 101.318C848.26 102.021 848.26 102.021 848.26 102.021C848.601 103.075 848.261 103.427 847.92 103.075C847.579 102.724 845.535 102.724 845.195 102.724C844.854 103.075 843.491 103.427 842.81 102.724C842.129 102.372 840.085 100.615 840.085 100.966C840.425 102.021 841.447 103.075 841.447 104.129C841.106 105.184 841.107 105.184 841.107 105.184C839.744 106.59 839.062 107.644 839.744 107.996C840.084 108.347 841.788 108.347 842.469 107.644C842.469 107.644 842.469 107.644 842.81 106.941C843.151 106.59 843.15 106.59 843.15 106.59C843.15 105.887 843.491 105.535 843.491 105.535C844.513 106.59 844.513 106.59 844.513 106.59C845.535 105.887 846.898 105.535 847.239 105.887C847.579 105.887 847.579 106.941 846.217 107.996C846.217 107.996 846.217 107.996 846.898 109.401C847.239 109.753 847.239 109.753 847.239 109.753C848.261 109.401 849.283 110.104 849.623 111.51C849.964 112.565 850.645 113.971 850.645 113.971C850.645 113.971 849.283 114.322 848.601 113.619C848.601 113.619 848.601 113.619 847.92 113.268C847.579 113.268 846.898 113.619 846.898 113.971C846.557 114.322 846.557 115.376 846.898 115.728C847.239 116.079 849.283 116.431 848.942 116.782C848.601 117.134 846.898 118.54 847.239 118.891C847.579 119.242 848.261 120.297 848.601 119.945C848.601 119.945 848.601 119.945 848.942 119.945C849.964 119.594 850.986 120.648 852.008 122.406C852.349 123.109 852.349 123.109 852.349 123.109C851.667 123.812 851.327 124.514 850.986 124.866C850.645 124.866 850.645 125.569 851.327 125.92C851.327 125.92 851.326 125.92 851.667 125.92C853.03 125.92 853.371 126.272 852.689 127.326C852.689 127.678 852.349 128.029 852.349 128.029C853.03 128.381 853.03 128.381 853.03 128.381C853.03 129.084 852.008 129.435 851.327 129.084C851.327 129.084 851.327 129.084 850.986 128.381C850.986 128.029 850.986 128.029 850.986 128.029C849.283 128.029 849.283 128.381 850.986 129.084C850.986 129.084 850.986 129.084 850.305 130.489C849.964 131.192 849.964 131.192 849.964 131.192C849.623 132.247 849.623 132.95 849.964 133.301C850.304 133.653 850.986 135.058 850.645 135.761C850.305 136.464 847.92 137.167 847.92 137.519C847.92 137.519 847.92 137.519 848.26 137.87C848.601 138.573 848.601 138.573 848.601 138.573C848.942 139.627 848.942 139.979 848.601 139.627C848.261 139.276 846.557 138.925 846.217 139.276C845.876 139.276 844.173 139.276 843.491 139.276C842.81 139.276 841.447 139.276 841.788 139.627C842.129 139.979 843.151 140.682 843.491 141.033C843.832 141.385 845.535 140.682 845.535 140.682C845.535 140.682 845.876 141.033 845.876 141.736C845.876 142.439 848.261 141.736 848.601 141.736C848.942 141.736 849.623 142.088 848.942 142.439C848.261 142.791 846.217 143.494 845.876 143.142C845.876 142.791 844.854 142.439 844.513 142.439C844.173 142.439 843.151 144.197 842.81 144.197C842.469 144.197 841.107 144.899 840.766 145.954C840.766 145.954 840.766 145.954 841.107 147.008C841.447 148.063 842.128 148.414 843.15 148.766C843.491 148.766 843.491 148.766 843.491 148.766C843.832 149.117 843.832 149.82 843.15 150.171C842.81 150.874 840.766 151.929 840.425 152.28C840.085 152.632 840.085 153.686 840.085 153.686C839.744 153.686 839.403 154.389 839.403 154.389C839.403 154.389 839.403 155.092 840.085 155.443C840.425 155.795 841.447 157.552 841.447 158.607C841.447 158.607 841.447 158.607 840.766 159.31C839.403 160.715 839.744 161.77 841.788 162.473C843.491 163.176 843.491 163.176 843.491 163.176C842.469 164.23 841.447 165.636 840.766 166.339C840.425 167.042 839.063 167.745 840.085 167.745C840.085 167.745 840.085 167.745 840.085 169.151C840.085 169.853 840.085 169.853 840.085 169.853C840.085 170.556 840.425 171.962 840.425 172.665C840.425 172.665 840.425 172.665 841.107 173.017C841.788 173.72 841.788 173.72 841.788 173.72C841.447 174.423 841.107 175.828 840.766 176.531C840.766 176.531 840.766 176.531 841.447 177.234C843.15 179.343 843.15 179.343 843.15 179.343C841.788 180.397 840.425 181.1 840.425 181.1C840.425 181.1 841.447 183.209 843.15 185.318C843.15 185.318 843.151 185.318 844.513 187.427C844.854 188.13 844.854 188.13 844.854 188.13C844.172 187.778 843.491 187.778 843.15 187.778C843.15 187.778 842.469 187.778 841.788 188.13C841.107 188.481 839.744 189.184 839.403 189.184C839.063 189.184 837.359 189.536 836.678 189.887C836.678 189.887 836.678 189.887 835.997 190.238C834.975 190.59 834.975 190.59 834.975 190.59C833.953 190.59 831.227 190.941 829.183 191.293C827.139 191.644 819.985 192.347 818.622 192.699C818.622 192.699 818.622 192.699 817.6 192.699C816.578 192.699 816.579 192.699 816.579 192.699C815.216 193.05 812.491 193.402 809.765 193.402C809.765 193.402 809.765 193.402 807.38 193.402C806.358 193.402 806.359 193.402 806.359 193.402C805.337 193.753 803.633 194.808 802.611 195.51C802.611 195.51 802.611 195.51 801.589 194.105C801.589 193.753 799.545 194.456 799.545 194.456C798.864 193.05 797.842 195.51 797.16 194.105C796.82 193.753 796.82 193.753 796.82 193.753C795.457 194.456 794.094 194.808 793.413 194.808C792.391 195.51 792.391 195.51 792.391 195.51C791.028 195.51 789.325 195.51 788.644 195.862C787.962 196.213 785.578 195.51 785.237 195.51C784.556 195.51 781.83 195.862 780.468 195.862C779.105 195.862 775.017 196.916 774.676 196.565C774.336 196.213 771.951 197.268 770.588 197.619C770.588 197.619 770.588 197.619 769.566 197.268C768.204 196.916 768.204 196.916 768.204 196.916C766.5 197.268 764.797 197.268 763.775 197.619C762.753 197.619 760.709 198.322 760.709 197.971C760.709 197.619 759.006 197.971 757.984 198.674C756.962 199.377 753.555 198.322 752.874 198.674C752.874 198.674 752.874 198.674 752.533 198.322C751.17 197.619 751.17 197.619 751.17 197.619C750.148 198.322 748.104 198.674 746.742 198.322C746.742 198.322 746.742 198.322 745.72 198.674C744.698 199.025 744.698 199.025 744.698 199.025C743.676 198.674 741.632 198.322 740.269 198.674C740.269 198.674 740.269 198.674 739.247 198.674C738.225 198.674 738.225 198.674 738.225 198.674C736.862 199.025 735.159 199.025 734.137 198.322C734.137 198.322 734.137 198.322 732.774 199.025C731.752 199.377 731.752 199.377 731.752 199.377C730.39 199.377 727.664 199.377 725.961 199.728C725.961 199.728 725.961 199.728 723.917 199.377C722.554 199.025 722.554 199.025 722.554 199.025C720.851 199.377 719.148 200.08 718.466 200.08C717.785 200.08 716.082 199.728 715.741 199.728C715.4 200.079 713.356 199.728 712.334 199.728C711.312 199.728 708.246 200.431 707.906 200.08C707.906 199.728 707.565 199.728 707.565 200.431C707.565 201.134 705.18 199.728 704.84 199.728C704.499 199.728 702.114 199.728 701.092 200.08C700.07 200.431 697.345 199.728 696.664 200.08C695.982 200.08 693.257 199.728 692.235 199.728C691.213 199.728 687.806 199.728 686.784 199.728C685.762 199.377 683.037 200.782 682.696 200.782C682.356 200.782 680.652 200.431 680.312 200.431C679.63 200.431 678.268 200.431 676.905 200.431C675.542 200.431 672.136 200.08 671.795 200.08C671.454 200.08 670.432 200.431 670.092 200.08C669.751 199.728 667.026 200.079 666.004 200.431C664.982 200.431 661.575 200.782 660.212 201.485C660.212 201.485 660.212 201.485 658.509 200.431C657.487 199.728 657.487 199.728 657.487 199.728C655.443 199.728 652.718 200.079 651.014 200.431C651.014 200.431 651.014 200.431 649.311 199.728C648.97 199.728 648.97 199.728 648.97 199.728C648.289 200.431 646.926 200.782 645.904 200.08C644.882 199.377 640.794 200.431 638.75 200.782C636.706 201.134 631.596 199.728 631.256 199.728C630.915 199.728 629.212 200.08 627.508 200.08C627.508 200.08 627.508 200.079 625.805 199.377C624.783 199.025 624.783 199.025 624.783 199.025C624.102 200.08 623.08 200.431 622.398 200.08C621.717 199.728 619.673 199.025 618.992 199.377C618.31 199.728 616.607 200.782 616.266 200.431C615.926 200.079 613.882 199.377 612.178 199.377C612.178 199.377 612.178 199.377 611.156 199.728C609.794 200.079 608.772 200.079 607.75 199.728C606.728 199.025 606.728 199.025 606.728 199.025C605.706 199.377 604.684 199.728 604.343 199.728C604.002 199.728 601.958 199.025 601.618 199.025C601.277 199.025 599.233 199.377 598.892 199.728C598.211 200.079 596.508 199.728 595.826 199.728C595.145 199.728 593.101 199.728 592.42 199.728C591.738 199.728 590.035 199.377 590.035 199.025C590.035 198.674 589.694 197.619 589.354 197.619C589.013 197.619 588.332 197.971 588.332 197.619C588.332 197.268 586.969 196.916 586.628 197.268C586.628 197.268 586.628 197.268 586.288 197.971C585.947 198.322 584.925 198.674 584.244 199.025C582.2 200.08 582.2 200.079 580.156 198.674C579.815 198.322 579.815 198.322 579.815 198.322C579.474 197.971 578.452 198.322 578.112 198.674C577.771 199.025 575.727 199.728 575.046 199.025C574.364 198.674 572.661 197.619 572.661 197.971C572.661 198.322 571.639 199.728 570.617 199.728C569.595 199.728 565.166 199.377 562.1 200.08C562.1 200.08 562.1 200.08 559.034 199.025C555.628 201.134 555.628 201.134 555.628 201.134C553.924 201.837 552.562 202.188 552.221 201.837C551.88 201.485 550.518 202.188 550.177 202.188C550.177 202.188 548.474 202.54 547.111 202.188C545.748 202.188 541.66 201.485 541.32 201.485C540.979 201.485 538.935 202.188 538.254 202.54C537.572 202.891 534.506 202.891 533.144 203.594C533.144 203.594 533.144 203.594 531.44 202.188C530.418 201.485 530.418 201.485 530.418 201.485C529.396 201.837 528.034 201.837 527.352 201.485C526.671 201.134 524.627 202.54 523.946 202.54C523.264 202.54 521.22 201.837 521.22 201.485C521.22 201.134 520.198 200.431 519.176 201.134C519.176 201.134 519.176 201.134 518.495 201.837C517.814 202.54 517.814 202.54 517.814 202.54C516.792 202.188 515.77 202.188 515.429 202.188C515.088 202.54 513.726 202.54 513.726 202.188C513.726 201.837 513.385 201.485 513.044 202.891C513.044 202.891 513.044 202.891 511.682 202.188C511 201.837 511 201.837 511 201.837C510.319 202.188 509.297 202.188 508.956 202.188C508.616 202.188 506.572 201.485 506.231 201.837C505.55 201.837 503.506 201.837 502.824 201.485C502.143 201.134 500.099 201.485 499.077 201.134C499.077 201.134 499.077 201.134 498.055 201.134C497.714 201.134 497.033 201.485 496.692 201.485C496.011 200.782 495.67 201.485 494.989 201.485C494.648 201.485 493.967 201.134 493.626 200.782C493.626 200.782 492.945 201.134 492.945 201.485C492.945 201.837 492.945 201.837 492.945 201.837C493.286 202.188 493.286 202.188 493.286 202.54C493.286 202.54 492.604 202.54 491.923 202.54C491.582 202.54 489.538 202.54 488.857 202.891C488.857 202.891 488.857 202.891 488.176 202.891C486.813 202.891 485.45 202.188 484.769 202.54C483.406 203.243 483.406 203.243 483.406 203.243C482.384 202.891 481.022 202.54 480.681 202.54C480 202.54 478.296 203.243 477.956 203.594C477.615 203.946 476.934 202.54 476.934 202.188C476.934 202.188 475.571 202.188 474.549 202.188C473.527 202.188 469.098 202.891 468.076 202.891C467.054 202.891 464.67 200.782 464.329 201.134C463.988 201.485 463.307 202.891 461.604 203.243C460.241 203.243 454.79 201.837 452.406 201.134C452.406 201.134 452.406 201.134 450.362 202.891C449.68 203.243 449.68 203.243 449.68 203.243C448.318 202.891 446.955 202.54 446.614 202.54C446.274 202.188 444.911 202.54 444.23 202.54C443.548 202.188 441.504 202.891 441.164 203.243C440.823 203.243 439.12 203.243 437.757 202.891C436.394 202.54 431.966 203.243 429.922 203.594C429.922 203.594 429.922 203.594 428.218 202.54C428.218 202.54 424.13 203.594 423.79 203.594C423.449 203.946 423.449 203.946 423.108 203.946C422.086 204.297 422.086 204.297 422.086 204.297C421.064 203.946 420.383 203.243 420.383 202.891C420.383 202.54 420.042 201.485 419.702 201.485C419.361 201.485 418.339 201.837 418.68 202.188C418.68 202.188 418.68 202.188 418.68 202.54C418.68 202.891 418.68 202.891 418.68 202.891C418.68 203.594 417.658 203.946 416.636 203.946C416.636 203.946 416.636 203.946 415.614 203.946C414.932 203.946 414.932 203.946 414.932 203.946C414.251 204.297 412.548 204.297 411.526 204.297C410.504 204.297 407.097 203.946 406.416 203.946C405.734 204.297 403.69 203.594 403.009 203.946C402.328 204.297 400.284 203.594 399.943 203.946C399.943 203.946 399.943 203.946 399.602 203.946C397.899 204.297 396.536 203.946 394.833 203.594C393.47 203.243 393.47 203.243 393.47 203.243C391.426 203.243 389.382 203.243 388.701 203.243C388.02 203.243 387.338 201.837 386.657 202.891C386.657 202.891 386.657 202.891 386.316 203.243C385.976 203.594 385.976 203.594 385.976 203.594C385.635 203.946 384.613 204.297 383.591 204.649C382.569 205 379.162 203.594 378.481 203.594C377.8 203.594 376.778 203.594 376.437 203.594C376.096 203.594 374.393 203.594 374.052 203.594C373.712 203.594 371.327 203.594 370.305 203.594C369.283 203.594 366.558 202.891 366.558 202.54C366.558 202.188 365.876 202.891 365.195 203.946C365.195 203.946 365.195 203.946 363.492 202.891C363.151 202.54 361.788 203.946 360.766 203.946C359.744 203.946 359.744 203.946 359.744 203.946C358.722 203.594 357.019 203.946 355.997 205C355.997 205 355.997 205 354.634 203.946C353.953 203.243 353.953 203.243 353.953 203.243C352.59 202.891 351.228 202.54 350.887 202.891C350.546 203.243 349.524 204.297 349.184 203.594C348.843 203.243 347.48 202.54 346.799 203.243C346.799 203.243 346.799 203.243 346.118 203.594C345.777 203.594 344.755 203.594 344.755 203.594C344.755 201.837 344.755 201.837 344.755 201.837C343.052 201.485 341.348 201.485 341.348 201.837C341.348 202.54 340.326 203.243 339.304 203.243C339.304 203.243 339.304 203.243 338.623 203.594C337.942 203.594 337.601 204.297 337.601 203.243C337.601 202.188 336.579 202.188 336.238 202.54C334.535 203.594 332.832 202.891 331.128 203.243C329.766 203.243 329.766 203.243 329.766 203.243C328.403 203.594 327.04 203.594 327.04 203.594C327.04 203.594 327.04 203.594 326.7 203.594C325.337 203.243 325.337 203.243 325.337 203.243C323.293 202.891 322.271 202.54 322.952 202.188C323.634 201.837 322.271 200.782 322.271 200.431C322.271 200.079 321.249 199.728 321.249 200.431C321.249 201.134 320.568 203.243 319.886 202.891C319.886 202.891 319.886 202.891 319.546 202.54C318.864 202.188 318.864 202.188 318.864 202.188C318.524 201.485 317.161 201.134 316.48 201.485C315.798 201.837 313.073 202.188 312.732 201.837C312.392 201.134 311.029 200.08 310.348 200.782C310.348 200.782 310.348 200.782 310.348 201.485C310.348 203.243 310.348 203.243 310.348 203.243C309.326 203.243 307.282 203.243 306.26 202.891C305.238 202.54 301.831 202.891 301.49 202.891C301.15 202.891 300.128 202.54 299.446 202.188C298.765 201.837 296.04 202.188 295.018 202.54C295.018 202.54 295.018 202.54 294.336 202.188C293.655 201.837 293.655 201.837 293.655 201.837C292.973 200.782 291.952 200.079 291.27 200.431C290.589 200.782 288.885 201.837 288.885 202.188C288.885 202.188 288.885 202.188 288.885 202.54C288.885 202.891 288.885 202.891 288.885 202.891C288.885 203.243 288.545 203.243 288.204 203.243C287.863 203.243 287.182 202.54 286.501 201.837C285.819 201.134 283.775 202.54 283.435 202.54C283.094 202.54 281.731 202.188 281.05 202.188C281.05 202.188 281.05 202.188 281.05 201.837C280.709 200.782 280.71 200.782 280.71 200.782C281.732 200.782 283.094 200.782 283.775 200.782C284.457 200.782 284.798 198.674 284.116 198.674C283.435 198.674 281.05 198.674 281.05 199.377C281.05 199.377 281.05 199.377 280.71 200.08C280.369 200.782 279.688 201.837 279.006 201.837C277.303 201.837 278.665 200.431 277.984 199.728C277.984 199.728 276.962 200.079 276.281 201.134C275.599 201.837 271.852 201.837 270.83 201.837C269.808 201.837 268.445 200.08 268.105 200.782C267.764 201.485 270.149 202.188 270.489 202.188C270.489 202.188 270.83 202.891 270.489 203.243C270.489 203.243 270.489 203.243 270.149 203.243C269.467 203.243 269.467 203.243 269.467 203.243C268.786 202.891 267.423 202.188 266.401 201.134C266.401 201.134 266.401 201.134 266.061 197.971C266.061 197.619 264.698 196.916 264.698 196.916C261.632 199.025 262.654 196.565 262.313 195.51C261.973 195.159 261.632 195.51 261.632 196.213C261.632 196.916 260.951 198.322 260.269 197.619C259.588 196.916 258.566 199.728 258.225 200.08C257.885 200.431 256.863 202.188 256.522 202.188C256.181 202.188 253.797 202.188 252.093 202.188C252.093 202.188 252.093 202.188 250.39 202.188C250.049 202.188 250.049 202.188 250.049 202.188C249.709 202.188 249.368 202.188 249.368 201.837C249.368 201.485 249.368 200.782 249.368 200.431C249.368 200.079 250.731 198.674 251.412 199.025C251.412 199.025 251.412 199.025 252.093 199.025C252.775 199.025 252.775 199.025 252.775 199.025C253.115 199.377 254.137 199.728 255.159 200.08C255.159 200.08 255.159 200.08 255.841 200.08C256.181 200.08 256.863 200.079 256.863 199.728C257.203 199.025 257.203 199.025 257.203 199.025C257.544 197.971 258.566 197.268 259.247 197.268C259.247 197.268 259.247 197.268 259.588 196.916C260.269 196.213 260.269 195.159 260.61 194.808C261.973 193.753 261.973 193.753 261.973 193.753C261.291 193.05 260.269 192.347 259.929 191.996C259.588 191.996 258.225 192.347 258.225 193.402C258.225 194.456 257.203 197.268 256.181 197.268C256.181 197.268 256.181 197.268 255.5 197.971C254.819 198.674 254.137 199.025 252.775 198.322C252.093 199.025 252.093 199.025 252.093 199.025ZM262.995 190.941C262.313 190.59 261.291 190.59 261.291 190.59C261.291 190.59 261.291 191.293 261.973 191.644C262.313 191.996 265.039 192.347 266.401 191.644C266.401 191.644 266.401 191.644 267.764 192.699C267.764 192.699 268.445 192.699 268.445 192.347C268.786 191.996 268.786 191.996 268.786 191.996C269.467 191.293 269.467 190.59 268.445 190.59C267.423 190.59 264.017 191.293 262.995 190.941ZM238.467 192.699C237.445 193.05 236.763 193.753 237.104 194.456C237.445 195.159 239.829 193.753 240.17 193.402C240.511 193.05 243.236 193.05 243.917 193.05C244.599 193.05 247.324 192.699 246.983 191.996C246.643 191.293 244.258 191.996 243.577 191.996C242.895 191.996 241.192 191.996 240.17 191.644C240.17 191.644 240.17 191.644 239.148 191.996C238.467 192.699 238.467 192.699 238.467 192.699ZM832.59 94.6399C833.612 94.9914 833.953 94.6399 833.612 93.937C833.271 93.2341 831.568 90.7738 830.887 89.368C830.887 89.368 830.886 89.368 829.524 91.1253C828.502 92.5311 828.502 92.5311 828.502 92.5311C827.48 92.1797 827.139 91.8282 827.82 92.1797C828.502 92.1797 831.568 94.2885 832.59 94.6399ZM437.076 193.05C436.054 193.05 434.691 193.402 434.691 193.753C435.032 194.456 435.032 194.456 435.032 194.456C434.691 195.159 434.691 195.862 435.372 196.213C435.713 196.565 437.416 195.51 438.438 195.51C438.779 194.808 438.098 193.05 437.076 193.05ZM847.239 93.5855C846.557 92.5311 846.216 92.5311 846.557 93.5855C846.898 94.6399 849.623 95.6943 850.305 95.6943C850.305 95.6943 850.305 95.6943 850.305 94.6399C850.305 94.2885 850.305 94.2885 850.305 94.2885C850.986 93.2341 850.305 93.2341 848.601 94.2885C848.601 94.2885 848.601 94.2885 847.92 93.937C847.239 93.5855 847.239 93.5855 847.239 93.5855ZM230.631 191.644C228.587 191.996 227.565 192.347 228.587 192.347C229.269 192.347 231.653 193.402 231.994 193.753C232.675 194.105 234.379 194.456 234.379 194.105C234.379 193.753 233.697 192.347 232.675 192.699C232.675 192.699 232.675 192.699 232.335 192.699C230.631 191.644 230.631 191.644 230.631 191.644ZM314.436 195.159C314.095 195.159 314.095 196.213 314.776 197.619C314.776 197.619 314.776 197.619 315.798 197.971C316.82 198.674 316.82 198.674 316.82 198.674C317.842 199.377 319.205 199.728 319.886 199.728C319.886 199.728 319.886 199.728 319.886 199.377C320.227 199.025 320.227 199.025 320.227 199.025C320.227 198.322 319.205 197.971 317.842 197.971C317.842 197.971 317.842 197.971 317.161 197.619C316.48 197.268 316.48 197.268 316.48 197.268C316.139 196.213 314.776 195.159 314.436 195.159ZM590.716 195.159C591.398 194.808 591.398 194.456 591.057 194.105C590.716 193.753 589.354 192.699 589.013 192.347C588.672 191.996 587.31 192.347 587.65 193.402C587.991 194.456 590.376 195.159 590.716 195.159ZM287.182 196.916C286.841 195.862 286.841 195.862 287.182 196.916C287.182 197.619 286.842 199.728 287.523 199.728C288.204 199.728 287.182 197.971 287.182 196.916ZM25.8907 132.247C26.572 132.247 26.9127 131.895 26.9127 131.192C25.55 131.192 25.2093 130.489 25.2093 129.435C25.2093 129.084 25.2093 129.084 25.2093 129.084C24.8687 128.381 24.528 128.732 23.8467 129.435C23.506 130.489 25.2093 131.895 25.8907 132.247ZM14.308 149.117C14.308 148.766 13.6267 148.414 13.286 148.063C13.286 148.063 13.286 148.063 12.9453 147.711C12.6047 147.36 12.264 147.008 11.5827 147.36C10.9013 147.711 10.5607 148.063 11.5827 148.766C12.264 149.117 10.9013 150.874 12.6047 150.874C12.9453 150.874 13.6267 149.82 14.308 149.117Z" fill="#00659E"/>
</svg>
