<svg width="320" height="93" viewBox="0 0 320 93" fill="none" xmlns="http://www.w3.org/2000/svg">
<path d="M-104.9 73.1999C-96.7001 73.0999 -88.6 73.4999 -80.4 73.3999C-77.3 73.3999 -74.4 73.9999 -71.6 74.5999C-69.4 75.0999 -67.1999 75.3999 -65 75.4999C-57.5 75.5999 -49.8999 75.4999 -42.6999 75.5999C-35.1999 75.6999 -27.9 75.5999 -20.4 77.4999C-17.6 78.2999 -14.5 78.0999 -11.6 77.8999C1.90003 77.8999 15.4 78.2999 28.6 77.7999C34.6 77.5999 40.5 77.6999 46.2 79.5999C48.3999 80.0999 50.6001 80.3999 52.8 80.4999C61 80.5999 69.1001 80.4999 77.3 80.3999C84.8 80.2999 92.4 80.0999 99.6 79.9999C105.6 79.7999 111.5 80.1999 117.5 81.5999C121.9 82.6999 126.3 82.4999 131 82.0999C134.8 81.8999 138.3 80.6999 141.7 80.1999C146.1 79.7999 150.5 82.0999 154.8 81.8999C157.9 81.8999 160.8 81.9999 163.9 81.9999C169.9 82.0999 175.8 81.8999 181.8 81.9999C185.6 82.0999 189.3 82.3999 192.8 83.1999C195.6 83.9999 198.7 84.2999 201.6 84.0999C220.2 83.5999 239 84.6999 257.5 83.6999C259.7 83.4999 261.9 83.4999 264.1 84.0999C267.9 84.8999 271.3 84.9999 275.1 84.4999C275.7 84.4999 276.7 84.7999 277.3 84.7999C280.1 85.5999 282.9 85.3999 286.1 84.3999C291.8 82.6999 297.8 82.2999 303.7 84.4C308 86 312.5 85.6 316.9 85.6C320.7 85.7 324.4 85.5 327.9 84.3C333 82.3 337.7 82.4 343 83.8C345.8 84.6 349 84.4 351.8 84.5C361.5 84.4 371.3 84.3 381 84C387.6 83.9 394.5 84 400.7 86.1C403.5 86.9 406.7 86.7 409.5 85.7C413 84.5 416.8 84 420.5 84.9C422.1 85.2 423.3 85.2 424.9 84.7C430 83.2 435.3 83.3 440.3 85C443.1 85.8 446.2 85.9 449.1 85.7C452.9 85.2 456.4 84 459.8 83.6C464.2 82.9 468.6 85.5 473 85.1C477.4 84.7 481.8 84.2 486.2 83.5C490.6 84.3 495 85.2 499.4 85C500 85 501 85 501.6 85C531.5 84.5 561.3 83.9 591.2 83.6C594.4 83.7 597.2 84 600 84.5C601.6 84.8 602.8 84.8 604.4 84.3C609.8 83.6 613.2 83.2 617 83.2C621.4 83.3 626.1 83.1 630.5 83.4C632.7 83.4 634.9 84 637.1 84.3C638.7 84.6 639.9 84.9 641.5 84.4C646.6 82.7 651.6 82.3 657 82.4C666.1 82.3 674.9 82.4 684 82.6C686.2 82.6 688.4 82.9 690.6 83.5C695.6 84.8 700.9 85.2 705.9 85.3C712.5 85.2 719.4 85 726 85.1C728.8 85.1 732 85.2 734.8 86C741.4 87.4 747.9 88 754.9 87.8C768.4 87.5 781.9 87.7 795.1 86.9C797.9 86.7 801.1 86.7 803.9 86.8C809.2 87.1 814.3 87 819.6 86.8C823.4 86.6 827.1 86.7 830.9 86.5C834.1 86.6 836.9 87.1 839.7 87.9C846.2 90.3 852.8 89.6 859.5 88C860.8 87.5 862.4 87 863.6 86.8C866.5 86.1 869.6 85.9 872.4 86.4C874.6 86.4 876.4 87.5 878.7 87.5C887.5 87.6 896.6 89.1 905.4 88.2C910.1 88 914.5 88.1 918.9 88.2C921.1 88.2 923.3 88.8 925.5 89.3C928.6 90.1 931.5 89.6 934.3 88.7C936.5 88 938.7 88 940.9 88.3C943.1 88.6 945.3 89.1 947.5 88.4C952.6 87 957.9 87.3 962.9 86.9C968.9 86.5 974.8 86.6 980.5 88.2C983.3 89 986.5 88.8 989.3 88.9C1007.8 88.9 1026.7 88.7 1045.2 88.8C1050.5 88.9 1055.6 89 1060.9 90.3C1063.1 90.8 1065.3 91.1 1067.5 90.9C1091.4 90.5 1115.3 91.2 1139.1 90.3C1147.9 89.9 1157 90.1 1166.1 90C1169.2 90.1 1172.1 90.1 1174.9 90.9C1179.9 92.5 1184.9 92.9 1190.3 92.7C1214.8 92.3 1239.6 91.7 1264.2 90.8C1275.2 90.2 1286.2 89.9 1297.5 90.1C1299.5 90.2 1301.5 90.2 1303.5 90.2L1303.5 3.8147e-05L-138 -8.7873e-05L-138 73.1999C-127 73.3999 -115.8 73.4999 -104.9 73.1999ZM179.5 71.4999C181.7 71.7999 182 72.5999 180.1 73.2999C179.5 73.4999 178.5 73.2999 177.9 72.9999C177.6 72.9999 177.6 72.1999 177.3 71.9999C178.2 71.6999 178.9 71.1999 179.5 71.4999ZM-101.4 62.5999C-99.8 62.5999 -98.6 62.8999 -97.4 63.6999C-98.7001 64.6999 -99.9 64.8999 -101.5 64.8999C-103.1 65.0999 -104.3 64.8999 -105.6 63.7999C-104.3 63.0999 -103 62.5999 -101.4 62.5999Z" fill="#00659E"/>
</svg>
