<svg width="320" height="59" viewBox="0 0 320 59" fill="none" xmlns="http://www.w3.org/2000/svg">
<path d="M137.582 25.4938C136.259 25.4938 134.935 25.4341 133.611 25.2549C130.964 24.5979 128.558 24.1201 125.67 24.2396C109.606 24.5979 93.3015 25.0757 77.2377 25.1354C56.6015 25.2549 36.0254 26.1508 15.2087 26.2702C7.08654 26.2702 -0.855105 26.8078 -9.03742 27.1064C-9.3382 27.1064 -9.69922 27.1064 -10 27.1661L-10 59.0001L856 59L856 8.71074C855.759 8.65101 855.579 8.59129 855.338 8.53156C854.015 8.17321 852.691 8.35238 851.367 8.29266C844.208 8.23293 837.048 8.23293 829.829 8.29266C828.144 8.23293 826.219 8.41211 824.534 7.87458C820.624 6.73979 816.653 6.79951 812.441 6.91896C804.861 6.91897 797.099 6.97869 789.579 6.97869C787.293 6.91897 785.067 7.03842 782.961 6.44116C780.314 5.78417 777.667 5.60499 775.019 5.54527C769.544 5.48554 764.25 5.54527 758.775 5.42582C757.09 5.42582 755.165 5.36609 753.481 5.00774C750.472 4.17157 747.284 4.17157 744.276 4.11185C737.477 3.9924 730.859 4.05212 724.06 4.11185C720.451 4.05212 716.901 3.9924 713.291 3.15624C711.246 2.67843 708.779 2.6187 706.673 2.73816C700.837 2.79788 694.941 2.85761 689.105 3.09651C687.24 3.03679 685.495 3.33542 683.811 3.93268C680.381 5.42583 676.952 5.66473 673.583 4.05213C672.44 3.57432 670.936 3.39515 669.612 3.39515C667.326 3.33542 665.1 3.45487 662.814 3.27569C661.49 3.27569 659.986 3.21597 658.843 2.73816C655.474 1.60337 651.864 1.72282 648.314 1.66309C637.545 1.78255 626.775 1.902 615.946 2.08117C612.336 2.20063 608.786 2.1409 605.176 1.12556C603.853 0.826934 602.529 0.767207 601.206 0.767207C590.557 1.06584 579.787 1.06584 569.018 1.06584C559.211 1.06584 549.344 1.6631 539.357 1.6631C535.386 1.60338 531.235 1.6631 527.264 0.707487C525.941 0.408858 524.617 0.349135 523.293 0.349135C514.81 0.0505059 506.267 0.0505028 497.603 0.22968C481.901 0.588038 466.198 1.42421 450.495 1.30475C448.81 1.30475 446.885 1.54366 445.2 1.54366C437.62 1.72284 429.859 2.08119 422.338 1.96174C416.502 1.84229 410.606 1.90202 404.77 2.14092C395.686 2.3201 386.781 2.43955 377.757 2.61873C375.892 2.61873 374.147 2.55901 372.462 2.20065C371.5 2.02147 370.778 1.90202 369.815 2.14093C366.205 3.15627 362.776 2.79791 359.226 1.8423C357.181 1.36449 354.894 1.18531 352.849 0.34915C350.984 -0.42729 349.239 0.16997 348.096 1.36449C346.532 3.03681 344.606 3.4549 342.2 3.39518C339.553 3.33545 336.905 3.4549 334.258 2.79791C331.611 2.14093 328.964 1.78257 326.377 1.30476C325.414 1.12559 324.692 0.946412 323.729 1.24504C321.624 1.96175 319.338 2.26038 317.111 2.37983C311.276 2.43956 305.379 2.49929 299.544 2.55901C298.22 2.55901 296.896 2.49929 295.573 2.49929C292.143 2.73819 290.278 2.73819 287.751 5.90367C287.15 6.6801 286.428 6.91901 285.465 6.62038C282.096 5.78422 278.727 4.8286 274.937 5.0675C272.109 5.30641 269.642 4.52997 267.596 2.97709C266.694 2.20066 265.37 1.8423 263.987 2.61874C263.626 2.79792 263.205 2.91737 262.844 3.03683C261.52 3.45491 260.196 3.63409 258.873 3.09655C255.504 1.96176 252.134 1.48395 248.344 1.54368C239.259 1.72286 230.355 1.72286 221.27 1.84231C218.984 1.78258 216.758 1.48395 214.712 0.826968C213.389 0.349158 212.065 0.468612 210.742 0.946422C206.891 2.37984 202.98 2.32012 198.829 1.3645C197.866 1.18533 197.145 0.886692 196.182 0.886693C195.219 0.886693 194.317 0.707516 193.535 1.00615C191.85 1.42423 190.105 2.20067 188.361 2.43957C183.427 2.79793 178.494 2.91738 173.62 1.90204C168.747 0.886699 163.814 1.00615 159.061 2.26039C154.308 3.57437 149.374 3.63409 144.501 2.4993C141.854 1.84232 139.207 1.96177 136.559 2.37985C136.198 2.37985 135.777 2.67848 135.236 2.67848C134.273 2.79793 133.551 3.09656 132.589 3.27574C131.084 3.57437 129.761 2.91738 129.039 2.14095C127.174 -0.00918692 124.767 -0.188367 121.879 0.16999C120.917 0.289443 120.195 0.46862 119.232 0.76725C115.803 1.96177 112.193 2.32013 108.764 2.43958C106.116 2.55903 103.469 2.67848 100.642 2.61876C86.2623 2.37985 71.8832 2.79794 57.504 3.45492C55.2178 3.57438 52.9916 3.51465 50.7054 3.33547C49.9233 3.33547 48.8404 2.85766 48.4794 2.37985C47.0355 0.349173 45.1102 0.468626 42.824 1.24507C39.3946 2.26041 35.7848 2.20068 32.3554 3.33548C29.8887 4.23136 27.061 3.99246 24.4138 3.21602C22.1877 2.55904 20.082 2.37986 17.9763 3.27575C16.4721 3.87301 14.5469 4.29109 12.8623 4.41054C11.5387 4.52999 10.2151 4.52999 8.89147 4.47027C2.63446 4.58972 -3.62256 4.70917 -9.87964 4.88835L-9.87964 24.0604C-6.69092 24.5979 -3.50232 24.4187 -0.313602 24.4785C1.97259 24.5382 4.07837 23.9409 6.12396 23.3437C8.22967 22.627 10.5159 22.5075 12.742 23.1645C15.0282 23.6423 17.0738 24.0007 19.1795 23.2839C20.9243 22.6867 22.6089 22.4478 24.4739 22.4478C27.1212 22.3283 29.7684 22.3881 32.5961 22.2686L32.5961 22.0894C34.8823 21.97 37.1083 22.0297 39.3946 21.9102C41.6808 21.7908 43.9069 21.97 46.0126 22.627C47.3362 22.9256 48.6599 22.5075 49.9835 22.3881C50.9461 22.2686 51.9087 21.97 52.6307 22.2686C56.5413 23.702 60.5723 23.2839 64.5431 23.2242C76.2751 23.1048 88.0071 22.9853 99.5585 22.7464C105.394 22.6867 111.291 22.1491 116.946 22.2686C122.782 22.388 128.678 22.3283 134.514 22.388C135.837 22.388 137.161 22.5672 138.244 23.3437C138.966 23.9409 139.327 24.5979 138.785 25.016C138.304 25.3146 137.943 25.4938 137.582 25.4938ZM249.788 7.15791C251.894 6.4412 253.999 6.32175 256.226 6.79956C257.188 6.97874 257.549 7.75517 257.73 8.35243C257.73 9.12887 257.308 9.72613 256.526 10.0248C255.383 10.4428 253.879 10.4428 252.736 10.1442C251.232 9.6664 249.728 9.00942 248.224 8.53161C248.404 7.93435 249.006 7.33709 249.788 7.15791ZM209.478 15.5196C209.899 15.2209 210.08 14.9223 210.441 14.7431C213.509 13.1305 216.758 11.8165 220.368 11.6971C223.617 11.5776 226.625 11.5179 229.513 10.1442C229.874 10.0248 230.475 9.84559 230.836 9.84559C234.025 10.5026 236.913 8.71079 240.102 8.77052C242.749 8.83025 245.396 8.53162 248.043 8.47189C248.224 9.06915 248.404 9.66641 248.585 10.3234C248.946 11.0998 250.39 12.3541 251.352 12.3541C252.676 12.3541 253.999 12.5333 255.323 12.593C260.256 12.5333 265.13 12.4735 270.063 12.3541C271.928 12.3541 273.673 12.7124 275.358 13.3694C279.268 14.982 283.239 14.3848 287.09 13.5486C289.376 12.3541 292.023 12.1152 294.851 11.9957C299.784 11.936 304.718 11.8165 309.591 11.6374C312.78 11.5179 315.788 12.3541 318.616 13.6083C319.759 14.0861 319.879 15.2806 318.916 16.3557C318.315 16.953 317.593 17.2516 316.63 17.5502C314.946 17.9683 313.02 18.0878 311.336 17.7891C310.012 17.61 308.688 17.3113 307.365 16.953C305.319 16.296 303.033 15.8182 300.747 15.9376C292.625 16.1168 284.503 16.1168 276.561 16.296C274.275 16.4154 271.988 16.8335 270.123 17.5502C269.161 17.8489 268.379 17.9683 267.476 17.4905C265.431 16.7141 263.144 16.6543 260.918 16.296C253.939 14.982 253.939 14.982 249.066 15.0417C247.742 15.0417 246.238 15.1612 245.095 14.8028C242.267 13.8472 240.041 14.0861 237.875 15.8779C237.274 16.3557 236.191 16.296 235.409 16.4752C235.048 16.4752 234.446 16.296 234.085 16.296C231.799 15.8182 229.753 15.7585 227.467 16.4752C226.685 16.7738 225.783 17.0724 225 17.1919C224.038 17.3113 223.316 17.4905 222.353 17.4308C221.992 17.4308 221.391 17.4308 221.03 17.2516C219.345 17.0724 217.66 15.9974 215.735 16.2363C214.051 16.5349 212.306 17.0724 210.621 17.3711C210.26 17.5502 209.659 17.3711 209.478 17.0724C208.696 16.8933 208.696 16.296 209.478 15.5196ZM67.1302 16.1168C62.1968 16.4752 57.2634 16.8933 52.3901 16.7738C45.5915 16.6544 38.9734 17.0127 31.5732 17.1919C23.2706 17.6697 14.3665 17.5503 5.46215 18.1475C3.77758 18.267 1.85229 18.0878 0.167721 18.0878C-0.193302 18.0878 -0.975406 17.7892 -0.975406 17.61C-1.15589 17.0127 -0.554264 16.4155 0.408382 16.2363C2.09295 15.8182 3.8377 15.4001 5.34179 14.8029C6.48492 14.3848 7.80853 13.907 9.13214 13.9667C12.1404 13.8472 15.3892 13.7875 18.5779 13.7875C19.5405 13.7875 20.443 13.9667 21.2251 14.2653C23.4512 15.2209 25.5569 15.1015 27.4822 14.0862C28.6253 13.4889 30.1293 13.3694 31.2725 14.0264C33.3181 14.8029 35.4238 15.4598 37.6499 15.3404C43.4858 15.1612 49.2013 14.9223 55.0372 14.8626C59.0081 14.8029 63.1594 14.8626 67.1302 15.2209C67.4912 15.2209 67.9123 15.5196 68.2733 15.6987C67.9123 15.8182 67.4912 16.1168 67.1302 16.1168ZM94.3845 15.5196C89.09 16.0571 83.7956 16.1168 78.5012 16.3557C77.1775 16.3557 75.8539 16.296 74.771 15.5196C74.41 15.3404 76.5158 14.5042 78.0199 14.5042C78.3809 14.5042 78.9825 14.5042 79.3434 14.5042C81.6297 14.3848 83.9159 14.4445 86.3224 14.325C88.7892 14.3848 91.4364 14.3848 94.0836 14.6237C94.4446 14.6237 94.8658 14.9223 95.2267 15.1015C94.926 15.2209 94.7454 15.5196 94.3845 15.5196ZM185.954 24.4187C175.907 24.8965 167.784 25.016 161.949 24.7771C161.588 24.7771 161.407 24.4785 161.046 24.2993C161.407 24.1201 161.828 23.8215 162.189 23.702C165.799 23.4631 169.409 23.2242 172.959 23.1048C177.29 23.6423 181.682 22.5075 186.195 23.4631C186.556 23.4631 186.736 23.7617 187.157 23.9409C186.917 24.1201 186.556 24.4187 185.954 24.4187ZM129.64 17.3113C128.317 17.3113 126.813 17.4308 125.67 17.0724C123.444 16.4155 121.338 17.0127 119.052 17.2516C117.548 17.5502 115.502 16.5946 114.539 15.3404C113.817 14.4445 113.637 13.3694 113.697 12.2944C113.517 11.2193 114.72 9.90532 115.863 9.72614C118.51 9.30806 121.157 9.06916 123.624 10.1442C126.993 11.5776 130.603 11.4582 133.852 10.1442C135.958 9.42751 138.064 9.12888 140.29 10.0845C140.651 10.2637 141.012 10.3831 141.613 10.3831C143.899 10.8609 146.125 11.0998 148.231 10.3234C152.022 9.00943 155.872 8.29272 160.023 8.53162C160.986 8.53162 161.888 8.41217 162.671 8.41217C164.536 8.41217 166.28 8.65107 167.724 9.72614C170.131 11.4582 173.139 12.1152 176.388 11.8763C177.351 11.7568 178.073 11.8763 179.035 11.936C180.9 11.936 182.585 12.4735 184.089 13.0708C185.413 13.7278 186.736 13.7278 187.879 13.1305C190.767 11.8165 193.775 11.5776 196.964 11.936C197.746 11.936 198.649 12.4138 199.371 12.7124C200.153 13.0111 200.875 13.6681 200.815 14.3848C200.995 14.982 200.393 15.5793 199.431 15.8779C197.746 16.296 196.001 16.7141 194.257 17.3113C191.97 18.028 189.865 17.8489 187.819 17.0724C186.495 16.5946 185.352 16.5946 184.029 17.0127C183.247 17.3113 182.344 17.3113 181.562 17.61C177.651 16.3557 173.62 16.7141 169.65 16.8335C156.293 17.1322 142.877 16.8933 129.64 17.3113Z" fill="#00659E"/>
</svg>
