<svg width="1920" height="102" viewBox="0 0 1920 102" fill="none" xmlns="http://www.w3.org/2000/svg">
<g clip-path="url(#clip0)">
<path d="M1592.8 61.2225C1595.73 61.2225 1598.67 61.3227 1601.6 61.6234C1607.47 62.7258 1612.81 63.5275 1619.21 63.3271C1654.82 62.7258 1690.97 61.924 1726.59 61.8238C1772.34 61.6234 1817.96 60.1201 1864.11 59.9196C1882.12 59.9196 1899.72 59.0177 1917.87 58.5166C1918.53 58.5166 1919.33 58.5166 1920 58.4164L1920 5.00008L0 5.00024L7.37706e-06 89.3839C0.533563 89.4842 0.93373 89.5844 1.46729 89.6846C4.40184 90.2859 7.3364 89.9853 10.271 90.0855C26.1442 90.1857 42.0175 90.1857 58.0242 90.0855C61.7591 90.1857 66.0275 89.885 69.7624 90.787C78.4327 92.6911 87.2364 92.5909 96.5736 92.3905C113.381 92.3905 130.588 92.2903 147.261 92.2903C152.33 92.3905 157.266 92.19 161.934 93.1922C167.803 94.2946 173.672 94.5953 179.541 94.6955C191.68 94.7957 203.418 94.6955 215.556 94.8959C219.291 94.8959 223.56 94.9962 227.295 95.5975C233.964 97.0005 241.034 97.0005 247.703 97.1007C262.776 97.3012 277.449 97.2009 292.522 97.1007C300.525 97.2009 308.395 97.3012 316.399 98.7042C320.934 99.506 326.403 99.6062 331.071 99.4057C344.01 99.3055 357.082 99.2053 370.021 98.8044C374.156 98.9046 378.024 98.4035 381.759 97.4014C389.362 94.8959 396.965 94.495 404.435 97.2009C406.97 98.0027 410.304 98.3033 413.239 98.3033C418.308 98.4035 423.243 98.2031 428.312 98.5038C431.246 98.5038 434.581 98.604 437.115 99.4057C444.585 101.31 452.589 101.109 460.459 101.21C484.335 101.009 508.212 100.809 532.222 100.508C540.225 100.308 548.095 100.408 556.098 102.112C559.033 102.613 561.967 102.713 564.902 102.713C588.512 102.212 612.388 102.212 636.265 102.212C658.008 102.212 679.883 101.21 702.026 101.21C710.83 101.31 720.033 101.21 728.837 102.813C731.772 103.314 734.706 103.414 737.641 103.414C756.449 103.916 775.39 103.916 794.598 103.615C829.412 103.014 864.227 101.61 899.041 101.811C902.776 101.811 907.045 101.41 910.779 101.41C927.586 101.109 944.794 100.508 961.467 100.709C974.406 100.909 987.478 100.809 1000.42 100.408C1020.56 100.107 1040.3 99.9068 1060.31 99.6061C1064.44 99.6061 1068.31 99.7063 1072.05 100.308C1074.18 100.608 1075.78 100.809 1077.92 100.408C1085.92 98.7041 1093.52 99.3054 1101.39 100.909C1105.93 101.711 1111 102.011 1115.53 103.414C1119.67 104.717 1123.53 103.715 1126.07 101.711C1129.54 98.9046 1133.81 98.203 1139.14 98.3033C1145.01 98.4035 1150.88 98.203 1156.75 99.3054C1162.62 100.408 1168.49 101.009 1174.22 101.811C1176.36 102.112 1177.96 102.412 1180.09 101.911C1184.76 100.708 1189.83 100.207 1194.76 100.007C1207.7 99.9068 1220.78 99.8065 1233.71 99.7063C1236.65 99.7063 1239.58 99.8065 1242.52 99.8065C1250.12 99.4057 1254.26 99.4057 1259.86 94.0941C1261.19 92.7913 1262.79 92.3904 1264.93 92.8915C1272.4 94.2945 1279.87 95.898 1288.27 95.4971C1294.54 95.0963 1300.01 96.3991 1304.54 99.0048C1306.54 100.308 1309.48 100.909 1312.55 99.6061C1313.35 99.3054 1314.28 99.105 1315.08 98.9046C1318.02 98.203 1320.95 97.9024 1323.89 98.8043C1331.35 100.708 1338.82 101.51 1347.23 101.41C1367.37 101.109 1387.11 101.109 1407.25 100.909C1412.32 101.009 1417.26 101.51 1421.79 102.613C1424.73 103.414 1427.66 103.214 1430.6 102.412C1439.13 100.007 1447.8 100.107 1457.01 101.711C1459.14 102.011 1460.74 102.512 1462.88 102.512C1465.01 102.512 1467.01 102.813 1468.75 102.312C1472.48 101.61 1476.35 100.308 1480.22 99.9067C1491.15 99.3054 1502.09 99.105 1512.9 100.809C1523.7 102.512 1534.64 102.312 1545.18 100.207C1555.71 98.0026 1566.65 97.9024 1577.46 99.8065C1583.33 100.909 1589.2 100.708 1595.06 100.007C1595.86 100.007 1596.8 99.5058 1598 99.5058C1600.13 99.3054 1601.73 98.8043 1603.87 98.5037C1607.2 98.0026 1610.14 99.105 1611.74 100.408C1615.87 104.016 1621.21 104.316 1627.61 103.715C1629.75 103.515 1631.35 103.214 1633.48 102.713C1641.08 100.708 1649.09 100.107 1656.69 99.9067C1662.56 99.7063 1668.43 99.5058 1674.7 99.6061C1706.58 100.007 1738.46 99.3054 1770.34 98.203C1775.41 98.0026 1780.34 98.1028 1785.41 98.4034C1787.14 98.4034 1789.55 99.2052 1790.35 100.007C1793.55 103.414 1797.82 103.214 1802.88 101.911C1810.49 100.207 1818.49 100.308 1826.09 98.4034C1831.56 96.9001 1837.83 97.301 1843.7 98.6039C1848.64 99.7063 1853.31 100.007 1857.97 98.5036C1861.31 97.5015 1865.58 96.7999 1869.31 96.5995C1872.25 96.3991 1875.18 96.3991 1878.12 96.4993C1891.99 96.2988 1905.86 96.0984 1919.73 95.7977L1919.73 63.6277C1912.66 62.7257 1905.59 63.0264 1898.52 62.9262C1893.46 62.826 1888.79 63.8282 1884.25 64.8303C1879.58 66.033 1874.51 66.2334 1869.58 65.131C1864.51 64.3292 1859.97 63.7279 1855.31 64.9306C1851.44 65.9327 1847.7 66.3336 1843.57 66.3336C1837.7 66.534 1831.83 66.4338 1825.56 66.6343L1825.56 66.9349C1820.49 67.1354 1815.56 67.0351 1810.49 67.2356C1805.42 67.436 1800.48 67.1354 1795.81 66.033C1792.88 65.5319 1789.95 66.2334 1787.01 66.4338C1784.88 66.6343 1782.74 67.1354 1781.14 66.6343C1772.47 64.229 1763.53 64.9306 1754.73 65.0308C1728.72 65.2312 1702.71 65.4317 1677.1 65.8325C1664.16 65.9328 1651.09 66.8347 1638.55 66.6343C1625.61 66.4338 1612.54 66.5341 1599.6 66.4338C1596.67 66.4338 1593.73 66.1332 1591.33 64.8304C1589.73 63.8282 1588.93 62.7258 1590.13 62.0242C1591.2 61.5232 1592 61.2225 1592.8 61.2225ZM1344.03 91.9895C1339.36 93.1921 1334.69 93.3926 1329.75 92.5908C1327.62 92.2902 1326.82 90.9873 1326.42 89.9851C1326.42 88.6823 1327.35 87.6801 1329.09 87.179C1331.62 86.4775 1334.96 86.4775 1337.49 86.9786C1340.83 87.7803 1344.16 88.8827 1347.49 89.6845C1347.09 90.6867 1345.76 91.6889 1344.03 91.9895ZM1433.4 77.959C1432.46 78.46 1432.06 78.9611 1431.26 79.2618C1424.46 81.9677 1417.26 84.1725 1409.25 84.3729C1402.05 84.5733 1395.38 84.6736 1388.98 86.9786C1388.18 87.179 1386.84 87.4797 1386.04 87.4797C1378.97 86.3773 1372.57 89.3838 1365.5 89.2836C1359.63 89.1834 1353.76 89.6845 1347.9 89.7847C1347.49 88.7825 1347.09 87.7803 1346.69 86.6779C1345.89 85.3751 1342.69 83.2705 1340.56 83.2705C1337.62 83.2705 1334.69 82.9699 1331.75 82.8696C1320.82 82.9699 1310.01 83.0701 1299.07 83.2705C1294.94 83.2705 1291.07 82.6692 1287.34 81.5668C1278.67 78.8609 1269.86 79.8631 1261.33 81.2662C1256.26 83.2705 1250.39 83.6714 1244.12 83.8718C1233.18 83.9721 1222.24 84.1725 1211.44 84.4732C1204.37 84.6736 1197.7 83.2705 1191.43 81.166C1188.9 80.3642 1188.63 78.3599 1190.76 76.5559C1192.1 75.5537 1193.7 75.0526 1195.83 74.5516C1199.57 73.85 1203.83 73.6496 1207.57 74.1507C1210.5 74.4513 1213.44 74.9524 1216.37 75.5537C1220.91 76.6561 1225.98 77.4579 1231.05 77.2574C1249.05 76.9568 1267.06 76.9568 1284.67 76.6561C1289.74 76.4557 1294.81 75.7542 1298.94 74.5515C1301.08 74.0505 1302.81 73.85 1304.81 74.6518C1309.35 75.9546 1314.41 76.0548 1319.35 76.6561C1334.82 78.8609 1334.82 78.8609 1345.63 78.7607C1348.56 78.7607 1351.9 78.5603 1354.43 79.1616C1360.7 80.7651 1365.64 80.3642 1370.44 77.3576C1371.77 76.5559 1374.17 76.6561 1375.91 76.3555C1376.71 76.3555 1378.04 76.6561 1378.84 76.6561C1383.91 77.4579 1388.45 77.5581 1393.51 76.3555C1395.25 75.8544 1397.25 75.3533 1398.98 75.1528C1401.12 74.9524 1402.72 74.6518 1404.85 74.752C1405.65 74.752 1406.99 74.752 1407.79 75.0526C1411.52 75.3533 1415.26 77.1572 1419.52 76.7563C1423.26 76.2552 1427.13 75.3533 1430.86 74.8522C1431.66 74.5515 1433 74.8522 1433.4 75.3533C1435.13 75.6539 1435.13 76.6561 1433.4 77.959ZM1749 76.9567C1759.93 76.3554 1770.87 75.6539 1781.68 75.8543C1796.75 76.0548 1811.42 75.4535 1827.83 75.1528C1846.24 74.3511 1865.98 74.5515 1885.72 73.5493C1889.45 73.3489 1893.72 73.6495 1897.46 73.6495C1898.26 73.6495 1899.99 74.1506 1899.99 74.4513C1900.39 75.4535 1899.06 76.4556 1896.92 76.7563C1893.19 77.4578 1889.32 78.1594 1885.99 79.1615C1883.45 79.8631 1880.52 80.6648 1877.58 80.5646C1870.91 80.765 1863.71 80.8652 1856.64 80.8652C1854.51 80.8652 1852.51 80.5646 1850.77 80.0635C1845.84 78.46 1841.17 78.6604 1836.9 80.3642C1834.36 81.3663 1831.03 81.5668 1828.5 80.4644C1823.96 79.1615 1819.29 78.0591 1814.36 78.2596C1801.42 78.5602 1788.75 78.9611 1775.81 79.0613C1767 79.1615 1757.8 79.0613 1749 78.46C1748.2 78.46 1747.26 77.9589 1746.46 77.6583C1747.26 77.4578 1748.2 76.9567 1749 76.9567ZM1688.57 77.9589C1700.31 77.057 1712.05 76.9567 1723.79 76.5559C1726.72 76.5559 1729.65 76.6561 1732.06 77.9589C1732.86 78.2596 1728.19 79.6626 1724.85 79.6626C1724.05 79.6626 1722.72 79.6626 1721.92 79.6626C1716.85 79.8631 1711.78 79.7629 1706.44 79.9633C1700.98 79.8631 1695.11 79.8631 1689.24 79.4622C1688.44 79.4622 1687.5 78.9611 1686.7 78.6605C1687.37 78.46 1687.77 77.9589 1688.57 77.9589ZM1485.55 63.0264C1507.83 62.2247 1525.84 62.0243 1538.77 62.4251C1539.57 62.4251 1539.97 62.9262 1540.78 63.2269C1539.97 63.5275 1539.04 64.0286 1538.24 64.2291C1530.24 64.6299 1522.23 65.0308 1514.36 65.2312C1504.76 64.3293 1495.02 66.2334 1485.02 64.6299C1484.22 64.6299 1483.82 64.1288 1482.88 63.8282C1483.42 63.5275 1484.22 63.0264 1485.55 63.0264ZM1610.4 74.9524C1613.34 74.9524 1616.67 74.7519 1619.21 75.3533C1624.14 76.4557 1628.81 75.4535 1633.88 75.0526C1637.22 74.5515 1641.75 76.155 1643.89 78.2596C1645.49 79.7629 1645.89 81.5668 1645.75 83.3707C1646.15 85.1746 1643.48 87.3794 1640.95 87.6801C1635.08 88.3816 1629.21 88.7825 1623.74 86.9786C1616.27 84.5733 1608.27 84.7738 1601.07 86.9786C1596.4 88.1812 1591.73 88.6823 1586.79 87.0788C1585.99 86.7781 1585.19 86.5777 1583.86 86.5777C1578.79 85.776 1573.86 85.3751 1569.19 86.6779C1560.78 88.8827 1552.25 90.0853 1543.04 89.6845C1540.91 89.6845 1538.91 89.8849 1537.17 89.8849C1533.04 89.8849 1529.17 89.484 1525.97 87.6801C1520.63 84.7738 1513.96 83.6714 1506.76 84.0723C1504.63 84.2727 1503.03 84.0723 1500.89 83.972C1496.76 83.972 1493.02 83.0701 1489.69 82.0679C1486.75 80.9655 1483.82 80.9655 1481.28 81.9677C1474.88 84.1725 1468.21 84.5734 1461.14 83.972C1459.41 83.972 1457.41 83.1703 1455.81 82.6692C1454.07 82.1681 1452.47 81.0657 1452.61 79.8631C1452.21 78.8609 1453.54 77.8587 1455.67 77.3576C1459.41 76.6561 1463.28 75.9546 1467.14 74.9524C1472.21 73.7498 1476.88 74.0504 1481.42 75.3533C1484.35 76.155 1486.89 76.155 1489.82 75.4535C1491.55 74.9524 1493.56 74.9524 1495.29 74.4513C1503.96 76.5559 1512.9 75.9546 1521.7 75.7541C1551.31 75.253 1581.06 75.6539 1610.4 74.9524Z" fill="#00659E"/>
</g>
<defs>
<clipPath id="clip0">
<rect width="1920" height="102" fill="white" transform="translate(0 0.000244141)"/>
</clipPath>
</defs>
</svg>
