<svg width="1440" height="104" viewBox="0 0 1440 104" fill="none" xmlns="http://www.w3.org/2000/svg">
<path d="M1440 70.8C1438.9 70.6 1437.8 70.3 1436.7 69.9C1436.4 69.8 1435.8 69.5 1435.8 69.3C1435.8 69.2 1436.4 68.9 1436.9 68.9C1437.9 68.8 1438.9 68.8 1439.9 68.7V26.3C1436.3 25.7 1432.5 25.7 1428.7 25.6C1419.6 25.4 1410.2 25.3 1401 25.3C1399 25.3 1396.7 25.3 1395 24.9C1391.6 24.2 1388.2 24.1 1384.4 24.1C1378.1 24.1 1372.1 24 1365.9 23.8C1364.5 23.8 1362.8 23.8 1361.3 23.5C1357.9 22.9 1354.5 22.7 1350.8 22.7C1341.1 22.6 1331.4 22.6 1321.4 22.4C1318.8 22.4 1316.3 22.3 1313.7 21.8C1311.1 21.4 1308.9 21.1 1306.3 21.1H1300C1296.9 21 1294 20.7 1291.5 19.7C1289.2 18.7 1286.4 18.2 1282.9 18.2C1271.5 18.2 1260.4 18 1249 18H1230.5C1226.8 18 1223.4 17.7 1220 17.3C1218.6 17 1216.9 17 1215.4 16.9C1207.7 16.5 1200 16.6 1192.3 16.8C1190.3 16.8 1188.3 17.2 1186.3 17.5C1182.9 18.2 1179.5 18.4 1175.7 17.6C1173.7 17.2 1171.7 16.9 1169.7 16.9C1165.1 16.9 1160.6 16.5 1156 16.6C1150.3 16.7 1144.6 16.5 1139.2 16.5C1136.6 16.5 1134.1 16.4 1131.5 16.5C1124.9 16.8 1118.1 16.4 1111.5 16.5C1105.2 16.6 1099.2 16.6 1093 16.6H1079C1076.4 16.6 1073.9 17 1072.2 18C1071.6 18.4 1070.8 18.7 1069.9 19C1069 19.3 1067.9 19.4 1067 19.3C1066.4 19.3 1065.9 19.3 1065.6 19.2C1060.8 17.8 1055.9 17.9 1051.1 19.2C1049.7 19.6 1048.2 19.5 1046.8 19.2C1045.9 19 1045.1 18.8 1044 18.5C1041.2 17.9 1038 17.9 1035.2 18.5C1032.3 19.2 1029.5 19.8 1026.4 19.6C1024.4 19.6 1022.4 20 1020.4 20.3C1019 20.6 1017.3 20.6 1015.8 20.3C1012.9 19.6 1009.8 19.5 1006.7 19.5C1001.6 19.4 996.4 19.6 991.3 19.4C989.6 19.3 988.5 19 988.7 18C988.7 17.4 988.4 17 987.3 16.9C986.7 16.9 986.4 16.8 985.9 16.8C984.8 16.8 983.6 16.8 983 17.1C980.2 18 977.3 18.1 974.2 18.2C972.8 18.2 971.1 18.1 969.6 17.8C967.3 17.1 965 16.7 962.5 16.7C958.8 16.7 955.4 16.4 952 15.9C950.6 15.6 948.9 15.6 947.4 15.6C943.4 15.5 939.1 15.6 935.1 15.5C931.7 15.4 929.1 16.1 926.8 17.2C925.7 17.8 924.2 18.1 922.5 17.8C921.6 17.7 920.5 17.4 919.7 17.2C916.9 16.8 913.7 16.5 910.9 15.8C908.9 15.4 906.9 15.4 904.9 15.4C901.8 15.5 898.6 15.5 895.8 16.1C890.4 17.2 884.7 17 879 16.8C876.1 16 873 16.2 870.2 16.7C861.9 16.8 853.7 17.1 845.7 16.8C843.7 16.7 841.7 16.7 839.7 16.2C834.6 15.2 829.7 15.4 824.6 16.2C822 16.6 819.7 16.5 817.2 15.9C814.1 15.2 811.2 15.3 808.9 16.7C808.3 17.1 807.5 17.4 806.6 17.7C802.3 16.9 797.5 17.3 793.2 16.1C790.9 15.5 788.4 15.3 785.8 15.3C783.8 15.3 781.8 15.3 779.5 15.2C777.5 15.2 775.5 14.9 773.5 14.5C771.5 14.1 769.5 13.9 767.5 13.9H755.2C747.5 13.9 739.8 13.9 732.1 13.8C728.1 13.8 723.8 13.6 719.8 13.9C717.2 14 714.7 13.8 712.4 13.1C708.4 12 704.1 11 700.1 10C698.7 9.70002 697.2 9.40002 695.8 9.30002C687.5 9.20002 679.3 8.90002 671.3 9.00002C668.7 9.00002 666.2 9.30002 663.9 9.80002C661.9 10.2 659.9 10.5 657.9 10.5C651.6 10.5 645.6 10.5 639.4 10.6C635.7 10.6 632.3 10.5 628.8 9.90002C627.4 9.60002 626 9.50002 624.2 9.50002C620.5 9.40002 617.1 9.20002 613.4 9.40002C602 9.50002 590.9 9.40002 579.5 9.30002C572.4 9.30002 565.2 9.40002 557.8 9.60002C556.4 9.60002 554.7 9.30002 553.8 8.70002C552.7 8.10002 551.8 7.60002 550.7 7.00002C549.7 6.00002 548 5.90002 546.6 6.00002C545.7 6.10002 544.6 6.10002 543.7 6.40002C542.6 6.70002 541.7 6.80002 540.8 6.50002C536 5.50002 530.8 5.80002 525.7 5.80002C523.1 5.80002 520.6 5.50002 518.3 4.90002C516.9 4.50002 515.5 4.50002 514 4.90002C513.1 5.00002 512.3 5.30002 511.1 5.60002C509.1 6.00002 507.1 6.00002 505.1 5.90002C501.1 5.60002 497.4 4.60002 493.4 4.10002C489.4 3.40002 485.4 3.10002 481.4 3.10002H455.2C448.9 3.10002 442.9 2.90002 436.7 2.70002C435.3 2.70002 433.6 2.40002 432.1 2.10002C430.1 1.80002 428.1 2.00002 426.1 2.10002C425 2.20002 424.1 2.20002 423 2.10002C420.4 1.70002 418.2 1.50002 415.3 1.50002C397.3 1.40002 379.4 1.40002 361.4 1.20002H332C328.9 1.20002 326 0.900016 322.9 0.500016C320 -0.0999839 316.9 0.100016 313.8 0.500016C313 0.600016 311.8 0.800016 311 0.800016C309 0.800016 307 0.200016 305 0.500016C303 0.600016 301 1.20002 299 1.20002C297.6 1.20002 295.9 1.20002 294.4 0.900016C291.8 0.300016 289.6 0.300016 287 0.900016C285.6 1.20002 284.2 1.30002 282.4 1.30002H265.6C263.6 1.30002 261.6 1.20002 259.6 0.700016C255.6 1.61529e-05 251.6 1.60336e-05 247.6 0.800016C246.2 1.10002 244.7 1.20002 243 1.20002C232.2 1.10002 221.3 1.50002 210.8 1.50002H196.8C194.2 1.50002 191.7 1.60002 189.4 2.10002C186.8 2.50002 184.6 2.70002 182 2.80002C178.9 3.00002 175.7 3.00002 172.9 3.10002C170.9 3.10002 168.9 3.40002 166.9 3.80002C163.5 4.50002 159.8 4.60002 156.4 3.90002C153 3.30002 149.6 3.00002 145.8 3.60002C144.7 3.80002 143.8 3.80002 142.7 3.60002C141.3 3.50002 139.6 3.20002 138.1 3.20002C133.5 3.20002 129 3.20002 124.1 3.10002C122.1 3.10002 120.1 3.20002 118.1 3.70002C115.5 4.10002 113 4.00002 110.7 3.60002C108.7 3.20002 106.7 3.20002 104.7 3.50002C101.3 4.10002 97.8996 4.30002 94.1996 4.30002C80.1996 4.40002 66.5996 4.60002 52.5996 4.60002C49.4996 4.60002 46.5996 4.70002 43.4996 5.30002C42.0996 5.60002 40.6996 5.60002 38.8996 5.40002C37.9996 5.30002 36.8996 5.10002 36.0996 5.10002C27.0996 6.30002 17.9996 6.00002 8.49961 6.20002C5.69961 6.30002 2.79961 6.40002 -0.000391006 6.70002V104H1440V70.8ZM669.8 17.2C669.2 17.2 668.7 17.1 668.7 16.9C668.4 16.6 669 16.3 670.1 16.2C672.1 16.1 673.8 16.3 673.8 16.8C672.6 17.4 671.2 17.4 669.8 17.2ZM-26.5004 98.3H-26.7004C-26.7004 98.6 -26.8004 99 -26.8004 99.3C-26.3004 99.3 -26.1004 99.3 -25.8004 99.4C-26.2004 99 -26.5004 98.8 -26.5004 98.3ZM-29.7004 12.4C-29.8004 12.4 -29.8004 12.4 -29.9004 12.4C-29.8004 12.4 -29.7004 12.4 -29.7004 12.4Z" fill="#00659E"/>
</svg>
