<svg width="1440" height="85" viewBox="0 0 1440 85" fill="none" xmlns="http://www.w3.org/2000/svg">
<path d="M1440 1.2219e-05H0V76.1C2.5 76.2 5.1 76.2 7.7 76.2C22.5 76.2 37.4 76.3 52.5 76.3H92.4C96.7 76.3 100.7 76.5 104.4 77.2C106.4 77.5 108.7 77.5 110.7 77.2C111.6 77.1 112.7 76.9 113.6 76.8C116.2 76.5 118.7 76.5 121.3 76.9C123.3 77.2 125.3 77.5 127.3 77.5C140.1 77.5 153 77.9 165.8 77.8C174.9 77.7 184.3 77.9 193.5 77.9C196.6 77.9 199.5 78.2 202.6 78.6C204 78.9 205.7 79 207.2 79C216.9 79.1 226.6 79.3 236.3 79.4C238.3 79.4 240.3 79.7 242.3 80C243.7 80.3 245.2 80.3 246.9 80.1C249.5 79.7 252 79.5 254.3 80.1C257.7 80.8 261.4 80.8 264.8 81C268.8 81.1 273.1 81 277.1 81C281.1 81 285.4 81.3 289.4 81.8C293.4 82.4 297.7 82.4 301.7 81.8C306.6 81.1 311.7 81 316.5 80C317.9 79.7 319.6 79.9 321.1 80.1C323.4 80.7 326 81 328.5 81C332.2 81.1 335.6 81.1 339 81.8C340.4 82.1 341.8 82.1 343.6 82.2C345.9 82.3 376.7 82.2 379 82.1C380.4 82 382.1 81.8 383.6 81.5C384.7 81.4 385.6 81.4 386.7 81.5C387.5 81.6 388.7 81.8 389.5 81.9C392.6 82.2 395.5 82.2 398.6 81.6C399.7 81.5 400.6 81.5 401.5 81.6C406.9 82.6 412.6 82.5 418 81.3C419.4 81 420.9 81 422.6 81.3C424 81.4 425.5 81.6 427.2 81.3C429.8 80.9 432.3 80.9 434.9 81.3C439.5 82 444 82.3 448.6 82.3C455.2 82.3 462 82.4 468.6 82.4C471.7 82.4 474.6 82.8 477.7 83.4C479.7 83.8 481.7 83.8 483.7 83.4C484.6 83.3 485.7 83.1 486.5 83C487.9 82.8 489.6 82.7 491.1 83.1C495.1 84.1 499.1 84.1 503.1 83.7C506.2 83.4 509.1 82.9 512.2 83.4C513.1 83.5 514.2 83.4 515.1 83.3C517.7 82.9 519.9 83 522.5 83.2C528.5 83.8 534.5 84.2 540.8 83.9C542.8 83.7 544.8 83.6 547.1 83.7C556.8 84.3 566.5 83.9 576.2 84C582.8 83.6 589.6 83.7 596.2 83.9C599.9 84 603.3 83.7 606.8 82.9C607.7 82.8 608.8 82.6 609.6 82.9C613 83.6 616.4 83.9 620.1 83.9C625.8 83.9 631.5 84 636.9 84C643.4 84.1 650.3 83.9 656.9 83.4C658.3 83.3 659.8 83 661.5 82.8C662.9 82.5 664.6 82.5 666.1 82.8C668.9 83.2 672.1 83.5 675.2 83.6C682.9 83.9 690.6 83.5 698.3 83.5C699.7 83.5 701.4 83.4 702.9 83.1C706.9 82.4 710.6 82.1 714.9 83.1C718.3 83.8 722 83.8 725.4 83.2C726.3 83.1 727.4 82.8 728.3 82.6C729.1 82.5 730.3 82.3 731.4 82.3C732.8 82.3 734.5 82.2 736 82.4C739.4 83.1 742.8 83.4 746.6 83.4C750.3 83.3 753.7 83.5 757.4 83.7C765.7 83.8 773.9 84 781.9 83.5C783.9 83.4 785.9 83.2 787.9 82.9C789 82.8 789.9 82.8 790.7 83C794.7 83.9 798.7 83.6 802.7 84.3C803.8 84.4 804.7 84.4 805.8 84.3C812.4 83.6 818.9 83.4 825.8 83.7C834.9 84.1 844.3 83.7 853.5 83.7C856.1 83.7 858.6 83.4 860.9 83C862.3 82.7 863.8 82.9 865.5 83C866.9 83.1 868.6 83.4 870 83.4C877.7 83.3 885.4 83.6 893.1 83.6C895.1 83.6 897.4 83.7 899.4 83.6C903.4 83.3 907.7 83.6 911.7 83.4C912.8 83.4 913.7 83.1 914.5 83C915.4 82.9 916.5 82.9 917.4 83.1C919.7 83.7 922.2 83.9 924.8 83.8C946.8 83.5 969 83.8 990.9 83.4C995.5 83.3 1000 83.4 1004.9 83.4C1007.5 83.4 1010 83.3 1012.6 82.8C1014 82.5 1015.7 82.8 1017.2 82.9C1018.3 82.9 1019.2 83 1020.3 82.9C1024.3 82.2 1028.3 82.2 1032.6 82.2C1042.9 82.2 1053.1 82.2 1063.4 82.1C1066.8 82.1 1070.5 82.1 1073.9 81.2C1074.8 80.9 1075.9 80.8 1076.8 81.1C1080.2 81.8 1083.6 81.9 1087.4 81.8C1091.1 81.7 1094.5 81.8 1098.2 81.8C1100.8 81.8 1103.3 81.7 1105.6 81.2C1106.4 81.1 1107.6 80.9 1108.4 80.8C1111.5 80.5 1114.7 80.5 1117.5 81.2C1119.5 81.6 1121.5 81.8 1123.5 81.3C1125.5 80.9 1127.2 80.6 1129.5 80.6C1135.2 80.6 1140.9 80.6 1146.3 80.5C1150 80.5 1153.4 80.5 1156.8 79.8C1158.5 79.5 1159.6 80.1 1160.5 80.6C1161.1 81 1162.2 81.2 1163.1 81C1165.7 80.6 1168.2 80.4 1170.8 80.4C1181.1 80.4 1191.3 80.3 1201.6 80.3C1205.6 80.3 1209.9 80.2 1213.9 79.5C1217.3 78.9 1221 79.2 1224.5 78.9C1227.1 78.8 1229.6 78.6 1232.2 78.5C1236.5 77.2 1241 77.4 1245.6 77.4C1249.9 77.4 1253.9 77.3 1257.6 76.3C1258.5 76 1259.6 76 1260.4 76H1263.6C1275 76.3 1286.1 75.8 1297.5 75.7C1301.2 75.7 1304.6 75.1 1307.5 74C1309.2 73.3 1311.2 73.4 1313.2 73.9C1315.2 74.3 1317.2 74.2 1319.2 73.8C1322 73.1 1324.9 72.8 1328 72.8H1335.7C1337.7 72.8 1339.7 72.5 1341.7 72.2C1343.1 71.9 1344.9 72.2 1346.3 72.2C1347.4 72.2 1348.3 72.4 1349.4 72.2C1353.4 71.5 1357.4 71.5 1361.7 71.5C1372 71.4 1382.2 71.4 1392.5 71.2C1393.4 71.2 1394.5 70.9 1395.4 70.8C1396.5 70.7 1397.1 70.2 1396.8 69.5C1396.5 69.1 1396 68.5 1394.8 68.5C1390.8 68.2 1386.8 67.9 1382.8 67.2C1381.9 67.1 1380.8 67.2 1379.7 67.3C1376.9 67.9 1373.7 68.2 1370.6 67.6C1367.8 67 1364.6 66.7 1361.5 66.6C1360.4 66.5 1359.5 66.3 1359.5 65.9C1359.5 65.9 1360.4 65.6 1360.9 65.6C1368.6 65.5 1376.3 65.3 1384 65.3C1389.1 65.3 1394.3 65.2 1399.4 65.2C1403.4 65.2 1407.7 65.1 1411.4 64.2C1412.2 64.1 1413.4 64.1 1414.5 64.2C1421.1 65.5 1427.6 65 1434.2 64.8C1435.1 64.8 1436.2 64.5 1437 64.4C1438.3 64.1 1439.6 64 1440.8 63.9V61.1C1440.1 61.1 1439.4 61.2 1438.7 61.3C1436.7 61.6 1434.7 61.6 1432.7 61.3C1428.1 60.6 1423.6 60.7 1419 61.4C1417.9 61.5 1417 61.7 1416.1 61.5C1410.7 60.5 1405 61.1 1399.3 61.1C1397.9 61.1 1396.1 61.2 1394.7 61.5C1392.1 61.9 1389.9 61.8 1387.3 61.5C1379.3 60.4 1371 60.2 1363.1 61.6C1359.4 62.3 1356.2 61.6 1353.4 60.5C1353.1 60.4 1353.1 59.9 1353.4 59.9C1354.3 59.8 1355.4 59.6 1356.2 59.5C1359.3 59.4 1362.5 59.2 1365.3 59.4C1374.1 59.8 1382.7 59.4 1391.5 59.3C1392.9 59.3 1394.6 59.2 1396 58.9C1398 58.5 1400 58.6 1402 58.9C1403.4 59 1405.1 58.9 1406.5 58.6C1408.5 58.2 1410.5 58.2 1412.5 58.6C1416.5 59.3 1420.5 59.3 1424.5 58.6C1428.8 57.7 1433.3 57.6 1438.2 57.7C1439 57.7 1439.8 57.7 1440.6 57.7V48.2C1440 48.2 1439.4 48.2 1438.8 48.2C1436.5 48.2 1434.8 47.8 1433.4 47.1C1430.3 45.5 1426.3 45.3 1422 45.3C1411.7 45.3 1401.5 45.3 1391.2 45.2C1389.8 45.2 1388.3 44.8 1387.2 44.1C1386.9 44 1386.6 43.7 1386.9 43.4C1386.9 43.2 1387.5 43 1387.7 43C1388.6 42.9 1389.7 42.7 1390.6 42.6C1396.6 42.2 1402.9 42.3 1409.1 42.3H1432.2C1435.1 42.3 1437.8 42.2 1440.6 41.8V-0.199988C1439.6 -0.199988 1438.6 -0.199988 1437.6 -0.299988C1437.2 0.100012 1439.5 1.2219e-05 1440 1.2219e-05ZM1427.9 50.2C1429 50.3 1430.1 50.3 1431.5 50.3C1431.5 50.3 1431.9 50.3 1432.1 50.3C1433.2 50.5 1433.8 50.7 1433.5 51C1433.2 51.1 1432.6 51.3 1432.4 51.4C1430.4 51.5 1428.7 51.5 1426.7 51.3C1426.1 51.3 1425.9 51 1425.6 50.9C1426.2 50.5 1427 50.2 1427.9 50.2Z" fill="#00659E"/>
</svg>
