<svg width="1920" height="102" viewBox="0 0 1920 102" fill="none" xmlns="http://www.w3.org/2000/svg">
<g clip-path="url(#clip0)">
<path d="M43.1104 28.6009C54.0381 28.7011 64.8324 28.3 75.76 28.4003C79.8912 28.4003 83.756 27.7987 87.4873 27.197C90.4192 26.6957 93.351 26.3949 96.2827 26.2946C106.278 26.1943 116.406 26.2946 126.001 26.1943C135.995 26.0941 145.724 26.1943 155.718 24.2892C159.45 23.487 163.581 23.6875 167.446 23.8881C185.436 23.8881 203.427 23.487 221.018 23.9883C229.014 24.1889 236.876 24.0886 244.472 22.1834C247.404 21.6821 250.336 21.3813 253.268 21.281C264.195 21.1807 274.99 21.281 285.917 21.3813C295.912 21.4815 306.04 21.6821 315.635 21.7823C323.631 21.9829 331.494 21.5818 339.49 20.178C345.353 19.075 351.217 19.2755 357.48 19.6766C362.544 19.8772 367.208 21.0804 371.739 21.5818C377.603 21.9829 383.467 19.6766 389.197 19.8772C393.328 19.8772 397.193 19.7769 401.324 19.7769C409.32 19.6766 417.182 19.8772 425.178 19.7769C430.242 19.6766 435.173 19.3758 439.837 18.5736C443.569 17.7714 447.7 17.4706 451.564 17.6712C476.352 18.1725 501.405 17.0695 526.059 18.0723C528.991 18.2728 531.923 18.2728 534.854 17.6712C539.918 16.869 544.449 16.7687 549.513 17.2701C550.313 17.2701 551.646 16.9693 552.445 16.9693C556.177 16.1671 559.908 16.3676 564.172 17.3703C571.769 19.075 579.764 19.4761 587.627 17.3703C593.357 15.766 599.354 16.1671 605.218 16.1671C610.282 16.0668 615.213 16.2674 619.877 17.4706C626.673 19.4761 632.937 19.3758 640 17.972C643.731 17.1698 647.995 17.3703 651.727 17.2701C664.654 17.3703 677.713 17.4706 690.64 17.7714C699.435 17.8717 708.631 17.7714 716.893 15.6657C720.624 14.8635 724.889 15.0641 728.62 16.0668C733.284 17.2701 738.349 17.7714 743.279 16.869C745.411 16.5682 747.011 16.5682 749.143 17.0695C755.939 18.5736 763.002 18.4733 769.666 16.7687C773.397 15.9665 777.528 15.8662 781.393 16.0668C786.457 16.5682 791.121 17.7714 795.652 18.1725C801.516 18.8744 807.379 16.2673 813.243 16.6684C819.106 17.0695 824.97 17.5709 830.834 18.2728C836.697 17.4706 842.561 16.5681 848.425 16.7687C849.224 16.7687 850.557 16.7687 851.356 16.7687C891.202 17.27 930.915 17.8717 970.761 18.1725C975.025 18.0722 978.757 17.7714 982.488 17.27C984.62 16.9692 986.219 16.9692 988.352 17.4706C995.548 18.1725 1000.08 18.5736 1005.14 18.5736C1011.01 18.4733 1017.27 18.6738 1023.13 18.373C1026.07 18.373 1029 17.7714 1031.93 17.4706C1034.06 17.1698 1035.66 16.8689 1037.79 17.3703C1044.59 19.0749 1051.25 19.476 1058.45 19.3757C1070.58 19.476 1082.3 19.3757 1094.43 19.1752C1097.36 19.1752 1100.29 18.8744 1103.23 18.2727C1109.89 16.9692 1116.95 16.5681 1123.61 16.4679C1132.41 16.5681 1141.61 16.7687 1150.4 16.6684C1154.13 16.6684 1158.4 16.5681 1162.13 15.7659C1170.92 14.3621 1179.59 13.7605 1188.91 13.961C1206.9 14.2619 1224.9 14.0613 1242.49 14.8635C1246.22 15.064 1250.48 15.064 1254.21 14.9638C1261.28 14.6629 1268.07 14.7632 1275.14 14.9638C1280.2 15.1643 1285.13 15.064 1290.19 15.2646C1294.46 15.1643 1298.19 14.6629 1301.92 13.8608C1310.58 11.4542 1319.38 12.1561 1328.31 13.7605C1330.04 14.2618 1332.17 14.7632 1333.77 14.9638C1337.64 15.6657 1341.77 15.8662 1345.5 15.3648C1348.43 15.3648 1350.83 14.2618 1353.89 14.2618C1365.62 14.1616 1377.75 12.6575 1389.48 13.5599C1395.74 13.7605 1401.6 13.6602 1407.47 13.5599C1410.4 13.5599 1413.33 12.9583 1416.26 12.4569C1420.39 11.6548 1424.26 12.1561 1427.99 13.0586C1430.92 13.7605 1433.85 13.7605 1436.78 13.4597C1439.72 13.1588 1442.65 12.6575 1445.58 13.3594C1452.38 14.7632 1459.44 14.4624 1466.1 14.8635C1474.1 15.2646 1481.96 15.1643 1489.56 13.5599C1493.29 12.7578 1497.55 12.9583 1501.28 12.858C1525.94 12.858 1551.13 13.0586 1575.78 12.9583C1582.84 12.858 1589.64 12.7577 1596.7 11.4542C1599.63 10.9528 1602.57 10.652 1605.5 10.8526C1637.35 11.2537 1669.2 10.5518 1700.91 11.4542C1712.64 11.8553 1724.77 11.6547 1736.9 11.755C1741.03 11.6547 1744.89 11.6547 1748.62 10.8526C1755.29 9.24821 1761.95 8.84712 1769.15 9.04766C1801.79 9.44875 1834.84 10.0504 1867.63 10.9528C1882.29 11.5545 1896.95 11.8553 1912 11.6547C1914.67 11.5545 1917.33 11.5545 1920 11.5545L1920 102L-0.999992 102L-0.999998 28.6009C13.6591 28.4003 28.5846 28.3 43.1104 28.6009ZM422.113 30.3055C425.045 30.0046 425.445 29.2025 422.913 28.5006C422.113 28.3 420.781 28.5006 419.981 28.8014C419.581 28.8014 419.581 29.6035 419.181 29.8041C420.381 30.1049 421.313 30.6063 422.113 30.3055ZM47.7747 39.2297C49.9069 39.2297 51.506 38.9289 53.1052 38.1267C51.3728 37.124 49.7736 36.9234 47.6414 36.9234C45.5092 36.7229 43.91 36.9234 42.1776 38.0264C43.91 38.7283 45.6425 39.2297 47.7747 39.2297Z" fill="#F5F5F5"/>
</g>
<defs>
<clipPath id="clip0">
<rect width="1920" height="102" fill="white" transform="matrix(-1 8.74228e-08 8.74228e-08 1 1920 0)"/>
</clipPath>
</defs>
</svg>
