<svg width="1920" height="102" viewBox="0 0 1920 102" fill="none" xmlns="http://www.w3.org/2000/svg">
<g clip-path="url(#clip0)">
<path d="M1875.91 28.0181C1864.99 28.1 1854.2 27.7722 1843.28 27.8542C1839.15 27.8542 1835.29 27.3625 1831.56 26.8709C1828.63 26.4611 1825.7 26.2153 1822.77 26.1334C1812.78 26.0514 1802.66 26.1334 1793.07 26.0514C1783.08 25.9695 1773.35 26.0514 1763.36 24.4945C1759.63 23.839 1755.5 24.0029 1751.64 24.1667C1733.66 24.1667 1715.68 23.839 1698.1 24.2487C1690.11 24.4126 1682.25 24.3306 1674.66 22.7737C1671.73 22.364 1668.79 22.1182 1665.86 22.0362C1654.94 21.9543 1644.15 22.0362 1633.23 22.1182C1623.24 22.2001 1613.12 22.364 1603.53 22.4459C1595.54 22.6098 1587.68 22.282 1579.69 21.1348C1573.83 20.2335 1567.97 20.3974 1561.71 20.7251C1556.65 20.889 1551.98 21.8723 1547.45 22.282C1541.59 22.6098 1535.73 20.7251 1530.01 20.889C1525.88 20.889 1522.01 20.8071 1517.89 20.8071C1509.89 20.7251 1502.04 20.889 1494.04 20.8071C1488.98 20.7251 1484.05 20.4793 1479.39 19.8237C1475.66 19.1682 1471.53 18.9224 1467.67 19.0863C1442.9 19.496 1417.86 18.5946 1393.22 19.414C1390.29 19.5779 1387.35 19.5779 1384.42 19.0862C1379.36 18.4307 1374.83 18.3488 1369.77 18.7585C1368.97 18.7585 1367.64 18.5126 1366.84 18.5126C1363.11 17.8571 1359.38 18.021 1355.12 18.8404C1347.53 20.2334 1339.54 20.5612 1331.68 18.8404C1325.95 17.5293 1319.96 17.8571 1314.1 17.8571C1309.04 17.7751 1304.11 17.939 1299.45 18.9223C1292.65 20.5612 1286.39 20.4792 1279.33 19.332C1275.6 18.6765 1271.34 18.8404 1267.61 18.7584C1254.69 18.8404 1241.64 18.9223 1228.72 19.1682C1219.93 19.2501 1210.74 19.1682 1202.48 17.4474C1198.75 16.7918 1194.49 16.9557 1190.76 17.7751C1186.1 18.7584 1181.04 19.1681 1176.11 18.4307C1173.98 18.1848 1172.38 18.1848 1170.25 18.5945C1163.45 19.8237 1156.4 19.7417 1149.74 18.3487C1146.01 17.6932 1141.88 17.6112 1138.01 17.7751C1132.95 18.1848 1128.29 19.1681 1123.76 19.4959C1117.9 20.0695 1112.04 17.939 1106.18 18.2668C1100.32 18.5945 1094.46 19.0042 1088.6 19.5778C1082.74 18.9223 1076.88 18.1848 1071.02 18.3487C1070.22 18.3487 1068.89 18.3487 1068.09 18.3487C1028.26 18.7584 988.57 19.2501 948.745 19.4959C944.483 19.4139 940.753 19.1681 937.024 18.7584C934.893 18.5126 933.294 18.5126 931.163 18.9223C923.971 19.4959 919.442 19.8236 914.381 19.8236C908.52 19.7417 902.26 19.9056 896.4 19.6598C893.469 19.6598 890.539 19.1681 887.609 18.9223C885.478 18.6764 883.879 18.4306 881.748 18.8403C874.955 20.2333 868.296 20.5611 861.103 20.4792C848.982 20.5611 837.261 20.4792 825.141 20.3153C822.21 20.3153 819.28 20.0695 816.35 19.5778C809.69 18.5125 802.631 18.1848 795.971 18.1028C787.18 18.1848 777.99 18.3486 769.199 18.2667C765.469 18.2667 761.207 18.1848 757.478 17.5292C748.687 16.382 740.029 15.8904 730.706 16.0543C712.724 16.3001 694.743 16.1362 677.161 16.7917C673.432 16.9556 669.17 16.9556 665.44 16.8737C658.381 16.6278 651.588 16.7098 644.529 16.8737C639.467 17.0375 634.539 16.9556 629.478 17.1195C625.215 17.0375 621.486 16.6278 617.756 15.9723C609.099 14.0057 600.308 14.5793 591.384 15.8903C589.652 16.3001 587.521 16.7098 585.923 16.8737C582.06 17.4472 577.931 17.6111 574.202 17.2014C571.272 17.2014 568.874 16.3001 565.811 16.3001C554.089 16.2181 541.969 14.989 530.248 15.7264C523.988 15.8903 518.127 15.8084 512.266 15.7264C509.336 15.7264 506.406 15.2348 503.476 14.8251C499.347 14.1695 495.484 14.5792 491.754 15.3167C488.824 15.8903 485.894 15.8903 482.964 15.6445C480.033 15.3987 477.103 14.989 474.173 15.5626C467.38 16.7097 460.32 16.4639 453.661 16.7917C445.669 17.1195 437.811 17.0375 430.219 15.7264C426.489 15.0709 422.227 15.2348 418.497 15.1528C393.856 15.1528 368.683 15.3167 344.042 15.2348C336.982 15.1528 330.189 15.0709 323.13 14.0056C320.2 13.5959 317.27 13.3501 314.339 13.514C282.506 13.8417 250.672 13.2681 218.972 14.0056C207.251 14.3334 195.13 14.1695 183.009 14.2514C178.88 14.1695 175.018 14.1695 171.288 13.5139C164.629 12.2029 157.969 11.8751 150.776 12.039C118.144 12.3667 85.1113 12.8584 52.3455 13.5959C37.6941 14.0875 23.0427 14.3333 7.99167 14.1694C5.32778 14.0875 2.66389 14.0875 -3.64991e-07 14.0875L-1.32882e-05 87.9997L1920 88L1920 28.0181C1905.35 27.8542 1890.43 27.7722 1875.91 28.0181ZM1497.11 29.411C1494.18 29.1652 1493.78 28.5096 1496.31 27.9361C1497.11 27.7722 1498.44 27.9361 1499.24 28.1819C1499.64 28.1819 1499.64 28.8374 1500.04 29.0013C1498.84 29.2471 1497.91 29.6568 1497.11 29.411ZM1871.25 36.704C1869.12 36.704 1867.52 36.4581 1865.92 35.8026C1867.65 34.9832 1869.25 34.8193 1871.38 34.8193C1873.52 34.6554 1875.11 34.8193 1876.84 35.7207C1875.11 36.2943 1873.38 36.704 1871.25 36.704Z" fill="#00659E"/>
<path d="M327.202 45.7782C324.267 45.7782 321.333 45.678 318.398 45.3774C312.529 44.275 307.194 43.4732 300.791 43.6736C265.176 44.275 229.028 45.0767 193.413 45.1769C147.661 45.3774 102.041 46.8807 55.8889 47.0811C37.8815 47.0811 20.274 47.9831 2.13317 48.4841C1.46618 48.4841 0.665889 48.4841 -0.000981232 48.5844L-0.000976562 102.001L1920 102L1920 17.6168C1919.47 17.5166 1919.07 17.4163 1918.53 17.3161C1915.6 16.7148 1912.66 17.0155 1909.73 16.9153C1893.85 16.815 1877.98 16.815 1861.97 16.9153C1858.24 16.815 1853.97 17.1157 1850.24 16.2137C1841.57 14.3096 1832.76 14.4098 1823.43 14.6103C1806.62 14.6103 1789.41 14.7105 1772.74 14.7105C1767.67 14.6103 1762.73 14.8107 1758.06 13.8085C1752.2 12.7061 1746.33 12.4055 1740.46 12.3052C1728.32 12.205 1716.58 12.3052 1704.44 12.1048C1700.71 12.1048 1696.44 12.0046 1692.7 11.4033C1686.03 10.0002 1678.97 10.0002 1672.3 9.9C1657.22 9.69957 1642.55 9.79979 1627.48 9.9C1619.47 9.79979 1611.6 9.69957 1603.6 8.29652C1599.07 7.49478 1593.6 7.39456 1588.93 7.595C1575.99 7.69522 1562.92 7.79543 1549.98 8.19631C1545.84 8.09609 1541.97 8.59719 1538.24 9.59937C1530.64 12.1048 1523.03 12.5057 1515.56 9.7998C1513.03 8.99805 1509.69 8.6974 1506.76 8.6974C1501.69 8.59719 1496.76 8.79762 1491.69 8.49696C1488.75 8.49696 1485.42 8.39675 1482.88 7.59501C1475.41 5.69087 1467.41 5.8913 1459.54 5.79108C1435.66 5.99152 1411.79 6.19195 1387.78 6.49261C1379.77 6.69305 1371.9 6.59283 1363.9 4.88912C1360.97 4.38803 1358.03 4.28781 1355.1 4.28781C1331.49 4.78891 1307.61 4.78891 1283.73 4.78891C1261.99 4.78891 1240.12 5.7911 1217.97 5.7911C1209.17 5.69088 1199.97 5.7911 1191.16 4.18761C1188.23 3.68652 1185.29 3.58631 1182.36 3.58631C1163.55 3.08522 1144.61 3.08521 1125.4 3.38587C1090.59 3.98718 1055.77 5.39024 1020.96 5.18981C1017.22 5.18981 1012.95 5.59069 1009.22 5.59069C992.413 5.89134 975.205 6.49265 958.532 6.29221C945.593 6.09178 932.521 6.192 919.582 6.59288C899.44 6.89353 879.699 7.09396 859.691 7.39462C855.555 7.39462 851.687 7.2944 847.952 6.69309C845.818 6.39244 844.218 6.19201 842.083 6.59288C834.08 8.29659 826.477 7.69529 818.607 6.09179C814.072 5.29004 809.003 4.98939 804.468 3.58634C800.333 2.28351 796.464 3.28568 793.93 5.29005C790.462 8.09615 786.193 8.79768 780.858 8.69746C774.989 8.59725 769.119 8.79769 763.25 7.69528C757.381 6.59289 751.512 5.99158 745.776 5.18983C743.642 4.88918 742.041 4.58853 739.907 5.08962C735.239 6.29223 730.17 6.79332 725.234 6.99376C712.296 7.09398 699.224 7.1942 686.285 7.29442C683.35 7.29442 680.416 7.1942 677.481 7.1942C669.878 7.59508 665.743 7.59507 660.141 12.9066C658.807 14.2095 657.206 14.6104 655.072 14.1093C647.602 12.7062 640.132 11.1027 631.729 11.5036C625.46 11.9045 619.991 10.6016 615.455 7.99595C613.455 6.69312 610.52 6.0918 607.452 7.39465C606.652 7.6953 605.718 7.89574 604.918 8.09618C601.983 8.7977 599.049 9.09835 596.114 8.19639C588.644 6.29225 581.175 5.4905 572.771 5.59072C552.629 5.89138 532.888 5.89138 512.746 6.09182C507.677 5.9916 502.742 5.4905 498.207 4.38811C495.272 3.58636 492.338 3.7868 489.403 4.58855C480.866 6.99379 472.196 6.89357 462.992 5.29007C460.858 4.98942 459.257 4.48833 457.123 4.48833C454.989 4.48833 452.988 4.18767 451.254 4.68877C447.519 5.3903 443.651 6.69314 439.782 7.09401C428.844 7.69532 417.906 7.89575 407.102 6.19204C396.297 4.48834 385.359 4.68877 374.822 6.79336C364.284 8.99816 353.346 9.09837 342.542 7.19423C336.673 6.09184 330.803 6.29227 324.934 6.99379C324.134 6.99379 323.2 7.49488 322 7.49488C319.866 7.69532 318.265 8.19641 316.131 8.49707C312.796 8.99816 309.861 7.89576 308.261 6.59293C304.126 2.98507 298.79 2.68441 292.388 3.28573C290.253 3.48617 288.653 3.78682 286.518 4.28791C278.915 6.29227 270.912 6.89358 263.309 7.09402C257.44 7.29446 251.571 7.49489 245.301 7.39468C213.421 6.9938 181.541 7.69533 149.661 8.79774C144.593 8.99818 139.657 8.89796 134.588 8.59731C132.854 8.59731 130.453 7.79556 129.653 6.99381C126.452 3.58639 122.183 3.78683 117.114 5.08967C109.511 6.79338 101.508 6.69317 93.9048 8.59731C88.4359 10.1006 82.1666 9.69971 76.2975 8.39687C71.3622 7.29447 66.6935 6.99381 62.0248 8.49709C58.6901 9.49927 54.4216 10.2008 50.6868 10.4012C47.7522 10.6017 44.8177 10.6017 41.8832 10.5015C28.0107 10.7019 14.1383 10.9023 0.265861 11.203L0.265864 43.373C7.33544 44.275 14.4049 43.9743 21.4746 44.0745C26.5433 44.1748 31.212 43.1726 35.7473 42.1704C40.4159 40.9678 45.4846 40.7673 50.42 41.8697C55.4889 42.6715 60.024 43.2728 64.6926 42.0702C68.5609 41.068 72.2959 40.6671 76.4309 40.6671C82.3 40.4667 88.1691 40.5669 94.4383 40.3665L94.4383 40.0658C99.5072 39.8654 104.442 39.9656 109.511 39.7652C114.58 39.5647 119.515 39.8654 124.184 40.9678C127.119 41.4689 130.053 40.7673 132.988 40.5669C135.122 40.3665 137.256 39.8654 138.857 40.3665C147.527 42.7717 156.464 42.0702 165.268 41.97C191.279 41.7695 217.289 41.5691 242.9 41.1682C255.839 41.068 268.911 40.166 281.45 40.3665C294.388 40.5669 307.461 40.4667 320.399 40.5669C323.334 40.5669 326.268 40.8675 328.669 42.1704C330.27 43.1726 331.07 44.275 329.87 44.9765C328.803 45.4776 328.002 45.7782 327.202 45.7782ZM575.972 15.0112C580.641 13.8086 585.31 13.6082 590.245 14.4099C592.379 14.7106 593.179 16.0134 593.58 17.0156C593.58 18.3184 592.646 19.3206 590.912 19.8217C588.377 20.5232 585.043 20.5232 582.508 20.0221C579.174 19.2204 575.839 18.118 572.504 17.3162C572.904 16.3141 574.238 15.3119 575.972 15.0112ZM486.602 29.0418C487.536 28.5407 487.936 28.0396 488.736 27.7389C495.539 25.0331 502.742 22.8283 510.745 22.6278C517.948 22.4274 524.618 22.3272 531.02 20.0221C531.821 19.8217 533.155 19.521 533.955 19.521C541.025 20.6234 547.427 17.6169 554.497 17.7171C560.366 17.8173 566.235 17.3162 572.104 17.216C572.504 18.2182 572.904 19.2204 573.305 20.3228C574.105 21.6256 577.306 23.7302 579.44 23.7302C582.375 23.7302 585.31 24.0309 588.244 24.1311C599.182 24.0309 609.986 23.9306 620.924 23.7302C625.059 23.7302 628.928 24.3315 632.663 25.4339C641.333 28.1398 650.137 27.1376 658.673 25.7346C663.742 23.7302 669.611 23.3293 675.881 23.1289C686.818 23.0287 697.756 22.8282 708.561 22.5276C715.63 22.3271 722.3 23.7302 728.569 25.8348C731.104 26.6365 731.37 28.6409 729.236 30.4448C727.902 31.447 726.302 31.9481 724.167 32.4492C720.432 33.1507 716.164 33.3511 712.429 32.8501C709.495 32.5494 706.56 32.0483 703.625 31.447C699.09 30.3446 694.021 29.5429 688.953 29.7433C670.945 30.0439 652.938 30.0439 635.33 30.3446C630.262 30.545 625.193 31.2466 621.058 32.4492C618.924 32.9503 617.189 33.1507 615.189 32.349C610.653 31.0461 605.585 30.9459 600.649 30.3446C585.176 28.1398 585.176 28.1398 574.372 28.24C571.437 28.24 568.102 28.4405 565.568 27.8392C559.299 26.2357 554.363 26.6365 549.561 29.6431C548.227 30.4448 545.826 30.3446 544.092 30.6453C543.292 30.6453 541.958 30.3446 541.158 30.3446C536.089 29.5429 531.554 29.4426 526.485 30.6453C524.751 31.1464 522.75 31.6475 521.016 31.8479C518.882 32.0483 517.281 32.349 515.147 32.2488C514.347 32.2488 513.013 32.2488 512.212 31.9481C508.478 31.6474 504.743 29.8435 500.474 30.2444C496.739 30.7455 492.871 31.6475 489.136 32.1485C488.336 32.4492 487.002 32.1485 486.602 31.6475C484.868 31.3468 484.868 30.3446 486.602 29.0418ZM171.004 30.044C160.066 30.6453 149.128 31.3468 138.323 31.1464C123.25 30.946 108.578 31.5473 92.1706 31.8479C73.7631 32.6497 54.0216 32.4492 34.28 33.4514C30.5452 33.6519 26.2766 33.3512 22.5417 33.3512C21.7414 33.3512 20.0073 32.8501 20.0073 32.5495C19.6072 31.5473 20.9412 30.5451 23.0753 30.2444C26.8102 29.5429 30.6785 28.8414 34.0132 27.8392C36.5475 27.1377 39.4822 26.3359 42.4167 26.4361C49.0862 26.2357 56.2891 26.1355 63.3588 26.1355C65.4929 26.1355 67.4938 26.4361 69.2279 26.9372C74.1632 28.5407 78.8319 28.3403 83.1003 26.6366C85.6348 25.6344 88.9694 25.434 91.5038 26.5364C96.0389 27.8392 100.708 28.9416 105.643 28.7412C118.582 28.4405 131.254 28.0396 144.192 27.9394C152.996 27.8392 162.2 27.9394 171.004 28.5407C171.804 28.5407 172.738 29.0418 173.538 29.3425C172.738 29.5429 171.804 30.044 171.004 30.044ZM231.429 29.0418C219.691 29.9438 207.952 30.044 196.214 30.4449C193.28 30.4449 190.345 30.3446 187.944 29.0418C187.144 28.7411 191.812 27.3381 195.147 27.3381C195.947 27.3381 197.281 27.3381 198.082 27.3381C203.15 27.1377 208.219 27.2379 213.555 27.0374C219.024 27.1377 224.893 27.1377 230.762 27.5385C231.562 27.5385 232.496 28.0396 233.296 28.3403C232.629 28.5407 232.229 29.0418 231.429 29.0418ZM434.447 43.9743C412.171 44.776 394.163 44.9765 381.225 44.5756C380.424 44.5756 380.024 44.0745 379.224 43.7739C380.024 43.4732 380.958 42.9721 381.758 42.7717C389.761 42.3708 397.765 41.9699 405.635 41.7695C415.239 42.6715 424.976 40.7673 434.98 42.3708C435.781 42.3708 436.181 42.8719 437.114 43.1725C436.581 43.4732 435.781 43.9743 434.447 43.9743ZM309.595 32.0483C306.66 32.0483 303.325 32.2488 300.791 31.6475C295.856 30.5451 291.187 31.5473 286.118 31.9481C282.783 32.4492 278.248 30.8457 276.114 28.7411C274.513 27.2379 274.113 25.434 274.247 23.63C273.846 21.8261 276.514 19.6213 279.049 19.3206C284.918 18.6191 290.787 18.2182 296.256 20.0222C303.725 22.4274 311.729 22.227 318.932 20.0222C323.6 18.8195 328.269 18.3184 333.205 19.9219C334.005 20.2226 334.805 20.423 336.139 20.423C341.208 21.2248 346.143 21.6256 350.812 20.3228C359.215 18.118 367.752 16.9154 376.956 17.3163C379.09 17.3163 381.091 17.1158 382.825 17.1158C386.96 17.1158 390.828 17.5167 394.03 19.3206C399.365 22.227 406.035 23.3293 413.238 22.9285C415.372 22.728 416.973 22.9285 419.107 23.0287C423.242 23.0287 426.977 23.9307 430.312 24.9328C433.246 26.0352 436.181 26.0352 438.715 25.0331C445.118 22.8283 451.787 22.4274 458.857 23.0287C460.591 23.0287 462.592 23.8304 464.192 24.3315C465.927 24.8326 467.527 25.935 467.394 27.1376C467.794 28.1398 466.46 29.142 464.326 29.6431C460.591 30.3446 456.723 31.0461 452.854 32.0483C447.786 33.2509 443.117 32.9503 438.582 31.6475C435.647 30.8457 433.113 30.8457 430.178 31.5472C428.444 32.0483 426.443 32.0483 424.709 32.5494C416.039 30.4448 407.102 31.0462 398.298 31.2466C368.686 31.7477 338.94 31.3468 309.595 32.0483Z" fill="#00659E"/>
</g>
<defs>
<clipPath id="clip0">
<rect width="1920" height="102" fill="white" transform="translate(1920 102) rotate(180)"/>
</clipPath>
</defs>
</svg>
