<svg width="1439" height="93" viewBox="0 0 1439 93" fill="none" xmlns="http://www.w3.org/2000/svg">
<path d="M1407.4 19.8C1399.2 19.9 1391.1 19.5 1382.9 19.6C1379.8 19.6 1376.9 19 1374.1 18.4C1371.9 17.9 1369.7 17.6 1367.5 17.5C1360 17.4 1352.4 17.5 1345.2 17.4C1337.7 17.3 1330.4 17.4 1322.9 15.5C1320.1 14.7 1317 14.9 1314.1 15.1C1300.6 15.1 1287.1 14.7 1273.9 15.2C1267.9 15.4 1262 15.3 1256.3 13.4C1254.1 12.9 1251.9 12.6 1249.7 12.5C1241.5 12.4 1233.4 12.5 1225.2 12.6C1217.7 12.7 1210.1 12.9 1202.9 13C1196.9 13.2 1191 12.8 1185 11.4C1180.6 10.3 1176.2 10.5 1171.5 10.9C1167.7 11.1 1164.2 12.3 1160.8 12.8C1156.4 13.2 1152 10.9 1147.7 11.1C1144.6 11.1 1141.7 11 1138.6 11C1132.6 10.9 1126.7 11.1 1120.7 11C1116.9 10.9 1113.2 10.6 1109.7 9.79996C1106.9 8.99996 1103.8 8.69996 1100.9 8.89996C1082.3 9.39996 1063.5 8.29996 1045 9.29996C1042.8 9.49996 1040.6 9.49996 1038.4 8.89996C1034.6 8.09996 1031.2 7.99996 1027.4 8.49996C1026.8 8.49996 1025.8 8.19996 1025.2 8.19996C1022.4 7.39996 1019.6 7.59996 1016.4 8.59996C1010.7 10.3 1004.7 10.7 998.8 8.59996C994.5 6.99996 990 7.39996 985.6 7.39996C981.8 7.29996 978.1 7.49996 974.6 8.69996C969.5 10.7 964.8 10.6 959.5 9.19996C956.7 8.39996 953.5 8.59996 950.7 8.49996C941 8.59996 931.2 8.69996 921.5 8.99996C914.9 9.09996 908 8.99996 901.8 6.89996C899 6.09996 895.8 6.29996 893 7.29996C889.5 8.49996 885.7 8.99996 882 8.09996C880.4 7.79996 879.2 7.79996 877.6 8.29996C872.5 9.79996 867.2 9.69996 862.2 7.99996C859.4 7.19996 856.3 7.09996 853.4 7.29996C849.6 7.79996 846.1 8.99996 842.7 9.39996C838.3 10.1 833.9 7.49996 829.5 7.89996C825.1 8.29996 820.7 8.79996 816.3 9.49996C811.9 8.69996 807.5 7.79996 803.1 7.99996C802.5 7.99996 801.5 7.99996 800.9 7.99996C771 8.49996 741.2 9.09996 711.3 9.39996C708.1 9.29996 705.3 8.99996 702.5 8.49996C700.9 8.19996 699.7 8.19996 698.1 8.69996C692.7 9.39996 689.3 9.79996 685.5 9.79996C681.1 9.69996 676.4 9.89996 672 9.59996C669.8 9.59996 667.6 8.99996 665.4 8.69996C663.8 8.39996 662.6 8.09996 661 8.59996C655.9 10.3 650.9 10.7 645.5 10.6C636.4 10.7 627.6 10.6 618.5 10.4C616.3 10.4 614.1 10.1 611.9 9.49996C606.9 8.19996 601.6 7.79996 596.6 7.69996C590 7.79996 583.1 7.99996 576.5 7.89996C573.7 7.89996 570.5 7.79996 567.7 6.99996C561.1 5.59996 554.6 4.99996 547.6 5.19996C534.1 5.49996 520.6 5.29996 507.4 6.09996C504.6 6.29996 501.4 6.29996 498.6 6.19996C493.3 5.89996 488.2 5.99996 482.9 6.19996C479.1 6.39996 475.4 6.29996 471.6 6.49996C468.4 6.39996 465.6 5.89996 462.8 5.09996C456.3 2.69996 449.7 3.39996 443 4.99996C441.7 5.49996 440.1 5.99996 438.9 6.19996C436 6.89996 432.9 7.09996 430.1 6.59996C427.9 6.59996 426.1 5.49996 423.8 5.49996C415 5.39996 405.9 3.89996 397.1 4.79996C392.4 4.99996 388 4.89996 383.6 4.79996C381.4 4.79996 379.2 4.19996 377 3.69996C373.9 2.89996 371 3.39996 368.2 4.29996C366 4.99996 363.8 4.99996 361.6 4.69996C359.4 4.39996 357.2 3.89996 355 4.59996C349.9 5.99996 344.6 5.69996 339.6 6.09996C333.6 6.49996 327.7 6.39996 322 4.79996C319.2 3.99996 316 4.19996 313.2 4.09996C294.7 4.09996 275.8 4.29996 257.3 4.19996C252 4.09996 246.9 3.99996 241.6 2.69996C239.4 2.19996 237.2 1.89996 235 2.09996C211.1 2.49996 187.2 1.79996 163.4 2.69996C154.6 3.09996 145.5 2.89996 136.4 2.99996C133.3 2.89996 130.4 2.89996 127.6 2.09996C122.6 0.499962 117.6 0.0999622 112.2 0.299962C87.7 0.699962 62.9 1.29996 38.3 2.19996C27.3 2.79996 16.3 3.09996 5 2.89996C3 2.79996 1 2.79996 -1 2.79996V93H1440.5V19.8C1429.5 19.6 1418.3 19.5 1407.4 19.8ZM1123 21.5C1120.8 21.2 1120.5 20.4 1122.4 19.7C1123 19.5 1124 19.7 1124.6 20C1124.9 20 1124.9 20.8 1125.2 21C1124.3 21.3 1123.6 21.8 1123 21.5ZM1403.9 30.4C1402.3 30.4 1401.1 30.1 1399.9 29.3C1401.2 28.3 1402.4 28.1 1404 28.1C1405.6 27.9 1406.8 28.1 1408.1 29.2C1406.8 29.9 1405.5 30.4 1403.9 30.4Z" fill="#00659E"/>
</svg>
