<svg width="1439" height="99" viewBox="0 0 1439 99" fill="none" xmlns="http://www.w3.org/2000/svg">
<path d="M1194.1 56.1C1196.3 56.1 1198.5 56.2 1200.7 56.5C1205.1 57.6 1209.1 58.4 1213.9 58.2C1240.6 57.6 1267.7 56.8 1294.4 56.7C1328.7 56.5 1362.9 55 1397.5 54.8C1411 54.8 1424.2 53.9 1437.8 53.4C1438.3 53.4 1438.9 53.4 1439.4 53.3L1439.4 0L0 0L0 84.2C0.4 84.3 0.7 84.4 1.1 84.5C3.3 85.1 5.5 84.8 7.7 84.9C19.6 85 31.5 85 43.5 84.9C46.3 85 49.5 84.7 52.3 85.6C58.8 87.5 65.4 87.4 72.4 87.2C85 87.2 97.9 87.1 110.4 87.1C114.2 87.2 117.9 87 121.4 88C125.8 89.1 130.2 89.4 134.6 89.5C143.7 89.6 152.5 89.5 161.6 89.7C164.4 89.7 167.6 89.8 170.4 90.4C175.4 91.8 180.7 91.8 185.7 91.9C197 92.1 208 92 219.3 91.9C225.3 92 231.2 92.1 237.2 93.5C240.6 94.3 244.7 94.4 248.2 94.2C257.9 94.1 267.7 94 277.4 93.6C280.5 93.7 283.4 93.2 286.2 92.2C291.9 89.7 297.6 89.3 303.2 92C305.1 92.8 307.6 93.1 309.8 93.1C313.6 93.2 317.3 93 321.1 93.3C323.3 93.3 325.8 93.4 327.7 94.2C333.3 96.1 339.3 95.9 345.2 96C363.1 95.8 381 95.6 399 95.3C405 95.1 410.9 95.2 416.9 96.9C419.1 97.4 421.3 97.5 423.5 97.5C441.2 97 459.1 97 477 97C493.3 97 509.7 96 526.3 96C532.9 96.1 539.8 96 546.4 97.6C548.6 98.1 550.8 98.2 553 98.2C567.1 98.7 581.3 98.7 595.7 98.4C621.8 97.8 647.9 96.4 674 96.6C676.8 96.6 680 96.2 682.8 96.2C695.4 95.9 708.3 95.3 720.8 95.5C730.5 95.7 740.3 95.6 750 95.2C765.1 94.9 779.9 94.7 794.9 94.4C798 94.4 800.9 94.5 803.7 95.1C805.3 95.4 806.5 95.6 808.1 95.2C814.1 93.5 819.8 94.1 825.7 95.7C829.1 96.5 832.9 96.8 836.3 98.2C839.4 99.5 842.3 98.5 844.2 96.5C846.8 93.7 850 93 854 93.1C858.4 93.2 862.8 93 867.2 94.1C871.6 95.2 876 95.8 880.3 96.6C881.9 96.9 883.1 97.2 884.7 96.7C888.2 95.5 892 95 895.7 94.8C905.4 94.7 915.2 94.6 924.9 94.5C927.1 94.5 929.3 94.6 931.5 94.6C937.2 94.2 940.3 94.2 944.5 88.9C945.5 87.6 946.7 87.2 948.3 87.7C953.9 89.1 959.5 90.7 965.8 90.3C970.5 89.9 974.6 91.2 978 93.8C979.5 95.1 981.7 95.7 984 94.4C984.6 94.1 985.3 93.9 985.9 93.7C988.1 93 990.3 92.7 992.5 93.6C998.1 95.5 1003.7 96.3 1010 96.2C1025.1 95.9 1039.9 95.9 1055 95.7C1058.8 95.8 1062.5 96.3 1065.9 97.4C1068.1 98.2 1070.3 98 1072.5 97.2C1078.9 94.8 1085.4 94.9 1092.3 96.5C1093.9 96.8 1095.1 97.3 1096.7 97.3C1098.3 97.3 1099.8 97.6 1101.1 97.1C1103.9 96.4 1106.8 95.1 1109.7 94.7C1117.9 94.1 1126.1 93.9 1134.2 95.6C1142.3 97.3 1150.5 97.1 1158.4 95C1166.3 92.8 1174.5 92.7 1182.6 94.6C1187 95.7 1191.4 95.5 1195.8 94.8C1196.4 94.8 1197.1 94.3 1198 94.3C1199.6 94.1 1200.8 93.6 1202.4 93.3C1204.9 92.8 1207.1 93.9 1208.3 95.2C1211.4 98.8 1215.4 99.1 1220.2 98.5C1221.8 98.3 1223 98 1224.6 97.5C1230.3 95.5 1236.3 94.9 1242 94.7C1246.4 94.5 1250.8 94.3 1255.5 94.4C1279.4 94.8 1303.3 94.1 1327.2 93C1331 92.8 1334.7 92.9 1338.5 93.2C1339.8 93.2 1341.6 94 1342.2 94.8C1344.6 98.2 1347.8 98 1351.6 96.7C1357.3 95 1363.3 95.1 1369 93.2C1373.1 91.7 1377.8 92.1 1382.2 93.4C1385.9 94.5 1389.4 94.8 1392.9 93.3C1395.4 92.3 1398.6 91.6 1401.4 91.4C1403.6 91.2 1405.8 91.2 1408 91.3C1418.4 91.1 1428.8 90.9 1439.2 90.6V58.5C1433.9 57.6 1428.6 57.9 1423.3 57.8C1419.5 57.7 1416 58.7 1412.6 59.7C1409.1 60.9 1405.3 61.1 1401.6 60C1397.8 59.2 1394.4 58.6 1390.9 59.8C1388 60.8 1385.2 61.2 1382.1 61.2C1377.7 61.4 1373.3 61.3 1368.6 61.5V61.8C1364.8 62 1361.1 61.9 1357.3 62.1C1353.5 62.3 1349.8 62 1346.3 60.9C1344.1 60.4 1341.9 61.1 1339.7 61.3C1338.1 61.5 1336.5 62 1335.3 61.5C1328.8 59.1 1322.1 59.8 1315.5 59.9C1296 60.1 1276.5 60.3 1257.3 60.7C1247.6 60.8 1237.8 61.7 1228.4 61.5C1218.7 61.3 1208.9 61.4 1199.2 61.3C1197 61.3 1194.8 61 1193 59.7C1191.8 58.7 1191.2 57.6 1192.1 56.9C1192.9 56.4 1193.5 56.1 1194.1 56.1ZM1007.6 86.8C1004.1 88 1000.6 88.2 996.9 87.4C995.3 87.1 994.7 85.8 994.4 84.8C994.4 83.5 995.1 82.5 996.4 82C998.3 81.3 1000.8 81.3 1002.7 81.8C1005.2 82.6 1007.7 83.7 1010.2 84.5C1009.9 85.5 1008.9 86.5 1007.6 86.8ZM1074.6 72.8C1073.9 73.3 1073.6 73.8 1073 74.1C1067.9 76.8 1062.5 79 1056.5 79.2C1051.1 79.4 1046.1 79.5 1041.3 81.8C1040.7 82 1039.7 82.3 1039.1 82.3C1033.8 81.2 1029 84.2 1023.7 84.1C1019.3 84 1014.9 84.5 1010.5 84.6C1010.2 83.6 1009.9 82.6 1009.6 81.5C1009 80.2 1006.6 78.1 1005 78.1C1002.8 78.1 1000.6 77.8 998.4 77.7C990.2 77.8 982.1 77.9 973.9 78.1C970.8 78.1 967.9 77.5 965.1 76.4C958.6 73.7 952 74.7 945.6 76.1C941.8 78.1 937.4 78.5 932.7 78.7C924.5 78.8 916.3 79 908.2 79.3C902.9 79.5 897.9 78.1 893.2 76C891.3 75.2 891.1 73.2 892.7 71.4C893.7 70.4 894.9 69.9 896.5 69.4C899.3 68.7 902.5 68.5 905.3 69C907.5 69.3 909.7 69.8 911.9 70.4C915.3 71.5 919.1 72.3 922.9 72.1C936.4 71.8 949.9 71.8 963.1 71.5C966.9 71.3 970.7 70.6 973.8 69.4C975.4 68.9 976.7 68.7 978.2 69.5C981.6 70.8 985.4 70.9 989.1 71.5C1000.7 73.7 1000.7 73.7 1008.8 73.6C1011 73.6 1013.5 73.4 1015.4 74C1020.1 75.6 1023.8 75.2 1027.4 72.2C1028.4 71.4 1030.2 71.5 1031.5 71.2C1032.1 71.2 1033.1 71.5 1033.7 71.5C1037.5 72.3 1040.9 72.4 1044.7 71.2C1046 70.7 1047.5 70.2 1048.8 70C1050.4 69.8 1051.6 69.5 1053.2 69.6C1053.8 69.6 1054.8 69.6 1055.4 69.9C1058.2 70.2 1061 72 1064.2 71.6C1067 71.1 1069.9 70.2 1072.7 69.7C1073.3 69.4 1074.3 69.7 1074.6 70.2C1075.9 70.5 1075.9 71.5 1074.6 72.8ZM1311.2 71.8C1319.4 71.2 1327.6 70.5 1335.7 70.7C1347 70.9 1358 70.3 1370.3 70C1384.1 69.2 1398.9 69.4 1413.7 68.4C1416.5 68.2 1419.7 68.5 1422.5 68.5C1423.1 68.5 1424.4 69 1424.4 69.3C1424.7 70.3 1423.7 71.3 1422.1 71.6C1419.3 72.3 1416.4 73 1413.9 74C1412 74.7 1409.8 75.5 1407.6 75.4C1402.6 75.6 1397.2 75.7 1391.9 75.7C1390.3 75.7 1388.8 75.4 1387.5 74.9C1383.8 73.3 1380.3 73.5 1377.1 75.2C1375.2 76.2 1372.7 76.4 1370.8 75.3C1367.4 74 1363.9 72.9 1360.2 73.1C1350.5 73.4 1341 73.8 1331.3 73.9C1324.7 74 1317.8 73.9 1311.2 73.3C1310.6 73.3 1309.9 72.8 1309.3 72.5C1309.9 72.3 1310.6 71.8 1311.2 71.8ZM1265.9 72.8C1274.7 71.9 1283.5 71.8 1292.3 71.4C1294.5 71.4 1296.7 71.5 1298.5 72.8C1299.1 73.1 1295.6 74.5 1293.1 74.5C1292.5 74.5 1291.5 74.5 1290.9 74.5C1287.1 74.7 1283.3 74.6 1279.3 74.8C1275.2 74.7 1270.8 74.7 1266.4 74.3C1265.8 74.3 1265.1 73.8 1264.5 73.5C1265 73.3 1265.3 72.8 1265.9 72.8ZM1113.7 57.9C1130.4 57.1 1143.9 56.9 1153.6 57.3C1154.2 57.3 1154.5 57.8 1155.1 58.1C1154.5 58.4 1153.8 58.9 1153.2 59.1C1147.2 59.5 1141.2 59.9 1135.3 60.1C1128.1 59.2 1120.8 61.1 1113.3 59.5C1112.7 59.5 1112.4 59 1111.7 58.7C1112.1 58.4 1112.7 57.9 1113.7 57.9ZM1207.3 69.8C1209.5 69.8 1212 69.6 1213.9 70.2C1217.6 71.3 1221.1 70.3 1224.9 69.9C1227.4 69.4 1230.8 71 1232.4 73.1C1233.6 74.6 1233.9 76.4 1233.8 78.2C1234.1 80 1232.1 82.2 1230.2 82.5C1225.8 83.2 1221.4 83.6 1217.3 81.8C1211.7 79.4 1205.7 79.6 1200.3 81.8C1196.8 83 1193.3 83.5 1189.6 81.9C1189 81.6 1188.4 81.4 1187.4 81.4C1183.6 80.6 1179.9 80.2 1176.4 81.5C1170.1 83.7 1163.7 84.9 1156.8 84.5C1155.2 84.5 1153.7 84.7 1152.4 84.7C1149.3 84.7 1146.4 84.3 1144 82.5C1140 79.6 1135 78.5 1129.6 78.9C1128 79.1 1126.8 78.9 1125.2 78.8C1122.1 78.8 1119.3 77.9 1116.8 76.9C1114.6 75.8 1112.4 75.8 1110.5 76.8C1105.7 79 1100.7 79.4 1095.4 78.8C1094.1 78.8 1092.6 78 1091.4 77.5C1090.1 77 1088.9 75.9 1089 74.7C1088.7 73.7 1089.7 72.7 1091.3 72.2C1094.1 71.5 1097 70.8 1099.9 69.8C1103.7 68.6 1107.2 68.9 1110.6 70.2C1112.8 71 1114.7 71 1116.9 70.3C1118.2 69.8 1119.7 69.8 1121 69.3C1127.5 71.4 1134.2 70.8 1140.8 70.6C1163 70.1 1185.3 70.5 1207.3 69.8Z" fill="#F5F5F5"/>
</svg>
