<svg width="1440" height="93" viewBox="0 0 1440 93" fill="none" xmlns="http://www.w3.org/2000/svg">
<path d="M1408.4 19.8C1400.2 19.9 1392.1 19.5 1383.9 19.6C1380.8 19.6 1377.9 19 1375.1 18.4C1372.9 17.9 1370.7 17.6 1368.5 17.5C1361 17.4 1353.4 17.5 1346.2 17.4C1338.7 17.3 1331.4 17.4 1323.9 15.5C1321.1 14.7 1318 14.9 1315.1 15.1C1301.6 15.1 1288.1 14.7 1274.9 15.2C1268.9 15.4 1263 15.3 1257.3 13.4C1255.1 12.9 1252.9 12.6 1250.7 12.5C1242.5 12.4 1234.4 12.5 1226.2 12.6C1218.7 12.7 1211.1 12.9 1203.9 13C1197.9 13.2 1192 12.8 1186 11.4C1181.6 10.3 1177.2 10.5 1172.5 10.9C1168.7 11.1 1165.2 12.3 1161.8 12.8C1157.4 13.2 1153 10.9 1148.7 11.1C1145.6 11.1 1142.7 11 1139.6 11C1133.6 10.9 1127.7 11.1 1121.7 11C1117.9 10.9 1114.2 10.6 1110.7 9.79996C1107.9 8.99996 1104.8 8.69996 1101.9 8.89996C1083.3 9.39996 1064.5 8.29996 1046 9.29996C1043.8 9.49996 1041.6 9.49996 1039.4 8.89996C1035.6 8.09996 1032.2 7.99996 1028.4 8.49996C1027.8 8.49996 1026.8 8.19996 1026.2 8.19996C1023.4 7.39996 1020.6 7.59996 1017.4 8.59996C1011.7 10.3 1005.7 10.7 999.8 8.59996C995.5 6.99996 991 7.39996 986.6 7.39996C982.8 7.29996 979.1 7.49996 975.6 8.69996C970.5 10.7 965.8 10.6 960.5 9.19996C957.7 8.39996 954.5 8.59996 951.7 8.49996C942 8.59996 932.2 8.69996 922.5 8.99996C915.9 9.09996 909 8.99996 902.8 6.89996C900 6.09996 896.8 6.29996 894 7.29996C890.5 8.49996 886.7 8.99996 883 8.09996C881.4 7.79996 880.2 7.79996 878.6 8.29996C873.5 9.79996 868.2 9.69996 863.2 7.99996C860.4 7.19996 857.3 7.09996 854.4 7.29996C850.6 7.79996 847.1 8.99996 843.7 9.39996C839.3 10.1 834.9 7.49996 830.5 7.89996C826.1 8.29996 821.7 8.79996 817.3 9.49996C812.9 8.69996 808.5 7.79996 804.1 7.99996C803.5 7.99996 802.5 7.99996 801.9 7.99996C772 8.49996 742.2 9.09996 712.3 9.39996C709.1 9.29996 706.3 8.99996 703.5 8.49996C701.9 8.19996 700.7 8.19996 699.1 8.69996C693.7 9.39996 690.3 9.79996 686.5 9.79996C682.1 9.69996 677.4 9.89996 673 9.59996C670.8 9.59996 668.6 8.99996 666.4 8.69996C664.8 8.39996 663.6 8.09996 662 8.59996C656.9 10.3 651.9 10.7 646.5 10.6C637.4 10.7 628.6 10.6 619.5 10.4C617.3 10.4 615.1 10.1 612.9 9.49996C607.9 8.19996 602.6 7.79996 597.6 7.69996C591 7.79996 584.1 7.99996 577.5 7.89996C574.7 7.89996 571.5 7.79996 568.7 6.99996C562.1 5.59996 555.6 4.99996 548.6 5.19996C535.1 5.49996 521.6 5.29996 508.4 6.09996C505.6 6.29996 502.4 6.29996 499.6 6.19996C494.3 5.89996 489.2 5.99996 483.9 6.19996C480.1 6.39996 476.4 6.29996 472.6 6.49996C469.4 6.39996 466.6 5.89996 463.8 5.09996C457.3 2.69996 450.7 3.39996 444 4.99996C442.7 5.49996 441.1 5.99996 439.9 6.19996C437 6.89996 433.9 7.09996 431.1 6.59996C428.9 6.59996 427.1 5.49996 424.8 5.49996C416 5.39996 406.9 3.89996 398.1 4.79996C393.4 4.99996 389 4.89996 384.6 4.79996C382.4 4.79996 380.2 4.19996 378 3.69996C374.9 2.89996 372 3.39996 369.2 4.29996C367 4.99996 364.8 4.99996 362.6 4.69996C360.4 4.39996 358.2 3.89996 356 4.59996C350.9 5.99996 345.6 5.69996 340.6 6.09996C334.6 6.49996 328.7 6.39996 323 4.79996C320.2 3.99996 317 4.19996 314.2 4.09996C295.7 4.09996 276.8 4.29996 258.3 4.19996C253 4.09996 247.9 3.99996 242.6 2.69996C240.4 2.19996 238.2 1.89996 236 2.09996C212.1 2.49996 188.2 1.79996 164.4 2.69996C155.6 3.09996 146.5 2.89996 137.4 2.99996C134.3 2.89996 131.4 2.89996 128.6 2.09996C123.6 0.499962 118.6 0.0999622 113.2 0.299962C88.7 0.699962 63.9 1.29996 39.3 2.19996C28.3 2.79996 17.3 3.09996 6 2.89996C4 2.79996 2 2.79996 0 2.79996V93H1441.5V19.8C1430.5 19.6 1419.3 19.5 1408.4 19.8ZM1124 21.5C1121.8 21.2 1121.5 20.4 1123.4 19.7C1124 19.5 1125 19.7 1125.6 20C1125.9 20 1125.9 20.8 1126.2 21C1125.3 21.3 1124.6 21.8 1124 21.5ZM1404.9 30.4C1403.3 30.4 1402.1 30.1 1400.9 29.3C1402.2 28.3 1403.4 28.1 1405 28.1C1406.6 27.9 1407.8 28.1 1409.1 29.2C1407.8 29.9 1406.5 30.4 1404.9 30.4Z" fill="#F5F5F5"/>
</svg>
