<svg xmlns="http://www.w3.org/2000/svg" width="1440" height="93" viewBox="0 0 1440 93" fill="none"  xmlns:xlink="http://www.w3.org/1999/xlink" preserveAspectRatio="xMinYMin meet"><rect id="svgEditorBackground" x="0" y="0" width="1440" height="93" style="fill:none;stroke:none"/>
<path d="M31.6001,73.2002C39.8001,73.1002,47.9001,73.5002,56.1001,73.4002C59.2001,73.4002,62.1001,74.0002,64.9001,74.6002C67.1001,75.1002,69.3002,75.4002,71.5001,75.5002C79.0001,75.6002,86.6002,75.5002,93.8002,75.6002C101.3,75.7002,108.6,75.6002,116.1,77.5002C118.9,78.3002,122,78.1002,124.9,77.9002C138.4,77.9002,151.9,78.3002,165.1,77.8002C171.1,77.6002,177,77.7002,182.7,79.6002C184.9,80.1002,187.1,80.4002,189.3,80.5002C197.5,80.6002,205.6,80.5002,213.8,80.4002C221.3,80.3002,228.9,80.1002,236.1,80.0002C242.1,79.8002,248,80.2002,254,81.6002C258.4,82.7002,262.8,82.5002,267.5,82.1002C271.3,81.9002,274.8,80.7002,278.2,80.2002C282.6,79.8002,287,82.1002,291.3,81.9002C294.4,81.9002,297.3,82.0002,300.4,82.0002C306.4,82.1002,312.3,81.9002,318.3,82.0002C322.1,82.1002,325.8,82.4002,329.3,83.2002C332.1,84.0002,335.2,84.3002,338.1,84.1002C356.7,83.6002,375.5,84.7002,394,83.7002C396.2,83.5002,398.4,83.5002,400.6,84.1002C404.4,84.9002,407.8,85.0002,411.6,84.5002C412.2,84.5002,413.2,84.8002,413.8,84.8002C416.6,85.6002,419.4,85.4002,422.6,84.4002C428.3,82.7002,434.3,82.3002,440.2,84.4002C444.5,86.0002,449,85.6002,453.4,85.6002C457.2,85.7002,460.9,85.5002,464.4,84.3002C469.5,82.3002,474.2,82.4002,479.5,83.8002C482.3,84.6002,485.5,84.4002,488.3,84.5002C498,84.4002,507.8,84.3002,517.5,84.0002C524.1,83.9002,531,84.0002,537.2,86.1002C540,86.9002,543.2,86.7002,546,85.7002C549.5,84.5002,553.3,84.0002,557,84.9002C558.6,85.2002,559.8,85.2002,561.4,84.7002C566.5,83.2002,571.8,83.3002,576.8,85.0002C579.6,85.8002,582.7,85.9002,585.6,85.7002C589.4,85.2002,592.9,84.0002,596.3,83.6002C600.7,82.9002,605.1,85.5002,609.5,85.1002C613.9,84.7002,618.3,84.2002,622.7,83.5002C627.1,84.3002,631.5,85.2002,635.9,85.0002C636.5,85.0002,637.5,85.0002,638.1,85.0002C668,84.5002,697.8,83.9002,727.7,83.6002C730.9,83.7002,733.7,84.0002,736.5,84.5002C738.1,84.8002,739.3,84.8002,740.9,84.3002C746.3,83.6002,749.7,83.2002,753.5,83.2002C757.9,83.3002,762.6,83.1002,767,83.4002C769.2,83.4002,771.4,84.0002,773.6,84.3002C775.2,84.6002,776.4,84.9002,778,84.4002C783.1,82.7002,788.1,82.3002,793.5,82.4002C802.6,82.3002,811.4,82.4002,820.5,82.6002C822.7,82.6002,824.9,82.9002,827.1,83.5002C832.1,84.8002,837.4,85.2002,842.4,85.3002C849,85.2002,855.9,85.0002,862.5,85.1002C865.3,85.1002,868.5,85.2002,871.3,86.0002C877.9,87.4002,884.4,88.0002,891.4,87.8002C904.9,87.5002,918.4,87.7002,931.6,86.9002C934.4,86.7002,937.6,86.7002,940.4,86.8002C945.7,87.1002,950.8,87.0002,956.1,86.8002C959.9,86.6002,963.6,86.7002,967.4,86.5002C970.6,86.6002,973.4,87.1002,976.2,87.9002C982.7,90.3002,989.3,89.6002,996,88.0002C997.3,87.5002,998.9,87.0002,1000.1,86.8002C1003,86.1002,1006.1,85.9002,1008.9,86.4002C1011.1,86.4002,1012.9,87.5002,1015.2,87.5002C1024,87.6002,1033.1,89.1002,1041.9,88.2002C1046.6,88.0002,1051,88.1002,1055.4,88.2002C1057.6,88.2002,1059.8,88.8002,1062,89.3002C1065.1,90.1002,1068,89.6002,1070.8,88.7002C1073,88.0003,1075.2,88.0003,1077.4,88.30030000000001C1079.6,88.6003,1081.8,89.1003,1084,88.4003C1089.1,87.0003,1094.4,87.30030000000001,1099.4,86.9003C1105.4,86.5003,1111.3,86.6003,1117,88.2003C1119.8,89.0003,1123,88.8003,1125.8,88.9003C1144.3,88.9003,1163.2,88.7003,1181.7,88.8003C1187,88.9003,1192.1,89.0003,1197.4,90.30030000000001C1199.6,90.8003,1201.8,91.1003,1204,90.9003C1227.9,90.5003,1251.8,91.2003,1275.6,90.30030000000001C1284.4,89.9003,1293.5,90.1003,1302.6,90.0003C1305.7,90.1003,1308.6,90.1003,1311.4,90.9003C1316.4,92.5003,1321.4,92.9003,1326.8,92.7003C1351.3,92.30030000000001,1376.1,91.7003,1400.7,90.8003C1411.7,90.2003,1422.7,89.9003,1434,90.1003C1436,90.2003,1438,90.2003,1440,90.2003L1440,0.0002822880000000001L-1.49987,0.00015626800000000007L-1.49988,73.2002C9.50012,73.4002,20.7001,73.5002,31.6001,73.2002ZM316,71.5002C318.2,71.8002,318.5,72.6002,316.6,73.3002C316,73.5002,315,73.3002,314.4,73.0002C314.1,73.0002,314.1,72.2002,313.8,72.0002C314.7,71.7002,315.4,71.2002,316,71.5002ZM35.1001,62.6002C36.7001,62.6002,37.9001,62.9002,39.1001,63.7002C37.8001,64.7002,36.6001,64.9002,35.0001,64.9002C33.4001,65.1002,32.2002,64.9002,30.9001,63.8002C32.2002,63.1002,33.5001,62.6002,35.1001,62.6002Z" style="fill:#FFB820"/>
</svg>