<svg width="26" height="26" viewBox="0 0 26 26" fill="none" xmlns="http://www.w3.org/2000/svg">
<path d="M25.1875 13.0005H24.375V8.93803C24.375 8.48953 24.011 8.12553 23.5625 8.12553H22.75V5.68804C22.75 5.23954 22.386 4.87554 21.9375 4.87554H19.1896L17.7889 2.07404C17.5874 1.67104 17.0999 1.51016 16.6985 1.71004L14.8265 2.64766L14.5389 2.07404C14.3374 1.67266 13.8499 1.51016 13.4485 1.71166L7.12075 4.87554H2.4375C1.09362 4.87554 0 5.96916 0 7.31304V21.938C0 23.2819 1.09362 24.3755 2.4375 24.3755H23.5625C24.011 24.3755 24.375 24.0115 24.375 23.563V19.5005H25.1875C25.636 19.5005 26 19.1365 26 18.688V13.813C26 13.3645 25.636 13.0005 25.1875 13.0005ZM21.125 6.50054V8.12553H20.8146L20.0021 6.50054H21.125ZM16.6985 3.52841L18.9979 8.12553H17.5646L15.5529 4.10041L16.6985 3.52841ZM13.4485 3.52841L15.7479 8.12553H4.25425L13.4485 3.52841ZM2.4375 6.50054H3.87075L1.69 7.59091C1.6575 7.50153 1.625 7.41053 1.625 7.31304C1.625 6.86453 1.989 6.50054 2.4375 6.50054ZM22.75 22.7505H2.4375C1.989 22.7505 1.625 22.3865 1.625 21.938V9.59454C1.8915 9.69041 2.1645 9.75054 2.4375 9.75054H22.75V13.0005H19.5C17.7076 13.0005 16.25 14.4582 16.25 16.2505C16.25 18.0429 17.7076 19.5005 19.5 19.5005H22.75V22.7505ZM24.375 17.8755H19.5C18.6046 17.8755 17.875 17.1459 17.875 16.2505C17.875 15.3552 18.6046 14.6255 19.5 14.6255H24.375V17.8755Z" fill="#ACACAC"/>
</svg>
