<svg width="55" height="55" viewBox="0 0 55 55" fill="none" xmlns="http://www.w3.org/2000/svg">
<path d="M2.1657 22.9736L3.94793 23.9482L4.9227 25.7304C4.9967 25.8657 5.10575 25.9786 5.23841 26.0573C5.37106 26.1359 5.52243 26.1774 5.67664 26.1774C5.83085 26.1774 5.98223 26.1359 6.11488 26.0573C6.24753 25.9786 6.35658 25.8657 6.43059 25.7304L7.40525 23.9482L9.18746 22.9736C9.32276 22.8995 9.43564 22.7905 9.51428 22.6578C9.59292 22.5252 9.63442 22.3738 9.63442 22.2196C9.63442 22.0654 9.59292 21.914 9.51428 21.7814C9.43564 21.6487 9.32276 21.5397 9.18746 21.4657L7.40525 20.4909L6.43059 18.7087C6.35658 18.5734 6.24753 18.4605 6.11488 18.3819C5.98223 18.3032 5.83085 18.2617 5.67664 18.2617C5.52243 18.2617 5.37106 18.3032 5.23841 18.3819C5.10575 18.4605 4.9967 18.5734 4.9227 18.7087L3.94793 20.4909L2.1657 21.4657C2.03041 21.5397 1.91753 21.6487 1.83889 21.7814C1.76025 21.914 1.71875 22.0654 1.71875 22.2196C1.71875 22.3738 1.76025 22.5252 1.83889 22.6578C1.91753 22.7905 2.03041 22.8995 2.1657 22.9736ZM4.99351 21.878C5.13771 21.7992 5.25627 21.6806 5.33511 21.5364L5.67671 20.912L6.01817 21.5364C6.09701 21.6806 6.21557 21.7992 6.35978 21.878L6.98417 22.2196L6.35978 22.5611C6.21557 22.6399 6.09701 22.7585 6.01817 22.9027L5.67671 23.5271L5.33511 22.9027C5.25627 22.7585 5.13771 22.6399 4.99351 22.5611L4.36912 22.2196L4.99351 21.878Z" fill="#FFB820"/>
<path d="M11.4382 10.7275L13.2204 11.7021L14.195 13.4843C14.269 13.6196 14.3781 13.7325 14.5107 13.8112C14.6434 13.8898 14.7948 13.9313 14.949 13.9313C15.1032 13.9313 15.2546 13.8898 15.3872 13.8112C15.5199 13.7325 15.6289 13.6196 15.7029 13.4843L16.6777 11.7021L18.4599 10.7275C18.5952 10.6535 18.7081 10.5444 18.7867 10.4118C18.8654 10.2791 18.9069 10.1277 18.9069 9.97352C18.9069 9.81931 18.8654 9.66794 18.7867 9.53528C18.7081 9.40263 18.5952 9.29358 18.4599 9.21957L16.6777 8.2448L15.7029 6.46258C15.6289 6.32729 15.5199 6.2144 15.3872 6.13576C15.2546 6.05712 15.1032 6.01562 14.949 6.01562C14.7948 6.01562 14.6434 6.05712 14.5107 6.13576C14.3781 6.2144 14.269 6.32729 14.195 6.46258L13.2204 8.2448L11.4382 9.21957C11.3029 9.29358 11.19 9.40263 11.1113 9.53528C11.0327 9.66794 10.9912 9.81931 10.9912 9.97352C10.9912 10.1277 11.0327 10.2791 11.1113 10.4118C11.19 10.5444 11.3029 10.6535 11.4382 10.7275ZM14.266 9.63194C14.4102 9.5531 14.5287 9.43455 14.6076 9.29034L14.949 8.66595L15.2906 9.29034C15.3695 9.43454 15.488 9.5531 15.6322 9.63194L16.2566 9.97354L15.6322 10.315C15.488 10.3938 15.3695 10.5124 15.2906 10.6566L14.949 11.281L14.6076 10.6566C14.5287 10.5124 14.4102 10.3938 14.266 10.315L13.6416 9.97354L14.266 9.63194Z" fill="#FFB820"/>
<path d="M41.6797 29.2188H10.3125V30.9375H41.6797C42.0215 30.9379 42.3491 31.0738 42.5908 31.3155C42.8324 31.5571 42.9684 31.8848 42.9688 32.2266V36.0938H42.7539C41.6717 36.095 40.6341 36.5254 39.8688 37.2907C39.1036 38.056 38.6731 39.0935 38.6719 40.1758V40.3906H35.8033C35.995 39.988 36.0943 39.5475 36.0938 39.1016V36.5234C36.0929 35.726 35.7757 34.9615 35.2118 34.3976C34.6479 33.8337 33.8834 33.5165 33.0859 33.5156H30.5078C29.7104 33.5165 28.9458 33.8337 28.382 34.3976C27.8181 34.9615 27.5009 35.726 27.5 36.5234V39.1016C27.4995 39.5475 27.5987 39.988 27.7905 40.3906H26.4258C25.8037 40.3906 25.1899 40.5329 24.6314 40.8066C24.0728 41.0804 23.5842 41.4783 23.2031 41.9699C22.822 41.4783 22.3335 41.0804 21.7749 40.8066C21.2163 40.5329 20.6025 40.3906 19.9805 40.3906H18.6158C18.8075 39.988 18.9068 39.5475 18.9062 39.1016V36.5234C18.9054 35.726 18.5882 34.9615 18.0243 34.3976C17.4604 33.8337 16.6959 33.5165 15.8984 33.5156H13.3203C12.5229 33.5165 11.7583 33.8337 11.1945 34.3976C10.6306 34.9615 10.3134 35.726 10.3125 36.5234V39.1016C10.312 39.5475 10.4112 39.988 10.603 40.3906H7.73438V40.1758C7.73314 39.0935 7.30268 38.056 6.53742 37.2907C5.77215 36.5254 4.73459 36.095 3.65234 36.0938H3.4375V32.2266C3.43787 31.8848 3.5738 31.5571 3.81547 31.3155C4.05713 31.0738 4.3848 30.9379 4.72656 30.9375H8.59375V29.2188H4.72656C3.92912 29.2196 3.16458 29.5368 2.6007 30.1007C2.03682 30.6646 1.71964 31.4291 1.71875 32.2266V52.4219C1.71875 52.6498 1.80929 52.8684 1.97046 53.0295C2.13162 53.1907 2.3502 53.2812 2.57812 53.2812H6.875C7.10292 53.2812 7.32151 53.1907 7.48267 53.0295C7.64383 52.8684 7.73438 52.6498 7.73438 52.4219V50.7031H33.5156V48.9844H7.73438V47.2656H38.6719V48.9844H35.2344V50.7031H38.6719V52.4219C38.6719 52.6498 38.7624 52.8684 38.9236 53.0295C39.0847 53.1907 39.3033 53.2812 39.5312 53.2812H43.8281C44.056 53.2812 44.2746 53.1907 44.4358 53.0295C44.597 52.8684 44.6875 52.6498 44.6875 52.4219V32.2266C44.6866 31.4291 44.3694 30.6646 43.8055 30.1007C43.2417 29.5368 42.4771 29.2196 41.6797 29.2188ZM29.2188 39.1016V36.5234C29.2191 36.1817 29.3551 35.854 29.5967 35.6123C29.8384 35.3707 30.166 35.2347 30.5078 35.2344H33.0859C33.4277 35.2347 33.7554 35.3707 33.997 35.6123C34.2387 35.854 34.3746 36.1817 34.375 36.5234V39.1016C34.3746 39.4433 34.2387 39.771 33.997 40.0127C33.7554 40.2543 33.4277 40.3903 33.0859 40.3906H30.5078C30.166 40.3903 29.8384 40.2543 29.5967 40.0127C29.3551 39.771 29.2191 39.4433 29.2188 39.1016ZM12.0312 39.1016V36.5234C12.0316 36.1817 12.1676 35.854 12.4092 35.6123C12.6509 35.3707 12.9785 35.2347 13.3203 35.2344H15.8984C16.2402 35.2347 16.5679 35.3707 16.8095 35.6123C17.0512 35.854 17.1871 36.1817 17.1875 36.5234V39.1016C17.1871 39.4433 17.0512 39.771 16.8095 40.0127C16.5679 40.2543 16.2402 40.3903 15.8984 40.3906H13.3203C12.9785 40.3903 12.6509 40.2543 12.4092 40.0127C12.1676 39.771 12.0316 39.4433 12.0312 39.1016ZM6.01562 51.5625H3.4375V37.8125H3.65234C4.27891 37.8132 4.87961 38.0624 5.32266 38.5055C5.76571 38.9485 6.01492 39.5492 6.01562 40.1758V51.5625ZM7.73438 42.1094H19.9805C20.607 42.1101 21.2077 42.3593 21.6508 42.8023C22.0938 43.2454 22.343 43.8461 22.3438 44.4727V45.5469H7.73438V42.1094ZM24.0625 45.5469V44.4727C24.0632 43.8461 24.3124 43.2454 24.7555 42.8023C25.1985 42.3593 25.7992 42.1101 26.4258 42.1094H38.6719V45.5469H24.0625ZM42.9688 51.5625H40.3906V40.1758C40.3913 39.5492 40.6405 38.9485 41.0836 38.5055C41.5266 38.0624 42.1273 37.8132 42.7539 37.8125H42.9688V51.5625Z" fill="#00659E"/>
<path d="M53.2812 8.59375V2.57812C53.2812 2.3502 53.1907 2.13162 53.0295 1.97046C52.8684 1.80929 52.6498 1.71875 52.4219 1.71875H21.4844C21.2565 1.71875 21.0379 1.80929 20.8767 1.97046C20.7155 2.13162 20.625 2.3502 20.625 2.57812V27.5H22.3438V25.7812H51.5625V29.2188H46.4062V30.9375H51.5625V37.8125H46.4062V39.5312H51.5625V51.5625H46.4062V53.2812H52.4219C52.6498 53.2812 52.8684 53.1907 53.0295 53.0295C53.1907 52.8684 53.2812 52.6498 53.2812 52.4219V10.3125H51.5625V13.75H42.9688V3.4375H51.5625V8.59375H53.2812ZM41.25 13.75H32.6562V3.4375H41.25V13.75ZM22.3438 3.4375H30.9375V13.75H22.3438V3.4375ZM22.3438 15.4688H41.25V24.0625H22.3438V15.4688ZM51.5625 24.0625H48.125V15.4688H51.5625V24.0625ZM46.4062 15.4688V24.0625H42.9688V15.4688H46.4062Z" fill="#FFB820"/>
<path d="M24.0625 18.0469H25.7812V21.4844H24.0625V18.0469Z" fill="#FFB820"/>
<path d="M27.5 7.73438H29.2188V9.45312H27.5V7.73438Z" fill="#FFB820"/>
<path d="M34.375 7.73438H36.0938V9.45312H34.375V7.73438Z" fill="#FFB820"/>
<path d="M45.5469 10.3125H48.9844V12.0312H45.5469V10.3125Z" fill="#FFB820"/>
<path d="M46.4062 43.8281H48.125V47.2656H46.4062V43.8281Z" fill="#FFB820"/>
</svg>
