<svg width="55" height="55" viewBox="0 0 55 55" fill="none" xmlns="http://www.w3.org/2000/svg">
<g clip-path="url(#clip0)">
<path d="M52.0717 43.6049H50.056V37.0556C50.056 36.4581 49.5717 35.9739 48.9742 35.9739C48.3767 35.9739 47.8923 36.4582 47.8923 37.0556V43.6049H45.4656H45.4608H37.7263H37.7216H29.987H29.9833H22.2447H22.24H15.6535C14.4239 43.6049 13.4234 44.6061 13.4234 45.8368V51.0443H5.85234C4.20342 51.0443 2.86204 49.7046 2.86204 48.058C2.86204 46.4097 4.20342 45.0687 5.85234 45.0687H8.76713C10.1295 45.0687 11.2378 43.9624 11.2378 42.6025V16.1663H29.2393L21.3155 24.0831C21.064 24.3345 20.8531 24.5347 20.6669 24.7115C20.599 24.776 20.5347 24.8374 20.4729 24.897C20.4643 24.9051 20.4552 24.9123 20.4468 24.9207C20.4428 24.9247 20.4395 24.9291 20.4356 24.933C19.7141 25.6327 19.3886 26.0616 18.8678 27.4252C17.8169 30.1701 16.769 32.9149 15.7209 35.6604C15.4972 36.2476 15.6387 36.9123 16.0812 37.3537C16.3848 37.6566 16.7809 37.8161 17.1894 37.8161C17.3825 37.8161 17.5785 37.7805 17.7688 37.7074C20.5163 36.6607 23.2639 35.6139 26.0106 34.5643C27.3827 34.0413 27.8122 33.7145 28.5175 32.9872C28.5181 32.9866 28.519 32.9859 28.5196 32.9853C28.521 32.9839 28.5221 32.9824 28.5235 32.981C28.5911 32.9113 28.661 32.8381 28.7347 32.7605C28.9098 32.5762 29.1083 32.3673 29.3564 32.1189L44.9539 16.5395C46.7103 17.2762 47.8922 19.0099 47.8922 20.9448V27.4165C47.8922 28.014 48.3766 28.4983 48.9741 28.4983C49.5715 28.4983 50.0559 28.0139 50.0559 27.4165V20.9448C50.0559 18.4289 48.6819 16.1478 46.5662 14.929L48.3349 13.1624C48.3371 13.1602 48.3394 13.1585 48.3417 13.1563C48.3437 13.1542 48.3454 13.152 48.3475 13.1498L52.2819 9.2199C53.0441 8.45849 53.4633 7.44303 53.4626 6.36044C53.4618 5.27934 53.0422 4.26614 52.2823 3.50914L49.955 1.18098C48.3787 -0.393715 45.814 -0.393607 44.2379 1.18098L31.4048 14.0028H11.2377V12.9272C11.2377 11.5674 10.1293 10.4611 8.76702 10.4611H5.85234C3.01039 10.4611 0.698242 12.7713 0.698242 15.611V48.058C0.698242 50.8977 3.01039 53.2079 5.85234 53.2079H13.4671C13.6708 54.2284 14.5735 55 15.6536 55H24.0933C24.6908 55 25.1752 54.5156 25.1752 53.9182C25.1752 53.3208 24.6908 52.8365 24.0933 52.8365H15.6535C15.6205 52.8365 15.5871 52.8035 15.5871 52.7712V45.8369C15.5871 45.8024 15.62 45.7686 15.6535 45.7686H21.1673L21.1779 48.2544C21.1805 48.8503 21.6643 49.3316 22.2596 49.3316H22.2644C22.8618 49.329 23.3442 48.8426 23.3416 48.2451L23.331 45.7686H28.9086L28.9171 48.2535C28.9193 48.8497 29.4031 49.3316 29.9988 49.3316H30.0026C30.6001 49.3295 31.0828 48.8435 31.0808 48.2461L31.0723 45.7686H36.6488L36.6594 48.2543C36.662 48.8502 37.1458 49.3316 37.7412 49.3316H37.7459C38.3434 49.3291 38.8257 48.8426 38.8231 48.2452L38.8126 45.7686H44.388L44.3986 48.2543C44.4012 48.8502 44.8851 49.3316 45.4804 49.3316H45.4851C46.0826 49.3291 46.5649 48.8426 46.5623 48.2452L46.5518 45.7686H52.0716C52.1069 45.7686 52.138 45.8005 52.138 45.8369V52.7712C52.138 52.8054 52.1063 52.8365 52.0716 52.8365H33.7453C33.1478 52.8365 32.6634 53.3209 32.6634 53.9182C32.6634 54.5157 33.1478 55 33.7453 55H52.0717C53.3013 55 54.3018 54.0001 54.3018 52.7711V45.8368C54.3018 44.6062 53.3012 43.6049 52.0717 43.6049ZM32.6049 15.8622C32.6139 15.8535 32.6227 15.8447 32.6313 15.8358L41.0602 7.41435L42.787 9.13858L24.4832 27.4239L22.7575 25.7C22.7867 25.6711 22.8145 25.644 22.8447 25.6139L32.6049 15.8622ZM19.1992 32.6186L20.8134 34.2312C19.943 34.563 19.0731 34.8953 18.2022 35.2272C18.534 34.3577 18.867 33.488 19.1992 32.6186ZM25.2392 32.543C24.5026 32.8245 23.7656 33.1049 23.029 33.3861L20.0451 30.4052C20.3265 29.6694 20.607 28.9337 20.8887 28.1979C21.0468 27.7839 21.164 27.5068 21.2849 27.2872L26.1504 32.1477C25.9302 32.2683 25.6527 32.3854 25.2392 32.543ZM27.8274 30.5884C27.8271 30.5887 27.8268 30.589 27.8265 30.5893C27.7959 30.6199 27.7687 30.6478 27.7397 30.6771L26.0139 28.9532L44.3181 10.6674L46.0449 12.3916L27.8274 30.5884ZM45.7671 2.71164C46.1336 2.34533 46.6151 2.16228 47.0965 2.16228C47.5778 2.16228 48.059 2.34533 48.4251 2.7111L50.7536 5.04022C51.1049 5.3902 51.2986 5.85953 51.2989 6.36183C51.2992 6.86553 51.1052 7.33701 50.7528 7.68914L47.5758 10.8626L42.5908 5.88509L45.7671 2.71164ZM2.86193 15.611C2.86193 13.9643 4.20331 12.6246 5.85224 12.6246H8.76702C8.93342 12.6246 9.07403 12.7632 9.07403 12.9272V42.6024C9.07403 42.7665 8.93353 42.905 8.76702 42.905H5.85234C4.73838 42.905 3.70584 43.2603 2.86204 43.8631V15.611H2.86193Z" fill="#00659E"/>
<path d="M29.2399 16.1663L21.3155 24.0831C21.064 24.3345 20.8531 24.5347 20.6669 24.7115C20.599 24.776 20.5347 24.8374 20.4729 24.897C20.4643 24.9051 20.4552 24.9123 20.4468 24.9207C20.4428 24.9247 20.4395 24.9291 20.4356 24.933C19.7141 25.6327 19.3886 26.0616 18.8678 27.4252C17.8169 30.1701 16.769 32.9149 15.7209 35.6604C15.4972 36.2476 15.6387 36.9123 16.0812 37.3537C16.3849 37.6566 16.7809 37.8161 17.1894 37.8161C17.3825 37.8161 17.5785 37.7805 17.7688 37.7074C20.5163 36.6607 23.2639 35.6139 26.0106 34.5643C27.3827 34.0413 27.8122 33.7144 28.5175 32.9872L28.5197 32.9853L28.5235 32.981C28.5911 32.9113 28.661 32.8381 28.7347 32.7605C28.9098 32.5762 29.1083 32.3673 29.3564 32.1189L44.954 16.5395L46.5663 14.929L48.335 13.1624C48.3371 13.1602 48.3395 13.1585 48.3417 13.1563C48.3438 13.1542 48.3455 13.152 48.3475 13.1498L52.282 9.2199C53.0441 8.45849 53.4634 7.44303 53.4626 6.36044C53.4619 5.27934 53.0423 4.26614 52.2824 3.50914L49.9551 1.18098C48.3788 -0.393715 45.8141 -0.393607 44.238 1.18098L29.2399 16.1663ZM32.6049 15.8622C32.6139 15.8535 32.6227 15.8447 32.6313 15.8358L41.0603 7.41435L42.7871 9.13858L24.4832 27.4239L22.7575 25.7C22.7867 25.6711 22.8145 25.644 22.8447 25.6139L32.6049 15.8622ZM19.1992 32.6186L20.8134 34.2312C19.943 34.563 19.0731 34.8953 18.2022 35.2272C18.534 34.3577 18.867 33.488 19.1992 32.6186ZM25.2392 32.543C24.5026 32.8245 23.7656 33.1049 23.029 33.3861L20.0451 30.4052C20.3265 29.6694 20.607 28.9337 20.8887 28.1979C21.0469 27.7839 21.1641 27.5068 21.2849 27.2872L26.1504 32.1477C25.9303 32.2683 25.6527 32.3854 25.2392 32.543ZM27.8274 30.5884L27.8265 30.5893C27.796 30.6199 27.7687 30.6478 27.7397 30.6771L26.0139 28.9532L44.3181 10.6674L46.0449 12.3916L27.8274 30.5884ZM45.7672 2.71164C46.1337 2.34533 46.6151 2.16228 47.0966 2.16228C47.5779 2.16228 48.0591 2.34533 48.4252 2.7111L50.7537 5.04022C51.1049 5.3902 51.2986 5.85953 51.299 6.36183C51.2993 6.86553 51.1053 7.33701 50.7528 7.68914L47.5758 10.8626L42.5909 5.88509L45.7672 2.71164Z" fill="#FFB820"/>
<path d="M28.9175 52.8364H28.8992C28.3017 52.8364 27.8174 53.3208 27.8174 53.9182C27.8174 54.5156 28.3017 54.9999 28.8992 54.9999H28.9175C29.515 54.9999 29.9993 54.5155 29.9993 53.9182C29.9993 53.3208 29.515 52.8364 28.9175 52.8364Z" fill="#00659E"/>
<path d="M48.9744 31.1333C48.3769 31.1333 47.8926 31.6177 47.8926 32.215V32.2363C47.8926 32.8338 48.3769 33.318 48.9744 33.318C49.5719 33.318 50.0563 32.8337 50.0563 32.2363V32.215C50.0564 31.6177 49.5719 31.1333 48.9744 31.1333Z" fill="#00659E"/>
</g>
<defs>
<clipPath id="clip0">
<rect width="55" height="55" fill="white"/>
</clipPath>
</defs>
</svg>
