<svg width="55" height="55" viewBox="0 0 55 55" fill="none" xmlns="http://www.w3.org/2000/svg">
<path d="M8.59401 18.9062V21.9878L7.12695 23.4548L8.34232 24.6702L12.2095 20.803C12.3902 20.6223 12.6353 20.5208 12.8909 20.5208C13.1465 20.5208 13.3916 20.6223 13.5723 20.803C13.753 20.9837 13.8545 21.2288 13.8545 21.4844C13.8545 21.7399 13.753 21.985 13.5723 22.1658L9.70508 26.0329C9.62527 26.1127 9.56197 26.2075 9.51878 26.3117C9.47559 26.416 9.45336 26.5278 9.45336 26.6406C9.45336 26.7535 9.47559 26.8652 9.51878 26.9695C9.56197 27.0738 9.62527 27.1685 9.70508 27.2483C10.4544 27.9995 10.8752 29.0171 10.8752 30.0781C10.8752 31.1391 10.4544 32.1568 9.70508 32.9079L5.4082 37.2048L6.62357 38.4202L8.59401 36.4497V42.9688C8.59504 43.8801 8.95753 44.7539 9.60196 45.3983C10.2464 46.0427 11.1201 46.4052 12.0315 46.4062H31.7971V44.6875H16.3284V42.9688H31.7971V41.25H12.0315C11.5758 41.2495 11.139 41.0682 10.8168 40.746C10.4946 40.4238 10.3133 39.9869 10.3128 39.5312V34.731L10.9204 34.1233C11.8878 33.1555 12.4765 31.8732 12.5797 30.5087C12.6829 29.1442 12.2939 27.7879 11.4831 26.6856L14.7876 23.3811C15.2871 22.8773 15.5667 22.1962 15.5652 21.4868C15.5636 20.7773 15.2811 20.0974 14.7795 19.5958C14.2779 19.0941 13.5979 18.8116 12.8885 18.8101C12.1791 18.8086 11.4979 19.0882 10.9941 19.5876L10.3128 20.269V10.3125C10.3133 9.85682 10.4946 9.41997 10.8168 9.09776C11.139 8.77555 11.5758 8.59429 12.0315 8.59375H48.1253C48.5809 8.59429 49.0178 8.77555 49.34 9.09776C49.6622 9.41997 49.8435 9.85682 49.844 10.3125V34.375H51.5628V10.3125C51.5617 9.40113 51.1992 8.52739 50.5548 7.88295C49.9104 7.23852 49.0366 6.87602 48.1253 6.875H12.0315C11.1201 6.87602 10.2464 7.23852 9.60196 7.88295C8.95753 8.52739 8.59504 9.40113 8.59401 10.3125V17.1875H6.01589C5.10452 17.1885 4.23077 17.551 3.58634 18.1955C2.94191 18.8399 2.57941 19.7136 2.57839 20.625V28.0035L1.11133 29.4704L2.3267 30.6858L4.04545 28.9671C4.12525 28.8873 4.18855 28.7925 4.23173 28.6882C4.27492 28.584 4.29714 28.4722 4.29714 28.3594V20.625C4.29768 20.1693 4.47893 19.7325 4.80115 19.4103C5.12336 19.088 5.56021 18.9068 6.01589 18.9062H8.59401ZM12.0315 42.9688H14.6096V44.6875H12.0315C11.5758 44.687 11.139 44.5057 10.8168 44.1835C10.4946 43.8613 10.3133 43.4244 10.3128 42.9688V42.5068C10.8348 42.81 11.4278 42.9693 12.0315 42.9688Z" fill="#00659E"/>
<path d="M49.8444 36.0938C49.5517 36.0936 49.261 36.1436 48.9851 36.2416V36.0938C48.9854 35.6434 48.8677 35.2009 48.6437 34.8102C48.4197 34.4195 48.0972 34.0944 47.7083 33.8673C47.3195 33.6401 46.8779 33.5188 46.4276 33.5156C45.9773 33.5123 45.5339 33.6271 45.1418 33.8486C44.8292 33.3572 44.3591 32.9864 43.8085 32.7966C43.2578 32.6069 42.6591 32.6095 42.1101 32.8041V31.7969C42.1101 31.1131 41.8385 30.4574 41.355 29.9739C40.8715 29.4904 40.2157 29.2188 39.532 29.2188C38.8482 29.2188 38.1924 29.4904 37.7089 29.9739C37.2255 30.4574 36.9538 31.1131 36.9538 31.7969V39.0002L36.0538 39.4501C35.3349 39.8094 34.7229 40.3512 34.2792 41.0213C33.8354 41.6914 33.5755 42.4664 33.5255 43.2685C33.4755 44.0707 33.637 44.8719 33.994 45.592C34.351 46.3121 34.891 46.9257 35.5597 47.3715L37.9041 48.9345C38.1405 49.0915 38.3344 49.3046 38.4684 49.5547C38.6025 49.8048 38.6727 50.0842 38.6726 50.368V53.2812H40.3913V50.368C40.3917 49.8013 40.2519 49.2434 39.9844 48.7439C39.7169 48.2444 39.3299 47.8188 38.8581 47.5051L37.4294 46.5496L36.5129 45.9414C35.893 45.5286 35.4582 44.8908 35.3004 44.1629C35.1427 43.4351 35.2744 42.6744 35.6677 42.042C35.9464 41.5891 36.3467 41.2236 36.823 40.9871L36.9543 40.9215V43.8281H38.673V31.7969C38.673 31.569 38.7635 31.3504 38.9247 31.1892C39.0859 31.028 39.3045 30.9375 39.5324 30.9375C39.7603 30.9375 39.9789 31.028 40.1401 31.1892C40.3012 31.3504 40.3918 31.569 40.3918 31.7969V38.6719H42.1105V35.2344C42.1105 35.0065 42.201 34.7879 42.3622 34.6267C42.5234 34.4655 42.742 34.375 42.9699 34.375C43.1978 34.375 43.4164 34.4655 43.5775 34.6267C43.7387 34.7879 43.8293 35.0065 43.8293 35.2344V39.5312H45.548V36.0938C45.548 35.8658 45.6385 35.6472 45.7997 35.4861C45.9609 35.3249 46.1795 35.2344 46.4074 35.2344C46.6353 35.2344 46.8539 35.3249 47.015 35.4861C47.1762 35.6472 47.2668 35.8658 47.2668 36.0938V40.3906H48.9855V38.6719C48.9855 38.444 49.076 38.2254 49.2372 38.0642C49.3984 37.903 49.617 37.8125 49.8449 37.8125C50.0728 37.8125 50.2914 37.903 50.4525 38.0642C50.6137 38.2254 50.7043 38.444 50.7043 38.6719V41.7036C50.7015 44.0973 50.1442 46.4579 49.0763 48.6001C49.0164 48.7194 48.9852 48.8509 48.9851 48.9844V53.2812H50.7038V49.1844C51.832 46.8518 52.4195 44.2947 52.4226 41.7036V38.6719C52.4218 37.9884 52.1499 37.3331 51.6666 36.8497C51.1833 36.3664 50.528 36.0945 49.8444 36.0938Z" fill="#00659E"/>
<path d="M38.9266 15.9771C38.297 15.9771 37.6815 16.1638 37.158 16.5136C36.6345 16.8634 36.2264 17.3605 35.9855 17.9422C35.7445 18.5239 35.6815 19.164 35.8043 19.7816C35.9272 20.3991 36.2304 20.9663 36.6756 21.4115C37.1208 21.8567 37.688 22.1599 38.3055 22.2828C38.9231 22.4056 39.5632 22.3426 40.1449 22.1016C40.7266 21.8607 41.2237 21.4526 41.5735 20.9291C41.9233 20.4056 42.11 19.7901 42.11 19.1605C42.1091 18.3165 41.7734 17.5073 41.1766 16.9105C40.5798 16.3137 39.7706 15.978 38.9266 15.9771ZM38.9266 20.6252C38.6369 20.6252 38.3537 20.5393 38.1129 20.3783C37.872 20.2174 37.6843 19.9887 37.5734 19.721C37.4625 19.4534 37.4335 19.1589 37.4901 18.8747C37.5466 18.5906 37.6861 18.3296 37.8909 18.1248C38.0958 17.92 38.3567 17.7805 38.6409 17.7239C38.925 17.6674 39.2195 17.6964 39.4871 17.8073C39.7548 17.9182 39.9835 18.1059 40.1445 18.3468C40.3054 18.5876 40.3913 18.8708 40.3913 19.1605C40.3909 19.5488 40.2364 19.9211 39.9618 20.1957C39.6872 20.4703 39.3149 20.6248 38.9266 20.6252Z" fill="#FFB820"/>
<path d="M46.982 17.7153C47.1137 17.5964 47.2054 17.4396 47.2445 17.2665C47.2835 17.0934 47.268 16.9125 47.2001 16.7485L46.4822 15.0152C46.4151 14.8507 46.2982 14.7113 46.148 14.6164C45.9978 14.5215 45.8217 14.4758 45.6444 14.4858L44.0223 14.5685L43.5174 14.0636L43.6002 12.4416C43.6093 12.2643 43.5633 12.0886 43.4684 11.9386C43.3736 11.7886 43.2347 11.6716 43.0707 11.6037L41.3374 10.8859C41.1734 10.8179 40.9925 10.8023 40.8193 10.8414C40.6462 10.8804 40.4894 10.9721 40.3706 11.1039L39.2826 12.3091H38.5685L37.4808 11.1043C37.3619 10.9725 37.2051 10.8809 37.032 10.8418C36.8589 10.8028 36.678 10.8183 36.514 10.8862L34.7807 11.604C34.6167 11.6719 34.4778 11.7889 34.383 11.9389C34.2882 12.089 34.2422 12.2646 34.2513 12.4419L34.334 14.0639L33.8291 14.5688L32.2071 14.4861C32.0296 14.476 31.8535 14.5216 31.7033 14.6165C31.553 14.7114 31.4362 14.8509 31.3692 15.0155L30.6514 16.7488C30.5835 16.9128 30.568 17.0937 30.607 17.2668C30.646 17.44 30.7377 17.5967 30.8694 17.7156L32.0746 18.8036V19.5178L30.8698 20.6054C30.738 20.7243 30.6464 20.8811 30.6073 21.0542C30.5683 21.2273 30.5838 21.4082 30.6517 21.5722L31.3695 23.3056C31.4368 23.4699 31.5537 23.6092 31.7039 23.7041C31.854 23.799 32.03 23.8448 32.2074 23.835L33.8294 23.7522L34.3343 24.2571L34.2516 25.8792C34.2425 26.0564 34.2886 26.2321 34.3833 26.3821C34.4781 26.5321 34.617 26.6491 34.781 26.7171L36.5143 27.435C36.6783 27.5029 36.8593 27.5183 37.0324 27.4793C37.2055 27.4402 37.3622 27.3485 37.4811 27.2168L38.5691 26.0117H39.2833L40.3712 27.2168C40.4901 27.3485 40.6469 27.4402 40.82 27.4793C40.9931 27.5183 41.1741 27.5029 41.338 27.435L43.0714 26.7171C43.2354 26.6492 43.3743 26.5322 43.4691 26.3821C43.5639 26.2321 43.6099 26.0564 43.6009 25.8792L43.518 24.2571L44.0229 23.7522L45.645 23.835C45.8223 23.8444 45.9981 23.7985 46.1482 23.7037C46.2983 23.6088 46.4153 23.4697 46.4829 23.3056L47.2008 21.5722C47.2687 21.4082 47.2842 21.2273 47.2451 21.0542C47.206 20.8811 47.1143 20.7243 46.9826 20.6054L45.7776 19.5174V18.8033L46.982 17.7153ZM44.3416 20.5374L45.3801 21.4749L45.1264 22.0872L43.729 22.0158C43.6089 22.0098 43.4889 22.0289 43.3767 22.0721C43.2645 22.1152 43.1626 22.1814 43.0775 22.2664L42.0323 23.3116C41.9473 23.3966 41.8811 23.4985 41.8379 23.6107C41.7948 23.723 41.7756 23.843 41.7818 23.9631L41.8531 25.3604L41.2408 25.6142L40.3033 24.5757C40.2227 24.4864 40.1243 24.4151 40.0144 24.3663C39.9045 24.3174 39.7856 24.2922 39.6654 24.2922H38.1872C38.067 24.2922 37.9481 24.3175 37.8382 24.3663C37.7283 24.4151 37.6299 24.4865 37.5494 24.5757L36.6118 25.6142L35.9995 25.3604L36.0708 23.9631C36.077 23.843 36.0579 23.7229 36.0148 23.6107C35.9716 23.4985 35.9054 23.3966 35.8203 23.3116L34.7752 22.2664C34.6901 22.1814 34.5882 22.1152 34.4759 22.0721C34.3637 22.0289 34.2437 22.0098 34.1236 22.0158L32.7263 22.0872L32.4725 21.4749L33.5109 20.5374C33.6002 20.4568 33.6716 20.3584 33.7204 20.2485C33.7693 20.1386 33.7945 20.0197 33.7945 19.8994V18.4213C33.7945 18.3011 33.7693 18.1821 33.7204 18.0723C33.6716 17.9624 33.6002 17.864 33.5109 17.7834L32.4725 16.8458L32.7263 16.2335L34.1236 16.3049C34.2437 16.3111 34.3637 16.292 34.476 16.2488C34.5882 16.2057 34.6902 16.1394 34.7752 16.0544L35.8203 15.0093C35.9053 14.9242 35.9715 14.8223 36.0147 14.71C36.0579 14.5978 36.077 14.4777 36.0708 14.3576L35.9995 12.9604L36.6118 12.7066L37.5494 13.745C37.6299 13.8343 37.7283 13.9056 37.8382 13.9545C37.9481 14.0033 38.067 14.0286 38.1872 14.0286H39.6654C39.7856 14.0286 39.9045 14.0034 40.0144 13.9545C40.1243 13.9057 40.2228 13.8343 40.3033 13.745L41.2408 12.7066L41.8531 12.9604L41.7818 14.3576C41.7756 14.4777 41.7947 14.5978 41.8379 14.71C41.881 14.8223 41.9473 14.9242 42.0323 15.0093L43.0775 16.0544C43.1625 16.1394 43.2645 16.2056 43.3767 16.2487C43.4889 16.2919 43.6089 16.311 43.729 16.3049L45.1264 16.2335L45.3801 16.8458L44.3416 17.7834C44.2524 17.864 44.1811 17.9624 44.1322 18.0723C44.0834 18.1822 44.0582 18.3011 44.0582 18.4213V19.8994C44.0581 20.0197 44.0834 20.1386 44.1322 20.2485C44.181 20.3584 44.2524 20.4568 44.3416 20.5374Z" fill="#00659E"/>
<path d="M14.6094 36.0938V37.8125H33.5156V36.0938H31.7969V33.5156H30.0781V36.0938H28.3594V31.7969H26.6406V36.0938H24.9219V29.2188H23.2031V36.0938H21.4844V31.7969H19.7656V36.0938H18.0469V33.5156H16.3281V36.0938H14.6094Z" fill="#FFB820"/>
<path d="M15.4688 12.0312H17.1875V13.75H15.4688V12.0312Z" fill="#FFB820"/>
<path d="M18.9062 12.0312H27.5V13.75H18.9062V12.0312Z" fill="#FFB820"/>
<path d="M13.75 15.4688H27.5V17.1875H13.75V15.4688Z" fill="#FFB820"/>
<path d="M17.1875 18.9062H27.5V20.625H17.1875V18.9062Z" fill="#FFB820"/>
<path d="M17.1875 22.3438H25.7812V24.0625H17.1875V22.3438Z" fill="#FFB820"/>
<path d="M16.3281 3.4375H38.6719V5.15625H16.3281V3.4375Z" fill="#FFB820"/>
<path d="M40.3906 3.4375H42.1094V5.15625H40.3906V3.4375Z" fill="#FFB820"/>
</svg>
