<svg width="57" height="58" viewBox="0 0 57 58" fill="none" xmlns="http://www.w3.org/2000/svg">
<g clip-path="url(#clip0_1265:1861)">
<path d="M26.5565 38.5101L26.5569 38.5097C27.0745 37.9921 27.0745 37.154 26.5569 36.6363L26.5565 36.636C26.0385 36.12 25.1997 36.1201 24.6813 36.6359L24.6813 36.6359L24.6808 36.6364C24.1637 37.1541 24.1637 37.992 24.6808 38.5096L24.6813 38.5102C25.1997 39.0259 26.0385 39.0261 26.5565 38.5101Z" fill="#00659E" stroke="#00659E" stroke-width="0.5"/>
<path d="M21.0312 12.8414C21.0312 19.4936 26.4533 24.9049 33.1174 24.9049C39.7815 24.9049 45.2036 19.4936 45.2036 12.8414C45.2036 6.18913 39.7815 0.77832 33.1174 0.77832C26.4534 0.77832 21.0312 6.18913 21.0312 12.8414ZM42.5518 12.8414C42.5518 18.0324 38.3198 22.2568 33.1174 22.2568C27.915 22.2568 23.6831 18.0324 23.6831 12.8414C23.6831 7.65078 27.915 3.42634 33.1174 3.42634C38.3198 3.42634 42.5518 7.65078 42.5518 12.8414Z" fill="#00659E" stroke="#00659E" stroke-width="0.5"/>
<path d="M15.1416 55.8977L14.9765 55.7298L15.1416 55.8976L20.3584 50.7683L20.3597 50.7669C21.2763 49.8521 21.5801 48.5182 21.2343 47.33L22.2447 46.3574L22.2448 46.3573C22.8023 45.8198 23.5356 45.5239 24.3118 45.5239H38.6164C41.2165 45.5239 43.6753 44.5279 45.5397 42.7198C45.5512 42.7103 45.5609 42.7009 45.5702 42.691C45.5857 42.6746 45.6122 42.6439 45.6661 42.5802C45.7782 42.4477 46.0282 42.1498 46.5977 41.4701C46.8033 41.2247 47.0506 40.9295 47.3483 40.5742C48.7001 38.9606 51.0896 36.1085 55.3209 31.0612C56.9418 29.1469 56.699 26.2734 54.7799 24.6542L54.7796 24.6539C52.8744 23.0514 50.0222 23.2796 48.3961 25.1552L42.2416 31.4685C41.3969 30.5516 40.1871 29.989 38.8854 29.989H26.9364C25.2118 29.276 23.3833 28.9152 21.4982 28.9152C16.297 28.9152 11.7273 31.2888 9.23035 35.7569C8.18286 35.6154 7.10019 35.9561 6.3099 36.7449L6.30964 36.7451L1.19081 41.8691L1.1908 41.8691C0.675521 42.3849 0.67455 43.2195 1.18868 43.7368L1.18872 43.7368L13.2704 55.8868C13.2704 55.8868 13.2704 55.8868 13.2704 55.8869C13.7843 56.4039 14.6209 56.4096 15.1416 55.8977ZM53.2922 29.3561L53.2914 29.3571L43.6491 40.8617C42.2877 42.1614 40.5034 42.8763 38.6164 42.8763H24.3118C22.8455 42.8763 21.4563 43.4363 20.4031 44.4519L19.6653 45.1625L11.5415 37.055C13.4845 33.5569 17.0499 31.5628 21.4978 31.5628C23.1119 31.5628 24.6712 31.8869 26.1349 32.5259C26.3027 32.5993 26.4835 32.637 26.6663 32.637H38.8854C39.9172 32.637 40.7877 33.4777 40.7877 34.5346C40.7877 35.5807 39.9347 36.4326 38.8854 36.4326H30.1063C29.3746 36.4326 28.7804 37.025 28.7804 37.7564C28.7804 38.4884 29.3747 39.0802 30.1063 39.0802H38.8854C41.3964 39.0802 43.4395 37.0419 43.4395 34.5346C43.4395 34.3754 43.4305 34.2179 43.414 34.0622C45.3777 32.0476 46.7956 30.5933 47.8166 29.546C48.3657 28.9828 48.8 28.5374 49.1427 28.1857C49.6372 27.6785 49.941 27.3666 50.1235 27.1788C50.2967 27.0006 50.3691 26.9257 50.3875 26.9041C51.0653 26.1056 52.2694 26.0044 53.0696 26.6774C53.8703 27.3531 53.972 28.5531 53.2922 29.3561ZM9.21044 38.5013L9.21178 38.5021C9.2467 38.5233 9.24628 38.522 9.24645 38.5219C9.24652 38.5219 9.24671 38.5221 9.25017 38.5246C9.25867 38.5309 9.28099 38.5493 9.34457 38.6098C9.46888 38.728 9.71885 38.9762 10.2691 39.526C10.4859 39.7426 10.7488 40.0055 11.0684 40.3252C12.368 41.6249 14.605 43.8619 18.4851 47.729C18.8144 48.0578 18.7967 48.5827 18.4914 48.888C18.4912 48.8882 18.491 48.8884 18.4908 48.8886L14.222 53.0858L4.00026 42.8061L8.18594 38.6165C8.18596 38.6165 8.18599 38.6165 8.18601 38.6164C8.45835 38.3447 8.8757 38.2948 9.21044 38.5013Z" fill="#00659E" stroke="#00659E" stroke-width="0.5"/>
<path d="M34.8056 5.77832H30.5925C29.8068 5.77832 29.1575 6.39905 29.1575 7.17975V11.6269H28.185C27.3993 11.6269 26.75 12.2476 26.75 13.0283C26.75 13.809 27.3993 14.4298 28.185 14.4298H29.1575V15.136H28.185C27.3993 15.136 26.75 15.7567 26.75 16.5374C26.75 17.3182 27.3993 17.9389 28.185 17.9389H29.1575V18.8769C29.1575 19.6576 29.8068 20.2783 30.5925 20.2783C31.3781 20.2783 32.0274 19.6576 32.0274 18.8769V17.9389H34.2037C34.9894 17.9389 35.6387 17.3182 35.6387 16.5374C35.6387 15.7567 34.9894 15.136 34.2037 15.136H32.0274V14.4298H34.8056C37.2497 14.4298 39.25 12.4962 39.25 10.1041C39.25 7.7119 37.2497 5.77832 34.8056 5.77832ZM34.8056 11.6268H32.0274V8.58113H34.8056C35.6804 8.58113 36.3801 9.27118 36.3801 10.104C36.3801 10.9367 35.6804 11.6268 34.8056 11.6268Z" fill="#00659E" stroke="#00659E" stroke-width="0.5"/>
</g>
<defs>
<clipPath id="clip0_1265:1861">
<rect width="57" height="57" fill="white" transform="translate(0 0.0283203)"/>
</clipPath>
</defs>
</svg>
