<svg width="57" height="58" viewBox="0 0 57 58" fill="none" xmlns="http://www.w3.org/2000/svg">
<g clip-path="url(#clip0_1265:1895)">
<mask id="path-1-outside-1_1265:1895" maskUnits="userSpaceOnUse" x="5.39844" y="6.82471" width="46" height="50" fill="black">
<rect fill="white" x="5.39844" y="6.82471" width="46" height="50"/>
<path d="M48.6636 38.1138C45.6542 36.4903 43.5148 33.6526 42.7941 30.328L42.5138 29.0354C41.9973 26.6523 40.6674 24.497 38.7694 22.9662C37.2036 21.7035 35.304 20.9104 33.3181 20.6709C34.4575 19.4751 35.1592 17.8589 35.1592 16.0808V14.4849C35.1592 10.8124 32.1714 7.82471 28.499 7.82471C24.8266 7.82471 21.8388 10.8124 21.8388 14.4849V16.0808C21.8388 17.8589 22.5405 19.475 23.6798 20.6708C21.6939 20.9103 19.7944 21.7035 18.2285 22.9661C17.3655 23.6621 16.6172 24.4876 16.0043 25.4198C15.6784 25.9155 15.8161 26.5815 16.3119 26.9074C16.8075 27.2333 17.4735 27.0957 17.7996 26.5999C18.2897 25.8543 18.8879 25.1943 19.5771 24.6385C20.768 23.6781 22.2005 23.0583 23.7039 22.8352L27.5852 29.4727C27.7778 29.8021 28.1309 30.0046 28.5124 30.0046C28.894 30.0046 29.2471 29.8021 29.4397 29.4727L33.3187 22.8391C34.813 23.0653 36.2363 23.6836 37.4206 24.6386C38.9379 25.8623 40.001 27.5854 40.414 29.4905L40.6943 30.7832C41.5481 34.7219 44.081 38.0829 47.6435 40.0047C48.2984 40.358 48.6052 41.1189 48.3729 41.8142C48.2304 42.2407 47.9217 42.5669 47.504 42.7326C47.0866 42.8981 46.6191 42.8703 46.2214 42.6566C45.2264 42.1218 44.2952 41.4933 43.4347 40.7786C43.4335 40.7775 43.4323 40.7766 43.431 40.7755C42.8027 40.2533 42.212 39.6854 41.6631 39.0731C39.7222 36.9081 38.3709 34.2619 37.7548 31.4206L37.4745 30.1277C37.349 29.5479 36.777 29.1803 36.1971 29.3054C35.6936 29.4147 35.3503 29.8603 35.3507 30.3553H35.3504V30.3628V30.3689V41.2992L28.4987 44.432L21.6472 41.2993V30.3688C21.6472 30.3668 21.6472 30.3647 21.6472 30.3627V30.3552H21.6469C21.6473 29.8602 21.304 29.4145 20.8005 29.3053C20.2205 29.1797 19.6487 29.5479 19.523 30.1276L19.2428 31.4205C18.6268 34.2618 17.2753 36.908 15.3344 39.0729C14.0329 40.5247 12.4993 41.7303 10.7762 42.6564C10.3785 42.8703 9.91115 42.8979 9.49371 42.7324C9.07584 42.5667 8.76732 42.2405 8.62477 41.814C8.39253 41.1187 8.69922 40.3577 9.35417 40.0044C11.3089 38.95 13.003 37.4158 14.2531 35.5678C14.5856 35.0765 14.4567 34.4085 13.9654 34.0761C13.4738 33.7436 12.8061 33.8726 12.4737 34.3639C11.4168 35.9263 9.98538 37.2229 8.3342 38.1136C6.75778 38.9639 6.02302 40.8064 6.5872 42.4947C6.9289 43.5175 7.69966 44.332 8.70179 44.7294C9.13782 44.9023 9.59608 44.9881 10.0533 44.9881C10.6528 44.9881 11.2505 44.8406 11.7935 44.5487C11.7946 44.5482 11.7957 44.5475 11.7967 44.5469C11.7909 45.1463 11.8917 45.7497 12.1053 46.3303C12.633 47.7645 13.7665 48.8658 15.2152 49.3519L17.7721 50.2098C17.3892 50.92 17.2254 51.7492 17.337 52.5979C17.4913 53.7703 18.155 54.802 19.1581 55.4283C19.7934 55.8249 20.5149 56.0278 21.2434 56.0278C21.6653 56.0278 22.0896 55.9597 22.5008 55.8218L28.499 53.8093L34.497 55.8219C34.9082 55.9598 35.3324 56.0279 35.7543 56.0279C36.4828 56.0279 37.2044 55.8249 37.8395 55.4284C38.8427 54.8021 39.5065 53.7704 39.6608 52.5979C39.7719 51.7538 39.6113 50.924 39.2255 50.21L41.7826 49.3521C43.2313 48.866 44.3648 47.7647 44.8924 46.3305C45.1061 45.7499 45.2068 45.1466 45.2011 44.5471C45.2021 44.5476 45.2032 44.5483 45.2043 44.5489C45.7473 44.8408 46.345 44.9883 46.9446 44.9883C47.4018 44.9883 47.8601 44.9024 48.2961 44.7296C49.2982 44.3322 50.069 43.5178 50.4107 42.4949C50.9748 40.8067 50.2401 38.9642 48.6636 38.1138ZM28.5126 26.8024L26.1378 22.741H30.8875L28.5126 26.8024ZM33.0107 16.0808C33.0107 18.5679 30.9879 20.5914 28.501 20.5925H28.4969C26.01 20.5915 23.9872 18.568 23.9872 16.0808V14.4849C23.9872 11.9971 26.0111 9.97314 28.4989 9.97314C30.9867 9.97314 33.0106 11.9971 33.0106 14.4849V16.0808H33.0107ZM37.499 36.8541C38.0305 37.8396 38.6485 38.7783 39.3479 39.6575C38.9268 39.7293 38.5086 39.8551 38.1033 40.0404L37.499 40.3167V36.8541ZM19.499 36.8541V40.3168L18.8946 40.0404C18.4894 39.8551 18.0712 39.7293 17.65 39.6576C18.3494 38.7784 18.9675 37.8396 19.499 36.8541ZM15.8988 47.3152C15.0711 47.0375 14.4233 46.4082 14.1218 45.5887C13.8202 44.7691 13.9056 43.8701 14.3561 43.1221C15.108 41.8728 16.6751 41.388 18.0013 41.9944L25.9156 45.6131L19.607 48.4976C19.5815 48.5093 19.5567 48.5219 19.5314 48.5341L15.8988 47.3152ZM37.5307 52.3178C37.4605 52.8514 37.1584 53.321 36.7018 53.606C36.2453 53.891 35.6907 53.9562 35.1805 53.785L31.8759 52.6761L37.1148 50.9183C37.4385 51.3001 37.5974 51.8105 37.5307 52.3178ZM42.8761 45.5887C42.5746 46.4082 41.9268 47.0375 41.0991 47.3152L21.8176 53.7852C21.3072 53.9565 20.7527 53.891 20.2962 53.6061C19.8396 53.321 19.5374 52.8516 19.4673 52.3179C19.3638 51.5316 19.779 50.7814 20.5004 50.4516L38.9967 41.9944C39.3819 41.8183 39.7873 41.7342 40.1874 41.7342C41.1643 41.7342 42.1084 42.2358 42.6418 43.122C43.0923 43.8702 43.1777 44.7692 42.8761 45.5887Z"/>
</mask>
<path d="M48.6636 38.1138C45.6542 36.4903 43.5148 33.6526 42.7941 30.328L42.5138 29.0354C41.9973 26.6523 40.6674 24.497 38.7694 22.9662C37.2036 21.7035 35.304 20.9104 33.3181 20.6709C34.4575 19.4751 35.1592 17.8589 35.1592 16.0808V14.4849C35.1592 10.8124 32.1714 7.82471 28.499 7.82471C24.8266 7.82471 21.8388 10.8124 21.8388 14.4849V16.0808C21.8388 17.8589 22.5405 19.475 23.6798 20.6708C21.6939 20.9103 19.7944 21.7035 18.2285 22.9661C17.3655 23.6621 16.6172 24.4876 16.0043 25.4198C15.6784 25.9155 15.8161 26.5815 16.3119 26.9074C16.8075 27.2333 17.4735 27.0957 17.7996 26.5999C18.2897 25.8543 18.8879 25.1943 19.5771 24.6385C20.768 23.6781 22.2005 23.0583 23.7039 22.8352L27.5852 29.4727C27.7778 29.8021 28.1309 30.0046 28.5124 30.0046C28.894 30.0046 29.2471 29.8021 29.4397 29.4727L33.3187 22.8391C34.813 23.0653 36.2363 23.6836 37.4206 24.6386C38.9379 25.8623 40.001 27.5854 40.414 29.4905L40.6943 30.7832C41.5481 34.7219 44.081 38.0829 47.6435 40.0047C48.2984 40.358 48.6052 41.1189 48.3729 41.8142C48.2304 42.2407 47.9217 42.5669 47.504 42.7326C47.0866 42.8981 46.6191 42.8703 46.2214 42.6566C45.2264 42.1218 44.2952 41.4933 43.4347 40.7786C43.4335 40.7775 43.4323 40.7766 43.431 40.7755C42.8027 40.2533 42.212 39.6854 41.6631 39.0731C39.7222 36.9081 38.3709 34.2619 37.7548 31.4206L37.4745 30.1277C37.349 29.5479 36.777 29.1803 36.1971 29.3054C35.6936 29.4147 35.3503 29.8603 35.3507 30.3553H35.3504V30.3628V30.3689V41.2992L28.4987 44.432L21.6472 41.2993V30.3688C21.6472 30.3668 21.6472 30.3647 21.6472 30.3627V30.3552H21.6469C21.6473 29.8602 21.304 29.4145 20.8005 29.3053C20.2205 29.1797 19.6487 29.5479 19.523 30.1276L19.2428 31.4205C18.6268 34.2618 17.2753 36.908 15.3344 39.0729C14.0329 40.5247 12.4993 41.7303 10.7762 42.6564C10.3785 42.8703 9.91115 42.8979 9.49371 42.7324C9.07584 42.5667 8.76732 42.2405 8.62477 41.814C8.39253 41.1187 8.69922 40.3577 9.35417 40.0044C11.3089 38.95 13.003 37.4158 14.2531 35.5678C14.5856 35.0765 14.4567 34.4085 13.9654 34.0761C13.4738 33.7436 12.8061 33.8726 12.4737 34.3639C11.4168 35.9263 9.98538 37.2229 8.3342 38.1136C6.75778 38.9639 6.02302 40.8064 6.5872 42.4947C6.9289 43.5175 7.69966 44.332 8.70179 44.7294C9.13782 44.9023 9.59608 44.9881 10.0533 44.9881C10.6528 44.9881 11.2505 44.8406 11.7935 44.5487C11.7946 44.5482 11.7957 44.5475 11.7967 44.5469C11.7909 45.1463 11.8917 45.7497 12.1053 46.3303C12.633 47.7645 13.7665 48.8658 15.2152 49.3519L17.7721 50.2098C17.3892 50.92 17.2254 51.7492 17.337 52.5979C17.4913 53.7703 18.155 54.802 19.1581 55.4283C19.7934 55.8249 20.5149 56.0278 21.2434 56.0278C21.6653 56.0278 22.0896 55.9597 22.5008 55.8218L28.499 53.8093L34.497 55.8219C34.9082 55.9598 35.3324 56.0279 35.7543 56.0279C36.4828 56.0279 37.2044 55.8249 37.8395 55.4284C38.8427 54.8021 39.5065 53.7704 39.6608 52.5979C39.7719 51.7538 39.6113 50.924 39.2255 50.21L41.7826 49.3521C43.2313 48.866 44.3648 47.7647 44.8924 46.3305C45.1061 45.7499 45.2068 45.1466 45.2011 44.5471C45.2021 44.5476 45.2032 44.5483 45.2043 44.5489C45.7473 44.8408 46.345 44.9883 46.9446 44.9883C47.4018 44.9883 47.8601 44.9024 48.2961 44.7296C49.2982 44.3322 50.069 43.5178 50.4107 42.4949C50.9748 40.8067 50.2401 38.9642 48.6636 38.1138ZM28.5126 26.8024L26.1378 22.741H30.8875L28.5126 26.8024ZM33.0107 16.0808C33.0107 18.5679 30.9879 20.5914 28.501 20.5925H28.4969C26.01 20.5915 23.9872 18.568 23.9872 16.0808V14.4849C23.9872 11.9971 26.0111 9.97314 28.4989 9.97314C30.9867 9.97314 33.0106 11.9971 33.0106 14.4849V16.0808H33.0107ZM37.499 36.8541C38.0305 37.8396 38.6485 38.7783 39.3479 39.6575C38.9268 39.7293 38.5086 39.8551 38.1033 40.0404L37.499 40.3167V36.8541ZM19.499 36.8541V40.3168L18.8946 40.0404C18.4894 39.8551 18.0712 39.7293 17.65 39.6576C18.3494 38.7784 18.9675 37.8396 19.499 36.8541ZM15.8988 47.3152C15.0711 47.0375 14.4233 46.4082 14.1218 45.5887C13.8202 44.7691 13.9056 43.8701 14.3561 43.1221C15.108 41.8728 16.6751 41.388 18.0013 41.9944L25.9156 45.6131L19.607 48.4976C19.5815 48.5093 19.5567 48.5219 19.5314 48.5341L15.8988 47.3152ZM37.5307 52.3178C37.4605 52.8514 37.1584 53.321 36.7018 53.606C36.2453 53.891 35.6907 53.9562 35.1805 53.785L31.8759 52.6761L37.1148 50.9183C37.4385 51.3001 37.5974 51.8105 37.5307 52.3178ZM42.8761 45.5887C42.5746 46.4082 41.9268 47.0375 41.0991 47.3152L21.8176 53.7852C21.3072 53.9565 20.7527 53.891 20.2962 53.6061C19.8396 53.321 19.5374 52.8516 19.4673 52.3179C19.3638 51.5316 19.779 50.7814 20.5004 50.4516L38.9967 41.9944C39.3819 41.8183 39.7873 41.7342 40.1874 41.7342C41.1643 41.7342 42.1084 42.2358 42.6418 43.122C43.0923 43.8702 43.1777 44.7692 42.8761 45.5887Z" fill="#00659E"/>
<path d="M48.6636 38.1138C45.6542 36.4903 43.5148 33.6526 42.7941 30.328L42.5138 29.0354C41.9973 26.6523 40.6674 24.497 38.7694 22.9662C37.2036 21.7035 35.304 20.9104 33.3181 20.6709C34.4575 19.4751 35.1592 17.8589 35.1592 16.0808V14.4849C35.1592 10.8124 32.1714 7.82471 28.499 7.82471C24.8266 7.82471 21.8388 10.8124 21.8388 14.4849V16.0808C21.8388 17.8589 22.5405 19.475 23.6798 20.6708C21.6939 20.9103 19.7944 21.7035 18.2285 22.9661C17.3655 23.6621 16.6172 24.4876 16.0043 25.4198C15.6784 25.9155 15.8161 26.5815 16.3119 26.9074C16.8075 27.2333 17.4735 27.0957 17.7996 26.5999C18.2897 25.8543 18.8879 25.1943 19.5771 24.6385C20.768 23.6781 22.2005 23.0583 23.7039 22.8352L27.5852 29.4727C27.7778 29.8021 28.1309 30.0046 28.5124 30.0046C28.894 30.0046 29.2471 29.8021 29.4397 29.4727L33.3187 22.8391C34.813 23.0653 36.2363 23.6836 37.4206 24.6386C38.9379 25.8623 40.001 27.5854 40.414 29.4905L40.6943 30.7832C41.5481 34.7219 44.081 38.0829 47.6435 40.0047C48.2984 40.358 48.6052 41.1189 48.3729 41.8142C48.2304 42.2407 47.9217 42.5669 47.504 42.7326C47.0866 42.8981 46.6191 42.8703 46.2214 42.6566C45.2264 42.1218 44.2952 41.4933 43.4347 40.7786C43.4335 40.7775 43.4323 40.7766 43.431 40.7755C42.8027 40.2533 42.212 39.6854 41.6631 39.0731C39.7222 36.9081 38.3709 34.2619 37.7548 31.4206L37.4745 30.1277C37.349 29.5479 36.777 29.1803 36.1971 29.3054C35.6936 29.4147 35.3503 29.8603 35.3507 30.3553H35.3504V30.3628V30.3689V41.2992L28.4987 44.432L21.6472 41.2993V30.3688C21.6472 30.3668 21.6472 30.3647 21.6472 30.3627V30.3552H21.6469C21.6473 29.8602 21.304 29.4145 20.8005 29.3053C20.2205 29.1797 19.6487 29.5479 19.523 30.1276L19.2428 31.4205C18.6268 34.2618 17.2753 36.908 15.3344 39.0729C14.0329 40.5247 12.4993 41.7303 10.7762 42.6564C10.3785 42.8703 9.91115 42.8979 9.49371 42.7324C9.07584 42.5667 8.76732 42.2405 8.62477 41.814C8.39253 41.1187 8.69922 40.3577 9.35417 40.0044C11.3089 38.95 13.003 37.4158 14.2531 35.5678C14.5856 35.0765 14.4567 34.4085 13.9654 34.0761C13.4738 33.7436 12.8061 33.8726 12.4737 34.3639C11.4168 35.9263 9.98538 37.2229 8.3342 38.1136C6.75778 38.9639 6.02302 40.8064 6.5872 42.4947C6.9289 43.5175 7.69966 44.332 8.70179 44.7294C9.13782 44.9023 9.59608 44.9881 10.0533 44.9881C10.6528 44.9881 11.2505 44.8406 11.7935 44.5487C11.7946 44.5482 11.7957 44.5475 11.7967 44.5469C11.7909 45.1463 11.8917 45.7497 12.1053 46.3303C12.633 47.7645 13.7665 48.8658 15.2152 49.3519L17.7721 50.2098C17.3892 50.92 17.2254 51.7492 17.337 52.5979C17.4913 53.7703 18.155 54.802 19.1581 55.4283C19.7934 55.8249 20.5149 56.0278 21.2434 56.0278C21.6653 56.0278 22.0896 55.9597 22.5008 55.8218L28.499 53.8093L34.497 55.8219C34.9082 55.9598 35.3324 56.0279 35.7543 56.0279C36.4828 56.0279 37.2044 55.8249 37.8395 55.4284C38.8427 54.8021 39.5065 53.7704 39.6608 52.5979C39.7719 51.7538 39.6113 50.924 39.2255 50.21L41.7826 49.3521C43.2313 48.866 44.3648 47.7647 44.8924 46.3305C45.1061 45.7499 45.2068 45.1466 45.2011 44.5471C45.2021 44.5476 45.2032 44.5483 45.2043 44.5489C45.7473 44.8408 46.345 44.9883 46.9446 44.9883C47.4018 44.9883 47.8601 44.9024 48.2961 44.7296C49.2982 44.3322 50.069 43.5178 50.4107 42.4949C50.9748 40.8067 50.2401 38.9642 48.6636 38.1138ZM28.5126 26.8024L26.1378 22.741H30.8875L28.5126 26.8024ZM33.0107 16.0808C33.0107 18.5679 30.9879 20.5914 28.501 20.5925H28.4969C26.01 20.5915 23.9872 18.568 23.9872 16.0808V14.4849C23.9872 11.9971 26.0111 9.97314 28.4989 9.97314C30.9867 9.97314 33.0106 11.9971 33.0106 14.4849V16.0808H33.0107ZM37.499 36.8541C38.0305 37.8396 38.6485 38.7783 39.3479 39.6575C38.9268 39.7293 38.5086 39.8551 38.1033 40.0404L37.499 40.3167V36.8541ZM19.499 36.8541V40.3168L18.8946 40.0404C18.4894 39.8551 18.0712 39.7293 17.65 39.6576C18.3494 38.7784 18.9675 37.8396 19.499 36.8541ZM15.8988 47.3152C15.0711 47.0375 14.4233 46.4082 14.1218 45.5887C13.8202 44.7691 13.9056 43.8701 14.3561 43.1221C15.108 41.8728 16.6751 41.388 18.0013 41.9944L25.9156 45.6131L19.607 48.4976C19.5815 48.5093 19.5567 48.5219 19.5314 48.5341L15.8988 47.3152ZM37.5307 52.3178C37.4605 52.8514 37.1584 53.321 36.7018 53.606C36.2453 53.891 35.6907 53.9562 35.1805 53.785L31.8759 52.6761L37.1148 50.9183C37.4385 51.3001 37.5974 51.8105 37.5307 52.3178ZM42.8761 45.5887C42.5746 46.4082 41.9268 47.0375 41.0991 47.3152L21.8176 53.7852C21.3072 53.9565 20.7527 53.891 20.2962 53.6061C19.8396 53.321 19.5374 52.8516 19.4673 52.3179C19.3638 51.5316 19.779 50.7814 20.5004 50.4516L38.9967 41.9944C39.3819 41.8183 39.7873 41.7342 40.1874 41.7342C41.1643 41.7342 42.1084 42.2358 42.6418 43.122C43.0923 43.8702 43.1777 44.7692 42.8761 45.5887Z" stroke="#00659E" mask="url(#path-1-outside-1_1265:1895)"/>
<path d="M6.83594 26.9239C8.81887 26.3488 10.2734 24.5174 10.2734 22.3506C10.2734 19.7247 8.13757 17.5889 5.51172 17.5889C2.88586 17.5889 0.75 19.7247 0.75 22.3506C0.75 24.5175 2.20457 26.3489 4.1875 26.9239V32.4482C4.1875 33.1795 4.78034 33.7725 5.51172 33.7725C6.2431 33.7725 6.83594 33.1795 6.83594 32.4482V26.9239ZM3.39844 22.3506C3.39844 21.1855 4.34666 20.2373 5.51172 20.2373C6.67678 20.2373 7.625 21.1855 7.625 22.3506C7.625 23.5156 6.67678 24.4639 5.51172 24.4639C4.34666 24.4639 3.39844 23.5155 3.39844 22.3506Z" fill="#00659E" stroke="#00659E" stroke-width="0.5"/>
<path d="M9.98828 5.54004C9.98828 7.70686 11.4429 9.5383 13.4258 10.1133V15.6377C13.4258 16.3691 14.0186 16.9619 14.75 16.9619C15.4814 16.9619 16.0742 16.3691 16.0742 15.6377V10.1133C18.0571 9.5383 19.5117 7.70686 19.5117 5.54004C19.5117 2.91418 17.3759 0.77832 14.75 0.77832C12.1241 0.77832 9.98828 2.91418 9.98828 5.54004ZM14.75 3.42665C15.9151 3.42665 16.8633 4.37487 16.8633 5.53993C16.8633 6.705 15.9151 7.65321 14.75 7.65321C13.5849 7.65321 12.6367 6.705 12.6367 5.53993C12.6367 4.37487 13.5849 3.42665 14.75 3.42665Z" fill="#00659E" stroke="#00659E" stroke-width="0.5"/>
<path d="M56.25 22.3506C56.25 19.7247 54.1141 17.5889 51.4883 17.5889C48.8624 17.5889 46.7266 19.7247 46.7266 22.3506C46.7266 24.5175 48.1811 26.3489 50.1641 26.9239V32.4482C50.1641 33.1795 50.7569 33.7725 51.4883 33.7725C52.2197 33.7725 52.8125 33.1795 52.8125 32.4482V26.9239C54.7954 26.3488 56.25 24.5174 56.25 22.3506ZM51.4883 24.4639C50.3232 24.4639 49.375 23.5156 49.375 22.3506C49.375 21.1855 50.3232 20.2373 51.4883 20.2373C52.6533 20.2373 53.6016 21.1855 53.6016 22.3506C53.6016 23.5156 52.6533 24.4639 51.4883 24.4639Z" fill="#00659E" stroke="#00659E" stroke-width="0.5"/>
<path d="M37.4883 5.54004C37.4883 7.70686 38.9429 9.5383 40.9258 10.1133V15.6377C40.9258 16.3691 41.5186 16.9619 42.25 16.9619C42.9814 16.9619 43.5742 16.3691 43.5742 15.6377V10.1133C45.5571 9.5383 47.0117 7.70686 47.0117 5.54004C47.0117 2.91418 44.8759 0.77832 42.25 0.77832C39.6241 0.77832 37.4883 2.91418 37.4883 5.54004ZM42.25 3.42665C43.4151 3.42665 44.3633 4.37487 44.3633 5.53993C44.3633 6.705 43.4151 7.65321 42.25 7.65321C41.0849 7.65321 40.1367 6.705 40.1367 5.53993C40.1367 4.37487 41.0849 3.42665 42.25 3.42665Z" fill="#00659E" stroke="#00659E" stroke-width="0.5"/>
<path d="M15.2538 29.231L15.2539 29.231C15.6028 29.231 15.9435 29.3723 16.1902 29.6189C16.4368 29.8656 16.5781 30.2063 16.5781 30.5552C16.5781 30.9051 16.4367 31.2448 16.1902 31.4913C16.1902 31.4913 16.1902 31.4913 16.1902 31.4913C16.1901 31.4913 16.1901 31.4913 16.1901 31.4914C15.9435 31.7381 15.6028 31.8794 15.2539 31.8794C14.905 31.8794 14.5643 31.7379 14.3177 31.4914L15.2538 29.231ZM15.2538 29.231C14.905 29.2311 14.5643 29.3723 14.3177 29.6189C14.071 29.8656 13.9297 30.2063 13.9297 30.5552M15.2538 29.231L13.9297 30.5552M13.9297 30.5552C13.9297 30.9041 14.071 31.2448 14.3177 31.4913L13.9297 30.5552Z" fill="#00659E" stroke="#00659E" stroke-width="0.5"/>
</g>
<defs>
<clipPath id="clip0_1265:1895">
<rect width="57" height="57" fill="white" transform="translate(0 0.0283203)"/>
</clipPath>
</defs>
</svg>
