<svg width="57" height="57" viewBox="0 0 57 57" fill="none" xmlns="http://www.w3.org/2000/svg">
<mask id="path-1-outside-1_1401:846" maskUnits="userSpaceOnUse" x="0.015625" y="0" width="57" height="57" fill="black">
<rect fill="white" x="0.015625" width="57" height="57"/>
<path d="M1.90071 28.4878H1.9328C2.4271 28.4881 2.8326 28.0964 2.84944 27.6023C3.34535 13.436 15.2314 2.354 29.3977 2.84979C34.8467 3.04057 40.0933 4.96152 44.3772 8.33443H39.4988C38.9926 8.33443 38.5821 8.74486 38.5821 9.25107C38.5821 9.75729 38.9926 10.1677 39.4988 10.1677H46.8448C46.9165 10.1619 46.9872 10.1478 47.0556 10.1256C47.1025 10.1188 47.1486 10.1087 47.194 10.0953C47.2197 10.0843 47.2389 10.0614 47.2637 10.0476C47.3459 10.0074 47.4215 9.95449 47.4873 9.89089L47.4965 9.88448C47.5198 9.85262 47.541 9.81928 47.5597 9.78456C47.6078 9.72613 47.6482 9.66173 47.6798 9.59298C47.705 9.51988 47.7205 9.4438 47.7257 9.36657C47.7362 9.32876 47.7439 9.29015 47.7486 9.25107V1.91791C47.7486 1.41169 47.3382 1.00126 46.8319 1.00126C46.3257 1.00126 45.9153 1.41169 45.9153 1.91791V7.22712C34.1707 -2.3956 16.8488 -0.67551 7.22608 11.0692C3.40676 15.7308 1.22492 21.5182 1.01615 27.5409C0.999192 28.0466 1.39507 28.4704 1.90071 28.4878Z"/>
<path d="M15.4473 50.6045C14.6854 50.1532 13.9469 49.6628 13.2345 49.137C12.837 48.8234 12.2607 48.8914 11.947 49.2889C11.6334 49.6864 11.7015 50.2628 12.099 50.5764C12.1139 50.588 12.129 50.5994 12.1446 50.6102C12.9065 51.1742 13.6968 51.6989 14.5123 52.1822C14.9479 52.4404 15.5104 52.2966 15.7685 51.8609C16.0268 51.4252 15.8829 50.8627 15.4473 50.6045Z"/>
<path d="M7.66185 43.4895C7.14509 42.7711 6.66546 42.0267 6.22455 41.2593C5.97144 40.8202 5.41023 40.6694 4.97104 40.9225C4.53185 41.1756 4.38106 41.7368 4.63417 42.176C5.10647 42.9965 5.62048 43.7923 6.17414 44.5602C6.47812 44.965 7.05274 45.0467 7.45755 44.7427C7.8508 44.4474 7.94097 43.8945 7.66185 43.4895Z"/>
<path d="M2.68487 34.9412C2.68476 34.9412 2.68499 34.9412 2.68487 34.9412C3.17952 34.8358 3.49576 34.3497 3.39115 33.8549C3.20851 32.989 3.07021 32.1143 2.97683 31.2342C2.92343 30.7305 2.47175 30.3655 1.96806 30.4188C1.46436 30.4722 1.09931 30.9239 1.1527 31.4276C1.25307 32.3703 1.40168 33.3071 1.59819 34.2344C1.70315 34.7297 2.18966 35.0461 2.68487 34.9412Z"/>
<path d="M25.4292 53.9833C24.5506 53.8787 23.678 53.7289 22.8149 53.5342C22.3211 53.4226 21.8302 53.7324 21.7186 54.2262C21.607 54.7201 21.9168 55.211 22.4107 55.3226C23.3358 55.5311 24.2711 55.6917 25.2128 55.8038C25.2494 55.8083 25.2861 55.8103 25.3228 55.8102C25.8291 55.8092 26.2386 55.3978 26.2375 54.8916C26.2366 54.428 25.8897 54.0381 25.4292 53.9833Z"/>
<path d="M52.8425 39.2337C52.3868 39.0137 51.8391 39.2045 51.6186 39.66C51.2333 40.4568 50.8068 41.233 50.3408 41.9855C50.0816 42.4204 50.2242 42.983 50.6591 43.2421C51.0834 43.495 51.6319 43.3661 51.8991 42.9507C52.398 42.1442 52.8548 41.3122 53.2677 40.4584C53.4885 40.0028 53.298 39.4545 52.8425 39.2337Z"/>
<path d="M55.0973 28.5437C54.5993 28.5183 54.1749 28.9015 54.1496 29.3994C54.1492 29.4087 54.1488 29.4181 54.1486 29.4274C54.1175 30.312 54.0406 31.1943 53.9185 32.071C53.8494 32.5718 54.1989 33.0339 54.6995 33.1041C54.742 33.1102 54.7848 33.1133 54.8278 33.1132C55.2846 33.1125 55.6714 32.7756 55.7344 32.3231C55.8649 31.3841 55.9472 30.439 55.981 29.4916C55.9985 28.9859 55.6031 28.5616 55.0973 28.5437Z"/>
<path d="M45.1804 48.0067V48.0094C44.5058 48.5853 43.8022 49.1263 43.0722 49.6301C42.6547 49.9186 42.5504 50.4909 42.8389 50.9083C43.1274 51.3257 43.6997 51.4301 44.1171 51.1416C44.8978 50.5995 45.6503 50.0183 46.3721 49.4C46.7568 49.0709 46.802 48.4923 46.4729 48.1075C46.144 47.7228 45.5652 47.6776 45.1804 48.0067Z"/>
<path d="M35.9328 53.074C35.0857 53.3292 34.226 53.5403 33.357 53.7064C32.8598 53.8021 32.5343 54.2826 32.63 54.7797C32.7128 55.2107 33.0896 55.5224 33.5284 55.5232C33.5865 55.5235 33.6445 55.5182 33.7016 55.5076C34.6332 55.3296 35.5548 55.1029 36.4626 54.8284C36.9434 54.6699 37.2047 54.1517 37.0463 53.6709C36.8934 53.2071 36.4037 52.9446 35.9328 53.074Z"/>
<path d="M28.4991 9.25093C17.8678 9.25093 9.24949 17.8692 9.24949 28.5005C9.24949 39.1317 17.8678 47.75 28.4991 47.75C39.1303 47.75 47.7486 39.1317 47.7486 28.5005C47.7366 17.8743 39.1253 9.26307 28.4991 9.25093ZM43.1654 29.4171H45.8686C45.3924 38.2991 38.2977 45.3938 29.4157 45.87V43.1668C29.4157 42.6606 29.0053 42.2502 28.4991 42.2502C27.9928 42.2502 27.5824 42.6606 27.5824 43.1668V45.87C18.7005 45.3938 11.6057 38.2991 11.1295 29.4171H13.8327C14.3389 29.4171 14.7494 29.0067 14.7494 28.5005C14.7494 27.9943 14.3389 27.5838 13.8327 27.5838H11.1295C11.6057 18.7019 18.7005 11.6072 27.5824 11.131V13.8342C27.5824 14.3404 27.9928 14.7508 28.4991 14.7508C29.0053 14.7508 29.4157 14.3404 29.4157 13.8342V11.131C38.2977 11.6072 45.3924 18.7019 45.8686 27.5838H43.1654C42.6592 27.5838 42.2487 27.9943 42.2487 28.5005C42.2487 29.0067 42.6592 29.4171 43.1654 29.4171Z"/>
<path d="M29.4157 25.9193V17.5008C29.4157 16.9946 29.0052 16.5842 28.499 16.5842C27.9928 16.5842 27.5824 16.9946 27.5824 17.5008V25.9193C26.8061 26.1966 26.195 26.8077 25.9178 27.5839H21.1659C20.6596 27.5839 20.2492 27.9944 20.2492 28.5006C20.2492 29.0068 20.6596 29.4172 21.1659 29.4172H25.9178C26.4201 30.8467 27.9862 31.5984 29.4157 31.0961C30.8452 30.5938 31.5968 29.0277 31.0945 27.5982C30.8186 26.8128 30.201 26.1953 29.4157 25.9193ZM28.499 29.4172C27.9928 29.4172 27.5824 29.0068 27.5824 28.5006C27.5824 27.9944 27.9928 27.5839 28.499 27.5839C29.0052 27.5839 29.4157 27.9944 29.4157 28.5006C29.4157 29.0068 29.0054 29.4172 28.499 29.4172Z"/>
</mask>
<path d="M1.90071 28.4878H1.9328C2.4271 28.4881 2.8326 28.0964 2.84944 27.6023C3.34535 13.436 15.2314 2.354 29.3977 2.84979C34.8467 3.04057 40.0933 4.96152 44.3772 8.33443H39.4988C38.9926 8.33443 38.5821 8.74486 38.5821 9.25107C38.5821 9.75729 38.9926 10.1677 39.4988 10.1677H46.8448C46.9165 10.1619 46.9872 10.1478 47.0556 10.1256C47.1025 10.1188 47.1486 10.1087 47.194 10.0953C47.2197 10.0843 47.2389 10.0614 47.2637 10.0476C47.3459 10.0074 47.4215 9.95449 47.4873 9.89089L47.4965 9.88448C47.5198 9.85262 47.541 9.81928 47.5597 9.78456C47.6078 9.72613 47.6482 9.66173 47.6798 9.59298C47.705 9.51988 47.7205 9.4438 47.7257 9.36657C47.7362 9.32876 47.7439 9.29015 47.7486 9.25107V1.91791C47.7486 1.41169 47.3382 1.00126 46.8319 1.00126C46.3257 1.00126 45.9153 1.41169 45.9153 1.91791V7.22712C34.1707 -2.3956 16.8488 -0.67551 7.22608 11.0692C3.40676 15.7308 1.22492 21.5182 1.01615 27.5409C0.999192 28.0466 1.39507 28.4704 1.90071 28.4878Z" fill="#00659E"/>
<path d="M15.4473 50.6045C14.6854 50.1532 13.9469 49.6628 13.2345 49.137C12.837 48.8234 12.2607 48.8914 11.947 49.2889C11.6334 49.6864 11.7015 50.2628 12.099 50.5764C12.1139 50.588 12.129 50.5994 12.1446 50.6102C12.9065 51.1742 13.6968 51.6989 14.5123 52.1822C14.9479 52.4404 15.5104 52.2966 15.7685 51.8609C16.0268 51.4252 15.8829 50.8627 15.4473 50.6045Z" fill="#00659E"/>
<path d="M7.66185 43.4895C7.14509 42.7711 6.66546 42.0267 6.22455 41.2593C5.97144 40.8202 5.41023 40.6694 4.97104 40.9225C4.53185 41.1756 4.38106 41.7368 4.63417 42.176C5.10647 42.9965 5.62048 43.7923 6.17414 44.5602C6.47812 44.965 7.05274 45.0467 7.45755 44.7427C7.8508 44.4474 7.94097 43.8945 7.66185 43.4895Z" fill="#00659E"/>
<path d="M2.68487 34.9412C2.68476 34.9412 2.68499 34.9412 2.68487 34.9412C3.17952 34.8358 3.49576 34.3497 3.39115 33.8549C3.20851 32.989 3.07021 32.1143 2.97683 31.2342C2.92343 30.7305 2.47175 30.3655 1.96806 30.4188C1.46436 30.4722 1.09931 30.9239 1.1527 31.4276C1.25307 32.3703 1.40168 33.3071 1.59819 34.2344C1.70315 34.7297 2.18966 35.0461 2.68487 34.9412Z" fill="#00659E"/>
<path d="M25.4292 53.9833C24.5506 53.8787 23.678 53.7289 22.8149 53.5342C22.3211 53.4226 21.8302 53.7324 21.7186 54.2262C21.607 54.7201 21.9168 55.211 22.4107 55.3226C23.3358 55.5311 24.2711 55.6917 25.2128 55.8038C25.2494 55.8083 25.2861 55.8103 25.3228 55.8102C25.8291 55.8092 26.2386 55.3978 26.2375 54.8916C26.2366 54.428 25.8897 54.0381 25.4292 53.9833Z" fill="#00659E"/>
<path d="M52.8425 39.2337C52.3868 39.0137 51.8391 39.2045 51.6186 39.66C51.2333 40.4568 50.8068 41.233 50.3408 41.9855C50.0816 42.4204 50.2242 42.983 50.6591 43.2421C51.0834 43.495 51.6319 43.3661 51.8991 42.9507C52.398 42.1442 52.8548 41.3122 53.2677 40.4584C53.4885 40.0028 53.298 39.4545 52.8425 39.2337Z" fill="#00659E"/>
<path d="M55.0973 28.5437C54.5993 28.5183 54.1749 28.9015 54.1496 29.3994C54.1492 29.4087 54.1488 29.4181 54.1486 29.4274C54.1175 30.312 54.0406 31.1943 53.9185 32.071C53.8494 32.5718 54.1989 33.0339 54.6995 33.1041C54.742 33.1102 54.7848 33.1133 54.8278 33.1132C55.2846 33.1125 55.6714 32.7756 55.7344 32.3231C55.8649 31.3841 55.9472 30.439 55.981 29.4916C55.9985 28.9859 55.6031 28.5616 55.0973 28.5437Z" fill="#00659E"/>
<path d="M45.1804 48.0067V48.0094C44.5058 48.5853 43.8022 49.1263 43.0722 49.6301C42.6547 49.9186 42.5504 50.4909 42.8389 50.9083C43.1274 51.3257 43.6997 51.4301 44.1171 51.1416C44.8978 50.5995 45.6503 50.0183 46.3721 49.4C46.7568 49.0709 46.802 48.4923 46.4729 48.1075C46.144 47.7228 45.5652 47.6776 45.1804 48.0067Z" fill="#00659E"/>
<path d="M35.9328 53.074C35.0857 53.3292 34.226 53.5403 33.357 53.7064C32.8598 53.8021 32.5343 54.2826 32.63 54.7797C32.7128 55.2107 33.0896 55.5224 33.5284 55.5232C33.5865 55.5235 33.6445 55.5182 33.7016 55.5076C34.6332 55.3296 35.5548 55.1029 36.4626 54.8284C36.9434 54.6699 37.2047 54.1517 37.0463 53.6709C36.8934 53.2071 36.4037 52.9446 35.9328 53.074Z" fill="#00659E"/>
<path d="M28.4991 9.25093C17.8678 9.25093 9.24949 17.8692 9.24949 28.5005C9.24949 39.1317 17.8678 47.75 28.4991 47.75C39.1303 47.75 47.7486 39.1317 47.7486 28.5005C47.7366 17.8743 39.1253 9.26307 28.4991 9.25093ZM43.1654 29.4171H45.8686C45.3924 38.2991 38.2977 45.3938 29.4157 45.87V43.1668C29.4157 42.6606 29.0053 42.2502 28.4991 42.2502C27.9928 42.2502 27.5824 42.6606 27.5824 43.1668V45.87C18.7005 45.3938 11.6057 38.2991 11.1295 29.4171H13.8327C14.3389 29.4171 14.7494 29.0067 14.7494 28.5005C14.7494 27.9943 14.3389 27.5838 13.8327 27.5838H11.1295C11.6057 18.7019 18.7005 11.6072 27.5824 11.131V13.8342C27.5824 14.3404 27.9928 14.7508 28.4991 14.7508C29.0053 14.7508 29.4157 14.3404 29.4157 13.8342V11.131C38.2977 11.6072 45.3924 18.7019 45.8686 27.5838H43.1654C42.6592 27.5838 42.2487 27.9943 42.2487 28.5005C42.2487 29.0067 42.6592 29.4171 43.1654 29.4171Z" fill="#00659E"/>
<path d="M29.4157 25.9193V17.5008C29.4157 16.9946 29.0052 16.5842 28.499 16.5842C27.9928 16.5842 27.5824 16.9946 27.5824 17.5008V25.9193C26.8061 26.1966 26.195 26.8077 25.9178 27.5839H21.1659C20.6596 27.5839 20.2492 27.9944 20.2492 28.5006C20.2492 29.0068 20.6596 29.4172 21.1659 29.4172H25.9178C26.4201 30.8467 27.9862 31.5984 29.4157 31.0961C30.8452 30.5938 31.5968 29.0277 31.0945 27.5982C30.8186 26.8128 30.201 26.1953 29.4157 25.9193ZM28.499 29.4172C27.9928 29.4172 27.5824 29.0068 27.5824 28.5006C27.5824 27.9944 27.9928 27.5839 28.499 27.5839C29.0052 27.5839 29.4157 27.9944 29.4157 28.5006C29.4157 29.0068 29.0054 29.4172 28.499 29.4172Z" fill="#00659E"/>
<path d="M1.90071 28.4878L1.8835 28.9875L1.8921 28.9878H1.90071V28.4878ZM1.9328 28.4878L1.93314 27.9878H1.9328V28.4878ZM2.84944 27.6023L2.34975 27.5848L2.34973 27.5853L2.84944 27.6023ZM29.3977 2.84979L29.4152 2.3501L29.4152 2.3501L29.3977 2.84979ZM44.3772 8.33443V8.83443H45.8204L44.6865 7.94158L44.3772 8.33443ZM46.8448 10.1677V10.6677H46.8651L46.8854 10.6661L46.8448 10.1677ZM47.0556 10.1256L46.9842 9.63068L46.9418 9.63679L46.9011 9.65003L47.0556 10.1256ZM47.194 10.0953L47.3357 10.5748L47.3639 10.5665L47.391 10.5549L47.194 10.0953ZM47.2637 10.0476L47.0441 9.59844L47.0323 9.6042L47.0209 9.61056L47.2637 10.0476ZM47.4873 9.89089L47.2006 9.48127L47.1684 9.50382L47.1401 9.53114L47.4873 9.89089ZM47.4965 9.88448L47.7832 10.2941L47.8513 10.2465L47.9003 10.1793L47.4965 9.88448ZM47.5597 9.78456L47.1734 9.46716L47.1429 9.5043L47.12 9.54656L47.5597 9.78456ZM47.6798 9.59298L48.1341 9.80194L48.1444 9.77942L48.1525 9.75598L47.6798 9.59298ZM47.7257 9.36657L47.244 9.2323L47.2302 9.28189L47.2268 9.33326L47.7257 9.36657ZM47.7486 9.25107L48.245 9.31076L48.2486 9.28103V9.25107H47.7486ZM45.9153 7.22712L45.5984 7.61388L46.4153 8.28318V7.22712H45.9153ZM7.22608 11.0692L6.83932 10.7524L6.83932 10.7524L7.22608 11.0692ZM1.01615 27.5409L0.51645 27.5236L0.516431 27.5241L1.01615 27.5409ZM15.4473 50.6045L15.7022 50.1744L15.7021 50.1744L15.4473 50.6045ZM13.2345 49.137L12.9248 49.5295L12.9311 49.5345L12.9376 49.5393L13.2345 49.137ZM12.099 50.5764L11.7893 50.9689L11.7903 50.9697L12.099 50.5764ZM12.1446 50.6102L12.4421 50.2083L12.4356 50.2035L12.4289 50.1988L12.1446 50.6102ZM14.5123 52.1822L14.2574 52.6123L14.2574 52.6124L14.5123 52.1822ZM15.7685 51.8609L15.3384 51.606L15.3384 51.606L15.7685 51.8609ZM7.66185 43.4895L8.07361 43.2057L8.06775 43.1976L7.66185 43.4895ZM6.22455 41.2593L6.65808 41.0102L6.65776 41.0097L6.22455 41.2593ZM4.63417 42.176L5.06751 41.9266L5.06738 41.9263L4.63417 42.176ZM6.17414 44.5602L5.76848 44.8526L5.77431 44.8604L6.17414 44.5602ZM7.45755 44.7427L7.15733 44.3429L7.15732 44.3429L7.45755 44.7427ZM3.39115 33.8549L2.90191 33.9581L2.90196 33.9583L3.39115 33.8549ZM2.97683 31.2342L2.47961 31.2869L2.47962 31.287L2.97683 31.2342ZM1.1527 31.4276L0.655486 31.4803L0.655511 31.4806L1.1527 31.4276ZM1.59819 34.2344L2.08733 34.1307L2.08733 34.1307L1.59819 34.2344ZM25.4292 53.9833L25.3701 54.4798L25.3701 54.4798L25.4292 53.9833ZM22.8149 53.5342L22.7047 54.0219L22.7049 54.0219L22.8149 53.5342ZM22.4107 55.3226L22.3004 55.8103L22.3007 55.8103L22.4107 55.3226ZM25.2128 55.8038L25.2735 55.3075L25.2719 55.3073L25.2128 55.8038ZM25.3228 55.8102L25.3218 55.3102L25.3213 55.3102L25.3228 55.8102ZM26.2375 54.8916L25.7375 54.8926L25.7375 54.8926L26.2375 54.8916ZM52.8425 39.2337L53.0605 38.7838L53.0598 38.7834L52.8425 39.2337ZM51.6186 39.66L51.1686 39.4421L51.1685 39.4423L51.6186 39.66ZM50.3408 41.9855L49.9157 41.7222L49.9113 41.7295L50.3408 41.9855ZM50.6591 43.2421L50.9151 42.8126L50.915 42.8125L50.6591 43.2421ZM51.8991 42.9507L52.3197 43.2213L52.3243 43.2137L51.8991 42.9507ZM53.2677 40.4584L52.8177 40.2403L52.8175 40.2407L53.2677 40.4584ZM55.0973 28.5437L55.0718 29.0431L55.0796 29.0434L55.0973 28.5437ZM54.1496 29.3994L53.6503 29.374L53.6502 29.3748L54.1496 29.3994ZM54.1486 29.4274L54.6483 29.4449L54.6484 29.4397L54.1486 29.4274ZM53.9185 32.071L53.4233 32.002L53.4232 32.0027L53.9185 32.071ZM54.6995 33.1041L54.7715 32.6093L54.7689 32.6089L54.6995 33.1041ZM54.8278 33.1132L54.8271 32.6132L54.8265 32.6132L54.8278 33.1132ZM55.7344 32.3231L56.2296 32.392L56.2296 32.3919L55.7344 32.3231ZM55.981 29.4916L56.4806 29.5094L56.4807 29.5089L55.981 29.4916ZM45.1804 48.0067L44.8555 47.6267L44.6804 47.7764V48.0067H45.1804ZM45.1804 48.0094L45.5051 48.3897L45.6804 48.24V48.0094H45.1804ZM43.0722 49.6301L42.7882 49.2186L42.7879 49.2188L43.0722 49.6301ZM44.1171 51.1416L44.4014 51.5529L44.4023 51.5523L44.1171 51.1416ZM46.3721 49.4L46.0471 49.02L46.0468 49.0203L46.3721 49.4ZM46.4729 48.1075L46.0929 48.4324L46.0929 48.4325L46.4729 48.1075ZM35.9328 53.074L35.8003 52.5917L35.7885 52.5952L35.9328 53.074ZM33.357 53.7064L33.2631 53.2153L33.2625 53.2154L33.357 53.7064ZM32.63 54.7797L33.121 54.6853L33.121 54.6852L32.63 54.7797ZM33.5284 55.5232L33.5304 55.0232L33.5293 55.0232L33.5284 55.5232ZM33.7016 55.5076L33.7923 55.9994L33.7955 55.9988L33.7016 55.5076ZM36.4626 54.8284L36.6074 55.3072L36.6191 55.3033L36.4626 54.8284ZM37.0463 53.6709L36.5714 53.8274L36.5714 53.8274L37.0463 53.6709ZM28.4991 9.25093L28.4996 8.75093H28.4991V9.25093ZM47.7486 28.5005L48.2486 28.5005L48.2486 28.4999L47.7486 28.5005ZM45.8686 29.4171L46.3679 29.4439L46.3961 28.9171H45.8686V29.4171ZM29.4157 45.87H28.9157V46.3975L29.4425 46.3693L29.4157 45.87ZM27.5824 45.87L27.5556 46.3693L28.0824 46.3975V45.87H27.5824ZM11.1295 29.4171V28.9171H10.602L10.6303 29.4439L11.1295 29.4171ZM11.1295 27.5838L10.6303 27.5571L10.602 28.0838H11.1295V27.5838ZM27.5824 11.131H28.0824V10.6034L27.5556 10.6317L27.5824 11.131ZM29.4157 11.131L29.4425 10.6317L28.9157 10.6034V11.131H29.4157ZM45.8686 27.5838V28.0838H46.3961L46.3679 27.5571L45.8686 27.5838ZM29.4157 25.9193H28.9157V26.2736L29.2499 26.391L29.4157 25.9193ZM27.5824 25.9193L27.7506 26.3902L28.0824 26.2717V25.9193H27.5824ZM25.9178 27.5839V28.0839H26.2701L26.3886 27.7521L25.9178 27.5839ZM25.9178 29.4172L26.3895 29.2515L26.272 28.9172H25.9178V29.4172ZM31.0945 27.5982L30.6228 27.7639L30.6228 27.7639L31.0945 27.5982ZM1.90071 28.9878H1.9328V27.9878H1.90071V28.9878ZM1.93245 28.9878C2.6965 28.9883 3.32312 28.3828 3.34915 27.6194L2.34973 27.5853C2.34207 27.81 2.1577 27.988 1.93314 27.9878L1.93245 28.9878ZM3.34914 27.6198C3.83538 13.7295 15.4899 2.86336 29.3802 3.34949L29.4152 2.3501C14.9729 1.84465 2.85531 13.1426 2.34975 27.5848L3.34914 27.6198ZM29.3802 3.34949C34.723 3.53655 39.8675 5.42008 44.0678 8.72727L44.6865 7.94158C40.3192 4.50296 34.9703 2.54459 29.4152 2.3501L29.3802 3.34949ZM44.3772 7.83443H39.4988V8.83443H44.3772V7.83443ZM39.4988 7.83443C38.7164 7.83443 38.0821 8.46871 38.0821 9.25107H39.0821C39.0821 9.021 39.2687 8.83443 39.4988 8.83443V7.83443ZM38.0821 9.25107C38.0821 10.0334 38.7164 10.6677 39.4988 10.6677V9.66772C39.2687 9.66772 39.0821 9.48115 39.0821 9.25107H38.0821ZM46.8854 10.6661C46.9955 10.6571 47.1044 10.6354 47.2101 10.6011L46.9011 9.65003C46.8699 9.66015 46.8375 9.66666 46.8042 9.66937L46.8854 10.6661ZM47.127 10.6204C47.1975 10.6103 47.2672 10.5951 47.3357 10.5748L47.0523 9.6158C47.0301 9.62237 47.0074 9.62733 46.9842 9.63068L47.127 10.6204ZM47.391 10.5549C47.4341 10.5364 47.468 10.5157 47.4917 10.4998C47.5145 10.4844 47.5327 10.47 47.54 10.4641C47.5519 10.4547 47.5474 10.4583 47.5455 10.4597C47.541 10.463 47.5271 10.4733 47.5065 10.4847L47.0209 9.61056C46.9879 9.62887 46.9623 9.64714 46.9465 9.65897C46.9384 9.665 46.9316 9.67036 46.9271 9.67388C46.9249 9.67565 46.9228 9.67731 46.9214 9.6784C46.9198 9.67968 46.9191 9.6803 46.9183 9.68088C46.9169 9.68203 46.9179 9.68123 46.92 9.67965C46.9222 9.67798 46.9266 9.67468 46.9328 9.67054C46.9448 9.66241 46.9668 9.6487 46.997 9.63573L47.391 10.5549ZM47.4833 10.4968C47.6126 10.4336 47.7311 10.3505 47.8346 10.2506L47.1401 9.53114C47.1118 9.55849 47.0793 9.58122 47.0441 9.59844L47.4833 10.4968ZM47.7741 10.3005L47.7832 10.2941L47.2098 9.47485L47.2006 9.48127L47.7741 10.3005ZM47.9003 10.1793C47.9362 10.1301 47.9696 10.0778 47.9995 10.0226L47.12 9.54656C47.1124 9.56072 47.1033 9.57512 47.0927 9.58962L47.9003 10.1793ZM47.9461 10.102C48.021 10.0108 48.0844 9.91002 48.1341 9.80194L47.2256 9.38403C47.2121 9.41345 47.1945 9.44146 47.1734 9.46716L47.9461 10.102ZM48.1525 9.75598C48.192 9.64136 48.2164 9.52169 48.2246 9.39988L47.2268 9.33326C47.2246 9.36591 47.218 9.3984 47.2071 9.42999L48.1525 9.75598ZM48.2073 9.50085C48.2246 9.43873 48.2373 9.37518 48.245 9.31076L47.2522 9.19139C47.2505 9.20511 47.2478 9.21879 47.244 9.2323L48.2073 9.50085ZM48.2486 9.25107V1.91791H47.2486V9.25107H48.2486ZM48.2486 1.91791C48.2486 1.13555 47.6143 0.501264 46.8319 0.501264V1.50126C47.062 1.50126 47.2486 1.68783 47.2486 1.91791H48.2486ZM46.8319 0.501264C46.0496 0.501264 45.4153 1.13555 45.4153 1.91791H46.4153C46.4153 1.68784 46.6019 1.50126 46.8319 1.50126V0.501264ZM45.4153 1.91791V7.22712H46.4153V1.91791H45.4153ZM46.2322 6.84036C34.2739 -2.95737 16.637 -1.206 6.83932 10.7524L7.61284 11.3861C17.0605 -0.145021 34.0674 -1.83383 45.5984 7.61388L46.2322 6.84036ZM6.83932 10.7524C2.95054 15.4987 0.729013 21.3913 0.51645 27.5236L1.51585 27.5582C1.72082 21.6451 3.86298 15.9629 7.61284 11.3861L6.83932 10.7524ZM0.516431 27.5241C0.490225 28.3055 1.10199 28.9606 1.8835 28.9875L1.91792 27.9881C1.68814 27.9802 1.50816 27.7876 1.51587 27.5577L0.516431 27.5241ZM15.7021 50.1744C14.955 49.7318 14.2305 49.2507 13.5314 48.7347L12.9376 49.5393C13.6633 50.0749 14.4158 50.5747 15.1924 51.0347L15.7021 50.1744ZM13.5442 48.7445C12.9298 48.2598 12.0391 48.365 11.5545 48.9792L12.3396 49.5986C12.4822 49.4179 12.7441 49.387 12.9248 49.5295L13.5442 48.7445ZM11.5545 48.9792C11.0698 49.5936 11.1751 50.4843 11.7893 50.9689L12.4087 50.1838C12.2279 50.0412 12.1971 49.7793 12.3396 49.5986L11.5545 48.9792ZM11.7903 50.9697C11.8108 50.9858 11.8343 51.0035 11.8603 51.0215L12.4289 50.1988C12.4237 50.1953 12.4169 50.1903 12.4076 50.183L11.7903 50.9697ZM11.8471 51.012C12.6228 51.5863 13.4272 52.1204 14.2574 52.6123L14.7672 51.7521C13.9664 51.2775 13.1903 50.7622 12.4421 50.2083L11.8471 51.012ZM14.2574 52.6124C14.9305 53.0112 15.7997 52.7891 16.1987 52.1158L15.3384 51.606C15.2211 51.804 14.9653 51.8695 14.7672 51.7521L14.2574 52.6124ZM16.1987 52.1159C16.5977 51.4425 16.3754 50.5733 15.7022 50.1744L15.1924 51.0347C15.3904 51.1521 15.4559 51.4078 15.3384 51.606L16.1987 52.1159ZM8.06775 43.1976C7.56096 42.493 7.09055 41.7629 6.65808 41.0102L5.79102 41.5084C6.24037 42.2905 6.72922 43.0492 7.25595 43.7815L8.06775 43.1976ZM6.65776 41.0097C6.26674 40.3312 5.39977 40.0983 4.72138 40.4893L5.2207 41.3557C5.42068 41.2404 5.67615 41.3091 5.79134 41.509L6.65776 41.0097ZM4.72138 40.4893C4.04289 40.8803 3.81 41.7473 4.20096 42.4256L5.06738 41.9263C4.95213 41.7263 5.02082 41.4709 5.2207 41.3557L4.72138 40.4893ZM4.20083 42.4254C4.68165 43.2607 5.20493 44.0708 5.76856 44.8526L6.57971 44.2678C6.03604 43.5137 5.53129 42.7323 5.06751 41.9266L4.20083 42.4254ZM5.77431 44.8604C6.24414 45.4861 7.1322 45.6123 7.75779 45.1425L7.15732 44.3429C6.97329 44.4811 6.7121 44.4439 6.57396 44.2599L5.77431 44.8604ZM7.75778 45.1425C8.36553 44.6862 8.50489 43.8316 8.07353 43.2058L7.25018 43.7733C7.37705 43.9574 7.33606 44.2087 7.15733 44.3429L7.75778 45.1425ZM2.68487 35.4412C2.68487 35.4412 2.68487 35.4412 2.68487 35.4412C2.68487 35.4412 2.68487 35.4412 2.68488 35.4412C2.68488 35.4412 2.68488 35.4412 2.68488 35.4412C2.68488 35.4412 2.68488 35.4412 2.68488 35.4412C2.68488 35.4412 2.68488 35.4412 2.68488 35.4412C2.68488 35.4412 2.68488 35.4412 2.68488 35.4412C2.68488 35.4412 2.68488 35.4412 2.68488 35.4412C2.68488 35.4412 2.68488 35.4412 2.68488 35.4412C2.68488 35.4412 2.68488 35.4412 2.68488 35.4412C2.68488 35.4412 2.68488 35.4412 2.68488 35.4412C2.68488 35.4412 2.68488 35.4412 2.68488 35.4412C2.68488 35.4412 2.68488 35.4412 2.68488 35.4412C2.68488 35.4412 2.68488 35.4412 2.68488 35.4412C2.68488 35.4412 2.68488 35.4412 2.68488 35.4412C2.68488 35.4412 2.68488 35.4412 2.68488 35.4412C2.68488 35.4412 2.68488 35.4412 2.68488 35.4412C2.68488 35.4412 2.68488 35.4412 2.68488 35.4412C2.68488 35.4412 2.68488 35.4412 2.68488 35.4412C2.68488 35.4412 2.68488 35.4412 2.68489 35.4412C2.68489 35.4412 2.68489 35.4412 2.68489 35.4412C2.68489 35.4412 2.68489 35.4412 2.68489 35.4412C2.68489 35.4412 2.68489 35.4412 2.68489 35.4412C2.68489 35.4412 2.68489 35.4412 2.68489 35.4412C2.68489 35.4412 2.68489 35.4412 2.68489 35.4412C2.68489 35.4412 2.68489 35.4412 2.68489 35.4412C2.68489 35.4412 2.68489 35.4412 2.68489 35.4412C2.68489 35.4412 2.68489 35.4412 2.68489 35.4412C2.68489 35.4412 2.68489 35.4412 2.68489 35.4412C2.68489 35.4412 2.68489 35.4412 2.68489 35.4412C2.68489 35.4412 2.68489 35.4412 2.68489 35.4412C2.68489 35.4412 2.68489 35.4412 2.68489 35.4412C2.68489 35.4412 2.68489 35.4412 2.68489 35.4412C2.68489 35.4412 2.68489 35.4412 2.68489 35.4412C2.68489 35.4412 2.68489 35.4412 2.68489 35.4412C2.68489 35.4412 2.68489 35.4412 2.68489 35.4412C2.68489 35.4412 2.68489 35.4412 2.68489 35.4412C2.68489 35.4412 2.68489 35.4412 2.68489 35.4412C2.68489 35.4412 2.68489 35.4412 2.68489 35.4412C2.68489 35.4412 2.68489 35.4412 2.68489 35.4412C2.68489 35.4412 2.68489 35.4412 2.68489 35.4412C2.68489 35.4412 2.68489 35.4412 2.68489 35.4412C2.6849 35.4412 2.6849 35.4412 2.6849 35.4412C2.6849 35.4412 2.6849 35.4412 2.6849 35.4412C2.6849 35.4412 2.6849 35.4412 2.6849 35.4412C2.6849 35.4412 2.6849 35.4412 2.6849 35.4412C2.6849 35.4412 2.6849 35.4412 2.6849 35.4412C2.6849 35.4412 2.6849 35.4412 2.6849 35.4412C2.6849 35.4412 2.6849 35.4412 2.6849 35.4412C2.6849 35.4412 2.6849 35.4412 2.6849 35.4412C2.6849 35.4412 2.6849 35.4412 2.6849 35.4412C2.6849 35.4412 2.6849 35.4412 2.6849 35.4412C2.6849 35.4412 2.6849 35.4412 2.6849 35.4412C2.6849 35.4412 2.6849 35.4412 2.6849 35.4412C2.6849 35.4412 2.6849 35.4412 2.6849 35.4412C2.6849 35.4412 2.6849 35.4412 2.6849 35.4412C2.6849 35.4412 2.6849 35.4412 2.6849 35.4412C2.6849 35.4412 2.6849 35.4412 2.6849 35.4412C2.6849 35.4412 2.6849 35.4412 2.6849 35.4412C2.6849 35.4412 2.6849 35.4412 2.6849 35.4412C2.6849 35.4412 2.6849 35.4412 2.6849 35.4412C2.6849 35.4412 2.6849 35.4412 2.6849 35.4412C2.6849 35.4412 2.6849 35.4412 2.6849 35.4412C2.6849 35.4412 2.6849 35.4412 2.6849 35.4412C2.6849 35.4412 2.6849 35.4412 2.6849 35.4412C2.6849 35.4412 2.6849 35.4412 2.6849 35.4412C2.6849 35.4412 2.6849 35.4412 2.6849 35.4412C2.6849 35.4412 2.6849 35.4412 2.6849 35.4412C2.6849 35.4412 2.6849 35.4412 2.6849 35.4412C2.6849 35.4412 2.6849 35.4412 2.6849 35.4412C2.6849 35.4412 2.6849 35.4412 2.6849 35.4412C2.6849 35.4412 2.6849 35.4412 2.6849 35.4412C2.6849 35.4412 2.6849 35.4412 2.6849 35.4412C2.6849 35.4412 2.6849 35.4412 2.6849 35.4412C2.6849 35.4412 2.6849 35.4412 2.6849 35.4412C2.6849 35.4412 2.6849 35.4412 2.6849 35.4412C2.6849 35.4412 2.6849 35.4412 2.6849 35.4412C2.6849 35.4412 2.6849 35.4412 2.6849 35.4412C2.6849 35.4412 2.6849 35.4412 2.6849 35.4412C2.6849 35.4412 2.6849 35.4412 2.6849 35.4412C2.6849 35.4412 2.6849 35.4412 2.6849 35.4412C2.6849 35.4412 2.6849 35.4412 2.6849 35.4412C2.68491 35.4412 2.68491 35.4412 2.68491 35.4412C2.68491 35.4412 2.68491 35.4412 2.68491 35.4412C2.68491 35.4412 2.68491 35.4412 2.68491 35.4412C2.68491 35.4412 2.68491 35.4412 2.68491 35.4412C2.68491 35.4412 2.68491 35.4412 2.68491 35.4412C2.68491 35.4412 2.68491 35.4412 2.68491 35.4412C2.68491 35.4412 2.68491 35.4412 2.68491 35.4412C2.68491 35.4412 2.68491 35.4412 2.68491 35.4412C2.68491 35.4412 2.68491 35.4412 2.68491 35.4412C2.68491 35.4412 2.68491 35.4412 2.68491 35.4412C2.68491 35.4412 2.68491 35.4412 2.68491 35.4412C2.68491 35.4412 2.68491 35.4412 2.68491 35.4412C2.68491 35.4412 2.68491 35.4412 2.68491 35.4412C2.68491 35.4412 2.68491 35.4412 2.68491 35.4412C2.68491 35.4412 2.68491 35.4412 2.68491 35.4412C2.68491 35.4412 2.68491 35.4412 2.68491 35.4412C2.68491 35.4412 2.68491 35.4412 2.68491 35.4412C2.68491 35.4412 2.68491 35.4412 2.68491 35.4412C2.68491 35.4412 2.68491 35.4412 2.68491 35.4412C2.68491 35.4412 2.68491 35.4412 2.68491 35.4412C2.68491 35.4412 2.68491 35.4412 2.68491 35.4412C2.68491 35.4412 2.68491 35.4412 2.68491 35.4412C2.68491 35.4412 2.68491 35.4412 2.68491 35.4412C2.68491 35.4412 2.68491 35.4412 2.68491 35.4412C2.68491 35.4412 2.68491 35.4412 2.68491 35.4412C2.68491 35.4412 2.68491 35.4412 2.68491 35.4412C2.68491 35.4412 2.68491 35.4412 2.68491 35.4412C2.68491 34.9412 2.68491 34.4412 2.68491 34.4412C2.68491 34.4412 2.68491 34.4412 2.68491 34.4412C2.68491 34.4412 2.68491 34.4412 2.68491 34.4412C2.68491 34.4412 2.68491 34.4412 2.68491 34.4412C2.68491 34.4412 2.68491 34.4412 2.68491 34.4412C2.68491 34.4412 2.68491 34.4412 2.68491 34.4412C2.68491 34.4412 2.68491 34.4412 2.68491 34.4412C2.68491 34.4412 2.68491 34.4412 2.68491 34.4412C2.68491 34.4412 2.68491 34.4412 2.68491 34.4412C2.68491 34.4412 2.68491 34.4412 2.68491 34.4412C2.68491 34.4412 2.68491 34.4412 2.68491 34.4412C2.68491 34.4412 2.68491 34.4412 2.68491 34.4412C2.68491 34.4412 2.68491 34.4412 2.68491 34.4412C2.68491 34.4412 2.68491 34.4412 2.68491 34.4412C2.68491 34.4412 2.68491 34.4412 2.68491 34.4412C2.68491 34.4412 2.68491 34.4412 2.68491 34.4412C2.68491 34.4412 2.68491 34.4412 2.68491 34.4412C2.68491 34.4412 2.68491 34.4412 2.68491 34.4412C2.68491 34.4412 2.68491 34.4412 2.68491 34.4412C2.68491 34.4412 2.68491 34.4412 2.68491 34.4412C2.68491 34.4412 2.68491 34.4412 2.68491 34.4412C2.68491 34.4412 2.68491 34.4412 2.68491 34.4412C2.68491 34.4412 2.68491 34.4412 2.68491 34.4412C2.68491 34.4412 2.68491 34.4412 2.68491 34.4412C2.68491 34.4412 2.68491 34.4412 2.68491 34.4412C2.68491 34.4412 2.68491 34.4412 2.68491 34.4412C2.68491 34.4412 2.68491 34.4412 2.68491 34.4412C2.68491 34.4412 2.68491 34.4412 2.68491 34.4412C2.68491 34.4412 2.68491 34.4412 2.68491 34.4412C2.6849 34.4412 2.6849 34.4412 2.6849 34.4412C2.6849 34.4412 2.6849 34.4412 2.6849 34.4412C2.6849 34.4412 2.6849 34.4412 2.6849 34.4412C2.6849 34.4412 2.6849 34.4412 2.6849 34.4412C2.6849 34.4412 2.6849 34.4412 2.6849 34.4412C2.6849 34.4412 2.6849 34.4412 2.6849 34.4412C2.6849 34.4412 2.6849 34.4412 2.6849 34.4412C2.6849 34.4412 2.6849 34.4412 2.6849 34.4412C2.6849 34.4412 2.6849 34.4412 2.6849 34.4412C2.6849 34.4412 2.6849 34.4412 2.6849 34.4412C2.6849 34.4412 2.6849 34.4412 2.6849 34.4412C2.6849 34.4412 2.6849 34.4412 2.6849 34.4412C2.6849 34.4412 2.6849 34.4412 2.6849 34.4412C2.6849 34.4412 2.6849 34.4412 2.6849 34.4412C2.6849 34.4412 2.6849 34.4412 2.6849 34.4412C2.6849 34.4412 2.6849 34.4412 2.6849 34.4412C2.6849 34.4412 2.6849 34.4412 2.6849 34.4412C2.6849 34.4412 2.6849 34.4412 2.6849 34.4412C2.6849 34.4412 2.6849 34.4412 2.6849 34.4412C2.6849 34.4412 2.6849 34.4412 2.6849 34.4412C2.6849 34.4412 2.6849 34.4412 2.6849 34.4412C2.6849 34.4412 2.6849 34.4412 2.6849 34.4412C2.6849 34.4412 2.6849 34.4412 2.6849 34.4412C2.6849 34.4412 2.6849 34.4412 2.6849 34.4412C2.6849 34.4412 2.6849 34.4412 2.6849 34.4412C2.6849 34.4412 2.6849 34.4412 2.6849 34.4412C2.6849 34.4412 2.6849 34.4412 2.6849 34.4412C2.6849 34.4412 2.6849 34.4412 2.6849 34.4412C2.6849 34.4412 2.6849 34.4412 2.6849 34.4412C2.6849 34.4412 2.6849 34.4412 2.6849 34.4412C2.6849 34.4412 2.6849 34.4412 2.6849 34.4412C2.6849 34.4412 2.6849 34.4412 2.6849 34.4412C2.6849 34.4412 2.6849 34.4412 2.6849 34.4412C2.6849 34.4412 2.6849 34.4412 2.6849 34.4412C2.6849 34.4412 2.6849 34.4412 2.6849 34.4412C2.6849 34.4412 2.6849 34.4412 2.6849 34.4412C2.6849 34.4412 2.6849 34.4412 2.6849 34.4412C2.6849 34.4412 2.6849 34.4412 2.6849 34.4412C2.6849 34.4412 2.6849 34.4412 2.6849 34.4412C2.6849 34.4412 2.6849 34.4412 2.6849 34.4412C2.6849 34.4412 2.6849 34.4412 2.6849 34.4412C2.6849 34.4412 2.6849 34.4412 2.6849 34.4412C2.6849 34.4412 2.6849 34.4412 2.6849 34.4412C2.6849 34.4412 2.6849 34.4412 2.6849 34.4412C2.6849 34.4412 2.6849 34.4412 2.6849 34.4412C2.6849 34.4412 2.6849 34.4412 2.6849 34.4412C2.6849 34.4412 2.6849 34.4412 2.6849 34.4412C2.6849 34.4412 2.6849 34.4412 2.6849 34.4412C2.6849 34.4412 2.6849 34.4412 2.6849 34.4412C2.6849 34.4412 2.6849 34.4412 2.6849 34.4412C2.6849 34.4412 2.6849 34.4412 2.68489 34.4412C2.68489 34.4412 2.68489 34.4412 2.68489 34.4412C2.68489 34.4412 2.68489 34.4412 2.68489 34.4412C2.68489 34.4412 2.68489 34.4412 2.68489 34.4412C2.68489 34.4412 2.68489 34.4412 2.68489 34.4412C2.68489 34.4412 2.68489 34.4412 2.68489 34.4412C2.68489 34.4412 2.68489 34.4412 2.68489 34.4412C2.68489 34.4412 2.68489 34.4412 2.68489 34.4412C2.68489 34.4412 2.68489 34.4412 2.68489 34.4412C2.68489 34.4412 2.68489 34.4412 2.68489 34.4412C2.68489 34.4412 2.68489 34.4412 2.68489 34.4412C2.68489 34.4412 2.68489 34.4412 2.68489 34.4412C2.68489 34.4412 2.68489 34.4412 2.68489 34.4412C2.68489 34.4412 2.68489 34.4412 2.68489 34.4412C2.68489 34.4412 2.68489 34.4412 2.68489 34.4412C2.68489 34.4412 2.68489 34.4412 2.68489 34.4412C2.68489 34.4412 2.68489 34.4412 2.68489 34.4412C2.68489 34.4412 2.68489 34.4412 2.68489 34.4412C2.68489 34.4412 2.68489 34.4412 2.68489 34.4412C2.68489 34.4412 2.68489 34.4412 2.68489 34.4412C2.68489 34.4412 2.68489 34.4412 2.68489 34.4412C2.68489 34.4412 2.68489 34.4412 2.68489 34.4412C2.68489 34.4412 2.68489 34.4412 2.68489 34.4412C2.68489 34.4412 2.68489 34.4412 2.68489 34.4412C2.68489 34.4412 2.68489 34.4412 2.68489 34.4412C2.68489 34.4412 2.68489 34.4412 2.68489 34.4412C2.68489 34.4412 2.68489 34.4412 2.68489 34.4412C2.68489 34.4412 2.68489 34.4412 2.68489 34.4412C2.68489 34.4412 2.68489 34.4412 2.68489 34.4412C2.68489 34.4412 2.68489 34.4412 2.68489 34.4412C2.68489 34.4412 2.68489 34.4412 2.68489 34.4412C2.68489 34.4412 2.68489 34.4412 2.68489 34.4412C2.68489 34.4412 2.68489 34.4412 2.68489 34.4412C2.68489 34.4412 2.68489 34.4412 2.68489 34.4412C2.68489 34.4412 2.68489 34.4412 2.68488 34.4412C2.68488 34.4412 2.68488 34.4412 2.68488 34.4412C2.68488 34.4412 2.68488 34.4412 2.68488 34.4412C2.68488 34.4412 2.68488 34.4412 2.68488 34.4412C2.68488 34.4412 2.68488 34.4412 2.68488 34.4412C2.68488 34.4412 2.68488 34.4412 2.68488 34.4412C2.68488 34.4412 2.68488 34.4412 2.68488 34.4412C2.68488 34.4412 2.68488 34.4412 2.68488 34.4412C2.68488 34.4412 2.68488 34.4412 2.68488 34.4412C2.68488 34.4412 2.68488 34.4412 2.68488 34.4412C2.68488 34.4412 2.68488 34.4412 2.68488 34.4412C2.68488 34.4412 2.68488 34.4412 2.68488 34.4412C2.68488 34.4412 2.68488 34.4412 2.68488 34.4412C2.68488 34.4412 2.68488 34.4412 2.68488 34.4412C2.68488 34.4412 2.68488 34.4412 2.68488 34.4412C2.68488 34.4412 2.68488 34.4412 2.68488 34.4412C2.68488 34.4412 2.68488 34.4412 2.68488 34.4412C2.68488 34.4412 2.68488 34.4412 2.68488 34.4412C2.68488 34.4412 2.68488 34.4412 2.68488 34.4412C2.68488 34.4412 2.68488 34.4412 2.68488 34.4412C2.68488 34.4412 2.68488 34.4412 2.68488 34.4412C2.68488 34.4412 2.68488 34.4412 2.68488 34.4412C2.68488 34.4412 2.68488 34.4412 2.68488 34.4412C2.68488 34.4412 2.68488 34.4412 2.68488 34.4412C2.68488 34.4412 2.68488 34.4412 2.68488 34.4412C2.68488 34.4412 2.68488 34.4412 2.68488 34.4412C2.68488 34.4412 2.68488 34.4412 2.68488 34.4412C2.68488 34.4412 2.68488 34.4412 2.68488 34.4412C2.68488 34.4412 2.68488 34.4412 2.68488 34.4412C2.68488 34.4412 2.68488 34.4412 2.68488 34.4412C2.68488 34.4412 2.68488 34.4412 2.68488 34.4412C2.68487 34.4412 2.68487 34.4412 2.68487 34.4412C2.68487 34.4412 2.68487 34.4412 2.68487 34.4412C2.68487 34.4412 2.68487 34.4412 2.68487 34.4412C2.68487 34.4412 2.68487 34.4412 2.68487 34.4412C2.68487 34.4412 2.68487 34.4412 2.68487 34.4412C2.68487 34.4412 2.68487 34.4412 2.68487 34.4412C2.68487 34.4412 2.68487 34.4412 2.68487 34.4412C2.68487 34.4412 2.68487 34.4412 2.68487 34.4412C2.68487 34.4412 2.68487 34.4412 2.68487 34.4412C2.68487 34.4412 2.68487 34.4412 2.68487 34.4412C2.68487 34.4412 2.68487 34.4412 2.68487 34.4412C2.68487 34.4412 2.68487 34.4412 2.68487 34.4412C2.68487 34.4412 2.68487 34.4412 2.68487 34.4412C2.68487 34.4412 2.68487 34.4412 2.68487 34.4412C2.68487 34.4412 2.68487 34.4412 2.68487 34.4412C2.68487 34.4412 2.68487 34.4412 2.68487 34.4412C2.68487 34.4412 2.68487 34.4412 2.68487 34.4412C2.68487 34.4412 2.68487 34.4412 2.68487 34.4412C2.68487 34.4412 2.68487 34.4412 2.68487 34.4412C2.68487 34.4412 2.68487 34.4412 2.68487 34.4412C2.68487 34.4412 2.68487 34.4412 2.68487 34.4412C2.68487 34.4412 2.68487 34.4412 2.68487 34.4412C2.68487 34.4412 2.68487 34.4412 2.68487 34.4412C2.68487 34.4412 2.68487 34.4412 2.68487 34.4412C2.68487 34.4412 2.68487 34.4412 2.68487 34.4412C2.68487 34.4412 2.68487 34.4412 2.68487 34.4412C2.68487 34.4412 2.68487 34.4412 2.68487 34.4412C2.68487 34.4412 2.68487 34.4412 2.68487 34.4412C2.68487 34.4412 2.68487 34.4412 2.68487 34.4412C2.68487 34.4412 2.68487 34.4412 2.68487 34.4412C2.68486 34.4412 2.68486 34.4412 2.68486 34.4412C2.68486 34.4412 2.68486 34.4412 2.68486 34.4412C2.68486 34.4412 2.68486 34.4412 2.68486 34.4412C2.68486 34.4412 2.68486 34.4412 2.68486 34.4412C2.68486 34.4412 2.68486 34.4412 2.68486 34.4412C2.68486 34.4412 2.68486 34.4412 2.68486 34.4412C2.68486 34.4412 2.68486 34.4412 2.68486 34.4412C2.68486 34.4412 2.68486 34.4412 2.68486 34.4412C2.68486 34.4412 2.68486 34.4412 2.68486 34.4412C2.68486 34.4412 2.68486 34.4412 2.68486 34.4412C2.68486 34.4412 2.68486 34.4412 2.68486 34.4412C2.68486 34.4412 2.68486 34.4412 2.68486 34.4412C2.68486 34.4412 2.68486 34.4412 2.68486 34.4412C2.68486 34.4412 2.68486 34.4412 2.68486 34.4412C2.68486 34.4412 2.68486 34.4412 2.68486 34.4412C2.68486 34.4412 2.68486 34.4412 2.68486 34.4412C2.68486 34.4412 2.68486 34.4412 2.68486 34.4412C2.68486 34.4412 2.68486 34.4412 2.68486 34.4412C2.68486 34.4412 2.68486 34.4412 2.68486 34.4412C2.68486 34.4412 2.68486 34.4412 2.68486 34.4412C2.68486 34.4412 2.68486 34.4412 2.68486 34.4412C2.68486 34.4412 2.68486 34.4412 2.68486 34.4412C2.68486 34.4412 2.68486 34.4412 2.68486 34.4412C2.68486 34.4412 2.68486 34.4412 2.68486 34.4412C2.68486 34.4412 2.68486 34.4412 2.68486 34.4412C2.68486 34.4412 2.68486 34.4412 2.68486 34.4412C2.68486 34.4412 2.68486 34.4412 2.68486 34.4412C2.68486 34.4412 2.68486 34.4412 2.68486 34.4412C2.68486 34.4412 2.68486 34.4412 2.68486 34.4412C2.68486 34.4412 2.68486 34.4412 2.68486 34.4412C2.68486 34.4412 2.68486 34.4412 2.68486 34.4412C2.68486 34.4412 2.68486 34.4412 2.68486 34.4412C2.68486 34.4412 2.68486 34.4412 2.68485 34.4412C2.68485 34.4412 2.68485 34.4412 2.68485 34.4412C2.68485 34.4412 2.68485 34.4412 2.68485 34.4412C2.68485 34.4412 2.68485 34.4412 2.68485 34.4412C2.68485 34.4412 2.68485 34.4412 2.68485 34.4412C2.68485 34.4412 2.68485 34.4412 2.68485 34.4412C2.68485 34.4412 2.68485 34.4412 2.68485 34.4412C2.68485 34.4412 2.68485 34.4412 2.68485 34.4412C2.68485 34.4412 2.68485 34.4412 2.68485 34.4412C2.68485 34.4412 2.68485 34.4412 2.68485 34.4412C2.68485 34.4412 2.68485 34.4412 2.68485 34.4412C2.68485 34.4412 2.68485 34.4412 2.68485 34.4412C2.68485 34.4412 2.68485 34.4412 2.68485 34.4412C2.68485 34.4412 2.68485 34.4412 2.68485 34.4412C2.68485 34.4412 2.68485 34.4412 2.68485 34.4412C2.68485 34.4412 2.68485 34.4412 2.68485 34.4412C2.68485 34.4412 2.68485 34.4412 2.68485 34.4412C2.68485 34.4412 2.68485 34.4412 2.68485 34.4412C2.68485 34.4412 2.68485 34.4412 2.68485 34.4412C2.68485 34.4412 2.68485 34.4412 2.68485 34.4412C2.68485 34.4412 2.68485 34.4412 2.68485 34.4412C2.68485 34.4412 2.68485 34.4412 2.68485 34.4412C2.68485 34.4412 2.68485 34.4412 2.68485 34.4412C2.68485 34.4412 2.68485 34.4412 2.68485 34.4412C2.68485 34.4412 2.68485 34.4412 2.68485 34.4412C2.68485 34.4412 2.68485 34.4412 2.68485 34.4412C2.68485 34.4412 2.68485 34.4412 2.68485 34.4412C2.68485 34.4412 2.68485 34.4412 2.68485 34.4412C2.68485 34.4412 2.68485 34.4412 2.68485 34.4412C2.68485 34.4412 2.68485 34.4412 2.68485 34.4412C2.68485 34.4412 2.68485 34.4412 2.68485 34.4412C2.68485 34.4412 2.68485 34.4412 2.68485 34.4412C2.68485 34.4412 2.68485 34.4412 2.68485 34.4412C2.68485 34.4412 2.68485 34.4412 2.68485 34.4412C2.68485 34.4412 2.68485 34.4412 2.68485 34.4412C2.68485 34.4412 2.68485 34.4412 2.68485 34.4412C2.68485 34.4412 2.68485 34.4412 2.68485 34.4412C2.68485 34.4412 2.68485 34.4412 2.68485 34.4412C2.68485 34.4412 2.68485 34.4412 2.68485 34.4412C2.68485 34.4412 2.68485 34.4412 2.68485 34.4412C2.68485 34.4412 2.68485 34.4412 2.68485 34.4412C2.68485 34.4412 2.68485 34.4412 2.68485 34.4412C2.68485 34.4412 2.68485 34.4412 2.68485 34.4412C2.68485 34.4412 2.68484 34.4412 2.68484 34.4412C2.68484 34.4412 2.68484 34.4412 2.68484 34.4412C2.68484 34.4412 2.68484 34.4412 2.68484 34.4412C2.68484 34.4412 2.68484 34.4412 2.68484 34.4412C2.68484 34.4412 2.68484 34.4412 2.68484 34.4412C2.68484 34.4412 2.68484 34.4412 2.68484 34.4412C2.68484 34.4412 2.68484 34.4412 2.68484 34.4412C2.68484 34.4412 2.68484 34.4412 2.68484 34.4412C2.68484 34.4412 2.68484 34.4412 2.68484 34.4412C2.68484 34.4412 2.68484 34.4412 2.68484 34.4412C2.68484 34.4412 2.68484 34.4412 2.68484 34.4412C2.68484 34.4412 2.68484 34.4412 2.68484 34.4412C2.68484 34.4412 2.68484 34.4412 2.68484 34.4412C2.68484 34.4412 2.68484 34.4412 2.68484 34.4412C2.68484 34.4412 2.68484 34.4412 2.68484 34.4412C2.68484 34.4412 2.68484 34.4412 2.68484 34.4412C2.68484 34.4412 2.68484 34.4412 2.68484 34.4412C2.68484 34.4412 2.68484 34.4412 2.68484 34.4412C2.68484 34.4412 2.68484 34.4412 2.68484 34.4412C2.68484 34.4412 2.68484 34.4412 2.68484 34.4412C2.68484 34.4412 2.68484 34.4412 2.68484 34.4412C2.68484 34.4412 2.68484 34.4412 2.68484 34.4412C2.68484 34.4412 2.68484 34.4412 2.68484 34.4412C2.68484 34.4412 2.68484 34.4412 2.68484 34.4412C2.68484 34.4412 2.68484 34.4412 2.68484 34.4412C2.68484 34.4412 2.68484 34.4412 2.68484 34.4412C2.68484 34.4412 2.68484 34.4412 2.68484 34.4412C2.68484 34.4412 2.68484 34.4412 2.68484 34.4412C2.68484 34.4412 2.68484 34.4412 2.68484 34.4412C2.68484 34.4412 2.68484 34.4412 2.68484 34.4412C2.68484 34.4412 2.68484 34.4412 2.68484 34.4412C2.68484 34.4412 2.68484 34.4412 2.68484 34.4412C2.68484 34.4412 2.68484 34.4412 2.68484 34.4412C2.68484 34.4412 2.68484 34.4412 2.68484 34.4412C2.68484 34.4412 2.68484 34.4412 2.68484 34.4412C2.68484 34.4412 2.68484 34.4412 2.68484 34.4412C2.68484 34.4412 2.68484 34.4412 2.68484 34.4412C2.68484 34.4412 2.68484 34.4412 2.68484 34.4412C2.68484 34.4412 2.68484 34.4412 2.68484 34.4412C2.68484 34.4412 2.68484 34.4412 2.68484 34.4412C2.68484 34.4412 2.68484 34.4412 2.68484 34.4412C2.68484 34.4412 2.68484 34.4412 2.68484 34.4412C2.68484 34.4412 2.68484 34.4412 2.68484 34.4412C2.68484 34.4412 2.68484 34.4412 2.68484 34.4412C2.68484 34.4412 2.68484 34.4412 2.68484 34.4412C2.68484 34.4412 2.68484 34.4412 2.68484 34.4412C2.68484 34.4412 2.68484 34.9412 2.68484 35.4412C2.68484 35.4412 2.68484 35.4412 2.68484 35.4412C2.68484 35.4412 2.68484 35.4412 2.68484 35.4412C2.68484 35.4412 2.68484 35.4412 2.68484 35.4412C2.68484 35.4412 2.68484 35.4412 2.68484 35.4412C2.68484 35.4412 2.68484 35.4412 2.68484 35.4412C2.68484 35.4412 2.68484 35.4412 2.68484 35.4412C2.68484 35.4412 2.68484 35.4412 2.68484 35.4412C2.68484 35.4412 2.68484 35.4412 2.68484 35.4412C2.68484 35.4412 2.68484 35.4412 2.68484 35.4412C2.68484 35.4412 2.68484 35.4412 2.68484 35.4412C2.68484 35.4412 2.68484 35.4412 2.68484 35.4412C2.68484 35.4412 2.68484 35.4412 2.68484 35.4412C2.68484 35.4412 2.68484 35.4412 2.68484 35.4412C2.68484 35.4412 2.68484 35.4412 2.68484 35.4412C2.68484 35.4412 2.68484 35.4412 2.68484 35.4412C2.68484 35.4412 2.68484 35.4412 2.68484 35.4412C2.68484 35.4412 2.68484 35.4412 2.68484 35.4412C2.68484 35.4412 2.68484 35.4412 2.68484 35.4412C2.68484 35.4412 2.68484 35.4412 2.68484 35.4412C2.68484 35.4412 2.68484 35.4412 2.68484 35.4412C2.68484 35.4412 2.68484 35.4412 2.68484 35.4412C2.68484 35.4412 2.68484 35.4412 2.68484 35.4412C2.68484 35.4412 2.68484 35.4412 2.68484 35.4412C2.68484 35.4412 2.68484 35.4412 2.68484 35.4412C2.68484 35.4412 2.68484 35.4412 2.68484 35.4412C2.68484 35.4412 2.68484 35.4412 2.68484 35.4412C2.68484 35.4412 2.68484 35.4412 2.68484 35.4412C2.68484 35.4412 2.68484 35.4412 2.68484 35.4412C2.68484 35.4412 2.68484 35.4412 2.68484 35.4412C2.68484 35.4412 2.68484 35.4412 2.68484 35.4412C2.68484 35.4412 2.68484 35.4412 2.68484 35.4412C2.68484 35.4412 2.68484 35.4412 2.68484 35.4412C2.68484 35.4412 2.68484 35.4412 2.68484 35.4412C2.68484 35.4412 2.68484 35.4412 2.68484 35.4412C2.68484 35.4412 2.68484 35.4412 2.68484 35.4412C2.68484 35.4412 2.68484 35.4412 2.68484 35.4412C2.68484 35.4412 2.68484 35.4412 2.68484 35.4412C2.68484 35.4412 2.68484 35.4412 2.68484 35.4412C2.68484 35.4412 2.68484 35.4412 2.68484 35.4412C2.68484 35.4412 2.68484 35.4412 2.68484 35.4412C2.68484 35.4412 2.68484 35.4412 2.68484 35.4412C2.68484 35.4412 2.68484 35.4412 2.68485 35.4412C2.68485 35.4412 2.68485 35.4412 2.68485 35.4412C2.68485 35.4412 2.68485 35.4412 2.68485 35.4412C2.68485 35.4412 2.68485 35.4412 2.68485 35.4412C2.68485 35.4412 2.68485 35.4412 2.68485 35.4412C2.68485 35.4412 2.68485 35.4412 2.68485 35.4412C2.68485 35.4412 2.68485 35.4412 2.68485 35.4412C2.68485 35.4412 2.68485 35.4412 2.68485 35.4412C2.68485 35.4412 2.68485 35.4412 2.68485 35.4412C2.68485 35.4412 2.68485 35.4412 2.68485 35.4412C2.68485 35.4412 2.68485 35.4412 2.68485 35.4412C2.68485 35.4412 2.68485 35.4412 2.68485 35.4412C2.68485 35.4412 2.68485 35.4412 2.68485 35.4412C2.68485 35.4412 2.68485 35.4412 2.68485 35.4412C2.68485 35.4412 2.68485 35.4412 2.68485 35.4412C2.68485 35.4412 2.68485 35.4412 2.68485 35.4412C2.68485 35.4412 2.68485 35.4412 2.68485 35.4412C2.68485 35.4412 2.68485 35.4412 2.68485 35.4412C2.68485 35.4412 2.68485 35.4412 2.68485 35.4412C2.68485 35.4412 2.68485 35.4412 2.68485 35.4412C2.68485 35.4412 2.68485 35.4412 2.68485 35.4412C2.68485 35.4412 2.68485 35.4412 2.68485 35.4412C2.68485 35.4412 2.68485 35.4412 2.68485 35.4412C2.68485 35.4412 2.68485 35.4412 2.68485 35.4412C2.68485 35.4412 2.68485 35.4412 2.68485 35.4412C2.68485 35.4412 2.68485 35.4412 2.68485 35.4412C2.68485 35.4412 2.68485 35.4412 2.68485 35.4412C2.68485 35.4412 2.68485 35.4412 2.68485 35.4412C2.68485 35.4412 2.68485 35.4412 2.68485 35.4412C2.68485 35.4412 2.68485 35.4412 2.68485 35.4412C2.68485 35.4412 2.68485 35.4412 2.68485 35.4412C2.68485 35.4412 2.68485 35.4412 2.68485 35.4412C2.68485 35.4412 2.68486 35.4412 2.68486 35.4412C2.68486 35.4412 2.68486 35.4412 2.68486 35.4412C2.68486 35.4412 2.68486 35.4412 2.68486 35.4412C2.68486 35.4412 2.68486 35.4412 2.68486 35.4412C2.68486 35.4412 2.68486 35.4412 2.68486 35.4412C2.68486 35.4412 2.68486 35.4412 2.68486 35.4412C2.68486 35.4412 2.68486 35.4412 2.68486 35.4412C2.68486 35.4412 2.68486 35.4412 2.68486 35.4412C2.68486 35.4412 2.68486 35.4412 2.68486 35.4412C2.68486 35.4412 2.68486 35.4412 2.68486 35.4412C2.68486 35.4412 2.68486 35.4412 2.68486 35.4412C2.68486 35.4412 2.68486 35.4412 2.68486 35.4412C2.68486 35.4412 2.68486 35.4412 2.68486 35.4412C2.68486 35.4412 2.68486 35.4412 2.68486 35.4412C2.68486 35.4412 2.68486 35.4412 2.68486 35.4412C2.68486 35.4412 2.68486 35.4412 2.68486 35.4412C2.68486 35.4412 2.68486 35.4412 2.68486 35.4412C2.68486 35.4412 2.68486 35.4412 2.68486 35.4412C2.68486 35.4412 2.68486 35.4412 2.68486 35.4412C2.68486 35.4412 2.68486 35.4412 2.68486 35.4412C2.68486 35.4412 2.68486 35.4412 2.68487 35.4412C2.68487 35.4412 2.68487 35.4412 2.68487 35.4412C2.68487 35.4412 2.68487 35.4412 2.68487 35.4412C2.68487 35.4412 2.68487 35.4412 2.68487 35.4412C2.68487 35.4412 2.68487 35.4412 2.68487 35.4412C2.68487 35.4412 2.68487 35.4412 2.68487 35.4412C2.68487 35.4412 2.68487 35.4412 2.68487 35.4412C2.68487 35.4412 2.68487 35.4412 2.68487 35.4412C2.68487 35.4412 2.68487 35.4412 2.68487 35.4412C2.68487 35.4412 2.68487 35.4412 2.68487 35.4412C2.68487 35.4412 2.68487 35.4412 2.68487 35.4412C2.68487 35.4412 2.68487 35.4412 2.68487 35.4412C2.68487 35.4412 2.68487 35.4412 2.68487 35.4412C2.68487 35.4412 2.68487 35.4412 2.68487 35.4412C2.68487 35.4412 2.68487 35.4412 2.68487 35.4412V34.4412C2.68487 34.4412 2.68487 34.4412 2.68487 34.4412C2.68487 34.4412 2.68487 34.4412 2.68487 34.4412C2.68487 34.4412 2.68487 34.4412 2.68487 34.4412C2.68487 34.4412 2.68487 34.4412 2.68487 34.4412C2.68487 34.4412 2.68487 34.4412 2.68487 34.4412C2.68487 34.4412 2.68487 34.4412 2.68487 34.4412C2.68487 34.4412 2.68487 34.4412 2.68487 34.4412C2.68487 34.4412 2.68487 34.4412 2.68487 34.4412C2.68487 34.4412 2.68487 34.4412 2.68487 34.4412C2.68487 34.4412 2.68487 34.4412 2.68487 34.4412C2.68487 34.4412 2.68487 34.4412 2.68487 34.4412C2.68487 34.4412 2.68487 34.4412 2.68487 34.4412C2.68487 34.4412 2.68487 34.4412 2.68487 34.4412C2.68487 34.4412 2.68487 34.4412 2.68487 34.4412C2.68486 34.4412 2.68486 34.4412 2.68486 34.4412C2.68486 34.4412 2.68486 34.4412 2.68486 34.4412C2.68486 34.4412 2.68486 34.4412 2.68486 34.4412C2.68486 34.4412 2.68486 34.4412 2.68486 34.4412C2.68486 34.4412 2.68486 34.4412 2.68486 34.4412C2.68486 34.4412 2.68486 34.4412 2.68486 34.4412C2.68486 34.4412 2.68486 34.4412 2.68486 34.4412C2.68486 34.4412 2.68486 34.4412 2.68486 34.4412C2.68486 34.4412 2.68486 34.4412 2.68486 34.4412C2.68486 34.4412 2.68486 34.4412 2.68486 34.4412C2.68486 34.4412 2.68486 34.4412 2.68486 34.4412C2.68486 34.4412 2.68486 34.4412 2.68486 34.4412C2.68486 34.4412 2.68486 34.4412 2.68486 34.4412C2.68486 34.4412 2.68486 34.4412 2.68486 34.4412C2.68486 34.4412 2.68486 34.4412 2.68486 34.4412C2.68486 34.4412 2.68486 34.4412 2.68486 34.4412C2.68486 34.4412 2.68486 34.4412 2.68486 34.4412C2.68486 34.4412 2.68486 34.4412 2.68486 34.4412C2.68486 34.4412 2.68486 34.4412 2.68486 34.4412C2.68486 34.4412 2.68486 34.4412 2.68486 34.4412C2.68486 34.4412 2.68485 34.4412 2.68485 34.4412C2.68485 34.4412 2.68485 34.4412 2.68485 34.4412C2.68485 34.4412 2.68485 34.4412 2.68485 34.4412C2.68485 34.4412 2.68485 34.4412 2.68485 34.4412C2.68485 34.4412 2.68485 34.4412 2.68485 34.4412C2.68485 34.4412 2.68485 34.4412 2.68485 34.4412C2.68485 34.4412 2.68485 34.4412 2.68485 34.4412C2.68485 34.4412 2.68485 34.4412 2.68485 34.4412C2.68485 34.4412 2.68485 34.4412 2.68485 34.4412C2.68485 34.4412 2.68485 34.4412 2.68485 34.4412C2.68485 34.4412 2.68485 34.4412 2.68485 34.4412C2.68485 34.4412 2.68485 34.4412 2.68485 34.4412C2.68485 34.4412 2.68485 34.4412 2.68485 34.4412C2.68485 34.4412 2.68485 34.4412 2.68485 34.4412C2.68485 34.4412 2.68485 34.4412 2.68485 34.4412C2.68485 34.4412 2.68485 34.4412 2.68485 34.4412C2.68485 34.4412 2.68485 34.4412 2.68485 34.4412C2.68485 34.4412 2.68485 34.4412 2.68485 34.4412C2.68485 34.4412 2.68485 34.4412 2.68485 34.4412C2.68485 34.4412 2.68485 34.4412 2.68485 34.4412C2.68485 34.4412 2.68485 34.4412 2.68485 34.4412C2.68485 34.4412 2.68485 34.4412 2.68485 34.4412C2.68485 34.4412 2.68485 34.4412 2.68485 34.4412C2.68485 34.4412 2.68485 34.4412 2.68485 34.4412C2.68485 34.4412 2.68485 34.4412 2.68485 34.4412C2.68485 34.4412 2.68485 34.4412 2.68485 34.4412C2.68485 34.4412 2.68485 34.4412 2.68485 34.4412C2.68485 34.4412 2.68485 34.4412 2.68485 34.4412C2.68485 34.4412 2.68485 34.4412 2.68485 34.4412C2.68485 34.4412 2.68485 34.4412 2.68485 34.4412C2.68485 34.4412 2.68485 34.4412 2.68485 34.4412C2.68485 34.4412 2.68485 34.4412 2.68485 34.4412C2.68484 34.4412 2.68484 34.4412 2.68484 34.4412C2.68484 34.4412 2.68484 34.4412 2.68484 34.4412C2.68484 34.4412 2.68484 34.4412 2.68484 34.4412C2.68484 34.4412 2.68484 34.4412 2.68484 34.4412C2.68484 34.4412 2.68484 34.4412 2.68484 34.4412C2.68484 34.4412 2.68484 34.4412 2.68484 34.4412C2.68484 34.4412 2.68484 34.4412 2.68484 34.4412C2.68484 34.4412 2.68484 34.4412 2.68484 34.4412C2.68484 34.4412 2.68484 34.4412 2.68484 34.4412C2.68484 34.4412 2.68484 34.4412 2.68484 34.4412C2.68484 34.4412 2.68484 34.4412 2.68484 34.4412C2.68484 34.4412 2.68484 34.4412 2.68484 34.4412C2.68484 34.4412 2.68484 34.4412 2.68484 34.4412C2.68484 34.4412 2.68484 34.4412 2.68484 34.4412C2.68484 34.4412 2.68484 34.4412 2.68484 34.4412C2.68484 34.4412 2.68484 34.4412 2.68484 34.4412C2.68484 34.4412 2.68484 34.4412 2.68484 34.4412C2.68484 34.4412 2.68484 34.4412 2.68484 34.4412C2.68484 34.4412 2.68484 34.4412 2.68484 34.4412C2.68484 34.4412 2.68484 34.4412 2.68484 34.4412C2.68484 34.4412 2.68484 34.4412 2.68484 34.4412C2.68484 34.4412 2.68484 34.4412 2.68484 34.4412C2.68484 34.4412 2.68484 34.4412 2.68484 34.4412C2.68484 34.4412 2.68484 34.4412 2.68484 34.4412C2.68484 34.4412 2.68484 34.4412 2.68484 34.4412C2.68484 34.4412 2.68484 34.4412 2.68484 34.4412C2.68484 34.4412 2.68484 34.4412 2.68484 34.4412C2.68484 34.4412 2.68484 34.4412 2.68484 34.4412C2.68484 34.4412 2.68484 34.4412 2.68484 34.4412C2.68484 34.4412 2.68484 34.4412 2.68484 34.4412C2.68484 34.4412 2.68484 34.4412 2.68484 34.4412C2.68484 34.4412 2.68484 34.4412 2.68484 34.4412C2.68484 34.4412 2.68484 34.4412 2.68484 34.4412C2.68484 34.4412 2.68484 34.4412 2.68484 34.4412C2.68484 34.4412 2.68484 34.4412 2.68484 34.4412C2.68484 34.4412 2.68484 34.4412 2.68484 34.4412C2.68484 34.4412 2.68484 34.4412 2.68484 34.4412C2.68484 34.4412 2.68484 34.4412 2.68484 34.4412C2.68484 34.4412 2.68484 34.4412 2.68484 34.4412C2.68484 34.4412 2.68484 34.4412 2.68484 34.4412C2.68484 34.4412 2.68484 34.4412 2.68484 34.4412C2.68484 34.4412 2.68484 34.4412 2.68484 34.4412C2.68484 34.9412 2.68484 35.4412 2.68484 35.4412C2.68484 35.4412 2.68484 35.4412 2.68484 35.4412C2.68484 35.4412 2.68484 35.4412 2.68484 35.4412C2.68484 35.4412 2.68484 35.4412 2.68484 35.4412C2.68484 35.4412 2.68484 35.4412 2.68484 35.4412C2.68484 35.4412 2.68484 35.4412 2.68484 35.4412C2.68484 35.4412 2.68484 35.4412 2.68484 35.4412C2.68484 35.4412 2.68484 35.4412 2.68484 35.4412C2.68484 35.4412 2.68484 35.4412 2.68484 35.4412C2.68484 35.4412 2.68484 35.4412 2.68484 35.4412C2.68484 35.4412 2.68484 35.4412 2.68484 35.4412C2.68484 35.4412 2.68484 35.4412 2.68484 35.4412C2.68484 35.4412 2.68484 35.4412 2.68484 35.4412C2.68484 35.4412 2.68484 35.4412 2.68484 35.4412C2.68484 35.4412 2.68484 35.4412 2.68484 35.4412C2.68484 35.4412 2.68484 35.4412 2.68484 35.4412C2.68484 35.4412 2.68484 35.4412 2.68484 35.4412C2.68484 35.4412 2.68484 35.4412 2.68484 35.4412C2.68484 35.4412 2.68484 35.4412 2.68484 35.4412C2.68484 35.4412 2.68484 35.4412 2.68484 35.4412C2.68484 35.4412 2.68484 35.4412 2.68484 35.4412C2.68484 35.4412 2.68484 35.4412 2.68484 35.4412C2.68484 35.4412 2.68484 35.4412 2.68484 35.4412C2.68484 35.4412 2.68484 35.4412 2.68484 35.4412C2.68484 35.4412 2.68484 35.4412 2.68484 35.4412C2.68484 35.4412 2.68484 35.4412 2.68484 35.4412C2.68484 35.4412 2.68484 35.4412 2.68484 35.4412C2.68484 35.4412 2.68484 35.4412 2.68484 35.4412C2.68484 35.4412 2.68484 35.4412 2.68484 35.4412C2.68484 35.4412 2.68484 35.4412 2.68484 35.4412C2.68484 35.4412 2.68484 35.4412 2.68484 35.4412C2.68484 35.4412 2.68484 35.4412 2.68484 35.4412C2.68484 35.4412 2.68484 35.4412 2.68484 35.4412C2.68484 35.4412 2.68484 35.4412 2.68484 35.4412C2.68484 35.4412 2.68484 35.4412 2.68484 35.4412C2.68484 35.4412 2.68484 35.4412 2.68484 35.4412C2.68484 35.4412 2.68484 35.4412 2.68484 35.4412C2.68484 35.4412 2.68484 35.4412 2.68484 35.4412C2.68484 35.4412 2.68484 35.4412 2.68484 35.4412C2.68484 35.4412 2.68484 35.4412 2.68484 35.4412C2.68484 35.4412 2.68484 35.4412 2.68484 35.4412C2.68484 35.4412 2.68484 35.4412 2.68484 35.4412C2.68484 35.4412 2.68484 35.4412 2.68484 35.4412C2.68484 35.4412 2.68484 35.4412 2.68484 35.4412C2.68484 35.4412 2.68484 35.4412 2.68484 35.4412C2.68484 35.4412 2.68484 35.4412 2.68484 35.4412C2.68484 35.4412 2.68485 35.4412 2.68485 35.4412C2.68485 35.4412 2.68485 35.4412 2.68485 35.4412C2.68485 35.4412 2.68485 35.4412 2.68485 35.4412C2.68485 35.4412 2.68485 35.4412 2.68485 35.4412C2.68485 35.4412 2.68485 35.4412 2.68485 35.4412C2.68485 35.4412 2.68485 35.4412 2.68485 35.4412C2.68485 35.4412 2.68485 35.4412 2.68485 35.4412C2.68485 35.4412 2.68485 35.4412 2.68485 35.4412C2.68485 35.4412 2.68485 35.4412 2.68485 35.4412C2.68485 35.4412 2.68485 35.4412 2.68485 35.4412C2.68485 35.4412 2.68485 35.4412 2.68485 35.4412C2.68485 35.4412 2.68485 35.4412 2.68485 35.4412C2.68485 35.4412 2.68485 35.4412 2.68485 35.4412C2.68485 35.4412 2.68485 35.4412 2.68485 35.4412C2.68485 35.4412 2.68485 35.4412 2.68485 35.4412C2.68485 35.4412 2.68485 35.4412 2.68485 35.4412C2.68485 35.4412 2.68485 35.4412 2.68485 35.4412C2.68485 35.4412 2.68485 35.4412 2.68485 35.4412C2.68485 35.4412 2.68485 35.4412 2.68485 35.4412C2.68485 35.4412 2.68485 35.4412 2.68485 35.4412C2.68485 35.4412 2.68485 35.4412 2.68485 35.4412C2.68485 35.4412 2.68485 35.4412 2.68485 35.4412C2.68485 35.4412 2.68485 35.4412 2.68485 35.4412C2.68485 35.4412 2.68485 35.4412 2.68485 35.4412C2.68485 35.4412 2.68485 35.4412 2.68485 35.4412C2.68485 35.4412 2.68485 35.4412 2.68485 35.4412C2.68485 35.4412 2.68485 35.4412 2.68485 35.4412C2.68485 35.4412 2.68485 35.4412 2.68485 35.4412C2.68485 35.4412 2.68485 35.4412 2.68485 35.4412C2.68485 35.4412 2.68485 35.4412 2.68485 35.4412C2.68485 35.4412 2.68485 35.4412 2.68485 35.4412C2.68485 35.4412 2.68485 35.4412 2.68485 35.4412C2.68485 35.4412 2.68485 35.4412 2.68485 35.4412C2.68485 35.4412 2.68485 35.4412 2.68485 35.4412C2.68485 35.4412 2.68485 35.4412 2.68485 35.4412C2.68485 35.4412 2.68485 35.4412 2.68485 35.4412C2.68485 35.4412 2.68485 35.4412 2.68485 35.4412C2.68485 35.4412 2.68485 35.4412 2.68485 35.4412C2.68485 35.4412 2.68485 35.4412 2.68485 35.4412C2.68485 35.4412 2.68485 35.4412 2.68485 35.4412C2.68485 35.4412 2.68485 35.4412 2.68485 35.4412C2.68485 35.4412 2.68485 35.4412 2.68485 35.4412C2.68485 35.4412 2.68485 35.4412 2.68485 35.4412C2.68486 35.4412 2.68486 35.4412 2.68486 35.4412C2.68486 35.4412 2.68486 35.4412 2.68486 35.4412C2.68486 35.4412 2.68486 35.4412 2.68486 35.4412C2.68486 35.4412 2.68486 35.4412 2.68486 35.4412C2.68486 35.4412 2.68486 35.4412 2.68486 35.4412C2.68486 35.4412 2.68486 35.4412 2.68486 35.4412C2.68486 35.4412 2.68486 35.4412 2.68486 35.4412C2.68486 35.4412 2.68486 35.4412 2.68486 35.4412C2.68486 35.4412 2.68486 35.4412 2.68486 35.4412C2.68486 35.4412 2.68486 35.4412 2.68486 35.4412C2.68486 35.4412 2.68486 35.4412 2.68486 35.4412C2.68486 35.4412 2.68486 35.4412 2.68486 35.4412C2.68486 35.4412 2.68486 35.4412 2.68486 35.4412C2.68486 35.4412 2.68486 35.4412 2.68486 35.4412C2.68486 35.4412 2.68486 35.4412 2.68486 35.4412C2.68486 35.4412 2.68486 35.4412 2.68486 35.4412C2.68486 35.4412 2.68486 35.4412 2.68486 35.4412C2.68486 35.4412 2.68486 35.4412 2.68486 35.4412C2.68486 35.4412 2.68486 35.4412 2.68486 35.4412C2.68486 35.4412 2.68486 35.4412 2.68486 35.4412C2.68486 35.4412 2.68486 35.4412 2.68486 35.4412C2.68486 35.4412 2.68486 35.4412 2.68486 35.4412C2.68486 35.4412 2.68486 35.4412 2.68486 35.4412C2.68486 35.4412 2.68486 35.4412 2.68486 35.4412C2.68486 35.4412 2.68486 35.4412 2.68486 35.4412C2.68486 35.4412 2.68486 35.4412 2.68486 35.4412C2.68486 35.4412 2.68486 35.4412 2.68486 35.4412C2.68486 35.4412 2.68486 35.4412 2.68486 35.4412C2.68486 35.4412 2.68486 35.4412 2.68486 35.4412C2.68486 35.4412 2.68486 35.4412 2.68486 35.4412C2.68486 35.4412 2.68486 35.4412 2.68486 35.4412C2.68486 35.4412 2.68486 35.4412 2.68486 35.4412C2.68486 35.4412 2.68486 35.4412 2.68487 35.4412C2.68487 35.4412 2.68487 35.4412 2.68487 35.4412C2.68487 35.4412 2.68487 35.4412 2.68487 35.4412C2.68487 35.4412 2.68487 35.4412 2.68487 35.4412C2.68487 35.4412 2.68487 35.4412 2.68487 35.4412C2.68487 35.4412 2.68487 35.4412 2.68487 35.4412C2.68487 35.4412 2.68487 35.4412 2.68487 35.4412C2.68487 35.4412 2.68487 35.4412 2.68487 35.4412C2.68487 35.4412 2.68487 35.4412 2.68487 35.4412C2.68487 35.4412 2.68487 35.4412 2.68487 35.4412C2.68487 35.4412 2.68487 35.4412 2.68487 35.4412C2.68487 35.4412 2.68487 35.4412 2.68487 35.4412C2.68487 35.4412 2.68487 35.4412 2.68487 35.4412C2.68487 35.4412 2.68487 35.4412 2.68487 35.4412C2.68487 35.4412 2.68487 35.4412 2.68487 35.4412C2.68487 35.4412 2.68487 35.4412 2.68487 35.4412C2.68487 35.4412 2.68487 35.4412 2.68487 35.4412C2.68487 35.4412 2.68487 35.4412 2.68487 35.4412C2.68487 35.4412 2.68487 35.4412 2.68487 35.4412C2.68487 35.4412 2.68487 35.4412 2.68487 35.4412C2.68487 35.4412 2.68487 35.4412 2.68487 35.4412C2.68487 35.4412 2.68487 35.4412 2.68487 35.4412C2.68487 35.4412 2.68487 35.4412 2.68487 35.4412C2.68487 35.4412 2.68487 35.4412 2.68487 35.4412C2.68487 35.4412 2.68487 35.4412 2.68487 35.4412C2.68487 35.4412 2.68487 35.4412 2.68487 35.4412C2.68487 35.4412 2.68487 35.4412 2.68487 35.4412C2.68487 35.4412 2.68487 35.4412 2.68487 35.4412C2.68487 35.4412 2.68487 35.4412 2.68487 35.4412C2.68487 35.4412 2.68487 35.4412 2.68487 35.4412C2.68487 35.4412 2.68487 35.4412 2.68488 35.4412C2.68488 35.4412 2.68488 35.4412 2.68488 35.4412C2.68488 35.4412 2.68488 35.4412 2.68488 35.4412C2.68488 35.4412 2.68488 35.4412 2.68488 35.4412C2.68488 35.4412 2.68488 35.4412 2.68488 35.4412C2.68488 35.4412 2.68488 35.4412 2.68488 35.4412C2.68488 35.4412 2.68488 35.4412 2.68488 35.4412C2.68488 35.4412 2.68488 35.4412 2.68488 35.4412C2.68488 35.4412 2.68488 35.4412 2.68488 35.4412C2.68488 35.4412 2.68488 35.4412 2.68488 35.4412C2.68488 35.4412 2.68488 35.4412 2.68488 35.4412C2.68488 35.4412 2.68488 35.4412 2.68488 35.4412C2.68488 35.4412 2.68488 35.4412 2.68488 35.4412C2.68488 35.4412 2.68488 35.4412 2.68488 35.4412C2.68488 35.4412 2.68488 35.4412 2.68488 35.4412C2.68488 35.4412 2.68488 35.4412 2.68488 35.4412C2.68488 35.4412 2.68488 35.4412 2.68488 35.4412C2.68488 35.4412 2.68488 35.4412 2.68488 35.4412C2.68488 35.4412 2.68488 35.4412 2.68488 35.4412C2.68488 35.4412 2.68488 35.4412 2.68488 35.4412C2.68488 35.4412 2.68488 35.4412 2.68488 35.4412C2.68488 35.4412 2.68488 35.4412 2.68488 35.4412C2.68488 35.4412 2.68488 35.4412 2.68488 35.4412C2.68488 35.4412 2.68488 35.4412 2.68488 35.4412C2.68488 35.4412 2.68488 35.4412 2.68488 35.4412C2.68488 35.4412 2.68488 35.4412 2.68488 35.4412C2.68488 35.4412 2.68488 35.4412 2.68488 35.4412C2.68488 35.4412 2.68488 35.4412 2.68488 35.4412C2.68488 35.4412 2.68488 35.4412 2.68488 35.4412C2.68488 35.4412 2.68488 35.4412 2.68488 35.4412C2.68488 35.4412 2.68488 35.4412 2.68488 35.4412C2.68489 35.4412 2.68489 35.4412 2.68489 35.4412C2.68489 35.4412 2.68489 35.4412 2.68489 35.4412C2.68489 35.4412 2.68489 35.4412 2.68489 35.4412C2.68489 35.4412 2.68489 35.4412 2.68489 35.4412C2.68489 35.4412 2.68489 35.4412 2.68489 35.4412C2.68489 35.4412 2.68489 35.4412 2.68489 35.4412C2.68489 35.4412 2.68489 35.4412 2.68489 35.4412C2.68489 35.4412 2.68489 35.4412 2.68489 35.4412C2.68489 35.4412 2.68489 35.4412 2.68489 35.4412C2.68489 35.4412 2.68489 35.4412 2.68489 35.4412C2.68489 35.4412 2.68489 35.4412 2.68489 35.4412C2.68489 35.4412 2.68489 35.4412 2.68489 35.4412C2.68489 35.4412 2.68489 35.4412 2.68489 35.4412C2.68489 35.4412 2.68489 35.4412 2.68489 35.4412C2.68489 35.4412 2.68489 35.4412 2.68489 35.4412C2.68489 35.4412 2.68489 35.4412 2.68489 35.4412C2.68489 35.4412 2.68489 35.4412 2.68489 35.4412C2.68489 35.4412 2.68489 35.4412 2.68489 35.4412C2.68489 35.4412 2.68489 35.4412 2.68489 35.4412C2.68489 35.4412 2.68489 35.4412 2.68489 35.4412C2.68489 35.4412 2.68489 35.4412 2.68489 35.4412C2.68489 35.4412 2.68489 35.4412 2.68489 35.4412C2.68489 35.4412 2.68489 35.4412 2.68489 35.4412C2.68489 35.4412 2.68489 35.4412 2.68489 35.4412C2.68489 35.4412 2.68489 35.4412 2.68489 35.4412C2.68489 35.4412 2.68489 35.4412 2.68489 35.4412C2.68489 35.4412 2.68489 35.4412 2.68489 35.4412C2.68489 35.4412 2.68489 35.4412 2.68489 35.4412C2.68489 35.4412 2.68489 35.4412 2.68489 35.4412C2.68489 35.4412 2.68489 35.4412 2.68489 35.4412C2.68489 35.4412 2.68489 35.4412 2.68489 35.4412C2.68489 35.4412 2.68489 35.4412 2.68489 35.4412C2.68489 35.4412 2.68489 35.4412 2.68489 35.4412C2.68489 35.4412 2.68489 35.4412 2.68489 35.4412C2.6849 35.4412 2.6849 35.4412 2.6849 35.4412C2.6849 35.4412 2.6849 35.4412 2.6849 35.4412C2.6849 35.4412 2.6849 35.4412 2.6849 35.4412C2.6849 35.4412 2.6849 35.4412 2.6849 35.4412C2.6849 35.4412 2.6849 35.4412 2.6849 35.4412C2.6849 35.4412 2.6849 35.4412 2.6849 35.4412C2.6849 35.4412 2.6849 35.4412 2.6849 35.4412C2.6849 35.4412 2.6849 35.4412 2.6849 35.4412C2.6849 35.4412 2.6849 35.4412 2.6849 35.4412C2.6849 35.4412 2.6849 35.4412 2.6849 35.4412C2.6849 35.4412 2.6849 35.4412 2.6849 35.4412C2.6849 35.4412 2.6849 35.4412 2.6849 35.4412C2.6849 35.4412 2.6849 35.4412 2.6849 35.4412C2.6849 35.4412 2.6849 35.4412 2.6849 35.4412C2.6849 35.4412 2.6849 35.4412 2.6849 35.4412C2.6849 35.4412 2.6849 35.4412 2.6849 35.4412C2.6849 35.4412 2.6849 35.4412 2.6849 35.4412C2.6849 35.4412 2.6849 35.4412 2.6849 35.4412C2.6849 35.4412 2.6849 35.4412 2.6849 35.4412C2.6849 35.4412 2.6849 35.4412 2.6849 35.4412C2.6849 35.4412 2.6849 35.4412 2.6849 35.4412C2.6849 35.4412 2.6849 35.4412 2.6849 35.4412C2.6849 35.4412 2.6849 35.4412 2.6849 35.4412C2.6849 35.4412 2.6849 35.4412 2.6849 35.4412C2.6849 35.4412 2.6849 35.4412 2.6849 35.4412C2.6849 35.4412 2.6849 35.4412 2.6849 35.4412C2.6849 35.4412 2.6849 35.4412 2.6849 35.4412C2.6849 35.4412 2.6849 35.4412 2.6849 35.4412C2.6849 35.4412 2.6849 35.4412 2.6849 35.4412C2.6849 35.4412 2.6849 35.4412 2.6849 35.4412C2.6849 35.4412 2.6849 35.4412 2.6849 35.4412C2.6849 35.4412 2.6849 35.4412 2.6849 35.4412C2.6849 35.4412 2.6849 35.4412 2.6849 35.4412C2.6849 35.4412 2.6849 35.4412 2.6849 35.4412C2.6849 35.4412 2.6849 35.4412 2.6849 35.4412C2.6849 35.4412 2.6849 35.4412 2.6849 35.4412C2.6849 35.4412 2.6849 35.4412 2.6849 35.4412C2.6849 35.4412 2.6849 35.4412 2.6849 35.4412C2.6849 35.4412 2.6849 35.4412 2.6849 35.4412C2.6849 35.4412 2.6849 35.4412 2.6849 35.4412C2.6849 35.4412 2.6849 35.4412 2.6849 35.4412C2.6849 35.4412 2.6849 35.4412 2.6849 35.4412C2.6849 35.4412 2.6849 35.4412 2.6849 35.4412C2.6849 35.4412 2.6849 35.4412 2.6849 35.4412C2.6849 35.4412 2.6849 35.4412 2.6849 35.4412C2.6849 35.4412 2.6849 35.4412 2.6849 35.4412C2.6849 35.4412 2.6849 35.4412 2.6849 35.4412C2.6849 35.4412 2.6849 35.4412 2.6849 35.4412C2.6849 35.4412 2.6849 35.4412 2.6849 35.4412C2.6849 35.4412 2.6849 35.4412 2.6849 35.4412C2.6849 35.4412 2.6849 35.4412 2.68491 35.4412C2.68491 35.4412 2.68491 35.4412 2.68491 35.4412C2.68491 35.4412 2.68491 35.4412 2.68491 35.4412C2.68491 35.4412 2.68491 35.4412 2.68491 35.4412C2.68491 35.4412 2.68491 35.4412 2.68491 35.4412C2.68491 35.4412 2.68491 35.4412 2.68491 35.4412C2.68491 35.4412 2.68491 35.4412 2.68491 35.4412C2.68491 35.4412 2.68491 35.4412 2.68491 35.4412C2.68491 35.4412 2.68491 35.4412 2.68491 35.4412C2.68491 35.4412 2.68491 35.4412 2.68491 35.4412C2.68491 35.4412 2.68491 35.4412 2.68491 35.4412C2.68491 35.4412 2.68491 35.4412 2.68491 35.4412C2.68491 35.4412 2.68491 35.4412 2.68491 35.4412C2.68491 35.4412 2.68491 35.4412 2.68491 35.4412C2.68491 35.4412 2.68491 35.4412 2.68491 35.4412C2.68491 35.4412 2.68491 35.4412 2.68491 35.4412C2.68491 35.4412 2.68491 35.4412 2.68491 35.4412C2.68491 35.4412 2.68491 35.4412 2.68491 35.4412C2.68491 35.4412 2.68491 35.4412 2.68491 35.4412C2.68491 35.4412 2.68491 35.4412 2.68491 35.4412C2.68491 35.4412 2.68491 35.4412 2.68491 35.4412C2.68491 35.4412 2.68491 35.4412 2.68491 35.4412C2.68491 35.4412 2.68491 35.4412 2.68491 35.4412C2.68491 35.4412 2.68491 35.4412 2.68491 35.4412C2.68491 35.4412 2.68491 35.4412 2.68491 35.4412C2.68491 35.4412 2.68491 35.4412 2.68491 35.4412C2.68491 35.4412 2.68491 35.4412 2.68491 35.4412C2.68491 35.4412 2.68491 35.4412 2.68491 35.4412C2.68491 35.4412 2.68491 35.4412 2.68491 35.4412C2.68491 35.4412 2.68491 34.9412 2.68491 34.4412C2.68491 34.4412 2.68491 34.4412 2.68491 34.4412C2.68491 34.4412 2.68491 34.4412 2.68491 34.4412C2.68491 34.4412 2.68491 34.4412 2.68491 34.4412C2.68491 34.4412 2.68491 34.4412 2.68491 34.4412C2.68491 34.4412 2.68491 34.4412 2.68491 34.4412C2.68491 34.4412 2.68491 34.4412 2.68491 34.4412C2.68491 34.4412 2.68491 34.4412 2.68491 34.4412C2.68491 34.4412 2.68491 34.4412 2.68491 34.4412C2.68491 34.4412 2.68491 34.4412 2.68491 34.4412C2.68491 34.4412 2.68491 34.4412 2.68491 34.4412C2.68491 34.4412 2.68491 34.4412 2.68491 34.4412C2.68491 34.4412 2.68491 34.4412 2.68491 34.4412C2.68491 34.4412 2.68491 34.4412 2.68491 34.4412C2.68491 34.4412 2.68491 34.4412 2.68491 34.4412C2.68491 34.4412 2.68491 34.4412 2.68491 34.4412C2.68491 34.4412 2.68491 34.4412 2.68491 34.4412C2.68491 34.4412 2.68491 34.4412 2.68491 34.4412C2.68491 34.4412 2.68491 34.4412 2.68491 34.4412C2.68491 34.4412 2.68491 34.4412 2.68491 34.4412C2.68491 34.4412 2.68491 34.4412 2.68491 34.4412C2.68491 34.4412 2.68491 34.4412 2.68491 34.4412C2.68491 34.4412 2.68491 34.4412 2.68491 34.4412C2.68491 34.4412 2.68491 34.4412 2.68491 34.4412C2.68491 34.4412 2.68491 34.4412 2.68491 34.4412C2.68491 34.4412 2.68491 34.4412 2.68491 34.4412C2.68491 34.4412 2.68491 34.4412 2.68491 34.4412C2.68491 34.4412 2.68491 34.4412 2.6849 34.4412C2.6849 34.4412 2.6849 34.4412 2.6849 34.4412C2.6849 34.4412 2.6849 34.4412 2.6849 34.4412C2.6849 34.4412 2.6849 34.4412 2.6849 34.4412C2.6849 34.4412 2.6849 34.4412 2.6849 34.4412C2.6849 34.4412 2.6849 34.4412 2.6849 34.4412C2.6849 34.4412 2.6849 34.4412 2.6849 34.4412C2.6849 34.4412 2.6849 34.4412 2.6849 34.4412C2.6849 34.4412 2.6849 34.4412 2.6849 34.4412C2.6849 34.4412 2.6849 34.4412 2.6849 34.4412C2.6849 34.4412 2.6849 34.4412 2.6849 34.4412C2.6849 34.4412 2.6849 34.4412 2.6849 34.4412C2.6849 34.4412 2.6849 34.4412 2.6849 34.4412C2.6849 34.4412 2.6849 34.4412 2.6849 34.4412C2.6849 34.4412 2.6849 34.4412 2.6849 34.4412C2.6849 34.4412 2.6849 34.4412 2.6849 34.4412C2.6849 34.4412 2.6849 34.4412 2.6849 34.4412C2.6849 34.4412 2.6849 34.4412 2.6849 34.4412C2.6849 34.4412 2.6849 34.4412 2.6849 34.4412C2.6849 34.4412 2.6849 34.4412 2.6849 34.4412C2.6849 34.4412 2.6849 34.4412 2.6849 34.4412C2.6849 34.4412 2.6849 34.4412 2.6849 34.4412C2.6849 34.4412 2.6849 34.4412 2.6849 34.4412C2.6849 34.4412 2.6849 34.4412 2.6849 34.4412C2.6849 34.4412 2.6849 34.4412 2.6849 34.4412C2.6849 34.4412 2.6849 34.4412 2.6849 34.4412C2.6849 34.4412 2.6849 34.4412 2.6849 34.4412C2.6849 34.4412 2.6849 34.4412 2.6849 34.4412C2.6849 34.4412 2.6849 34.4412 2.6849 34.4412C2.6849 34.4412 2.6849 34.4412 2.6849 34.4412C2.6849 34.4412 2.6849 34.4412 2.6849 34.4412C2.6849 34.4412 2.6849 34.4412 2.6849 34.4412C2.6849 34.4412 2.6849 34.4412 2.6849 34.4412C2.6849 34.4412 2.6849 34.4412 2.6849 34.4412C2.6849 34.4412 2.6849 34.4412 2.6849 34.4412C2.6849 34.4412 2.6849 34.4412 2.6849 34.4412C2.6849 34.4412 2.6849 34.4412 2.6849 34.4412C2.6849 34.4412 2.6849 34.4412 2.6849 34.4412C2.6849 34.4412 2.6849 34.4412 2.6849 34.4412C2.6849 34.4412 2.6849 34.4412 2.6849 34.4412C2.6849 34.4412 2.6849 34.4412 2.68489 34.4412C2.68489 34.4412 2.68489 34.4412 2.68489 34.4412C2.68489 34.4412 2.68489 34.4412 2.68489 34.4412C2.68489 34.4412 2.68489 34.4412 2.68489 34.4412C2.68489 34.4412 2.68489 34.4412 2.68489 34.4412C2.68489 34.4412 2.68489 34.4412 2.68489 34.4412C2.68489 34.4412 2.68489 34.4412 2.68489 34.4412C2.68489 34.4412 2.68489 34.4412 2.68489 34.4412C2.68489 34.4412 2.68489 34.4412 2.68489 34.4412C2.68489 34.4412 2.68489 34.4412 2.68489 34.4412C2.68489 34.4412 2.68489 34.4412 2.68489 34.4412C2.68489 34.4412 2.68489 34.4412 2.68489 34.4412C2.68489 34.4412 2.68489 34.4412 2.68489 34.4412C2.68489 34.4412 2.68489 34.4412 2.68489 34.4412C2.68489 34.4412 2.68489 34.4412 2.68489 34.4412C2.68489 34.4412 2.68489 34.4412 2.68489 34.4412C2.68489 34.4412 2.68489 34.4412 2.68489 34.4412C2.68489 34.4412 2.68489 34.4412 2.68489 34.4412C2.68489 34.4412 2.68489 34.4412 2.68489 34.4412C2.68489 34.4412 2.68489 34.4412 2.68489 34.4412C2.68489 34.4412 2.68489 34.4412 2.68489 34.4412C2.68489 34.4412 2.68489 34.4412 2.68489 34.4412C2.68489 34.4412 2.68489 34.4412 2.68489 34.4412C2.68488 34.4412 2.68488 34.4412 2.68488 34.4412C2.68488 34.4412 2.68488 34.4412 2.68488 34.4412C2.68488 34.4412 2.68488 34.4412 2.68488 34.4412C2.68488 34.4412 2.68488 34.4412 2.68488 34.4412C2.68488 34.4412 2.68488 34.4412 2.68488 34.4412C2.68488 34.4412 2.68488 34.4412 2.68488 34.4412C2.68488 34.4412 2.68488 34.4412 2.68488 34.4412C2.68488 34.4412 2.68488 34.4412 2.68488 34.4412C2.68488 34.4412 2.68488 34.4412 2.68488 34.4412C2.68488 34.4412 2.68488 34.4412 2.68488 34.4412C2.68488 34.4412 2.68488 34.4412 2.68488 34.4412C2.68488 34.4412 2.68488 34.4412 2.68488 34.4412C2.68488 34.4412 2.68488 34.4412 2.68488 34.4412C2.68488 34.4412 2.68488 34.4412 2.68488 34.4412C2.68488 34.4412 2.68488 34.4412 2.68488 34.4412C2.68488 34.4412 2.68488 34.4412 2.68488 34.4412C2.68488 34.4412 2.68488 34.4412 2.68488 34.4412C2.68487 34.4412 2.68487 34.4412 2.68487 34.4412C2.68487 34.4412 2.68487 34.4412 2.68487 34.4412V35.4412ZM2.78909 35.4303C3.55321 35.2674 4.04207 34.5164 3.88033 33.7515L2.90196 33.9583C2.94945 34.1829 2.80583 34.4042 2.58066 34.4522L2.78909 35.4303ZM3.88038 33.7517C3.70126 32.9025 3.56562 32.0446 3.47403 31.1814L2.47962 31.287C2.5748 32.184 2.71576 33.0755 2.90191 33.9581L3.88038 33.7517ZM3.47404 31.1815C3.39153 30.4032 2.69362 29.8391 1.91535 29.9216L2.02076 30.9161C2.24989 30.8918 2.45533 31.0578 2.47961 31.2869L3.47404 31.1815ZM1.91535 29.9216C1.13702 30.0041 0.572985 30.7021 0.655486 31.4803L1.64991 31.3749C1.62563 31.1458 1.7917 30.9403 2.02076 30.9161L1.91535 29.9216ZM0.655511 31.4806C0.757693 32.4402 0.908987 33.3939 1.10905 34.338L2.08733 34.1307C1.89438 33.2202 1.74845 32.3003 1.64989 31.3747L0.655511 31.4806ZM1.10905 34.338C1.27125 35.1035 2.02312 35.5924 2.78843 35.4304L2.58132 34.4521C2.35619 34.4997 2.13505 34.3559 2.08733 34.1307L1.10905 34.338ZM25.4883 53.4868C24.6268 53.3843 23.7712 53.2373 22.9249 53.0464L22.7049 54.0219C23.5849 54.2204 24.4744 54.3732 25.3701 54.4798L25.4883 53.4868ZM22.9251 53.0465C22.162 52.874 21.4034 53.3528 21.2309 54.116L22.2063 54.3365C22.257 54.112 22.4801 53.9711 22.7047 54.0219L22.9251 53.0465ZM21.2309 54.116C21.0584 54.8792 21.5372 55.6378 22.3004 55.8103L22.5209 54.8349C22.2964 54.7841 22.1555 54.561 22.2063 54.3365L21.2309 54.116ZM22.3007 55.8103C23.2426 56.0226 24.1949 56.1862 25.1538 56.3003L25.2719 55.3073C24.3473 55.1973 23.4289 55.0396 22.5206 54.8348L22.3007 55.8103ZM25.1522 56.3001C25.2104 56.3072 25.2679 56.3104 25.3244 56.3102L25.3213 55.3102C25.3043 55.3103 25.2884 55.3093 25.2735 55.3075L25.1522 56.3001ZM25.3239 56.3102C26.1063 56.3086 26.7391 55.6728 26.7375 54.8906L25.7375 54.8926C25.738 55.1228 25.5518 55.3097 25.3218 55.3102L25.3239 56.3102ZM26.7375 54.8906C26.7361 54.1741 26.1999 53.5715 25.4882 53.4868L25.3701 54.4798C25.5795 54.5047 25.7371 54.682 25.7375 54.8926L26.7375 54.8906ZM53.0598 38.7834C52.3556 38.4435 51.5092 38.7383 51.1686 39.4421L52.0687 39.8778C52.1689 39.6707 52.4179 39.584 52.6251 39.684L53.0598 38.7834ZM51.1685 39.4423C50.7907 40.2235 50.3726 40.9846 49.9157 41.7222L50.7659 42.2487C51.2411 41.4815 51.6759 40.69 52.0688 39.8776L51.1685 39.4423ZM49.9113 41.7295C49.5107 42.4017 49.731 43.2713 50.4033 43.6717L50.915 42.8125C50.7173 42.6948 50.6525 42.4391 50.7703 42.2414L49.9113 41.7295ZM50.4031 43.6716C51.0589 44.0624 51.9066 43.8632 52.3196 43.2212L51.4786 42.6802C51.3572 42.8689 51.1079 42.9275 50.9151 42.8126L50.4031 43.6716ZM52.3243 43.2137C52.8323 42.3925 53.2975 41.5454 53.7178 40.676L52.8175 40.2407C52.4122 41.079 51.9637 41.8958 51.4739 42.6877L52.3243 43.2137ZM53.7176 40.6764C54.0589 39.9723 53.7645 39.125 53.0605 38.7838L52.6244 39.6837C52.8316 39.7841 52.918 40.0333 52.8177 40.2403L53.7176 40.6764ZM55.1228 28.0444C54.3491 28.0049 53.6896 28.6002 53.6503 29.374L54.649 29.4248C54.6603 29.2027 54.8496 29.0317 55.0718 29.0431L55.1228 28.0444ZM53.6502 29.3748C53.6496 29.3883 53.6491 29.4019 53.6487 29.415L54.6484 29.4397C54.6486 29.4344 54.6488 29.4291 54.649 29.4241L53.6502 29.3748ZM53.6489 29.4098C53.6184 30.2771 53.5431 31.1424 53.4233 32.002L54.4137 32.14C54.5382 31.2463 54.6166 30.3468 54.6483 29.4449L53.6489 29.4098ZM53.4232 32.0027C53.3164 32.7768 53.8566 33.4909 54.6301 33.5992L54.7689 32.6089C54.5412 32.577 54.3824 32.3669 54.4138 32.1393L53.4232 32.0027ZM54.6275 33.5988C54.6939 33.6085 54.7613 33.6134 54.8291 33.6132L54.8265 32.6132C54.8084 32.6133 54.7901 32.612 54.7715 32.6093L54.6275 33.5988ZM54.8286 33.6132C55.5345 33.6122 56.1322 33.0914 56.2296 32.392L55.2392 32.2541C55.2105 32.4597 55.0348 32.6129 54.8271 32.6132L54.8286 33.6132ZM56.2296 32.3919C56.3625 31.436 56.4462 30.4739 56.4806 29.5094L55.4813 29.4737C55.4481 30.4041 55.3673 31.3322 55.2391 32.2542L56.2296 32.3919ZM56.4807 29.5089C56.5077 28.7275 55.8967 28.0717 55.115 28.0441L55.0796 29.0434C55.3095 29.0516 55.4892 29.2443 55.4813 29.4742L56.4807 29.5089ZM44.6804 48.0067V48.0094H45.6804V48.0067H44.6804ZM44.8558 47.6291C44.1942 48.1939 43.5041 48.7245 42.7882 49.2186L43.3562 50.0416C44.1002 49.528 44.8174 48.9767 45.5051 48.3897L44.8558 47.6291ZM42.7879 49.2188C42.1432 49.6643 41.9821 50.5481 42.4276 51.1926L43.2502 50.624C43.1186 50.4337 43.1663 50.1728 43.3565 50.0414L42.7879 49.2188ZM42.4276 51.1926C42.8732 51.8373 43.757 51.9984 44.4014 51.5529L43.8328 50.7303C43.6425 50.8619 43.3816 50.8142 43.2502 50.624L42.4276 51.1926ZM44.4023 51.5523C45.1968 51.0006 45.9628 50.409 46.6974 49.7797L46.0468 49.0203C45.3379 49.6275 44.5987 50.1985 43.8319 50.7309L44.4023 51.5523ZM46.6971 49.78C47.2917 49.2714 47.3615 48.3772 46.8529 47.7825L46.0929 48.4325C46.2425 48.6074 46.222 48.8704 46.0471 49.02L46.6971 49.78ZM46.853 47.7826C46.3445 47.1879 45.45 47.1182 44.8555 47.6267L45.5054 48.3867C45.6804 48.237 45.9434 48.2577 46.0929 48.4324L46.853 47.7826ZM35.7885 52.5952C34.958 52.8455 34.1151 53.0524 33.2631 53.2153L33.4509 54.1975C34.3368 54.0282 35.2133 53.813 36.077 53.5527L35.7885 52.5952ZM33.2625 53.2154C32.4943 53.3633 31.9911 54.1057 32.139 54.8742L33.121 54.6852C33.0775 54.4594 33.2253 54.2409 33.4515 54.1974L33.2625 53.2154ZM32.139 54.8741C32.267 55.5402 32.8493 56.022 33.5275 56.0232L33.5293 55.0232C33.3298 55.0229 33.1586 54.8811 33.121 54.6853L32.139 54.8741ZM33.5264 56.0232C33.6161 56.0236 33.7051 56.0154 33.7923 55.9994L33.611 55.0159C33.5839 55.0209 33.5569 55.0233 33.5304 55.0232L33.5264 56.0232ZM33.7955 55.9988C34.7442 55.8174 35.6827 55.5866 36.6073 55.307L36.3178 54.3498C35.4268 54.6193 34.5222 54.8418 33.6078 55.0165L33.7955 55.9988ZM36.6191 55.3033C37.3621 55.0584 37.7661 54.2575 37.5211 53.5144L36.5714 53.8274C36.6434 54.0459 36.5246 54.2815 36.3061 54.3535L36.6191 55.3033ZM37.5211 53.5144C37.2849 52.7975 36.528 52.3919 35.8003 52.5918L36.0652 53.5561C36.2793 53.4973 36.5019 53.6167 36.5714 53.8274L37.5211 53.5144ZM28.4991 8.75093C17.5917 8.75093 8.74949 17.5931 8.74949 28.5005H9.74949C9.74949 18.1454 18.1439 9.75093 28.4991 9.75093V8.75093ZM8.74949 28.5005C8.74949 39.4079 17.5917 48.25 28.4991 48.25V47.25C18.1439 47.25 9.74949 38.8556 9.74949 28.5005H8.74949ZM28.4991 48.25C39.4065 48.25 48.2486 39.4079 48.2486 28.5005H47.2486C47.2486 38.8556 38.8542 47.25 28.4991 47.25V48.25ZM48.2486 28.4999C48.2363 17.598 39.4015 8.76339 28.4996 8.75093L28.4985 9.75093C38.849 9.76276 47.2369 18.1505 47.2486 28.5011L48.2486 28.4999ZM43.1654 29.9171H45.8686V28.9171H43.1654V29.9171ZM45.3693 29.3904C44.9068 38.0172 38.0158 44.9082 29.3889 45.3707L29.4425 46.3693C38.5795 45.8794 45.878 38.5809 46.3679 29.4439L45.3693 29.3904ZM29.9157 45.87V43.1668H28.9157V45.87H29.9157ZM29.9157 43.1668C29.9157 42.3845 29.2814 41.7502 28.4991 41.7502V42.7502C28.7291 42.7502 28.9157 42.9367 28.9157 43.1668H29.9157ZM28.4991 41.7502C27.7167 41.7502 27.0824 42.3845 27.0824 43.1668H28.0824C28.0824 42.9367 28.269 42.7502 28.4991 42.7502V41.7502ZM27.0824 43.1668V45.87H28.0824V43.1668H27.0824ZM27.6092 45.3707C18.9823 44.9082 12.0913 38.0172 11.6288 29.3904L10.6303 29.4439C11.1201 38.5809 18.4186 45.8794 27.5556 46.3693L27.6092 45.3707ZM11.1295 29.9171H13.8327V28.9171H11.1295V29.9171ZM13.8327 29.9171C14.6151 29.9171 15.2494 29.2828 15.2494 28.5005H14.2494C14.2494 28.7306 14.0628 28.9171 13.8327 28.9171V29.9171ZM15.2494 28.5005C15.2494 27.7181 14.6151 27.0838 13.8327 27.0838V28.0838C14.0628 28.0838 14.2494 28.2704 14.2494 28.5005H15.2494ZM13.8327 27.0838H11.1295V28.0838H13.8327V27.0838ZM11.6288 27.6106C12.0913 18.9837 18.9823 12.0928 27.6092 11.6303L27.5556 10.6317C18.4186 11.1216 11.1201 18.42 10.6303 27.5571L11.6288 27.6106ZM27.0824 11.131V13.8342H28.0824V11.131H27.0824ZM27.0824 13.8342C27.0824 14.6165 27.7167 15.2508 28.4991 15.2508V14.2508C28.269 14.2508 28.0824 14.0642 28.0824 13.8342H27.0824ZM28.4991 15.2508C29.2814 15.2508 29.9157 14.6165 29.9157 13.8342H28.9157C28.9157 14.0642 28.7291 14.2508 28.4991 14.2508V15.2508ZM29.9157 13.8342V11.131H28.9157V13.8342H29.9157ZM29.3889 11.6303C38.0158 12.0928 44.9068 18.9837 45.3693 27.6106L46.3679 27.5571C45.878 18.42 38.5795 11.1216 29.4425 10.6317L29.3889 11.6303ZM45.8686 27.0838H43.1654V28.0838H45.8686V27.0838ZM43.1654 27.0838C42.383 27.0838 41.7487 27.7181 41.7487 28.5005H42.7487C42.7487 28.2704 42.9353 28.0838 43.1654 28.0838V27.0838ZM41.7487 28.5005C41.7487 29.2828 42.383 29.9171 43.1654 29.9171V28.9171C42.9353 28.9171 42.7487 28.7306 42.7487 28.5005H41.7487ZM29.9157 25.9193V17.5008H28.9157V25.9193H29.9157ZM29.9157 17.5008C29.9157 16.7185 29.2814 16.0842 28.499 16.0842V17.0842C28.7291 17.0842 28.9157 17.2708 28.9157 17.5008H29.9157ZM28.499 16.0842C27.7167 16.0842 27.0824 16.7185 27.0824 17.5008H28.0824C28.0824 17.2708 28.269 17.0842 28.499 17.0842V16.0842ZM27.0824 17.5008V25.9193H28.0824V17.5008H27.0824ZM27.4142 25.4485C26.4967 25.7762 25.7746 26.4983 25.4469 27.4158L26.3886 27.7521C26.6155 27.117 27.1154 26.617 27.7506 26.3902L27.4142 25.4485ZM25.9178 27.0839H21.1659V28.0839H25.9178V27.0839ZM21.1659 27.0839C20.3835 27.0839 19.7492 27.7182 19.7492 28.5006H20.7492C20.7492 28.2705 20.9358 28.0839 21.1659 28.0839V27.0839ZM19.7492 28.5006C19.7492 29.283 20.3835 29.9172 21.1659 29.9172V28.9172C20.9358 28.9172 20.7492 28.7307 20.7492 28.5006H19.7492ZM21.1659 29.9172H25.9178V28.9172H21.1659V29.9172ZM25.446 29.583C26.0399 31.273 27.8914 32.1617 29.5814 31.5678L29.2499 30.6243C28.0809 31.0351 26.8003 30.4205 26.3895 29.2515L25.446 29.583ZM29.5814 31.5678C31.2715 30.9739 32.1601 29.1224 31.5662 27.4324L30.6228 27.7639C31.0336 28.9329 30.4189 30.2136 29.2499 30.6243L29.5814 31.5678ZM31.5662 27.4324C31.24 26.5039 30.5099 25.7739 29.5815 25.4476L29.2499 26.391C29.8922 26.6168 30.3972 27.1217 30.6228 27.7639L31.5662 27.4324ZM28.499 28.9172C28.269 28.9172 28.0824 28.7307 28.0824 28.5006H27.0824C27.0824 29.283 27.7167 29.9172 28.499 29.9172V28.9172ZM28.0824 28.5006C28.0824 28.2705 28.269 28.0839 28.499 28.0839V27.0839C27.7167 27.0839 27.0824 27.7182 27.0824 28.5006H28.0824ZM28.499 28.0839C28.7291 28.0839 28.9157 28.2705 28.9157 28.5006H29.9157C29.9157 27.7182 29.2814 27.0839 28.499 27.0839V28.0839ZM28.9157 28.5006C28.9157 28.7307 28.7292 28.9172 28.499 28.9172V29.9172C29.2815 29.9172 29.9157 29.2829 29.9157 28.5006H28.9157ZM39.4988 10.6677H46.8448V9.66772H39.4988V10.6677Z" fill="#00659E" mask="url(#path-1-outside-1_1401:846)"/>
</svg>
