<svg width="1160" height="151" viewBox="0 0 1160 151" fill="none" xmlns="http://www.w3.org/2000/svg">
<path d="M335.739 146.599C334.378 147.117 332.563 147.893 331.655 148.411C330.748 148.929 327.572 149.706 328.026 149.188C328.479 148.67 330.294 147.635 330.748 147.117C331.202 146.858 328.933 146.081 328.933 145.563C328.933 145.563 328.933 145.563 328.479 145.305C327.118 145.046 327.118 145.046 327.118 145.046C326.211 144.269 325.304 143.492 324.85 143.233C324.396 142.975 323.035 143.751 322.581 144.269C322.581 144.269 322.581 144.269 322.581 144.787C322.581 145.046 322.581 145.046 322.581 145.046C322.581 145.305 322.581 146.081 321.674 146.858C321.22 147.635 320.767 149.447 320.767 149.706C320.313 149.706 319.859 149.706 319.405 149.447C318.952 149.188 318.044 148.411 317.137 148.152C316.23 147.893 319.405 147.117 319.405 146.858C319.859 146.599 319.859 146.081 318.498 146.599C317.137 147.117 314.415 145.822 313.961 146.081C313.507 146.081 313.961 147.376 314.415 147.635C314.415 147.635 314.415 147.635 314.415 147.893C314.415 148.152 314.415 148.152 314.415 148.152C314.415 148.411 313.054 148.67 311.239 148.67C311.239 148.67 311.239 148.67 309.878 148.67C309.424 148.67 309.424 148.67 309.424 148.67C309.424 149.447 308.517 149.964 308.517 149.964C308.063 149.964 306.248 149.964 304.887 149.964C304.433 149.188 304.433 149.188 304.433 149.188C305.794 149.188 306.702 148.67 306.248 148.411C305.794 148.152 304.887 147.376 303.98 147.893C303.072 148.411 300.35 149.447 299.443 149.447C298.082 149.447 295.359 149.447 294.906 149.447C294.906 149.447 295.359 149.188 296.267 149.188C297.174 149.188 299.443 148.67 299.443 148.152C299.443 147.635 302.619 147.117 303.526 147.117C303.98 147.117 305.794 146.599 306.248 146.599C306.248 146.599 306.248 146.599 306.248 146.34C306.248 146.081 305.794 145.822 305.341 145.822C302.165 146.34 298.989 146.858 295.813 146.858C293.544 146.858 293.544 146.858 293.544 146.858C292.637 147.635 291.276 148.411 290.369 148.67C289.461 148.929 288.554 147.893 288.554 147.893C288.1 147.893 286.739 147.376 286.285 147.376C285.832 147.376 284.017 146.599 284.47 146.599C284.924 146.599 286.285 146.081 286.739 146.34C286.739 146.34 286.739 146.34 286.739 146.599C287.646 147.635 287.646 147.635 287.646 147.635C289.461 147.376 291.276 147.376 291.276 147.117C291.73 147.117 292.183 146.34 292.183 146.081C292.183 145.822 289.915 145.046 289.007 145.046C288.1 143.233 286.285 144.269 285.832 144.787C284.924 145.822 282.656 146.081 281.295 146.599C279.933 147.117 279.933 147.117 279.933 147.117C279.026 147.893 278.119 148.152 278.119 147.635C278.119 147.635 278.119 147.635 278.119 147.376C278.119 146.858 278.119 146.858 278.119 146.858C276.758 146.599 274.489 145.822 273.128 145.563C273.128 145.563 273.128 145.563 273.128 145.046C272.674 144.01 271.313 144.01 269.045 144.01C268.137 144.01 267.23 143.492 266.776 143.492C266.322 143.492 265.869 144.269 265.415 144.528C264.508 144.528 264.508 144.787 265.415 145.046C266.322 145.305 267.23 146.081 266.776 146.34C266.322 146.599 261.785 145.563 262.239 145.305C262.239 145.305 262.239 145.305 262.693 145.046C263.6 144.01 262.239 143.492 260.424 144.01C258.61 144.269 258.156 143.751 257.248 143.492C255.887 143.492 255.887 143.492 255.887 143.492C254.526 143.492 251.35 143.751 249.536 144.01C249.536 144.01 249.536 144.01 248.628 143.751C247.267 143.492 247.267 143.492 247.267 143.492C245.906 143.492 244.091 143.751 243.184 144.01C242.276 144.269 238.647 143.492 237.739 143.492C236.832 143.492 235.017 143.492 234.11 143.492C233.202 143.492 230.026 143.233 229.119 143.751C228.212 144.269 224.582 144.528 223.221 143.751C223.221 143.751 223.221 143.751 220.952 144.01C219.591 144.269 219.591 144.269 219.591 144.269C217.776 144.269 215.508 144.01 213.693 144.01C212.332 144.01 207.795 144.528 205.98 144.787C204.165 145.046 198.267 144.528 196.452 144.528C196.452 144.528 196.452 144.528 194.184 144.01C191.008 142.975 191.008 142.975 191.008 142.975C188.286 143.233 185.11 143.751 184.656 143.751C184.203 143.751 181.48 143.751 180.119 143.751C178.758 143.751 175.129 144.01 174.675 144.01C174.675 143.751 173.767 143.492 173.314 143.751C172.86 144.01 171.045 144.269 170.592 144.01C170.592 144.01 170.592 144.01 170.138 143.751C169.684 143.492 169.684 143.492 169.684 143.492C169.23 143.492 168.323 143.492 167.869 143.751C167.416 144.01 166.508 144.269 166.055 144.01C165.601 143.751 163.786 144.269 163.786 144.269C163.332 144.269 161.518 144.528 159.703 144.787C159.703 144.787 159.703 144.787 157.888 144.528C156.981 144.269 156.073 144.269 155.166 144.01C154.258 143.751 153.351 142.975 151.536 143.751C151.536 143.751 150.629 143.751 150.175 143.492C148.36 142.716 147.906 142.457 146.092 143.751C145.184 144.528 145.184 144.528 145.184 144.528C144.277 143.492 143.369 142.716 142.916 142.975C142.462 143.233 141.101 143.751 141.101 143.492C141.101 143.233 139.74 142.457 138.832 142.457C137.925 142.457 136.11 143.233 135.657 143.492C135.203 143.751 133.842 143.233 133.388 143.492C133.388 143.751 132.934 143.751 132.934 143.233C132.934 142.716 130.212 143.492 130.212 143.751C128.397 144.01 128.397 142.457 126.129 142.975C124.768 143.233 124.768 143.233 124.768 143.233C122.953 143.233 121.138 143.233 120.684 143.233C120.231 143.233 118.416 143.492 117.055 143.492C115.694 143.492 112.518 142.975 111.61 143.492C111.61 143.492 111.61 143.492 110.703 143.751C110.249 144.01 110.249 144.01 110.249 144.01C109.342 144.01 107.981 143.492 107.073 143.233C106.166 142.975 101.629 143.751 101.175 143.492C100.722 143.233 98.9068 142.716 98.4531 142.975C97.9994 143.233 95.7309 142.716 95.7309 142.716C95.7309 142.716 95.7309 142.716 95.2772 142.975C94.8235 143.233 94.8235 143.492 94.3698 143.492C93.4624 143.492 91.6476 143.751 91.6476 142.975C91.6476 142.716 91.6476 142.716 91.6476 142.716C93.0087 142.457 93.4624 141.939 93.0087 141.939C92.555 141.68 90.7402 141.68 90.2865 141.939C89.8328 142.198 88.018 142.975 88.018 142.198C88.018 142.198 88.018 142.198 88.018 141.939C88.018 141.68 87.5643 141.421 87.5643 141.421C86.6569 141.421 86.6569 141.421 86.6569 141.421C85.7495 141.421 84.8421 141.162 85.2958 140.645C85.2958 140.645 85.2958 140.645 83.481 140.904C83.0273 140.904 83.0273 140.904 83.0273 140.904C82.5736 141.162 81.6662 141.162 80.3051 140.904C78.944 140.386 74.407 140.386 73.4995 140.386C72.1385 140.386 68.5088 139.609 67.1477 139.609C66.2403 139.609 63.5181 139.868 63.0644 139.35C62.6107 138.832 58.0737 138.315 57.62 138.574C54.8978 137.02 54.8978 137.02 54.8978 137.02C50.8145 136.761 47.6386 136.503 47.1849 136.503C46.7312 136.503 44.9164 136.503 43.5553 136.503C42.1942 136.503 36.2961 136.761 34.0276 136.761C34.0276 136.761 34.0276 136.761 33.5739 135.208C33.5739 134.949 32.6665 134.69 32.2128 134.949C30.8517 135.208 30.8517 135.208 30.8517 135.208C29.4906 134.949 27.6758 134.431 27.6758 134.173C27.2221 133.914 24.9536 133.396 24.0461 133.396C23.1387 133.396 20.8702 132.619 20.4165 132.878C19.9628 132.878 19.0554 132.878 18.6017 132.36C18.6017 132.36 18.6017 132.36 18.148 132.101C17.6943 131.843 16.7869 131.843 16.3332 132.101C14.5184 132.619 12.7036 132.619 11.7962 132.619C9.07402 132.619 10.4351 132.101 10.4351 131.584C10.4351 131.325 9.07402 130.807 10.8888 130.807C11.7962 130.807 12.7036 130.548 13.611 130.289C14.5184 130.03 14.5184 129.772 13.611 129.513C12.7036 129.254 12.7036 129.254 12.7036 129.254C13.611 128.995 14.9721 128.218 16.3332 127.7C17.6943 127.183 18.6017 125.37 17.6943 125.112C17.6943 125.112 17.6943 125.112 16.7869 125.112C15.8795 125.112 15.8795 125.112 15.8795 125.112C14.9721 125.37 13.1573 125.37 12.2499 125.112C11.3425 124.853 11.3425 122.523 11.7962 121.746C12.2499 120.969 13.1573 118.381 12.7036 118.381C12.7036 118.381 11.3425 118.639 10.4351 119.157C10.4351 119.157 10.4351 119.157 9.07402 118.381C8.62032 117.863 8.62032 117.863 8.62032 117.863C8.62032 117.345 9.52772 116.827 9.98142 116.31C9.98142 116.31 9.98142 116.31 9.07402 116.051C8.62032 116.051 8.62032 116.051 8.62032 116.051C7.25921 116.31 6.35181 116.31 6.80551 115.792C6.80551 115.792 6.80551 115.792 6.80551 115.533C6.80551 114.497 6.80551 114.497 6.80551 114.497C5.89811 113.462 4.99071 112.167 4.99071 111.909C4.99071 111.391 6.35181 109.837 8.16662 109.579C9.98142 109.32 9.98142 106.731 8.62032 106.99C8.62032 106.99 8.62032 106.99 7.71292 107.249C6.80551 107.507 6.80551 107.507 6.80551 107.507C5.89811 107.766 4.08331 107.249 2.72221 106.472C2.72221 106.472 2.72221 106.472 3.17591 105.695C3.17591 105.436 3.17591 105.178 3.62961 104.919C4.99071 104.142 5.89811 103.624 6.80551 103.106C7.71292 102.589 8.62032 103.883 9.52772 103.106C9.52772 102.848 9.52772 102.848 9.52772 102.848C10.4351 102.848 10.4351 102.589 9.07402 102.33C9.07402 102.33 9.07402 102.33 9.07402 102.071C9.07402 101.812 9.52772 101.294 9.98142 101.035C10.4351 100.776 10.8888 100.776 11.3425 100.776C13.1573 100.259 13.1573 98.9643 12.2499 98.9643C10.8888 98.7054 10.4351 98.4465 9.98142 97.9288C9.52772 97.6699 9.52772 97.6699 9.52772 97.6699C7.71292 97.6699 7.71291 97.1521 9.98142 96.8932C12.2499 96.6343 17.6943 95.081 20.4165 95.8577C20.4165 95.8577 20.4165 95.8577 23.5924 95.5988C24.0461 95.5988 25.4073 96.1166 25.861 96.6343C26.3147 97.6699 26.3147 97.6699 26.3147 97.6699C27.6758 97.411 28.5832 96.6343 28.1295 96.1166C28.1295 96.1166 28.1295 96.1166 28.1295 95.5988C28.5832 94.3044 29.0369 93.01 29.4906 91.7155C29.4906 91.4567 29.4906 91.4566 29.4906 91.4566C31.3054 91.1978 32.2128 90.68 32.6665 90.68C33.1202 90.68 34.4813 89.9034 34.935 89.9034C35.8424 89.9034 38.1109 89.6445 38.5646 89.6445C39.0183 89.6445 39.9257 89.1267 40.3794 88.8678C40.8331 88.6089 42.6479 89.3856 42.6479 89.6445C43.1016 89.6445 44.4627 89.9034 44.4627 89.3856C44.4627 88.8678 45.8238 87.8323 46.7312 88.3501C47.6386 88.6089 50.3608 88.0912 50.3608 87.8323C50.3608 87.8323 49.9071 87.3145 50.8145 87.0556C50.8145 87.0556 50.8145 87.0556 51.2682 87.0556C52.6293 87.3145 54.4441 88.35 54.8978 86.7967C55.3515 86.7967 56.2589 86.7967 57.1663 87.0556C58.0737 87.3145 60.7959 86.5379 61.7033 86.5379C62.6107 86.5379 64.8792 86.5379 66.2403 86.5379C67.6014 86.5379 69.8699 85.5023 68.9625 85.2434C68.0551 84.9846 66.2403 83.949 66.694 83.1724C67.1477 82.3957 62.157 80.3246 62.6107 80.3246C63.0644 80.3246 63.5181 79.548 62.157 79.0302C62.157 79.0302 62.157 79.0302 62.157 78.5125C62.157 77.4769 62.157 77.4769 62.157 77.4769C60.7959 77.4769 59.4348 77.218 58.5274 76.9592C58.5274 76.9592 58.5274 76.9591 58.0737 76.7003C57.1663 75.9236 57.1663 75.9236 57.1663 75.9236C57.62 75.147 57.62 73.8525 57.1663 73.0759C57.1663 73.0759 57.1663 73.0759 56.7126 72.2992C56.7126 72.0404 56.7126 72.0404 56.7126 72.0404C56.7126 71.7815 58.0737 71.7815 59.4348 72.2992C60.7959 72.817 64.8792 72.0404 64.8792 71.7815C64.8792 71.5226 64.4255 71.0048 63.5181 71.0048C63.5181 71.0048 63.5181 71.0048 63.0644 71.0048C62.157 71.2637 62.157 71.2637 62.157 71.2637C60.7959 71.5226 60.3422 71.5226 60.3422 71.2637C60.3422 71.2637 60.3422 71.2637 60.3422 71.0048C60.3422 70.7459 60.3422 70.7459 60.3422 70.7459C60.3422 70.487 60.3422 70.2282 59.8885 70.2282C59.4348 70.2282 58.0737 70.487 57.62 70.2282C57.1663 69.9693 58.0737 68.6749 58.9811 67.8982C58.9811 67.8982 58.9811 67.8982 60.7959 67.6393C61.2496 67.6393 61.7033 67.6393 61.7033 67.3804C61.2496 65.5682 61.2496 65.5682 61.2496 65.5682C64.4255 64.7916 65.7866 64.2738 65.3329 64.0149C64.4255 63.7561 61.7033 64.0149 61.2496 64.0149C60.7959 64.0149 57.1663 63.2383 54.4441 62.7205C54.4441 62.7205 54.4441 62.7205 51.7219 62.9794C50.3608 62.9794 50.3608 62.7205 49.9071 62.2028C50.3608 61.4261 50.3608 61.4261 50.3608 61.4261C49.4534 61.9439 48.0923 62.2028 46.7312 61.9439C45.3701 61.685 41.7405 60.9083 41.2868 60.6494C42.1942 59.8728 42.1942 59.8728 42.1942 59.8728C41.7405 59.0961 40.8331 58.5784 40.3794 58.3195C39.9257 58.0606 39.0183 58.0606 39.0183 58.0606C39.0183 58.0606 39.0183 58.0606 38.5646 58.3195C38.1109 58.5784 38.1109 58.5784 38.1109 58.5784C37.6572 58.8373 36.2961 59.0961 35.3887 59.0961C34.4813 59.355 31.3054 59.6139 30.8517 59.355C30.398 59.0961 29.4906 58.0606 29.9443 57.8017C30.398 57.5428 34.0276 58.0606 35.3887 58.0606C35.3887 58.0606 35.3887 58.0606 35.3887 57.5428C35.8424 57.0251 34.935 55.9895 34.4813 55.9895C28.1295 55.7306 28.1295 55.7306 28.1295 55.7306C29.0369 53.6596 29.0369 51.8474 28.1295 51.8474C27.2221 51.8474 25.861 52.624 25.4073 52.624C24.9536 52.624 24.4999 52.1063 24.4999 52.1063C24.4999 52.1063 24.0461 51.5885 23.5924 51.0707C23.1387 50.553 24.4998 49.2585 24.9536 48.7408C24.9536 48.7408 24.9536 48.7408 24.9536 48.4819C24.9536 48.223 24.9536 48.223 24.9536 48.223C24.9536 47.9641 24.0461 47.7052 23.5924 47.7052C23.5924 47.7052 23.5924 47.7052 23.1387 47.7052C22.685 47.7052 22.685 47.7052 22.685 47.7052C22.2313 47.7052 21.7776 47.7052 21.3239 47.4464C22.2313 46.9286 22.2313 46.9286 22.2313 46.9286C23.5924 46.1519 23.5924 45.6342 21.7776 45.8931C21.7776 45.8931 21.7776 45.8931 20.8702 45.8931C19.0554 45.8931 19.0554 45.8931 19.0554 45.8931C17.2406 45.8931 15.4258 45.6342 14.9721 45.1164C14.9721 45.1164 14.9721 45.1164 14.9721 44.8575C15.4258 42.2687 15.4258 42.2687 15.4258 42.2687C13.1573 41.2331 10.8888 40.1976 10.4351 39.9387C10.4351 39.9387 10.4351 39.9387 10.4351 39.6798C9.98142 39.1621 9.98142 39.1621 9.98142 39.1621C9.98142 38.3854 9.52772 37.3499 9.07402 36.5732C9.07402 36.5732 9.07402 36.5732 8.16662 36.3143C4.99071 36.5732 4.99071 35.7966 5.44441 34.761C5.44441 34.5021 5.44441 34.5021 5.44441 34.5021C5.44441 33.7255 4.08331 33.4666 2.2685 33.9844C2.2685 33.9844 2.2685 33.9844 3.17591 32.9488C4.08331 32.1722 2.2685 32.1722 1.8148 31.9133C1.8148 31.9133 0.453701 32.9488 0 31.9133C0 31.6544 0 31.6544 0 31.6544C0.907402 31.3955 1.8148 31.1367 1.8148 31.1367C1.8148 31.1367 1.3611 30.1011 0.453701 29.3245C0.453701 29.3245 0.453701 29.3245 0.907402 28.2889C0.907402 28.03 1.3611 27.7712 1.3611 27.5123C1.3611 27.2534 1.3611 27.2534 1.3611 27.2534C0.907402 26.9945 0.907402 26.7356 1.3611 26.7356C1.8148 26.7356 4.08331 26.7356 4.53701 26.2179C4.99071 25.7001 4.08331 24.4057 4.53701 24.1468C6.35181 24.9234 7.71292 24.9234 9.07402 23.8879C10.4351 23.1112 10.4351 23.1112 10.4351 23.1112C12.2499 23.8879 13.611 23.8879 13.611 23.629C13.611 23.3701 15.8795 22.3346 17.6943 21.8168C17.6943 21.8168 17.6943 21.8168 19.0554 23.1112C19.9628 23.8879 19.9628 23.8879 19.9628 23.8879C22.2313 23.3701 23.5924 22.5935 23.1387 22.5935C22.685 22.5935 21.7776 22.0757 21.7776 22.0757C22.685 22.0757 23.5924 22.0757 24.4999 22.3346C24.9536 22.3346 24.9536 22.3346 24.9536 22.3346C25.4073 22.3346 25.861 22.3346 26.3147 22.0757C26.7684 21.8168 28.1295 22.0757 28.1295 21.8168C28.1295 21.5579 29.0369 21.0402 29.4906 21.5579C29.9443 22.0757 32.2128 21.8168 33.1202 21.0402C33.1202 21.0402 33.1202 21.0402 34.0276 20.5224C34.4813 20.2635 34.4813 20.2635 34.4813 20.2635C35.3887 20.2635 36.7498 20.2635 37.6572 20.5224C38.5646 20.7813 42.6479 20.2635 43.1016 20.5224C44.009 20.7813 46.2775 21.2991 46.7312 20.5224C46.7312 20.5224 46.7312 20.5224 47.6386 20.0046C48.546 19.4869 48.546 19.4869 48.546 19.4869C49.9071 19.4869 51.7219 19.4869 52.1756 19.7458C53.083 20.0046 54.4441 18.9691 55.3515 18.9691C56.2589 18.9691 58.5274 19.228 58.9811 19.4869C59.4348 19.7458 60.7959 19.7458 61.2496 19.4869C61.7033 18.9691 63.0644 17.9336 63.9718 18.1924C64.8792 18.4513 66.694 18.1924 67.6014 17.9336C68.0551 17.6747 70.3236 18.1924 70.3236 18.1924C70.3236 18.1924 70.3236 18.1924 70.3236 17.9336C70.3236 17.4158 70.3236 17.4158 70.3236 17.4158C71.231 17.4158 73.0458 17.9336 74.8606 18.1924C74.8606 18.1924 74.8606 18.1924 74.8606 16.898C75.3144 16.898 77.1292 16.6391 78.4903 16.3803C80.3051 16.1214 86.2032 16.6391 87.5643 16.6391C87.5643 16.6391 87.5643 16.6391 88.4717 16.898C90.7402 16.898 91.1939 17.6747 91.1939 16.6391L92.555 16.3803C93.9161 17.4158 96.1846 16.6391 96.1846 16.3803C97.5457 15.6036 99.3605 16.6391 100.268 15.8625C100.722 15.6036 100.722 15.6036 100.722 15.6036C102.99 15.8625 104.805 16.3803 105.259 16.3803C105.712 16.3803 107.073 15.8625 108.435 15.3447C109.796 14.827 113.879 15.6036 113.879 15.6036C113.879 14.3092 113.879 14.3092 113.879 14.3092C115.694 14.5681 118.87 14.5681 120.231 14.0503C120.231 14.0503 120.231 14.0503 121.592 15.0858C122.953 15.3447 122.953 15.3447 122.953 15.3447C124.314 15.0858 126.129 14.5681 127.036 14.3092C127.036 14.3092 127.036 14.3092 127.944 14.3092C128.397 14.3092 128.397 14.3092 128.397 14.3092C128.851 14.3092 129.758 14.3092 130.666 14.3092C131.573 14.3092 135.203 14.3092 136.11 14.3092C137.018 14.3092 139.74 13.7914 139.74 14.0503C140.194 14.3092 141.101 14.5681 141.101 14.3092C141.101 14.3092 141.101 14.3092 141.555 14.0503C142.008 13.7914 142.008 13.7914 142.008 13.7914C142.462 13.5325 142.462 13.5325 142.916 13.7914C143.369 14.0503 143.369 14.3092 143.823 14.5681C143.823 14.5681 143.823 14.5681 144.277 14.5681C145.638 14.0503 145.638 14.0503 145.638 14.0503C147.453 13.7914 149.721 13.5325 150.175 13.5325C150.175 13.5325 150.175 13.5325 150.629 13.2736C152.443 12.2381 152.443 12.2381 152.443 12.2381C153.351 13.2736 154.712 13.7914 155.166 13.5325C155.619 13.2736 156.527 12.7559 156.981 12.7559C157.434 12.7559 157.888 12.2381 158.342 11.2026C158.342 11.2026 158.342 11.2026 161.064 12.497C161.518 12.7559 161.518 12.7559 161.518 12.7559C162.879 12.497 164.693 12.497 165.601 12.497C166.508 12.497 168.323 12.7559 168.323 12.497C168.323 12.2381 171.045 12.2381 171.499 12.2381C171.953 12.2381 172.86 11.9792 172.406 10.9437C172.406 10.9437 172.406 10.9437 175.129 12.2381C175.582 12.2381 176.943 11.9792 177.851 11.7203C178.304 11.7203 178.304 11.7203 178.304 11.7203C178.758 11.4615 181.027 11.2026 182.841 10.9437C185.11 10.6848 190.101 11.9792 190.554 11.9792C191.008 11.9792 193.73 11.7203 195.091 11.4615C196.452 11.2026 203.258 11.4615 204.619 11.4615C204.619 11.4615 204.619 11.4615 205.073 11.2026C207.341 10.9437 207.341 10.9437 207.341 10.9437C208.702 11.2026 210.064 11.4615 210.971 11.7203C210.971 11.7203 210.971 11.7203 211.878 11.7203C213.239 11.7203 213.239 11.7203 213.239 11.7203C214.601 11.4615 216.415 10.9437 217.323 10.9437C218.23 10.9437 221.86 10.6848 223.675 10.6848C223.675 10.6848 223.675 10.6848 225.489 10.6848C225.943 10.6848 225.943 10.6848 225.943 10.6848C226.397 10.4259 227.304 10.6848 227.304 10.9437C227.304 11.2026 229.573 10.9437 230.026 10.9437C230.48 10.6848 231.841 10.4259 232.295 10.4259C232.749 10.4259 234.563 10.9437 235.017 10.9437C235.471 10.9437 238.647 10.167 240.008 10.167C240.008 10.167 240.008 10.167 240.461 10.4259C241.369 11.2026 242.73 9.64927 243.637 10.6848C244.091 11.2026 244.091 11.2026 244.091 11.2026C245.906 10.6848 247.721 10.6848 248.174 10.6848C248.628 10.9437 249.989 11.2026 250.443 11.2026C250.443 10.9437 251.35 10.6848 251.35 10.6848C251.35 10.6848 252.711 10.6848 253.165 10.4259C253.619 10.167 257.248 10.167 259.971 9.90815C259.971 9.90815 259.971 9.90815 262.693 10.4259C264.961 10.6848 267.684 10.9437 270.406 9.90815C271.767 9.39039 271.767 9.39039 271.767 9.39039C274.035 9.64927 276.304 9.90815 276.304 10.167C276.758 10.4259 278.119 10.4259 278.572 9.90815C279.48 9.39039 282.656 10.4259 282.656 10.167C282.656 9.90815 283.563 9.39039 284.017 9.90815C284.017 10.167 284.924 10.6848 285.378 10.167C285.832 9.64927 289.461 10.4259 291.276 10.167C291.276 10.167 291.276 10.167 293.091 10.4259C295.359 9.90815 295.359 9.90815 295.359 9.90815C298.082 9.39039 300.804 9.1315 301.257 9.1315C301.257 9.39039 302.165 9.64927 302.618 9.39039C303.072 9.1315 303.98 8.61373 304.433 8.61373C306.248 9.39039 306.248 9.39039 306.248 9.39039C308.517 9.39039 311.693 9.1315 313.054 9.39039C314.415 9.39039 319.405 9.1315 320.313 9.64927C320.313 9.64927 320.313 9.64927 321.674 8.87262C321.674 8.61373 323.489 9.1315 324.396 9.1315C327.118 9.1315 327.118 9.1315 327.118 9.1315C330.294 9.1315 334.831 8.87262 336.646 8.61373C336.646 8.61373 336.646 8.61373 338.461 9.64927C338.915 9.90815 338.915 9.90815 338.915 9.90815C339.822 9.90815 341.637 9.64927 342.544 9.64927C343.452 9.64927 345.72 9.90815 345.72 9.64927C345.72 9.39039 348.896 9.39039 349.803 10.167C349.803 10.167 349.803 10.167 351.618 9.39039C352.072 9.1315 352.072 9.1315 352.072 9.1315C353.433 9.39039 355.248 9.39039 356.155 9.39039C357.063 9.39039 359.331 9.64927 360.239 9.64927C360.239 9.64927 360.239 9.64927 361.146 9.64927C361.6 9.64927 362.507 9.64927 362.961 9.64927C363.414 9.64927 364.322 9.39039 364.776 9.39039C365.229 9.39039 365.229 9.39039 365.229 9.39039C365.683 9.39039 366.59 9.39039 367.498 9.39039C368.405 9.39039 370.22 9.64927 371.581 10.167C371.581 10.167 371.581 10.167 371.581 9.1315C372.035 9.1315 374.757 9.39039 376.572 9.90815C376.572 9.90815 376.572 9.90815 378.387 9.90815C379.748 9.90815 379.748 9.90815 379.748 9.90815C381.562 9.39039 383.377 9.1315 383.831 8.87262C384.285 8.87262 385.646 9.1315 386.553 9.90815C386.553 9.90815 386.553 9.90815 388.368 9.64927C389.275 9.39039 391.09 9.39039 391.544 9.64927C393.359 9.90815 393.812 8.35485 395.173 8.61373C396.535 8.87262 396.535 8.87262 396.535 8.87262C398.349 8.87262 400.618 9.1315 401.525 9.39039C401.525 9.39039 401.525 9.39039 401.979 9.1315C403.794 8.35485 403.794 8.35485 403.794 8.35485C406.062 8.87262 407.877 9.1315 408.331 8.87262C408.785 8.61373 410.146 8.35485 410.599 8.61373C411.053 8.87262 412.414 9.64927 412.414 9.64927C412.414 9.64927 413.775 9.39039 414.683 9.1315C415.59 8.87262 420.581 8.87262 421.942 8.87262C423.303 8.87262 427.386 8.87262 428.747 9.1315C430.108 9.39039 432.831 8.61373 433.738 8.87262C436.46 7.06043 436.46 7.06043 436.46 7.06043C440.544 7.5782 444.173 8.35485 445.081 8.35485C445.988 8.35485 447.803 8.09596 447.803 8.61373C447.803 9.1315 451.432 8.09597 452.34 7.83708C453.247 7.5782 455.062 7.83708 455.969 7.83708C456.423 7.83708 458.238 7.5782 458.692 7.83708C458.692 8.09597 459.599 8.35485 460.053 8.35485C460.506 8.09597 462.321 7.5782 464.136 7.5782C464.136 7.5782 464.136 7.5782 465.497 7.83708L469.58 8.61373C470.488 8.35485 470.488 8.35485 470.488 8.35485C471.849 7.83708 472.756 7.83708 472.756 7.83708C472.756 8.09597 474.571 8.61373 475.479 8.87262C475.479 8.87262 475.479 8.87262 477.747 7.83708C478.201 7.83708 478.201 7.83708 478.201 7.83708C478.654 7.83708 479.562 8.09597 480.016 8.09597C480.469 8.35485 484.099 8.09597 486.367 7.83708C487.275 7.31931 487.275 7.31931 487.275 7.31931C488.182 7.5782 489.09 8.35485 488.636 9.1315C488.636 9.1315 488.636 9.1315 491.358 8.35485C493.173 7.83708 493.173 7.83708 493.173 7.83708C493.173 8.61373 493.173 8.87262 493.173 8.35485C493.173 7.83708 496.349 8.61373 496.349 8.61373C496.349 8.61373 497.71 8.35485 499.071 8.35485C499.978 8.35485 504.062 8.87262 505.423 8.87262C506.784 8.87262 509.052 8.35485 509.506 8.35485C509.96 8.35485 510.867 9.1315 511.321 9.1315C511.321 9.1315 511.775 8.87262 512.228 8.61373C512.682 8.35485 514.951 8.09597 515.858 8.35485C515.858 8.35485 515.858 8.35485 516.765 8.35485C517.219 8.35485 518.126 7.83708 518.126 8.09597C519.488 8.61373 519.488 8.61373 519.488 8.61373C520.849 8.35485 523.571 8.35485 525.386 8.61373C525.386 8.61373 525.386 8.61373 527.2 8.87262C527.654 8.87262 527.654 8.87262 527.654 8.87262C528.562 8.87262 529.469 8.61373 529.923 8.61373C530.376 8.35485 532.191 8.35485 533.099 8.09597C533.552 7.83708 537.636 8.35485 539.45 8.35485C539.45 8.35485 539.45 8.35485 541.265 8.35485C542.626 8.35485 542.626 8.35485 542.626 8.35485C544.441 8.61373 545.802 8.61373 546.256 8.61373C546.71 8.61373 548.524 8.09597 549.885 8.09597C549.885 8.09597 549.885 8.09597 550.793 8.35485C551.7 8.61373 552.608 9.39039 552.608 8.09597C552.608 8.09597 553.515 8.09597 553.969 8.09597C556.237 8.09597 558.96 8.61373 561.228 8.35485C563.043 8.09597 563.043 8.09597 563.043 8.09597C564.404 8.35485 565.765 8.61373 566.219 8.61373C566.672 8.61373 568.487 8.35485 569.395 8.35485C570.302 8.09597 576.2 8.35485 578.015 8.61373C579.83 8.87262 584.367 7.5782 585.274 7.5782C586.182 7.5782 590.265 7.31931 591.626 7.06043C592.987 6.80154 596.163 8.09597 596.163 8.09597C596.617 8.09597 598.432 7.31931 599.339 7.83708C599.339 7.83708 599.339 7.83708 600.246 7.83708C601.154 7.83708 602.515 7.31931 603.422 7.5782C605.237 7.83708 605.237 7.83708 605.237 7.83708C606.144 7.31931 607.506 7.06043 607.959 7.06043C607.959 7.06043 607.959 7.06043 608.413 7.31931C609.32 7.5782 609.32 7.5782 609.32 7.5782C610.228 7.83708 611.135 8.09597 611.589 7.83708C612.043 7.5782 612.95 7.31931 613.404 7.5782C613.404 7.83708 616.126 7.83708 616.58 7.5782C617.033 7.31931 618.848 7.06043 619.302 7.31931C619.755 7.5782 621.117 8.35485 621.117 8.35485C622.478 7.06043 624.292 8.09597 626.107 8.09597C627.015 8.09597 627.015 8.09597 627.015 8.09597C628.376 7.83708 629.283 7.83708 630.191 7.83708C630.644 7.83708 632.005 7.83708 632.913 8.09597C633.82 8.35485 637.45 7.83708 639.265 7.83708C639.265 7.83708 639.265 7.83708 641.079 7.5782C641.987 7.5782 643.348 8.09597 644.255 7.83708C646.07 7.5782 646.07 7.5782 646.07 7.5782C647.885 7.83708 650.153 7.83708 651.515 8.09597C651.515 8.09597 651.515 8.09597 652.876 8.09597C655.144 7.83708 655.144 7.83708 655.144 7.83708C657.866 7.83708 660.135 7.5782 660.589 7.5782C661.042 7.5782 662.403 8.09597 662.857 8.35485C663.311 8.87262 666.487 8.09597 666.94 8.35485C667.394 8.61373 668.755 8.87262 669.209 8.87262C669.209 8.61373 668.301 7.83708 668.301 7.83708C669.663 7.5782 669.663 7.5782 669.663 7.5782C670.116 8.09597 670.57 8.61373 671.024 8.87262C671.477 8.87262 672.385 8.61373 672.839 8.61373C673.292 8.35485 674.653 8.09597 675.107 8.35485C675.561 8.61373 676.922 8.35485 676.922 7.5782C676.922 7.5782 676.922 7.5782 679.19 8.09597C678.737 8.61373 679.644 8.87262 681.459 8.61373C682.82 8.35485 686.903 9.39039 686.903 9.39039C686.903 9.39039 686.903 9.39039 686.903 9.1315C686.903 8.09597 686.903 8.09597 686.903 8.09597C688.264 8.35485 689.625 8.61373 690.079 8.87262C690.533 9.1315 691.44 9.39039 691.894 9.1315C692.348 8.87262 693.255 8.35485 694.162 8.61373C695.07 8.87262 699.153 8.35485 700.061 8.35485C700.968 8.35485 704.144 9.1315 704.144 9.39039C704.144 9.64927 707.32 9.1315 707.773 8.87262C708.227 8.61373 710.496 8.35485 710.949 9.39039C710.949 9.39039 710.949 9.39039 713.218 9.1315C715.486 8.87262 711.857 8.09597 713.672 8.09597C715.486 8.09597 715.486 8.09597 715.486 8.09597C717.301 8.09597 721.838 8.09597 725.468 8.09597C725.468 8.09597 725.468 8.09597 728.644 8.09597C730.458 8.09597 731.82 8.09597 733.634 8.09597C734.996 8.09597 734.995 8.09597 734.995 8.09597C736.357 8.35485 738.625 7.83708 739.986 7.31931C739.986 7.31931 739.986 7.31931 741.347 8.35485C742.255 8.87262 742.255 8.87262 742.255 8.87262C742.255 8.35485 743.162 7.5782 744.07 7.31931C744.07 7.31931 744.07 7.31931 744.977 7.83708C745.884 8.61373 745.884 8.61373 745.884 8.61373C747.245 8.35485 749.06 8.09597 750.421 8.09597C751.782 8.09597 754.958 7.5782 755.866 7.31931C756.773 7.06043 759.949 7.83708 760.857 7.83708C761.764 7.83708 764.94 8.09597 765.847 8.09597C766.301 7.83708 768.569 7.5782 769.931 7.31931C769.931 7.31931 769.93 7.31931 770.838 7.06043C773.106 6.54266 773.106 6.54266 773.106 6.54266C774.014 7.31931 774.921 7.5782 774.921 7.31931C774.921 7.06043 776.282 6.28378 777.643 6.54266C779.005 6.80154 783.088 7.31931 783.995 7.31931C785.356 7.31931 789.44 6.28378 791.708 6.28378C791.708 6.28378 791.708 6.28378 793.523 6.28378C795.338 6.28378 797.153 6.02489 799.421 6.28378C800.782 6.28378 800.782 6.28378 800.782 6.28378C801.69 6.02489 803.504 6.02489 804.865 6.02489C804.865 6.02489 804.865 6.02489 805.319 5.76601C807.134 5.24824 807.588 5.50712 808.041 6.28378C808.949 6.28378 811.671 5.76601 813.486 4.98936C813.486 4.98936 813.486 4.98936 816.208 6.02489C816.662 6.02489 816.662 6.02489 816.662 6.02489C817.115 6.02489 817.115 5.76601 817.115 5.50712C817.115 5.24824 820.745 5.50712 821.652 5.76601C822.56 6.02489 825.736 5.76601 826.643 5.76601C827.551 5.76601 830.273 5.24824 831.18 5.24824C832.088 5.24824 834.81 4.73047 836.171 4.98936C837.532 5.24824 842.523 4.98936 843.43 4.98936C843.884 5.24824 845.699 5.76601 845.699 5.50712C845.699 5.24824 846.606 4.98936 847.06 5.50712C847.06 5.50712 847.06 5.50712 847.513 5.50712C848.421 5.76601 848.421 5.76601 848.421 5.76601C849.328 5.76601 852.05 5.50712 853.865 5.50712C853.865 5.50712 853.865 5.50712 854.773 5.24824C856.134 4.73047 856.134 4.73047 856.134 4.73047C857.041 4.98936 858.402 5.24824 858.856 5.24824C859.31 5.24824 860.671 4.98936 861.124 4.73047C861.578 4.73047 864.3 4.98936 865.661 5.24824C867.022 5.50712 871.106 4.73047 871.56 4.73047C872.013 4.73047 873.828 5.76601 873.828 5.50712C873.828 5.24824 875.189 4.47159 876.55 4.47159C876.55 4.47159 876.55 4.47159 877.458 4.47159C878.819 4.47159 878.819 4.47159 878.819 4.47159C880.18 4.73047 882.448 4.98936 883.809 4.98936C885.171 4.98936 888.346 4.2127 889.254 4.2127C890.161 4.2127 892.43 4.47159 892.43 4.2127C892.43 3.95382 893.337 3.17717 893.337 3.17717C894.698 3.95382 896.059 4.73047 898.328 3.69494C899.235 3.43605 899.235 3.43605 899.235 3.43605C900.596 3.69494 902.411 3.69494 902.865 3.69494C903.319 3.69494 905.587 3.95382 906.041 3.95382C906.041 3.95382 906.041 3.95382 906.494 3.95382C907.856 3.69493 907.856 3.69494 907.856 3.69494C909.67 3.43605 911.939 3.43605 913.3 3.43605C913.3 3.43605 913.3 3.43605 914.661 3.43605C915.568 3.43605 915.568 3.43605 915.568 3.43605C916.93 2.91828 918.291 2.6594 918.744 2.91828C919.198 3.17717 920.559 3.69494 921.013 3.43605C921.467 3.17717 924.189 2.6594 924.643 2.91828C925.096 3.17717 927.365 3.69494 929.633 3.69494C929.633 3.69494 929.633 3.69493 930.994 3.95382C932.355 4.2127 932.355 4.2127 932.355 4.2127C933.263 3.95382 935.078 3.69494 936.439 3.69494C936.439 3.69494 936.439 3.69494 937.346 3.43605C937.8 3.43605 937.8 3.43605 937.8 3.43605C938.707 3.43605 940.976 3.17717 943.244 2.91828C943.244 2.91828 943.244 2.91828 945.513 3.69494C946.874 4.2127 946.874 4.2127 946.874 4.2127C949.142 4.2127 950.957 3.69494 950.957 3.17717C950.957 2.6594 953.679 2.91828 954.587 3.17717C955.04 3.43605 957.763 3.43605 958.67 3.43605C959.577 3.43605 961.846 2.91828 961.846 2.91828C961.846 2.91828 962.753 3.17717 963.207 3.43605C963.661 3.69494 967.29 3.95382 966.837 3.69494C966.383 3.43605 966.383 3.17717 968.198 3.43605C968.198 3.43605 968.198 3.43605 970.013 2.6594C970.92 2.40051 973.188 2.6594 974.55 2.6594C975.911 2.6594 975.911 2.6594 975.911 2.6594C976.818 3.17717 977.726 3.43605 978.179 3.43605C978.633 3.43605 980.901 3.43605 983.17 3.69494C983.17 3.69494 983.17 3.69493 984.531 2.6594C984.985 2.40051 984.985 2.40051 984.985 2.40051C987.253 2.91828 988.614 2.91828 988.614 2.6594C988.614 2.40051 988.161 1.62386 988.161 1.62386C988.161 1.62386 989.975 1.36498 991.337 1.36498C992.698 1.36498 996.781 1.88275 997.235 1.88275C997.235 1.88275 997.235 1.88275 997.688 1.88275C999.049 2.14163 999.049 2.14163 999.049 2.14163C1000.86 2.14163 1002.68 2.14163 1003.59 2.40051C1004.49 2.6594 1007.22 1.36498 1009.03 0.588325C1009.03 0.588325 1009.03 0.588325 1010.85 0.847209C1013.11 1.36498 1013.11 1.36498 1013.11 1.36498C1014.48 0.847209 1015.38 0.329441 1015.84 0.329441C1016.29 0.329441 1016.74 0.329441 1017.2 0.0705569C1017.65 -0.188327 1019.92 0.329441 1020.83 0.588325C1021.28 0.847209 1024 1.10609 1023.55 0.588325C1023.1 0.0705569 1025.82 0.588325 1026.27 0.329441C1026.73 0.0705569 1028.99 0.329441 1029.45 0.588325C1030.35 0.847209 1033.08 0.847209 1033.08 0.588325C1033.08 0.329441 1035.35 0.0705569 1039.43 0.0705569C1039.43 0.0705569 1039.43 0.0705569 1040.79 0.588325C1043.51 1.62386 1043.51 1.62386 1043.51 1.62386C1043.97 0.588325 1044.87 0.329441 1046.23 0.847209C1046.23 0.847209 1046.23 0.847209 1048.5 0.329441C1051.23 -0.188327 1054.4 0.0705569 1057.12 0.847209C1058.03 1.10609 1059.85 1.62386 1061.66 1.10609C1062.57 0.847209 1064.84 1.36498 1066.2 1.88275C1067.1 2.14163 1064.38 2.40051 1066.2 2.6594C1066.65 2.6594 1067.56 2.14163 1068.01 2.40051C1068.92 2.40051 1070.73 2.6594 1070.73 2.91828C1071.64 3.95382 1071.64 3.95382 1071.64 3.95382C1073.91 4.2127 1076.63 4.73047 1077.99 4.98936C1079.35 5.24824 1083.89 5.50712 1084.35 5.50712C1085.25 5.50712 1087.52 5.76601 1088.43 5.76601C1088.88 5.76601 1090.24 5.50712 1090.24 6.02489C1090.24 6.54266 1092.97 5.76601 1093.42 5.76601C1093.87 5.76601 1096.14 5.76601 1097.5 5.76601C1099.32 5.76601 1103.4 6.80154 1103.85 6.80154C1104.31 6.80154 1105.67 6.80154 1105.67 7.06043C1105.67 7.31931 1107.03 8.09597 1108.85 7.83708C1110.66 7.5782 1115.65 8.61373 1117.47 8.87262C1117.47 8.87262 1117.47 8.87262 1117.92 10.167C1118.37 10.6848 1121.1 10.9437 1121.55 11.9792C1122 12.497 1122 12.497 1122 12.497C1123.82 13.0148 1125.63 13.2736 1126.09 13.2736C1126.54 13.2736 1126.99 13.7914 1126.54 14.3092C1128.35 14.5681 1128.35 14.5681 1128.35 14.5681C1127.9 15.0858 1127.45 16.1214 1127.45 16.6391C1127.45 16.6391 1127.45 16.6391 1127.45 17.1569C1127.9 18.1924 1127.9 18.1924 1127.9 18.1924C1128.35 19.4869 1129.26 20.5224 1129.72 20.5224C1129.72 20.5224 1129.72 20.5224 1130.17 20.5224C1130.62 20.5224 1130.62 20.5224 1130.62 20.5224C1131.08 20.5224 1131.53 20.5224 1131.53 20.7813C1131.53 21.0402 1130.62 21.2991 1129.72 21.5579C1129.72 21.5579 1129.72 21.5579 1128.81 21.8168C1128.81 21.8168 1128.81 22.0757 1128.81 22.3346C1128.81 22.3346 1129.26 22.3346 1129.72 22.3346L1130.17 22.0757C1131.08 22.0757 1131.08 22.0757 1131.08 22.0757C1131.98 22.0757 1132.89 22.0757 1132.89 22.3346C1132.89 22.5935 1133.8 23.3701 1134.71 23.8879C1134.71 23.8879 1134.71 23.8879 1135.61 24.4057C1136.07 24.6645 1136.07 24.6646 1136.07 24.6646C1136.07 25.4412 1135.16 25.7001 1133.8 25.4412C1132.44 25.1823 1129.26 25.4412 1130.17 26.7356C1131.53 28.2889 1131.53 32.1722 1130.62 32.1722C1129.26 32.4311 1126.54 32.9488 1126.99 32.9488C1127.45 32.9488 1128.81 33.4666 1129.72 33.9844C1129.72 33.9844 1129.72 33.9844 1130.17 34.5021C1131.53 35.7966 1131.98 33.7255 1133.34 34.5021C1133.8 34.761 1133.8 34.761 1133.8 34.761C1135.16 35.0199 1136.07 35.5377 1135.61 36.0555C1135.16 36.5732 1136.52 38.6443 1136.97 39.6798C1136.97 39.6798 1136.97 39.6798 1136.07 40.7154C1135.16 41.7509 1136.97 43.5631 1139.24 43.5631C1141.06 43.5631 1141.06 43.5631 1141.06 43.5631C1143.33 43.822 1144.23 44.0809 1143.33 44.0809C1142.42 44.0809 1139.24 44.5986 1139.24 44.8575C1139.24 45.1164 1140.15 46.4108 1141.51 46.1519C1141.51 46.1519 1141.51 46.1519 1142.87 46.1519C1143.78 46.1519 1143.78 46.1519 1143.78 46.1519C1144.69 46.1519 1145.59 46.1519 1146.5 46.4108C1147.41 46.6697 1151.04 46.4108 1152.4 46.4108C1154.22 46.4108 1156.03 48.4819 1156.03 48.7408C1156.03 48.7408 1156.03 48.7408 1155.12 48.7408C1153.31 48.4819 1152.4 49.2585 1152.85 50.0352C1153.31 50.553 1153.76 51.0707 1154.67 51.3296C1156.48 51.8474 1156.48 51.8474 1156.48 51.8474C1156.48 52.8829 1156.94 53.4007 1157.39 53.1418C1157.39 53.1418 1157.39 53.1418 1157.84 53.1418C1158.3 53.1418 1159.21 53.1418 1159.66 53.4007C1160.11 53.6596 1160.11 53.9185 1159.66 54.1773C1158.75 54.6951 1157.84 55.2129 1156.03 54.954C1155.58 54.954 1155.12 55.2129 1155.12 55.4718C1155.12 55.7307 1155.58 55.9895 1156.03 55.9895C1157.39 56.2484 1157.39 56.2484 1157.39 56.2484C1158.75 56.5073 1158.75 57.0251 1157.39 57.5428C1157.39 57.5428 1157.39 57.5428 1156.03 57.5428C1154.67 57.5428 1154.67 57.5428 1154.67 57.5428C1152.85 57.0251 1151.49 57.284 1151.49 58.0606C1151.49 58.0606 1151.49 58.0606 1151.04 58.5784C1150.59 59.355 1150.59 59.355 1150.59 59.355C1149.22 59.6139 1146.96 59.8728 1146.05 59.8728C1145.14 59.8728 1145.14 61.4261 1146.05 62.4616C1146.5 63.2383 1147.86 66.086 1146.96 66.3449C1146.05 66.6038 1146.96 68.1571 1147.41 68.416C1147.86 68.6749 1148.77 69.7104 1148.32 69.7104C1148.32 69.7104 1148.32 69.7104 1147.41 69.9693C1146.5 70.2282 1145.59 69.1926 1144.69 69.9693C1143.78 69.9693 1142.42 69.7104 1141.51 69.4515C1140.6 69.1926 1136.52 69.7104 1135.16 69.7104C1133.34 69.9693 1128.35 69.1926 1126.99 68.6749C1125.63 68.416 1120.64 68.416 1119.73 68.416C1118.83 68.416 1116.1 67.6393 1115.65 67.8982C1115.2 68.1571 1114.74 69.1926 1114.74 69.7104C1114.74 70.2282 1117.92 70.487 1118.83 70.487C1118.83 70.487 1118.83 70.487 1119.28 70.7459C1120.19 71.0048 1119.28 72.0404 1121.55 71.7815C1122 71.7815 1122 71.7815 1122 71.7815C1122.46 72.2992 1123.82 72.5581 1124.72 72.0404C1124.72 72.0404 1124.72 72.0404 1124.72 73.3348C1124.72 73.5937 1124.72 73.5937 1124.72 73.5937C1126.09 73.8525 1127.9 73.8525 1129.26 73.8525C1129.26 73.8525 1129.26 73.8525 1129.72 74.6292C1129.72 75.147 1129.72 75.147 1129.72 75.147C1130.17 75.9236 1129.72 76.1825 1129.26 75.9236C1128.81 75.6647 1126.09 75.6647 1125.63 75.6647C1125.18 75.9236 1123.36 76.1825 1122.46 75.6647C1121.55 75.4058 1118.83 74.1114 1118.83 74.3703C1119.28 75.147 1120.64 75.9236 1120.64 76.7003C1120.19 77.4769 1120.19 77.4769 1120.19 77.4769C1118.37 78.5125 1117.47 79.2891 1118.37 79.548C1118.83 79.8069 1121.09 79.8069 1122 79.2891C1122 79.2891 1122 79.2891 1122.46 78.7713C1122.91 78.5125 1122.91 78.5125 1122.91 78.5125C1122.91 77.9947 1123.36 77.7358 1123.36 77.7358C1124.72 78.5125 1124.72 78.5125 1124.72 78.5125C1126.09 77.9947 1127.9 77.7358 1128.35 77.9947C1128.81 77.9947 1128.81 78.7713 1126.99 79.548C1126.99 79.548 1126.99 79.548 1127.9 80.5835C1128.35 80.8424 1128.35 80.8424 1128.35 80.8424C1129.72 80.5835 1131.08 81.1013 1131.53 82.1368C1131.98 82.9135 1132.89 83.949 1132.89 83.949C1132.89 83.949 1131.08 84.2079 1130.17 83.6901C1130.17 83.6901 1130.17 83.6901 1129.26 83.4313C1128.81 83.4313 1127.9 83.6901 1127.9 83.949C1127.45 84.2079 1127.45 84.9846 1127.9 85.2434C1128.35 85.5023 1131.08 85.7612 1130.62 86.0201C1130.17 86.279 1127.9 87.3145 1128.35 87.5734C1128.81 87.8323 1129.72 88.6089 1130.17 88.3501C1130.17 88.3501 1130.17 88.3501 1130.62 88.3501C1131.98 88.0912 1133.34 88.8678 1134.71 90.1622C1135.16 90.68 1135.16 90.68 1135.16 90.68C1134.25 91.1978 1133.8 91.7155 1133.34 91.9744C1132.89 91.9744 1132.89 92.4922 1133.8 92.7511C1133.8 92.7511 1133.8 92.7511 1134.25 92.7511C1136.07 92.7511 1136.52 93.01 1135.61 93.7866C1135.61 94.0455 1135.16 94.3044 1135.16 94.3044C1136.07 94.5633 1136.07 94.5633 1136.07 94.5633C1136.07 95.081 1134.71 95.3399 1133.8 95.081C1133.8 95.081 1133.8 95.081 1133.34 94.5633C1133.34 94.3044 1133.34 94.3044 1133.34 94.3044C1131.08 94.3044 1131.08 94.5633 1133.34 95.081C1133.34 95.081 1133.34 95.081 1132.44 96.1166C1131.98 96.6343 1131.98 96.6343 1131.98 96.6343C1131.53 97.411 1131.53 97.9288 1131.98 98.1876C1132.44 98.4465 1133.34 99.4821 1132.89 99.9998C1132.44 100.518 1129.26 101.035 1129.26 101.294C1129.26 101.294 1129.26 101.294 1129.72 101.553C1130.17 102.071 1130.17 102.071 1130.17 102.071C1130.62 102.848 1130.62 103.106 1130.17 102.848C1129.72 102.589 1127.45 102.33 1126.99 102.589C1126.54 102.589 1124.27 102.589 1123.36 102.589C1122.46 102.589 1120.64 102.589 1121.09 102.848C1121.55 103.106 1122.91 103.624 1123.36 103.883C1123.82 104.142 1126.09 103.624 1126.09 103.624C1126.09 103.624 1126.54 103.883 1126.54 104.401C1126.54 104.919 1129.72 104.401 1130.17 104.401C1130.62 104.401 1131.53 104.66 1130.62 104.919C1129.72 105.178 1126.99 105.695 1126.54 105.436C1126.54 105.178 1125.18 104.919 1124.72 104.919C1124.27 104.919 1122.91 106.213 1122.46 106.213C1122 106.213 1120.19 106.731 1119.73 107.507C1119.73 107.507 1119.73 107.507 1120.19 108.284C1120.64 109.061 1121.55 109.32 1122.91 109.579C1123.36 109.579 1123.36 109.579 1123.36 109.579C1123.82 109.837 1123.82 110.355 1122.91 110.614C1122.46 111.132 1119.73 111.909 1119.28 112.167C1118.83 112.426 1118.83 113.203 1118.83 113.203C1118.37 113.203 1117.92 113.721 1117.92 113.721C1117.92 113.721 1117.92 114.238 1118.83 114.497C1119.28 114.756 1120.64 116.051 1120.64 116.827C1120.64 116.827 1120.64 116.827 1119.73 117.345C1117.92 118.381 1118.37 119.157 1121.09 119.675C1123.36 120.193 1123.36 120.193 1123.36 120.193C1122 120.969 1120.64 122.005 1119.73 122.523C1119.28 123.041 1117.47 123.558 1118.83 123.558C1118.83 123.558 1118.83 123.558 1118.83 124.594C1118.83 125.112 1118.83 125.112 1118.83 125.112C1118.83 125.629 1119.28 126.665 1119.28 127.183C1119.28 127.183 1119.28 127.183 1120.19 127.442C1121.09 127.959 1121.09 127.959 1121.09 127.959C1120.64 128.477 1120.19 129.513 1119.73 130.03C1119.73 130.03 1119.73 130.03 1120.64 130.548C1122.91 132.101 1122.91 132.101 1122.91 132.101C1121.09 132.878 1119.28 133.396 1119.28 133.396C1119.28 133.396 1120.64 134.949 1122.91 136.503C1122.91 136.503 1122.91 136.502 1124.72 138.056C1125.18 138.574 1125.18 138.574 1125.18 138.574C1124.27 138.315 1123.36 138.315 1122.91 138.315C1122.91 138.315 1122 138.315 1121.09 138.574C1120.19 138.832 1118.37 139.35 1117.92 139.35C1117.47 139.35 1115.2 139.609 1114.29 139.868C1114.29 139.868 1114.29 139.868 1113.38 140.127C1112.02 140.386 1112.02 140.386 1112.02 140.386C1110.66 140.386 1107.03 140.645 1104.31 140.904C1101.59 141.162 1092.06 141.68 1090.24 141.939C1090.24 141.939 1090.24 141.939 1088.88 141.939C1087.52 141.939 1087.52 141.939 1087.52 141.939C1085.71 142.198 1082.08 142.457 1078.45 142.457C1078.45 142.457 1078.45 142.457 1075.27 142.457C1073.91 142.457 1073.91 142.457 1073.91 142.457C1072.55 142.716 1070.28 143.492 1068.92 144.01C1068.92 144.01 1068.92 144.01 1067.56 142.975C1067.56 142.716 1064.84 143.233 1064.84 143.233C1063.93 142.198 1062.57 144.01 1061.66 142.975C1061.21 142.716 1061.21 142.716 1061.21 142.716C1059.39 143.233 1057.58 143.492 1056.67 143.492C1055.31 144.01 1055.31 144.01 1055.31 144.01C1053.49 144.01 1051.23 144.01 1050.32 144.269C1049.41 144.528 1046.23 144.01 1045.78 144.01C1044.87 144.01 1041.24 144.269 1039.43 144.269C1037.61 144.269 1032.17 145.046 1031.72 144.787C1031.26 144.528 1028.09 145.305 1026.27 145.563C1026.27 145.563 1026.27 145.563 1024.91 145.305C1023.1 145.046 1023.1 145.046 1023.1 145.046C1020.83 145.305 1018.56 145.305 1017.2 145.563C1015.84 145.563 1013.11 146.081 1013.11 145.822C1013.11 145.563 1010.85 145.822 1009.48 146.34C1008.12 146.858 1003.59 146.081 1002.68 146.34C1002.68 146.34 1002.68 146.34 1002.23 146.081C1000.41 145.563 1000.41 145.563 1000.41 145.563C999.049 146.081 996.327 146.34 994.512 146.081C994.512 146.081 994.512 146.081 993.151 146.34C991.79 146.599 991.79 146.599 991.79 146.599C990.429 146.34 987.707 146.081 985.892 146.34C985.892 146.34 985.892 146.34 984.531 146.34C983.17 146.34 983.17 146.34 983.17 146.34C981.355 146.599 979.087 146.599 977.725 146.081C977.725 146.081 977.726 146.081 975.911 146.599C974.55 146.858 974.55 146.858 974.55 146.858C972.735 146.858 969.105 146.858 966.837 147.117C966.837 147.117 966.837 147.117 964.114 146.858C962.3 146.599 962.3 146.599 962.3 146.599C960.031 146.858 957.763 147.376 956.855 147.376C955.948 147.376 953.679 147.117 953.226 147.117C952.772 147.376 950.05 147.117 948.689 147.117C947.328 147.117 943.244 147.635 942.791 147.376C942.791 147.117 942.337 147.117 942.337 147.635C942.337 148.152 939.161 147.117 938.707 147.117C938.254 147.117 935.078 147.117 933.716 147.376C932.355 147.635 928.726 147.117 927.818 147.376C926.911 147.376 923.281 147.117 921.92 147.117C920.559 147.117 916.022 147.117 914.661 147.117C913.3 146.858 909.67 147.893 909.217 147.893C908.763 147.893 906.495 147.635 906.041 147.635C905.133 147.635 903.319 147.635 901.504 147.635C899.689 147.635 895.152 147.376 894.698 147.376C894.245 147.376 892.883 147.635 892.43 147.376C891.976 147.117 888.346 147.376 886.985 147.635C885.624 147.635 881.087 147.893 879.272 148.411C879.272 148.411 879.272 148.411 877.004 147.635C875.643 147.117 875.643 147.117 875.643 147.117C872.921 147.117 869.291 147.376 867.023 147.635C867.023 147.635 867.023 147.635 864.754 147.117C864.3 147.117 864.3 147.117 864.3 147.117C863.393 147.635 861.578 147.893 860.217 147.376C858.856 146.858 853.411 147.635 850.689 147.893C847.967 148.152 841.161 147.117 840.708 147.117C840.254 147.117 837.986 147.376 835.717 147.376C835.717 147.376 835.717 147.376 833.449 146.858C832.088 146.599 832.088 146.599 832.088 146.599C831.18 147.376 829.819 147.635 828.912 147.376C828.004 147.117 825.282 146.599 824.375 146.858C823.467 147.117 821.199 147.893 820.745 147.635C820.291 147.376 817.569 146.858 815.301 146.858C815.301 146.858 815.301 146.858 813.94 147.117C812.125 147.376 810.764 147.376 809.402 147.117C808.041 146.599 808.041 146.599 808.041 146.599C806.68 146.858 805.319 147.117 804.865 147.117C804.412 147.117 801.69 146.599 801.236 146.599C800.782 146.599 798.06 146.858 797.606 147.117C796.699 147.376 794.43 147.117 793.523 147.117C792.616 147.117 789.893 147.117 788.986 147.117C788.079 147.117 785.81 146.858 785.81 146.599C785.81 146.34 785.356 145.563 784.903 145.563C784.449 145.563 783.542 145.822 783.542 145.563C783.542 145.305 781.727 145.046 781.273 145.305C781.273 145.305 781.273 145.305 780.819 145.822C780.366 146.081 779.005 146.34 778.097 146.599C775.375 147.376 775.375 147.376 772.653 146.34C772.199 146.081 772.199 146.081 772.199 146.081C771.745 145.822 770.384 146.081 769.931 146.34C769.477 146.599 766.755 147.117 765.847 146.599C764.94 146.34 762.671 145.563 762.671 145.822C762.671 146.081 761.31 147.117 759.949 147.117C758.588 147.117 752.69 146.858 748.607 147.376C748.607 147.376 748.607 147.376 744.523 146.599C739.986 148.152 739.986 148.152 739.986 148.152C737.718 148.67 735.903 148.929 735.449 148.67C734.996 148.411 733.181 148.929 732.727 148.929C732.727 148.929 730.458 149.188 728.644 148.929C726.829 148.929 721.385 148.411 720.931 148.411C720.477 148.411 717.755 148.929 716.847 149.188C715.94 149.447 711.857 149.447 710.042 149.964C710.042 149.964 710.042 149.964 707.773 148.929C706.412 148.411 706.412 148.411 706.412 148.411C705.051 148.67 703.236 148.67 702.329 148.411C701.422 148.152 698.699 149.188 697.792 149.188C696.885 149.188 694.162 148.67 694.162 148.411C694.162 148.152 692.801 147.635 691.44 148.152C691.44 148.152 691.44 148.152 690.533 148.67C689.625 149.188 689.625 149.188 689.625 149.188C688.264 148.929 686.903 148.929 686.45 148.929C685.996 149.188 684.181 149.188 684.181 148.929C684.181 148.67 683.727 148.411 683.274 149.447C683.274 149.447 683.274 149.447 681.459 148.929C680.551 148.67 680.551 148.67 680.551 148.67C679.644 148.929 678.283 148.929 677.829 148.929C677.376 148.929 674.653 148.411 674.2 148.67C673.292 148.67 670.57 148.67 669.663 148.411C668.755 148.152 666.033 148.411 664.672 148.152C664.672 148.152 664.672 148.152 663.311 148.152C662.857 148.152 661.95 148.411 661.496 148.411C660.589 147.893 660.135 148.411 659.227 148.411C658.774 148.411 657.866 148.152 657.413 147.893C657.413 147.893 656.505 148.152 656.505 148.411C656.505 148.67 656.505 148.67 656.505 148.67C656.959 148.929 656.959 148.929 656.959 149.188C656.959 149.188 656.052 149.188 655.144 149.188C654.69 149.188 651.968 149.188 651.061 149.447C651.061 149.447 651.061 149.447 650.153 149.447C648.339 149.447 646.524 148.929 645.616 149.188C643.802 149.706 643.802 149.706 643.802 149.706C642.441 149.447 640.626 149.188 640.172 149.188C639.265 149.188 636.996 149.706 636.542 149.964C636.089 150.223 635.181 149.188 635.181 148.929C635.181 148.929 633.367 148.929 632.005 148.929C630.644 148.929 624.746 149.447 623.385 149.447C622.024 149.447 618.848 147.893 618.394 148.152C617.941 148.411 617.033 149.447 614.765 149.706C612.95 149.706 605.691 148.67 602.515 148.152C602.515 148.152 602.515 148.152 599.793 149.447C598.885 149.706 598.885 149.706 598.885 149.706C597.07 149.447 595.256 149.188 594.802 149.188C594.348 148.929 592.533 149.188 591.626 149.188C590.719 148.929 587.996 149.447 587.543 149.706C587.089 149.706 584.82 149.706 583.006 149.447C581.191 149.188 575.293 149.706 572.571 149.964C572.571 149.964 572.571 149.964 570.302 149.188C570.302 149.188 564.858 149.964 564.404 149.964C563.95 150.223 563.95 150.223 563.497 150.223C562.135 150.482 562.135 150.482 562.135 150.482C560.774 150.223 559.867 149.706 559.867 149.447C559.867 149.188 559.413 148.411 558.96 148.411C558.506 148.411 557.145 148.67 557.598 148.929C557.598 148.929 557.598 148.929 557.598 149.188C557.598 149.447 557.598 149.447 557.598 149.447C557.598 149.964 556.237 150.223 554.876 150.223C554.876 150.223 554.876 150.223 553.515 150.223C552.608 150.223 552.608 150.223 552.608 150.223C551.7 150.482 549.432 150.482 548.071 150.482C546.71 150.482 542.173 150.223 541.265 150.223C540.358 150.482 537.636 149.964 536.728 150.223C535.821 150.482 533.099 149.964 532.645 150.223C532.645 150.223 532.645 150.223 532.191 150.223C529.923 150.482 528.108 150.223 525.839 149.964C524.025 149.706 524.025 149.706 524.025 149.706C521.302 149.706 518.58 149.706 517.673 149.706C516.765 149.706 515.858 148.67 514.951 149.447C514.951 149.447 514.951 149.447 514.497 149.706C514.043 149.964 514.043 149.964 514.043 149.964C513.589 150.223 512.228 150.482 510.867 150.741C509.506 151 504.969 149.964 504.062 149.964C503.154 149.964 501.793 149.964 501.34 149.964C500.886 149.964 498.617 149.964 498.164 149.964C497.71 149.964 494.534 149.964 493.173 149.964C491.812 149.964 488.182 149.447 488.182 149.188C488.182 148.929 487.275 149.447 486.367 150.223C486.367 150.223 486.367 150.223 484.099 149.447C483.645 149.188 481.83 150.223 480.469 150.223C479.108 150.223 479.108 150.223 479.108 150.223C477.747 149.964 475.479 150.223 474.117 151C474.117 151 474.117 151 472.303 150.223C471.395 149.706 471.395 149.706 471.395 149.706C469.58 149.447 467.766 149.188 467.312 149.447C466.858 149.706 465.497 150.482 465.043 149.964C464.59 149.706 462.775 149.188 461.868 149.706C461.868 149.706 461.868 149.706 460.96 149.964C460.506 149.964 459.145 149.964 459.145 149.964C459.145 148.67 459.145 148.67 459.145 148.67C456.877 148.411 454.608 148.411 454.608 148.67C454.608 149.188 453.247 149.706 451.886 149.706C451.886 149.706 451.886 149.706 450.979 149.964C450.071 149.964 449.618 150.482 449.618 149.706C449.618 148.929 448.257 148.929 447.803 149.188C445.534 149.964 443.266 149.447 440.997 149.706C439.182 149.706 439.182 149.706 439.182 149.706C437.368 149.964 435.553 149.964 435.553 149.964C435.553 149.964 435.553 149.964 435.099 149.964C433.284 149.706 433.284 149.706 433.284 149.706C430.562 149.447 429.201 149.188 430.108 148.929C431.016 148.67 429.201 147.893 429.201 147.635C429.201 147.376 427.84 147.117 427.84 147.635C427.84 148.152 426.933 149.706 426.025 149.447C426.025 149.447 426.025 149.447 425.571 149.188C424.664 148.929 424.664 148.929 424.664 148.929C424.21 148.411 422.396 148.152 421.488 148.411C420.581 148.67 416.951 148.929 416.497 148.67C416.044 148.152 414.229 147.376 413.322 147.893C413.322 147.893 413.322 147.893 413.322 148.411C413.322 149.706 413.322 149.706 413.322 149.706C411.96 149.706 409.238 149.706 407.877 149.447C406.516 149.188 401.979 149.447 401.525 149.447C401.072 149.447 399.711 149.188 398.803 148.929C397.896 148.67 394.266 148.929 392.905 149.188C392.905 149.188 392.905 149.188 391.998 148.929C391.09 148.67 391.09 148.67 391.09 148.67C390.183 147.893 388.822 147.376 387.914 147.635C387.007 147.893 384.738 148.67 384.738 148.929C384.738 148.929 384.738 148.929 384.738 149.188C384.738 149.447 384.738 149.447 384.738 149.447C384.738 149.706 384.285 149.706 383.831 149.706C383.377 149.706 382.47 149.188 381.562 148.67C380.655 148.152 377.933 149.188 377.479 149.188C377.025 149.188 375.211 148.929 374.303 148.929C374.303 148.929 374.303 148.929 374.303 148.67C373.85 147.893 373.85 147.893 373.85 147.893C375.211 147.893 377.025 147.893 377.933 147.893C378.84 147.893 379.294 146.34 378.387 146.34C377.479 146.34 374.303 146.34 374.303 146.858C374.303 146.858 374.303 146.858 373.85 147.376C373.396 147.893 372.488 148.67 371.581 148.67C369.313 148.67 371.127 147.635 370.22 147.117C370.22 147.117 368.859 147.376 367.951 148.152C367.044 148.67 362.053 148.67 360.692 148.67C359.331 148.67 357.516 147.376 357.063 147.893C356.609 148.411 359.785 148.929 360.239 148.929C360.239 148.929 360.692 149.447 360.239 149.706C360.239 149.706 360.239 149.706 359.785 149.706C358.877 149.706 358.877 149.706 358.877 149.706C357.97 149.447 356.155 148.929 354.794 148.152C354.794 148.152 354.794 148.152 354.34 145.822C354.34 145.563 352.526 145.046 352.526 145.046C348.442 146.599 349.803 144.787 349.35 144.01C348.896 143.751 348.442 144.01 348.442 144.528C348.442 145.046 347.535 146.081 346.628 145.563C345.72 145.046 344.359 147.117 343.905 147.376C343.452 147.635 342.09 148.929 341.637 148.929C341.183 148.929 338.007 148.929 335.739 148.929C335.739 148.929 335.739 148.929 333.47 148.929C333.016 148.929 333.016 148.929 333.016 148.929C332.563 148.929 332.109 148.929 332.109 148.67C332.109 148.411 332.109 147.893 332.109 147.635C332.109 147.376 333.924 146.34 334.831 146.599C334.831 146.599 334.831 146.599 335.739 146.599C336.646 146.599 336.646 146.599 336.646 146.599C337.1 146.858 338.461 147.117 339.822 147.376C339.822 147.376 339.822 147.376 340.729 147.376C341.183 147.376 342.091 147.376 342.091 147.117C342.544 146.599 342.544 146.599 342.544 146.599C342.998 145.822 344.359 145.305 345.266 145.305C345.266 145.305 345.266 145.305 345.72 145.046C346.628 144.528 346.628 143.751 347.081 143.492C348.896 142.716 348.896 142.716 348.896 142.716C347.989 142.198 346.627 141.68 346.174 141.421C345.72 141.421 343.905 141.68 343.905 142.457C343.905 143.233 342.544 145.305 341.183 145.305C341.183 145.305 341.183 145.305 340.276 145.822C339.368 146.34 338.461 146.599 336.646 146.081C335.739 146.599 335.739 146.599 335.739 146.599ZM350.257 140.645C349.35 140.386 347.989 140.386 347.989 140.386C347.989 140.386 347.989 140.904 348.896 141.162C349.35 141.421 352.979 141.68 354.794 141.162C354.794 141.162 354.794 141.162 356.609 141.939C356.609 141.939 357.516 141.939 357.516 141.68C357.97 141.421 357.97 141.421 357.97 141.421C358.877 140.904 358.877 140.386 357.516 140.386C356.155 140.386 351.618 140.904 350.257 140.645ZM317.591 141.939C316.23 142.198 315.322 142.716 315.776 143.233C316.23 143.751 319.405 142.716 319.859 142.457C320.313 142.198 323.942 142.198 324.85 142.198C325.757 142.198 329.387 141.939 328.933 141.421C328.479 140.904 325.304 141.421 324.396 141.421C323.489 141.421 321.22 141.421 319.859 141.162C319.859 141.162 319.859 141.162 318.498 141.421C317.591 141.939 317.591 141.939 317.591 141.939ZM1108.85 69.7104C1110.21 69.9693 1110.66 69.7104 1110.21 69.1926C1109.75 68.6749 1107.48 66.8627 1106.58 65.8271C1106.58 65.8271 1106.58 65.8271 1104.76 67.1216C1103.4 68.1571 1103.4 68.1571 1103.4 68.1571C1102.04 67.8982 1101.59 67.6393 1102.49 67.8982C1103.4 67.8982 1107.48 69.4515 1108.85 69.7104ZM582.098 142.198C580.737 142.198 578.922 142.457 578.922 142.716C579.376 143.233 579.376 143.233 579.376 143.233C578.922 143.751 578.922 144.269 579.83 144.528C580.283 144.787 582.552 144.01 583.913 144.01C584.367 143.492 583.459 142.198 582.098 142.198ZM1128.35 68.9337C1127.45 68.1571 1126.99 68.1571 1127.45 68.9337C1127.9 69.7104 1131.53 70.487 1132.44 70.487C1132.44 70.487 1132.44 70.487 1132.44 69.7104C1132.44 69.4515 1132.44 69.4515 1132.44 69.4515C1133.34 68.6749 1132.44 68.6749 1130.17 69.4515C1130.17 69.4515 1130.17 69.4515 1129.26 69.1926C1128.35 68.9337 1128.35 68.9337 1128.35 68.9337ZM307.156 141.162C304.433 141.421 303.072 141.68 304.433 141.68C305.341 141.68 308.517 142.457 308.97 142.716C309.878 142.975 312.146 143.233 312.146 142.975C312.146 142.716 311.239 141.68 309.878 141.939C309.878 141.939 309.878 141.939 309.424 141.939C307.156 141.162 307.156 141.162 307.156 141.162ZM418.766 143.751C418.312 143.751 418.312 144.528 419.22 145.563C419.22 145.563 419.22 145.563 420.581 145.822C421.942 146.34 421.942 146.34 421.942 146.34C423.303 146.858 425.118 147.117 426.025 147.117C426.025 147.117 426.025 147.117 426.025 146.858C426.479 146.599 426.479 146.599 426.479 146.599C426.479 146.081 425.118 145.822 423.303 145.822C423.303 145.822 423.303 145.822 422.396 145.563C421.488 145.305 421.488 145.305 421.488 145.305C421.034 144.528 419.22 143.751 418.766 143.751ZM786.717 143.751C787.625 143.492 787.625 143.233 787.171 142.975C786.717 142.716 784.903 141.939 784.449 141.68C783.995 141.421 782.18 141.68 782.634 142.457C783.088 143.233 786.264 143.751 786.717 143.751ZM382.47 145.046C382.016 144.269 382.016 144.269 382.47 145.046C382.47 145.563 382.016 147.117 382.924 147.117C383.831 147.117 382.47 145.822 382.47 145.046ZM34.4813 97.411C35.3887 97.411 35.8424 97.1521 35.8424 96.6343C34.0276 96.6343 33.5739 96.1166 33.5739 95.3399C33.5739 95.081 33.5739 95.081 33.5739 95.081C33.1202 94.5633 32.6665 94.8221 31.7591 95.3399C31.3054 96.1166 33.5739 97.1521 34.4813 97.411ZM19.0554 109.837C19.0554 109.579 18.148 109.32 17.6943 109.061C17.6943 109.061 17.6943 109.061 17.2406 108.802C16.7869 108.543 16.3332 108.284 15.4258 108.543C14.5184 108.802 14.0647 109.061 15.4258 109.579C16.3332 109.837 14.5184 111.132 16.7869 111.132C17.2406 111.132 18.148 110.355 19.0554 109.837Z" fill="#00659E"/>
</svg>
