<svg width="134" height="30" viewBox="0 0 134 30" fill="none" xmlns="http://www.w3.org/2000/svg">
<path d="M18.3707 1.90735e-06C18.3187 0.0224524 18.2407 0.0449037 18.1368 0.0673542C18.1108 0.0734771 18.0328 0.0857201 17.9808 0.0857201C17.9548 0.0857201 17.8769 0.0734753 17.8769 0.0632706C17.8509 0.042861 17.8509 0.0224504 17.8249 0.00204086L6.80433 0.00204086C6.64837 0.0755152 6.64837 0.153075 6.62238 0.230631C6.5704 0.416358 6.54441 0.608205 6.54441 0.795973C6.54441 0.836792 6.54441 0.883734 6.44044 0.91843C6.2585 0.987823 6.2325 1.05722 6.2325 1.13477C6.2325 1.26335 6.20651 1.38581 6.15453 1.51235C6.15453 1.54092 6.15453 1.57562 6.07655 1.60623C5.9206 1.67562 5.86862 1.74502 5.86862 1.82053C5.84263 2.0185 5.84263 2.21648 5.79064 2.42057C5.79064 2.47364 5.76465 2.52466 5.63469 2.57773C5.53072 2.63079 5.45275 2.67569 5.45275 2.72876V2.85734C5.42676 2.92061 5.34878 2.9798 5.08886 3.03082C4.82894 3.07776 4.69898 3.13491 4.69898 3.20634C4.69898 3.43901 4.647 3.66556 4.647 3.89823V4.2758C4.647 4.35132 4.56903 4.42071 4.46506 4.4901C4.38708 4.51868 4.38708 4.55337 4.36109 4.58399C4.25712 4.74114 4.28312 4.89829 4.3351 5.05545C4.3351 5.09627 4.43907 5.13708 4.51704 5.1779C4.69898 5.24729 4.75097 5.31669 4.54303 5.39425C4.43907 5.43507 4.36109 5.47589 4.36109 5.5167C4.36109 5.61059 4.25712 5.70243 4.28311 5.79631C4.30911 5.91265 4.25712 6.02898 4.25712 6.13919C4.25712 6.19226 4.23113 6.24328 4.25712 6.29635C4.3351 6.43105 4.23113 6.56984 4.25712 6.70454C4.28311 6.83312 4.28311 6.95558 4.28311 7.08212V7.36785C4.28311 7.42091 4.38708 7.47194 4.647 7.50664C4.75097 7.51888 4.82894 7.53521 4.90692 7.55358C4.9849 7.57194 5.01089 7.5944 4.98489 7.61276C4.98489 7.62501 4.9849 7.63522 4.9589 7.64134C4.59502 7.7393 4.62101 7.83931 4.9589 7.93728C5.06287 7.96585 5.03688 7.99646 4.9589 8.02504C4.90692 8.0434 4.85494 8.05973 4.77696 8.08218C4.62101 8.13933 4.62101 8.20464 4.77696 8.26179C4.9589 8.32098 5.11485 8.37812 5.06287 8.44139C5.06287 8.48221 5.16684 8.52303 5.24481 8.56385C5.32279 8.59242 5.32279 8.62712 5.24481 8.65773C5.06287 8.71692 5.03688 8.78019 5.03688 8.84346C5.01089 8.94755 5.06287 9.05368 5.01089 9.15777C4.98489 9.19246 4.90692 9.21491 4.647 9.21083C4.49105 9.21083 4.38708 9.21695 4.36109 9.2394C4.36109 9.25165 4.3351 9.25777 4.3351 9.26798C4.3351 9.29043 4.3351 9.31492 4.41307 9.32717C4.647 9.38431 4.67299 9.4435 4.69898 9.50677C4.69898 9.53534 4.67299 9.57004 4.59502 9.60065C4.41307 9.6476 4.30911 9.69454 4.30911 9.74556C4.30911 9.82108 4.23113 9.89047 4.10117 9.95986C4.0232 9.98844 4.0232 10.0231 4.0232 10.0537C3.9972 10.1354 4.0232 10.2231 3.9972 10.3048C3.97121 10.3742 4.15316 10.4272 4.43907 10.4742C4.59502 10.4966 4.67299 10.5272 4.59502 10.5619C4.56903 10.5803 4.49105 10.6028 4.43907 10.6191C4.3351 10.6762 4.25712 10.7415 4.07518 10.7987C3.97121 10.8395 3.97121 10.8803 3.97121 10.9212C3.9972 10.9844 3.9972 11.0497 4.15316 11.1069C4.43907 11.2171 4.38708 11.3334 4.3351 11.4498C4.12716 11.5089 4.17915 11.5722 4.30911 11.6294C4.3351 11.7988 4.41307 11.9661 4.3351 12.1294C4.30911 12.1702 4.30911 12.211 4.17915 12.2519C3.91923 12.3559 3.97121 12.456 4.17915 12.56C4.28312 12.6131 4.25712 12.66 4.10117 12.7111C3.91923 12.7743 3.94522 12.8335 4.30911 12.8805C4.41307 12.8927 4.49105 12.909 4.56903 12.9274C4.36109 13.0152 4.46506 13.1131 4.15316 13.2009C3.9972 13.2478 3.94522 13.2989 3.94522 13.3519C3.94522 13.3927 3.94522 13.4336 3.91923 13.4805C3.91923 13.5213 3.84125 13.5621 3.73729 13.603C3.63332 13.6438 3.58133 13.6846 3.58133 13.7254V13.9765C3.58133 14.1336 3.58133 14.2908 3.55534 14.4479C3.55534 14.5296 3.50336 14.6173 3.58133 14.699C3.60733 14.752 3.55534 14.803 3.3734 14.85C3.08749 14.9316 2.82757 15.0194 2.56765 15.101C2.48968 15.1296 2.4117 15.1602 2.38571 15.1888C2.35972 15.3582 2.28174 15.5255 2.30773 15.6888C2.30773 15.7419 2.38571 15.7929 2.51567 15.8399C2.61964 15.8807 2.69761 15.9215 2.69761 15.9623C2.69761 16.0909 2.69761 16.2133 2.7236 16.3399C2.7236 16.4154 2.69761 16.4848 2.54166 16.5562C2.46368 16.5848 2.43769 16.6134 2.43769 16.6501C2.4117 16.7256 2.35972 16.795 2.4117 16.8705C2.43769 17.1032 2.4117 17.3298 2.38571 17.5624C2.38571 17.7073 2.4117 17.8543 2.46368 18.0053C2.46368 18.0339 2.38571 18.0686 2.22976 18.0869C2.07381 18.1094 1.94385 18.1278 1.7879 18.1502C1.52798 18.1706 1.50199 18.2053 1.52798 18.2339C1.55397 18.2523 1.55397 18.2747 1.63195 18.2931C1.70992 18.3155 1.73591 18.3339 1.65794 18.3523C1.39802 18.4502 1.47599 18.5564 1.47599 18.6605C1.47599 18.7135 1.39802 18.7645 1.24207 18.8115C1.1381 18.8401 1.1381 18.8686 1.24207 18.8992C1.26806 18.9176 1.34603 18.9339 1.42401 18.9584C1.52798 18.9993 1.52798 19.0401 1.50199 19.0809C1.42401 19.1625 1.16409 19.238 1.03413 19.3197C0.852189 19.4013 0.774214 19.483 0.774214 19.5646L0.774214 20.0993C0.774214 20.2279 0.72223 20.3504 0.670246 20.4769C0.670246 20.5055 0.592271 20.5402 0.514295 20.5708C0.43632 20.6116 0.488303 20.6524 0.514295 20.6932C0.540287 20.7157 0.540287 20.7341 0.514295 20.7565C0.410328 20.8096 0.358344 20.8545 0.358344 20.9137C0.332352 21.281 0.332352 21.6464 0.280369 22.0137L0.280369 22.6138C0.280369 22.6771 0.202393 22.7362 0.0984255 22.7995C-0.0575257 22.8587 -0.00554194 22.922 0.0984255 22.9852C0.124417 23.0016 0.176401 23.0261 0.176401 23.0424C0.176401 23.0832 0.0204499 23.124 0.0984255 23.1648C0.124417 23.2057 0.280369 23.2465 0.280369 23.2873C0.280369 23.3159 0.280369 23.3506 0.202393 23.3812C0.0464418 23.4342 0.0464418 23.4791 0.202393 23.5322C0.280369 23.5608 0.30636 23.5894 0.30636 23.6261L0.30636 23.969C0.30636 24.0098 0.280369 24.0506 0.150409 24.0914C-0.0315338 24.1731 -0.0315338 24.2547 0.176401 24.3363C0.254377 24.3649 0.280369 24.3955 0.280369 24.4302C0.254377 24.6507 0.358344 24.8731 0.358344 25.0874L0.358344 25.3732C0.358344 25.4262 0.384336 25.4772 0.514295 25.5242C0.618263 25.5773 0.670246 25.6222 0.696238 25.6752C0.748222 25.7385 0.748222 25.8038 0.774214 25.8609C0.774214 25.9018 0.852189 25.9426 0.956157 25.9834C1.1381 26.0528 1.16409 26.1283 0.982149 26.1977C0.826198 26.2671 0.748222 26.3365 0.904173 26.414C0.956157 26.4365 0.956157 26.4549 0.904173 26.4773C0.878181 26.5059 0.800206 26.5406 0.800206 26.5712C0.800206 26.6651 0.800206 26.7569 0.774214 26.8569C0.774214 26.8977 0.800206 26.9386 0.930165 26.9794C1.03413 27.0325 1.00814 27.0835 0.904173 27.1304C0.800206 27.1712 0.800206 27.2121 0.878181 27.2529C1.03413 27.3223 1.08612 27.3917 1.08612 27.4672C1.11211 27.7529 1.16409 28.0305 1.16409 28.3162C1.16409 28.3795 1.19008 28.4387 1.34603 28.5019C1.42401 28.5305 1.42401 28.5591 1.37203 28.5958C1.34603 28.6142 1.29405 28.6366 1.29405 28.653C1.60595 28.8367 1.52798 29.0224 1.57996 29.2163C1.60595 29.2734 1.63195 29.9429 1.70992 30L27 30L27 1.90735e-06H18.3707ZM4.43907 15.7194C4.43907 15.7317 4.41307 15.7419 4.36109 15.7419C4.28311 15.748 4.20514 15.7358 4.17915 15.7133C4.15316 15.6725 4.20514 15.6378 4.3351 15.6378C4.49105 15.6623 4.49105 15.6909 4.43907 15.7194ZM25.5185 29.9306V29.9347C25.5964 29.9347 25.7004 29.9367 25.7784 29.9367C25.7784 29.9265 25.7784 29.9224 25.8044 29.9163C25.7004 29.9245 25.6484 29.9306 25.5185 29.9306ZM3.19146 29.9959C3.19146 29.998 3.19146 29.998 3.19146 30C3.19146 29.998 3.19146 29.9959 3.19146 29.9959Z" fill="#00659E"/>
<path d="M134 26C134 28.2091 132.209 30 130 30L23 30L23 9.70393e-06L130 3.49691e-07C132.209 1.56562e-07 134 1.79086 134 4L134 26Z" fill="#00659E"/>
</svg>
