<svg width="124" height="30" viewBox="0 0 124 30" fill="none" xmlns="http://www.w3.org/2000/svg">
<path d="M105.629 30C105.681 29.9775 105.759 29.9551 105.863 29.9326C105.889 29.9265 105.967 29.9143 106.019 29.9143C106.045 29.9143 106.123 29.9265 106.123 29.9367C106.149 29.9571 106.149 29.9775 106.175 29.998L117.196 29.998C117.352 29.9245 117.352 29.8469 117.378 29.7694C117.43 29.5836 117.456 29.3918 117.456 29.204C117.456 29.1632 117.456 29.1163 117.56 29.0816C117.742 29.0122 117.767 28.9428 117.767 28.8652C117.767 28.7366 117.793 28.6142 117.845 28.4877C117.845 28.4591 117.845 28.4244 117.923 28.3938C118.079 28.3244 118.131 28.255 118.131 28.1795C118.157 27.9815 118.157 27.7835 118.209 27.5794C118.209 27.5264 118.235 27.4753 118.365 27.4223C118.469 27.3692 118.547 27.3243 118.547 27.2712V27.1427C118.573 27.0794 118.651 27.0202 118.911 26.9692C119.171 26.9222 119.301 26.8651 119.301 26.7937C119.301 26.561 119.353 26.3344 119.353 26.1018V25.7242C119.353 25.6487 119.431 25.5793 119.535 25.5099C119.613 25.4813 119.613 25.4466 119.639 25.416C119.743 25.2589 119.717 25.1017 119.665 24.9446C119.665 24.9037 119.561 24.8629 119.483 24.8221C119.301 24.7527 119.249 24.6833 119.457 24.6058C119.561 24.5649 119.639 24.5241 119.639 24.4833C119.639 24.3894 119.743 24.2976 119.717 24.2037C119.691 24.0874 119.743 23.971 119.743 23.8608C119.743 23.8077 119.769 23.7567 119.743 23.7037C119.665 23.569 119.769 23.4302 119.743 23.2955C119.717 23.1669 119.717 23.0444 119.717 22.9179V22.6322C119.717 22.5791 119.613 22.5281 119.353 22.4934C119.249 22.4811 119.171 22.4648 119.093 22.4464C119.015 22.4281 118.989 22.4056 119.015 22.3872C119.015 22.375 119.015 22.3648 119.041 22.3587C119.405 22.2607 119.379 22.1607 119.041 22.0627C118.937 22.0341 118.963 22.0035 119.041 21.975C119.093 21.9566 119.145 21.9403 119.223 21.9178C119.379 21.8607 119.379 21.7954 119.223 21.7382C119.041 21.679 118.885 21.6219 118.937 21.5586C118.937 21.5178 118.833 21.477 118.755 21.4362C118.677 21.4076 118.677 21.3729 118.755 21.3423C118.937 21.2831 118.963 21.2198 118.963 21.1565C118.989 21.0525 118.937 20.9463 118.989 20.8422C119.015 20.8075 119.093 20.7851 119.353 20.7892C119.509 20.7892 119.613 20.783 119.639 20.7606C119.639 20.7483 119.665 20.7422 119.665 20.732C119.665 20.7096 119.665 20.6851 119.587 20.6728C119.353 20.6157 119.327 20.5565 119.301 20.4932C119.301 20.4647 119.327 20.43 119.405 20.3993C119.587 20.3524 119.691 20.3055 119.691 20.2544C119.691 20.1789 119.769 20.1095 119.899 20.0401C119.977 20.0116 119.977 19.9769 119.977 19.9463C120.003 19.8646 119.977 19.7769 120.003 19.6952C120.029 19.6258 119.847 19.5728 119.561 19.5258C119.405 19.5034 119.327 19.4728 119.405 19.4381C119.431 19.4197 119.509 19.3972 119.561 19.3809C119.665 19.3238 119.743 19.2585 119.925 19.2013C120.029 19.1605 120.029 19.1197 120.029 19.0788C120.003 19.0156 120.003 18.9503 119.847 18.8931C119.561 18.7829 119.613 18.6666 119.665 18.5502C119.873 18.4911 119.821 18.4278 119.691 18.3706C119.665 18.2012 119.587 18.0339 119.665 17.8706C119.691 17.8298 119.691 17.789 119.821 17.7481C120.081 17.6441 120.029 17.544 119.821 17.44C119.717 17.3869 119.743 17.34 119.899 17.2889C120.081 17.2257 120.055 17.1665 119.691 17.1195C119.587 17.1073 119.509 17.091 119.431 17.0726C119.639 16.9848 119.535 16.8869 119.847 16.7991C120.003 16.7522 120.055 16.7011 120.055 16.6481C120.055 16.6073 120.055 16.5664 120.081 16.5195C120.081 16.4787 120.159 16.4379 120.263 16.397C120.367 16.3562 120.419 16.3154 120.419 16.2746V16.0235C120.419 15.8664 120.419 15.7092 120.445 15.5521C120.445 15.4704 120.497 15.3827 120.419 15.301C120.393 15.248 120.445 15.197 120.627 15.15C120.913 15.0684 121.172 14.9806 121.432 14.899C121.51 14.8704 121.588 14.8398 121.614 14.8112C121.64 14.6418 121.718 14.4745 121.692 14.3112C121.692 14.2581 121.614 14.2071 121.484 14.1601C121.38 14.1193 121.302 14.0785 121.302 14.0377C121.302 13.9091 121.302 13.7867 121.276 13.6601C121.276 13.5846 121.302 13.5152 121.458 13.4438C121.536 13.4152 121.562 13.3866 121.562 13.3499C121.588 13.2744 121.64 13.205 121.588 13.1295C121.562 12.8968 121.588 12.6702 121.614 12.4376C121.614 12.2927 121.588 12.1457 121.536 11.9947C121.536 11.9661 121.614 11.9314 121.77 11.9131C121.926 11.8906 122.056 11.8722 122.212 11.8498C122.472 11.8294 122.498 11.7947 122.472 11.7661C122.446 11.7477 122.446 11.7253 122.368 11.7069C122.29 11.6845 122.264 11.6661 122.342 11.6477C122.602 11.5498 122.524 11.4436 122.524 11.3395C122.524 11.2865 122.602 11.2355 122.758 11.1885C122.862 11.1599 122.862 11.1314 122.758 11.1008C122.732 11.0824 122.654 11.0661 122.576 11.0416C122.472 11.0007 122.472 10.9599 122.498 10.9191C122.576 10.8375 122.836 10.762 122.966 10.6803C123.148 10.5987 123.226 10.517 123.226 10.4354V9.90067C123.226 9.77209 123.278 9.64964 123.33 9.5231C123.33 9.49452 123.408 9.45983 123.486 9.42921C123.564 9.38839 123.512 9.34757 123.486 9.30676C123.46 9.2843 123.46 9.26594 123.486 9.24349C123.59 9.19042 123.642 9.14552 123.642 9.08633C123.668 8.71896 123.668 8.35363 123.72 7.98626V7.38622C123.72 7.32295 123.798 7.26376 123.902 7.20049C124.058 7.1413 124.006 7.07803 123.902 7.01476C123.876 6.99843 123.824 6.97394 123.824 6.95762C123.824 6.9168 123.98 6.87598 123.902 6.83516C123.876 6.79434 123.72 6.75352 123.72 6.7127C123.72 6.68413 123.72 6.64943 123.798 6.61882C123.954 6.56575 123.954 6.52085 123.798 6.46779C123.72 6.43921 123.694 6.41064 123.694 6.3739V6.03102C123.694 5.9902 123.72 5.94938 123.85 5.90857C124.032 5.82693 124.032 5.74529 123.824 5.66365C123.746 5.63508 123.72 5.60446 123.72 5.56977C123.746 5.34934 123.642 5.12688 123.642 4.91258V4.62684C123.642 4.57378 123.616 4.52276 123.486 4.47581C123.382 4.42275 123.33 4.37785 123.304 4.32478C123.252 4.26151 123.252 4.1962 123.226 4.13906C123.226 4.09824 123.148 4.05742 123.044 4.0166C122.862 3.94721 122.836 3.87169 123.018 3.8023C123.174 3.73291 123.252 3.66351 123.096 3.58596C123.044 3.56351 123.044 3.54514 123.096 3.52269C123.122 3.49411 123.2 3.45942 123.2 3.4288C123.2 3.33492 123.2 3.24308 123.226 3.14307C123.226 3.10225 123.2 3.06143 123.07 3.02061C122.966 2.96755 122.992 2.91652 123.096 2.86958C123.2 2.82876 123.2 2.78794 123.122 2.74713C122.966 2.67773 122.914 2.60834 122.914 2.53283C122.888 2.24709 122.836 1.96952 122.836 1.68379C122.836 1.62052 122.81 1.56133 122.654 1.49806C122.576 1.46949 122.576 1.44091 122.628 1.40418C122.654 1.38581 122.706 1.36336 122.706 1.34703C122.394 1.16334 122.472 0.977617 122.42 0.783727C122.394 0.72658 122.368 0.0571467 122.29 0L97 0V30H105.629ZM119.561 14.2806C119.561 14.2683 119.587 14.2581 119.639 14.2581C119.717 14.252 119.795 14.2642 119.821 14.2867C119.847 14.3275 119.795 14.3622 119.665 14.3622C119.509 14.3377 119.509 14.3091 119.561 14.2806ZM98.4815 0.0693925V0.0653105C98.4036 0.0653105 98.2996 0.0632696 98.2216 0.0632696C98.2216 0.0734744 98.2216 0.0775563 98.1956 0.0836792C98.2996 0.0755153 98.3516 0.0693925 98.4815 0.0693925ZM120.809 0.00408189C120.809 0.00204093 120.809 0.00204096 120.809 0C120.809 0.00204096 120.809 0.00408189 120.809 0.00408189Z" fill="#00659E"/>
<path d="M0 4C0 1.79086 1.79086 0 4 0H111V30H4C1.79086 30 0 28.2091 0 26V4Z" fill="#00659E"/>
</svg>
