<svg width="19" height="18" viewBox="0 0 19 18" fill="none" xmlns="http://www.w3.org/2000/svg">
<circle cx="9.24023" cy="9" r="9" fill="#00659E"/>
<path d="M13.0755 6.68668L12.5902 6.1706C12.3763 5.94313 12.0283 5.94313 11.8144 6.1706L7.74434 10.499C7.723 10.5217 7.68552 10.5217 7.66416 10.499L6.65982 9.43095C6.44592 9.20348 6.09792 9.20348 5.88402 9.43095L5.40501 9.94035C5.29876 10.0533 5.24023 10.2043 5.24023 10.3653C5.24023 10.5263 5.29876 10.6773 5.40501 10.7902L6.85389 12.3311C6.85408 12.3313 6.85425 12.3315 6.85444 12.3317L7.3225 12.8294C7.42945 12.9432 7.5699 13 7.71039 13C7.85085 13 7.99135 12.9431 8.09829 12.8294L13.0755 7.53657C13.1817 7.42359 13.2402 7.27267 13.2402 7.11165C13.2402 6.95062 13.1817 6.79969 13.0755 6.68668Z" fill="white"/>
</svg>
