<svg width="23" height="23" viewBox="0 0 23 23" fill="none" xmlns="http://www.w3.org/2000/svg">
<path d="M11.5 0C5.15865 0 0 5.15865 0 11.5C0 17.8414 5.15865 23 11.5 23C17.8414 23 23 17.8414 23 11.5C23 5.15865 17.8414 0 11.5 0ZM16.9692 17.4483C16.7824 17.6352 16.537 17.7292 16.2917 17.7292C16.0464 17.7292 15.8009 17.6352 15.6142 17.4483L10.8225 12.6567C10.6423 12.4776 10.5417 12.234 10.5417 11.9792V5.75C10.5417 5.22006 10.9709 4.79173 11.5 4.79173C12.0291 4.79173 12.4583 5.22006 12.4583 5.75V11.5825L16.9692 16.0933C17.3439 16.4681 17.3439 17.0736 16.9692 17.4483Z" fill="#ACACAC"/>
</svg>
