<svg width="17" height="23" viewBox="0 0 17 23" fill="none" xmlns="http://www.w3.org/2000/svg">
<path d="M16.047 4.85007C15.4144 3.52751 14.4784 2.3948 13.3251 1.55608C12.1718 0.717358 10.8381 0.199538 9.44672 0.0502251C8.8173 -0.0167417 8.18314 -0.0167417 7.55371 0.0502251C6.16235 0.199636 4.82872 0.717441 3.67534 1.55606C2.52197 2.39469 1.58585 3.52723 0.953001 4.84963C0.15678 6.53693 -0.150767 8.43635 0.069096 10.3087C0.288959 12.1809 1.0264 13.9424 2.18853 15.3711L7.85555 22.6771C7.93381 22.7781 8.03219 22.8594 8.14362 22.9152C8.25505 22.971 8.37677 23 8.50001 23C8.62325 23 8.74496 22.971 8.8564 22.9152C8.96783 22.8594 9.06621 22.7781 9.14447 22.6771L14.8115 15.3711C15.9736 13.9425 16.711 12.1811 16.9309 10.3089C17.1508 8.43665 16.8432 6.5373 16.047 4.85007ZM8.50001 12.3841C7.84001 12.3841 7.19483 12.1766 6.64606 11.7878C6.09729 11.399 5.66957 10.8463 5.417 10.1997C5.16443 9.55316 5.09835 8.84168 5.22711 8.15527C5.35587 7.46887 5.67369 6.83836 6.14038 6.34349C6.60707 5.84861 7.20167 5.5116 7.84899 5.37506C8.49631 5.23853 9.16727 5.3086 9.77703 5.57643C10.3868 5.84425 10.908 6.29779 11.2746 6.8797C11.6413 7.46161 11.837 8.14575 11.837 8.84561C11.836 9.78375 11.4841 10.6831 10.8585 11.3465C10.2329 12.0099 9.38472 12.383 8.50001 12.3841Z" fill="#ACACAC"/>
</svg>
