<?xml version="1.0" encoding="UTF-8" standalone="no" ?>
<!DOCTYPE svg PUBLIC "-//W3C//DTD SVG 1.1//EN" "http://www.w3.org/Graphics/SVG/1.1/DTD/svg11.dtd">
<svg xmlns="http://www.w3.org/2000/svg" xmlns:xlink="http://www.w3.org/1999/xlink" version="1.1" width="100"
     height="100" viewBox="0 0 400 400" xml:space="preserve">
<desc>Created with Fabric.js 3.6.2</desc>
    <defs>
</defs>
    <g transform="matrix(0.39 0 0 0.39 200.04 255.08)" id="Layer_1">
<polygon
        style="stroke: none; stroke-width: 1; stroke-dasharray: none; stroke-linecap: butt; stroke-dashoffset: 0; stroke-linejoin: miter; stroke-miterlimit: 4; fill: #00659E; fill-rule: nonzero; opacity: 1;"
        points="-8.1,38 -62.8,-15.8 -74.5,-4.4 0,69 74.5,-4.4 62.7,-15.8 7.9,38 7.9,-69 -8.1,-69 "/>
</g>
    <g transform="matrix(0.39 0 0 0.39 199.96 173.05)" id="Layer_1">
<path style="stroke: none; stroke-width: 1; stroke-dasharray: none; stroke-linecap: butt; stroke-dashoffset: 0; stroke-linejoin: miter; stroke-miterlimit: 4; fill: #00659E; fill-rule: nonzero; opacity: 1;"
      transform=" translate(-255.9, -187)"
      d="M 399.2 164.4 c 0 -1.2 0.2 -2.3 0.2 -3.5 C 399.4 97.4 346.5 46 282.6 46 c -46.1 0 -85.8 26.8 -104.4 65.4 c -8.1 -4 -17.1 -6.3 -26.8 -6.3 c -29.6 0 -54.1 23.3 -58.9 51.3 c -35.2 12 -60.6 43.4 -60.6 82.4 c 0 49.1 40.1 89.2 89.6 89.2 H 192 h 21 h 35 V 193 h 16 v 135 h 134 c 45 0 81.9 -37.2 81.9 -82.1 C 479.9 201 444.5 164.5 399.2 164.4 z"
      stroke-linecap="round"/>
</g>
</svg>