<svg width="30" height="20" viewBox="0 0 30 20" fill="none" xmlns="http://www.w3.org/2000/svg">
<path d="M29.8169 9.55812L20.4419 0.18312C20.1977 -0.06104 19.8022 -0.06104 19.5581 0.18312C19.314 0.42728 19.314 0.822788 19.5581 1.06689L27.8663 9.37501L0.62502 9.37501C0.279551 9.37501 0 9.65456 0 10C0 10.3455 0.279551 10.6251 0.62502 10.6251L27.8663 10.6251L19.5581 18.9331C19.314 19.1773 19.314 19.5728 19.5581 19.8169C19.6802 19.9389 19.8401 20 20 20C20.1599 20 20.3198 19.9389 20.442 19.8169L29.817 10.4419C30.0611 10.1978 30.0611 9.80228 29.8169 9.55812Z" fill="#00659E"/>
</svg>
