<svg width="26" height="36" viewBox="0 0 26 36" fill="none" xmlns="http://www.w3.org/2000/svg">
<g clip-path="url(#clip0)">
<path d="M23.3732 36.2014H2.62675C1.93922 36.2006 1.28008 35.9264 0.793919 35.4389C0.307758 34.9515 0.0342708 34.2906 0.0334473 33.6012V2.39901C0.0342708 1.70966 0.307758 1.04877 0.793919 0.561317C1.28008 0.0738664 1.93922 -0.200346 2.62675 -0.201172H23.3732C24.0608 -0.200346 24.7199 0.0738664 25.2061 0.561317C25.6922 1.04877 25.9657 1.70966 25.9665 2.39901V33.6012C25.9657 34.2906 25.6922 34.9515 25.2061 35.4389C24.7199 35.9264 24.0608 36.2006 23.3732 36.2014ZM2.62675 0.838903C2.21408 0.838903 1.81831 1.00327 1.52651 1.29585C1.2347 1.58843 1.07077 1.98525 1.07077 2.39901V33.6012C1.07077 34.015 1.2347 34.4118 1.52651 34.7044C1.81831 34.997 2.21408 35.1614 2.62675 35.1614H23.3732C23.7859 35.1614 24.1817 34.997 24.4735 34.7044C24.7653 34.4118 24.9292 34.015 24.9292 33.6012V2.39901C24.9292 1.98525 24.7653 1.58843 24.4735 1.29585C24.1817 1.00327 23.7859 0.838903 23.3732 0.838903H2.62675Z" fill="white"/>
<path d="M21.5579 10.72H4.44211C4.16699 10.72 3.90315 10.6104 3.70861 10.4153C3.51407 10.2203 3.40479 9.95573 3.40479 9.67988V4.99955C3.40479 4.7237 3.51407 4.45916 3.70861 4.2641C3.90315 4.06905 4.16699 3.95947 4.44211 3.95947H21.5579C21.8331 3.95947 22.0969 4.06905 22.2914 4.2641C22.486 4.45916 22.5953 4.7237 22.5953 4.99955V9.67988C22.5953 9.95573 22.486 10.2203 22.2914 10.4153C22.0969 10.6104 21.8331 10.72 21.5579 10.72ZM4.44211 4.99955V9.67988H21.5579V4.99955H4.44211Z" fill="white"/>
<path d="M21.1041 18.1518H18.4029C18.1679 18.1517 17.9426 18.0581 17.7764 17.8915C17.6102 17.725 17.5168 17.4992 17.5165 17.2636V14.5547C17.5169 14.3192 17.6104 14.0934 17.7766 13.9269C17.9427 13.7604 18.168 13.6668 18.4029 13.6665H21.1041C21.3389 13.6669 21.564 13.7606 21.73 13.9271C21.8961 14.0936 21.9895 14.3193 21.9899 14.5547V17.2631C21.9898 17.4987 21.8964 17.7246 21.7303 17.8912C21.5643 18.0578 21.339 18.1515 21.1041 18.1518ZM18.5538 17.1117H20.9526V14.7066H18.5538V17.1117Z" fill="white"/>
<path d="M14.3485 18.1518H11.6515C11.4166 18.1515 11.1915 18.0579 11.0254 17.8914C10.8593 17.7248 10.7659 17.4991 10.7656 17.2636V14.5547C10.766 14.3193 10.8595 14.0936 11.0255 13.9271C11.1916 13.7606 11.4167 13.6669 11.6515 13.6665H14.3485C14.5834 13.6669 14.8084 13.7606 14.9745 13.9271C15.1405 14.0936 15.234 14.3193 15.2344 14.5547V17.2631C15.2343 17.4987 15.1409 17.7246 14.9748 17.8912C14.8087 18.0578 14.5835 18.1515 14.3485 18.1518ZM11.7983 17.1117H14.1971V14.7066H11.8009L11.7983 17.1117Z" fill="white"/>
<path d="M7.59695 18.1518H4.89576C4.6609 18.1515 4.43573 18.0579 4.26966 17.8914C4.10358 17.7248 4.01016 17.4991 4.00989 17.2636V14.5547C4.0103 14.3193 4.10376 14.0936 4.26981 13.9271C4.43585 13.7606 4.66094 13.6669 4.89576 13.6665H7.59695C7.83186 13.6668 8.05708 13.7604 8.22324 13.9269C8.3894 14.0934 8.48293 14.3192 8.48335 14.5547V17.2631C8.48321 17.4987 8.38978 17.7247 8.22358 17.8914C8.05737 18.058 7.832 18.1517 7.59695 18.1518ZM5.04721 17.1117H7.44602V14.7066H5.04721V17.1117Z" fill="white"/>
<path d="M14.3485 24.9233H11.6515C11.5348 24.9234 11.4193 24.9004 11.3115 24.8556C11.2037 24.8109 11.1058 24.7453 11.0233 24.6625C10.9408 24.5798 10.8754 24.4815 10.8309 24.3734C10.7863 24.2653 10.7634 24.1495 10.7636 24.0325V21.3283C10.7635 21.2114 10.7864 21.0956 10.831 20.9875C10.8756 20.8795 10.941 20.7813 11.0235 20.6986C11.1059 20.6159 11.2039 20.5503 11.3116 20.5056C11.4194 20.4609 11.5349 20.4379 11.6515 20.438H14.3485C14.4652 20.4379 14.5808 20.4608 14.6886 20.5055C14.7964 20.5502 14.8944 20.6157 14.9769 20.6984C15.0594 20.7811 15.1249 20.8793 15.1695 20.9874C15.2141 21.0955 15.2371 21.2113 15.237 21.3283V24.0325C15.2371 24.1495 15.2143 24.2654 15.1697 24.3736C15.125 24.4817 15.0596 24.58 14.9771 24.6627C14.8946 24.7455 14.7966 24.8111 14.6887 24.8558C14.5808 24.9005 14.4652 24.9235 14.3485 24.9233ZM11.7983 23.8832H14.1971V21.4781H11.8009L11.7983 23.8832Z" fill="white"/>
<path d="M7.59695 24.9232H4.89576C4.66049 24.9228 4.43501 24.8287 4.26889 24.6617C4.10277 24.4946 4.00961 24.2683 4.00989 24.0324V21.3282C4.0103 21.0927 4.10377 20.867 4.26981 20.7006C4.43585 20.5341 4.66094 20.4404 4.89576 20.4399H7.59695C7.83186 20.4402 8.05708 20.5339 8.22324 20.7004C8.3894 20.8669 8.48293 21.0926 8.48335 21.3282V24.0324C8.48348 24.1492 8.46066 24.2649 8.41619 24.3729C8.37172 24.4809 8.30647 24.5791 8.22416 24.6618C8.14185 24.7446 8.04409 24.8102 7.93648 24.8551C7.82886 24.8999 7.71349 24.923 7.59695 24.9232ZM5.04721 23.8831H7.44602V21.4779H5.04721V23.8831Z" fill="white"/>
<path d="M21.1026 31.6925H18.4055C18.1707 31.6921 17.9456 31.5984 17.7796 31.4319C17.6135 31.2654 17.5201 31.0397 17.5197 30.8043V21.3282C17.5201 21.0927 17.6135 20.867 17.7796 20.7006C17.9456 20.5341 18.1707 20.4404 18.4055 20.4399H21.1026C21.3374 20.4404 21.5625 20.5341 21.7285 20.7006C21.8946 20.867 21.988 21.0927 21.9884 21.3282V30.8043C21.988 31.0397 21.8946 31.2654 21.7285 31.4319C21.5625 31.5984 21.3374 31.6921 21.1026 31.6925ZM18.5549 30.6524H20.9511V21.479H18.5549V30.6524Z" fill="white"/>
<path d="M14.3485 31.6943H11.6515C11.4167 31.6939 11.1916 31.6002 11.0255 31.4337C10.8595 31.2672 10.766 31.0415 10.7656 30.8061V28.0977C10.7658 27.8622 10.8591 27.6363 11.0252 27.4696C11.1913 27.303 11.4165 27.2093 11.6515 27.209H14.3485C14.5834 27.2093 14.8086 27.3029 14.9746 27.4694C15.1407 27.636 15.2341 27.8617 15.2344 28.0972V30.8056C15.2341 31.0411 15.1407 31.2669 14.9747 31.4335C14.8086 31.6001 14.5834 31.6939 14.3485 31.6943ZM11.7983 30.6542H14.1971V28.2491H11.8009L11.7983 30.6542Z" fill="white"/>
<path d="M7.59695 31.6938H4.89576C4.66094 31.6934 4.43585 31.5997 4.26981 31.4332C4.10376 31.2667 4.0103 31.041 4.00989 30.8056V28.0972C4.01016 27.8617 4.10358 27.636 4.26966 27.4694C4.43573 27.3029 4.6609 27.2093 4.89576 27.209H7.59695C7.83191 27.2091 8.05721 27.3027 8.22339 27.4693C8.38958 27.6358 8.48307 27.8616 8.48335 28.0972V30.8056C8.48293 31.0411 8.3894 31.2669 8.22324 31.4334C8.05708 31.5999 7.83186 31.6935 7.59695 31.6938ZM5.04721 30.6537H7.44602V28.2485H5.04721V30.6537Z" fill="white"/>
</g>
<defs>
<clipPath id="clip0">
<rect width="26" height="36" fill="white"/>
</clipPath>
</defs>
</svg>
