<?xml version="1.0" encoding="utf-8"?><svg version="1.1" id="Layer_1" xmlns="http://www.w3.org/2000/svg" xmlns:xlink="http://www.w3.org/1999/xlink" x="0px" y="0px" viewBox="0 0 122.88 122.88" style="enable-background:new 0 0 122.88 122.88" xml:space="preserve"><style type="text/css"><![CDATA[
	.st0{fill-rule:evenodd;clip-rule:evenodd;fill:#EE8208;}
]]></style><g><path class="st0" d="M61.44,0c33.93,0,61.44,27.51,61.44,61.44c0,33.93-27.51,61.44-61.44,61.44C27.51,122.88,0,95.37,0,61.44 C0,27.51,27.51,0,61.44,0L61.44,0z M68.31,77.57c7.45-1.52,11.92-5.05,12.16-5.24c2.18-1.75,2.53-4.93,0.78-7.12 c-1.75-2.18-4.94-2.53-7.12-0.78c-0.04,0.04-4.81,3.69-12.65,3.7c-7.84-0.01-12.7-3.66-12.75-3.7c-2.18-1.75-5.37-1.4-7.12,0.78 c-1.75,2.18-1.4,5.37,0.78,7.12c0.24,0.19,4.89,3.81,12.55,5.3L44.28,88.78c-1.94,2.01-1.88,5.22,0.13,7.16 c0.98,0.95,2.25,1.42,3.51,1.42c1.33,0,2.65-0.52,3.64-1.55l9.92-10.57l10.92,10.64c1.98,1.98,5.18,1.97,7.16-0.01 c1.98-1.98,1.97-5.18-0.01-7.16L68.31,77.57L68.31,77.57z M61.74,25.52c-10.28,0-18.62,8.33-18.62,18.62 c0,10.28,8.33,18.62,18.62,18.62c10.28,0,18.62-8.34,18.62-18.62C80.36,33.86,72.03,25.52,61.74,25.52L61.74,25.52z M61.74,51.83 c-4.25,0-7.69-3.45-7.69-7.7c0-4.25,3.45-7.69,7.69-7.69c4.25,0,7.7,3.44,7.7,7.69C69.44,48.39,65.99,51.83,61.74,51.83 L61.74,51.83z"/></g></svg>