<svg width="46" height="24" viewBox="0 0 46 24" fill="none" xmlns="http://www.w3.org/2000/svg">
<path d="M13.3138 23.3005C13.2598 23.3828 13.1878 23.5062 13.1519 23.5885C13.1159 23.6708 12.9899 23.7943 13.0079 23.712C13.0259 23.6297 13.0979 23.4651 13.1159 23.3828C13.1339 23.3416 13.0439 23.2182 13.0439 23.1359C13.0439 23.1359 13.0439 23.1359 13.0259 23.0948C12.9719 23.0536 12.9719 23.0536 12.9719 23.0536C12.936 22.9302 12.9 22.8067 12.882 22.7656C12.864 22.7244 12.81 22.8479 12.792 22.9302C12.792 22.9302 12.792 22.9302 12.792 23.0125C12.792 23.0536 12.792 23.0536 12.792 23.0536C12.792 23.0948 12.792 23.2182 12.756 23.3416C12.738 23.4651 12.7201 23.7531 12.7201 23.7943C12.7021 23.7943 12.6841 23.7943 12.6661 23.7531C12.6481 23.712 12.6121 23.5885 12.5761 23.5474C12.5401 23.5062 12.6661 23.3828 12.6661 23.3416C12.6841 23.3005 12.6841 23.2182 12.6301 23.3005C12.5761 23.3828 12.4682 23.1771 12.4502 23.2182C12.4322 23.2182 12.4502 23.4239 12.4682 23.4651C12.4682 23.4651 12.4682 23.4651 12.4682 23.5062C12.4682 23.5474 12.4682 23.5474 12.4682 23.5474C12.4682 23.5885 12.4142 23.6297 12.3422 23.6297C12.3422 23.6297 12.3422 23.6297 12.2883 23.6297C12.2703 23.6297 12.2703 23.6297 12.2703 23.6297C12.2703 23.7531 12.2343 23.8354 12.2343 23.8354C12.2163 23.8354 12.1443 23.8354 12.0903 23.8354C12.0724 23.712 12.0724 23.712 12.0724 23.712C12.1263 23.712 12.1623 23.6297 12.1443 23.5885C12.1263 23.5474 12.0903 23.4239 12.0544 23.5062C12.0184 23.5885 11.9104 23.7531 11.8744 23.7531C11.8205 23.7531 11.7125 23.7531 11.6945 23.7531C11.6945 23.7531 11.7125 23.712 11.7485 23.712C11.7845 23.712 11.8744 23.6297 11.8744 23.5474C11.8744 23.4651 12.0004 23.3828 12.0364 23.3828C12.0544 23.3828 12.1263 23.3005 12.1443 23.3005C12.1443 23.3005 12.1443 23.3005 12.1443 23.2594C12.1443 23.2182 12.1263 23.1771 12.1083 23.1771C11.9824 23.2594 11.8565 23.3416 11.7305 23.3416C11.6406 23.3416 11.6406 23.3416 11.6406 23.3416C11.6046 23.4651 11.5506 23.5885 11.5146 23.6297C11.4786 23.6708 11.4427 23.5062 11.4427 23.5062C11.4247 23.5062 11.3707 23.4239 11.3527 23.4239C11.3347 23.4239 11.2627 23.3005 11.2807 23.3005C11.2987 23.3005 11.3527 23.2182 11.3707 23.2594C11.3707 23.2594 11.3707 23.2594 11.3707 23.3005C11.4067 23.4651 11.4067 23.4651 11.4067 23.4651C11.4786 23.4239 11.5506 23.4239 11.5506 23.3828C11.5686 23.3828 11.5866 23.2594 11.5866 23.2182C11.5866 23.1771 11.4966 23.0536 11.4606 23.0536C11.4247 22.7656 11.3527 22.9302 11.3347 23.0125C11.2987 23.1771 11.2088 23.2182 11.1548 23.3005C11.1008 23.3828 11.1008 23.3828 11.1008 23.3828C11.0648 23.5062 11.0288 23.5474 11.0288 23.4651C11.0288 23.4651 11.0288 23.4651 11.0288 23.4239C11.0288 23.3416 11.0288 23.3416 11.0288 23.3416C10.9749 23.3005 10.8849 23.1771 10.8309 23.1359C10.8309 23.1359 10.8309 23.1359 10.8309 23.0536C10.8129 22.889 10.759 22.889 10.669 22.889C10.633 22.889 10.597 22.8067 10.5791 22.8067C10.5611 22.8067 10.5431 22.9302 10.5251 22.9713C10.4891 22.9713 10.4891 23.0125 10.5251 23.0536C10.5611 23.0948 10.597 23.2182 10.5791 23.2594C10.5611 23.3005 10.3811 23.1359 10.3991 23.0948C10.3991 23.0948 10.3991 23.0948 10.4171 23.0536C10.4531 22.889 10.3991 22.8067 10.3272 22.889C10.2552 22.9302 10.2372 22.8479 10.2012 22.8067C10.1473 22.8067 10.1473 22.8067 10.1473 22.8067C10.0933 22.8067 9.96734 22.8479 9.89537 22.889C9.89537 22.889 9.89537 22.889 9.85939 22.8479C9.80542 22.8067 9.80542 22.8067 9.80542 22.8067C9.75144 22.8067 9.67948 22.8479 9.64349 22.889C9.60751 22.9302 9.46358 22.8067 9.42759 22.8067C9.39161 22.8067 9.31964 22.8067 9.28366 22.8067C9.24768 22.8067 9.12174 22.7656 9.08575 22.8479C9.04977 22.9302 8.90584 22.9713 8.85186 22.8479C8.85186 22.8479 8.85186 22.8479 8.7619 22.889C8.70793 22.9302 8.70793 22.9302 8.70793 22.9302C8.63596 22.9302 8.54601 22.889 8.47404 22.889C8.42006 22.889 8.24015 22.9713 8.16818 23.0125C8.09622 23.0536 7.86232 22.9713 7.79036 22.9713C7.79036 22.9713 7.79036 22.9713 7.7004 22.889C7.57446 22.7244 7.57446 22.7244 7.57446 22.7244C7.46651 22.7656 7.34057 22.8479 7.32258 22.8479C7.30458 22.8479 7.19664 22.8479 7.14266 22.8479C7.08869 22.8479 6.94475 22.889 6.92676 22.889C6.92676 22.8479 6.89078 22.8067 6.87279 22.8479C6.8548 22.889 6.78283 22.9302 6.76484 22.889C6.76484 22.889 6.76484 22.889 6.74685 22.8479C6.72885 22.8067 6.72885 22.8067 6.72885 22.8067C6.71086 22.8067 6.67488 22.8067 6.65689 22.8479C6.6389 22.889 6.60291 22.9302 6.58492 22.889C6.56693 22.8479 6.49496 22.9302 6.49496 22.9302C6.47697 22.9302 6.40501 22.9713 6.33304 23.0125C6.33304 23.0125 6.33304 23.0125 6.26107 22.9713C6.22509 22.9302 6.18911 22.9302 6.15312 22.889C6.11714 22.8479 6.08116 22.7244 6.00919 22.8479C6.00919 22.8479 5.97321 22.8479 5.95522 22.8067C5.88325 22.6833 5.86526 22.6421 5.79329 22.8479C5.75731 22.9713 5.75731 22.9713 5.75731 22.9713C5.72133 22.8067 5.68534 22.6833 5.66735 22.7244C5.64936 22.7656 5.59538 22.8479 5.59538 22.8067C5.59538 22.7656 5.54141 22.6421 5.50543 22.6421C5.46944 22.6421 5.39748 22.7656 5.37949 22.8067C5.36149 22.8479 5.30752 22.7656 5.28953 22.8067C5.28953 22.8479 5.27154 22.8479 5.27154 22.7656C5.27154 22.6833 5.16359 22.8067 5.16359 22.8479C5.09162 22.889 5.09162 22.6421 5.00166 22.7244C4.94769 22.7656 4.94769 22.7656 4.94769 22.7656C4.87572 22.7656 4.80375 22.7656 4.78576 22.7656C4.76777 22.7656 4.69581 22.8067 4.64183 22.8067C4.58786 22.8067 4.46191 22.7244 4.42593 22.8067C4.42593 22.8067 4.42593 22.8067 4.38995 22.8479C4.37196 22.889 4.37196 22.889 4.37196 22.889C4.33597 22.889 4.282 22.8067 4.24602 22.7656C4.21003 22.7244 4.03012 22.8479 4.01213 22.8067C3.99413 22.7656 3.92217 22.6833 3.90418 22.7244C3.88618 22.7656 3.79623 22.6833 3.79623 22.6833C3.79623 22.6833 3.79623 22.6833 3.77823 22.7244C3.76024 22.7656 3.76024 22.8067 3.74225 22.8067C3.70627 22.8067 3.6343 22.8479 3.6343 22.7244C3.6343 22.6833 3.6343 22.6833 3.6343 22.6833C3.68828 22.6421 3.70627 22.5599 3.68828 22.5599C3.67028 22.5187 3.59832 22.5187 3.58033 22.5599C3.56233 22.601 3.49037 22.7244 3.49037 22.601C3.49037 22.601 3.49037 22.601 3.49037 22.5599C3.49037 22.5187 3.47238 22.4776 3.47238 22.4776C3.43639 22.4776 3.43639 22.4776 3.43639 22.4776C3.40041 22.4776 3.36443 22.4364 3.38242 22.3541C3.38242 22.3541 3.38242 22.3541 3.31045 22.3953C3.29246 22.3953 3.29246 22.3953 3.29246 22.3953C3.27447 22.4364 3.23849 22.4364 3.18451 22.3953C3.13054 22.313 2.95062 22.313 2.91464 22.313C2.86066 22.313 2.71673 22.1895 2.66276 22.1895C2.62677 22.1895 2.51882 22.2307 2.50083 22.1484C2.48284 22.0661 2.30292 21.9838 2.28493 22.0249C2.17698 21.7781 2.17698 21.7781 2.17698 21.7781C2.01506 21.7369 1.88912 21.6958 1.87113 21.6958C1.85313 21.6958 1.78117 21.6958 1.72719 21.6958C1.67322 21.6958 1.43933 21.7369 1.34937 21.7369C1.34937 21.7369 1.34937 21.7369 1.33138 21.49C1.33138 21.4489 1.29539 21.4077 1.2774 21.4489C1.22343 21.49 1.22343 21.49 1.22343 21.49C1.16945 21.4489 1.09749 21.3666 1.09749 21.3254C1.0795 21.2843 0.989537 21.202 0.953554 21.202C0.917571 21.202 0.827613 21.0786 0.809622 21.1197C0.79163 21.1197 0.755647 21.1197 0.737655 21.0374C0.737655 21.0374 0.737655 21.0374 0.719664 20.9963C0.701672 20.9551 0.665689 20.9551 0.647697 20.9963C0.575731 21.0786 0.503765 21.0786 0.467781 21.0786C0.359832 21.0786 0.413807 20.9963 0.413807 20.914C0.413807 20.8728 0.359832 20.7905 0.431798 20.7905C0.467781 20.7905 0.503765 20.7494 0.539748 20.7082C0.575731 20.6671 0.575731 20.6259 0.539748 20.5848C0.503765 20.5436 0.503765 20.5436 0.503765 20.5436C0.539748 20.5025 0.593722 20.3791 0.647697 20.2968C0.701672 20.2145 0.737655 19.9264 0.701672 19.8853C0.701672 19.8853 0.701672 19.8853 0.665689 19.8853C0.629706 19.8853 0.629706 19.8853 0.629706 19.8853C0.593722 19.9264 0.521756 19.9264 0.485773 19.8853C0.44979 19.8441 0.44979 19.4738 0.467781 19.3504C0.485773 19.2269 0.521756 18.8155 0.503765 18.8155C0.503765 18.8155 0.44979 18.8566 0.413807 18.9389C0.413807 18.9389 0.413807 18.9389 0.359832 18.8155C0.34184 18.7332 0.34184 18.7332 0.34184 18.7332C0.34184 18.6509 0.377823 18.5686 0.395815 18.4863C0.395815 18.4863 0.395815 18.4863 0.359832 18.4451C0.34184 18.4451 0.34184 18.4451 0.34184 18.4451C0.287865 18.4863 0.251882 18.4863 0.269874 18.404C0.269874 18.404 0.269874 18.404 0.269874 18.3628C0.269874 18.1983 0.269874 18.1983 0.269874 18.1983C0.233891 18.0337 0.197907 17.8279 0.197907 17.7868C0.197907 17.7045 0.251882 17.4576 0.323849 17.4165C0.395815 17.3753 0.395815 16.9638 0.34184 17.005C0.34184 17.005 0.34184 17.005 0.305857 17.0461C0.269874 17.0873 0.269874 17.0873 0.269874 17.0873C0.233891 17.1284 0.161924 17.0461 0.10795 16.9227C0.10795 16.9227 0.10795 16.9227 0.125941 16.7992C0.125941 16.7581 0.125941 16.717 0.143933 16.6758C0.197907 16.5524 0.233891 16.4701 0.269874 16.3878C0.305857 16.3055 0.34184 16.5112 0.377823 16.3878C0.377823 16.3466 0.377823 16.3466 0.377823 16.3466C0.413807 16.3466 0.413807 16.3055 0.359832 16.2643C0.359832 16.2643 0.359832 16.2643 0.359832 16.2232C0.359832 16.182 0.377823 16.0997 0.395815 16.0586C0.413807 16.0175 0.431798 16.0175 0.44979 16.0175C0.521756 15.9352 0.521756 15.7294 0.485773 15.7294C0.431798 15.6883 0.413807 15.6471 0.395815 15.5648C0.377823 15.5237 0.377823 15.5237 0.377823 15.5237C0.305857 15.5237 0.305857 15.4414 0.395815 15.4002C0.485773 15.3591 0.701672 15.1122 0.809622 15.2357C0.809622 15.2357 0.809622 15.2357 0.935563 15.1945C0.953554 15.1945 1.00753 15.2768 1.02552 15.3591C1.04351 15.5237 1.04351 15.5237 1.04351 15.5237C1.09749 15.4825 1.13347 15.3591 1.11548 15.2768C1.11548 15.2768 1.11548 15.2768 1.11548 15.1945C1.13347 14.9888 1.15146 14.783 1.16945 14.5773C1.16945 14.5362 1.16945 14.5362 1.16945 14.5362C1.24142 14.495 1.2774 14.4127 1.29539 14.4127C1.31339 14.4127 1.36736 14.2893 1.38535 14.2893C1.42134 14.2893 1.51129 14.2481 1.52929 14.2481C1.54728 14.2481 1.58326 14.1658 1.60125 14.1247C1.61924 14.0835 1.69121 14.207 1.69121 14.2481C1.7092 14.2481 1.76318 14.2893 1.76318 14.207C1.76318 14.1247 1.81715 13.9601 1.85313 14.0424C1.88912 14.0835 1.99707 14.0012 1.99707 13.9601C1.99707 13.9601 1.97908 13.8778 2.01506 13.8367C2.01506 13.8367 2.01506 13.8367 2.03305 13.8367C2.08702 13.8778 2.15899 14.0424 2.17698 13.7955C2.19497 13.7955 2.23096 13.7955 2.26694 13.8367C2.30292 13.8778 2.41087 13.7544 2.44686 13.7544C2.48284 13.7544 2.5728 13.7544 2.62677 13.7544C2.68075 13.7544 2.7707 13.5898 2.73472 13.5486C2.69874 13.5075 2.62677 13.3429 2.64476 13.2194C2.66276 13.096 2.46485 12.7668 2.48284 12.7668C2.50083 12.7668 2.51882 12.6434 2.46485 12.5611C2.46485 12.5611 2.46485 12.5611 2.46485 12.4788C2.46485 12.3142 2.46485 12.3142 2.46485 12.3142C2.41087 12.3142 2.3569 12.2731 2.32092 12.2319C2.32092 12.2319 2.32092 12.2319 2.30292 12.1908C2.26694 12.0673 2.26694 12.0673 2.26694 12.0673C2.28493 11.9439 2.28493 11.7382 2.26694 11.6147C2.26694 11.6147 2.26694 11.6147 2.24895 11.4913C2.24895 11.4501 2.24895 11.4501 2.24895 11.4501C2.24895 11.409 2.30292 11.409 2.3569 11.4913C2.41087 11.5736 2.5728 11.4501 2.5728 11.409C2.5728 11.3678 2.55481 11.2855 2.51882 11.2855C2.51882 11.2855 2.51882 11.2855 2.50083 11.2855C2.46485 11.3267 2.46485 11.3267 2.46485 11.3267C2.41087 11.3678 2.39288 11.3678 2.39288 11.3267C2.39288 11.3267 2.39288 11.3267 2.39288 11.2855C2.39288 11.2444 2.39288 11.2444 2.39288 11.2444C2.39288 11.2032 2.39288 11.1621 2.37489 11.1621C2.3569 11.1621 2.30292 11.2032 2.28493 11.1621C2.26694 11.1209 2.30292 10.9152 2.33891 10.7918C2.33891 10.7918 2.33891 10.7918 2.41087 10.7506C2.42886 10.7506 2.44686 10.7506 2.44686 10.7095C2.42886 10.4214 2.42886 10.4214 2.42886 10.4214C2.55481 10.298 2.60878 10.2157 2.59079 10.1746C2.55481 10.1334 2.44686 10.1746 2.42886 10.1746C2.41087 10.1746 2.26694 10.0511 2.15899 9.96882C2.15899 9.96882 2.15899 9.96882 2.05104 10.01C1.99707 10.01 1.99707 9.96882 1.97907 9.88653C1.99707 9.76309 1.99707 9.76309 1.99707 9.76309C1.96108 9.84538 1.90711 9.88653 1.85313 9.84538C1.79916 9.80424 1.65523 9.68079 1.63723 9.63965C1.67322 9.51621 1.67322 9.51621 1.67322 9.51621C1.65523 9.39276 1.61924 9.31047 1.60125 9.26932C1.58326 9.22818 1.54728 9.22818 1.54728 9.22818C1.54728 9.22818 1.54728 9.22818 1.52929 9.26932C1.51129 9.31047 1.51129 9.31047 1.51129 9.31047C1.4933 9.35162 1.43933 9.39277 1.40334 9.39277C1.36736 9.43391 1.24142 9.47506 1.22343 9.43391C1.20544 9.39277 1.16945 9.22818 1.18744 9.18703C1.20544 9.14588 1.34937 9.22818 1.40334 9.22818C1.40334 9.22818 1.40334 9.22818 1.40334 9.14588C1.42134 9.06359 1.38535 8.899 1.36736 8.899C1.11548 8.85785 1.11548 8.85785 1.11548 8.85785C1.15146 8.52867 1.15146 8.24064 1.11548 8.24064C1.0795 8.24064 1.02552 8.36409 1.00753 8.36409C0.989537 8.36409 0.971546 8.28179 0.971546 8.28179C0.971546 8.28179 0.953554 8.1995 0.935563 8.1172C0.917571 8.03491 0.971546 7.82917 0.989537 7.74688C0.989537 7.74688 0.989537 7.74688 0.989537 7.70573C0.989537 7.66458 0.989537 7.66458 0.989537 7.66458C0.989537 7.62344 0.953554 7.58229 0.935563 7.58229C0.935563 7.58229 0.935563 7.58229 0.917571 7.58229C0.89958 7.58229 0.89958 7.58229 0.89958 7.58229C0.881588 7.58229 0.863596 7.58229 0.845605 7.54114C0.881588 7.45885 0.881588 7.45885 0.881588 7.45885C0.935563 7.33541 0.935563 7.25311 0.863596 7.29426C0.863596 7.29426 0.863596 7.29426 0.827613 7.29426C0.755647 7.29426 0.755647 7.29426 0.755647 7.29426C0.68368 7.29426 0.611714 7.25311 0.593722 7.17082C0.593722 7.17082 0.593722 7.17082 0.593722 7.12967C0.611714 6.7182 0.611714 6.7182 0.611714 6.7182C0.521756 6.55361 0.431798 6.38902 0.413807 6.34788C0.413807 6.34788 0.413807 6.34788 0.413807 6.30673C0.395815 6.22443 0.395815 6.22443 0.395815 6.22443C0.395815 6.10099 0.377823 5.9364 0.359832 5.81296C0.359832 5.81296 0.359832 5.81296 0.323849 5.77182C0.197908 5.81296 0.197908 5.68952 0.215899 5.52493C0.215899 5.48378 0.215899 5.48379 0.215899 5.48379C0.215899 5.36034 0.161924 5.3192 0.089958 5.40149C0.089958 5.40149 0.089958 5.40149 0.125941 5.2369C0.161924 5.11346 0.089958 5.11346 0.0719664 5.07231C0.0719664 5.07231 0.0179916 5.2369 0 5.07231C0 5.03117 0 5.03117 0 5.03117C0.0359832 4.99002 0.0719664 4.94887 0.0719664 4.94887C0.0719664 4.94887 0.0539748 4.78428 0.0179916 4.66084C0.0179916 4.66084 0.0179916 4.66084 0.0359832 4.49625C0.0359832 4.45511 0.0539748 4.41396 0.0539748 4.37281C0.0539748 4.33166 0.0539748 4.33167 0.0539748 4.33167C0.0359832 4.29052 0.0359832 4.24937 0.0539748 4.24937C0.0719664 4.24937 0.161924 4.24937 0.179916 4.16708C0.197907 4.08478 0.161924 3.87905 0.179916 3.8379C0.251882 3.96134 0.305857 3.96134 0.359832 3.79675C0.413807 3.67331 0.413807 3.67331 0.413807 3.67331C0.485773 3.79675 0.539748 3.79675 0.539748 3.7556C0.539748 3.71446 0.629706 3.54987 0.701672 3.46757C0.701672 3.46757 0.701672 3.46757 0.755647 3.67331C0.79163 3.79675 0.79163 3.79675 0.79163 3.79675C0.881588 3.71446 0.935563 3.59102 0.917571 3.59102C0.89958 3.59102 0.863596 3.50872 0.863596 3.50872C0.899579 3.50872 0.935563 3.50872 0.971546 3.54987C0.989537 3.54987 0.989537 3.54987 0.989537 3.54987C1.00753 3.54987 1.02552 3.54987 1.04351 3.50872C1.0615 3.46757 1.11548 3.50872 1.11548 3.46757C1.11548 3.42643 1.15146 3.34413 1.16945 3.42643C1.18744 3.50872 1.2774 3.46757 1.31339 3.34413C1.31339 3.34413 1.31339 3.34413 1.34937 3.26184C1.36736 3.22069 1.36736 3.22069 1.36736 3.22069C1.40334 3.22069 1.45732 3.22069 1.4933 3.26184C1.52929 3.30299 1.69121 3.22069 1.7092 3.26184C1.74518 3.30299 1.83514 3.38528 1.85313 3.26184C1.85313 3.26184 1.85313 3.26184 1.88912 3.17954C1.9251 3.09725 1.9251 3.09725 1.9251 3.09725C1.97908 3.09725 2.05104 3.09725 2.06903 3.1384C2.10502 3.17954 2.15899 3.01496 2.19497 3.01496C2.23096 3.01496 2.32092 3.0561 2.33891 3.09725C2.3569 3.1384 2.41087 3.1384 2.42886 3.09725C2.44686 3.01496 2.50083 2.85037 2.53681 2.89151C2.5728 2.93266 2.64476 2.89151 2.68075 2.85037C2.69874 2.80922 2.7887 2.89151 2.7887 2.89151C2.7887 2.89151 2.7887 2.89151 2.7887 2.85037C2.7887 2.76807 2.7887 2.76807 2.7887 2.76807C2.82468 2.76807 2.89665 2.85037 2.96861 2.89151C2.96861 2.89151 2.96861 2.89151 2.96861 2.68578C2.9866 2.68578 3.05857 2.64463 3.11255 2.60348C3.18451 2.56234 3.4184 2.64463 3.47238 2.64463C3.47238 2.64463 3.47238 2.64463 3.50836 2.68578C3.59832 2.68578 3.61631 2.80922 3.61631 2.64463L3.67028 2.60348C3.72426 2.76807 3.81422 2.64463 3.81422 2.60348C3.86819 2.48004 3.94016 2.64463 3.97614 2.52119C3.99413 2.48004 3.99413 2.48004 3.99413 2.48004C4.08409 2.52119 4.15606 2.60348 4.17405 2.60348C4.19204 2.60348 4.24602 2.52119 4.29999 2.4389C4.35396 2.3566 4.51589 2.48004 4.51589 2.48004C4.51589 2.27431 4.51589 2.27431 4.51589 2.27431C4.58786 2.31545 4.7138 2.31545 4.76777 2.23316C4.76777 2.23316 4.76777 2.23316 4.82175 2.39775C4.87572 2.4389 4.87572 2.4389 4.87572 2.4389C4.9297 2.39775 5.00166 2.31545 5.03765 2.27431C5.03765 2.27431 5.03765 2.27431 5.07363 2.27431C5.09162 2.27431 5.09162 2.27431 5.09162 2.27431C5.10961 2.27431 5.1456 2.27431 5.18158 2.27431C5.21756 2.27431 5.36149 2.27431 5.39748 2.27431C5.43346 2.27431 5.54141 2.19201 5.54141 2.23316C5.5594 2.27431 5.59538 2.31545 5.59538 2.27431C5.59538 2.27431 5.59538 2.27431 5.61338 2.23316C5.63137 2.19201 5.63137 2.19201 5.63137 2.19201C5.64936 2.15087 5.64936 2.15087 5.66735 2.19201C5.68534 2.23316 5.68534 2.27431 5.70333 2.31545C5.70333 2.31545 5.70333 2.31545 5.72133 2.31545C5.7753 2.23316 5.7753 2.23316 5.7753 2.23316C5.84727 2.19201 5.93722 2.15087 5.95522 2.15087C5.95522 2.15087 5.95522 2.15087 5.97321 2.10972C6.04517 1.94513 6.04517 1.94513 6.04517 1.94513C6.08116 2.10972 6.13513 2.19201 6.15312 2.15087C6.17111 2.10972 6.2071 2.02742 6.22509 2.02742C6.24308 2.02742 6.26107 1.94513 6.27906 1.78054C6.27906 1.78054 6.27907 1.78054 6.38701 1.98628C6.40501 2.02742 6.40501 2.02742 6.40501 2.02742C6.45898 1.98628 6.53095 1.98628 6.56693 1.98628C6.60291 1.98628 6.67488 2.02742 6.67488 1.98628C6.67488 1.94513 6.78283 1.94513 6.80082 1.94513C6.81881 1.94513 6.8548 1.90398 6.8368 1.73939C6.8368 1.73939 6.8368 1.73939 6.94475 1.94513C6.96275 1.94513 7.01672 1.90398 7.0527 1.86284C7.07069 1.86284 7.07069 1.86284 7.07069 1.86284C7.08869 1.82169 7.17864 1.78054 7.25061 1.73939C7.34057 1.69825 7.53848 1.90398 7.55647 1.90398C7.57446 1.90398 7.68241 1.86284 7.73638 1.82169C7.79036 1.78054 8.06023 1.82169 8.11421 1.82169C8.11421 1.82169 8.11421 1.82169 8.1322 1.78054C8.22216 1.73939 8.22216 1.73939 8.22216 1.73939C8.27613 1.78054 8.33011 1.82169 8.36609 1.86284C8.36609 1.86284 8.36609 1.86284 8.40207 1.86284C8.45605 1.86284 8.45605 1.86284 8.45605 1.86284C8.51002 1.82169 8.58199 1.73939 8.61797 1.73939C8.65395 1.73939 8.79789 1.69825 8.86985 1.69825C8.86985 1.69825 8.86985 1.69825 8.94182 1.69825C8.95981 1.69825 8.95981 1.69825 8.95981 1.69825C8.9778 1.6571 9.01379 1.69825 9.01379 1.73939C9.01379 1.78054 9.10374 1.73939 9.12174 1.73939C9.13973 1.69825 9.1937 1.6571 9.21169 1.6571C9.22969 1.6571 9.30165 1.73939 9.31964 1.73939C9.33764 1.73939 9.46358 1.61595 9.51755 1.61595C9.51755 1.61595 9.51755 1.61595 9.53554 1.6571C9.57153 1.78054 9.6255 1.53366 9.66148 1.69825C9.67947 1.78054 9.67948 1.78054 9.67948 1.78054C9.75144 1.69825 9.82341 1.69825 9.8414 1.69825C9.85939 1.73939 9.91337 1.78054 9.93136 1.78054C9.93136 1.73939 9.96734 1.69825 9.96734 1.69825C9.96734 1.69825 10.0213 1.69825 10.0393 1.6571C10.0573 1.61595 10.2012 1.61595 10.3092 1.57481C10.3092 1.57481 10.3092 1.57481 10.4171 1.6571C10.5071 1.69825 10.615 1.73939 10.723 1.57481C10.777 1.49251 10.777 1.49251 10.777 1.49251C10.8669 1.53366 10.9569 1.57481 10.9569 1.61595C10.9749 1.6571 11.0288 1.6571 11.0468 1.57481C11.0828 1.49251 11.2088 1.6571 11.2088 1.61595C11.2088 1.57481 11.2447 1.49251 11.2627 1.57481C11.2627 1.61595 11.2987 1.69825 11.3167 1.61595C11.3347 1.53366 11.4786 1.6571 11.5506 1.61595C11.5506 1.61595 11.5506 1.61595 11.6226 1.6571C11.7125 1.57481 11.7125 1.57481 11.7125 1.57481C11.8205 1.49251 11.9284 1.45136 11.9464 1.45136C11.9464 1.49251 11.9824 1.53366 12.0004 1.49251C12.0184 1.45136 12.0544 1.36907 12.0724 1.36907C12.1443 1.49251 12.1443 1.49251 12.1443 1.49251C12.2343 1.49251 12.3602 1.45136 12.4142 1.49251C12.4682 1.49251 12.6661 1.45136 12.7021 1.53366C12.7021 1.53366 12.7021 1.53366 12.756 1.41022C12.756 1.36907 12.828 1.45136 12.864 1.45136C12.9719 1.45136 12.9719 1.45136 12.9719 1.45136C13.0979 1.45136 13.2778 1.41022 13.3498 1.36907C13.3498 1.36907 13.3498 1.36907 13.4217 1.53366C13.4397 1.57481 13.4397 1.57481 13.4397 1.57481C13.4757 1.57481 13.5477 1.53366 13.5837 1.53366C13.6196 1.53366 13.7096 1.57481 13.7096 1.53366C13.7096 1.49251 13.8355 1.49251 13.8715 1.61595C13.8715 1.61595 13.8715 1.61595 13.9435 1.49251C13.9615 1.45136 13.9615 1.45136 13.9615 1.45136C14.0154 1.49251 14.0874 1.49251 14.1234 1.49251C14.1594 1.49251 14.2493 1.53366 14.2853 1.53366C14.2853 1.53366 14.2853 1.53366 14.3213 1.53366C14.3393 1.53366 14.3753 1.53366 14.3933 1.53366C14.4113 1.53366 14.4472 1.49251 14.4652 1.49251C14.4832 1.49251 14.4832 1.49251 14.4832 1.49251C14.5012 1.49251 14.5372 1.49251 14.5732 1.49251C14.6092 1.49251 14.6811 1.53366 14.7351 1.61595C14.7351 1.61595 14.7351 1.61595 14.7351 1.45136C14.7531 1.45136 14.8611 1.49251 14.933 1.57481C14.933 1.57481 14.933 1.57481 15.005 1.57481C15.059 1.57481 15.059 1.57481 15.059 1.57481C15.1309 1.49251 15.2029 1.45136 15.2209 1.41022C15.2389 1.41022 15.2929 1.45136 15.3288 1.57481C15.3288 1.57481 15.3288 1.57481 15.4008 1.53366C15.4368 1.49251 15.5087 1.49251 15.5267 1.53366C15.5987 1.57481 15.6167 1.32792 15.6707 1.36907C15.7246 1.41022 15.7247 1.41022 15.7247 1.41022C15.7966 1.41022 15.8866 1.45136 15.9226 1.49251C15.9226 1.49251 15.9226 1.49251 15.9405 1.45136C16.0125 1.32792 16.0125 1.32792 16.0125 1.32792C16.1025 1.41022 16.1744 1.45136 16.1924 1.41022C16.2104 1.36907 16.2644 1.32792 16.2824 1.36907C16.3004 1.41022 16.3544 1.53366 16.3544 1.53366C16.3544 1.53366 16.4083 1.49251 16.4443 1.45136C16.4803 1.41022 16.6782 1.41022 16.7322 1.41022C16.7862 1.41022 16.9481 1.41022 17.0021 1.45136C17.056 1.49251 17.164 1.36907 17.2 1.41022C17.3079 1.12219 17.3079 1.12219 17.3079 1.12219C17.4698 1.20448 17.6138 1.32792 17.6497 1.32792C17.6857 1.32792 17.7577 1.28678 17.7577 1.36907C17.7577 1.45136 17.9016 1.28678 17.9376 1.24563C17.9736 1.20448 18.0456 1.24563 18.0815 1.24563C18.0995 1.24563 18.1715 1.20448 18.1895 1.24563C18.1895 1.28678 18.2255 1.32792 18.2435 1.32792C18.2615 1.28678 18.3334 1.20448 18.4054 1.20448C18.4054 1.20448 18.4054 1.20448 18.4594 1.24563L18.6213 1.36907C18.6573 1.32792 18.6573 1.32792 18.6573 1.32792C18.7113 1.24563 18.7472 1.24563 18.7472 1.24563C18.7472 1.28678 18.8192 1.36907 18.8552 1.41022C18.8552 1.41022 18.8552 1.41022 18.9451 1.24563C18.9631 1.24563 18.9631 1.24563 18.9631 1.24563C18.9811 1.24563 19.0171 1.28678 19.0351 1.28678C19.0531 1.32792 19.197 1.28678 19.287 1.24563C19.323 1.16333 19.323 1.16333 19.323 1.16333C19.359 1.20448 19.3949 1.32792 19.3769 1.45136C19.3769 1.45136 19.3769 1.45136 19.4849 1.32792C19.5569 1.24563 19.5569 1.24563 19.5569 1.24563C19.5569 1.36907 19.5569 1.41022 19.5569 1.32792C19.5569 1.24563 19.6828 1.36907 19.6828 1.36907C19.6828 1.36907 19.7368 1.32792 19.7907 1.32792C19.8267 1.32792 19.9887 1.41022 20.0426 1.41022C20.0966 1.41022 20.1866 1.32792 20.2046 1.32792C20.2225 1.32792 20.2585 1.45136 20.2765 1.45136C20.2765 1.45136 20.2945 1.41022 20.3125 1.36907C20.3305 1.32792 20.4205 1.28678 20.4564 1.32792C20.4564 1.32792 20.4564 1.32792 20.4924 1.32792C20.5104 1.32792 20.5464 1.24563 20.5464 1.28678C20.6004 1.36907 20.6004 1.36907 20.6004 1.36907C20.6543 1.32792 20.7623 1.32792 20.8343 1.36907C20.8343 1.36907 20.8343 1.36907 20.9062 1.41022C20.9242 1.41022 20.9242 1.41022 20.9242 1.41022C20.9602 1.41022 20.9962 1.36907 21.0142 1.36907C21.0322 1.32792 21.1041 1.32792 21.1401 1.28678C21.1581 1.24563 21.32 1.32792 21.392 1.32792C21.392 1.32792 21.392 1.32792 21.464 1.32792C21.5179 1.32792 21.5179 1.32792 21.5179 1.32792C21.5899 1.36907 21.6439 1.36907 21.6619 1.36907C21.6799 1.36907 21.7518 1.28678 21.8058 1.28678C21.8058 1.28678 21.8058 1.28678 21.8418 1.32792C21.8778 1.36907 21.9138 1.49251 21.9138 1.28678C21.9138 1.28678 21.9497 1.28678 21.9677 1.28678C22.0577 1.28678 22.1656 1.36907 22.2556 1.32792C22.3276 1.28678 22.3276 1.28678 22.3276 1.28678C22.3815 1.32792 22.4355 1.36907 22.4535 1.36907C22.4715 1.36907 22.5435 1.32792 22.5794 1.32792C22.6154 1.28678 22.8493 1.32792 22.9213 1.36907C22.9933 1.41022 23.1732 1.20448 23.2092 1.20448C23.2451 1.20448 23.4071 1.16333 23.461 1.12219C23.515 1.08104 23.641 1.28678 23.641 1.28678C23.6589 1.28678 23.7309 1.16333 23.7669 1.24563C23.7669 1.24563 23.7669 1.24563 23.8029 1.24563C23.8389 1.24563 23.8928 1.16333 23.9288 1.20448C24.0008 1.24563 24.0008 1.24563 24.0008 1.24563C24.0368 1.16333 24.0907 1.12219 24.1087 1.12219C24.1087 1.12219 24.1087 1.12219 24.1267 1.16333C24.1627 1.20448 24.1627 1.20448 24.1627 1.20448C24.1987 1.24563 24.2347 1.28678 24.2527 1.24563C24.2707 1.20448 24.3066 1.16333 24.3246 1.20448C24.3246 1.24563 24.4326 1.24563 24.4506 1.20448C24.4686 1.16333 24.5405 1.12219 24.5585 1.16333C24.5765 1.20448 24.6305 1.32792 24.6305 1.32792C24.6845 1.12219 24.7564 1.28678 24.8284 1.28678C24.8644 1.28678 24.8644 1.28678 24.8644 1.28678C24.9184 1.24563 24.9543 1.24563 24.9903 1.24563C25.0083 1.24563 25.0623 1.24563 25.0983 1.28678C25.1343 1.32792 25.2782 1.24563 25.3502 1.24563C25.3502 1.24563 25.3502 1.24563 25.4221 1.20448C25.4581 1.20448 25.5121 1.28678 25.5481 1.24563C25.62 1.20448 25.62 1.20448 25.62 1.20448C25.692 1.24563 25.7819 1.24563 25.8359 1.28678C25.8359 1.28678 25.8359 1.28678 25.8899 1.28678C25.9799 1.24563 25.9799 1.24563 25.9799 1.24563C26.0878 1.24563 26.1778 1.20448 26.1958 1.20448C26.2137 1.20448 26.2677 1.28678 26.2857 1.32792C26.3037 1.41022 26.4296 1.28678 26.4476 1.32792C26.4656 1.36907 26.5196 1.41022 26.5376 1.41022C26.5376 1.36907 26.5016 1.24563 26.5016 1.24563C26.5556 1.20448 26.5556 1.20448 26.5556 1.20448C26.5736 1.28678 26.5916 1.36907 26.6096 1.41022C26.6276 1.41022 26.6635 1.36907 26.6815 1.36907C26.6995 1.32792 26.7535 1.28678 26.7715 1.32792C26.7895 1.36907 26.8435 1.32792 26.8435 1.20448C26.8435 1.20448 26.8435 1.20448 26.9334 1.28678C26.9154 1.36907 26.9514 1.41022 27.0234 1.36907C27.0773 1.32792 27.2393 1.49251 27.2393 1.49251C27.2393 1.49251 27.2393 1.49251 27.2393 1.45136C27.2393 1.28678 27.2393 1.28678 27.2393 1.28678C27.2932 1.32792 27.3472 1.36907 27.3652 1.41022C27.3832 1.45136 27.4192 1.49251 27.4372 1.45136C27.4552 1.41022 27.4911 1.32792 27.5271 1.36907C27.5631 1.41022 27.725 1.32792 27.761 1.32792C27.797 1.32792 27.923 1.45136 27.923 1.49251C27.923 1.53366 28.0489 1.45136 28.0669 1.41022C28.0849 1.36907 28.1748 1.32792 28.1928 1.49251C28.1928 1.49251 28.1928 1.49251 28.2828 1.45136C28.3727 1.41022 28.2288 1.28678 28.3008 1.28678C28.3727 1.28678 28.3727 1.28678 28.3727 1.28678C28.4447 1.28678 28.6246 1.28678 28.7686 1.28678C28.7686 1.28678 28.7686 1.28678 28.8945 1.28678C28.9665 1.28678 29.0204 1.28678 29.0924 1.28678C29.1464 1.28678 29.1464 1.28678 29.1464 1.28678C29.2004 1.32792 29.2903 1.24563 29.3443 1.16333C29.3443 1.16333 29.3443 1.16333 29.3983 1.32792C29.4342 1.41022 29.4342 1.41022 29.4342 1.41022C29.4342 1.32792 29.4702 1.20448 29.5062 1.16333C29.5062 1.16333 29.5062 1.16333 29.5422 1.24563C29.5782 1.36907 29.5782 1.36907 29.5782 1.36907C29.6322 1.32792 29.7041 1.28678 29.7581 1.28678C29.8121 1.28678 29.938 1.20448 29.974 1.16333C30.01 1.12219 30.1359 1.24563 30.1719 1.24563C30.2079 1.24563 30.3338 1.28678 30.3698 1.28678C30.3878 1.24563 30.4778 1.20448 30.5317 1.16333C30.5317 1.16333 30.5317 1.16333 30.5677 1.12219C30.6577 1.03989 30.6577 1.03989 30.6577 1.03989C30.6937 1.16333 30.7296 1.20448 30.7296 1.16333C30.7296 1.12219 30.7836 0.998746 30.8376 1.03989C30.8916 1.08104 31.0535 1.16333 31.0895 1.16333C31.1434 1.16333 31.3054 0.998746 31.3953 0.998746C31.3953 0.998746 31.3953 0.998746 31.4673 0.998746C31.5393 0.998746 31.6112 0.957599 31.7012 0.998746C31.7552 0.998746 31.7552 0.998746 31.7552 0.998746C31.7911 0.957599 31.8631 0.957599 31.9171 0.957599C31.9171 0.957599 31.9171 0.957599 31.9351 0.916452C32.007 0.834157 32.025 0.875304 32.043 0.998746C32.079 0.998746 32.187 0.916452 32.2589 0.79301C32.2589 0.79301 32.2589 0.79301 32.3669 0.957599C32.3849 0.957599 32.3849 0.957599 32.3849 0.957599C32.4029 0.957599 32.4029 0.916452 32.4029 0.875304C32.4029 0.834157 32.5468 0.875304 32.5828 0.916452C32.6188 0.957599 32.7447 0.916452 32.7807 0.916452C32.8167 0.916452 32.9246 0.834157 32.9606 0.834157C32.9966 0.834157 33.1045 0.751863 33.1585 0.79301C33.2125 0.834157 33.4104 0.79301 33.4464 0.79301C33.4644 0.834157 33.5363 0.916452 33.5363 0.875304C33.5363 0.834157 33.5723 0.79301 33.5903 0.875304C33.5903 0.875304 33.5903 0.875304 33.6083 0.875304C33.6443 0.916452 33.6443 0.916452 33.6443 0.916452C33.6803 0.916452 33.7882 0.875304 33.8602 0.875304C33.8602 0.875304 33.8602 0.875304 33.8962 0.834157C33.9501 0.751863 33.9501 0.751863 33.9501 0.751863C33.9861 0.79301 34.0401 0.834157 34.0581 0.834157C34.0761 0.834157 34.13 0.79301 34.148 0.751863C34.166 0.751863 34.274 0.79301 34.328 0.834157C34.3819 0.875304 34.5439 0.751863 34.5618 0.751863C34.5798 0.751863 34.6518 0.916452 34.6518 0.875304C34.6518 0.834157 34.7058 0.710716 34.7598 0.710716C34.7598 0.710716 34.7598 0.710716 34.7957 0.710716C34.8497 0.710716 34.8497 0.710716 34.8497 0.710716C34.9037 0.751863 34.9936 0.79301 35.0476 0.79301C35.1016 0.79301 35.2275 0.669569 35.2635 0.669569C35.2995 0.669569 35.3895 0.710716 35.3895 0.669569C35.3895 0.628422 35.4254 0.50498 35.4254 0.50498C35.4794 0.628422 35.5334 0.751863 35.6233 0.587274C35.6593 0.546127 35.6593 0.546127 35.6593 0.546127C35.7133 0.587274 35.7853 0.587274 35.8033 0.587274C35.8213 0.587274 35.9112 0.628422 35.9292 0.628422C35.9292 0.628422 35.9292 0.628422 35.9472 0.628422C36.0012 0.587274 36.0012 0.587274 36.0012 0.587274C36.0731 0.546127 36.1631 0.546127 36.2171 0.546127C36.2171 0.546127 36.2171 0.546127 36.271 0.546127C36.307 0.546127 36.307 0.546127 36.307 0.546127C36.361 0.463833 36.415 0.422686 36.433 0.463833C36.451 0.50498 36.5049 0.587274 36.5229 0.546127C36.5409 0.50498 36.6489 0.422686 36.6669 0.463833C36.6849 0.50498 36.7748 0.587274 36.8648 0.587274C36.8648 0.587274 36.8648 0.587274 36.9187 0.628422C36.9727 0.669569 36.9727 0.669569 36.9727 0.669569C37.0087 0.628422 37.0807 0.587274 37.1346 0.587274C37.1346 0.587274 37.1346 0.587274 37.1706 0.546127C37.1886 0.546127 37.1886 0.546127 37.1886 0.546127C37.2246 0.546127 37.3146 0.50498 37.4045 0.463833C37.4045 0.463833 37.4045 0.463833 37.4945 0.587274C37.5485 0.669569 37.5485 0.669569 37.5485 0.669569C37.6384 0.669569 37.7104 0.587274 37.7104 0.50498C37.7104 0.422686 37.8183 0.463833 37.8543 0.50498C37.8723 0.546127 37.9802 0.546127 38.0162 0.546127C38.0522 0.546127 38.1422 0.463833 38.1422 0.463833C38.1422 0.463833 38.1782 0.50498 38.1961 0.546127C38.2141 0.587274 38.3581 0.628422 38.3401 0.587274C38.3221 0.546127 38.3221 0.50498 38.3941 0.546127C38.3941 0.546127 38.3941 0.546127 38.466 0.422686C38.502 0.381539 38.592 0.422686 38.6459 0.422686C38.6999 0.422686 38.6999 0.422686 38.6999 0.422686C38.7359 0.50498 38.7719 0.546127 38.7899 0.546127C38.8079 0.546127 38.8978 0.546127 38.9878 0.587274C38.9878 0.587274 38.9878 0.587274 39.0418 0.422686C39.0597 0.381539 39.0597 0.381539 39.0597 0.381539C39.1497 0.463833 39.2037 0.463833 39.2037 0.422686C39.2037 0.381539 39.1857 0.258097 39.1857 0.258097C39.1857 0.258097 39.2577 0.21695 39.3116 0.21695C39.3656 0.21695 39.5275 0.299244 39.5455 0.299244C39.5455 0.299244 39.5455 0.299244 39.5635 0.299244C39.6175 0.340392 39.6175 0.340392 39.6175 0.340392C39.6894 0.340392 39.7614 0.340392 39.7974 0.381539C39.8334 0.422686 39.9413 0.21695 40.0133 0.0935086C40.0133 0.0935086 40.0133 0.0935087 40.0853 0.134656C40.1752 0.21695 40.1752 0.21695 40.1752 0.21695C40.2292 0.134656 40.2652 0.0523615 40.2832 0.0523615C40.3012 0.0523615 40.3192 0.0523615 40.3371 0.0112143C40.3551 -0.0299328 40.4451 0.0523615 40.4811 0.0935086C40.4991 0.134656 40.607 0.175803 40.589 0.0935086C40.571 0.0112143 40.679 0.0935086 40.697 0.0523615C40.715 0.0112143 40.8049 0.0523615 40.8229 0.0935086C40.8589 0.134656 40.9669 0.134656 40.9669 0.0935086C40.9669 0.0523615 41.0568 0.0112143 41.2187 0.0112143C41.2187 0.0112143 41.2187 0.0112143 41.2727 0.0935086C41.3807 0.258097 41.3807 0.258097 41.3807 0.258097C41.3987 0.0935086 41.4346 0.0523615 41.4886 0.134656C41.4886 0.134656 41.4886 0.134656 41.5786 0.0523615C41.6865 -0.0299328 41.8125 0.0112143 41.9204 0.134656C41.9564 0.175803 42.0284 0.258097 42.1003 0.175803C42.1363 0.134656 42.2263 0.21695 42.2802 0.299244C42.3162 0.340392 42.2083 0.381539 42.2802 0.422686C42.2982 0.422686 42.3342 0.340392 42.3522 0.381539C42.3882 0.381539 42.4602 0.422686 42.4602 0.463833C42.4961 0.628422 42.4961 0.628422 42.4961 0.628422C42.5861 0.669569 42.694 0.751863 42.748 0.79301C42.802 0.834157 42.9819 0.875304 42.9999 0.875304C43.0359 0.875304 43.1258 0.916452 43.1618 0.916452C43.1798 0.916452 43.2338 0.875304 43.2338 0.957599C43.2338 1.03989 43.3417 0.916452 43.3597 0.916452C43.3777 0.916452 43.4677 0.916452 43.5217 0.916452C43.5936 0.916452 43.7556 1.08104 43.7735 1.08104C43.7915 1.08104 43.8455 1.08104 43.8455 1.12219C43.8455 1.16333 43.8995 1.28678 43.9714 1.24563C44.0434 1.20448 44.2413 1.36907 44.3133 1.41022C44.3133 1.41022 44.3133 1.41022 44.3313 1.61595C44.3493 1.69825 44.4572 1.73939 44.4752 1.90398C44.4932 1.98628 44.4932 1.98628 44.4932 1.98628C44.5652 2.06857 44.6371 2.10972 44.6551 2.10972C44.6731 2.10972 44.6911 2.19201 44.6731 2.27431C44.7451 2.31545 44.7451 2.31545 44.7451 2.31545C44.7271 2.39775 44.7091 2.56234 44.7091 2.64463C44.7091 2.64463 44.7091 2.64463 44.7091 2.72693C44.7271 2.89151 44.7271 2.89151 44.7271 2.89151C44.7451 3.09725 44.7811 3.26184 44.7991 3.26184C44.7991 3.26184 44.7991 3.26184 44.8171 3.26184C44.835 3.26184 44.835 3.26184 44.835 3.26184C44.853 3.26184 44.871 3.26184 44.871 3.30299C44.871 3.34413 44.835 3.38528 44.7991 3.42643C44.7991 3.42643 44.7991 3.42643 44.7631 3.46757C44.7631 3.46757 44.7631 3.50872 44.7631 3.54987C44.7631 3.54987 44.7811 3.54987 44.7991 3.54987L44.8171 3.50872C44.853 3.50872 44.853 3.50872 44.853 3.50872C44.889 3.50872 44.925 3.50872 44.925 3.54987C44.925 3.59102 44.961 3.71446 44.997 3.79675C44.997 3.79675 44.997 3.79675 45.033 3.87905C45.0509 3.92019 45.0509 3.92019 45.0509 3.92019C45.0509 4.04363 45.015 4.08478 44.961 4.04363C44.907 4.00249 44.7811 4.04363 44.8171 4.24937C44.871 4.49625 44.871 5.11346 44.835 5.11346C44.7811 5.15461 44.6731 5.2369 44.6911 5.2369C44.7091 5.2369 44.7631 5.3192 44.7991 5.40149C44.7991 5.40149 44.7991 5.40149 44.8171 5.48379C44.871 5.68952 44.889 5.36034 44.943 5.48379C44.961 5.52493 44.961 5.52493 44.961 5.52493C45.015 5.56608 45.0509 5.64837 45.033 5.73067C45.015 5.81296 45.0689 6.14214 45.0869 6.30673C45.0869 6.30673 45.0869 6.30673 45.0509 6.47132C45.015 6.63591 45.0869 6.92394 45.1769 6.92394C45.2489 6.92394 45.2489 6.92394 45.2489 6.92394C45.3388 6.96508 45.3748 7.00623 45.3388 7.00623C45.3028 7.00623 45.1769 7.08852 45.1769 7.12967C45.1769 7.17082 45.2129 7.37655 45.2668 7.33541C45.2668 7.33541 45.2668 7.33541 45.3208 7.33541C45.3568 7.33541 45.3568 7.33541 45.3568 7.33541C45.3928 7.33541 45.4288 7.33541 45.4648 7.37655C45.5007 7.4177 45.6447 7.37655 45.6986 7.37655C45.7706 7.37655 45.8426 7.70573 45.8426 7.74688C45.8426 7.74688 45.8426 7.74688 45.8066 7.74688C45.7346 7.70573 45.6986 7.82917 45.7166 7.95261C45.7346 8.03491 45.7526 8.1172 45.7886 8.15835C45.8606 8.24064 45.8606 8.24064 45.8606 8.24064C45.8606 8.40523 45.8786 8.48753 45.8965 8.44638C45.8965 8.44638 45.8965 8.44638 45.9145 8.44638C45.9325 8.44638 45.9685 8.44638 45.9865 8.48753C46.0045 8.52867 46.0045 8.56982 45.9865 8.61097C45.9505 8.69326 45.9145 8.77556 45.8426 8.73441C45.8246 8.73441 45.8066 8.77556 45.8066 8.8167C45.8066 8.85785 45.8246 8.899 45.8426 8.899C45.8965 8.94015 45.8965 8.94015 45.8965 8.94015C45.9505 8.98129 45.9505 9.06359 45.8965 9.14588C45.8965 9.14588 45.8965 9.14588 45.8426 9.14588C45.7886 9.14588 45.7886 9.14588 45.7886 9.14588C45.7166 9.06359 45.6627 9.10473 45.6627 9.22818C45.6627 9.22818 45.6627 9.22818 45.6447 9.31047C45.6267 9.43391 45.6267 9.43391 45.6267 9.43391C45.5727 9.47506 45.4827 9.51621 45.4468 9.51621C45.4108 9.51621 45.4108 9.76309 45.4468 9.92768C45.4648 10.0511 45.5187 10.5037 45.4827 10.5449C45.4468 10.586 45.4827 10.8329 45.5007 10.8741C45.5187 10.9152 45.5547 11.0798 45.5367 11.0798C45.5367 11.0798 45.5367 11.0798 45.5007 11.1209C45.4648 11.1621 45.4288 10.9975 45.3928 11.1209C45.3568 11.1209 45.3028 11.0798 45.2668 11.0387C45.2309 10.9975 45.0689 11.0798 45.015 11.0798C44.943 11.1209 44.7451 10.9975 44.6911 10.9152C44.6371 10.8741 44.4392 10.8741 44.4032 10.8741C44.3673 10.8741 44.2593 10.7506 44.2413 10.7918C44.2233 10.8329 44.2053 10.9975 44.2053 11.0798C44.2053 11.1621 44.3313 11.2032 44.3673 11.2032C44.3673 11.2032 44.3673 11.2032 44.3853 11.2444C44.4212 11.2855 44.3853 11.4501 44.4752 11.409C44.4932 11.409 44.4932 11.409 44.4932 11.409C44.5112 11.4913 44.5652 11.5324 44.6012 11.4501C44.6012 11.4501 44.6012 11.4501 44.6012 11.6559C44.6012 11.697 44.6012 11.697 44.6012 11.697C44.6551 11.7382 44.7271 11.7382 44.7811 11.7382C44.7811 11.7382 44.7811 11.7382 44.7991 11.8616C44.7991 11.9439 44.7991 11.9439 44.7991 11.9439C44.8171 12.0673 44.7991 12.1085 44.7811 12.0673C44.7631 12.0262 44.6551 12.0262 44.6371 12.0262C44.6191 12.0673 44.5472 12.1085 44.5112 12.0262C44.4752 11.985 44.3673 11.7793 44.3673 11.8204C44.3853 11.9439 44.4392 12.0673 44.4392 12.1908C44.4212 12.3142 44.4212 12.3142 44.4212 12.3142C44.3493 12.4788 44.3133 12.6022 44.3493 12.6434C44.3673 12.6845 44.4572 12.6845 44.4932 12.6022C44.4932 12.6022 44.4932 12.6022 44.5112 12.5199C44.5292 12.4788 44.5292 12.4788 44.5292 12.4788C44.5292 12.3965 44.5472 12.3554 44.5472 12.3554C44.6012 12.4788 44.6012 12.4788 44.6012 12.4788C44.6551 12.3965 44.7271 12.3554 44.7451 12.3965C44.7631 12.3965 44.7631 12.5199 44.6911 12.6434C44.6911 12.6434 44.6911 12.6434 44.7271 12.808C44.7451 12.8491 44.7451 12.8491 44.7451 12.8491C44.7991 12.808 44.853 12.8903 44.871 13.0549C44.889 13.1783 44.925 13.3429 44.925 13.3429C44.925 13.3429 44.853 13.384 44.8171 13.3017C44.8171 13.3017 44.8171 13.3017 44.7811 13.2606C44.7631 13.2606 44.7271 13.3017 44.7271 13.3429C44.7091 13.384 44.7091 13.5075 44.7271 13.5486C44.7451 13.5898 44.853 13.6309 44.835 13.6721C44.8171 13.7132 44.7271 13.8778 44.7451 13.9189C44.7631 13.9601 44.7991 14.0835 44.8171 14.0424C44.8171 14.0424 44.8171 14.0424 44.835 14.0424C44.889 14.0012 44.943 14.1247 44.997 14.3304C45.015 14.4127 45.015 14.4127 45.015 14.4127C44.979 14.495 44.961 14.5773 44.943 14.6185C44.925 14.6185 44.925 14.7007 44.961 14.7419C44.961 14.7419 44.961 14.7419 44.979 14.7419C45.0509 14.7419 45.0689 14.783 45.033 14.9065C45.033 14.9476 45.015 14.9888 45.015 14.9888C45.0509 15.0299 45.0509 15.0299 45.0509 15.0299C45.0509 15.1122 44.997 15.1534 44.961 15.1122C44.961 15.1122 44.961 15.1122 44.943 15.0299C44.943 14.9888 44.943 14.9888 44.943 14.9888C44.853 14.9888 44.853 15.0299 44.943 15.1122C44.943 15.1122 44.943 15.1122 44.907 15.2768C44.889 15.3591 44.889 15.3591 44.889 15.3591C44.871 15.4825 44.871 15.5648 44.889 15.606C44.907 15.6471 44.943 15.8117 44.925 15.894C44.907 15.9763 44.7811 16.0586 44.7811 16.0997C44.7811 16.0997 44.7811 16.0997 44.7991 16.1409C44.8171 16.2232 44.8171 16.2232 44.8171 16.2232C44.835 16.3466 44.835 16.3878 44.8171 16.3466C44.7991 16.3055 44.7091 16.2643 44.6911 16.3055C44.6731 16.3055 44.5832 16.3055 44.5472 16.3055C44.5112 16.3055 44.4392 16.3055 44.4572 16.3466C44.4752 16.3878 44.5292 16.4701 44.5472 16.5112C44.5652 16.5524 44.6551 16.4701 44.6551 16.4701C44.6551 16.4701 44.6731 16.5112 44.6731 16.5935C44.6731 16.6758 44.7991 16.5935 44.8171 16.5935C44.835 16.5935 44.871 16.6347 44.835 16.6758C44.7991 16.717 44.6911 16.7992 44.6731 16.7581C44.6731 16.717 44.6191 16.6758 44.6012 16.6758C44.5832 16.6758 44.5292 16.8815 44.5112 16.8815C44.4932 16.8815 44.4212 16.9638 44.4032 17.0873C44.4032 17.0873 44.4032 17.0873 44.4212 17.2107C44.4392 17.3342 44.4752 17.3753 44.5292 17.4165C44.5472 17.4165 44.5472 17.4165 44.5472 17.4165C44.5652 17.4576 44.5652 17.5399 44.5292 17.581C44.5112 17.6633 44.4032 17.7868 44.3853 17.8279C44.3673 17.8691 44.3673 17.9925 44.3673 17.9925C44.3493 17.9925 44.3313 18.0748 44.3313 18.0748C44.3313 18.0748 44.3313 18.1571 44.3673 18.1983C44.3853 18.2394 44.4392 18.4451 44.4392 18.5686C44.4392 18.5686 44.4392 18.5686 44.4032 18.6509C44.3313 18.8155 44.3493 18.9389 44.4572 19.0212C44.5472 19.1035 44.5472 19.1035 44.5472 19.1035C44.4932 19.2269 44.4392 19.3915 44.4032 19.4738C44.3853 19.5561 44.3133 19.6384 44.3673 19.6384C44.3673 19.6384 44.3673 19.6384 44.3673 19.803C44.3673 19.8853 44.3673 19.8853 44.3673 19.8853C44.3673 19.9676 44.3853 20.1322 44.3853 20.2145C44.3853 20.2145 44.3853 20.2145 44.4212 20.2556C44.4572 20.3379 44.4572 20.3379 44.4572 20.3379C44.4392 20.4202 44.4212 20.5848 44.4032 20.6671C44.4032 20.6671 44.4032 20.6671 44.4392 20.7494C44.5292 20.9963 44.5292 20.9963 44.5292 20.9963C44.4572 21.1197 44.3853 21.202 44.3853 21.202C44.3853 21.202 44.4392 21.4489 44.5292 21.6958C44.5292 21.6958 44.5292 21.6958 44.6012 21.9426C44.6191 22.0249 44.6191 22.0249 44.6191 22.0249C44.5832 21.9838 44.5472 21.9838 44.5292 21.9838C44.5292 21.9838 44.4932 21.9838 44.4572 22.0249C44.4212 22.0661 44.3493 22.1484 44.3313 22.1484C44.3133 22.1484 44.2233 22.1895 44.1873 22.2307C44.1873 22.2307 44.1873 22.2307 44.1514 22.2718C44.0974 22.313 44.0974 22.313 44.0974 22.313C44.0434 22.313 43.8995 22.3541 43.7915 22.3953C43.6836 22.4364 43.3058 22.5187 43.2338 22.5599C43.2338 22.5599 43.2338 22.5599 43.1798 22.5599C43.1258 22.5599 43.1258 22.5599 43.1258 22.5599C43.0539 22.601 42.9099 22.6421 42.766 22.6421C42.766 22.6421 42.766 22.6421 42.6401 22.6421C42.5861 22.6421 42.5861 22.6421 42.5861 22.6421C42.5321 22.6833 42.4422 22.8067 42.3882 22.889C42.3882 22.889 42.3882 22.889 42.3342 22.7244C42.3342 22.6833 42.2263 22.7656 42.2263 22.7656C42.1903 22.601 42.1363 22.889 42.1003 22.7244C42.0823 22.6833 42.0823 22.6833 42.0823 22.6833C42.0104 22.7656 41.9384 22.8067 41.9024 22.8067C41.8484 22.889 41.8484 22.889 41.8484 22.889C41.7765 22.889 41.6865 22.889 41.6505 22.9302C41.6145 22.9713 41.4886 22.889 41.4706 22.889C41.4346 22.889 41.2907 22.9302 41.2187 22.9302C41.1468 22.9302 40.9309 23.0536 40.9129 23.0125C40.8949 22.9713 40.7689 23.0948 40.697 23.1359C40.697 23.1359 40.697 23.1359 40.643 23.0948C40.571 23.0536 40.571 23.0536 40.571 23.0536C40.4811 23.0948 40.3911 23.0948 40.3371 23.1359C40.2832 23.1359 40.1752 23.2182 40.1752 23.1771C40.1752 23.1359 40.0853 23.1771 40.0313 23.2594C39.9773 23.3416 39.7974 23.2182 39.7614 23.2594C39.7614 23.2594 39.7614 23.2594 39.7434 23.2182C39.6715 23.1359 39.6715 23.1359 39.6715 23.1359C39.6175 23.2182 39.5095 23.2594 39.4376 23.2182C39.4376 23.2182 39.4376 23.2182 39.3836 23.2594C39.3296 23.3005 39.3296 23.3005 39.3296 23.3005C39.2756 23.2594 39.1677 23.2182 39.0957 23.2594C39.0957 23.2594 39.0957 23.2594 39.0418 23.2594C38.9878 23.2594 38.9878 23.2594 38.9878 23.2594C38.9158 23.3005 38.8259 23.3005 38.7719 23.2182C38.7719 23.2182 38.7719 23.2182 38.6999 23.3005C38.6459 23.3416 38.6459 23.3416 38.6459 23.3416C38.574 23.3416 38.43 23.3416 38.3401 23.3828C38.3401 23.3828 38.3401 23.3828 38.2321 23.3416C38.1602 23.3005 38.1602 23.3005 38.1602 23.3005C38.0702 23.3416 37.9802 23.4239 37.9443 23.4239C37.9083 23.4239 37.8183 23.3828 37.8003 23.3828C37.7823 23.4239 37.6744 23.3828 37.6204 23.3828C37.5664 23.3828 37.4045 23.4651 37.3865 23.4239C37.3865 23.3828 37.3685 23.3828 37.3685 23.4651C37.3685 23.5474 37.2426 23.3828 37.2246 23.3828C37.2066 23.3828 37.0807 23.3828 37.0267 23.4239C36.9727 23.4651 36.8288 23.3828 36.7928 23.4239C36.7568 23.4239 36.6129 23.3828 36.5589 23.3828C36.5049 23.3828 36.325 23.3828 36.271 23.3828C36.2171 23.3416 36.0731 23.5062 36.0551 23.5062C36.0372 23.5062 35.9472 23.4651 35.9292 23.4651C35.8932 23.4651 35.8213 23.4651 35.7493 23.4651C35.6773 23.4651 35.4974 23.4239 35.4794 23.4239C35.4614 23.4239 35.4075 23.4651 35.3895 23.4239C35.3715 23.3828 35.2275 23.4239 35.1736 23.4651C35.1196 23.4651 34.9397 23.5062 34.8677 23.5885C34.8677 23.5885 34.8677 23.5885 34.7777 23.4651C34.7238 23.3828 34.7238 23.3828 34.7238 23.3828C34.6158 23.3828 34.4719 23.4239 34.3819 23.4651C34.3819 23.4651 34.3819 23.4651 34.292 23.3828C34.274 23.3828 34.274 23.3828 34.274 23.3828C34.238 23.4651 34.166 23.5062 34.1121 23.4239C34.0581 23.3416 33.8422 23.4651 33.7342 23.5062C33.6263 23.5474 33.3564 23.3828 33.3384 23.3828C33.3204 23.3828 33.2305 23.4239 33.1405 23.4239C33.1405 23.4239 33.1405 23.4239 33.0506 23.3416C32.9966 23.3005 32.9966 23.3005 32.9966 23.3005C32.9606 23.4239 32.9066 23.4651 32.8706 23.4239C32.8347 23.3828 32.7267 23.3005 32.6907 23.3416C32.6547 23.3828 32.5648 23.5062 32.5468 23.4651C32.5288 23.4239 32.4208 23.3416 32.3309 23.3416C32.3309 23.3416 32.3309 23.3416 32.2769 23.3828C32.2049 23.4239 32.151 23.4239 32.097 23.3828C32.043 23.3005 32.043 23.3005 32.043 23.3005C31.989 23.3416 31.9351 23.3828 31.9171 23.3828C31.8991 23.3828 31.7911 23.3005 31.7731 23.3005C31.7552 23.3005 31.6472 23.3416 31.6292 23.3828C31.5932 23.4239 31.5033 23.3828 31.4673 23.3828C31.4313 23.3828 31.3234 23.3828 31.2874 23.3828C31.2514 23.3828 31.1614 23.3416 31.1614 23.3005C31.1614 23.2594 31.1434 23.1359 31.1255 23.1359C31.1075 23.1359 31.0715 23.1771 31.0715 23.1359C31.0715 23.0948 30.9995 23.0536 30.9815 23.0948C30.9815 23.0948 30.9815 23.0948 30.9635 23.1771C30.9455 23.2182 30.8916 23.2594 30.8556 23.3005C30.7476 23.4239 30.7476 23.4239 30.6397 23.2594C30.6217 23.2182 30.6217 23.2182 30.6217 23.2182C30.6037 23.1771 30.5497 23.2182 30.5317 23.2594C30.5137 23.3005 30.4058 23.3828 30.3698 23.3005C30.3338 23.2594 30.2439 23.1359 30.2439 23.1771C30.2439 23.2182 30.1899 23.3828 30.1359 23.3828C30.0819 23.3828 29.848 23.3416 29.6861 23.4239C29.6861 23.4239 29.6861 23.4239 29.5242 23.3005C29.3443 23.5474 29.3443 23.5474 29.3443 23.5474C29.2543 23.6297 29.1824 23.6708 29.1644 23.6297C29.1464 23.5885 29.0744 23.6708 29.0564 23.6708C29.0564 23.6708 28.9665 23.712 28.8945 23.6708C28.8225 23.6708 28.6066 23.5885 28.5886 23.5885C28.5706 23.5885 28.4627 23.6708 28.4267 23.712C28.3907 23.7531 28.2288 23.7531 28.1568 23.8354C28.1568 23.8354 28.1568 23.8354 28.0669 23.6708C28.0129 23.5885 28.0129 23.5885 28.0129 23.5885C27.9589 23.6297 27.887 23.6297 27.851 23.5885C27.815 23.5474 27.7071 23.712 27.6711 23.712C27.6351 23.712 27.5271 23.6297 27.5271 23.5885C27.5271 23.5474 27.4732 23.4651 27.4192 23.5474C27.4192 23.5474 27.4192 23.5474 27.3832 23.6297C27.3472 23.712 27.3472 23.712 27.3472 23.712C27.2932 23.6708 27.2393 23.6708 27.2213 23.6708C27.2033 23.712 27.1313 23.712 27.1313 23.6708C27.1313 23.6297 27.1133 23.5885 27.0953 23.7531C27.0953 23.7531 27.0953 23.7531 27.0234 23.6708C26.9874 23.6297 26.9874 23.6297 26.9874 23.6297C26.9514 23.6708 26.8974 23.6708 26.8794 23.6708C26.8614 23.6708 26.7535 23.5885 26.7355 23.6297C26.6995 23.6297 26.5916 23.6297 26.5556 23.5885C26.5196 23.5474 26.4117 23.5885 26.3577 23.5474C26.3577 23.5474 26.3577 23.5474 26.3037 23.5474C26.2857 23.5474 26.2497 23.5885 26.2317 23.5885C26.1958 23.5062 26.1778 23.5885 26.1418 23.5885C26.1238 23.5885 26.0878 23.5474 26.0698 23.5062C26.0698 23.5062 26.0338 23.5474 26.0338 23.5885C26.0338 23.6297 26.0338 23.6297 26.0338 23.6297C26.0518 23.6708 26.0518 23.6708 26.0518 23.712C26.0518 23.712 26.0158 23.712 25.9799 23.712C25.9619 23.712 25.8539 23.712 25.8179 23.7531C25.8179 23.7531 25.8179 23.7531 25.7819 23.7531C25.71 23.7531 25.638 23.6708 25.602 23.712C25.5301 23.7943 25.5301 23.7943 25.5301 23.7943C25.4761 23.7531 25.4041 23.712 25.3861 23.712C25.3502 23.712 25.2602 23.7943 25.2422 23.8354C25.2242 23.8766 25.1882 23.712 25.1882 23.6708C25.1882 23.6708 25.1163 23.6708 25.0623 23.6708C25.0083 23.6708 24.7744 23.7531 24.7204 23.7531C24.6665 23.7531 24.5405 23.5062 24.5225 23.5474C24.5045 23.5885 24.4686 23.7531 24.3786 23.7943C24.3066 23.7943 24.0188 23.6297 23.8928 23.5474C23.8928 23.5474 23.8928 23.5474 23.7849 23.7531C23.7489 23.7943 23.7489 23.7943 23.7489 23.7943C23.6769 23.7531 23.605 23.712 23.587 23.712C23.569 23.6708 23.497 23.712 23.461 23.712C23.4251 23.6708 23.3171 23.7531 23.2991 23.7943C23.2811 23.7943 23.1912 23.7943 23.1192 23.7531C23.0472 23.712 22.8133 23.7943 22.7054 23.8354C22.7054 23.8354 22.7054 23.8354 22.6154 23.712C22.6154 23.712 22.3995 23.8354 22.3815 23.8354C22.3635 23.8766 22.3635 23.8766 22.3456 23.8766C22.2916 23.9177 22.2916 23.9177 22.2916 23.9177C22.2376 23.8766 22.2016 23.7943 22.2016 23.7531C22.2016 23.712 22.1836 23.5885 22.1656 23.5885C22.1476 23.5885 22.0937 23.6297 22.1117 23.6708C22.1117 23.6708 22.1117 23.6708 22.1117 23.712C22.1117 23.7531 22.1117 23.7531 22.1117 23.7531C22.1117 23.8354 22.0577 23.8766 22.0037 23.8766C22.0037 23.8766 22.0037 23.8766 21.9497 23.8766C21.9138 23.8766 21.9138 23.8766 21.9138 23.8766C21.8778 23.9177 21.7878 23.9177 21.7338 23.9177C21.6799 23.9177 21.5 23.8766 21.464 23.8766C21.428 23.9177 21.32 23.8354 21.284 23.8766C21.2481 23.9177 21.1401 23.8354 21.1221 23.8766C21.1221 23.8766 21.1221 23.8766 21.1041 23.8766C21.0142 23.9177 20.9422 23.8766 20.8523 23.8354C20.7803 23.7943 20.7803 23.7943 20.7803 23.7943C20.6723 23.7943 20.5644 23.7943 20.5284 23.7943C20.4924 23.7943 20.4564 23.6297 20.4205 23.7531C20.4205 23.7531 20.4205 23.7531 20.4025 23.7943C20.3845 23.8354 20.3845 23.8354 20.3845 23.8354C20.3665 23.8766 20.3125 23.9177 20.2585 23.9589C20.2046 24 20.0246 23.8354 19.9887 23.8354C19.9527 23.8354 19.8987 23.8354 19.8807 23.8354C19.8627 23.8354 19.7728 23.8354 19.7548 23.8354C19.7368 23.8354 19.6108 23.8354 19.5569 23.8354C19.5029 23.8354 19.359 23.7531 19.359 23.712C19.359 23.6708 19.323 23.7531 19.287 23.8766C19.287 23.8766 19.287 23.8766 19.197 23.7531C19.179 23.712 19.1071 23.8766 19.0531 23.8766C18.9991 23.8766 18.9991 23.8766 18.9991 23.8766C18.9451 23.8354 18.8552 23.8766 18.8012 24C18.8012 24 18.8012 24 18.7292 23.8766C18.6933 23.7943 18.6933 23.7943 18.6933 23.7943C18.6213 23.7531 18.5493 23.712 18.5313 23.7531C18.5133 23.7943 18.4594 23.9177 18.4414 23.8354C18.4234 23.7943 18.3514 23.712 18.3154 23.7943C18.3154 23.7943 18.3154 23.7943 18.2795 23.8354C18.2615 23.8354 18.2075 23.8354 18.2075 23.8354C18.2075 23.6297 18.2075 23.6297 18.2075 23.6297C18.1175 23.5885 18.0276 23.5885 18.0276 23.6297C18.0276 23.712 17.9736 23.7943 17.9196 23.7943C17.9196 23.7943 17.9196 23.7943 17.8836 23.8354C17.8477 23.8354 17.8297 23.9177 17.8297 23.7943C17.8297 23.6708 17.7757 23.6708 17.7577 23.712C17.6677 23.8354 17.5778 23.7531 17.4878 23.7943C17.4159 23.7943 17.4159 23.7943 17.4159 23.7943C17.3439 23.8354 17.2719 23.8354 17.2719 23.8354C17.2719 23.8354 17.2719 23.8354 17.2539 23.8354C17.182 23.7943 17.182 23.7943 17.182 23.7943C17.074 23.7531 17.02 23.712 17.056 23.6708C17.092 23.6297 17.02 23.5062 17.02 23.4651C17.02 23.4239 16.9661 23.3828 16.9661 23.4651C16.9661 23.5474 16.9301 23.7943 16.8941 23.7531C16.8941 23.7531 16.8941 23.7531 16.8761 23.712C16.8401 23.6708 16.8401 23.6708 16.8401 23.6708C16.8221 23.5885 16.7502 23.5474 16.7142 23.5885C16.6782 23.6297 16.5343 23.6708 16.5163 23.6297C16.4983 23.5474 16.4263 23.4239 16.3903 23.5062C16.3903 23.5062 16.3903 23.5062 16.3903 23.5885C16.3903 23.7943 16.3903 23.7943 16.3903 23.7943C16.3364 23.7943 16.2284 23.7943 16.1744 23.7531C16.1205 23.712 15.9405 23.7531 15.9226 23.7531C15.9046 23.7531 15.8506 23.712 15.8146 23.6708C15.7786 23.6297 15.6347 23.6708 15.5807 23.712C15.5807 23.712 15.5807 23.712 15.5447 23.6708C15.5088 23.6297 15.5088 23.6297 15.5088 23.6297C15.4728 23.5062 15.4188 23.4239 15.3828 23.4651C15.3468 23.5062 15.2569 23.6297 15.2569 23.6708C15.2569 23.6708 15.2569 23.6708 15.2569 23.712C15.2569 23.7531 15.2569 23.7531 15.2569 23.7531C15.2569 23.7943 15.2389 23.7943 15.2209 23.7943C15.2029 23.7943 15.1669 23.712 15.1309 23.6297C15.0949 23.5474 14.987 23.712 14.969 23.712C14.951 23.712 14.879 23.6708 14.8431 23.6708C14.8431 23.6708 14.8431 23.6708 14.8431 23.6297C14.8251 23.5062 14.8251 23.5062 14.8251 23.5062C14.879 23.5062 14.951 23.5062 14.987 23.5062C15.023 23.5062 15.041 23.2594 15.005 23.2594C14.969 23.2594 14.8431 23.2594 14.8431 23.3416C14.8431 23.3416 14.8431 23.3416 14.8251 23.4239C14.8071 23.5062 14.7711 23.6297 14.7351 23.6297C14.6452 23.6297 14.7171 23.4651 14.6811 23.3828C14.6811 23.3828 14.6272 23.4239 14.5912 23.5474C14.5552 23.6297 14.3573 23.6297 14.3033 23.6297C14.2493 23.6297 14.1774 23.4239 14.1594 23.5062C14.1414 23.5885 14.2673 23.6708 14.2853 23.6708C14.2853 23.6708 14.3033 23.7531 14.2853 23.7943C14.2853 23.7943 14.2853 23.7943 14.2673 23.7943C14.2313 23.7943 14.2313 23.7943 14.2313 23.7943C14.1954 23.7531 14.1234 23.6708 14.0694 23.5474C14.0694 23.5474 14.0694 23.5474 14.0514 23.1771C14.0514 23.1359 13.9795 23.0536 13.9795 23.0536C13.8175 23.3005 13.8715 23.0125 13.8535 22.889C13.8355 22.8479 13.8175 22.889 13.8175 22.9713C13.8175 23.0536 13.7816 23.2182 13.7456 23.1359C13.7096 23.0536 13.6556 23.3828 13.6376 23.4239C13.6196 23.4651 13.5657 23.6708 13.5477 23.6708C13.5297 23.6708 13.4037 23.6708 13.3138 23.6708C13.3138 23.6708 13.3138 23.6708 13.2238 23.6708C13.2058 23.6708 13.2058 23.6708 13.2058 23.6708C13.1878 23.6708 13.1698 23.6708 13.1698 23.6297C13.1698 23.5885 13.1698 23.5062 13.1698 23.4651C13.1698 23.4239 13.2418 23.2594 13.2778 23.3005C13.2778 23.3005 13.2778 23.3005 13.3138 23.3005C13.3498 23.3005 13.3498 23.3005 13.3498 23.3005C13.3678 23.3416 13.4217 23.3828 13.4757 23.4239C13.4757 23.4239 13.4757 23.4239 13.5117 23.4239C13.5297 23.4239 13.5657 23.4239 13.5657 23.3828C13.5837 23.3005 13.5837 23.3005 13.5837 23.3005C13.6016 23.1771 13.6556 23.0948 13.6916 23.0948C13.6916 23.0948 13.6916 23.0948 13.7096 23.0536C13.7456 22.9713 13.7456 22.8479 13.7636 22.8067C13.8355 22.6833 13.8355 22.6833 13.8355 22.6833C13.7996 22.601 13.7456 22.5187 13.7276 22.4776C13.7096 22.4776 13.6376 22.5187 13.6376 22.6421C13.6376 22.7656 13.5837 23.0948 13.5297 23.0948C13.5297 23.0948 13.5297 23.0948 13.4937 23.1771C13.4577 23.2594 13.4217 23.3005 13.3498 23.2182C13.3138 23.3005 13.3138 23.3005 13.3138 23.3005ZM13.8895 22.3541C13.8535 22.313 13.7995 22.313 13.7995 22.313C13.7995 22.313 13.7996 22.3953 13.8355 22.4364C13.8535 22.4776 13.9975 22.5187 14.0694 22.4364C14.0694 22.4364 14.0694 22.4364 14.1414 22.5599C14.1414 22.5599 14.1774 22.5599 14.1774 22.5187C14.1954 22.4776 14.1954 22.4776 14.1954 22.4776C14.2313 22.3953 14.2313 22.313 14.1774 22.313C14.1234 22.313 13.9435 22.3953 13.8895 22.3541ZM12.5941 22.5599C12.5401 22.601 12.5042 22.6833 12.5221 22.7656C12.5401 22.8479 12.6661 22.6833 12.6841 22.6421C12.7021 22.601 12.846 22.601 12.882 22.601C12.918 22.601 13.0619 22.5599 13.0439 22.4776C13.0259 22.3953 12.9 22.4776 12.864 22.4776C12.828 22.4776 12.738 22.4776 12.6841 22.4364C12.6841 22.4364 12.6841 22.4364 12.6301 22.4776C12.5941 22.5599 12.5941 22.5599 12.5941 22.5599ZM43.9714 11.0798C44.0254 11.1209 44.0434 11.0798 44.0254 10.9975C44.0074 10.9152 43.9175 10.6272 43.8815 10.4626C43.8815 10.4626 43.8815 10.4626 43.8095 10.6683C43.7555 10.8329 43.7556 10.8329 43.7556 10.8329C43.7016 10.7918 43.6836 10.7506 43.7196 10.7918C43.7555 10.7918 43.9175 11.0387 43.9714 11.0798ZM23.0832 22.601C23.0292 22.601 22.9573 22.6421 22.9573 22.6833C22.9753 22.7656 22.9753 22.7656 22.9753 22.7656C22.9573 22.8479 22.9573 22.9302 22.9933 22.9713C23.0112 23.0125 23.1012 22.889 23.1552 22.889C23.1732 22.8067 23.1372 22.601 23.0832 22.601ZM44.7451 10.9564C44.7091 10.8329 44.6911 10.8329 44.7091 10.9564C44.7271 11.0798 44.871 11.2032 44.907 11.2032C44.907 11.2032 44.907 11.2032 44.907 11.0798C44.907 11.0387 44.907 11.0387 44.907 11.0387C44.943 10.9152 44.907 10.9152 44.8171 11.0387C44.8171 11.0387 44.8171 11.0387 44.7811 10.9975C44.7451 10.9564 44.7451 10.9564 44.7451 10.9564ZM12.1803 22.4364C12.0724 22.4776 12.0184 22.5187 12.0724 22.5187C12.1083 22.5187 12.2343 22.6421 12.2523 22.6833C12.2883 22.7244 12.3782 22.7656 12.3782 22.7244C12.3782 22.6833 12.3422 22.5187 12.2883 22.5599C12.2883 22.5599 12.2883 22.5599 12.2703 22.5599C12.1803 22.4364 12.1803 22.4364 12.1803 22.4364ZM16.6062 22.8479C16.5882 22.8479 16.5882 22.9713 16.6242 23.1359C16.6242 23.1359 16.6242 23.1359 16.6782 23.1771C16.7322 23.2594 16.7322 23.2594 16.7322 23.2594C16.7862 23.3416 16.8581 23.3828 16.8941 23.3828C16.8941 23.3828 16.8941 23.3828 16.8941 23.3416C16.9121 23.3005 16.9121 23.3005 16.9121 23.3005C16.9121 23.2182 16.8581 23.1771 16.7862 23.1771C16.7862 23.1771 16.7862 23.1771 16.7502 23.1359C16.7142 23.0948 16.7142 23.0948 16.7142 23.0948C16.6962 22.9713 16.6242 22.8479 16.6062 22.8479ZM31.1974 22.8479C31.2334 22.8067 31.2334 22.7656 31.2154 22.7244C31.1974 22.6833 31.1255 22.5599 31.1075 22.5187C31.0895 22.4776 31.0175 22.5187 31.0355 22.6421C31.0535 22.7656 31.1794 22.8479 31.1974 22.8479ZM15.1669 23.0536C15.1489 22.9302 15.1489 22.9302 15.1669 23.0536C15.1669 23.1359 15.1489 23.3828 15.1849 23.3828C15.2209 23.3828 15.1669 23.1771 15.1669 23.0536ZM1.36736 15.4825C1.40334 15.4825 1.42134 15.4414 1.42134 15.3591C1.34937 15.3591 1.33138 15.2768 1.33138 15.1534C1.33138 15.1122 1.33138 15.1122 1.33138 15.1122C1.31339 15.0299 1.29539 15.0711 1.25941 15.1534C1.24142 15.2768 1.33138 15.4414 1.36736 15.4825ZM0.755647 17.4576C0.755647 17.4165 0.719664 17.3753 0.701672 17.3342C0.701672 17.3342 0.701672 17.3342 0.68368 17.293C0.665689 17.2519 0.647697 17.2107 0.611714 17.2519C0.575731 17.293 0.557739 17.3342 0.611714 17.4165C0.647697 17.4576 0.575731 17.6633 0.665689 17.6633C0.68368 17.6633 0.719664 17.5399 0.755647 17.4576Z" fill="#FFB820"/>
</svg>
