<svg width="26" height="26" viewBox="0 0 26 26" fill="none" xmlns="http://www.w3.org/2000/svg">
<path d="M13 0C5.82054 0 0 5.82028 0 13C0 20.1797 5.82054 26 13 26C20.1795 26 26 20.1797 26 13C26 5.82028 20.1795 0 13 0ZM19.5943 14.406C20.2002 14.9978 20.8412 15.5548 21.3852 16.2078C21.6261 16.4966 21.8533 16.7953 22.0262 17.1313C22.273 17.6103 22.0501 18.1356 21.6214 18.1641L18.9581 18.1636C18.2702 18.2205 17.7228 17.9431 17.2613 17.4728C16.893 17.098 16.5512 16.6977 16.1963 16.3102C16.0514 16.1511 15.8987 16.0014 15.7168 15.8835C15.3537 15.6473 15.0382 15.7197 14.8302 16.099C14.6183 16.4849 14.5698 16.9126 14.5496 17.3422C14.5206 17.9702 14.3313 18.1343 13.7011 18.1638C12.3547 18.2269 11.0772 18.0226 9.88984 17.3438C8.84239 16.7451 8.03167 15.9 7.32522 14.9433C5.94954 13.0782 4.89598 11.0312 3.94934 8.92538C3.73629 8.45113 3.89215 8.19738 4.41535 8.18754C5.28458 8.17078 6.15382 8.17291 7.02306 8.18674C7.37682 8.19233 7.61089 8.39474 7.7468 8.72855C8.21653 9.88426 8.79239 10.9838 9.51401 12.0036C9.70631 12.2752 9.90261 12.546 10.1822 12.7377C10.4907 12.9495 10.7258 12.8795 10.8713 12.5351C10.9644 12.3162 11.0046 12.0821 11.0248 11.8475C11.094 11.0439 11.1022 10.2407 10.9825 9.44033C10.908 8.93948 10.6264 8.61604 10.1271 8.52135C9.87282 8.47321 9.91006 8.37905 10.0337 8.23382C10.2484 7.98273 10.4495 7.8274 10.8514 7.8274L13.8605 7.82686C14.3347 7.91996 14.4411 8.13275 14.5055 8.61046L14.5081 11.9544C14.5025 12.1393 14.601 12.6872 14.9329 12.8082C15.1989 12.896 15.3744 12.6827 15.5335 12.5143C16.2551 11.7485 16.7693 10.8447 17.2297 9.90926C17.4329 9.49672 17.6082 9.06981 17.7784 8.64211C17.905 8.32585 18.1019 8.17025 18.4588 8.17557L21.3564 8.17903C21.4418 8.17903 21.5285 8.17983 21.6131 8.19446C22.1015 8.27797 22.2353 8.4881 22.0842 8.96448C21.8464 9.71296 21.3844 10.3364 20.9327 10.9615C20.4486 11.6307 19.9324 12.2765 19.4531 12.9487C19.0126 13.5631 19.0474 13.8724 19.5943 14.406Z" fill="#AAAAAA"/>
</svg>
