<svg width="68" height="48" viewBox="0 0 68 48" fill="none" xmlns="http://www.w3.org/2000/svg">
<g clip-path="url(#clip0_129_2)">
<path d="M66.52 7.74C65.74 4.81 64.03 2.33 61.1 1.55C55.79 0.13 34 0 34 0C34 0 12.21 0.13 6.9 1.55C3.97 2.33 2.27 4.81 1.48 7.74C0.0600001 13.05 0 24 0 24C0 24 0.0600001 34.95 1.48 40.26C2.26 43.19 3.97 45.67 6.9 46.45C12.21 47.87 34 48 34 48C34 48 55.79 47.87 61.1 46.45C64.03 45.67 65.74 43.19 66.52 40.26C67.94 34.95 68 24 68 24C68 24 67.94 13.05 66.52 7.74Z" fill="#FF0000"/>
<path d="M45 24L27 14V34" fill="white"/>
</g>
<defs>
<clipPath id="clip0_129_2">
<rect width="68" height="48" fill="white"/>
</clipPath>
</defs>
</svg>
