<svg width="86" height="80" viewBox="0 0 86 80" fill="none" xmlns="http://www.w3.org/2000/svg">
<path d="M80.6949 32.9663C80.7414 33.0428 80.7878 33.1193 80.8498 33.1575C80.8962 33.1958 80.9582 33.234 81.0047 33.1958C81.1596 33.0428 81.3299 33.0045 81.5003 33.0045C81.7017 33.0045 81.8875 33.0045 82.0889 32.9663C82.2902 32.928 82.4761 33.0045 82.6774 33.0045C82.8168 33.0045 82.9562 33.081 83.0801 33.234C83.1885 33.3488 83.297 33.3105 83.4054 33.1958C83.4673 33.1575 83.5138 33.1575 83.5603 33.1958C83.6687 33.3105 83.7616 33.387 83.8855 33.387C83.9939 33.387 84.1024 33.4253 84.2108 33.4635C84.2727 33.4635 84.3657 33.7313 84.3657 33.8843C84.3812 34.1521 84.4121 34.4198 84.3966 34.6876C84.3966 35.1083 84.3657 35.4909 84.3037 35.9116C84.2727 36.1029 84.3037 36.3324 84.3811 36.4471C84.4431 36.5619 84.5205 36.6766 84.5825 36.7914C84.6754 36.9826 84.7219 37.2122 84.7064 37.5182C84.6909 37.6329 84.6754 37.7859 84.6599 37.9007C84.629 38.1302 84.6754 38.2449 84.7838 38.2832C84.9232 38.2832 85.0626 38.2832 85.202 38.3214C85.2485 38.3214 85.3105 38.3979 85.3569 38.4744C85.4653 38.704 85.5583 38.9717 85.6357 39.2395C85.6667 39.3542 85.6977 39.469 85.6977 39.622C85.7131 39.8897 85.7131 40.1575 85.7286 40.4253C85.7286 40.693 85.6977 40.9608 85.6357 41.1903C85.5892 41.3815 85.5428 41.5345 85.4963 41.7258C85.4498 41.8788 85.4653 42.0701 85.5583 42.2613C85.6202 42.4143 85.6822 42.5291 85.7441 42.6821C85.8216 42.8733 85.868 43.1411 85.8835 43.4088C85.8835 43.7531 85.8835 44.0974 85.8835 44.4416C85.8835 45.1684 85.8835 45.2066 85.5892 45.4362C85.5582 45.4744 85.5273 45.4744 85.5118 45.5127C85.4963 45.5892 85.5118 45.7039 85.5737 45.7804C85.6821 45.8952 85.7751 46.0482 85.837 46.2777C85.8525 46.3159 85.868 46.3924 85.868 46.4689C85.868 46.5454 85.868 46.6219 85.868 46.6602C85.837 46.8514 85.806 47.0427 85.7751 47.234C85.806 47.5017 85.9145 47.6547 85.9764 47.8842C86.0074 47.999 86.0074 48.152 85.9764 48.2667C85.9145 48.4962 85.8215 48.6492 85.7131 48.7258C85.6512 48.764 85.6357 48.917 85.6512 49.07C85.7441 49.529 85.7286 49.988 85.6357 50.4471C85.6202 50.5236 85.6047 50.5618 85.6047 50.6383C85.5582 51.0591 85.5737 51.4416 85.6511 51.8241C85.6821 51.9388 85.7131 52.0536 85.7441 52.1684C85.837 52.5509 85.8525 52.6656 85.6047 52.9334C85.4808 53.0864 85.3414 53.1629 85.2175 53.2776C85.1865 53.2776 85.171 53.3541 85.1555 53.3924C85.14 53.4689 85.1865 53.5836 85.2484 53.6219C85.3569 53.6601 85.4653 53.6984 85.5737 53.7749C85.6511 53.8132 85.7286 53.9279 85.775 54.1192C85.7905 54.1574 85.8215 54.2339 85.806 54.3104C85.7905 54.7312 85.6976 55.0754 85.7131 55.4962C85.7441 55.917 85.6821 56.376 85.5892 56.7967C85.5427 56.9497 85.5582 57.2175 85.5272 57.4088C85.4962 57.6 85.4498 57.753 85.3568 57.8295C85.3104 57.906 85.2639 57.9825 85.2174 58.0208C85.14 58.1355 85.1245 58.365 85.2019 58.518C85.3259 58.7475 85.3723 59.0536 85.2949 59.3978C85.2639 59.5508 85.2639 59.6656 85.2949 59.7803C85.3258 59.8951 85.3258 60.0481 85.3104 60.1628C85.2794 60.3541 85.2329 60.5454 85.2329 60.7366C85.2174 61.0809 85.14 61.3869 85.1555 61.7311C85.1555 62.0371 85.14 62.2284 85.0161 62.3814C84.9696 62.4197 84.9231 62.5344 84.8922 62.6492C84.8457 62.7639 84.8302 62.8787 84.8612 62.9934C84.8767 63.0317 84.9076 63.0699 84.9386 63.0699C85.078 63.0699 85.2174 63.0699 85.3568 63.1082C85.4497 63.1082 85.5117 63.3377 85.4962 63.4907C85.4497 63.9497 85.3723 64.4087 85.2019 64.6765C85.1555 64.753 85.14 64.8677 85.109 64.9825C85.0935 65.0207 85.0935 65.0972 85.078 65.1737L85.0625 65.1737C84.8921 65.2502 84.7373 65.365 84.6288 65.7093C84.5824 65.8623 84.5669 66.13 84.6133 66.283C84.6908 66.589 84.8147 66.742 84.9076 67.0098C84.9541 67.1628 85.0006 67.3541 85.047 67.5071C85.0625 67.5453 85.0625 67.6218 85.0625 67.6983C85.0935 68.0426 84.9851 68.4251 84.8612 68.4633C84.7218 68.5016 84.5824 68.5398 84.443 68.5781C84.381 68.5781 84.3345 68.6546 84.2881 68.6928C84.2261 68.7311 84.1487 69.0371 84.1797 69.1519C84.2261 69.2284 84.2726 69.2666 84.3345 69.1901C84.381 69.1519 84.443 69.0754 84.4894 69.0371C84.5359 68.9989 84.6133 68.9989 84.6443 69.0371C84.8302 69.2666 85.016 69.3431 85.2019 69.3814C85.2329 69.3814 85.2484 69.4579 85.2639 69.4961C85.2793 69.5726 85.2484 69.6874 85.1864 69.7256C85.0005 69.8021 84.7992 69.8404 84.6288 70.0699C84.5359 70.2229 84.412 70.1846 84.3036 70.2229C84.1951 70.2611 84.0867 70.2229 83.9783 70.3376C83.9163 70.3759 83.8079 70.6436 83.8079 70.7584C83.8079 70.8732 83.8389 70.9879 83.8854 71.1027C83.9318 71.1792 83.9783 71.2939 84.0248 71.2939C84.1022 71.3322 84.1951 71.3704 84.2726 71.3704C84.5823 71.4087 84.8766 71.4087 85.1864 71.4469C85.2174 71.4469 85.2484 71.4852 85.2638 71.5234C85.2948 71.5999 85.2793 71.7147 85.2329 71.8294C85.1399 71.9824 85.047 72.1354 84.9696 72.3267C84.8611 72.5562 84.7372 72.671 84.5978 72.7092C84.5204 72.7475 84.4275 72.7857 84.35 72.824C84.3035 72.8622 84.2571 72.977 84.2416 73.0917C84.1332 73.0535 84.0248 73.13 83.9318 73.2447C83.8544 73.3212 83.7769 73.283 83.6995 73.2447C83.4827 73.0917 83.2658 73.0535 83.0645 73.2065C83.049 73.2065 83.018 73.283 83.018 73.3212C83.018 73.3977 83.018 73.4742 83.0335 73.5125C83.0645 73.589 83.1109 73.7037 83.1574 73.742C83.4517 73.9332 83.746 73.9332 84.0402 73.8185C84.0867 73.8185 84.1487 73.742 84.1796 73.6272C84.2106 73.5507 84.2106 73.3977 84.2261 73.2447C84.2261 73.1682 84.2261 73.0917 84.2261 73.0535C84.2726 73.0917 84.319 73.1682 84.35 73.283C84.381 73.4742 84.4275 73.6272 84.4584 73.8185C84.5049 74.0863 84.5049 74.201 84.4584 74.354C84.381 74.5453 84.3035 74.7365 84.2261 74.8895C84.1641 75.0043 84.0867 75.119 84.0093 75.119C83.8699 75.119 83.746 75.1573 83.6066 75.1573C83.4672 75.1573 83.3433 75.0808 83.2193 74.8895C83.1729 74.813 83.1264 74.7748 83.0645 74.7365C83.049 74.6983 83.049 74.6218 83.0335 74.5835C83.018 74.5453 83.0025 74.5453 82.987 74.5453C82.987 74.6218 83.018 74.6983 83.0799 74.6983C83.0645 75.0425 83.1109 75.3485 83.2039 75.6545C83.3278 76.0371 83.4826 76.3431 83.684 76.3813C83.7305 76.3813 83.7924 76.4578 83.8389 76.4961C83.8853 76.5726 83.9318 76.6491 83.9628 76.7638C83.9938 76.8786 83.9783 77.0316 83.9163 77.0698C83.7614 77.2228 83.6065 77.3376 83.4517 77.4523C83.4052 77.4906 83.3432 77.5288 83.2968 77.5288C83.1264 77.6054 82.956 77.5671 82.8011 77.7201C82.6772 77.8349 82.5533 77.9879 82.4139 78.0261C82.29 78.0644 82.3055 78.1026 82.4139 78.3704C82.5069 78.5999 82.5223 78.6381 82.4604 78.8676C82.4449 78.9441 82.4294 78.9824 82.4294 79.0589C82.352 79.5179 82.2281 79.7092 81.9493 79.5944C81.8718 79.5562 81.7944 79.4031 81.8254 79.1736C81.8563 78.9059 81.7324 78.6381 81.8409 78.4086C81.8873 78.3321 81.9338 78.2556 81.9338 78.1026C81.9338 78.1026 81.8873 78.0644 81.8718 78.0261C81.7634 77.9879 81.655 77.9879 81.5466 77.9496C81.4691 77.9496 81.3762 77.9496 81.2988 78.0261C81.1439 78.2174 80.989 78.3321 80.8186 78.2939C80.7102 78.2939 80.6018 78.2939 80.4779 78.3321C80.4314 78.3321 80.354 78.3704 80.323 78.4469C80.292 78.5234 80.292 78.6764 80.292 78.8294C80.292 78.9824 80.261 79.0589 80.1836 79.0971C80.0442 79.0971 79.9048 79.0971 79.7654 79.1354C79.6725 79.1354 79.595 79.0589 79.5176 78.9824C79.4556 78.9059 79.4092 78.9059 79.3627 78.9824C79.1768 79.1736 78.9755 79.1736 78.7896 79.1736C78.7277 79.1736 78.6657 79.1736 78.6347 79.0971C78.3714 78.6764 78.0462 78.7529 77.7519 78.4851C77.6125 78.4469 77.4731 78.4469 77.3337 78.4086C77.2563 78.3703 77.1633 78.3321 77.1014 78.2173C77.0239 78.1026 76.962 77.9878 76.931 77.7966C76.962 77.6818 76.993 77.6053 77.0394 77.4906C77.0549 77.4523 77.0859 77.4141 77.1014 77.3376C77.1633 77.1463 77.1478 76.9168 77.0704 76.8403C76.8691 76.6873 76.6832 76.6873 76.5283 77.0316C76.3734 77.3758 76.234 77.5671 76.0791 77.7201C76.0327 77.7583 75.9707 77.8348 75.9242 77.7966C75.7694 77.6818 75.6455 77.8348 75.5215 77.9496C75.4596 77.9878 75.4131 78.0261 75.3512 77.9496C75.1963 77.7583 75.0259 77.7583 74.871 77.9496C74.6232 77.9878 74.3754 78.0261 74.1276 77.7966C74.0192 77.6818 73.9107 77.6818 73.8023 77.6818C73.6319 77.6436 73.4771 77.5671 73.3222 77.4141C73.2447 77.3376 73.1673 77.2993 73.0899 77.2228C72.9814 77.1463 72.873 77.1463 72.7646 77.0698C72.5787 76.9168 72.3929 76.8403 72.1915 76.8403C71.9127 76.8403 71.6339 76.802 71.3551 76.802C71.1538 76.802 70.9679 76.7638 70.7666 76.7638C70.5962 76.7638 70.4413 76.6873 70.2709 76.5725C70.0541 76.4195 69.8373 76.3813 69.6204 76.649C69.543 76.7255 69.4655 76.7255 69.3726 76.6873C69.2952 76.6108 69.2177 76.6108 69.1248 76.6873C68.7995 76.9933 68.4743 76.9168 68.149 76.6108C68.0406 76.496 67.9322 76.496 67.8238 76.6108C67.6069 76.8785 67.3901 76.8785 67.1732 76.649C67.0648 76.5342 66.9719 76.4577 66.848 76.4577C66.6311 76.4577 66.3988 76.4577 66.182 76.496C65.6863 76.5725 65.1752 76.4577 64.6796 76.3812C64.6176 76.3812 64.5712 76.343 64.5247 76.3047C64.4163 76.2282 64.3079 76.2665 64.1995 76.343C63.9826 76.4577 63.7658 76.4195 63.5489 76.19C63.4405 76.0752 63.3321 76.037 63.2237 76.0752C63.0533 76.1135 62.8984 76.0752 62.7435 75.8457C62.6661 75.731 62.5886 75.731 62.5112 75.8457C62.3408 76.0752 62.1395 76.1517 61.9536 76.1135C61.8142 76.0752 61.6748 76.037 61.5354 76.037C61.4425 76.037 61.3651 75.9605 61.3031 75.884C61.1947 75.7692 61.1018 75.6927 60.9778 75.7309C60.792 75.7692 60.5906 75.7309 60.4048 75.9222C60.3273 75.9987 60.2499 75.9605 60.1724 75.8457C60.095 75.7692 60.0176 75.6544 59.9401 75.6544C59.6613 75.6927 59.3825 75.6927 59.1037 75.7309C59.0573 75.7309 58.9953 75.8074 58.9488 75.8457C58.732 76.0369 58.5152 76.0369 58.2983 75.8839C58.2828 75.8839 58.2674 75.8074 58.2674 75.7692C58.2828 75.7309 58.2983 75.6544 58.3293 75.6544C58.5461 75.6544 58.6855 75.3102 58.8404 75.0424C58.8869 74.9659 58.9334 74.9659 58.9953 75.0042C59.1037 75.1189 59.2122 75.1189 59.3206 75.0042C59.4445 74.8512 59.5839 74.7747 59.7233 74.8129C60.033 74.8512 60.3428 74.8512 60.6371 74.7747C60.6836 74.7747 60.7455 74.6982 60.792 74.6217C60.8385 74.5452 60.8694 74.4304 60.8849 74.3157C60.9004 74.2009 60.8694 74.0862 60.8075 74.0096C60.6526 73.8184 60.5132 73.5889 60.3428 73.5889C60.095 73.5889 59.9246 73.2829 59.8007 72.7474C59.7543 72.5178 59.7078 72.5178 59.5994 72.5944C59.46 72.6709 59.3206 72.7474 59.1967 72.8621C59.0883 72.9769 58.9798 72.9769 58.8714 72.8621C58.825 72.8239 58.763 72.7856 58.7165 72.7856C58.5462 72.7474 58.3758 72.7856 58.2519 73.0916C58.2054 73.1681 58.1744 73.2829 58.128 73.3594C58.0041 73.5506 57.8802 73.6271 57.7408 73.5124C57.6943 73.4741 57.6323 73.3976 57.5859 73.3594C57.5084 73.2829 57.4155 73.2829 57.3381 73.3594C57.2606 73.4359 57.1832 73.3976 57.0902 73.3211C56.9508 73.2064 56.8114 73.1681 56.6721 73.2446C56.5946 73.2829 56.5172 73.3976 56.4707 73.5506C56.3933 73.8184 56.3003 73.8184 56.2074 73.5506C56.1609 73.3976 56.1145 73.2064 56.068 73.0533C56.006 72.8621 55.9286 72.8621 55.8512 73.0151C55.8047 73.0916 55.7737 73.2446 55.7427 73.3211C55.6808 73.4741 55.6033 73.5506 55.5104 73.5506C55.371 73.5889 55.2316 73.6271 55.0922 73.4741C54.8599 73.2446 54.5966 73.2063 54.3952 72.8621C54.3178 72.7473 54.2404 72.7856 54.1629 72.9003C54.008 73.1298 53.8531 73.1681 53.6828 73.0151C53.5434 72.8621 53.4195 72.8238 53.2801 72.9768C53.1252 73.1298 52.9548 73.2063 52.7999 73.2446C52.6296 73.2828 52.4902 73.5123 52.3198 73.5506C52.1959 73.5506 52.1029 73.7419 52.041 73.9714C51.8706 74.5451 51.6073 74.8511 51.344 75.0806C51.2975 75.1189 51.2201 75.1189 51.1891 75.0806C50.9878 74.8129 50.7554 74.8129 50.5386 74.8129C50.4457 74.8129 50.3218 74.5834 50.3063 74.3156C50.2908 74.2009 50.2753 74.0479 50.2753 73.8948C50.2753 73.5123 50.2288 73.2446 50.0585 73.1681C49.9191 73.1298 49.7952 72.9768 49.6712 72.7856C49.6248 72.7091 49.5628 72.6326 49.5628 72.5178C49.5628 72.4031 49.6403 72.3648 49.7022 72.3266C49.7797 72.2883 49.8726 72.25 49.95 72.2118C49.981 72.2118 49.9965 72.1353 50.012 72.097C49.9965 72.0588 49.981 72.0205 49.95 71.9823C49.8726 71.9058 49.7797 71.944 49.7022 71.944C49.5938 71.944 49.4854 71.944 49.377 71.791C49.2995 71.6763 49.284 71.4468 49.2221 71.332C49.1601 71.179 49.0827 71.1408 49.0052 71.2555C48.9588 71.332 48.9123 71.4085 48.8813 71.5233C48.8504 71.638 48.8194 71.7528 48.7884 71.8675C48.7574 72.0205 48.711 72.097 48.68 72.0205C48.6645 71.9823 48.649 71.9058 48.6335 71.8675C48.618 71.7528 48.6025 71.5998 48.5871 71.485C48.5406 71.2173 48.3392 71.1025 48.2308 71.2938C48.1534 71.4085 48.1224 71.5998 48.0604 71.7528C48.014 71.8675 47.9675 71.9058 47.921 71.944C47.7507 72.0205 47.5958 72.0205 47.4409 71.791C47.4099 71.7528 47.3944 71.7145 47.3635 71.6763C47.2086 71.5233 47.0692 71.5615 46.9917 71.9058C46.9143 72.2883 46.8059 72.5943 46.651 72.7856C46.6045 72.8621 46.5426 72.9386 46.5426 73.0533C46.5426 73.1681 46.62 73.2063 46.6665 73.2446C46.7439 73.2828 46.8368 73.2828 46.9143 73.3211C46.9917 73.3593 47.0692 73.4741 47.1002 73.6653L47.1156 73.6271C47.0382 73.7036 46.9608 73.7801 46.8833 73.8948C46.8368 73.9713 46.7749 73.9713 46.7284 73.9331C46.6045 73.8183 46.4806 73.6653 46.3257 73.6653C46.2173 73.6653 46.1089 73.6653 45.985 73.6271C45.923 73.6271 45.8766 73.5506 45.8611 73.4741C45.8611 73.4358 45.8766 73.3211 45.8921 73.2828C45.985 73.1298 46.0624 72.9386 46.0934 72.6708C46.1089 72.5943 46.1089 72.556 46.1244 72.4795C46.1708 72.3265 46.1709 72.2118 46.1089 72.1353C46.0934 72.097 46.0624 72.097 46.0315 72.097C45.8146 72.2883 45.6133 72.403 45.3809 72.3648C45.2415 72.3265 45.1021 72.3648 44.9627 72.403C44.8233 72.4413 44.684 72.4795 44.56 72.6325C44.4516 72.7855 44.3432 72.709 44.2503 72.5943C44.2193 72.556 44.2038 72.5178 44.1728 72.5178C44.0334 72.403 43.9405 72.2118 43.8631 71.8675C43.8166 71.6763 43.7392 71.638 43.6462 71.5998C43.5843 71.5998 43.5223 71.5998 43.4913 71.7145C43.4759 71.8293 43.5223 71.944 43.5843 72.0205C43.6462 72.097 43.6617 72.25 43.6152 72.3265C43.4758 72.556 43.3519 72.8238 43.228 73.0915C43.0886 73.3976 42.8873 73.3211 42.7634 73.0915C42.6085 72.7855 42.4536 72.4795 42.3917 71.9823C42.5465 71.9823 42.7169 71.9823 42.8718 71.9823C42.9338 71.9823 42.9647 71.8675 42.9647 71.791C42.9647 71.7528 42.9338 71.6763 42.9028 71.6763C42.8563 71.638 42.7944 71.638 42.7479 71.638C42.6085 71.5997 42.4846 71.7528 42.4226 72.0588C42.1748 72.0588 41.927 72.097 41.6637 72.0588C41.4933 72.0588 41.323 72.0205 41.1681 71.9823C41.0442 71.944 41.0442 71.9057 40.9977 71.4467C40.9977 71.4085 40.9667 71.332 40.9512 71.2937C40.8273 71.1025 40.5795 71.179 40.4866 71.4085C40.4711 71.4467 40.4401 71.485 40.4246 71.5615C40.3472 71.9057 40.2233 71.9822 40.0684 72.0205C39.96 72.0587 39.8515 72.0587 39.7431 72.097C39.7121 72.097 39.6812 72.1735 39.6812 72.2118C39.6812 72.3265 39.7121 72.403 39.7741 72.4413C39.9135 72.5178 40.0529 72.4413 40.1613 72.709C40.1768 72.7473 40.1923 72.862 40.1768 72.9003C40.1768 72.9385 40.1303 73.0533 40.1148 73.0533C39.929 72.9385 39.7431 72.862 39.5573 72.862C39.3714 72.862 39.3714 72.8238 39.294 72.3265C39.294 72.2883 39.263 72.2118 39.2475 72.2118C38.8603 72.1352 38.4731 72.1352 38.0859 72.0587C38.0239 72.0587 37.9774 71.944 37.9619 71.8675C37.931 71.7145 38.0394 71.4467 38.1013 71.4467C38.1323 71.4467 38.1633 71.4467 38.1788 71.4467C38.2252 71.485 38.2872 71.5615 38.3337 71.5615C38.3801 71.5997 38.4421 71.5997 38.504 71.5615C38.597 71.5615 38.6434 71.3702 38.6899 71.179C38.7209 70.9877 38.7054 70.7965 38.6434 70.6435C38.628 70.6052 38.597 70.5287 38.5815 70.5287C38.504 70.4904 38.4111 70.4904 38.3337 70.4904C38.1013 70.4139 37.9 70.6052 37.7296 71.026C37.6832 71.1407 37.6212 71.1025 37.5747 71.026C37.5128 70.873 37.4508 70.7582 37.3889 70.6052C37.3424 70.5287 37.3114 70.4139 37.265 70.3374C37.172 70.1844 37.0481 70.2227 36.9707 70.4522C36.9242 70.6052 36.8778 70.7964 36.8313 70.9495C36.8313 70.9495 36.7848 70.9495 36.7848 70.9112C36.7384 70.5287 36.7229 70.1079 36.7693 69.6872C36.8003 69.3812 36.7384 69.2282 36.599 69.2282C36.537 69.2282 36.4905 69.2282 36.4286 69.2664C36.3357 69.3047 36.2737 69.4194 36.2427 69.6489C36.2118 69.8402 36.2117 70.0314 36.1808 70.2227C36.1653 70.3374 36.1188 70.4904 36.0878 70.5669C35.933 70.8347 35.7626 71.1025 35.6077 71.3702C35.4683 71.638 35.2979 71.6762 35.1275 71.638C35.0191 71.5997 34.9107 71.485 34.8023 71.4467C34.7248 71.4085 34.6474 71.5232 34.5545 71.4467C34.3376 71.2555 34.1208 71.2937 33.9194 71.5997C33.873 71.6762 33.811 71.7527 33.811 71.8675C33.8265 71.9822 33.8885 72.0205 33.9504 72.0205C34.0279 72.0205 34.1208 72.0587 34.1982 72.0587C34.2137 72.0587 34.2447 72.1352 34.2602 72.1735C34.2757 72.25 34.2447 72.3647 34.1673 72.3647C33.9659 72.3647 33.78 72.3647 33.5787 72.3647C33.5013 72.3647 33.4393 72.1735 33.4858 71.944C33.5322 71.638 33.5013 71.4085 33.3928 71.2554C33.3464 71.1789 33.2844 71.1024 33.2999 70.9494C33.2999 70.8347 33.3619 70.7582 33.4238 70.7582C33.6407 70.7199 33.873 70.7199 34.0898 70.7199C34.1363 70.7199 34.1982 70.6817 34.2447 70.6434C34.3067 70.6052 34.3376 70.4904 34.3221 70.3374C34.3221 70.2609 34.2912 70.1844 34.2757 70.1844C34.1673 70.2227 34.0588 70.1844 33.9504 70.0697C33.873 69.9932 33.7955 69.9932 33.7026 70.0314C33.6252 70.1079 33.5477 70.1844 33.4703 70.2609C33.4238 70.2992 33.3464 70.3374 33.3154 70.2992C33.0521 70.0314 32.7733 69.9932 32.4945 69.9932C32.3241 69.9932 32.1538 70.0314 31.9989 70.0697C31.9524 70.0697 31.8905 70.1844 31.8595 70.2609C31.7665 70.4522 31.7201 70.6817 31.6581 70.9112C31.5807 71.2172 31.3948 71.2937 31.2864 71.1024C31.1935 70.9494 31.116 70.7582 31.0231 70.6052C30.9457 70.4904 30.8682 70.4522 30.7908 70.5287C30.6359 70.7199 30.481 70.7964 30.3106 70.7964C30.0938 70.7582 29.8615 70.7582 29.6446 70.7964C29.2884 70.8347 28.9167 70.8347 28.5604 70.7964C28.3591 70.7582 28.1732 70.7964 27.9873 71.0259C27.9409 71.0642 27.8789 71.0259 27.8325 70.9877C27.755 70.9112 27.6621 70.9112 27.5846 70.9877C27.5072 71.0259 27.4298 71.0642 27.3368 71.0259C27.2284 70.9494 27.12 70.9494 27.0116 71.0642C26.9032 71.1789 26.7947 71.2172 26.6863 71.2554L26.7018 71.2937C26.6553 70.9877 26.5469 70.9112 26.423 70.9494C26.3611 70.9494 26.3146 70.9877 26.2526 71.0259C25.9584 71.3702 25.6486 71.2554 25.3543 71.2172C25.3078 71.2172 25.2459 71.1407 25.1994 71.1024C25.06 70.9494 24.9361 70.9877 24.7967 71.1407C24.6728 71.2937 24.5179 71.2554 24.394 71.3319C24.3011 71.3702 24.2391 71.4849 24.1927 71.6379C24.0688 72.1734 23.8829 72.1352 23.6815 72.0587C23.6506 72.0587 23.6351 72.0204 23.6041 71.9822C23.5576 71.9439 23.4957 71.8674 23.4492 71.7909C23.3408 71.6762 23.2324 71.6762 23.124 71.6762C23.0155 71.7144 22.9071 71.7527 22.7987 71.8674C22.7213 71.9439 22.6438 71.9439 22.5509 71.8674C22.365 71.6762 22.1637 71.6762 21.9778 71.8674C21.8539 72.0204 21.7145 72.0587 21.5751 72.0587C21.3428 72.0587 21.1414 72.2117 20.9865 72.6707C20.9556 72.7854 20.8936 72.8619 20.8471 72.8619C20.5683 72.8619 20.2895 72.9002 20.0108 72.8237C19.9333 72.7854 19.8559 72.6707 19.7784 72.6324C19.701 72.5942 19.6081 72.6707 19.5306 72.6707C19.2363 72.3647 18.9266 72.4412 18.6168 72.4794C18.5394 72.4794 18.4464 72.5559 18.369 72.6324C18.2915 72.7089 18.2141 72.7089 18.1212 72.6324C18.0437 72.5559 17.9508 72.5559 17.8734 72.6324C17.7649 72.7472 17.6565 72.6707 17.5481 72.5942C17.3622 72.4412 17.1609 72.4412 16.975 72.6324C16.7892 72.8237 16.5878 72.9002 16.4019 72.7089C16.1851 72.5177 15.9683 72.4794 15.7514 72.4412C15.4726 72.4029 15.1938 72.4029 14.915 72.4029C14.6827 72.4412 14.4814 72.2881 14.28 71.9821C14.2181 71.9056 14.2026 71.7909 14.2336 71.6379C14.2645 71.5231 14.311 71.4466 14.3575 71.4084C14.4039 71.3701 14.4659 71.4084 14.5123 71.4849C14.6208 71.5996 14.7292 71.6379 14.8376 71.5231C14.977 71.3701 15.1009 71.3701 15.2403 71.5231C15.2868 71.5614 15.3487 71.5996 15.3952 71.5996C15.7359 71.6379 16.8046 71.5996 17.3158 71.4849C17.3313 71.4849 17.3467 71.4084 17.3777 71.4084C17.3622 71.3701 17.3467 71.2936 17.3158 71.2554C17.1764 71.1789 17.037 71.1406 16.9131 70.9494C16.8511 70.8346 16.7582 70.7964 16.6807 70.7581C16.5723 70.6816 16.4639 70.6816 16.3555 70.6051C16.2006 70.4904 16.0302 70.4138 15.8598 70.4138C15.5036 70.3756 15.1319 70.3373 14.7757 70.3373C14.5743 70.3373 14.3884 70.2608 14.2026 70.0696C14.0787 69.9166 13.9238 69.9548 13.7999 69.9166C13.7689 69.9166 13.7379 69.8401 13.7379 69.8018C13.7224 69.6871 13.7689 69.6106 13.8309 69.5723C13.8773 69.5341 13.9393 69.5341 13.9857 69.4576C14.0477 69.3811 14.0632 69.2663 14.0632 69.1516C14.0632 68.9985 14.0322 68.8838 13.9703 68.8455C13.8309 68.7308 13.6915 68.769 13.5521 68.7308C13.5056 68.7308 13.4437 68.6543 13.3972 68.5778C13.3507 68.5013 13.3043 68.3865 13.3352 68.2335C13.3507 68.0805 13.4127 68.004 13.4746 68.0423C13.583 68.1188 13.6915 68.2335 13.7999 68.2718C13.9703 68.31 14.1406 68.31 14.2955 68.31C14.342 68.31 14.4039 68.2718 14.4504 68.2335C14.4814 68.2335 14.5124 68.157 14.5124 68.1188C14.5124 68.0423 14.4969 67.9658 14.4659 67.9275C14.2645 67.6598 14.0632 67.4303 13.8309 67.4303C13.614 67.4302 13.3972 67.3537 13.1804 67.1625C12.9945 67.0095 12.7931 67.0095 12.6073 66.933C12.5763 66.933 12.5453 66.8565 12.5453 66.8182C12.5298 66.6652 12.5608 66.5505 12.6073 66.474C12.6538 66.3975 12.7002 66.321 12.7467 66.2827C12.8861 66.2062 13.0255 66.168 13.1649 66.321C13.3817 66.5122 13.5985 66.5505 13.8154 66.5505C14.342 66.5505 14.8686 66.5887 15.4107 66.5505C15.7979 66.5505 16.1851 66.5505 16.5878 66.5122C16.6498 66.5122 16.6962 66.3975 16.6653 66.321C16.6498 66.2827 16.6188 66.2062 16.6033 66.2062C16.4639 66.168 16.3245 66.168 16.1851 66.168C16.0767 66.168 15.9683 66.1297 15.8599 66.015C15.736 65.862 15.5966 65.8237 15.4572 65.8237C15.1474 65.7855 14.8376 65.7855 14.5433 65.7472C14.4349 65.7472 14.311 65.709 14.2181 65.5942C14.0322 65.3647 13.8464 65.2882 13.645 65.3264C13.4437 65.3647 13.2578 65.3264 13.0719 65.0969C13.0255 65.0204 12.9635 65.0204 12.9171 64.9822C12.8086 64.9439 12.7002 64.9439 12.5763 64.9439C12.4059 64.9439 12.251 64.8674 12.0807 64.7144C12.0032 64.6379 11.9258 64.5997 11.8329 64.5997C11.6625 64.5614 11.4921 64.5232 11.3372 64.5232C11.1978 64.5232 11.0584 64.4466 10.9345 64.3319C10.8261 64.2171 10.7177 64.2171 10.6093 64.2171C10.2221 64.1789 9.83484 64.1024 9.44763 64.0641C9.27726 64.0641 9.12238 63.9111 8.9675 63.7199C8.92103 63.6434 8.87457 63.5669 8.87457 63.4521C8.87457 63.4139 8.92103 63.3756 8.93652 63.3374C9.07591 63.2991 9.21531 63.2609 9.35471 63.2609C9.69546 63.2991 10.0207 63.3374 10.3615 63.2991C10.5009 63.2991 10.6403 63.3374 10.7796 63.3374C10.919 63.3374 11.0584 63.4139 11.1824 63.5286C11.2598 63.6051 11.3372 63.6434 11.4302 63.6434C11.6315 63.6816 11.8174 63.6816 12.0187 63.6816C12.1272 63.6816 12.1891 63.6051 12.282 63.2609C12.3285 63.1079 12.375 62.9166 12.4679 62.8401C12.4834 62.9549 12.5144 63.0696 12.5608 63.1461C12.5763 63.1844 12.6073 63.1844 12.6228 63.1844C12.6383 63.1844 12.6693 63.1461 12.6847 63.1079C12.7002 63.0314 12.6693 62.9549 12.6073 62.9166C12.5608 62.9166 12.5144 62.8784 12.4524 62.8784C12.4369 62.7254 12.4369 62.6106 12.4214 62.4576C12.406 62.3046 12.375 62.1898 12.313 62.1516C12.0962 61.9603 11.8793 61.9986 11.678 61.6543C11.5386 61.5778 11.3992 61.6543 11.2753 61.7691C11.1978 61.8456 11.1204 61.7691 11.0585 61.5396C11.012 61.3866 11.0275 61.2718 11.0739 61.1953C11.1204 61.1188 11.1824 61.0805 11.2288 61.0805C11.616 61.0806 12.0033 61.0806 12.3905 61.0806C12.4679 61.0806 12.4989 60.9658 12.4834 60.8893C12.4679 60.851 12.4369 60.8128 12.406 60.8128C12.2975 60.7745 12.1891 60.7745 12.0652 60.7745C11.8174 60.7363 11.5696 60.7363 11.3218 60.6598C11.2133 60.6215 11.1049 60.5068 11.0275 60.2773C11.012 60.239 10.9965 60.1625 10.981 60.086C10.981 60.0478 10.9965 59.9713 11.012 59.8948C11.0739 59.6653 11.1824 59.5123 11.2908 59.474C11.5696 59.4358 11.8484 59.3975 12.1272 59.4358C12.4369 59.4358 12.7467 59.4358 13.041 59.3975C13.1184 59.3975 13.1494 59.2828 13.1339 59.2063C13.1184 59.168 13.0875 59.0915 13.072 59.0915C12.9636 59.0532 12.8551 59.015 12.7467 58.9767C12.5144 58.6707 12.2666 58.6325 12.0188 58.5942C11.9413 58.5942 11.8484 58.5942 11.7709 58.5177C11.4302 58.1735 11.0585 58.25 10.7022 58.1352C10.6403 58.1352 10.5938 58.097 10.5473 58.0205C10.5009 57.9822 10.4544 57.9057 10.4079 57.7909C10.3615 57.6762 10.346 57.5614 10.377 57.4467C10.3925 57.4084 10.4234 57.3319 10.4389 57.3319C10.5164 57.2937 10.6093 57.2937 10.6867 57.2937C10.7487 57.2937 10.7952 57.2554 10.8416 57.1407C10.8726 57.0642 10.7952 56.7199 10.7332 56.6434C10.6868 56.6052 10.6248 56.5287 10.5783 56.4904C10.5009 56.4522 10.408 56.4522 10.3305 56.4139C10.2686 56.4139 10.2066 56.3374 10.2066 56.2227C10.1911 56.1079 10.2376 55.9549 10.2841 55.8784C10.3305 55.8019 10.377 55.7254 10.4235 55.6871C10.5009 55.6489 10.5938 55.6489 10.6713 55.6106C10.7797 55.6106 10.8881 55.4959 10.981 55.3046C11.043 55.1899 11.1049 55.0369 11.1824 54.9604C11.2289 54.8839 11.2908 54.8456 11.3373 54.8456C11.5386 54.8074 11.7245 54.8074 11.9258 54.8074C12.0343 54.8074 12.1427 54.7309 12.2511 54.5779C12.2976 54.5014 12.344 54.3866 12.344 54.2719C12.3595 54.1571 12.3131 54.0806 12.2511 54.0423C12.1891 54.0041 12.1427 54.0041 12.0807 54.0041C12.0033 53.9658 11.9104 53.9658 11.8329 53.9276C11.678 53.8511 11.5076 53.6981 11.3528 53.6216C11.2134 53.5451 11.074 53.5451 10.9346 53.4686C10.8726 53.4303 10.8416 53.3156 10.8571 53.1626C10.8726 53.0096 10.8571 52.8948 10.7952 52.8183C10.6868 52.7418 10.5783 52.6653 10.4699 52.5888C10.3615 52.474 10.2531 52.4358 10.1447 52.3975C9.94332 52.3593 9.75746 52.321 9.5561 52.2828C9.40122 52.2445 9.33927 52.168 9.37024 52.0915C9.40122 51.9768 9.44769 51.9385 9.50964 51.9003C9.66453 51.8238 9.66453 51.8238 9.66453 51.556C9.66453 51.25 9.6955 51.1352 9.77295 51.1352C10.1137 51.1352 10.439 51.097 10.7797 51.097C11.1359 51.097 11.5077 51.097 11.8639 51.0588C11.9413 51.0588 12.0188 50.9823 12.0962 50.8292C12.1427 50.7145 12.1737 50.5997 12.1582 50.485C12.1582 50.4467 12.1272 50.3702 12.0962 50.3702C12.0188 50.2937 11.9259 50.2937 11.8639 50.179C11.6935 49.9495 11.4922 49.873 11.3063 49.7965C11.2753 49.7965 11.2598 49.7582 11.2289 49.72C11.1979 49.6435 11.2289 49.5287 11.3063 49.5287C11.6626 49.4905 12.0343 49.4522 12.3905 49.3757C12.468 49.3757 12.4989 49.2992 12.468 49.1844C12.4525 49.1462 12.437 49.0697 12.4215 49.0314C12.2666 48.8402 12.1117 48.6872 11.9413 48.6872C11.6006 48.6489 11.2753 48.6107 10.9346 48.5724C10.8572 48.5724 10.7642 48.5724 10.6868 48.4959C10.5009 48.3047 10.3151 48.2282 10.1137 48.2282C9.97432 48.2282 9.83491 48.1134 9.71101 47.9604C9.52515 47.7691 9.3238 47.8074 9.13793 47.7309C9.07598 47.6926 9.02952 47.6544 9.02952 47.5396C9.02952 47.5014 9.06049 47.4249 9.07598 47.3866C9.24636 47.1571 9.41673 46.9659 9.63357 46.9659C10.1602 46.9659 10.6868 46.9276 11.2134 46.8894C11.2908 46.8894 11.3993 46.9276 11.4612 46.7746C11.5232 46.6216 11.4767 46.3921 11.4767 46.2009C11.4767 45.8183 11.4767 45.7801 11.3838 45.7418C11.3063 45.7036 11.2134 45.7036 11.136 45.7036C11.074 45.7036 11.0275 45.6653 10.9656 45.6653C10.9191 45.6271 10.8572 45.6271 10.8107 45.5506C10.6403 45.2446 10.439 45.2828 10.2531 45.2446C10.1757 45.2063 10.1447 45.1298 10.1757 44.9768C10.2067 44.6326 10.0827 44.5561 10.0053 44.3648C9.94335 44.2118 9.94335 43.944 10.0208 43.8293C10.0518 43.791 10.0673 43.7528 10.0982 43.7145C10.2376 43.6763 10.377 43.638 10.5164 43.5998C10.6868 43.5615 10.7642 43.332 10.7488 42.9113C10.7333 42.6818 10.6713 42.567 10.5939 42.6052C10.5474 42.6435 10.4855 42.6818 10.439 42.72C10.3151 42.7965 10.2222 42.6817 10.1292 42.4905C10.0828 42.414 10.0518 42.2992 10.0208 42.1845C9.97434 42.108 9.91239 42.0697 9.86592 42.108C9.66457 42.3375 9.44772 42.414 9.2154 42.3757C8.99856 42.3375 8.76624 42.3757 8.54939 42.3375C8.47195 42.3375 8.37902 42.2992 8.30158 42.2227C8.22414 42.1462 8.14669 42.1462 8.05377 42.1845C7.97632 42.2227 7.89888 42.261 7.80595 42.2992C7.744 42.3375 7.69753 42.261 7.65106 42.1462C7.58911 41.9932 7.6046 41.802 7.62009 41.5725C7.65107 41.3047 7.63558 41.1899 7.55813 41.0752C7.43423 40.9222 7.31033 40.7309 7.17093 40.7309C6.92311 40.6927 6.67529 40.6544 6.42747 40.6544C6.22613 40.6544 6.04026 40.6162 5.8544 40.4249C5.71501 40.3102 5.57562 40.3102 5.43622 40.3102C4.66179 40.2719 3.87187 40.2336 3.09745 40.1571C3.02001 40.1571 2.98903 40.0424 2.97355 39.7364C2.97355 39.5834 2.95806 39.4686 2.88062 39.4304C2.60183 39.3156 2.32303 39.4304 2.04423 39.3156C1.96679 39.2774 1.88935 39.1626 1.82739 39.0096C1.8119 38.9713 1.78093 38.8948 1.78093 38.8566C1.79642 38.7036 1.85838 38.6271 1.90484 38.6653C2.05972 38.8183 2.16814 38.7418 2.24558 38.3976C2.27657 38.2828 2.33852 38.2446 2.40048 38.2446C2.43145 38.2446 2.46243 38.2446 2.47792 38.2828C2.64829 38.5506 2.84965 38.5888 3.03551 38.5123C3.03551 38.5888 3.05099 38.6271 3.06648 38.7036C3.08196 38.7418 3.09746 38.7418 3.12843 38.7419C3.12843 38.6271 3.09746 38.5888 3.03551 38.5506C3.11295 38.1681 3.22137 37.8621 3.39174 37.7091C3.5931 37.4796 3.79444 37.2501 4.02677 37.2501C4.16617 37.2501 4.30557 37.1353 4.42948 37.0206C4.58437 36.8676 4.75473 36.9441 4.9251 36.8293C4.97157 36.791 5.01804 36.7145 5.06451 36.638C5.11097 36.5615 5.12646 36.4085 5.11097 36.2938C5.11097 36.2555 5.0645 36.2173 5.03353 36.2173C4.5379 36.1408 4.02678 36.1408 3.53114 36.1025C3.06649 36.0643 2.58635 36.1408 2.10621 36.1408C1.82741 36.1408 1.54862 36.1408 1.26983 36.026C1.23885 36.026 1.20787 35.9878 1.19238 35.9878C1.13043 35.9113 1.09945 35.8348 1.09946 35.6817C1.09946 35.5287 1.11494 35.414 1.19238 35.3757C1.26983 35.3375 1.34727 35.2992 1.4402 35.2992C1.9668 35.261 2.49342 35.2227 3.02003 35.1462C3.051 35.1462 3.09747 35.0697 3.09747 35.0697C3.09747 34.9932 3.051 34.9167 2.98905 34.9167C2.95807 34.9167 2.9271 34.9167 2.91161 34.9167C2.63281 34.9167 2.35403 34.8785 2.07524 34.9167C1.68802 34.955 1.30081 34.9167 0.913599 34.8785C0.851641 34.8785 0.805171 34.7255 0.820659 34.649C0.820659 34.6107 0.851642 34.5342 0.882617 34.5342C1.02201 34.496 1.16141 34.4577 1.30081 34.4195C1.54863 34.3812 1.78095 34.0752 2.04426 34.1135C2.2611 34.1517 2.49342 34.0752 2.71026 33.9987C2.75673 33.9987 2.81869 33.9222 2.86515 33.884C2.89612 33.8457 2.91162 33.8075 2.92711 33.7692C2.97357 33.6544 2.98907 33.5397 2.95808 33.4249C2.9426 33.3867 2.91162 33.3484 2.88065 33.3102C2.57088 33.2719 2.27659 33.2337 1.96682 33.2337C1.68803 33.2337 1.40923 33.1954 1.13043 33.1954C0.960062 33.1954 0.789697 33.1572 0.634813 33.1572C0.495416 33.1572 0.3715 32.9659 0.232104 33.0042C0.108194 33.0424 0.0617398 32.8894 0.0927161 32.6599C0.13918 32.3921 0.170157 32.1626 0.139183 31.8566C0.139183 31.8184 0.154671 31.7036 0.170166 31.7036C0.340539 31.4359 0.510912 31.2446 0.71226 31.2064C0.820681 31.2064 0.929095 31.1681 1.03752 31.0916C1.11496 31.0534 1.1924 30.9386 1.20789 30.7091C1.23887 30.3648 1.28534 30.0588 1.42474 29.8676C1.48669 29.7911 1.50218 29.6381 1.45571 29.5233C1.33181 29.1408 1.22339 28.7583 1.19241 28.261C1.17693 28.0315 1.11498 27.9168 1.02205 27.8785C0.882654 27.8403 0.74325 27.802 0.603853 27.7638C0.541903 27.7638 0.495432 27.6873 0.495433 27.6108C0.495433 27.5725 0.526408 27.496 0.541896 27.4578C0.619343 27.3812 0.696781 27.2665 0.743253 27.1135C0.820692 26.884 0.836188 26.6545 0.71228 26.425C0.65033 26.3102 0.572877 26.1955 0.510927 26.0807C0.495439 26.0425 0.49544 25.966 0.510927 25.9277C0.634837 25.7747 0.789729 25.813 0.913638 25.6982C1.02205 25.6217 1.11499 25.4687 1.22341 25.4304C1.40927 25.3539 1.61062 25.3539 1.81197 25.3539C1.87392 25.3539 1.92038 25.2774 1.93587 25.2009C1.93587 25.1627 1.9049 25.0862 1.88941 25.0479C1.57964 24.6272 1.57964 24.6272 1.26988 24.5507C1.16145 24.5124 1.05304 24.5124 0.944619 24.4742C0.836198 24.4359 0.758753 24.2064 0.758754 23.9004C0.758755 23.7474 0.836194 23.4414 0.898153 23.4031C0.960104 23.3649 1.00657 23.3266 1.05304 23.3266C1.33183 23.3266 1.59514 23.0589 1.85844 22.8676C1.9204 22.8294 1.96687 22.7529 1.95138 22.6381C1.95138 22.5999 1.90491 22.5234 1.88942 22.5234C1.781 22.4469 1.67259 22.4086 1.56417 22.3704C1.54868 22.3704 1.53318 22.2939 1.5177 22.2556C1.67258 22.0643 1.84296 22.1408 2.01333 22.1026C2.09077 22.0643 2.18371 22.0261 2.26115 21.9878C2.32311 21.9496 2.35408 21.8348 2.36957 21.7201C2.38505 21.5671 2.35408 21.4523 2.29213 21.4141C2.24566 21.3758 2.18371 21.2993 2.13724 21.2611C1.90492 21.0316 1.65711 20.9168 1.40929 20.9168C1.13049 20.9168 0.8517 20.9551 0.572908 20.8021C0.541932 20.8021 0.526437 20.7256 0.51095 20.6873C0.526438 20.6491 0.541933 20.6108 0.557421 20.5725C0.572909 20.5343 0.603892 20.496 0.634867 20.496C0.975611 20.496 1.28537 20.2283 1.59515 19.9223C1.61064 19.884 1.64162 19.8458 1.64162 19.8075C1.64162 19.6545 1.61065 19.5398 1.56418 19.4633C1.45576 19.3103 1.34734 19.3103 1.23891 19.3868C1.17696 19.425 1.1305 19.3868 1.09953 19.272C1.05306 19.0808 1.05306 18.813 1.09953 18.6982C1.14599 18.6217 1.17697 18.507 1.22344 18.4687C1.33186 18.3922 1.44027 18.354 1.5487 18.354C1.82749 18.354 2.0908 18.0862 2.3541 17.9332C2.41605 17.895 2.44703 17.7802 2.43154 17.7037C2.41605 17.6655 2.38508 17.6272 2.3541 17.589C2.18372 17.5507 2.01335 17.5125 1.85847 17.5125C1.75005 17.5125 1.64163 17.436 1.53321 17.3212C1.42479 17.2064 1.31637 17.1682 1.20795 17.1682C1.03758 17.1299 0.8827 17.1299 0.712321 17.0534C0.634882 17.0152 0.619395 16.9387 0.634883 16.7857C0.650371 16.7092 0.650372 16.6327 0.681347 16.6327C0.72781 16.5562 0.774274 16.4797 0.820737 16.4414C0.8672 16.4032 0.929166 16.3649 0.991117 16.3649C1.23894 16.3267 1.48675 16.2884 1.73456 16.2502C1.90494 16.2119 2.07532 16.2502 2.2302 16.1737C2.41606 16.0589 2.60192 15.9059 2.78778 15.7529C2.84974 15.7147 2.89621 15.6382 2.92719 15.5234C3.03561 15.1026 3.25244 15.0261 3.40733 14.7201C3.45379 14.6436 3.48478 14.5289 3.46929 14.3759C3.46929 14.3376 3.43831 14.2994 3.40733 14.2611C3.36086 14.2229 3.29891 14.1846 3.25245 14.1846C3.14403 14.1464 3.03561 14.1464 2.92719 14.1464C2.89622 14.1464 2.86523 14.1081 2.86523 14.0316C2.84975 13.9551 2.88073 13.8404 2.95817 13.8404C3.15952 13.8021 3.34538 13.8021 3.54673 13.7639C3.7171 13.7256 3.87199 13.6491 4.02687 13.4579C4.07334 13.3814 4.13529 13.3431 4.18176 13.2666C4.41409 12.9606 4.66191 12.8841 4.90973 13.1136C4.97168 13.1518 5.01814 13.1901 5.06461 13.1136C5.18852 12.9988 5.32791 12.9223 5.46731 12.8841C5.62219 12.8458 5.68415 12.7693 5.63769 12.6546C5.59122 12.5781 5.54475 12.5016 5.4828 12.5016C5.42084 12.5016 5.37438 12.4251 5.3434 12.3103C5.3434 12.2721 5.37437 12.1956 5.38986 12.1956C5.63768 12.0808 5.85452 11.7366 6.08685 11.5835C6.10234 11.5835 6.11784 11.5071 6.13333 11.4688C6.10235 11.4305 6.08686 11.3923 6.05588 11.354C5.88551 11.2775 5.71514 11.2775 5.56025 11.3923C5.04913 11.6983 5.04913 11.7366 4.75484 11.7366C4.61545 11.7366 4.47605 11.813 4.35214 11.9661C4.2747 12.0426 4.19725 12.0808 4.10433 12.0808C4.07334 12.0808 4.04237 12.0808 4.02688 12.0426C3.98042 11.9661 3.9959 11.8896 4.05786 11.7748C4.16628 11.5453 4.16628 11.507 4.07335 11.354C4.02688 11.2775 3.96493 11.201 3.96493 11.0863C3.96493 10.9715 4.0114 10.8568 4.05787 10.7803C4.10433 10.7038 4.1508 10.6273 4.19727 10.589C4.30569 10.5508 4.4141 10.5125 4.52252 10.4743C4.66192 10.436 4.80131 10.3978 4.92522 10.2448C4.97169 10.2065 5.03364 10.13 5.0801 10.13C5.31243 10.0918 5.51379 9.93876 5.71514 9.70925C5.79258 9.63274 5.88551 9.63275 5.96296 9.63275C6.02491 9.63275 6.07138 9.59449 6.11784 9.47974C6.17979 9.32674 6.22626 9.13548 6.28822 9.05898C6.35017 8.98248 6.45859 9.09724 6.53603 8.98248C6.70641 8.79122 6.89227 8.56172 7.06265 8.37046C7.07813 8.33221 7.10911 8.25571 7.10911 8.21746C7.10911 8.10271 7.06265 8.0262 7.00069 8.0262C6.89228 8.0262 6.76837 8.0262 6.67544 8.1027C6.4586 8.29396 6.24175 8.40871 6.02492 8.37046C5.74613 8.29395 5.46733 8.52346 5.20403 8.3322C5.18854 8.3322 5.17304 8.2557 5.15756 8.21745C5.17304 8.1792 5.18854 8.10269 5.21952 8.06444C5.29695 8.0262 5.38988 7.98794 5.46733 7.94969C5.57575 7.91144 5.68417 7.83494 5.7771 7.64369C5.82357 7.56718 5.85455 7.45243 5.90101 7.37593C5.97846 7.26118 6.04041 7.18467 6.13335 7.18467C6.27274 7.14642 6.41213 7.14642 6.55153 7.10817C6.64445 7.06992 6.69093 6.95516 6.72191 6.72566C6.78386 6.72566 6.83032 6.72566 6.89227 6.72567C6.92326 6.72567 6.93874 6.68741 6.96972 6.64916C6.98521 6.61091 6.98521 6.5344 6.98521 6.5344C6.95423 6.41965 6.89228 6.41965 6.84581 6.4579C6.79935 6.5344 6.76837 6.61091 6.75288 6.76392C6.67544 6.72566 6.58251 6.72566 6.52055 6.6109C6.50507 6.57266 6.47408 6.49616 6.47408 6.4579C6.4586 6.3049 6.48958 6.19015 6.53604 6.11365C6.56702 6.0754 6.58251 6.03714 6.61349 5.99889C6.76838 5.88413 6.93875 5.92239 7.09363 5.73114C7.24852 5.57813 7.4034 5.46338 7.57378 5.34863C7.63573 5.31038 7.6822 5.27212 7.72867 5.31038C7.91453 5.42513 8.05392 5.19562 8.19332 5.00436C8.28626 4.88961 8.3637 4.62186 8.44113 4.46885C8.50309 4.3541 8.59603 4.2776 8.65798 4.16284C8.68896 4.08634 8.65798 3.93334 8.67347 3.78033C8.70444 3.47432 8.82835 3.47432 8.92129 3.35957C8.96775 3.28307 9.02971 3.28307 9.07617 3.43608C9.13812 3.58908 9.1691 3.78033 9.27753 3.66558C9.35496 3.58908 9.43241 3.51258 9.50985 3.43608C9.68023 3.20657 9.86608 3.09182 10.0674 3.01531C10.1913 2.78581 10.3462 3.01531 10.4701 2.90056C10.5941 2.74756 10.7334 2.74756 10.8728 2.74756C11.0122 2.74756 11.1516 2.74756 11.291 2.74757C11.4924 2.78582 11.6782 2.67107 11.8641 2.47981C12.0035 2.32681 12.1274 2.32681 12.2668 2.47982C12.3907 2.63282 12.5456 2.63282 12.6695 2.74757C12.7934 2.86233 12.9173 3.05358 13.0567 3.13008C13.1806 3.20659 13.2426 3.39784 13.3045 3.6656C13.351 3.85686 13.3975 4.00986 13.4749 4.12461C13.4904 4.16287 13.5214 4.20112 13.5523 4.20112C13.7227 4.16287 13.8621 3.97161 14.0325 3.97161C14.1874 3.93336 14.2648 3.70385 14.2958 3.32135C14.3268 2.97709 14.3732 2.93883 14.4507 3.13009C14.4972 3.24484 14.5126 3.35959 14.5746 3.32135C14.5901 3.32135 14.6056 3.20659 14.6211 3.16834C14.652 2.93883 14.714 2.78583 14.8069 2.78583C15.0238 2.74757 15.2406 2.67107 15.4574 2.44158C15.4884 2.40332 15.5194 2.40332 15.5349 2.44158C15.6433 2.51808 15.7362 2.70933 15.8601 2.67108C15.9686 2.63283 16.046 2.40332 16.1389 2.25032C16.2009 2.13556 16.3093 2.17382 16.3713 2.32682C16.4642 2.55633 16.5726 2.78584 16.6191 3.1301C16.6191 3.16835 16.6191 3.2831 16.6036 3.32136C16.5881 3.3596 16.5571 3.47436 16.5416 3.43611C16.3867 3.32136 16.2164 3.2831 16.046 3.2831C15.9531 3.2831 15.8756 3.39785 15.8446 3.58911C15.7827 3.89511 15.7053 4.16288 15.5968 4.43063C15.4729 4.69839 15.3335 4.9279 15.1477 4.92789C14.9773 4.92789 14.8069 4.96615 14.652 4.96615C14.5126 4.96615 14.3732 5.04265 14.2493 5.1574C14.0944 5.31041 13.9241 5.27215 13.7537 5.19564C13.6143 5.11914 13.4904 4.96614 13.351 4.92789C13.2426 4.88963 13.1342 4.88964 13.0257 5.04264C12.8554 5.27215 12.654 5.34865 12.4681 5.3869C12.4372 5.3869 12.4062 5.3869 12.3907 5.3869C12.1119 5.31039 11.8331 5.4634 11.5853 5.7694C11.5543 5.80766 11.5388 5.80766 11.5079 5.80766C11.4304 5.84591 11.3994 5.96066 11.4614 6.07542C11.6008 6.30492 11.7402 6.45792 11.926 6.26667C12.019 6.15192 12.1429 6.15192 12.2513 6.07542C12.4372 5.88416 12.623 5.76941 12.8244 5.76941C13.9396 5.80767 15.0547 5.69292 16.1699 5.69292C16.2473 5.69292 16.3403 5.69292 16.4177 5.65467C16.5571 5.57817 16.681 5.42516 16.8204 5.38692C16.9288 5.38692 17.0373 5.38692 17.1612 5.34867C17.2231 5.34867 17.2696 5.23391 17.2541 5.11916C17.2386 4.96616 17.1767 4.9279 17.1147 4.96616C17.0373 4.96616 16.9443 4.96616 16.8669 4.9279C16.7585 4.88965 16.6965 4.54539 16.7585 4.27763C16.7894 4.16288 16.8049 4.00987 16.8359 3.93337C16.9598 3.66561 16.9598 3.39786 16.8979 3.01534C16.8514 2.74759 16.9443 2.47983 17.0682 2.44158C17.1767 2.40333 17.2851 2.40333 17.409 2.40333C17.5174 2.40333 17.6258 2.32682 17.7343 2.21207C17.8736 2.09732 18.013 2.05907 18.137 2.21207C18.3073 2.40333 18.4622 2.32683 18.6171 2.17383C18.6945 2.09733 18.7875 2.17383 18.8494 2.28858C18.8959 2.36509 18.9424 2.44159 18.9733 2.55634C19.0818 2.78585 19.2057 2.90061 19.3451 2.6711C19.438 2.51809 19.5464 2.51809 19.6548 2.63285C19.8562 2.9006 20.0885 2.9006 20.3053 2.70935C20.3518 2.6711 20.4138 2.5946 20.4602 2.55635C20.6771 2.40334 20.8939 2.36509 21.1107 2.5946C21.2656 2.7476 21.4205 2.86236 21.5909 2.86236C21.7613 2.86236 21.9316 2.86236 22.0865 2.86237C22.1794 2.86237 22.2569 2.78586 22.3188 2.70936C22.4273 2.55635 22.5202 2.51811 22.6286 2.63286C22.7061 2.70936 22.7835 2.70936 22.8764 2.67112C22.9384 2.63286 22.9849 2.67112 23.0313 2.74762C23.1552 2.90062 23.2946 2.93887 23.434 2.78586C23.5115 2.70936 23.5889 2.63286 23.6818 2.70936C23.7748 2.74762 23.8522 2.67111 23.9297 2.59461C24.0071 2.51811 24.0845 2.51811 24.1775 2.55637C24.3324 2.67112 24.4872 2.90062 24.6576 2.90062C24.797 2.90062 24.9364 3.01539 25.0603 3.13013C25.1068 3.16839 25.1687 3.09189 25.2152 3.01538C25.3391 2.74763 25.494 2.55637 25.6489 2.40337C25.7263 2.32686 25.8038 2.28861 25.8812 2.40337C25.9896 2.51812 26.098 2.51812 26.191 2.36511C26.4233 1.98261 26.6711 2.02086 26.9189 2.25036C27.0893 2.40337 27.2907 2.51813 27.3991 3.01539C27.4146 3.05364 27.4455 3.13014 27.461 3.13014C27.492 3.13014 27.523 3.13014 27.5385 3.0919C27.6934 2.78588 27.8328 2.44162 28.0496 2.51813C28.0341 2.63288 28.0031 2.74764 27.9876 2.86239C27.9412 3.13015 27.9567 3.24491 28.0496 3.24491C28.0961 3.24491 28.158 3.2449 28.2045 3.20665C28.2664 3.1684 28.2974 3.09189 28.3129 2.97714C28.3284 2.82414 28.2974 2.70938 28.2509 2.63288C28.1735 2.51813 28.0961 2.51813 28.0186 2.51813C28.0651 2.32687 28.127 2.21212 28.2045 2.17387C28.3439 2.13562 28.4833 2.09737 28.6227 2.05912C28.7156 2.05912 28.7776 1.98262 28.855 1.86786C29.0873 1.56186 29.3351 1.60011 29.583 1.79137C29.6604 1.82961 29.7378 1.94437 29.8153 1.98262C29.8772 2.02088 29.9237 2.02087 29.9857 1.94437C30.1405 1.79136 30.3109 1.98262 30.4658 1.79137C30.6207 1.60011 30.7911 1.67662 30.9614 1.67662C31.2402 1.71487 31.519 1.56187 31.7978 1.67662C32.0456 1.75312 32.2935 1.67663 32.5568 1.67663C32.6342 1.67663 32.7271 1.63837 32.8046 1.56187C32.913 1.44711 33.0214 1.48537 33.1298 1.56187C33.1763 1.60012 33.2383 1.60012 33.2847 1.56187C33.3931 1.44712 33.5016 1.44712 33.61 1.48537C33.6564 1.52362 33.7184 1.44712 33.7649 1.40887C33.8733 1.29412 33.9817 1.33237 34.0746 1.52363C34.1211 1.60013 34.1521 1.71488 34.1985 1.79139C34.276 1.94439 34.3224 1.94439 34.4154 1.79139C34.5238 1.56188 34.6322 1.37062 34.7871 1.56188C34.8645 1.63838 34.9575 1.60014 35.0349 1.52363C35.0969 1.44713 35.1433 1.44713 35.1898 1.48538C35.3292 1.60013 35.4686 1.56189 35.5925 1.40888C35.639 1.33238 35.7009 1.33237 35.7474 1.37063C35.7784 1.40888 35.8093 1.40888 35.8248 1.44713C36.0572 1.79139 36.305 1.79139 36.5528 1.48538C36.6612 1.37063 36.7696 1.40888 36.878 1.48538C36.9865 1.56189 37.0949 1.63839 37.2033 1.71489C37.2653 1.75315 37.2962 1.8679 37.2653 1.9444C37.2498 1.98265 37.2188 2.0209 37.1878 2.0209C36.94 2.0209 36.6922 2.05915 36.4289 2.05915C36.1966 2.05915 35.9797 2.05915 35.7784 2.36516C35.5305 2.47991 35.2827 2.59466 35.0349 2.36515C34.973 2.32691 34.9265 2.28865 34.88 2.3269C34.8026 2.36515 34.7097 2.44166 34.6322 2.44166C34.3844 2.4799 34.1366 2.47991 33.8733 2.47991C33.6719 2.47991 33.4861 2.44165 33.3002 2.28865C33.2228 2.21214 33.1453 2.17389 33.0524 2.17389C32.851 2.13564 32.6652 2.13564 32.4638 2.09739C32.2625 2.05913 32.0766 2.17389 31.9062 2.40339C31.8288 2.47989 31.7514 2.51815 31.6584 2.5564C31.2712 2.5564 30.884 2.59464 30.4968 2.55639C29.9082 2.47988 29.3351 2.59464 28.7466 2.55639C28.7001 2.55639 28.6382 2.63289 28.5917 2.70939C28.5762 2.70939 28.5917 2.82414 28.6072 2.90064C28.6227 3.01539 28.6536 3.13015 28.6691 3.28315C28.7001 3.51266 28.7776 3.62742 28.855 3.66566C28.9944 3.70392 29.1338 3.70392 29.2732 3.70392C29.3196 3.70392 29.3816 3.66567 29.4281 3.62742C29.6294 3.32141 29.8308 3.24491 30.0631 3.28316C30.3729 3.32141 30.6826 3.32141 30.9769 3.35966C31.0544 3.35967 31.1473 3.35967 31.2247 3.43617C31.488 3.74218 31.7823 3.62743 32.0301 3.93344C32.0766 3.97168 32.1386 3.97169 32.185 3.89519C32.2315 3.85694 32.2934 3.78043 32.3399 3.78043C32.6961 3.70393 33.0679 3.74218 33.4241 3.93344C33.5325 3.97169 33.6409 4.08645 33.7494 4.08645C34.1056 4.1247 34.4773 4.1247 34.8336 4.16296C35.0349 4.16296 35.2208 4.08646 35.4066 3.89521C35.5151 3.78045 35.6235 3.85695 35.7164 4.04821C35.7629 4.12471 35.7938 4.23946 35.8403 4.31596C35.8868 4.39247 35.9487 4.39247 35.9952 4.35422C36.1036 4.23946 36.1965 4.16296 36.3205 4.16296C36.4289 4.16296 36.5373 4.16296 36.6612 4.12471C36.7696 4.12471 36.878 4.16297 36.9865 4.31597C37.1259 4.50723 37.2498 4.50723 37.3892 4.35422C37.4356 4.31598 37.4976 4.31598 37.544 4.39248C37.6525 4.50723 37.7609 4.50723 37.8693 4.35422C37.9777 4.23947 38.0707 4.23947 38.1946 4.31597C38.3959 4.50723 38.3959 4.46898 38.4424 3.97172C38.4579 3.85697 38.4888 3.7422 38.5508 3.7422C38.7676 3.74221 39 3.74221 39.2168 3.93347C39.2942 4.00997 39.3872 4.04822 39.4646 3.97172C39.6195 3.81872 39.7899 3.78046 39.9603 3.78046C40.5178 3.74222 41.0754 3.70397 41.633 3.78047C41.8499 3.81873 42.0822 3.81873 42.299 3.62747C42.5159 3.43622 42.7327 3.39797 42.9495 3.39797C43.1974 3.35972 43.4452 3.39797 43.7085 3.35972C43.8169 3.35972 43.9253 3.32147 44.0337 3.20672C44.1576 3.05371 44.2351 3.16847 44.328 3.39798C44.3435 3.43623 44.3745 3.51273 44.39 3.55098C44.4829 3.74223 44.5913 3.78048 44.6997 3.74223C44.7307 3.74223 44.7617 3.74224 44.7772 3.70399C45.0095 3.43623 45.2573 3.39798 45.5206 3.39798C46.0008 3.35973 46.4654 3.35973 46.9456 3.35973C47.0075 3.35973 47.054 3.32148 47.1005 3.28323C47.1159 3.28323 47.1314 3.16848 47.1314 3.16848C47.0075 2.93897 46.5738 2.59471 46.4345 2.59471C46.326 2.59471 46.2176 2.59471 46.0937 2.63296C45.9233 2.67121 45.7684 2.59471 45.6136 2.40345C45.3967 2.17394 45.1799 2.09744 44.963 2.2887C44.8856 2.3652 44.8082 2.36519 44.7307 2.25044C44.6533 2.17394 44.5603 2.17394 44.4984 2.28869C44.328 2.55645 44.1422 2.5947 43.9408 2.5947C43.7704 2.55644 43.6001 2.55644 43.4452 2.40344C43.1974 2.13568 42.965 2.17393 42.7172 2.44169C42.5159 2.67119 42.3455 2.59469 42.1751 2.21218C42.1596 2.17393 42.1287 2.09743 42.1132 2.05918C42.0512 1.94442 41.9893 1.82967 41.8963 1.94442C41.7569 2.17393 41.5711 2.13568 41.4162 2.28868C41.3852 2.32693 41.3697 2.32693 41.3387 2.32693C41.3078 2.32693 41.2768 2.32693 41.2613 2.28868C41.0599 2.13568 40.8741 2.17392 40.6882 2.36518C40.5798 2.47993 40.4714 2.40343 40.4094 2.09742C40.363 1.90617 40.2855 1.86791 40.1926 1.90617C40.1306 1.94441 40.0842 1.86791 40.0377 1.79141C40.0222 1.75316 39.9912 1.67665 39.9912 1.63841C39.9603 1.44714 39.9912 1.37065 40.0687 1.3324C40.2855 1.29415 40.5178 1.17939 40.7347 1.21765C41.0909 1.2559 41.4626 1.14114 41.8189 1.29415C41.9273 1.33241 42.0357 1.29415 42.1441 1.2559C42.2835 1.21765 42.4229 1.2559 42.5468 1.37066C42.6243 1.44716 42.7017 1.44716 42.7947 1.37066C42.9031 1.2559 43.0115 1.21766 43.1199 1.21766C43.5381 1.17941 43.9563 1.21766 44.3745 1.33242C44.4519 1.37067 44.5449 1.40892 44.6223 1.48542C44.6843 1.52367 44.7307 1.48542 44.7772 1.44716C44.9321 1.29417 45.1024 1.29417 45.2728 1.29417C45.4897 1.29417 45.722 1.29417 45.9388 1.33242C46.0472 1.33242 46.1557 1.37067 46.2641 1.48542C46.388 1.60018 46.5274 1.63843 46.6668 1.67669C46.7752 1.71493 46.8991 1.71493 46.992 1.56193C47.1779 1.33242 47.3638 1.25592 47.5651 1.29418C47.7355 1.29418 47.9059 1.29418 48.0608 1.29418C48.1692 1.29418 48.2776 1.33243 48.386 1.44718C48.4944 1.56193 48.6028 1.63844 48.7113 1.63844C49.0675 1.67669 49.4392 1.7532 49.7955 1.63845C49.9813 1.60019 50.1827 1.6002 50.384 1.6002C50.5234 1.6002 50.6628 1.6767 50.8022 1.75321C50.9416 1.82971 51.0345 2.13571 51.143 2.32697C51.2204 2.44172 51.3133 2.44172 51.3753 2.32697C51.3908 2.28872 51.4218 2.25047 51.4372 2.17397C51.5302 1.75321 51.6851 1.67671 51.8709 1.67671C52.0413 1.67671 52.1962 1.71496 52.3666 1.86797C52.5214 2.05922 52.6918 2.09747 52.8622 2.02097C53.0016 1.98271 53.141 1.90622 53.2804 1.86797C53.3578 1.82972 53.4507 1.82972 53.5282 1.86797C53.8844 2.02097 54.2407 2.02097 54.6124 2.05923C54.8912 2.05923 55.17 2.05923 55.4488 2.05923C55.7276 2.05923 56.0064 2.05924 56.2697 2.32699C56.3471 2.4035 56.44 2.327 56.5175 2.25049C56.6259 2.13574 56.7343 2.17399 56.8427 2.28875C56.9511 2.4035 57.0596 2.48001 57.168 2.48001C57.5862 2.48001 58.0044 2.59476 58.4226 2.48001C58.6704 2.40351 58.9182 2.48001 59.166 2.55652C59.2125 2.55652 59.2744 2.63302 59.3209 2.70952C59.3983 2.82427 59.4603 2.97727 59.4758 3.16853C59.5067 3.51279 59.5067 3.85706 59.5377 4.16306C59.5532 4.27782 59.5997 4.39257 59.6461 4.46907C59.7546 4.58383 59.863 4.58383 59.9714 4.62208C60.0488 4.66033 60.1263 4.73683 60.2037 4.85159C60.2657 4.96634 60.3431 5.11934 60.4051 5.19584C60.4825 5.3106 60.5754 5.31061 60.6374 5.1576C60.7303 5.0046 60.8078 4.81334 60.8852 4.62208C60.9317 4.50733 60.9162 4.35432 60.8852 4.27782C60.8697 4.23957 60.8388 4.16307 60.8078 4.16307C60.6684 4.16307 60.529 4.16307 60.3896 4.12481C60.2812 4.12481 60.1728 3.97181 60.0953 3.78055C60.0334 3.62755 59.9714 3.47454 59.9249 3.32154C59.9094 3.28329 59.9095 3.20679 59.9095 3.13028C59.9095 3.09204 59.9404 3.01553 59.9559 3.01553C60.4825 2.82428 61.0401 2.82428 61.4583 2.93903C61.5048 2.93903 61.5667 3.01554 61.6132 3.05379C61.6442 3.09204 61.6597 3.09204 61.6906 3.13029C61.799 3.2833 61.9075 3.24504 62.0004 3.09204C62.1243 2.90078 62.2637 2.90079 62.4031 2.93904C62.4341 2.93904 62.4651 2.97729 62.4805 2.97729C62.6199 3.01554 62.7438 3.24506 62.8832 3.24506C63.162 3.24506 63.4408 3.3598 63.7196 3.32156C64.4166 3.24505 65.1136 3.28331 65.8106 3.35981C66.0274 3.35982 66.2597 3.43632 66.4611 3.62758C66.5695 3.74233 66.6779 3.74233 66.7863 3.74233C66.8793 3.74233 66.9567 3.81883 67.0187 3.93359C67.1271 4.08659 67.22 4.12484 67.3439 4.12484C67.3749 4.12484 67.4059 4.12484 67.4214 4.12484C67.7621 4.08659 68.0874 4.1631 68.4126 4.39261C68.6295 4.54562 68.8463 4.58386 69.0632 4.77513C69.1716 4.88988 69.28 4.81337 69.3884 4.69862C69.5278 4.54561 69.6672 4.54561 69.7911 4.69862C70.0079 4.96638 70.2248 5.00463 70.4416 4.81338C70.55 4.73688 70.6585 4.73688 70.7669 4.85163C70.8753 4.96639 70.9837 5.00464 71.0921 5.00464C71.1696 5.00464 71.2625 4.96639 71.34 4.96639C71.4794 4.96639 71.6188 5.08114 71.7272 5.2724C71.7736 5.3489 71.8201 5.42541 71.8666 5.50191C71.913 5.57841 71.975 5.61666 72.0215 5.54016C72.1299 5.42541 72.2228 5.31066 72.3467 5.31066C72.6565 5.31066 72.9663 5.31066 73.2605 5.31066C73.4309 5.31066 73.5858 5.42541 73.7407 5.57842C73.973 5.80792 74.2208 5.84618 74.4841 5.69317C74.5616 5.65492 74.639 5.57842 74.7319 5.54017C74.7939 5.50192 74.8404 5.50192 74.9023 5.54017C75.0417 5.61667 75.1811 5.65492 75.3205 5.65492C75.7697 5.65492 76.2188 5.65493 76.6525 5.65493C76.8848 5.65493 77.1017 5.61668 77.3185 5.46368C77.4579 5.34892 77.5973 5.31068 77.7367 5.42543C78.1394 5.73144 78.5576 5.73144 78.9758 5.73145C79.1152 5.73145 79.2391 5.9227 79.332 6.19046C79.3785 6.34346 79.4095 6.61122 79.363 6.76423C79.3165 6.91723 79.2701 7.10849 79.2236 7.26149C79.1462 7.52925 79.1462 7.68225 79.2391 7.72051C79.4869 7.83526 79.7192 8.06477 79.9516 8.29428C80.029 8.37078 80.06 8.60029 80.0755 8.79154C80.091 8.94455 80.0135 9.25055 79.9516 9.2888C79.8741 9.3653 79.7967 9.44181 79.7192 9.51831C79.6418 9.59481 79.6108 9.86257 79.6573 10.0156C79.6882 10.1303 79.7347 10.2068 79.7812 10.2833C79.9051 10.5511 79.9051 10.8954 79.8741 11.2396C79.8741 11.3161 79.8586 11.3544 79.8431 11.4309C79.7967 11.6986 79.7812 11.9664 79.7812 12.2341C79.7812 12.4636 79.8121 12.6549 79.8741 12.8079C80.029 13.1904 80.1993 13.5729 80.3542 13.9554C80.4162 14.1085 80.4627 14.338 80.4162 14.5292C80.2923 15.0647 80.2768 15.715 80.1374 16.2505C80.0909 16.4418 80.1219 16.6713 80.1838 16.8243C80.2923 17.1303 80.4162 17.398 80.5246 17.7423C80.5865 17.9718 80.5556 18.3161 80.4781 18.4691C80.3077 18.7368 80.1219 18.8133 79.936 18.9663C79.905 18.9663 79.8741 19.0428 79.8741 19.0811C79.8741 19.1193 79.8896 19.1958 79.905 19.2341C80.029 19.4254 80.1064 19.6931 80.1529 20.0374C80.1993 20.3434 80.1993 20.3051 80.1219 20.5729C80.0289 20.8789 80.0289 20.9171 80.0599 21.1084C80.1374 21.4909 80.2303 21.7969 80.3387 22.1412C80.4316 22.4089 80.4162 22.5237 80.3232 22.868C80.2768 23.021 80.1993 23.174 80.2303 23.4035C80.2613 23.7095 80.2148 23.9007 80.1374 24.1302C80.0134 24.4363 80.0289 24.4745 80.1683 24.7423C80.2303 24.857 80.3077 24.9718 80.3697 25.1248C80.4936 25.469 80.5246 25.8516 80.4471 26.2723C80.4161 26.4636 80.3697 26.6166 80.4006 26.8461C80.4471 27.0756 80.3852 27.2286 80.3387 27.3816C80.2612 27.6111 80.1528 27.6876 80.0599 27.8406C79.9979 27.9554 79.9515 28.1849 79.9824 28.3761C79.9979 28.4909 80.0134 28.6439 80.0289 28.7586C80.0599 28.9499 80.0599 29.1411 80.0134 29.3324C79.936 29.6384 79.9515 29.9827 79.9824 30.3269C79.9979 30.5182 80.0289 30.7094 80.1063 30.8624C80.1528 30.939 80.1993 31.0537 80.1993 31.1685C80.1838 31.2832 80.1218 31.3597 80.0754 31.4362C79.9515 31.7422 79.9824 32.0482 80.1528 32.163C80.1838 32.2012 80.1993 32.2012 80.2302 32.2012C80.4006 32.2777 80.54 32.469 80.6794 32.6985C80.6484 32.775 80.6794 32.8898 80.6949 32.9663C80.6794 33.0045 80.6484 32.9663 80.6175 33.0045C80.4471 33.0045 80.2922 32.9663 80.1373 32.6985C80.1218 32.6602 80.0908 32.6602 80.0599 32.6602C79.9979 32.6602 79.9515 32.6985 79.9515 32.8515C79.9515 32.8898 79.9669 33.0045 79.9824 33.0428C80.0754 33.3105 80.2148 33.387 80.3387 33.5783C80.4161 33.693 80.4781 33.6548 80.5555 33.5018C80.6329 33.3105 80.6949 33.1958 80.6949 32.9663ZM62.2947 7.75868C62.3256 7.75868 62.3566 7.75868 62.3721 7.75868C62.496 7.75868 62.5889 7.64393 62.6199 7.33792C62.6354 7.22317 62.6664 7.07017 62.6819 6.95541C62.7129 6.76416 62.6664 6.61114 62.5735 6.61114C62.3876 6.61114 62.3256 6.7259 62.3102 7.18491C62.3102 7.37617 62.3102 7.60568 62.3102 7.79693C62.2792 7.79693 62.2637 7.83519 62.2327 7.87343C62.2172 7.87343 62.2172 7.94994 62.2172 7.98819C62.2637 7.98819 62.2947 7.91169 62.2947 7.75868ZM19.3141 3.66562C19.2676 3.39787 19.2057 3.24487 19.0817 3.24487C19.0043 3.24487 18.9269 3.28311 18.8494 3.32137C18.7875 3.35961 18.7565 3.47437 18.7875 3.55087C18.803 3.58912 18.8339 3.62737 18.8494 3.66562C19.0043 3.74213 19.1592 3.74213 19.3296 3.66562C19.376 4.08638 19.4844 4.35414 19.6393 4.50715C19.7168 4.58365 19.7942 4.66015 19.8717 4.69841C19.8871 4.69841 19.9181 4.62191 19.9336 4.5454C19.9491 4.50715 19.9491 4.43065 19.9336 4.35415C19.8562 3.97164 19.7323 3.70388 19.5619 3.66562C19.469 3.66562 19.3915 3.66562 19.3141 3.66562ZM71.3397 74.2775C71.4326 74.3922 71.5255 74.5452 71.6339 74.6217C71.7579 74.6982 71.8972 74.7365 72.0366 74.7747C72.0521 74.7747 72.0831 74.8512 72.0986 74.8895C72.176 75.5397 72.176 75.5397 72.3619 75.731C72.5013 75.884 72.6252 75.6162 72.6252 75.2337C72.6252 75.0807 72.6097 74.9277 72.6407 74.8895C72.6872 74.813 72.7491 74.813 72.7956 74.7747C72.8266 74.7747 72.8575 74.7365 72.873 74.6982C72.8885 74.66 72.9195 74.6217 72.9195 74.5452C72.935 74.4305 72.904 74.354 72.8266 74.3157C72.7181 74.2775 72.6097 74.2775 72.5013 74.2775C72.2999 74.3157 72.1141 74.2392 71.9437 74.0479C71.8198 73.8949 71.6804 73.9332 71.541 73.9714C71.4636 74.0097 71.3861 74.1244 71.3706 74.3157C71.3242 74.3157 71.2622 74.3157 71.2158 74.3157C71.1848 74.3157 71.1693 74.354 71.1538 74.3922C71.1383 74.4305 71.1383 74.507 71.1383 74.507C71.1693 74.6217 71.2158 74.6217 71.2777 74.5452C71.2932 74.507 71.3242 74.3922 71.3397 74.2775ZM67.1581 6.95543C67.1426 6.80242 67.1116 6.68767 67.0496 6.68767C66.9102 6.61117 66.7863 6.57292 66.6624 6.38166C66.616 6.30516 66.554 6.30515 66.5075 6.34341C66.3527 6.53466 66.1978 6.61116 66.0274 6.61116C65.888 6.61116 65.7486 6.57291 65.6247 6.68766C65.5627 6.72592 65.5318 6.84066 65.5473 6.99367C65.5473 7.03192 65.5782 7.10843 65.5937 7.14668C65.6402 7.22318 65.6866 7.26143 65.7486 7.26143C65.857 7.26143 65.9654 7.14668 66.0584 7.07018C66.1358 6.99368 66.2133 7.03193 66.2907 7.14668C66.4456 7.37619 66.6005 7.37619 66.7554 7.18493C66.8793 7.03193 67.0032 6.91718 67.1426 6.91718C67.1581 6.99368 67.1581 7.07018 67.1735 7.10843C67.2355 7.22319 67.3129 7.33794 67.3749 7.45269C67.4678 7.6057 67.5762 7.64396 67.6847 7.5292C67.7311 7.4527 67.7931 7.41444 67.8395 7.41444C68.1493 7.41444 68.4436 7.3762 68.7534 7.41445C68.7998 7.41445 68.8618 7.4527 68.9083 7.52921C69.0012 7.68221 69.0941 7.83522 69.1716 7.98822C69.218 8.06472 69.311 7.94996 69.3729 7.75871C69.4039 7.64396 69.4039 7.49095 69.3574 7.3762C69.311 7.29969 69.2645 7.22319 69.218 7.14669C69.187 7.10844 69.1716 7.10844 69.1406 7.10844C69.0786 7.10844 69.0322 7.07019 68.9702 7.07019C68.7998 7.03194 68.645 6.99368 68.4746 6.99368C68.2732 6.99368 68.1029 6.76417 67.917 6.64942C67.7466 6.57292 67.5917 6.53467 67.4368 6.76418C67.3749 6.87893 67.2665 6.91718 67.1581 6.95543ZM71.1696 8.21773C71.1076 7.83522 71.0302 7.49096 70.9218 7.18495C70.9063 7.1467 70.8753 7.10845 70.8598 7.10845C70.7669 7.07019 70.6585 7.26145 70.612 7.52922C70.5965 7.64397 70.6585 7.94998 70.7204 8.02648C70.7669 8.06473 70.8288 8.14123 70.8753 8.14123C70.9837 8.17948 71.0921 8.17949 71.2006 8.17949C71.216 8.33249 71.247 8.44724 71.2935 8.52374C71.3399 8.60024 71.4019 8.63849 71.4484 8.71499C71.6187 9.02101 71.8046 9.05926 72.0059 8.90626C72.0834 8.82975 72.1608 8.82975 72.2538 8.90626C72.548 9.13577 72.8578 9.09752 73.1676 9.02102C73.245 9.02102 73.338 8.94451 73.3999 8.82976C73.4928 8.67676 73.6013 8.6385 73.7252 8.6385C73.7562 8.82976 73.8181 8.98277 73.8955 9.02102C74.004 9.09752 74.1124 9.09753 74.2208 8.98278C74.2363 8.94452 74.2518 8.90627 74.2673 8.86801C74.2518 8.82977 74.2208 8.75326 74.2053 8.75326C74.0349 8.67676 73.8801 8.67676 73.7097 8.67676C73.6942 8.52376 73.6477 8.44725 73.6013 8.409C73.5238 8.3325 73.4464 8.29425 73.3689 8.21774C73.2605 8.103 73.2141 7.83523 73.1366 7.64398C73.0747 7.49097 72.9972 7.45272 72.9198 7.56747C72.8733 7.64397 72.8268 7.72048 72.7804 7.79698C72.6874 7.98823 72.5945 8.02648 72.4861 7.94998C72.3467 7.83522 72.2228 7.83523 72.0834 7.98823C71.9285 8.17949 71.7736 8.25599 71.6033 8.25599C71.4329 8.21773 71.309 8.21773 71.1696 8.21773ZM62.9604 74.2774C63.0378 74.3539 63.0843 74.5069 63.1308 74.6982C63.2082 75.0042 63.2701 75.1189 63.3941 75.0807C63.5644 75.0424 63.7193 75.0424 63.8897 74.9659C64.0446 74.8512 64.1995 74.7364 64.3698 74.8894C64.4163 74.9277 64.4782 74.8894 64.5247 74.8129C64.6641 74.6599 64.788 74.6599 64.9274 74.8129C64.9739 74.8512 65.0358 74.9277 65.0823 74.8894C65.2372 74.7747 65.4076 74.7747 65.547 74.5834C65.5624 74.5452 65.5934 74.5069 65.5934 74.4304C65.6089 74.3539 65.6089 74.2774 65.5934 74.2392C65.4695 73.6654 65.3921 73.5124 65.1443 73.6654C65.0823 73.7037 65.0358 73.7419 64.9894 73.6654C64.85 73.5507 64.7261 73.5889 64.6022 73.7802C64.5247 73.8949 64.4473 73.8949 64.3698 73.8567C64.3234 73.8567 64.2614 73.7802 64.215 73.7419C64.184 73.7037 64.1685 73.7037 64.1375 73.6654C64.0601 73.5889 63.9671 73.5124 63.9052 73.5889C63.6729 73.8184 63.425 73.8567 63.1772 73.8949C63.0998 73.9332 63.0378 74.0479 63.0068 74.2774C62.9759 74.2774 62.9604 74.3157 62.9294 74.3539C62.9139 74.3922 62.9139 74.4304 62.9139 74.4687C62.9294 74.5069 62.9604 74.4304 62.9604 74.2774ZM14.2958 8.63825C14.2958 9.02076 14.3113 9.40327 14.2183 9.78579C14.2028 9.82403 14.2028 9.90054 14.2028 9.97704C14.2028 10.0918 14.2338 10.2065 14.2958 10.2448C14.5126 10.3213 14.7294 10.2831 14.9463 10.2066C14.9928 10.2066 15.0392 10.0918 15.0857 10.0153C15.1012 9.97704 15.1012 9.90054 15.1167 9.82404C15.1322 9.70929 15.1322 9.55628 15.1476 9.44153L15.1322 9.47977C15.318 9.44153 15.5194 9.36503 15.6897 9.63279C15.7207 9.67104 15.7827 9.55629 15.7982 9.44153C15.8136 9.17378 15.8137 8.90602 15.8137 8.63826L15.7982 8.67651C15.8756 8.63826 15.9685 8.63826 16.0305 8.48526C16.077 8.40876 16.0924 8.25575 16.0924 8.141C16.077 8.02624 16.046 7.87323 15.984 7.87323C15.8137 7.83499 15.6588 7.83499 15.4884 7.79673C15.349 7.79673 15.2251 7.68198 15.1322 7.37597C15.0857 7.18471 15.0083 7.10822 14.9308 7.06996C14.8224 7.03171 14.714 6.99345 14.6056 6.99345C14.3577 6.99345 14.1099 7.0317 13.8621 7.06996C13.8001 7.06996 13.7537 7.14646 13.7537 7.26121C13.7537 7.33771 13.7692 7.41421 13.8001 7.41421C13.9086 7.52896 13.955 7.79673 14.0015 8.02623C14.0635 8.29399 14.1719 8.48525 14.2958 8.63825ZM22.5666 8.37053C22.7215 8.56179 22.8764 8.71479 23.0313 8.86779C23.1397 8.98255 23.2481 9.0208 23.3566 8.9443C23.4959 8.8678 23.6199 8.7913 23.7593 8.8678C24.069 9.02081 24.3633 8.98255 24.6576 8.67655C24.735 8.60005 24.828 8.60005 24.9054 8.67655C25.1068 8.94431 25.3236 8.98257 25.5559 8.98257C25.7728 8.98257 26.0051 8.98257 26.2219 8.98257C26.3923 8.98257 26.5472 9.02082 26.7176 9.21207C26.764 9.25032 26.826 9.21207 26.8724 9.17383C26.9963 9.05907 27.1357 8.90607 27.2597 8.75306C27.3681 8.86781 27.4765 8.94432 27.5694 9.05907C27.7088 9.21208 27.8327 9.21208 27.9721 9.09732C28.2664 8.90607 28.5762 8.94433 28.8705 9.17383C29.0408 9.32683 29.1957 9.32684 29.3661 9.17384C29.4435 9.09734 29.521 9.09733 29.6139 9.13558C29.7998 9.21208 29.7998 9.21208 29.9392 9.13558C30.0166 9.09733 30.1095 9.05909 30.187 8.98259C30.218 8.98259 30.2335 8.90608 30.2489 8.86783C30.2644 8.79133 30.218 8.71482 30.156 8.71482C29.9547 8.63832 29.7688 8.67657 29.5674 8.67657C29.3196 8.67657 29.0718 8.60007 28.824 8.40881C28.7156 8.3323 28.6072 8.40881 28.4987 8.48531C28.4213 8.56181 28.3439 8.63831 28.2509 8.63831C28.0806 8.63831 27.9102 8.67656 27.7553 8.52355C27.6004 8.37054 27.43 8.3323 27.2597 8.29405C27.0118 8.29405 26.764 8.2558 26.5007 8.25579C26.3923 8.25579 26.2839 8.17929 26.1755 8.02629C26.0361 7.83503 25.9122 7.91153 25.7728 8.02628C25.6953 8.10279 25.6179 8.17929 25.5249 8.17929C25.3236 8.21754 25.1377 8.21753 24.9364 8.21753C24.766 8.21753 24.6111 8.17929 24.4408 7.98802C24.3633 7.91152 24.2704 7.87327 24.1929 7.94977C24.0845 8.02628 23.9761 8.02628 23.8677 7.91152C23.7902 7.83502 23.6973 7.83502 23.6199 7.83502C23.2636 7.83502 22.8919 7.83502 22.5357 7.87326C22.4582 7.87326 22.3653 7.94977 22.2879 7.98801C22.2259 8.02627 22.1794 8.06452 22.133 7.98801C21.9471 7.79676 21.7612 7.79676 21.5754 8.06451C21.4979 8.17927 21.4205 8.17927 21.3431 8.21752C21.3121 8.21752 21.2966 8.25577 21.2656 8.29403C21.2037 8.37053 21.1882 8.48528 21.1882 8.60003C21.1882 8.75304 21.2191 8.86779 21.2811 8.90604C21.5599 9.05904 21.8387 9.0208 22.1175 8.9443C22.1949 8.90604 22.2724 8.82954 22.3498 8.71478C22.4272 8.56178 22.5047 8.48528 22.5666 8.37053ZM31.3641 4.92796C31.2557 4.96622 31.1783 4.96622 31.1008 5.00446C30.9769 5.04272 30.9304 5.19572 30.9769 5.38698C31.0544 5.69299 31.1318 5.96075 31.1938 6.26675C31.2402 6.45801 31.3177 6.53452 31.3951 6.57276C31.5035 6.61102 31.6119 6.61101 31.7204 6.61101C31.8598 6.61101 31.9837 6.80227 32.1231 6.87878C32.2005 6.91703 32.2934 6.95528 32.3709 6.95528C32.5412 6.99353 32.6961 6.95528 32.851 6.76403C32.9439 6.64928 33.0524 6.57277 33.1763 6.57277C33.7029 6.57277 34.2295 6.57278 34.7561 6.61102C34.8645 6.61102 34.9729 6.64929 35.0814 6.68753C35.2517 6.95529 35.4686 6.64928 35.6389 6.91704C35.7009 6.91704 35.7474 6.91704 35.8093 6.8788C35.9177 6.76404 36.0262 6.80229 36.1346 6.91704C36.1656 6.95529 36.181 6.9553 36.212 6.9553C36.3669 7.0318 36.4753 6.87879 36.5837 6.64929C36.5992 6.61104 36.6147 6.53453 36.5992 6.45803C36.5992 6.41978 36.5837 6.34328 36.5528 6.34328C36.3669 6.15202 36.1656 6.19028 35.9797 6.19028C35.7319 6.19027 35.4841 6.19027 35.2362 5.96076C35.1898 5.92251 35.1278 5.96076 35.0814 5.99901C34.9729 6.11376 34.8645 6.07551 34.7561 5.96076C34.7096 5.92251 34.6477 5.92251 34.6012 5.96075C34.4928 6.03726 34.3844 6.07551 34.276 5.92251C34.2295 5.84601 34.1675 5.84601 34.1211 5.80775C33.9507 5.80775 33.7958 5.80775 33.6254 5.80775C33.548 5.80775 33.4706 5.73124 33.3931 5.65474C33.3157 5.57824 33.2382 5.53999 33.1608 5.65474C33.0679 5.76949 32.9594 5.88425 32.8665 5.999C32.7581 6.11375 32.6652 6.19026 32.5412 6.19026C32.4019 6.19026 32.2625 6.19026 32.1231 6.19026C32.0146 6.19026 31.9062 6.11375 31.8443 5.84599C31.7978 5.65474 31.7513 5.50173 31.7049 5.34873C31.6274 5.11923 31.519 5.04272 31.4106 5.00446C31.3951 4.88971 31.3641 4.92796 31.3641 4.92796ZM66.0429 8.56197C65.9345 8.56197 65.7176 8.56197 65.4853 8.67672C65.4543 8.67672 65.4078 8.75322 65.4078 8.75322C65.4078 8.90623 65.4543 8.94448 65.5163 8.98274C65.7176 9.13574 65.7176 9.13574 65.5782 9.51825C65.5317 9.633 65.5163 9.74775 65.5317 9.90076C65.5472 10.0155 65.5937 10.1303 65.6402 10.1685C65.826 10.245 66.0274 10.3215 66.2132 10.1303C66.3991 9.93902 66.585 9.86251 66.7863 9.86251C66.9567 9.86251 67.1271 9.86251 67.282 9.70951C67.4368 9.55651 67.6072 9.51825 67.7621 9.48C67.9015 9.48 68.0409 9.44176 68.1803 9.4035C68.2268 9.4035 68.2732 9.28875 68.3197 9.21225C68.4281 9.021 68.4436 8.75324 68.3507 8.52373C68.2732 8.33247 68.1958 8.14122 68.1028 7.98821C68.0254 7.87346 67.9325 7.87346 67.8705 7.98821C67.8086 8.10296 67.7311 8.21772 67.6692 8.33247C67.5917 8.44722 67.5143 8.44722 67.4368 8.37072C67.2974 8.21772 67.158 8.21772 67.0341 8.33247C66.8173 8.52372 66.6005 8.60023 66.3836 8.60023C66.3217 8.60023 66.2287 8.60023 66.0429 8.56197ZM51.4682 3.01549C51.4372 2.97725 51.4218 2.97725 51.3908 2.93899C51.3133 2.86249 51.2359 2.82424 51.143 2.82424C51.081 2.82424 51.0345 2.90074 51.0036 3.01549C50.9571 3.1685 50.9726 3.43625 51.05 3.551C51.143 3.70401 51.2049 3.89527 51.1894 4.20128C51.1894 4.23954 51.2049 4.31604 51.2204 4.35428C51.2823 4.46904 51.3598 4.58379 51.4372 4.6603C51.5147 4.77505 51.5921 4.77504 51.6696 4.69854C51.747 4.62204 51.8244 4.50729 51.8864 4.43078C52.0103 4.27778 52.0103 4.27778 51.8864 3.97178C51.8709 3.93352 51.8554 3.81877 51.8554 3.78052C51.8554 3.74227 51.9019 3.70402 51.9329 3.70402C52.1032 3.66577 52.2581 3.62752 52.4285 3.55101C52.4595 3.55101 52.475 3.51276 52.5059 3.47451C52.4905 3.43626 52.475 3.35976 52.4595 3.32151C52.2736 3.0155 52.0723 2.78599 51.8864 2.51823C51.778 2.40348 51.716 2.44173 51.6076 2.74774C51.5611 2.86249 51.5147 2.97725 51.4682 3.01549ZM64.0449 9.17399C64.0758 9.09749 64.1068 9.05922 64.1068 9.02098C64.1223 8.94447 64.1223 8.86797 64.1068 8.82972C63.9984 8.52371 63.89 8.2177 63.7816 7.91169C63.6886 7.64394 63.6422 7.33792 63.6112 6.99366C63.5957 6.7259 63.5647 6.72591 63.4718 7.03192C63.4253 7.18492 63.3634 7.33792 63.2859 7.41442C63.1775 7.52918 63.1465 7.79694 63.0536 7.98819C63.0071 8.0647 62.9607 8.1412 62.8987 8.1412C62.8213 8.1412 62.7283 8.17945 62.6509 8.2177C62.6199 8.2177 62.6044 8.2942 62.5889 8.33245C62.558 8.4472 62.5889 8.56196 62.6199 8.67671C62.6819 8.82972 62.7593 8.94447 62.8368 8.94447C63.0846 8.98272 63.3324 9.02097 63.5802 9.05923C63.6576 9.05923 63.7506 9.02098 63.828 9.05923C63.9055 9.05923 63.9829 9.13573 64.0449 9.17399ZM48.7113 3.28324L48.7113 3.24499C48.8507 3.245 48.9901 3.245 49.1294 3.245C49.1759 3.245 49.2379 3.20674 49.2843 3.16849C49.3463 3.13024 49.3618 3.01549 49.3153 2.86248C49.2534 2.63297 49.1759 2.44172 49.083 2.28871C48.9901 2.13571 48.8816 2.0592 48.7732 2.09746C48.7113 2.13571 48.6648 2.1357 48.6183 2.2122C48.4789 2.36521 48.355 2.36521 48.2156 2.25046C48.1382 2.17396 48.0607 2.28871 48.0143 2.47997C47.9213 2.86248 47.9678 3.20674 48.1382 3.24499C48.324 3.24499 48.5254 3.24499 48.7113 3.28324ZM70.0386 73.9332C69.9147 73.8949 69.7598 73.8949 69.6669 74.1627C69.4656 74.6217 69.2332 74.7365 68.9854 74.6982C68.908 74.6982 68.815 74.6982 68.7376 74.6982C68.6911 74.6982 68.6447 74.813 68.5827 74.8512C68.5982 74.9277 68.5982 75.0042 68.6137 75.0425C68.7221 75.272 68.7995 75.5397 68.8925 75.7692C68.9544 75.9222 69.0474 75.9605 69.1093 75.8075C69.2022 75.6545 69.2797 75.4632 69.3726 75.3102C69.4965 75.119 69.6204 74.966 69.7443 74.8512C69.8218 74.7747 69.8992 74.7365 69.9767 74.66C70.0076 74.6217 70.0231 74.6217 70.0541 74.6217C70.1316 74.5452 70.1935 74.4305 70.2245 74.2009C70.2555 74.0479 70.178 73.9332 70.0386 73.9332ZM66.9409 75.5015C67.1113 75.5397 67.2197 75.4632 67.3281 75.272C67.3901 75.1572 67.4366 74.8895 67.4056 74.7364C67.3901 74.6599 67.3901 74.6217 67.3746 74.5452C67.3436 74.4304 67.3127 74.3157 67.2817 74.2009C67.2197 73.9714 67.1268 73.8567 67.0029 73.9332C66.786 74.0479 66.6776 74.3539 66.6621 74.9277C66.6621 75.1955 66.7551 75.4632 66.8635 75.5015C66.8945 75.5015 66.9254 75.5015 66.9409 75.5015ZM21.2966 9.4798C21.1417 9.4033 21.0643 9.2503 21.0023 9.02079C20.9403 8.75303 20.8319 8.67653 20.7235 8.67653C20.6461 8.67653 20.5531 8.71478 20.4757 8.75303C20.3982 8.79128 20.3208 9.05904 20.3518 9.21204C20.3828 9.4033 20.4292 9.55631 20.4757 9.74757C20.5531 10.0536 20.5531 10.0536 20.6615 9.97707C20.739 9.93881 20.8164 9.86231 20.9094 9.86231C21.0178 9.86232 21.1262 9.86232 21.2346 9.86232C21.2966 9.86232 21.343 9.82407 21.3895 9.70932C21.3585 9.55631 21.3121 9.4798 21.2966 9.4798ZM82.3057 36.2559C82.2592 36.2559 82.2902 36.2559 82.3057 36.2559C82.3831 36.2176 82.4451 36.1794 82.4451 36.1029C82.4451 35.9499 82.3986 35.9116 82.3367 35.8351C82.1818 35.6438 82.0269 35.5673 81.8565 35.5291C81.7481 35.5291 81.6397 35.4143 81.5468 35.2996C81.4538 35.1848 81.4074 35.2231 81.3299 35.3761C81.268 35.5673 81.268 35.7586 81.3454 35.8734C81.5158 36.1029 81.7016 36.2559 81.8875 36.2559C82.0114 36.2559 82.1198 36.2559 82.3057 36.2559ZM35.8403 10.2066C35.9952 10.2066 36.1036 10.2066 36.212 10.2066C36.2585 10.2066 36.3049 10.0919 36.3669 10.0536C36.4134 9.97713 36.4598 9.86238 36.4443 9.70938C36.4443 9.59463 36.3824 9.55637 36.3204 9.51812C36.1036 9.40337 35.8868 9.40337 35.6699 9.55637C35.6234 9.59462 35.577 9.67112 35.5305 9.74763C35.515 9.78588 35.4995 9.86238 35.484 9.90063C35.4531 10.0536 35.484 10.1301 35.5615 10.1301C35.6699 10.1684 35.7783 10.1684 35.8403 10.2066ZM38.0242 9.86239C37.8538 9.86239 37.6834 9.86239 37.5285 9.86239C37.4821 9.86239 37.4201 9.90064 37.3736 9.93889C37.3427 9.93889 37.3272 10.0154 37.3117 10.0536C37.3272 10.0919 37.3582 10.1684 37.3736 10.1684C37.6369 10.3597 37.9157 10.2449 38.179 10.2449C38.3184 10.2449 38.4423 10.3597 38.5663 10.4744C38.6127 10.5127 38.6747 10.5509 38.7211 10.5509C38.7366 10.5509 38.7676 10.4744 38.7831 10.4362C38.7986 10.3979 38.7831 10.3214 38.7831 10.2832C38.7366 10.0919 38.6747 9.97715 38.5817 9.9389C38.3959 9.9389 38.21 9.90064 38.0242 9.86239ZM62.7129 3.70406C62.6664 3.74232 62.6044 3.74232 62.558 3.78056C62.527 3.78056 62.5115 3.85707 62.496 3.89532C62.4186 4.01007 62.3876 4.23958 62.4031 4.39258C62.4341 4.58384 62.496 4.73684 62.5735 4.7751C62.6199 4.81335 62.6819 4.81335 62.7284 4.7751C62.8523 4.66035 62.9762 4.54559 63.1156 4.46909C63.1775 4.43084 63.2085 4.35433 63.2085 4.23958C63.2085 4.20133 63.1775 4.12483 63.162 4.08658C63.0691 3.97183 62.9607 3.85706 62.8678 3.74231C62.8213 3.70406 62.7593 3.70406 62.7129 3.70406ZM73.6939 74.7365C73.6165 74.7365 73.5545 74.7365 73.5081 74.7747C73.4461 74.813 73.4151 74.9277 73.4151 75.0425C73.3996 75.1955 73.4306 75.3102 73.4926 75.3485C73.6474 75.5015 73.8178 75.4632 73.9882 75.425C74.0192 75.425 74.0347 75.3867 74.0656 75.3485C74.1276 75.3102 74.1586 75.1955 74.1431 75.0042C74.1276 74.8895 74.0811 74.7747 74.0347 74.7747C73.8953 74.7747 73.7868 74.7365 73.6939 74.7365ZM12.0809 7.75846C12.0809 7.75846 12.0809 7.79672 12.0809 7.75846C12.2203 7.79672 12.3597 7.79672 12.4991 7.79672C12.5766 7.79672 12.654 7.68197 12.716 7.56721C12.7314 7.52896 12.7314 7.41421 12.7314 7.37596C12.716 7.26121 12.685 7.14645 12.623 7.1082C12.592 7.1082 12.5611 7.06994 12.5456 7.1082C12.3133 7.37596 12.0654 7.45246 11.8176 7.45245C11.7557 7.45245 11.7092 7.45245 11.6472 7.49071C11.6163 7.49071 11.5853 7.52895 11.5853 7.60546C11.5698 7.68196 11.6008 7.79672 11.6782 7.79672C11.8021 7.79672 11.9415 7.75846 12.0809 7.75846ZM54.6898 3.85704C54.7053 3.93354 54.7053 4.01004 54.7208 4.04829C54.8292 4.39255 54.9376 4.69856 55.108 4.81331C55.1854 4.88981 55.2629 5.00457 55.3403 5.08107C55.3558 5.08107 55.3868 5.00458 55.4023 4.96632C55.4178 4.92807 55.4178 4.81331 55.4023 4.77507C55.3248 4.43081 55.2164 4.08654 55.077 3.85704C54.9841 3.66578 54.8757 3.66577 54.7673 3.74227C54.7363 3.74227 54.7208 3.81878 54.6898 3.85704ZM8.5494 41.6107C8.65782 41.6107 8.76624 41.6107 8.87466 41.6107C8.9521 41.6107 8.98307 41.5342 8.98307 41.4577C8.98307 41.3812 8.9521 41.3429 8.93661 41.3047C8.89015 41.2282 8.84369 41.1517 8.79722 41.1134C8.6888 40.9987 8.59587 40.9222 8.47196 41.0752C8.34805 41.1899 8.20865 41.3047 8.08474 41.4577C8.06926 41.4577 8.06926 41.5342 8.05377 41.5725C8.08474 41.6107 8.10023 41.649 8.13121 41.649C8.2706 41.6107 8.41 41.6107 8.5494 41.6107ZM3.63955 39.1244C3.76346 39.0861 3.85639 39.0861 3.93384 39.0479C3.9803 39.0096 4.04226 38.9714 4.08872 38.8949C4.13519 38.8184 4.16617 38.7036 4.16617 38.5506C4.16617 38.5123 4.1197 38.4741 4.08872 38.4741C3.9803 38.4358 3.87188 38.3976 3.76346 38.3976C3.717 38.3976 3.65504 38.4741 3.60858 38.5123C3.53113 38.5888 3.48466 38.8949 3.53113 39.0096C3.5776 39.0861 3.62406 39.1244 3.63955 39.1244ZM70.1163 12.3106C70.0079 12.3106 69.915 12.3106 69.8375 12.3106C69.8066 12.3106 69.7756 12.3106 69.7601 12.3488C69.6981 12.3488 69.6517 12.4254 69.6052 12.5019C69.6207 12.6166 69.6672 12.6549 69.7291 12.6931C69.946 12.8079 70.1783 12.6931 70.3796 12.9226C70.3951 12.9609 70.4261 12.9226 70.4571 12.9226C70.519 12.8844 70.55 12.8079 70.581 12.6931C70.612 12.5401 70.581 12.4254 70.5035 12.4254C70.3487 12.3871 70.2248 12.3489 70.1163 12.3106ZM8.85933 5.04262C8.87482 5.27213 8.92128 5.38688 8.98323 5.50164C9.04519 5.61639 9.13812 5.61638 9.20007 5.46338C9.26203 5.31038 9.29301 5.15738 9.32398 4.96612C9.35496 4.77487 9.32398 4.58361 9.24654 4.54535C9.10714 4.50711 8.98324 4.58361 8.89031 4.85137C8.87482 4.92787 8.87482 5.00437 8.85933 5.04262ZM50.8948 73.1298C50.8484 73.1681 50.7864 73.1681 50.74 73.2063C50.678 73.2446 50.647 73.3211 50.647 73.4741C50.647 73.6271 50.6935 73.7036 50.74 73.7036C50.8174 73.6653 50.8948 73.6653 50.9723 73.7801C51.0962 73.9331 51.2201 73.9714 51.3595 73.8949C51.4214 73.8566 51.4679 73.8184 51.4834 73.7036C51.4834 73.7036 51.4524 73.5888 51.4214 73.5888C51.2975 73.5123 51.1581 73.3976 51.0497 73.2446C51.0033 73.1681 50.9413 73.1681 50.8948 73.1298ZM17.9663 70.6051C17.8888 70.6434 17.8424 70.6434 17.7804 70.6816C17.703 70.7199 17.6875 70.8346 17.734 70.9876C17.8424 71.3701 17.9973 71.4084 18.1676 71.3319C18.2296 71.2936 18.2451 71.1789 18.2606 71.0259C18.2606 70.8729 18.2451 70.7581 18.1831 70.7199C18.1057 70.6434 18.0282 70.6434 17.9663 70.6051ZM62.062 74.3539C62.0311 74.5069 62.0466 74.5834 62.124 74.6599C62.2634 74.7364 62.3873 74.6982 62.5112 74.5834C62.5732 74.5069 62.6041 74.4304 62.5887 74.2774C62.5732 74.1627 62.5422 74.0479 62.4802 74.0097C62.3718 73.9332 62.2634 73.9714 62.1705 74.0862C62.1085 74.1244 62.0775 74.2392 62.062 74.3539ZM74.3602 10.7423C74.3602 10.7423 74.2982 10.7423 74.2518 10.7423C74.1898 10.7806 74.0814 10.7806 74.2208 10.9718C74.2363 11.0101 74.2673 11.0101 74.2982 11.0101C74.4376 11.0483 74.5615 11.1248 74.7009 11.2396C74.7164 11.2396 74.7474 11.2396 74.7629 11.2013C74.7784 11.1631 74.8094 11.1248 74.8094 11.0483C74.8094 10.9718 74.8094 10.8953 74.7939 10.8571C74.6855 10.6658 74.5461 10.7423 74.3602 10.7423ZM78.8209 9.90082C78.7744 9.90082 78.7125 9.90082 78.666 9.93907C78.6195 9.97732 78.5886 10.0921 78.5731 10.2068C78.5576 10.3598 78.5731 10.4363 78.635 10.5511C78.7434 10.7041 78.8364 10.7041 78.9293 10.5511C78.9913 10.4746 79.0067 10.3598 78.9913 10.2451C78.9758 10.1303 78.9603 10.0156 78.8983 9.93907C78.8828 9.90082 78.8519 9.90082 78.8209 9.90082ZM12.2358 10.6273C12.2978 10.6273 12.3442 10.6273 12.4062 10.5891C12.4371 10.5891 12.4526 10.5508 12.4836 10.5126C12.5456 10.4743 12.5611 10.3595 12.5146 10.2065C12.4372 9.93879 12.2823 9.86228 12.1429 10.0153C12.0964 10.0918 12.0654 10.2065 12.0499 10.3595C12.0344 10.5125 12.1274 10.6273 12.2358 10.6273ZM16.9908 7.87324C16.7275 7.87324 16.6191 7.87324 16.5106 7.87324C16.4487 7.87324 16.4022 7.98799 16.4332 8.06449C16.4487 8.10274 16.4797 8.141 16.4951 8.141C16.712 8.141 16.9288 8.10275 17.1457 8.10275C17.1766 8.10275 17.1921 8.02625 17.2076 7.98799C17.1921 7.94975 17.1766 7.91149 17.1457 7.87324C17.0527 7.79674 16.9443 7.83499 16.9908 7.87324ZM63.7351 4.50734C63.7971 4.50734 63.8435 4.50734 63.9055 4.46909C63.9365 4.46909 63.9674 4.43084 63.9829 4.43084C64.0139 4.39259 64.0449 4.35434 64.0449 4.31608C64.0449 4.16308 63.9984 4.08658 63.9519 4.04833C63.8435 3.97183 63.7661 3.78057 63.6422 3.81882C63.5957 3.81882 63.5492 3.93357 63.5338 4.04833C63.5183 4.20133 63.5338 4.31609 63.5957 4.39259C63.6267 4.43084 63.6886 4.46909 63.7351 4.50734ZM50.0278 3.245C50.0897 3.245 50.1362 3.20674 50.1672 3.09199C50.1672 3.05374 50.1517 2.97724 50.1362 2.93899C50.0123 2.70948 49.8884 2.47997 49.749 2.25046C49.687 2.13571 49.6561 2.17396 49.6251 2.32696C49.6096 2.36522 49.6096 2.44172 49.6096 2.51822C49.6561 2.93898 49.8264 3.245 50.0278 3.245ZM15.5346 67.7363C15.3487 67.7363 15.2713 67.7363 15.1939 67.7363C15.1164 67.7363 15.0854 67.851 15.1009 67.9275C15.1164 67.9658 15.1474 68.0423 15.1629 68.0423C15.3023 68.0423 15.4417 68.0423 15.5811 68.0423C15.6585 68.0423 15.6895 67.9275 15.674 67.8893C15.6585 67.851 15.6275 67.8128 15.612 67.8128C15.5501 67.7363 15.4881 67.7363 15.5346 67.7363ZM11.4459 10.3213C11.322 10.3213 11.2755 10.3213 11.2136 10.3213C11.1826 10.3213 11.1516 10.3213 11.1361 10.3595C11.1051 10.3978 11.0896 10.436 11.0742 10.4743C11.0742 10.4743 11.0896 10.5508 11.1051 10.589C11.2755 10.7038 11.4304 10.742 11.6472 10.5891C11.6627 10.5891 11.6782 10.5125 11.6937 10.4743C11.6782 10.436 11.6472 10.3595 11.6317 10.3595C11.5388 10.3213 11.4614 10.3213 11.4459 10.3213ZM10.7954 7.79671C10.6405 7.79671 10.594 7.79671 10.5476 7.79671C10.5166 7.79671 10.5011 7.79671 10.4701 7.83496C10.4391 7.87322 10.4237 7.91146 10.4082 7.94971C10.4082 7.94971 10.4237 8.02622 10.4391 8.06446C10.625 8.21747 10.7954 8.21747 10.9812 8.06447C10.9967 8.06447 11.0122 7.98797 11.0122 7.94971C10.9967 7.91147 10.9657 7.83497 10.9503 7.83497C10.8573 7.79671 10.7799 7.79671 10.7954 7.79671ZM59.77 7.41441C59.6306 7.41441 59.5532 7.41441 59.4758 7.41441C59.4603 7.41441 59.4293 7.49091 59.4138 7.52917C59.3983 7.60567 59.4448 7.72042 59.5067 7.72042C59.6616 7.75868 59.8165 7.75868 59.9714 7.64392C59.9869 7.64392 60.0024 7.56742 60.0179 7.52917C60.0024 7.49092 59.9714 7.45266 59.9559 7.41441C59.863 7.41441 59.7855 7.41441 59.77 7.41441ZM7.91452 6.2284C7.75964 6.19015 7.63573 6.26665 7.54279 6.57266C7.52731 6.61091 7.51182 6.68741 7.51182 6.72567C7.54279 6.87867 7.58926 6.91692 7.65121 6.87868C7.74415 6.76392 7.85257 6.64916 7.9455 6.53441C8.00746 6.45791 8.02294 6.34316 7.97647 6.26665C7.9455 6.2284 7.91452 6.2284 7.91452 6.2284ZM72.4396 13.1521C72.3777 13.1521 72.2692 13.1904 72.1608 13.2286C72.1298 13.2286 72.0989 13.3051 72.0989 13.3434C72.1143 13.4581 72.1453 13.4964 72.2073 13.5346C72.3467 13.5729 72.4706 13.5729 72.61 13.4964C72.6719 13.4581 72.7184 13.3816 72.7029 13.3051C72.7029 13.2669 72.6564 13.2286 72.641 13.1904C72.5945 13.1904 72.5325 13.1904 72.4396 13.1521ZM55.7121 4.81332C55.774 5.00457 55.8515 5.23408 55.9289 5.42534C55.9754 5.54009 56.0218 5.54009 56.0683 5.46359C56.0993 5.34883 56.0993 5.23408 56.0838 5.08107C56.0373 4.81332 55.9444 4.66031 55.836 4.62206C55.805 4.62206 55.7895 4.62206 55.7585 4.66032C55.7275 4.69856 55.7121 4.73682 55.7121 4.81332ZM26.8415 10.6656C26.795 10.6656 26.733 10.6656 26.6866 10.7039C26.6556 10.7039 26.6246 10.7804 26.6246 10.8186C26.6246 10.8951 26.6556 11.0099 26.7175 11.0099C26.795 11.0481 26.8724 11.0099 26.9499 11.0099C27.0118 11.0099 27.0738 10.8951 27.0583 10.8186C27.0428 10.7039 26.9809 10.6656 26.9189 10.6656C26.8879 10.6656 26.8724 10.6656 26.8415 10.6656ZM74.5925 7.98824C74.577 8.02649 74.5461 8.10299 74.5461 8.14125C74.5461 8.21775 74.5461 8.29425 74.5616 8.3325C74.639 8.56201 74.8868 8.60026 74.9333 8.40901C74.9333 8.37076 74.9178 8.29425 74.9023 8.256C74.7939 8.14125 74.701 7.98824 74.5925 7.98824ZM44.4829 4.12475C44.4674 4.12475 44.4364 4.12474 44.4209 4.163C44.39 4.20125 44.359 4.20125 44.359 4.27775C44.359 4.35425 44.39 4.46901 44.4519 4.46901C44.5294 4.46901 44.6068 4.46901 44.6842 4.46901C44.7462 4.46901 44.8082 4.35425 44.7927 4.316C44.7772 4.20125 44.7152 4.163 44.6533 4.163C44.6068 4.12475 44.5448 4.12475 44.4829 4.12475ZM82.2591 73.895C82.2591 74.048 82.29 74.1245 82.352 74.1627C82.4139 74.201 82.4604 74.1245 82.4914 74.0097C82.5379 73.8185 82.4449 73.589 82.3675 73.6272C82.3055 73.6655 82.2746 73.742 82.2591 73.895ZM11.1669 56.9494C11.1669 57.0642 11.1979 57.1789 11.2443 57.2172C11.3218 57.2937 11.4147 57.1024 11.3992 56.9112C11.3837 56.7964 11.3682 56.6817 11.3218 56.6434C11.2443 56.5669 11.1669 56.7582 11.1669 56.9494ZM61.3963 4.23957C61.4118 4.27783 61.4118 4.35433 61.4273 4.39258C61.4893 4.50733 61.5822 4.50733 61.6596 4.46908C61.6751 4.46908 61.7216 4.39258 61.7216 4.35433C61.7216 4.23957 61.6906 4.16307 61.6287 4.12482C61.4893 4.04832 61.4118 4.12482 61.3963 4.23957ZM17.5484 4.6984C17.5329 4.73664 17.5019 4.81315 17.5019 4.85141C17.4864 5.0044 17.5174 5.11916 17.5639 5.19566C17.6103 5.27217 17.6568 5.27217 17.7033 5.19566C17.7342 5.11916 17.7342 5.00441 17.6878 4.88965C17.6413 4.73664 17.6103 4.6984 17.5484 4.6984ZM32.247 4.88971C32.2005 4.88971 32.154 4.96622 32.1076 5.04272C32.1386 5.15748 32.185 5.23398 32.2315 5.23398C32.3399 5.27223 32.4483 5.19572 32.4328 5.08097C32.4483 5.00447 32.3399 4.88972 32.247 4.88971ZM10.7489 6.53442C10.7489 6.49617 10.7489 6.41967 10.7334 6.38142C10.7025 6.26667 10.656 6.22841 10.6095 6.22841C10.594 6.22841 10.5631 6.26667 10.5476 6.34317C10.5166 6.45792 10.5785 6.64917 10.6715 6.72568C10.7025 6.76393 10.7334 6.68743 10.7489 6.53442ZM72.1144 7.22321C72.1763 7.37621 72.2538 7.37621 72.3312 7.29971C72.4241 7.22321 72.4241 7.14671 72.3467 7.07021C72.2693 6.99371 72.1918 6.9937 72.1299 7.10845C72.1144 7.10845 72.0989 7.18496 72.1144 7.22321ZM13.2116 7.60547C13.2271 7.64371 13.2426 7.72022 13.2735 7.72022C13.3355 7.75848 13.382 7.68197 13.4129 7.56722C13.4439 7.45246 13.4439 7.33771 13.4129 7.22295C13.382 7.14645 13.3355 7.14645 13.289 7.26121C13.2271 7.37596 13.2116 7.49071 13.2116 7.60547ZM60.8852 7.41441C60.8233 7.37617 60.7768 7.41442 60.7458 7.52917C60.7768 7.64393 60.8233 7.68217 60.8697 7.68217C60.9781 7.68217 61.0711 7.60567 61.0246 7.52917C60.9781 7.45267 60.9317 7.41441 60.8852 7.41441ZM8.00745 7.7967C7.94549 7.7967 7.89903 7.83495 7.86805 7.9497C7.88354 8.06445 7.93 8.14096 7.99195 8.14096C8.10037 8.14096 8.19331 8.02621 8.16233 7.9497C8.11586 7.83495 8.0694 7.7967 8.00745 7.7967ZM71.3709 13.1521C71.3709 13.2669 71.3864 13.3816 71.4483 13.4199C71.4948 13.4964 71.5568 13.4581 71.5877 13.3434C71.6032 13.2286 71.5723 13.1139 71.5413 13.0374C71.4948 12.9226 71.4483 12.9226 71.4174 12.9991C71.3864 13.0374 71.3709 13.1139 71.3709 13.1521ZM11.7245 57.1789C11.7555 57.2937 11.8174 57.3319 11.8639 57.3319C11.9258 57.3319 11.9723 57.2937 12.0033 57.1789C12.0033 57.1789 11.9878 57.0642 11.9723 57.0642C11.8948 56.9877 11.8174 56.9494 11.74 57.0642C11.74 57.0642 11.74 57.1407 11.7245 57.1789ZM42.5311 69.9932C42.593 70.1462 42.7789 70.108 42.8099 69.9549C42.8099 69.9167 42.7789 69.8402 42.7634 69.8019C42.6859 69.7254 42.6085 69.7637 42.5466 69.8784C42.5311 69.9167 42.5311 69.9549 42.5311 69.9932ZM20.2586 71.8292C20.2431 71.9057 20.2276 71.9822 20.2276 72.0204C20.2586 72.1734 20.305 72.2117 20.367 72.1352C20.4289 72.0587 20.4599 71.9439 20.4444 71.7909C20.4444 71.7144 20.4135 71.6379 20.398 71.6379C20.3515 71.5997 20.2896 71.6762 20.2586 71.8292ZM67.8547 75.1955C67.8238 75.1955 67.8083 75.1955 67.7773 75.2337C67.7153 75.272 67.6999 75.3867 67.6999 75.5397C67.6999 75.578 67.7153 75.6545 67.7308 75.6927C67.7773 75.7692 67.8083 75.731 67.8547 75.6162C67.9012 75.5015 67.9167 75.425 67.9012 75.3102C67.9012 75.2337 67.8702 75.2337 67.8547 75.1955ZM57.6791 3.39803C57.6481 3.32153 57.6017 3.28328 57.5397 3.28328C57.4778 3.28328 57.4313 3.32153 57.4003 3.39803C57.4003 3.39803 57.4158 3.47453 57.4313 3.51279C57.5087 3.58929 57.5862 3.58929 57.6481 3.51279C57.6636 3.47453 57.6636 3.43629 57.6791 3.39803ZM76.8845 75.884C76.9 75.8458 76.9465 75.7693 76.9465 75.731C76.931 75.578 76.8691 75.5398 76.8226 75.578C76.8071 75.6163 76.7606 75.6928 76.7761 75.6928C76.7761 75.884 76.8381 75.9223 76.8845 75.884ZM75.9862 75.6163C75.9707 75.6545 75.9397 75.6928 75.9243 75.731C75.9397 75.7693 75.9552 75.8458 75.9707 75.8458C76.0172 75.884 76.0637 75.8458 76.0946 75.731C76.0946 75.731 76.0637 75.6163 76.0482 75.6163C76.0482 75.6163 76.0172 75.6163 75.9862 75.6163ZM61.3496 74.5452C61.3496 74.5069 61.3496 74.4304 61.3341 74.4304C61.3186 74.3922 61.2876 74.3922 61.2566 74.3922C61.1947 74.4687 61.1947 74.5452 61.2721 74.5834C61.3031 74.6217 61.3341 74.5834 61.3496 74.5452ZM81.4537 74.048C81.4691 74.0862 81.4846 74.1627 81.5001 74.1627C81.5466 74.201 81.5931 74.1627 81.624 74.048C81.624 74.048 81.5931 73.9332 81.5776 73.9332C81.5311 73.895 81.4846 73.9332 81.4537 74.048ZM83.6842 35.9881C83.6687 36.0264 83.6377 36.0646 83.6222 36.0646C83.6377 36.1029 83.6532 36.1411 83.6687 36.1794C83.6842 36.2176 83.7151 36.2176 83.7306 36.1794C83.7461 36.1794 83.7926 36.1029 83.7926 36.1029C83.7771 35.9881 83.7306 35.9499 83.6842 35.9881ZM1.40926 26.884C1.39377 26.9222 1.3628 26.9605 1.3473 26.9605C1.3628 26.9987 1.37829 27.0752 1.40926 27.0752C1.48671 27.1135 1.51768 27.037 1.48671 26.9222C1.45573 26.884 1.42475 26.884 1.40926 26.884ZM66.6004 12.1576C66.6469 12.2341 66.6934 12.1958 66.7244 12.1576C66.7089 12.1193 66.6934 12.0811 66.6624 12.0811C66.6469 12.0811 66.6159 12.0811 66.6004 12.1193C66.6004 12.0811 66.6004 12.1193 66.6004 12.1576ZM75.8316 10.3216C75.8161 10.3598 75.7851 10.3981 75.7697 10.4363C75.7851 10.4746 75.8006 10.5511 75.8316 10.5511C75.909 10.5893 75.94 10.5128 75.909 10.3981C75.8936 10.3216 75.8471 10.3216 75.8316 10.3216ZM15.5658 7.22296C15.5968 7.26122 15.6123 7.29947 15.6433 7.26122C15.6743 7.26122 15.6897 7.18472 15.7052 7.14646C15.6897 7.10821 15.6743 7.03171 15.6433 7.03171C15.6278 7.03171 15.5968 7.03171 15.5658 7.06996C15.5658 7.10822 15.5658 7.18472 15.5658 7.22296ZM54.3491 6.30511C54.3646 6.34335 54.38 6.41985 54.3955 6.41985C54.442 6.45811 54.4885 6.41985 54.5349 6.34336C54.5194 6.3051 54.5039 6.2286 54.4885 6.2286C54.4265 6.1521 54.38 6.19035 54.3491 6.30511ZM52.3665 4.31603C52.382 4.31603 52.413 4.35429 52.4285 4.35429C52.444 4.35429 52.475 4.31604 52.4905 4.27779C52.475 4.23953 52.4595 4.20129 52.4285 4.16303C52.413 4.16303 52.382 4.16303 52.3511 4.20129C52.3665 4.20129 52.382 4.27779 52.3665 4.31603ZM14.3732 10.9333L14.4042 10.8568L14.3577 10.8568L14.3732 10.9333ZM13.7072 8.33224L13.6762 8.44699L13.7227 8.44699L13.7072 8.33224ZM66.7399 4.35435L66.7709 4.27785L66.7244 4.27785L66.7399 4.35435Z" fill="#00659E"/>
<path d="M38.4889 2.44384C38.2101 2.4056 37.9469 2.36736 37.6991 1.98496C37.6836 1.94672 37.6526 1.87024 37.6526 1.832C37.6526 1.71728 37.6836 1.64081 37.7455 1.60257C37.8849 1.52609 38.0088 1.41136 38.1327 1.25841C38.3031 1.02897 38.4734 0.91425 38.6748 1.06721C38.8916 1.22017 39.1084 1.14369 39.3252 1.18193C39.4027 1.18193 39.4801 1.22017 39.573 1.29665C39.635 1.33489 39.6659 1.44961 39.6814 1.56433C39.6969 1.71729 39.6814 1.83201 39.6195 1.87025C39.573 1.90849 39.5266 1.98497 39.4646 1.98497C39.3252 2.02321 39.2013 2.06145 39.0619 2.2144C38.8761 2.4056 38.6902 2.36736 38.4889 2.44384Z" fill="#00659E"/>
<path d="M82.9249 79.1771C82.9404 79.0622 82.9559 78.909 82.9869 78.8324C83.0798 78.5643 83.2037 78.4493 83.3586 78.4877C83.4825 78.526 83.56 78.6792 83.6064 78.9473C83.6374 79.0622 83.6219 79.2154 83.5755 79.3303C83.4516 79.6368 83.2967 79.79 83.1263 79.7134C83.0488 79.6751 82.9714 79.5602 82.9249 79.407C82.9249 79.3686 82.9249 79.2537 82.9249 79.1771Z" fill="#00659E"/>
<path d="M57.54 74.5127C57.6329 74.589 57.6948 74.7035 57.7258 74.8943C57.7723 75.0851 57.7568 75.2759 57.6794 75.3903C57.5864 75.543 57.478 75.5811 57.3851 75.5048C57.3541 75.5048 57.3386 75.4667 57.3077 75.4285C57.2457 75.3522 57.1838 75.0469 57.2147 74.9324C57.2457 74.818 57.2922 74.7416 57.3386 74.7035C57.4161 74.6272 57.478 74.5509 57.54 74.5127Z" fill="#00659E"/>
<path d="M26.671 70.9536C26.609 71.2593 26.5625 71.5649 26.5006 71.8324C26.4696 71.9852 26.4231 72.0234 26.3766 72.0234C26.2991 71.9852 26.2216 71.7178 26.2371 71.6031C26.2371 71.5267 26.2526 71.4885 26.2681 71.4121C26.3301 71.1829 26.4231 71.03 26.5316 71.03C26.578 71.03 26.64 71.03 26.6865 70.9918L26.671 70.9536Z" fill="#00659E"/>
<path d="M6.98568 42.0332C7.03215 41.995 7.0941 41.9185 7.14057 41.9185C7.15606 41.9185 7.18704 41.9567 7.20253 41.995C7.23351 42.1097 7.23351 42.2244 7.18704 42.3009C7.0941 42.4539 6.98568 42.4157 6.87725 42.4157C6.81529 42.4157 6.76882 42.3774 6.72235 42.3009C6.73784 42.1862 6.78431 42.1479 6.83078 42.1097C6.87725 42.0714 6.92372 42.0332 6.98568 42.0332Z" fill="#00659E"/>
<path d="M11.6631 63.1519C11.6166 63.1519 11.5547 63.1519 11.5082 63.1135C11.4462 63.1135 11.3998 63.0368 11.3998 62.9217C11.3998 62.7683 11.4462 62.6916 11.5082 62.6532C11.5547 62.6149 11.6011 62.5382 11.6631 62.4998C11.725 62.4615 11.8179 62.5382 11.8644 62.73C11.8799 62.7683 11.8799 62.8834 11.8799 62.9217C11.8644 63.0368 11.8179 63.0751 11.756 63.1135C11.725 63.1519 11.694 63.1519 11.6631 63.1519Z" fill="#00659E"/>
<path d="M0.000612411 36.1059C0.0161024 36.0681 0.0161046 35.9926 0.0315944 35.9926C0.109044 35.9172 0.186493 35.9172 0.263942 35.9926C0.279431 35.9926 0.294923 36.1059 0.294923 36.1059C0.263942 36.2191 0.201979 36.2568 0.15551 36.2568C0.0935506 36.2568 0.0470813 36.2191 0.000612411 36.1059Z" fill="#00659E"/>
<path d="M32.9433 72.0225C32.9278 71.8689 32.9898 71.6769 33.0672 71.6001C33.0827 71.6001 33.1137 71.6001 33.1292 71.6385C33.1757 71.7537 33.1757 71.8689 33.1292 71.9841C33.0982 72.0993 33.0517 72.1377 32.9898 72.1377C32.9898 72.1377 32.9588 72.0609 32.9433 72.0225Z" fill="#00659E"/>
<path d="M48.1855 73.7083C48.201 73.6698 48.201 73.5928 48.2164 73.5543C48.2938 73.4389 48.3712 73.4773 48.4485 73.5543C48.464 73.5928 48.4795 73.6698 48.4795 73.6698C48.4485 73.7852 48.3866 73.8237 48.3402 73.8237C48.2783 73.8237 48.2319 73.7852 48.1855 73.7083Z" fill="#00659E"/>
<path d="M80.944 78.8687C81.006 78.8687 81.0525 78.8687 81.0834 78.9848C81.1144 79.101 81.037 79.2172 80.9285 79.1784C80.8666 79.1784 80.8356 79.101 80.8046 78.9848C80.8511 78.9074 80.8976 78.8687 80.944 78.8687Z" fill="#00659E"/>
<path d="M58.2526 75.0466C58.2371 75.008 58.2061 74.9309 58.2061 74.9309C58.2216 74.8152 58.2681 74.7767 58.33 74.8152C58.3455 74.8152 58.3765 74.9309 58.3765 74.9309C58.3455 75.0466 58.299 75.0851 58.2526 75.0466Z" fill="#00659E"/>
<path d="M54.335 74.548C54.304 74.5865 54.2885 74.625 54.2575 74.625C54.1801 74.5865 54.1646 74.4709 54.2421 74.3939C54.2575 74.3554 54.304 74.3939 54.3195 74.4324C54.335 74.4324 54.335 74.5094 54.335 74.548Z" fill="#00659E"/>
<path d="M45.4439 73.9389C45.4749 74.0145 45.5059 74.0524 45.5059 74.0902C45.4749 74.2036 45.4284 74.2414 45.3819 74.2036C45.3664 74.1658 45.32 74.0902 45.3355 74.0902C45.3509 73.9389 45.3974 73.9011 45.4439 73.9389Z" fill="#00659E"/>
<path d="M42.2369 72.9819C42.2214 72.9819 42.1749 72.9439 42.1749 72.906C42.1594 72.792 42.2059 72.716 42.2678 72.754C42.2833 72.754 42.2988 72.83 42.2988 72.868C42.2678 72.906 42.2523 72.9819 42.2369 72.9819Z" fill="#00659E"/>
<path d="M31.6737 71.4902C31.7047 71.5281 31.7357 71.5281 31.7357 71.5659C31.7667 71.6794 31.7357 71.755 31.6583 71.7172C31.6428 71.7172 31.6273 71.6416 31.5963 71.6037C31.6273 71.5659 31.6583 71.5281 31.6737 71.4902Z" fill="#00659E"/>
<path d="M25.4018 71.6027C25.4328 71.4882 25.4793 71.4119 25.5412 71.4882C25.5567 71.5264 25.6032 71.6027 25.5877 71.6408C25.5567 71.7935 25.5102 71.8316 25.4483 71.7553C25.4328 71.7172 25.4173 71.6408 25.4018 71.6027Z" fill="#00659E"/>
<path d="M13.8467 71.682C13.8312 71.682 13.8002 71.7585 13.7847 71.7202C13.7072 71.682 13.7072 71.6055 13.7692 71.529C13.7847 71.4908 13.8157 71.529 13.8467 71.5673C13.8467 71.5673 13.8467 71.6055 13.8467 71.682Z" fill="#00659E"/>
<path d="M32.7587 70.6489C32.7742 70.6871 32.8052 70.7635 32.8052 70.8018C32.7897 70.9546 32.7277 70.9928 32.6813 70.9164C32.6658 70.8782 32.6193 70.8018 32.6348 70.7635C32.6348 70.6489 32.6968 70.5725 32.7587 70.6489Z" fill="#00659E"/>
<path d="M12.8712 69.1184C12.9021 69.0027 12.9486 68.9642 12.995 69.0027C13.0105 69.0413 13.0415 69.1184 13.0415 69.1184C13.0105 69.2341 12.9641 69.2726 12.9176 69.2341C12.8866 69.2341 12.8866 69.1955 12.8712 69.1184Z" fill="#00659E"/>
<path d="M85.0483 65.2168C85.0948 65.293 85.1413 65.3691 85.1723 65.4453C85.2032 65.5596 85.2032 65.6738 85.1568 65.75C85.1413 65.75 85.1103 65.75 85.1103 65.7119C85.0793 65.6738 85.0793 65.6357 85.0638 65.5596C85.0638 65.4453 85.0638 65.293 85.0638 65.1787L85.0483 65.2168Z" fill="#00659E"/>
<path d="M10.192 60.8936C10.2229 60.779 10.2694 60.7408 10.3158 60.779C10.3313 60.8172 10.3623 60.8936 10.3623 60.8936C10.3313 61.0081 10.2849 61.0463 10.2384 61.0081C10.2229 60.9699 10.2074 60.9317 10.192 60.8936Z" fill="#00659E"/>
<path d="M9.7273 56.3799C9.7273 56.3415 9.7273 56.2649 9.7273 56.2649C9.74279 56.2266 9.77376 56.2266 9.80474 56.2266C9.82023 56.2266 9.85121 56.3032 9.8667 56.3415C9.85121 56.3799 9.82023 56.4182 9.80474 56.4182C9.77376 56.4565 9.74279 56.4182 9.7273 56.3799Z" fill="#00659E"/>
<path d="M0.666079 36.0653C0.69705 35.9499 0.743515 35.873 0.789972 35.9499C0.805457 35.9884 0.836426 36.0653 0.836426 36.0653C0.805454 36.2192 0.758999 36.2577 0.712543 36.1808C0.697057 36.1808 0.681564 36.1038 0.666079 36.0653Z" fill="#00659E"/>
<path d="M4.19702 8.87159C4.19702 8.8335 4.19702 8.75733 4.19702 8.75733C4.21251 8.71924 4.24349 8.71924 4.27447 8.71924C4.28996 8.71924 4.30545 8.79541 4.33643 8.8335C4.32094 8.87158 4.28996 8.90967 4.27447 8.90967C4.24349 8.90967 4.228 8.87159 4.19702 8.87159Z" fill="#00659E"/>
<path d="M56.271 74.7422C56.3331 74.7803 56.3486 74.8184 56.3486 74.9326C56.3331 74.9326 56.3176 74.8945 56.3021 74.8945C56.2865 74.8564 56.2865 74.7803 56.2865 74.7422L56.271 74.7422Z" fill="#00659E"/>
<path d="M52.5993 74.7002C52.5838 74.8529 52.5683 74.8911 52.5218 74.8911C52.5373 74.8529 52.5373 74.8147 52.5528 74.7766C52.5683 74.7384 52.5993 74.7384 52.6147 74.7384L52.5993 74.7002Z" fill="#00659E"/>
<path d="M56.2852 74.701C56.2077 74.701 56.1922 74.6245 56.1922 74.5098C56.2077 74.5098 56.2387 74.548 56.2387 74.548C56.2542 74.5863 56.2542 74.6628 56.2697 74.7393L56.2852 74.701Z" fill="#00659E"/>
<path d="M52.6145 74.7393C52.6145 74.6235 52.63 74.5078 52.6766 74.4307C52.6766 74.4307 52.7076 74.5078 52.7231 74.5464C52.6921 74.6235 52.6456 74.7007 52.599 74.7007L52.6145 74.7393Z" fill="#00659E"/>
<path d="M47.0699 73.4771C47.132 73.5158 47.1631 73.5545 47.1631 73.6318C47.1476 73.6318 47.1165 73.6318 47.1165 73.5932C47.101 73.5545 47.101 73.4771 47.0855 73.4385L47.0699 73.4771Z" fill="#00659E"/>
<path d="M1.40967 39.1626C1.40967 39.3172 1.37878 39.3945 1.33246 39.3559C1.33246 39.3172 1.3479 39.2786 1.3479 39.2399C1.36334 39.2013 1.39423 39.2013 1.40967 39.2013L1.40967 39.1626Z" fill="#00659E"/>
<path d="M1.42444 39.2031C1.43994 39.0507 1.45544 38.9745 1.50195 39.0126C1.50195 39.0507 1.48645 39.0888 1.47094 39.1269C1.45544 39.165 1.42444 39.165 1.40894 39.2031L1.42444 39.2031Z" fill="#00659E"/>
<path d="M15.1321 9.44529C15.0701 9.40718 15.0392 9.33096 15.0082 9.21663C14.9772 9.02609 14.9927 8.83554 15.0701 8.72121C15.0856 8.6831 15.1166 8.68311 15.1476 8.68311C15.2095 8.72122 15.2405 8.83554 15.2095 8.94987C15.1786 9.14042 15.1476 9.29285 15.1011 9.4834L15.1321 9.44529Z" fill="#00659E"/>
<path d="M15.814 8.60223C15.7365 8.64062 15.659 8.64061 15.597 8.56383C15.5815 8.52544 15.5505 8.44866 15.5505 8.44866C15.566 8.29509 15.6125 8.25671 15.6745 8.2951C15.7365 8.2951 15.752 8.33349 15.814 8.60223Z" fill="#00659E"/>
<path d="M14.2961 8.64307C14.2961 8.49039 14.3271 8.41406 14.3735 8.41406C14.3735 8.45223 14.3735 8.52856 14.358 8.52856C14.3426 8.56673 14.3116 8.56673 14.2961 8.64307Z" fill="#00659E"/>
<g clip-path="url(#clip0)">
<g clip-path="url(#clip1)">
<path d="M63.3332 20.3328C63.7015 20.3328 64 20.0344 64 19.6663C64 19.298 63.7015 18.9995 63.3332 18.9995H46.103C45.4426 18.9989 44.8054 19.2443 44.3159 19.6874L25.0995 37.0436C24.4001 37.676 24.0006 38.5747 24 39.5177V41.6661C24 42.0345 24.2985 42.3329 24.6668 42.3329C25.0349 42.3329 25.3333 42.0345 25.3333 41.6661V39.5177C25.3339 38.9519 25.5735 38.413 25.9928 38.0333L28.6667 35.6182V50.9996H24.6668C24.2985 50.9996 24 51.2981 24 51.6661C24 52.0345 24.2985 52.3329 24.6668 52.3329H25.3333V57.6662C25.3342 58.4023 25.9305 58.9986 26.6666 58.9995H62.6667C63.4028 58.9986 63.9991 58.4023 64 57.6662V32.3329C63.9991 31.5969 63.4028 31.0002 62.6667 30.9996H58.6667V20.3328H63.3332ZM46.103 20.3328H50.6666V30.9996H46.6666C46.2986 30.9996 46.0001 31.2981 46.0001 31.6661C46.0001 32.0345 46.2986 32.3329 46.6666 32.3329H47.3334V36.9994C47.3331 37.3674 47.0347 37.6659 46.6666 37.6662H44.6668V21.1669L45.2097 20.6765C45.4545 20.4549 45.7728 20.3325 46.103 20.3328ZM40.6666 37.6662H39.3333C38.9652 37.6662 38.6667 37.9647 38.6667 38.3327C38.6667 38.7011 38.9652 38.9995 39.3333 38.9995H40.0001V43.6663C39.9998 44.0343 39.7013 44.3325 39.3333 44.3328H37.3334V27.7904L43.3332 22.3714V37.6662H40.6666ZM30.0001 34.4139L36.0001 28.9949V44.3328H31.9999C31.6318 44.3328 31.3334 44.6312 31.3334 44.9996C31.3334 45.3676 31.6318 45.6661 31.9999 45.6661H32.6667V50.3328C32.6664 50.7009 32.3679 50.9993 31.9999 50.9996H30.0001V34.4139ZM50.6666 57.6662C49.9308 57.6653 49.3342 57.069 49.3333 56.3329V52.3329H56.0001V56.3329C55.9992 57.069 55.4026 57.6653 54.6668 57.6662H50.6666ZM51.3163 48.1011C49.8987 47.6473 48.632 46.8148 47.6533 45.6929C46.7615 44.5009 46.2113 43.0886 46.0621 41.6072C47.4802 42.0604 48.747 42.8932 49.7257 44.0151C50.6171 45.2074 51.1671 46.6198 51.3163 48.1011ZM51.5867 44.4429C51.5595 44.0718 51.5635 43.6989 51.5977 43.3284C51.8171 41.6826 52.4888 40.1299 53.5377 38.843C54.3229 40.3051 54.6891 41.9554 54.5957 43.6125C54.5731 43.8506 54.5344 44.0868 54.4797 44.3196C54.0723 45.0746 53.7681 45.8806 53.5758 46.7165C53.5721 46.725 53.5728 46.7342 53.5694 46.743C53.4476 47.2664 53.3634 47.7977 53.3182 48.3327H52.6819C52.5745 46.9771 52.2025 45.6554 51.5867 44.4429ZM56.2748 44.0154C57.2553 42.8951 58.5224 42.0632 59.9402 41.6088C59.7913 43.0901 59.2405 44.5024 58.3469 45.6929C57.3661 46.8132 56.099 47.6451 54.6815 48.0999C54.8304 46.6185 55.3812 45.2062 56.2748 44.0154ZM57.3334 49.6663L57.334 50.9996H47.9999V49.6663H57.3334ZM62.6667 57.6662H56.9623C57.2025 57.2628 57.3307 56.8022 57.3334 56.3329V52.3329C58.0692 52.332 58.6658 51.7354 58.6667 50.9996V49.6663C58.6658 48.9302 58.0692 48.3336 57.3334 48.3327H57.3075C58.0952 47.8527 58.7968 47.2438 59.3836 46.5322C60.6336 44.8421 61.3163 42.7999 61.3334 40.6978C61.33 40.5007 61.2397 40.3148 61.0865 40.1906C60.933 40.0667 60.7328 40.0167 60.539 40.0545C58.8288 40.443 57.2455 41.2603 55.9385 42.4294C55.7816 40.6105 55.1835 38.8573 54.1959 37.322C54.0845 37.1593 53.9066 37.0543 53.7104 37.0354C53.5142 37.0174 53.3201 37.0864 53.1791 37.224C51.7246 38.7374 50.7377 40.6389 50.3373 42.6995C48.9878 41.3839 47.2996 40.4683 45.4609 40.0548C45.2674 40.017 45.0669 40.0667 44.9137 40.1909C44.7605 40.3151 44.6702 40.5007 44.6668 40.6978C44.6836 42.7999 45.3663 44.8421 46.6166 46.5322C47.2031 47.2438 47.9047 47.8527 48.6924 48.3327H47.9999C47.2639 48.3336 46.6675 48.9302 46.6666 49.6663V50.9996C46.6675 51.7354 47.2639 52.332 47.9999 52.3329V56.3329C48.0027 56.8022 48.1309 57.2628 48.3707 57.6662H26.6666V52.3329H31.9999C33.104 52.3317 33.9988 51.437 34 50.3328V45.6661H39.3333C40.4374 45.6649 41.3322 44.7704 41.3334 43.6663V38.9995H46.6666C47.7708 38.9983 48.6655 38.1035 48.6667 36.9994V32.3329H51.3343L57.9969 32.3323L57.9999 32.3329L58.0033 32.332H62.6667V57.6662ZM57.3334 30.9996H51.9999V20.3328H57.3334V30.9996Z" fill="white"/>
<path d="M53.9999 55.666H51.3333C50.965 55.666 50.6665 55.9645 50.6665 56.3328C50.6665 56.7009 50.965 56.9993 51.3333 56.9993H53.9999C54.368 56.9993 54.6667 56.7009 54.6667 56.3328C54.6667 55.9645 54.368 55.666 53.9999 55.666Z" fill="white"/>
</g>
</g>
<defs>
<clipPath id="clip0">
<rect width="40" height="41" fill="white" transform="translate(23.999 18.9995)"/>
</clipPath>
<clipPath id="clip1">
<rect width="40" height="40" fill="white" transform="translate(24 18.9995)"/>
</clipPath>
</defs>
</svg>
