<svg width="106" height="89" viewBox="0 0 106 89" fill="none" xmlns="http://www.w3.org/2000/svg">
<path d="M98.5181 36.2684C98.5749 36.3542 98.6317 36.4401 98.7074 36.483C98.7642 36.5259 98.8399 36.5688 98.8967 36.5259C99.0859 36.3542 99.2942 36.3113 99.5024 36.3113C99.7485 36.3113 99.9756 36.3113 100.222 36.2684C100.468 36.2255 100.695 36.3113 100.941 36.3113C101.111 36.3113 101.282 36.3971 101.433 36.5688C101.566 36.6976 101.698 36.6547 101.831 36.5259C101.906 36.483 101.963 36.483 102.02 36.5259C102.152 36.6547 102.266 36.7405 102.417 36.7405C102.55 36.7405 102.682 36.7835 102.815 36.8264C102.891 36.8264 103.004 37.1268 103.004 37.2985C103.023 37.599 103.061 37.8994 103.042 38.1999C103.042 38.672 103.004 39.1012 102.928 39.5734C102.891 39.788 102.928 40.0455 103.023 40.1743C103.099 40.3031 103.193 40.4318 103.269 40.5606C103.383 40.7752 103.44 41.0327 103.421 41.3761C103.402 41.5049 103.383 41.6766 103.364 41.8053C103.326 42.0629 103.383 42.1916 103.515 42.2346C103.686 42.2346 103.856 42.2346 104.026 42.2775C104.083 42.2775 104.159 42.3633 104.216 42.4492C104.348 42.7067 104.462 43.0072 104.556 43.3076C104.594 43.4364 104.632 43.5652 104.632 43.7368C104.651 44.0373 104.651 44.3378 104.67 44.6382C104.67 44.9387 104.632 45.2391 104.556 45.4966C104.5 45.7113 104.443 45.8829 104.386 46.0976C104.329 46.2692 104.348 46.4839 104.462 46.6985C104.537 46.8702 104.613 46.9989 104.689 47.1706C104.783 47.3852 104.84 47.6857 104.859 47.9861C104.859 48.3724 104.859 48.7587 104.859 49.145C104.859 49.9606 104.859 50.0035 104.5 50.261C104.462 50.3039 104.424 50.3039 104.405 50.3468C104.386 50.4327 104.405 50.5615 104.481 50.6473C104.613 50.7761 104.727 50.9478 104.802 51.2053C104.821 51.2482 104.84 51.3341 104.84 51.4199C104.84 51.5057 104.84 51.5916 104.84 51.6345C104.802 51.8491 104.765 52.0637 104.727 52.2783C104.765 52.5788 104.897 52.7505 104.973 53.008C105.011 53.1368 105.011 53.3085 104.973 53.4372C104.897 53.6948 104.783 53.8665 104.651 53.9523C104.575 53.9952 104.556 54.1669 104.575 54.3386C104.689 54.8537 104.67 55.3687 104.556 55.8838C104.537 55.9696 104.518 56.0126 104.518 56.0984C104.462 56.5706 104.481 56.9998 104.575 57.429C104.613 57.5578 104.651 57.6865 104.689 57.8153C104.802 58.2445 104.821 58.3733 104.518 58.6737C104.367 58.8454 104.197 58.9313 104.045 59.06C104.007 59.06 103.988 59.1459 103.969 59.1888C103.951 59.2746 104.007 59.4034 104.083 59.4463C104.216 59.4893 104.348 59.5322 104.481 59.618C104.575 59.6609 104.67 59.7897 104.727 60.0043C104.746 60.0472 104.783 60.1331 104.764 60.2189C104.746 60.6911 104.632 61.0774 104.651 61.5495C104.689 62.0217 104.613 62.5367 104.499 63.0089C104.443 63.1806 104.462 63.481 104.424 63.6956C104.386 63.9102 104.329 64.0819 104.216 64.1678C104.159 64.2536 104.102 64.3395 104.045 64.3824C103.951 64.5111 103.932 64.7687 104.026 64.9404C104.178 65.1979 104.234 65.5413 104.14 65.9276C104.102 66.0993 104.102 66.228 104.14 66.3568C104.178 66.4856 104.178 66.6572 104.159 66.786C104.121 67.0006 104.064 67.2152 104.064 67.4298C104.045 67.8161 103.951 68.1595 103.969 68.5458C103.969 68.8892 103.951 69.1038 103.799 69.2755C103.742 69.3184 103.686 69.4472 103.648 69.576C103.591 69.7047 103.572 69.8335 103.61 69.9622C103.629 70.0052 103.667 70.0481 103.704 70.0481C103.875 70.0481 104.045 70.0481 104.216 70.091C104.329 70.091 104.405 70.3486 104.386 70.5202C104.329 71.0353 104.234 71.5504 104.026 71.8508C103.969 71.9367 103.95 72.0654 103.913 72.1942C103.894 72.2371 103.894 72.323 103.875 72.4088L103.856 72.4088C103.648 72.4947 103.458 72.6234 103.326 73.0097C103.269 73.1814 103.25 73.4819 103.307 73.6535C103.402 73.9969 103.553 74.1686 103.667 74.4691C103.723 74.6408 103.78 74.8554 103.837 75.0271C103.856 75.07 103.856 75.1558 103.856 75.2417C103.894 75.628 103.761 76.0572 103.61 76.1001C103.439 76.143 103.269 76.186 103.099 76.2289C103.023 76.2289 102.966 76.3147 102.909 76.3576C102.834 76.4006 102.739 76.7439 102.777 76.8727C102.834 76.9585 102.89 77.0015 102.966 76.9156C103.023 76.8727 103.099 76.7869 103.155 76.7439C103.212 76.701 103.307 76.701 103.345 76.7439C103.572 77.0015 103.799 77.0873 104.026 77.1302C104.064 77.1302 104.083 77.2161 104.102 77.259C104.121 77.3449 104.083 77.4736 104.007 77.5165C103.78 77.6024 103.534 77.6453 103.326 77.9028C103.212 78.0745 103.061 78.0316 102.928 78.0745C102.796 78.1174 102.663 78.0745 102.531 78.2033C102.455 78.2462 102.323 78.5467 102.323 78.6754C102.323 78.8042 102.36 78.933 102.417 79.0617C102.474 79.1476 102.531 79.2763 102.588 79.2763C102.682 79.3193 102.796 79.3622 102.89 79.3622C103.269 79.4051 103.629 79.4051 104.007 79.448C104.045 79.448 104.083 79.491 104.102 79.5339C104.14 79.6197 104.121 79.7485 104.064 79.8773C103.95 80.0489 103.837 80.2206 103.742 80.4352C103.61 80.6928 103.458 80.8215 103.288 80.8645C103.193 80.9074 103.08 80.9503 102.985 80.9932C102.928 81.0361 102.872 81.1649 102.853 81.2937C102.72 81.2508 102.588 81.3366 102.474 81.4654C102.379 81.5512 102.285 81.5083 102.19 81.4654C101.925 81.2937 101.66 81.2508 101.414 81.4224C101.395 81.4224 101.357 81.5083 101.357 81.5512C101.357 81.6371 101.357 81.7229 101.376 81.7658C101.414 81.8517 101.471 81.9804 101.528 82.0234C101.887 82.238 102.247 82.238 102.607 82.1092C102.663 82.1092 102.739 82.0234 102.777 81.8946C102.815 81.8087 102.815 81.6371 102.834 81.4654C102.834 81.3795 102.834 81.2937 102.834 81.2508C102.89 81.2937 102.947 81.3795 102.985 81.5083C103.023 81.7229 103.08 81.8946 103.118 82.1092C103.174 82.4097 103.174 82.5384 103.118 82.7101C103.023 82.9247 102.928 83.1393 102.834 83.311C102.758 83.4398 102.663 83.5686 102.569 83.5686C102.398 83.5686 102.247 83.6115 102.076 83.6115C101.906 83.6115 101.755 83.5256 101.603 83.311C101.546 83.2252 101.49 83.1822 101.414 83.1393C101.395 83.0964 101.395 83.0106 101.376 82.9676C101.357 82.9247 101.338 82.9247 101.319 82.9247C101.319 83.0106 101.357 83.0964 101.433 83.0964C101.414 83.4827 101.471 83.8261 101.584 84.1695C101.736 84.5987 101.925 84.9421 102.171 84.985C102.228 84.985 102.304 85.0708 102.36 85.1137C102.417 85.1996 102.474 85.2854 102.512 85.4142C102.55 85.543 102.531 85.7147 102.455 85.7576C102.266 85.9293 102.076 86.058 101.887 86.1868C101.83 86.2297 101.755 86.2726 101.698 86.2726C101.49 86.3585 101.281 86.3156 101.092 86.4872C100.941 86.616 100.789 86.7877 100.619 86.8306C100.468 86.8735 100.486 86.9165 100.619 87.2169C100.733 87.4745 100.751 87.5174 100.676 87.7749C100.657 87.8608 100.638 87.9037 100.638 87.9895C100.543 88.5046 100.392 88.7192 100.051 88.5904C99.9564 88.5475 99.8618 88.3758 99.8997 88.1183C99.9375 87.8178 99.7861 87.5174 99.9186 87.2598C99.9754 87.174 100.032 87.0882 100.032 86.9165C100.032 86.9165 99.9754 86.8735 99.9565 86.8306C99.824 86.7877 99.6915 86.7877 99.559 86.7448C99.4643 86.7448 99.3507 86.7448 99.2561 86.8306C99.0668 87.0452 98.8775 87.174 98.6693 87.1311C98.5368 87.1311 98.4043 87.1311 98.2529 87.174C98.1961 87.174 98.1014 87.2169 98.0636 87.3028C98.0257 87.3886 98.0257 87.5603 98.0257 87.732C98.0257 87.9037 97.9879 87.9895 97.8932 88.0324C97.7229 88.0324 97.5525 88.0324 97.3821 88.0754C97.2686 88.0754 97.1739 87.9895 97.0793 87.9037C97.0036 87.8178 96.9468 87.8178 96.89 87.9037C96.6628 88.1183 96.4168 88.1183 96.1896 88.1183C96.1139 88.1183 96.0382 88.1183 96.0003 88.0324C95.6785 87.5603 95.281 87.6461 94.9214 87.3457C94.751 87.3027 94.5807 87.3027 94.4103 87.2598C94.3157 87.2169 94.2021 87.174 94.1264 87.0452C94.0317 86.9164 93.956 86.7877 93.9182 86.5731C93.956 86.4443 93.9939 86.3585 94.0507 86.2297C94.0696 86.1868 94.1075 86.1438 94.1264 86.058C94.2021 85.8434 94.1832 85.5859 94.0885 85.5C93.8425 85.3283 93.6153 85.3283 93.426 85.7146C93.2367 86.1009 93.0664 86.3155 92.8771 86.4872C92.8203 86.5301 92.7446 86.616 92.6878 86.5731C92.4985 86.4443 92.3471 86.616 92.1956 86.7447C92.1199 86.7877 92.0631 86.8306 91.9874 86.7447C91.7981 86.5301 91.5899 86.5301 91.4006 86.7447C91.0978 86.7877 90.7949 86.8306 90.4921 86.573C90.3596 86.4443 90.227 86.4443 90.0945 86.4443C89.8863 86.4014 89.697 86.3155 89.5078 86.1438C89.4131 86.058 89.3185 86.0151 89.2238 85.9292C89.0913 85.8434 88.9588 85.8434 88.8263 85.7575C88.5992 85.5858 88.372 85.5 88.126 85.5C87.7852 85.5 87.4445 85.4571 87.1038 85.4571C86.8577 85.4571 86.6306 85.4141 86.3845 85.4141C86.1763 85.4141 85.987 85.3283 85.7788 85.1995C85.5138 85.0278 85.2488 84.9849 84.9838 85.2854C84.8891 85.3712 84.7945 85.3712 84.6809 85.3283C84.5863 85.2424 84.4916 85.2424 84.3781 85.3283C83.9805 85.6717 83.583 85.5858 83.1855 85.2424C83.053 85.1137 82.9205 85.1137 82.788 85.2424C82.523 85.5429 82.258 85.5429 81.993 85.2853C81.8605 85.1566 81.7469 85.0707 81.5955 85.0707C81.3305 85.0707 81.0466 85.0707 80.7816 85.1137C80.1759 85.1995 79.5512 85.0707 78.9455 84.9849C78.8698 84.9849 78.813 84.942 78.7562 84.899C78.6237 84.8132 78.4912 84.8561 78.3587 84.942C78.0937 85.0707 77.8287 85.0278 77.5637 84.7703C77.4312 84.6415 77.2987 84.5986 77.1662 84.6415C76.958 84.6844 76.7687 84.6415 76.5794 84.384C76.4847 84.2552 76.3901 84.2552 76.2955 84.384C76.0872 84.6415 75.8412 84.7273 75.614 84.6844C75.4437 84.6415 75.2733 84.5986 75.1029 84.5986C74.9894 84.5986 74.8947 84.5127 74.819 84.4269C74.6865 84.2981 74.5729 84.2123 74.4215 84.2552C74.1944 84.2981 73.9483 84.2552 73.7211 84.4698C73.6265 84.5556 73.5318 84.5127 73.4372 84.3839C73.3426 84.2981 73.2479 84.1693 73.1533 84.1693C72.8126 84.2123 72.4718 84.2123 72.1311 84.2552C72.0743 84.2552 71.9986 84.341 71.9418 84.3839C71.6768 84.5985 71.4118 84.5985 71.1468 84.4269C71.1279 84.4269 71.109 84.341 71.109 84.2981C71.1279 84.2552 71.1468 84.1693 71.1847 84.1693C71.4497 84.1693 71.62 83.783 71.8093 83.4826C71.8661 83.3967 71.9229 83.3967 71.9986 83.4397C72.1311 83.5684 72.2636 83.5684 72.3961 83.4397C72.5476 83.268 72.7179 83.1821 72.8883 83.225C73.2668 83.268 73.6454 83.268 74.0051 83.1821C74.0619 83.1821 74.1376 83.0963 74.1944 83.0104C74.2511 82.9246 74.289 82.7958 74.3079 82.6671C74.3269 82.5383 74.289 82.4095 74.2133 82.3237C74.024 82.1091 73.8536 81.8515 73.6454 81.8515C73.3426 81.8515 73.1344 81.5082 72.9829 80.9073C72.9261 80.6497 72.8694 80.6497 72.7369 80.7356C72.5665 80.8214 72.3961 80.9073 72.2447 81.036C72.1122 81.1648 71.9797 81.1648 71.8472 81.036C71.7904 80.9931 71.7147 80.9502 71.6579 80.9502C71.4497 80.9072 71.2415 80.9502 71.09 81.2935C71.0333 81.3794 70.9954 81.5082 70.9386 81.594C70.7872 81.8086 70.6357 81.8945 70.4654 81.7657C70.4086 81.7228 70.3329 81.6369 70.2761 81.594C70.1815 81.5082 70.0679 81.5082 69.9732 81.594C69.8786 81.6798 69.784 81.6369 69.6704 81.5511C69.5 81.4223 69.3297 81.3794 69.1593 81.4652C69.0647 81.5081 68.97 81.6369 68.9132 81.8086C68.8186 82.1091 68.705 82.1091 68.5914 81.8086C68.5347 81.6369 68.4779 81.4223 68.4211 81.2506C68.3454 81.036 68.2507 81.036 68.1561 81.2077C68.0993 81.2935 68.0614 81.4652 68.0236 81.5511C67.9479 81.7228 67.8532 81.8086 67.7396 81.8086C67.5693 81.8515 67.3989 81.8944 67.2286 81.7228C66.9446 81.4652 66.6228 81.4223 66.3768 81.036C66.2821 80.9072 66.1875 80.9501 66.0928 81.0789C65.9036 81.3364 65.7143 81.3794 65.506 81.2077C65.3357 81.036 65.1843 80.9931 65.0139 81.1648C64.8246 81.3364 64.6164 81.4223 64.4271 81.4652C64.2189 81.5081 64.0485 81.7657 63.8403 81.8086C63.6889 81.8086 63.5753 82.0232 63.4996 82.2807C63.2914 82.9246 62.9696 83.2679 62.6478 83.5255C62.591 83.5684 62.4964 83.5684 62.4585 83.5255C62.2124 83.225 61.9285 83.225 61.6635 83.225C61.5499 83.225 61.3985 82.9675 61.3796 82.667C61.3606 82.5382 61.3417 82.3666 61.3417 82.1949C61.3417 81.7656 61.2849 81.4652 61.0767 81.3793C60.9063 81.3364 60.7549 81.1647 60.6035 80.9501C60.5467 80.8643 60.471 80.7784 60.471 80.6497C60.471 80.5209 60.5656 80.478 60.6413 80.4351C60.736 80.3921 60.8496 80.3492 60.9442 80.3063C60.9821 80.3063 61.001 80.2204 61.0199 80.1775C61.001 80.1346 60.9821 80.0917 60.9442 80.0488C60.8496 79.9629 60.736 80.0058 60.6413 80.0058C60.5088 80.0058 60.3763 80.0058 60.2438 79.8341C60.1492 79.7054 60.1303 79.4478 60.0546 79.3191C59.9788 79.1474 59.8842 79.1045 59.7895 79.2332C59.7328 79.3191 59.676 79.4049 59.6381 79.5337C59.6003 79.6625 59.5624 79.7912 59.5245 79.92C59.4867 80.0917 59.4299 80.1775 59.392 80.0917C59.3731 80.0488 59.3542 79.9629 59.3353 79.92C59.3163 79.7912 59.2974 79.6195 59.2785 79.4908C59.2217 79.1903 58.9756 79.0615 58.8431 79.2762C58.7485 79.4049 58.7106 79.6195 58.6349 79.7912C58.5781 79.92 58.5213 79.9629 58.4645 80.0058C58.2563 80.0917 58.067 80.0917 57.8777 79.8341C57.8399 79.7912 57.821 79.7483 57.7831 79.7054C57.5938 79.5337 57.4234 79.5766 57.3288 79.9629C57.2342 80.3921 57.1017 80.7355 56.9124 80.9501C56.8556 81.036 56.7799 81.1218 56.7799 81.2506C56.7799 81.3793 56.8745 81.4223 56.9313 81.4652C57.0259 81.5081 57.1395 81.5081 57.2341 81.551C57.3288 81.5939 57.4234 81.7227 57.4613 81.9373L57.4802 81.8944C57.3856 81.9802 57.2909 82.0661 57.1963 82.1948C57.1395 82.2807 57.0638 82.2807 57.007 82.2378C56.8556 82.109 56.7041 81.9373 56.5149 81.9373C56.3824 81.9373 56.2499 81.9373 56.0984 81.8944C56.0227 81.8944 55.9659 81.8085 55.947 81.7227C55.947 81.6798 55.9659 81.551 55.9849 81.5081C56.0984 81.3364 56.1931 81.1218 56.2309 80.8213C56.2499 80.7355 56.2499 80.6926 56.2688 80.6067C56.3256 80.435 56.3256 80.3063 56.2499 80.2204C56.2309 80.1775 56.1931 80.1775 56.1552 80.1775C55.8902 80.3921 55.6441 80.5209 55.3602 80.478C55.1898 80.435 55.0195 80.478 54.8491 80.5209C54.6788 80.5638 54.5084 80.6067 54.357 80.7784C54.2245 80.9501 54.092 80.8643 53.9784 80.7355C53.9405 80.6926 53.9216 80.6496 53.8838 80.6496C53.7134 80.5209 53.5998 80.3063 53.5052 79.92C53.4484 79.7054 53.3538 79.6624 53.2402 79.6195C53.1645 79.6195 53.0888 79.6195 53.0509 79.7483C53.032 79.877 53.0888 80.0058 53.1645 80.0916C53.2402 80.1775 53.2591 80.3492 53.2023 80.435C53.032 80.6926 52.8805 80.993 52.7291 81.2935C52.5587 81.6368 52.3127 81.551 52.1612 81.2935C51.9719 80.9501 51.7827 80.6067 51.7069 80.0487C51.8962 80.0487 52.1045 80.0487 52.2937 80.0487C52.3695 80.0487 52.4073 79.92 52.4073 79.8341C52.4073 79.7912 52.3695 79.7053 52.3316 79.7053C52.2748 79.6624 52.1991 79.6624 52.1423 79.6624C51.972 79.6195 51.8205 79.7912 51.7448 80.1346C51.4419 80.1346 51.1391 80.1775 50.8173 80.1346C50.6091 80.1346 50.4009 80.0916 50.2116 80.0487C50.0601 80.0058 50.0601 79.9629 50.0034 79.4478C50.0034 79.4049 49.9655 79.319 49.9466 79.2761C49.7951 79.0615 49.4923 79.1473 49.3787 79.4049C49.3598 79.4478 49.3219 79.4907 49.303 79.5766C49.2083 79.9629 49.0569 80.0487 48.8676 80.0916C48.7351 80.1346 48.6026 80.1346 48.4701 80.1775C48.4323 80.1775 48.3944 80.2633 48.3944 80.3062C48.3944 80.435 48.4323 80.5208 48.508 80.5638C48.6783 80.6496 48.8487 80.5638 48.9812 80.8642C49.0001 80.9072 49.0191 81.0359 49.0001 81.0788C49.0001 81.1218 48.9433 81.2505 48.9244 81.2505C48.6973 81.1218 48.4701 81.0359 48.243 81.0359C48.0158 81.0359 48.0158 80.993 47.9212 80.435C47.9212 80.3921 47.8833 80.3062 47.8644 80.3062C47.3912 80.2204 46.918 80.2204 46.4447 80.1345C46.369 80.1345 46.3122 80.0058 46.2933 79.9199C46.2555 79.7482 46.388 79.4478 46.4637 79.4478C46.5015 79.4478 46.5394 79.4478 46.5583 79.4478C46.6151 79.4907 46.6908 79.5766 46.7476 79.5766C46.8044 79.6195 46.8801 79.6195 46.9558 79.5766C47.0694 79.5766 47.1262 79.3619 47.183 79.1473C47.2208 78.9327 47.2019 78.7181 47.1262 78.5464C47.1073 78.5035 47.0694 78.4177 47.0505 78.4177C46.9558 78.3747 46.8422 78.3747 46.7476 78.3747C46.4637 78.2889 46.2176 78.5035 46.0094 78.9756C45.9526 79.1044 45.8769 79.0615 45.8201 78.9756C45.7444 78.804 45.6687 78.6752 45.593 78.5035C45.5362 78.4177 45.4983 78.2889 45.4415 78.203C45.3279 78.0314 45.1765 78.0743 45.0819 78.3318C45.0251 78.5035 44.9683 78.7181 44.9115 78.8898C44.9115 78.8898 44.8547 78.8898 44.8547 78.8469C44.7979 78.4177 44.779 77.9455 44.8358 77.4734C44.8737 77.13 44.7979 76.9583 44.6276 76.9583C44.5519 76.9583 44.4951 76.9583 44.4194 77.0012C44.3058 77.0441 44.2301 77.1729 44.1922 77.4304C44.1544 77.6451 44.1544 77.8597 44.1165 78.0743C44.0976 78.203 44.0408 78.3747 44.0029 78.4606C43.8136 78.761 43.6054 79.0615 43.4161 79.3619C43.2458 79.6624 43.0376 79.7053 42.8293 79.6624C42.6968 79.6195 42.5643 79.4907 42.4318 79.4478C42.3372 79.4048 42.2425 79.5336 42.129 79.4478C41.864 79.2332 41.599 79.2761 41.3529 79.6195C41.2961 79.7053 41.2204 79.7911 41.2204 79.9199C41.2393 80.0487 41.315 80.0916 41.3907 80.0916C41.4854 80.0916 41.599 80.1345 41.6936 80.1345C41.7125 80.1345 41.7504 80.2204 41.7693 80.2633C41.7883 80.3491 41.7504 80.4779 41.6557 80.4779C41.4097 80.4779 41.1825 80.4779 40.9365 80.4779C40.8418 80.4779 40.7661 80.2633 40.8229 80.0058C40.8797 79.6624 40.8418 79.4048 40.7093 79.2332C40.6525 79.1473 40.5768 79.0615 40.5957 78.8898C40.5957 78.761 40.6715 78.6752 40.7472 78.6752C41.0122 78.6322 41.2961 78.6322 41.5611 78.6322C41.6179 78.6322 41.6936 78.5893 41.7504 78.5464C41.8261 78.5035 41.864 78.3747 41.845 78.203C41.845 78.1172 41.8072 78.0313 41.7883 78.0313C41.6558 78.0743 41.5233 78.0313 41.3908 77.9026C41.2961 77.8167 41.2015 77.8167 41.0879 77.8596C40.9932 77.9455 40.8986 78.0313 40.804 78.1172C40.7472 78.1601 40.6525 78.203 40.6147 78.1601C40.2929 77.8596 39.9522 77.8167 39.6115 77.8167C39.4032 77.8167 39.195 77.8596 39.0057 77.9026C38.9489 77.9026 38.8732 78.0313 38.8354 78.1172C38.7218 78.3318 38.665 78.5893 38.5893 78.8468C38.4946 79.1902 38.2675 79.2761 38.135 79.0615C38.0214 78.8898 37.9268 78.6752 37.8132 78.5035C37.7186 78.3747 37.6239 78.3318 37.5293 78.4176C37.34 78.6322 37.1507 78.7181 36.9425 78.7181C36.6775 78.6751 36.3936 78.6751 36.1285 78.7181C35.6932 78.761 35.2389 78.761 34.8035 78.7181C34.5575 78.6751 34.3303 78.7181 34.1032 78.9756C34.0464 79.0185 33.9707 78.9756 33.9139 78.9327C33.8192 78.8468 33.7057 78.8468 33.611 78.9327C33.5164 78.9756 33.4217 79.0185 33.3081 78.9756C33.1756 78.8897 33.0431 78.8897 32.9106 79.0185C32.7781 79.1473 32.6456 79.1902 32.5131 79.2331L32.5321 79.276C32.4753 78.9327 32.3428 78.8468 32.1913 78.8897C32.1156 78.8897 32.0588 78.9327 31.9831 78.9756C31.6235 79.3619 31.2449 79.2331 30.8853 79.1902C30.8285 79.1902 30.7528 79.1043 30.696 79.0614C30.5256 78.8897 30.3742 78.9327 30.2038 79.1043C30.0524 79.276 29.8631 79.2331 29.7117 79.319C29.5981 79.3619 29.5224 79.4906 29.4656 79.6623C29.3142 80.2632 29.087 80.2203 28.8409 80.1345C28.8031 80.1345 28.7842 80.0915 28.7463 80.0486C28.6895 80.0057 28.6138 79.9199 28.557 79.834C28.4245 79.7052 28.292 79.7052 28.1595 79.7052C28.027 79.7482 27.8945 79.7911 27.762 79.9199C27.6674 80.0057 27.5727 80.0057 27.4591 79.9198C27.232 79.7052 26.9859 79.7052 26.7588 79.9198C26.6073 80.0915 26.437 80.1345 26.2666 80.1345C25.9827 80.1345 25.7366 80.3061 25.5473 80.8212C25.5095 80.95 25.4338 81.0358 25.377 81.0358C25.0362 81.0358 24.6955 81.0787 24.3548 80.9929C24.2602 80.95 24.1655 80.8212 24.0709 80.7783C23.9762 80.7354 23.8627 80.8212 23.768 80.8212C23.4084 80.4778 23.0298 80.5637 22.6512 80.6066C22.5566 80.6066 22.443 80.6924 22.3484 80.7783C22.2537 80.8641 22.1591 80.8641 22.0455 80.7783C21.9509 80.6924 21.8373 80.6924 21.7426 80.7783C21.6101 80.907 21.4776 80.8212 21.3451 80.7353C21.118 80.5637 20.8719 80.5637 20.6448 80.7783C20.4176 80.9929 20.1715 81.0787 19.9444 80.8641C19.6794 80.6495 19.4144 80.6066 19.1494 80.5636C18.8087 80.5207 18.468 80.5207 18.1272 80.5207C17.8433 80.5636 17.5972 80.392 17.3512 80.0486C17.2754 79.9627 17.2565 79.834 17.2944 79.6623C17.3322 79.5335 17.389 79.4477 17.4458 79.4047C17.5026 79.3618 17.5783 79.4047 17.6351 79.4906C17.7676 79.6194 17.9001 79.6623 18.0326 79.5335C18.203 79.3618 18.3544 79.3618 18.5248 79.5335C18.5815 79.5764 18.6573 79.6194 18.714 79.6194C19.1305 79.6623 20.4366 79.6194 21.0612 79.4906C21.0801 79.4906 21.0991 79.4048 21.1369 79.4048C21.118 79.3618 21.0991 79.276 21.0612 79.2331C20.8908 79.1472 20.7205 79.1043 20.5691 78.8897C20.4933 78.7609 20.3798 78.718 20.2851 78.6751C20.1526 78.5892 20.0201 78.5892 19.8876 78.5034C19.6983 78.3746 19.4901 78.2888 19.2819 78.2888C18.8465 78.2459 18.3922 78.2029 17.9569 78.2029C17.7108 78.2029 17.4837 78.1171 17.2565 77.9025C17.1051 77.7308 16.9158 77.7737 16.7644 77.7308C16.7265 77.7308 16.6887 77.6449 16.6887 77.602C16.6697 77.4732 16.7265 77.3874 16.8022 77.3445C16.859 77.3016 16.9347 77.3016 16.9915 77.2157C17.0672 77.1299 17.0862 77.0011 17.0862 76.8723C17.0862 76.7006 17.0483 76.5719 16.9726 76.529C16.8022 76.4002 16.6319 76.4431 16.4615 76.4002C16.4047 76.4002 16.329 76.3143 16.2722 76.2285C16.2154 76.1427 16.1587 76.0139 16.1965 75.8422C16.2154 75.6705 16.2912 75.5847 16.3669 75.6276C16.4994 75.7134 16.6319 75.8422 16.7644 75.8851C16.9726 75.928 17.1808 75.928 17.3701 75.9281C17.4269 75.9281 17.5026 75.8851 17.5594 75.8422C17.5973 75.8422 17.6351 75.7564 17.6351 75.7134C17.6351 75.6276 17.6162 75.5418 17.5783 75.4988C17.3322 75.1984 17.0862 74.9408 16.8022 74.9408C16.5372 74.9408 16.2722 74.855 16.0072 74.6404C15.7801 74.4687 15.534 74.4687 15.3069 74.3828C15.269 74.3828 15.2312 74.297 15.2312 74.2541C15.2122 74.0824 15.2501 73.9536 15.3069 73.8678C15.3637 73.7819 15.4204 73.6961 15.4772 73.6532C15.6476 73.5673 15.818 73.5244 15.9883 73.6961C16.2533 73.9107 16.5183 73.9536 16.7833 73.9536C17.4269 73.9536 18.0705 73.9966 18.733 73.9536C19.2062 73.9536 19.6794 73.9536 20.1716 73.9107C20.2473 73.9107 20.3041 73.782 20.2662 73.6961C20.2473 73.6532 20.2094 73.5673 20.1905 73.5673C20.0201 73.5244 19.8498 73.5244 19.6794 73.5244C19.5469 73.5244 19.4144 73.4815 19.2819 73.3527C19.1305 73.181 18.9601 73.1381 18.7898 73.1381C18.4112 73.0952 18.0326 73.0952 17.673 73.0523C17.5405 73.0523 17.389 73.0093 17.2755 72.8806C17.0483 72.623 16.8212 72.5372 16.5751 72.5801C16.329 72.623 16.1019 72.5801 15.8747 72.3226C15.818 72.2367 15.7422 72.2367 15.6855 72.1938C15.553 72.1509 15.4205 72.1509 15.269 72.1509C15.0608 72.1509 14.8715 72.065 14.6633 71.8934C14.5687 71.8075 14.474 71.7646 14.3604 71.7646C14.1522 71.7217 13.944 71.6787 13.7547 71.6787C13.5844 71.6787 13.414 71.5929 13.2626 71.4641C13.1301 71.3354 12.9976 71.3354 12.8651 71.3354C12.3918 71.2924 11.9186 71.2066 11.4454 71.1637C11.2372 71.1637 11.0479 70.992 10.8586 70.7774C10.8018 70.6915 10.745 70.6057 10.745 70.4769C10.745 70.434 10.8018 70.3911 10.8208 70.3481C10.9911 70.3052 11.1615 70.2623 11.3318 70.2623C11.7483 70.3052 12.1458 70.3482 12.5622 70.3052C12.7326 70.3052 12.9029 70.3482 13.0733 70.3482C13.2436 70.3482 13.414 70.434 13.5654 70.5628C13.6601 70.6486 13.7547 70.6915 13.8683 70.6915C14.1144 70.7345 14.3415 70.7345 14.5876 70.7345C14.7201 70.7345 14.7958 70.6486 14.9094 70.2623C14.9662 70.0906 15.023 69.876 15.1365 69.7902C15.1555 69.9189 15.1933 70.0477 15.2501 70.1336C15.269 70.1765 15.3069 70.1765 15.3258 70.1765C15.3447 70.1765 15.3826 70.1336 15.4015 70.0906C15.4205 70.0048 15.3826 69.9189 15.3069 69.876C15.2501 69.876 15.1933 69.8331 15.1176 69.8331C15.0987 69.6614 15.0987 69.5326 15.0797 69.361C15.0608 69.1893 15.023 69.0605 14.9472 69.0176C14.6822 68.803 14.4172 68.8459 14.1712 68.4596C14.0008 68.3737 13.8304 68.4596 13.679 68.5884C13.5844 68.6742 13.4897 68.5884 13.414 68.3308C13.3572 68.1591 13.3762 68.0304 13.4329 67.9445C13.4897 67.8587 13.5654 67.8158 13.6222 67.8158C14.0954 67.8158 14.5687 67.8158 15.0419 67.8158C15.1365 67.8158 15.1744 67.687 15.1555 67.6012C15.1365 67.5582 15.0987 67.5153 15.0608 67.5153C14.9283 67.4724 14.7958 67.4724 14.6444 67.4724C14.3415 67.4295 14.0387 67.4295 13.7358 67.3436C13.6033 67.3007 13.4708 67.1719 13.3762 66.9144C13.3572 66.8715 13.3383 66.7856 13.3194 66.6998C13.3194 66.6569 13.3383 66.571 13.3572 66.4852C13.433 66.2276 13.5655 66.0559 13.698 66.013C14.0387 65.9701 14.3794 65.9272 14.7201 65.9701C15.0987 65.9701 15.4773 65.9701 15.8369 65.9272C15.9316 65.9272 15.9694 65.7984 15.9505 65.7126C15.9316 65.6697 15.8937 65.5838 15.8748 65.5838C15.7423 65.5409 15.6098 65.498 15.4773 65.455C15.1933 65.1117 14.8905 65.0687 14.5876 65.0258C14.493 65.0258 14.3794 65.0258 14.2848 64.94C13.8683 64.5537 13.414 64.6395 12.9787 64.5108C12.903 64.5108 12.8462 64.4678 12.7894 64.382C12.7326 64.3391 12.6758 64.2532 12.619 64.1244C12.5622 63.9957 12.5433 63.8669 12.5812 63.7382C12.6001 63.6952 12.638 63.6094 12.6569 63.6094C12.7515 63.5665 12.8651 63.5665 12.9597 63.5665C13.0355 63.5665 13.0922 63.5235 13.149 63.3948C13.1869 63.3089 13.0923 62.9226 13.0165 62.8368C12.9598 62.7939 12.884 62.708 12.8272 62.6651C12.7326 62.6222 12.619 62.6222 12.5244 62.5793C12.4487 62.5793 12.373 62.4934 12.373 62.3646C12.354 62.2359 12.4108 62.0642 12.4676 61.9783C12.5244 61.8925 12.5812 61.8067 12.638 61.7637C12.7326 61.7208 12.8462 61.7208 12.9408 61.6779C13.0733 61.6779 13.2058 61.5491 13.3194 61.3345C13.3951 61.2058 13.4708 61.0341 13.5655 60.9482C13.6223 60.8624 13.698 60.8195 13.7548 60.8195C14.0008 60.7765 14.228 60.7765 14.4741 60.7765C14.6066 60.7765 14.7391 60.6907 14.8716 60.519C14.9284 60.4332 14.9851 60.3044 14.9851 60.1756C15.0041 60.0469 14.9473 59.961 14.8716 59.9181C14.7959 59.8752 14.7391 59.8752 14.6633 59.8752C14.5687 59.8322 14.4551 59.8322 14.3605 59.7893C14.1712 59.7035 13.963 59.5318 13.7737 59.4459C13.6033 59.3601 13.433 59.3601 13.2626 59.2743C13.1869 59.2313 13.1491 59.1026 13.168 58.9309C13.1869 58.7592 13.168 58.6304 13.0923 58.5446C12.9598 58.4587 12.8273 58.3729 12.6948 58.287C12.5623 58.1583 12.4298 58.1154 12.2973 58.0724C12.0512 58.0295 11.824 57.9866 11.578 57.9437C11.3887 57.9007 11.313 57.8149 11.3508 57.729C11.3887 57.6003 11.4455 57.5574 11.5212 57.5144C11.7105 57.4286 11.7105 57.4286 11.7105 57.1281C11.7105 56.7848 11.7483 56.656 11.843 56.656C12.2594 56.656 12.6569 56.6131 13.0733 56.6131C13.5087 56.6131 13.963 56.6131 14.3984 56.5702C14.493 56.5702 14.5876 56.4843 14.6823 56.3126C14.7391 56.1839 14.7769 56.0551 14.758 55.9263C14.758 55.8834 14.7202 55.7976 14.6823 55.7976C14.5877 55.7117 14.4741 55.7117 14.3984 55.583C14.1902 55.3254 13.9441 55.2396 13.7169 55.1537C13.6791 55.1537 13.6601 55.1108 13.6223 55.0679C13.5844 54.982 13.6223 54.8533 13.7169 54.8533C14.1523 54.8104 14.6066 54.7674 15.0419 54.6816C15.1366 54.6816 15.1744 54.5958 15.1366 54.467C15.1177 54.4241 15.0987 54.3382 15.0798 54.2953C14.8905 54.0807 14.7012 53.909 14.493 53.909C14.0766 53.8661 13.6791 53.8231 13.2626 53.7802C13.168 53.7802 13.0544 53.7802 12.9598 53.6944C12.7326 53.4798 12.5055 53.3939 12.2594 53.3939C12.0891 53.3939 11.9187 53.2652 11.7673 53.0935C11.5401 52.8789 11.2941 52.9218 11.0669 52.8359C10.9912 52.793 10.9344 52.7501 10.9344 52.6213C10.9344 52.5784 10.9723 52.4925 10.9912 52.4496C11.1994 52.1921 11.4076 51.9775 11.6726 51.9775C12.3162 51.9775 12.9598 51.9346 13.6034 51.8917C13.698 51.8917 13.8305 51.9346 13.9062 51.7629C13.9819 51.5912 13.9252 51.3337 13.9252 51.1191C13.9252 50.6898 13.9252 50.6469 13.8116 50.604C13.717 50.5611 13.6034 50.5611 13.5087 50.5611C13.433 50.5611 13.3762 50.5181 13.3005 50.5181C13.2437 50.4752 13.168 50.4752 13.1112 50.3894C12.903 50.046 12.6569 50.0889 12.4298 50.046C12.3351 50.0031 12.2973 49.9172 12.3352 49.7455C12.373 49.3592 12.2216 49.2734 12.1269 49.0588C12.0512 48.8871 12.0512 48.5866 12.1459 48.4579C12.1837 48.415 12.2027 48.372 12.2405 48.3291C12.4109 48.2862 12.5812 48.2433 12.7516 48.2003C12.9598 48.1574 13.0545 47.8999 13.0355 47.4278C13.0166 47.1702 12.9409 47.0415 12.8462 47.0844C12.7895 47.1273 12.7137 47.1702 12.657 47.2131C12.5055 47.299 12.392 47.1702 12.2784 46.9556C12.2216 46.8698 12.1837 46.741 12.1459 46.6122C12.0891 46.5264 12.0134 46.4835 11.9566 46.5264C11.7105 46.7839 11.4455 46.8698 11.1616 46.8268C10.8966 46.7839 10.6126 46.8268 10.3476 46.7839C10.253 46.7839 10.1394 46.741 10.0448 46.6551C9.95013 46.5693 9.85549 46.5693 9.74192 46.6122C9.64728 46.6551 9.55263 46.6981 9.43906 46.741C9.36335 46.7839 9.30655 46.6981 9.24977 46.5693C9.17406 46.3976 9.19299 46.183 9.21191 45.9255C9.24977 45.625 9.23085 45.4962 9.1362 45.3675C8.98478 45.1958 8.83334 44.9812 8.66298 44.9812C8.36012 44.9382 8.05726 44.8953 7.7544 44.8953C7.50832 44.8953 7.28118 44.8524 7.05403 44.6378C6.88367 44.509 6.71332 44.509 6.54296 44.509C5.59653 44.4661 4.63115 44.4232 3.68471 44.3373C3.59006 44.3373 3.55221 44.2086 3.53328 43.8652C3.53328 43.6935 3.51435 43.5647 3.41971 43.5218C3.079 43.393 2.73827 43.5218 2.39756 43.393C2.30291 43.3501 2.20826 43.2213 2.13255 43.0496C2.11361 43.0067 2.07577 42.9209 2.07577 42.878C2.0947 42.7063 2.17041 42.6204 2.2272 42.6633C2.41648 42.835 2.54899 42.7492 2.64363 42.3629C2.68149 42.2341 2.7572 42.1912 2.83292 42.1912C2.87077 42.1912 2.90863 42.1912 2.92756 42.2341C3.13578 42.5346 3.38186 42.5775 3.60901 42.4917C3.60901 42.5775 3.62792 42.6204 3.64685 42.7063C3.66579 42.7492 3.68471 42.7492 3.72257 42.7492C3.72257 42.6204 3.68472 42.5775 3.60901 42.5346C3.70365 42.1054 3.83615 41.762 4.04437 41.5903C4.29045 41.3328 4.53652 41.0752 4.82045 41.0752C4.99081 41.0752 5.16118 40.9465 5.31261 40.8177C5.50189 40.646 5.71011 40.7319 5.91832 40.6031C5.97511 40.5602 6.0319 40.4743 6.08869 40.3885C6.14547 40.3026 6.1644 40.131 6.14547 40.0022C6.14547 39.9593 6.08869 39.9164 6.05083 39.9164C5.4451 39.8305 4.82045 39.8305 4.21473 39.7876C3.64686 39.7447 3.06009 39.8305 2.47329 39.8305C2.13257 39.8305 1.79184 39.8305 1.45113 39.7017C1.41327 39.7017 1.37542 39.6588 1.35649 39.6588C1.28077 39.573 1.24292 39.4871 1.24292 39.3154C1.24292 39.1437 1.26184 39.015 1.35649 38.972C1.45113 38.9291 1.54577 38.8862 1.65935 38.8862C2.30293 38.8433 2.9465 38.8004 3.59009 38.7145C3.62795 38.7145 3.68473 38.6287 3.68473 38.6287C3.68473 38.5428 3.62794 38.457 3.55223 38.457C3.51437 38.457 3.47651 38.457 3.45758 38.457C3.11686 38.457 2.77616 38.4141 2.43543 38.457C1.96221 38.4999 1.48899 38.457 1.01577 38.4141C0.940058 38.4141 0.883266 38.2424 0.902195 38.1565C0.902195 38.1136 0.94006 38.0278 0.977917 38.0278C1.14827 37.9848 1.31864 37.9419 1.489 37.899C1.79186 37.8561 2.07579 37.5127 2.39758 37.5556C2.66258 37.5985 2.94651 37.5127 3.21152 37.4269C3.2683 37.4269 3.34402 37.341 3.4008 37.2981C3.43866 37.2552 3.4576 37.2122 3.47652 37.1693C3.53331 37.0406 3.55225 36.9118 3.51438 36.783C3.49545 36.7401 3.4576 36.6972 3.41974 36.6543C3.04117 36.6113 2.68151 36.5684 2.30294 36.5684C1.96222 36.5684 1.6215 36.5255 1.28078 36.5255C1.07256 36.5255 0.864352 36.4826 0.675067 36.4826C0.50471 36.4826 0.353268 36.2679 0.182911 36.3109C0.0314825 36.3538 -0.0252947 36.1821 0.0125635 35.9246C0.0693503 35.6241 0.107201 35.3666 0.0693453 35.0232C0.0693455 34.9803 0.0882822 34.8515 0.107211 34.8515C0.315426 34.5511 0.523648 34.3364 0.769719 34.2935C0.902219 34.2935 1.03472 34.2506 1.16722 34.1648C1.26186 34.1218 1.3565 33.9931 1.37543 33.7355C1.41329 33.3492 1.47009 33.0059 1.64045 32.7913C1.71616 32.7054 1.7351 32.5337 1.67831 32.405C1.52688 31.9757 1.39438 31.5465 1.35653 30.9885C1.3376 30.731 1.26188 30.6022 1.14831 30.5593C0.977949 30.5164 0.807593 30.4735 0.637236 30.4305C0.561514 30.4305 0.504729 30.3447 0.50473 30.2589C0.50473 30.2159 0.542587 30.1301 0.561516 30.0872C0.656159 30.0013 0.750802 29.8726 0.807588 29.7009C0.902232 29.4433 0.921169 29.1858 0.769742 28.9283C0.694029 28.7995 0.599379 28.6707 0.523658 28.542C0.50473 28.499 0.50473 28.4132 0.523659 28.3703C0.675095 28.1986 0.864388 28.2415 1.01582 28.1127C1.14832 28.0269 1.2619 27.8552 1.3944 27.8123C1.62154 27.7265 1.86762 27.7265 2.11369 27.7265C2.1894 27.7265 2.24619 27.6406 2.26512 27.5548C2.26512 27.5118 2.22726 27.426 2.20833 27.3831C1.82976 26.9109 1.82976 26.9109 1.45119 26.8251C1.31869 26.7822 1.18619 26.7822 1.05369 26.7392C0.92118 26.6963 0.826539 26.4388 0.82654 26.0954C0.826541 25.9237 0.921177 25.5803 0.996892 25.5374C1.07261 25.4945 1.1294 25.4516 1.18618 25.4516C1.5269 25.4516 1.84869 25.1511 2.17049 24.9365C2.2462 24.8936 2.30299 24.8078 2.28407 24.679C2.28407 24.6361 2.22727 24.5502 2.20834 24.5502C2.07585 24.4644 1.94335 24.4215 1.81085 24.3785C1.79192 24.3785 1.77298 24.2927 1.75405 24.2498C1.94334 24.0352 2.15156 24.121 2.35977 24.0781C2.45442 24.0351 2.568 23.9922 2.66265 23.9493C2.73836 23.9064 2.77621 23.7776 2.79514 23.6489C2.81407 23.4772 2.77621 23.3484 2.7005 23.3055C2.64371 23.2626 2.56799 23.1767 2.51121 23.1338C2.22728 22.8763 1.92442 22.7475 1.62157 22.7475C1.28085 22.7475 0.940125 22.7904 0.599405 22.6187C0.561548 22.6187 0.542612 22.5329 0.523684 22.4899C0.542613 22.447 0.561557 22.4041 0.580485 22.3612C0.599414 22.3183 0.637271 22.2753 0.675128 22.2753C1.09156 22.2753 1.47013 21.9749 1.84871 21.6315C1.86764 21.5886 1.9055 21.5457 1.9055 21.5027C1.9055 21.3311 1.86765 21.2023 1.81086 21.1164C1.67836 20.9448 1.54585 20.9448 1.41335 21.0306C1.33763 21.0735 1.28085 21.0306 1.243 20.9018C1.18621 20.6872 1.18621 20.3868 1.243 20.258C1.29979 20.1722 1.33764 20.0434 1.39443 20.0005C1.52693 19.9146 1.65943 19.8717 1.79193 19.8717C2.13265 19.8717 2.45444 19.5713 2.77623 19.3996C2.85195 19.3566 2.88981 19.2279 2.87088 19.142C2.85195 19.0991 2.81409 19.0562 2.77623 19.0133C2.56802 18.9703 2.3598 18.9274 2.17051 18.9274C2.03801 18.9274 1.90551 18.8416 1.77301 18.7128C1.64051 18.584 1.508 18.5411 1.3755 18.5411C1.16729 18.4982 0.978001 18.4982 0.769788 18.4123C0.675145 18.3694 0.656217 18.2836 0.675146 18.1119C0.694075 18.026 0.694075 17.9402 0.731933 17.9402C0.788718 17.8544 0.845497 17.7685 0.902283 17.7256C0.959068 17.6827 1.03479 17.6398 1.1105 17.6398C1.41337 17.5968 1.71623 17.5539 2.01909 17.511C2.2273 17.4681 2.43552 17.511 2.62481 17.4252C2.85196 17.2964 3.0791 17.1247 3.30625 16.953C3.38196 16.9101 3.43875 16.8242 3.47661 16.6955C3.60911 16.2233 3.87411 16.1375 4.06341 15.7941C4.12019 15.7083 4.15805 15.5795 4.13912 15.4078C4.13912 15.3649 4.10127 15.322 4.06341 15.279C4.00663 15.2361 3.9309 15.1932 3.87412 15.1932C3.74162 15.1503 3.60912 15.1503 3.47662 15.1503C3.43876 15.1503 3.4009 15.1074 3.4009 15.0215C3.38197 14.9357 3.41984 14.8069 3.51448 14.8069C3.76056 14.764 3.9877 14.764 4.23378 14.7211C4.44199 14.6781 4.63128 14.5923 4.82056 14.3777C4.87735 14.2918 4.95306 14.2489 5.00985 14.1631C5.29379 13.8197 5.59665 13.7339 5.89951 13.9914C5.97523 14.0343 6.03201 14.0772 6.0888 13.9914C6.24023 13.8626 6.41059 13.7768 6.58094 13.7339C6.77024 13.6909 6.84596 13.6051 6.78917 13.4763C6.73238 13.3905 6.67559 13.3046 6.59988 13.3046C6.52417 13.3046 6.46737 13.2188 6.42952 13.09C6.42952 13.0471 6.46737 12.9613 6.4863 12.9613C6.78917 12.8325 7.05417 12.4462 7.3381 12.2745C7.35703 12.2745 7.37597 12.1887 7.3949 12.1458C7.35704 12.1028 7.33811 12.0599 7.30026 12.017C7.09204 11.9311 6.88382 11.9311 6.69453 12.0599C6.06988 12.4033 6.06988 12.4462 5.71023 12.4462C5.53987 12.4462 5.36951 12.532 5.21808 12.7037C5.12344 12.7896 5.02879 12.8325 4.91521 12.8325C4.87736 12.8325 4.8395 12.8325 4.82057 12.7896C4.76378 12.7037 4.78271 12.6179 4.85843 12.4891C4.99094 12.2316 4.99093 12.1887 4.87736 12.017C4.82057 11.9311 4.74487 11.8453 4.74487 11.7165C4.74487 11.5878 4.80165 11.459 4.85843 11.3731C4.91523 11.2873 4.97201 11.2015 5.0288 11.1585C5.16131 11.1156 5.2938 11.0727 5.42631 11.0298C5.59666 10.9868 5.76702 10.9439 5.91845 10.7722C5.97523 10.7293 6.05095 10.6435 6.10773 10.6435C6.39167 10.6006 6.63775 10.4289 6.88383 10.1713C6.97847 10.0855 7.09204 10.0855 7.18669 10.0855C7.2624 10.0855 7.31919 10.0426 7.37597 9.9138C7.45169 9.74211 7.50848 9.5275 7.5842 9.44166C7.65992 9.35582 7.79241 9.48458 7.88705 9.35582C8.09527 9.14121 8.32242 8.88368 8.53064 8.66906C8.54957 8.62614 8.58743 8.5403 8.58743 8.49738C8.58743 8.36861 8.53064 8.28277 8.45493 8.28277C8.32242 8.28277 8.171 8.28276 8.05742 8.36861C7.79242 8.58322 7.52741 8.71198 7.26241 8.66906C6.92169 8.58321 6.58097 8.84074 6.25919 8.62613C6.24026 8.62613 6.22132 8.54029 6.20239 8.49737C6.22132 8.45445 6.24025 8.3686 6.27811 8.32568C6.37275 8.28276 6.48632 8.23983 6.58097 8.19691C6.71347 8.15399 6.84597 8.06815 6.95955 7.85354C7.01633 7.7677 7.0542 7.63893 7.11098 7.55308C7.20563 7.42432 7.28135 7.33847 7.39492 7.33847C7.56528 7.29555 7.73563 7.29556 7.90599 7.25263C8.01956 7.20971 8.07635 7.08094 8.11421 6.82341C8.18993 6.82341 8.24671 6.82341 8.32243 6.82341C8.36028 6.82341 8.37921 6.78049 8.41707 6.73757C8.436 6.69465 8.436 6.6088 8.436 6.6088C8.39814 6.48004 8.32243 6.48004 8.26564 6.52296C8.20886 6.60881 8.171 6.69465 8.15207 6.86634C8.05743 6.82341 7.94386 6.82341 7.86814 6.69464C7.84921 6.65172 7.81135 6.56588 7.81135 6.52296C7.79242 6.35127 7.83028 6.22251 7.88707 6.13666C7.92492 6.09374 7.94386 6.05081 7.98172 6.00789C8.171 5.87913 8.37922 5.92205 8.56851 5.70744C8.7578 5.53576 8.94709 5.40699 9.1553 5.27822C9.23102 5.23531 9.2878 5.19238 9.3446 5.2353C9.57174 5.36407 9.7421 5.10653 9.91246 4.89192C10.026 4.76316 10.1207 4.4627 10.2153 4.29102C10.291 4.16225 10.4046 4.07641 10.4803 3.94764C10.5182 3.8618 10.4803 3.69011 10.4993 3.51842C10.5371 3.17505 10.6885 3.17504 10.8021 3.04628C10.8589 2.96043 10.9346 2.96044 10.9914 3.13213C11.0671 3.30382 11.105 3.51843 11.2375 3.38966C11.3321 3.30381 11.4268 3.21797 11.5214 3.13213C11.7296 2.8746 11.9568 2.74583 12.2029 2.65999C12.3543 2.40246 12.5436 2.65999 12.695 2.53122C12.8464 2.35954 13.0168 2.35954 13.1872 2.35954C13.3575 2.35954 13.5279 2.35954 13.6982 2.35954C13.9443 2.40246 14.1715 2.2737 14.3986 2.05909C14.569 1.8874 14.7204 1.8874 14.8907 2.05909C15.0422 2.23078 15.2315 2.23078 15.3829 2.35955C15.5343 2.48832 15.6858 2.70292 15.8561 2.78877C16.0075 2.87462 16.0833 3.08922 16.159 3.38968C16.2158 3.60429 16.2725 3.77598 16.3672 3.90474C16.3861 3.94766 16.424 3.99059 16.4618 3.99059C16.67 3.94767 16.8404 3.73306 17.0486 3.73306C17.2379 3.69014 17.3326 3.43261 17.3704 3.00338C17.4083 2.61709 17.4651 2.57416 17.5597 2.78878C17.6165 2.91754 17.6354 3.04631 17.7111 3.00339C17.7301 3.00339 17.749 2.87462 17.7679 2.83169C17.8058 2.57416 17.8815 2.40247 17.9951 2.40247C18.2601 2.35955 18.5251 2.27371 18.7901 2.01618C18.8279 1.97326 18.8658 1.97326 18.8847 2.01619C19.0172 2.10202 19.1308 2.31664 19.2822 2.27372C19.4147 2.23079 19.5094 1.97326 19.6229 1.80157C19.6987 1.67281 19.8312 1.71573 19.9069 1.88742C20.0205 2.14495 20.153 2.40249 20.2097 2.78879C20.2097 2.83171 20.2097 2.96047 20.1908 3.0034C20.1719 3.04632 20.134 3.17509 20.1151 3.13216C19.9258 3.0034 19.7176 2.96047 19.5094 2.96047C19.3958 2.96047 19.3012 3.08924 19.2633 3.30385C19.1876 3.64722 19.0929 3.94767 18.9604 4.24813C18.809 4.54859 18.6386 4.80612 18.4115 4.80612C18.2033 4.80611 17.9951 4.84904 17.8058 4.84904C17.6354 4.84904 17.4651 4.93488 17.3136 5.06365C17.1243 5.23534 16.9161 5.19241 16.7079 5.10656C16.5375 5.02072 16.3861 4.84903 16.2158 4.80611C16.0832 4.76318 15.9507 4.76319 15.8182 4.93487C15.61 5.1924 15.364 5.27825 15.1368 5.32117C15.0989 5.32117 15.0611 5.32117 15.0422 5.32117C14.7014 5.23532 14.3607 5.40701 14.0579 5.75039C14.02 5.79331 14.0011 5.79331 13.9632 5.79331C13.8686 5.83623 13.8307 5.96499 13.9064 6.09376C14.0768 6.35129 14.2471 6.52299 14.4743 6.30837C14.5879 6.17961 14.7393 6.17961 14.8718 6.09377C15.0989 5.87916 15.3261 5.75039 15.5722 5.75039C16.935 5.79332 18.2979 5.66456 19.6608 5.66457C19.7554 5.66457 19.869 5.66457 19.9637 5.62164C20.134 5.5358 20.2854 5.36411 20.4558 5.32119C20.5883 5.32119 20.7208 5.32119 20.8722 5.27827C20.948 5.27827 21.0047 5.1495 20.9858 5.02074C20.9669 4.84905 20.8912 4.80613 20.8154 4.84906C20.7208 4.84906 20.6072 4.84905 20.5126 4.80612C20.3801 4.7632 20.3044 4.37691 20.3801 4.07645C20.418 3.94769 20.4369 3.776 20.4747 3.69015C20.6262 3.3897 20.6262 3.08924 20.5505 2.66002C20.4937 2.35957 20.6072 2.05912 20.7587 2.01619C20.8912 1.97327 21.0237 1.97326 21.1751 1.97326C21.3076 1.97327 21.4401 1.88743 21.5726 1.75866C21.743 1.62989 21.9133 1.58697 22.0648 1.75866C22.273 1.97327 22.4623 1.88743 22.6516 1.71575C22.7462 1.6299 22.8598 1.71575 22.9355 1.84451C22.9923 1.93036 23.0491 2.0162 23.0869 2.14497C23.2194 2.4025 23.3709 2.53127 23.5412 2.27374C23.6548 2.10205 23.7873 2.10204 23.9198 2.23081C24.1659 2.53127 24.4498 2.53127 24.7148 2.31666C24.7716 2.27374 24.8473 2.1879 24.9041 2.14498C25.1691 1.97329 25.4341 1.93037 25.6991 2.1879C25.8884 2.35958 26.0777 2.48836 26.2859 2.48836C26.4941 2.48836 26.7023 2.48836 26.8916 2.48836C27.0052 2.48837 27.0998 2.40252 27.1755 2.31667C27.308 2.14498 27.4216 2.10206 27.5541 2.23083C27.6488 2.31668 27.7434 2.31668 27.857 2.27375C27.9327 2.23083 27.9895 2.27375 28.0463 2.3596C28.1977 2.53129 28.3681 2.57421 28.5384 2.40252C28.6331 2.31668 28.7277 2.23083 28.8413 2.31668C28.9549 2.3596 29.0495 2.27376 29.1441 2.18791C29.2388 2.10207 29.3334 2.10208 29.447 2.145C29.6363 2.27376 29.8256 2.53129 30.0338 2.53129C30.2042 2.53129 30.3745 2.66006 30.5259 2.78883C30.5827 2.83176 30.6584 2.74591 30.7152 2.66007C30.8667 2.35961 31.056 2.145 31.2452 1.97331C31.3399 1.88747 31.4345 1.84455 31.5292 1.97331C31.6617 2.10208 31.7942 2.10209 31.9077 1.9304C32.1917 1.50117 32.4945 1.5441 32.7974 1.80163C33.0056 1.97332 33.2517 2.10209 33.3842 2.66008C33.4031 2.703 33.441 2.78885 33.4599 2.78885C33.4978 2.78885 33.5356 2.78884 33.5546 2.74592C33.7438 2.40255 33.9142 2.01625 34.1792 2.10209C34.1603 2.23086 34.1224 2.35963 34.1035 2.4884C34.0467 2.78885 34.0656 2.91762 34.1792 2.91762C34.236 2.91762 34.3117 2.91761 34.3685 2.87469C34.4442 2.83177 34.4821 2.74592 34.501 2.61716C34.5199 2.44547 34.4821 2.31671 34.4253 2.23086C34.3306 2.10209 34.236 2.10209 34.1413 2.10209C34.1981 1.88748 34.2738 1.75872 34.3685 1.7158C34.5389 1.67288 34.7092 1.62995 34.8796 1.58703C34.9931 1.58703 35.0689 1.50119 35.1635 1.37242C35.4474 1.02904 35.7503 1.07197 36.0532 1.28658C36.1478 1.32951 36.2424 1.45827 36.3371 1.50119C36.4128 1.54412 36.4696 1.54412 36.5453 1.45827C36.7346 1.28658 36.9428 1.50119 37.1321 1.28659C37.3214 1.07197 37.5296 1.15782 37.7378 1.15782C38.0785 1.20075 38.4193 1.02906 38.76 1.15783C39.0628 1.24367 39.3657 1.15783 39.6875 1.15783C39.7821 1.15783 39.8957 1.11491 39.9904 1.02906C40.1229 0.900295 40.2554 0.943218 40.3879 1.02906C40.4447 1.07199 40.5204 1.07199 40.5772 1.02907C40.7097 0.900297 40.8422 0.900305 40.9747 0.943229C41.0314 0.986144 41.1072 0.900306 41.1639 0.857384C41.2964 0.728615 41.4289 0.771539 41.5425 0.986154C41.5993 1.072 41.6372 1.20076 41.6939 1.28661C41.7886 1.45829 41.8454 1.45829 41.9589 1.28661C42.0915 1.02907 42.224 0.814465 42.4132 1.02907C42.5079 1.11492 42.6215 1.072 42.7161 0.986159C42.7918 0.900314 42.8486 0.900314 42.9054 0.943237C43.0758 1.072 43.2461 1.02908 43.3975 0.857393C43.4543 0.771548 43.53 0.771548 43.5868 0.814471C43.6247 0.857394 43.6625 0.857387 43.6815 0.90031C43.9654 1.28661 44.2683 1.28662 44.5711 0.943244C44.7036 0.814476 44.8361 0.8574 44.9686 0.943246C45.1011 1.02908 45.2336 1.11493 45.3661 1.20078C45.4419 1.2437 45.4797 1.37246 45.4418 1.45831C45.4229 1.50123 45.3851 1.54415 45.3472 1.54415C45.0443 1.54415 44.7415 1.58707 44.4197 1.58707C44.1358 1.58707 43.8708 1.58707 43.6247 1.93045C43.3218 2.05921 43.019 2.18797 42.7161 1.93044C42.6404 1.88752 42.5836 1.8446 42.5268 1.88752C42.4322 1.93044 42.3186 2.01629 42.2239 2.01629C41.9211 2.05921 41.6182 2.05921 41.2964 2.0592C41.0504 2.0592 40.8232 2.01628 40.5961 1.84459C40.5014 1.75875 40.4068 1.71582 40.2932 1.71582C40.0471 1.6729 39.82 1.6729 39.5739 1.62998C39.3278 1.58705 39.1007 1.71581 38.8925 1.97334C38.7978 2.05919 38.7032 2.10212 38.5896 2.14504C38.1164 2.14504 37.6432 2.18795 37.17 2.14503C36.4507 2.05918 35.7503 2.18794 35.031 2.14502C34.9742 2.14502 34.8985 2.23086 34.8417 2.31671C34.8228 2.31671 34.8417 2.44547 34.8606 2.53131C34.8796 2.66008 34.9174 2.78884 34.9364 2.96054C34.9742 3.21807 35.0689 3.34684 35.1635 3.38976C35.3339 3.43268 35.5042 3.43268 35.6746 3.43269C35.7314 3.43269 35.8071 3.38976 35.8639 3.34685C36.1099 3.00346 36.356 2.91762 36.6399 2.96054C37.0185 3.00347 37.3971 3.00347 37.7567 3.04639C37.8514 3.0464 37.965 3.0464 38.0596 3.13224C38.3814 3.47562 38.741 3.34685 39.0439 3.69023C39.1007 3.73315 39.1764 3.73315 39.2332 3.64732C39.29 3.60439 39.3657 3.51855 39.4225 3.51855C39.8578 3.4327 40.3121 3.47563 40.7475 3.69024C40.88 3.73316 41.0125 3.86193 41.145 3.86193C41.5804 3.90486 42.0347 3.90486 42.47 3.94778C42.7161 3.94778 42.9432 3.86194 43.1704 3.64733C43.3029 3.51856 43.4354 3.6044 43.549 3.81902C43.6057 3.90486 43.6436 4.03363 43.7004 4.11947C43.7572 4.20532 43.8329 4.20532 43.8897 4.1624C44.0222 4.03363 44.1357 3.94779 44.2872 3.94779C44.4197 3.94779 44.5522 3.94778 44.7036 3.90486C44.8361 3.90486 44.9686 3.94779 45.1011 4.11948C45.2715 4.33409 45.4229 4.33409 45.5933 4.1624C45.6501 4.11948 45.7258 4.11948 45.7826 4.20533C45.9151 4.3341 46.0476 4.3341 46.1801 4.16241C46.3126 4.03364 46.4261 4.03364 46.5776 4.11948C46.8236 4.33409 46.8236 4.29118 46.8804 3.73319C46.8994 3.60443 46.9372 3.47566 47.0129 3.47566C47.2779 3.47566 47.5619 3.47566 47.8269 3.69027C47.9215 3.77611 48.0351 3.81904 48.1297 3.73319C48.319 3.56151 48.5272 3.51859 48.7355 3.51859C49.4169 3.47567 50.0983 3.43275 50.7798 3.5186C51.0448 3.56152 51.3287 3.56152 51.5937 3.34692C51.8587 3.1323 52.1237 3.08938 52.3887 3.08938C52.6916 3.04646 52.9944 3.08938 53.3162 3.04646C53.4487 3.04646 53.5812 3.00354 53.7137 2.87477C53.8652 2.70309 53.9598 2.83186 54.0734 3.08939C54.0923 3.13231 54.1302 3.21815 54.1491 3.26107C54.2627 3.47569 54.3952 3.5186 54.5277 3.47569C54.5655 3.47569 54.6034 3.47569 54.6223 3.43277C54.9062 3.13231 55.2091 3.08939 55.5309 3.08939C56.1177 3.04647 56.6856 3.04648 57.2723 3.04648C57.3481 3.04648 57.4048 3.00356 57.4616 2.96063C57.4806 2.96063 57.4995 2.83187 57.4995 2.83187C57.3481 2.57433 56.8181 2.18803 56.6477 2.18803C56.5152 2.18803 56.3827 2.18803 56.2313 2.23095C56.023 2.27388 55.8338 2.18803 55.6445 1.97341C55.3795 1.71588 55.1145 1.63004 54.8495 1.84465C54.7548 1.93049 54.6602 1.93049 54.5655 1.80172C54.4709 1.71588 54.3573 1.71588 54.2816 1.84465C54.0734 2.14511 53.8462 2.18802 53.6002 2.18802C53.3919 2.1451 53.1837 2.14509 52.9944 1.9734C52.6916 1.67295 52.4077 1.71587 52.1048 2.01633C51.8587 2.27386 51.6505 2.18801 51.4423 1.75879C51.4234 1.71586 51.3855 1.63003 51.3666 1.5871C51.2909 1.45833 51.2151 1.32956 51.1016 1.45833C50.9312 1.71586 50.7041 1.67295 50.5148 1.84463C50.4769 1.88755 50.458 1.88755 50.4201 1.88755C50.3823 1.88755 50.3444 1.88755 50.3255 1.84463C50.0794 1.67294 49.8523 1.71587 49.6251 1.93047C49.4926 2.05924 49.3601 1.97339 49.2844 1.63002C49.2276 1.41541 49.133 1.37249 49.0194 1.41541C48.9437 1.45833 48.8869 1.37249 48.8301 1.28664C48.8112 1.24372 48.7733 1.15787 48.7733 1.11495C48.7355 0.900332 48.7733 0.814493 48.868 0.771571C49.133 0.728649 49.4169 0.599889 49.6819 0.642806C50.1173 0.68573 50.5716 0.556971 51.0069 0.728657C51.1394 0.771581 51.2719 0.728658 51.4044 0.685736C51.5748 0.642814 51.7451 0.685737 51.8966 0.814507C51.9912 0.900346 52.0859 0.900346 52.1994 0.814508C52.3319 0.68574 52.4644 0.642817 52.5969 0.642818C53.108 0.599905 53.6191 0.64283 54.1302 0.771594C54.2248 0.814517 54.3384 0.85744 54.433 0.943287C54.5088 0.986202 54.5655 0.94328 54.6223 0.900357C54.8116 0.728674 55.0198 0.728674 55.2281 0.728675C55.4931 0.728676 55.777 0.728678 56.042 0.771602C56.1745 0.771602 56.307 0.814526 56.4395 0.943295C56.5909 1.07206 56.7613 1.11498 56.9316 1.1579C57.0641 1.20083 57.2156 1.20083 57.3291 1.02914C57.5563 0.771608 57.7834 0.685763 58.0295 0.728687C58.2377 0.728688 58.4459 0.728689 58.6352 0.72869C58.7677 0.728691 58.9002 0.771614 59.0327 0.900376C59.1652 1.02915 59.2977 1.11499 59.4302 1.11499C59.8656 1.15792 60.3199 1.24376 60.7553 1.115C60.9824 1.07208 61.2285 1.07208 61.4746 1.07208C61.6449 1.07208 61.8153 1.15793 61.9856 1.24377C62.156 1.32961 62.2696 1.67299 62.4021 1.8876C62.4967 2.01637 62.6103 2.01637 62.686 1.8876C62.7049 1.84468 62.7428 1.80176 62.7617 1.71592C62.8753 1.24378 63.0646 1.15793 63.2917 1.15793C63.4999 1.15793 63.6892 1.20086 63.8974 1.37254C64.0867 1.58716 64.2949 1.63007 64.5032 1.54424C64.6735 1.50131 64.8439 1.41547 65.0142 1.37255C65.1089 1.32963 65.2225 1.32963 65.3171 1.37255C65.7525 1.54424 66.1878 1.54424 66.6421 1.58717C66.9828 1.58717 67.3236 1.58717 67.6643 1.58717C68.005 1.58717 68.3457 1.58718 68.6675 1.88763C68.7621 1.97348 68.8757 1.88763 68.9704 1.80179C69.1029 1.67303 69.2354 1.71595 69.3679 1.84471C69.5004 1.97348 69.6329 2.05933 69.7654 2.05933C70.2764 2.05933 70.7875 2.1881 71.2986 2.05933C71.6015 1.97349 71.9043 2.05934 72.2072 2.14518C72.264 2.14518 72.3397 2.23102 72.3965 2.31687C72.4911 2.44563 72.5668 2.61732 72.5858 2.83193C72.6236 3.21823 72.6236 3.60454 72.6615 3.94791C72.6804 4.07667 72.7372 4.20544 72.794 4.29129C72.9265 4.42006 73.059 4.42005 73.1915 4.46298C73.2861 4.5059 73.3808 4.59174 73.4754 4.72051C73.5511 4.84928 73.6458 5.02097 73.7215 5.10681C73.8161 5.23558 73.9297 5.23558 74.0054 5.06389C74.119 4.8922 74.2136 4.67759 74.3083 4.46298C74.3651 4.33421 74.3461 4.16253 74.3083 4.07668C74.2893 4.03377 74.2515 3.94792 74.2136 3.94792C74.0433 3.94792 73.8729 3.94791 73.7026 3.90499C73.57 3.90499 73.4375 3.7333 73.3429 3.51869C73.2672 3.347 73.1915 3.17532 73.1347 3.00362C73.1158 2.9607 73.1158 2.87486 73.1158 2.78902C73.1158 2.74609 73.1536 2.66025 73.1725 2.66025C73.8161 2.44564 74.4976 2.44565 75.0086 2.57441C75.0654 2.57441 75.1411 2.66026 75.1979 2.70318C75.2358 2.7461 75.2547 2.7461 75.2926 2.78903C75.4251 2.96071 75.5576 2.91779 75.6712 2.7461C75.8226 2.53149 75.9929 2.5315 76.1633 2.57442C76.2012 2.57442 76.239 2.61734 76.2579 2.61734C76.4283 2.66026 76.5797 2.9178 76.7501 2.9178C77.0908 2.9178 77.4315 3.04657 77.7722 3.00364C78.624 2.9178 79.4758 2.96073 80.3276 3.04658C80.5926 3.04658 80.8766 3.13243 81.1226 3.34704C81.2551 3.4758 81.3877 3.4758 81.5202 3.47581C81.6337 3.47581 81.7284 3.56164 81.8041 3.69041C81.9366 3.8621 82.0502 3.90502 82.2016 3.90502C82.2394 3.90502 82.2773 3.90502 82.2962 3.90502C82.7127 3.8621 83.1102 3.94796 83.5077 4.20549C83.7727 4.37718 84.0377 4.42011 84.3027 4.63471C84.4352 4.76348 84.5677 4.67763 84.7002 4.54887C84.8705 4.37718 85.0409 4.37718 85.1923 4.54887C85.4573 4.84933 85.7223 4.89225 85.9873 4.67764C86.1198 4.5918 86.2523 4.5918 86.3849 4.72057C86.5174 4.84933 86.6499 4.89226 86.7824 4.89226C86.877 4.89226 86.9906 4.84934 87.0852 4.84934C87.2556 4.84934 87.4259 4.9781 87.5584 5.19271C87.6152 5.27856 87.672 5.3644 87.7288 5.45025C87.7856 5.53609 87.8613 5.57902 87.9181 5.49317C88.0506 5.36441 88.1642 5.23564 88.3156 5.23564C88.6942 5.23564 89.0727 5.23564 89.4324 5.23564C89.6406 5.23564 89.8299 5.36441 90.0192 5.5361C90.3031 5.79364 90.606 5.83656 90.9278 5.66487C91.0224 5.62195 91.1171 5.53611 91.2306 5.49319C91.3063 5.45027 91.3631 5.45027 91.4388 5.49319C91.6092 5.57904 91.7796 5.62195 91.9499 5.62195C92.4989 5.62196 93.0478 5.62196 93.5778 5.62196C93.8617 5.62196 94.1267 5.57904 94.3917 5.40735C94.5621 5.27859 94.7325 5.23567 94.9028 5.36444C95.395 5.70781 95.906 5.70782 96.4171 5.70782C96.5875 5.70782 96.7389 5.92243 96.8525 6.22289C96.9093 6.39457 96.9471 6.69503 96.8903 6.86672C96.8335 7.03841 96.7768 7.25302 96.72 7.42471C96.6253 7.72516 96.6253 7.89685 96.7389 7.93977C97.0418 8.06854 97.3257 8.32607 97.6096 8.58361C97.7043 8.66945 97.7421 8.92699 97.761 9.14159C97.78 9.31329 97.6853 9.65665 97.6096 9.69958C97.515 9.78542 97.4203 9.87127 97.3257 9.95711C97.231 10.043 97.1932 10.3434 97.25 10.5151C97.2878 10.6439 97.3446 10.7297 97.4014 10.8155C97.5528 11.116 97.5528 11.5023 97.515 11.8886C97.515 11.9744 97.496 12.0174 97.4771 12.1032C97.4203 12.4037 97.4014 12.7041 97.4014 13.0046C97.4014 13.2621 97.4392 13.4767 97.515 13.6484C97.7042 14.0776 97.9125 14.5069 98.1017 14.9361C98.1775 15.1078 98.2342 15.3653 98.1775 15.5799C98.026 16.1808 98.0071 16.9105 97.8367 17.5114C97.7799 17.726 97.8178 17.9836 97.8935 18.1552C98.026 18.4986 98.1774 18.7991 98.3099 19.1854C98.3857 19.4429 98.3478 19.8292 98.2532 20.0009C98.0449 20.3013 97.8178 20.3872 97.5906 20.5589C97.5528 20.5589 97.5149 20.6447 97.5149 20.6876C97.5149 20.7306 97.5339 20.8164 97.5528 20.8593C97.7042 21.0739 97.7989 21.3744 97.8556 21.7607C97.9124 22.1041 97.9124 22.0611 97.8178 22.3616C97.7042 22.705 97.7042 22.7479 97.7421 22.9625C97.8367 23.3917 97.9503 23.7351 98.0828 24.1214C98.1963 24.4219 98.1774 24.5506 98.0638 24.9369C98.0071 25.1086 97.9124 25.2803 97.9503 25.5378C97.9881 25.8812 97.9313 26.0958 97.8367 26.3534C97.6853 26.6967 97.7042 26.7397 97.8745 27.0401C97.9503 27.1689 98.0449 27.2976 98.1206 27.4693C98.272 27.8556 98.3099 28.2849 98.2153 28.757C98.1774 28.9716 98.1206 29.1433 98.1585 29.4008C98.2153 29.6584 98.1395 29.83 98.0827 30.0017C97.9881 30.2593 97.8556 30.3451 97.742 30.5168C97.6663 30.6456 97.6095 30.9031 97.6474 31.1177C97.6663 31.2465 97.6852 31.4182 97.7042 31.5469C97.742 31.7615 97.742 31.9762 97.6852 32.1908C97.5906 32.5341 97.6095 32.9204 97.6474 33.3067C97.6663 33.5213 97.7042 33.736 97.7988 33.9076C97.8556 33.9935 97.9124 34.1223 97.9124 34.251C97.8934 34.3798 97.8177 34.4656 97.7609 34.5515C97.6095 34.8949 97.6474 35.2382 97.8556 35.367C97.8934 35.4099 97.9124 35.4099 97.9502 35.4099C98.1584 35.4958 98.3288 35.7104 98.4992 35.9679C98.4613 36.0538 98.4992 36.1825 98.5181 36.2684C98.4992 36.3113 98.4613 36.2684 98.4234 36.3113C98.2152 36.3113 98.0259 36.2684 97.8366 35.9679C97.8177 35.925 97.7799 35.925 97.742 35.925C97.6663 35.925 97.6095 35.9679 97.6095 36.1396C97.6095 36.1825 97.6284 36.3113 97.6474 36.3542C97.7609 36.6547 97.9313 36.7405 98.0827 36.9551C98.1774 37.0839 98.2531 37.041 98.3477 36.8693C98.4424 36.6547 98.5181 36.5259 98.5181 36.2684ZM76.0308 7.9826C76.0686 7.9826 76.1065 7.9826 76.1254 7.9826C76.2769 7.9826 76.3904 7.85384 76.4283 7.51046C76.4472 7.3817 76.4851 7.21001 76.504 7.08124C76.5419 6.86663 76.4851 6.69494 76.3715 6.69494C76.1444 6.69494 76.0686 6.82371 76.0497 7.33877C76.0497 7.55338 76.0497 7.81091 76.0497 8.02553C76.0118 8.02553 75.9929 8.06845 75.9551 8.11136C75.9361 8.11136 75.9361 8.19721 75.9361 8.24013C75.9929 8.24013 76.0308 8.15429 76.0308 7.9826ZM23.5033 3.38971C23.4466 3.08926 23.3709 2.91757 23.2194 2.91757C23.1248 2.91757 23.0301 2.96049 22.9355 3.00341C22.8598 3.04633 22.8219 3.17509 22.8598 3.26094C22.8787 3.30386 22.9166 3.34678 22.9355 3.38971C23.1248 3.47555 23.3141 3.47555 23.5223 3.38971C23.5791 3.86186 23.7116 4.16231 23.9009 4.33399C23.9955 4.41984 24.0901 4.50569 24.1848 4.54861C24.2037 4.54861 24.2416 4.46276 24.2605 4.37692C24.2794 4.334 24.2794 4.24816 24.2605 4.16231C24.1659 3.73309 24.0144 3.43263 23.8062 3.38971C23.6926 3.38971 23.598 3.38971 23.5033 3.38971ZM87.0849 82.6242C87.1985 82.753 87.312 82.9247 87.4445 83.0105C87.596 83.0963 87.7663 83.1393 87.9367 83.1822C87.9556 83.1822 87.9935 83.268 88.0124 83.311C88.107 84.0406 88.107 84.0406 88.3342 84.2552C88.5045 84.4269 88.656 84.1265 88.656 83.6973C88.656 83.5256 88.637 83.3539 88.6749 83.311C88.7317 83.2251 88.8074 83.2251 88.8642 83.1822C88.902 83.1822 88.9399 83.1393 88.9588 83.0964C88.9778 83.0534 89.0156 83.0105 89.0156 82.9247C89.0345 82.7959 88.9967 82.7101 88.902 82.6671C88.7695 82.6242 88.637 82.6242 88.5045 82.6242C88.2585 82.6671 88.0313 82.5813 87.8231 82.3667C87.6717 82.195 87.5013 82.2379 87.331 82.2808C87.2363 82.3237 87.1417 82.4525 87.1227 82.6671C87.066 82.6671 86.9902 82.6671 86.9335 82.6671C86.8956 82.6671 86.8767 82.71 86.8577 82.753C86.8388 82.7959 86.8388 82.8817 86.8388 82.8817C86.8767 83.0105 86.9335 83.0105 87.0092 82.9247C87.0281 82.8817 87.066 82.753 87.0849 82.6242ZM81.9744 7.08127C81.9555 6.90958 81.9176 6.78081 81.8419 6.78081C81.6716 6.69497 81.5201 6.65204 81.3687 6.43743C81.3119 6.35158 81.2362 6.35158 81.1794 6.39451C80.9901 6.60911 80.8008 6.69496 80.5926 6.69496C80.4223 6.69495 80.2519 6.65204 80.1005 6.7808C80.0248 6.82372 79.9869 6.95248 80.0058 7.12418C80.0058 7.1671 80.0437 7.25294 80.0626 7.29587C80.1194 7.38171 80.1762 7.42464 80.2519 7.42464C80.3844 7.42464 80.5169 7.29587 80.6305 7.21002C80.7251 7.12419 80.8198 7.1671 80.9144 7.29587C81.1037 7.5534 81.293 7.5534 81.4823 7.33879C81.6337 7.16711 81.7851 7.03834 81.9555 7.03834C81.9744 7.12418 81.9744 7.21003 81.9934 7.25295C82.0691 7.38171 82.1637 7.51049 82.2394 7.63925C82.353 7.81095 82.4855 7.85386 82.618 7.7251C82.6748 7.63925 82.7505 7.59633 82.8073 7.59633C83.1859 7.59633 83.5455 7.55341 83.9241 7.59634C83.9809 7.59634 84.0566 7.63926 84.1134 7.72511C84.227 7.89679 84.3405 8.06848 84.4352 8.24017C84.492 8.32601 84.6055 8.19725 84.6812 7.98264C84.7191 7.85387 84.7191 7.68218 84.6623 7.55342C84.6055 7.46757 84.5487 7.38173 84.492 7.29589C84.4541 7.25296 84.4352 7.25296 84.3973 7.25296C84.3216 7.25296 84.2648 7.21004 84.1891 7.21004C83.9809 7.16712 83.7916 7.12419 83.5834 7.12419C83.3373 7.12419 83.1291 6.86666 82.9019 6.73789C82.6937 6.65204 82.5044 6.60913 82.3151 6.86666C82.2394 6.99542 82.1069 7.03835 81.9744 7.08127ZM86.877 8.49772C86.8013 8.06849 86.7066 7.68219 86.5741 7.33881C86.5552 7.29589 86.5173 7.25297 86.4984 7.25297C86.3848 7.21005 86.2523 7.42466 86.1955 7.72512C86.1766 7.85388 86.2523 8.19726 86.328 8.28311C86.3848 8.32602 86.4606 8.41186 86.5173 8.41186C86.6498 8.45479 86.7823 8.45479 86.9148 8.45479C86.9338 8.62648 86.9716 8.75525 87.0284 8.84109C87.0852 8.92693 87.1609 8.96986 87.2177 9.0557C87.4259 9.39908 87.6531 9.442 87.8991 9.27031C87.9938 9.18447 88.0884 9.18447 88.202 9.27031C88.5616 9.52785 88.9402 9.48493 89.3188 9.39909C89.4134 9.39909 89.527 9.31324 89.6027 9.18448C89.7163 9.01279 89.8488 8.96987 90.0002 8.96987C90.0381 9.18448 90.1138 9.35617 90.2085 9.39909C90.341 9.48494 90.4735 9.48494 90.606 9.35618C90.6249 9.31325 90.6438 9.27033 90.6627 9.22741C90.6438 9.18449 90.606 9.09864 90.587 9.09864C90.3788 9.01279 90.1895 9.01279 89.9813 9.01279C89.9624 8.84111 89.9056 8.75526 89.8488 8.71234C89.7542 8.6265 89.6595 8.58358 89.5649 8.49773C89.4324 8.36896 89.3756 8.06851 89.2809 7.8539C89.2052 7.68221 89.1106 7.63928 89.0159 7.76804C88.9592 7.85389 88.9024 7.93973 88.8456 8.02558C88.732 8.24019 88.6184 8.28311 88.4859 8.19726C88.3156 8.06849 88.1641 8.0685 87.9938 8.24018C87.8045 8.4548 87.6152 8.54064 87.407 8.54063C87.1988 8.49771 87.0473 8.49772 86.877 8.49772ZM76.8444 82.6242C76.939 82.71 76.9958 82.8817 77.0526 83.0963C77.1473 83.4397 77.223 83.5684 77.3744 83.5255C77.5826 83.4826 77.7719 83.4826 77.9801 83.3968C78.1694 83.268 78.3587 83.1392 78.5669 83.3109C78.6237 83.3538 78.6994 83.3109 78.7562 83.2251C78.9266 83.0534 79.078 83.0534 79.2484 83.2251C79.3051 83.268 79.3809 83.3538 79.4376 83.3109C79.6269 83.1822 79.8351 83.1822 80.0055 82.9675C80.0244 82.9246 80.0623 82.8817 80.0623 82.7959C80.0812 82.71 80.0812 82.6242 80.0623 82.5812C79.9109 81.9374 79.8162 81.7657 79.5134 81.9374C79.4376 81.9803 79.3809 82.0233 79.3241 81.9374C79.1537 81.8086 79.0023 81.8516 78.8509 82.0662C78.7562 82.1949 78.6616 82.1949 78.5669 82.152C78.5101 82.152 78.4344 82.0662 78.3776 82.0233C78.3398 81.9803 78.3208 81.9803 78.283 81.9374C78.1883 81.8516 78.0748 81.7657 77.9991 81.8516C77.7151 82.1091 77.4123 82.152 77.1094 82.1949C77.0148 82.2379 76.939 82.3666 76.9012 82.6242C76.8633 82.6242 76.8444 82.6671 76.8065 82.71C76.7876 82.7529 76.7876 82.7958 76.7876 82.8388C76.8065 82.8817 76.8444 82.7958 76.8444 82.6242ZM17.3704 8.96956C17.3704 9.39878 17.3893 9.828 17.2757 10.2572C17.2568 10.3001 17.2568 10.386 17.2568 10.4718C17.2568 10.6006 17.2947 10.7294 17.3704 10.7723C17.6354 10.8581 17.9004 10.8152 18.1654 10.7294C18.2222 10.7294 18.279 10.6006 18.3358 10.5148C18.3547 10.4718 18.3547 10.386 18.3736 10.3001C18.3925 10.1714 18.3925 9.9997 18.4115 9.87093L18.3925 9.91385C18.6197 9.87093 18.8658 9.78508 19.074 10.0855C19.1118 10.1285 19.1875 9.9997 19.2065 9.87093C19.2254 9.57048 19.2254 9.27002 19.2254 8.96956L19.2065 9.01249C19.3011 8.96957 19.4147 8.96957 19.4904 8.79788C19.5472 8.71203 19.5661 8.54034 19.5661 8.41157C19.5472 8.28281 19.5093 8.11112 19.4336 8.11112C19.2254 8.0682 19.0361 8.0682 18.8279 8.02528C18.6576 8.02528 18.5061 7.89651 18.3926 7.55313C18.3358 7.33852 18.2411 7.25268 18.1465 7.20976C18.014 7.16683 17.8815 7.12391 17.749 7.12391C17.4461 7.12391 17.1432 7.16683 16.8404 7.20975C16.7647 7.20975 16.7079 7.29559 16.7079 7.42436C16.7079 7.51021 16.7268 7.59605 16.7647 7.59605C16.8972 7.72482 16.954 8.02527 17.0108 8.28281C17.0865 8.58326 17.219 8.79787 17.3704 8.96956ZM27.4784 8.66915C27.6677 8.88376 27.857 9.05545 28.0462 9.22714C28.1787 9.35591 28.3112 9.39882 28.4437 9.31298C28.6141 9.22714 28.7655 9.1413 28.9359 9.22714C29.3145 9.39883 29.6741 9.35592 30.0338 9.01253C30.1284 8.9267 30.242 8.9267 30.3366 9.01253C30.5827 9.313 30.8477 9.35592 31.1316 9.35592C31.3966 9.35592 31.6806 9.35592 31.9456 9.35593C32.1538 9.35593 32.3431 9.39884 32.5513 9.61345C32.6081 9.65637 32.6838 9.61346 32.7406 9.57054C32.892 9.44177 33.0624 9.27008 33.2138 9.09839C33.3463 9.22716 33.4788 9.31301 33.5924 9.44177C33.7627 9.61346 33.9142 9.61346 34.0845 9.4847C34.4442 9.27008 34.8228 9.31301 35.1824 9.57055C35.3906 9.74224 35.5799 9.74224 35.7881 9.57055C35.8828 9.4847 35.9774 9.4847 36.091 9.52763C36.3181 9.61347 36.3181 9.61347 36.4885 9.52763C36.5831 9.48471 36.6967 9.44178 36.7913 9.35595C36.8292 9.35595 36.8481 9.2701 36.8671 9.22718C36.886 9.14133 36.8292 9.05549 36.7535 9.05548C36.5074 8.96964 36.2803 9.01256 36.0342 9.01256C35.7313 9.01256 35.4285 8.92672 35.1256 8.7121C34.9931 8.62626 34.8606 8.7121 34.7281 8.79795C34.6335 8.88379 34.5388 8.96963 34.4253 8.96963C34.217 8.96963 34.0088 9.01255 33.8195 8.84086C33.6302 8.66917 33.422 8.62625 33.2138 8.58333C32.9109 8.58333 32.6081 8.5404 32.2863 8.5404C32.1538 8.5404 32.0213 8.45456 31.8888 8.28287C31.7184 8.06826 31.567 8.1541 31.3966 8.28287C31.302 8.36871 31.2074 8.45455 31.0938 8.45455C30.8477 8.49748 30.6206 8.49748 30.3745 8.49747C30.1663 8.49747 29.977 8.45455 29.7688 8.23993C29.6741 8.15409 29.5605 8.11116 29.4659 8.19701C29.3334 8.28285 29.2009 8.28285 29.0684 8.15409C28.9738 8.06825 28.8602 8.06825 28.7655 8.06824C28.3302 8.06824 27.8759 8.06824 27.4405 8.11115C27.3459 8.11115 27.2323 8.197 27.1377 8.23992C27.0619 8.28284 27.0052 8.32577 26.9484 8.23992C26.7212 8.02531 26.4941 8.02531 26.2669 8.32576C26.1723 8.45453 26.0776 8.45453 25.983 8.49746C25.9451 8.49745 25.9262 8.54038 25.8884 8.5833C25.8126 8.66914 25.7937 8.79791 25.7937 8.92668C25.7937 9.09836 25.8316 9.22712 25.9073 9.27005C26.248 9.44174 26.5887 9.39882 26.9294 9.31297C27.0241 9.27006 27.1187 9.1842 27.2134 9.05544C27.308 8.88375 27.4027 8.79791 27.4784 8.66915ZM38.23 4.8062C38.0975 4.84912 38.0028 4.84912 37.9082 4.89205C37.7567 4.93497 37.7 5.10665 37.7567 5.32127C37.8514 5.66464 37.946 5.9651 38.0217 6.30847C38.0785 6.52309 38.1732 6.60893 38.2678 6.65186C38.4003 6.69478 38.5328 6.69477 38.6653 6.69478C38.8357 6.69478 38.9871 6.90939 39.1575 6.99524C39.2521 7.03816 39.3657 7.08109 39.4603 7.08109C39.6685 7.124 39.8578 7.08109 40.0471 6.86647C40.1607 6.7377 40.2932 6.65187 40.4446 6.65187C41.0882 6.65187 41.7318 6.65187 42.3754 6.69479C42.5079 6.69479 42.6404 6.73772 42.7729 6.78064C42.9811 7.0811 43.2461 6.73772 43.4543 7.03817C43.53 7.03817 43.5868 7.03818 43.6625 6.99526C43.795 6.86649 43.9275 6.90941 44.06 7.03817C44.0979 7.0811 44.1168 7.08111 44.1547 7.08111C44.344 7.16694 44.4765 6.99526 44.609 6.73772C44.6279 6.6948 44.6468 6.60896 44.6279 6.52312C44.6279 6.48019 44.609 6.39435 44.5711 6.39435C44.344 6.17974 44.0979 6.22266 43.8707 6.22266C43.5679 6.22266 43.265 6.22265 42.9622 5.96512C42.9054 5.9222 42.8297 5.96512 42.7729 6.00804C42.6404 6.13681 42.5079 6.09389 42.3754 5.96512C42.3186 5.92219 42.2429 5.92219 42.1861 5.96512C42.0536 6.05096 41.9211 6.09388 41.7886 5.9222C41.7318 5.83635 41.6561 5.83635 41.5993 5.79343C41.3911 5.79343 41.2018 5.79343 40.9936 5.79343C40.8989 5.79343 40.8043 5.70758 40.7096 5.62173C40.615 5.53589 40.5203 5.49296 40.4257 5.62173C40.3121 5.7505 40.1796 5.87927 40.066 6.00803C39.9335 6.1368 39.82 6.22264 39.6685 6.22264C39.4982 6.22264 39.3278 6.22264 39.1575 6.22264C39.025 6.22264 38.8925 6.13679 38.8167 5.83633C38.76 5.62172 38.7032 5.45004 38.6464 5.27835C38.5518 5.02082 38.4192 4.93497 38.2867 4.89205C38.2678 4.76328 38.23 4.8062 38.23 4.8062ZM80.6115 8.88399C80.479 8.88399 80.214 8.88399 79.9301 9.01275C79.8923 9.01275 79.8355 9.09859 79.8355 9.09859C79.8355 9.27029 79.8922 9.31321 79.968 9.35613C80.214 9.52782 80.214 9.52782 80.0437 9.95704C79.9869 10.0858 79.968 10.2146 79.9869 10.3863C80.0058 10.515 80.0626 10.6438 80.1194 10.6867C80.3465 10.7726 80.5926 10.8584 80.8198 10.6438C81.0469 10.4292 81.274 10.3433 81.5201 10.3433C81.7283 10.3433 81.9366 10.3433 82.1258 10.1717C82.3151 9.99997 82.5234 9.95704 82.7126 9.91413C82.883 9.91413 83.0534 9.87121 83.2237 9.82828C83.2805 9.82828 83.3373 9.69951 83.3941 9.61367C83.5266 9.39906 83.5455 9.09861 83.4319 8.84107C83.3373 8.62646 83.2427 8.41186 83.1291 8.24016C83.0344 8.1114 82.9209 8.1114 82.8451 8.24016C82.7694 8.36893 82.6748 8.49769 82.5991 8.62646C82.5044 8.75523 82.4098 8.75523 82.3151 8.66938C82.1448 8.4977 81.9744 8.49769 81.823 8.62646C81.558 8.84106 81.293 8.92692 81.028 8.92691C80.9523 8.92691 80.8387 8.92691 80.6115 8.88399ZM62.7996 2.6602C62.7617 2.61728 62.7428 2.61728 62.7049 2.57436C62.6103 2.48852 62.5156 2.4456 62.4021 2.44559C62.3263 2.44559 62.2696 2.53143 62.2317 2.6602C62.1749 2.83189 62.1938 3.13234 62.2885 3.26111C62.4021 3.4328 62.4778 3.64742 62.4588 3.99079C62.4588 4.03371 62.4778 4.11955 62.4967 4.16248C62.5724 4.29125 62.6671 4.42001 62.7617 4.50585C62.8563 4.63462 62.951 4.63462 63.0456 4.54878C63.1403 4.46293 63.2349 4.33416 63.3106 4.24833C63.4621 4.07663 63.4621 4.07663 63.3106 3.73326C63.2917 3.69033 63.2728 3.56157 63.2728 3.51865C63.2728 3.47573 63.3296 3.4328 63.3674 3.4328C63.5756 3.38988 63.7649 3.34696 63.9731 3.26111C64.011 3.26112 64.0299 3.21819 64.0678 3.17527C64.0489 3.13235 64.0299 3.04651 64.011 3.00358C63.7839 2.66021 63.5378 2.40268 63.3106 2.10221C63.1781 1.97345 63.1024 2.01638 62.9699 2.35975C62.9131 2.48852 62.8563 2.61728 62.7996 2.6602ZM78.1697 9.57073C78.2076 9.48489 78.2454 9.44196 78.2454 9.39904C78.2644 9.31319 78.2644 9.22736 78.2454 9.18443C78.1129 8.84106 77.9804 8.49768 77.8479 8.1543C77.7344 7.85384 77.6776 7.51046 77.6397 7.12417C77.6208 6.82371 77.5829 6.82371 77.4694 7.16709C77.4126 7.33878 77.3369 7.51046 77.2422 7.59631C77.1097 7.72508 77.0719 8.02553 76.9583 8.24014C76.9015 8.32598 76.8447 8.41182 76.769 8.41182C76.6744 8.41182 76.5608 8.45475 76.4661 8.49767C76.4283 8.49767 76.4094 8.58351 76.3904 8.62643C76.3526 8.7552 76.3904 8.88397 76.4283 9.01273C76.504 9.18442 76.5986 9.31319 76.6933 9.31319C76.9961 9.35611 77.299 9.39904 77.6019 9.44196C77.6965 9.44196 77.8101 9.39904 77.9047 9.44196C77.9994 9.44196 78.094 9.52781 78.1697 9.57073ZM59.4302 2.96064L59.4302 2.91773C59.6006 2.91773 59.771 2.91773 59.9413 2.91773C59.9981 2.91773 60.0738 2.8748 60.1306 2.83188C60.2063 2.78895 60.2252 2.66019 60.1685 2.48851C60.0927 2.23097 59.9981 2.01636 59.8845 1.84467C59.771 1.67299 59.6385 1.58714 59.506 1.63006C59.4302 1.67298 59.3735 1.67298 59.3167 1.75882C59.1463 1.93051 58.9949 1.93051 58.8245 1.80174C58.7299 1.7159 58.6352 1.84466 58.5784 2.05928C58.4649 2.4885 58.5217 2.8748 58.7299 2.91772C58.957 2.91772 59.2031 2.91772 59.4302 2.96064ZM85.4949 82.2379C85.3434 82.195 85.1541 82.195 85.0406 82.4954C84.7945 83.0105 84.5106 83.1393 84.2077 83.0963C84.1131 83.0963 83.9995 83.0963 83.9048 83.0963C83.8481 83.0963 83.7913 83.2251 83.7156 83.268C83.7345 83.3539 83.7345 83.4397 83.7534 83.4826C83.8859 83.7402 83.9806 84.0406 84.0941 84.2981C84.1698 84.4698 84.2834 84.5128 84.3591 84.3411C84.4727 84.1694 84.5673 83.9548 84.6809 83.7831C84.8323 83.5685 84.9838 83.3968 85.1352 83.268C85.2299 83.1822 85.3245 83.1393 85.4191 83.0534C85.457 83.0105 85.4759 83.0105 85.5138 83.0105C85.6084 82.9246 85.6841 82.7959 85.722 82.5383C85.7599 82.3667 85.6652 82.2379 85.4949 82.2379ZM81.7091 83.9977C81.9173 84.0406 82.0498 83.9548 82.1823 83.7402C82.258 83.6114 82.3148 83.3109 82.277 83.1392C82.258 83.0534 82.258 83.0105 82.2391 82.9246C82.2012 82.7959 82.1634 82.6671 82.1255 82.5383C82.0498 82.2808 81.9362 82.152 81.7848 82.2379C81.5198 82.3666 81.3873 82.71 81.3684 83.3539C81.3684 83.6543 81.4819 83.9548 81.6144 83.9977C81.6523 83.9977 81.6902 83.9977 81.7091 83.9977ZM25.9262 9.91388C25.7369 9.82804 25.6423 9.65634 25.5666 9.39881C25.4909 9.09836 25.3584 9.01251 25.2259 9.01251C25.1312 9.01251 25.0176 9.05543 24.923 9.09836C24.8283 9.14128 24.7337 9.44173 24.7716 9.61342C24.8094 9.82803 24.8662 9.99972 24.923 10.2143C25.0176 10.5577 25.0176 10.5577 25.1501 10.4719C25.2448 10.4289 25.3394 10.3431 25.453 10.3431C25.5855 10.3431 25.718 10.3431 25.8505 10.3431C25.9262 10.3431 25.983 10.3002 26.0398 10.1714C26.0019 9.99973 25.9451 9.91388 25.9262 9.91388ZM100.487 39.9597C100.43 39.9597 100.468 39.9597 100.487 39.9597C100.581 39.9168 100.657 39.8738 100.657 39.788C100.657 39.6163 100.6 39.5734 100.525 39.4875C100.335 39.2729 100.146 39.1871 99.9377 39.1442C99.8052 39.1442 99.6727 39.0154 99.5592 38.8866C99.4456 38.7579 99.3888 38.8008 99.2942 38.9725C99.2184 39.1871 99.2184 39.4017 99.3131 39.5305C99.5213 39.788 99.7484 39.9597 99.9756 39.9597C100.127 39.9597 100.26 39.9597 100.487 39.9597ZM43.7004 10.7295C43.8897 10.7295 44.0222 10.7295 44.1547 10.7295C44.2114 10.7295 44.2682 10.6007 44.3439 10.5578C44.4007 10.4719 44.4575 10.3432 44.4386 10.1715C44.4386 10.0427 44.3629 9.99981 44.2872 9.95688C44.0222 9.82811 43.7572 9.82811 43.4921 9.9998C43.4354 10.0427 43.3786 10.1286 43.3218 10.2144C43.3029 10.2573 43.2839 10.3432 43.265 10.3861C43.2271 10.5578 43.265 10.6436 43.3596 10.6436C43.4921 10.6866 43.6246 10.6866 43.7004 10.7295ZM46.3693 10.3432C46.1611 10.3432 45.9529 10.3432 45.7636 10.3432C45.7068 10.3432 45.6311 10.3861 45.5743 10.429C45.5365 10.429 45.5175 10.5149 45.4986 10.5578C45.5175 10.6007 45.5554 10.6866 45.5743 10.6866C45.8961 10.9012 46.2368 10.7724 46.5586 10.7724C46.729 10.7724 46.8804 10.9012 47.0318 11.0299C47.0886 11.0729 47.1643 11.1158 47.2211 11.1158C47.24 11.1158 47.2779 11.0299 47.2968 10.987C47.3158 10.9441 47.2968 10.8583 47.2968 10.8153C47.2401 10.6007 47.1643 10.472 47.0508 10.429C46.8236 10.429 46.5965 10.3861 46.3693 10.3432ZM76.5419 3.43286C76.4851 3.47578 76.4094 3.47578 76.3526 3.51871C76.3147 3.51871 76.2958 3.60455 76.2769 3.64747C76.1822 3.77624 76.1444 4.03377 76.1633 4.20546C76.2012 4.42007 76.2769 4.59176 76.3715 4.63468C76.4283 4.6776 76.504 4.6776 76.5608 4.63468C76.7122 4.50591 76.8637 4.37715 77.034 4.29131C77.1097 4.24838 77.1476 4.16254 77.1476 4.03377C77.1476 3.99085 77.1097 3.90501 77.0908 3.86209C76.9772 3.73332 76.8447 3.60455 76.7312 3.47578C76.6744 3.43286 76.5987 3.43286 76.5419 3.43286ZM89.9621 83.1393C89.8674 83.1393 89.7917 83.1393 89.7349 83.1822C89.6592 83.2251 89.6213 83.3539 89.6213 83.4827C89.6024 83.6543 89.6403 83.7831 89.716 83.826C89.9053 83.9977 90.1135 83.9548 90.3217 83.9119C90.3596 83.9119 90.3785 83.869 90.4163 83.826C90.4921 83.7831 90.5299 83.6543 90.511 83.4397C90.4921 83.311 90.4353 83.1822 90.3785 83.1822C90.2081 83.1822 90.0756 83.1393 89.9621 83.1393ZM14.6636 7.98234C14.6636 7.98234 14.6636 8.02526 14.6636 7.98234C14.8339 8.02526 15.0043 8.02526 15.1747 8.02526C15.2693 8.02526 15.3639 7.8965 15.4397 7.76773C15.4586 7.7248 15.4586 7.59604 15.4586 7.55312C15.4397 7.42435 15.4018 7.29559 15.3261 7.25267C15.2882 7.25267 15.2504 7.20974 15.2314 7.25267C14.9475 7.55312 14.6447 7.63896 14.3418 7.63896C14.2661 7.63896 14.2093 7.63896 14.1336 7.68188C14.0957 7.68188 14.0579 7.72481 14.0579 7.81064C14.0389 7.89649 14.0768 8.02526 14.1714 8.02526C14.3229 8.02526 14.4932 7.98234 14.6636 7.98234ZM66.7368 3.6045C66.7557 3.69035 66.7557 3.7762 66.7746 3.81912C66.9071 4.20542 67.0396 4.54879 67.2478 4.67756C67.3425 4.7634 67.4371 4.89217 67.5318 4.97802C67.5507 4.97802 67.5885 4.89217 67.6075 4.84926C67.6264 4.80633 67.6264 4.67757 67.6075 4.63464C67.5128 4.24834 67.3803 3.86204 67.21 3.60451C67.0964 3.3899 66.9639 3.3899 66.8314 3.47574C66.7935 3.47574 66.7746 3.56158 66.7368 3.6045ZM10.3476 45.9684C10.4801 45.9684 10.6126 45.9684 10.7451 45.9684C10.8398 45.9684 10.8776 45.8825 10.8776 45.7967C10.8776 45.7109 10.8398 45.6679 10.8209 45.625C10.7641 45.5392 10.7073 45.4533 10.6505 45.4104C10.518 45.2816 10.4044 45.1958 10.253 45.3675C10.1016 45.4962 9.93121 45.625 9.77978 45.7967C9.76085 45.7967 9.76085 45.8825 9.74192 45.9255C9.77978 45.9684 9.79871 46.0113 9.83656 46.0113C10.0069 45.9684 10.1773 45.9684 10.3476 45.9684ZM4.34722 43.1784C4.49865 43.1355 4.61223 43.1355 4.70687 43.0926C4.76366 43.0497 4.83938 43.0067 4.89616 42.9209C4.95295 42.835 4.99081 42.7063 4.99081 42.5346C4.99081 42.4917 4.93402 42.4488 4.89616 42.4487C4.76366 42.4058 4.63115 42.3629 4.49865 42.3629C4.44186 42.3629 4.36615 42.4487 4.30936 42.4917C4.21472 42.5775 4.15793 42.9209 4.21472 43.0497C4.2715 43.1355 4.32829 43.1784 4.34722 43.1784ZM85.5898 13.0904C85.4573 13.0904 85.3437 13.0904 85.2491 13.0904C85.2112 13.0904 85.1734 13.0904 85.1544 13.1333C85.0787 13.1333 85.0219 13.2191 84.9652 13.305C84.9841 13.4338 85.0409 13.4767 85.1166 13.5196C85.3816 13.6484 85.6655 13.5196 85.9116 13.7771C85.9305 13.82 85.9684 13.7771 86.0062 13.7771C86.082 13.7342 86.1198 13.6484 86.1577 13.5196C86.1955 13.3479 86.1577 13.2191 86.063 13.2191C85.8737 13.1762 85.7223 13.1333 85.5898 13.0904ZM10.7264 4.93485C10.7453 5.19238 10.8021 5.32115 10.8778 5.44992C10.9535 5.57868 11.0671 5.57868 11.1428 5.40699C11.2185 5.23531 11.2564 5.06362 11.2943 4.84902C11.3321 4.6344 11.2943 4.41979 11.1996 4.37686C11.0293 4.33395 10.8778 4.41979 10.7643 4.72024C10.7453 4.80609 10.7453 4.89193 10.7264 4.93485ZM62.0989 81.3364C62.0421 81.3794 61.9664 81.3794 61.9096 81.4223C61.8339 81.4652 61.796 81.551 61.796 81.7227C61.796 81.8944 61.8528 81.9803 61.9096 81.9803C62.0042 81.9373 62.0989 81.9373 62.1935 82.0661C62.3449 82.2378 62.4964 82.2807 62.6667 82.1949C62.7424 82.152 62.7992 82.109 62.8181 81.9803C62.8181 81.9803 62.7803 81.8515 62.7424 81.8515C62.591 81.7657 62.4206 81.6369 62.2881 81.4652C62.2314 81.3794 62.1556 81.3794 62.0989 81.3364ZM21.8562 78.5034C21.7616 78.5463 21.7048 78.5463 21.6291 78.5892C21.5344 78.6322 21.5155 78.7609 21.5723 78.9326C21.7048 79.3618 21.8941 79.4048 22.1023 79.3189C22.178 79.276 22.1969 79.1472 22.2159 78.9755C22.2159 78.8039 22.1969 78.6751 22.1212 78.6322C22.0266 78.5463 21.9319 78.5463 21.8562 78.5034ZM75.7465 82.71C75.7087 82.8817 75.7276 82.9675 75.8222 83.0534C75.9926 83.1392 76.144 83.0963 76.2955 82.9675C76.3712 82.8817 76.409 82.7958 76.3901 82.6242C76.3712 82.4954 76.3333 82.3666 76.2576 82.3237C76.1251 82.2379 75.9926 82.2808 75.879 82.4095C75.8033 82.4525 75.7655 82.5812 75.7465 82.71ZM90.7763 11.3306C90.7763 11.3306 90.7006 11.3306 90.6438 11.3306C90.5681 11.3735 90.4356 11.3735 90.6059 11.5881C90.6249 11.631 90.6627 11.631 90.7006 11.631C90.8709 11.674 91.0224 11.7598 91.1927 11.8886C91.2117 11.8886 91.2495 11.8886 91.2685 11.8457C91.2874 11.8027 91.3252 11.7598 91.3252 11.674C91.3252 11.5881 91.3252 11.5023 91.3063 11.4594C91.1738 11.2447 91.0035 11.3306 90.7763 11.3306ZM96.2278 10.3863C96.171 10.3863 96.0953 10.3863 96.0385 10.4293C95.9817 10.4722 95.9439 10.6009 95.9249 10.7297C95.906 10.9014 95.9249 10.9872 96.0007 11.116C96.1332 11.2877 96.2467 11.2877 96.3603 11.116C96.436 11.0302 96.455 10.9014 96.436 10.7726C96.4171 10.6439 96.3982 10.5151 96.3225 10.4293C96.3035 10.3863 96.2657 10.3863 96.2278 10.3863ZM14.8528 11.2015C14.9286 11.2015 14.9853 11.2015 15.0611 11.1586C15.0989 11.1586 15.1178 11.1157 15.1557 11.0727C15.2314 11.0298 15.2504 10.901 15.1936 10.7294C15.0989 10.4289 14.9096 10.3431 14.7393 10.5147C14.6825 10.6006 14.6446 10.7294 14.6257 10.901C14.6068 11.0727 14.7203 11.2015 14.8528 11.2015ZM20.664 8.11113C20.3422 8.11112 20.2097 8.11112 20.0772 8.11112C20.0015 8.11112 19.9447 8.23989 19.9826 8.32574C20.0015 8.36866 20.0394 8.41158 20.0583 8.41158C20.3233 8.41158 20.5883 8.36866 20.8533 8.36866C20.8912 8.36866 20.9101 8.28282 20.929 8.2399C20.9101 8.19697 20.8912 8.15405 20.8533 8.11113C20.7397 8.02529 20.6072 8.06821 20.664 8.11113ZM77.7912 4.33423C77.8669 4.33423 77.9237 4.33423 77.9994 4.29131C78.0372 4.29131 78.0751 4.24839 78.094 4.24839C78.1319 4.20547 78.1698 4.16254 78.1698 4.11962C78.1698 3.94793 78.113 3.86209 78.0562 3.81917C77.9237 3.73332 77.829 3.51871 77.6776 3.56163C77.6208 3.56163 77.564 3.6904 77.5451 3.81916C77.5262 3.99085 77.5451 4.11962 77.6208 4.20546C77.6587 4.24839 77.7344 4.2913 77.7912 4.33423ZM61.0392 2.91773C61.1149 2.91773 61.1717 2.8748 61.2095 2.74604C61.2095 2.70312 61.1906 2.61727 61.1717 2.57435C61.0203 2.31682 60.8688 2.05929 60.6985 1.80175C60.6228 1.67299 60.5849 1.7159 60.547 1.8876C60.5281 1.93052 60.5281 2.01636 60.5281 2.1022C60.5849 2.57435 60.7931 2.91773 61.0392 2.91773ZM18.8844 75.2842C18.6573 75.2842 18.5626 75.2842 18.468 75.2842C18.3733 75.2842 18.3355 75.413 18.3544 75.4988C18.3733 75.5418 18.4112 75.6276 18.4301 75.6276C18.6005 75.6276 18.7708 75.6276 18.9412 75.6276C19.0358 75.6276 19.0737 75.4988 19.0548 75.4559C19.0358 75.413 18.998 75.3701 18.9791 75.3701C18.9033 75.2842 18.8276 75.2842 18.8844 75.2842ZM13.8875 10.8581C13.7361 10.8581 13.6793 10.8581 13.6036 10.8581C13.5657 10.8581 13.5278 10.8581 13.5089 10.901C13.4711 10.944 13.4521 10.9869 13.4332 11.0298C13.4332 11.0298 13.4521 11.1156 13.471 11.1586C13.6793 11.2873 13.8686 11.3303 14.1336 11.1586C14.1525 11.1586 14.1714 11.0727 14.1903 11.0298C14.1714 10.9869 14.1336 10.901 14.1146 10.901C14.0011 10.8581 13.9064 10.8581 13.8875 10.8581ZM13.0925 8.02525C12.9032 8.02525 12.8464 8.02525 12.7896 8.02525C12.7518 8.02525 12.7328 8.02525 12.695 8.06818C12.6571 8.1111 12.6382 8.15401 12.6193 8.19694C12.6193 8.19694 12.6382 8.28278 12.6571 8.32571C12.8843 8.49739 13.0925 8.49739 13.3196 8.32571C13.3386 8.32571 13.3575 8.23986 13.3575 8.19694C13.3386 8.15402 13.3007 8.06818 13.2818 8.06818C13.1682 8.02525 13.0736 8.02525 13.0925 8.02525ZM72.9454 7.59629C72.775 7.59629 72.6804 7.59629 72.5857 7.59629C72.5668 7.59629 72.5289 7.68213 72.51 7.72506C72.4911 7.8109 72.5479 7.93966 72.6236 7.93966C72.8129 7.98259 73.0022 7.98259 73.1915 7.85383C73.2104 7.85383 73.2293 7.76798 73.2482 7.72506C73.2293 7.68214 73.1915 7.63921 73.1725 7.59629C73.059 7.59629 72.9643 7.59629 72.9454 7.59629ZM9.57173 6.26543C9.38244 6.2225 9.23101 6.30836 9.11744 6.65173C9.09851 6.69466 9.07958 6.78049 9.07958 6.82342C9.11744 6.9951 9.17422 7.03803 9.24994 6.99511C9.36352 6.86634 9.49602 6.73757 9.60959 6.6088C9.68531 6.52297 9.70423 6.3942 9.64745 6.30835C9.60958 6.26543 9.57173 6.26543 9.57173 6.26543ZM88.4291 14.0347C88.3534 14.0347 88.2209 14.0776 88.0884 14.1205C88.0505 14.1205 88.0127 14.2064 88.0127 14.2493C88.0316 14.378 88.0695 14.421 88.1452 14.4639C88.3155 14.5068 88.467 14.5068 88.6373 14.421C88.7131 14.3781 88.7698 14.2922 88.7509 14.2064C88.7509 14.1634 88.6941 14.1205 88.6752 14.0776C88.6184 14.0776 88.5427 14.0776 88.4291 14.0347ZM67.986 4.67757C68.0618 4.89218 68.1564 5.14971 68.251 5.36432C68.3078 5.49309 68.3646 5.49308 68.4214 5.40724C68.4593 5.27848 68.4593 5.14971 68.4403 4.97802C68.3836 4.67756 68.27 4.50588 68.1375 4.46295C68.0996 4.46295 68.0807 4.46295 68.0428 4.50588C68.005 4.5488 67.986 4.59172 67.986 4.67757ZM32.7027 11.2445C32.6459 11.2445 32.5702 11.2445 32.5134 11.2874C32.4756 11.2874 32.4377 11.3733 32.4377 11.4162C32.4377 11.502 32.4756 11.6308 32.5513 11.6308C32.6459 11.6737 32.7406 11.6308 32.8352 11.6308C32.9109 11.6308 32.9867 11.502 32.9677 11.4162C32.9488 11.2874 32.8731 11.2445 32.7974 11.2445C32.7595 11.2445 32.7406 11.2445 32.7027 11.2445ZM91.0603 8.2402C91.0413 8.28312 91.0035 8.36897 91.0035 8.41188C91.0035 8.49773 91.0035 8.58357 91.0224 8.6265C91.117 8.88403 91.4199 8.92696 91.4767 8.71234C91.4767 8.66942 91.4578 8.58358 91.4388 8.54065C91.3063 8.41189 91.1928 8.2402 91.0603 8.2402ZM54.2627 3.9049C54.2437 3.9049 54.2059 3.90491 54.187 3.94783C54.1491 3.99075 54.1112 3.99076 54.1112 4.07659C54.1112 4.16244 54.1491 4.29121 54.2248 4.29121C54.3194 4.29121 54.4141 4.29121 54.5087 4.29121C54.5845 4.29121 54.6602 4.16244 54.6412 4.11952C54.6223 3.99075 54.5466 3.94783 54.4709 3.94783C54.4141 3.90491 54.3384 3.9049 54.2627 3.9049ZM100.43 82.195C100.43 82.3667 100.468 82.4526 100.543 82.4955C100.619 82.5384 100.676 82.4526 100.714 82.3238C100.77 82.1092 100.657 81.8517 100.562 81.8946C100.486 81.9375 100.449 82.0233 100.43 82.195ZM13.5465 63.1802C13.5465 63.3089 13.5844 63.4377 13.6412 63.4806C13.7358 63.5665 13.8494 63.3519 13.8305 63.1372C13.8115 63.0085 13.7926 62.8797 13.7358 62.8368C13.6412 62.7509 13.5465 62.9656 13.5465 63.1802ZM74.9329 4.03376C74.9519 4.07668 74.9518 4.16253 74.9708 4.20545C75.0465 4.33422 75.1601 4.33422 75.2547 4.2913C75.2736 4.2913 75.3304 4.20545 75.3304 4.16253C75.3304 4.03376 75.2926 3.94792 75.2169 3.90499C75.0465 3.81915 74.9519 3.905 74.9329 4.03376ZM21.3455 4.5486C21.3265 4.59152 21.2887 4.67737 21.2887 4.72029C21.2697 4.89197 21.3076 5.02074 21.3644 5.10658C21.4212 5.19243 21.478 5.19243 21.5347 5.10658C21.5726 5.02074 21.5726 4.89198 21.5158 4.76321C21.459 4.59152 21.4212 4.5486 21.3455 4.5486ZM39.3089 4.76328C39.2521 4.76328 39.1953 4.84913 39.1385 4.93497C39.1764 5.06374 39.2332 5.14959 39.29 5.14959C39.4225 5.19251 39.555 5.10666 39.5361 4.9779C39.555 4.89205 39.4225 4.76328 39.3089 4.76328ZM13.0357 6.60882C13.0357 6.5659 13.0357 6.48006 13.0168 6.43713C12.9789 6.30837 12.9221 6.26544 12.8653 6.26544C12.8464 6.26544 12.8086 6.30836 12.7896 6.39421C12.7518 6.52298 12.8275 6.73759 12.9411 6.82343C12.9789 6.86636 13.0168 6.78051 13.0357 6.60882ZM88.0316 7.38175C88.1074 7.55343 88.202 7.55343 88.2967 7.46759C88.4102 7.38174 88.4102 7.2959 88.3156 7.21006C88.2209 7.12422 88.1263 7.12421 88.0506 7.25298C88.0316 7.25298 88.0127 7.33882 88.0316 7.38175ZM16.0454 7.81065C16.0643 7.85358 16.0832 7.93942 16.1211 7.93942C16.1968 7.98234 16.2536 7.8965 16.2915 7.76773C16.3293 7.63897 16.3293 7.5102 16.2915 7.38144C16.2536 7.29559 16.1968 7.29559 16.14 7.42436C16.0643 7.55312 16.0454 7.68189 16.0454 7.81065ZM74.3083 7.5963C74.2325 7.55337 74.1758 7.5963 74.1379 7.72506C74.1758 7.85383 74.2325 7.89675 74.2893 7.89675C74.4218 7.89675 74.5354 7.81091 74.4786 7.72507C74.4218 7.63922 74.365 7.5963 74.3083 7.5963ZM9.6853 8.02524C9.60958 8.02524 9.5528 8.06815 9.51494 8.19692C9.53387 8.32569 9.59065 8.41153 9.66637 8.41153C9.79887 8.41153 9.91244 8.28277 9.87458 8.19693C9.8178 8.06816 9.76101 8.02524 9.6853 8.02524ZM87.123 14.0347C87.123 14.1634 87.142 14.2922 87.2177 14.3351C87.2745 14.421 87.3502 14.378 87.388 14.2493C87.407 14.1205 87.3691 13.9917 87.3313 13.9059C87.2745 13.7771 87.2177 13.7771 87.1798 13.863C87.142 13.9059 87.123 13.9917 87.123 14.0347ZM14.228 63.4377C14.2658 63.5665 14.3415 63.6094 14.3983 63.6094C14.474 63.6094 14.5308 63.5665 14.5687 63.4377C14.5687 63.4377 14.5498 63.3089 14.5308 63.3089C14.4362 63.2231 14.3415 63.1802 14.2469 63.3089C14.2469 63.3089 14.2469 63.3948 14.228 63.4377ZM51.8773 77.8168C51.953 77.9885 52.1802 77.9455 52.218 77.7739C52.218 77.7309 52.1802 77.6451 52.1612 77.6022C52.0666 77.5163 51.972 77.5592 51.8962 77.688C51.8773 77.7309 51.8773 77.7738 51.8773 77.8168ZM24.6577 79.8769C24.6387 79.9628 24.6198 80.0486 24.6198 80.0915C24.6577 80.2632 24.7145 80.3061 24.7902 80.2203C24.8659 80.1344 24.9037 80.0057 24.8848 79.834C24.8848 79.7482 24.847 79.6623 24.828 79.6623C24.7713 79.6194 24.6955 79.7052 24.6577 79.8769ZM82.8259 83.6543C82.788 83.6543 82.7691 83.6543 82.7313 83.6972C82.6555 83.7402 82.6366 83.8689 82.6366 84.0406C82.6366 84.0835 82.6555 84.1694 82.6745 84.2123C82.7312 84.2981 82.7691 84.2552 82.8259 84.1265C82.8827 83.9977 82.9016 83.9118 82.8827 83.7831C82.8827 83.6972 82.8448 83.6972 82.8259 83.6543ZM70.39 3.08946C70.3522 3.00361 70.2954 2.96069 70.2197 2.96069C70.1439 2.96069 70.0872 3.00361 70.0493 3.08946C70.0493 3.08946 70.0682 3.1753 70.0872 3.21823C70.1818 3.30406 70.2764 3.30407 70.3522 3.21823C70.3711 3.1753 70.3711 3.13238 70.39 3.08946ZM93.8614 84.427C93.8803 84.384 93.9371 84.2982 93.9371 84.2553C93.9182 84.0836 93.8425 84.0407 93.7857 84.0836C93.7667 84.1265 93.71 84.2123 93.7289 84.2123C93.7289 84.427 93.8046 84.4699 93.8614 84.427ZM92.7635 84.1265C92.7446 84.1694 92.7067 84.2123 92.6878 84.2553C92.7067 84.2982 92.7257 84.384 92.7446 84.384C92.8014 84.427 92.8582 84.384 92.896 84.2553C92.896 84.2553 92.8582 84.1265 92.8392 84.1265C92.8392 84.1265 92.8014 84.1265 92.7635 84.1265ZM74.8758 82.9246C74.8758 82.8817 74.8758 82.7958 74.8569 82.7958C74.8379 82.7529 74.8001 82.7529 74.7622 82.7529C74.6865 82.8388 74.6865 82.9246 74.7812 82.9675C74.819 83.0104 74.8569 82.9675 74.8758 82.9246ZM99.4454 82.3667C99.4643 82.4096 99.4833 82.4955 99.5022 82.4955C99.559 82.5384 99.6158 82.4955 99.6536 82.3667C99.6536 82.3667 99.6158 82.238 99.5968 82.238C99.54 82.195 99.4833 82.238 99.4454 82.3667ZM102.171 39.6592C102.152 39.7022 102.115 39.7451 102.096 39.7451C102.115 39.788 102.133 39.8309 102.152 39.8738C102.171 39.9168 102.209 39.9168 102.228 39.8738C102.247 39.8738 102.304 39.788 102.304 39.788C102.285 39.6592 102.228 39.6163 102.171 39.6592ZM1.62154 29.4433C1.60261 29.4863 1.56475 29.5292 1.54582 29.5292C1.56475 29.5721 1.58368 29.6579 1.62154 29.6579C1.71618 29.7009 1.75404 29.615 1.71618 29.4863C1.67832 29.4433 1.64047 29.4433 1.62154 29.4433ZM81.293 12.9187C81.3498 13.0045 81.4065 12.9616 81.4444 12.9187C81.4255 12.8757 81.4065 12.8328 81.3687 12.8328C81.3498 12.8328 81.3119 12.8328 81.293 12.8757C81.293 12.8328 81.293 12.8757 81.293 12.9187ZM92.5745 10.8585C92.5556 10.9014 92.5178 10.9443 92.4988 10.9872C92.5178 11.0301 92.5367 11.116 92.5745 11.116C92.6692 11.1589 92.707 11.0731 92.6692 10.9443C92.6503 10.8585 92.5935 10.8585 92.5745 10.8585ZM18.9226 7.38145C18.9604 7.42437 18.9793 7.4673 19.0172 7.42437C19.0551 7.42437 19.074 7.33853 19.0929 7.29561C19.074 7.25268 19.0551 7.16684 19.0172 7.16684C18.9983 7.16684 18.9604 7.16684 18.9226 7.20976C18.9226 7.25268 18.9226 7.33853 18.9226 7.38145ZM66.3203 6.35153C66.3392 6.39444 66.3582 6.48029 66.3771 6.48029C66.4339 6.5232 66.4907 6.48029 66.5475 6.39444C66.5285 6.35152 66.5096 6.26567 66.4907 6.26567C66.415 6.17983 66.3582 6.22276 66.3203 6.35153ZM63.8974 4.11956C63.9164 4.11956 63.9542 4.16248 63.9731 4.16248C63.9921 4.16248 64.0299 4.11956 64.0489 4.07664C64.0299 4.03372 64.011 3.99079 63.9731 3.94787C63.9542 3.94787 63.9164 3.94787 63.8785 3.9908C63.8974 3.9908 63.9164 4.07664 63.8974 4.11956ZM17.465 11.5449L17.5029 11.459L17.4461 11.459L17.465 11.5449ZM16.6511 8.62618L16.6132 8.75495L16.67 8.75495L16.6511 8.62618ZM81.4634 4.16256L81.5012 4.07671L81.4444 4.07671L81.4634 4.16256Z" fill="#00659E"/>
<path d="M55.4884 11.4438C55.2096 11.4056 54.9464 11.3674 54.6986 10.985C54.6831 10.9467 54.6521 10.8702 54.6521 10.832C54.6521 10.7173 54.6831 10.6408 54.745 10.6026C54.8844 10.5261 55.0083 10.4114 55.1322 10.2584C55.3026 10.029 55.4729 9.91425 55.6743 10.0672C55.8911 10.2202 56.1079 10.1437 56.3247 10.1819C56.4022 10.1819 56.4796 10.2202 56.5725 10.2967C56.6345 10.3349 56.6655 10.4496 56.6809 10.5643C56.6964 10.7173 56.6809 10.832 56.619 10.8703C56.5725 10.9085 56.5261 10.985 56.4641 10.985C56.3247 11.0232 56.2008 11.0614 56.0614 11.2144C55.8756 11.4056 55.6898 11.3674 55.4884 11.4438Z" fill="#00659E"/>
<path d="M99.9244 88.1771C99.9399 88.0622 99.9554 87.909 99.9864 87.8324C100.079 87.5643 100.203 87.4493 100.358 87.4877C100.482 87.526 100.559 87.6792 100.606 87.9473C100.637 88.0622 100.621 88.2154 100.575 88.3303C100.451 88.6368 100.296 88.79 100.126 88.7134C100.048 88.6751 99.9709 88.5602 99.9244 88.407C99.9244 88.3686 99.9244 88.2537 99.9244 88.1771Z" fill="#00659E"/>
<path d="M74.539 83.5127C74.6319 83.589 74.6939 83.7035 74.7248 83.8943C74.7713 84.0851 74.7558 84.2759 74.6784 84.3903C74.5855 84.543 74.477 84.5811 74.3841 84.5048C74.3531 84.5048 74.3377 84.4667 74.3067 84.4285C74.2447 84.3522 74.1828 84.0469 74.2138 83.9324C74.2447 83.818 74.2912 83.7416 74.3377 83.7035C74.4151 83.6272 74.477 83.5509 74.539 83.5127Z" fill="#00659E"/>
<path d="M43.671 79.9536C43.609 80.2593 43.5625 80.5649 43.5006 80.8324C43.4696 80.9852 43.4231 81.0234 43.3766 81.0234C43.2991 80.9852 43.2216 80.7178 43.2371 80.6031C43.2371 80.5267 43.2526 80.4885 43.2681 80.4121C43.3301 80.1829 43.4231 80.03 43.5316 80.03C43.578 80.03 43.64 80.03 43.6865 79.9918L43.671 79.9536Z" fill="#00659E"/>
<path d="M23.9852 51.0332C24.0317 50.995 24.0936 50.9185 24.1401 50.9185C24.1556 50.9185 24.1866 50.9567 24.202 50.995C24.233 51.1097 24.233 51.2244 24.1866 51.3009C24.0936 51.4539 23.9852 51.4157 23.8768 51.4157C23.8148 51.4157 23.7683 51.3774 23.7219 51.3009C23.7374 51.1862 23.7838 51.1479 23.8303 51.1097C23.8768 51.0714 23.9232 51.0332 23.9852 51.0332Z" fill="#00659E"/>
<path d="M28.6631 72.1519C28.6166 72.1519 28.5547 72.1519 28.5082 72.1135C28.4462 72.1135 28.3998 72.0368 28.3998 71.9217C28.3998 71.7683 28.4462 71.6916 28.5082 71.6532C28.5547 71.6149 28.6011 71.5382 28.6631 71.4998C28.725 71.4615 28.8179 71.5382 28.8644 71.73C28.8799 71.7683 28.8799 71.8834 28.8799 71.9217C28.8644 72.0368 28.8179 72.0751 28.756 72.1135C28.725 72.1519 28.694 72.1519 28.6631 72.1519Z" fill="#00659E"/>
<path d="M16.9996 45.1059C17.0151 45.0681 17.0151 44.9926 17.0306 44.9926C17.1081 44.9172 17.1855 44.9172 17.263 44.9926C17.2785 44.9926 17.2939 45.1059 17.2939 45.1059C17.263 45.2191 17.201 45.2568 17.1545 45.2568C17.0926 45.2568 17.0461 45.2191 16.9996 45.1059Z" fill="#00659E"/>
<path d="M49.9433 81.0225C49.9278 80.8689 49.9898 80.6769 50.0672 80.6001C50.0827 80.6001 50.1137 80.6001 50.1292 80.6385C50.1757 80.7537 50.1757 80.8689 50.1292 80.9841C50.0982 81.0993 50.0517 81.1377 49.9898 81.1377C49.9898 81.1377 49.9588 81.0609 49.9433 81.0225Z" fill="#00659E"/>
<path d="M65.1855 82.7083C65.201 82.6698 65.201 82.5928 65.2164 82.5543C65.2938 82.4389 65.3712 82.4773 65.4485 82.5543C65.464 82.5928 65.4795 82.6698 65.4795 82.6698C65.4485 82.7852 65.3866 82.8237 65.3402 82.8237C65.2783 82.8237 65.2319 82.7852 65.1855 82.7083Z" fill="#00659E"/>
<path d="M97.9436 87.8687C98.0055 87.8687 98.052 87.8687 98.083 87.9848C98.1139 88.101 98.0365 88.2172 97.9281 88.1784C97.8661 88.1784 97.8351 88.101 97.8041 87.9848C97.8506 87.9074 97.8971 87.8687 97.9436 87.8687Z" fill="#00659E"/>
<path d="M75.2521 84.0466C75.2366 84.008 75.2056 83.9309 75.2056 83.9309C75.2211 83.8152 75.2676 83.7767 75.3295 83.8152C75.345 83.8152 75.376 83.9309 75.376 83.9309C75.345 84.0466 75.2985 84.0851 75.2521 84.0466Z" fill="#00659E"/>
<path d="M71.335 83.548C71.304 83.5865 71.2885 83.625 71.2575 83.625C71.1801 83.5865 71.1646 83.4709 71.2421 83.3939C71.2575 83.3554 71.304 83.3939 71.3195 83.4324C71.335 83.4324 71.335 83.5094 71.335 83.548Z" fill="#00659E"/>
<path d="M62.4439 82.9389C62.4749 83.0145 62.5059 83.0524 62.5059 83.0902C62.4749 83.2036 62.4284 83.2414 62.3819 83.2036C62.3664 83.1658 62.32 83.0902 62.3355 83.0902C62.3509 82.9389 62.3974 82.9011 62.4439 82.9389Z" fill="#00659E"/>
<path d="M59.2369 81.9819C59.2214 81.9819 59.1749 81.9439 59.1749 81.906C59.1594 81.792 59.2059 81.716 59.2678 81.754C59.2833 81.754 59.2988 81.83 59.2988 81.868C59.2678 81.906 59.2523 81.9819 59.2369 81.9819Z" fill="#00659E"/>
<path d="M48.6733 80.4902C48.7042 80.5281 48.7352 80.5281 48.7352 80.5659C48.7662 80.6794 48.7352 80.755 48.6578 80.7172C48.6423 80.7172 48.6268 80.6416 48.5958 80.6037C48.6268 80.5659 48.6578 80.5281 48.6733 80.4902Z" fill="#00659E"/>
<path d="M42.4008 80.6027C42.4318 80.4882 42.4783 80.4119 42.5403 80.4882C42.5557 80.5264 42.6022 80.6027 42.5867 80.6408C42.5557 80.7935 42.5093 80.8316 42.4473 80.7553C42.4318 80.7172 42.4163 80.6408 42.4008 80.6027Z" fill="#00659E"/>
<path d="M30.8467 80.682C30.8312 80.682 30.8002 80.7585 30.7847 80.7202C30.7072 80.682 30.7072 80.6055 30.7692 80.529C30.7847 80.4908 30.8157 80.529 30.8467 80.5673C30.8467 80.5673 30.8467 80.6055 30.8467 80.682Z" fill="#00659E"/>
<path d="M49.7582 79.6489C49.7737 79.6871 49.8047 79.7635 49.8047 79.8018C49.7892 79.9546 49.7273 79.9928 49.6808 79.9164C49.6653 79.8782 49.6189 79.8018 49.6343 79.7635C49.6343 79.6489 49.6963 79.5725 49.7582 79.6489Z" fill="#00659E"/>
<path d="M29.8707 78.1184C29.9016 78.0027 29.9481 77.9642 29.9946 78.0027C30.01 78.0413 30.041 78.1184 30.041 78.1184C30.01 78.2341 29.9636 78.2726 29.9171 78.2341C29.8862 78.2341 29.8862 78.1955 29.8707 78.1184Z" fill="#00659E"/>
<path d="M102.048 74.2168C102.094 74.293 102.141 74.3691 102.172 74.4453C102.203 74.5596 102.203 74.6738 102.156 74.75C102.141 74.75 102.11 74.75 102.11 74.7119C102.079 74.6738 102.079 74.6357 102.063 74.5596C102.063 74.4453 102.063 74.293 102.063 74.1787L102.048 74.2168Z" fill="#00659E"/>
<path d="M27.191 69.8936C27.222 69.779 27.2684 69.7408 27.3149 69.779C27.3304 69.8172 27.3613 69.8936 27.3613 69.8936C27.3304 70.0081 27.2839 70.0463 27.2374 70.0081C27.222 69.9699 27.2065 69.9317 27.191 69.8936Z" fill="#00659E"/>
<path d="M26.7268 65.3799C26.7268 65.3415 26.7268 65.2649 26.7268 65.2649C26.7423 65.2266 26.7733 65.2266 26.8043 65.2266C26.8197 65.2266 26.8507 65.3032 26.8662 65.3415C26.8507 65.3799 26.8197 65.4182 26.8043 65.4182C26.7733 65.4565 26.7423 65.4182 26.7268 65.3799Z" fill="#00659E"/>
<path d="M17.6656 45.0653C17.6966 44.9499 17.743 44.873 17.7895 44.9499C17.805 44.9884 17.8359 45.0653 17.8359 45.0653C17.805 45.2192 17.7585 45.2577 17.7121 45.1808C17.6966 45.1808 17.6811 45.1038 17.6656 45.0653Z" fill="#00659E"/>
<path d="M21.1965 17.8716C21.1965 17.8335 21.1965 17.7573 21.1965 17.7573C21.212 17.7192 21.243 17.7192 21.274 17.7192C21.2895 17.7192 21.305 17.7954 21.3359 17.8335C21.3204 17.8716 21.2895 17.9097 21.274 17.9097C21.243 17.9097 21.2275 17.8716 21.1965 17.8716Z" fill="#00659E"/>
<path d="M73.27 83.7422C73.3321 83.7803 73.3477 83.8184 73.3477 83.9326C73.3321 83.9326 73.3166 83.8945 73.3011 83.8945C73.2855 83.8564 73.2855 83.7803 73.2855 83.7422L73.27 83.7422Z" fill="#00659E"/>
<path d="M69.5988 83.7002C69.5833 83.8529 69.5678 83.8911 69.5213 83.8911C69.5368 83.8529 69.5368 83.8147 69.5523 83.7766C69.5678 83.7384 69.5988 83.7384 69.6143 83.7384L69.5988 83.7002Z" fill="#00659E"/>
<path d="M73.2842 83.701C73.2067 83.701 73.1912 83.6245 73.1912 83.5098C73.2067 83.5098 73.2377 83.548 73.2377 83.548C73.2532 83.5863 73.2532 83.6628 73.2687 83.7393L73.2842 83.701Z" fill="#00659E"/>
<path d="M69.614 83.7393C69.614 83.6235 69.6295 83.5078 69.6761 83.4307C69.6761 83.4307 69.7071 83.5078 69.7227 83.5464C69.6916 83.6235 69.6451 83.7007 69.5985 83.7007L69.614 83.7393Z" fill="#00659E"/>
<path d="M64.069 82.4771C64.1311 82.5158 64.1621 82.5545 64.1621 82.6318C64.1466 82.6318 64.1155 82.6318 64.1155 82.5932C64.1 82.5545 64.1 82.4771 64.0845 82.4385L64.069 82.4771Z" fill="#00659E"/>
<path d="M18.4092 48.1626C18.4092 48.3172 18.3783 48.3945 18.332 48.3559C18.332 48.3172 18.3474 48.2786 18.3474 48.2399C18.3629 48.2013 18.3937 48.2013 18.4092 48.2013L18.4092 48.1626Z" fill="#00659E"/>
<path d="M18.4244 48.2031C18.4399 48.0507 18.4554 47.9745 18.502 48.0126C18.502 48.0507 18.4864 48.0888 18.4709 48.1269C18.4554 48.165 18.4244 48.165 18.4089 48.2031L18.4244 48.2031Z" fill="#00659E"/>
<path d="M32.1311 18.4453C32.0692 18.4072 32.0382 18.331 32.0072 18.2166C31.9762 18.0261 31.9917 17.8355 32.0692 17.7212C32.0847 17.6831 32.1156 17.6831 32.1466 17.6831C32.2086 17.7212 32.2395 17.8355 32.2086 17.9499C32.1776 18.1404 32.1466 18.2929 32.1001 18.4834L32.1311 18.4453Z" fill="#00659E"/>
<path d="M32.8135 17.6022C32.736 17.6406 32.6585 17.6406 32.5965 17.5638C32.581 17.5254 32.55 17.4487 32.55 17.4487C32.5655 17.2951 32.612 17.2567 32.674 17.2951C32.736 17.2951 32.7515 17.3335 32.8135 17.6022Z" fill="#00659E"/>
<path d="M31.2956 17.6431C31.2956 17.4904 31.3266 17.4141 31.373 17.4141C31.373 17.4522 31.373 17.5286 31.3576 17.5286C31.3421 17.5667 31.3111 17.5667 31.2956 17.6431Z" fill="#00659E"/>
<g clip-path="url(#clip0)">
<g clip-path="url(#clip1)">
<path d="M81.1175 19.7236C81.6055 19.7236 82.001 19.3377 82.001 18.862C82.001 18.3858 81.6055 18 81.1175 18H58.2874C57.4124 17.9992 56.5681 18.3164 55.9195 18.8892L30.4579 41.3253C29.5311 42.1427 29.0018 43.3045 29.001 44.5235V47.3008C29.001 47.7769 29.3964 48.1627 29.8845 48.1627C30.3722 48.1627 30.7676 47.7769 30.7676 47.3008V44.5235C30.7684 43.7921 31.0858 43.0954 31.6414 42.6047L35.1844 39.4827V59.366H29.8845C29.3964 59.366 29.001 59.7518 29.001 60.2276C29.001 60.7038 29.3964 61.0896 29.8845 61.0896H30.7676V67.9838C30.7688 68.9353 31.5589 69.7061 32.5343 69.7073H80.2343C81.2097 69.7061 81.9998 68.9353 82.001 67.9838V35.2359C81.9998 34.2844 81.2097 33.5131 80.2343 33.5124H74.9344V19.7236H81.1175ZM58.2874 19.7236H64.3342V33.5124H59.0343C58.5466 33.5124 58.1511 33.8982 58.1511 34.3739C58.1511 34.8501 58.5466 35.2359 59.0343 35.2359H59.9178V41.2681C59.9174 41.7439 59.5219 42.1297 59.0343 42.1301H56.3845V20.8017L57.1039 20.1678C57.4281 19.8814 57.8499 19.7232 58.2874 19.7236ZM51.0842 42.1301H49.3175C48.8299 42.1301 48.4344 42.5159 48.4344 42.9917C48.4344 43.4678 48.8299 43.8537 49.3175 43.8537H50.2011V49.8863C50.2007 50.362 49.8052 50.7475 49.3175 50.7479H46.6678V29.3638L54.6175 22.3588V42.1301H51.0842ZM36.9511 37.926L44.9011 30.9209V50.7479H39.6008C39.1132 50.7479 38.7177 51.1337 38.7177 51.6098C38.7177 52.0856 39.1132 52.4714 39.6008 52.4714H40.4843V58.504C40.4839 58.9798 40.0885 59.3656 39.6008 59.366H36.9511V37.926ZM64.3342 67.9838C63.3593 67.9826 62.5688 67.2117 62.5675 66.2602V61.0896H71.4011V66.2602C71.3999 67.2117 70.6094 67.9826 69.6345 67.9838H64.3342ZM65.1951 55.6191C63.3168 55.0325 61.6383 53.9563 60.3415 52.5061C59.16 50.9652 58.431 49.1395 58.2332 47.2246C60.1123 47.8105 61.7908 48.887 63.0875 50.3372C64.2687 51.8785 64.9973 53.7042 65.1951 55.6191ZM65.5533 50.8903C65.5173 50.4106 65.5226 49.9285 65.5679 49.4496C65.8586 47.3221 66.7486 45.3149 68.1384 43.6513C69.1788 45.5413 69.664 47.6747 69.5403 49.8169C69.5104 50.1246 69.459 50.4299 69.3866 50.7309C68.8468 51.7069 68.4437 52.7487 68.1889 53.8293C68.1841 53.8403 68.1849 53.8521 68.1804 53.8636C68.0191 54.5401 67.9075 55.227 67.8476 55.9185H67.0046C66.8622 54.1662 66.3693 52.4576 65.5533 50.8903ZM71.7651 50.3376C73.0643 48.8894 74.7432 47.814 76.6218 47.2266C76.4245 49.1415 75.6946 50.9672 74.5107 52.5061C73.211 53.9543 71.5322 55.0297 69.6539 55.6175C69.8512 53.7026 70.5811 51.8769 71.7651 50.3376ZM73.1678 57.6425L73.1686 59.366H60.8009V57.6425H73.1678ZM80.2343 67.9838H72.6761C72.9943 67.4622 73.1641 66.867 73.1678 66.2602V61.0896C74.1427 61.0884 74.9332 60.3171 74.9344 59.366V57.6425C74.9332 56.6909 74.1427 55.9197 73.1678 55.9185H73.1334C74.1771 55.298 75.1067 54.511 75.8843 53.591C77.5405 51.4063 78.4451 48.7663 78.4677 46.049C78.4633 45.7942 78.3436 45.5539 78.1406 45.3934C77.9372 45.2332 77.6719 45.1685 77.4152 45.2174C75.1491 45.7196 73.0513 46.7761 71.3195 48.2874C71.1116 45.9362 70.3191 43.6698 69.0106 41.6851C68.863 41.4749 68.6272 41.3391 68.3672 41.3147C68.1072 41.2914 67.8501 41.3806 67.6633 41.5585C65.7361 43.5148 64.4284 45.9729 63.8979 48.6365C62.1098 46.9359 59.8729 45.7524 57.4366 45.2178C57.1803 45.1689 56.9146 45.2332 56.7116 45.3938C56.5086 45.5543 56.3889 45.7942 56.3845 46.049C56.4067 48.7663 57.3113 51.4063 58.9679 53.591C59.7451 54.511 60.6747 55.298 61.7184 55.9185H60.8009C59.8256 55.9197 59.0355 56.6909 59.0343 57.6425V59.366C59.0355 60.3171 59.8256 61.0884 60.8009 61.0896V66.2602C60.8045 66.867 60.9744 67.4622 61.2922 67.9838H32.5343V61.0896H39.6008C41.0638 61.088 42.2494 59.9313 42.251 58.504V52.4714H49.3175C50.7805 52.4698 51.9661 51.3136 51.9677 49.8863V43.8537H59.0343C60.4972 43.8521 61.6828 42.6954 61.6844 41.2681V35.2359H65.2189L74.0469 35.2351L74.0509 35.2359L74.0553 35.2347H80.2343V67.9838ZM73.1678 33.5124H66.1008V19.7236H73.1678V33.5124Z" fill="white"/>
<path d="M68.7508 65.3984H65.2175C64.7294 65.3984 64.334 65.7843 64.334 66.2604C64.334 66.7362 64.7294 67.122 65.2175 67.122H68.7508C69.2384 67.122 69.6343 66.7362 69.6343 66.2604C69.6343 65.7843 69.2384 65.3984 68.7508 65.3984Z" fill="white"/>
</g>
</g>
<defs>
<clipPath id="clip0">
<rect width="53" height="53" fill="white" transform="translate(29 18)"/>
</clipPath>
<clipPath id="clip1">
<rect width="53" height="51.7073" fill="white" transform="translate(29.001 18)"/>
</clipPath>
</defs>
</svg>
