<svg width="87" height="89" viewBox="0 0 87 89" fill="none" xmlns="http://www.w3.org/2000/svg">
<path d="M5.36551 52.4213C5.31851 52.3355 5.2715 52.2497 5.20883 52.2069C5.16182 52.164 5.09915 52.1211 5.05214 52.164C4.89545 52.3355 4.7231 52.3784 4.55075 52.3784C4.34705 52.3784 4.15903 52.3784 3.95534 52.4213C3.75165 52.4642 3.56363 52.3784 3.35993 52.3784C3.21892 52.3784 3.0779 52.2926 2.95255 52.1211C2.84287 51.9925 2.73319 52.0353 2.62351 52.164C2.56084 52.2069 2.51383 52.2069 2.46682 52.164C2.35714 52.0353 2.26313 51.9496 2.13778 51.9496C2.0281 51.9496 1.91842 51.9067 1.80874 51.8638C1.74607 51.8638 1.65206 51.5636 1.65206 51.3921C1.63639 51.0919 1.60505 50.7918 1.62072 50.4916C1.62072 50.0199 1.65206 49.5911 1.71473 49.1194C1.74607 48.905 1.71473 48.6477 1.63639 48.519C1.57372 48.3904 1.49537 48.2617 1.4327 48.1331C1.33869 47.9187 1.29168 47.6614 1.30735 47.3183C1.32302 47.1897 1.33869 47.0182 1.35436 46.8895C1.38569 46.6322 1.33869 46.5036 1.22901 46.4607C1.08799 46.4607 0.946972 46.4607 0.805955 46.4178C0.75895 46.4178 0.696275 46.3321 0.649269 46.2463C0.539589 45.989 0.445578 45.6888 0.367235 45.3887C0.335898 45.26 0.304561 45.1314 0.304561 44.9598C0.288892 44.6597 0.288892 44.3595 0.273224 44.0593C0.273224 43.7591 0.304561 43.459 0.367235 43.2017C0.414241 42.9873 0.461246 42.8157 0.508252 42.6013C0.555258 42.4298 0.539589 42.2154 0.445578 42.001C0.382904 41.8295 0.320229 41.7008 0.257555 41.5293C0.179212 41.3149 0.132206 41.0147 0.116538 40.7145C0.116538 40.3286 0.116538 39.9426 0.116538 39.5567C0.116538 38.742 0.116538 38.6991 0.414241 38.4418C0.445578 38.3989 0.476915 38.3989 0.492584 38.356C0.508252 38.2703 0.492584 38.1416 0.429909 38.0559C0.320229 37.9272 0.226218 37.7557 0.163544 37.4984C0.147875 37.4555 0.132206 37.3697 0.132206 37.284C0.132206 37.1982 0.132206 37.1125 0.132206 37.0696C0.163544 36.8552 0.194881 36.6408 0.226218 36.4263C0.194881 36.1262 0.0852006 35.9546 0.0225263 35.6973C-0.00881085 35.5687 -0.00881085 35.3972 0.0225263 35.2685C0.0852006 35.0112 0.179212 34.8397 0.288892 34.7539C0.351566 34.7111 0.367235 34.5395 0.351566 34.368C0.257555 33.8534 0.273224 33.3388 0.367235 32.8243C0.382904 32.7385 0.398572 32.6956 0.398572 32.6099C0.445578 32.1382 0.429909 31.7093 0.351566 31.2805C0.320229 31.1519 0.288892 31.0232 0.257555 30.8946C0.163544 30.4658 0.147875 30.3371 0.398572 30.0369C0.523921 29.8654 0.664938 29.7797 0.790287 29.651C0.821624 29.651 0.837292 29.5652 0.852961 29.5224C0.86863 29.4366 0.821624 29.308 0.75895 29.2651C0.649269 29.2222 0.539589 29.1793 0.429909 29.0935C0.351566 29.0507 0.273224 28.922 0.226218 28.7076C0.210549 28.6647 0.179212 28.579 0.194881 28.4932C0.210549 28.0215 0.304561 27.6356 0.288892 27.1639C0.257555 26.6922 0.320229 26.1776 0.414241 25.7059C0.461246 25.5343 0.445578 25.2342 0.476915 25.0198C0.508252 24.8054 0.555258 24.6338 0.649269 24.5481C0.696275 24.4623 0.743281 24.3765 0.790287 24.3337C0.86863 24.205 0.884298 23.9477 0.805955 23.7762C0.680607 23.5189 0.633601 23.1758 0.711944 22.7899C0.743281 22.6184 0.743281 22.4897 0.711944 22.3611C0.680607 22.2324 0.680607 22.0609 0.696275 21.9323C0.727612 21.7179 0.774618 21.5035 0.774618 21.289C0.790287 20.9031 0.86863 20.5601 0.852961 20.1741C0.852961 19.8311 0.86863 19.6166 0.993978 19.4451C1.04098 19.4022 1.08799 19.2736 1.11933 19.1449C1.16633 19.0163 1.182 18.8877 1.15066 18.759C1.135 18.7161 1.10366 18.6733 1.07232 18.6733C0.931304 18.6733 0.790287 18.6733 0.649269 18.6304C0.555258 18.6304 0.492584 18.3731 0.508252 18.2015C0.555258 17.687 0.633601 17.1724 0.805955 16.8722C0.852961 16.7864 0.86863 16.6578 0.899967 16.5292C0.915635 16.4863 0.915635 16.4005 0.931304 16.3147H0.946972C1.11933 16.229 1.27601 16.1003 1.38569 15.7144C1.4327 15.5429 1.44837 15.2427 1.40136 15.0712C1.32302 14.7281 1.19767 14.5566 1.10366 14.2564C1.05665 14.0849 1.00965 13.8705 0.962641 13.699C0.946972 13.6561 0.946972 13.5703 0.946972 13.4845C0.915635 13.0986 1.02532 12.6698 1.15066 12.6269C1.29168 12.584 1.4327 12.5411 1.57372 12.4983C1.63639 12.4983 1.6834 12.4125 1.7304 12.3696C1.79308 12.3267 1.87142 11.9837 1.84008 11.855C1.79308 11.7693 1.74607 11.7264 1.6834 11.8122C1.63639 11.855 1.57372 11.9408 1.52671 11.9837C1.4797 12.0266 1.40136 12.0266 1.37002 11.9837C1.182 11.7264 0.993978 11.6406 0.805955 11.5977C0.774618 11.5977 0.75895 11.512 0.743281 11.4691C0.727612 11.3833 0.75895 11.2547 0.821624 11.2118C1.00965 11.126 1.21334 11.0832 1.38569 10.8259C1.4797 10.6543 1.60505 10.6972 1.71473 10.6543C1.82441 10.6115 1.93409 10.6543 2.04377 10.5257C2.10645 10.4828 2.21613 10.1826 2.21613 10.054C2.21613 9.92535 2.18479 9.7967 2.13778 9.66806C2.09078 9.5823 2.04377 9.45365 1.99677 9.45365C1.91842 9.41077 1.82441 9.36788 1.74607 9.36788C1.4327 9.325 1.135 9.325 0.821624 9.28212C0.790287 9.28212 0.75895 9.23924 0.743281 9.19636C0.711944 9.11059 0.727612 8.98195 0.774618 8.8533C0.86863 8.68178 0.962641 8.51025 1.04098 8.29584C1.15066 8.03855 1.27601 7.9099 1.41703 7.86702C1.49537 7.82414 1.58938 7.78126 1.66773 7.73837C1.71473 7.69549 1.76174 7.56685 1.77741 7.4382C1.88709 7.48108 1.99677 7.39532 2.09078 7.26667C2.16912 7.18091 2.24746 7.22379 2.32581 7.26667C2.54517 7.4382 2.76453 7.48108 2.96822 7.30956C2.98389 7.30956 3.01522 7.22379 3.01522 7.18091C3.01522 7.09515 3.01522 7.00938 2.99956 6.9665C2.96822 6.88074 2.92121 6.75209 2.87421 6.70921C2.5765 6.4948 2.2788 6.4948 1.9811 6.62345C1.93409 6.62345 1.87142 6.70921 1.84008 6.83786C1.80874 6.92362 1.80874 7.09515 1.79308 7.26667C1.79308 7.35244 1.79308 7.4382 1.79308 7.48108C1.74607 7.4382 1.69906 7.35244 1.66773 7.22379C1.63639 7.00938 1.58938 6.83786 1.55805 6.62345C1.51104 6.32327 1.51104 6.19463 1.55805 6.0231C1.63639 5.80869 1.71473 5.59428 1.79308 5.42275C1.85575 5.29411 1.93409 5.16546 2.01244 5.16546C2.15345 5.16546 2.2788 5.12258 2.41982 5.12258C2.56084 5.12258 2.68618 5.20835 2.81153 5.42275C2.85854 5.50852 2.90554 5.5514 2.96822 5.59428C2.98389 5.63716 2.98389 5.72293 2.99956 5.76581C3.01522 5.80869 3.03089 5.80869 3.04656 5.80869C3.04656 5.72293 3.01522 5.63716 2.95255 5.63716C2.96822 5.25123 2.92121 4.90817 2.8272 4.56512C2.70185 4.1363 2.54517 3.79324 2.34148 3.75036C2.29447 3.75036 2.2318 3.6646 2.18479 3.62172C2.13778 3.53595 2.09078 3.45019 2.05944 3.32154C2.0281 3.1929 2.04377 3.02137 2.10645 2.97849C2.26313 2.80696 2.41982 2.67832 2.5765 2.54967C2.62351 2.50679 2.68618 2.46391 2.73319 2.46391C2.90554 2.37814 3.0779 2.42102 3.23459 2.2495C3.35993 2.12085 3.48528 1.94932 3.6263 1.90644C3.75165 1.86356 3.73598 1.82068 3.6263 1.52051C3.53229 1.26321 3.51662 1.22033 3.57929 0.963041C3.59496 0.877277 3.61063 0.834395 3.61063 0.748632C3.68897 0.234049 3.81432 0.0196402 4.09636 0.148286C4.1747 0.191168 4.25304 0.362695 4.22171 0.619986C4.19037 0.920159 4.31572 1.22033 4.20604 1.47762C4.15903 1.56339 4.11203 1.64915 4.11203 1.82068C4.11203 1.82068 4.15903 1.86356 4.1747 1.90644C4.28438 1.94932 4.39406 1.94932 4.50374 1.99221C4.58208 1.99221 4.67609 1.99221 4.75444 1.90644C4.91112 1.69203 5.06781 1.56339 5.24016 1.60627C5.34984 1.60627 5.45952 1.60627 5.58487 1.56339C5.63188 1.56339 5.71022 1.52051 5.74156 1.43474C5.77289 1.34898 5.77289 1.17745 5.77289 1.00592C5.77289 0.834395 5.80423 0.748632 5.88257 0.70575C6.02359 0.70575 6.16461 0.70575 6.30563 0.662868C6.39964 0.662868 6.47798 0.748632 6.55632 0.834395C6.619 0.920159 6.666 0.920159 6.71301 0.834395C6.90103 0.619986 7.10472 0.619986 7.29275 0.619986C7.35542 0.619986 7.4181 0.619986 7.44943 0.70575C7.7158 1.17745 8.04484 1.09169 8.34254 1.39186C8.48356 1.43474 8.62458 1.43474 8.76559 1.47762C8.84394 1.52051 8.93795 1.56339 9.00062 1.69203C9.07897 1.82068 9.14164 1.94932 9.17298 2.16373C9.14164 2.29238 9.1103 2.37814 9.0633 2.50679C9.04763 2.54967 9.01629 2.59255 9.00062 2.67832C8.93795 2.89272 8.95362 3.15002 9.03196 3.23578C9.23565 3.40731 9.42367 3.40731 9.58036 3.02137C9.73705 2.63543 9.87806 2.42102 10.0347 2.2495C10.0818 2.20661 10.1444 2.12085 10.1914 2.16373C10.3481 2.29238 10.4735 2.12085 10.5988 1.99221C10.6615 1.94932 10.7085 1.90644 10.7712 1.99221C10.9279 2.20662 11.1002 2.20662 11.2569 1.99221C11.5076 1.94932 11.7583 1.90644 12.009 2.16373C12.1187 2.29238 12.2283 2.29238 12.338 2.29238C12.5104 2.33526 12.6671 2.42102 12.8238 2.59255C12.9021 2.67832 12.9804 2.7212 13.0588 2.80696C13.1685 2.89272 13.2781 2.89272 13.3878 2.97849C13.5758 3.15002 13.7639 3.23578 13.9676 3.23578C14.2496 3.23578 14.5316 3.27866 14.8137 3.27866C15.0174 3.27866 15.2054 3.32154 15.4091 3.32154C15.5814 3.32154 15.7381 3.40731 15.9105 3.53595C16.1298 3.70748 16.3492 3.75036 16.5685 3.45019C16.6469 3.36443 16.7252 3.36443 16.8192 3.40731C16.8976 3.49307 16.9759 3.49307 17.0699 3.40731C17.399 3.06425 17.728 3.15002 18.0571 3.49307C18.1667 3.62172 18.2764 3.62172 18.3861 3.49307C18.6055 3.1929 18.8248 3.1929 19.0442 3.45019C19.1539 3.57883 19.2479 3.6646 19.3732 3.6646C19.5926 3.6646 19.8276 3.6646 20.047 3.62172C20.5484 3.53595 21.0654 3.6646 21.5668 3.75036C21.6295 3.75036 21.6765 3.79324 21.7235 3.83613C21.8332 3.92189 21.9429 3.87901 22.0525 3.79324C22.2719 3.6646 22.4913 3.70748 22.7106 3.96477C22.8203 4.09342 22.93 4.1363 23.0397 4.09342C23.212 4.05053 23.3687 4.09342 23.5254 4.35071C23.6037 4.47935 23.6821 4.47935 23.7604 4.35071C23.9328 4.09342 24.1365 4.00765 24.3245 4.05053C24.4655 4.09342 24.6065 4.1363 24.7475 4.1363C24.8416 4.1363 24.9199 4.22206 24.9826 4.30783C25.0923 4.43647 25.1863 4.52223 25.3116 4.47935C25.4996 4.43647 25.7033 4.47935 25.8913 4.26494C25.9697 4.17918 26.048 4.22206 26.1264 4.35071C26.2047 4.43647 26.2831 4.56512 26.3614 4.56512C26.6434 4.52224 26.9255 4.52223 27.2075 4.47935C27.2545 4.47935 27.3172 4.39359 27.3642 4.35071C27.5836 4.1363 27.8029 4.1363 28.0223 4.30783C28.0379 4.30783 28.0536 4.39359 28.0536 4.43647C28.0379 4.47935 28.0223 4.56512 27.9909 4.56512C27.7716 4.56512 27.6306 4.95105 27.4739 5.25123C27.4269 5.33699 27.3799 5.33699 27.3172 5.29411C27.2075 5.16546 27.0978 5.16546 26.9882 5.29411C26.8628 5.46564 26.7218 5.5514 26.5808 5.50852C26.2674 5.46564 25.954 5.46564 25.6563 5.5514C25.6093 5.5514 25.5466 5.63716 25.4996 5.72293C25.4526 5.80869 25.4213 5.93734 25.4056 6.06598C25.39 6.19463 25.4213 6.32327 25.484 6.40904C25.6407 6.62345 25.7817 6.88074 25.954 6.88074C26.2047 6.88074 26.3771 7.22379 26.5024 7.82414C26.5494 8.08143 26.5964 8.08143 26.7061 7.99567C26.8471 7.9099 26.9882 7.82414 27.1135 7.69549C27.2232 7.56685 27.3329 7.56685 27.4425 7.69549C27.4895 7.73837 27.5522 7.78126 27.5992 7.78126C27.7716 7.82414 27.9439 7.78126 28.0693 7.4382C28.1163 7.35244 28.1476 7.22379 28.1946 7.13803C28.32 6.92362 28.4453 6.83786 28.5863 6.9665C28.6334 7.00938 28.696 7.09515 28.743 7.13803C28.8214 7.22379 28.9154 7.22379 28.9937 7.13803C29.0721 7.05227 29.1504 7.09515 29.2444 7.18091C29.3854 7.30956 29.5265 7.35244 29.6675 7.26667C29.7458 7.22379 29.8242 7.09515 29.8712 6.92362C29.9495 6.62345 30.0435 6.62345 30.1375 6.92362C30.1845 7.09515 30.2315 7.30956 30.2786 7.48108C30.3412 7.69549 30.4196 7.69549 30.4979 7.52397C30.5449 7.4382 30.5763 7.26667 30.6076 7.18091C30.6703 7.00938 30.7486 6.92362 30.8426 6.92362C30.9836 6.88074 31.1247 6.83786 31.2657 7.00938C31.5007 7.26667 31.7671 7.30956 31.9708 7.69549C32.0491 7.82414 32.1274 7.78126 32.2058 7.65261C32.3625 7.39532 32.5192 7.35244 32.6915 7.52397C32.8325 7.69549 32.9579 7.73838 33.0989 7.56685C33.2556 7.39532 33.4279 7.30956 33.5846 7.26667C33.757 7.22379 33.898 6.9665 34.0703 6.92362C34.1957 6.92362 34.2897 6.70921 34.3524 6.45192C34.5247 5.80869 34.7911 5.46564 35.0575 5.20835C35.1045 5.16546 35.1828 5.16546 35.2142 5.20835C35.4178 5.50852 35.6529 5.50852 35.8722 5.50852C35.9662 5.50852 36.0916 5.76581 36.1073 6.06598C36.1229 6.19463 36.1386 6.36616 36.1386 6.53768C36.1386 6.9665 36.1856 7.26667 36.358 7.35244C36.499 7.39532 36.6243 7.56685 36.7497 7.78126C36.7967 7.86702 36.8594 7.95278 36.8594 8.08143C36.8594 8.21008 36.781 8.25296 36.7183 8.29584C36.64 8.33872 36.546 8.3816 36.4676 8.42449C36.4363 8.42449 36.4206 8.51025 36.405 8.55313C36.4206 8.59601 36.4363 8.6389 36.4676 8.68178C36.546 8.76754 36.64 8.72466 36.7183 8.72466C36.828 8.72466 36.9377 8.72466 37.0474 8.89619C37.1257 9.02483 37.1414 9.28212 37.2041 9.41077C37.2667 9.5823 37.3451 9.62518 37.4234 9.49653C37.4704 9.41077 37.5174 9.325 37.5488 9.19636C37.5801 9.06771 37.6114 8.93907 37.6428 8.81042C37.6741 8.63889 37.7211 8.55313 37.7525 8.63889C37.7681 8.68178 37.7838 8.76754 37.7995 8.81042C37.8151 8.93907 37.8308 9.11059 37.8465 9.23924C37.8935 9.53941 38.0972 9.66806 38.2069 9.45365C38.2852 9.325 38.3165 9.11059 38.3792 8.93907C38.4262 8.81042 38.4732 8.76754 38.5202 8.72466C38.6926 8.63889 38.8493 8.6389 39.0059 8.89619C39.0373 8.93907 39.053 8.98195 39.0843 9.02483C39.241 9.19636 39.382 9.15348 39.4603 8.76754C39.5387 8.33872 39.6484 7.99567 39.805 7.78126C39.8521 7.69549 39.9147 7.60973 39.9147 7.48108C39.9147 7.35244 39.8364 7.30956 39.7894 7.26667C39.711 7.22379 39.617 7.22379 39.5387 7.18091C39.4603 7.13803 39.382 7.00938 39.3507 6.79497L39.335 6.83786C39.4133 6.75209 39.4917 6.66633 39.57 6.53768C39.617 6.45192 39.6797 6.45192 39.7267 6.4948C39.8521 6.62345 39.9774 6.79497 40.1341 6.79497C40.2438 6.79497 40.3534 6.79497 40.4788 6.83786C40.5415 6.83786 40.5885 6.92362 40.6041 7.00938C40.6041 7.05227 40.5885 7.18091 40.5728 7.22379C40.4788 7.39532 40.4005 7.60973 40.3691 7.9099C40.3534 7.99567 40.3534 8.03855 40.3378 8.12431C40.2908 8.29584 40.2908 8.42448 40.3534 8.51025C40.3691 8.55313 40.4005 8.55313 40.4318 8.55313C40.6511 8.33872 40.8548 8.21008 41.0899 8.25296C41.2309 8.29584 41.3719 8.25296 41.5129 8.21008C41.6539 8.16719 41.795 8.12431 41.9203 7.95278C42.03 7.78126 42.1397 7.86702 42.2337 7.99567C42.265 8.03855 42.2807 8.08143 42.312 8.08143C42.453 8.21008 42.5471 8.42449 42.6254 8.81042C42.6724 9.02483 42.7507 9.06771 42.8447 9.11059C42.9074 9.11059 42.9701 9.11059 43.0014 8.98195C43.0171 8.8533 42.9701 8.72466 42.9074 8.63889C42.8447 8.55313 42.8291 8.3816 42.8761 8.29584C43.0171 8.03855 43.1425 7.73837 43.2678 7.4382C43.4088 7.09515 43.6125 7.18091 43.7379 7.4382C43.8945 7.78126 44.0512 8.12431 44.1139 8.68178C43.9572 8.68178 43.7849 8.68178 43.6282 8.68178C43.5655 8.68178 43.5342 8.81042 43.5342 8.89619C43.5342 8.93907 43.5655 9.02483 43.5968 9.02483C43.6439 9.06771 43.7065 9.06771 43.7535 9.06771C43.8945 9.11059 44.0199 8.93907 44.0826 8.59601C44.3333 8.59601 44.584 8.55313 44.8503 8.59601C45.0227 8.59601 45.195 8.6389 45.3517 8.68178C45.4771 8.72466 45.4771 8.76754 45.5241 9.28212C45.5241 9.325 45.5554 9.41077 45.5711 9.45365C45.6964 9.66806 45.9471 9.5823 46.0411 9.325C46.0568 9.28212 46.0881 9.23924 46.1038 9.15348C46.1822 8.76754 46.3075 8.68178 46.4642 8.63889C46.5739 8.59601 46.6836 8.59601 46.7932 8.55313C46.8246 8.55313 46.8559 8.46737 46.8559 8.42449C46.8559 8.29584 46.8246 8.21008 46.7619 8.16719C46.6209 8.08143 46.4799 8.16719 46.3702 7.86702C46.3545 7.82414 46.3388 7.69549 46.3545 7.65261C46.3545 7.60973 46.4015 7.48108 46.4172 7.48108C46.6052 7.60973 46.7932 7.69549 46.9813 7.69549C47.1693 7.69549 47.1693 7.73837 47.2476 8.29584C47.2476 8.33872 47.279 8.42449 47.2946 8.42449C47.6863 8.51025 48.0781 8.51025 48.4698 8.59601C48.5324 8.59601 48.5794 8.72466 48.5951 8.81042C48.6265 8.98195 48.5168 9.28212 48.4541 9.28212C48.4228 9.28212 48.3914 9.28212 48.3758 9.28212C48.3288 9.23924 48.2661 9.15348 48.2191 9.15348C48.1721 9.11059 48.1094 9.11059 48.0467 9.15348C47.9527 9.15348 47.9057 9.36789 47.8587 9.58229C47.8274 9.7967 47.843 10.0111 47.9057 10.1826C47.9214 10.2255 47.9527 10.3113 47.9684 10.3113C48.0467 10.3542 48.1407 10.3542 48.2191 10.3542C48.4541 10.4399 48.6578 10.2255 48.8302 9.75382C48.8772 9.62518 48.9398 9.66806 48.9868 9.75382C49.0495 9.92535 49.1122 10.054 49.1749 10.2255C49.2219 10.3113 49.2532 10.4399 49.3002 10.5257C49.3942 10.6972 49.5196 10.6543 49.5979 10.3971C49.6449 10.2255 49.6919 10.0111 49.7389 9.83959C49.7389 9.83959 49.7859 9.83959 49.7859 9.88247C49.8329 10.3113 49.8486 10.783 49.8016 11.2547C49.7703 11.5977 49.8329 11.7693 49.974 11.7693C50.0366 11.7693 50.0836 11.7693 50.1463 11.7264C50.2403 11.6835 50.303 11.5549 50.3343 11.2976C50.3657 11.0832 50.3657 10.8688 50.397 10.6543C50.4127 10.5257 50.4597 10.3542 50.491 10.2684C50.6477 9.96823 50.8201 9.66806 50.9767 9.36788C51.1178 9.06771 51.2901 9.02483 51.4625 9.06771C51.5721 9.11059 51.6818 9.23924 51.7915 9.28212C51.8699 9.325 51.9482 9.19636 52.0422 9.28212C52.2616 9.49653 52.4809 9.45365 52.6846 9.11059C52.7316 9.02483 52.7943 8.93907 52.7943 8.81042C52.7786 8.68178 52.716 8.63889 52.6533 8.63889C52.5749 8.63889 52.4809 8.59601 52.4026 8.59601C52.3869 8.59601 52.3556 8.51025 52.3399 8.46737C52.3242 8.3816 52.3556 8.25296 52.4339 8.25296C52.6376 8.25296 52.8256 8.25296 53.0293 8.25296C53.1077 8.25296 53.1703 8.46737 53.1233 8.72466C53.0763 9.06771 53.1077 9.325 53.2174 9.49653C53.2644 9.5823 53.327 9.66806 53.3114 9.83959C53.3114 9.96823 53.2487 10.054 53.186 10.054C52.9667 10.0969 52.7316 10.0969 52.5123 10.0969C52.4653 10.0969 52.4026 10.1398 52.3556 10.1826C52.2929 10.2255 52.2616 10.3542 52.2772 10.5257C52.2772 10.6115 52.3086 10.6972 52.3242 10.6972C52.4339 10.6543 52.5436 10.6972 52.6533 10.8259C52.7316 10.9116 52.81 10.9116 52.904 10.8688C52.9823 10.783 53.0607 10.6972 53.139 10.6115C53.186 10.5686 53.2644 10.5257 53.2957 10.5686C53.5621 10.8688 53.8441 10.9116 54.1261 10.9116C54.2985 10.9116 54.4708 10.8688 54.6275 10.8259C54.6745 10.8259 54.7372 10.6972 54.7685 10.6115C54.8626 10.397 54.9096 10.1398 54.9722 9.88247C55.0506 9.53941 55.2386 9.45365 55.3483 9.66806C55.4423 9.83959 55.5206 10.054 55.6146 10.2255C55.693 10.3542 55.7713 10.397 55.8497 10.3113C56.0064 10.0969 56.163 10.0111 56.3354 10.0111C56.5548 10.054 56.7898 10.054 57.0091 10.0111C57.3695 9.96823 57.7456 9.96823 58.1059 10.0111C58.3096 10.054 58.4977 10.0111 58.6857 9.75382C58.7327 9.71094 58.7954 9.75382 58.8424 9.7967C58.9207 9.88247 59.0147 9.88247 59.0931 9.7967C59.1714 9.75382 59.2498 9.71094 59.3438 9.75382C59.4534 9.83959 59.5631 9.83959 59.6728 9.71094C59.7825 9.5823 59.8922 9.53941 60.0018 9.49653L59.9862 9.45365C60.0332 9.7967 60.1429 9.88247 60.2682 9.83959C60.3309 9.83959 60.3779 9.79671 60.4406 9.75382C60.7383 9.36789 61.0516 9.49653 61.3493 9.53941C61.3963 9.53941 61.459 9.62518 61.506 9.66806C61.647 9.83959 61.7724 9.7967 61.9134 9.62518C62.0388 9.45365 62.1954 9.49653 62.3208 9.41077C62.4148 9.36789 62.4775 9.23924 62.5245 9.06771C62.6498 8.46737 62.8379 8.51025 63.0415 8.59601C63.0729 8.59601 63.0886 8.6389 63.1199 8.68178C63.1669 8.72466 63.2296 8.81042 63.2766 8.89619C63.3863 9.02483 63.4959 9.02483 63.6056 9.02483C63.7153 8.98195 63.825 8.93907 63.9347 8.81042C64.013 8.72466 64.0913 8.72466 64.1854 8.81042C64.3734 9.02483 64.5771 9.02483 64.7651 8.81042C64.8904 8.63889 65.0315 8.59601 65.1725 8.59601C65.4075 8.59601 65.6112 8.42448 65.7679 7.9099C65.7992 7.78126 65.8619 7.69549 65.9089 7.69549C66.1909 7.69549 66.473 7.65261 66.755 7.73837C66.8333 7.78126 66.9117 7.9099 66.99 7.95278C67.0684 7.99567 67.1624 7.9099 67.2407 7.9099C67.5384 8.25296 67.8518 8.16719 68.1652 8.12431C68.2435 8.12431 68.3375 8.03855 68.4159 7.95278C68.4942 7.86702 68.5726 7.86702 68.6666 7.95278C68.7449 8.03855 68.8389 8.03855 68.9173 7.95278C69.0269 7.82414 69.1366 7.9099 69.2463 7.99567C69.4343 8.16719 69.638 8.16719 69.826 7.95278C70.0141 7.73837 70.2178 7.65261 70.4058 7.86702C70.6251 8.08143 70.8445 8.12431 71.0639 8.16719C71.3459 8.21008 71.6279 8.21008 71.91 8.21008C72.145 8.16719 72.3487 8.33872 72.5524 8.68178C72.6151 8.76754 72.6307 8.89619 72.5994 9.06771C72.568 9.19636 72.521 9.28212 72.474 9.325C72.427 9.36789 72.3643 9.325 72.3173 9.23924C72.2077 9.11059 72.098 9.06771 71.9883 9.19636C71.8473 9.36789 71.7219 9.36789 71.5809 9.19636C71.5339 9.15348 71.4712 9.11059 71.4242 9.11059C71.0795 9.06771 69.9984 9.11059 69.4813 9.23924C69.4657 9.23924 69.45 9.325 69.4187 9.325C69.4343 9.36789 69.45 9.45365 69.4813 9.49653C69.6224 9.5823 69.7634 9.62518 69.8887 9.83959C69.9514 9.96823 70.0454 10.0111 70.1237 10.054C70.2334 10.1398 70.3431 10.1398 70.4528 10.2255C70.6095 10.3542 70.7818 10.4399 70.9542 10.4399C71.3146 10.4828 71.6906 10.5257 72.051 10.5257C72.2547 10.5257 72.4427 10.6115 72.6307 10.8259C72.7561 10.9974 72.9128 10.9545 73.0381 10.9974C73.0694 10.9974 73.1008 11.0832 73.1008 11.126C73.1164 11.2547 73.0694 11.3405 73.0068 11.3833C72.9598 11.4262 72.8971 11.4262 72.8501 11.512C72.7874 11.5977 72.7717 11.7264 72.7717 11.855C72.7717 12.0266 72.8031 12.1552 72.8657 12.1981C73.0068 12.3267 73.1478 12.2839 73.2888 12.3267C73.3358 12.3267 73.3985 12.4125 73.4455 12.4983C73.4925 12.584 73.5395 12.7127 73.5082 12.8842C73.4925 13.0557 73.4298 13.1415 73.3671 13.0986C73.2575 13.0128 73.1478 12.8842 73.0381 12.8413C72.8657 12.7984 72.6934 12.7984 72.5367 12.7984C72.4897 12.7984 72.427 12.8413 72.38 12.8842C72.3487 12.8842 72.3173 12.97 72.3173 13.0128C72.3173 13.0986 72.333 13.1844 72.3643 13.2273C72.568 13.5274 72.7717 13.7847 73.0068 13.7847C73.2261 13.7847 73.4455 13.8705 73.6648 14.0849C73.8529 14.2564 74.0566 14.2564 74.2446 14.3422C74.2759 14.3422 74.3073 14.4279 74.3073 14.4708C74.3229 14.6424 74.2916 14.771 74.2446 14.8568C74.1976 14.9425 74.1506 15.0283 74.1036 15.0712C73.9625 15.1569 73.8215 15.1998 73.6805 15.0283C73.4612 14.8139 73.2418 14.771 73.0224 14.771C72.4897 14.771 71.957 14.7281 71.4086 14.771C71.0169 14.771 70.6251 14.771 70.2178 14.8139C70.1551 14.8139 70.1081 14.9425 70.1394 15.0283C70.1551 15.0712 70.1864 15.1569 70.2021 15.1569C70.3431 15.1998 70.4841 15.1998 70.6251 15.1998C70.7348 15.1998 70.8445 15.2427 70.9542 15.3713C71.0795 15.5429 71.2205 15.5858 71.3616 15.5858C71.6749 15.6286 71.9883 15.6286 72.286 15.6715C72.3957 15.6715 72.521 15.7144 72.6151 15.843C72.8031 16.1003 72.9911 16.1861 73.1948 16.1432C73.3985 16.1003 73.5865 16.1432 73.7745 16.4005C73.8215 16.4863 73.8842 16.4863 73.9312 16.5292C74.0409 16.572 74.1506 16.572 74.2759 16.572C74.4483 16.572 74.605 16.6578 74.7773 16.8293C74.8557 16.9151 74.934 16.958 75.028 16.958C75.2004 17.0009 75.3727 17.0437 75.5294 17.0437C75.6704 17.0437 75.8114 17.1295 75.9368 17.2581C76.0465 17.3868 76.1562 17.3868 76.2658 17.3868C76.6575 17.4297 77.0493 17.5154 77.441 17.5583C77.6133 17.5583 77.77 17.7298 77.9267 17.9443C77.9737 18.03 78.0207 18.1158 78.0207 18.2444C78.0207 18.2873 77.9737 18.3302 77.958 18.3731C77.817 18.416 77.676 18.4588 77.535 18.4588C77.1903 18.416 76.8612 18.3731 76.5165 18.416C76.3755 18.416 76.2345 18.3731 76.0935 18.3731C75.9525 18.3731 75.8114 18.2873 75.6861 18.1587C75.6077 18.0729 75.5294 18.03 75.4354 18.03C75.2317 17.9871 75.0437 17.9871 74.84 17.9871C74.7303 17.9871 74.6676 18.0729 74.5736 18.4588C74.5266 18.6304 74.4796 18.8448 74.3856 18.9305C74.3699 18.8019 74.3386 18.6732 74.2916 18.5875C74.2759 18.5446 74.2446 18.5446 74.2289 18.5446C74.2132 18.5446 74.1819 18.5875 74.1662 18.6304C74.1506 18.7161 74.1819 18.8019 74.2446 18.8448C74.2916 18.8448 74.3386 18.8877 74.4013 18.8877C74.4169 19.0592 74.4169 19.1878 74.4326 19.3594C74.4483 19.5309 74.4796 19.6595 74.5423 19.7024C74.7617 19.9168 74.981 19.8739 75.1847 20.2599C75.3257 20.3456 75.4667 20.2599 75.5921 20.1312C75.6704 20.0455 75.7488 20.1312 75.8114 20.3885C75.8584 20.5601 75.8428 20.6887 75.7958 20.7745C75.7488 20.8602 75.6861 20.9031 75.6391 20.9031C75.2474 20.9031 74.8557 20.9031 74.4639 20.9031C74.3856 20.9031 74.3543 21.0318 74.3699 21.1175C74.3856 21.1604 74.4169 21.2033 74.4483 21.2033C74.558 21.2462 74.6676 21.2462 74.793 21.2462C75.0437 21.289 75.2944 21.289 75.5451 21.3748C75.6548 21.4177 75.7644 21.5463 75.8428 21.8036C75.8584 21.8465 75.8741 21.9323 75.8898 22.018C75.8898 22.0609 75.8741 22.1467 75.8584 22.2324C75.7958 22.4897 75.6861 22.6613 75.5764 22.7041C75.2944 22.747 75.0123 22.7899 74.7303 22.747C74.4169 22.747 74.1036 22.747 73.8059 22.7899C73.7275 22.7899 73.6962 22.9186 73.7119 23.0043C73.7275 23.0472 73.7589 23.133 73.7745 23.133C73.8842 23.1758 73.9939 23.2187 74.1036 23.2616C74.3386 23.6047 74.5893 23.6475 74.84 23.6904C74.9183 23.6904 75.0123 23.6904 75.0907 23.7762C75.4354 24.1621 75.8114 24.0764 76.1718 24.205C76.2345 24.205 76.2815 24.2479 76.3285 24.3337C76.3755 24.3765 76.4225 24.4623 76.4695 24.5909C76.5165 24.7196 76.5322 24.8482 76.5009 24.9769C76.4852 25.0198 76.4538 25.1055 76.4382 25.1055C76.3598 25.1484 76.2658 25.1484 76.1875 25.1484C76.1248 25.1484 76.0778 25.1913 76.0308 25.3199C75.9995 25.4057 76.0778 25.7916 76.1405 25.8774C76.1875 25.9203 76.2502 26.006 76.2972 26.0489C76.3755 26.0918 76.4695 26.0918 76.5479 26.1347C76.6105 26.1347 76.6732 26.2205 76.6732 26.3491C76.6889 26.4777 76.6419 26.6493 76.5949 26.735C76.5479 26.8208 76.5009 26.9066 76.4538 26.9494C76.3755 26.9923 76.2815 26.9923 76.2032 27.0352C76.0935 27.0352 75.9838 27.1639 75.8898 27.3783C75.8271 27.5069 75.7644 27.6784 75.6861 27.7642C75.6391 27.85 75.5764 27.8929 75.5294 27.8929C75.3257 27.9357 75.1377 27.9357 74.934 27.9357C74.8243 27.9357 74.7146 28.0215 74.605 28.193C74.558 28.2788 74.5109 28.4074 74.5109 28.5361C74.4953 28.6647 74.5423 28.7505 74.605 28.7934C74.6676 28.8363 74.7146 28.8363 74.7773 28.8363C74.8557 28.8791 74.9497 28.8791 75.028 28.922C75.1847 29.0078 75.357 29.1793 75.5137 29.2651C75.6548 29.3508 75.7958 29.3508 75.9368 29.4366C75.9995 29.4795 76.0308 29.6081 76.0151 29.7797C75.9995 29.9512 76.0151 30.0798 76.0778 30.1656C76.1875 30.2514 76.2972 30.3371 76.4068 30.4229C76.5165 30.5515 76.6262 30.5944 76.7359 30.6373C76.9396 30.6802 77.1276 30.7231 77.3313 30.7659C77.488 30.8088 77.5507 30.8946 77.5193 30.9803C77.488 31.109 77.441 31.1519 77.3783 31.1948C77.2216 31.2805 77.2216 31.2805 77.2216 31.5807C77.2216 31.9237 77.1903 32.0524 77.1119 32.0524C76.7672 32.0524 76.4382 32.0953 76.0935 32.0953C75.7331 32.0953 75.357 32.0953 74.9967 32.1382C74.9183 32.1382 74.84 32.2239 74.7616 32.3954C74.7146 32.5241 74.6833 32.6527 74.699 32.7814C74.699 32.8243 74.7303 32.91 74.7616 32.91C74.84 32.9958 74.934 32.9958 74.9967 33.1244C75.169 33.3817 75.3727 33.4675 75.5607 33.5533C75.5921 33.5533 75.6077 33.5961 75.6391 33.639C75.6704 33.7248 75.6391 33.8534 75.5607 33.8534C75.2004 33.8963 74.8243 33.9392 74.4639 34.025C74.3856 34.025 74.3543 34.1107 74.3856 34.2394C74.4013 34.2822 74.4169 34.368 74.4326 34.4109C74.5893 34.6253 74.746 34.7968 74.9183 34.7968C75.263 34.8397 75.5921 34.8826 75.9368 34.9255C76.0151 34.9255 76.1091 34.9255 76.1875 35.0112C76.3755 35.2257 76.5635 35.3114 76.7672 35.3114C76.9082 35.3114 77.0493 35.4401 77.1746 35.6116C77.3626 35.826 77.5663 35.7831 77.7543 35.8689C77.817 35.9118 77.864 35.9546 77.864 36.0833C77.864 36.1262 77.8327 36.2119 77.817 36.2548C77.6447 36.5121 77.4723 36.7265 77.253 36.7265C76.7202 36.7265 76.1875 36.7694 75.6547 36.8123C75.5764 36.8123 75.4667 36.7694 75.4041 36.9409C75.3414 37.1124 75.3884 37.3697 75.3884 37.5842C75.3884 38.013 75.3884 38.0559 75.4824 38.0987C75.5607 38.1416 75.6547 38.1416 75.7331 38.1416C75.7958 38.1416 75.8428 38.1845 75.9054 38.1845C75.9525 38.2274 76.0151 38.2274 76.0621 38.3131C76.2345 38.6562 76.4382 38.6133 76.6262 38.6562C76.7046 38.6991 76.7359 38.7848 76.7046 38.9564C76.6732 39.3423 76.7986 39.4281 76.8769 39.6425C76.9396 39.814 76.9396 40.1142 76.8612 40.2428C76.8299 40.2857 76.8142 40.3286 76.7829 40.3715C76.6419 40.4144 76.5009 40.4572 76.3598 40.5001C76.1875 40.543 76.1091 40.8003 76.1248 41.272C76.1405 41.5293 76.2031 41.6579 76.2815 41.615C76.3285 41.5722 76.3912 41.5293 76.4382 41.4864C76.5635 41.4006 76.6575 41.5293 76.7516 41.7437C76.7986 41.8295 76.8299 41.9581 76.8612 42.0867C76.9082 42.1725 76.9709 42.2154 77.0179 42.1725C77.2216 41.9152 77.441 41.8295 77.676 41.8723C77.8954 41.9152 78.1304 41.8723 78.3497 41.9152C78.4281 41.9152 78.5221 41.9581 78.6004 42.0439C78.6788 42.1296 78.7571 42.1296 78.8511 42.0867C78.9295 42.0439 79.0078 42.001 79.1018 41.9581C79.1645 41.9152 79.2115 42.001 79.2585 42.1296C79.3212 42.3012 79.3055 42.5156 79.2899 42.7729C79.2585 43.073 79.2742 43.2017 79.3525 43.3303C79.4779 43.5019 79.6032 43.7163 79.7442 43.7163C79.9949 43.7591 80.2457 43.802 80.4963 43.802C80.7 43.802 80.8881 43.8449 81.0761 44.0593C81.2171 44.188 81.3581 44.188 81.4991 44.188C82.2826 44.2308 83.0817 44.2737 83.8651 44.3595C83.9434 44.3595 83.9748 44.4881 83.9904 44.8312C83.9904 45.0027 84.0061 45.1314 84.0844 45.1742C84.3665 45.3029 84.6485 45.1742 84.9306 45.3029C85.0089 45.3458 85.0872 45.4744 85.1499 45.6459C85.1656 45.6888 85.1969 45.7746 85.1969 45.8175C85.1813 45.989 85.1186 46.0748 85.0716 46.0319C84.9149 45.8604 84.8052 45.9461 84.7269 46.3321C84.6955 46.4607 84.6329 46.5036 84.5702 46.5036C84.5388 46.5036 84.5075 46.5036 84.4918 46.4607C84.3195 46.1605 84.1158 46.1176 83.9278 46.2034C83.9278 46.1176 83.9121 46.0748 83.8964 45.989C83.8808 45.9461 83.8651 45.9461 83.8337 45.9461C83.8337 46.0748 83.8651 46.1176 83.9278 46.1605C83.8494 46.5893 83.7397 46.9324 83.5674 47.1039C83.3637 47.3612 83.16 47.6185 82.925 47.6185C82.784 47.6185 82.6429 47.7472 82.5176 47.8758C82.3609 48.0473 82.1886 47.9616 82.0162 48.0902C81.9692 48.1331 81.9222 48.2189 81.8752 48.3046C81.8282 48.3904 81.8125 48.5619 81.8282 48.6906C81.8282 48.7334 81.8752 48.7763 81.9065 48.7763C82.4079 48.8621 82.925 48.8621 83.4264 48.905C83.8964 48.9478 84.3821 48.8621 84.8679 48.8621C85.1499 48.8621 85.4319 48.8621 85.714 48.9907C85.7453 48.9907 85.7767 49.0336 85.7923 49.0336C85.855 49.1194 85.8863 49.2051 85.8863 49.3767C85.8863 49.5482 85.8707 49.6768 85.7923 49.7197C85.714 49.7626 85.6356 49.8055 85.5416 49.8055C85.0089 49.8484 84.4762 49.8912 83.9434 49.977C83.9121 49.977 83.8651 50.0628 83.8651 50.0628C83.8651 50.1485 83.9121 50.2343 83.9748 50.2343C84.0061 50.2343 84.0374 50.2343 84.0531 50.2343C84.3352 50.2343 84.6172 50.2772 84.8992 50.2343C85.2909 50.1914 85.6826 50.2343 86.0744 50.2772C86.137 50.2772 86.184 50.4487 86.1684 50.5345C86.1684 50.5774 86.137 50.6631 86.1057 50.6631C85.9647 50.706 85.8237 50.7489 85.6826 50.7918C85.4319 50.8346 85.1969 51.1777 84.9306 51.1348C84.7112 51.0919 84.4762 51.1777 84.2568 51.2635C84.2098 51.2635 84.1471 51.3492 84.1001 51.3921C84.0688 51.435 84.0531 51.4779 84.0374 51.5208C83.9904 51.6494 83.9748 51.778 84.0061 51.9067C84.0218 51.9496 84.0531 51.9925 84.0844 52.0353C84.3978 52.0782 84.6955 52.1211 85.0089 52.1211C85.2909 52.1211 85.573 52.164 85.855 52.164C86.0274 52.164 86.1997 52.2069 86.3564 52.2069C86.4974 52.2069 86.6228 52.4213 86.7638 52.3784C86.8891 52.3355 86.9361 52.507 86.9048 52.7643C86.8578 53.0645 86.8264 53.3218 86.8578 53.6648C86.8578 53.7077 86.8421 53.8364 86.8264 53.8364C86.6541 54.1366 86.4817 54.351 86.278 54.3938C86.1684 54.3938 86.0587 54.4367 85.949 54.5225C85.8707 54.5654 85.7923 54.694 85.7767 54.9513C85.7453 55.3372 85.6983 55.6803 85.5573 55.8947C85.4946 55.9805 85.4789 56.152 85.526 56.2806C85.6513 56.7095 85.761 57.1383 85.7923 57.6957C85.808 57.953 85.8707 58.0817 85.9647 58.1246C86.1057 58.1674 86.2467 58.2103 86.3877 58.2532C86.4504 58.2532 86.4974 58.339 86.4974 58.4247C86.4974 58.4676 86.4661 58.5534 86.4504 58.5963C86.3721 58.682 86.2937 58.8107 86.2467 58.9822C86.1684 59.2395 86.1527 59.4968 86.278 59.7541C86.3407 59.8827 86.4191 60.0114 86.4817 60.14C86.4974 60.1829 86.4974 60.2687 86.4817 60.3115C86.3564 60.4831 86.1997 60.4402 86.0744 60.5688C85.9647 60.6546 85.8707 60.8261 85.761 60.869C85.573 60.9548 85.3693 60.9548 85.1656 60.9548C85.1029 60.9548 85.0559 61.0405 85.0402 61.1263C85.0402 61.1692 85.0716 61.2549 85.0872 61.2978C85.4006 61.7695 85.4006 61.7695 85.714 61.8553C85.8237 61.8982 85.9333 61.8982 86.043 61.941C86.1527 61.9839 86.231 62.2412 86.231 62.5843C86.231 62.7558 86.1527 63.0989 86.09 63.1417C86.0274 63.1846 85.9804 63.2275 85.9333 63.2275C85.6513 63.2275 85.3849 63.5277 85.1186 63.7421C85.0559 63.785 85.0089 63.8707 85.0246 63.9994C85.0246 64.0423 85.0716 64.128 85.0872 64.128C85.1969 64.2138 85.3066 64.2567 85.4163 64.2995C85.4319 64.2995 85.4476 64.3853 85.4633 64.4282C85.3066 64.6426 85.1342 64.5568 84.9619 64.5997C84.8835 64.6426 84.7895 64.6855 84.7112 64.7284C84.6485 64.7712 84.6172 64.8999 84.6015 65.0285C84.5858 65.2001 84.6172 65.3287 84.6799 65.3716C84.7269 65.4145 84.7895 65.5002 84.8365 65.5431C85.0716 65.8004 85.3223 65.9291 85.573 65.9291C85.855 65.9291 86.137 65.8862 86.4191 66.0577C86.4504 66.0577 86.4661 66.1435 86.4817 66.1864C86.4661 66.2292 86.4504 66.2721 86.4347 66.315C86.4191 66.3579 86.3877 66.4008 86.3564 66.4008C86.0117 66.4008 85.6983 66.7009 85.3849 67.044C85.3693 67.0869 85.3379 67.1298 85.3379 67.1726C85.3379 67.3442 85.3693 67.4728 85.4163 67.5586C85.526 67.7301 85.6356 67.7301 85.7453 67.6443C85.808 67.6015 85.855 67.6443 85.8863 67.773C85.9333 67.9874 85.9333 68.2876 85.8863 68.4162C85.8393 68.502 85.808 68.6306 85.761 68.6735C85.6513 68.7593 85.5416 68.8021 85.432 68.8021C85.1499 68.8021 84.8836 69.1023 84.6172 69.2738C84.5545 69.3167 84.5232 69.4454 84.5388 69.5311C84.5545 69.574 84.5858 69.6169 84.6172 69.6598C84.7895 69.7027 84.9619 69.7456 85.1186 69.7456C85.2283 69.7456 85.3379 69.8313 85.4476 69.96C85.5573 70.0886 85.667 70.1315 85.7767 70.1315C85.949 70.1744 86.1057 70.1744 86.278 70.2601C86.3564 70.303 86.3721 70.3888 86.3564 70.5603C86.3407 70.6461 86.3407 70.7318 86.3094 70.7318C86.2624 70.8176 86.2154 70.9034 86.1684 70.9462C86.1214 70.9891 86.0587 71.032 85.996 71.032C85.7453 71.0749 85.4946 71.1178 85.2439 71.1606C85.0716 71.2035 84.8992 71.1607 84.7425 71.2464C84.5545 71.3751 84.3665 71.5466 84.1785 71.7181C84.1158 71.761 84.0688 71.8468 84.0374 71.9754C83.9278 72.4471 83.7084 72.5329 83.5517 72.8759C83.5047 72.9617 83.4734 73.0903 83.489 73.2619C83.489 73.3047 83.5204 73.3476 83.5517 73.3905C83.5987 73.4334 83.6614 73.4763 83.7084 73.4763C83.8181 73.5191 83.9278 73.5191 84.0374 73.5191C84.0688 73.5191 84.1001 73.562 84.1001 73.6478C84.1158 73.7336 84.0844 73.8622 84.0061 73.8622C83.8024 73.9051 83.6144 73.9051 83.4107 73.948C83.2383 73.9908 83.0817 74.0766 82.925 74.291C82.878 74.3768 82.8153 74.4197 82.7683 74.5054C82.5333 74.8485 82.2826 74.9342 82.0319 74.677C81.9692 74.6341 81.9222 74.5912 81.8752 74.677C81.7498 74.8056 81.6088 74.8914 81.4678 74.9342C81.3111 74.9771 81.2484 75.0629 81.2954 75.1916C81.3424 75.2773 81.3895 75.3631 81.4521 75.3631C81.5148 75.3631 81.5618 75.4488 81.5931 75.5775C81.5931 75.6204 81.5618 75.7061 81.5461 75.7061C81.2954 75.8348 81.0761 76.2207 80.8411 76.3922C80.8254 76.3922 80.8097 76.478 80.794 76.5209C80.8254 76.5638 80.841 76.6067 80.8724 76.6495C81.0447 76.7353 81.2171 76.7353 81.3738 76.6067C81.8908 76.2636 81.8908 76.2207 82.1885 76.2207C82.3296 76.2207 82.4706 76.1349 82.5959 75.9634C82.6743 75.8777 82.7526 75.8348 82.8466 75.8348C82.878 75.8348 82.9093 75.8348 82.925 75.8777C82.972 75.9634 82.9563 76.0492 82.8936 76.1778C82.784 76.4351 82.784 76.478 82.878 76.6495C82.925 76.7353 82.9876 76.8211 82.9876 76.9497C82.9876 77.0783 82.9406 77.207 82.8936 77.2928C82.8466 77.3785 82.7996 77.4643 82.7526 77.5072C82.6429 77.55 82.5333 77.5929 82.4236 77.6358C82.2826 77.6787 82.1415 77.7216 82.0162 77.8931C81.9692 77.936 81.9065 78.0218 81.8595 78.0218C81.6245 78.0646 81.4208 78.2362 81.2171 78.4934C81.1388 78.5792 81.0448 78.5792 80.9664 78.5792C80.9037 78.5792 80.8567 78.6221 80.8097 78.7507C80.747 78.9223 80.7 79.1367 80.6374 79.2224C80.5747 79.3082 80.465 79.1796 80.3867 79.3082C80.2143 79.5226 80.0263 79.7799 79.8539 79.9943C79.8383 80.0372 79.8069 80.123 79.8069 80.1658C79.8069 80.2945 79.8539 80.3802 79.9166 80.3802C80.0263 80.3802 80.1516 80.3802 80.2456 80.2945C80.465 80.0801 80.6844 79.9514 80.9037 79.9943C81.1858 80.0801 81.4678 79.8228 81.7342 80.0372C81.7498 80.0372 81.7655 80.123 81.7812 80.1658C81.7655 80.2087 81.7498 80.2945 81.7185 80.3374C81.6402 80.3802 81.5461 80.4231 81.4678 80.466C81.3581 80.5089 81.2484 80.5947 81.1544 80.8091C81.1074 80.8948 81.0761 81.0235 81.0291 81.1092C80.9507 81.2379 80.8881 81.3237 80.794 81.3237C80.653 81.3665 80.512 81.3665 80.371 81.4094C80.277 81.4523 80.23 81.5809 80.1986 81.8382C80.136 81.8382 80.089 81.8382 80.0263 81.8382C79.9949 81.8382 79.9793 81.8811 79.9479 81.924C79.9323 81.9669 79.9323 82.0526 79.9323 82.0526C79.9636 82.1813 80.0263 82.1813 80.0733 82.1384C80.1203 82.0526 80.1516 81.9669 80.1673 81.7953C80.2457 81.8382 80.3397 81.8382 80.4023 81.9669C80.418 82.0098 80.4493 82.0955 80.4493 82.1384C80.465 82.3099 80.4337 82.4386 80.3867 82.5243C80.3553 82.5672 80.3397 82.6101 80.3083 82.653C80.1516 82.7816 79.9793 82.7388 79.8226 82.9532C79.6659 83.1247 79.5092 83.2533 79.3369 83.382C79.2742 83.4249 79.2272 83.4678 79.1802 83.4249C78.9922 83.2962 78.8511 83.5535 78.7101 83.7679C78.6161 83.8966 78.5378 84.1967 78.4594 84.3683C78.3968 84.4969 78.3027 84.5827 78.2401 84.7113C78.2087 84.7971 78.2401 84.9686 78.2244 85.1401C78.1931 85.4832 78.0677 85.4832 77.9737 85.6118C77.9267 85.6976 77.864 85.6976 77.817 85.5261C77.7543 85.3545 77.723 85.1401 77.6133 85.2688C77.535 85.3545 77.4566 85.4403 77.3783 85.5261C77.2059 85.7834 77.0179 85.912 76.8142 85.9978C76.6889 86.2551 76.5322 85.9978 76.4068 86.1264C76.2815 86.298 76.1405 86.2979 75.9995 86.2979C75.8585 86.2979 75.7174 86.2979 75.5764 86.2979C75.3727 86.2551 75.1847 86.3837 74.9967 86.5981C74.8557 86.7696 74.7303 86.7696 74.5893 86.5981C74.4639 86.4266 74.3073 86.4266 74.1819 86.2979C74.0566 86.1693 73.9312 85.9549 73.7902 85.8691C73.6648 85.7834 73.6022 85.569 73.5395 85.2688C73.4925 85.0544 73.4455 84.8829 73.3671 84.7542C73.3515 84.7113 73.3201 84.6684 73.2888 84.6684C73.1164 84.7113 72.9754 84.9257 72.8031 84.9257C72.6464 84.9686 72.568 85.2259 72.5367 85.6547C72.5054 86.0406 72.4584 86.0835 72.38 85.8691C72.333 85.7405 72.3173 85.6118 72.2547 85.6547C72.239 85.6547 72.2233 85.7834 72.2077 85.8262C72.1763 86.0835 72.1137 86.2551 72.0196 86.2551C71.8003 86.298 71.5809 86.3837 71.3616 86.641C71.3302 86.6839 71.2989 86.6839 71.2832 86.641C71.1735 86.5552 71.0795 86.3408 70.9542 86.3837C70.8445 86.4266 70.7662 86.6839 70.6721 86.8554C70.6095 86.9841 70.4998 86.9412 70.4371 86.7696C70.3431 86.5124 70.2334 86.2551 70.1864 85.8691C70.1864 85.8262 70.1864 85.6976 70.2021 85.6547C70.2178 85.6118 70.2491 85.4832 70.2648 85.5261C70.4214 85.6547 70.5938 85.6976 70.7662 85.6976C70.8602 85.6976 70.9385 85.569 70.9698 85.3545C71.0325 85.0115 71.1109 84.7113 71.2205 84.4111C71.3459 84.111 71.4869 83.8537 71.6749 83.8537C71.8473 83.8537 72.0196 83.8108 72.1763 83.8108C72.3173 83.8108 72.4584 83.725 72.5837 83.5964C72.7404 83.4249 72.9128 83.4678 73.0851 83.5535C73.2261 83.6393 73.3515 83.8108 73.4925 83.8537C73.6022 83.8966 73.7118 83.8966 73.8215 83.725C73.9939 83.4677 74.1976 83.382 74.3856 83.3391C74.4169 83.3391 74.4483 83.3391 74.4639 83.3391C74.746 83.4249 75.028 83.2533 75.2787 82.9103C75.31 82.8674 75.3257 82.8674 75.357 82.8674C75.4354 82.8245 75.4667 82.6959 75.4041 82.5672C75.263 82.3099 75.122 82.1384 74.934 82.3528C74.84 82.4815 74.7146 82.4815 74.605 82.5672C74.4169 82.7816 74.2289 82.9103 74.0252 82.9103C72.8971 82.8674 71.7689 82.996 70.6408 82.996C70.5625 82.996 70.4685 82.996 70.3901 83.0389C70.2491 83.1247 70.1237 83.2962 69.9827 83.3391C69.873 83.3391 69.7634 83.3391 69.638 83.382C69.5753 83.382 69.5283 83.5106 69.544 83.6393C69.5597 83.8108 69.6224 83.8537 69.685 83.8108C69.7634 83.8108 69.8574 83.8108 69.9357 83.8537C70.0454 83.8966 70.1081 84.2825 70.0454 84.5827C70.0141 84.7113 69.9984 84.8828 69.9671 84.9686C69.8417 85.2688 69.8417 85.569 69.9044 85.9978C69.9514 86.298 69.8574 86.5981 69.732 86.641C69.6224 86.6839 69.5127 86.6839 69.3873 86.6839C69.2776 86.6839 69.168 86.7697 69.0583 86.8983C68.9173 87.0269 68.7763 87.0698 68.6509 86.8983C68.4785 86.6839 68.3219 86.7696 68.1652 86.9412C68.0868 87.0269 67.9928 86.9412 67.9301 86.8125C67.8831 86.7268 67.8361 86.641 67.8048 86.5124C67.6951 86.2551 67.5698 86.1264 67.4287 86.3837C67.3347 86.5552 67.2251 86.5552 67.1154 86.4266C66.9117 86.1264 66.6767 86.1264 66.4573 86.3408C66.4103 86.3837 66.3476 86.4695 66.3006 86.5124C66.0813 86.6839 65.8619 86.7268 65.6425 86.4695C65.4858 86.2979 65.3292 86.1693 65.1568 86.1693C64.9845 86.1693 64.8121 86.1693 64.6554 86.1693C64.5614 86.1693 64.4831 86.2551 64.4204 86.3408C64.3107 86.5124 64.2167 86.5552 64.107 86.4266C64.0287 86.3408 63.9503 86.3408 63.8563 86.3837C63.7936 86.4266 63.7466 86.3837 63.6996 86.2979C63.5743 86.1264 63.4333 86.0835 63.2922 86.2551C63.2139 86.3408 63.1356 86.4266 63.0415 86.3408C62.9475 86.2979 62.8692 86.3837 62.7909 86.4695C62.7125 86.5552 62.6342 86.5552 62.5402 86.5124C62.3835 86.3837 62.2268 86.1264 62.0544 86.1264C61.9134 86.1264 61.7724 85.9978 61.647 85.8691C61.6 85.8262 61.5374 85.912 61.4904 85.9978C61.365 86.298 61.2083 86.5124 61.0516 86.6839C60.9733 86.7697 60.895 86.8125 60.8166 86.6839C60.7069 86.5552 60.5973 86.5552 60.5032 86.7268C60.2682 87.1556 60.0175 87.1127 59.7668 86.8554C59.5945 86.6839 59.3908 86.5552 59.2811 85.9978C59.2654 85.9549 59.2341 85.8691 59.2184 85.8691C59.1871 85.8691 59.1557 85.8691 59.1401 85.912C58.9834 86.2551 58.8424 86.641 58.623 86.5552C58.6387 86.4266 58.67 86.298 58.6857 86.1693C58.7327 85.8691 58.717 85.7405 58.623 85.7405C58.576 85.7405 58.5133 85.7405 58.4663 85.7834C58.4036 85.8262 58.3723 85.912 58.3566 86.0407C58.341 86.2122 58.3723 86.3408 58.4193 86.4266C58.4977 86.5552 58.576 86.5552 58.6543 86.5552C58.6073 86.7696 58.5447 86.8983 58.4663 86.9412C58.3253 86.9841 58.1843 87.0269 58.0433 87.0698C57.9493 87.0698 57.8866 87.1556 57.8082 87.2842C57.5732 87.6273 57.3225 87.5844 57.0718 87.37C56.9935 87.3271 56.9151 87.1985 56.8368 87.1556C56.7741 87.1127 56.7271 87.1127 56.6644 87.1985C56.5078 87.37 56.3354 87.1556 56.1787 87.37C56.022 87.5844 55.8497 87.4986 55.6773 87.4986C55.3953 87.4558 55.1132 87.6273 54.8312 87.4986C54.5805 87.4129 54.3298 87.4986 54.0635 87.4986C53.9851 87.4986 53.8911 87.5415 53.8128 87.6273C53.7031 87.7559 53.5934 87.7131 53.4837 87.6273C53.4367 87.5844 53.374 87.5844 53.327 87.6273C53.2173 87.7559 53.1077 87.7559 52.998 87.713C52.951 87.6702 52.8883 87.7559 52.8413 87.7988C52.7316 87.9275 52.6219 87.8846 52.5279 87.6702C52.4809 87.5844 52.4496 87.4558 52.4026 87.37C52.3242 87.1985 52.2772 87.1985 52.1832 87.37C52.0735 87.6273 51.9639 87.8417 51.8072 87.6273C51.7288 87.5415 51.6348 87.5844 51.5565 87.6702C51.4938 87.7559 51.4468 87.7559 51.3998 87.713C51.2588 87.5844 51.1178 87.6273 50.9924 87.7988C50.9454 87.8846 50.8827 87.8846 50.8357 87.8417C50.8044 87.7988 50.773 87.7988 50.7574 87.7559C50.5224 87.37 50.2717 87.37 50.021 87.713C49.9113 87.8417 49.8016 87.7988 49.6919 87.713C49.5822 87.6273 49.4726 87.5415 49.3629 87.4558C49.3002 87.4129 49.2689 87.2842 49.3002 87.1985C49.3159 87.1556 49.3472 87.1127 49.3785 87.1127C49.6292 87.1127 49.8799 87.0698 50.1463 87.0698C50.3813 87.0698 50.6007 87.0698 50.8044 86.7268C51.0551 86.5981 51.3058 86.4695 51.5565 86.7268C51.6192 86.7696 51.6662 86.8125 51.7132 86.7696C51.7915 86.7268 51.8855 86.641 51.9639 86.641C52.2146 86.5981 52.4653 86.5981 52.7316 86.5981C52.9353 86.5981 53.1233 86.641 53.3114 86.8125C53.3897 86.8983 53.468 86.9412 53.5621 86.9412C53.7657 86.9841 53.9538 86.9841 54.1575 87.0269C54.3612 87.0698 54.5492 86.9412 54.7215 86.6839C54.7999 86.5981 54.8782 86.5552 54.9722 86.5124C55.3639 86.5124 55.7557 86.4695 56.1474 86.5124C56.7428 86.5981 57.3225 86.4695 57.9179 86.5124C57.9649 86.5124 58.0276 86.4266 58.0746 86.3408C58.0903 86.3408 58.0746 86.2122 58.0589 86.1264C58.0433 85.9978 58.0119 85.8691 57.9963 85.6976C57.9649 85.4403 57.8866 85.3117 57.8082 85.2688C57.6672 85.2259 57.5262 85.2259 57.3852 85.2259C57.3382 85.2259 57.2755 85.2688 57.2285 85.3117C57.0248 85.6547 56.8211 85.7405 56.5861 85.6976C56.2727 85.6547 55.9594 85.6547 55.6616 85.6118C55.5833 85.6118 55.4893 85.6118 55.4109 85.5261C55.1446 85.183 54.8469 85.3117 54.5962 84.9686C54.5492 84.9257 54.4865 84.9257 54.4395 85.0115C54.3925 85.0544 54.3298 85.1401 54.2828 85.1401C53.9224 85.2259 53.5464 85.183 53.186 84.9686C53.0763 84.9257 52.9666 84.7971 52.857 84.7971C52.4966 84.7542 52.1205 84.7542 51.7602 84.7113C51.5565 84.7113 51.3685 84.7971 51.1804 85.0115C51.0708 85.1401 50.9611 85.0544 50.8671 84.84C50.8201 84.7542 50.7887 84.6256 50.7417 84.5398C50.6947 84.454 50.632 84.454 50.585 84.4969C50.4753 84.6255 50.3813 84.7113 50.256 84.7113C50.1463 84.7113 50.0366 84.7113 49.9113 84.7542C49.8016 84.7542 49.6919 84.7113 49.5822 84.5398C49.4412 84.3254 49.3159 84.3254 49.1749 84.4969C49.1278 84.5398 49.0652 84.5398 49.0182 84.454C48.9085 84.3254 48.7988 84.3254 48.6891 84.4969C48.5795 84.6255 48.4854 84.6256 48.3601 84.5398C48.1564 84.3254 48.1564 84.3683 48.1094 84.9257C48.0937 85.0544 48.0624 85.183 47.9997 85.183C47.7803 85.183 47.5453 85.183 47.326 84.9686C47.2476 84.8828 47.1536 84.84 47.0753 84.9257C46.9186 85.0973 46.7462 85.1401 46.5739 85.1401C46.0098 85.183 45.4457 85.2259 44.8817 85.1401C44.6623 85.0973 44.4273 85.0973 44.2079 85.3117C43.9886 85.5261 43.7692 85.569 43.5498 85.569C43.2991 85.6118 43.0484 85.569 42.7821 85.6118C42.6724 85.6118 42.5627 85.6547 42.453 85.7834C42.3277 85.9549 42.2493 85.8262 42.1553 85.569C42.1397 85.5261 42.1083 85.4403 42.0927 85.3974C41.9986 85.183 41.889 85.1401 41.7793 85.183C41.748 85.183 41.7166 85.183 41.7009 85.2259C41.4659 85.5261 41.2152 85.569 40.9489 85.569C40.4631 85.6118 39.9931 85.6118 39.5073 85.6118C39.4447 85.6118 39.3977 85.6547 39.3507 85.6976C39.335 85.6976 39.3193 85.8262 39.3193 85.8262C39.4447 86.0835 39.8834 86.4695 40.0244 86.4695C40.1341 86.4695 40.2438 86.4695 40.3691 86.4266C40.5415 86.3837 40.6982 86.4695 40.8548 86.6839C41.0742 86.9412 41.2936 87.0269 41.5129 86.8125C41.5913 86.7268 41.6696 86.7268 41.7479 86.8554C41.8263 86.9412 41.9203 86.9412 41.983 86.8125C42.1553 86.5124 42.3434 86.4695 42.547 86.4695C42.7194 86.5124 42.8918 86.5124 43.0484 86.6839C43.2991 86.9841 43.5342 86.9412 43.7849 86.641C43.9886 86.3837 44.1609 86.4695 44.3333 86.8983C44.3489 86.9412 44.3803 87.0269 44.3959 87.0698C44.4586 87.1985 44.5213 87.3271 44.6153 87.1985C44.7563 86.9412 44.9443 86.9841 45.101 86.8125C45.1324 86.7696 45.148 86.7696 45.1794 86.7696C45.2107 86.7696 45.242 86.7696 45.2577 86.8125C45.4614 86.9841 45.6494 86.9412 45.8374 86.7268C45.9471 86.5981 46.0568 86.6839 46.1195 87.0269C46.1665 87.2413 46.2448 87.2842 46.3388 87.2413C46.4015 87.1985 46.4485 87.2842 46.4955 87.37C46.5112 87.4129 46.5425 87.4986 46.5425 87.5415C46.5739 87.7559 46.5425 87.8417 46.4642 87.8846C46.2448 87.9275 46.0098 88.0561 45.7904 88.0132C45.4301 87.9703 45.054 88.099 44.6936 87.9275C44.584 87.8846 44.4743 87.9275 44.3646 87.9703C44.2236 88.0132 44.0826 87.9703 43.9572 87.8417C43.8789 87.7559 43.8005 87.7559 43.7065 87.8417C43.5968 87.9703 43.4872 88.0132 43.3775 88.0132C42.9544 88.0561 42.5314 88.0132 42.1083 87.8846C42.03 87.8417 41.936 87.7988 41.8576 87.713C41.795 87.6702 41.748 87.713 41.7009 87.7559C41.5443 87.9275 41.3719 87.9275 41.1996 87.9275C40.9802 87.9275 40.7452 87.9275 40.5258 87.8846C40.4161 87.8846 40.3064 87.8417 40.1968 87.713C40.0714 87.5844 39.9304 87.5415 39.7894 87.4986C39.6797 87.4558 39.5544 87.4558 39.4603 87.6273C39.2723 87.8846 39.0843 87.9703 38.8806 87.9275C38.7082 87.9275 38.5359 87.9275 38.3792 87.9275C38.2695 87.9275 38.1598 87.8846 38.0502 87.7559C37.9405 87.6273 37.8308 87.5415 37.7211 87.5415C37.3607 87.4986 36.9847 87.4129 36.6243 87.5415C36.4363 87.5844 36.2326 87.5844 36.0289 87.5844C35.8879 87.5844 35.7469 87.4986 35.6059 87.4129C35.4649 87.3271 35.3708 86.9841 35.2612 86.7696C35.1828 86.641 35.0888 86.641 35.0261 86.7696C35.0105 86.8125 34.9791 86.8554 34.9635 86.9412C34.8694 87.4129 34.7128 87.4986 34.5247 87.4986C34.3524 87.4986 34.1957 87.4558 34.0233 87.2842C33.8667 87.0698 33.6943 87.0269 33.5219 87.1127C33.3809 87.1556 33.2399 87.2413 33.0989 87.2842C33.0206 87.3271 32.9265 87.3271 32.8482 87.2842C32.4878 87.1127 32.1274 87.1127 31.7514 87.0698C31.4694 87.0698 31.1873 87.0698 30.9053 87.0698C30.6233 87.0698 30.3412 87.0698 30.0749 86.7696C29.9965 86.6839 29.9025 86.7696 29.8242 86.8554C29.7145 86.9841 29.6048 86.9412 29.4951 86.8125C29.3854 86.6839 29.2758 86.5981 29.1661 86.5981C28.743 86.5981 28.32 86.4695 27.8969 86.5981C27.6462 86.6839 27.3955 86.5981 27.1448 86.5124C27.0978 86.5124 27.0352 86.4266 26.9882 86.3408C26.9098 86.2122 26.8471 86.0407 26.8315 85.8262C26.8001 85.4403 26.8001 85.0544 26.7688 84.7113C26.7531 84.5827 26.7061 84.454 26.6591 84.3683C26.5494 84.2396 26.4398 84.2396 26.3301 84.1967C26.2517 84.1539 26.1734 84.0681 26.095 83.9394C26.0324 83.8108 25.954 83.6393 25.8913 83.5535C25.813 83.4249 25.719 83.4249 25.6563 83.5964C25.5623 83.7679 25.484 83.9823 25.4056 84.1967C25.3586 84.3254 25.3743 84.4969 25.4056 84.5827C25.4213 84.6255 25.4526 84.7113 25.484 84.7113C25.625 84.7113 25.766 84.7113 25.907 84.7542C26.0167 84.7542 26.1264 84.9257 26.2047 85.1401C26.2674 85.3117 26.3301 85.4832 26.3771 85.6547C26.3927 85.6976 26.3927 85.7834 26.3927 85.8691C26.3927 85.912 26.3614 85.9978 26.3457 85.9978C25.813 86.2122 25.2489 86.2122 24.8259 86.0835C24.7789 86.0835 24.7162 85.9978 24.6692 85.9549C24.6379 85.912 24.6222 85.912 24.5909 85.8691C24.4812 85.6976 24.3715 85.7405 24.2775 85.912C24.1521 86.1264 24.0111 86.1264 23.8701 86.0835C23.8388 86.0835 23.8074 86.0407 23.7918 86.0407C23.6507 85.9978 23.5254 85.7405 23.3844 85.7405C23.1023 85.7405 22.8203 85.6118 22.5383 85.6547C21.8332 85.7405 21.1281 85.6976 20.423 85.6118C20.2037 85.6118 19.9686 85.5261 19.7649 85.3117C19.6553 85.183 19.5456 85.183 19.4359 85.183C19.3419 85.183 19.2635 85.0973 19.2009 84.9686C19.0912 84.7971 18.9972 84.7542 18.8718 84.7542C18.8405 84.7542 18.8092 84.7542 18.7935 84.7542C18.4488 84.7971 18.1197 84.7113 17.7907 84.454C17.5713 84.2825 17.352 84.2396 17.1326 84.0252C17.0229 83.8966 16.9133 83.9823 16.8036 84.111C16.6626 84.2825 16.5215 84.2825 16.3962 84.111C16.1768 83.8108 15.9575 83.7679 15.7381 83.9823C15.6284 84.0681 15.5188 84.0681 15.4091 83.9394C15.2994 83.8108 15.1897 83.7679 15.08 83.7679C15.0017 83.7679 14.9077 83.8108 14.8293 83.8108C14.6883 83.8108 14.5473 83.6822 14.4376 83.4678C14.3906 83.382 14.3436 83.2962 14.2966 83.2104C14.2496 83.1247 14.1869 83.0818 14.1399 83.1676C14.0302 83.2962 13.9362 83.4249 13.8109 83.4249C13.4975 83.4249 13.1841 83.4249 12.8864 83.4249C12.7141 83.4249 12.5574 83.2962 12.4007 83.1247C12.1657 82.8674 11.915 82.8245 11.6486 82.996C11.5703 83.0389 11.4919 83.1247 11.3979 83.1676C11.3352 83.2104 11.2882 83.2104 11.2256 83.1676C11.0845 83.0818 10.9435 83.0389 10.8025 83.0389C10.3481 83.0389 9.89373 83.0389 9.45501 83.0389C9.21998 83.0389 9.00062 83.0818 8.78126 83.2533C8.64024 83.382 8.49923 83.4249 8.35821 83.2962C7.95083 82.9532 7.52778 82.9532 7.10472 82.9532C6.96371 82.9532 6.83836 82.7388 6.74435 82.4386C6.69734 82.2671 6.666 81.9669 6.71301 81.7953C6.76001 81.6238 6.80702 81.4094 6.85403 81.2379C6.93237 80.9377 6.93237 80.7662 6.83836 80.7233C6.58766 80.5947 6.35263 80.3374 6.1176 80.0801C6.03926 79.9943 6.00792 79.737 5.99225 79.5226C5.97659 79.3511 6.05493 79.008 6.1176 78.9651C6.19595 78.8794 6.27429 78.7936 6.35263 78.7079C6.43097 78.6221 6.46231 78.3219 6.41531 78.1504C6.38397 78.0217 6.33696 77.936 6.28996 77.8502C6.16461 77.55 6.16461 77.1641 6.19595 76.7782C6.19595 76.6924 6.21162 76.6495 6.22728 76.5638C6.27429 76.2636 6.28996 75.9634 6.28996 75.6632C6.28996 75.406 6.25862 75.1915 6.19595 75.02C6.03926 74.5912 5.86691 74.1624 5.71022 73.7336C5.64755 73.562 5.60054 73.3047 5.64755 73.0903C5.77289 72.49 5.78856 71.761 5.92958 71.1606C5.97659 70.9462 5.94525 70.6889 5.88257 70.5174C5.77289 70.1744 5.64755 69.8742 5.53787 69.4883C5.47519 69.231 5.50653 68.845 5.58487 68.6735C5.75723 68.3733 5.94525 68.2876 6.13327 68.116C6.16461 68.116 6.19595 68.0303 6.19595 67.9874C6.19595 67.9445 6.18028 67.8587 6.16461 67.8159C6.03926 67.6015 5.96092 67.3013 5.91391 66.9153C5.86691 66.5723 5.86691 66.6152 5.94525 66.315C6.03926 65.9719 6.03926 65.9291 6.00792 65.7147C5.92958 65.2858 5.83557 64.9428 5.72589 64.5568C5.63188 64.2567 5.64755 64.128 5.74156 63.7421C5.78856 63.5706 5.86691 63.399 5.83557 63.1417C5.80423 62.7987 5.85124 62.5843 5.92958 62.327C6.05493 61.9839 6.03926 61.941 5.89824 61.6409C5.83557 61.5122 5.75723 61.3836 5.69455 61.2121C5.5692 60.8261 5.53787 60.3973 5.61621 59.9256C5.64755 59.7112 5.69455 59.5397 5.66321 59.2824C5.61621 59.0251 5.67888 58.8536 5.72589 58.682C5.80423 58.4247 5.91391 58.339 6.00792 58.1674C6.0706 58.0388 6.1176 57.7815 6.08627 57.5671C6.0706 57.4385 6.05493 57.2669 6.03926 57.1383C6.00792 56.9239 6.00792 56.7095 6.05493 56.4951C6.13327 56.152 6.1176 55.7661 6.08627 55.3801C6.0706 55.1657 6.03926 54.9513 5.96092 54.7798C5.91391 54.694 5.86691 54.5654 5.86691 54.4367C5.88257 54.3081 5.94525 54.2223 5.99225 54.1365C6.1176 53.7935 6.08627 53.4504 5.91391 53.3218C5.88258 53.2789 5.86691 53.2789 5.83557 53.2789C5.66321 53.1931 5.5222 52.9787 5.38118 52.7215C5.41252 52.6357 5.38118 52.507 5.36551 52.4213C5.38118 52.3784 5.41252 52.4213 5.44385 52.3784C5.61621 52.3784 5.77289 52.4213 5.92958 52.7215C5.94525 52.7643 5.97659 52.7643 6.00792 52.7643C6.0706 52.7643 6.1176 52.7215 6.1176 52.5499C6.1176 52.507 6.10193 52.3784 6.08627 52.3355C5.99225 52.0353 5.85124 51.9496 5.72589 51.7352C5.64755 51.6065 5.58487 51.6494 5.50653 51.8209C5.42819 52.0353 5.36551 52.164 5.36551 52.4213ZM23.9798 80.6804C23.9484 80.6804 23.9171 80.6804 23.9014 80.6804C23.7761 80.6804 23.6821 80.8091 23.6507 81.1521C23.6351 81.2808 23.6037 81.4523 23.5881 81.5809C23.5567 81.7953 23.6037 81.9669 23.6977 81.9669C23.8858 81.9669 23.9484 81.8382 23.9641 81.3237C23.9641 81.1092 23.9641 80.852 23.9641 80.6375C23.9955 80.6375 24.0111 80.5947 24.0425 80.5518C24.0581 80.5518 24.0581 80.466 24.0581 80.4231C24.0111 80.4231 23.9798 80.5089 23.9798 80.6804ZM67.4601 85.2688C67.5071 85.569 67.5698 85.7405 67.6951 85.7405C67.7735 85.7405 67.8518 85.6976 67.9301 85.6547C67.9928 85.6118 68.0242 85.4832 67.9928 85.3974C67.9771 85.3545 67.9458 85.3117 67.9301 85.2688C67.7735 85.183 67.6168 85.183 67.4444 85.2688C67.3974 84.7971 67.2877 84.4969 67.131 84.3254C67.0527 84.2396 66.9744 84.1539 66.896 84.111C66.8803 84.111 66.849 84.1967 66.8333 84.2825C66.8177 84.3254 66.8177 84.4111 66.8333 84.4969C66.9117 84.9257 67.037 85.2259 67.2094 85.2688C67.3034 85.2688 67.3817 85.2688 67.4601 85.2688ZM14.8293 6.10886C14.7353 5.98022 14.6413 5.80869 14.5316 5.72293C14.4063 5.63716 14.2653 5.59428 14.1242 5.5514C14.1086 5.5514 14.0772 5.46564 14.0616 5.42275C13.9832 4.69376 13.9832 4.69376 13.7952 4.47935C13.6542 4.30783 13.5288 4.608 13.5288 5.03682C13.5288 5.20834 13.5445 5.37987 13.5132 5.42275C13.4662 5.50852 13.4035 5.50852 13.3565 5.5514C13.3251 5.5514 13.2938 5.59428 13.2781 5.63716C13.2625 5.68005 13.2311 5.72293 13.2311 5.80869C13.2155 5.93734 13.2468 6.0231 13.3252 6.06598C13.4348 6.10886 13.5445 6.10886 13.6542 6.10886C13.8579 6.06598 14.0459 6.15175 14.2183 6.36616C14.3436 6.53768 14.4846 6.4948 14.6256 6.45192C14.704 6.40904 14.7823 6.28039 14.798 6.06598C14.845 6.06598 14.9077 6.06598 14.9547 6.06598C14.986 6.06598 15.0017 6.0231 15.0174 5.98022C15.033 5.93734 15.033 5.85157 15.033 5.85157C15.0017 5.72293 14.9547 5.72293 14.892 5.80869C14.8763 5.85157 14.845 5.98022 14.8293 6.10886ZM19.0599 81.5809C19.0755 81.7525 19.1069 81.8811 19.1695 81.8811C19.3105 81.9669 19.4359 82.0098 19.5612 82.2242C19.6083 82.3099 19.6709 82.3099 19.7179 82.2671C19.8746 82.0526 20.0313 81.9669 20.2037 81.9669C20.3447 81.9669 20.4857 82.0098 20.611 81.8811C20.6737 81.8382 20.7051 81.7096 20.6894 81.5381C20.6894 81.4952 20.658 81.4094 20.6424 81.3665C20.5954 81.2808 20.5484 81.2379 20.4857 81.2379C20.376 81.2379 20.2663 81.3665 20.1723 81.4523C20.094 81.5381 20.0156 81.4952 19.9373 81.3665C19.7806 81.1092 19.6239 81.1092 19.4672 81.3237C19.3419 81.4952 19.2165 81.6238 19.0755 81.6238C19.0599 81.5381 19.0599 81.4523 19.0442 81.4094C18.9815 81.2808 18.9032 81.1521 18.8405 81.0235C18.7465 80.8519 18.6368 80.8091 18.5271 80.9377C18.4801 81.0235 18.4174 81.0664 18.3704 81.0664C18.0571 81.0664 17.7594 81.1092 17.446 81.0664C17.399 81.0664 17.3363 81.0235 17.2893 80.9377C17.1953 80.7662 17.1013 80.5947 17.0229 80.4231C16.9759 80.3374 16.8819 80.466 16.8192 80.6804C16.7879 80.8091 16.7879 80.9806 16.8349 81.1092C16.8819 81.195 16.9289 81.2808 16.9759 81.3665C17.0073 81.4094 17.0229 81.4094 17.0543 81.4094C17.1169 81.4094 17.164 81.4523 17.2266 81.4523C17.399 81.4952 17.5557 81.5381 17.728 81.5381C17.9317 81.5381 18.1041 81.7953 18.2921 81.924C18.4644 82.0098 18.6211 82.0526 18.7778 81.7953C18.8405 81.6667 18.9502 81.6238 19.0599 81.5809ZM15.0017 80.1658C15.0644 80.5947 15.1427 80.9806 15.2524 81.3237C15.2681 81.3665 15.2994 81.4094 15.3151 81.4094C15.4091 81.4523 15.5188 81.2379 15.5658 80.9377C15.5814 80.8091 15.5188 80.466 15.4561 80.3802C15.4091 80.3374 15.3464 80.2516 15.2994 80.2516C15.1897 80.2087 15.08 80.2087 14.9704 80.2087C14.9547 80.0372 14.9233 79.9086 14.8763 79.8228C14.8293 79.737 14.7667 79.6941 14.7197 79.6084C14.5473 79.2653 14.3593 79.2224 14.1556 79.394C14.0772 79.4797 13.9989 79.4797 13.9049 79.394C13.6072 79.1367 13.2938 79.1796 12.9804 79.2653C12.9021 79.2653 12.8081 79.3511 12.7454 79.4797C12.6514 79.6513 12.5417 79.6941 12.4164 79.6941C12.385 79.4797 12.3224 79.3082 12.244 79.2653C12.1343 79.1796 12.0247 79.1796 11.915 79.3082C11.8993 79.3511 11.8836 79.394 11.868 79.4368C11.8836 79.4797 11.915 79.5655 11.9306 79.5655C12.103 79.6513 12.2597 79.6513 12.432 79.6513C12.4477 79.8228 12.4947 79.9085 12.5417 79.9514C12.6201 80.0372 12.6984 80.0801 12.7767 80.1658C12.8864 80.2945 12.9334 80.5947 13.0118 80.8091C13.0745 80.9806 13.1528 81.0235 13.2311 80.8948C13.2781 80.8091 13.3252 80.7233 13.3722 80.6375C13.4662 80.4231 13.5602 80.3802 13.6699 80.466C13.8109 80.5947 13.9362 80.5947 14.0772 80.4231C14.2339 80.2087 14.3906 80.123 14.563 80.123C14.7353 80.1658 14.8607 80.1658 15.0017 80.1658ZM23.306 6.10886C23.2277 6.0231 23.1807 5.85157 23.1337 5.63716C23.0553 5.29411 22.9927 5.16546 22.8673 5.20835C22.695 5.25123 22.5383 5.25123 22.3659 5.33699C22.2092 5.46564 22.0525 5.59428 21.8802 5.42275C21.8332 5.37987 21.7705 5.42275 21.7235 5.50852C21.5825 5.68005 21.4571 5.68005 21.3161 5.50852C21.2691 5.46564 21.2064 5.37987 21.1594 5.42275C21.0028 5.5514 20.8304 5.5514 20.6894 5.76581C20.6737 5.80869 20.6424 5.85157 20.6424 5.93734C20.6267 6.0231 20.6267 6.10886 20.6424 6.15175C20.7677 6.79497 20.8461 6.9665 21.0968 6.79497C21.1594 6.75209 21.2064 6.70921 21.2535 6.79497C21.3945 6.92362 21.5198 6.88074 21.6452 6.66633C21.7235 6.53768 21.8019 6.53768 21.8802 6.58056C21.9272 6.58056 21.9899 6.66633 22.0369 6.70921C22.0682 6.75209 22.0839 6.75209 22.1152 6.79497C22.1936 6.88074 22.2876 6.9665 22.3503 6.88074C22.5853 6.62345 22.836 6.58056 23.0867 6.53768C23.165 6.4948 23.2277 6.36616 23.259 6.10886C23.2904 6.10886 23.306 6.06598 23.3374 6.0231C23.353 5.98022 23.353 5.93734 23.353 5.89445C23.3374 5.85157 23.306 5.93734 23.306 6.10886ZM72.5367 79.6941C72.5367 79.2653 72.521 78.8365 72.6151 78.4077C72.6307 78.3648 72.6307 78.279 72.6307 78.1933C72.6307 78.0646 72.5994 77.936 72.5367 77.8931C72.3173 77.8073 72.098 77.8502 71.8786 77.936C71.8316 77.936 71.7846 78.0646 71.7376 78.1504C71.7219 78.1933 71.7219 78.279 71.7063 78.3648C71.6906 78.4934 71.6906 78.665 71.6749 78.7936L71.6906 78.7507C71.5026 78.7936 71.2989 78.8794 71.1265 78.5792C71.0952 78.5363 71.0325 78.665 71.0169 78.7936C71.0012 79.0938 71.0012 79.394 71.0012 79.6941L71.0169 79.6513C70.9385 79.6941 70.8445 79.6941 70.7818 79.8657C70.7348 79.9514 70.7191 80.123 70.7191 80.2516C70.7348 80.3802 70.7662 80.5518 70.8288 80.5518C71.0012 80.5947 71.1579 80.5947 71.3302 80.6375C71.4712 80.6375 71.5966 80.7662 71.6906 81.1092C71.7376 81.3237 71.8159 81.4094 71.8943 81.4523C72.004 81.4952 72.1137 81.5381 72.2233 81.5381C72.474 81.5381 72.7247 81.4952 72.9754 81.4523C73.0381 81.4523 73.0851 81.3665 73.0851 81.2379C73.0851 81.1521 73.0694 81.0664 73.0381 81.0664C72.9284 80.9377 72.8814 80.6375 72.8344 80.3802C72.7717 80.0801 72.662 79.8657 72.5367 79.6941ZM64.1697 79.9943C64.013 79.7799 63.8563 79.6084 63.6996 79.4368C63.5899 79.3082 63.4803 79.2653 63.3706 79.3511C63.2296 79.4369 63.1042 79.5226 62.9632 79.4368C62.6498 79.2653 62.3521 79.3082 62.0544 79.6513C61.9761 79.737 61.8821 79.737 61.8037 79.6513C61.6 79.3511 61.3807 79.3082 61.1457 79.3082C60.9263 79.3082 60.6913 79.3082 60.4719 79.3082C60.2995 79.3082 60.1429 79.2653 59.9705 79.0509C59.9235 79.008 59.8608 79.0509 59.8138 79.0938C59.6885 79.2224 59.5475 79.394 59.4221 79.5655C59.3124 79.4368 59.2027 79.3511 59.1087 79.2224C58.9677 79.0509 58.8424 79.0509 58.7014 79.1796C58.4036 79.394 58.0903 79.3511 57.7926 79.0938C57.6202 78.9223 57.4635 78.9223 57.2912 79.0938C57.2128 79.1796 57.1345 79.1796 57.0405 79.1367C56.8525 79.0509 56.8525 79.0509 56.7114 79.1367C56.6331 79.1796 56.5391 79.2224 56.4607 79.3082C56.4294 79.3082 56.4137 79.394 56.3981 79.4368C56.3824 79.5226 56.4294 79.6084 56.4921 79.6084C56.6958 79.6941 56.8838 79.6513 57.0875 79.6513C57.3382 79.6513 57.5889 79.737 57.8396 79.9514C57.9493 80.0372 58.0589 79.9514 58.1686 79.8657C58.247 79.7799 58.3253 79.6941 58.4193 79.6941C58.5917 79.6941 58.764 79.6513 58.9207 79.8228C59.0774 79.9943 59.2498 80.0372 59.4221 80.0801C59.6728 80.0801 59.9235 80.123 60.1899 80.123C60.2995 80.123 60.4092 80.2087 60.5189 80.3802C60.6599 80.5947 60.7853 80.5089 60.9263 80.3802C61.0046 80.2945 61.083 80.2087 61.177 80.2087C61.3807 80.1658 61.5687 80.1658 61.7724 80.1658C61.9447 80.1658 62.1014 80.2087 62.2738 80.4231C62.3521 80.5089 62.4461 80.5518 62.5245 80.466C62.6342 80.3802 62.7438 80.3802 62.8535 80.5089C62.9319 80.5947 63.0259 80.5947 63.1042 80.5947C63.4646 80.5947 63.8406 80.5947 64.201 80.5518C64.2794 80.5518 64.3734 80.466 64.4517 80.4231C64.5144 80.3802 64.5614 80.3374 64.6084 80.4231C64.7964 80.6375 64.9845 80.6375 65.1725 80.3374C65.2508 80.2087 65.3292 80.2087 65.4075 80.1658C65.4388 80.1658 65.4545 80.123 65.4858 80.0801C65.5485 79.9943 65.5642 79.8657 65.5642 79.737C65.5642 79.5655 65.5328 79.4369 65.4702 79.394C65.1881 79.2224 64.9061 79.2653 64.6241 79.3511C64.5457 79.394 64.4674 79.4797 64.389 79.6084C64.3107 79.7799 64.2324 79.8657 64.1697 79.9943ZM55.2699 83.8537C55.3796 83.8108 55.458 83.8108 55.5363 83.7679C55.6616 83.725 55.7087 83.5535 55.6616 83.3391C55.5833 82.996 55.505 82.6959 55.4423 82.3528C55.3953 82.1384 55.3169 82.0526 55.2386 82.0098C55.1289 81.9669 55.0192 81.9669 54.9096 81.9669C54.7685 81.9669 54.6432 81.7525 54.5022 81.6667C54.4238 81.6238 54.3298 81.5809 54.2515 81.5809C54.0791 81.5381 53.9224 81.5809 53.7658 81.7953C53.6717 81.924 53.5621 82.0098 53.4367 82.0098C52.904 82.0098 52.3712 82.0098 51.8385 81.9669C51.7288 81.9669 51.6192 81.924 51.5095 81.8811C51.3371 81.5809 51.1178 81.924 50.9454 81.6238C50.8827 81.6238 50.8357 81.6238 50.7731 81.6667C50.6634 81.7953 50.5537 81.7525 50.444 81.6238C50.4127 81.5809 50.397 81.5809 50.3657 81.5809C50.209 81.4952 50.0993 81.6667 49.9896 81.924C49.974 81.9669 49.9583 82.0526 49.974 82.1384C49.974 82.1813 49.9896 82.2671 50.021 82.2671C50.209 82.4815 50.4127 82.4386 50.6007 82.4386C50.8514 82.4386 51.1021 82.4386 51.3528 82.6959C51.3998 82.7388 51.4625 82.6959 51.5095 82.653C51.6192 82.5243 51.7288 82.5672 51.8385 82.6959C51.8855 82.7388 51.9482 82.7388 51.9952 82.6959C52.1049 82.6101 52.2146 82.5672 52.3242 82.7388C52.3712 82.8245 52.4339 82.8245 52.4809 82.8674C52.6533 82.8674 52.81 82.8674 52.9823 82.8674C53.0607 82.8674 53.139 82.9532 53.2174 83.0389C53.2957 83.1247 53.374 83.1676 53.4524 83.0389C53.5464 82.9103 53.6561 82.7816 53.7501 82.653C53.8598 82.5243 53.9538 82.4386 54.0791 82.4386C54.2201 82.4386 54.3612 82.4386 54.5022 82.4386C54.6118 82.4386 54.7215 82.5243 54.7842 82.8245C54.8312 83.0389 54.8782 83.2104 54.9252 83.382C55.0036 83.6393 55.1132 83.725 55.2229 83.7679C55.2386 83.8966 55.2699 83.8537 55.2699 83.8537ZM20.188 79.7799C20.2977 79.7799 20.517 79.7799 20.7521 79.6513C20.7834 79.6513 20.8304 79.5655 20.8304 79.5655C20.8304 79.394 20.7834 79.3511 20.7207 79.3082C20.517 79.1367 20.517 79.1367 20.658 78.7079C20.7051 78.5792 20.7207 78.4506 20.7051 78.279C20.6894 78.1504 20.6424 78.0218 20.5954 77.9789C20.4073 77.8931 20.2037 77.8073 20.0156 78.0218C19.8276 78.2362 19.6396 78.3219 19.4359 78.3219C19.2635 78.3219 19.0912 78.3219 18.9345 78.4934C18.7778 78.665 18.6055 78.7079 18.4488 78.7507C18.3078 78.7507 18.1667 78.7936 18.0257 78.8365C17.9787 78.8365 17.9317 78.9651 17.8847 79.0509C17.775 79.2653 17.7594 79.5655 17.8534 79.8228C17.9317 80.0372 18.0101 80.2516 18.1041 80.4231C18.1824 80.5518 18.2764 80.5518 18.3391 80.4231C18.4018 80.2945 18.4801 80.1658 18.5428 80.0372C18.6211 79.9086 18.6995 79.9086 18.7778 79.9943C18.9188 80.1658 19.0599 80.1658 19.1852 80.0372C19.4046 79.8228 19.6239 79.737 19.8433 79.737C19.906 79.737 20 79.737 20.188 79.7799ZM34.9321 85.9978C34.9635 86.0407 34.9791 86.0407 35.0105 86.0835C35.0888 86.1693 35.1671 86.2122 35.2612 86.2122C35.3238 86.2122 35.3708 86.1264 35.4022 85.9978C35.4492 85.8262 35.4335 85.5261 35.3552 85.3974C35.2612 85.2259 35.1985 85.0115 35.2142 84.6684C35.2142 84.6255 35.1985 84.5398 35.1828 84.4969C35.1201 84.3683 35.0418 84.2396 34.9635 84.1539C34.8851 84.0252 34.8068 84.0252 34.7284 84.111C34.6501 84.1967 34.5717 84.3254 34.5091 84.4111C34.3837 84.5827 34.3837 84.5827 34.5091 84.9257C34.5247 84.9686 34.5404 85.0973 34.5404 85.1401C34.5404 85.183 34.4934 85.2259 34.4621 85.2259C34.2897 85.2688 34.133 85.3117 33.9607 85.3974C33.9293 85.3974 33.9137 85.4403 33.8823 85.4832C33.898 85.5261 33.9137 85.6118 33.9293 85.6547C34.1174 85.9978 34.321 86.2551 34.5091 86.5552C34.6187 86.6839 34.6814 86.641 34.7911 86.2979C34.8381 86.1693 34.8851 86.0407 34.9321 85.9978ZM22.2092 79.0938C22.1779 79.1796 22.1466 79.2224 22.1466 79.2653C22.1309 79.3511 22.1309 79.4368 22.1466 79.4797C22.2562 79.8228 22.3659 80.1658 22.4756 80.5089C22.5696 80.8091 22.6166 81.1521 22.648 81.5381C22.6636 81.8382 22.695 81.8382 22.789 81.4952C22.836 81.3237 22.8987 81.1521 22.977 81.0664C23.0867 80.9377 23.118 80.6375 23.212 80.4231C23.259 80.3374 23.306 80.2516 23.3687 80.2516C23.4471 80.2516 23.5411 80.2087 23.6194 80.1658C23.6507 80.1658 23.6664 80.0801 23.6821 80.0372C23.7134 79.9086 23.6821 79.7799 23.6507 79.6513C23.5881 79.4797 23.5097 79.3511 23.4314 79.3511C23.1807 79.3082 22.93 79.2653 22.6793 79.2224C22.6009 79.2224 22.5069 79.2653 22.4286 79.2224C22.3503 79.2224 22.2719 79.1367 22.2092 79.0938ZM37.7211 85.6976V85.7405C37.5801 85.7405 37.4391 85.7405 37.2981 85.7405C37.2511 85.7405 37.1884 85.7834 37.1414 85.8262C37.0787 85.8691 37.063 85.9978 37.1101 86.1693C37.1727 86.4266 37.2511 86.641 37.3451 86.8125C37.4391 86.9841 37.5488 87.0698 37.6585 87.0269C37.7211 86.9841 37.7681 86.9841 37.8151 86.8983C37.9562 86.7268 38.0815 86.7268 38.2225 86.8554C38.3009 86.9412 38.3792 86.8125 38.4262 86.5981C38.5202 86.1693 38.4732 85.7834 38.3009 85.7405C38.1128 85.7405 37.9091 85.7405 37.7211 85.6976ZM16.1455 6.4948C16.2708 6.53768 16.4275 6.53768 16.5215 6.23751C16.7252 5.72293 16.9603 5.59428 17.211 5.63716C17.2893 5.63716 17.3833 5.63716 17.4617 5.63716C17.5087 5.63716 17.5557 5.50852 17.6183 5.46564C17.6027 5.37987 17.6027 5.29411 17.587 5.25123C17.4773 4.99394 17.399 4.69376 17.305 4.43647C17.2423 4.26494 17.1483 4.22206 17.0856 4.39359C16.9916 4.56512 16.9133 4.77953 16.8192 4.95105C16.6939 5.16546 16.5685 5.33699 16.4432 5.46564C16.3649 5.5514 16.2865 5.59428 16.2082 5.68005C16.1768 5.72293 16.1612 5.72293 16.1298 5.72293C16.0515 5.80869 15.9888 5.93734 15.9575 6.19463C15.9261 6.36616 16.0045 6.4948 16.1455 6.4948ZM19.2792 4.73664C19.1069 4.69376 18.9972 4.77953 18.8875 4.99394C18.8248 5.12258 18.7778 5.42275 18.8092 5.59428C18.8248 5.68005 18.8248 5.72293 18.8405 5.80869C18.8718 5.93734 18.9032 6.06598 18.9345 6.19463C18.9972 6.45192 19.0912 6.58056 19.2165 6.4948C19.4359 6.36616 19.5456 6.0231 19.5612 5.37987C19.5612 5.0797 19.4672 4.77953 19.3576 4.73664C19.3262 4.73664 19.2949 4.73664 19.2792 4.73664ZM65.4545 78.7507C65.6112 78.8365 65.6895 79.008 65.7522 79.2653C65.8149 79.5655 65.9246 79.6513 66.0342 79.6513C66.1126 79.6513 66.2066 79.6084 66.2849 79.5655C66.3633 79.5226 66.4416 79.2224 66.4103 79.0509C66.379 78.8365 66.3319 78.665 66.2849 78.4506C66.2066 78.1075 66.2066 78.1075 66.0969 78.1933C66.0186 78.2362 65.9402 78.3219 65.8462 78.3219C65.7365 78.3219 65.6269 78.3219 65.5172 78.3219C65.4545 78.3219 65.4075 78.3648 65.3605 78.4934C65.3918 78.665 65.4388 78.7507 65.4545 78.7507ZM3.73598 48.7334C3.78298 48.7334 3.75165 48.7334 3.73598 48.7334C3.65764 48.7763 3.59496 48.8192 3.59496 48.905C3.59496 49.0765 3.64197 49.1194 3.70464 49.2051C3.86133 49.4195 4.01801 49.5053 4.19037 49.5482C4.30005 49.5482 4.40973 49.6768 4.50374 49.8055C4.59775 49.9341 4.64476 49.8912 4.7231 49.7197C4.78577 49.5053 4.78577 49.2909 4.70743 49.1623C4.53508 48.905 4.34705 48.7334 4.15903 48.7334C4.03368 48.7334 3.924 48.7334 3.73598 48.7334ZM50.7417 77.936C50.585 77.936 50.4753 77.936 50.3657 77.936C50.3187 77.936 50.2717 78.0646 50.209 78.1075C50.162 78.1933 50.115 78.3219 50.1306 78.4934C50.1306 78.6221 50.1933 78.665 50.256 78.7079C50.4754 78.8365 50.6947 78.8365 50.9141 78.665C50.9611 78.6221 51.0081 78.5363 51.0551 78.4506C51.0708 78.4077 51.0864 78.3219 51.1021 78.279C51.1334 78.1075 51.1021 78.0218 51.0238 78.0218C50.9141 77.9789 50.8044 77.9789 50.7417 77.936ZM48.5324 78.3219C48.7048 78.3219 48.8772 78.3219 49.0338 78.3219C49.0808 78.3219 49.1435 78.279 49.1905 78.2362C49.2219 78.2362 49.2375 78.1504 49.2532 78.1075C49.2375 78.0646 49.2062 77.9789 49.1905 77.9789C48.9242 77.7645 48.6421 77.8931 48.3758 77.8931C48.2347 77.8931 48.1094 77.7645 47.984 77.6358C47.937 77.5929 47.8744 77.55 47.8274 77.55C47.8117 77.55 47.7803 77.6358 47.7647 77.6787C47.749 77.7216 47.7647 77.8073 47.7647 77.8502C47.8117 78.0646 47.8744 78.1933 47.9684 78.2362C48.1564 78.2362 48.3444 78.279 48.5324 78.3219ZM23.5567 85.2259C23.6037 85.183 23.6664 85.183 23.7134 85.1401C23.7448 85.1401 23.7604 85.0544 23.7761 85.0115C23.8544 84.8828 23.8858 84.6255 23.8701 84.454C23.8388 84.2396 23.7761 84.0681 23.6977 84.0252C23.6507 83.9823 23.5881 83.9823 23.5411 84.0252C23.4157 84.1539 23.2904 84.2825 23.1493 84.3683C23.0867 84.4111 23.0553 84.4969 23.0553 84.6256C23.0553 84.6684 23.0867 84.7542 23.1023 84.7971C23.1964 84.9257 23.306 85.0544 23.4 85.183C23.4471 85.2259 23.5097 85.2259 23.5567 85.2259ZM12.4477 5.59428C12.5261 5.59428 12.5887 5.59428 12.6357 5.5514C12.6984 5.50852 12.7297 5.37987 12.7297 5.25123C12.7454 5.0797 12.7141 4.95105 12.6514 4.90817C12.4947 4.73664 12.3224 4.77953 12.15 4.82241C12.1187 4.82241 12.103 4.86529 12.0717 4.90817C12.009 4.95105 11.9777 5.0797 11.9933 5.29411C12.009 5.42275 12.056 5.5514 12.103 5.5514C12.244 5.5514 12.3537 5.59428 12.4477 5.59428ZM74.7773 80.6804C74.7773 80.6804 74.7773 80.6375 74.7773 80.6804C74.6363 80.6375 74.4953 80.6375 74.3543 80.6375C74.2759 80.6375 74.1976 80.7662 74.1349 80.8948C74.1192 80.9377 74.1192 81.0664 74.1192 81.1092C74.1349 81.2379 74.1662 81.3665 74.2289 81.4094C74.2603 81.4094 74.2916 81.4523 74.3073 81.4094C74.5423 81.1092 74.793 81.0235 75.0437 81.0235C75.1064 81.0235 75.1534 81.0235 75.216 80.9806C75.2474 80.9806 75.2787 80.9377 75.2787 80.8519C75.2944 80.7662 75.263 80.6375 75.1847 80.6375C75.0593 80.6375 74.9183 80.6804 74.7773 80.6804ZM31.6731 85.0544C31.6574 84.9686 31.6574 84.8829 31.6417 84.84C31.532 84.454 31.4224 84.111 31.25 83.9823C31.1717 83.8966 31.0933 83.7679 31.015 83.6822C30.9993 83.6822 30.968 83.7679 30.9523 83.8108C30.9366 83.8537 30.9366 83.9823 30.9523 84.0252C31.0306 84.4111 31.1403 84.7971 31.2813 85.0544C31.3754 85.2688 31.485 85.2688 31.5947 85.183C31.6261 85.183 31.6417 85.0973 31.6731 85.0544ZM78.3497 42.73C78.2401 42.73 78.1304 42.73 78.0207 42.73C77.9424 42.73 77.911 42.8157 77.911 42.9015C77.911 42.9873 77.9424 43.0302 77.958 43.073C78.005 43.1588 78.052 43.2446 78.099 43.2874C78.2087 43.4161 78.3027 43.5019 78.4281 43.3303C78.5534 43.2017 78.6945 43.073 78.8198 42.9015C78.8355 42.9015 78.8355 42.8157 78.8511 42.7729C78.8198 42.73 78.8041 42.6871 78.7728 42.6871C78.6318 42.73 78.4908 42.73 78.3497 42.73ZM83.3167 45.5173C83.1913 45.5602 83.0973 45.5602 83.019 45.6031C82.972 45.6459 82.9093 45.6888 82.8623 45.7746C82.8153 45.8604 82.784 45.989 82.784 46.1605C82.784 46.2034 82.831 46.2463 82.8623 46.2463C82.972 46.2892 83.0817 46.3321 83.1913 46.3321C83.2383 46.3321 83.301 46.2463 83.348 46.2034C83.4264 46.1176 83.4734 45.7746 83.4264 45.6459C83.3794 45.5602 83.3324 45.5173 83.3167 45.5173ZM16.0672 75.5775C16.1768 75.5775 16.2708 75.5775 16.3492 75.5775C16.3805 75.5775 16.4119 75.5775 16.4275 75.5346C16.4902 75.5346 16.5372 75.4488 16.5842 75.3631C16.5685 75.2344 16.5215 75.1915 16.4589 75.1487C16.2395 75.02 16.0045 75.1487 15.8008 74.8914C15.7851 74.8485 15.7538 74.8914 15.7224 74.8914C15.6598 74.9343 15.6284 75.02 15.5971 75.1487C15.5658 75.3202 15.5971 75.4488 15.6754 75.4488C15.8321 75.4917 15.9575 75.5346 16.0672 75.5775ZM78.0364 83.725C78.0207 83.4677 77.9737 83.3391 77.911 83.2104C77.8484 83.0818 77.7543 83.0818 77.6917 83.2533C77.629 83.4249 77.5977 83.5964 77.5663 83.8108C77.535 84.0252 77.5663 84.2396 77.6447 84.2825C77.7857 84.3254 77.911 84.2396 78.005 83.9394C78.0207 83.8537 78.0207 83.7679 78.0364 83.725ZM35.5119 7.39532C35.5589 7.35244 35.6215 7.35244 35.6685 7.30956C35.7312 7.26667 35.7626 7.18091 35.7626 7.00938C35.7626 6.83786 35.7155 6.75209 35.6685 6.75209C35.5902 6.79497 35.5119 6.79497 35.4335 6.66633C35.3082 6.4948 35.1828 6.45192 35.0418 6.53768C34.9791 6.58056 34.9321 6.62345 34.9165 6.75209C34.9165 6.75209 34.9478 6.88074 34.9791 6.88074C35.1045 6.9665 35.2455 7.09515 35.3552 7.26667C35.4022 7.35244 35.4649 7.35244 35.5119 7.39532ZM68.8233 10.2255C68.9016 10.1826 68.9486 10.1826 69.0113 10.1398C69.0896 10.0969 69.1053 9.96823 69.0583 9.7967C68.9486 9.36788 68.7919 9.325 68.6196 9.41077C68.5569 9.45365 68.5412 9.5823 68.5256 9.75382C68.5256 9.92535 68.5412 10.054 68.6039 10.0969C68.6822 10.1826 68.7606 10.1826 68.8233 10.2255ZM24.2148 6.0231C24.2461 5.85157 24.2305 5.76581 24.1521 5.68005C24.0111 5.59428 23.8858 5.63716 23.7604 5.76581C23.6978 5.85157 23.6664 5.93734 23.6821 6.10886C23.6978 6.23751 23.7291 6.36616 23.7918 6.40904C23.9014 6.4948 24.0111 6.45192 24.1051 6.32327C24.1678 6.28039 24.1991 6.15175 24.2148 6.0231ZM11.774 77.3356C11.774 77.3356 11.8366 77.3356 11.8836 77.3356C11.9463 77.2928 12.056 77.2928 11.915 77.0783C11.8993 77.0355 11.868 77.0355 11.8366 77.0355C11.6956 76.9926 11.5703 76.9068 11.4293 76.7782C11.4136 76.7782 11.3822 76.7782 11.3666 76.8211C11.3509 76.8639 11.3196 76.9068 11.3196 76.9926C11.3196 77.0783 11.3196 77.1641 11.3352 77.207C11.4449 77.4214 11.5859 77.3356 11.774 77.3356ZM7.26141 78.279C7.30841 78.279 7.37109 78.279 7.4181 78.2362C7.4651 78.1933 7.49644 78.0646 7.51211 77.936C7.52778 77.7645 7.51211 77.6787 7.44943 77.55C7.33975 77.3785 7.24574 77.3785 7.15173 77.55C7.08906 77.6358 7.07339 77.7645 7.08906 77.8931C7.10472 78.0218 7.12039 78.1504 7.18307 78.2362C7.19874 78.279 7.23007 78.279 7.26141 78.279ZM74.6206 77.4643C74.558 77.4643 74.5109 77.4643 74.4483 77.5072C74.4169 77.5072 74.4013 77.55 74.3699 77.5929C74.3073 77.6358 74.2916 77.7645 74.3386 77.936C74.4169 78.2362 74.5736 78.3219 74.7146 78.1504C74.7616 78.0646 74.793 77.936 74.8086 77.7645C74.8243 77.5929 74.7303 77.4643 74.6206 77.4643ZM69.8104 80.5518C70.0767 80.5518 70.1864 80.5518 70.2961 80.5518C70.3588 80.5518 70.4058 80.4231 70.3744 80.3374C70.3588 80.2945 70.3274 80.2516 70.3118 80.2516C70.0924 80.2516 69.873 80.2945 69.6537 80.2945C69.6224 80.2945 69.6067 80.3802 69.591 80.4231C69.6067 80.466 69.6224 80.5089 69.6537 80.5518C69.7477 80.6375 69.8574 80.5947 69.8104 80.5518ZM22.5226 84.3254C22.4599 84.3254 22.4129 84.3254 22.3503 84.3683C22.3189 84.3683 22.2876 84.4111 22.2719 84.4111C22.2406 84.454 22.2092 84.4969 22.2092 84.5398C22.2092 84.7113 22.2562 84.7971 22.3032 84.84C22.4129 84.9257 22.4913 85.1401 22.6166 85.0973C22.6636 85.0973 22.7106 84.9686 22.7263 84.84C22.742 84.6684 22.7263 84.5398 22.6636 84.454C22.6323 84.4111 22.5696 84.3683 22.5226 84.3254ZM36.3893 85.7405C36.3266 85.7405 36.2796 85.7834 36.2483 85.912C36.2483 85.9549 36.2639 86.0407 36.2796 86.0835C36.405 86.3408 36.5303 86.5981 36.6713 86.8554C36.734 86.9841 36.7653 86.9412 36.7967 86.7696C36.8124 86.7268 36.8124 86.641 36.8124 86.5552C36.7653 86.0835 36.593 85.7405 36.3893 85.7405ZM71.2832 13.4417C71.4712 13.4417 71.5496 13.4417 71.6279 13.4417C71.7063 13.4417 71.7376 13.313 71.7219 13.2273C71.7063 13.1844 71.6749 13.0986 71.6593 13.0986C71.5182 13.0986 71.3772 13.0986 71.2362 13.0986C71.1579 13.0986 71.1265 13.2273 71.1422 13.2701C71.1579 13.313 71.1892 13.3559 71.2049 13.3559C71.2675 13.4417 71.3302 13.4417 71.2832 13.4417ZM75.4197 77.8073C75.5451 77.8073 75.5921 77.8073 75.6547 77.8073C75.6861 77.8073 75.7174 77.8073 75.7331 77.7645C75.7644 77.7216 75.7801 77.6787 75.7958 77.6358C75.7958 77.6358 75.7801 77.55 75.7644 77.5072C75.5921 77.3785 75.4354 77.3356 75.216 77.5072C75.2004 77.5072 75.1847 77.5929 75.169 77.6358C75.1847 77.6787 75.216 77.7645 75.2317 77.7645C75.3257 77.8073 75.4041 77.8073 75.4197 77.8073ZM76.0778 80.6375C76.2345 80.6375 76.2815 80.6375 76.3285 80.6375C76.3598 80.6375 76.3755 80.6375 76.4068 80.5947C76.4382 80.5518 76.4538 80.5089 76.4695 80.466C76.4695 80.466 76.4538 80.3802 76.4382 80.3374C76.2502 80.1658 76.0778 80.1658 75.8898 80.3374C75.8741 80.3374 75.8584 80.4231 75.8584 80.466C75.8741 80.5089 75.9054 80.5947 75.9211 80.5947C76.0151 80.6375 76.0935 80.6375 76.0778 80.6375ZM26.5338 81.0664C26.6748 81.0664 26.7531 81.0664 26.8315 81.0664C26.8471 81.0664 26.8785 80.9806 26.8941 80.9377C26.9098 80.8519 26.8628 80.7233 26.8001 80.7233C26.6434 80.6804 26.4868 80.6804 26.3301 80.8091C26.3144 80.8091 26.2987 80.8948 26.2831 80.9377C26.2987 80.9806 26.3301 81.0235 26.3457 81.0664C26.4398 81.0664 26.5181 81.0664 26.5338 81.0664ZM78.9922 82.3957C79.1488 82.4386 79.2742 82.3528 79.3682 82.0098C79.3839 81.9669 79.3995 81.8811 79.3995 81.8382C79.3682 81.6667 79.3212 81.6238 79.2585 81.6667C79.1645 81.7953 79.0548 81.924 78.9608 82.0526C78.8981 82.1384 78.8825 82.2671 78.9295 82.3528C78.9608 82.3957 78.9922 82.3957 78.9922 82.3957ZM13.7169 74.6341C13.7795 74.6341 13.8892 74.5912 13.9989 74.5483C14.0302 74.5483 14.0616 74.4626 14.0616 74.4197C14.0459 74.291 14.0146 74.2481 13.9519 74.2053C13.8109 74.1624 13.6855 74.1624 13.5445 74.2481C13.4818 74.291 13.4348 74.3768 13.4505 74.4626C13.4505 74.5054 13.4975 74.5483 13.5132 74.5912C13.5602 74.5912 13.6229 74.5912 13.7169 74.6341ZM30.6389 83.9823C30.5763 83.7679 30.4979 83.5106 30.4196 83.2962C30.3726 83.1676 30.3256 83.1676 30.2786 83.2533C30.2472 83.382 30.2472 83.5106 30.2629 83.6822C30.3099 83.9823 30.4039 84.1539 30.5136 84.1967C30.5449 84.1967 30.5606 84.1967 30.5919 84.1539C30.6233 84.111 30.6389 84.0681 30.6389 83.9823ZM59.8452 77.4214C59.8922 77.4214 59.9548 77.4214 60.0018 77.3785C60.0332 77.3785 60.0645 77.2928 60.0645 77.2499C60.0645 77.1641 60.0332 77.0355 59.9705 77.0355C59.8922 76.9926 59.8138 77.0355 59.7355 77.0355C59.6728 77.0355 59.6101 77.1641 59.6258 77.2499C59.6415 77.3785 59.7041 77.4214 59.7668 77.4214C59.7981 77.4214 59.8138 77.4214 59.8452 77.4214ZM11.5389 80.4231C11.5546 80.3802 11.5859 80.2945 11.5859 80.2516C11.5859 80.1658 11.5859 80.0801 11.5703 80.0372C11.4919 79.7799 11.2412 79.737 11.1942 79.9514C11.1942 79.9943 11.2099 80.0801 11.2256 80.123C11.3352 80.2516 11.4293 80.4231 11.5389 80.4231ZM41.9986 84.7542C42.0143 84.7542 42.0457 84.7542 42.0613 84.7113C42.0927 84.6684 42.124 84.6684 42.124 84.5827C42.124 84.4969 42.0927 84.3683 42.03 84.3683C41.9516 84.3683 41.8733 84.3683 41.795 84.3683C41.7323 84.3683 41.6696 84.4969 41.6853 84.5398C41.7009 84.6684 41.7636 84.7113 41.8263 84.7113C41.8733 84.7542 41.936 84.7542 41.9986 84.7542ZM3.78299 6.53768C3.78299 6.36616 3.75165 6.28039 3.68897 6.23751C3.6263 6.19463 3.57929 6.28039 3.54796 6.40904C3.50095 6.62345 3.59496 6.88074 3.67331 6.83786C3.73598 6.79497 3.76732 6.70921 3.78299 6.53768ZM75.7018 25.5343C75.7018 25.4057 75.6704 25.2771 75.6234 25.2342C75.5451 25.1484 75.4511 25.3628 75.4667 25.5772C75.4824 25.7059 75.4981 25.8345 75.5451 25.8774C75.6234 25.9632 75.7018 25.7488 75.7018 25.5343ZM24.8886 84.6256C24.8729 84.5827 24.8729 84.4969 24.8572 84.454C24.7946 84.3254 24.7005 84.3254 24.6222 84.3683C24.6065 84.3683 24.5595 84.454 24.5595 84.4969C24.5595 84.6255 24.5909 84.7113 24.6535 84.7542C24.7946 84.84 24.8729 84.7542 24.8886 84.6256ZM69.2463 84.111C69.262 84.0681 69.2933 83.9823 69.2933 83.9394C69.309 83.7679 69.2776 83.6393 69.2306 83.5535C69.1836 83.4678 69.1366 83.4678 69.0896 83.5535C69.0583 83.6393 69.0583 83.7679 69.1053 83.8966C69.1523 84.0681 69.1836 84.111 69.2463 84.111ZM54.3768 83.8966C54.4238 83.8966 54.4708 83.8108 54.5178 83.725C54.4865 83.5964 54.4395 83.5106 54.3925 83.5106C54.2828 83.4677 54.1731 83.5535 54.1888 83.6822C54.1731 83.7679 54.2828 83.8966 54.3768 83.8966ZM76.1248 82.0526C76.1248 82.0955 76.1248 82.1813 76.1405 82.2242C76.1718 82.3528 76.2188 82.3957 76.2658 82.3957C76.2815 82.3957 76.3128 82.3528 76.3285 82.2671C76.3598 82.1384 76.2972 81.924 76.2032 81.8382C76.1718 81.7953 76.1405 81.8811 76.1248 82.0526ZM14.0459 81.2808C13.9832 81.1092 13.9049 81.1092 13.8265 81.195C13.7325 81.2808 13.7325 81.3665 13.8109 81.4523C13.8892 81.5381 13.9676 81.5381 14.0302 81.4094C14.0459 81.4094 14.0616 81.3237 14.0459 81.2808ZM73.6335 80.8519C73.6178 80.8091 73.6022 80.7233 73.5708 80.7233C73.5082 80.6804 73.4612 80.7662 73.4298 80.8948C73.3985 81.0235 73.3985 81.1521 73.4298 81.2808C73.4612 81.3665 73.5082 81.3665 73.5552 81.2379C73.6178 81.1092 73.6335 80.9806 73.6335 80.8519ZM25.4056 81.0664C25.4683 81.1092 25.5153 81.0664 25.5466 80.9377C25.5153 80.8091 25.4683 80.7662 25.4213 80.7662C25.3116 80.7662 25.2176 80.8519 25.2646 80.9377C25.3116 81.0235 25.3586 81.0664 25.4056 81.0664ZM78.8981 80.6375C78.9608 80.6375 79.0078 80.5947 79.0392 80.466C79.0235 80.3374 78.9765 80.2516 78.9138 80.2516C78.8041 80.2516 78.7101 80.3802 78.7415 80.466C78.7885 80.5947 78.8355 80.6375 78.8981 80.6375ZM14.798 74.6341C14.798 74.5054 14.7823 74.3768 14.7197 74.3339C14.6726 74.2481 14.61 74.291 14.5786 74.4197C14.563 74.5483 14.5943 74.677 14.6256 74.7627C14.6726 74.8914 14.7197 74.8914 14.751 74.8056C14.7823 74.7627 14.798 74.677 14.798 74.6341ZM75.1377 25.2771C75.1064 25.1484 75.0437 25.1055 74.9967 25.1055C74.934 25.1055 74.887 25.1484 74.8557 25.2771C74.8557 25.2771 74.8713 25.4057 74.887 25.4057C74.9653 25.4915 75.0437 25.5343 75.122 25.4057C75.122 25.4057 75.122 25.3199 75.1377 25.2771ZM43.9729 10.9116C43.9102 10.7401 43.7222 10.783 43.6908 10.9545C43.6908 10.9974 43.7222 11.0832 43.7379 11.126C43.8162 11.2118 43.8945 11.1689 43.9572 11.0403C43.9729 10.9974 43.9729 10.9545 43.9729 10.9116ZM66.5043 8.8533C66.52 8.76754 66.5356 8.68178 66.5356 8.63889C66.5043 8.46737 66.4573 8.42448 66.3946 8.51025C66.332 8.59601 66.3006 8.72466 66.3163 8.89619C66.3163 8.98195 66.3476 9.06771 66.3633 9.06771C66.4103 9.11059 66.473 9.02483 66.5043 8.8533ZM18.3548 5.0797C18.3861 5.0797 18.4018 5.0797 18.4331 5.03682C18.4958 4.99394 18.5114 4.86529 18.5114 4.69376C18.5114 4.65088 18.4958 4.56512 18.4801 4.52224C18.4331 4.43647 18.4018 4.47935 18.3548 4.608C18.3078 4.73664 18.2921 4.82241 18.3078 4.95105C18.3078 5.03682 18.3391 5.03682 18.3548 5.0797ZM28.649 85.569C28.6804 85.6547 28.7274 85.6976 28.79 85.6976C28.8527 85.6976 28.8997 85.6547 28.9311 85.569C28.9311 85.569 28.9154 85.4832 28.8997 85.4403C28.8214 85.3545 28.743 85.3545 28.6804 85.4403C28.6647 85.4832 28.6647 85.5261 28.649 85.569ZM9.21998 4.30783C9.20431 4.35071 9.15731 4.43647 9.15731 4.47935C9.17298 4.65088 9.23565 4.69376 9.28266 4.65088C9.29832 4.608 9.34533 4.52224 9.32966 4.52224C9.32966 4.30783 9.26699 4.26494 9.21998 4.30783ZM10.1288 4.608C10.1444 4.56512 10.1758 4.52223 10.1914 4.47935C10.1758 4.43647 10.1601 4.35071 10.1444 4.35071C10.0974 4.30783 10.0504 4.35071 10.0191 4.47935C10.0191 4.47935 10.0504 4.608 10.0661 4.608C10.0661 4.608 10.0974 4.608 10.1288 4.608ZM24.9356 5.80869C24.9356 5.85157 24.9356 5.93734 24.9512 5.93734C24.9669 5.98022 24.9982 5.98022 25.0296 5.98022C25.0923 5.89445 25.0923 5.80869 25.0139 5.76581C24.9826 5.72293 24.9512 5.76581 24.9356 5.80869ZM4.59775 6.36616C4.58208 6.32327 4.56641 6.23751 4.55075 6.23751C4.50374 6.19463 4.45673 6.23751 4.4254 6.36616C4.4254 6.36616 4.45673 6.4948 4.4724 6.4948C4.51941 6.53768 4.56641 6.4948 4.59775 6.36616ZM2.34148 49.0336C2.35714 48.9907 2.38848 48.9478 2.40415 48.9478C2.38848 48.905 2.37281 48.8621 2.35714 48.8192C2.34148 48.7763 2.31014 48.7763 2.29447 48.8192C2.2788 48.8192 2.2318 48.905 2.2318 48.905C2.24746 49.0336 2.29447 49.0765 2.34148 49.0336ZM85.573 59.2395C85.5886 59.1966 85.62 59.1537 85.6356 59.1537C85.62 59.1108 85.6043 59.0251 85.573 59.0251C85.4946 58.9822 85.4633 59.068 85.4946 59.1966C85.526 59.2395 85.5573 59.2395 85.573 59.2395ZM19.6239 75.749C19.5769 75.6632 19.5299 75.7061 19.4986 75.749C19.5142 75.7919 19.5299 75.8348 19.5612 75.8348C19.5769 75.8348 19.6082 75.8348 19.6239 75.7919C19.6239 75.8348 19.6239 75.7919 19.6239 75.749ZM10.2854 77.8073C10.3011 77.7645 10.3325 77.7216 10.3481 77.6787C10.3325 77.6358 10.3168 77.55 10.2854 77.55C10.2071 77.5072 10.1758 77.5929 10.2071 77.7216C10.2228 77.8073 10.2698 77.8073 10.2854 77.8073ZM71.2519 81.2808C71.2205 81.2379 71.2049 81.195 71.1735 81.2379C71.1422 81.2379 71.1265 81.3237 71.1109 81.3665C71.1265 81.4094 71.1422 81.4952 71.1735 81.4952C71.1892 81.4952 71.2205 81.4952 71.2519 81.4523C71.2519 81.4094 71.2519 81.3237 71.2519 81.2808ZM32.0178 82.3099C32.0021 82.267 31.9864 82.1813 31.9708 82.1813C31.9238 82.1384 31.8767 82.1813 31.8297 82.2671C31.8454 82.3099 31.8611 82.3957 31.8767 82.3957C31.9394 82.4815 31.9864 82.4386 32.0178 82.3099ZM34.0233 84.5398C34.0077 84.5398 33.9763 84.4969 33.9607 84.4969C33.945 84.4969 33.9137 84.5398 33.898 84.5827C33.9137 84.6255 33.9293 84.6684 33.9607 84.7113C33.9763 84.7113 34.0077 84.7113 34.039 84.6684C34.0233 84.6684 34.0077 84.5827 34.0233 84.5398ZM72.4584 77.1212L72.427 77.207H72.474L72.4584 77.1212ZM73.1321 80.0372L73.1635 79.9086H73.1164L73.1321 80.0372ZM19.4829 84.4969L19.4516 84.5827H19.4986L19.4829 84.4969Z" fill="#00659E"/>
<path d="M48.0624 86.6431C48.3444 86.6859 48.6107 86.7288 48.8613 87.1573C48.877 87.2001 48.9083 87.2858 48.9083 87.3287C48.9083 87.4572 48.877 87.5429 48.8143 87.5857C48.6734 87.6714 48.548 87.8 48.4227 87.9714C48.2504 88.2285 48.0781 88.357 47.8744 88.1856C47.6551 88.0142 47.4358 88.0999 47.2165 88.0571C47.1382 88.0571 47.0599 88.0142 46.9659 87.9285C46.9032 87.8857 46.8719 87.7571 46.8562 87.6286C46.8406 87.4572 46.8562 87.3286 46.9189 87.2858C46.9659 87.243 47.0129 87.1573 47.0755 87.1573C47.2165 87.1144 47.3418 87.0716 47.4828 86.9002C47.6708 86.6859 47.8588 86.7288 48.0624 86.6431Z" fill="#00659E"/>
<path d="M3.10999 0.622141C3.09432 0.750673 3.07865 0.922049 3.04731 1.00774C2.95331 1.30765 2.82796 1.43618 2.67129 1.39333C2.54594 1.35049 2.4676 1.17911 2.4206 0.879205C2.38926 0.750673 2.40493 0.579297 2.45194 0.450765C2.57728 0.108013 2.73396 -0.0633636 2.9063 0.0223245C2.98464 0.0651686 3.06298 0.193701 3.10999 0.365077C3.10999 0.407921 3.10999 0.536453 3.10999 0.622141Z" fill="#00659E"/>
<path d="M28.7907 5.8501C28.6966 5.7643 28.634 5.63562 28.6026 5.42113C28.5556 5.20665 28.5713 4.99217 28.6496 4.86348C28.7436 4.69189 28.8533 4.649 28.9473 4.73479C28.9787 4.73479 28.9944 4.77769 29.0257 4.82058C29.0884 4.90638 29.1511 5.24955 29.1197 5.37824C29.0884 5.50693 29.0414 5.59272 28.9944 5.63562C28.916 5.72141 28.8533 5.8072 28.7907 5.8501Z" fill="#00659E"/>
<path d="M60.0186 9.83936C60.0812 9.49728 60.1282 9.1552 60.1908 8.85589C60.2221 8.68485 60.269 8.64209 60.316 8.64209C60.3942 8.68485 60.4725 8.98417 60.4568 9.11244C60.4568 9.19796 60.4412 9.24072 60.4255 9.32624C60.3629 9.5828 60.269 9.75384 60.1595 9.75384C60.1125 9.75384 60.0499 9.75384 60.0029 9.7966L60.0186 9.83936Z" fill="#00659E"/>
<path d="M79.9326 42.2584C79.8856 42.3013 79.8229 42.3872 79.7759 42.3872C79.7603 42.3872 79.7289 42.3443 79.7132 42.3013C79.6819 42.1725 79.6819 42.0437 79.7289 41.9578C79.8229 41.7861 79.9326 41.829 80.0423 41.829C80.105 41.829 80.152 41.8719 80.199 41.9578C80.1833 42.0866 80.1363 42.1296 80.0893 42.1725C80.0423 42.2154 79.9953 42.2584 79.9326 42.2584Z" fill="#00659E"/>
<path d="M75.1988 18.5898C75.2459 18.5898 75.3085 18.5898 75.3555 18.6325C75.4182 18.6325 75.4652 18.7177 75.4652 18.8456C75.4652 19.0161 75.4182 19.1014 75.3555 19.144C75.3085 19.1867 75.2615 19.2719 75.1988 19.3145C75.1362 19.3572 75.0422 19.2719 74.9952 19.0588C74.9795 19.0161 74.9795 18.8882 74.9795 18.8456C74.9952 18.7177 75.0422 18.6751 75.1048 18.6325C75.1362 18.5898 75.1675 18.5898 75.1988 18.5898Z" fill="#00659E"/>
<path d="M86.9993 48.9054C86.9836 48.9477 86.9836 49.0323 86.9679 49.0323C86.8894 49.1168 86.811 49.1168 86.7326 49.0323C86.7169 49.0323 86.7012 48.9054 86.7012 48.9054C86.7325 48.7786 86.7953 48.7363 86.8424 48.7363C86.9051 48.7363 86.9522 48.7786 86.9993 48.9054Z" fill="#00659E"/>
<path d="M53.6715 8.63892C53.6871 8.80981 53.6245 9.02344 53.5462 9.10889C53.5305 9.10889 53.4992 9.10889 53.4835 9.06616C53.4365 8.93799 53.4365 8.80981 53.4835 8.68164C53.5148 8.55347 53.5618 8.51074 53.6245 8.51074C53.6245 8.51074 53.6558 8.59619 53.6715 8.63892Z" fill="#00659E"/>
<path d="M38.2524 6.75087C38.2367 6.79381 38.2367 6.87968 38.2211 6.92261C38.1428 7.05142 38.0646 7.00848 37.9864 6.92261C37.9707 6.87968 37.9551 6.79381 37.9551 6.79381C37.9864 6.66501 38.049 6.62207 38.0959 6.62207C38.1585 6.62207 38.2054 6.66501 38.2524 6.75087Z" fill="#00659E"/>
<path d="M5.11383 0.962402C5.05115 0.962402 5.00413 0.962402 4.97278 0.8339C4.94144 0.705398 5.0198 0.576896 5.12951 0.61973C5.19219 0.61973 5.22354 0.705398 5.25488 0.8339C5.20787 0.919568 5.16085 0.962402 5.11383 0.962402Z" fill="#00659E"/>
<path d="M28.0687 5.25109C28.0844 5.29434 28.1157 5.38086 28.1157 5.38086C28.1001 5.51063 28.053 5.55389 27.9904 5.51063C27.9747 5.51063 27.9434 5.38086 27.9434 5.38086C27.9747 5.25109 28.0217 5.20783 28.0687 5.25109Z" fill="#00659E"/>
<path d="M32.0332 5.80868C32.0645 5.76567 32.0802 5.72266 32.1115 5.72266C32.1899 5.76567 32.2055 5.8947 32.1272 5.98072C32.1115 6.02373 32.0645 5.98072 32.0489 5.93771C32.0332 5.93771 32.0332 5.85169 32.0332 5.80868Z" fill="#00659E"/>
<path d="M41.0275 6.49326C40.9962 6.40717 40.9648 6.36412 40.9648 6.32107C40.9962 6.19192 41.0432 6.14888 41.0902 6.19192C41.1059 6.23497 41.1529 6.32107 41.1372 6.32107C41.1216 6.49326 41.0745 6.53631 41.0275 6.49326Z" fill="#00659E"/>
<path d="M44.2707 7.56641C44.2863 7.56641 44.3333 7.60915 44.3333 7.65189C44.349 7.78012 44.302 7.86561 44.2393 7.82287C44.2237 7.82287 44.208 7.73738 44.208 7.69464C44.2393 7.65189 44.255 7.56641 44.2707 7.56641Z" fill="#00659E"/>
<path d="M54.9556 9.2373C54.9242 9.19503 54.8929 9.19503 54.8929 9.15275C54.8615 9.02593 54.8929 8.94138 54.9712 8.98365C54.9869 8.98365 55.0026 9.0682 55.0339 9.11048C55.0026 9.15275 54.9712 9.19503 54.9556 9.2373Z" fill="#00659E"/>
<path d="M61.3025 9.11116C61.2712 9.24026 61.2242 9.32632 61.1615 9.24026C61.1458 9.19723 61.0988 9.11116 61.1145 9.06813C61.1458 8.896 61.1928 8.85296 61.2555 8.93903C61.2712 8.98206 61.2868 9.06813 61.3025 9.11116Z" fill="#00659E"/>
<path d="M72.9902 9.02569C73.0059 9.02569 73.0372 8.93977 73.0529 8.98273C73.1312 9.02569 73.1312 9.11162 73.0685 9.19754C73.0529 9.2405 73.0216 9.19754 72.9902 9.15458C72.9902 9.15458 72.9902 9.11162 72.9902 9.02569Z" fill="#00659E"/>
<path d="M53.8595 10.1827C53.8438 10.1398 53.8125 10.054 53.8125 10.011C53.8282 9.83936 53.8909 9.79643 53.9379 9.88228C53.9535 9.9252 54.0006 10.011 53.9849 10.054C53.9849 10.1827 53.9222 10.2686 53.8595 10.1827Z" fill="#00659E"/>
<path d="M73.9771 11.8979C73.9458 12.0264 73.8987 12.0692 73.8517 12.0264C73.836 11.9836 73.8047 11.8979 73.8047 11.8979C73.836 11.7695 73.8831 11.7267 73.9301 11.7695C73.9614 11.7695 73.9614 11.8123 73.9771 11.8979Z" fill="#00659E"/>
<path d="M0.962219 16.2757C0.915341 16.1894 0.868463 16.103 0.837211 16.0167C0.805958 15.8872 0.805958 15.7577 0.852837 15.6714C0.868463 15.6714 0.899715 15.6714 0.899715 15.7146C0.930967 15.7577 0.930967 15.8009 0.946593 15.8872C0.946593 16.0167 0.946593 16.1894 0.946593 16.3188L0.962219 16.2757Z" fill="#00659E"/>
<path d="M76.688 21.1189C76.6566 21.2472 76.6096 21.2899 76.5626 21.2472C76.547 21.2044 76.5156 21.1189 76.5156 21.1189C76.547 20.9906 76.594 20.9479 76.641 20.9906C76.6567 21.0334 76.6723 21.0761 76.688 21.1189Z" fill="#00659E"/>
<path d="M77.1595 26.1771C77.1595 26.2208 77.1595 26.3083 77.1595 26.3083C77.1437 26.352 77.1122 26.3521 77.0806 26.3521C77.0649 26.3521 77.0333 26.2646 77.0176 26.2208C77.0333 26.1771 77.0649 26.1334 77.0806 26.1334C77.1122 26.0896 77.1437 26.1334 77.1595 26.1771Z" fill="#00659E"/>
<path d="M86.3252 48.9478C86.2938 49.0767 86.2466 49.1627 86.1995 49.0767C86.1838 49.0337 86.1523 48.9478 86.1523 48.9478C86.1838 48.7759 86.2309 48.7329 86.278 48.8189C86.2938 48.8189 86.3095 48.9048 86.3252 48.9478Z" fill="#00659E"/>
<path d="M82.7524 79.437C82.7524 79.48 82.7524 79.5659 82.7524 79.5659C82.7367 79.6089 82.7054 79.6089 82.674 79.6089C82.6583 79.6089 82.6427 79.5229 82.6113 79.48C82.627 79.437 82.6583 79.394 82.674 79.394C82.7054 79.394 82.721 79.437 82.7524 79.437Z" fill="#00659E"/>
<path d="M30.0735 5.59375C30.0116 5.55137 29.9961 5.50898 29.9961 5.38184C30.0116 5.38184 30.0271 5.42422 30.0425 5.42422C30.058 5.4666 30.058 5.55137 30.058 5.59375H30.0735Z" fill="#00659E"/>
<path d="M33.7882 5.63623C33.804 5.46436 33.8197 5.42139 33.8669 5.42139C33.8512 5.46436 33.8512 5.50732 33.8354 5.55029C33.8197 5.59326 33.7882 5.59326 33.7725 5.59326L33.7882 5.63623Z" fill="#00659E"/>
<path d="M30.0596 5.63664C30.1379 5.63664 30.1536 5.72144 30.1536 5.84863C30.1379 5.84863 30.1066 5.80623 30.1066 5.80623C30.0909 5.76383 30.0909 5.67904 30.0752 5.59424L30.0596 5.63664Z" fill="#00659E"/>
<path d="M33.7733 5.59424C33.7733 5.72241 33.7577 5.85059 33.7109 5.93604C33.7109 5.93604 33.6797 5.85059 33.6641 5.80786C33.6953 5.72241 33.7421 5.63696 33.7889 5.63696L33.7733 5.59424Z" fill="#00659E"/>
<path d="M39.3812 7.01064C39.3185 6.96709 39.2871 6.92354 39.2871 6.83643C39.3028 6.83643 39.3342 6.83643 39.3342 6.87998C39.3499 6.92354 39.3499 7.01064 39.3655 7.0542L39.3812 7.01064Z" fill="#00659E"/>
<path d="M85.5723 45.4756C85.5723 45.3028 85.6032 45.2163 85.6497 45.2595C85.6497 45.3028 85.6342 45.346 85.6342 45.3892C85.6187 45.4324 85.5878 45.4324 85.5723 45.4324V45.4756Z" fill="#00659E"/>
<path d="M85.5568 45.4341C85.5411 45.6047 85.5255 45.69 85.4785 45.6473C85.4785 45.6047 85.4942 45.562 85.5098 45.5194C85.5255 45.4767 85.5568 45.4767 85.5724 45.4341H85.5568Z" fill="#00659E"/>
<path d="M71.6902 78.7991C71.7529 78.8419 71.7842 78.9274 71.8155 79.0557C71.8468 79.2695 71.8312 79.4833 71.7529 79.6115C71.7372 79.6543 71.7059 79.6543 71.6745 79.6543C71.6119 79.6115 71.5806 79.4833 71.6119 79.355C71.6432 79.1412 71.6745 78.9701 71.7215 78.7563L71.6902 78.7991Z" fill="#00659E"/>
<path d="M71.001 79.7391C71.0794 79.6962 71.1579 79.6962 71.2207 79.7819C71.2364 79.8247 71.2678 79.9104 71.2678 79.9104C71.2521 80.0817 71.205 80.1246 71.1422 80.0817C71.0794 80.0817 71.0638 80.0389 71.001 79.7391Z" fill="#00659E"/>
<path d="M72.5349 79.6968C72.5349 79.8683 72.5042 79.9541 72.458 79.9541C72.458 79.9112 72.458 79.8254 72.4734 79.8254C72.4888 79.7826 72.5195 79.7826 72.5349 79.6968Z" fill="#00659E"/>
<g clip-path="url(#clip0)">
<path d="M36 42.2495H37.25V43.4995H36V42.2495Z" fill="white"/>
<path d="M31 42.2495H32.25V43.4995H31V42.2495Z" fill="white"/>
<path d="M44.125 50.3745H45.375V51.6245H44.125V50.3745Z" fill="white"/>
<path d="M49.125 50.3745H50.375V51.6245H49.125V50.3745Z" fill="white"/>
<path d="M51.625 55.9995V54.7495H52.875C53.0408 54.7495 53.1997 54.6837 53.3169 54.5665C53.4342 54.4492 53.5 54.2903 53.5 54.1245V45.3745C53.5 45.2088 53.4342 45.0498 53.3169 44.9326C53.1997 44.8154 53.0408 44.7495 52.875 44.7495H49.8874L50.3629 42.3721C50.381 42.2814 50.3788 42.1878 50.3564 42.0981C50.334 42.0084 50.292 41.9248 50.2334 41.8533C50.1747 41.7817 50.101 41.7241 50.0174 41.6846C49.9338 41.645 49.8425 41.6245 49.75 41.6245H49.2624L49.7379 39.2471L48.5121 39.0019L47.9877 41.6245H46.5123L45.9879 39.0019L44.7621 39.2471L45.2376 41.6245H44.75C44.6575 41.6245 44.5662 41.645 44.4826 41.6846C44.399 41.7241 44.3253 41.7817 44.2666 41.8533C44.208 41.9248 44.166 42.0084 44.1436 42.0981C44.1212 42.1878 44.119 42.2814 44.1371 42.3721L44.6126 44.7495H42.25V31.6245C42.25 31.4588 42.1842 31.2998 42.0669 31.1826C41.9497 31.0654 41.7908 30.9995 41.625 30.9995H26.625C26.4592 30.9995 26.3003 31.0654 26.1831 31.1826C26.0658 31.2998 26 31.4588 26 31.6245V54.1245C26 54.2903 26.0658 54.4492 26.1831 54.5665C26.3003 54.6837 26.4592 54.7495 26.625 54.7495H28.5V55.9995H29.75V54.7495H38.5V55.9995H39.75V54.7495H43.5V55.9995H44.75V54.7495H50.375V55.9995H51.625ZM27.25 32.2495H33.5V53.4995H27.25V32.2495ZM41 53.4995H34.75V32.2495H41V53.4995ZM47.875 53.4995V48.4995H52.25V53.4995H47.875ZM46.625 53.4995H42.25V48.4995H46.625V53.4995ZM45.5124 42.8745H48.9876L48.6126 44.7495H45.8874L45.5124 42.8745ZM52.25 45.9995V47.2495H42.25V45.9995H52.25Z" fill="white"/>
<path d="M53.5 31.6245C53.5 31.4588 53.4342 31.2998 53.3169 31.1826C53.1997 31.0654 53.0408 30.9995 52.875 30.9995H44.75C44.5842 30.9995 44.4253 31.0654 44.3081 31.1826C44.1908 31.2998 44.125 31.4588 44.125 31.6245V36.6245C44.125 36.7903 44.1908 36.9492 44.3081 37.0665C44.4253 37.1837 44.5842 37.2495 44.75 37.2495H52.875C53.0408 37.2495 53.1997 37.1837 53.3169 37.0665C53.4342 36.9492 53.5 36.7903 53.5 36.6245V31.6245ZM52.25 35.9995H45.375V32.2495H52.25V35.9995Z" fill="white"/>
<path d="M56 63.4995H29.125V58.4995C29.125 58.3338 29.0592 58.1748 28.9419 58.0576C28.8247 57.9404 28.6658 57.8745 28.5 57.8745H23.5V28.4995H56V55.3745H57.25V27.8745C57.25 27.7088 57.1842 27.5498 57.0669 27.4326C56.9497 27.3154 56.7908 27.2495 56.625 27.2495H22.875C22.7092 27.2495 22.5503 27.3154 22.4331 27.4326C22.3158 27.5498 22.25 27.7088 22.25 27.8745V58.4995C22.25 58.5816 22.2662 58.6629 22.2976 58.7387C22.329 58.8145 22.375 58.8834 22.433 58.9415L28.058 64.5665C28.1161 64.6245 28.185 64.6705 28.2608 64.7019C28.3366 64.7334 28.4179 64.7495 28.5 64.7495H56.625C56.7908 64.7495 56.9497 64.6837 57.0669 64.5665C57.1842 64.4492 57.25 64.2903 57.25 64.1245V61.6245H56V63.4995ZM27.875 62.6157L24.3838 59.1245H27.875V62.6157Z" fill="white"/>
<path d="M59.7315 58.4051C59.7191 58.1592 59.6583 57.9182 59.5527 57.6957C59.4471 57.4733 59.2987 57.2739 59.116 57.1088C58.9333 56.9437 58.7199 56.8162 58.4879 56.7336C58.2559 56.651 58.01 56.6149 57.764 56.6274L32.7961 57.8926C32.6306 57.901 32.4752 57.9748 32.364 58.0977L31.1789 59.4094C31.1238 59.4703 31.0813 59.5415 31.0538 59.6188C31.0263 59.6961 31.0142 59.7781 31.0184 59.8601C31.0225 59.9421 31.0428 60.0224 31.078 60.0966C31.1132 60.1707 31.1627 60.2372 31.2236 60.2922L32.5352 61.4773C32.6501 61.5811 32.7994 61.6386 32.9543 61.6386C32.9647 61.6386 32.9753 61.6386 32.9859 61.6378L57.9539 60.3726C58.4505 60.3475 58.9168 60.126 59.2502 59.757C59.5836 59.3881 59.7567 58.9018 59.7315 58.4051ZM32.5253 59.7837L33.1179 59.1279L34.7319 59.0461L34.7952 60.2944L33.1812 60.3762L32.5253 59.7837ZM58.3226 58.919C58.2678 58.9801 58.2013 59.0297 58.1271 59.0649C58.053 59.1001 57.9725 59.1203 57.8905 59.1242L36.0437 60.2312L35.9804 58.9828L57.8274 57.8758C57.9508 57.8696 58.0734 57.9001 58.1795 57.9635C58.2856 58.0269 58.3705 58.1204 58.4235 58.232C58.4765 58.3437 58.4952 58.4685 58.4773 58.5908C58.4593 58.7131 58.4055 58.8273 58.3226 58.919Z" fill="white"/>
</g>
<defs>
<clipPath id="clip0">
<rect width="40" height="40" fill="white" transform="translate(20.999 25.9995)"/>
</clipPath>
</defs>
</svg>
