<svg width="105" height="89" viewBox="0 0 105 89" fill="none" xmlns="http://www.w3.org/2000/svg">
<path d="M6.48214 52.4704C6.42535 52.3845 6.36857 52.2987 6.29285 52.2558C6.23607 52.2128 6.16035 52.1699 6.10357 52.2128C5.91428 52.3845 5.70606 52.4274 5.49784 52.4274C5.25177 52.4274 5.02462 52.4274 4.77855 52.4704C4.53247 52.5133 4.30533 52.4274 4.05925 52.4274C3.88889 52.4274 3.71853 52.3416 3.5671 52.1699C3.4346 52.0412 3.3021 52.0841 3.1696 52.2128C3.09388 52.2558 3.0371 52.2558 2.98031 52.2128C2.84781 52.0841 2.73424 51.9982 2.58281 51.9982C2.4503 51.9982 2.3178 51.9553 2.1853 51.9124C2.10959 51.9124 1.99601 51.6119 1.99601 51.4402C1.97708 51.1398 1.93923 50.8393 1.95816 50.5389C1.95816 50.0667 1.99601 49.6375 2.07173 49.1654C2.10959 48.9508 2.07173 48.6932 1.97708 48.5645C1.90137 48.4357 1.80673 48.3069 1.73101 48.1782C1.61744 47.9636 1.56065 47.706 1.57958 47.3626C1.59851 47.2339 1.61744 47.0622 1.63637 46.9334C1.67422 46.6759 1.61744 46.5471 1.48494 46.5042C1.31458 46.5042 1.14422 46.5042 0.973857 46.4613C0.917071 46.4613 0.841356 46.3754 0.784569 46.2896C0.652067 46.0321 0.538495 45.7316 0.443851 45.4311C0.405993 45.3024 0.368135 45.1736 0.368135 45.0019C0.349206 44.7015 0.349206 44.401 0.330278 44.1006C0.330278 43.8001 0.368135 43.4997 0.443851 43.2421C0.500637 43.0275 0.557423 42.8558 0.61421 42.6412C0.670996 42.4695 0.652067 42.2549 0.538495 42.0403C0.462779 41.8686 0.387064 41.7398 0.311349 41.5682C0.216705 41.3535 0.159918 41.0531 0.14099 40.7526C0.14099 40.3663 0.14099 39.98 0.14099 39.5937C0.14099 38.7782 0.140989 38.7353 0.500637 38.4778C0.538495 38.4348 0.576352 38.4348 0.595281 38.3919C0.61421 38.3061 0.595281 38.1773 0.519566 38.0915C0.387064 37.9627 0.273491 37.791 0.197776 37.5335C0.178847 37.4906 0.159918 37.4047 0.159918 37.3189C0.159918 37.233 0.159918 37.1472 0.159918 37.1043C0.197776 36.8896 0.235634 36.675 0.273491 36.4604C0.235634 36.16 0.103132 35.9883 0.0274167 35.7308C-0.010441 35.602 -0.010441 35.4303 0.0274167 35.3015C0.103132 35.044 0.216705 34.8723 0.349206 34.7865C0.424922 34.7435 0.443851 34.5719 0.424922 34.4002C0.311349 33.8851 0.330278 33.37 0.443851 32.855C0.462779 32.7691 0.481708 32.7262 0.481708 32.6404C0.538495 32.1682 0.519566 31.739 0.424922 31.3098C0.387064 31.181 0.349206 31.0522 0.311349 30.9235C0.197776 30.4943 0.178847 30.3655 0.481708 30.065C0.633139 29.8933 0.803498 29.8075 0.954929 29.6787C0.992786 29.6787 1.01171 29.5929 1.03064 29.55C1.04957 29.4641 0.992786 29.3354 0.917071 29.2924C0.784569 29.2495 0.652067 29.2066 0.519566 29.1207C0.424922 29.0778 0.330278 28.9491 0.273491 28.7344C0.254562 28.6915 0.216705 28.6057 0.235634 28.5198C0.254562 28.0477 0.368135 27.6614 0.349206 27.1892C0.311349 26.7171 0.387064 26.202 0.500637 25.7299C0.557423 25.5582 0.538495 25.2578 0.576352 25.0431C0.61421 24.8285 0.670996 24.6568 0.784569 24.571C0.841356 24.4852 0.898142 24.3993 0.954929 24.3564C1.04957 24.2276 1.0685 23.9701 0.973857 23.7984C0.822427 23.5409 0.76564 23.1975 0.860284 22.8112C0.898142 22.6395 0.898142 22.5107 0.860284 22.382C0.822427 22.2532 0.822427 22.0815 0.841356 21.9528C0.879213 21.7381 0.936 21.5235 0.936 21.3089C0.954929 20.9226 1.04957 20.5792 1.03064 20.1929C1.03064 19.8496 1.04957 19.635 1.201 19.4633C1.25779 19.4203 1.31458 19.2916 1.35243 19.1628C1.40922 19.034 1.42815 18.9053 1.39029 18.7765C1.37136 18.7336 1.3335 18.6907 1.29565 18.6907C1.12529 18.6907 0.954928 18.6907 0.784569 18.6477C0.670996 18.6477 0.595281 18.3902 0.61421 18.2185C0.670996 17.7035 0.76564 17.1884 0.973857 16.8879C1.03064 16.8021 1.04957 16.6733 1.08743 16.5446C1.10636 16.5016 1.10636 16.4158 1.12529 16.33H1.14422C1.35243 16.2441 1.54172 16.1153 1.67422 15.729C1.73101 15.5574 1.74994 15.2569 1.69315 15.0852C1.59851 14.7418 1.44708 14.5701 1.3335 14.2697C1.27672 14.098 1.21993 13.8834 1.16315 13.7117C1.14422 13.6688 1.14422 13.5829 1.14422 13.4971C1.10636 13.1108 1.23886 12.6816 1.39029 12.6387C1.56065 12.5957 1.73101 12.5528 1.90137 12.5099C1.97708 12.5099 2.03387 12.424 2.09066 12.3811C2.16637 12.3382 2.26102 11.9948 2.22316 11.8661C2.16637 11.7802 2.10959 11.7373 2.03387 11.8231C1.97708 11.8661 1.90137 11.9519 1.84458 11.9948C1.7878 12.0377 1.69315 12.0377 1.65529 11.9948C1.42815 11.7373 1.201 11.6514 0.973857 11.6085C0.936 11.6085 0.917071 11.5227 0.898142 11.4798C0.879213 11.3939 0.917071 11.2651 0.992786 11.2222C1.21993 11.1364 1.46601 11.0935 1.67422 10.8359C1.7878 10.6642 1.93923 10.7072 2.07173 10.6642C2.20423 10.6213 2.33673 10.6642 2.46923 10.5355C2.54495 10.4925 2.67745 10.1921 2.67745 10.0633C2.67745 9.93456 2.63959 9.80579 2.58281 9.67703C2.52602 9.59118 2.46923 9.46242 2.41245 9.46242C2.3178 9.4195 2.20423 9.37657 2.10959 9.37657C1.73101 9.33365 1.37136 9.33365 0.992786 9.29073C0.954928 9.29073 0.917071 9.24781 0.898142 9.20489C0.860284 9.11904 0.879213 8.99027 0.936 8.86151C1.04957 8.68982 1.16315 8.51813 1.25779 8.30352C1.39029 8.04599 1.54172 7.91722 1.71208 7.8743C1.80673 7.83138 1.9203 7.78846 2.01494 7.74553C2.07173 7.70261 2.12852 7.57384 2.14744 7.44508C2.27995 7.488 2.41245 7.40216 2.52602 7.27339C2.62066 7.18755 2.71531 7.23047 2.80995 7.27339C3.07496 7.44508 3.33996 7.488 3.58603 7.31631C3.60496 7.31631 3.64282 7.23047 3.64282 7.18755C3.64282 7.1017 3.64282 7.01586 3.62389 6.97294C3.58603 6.88709 3.52925 6.75833 3.47246 6.7154C3.11281 6.50079 2.75317 6.50079 2.39352 6.62956C2.33673 6.62956 2.26102 6.7154 2.22316 6.84417C2.1853 6.93001 2.1853 7.1017 2.16637 7.27339C2.16637 7.35923 2.16637 7.44508 2.16637 7.488C2.10959 7.44508 2.0528 7.35923 2.01494 7.23047C1.97708 7.01586 1.9203 6.84417 1.88244 6.62956C1.82565 6.3291 1.82565 6.20034 1.88244 6.02865C1.97708 5.81404 2.07173 5.59943 2.16637 5.42774C2.24209 5.29897 2.33673 5.17021 2.43138 5.17021C2.60174 5.17021 2.75317 5.12728 2.92353 5.12728C3.09388 5.12728 3.24531 5.21313 3.39674 5.42774C3.45353 5.51358 3.51032 5.55651 3.58603 5.59943C3.60496 5.64235 3.60496 5.72819 3.62389 5.77112C3.64282 5.81404 3.66175 5.81404 3.68068 5.81404C3.68068 5.72819 3.64282 5.64235 3.5671 5.64235C3.58603 5.25605 3.52925 4.91267 3.41567 4.5693C3.26424 4.14008 3.07496 3.7967 2.82888 3.75378C2.77209 3.75378 2.69638 3.66793 2.63959 3.62501C2.58281 3.53917 2.52602 3.45332 2.48816 3.32456C2.4503 3.19579 2.46923 3.0241 2.54495 2.98118C2.73424 2.80949 2.92352 2.68072 3.11281 2.55196C3.1696 2.50904 3.24531 2.46611 3.3021 2.46611C3.51032 2.38027 3.71854 2.42319 3.90782 2.2515C4.05925 2.12274 4.21068 1.95105 4.38104 1.90813C4.53247 1.8652 4.51355 1.82228 4.38104 1.52183C4.26747 1.26429 4.24854 1.22137 4.32426 0.96384C4.34319 0.877996 4.36211 0.835074 4.36211 0.749229C4.45676 0.234164 4.60819 0.0195536 4.94891 0.14832C5.04355 0.191242 5.1382 0.36293 5.10034 0.620463C5.06248 0.920918 5.21391 1.22137 5.08141 1.47891C5.02462 1.56475 4.96784 1.65059 4.96784 1.82228C4.96784 1.82228 5.02462 1.8652 5.04355 1.90813C5.17605 1.95105 5.30856 1.95105 5.44106 1.99397C5.5357 1.99397 5.64927 1.99397 5.74392 1.90813C5.93321 1.69352 6.12249 1.56475 6.33071 1.60767C6.46321 1.60767 6.59571 1.60767 6.74714 1.56475C6.80393 1.56475 6.89858 1.52183 6.93643 1.43598C6.97429 1.35014 6.97429 1.17845 6.97429 1.00676C6.97429 0.835074 7.01215 0.74923 7.10679 0.706307C7.27715 0.706307 7.44751 0.706307 7.61787 0.663385C7.73144 0.663385 7.82609 0.749229 7.92073 0.835074C7.99645 0.920918 8.05323 0.920918 8.11002 0.835074C8.33716 0.620463 8.58324 0.620463 8.81039 0.620463C8.8861 0.620463 8.96182 0.620463 8.99967 0.706307C9.32146 1.17845 9.71897 1.09261 10.0786 1.39306C10.249 1.43598 10.4193 1.43598 10.5897 1.47891C10.6843 1.52183 10.7979 1.56475 10.8736 1.69352C10.9683 1.82228 11.044 1.95105 11.0818 2.16566C11.044 2.29443 11.0061 2.38027 10.9493 2.50904C10.9304 2.55196 10.8926 2.59488 10.8736 2.68072C10.7979 2.89533 10.8168 3.15287 10.9115 3.23871C11.1576 3.4104 11.3847 3.4104 11.574 3.0241C11.7633 2.6378 11.9336 2.42319 12.1229 2.2515C12.1797 2.20858 12.2554 2.12274 12.3122 2.16566C12.5015 2.29443 12.6529 2.12274 12.8044 1.99397C12.8801 1.95105 12.9369 1.90813 13.0126 1.99397C13.2019 2.20858 13.4101 2.20858 13.5994 1.99397C13.9022 1.95105 14.2051 1.90813 14.508 2.16566C14.6405 2.29443 14.773 2.29443 14.9055 2.29443C15.1137 2.33735 15.303 2.42319 15.4923 2.59488C15.5869 2.68072 15.6815 2.72365 15.7762 2.80949C15.9087 2.89534 16.0412 2.89533 16.1737 2.98118C16.4008 3.15287 16.628 3.23871 16.8741 3.23871C17.2148 3.23871 17.5555 3.28163 17.8962 3.28163C18.1423 3.28163 18.3694 3.32456 18.6155 3.32456C18.8237 3.32456 19.013 3.4104 19.2212 3.53917C19.4862 3.71086 19.7512 3.75378 20.0162 3.45332C20.1109 3.36748 20.2055 3.36748 20.3191 3.4104C20.4137 3.49624 20.5084 3.49624 20.622 3.4104C21.0195 3.06702 21.417 3.15287 21.8145 3.49624C21.947 3.62501 22.0795 3.62501 22.212 3.49624C22.477 3.19579 22.742 3.19579 23.007 3.45332C23.1395 3.58209 23.2531 3.66793 23.4045 3.66793C23.6695 3.66793 23.9534 3.66793 24.2184 3.62501C24.8242 3.53917 25.4488 3.66793 26.0545 3.75378C26.1303 3.75378 26.187 3.7967 26.2438 3.83962C26.3763 3.92547 26.5088 3.88254 26.6413 3.7967C26.9063 3.66793 27.1713 3.71085 27.4363 3.96839C27.5688 4.09715 27.7013 4.14008 27.8338 4.09715C28.0421 4.05423 28.2313 4.09715 28.4206 4.35469C28.5153 4.48345 28.6099 4.48345 28.7046 4.35469C28.9128 4.09715 29.1589 4.01131 29.386 4.05423C29.5564 4.09715 29.7267 4.14008 29.8971 4.14008C30.0107 4.14008 30.1053 4.22592 30.181 4.31176C30.3135 4.44053 30.4271 4.52637 30.5785 4.48345C30.8057 4.44053 31.0517 4.48345 31.2789 4.26884C31.3735 4.183 31.4682 4.22592 31.5628 4.35469C31.6575 4.44053 31.7521 4.5693 31.8468 4.5693C32.1875 4.52638 32.5282 4.52637 32.8689 4.48345C32.9257 4.48345 33.0014 4.39761 33.0582 4.35469C33.3232 4.14008 33.5882 4.14008 33.8532 4.31176C33.8721 4.31176 33.8911 4.39761 33.8911 4.44053C33.8721 4.48345 33.8532 4.5693 33.8153 4.5693C33.5503 4.5693 33.38 4.9556 33.1907 5.25605C33.1339 5.34189 33.0771 5.3419 33.0014 5.29897C32.8689 5.17021 32.7364 5.17021 32.6039 5.29897C32.4525 5.47066 32.2821 5.55651 32.1118 5.51358C31.7332 5.47066 31.3546 5.47066 30.995 5.55651C30.9382 5.55651 30.8625 5.64235 30.8057 5.72819C30.7489 5.81404 30.711 5.9428 30.6921 6.07157C30.6732 6.20034 30.711 6.3291 30.7867 6.41495C30.976 6.62956 31.1464 6.88709 31.3546 6.88709C31.6575 6.88709 31.8657 7.23047 32.0171 7.83138C32.0739 8.08891 32.1307 8.08891 32.2632 8.00307C32.4335 7.91722 32.6039 7.83138 32.7553 7.70261C32.8878 7.57384 33.0203 7.57384 33.1528 7.70261C33.2096 7.74553 33.2853 7.78846 33.3421 7.78846C33.5503 7.83138 33.7586 7.78846 33.91 7.44508C33.9668 7.35923 34.0046 7.23047 34.0614 7.14462C34.2129 6.93001 34.3643 6.84417 34.5346 6.97294C34.5914 7.01586 34.6671 7.1017 34.7239 7.14462C34.8186 7.23047 34.9321 7.23047 35.0268 7.14462C35.1214 7.05878 35.2161 7.1017 35.3297 7.18755C35.5 7.31631 35.6704 7.35923 35.8407 7.27339C35.9354 7.23047 36.03 7.1017 36.0868 6.93001C36.1814 6.62956 36.295 6.62956 36.4086 6.93001C36.4654 7.1017 36.5222 7.31631 36.579 7.488C36.6547 7.70261 36.7493 7.70261 36.844 7.53092C36.9007 7.44508 36.9386 7.27339 36.9765 7.18755C37.0522 7.01586 37.1468 6.93001 37.2604 6.93001C37.4308 6.88709 37.6011 6.84417 37.7715 7.01586C38.0554 7.27339 38.3772 7.31631 38.6233 7.70261C38.7179 7.83138 38.8126 7.78846 38.9072 7.65969C39.0965 7.40216 39.2858 7.35923 39.494 7.53092C39.6643 7.70261 39.8158 7.74553 39.9861 7.57384C40.1754 7.40216 40.3836 7.31631 40.5729 7.27339C40.7812 7.23047 40.9515 6.97294 41.1597 6.93001C41.3112 6.93001 41.4247 6.7154 41.5004 6.45787C41.7087 5.81404 42.0305 5.47066 42.3522 5.21313C42.409 5.17021 42.5037 5.17021 42.5415 5.21313C42.7876 5.51358 43.0715 5.51358 43.3365 5.51358C43.4501 5.51358 43.6015 5.77112 43.6205 6.07157C43.6394 6.20034 43.6583 6.37203 43.6583 6.54371C43.6583 6.97294 43.7151 7.27339 43.9233 7.35923C44.0937 7.40216 44.2451 7.57384 44.3966 7.78846C44.4533 7.8743 44.5291 7.96014 44.5291 8.08891C44.5291 8.21768 44.4344 8.2606 44.3587 8.30352C44.264 8.34644 44.1505 8.38937 44.0558 8.43229C44.018 8.43229 43.999 8.51813 43.9801 8.56105C43.999 8.60398 44.018 8.6469 44.0558 8.68982C44.1505 8.77566 44.264 8.73274 44.3587 8.73274C44.4912 8.73274 44.6237 8.73274 44.7562 8.90443C44.8508 9.0332 44.8698 9.29073 44.9455 9.4195C45.0212 9.59118 45.1158 9.63411 45.2105 9.50534C45.2673 9.4195 45.3241 9.33365 45.3619 9.20489C45.3998 9.07612 45.4376 8.94735 45.4755 8.81859C45.5134 8.6469 45.5701 8.56105 45.608 8.6469C45.6269 8.68982 45.6459 8.77566 45.6648 8.81859C45.6837 8.94735 45.7026 9.11904 45.7216 9.24781C45.7784 9.54826 46.0244 9.67703 46.1569 9.46242C46.2516 9.33365 46.2894 9.11904 46.3651 8.94735C46.4219 8.81859 46.4787 8.77566 46.5355 8.73274C46.7437 8.6469 46.933 8.6469 47.1223 8.90443C47.1602 8.94735 47.1791 8.99027 47.2169 9.0332C47.4062 9.20489 47.5766 9.16196 47.6712 8.77566C47.7659 8.34644 47.8984 8.00307 48.0877 7.78846C48.1445 7.70261 48.2202 7.61677 48.2202 7.488C48.2202 7.35923 48.1255 7.31631 48.0687 7.27339C47.9741 7.23047 47.8605 7.23047 47.7659 7.18755C47.6712 7.14462 47.5766 7.01586 47.5387 6.80125L47.5198 6.84417C47.6145 6.75832 47.7091 6.67248 47.8037 6.54371C47.8605 6.45787 47.9362 6.45787 47.993 6.50079C48.1445 6.62956 48.2959 6.80125 48.4852 6.80125C48.6177 6.80125 48.7502 6.80125 48.9016 6.84417C48.9773 6.84417 49.0341 6.93001 49.053 7.01586C49.053 7.05878 49.0341 7.18755 49.0152 7.23047C48.9016 7.40216 48.807 7.61677 48.7691 7.91722C48.7502 8.00307 48.7502 8.04599 48.7312 8.13183C48.6745 8.30352 48.6745 8.43229 48.7502 8.51813C48.7691 8.56105 48.807 8.56105 48.8448 8.56105C49.1098 8.34644 49.3559 8.21768 49.6398 8.2606C49.8102 8.30352 49.9805 8.2606 50.1509 8.21768C50.3213 8.17475 50.4916 8.13183 50.6431 7.96014C50.7756 7.78846 50.9081 7.8743 51.0216 8.00307C51.0595 8.04599 51.0784 8.08891 51.1163 8.08891C51.2866 8.21768 51.4002 8.43229 51.4949 8.81859C51.5516 9.0332 51.6463 9.07612 51.7599 9.11904C51.8356 9.11904 51.9113 9.11904 51.9491 8.99027C51.9681 8.86151 51.9113 8.73274 51.8356 8.6469C51.7599 8.56105 51.7409 8.38936 51.7977 8.30352C51.9681 8.04599 52.1195 7.74553 52.2709 7.44508C52.4413 7.1017 52.6874 7.18755 52.8388 7.44508C53.0281 7.78846 53.2174 8.13183 53.2931 8.68982C53.1038 8.68982 52.8956 8.68982 52.7063 8.68982C52.6306 8.68982 52.5927 8.81859 52.5927 8.90443C52.5927 8.94735 52.6306 9.0332 52.6684 9.0332C52.7252 9.07612 52.8009 9.07612 52.8577 9.07612C53.0281 9.11904 53.1795 8.94735 53.2552 8.60398C53.5581 8.60398 53.861 8.56105 54.1827 8.60398C54.391 8.60398 54.5992 8.6469 54.7885 8.68982C54.9399 8.73274 54.9399 8.77566 54.9967 9.29073C54.9967 9.33365 55.0345 9.4195 55.0535 9.46242C55.2049 9.67703 55.5078 9.59118 55.6213 9.33365C55.6403 9.29073 55.6781 9.24781 55.6971 9.16196C55.7917 8.77566 55.9431 8.68982 56.1324 8.6469C56.2649 8.60398 56.3974 8.60398 56.5299 8.56105C56.5678 8.56105 56.6056 8.47521 56.6056 8.43229C56.6056 8.30352 56.5678 8.21768 56.4921 8.17475C56.3217 8.08891 56.1513 8.17475 56.0188 7.8743C55.9999 7.83138 55.981 7.70261 55.9999 7.65969C55.9999 7.61677 56.0567 7.488 56.0756 7.488C56.3028 7.61677 56.5299 7.70261 56.7571 7.70261C56.9842 7.70261 56.9842 7.74553 57.0789 8.30352C57.0789 8.34644 57.1167 8.43229 57.1356 8.43229C57.6089 8.51813 58.0821 8.51813 58.5553 8.60398C58.631 8.60398 58.6878 8.73274 58.7067 8.81859C58.7446 8.99027 58.6121 9.29073 58.5364 9.29073C58.4985 9.29073 58.4607 9.29073 58.4417 9.29073C58.3849 9.24781 58.3092 9.16196 58.2524 9.16196C58.1957 9.11904 58.1199 9.11904 58.0442 9.16196C57.9306 9.16196 57.8739 9.37657 57.8171 9.59118C57.7792 9.80579 57.7982 10.0204 57.8739 10.1921C57.8928 10.235 57.9307 10.3209 57.9496 10.3209C58.0442 10.3638 58.1578 10.3638 58.2524 10.3638C58.5364 10.4496 58.7825 10.235 58.9907 9.76287C59.0475 9.63411 59.1232 9.67703 59.18 9.76287C59.2557 9.93456 59.3314 10.0633 59.4071 10.235C59.4639 10.3209 59.5017 10.4496 59.5585 10.5355C59.6721 10.7072 59.8235 10.6642 59.9182 10.4067C59.975 10.235 60.0317 10.0204 60.0885 9.84872C60.0885 9.84872 60.1453 9.84872 60.1453 9.89164C60.2021 10.3209 60.221 10.793 60.1642 11.2651C60.1264 11.6085 60.2021 11.7802 60.3725 11.7802C60.4482 11.7802 60.505 11.7802 60.5807 11.7373C60.6943 11.6944 60.77 11.5656 60.8078 11.3081C60.8457 11.0935 60.8457 10.8788 60.8835 10.6642C60.9025 10.5355 60.9593 10.3638 60.9971 10.2779C61.1864 9.97748 61.3946 9.67703 61.5839 9.37657C61.7543 9.07612 61.9625 9.0332 62.1707 9.07612C62.3032 9.11904 62.4357 9.24781 62.5682 9.29073C62.6629 9.33365 62.7575 9.20488 62.8711 9.29073C63.1361 9.50534 63.4011 9.46242 63.6472 9.11904C63.7039 9.0332 63.7797 8.94735 63.7797 8.81859C63.7607 8.68982 63.685 8.6469 63.6093 8.6469C63.5146 8.6469 63.4011 8.60398 63.3064 8.60398C63.2875 8.60398 63.2496 8.51813 63.2307 8.47521C63.2118 8.38937 63.2496 8.2606 63.3443 8.2606C63.5904 8.2606 63.8175 8.2606 64.0636 8.2606C64.1582 8.2606 64.2339 8.47521 64.1772 8.73274C64.1204 9.07612 64.1582 9.33365 64.2907 9.50534C64.3475 9.59118 64.4232 9.67703 64.4043 9.84872C64.4043 9.97748 64.3286 10.0633 64.2529 10.0633C63.9879 10.1062 63.7039 10.1062 63.4389 10.1062C63.3822 10.1062 63.3064 10.1492 63.2497 10.1921C63.1739 10.235 63.1361 10.3638 63.155 10.5355C63.155 10.6213 63.1929 10.7072 63.2118 10.7072C63.3443 10.6642 63.4768 10.7072 63.6093 10.8359C63.7039 10.9218 63.7986 10.9218 63.9122 10.8788C64.0068 10.793 64.1014 10.7072 64.1961 10.6213C64.2529 10.5784 64.3475 10.5355 64.3854 10.5784C64.7072 10.8788 65.0479 10.9218 65.3886 10.9218C65.5968 10.9218 65.805 10.8788 65.9943 10.8359C66.0511 10.8359 66.1268 10.7072 66.1647 10.6213C66.2783 10.4067 66.335 10.1492 66.4108 9.89164C66.5054 9.54826 66.7326 9.46242 66.8651 9.67703C66.9786 9.84872 67.0733 10.0633 67.1868 10.235C67.2815 10.3638 67.3761 10.4067 67.4708 10.3209C67.6601 10.1062 67.8493 10.0204 68.0576 10.0204C68.3226 10.0633 68.6065 10.0633 68.8715 10.0204C69.3069 9.97748 69.7612 9.97748 70.1965 10.0204C70.4426 10.0633 70.6697 10.0204 70.8969 9.76287C70.9537 9.71995 71.0294 9.76287 71.0862 9.80579C71.1808 9.89164 71.2944 9.89164 71.389 9.80579C71.4837 9.76287 71.5783 9.71995 71.6919 9.76287C71.8244 9.84872 71.9569 9.84872 72.0894 9.71995C72.2219 9.59118 72.3544 9.54826 72.4869 9.50534L72.468 9.46242C72.5248 9.80579 72.6573 9.89164 72.8087 9.84872C72.8844 9.84872 72.9412 9.8058 73.0169 9.76287C73.3766 9.37657 73.7551 9.50534 74.1148 9.54826C74.1716 9.54826 74.2473 9.63411 74.3041 9.67703C74.4744 9.84872 74.6259 9.80579 74.7962 9.63411C74.9477 9.46242 75.1369 9.50534 75.2884 9.4195C75.4019 9.37657 75.4777 9.24781 75.5344 9.07612C75.6859 8.47521 75.913 8.51813 76.1591 8.60398C76.197 8.60398 76.2159 8.6469 76.2537 8.68982C76.3105 8.73274 76.3862 8.81859 76.443 8.90443C76.5755 9.0332 76.708 9.0332 76.8405 9.0332C76.973 8.99027 77.1055 8.94735 77.238 8.81859C77.3327 8.73274 77.4273 8.73274 77.5409 8.81859C77.768 9.0332 78.0141 9.0332 78.2413 8.81859C78.3927 8.6469 78.5631 8.60398 78.7334 8.60398C79.0173 8.60398 79.2634 8.43229 79.4527 7.91722C79.4906 7.78846 79.5663 7.70261 79.6231 7.70261C79.9638 7.70261 80.3045 7.65969 80.6452 7.74553C80.7399 7.78846 80.8345 7.91722 80.9292 7.96014C81.0238 8.00307 81.1374 7.91722 81.232 7.91722C81.5917 8.2606 81.9702 8.17475 82.3488 8.13183C82.4435 8.13183 82.557 8.04599 82.6517 7.96014C82.7463 7.8743 82.841 7.8743 82.9545 7.96014C83.0492 8.04599 83.1628 8.04599 83.2574 7.96014C83.3899 7.83138 83.5224 7.91722 83.6549 8.00307C83.882 8.17475 84.1281 8.17475 84.3553 7.96014C84.5824 7.74553 84.8285 7.65969 85.0556 7.8743C85.3206 8.08891 85.5856 8.13183 85.8507 8.17475C86.1914 8.21768 86.5321 8.21768 86.8728 8.21768C87.1567 8.17475 87.4028 8.34644 87.6489 8.68982C87.7246 8.77566 87.7435 8.90443 87.7057 9.07612C87.6678 9.20489 87.611 9.29073 87.5542 9.33365C87.4975 9.37657 87.4217 9.33365 87.365 9.24781C87.2325 9.11904 87.1 9.07612 86.9675 9.20489C86.7971 9.37657 86.6457 9.37657 86.4753 9.20489C86.4185 9.16196 86.3428 9.11904 86.286 9.11904C85.8696 9.07612 84.5635 9.11904 83.9388 9.24781C83.9199 9.24781 83.901 9.33365 83.8631 9.33365C83.8821 9.37657 83.901 9.46242 83.9388 9.50534C84.1092 9.59118 84.2796 9.63411 84.431 9.84872C84.5067 9.97748 84.6203 10.0204 84.7149 10.0633C84.8474 10.1492 84.9799 10.1492 85.1124 10.235C85.3017 10.3638 85.5099 10.4496 85.7181 10.4496C86.1535 10.4925 86.6078 10.5355 87.0432 10.5355C87.2892 10.5355 87.5164 10.6213 87.7435 10.8359C87.895 11.0076 88.0843 10.9647 88.2357 11.0076C88.2735 11.0076 88.3114 11.0935 88.3114 11.1364C88.3303 11.2651 88.2735 11.351 88.1978 11.3939C88.141 11.4368 88.0653 11.4368 88.0085 11.5227C87.9328 11.6085 87.9139 11.7373 87.9139 11.8661C87.9139 12.0377 87.9518 12.1665 88.0275 12.2094C88.1978 12.3382 88.3682 12.2953 88.5385 12.3382C88.5953 12.3382 88.671 12.424 88.7278 12.5099C88.7846 12.5957 88.8414 12.7245 88.8035 12.8962C88.7846 13.0679 88.7089 13.1537 88.6332 13.1108C88.5007 13.025 88.3682 12.8962 88.2357 12.8533C88.0275 12.8103 87.8192 12.8103 87.63 12.8103C87.5732 12.8103 87.4975 12.8533 87.4407 12.8962C87.4028 12.8962 87.365 12.982 87.365 13.025C87.365 13.1108 87.3839 13.1966 87.4217 13.2396C87.6678 13.54 87.9139 13.7976 88.1978 13.7976C88.4628 13.7976 88.7278 13.8834 88.9928 14.098C89.22 14.2697 89.466 14.2697 89.6932 14.3555C89.731 14.3555 89.7689 14.4414 89.7689 14.4843C89.7878 14.656 89.75 14.7848 89.6932 14.8706C89.6364 14.9564 89.5796 15.0423 89.5228 15.0852C89.3525 15.1711 89.1821 15.214 89.0118 15.0423C88.7468 14.8277 88.4818 14.7848 88.2168 14.7848C87.5732 14.7848 86.9296 14.7418 86.2671 14.7848C85.7939 14.7848 85.3206 14.7848 84.8285 14.8277C84.7528 14.8277 84.696 14.9564 84.7338 15.0423C84.7528 15.0852 84.7906 15.1711 84.8096 15.1711C84.9799 15.214 85.1503 15.214 85.3206 15.214C85.4531 15.214 85.5856 15.2569 85.7181 15.3857C85.8696 15.5574 86.0399 15.6003 86.2103 15.6003C86.5889 15.6432 86.9675 15.6432 87.3271 15.6861C87.4596 15.6861 87.611 15.729 87.7246 15.8578C87.9517 16.1153 88.1789 16.2012 88.425 16.1583C88.671 16.1153 88.8982 16.1583 89.1253 16.4158C89.1821 16.5016 89.2578 16.5016 89.3146 16.5446C89.4471 16.5875 89.5796 16.5875 89.7311 16.5875C89.9393 16.5875 90.1286 16.6733 90.3368 16.845C90.4314 16.9309 90.5261 16.9738 90.6396 16.9738C90.8479 17.0167 91.0561 17.0596 91.2454 17.0596C91.4157 17.0596 91.5861 17.1455 91.7375 17.2742C91.87 17.403 92.0025 17.403 92.135 17.403C92.6082 17.4459 93.0815 17.5318 93.5547 17.5747C93.7629 17.5747 93.9522 17.7464 94.1415 17.961C94.1983 18.0468 94.255 18.1327 94.255 18.2614C94.255 18.3044 94.1983 18.3473 94.1793 18.3902C94.009 18.4331 93.8386 18.4761 93.6682 18.4761C93.2518 18.4331 92.8543 18.3902 92.4379 18.4331C92.2675 18.4331 92.0972 18.3902 91.9268 18.3902C91.7564 18.3902 91.5861 18.3044 91.4346 18.1756C91.34 18.0898 91.2454 18.0468 91.1318 18.0468C90.8857 18.0039 90.6586 18.0039 90.4125 18.0039C90.28 18.0039 90.2043 18.0898 90.0907 18.4761C90.0339 18.6477 89.9771 18.8624 89.8636 18.9482C89.8446 18.8194 89.8068 18.6907 89.75 18.6048C89.7311 18.5619 89.6932 18.5619 89.6743 18.5619C89.6553 18.5619 89.6175 18.6048 89.5985 18.6477C89.5796 18.7336 89.6175 18.8194 89.6932 18.8624C89.75 18.8624 89.8068 18.9053 89.8825 18.9053C89.9014 19.077 89.9014 19.2057 89.9203 19.3774C89.9393 19.5491 89.9771 19.6779 90.0528 19.7208C90.3179 19.9354 90.5829 19.8925 90.8289 20.2788C90.9993 20.3646 91.1696 20.2788 91.3211 20.15C91.4157 20.0642 91.5104 20.15 91.5861 20.4076C91.6429 20.5792 91.6239 20.708 91.5672 20.7939C91.5104 20.8797 91.4347 20.9226 91.3779 20.9226C90.9046 20.9226 90.4314 20.9226 89.9582 20.9226C89.8636 20.9226 89.8257 21.0514 89.8446 21.1372C89.8636 21.1802 89.9014 21.2231 89.9393 21.2231C90.0718 21.266 90.2043 21.266 90.3557 21.266C90.6586 21.3089 90.9614 21.3089 91.2643 21.3948C91.3968 21.4377 91.5293 21.5665 91.6239 21.824C91.6429 21.8669 91.6618 21.9528 91.6807 22.0386C91.6807 22.0815 91.6618 22.1674 91.6429 22.2532C91.5672 22.5107 91.4346 22.6824 91.3021 22.7254C90.9614 22.7683 90.6207 22.8112 90.28 22.7683C89.9014 22.7683 89.5228 22.7683 89.1632 22.8112C89.0686 22.8112 89.0307 22.94 89.0496 23.0258C89.0686 23.0687 89.1064 23.1546 89.1253 23.1546C89.2578 23.1975 89.3903 23.2404 89.5228 23.2833C89.8068 23.6267 90.1096 23.6696 90.4125 23.7126C90.5071 23.7126 90.6207 23.7126 90.7154 23.7984C91.1318 24.1847 91.5861 24.0989 92.0214 24.2276C92.0972 24.2276 92.1539 24.2705 92.2107 24.3564C92.2675 24.3993 92.3243 24.4852 92.3811 24.6139C92.4379 24.7427 92.4568 24.8715 92.4189 25.0002C92.4 25.0431 92.3622 25.129 92.3432 25.129C92.2486 25.1719 92.135 25.1719 92.0404 25.1719C91.9647 25.1719 91.9079 25.2148 91.8511 25.3436C91.8132 25.4294 91.9079 25.8157 91.9836 25.9016C92.0404 25.9445 92.1161 26.0304 92.1729 26.0733C92.2675 26.1162 92.3811 26.1162 92.4757 26.1591C92.5514 26.1591 92.6272 26.245 92.6272 26.3737C92.6461 26.5025 92.5893 26.6742 92.5325 26.76C92.4757 26.8459 92.4189 26.9317 92.3622 26.9746C92.2675 27.0176 92.1539 27.0176 92.0593 27.0605C91.9268 27.0605 91.7943 27.1892 91.6807 27.4039C91.605 27.5326 91.5293 27.7043 91.4346 27.7902C91.3779 27.876 91.3021 27.9189 91.2454 27.9189C90.9993 27.9618 90.7721 27.9618 90.5261 27.9618C90.3936 27.9618 90.2611 28.0477 90.1286 28.2194C90.0718 28.3052 90.015 28.434 90.015 28.5628C89.9961 28.6915 90.0528 28.7774 90.1286 28.8203C90.2043 28.8632 90.2611 28.8632 90.3368 28.8632C90.4314 28.9061 90.545 28.9061 90.6396 28.9491C90.8289 29.0349 91.0371 29.2066 91.2264 29.2924C91.3968 29.3783 91.5671 29.3783 91.7375 29.4641C91.8132 29.507 91.8511 29.6358 91.8322 29.8075C91.8132 29.9792 91.8322 30.108 91.9079 30.1938C92.0404 30.2796 92.1729 30.3655 92.3054 30.4513C92.4379 30.5801 92.5704 30.623 92.7029 30.6659C92.949 30.7089 93.1761 30.7518 93.4222 30.7947C93.6115 30.8376 93.6872 30.9235 93.6493 31.0093C93.6115 31.1381 93.5547 31.181 93.479 31.2239C93.2897 31.3098 93.2897 31.3098 93.2897 31.6102C93.2897 31.9536 93.2518 32.0824 93.1572 32.0824C92.7407 32.0824 92.3432 32.1253 91.9268 32.1253C91.4914 32.1253 91.0371 32.1253 90.6018 32.1682C90.5071 32.1682 90.4125 32.2541 90.3178 32.4257C90.2611 32.5545 90.2232 32.6833 90.2421 32.812C90.2421 32.855 90.28 32.9408 90.3178 32.9408C90.4125 33.0267 90.5261 33.0267 90.6018 33.1554C90.81 33.413 91.0561 33.4988 91.2832 33.5846C91.3211 33.5846 91.34 33.6276 91.3779 33.6705C91.4157 33.7563 91.3779 33.8851 91.2832 33.8851C90.8479 33.928 90.3936 33.9709 89.9582 34.0568C89.8636 34.0568 89.8257 34.1426 89.8636 34.2714C89.8825 34.3143 89.9014 34.4002 89.9203 34.4431C90.1096 34.6577 90.2989 34.8294 90.5071 34.8294C90.9236 34.8723 91.3211 34.9152 91.7375 34.9582C91.8322 34.9582 91.9457 34.9582 92.0404 35.044C92.2675 35.2586 92.4947 35.3445 92.7407 35.3445C92.9111 35.3445 93.0815 35.4732 93.2329 35.6449C93.46 35.8595 93.7061 35.8166 93.9333 35.9024C94.009 35.9454 94.0658 35.9883 94.0658 36.1171C94.0658 36.16 94.0279 36.2458 94.009 36.2887C93.8008 36.5463 93.5925 36.7609 93.3275 36.7609C92.684 36.7609 92.0404 36.8038 91.3968 36.8467C91.3021 36.8467 91.1696 36.8038 91.0939 36.9755C91.0182 37.1472 91.075 37.4047 91.075 37.6193C91.075 38.0485 91.075 38.0915 91.1886 38.1344C91.2832 38.1773 91.3968 38.1773 91.4914 38.1773C91.5671 38.1773 91.6239 38.2202 91.6997 38.2202C91.7564 38.2632 91.8322 38.2632 91.8889 38.349C92.0972 38.6924 92.3432 38.6495 92.5704 38.6924C92.665 38.7353 92.7029 38.8211 92.665 38.9928C92.6272 39.3791 92.7786 39.465 92.8732 39.6796C92.949 39.8513 92.949 40.1517 92.8543 40.2805C92.8164 40.3234 92.7975 40.3663 92.7597 40.4093C92.5893 40.4522 92.419 40.4951 92.2486 40.538C92.0404 40.5809 91.9457 40.8385 91.9647 41.3106C91.9836 41.5682 92.0593 41.6969 92.1539 41.654C92.2107 41.6111 92.2864 41.5682 92.3432 41.5252C92.4947 41.4394 92.6082 41.5682 92.7218 41.7828C92.7786 41.8686 92.8164 41.9974 92.8543 42.1261C92.9111 42.212 92.9868 42.2549 93.0436 42.212C93.2897 41.9545 93.5547 41.8686 93.8386 41.9115C94.1036 41.9545 94.3875 41.9115 94.6525 41.9545C94.7472 41.9545 94.8608 41.9974 94.9554 42.0832C95.05 42.1691 95.1447 42.1691 95.2583 42.1261C95.3529 42.0832 95.4476 42.0403 95.5611 41.9974C95.6368 41.9545 95.6936 42.0403 95.7504 42.1691C95.8261 42.3408 95.8072 42.5554 95.7883 42.8129C95.7504 43.1134 95.7693 43.2421 95.864 43.3709C96.0154 43.5426 96.1668 43.7572 96.3372 43.7572C96.6401 43.8001 96.9429 43.843 97.2458 43.843C97.4919 43.843 97.719 43.886 97.9462 44.1006C98.1165 44.2293 98.2869 44.2293 98.4572 44.2293C99.4037 44.2723 100.369 44.3152 101.315 44.401C101.41 44.401 101.448 44.5298 101.467 44.8732C101.467 45.0448 101.486 45.1736 101.58 45.2165C101.921 45.3453 102.262 45.2165 102.603 45.3453C102.697 45.3882 102.792 45.517 102.868 45.6887C102.887 45.7316 102.924 45.8175 102.924 45.8604C102.906 46.0321 102.83 46.1179 102.773 46.075C102.584 45.9033 102.451 45.9891 102.357 46.3754C102.319 46.5042 102.243 46.5471 102.167 46.5471C102.129 46.5471 102.092 46.5471 102.073 46.5042C101.864 46.2037 101.618 46.1608 101.391 46.2467C101.391 46.1608 101.372 46.1179 101.353 46.0321C101.334 45.9891 101.315 45.9891 101.278 45.9891C101.278 46.1179 101.315 46.1608 101.391 46.2037C101.297 46.633 101.164 46.9763 100.956 47.148C100.71 47.4056 100.464 47.6631 100.18 47.6631C100.009 47.6631 99.839 47.7919 99.6876 47.9206C99.4983 48.0923 99.2901 48.0065 99.0819 48.1352C99.0251 48.1782 98.9683 48.264 98.9115 48.3498C98.8547 48.4357 98.8358 48.6074 98.8547 48.7361C98.8547 48.7791 98.9115 48.822 98.9494 48.822C99.5551 48.9078 100.18 48.9078 100.785 48.9508C101.353 48.9937 101.94 48.9078 102.527 48.9078C102.868 48.9078 103.208 48.9078 103.549 49.0366C103.587 49.0366 103.625 49.0795 103.644 49.0795C103.719 49.1654 103.757 49.2512 103.757 49.4229C103.757 49.5946 103.738 49.7234 103.644 49.7663C103.549 49.8092 103.454 49.8521 103.341 49.8521C102.697 49.895 102.054 49.938 101.41 50.0238C101.372 50.0238 101.315 50.1097 101.315 50.1097C101.315 50.1955 101.372 50.2813 101.448 50.2813C101.486 50.2813 101.524 50.2813 101.543 50.2813C101.883 50.2813 102.224 50.3243 102.565 50.2813C103.038 50.2384 103.511 50.2813 103.984 50.3243C104.06 50.3243 104.117 50.496 104.098 50.5818C104.098 50.6247 104.06 50.7106 104.022 50.7106C103.852 50.7535 103.682 50.7964 103.511 50.8393C103.208 50.8823 102.924 51.2256 102.603 51.1827C102.338 51.1398 102.054 51.2256 101.789 51.3115C101.732 51.3115 101.656 51.3973 101.599 51.4402C101.562 51.4832 101.543 51.5261 101.524 51.569C101.467 51.6978 101.448 51.8265 101.486 51.9553C101.505 51.9982 101.543 52.0412 101.58 52.0841C101.959 52.127 102.319 52.1699 102.697 52.1699C103.038 52.1699 103.379 52.2128 103.719 52.2128C103.928 52.2128 104.136 52.2558 104.325 52.2558C104.496 52.2558 104.647 52.4704 104.817 52.4274C104.969 52.3845 105.026 52.5562 104.988 52.8138C104.931 53.1142 104.893 53.3717 104.931 53.7151C104.931 53.758 104.912 53.8868 104.893 53.8868C104.685 54.1873 104.477 54.4019 104.231 54.4448C104.098 54.4448 103.966 54.4877 103.833 54.5736C103.738 54.6165 103.644 54.7452 103.625 55.0028C103.587 55.3891 103.53 55.7325 103.36 55.9471C103.284 56.0329 103.265 56.2046 103.322 56.3334C103.473 56.7626 103.606 57.1918 103.644 57.7498C103.663 58.0073 103.738 58.1361 103.852 58.179C104.022 58.2219 104.193 58.2649 104.363 58.3078C104.439 58.3078 104.496 58.3936 104.496 58.4795C104.496 58.5224 104.458 58.6082 104.439 58.6512C104.344 58.737 104.249 58.8658 104.193 59.0375C104.098 59.295 104.079 59.5525 104.231 59.8101C104.306 59.9388 104.401 60.0676 104.477 60.1964C104.496 60.2393 104.496 60.3251 104.477 60.368C104.325 60.5397 104.136 60.4968 103.984 60.6256C103.852 60.7114 103.738 60.8831 103.606 60.926C103.379 61.0119 103.133 61.0119 102.887 61.0119C102.811 61.0119 102.754 61.0977 102.735 61.1836C102.735 61.2265 102.773 61.3123 102.792 61.3552C103.171 61.8274 103.171 61.8274 103.549 61.9132C103.682 61.9562 103.814 61.9562 103.947 61.9991C104.079 62.042 104.174 62.2995 104.174 62.6429C104.174 62.8146 104.079 63.158 104.003 63.2009C103.928 63.2438 103.871 63.2867 103.814 63.2867C103.473 63.2867 103.152 63.5872 102.83 63.8018C102.754 63.8447 102.697 63.9306 102.716 64.0593C102.716 64.1023 102.773 64.1881 102.792 64.1881C102.924 64.274 103.057 64.3169 103.189 64.3598C103.208 64.3598 103.227 64.4456 103.246 64.4886C103.057 64.7032 102.849 64.6173 102.641 64.6603C102.546 64.7032 102.432 64.7461 102.338 64.789C102.262 64.8319 102.224 64.9607 102.205 65.0895C102.186 65.2612 102.224 65.3899 102.3 65.4328C102.357 65.4758 102.432 65.5616 102.489 65.6045C102.773 65.8621 103.076 65.9908 103.379 65.9908C103.719 65.9908 104.06 65.9479 104.401 66.1196C104.439 66.1196 104.458 66.2055 104.477 66.2484C104.458 66.2913 104.439 66.3342 104.42 66.3771C104.401 66.4201 104.363 66.463 104.325 66.463C103.909 66.463 103.53 66.7634 103.152 67.1068C103.133 67.1497 103.095 67.1927 103.095 67.2356C103.095 67.4073 103.133 67.536 103.189 67.6219C103.322 67.7936 103.454 67.7936 103.587 67.7077C103.663 67.6648 103.719 67.7077 103.757 67.8365C103.814 68.0511 103.814 68.3516 103.757 68.4803C103.701 68.5662 103.663 68.6949 103.606 68.7379C103.473 68.8237 103.341 68.8666 103.208 68.8666C102.868 68.8666 102.546 69.1671 102.224 69.3388C102.148 69.3817 102.11 69.5105 102.129 69.5963C102.148 69.6392 102.186 69.6821 102.224 69.7251C102.432 69.768 102.641 69.8109 102.83 69.8109C102.962 69.8109 103.095 69.8968 103.227 70.0255C103.36 70.1543 103.492 70.1972 103.625 70.1972C103.833 70.2401 104.022 70.2401 104.231 70.326C104.325 70.3689 104.344 70.4547 104.325 70.6264C104.306 70.7123 104.306 70.7981 104.268 70.7981C104.212 70.884 104.155 70.9698 104.098 71.0127C104.041 71.0556 103.966 71.0986 103.89 71.0986C103.587 71.1415 103.284 71.1844 102.981 71.2273C102.773 71.2703 102.565 71.2273 102.376 71.3132C102.148 71.4419 101.921 71.6136 101.694 71.7853C101.618 71.8282 101.562 71.9141 101.524 72.0429C101.391 72.515 101.126 72.6008 100.937 72.9442C100.88 73.0301 100.842 73.1588 100.861 73.3305C100.861 73.3734 100.899 73.4164 100.937 73.4593C100.994 73.5022 101.069 73.5451 101.126 73.5451C101.259 73.5881 101.391 73.5881 101.524 73.5881C101.562 73.5881 101.599 73.631 101.599 73.7168C101.618 73.8027 101.58 73.9314 101.486 73.9314C101.24 73.9743 101.013 73.9743 100.767 74.0173C100.558 74.0602 100.369 74.146 100.18 74.3606C100.123 74.4465 100.047 74.4894 99.9905 74.5753C99.7065 74.9186 99.4037 75.0045 99.1008 74.7469C99.0251 74.704 98.9683 74.6611 98.9115 74.7469C98.7601 74.8757 98.5897 74.9616 98.4194 75.0045C98.2301 75.0474 98.1544 75.1333 98.2112 75.262C98.2679 75.3479 98.3247 75.4337 98.4005 75.4337C98.4762 75.4337 98.533 75.5195 98.5708 75.6483C98.5708 75.6912 98.533 75.7771 98.514 75.7771C98.2112 75.9058 97.9462 76.2922 97.6622 76.4638C97.6433 76.4638 97.6244 76.5497 97.6054 76.5926C97.6433 76.6355 97.6622 76.6784 97.7001 76.7214C97.9083 76.8072 98.1165 76.8072 98.3058 76.6784C98.9305 76.3351 98.9305 76.2921 99.2901 76.2921C99.4605 76.2921 99.6308 76.2063 99.7822 76.0346C99.8769 75.9488 99.9715 75.9058 100.085 75.9058C100.123 75.9058 100.161 75.9058 100.18 75.9488C100.237 76.0346 100.218 76.1205 100.142 76.2492C100.009 76.5068 100.009 76.5497 100.123 76.7214C100.18 76.8072 100.255 76.8931 100.255 77.0218C100.255 77.1506 100.199 77.2794 100.142 77.3652C100.085 77.451 100.028 77.5369 99.9715 77.5798C99.839 77.6227 99.7065 77.6657 99.574 77.7086C99.4037 77.7515 99.2333 77.7944 99.0819 77.9661C99.0251 78.009 98.9494 78.0949 98.8926 78.0949C98.6087 78.1378 98.3626 78.3095 98.1165 78.567C98.0219 78.6529 97.9083 78.6529 97.8137 78.6529C97.738 78.6529 97.6812 78.6958 97.6244 78.8246C97.5487 78.9962 97.4919 79.2108 97.4162 79.2967C97.3404 79.3825 97.2079 79.2538 97.1133 79.3825C96.9051 79.5971 96.6779 79.8547 96.4697 80.0693C96.4508 80.1122 96.4129 80.1981 96.4129 80.241C96.4129 80.3697 96.4697 80.4556 96.5454 80.4556C96.6779 80.4556 96.8294 80.4556 96.9429 80.3697C97.2079 80.1551 97.4729 80.0264 97.7379 80.0693C98.0787 80.1551 98.4194 79.8976 98.7412 80.1122C98.7601 80.1122 98.779 80.1981 98.798 80.241C98.779 80.2839 98.7601 80.3697 98.7222 80.4127C98.6276 80.4556 98.514 80.4985 98.4194 80.5414C98.2869 80.5844 98.1544 80.6702 98.0408 80.8848C97.984 80.9706 97.9462 81.0994 97.8894 81.1853C97.7947 81.314 97.719 81.3999 97.6054 81.3999C97.4351 81.4428 97.2647 81.4428 97.0944 81.4857C96.9808 81.5286 96.924 81.6574 96.8861 81.9149C96.8104 81.9149 96.7536 81.9149 96.6779 81.9149C96.6401 81.9149 96.6211 81.9579 96.5833 82.0008C96.5644 82.0437 96.5644 82.1295 96.5644 82.1295C96.6022 82.2583 96.6779 82.2583 96.7347 82.2154C96.7915 82.1295 96.8294 82.0437 96.8483 81.872C96.9429 81.9149 97.0565 81.9149 97.1322 82.0437C97.1511 82.0866 97.189 82.1725 97.189 82.2154C97.2079 82.3871 97.1701 82.5158 97.1133 82.6017C97.0754 82.6446 97.0565 82.6875 97.0186 82.7305C96.8294 82.8592 96.6211 82.8163 96.4319 83.0309C96.2426 83.2026 96.0533 83.3314 95.8451 83.4601C95.7693 83.5031 95.7126 83.546 95.6558 83.5031C95.4286 83.3743 95.2583 83.6318 95.0879 83.8464C94.9743 83.9752 94.8797 84.2757 94.785 84.4473C94.7093 84.5761 94.5958 84.662 94.52 84.7907C94.4822 84.8766 94.52 85.0483 94.5011 85.2199C94.4633 85.5633 94.3118 85.5633 94.1982 85.6921C94.1415 85.7779 94.0658 85.7779 94.009 85.6062C93.9333 85.4346 93.8954 85.2199 93.7629 85.3487C93.6683 85.4346 93.5736 85.5204 93.479 85.6062C93.2707 85.8638 93.0436 85.9925 92.7975 86.0784C92.6461 86.3359 92.4568 86.0784 92.3054 86.2072C92.1539 86.3788 91.9836 86.3788 91.8132 86.3788C91.6429 86.3788 91.4725 86.3788 91.3021 86.3788C91.0561 86.3359 90.8289 86.4647 90.6018 86.6793C90.4314 86.851 90.28 86.851 90.1096 86.6793C89.9582 86.5076 89.7689 86.5076 89.6175 86.3788C89.466 86.2501 89.3146 86.0355 89.1443 85.9496C88.9928 85.8638 88.9171 85.6492 88.8414 85.3487C88.7846 85.1341 88.7278 84.9624 88.6332 84.8336C88.6143 84.7907 88.5764 84.7478 88.5385 84.7478C88.3303 84.7907 88.16 85.0053 87.9518 85.0053C87.7625 85.0483 87.6678 85.3058 87.63 85.735C87.5921 86.1213 87.5353 86.1642 87.4407 85.9496C87.3839 85.8208 87.365 85.6921 87.2892 85.735C87.2703 85.735 87.2514 85.8638 87.2325 85.9067C87.1946 86.1642 87.1189 86.3359 87.0053 86.3359C86.7403 86.3788 86.4753 86.4647 86.2103 86.7222C86.1724 86.7651 86.1346 86.7651 86.1157 86.7222C85.9831 86.6364 85.8696 86.4218 85.7181 86.4647C85.5856 86.5076 85.491 86.7651 85.3774 86.9368C85.3017 87.0656 85.1692 87.0227 85.0935 86.851C84.9799 86.5934 84.8474 86.3359 84.7906 85.9496C84.7906 85.9067 84.7906 85.7779 84.8096 85.735C84.8285 85.6921 84.8663 85.5633 84.8853 85.6062C85.0746 85.735 85.2828 85.7779 85.491 85.7779C85.6046 85.7779 85.6992 85.6492 85.7371 85.4346C85.8128 85.0912 85.9074 84.7907 86.0399 84.4903C86.1914 84.1898 86.3617 83.9323 86.5889 83.9323C86.7971 83.9323 87.0053 83.8894 87.1946 83.8894C87.365 83.8894 87.5353 83.8035 87.6867 83.6747C87.876 83.5031 88.0842 83.546 88.2925 83.6318C88.4628 83.7177 88.6143 83.8894 88.7846 83.9323C88.9171 83.9752 89.0496 83.9752 89.1821 83.8035C89.3903 83.546 89.6364 83.4601 89.8636 83.4172C89.9014 83.4172 89.9393 83.4172 89.9582 83.4172C90.2989 83.5031 90.6396 83.3314 90.9425 82.988C90.9804 82.9451 90.9993 82.9451 91.0371 82.9451C91.1318 82.9022 91.1696 82.7734 91.0939 82.6446C90.9236 82.3871 90.7532 82.2154 90.5261 82.43C90.4125 82.5588 90.2611 82.5588 90.1286 82.6446C89.9014 82.8592 89.6743 82.988 89.4282 82.988C88.0653 82.9451 86.7024 83.0738 85.3396 83.0738C85.2449 83.0738 85.1314 83.0738 85.0367 83.1168C84.8664 83.2026 84.7149 83.3743 84.5446 83.4172C84.4121 83.4172 84.2796 83.4172 84.1281 83.4601C84.0524 83.4601 83.9956 83.5889 84.0145 83.7177C84.0335 83.8894 84.1092 83.9323 84.1849 83.8894C84.2796 83.8894 84.3931 83.8894 84.4878 83.9323C84.6203 83.9752 84.696 84.3615 84.6203 84.6619C84.5824 84.7907 84.5635 84.9624 84.5256 85.0483C84.3742 85.3487 84.3742 85.6492 84.4499 86.0784C84.5067 86.3788 84.3931 86.6793 84.2417 86.7222C84.1092 86.7651 83.9767 86.7651 83.8253 86.7651C83.6928 86.7651 83.5603 86.851 83.4278 86.9798C83.2574 87.1085 83.087 87.1514 82.9356 86.9798C82.7274 86.7651 82.5381 86.851 82.3488 87.0227C82.2542 87.1085 82.1406 87.0227 82.0649 86.8939C82.0081 86.8081 81.9513 86.7222 81.9135 86.5935C81.781 86.3359 81.6295 86.2072 81.4592 86.4647C81.3456 86.6364 81.2131 86.6364 81.0806 86.5076C80.8345 86.2072 80.5506 86.2072 80.2856 86.4218C80.2288 86.4647 80.1531 86.5505 80.0963 86.5935C79.8313 86.7651 79.5663 86.8081 79.3013 86.5505C79.112 86.3788 78.9227 86.2501 78.7145 86.2501C78.5063 86.2501 78.2981 86.2501 78.1088 86.2501C77.9952 86.2501 77.9006 86.3359 77.8248 86.4218C77.6923 86.5935 77.5788 86.6364 77.4463 86.5076C77.3516 86.4218 77.257 86.4218 77.1434 86.4647C77.0677 86.5076 77.0109 86.4647 76.9541 86.3788C76.8027 86.2072 76.6323 86.1642 76.462 86.3359C76.3673 86.4218 76.2727 86.5076 76.1591 86.4218C76.0455 86.3788 75.9509 86.4647 75.8562 86.5505C75.7616 86.6364 75.6669 86.6364 75.5534 86.5935C75.3641 86.4647 75.1748 86.2072 74.9666 86.2072C74.7962 86.2072 74.6259 86.0784 74.4744 85.9496C74.4176 85.9067 74.3419 85.9925 74.2851 86.0784C74.1337 86.3788 73.9444 86.5935 73.7551 86.7651C73.6605 86.851 73.5658 86.8939 73.4712 86.7651C73.3387 86.6364 73.2062 86.6364 73.0926 86.8081C72.8087 87.2373 72.5058 87.1944 72.203 86.9368C71.9948 86.7651 71.7487 86.6364 71.6162 86.0784C71.5973 86.0355 71.5594 85.9496 71.5405 85.9496C71.5026 85.9496 71.4648 85.9496 71.4458 85.9925C71.2565 86.3359 71.0862 86.7222 70.8212 86.6364C70.8401 86.5076 70.878 86.3788 70.8969 86.2501C70.9537 85.9496 70.9347 85.8208 70.8212 85.8208C70.7644 85.8208 70.6887 85.8209 70.6319 85.8638C70.5562 85.9067 70.5183 85.9925 70.4994 86.1213C70.4805 86.293 70.5183 86.4218 70.5751 86.5076C70.6697 86.6364 70.7644 86.6364 70.859 86.6364C70.8022 86.851 70.7265 86.9797 70.6319 87.0227C70.4615 87.0656 70.2912 87.1085 70.1208 87.1514C70.0072 87.1514 69.9315 87.2373 69.8369 87.3661C69.5529 87.7094 69.2501 87.6665 68.9472 87.4519C68.8526 87.409 68.7579 87.2802 68.6633 87.2373C68.5876 87.1944 68.5308 87.1944 68.4551 87.2802C68.2658 87.4519 68.0576 87.2373 67.8683 87.4519C67.679 87.6665 67.4708 87.5807 67.2626 87.5807C66.9218 87.5377 66.5811 87.7094 66.2404 87.5807C65.9375 87.4948 65.6347 87.5807 65.3129 87.5807C65.2182 87.5807 65.1047 87.6236 65.01 87.7094C64.8775 87.8382 64.745 87.7953 64.6125 87.7094C64.5557 87.6665 64.48 87.6665 64.4232 87.7094C64.2907 87.8382 64.1582 87.8382 64.0257 87.7953C63.9689 87.7523 63.8932 87.8382 63.8364 87.8811C63.7039 88.0099 63.5714 87.967 63.4579 87.7523C63.4011 87.6665 63.3632 87.5377 63.3064 87.4519C63.2118 87.2802 63.155 87.2802 63.0414 87.4519C62.9089 87.7094 62.7764 87.924 62.5871 87.7094C62.4925 87.6236 62.3789 87.6665 62.2843 87.7523C62.2086 87.8382 62.1518 87.8382 62.095 87.7953C61.9246 87.6665 61.7543 87.7094 61.6028 87.8811C61.5461 87.967 61.4703 87.967 61.4136 87.924C61.3757 87.8811 61.3378 87.8811 61.3189 87.8382C61.035 87.4519 60.7321 87.4519 60.4293 87.7953C60.2968 87.924 60.1643 87.8811 60.0318 87.7953C59.8993 87.7094 59.7667 87.6236 59.6342 87.5377C59.5585 87.4948 59.5207 87.3661 59.5585 87.2802C59.5775 87.2373 59.6153 87.1944 59.6532 87.1944C59.956 87.1944 60.2589 87.1514 60.5807 87.1514C60.8646 87.1514 61.1296 87.1514 61.3757 86.8081C61.6786 86.6793 61.9814 86.5505 62.2843 86.8081C62.36 86.851 62.4168 86.8939 62.4736 86.851C62.5682 86.8081 62.6818 86.7222 62.7764 86.7222C63.0793 86.6793 63.3821 86.6793 63.7039 86.6793C63.95 86.6793 64.1772 86.7222 64.4043 86.8939C64.4989 86.9797 64.5936 87.0227 64.7072 87.0227C64.9532 87.0656 65.1804 87.0656 65.4265 87.1085C65.6725 87.1514 65.8997 87.0227 66.1079 86.7651C66.2025 86.6793 66.2972 86.6364 66.4108 86.5935C66.884 86.5935 67.3572 86.5505 67.8304 86.5935C68.5497 86.6793 69.2501 86.5505 69.9694 86.5935C70.0262 86.5935 70.1019 86.5076 70.1587 86.4218C70.1776 86.4218 70.1587 86.293 70.1397 86.2072C70.1208 86.0784 70.083 85.9496 70.064 85.7779C70.0262 85.5204 69.9315 85.3916 69.8369 85.3487C69.6665 85.3058 69.4962 85.3058 69.3258 85.3058C69.269 85.3058 69.1933 85.3487 69.1365 85.3916C68.8904 85.735 68.6444 85.8209 68.3604 85.7779C67.9818 85.735 67.6033 85.735 67.2436 85.6921C67.149 85.6921 67.0354 85.6921 66.9408 85.6062C66.619 85.2629 66.2593 85.3916 65.9565 85.0483C65.8997 85.0053 65.824 85.0053 65.7672 85.0912C65.7104 85.1341 65.6347 85.2199 65.5779 85.2199C65.1425 85.3058 64.6882 85.2629 64.2529 85.0483C64.1204 85.0053 63.9879 84.8766 63.8554 84.8766C63.42 84.8336 62.9657 84.8336 62.5303 84.7907C62.2843 84.7907 62.0571 84.8766 61.83 85.0912C61.6975 85.2199 61.565 85.1341 61.4514 84.9195C61.3946 84.8336 61.3568 84.7049 61.3 84.619C61.2432 84.5332 61.1675 84.5332 61.1107 84.5761C60.9782 84.7049 60.8646 84.7907 60.7132 84.7907C60.5807 84.7907 60.4482 84.7907 60.2968 84.8336C60.1643 84.8336 60.0317 84.7907 59.8992 84.619C59.7289 84.4044 59.5775 84.4044 59.4071 84.5761C59.3503 84.619 59.2746 84.619 59.2178 84.5332C59.0853 84.4044 58.9528 84.4044 58.8203 84.5761C58.6878 84.7049 58.5742 84.7049 58.4228 84.619C58.1767 84.4044 58.1767 84.4473 58.1199 85.0053C58.101 85.1341 58.0631 85.2629 57.9874 85.2629C57.7224 85.2629 57.4385 85.2629 57.1735 85.0483C57.0789 84.9624 56.9653 84.9195 56.8706 85.0053C56.6813 85.177 56.4731 85.2199 56.2649 85.2199C55.5835 85.2629 54.902 85.3058 54.2206 85.2199C53.9556 85.177 53.6717 85.177 53.4067 85.3916C53.1417 85.6062 52.8767 85.6492 52.6117 85.6492C52.3088 85.6921 52.0059 85.6492 51.6841 85.6921C51.5516 85.6921 51.4191 85.735 51.2866 85.8638C51.1352 86.0355 51.0406 85.9067 50.927 85.6492C50.9081 85.6062 50.8702 85.5204 50.8513 85.4775C50.7377 85.2629 50.6052 85.2199 50.4727 85.2629C50.4348 85.2629 50.397 85.2629 50.3781 85.3058C50.0941 85.6062 49.7913 85.6492 49.4695 85.6492C48.8827 85.6921 48.3148 85.6921 47.728 85.6921C47.6523 85.6921 47.5955 85.735 47.5387 85.7779C47.5198 85.7779 47.5009 85.9067 47.5009 85.9067C47.6523 86.1642 48.1823 86.5505 48.3527 86.5505C48.4852 86.5505 48.6177 86.5505 48.7691 86.5076C48.9773 86.4647 49.1666 86.5505 49.3559 86.7651C49.6209 87.0227 49.8859 87.1085 50.1509 86.8939C50.2456 86.8081 50.3402 86.8081 50.4348 86.9368C50.5295 87.0227 50.6431 87.0227 50.7188 86.8939C50.927 86.5934 51.1541 86.5505 51.4002 86.5505C51.6084 86.5935 51.8166 86.5935 52.0059 86.7651C52.3088 87.0656 52.5927 87.0227 52.8956 86.7222C53.1417 86.4647 53.3499 86.5505 53.5581 86.9798C53.577 87.0227 53.6149 87.1085 53.6338 87.1514C53.7095 87.2802 53.7852 87.409 53.8988 87.2802C54.0692 87.0227 54.2963 87.0656 54.4856 86.8939C54.5235 86.851 54.5424 86.851 54.5802 86.851C54.6181 86.851 54.656 86.851 54.6749 86.8939C54.921 87.0656 55.1481 87.0227 55.3753 86.8081C55.5078 86.6793 55.6403 86.7651 55.716 87.1085C55.7728 87.3231 55.8674 87.366 55.981 87.3231C56.0567 87.2802 56.1135 87.3661 56.1703 87.4519C56.1892 87.4948 56.2271 87.5807 56.2271 87.6236C56.2649 87.8382 56.2271 87.924 56.1324 87.967C55.8674 88.0099 55.5835 88.1386 55.3185 88.0957C54.8831 88.0528 54.4288 88.1816 53.9935 88.0099C53.861 87.967 53.7285 88.0099 53.596 88.0528C53.4256 88.0957 53.2552 88.0528 53.1038 87.924C53.0092 87.8382 52.9145 87.8382 52.8009 87.924C52.6684 88.0528 52.5359 88.0957 52.4034 88.0957C51.8924 88.1386 51.3813 88.0957 50.8702 87.967C50.7756 87.924 50.662 87.8811 50.5673 87.7953C50.4916 87.7523 50.4348 87.7953 50.3781 87.8382C50.1888 88.0099 49.9805 88.0099 49.7723 88.0099C49.5073 88.0099 49.2234 88.0099 48.9584 87.967C48.8259 87.967 48.6934 87.924 48.5609 87.7953C48.4095 87.6665 48.2391 87.6236 48.0687 87.5807C47.9362 87.5377 47.7848 87.5377 47.6712 87.7094C47.4441 87.967 47.2169 88.0528 46.9709 88.0099C46.7627 88.0099 46.5544 88.0099 46.3651 88.0099C46.2326 88.0099 46.1001 87.967 45.9676 87.8382C45.8351 87.7094 45.7026 87.6236 45.5701 87.6236C45.1348 87.5807 44.6805 87.4948 44.2451 87.6236C44.018 87.6665 43.7719 87.6665 43.5258 87.6665C43.3555 87.6665 43.1851 87.5807 43.0147 87.4948C42.8444 87.409 42.7308 87.0656 42.5983 86.851C42.5037 86.7222 42.3901 86.7222 42.3144 86.851C42.2955 86.8939 42.2576 86.9368 42.2387 87.0227C42.1251 87.4948 41.9358 87.5807 41.7087 87.5807C41.5004 87.5807 41.3112 87.5377 41.1029 87.3661C40.9137 87.1514 40.7054 87.1085 40.4972 87.1944C40.3269 87.2373 40.1565 87.3231 39.9861 87.3661C39.8915 87.409 39.7779 87.409 39.6833 87.3661C39.2479 87.1944 38.8126 87.1944 38.3583 87.1514C38.0175 87.1514 37.6768 87.1514 37.3361 87.1514C36.9954 87.1514 36.6547 87.1514 36.3329 86.851C36.2382 86.7651 36.1247 86.851 36.03 86.9368C35.8975 87.0656 35.765 87.0227 35.6325 86.8939C35.5 86.7651 35.3675 86.6793 35.235 86.6793C34.7239 86.6793 34.2129 86.5505 33.7018 86.6793C33.3989 86.7651 33.0961 86.6793 32.7932 86.5935C32.7364 86.5935 32.6607 86.5076 32.6039 86.4218C32.5093 86.293 32.4335 86.1213 32.4146 85.9067C32.3768 85.5204 32.3768 85.1341 32.3389 84.7907C32.32 84.662 32.2632 84.5332 32.2064 84.4473C32.0739 84.3186 31.9414 84.3186 31.8089 84.2757C31.7142 84.2327 31.6196 84.1469 31.525 84.0181C31.4492 83.8894 31.3546 83.7177 31.2789 83.6318C31.1842 83.5031 31.0707 83.5031 30.995 83.6747C30.8814 83.8464 30.7867 84.061 30.6921 84.2757C30.6353 84.4044 30.6542 84.5761 30.6921 84.6619C30.711 84.7049 30.7489 84.7907 30.7867 84.7907C30.9571 84.7907 31.1275 84.7907 31.2978 84.8336C31.4303 84.8336 31.5628 85.0053 31.6575 85.2199C31.7332 85.3916 31.8089 85.5633 31.8657 85.735C31.8846 85.7779 31.8846 85.8638 31.8846 85.9496C31.8846 85.9925 31.8468 86.0784 31.8278 86.0784C31.1842 86.293 30.5028 86.293 29.9917 86.1642C29.9349 86.1642 29.8592 86.0784 29.8024 86.0355C29.7646 85.9925 29.7457 85.9925 29.7078 85.9496C29.5753 85.7779 29.4428 85.8209 29.3292 85.9925C29.1778 86.2072 29.0074 86.2072 28.8371 86.1642C28.7992 86.1642 28.7614 86.1213 28.7424 86.1213C28.5721 86.0784 28.4206 85.8208 28.2503 85.8208C27.9096 85.8208 27.5688 85.6921 27.2281 85.735C26.3763 85.8208 25.5245 85.7779 24.6727 85.6921C24.4077 85.6921 24.1238 85.6062 23.8777 85.3916C23.7452 85.2629 23.6127 85.2629 23.4802 85.2629C23.3666 85.2629 23.272 85.177 23.1963 85.0483C23.0638 84.8766 22.9502 84.8336 22.7988 84.8336C22.7609 84.8336 22.7231 84.8336 22.7041 84.8336C22.2877 84.8766 21.8902 84.7907 21.4927 84.5332C21.2277 84.3615 20.9627 84.3186 20.6977 84.104C20.5652 83.9752 20.4327 84.061 20.3002 84.1898C20.1298 84.3615 19.9595 84.3615 19.808 84.1898C19.543 83.8894 19.278 83.8464 19.013 84.0611C18.8805 84.1469 18.748 84.1469 18.6155 84.0181C18.483 83.8894 18.3505 83.8464 18.218 83.8464C18.1234 83.8464 18.0098 83.8894 17.9151 83.8894C17.7448 83.8894 17.5744 83.7606 17.4419 83.546C17.3851 83.4601 17.3284 83.3743 17.2716 83.2884C17.2148 83.2026 17.1391 83.1597 17.0823 83.2455C16.9498 83.3743 16.8362 83.5031 16.6848 83.5031C16.3062 83.5031 15.9276 83.5031 15.568 83.5031C15.3598 83.5031 15.1705 83.3743 14.9812 83.2026C14.6972 82.9451 14.3944 82.9021 14.0726 83.0738C13.978 83.1168 13.8833 83.2026 13.7697 83.2455C13.694 83.2884 13.6372 83.2884 13.5615 83.2455C13.3912 83.1597 13.2208 83.1168 13.0504 83.1168C12.5015 83.1168 11.9526 83.1168 11.4226 83.1168C11.1386 83.1168 10.8736 83.1597 10.6086 83.3314C10.4383 83.4601 10.2679 83.5031 10.0975 83.3743C9.6054 83.0309 9.09432 83.0309 8.58324 83.0309C8.41288 83.0309 8.26145 82.8163 8.14788 82.5159C8.09109 82.3442 8.05323 82.0437 8.11002 81.872C8.16681 81.7003 8.22359 81.4857 8.28038 81.314C8.37502 81.0136 8.37502 80.8419 8.26145 80.799C7.95859 80.6702 7.67466 80.4127 7.39072 80.1551C7.29608 80.0693 7.25822 79.8118 7.23929 79.5971C7.22037 79.4255 7.31501 79.0821 7.39072 79.0392C7.48537 78.9533 7.58001 78.8675 7.67466 78.7816C7.7693 78.6958 7.80716 78.3953 7.75037 78.2236C7.71251 78.0949 7.65573 78.009 7.59894 77.9232C7.44751 77.6227 7.44751 77.2364 7.48537 76.8501C7.48537 76.7643 7.5043 76.7214 7.52323 76.6355C7.58001 76.3351 7.59894 76.0346 7.59894 75.7342C7.59894 75.4766 7.56108 75.262 7.48537 75.0903C7.29608 74.6611 7.08786 74.2319 6.89858 73.8027C6.82286 73.631 6.76607 73.3734 6.82286 73.1588C6.97429 72.5579 6.99322 71.8282 7.16358 71.2273C7.22037 71.0127 7.18251 70.7552 7.10679 70.5835C6.97429 70.2401 6.82286 69.9397 6.69036 69.5534C6.61464 69.2958 6.6525 68.9095 6.74714 68.7379C6.95536 68.4374 7.18251 68.3516 7.40965 68.1799C7.44751 68.1799 7.48537 68.094 7.48537 68.0511C7.48537 68.0082 7.46644 67.9223 7.44751 67.8794C7.29608 67.6648 7.20144 67.3643 7.14465 66.9781C7.08786 66.6347 7.08786 66.6776 7.18251 66.3771C7.29608 66.0338 7.29608 65.9908 7.25822 65.7762C7.16358 65.347 7.05001 65.0036 6.9175 64.6173C6.80393 64.3169 6.82286 64.1881 6.93643 63.8018C6.99322 63.6301 7.08786 63.4584 7.05001 63.2009C7.01215 62.8575 7.06893 62.6429 7.16358 62.3854C7.31501 62.042 7.29608 61.9991 7.12572 61.6986C7.05001 61.5699 6.95536 61.4411 6.87965 61.2694C6.72822 60.8831 6.69036 60.4539 6.785 59.9817C6.82286 59.7671 6.87965 59.5954 6.84179 59.3379C6.785 59.0804 6.86072 58.9087 6.9175 58.737C7.01215 58.4795 7.14465 58.3936 7.25822 58.2219C7.33394 58.0932 7.39072 57.8356 7.35287 57.621C7.33394 57.4923 7.31501 57.3206 7.29608 57.1918C7.25822 56.9772 7.25822 56.7626 7.31501 56.548C7.40965 56.2046 7.39072 55.8183 7.35287 55.432C7.33394 55.2174 7.29608 55.0028 7.20144 54.8311C7.14465 54.7452 7.08786 54.6165 7.08786 54.4877C7.10679 54.3589 7.18251 54.2731 7.23929 54.1873C7.39072 53.8439 7.35287 53.5005 7.14465 53.3717C7.10679 53.3288 7.08786 53.3288 7.05001 53.3288C6.84179 53.243 6.67143 53.0284 6.50107 52.7708C6.53893 52.685 6.50107 52.5562 6.48214 52.4704C6.50107 52.4274 6.53893 52.4704 6.57679 52.4274C6.785 52.4274 6.97429 52.4704 7.16358 52.7708C7.18251 52.8138 7.22037 52.8138 7.25822 52.8138C7.33394 52.8138 7.39072 52.7708 7.39072 52.5991C7.39072 52.5562 7.3718 52.4274 7.35287 52.3845C7.23929 52.0841 7.06893 51.9982 6.9175 51.7836C6.82286 51.6549 6.74714 51.6978 6.6525 51.8695C6.55786 52.0841 6.48214 52.2128 6.48214 52.4704ZM28.9696 80.756C28.9317 80.756 28.8939 80.756 28.8749 80.756C28.7235 80.756 28.6099 80.8848 28.5721 81.2282C28.5531 81.3569 28.5153 81.5286 28.4964 81.6574C28.4585 81.872 28.5153 82.0437 28.6289 82.0437C28.856 82.0437 28.9317 81.9149 28.9506 81.3999C28.9506 81.1853 28.9506 80.9277 28.9506 80.7131C28.9885 80.7131 29.0074 80.6702 29.0453 80.6273C29.0642 80.6273 29.0642 80.5414 29.0642 80.4985C29.0074 80.4985 28.9696 80.5844 28.9696 80.756ZM81.497 85.3487C81.5538 85.6492 81.6295 85.8208 81.781 85.8208C81.8756 85.8208 81.9702 85.7779 82.0649 85.735C82.1406 85.6921 82.1785 85.5633 82.1406 85.4775C82.1217 85.4346 82.0838 85.3916 82.0649 85.3487C81.8756 85.2629 81.6863 85.2629 81.4781 85.3487C81.4213 84.8766 81.2888 84.5761 81.0995 84.4044C81.0049 84.3186 80.9102 84.2327 80.8156 84.1898C80.7967 84.1898 80.7588 84.2757 80.7399 84.3615C80.7209 84.4044 80.7209 84.4903 80.7399 84.5761C80.8345 85.0053 80.9859 85.3058 81.1942 85.3487C81.3077 85.3487 81.4024 85.3487 81.497 85.3487ZM17.9151 6.11449C17.8016 5.98573 17.688 5.81404 17.5555 5.72819C17.4041 5.64235 17.2337 5.59943 17.0633 5.55651C17.0444 5.55651 17.0066 5.47066 16.9876 5.42774C16.893 4.69806 16.893 4.69806 16.6658 4.48345C16.4955 4.31176 16.3441 4.61222 16.3441 5.04144C16.3441 5.21313 16.363 5.38482 16.3251 5.42774C16.2683 5.51358 16.1926 5.51358 16.1358 5.55651C16.098 5.55651 16.0601 5.59943 16.0412 5.64235C16.0223 5.68527 15.9844 5.72819 15.9844 5.81404C15.9655 5.9428 16.0033 6.02865 16.098 6.07157C16.2305 6.11449 16.363 6.11449 16.4955 6.11449C16.7416 6.07157 16.9687 6.15742 17.1769 6.37203C17.3284 6.54371 17.4987 6.50079 17.6691 6.45787C17.7637 6.41495 17.8584 6.28618 17.8773 6.07157C17.9341 6.07157 18.0098 6.07157 18.0666 6.07157C18.1044 6.07157 18.1234 6.02865 18.1423 5.98573C18.1612 5.9428 18.1612 5.85696 18.1612 5.85696C18.1234 5.72819 18.0666 5.72819 17.9909 5.81404C17.9719 5.85696 17.9341 5.98573 17.9151 6.11449ZM23.0259 81.6574C23.0449 81.8291 23.0827 81.9579 23.1584 81.9579C23.3288 82.0437 23.4802 82.0866 23.6316 82.3012C23.6884 82.3871 23.7641 82.3871 23.8209 82.3442C24.0102 82.1296 24.1995 82.0437 24.4077 82.0437C24.5781 82.0437 24.7484 82.0866 24.8999 81.9579C24.9756 81.9149 25.0135 81.7862 24.9945 81.6145C24.9945 81.5716 24.9567 81.4857 24.9377 81.4428C24.8809 81.357 24.8242 81.314 24.7484 81.314C24.6159 81.314 24.4834 81.4428 24.3699 81.5286C24.2752 81.6145 24.1806 81.5716 24.0859 81.4428C23.8966 81.1853 23.7074 81.1853 23.5181 81.3999C23.3666 81.5716 23.2152 81.7003 23.0449 81.7003C23.0259 81.6145 23.0259 81.5286 23.007 81.4857C22.9313 81.357 22.8366 81.2282 22.7609 81.0994C22.6473 80.9277 22.5148 80.8848 22.3823 81.0136C22.3256 81.0994 22.2498 81.1423 22.1931 81.1423C21.8145 81.1423 21.4548 81.1853 21.0763 81.1423C21.0195 81.1423 20.9438 81.0994 20.887 81.0136C20.7734 80.8419 20.6598 80.6702 20.5652 80.4985C20.5084 80.4127 20.3948 80.5414 20.3191 80.756C20.2812 80.8848 20.2812 81.0565 20.338 81.1853C20.3948 81.2711 20.4516 81.357 20.5084 81.4428C20.5463 81.4857 20.5652 81.4857 20.603 81.4857C20.6788 81.4857 20.7355 81.5286 20.8113 81.5286C21.0195 81.5716 21.2088 81.6145 21.417 81.6145C21.663 81.6145 21.8713 81.872 22.0984 82.0008C22.3066 82.0866 22.4959 82.1295 22.6852 81.872C22.7609 81.7432 22.8934 81.7003 23.0259 81.6574ZM18.1234 80.241C18.1991 80.6702 18.2937 81.0565 18.4262 81.3999C18.4452 81.4428 18.483 81.4857 18.5019 81.4857C18.6155 81.5286 18.748 81.314 18.8048 81.0136C18.8237 80.8848 18.748 80.5414 18.6723 80.4556C18.6155 80.4127 18.5398 80.3268 18.483 80.3268C18.3505 80.2839 18.218 80.2839 18.0855 80.2839C18.0666 80.1122 18.0287 79.9835 17.9719 79.8976C17.9151 79.8118 17.8394 79.7688 17.7826 79.683C17.5744 79.3396 17.3473 79.2967 17.1012 79.4684C17.0066 79.5542 16.9119 79.5542 16.7983 79.4684C16.4387 79.2108 16.0601 79.2538 15.6815 79.3396C15.5869 79.3396 15.4733 79.4255 15.3976 79.5542C15.284 79.7259 15.1515 79.7688 15.0001 79.7688C14.9622 79.5542 14.8865 79.3825 14.7919 79.3396C14.6594 79.2538 14.5269 79.2538 14.3944 79.3825C14.3755 79.4255 14.3565 79.4684 14.3376 79.5113C14.3565 79.5542 14.3944 79.6401 14.4133 79.6401C14.6215 79.7259 14.8108 79.7259 15.019 79.7259C15.038 79.8976 15.0948 79.9834 15.1515 80.0264C15.2462 80.1122 15.3408 80.1551 15.4355 80.241C15.568 80.3697 15.6248 80.6702 15.7194 80.8848C15.7951 81.0565 15.8898 81.0994 15.9844 80.9707C16.0412 80.8848 16.098 80.799 16.1548 80.7131C16.2683 80.4985 16.3819 80.4556 16.5144 80.5414C16.6848 80.6702 16.8362 80.6702 17.0066 80.4985C17.1959 80.2839 17.3851 80.1981 17.5934 80.1981C17.8016 80.241 17.953 80.241 18.1234 80.241ZM28.1556 6.11449C28.061 6.02865 28.0042 5.85696 27.9474 5.64235C27.8528 5.29897 27.7771 5.17021 27.6256 5.21313C27.4174 5.25605 27.2281 5.25605 27.0199 5.34189C26.8306 5.47066 26.6413 5.59943 26.4331 5.42774C26.3763 5.38482 26.3006 5.42774 26.2438 5.51358C26.0735 5.68527 25.922 5.68527 25.7517 5.51358C25.6949 5.47066 25.6192 5.38482 25.5624 5.42774C25.3731 5.55651 25.1649 5.55651 24.9945 5.77112C24.9756 5.81404 24.9377 5.85696 24.9377 5.9428C24.9188 6.02865 24.9188 6.11449 24.9377 6.15742C25.0892 6.80125 25.1838 6.97294 25.4867 6.80125C25.5624 6.75833 25.6192 6.7154 25.676 6.80125C25.8463 6.93001 25.9977 6.88709 26.1492 6.67248C26.2438 6.54371 26.3385 6.54371 26.4331 6.58664C26.4899 6.58664 26.5656 6.67248 26.6224 6.7154C26.6603 6.75833 26.6792 6.75833 26.717 6.80125C26.8117 6.88709 26.9253 6.97294 27.001 6.88709C27.2849 6.62956 27.5878 6.58664 27.8906 6.54371C27.9853 6.50079 28.061 6.37203 28.0988 6.11449C28.1367 6.11449 28.1556 6.07157 28.1935 6.02865C28.2124 5.98573 28.2124 5.9428 28.2124 5.89988C28.1935 5.85696 28.1556 5.9428 28.1556 6.11449ZM87.63 79.7688C87.63 79.3396 87.611 78.9104 87.7246 78.4812C87.7435 78.4382 87.7435 78.3524 87.7435 78.2666C87.7435 78.1378 87.7057 78.009 87.63 77.9661C87.365 77.8803 87.1 77.9232 86.835 78.009C86.7782 78.009 86.7214 78.1378 86.6646 78.2236C86.6457 78.2666 86.6457 78.3524 86.6267 78.4382C86.6078 78.567 86.6078 78.7387 86.5889 78.8675L86.6078 78.8246C86.3807 78.8675 86.1346 78.9533 85.9264 78.6529C85.8885 78.6099 85.8128 78.7387 85.7939 78.8675C85.7749 79.1679 85.7749 79.4684 85.7749 79.7688L85.7939 79.7259C85.6992 79.7688 85.5856 79.7688 85.5099 79.9405C85.4531 80.0264 85.4342 80.1981 85.4342 80.3268C85.4531 80.4556 85.491 80.6273 85.5667 80.6273C85.7749 80.6702 85.9642 80.6702 86.1724 80.7131C86.3428 80.7131 86.4942 80.8419 86.6078 81.1853C86.6646 81.3999 86.7592 81.4857 86.8539 81.5286C86.9864 81.5716 87.1189 81.6145 87.2514 81.6145C87.5542 81.6145 87.8571 81.5716 88.16 81.5286C88.2357 81.5286 88.2925 81.4428 88.2925 81.314C88.2925 81.2282 88.2735 81.1423 88.2357 81.1423C88.1032 81.0136 88.0464 80.7131 87.9896 80.4556C87.9139 80.1551 87.7814 79.9405 87.63 79.7688ZM77.522 80.0693C77.3327 79.8547 77.1434 79.683 76.9541 79.5113C76.8216 79.3825 76.6891 79.3396 76.5566 79.4255C76.3862 79.5113 76.2348 79.5971 76.0645 79.5113C75.6859 79.3396 75.3262 79.3825 74.9666 79.7259C74.8719 79.8118 74.7584 79.8118 74.6637 79.7259C74.4176 79.4255 74.1526 79.3825 73.8687 79.3825C73.6037 79.3825 73.3198 79.3825 73.0548 79.3825C72.8466 79.3825 72.6573 79.3396 72.4491 79.125C72.3923 79.0821 72.3166 79.125 72.2598 79.1679C72.1083 79.2967 71.938 79.4684 71.7865 79.6401C71.654 79.5113 71.5215 79.4255 71.408 79.2967C71.2376 79.125 71.0862 79.125 70.9158 79.2538C70.5562 79.4684 70.1776 79.4255 69.8179 79.1679C69.6097 78.9962 69.4204 78.9962 69.2122 79.1679C69.1176 79.2538 69.0229 79.2538 68.9094 79.2108C68.6822 79.125 68.6822 79.125 68.5119 79.2108C68.4172 79.2538 68.3036 79.2967 68.209 79.3825C68.1711 79.3825 68.1522 79.4684 68.1333 79.5113C68.1143 79.5971 68.1711 79.683 68.2468 79.683C68.4929 79.7688 68.7201 79.7259 68.9661 79.7259C69.269 79.7259 69.5719 79.8118 69.8747 80.0264C70.0072 80.1122 70.1397 80.0264 70.2722 79.9405C70.3669 79.8547 70.4615 79.7688 70.5751 79.7688C70.7833 79.7688 70.9915 79.7259 71.1808 79.8976C71.3701 80.0693 71.5783 80.1122 71.7865 80.1551C72.0894 80.1551 72.3923 80.1981 72.7141 80.1981C72.8466 80.1981 72.9791 80.2839 73.1116 80.4556C73.2819 80.6702 73.4333 80.5844 73.6037 80.4556C73.6983 80.3697 73.793 80.2839 73.9066 80.2839C74.1526 80.241 74.3798 80.241 74.6259 80.241C74.8341 80.241 75.0234 80.2839 75.2316 80.4985C75.3262 80.5844 75.4398 80.6273 75.5344 80.5414C75.6669 80.4556 75.7994 80.4556 75.932 80.5844C76.0266 80.6702 76.1402 80.6702 76.2348 80.6702C76.6702 80.6702 77.1245 80.6702 77.5598 80.6273C77.6545 80.6273 77.768 80.5414 77.8627 80.4985C77.9384 80.4556 77.9952 80.4127 78.052 80.4985C78.2791 80.7131 78.5063 80.7131 78.7334 80.4127C78.8281 80.2839 78.9227 80.2839 79.0173 80.241C79.0552 80.241 79.0741 80.1981 79.112 80.1551C79.1877 80.0693 79.2066 79.9405 79.2066 79.8118C79.2066 79.6401 79.1688 79.5113 79.0931 79.4684C78.7523 79.2967 78.4116 79.3396 78.0709 79.4255C77.9763 79.4684 77.8816 79.5542 77.787 79.683C77.6923 79.8547 77.5977 79.9405 77.522 80.0693ZM66.7704 83.9323C66.9029 83.8894 66.9976 83.8894 67.0922 83.8464C67.2436 83.8035 67.3004 83.6318 67.2436 83.4172C67.149 83.0738 67.0543 82.7734 66.9786 82.43C66.9218 82.2154 66.8272 82.1295 66.7326 82.0866C66.6001 82.0437 66.4675 82.0437 66.335 82.0437C66.1647 82.0437 66.0133 81.8291 65.8429 81.7433C65.7482 81.7003 65.6347 81.6574 65.54 81.6574C65.3318 81.6145 65.1425 81.6574 64.9532 81.872C64.8397 82.0008 64.7072 82.0866 64.5557 82.0866C63.9122 82.0866 63.2686 82.0866 62.625 82.0437C62.4925 82.0437 62.36 82.0008 62.2275 81.9579C62.0193 81.6574 61.7543 82.0008 61.5461 81.7003C61.4703 81.7003 61.4136 81.7003 61.3378 81.7433C61.2053 81.872 61.0728 81.8291 60.9403 81.7003C60.9025 81.6574 60.8835 81.6574 60.8457 81.6574C60.6564 81.5716 60.5239 81.7432 60.3914 82.0008C60.3725 82.0437 60.3535 82.1295 60.3725 82.2154C60.3725 82.2583 60.3914 82.3442 60.4293 82.3442C60.6564 82.5588 60.9025 82.5159 61.1296 82.5159C61.4325 82.5159 61.7353 82.5159 62.0382 82.7734C62.095 82.8163 62.1707 82.7734 62.2275 82.7305C62.36 82.6017 62.4925 82.6446 62.625 82.7734C62.6818 82.8163 62.7575 82.8163 62.8143 82.7734C62.9468 82.6875 63.0793 82.6446 63.2118 82.8163C63.2686 82.9022 63.3443 82.9022 63.4011 82.9451C63.6093 82.9451 63.7986 82.9451 64.0068 82.9451C64.1014 82.9451 64.1961 83.0309 64.2907 83.1168C64.3854 83.2026 64.48 83.2455 64.5747 83.1168C64.6882 82.988 64.8207 82.8592 64.9343 82.7305C65.0668 82.6017 65.1804 82.5159 65.3318 82.5159C65.5022 82.5159 65.6725 82.5159 65.8429 82.5159C65.9754 82.5159 66.1079 82.6017 66.1836 82.9022C66.2404 83.1168 66.2972 83.2884 66.354 83.4601C66.4486 83.7177 66.5811 83.8035 66.7136 83.8464C66.7325 83.9752 66.7704 83.9323 66.7704 83.9323ZM24.3888 79.8547C24.5213 79.8547 24.7863 79.8547 25.0702 79.7259C25.1081 79.7259 25.1649 79.6401 25.1649 79.6401C25.1649 79.4684 25.1081 79.4255 25.0324 79.3825C24.7863 79.2108 24.7863 79.2109 24.9567 78.7816C25.0135 78.6529 25.0324 78.5241 25.0134 78.3524C24.9945 78.2236 24.9377 78.0949 24.8809 78.0519C24.6538 77.9661 24.4077 77.8803 24.1806 78.0949C23.9534 78.3095 23.7263 78.3953 23.4802 78.3953C23.272 78.3953 23.0638 78.3953 22.8745 78.567C22.6852 78.7387 22.477 78.7816 22.2877 78.8246C22.1173 78.8246 21.947 78.8675 21.7766 78.9104C21.7198 78.9104 21.663 79.0392 21.6063 79.125C21.4738 79.3396 21.4548 79.6401 21.5684 79.8976C21.663 80.1122 21.7577 80.3268 21.8713 80.4985C21.9659 80.6273 22.0795 80.6273 22.1552 80.4985C22.2309 80.3697 22.3256 80.241 22.4013 80.1122C22.4959 79.9835 22.5906 79.9835 22.6852 80.0693C22.8556 80.241 23.0259 80.241 23.1774 80.1122C23.4424 79.8976 23.7074 79.8118 23.9724 79.8118C24.0481 79.8118 24.1617 79.8118 24.3888 79.8547ZM42.2008 86.0784C42.2387 86.1213 42.2576 86.1213 42.2955 86.1642C42.3901 86.2501 42.4847 86.293 42.5983 86.293C42.674 86.293 42.7308 86.2072 42.7687 86.0784C42.8255 85.9067 42.8065 85.6062 42.7119 85.4775C42.5983 85.3058 42.5226 85.0912 42.5415 84.7478C42.5415 84.7049 42.5226 84.619 42.5037 84.5761C42.428 84.4473 42.3333 84.3186 42.2387 84.2327C42.144 84.104 42.0494 84.104 41.9547 84.1898C41.8601 84.2757 41.7654 84.4044 41.6897 84.4903C41.5383 84.662 41.5383 84.662 41.6897 85.0053C41.7087 85.0483 41.7276 85.177 41.7276 85.2199C41.7276 85.2629 41.6708 85.3058 41.6329 85.3058C41.4247 85.3487 41.2354 85.3916 41.0272 85.4775C40.9894 85.4775 40.9704 85.5204 40.9326 85.5633C40.9515 85.6062 40.9704 85.6921 40.9894 85.735C41.2165 86.0784 41.4626 86.3359 41.6897 86.6364C41.8222 86.7651 41.8979 86.7222 42.0305 86.3788C42.0872 86.2501 42.144 86.1213 42.2008 86.0784ZM26.8306 79.1679C26.7928 79.2538 26.7549 79.2967 26.7549 79.3396C26.736 79.4255 26.736 79.5113 26.7549 79.5542C26.8874 79.8976 27.0199 80.241 27.1524 80.5844C27.266 80.8848 27.3228 81.2282 27.3606 81.6145C27.3796 81.9149 27.4174 81.9149 27.531 81.5716C27.5878 81.3999 27.6635 81.2282 27.7581 81.1423C27.8906 81.0136 27.9285 80.7131 28.0421 80.4985C28.0988 80.4127 28.1556 80.3268 28.2313 80.3268C28.326 80.3268 28.4396 80.2839 28.5342 80.241C28.5721 80.241 28.591 80.1551 28.6099 80.1122C28.6478 79.9835 28.6099 79.8547 28.5721 79.7259C28.4963 79.5542 28.4017 79.4255 28.3071 79.4255C28.0042 79.3825 27.7013 79.3396 27.3985 79.2967C27.3038 79.2967 27.1903 79.3396 27.0956 79.2967C27.001 79.2967 26.9063 79.2108 26.8306 79.1679ZM45.5701 85.7779V85.8208C45.3998 85.8208 45.2294 85.8208 45.0591 85.8208C45.0023 85.8208 44.9266 85.8638 44.8698 85.9067C44.7941 85.9496 44.7751 86.0784 44.8319 86.2501C44.9076 86.5076 45.0023 86.7222 45.1159 86.8939C45.2294 87.0656 45.3619 87.1514 45.4944 87.1085C45.5701 87.0656 45.6269 87.0656 45.6837 86.9798C45.8541 86.8081 46.0055 86.8081 46.1759 86.9368C46.2705 87.0227 46.3652 86.8939 46.4219 86.6793C46.5355 86.2501 46.4787 85.8638 46.2705 85.8208C46.0434 85.8208 45.7973 85.8209 45.5701 85.7779ZM19.5052 6.50079C19.6566 6.54371 19.8459 6.54371 19.9595 6.24326C20.2055 5.72819 20.4895 5.59943 20.7923 5.64235C20.887 5.64235 21.0005 5.64235 21.0952 5.64235C21.152 5.64235 21.2088 5.51358 21.2845 5.47066C21.2655 5.38482 21.2655 5.29897 21.2466 5.25605C21.1141 4.99852 21.0195 4.69806 20.9059 4.44053C20.8302 4.26884 20.7166 4.22592 20.6409 4.39761C20.5273 4.5693 20.4327 4.78391 20.3191 4.9556C20.1677 5.17021 20.0162 5.3419 19.8648 5.47066C19.7702 5.55651 19.6755 5.59943 19.5809 5.68527C19.543 5.72819 19.5241 5.72819 19.4862 5.72819C19.3916 5.81404 19.3159 5.9428 19.278 6.20034C19.2402 6.37203 19.3348 6.50079 19.5052 6.50079ZM23.2909 4.74099C23.0827 4.69806 22.9502 4.78391 22.8177 4.99852C22.742 5.12728 22.6852 5.42774 22.7231 5.59943C22.742 5.68527 22.742 5.72819 22.7609 5.81404C22.7988 5.9428 22.8366 6.07157 22.8745 6.20034C22.9502 6.45787 23.0638 6.58664 23.2152 6.50079C23.4802 6.37203 23.6127 6.02865 23.6316 5.38482C23.6316 5.08436 23.5181 4.78391 23.3856 4.74099C23.3477 4.74099 23.3099 4.74099 23.2909 4.74099ZM79.0741 78.8246C79.2634 78.9104 79.3581 79.0821 79.4338 79.3396C79.5095 79.6401 79.642 79.7259 79.7745 79.7259C79.8691 79.7259 79.9827 79.683 80.0774 79.6401C80.172 79.5971 80.2666 79.2967 80.2288 79.125C80.1909 78.9104 80.1341 78.7387 80.0774 78.5241C79.9827 78.1807 79.9827 78.1807 79.8502 78.2666C79.7556 78.3095 79.6609 78.3953 79.5474 78.3953C79.4149 78.3953 79.2823 78.3953 79.1498 78.3953C79.0741 78.3953 79.0173 78.4382 78.9606 78.567C78.9984 78.7387 79.0552 78.8246 79.0741 78.8246ZM4.51355 48.7791C4.57033 48.7791 4.53247 48.7791 4.51355 48.7791C4.4189 48.822 4.34319 48.8649 4.34319 48.9508C4.34319 49.1225 4.39997 49.1654 4.47569 49.2512C4.66498 49.4658 4.85426 49.5517 5.06248 49.5946C5.19498 49.5946 5.32748 49.7234 5.44106 49.8521C5.55463 49.9809 5.61142 49.938 5.70606 49.7663C5.78178 49.5517 5.78178 49.3371 5.68713 49.2083C5.47891 48.9508 5.25177 48.7791 5.02462 48.7791C4.87319 48.7791 4.74069 48.7791 4.51355 48.7791ZM61.3 78.009C61.1107 78.009 60.9782 78.009 60.8457 78.009C60.7889 78.009 60.7321 78.1378 60.6564 78.1807C60.5996 78.2666 60.5428 78.3953 60.5618 78.567C60.5618 78.6958 60.6375 78.7387 60.7132 78.7816C60.9782 78.9104 61.2432 78.9104 61.5082 78.7387C61.565 78.6958 61.6218 78.6099 61.6786 78.5241C61.6975 78.4812 61.7164 78.3953 61.7353 78.3524C61.7732 78.1807 61.7353 78.0949 61.6407 78.0949C61.5082 78.0519 61.3757 78.052 61.3 78.009ZM58.631 78.3953C58.8392 78.3953 59.0475 78.3953 59.2367 78.3953C59.2935 78.3953 59.3692 78.3524 59.426 78.3095C59.4639 78.3095 59.4828 78.2236 59.5017 78.1807C59.4828 78.1378 59.445 78.0519 59.426 78.0519C59.1042 77.8373 58.7635 77.9661 58.4417 77.9661C58.2714 77.9661 58.1199 77.8373 57.9685 77.7086C57.9117 77.6657 57.836 77.6227 57.7792 77.6227C57.7603 77.6227 57.7224 77.7086 57.7035 77.7515C57.6846 77.7944 57.7035 77.8803 57.7035 77.9232C57.7603 78.1378 57.836 78.2666 57.9496 78.3095C58.1767 78.3095 58.4039 78.3524 58.631 78.3953ZM28.4585 85.3058C28.5153 85.2629 28.591 85.2629 28.6478 85.2199C28.6856 85.2199 28.7046 85.1341 28.7235 85.0912C28.8181 84.9624 28.856 84.7049 28.8371 84.5332C28.7992 84.3186 28.7235 84.1469 28.6289 84.104C28.5721 84.061 28.4963 84.061 28.4396 84.104C28.2881 84.2327 28.1367 84.3615 27.9663 84.4473C27.8906 84.4903 27.8528 84.5761 27.8528 84.7049C27.8528 84.7478 27.8906 84.8336 27.9096 84.8766C28.0231 85.0053 28.1556 85.1341 28.2692 85.2629C28.326 85.3058 28.4017 85.3058 28.4585 85.3058ZM15.038 5.59943C15.1326 5.59943 15.2083 5.59943 15.2651 5.55651C15.3408 5.51358 15.3787 5.38482 15.3787 5.25605C15.3976 5.08436 15.3598 4.9556 15.284 4.91267C15.0948 4.74099 14.8865 4.78391 14.6783 4.82683C14.6405 4.82683 14.6215 4.86975 14.5837 4.91267C14.508 4.9556 14.4701 5.08436 14.489 5.29897C14.508 5.42774 14.5647 5.55651 14.6215 5.55651C14.7919 5.55651 14.9244 5.59943 15.038 5.59943ZM90.3368 80.756C90.3368 80.756 90.3368 80.7131 90.3368 80.756C90.1664 80.7131 89.9961 80.7131 89.8257 80.7131C89.7311 80.7131 89.6364 80.8419 89.5607 80.9707C89.5418 81.0136 89.5418 81.1423 89.5418 81.1853C89.5607 81.314 89.5986 81.4428 89.6743 81.4857C89.7121 81.4857 89.75 81.5286 89.7689 81.4857C90.0528 81.1853 90.3557 81.0994 90.6586 81.0994C90.7343 81.0994 90.7911 81.0994 90.8668 81.0565C90.9046 81.0565 90.9425 81.0136 90.9425 80.9277C90.9614 80.8419 90.9236 80.7131 90.8289 80.7131C90.6775 80.7131 90.5071 80.756 90.3368 80.756ZM38.2636 85.1341C38.2447 85.0483 38.2447 84.9624 38.2258 84.9195C38.0933 84.5332 37.9608 84.1898 37.7525 84.0611C37.6579 83.9752 37.5633 83.8464 37.4686 83.7606C37.4497 83.7606 37.4118 83.8464 37.3929 83.8894C37.374 83.9323 37.374 84.061 37.3929 84.104C37.4875 84.4903 37.62 84.8766 37.7904 85.1341C37.904 85.3487 38.0365 85.3487 38.169 85.2629C38.2068 85.2629 38.2258 85.177 38.2636 85.1341ZM94.6525 42.77C94.52 42.77 94.3875 42.77 94.255 42.77C94.1604 42.77 94.1225 42.8558 94.1225 42.9417C94.1225 43.0275 94.1604 43.0704 94.1793 43.1134C94.2361 43.1992 94.2929 43.285 94.3497 43.328C94.4822 43.4567 94.5958 43.5426 94.7472 43.3709C94.8986 43.2421 95.069 43.1134 95.2204 42.9417C95.2393 42.9417 95.2393 42.8558 95.2583 42.8129C95.2204 42.77 95.2015 42.7271 95.1636 42.7271C94.9933 42.77 94.8229 42.77 94.6525 42.77ZM100.653 45.5599C100.502 45.6028 100.388 45.6028 100.293 45.6458C100.237 45.6887 100.161 45.7316 100.104 45.8174C100.047 45.9033 100.009 46.0321 100.009 46.2037C100.009 46.2467 100.066 46.2896 100.104 46.2896C100.237 46.3325 100.369 46.3754 100.502 46.3754C100.558 46.3754 100.634 46.2896 100.691 46.2467C100.785 46.1608 100.842 45.8174 100.785 45.6887C100.729 45.6028 100.672 45.5599 100.653 45.5599ZM19.4105 75.6483C19.543 75.6483 19.6566 75.6483 19.7512 75.6483C19.7891 75.6483 19.827 75.6483 19.8459 75.6054C19.9216 75.6054 19.9784 75.5195 20.0352 75.4337C20.0162 75.3049 19.9595 75.262 19.8837 75.2191C19.6187 75.0903 19.3348 75.2191 19.0887 74.9616C19.0698 74.9186 19.0319 74.9616 18.9941 74.9616C18.9184 75.0045 18.8805 75.0903 18.8427 75.2191C18.8048 75.3908 18.8427 75.5195 18.9373 75.5195C19.1266 75.5625 19.278 75.6054 19.4105 75.6483ZM94.274 83.8035C94.255 83.546 94.1983 83.4172 94.1225 83.2884C94.0468 83.1597 93.9333 83.1597 93.8575 83.3314C93.7818 83.5031 93.744 83.6748 93.7061 83.8894C93.6683 84.104 93.7061 84.3186 93.8008 84.3615C93.9711 84.4044 94.1225 84.3186 94.2361 84.0181C94.255 83.9323 94.255 83.8464 94.274 83.8035ZM42.9012 7.40216C42.958 7.35923 43.0337 7.35923 43.0905 7.31631C43.1662 7.27339 43.204 7.18755 43.204 7.01586C43.204 6.84417 43.1473 6.75832 43.0905 6.75832C42.9958 6.80125 42.9012 6.80125 42.8065 6.67248C42.6551 6.50079 42.5037 6.45787 42.3333 6.54371C42.2576 6.58664 42.2008 6.62956 42.1819 6.75832C42.1819 6.75832 42.2197 6.88709 42.2576 6.88709C42.409 6.97294 42.5794 7.1017 42.7119 7.27339C42.7687 7.35923 42.8444 7.35923 42.9012 7.40216ZM83.1438 10.235C83.2385 10.1921 83.2953 10.1921 83.371 10.1492C83.4656 10.1062 83.4846 9.97748 83.4278 9.80579C83.2953 9.37657 83.106 9.33365 82.8978 9.4195C82.822 9.46242 82.8031 9.59118 82.7842 9.76287C82.7842 9.93456 82.8031 10.0633 82.8788 10.1062C82.9735 10.1921 83.0681 10.1921 83.1438 10.235ZM29.2535 6.02865C29.2914 5.85696 29.2724 5.77112 29.1778 5.68527C29.0074 5.59943 28.856 5.64235 28.7046 5.77112C28.6289 5.85696 28.591 5.9428 28.6099 6.11449C28.6289 6.24326 28.6667 6.37203 28.7424 6.41495C28.8749 6.50079 29.0074 6.45787 29.121 6.3291C29.1967 6.28618 29.2346 6.15742 29.2535 6.02865ZM14.224 77.4081C14.224 77.4081 14.2997 77.4081 14.3565 77.4081C14.4322 77.3652 14.5647 77.3652 14.3944 77.1506C14.3755 77.1077 14.3376 77.1077 14.2997 77.1077C14.1294 77.0647 13.978 76.9789 13.8076 76.8501C13.7887 76.8501 13.7508 76.8501 13.7319 76.8931C13.7129 76.936 13.6751 76.9789 13.6751 77.0647C13.6751 77.1506 13.6751 77.2364 13.694 77.2794C13.8265 77.494 13.9969 77.4081 14.224 77.4081ZM8.77253 78.3524C8.82931 78.3524 8.90503 78.3524 8.96182 78.3095C9.0186 78.2666 9.05646 78.1378 9.07539 78.009C9.09432 77.8373 9.07539 77.7515 8.99967 77.6227C8.86717 77.451 8.7536 77.451 8.64003 77.6227C8.56431 77.7086 8.54538 77.8373 8.56431 77.9661C8.58324 78.0949 8.60217 78.2236 8.67788 78.3095C8.69681 78.3524 8.73467 78.3524 8.77253 78.3524ZM90.1475 77.5369C90.0718 77.5369 90.015 77.5369 89.9393 77.5798C89.9014 77.5798 89.8825 77.6227 89.8446 77.6656C89.7689 77.7086 89.75 77.8373 89.8068 78.009C89.9014 78.3095 90.0907 78.3953 90.2611 78.2236C90.3178 78.1378 90.3557 78.009 90.3746 77.8373C90.3936 77.6657 90.28 77.5369 90.1475 77.5369ZM84.3363 80.6273C84.6581 80.6273 84.7906 80.6273 84.9231 80.6273C84.9989 80.6273 85.0556 80.4985 85.0178 80.4127C84.9989 80.3697 84.961 80.3268 84.9421 80.3268C84.6771 80.3268 84.4121 80.3697 84.1471 80.3697C84.1092 80.3697 84.0903 80.4556 84.0713 80.4985C84.0903 80.5414 84.1092 80.5844 84.1471 80.6273C84.2606 80.7131 84.3931 80.6702 84.3363 80.6273ZM27.2092 84.4044C27.1335 84.4044 27.0767 84.4044 27.001 84.4473C26.9631 84.4473 26.9253 84.4903 26.9063 84.4903C26.8685 84.5332 26.8306 84.5761 26.8306 84.619C26.8306 84.7907 26.8874 84.8766 26.9442 84.9195C27.0767 85.0053 27.1713 85.2199 27.3228 85.177C27.3796 85.177 27.4363 85.0483 27.4553 84.9195C27.4742 84.7478 27.4553 84.619 27.3796 84.5332C27.3417 84.4903 27.266 84.4473 27.2092 84.4044ZM43.9612 85.8208C43.8855 85.8208 43.8287 85.8638 43.7908 85.9925C43.7908 86.0355 43.8098 86.1213 43.8287 86.1642C43.9801 86.4218 44.1315 86.6793 44.3019 86.9368C44.3776 87.0656 44.4155 87.0227 44.4533 86.851C44.4723 86.8081 44.4723 86.7222 44.4723 86.6364C44.4155 86.1642 44.2073 85.8208 43.9612 85.8208ZM86.1157 13.4542C86.3428 13.4542 86.4374 13.4542 86.5321 13.4542C86.6267 13.4542 86.6646 13.3254 86.6457 13.2396C86.6267 13.1966 86.5889 13.1108 86.5699 13.1108C86.3996 13.1108 86.2292 13.1108 86.0589 13.1108C85.9642 13.1108 85.9264 13.2396 85.9453 13.2825C85.9642 13.3254 86.0021 13.3683 86.021 13.3683C86.0967 13.4542 86.1724 13.4542 86.1157 13.4542ZM91.1129 77.8803C91.2643 77.8803 91.3211 77.8803 91.3968 77.8803C91.4346 77.8803 91.4725 77.8803 91.4914 77.8373C91.5293 77.7944 91.5482 77.7515 91.5672 77.7086C91.5672 77.7086 91.5482 77.6227 91.5293 77.5798C91.3211 77.451 91.1318 77.4081 90.8668 77.5798C90.8479 77.5798 90.8289 77.6657 90.81 77.7086C90.8289 77.7515 90.8668 77.8373 90.8857 77.8373C90.9993 77.8803 91.0939 77.8803 91.1129 77.8803ZM91.9079 80.7131C92.0972 80.7131 92.1539 80.7131 92.2107 80.7131C92.2486 80.7131 92.2675 80.7131 92.3054 80.6702C92.3432 80.6273 92.3622 80.5844 92.3811 80.5414C92.3811 80.5414 92.3622 80.4556 92.3432 80.4127C92.1161 80.241 91.9079 80.241 91.6807 80.4127C91.6618 80.4127 91.6429 80.4985 91.6429 80.5414C91.6618 80.5844 91.6996 80.6702 91.7186 80.6702C91.8322 80.7131 91.9268 80.7131 91.9079 80.7131ZM32.055 81.1423C32.2253 81.1423 32.32 81.1423 32.4146 81.1423C32.4335 81.1423 32.4714 81.0565 32.4903 81.0136C32.5093 80.9277 32.4525 80.799 32.3768 80.799C32.1875 80.756 31.9982 80.756 31.8089 80.8848C31.79 80.8848 31.771 80.9706 31.7521 81.0136C31.771 81.0565 31.8089 81.0994 31.8278 81.1423C31.9414 81.1423 32.036 81.1423 32.055 81.1423ZM95.4286 82.4729C95.6179 82.5159 95.7693 82.43 95.8829 82.0866C95.9018 82.0437 95.9208 81.9579 95.9208 81.9149C95.8829 81.7432 95.8261 81.7003 95.7504 81.7433C95.6368 81.872 95.5043 82.0008 95.3908 82.1295C95.315 82.2154 95.2961 82.3442 95.3529 82.43C95.3908 82.4729 95.4286 82.4729 95.4286 82.4729ZM16.5712 74.704C16.6469 74.704 16.7794 74.6611 16.9119 74.6182C16.9498 74.6182 16.9876 74.5323 16.9876 74.4894C16.9687 74.3606 16.9308 74.3177 16.8551 74.2748C16.6848 74.2319 16.5333 74.2319 16.363 74.3177C16.2873 74.3606 16.2305 74.4465 16.2494 74.5323C16.2494 74.5753 16.3062 74.6182 16.3251 74.6611C16.3819 74.6611 16.4576 74.6611 16.5712 74.704ZM37.0143 84.0611C36.9386 83.8464 36.844 83.5889 36.7493 83.3743C36.6925 83.2455 36.6357 83.2455 36.579 83.3314C36.5411 83.4601 36.5411 83.5889 36.56 83.7606C36.6168 84.0611 36.7304 84.2327 36.8629 84.2757C36.9007 84.2757 36.9197 84.2757 36.9575 84.2327C36.9954 84.1898 37.0143 84.1469 37.0143 84.0611ZM72.2976 77.494C72.3544 77.494 72.4301 77.494 72.4869 77.451C72.5248 77.451 72.5626 77.3652 72.5626 77.3223C72.5626 77.2364 72.5248 77.1077 72.4491 77.1077C72.3544 77.0647 72.2598 77.1077 72.1651 77.1077C72.0894 77.1077 72.0137 77.2364 72.0326 77.3223C72.0515 77.451 72.1273 77.494 72.203 77.494C72.2408 77.494 72.2598 77.494 72.2976 77.494ZM13.9401 80.4985C13.959 80.4556 13.9969 80.3697 13.9969 80.3268C13.9969 80.241 13.9969 80.1551 13.978 80.1122C13.8833 79.8547 13.5804 79.8118 13.5237 80.0264C13.5237 80.0693 13.5426 80.1551 13.5615 80.1981C13.694 80.3268 13.8076 80.4985 13.9401 80.4985ZM50.7377 84.8336C50.7566 84.8336 50.7945 84.8336 50.8134 84.7907C50.8513 84.7478 50.8891 84.7478 50.8891 84.6619C50.8891 84.5761 50.8513 84.4473 50.7756 84.4473C50.6809 84.4473 50.5863 84.4473 50.4916 84.4473C50.4159 84.4473 50.3402 84.5761 50.3591 84.619C50.3781 84.7478 50.4538 84.7907 50.5295 84.7907C50.5863 84.8336 50.662 84.8336 50.7377 84.8336ZM4.57033 6.54371C4.57033 6.37203 4.53247 6.28618 4.45676 6.24326C4.38104 6.20034 4.32426 6.28618 4.2864 6.41495C4.22961 6.62956 4.34319 6.88709 4.43783 6.84417C4.51355 6.80125 4.5514 6.7154 4.57033 6.54371ZM91.4536 25.5582C91.4536 25.4294 91.4157 25.3007 91.3589 25.2578C91.2643 25.1719 91.1507 25.3865 91.1696 25.6011C91.1886 25.7299 91.2075 25.8587 91.2643 25.9016C91.3589 25.9874 91.4536 25.7728 91.4536 25.5582ZM30.0674 84.7049C30.0485 84.662 30.0485 84.5761 30.0296 84.5332C29.9539 84.4044 29.8403 84.4044 29.7457 84.4473C29.7267 84.4473 29.6699 84.5332 29.6699 84.5761C29.6699 84.7049 29.7078 84.7907 29.7835 84.8336C29.9539 84.9195 30.0485 84.8336 30.0674 84.7049ZM83.6549 84.1898C83.6738 84.1469 83.7117 84.0611 83.7117 84.0181C83.7306 83.8464 83.6928 83.7177 83.636 83.6318C83.5792 83.546 83.5224 83.546 83.4656 83.6318C83.4278 83.7177 83.4278 83.8464 83.4845 83.9752C83.5413 84.1469 83.5792 84.1898 83.6549 84.1898ZM65.6915 83.9752C65.7483 83.9752 65.805 83.8894 65.8618 83.8035C65.824 83.6748 65.7672 83.5889 65.7104 83.5889C65.5779 83.546 65.4454 83.6318 65.4643 83.7606C65.4454 83.8464 65.5779 83.9752 65.6915 83.9752ZM91.9647 82.1295C91.9647 82.1725 91.9647 82.2583 91.9836 82.3012C92.0214 82.43 92.0782 82.4729 92.135 82.4729C92.154 82.4729 92.1918 82.43 92.2107 82.3442C92.2486 82.2154 92.1729 82.0008 92.0593 81.9149C92.0214 81.872 91.9836 81.9579 91.9647 82.1295ZM16.9687 81.357C16.893 81.1853 16.7983 81.1853 16.7037 81.2711C16.5901 81.357 16.5901 81.4428 16.6848 81.5286C16.7794 81.6145 16.8741 81.6145 16.9498 81.4857C16.9687 81.4857 16.9876 81.3999 16.9687 81.357ZM88.955 80.9277C88.936 80.8848 88.9171 80.799 88.8793 80.799C88.8035 80.756 88.7468 80.8419 88.7089 80.9707C88.671 81.0994 88.671 81.2282 88.7089 81.357C88.7468 81.4428 88.8035 81.4428 88.8603 81.314C88.936 81.1853 88.955 81.0565 88.955 80.9277ZM30.6921 81.1423C30.7678 81.1853 30.8246 81.1423 30.8625 81.0136C30.8246 80.8848 30.7678 80.8419 30.711 80.8419C30.5785 80.8419 30.4649 80.9277 30.5217 81.0136C30.5785 81.0994 30.6353 81.1423 30.6921 81.1423ZM95.3151 80.7131C95.3908 80.7131 95.4476 80.6702 95.4854 80.5414C95.4665 80.4127 95.4097 80.3268 95.334 80.3268C95.2015 80.3268 95.0879 80.4556 95.1258 80.5414C95.1826 80.6702 95.2393 80.7131 95.3151 80.7131ZM17.8773 74.704C17.8773 74.5753 17.8584 74.4465 17.7826 74.4036C17.7259 74.3177 17.6501 74.3606 17.6123 74.4894C17.5934 74.6182 17.6312 74.7469 17.6691 74.8328C17.7259 74.9616 17.7826 74.9616 17.8205 74.8757C17.8584 74.8328 17.8773 74.7469 17.8773 74.704ZM90.7721 25.3007C90.7343 25.1719 90.6586 25.129 90.6018 25.129C90.5261 25.129 90.4693 25.1719 90.4314 25.3007C90.4314 25.3007 90.4504 25.4294 90.4693 25.4294C90.5639 25.5153 90.6586 25.5582 90.7532 25.4294C90.7532 25.4294 90.7532 25.3436 90.7721 25.3007ZM53.1227 10.9218C53.047 10.7501 52.8199 10.793 52.782 10.9647C52.782 11.0076 52.8199 11.0935 52.8388 11.1364C52.9334 11.2222 53.0281 11.1793 53.1038 11.0505C53.1227 11.0076 53.1227 10.9647 53.1227 10.9218ZM80.3424 8.86151C80.3613 8.77566 80.3802 8.68982 80.3802 8.6469C80.3424 8.47521 80.2856 8.43229 80.2099 8.51813C80.1342 8.60398 80.0963 8.73274 80.1152 8.90443C80.1152 8.99028 80.1531 9.07612 80.172 9.07612C80.2288 9.11904 80.3045 9.0332 80.3424 8.86151ZM22.1741 5.08436C22.212 5.08436 22.2309 5.08436 22.2688 5.04144C22.3445 4.99852 22.3634 4.86975 22.3634 4.69806C22.3634 4.65514 22.3445 4.5693 22.3256 4.52637C22.2688 4.44053 22.2309 4.48345 22.1741 4.61222C22.1173 4.74099 22.0984 4.82683 22.1173 4.9556C22.1173 5.04144 22.1552 5.04144 22.1741 5.08436ZM34.6104 85.6492C34.6482 85.735 34.705 85.7779 34.7807 85.7779C34.8564 85.7779 34.9132 85.735 34.9511 85.6492C34.9511 85.6492 34.9321 85.5633 34.9132 85.5204C34.8186 85.4346 34.7239 85.4346 34.6482 85.5204C34.6293 85.5633 34.6293 85.6062 34.6104 85.6492ZM11.1386 4.31176C11.1197 4.35469 11.0629 4.44053 11.0629 4.48345C11.0818 4.65514 11.1576 4.69806 11.2143 4.65514C11.2333 4.61222 11.2901 4.52637 11.2711 4.52637C11.2711 4.31176 11.1954 4.26884 11.1386 4.31176ZM12.2365 4.61222C12.2554 4.5693 12.2933 4.52637 12.3122 4.48345C12.2933 4.44053 12.2744 4.35469 12.2554 4.35469C12.1986 4.31176 12.1419 4.35469 12.104 4.48345C12.104 4.48345 12.1419 4.61222 12.1608 4.61222C12.1608 4.61222 12.1986 4.61222 12.2365 4.61222ZM30.1242 5.81404C30.1242 5.85696 30.1242 5.9428 30.1432 5.9428C30.1621 5.98573 30.1999 5.98573 30.2378 5.98573C30.3135 5.89988 30.3135 5.81404 30.2189 5.77112C30.181 5.72819 30.1432 5.77112 30.1242 5.81404ZM5.55463 6.37203C5.5357 6.3291 5.51677 6.24326 5.49784 6.24326C5.44106 6.20034 5.38427 6.24326 5.34641 6.37203C5.34641 6.37203 5.38427 6.50079 5.4032 6.50079C5.45999 6.54371 5.51677 6.50079 5.55463 6.37203ZM2.82888 49.0795C2.84781 49.0366 2.88567 48.9937 2.9046 48.9937C2.88567 48.9508 2.86674 48.9078 2.84781 48.8649C2.82888 48.822 2.79102 48.822 2.77209 48.8649C2.75317 48.8649 2.69638 48.9508 2.69638 48.9508C2.71531 49.0795 2.77209 49.1225 2.82888 49.0795ZM103.379 59.295C103.398 59.2521 103.436 59.2091 103.454 59.2091C103.436 59.1662 103.417 59.0804 103.379 59.0804C103.284 59.0375 103.246 59.1233 103.284 59.2521C103.322 59.295 103.36 59.295 103.379 59.295ZM23.7074 75.82C23.6506 75.7342 23.5938 75.7771 23.5559 75.82C23.5749 75.8629 23.5938 75.9058 23.6316 75.9058C23.6506 75.9058 23.6884 75.9058 23.7074 75.8629C23.7074 75.9058 23.7074 75.8629 23.7074 75.82ZM12.4258 77.8803C12.4447 77.8373 12.4826 77.7944 12.5015 77.7515C12.4826 77.7086 12.4636 77.6227 12.4258 77.6227C12.3311 77.5798 12.2933 77.6657 12.3311 77.7944C12.3501 77.8803 12.4069 77.8803 12.4258 77.8803ZM86.0778 81.357C86.0399 81.314 86.021 81.2711 85.9832 81.314C85.9453 81.314 85.9264 81.3999 85.9074 81.4428C85.9264 81.4857 85.9453 81.5716 85.9832 81.5716C86.0021 81.5716 86.0399 81.5716 86.0778 81.5286C86.0778 81.4857 86.0778 81.3999 86.0778 81.357ZM38.6801 82.3871C38.6611 82.3442 38.6422 82.2583 38.6233 82.2583C38.5665 82.2154 38.5097 82.2583 38.4529 82.3442C38.4718 82.3871 38.4908 82.4729 38.5097 82.4729C38.5854 82.5588 38.6422 82.5158 38.6801 82.3871ZM41.1029 84.619C41.084 84.619 41.0462 84.5761 41.0272 84.5761C41.0083 84.5761 40.9704 84.619 40.9515 84.6619C40.9704 84.7049 40.9894 84.7478 41.0272 84.7907C41.0462 84.7907 41.084 84.7907 41.1219 84.7478C41.1029 84.7478 41.084 84.662 41.1029 84.619ZM87.5353 77.1935L87.4975 77.2794H87.5542L87.5353 77.1935ZM88.3493 80.1122L88.3871 79.9835H88.3303L88.3493 80.1122ZM23.537 84.5761L23.4991 84.6619H23.5559L23.537 84.5761Z" fill="#00659E"/>
<path d="M64.0624 86.6431C64.3444 86.6859 64.6107 86.7288 64.8613 87.1573C64.877 87.2001 64.9083 87.2858 64.9083 87.3287C64.9083 87.4572 64.877 87.5429 64.8143 87.5857C64.6734 87.6714 64.548 87.8 64.4227 87.9714C64.2504 88.2285 64.0781 88.357 63.8744 88.1856C63.6551 88.0142 63.4358 88.0999 63.2165 88.0571C63.1382 88.0571 63.0599 88.0142 62.9659 87.9285C62.9032 87.8857 62.8719 87.7571 62.8562 87.6286C62.8406 87.4572 62.8562 87.3286 62.9189 87.2858C62.9659 87.243 63.0129 87.1573 63.0755 87.1573C63.2165 87.1144 63.3418 87.0716 63.4828 86.9002C63.6708 86.6859 63.8588 86.7288 64.0624 86.6431Z" fill="#00659E"/>
<path d="M19.11 0.622141C19.0943 0.750673 19.0786 0.922049 19.0473 1.00774C18.9533 1.30765 18.828 1.43618 18.6713 1.39333C18.5459 1.35049 18.4676 1.17911 18.4206 0.879205C18.3893 0.750673 18.4049 0.579297 18.4519 0.450765C18.5773 0.108013 18.734 -0.0633636 18.9063 0.0223245C18.9846 0.0651686 19.063 0.193701 19.11 0.365077C19.11 0.407921 19.11 0.536453 19.11 0.622141Z" fill="#00659E"/>
<path d="M44.7907 5.8501C44.6966 5.7643 44.634 5.63562 44.6026 5.42113C44.5556 5.20665 44.5713 4.99217 44.6496 4.86348C44.7436 4.69189 44.8533 4.649 44.9473 4.73479C44.9787 4.73479 44.9944 4.77769 45.0257 4.82058C45.0884 4.90638 45.1511 5.24955 45.1197 5.37824C45.0884 5.50693 45.0414 5.59272 44.9944 5.63562C44.916 5.72141 44.8533 5.8072 44.7907 5.8501Z" fill="#00659E"/>
<path d="M76.0186 9.83936C76.0812 9.49728 76.1282 9.1552 76.1908 8.85589C76.2221 8.68485 76.269 8.64209 76.316 8.64209C76.3942 8.68485 76.4725 8.98417 76.4568 9.11244C76.4568 9.19796 76.4412 9.24072 76.4255 9.32624C76.3629 9.5828 76.269 9.75384 76.1595 9.75384C76.1125 9.75384 76.0499 9.75384 76.0029 9.7966L76.0186 9.83936Z" fill="#00659E"/>
<path d="M95.9326 42.2584C95.8856 42.3013 95.8229 42.3872 95.7759 42.3872C95.7603 42.3872 95.7289 42.3443 95.7132 42.3013C95.6819 42.1725 95.6819 42.0437 95.7289 41.9578C95.8229 41.7861 95.9326 41.829 96.0423 41.829C96.105 41.829 96.152 41.8719 96.199 41.9578C96.1833 42.0866 96.1363 42.1296 96.0893 42.1725C96.0423 42.2154 95.9953 42.2584 95.9326 42.2584Z" fill="#00659E"/>
<path d="M91.1988 18.5898C91.2459 18.5898 91.3085 18.5898 91.3555 18.6325C91.4182 18.6325 91.4652 18.7177 91.4652 18.8456C91.4652 19.0161 91.4182 19.1014 91.3555 19.144C91.3085 19.1867 91.2615 19.2719 91.1988 19.3145C91.1362 19.3572 91.0422 19.2719 90.9952 19.0588C90.9795 19.0161 90.9795 18.8882 90.9795 18.8456C90.9952 18.7177 91.0422 18.6751 91.1048 18.6325C91.1362 18.5898 91.1675 18.5898 91.1988 18.5898Z" fill="#00659E"/>
<path d="M102.999 48.9054C102.984 48.9477 102.984 49.0323 102.968 49.0323C102.889 49.1168 102.811 49.1168 102.733 49.0323C102.717 49.0323 102.701 48.9054 102.701 48.9054C102.733 48.7786 102.795 48.7363 102.842 48.7363C102.905 48.7363 102.952 48.7786 102.999 48.9054Z" fill="#00659E"/>
<path d="M69.6715 8.63892C69.6871 8.80981 69.6245 9.02344 69.5462 9.10889C69.5305 9.10889 69.4992 9.10889 69.4835 9.06616C69.4365 8.93799 69.4365 8.80981 69.4835 8.68164C69.5148 8.55347 69.5618 8.51074 69.6245 8.51074C69.6245 8.51074 69.6558 8.59619 69.6715 8.63892Z" fill="#00659E"/>
<path d="M54.2524 6.75087C54.2367 6.79381 54.2367 6.87968 54.2211 6.92261C54.1428 7.05142 54.0646 7.00848 53.9864 6.92261C53.9707 6.87968 53.9551 6.79381 53.9551 6.79381C53.9864 6.66501 54.049 6.62207 54.0959 6.62207C54.1585 6.62207 54.2054 6.66501 54.2524 6.75087Z" fill="#00659E"/>
<path d="M21.1138 0.962402C21.0511 0.962402 21.0041 0.962402 20.9728 0.8339C20.9414 0.705398 21.0198 0.576896 21.1295 0.61973C21.1922 0.61973 21.2235 0.705398 21.2549 0.8339C21.2079 0.919568 21.1608 0.962402 21.1138 0.962402Z" fill="#00659E"/>
<path d="M44.0687 5.25109C44.0844 5.29434 44.1157 5.38086 44.1157 5.38086C44.1001 5.51063 44.053 5.55389 43.9904 5.51063C43.9747 5.51063 43.9434 5.38086 43.9434 5.38086C43.9747 5.25109 44.0217 5.20783 44.0687 5.25109Z" fill="#00659E"/>
<path d="M48.0332 5.80868C48.0645 5.76567 48.0802 5.72266 48.1115 5.72266C48.1899 5.76567 48.2055 5.8947 48.1272 5.98072C48.1115 6.02373 48.0645 5.98072 48.0489 5.93771C48.0332 5.93771 48.0332 5.85169 48.0332 5.80868Z" fill="#00659E"/>
<path d="M57.0275 6.49326C56.9962 6.40717 56.9648 6.36412 56.9648 6.32107C56.9962 6.19192 57.0432 6.14888 57.0902 6.19192C57.1059 6.23497 57.1529 6.32107 57.1372 6.32107C57.1216 6.49326 57.0745 6.53631 57.0275 6.49326Z" fill="#00659E"/>
<path d="M60.2707 7.56641C60.2863 7.56641 60.3333 7.60915 60.3333 7.65189C60.349 7.78012 60.302 7.86561 60.2393 7.82287C60.2237 7.82287 60.208 7.73738 60.208 7.69464C60.2393 7.65189 60.255 7.56641 60.2707 7.56641Z" fill="#00659E"/>
<path d="M70.9556 9.2373C70.9242 9.19503 70.8929 9.19503 70.8929 9.15275C70.8615 9.02593 70.8929 8.94138 70.9712 8.98365C70.9869 8.98365 71.0026 9.0682 71.0339 9.11048C71.0026 9.15275 70.9712 9.19503 70.9556 9.2373Z" fill="#00659E"/>
<path d="M77.3025 9.11116C77.2712 9.24026 77.2242 9.32632 77.1615 9.24026C77.1458 9.19723 77.0988 9.11116 77.1145 9.06813C77.1458 8.896 77.1928 8.85296 77.2555 8.93903C77.2712 8.98206 77.2868 9.06813 77.3025 9.11116Z" fill="#00659E"/>
<path d="M88.9902 9.02569C89.0059 9.02569 89.0372 8.93977 89.0529 8.98273C89.1312 9.02569 89.1312 9.11162 89.0685 9.19754C89.0529 9.2405 89.0216 9.19754 88.9902 9.15458C88.9902 9.15458 88.9902 9.11162 88.9902 9.02569Z" fill="#00659E"/>
<path d="M69.8595 10.1827C69.8438 10.1398 69.8125 10.054 69.8125 10.011C69.8282 9.83936 69.8909 9.79643 69.9379 9.88228C69.9535 9.9252 70.0006 10.011 69.9849 10.054C69.9849 10.1827 69.9222 10.2686 69.8595 10.1827Z" fill="#00659E"/>
<path d="M89.9771 11.8979C89.9458 12.0264 89.8987 12.0692 89.8517 12.0264C89.836 11.9836 89.8047 11.8979 89.8047 11.8979C89.836 11.7695 89.8831 11.7267 89.9301 11.7695C89.9614 11.7695 89.9614 11.8123 89.9771 11.8979Z" fill="#00659E"/>
<path d="M16.9622 16.2757C16.9153 16.1894 16.8685 16.103 16.8372 16.0167C16.806 15.8872 16.806 15.7577 16.8528 15.6714C16.8685 15.6714 16.8997 15.6714 16.8997 15.7146C16.931 15.7577 16.931 15.8009 16.9466 15.8872C16.9466 16.0167 16.9466 16.1894 16.9466 16.3188L16.9622 16.2757Z" fill="#00659E"/>
<path d="M92.688 21.1189C92.6566 21.2472 92.6096 21.2899 92.5626 21.2472C92.547 21.2044 92.5156 21.1189 92.5156 21.1189C92.547 20.9906 92.594 20.9479 92.641 20.9906C92.6567 21.0334 92.6723 21.0761 92.688 21.1189Z" fill="#00659E"/>
<path d="M93.1595 26.1771C93.1595 26.2208 93.1595 26.3083 93.1595 26.3083C93.1437 26.352 93.1122 26.3521 93.0806 26.3521C93.0649 26.3521 93.0333 26.2646 93.0176 26.2208C93.0333 26.1771 93.0649 26.1334 93.0806 26.1334C93.1122 26.0896 93.1437 26.1334 93.1595 26.1771Z" fill="#00659E"/>
<path d="M102.325 48.9478C102.294 49.0767 102.247 49.1627 102.199 49.0767C102.184 49.0337 102.152 48.9478 102.152 48.9478C102.184 48.7759 102.231 48.7329 102.278 48.8189C102.294 48.8189 102.309 48.9048 102.325 48.9478Z" fill="#00659E"/>
<path d="M98.7524 79.437C98.7524 79.48 98.7524 79.5659 98.7524 79.5659C98.7367 79.6089 98.7054 79.6089 98.674 79.6089C98.6583 79.6089 98.6427 79.5229 98.6113 79.48C98.627 79.437 98.6583 79.394 98.674 79.394C98.7054 79.394 98.721 79.437 98.7524 79.437Z" fill="#00659E"/>
<path d="M46.0735 5.59375C46.0116 5.55137 45.9961 5.50898 45.9961 5.38184C46.0116 5.38184 46.0271 5.42422 46.0425 5.42422C46.058 5.4666 46.058 5.55137 46.058 5.59375H46.0735Z" fill="#00659E"/>
<path d="M49.7882 5.63623C49.804 5.46436 49.8197 5.42139 49.8669 5.42139C49.8512 5.46436 49.8512 5.50732 49.8354 5.55029C49.8197 5.59326 49.7882 5.59326 49.7725 5.59326L49.7882 5.63623Z" fill="#00659E"/>
<path d="M46.0596 5.63664C46.1379 5.63664 46.1536 5.72144 46.1536 5.84863C46.1379 5.84863 46.1066 5.80623 46.1066 5.80623C46.0909 5.76383 46.0909 5.67904 46.0752 5.59424L46.0596 5.63664Z" fill="#00659E"/>
<path d="M49.7733 5.59424C49.7733 5.72241 49.7577 5.85059 49.7109 5.93604C49.7109 5.93604 49.6797 5.85059 49.6641 5.80786C49.6953 5.72241 49.7421 5.63696 49.7889 5.63696L49.7733 5.59424Z" fill="#00659E"/>
<path d="M55.3812 7.01064C55.3185 6.96709 55.2871 6.92354 55.2871 6.83643C55.3028 6.83643 55.3342 6.83643 55.3342 6.87998C55.3499 6.92354 55.3499 7.01064 55.3655 7.0542L55.3812 7.01064Z" fill="#00659E"/>
<path d="M101.572 45.4756C101.572 45.3028 101.603 45.2163 101.65 45.2595C101.65 45.3028 101.634 45.346 101.634 45.3892C101.619 45.4324 101.588 45.4324 101.572 45.4324V45.4756Z" fill="#00659E"/>
<path d="M101.557 45.4341C101.541 45.6047 101.525 45.69 101.479 45.6473C101.479 45.6047 101.494 45.562 101.51 45.5194C101.525 45.4767 101.557 45.4767 101.572 45.4341H101.557Z" fill="#00659E"/>
<path d="M87.6902 78.7991C87.7529 78.8419 87.7842 78.9274 87.8155 79.0557C87.8468 79.2695 87.8312 79.4833 87.7529 79.6115C87.7372 79.6543 87.7059 79.6543 87.6745 79.6543C87.6119 79.6115 87.5806 79.4833 87.6119 79.355C87.6432 79.1412 87.6745 78.9701 87.7215 78.7563L87.6902 78.7991Z" fill="#00659E"/>
<path d="M87.001 79.7391C87.0794 79.6962 87.1579 79.6962 87.2207 79.7819C87.2364 79.8247 87.2678 79.9104 87.2678 79.9104C87.2521 80.0817 87.205 80.1246 87.1422 80.0817C87.0794 80.0817 87.0638 80.0389 87.001 79.7391Z" fill="#00659E"/>
<path d="M88.5349 79.6968C88.5349 79.8683 88.5042 79.9541 88.458 79.9541C88.458 79.9112 88.458 79.8254 88.4734 79.8254C88.4888 79.7826 88.5195 79.7826 88.5349 79.6968Z" fill="#00659E"/>
<g clip-path="url(#clip0)">
<g clip-path="url(#clip1)">
<path d="M46.3408 41.1938H48.0082V42.9053H46.3408V41.1938Z" fill="white"/>
<path d="M39.6719 41.1938H41.3392V42.9053H39.6719V41.1938Z" fill="white"/>
<path d="M57.1787 52.3184H58.8461V54.0298H57.1787V52.3184Z" fill="white"/>
<path d="M63.8477 52.3184H65.515V54.0298H63.8477V52.3184Z" fill="white"/>
<path d="M67.1824 60.0197V58.3082H68.8498C69.0709 58.3082 69.2829 58.2181 69.4393 58.0576C69.5956 57.8971 69.6834 57.6795 69.6834 57.4525V45.4723C69.6834 45.2453 69.5956 45.0277 69.4393 44.8672C69.2829 44.7067 69.0709 44.6166 68.8498 44.6166H64.8647L65.4989 41.3615C65.5231 41.2373 65.5202 41.1092 65.4903 40.9864C65.4604 40.8635 65.4044 40.749 65.3261 40.6511C65.2479 40.5532 65.1495 40.4743 65.0381 40.4202C64.9266 40.366 64.8048 40.3379 64.6814 40.3379H64.031L64.6653 37.0828L63.0302 36.7472L62.3307 40.3379H60.3628L59.6632 36.7472L58.0282 37.0828L58.6624 40.3379H58.012C57.8887 40.3379 57.7669 40.366 57.6554 40.4202C57.5439 40.4743 57.4455 40.5532 57.3673 40.6511C57.2891 40.749 57.233 40.8635 57.2032 40.9864C57.1733 41.1092 57.1703 41.2373 57.1945 41.3615L57.8287 44.6166H54.6774V26.6463C54.6774 26.4193 54.5895 26.2016 54.4332 26.0412C54.2768 25.8807 54.0648 25.7905 53.8437 25.7905H33.8356C33.6145 25.7905 33.4025 25.8807 33.2461 26.0412C33.0898 26.2016 33.002 26.4193 33.002 26.6463V57.4525C33.002 57.6795 33.0898 57.8971 33.2461 58.0576C33.4025 58.2181 33.6145 58.3082 33.8356 58.3082H36.3366V60.0197H38.004V58.3082H49.6754V60.0197H51.3427V58.3082H56.3447V60.0197H58.012V58.3082H65.5151V60.0197H67.1824ZM34.6693 27.502H43.006V56.5968H34.6693V27.502ZM53.01 56.5968H44.6733V27.502H53.01V56.5968ZM62.1804 56.5968V49.7509H68.0161V56.5968H62.1804ZM60.5131 56.5968H54.6774V49.7509H60.5131V56.5968ZM59.029 42.0494H63.6644L63.1642 44.6166H59.5292L59.029 42.0494ZM68.0161 46.328V48.0395H54.6774V46.328H68.0161Z" fill="white"/>
<path d="M69.6838 26.6463C69.6838 26.4193 69.5959 26.2016 69.4396 26.0412C69.2832 25.8807 69.0712 25.7905 68.8501 25.7905H58.0124C57.7913 25.7905 57.5792 25.8807 57.4229 26.0412C57.2665 26.2016 57.1787 26.4193 57.1787 26.6463V33.4921C57.1787 33.719 57.2665 33.9367 57.4229 34.0972C57.5792 34.2577 57.7913 34.3478 58.0124 34.3478H68.8501C69.0712 34.3478 69.2832 34.2577 69.4396 34.0972C69.5959 33.9367 69.6838 33.719 69.6838 33.4921V26.6463ZM68.0164 32.6364H58.8461V27.502H68.0164V32.6364Z" fill="white"/>
<path d="M73.0182 70.2885H37.1704V63.4427C37.1704 63.2158 37.0825 62.9981 36.9262 62.8376C36.7698 62.6771 36.5578 62.587 36.3367 62.587H29.6673V22.3677H73.0182V59.1641H74.6855V21.512C74.6855 21.285 74.5977 21.0674 74.4413 20.9069C74.285 20.7464 74.0729 20.6562 73.8518 20.6562H28.8337C28.6126 20.6562 28.4005 20.7464 28.2442 20.9069C28.0878 21.0674 28 21.285 28 21.512V63.4427C28 63.5551 28.0216 63.6664 28.0634 63.7702C28.1053 63.874 28.1667 63.9684 28.2442 64.0478L35.7472 71.7494C35.8246 71.8288 35.9165 71.8919 36.0177 71.9349C36.1188 71.9779 36.2272 72 36.3367 72H73.8518C74.0729 72 74.285 71.9098 74.4413 71.7494C74.5977 71.5889 74.6855 71.3712 74.6855 71.1443V67.7214H73.0182V70.2885ZM35.503 69.0784L30.8463 64.2984H35.503V69.0784Z" fill="white"/>
<path d="M77.9951 63.3128C77.9785 62.9761 77.8974 62.646 77.7565 62.3415C77.6156 62.037 77.4177 61.7639 77.174 61.5379C76.9303 61.3118 76.6456 61.1373 76.3362 61.0242C76.0268 60.9111 75.6987 60.8617 75.3707 60.8788L42.0666 62.611C41.8458 62.6225 41.6386 62.7235 41.4903 62.8919L39.9095 64.6878C39.8361 64.7712 39.7794 64.8686 39.7427 64.9745C39.7059 65.0804 39.6899 65.1926 39.6954 65.3049C39.7009 65.4171 39.728 65.5271 39.7749 65.6287C39.8219 65.7302 39.8879 65.8212 39.9691 65.8966L41.7187 67.5191C41.8719 67.6613 42.0711 67.7399 42.2776 67.7399C42.2916 67.7399 42.3057 67.7399 42.3198 67.7388L75.6239 66.0066C76.2864 65.9722 76.9083 65.669 77.353 65.1638C77.7977 64.6586 78.0286 63.9928 77.9951 63.3128ZM41.7054 65.2002L42.496 64.3023L44.6488 64.1903L44.7332 65.8996L42.5803 66.0115L41.7054 65.2002ZM76.1158 64.0164C76.0426 64.1 75.9539 64.1679 75.855 64.2161C75.7561 64.2644 75.6488 64.2919 75.5394 64.2973L46.3985 65.813L46.3142 64.1037L75.4552 62.5881C75.6199 62.5796 75.7833 62.6214 75.9248 62.7082C76.0663 62.795 76.1796 62.9229 76.2503 63.0758C76.321 63.2286 76.346 63.3996 76.322 63.567C76.2981 63.7345 76.2263 63.8909 76.1158 64.0164Z" fill="white"/>
</g>
</g>
<defs>
<clipPath id="clip0">
<rect width="53" height="53" fill="white" transform="translate(28 19)"/>
</clipPath>
<clipPath id="clip1">
<rect width="53" height="53" fill="white" transform="translate(28.001 19)"/>
</clipPath>
</defs>
</svg>
