<svg width="106" height="89" viewBox="0 0 106 89" fill="none" xmlns="http://www.w3.org/2000/svg">
<path d="M101.18 24.4207C101.382 24.4207 101.585 24.4556 101.768 24.4556C101.86 24.4556 101.971 24.4906 102.063 24.5606C102.32 24.7705 102.577 24.8055 102.835 24.8055C103.074 24.8055 103.294 24.8055 103.534 24.8055C103.662 24.8055 103.809 24.8055 103.92 24.8755C104.195 25.0504 104.49 25.1204 104.784 25.1903C104.839 25.1903 104.913 25.2953 104.949 25.4002C105.004 25.5402 105.078 25.7151 105.096 25.89C105.225 26.6597 105.372 27.4294 105.519 28.199C105.556 28.3739 105.538 28.5839 105.501 28.7588C105.391 29.1436 105.354 29.5634 105.299 30.0182C105.243 30.508 105.152 30.9628 105.096 31.4876C105.06 31.7675 105.06 31.9774 105.152 32.1873C105.188 32.2922 105.225 32.3972 105.262 32.5021C105.372 32.922 105.372 33.3418 105.299 33.7616C105.243 34.0065 105.133 34.1464 105.004 34.2164C104.876 34.2863 104.747 34.2864 104.618 34.3213C104.526 34.3563 104.416 34.3913 104.324 34.4263C104.251 34.4613 104.214 34.5662 104.232 34.7062C104.232 34.7411 104.269 34.8111 104.287 34.8461C104.306 34.8811 104.342 34.9511 104.361 34.9511C104.692 35.021 105.004 35.2659 105.28 35.5808C105.317 35.6158 105.335 35.6508 105.354 35.6857C105.427 35.7907 105.446 36.0356 105.354 36.1405C105.078 36.4554 105.096 36.8053 105.207 37.2601C105.262 37.47 105.317 37.7149 105.317 37.9597C105.317 38.2746 105.335 38.5895 105.317 38.9043C105.28 39.2192 105.207 39.4991 105.023 39.569C104.986 39.569 104.949 39.604 104.931 39.639C104.894 39.674 104.857 39.744 104.857 39.744C104.894 39.8489 104.949 39.8839 105.023 39.9189C105.115 39.9539 105.225 39.9539 105.317 39.9888C105.391 40.0238 105.482 40.3037 105.464 40.4437C105.427 40.7585 105.335 41.0384 105.391 41.3533C105.427 41.6331 105.409 41.7031 105.317 41.8081C105.17 41.948 105.023 42.1229 104.894 42.2628C104.802 42.3678 104.784 42.6477 104.857 42.7526C104.912 42.8226 104.949 42.9276 105.004 42.9975C105.078 43.1375 105.151 43.2424 105.225 43.3824C105.299 43.5223 105.299 43.7672 105.243 43.9071C105.188 43.9771 105.151 44.0821 105.096 44.152C104.968 44.3269 104.839 44.5369 104.747 44.8167C104.655 45.1316 104.508 45.2016 104.324 45.2365C104.195 45.2715 104.067 45.2715 103.938 45.3415C103.864 45.3765 103.828 45.4814 103.828 45.6214C103.828 45.7263 103.883 45.8663 103.956 45.8663C104.287 45.9362 104.618 45.9362 104.949 46.0062C105.004 46.0062 105.078 46.1112 105.133 46.1462C105.262 46.2861 105.299 46.566 105.207 46.7409C105.023 47.0907 104.949 47.4406 105.096 47.9304C105.151 48.1053 105.133 48.2802 105.041 48.4202C105.023 48.4551 104.986 48.5251 104.968 48.5251C104.839 48.5951 104.71 48.6301 104.581 48.5951C104.085 48.5251 103.589 48.6301 103.092 48.6301C103.055 48.6301 103.019 48.665 103 48.665C102.963 48.7 102.945 48.735 102.927 48.77C102.963 48.805 102.982 48.84 103.019 48.8749C103.239 48.9799 103.478 48.8749 103.717 48.9449C103.809 48.9799 103.92 48.9449 104.011 49.0499C104.324 49.3647 104.637 49.3647 104.968 49.3997C105.041 49.3997 105.078 49.5397 105.06 49.6096C105.041 49.6446 105.023 49.7146 104.986 49.7146C104.949 49.7496 104.912 49.7496 104.894 49.7496C104.637 49.7496 104.361 49.7496 104.122 49.9945C103.791 50.0994 103.497 50.4143 103.184 50.5892C103.166 50.5892 103.147 50.6941 103.111 50.7291C103.129 50.7641 103.166 50.7991 103.184 50.8341C103.276 50.9041 103.368 50.9041 103.478 50.9041C103.809 50.9041 104.14 50.9041 104.471 50.9041C104.637 50.9041 104.784 51.079 104.912 51.2889C104.986 51.4288 104.986 51.6387 104.931 51.7787C104.894 51.8836 104.839 51.9186 104.765 51.9886C104.655 52.0935 104.655 52.2685 104.729 52.4434C104.857 52.8282 105.096 52.9682 105.28 53.213C105.335 53.318 105.354 53.423 105.335 53.5629C105.335 53.6329 105.317 53.6678 105.299 53.7378C105.262 53.8428 105.243 53.9477 105.207 54.0877C105.096 54.5425 104.986 54.5775 104.82 54.4725C104.655 54.3675 104.49 54.3675 104.342 54.5075C104.214 54.6124 104.085 54.6824 103.975 54.8223C103.791 55.0322 103.607 55.0672 103.405 55.0672C102.706 55.0322 102.007 55.0322 101.327 55.0672C101.125 55.0672 101.07 55.2421 101.143 55.522C101.235 55.9069 101.198 56.2567 101.125 56.6065C101.088 56.7815 101.125 56.9564 101.198 57.0963C101.309 57.3412 101.437 57.5161 101.529 57.796C101.584 57.9709 101.584 58.1809 101.529 58.3208C101.456 58.5307 101.345 58.6706 101.253 58.8456C101.07 59.1604 100.996 59.5802 100.978 60.035C100.978 60.21 100.978 60.4199 100.978 60.5948C100.978 60.9097 101.014 61.2245 101.125 61.4694C101.18 61.6094 101.253 61.7843 101.309 61.9242C101.364 62.0991 101.382 62.2741 101.382 62.449C101.382 62.8338 101.345 63.1837 101.253 63.5335C101.198 63.7434 101.125 63.9533 101.07 64.1982C101.033 64.3731 101.033 64.5481 101.07 64.758C101.106 64.8629 101.125 64.9679 101.161 65.1078C101.18 65.2128 101.217 65.3527 101.217 65.4577C101.198 65.8775 101.235 66.3323 101.106 66.7521C101.033 67.032 100.996 67.3468 101.014 67.6617C101.051 68.2914 101.014 68.9211 100.941 69.5509C100.904 69.7958 100.904 70.0407 100.941 70.2855C100.996 70.7054 101.069 71.1252 101.161 71.545C101.18 71.6499 101.18 71.7899 101.143 71.8948C101.051 72.3147 100.996 72.7345 100.996 73.1893C100.996 73.5041 100.922 73.784 100.83 74.0639C100.739 74.3088 100.683 74.6236 100.665 74.9385C100.647 75.4983 100.61 76.058 100.61 76.6178C100.61 77.0726 100.573 77.4924 100.463 77.8772C100.444 77.9472 100.444 77.9822 100.426 78.0521C100.389 78.472 100.408 78.9268 100.297 79.3466C100.316 79.4865 100.316 79.5915 100.334 79.7314C100.334 79.8713 100.371 80.0113 100.334 80.1162C100.224 80.606 100.205 81.0958 100.224 81.5856C100.242 81.9704 100.205 82.3553 100.113 82.6701C100.058 82.845 100.04 83.02 100.04 83.1949C100.021 83.5097 100.021 83.8246 99.9846 84.1395C99.9662 84.3844 99.8743 84.5943 99.764 84.7342C99.525 85.0491 99.3043 85.3289 99.0285 85.3289C98.9182 85.3289 98.8446 85.3989 98.7527 85.5039C98.624 85.6088 98.4953 85.6438 98.3666 85.6788C98.1276 85.7138 97.9069 85.7138 97.6679 85.7488C97.5392 85.7837 97.3921 85.7487 97.2818 85.8537C96.914 86.0286 96.5647 86.0636 96.1969 86.0636C95.2408 86.0636 94.2847 86.0986 93.3102 86.0986C92.4461 86.0986 91.5819 86.0986 90.7361 86.0986C90.4603 86.0986 90.2029 86.1336 89.9638 86.3085C89.8351 86.3784 89.688 86.3784 89.5593 86.3085C89.5042 86.2735 89.4306 86.2385 89.3755 86.2035C89.21 86.1335 89.0445 86.1335 88.879 86.2385C88.7503 86.3085 88.6216 86.3784 88.4929 86.3784C87.6655 86.3784 86.8381 86.4834 86.0107 86.4484C85.4223 86.4134 84.8156 86.4834 84.2272 86.4834C84.0249 86.4834 83.8411 86.5533 83.6388 86.6583C83.5469 86.7283 83.4365 86.7632 83.3446 86.7632C82.7195 86.7982 82.0943 86.8332 81.4692 86.8682C81.3405 86.8682 81.2118 86.9382 81.083 87.0081C80.9911 87.0781 80.8992 87.0781 80.7889 87.0431C80.6234 86.9382 80.4579 86.9032 80.3108 87.0431C80.0902 87.218 79.8511 87.218 79.6305 87.253C79.3731 87.288 79.0973 87.253 78.8399 87.253C78.5824 87.253 78.3066 87.323 78.0492 87.4629C77.7918 87.6029 77.516 87.6029 77.2586 87.4629C76.946 87.288 76.6151 87.253 76.3025 87.0081C76.2106 86.9381 76.1002 86.9731 76.0083 87.0431C75.8612 87.183 75.6957 87.253 75.5302 87.253C75.2912 87.288 75.0706 87.288 74.8499 87.4629C74.758 87.5329 74.6661 87.5329 74.5557 87.5679C74.4087 87.6028 72.4229 87.5678 72.2758 87.5329C72.1839 87.4979 72.0735 87.4629 71.9816 87.3929C71.9081 87.3579 71.8529 87.3579 71.7794 87.3929C71.7242 87.4279 71.6506 87.4629 71.5955 87.4979C71.3932 87.5678 71.2094 87.5678 71.0071 87.4279C70.9336 87.3929 70.8784 87.3929 70.8232 87.4279C70.4739 87.6728 70.1062 87.6378 69.7568 87.3579C69.6649 87.288 69.5729 87.288 69.4626 87.3579C69.3707 87.3929 69.2788 87.4279 69.1684 87.3579C69.003 87.253 68.8375 87.253 68.672 87.3579C68.3778 87.5328 68.0836 87.6028 67.7894 87.6028C67.3665 87.6028 66.9253 87.6378 66.5024 87.6378C66.3001 87.6378 66.1162 87.7427 65.914 87.8827C65.7853 87.9876 65.6566 87.9876 65.5279 87.8827C65.4727 87.8477 65.3992 87.8127 65.344 87.7777C65.2521 87.7427 65.1417 87.7078 65.0498 87.8127C64.7924 88.0576 64.535 88.0576 64.2776 87.9526C64.0753 87.8827 63.8914 87.7427 63.6892 87.8827C63.634 87.9177 63.5605 87.8827 63.5053 87.8477C63.3398 87.7427 63.1927 87.7777 63.0273 87.8127C62.6411 87.9526 62.255 88.0576 61.8505 87.9876C61.7218 87.9526 61.5931 87.9176 61.446 87.9526C60.8209 88.0926 60.1957 87.9876 59.5706 88.0226C59.1477 87.9176 58.7064 87.9526 58.2835 87.9876C58.0444 88.0226 57.8238 87.9526 57.6032 87.7427C57.548 87.7077 57.4745 87.6727 57.4193 87.7427C57.1987 87.9176 56.978 87.9876 56.739 87.9876C56.3713 87.9876 56.0035 88.0226 55.6542 88.0226C55.2313 88.0576 54.79 87.9876 54.3671 87.8826C54.2752 87.8476 54.1832 87.7777 54.0729 87.7427C53.981 87.6727 53.8707 87.6727 53.7787 87.7427C53.5949 87.8476 53.3926 87.9176 53.1904 87.9526C52.6939 88.0226 52.1975 87.9176 51.701 87.9176C51.6091 87.9176 51.4988 87.8826 51.4068 87.8126C51.1494 87.6377 50.9104 87.5678 50.6346 87.8126C50.414 87.9876 50.1749 87.9876 49.9543 87.8476C49.8991 87.8126 49.8256 87.7427 49.7704 87.7077C49.7153 87.6727 49.6417 87.6377 49.5682 87.6377C49.4762 87.6377 49.3659 87.6027 49.274 87.6727C49.0533 87.8476 48.8327 87.9176 48.5937 87.9176C48.3546 87.8826 48.134 87.9526 47.895 87.9876C47.3618 88.0225 46.8285 88.0575 46.3137 87.9526C46.185 87.9176 46.0563 87.8826 45.9276 87.8126C45.854 87.7776 45.7989 87.7776 45.7437 87.8476C45.4863 88.0575 45.2289 87.9875 44.9715 88.1625C44.8979 88.1975 44.8428 88.1974 44.7692 88.1625C44.3463 87.9875 43.9234 87.9526 43.4822 88.0225C42.8938 88.1275 42.287 88.0225 41.6986 88.0225C41.5332 88.0225 41.3677 87.9525 41.2206 87.8476C41.1286 87.7776 41.0367 87.8126 40.9264 87.8476C40.8345 87.8826 40.7241 87.9525 40.6322 87.9525C40.1358 87.9176 39.6393 87.9875 39.1429 87.9875C39.0142 87.9875 38.8671 88.0225 38.7384 87.9875C38.481 87.9175 38.2052 87.9875 37.9477 87.9525C37.8742 87.9525 37.819 87.8826 37.7639 87.8476C37.7087 87.8126 37.6352 87.8126 37.58 87.8826C37.4329 88.0225 37.2674 88.0925 37.102 88.0575C35.6862 87.9875 34.252 88.0575 32.8362 87.9525C32.542 87.9175 32.2479 87.9525 31.9353 87.9525C31.7698 87.9525 31.6043 87.9175 31.4388 87.8126C31.3469 87.7426 31.2366 87.8126 31.1446 87.8475C31.0711 87.8475 31.0159 87.8825 30.9424 87.8475C30.685 87.6726 30.4276 87.6726 30.1518 87.6726C29.4898 87.6726 28.8279 87.6726 28.166 87.6376C27.9454 87.6376 27.7063 87.6376 27.4857 87.4277C27.4305 87.3577 27.357 87.3228 27.3018 87.3927C27.0812 87.5676 26.8605 87.6026 26.6215 87.5676C26.3825 87.5327 26.1618 87.5676 25.9228 87.5676C25.7573 87.5676 25.5919 87.5327 25.4448 87.4277C25.3896 87.3927 25.3161 87.3577 25.2609 87.3227C25.0586 87.2528 24.8564 87.2528 24.6725 87.4277C24.5438 87.5327 24.4151 87.5676 24.2864 87.4627C24.1577 87.3577 24.0474 87.2878 23.9003 87.2878C23.5325 87.2878 23.1648 87.2878 22.8155 87.2528C22.5764 87.2528 22.3558 87.2528 22.1352 87.0778C22.0248 87.0079 21.9513 87.1478 21.8961 87.2878C21.8593 87.3927 21.7858 87.4277 21.7306 87.3927C21.5652 87.2877 21.3997 87.2528 21.2342 87.2528C20.5723 87.2528 19.9104 87.2178 19.2484 87.2178C18.991 87.2178 18.7152 87.1828 18.4578 87.0079C18.2372 86.8679 17.9981 86.9379 17.7775 86.8679C17.612 86.8329 17.4465 86.7979 17.2811 86.763C17.0052 86.4481 16.7111 86.4831 16.4169 86.4831C16.1411 86.4831 15.8837 86.4481 15.6446 86.2032C15.5895 86.1332 15.5159 86.1332 15.4608 86.1332C15.3872 86.1332 15.3321 86.1332 15.2585 86.1332C14.523 86.2032 13.806 86.0982 13.0705 86.0632C12.8315 86.0632 12.6108 85.9233 12.427 85.6434C12.3166 85.4685 12.1879 85.5035 12.0592 85.6084C11.9305 85.7134 11.8018 85.6784 11.6731 85.5735C11.4892 85.3985 11.3054 85.3286 11.1031 85.3286C10.9376 85.3286 10.7722 85.3286 10.6067 85.3286C10.478 85.3286 10.3493 85.2586 10.2206 85.1886C10.1286 85.1187 10.0183 85.1886 9.92637 85.1886C9.85283 85.1886 9.79766 85.2236 9.72411 85.1886C9.4667 85.0137 9.20929 85.0137 8.93349 85.0137C8.27156 84.9787 7.60964 84.9787 6.94772 84.9437C6.89256 84.9437 6.81901 84.8737 6.76385 84.8388C6.69031 84.8038 6.65353 84.6988 6.67192 84.5239C6.69031 84.4189 6.72708 84.279 6.80063 84.279C7.05805 84.209 7.31545 84.1391 7.57286 83.9641C7.62802 83.9292 7.70158 83.9641 7.77513 83.9991C7.95899 84.1391 8.16125 84.209 8.3635 84.0691C8.54737 83.9292 8.74961 83.8592 8.95187 83.8242C9.02542 83.7892 9.08059 83.7542 9.08059 83.6493C9.08059 83.6493 9.02543 83.5793 8.98865 83.5793C8.49221 83.5443 7.99577 83.5093 7.49933 83.5093C7.16836 83.5093 6.8374 83.4744 6.50644 83.4744C6.24903 83.4744 5.97322 83.4394 5.7342 83.2295C5.67904 83.1945 5.60549 83.1945 5.53194 83.2295C5.10905 83.5443 4.68615 83.4394 4.26326 83.3694C4.2081 83.3694 4.13455 83.2994 4.07939 83.2644C3.95068 83.1595 3.82198 83.1245 3.69327 83.1245C3.49102 83.0895 3.28876 83.0895 3.1049 83.0545C3.06812 83.0545 3.03135 83.0195 3.01296 82.9846C2.99458 82.8796 3.04974 82.8096 3.1049 82.7397C3.3807 82.4248 3.6565 82.3548 3.96907 82.4948C4.09778 82.5647 4.22649 82.5647 4.3552 82.4948C4.64938 82.3199 4.94358 82.3548 5.23776 82.5298C5.31131 82.5648 5.36647 82.5997 5.42163 82.5648C5.77098 82.3199 6.13871 82.4598 6.50644 82.4598C6.59838 82.4598 6.7087 82.4948 6.80064 82.5648C6.96612 82.6697 7.11321 82.6347 7.27869 82.5648C7.79352 82.2849 8.32673 82.2499 8.84156 82.5997C9.08059 82.7747 9.28285 82.5998 9.46672 82.3199C9.4851 82.2849 9.4851 82.1799 9.46672 82.1799C9.41156 82.145 9.33801 82.11 9.28285 82.075C9.08059 82.04 8.87834 82.005 8.69447 82.04C8.12448 82.1449 7.57288 82.04 7.00289 82.005C6.91095 82.005 6.80064 81.97 6.70871 81.9C6.58 81.7951 6.45128 81.8301 6.32258 81.9C6.23065 81.935 6.12033 81.9 6.02839 81.8301C5.89969 81.7251 5.77098 81.7251 5.64227 81.8301C5.38485 82.005 5.12745 82.005 4.87003 81.8301C4.59424 81.6202 4.30004 81.5852 3.98746 81.6202C3.74843 81.6551 3.5278 81.5502 3.32555 81.3403C3.16006 81.1654 3.01298 81.2353 2.84749 81.4102C2.81072 81.4452 2.79233 81.4802 2.75556 81.4802C2.68201 81.5502 2.57168 81.5152 2.49815 81.3053C2.38783 81.0254 2.25912 80.9205 2.07525 80.9205C2.0017 80.9205 1.94653 80.9205 1.87299 80.8855C1.79944 80.8505 1.76267 80.7455 1.76267 80.6406C1.76267 80.6056 1.79946 80.5356 1.83623 80.5356C2.03848 80.5006 2.22234 80.4657 2.42459 80.3957C2.49814 80.3607 2.53492 80.2907 2.5717 80.1858C2.62686 80.0458 2.53492 79.8359 2.4246 79.766C2.38782 79.766 2.35105 79.731 2.33266 79.731C2.24073 79.766 2.14879 79.8359 2.05686 79.9059C1.92815 80.0109 1.79945 80.0458 1.67074 79.9059C1.61558 79.8359 1.56042 79.8009 1.48688 79.731C1.43172 79.661 1.37656 79.591 1.37656 79.4511C1.37656 79.4161 1.43172 79.3811 1.4685 79.3811C1.56043 79.3461 1.67075 79.3461 1.76268 79.3461C2.49815 79.3811 3.21524 79.3112 3.95071 79.2762C4.0978 79.2762 4.20812 79.1712 4.30005 78.9963C4.50231 78.6115 4.75972 78.5415 5.03552 78.5415C5.69744 78.5415 6.35936 78.5415 7.02129 78.5065C7.11322 78.5065 7.20516 78.4016 7.27871 78.2267C7.29709 78.1917 7.31548 78.1217 7.29709 78.0517C7.29709 78.0168 7.26032 77.9468 7.24193 77.9468C7.18677 77.9118 7.11323 77.8768 7.05807 77.8418C6.67194 77.7369 6.26744 77.7719 5.86293 77.7719C5.36648 77.7719 4.87005 77.7719 4.3736 77.7718C4.17136 77.7718 3.98748 77.7369 3.78523 77.6319C3.65652 77.5619 3.52782 77.5619 3.39911 77.527C2.99461 77.492 2.60847 77.5269 2.22236 77.7369C2.09365 77.8068 1.96494 77.7718 1.83624 77.7019C1.76269 77.6669 1.72591 77.5619 1.72591 77.422C1.72591 77.352 1.74431 77.317 1.74431 77.2471C1.7627 77.1771 1.78108 77.1421 1.79946 77.1071C1.96495 76.9322 2.13042 76.7223 2.33268 76.6523C2.42461 76.6173 2.53493 76.5474 2.60848 76.4774C2.79235 76.2675 2.97622 76.2325 3.17847 76.2325C3.27041 76.2325 3.30718 76.1625 3.27041 76.0576C3.25202 76.0226 3.23363 75.9526 3.19686 75.9526C3.01299 75.7777 2.84752 75.6028 2.62688 75.6378C2.4614 75.6378 2.29591 75.6028 2.13043 75.5678C2.07527 75.5678 1.98334 75.5328 1.94657 75.4629C1.90979 75.3929 1.92819 75.218 1.92819 75.113C1.92819 74.9731 1.89141 74.9031 1.81786 74.8681C1.72593 74.8331 1.6156 74.7981 1.52368 74.7282C1.46852 74.6932 1.41335 74.6232 1.35819 74.5183C1.26626 74.3783 1.22948 74.1684 1.26626 74.0285C1.37658 73.5737 1.4869 73.1189 1.59723 72.6641C1.65239 72.4192 1.74432 72.2792 1.87302 72.1393C1.96496 72.0693 2.03851 71.9644 2.11206 71.8244C2.14884 71.7545 2.16722 71.6145 2.1856 71.5096C2.20399 71.4046 2.07529 71.1248 2.00174 71.1248C1.96497 71.1248 1.9282 71.0898 1.90981 71.0898C1.74433 71.0898 1.57885 71.0548 1.41337 71.0548C1.24788 71.0548 1.08241 71.0198 0.916929 71.0198C0.824995 71.0198 0.788214 70.9498 0.806601 70.8449C0.806601 70.7749 0.843375 70.7399 0.861762 70.7049C1.06402 70.495 1.28467 70.3201 1.5237 70.3201C1.59724 70.3201 1.6524 70.3201 1.72595 70.2851C1.9282 70.2501 2.00175 70.0752 2.02014 69.6904C2.02014 69.5504 1.9282 69.3056 1.85466 69.3055C1.52369 69.2356 1.19273 69.2006 0.861769 69.1306C0.769835 69.0956 0.677909 68.9907 0.604362 68.8857C0.530815 68.7808 0.512421 68.5009 0.585969 68.3959C0.751452 68.186 0.916934 67.9761 1.08242 67.8012C1.17435 67.6963 1.26629 67.6263 1.35822 67.6263C1.65241 67.5913 1.94659 67.5913 2.24078 67.4164C2.47981 67.3814 2.70046 67.3814 2.93949 67.3464C3.30723 67.3114 3.67495 67.2764 4.0243 67.2415C4.06107 67.2415 4.07946 67.2065 4.11623 67.1715C4.09785 67.1365 4.09785 67.0665 4.07946 67.0665C3.89559 66.9266 3.71173 66.8216 3.58302 66.4718C3.47271 66.1919 3.28884 66.1919 3.12336 66.1569C3.04982 66.1569 2.99465 66.087 2.95787 65.982C2.95787 65.982 2.99466 65.8771 3.03143 65.8771C3.19691 65.8071 3.36239 65.7371 3.50948 65.5972C3.65658 65.4223 3.84044 65.4922 3.98753 65.4223C4.02431 65.4223 4.06108 65.3873 4.07947 65.3523C4.11624 65.2823 4.09786 65.1774 4.0427 65.0724C3.93238 64.9325 3.82206 64.7925 3.73013 64.6176C3.60142 64.4077 3.43594 64.3028 3.27046 64.3028C3.03143 64.3027 2.81079 64.2678 2.57177 64.2678C2.47983 64.2678 2.3695 64.2678 2.27757 64.1978C1.89145 63.9529 1.48695 63.9879 1.10083 63.8829C1.02728 63.8479 0.972113 63.778 0.9905 63.673C0.9905 63.603 1.00889 63.5681 1.02728 63.4981C1.08244 63.3232 1.17437 63.2182 1.2663 63.1832C1.43179 63.1482 1.59727 63.1133 1.76275 63.0783C1.89146 63.0433 2.03854 63.0783 2.14887 63.0083C2.44306 62.7984 2.73725 62.8334 3.03144 62.7984C3.28886 62.7634 3.56465 62.7634 3.82207 62.7284C3.85884 62.7284 3.87722 62.6585 3.89561 62.6235C3.87722 62.5885 3.87722 62.5185 3.84045 62.5185C3.78529 62.4836 3.71174 62.4486 3.65658 62.4136C3.32563 62.3436 2.99467 62.3786 2.66371 62.3786C2.46145 62.3786 2.2592 62.3786 2.07533 62.3436C2.03856 62.3436 2.00178 62.3086 2.00178 62.2386C1.9834 62.1687 2.02017 62.0637 2.09372 62.0637C2.25919 62.0287 2.42468 62.0287 2.59015 62.0287C2.71886 62.0287 2.84757 61.9938 2.97628 61.8888C3.12337 61.7489 3.28886 61.7139 3.45434 61.6789C3.74853 61.6439 4.04271 61.6439 4.35529 61.6089C4.44722 61.6089 4.55754 61.6089 4.64948 61.574C4.83334 61.504 5.01721 61.2941 5.21946 61.2941C5.42172 61.2941 5.62397 61.2941 5.80784 61.1891C5.84461 61.1891 5.86301 61.1192 5.8814 61.0842C5.86301 61.0492 5.82624 61.0142 5.78946 60.9792C5.66075 60.9092 5.53204 60.9092 5.40333 60.9092C5.01721 60.9092 4.61271 60.9442 4.22659 60.8043C4.18982 60.8043 4.17142 60.7343 4.15303 60.6993C4.17142 60.6643 4.2082 60.5944 4.22659 60.5944C4.31852 60.5594 4.42884 60.5244 4.52077 60.5244C4.88851 60.4894 5.23786 60.5244 5.6056 60.4195C5.62398 60.4195 5.66075 60.3495 5.67914 60.3145C5.66075 60.2795 5.64237 60.2096 5.6056 60.1746C5.42173 60.0696 5.21947 60.1046 5.0356 59.9297C4.98044 59.8597 4.9069 59.8597 4.85174 59.9297C4.70464 60.0346 4.53916 60.1046 4.37368 60.1046C4.17143 60.1046 3.96917 60.1396 3.78531 60.1396C3.58305 60.1396 3.39918 60.0696 3.21532 59.8597C3.16016 59.7897 3.105 59.7547 3.03146 59.7198C2.86598 59.6498 2.71888 59.5798 2.57179 59.4049C2.24082 59.09 1.89148 58.9151 1.52375 58.8801C1.43181 58.8801 1.39504 58.7752 1.43181 58.7052C1.4502 58.6702 1.48697 58.6352 1.52375 58.6352C2.05696 58.6002 2.59017 58.5303 3.105 58.4953C3.34403 58.4953 3.56467 58.4603 3.78532 58.3204C3.87725 58.2504 3.98756 58.2504 4.0795 58.2854C4.24498 58.3554 4.39207 58.3554 4.55756 58.2854C4.72304 58.2154 4.88852 58.2154 5.054 58.1804C5.34819 58.1455 5.64237 58.1455 5.95495 58.1105C6.08366 58.1105 6.23075 58.1105 6.34107 58.0055C6.65365 57.7606 6.98461 57.7606 7.31557 57.6907C7.51782 57.6557 7.70169 57.5157 7.84878 57.3058C7.86717 57.2709 7.86718 57.2009 7.86718 57.1659C7.84879 57.1309 7.81202 57.0959 7.77524 57.0959C7.2788 57.0959 6.78235 57.0959 6.28591 57.0959C6.1572 57.0959 6.01011 57.0959 5.89979 57.1659C5.67915 57.3058 5.44012 57.3058 5.21948 57.3408C4.79659 57.3758 4.3553 57.3758 3.93241 57.4108C3.60144 57.4108 3.27049 57.4108 2.95791 57.2009C2.8292 57.0959 2.7005 57.1309 2.5718 57.1309C2.33277 57.1309 2.11213 57.1309 1.89148 56.991C1.81794 56.956 1.78116 56.851 1.76278 56.7111C1.74439 56.5711 1.76278 56.4662 1.85471 56.4312C1.90987 56.3962 1.98342 56.3612 2.03858 56.3262C2.24084 56.2913 2.42471 56.2563 2.62696 56.2213C2.82922 56.2213 3.01309 56.0814 3.21534 56.0114C3.2705 55.9764 3.34404 56.0114 3.41759 56.0114C3.50952 56.0464 3.60145 56.0814 3.71177 56.0114C3.96919 55.8365 4.22661 55.8365 4.50241 55.8365C4.74144 55.8365 4.96208 55.8365 5.20111 55.8365C5.25627 55.8365 5.32981 55.7665 5.38497 55.7315C5.44013 55.6965 5.49529 55.5916 5.55045 55.5216C5.71593 55.2767 5.8998 55.1718 6.10205 55.1718C6.63527 55.1368 7.16848 55.1018 7.68332 55.0668C7.77525 55.0668 7.88556 55.0318 7.9775 54.9619C8.19814 54.7869 8.41878 54.717 8.65781 54.717C8.86007 54.717 9.06232 54.717 9.24619 54.682C9.33813 54.682 9.44844 54.647 9.54037 54.577C9.76102 54.4371 9.98167 54.3322 10.2023 54.1922C10.3862 54.0523 10.5884 54.0173 10.7907 54.0173C10.9562 54.0173 11.1216 53.9123 11.2687 53.7724C11.3607 53.7024 11.4526 53.6325 11.5445 53.6325C11.9123 53.5975 12.28 53.5625 12.611 53.3176C12.8132 53.2826 12.9971 53.2127 13.1993 53.1777C13.2545 53.1427 13.328 53.1077 13.3832 53.0377C13.4384 52.9678 13.4935 52.8628 13.4935 52.7579C13.4935 52.6529 13.4568 52.5479 13.3832 52.5479C13.2913 52.513 13.181 52.513 13.089 52.478C13.0155 52.478 12.9603 52.408 12.9603 52.3031C12.9603 52.2681 13.0155 52.2331 13.0339 52.1981C13.1258 52.1631 13.2361 52.1631 13.3281 52.1281C13.4016 52.1281 13.4751 52.0582 13.4935 51.9532C13.5119 51.8483 13.4568 51.7083 13.4016 51.6383C13.3464 51.5684 13.2913 51.4984 13.2361 51.4634C13.1442 51.4284 13.0339 51.3935 12.9419 51.3935C12.5374 51.3585 12.1513 51.3235 11.7468 51.3235C11.5445 51.3235 11.3607 51.2535 11.1584 51.1486C11.0297 51.0786 10.901 51.0786 10.7723 51.0786C10.0368 51.0436 9.31975 51.0436 8.58428 51.0436C8.4188 51.0436 8.25333 51.0436 8.08784 51.0086C7.99591 51.0086 7.90398 50.9036 7.81204 50.7987C7.75688 50.7287 7.70172 50.6588 7.64656 50.6238L7.66494 50.6588C7.70172 50.3789 7.83043 50.3089 7.92237 50.134C8.0143 49.994 8.01429 49.7841 7.94075 49.6442C7.90397 49.5742 7.84881 49.4693 7.79365 49.3993C7.77527 49.3643 7.77528 49.2594 7.77528 49.2594C7.94076 49.0495 8.14301 49.0495 8.32688 48.9095C8.47398 48.8046 8.65784 48.8046 8.80493 48.7346C8.84171 48.7346 8.86009 48.6646 8.87848 48.6296C8.89687 48.5597 8.86009 48.4897 8.76815 48.4547C8.69461 48.4197 8.63945 48.4197 8.56591 48.4197C8.52913 48.4197 8.49236 48.4197 8.47397 48.4197C8.10624 48.4197 7.75689 48.1748 7.40754 47.9999C7.37077 47.9999 7.35238 47.9299 7.334 47.86C7.334 47.825 7.35238 47.755 7.38915 47.72C7.57302 47.5451 7.7569 47.4751 7.95915 47.3702C8.08786 47.3002 8.21656 47.3002 8.34527 47.3002C9.2646 47.2652 10.2023 47.2303 11.1217 47.1603C11.1952 47.1603 11.2504 47.0903 11.2504 47.0204C11.2504 46.9854 11.1952 46.9154 11.1768 46.9154C11.0849 46.8804 10.9746 46.8804 10.8826 46.8804C10.5884 46.8804 10.2943 46.8454 9.98169 46.8454C9.76106 46.8454 9.59557 46.6705 9.44848 46.3906C9.43009 46.3556 9.39332 46.3207 9.37494 46.2507C9.33816 46.1457 9.30139 46.0408 9.283 45.9358C9.26462 45.8659 9.41171 45.551 9.46687 45.551C9.55881 45.516 9.65073 45.446 9.76106 45.446C10.4965 45.4111 11.2136 45.3761 11.9491 45.3761C13.0707 45.3761 14.1923 45.3761 15.3322 45.3761C15.6632 45.3761 15.9942 45.3411 16.3251 45.3061C16.3619 45.3061 16.3987 45.2712 16.4171 45.2012C16.4354 45.1312 16.3987 45.0612 16.3067 45.0612C16.0125 45.0263 15.7184 44.9213 15.4242 44.9563C15.2955 44.9563 15.1668 44.9213 15.0381 44.8163C14.891 44.6764 14.7255 44.6414 14.56 44.6414C14.1003 44.6414 13.6407 44.6064 13.1626 44.6064C12.8684 44.5714 12.5742 44.6064 12.28 44.3615C12.1881 44.2916 12.0778 44.3615 11.9859 44.4315C11.8571 44.5365 11.7284 44.5365 11.5997 44.4315C11.471 44.3265 11.3423 44.2916 11.2136 44.2916C10.8091 44.2566 10.423 44.2216 10.0185 44.1866C9.98171 44.1866 9.94493 44.1166 9.94493 44.0816C9.94493 44.0117 9.9817 43.9067 10.0553 43.9067C10.5149 43.8717 10.9746 43.8717 11.4526 43.8717C12.4823 43.8718 13.512 43.9067 14.5232 43.9067C14.8542 43.9067 15.1851 43.8718 15.5161 43.8368C15.5897 43.8368 15.6448 43.7318 15.6264 43.6269C15.6264 43.5569 15.608 43.5219 15.5897 43.4519C15.4977 43.242 15.3874 43.1371 15.2403 43.1721C15.1484 43.2071 15.0381 43.242 14.9461 43.312C14.8174 43.417 14.6887 43.417 14.56 43.312C14.3945 43.1721 14.2474 43.207 14.0819 43.347C13.9532 43.4519 13.8061 43.4869 13.6958 43.382C13.3833 43.1021 13.0523 43.1021 12.7213 42.9971C12.6294 42.9621 12.5375 42.8572 12.4823 42.6823C12.4271 42.5423 12.4455 42.4374 12.5375 42.4024C12.6294 42.3324 12.7213 42.3324 12.8317 42.3324C13.2362 42.3324 13.6223 42.3324 14.0268 42.3324C14.1187 42.3324 14.229 42.2974 14.321 42.2974C14.3577 42.2974 14.3761 42.2275 14.4129 42.1925C14.3945 42.1575 14.3761 42.1225 14.3577 42.0875C14.229 41.9826 14.1003 41.9826 13.9716 41.9826C13.512 41.9826 13.0523 42.0526 12.5742 41.9476C12.5007 41.9476 12.4639 41.8426 12.4455 41.7027C12.4455 41.5977 12.4455 41.4228 12.4088 41.3529C12.372 41.2829 12.2801 41.2479 12.2249 41.2479C11.8939 41.2129 11.563 41.2129 11.232 41.1779C11.1033 41.1779 10.9746 41.1429 10.8459 41.038C10.6988 40.898 10.5333 40.8631 10.3678 40.8631C10.0001 40.8631 9.63238 40.8281 9.28303 40.8281C9.19109 40.8281 9.08077 40.8281 8.98884 40.7581C8.54755 40.3733 8.0695 40.5482 7.62822 40.4082C7.53629 40.3733 7.49952 40.3033 7.53629 40.1634C7.55468 40.0934 7.55467 40.0584 7.59145 39.9884C7.70177 39.7435 7.88563 39.7086 8.03273 39.6036C8.12466 39.5686 8.14305 39.4637 8.10628 39.3237C8.05112 39.1138 8.12467 38.9739 8.19821 38.8689C8.2166 38.8339 8.25337 38.799 8.25337 38.729C8.27176 38.624 8.21661 38.5541 8.14306 38.5541C8.05112 38.5191 7.9408 38.5191 7.84886 38.4841C7.81209 38.4841 7.79371 38.4491 7.77532 38.3791C7.73855 38.3092 7.77532 38.2042 7.86726 38.2042C8.29016 38.0993 8.73143 38.1692 9.15433 38.1343C9.31981 38.1343 9.48528 38.0993 9.63238 37.9243C9.72431 37.8194 9.83464 37.8194 9.92658 37.8894C10.0921 37.9943 10.2391 38.0643 10.4046 38.0643C10.4966 38.0643 10.6069 38.0643 10.6988 38.0643C12.1881 38.0293 13.6775 38.0293 15.1668 38.0993C15.3323 38.0993 15.4978 38.0643 15.6632 38.0643C15.7368 38.0643 15.7919 37.9943 15.8103 37.9244C15.7735 37.8894 15.7552 37.8544 15.7184 37.8544C15.6265 37.8194 15.5161 37.8194 15.4242 37.8194C14.5049 37.8194 13.5671 37.8194 12.6478 37.7844C12.4823 37.7844 12.3168 37.7844 12.1514 37.7844C12.0594 37.7844 11.9491 37.7494 11.8572 37.6795C11.7101 37.5395 11.5446 37.5045 11.3791 37.4696C10.9746 37.4695 10.5885 37.4346 10.184 37.4346C9.92657 37.4346 9.65077 37.3996 9.39336 37.3996C9.30143 37.3996 9.19111 37.3646 9.09917 37.2946C8.91531 37.1547 8.73144 37.0497 8.52918 37.0497C8.27177 37.0147 7.99597 37.0147 7.73856 36.8398C7.60985 36.7698 7.48115 36.7698 7.35244 36.7349C6.81922 36.6999 6.286 36.6999 5.77117 36.6649C5.67924 36.6649 5.56892 36.6299 5.47699 36.5949C5.44022 36.5949 5.40344 36.5599 5.38506 36.5249C5.36667 36.42 5.40344 36.35 5.47699 36.315C5.56893 36.28 5.67924 36.2451 5.7344 36.0701C5.75279 35.9652 5.69763 35.8253 5.64247 35.7553C5.62408 35.7203 5.58732 35.6853 5.56893 35.6503C5.47699 35.5454 5.38505 35.5454 5.27473 35.5454C4.94377 35.5454 4.6312 35.3704 4.30024 35.1605C4.11637 35.0556 4.11638 34.9856 4.2267 34.6358C4.33702 34.2859 4.33702 34.2859 4.20831 34.006C4.11638 33.7961 4.11638 33.7262 4.26347 33.6562C4.42895 33.5862 4.57604 33.4463 4.72314 33.3413C4.85184 33.2714 4.98056 33.2364 5.10927 33.1664C5.29314 33.0615 5.36668 32.6766 5.25637 32.4317C5.20121 32.2918 5.12766 32.1519 5.05411 32.0119C4.98057 31.872 4.88863 31.802 4.7967 31.767C4.63122 31.732 4.46574 31.732 4.30025 31.6971C4.22671 31.6971 4.17155 31.6271 4.17155 31.5571C4.17155 31.5221 4.20832 31.4522 4.24509 31.4522C4.30025 31.4172 4.3738 31.3822 4.42896 31.3472C4.55767 31.2423 4.61283 31.0323 4.53928 30.7525C4.48413 30.4726 4.50252 30.2627 4.59446 30.0528C4.61284 30.0178 4.63122 29.9478 4.668 29.9128C4.9438 29.458 5.27477 29.1432 5.62411 28.9333C5.66088 28.9333 5.69766 28.8983 5.71604 28.8983C5.95507 29.0032 6.17572 28.7584 6.39636 28.6884C6.41475 28.6884 6.45152 28.6184 6.45152 28.5484C6.45152 28.5135 6.43313 28.4435 6.39636 28.4435C6.30443 28.3385 6.21248 28.3385 6.10216 28.3385C5.9183 28.3035 5.80798 28.0936 5.77121 27.7788C5.71605 27.4639 5.6425 27.359 5.49541 27.324C5.07251 27.289 4.63124 27.219 4.20834 27.184C4.18995 27.184 4.1348 27.1491 4.1348 27.1141C4.1348 27.0441 4.13479 26.9741 4.17157 26.9391C4.22673 26.8692 4.2819 26.7992 4.2819 26.6593C4.2819 26.6243 4.22673 26.5893 4.20834 26.5893C4.15318 26.5543 4.07963 26.5193 4.02447 26.4843C3.93254 26.4144 3.859 26.3094 3.82223 26.1345C3.78545 25.9596 3.74868 25.7846 3.67513 25.6447C3.60159 25.5397 3.50965 25.4348 3.39933 25.4698C3.30741 25.5048 3.21546 25.5747 3.10514 25.5747C3.0316 25.5747 2.97644 25.5048 2.93967 25.3998C2.9029 25.2949 2.9029 25.1549 2.93967 25.05C3.04999 24.8051 3.19708 24.6301 3.36256 24.5952C3.52804 24.5602 3.69353 24.5602 3.85901 24.5602C3.93256 24.5602 3.98771 24.5252 4.06126 24.4902C4.22674 24.4552 4.33707 24.1054 4.28191 23.7905C4.24514 23.6156 4.20836 23.4407 4.24513 23.2658C4.30029 23.0209 4.41061 22.8809 4.53931 22.776C4.81512 22.5311 5.09093 22.3212 5.38512 22.2862C5.45867 22.2862 5.49543 22.1812 5.49543 22.0413C5.47705 21.9014 5.44028 21.8314 5.38512 21.7614C5.34835 21.7264 5.32996 21.6914 5.29319 21.6914C5.20125 21.6565 5.09092 21.6215 4.99899 21.6215C4.429 21.6215 3.87741 21.5865 3.30742 21.5865C3.23388 21.5865 3.17871 21.5865 3.10516 21.5515C2.90291 21.5515 2.75581 21.2716 2.70065 20.8518C2.68227 20.7119 2.71904 20.6069 2.79259 20.5719C2.84775 20.5369 2.9213 20.502 2.97646 20.502C3.63838 20.432 4.30031 20.397 4.96223 20.432C5.20126 20.432 5.4219 20.2921 5.60577 20.0472C5.62416 20.0122 5.64254 19.9422 5.66093 19.9072C5.66093 19.8722 5.64254 19.8373 5.60577 19.8023C5.58738 19.7673 5.55061 19.7323 5.51384 19.7323C5.34836 19.6973 5.18287 19.6973 5.01739 19.6623C4.77836 19.6623 4.55772 19.6274 4.33708 19.4874C4.1716 19.4174 4.00612 19.3825 3.84064 19.3475C3.76709 19.3125 3.73032 19.2075 3.73032 19.1026C3.73032 19.0326 3.74871 18.9626 3.7671 18.9276C3.82226 18.7877 3.89581 18.6478 3.96935 18.5078C4.06128 18.3329 4.19 18.228 4.31871 18.228C4.35548 18.228 4.39225 18.228 4.41064 18.228C4.70483 18.2629 4.999 18.193 5.27481 17.9481C5.36674 17.8781 5.45868 17.8431 5.56901 17.8431C5.82641 17.8081 6.10222 17.8082 6.35963 17.7382C6.52511 17.7032 6.67221 17.5982 6.8193 17.3883C6.83768 17.3534 6.87446 17.2834 6.87446 17.2484C6.87446 17.2134 6.83769 17.1435 6.80092 17.1435C6.34125 17.0385 5.89997 16.7236 5.44029 16.6886C5.38513 16.6886 5.2932 16.6187 5.27481 16.5137C5.16449 16.1989 4.98063 16.0239 4.79677 15.884C4.70483 15.814 4.63128 15.6741 4.63128 15.4642C4.61289 15.2893 4.61291 15.0793 4.59452 14.9044C4.57614 14.7645 4.46581 14.5546 4.39226 14.5546C4.09807 14.5196 3.80389 14.4846 3.5097 14.4146C3.43615 14.4146 3.36261 14.3097 3.38099 14.2397C3.41777 14.1348 3.47293 14.0998 3.54648 14.0998C3.67518 14.0998 3.80388 14.0648 3.93259 14.0298C3.98775 13.9948 4.0613 13.9598 4.11646 13.9248C4.2084 13.8549 4.28194 13.7149 4.33711 13.54C4.28195 13.3651 4.19002 13.2951 4.13486 13.1552C4.0797 13.0502 4.0797 12.9453 4.09809 12.8403C4.13486 12.7004 4.19001 12.6304 4.26356 12.6654C4.39227 12.7354 4.50259 12.8053 4.64969 12.7354C4.74162 12.7004 4.85194 12.7704 4.94387 12.7354C5.0358 12.7004 5.12774 12.5954 5.21967 12.5255C5.27483 12.4905 5.34838 12.4905 5.40354 12.4555C5.42193 12.4205 5.44032 12.3855 5.47709 12.3156C5.44032 12.2806 5.42193 12.2456 5.38516 12.2456C5.18291 12.2106 4.98065 12.2106 4.79678 12.2106C4.26356 12.2456 3.73035 12.1756 3.21553 12.0707C3.1236 12.0357 3.03165 11.9307 2.95811 11.7908C2.90295 11.6508 2.92134 11.5459 2.99488 11.4759C3.05004 11.4409 3.12359 11.371 3.17875 11.371C3.38101 11.336 3.58326 11.336 3.76713 11.301C3.84068 11.301 3.89583 11.196 3.89583 11.0911C3.89583 10.9512 3.85906 10.8462 3.8039 10.7762C3.65681 10.6013 3.49133 10.6013 3.32585 10.5663C3.19714 10.5313 3.06843 10.4264 2.9765 10.2515C2.95811 10.2165 2.92134 10.1465 2.92134 10.0765C2.92134 10.0415 2.93973 9.97157 2.95812 9.93659C3.01328 9.83164 3.14199 9.76167 3.12361 9.55176C3.10522 9.37683 3.01328 9.2369 2.95812 9.09696C2.92135 8.95702 2.93973 8.85207 3.01328 8.81708C3.06844 8.7821 3.14199 8.74712 3.19715 8.74712C3.52811 8.74712 3.85908 8.74711 4.19004 8.71213C4.26359 8.71213 4.31874 8.67715 4.39229 8.67715C4.48422 8.67715 4.59454 8.39727 4.55777 8.29232C4.521 8.18736 4.46584 8.08241 4.41068 8.04742C4.2452 7.97745 4.07972 7.97745 3.91424 7.94247C3.84069 7.94247 3.78553 7.87249 3.73037 7.80253C3.6936 7.73256 3.80392 7.38272 3.85908 7.34773C3.91424 7.31275 3.9694 7.24277 4.04295 7.20779C4.20843 7.13782 4.37391 7.06786 4.521 6.9629C4.68648 6.82296 4.85196 6.89294 4.99905 6.99789C5.0726 7.03288 5.12776 7.06786 5.18292 6.99789C5.36679 6.85795 5.56905 6.78798 5.7713 6.78798C5.90001 6.78799 6.02872 6.82297 6.17581 6.78799C6.26775 6.78799 6.37806 6.78799 6.46999 6.71802C6.7458 6.47312 7.03999 6.47313 7.33418 6.43815C7.92255 6.40316 8.52931 6.36818 9.11769 6.36818C9.2464 6.36818 9.39349 6.36819 9.50381 6.26323C9.72445 6.08831 9.94509 6.05332 10.1841 6.05332C10.5886 6.05333 10.9747 6.01834 11.3793 5.98336C11.4712 5.98336 11.5815 5.98336 11.6734 5.91339C11.8941 5.77345 12.1147 5.70349 12.3538 5.70349C12.9789 5.6685 13.6041 5.6685 14.2476 5.63353C14.4131 5.63353 14.5785 5.59855 14.744 5.49359C14.9095 5.38864 15.0566 5.31867 15.2221 5.31867C15.3508 5.31867 15.4795 5.31867 15.6266 5.31867C15.8288 5.28369 16.0127 5.21372 16.1782 4.96883C16.3253 4.72394 16.5092 4.584 16.7298 4.584C17.4653 4.584 18.1824 4.54902 18.9178 4.54903C19.3223 4.54903 19.7085 4.54903 20.113 4.54903C20.352 4.54903 20.5726 4.47907 20.7933 4.37411C20.8852 4.30414 20.9955 4.30414 21.0875 4.26915C21.5839 4.1642 22.0803 4.19919 22.5768 4.23418C22.7055 4.23418 22.8342 4.33913 22.9629 4.4091C23.1835 4.58403 23.4042 4.61901 23.6432 4.44409C23.7719 4.33913 23.9006 4.26916 24.0293 4.26917C24.3235 4.26917 24.6177 4.16422 24.9119 4.1992C25.2796 4.23419 25.6474 4.16422 25.9967 4.16422C26.1622 4.16422 26.3277 4.12924 26.4932 4.16423C26.9161 4.2342 27.3573 4.12924 27.7802 4.16423C28.1847 4.19921 28.5709 4.19922 28.9754 4.19922C29.2696 4.19922 29.5637 4.19922 29.8763 4.19922C30.0418 4.19922 30.2073 4.30418 30.3176 4.54908C30.3544 4.65403 30.4095 4.724 30.4647 4.79397C30.5199 4.86394 30.5934 4.89892 30.6486 4.86394C30.6853 4.86394 30.7221 4.86394 30.7405 4.82895C31.0531 4.4791 31.3657 4.51409 31.6782 4.82895C31.7702 4.93391 31.8621 4.89892 31.954 4.82895C32.0092 4.79397 32.0643 4.724 32.1379 4.65403C32.3218 4.51409 32.524 4.51409 32.7079 4.65404C32.8917 4.82896 33.0756 4.9689 33.2779 4.93392C33.4066 4.93392 33.5353 5.03887 33.664 5.10884C33.7559 5.17881 33.8662 5.17881 33.9582 5.10884C34.142 4.93392 34.3443 4.89894 34.5466 4.89894C34.8775 4.86395 35.2085 4.93392 35.5394 4.86396C35.6498 4.82897 35.7233 4.759 35.7049 4.51411C35.7049 4.37417 35.7233 4.26922 35.7969 4.23424C35.8336 4.23424 35.852 4.19925 35.8888 4.19925C35.9623 4.19925 36.0359 4.19925 36.0727 4.26922C36.2565 4.47913 36.4404 4.51411 36.6426 4.5491C36.7346 4.5491 36.8449 4.51412 36.9368 4.44415C37.0839 4.26922 37.231 4.16427 37.3965 4.16427C37.6355 4.16427 37.8562 4.0943 38.0768 3.95436C38.1687 3.88439 38.2791 3.88439 38.371 3.88439C38.6284 3.84941 38.9042 3.8844 39.1616 3.84942C39.3823 3.81444 39.5477 3.98936 39.6948 4.26923C39.7684 4.40917 39.8603 4.47914 39.9706 4.40917C40.0258 4.37419 40.0994 4.30422 40.1545 4.26923C40.3384 4.16429 40.5406 4.09432 40.7245 3.91939C40.8532 3.81444 40.9819 3.81444 41.1106 3.81444C41.3129 3.84942 41.5151 3.84943 41.699 3.98936C42.0483 4.26924 42.4161 4.19928 42.7838 4.1643C42.9677 3.95439 43.1699 4.02435 43.3538 4.12931C43.887 4.16429 44.4202 4.23427 44.9351 4.16431C45.0638 4.12932 45.1925 4.12932 45.3212 4.02437C45.6521 3.77947 45.9647 3.81446 46.2957 4.02437C46.4612 4.12932 46.6083 4.09434 46.7737 3.9544C46.976 3.77948 47.1599 3.81447 47.307 4.16432C47.3437 4.26927 47.3989 4.33924 47.4541 4.4092C47.7298 4.1993 48.0424 4.30426 48.3182 4.02438C48.4653 3.88444 48.6308 3.81448 48.7963 3.81448C48.925 3.81448 49.0537 3.81447 49.2008 3.77949C49.3295 3.77949 49.4582 3.70952 49.5869 3.60456C49.7156 3.49961 49.8443 3.46463 49.973 3.46463C50.2305 3.46463 50.5063 3.46463 50.7637 3.46463C51.2601 3.46463 51.7566 3.46464 52.253 3.42966C52.5104 3.42966 52.7862 3.39467 53.0436 3.46464C53.2091 3.49963 53.3746 3.42966 53.5217 3.25474C53.7791 2.97486 54.0549 2.72997 54.3123 2.48508C54.4042 2.41511 54.4962 2.34514 54.5881 2.31016C55.1213 2.27517 55.6545 2.20521 56.1694 2.2402C56.3349 2.2402 56.5003 2.31017 56.6474 2.45011C56.7761 2.55507 56.9048 2.62503 57.0335 2.62504C57.4381 2.62504 57.8242 2.62503 58.2287 2.66002C58.4677 2.66002 58.6884 2.62503 58.909 2.4851C59.0009 2.41513 59.0929 2.38014 59.2032 2.38014C59.4422 2.34516 59.6629 2.31018 59.9019 2.34516C60.6374 2.38016 61.3544 2.34517 62.0899 2.31019C62.5496 2.31019 63.0092 2.34518 63.4873 2.38016C63.5792 2.38016 63.6896 2.3102 63.7447 2.17026C63.8183 2.03032 63.8734 1.89038 63.947 1.75045C64.0205 1.61051 64.1308 1.57552 64.2228 1.6105C64.2779 1.64549 64.3515 1.64549 64.4066 1.71546C64.4802 1.78543 64.5353 1.82042 64.5905 1.75045C64.9031 1.50555 65.234 1.57553 65.565 1.57553C65.7305 1.57553 65.896 1.50556 66.0431 1.36562C66.135 1.26066 66.2269 1.26066 66.3189 1.36562C66.374 1.4006 66.4292 1.47057 66.5027 1.54054C66.6314 1.6455 66.7601 1.6455 66.8888 1.61051C67.1463 1.54055 67.3853 1.29566 67.6427 1.15572C67.9001 0.980795 68.1575 0.910827 68.4149 0.910828C68.9849 0.910831 69.5365 0.910833 70.1065 0.910835C70.511 0.910837 70.8972 0.875858 71.3017 0.805891C71.3936 0.805891 71.5039 0.735922 71.5959 0.665954C71.7246 0.595985 71.8533 0.630966 71.982 0.665955C72.0555 0.700936 72.1107 0.700937 72.1842 0.665956C72.3497 0.560999 72.4968 0.526019 72.6807 0.52602C73.839 0.491036 74.9974 0.491041 76.1558 0.456058C76.7809 0.456061 77.4061 0.456063 78.0496 0.456066C78.2519 0.456067 78.4357 0.386099 78.638 0.28115C78.8219 0.141212 79.0241 0.176194 79.2264 0.281152C79.2815 0.316133 79.3551 0.351122 79.4102 0.351122C79.5389 0.351123 79.6676 0.211185 79.7963 0.281155C79.9251 0.316136 80.0538 0.456075 80.1825 0.456075C80.2744 0.456076 80.3847 0.456084 80.4767 0.386115C80.6421 0.246177 80.7892 0.246178 80.9547 0.386117C81.0466 0.456087 81.1386 0.491068 81.2489 0.491068C81.6166 0.49107 81.9844 0.491071 82.3337 0.491073C82.4624 0.491074 82.5911 0.456093 82.7198 0.351136C82.9773 0.176218 83.2347 0.176212 83.4921 0.386128C83.584 0.456098 83.6759 0.491079 83.7863 0.491079C84.485 0.456101 85.1837 0.561054 85.864 0.561057C86.1582 0.561059 86.4523 0.56106 86.7649 0.561061C86.9304 0.561062 87.0959 0.596051 87.243 0.701009C87.4085 0.80596 87.5555 0.840949 87.721 0.87593C87.9233 0.91092 88.1255 0.910913 88.3094 0.945902C88.4381 0.945903 88.5668 1.01587 88.6955 1.12083C88.9162 1.29575 89.1552 1.33073 89.3758 1.15581C89.5965 1.01588 89.8171 0.945909 90.0561 1.08585C90.1297 1.12083 90.1849 1.12083 90.2584 1.08585C90.3503 1.05086 90.4607 0.980892 90.5526 0.980893C90.8468 0.980894 91.141 0.980895 91.4535 0.945916C91.5822 0.945916 91.711 0.980898 91.8397 1.08586C92.0051 1.19081 92.1706 1.15583 92.3177 1.05088C92.4464 0.94592 92.5751 0.94592 92.7038 1.01589C92.9245 1.15583 93.1451 1.2258 93.3841 1.2258C94.2851 1.26079 95.1677 1.29578 96.0686 1.29578C96.2709 1.29578 96.4547 1.33077 96.657 1.47071C96.7489 1.54068 96.8408 1.54067 96.9512 1.50569C97.0063 1.4707 97.0799 1.43572 97.135 1.43572C97.7234 1.68062 98.3118 1.61066 98.9186 1.64564C99.176 1.68063 99.4334 1.75059 99.6908 1.85555C99.9482 1.9605 100.206 1.9605 100.481 2.03047C100.592 2.06546 100.665 2.17042 100.739 2.27537C100.757 2.31036 100.776 2.38033 100.812 2.41531C100.868 2.52027 100.923 2.55525 100.978 2.52027C101.162 2.38033 101.364 2.31036 101.566 2.4503C101.621 2.48529 101.677 2.59024 101.713 2.69519C101.768 2.83513 101.695 3.04504 101.566 3.115C101.529 3.14999 101.511 3.14999 101.474 3.14999C101.438 3.14999 101.401 3.18497 101.382 3.18497C101.382 3.14999 101.364 3.08002 101.364 3.04504C101.346 3.01005 101.327 3.01005 101.309 3.01005C101.309 3.08002 101.346 3.14999 101.401 3.18497C101.474 3.60479 101.603 3.95463 101.621 4.40944C101.658 4.89922 101.677 4.89923 101.456 5.07415C101.29 5.21409 101.18 5.42399 101.18 5.77384C101.18 5.84381 101.18 5.91378 101.18 5.94877C101.18 6.0887 101.18 6.19365 101.143 6.33359C101.07 6.64846 101.07 6.92833 101.198 7.17323C101.254 7.27818 101.29 7.38314 101.272 7.52308C101.254 7.62803 101.18 7.69799 101.143 7.80294C101.125 7.83793 101.107 7.9079 101.07 7.94289C100.996 8.11781 101.015 8.32772 101.125 8.39769C101.217 8.46766 101.309 8.50264 101.401 8.60759C101.474 8.67756 101.493 8.78252 101.493 8.88747C101.493 9.02741 101.456 9.13237 101.401 9.16736C101.346 9.23732 101.272 9.23732 101.217 9.27231C101.088 9.34227 101.051 9.51719 101.125 9.65713C101.18 9.79707 101.254 9.93701 101.309 10.0769C101.401 10.2869 101.346 10.5318 101.198 10.6717C101.143 10.7067 101.07 10.7417 101.015 10.7417C100.941 10.7766 100.886 10.8466 100.886 10.9516C100.886 11.0915 100.923 11.1965 100.978 11.2664C101.033 11.3364 101.088 11.3714 101.143 11.4414C101.272 11.5813 101.272 11.6163 101.18 11.8262C101.07 12.0361 101.07 12.0361 101.198 12.211C101.346 12.4559 101.382 12.5958 101.309 12.8407C101.235 13.1206 101.162 13.4005 101.088 13.6804C101.033 13.8903 101.033 13.9253 101.125 14.1702C101.162 14.2751 101.217 14.3451 101.254 14.45C101.309 14.625 101.346 14.7999 101.309 14.9748C101.254 15.3247 101.18 15.6745 101.162 16.0593C101.143 16.3742 101.088 16.6541 101.033 16.9689C100.996 17.1788 101.033 17.3538 101.107 17.4937C101.254 17.8435 101.364 18.2284 101.456 18.6132C101.474 18.7182 101.474 18.8581 101.401 18.9281C101.29 19.068 101.162 19.173 101.088 19.3829C101.051 19.4878 101.033 19.6278 101.033 19.7327C101.033 19.8377 101.051 19.9776 101.088 20.0826C101.18 20.4324 101.106 20.6773 100.959 20.8872C100.867 21.0271 100.867 21.2021 100.959 21.377C101.051 21.5519 101.143 21.7268 101.235 21.9018C101.29 22.0417 101.364 22.2166 101.327 22.4265C101.198 23.1612 101.162 23.8959 101.198 24.6656C101.162 24.6656 101.143 24.6656 101.125 24.7005C101.106 24.7005 101.106 24.7705 101.106 24.8055C101.143 24.6306 101.18 24.5956 101.18 24.4207ZM9.20949 38.4491C9.11755 38.4141 9.02562 38.4141 8.91531 38.4141C8.87853 38.4141 8.86015 38.4491 8.82337 38.4841C8.80499 38.5191 8.78658 38.5541 8.7682 38.589C8.78658 38.624 8.82336 38.694 8.84175 38.694C9.09917 38.799 9.35657 38.694 9.5956 38.694C9.63238 38.694 9.66915 38.659 9.66915 38.624C9.68754 38.5541 9.65076 38.4491 9.57722 38.4491C9.4669 38.4491 9.3382 38.4491 9.20949 38.4491ZM4.37359 79.661C4.39198 79.661 4.35521 79.661 4.33682 79.661C4.26327 79.696 4.2265 79.766 4.24489 79.8359C4.26327 79.8709 4.30005 79.9059 4.31844 79.9409C4.44715 79.9759 4.55747 79.9759 4.68618 79.9059C4.72295 79.9059 4.74133 79.8359 4.75972 79.801C4.72294 79.696 4.66778 79.626 4.61262 79.626C4.53908 79.661 4.46553 79.661 4.37359 79.661ZM56.0223 4.2693C56.0958 4.40924 56.1877 4.40924 56.2797 4.37426C56.3165 4.37426 56.3532 4.33927 56.3532 4.30429C56.3716 4.23432 56.3348 4.16435 56.2613 4.12937C56.1326 4.09438 56.0223 4.16435 56.0223 4.2693Z" fill="#00659E"/>
<path d="M28.5903 84.686C28.3506 84.6593 28.1249 84.6593 27.8851 84.6326C27.8569 84.6326 27.8287 84.606 27.8287 84.5526C27.8287 84.4992 27.8569 84.4191 27.9134 84.4191C28.0121 84.3924 28.1108 84.3657 28.2095 84.339C28.548 84.0187 28.9006 84.0988 29.2391 84.3657C29.2814 84.3924 29.3378 84.3924 29.3801 84.4458C29.4083 84.4725 29.4224 84.4992 29.4365 84.5526C29.4365 84.5526 29.4083 84.606 29.3942 84.6327C29.3519 84.6593 29.2955 84.686 29.2532 84.686C29.0275 84.686 28.8019 84.686 28.5903 84.686Z" fill="#00659E"/>
<path d="M33.201 59.9248C33.328 59.9248 33.4267 60.0054 33.3985 60.0591C33.3421 60.1665 33.2574 60.1665 33.1869 60.1665C33.1305 60.1665 33.0882 60.1665 33.0459 60.1396C33.0318 60.1396 33.0035 60.0859 32.9894 60.0591C33.0035 60.0322 33.0318 59.9785 33.0459 59.9785C33.1023 59.9248 33.1587 59.9248 33.201 59.9248Z" fill="#00659E"/>
<path d="M25.6423 77.2301C25.6987 77.2034 25.7409 77.2301 25.7832 77.3103C25.7691 77.3904 25.7409 77.4438 25.6846 77.4438C25.6142 77.4438 25.5437 77.4438 25.4733 77.4438C25.417 77.4438 25.3747 77.3904 25.3888 77.337C25.3888 77.3103 25.417 77.2836 25.4451 77.2568C25.4733 77.2301 25.4874 77.2301 25.5156 77.2301C25.5578 77.2034 25.6001 77.2301 25.6423 77.2301Z" fill="#00659E"/>
<path d="M63.1555 21.9671C63.1555 21.9403 63.1555 21.8866 63.1696 21.8866C63.2403 21.806 63.3109 21.806 63.3815 21.8597C63.3956 21.8866 63.4238 21.9134 63.4238 21.9403C63.4238 22.0209 63.325 22.0746 63.2261 22.0209C63.1979 22.0477 63.1696 21.994 63.1555 21.9671Z" fill="#00659E"/>
<path d="M28.3499 41.1743C28.3499 41.1474 28.3499 41.0937 28.3499 41.0668C28.3781 40.9593 28.4205 40.9593 28.4346 41.0937C28.4346 41.1205 28.4346 41.1743 28.4346 41.2011C28.4205 41.228 28.4063 41.2817 28.3922 41.2817C28.3781 41.2549 28.364 41.2011 28.3499 41.1743Z" fill="#00659E"/>
<path d="M31.3262 54.8494L31.2842 54.8765L31.2842 54.7954L31.3262 54.8494Z" fill="#00659E"/>
<path d="M29.3936 58.4273C29.3371 58.4273 29.3088 58.3738 29.3088 58.3203C29.323 58.3203 29.3512 58.3203 29.3512 58.3471C29.3653 58.3738 29.3653 58.4273 29.3794 58.4541L29.3936 58.4273Z" fill="#00659E"/>
<path d="M29.3792 58.4521C29.4356 58.4521 29.4639 58.5056 29.4639 58.5591C29.4497 58.5591 29.4215 58.5591 29.4215 58.5323C29.4074 58.5056 29.4074 58.4521 29.3933 58.4253L29.3792 58.4521Z" fill="#00659E"/>
<path d="M30.4512 58.4253C30.4512 58.5588 30.4233 58.5854 30.3815 58.5854C30.3815 58.5588 30.3954 58.5054 30.3954 58.5054C30.4233 58.452 30.4372 58.452 30.4512 58.4253Z" fill="#00659E"/>
<g clip-path="url(#clip0)">
<path d="M77.3837 36.4113H76.5123V35.5388C76.5123 35.1406 76.1897 34.818 75.7915 34.818C75.3933 34.818 75.0706 35.1406 75.0706 35.5388V36.4113H74.1992C73.801 36.4113 73.4784 36.7339 73.4784 37.1321V39.5195C73.4784 39.5611 73.4445 39.5949 73.403 39.5949H67.8299C67.4317 39.5949 67.1091 39.9175 67.1091 40.3157V41.1871H66.2377C65.8395 41.1871 65.5168 41.5098 65.5168 41.908C65.5168 42.3062 65.8395 42.6288 66.2377 42.6288H67.1091V43.5003C67.1091 43.8985 67.4317 44.2211 67.8299 44.2211H73.4029C73.4445 44.2211 73.4783 44.255 73.4783 44.2964V57.0347C73.4783 57.0762 73.4444 57.11 73.4029 57.11H59.0723C59.0308 57.11 58.997 57.0761 58.997 57.0347V53.054C58.997 52.6558 58.6744 52.3332 58.2762 52.3332H57.4048V51.4618C57.4048 51.0636 57.0821 50.741 56.6839 50.741C56.2857 50.741 55.9631 51.0636 55.9631 51.4618V52.3332H55.0916C54.6934 52.3332 54.3707 52.6558 54.3707 53.054V57.0348C54.3707 57.0763 54.3369 57.1101 54.2955 57.1101H39.9648C39.9233 57.1101 39.8896 57.0762 39.8896 57.0348V44.2964C39.8896 44.2549 39.9234 44.2211 39.9648 44.2211H54.2955C54.337 44.2211 54.3707 44.255 54.3707 44.2964V46.6848C54.3707 47.083 54.6934 47.4057 55.0916 47.4057H55.9631V48.2772C55.9631 48.6754 56.2857 48.998 56.6839 48.998C57.0821 48.998 57.4048 48.6754 57.4048 48.2772V47.4057H58.2762C58.6744 47.4057 58.997 47.083 58.997 46.6848V44.2964C58.997 44.2549 59.0308 44.2211 59.0723 44.2211H61.4607C61.8589 44.2211 62.1816 43.8985 62.1816 43.5003V42.6289H63.053C63.4512 42.6289 63.7739 42.3063 63.7739 41.9081C63.7739 41.5099 63.4512 41.1872 63.053 41.1872H62.1816V40.3158C62.1816 39.9176 61.8589 39.595 61.4607 39.595H59.0723C59.0308 39.595 58.997 39.5611 58.997 39.5196V37.1312C58.997 36.733 58.6744 36.4103 58.2762 36.4103H57.4048V35.5389C57.4048 35.1407 57.0821 34.8181 56.6839 34.8181C56.2857 34.8181 55.9631 35.1407 55.9631 35.5389V36.4103H55.0916C54.6934 36.4103 54.3707 36.733 54.3707 37.1312V39.5196C54.3707 39.5612 54.3369 39.595 54.2955 39.595H47.1846C46.7864 39.595 46.4637 39.9176 46.4637 40.3158C46.4637 40.714 46.7864 41.0367 47.1846 41.0367H54.2954C55.1319 41.0367 55.8124 40.3561 55.8124 39.5196V37.852H57.5553V39.5196C57.5553 40.3561 58.2358 41.0367 59.0723 41.0367H60.7399V42.7794H59.0723C58.2358 42.7794 57.5553 43.4599 57.5553 44.2964V45.964H55.8124V44.2964C55.8124 43.4599 55.1319 42.7794 54.2954 42.7794H39.9648C39.1283 42.7794 38.4478 43.4599 38.4478 44.2964V57.0347C38.4478 57.8712 39.1283 58.5517 39.9648 58.5517H54.2954C55.1319 58.5517 55.8124 57.8712 55.8124 57.0347V53.7749H57.5553V57.0348C57.5553 57.8713 58.2358 58.5518 59.0723 58.5518H73.4029C74.2394 58.5518 74.92 57.8713 74.92 57.0348V44.2964C74.92 43.4599 74.2394 42.7794 73.4029 42.7794H68.5508V41.0366H73.4029C74.2394 41.0366 74.92 40.356 74.92 39.5195V37.853H76.6628V60.2194C76.6628 60.2609 76.629 60.2946 76.5876 60.2946H36.7802C36.7387 60.2946 36.7049 60.2608 36.7049 60.2194V20.412C36.7049 20.3705 36.7388 20.3367 36.7802 20.3367H67.9805C68.3787 20.3367 68.7014 20.0141 68.7014 19.6159C68.7014 19.2177 68.3787 18.895 67.9805 18.895H36.7802C36.6147 18.895 36.4557 18.9226 36.3064 18.9718C36.2094 18.9231 36.1001 18.895 35.9841 18.895H34.3918C33.9936 18.895 33.6709 19.2177 33.6709 19.6159C33.6709 20.0141 33.9936 20.3367 34.3918 20.3367H35.267C35.2657 20.3618 35.2631 20.3866 35.2631 20.412V60.2194C35.2631 60.2447 35.2657 60.2695 35.267 60.2946H34.3918C33.9936 60.2946 33.6709 60.6173 33.6709 61.0155C33.6709 61.4137 33.9936 61.7363 34.3918 61.7363H35.2631V62.6077C35.2631 63.0059 35.5858 63.3286 35.984 63.3286C36.3822 63.3286 36.7048 63.0059 36.7048 62.6077V61.7325C36.7299 61.7337 36.7547 61.7363 36.7801 61.7363H76.5875C76.6128 61.7363 76.6376 61.7337 76.6627 61.7325V62.6077C76.6627 63.0059 76.9854 63.3286 77.3836 63.3286C77.7818 63.3286 78.1044 63.0059 78.1044 62.6077V61.0155C78.1044 60.8994 78.0764 60.7902 78.0277 60.693C78.0769 60.5438 78.1044 60.3848 78.1044 60.2193V37.1321C78.1045 36.734 77.7819 36.4113 77.3837 36.4113Z" fill="white"/>
<path d="M76.588 18.895H70.8644C70.4662 18.895 70.1436 19.2177 70.1436 19.6159C70.1436 20.0141 70.4662 20.3367 70.8644 20.3367H76.588C76.6296 20.3367 76.6633 20.3706 76.6633 20.412V30.0425H75.8226C75.8123 30.0422 75.8023 30.041 75.7919 30.041C75.7815 30.041 75.7714 30.0422 75.7612 30.0425L74.9204 30.0426V23.5966C74.9204 22.7602 74.2399 22.0796 73.4034 22.0796H59.0727C58.2363 22.0796 57.5558 22.7602 57.5558 23.5966V30.041H55.8128V23.5966C55.8128 22.7602 55.1323 22.0796 54.2959 22.0796H39.9652C39.1287 22.0796 38.4482 22.7602 38.4482 23.5966V39.5195C38.4482 40.356 39.1287 41.0366 39.9652 41.0366H44.3016C44.6998 41.0366 45.0225 40.7139 45.0225 40.3157C45.0225 39.9175 44.6998 39.5949 44.3016 39.5949H39.9653C39.9238 39.5949 39.8901 39.561 39.8901 39.5195V23.5966C39.8901 23.555 39.9239 23.5213 39.9653 23.5213H54.296C54.3375 23.5213 54.3712 23.5551 54.3712 23.5966V30.7619C54.3712 31.1601 54.6939 31.4827 55.0921 31.4827H55.9635V32.3542C55.9635 32.7524 56.2862 33.0751 56.6844 33.0751C57.0826 33.0751 57.4052 32.7524 57.4052 32.3542V31.4827H58.2766C58.6748 31.4827 58.9975 31.1601 58.9975 30.7619V23.5966C58.9975 23.555 59.0313 23.5213 59.0727 23.5213H73.4034C73.445 23.5213 73.4787 23.5551 73.4787 23.5966V30.7635C73.4787 30.9547 73.5547 31.138 73.6899 31.2733C73.825 31.4084 74.0083 31.4844 74.1996 31.4844H75.071V32.3542C75.071 32.7524 75.3936 33.0751 75.7918 33.0751C76.19 33.0751 76.5127 32.7524 76.5127 32.3542V31.4844H77.384C77.7822 31.4844 78.1049 31.1616 78.1049 30.7635V20.412C78.105 19.5755 77.4245 18.895 76.588 18.895V18.895Z" fill="white"/>
<path d="M74.1995 63.479C73.8013 63.479 73.4786 63.8017 73.4786 64.1999V65.0712H39.89V64.2C39.89 63.8018 39.5673 63.4791 39.1691 63.4791C38.7709 63.4791 38.4482 63.8018 38.4482 64.2V67.3845C38.4482 67.7827 38.7709 68.1053 39.1691 68.1053C39.5673 68.1053 39.89 67.7827 39.89 67.3845V66.513H73.4787V67.3845C73.4787 67.7827 73.8014 68.1053 74.1996 68.1053C74.5978 68.1053 74.9204 67.7827 74.9204 67.3845V64.1999C74.9204 63.8018 74.5977 63.479 74.1995 63.479Z" fill="white"/>
<path d="M29.6154 57.1106C29.2172 57.1106 28.8945 57.4332 28.8945 57.8314C28.8945 58.2296 29.2172 58.5523 29.6154 58.5523H32.8C33.1982 58.5523 33.5209 58.2296 33.5209 57.8314C33.5209 57.4332 33.1982 57.1106 32.8 57.1106H31.9287V23.5218H32.7999C33.1981 23.5218 33.5208 23.1991 33.5208 22.8009C33.5208 22.4027 33.1981 22.0801 32.7999 22.0801H29.6154C29.2172 22.0801 28.8945 22.4027 28.8945 22.8009C28.8945 23.1991 29.2172 23.5218 29.6154 23.5218H30.4869V57.1106H29.6154Z" fill="white"/>
<path d="M29.6154 61.7366H31.2077C31.6059 61.7366 31.9286 61.414 31.9286 61.0158C31.9286 60.6176 31.6059 60.2949 31.2077 60.2949H29.6154C29.2172 60.2949 28.8945 60.6176 28.8945 61.0158C28.8945 61.4139 29.2173 61.7366 29.6154 61.7366Z" fill="white"/>
<path d="M29.6154 20.3367H31.2077C31.6059 20.3367 31.9286 20.0141 31.9286 19.6159C31.9286 19.2177 31.6059 18.895 31.2078 18.895H29.6154C29.2173 18.895 28.8945 19.2178 28.8945 19.6159C28.8945 20.014 29.2173 20.3367 29.6154 20.3367Z" fill="white"/>
<path d="M35.9855 65.0713C35.5873 65.0713 35.2646 65.3939 35.2646 65.7921V67.3843C35.2646 67.7825 35.5873 68.1052 35.9855 68.1052C36.3837 68.1052 36.7064 67.7825 36.7064 67.3843V65.7921C36.7064 65.3939 36.3836 65.0713 35.9855 65.0713Z" fill="white"/>
<path d="M77.3839 65.0713C76.9857 65.0713 76.6631 65.3939 76.6631 65.7921V67.3843C76.6631 67.7825 76.9857 68.1052 77.3839 68.1052C77.7821 68.1052 78.1048 67.7825 78.1048 67.3843V65.7921C78.1048 65.3939 77.7821 65.0713 77.3839 65.0713Z" fill="white"/>
<path d="M33.3098 63.6901C33.0282 63.4086 32.5718 63.4086 32.2903 63.6901L31.2078 64.7726L30.1253 63.6901C29.8436 63.4086 29.3873 63.4086 29.1058 63.6901C28.8242 63.9717 28.8242 64.428 29.1058 64.7096L30.1883 65.7921L29.1057 66.8746C28.8242 67.1563 28.8242 67.6126 29.1057 67.8941C29.2464 68.0349 29.4309 68.1053 29.6154 68.1053C29.7998 68.1053 29.9843 68.0349 30.1252 67.8942L31.2077 66.8117L32.2902 67.8942C32.431 68.0349 32.6156 68.1053 32.8 68.1053C32.9845 68.1053 33.169 68.0349 33.3098 67.8942C33.5913 67.6126 33.5913 67.1563 33.3098 66.8747L32.2273 65.7922L33.3098 64.7097C33.5912 64.4279 33.5912 63.9716 33.3098 63.6901Z" fill="white"/>
</g>
<defs>
<clipPath id="clip0">
<rect width="49.2105" height="49.2105" fill="white" transform="translate(28.8945 18.895)"/>
</clipPath>
</defs>
</svg>
