<svg width="81" height="68" viewBox="0 0 81 68" fill="none" xmlns="http://www.w3.org/2000/svg">
<path d="M77.1936 18.5021C77.3488 18.5021 77.5039 18.5288 77.6449 18.5288C77.7155 18.5288 77.8001 18.5556 77.8706 18.609C78.068 18.7692 78.2655 18.7959 78.4629 18.796C78.6462 18.796 78.8155 18.796 78.9988 18.796C79.0975 18.796 79.2104 18.796 79.295 18.8494C79.5065 18.9829 79.7322 19.0364 79.9578 19.0898C80.0001 19.0898 80.0565 19.1699 80.0847 19.25C80.1271 19.3569 80.1835 19.4904 80.1976 19.624C80.2963 20.2116 80.4091 20.7993 80.5219 21.3869C80.5501 21.5204 80.536 21.6807 80.5078 21.8143C80.4232 22.1081 80.395 22.4286 80.3527 22.7758C80.3104 23.1498 80.2399 23.497 80.1976 23.8977C80.1693 24.1114 80.1693 24.2716 80.2399 24.4319C80.2681 24.512 80.2963 24.5922 80.3245 24.6723C80.4091 24.9928 80.4091 25.3134 80.3527 25.6339C80.3104 25.8209 80.2257 25.9277 80.127 25.9811C80.0283 26.0345 79.9296 26.0345 79.8309 26.0612C79.7604 26.088 79.6757 26.1147 79.6052 26.1414C79.5488 26.1681 79.5206 26.2482 79.5347 26.3551C79.5347 26.3818 79.5629 26.4352 79.577 26.4619C79.5911 26.4886 79.6193 26.542 79.6334 26.542C79.8873 26.5955 80.127 26.7824 80.3386 27.0228C80.3668 27.0495 80.3809 27.0763 80.395 27.103C80.4514 27.1831 80.4655 27.3701 80.395 27.4502C80.1834 27.6906 80.1975 27.9577 80.2822 28.3049C80.3245 28.4652 80.3668 28.6522 80.3668 28.8392C80.3668 29.0796 80.3809 29.32 80.3668 29.5603C80.3386 29.8007 80.2821 30.0144 80.1411 30.0678C80.1129 30.0678 80.0847 30.0946 80.0706 30.1213C80.0424 30.148 80.0142 30.2014 80.0142 30.2014C80.0424 30.2815 80.0847 30.3082 80.1411 30.335C80.2116 30.3617 80.2962 30.3617 80.3668 30.3884C80.4232 30.4151 80.4937 30.6288 80.4796 30.7356C80.4514 30.976 80.3809 31.1897 80.4232 31.4301C80.4514 31.6438 80.4373 31.6972 80.3668 31.7773C80.2539 31.8842 80.1411 32.0177 80.0424 32.1246C79.9719 32.2047 79.9578 32.4184 80.0142 32.4985C80.0565 32.5519 80.0847 32.6321 80.127 32.6855C80.1834 32.7923 80.2398 32.8725 80.2962 32.9793C80.3526 33.0862 80.3526 33.2731 80.3103 33.38C80.268 33.4334 80.2398 33.5135 80.1975 33.5669C80.0988 33.7005 80.0001 33.8608 79.9296 34.0744C79.859 34.3148 79.7462 34.3683 79.6052 34.395C79.5065 34.4217 79.4077 34.4217 79.309 34.4751C79.2526 34.5018 79.2244 34.5819 79.2244 34.6888C79.2244 34.7689 79.2667 34.8758 79.3231 34.8758C79.577 34.9292 79.8308 34.9292 80.0847 34.9826C80.127 34.9826 80.1834 35.0627 80.2257 35.0894C80.3244 35.1963 80.3526 35.41 80.2821 35.5435C80.1411 35.8106 80.0847 36.0777 80.1975 36.4517C80.2398 36.5852 80.2257 36.7188 80.1552 36.8256C80.1411 36.8524 80.1129 36.9058 80.0988 36.9058C80.0001 36.9592 79.9013 36.9859 79.8026 36.9592C79.4218 36.9058 79.0411 36.9859 78.6603 36.9859C78.6321 36.9859 78.6039 37.0126 78.5898 37.0126C78.5616 37.0393 78.5474 37.066 78.5333 37.0927C78.5616 37.1195 78.5757 37.1462 78.6039 37.1729C78.7731 37.253 78.9564 37.1729 79.1398 37.2263C79.2103 37.253 79.2949 37.2263 79.3654 37.3064C79.6052 37.5468 79.8449 37.5468 80.0988 37.5735C80.1552 37.5735 80.1834 37.6804 80.1693 37.7338C80.1552 37.7605 80.1411 37.8139 80.1129 37.8139C80.0847 37.8406 80.0565 37.8406 80.0424 37.8406C79.8449 37.8406 79.6334 37.8406 79.45 38.0276C79.1962 38.1077 78.9705 38.3481 78.7308 38.4817C78.7167 38.4817 78.7026 38.5618 78.6744 38.5885C78.6885 38.6152 78.7167 38.642 78.7308 38.6687C78.8013 38.7221 78.8718 38.7221 78.9564 38.7221C79.2103 38.7221 79.4641 38.7221 79.718 38.7221C79.8449 38.7221 79.9577 38.8556 80.0565 39.0159C80.1129 39.1228 80.1129 39.283 80.0706 39.3899C80.0424 39.47 80 39.4967 79.9436 39.5501C79.859 39.6303 79.859 39.7638 79.9154 39.8974C80.0141 40.1912 80.1975 40.298 80.3385 40.485C80.3808 40.5651 80.3949 40.6453 80.3808 40.7521C80.3808 40.8055 80.3667 40.8322 80.3526 40.8857C80.3244 40.9658 80.3103 41.0459 80.2821 41.1528C80.1975 41.5 80.1129 41.5267 79.9859 41.4466C79.859 41.3665 79.7321 41.3664 79.6193 41.4733C79.5205 41.5534 79.4218 41.6068 79.3372 41.7137C79.1962 41.8739 79.0551 41.9007 78.9 41.9007C78.3641 41.8739 77.8282 41.8739 77.3064 41.9006C77.1512 41.9006 77.1089 42.0342 77.1653 42.2479C77.2358 42.5417 77.2076 42.8088 77.1512 43.0759C77.123 43.2095 77.1512 43.343 77.2076 43.4499C77.2923 43.6368 77.391 43.7704 77.4615 43.9841C77.5038 44.1176 77.5038 44.2779 77.4615 44.3847C77.4051 44.545 77.3205 44.6518 77.2499 44.7854C77.1089 45.0258 77.0525 45.3463 77.0384 45.6936C77.0384 45.8271 77.0384 45.9874 77.0384 46.1209C77.0384 46.3613 77.0666 46.6017 77.1512 46.7887C77.1935 46.8955 77.2499 47.0291 77.2922 47.1359C77.3345 47.2695 77.3487 47.403 77.3487 47.5366C77.3486 47.8304 77.3204 48.0975 77.2499 48.3646C77.2076 48.5249 77.1512 48.6852 77.1089 48.8721C77.0807 49.0057 77.0807 49.1392 77.1089 49.2995C77.1371 49.3796 77.1512 49.4598 77.1794 49.5666C77.1935 49.6467 77.2217 49.7536 77.2217 49.8337C77.2076 50.1542 77.2358 50.5015 77.1371 50.822C77.0807 51.0357 77.0525 51.2761 77.0666 51.5165C77.0948 51.9973 77.0666 52.4781 77.0102 52.9589C76.9819 53.1458 76.9819 53.3328 77.0102 53.5198C77.0525 53.8403 77.1089 54.1608 77.1794 54.4814C77.1935 54.5615 77.1935 54.6683 77.1653 54.7485C77.0948 55.069 77.0525 55.3895 77.0525 55.7368C77.0525 55.9772 76.996 56.1908 76.9255 56.4045C76.855 56.5915 76.8127 56.8319 76.7986 57.0723C76.7845 57.4997 76.7563 57.927 76.7563 58.3544C76.7563 58.7016 76.7281 59.0222 76.6435 59.316C76.6293 59.3694 76.6293 59.3961 76.6152 59.4495C76.587 59.7701 76.6011 60.1173 76.5165 60.4378C76.5306 60.5447 76.5306 60.6248 76.5447 60.7317C76.5447 60.8385 76.5729 60.9453 76.5447 61.0255C76.4601 61.3994 76.446 61.7734 76.4601 62.1473C76.4742 62.4411 76.446 62.7349 76.3755 62.9753C76.3332 63.1089 76.3191 63.2424 76.3191 63.376C76.305 63.6164 76.305 63.8568 76.2768 64.0972C76.2626 64.2842 76.1921 64.4444 76.1075 64.5513C75.9242 64.7917 75.7549 65.0053 75.5434 65.0053C75.4588 65.0053 75.4024 65.0588 75.3319 65.1389C75.2331 65.219 75.1344 65.2457 75.0357 65.2725C74.8523 65.2992 74.6831 65.2992 74.4998 65.3259C74.4011 65.3526 74.2882 65.3259 74.2036 65.406C73.9216 65.5396 73.6536 65.5663 73.3715 65.5663C72.6382 65.5663 71.9048 65.593 71.1574 65.593C70.4945 65.593 69.8317 65.593 69.183 65.593C68.9714 65.593 68.774 65.6197 68.5906 65.7532C68.4919 65.8066 68.3791 65.8066 68.2804 65.7532C68.2381 65.7265 68.1816 65.6998 68.1393 65.6731C68.0124 65.6197 67.8855 65.6197 67.7586 65.6998C67.6598 65.7532 67.5611 65.8066 67.4624 65.8066C66.8278 65.8066 66.1931 65.8868 65.5585 65.86C65.1072 65.8333 64.6418 65.8868 64.1905 65.8868C64.0354 65.8868 63.8943 65.9402 63.7392 66.0203C63.6687 66.0737 63.5841 66.1004 63.5136 66.1004C63.0341 66.1271 62.5546 66.1539 62.0751 66.1806C61.9763 66.1806 61.8776 66.234 61.7789 66.2874C61.7084 66.3408 61.6379 66.3408 61.5532 66.3141C61.4263 66.234 61.2994 66.2073 61.1866 66.3141C61.0173 66.4477 60.834 66.4477 60.6648 66.4744C60.4673 66.5011 60.2558 66.4744 60.0583 66.4744C59.8609 66.4744 59.6493 66.5278 59.4519 66.6346C59.2545 66.7415 59.0429 66.7415 58.8455 66.6346C58.6057 66.5011 58.3519 66.4744 58.1121 66.2874C58.0416 66.234 57.957 66.2607 57.8865 66.3141C57.7736 66.4209 57.6467 66.4744 57.5198 66.4744C57.3365 66.5011 57.1672 66.5011 56.998 66.6346C56.9275 66.688 56.857 66.688 56.7723 66.7147C56.6595 66.7415 55.1364 66.7147 55.0236 66.688C54.9531 66.6613 54.8684 66.6346 54.7979 66.5812C54.7415 66.5545 54.6992 66.5545 54.6428 66.5812C54.6005 66.6079 54.5441 66.6346 54.5018 66.6613C54.3466 66.7147 54.2056 66.7147 54.0505 66.6079C53.994 66.5812 53.9517 66.5812 53.9094 66.6079C53.6415 66.7949 53.3594 66.7682 53.0915 66.5545C53.0209 66.501 52.9504 66.501 52.8658 66.5545C52.7953 66.5812 52.7248 66.6079 52.6402 66.5545C52.5132 66.4743 52.3863 66.4743 52.2594 66.5545C52.0337 66.688 51.8081 66.7414 51.5824 66.7414C51.2581 66.7414 50.9196 66.7681 50.5952 66.7681C50.4401 66.7681 50.2991 66.8483 50.1439 66.9551C50.0452 67.0352 49.9465 67.0352 49.8478 66.9551C49.8055 66.9284 49.7491 66.9017 49.7067 66.875C49.6362 66.8483 49.5516 66.8216 49.4811 66.9017C49.2837 67.0887 49.0862 67.0887 48.8888 67.0085C48.7336 66.9551 48.5926 66.8483 48.4375 66.9551C48.3952 66.9818 48.3388 66.9551 48.2964 66.9284C48.1695 66.8483 48.0567 66.875 47.9298 66.9017C47.6336 67.0085 47.3374 67.0887 47.0272 67.0352C46.9285 67.0085 46.8297 66.9818 46.7169 67.0085C46.2374 67.1154 45.7579 67.0352 45.2784 67.0619C44.954 66.9818 44.6156 67.0085 44.2912 67.0352C44.1079 67.0619 43.9386 67.0085 43.7694 66.8482C43.7271 66.8215 43.6707 66.7948 43.6284 66.8482C43.4591 66.9818 43.2899 67.0352 43.1065 67.0352C42.8245 67.0352 42.5424 67.0619 42.2745 67.0619C41.9501 67.0886 41.6116 67.0352 41.2873 66.9551C41.2168 66.9284 41.1462 66.8749 41.0616 66.8482C40.9911 66.7948 40.9065 66.7948 40.836 66.8482C40.6949 66.9284 40.5398 66.9818 40.3847 67.0085C40.0039 67.0619 39.6231 66.9818 39.2423 66.9818C39.1718 66.9818 39.0872 66.9551 39.0167 66.9016C38.8193 66.7681 38.6359 66.7147 38.4244 66.9016C38.2551 67.0352 38.0718 67.0352 37.9026 66.9284C37.8602 66.9016 37.8038 66.8482 37.7615 66.8215C37.7192 66.7948 37.6628 66.7681 37.6064 66.7681C37.5359 66.7681 37.4513 66.7414 37.3807 66.7948C37.2115 66.9283 37.0423 66.9818 36.8589 66.9818C36.6756 66.9551 36.5064 67.0085 36.323 67.0352C35.914 67.0619 35.505 67.0886 35.1102 67.0085C35.0114 66.9818 34.9127 66.9551 34.814 66.9016C34.7576 66.8749 34.7153 66.8749 34.673 66.9283C34.4755 67.0886 34.2781 67.0352 34.0806 67.1687C34.0242 67.1954 33.9819 67.1954 33.9255 67.1687C33.6011 67.0352 33.2768 67.0085 32.9383 67.0619C32.487 67.142 32.0216 67.0619 31.5703 67.0619C31.4434 67.0619 31.3165 67.0085 31.2036 66.9283C31.1331 66.8749 31.0626 66.9016 30.978 66.9283C30.9075 66.955 30.8229 67.0085 30.7523 67.0085C30.3716 66.9817 29.9908 67.0352 29.61 67.0352C29.5113 67.0352 29.3985 67.0619 29.2997 67.0352C29.1023 66.9817 28.8908 67.0352 28.6933 67.0084C28.6369 67.0084 28.5946 66.955 28.5523 66.9283C28.51 66.9016 28.4536 66.9016 28.4113 66.955C28.2984 67.0619 28.1715 67.1153 28.0446 67.0886C26.9586 67.0351 25.8586 67.0886 24.7727 67.0084C24.547 66.9817 24.3214 67.0084 24.0816 67.0084C23.9547 67.0084 23.8278 66.9817 23.7009 66.9016C23.6303 66.8482 23.5457 66.9016 23.4752 66.9283C23.4188 66.9283 23.3765 66.955 23.3201 66.9283C23.1226 66.7947 22.9252 66.7947 22.7137 66.7947C22.2059 66.7947 21.6982 66.7947 21.1905 66.768C21.0213 66.768 20.838 66.768 20.6687 66.6078C20.6264 66.5543 20.57 66.5276 20.5277 66.581C20.3585 66.7146 20.1892 66.7413 20.0059 66.7146C19.8225 66.6879 19.6533 66.7146 19.47 66.7146C19.343 66.7146 19.2161 66.6879 19.1033 66.6077C19.061 66.581 19.0046 66.5543 18.9623 66.5276C18.8071 66.4742 18.652 66.4742 18.511 66.6077C18.4122 66.6879 18.3135 66.7146 18.2148 66.6345C18.1161 66.5543 18.0315 66.5009 17.9186 66.5009C17.6366 66.5009 17.3545 66.5009 17.0866 66.4742C16.9032 66.4742 16.734 66.4742 16.5648 66.3406C16.4801 66.2872 16.4237 66.394 16.3814 66.5009C16.3532 66.581 16.2968 66.6077 16.2545 66.581C16.1276 66.5009 16.0006 66.4742 15.8737 66.4742C15.366 66.4742 14.8583 66.4475 14.3506 66.4475C14.1532 66.4475 13.9416 66.4207 13.7442 66.2872C13.5749 66.1803 13.3916 66.2338 13.2224 66.1803C13.0954 66.1536 12.9685 66.1269 12.8416 66.1002C12.63 65.8598 12.4044 65.8865 12.1787 65.8865C11.9672 65.8865 11.7698 65.8598 11.5864 65.6728C11.5441 65.6194 11.4877 65.6194 11.4454 65.6194C11.389 65.6194 11.3467 65.6194 11.2903 65.6194C10.7261 65.6728 10.1761 65.5927 9.612 65.566C9.42866 65.566 9.25942 65.4591 9.11839 65.2455C9.03378 65.1119 8.93506 65.1386 8.83634 65.2187C8.73762 65.2989 8.63889 65.2722 8.54018 65.192C8.39915 65.0585 8.25812 65.0051 8.10298 65.0051C7.97606 65.0051 7.84913 65.0051 7.72221 65.0051C7.62348 65.0051 7.52477 64.9516 7.42604 64.8982C7.35553 64.8448 7.27091 64.8982 7.2004 64.8982C7.14399 64.8982 7.10168 64.9249 7.04527 64.8982C6.84782 64.7647 6.65039 64.7647 6.43884 64.7647C5.93113 64.7379 5.42343 64.7379 4.91572 64.7112C4.87341 64.7112 4.817 64.6578 4.77469 64.6311C4.71828 64.6044 4.69007 64.5243 4.70417 64.3907C4.71828 64.3106 4.74649 64.2037 4.8029 64.2037C5.00034 64.1503 5.19777 64.0969 5.39522 63.9633C5.43753 63.9366 5.49394 63.9633 5.55035 63.99C5.69139 64.0969 5.84652 64.1503 6.00165 64.0435C6.14268 63.9366 6.29781 63.8832 6.45294 63.8565C6.50935 63.8298 6.55167 63.8031 6.55167 63.7229C6.55167 63.7229 6.50935 63.6695 6.48115 63.6695C6.10037 63.6428 5.7196 63.6161 5.33881 63.6161C5.08496 63.6161 4.8311 63.5894 4.57725 63.5894C4.37981 63.5894 4.16826 63.5627 3.98493 63.4024C3.94261 63.3757 3.88621 63.3757 3.8298 63.4024C3.50542 63.6428 3.18105 63.5627 2.85668 63.5092C2.81438 63.5092 2.75797 63.4558 2.71565 63.4291C2.61694 63.349 2.51822 63.3223 2.4195 63.3223C2.26437 63.2956 2.10923 63.2956 1.9682 63.2688C1.94 63.2688 1.91179 63.2421 1.89768 63.2154C1.88359 63.1353 1.92589 63.0819 1.9682 63.0284C2.17974 62.788 2.39129 62.7346 2.63105 62.8415C2.72976 62.8949 2.82848 62.8949 2.9272 62.8415C3.15285 62.7079 3.37851 62.7346 3.60415 62.8682C3.66056 62.8949 3.70288 62.9216 3.74518 62.8949C4.01314 62.7079 4.29519 62.8148 4.57725 62.8148C4.64777 62.8148 4.73239 62.8415 4.80291 62.8949C4.92984 62.975 5.04265 62.9483 5.16958 62.8949C5.56446 62.6812 5.97345 62.6545 6.36834 62.9216C6.55167 63.0552 6.70681 62.9216 6.84784 62.7079C6.86194 62.6812 6.86194 62.6011 6.84784 62.6011C6.80553 62.5744 6.74912 62.5477 6.70681 62.521C6.55168 62.4943 6.39654 62.4675 6.25551 62.4943C5.81832 62.5744 5.39523 62.4942 4.95804 62.4675C4.88752 62.4675 4.80291 62.4408 4.73239 62.3874C4.63367 62.3073 4.53495 62.334 4.43622 62.3874C4.36571 62.4141 4.2811 62.3874 4.21058 62.334C4.11186 62.2538 4.01314 62.2538 3.91441 62.334C3.71697 62.4675 3.51954 62.4675 3.3221 62.334C3.11055 62.1737 2.88489 62.147 2.64515 62.1737C2.46181 62.2004 2.29258 62.1203 2.13744 61.96C2.01052 61.8265 1.8977 61.8799 1.77077 62.0134C1.74256 62.0401 1.72846 62.0669 1.70026 62.0669C1.64384 62.1203 1.55922 62.0936 1.50281 61.9333C1.41819 61.7196 1.31947 61.6395 1.17844 61.6395C1.12203 61.6395 1.07972 61.6395 1.02331 61.6128C0.966897 61.5861 0.938692 61.5059 0.938692 61.4258C0.938692 61.3991 0.966906 61.3457 0.995112 61.3457C1.15024 61.319 1.29126 61.2923 1.4464 61.2388C1.50281 61.2121 1.53102 61.1587 1.55923 61.0786C1.60154 60.9717 1.53102 60.8115 1.4464 60.758C1.41819 60.758 1.38999 60.7313 1.37588 60.7313C1.30537 60.758 1.23485 60.8115 1.16434 60.8649C1.06562 60.945 0.9669 60.9717 0.868184 60.8649C0.825871 60.8115 0.783566 60.7847 0.727155 60.7313C0.684842 60.6779 0.642538 60.6245 0.642538 60.5176C0.642538 60.4909 0.684851 60.4642 0.713057 60.4642C0.783568 60.4375 0.868185 60.4375 0.938696 60.4375C1.50281 60.4642 2.05284 60.4108 2.61696 60.3841C2.72978 60.3841 2.81439 60.304 2.88491 60.1704C3.04004 59.8766 3.23748 59.8232 3.44903 59.8232C3.95673 59.8232 4.46444 59.8232 4.97215 59.7965C5.04266 59.7965 5.11318 59.7163 5.1696 59.5828C5.1837 59.5561 5.19779 59.5027 5.1837 59.4492C5.1837 59.4225 5.15549 59.3691 5.14138 59.3691C5.09908 59.3424 5.04267 59.3157 5.00035 59.289C4.7042 59.2088 4.39393 59.2355 4.08367 59.2355C3.70288 59.2355 3.32211 59.2355 2.94133 59.2355C2.7862 59.2355 2.64516 59.2088 2.49003 59.1287C2.39131 59.0753 2.29259 59.0753 2.19388 59.0486C1.88361 59.0218 1.58744 59.0486 1.29128 59.2088C1.19255 59.2622 1.09384 59.2355 0.995121 59.1821C0.938709 59.1554 0.910496 59.0753 0.910497 58.9684C0.910497 58.915 0.924604 58.8883 0.924604 58.8349C0.938711 58.7814 0.95281 58.7547 0.96691 58.728C1.09384 58.5945 1.22076 58.4342 1.37589 58.3808C1.44641 58.3541 1.53103 58.3007 1.58744 58.2472C1.72847 58.087 1.86951 58.0603 2.02464 58.0603C2.09515 58.0603 2.12336 58.0068 2.09516 57.9267C2.08105 57.9 2.06694 57.8466 2.03874 57.8466C1.89771 57.713 1.77079 57.5795 1.60155 57.6062C1.47463 57.6062 1.3477 57.5795 1.22077 57.5528C1.17846 57.5528 1.10794 57.526 1.07974 57.4726C1.05153 57.4192 1.06564 57.2857 1.06564 57.2055C1.06564 57.0987 1.03744 57.0453 0.981024 57.0185C0.910505 56.9918 0.825888 56.9651 0.755377 56.9117C0.713065 56.885 0.670752 56.8316 0.628448 56.7514C0.55793 56.6446 0.529724 56.4843 0.557931 56.3775C0.64255 56.0303 0.727169 55.683 0.811788 55.3358C0.854101 55.1488 0.924613 55.042 1.02334 54.9351C1.09385 54.8817 1.15027 54.8016 1.20668 54.6947C1.23489 54.6413 1.24899 54.5345 1.26309 54.4543C1.27719 54.3742 1.17848 54.1605 1.12207 54.1605C1.09386 54.1605 1.06565 54.1338 1.05155 54.1338C0.924624 54.1338 0.797694 54.1071 0.670764 54.1071C0.543841 54.1071 0.416919 54.0804 0.289989 54.0804C0.219478 54.0804 0.191265 54.027 0.205372 53.9468C0.205372 53.8934 0.233578 53.8667 0.247677 53.84C0.402814 53.6797 0.57205 53.5462 0.755392 53.5462C0.811803 53.5462 0.854108 53.5462 0.91052 53.5195C1.06566 53.4927 1.12207 53.3592 1.13618 53.0654C1.13618 52.9585 1.06566 52.7716 1.00925 52.7716C0.755395 52.7181 0.501535 52.6914 0.247682 52.638C0.177171 52.6113 0.106661 52.5312 0.0502496 52.451C-0.00616183 52.3709 -0.0202753 52.1572 0.0361368 52.0771C0.163068 51.9168 0.289999 51.7565 0.416922 51.623C0.487441 51.5429 0.557952 51.4894 0.62847 51.4894C0.854117 51.4627 1.07976 51.4627 1.30541 51.3292C1.48875 51.3025 1.65799 51.3025 1.84133 51.2758C2.12339 51.2491 2.40545 51.2223 2.6734 51.1956C2.70161 51.1956 2.71571 51.1689 2.74392 51.1422C2.72981 51.1155 2.72981 51.0621 2.71571 51.0621C2.57468 50.9552 2.43366 50.8751 2.33494 50.608C2.25032 50.3943 2.10929 50.3943 1.98236 50.3676C1.92595 50.3676 1.88364 50.3142 1.85543 50.234C1.85543 50.234 1.88365 50.1539 1.91185 50.1539C2.03878 50.1005 2.1657 50.0471 2.27852 49.9402C2.39135 49.8067 2.53238 49.8601 2.6452 49.8067C2.67341 49.8067 2.70161 49.78 2.71571 49.7533C2.74392 49.6998 2.72983 49.6197 2.68751 49.5396C2.6029 49.4327 2.51828 49.3259 2.44776 49.1923C2.34905 49.0321 2.22212 48.9519 2.09519 48.9519C1.91185 48.9519 1.74262 48.9252 1.55928 48.9252C1.48876 48.9252 1.40415 48.9252 1.33363 48.8718C1.03747 48.6848 0.727207 48.7115 0.431049 48.6314C0.374637 48.6047 0.332317 48.5513 0.346425 48.4711C0.346425 48.4177 0.360532 48.391 0.374631 48.3376C0.416944 48.204 0.487455 48.1239 0.557966 48.0972C0.684897 48.0705 0.811827 48.0438 0.93875 48.0171C1.03747 47.9903 1.15029 48.0171 1.23491 47.9636C1.46056 47.8034 1.68621 47.8301 1.91186 47.8034C2.10931 47.7767 2.32085 47.7767 2.51829 47.75C2.54649 47.75 2.56059 47.6965 2.57469 47.6698C2.56059 47.6431 2.56059 47.5897 2.53239 47.5897C2.49008 47.563 2.43367 47.5363 2.39136 47.5096C2.13751 47.4561 1.88366 47.4829 1.6298 47.4828C1.47467 47.4828 1.31954 47.4828 1.17851 47.4561C1.1503 47.4561 1.12209 47.4294 1.12209 47.376C1.10799 47.3226 1.13619 47.2425 1.19261 47.2425C1.31954 47.2157 1.44646 47.2157 1.57339 47.2157C1.67211 47.2157 1.77083 47.189 1.86955 47.1089C1.98237 47.0021 2.1093 46.9753 2.23623 46.9486C2.46188 46.9219 2.68752 46.9219 2.92727 46.8952C2.99778 46.8952 3.08241 46.8952 3.15293 46.8685C3.29396 46.8151 3.43498 46.6548 3.59012 46.6548C3.74524 46.6548 3.90038 46.6548 4.04141 46.5747C4.06962 46.5747 4.08372 46.5213 4.09783 46.4946C4.08372 46.4679 4.05552 46.4411 4.02731 46.4144C3.92859 46.361 3.82986 46.361 3.73115 46.361C3.43498 46.361 3.12472 46.3877 2.82856 46.2809C2.80035 46.2809 2.78625 46.2275 2.77215 46.2007C2.78625 46.174 2.81446 46.1206 2.82856 46.1206C2.89908 46.0939 2.98369 46.0672 3.05421 46.0672C3.33627 46.0405 3.60422 46.0672 3.88628 45.9871C3.90039 45.9871 3.92859 45.9336 3.9427 45.9069C3.92859 45.8802 3.91449 45.8268 3.88628 45.8001C3.74526 45.72 3.59012 45.7467 3.44909 45.6131C3.40678 45.5597 3.35037 45.5597 3.30806 45.6131C3.19524 45.6932 3.06831 45.7467 2.94138 45.7467C2.78626 45.7467 2.63112 45.7734 2.49009 45.7734C2.33495 45.7734 2.19393 45.7199 2.0529 45.5597C2.01059 45.5063 1.96829 45.4796 1.91187 45.4528C1.78494 45.3994 1.67212 45.346 1.5593 45.2124C1.30545 44.972 1.03749 44.8385 0.755429 44.8118C0.684911 44.8118 0.656705 44.7316 0.684911 44.6782C0.699018 44.6515 0.727224 44.6248 0.75543 44.6248C1.16442 44.5981 1.5734 44.5447 1.96828 44.518C2.15162 44.518 2.32086 44.4913 2.4901 44.3844C2.56061 44.331 2.64522 44.331 2.71574 44.3577C2.84267 44.4111 2.9555 44.4111 3.08242 44.3577C3.20935 44.3043 3.33627 44.3043 3.4632 44.2776C3.68885 44.2509 3.9145 44.2509 4.15424 44.2242C4.25297 44.2242 4.36579 44.2242 4.45041 44.144C4.69016 43.9571 4.94402 43.9571 5.19787 43.9036C5.353 43.8769 5.49403 43.7701 5.60685 43.6098C5.62095 43.5831 5.62096 43.5297 5.62096 43.503C5.60686 43.4763 5.57865 43.4496 5.55044 43.4496C5.16967 43.4496 4.78888 43.4496 4.4081 43.4496C4.30937 43.4496 4.19656 43.4496 4.11194 43.503C3.94271 43.6098 3.75936 43.6098 3.59013 43.6365C3.26576 43.6632 2.92729 43.6632 2.60292 43.6899C2.34906 43.6899 2.09522 43.6899 1.85546 43.5297C1.75675 43.4495 1.65802 43.4763 1.55931 43.4763C1.37596 43.4763 1.20673 43.4763 1.03749 43.3694C0.981083 43.3427 0.952877 43.2626 0.938771 43.1557C0.924672 43.0489 0.938772 42.9687 1.00929 42.942C1.0516 42.9153 1.10801 42.8886 1.15032 42.8619C1.30545 42.8352 1.44649 42.8085 1.60161 42.7818C1.75675 42.7818 1.89778 42.6749 2.05292 42.6215C2.09522 42.5948 2.15163 42.6215 2.20804 42.6215C2.27856 42.6482 2.34907 42.6749 2.43368 42.6215C2.63113 42.488 2.82857 42.488 3.04012 42.488C3.22346 42.488 3.39269 42.488 3.57603 42.488C3.61834 42.488 3.67475 42.4345 3.71706 42.4078C3.75937 42.3811 3.80167 42.301 3.84399 42.2476C3.97091 42.0606 4.11194 41.9805 4.26708 41.9805C4.67607 41.9538 5.08505 41.9271 5.47994 41.9003C5.55045 41.9003 5.63507 41.8736 5.70558 41.8202C5.87482 41.6867 6.04406 41.6332 6.22739 41.6332C6.38253 41.6332 6.53766 41.6332 6.67869 41.6065C6.7492 41.6065 6.83382 41.5798 6.90433 41.5264C7.07357 41.4196 7.24281 41.3394 7.41205 41.2326C7.55308 41.1257 7.7082 41.099 7.86334 41.099C7.99026 41.099 8.11719 41.0189 8.23002 40.9121C8.30054 40.8586 8.37105 40.8052 8.44156 40.8052C8.72362 40.7785 9.00568 40.7518 9.25953 40.5648C9.41467 40.5381 9.5557 40.4847 9.71083 40.458C9.75314 40.4313 9.80955 40.4046 9.85186 40.3511C9.89417 40.2977 9.93647 40.2176 9.93647 40.1375C9.93647 40.0573 9.90827 39.9772 9.85186 39.9772C9.78134 39.9505 9.69673 39.9505 9.62622 39.9238C9.5698 39.9238 9.52749 39.8703 9.52749 39.7902C9.52749 39.7635 9.5698 39.7368 9.5839 39.7101C9.65442 39.6834 9.73903 39.6834 9.80955 39.6567C9.86596 39.6567 9.92238 39.6032 9.93647 39.5231C9.95058 39.443 9.90827 39.3361 9.86596 39.2827C9.82365 39.2293 9.78135 39.1759 9.73904 39.1492C9.66852 39.1225 9.58391 39.0957 9.51339 39.0957C9.20312 39.069 8.90697 39.0423 8.59669 39.0423C8.44157 39.0423 8.30054 38.9889 8.14541 38.9088C8.04668 38.8553 7.94797 38.8553 7.84925 38.8553C7.28513 38.8286 6.73511 38.8286 6.17099 38.8286C6.04406 38.8286 5.91714 38.8286 5.79021 38.8019C5.7197 38.8019 5.64919 38.7218 5.57868 38.6416C5.53636 38.5882 5.49405 38.5348 5.45175 38.5081L5.46584 38.5348C5.49405 38.3211 5.59278 38.2677 5.66329 38.1341C5.73381 38.0273 5.7338 37.867 5.67739 37.7602C5.64918 37.7068 5.60688 37.6266 5.56457 37.5732C5.55047 37.5465 5.55047 37.4664 5.55047 37.4664C5.6774 37.3061 5.83253 37.3061 5.97356 37.1993C6.08639 37.1191 6.22741 37.1191 6.34023 37.0657C6.36844 37.0657 6.38255 37.0123 6.39665 36.9856C6.41075 36.9322 6.38255 36.8787 6.31203 36.852C6.25562 36.8253 6.21331 36.8253 6.1569 36.8253C6.12869 36.8253 6.10049 36.8253 6.08638 36.8253C5.80432 36.8253 5.53637 36.6383 5.26841 36.5048C5.24021 36.5048 5.2261 36.4514 5.212 36.3979C5.212 36.3712 5.2261 36.3178 5.25431 36.2911C5.39534 36.1576 5.53637 36.1041 5.69151 36.024C5.79023 35.9706 5.88894 35.9706 5.98767 35.9706C6.69281 35.9439 7.41207 35.9172 8.11722 35.8637C8.17363 35.8637 8.21593 35.8103 8.21593 35.7569C8.21593 35.7302 8.17363 35.6768 8.15953 35.6768C8.08901 35.6501 8.00439 35.6501 7.93387 35.6501C7.70823 35.6501 7.48259 35.6233 7.24283 35.6233C7.0736 35.6233 6.94667 35.4898 6.83385 35.2761C6.81974 35.2494 6.79154 35.2227 6.77744 35.1693C6.74924 35.0891 6.72103 35.009 6.70693 34.9289C6.69283 34.8754 6.80565 34.6351 6.84796 34.6351C6.91848 34.6083 6.98899 34.5549 7.0736 34.5549C7.63772 34.5282 8.18773 34.5015 8.75185 34.5015C9.61213 34.5015 10.4724 34.5015 11.3468 34.5015C11.6007 34.5015 11.8545 34.4748 12.1084 34.4481C12.1366 34.4481 12.1648 34.4214 12.1789 34.368C12.193 34.3145 12.1648 34.2611 12.0943 34.2611C11.8686 34.2344 11.643 34.1543 11.4173 34.181C11.3186 34.181 11.2199 34.1543 11.1212 34.0741C11.0083 33.9673 10.8814 33.9406 10.7545 33.9406C10.4019 33.9406 10.0493 33.9139 9.68265 33.9139C9.45701 33.8872 9.23136 33.9139 9.00571 33.7269C8.9352 33.6735 8.85058 33.7269 8.78006 33.7803C8.68134 33.8605 8.58262 33.8605 8.4839 33.7803C8.38518 33.7002 8.28647 33.6735 8.18774 33.6735C7.87748 33.6468 7.58131 33.6201 7.27105 33.5933C7.24284 33.5933 7.21464 33.5399 7.21464 33.5132C7.21464 33.4598 7.24284 33.3797 7.29925 33.3797C7.65183 33.3529 8.0044 33.3529 8.37108 33.3529C9.16084 33.353 9.95061 33.3797 10.7263 33.3797C10.9801 33.3797 11.234 33.353 11.4878 33.3263C11.5442 33.3263 11.5866 33.2461 11.5725 33.166C11.5725 33.1126 11.5584 33.0859 11.5442 33.0324C11.4737 32.8722 11.3891 32.792 11.2763 32.8187C11.2058 32.8455 11.1212 32.8722 11.0506 32.9256C10.9519 33.0057 10.8532 33.0057 10.7545 32.9256C10.6276 32.8187 10.5147 32.8455 10.3878 32.9523C10.2891 33.0324 10.1763 33.0591 10.0916 32.979C9.85189 32.7653 9.59804 32.7653 9.34419 32.6852C9.27367 32.6585 9.20315 32.5783 9.16085 32.4448C9.11854 32.3379 9.13264 32.2578 9.20316 32.2311C9.27367 32.1777 9.34419 32.1777 9.42881 32.1777C9.73907 32.1777 10.0352 32.1777 10.3455 32.1777C10.416 32.1777 10.5006 32.151 10.5711 32.151C10.5993 32.151 10.6135 32.0976 10.6417 32.0708C10.6276 32.0441 10.6135 32.0174 10.5993 31.9907C10.5006 31.9106 10.4019 31.9106 10.3032 31.9106C9.95061 31.9106 9.59804 31.964 9.23136 31.8839C9.17495 31.8839 9.14675 31.8037 9.13264 31.6969C9.13265 31.6168 9.13265 31.4832 9.10444 31.4298C9.07623 31.3764 9.00572 31.3497 8.96341 31.3497C8.70956 31.3229 8.45571 31.3229 8.20185 31.2962C8.10314 31.2962 8.00442 31.2695 7.9057 31.1894C7.79287 31.0825 7.66594 31.0558 7.53901 31.0558C7.25695 31.0558 6.9749 31.0291 6.70694 31.0291C6.63643 31.0291 6.55181 31.0291 6.48129 30.9757C6.14282 30.6819 5.77615 30.8154 5.43768 30.7086C5.36716 30.6819 5.33896 30.6284 5.36716 30.5216C5.38127 30.4682 5.38126 30.4415 5.40947 30.3881C5.49409 30.2011 5.63512 30.1744 5.74794 30.0942C5.81845 30.0675 5.83256 29.9874 5.80435 29.8806C5.76205 29.7203 5.81846 29.6134 5.87487 29.5333C5.88897 29.5066 5.91718 29.4799 5.91718 29.4265C5.93128 29.3463 5.88898 29.2929 5.83257 29.2929C5.76205 29.2662 5.67742 29.2662 5.60691 29.2395C5.57871 29.2395 5.56461 29.2128 5.5505 29.1594C5.5223 29.1059 5.5505 29.0258 5.62102 29.0258C5.94539 28.9457 6.28386 28.9991 6.60823 28.9724C6.73516 28.9724 6.86208 28.9457 6.9749 28.8121C7.04542 28.732 7.13004 28.732 7.20056 28.7854C7.32748 28.8656 7.4403 28.919 7.56723 28.919C7.63775 28.919 7.72236 28.919 7.79287 28.919C8.93522 28.8923 10.0776 28.8923 11.2199 28.9457C11.3468 28.9457 11.4738 28.919 11.6007 28.919C11.6571 28.919 11.6994 28.8656 11.7135 28.8122C11.6853 28.7854 11.6712 28.7587 11.643 28.7587C11.5725 28.732 11.4879 28.732 11.4173 28.732C10.7122 28.732 9.99294 28.732 9.28779 28.7053C9.16086 28.7053 9.03393 28.7053 8.90701 28.7053C8.83649 28.7053 8.75187 28.6786 8.68136 28.6252C8.56854 28.5183 8.44162 28.4916 8.31469 28.4649C8.00442 28.4649 7.70826 28.4382 7.39799 28.4382C7.20055 28.4382 6.98901 28.4115 6.79157 28.4115C6.72105 28.4115 6.63644 28.3848 6.56592 28.3313C6.4249 28.2245 6.28386 28.1444 6.12873 28.1444C5.93129 28.1177 5.71974 28.1177 5.5223 27.9841C5.42359 27.9307 5.32487 27.9307 5.22614 27.904C4.81716 27.8773 4.40817 27.8772 4.01328 27.8505C3.94277 27.8505 3.85816 27.8238 3.78764 27.7971C3.75943 27.7971 3.73123 27.7704 3.71713 27.7437C3.70302 27.6636 3.73123 27.6101 3.78764 27.5834C3.85816 27.5567 3.94277 27.53 3.98508 27.3965C3.99918 27.3163 3.95688 27.2095 3.91456 27.1561C3.90046 27.1294 3.87226 27.1026 3.85816 27.0759C3.78764 26.9958 3.71712 26.9958 3.6325 26.9958C3.37865 26.9958 3.13891 26.8622 2.88505 26.702C2.74403 26.6218 2.74403 26.5684 2.82864 26.3013C2.91326 26.0342 2.91326 26.0342 2.81454 25.8205C2.74403 25.6603 2.74402 25.6068 2.85685 25.5534C2.98378 25.5 3.0966 25.3932 3.20942 25.313C3.30815 25.2596 3.40687 25.2329 3.50559 25.1795C3.64662 25.0993 3.70303 24.8055 3.61842 24.6186C3.57611 24.5117 3.5197 24.4049 3.46329 24.298C3.40688 24.1912 3.33636 24.1378 3.26585 24.111C3.13892 24.0843 3.01199 24.0843 2.88507 24.0576C2.82865 24.0576 2.78634 24.0042 2.78634 23.9508C2.78634 23.9241 2.81455 23.8706 2.84275 23.8706C2.88507 23.8439 2.94148 23.8172 2.98378 23.7905C3.08251 23.7104 3.12481 23.5501 3.0684 23.3364C3.02609 23.1228 3.04021 22.9625 3.11072 22.8022C3.12482 22.7755 3.13892 22.7221 3.16713 22.6954C3.37867 22.3481 3.63253 22.1077 3.90049 21.9475C3.92869 21.9475 3.9569 21.9208 3.971 21.9208C4.15434 22.0009 4.32358 21.8139 4.49282 21.7605C4.50692 21.7605 4.53512 21.7071 4.53512 21.6537C4.53512 21.627 4.52102 21.5735 4.49282 21.5735C4.4223 21.4934 4.35178 21.4934 4.26716 21.4934C4.12614 21.4667 4.04152 21.3064 4.01331 21.066C3.97101 20.8256 3.9146 20.7455 3.80177 20.7188C3.4774 20.6921 3.13893 20.6387 2.81456 20.612C2.80046 20.612 2.75816 20.5852 2.75816 20.5585C2.75816 20.5051 2.75815 20.4517 2.78636 20.425C2.82866 20.3716 2.87098 20.3181 2.87098 20.2113C2.87098 20.1846 2.82867 20.1579 2.81456 20.1579C2.77226 20.1312 2.71585 20.1044 2.67353 20.0777C2.60302 20.0243 2.54661 19.9442 2.51841 19.8106C2.4902 19.6771 2.462 19.5435 2.40559 19.4367C2.34917 19.3565 2.27866 19.2764 2.19405 19.3031C2.12353 19.3298 2.05301 19.3833 1.96839 19.3833C1.91198 19.3833 1.86967 19.3298 1.84147 19.2497C1.81326 19.1696 1.81326 19.0627 1.84147 18.9826C1.92609 18.7956 2.03891 18.6621 2.16584 18.6354C2.29277 18.6086 2.4197 18.6086 2.54662 18.6087C2.60303 18.6087 2.64534 18.5819 2.70175 18.5552C2.82868 18.5285 2.9133 18.2614 2.87099 18.021C2.84279 17.8875 2.81457 17.7539 2.84278 17.6204C2.88509 17.4334 2.9697 17.3265 3.06843 17.2464C3.27998 17.0594 3.49153 16.8992 3.71717 16.8725C3.77359 16.8725 3.80178 16.7923 3.80178 16.6855C3.78769 16.5786 3.75948 16.5252 3.71718 16.4718C3.68897 16.4451 3.67486 16.4184 3.64666 16.4184C3.57615 16.3917 3.49152 16.365 3.42101 16.365C2.98382 16.365 2.56074 16.3382 2.12354 16.3382C2.06713 16.3382 2.02482 16.3382 1.9684 16.3115C1.81327 16.3115 1.70045 16.0978 1.65814 15.7773C1.64404 15.6705 1.67224 15.5903 1.72865 15.5636C1.77097 15.5369 1.82738 15.5102 1.86968 15.5102C2.37739 15.4568 2.8851 15.4301 3.39282 15.4568C3.57615 15.4568 3.74539 15.35 3.88642 15.163C3.90052 15.1363 3.91462 15.0828 3.92872 15.0561C3.92872 15.0294 3.91462 15.0027 3.88642 14.976C3.87232 14.9493 3.84411 14.9226 3.81591 14.9226C3.68898 14.8959 3.56205 14.8959 3.43512 14.8692C3.25178 14.8692 3.08255 14.8425 2.91331 14.7356C2.78638 14.6822 2.65946 14.6555 2.53253 14.6288C2.47612 14.6021 2.44791 14.5219 2.44791 14.4418C2.44791 14.3884 2.46202 14.3349 2.47613 14.3082C2.51843 14.2014 2.57484 14.0946 2.63126 13.9877C2.70177 13.8542 2.80049 13.774 2.89922 13.774C2.92742 13.774 2.95563 13.774 2.96973 13.774C3.19537 13.8007 3.42102 13.7473 3.63256 13.5603C3.70308 13.5069 3.7736 13.4802 3.85822 13.4802C4.05566 13.4535 4.2672 13.4535 4.46464 13.4001C4.59157 13.3734 4.70439 13.2932 4.81722 13.133C4.83133 13.1063 4.85952 13.0528 4.85952 13.0261C4.85952 12.9994 4.83133 12.946 4.80312 12.946C4.45054 12.8659 4.11207 12.6255 3.7595 12.5988C3.71719 12.5988 3.64667 12.5453 3.63257 12.4652C3.54795 12.2248 3.40693 12.0913 3.2659 11.9844C3.19538 11.931 3.13897 11.8241 3.13897 11.6639C3.12487 11.5303 3.12487 11.3701 3.11077 11.2365C3.09667 11.1297 3.01204 10.9694 2.95563 10.9694C2.72999 10.9427 2.50434 10.916 2.27869 10.8626C2.22228 10.8626 2.16587 10.7824 2.17997 10.729C2.20817 10.6489 2.25049 10.6222 2.3069 10.6222C2.40562 10.6222 2.50434 10.5955 2.60306 10.5687C2.64537 10.542 2.70178 10.5153 2.74409 10.4886C2.81461 10.4352 2.87102 10.3284 2.91333 10.1948C2.87102 10.0612 2.80051 10.0078 2.7582 9.90098C2.71589 9.82085 2.71589 9.74072 2.73 9.66058C2.75821 9.55374 2.8005 9.50032 2.85691 9.52703C2.95564 9.58045 3.04026 9.63388 3.15309 9.58045C3.2236 9.55374 3.30822 9.60717 3.37873 9.58046C3.44925 9.55375 3.51976 9.47361 3.59028 9.42019C3.63258 9.39348 3.68899 9.39348 3.7313 9.36677C3.7454 9.34006 3.75951 9.31335 3.78772 9.25993C3.75951 9.23322 3.74541 9.20651 3.71721 9.20651C3.56207 9.1798 3.40694 9.1798 3.26591 9.1798C2.85692 9.20651 2.44794 9.15308 2.05306 9.07295C1.98254 9.04624 1.91202 8.96611 1.85561 8.85926C1.81331 8.75242 1.82741 8.67229 1.88382 8.61886C1.92613 8.59215 1.98254 8.53874 2.02485 8.53874C2.17999 8.51203 2.33512 8.51202 2.47615 8.48531C2.53256 8.48531 2.57486 8.40519 2.57486 8.32505C2.57486 8.21821 2.54666 8.13808 2.50435 8.08466C2.39153 7.9511 2.26461 7.9511 2.13768 7.92439C2.03896 7.89768 1.94023 7.81754 1.86972 7.68399C1.85562 7.65728 1.82741 7.60386 1.82741 7.55044C1.82741 7.52373 1.84152 7.47031 1.85562 7.4436C1.89793 7.36347 1.99666 7.31004 1.98255 7.14978C1.96845 7.01623 1.89793 6.90939 1.85562 6.80254C1.82742 6.6957 1.84152 6.61557 1.89793 6.58886C1.94024 6.56215 1.99665 6.53544 2.03896 6.53544C2.29281 6.53544 2.54667 6.53544 2.80052 6.50873C2.85694 6.50873 2.89924 6.48202 2.95565 6.48202C3.02617 6.48202 3.11079 6.26834 3.08258 6.1882C3.05438 6.10807 3.01207 6.02794 2.96976 6.00123C2.84284 5.94781 2.71591 5.94781 2.58899 5.9211C2.53257 5.9211 2.49026 5.86767 2.44795 5.81425C2.41974 5.76083 2.50437 5.49372 2.54668 5.46701C2.58899 5.4403 2.63129 5.38688 2.6877 5.36017C2.81464 5.30675 2.94156 5.25333 3.05438 5.1732C3.18131 5.06636 3.30824 5.11978 3.42106 5.19991C3.47747 5.22662 3.51977 5.25333 3.56209 5.19991C3.70312 5.09307 3.85825 5.03965 4.01338 5.03965C4.11211 5.03965 4.21082 5.06636 4.32365 5.03965C4.39417 5.03965 4.47878 5.03965 4.54929 4.98623C4.76084 4.79926 4.98649 4.79926 5.21214 4.77255C5.66343 4.74584 6.12883 4.71913 6.58013 4.71913C6.67885 4.71913 6.79167 4.71913 6.87628 4.639C7.04552 4.50545 7.21476 4.47874 7.3981 4.47874C7.70836 4.47874 8.00453 4.45203 8.31479 4.42532C8.3853 4.42532 8.46992 4.42533 8.54044 4.3719C8.70967 4.26506 8.87891 4.21164 9.06224 4.21164C9.54175 4.18493 10.0213 4.18493 10.5149 4.15823C10.6418 4.15823 10.7687 4.13152 10.8956 4.05139C11.0226 3.97125 11.1354 3.91783 11.2623 3.91783C11.361 3.91784 11.4598 3.91784 11.5726 3.91784C11.7277 3.89113 11.8687 3.83771 11.9957 3.65073C12.1085 3.46376 12.2495 3.35691 12.4188 3.35692C12.9829 3.35692 13.5329 3.33021 14.097 3.33022C14.4073 3.33022 14.7034 3.33022 15.0137 3.33022C15.197 3.33022 15.3663 3.2768 15.5355 3.19667C15.606 3.14324 15.6907 3.14325 15.7612 3.11653C16.1419 3.03641 16.5227 3.06312 16.9035 3.08983C17.0022 3.08983 17.1009 3.16996 17.1997 3.22338C17.3689 3.35694 17.5381 3.38365 17.7215 3.2501C17.8202 3.16996 17.9189 3.11654 18.0176 3.11654C18.2433 3.11655 18.4689 3.03642 18.6946 3.06313C18.9766 3.08984 19.2587 3.03642 19.5267 3.03642C19.6536 3.03642 19.7805 3.00971 19.9074 3.03642C20.2318 3.08984 20.5703 3.00971 20.8946 3.03643C21.2049 3.06314 21.5011 3.06314 21.8113 3.06314C22.037 3.06314 22.2626 3.06314 22.5024 3.06314C22.6293 3.06314 22.7562 3.14328 22.8409 3.33025C22.8691 3.41038 22.9114 3.4638 22.9537 3.51723C22.996 3.57065 23.0524 3.59736 23.0947 3.57065C23.1229 3.57065 23.1511 3.57065 23.1652 3.54393C23.405 3.27683 23.6447 3.30354 23.8845 3.54394C23.955 3.62407 24.0255 3.59736 24.096 3.54394C24.1383 3.51723 24.1806 3.46381 24.237 3.41039C24.3781 3.30355 24.5332 3.30355 24.6742 3.41039C24.8153 3.54394 24.9563 3.65078 25.1114 3.62407C25.2102 3.62408 25.3089 3.70421 25.4076 3.75763C25.4781 3.81105 25.5627 3.81105 25.6332 3.75763C25.7743 3.62408 25.9294 3.59737 26.0845 3.59737C26.3384 3.57066 26.5922 3.62408 26.8461 3.57066C26.9307 3.54395 26.9871 3.49053 26.973 3.30356C26.973 3.19671 26.9871 3.11658 27.0435 3.08987C27.0717 3.08987 27.0859 3.06316 27.1141 3.06316C27.1705 3.06316 27.2269 3.06316 27.2551 3.11658C27.3961 3.27685 27.5371 3.30356 27.6923 3.33027C27.7628 3.33027 27.8474 3.30356 27.9179 3.25014C28.0307 3.11659 28.1436 3.03646 28.2705 3.03646C28.4538 3.03646 28.6231 2.98304 28.7923 2.8762C28.8628 2.82278 28.9474 2.82278 29.018 2.82278C29.2154 2.79607 29.4269 2.82278 29.6244 2.79607C29.7936 2.76936 29.9205 2.90291 30.0334 3.1166C30.0898 3.22344 30.1603 3.27686 30.2449 3.22344C30.2872 3.19673 30.3436 3.14331 30.3859 3.1166C30.527 3.03647 30.6821 2.98305 30.8231 2.84949C30.9219 2.76936 31.0206 2.76936 31.1193 2.76936C31.2744 2.79608 31.4296 2.79608 31.5706 2.90292C31.8386 3.1166 32.1206 3.06318 32.4027 3.03648C32.5437 2.87621 32.6988 2.92963 32.8399 3.00977C33.2488 3.03648 33.6578 3.0899 34.0527 3.03648C34.1514 3.00977 34.2502 3.00977 34.3489 2.92964C34.6027 2.74267 34.8425 2.76938 35.0963 2.92964C35.2233 3.00978 35.3361 2.98307 35.463 2.87623C35.6181 2.74267 35.7592 2.76938 35.872 3.03649C35.9002 3.11662 35.9425 3.17004 35.9848 3.22346C36.1964 3.0632 36.4361 3.14333 36.6477 2.92965C36.7605 2.82281 36.8874 2.76939 37.0143 2.76939C37.1131 2.76939 37.2118 2.76938 37.3246 2.74267C37.4233 2.74267 37.5221 2.68925 37.6208 2.60912C37.7195 2.52899 37.8182 2.50229 37.9169 2.50229C38.1144 2.50229 38.3259 2.50229 38.5234 2.50229C38.9041 2.50229 39.2849 2.50229 39.6657 2.47558C39.8631 2.47558 40.0747 2.44887 40.2721 2.5023C40.3991 2.52901 40.526 2.47558 40.6388 2.34203C40.8363 2.12835 41.0478 1.94137 41.2452 1.7544C41.3158 1.70098 41.3863 1.64756 41.4568 1.62085C41.8658 1.59414 42.2748 1.54072 42.6696 1.56743C42.7966 1.56743 42.9235 1.62086 43.0363 1.7277C43.135 1.80783 43.2338 1.86125 43.3325 1.86125C43.6427 1.86125 43.9389 1.86125 44.2492 1.88797C44.4325 1.88797 44.6017 1.86126 44.771 1.75442C44.8415 1.701 44.912 1.67429 44.9966 1.67429C45.18 1.64758 45.3492 1.62087 45.5325 1.64758C46.0967 1.67429 46.6467 1.64758 47.2108 1.62087C47.5634 1.62088 47.9159 1.64759 48.2826 1.6743C48.3531 1.6743 48.4378 1.62088 48.4801 1.51404C48.5365 1.4072 48.5788 1.30035 48.6352 1.19351C48.6916 1.08667 48.7762 1.05995 48.8467 1.08667C48.8891 1.11338 48.9455 1.11338 48.9878 1.1668C49.0442 1.22022 49.0865 1.24694 49.1288 1.19351C49.3686 1.00654 49.6224 1.05996 49.8763 1.05996C50.0032 1.05997 50.1301 1.00654 50.2429 0.899696C50.3135 0.819564 50.384 0.819565 50.4545 0.899697C50.4968 0.926415 50.5391 0.979836 50.5955 1.03326C50.6942 1.11339 50.793 1.11339 50.8917 1.08668C51.0891 1.03325 51.2725 0.846279 51.4699 0.739438C51.6673 0.605886 51.8648 0.552466 52.0622 0.552467C52.4994 0.552469 52.9225 0.552471 53.3597 0.552472C53.67 0.552474 53.9661 0.525765 54.2764 0.472345C54.3469 0.472345 54.4315 0.418925 54.502 0.365504C54.6008 0.312083 54.6995 0.338794 54.7982 0.365505C54.8546 0.392216 54.8969 0.392216 54.9533 0.365506C55.0803 0.285375 55.1931 0.258665 55.3341 0.258665C56.2226 0.231959 57.1111 0.231963 57.9996 0.205256C58.4791 0.205258 58.9586 0.20526 59.4522 0.205262C59.6073 0.205263 59.7483 0.151842 59.9035 0.0717115C60.0445 -0.03513 60.1996 -0.0084188 60.3548 0.0717134C60.3971 0.0984241 60.4535 0.125135 60.4958 0.125135C60.5945 0.125135 60.6932 0.0182938 60.792 0.0717153C60.8907 0.0984262 60.9894 0.205269 61.0881 0.205269C61.1586 0.205269 61.2433 0.20527 61.3138 0.151849C61.4407 0.0450076 61.5535 0.045008 61.6805 0.151851C61.751 0.205272 61.8215 0.231983 61.9061 0.231983C62.1882 0.231984 62.4702 0.231986 62.7382 0.231987C62.8369 0.231987 62.9356 0.205277 63.0343 0.125146C63.2318 -0.00840575 63.4292 -0.0084049 63.6267 0.151859C63.6972 0.20528 63.7677 0.231991 63.8523 0.231992C64.3882 0.205283 64.9241 0.285417 65.4459 0.285419C65.6716 0.28542 65.8972 0.285421 66.137 0.285422C66.2639 0.285423 66.3908 0.312134 66.5037 0.392266C66.6306 0.472398 66.7434 0.499109 66.8703 0.52582C67.0255 0.552531 67.1806 0.552532 67.3216 0.579243C67.4204 0.579243 67.5191 0.632665 67.6178 0.712797C67.787 0.846358 67.9704 0.873061 68.1396 0.73951C68.3088 0.632668 68.4781 0.579248 68.6614 0.686091C68.7178 0.712802 68.7601 0.712802 68.8166 0.686092C68.8871 0.659381 68.9717 0.605961 69.0422 0.605961C69.2678 0.605962 69.4935 0.605963 69.7332 0.579253C69.832 0.579254 69.9307 0.605965 70.0294 0.686097C70.1563 0.766229 70.2833 0.739527 70.3961 0.659395C70.4948 0.579257 70.5935 0.579257 70.6922 0.632679C70.8615 0.739521 71.0307 0.792951 71.2141 0.792952C71.9051 0.819665 72.582 0.846378 73.2731 0.846381C73.4282 0.846382 73.5693 0.873093 73.7244 0.979936C73.7949 1.03336 73.8654 1.03335 73.95 1.00664C73.9923 0.979929 74.0488 0.953219 74.0911 0.953219C74.5424 1.1402 74.9937 1.08678 75.4591 1.1135C75.6565 1.14021 75.8539 1.19362 76.0514 1.27376C76.2488 1.35389 76.4463 1.35389 76.6578 1.40732C76.7424 1.43403 76.7988 1.51416 76.8552 1.59429C76.8693 1.621 76.8835 1.67442 76.9117 1.70113C76.954 1.78127 76.9963 1.80798 77.0386 1.78127C77.1796 1.67442 77.3347 1.621 77.4899 1.72785C77.5322 1.75456 77.5745 1.83469 77.6027 1.91482C77.645 2.02166 77.5886 2.18193 77.4899 2.23535C77.4617 2.26206 77.4476 2.26206 77.4194 2.26206C77.3912 2.26206 77.3629 2.28877 77.3488 2.28877C77.3488 2.26206 77.3347 2.20863 77.3347 2.18192C77.3206 2.15521 77.3065 2.15521 77.2924 2.15521C77.2924 2.20863 77.3206 2.26206 77.3629 2.28877C77.4194 2.60929 77.5181 2.87641 77.5322 3.22364C77.5604 3.59759 77.5745 3.59759 77.4053 3.73115C77.2783 3.83799 77.1937 3.99825 77.1937 4.26536C77.1937 4.31878 77.1937 4.3722 77.1937 4.39891C77.1937 4.50575 77.1937 4.58588 77.1655 4.69273C77.1091 4.93312 77.1091 5.14681 77.2078 5.33378C77.2501 5.41391 77.2783 5.49405 77.2642 5.60089C77.2501 5.68102 77.1937 5.73444 77.1655 5.81457C77.1514 5.84128 77.1373 5.89471 77.1091 5.92142C77.0527 6.05497 77.0668 6.21523 77.1514 6.26865C77.2219 6.32208 77.2924 6.34879 77.3629 6.42892C77.4193 6.48234 77.4334 6.56247 77.4334 6.6426C77.4334 6.74945 77.4052 6.82958 77.3629 6.85629C77.3206 6.90971 77.2642 6.90971 77.2219 6.93642C77.1232 6.98984 77.095 7.12339 77.1514 7.23024C77.1937 7.33708 77.2501 7.44392 77.2924 7.55076C77.3629 7.71103 77.3206 7.898 77.2078 8.00485C77.1655 8.03156 77.1091 8.05827 77.0668 8.05827C77.0103 8.08498 76.968 8.1384 76.968 8.21853C76.968 8.32537 76.9962 8.40551 77.0386 8.45893C77.0809 8.51235 77.1232 8.53906 77.1655 8.59248C77.2642 8.69932 77.2642 8.72603 77.1937 8.8863C77.1091 9.04656 77.1091 9.04656 77.2078 9.18012C77.3206 9.36709 77.3488 9.47393 77.2924 9.66091C77.236 9.87459 77.1796 10.0883 77.1232 10.302C77.0809 10.4622 77.0809 10.4889 77.1514 10.6759C77.1796 10.756 77.2219 10.8095 77.2501 10.8896C77.2924 11.0231 77.3206 11.1567 77.2924 11.2903C77.2501 11.5574 77.1937 11.8245 77.1796 12.1183C77.1655 12.3587 77.1232 12.5724 77.0808 12.8128C77.0526 12.973 77.0808 13.1066 77.1373 13.2134C77.2501 13.4805 77.3347 13.7743 77.4052 14.0682C77.4193 14.1483 77.4193 14.2551 77.3629 14.3086C77.2783 14.4154 77.1796 14.4955 77.1231 14.6558C77.0949 14.7359 77.0808 14.8428 77.0808 14.9229C77.0808 15.003 77.0949 15.1099 77.1231 15.19C77.1937 15.4571 77.1372 15.6441 77.0244 15.8044C76.9539 15.9112 76.9539 16.0447 77.0244 16.1783C77.0949 16.3119 77.1654 16.4454 77.236 16.579C77.2783 16.6858 77.3347 16.8194 77.3065 16.9796C77.2078 17.5405 77.1795 18.1015 77.2077 18.6891C77.1795 18.6891 77.1654 18.6891 77.1513 18.7158C77.1372 18.7158 77.1372 18.7692 77.1372 18.7959C77.1654 18.6624 77.1936 18.6357 77.1936 18.5021ZM6.65054 29.2128C6.58002 29.1861 6.50951 29.1861 6.42489 29.1861C6.39669 29.1861 6.38259 29.2128 6.35437 29.2395C6.34027 29.2662 6.32617 29.2929 6.31206 29.3196C6.32617 29.3463 6.35437 29.3998 6.36848 29.3998C6.56592 29.4799 6.76335 29.3998 6.9467 29.3998C6.9749 29.3998 7.00311 29.3731 7.00311 29.3463C7.01721 29.2929 6.98901 29.2128 6.9326 29.2128C6.84798 29.2128 6.74926 29.2128 6.65054 29.2128ZM2.94132 60.6779C2.95543 60.6779 2.92721 60.6779 2.91311 60.6779C2.8567 60.7046 2.8285 60.758 2.84259 60.8115C2.8567 60.8382 2.88491 60.8649 2.89901 60.8916C2.99773 60.9183 3.08235 60.9183 3.18107 60.8649C3.20928 60.8649 3.22338 60.8115 3.23748 60.7848C3.20927 60.7046 3.16697 60.6512 3.12465 60.6512C3.06824 60.6779 3.01184 60.6779 2.94132 60.6779ZM42.5568 3.11665C42.6132 3.22349 42.6837 3.22349 42.7543 3.19678C42.7825 3.19678 42.8107 3.17007 42.8107 3.14336C42.8248 3.08994 42.7966 3.03652 42.7401 3.00981C42.6414 2.9831 42.5568 3.03652 42.5568 3.11665Z" fill="#00659E"/>
<path d="M3.58934 64.686C3.34958 64.6593 3.12393 64.6593 2.88417 64.6326C2.85596 64.6326 2.82776 64.606 2.82776 64.5526C2.82776 64.4992 2.85597 64.4191 2.91238 64.4191C3.0111 64.3924 3.10982 64.3657 3.20855 64.339C3.54703 64.0187 3.89962 64.0988 4.23811 64.3657C4.28042 64.3924 4.33683 64.3924 4.37914 64.4458C4.40735 64.4725 4.42144 64.4992 4.43555 64.5526C4.43555 64.5526 4.40734 64.606 4.39324 64.6327C4.35093 64.6593 4.29451 64.686 4.2522 64.686C4.02655 64.686 3.80089 64.686 3.58934 64.686Z" fill="#00659E"/>
<path d="M8.20101 39.9248C8.32795 39.9248 8.42668 40.0054 8.39847 40.0591C8.34206 40.1665 8.25743 40.1665 8.18691 40.1665C8.13049 40.1665 8.08818 40.1665 8.04586 40.1396C8.03176 40.1396 8.00355 40.0859 7.98944 40.0591C8.00355 40.0322 8.03176 39.9785 8.04586 39.9785C8.10228 39.9248 8.1587 39.9248 8.20101 39.9248Z" fill="#00659E"/>
<path d="M0.64234 57.2301C0.698686 57.2034 0.740945 57.2301 0.783204 57.3103C0.769117 57.3904 0.740942 57.4438 0.684597 57.4438C0.614165 57.4438 0.543733 57.4438 0.473302 57.4438C0.416956 57.4438 0.374692 57.3904 0.388779 57.337C0.388779 57.3103 0.416955 57.2836 0.445128 57.2568C0.473301 57.2301 0.487387 57.2301 0.51556 57.2301C0.557819 57.2034 0.600081 57.2301 0.64234 57.2301Z" fill="#00659E"/>
<path d="M38.1555 1.96714C38.1555 1.94028 38.1555 1.88656 38.1696 1.88656C38.2403 1.80598 38.3109 1.80599 38.3815 1.85971C38.3956 1.88656 38.4238 1.91342 38.4238 1.94028C38.4238 2.02086 38.325 2.07458 38.2261 2.02086C38.1979 2.04772 38.1696 1.994 38.1555 1.96714Z" fill="#00659E"/>
<path d="M3.34888 21.1743C3.34888 21.1474 3.34888 21.0937 3.34888 21.0668C3.37712 20.9593 3.41948 20.9593 3.43359 21.0937C3.43359 21.1205 3.43359 21.1743 3.43359 21.2011C3.41948 21.228 3.40536 21.2817 3.39124 21.2817C3.37712 21.2549 3.363 21.2011 3.34888 21.1743Z" fill="#00659E"/>
<path d="M6.3252 34.8494L6.28326 34.8765L6.28326 34.7954L6.3252 34.8494Z" fill="#00659E"/>
<path d="M4.39355 38.4273C4.33708 38.4273 4.30884 38.3738 4.30884 38.3203C4.32296 38.3203 4.3512 38.3203 4.3512 38.3471C4.36532 38.3738 4.36532 38.4273 4.37944 38.4541L4.39355 38.4273Z" fill="#00659E"/>
<path d="M4.37915 38.4521C4.43563 38.4521 4.46387 38.5056 4.46387 38.5591C4.44975 38.5591 4.42151 38.5591 4.42151 38.5323C4.40739 38.5056 4.40739 38.4521 4.39327 38.4253L4.37915 38.4521Z" fill="#00659E"/>
<path d="M5.45117 38.4253C5.45117 38.5588 5.42329 38.5854 5.38147 38.5854C5.38147 38.5588 5.39541 38.5054 5.39541 38.5054C5.42329 38.452 5.43723 38.452 5.45117 38.4253Z" fill="#00659E"/>
<g clip-path="url(#clip0)">
<path d="M56.5014 29.1017H55.8993V28.4989C55.8993 28.2238 55.6764 28.0008 55.4013 28.0008C55.1262 28.0008 54.9032 28.2238 54.9032 28.4989V29.1017H54.3012C54.0261 29.1017 53.8031 29.3246 53.8031 29.5997V31.2492C53.8031 31.2779 53.7798 31.3012 53.7511 31.3012H49.9006C49.6255 31.3012 49.4025 31.5242 49.4025 31.7993V32.4013H48.8005C48.5254 32.4013 48.3025 32.6242 48.3025 32.8994C48.3025 33.1745 48.5254 33.3974 48.8005 33.3974H49.4025V33.9995C49.4025 34.2746 49.6255 34.4976 49.9006 34.4976H53.751C53.7798 34.4976 53.8031 34.5209 53.8031 34.5496V43.3506C53.8031 43.3793 53.7797 43.4026 53.751 43.4026H43.8498C43.8212 43.4026 43.7979 43.3792 43.7979 43.3506V40.6003C43.7979 40.3252 43.5749 40.1022 43.2998 40.1022H42.6978V39.5002C42.6978 39.2251 42.4748 39.0022 42.1997 39.0022C41.9246 39.0022 41.7017 39.2251 41.7017 39.5002V40.1022H41.0996C40.8244 40.1022 40.6015 40.3252 40.6015 40.6003V43.3506C40.6015 43.3793 40.5781 43.4026 40.5495 43.4026H30.6484C30.6197 43.4026 30.5964 43.3793 30.5964 43.3506V34.5496C30.5964 34.5209 30.6197 34.4976 30.6484 34.4976H40.5495C40.5782 34.4976 40.6015 34.5209 40.6015 34.5496V36.1997C40.6015 36.4749 40.8244 36.6978 41.0996 36.6978H41.7017V37.2999C41.7017 37.575 41.9246 37.798 42.1997 37.798C42.4748 37.798 42.6978 37.575 42.6978 37.2999V36.6978H43.2998C43.5749 36.6978 43.7979 36.4749 43.7979 36.1997V34.5496C43.7979 34.5209 43.8212 34.4976 43.8498 34.4976H45.5C45.7752 34.4976 45.9981 34.2746 45.9981 33.9995V33.3975H46.6002C46.8753 33.3975 47.0982 33.1745 47.0982 32.8994C47.0982 32.6243 46.8753 32.4014 46.6002 32.4014H45.9981V31.7993C45.9981 31.5242 45.7752 31.3013 45.5 31.3013H43.8498C43.8212 31.3013 43.7979 31.2779 43.7979 31.2492V29.599C43.7979 29.3239 43.5749 29.101 43.2998 29.101H42.6978V28.4989C42.6978 28.2238 42.4748 28.0009 42.1997 28.0009C41.9246 28.0009 41.7017 28.2238 41.7017 28.4989V29.101H41.0996C40.8244 29.101 40.6015 29.3239 40.6015 29.599V31.2492C40.6015 31.278 40.5781 31.3013 40.5495 31.3013H35.6365C35.3614 31.3013 35.1385 31.5242 35.1385 31.7993C35.1385 32.0745 35.3614 32.2974 35.6365 32.2974H40.5495C41.1274 32.2974 41.5975 31.8272 41.5975 31.2492V30.0971H42.8018V31.2492C42.8018 31.8272 43.2719 32.2974 43.8498 32.2974H45.002V33.5015H43.8498C43.2719 33.5015 42.8018 33.9716 42.8018 34.5496V35.7017H41.5975V34.5496C41.5975 33.9716 41.1274 33.5015 40.5495 33.5015H30.6483C30.0704 33.5015 29.6002 33.9716 29.6002 34.5496V43.3506C29.6002 43.9285 30.0704 44.3987 30.6483 44.3987H40.5495C41.1274 44.3987 41.5975 43.9285 41.5975 43.3506V41.0983H42.8018V43.3506C42.8018 43.9286 43.2719 44.3987 43.8498 44.3987H53.751C54.329 44.3987 54.7992 43.9286 54.7992 43.3506V34.5496C54.7992 33.9716 54.329 33.5015 53.751 33.5015H50.3986V32.2973H53.751C54.329 32.2973 54.7992 31.8271 54.7992 31.2492V30.0977H56.0033V45.5509C56.0033 45.5796 55.9799 45.6029 55.9513 45.6029H28.448C28.4194 45.6029 28.3961 45.5795 28.3961 45.5509V18.0476C28.3961 18.0189 28.4194 17.9956 28.448 17.9956H50.0046C50.2798 17.9956 50.5027 17.7727 50.5027 17.4976C50.5027 17.2224 50.2798 16.9995 50.0046 16.9995H28.448C28.3337 16.9995 28.2239 17.0186 28.1207 17.0526C28.0537 17.0189 27.9782 16.9995 27.898 16.9995H26.7979C26.5227 16.9995 26.2998 17.2224 26.2998 17.4976C26.2998 17.7727 26.5227 17.9956 26.7979 17.9956H27.4025C27.4017 18.0129 27.3999 18.0301 27.3999 18.0476V45.5509C27.3999 45.5684 27.4017 45.5855 27.4025 45.6029H26.7979C26.5227 45.6029 26.2998 45.8258 26.2998 46.1009C26.2998 46.376 26.5227 46.599 26.7979 46.599H27.3999V47.201C27.3999 47.4761 27.6228 47.6991 27.8979 47.6991C28.1731 47.6991 28.396 47.4761 28.396 47.201V46.5963C28.4133 46.5972 28.4304 46.599 28.448 46.599H55.9513C55.9688 46.599 55.9859 46.5972 56.0033 46.5963V47.201C56.0033 47.4761 56.2262 47.6991 56.5013 47.6991C56.7764 47.6991 56.9993 47.4761 56.9993 47.201V46.1009C56.9993 46.0207 56.98 45.9453 56.9463 45.8781C56.9803 45.775 56.9993 45.6652 56.9993 45.5508V29.5997C56.9994 29.3246 56.7765 29.1017 56.5014 29.1017Z" fill="white"/>
<path d="M55.9517 16.9995H51.9972C51.7221 16.9995 51.4992 17.2224 51.4992 17.4976C51.4992 17.7727 51.7221 17.9956 51.9972 17.9956H55.9517C55.9804 17.9956 56.0037 18.019 56.0037 18.0476V24.7014H55.4229C55.4158 24.7012 55.4088 24.7004 55.4017 24.7004C55.3945 24.7004 55.3875 24.7012 55.3804 24.7014L54.7996 24.7015V20.2479C54.7996 19.67 54.3293 19.1997 53.7514 19.1997H43.8502C43.2723 19.1997 42.8021 19.67 42.8021 20.2479V24.7004H41.5979V20.2479C41.5979 19.67 41.1278 19.1997 40.5498 19.1997H30.6487C30.0707 19.1997 29.6006 19.67 29.6006 20.2479V31.2492C29.6006 31.8271 30.0707 32.2973 30.6487 32.2973H33.6447C33.9198 32.2973 34.1428 32.0744 34.1428 31.7993C34.1428 31.5242 33.9198 31.3012 33.6447 31.3012H30.6487C30.6201 31.3012 30.5967 31.2779 30.5967 31.2492V20.2479C30.5967 20.2192 30.6201 20.1958 30.6487 20.1958H40.5499C40.5786 20.1958 40.6019 20.2192 40.6019 20.2479V25.1984C40.6019 25.4735 40.8248 25.6965 41.1 25.6965H41.7021V26.2986C41.7021 26.5737 41.925 26.7966 42.2001 26.7966C42.4752 26.7966 42.6982 26.5737 42.6982 26.2986V25.6965H43.3002C43.5753 25.6965 43.7982 25.4735 43.7982 25.1984V20.2479C43.7982 20.2192 43.8216 20.1958 43.8502 20.1958H53.7514C53.7802 20.1958 53.8035 20.2192 53.8035 20.2479V25.1996C53.8035 25.3316 53.8559 25.4583 53.9494 25.5518C54.0427 25.6451 54.1694 25.6976 54.3015 25.6976H54.9036V26.2986C54.9036 26.5737 55.1265 26.7966 55.4016 26.7966C55.6767 26.7966 55.8997 26.5737 55.8997 26.2986V25.6976H56.5017C56.7768 25.6976 56.9997 25.4746 56.9997 25.1996V18.0476C56.9998 17.4697 56.5296 16.9995 55.9517 16.9995V16.9995Z" fill="white"/>
<path d="M54.3015 47.8027C54.0263 47.8027 53.8034 48.0257 53.8034 48.3008V48.9028H30.5967V48.3008C30.5967 48.0257 30.3738 47.8028 30.0986 47.8028C29.8235 47.8028 29.6006 48.0257 29.6006 48.3008V50.5011C29.6006 50.7762 29.8235 50.9991 30.0986 50.9991C30.3738 50.9991 30.5967 50.7762 30.5967 50.5011V49.899H53.8035V50.5011C53.8035 50.7762 54.0264 50.9991 54.3015 50.9991C54.5766 50.9991 54.7996 50.7762 54.7996 50.5011V48.3008C54.7995 48.0257 54.5766 47.8027 54.3015 47.8027Z" fill="white"/>
<path d="M23.498 43.4026C23.2229 43.4026 23 43.6255 23 43.9006C23 44.1758 23.2229 44.3987 23.498 44.3987H25.6984C25.9735 44.3987 26.1964 44.1758 26.1964 43.9006C26.1964 43.6255 25.9735 43.4026 25.6984 43.4026H25.0963V20.1958H25.6983C25.9734 20.1958 26.1963 19.9729 26.1963 19.6978C26.1963 19.4226 25.9734 19.1997 25.6983 19.1997H23.498C23.2229 19.1997 23 19.4226 23 19.6978C23 19.9729 23.2229 20.1958 23.498 20.1958H24.1002V43.4026H23.498Z" fill="white"/>
<path d="M23.498 46.5991H24.5982C24.8733 46.5991 25.0962 46.3762 25.0962 46.1011C25.0962 45.826 24.8733 45.603 24.5982 45.603H23.498C23.2229 45.603 23 45.826 23 46.1011C23 46.3761 23.223 46.5991 23.498 46.5991Z" fill="white"/>
<path d="M23.498 17.9956H24.5982C24.8733 17.9956 25.0962 17.7727 25.0962 17.4976C25.0962 17.2224 24.8733 16.9995 24.5983 16.9995H23.498C23.223 16.9995 23 17.2225 23 17.4976C23 17.7726 23.223 17.9956 23.498 17.9956Z" fill="white"/>
<path d="M27.8994 48.9033C27.6243 48.9033 27.4014 49.1262 27.4014 49.4014V50.5014C27.4014 50.7765 27.6243 50.9995 27.8994 50.9995C28.1745 50.9995 28.3975 50.7765 28.3975 50.5014V49.4014C28.3975 49.1262 28.1745 48.9033 27.8994 48.9033Z" fill="white"/>
<path d="M56.502 48.9033C56.2268 48.9033 56.0039 49.1262 56.0039 49.4014V50.5014C56.0039 50.7765 56.2268 50.9995 56.502 50.9995C56.7771 50.9995 57 50.7765 57 50.5014V49.4014C57 49.1262 56.7771 48.9033 56.502 48.9033Z" fill="white"/>
<path d="M26.0506 47.9486C25.856 47.7541 25.5407 47.7541 25.3462 47.9486L24.5982 48.6965L23.8503 47.9486C23.6557 47.7541 23.3404 47.7541 23.1459 47.9486C22.9514 48.1431 22.9514 48.4584 23.1459 48.6529L23.8939 49.4009L23.1459 50.1488C22.9514 50.3434 22.9514 50.6587 23.1459 50.8532C23.2431 50.9505 23.3706 50.9991 23.498 50.9991C23.6255 50.9991 23.753 50.9505 23.8502 50.8533L24.5982 50.1053L25.3461 50.8533C25.4434 50.9505 25.5709 50.9991 25.6983 50.9991C25.8258 50.9991 25.9533 50.9505 26.0506 50.8533C26.2451 50.6587 26.2451 50.3434 26.0506 50.1489L25.3026 49.4009L26.0506 48.653C26.245 48.4584 26.245 48.1431 26.0506 47.9486Z" fill="white"/>
</g>
<defs>
<clipPath id="clip0">
<rect width="34" height="34" fill="white" transform="translate(23 16.9995)"/>
</clipPath>
</defs>
</svg>
