<svg width="95" height="75" viewBox="0 0 95 75" fill="none" xmlns="http://www.w3.org/2000/svg">
<path d="M82.8316 8.83012C82.6163 9.13127 82.3831 9.30336 82.1678 9.43243C82.0422 9.51847 81.9345 9.47545 81.8269 9.38941C81.6833 9.26034 81.5398 9.30336 81.3962 9.47545C81.2886 9.64754 81.1809 9.73359 81.0553 9.73359C80.7862 9.73359 80.5171 9.77661 80.2479 9.77661C80.1223 9.77661 80.0147 9.69056 79.907 9.5615C79.7994 9.38941 79.6738 9.43243 79.5661 9.5615C79.4405 9.73359 79.3329 9.64754 79.2432 9.43243C79.2252 9.38941 79.2073 9.30336 79.1893 9.26034C79.0817 9.00221 78.9202 9.00221 78.7946 9.34639C78.7408 9.47545 78.7408 9.60452 78.7767 9.73359C78.8125 9.86265 78.8484 9.99172 78.9023 10.0347C79.0996 10.2499 79.3149 10.2929 79.4944 10.551C79.5482 10.594 79.6199 10.594 79.6738 10.6371C80.1941 10.6371 80.6965 10.6371 81.2168 10.6371C81.3962 10.6371 81.5757 10.6801 81.7551 10.8522C81.9166 10.9812 82.096 11.1103 82.2754 11.2394C82.3651 11.3254 82.4548 11.2824 82.5446 11.2824C82.6343 11.2824 82.724 11.3254 82.8137 11.3254C82.9034 11.2824 82.9931 11.1963 83.0649 11.1533C83.1905 11.1103 83.3161 11.1963 83.4058 11.3684C83.5314 11.5835 83.639 11.8417 83.7467 12.0568C83.8005 12.1859 83.8543 12.1428 83.8902 12.0138C83.962 11.7987 84.0338 11.5405 84.1594 11.5405C84.3388 11.4975 84.5182 11.4975 84.6797 11.7987C84.7335 11.8847 84.7694 11.9707 84.8232 12.0568C84.895 12.1859 84.9668 12.2719 85.0744 12.3149C85.2 12.358 85.3077 12.358 85.4333 12.358C85.5589 12.358 85.6665 12.444 85.7742 12.53C86.456 13.0893 86.456 13.0893 87.1019 13.1324C87.4249 13.1754 87.7658 13.0893 88.0887 13.2184C88.1067 13.2184 88.1605 13.2614 88.1605 13.3044C88.1605 13.4765 88.1067 13.5626 88.0708 13.6486C88.017 13.7777 88.0349 13.9068 88.1067 13.9498C88.2502 14.0358 88.4117 14.0788 88.5553 14.0358C88.6988 14.0358 88.7526 13.9068 88.7526 13.5196C88.7526 13.2614 88.8064 13.1754 88.932 13.2184C89.0218 13.2184 89.1115 13.3044 89.1653 13.4765C89.1832 13.5196 89.1832 13.6486 89.1832 13.6916C89.1294 14.0358 89.0218 14.294 88.9141 14.5521C88.7885 14.8102 88.645 14.8963 88.5014 14.8533C88.4117 14.8102 88.3399 14.6812 88.2502 14.7672C88.2323 14.8102 88.2143 14.8532 88.1964 14.9393C88.1964 15.0253 88.1964 15.1114 88.2143 15.1544C88.2682 15.2405 88.322 15.2835 88.3758 15.3265C88.6988 15.3695 89.0397 15.3695 89.3627 15.6707C89.4344 15.7567 89.5421 15.7137 89.6318 15.7567C90.0265 15.7997 90.4213 15.8428 90.798 15.8858C90.8698 15.8858 90.9057 16.0149 90.8878 16.1009C90.8698 16.1439 90.8339 16.1869 90.816 16.1869C90.6366 16.23 90.4571 16.23 90.2777 16.273C90.1162 16.273 90.0804 16.4021 90.0624 16.7893C90.0624 16.9613 90.0445 17.0474 89.9548 17.0904C89.7753 17.1334 89.5959 17.1334 89.4165 17.1334C89.2371 17.1765 89.2191 17.2625 89.1832 17.7788C89.1832 17.9078 89.1473 18.0369 89.1294 18.209C89.1115 18.3811 89.2012 18.6392 89.2729 18.6822C89.3088 18.6822 89.3268 18.7253 89.3627 18.7253C89.4524 18.6822 89.5421 18.6392 89.6138 18.7683C89.8112 19.1985 90.0265 19.3276 90.2777 19.2846C90.4033 19.2415 90.511 19.2846 90.6366 19.2846C90.6724 19.2846 90.7083 19.2415 90.7083 19.1985C90.7263 19.0694 90.6904 18.9834 90.6186 18.9404C90.5827 18.9404 90.5648 18.8974 90.5289 18.8974C90.4571 18.8543 90.4213 18.8113 90.4213 18.6392C90.4213 18.5962 90.4751 18.5532 90.493 18.5532C90.7622 18.5102 91.0313 18.4671 91.3004 18.5102C91.3901 18.5102 91.4799 18.6392 91.5337 18.8113C91.6234 19.1555 91.749 19.2846 91.9105 19.2846C92.054 19.2846 92.2155 19.3276 92.359 19.3276C92.5026 19.3276 92.664 19.3706 92.8076 19.4136C92.8435 19.4136 92.8614 19.4997 92.8794 19.5427C92.8614 19.5857 92.8255 19.6287 92.8076 19.6718C92.5743 19.8008 92.3231 19.7578 92.0899 19.8008C91.9284 19.8438 91.8028 19.9299 91.6593 20.102C91.4619 20.3601 91.4619 20.3601 91.6055 20.7903C91.6234 20.8334 91.6234 20.9194 91.6234 20.9624C91.6055 21.0054 91.5696 21.0485 91.5516 21.0485C91.3363 21.0915 91.139 21.2206 90.9236 21.3066C90.8698 21.3496 90.798 21.2636 90.7442 21.2206C90.5827 21.1345 90.4392 21.3496 90.3674 21.6508C90.2777 22.038 90.188 22.3822 90.0624 22.7263C89.9906 22.9415 90.0265 23.0705 90.1342 23.1996C90.188 23.2856 90.2418 23.3287 90.2957 23.4147C90.4033 23.5868 90.511 23.6728 90.6366 23.6728C91.2107 23.7159 91.7849 23.6298 92.359 23.5868C92.5923 23.5438 92.8435 23.5868 93.0767 23.5868C93.31 23.5868 93.4894 23.7159 93.615 24.1891C93.6509 24.3182 93.7047 24.3612 93.7406 24.4903C93.8303 24.7054 93.8303 24.8344 93.7406 24.9635C93.5791 25.1356 93.4176 25.3077 93.2203 25.3507C92.7358 25.3937 92.2514 25.4368 91.7669 25.5228C91.731 25.5228 91.6952 25.5658 91.6952 25.6088C91.6772 25.6949 91.7131 25.7809 91.7849 25.824C91.9105 25.867 92.0181 25.824 92.1437 25.953C92.2155 26.0391 92.2334 26.1251 92.2334 26.2972C92.2334 26.4263 92.1975 26.5553 92.1258 26.5984C91.9822 26.6844 91.8208 26.6844 91.6772 26.7274C91.444 26.8135 91.2825 27.0286 91.1928 27.5449C91.139 27.846 91.0492 27.9751 90.9236 28.0611C90.8878 28.0611 90.8698 28.1041 90.8339 28.1472C90.816 28.1902 90.7622 28.2332 90.7622 28.2762C90.7622 28.4053 90.798 28.5344 90.8519 28.6204C90.9057 28.7065 90.9595 28.7925 91.0134 28.7925C91.1031 28.8355 91.1928 28.8355 91.2825 28.8355C91.8028 28.7925 92.3052 28.9216 92.8255 28.9646C92.8794 28.9646 92.9332 29.0506 92.987 29.1367C93.0408 29.2227 93.0767 29.3518 93.0767 29.4809C93.0767 29.6099 93.0408 29.696 92.9691 29.739C92.8255 29.782 92.664 29.782 92.5205 29.825C92.3052 29.8681 92.1078 29.9971 91.9464 30.3843C91.8925 30.5134 91.8387 30.5134 91.7849 30.4704C91.6413 30.4273 91.6413 30.4704 91.5696 30.6855C91.5516 30.7285 91.5337 30.8146 91.5337 30.8576C91.4081 31.3308 91.2287 31.5029 91.0134 31.632C90.8698 31.718 90.8339 32.2343 90.9416 32.5354C90.9595 32.5785 90.9954 32.6215 91.0134 32.6645C91.139 32.7506 91.2466 32.7075 91.3722 32.7075C91.4619 32.7075 91.5516 32.7075 91.6413 32.7506C91.8567 32.8366 92.0361 33.1378 92.2514 33.1378C92.4308 33.1378 92.6102 33.1808 92.7896 33.2238C92.8614 33.2238 92.8973 33.3529 92.8973 33.4389C92.8973 33.4819 92.8614 33.568 92.8435 33.568C92.7896 33.611 92.7358 33.654 92.664 33.6971C92.5564 33.7831 92.4667 33.9982 92.377 34.2133C92.3052 34.4284 92.3411 34.6435 92.4129 34.7726C92.5385 34.9877 92.6999 34.9447 92.8435 35.0307C92.8614 35.0307 92.8973 35.1168 92.9152 35.1598C92.8973 35.2028 92.8794 35.2889 92.8614 35.3319C92.6641 35.6761 92.4308 35.8482 92.1796 35.8482C92.054 35.8482 91.9464 35.8912 91.8208 35.8912C91.6413 35.8912 91.4619 35.9772 91.3004 36.1493C91.2107 36.2354 91.121 36.2354 91.0313 36.3214C90.9595 36.3644 90.9236 36.4505 90.9416 36.5796C90.9416 36.7086 90.9775 36.8377 91.0492 36.9237C91.1389 37.0098 91.2287 37.0528 91.3184 36.9668C91.5516 36.7516 91.7849 36.6656 92.0181 36.6656C92.4487 36.6656 92.8614 36.6656 93.292 36.6656C93.3279 36.6656 93.3638 36.6656 93.3817 36.7086C93.4356 36.7947 93.4715 36.8807 93.5253 36.9668C93.5432 37.0098 93.5432 37.0958 93.5253 37.1819C93.5073 37.3109 93.4715 37.44 93.4176 37.483C93.2382 37.6551 93.0588 37.6121 92.8794 37.6551C92.7538 37.6981 92.7717 37.9563 92.7717 38.1284C92.7717 38.3865 92.6461 38.6876 92.5384 38.7307C92.4846 38.7737 92.4128 38.8167 92.359 38.8167C92.1258 38.8597 91.8746 38.8597 91.6593 39.1609C91.6055 39.2039 91.5516 39.2469 91.4799 39.2469C91.3901 39.29 91.3004 39.29 91.2107 39.29C91.0313 39.333 90.8519 39.333 90.6725 39.419C90.493 39.5051 90.3315 39.7632 90.1521 39.8062C90.1342 39.8062 90.0983 39.8923 90.0804 39.9353C90.0983 39.9783 90.1162 40.0213 90.1342 40.0213C90.493 40.0644 90.8519 40.0644 91.2107 40.0644C91.3901 40.0644 91.5696 40.1074 91.731 40.3225C91.8028 40.4085 91.9105 40.4516 91.9822 40.5376C92.054 40.5806 92.1617 40.5806 92.1617 40.8388C92.1617 40.9678 92.0899 41.0539 92.0361 41.1399C91.9822 41.226 91.9643 41.355 91.9643 41.5271C91.9822 41.6562 92.0181 41.7853 92.0899 41.7853C92.1437 41.8283 92.2155 41.8283 92.2693 41.8283C92.5743 41.8713 92.8793 41.8713 93.1664 41.8713C93.292 41.8713 93.3997 41.9143 93.5253 41.9143C93.5612 41.9143 93.5971 42.0004 93.5971 42.0004C93.5971 42.1294 93.5432 42.2155 93.4894 42.2155C93.31 42.2585 93.1305 42.3015 92.9691 42.5166C92.8435 42.6887 92.682 42.6887 92.5384 42.7318C92.4667 42.7748 92.4308 42.8608 92.4308 42.9469C92.4308 42.9899 92.4846 43.0329 92.5026 43.0759C92.682 43.119 92.8614 43.119 93.0408 43.162C93.1306 43.205 93.2203 43.205 93.31 43.291C93.5073 43.5062 93.7226 43.5492 93.92 43.5492C94.0456 43.5492 94.1533 43.5922 94.2789 43.6352C94.3147 43.6352 94.3327 43.7213 94.3506 43.7643C94.3327 43.8073 94.2968 43.8503 94.2789 43.8934C94.1891 43.9364 94.0994 43.9794 94.0097 43.9794C93.4356 43.9794 92.8614 43.9794 92.2873 44.0224C91.9284 44.0224 91.5696 44.0224 91.2107 44.1515C91.1928 44.1515 91.1569 44.2375 91.1569 44.2375C91.1569 44.3236 91.1748 44.4096 91.2107 44.4096C91.3722 44.6247 91.5337 44.7968 91.7131 44.7968C92.2514 44.8398 92.7896 44.8829 93.3459 44.9259C93.4356 44.9259 93.5253 45.0119 93.5971 45.184C93.615 45.2271 93.6329 45.3131 93.6509 45.3561C93.6868 45.4852 93.6509 45.6143 93.5612 45.6143C93.3279 45.6573 93.0767 45.6573 92.8435 45.7003C92.6282 45.7433 92.4308 45.6573 92.2334 45.4422C92.2155 45.3991 92.1796 45.3991 92.1437 45.3991C92.0181 45.3561 91.9105 45.4422 91.8208 45.6143C91.749 46.0015 91.6234 46.1305 91.4619 46.1735C91.3722 46.2166 91.2825 46.3026 91.2107 46.3887C91.0851 46.5177 90.9775 46.4747 90.8698 46.3456C90.816 46.2596 90.7622 46.2596 90.6904 46.3026C90.6007 46.3456 90.5289 46.4317 90.4392 46.5177C90.2598 46.6468 90.0804 46.6898 89.9009 46.5607C89.6677 46.4317 89.6677 46.4317 89.4703 46.6468C89.4524 46.6898 89.4165 46.7328 89.3985 46.7759C89.3627 46.9049 89.3806 46.991 89.4703 46.991C89.7036 47.034 89.9548 47.034 90.188 47.077C90.2418 47.077 90.2957 47.1631 90.3674 47.1631C90.4571 47.2061 90.493 47.5072 90.4392 47.6793C90.3674 48.0235 90.2418 48.2816 90.0983 48.2816C89.6856 48.3247 89.255 48.3677 88.8423 48.3677C88.7526 48.3677 88.6629 48.3247 88.5732 48.1956C88.3758 47.8944 88.1785 47.9375 87.9632 47.9375C87.9093 47.9375 87.8376 47.9805 87.7837 48.0235C87.7658 48.0235 87.712 48.0665 87.712 48.1095C87.712 48.1526 87.7299 48.2386 87.7299 48.3247C87.7837 48.4967 87.8555 48.6258 87.9452 48.6688C88.4835 48.7549 89.0218 48.6688 89.578 48.7979C89.6677 48.7979 89.6856 48.927 89.7036 49.2712C89.7036 49.5293 89.7574 49.6153 89.883 49.6153C90.0086 49.6153 90.1162 49.5293 90.1701 49.1851C90.188 49.1421 90.2059 49.056 90.2418 49.056C90.2957 49.056 90.3315 49.1421 90.3315 49.3142C90.3315 49.4002 90.3495 49.4432 90.3495 49.5293C90.3674 49.7874 90.4571 49.9165 90.5289 49.9595C91.0313 50.0886 91.5516 50.1316 92.072 50.0886C92.1617 50.0886 92.2514 50.0886 92.3411 50.1746C92.359 50.2176 92.377 50.2607 92.4129 50.3037C92.3949 50.3467 92.377 50.4328 92.3411 50.4328C92.1078 50.6048 91.8566 50.3897 91.6234 50.5188C91.5516 50.5618 91.5337 50.6479 91.5157 50.82C91.5157 51.2932 91.4978 51.2932 91.3184 51.2072C91.1928 51.1211 91.1928 51.1211 90.9775 51.2932C90.9236 51.3362 90.8519 51.3793 90.798 51.3793C90.5289 51.3793 90.2598 51.3792 89.9906 51.3362C89.9548 51.3362 89.9368 51.2932 89.9009 51.2932C89.7933 51.1641 89.6677 51.1641 89.56 51.2932C89.4524 51.4223 89.3268 51.3792 89.2012 51.3362C89.1473 51.2932 89.0935 51.2502 89.0218 51.2072C88.8782 51.0781 88.7347 51.0781 88.5911 51.2072C88.5553 51.2502 88.5373 51.2502 88.5014 51.2932C88.3579 51.4653 88.2143 51.4653 88.0708 51.2932C87.8017 51.0351 87.5325 51.0781 87.2634 51.1211C87.1737 51.1211 87.1019 51.2932 87.0481 51.4653C87.0302 51.5083 87.0122 51.5944 87.0302 51.6804C87.0302 51.7234 87.066 51.7665 87.084 51.8095C87.2813 51.9385 87.4967 51.8955 87.712 51.9385C88.1067 51.9816 88.5014 51.9816 88.8782 52.0246C88.8962 52.0246 88.95 52.0676 88.95 52.1537C88.9679 52.2397 88.9141 52.3257 88.8423 52.3688C88.7526 52.4118 88.6629 52.4118 88.5732 52.4118C88.2682 52.4548 87.9632 52.4548 87.6761 52.4548C87.6043 52.4548 87.5684 52.5839 87.6043 52.6699C87.6222 52.7129 87.6581 52.756 87.6761 52.756C87.8017 52.799 87.9093 52.799 88.0349 52.799C88.3041 52.799 88.5732 52.756 88.8244 53.1001C88.8782 53.1432 88.95 53.1432 89.0038 53.1001C89.1294 53.0141 89.2371 53.0141 89.3627 53.1001C89.5421 53.2722 89.7215 53.2292 89.9009 53.2292C90.0804 53.2722 90.2598 53.2292 90.4392 53.2722C90.5289 53.2722 90.6007 53.4013 90.6904 53.5304C90.7801 54.0036 90.9775 54.0466 91.1569 54.0466C91.3363 54.0897 91.5157 54.0897 91.6952 54.0897C91.9464 54.0466 92.1617 54.2617 92.377 54.5629C92.4846 54.692 92.5205 55.0792 92.4487 55.2943C92.3411 55.5954 92.2334 55.7675 92.072 55.7675C92.0361 55.7675 92.0181 55.7675 91.9822 55.7675L92.0002 55.8106C91.9643 55.6815 91.9284 55.5524 91.8746 55.5524C91.6055 55.4234 91.3363 55.4234 91.0672 55.5524C90.9954 55.5954 90.9595 55.7245 90.9775 55.8536C90.9954 55.9826 91.0313 56.1117 91.0851 56.1117C91.139 56.1117 91.2107 56.1117 91.2645 56.0257C91.3722 55.8966 91.444 55.9826 91.4978 56.1547C91.5516 56.3268 91.6055 56.4989 91.6593 56.671C91.7131 56.8431 91.7849 56.9722 91.8746 57.0152C91.9643 57.0152 92.054 57.0152 92.1437 57.0582C92.1975 57.0582 92.2693 57.1012 92.3232 57.1012C92.3411 57.1012 92.377 57.1873 92.3949 57.2303C92.4128 57.3163 92.3949 57.4454 92.3232 57.4884C91.6593 57.5745 90.9954 57.5745 90.3315 57.5745C89.1653 57.5745 87.9811 57.4884 86.8148 57.6175C86.7431 57.6175 86.7072 57.7466 86.7251 57.8326C86.7431 57.8756 86.779 57.9187 86.7969 57.9617C86.8328 58.0047 86.8507 58.0047 86.8866 58.0047C87.7299 58.0047 88.5732 58.0477 89.4165 58.0477C89.578 58.0477 89.7215 58.0907 89.865 58.2628C89.9727 58.3919 90.0983 58.3919 90.2239 58.3919C90.6725 58.3919 91.121 58.4349 91.5875 58.4349C91.9105 58.4349 92.2514 58.3489 92.5743 58.521C92.5923 58.521 92.6282 58.607 92.6461 58.65C92.6282 58.6931 92.5923 58.7791 92.5743 58.7791C92.2693 58.9082 91.9822 58.9082 91.6772 58.8651C91.3722 58.8651 91.0672 58.8221 90.7801 58.9082C90.6904 58.9512 90.6545 59.1233 90.7263 59.3814C90.7801 59.5535 90.8339 59.7256 90.8698 59.9407C90.8878 60.0698 90.8698 60.2419 90.8698 60.3709C90.8698 60.4139 90.9057 60.457 90.9236 60.5C91.0672 60.6291 91.2287 60.6291 91.3722 60.6291C91.8028 60.586 92.2155 60.6291 92.6461 60.6721C92.682 60.6721 92.6999 60.6721 92.7358 60.6721C92.8614 60.6721 92.8435 60.8442 92.7179 61.0163C92.5384 61.2744 92.3411 61.4465 92.1258 61.4465C91.5516 61.4465 90.9775 61.4465 90.4033 61.4465C89.7753 61.4465 89.1294 61.4465 88.5014 61.4465C88.4117 61.4465 88.322 61.4465 88.2323 61.4465C87.694 61.5756 87.1557 61.4465 86.6175 61.5756C86.5816 61.5756 86.5637 61.6616 86.5457 61.7046C86.5637 61.7476 86.5816 61.7907 86.6175 61.8337C86.7072 61.8767 86.7969 61.9197 86.8866 61.9197C87.1557 61.9197 87.4249 61.8767 87.694 61.8337C87.7837 61.8337 87.8734 61.8337 87.9632 61.9197C88.1605 62.1348 88.3579 62.2209 88.5732 62.2639C89.5421 62.3069 90.511 62.3069 91.4619 62.35C91.6055 62.35 91.7669 62.393 91.9105 62.522C92.0181 62.6081 92.1437 62.6511 92.2693 62.6511C92.4846 62.6511 92.6999 62.6941 92.8973 62.6511C93.2023 62.6081 93.4894 62.8232 93.7585 63.1674C93.7765 63.2104 93.8124 63.2534 93.8303 63.2965C93.9559 63.5116 94.1174 63.5546 94.2609 63.5546C94.4762 63.5546 94.6915 63.5546 94.8889 63.5976C94.9607 63.5976 95.0145 63.7267 94.9966 63.8127C94.9786 63.9418 94.9068 63.9848 94.8351 63.9848C94.225 63.9848 93.6329 64.0709 93.0229 63.9848C92.8076 63.9418 92.5923 63.9848 92.3949 63.9848C92.0719 63.9848 91.731 63.9848 91.4081 63.9848C91.1748 63.9848 90.9236 64.0278 90.6904 64.0709C90.6007 64.0709 90.511 64.1569 90.4392 64.2429C90.2957 64.372 90.1521 64.5011 90.0086 64.5011C89.7394 64.5441 89.4703 64.5441 89.2012 64.5871C89.1653 64.5871 89.1294 64.6301 89.1294 64.6732C89.1115 64.7592 89.1653 64.8453 89.2371 64.8453C89.4524 64.8883 89.6497 64.8883 89.865 64.9313C89.883 64.9313 89.9189 64.9743 89.9368 65.0604C89.9727 65.1464 89.9368 65.2755 89.865 65.2755C89.2371 65.4476 88.5911 65.4045 87.9632 65.3185C87.8734 65.3185 87.7837 65.2325 87.694 65.1894C87.6402 65.1464 87.5864 65.1464 87.5146 65.1894C87.3172 65.3615 87.1019 65.4045 86.8866 65.4045C86.761 65.4045 86.6354 65.4045 86.5278 65.5336C86.3304 65.7487 86.133 65.7917 85.9177 65.9208C85.8639 65.9638 85.8101 66.0069 85.7562 66.0499C85.6127 66.222 85.4692 66.222 85.3256 66.0499C85.2718 65.9638 85.2 65.9638 85.1462 66.0069C84.9129 66.222 84.6797 66.265 84.4464 66.351C84.4285 66.351 84.4106 66.4371 84.3747 66.4801C84.3926 66.5231 84.4106 66.5661 84.4464 66.6092C84.6618 66.7382 84.8591 66.7382 85.0744 66.6952C85.523 66.6952 85.9715 66.7382 86.438 66.6522C86.6175 66.6092 86.7969 66.6522 86.9763 66.7813C87.0122 66.7813 87.0302 66.8673 87.0481 66.8673C87.0302 66.9103 87.0122 66.9534 86.9763 66.9964C86.7431 67.1254 86.4919 67.1254 86.2586 67.1254C85.828 67.1254 85.4153 67.1254 84.9847 67.1254C84.9309 67.1254 84.8591 67.1685 84.8053 67.2115C84.7694 67.2115 84.7515 67.2975 84.7335 67.3406C84.7515 67.3836 84.7874 67.4266 84.8053 67.4696C85.0206 67.5987 85.218 67.5557 85.4333 67.5126C85.8818 67.4696 86.3304 67.5126 86.7969 67.5557C86.9225 67.5557 87.0302 67.6417 87.1378 67.7708C87.2455 67.8998 87.3711 67.9859 87.4787 67.9429C88.0529 67.9429 88.627 67.8998 89.2012 67.8998C89.4703 67.8998 89.7394 67.9429 90.0086 67.9859C90.0445 67.9859 90.0624 68.0719 90.0804 68.0719C90.0624 68.158 90.0086 68.244 89.9368 68.244C89.7036 68.287 89.4524 68.3301 89.2191 68.3301C87.9452 68.3301 86.6892 68.3731 85.4153 68.3731C85.1462 68.3731 84.8771 68.4161 84.6079 68.4161C84.572 68.4161 84.5362 68.4591 84.5362 68.5022C84.5182 68.6312 84.5541 68.7173 84.6079 68.7603C84.6438 68.8033 84.6618 68.8033 84.6976 68.8033C84.7694 68.8033 84.8232 68.8463 84.8591 68.9754C84.895 69.1045 84.8232 69.4486 84.7515 69.4917C84.6976 69.5347 84.6438 69.6207 84.59 69.6207C84.4644 69.6638 84.3567 69.7068 84.2311 69.7498C84.1594 69.7928 84.1235 69.9219 84.1235 70.051C84.1235 70.18 84.1414 70.3091 84.1953 70.3951C84.2491 70.4812 84.3209 70.5672 84.3388 70.6533C84.3567 70.7823 84.285 70.8684 84.2311 70.9544C84.1594 71.0405 84.1594 71.1695 84.1594 71.2986C84.1773 71.6428 84.0876 71.7719 83.9441 71.6428C83.9082 71.5998 83.8902 71.5998 83.8544 71.5567C83.8005 71.5137 83.7467 71.4277 83.6929 71.3416L83.7108 71.3847C83.639 71.1265 83.5493 70.9975 83.4058 70.9975C83.1725 70.9975 82.9213 70.9544 82.706 71.2556C82.6522 71.2986 82.5804 71.2986 82.5266 71.2556C82.401 71.1695 82.2934 71.0835 82.1857 71.2556C82.1319 71.3416 82.0781 71.3416 82.0063 71.2986C81.9525 71.2556 81.8986 71.2126 81.8448 71.1265C81.7013 70.9975 81.5577 70.9544 81.4142 71.1265C81.2886 71.2556 81.1809 71.2126 81.0733 71.0835C81.0374 71.0405 81.0195 71.0405 80.9836 71.0405C80.6606 70.9975 80.3197 70.9544 79.9967 71.0835C79.8711 71.1265 79.7635 71.2126 79.6558 71.3416C79.5123 71.5137 79.3688 71.4707 79.2252 71.3416C79.1355 71.2556 79.0458 71.2556 78.974 71.3416C78.9202 71.3847 78.8664 71.4277 78.8125 71.5137C78.7408 71.5998 78.6511 71.5998 78.5972 71.8149C78.6331 71.944 78.6869 71.987 78.7587 72.03C78.8843 72.073 78.992 72.1591 79.0817 72.4172C79.1355 72.5463 79.1176 72.6753 79.0637 72.7614C79.0458 72.8044 79.0099 72.8474 78.992 72.8474C78.8484 72.9335 78.687 72.9335 78.5434 72.7614C78.4178 72.6323 78.3102 72.6753 78.2025 72.8044C78.1846 72.8474 78.1487 72.8474 78.1128 72.8904C77.7539 72.9335 77.3951 73.0195 77.0363 72.8474C76.9465 72.8044 76.9286 72.7184 76.9645 72.5463C77.0004 72.4172 77.0183 72.2881 77.0542 72.2021C77.1439 71.8579 77.1439 71.7719 77.0363 71.7288C76.8927 71.6858 76.7312 71.6428 76.5877 71.6858C76.4621 71.7288 76.3544 71.8579 76.3186 72.2021C76.3186 72.2881 76.3006 72.3311 76.2827 72.4172C76.2647 72.6753 76.175 72.8044 76.1032 72.8474C75.9059 72.9335 75.6906 72.9765 75.4753 72.9335C75.4035 72.9335 75.3497 72.8474 75.3497 72.7614C75.3497 72.7184 75.3676 72.6323 75.4035 72.5893C75.4573 72.5032 75.5111 72.4172 75.547 72.3312C75.6367 72.116 75.7444 72.03 75.87 72.03C75.9418 72.03 75.9777 71.987 76.0135 71.8579C75.9597 71.7719 75.9059 71.7288 75.8521 71.7288C75.7085 71.7288 75.547 71.7288 75.4035 71.8579C75.2061 72.03 75.0088 72.2021 74.8114 72.3742C74.7576 72.4172 74.7037 72.5032 74.632 72.5032C74.3808 72.5032 74.1655 72.7184 73.9322 72.8904C73.8784 72.9335 73.8066 72.9335 73.7528 72.8904C73.376 72.5463 72.9813 72.5032 72.6045 72.5463C72.0303 72.6323 71.4562 72.5463 70.9 72.5463C70.8102 72.5463 70.7205 72.5463 70.6308 72.4602C70.4873 72.3312 70.3438 72.3742 70.1823 72.5032C70.0746 72.5893 69.949 72.5893 69.8234 72.4602C69.7337 72.3742 69.644 72.2881 69.5722 72.2881C69.2134 72.2451 68.8545 72.2021 68.4957 72.3312C68.406 72.3742 68.3342 72.4602 68.2624 72.6323C68.2445 72.6753 68.2265 72.7614 68.2265 72.8044C68.2624 72.9765 68.3163 73.0195 68.3701 72.9335C68.4239 72.8904 68.4777 72.8474 68.5316 72.7614C68.6213 72.6323 68.711 72.6323 68.7828 72.7184C68.9442 72.8904 69.1237 72.9765 69.3031 72.9765C69.6978 72.9765 70.0926 72.9335 70.4693 73.0625C70.5052 73.0625 70.5411 73.1056 70.5411 73.1486C70.5591 73.2776 70.5232 73.4067 70.4873 73.5358C70.4514 73.6648 70.3976 73.7079 70.3258 73.7509C70.1464 73.7939 69.967 73.8369 69.7875 73.88C69.5722 73.88 69.3749 73.88 69.1595 73.88C69.034 73.88 68.9263 74.009 68.8186 74.0951C68.7469 74.1381 68.6392 74.0951 68.5675 74.1381C68.5495 74.1381 68.5316 74.2241 68.4957 74.2672C68.388 74.5683 68.388 74.5683 68.2804 74.4392C68.1907 74.3532 68.1189 74.2672 68.0292 74.1811C67.9754 74.1381 67.9395 74.009 67.9215 73.8369C67.9753 73.8369 68.0471 73.8369 68.101 73.7939C68.1189 73.7939 68.1548 73.7509 68.1727 73.7079C68.1907 73.6648 68.1907 73.5788 68.1907 73.5788C68.1548 73.4497 68.101 73.4497 68.0471 73.5358C67.9933 73.6218 67.9574 73.7079 67.9574 73.88C67.8856 73.88 67.8318 73.88 67.76 73.88C67.7421 73.6648 67.6703 73.5358 67.5806 73.4928C67.5268 73.4497 67.473 73.4928 67.4191 73.4928C67.4012 73.4928 67.3653 73.5358 67.3474 73.5788C67.3294 73.6648 67.3653 73.7509 67.4371 73.7509C67.5447 73.7939 67.6703 73.7939 67.778 73.7939C67.76 73.923 67.7421 74.052 67.6883 74.1381C67.6165 74.2672 67.5447 74.3532 67.455 74.4392C67.3833 74.5253 67.2935 74.6113 67.2038 74.4823C67.0962 74.3532 66.9885 74.3102 66.8809 74.2241C66.7912 74.1381 66.7373 74.052 66.6835 73.8369C66.6476 73.6648 66.5759 73.4928 66.4861 73.4067C66.4682 73.2776 66.4323 73.1486 66.3785 73.1056C66.3605 73.0625 66.3247 73.0625 66.3067 73.0625C66.2888 73.0625 66.2529 73.1056 66.2349 73.1486C66.217 73.2346 66.2529 73.3207 66.3247 73.3637C66.3785 73.3637 66.4323 73.3637 66.5041 73.3637C66.4144 73.88 66.2529 74.1811 66.0376 74.2672C65.7146 74.3962 65.4096 74.6974 65.0866 74.9125C64.9969 74.9555 64.9072 74.9555 64.8175 74.9125C64.7637 74.8695 64.6919 74.8695 64.6381 74.8695C64.5484 74.8695 64.4586 74.9555 64.3689 74.9985C64.1716 74.8264 63.9563 74.7834 63.7768 74.5253C63.6154 74.2672 63.4359 74.3102 63.2745 74.5253C63.2565 74.5683 63.2206 74.6113 63.2027 74.6113C63.1847 74.6544 63.1489 74.6974 63.113 74.6974C63.0233 74.7404 62.9335 74.7834 62.8438 74.6974C62.7362 74.6113 62.6285 74.4392 62.5209 74.3532C62.467 74.3102 62.3953 74.3102 62.3414 74.3102C62.2159 74.3102 62.1082 74.3962 62.0005 74.5253C61.8391 74.7404 61.6596 74.7834 61.4802 74.7404C61.3546 74.7404 61.247 74.6974 61.1214 74.6544C60.9958 74.6113 60.9061 74.4823 60.8163 74.2241C60.7625 74.052 60.7625 73.923 60.8522 73.88C61.0137 73.7509 61.1931 73.6648 61.3726 73.5358C61.552 73.4067 61.7314 73.4497 61.9108 73.4497C62.0903 73.4067 62.2697 73.4928 62.4312 73.7079C62.5388 73.8369 62.6644 73.7939 62.79 73.7079C62.8259 73.7079 62.8438 73.6648 62.8797 73.6218C63.0233 73.4497 63.1489 73.3637 63.3103 73.3637C63.8127 73.4067 64.3331 73.3207 64.8354 73.3637C64.979 73.3637 65.1405 73.3207 65.2661 73.1486C65.4275 72.9765 65.607 72.9765 65.7864 72.8904C65.8043 72.9335 65.8043 73.0195 65.8223 73.0625C65.8402 73.1056 65.8582 73.1056 65.8761 73.1056C65.8761 73.0195 65.8402 72.9335 65.7684 72.9335C65.7505 72.7184 65.7146 72.5463 65.6428 72.3742C65.5711 72.2451 65.4814 72.1591 65.3916 72.1591C65.3378 72.1591 65.2661 72.2021 65.2122 72.2451C65.0328 72.3742 64.8534 72.4602 64.674 72.4602C64.3151 72.4602 63.9563 72.4602 63.5974 72.4602C63.418 72.4602 63.2386 72.5032 63.0591 72.6753C63.0053 72.7184 62.9515 72.7184 62.8797 72.6753C62.6824 72.4602 62.485 72.2881 62.3056 72.116C62.0903 72.073 61.9108 71.7288 61.6955 71.6858C61.552 71.6428 61.4982 71.4277 61.4982 71.1265C61.4982 70.9544 61.4623 70.8684 61.3905 70.8684C61.0317 70.8254 60.6728 70.7393 60.314 70.9114C60.2422 70.9544 60.2063 71.0405 60.2601 71.2126C60.314 71.3847 60.3678 71.5567 60.4037 71.7288C60.4396 71.9009 60.4216 71.987 60.3319 72.03C60.1166 72.1591 59.9192 72.1591 59.7219 71.944C59.668 71.8579 59.6321 71.7719 59.6501 71.5998C59.668 71.2986 59.7757 71.0835 59.7577 70.7823C59.7577 70.6533 59.7039 70.5242 59.6501 70.5242C59.5604 70.4812 59.4707 70.5672 59.381 70.6533C59.2374 70.7823 59.0939 70.8254 58.9503 70.6963C58.8068 70.5672 58.6633 70.4812 58.5197 70.6533C58.3941 70.8254 58.2147 70.7823 58.1071 70.9975C58.0532 71.0835 58.0532 71.2126 58.0712 71.3847C58.0891 71.4277 58.107 71.5137 58.1429 71.5137C58.1609 71.5567 58.1968 71.5567 58.2326 71.5567C58.3403 71.4707 58.4659 71.3847 58.5736 71.2986C58.6633 71.2556 58.753 71.2986 58.8068 71.4707C58.8786 71.6858 58.8427 71.9009 58.753 71.987C58.7171 72.03 58.6991 72.073 58.6633 72.073C58.43 72.116 58.1788 72.116 57.9456 72.1591C57.8917 72.1591 57.82 72.116 57.7661 72.073C57.6585 71.987 57.5508 71.7719 57.4252 71.8149C57.3355 71.8579 57.2458 71.9439 57.174 71.987C57.1023 72.03 56.9946 71.7719 56.9767 71.5998C56.9767 71.3847 57.0126 71.1695 57.0305 70.9975C57.0305 70.8254 56.9946 70.7393 56.9408 70.6533C56.9049 70.6103 56.887 70.5672 56.8511 70.5672C56.6178 70.5242 56.3666 70.5242 56.1334 70.4812C55.9181 70.4382 55.7207 70.4812 55.5054 70.5242C55.3978 70.5242 55.3798 70.6533 55.3798 70.9544C55.3798 71.2126 55.308 71.3847 55.2363 71.2986C55.1286 71.1695 55.021 71.0405 54.9133 70.9544C54.8954 70.9114 54.8954 70.8254 54.8774 70.7823C54.8595 70.7393 54.8415 70.7393 54.8236 70.7393C54.8236 70.8254 54.8595 70.9114 54.9133 70.9114C54.8954 71.3847 54.8236 71.7288 54.6262 71.9009C54.4647 72.073 54.2853 72.2021 54.1238 72.3742C54.0341 72.4602 54.0341 72.7184 54.1059 72.8904C54.1238 72.9335 54.1418 73.0195 54.1777 73.0195C54.2674 73.0625 54.3571 73.1056 54.4468 73.1056C54.5903 73.1486 54.7518 73.1486 54.8954 73.2776C55.0927 73.4497 55.308 73.4928 55.5233 73.4928C56.241 73.4497 56.9767 73.4928 57.6944 73.5358C57.8738 73.5358 58.0532 73.4497 58.2147 73.1916C58.3582 72.9765 58.5018 73.0195 58.6453 73.1916C58.735 73.2776 58.7889 73.4497 58.8427 73.6218C58.9145 73.8369 58.8786 74.2672 58.753 74.3102C58.7171 74.3102 58.6991 74.3532 58.6633 74.3532C58.3941 74.3962 58.125 74.4392 57.8559 74.1811C57.7661 74.0951 57.6944 74.0951 57.6047 74.1811C57.5149 74.2672 57.4252 74.3102 57.3355 74.3532C57.2817 74.3962 57.2099 74.3532 57.1561 74.3532C56.887 74.3532 56.6178 74.3532 56.3487 74.3962C56.0437 74.4392 55.7566 74.3532 55.4516 74.1811C55.3978 74.1381 55.326 74.1811 55.2722 74.2241C55.0748 74.4392 54.8595 74.3532 54.6442 74.3962C54.4289 74.4392 54.2315 74.3532 54.0162 74.2241C53.8906 74.1381 53.7829 74.1381 53.6573 74.1811C53.3344 74.3962 53.0114 74.4392 52.6885 74.1381C52.5987 74.052 52.509 74.052 52.4193 74.052C52.204 74.009 52.0066 73.966 51.7913 74.009C51.3966 74.052 51.0019 74.1381 50.6251 74.0951C50.2304 74.052 49.8356 73.966 49.4588 73.966C49.3691 73.966 49.2794 73.923 49.1897 73.8369C48.9564 73.5358 48.7232 73.6218 48.4899 73.7939C48.3643 73.88 48.2567 73.88 48.149 73.7509C47.9517 73.5788 47.7364 73.6218 47.5211 73.7509C47.4672 73.7939 47.4134 73.88 47.3775 73.966C47.3237 74.052 47.2878 74.1811 47.2519 74.2672C47.216 74.1811 47.1622 74.0951 47.1263 74.009C47.0725 73.923 47.0366 73.8369 46.9828 73.7939C46.8931 73.7509 46.8034 73.7079 46.7136 73.7079C45.8165 73.7509 44.9015 73.6648 44.0043 73.6648C43.8608 73.6648 43.6993 73.6648 43.5558 73.7079C43.3405 73.7509 43.1431 73.7079 42.9457 73.4928C42.8022 73.3207 42.6587 73.3637 42.4972 73.4067C42.3178 73.4497 42.1563 73.6218 41.9589 73.4497C41.9051 73.4067 41.8333 73.4497 41.7795 73.5358C41.636 73.7079 41.4924 73.6648 41.3489 73.4928C41.2771 73.4067 41.1874 73.3207 41.0977 73.3207C40.9183 73.3637 40.7388 73.4067 40.5594 73.3637C40.38 73.3207 40.2006 73.3207 40.0211 73.3207C39.7879 73.3207 39.5367 73.3207 39.3034 73.3637C39.1599 73.3637 38.9984 73.4497 38.8549 73.5788C38.7113 73.7509 38.5678 73.7079 38.4243 73.5788C38.3346 73.4928 38.2449 73.4928 38.1551 73.4928C37.8501 73.4497 37.5451 73.4497 37.258 73.4067C37.1324 73.4067 37.0248 73.3637 36.8992 73.2776C36.8095 73.1916 36.7197 73.1916 36.63 73.2776C36.5224 73.3637 36.3968 73.4067 36.2712 73.4497C35.9662 73.4497 35.6611 73.4928 35.3741 73.4928C35.0511 73.5358 34.7102 73.4928 34.3872 73.3207C34.2616 73.2346 34.154 73.2776 34.0284 73.3637C33.7413 73.5358 33.4363 73.5358 33.1313 73.5788C32.7724 73.6218 32.4136 73.6218 32.0547 73.5788C31.8215 73.5358 31.5703 73.5358 31.337 73.5788C31.1217 73.6218 30.9064 73.5788 30.7091 73.3637C30.6552 73.3207 30.5835 73.2776 30.5296 73.3637C30.3323 73.5788 30.117 73.6218 29.9016 73.5788C29.3275 73.5788 28.7533 73.5358 28.1792 73.5358C28.0895 73.5358 27.9998 73.5358 27.91 73.4497C27.5871 73.1486 27.2641 73.1486 26.9232 73.1916C26.7797 73.2346 26.6182 73.2776 26.4747 73.4067C26.4208 73.4497 26.367 73.4928 26.2952 73.4928C25.9902 73.5358 25.6852 73.5358 25.3981 73.4928C25.111 73.2346 24.806 73.2776 24.501 73.2346C24.3754 73.2346 24.2677 73.2776 24.1421 73.4067C24.0883 73.4497 24.0345 73.4497 23.9627 73.4067C23.8551 73.3207 23.7295 73.2346 23.6039 73.3207C23.3886 73.4067 23.1912 73.4497 22.9759 73.3207C22.617 73.3207 22.2582 73.1056 21.8993 73.2346C21.5764 73.1916 21.2355 73.1916 20.9125 73.1486C20.8587 73.1486 20.7869 73.1056 20.7331 73.0625C20.5357 72.8904 20.3204 72.8474 20.1051 72.8474C19.8898 72.8474 19.6745 72.8474 19.4771 72.8044C19.3336 72.8044 19.1721 72.7184 19.0286 72.6323C18.8491 72.5032 18.6697 72.5032 18.4903 72.6323C18.4365 72.6753 18.3826 72.6323 18.3109 72.5893C18.2212 72.5463 18.1315 72.4602 18.0417 72.4602C17.4676 72.4602 16.8934 72.4172 16.3193 72.3742C16.1578 72.3742 16.0143 72.3311 15.8707 72.2021C15.7272 72.073 15.5836 72.116 15.4222 72.2021C15.0992 72.4602 14.7762 72.4602 14.4533 72.1591C14.3636 72.073 14.2738 72.073 14.1841 72.03C14.0406 72.03 13.8791 72.03 13.7356 72.03C13.61 72.03 13.5023 71.944 13.3767 71.944C13.1255 71.6428 12.8564 71.6858 12.5873 71.6428C12.372 71.5998 12.1746 71.5998 11.9593 71.5567C11.744 71.5567 11.5466 71.5137 11.3492 71.2986C10.9007 71.1695 10.4701 70.7393 10.0215 70.7393C9.8959 70.7393 9.78825 70.6533 9.6806 70.5672C9.57294 70.4382 9.44734 70.3951 9.32175 70.3951C9.26792 70.3951 9.19615 70.3951 9.14232 70.3521C8.8373 70.051 8.4964 69.9649 8.17344 69.8789C8.10167 69.8789 8.01196 69.5777 8.0299 69.4056C8.04784 69.2766 8.06578 69.1045 8.06578 68.9754C8.06578 68.8463 8.0299 68.7173 7.95813 68.6742C7.92224 68.6312 7.9043 68.6312 7.86842 68.6312C7.61722 68.6742 7.40192 68.3731 7.18661 68.115C7.13278 68.0719 7.09689 67.8998 7.07895 67.7708C7.00718 67.3406 6.86364 67.0824 6.68422 66.9534C6.5048 66.8243 6.34331 66.6522 6.18183 66.5231C6.03829 66.4371 5.89476 66.351 5.75122 66.222C5.66151 66.1359 5.57179 66.0929 5.48208 66.0499C5.33854 66.0069 5.17706 65.9638 5.05146 65.8348C4.80027 65.6197 4.51319 65.6197 4.24406 65.6627C4.17229 65.6627 4.11846 65.7487 4.11846 65.8348C4.11846 65.8778 4.15435 65.9638 4.17229 66.0069C4.35171 66.222 4.54908 66.4371 4.7285 66.6952C4.8541 66.8673 4.96175 66.8243 5.06941 66.6952C5.10529 66.6522 5.12323 66.6522 5.15912 66.6092C5.33854 66.4801 5.51797 66.5231 5.66151 66.8243C5.76916 67.0824 5.87681 67.2975 6.00241 67.5126C6.11006 67.6847 6.21772 67.6847 6.34332 67.5557C6.39714 67.5126 6.45097 67.4266 6.5048 67.4266C6.55862 67.3836 6.63039 67.4696 6.64834 67.6417C6.66628 67.8138 6.63039 67.9429 6.57657 67.9859C6.55862 68.0289 6.52274 68.0719 6.5048 68.0719C6.32537 68.115 6.14595 68.158 5.96653 68.158C5.82299 68.158 5.66151 68.158 5.51797 67.9859C5.28472 67.7708 5.05146 67.7278 4.80027 67.7278C4.67467 67.7278 4.56702 67.7708 4.44142 67.7708C4.35171 67.7708 4.24406 67.7708 4.17229 67.6847C3.95698 67.3836 3.72373 67.3406 3.47254 67.3836C3.25723 67.4266 3.04192 67.4266 2.84455 67.4266C2.75484 67.4266 2.66513 67.4266 2.57542 67.5126C2.34217 67.7708 2.10892 67.7708 1.87567 67.7708C1.48093 67.7708 1.0862 67.8138 0.709411 67.6847C0.619699 67.6417 0.54793 67.5126 0.476161 67.3836C0.422333 67.2545 0.422333 67.1254 0.494103 67.0394C0.673527 66.8243 0.763238 66.5231 0.835008 66.0929C0.85295 65.9208 0.85295 65.7917 0.799123 65.7057C0.6197 65.4476 0.512045 64.9743 0.332622 64.6732C0.224967 64.5011 0.24291 64.286 0.350564 63.9418C0.476161 63.6406 0.476161 63.5976 0.350564 63.5116C0.260852 63.4685 0.17114 63.4255 0.0993708 63.2965C0.0455437 63.2104 -0.0262258 62.8662 0.00965896 62.7372C0.0276013 62.6081 0.0455437 62.479 0.0814284 62.35C0.17114 61.9628 0.224967 61.5756 0.207025 61.1023C0.189083 60.6721 0.189083 60.2419 0.224967 59.8116C0.24291 59.6826 0.24291 59.5105 0.260852 59.3814C0.296737 59.0372 0.458218 58.7361 0.601757 58.7791C0.655584 58.7791 0.727354 58.8221 0.781181 58.8651C0.835008 58.9082 0.906777 58.8651 0.960604 58.8221C1.06826 58.6931 1.19386 58.65 1.31945 58.65C1.49888 58.65 1.6783 58.65 1.85772 58.65C1.85772 58.6931 1.87567 58.7791 1.87567 58.8221C1.89361 58.8651 1.91155 58.8651 1.92949 58.8651C1.92949 58.7791 1.89361 58.7361 1.83978 58.6931C1.8039 58.4779 1.73213 58.3489 1.64241 58.3059C1.5527 58.2628 1.46299 58.2628 1.37328 58.3059C1.19386 58.3489 1.01443 58.3059 0.85295 58.0907C0.709411 57.9187 0.565872 57.8756 0.422333 57.8326C0.332622 57.7896 0.278794 57.5314 0.314679 57.3594C0.386449 57.0582 0.422333 56.671 0.565872 56.4989C0.637642 56.4129 0.655584 56.2838 0.619699 56.1978C0.601757 56.1547 0.565872 56.1547 0.54793 56.1117C0.494103 56.0687 0.440276 56.0257 0.368506 55.9826C0.350564 55.9396 0.296737 55.8966 0.296737 55.8536C0.350564 55.3373 0.224967 54.8641 0.24291 54.3478C0.260852 54.1327 0.296737 53.9606 0.386449 53.8745C0.476161 53.7885 0.565872 53.7885 0.637642 53.6594C0.691469 53.5734 0.727354 53.4013 0.673527 53.3153C0.619699 53.1432 0.54793 53.0571 0.476161 52.885C0.404391 52.7129 0.386449 52.5409 0.422333 52.3257C0.440276 52.2397 0.458218 52.1967 0.458218 52.1537C0.529988 51.7665 0.529988 51.6374 0.422333 51.3793C0.386449 51.2932 0.332622 51.2072 0.296737 51.0781C0.224967 50.906 0.24291 50.6479 0.278794 50.4758C0.368506 50.1746 0.54793 50.1316 0.637642 49.8304C0.709411 49.6153 0.6197 49.3142 0.727354 49.056C0.835008 48.8409 0.835008 48.7549 0.763238 48.5398C0.709411 48.3677 0.655584 48.1956 0.601757 48.0235C0.54793 47.8514 0.583815 47.6363 0.655584 47.4642C0.673527 47.4212 0.709411 47.3782 0.727354 47.3351C0.799123 47.1631 0.799123 47.12 0.763238 46.7759C0.745296 46.5607 0.709411 46.3456 0.709411 46.1305C0.709411 45.7003 0.727354 45.2701 0.727354 44.8398C0.727354 44.5817 0.817066 44.4526 0.888835 44.4096C1.05032 44.2806 1.22974 44.1085 1.39122 44.0224C1.44505 43.9794 1.51682 44.0224 1.57065 44.0654C1.73213 44.1085 1.78595 44.0224 1.78595 43.6352C1.78595 43.5492 1.78595 43.5062 1.76801 43.4201C1.82184 43.4201 1.87567 43.4201 1.92949 43.4201C1.94743 43.4201 1.98332 43.3771 2.00126 43.3341C2.0192 43.291 2.0192 43.248 2.0192 43.205C1.98332 43.0759 1.92949 43.0759 1.87567 43.162C1.82184 43.248 1.8039 43.3341 1.78595 43.4631C1.64241 43.4631 1.48093 43.4201 1.37328 43.119C1.24768 42.7748 1.0862 42.6027 0.888835 42.6027C0.835008 42.6027 0.763238 42.5597 0.709411 42.5166C0.637642 42.4736 0.54793 42.2155 0.565872 42.0434C0.619699 41.6992 0.619699 41.355 0.565872 41.0109C0.54793 40.8818 0.565872 40.7097 0.601757 40.6237C0.763238 40.3225 0.92472 39.9783 1.0862 39.6772C1.14003 39.5911 1.19386 39.5911 1.26562 39.5911C1.42711 39.5911 1.5527 39.7632 1.69624 39.8493C1.75007 39.8923 1.82184 39.8493 1.87567 39.8062C2.03715 39.5911 2.1448 39.2039 2.30628 39.0748C2.37805 38.9888 2.39599 38.8597 2.34217 38.8167C2.32422 38.7737 2.28834 38.7737 2.25245 38.7737C2.19863 38.7737 2.12686 38.7307 2.07303 38.8167C1.96538 38.9028 1.85772 39.0749 1.75007 39.1609C1.60653 39.29 1.46299 39.2469 1.31945 39.0748C1.30151 39.0318 1.26562 38.9888 1.24768 38.9458C1.19386 38.6876 1.14003 38.4295 1.10414 38.1714C1.05032 37.8272 0.960605 37.5691 0.817066 37.397C0.709411 37.2679 0.691469 36.9668 0.781181 36.6656C0.870893 36.3644 0.960605 36.0633 1.03237 35.7621C1.10414 35.504 1.19386 35.3749 1.31945 35.3319C1.64241 35.2889 1.98332 35.2459 2.30628 35.1598C2.37805 35.1598 2.41394 34.9877 2.41394 34.8587C2.43188 34.6866 2.39599 34.5575 2.34217 34.5145C2.28834 34.4715 2.23451 34.4284 2.18069 34.3854C2.03715 34.3854 1.87567 34.3854 1.73213 34.2563C1.64241 34.2133 1.57064 34.0843 1.53476 33.8691C1.49888 33.6971 1.51682 33.568 1.60653 33.568C1.91155 33.4819 2.19863 33.4819 2.50365 33.4819C2.55748 33.7401 2.64719 33.9122 2.77278 33.9122C2.91632 33.9122 3.05986 33.9122 3.2034 33.8691C3.22134 33.8691 3.25723 33.8261 3.27517 33.7401C3.29311 33.654 3.25723 33.568 3.18546 33.525C2.95221 33.3959 2.7369 33.4819 2.50365 33.4819C2.46776 33.2668 2.39599 33.1378 2.30628 33.0947C2.21657 33.0517 2.12686 33.0087 2.07303 32.8366C2.0192 32.6645 2.0192 32.3634 2.10892 32.3203C2.16274 32.2773 2.21657 32.2343 2.28834 32.2343C2.41394 32.2343 2.52159 32.2773 2.64719 32.3634C2.75484 32.4494 2.88044 32.5354 2.98809 32.5785C3.22134 32.6215 3.45459 32.7075 3.68784 32.9226C3.7955 33.0087 3.9211 33.0517 4.04669 33.0517C4.35171 33.0517 4.63879 33.0087 4.94381 32.9657C4.9797 32.9657 4.99764 32.9657 5.03352 32.9226C5.14118 32.8796 5.14118 32.7506 5.05146 32.7506C4.87204 32.6645 4.69262 32.6645 4.51319 32.6215C4.42348 32.5785 4.35171 32.4924 4.27994 32.3203C4.22612 32.1913 4.20817 32.0622 4.262 31.9762C4.27994 31.9331 4.31583 31.8901 4.33377 31.8901C4.47731 31.9762 4.62085 32.0622 4.76439 32.1052C4.94381 32.1482 5.12323 32.1052 5.30266 32.0622C5.53591 32.0192 5.76916 31.761 6.00241 31.761C6.21772 31.761 6.41508 31.718 6.63039 31.675C6.7201 31.632 6.79187 31.5029 6.82776 31.2878C6.8457 31.2878 6.88159 31.2448 6.89953 31.2448C6.91747 31.2448 6.91747 31.1587 6.91747 31.1157C6.86364 31.1157 6.8457 31.1587 6.8457 31.3308C6.75599 31.3308 6.66628 31.2878 6.57657 31.2878C6.39714 31.2448 6.3792 31.1587 6.41508 30.7285C6.45097 30.3413 6.45097 30.2983 6.39714 30.1262C6.23566 29.696 6.07418 29.2657 5.9127 28.8355C5.87681 28.7065 5.84093 28.5774 5.85887 28.4483C5.89476 28.3193 5.94858 28.2762 6.02035 28.2762C6.11006 28.2332 6.19978 28.2332 6.28949 28.1902C6.36126 28.1472 6.43303 27.889 6.43303 27.7169C6.45097 27.3728 6.45097 26.9856 6.39714 26.6414C6.32537 26.2542 6.23566 25.867 6.16389 25.4798C6.11006 25.2216 6.11006 24.9205 6.12801 24.6193C6.12801 24.5333 6.14595 24.4903 6.16389 24.4042C6.23566 24.06 6.23566 23.7159 6.14595 23.3717C6.07418 23.1135 6.07418 22.8124 6.11006 22.5543C6.14595 22.3391 6.19978 22.1671 6.18183 21.9519C6.12801 21.5647 6.21772 21.2636 6.30743 20.9624C6.36126 20.7903 6.36126 20.5752 6.30743 20.3601C6.28949 20.3171 6.28949 20.231 6.27155 20.145C6.19978 19.4136 6.19978 18.7253 6.41508 18.0799C6.45097 17.9509 6.5048 17.8648 6.52274 17.7357C6.61245 17.1765 6.63039 16.6172 6.48685 16.1009C6.41508 15.8428 6.32537 15.6707 6.18183 15.6707C6.12801 15.6707 6.05624 15.6707 6.00241 15.6707C5.96653 15.6707 5.94858 15.6707 5.9127 15.6277C5.87681 15.5846 5.84093 15.5846 5.84093 15.5416C5.82299 15.4556 5.85887 15.3695 5.93064 15.3265C5.98447 15.2835 6.05624 15.3265 6.11006 15.2835C6.30743 15.2405 6.3792 15.0253 6.2536 14.5951C6.11006 14.1219 6.12801 14.0788 6.34332 13.9068C6.43303 13.8637 6.5048 13.7777 6.59451 13.6486C6.66628 13.5196 6.7201 13.3044 6.66628 13.0893C6.59451 12.7452 6.55862 12.401 6.57657 12.0568C6.61245 11.6266 6.57657 11.1963 6.54068 10.7661C6.48685 10.2068 6.48685 10.2068 6.59451 9.77661C6.61245 9.73359 6.63039 9.64754 6.64834 9.60452C6.68422 9.47545 6.68422 9.34639 6.66628 9.21732C6.55862 8.615 6.45097 8.05571 6.34332 7.4534C6.30743 7.19527 6.28949 7.15224 6.46891 7.02318C6.63039 6.89411 6.73805 6.72202 6.77393 6.2918C6.77393 6.20575 6.79187 6.16273 6.79187 6.07668C6.8457 5.90459 6.89953 5.7325 6.98924 5.68948C7.07895 5.64646 7.16866 5.64646 7.25838 5.60344C7.33014 5.56041 7.36603 5.47437 7.34809 5.38833C7.33014 5.3453 7.29426 5.30228 7.27632 5.25926C7.22249 5.21624 7.15072 5.21624 7.09689 5.17321C7.00718 5.13019 6.95336 4.87206 6.9713 4.65694C6.98924 4.52788 7.02513 4.35579 7.00718 4.22672C6.9713 4.01161 6.88159 3.92556 6.82776 3.7965C6.77393 3.66743 6.77393 3.53836 6.77393 3.4093C6.80982 3.02209 6.93541 2.80698 7.07895 2.72094C7.3122 2.59187 7.5634 2.54885 7.79665 2.41978C7.97607 2.33374 8.13755 2.20467 8.33492 2.20467C8.56817 2.20467 8.81936 2.11862 9.03467 1.86049C9.14232 1.73142 9.26792 1.73142 9.39352 1.73142C9.57294 1.6884 9.75237 1.6884 9.93179 1.55933C10.1292 1.38724 10.3445 1.34422 10.5598 1.3012C10.9186 1.21515 11.2775 1.21515 11.6363 0.95702C11.744 0.870975 11.8696 0.870975 11.9952 0.870975C12.3899 0.827953 12.7846 0.827953 13.1614 0.569819C13.2152 0.526796 13.287 0.569819 13.3408 0.612841C13.4305 0.655863 13.5203 0.655863 13.61 0.569819C13.8073 0.397729 14.0226 0.354707 14.238 0.354707C14.7224 0.311684 15.2068 0.311684 15.6913 0.311684C16.2116 0.311684 16.714 0.268662 17.2343 0.268662C17.9341 0.268662 18.6159 0.268662 19.3156 0.22564C19.7642 0.182617 20.2128 0.22564 20.6793 0.182617C20.8407 0.182617 20.9843 0.268662 21.1099 0.440751C21.1637 0.526796 21.2175 0.483774 21.2893 0.440751C21.397 0.311684 21.5226 0.268662 21.6482 0.268662C22.1685 0.268662 22.6709 0.268662 23.1912 0.268662C23.2271 0.268662 23.263 0.268662 23.2809 0.268662C23.4424 0.440751 23.6218 0.440751 23.8012 0.397729C24.0704 0.698886 24.3216 0.612841 24.5907 0.354707C24.7342 0.22564 24.8778 0.182617 25.0393 0.182617C25.2546 0.22564 25.4699 0.182617 25.6672 0.354707C25.7211 0.397729 25.7928 0.354707 25.8467 0.311684C26.0082 0.182617 26.1158 0.311684 26.2235 0.655863C26.3311 1.00004 26.4567 1.04306 26.6182 0.827953C26.7797 0.612841 26.9412 0.526796 27.1385 0.526796C27.4077 0.526796 27.6768 0.483774 27.9459 0.526796C28.0895 0.569819 28.2509 0.526796 28.3945 0.440751C28.538 0.311684 28.6816 0.397729 28.843 0.440751C29.2737 0.569819 30.117 0.612841 30.6552 0.569819C30.8705 0.526796 31.0679 0.526796 31.2832 0.526796C31.3729 0.526796 31.4626 0.569819 31.5344 0.698886C31.6779 0.870975 31.8215 0.913998 31.965 0.741908C32.0368 0.655863 32.1265 0.569819 32.2162 0.569819C32.4495 0.612841 32.7007 0.569819 32.9339 0.784931C33.1851 1.00004 33.4722 0.95702 33.7413 0.95702C33.7951 0.95702 33.8669 0.913998 33.9207 0.870975C34.0643 0.741908 34.2078 0.655863 34.3514 0.655863C34.5846 0.655863 34.8358 0.612841 35.069 0.569819C35.2485 0.569819 35.4279 0.612841 35.6073 0.784931C35.697 0.870975 35.7867 0.913998 35.8765 0.913998C36.1815 0.913998 36.4865 0.95702 36.7736 0.698886C36.8812 0.612841 37.0068 0.569819 37.1324 0.569819C37.3118 0.569819 37.4913 0.612841 37.6707 0.784931C37.7783 0.913998 37.886 1.00004 38.0116 1.12911C38.0654 1.17213 38.1193 1.17213 38.191 1.12911C38.4781 0.913998 38.7831 0.95702 39.0881 0.95702C39.1779 0.95702 39.1958 1.08609 39.1779 1.25818C39.1599 1.43027 39.1599 1.55933 39.2137 1.64538C39.2676 1.73142 39.3214 1.77445 39.3932 1.73142C39.4829 1.6884 39.5726 1.64538 39.6623 1.60236C39.7161 1.55933 39.7699 1.55933 39.8417 1.60236C39.9314 1.6884 40.0211 1.6884 40.1109 1.73142C40.2365 1.77445 40.362 1.77445 40.4697 1.64538C40.8106 1.25818 41.1695 1.3012 41.5283 1.25818C41.618 1.25818 41.7077 1.34422 41.7795 1.47329C41.9051 1.6884 41.9769 1.98956 42.0666 2.29071C42.1025 2.41978 42.1742 2.4628 42.2281 2.4628C42.2819 2.4628 42.3536 2.50583 42.4075 2.4628C42.6048 2.24769 42.8381 2.50583 43.0175 2.24769C43.1969 2.16165 43.3764 2.03258 43.5378 1.90351C43.6276 1.81747 43.7173 1.86049 43.807 1.94653C43.8608 1.98956 43.9146 2.0756 43.9864 2.0756C44.4709 2.11862 44.9553 2.20467 45.4397 2.0756C45.5294 2.03258 45.6012 1.90351 45.655 1.73142L45.6371 1.77445C45.7268 1.81747 45.8165 1.77445 45.9062 1.86049C46.0318 1.98956 46.1215 2.03258 46.2292 1.81747C46.2651 1.73142 46.3189 1.64538 46.3727 1.55933C46.4266 1.47329 46.4804 1.43027 46.5342 1.38724C46.8034 1.3012 47.0725 1.25818 47.3416 1.21515C47.5569 1.21515 47.7543 1.25818 47.9696 1.34422C48.0952 1.38724 48.0773 1.64538 48.0773 1.81747C48.0773 1.86049 48.0952 1.94653 48.1132 1.98956C48.2029 2.11862 48.6694 2.41978 48.795 2.4628C48.9385 2.50583 49.1 2.50583 49.2435 2.54885C49.3691 2.54885 49.4768 2.63489 49.5844 2.80698C49.6921 2.93605 49.7997 3.06512 49.9074 3.15116C49.9612 3.19418 50.033 3.23721 50.0868 3.23721C50.3559 3.15116 50.6251 3.45232 50.8942 3.36627C51.0378 3.32325 51.1992 3.36627 51.3428 3.4093C51.6657 3.49534 52.0066 3.49534 52.3296 3.45232C52.5449 3.4093 52.7423 3.53836 52.9396 3.71045C53.0832 3.83952 53.2267 3.7965 53.3882 3.75347C53.442 3.71045 53.5138 3.71045 53.5676 3.62441C53.7112 3.49534 53.8547 3.45232 54.0162 3.4093C54.2315 3.4093 54.4289 3.36627 54.6442 3.36627C54.8057 3.36627 54.9492 3.45232 55.0748 3.62441C55.2004 3.75347 55.308 3.75347 55.4157 3.58139C55.5772 3.36627 55.7207 3.15116 55.8104 2.72094C55.9001 2.29071 56.0796 2.16165 56.259 2.11862C56.4384 2.0756 56.6178 2.11862 56.7973 2.11862C56.887 2.11862 56.9767 2.11862 57.0664 2.20467C57.4791 2.50583 57.8917 2.50583 58.3224 2.54885C58.5377 2.54885 58.735 2.59187 58.9503 2.80698C59.0401 2.89303 59.1298 2.89303 59.2195 2.89303C59.8295 2.89303 60.4216 2.93605 61.0317 2.93605C61.247 2.93605 61.4443 3.02209 61.6417 3.19418C61.7494 3.32325 61.8749 3.32325 62.0005 3.36627C62.1261 3.36627 62.2338 3.36627 62.3594 3.36627C62.6285 3.36627 62.8977 3.36627 63.1668 3.4093C63.2924 3.4093 63.4 3.45232 63.5256 3.53836C63.7051 3.66743 63.8845 3.71045 64.0639 3.71045C64.4228 3.71045 64.7816 3.75347 65.1405 3.75347C65.3558 3.75347 65.5531 3.7965 65.7684 4.01161C65.912 4.14068 66.0555 4.14068 66.217 4.14068C66.7014 4.1837 67.1859 4.1837 67.6703 4.22672C67.7959 4.22672 67.9215 4.22672 68.0292 4.31277C68.2983 4.52788 68.5675 4.5709 68.8366 4.5709C69.1596 4.5709 69.5005 4.5709 69.8234 4.61392C69.949 4.61392 70.0746 4.61392 70.1823 4.69997C70.4155 4.87206 70.6488 4.91508 70.9 4.91508C71.1153 4.91508 71.3126 4.9581 71.5279 4.9581C71.6177 4.9581 71.7074 4.9581 71.7971 5.04415C72.12 5.38833 72.443 5.30228 72.7839 5.3453C72.9095 5.3453 73.0172 5.3453 73.1428 5.3453C73.3042 5.3453 73.4478 5.43135 73.5734 5.60344C73.7169 5.77553 73.8605 5.86157 74.004 5.81855C74.5243 5.68948 75.0267 5.77553 75.5291 5.81855C75.6547 5.81855 75.7623 5.86157 75.8879 5.99064C76.0315 6.11971 76.175 6.16273 76.3365 6.16273C76.5697 6.16273 76.8209 6.20575 77.0542 6.20575C77.2874 6.24877 77.5386 6.24877 77.7719 6.42086C77.8795 6.50691 78.0051 6.50691 78.1307 6.54993C78.346 6.59295 78.5434 6.59295 78.7587 6.63597C78.8484 6.63597 78.9381 6.63597 79.0278 6.72202C79.3149 7.02318 79.62 7.02318 79.907 7.02318C80.2121 7.02318 80.4991 7.15224 80.8042 7.32433C81.163 7.49642 81.5218 7.4534 81.8807 7.53944C81.8986 7.53944 81.9345 7.58247 81.9345 7.62549C81.9345 7.71153 81.9166 7.79758 81.8986 7.8406C81.8448 7.92665 81.791 7.96967 81.7551 8.05571C81.7013 8.14176 81.6654 8.27083 81.6295 8.35687C81.6115 8.39989 81.5936 8.48594 81.6116 8.52896C81.6295 8.57198 81.6654 8.65803 81.6833 8.65803C81.8269 8.70105 81.9883 8.70105 82.1319 8.78709C82.4548 8.91616 82.4907 8.91616 82.706 8.615C82.724 8.57198 82.7419 8.52896 82.7599 8.44291C82.7778 8.39989 82.7778 8.31385 82.7957 8.2278L82.7778 8.27083C82.8675 8.31385 82.9213 8.48594 82.9393 8.70105C82.8137 8.57198 82.8137 8.70105 82.8316 8.83012ZM8.94496 6.80806C8.99879 6.80806 9.05261 6.80806 9.10644 6.80806C9.12438 6.80806 9.16027 6.76504 9.17821 6.72202C9.19615 6.679 9.19615 6.63597 9.19615 6.59295C9.16027 6.50691 9.10644 6.46389 9.05261 6.54993C8.99879 6.54993 8.9629 6.679 8.94496 6.80806C8.92702 6.85109 8.90907 6.85109 8.87319 6.89411C8.85525 6.89411 8.85525 6.98015 8.85525 7.02318C8.90907 7.0662 8.94496 6.98015 8.94496 6.80806ZM8.04784 5.94762C8.3708 5.99064 8.71171 5.94762 9.01673 5.64646C9.07055 5.60344 9.12438 5.56041 9.19615 5.56041C9.46529 5.47437 9.73442 5.43135 10.0036 5.56041C10.0394 5.56041 10.0753 5.60344 10.0933 5.64646C10.1112 5.7325 10.0933 5.86157 10.0394 5.94762C9.98562 6.03366 9.96767 6.16273 10.0036 6.24877C10.0215 6.2918 10.0574 6.33482 10.0753 6.33482C10.2548 6.37784 10.4342 6.33482 10.5957 6.07668C10.7392 5.81855 10.8827 5.51739 11.0442 5.38833C11.0801 5.3453 11.098 5.30228 11.116 5.25926C11.1878 5.13019 11.2236 4.91508 11.2775 4.74299C11.3134 4.61392 11.2236 4.26974 11.1698 4.22672C10.9545 4.14068 10.7571 4.1837 10.5418 4.31277C10.3983 4.39881 10.2548 4.5709 10.1112 4.5709C9.93179 4.61392 9.75237 4.61392 9.57294 4.69997C9.39352 4.78601 9.23204 4.9581 9.05261 5.04415C8.74759 5.13019 8.47846 5.43135 8.19138 5.64646C8.10167 5.68948 8.06578 5.81855 8.04784 5.94762C7.88636 5.94762 7.70693 5.94762 7.52751 6.03366C7.49163 6.03366 7.47368 6.11971 7.45574 6.16273C7.47368 6.20575 7.49163 6.24877 7.50957 6.2918C7.61722 6.37784 7.74282 6.42086 7.86842 6.33482C7.94019 6.24877 8.01196 6.16273 8.04784 5.94762ZM43.8608 71.9009C43.9685 71.7719 44.0761 71.6428 44.1838 71.5137C44.2376 71.4707 44.3094 71.4707 44.3632 71.4277C44.3991 71.4277 44.417 71.4277 44.4529 71.4707C44.5247 71.5137 44.5426 71.6428 44.5247 71.8149C44.5067 72.073 44.5606 72.2021 44.6682 72.2021C44.8476 72.2021 45.0271 72.2021 45.2065 72.2021C45.2962 72.2021 45.3859 72.1591 45.4577 72.03C45.655 71.7288 45.8524 71.8149 46.0677 71.9009C46.3907 72.2451 46.7136 72.2021 47.0366 72.073C47.0725 72.073 47.0904 72.03 47.1263 72.03C47.1801 71.987 47.234 72.03 47.3057 72.073C47.3955 72.1591 47.4852 72.2021 47.5749 72.2021C47.7005 72.2451 47.7902 72.4172 47.862 72.6753C47.9158 72.8904 47.9876 72.9765 48.0773 72.9765C48.1131 72.9765 48.1311 72.9765 48.167 72.9765C48.3823 72.9765 48.5976 72.9765 48.795 72.9765C49.0641 72.9335 49.3153 72.5893 49.5844 72.5893C49.6383 72.5893 49.6921 72.5032 49.7459 72.4602C49.7818 72.4172 49.7997 72.3742 49.8177 72.3742C49.8894 72.2881 49.9792 72.1591 50.0689 72.1591C50.3739 72.1591 50.6789 72.1591 50.966 72.2021C51.0557 72.2021 51.1454 72.2881 51.1992 72.4602C51.3069 72.7614 51.4325 72.8904 51.594 72.9335C52.1322 73.0625 52.6705 72.9765 53.2267 72.9335C53.3164 72.9335 53.3882 72.8044 53.442 72.5893C53.4779 72.4172 53.5497 72.2451 53.6215 72.116C53.6932 72.03 53.6932 71.9009 53.6753 71.8149C53.6573 71.7719 53.6215 71.7288 53.6035 71.7288C53.3882 71.6428 53.1908 71.6428 52.9755 71.4707C52.9217 71.4277 52.8499 71.4277 52.7961 71.4707C52.6705 71.5567 52.5629 71.5567 52.4373 71.4277C52.2399 71.2556 52.0425 71.0835 51.8452 70.9544C51.7375 70.8684 51.6119 70.9114 51.5043 71.0405C51.3787 71.2126 51.2351 71.3416 51.0736 71.3416C50.9301 71.3416 50.7686 71.3416 50.6251 71.3416C50.4636 71.3416 50.3201 71.2556 50.1945 71.0405C50.0868 70.8684 49.9792 70.8254 49.8536 70.8254C49.405 70.8254 48.9564 70.7393 48.5079 70.9544C48.2926 70.9544 48.0773 70.9114 47.8799 70.9544C47.0366 70.9975 46.1933 70.9544 45.35 70.9544C44.7759 70.9544 44.2017 70.9544 43.6276 70.9975C43.5917 70.9975 43.5737 70.9975 43.5378 71.0405C43.502 71.0405 43.484 71.0835 43.4481 71.1265C43.3584 71.1695 43.3225 71.4277 43.3764 71.6428C43.502 72.2881 43.6993 72.3742 43.8608 71.9009ZM70.1464 7.71153C70.3796 7.41038 70.6488 7.19527 70.9 7.02318C70.9538 6.98015 71.0076 7.02318 71.0794 7.0662C71.1691 7.10922 71.2588 7.15224 71.3485 7.19527C71.4921 7.19527 71.6535 7.19527 71.7971 7.19527C71.9227 7.19527 72.0303 7.23829 72.138 7.41038C72.2815 7.58247 72.4251 7.62549 72.5686 7.58247C72.748 7.53944 72.9095 7.36736 73.1069 7.4534C73.1607 7.49642 73.2145 7.41038 73.2684 7.32433C73.4119 7.15224 73.5554 7.15224 73.699 7.32433C73.7707 7.41038 73.8605 7.49642 73.9502 7.58247C74.0399 7.66851 74.1116 7.62549 74.2014 7.4534C74.2911 7.23829 74.2731 7.02318 74.1834 6.93713C73.8246 6.59295 73.4478 6.33482 73.0351 6.42086C72.9813 6.42086 72.9095 6.42086 72.8557 6.42086C72.6404 6.42086 72.443 6.33482 72.2456 6.11971C72.1739 6.03366 72.0662 5.99064 71.9765 5.99064C71.8509 5.94762 71.7432 5.94762 71.6177 5.99064C70.9897 6.11971 70.3437 5.99064 69.7158 5.99064C69.6261 5.99064 69.5363 5.90459 69.4466 5.81855C69.339 5.7325 69.2134 5.64646 69.1237 5.47437C68.9442 5.17321 68.7289 5.13019 68.5316 4.9581C68.4777 4.91508 68.406 4.87206 68.3521 4.9581C68.2086 5.13019 68.0651 5.21624 67.9215 5.21624C67.6524 5.21624 67.3833 5.21624 67.1141 5.43135C67.0603 5.47437 66.9885 5.43135 66.9347 5.38833C66.845 5.3453 66.7553 5.21624 66.6835 5.21624C66.5041 5.17321 66.3426 4.91508 66.1991 4.65694C66.1093 4.44183 65.9837 4.39881 65.8582 4.39881C65.589 4.39881 65.3199 4.39881 65.0507 4.39881C64.8175 4.39881 64.5663 4.44183 64.351 4.69997C64.2972 4.74299 64.2254 4.74299 64.1716 4.74299C64.0819 4.74299 63.9742 4.74299 63.9024 4.65694C63.6871 4.39881 63.4359 4.39881 63.2206 4.14068C63.113 4.01161 62.9874 3.96859 62.8618 3.96859C62.6824 3.96859 62.5029 3.96859 62.3235 3.96859C62.1082 3.96859 61.9108 3.83952 61.7135 3.66743C61.6238 3.58139 61.5161 3.66743 61.4623 3.83952C61.3905 4.05463 61.3008 4.26974 61.2111 4.44183C61.1214 4.5709 61.1393 4.74299 61.229 4.9581C61.3008 5.13019 61.3367 5.13019 61.4802 5.04415C61.5699 4.9581 61.6596 4.9581 61.7494 5.04415C61.8929 5.17321 62.0185 5.30228 62.162 5.47437C62.2159 5.51739 62.2876 5.51739 62.3414 5.43135C62.5388 5.21624 62.7541 5.17321 62.9694 5.17321C63.3283 5.21624 63.6871 5.17321 64.046 5.47437C64.0998 5.43135 64.1716 5.43135 64.2075 5.38833C64.2972 5.30228 64.3869 5.30228 64.4586 5.38833C64.5125 5.47437 64.5663 5.56041 64.6022 5.64646C64.7457 5.94762 64.9072 6.11971 65.1046 6.07668C65.5531 5.99064 66.0017 6.16273 66.4503 6.03366C66.5041 6.03366 66.5759 6.07668 66.6297 6.07668C66.7553 6.11971 66.827 6.33482 66.8629 6.679C66.8809 6.98015 66.7732 7.28131 66.6656 7.19527C66.4682 7.02318 66.2529 6.98015 66.0376 6.98015C65.589 7.02318 65.1405 7.02318 64.6919 6.72202C64.6381 6.679 64.5842 6.72202 64.5125 6.76504C64.4586 6.80806 64.4048 6.85109 64.3331 6.85109C63.8845 6.89411 63.4359 6.89411 62.9694 6.89411C62.9156 6.89411 62.8438 6.85109 62.79 6.80806C62.6465 6.63597 62.5029 6.59295 62.3594 6.59295C62.0005 6.59295 61.6417 6.59295 61.2649 6.59295C61.0855 6.59295 60.9061 6.54993 60.7266 6.37784C60.4934 6.16273 60.2601 6.07668 60.0089 6.11971C59.8295 6.11971 59.6501 6.11971 59.4707 6.11971C59.3092 6.11971 59.1656 6.03366 59.0401 5.86157C58.9324 5.7325 58.8068 5.7325 58.6812 5.81855C58.5736 5.90459 58.4659 6.03366 58.3582 6.16273C58.3044 6.24877 58.2685 6.37784 58.2865 6.46388C58.3044 6.50691 58.3403 6.54993 58.3582 6.54993C58.6812 6.59295 59.0221 6.59295 59.3451 6.63597C59.4707 6.63597 59.5783 6.679 59.7039 6.76504C59.8833 6.89411 60.0628 6.93713 60.2422 6.93713C60.601 6.93713 60.9599 6.93713 61.3187 6.98015C61.4443 6.98015 61.5699 7.02318 61.6776 7.10922C61.875 7.28131 62.0903 7.32433 62.3056 7.32433C62.79 7.28131 63.2745 7.41038 63.7589 7.41038C63.8845 7.41038 63.9921 7.4534 64.1177 7.53944C64.351 7.71153 64.5843 7.79758 64.8354 7.79758C65.1943 7.75456 65.5531 7.79758 65.912 8.05571C66.0196 8.14176 66.1452 8.09874 66.2708 8.14176C66.7014 8.18478 67.1141 8.2278 67.5447 8.27083C67.6703 8.27083 67.778 8.31385 67.9036 8.39989C68.1368 8.57198 68.3701 8.615 68.6213 8.615C69.0519 8.615 69.4646 8.65803 69.8952 8.65803C70.0387 8.65803 70.2002 8.74407 70.3437 8.87314C70.4514 9.00221 70.577 9.00221 70.7026 9.00221C70.9717 9.00221 71.2409 9.04523 71.51 9.04523C71.6356 9.04523 71.7612 9.04523 71.8688 9.1743C72.1021 9.38941 72.3354 9.43243 72.5865 9.43243C72.9095 9.43243 73.2504 9.43243 73.5734 9.47545C73.6631 9.47545 73.7528 9.47545 73.8425 9.5615C74.0758 9.77661 74.309 9.81963 74.5602 9.81963C75.1882 9.86265 75.8341 9.86265 76.4621 9.77661C76.5159 9.77661 76.5877 9.73359 76.6415 9.73359C76.6774 9.73359 76.6953 9.69056 76.7133 9.64754C76.7492 9.5615 76.7133 9.47545 76.6236 9.43243C76.3544 9.30336 76.0853 9.38941 75.8341 9.08825C75.7265 8.95918 75.6009 9.00221 75.4753 9.00221C75.2061 9.00221 74.937 9.00221 74.6679 9.00221C74.5243 9.00221 74.3628 8.95918 74.2193 8.83012C73.986 8.57198 73.7528 8.52896 73.5195 8.52896C73.2504 8.52896 72.9813 8.52896 72.7121 8.52896C72.4968 8.52896 72.2995 8.44291 72.0842 8.27083C71.9765 8.18478 71.8509 8.14176 71.7253 8.14176C71.5459 8.14176 71.3665 8.14176 71.187 8.14176C70.9179 8.18478 70.6488 8.14176 70.3796 8.09874C70.2899 8.09874 70.2181 7.92665 70.1823 7.71153H70.1464ZM41.0259 70.6533C40.5415 70.6963 40.1826 70.6963 39.8238 70.6963C39.7879 70.6963 39.77 70.6963 39.7341 70.6963C39.6802 70.7393 39.6085 70.7393 39.5546 70.8254C39.3932 71.0405 39.2137 71.0405 39.0343 71.0835C38.9805 71.0835 38.9267 71.1695 38.8728 71.2126C38.8011 71.2556 38.6934 71.6428 38.7293 71.7288C38.7652 71.8579 38.8369 71.8579 38.8908 71.9009C39.0343 71.9439 39.1958 71.9439 39.3393 71.7719C39.3752 71.7288 39.3932 71.6858 39.4111 71.6858C39.5546 71.5567 39.6085 71.6428 39.6085 72.03C39.6085 72.2021 39.6264 72.2881 39.7161 72.3312C39.8955 72.4172 40.075 72.2881 40.2544 72.2881C40.4697 72.2881 40.6671 72.3312 40.8824 72.3312C40.9362 72.3312 40.99 72.2451 41.0439 72.1591C41.1336 72.073 41.1695 71.8579 41.2412 71.7288C41.313 71.5567 41.4027 71.5137 41.4924 71.5567C41.5462 71.5567 41.618 71.5998 41.6718 71.6428C42.0307 71.987 42.3716 71.987 42.7125 71.5567C42.7843 71.4707 42.8919 71.4707 42.9816 71.4277C43.0534 71.3847 43.0893 71.2986 43.0534 71.2126C43.0355 71.1695 42.9996 71.1265 42.9816 71.1265C42.7663 71.0835 42.569 71.0405 42.3716 70.8254C42.2639 70.6963 42.1383 70.6533 42.0127 70.6963C41.618 70.6533 41.2592 70.6963 41.0259 70.6533ZM73.2684 25.867C73.1786 25.91 73.071 25.91 72.9454 25.996C72.9095 25.996 72.8916 26.0821 72.8736 26.0821C72.8018 26.1681 72.7839 26.2542 72.7839 26.4263C72.8018 26.5553 72.8377 26.7274 72.8916 26.7274C73.1248 26.8135 73.3581 27.0286 73.5734 27.3297C73.5913 27.3728 73.6272 27.4158 73.6451 27.4158C73.7887 27.5449 73.9322 27.6309 74.0937 27.4588C74.2911 27.2867 74.4884 27.1146 74.7037 27.1146C75.0088 27.1146 75.3138 27.1577 75.6009 27.3728C75.9777 27.6739 76.3724 27.6739 76.7671 27.5018C76.8568 27.4588 76.9286 27.3297 76.9824 27.1577C77.0183 27.0286 77.0362 26.8995 77.0004 26.7704C76.9645 26.6414 76.9286 26.5553 76.8568 26.5123C76.8209 26.5123 76.803 26.4693 76.7671 26.4693C76.4083 26.7274 76.0494 26.7274 75.7085 26.4263C75.565 26.2972 75.4035 26.3402 75.26 26.2112C75.0805 26.0391 74.9191 26.0821 74.7396 26.2542C74.5961 26.3832 74.4346 26.3832 74.2911 26.2972C74.1655 26.2112 74.0578 26.1251 73.9502 26.0391C73.7349 25.91 73.5195 25.867 73.2684 25.867ZM65.3558 11.0243C65.5352 10.8091 65.6787 10.465 65.8761 10.2499C65.894 10.2068 65.9299 10.1638 65.9299 10.0778C65.9479 10.0347 65.9479 9.9487 65.9299 9.86265C65.894 9.64754 65.8043 9.5615 65.7146 9.5615C65.5711 9.5615 65.4275 9.73359 65.3019 9.86265C65.1405 10.0778 65.0866 10.465 65.2661 10.8522C65.3019 10.9812 65.3199 10.9812 65.3558 11.0243ZM76.0674 14.1219C76.0674 13.9498 76.0315 13.8637 75.9597 13.8207C75.6906 13.6916 75.4394 13.7777 75.1702 13.7347C74.9729 13.6916 74.7576 13.7347 74.5602 13.7777C74.4884 13.7777 74.4525 13.9068 74.4705 13.9498C74.4884 13.9928 74.5243 14.0358 74.5423 14.0358C74.7755 14.0788 75.0088 14.1219 75.242 14.0788C75.4573 14.0358 75.6547 14.1649 75.8521 14.337C75.87 14.38 75.9059 14.337 75.9418 14.337C76.0135 14.38 76.0494 14.2509 76.0674 14.1219ZM66.3247 12.53C66.4323 12.53 66.5759 12.53 66.7194 12.53C66.7373 12.53 66.7912 12.487 66.7912 12.444C66.8091 12.3149 66.7732 12.1859 66.7194 12.1428C66.5938 11.9708 66.4502 11.8417 66.3067 11.9708C66.1452 12.1428 65.9479 12.0568 65.8043 12.2719C65.7864 12.3149 65.7864 12.358 65.7684 12.401C65.7864 12.444 65.8223 12.487 65.8402 12.487C65.9837 12.487 66.1452 12.487 66.3247 12.53ZM9.19615 68.6312C9.19615 68.5452 9.17821 68.5022 9.17821 68.4161C9.14232 68.244 9.10644 68.0289 9.05261 67.8568C9.01673 67.7278 8.94496 67.6847 8.89113 67.7708C8.8373 67.8138 8.80142 67.9429 8.78348 68.0719C8.76553 68.287 8.76553 68.5022 8.81936 68.6742C8.89113 68.8894 8.99879 68.9324 9.14232 68.7603C9.16027 68.7173 9.17821 68.6742 9.19615 68.6312ZM77.6463 11.5405C77.5925 11.5405 77.5207 11.5405 77.4669 11.5835C77.431 11.5835 77.413 11.6266 77.3951 11.6696C77.3772 11.7126 77.3592 11.7556 77.3592 11.7987C77.3772 11.8417 77.413 11.9277 77.431 11.9277C77.6283 11.9708 77.8257 12.0998 78.041 12.1428C78.059 12.1428 78.0948 12.0568 78.0948 12.0138C78.0948 11.9707 78.0948 11.8417 78.0769 11.7987C77.9513 11.4975 77.7898 11.5835 77.6463 11.5405ZM8.4964 19.8438C8.44257 19.8438 8.3708 19.9299 8.35286 20.059C8.35286 20.102 8.3708 20.188 8.38874 20.2741C8.46051 20.5322 8.56817 20.6613 8.69376 20.6613C8.76553 20.6613 8.81936 20.6182 8.85525 20.5322C8.89113 20.4462 8.87319 20.3171 8.81936 20.188C8.72965 19.9299 8.622 19.8438 8.4964 19.8438ZM86.2048 50.949C86.0971 50.949 85.9715 50.9921 85.8639 50.9921C85.846 50.9921 85.8101 51.0351 85.7921 51.0781C85.7742 51.1211 85.8101 51.2502 85.8818 51.2502C86.0792 51.2932 86.2766 51.2932 86.4919 51.2932C86.5098 51.2932 86.5457 51.2502 86.5636 51.2072C86.5816 51.1641 86.5995 51.1211 86.6175 51.0781C86.5995 51.0351 86.5816 50.9921 86.5457 50.949C86.4381 50.906 86.3125 50.906 86.2048 50.949ZM14.0226 2.29071C14.0585 2.29071 14.1303 2.29071 14.1841 2.24769C14.2738 2.24769 14.2918 2.16165 14.2738 1.98956C14.2559 1.86049 14.2021 1.77445 14.1482 1.73142C14.0585 1.6884 13.9868 1.81747 13.8971 1.90351C13.8432 1.94653 13.7894 2.03258 13.7715 2.16165C13.8073 2.24769 13.8612 2.29071 13.9329 2.29071C13.9329 2.33374 13.9688 2.33374 14.0226 2.29071ZM20.2486 3.58139C20.3742 3.53836 20.4281 3.53836 20.4998 3.53836C20.5357 3.53836 20.5716 3.49534 20.5716 3.45232C20.5896 3.36627 20.5357 3.28023 20.464 3.28023C20.3025 3.28023 20.1231 3.15116 19.9616 3.32325C19.9436 3.32325 19.9257 3.4093 19.9257 3.45232C19.9436 3.49534 19.9616 3.58139 19.9975 3.58139C20.1051 3.58139 20.2128 3.58139 20.2486 3.58139ZM76.0674 11.5405C76.0135 11.4975 75.9597 11.4115 75.9059 11.3684C75.8879 11.3254 75.8521 11.3254 75.8341 11.3254C75.7803 11.3254 75.7265 11.4115 75.6906 11.5405C75.6547 11.7126 75.6726 11.7987 75.7444 11.8417C75.8521 11.8417 75.9776 11.8417 76.0853 11.8417C76.1212 11.8417 76.1571 11.7987 76.1571 11.7987C76.175 11.6696 76.1391 11.5835 76.0674 11.5405ZM72.2636 13.3905C72.12 13.3905 72.0662 13.3905 72.0124 13.3905C71.9944 13.3905 71.9586 13.4335 71.9406 13.4765C71.9227 13.5626 71.9586 13.6056 72.0303 13.6486C72.1739 13.6486 72.3174 13.6486 72.4609 13.6486C72.4789 13.6486 72.5148 13.6056 72.5327 13.5626C72.5507 13.5196 72.5148 13.4335 72.4251 13.3905C72.3533 13.3905 72.2636 13.3905 72.2636 13.3905ZM92.1617 38.2144C92.0899 38.2144 92.1437 38.2144 92.1975 38.2144C92.2693 38.2144 92.3231 38.1714 92.3411 38.0423C92.359 37.9563 92.3052 37.8272 92.2334 37.8272C92.0899 37.8272 91.9464 37.8272 91.8028 37.8702C91.731 37.8702 91.6772 37.9993 91.6952 38.0423C91.731 38.1714 91.7849 38.1714 91.8566 38.1714C91.9105 38.1714 91.9822 38.1714 92.1617 38.2144ZM34.9614 71.2986C34.9076 71.3416 34.8717 71.4707 34.8717 71.5998C34.8717 71.7288 34.9076 71.8579 34.9793 71.9009C35.0332 71.9439 35.087 71.9439 35.1588 71.9009C35.2305 71.9009 35.2664 71.8149 35.2485 71.6428C35.2485 71.5998 35.2305 71.5137 35.2126 71.4707C35.1408 71.2986 35.069 71.2556 34.9614 71.2986ZM66.54 25.953C66.5938 25.953 66.6476 25.953 66.7014 25.91C66.7732 25.867 66.8091 25.824 66.7912 25.6949C66.7732 25.6519 66.7553 25.5658 66.7373 25.5658C66.6656 25.4798 66.5938 25.3937 66.5041 25.3077C66.4502 25.2647 66.3964 25.3077 66.3426 25.3937C66.3067 25.4798 66.2708 25.6088 66.2888 25.7379C66.3426 25.7809 66.3964 25.824 66.4503 25.867C66.4861 25.953 66.522 25.953 66.54 25.953ZM91.0134 38.1714C91.0672 38.1714 91.139 38.1714 91.1928 38.1284C91.2287 38.1284 91.2466 38.0853 91.2645 38.0423C91.2466 37.9563 91.1928 37.9132 91.1389 37.9132C91.0851 37.9132 91.0134 37.9132 90.9595 37.9132C90.9057 37.9132 90.8339 37.9132 90.798 37.9993C90.7622 38.0853 90.8698 38.1714 91.0134 38.1714ZM1.53476 65.9208C1.64241 65.9208 1.76801 65.7917 1.73213 65.7057C1.69624 65.5766 1.64241 65.5336 1.58859 65.5336C1.53476 65.5336 1.48093 65.5336 1.42711 65.5336C1.37328 65.5336 1.30151 65.5336 1.26562 65.6627C1.24768 65.7057 1.30151 65.8348 1.37328 65.8348C1.40916 65.9208 1.46299 65.9208 1.53476 65.9208ZM7.63517 67.5987C7.72488 67.5987 7.81459 67.5987 7.88636 67.4266C7.81459 67.2545 7.72488 67.2545 7.63517 67.2115C7.59928 67.2115 7.58134 67.2115 7.54545 67.2115C7.47368 67.2115 7.41986 67.2545 7.38397 67.3836C7.41986 67.5126 7.47368 67.5557 7.52751 67.5557C7.58134 67.5557 7.59928 67.5557 7.63517 67.5987ZM37.6169 71.0835C37.6528 71.2556 37.6886 71.4277 37.7245 71.5998C37.7425 71.6428 37.7783 71.6858 37.7963 71.6858C37.8142 71.6858 37.8501 71.5998 37.8501 71.5567C37.886 71.2986 37.8681 70.9975 37.7783 70.8254C37.7245 70.7393 37.6707 70.7823 37.6169 70.8684C37.6169 70.9114 37.6348 70.9975 37.6169 71.0835ZM53.8368 5.7325C53.8368 5.7325 53.8906 5.7325 53.9444 5.7325C53.9803 5.7325 53.9982 5.7325 54.0162 5.68948C54.0341 5.64646 54.07 5.60344 54.088 5.60344C54.07 5.56041 54.0521 5.47437 54.0162 5.47437C53.9265 5.43135 53.8547 5.43135 53.765 5.43135C53.6394 5.43135 53.5497 5.56041 53.6035 5.64646C53.6753 5.68948 53.7112 5.7325 53.8368 5.7325ZM74.8114 11.1103C74.6858 11.1533 74.5961 11.1533 74.5064 11.1963C74.4884 11.1963 74.4526 11.2394 74.4346 11.2824C74.4526 11.3254 74.4705 11.3684 74.4705 11.3684C74.5602 11.4115 74.632 11.4545 74.7217 11.4545C74.8114 11.4975 74.937 11.3254 74.9011 11.2394C74.8832 11.1533 74.8293 11.1103 74.8114 11.1103ZM3.11369 39.1609C3.09575 39.1179 3.05986 39.0748 3.04192 39.0748C2.95221 39.0318 2.8625 39.0318 2.80867 39.2039C2.80867 39.2039 2.84455 39.333 2.8625 39.333C2.95221 39.419 3.02398 39.419 3.11369 39.29C3.11369 39.29 3.11369 39.2039 3.11369 39.1609ZM74.1116 11.0673C74.0937 11.0243 74.0937 10.9382 74.0758 10.8952C74.0219 10.7231 73.8605 10.7661 73.8605 10.8952C73.8605 11.0243 73.8963 11.1533 73.9322 11.2394C73.986 11.3254 74.0399 11.3684 74.0758 11.2394C74.0937 11.1963 74.0937 11.1533 74.1116 11.0673ZM18.4365 3.36627C18.4185 3.32325 18.4006 3.23721 18.3826 3.23721C18.2929 3.19418 18.2212 3.19418 18.1494 3.32325C18.1315 3.36627 18.1135 3.4093 18.1135 3.45232C18.1315 3.58139 18.2391 3.66743 18.3288 3.58139C18.4006 3.53836 18.4365 3.49534 18.4365 3.36627ZM29.3095 1.51631C29.2737 1.38724 29.2198 1.34422 29.166 1.38724C29.1481 1.38724 29.1301 1.47329 29.1122 1.51631C29.1301 1.55933 29.1481 1.60236 29.166 1.64538C29.2198 1.6884 29.2737 1.64538 29.3095 1.51631ZM41.5283 2.11862C41.5104 2.11862 41.4924 2.16165 41.4565 2.20467C41.4745 2.24769 41.4745 2.29071 41.4924 2.33374C41.5642 2.37676 41.6001 2.29071 41.5821 2.20467C41.6001 2.16165 41.5462 2.11862 41.5283 2.11862ZM71.51 13.1754C71.4921 13.1324 71.4921 13.0463 71.4741 13.0463C71.4562 13.0463 71.4203 13.0463 71.4023 13.0463C71.3485 13.1324 71.3665 13.2184 71.4562 13.2184C71.4562 13.2184 71.4921 13.1754 71.51 13.1754ZM14.848 20.4892C14.848 20.4462 14.848 20.3601 14.8301 20.3601C14.8121 20.3171 14.7762 20.3171 14.7403 20.3171C14.6686 20.4031 14.6686 20.4892 14.7583 20.5322C14.7942 20.5322 14.8301 20.4892 14.848 20.4892ZM69.9311 26.1681C69.9131 26.1251 69.8952 26.0821 69.8772 26.0391C69.8234 25.996 69.7696 26.0391 69.7337 26.1681C69.7337 26.1681 69.7696 26.2542 69.7875 26.2972C69.8414 26.3402 69.8952 26.2972 69.9311 26.1681ZM2.53953 40.2365C2.55748 40.1934 2.59336 40.1934 2.6113 40.1504C2.59336 40.1074 2.57542 40.0644 2.53953 40.0213C2.46776 39.9783 2.43188 40.0644 2.44982 40.1504C2.46776 40.1934 2.50365 40.1934 2.53953 40.2365ZM62.0544 70.9975C62.0364 70.9544 62.0185 70.9114 62.0005 70.8684C61.9467 70.8254 61.8929 70.8684 61.875 70.9975C61.875 70.9975 61.9108 71.0835 61.9288 71.1265C61.9826 71.1695 62.0185 71.1265 62.0544 70.9975ZM75.3138 11.2394L75.2779 11.3254H75.3317L75.3138 11.2394Z" fill="#00659E"/>
<g clip-path="url(#clip0)">
<path d="M58.9 44.7994H49.04L58.2636 35.5781C58.7046 35.1358 58.7046 34.4201 58.2636 33.9778L51.8495 27.558C51.4036 27.1234 50.6918 27.1256 50.2487 27.5631L41.3333 36.4785V30.4798C41.3315 30.1169 41.2438 29.7595 41.0772 29.4371L37.1672 21.9004C36.8699 21.3451 36.2905 20.9991 35.6607 21.0005C35.0308 21.0019 34.453 21.3506 34.1582 21.9072L30.255 29.4428C30.0894 29.7635 30.0021 30.1188 30 30.4798V49.8994C30.0034 52.7147 32.2848 54.996 35.1 54.9994H58.9C61.7167 54.9994 64 52.7161 64 49.8994C64 47.0828 61.7167 44.7994 58.9 44.7994ZM51.0528 28.3661L57.4624 34.7768L47.4397 44.7994H35.1C34.9297 44.7996 34.7595 44.8083 34.59 44.8255L36.2248 43.1912L36.5393 43.5052C36.7609 43.7263 37.1198 43.7259 37.3409 43.5043C37.562 43.2827 37.5616 42.9239 37.34 42.7028L37.0255 42.3888L37.8268 41.587L38.6292 42.3894C38.7724 42.5325 38.9811 42.5884 39.1767 42.5359C39.3723 42.4834 39.525 42.3306 39.5774 42.135C39.6297 41.9394 39.5737 41.7307 39.4305 41.5876L38.6286 40.7857L39.4299 39.9845L41.033 41.5876C41.2553 41.8023 41.6088 41.7992 41.8274 41.5807C42.0459 41.3621 42.049 41.0086 41.8343 40.7863L40.2312 39.1832L41.033 38.3819L41.8348 39.1838C42.0577 39.3934 42.4067 39.3882 42.6233 39.1721C42.8399 38.956 42.8458 38.607 42.6367 38.3836L41.8348 37.5818L42.6367 36.7805L44.2398 38.3836C44.4621 38.5984 44.8155 38.5953 45.0341 38.3767C45.2527 38.1581 45.2558 37.8047 45.041 37.5824L43.4385 35.9793L44.2398 35.178L45.0416 35.9793C45.1839 36.1266 45.3946 36.1857 45.5927 36.1338C45.7908 36.0819 45.9455 35.9272 45.9974 35.7291C46.0493 35.531 45.9902 35.3203 45.8429 35.178L45.041 34.3767L45.8429 33.5749L47.4454 35.178C47.5886 35.3211 47.7973 35.377 47.9929 35.3245C48.1885 35.272 48.3412 35.1192 48.3936 34.9236C48.4459 34.728 48.3899 34.5193 48.2467 34.3762L46.643 32.7736L47.4443 31.9724L48.2467 32.7736C48.469 32.9884 48.8224 32.9853 49.041 32.7667C49.2596 32.5482 49.2627 32.1947 49.0479 31.9724L48.2467 31.1711L49.0479 30.3698L50.6505 31.9724C50.8728 32.1871 51.2262 32.184 51.4448 31.9655C51.6634 31.7469 51.6665 31.3935 51.4517 31.1711L49.8492 29.5686L51.0528 28.3661ZM33.3581 31.5734L31.2858 29.9137L33.3354 25.96C34.7469 26.9019 36.5864 26.9019 37.9979 25.96L40.0476 29.9142L37.9753 31.5734L36.4679 30.0661C36.0254 29.6237 35.308 29.6237 34.8654 30.0661L33.3581 31.5734ZM38.5 39.3118V32.577C38.565 32.5435 38.6265 32.5037 38.6836 32.458L40.2 31.2436V37.6118L38.5 39.3118ZM35.1635 22.4342C35.2621 22.2497 35.4539 22.134 35.6631 22.1327C35.8723 22.1314 36.0655 22.2447 36.1665 22.428L37.4664 24.9344C36.3995 25.733 34.9339 25.733 33.8669 24.9344L35.1635 22.4342ZM31.1333 31.2436L32.6497 32.458C32.7076 32.4976 32.769 32.5316 32.8333 32.5594V39.1328C32.8333 39.4457 33.087 39.6994 33.4 39.6994C33.713 39.6994 33.9667 39.4457 33.9667 39.1328V32.5277C34.0362 32.4838 34.1008 32.4325 34.1593 32.3747L35.6667 30.8674L37.174 32.3747C37.2324 32.4323 37.297 32.4832 37.3667 32.5266V40.4452L33.9667 43.8452V41.3994C33.9667 41.0865 33.713 40.8328 33.4 40.8328C33.087 40.8328 32.8333 41.0865 32.8333 41.3994V44.9785L31.8133 45.9985L31.7986 46.0138C31.7958 46.0178 31.7934 46.0219 31.7912 46.0263C31.5517 46.2306 31.3315 46.4565 31.1333 46.7012V31.2436ZM58.9 53.8661H35.1C32.9093 53.8661 31.1333 52.0902 31.1333 49.8994C31.1333 47.7087 32.9093 45.9328 35.1 45.9328H58.9C61.0907 45.9328 62.8667 47.7087 62.8667 49.8994C62.8667 52.0902 61.0907 53.8661 58.9 53.8661Z" fill="white"/>
<path d="M35.0994 47.0659C33.5346 47.0659 32.2661 48.3344 32.2661 49.8992C32.2661 51.4641 33.5346 52.7326 35.0994 52.7326C36.6643 52.7326 37.9328 51.4641 37.9328 49.8992C37.9309 48.3352 36.6635 47.0678 35.0994 47.0659ZM35.0994 51.5992C34.1606 51.5992 33.3994 50.8381 33.3994 49.8992C33.3994 48.9604 34.1606 48.1992 35.0994 48.1992C36.0383 48.1992 36.7994 48.9604 36.7994 49.8992C36.7994 50.8381 36.0383 51.5992 35.0994 51.5992Z" fill="white"/>
<path d="M58.9002 47.0659C57.3354 47.0659 56.0669 48.3344 56.0669 49.8992C56.0669 51.4641 57.3354 52.7326 58.9002 52.7326C60.465 52.7326 61.7336 51.4641 61.7336 49.8992C61.7317 48.3352 60.4643 47.0678 58.9002 47.0659ZM58.9002 51.5992C57.9613 51.5992 57.2002 50.8381 57.2002 49.8992C57.2002 48.9604 57.9613 48.1992 58.9002 48.1992C59.8391 48.1992 60.6002 48.9604 60.6002 49.8992C60.6002 50.8381 59.8391 51.5992 58.9002 51.5992Z" fill="white"/>
</g>
<defs>
<clipPath id="clip0">
<rect width="34" height="34" fill="white" transform="translate(30 20.999)"/>
</clipPath>
</defs>
</svg>
