<svg width="105" height="89" viewBox="0 0 105 89" fill="none" xmlns="http://www.w3.org/2000/svg">
<path d="M91.5507 10.354C91.3127 10.7082 91.0549 10.9106 90.817 11.0624C90.6782 11.1636 90.5592 11.113 90.4402 11.0118C90.2815 10.86 90.1229 10.9106 89.9642 11.113C89.8452 11.3155 89.7263 11.4167 89.5874 11.4167C89.29 11.4167 88.9925 11.4673 88.6951 11.4673C88.5562 11.4673 88.4372 11.3661 88.3183 11.2142C88.1993 11.0118 88.0605 11.0624 87.9415 11.2142C87.8027 11.4167 87.6837 11.3155 87.5845 11.0624C87.5647 11.0118 87.5449 10.9106 87.525 10.86C87.406 10.5564 87.2276 10.5564 87.0887 10.9612C87.0292 11.113 87.0292 11.2648 87.0689 11.4167C87.1086 11.5685 87.1482 11.7203 87.2077 11.7709C87.4259 12.0239 87.6638 12.0745 87.8621 12.3781C87.9216 12.4287 88.001 12.4287 88.0605 12.4793C88.6356 12.4793 89.1908 12.4793 89.7659 12.4793C89.9642 12.4793 90.1625 12.5299 90.3609 12.7324C90.5393 12.8842 90.7376 13.036 90.936 13.1878C91.0351 13.289 91.1343 13.2384 91.2334 13.2384C91.3326 13.2384 91.4317 13.289 91.5309 13.289C91.63 13.2384 91.7292 13.1372 91.8085 13.0866C91.9473 13.036 92.0862 13.1372 92.1853 13.3396C92.3241 13.5926 92.4431 13.8962 92.5621 14.1493C92.6216 14.3011 92.6811 14.2505 92.7207 14.0987C92.8001 13.8456 92.8794 13.542 93.0182 13.542C93.2165 13.4914 93.4148 13.4914 93.5933 13.8456C93.6528 13.9468 93.6925 14.0481 93.752 14.1493C93.8313 14.3011 93.9106 14.4023 94.0296 14.4529C94.1684 14.5035 94.2874 14.5035 94.4262 14.5035C94.565 14.5035 94.684 14.6047 94.803 14.7059C95.5566 15.3638 95.5566 15.3638 96.2705 15.4144C96.6275 15.465 97.0042 15.3638 97.3612 15.5156C97.381 15.5156 97.4405 15.5662 97.4405 15.6168C97.4405 15.8192 97.3811 15.9204 97.3414 16.0216C97.2819 16.1734 97.3017 16.3252 97.381 16.3758C97.5397 16.477 97.7182 16.5276 97.8768 16.477C98.0355 16.477 98.095 16.3252 98.095 15.8698C98.095 15.5662 98.1544 15.465 98.2933 15.5156C98.3924 15.5156 98.4916 15.6168 98.5511 15.8192C98.5709 15.8698 98.5709 16.0216 98.5709 16.0722C98.5114 16.477 98.3924 16.7807 98.2734 17.0843C98.1346 17.3879 97.976 17.4891 97.8173 17.4385C97.7182 17.3879 97.6388 17.2361 97.5397 17.3373C97.5199 17.3879 97.5 17.4385 97.4802 17.5397C97.4802 17.6409 97.4802 17.7421 97.5 17.7927C97.5595 17.8939 97.619 17.9445 97.6785 17.9952C98.0355 18.0458 98.4123 18.0458 98.7692 18.4C98.8485 18.5012 98.9675 18.4506 99.0667 18.5012C99.503 18.5518 99.9392 18.6024 100.356 18.653C100.435 18.653 100.475 18.8048 100.455 18.906C100.435 18.9566 100.395 19.0072 100.376 19.0072C100.177 19.0578 99.9789 19.0578 99.7806 19.1084C99.6021 19.1084 99.5625 19.2602 99.5426 19.7157C99.5426 19.9181 99.5228 20.0193 99.4236 20.0699C99.2253 20.1205 99.027 20.1205 98.8287 20.1205C98.6304 20.1711 98.6106 20.2723 98.5709 20.8796C98.5709 21.0314 98.5312 21.1832 98.5114 21.3856C98.4916 21.588 98.5907 21.8916 98.6701 21.9422C98.7097 21.9422 98.7295 21.9929 98.7692 21.9929C98.8684 21.9422 98.9675 21.8916 99.0468 22.0435C99.265 22.5495 99.503 22.7013 99.7806 22.6507C99.9194 22.6001 100.038 22.6507 100.177 22.6507C100.217 22.6507 100.257 22.6001 100.257 22.5495C100.276 22.3977 100.237 22.2965 100.157 22.2459C100.118 22.2459 100.098 22.1953 100.058 22.1953C99.9789 22.1447 99.9392 22.0941 99.9392 21.8916C99.9392 21.841 99.9987 21.7904 100.019 21.7904C100.316 21.7398 100.614 21.6892 100.911 21.7398C101.01 21.7398 101.109 21.8916 101.169 22.0941C101.268 22.4989 101.407 22.6507 101.585 22.6507C101.744 22.6507 101.922 22.7013 102.081 22.7013C102.24 22.7013 102.418 22.7519 102.577 22.8025C102.616 22.8025 102.636 22.9037 102.656 22.9543C102.636 23.0049 102.597 23.0555 102.577 23.1061C102.319 23.2579 102.041 23.2073 101.784 23.2579C101.605 23.3086 101.466 23.4098 101.308 23.6122C101.089 23.9158 101.089 23.9158 101.248 24.4218C101.268 24.4724 101.268 24.5736 101.268 24.6243C101.248 24.6749 101.208 24.7255 101.189 24.7255C100.951 24.7761 100.732 24.9279 100.495 25.0291C100.435 25.0797 100.356 24.9785 100.296 24.9279C100.118 24.8267 99.9591 25.0797 99.8798 25.4339C99.7806 25.8893 99.6814 26.2942 99.5426 26.699C99.4633 26.952 99.503 27.1038 99.6219 27.2556C99.6814 27.3569 99.7409 27.4075 99.8004 27.5087C99.9194 27.7111 100.038 27.8123 100.177 27.8123C100.812 27.8629 101.446 27.7617 102.081 27.7111C102.339 27.6605 102.616 27.7111 102.874 27.7111C103.132 27.7111 103.33 27.8629 103.469 28.4195C103.509 28.5713 103.568 28.622 103.608 28.7738C103.707 29.0268 103.707 29.1786 103.608 29.3304C103.429 29.5328 103.251 29.7352 103.033 29.7858C102.497 29.8364 101.962 29.887 101.427 29.9883C101.387 29.9883 101.347 30.0389 101.347 30.0895C101.327 30.1907 101.367 30.2919 101.446 30.3425C101.585 30.3931 101.704 30.3425 101.843 30.4943C101.922 30.5955 101.942 30.6967 101.942 30.8991C101.942 31.0509 101.903 31.2027 101.823 31.2533C101.665 31.3546 101.486 31.3546 101.327 31.4052C101.07 31.5064 100.891 31.7594 100.792 32.3666C100.732 32.7209 100.633 32.8727 100.495 32.9739C100.455 32.9739 100.435 33.0245 100.395 33.0751C100.376 33.1257 100.316 33.1763 100.316 33.2269C100.316 33.3787 100.356 33.5305 100.415 33.6317C100.475 33.7329 100.534 33.8341 100.594 33.8341C100.693 33.8847 100.792 33.8847 100.891 33.8847C101.466 33.8341 102.021 33.986 102.597 34.0366C102.656 34.0366 102.716 34.1378 102.775 34.239C102.835 34.3402 102.874 34.492 102.874 34.6438C102.874 34.7956 102.835 34.8968 102.755 34.9474C102.597 34.998 102.418 34.998 102.259 35.0486C102.021 35.0992 101.803 35.251 101.625 35.7065C101.565 35.8583 101.506 35.8583 101.446 35.8077C101.288 35.7571 101.288 35.8077 101.208 36.0607C101.189 36.1113 101.169 36.2125 101.169 36.2631C101.03 36.8198 100.832 37.0222 100.594 37.174C100.435 37.2752 100.395 37.8824 100.514 38.2367C100.534 38.2873 100.574 38.3379 100.594 38.3885C100.732 38.4897 100.851 38.4391 100.99 38.4391C101.089 38.4391 101.189 38.4391 101.288 38.4897C101.526 38.5909 101.724 38.9451 101.962 38.9451C102.16 38.9451 102.359 38.9957 102.557 39.0463C102.636 39.0463 102.676 39.1981 102.676 39.2993C102.676 39.3499 102.636 39.4512 102.616 39.4512C102.557 39.5018 102.497 39.5524 102.418 39.603C102.299 39.7042 102.2 39.9572 102.101 40.2102C102.021 40.4632 102.061 40.7163 102.14 40.8681C102.279 41.1211 102.458 41.0705 102.616 41.1717C102.636 41.1717 102.676 41.2729 102.696 41.3235C102.676 41.3741 102.656 41.4753 102.636 41.5259C102.418 41.9307 102.16 42.1332 101.883 42.1332C101.744 42.1332 101.625 42.1838 101.486 42.1838C101.288 42.1838 101.089 42.285 100.911 42.4874C100.812 42.5886 100.713 42.5886 100.614 42.6898C100.534 42.7404 100.495 42.8416 100.514 42.9934C100.514 43.1452 100.554 43.297 100.633 43.3983C100.732 43.4995 100.832 43.5501 100.931 43.4489C101.189 43.1958 101.446 43.0946 101.704 43.0946C102.18 43.0946 102.636 43.0946 103.112 43.0946C103.152 43.0946 103.192 43.0946 103.211 43.1452C103.271 43.2464 103.311 43.3477 103.37 43.4489C103.39 43.4995 103.39 43.6007 103.37 43.7019C103.35 43.8537 103.311 44.0055 103.251 44.0561C103.053 44.2585 102.854 44.2079 102.656 44.2585C102.517 44.3091 102.537 44.6127 102.537 44.8152C102.537 45.1188 102.398 45.473 102.279 45.5236C102.22 45.5742 102.14 45.6248 102.081 45.6248C101.823 45.6754 101.546 45.6754 101.308 46.0297C101.248 46.0803 101.189 46.1309 101.109 46.1309C101.01 46.1815 100.911 46.1815 100.812 46.1815C100.614 46.2321 100.415 46.2321 100.217 46.3333C100.019 46.4345 99.8401 46.7381 99.6418 46.7887C99.6219 46.7887 99.5823 46.8899 99.5625 46.9405C99.5823 46.9911 99.6021 47.0417 99.6219 47.0417C100.019 47.0923 100.415 47.0923 100.812 47.0923C101.01 47.0923 101.208 47.1429 101.387 47.396C101.466 47.4972 101.585 47.5478 101.665 47.649C101.744 47.6996 101.863 47.6996 101.863 48.0032C101.863 48.155 101.784 48.2562 101.724 48.3574C101.665 48.4586 101.645 48.6104 101.645 48.8129C101.665 48.9647 101.704 49.1165 101.784 49.1165C101.843 49.1671 101.922 49.1671 101.982 49.1671C102.319 49.2177 102.656 49.2177 102.973 49.2177C103.112 49.2177 103.231 49.2683 103.37 49.2683C103.41 49.2683 103.449 49.3695 103.449 49.3695C103.449 49.5213 103.39 49.6225 103.33 49.6225C103.132 49.6731 102.934 49.7237 102.755 49.9767C102.616 50.1792 102.438 50.1792 102.279 50.2298C102.2 50.2804 102.16 50.3816 102.16 50.4828C102.16 50.5334 102.22 50.584 102.24 50.6346C102.438 50.6852 102.636 50.6852 102.835 50.7358C102.934 50.7864 103.033 50.7864 103.132 50.8876C103.35 51.1406 103.588 51.1912 103.806 51.1912C103.945 51.1912 104.064 51.2418 104.203 51.2924C104.243 51.2924 104.262 51.3937 104.282 51.4443C104.262 51.4949 104.223 51.5455 104.203 51.5961C104.104 51.6467 104.005 51.6973 103.905 51.6973C103.271 51.6973 102.636 51.6973 102.002 51.7479C101.605 51.7479 101.208 51.7479 100.812 51.8997C100.792 51.8997 100.752 52.0009 100.752 52.0009C100.752 52.1021 100.772 52.2033 100.812 52.2033C100.99 52.4563 101.169 52.6588 101.367 52.6588C101.962 52.7094 102.557 52.76 103.172 52.8106C103.271 52.8106 103.37 52.9118 103.449 53.1142C103.469 53.1648 103.489 53.266 103.509 53.3166C103.548 53.4684 103.509 53.6202 103.41 53.6202C103.152 53.6708 102.874 53.6708 102.616 53.7214C102.378 53.772 102.16 53.6708 101.942 53.4178C101.922 53.3672 101.883 53.3672 101.843 53.3672C101.704 53.3166 101.585 53.4178 101.486 53.6202C101.407 54.0757 101.268 54.2275 101.089 54.2781C100.99 54.3287 100.891 54.4299 100.812 54.5311C100.673 54.6829 100.554 54.6323 100.435 54.4805C100.376 54.3793 100.316 54.3793 100.237 54.4299C100.138 54.4805 100.058 54.5817 99.9591 54.6829C99.7608 54.8347 99.5625 54.8853 99.3641 54.7335C99.1063 54.5817 99.1063 54.5817 98.8882 54.8347C98.8684 54.8853 98.8287 54.9359 98.8089 54.9865C98.7692 55.1383 98.789 55.2395 98.8882 55.2395C99.146 55.2901 99.4236 55.2902 99.6814 55.3408C99.7409 55.3408 99.8004 55.442 99.8798 55.442C99.9789 55.4926 100.019 55.8468 99.9591 56.0492C99.8798 56.454 99.7409 56.7577 99.5823 56.7577C99.1262 56.8083 98.6502 56.8589 98.1941 56.8589C98.095 56.8589 97.9958 56.8083 97.8967 56.6565C97.6785 56.3022 97.4604 56.3528 97.2224 56.3528C97.1629 56.3528 97.0836 56.4034 97.0241 56.454C97.0043 56.454 96.9448 56.5046 96.9448 56.5552C96.9448 56.6058 96.9646 56.7071 96.9646 56.8083C97.0241 57.0107 97.1034 57.1625 97.2026 57.2131C97.7975 57.3143 98.3924 57.2131 99.0072 57.3649C99.1063 57.3649 99.1262 57.5167 99.146 57.9215C99.146 58.2252 99.2055 58.3264 99.3443 58.3264C99.4831 58.3264 99.6021 58.2252 99.6616 57.8203C99.6814 57.7697 99.7013 57.6685 99.7409 57.6685C99.8004 57.6685 99.8401 57.7697 99.8401 57.9721C99.8401 58.0734 99.8599 58.124 99.8599 58.2252C99.8797 58.5288 99.9789 58.6806 100.058 58.7312C100.613 58.883 101.189 58.9336 101.764 58.883C101.863 58.883 101.962 58.883 102.061 58.9842C102.081 59.0348 102.101 59.0854 102.14 59.136C102.121 59.1866 102.101 59.2878 102.061 59.2878C101.803 59.4903 101.526 59.2372 101.268 59.3891C101.189 59.4397 101.169 59.5409 101.149 59.7433C101.149 60.2999 101.129 60.2999 100.931 60.1987C100.792 60.0975 100.792 60.0975 100.554 60.2999C100.495 60.3505 100.415 60.4011 100.356 60.4011C100.058 60.4011 99.7608 60.4011 99.4633 60.3505C99.4236 60.3505 99.4038 60.2999 99.3641 60.2999C99.2452 60.1481 99.1063 60.1481 98.9874 60.2999C98.8684 60.4517 98.7296 60.4011 98.5907 60.3505C98.5312 60.2999 98.4717 60.2493 98.3924 60.1987C98.2338 60.0469 98.0751 60.0469 97.9165 60.1987C97.8768 60.2493 97.857 60.2493 97.8173 60.2999C97.6587 60.5023 97.5 60.5023 97.3414 60.2999C97.0439 59.9963 96.7464 60.0469 96.449 60.0975C96.3498 60.0975 96.2705 60.2999 96.211 60.5023C96.1912 60.5529 96.1713 60.6542 96.1912 60.7554C96.1912 60.806 96.2309 60.8566 96.2507 60.9072C96.4688 61.059 96.7068 61.0084 96.9448 61.059C97.381 61.1096 97.8173 61.1096 98.2338 61.1602C98.2536 61.1602 98.3131 61.2108 98.3131 61.312C98.3329 61.4132 98.2734 61.5144 98.1941 61.565C98.095 61.6156 97.9958 61.6156 97.8967 61.6156C97.5595 61.6662 97.2224 61.6662 96.9051 61.6662C96.8258 61.6662 96.7861 61.818 96.8258 61.9192C96.8456 61.9698 96.8853 62.0205 96.9051 62.0205C97.0439 62.0711 97.1629 62.0711 97.3017 62.0711C97.5992 62.0711 97.8966 62.0205 98.1743 62.4253C98.2338 62.4759 98.3131 62.4759 98.3726 62.4253C98.5114 62.3241 98.6304 62.3241 98.7692 62.4253C98.9675 62.6277 99.1658 62.5771 99.3641 62.5771C99.5625 62.6277 99.7608 62.5771 99.9591 62.6277C100.058 62.6277 100.138 62.7795 100.237 62.9313C100.336 63.488 100.554 63.5386 100.752 63.5386C100.951 63.5892 101.149 63.5892 101.347 63.5892C101.625 63.5386 101.863 63.7916 102.101 64.1458C102.22 64.2976 102.259 64.7531 102.18 65.0061C102.061 65.3603 101.942 65.5627 101.764 65.5627C101.724 65.5627 101.704 65.5627 101.665 65.5627L101.684 65.6133C101.645 65.4615 101.605 65.3097 101.546 65.3097C101.248 65.1579 100.951 65.1579 100.653 65.3097C100.574 65.3603 100.534 65.5121 100.554 65.6639C100.574 65.8157 100.614 65.9676 100.673 65.9676C100.732 65.9676 100.812 65.9676 100.871 65.8663C100.99 65.7145 101.07 65.8157 101.129 66.0182C101.189 66.2206 101.248 66.423 101.308 66.6254C101.367 66.8278 101.446 66.9796 101.546 67.0302C101.645 67.0302 101.744 67.0302 101.843 67.0808C101.903 67.0808 101.982 67.1314 102.041 67.1314C102.061 67.1314 102.101 67.2326 102.121 67.2832C102.14 67.3844 102.121 67.5363 102.041 67.5869C101.308 67.6881 100.574 67.6881 99.8401 67.6881C98.5511 67.6881 97.2422 67.5869 95.9532 67.7387C95.8739 67.7387 95.8342 67.8905 95.8541 67.9917C95.8739 68.0423 95.9136 68.0929 95.9334 68.1435C95.973 68.1941 95.9929 68.1941 96.0325 68.1941C96.9646 68.1941 97.8967 68.2447 98.8287 68.2447C99.0072 68.2447 99.1658 68.2953 99.3245 68.4977C99.4435 68.6496 99.5823 68.6496 99.7211 68.6496C100.217 68.6496 100.713 68.7001 101.228 68.7001C101.585 68.7001 101.962 68.5989 102.319 68.8014C102.339 68.8014 102.378 68.9026 102.398 68.9532C102.378 69.0038 102.339 69.105 102.319 69.105C101.982 69.2568 101.665 69.2568 101.327 69.2062C100.99 69.2062 100.653 69.1556 100.336 69.2568C100.237 69.3074 100.197 69.5098 100.276 69.8134C100.336 70.0158 100.395 70.2183 100.435 70.4713C100.455 70.6231 100.435 70.8255 100.435 70.9773C100.435 71.0279 100.475 71.0785 100.495 71.1291C100.653 71.2809 100.832 71.281 100.99 71.281C101.466 71.2303 101.922 71.2809 102.398 71.3316C102.438 71.3316 102.458 71.3316 102.497 71.3316C102.636 71.3316 102.616 71.534 102.478 71.7364C102.279 72.04 102.061 72.2424 101.823 72.2424C101.189 72.2424 100.554 72.2424 99.9194 72.2424C99.2253 72.2424 98.5114 72.2424 97.8173 72.2424C97.7182 72.2424 97.619 72.2424 97.5199 72.2424C96.9249 72.3942 96.33 72.2424 95.7351 72.3942C95.6954 72.3942 95.6756 72.4954 95.6557 72.546C95.6756 72.5966 95.6954 72.6473 95.7351 72.6979C95.8342 72.7485 95.9334 72.7991 96.0325 72.7991C96.33 72.7991 96.6275 72.7485 96.9249 72.6979C97.0241 72.6979 97.1232 72.6979 97.2224 72.7991C97.4405 73.0521 97.6587 73.1533 97.8967 73.2039C98.9675 73.2545 100.038 73.2545 101.089 73.3051C101.248 73.3051 101.427 73.3557 101.585 73.5075C101.704 73.6087 101.843 73.6593 101.982 73.6593C102.22 73.6593 102.458 73.7099 102.676 73.6593C103.013 73.6087 103.33 73.8617 103.628 74.2666C103.648 74.3172 103.687 74.3678 103.707 74.4184C103.846 74.6714 104.024 74.722 104.183 74.722C104.421 74.722 104.659 74.722 104.877 74.7726C104.956 74.7726 105.016 74.9244 104.996 75.0256C104.976 75.1774 104.897 75.2281 104.818 75.2281C104.143 75.2281 103.489 75.3293 102.815 75.2281C102.577 75.1774 102.339 75.2281 102.121 75.2281C101.764 75.2281 101.387 75.2281 101.03 75.2281C100.772 75.2281 100.495 75.2786 100.237 75.3293C100.138 75.3293 100.038 75.4305 99.9591 75.5317C99.8004 75.6835 99.6418 75.8353 99.4831 75.8353C99.1857 75.8859 98.8882 75.8859 98.5907 75.9365C98.5511 75.9365 98.5114 75.9871 98.5114 76.0377C98.4916 76.1389 98.5511 76.2401 98.6304 76.2401C98.8684 76.2907 99.0865 76.2907 99.3245 76.3413C99.3443 76.3413 99.384 76.3919 99.4038 76.4931C99.4435 76.5943 99.4038 76.7462 99.3245 76.7462C98.6304 76.9486 97.9165 76.898 97.2224 76.7968C97.1232 76.7968 97.0241 76.6955 96.9249 76.6449C96.8654 76.5943 96.8059 76.5943 96.7266 76.6449C96.5085 76.8474 96.2705 76.898 96.0325 76.898C95.8937 76.898 95.7549 76.898 95.6359 77.0498C95.4178 77.3028 95.1996 77.3534 94.9617 77.5052C94.9022 77.5558 94.8427 77.6064 94.7832 77.657C94.6245 77.8594 94.4659 77.8594 94.3072 77.657C94.2477 77.5558 94.1684 77.5558 94.1089 77.6064C93.8511 77.8594 93.5933 77.91 93.3355 78.0113C93.3157 78.0113 93.2959 78.1125 93.2562 78.1631C93.276 78.2137 93.2958 78.2643 93.3355 78.3149C93.5735 78.4667 93.7916 78.4667 94.0296 78.4161C94.5254 78.4161 95.0211 78.4667 95.5368 78.3655C95.7351 78.3149 95.9334 78.3655 96.1317 78.5173C96.1714 78.5173 96.1912 78.6185 96.211 78.6185C96.1912 78.6691 96.1714 78.7197 96.1317 78.7703C95.8739 78.9221 95.5963 78.9221 95.3384 78.9221C94.8625 78.9221 94.4064 78.9221 93.9304 78.9221C93.8709 78.9221 93.7916 78.9727 93.7321 79.0233C93.6925 79.0233 93.6726 79.1245 93.6528 79.1751C93.6726 79.2257 93.7123 79.2763 93.7321 79.327C93.9701 79.4788 94.1882 79.4282 94.4262 79.3776C94.922 79.327 95.4178 79.3775 95.9334 79.4282C96.0722 79.4282 96.1912 79.5294 96.3102 79.6812C96.4292 79.833 96.568 79.9342 96.687 79.8836C97.3215 79.8836 97.9561 79.833 98.5907 79.833C98.8882 79.833 99.1857 79.8836 99.4831 79.9342C99.5228 79.9342 99.5426 80.0354 99.5625 80.0354C99.5426 80.1366 99.4831 80.2378 99.4038 80.2378C99.146 80.2884 98.8684 80.339 98.6106 80.339C97.2026 80.339 95.8144 80.3896 94.4064 80.3896C94.1089 80.3896 93.8115 80.4402 93.514 80.4402C93.4743 80.4402 93.4347 80.4908 93.4347 80.5414C93.4148 80.6933 93.4545 80.7945 93.514 80.8451C93.5537 80.8957 93.5735 80.8957 93.6131 80.8957C93.6925 80.8957 93.752 80.9463 93.7916 81.0981C93.8313 81.2499 93.752 81.6547 93.6726 81.7053C93.6131 81.7559 93.5536 81.8571 93.4942 81.8571C93.3553 81.9077 93.2364 81.9583 93.0975 82.0089C93.0182 82.0596 92.9786 82.2114 92.9786 82.3632C92.9786 82.515 92.9984 82.6668 93.0579 82.768C93.1174 82.8692 93.1967 82.9704 93.2165 83.0716C93.2364 83.2234 93.157 83.3247 93.0975 83.4259C93.0182 83.5271 93.0182 83.6789 93.0182 83.8307C93.038 84.2355 92.9389 84.3873 92.7802 84.2355C92.7406 84.1849 92.7208 84.1849 92.6811 84.1343C92.6216 84.0837 92.5621 83.9825 92.5026 83.8813L92.5224 83.9319C92.4431 83.6283 92.344 83.4765 92.1853 83.4765C91.9275 83.4765 91.6499 83.4259 91.4119 83.7801C91.3524 83.8307 91.2731 83.8307 91.2136 83.7801C91.0748 83.6789 90.9558 83.5777 90.8368 83.7801C90.7773 83.8813 90.7178 83.8813 90.6385 83.8307C90.579 83.7801 90.5195 83.7295 90.46 83.6283C90.3014 83.4765 90.1427 83.4259 89.9841 83.6283C89.8453 83.7801 89.7263 83.7295 89.6073 83.5777C89.5676 83.5271 89.5478 83.5271 89.5081 83.5271C89.1512 83.4765 88.7744 83.4259 88.4174 83.5777C88.2786 83.6283 88.1596 83.7295 88.0406 83.8813C87.882 84.0837 87.7233 84.0331 87.5647 83.8813C87.4655 83.7801 87.3664 83.7801 87.287 83.8813C87.2276 83.9319 87.1681 83.9825 87.1086 84.0837C87.0292 84.1849 86.9301 84.1849 86.8706 84.4379C86.9103 84.5897 86.9697 84.6404 87.0491 84.691C87.1879 84.7416 87.3069 84.8428 87.406 85.1464C87.4655 85.2982 87.4457 85.45 87.3862 85.5512C87.3664 85.6018 87.3267 85.6524 87.3069 85.6524C87.1482 85.7536 86.9697 85.7536 86.8111 85.5512C86.6723 85.3994 86.5533 85.45 86.4343 85.6018C86.4145 85.6524 86.3748 85.6524 86.3352 85.703C85.9385 85.7536 85.5419 85.8548 85.1453 85.6524C85.0461 85.6018 85.0263 85.5006 85.066 85.2982C85.1056 85.1464 85.1255 84.9946 85.1651 84.8934C85.2643 84.4885 85.2643 84.3873 85.1453 84.3367C84.9866 84.2861 84.8082 84.2355 84.6495 84.2861C84.5107 84.3367 84.3917 84.4885 84.3521 84.8934C84.3521 84.9946 84.3322 85.0452 84.3124 85.1464C84.2926 85.45 84.1934 85.6018 84.1141 85.6524C83.8959 85.7536 83.658 85.8042 83.42 85.7536C83.3407 85.7536 83.2812 85.6524 83.2812 85.5512C83.2812 85.5006 83.301 85.3994 83.3407 85.3488C83.4002 85.2476 83.4597 85.1464 83.4993 85.0452C83.5985 84.7922 83.7175 84.691 83.8563 84.691C83.9356 84.691 83.9753 84.6403 84.0149 84.4885C83.9554 84.3873 83.8959 84.3367 83.8364 84.3367C83.6778 84.3367 83.4993 84.3367 83.3407 84.4885C83.1225 84.6909 82.9044 84.8934 82.6862 85.0958C82.6268 85.1464 82.5673 85.2476 82.4879 85.2476C82.2103 85.2476 81.9723 85.5006 81.7145 85.703C81.655 85.7536 81.5757 85.7536 81.5162 85.703C81.0998 85.2982 80.6635 85.2476 80.247 85.2982C79.6124 85.3994 78.9778 85.2982 78.3631 85.2982C78.2639 85.2982 78.1648 85.2982 78.0656 85.197C77.907 85.0452 77.7483 85.0958 77.5698 85.2476C77.4509 85.3488 77.312 85.3488 77.1732 85.197C77.0741 85.0958 76.9749 84.9946 76.8956 84.9946C76.499 84.944 76.1023 84.8934 75.7057 85.0452C75.6066 85.0958 75.5272 85.197 75.4479 85.3994C75.4281 85.45 75.4083 85.5512 75.4083 85.6018C75.4479 85.8042 75.5074 85.8548 75.5669 85.7536C75.6264 85.703 75.6859 85.6524 75.7454 85.5512C75.8445 85.3994 75.9437 85.3994 76.023 85.5006C76.2015 85.703 76.3998 85.8042 76.5981 85.8042C77.0344 85.8042 77.4707 85.7536 77.8871 85.9054C77.9268 85.9054 77.9665 85.956 77.9665 86.0066C77.9863 86.1585 77.9466 86.3103 77.907 86.4621C77.8673 86.6139 77.8078 86.6645 77.7285 86.7151C77.5302 86.7657 77.3319 86.8163 77.1336 86.8669C76.8956 86.8669 76.6774 86.8669 76.4395 86.8669C76.3007 86.8669 76.1817 87.0187 76.0627 87.1199C75.9834 87.1705 75.8644 87.1199 75.785 87.1705C75.7652 87.1705 75.7454 87.2717 75.7057 87.3223C75.5867 87.6766 75.5867 87.6766 75.4678 87.5248C75.3686 87.4236 75.2893 87.3223 75.1901 87.2211C75.1306 87.1705 75.091 87.0187 75.0711 86.8163C75.1306 86.8163 75.2099 86.8163 75.2694 86.7657C75.2893 86.7657 75.3289 86.7151 75.3488 86.6645C75.3686 86.6139 75.3686 86.5127 75.3686 86.5127C75.3289 86.3609 75.2694 86.3609 75.21 86.4621C75.1505 86.5633 75.1108 86.6645 75.1108 86.8669C75.0315 86.8669 74.972 86.8669 74.8927 86.8669C74.8728 86.6139 74.7935 86.4621 74.6943 86.4115C74.6348 86.3609 74.5754 86.4115 74.5159 86.4115C74.496 86.4115 74.4564 86.4621 74.4365 86.5127C74.4167 86.6139 74.4564 86.7151 74.5357 86.7151C74.6547 86.7657 74.7935 86.7657 74.9125 86.7657C74.8927 86.9175 74.8728 87.0693 74.8133 87.1705C74.734 87.3223 74.6547 87.4236 74.5555 87.5248C74.4762 87.626 74.377 87.7272 74.2779 87.5754C74.1589 87.4236 74.0399 87.3729 73.9209 87.2717C73.8218 87.1705 73.7623 87.0693 73.7028 86.8163C73.6631 86.6139 73.5838 86.4115 73.4846 86.3103C73.4648 86.1585 73.4252 86.0067 73.3657 85.956C73.3458 85.9054 73.3062 85.9054 73.2863 85.9054C73.2665 85.9054 73.2268 85.956 73.207 86.0066C73.1872 86.1078 73.2268 86.2091 73.3062 86.2597C73.3657 86.2597 73.4252 86.2597 73.5045 86.2597C73.4053 86.8669 73.2268 87.2211 72.9889 87.3223C72.6319 87.4742 72.2948 87.8284 71.9378 88.0814C71.8387 88.132 71.7395 88.132 71.6404 88.0814C71.5809 88.0308 71.5015 88.0308 71.4421 88.0308C71.3429 88.0308 71.2437 88.132 71.1446 88.1826C70.9264 87.9802 70.6885 87.9296 70.4902 87.626C70.3117 87.3224 70.1134 87.373 69.9349 87.626C69.9151 87.6766 69.8754 87.7272 69.8556 87.7272C69.8357 87.7778 69.7961 87.8284 69.7564 87.8284C69.6573 87.879 69.5581 87.9296 69.459 87.8284C69.34 87.7272 69.221 87.5248 69.102 87.4236C69.0425 87.3729 68.9632 87.373 68.9037 87.373C68.7649 87.373 68.6459 87.4742 68.5269 87.626C68.3484 87.879 68.1501 87.9296 67.9518 87.879C67.813 87.879 67.694 87.8284 67.5552 87.7778C67.4164 87.7272 67.3172 87.5754 67.218 87.2717C67.1585 87.0693 67.1586 86.9175 67.2577 86.8669C67.4362 86.7151 67.6345 86.6139 67.8328 86.4621C68.0311 86.3103 68.2294 86.3609 68.4277 86.3609C68.626 86.3103 68.8243 86.4115 69.0028 86.6645C69.1218 86.8163 69.2606 86.7657 69.3995 86.6645C69.4391 86.6645 69.4589 86.6139 69.4986 86.5633C69.6573 86.3609 69.7961 86.2597 69.9746 86.2597C70.5298 86.3103 71.1049 86.2091 71.6602 86.2597C71.8188 86.2597 71.9973 86.2091 72.1361 86.0066C72.3146 85.8042 72.5129 85.8042 72.7112 85.703C72.7311 85.7536 72.7311 85.8548 72.7509 85.9054C72.7707 85.956 72.7906 85.956 72.8104 85.956C72.8104 85.8548 72.7707 85.7536 72.6914 85.7536C72.6716 85.5006 72.6319 85.2982 72.5526 85.0958C72.4733 84.944 72.3741 84.8428 72.275 84.8428C72.2155 84.8428 72.1361 84.8934 72.0766 84.944C71.8783 85.0958 71.68 85.197 71.4817 85.197C71.0851 85.197 70.6885 85.197 70.2918 85.197C70.0935 85.197 69.8952 85.2476 69.6969 85.45C69.6374 85.5006 69.5779 85.5006 69.4986 85.45C69.2805 85.197 69.0623 84.9946 68.864 84.7922C68.626 84.7416 68.4277 84.3367 68.1898 84.2861C68.0311 84.2355 67.9716 83.9825 67.9716 83.6283C67.9716 83.4259 67.932 83.3247 67.8526 83.3247C67.456 83.274 67.0594 83.1728 66.6628 83.3753C66.5835 83.4259 66.5438 83.5271 66.6033 83.7295C66.6628 83.9319 66.7223 84.1343 66.7619 84.3367C66.8016 84.5391 66.7818 84.6404 66.6826 84.691C66.4446 84.8428 66.2265 84.8428 66.0084 84.5898C65.9489 84.4885 65.9092 84.3873 65.929 84.1849C65.9489 83.8307 66.0678 83.5777 66.048 83.2234C66.048 83.0716 65.9885 82.9198 65.929 82.9198C65.8299 82.8692 65.7307 82.9704 65.6316 83.0716C65.4729 83.2234 65.3143 83.274 65.1556 83.1222C64.997 82.9704 64.8383 82.8692 64.6797 83.0716C64.5409 83.274 64.3425 83.2234 64.2236 83.4765C64.1641 83.5777 64.1641 83.7295 64.1839 83.9319C64.2037 83.9825 64.2235 84.0837 64.2632 84.0837C64.283 84.1343 64.3227 84.1343 64.3624 84.1343C64.4814 84.0331 64.6202 83.9319 64.7392 83.8307C64.8383 83.7801 64.9375 83.8307 64.997 84.0331C65.0763 84.2861 65.0366 84.5391 64.9375 84.6404C64.8978 84.691 64.878 84.7416 64.8383 84.7416C64.5805 84.7922 64.3029 84.7922 64.0451 84.8428C63.9856 84.8428 63.9063 84.7922 63.8468 84.7416C63.7278 84.6404 63.6088 84.3873 63.47 84.4379C63.3708 84.4885 63.2717 84.5897 63.1923 84.6404C63.113 84.691 62.994 84.3873 62.9742 84.1849C62.9742 83.9319 63.0139 83.6789 63.0337 83.4765C63.0337 83.274 62.994 83.1728 62.9345 83.0716C62.8949 83.021 62.875 82.9704 62.8354 82.9704C62.5776 82.9198 62.2999 82.9198 62.0421 82.8692C61.8042 82.8186 61.586 82.8692 61.3481 82.9198C61.2291 82.9198 61.2092 83.0716 61.2092 83.4259C61.2092 83.7295 61.1299 83.9319 61.0506 83.8307C60.9316 83.6789 60.8126 83.5271 60.6936 83.4259C60.6738 83.3753 60.6738 83.274 60.654 83.2234C60.6341 83.1728 60.6143 83.1728 60.5945 83.1728C60.5945 83.274 60.6341 83.3753 60.6936 83.3753C60.6738 83.9319 60.5945 84.3367 60.3763 84.5391C60.1979 84.7416 59.9995 84.8934 59.8211 85.0958C59.7219 85.197 59.7219 85.5006 59.8012 85.703C59.8211 85.7536 59.8409 85.8548 59.8806 85.8548C59.9797 85.9054 60.0789 85.956 60.178 85.956C60.3367 86.0067 60.5152 86.0067 60.6738 86.1585C60.8919 86.3609 61.1299 86.4115 61.3679 86.4115C62.1611 86.3609 62.9742 86.4115 63.7674 86.4621C63.9658 86.4621 64.1641 86.3609 64.3425 86.0573C64.5012 85.8042 64.6598 85.8548 64.8185 86.0573C64.9176 86.1585 64.9771 86.3609 65.0366 86.5633C65.116 86.8163 65.0763 87.3223 64.9375 87.373C64.8978 87.373 64.878 87.4236 64.8383 87.4236C64.5409 87.4742 64.2434 87.5248 63.9459 87.2211C63.8468 87.1199 63.7674 87.1199 63.6683 87.2211C63.5691 87.3223 63.47 87.3729 63.3708 87.4236C63.3113 87.4742 63.232 87.4236 63.1725 87.4236C62.875 87.4236 62.5776 87.4236 62.2801 87.4742C61.943 87.5248 61.6257 87.4236 61.2886 87.2211C61.2291 87.1705 61.1497 87.2211 61.0903 87.2717C60.8721 87.5248 60.6341 87.4236 60.3962 87.4742C60.1582 87.5248 59.9401 87.4236 59.7021 87.2717C59.5633 87.1705 59.4443 87.1705 59.3055 87.2211C58.9485 87.4742 58.5915 87.5248 58.2346 87.1705C58.1354 87.0693 58.0363 87.0693 57.9371 87.0693C57.6991 87.0187 57.481 86.9681 57.243 87.0187C56.8068 87.0693 56.3705 87.1705 55.954 87.1199C55.5177 87.0693 55.0815 86.9681 54.665 86.9681C54.5658 86.9681 54.4667 86.9175 54.3675 86.8163C54.1097 86.4621 53.8519 86.5633 53.5941 86.7657C53.4553 86.8669 53.3363 86.8669 53.2173 86.7151C52.9992 86.5127 52.7612 86.5633 52.5233 86.7151C52.4638 86.7657 52.4043 86.8669 52.3646 86.9681C52.3051 87.0693 52.2654 87.2211 52.2258 87.3223C52.1861 87.2211 52.1266 87.1199 52.087 87.0187C52.0275 86.9175 51.9878 86.8163 51.9283 86.7657C51.8292 86.7151 51.73 86.6645 51.6309 86.6645C50.6393 86.7151 49.6279 86.6139 48.6364 86.6139C48.4777 86.6139 48.2992 86.6139 48.1406 86.6645C47.9026 86.7151 47.6845 86.6645 47.4663 86.4115C47.3077 86.2091 47.149 86.2597 46.9706 86.3103C46.7722 86.3609 46.5938 86.5633 46.3756 86.3609C46.3161 86.3103 46.2368 86.3609 46.1773 86.4621C46.0187 86.6645 45.86 86.6139 45.7014 86.4115C45.6221 86.3103 45.5229 86.2091 45.4237 86.2091C45.2254 86.2597 45.0271 86.3103 44.8288 86.2597C44.6305 86.2091 44.4322 86.2091 44.2339 86.2091C43.9761 86.2091 43.6984 86.2091 43.4406 86.2597C43.282 86.2597 43.1035 86.3609 42.9449 86.5127C42.7862 86.7151 42.6276 86.6645 42.4689 86.5127C42.3698 86.4115 42.2706 86.4115 42.1715 86.4115C41.8343 86.3609 41.4972 86.3609 41.1799 86.3103C41.0411 86.3103 40.9221 86.2597 40.7833 86.1585C40.6841 86.0573 40.585 86.0573 40.4858 86.1585C40.3668 86.2597 40.228 86.3103 40.0892 86.3609C39.7521 86.3609 39.4149 86.4115 39.0976 86.4115C38.7407 86.4621 38.3639 86.4115 38.0069 86.2091C37.8681 86.1079 37.7491 86.1585 37.6103 86.2597C37.293 86.4621 36.9559 86.4621 36.6188 86.5127C36.2221 86.5633 35.8255 86.5633 35.4289 86.5127C35.1711 86.4621 34.8935 86.4621 34.6357 86.5127C34.3977 86.5633 34.1597 86.5127 33.9416 86.2597C33.8821 86.2091 33.8028 86.1585 33.7433 86.2597C33.5251 86.5127 33.2871 86.5633 33.0492 86.5127C32.4146 86.5127 31.78 86.4621 31.1454 86.4621C31.0462 86.4621 30.9471 86.4621 30.8479 86.3609C30.491 86.0067 30.134 86.0067 29.7572 86.0573C29.5986 86.1079 29.4201 86.1585 29.2614 86.3103C29.202 86.3609 29.1425 86.4115 29.0631 86.4115C28.726 86.4621 28.3889 86.4621 28.0716 86.4115C27.7543 86.1079 27.4172 86.1585 27.08 86.1079C26.9412 86.1079 26.8222 86.1585 26.6834 86.3103C26.6239 86.3609 26.5644 86.3609 26.4851 86.3103C26.3661 86.2091 26.2273 86.1079 26.0885 86.2091C25.8505 86.3103 25.6324 86.3609 25.3944 86.2091C24.9978 86.2091 24.6012 85.9561 24.2045 86.1079C23.8476 86.0573 23.4708 86.0573 23.1138 86.0066C23.0543 86.0066 22.975 85.956 22.9155 85.9054C22.6974 85.703 22.4594 85.6524 22.2214 85.6524C21.9835 85.6524 21.7455 85.6524 21.5273 85.6018C21.3687 85.6018 21.1902 85.5006 21.0316 85.3994C20.8333 85.2476 20.6349 85.2476 20.4366 85.3994C20.3771 85.45 20.3177 85.3994 20.2383 85.3488C20.1392 85.2982 20.04 85.197 19.9409 85.197C19.3063 85.197 18.6717 85.1464 18.0371 85.0958C17.8586 85.0958 17.7 85.0452 17.5413 84.8934C17.3827 84.7416 17.224 84.7922 17.0455 84.8934C16.6886 85.197 16.3316 85.197 15.9747 84.8428C15.8755 84.7416 15.7763 84.7416 15.6772 84.691C15.5185 84.691 15.3401 84.691 15.1814 84.691C15.0426 84.691 14.9236 84.5898 14.7848 84.5898C14.5072 84.2355 14.2097 84.2861 13.9122 84.2355C13.6743 84.1849 13.4561 84.1849 13.2181 84.1343C12.9802 84.1343 12.762 84.0837 12.5439 83.8307C12.0481 83.6789 11.5722 83.1728 11.0764 83.1728C10.9376 83.1728 10.8186 83.0716 10.6996 82.9704C10.5806 82.8186 10.4418 82.768 10.303 82.768C10.2435 82.768 10.1642 82.768 10.1047 82.7174C9.76754 82.3632 9.39075 82.262 9.0338 82.1608C8.95447 82.1608 8.85532 81.8065 8.87515 81.6041C8.89498 81.4523 8.91481 81.2499 8.91481 81.0981C8.91481 80.9463 8.87515 80.7945 8.79582 80.7439C8.75616 80.6933 8.73633 80.6933 8.69667 80.6933C8.41903 80.7439 8.18106 80.3896 7.94309 80.086C7.88359 80.0354 7.84393 79.833 7.8241 79.6812C7.74478 79.1751 7.58613 78.8715 7.38782 78.7197C7.18951 78.5679 7.01103 78.3655 6.83255 78.2137C6.6739 78.1125 6.51525 78.0113 6.35661 77.8594C6.25745 77.7582 6.1583 77.7076 6.05914 77.657C5.90049 77.6064 5.72201 77.5558 5.5832 77.404C5.30556 77.151 4.98826 77.151 4.6908 77.2016C4.61147 77.2016 4.55198 77.3028 4.55198 77.404C4.55198 77.4546 4.59164 77.5558 4.61147 77.6064C4.80979 77.8594 5.02793 78.1125 5.22624 78.4161C5.36505 78.6185 5.48404 78.5679 5.60303 78.4161C5.64269 78.3655 5.66252 78.3655 5.70218 78.3149C5.90049 78.1631 6.0988 78.2137 6.25745 78.5679C6.37644 78.8715 6.49542 79.1245 6.63424 79.3776C6.75323 79.58 6.87221 79.58 7.01103 79.4282C7.07052 79.3775 7.13002 79.2764 7.18951 79.2764C7.249 79.2257 7.32833 79.327 7.34816 79.5294C7.36799 79.7318 7.32833 79.8836 7.26883 79.9342C7.249 79.9848 7.20934 80.0354 7.18951 80.0354C6.9912 80.086 6.79289 80.1366 6.59458 80.1366C6.43593 80.1366 6.25745 80.1366 6.0988 79.9342C5.841 79.6812 5.5832 79.6306 5.30556 79.6306C5.16674 79.6306 5.04776 79.6812 4.90894 79.6812C4.80979 79.6812 4.6908 79.6812 4.61147 79.58C4.3735 79.2257 4.1157 79.1751 3.83806 79.2257C3.60009 79.2764 3.36212 79.2764 3.14398 79.2764C3.04482 79.2764 2.94567 79.2764 2.84651 79.3776C2.58871 79.6812 2.33091 79.6812 2.0731 79.6812C1.63682 79.6812 1.20054 79.7318 0.784086 79.58C0.684931 79.5294 0.605607 79.3776 0.526282 79.2257C0.466789 79.0739 0.466789 78.9221 0.546113 78.8209C0.744424 78.5679 0.843579 78.2137 0.922903 77.7076C0.942734 77.5052 0.942734 77.3534 0.883241 77.2522C0.684931 76.9486 0.565945 76.3919 0.367634 76.0377C0.248648 75.8353 0.268479 75.5823 0.387465 75.1774C0.526282 74.8232 0.526282 74.7726 0.387465 74.6714C0.28831 74.6208 0.189155 74.5702 0.109831 74.4184C0.0503378 74.3172 -0.0289864 73.9123 0.0106757 73.7605C0.0305067 73.6087 0.0503378 73.4569 0.0899998 73.3051C0.189155 72.8497 0.248648 72.3942 0.228817 71.8376C0.208986 71.3316 0.208986 70.8255 0.248648 70.3195C0.268479 70.1677 0.268479 69.9652 0.28831 69.8134C0.327972 69.4086 0.506451 69.0544 0.6651 69.105C0.724593 69.105 0.803917 69.1556 0.86341 69.2062C0.922903 69.2568 1.00223 69.2062 1.06172 69.1556C1.18071 69.0038 1.31952 68.9532 1.45834 68.9532C1.65665 68.9532 1.85496 68.9532 2.05327 68.9532C2.05327 69.0038 2.0731 69.105 2.0731 69.1556C2.09293 69.2062 2.11277 69.2062 2.1326 69.2062C2.1326 69.105 2.09293 69.0544 2.03344 69.0038C1.99378 68.7508 1.91445 68.5989 1.8153 68.5483C1.71614 68.4977 1.61699 68.4977 1.51783 68.5483C1.31952 68.5989 1.12121 68.5483 0.942734 68.2953C0.784086 68.0929 0.625438 68.0423 0.466789 67.9917C0.367634 67.9411 0.308141 67.6375 0.347803 67.4351C0.427127 67.0808 0.466789 66.6254 0.625438 66.423C0.704762 66.3218 0.724593 66.17 0.684931 66.0688C0.6651 66.0182 0.625438 66.0182 0.605607 65.9676C0.546113 65.9169 0.48662 65.8663 0.407296 65.8157C0.387465 65.7651 0.327972 65.7145 0.327972 65.6639C0.387465 65.0567 0.248648 64.5 0.268479 63.8928C0.28831 63.6398 0.327972 63.4374 0.427127 63.3362C0.526282 63.2349 0.625438 63.2349 0.704762 63.0831C0.764255 62.9819 0.803917 62.7795 0.744424 62.6783C0.684931 62.4759 0.605607 62.3747 0.526282 62.1723C0.446958 61.9699 0.427127 61.7674 0.466789 61.5144C0.48662 61.4132 0.506451 61.3626 0.506451 61.312C0.585776 60.8566 0.585776 60.7048 0.466789 60.4011C0.427127 60.2999 0.367634 60.1987 0.327972 60.0469C0.248648 59.8445 0.268479 59.5409 0.308141 59.3385C0.407296 58.9842 0.605607 58.9336 0.704762 58.5794C0.784086 58.3264 0.684931 57.9721 0.803917 57.6685C0.922903 57.4155 0.922903 57.3143 0.843579 57.0613C0.784086 56.8589 0.724593 56.6565 0.6651 56.454C0.605607 56.2516 0.645269 55.9986 0.724593 55.7962C0.744424 55.7456 0.784086 55.695 0.803917 55.6444C0.883241 55.442 0.883241 55.3914 0.843579 54.9865C0.823748 54.7335 0.784086 54.4805 0.784086 54.2275C0.784086 53.7214 0.803917 53.2154 0.803917 52.7094C0.803917 52.4057 0.903072 52.2539 0.982396 52.2033C1.16088 52.0515 1.35919 51.8491 1.53767 51.7479C1.59716 51.6973 1.67648 51.7479 1.73598 51.7985C1.91445 51.8491 1.97395 51.7479 1.97395 51.2924C1.97395 51.1912 1.97395 51.1406 1.95412 51.0394C2.01361 51.0394 2.0731 51.0394 2.1326 51.0394C2.15243 51.0394 2.19209 50.9888 2.21192 50.9382C2.23175 50.8876 2.23175 50.837 2.23175 50.7864C2.19209 50.6346 2.1326 50.6346 2.0731 50.7358C2.01361 50.837 1.99378 50.9382 1.97395 51.09C1.8153 51.09 1.63682 51.0394 1.51783 50.6852C1.37902 50.2804 1.20054 50.078 0.982396 50.078C0.922903 50.078 0.843579 50.0274 0.784086 49.9767C0.704762 49.9261 0.605607 49.6225 0.625438 49.4201C0.684931 49.0153 0.684931 48.6104 0.625438 48.2056C0.605607 48.0538 0.625438 47.8514 0.6651 47.7502C0.843579 47.396 1.02206 46.9911 1.20054 46.6369C1.26003 46.5357 1.31952 46.5357 1.39885 46.5357C1.57733 46.5357 1.71614 46.7381 1.87479 46.8393C1.93429 46.8899 2.01361 46.8393 2.0731 46.7887C2.25158 46.5357 2.37057 46.0803 2.54905 45.9284C2.62837 45.8272 2.6482 45.6754 2.58871 45.6248C2.56888 45.5742 2.52922 45.5742 2.48955 45.5742C2.43006 45.5742 2.35074 45.5236 2.29124 45.6248C2.17226 45.726 2.05327 45.9284 1.93429 46.0297C1.77564 46.1815 1.61699 46.1309 1.45834 45.9284C1.43851 45.8778 1.39885 45.8272 1.37902 45.7766C1.31952 45.473 1.26003 45.1694 1.22037 44.8658C1.16088 44.4609 1.06172 44.1573 0.903072 43.9549C0.784086 43.8031 0.764255 43.4489 0.86341 43.0946C0.962565 42.7404 1.06172 42.3862 1.14104 42.032C1.22037 41.7283 1.31952 41.5765 1.45834 41.5259C1.8153 41.4753 2.19209 41.4247 2.54905 41.3235C2.62837 41.3235 2.66803 41.1211 2.66803 40.9693C2.68787 40.7669 2.6482 40.615 2.58871 40.5644C2.52922 40.5138 2.46972 40.4632 2.41023 40.4126C2.25158 40.4126 2.0731 40.4126 1.91445 40.2608C1.8153 40.2102 1.73598 40.0584 1.69631 39.8054C1.65665 39.603 1.67648 39.4512 1.77564 39.4512C2.11277 39.35 2.43006 39.35 2.76719 39.35C2.82668 39.6536 2.92584 39.856 3.06465 39.856C3.2233 39.856 3.38195 39.856 3.5406 39.8054C3.56043 39.8054 3.60009 39.7548 3.61992 39.6536C3.63975 39.5524 3.60009 39.4512 3.52077 39.4006C3.26296 39.2487 3.02499 39.35 2.76719 39.35C2.72753 39.0969 2.6482 38.9451 2.54905 38.8945C2.44989 38.8439 2.35074 38.7933 2.29124 38.5909C2.23175 38.3885 2.23175 38.0343 2.33091 37.9837C2.3904 37.933 2.44989 37.8824 2.52922 37.8824C2.66803 37.8824 2.78702 37.933 2.92584 38.0343C3.04482 38.1355 3.18364 38.2367 3.30263 38.2873C3.56043 38.3379 3.81823 38.4391 4.07604 38.6921C4.19502 38.7933 4.33384 38.8439 4.47266 38.8439C4.80979 38.8439 5.12708 38.7933 5.46421 38.7427C5.50387 38.7427 5.5237 38.7427 5.56336 38.6921C5.68235 38.6415 5.68235 38.4897 5.5832 38.4897C5.38489 38.3885 5.18657 38.3885 4.98826 38.3379C4.88911 38.2873 4.80979 38.1861 4.73046 37.9837C4.67097 37.8318 4.65114 37.68 4.71063 37.5788C4.73046 37.5282 4.77012 37.4776 4.78995 37.4776C4.9486 37.5788 5.10725 37.68 5.2659 37.7306C5.46421 37.7812 5.66252 37.7306 5.86083 37.68C6.11863 37.6294 6.37644 37.3258 6.63424 37.3258C6.87221 37.3258 7.09035 37.2752 7.32833 37.2246C7.42748 37.174 7.50681 37.0222 7.54647 36.7692C7.5663 36.7692 7.60596 36.7186 7.62579 36.7186C7.64562 36.7186 7.64562 36.6173 7.64562 36.5667C7.58613 36.5667 7.5663 36.6173 7.5663 36.8198C7.46714 36.8198 7.36799 36.7692 7.26883 36.7692C7.07052 36.7186 7.05069 36.6174 7.09035 36.1113C7.13002 35.6559 7.13002 35.6053 7.07052 35.4029C6.89204 34.8968 6.71356 34.3908 6.53508 33.8847C6.49542 33.7329 6.45576 33.5811 6.47559 33.4293C6.51525 33.2775 6.57475 33.2269 6.65407 33.2269C6.75323 33.1763 6.85238 33.1763 6.95154 33.1257C7.03086 33.0751 7.11018 32.7715 7.11018 32.569C7.13002 32.1642 7.13002 31.7088 7.07052 31.304C6.9912 30.8485 6.89204 30.3931 6.81272 29.9376C6.75323 29.634 6.75323 29.2798 6.77306 28.9256C6.77306 28.8244 6.79289 28.7738 6.81272 28.6726C6.89204 28.2677 6.89204 27.8629 6.79289 27.4581C6.71356 27.1544 6.71356 26.8002 6.75323 26.4966C6.79289 26.2436 6.85238 26.0412 6.83255 25.7881C6.77306 25.3327 6.87221 24.9785 6.97137 24.6243C7.03086 24.4218 7.03086 24.1688 6.97137 23.9158C6.95154 23.8652 6.95154 23.764 6.9317 23.6628C6.85238 22.8025 6.85238 21.9929 7.09035 21.2338C7.13002 21.082 7.18951 20.9808 7.20934 20.829C7.3085 20.1711 7.32833 19.5133 7.16968 18.906C7.09035 18.6024 6.9912 18.4 6.83255 18.4C6.77306 18.4 6.69373 18.4 6.63424 18.4C6.59458 18.4 6.57475 18.4 6.53508 18.3494C6.49542 18.2988 6.45576 18.2988 6.45576 18.2482C6.43593 18.147 6.47559 18.0458 6.55492 17.9952C6.61441 17.9445 6.69373 17.9952 6.75323 17.9445C6.97137 17.8939 7.05069 17.6409 6.91187 17.1349C6.75323 16.5782 6.77306 16.5276 7.01103 16.3252C7.11018 16.2746 7.18951 16.1734 7.28866 16.0216C7.36799 15.8698 7.42748 15.6168 7.36799 15.3638C7.28866 14.9589 7.249 14.5541 7.26883 14.1493C7.30849 13.6432 7.26883 13.1372 7.22917 12.6312C7.16968 11.9733 7.16968 11.9733 7.28866 11.4673C7.30849 11.4167 7.32833 11.3155 7.34816 11.2648C7.38782 11.113 7.38782 10.9612 7.36799 10.8094C7.249 10.101 7.13002 9.44311 7.01103 8.73466C6.97137 8.43104 6.95154 8.38043 7.14985 8.22862C7.32833 8.07681 7.44731 7.87439 7.48697 7.36836C7.48697 7.26715 7.50681 7.21654 7.50681 7.11534C7.5663 6.91292 7.62579 6.71051 7.72495 6.6599C7.8241 6.6093 7.92326 6.6093 8.02241 6.55869C8.10174 6.50809 8.1414 6.40688 8.12157 6.30568C8.10174 6.25507 8.06207 6.20447 8.04224 6.15387C7.98275 6.10326 7.90343 6.10326 7.84393 6.05266C7.74478 6.00205 7.68528 5.69843 7.70512 5.44541C7.72495 5.2936 7.76461 5.09119 7.74478 4.93937C7.70512 4.68635 7.60596 4.58515 7.54647 4.43334C7.48697 4.28152 7.48697 4.12971 7.48697 3.9779C7.52664 3.52247 7.66545 3.26945 7.8241 3.16824C8.0819 3.01643 8.35954 2.96583 8.61734 2.81401C8.81565 2.71281 8.99413 2.561 9.21227 2.561C9.47008 2.561 9.74771 2.45979 9.98568 2.15617C10.1047 2.00435 10.2435 2.00435 10.3823 2.00435C10.5806 1.95375 10.7789 1.95375 10.9772 1.80194C11.1954 1.59952 11.4333 1.54892 11.6713 1.49832C12.0679 1.39711 12.4646 1.39711 12.8612 1.09349C12.9802 0.992278 13.119 0.992278 13.2578 0.992278C13.6941 0.941674 14.1304 0.941674 14.5468 0.638051C14.6063 0.587448 14.6856 0.638051 14.7451 0.688655C14.8443 0.739259 14.9434 0.739259 15.0426 0.638051C15.2607 0.435636 15.4987 0.385032 15.7367 0.385032C16.2721 0.334429 16.8076 0.334429 17.343 0.334429C17.9181 0.334429 18.4734 0.283825 19.0485 0.283825C19.8219 0.283825 20.5755 0.283825 21.3489 0.233221C21.8446 0.182617 22.3404 0.233221 22.856 0.182617C23.0345 0.182617 23.1932 0.283825 23.332 0.48624C23.3915 0.587448 23.451 0.536844 23.5303 0.48624C23.6493 0.334429 23.7881 0.283825 23.9269 0.283825C24.502 0.283825 25.0573 0.283825 25.6324 0.283825C25.672 0.283825 25.7117 0.283825 25.7315 0.283825C25.91 0.48624 26.1083 0.48624 26.3066 0.435636C26.6041 0.789863 26.8817 0.688655 27.1792 0.385032C27.3378 0.233221 27.4965 0.182617 27.675 0.182617C27.9129 0.233221 28.1509 0.182617 28.3691 0.385032C28.4285 0.435636 28.5079 0.385032 28.5674 0.334429C28.7458 0.182617 28.8648 0.334429 28.9838 0.739259C29.1028 1.14409 29.2416 1.19469 29.4201 0.941674C29.5986 0.688655 29.7771 0.587448 29.9952 0.587448C30.2927 0.587448 30.5901 0.536844 30.8876 0.587448C31.0462 0.638051 31.2247 0.587448 31.3834 0.48624C31.542 0.334429 31.7007 0.435636 31.8791 0.48624C32.3551 0.638051 33.2871 0.688655 33.8821 0.638051C34.12 0.587448 34.3382 0.587448 34.5762 0.587448C34.6753 0.587448 34.7745 0.638051 34.8538 0.789863C35.0125 0.992278 35.1711 1.04288 35.3297 0.840466C35.4091 0.739259 35.5082 0.638051 35.6074 0.638051C35.8652 0.688655 36.1428 0.638051 36.4006 0.89107C36.6783 1.14409 36.9955 1.09349 37.293 1.09349C37.3525 1.09349 37.4318 1.04288 37.4913 0.992278C37.65 0.840466 37.8086 0.739259 37.9673 0.739259C38.2251 0.739259 38.5027 0.688655 38.7605 0.638051C38.9588 0.638051 39.1571 0.688655 39.3554 0.89107C39.4546 0.992278 39.5538 1.04288 39.6529 1.04288C39.99 1.04288 40.3272 1.09349 40.6445 0.789863C40.7635 0.688655 40.9023 0.638051 41.0411 0.638051C41.2394 0.638051 41.4377 0.688655 41.636 0.89107C41.755 1.04288 41.874 1.14409 42.0128 1.2959C42.0723 1.3465 42.1318 1.3465 42.2111 1.2959C42.5284 1.04288 42.8655 1.09349 43.2027 1.09349C43.3018 1.09349 43.3217 1.2453 43.3018 1.44771C43.282 1.65013 43.282 1.80194 43.3415 1.90315C43.401 2.00435 43.4605 2.05496 43.5398 2.00435C43.6389 1.95375 43.7381 1.90315 43.8373 1.85254C43.8967 1.80194 43.9562 1.80194 44.0356 1.85254C44.1347 1.95375 44.2339 1.95375 44.333 2.00435C44.4718 2.05496 44.6107 2.05496 44.7297 1.90315C45.1064 1.44771 45.5031 1.49832 45.8997 1.44771C45.9988 1.44771 46.098 1.54892 46.1773 1.70073C46.3161 1.95375 46.3955 2.30798 46.4946 2.6622C46.5343 2.81401 46.6136 2.86462 46.6731 2.86462C46.7326 2.86462 46.8119 2.91522 46.8714 2.86462C47.0895 2.6116 47.3474 2.91522 47.5457 2.6116C47.744 2.51039 47.9423 2.35858 48.1208 2.20677C48.2199 2.10556 48.3191 2.15617 48.4182 2.25737C48.4777 2.30798 48.5372 2.40918 48.6165 2.40918C49.152 2.45979 49.6874 2.561 50.2229 2.40918C50.322 2.35858 50.4013 2.20677 50.4608 2.00435L50.441 2.05496C50.5401 2.10556 50.6393 2.05496 50.7385 2.15617C50.8773 2.30798 50.9764 2.35858 51.0954 2.10556C51.1351 2.00435 51.1946 1.90315 51.2541 1.80194C51.3136 1.70073 51.3731 1.65013 51.4325 1.59952C51.73 1.49832 52.0275 1.44771 52.3249 1.39711C52.5629 1.39711 52.7811 1.44771 53.019 1.54892C53.1578 1.59952 53.138 1.90315 53.138 2.10556C53.138 2.15617 53.1578 2.25737 53.1777 2.30798C53.2768 2.45979 53.7924 2.81401 53.9312 2.86462C54.0899 2.91522 54.2684 2.91522 54.427 2.96583C54.5658 2.96583 54.6848 3.06703 54.8038 3.26945C54.9228 3.42126 55.0418 3.57307 55.1608 3.67428C55.2203 3.72488 55.2996 3.77549 55.3591 3.77549C55.6566 3.67428 55.954 4.02851 56.2515 3.9273C56.4101 3.87669 56.5886 3.9273 56.7473 3.9779C57.1042 4.07911 57.481 4.07911 57.838 4.02851C58.0759 3.9779 58.2941 4.12971 58.5122 4.33213C58.6709 4.48394 58.8295 4.43334 59.008 4.38273C59.0675 4.33213 59.1468 4.33213 59.2063 4.23092C59.365 4.07911 59.5236 4.02851 59.7021 3.9779C59.9401 3.9779 60.1582 3.9273 60.3962 3.9273C60.5746 3.9273 60.7333 4.02851 60.8721 4.23092C61.0109 4.38273 61.1299 4.38273 61.2489 4.18032C61.4274 3.9273 61.586 3.67428 61.6852 3.16824C61.7843 2.6622 61.9826 2.51039 62.181 2.45979C62.3793 2.40918 62.5776 2.45979 62.7759 2.45979C62.875 2.45979 62.9742 2.45979 63.0734 2.561C63.5295 2.91522 63.9856 2.91522 64.4615 2.96583C64.6995 2.96583 64.9176 3.01643 65.1556 3.26945C65.2548 3.37066 65.3539 3.37066 65.4531 3.37066C66.1273 3.37066 66.7818 3.42126 67.456 3.42126C67.694 3.42126 67.9121 3.52247 68.1303 3.72488C68.2493 3.87669 68.3881 3.87669 68.5269 3.9273C68.6657 3.9273 68.7847 3.9273 68.9235 3.9273C69.221 3.9273 69.5184 3.9273 69.8159 3.9779C69.9547 3.9779 70.0737 4.02851 70.2125 4.12971C70.4108 4.28152 70.6091 4.33213 70.8075 4.33213C71.2041 4.33213 71.6007 4.38273 71.9973 4.38273C72.2353 4.38273 72.4534 4.43334 72.6914 4.68635C72.8501 4.83817 73.0087 4.83817 73.1872 4.83817C73.7226 4.88877 74.2581 4.88877 74.7935 4.93937C74.9323 4.93937 75.0711 4.93937 75.1901 5.04058C75.4876 5.2936 75.785 5.3442 76.0825 5.3442C76.4395 5.3442 76.8163 5.3442 77.1732 5.39481C77.312 5.39481 77.4509 5.39481 77.5698 5.49602C77.8276 5.69843 78.0854 5.74903 78.3631 5.74903C78.6011 5.74903 78.8192 5.79964 79.0572 5.79964C79.1563 5.79964 79.2555 5.79964 79.3546 5.90085C79.7116 6.30568 80.0686 6.20447 80.4453 6.25507C80.5842 6.25507 80.7031 6.25507 80.842 6.25507C81.0204 6.25507 81.1791 6.35628 81.3179 6.55869C81.4765 6.76111 81.6352 6.86232 81.7938 6.81171C82.3689 6.6599 82.9242 6.76111 83.4795 6.81171C83.6183 6.81171 83.7373 6.86232 83.8761 7.01413C84.0348 7.16594 84.1934 7.21654 84.3719 7.21654C84.6297 7.21654 84.9073 7.26715 85.1651 7.26715C85.4229 7.31775 85.7006 7.31775 85.9584 7.52017C86.0774 7.62138 86.2162 7.62138 86.355 7.67198C86.593 7.72258 86.8111 7.72258 87.0491 7.77319C87.1482 7.77319 87.2474 7.77319 87.3465 7.87439C87.6638 8.22862 88.001 8.22862 88.3183 8.22862C88.6554 8.22862 88.9727 8.38043 89.3098 8.58285C89.7064 8.78526 90.1031 8.73466 90.4997 8.83587C90.5195 8.83587 90.5592 8.88647 90.5592 8.93707C90.5592 9.03828 90.5393 9.13949 90.5195 9.19009C90.46 9.2913 90.4005 9.3419 90.3609 9.44311C90.3014 9.54432 90.2617 9.69613 90.222 9.79734C90.2022 9.84794 90.1824 9.94915 90.2022 9.99975C90.222 10.0504 90.2617 10.1516 90.2815 10.1516C90.4402 10.2022 90.6187 10.2022 90.7773 10.3034C91.1343 10.4552 91.1739 10.4552 91.4119 10.101C91.4317 10.0504 91.4516 9.99975 91.4714 9.89855C91.4912 9.84794 91.4912 9.74673 91.5111 9.64553L91.4912 9.69613C91.5904 9.74674 91.6499 9.94915 91.6697 10.2022C91.5309 10.0504 91.5309 10.2022 91.5507 10.354ZM9.88653 7.9756C9.94602 7.9756 10.0055 7.9756 10.065 7.9756C10.0848 7.9756 10.1245 7.925 10.1443 7.87439C10.1642 7.82379 10.1642 7.77319 10.1642 7.72258C10.1245 7.62137 10.065 7.57077 10.0055 7.67198C9.94602 7.67198 9.90636 7.82379 9.88653 7.9756C9.8667 8.02621 9.84687 8.02621 9.80721 8.07681C9.78737 8.07681 9.78737 8.17802 9.78737 8.22862C9.84687 8.27922 9.88653 8.17802 9.88653 7.9756ZM8.89498 6.96353C9.25194 7.01413 9.62873 6.96353 9.96585 6.6093C10.0253 6.5587 10.0848 6.50809 10.1642 6.50809C10.4616 6.40688 10.7591 6.35628 11.0566 6.50809C11.0962 6.50809 11.1359 6.5587 11.1557 6.6093C11.1755 6.71051 11.1557 6.86232 11.0962 6.96353C11.0367 7.06473 11.0169 7.21654 11.0566 7.31775C11.0764 7.36836 11.1161 7.41896 11.1359 7.41896C11.3342 7.46956 11.5325 7.41896 11.711 7.11534C11.8696 6.81171 12.0283 6.45749 12.2068 6.30568C12.2464 6.25507 12.2663 6.20447 12.2861 6.15387C12.3654 6.00205 12.4051 5.74903 12.4646 5.54662C12.5042 5.39481 12.4051 4.98998 12.3456 4.93937C12.1076 4.83817 11.8895 4.88877 11.6515 5.04058C11.4928 5.14179 11.3342 5.3442 11.1755 5.3442C10.9772 5.39481 10.7789 5.39481 10.5806 5.49602C10.3823 5.59722 10.2038 5.79964 10.0055 5.90085C9.66839 6.00205 9.37092 6.35628 9.05363 6.6093C8.95447 6.6599 8.91481 6.81171 8.89498 6.96353C8.7165 6.96353 8.51819 6.96353 8.31988 7.06473C8.28022 7.06473 8.26038 7.16594 8.24055 7.21654C8.26038 7.26715 8.28022 7.31775 8.30005 7.36836C8.41903 7.46956 8.55785 7.52017 8.69667 7.41896C8.77599 7.31775 8.85532 7.21654 8.89498 6.96353ZM48.4777 84.5391C48.5967 84.3873 48.7157 84.2355 48.8347 84.0837C48.8942 84.0331 48.9735 84.0331 49.033 83.9825C49.0727 83.9825 49.0925 83.9825 49.1321 84.0331C49.2115 84.0837 49.2313 84.2355 49.2115 84.4379C49.1916 84.7416 49.2511 84.8934 49.3701 84.8934C49.5684 84.8934 49.7667 84.8934 49.965 84.8934C50.0642 84.8934 50.1634 84.8428 50.2427 84.691C50.4608 84.3367 50.679 84.4379 50.9169 84.5391C51.2739 84.944 51.6309 84.8934 51.9878 84.7416C52.0275 84.7416 52.0473 84.691 52.087 84.691C52.1465 84.6404 52.206 84.6909 52.2853 84.7416C52.3844 84.8428 52.4836 84.8934 52.5827 84.8934C52.7216 84.944 52.8207 85.1464 52.9 85.45C52.9595 85.703 53.0389 85.8042 53.138 85.8042C53.1777 85.8042 53.1975 85.8042 53.2372 85.8042C53.4751 85.8042 53.7131 85.8042 53.9312 85.8042C54.2287 85.7536 54.5064 85.3488 54.8038 85.3488C54.8633 85.3488 54.9228 85.2476 54.9823 85.197C55.022 85.1464 55.0418 85.0958 55.0616 85.0958C55.1409 84.9946 55.2401 84.8428 55.3393 84.8428C55.6764 84.8428 56.0135 84.8428 56.3308 84.8934C56.43 84.8934 56.5291 84.9946 56.5886 85.197C56.7076 85.5512 56.8464 85.703 57.0249 85.7536C57.6198 85.9054 58.2148 85.8042 58.8295 85.7536C58.9287 85.7536 59.008 85.6018 59.0675 85.3488C59.1072 85.1464 59.1865 84.944 59.2658 84.7922C59.3451 84.691 59.3451 84.5391 59.3253 84.4379C59.3055 84.3873 59.2658 84.3367 59.246 84.3367C59.008 84.2355 58.7899 84.2355 58.5519 84.0331C58.4924 83.9825 58.4131 83.9825 58.3536 84.0331C58.2148 84.1343 58.0958 84.1343 57.957 83.9825C57.7388 83.7801 57.5207 83.5777 57.3025 83.4259C57.1835 83.3247 57.0447 83.3753 56.9257 83.5271C56.7869 83.7295 56.6283 83.8813 56.4498 83.8813C56.2911 83.8813 56.1127 83.8813 55.954 83.8813C55.7755 83.8813 55.6169 83.7801 55.4781 83.5271C55.3591 83.3247 55.2401 83.274 55.1013 83.274C54.6055 83.274 54.1097 83.1728 53.614 83.4259C53.376 83.4259 53.138 83.3753 52.9199 83.4259C51.9878 83.4765 51.0558 83.4259 50.1237 83.4259C49.4891 83.4259 48.8545 83.4258 48.2199 83.4765C48.1803 83.4765 48.1604 83.4765 48.1208 83.5271C48.0811 83.5271 48.0613 83.5777 48.0216 83.6283C47.9224 83.6789 47.8828 83.9825 47.9423 84.2355C48.0811 84.9946 48.2992 85.0958 48.4777 84.5391ZM77.5302 9.03828C77.788 8.68406 78.0854 8.43104 78.3631 8.22862C78.4226 8.17802 78.4821 8.22862 78.5614 8.27922C78.6605 8.32983 78.7597 8.38043 78.8589 8.43104C79.0175 8.43104 79.196 8.43104 79.3546 8.43104C79.4935 8.43104 79.6124 8.48164 79.7314 8.68406C79.8901 8.88647 80.0487 8.93707 80.2074 8.88647C80.4057 8.83587 80.5842 8.63345 80.8023 8.73466C80.8618 8.78526 80.9213 8.68406 80.9808 8.58285C81.1394 8.38043 81.2981 8.38043 81.4567 8.58285C81.536 8.68406 81.6352 8.78526 81.7344 8.88647C81.8335 8.98768 81.9128 8.93707 82.012 8.73466C82.1111 8.48164 82.0913 8.22862 81.9922 8.12741C81.5955 7.72258 81.1791 7.41896 80.723 7.52017C80.6635 7.52017 80.5842 7.52017 80.5247 7.52017C80.2867 7.52017 80.0686 7.41896 79.8504 7.16594C79.7711 7.06473 79.6521 7.01413 79.5529 7.01413C79.4141 6.96353 79.2951 6.96353 79.1563 7.01413C78.4622 7.16594 77.7483 7.01413 77.0542 7.01413C76.9551 7.01413 76.8559 6.91292 76.7568 6.81171C76.6378 6.71051 76.499 6.6093 76.3998 6.40688C76.2015 6.05266 75.9635 6.00205 75.7454 5.79964C75.6859 5.74903 75.6066 5.69843 75.5471 5.79964C75.3884 6.00205 75.2298 6.10326 75.0711 6.10326C74.7737 6.10326 74.4762 6.10326 74.1787 6.35628C74.1192 6.40688 74.0399 6.35628 73.9804 6.30568C73.8813 6.25507 73.7821 6.10326 73.7028 6.10326C73.5045 6.05266 73.326 5.74903 73.1674 5.44541C73.0682 5.19239 72.9294 5.14179 72.7906 5.14179C72.4931 5.14179 72.1956 5.14179 71.8982 5.14179C71.6404 5.14179 71.3627 5.19239 71.1248 5.49602C71.0653 5.54662 70.9859 5.54662 70.9264 5.54662C70.8273 5.54662 70.7083 5.54662 70.629 5.44541C70.391 5.14179 70.1134 5.14179 69.8754 4.83817C69.7564 4.68635 69.6176 4.63575 69.4788 4.63575C69.2805 4.63575 69.0822 4.63575 68.8839 4.63575C68.6459 4.63575 68.4277 4.48394 68.2096 4.28152C68.1104 4.18032 67.9915 4.28152 67.932 4.48394C67.8526 4.73696 67.7535 4.98998 67.6543 5.19239C67.5552 5.3442 67.575 5.54662 67.6742 5.79964C67.7535 6.00205 67.7931 6.00205 67.9518 5.90085C68.0509 5.79964 68.1501 5.79964 68.2493 5.90085C68.4079 6.05266 68.5467 6.20447 68.7054 6.40688C68.7649 6.45749 68.8442 6.45749 68.9037 6.35628C69.1218 6.10326 69.3598 6.05266 69.5978 6.05266C69.9944 6.10326 70.391 6.05266 70.7876 6.40688C70.8471 6.35628 70.9264 6.35628 70.9661 6.30568C71.0653 6.20447 71.1644 6.20447 71.2437 6.30568C71.3032 6.40688 71.3627 6.50809 71.4024 6.6093C71.561 6.96353 71.7395 7.16594 71.9577 7.11534C72.4534 7.01413 72.9492 7.21654 73.445 7.06473C73.5045 7.06473 73.5838 7.11534 73.6433 7.11534C73.7821 7.16594 73.8614 7.41896 73.9011 7.82379C73.9209 8.17802 73.8019 8.53224 73.683 8.43104C73.4648 8.22862 73.2268 8.17802 72.9889 8.17802C72.4931 8.22862 71.9973 8.22862 71.5015 7.87439C71.442 7.82379 71.3826 7.87439 71.3032 7.925C71.2437 7.9756 71.1842 8.02621 71.1049 8.02621C70.6092 8.07681 70.1134 8.07681 69.5978 8.07681C69.5383 8.07681 69.4589 8.02621 69.3995 7.9756C69.2408 7.77319 69.0822 7.72258 68.9235 7.72258C68.5269 7.72258 68.1303 7.72258 67.7138 7.72258C67.5155 7.72258 67.3172 7.67198 67.1189 7.46956C66.8611 7.21654 66.6033 7.11534 66.3256 7.16594C66.1273 7.16594 65.929 7.16594 65.7307 7.16594C65.5522 7.16594 65.3936 7.06473 65.2548 6.86232C65.1358 6.71051 64.997 6.71051 64.8581 6.81171C64.7392 6.91292 64.6202 7.06473 64.5012 7.21654C64.4417 7.31775 64.402 7.46956 64.4219 7.57077C64.4417 7.62137 64.4814 7.67198 64.5012 7.67198C64.8581 7.72258 65.2349 7.72258 65.5919 7.77319C65.7307 7.77319 65.8497 7.82379 65.9885 7.925C66.1868 8.07681 66.3851 8.12741 66.5835 8.12741C66.9801 8.12741 67.3767 8.12741 67.7733 8.17802C67.9121 8.17802 68.0509 8.22862 68.1699 8.32983C68.3881 8.53224 68.626 8.58285 68.864 8.58285C69.3995 8.53224 69.9349 8.68406 70.4703 8.68406C70.6092 8.68406 70.7281 8.73466 70.867 8.83587C71.1248 9.03828 71.3826 9.13949 71.6602 9.13949C72.0568 9.08889 72.4534 9.13949 72.8501 9.44311C72.969 9.54432 73.1079 9.49372 73.2467 9.54432C73.7226 9.59492 74.1787 9.64553 74.6547 9.69613C74.7935 9.69613 74.9125 9.74673 75.0513 9.84794C75.3091 10.0504 75.5669 10.101 75.8445 10.101C76.3205 10.101 76.7766 10.1516 77.2525 10.1516C77.4112 10.1516 77.5897 10.2528 77.7483 10.4046C77.8673 10.5564 78.0061 10.5564 78.1449 10.5564C78.4424 10.5564 78.7399 10.607 79.0373 10.607C79.1762 10.607 79.315 10.607 79.434 10.7588C79.6918 11.0118 79.9496 11.0624 80.2272 11.0624C80.5842 11.0624 80.9609 11.0624 81.3179 11.113C81.4171 11.113 81.5162 11.113 81.6154 11.2142C81.8732 11.4673 82.131 11.5179 82.4086 11.5179C83.1027 11.5685 83.8166 11.5685 84.5107 11.4673C84.5702 11.4673 84.6495 11.4167 84.709 11.4167C84.7487 11.4167 84.7685 11.3661 84.7883 11.3155C84.828 11.2142 84.7883 11.113 84.6892 11.0624C84.3917 10.9106 84.0943 11.0118 83.8166 10.6576C83.6976 10.5058 83.5588 10.5564 83.42 10.5564C83.1225 10.5564 82.8251 10.5564 82.5276 10.5564C82.3689 10.5564 82.1905 10.5058 82.0318 10.354C81.774 10.0504 81.5162 9.99975 81.2584 9.99975C80.961 9.99975 80.6635 9.99975 80.366 9.99975C80.128 9.99975 79.9099 9.89855 79.6719 9.69613C79.5529 9.59492 79.4141 9.54432 79.2753 9.54432C79.077 9.54432 78.8787 9.54432 78.6804 9.54432C78.3829 9.59492 78.0854 9.54432 77.788 9.49372C77.6888 9.49372 77.6095 9.2913 77.5698 9.03828H77.5302ZM45.3444 83.0716C44.809 83.1222 44.4124 83.1222 44.0157 83.1222C43.9761 83.1222 43.9562 83.1222 43.9166 83.1222C43.8571 83.1728 43.7778 83.1728 43.7183 83.274C43.5398 83.5271 43.3415 83.5271 43.1432 83.5777C43.0837 83.5777 43.0242 83.6789 42.9647 83.7295C42.8854 83.7801 42.7664 84.2355 42.806 84.3367C42.8457 84.4885 42.925 84.4885 42.9845 84.5391C43.1432 84.5897 43.3217 84.5897 43.4803 84.3873C43.52 84.3367 43.5398 84.2861 43.5596 84.2861C43.7183 84.1343 43.7778 84.2355 43.7778 84.691C43.7778 84.8934 43.7976 84.9946 43.8967 85.0452C44.0951 85.1464 44.2934 84.9946 44.4917 84.9946C44.7297 84.9946 44.9478 85.0452 45.1858 85.0452C45.2453 85.0452 45.3048 84.944 45.3642 84.8428C45.4634 84.7416 45.5031 84.4885 45.5824 84.3367C45.6617 84.1343 45.7609 84.0837 45.86 84.1343C45.9195 84.1343 45.9988 84.1849 46.0583 84.2355C46.455 84.6404 46.8317 84.6403 47.2085 84.1343C47.2879 84.0331 47.4068 84.0331 47.506 83.9825C47.5853 83.9319 47.625 83.8307 47.5853 83.7295C47.5655 83.6789 47.5258 83.6283 47.506 83.6283C47.268 83.5777 47.0499 83.5271 46.8317 83.274C46.7128 83.1222 46.5739 83.0716 46.4351 83.1222C45.9988 83.0716 45.6022 83.1222 45.3444 83.0716ZM80.9808 30.3931C80.8816 30.4437 80.7626 30.4437 80.6238 30.5449C80.5842 30.5449 80.5643 30.6461 80.5445 30.6461C80.4652 30.7473 80.4453 30.8485 80.4453 31.0509C80.4652 31.2027 80.5048 31.4052 80.5643 31.4052C80.8221 31.5064 81.0799 31.7594 81.3179 32.1136C81.3377 32.1642 81.3774 32.2148 81.3972 32.2148C81.5559 32.3666 81.7145 32.4678 81.893 32.2654C82.1111 32.063 82.3293 31.8606 82.5673 31.8606C82.9044 31.8606 83.2415 31.9112 83.5588 32.1642C83.9753 32.5184 84.4116 32.5184 84.8478 32.316C84.947 32.2654 85.0263 32.1136 85.0858 31.9112C85.1255 31.7594 85.1453 31.6076 85.1056 31.4558C85.066 31.304 85.0263 31.2027 84.947 31.1521C84.9073 31.1521 84.8875 31.1015 84.8478 31.1015C84.4512 31.4052 84.0546 31.4052 83.6778 31.0509C83.5191 30.8991 83.3407 30.9497 83.182 30.7979C82.9837 30.5955 82.8052 30.6461 82.6069 30.8485C82.4483 31.0003 82.2698 31.0003 82.1111 30.8991C81.9723 30.7979 81.8533 30.6967 81.7344 30.5955C81.4964 30.4437 81.2584 30.3931 80.9808 30.3931ZM72.2353 12.9348C72.4336 12.6818 72.5923 12.2769 72.8104 12.0239C72.8302 11.9733 72.8699 11.9227 72.8699 11.8215C72.8897 11.7709 72.8897 11.6697 72.8699 11.5685C72.8302 11.3155 72.7311 11.2142 72.6319 11.2142C72.4733 11.2142 72.3146 11.4167 72.1758 11.5685C71.9973 11.8215 71.9378 12.2769 72.1361 12.7324C72.1758 12.8842 72.1956 12.8842 72.2353 12.9348ZM84.0744 16.5782C84.0744 16.3758 84.0348 16.2746 83.9554 16.224C83.658 16.0722 83.3803 16.1734 83.0829 16.1228C82.8647 16.0722 82.6268 16.1228 82.4086 16.1734C82.3293 16.1734 82.2896 16.3252 82.3095 16.3758C82.3293 16.4264 82.3689 16.477 82.3888 16.477C82.6466 16.5276 82.9044 16.5782 83.1622 16.5276C83.4002 16.477 83.6183 16.6289 83.8364 16.8313C83.8563 16.8819 83.8959 16.8313 83.9356 16.8313C84.0149 16.8819 84.0546 16.7301 84.0744 16.5782ZM73.3062 14.7059C73.4252 14.7059 73.5838 14.7059 73.7425 14.7059C73.7623 14.7059 73.8218 14.6553 73.8218 14.6047C73.8416 14.4529 73.8019 14.3011 73.7425 14.2505C73.6036 14.0481 73.445 13.8962 73.2863 14.0481C73.1079 14.2505 72.8897 14.1493 72.7311 14.4023C72.7112 14.4529 72.7112 14.5035 72.6914 14.5541C72.7112 14.6047 72.7509 14.6553 72.7707 14.6553C72.9294 14.6553 73.1079 14.6553 73.3062 14.7059ZM10.1642 80.6933C10.1642 80.592 10.1443 80.5414 10.1443 80.4402C10.1047 80.2378 10.065 79.9848 10.0055 79.7824C9.96585 79.6306 9.88653 79.58 9.82704 79.6812C9.76754 79.7318 9.72788 79.8836 9.70805 80.0354C9.68822 80.2884 9.68822 80.5414 9.74771 80.7439C9.82704 80.9969 9.94602 81.0475 10.1047 80.8451C10.1245 80.7945 10.1443 80.7439 10.1642 80.6933ZM85.8195 13.542C85.7601 13.542 85.6807 13.542 85.6212 13.5926C85.5816 13.5926 85.5617 13.6432 85.5419 13.6938C85.5221 13.7444 85.5023 13.795 85.5023 13.8456C85.5221 13.8962 85.5617 13.9975 85.5816 13.9975C85.7997 14.0481 86.0179 14.1999 86.2558 14.2505C86.2757 14.2505 86.3153 14.1493 86.3153 14.0987C86.3153 14.0481 86.3153 13.8962 86.2955 13.8456C86.1567 13.4914 85.9782 13.5926 85.8195 13.542ZM9.39075 23.3086C9.33126 23.3086 9.25194 23.4098 9.23211 23.5616C9.23211 23.6122 9.25194 23.7134 9.27177 23.8146C9.35109 24.1182 9.47008 24.27 9.60889 24.27C9.68822 24.27 9.74771 24.2194 9.78737 24.1182C9.82704 24.017 9.80721 23.8652 9.74771 23.7134C9.64856 23.4098 9.52957 23.3086 9.39075 23.3086ZM95.279 59.8951C95.16 59.8951 95.0211 59.9457 94.9022 59.9457C94.8823 59.9457 94.8427 59.9963 94.8228 60.0469C94.803 60.0975 94.8427 60.2493 94.922 60.2493C95.1401 60.2999 95.3583 60.2999 95.5962 60.2999C95.6161 60.2999 95.6557 60.2493 95.6756 60.1987C95.6954 60.1481 95.7152 60.0975 95.7351 60.0469C95.7152 59.9963 95.6954 59.9457 95.6557 59.8951C95.5368 59.8445 95.3979 59.8445 95.279 59.8951ZM15.4987 2.6622C15.5384 2.6622 15.6177 2.6622 15.6772 2.6116C15.7763 2.6116 15.7962 2.51039 15.7763 2.30798C15.7565 2.15617 15.697 2.05496 15.6375 2.00435C15.5384 1.95375 15.4591 2.10556 15.3599 2.20677C15.3004 2.25737 15.2409 2.35858 15.2211 2.51039C15.2607 2.6116 15.3202 2.6622 15.3996 2.6622C15.3996 2.71281 15.4392 2.71281 15.4987 2.6622ZM22.3801 4.18032C22.5189 4.12971 22.5784 4.12971 22.6577 4.12971C22.6974 4.12971 22.737 4.07911 22.737 4.02851C22.7569 3.9273 22.6974 3.82609 22.6181 3.82609C22.4396 3.82609 22.2413 3.67428 22.0628 3.87669C22.043 3.87669 22.0231 3.9779 22.0231 4.02851C22.043 4.07911 22.0628 4.18032 22.1024 4.18032C22.2214 4.18032 22.3404 4.18032 22.3801 4.18032ZM84.0744 13.542C84.0149 13.4914 83.9554 13.3902 83.8959 13.3396C83.8761 13.289 83.8364 13.289 83.8166 13.289C83.7571 13.289 83.6976 13.3902 83.658 13.542C83.6183 13.7444 83.6381 13.8456 83.7175 13.8962C83.8364 13.8962 83.9753 13.8962 84.0942 13.8962C84.1339 13.8962 84.1736 13.8456 84.1736 13.8456C84.1934 13.6938 84.1537 13.5926 84.0744 13.542ZM79.8702 15.718C79.7116 15.718 79.6521 15.718 79.5926 15.718C79.5728 15.718 79.5331 15.7686 79.5133 15.8192C79.4935 15.9204 79.5331 15.971 79.6124 16.0216C79.7711 16.0216 79.9297 16.0216 80.0884 16.0216C80.1082 16.0216 80.1479 15.971 80.1677 15.9204C80.1875 15.8698 80.1479 15.7686 80.0487 15.718C79.9694 15.718 79.8702 15.718 79.8702 15.718ZM101.863 44.9164C101.784 44.9164 101.843 44.9164 101.903 44.9164C101.982 44.9164 102.041 44.8658 102.061 44.714C102.081 44.6128 102.021 44.4609 101.942 44.4609C101.784 44.4609 101.625 44.4609 101.466 44.5115C101.387 44.5115 101.327 44.6634 101.347 44.714C101.387 44.8658 101.446 44.8658 101.526 44.8658C101.585 44.8658 101.665 44.8658 101.863 44.9164ZM38.6415 83.8307C38.582 83.8813 38.5424 84.0331 38.5424 84.1849C38.5424 84.3367 38.582 84.4885 38.6614 84.5391C38.7209 84.5897 38.7803 84.5897 38.8597 84.5391C38.939 84.5391 38.9787 84.4379 38.9588 84.2355C38.9588 84.1849 38.939 84.0837 38.9192 84.0331C38.8398 83.8307 38.7605 83.7801 38.6415 83.8307ZM73.5441 30.4943C73.6036 30.4943 73.6631 30.4943 73.7226 30.4437C73.8019 30.3931 73.8416 30.3425 73.8218 30.1907C73.8019 30.1401 73.7821 30.0389 73.7623 30.0389C73.683 29.9376 73.6036 29.8364 73.5045 29.7352C73.445 29.6846 73.3855 29.7352 73.326 29.8364C73.2863 29.9377 73.2467 30.0895 73.2665 30.2413C73.326 30.2919 73.3855 30.3425 73.445 30.3931C73.4847 30.4943 73.5243 30.4943 73.5441 30.4943ZM100.594 44.8658C100.653 44.8658 100.732 44.8658 100.792 44.8152C100.832 44.8152 100.851 44.7646 100.871 44.714C100.851 44.6128 100.792 44.5621 100.732 44.5621C100.673 44.5621 100.594 44.5621 100.534 44.5621C100.475 44.5621 100.395 44.5621 100.356 44.6633C100.316 44.7646 100.435 44.8658 100.594 44.8658ZM1.69631 77.5052C1.8153 77.5052 1.95412 77.3534 1.91445 77.2522C1.87479 77.1004 1.8153 77.0498 1.75581 77.0498C1.69631 77.0498 1.63682 77.0498 1.57733 77.0498C1.51783 77.0498 1.43851 77.0498 1.39885 77.2016C1.37902 77.2522 1.43851 77.404 1.51783 77.404C1.5575 77.5052 1.61699 77.5052 1.69631 77.5052ZM8.43886 79.4788C8.53802 79.4788 8.63717 79.4788 8.7165 79.2764C8.63717 79.0739 8.53802 79.0739 8.43886 79.0233C8.3992 79.0233 8.37937 79.0233 8.33971 79.0233C8.26039 79.0233 8.20089 79.0739 8.16123 79.2257C8.20089 79.3776 8.26038 79.4282 8.31988 79.4282C8.37937 79.4282 8.3992 79.4282 8.43886 79.4788ZM41.5765 83.5777C41.6162 83.7801 41.6558 83.9825 41.6955 84.1849C41.7153 84.2355 41.755 84.2861 41.7748 84.2861C41.7947 84.2861 41.8343 84.1849 41.8343 84.1343C41.874 83.8307 41.8542 83.4765 41.755 83.274C41.6955 83.1728 41.636 83.2234 41.5765 83.3247C41.5765 83.3753 41.5964 83.4765 41.5765 83.5777ZM59.5038 6.71051C59.5038 6.71051 59.5633 6.71051 59.6228 6.71051C59.6624 6.71051 59.6822 6.71051 59.7021 6.6599C59.7219 6.6093 59.7616 6.55869 59.7814 6.55869C59.7616 6.50809 59.7417 6.40688 59.7021 6.40688C59.6029 6.35628 59.5236 6.35628 59.4244 6.35628C59.2856 6.35628 59.1865 6.50809 59.246 6.6093C59.3253 6.6599 59.365 6.71051 59.5038 6.71051ZM82.6862 13.036C82.5474 13.0866 82.4483 13.0866 82.3491 13.1372C82.3293 13.1372 82.2896 13.1878 82.2698 13.2384C82.2896 13.289 82.3095 13.3396 82.3095 13.3396C82.4086 13.3902 82.4879 13.4408 82.5871 13.4408C82.6862 13.4914 82.8251 13.289 82.7854 13.1878C82.7656 13.0866 82.7061 13.036 82.6862 13.036ZM3.44144 46.0297C3.42161 45.9791 3.38195 45.9284 3.36212 45.9284C3.26296 45.8778 3.16381 45.8778 3.10432 46.0803C3.10432 46.0803 3.14398 46.2321 3.16381 46.2321C3.26296 46.3333 3.34229 46.3333 3.44144 46.1815C3.44144 46.1815 3.44144 46.0803 3.44144 46.0297ZM81.9128 12.9854C81.893 12.9348 81.893 12.8336 81.8732 12.783C81.8137 12.5805 81.6352 12.6312 81.6352 12.783C81.6352 12.9348 81.6749 13.0866 81.7145 13.1878C81.774 13.289 81.8335 13.3396 81.8732 13.1878C81.893 13.1372 81.893 13.0866 81.9128 12.9854ZM20.3771 3.9273C20.3573 3.87669 20.3375 3.77549 20.3177 3.77549C20.2185 3.72488 20.1392 3.72488 20.0598 3.87669C20.04 3.9273 20.0202 3.9779 20.0202 4.02851C20.04 4.18032 20.159 4.28152 20.2582 4.18032C20.3375 4.12971 20.3771 4.07911 20.3771 3.9273ZM32.3948 1.75133C32.3551 1.59952 32.2956 1.54892 32.2361 1.59952C32.2163 1.59952 32.1964 1.70073 32.1766 1.75133C32.1964 1.80194 32.2163 1.85254 32.2361 1.90315C32.2956 1.95375 32.3551 1.90315 32.3948 1.75133ZM45.8997 2.45979C45.8799 2.45979 45.86 2.51039 45.8204 2.561C45.8402 2.6116 45.8402 2.6622 45.86 2.71281C45.9393 2.76341 45.979 2.6622 45.9592 2.561C45.979 2.51039 45.9195 2.45979 45.8997 2.45979ZM79.0373 15.465C79.0175 15.4144 79.0175 15.3132 78.9977 15.3132C78.9779 15.3132 78.9382 15.3132 78.9184 15.3132C78.8589 15.4144 78.8787 15.5156 78.9778 15.5156C78.9778 15.5156 79.0175 15.465 79.0373 15.465ZM16.4109 24.0676C16.4109 24.017 16.4109 23.9158 16.3911 23.9158C16.3713 23.8652 16.3316 23.8652 16.292 23.8652C16.2126 23.9664 16.2126 24.0676 16.3118 24.1182C16.3514 24.1182 16.3911 24.0676 16.4109 24.0676ZM77.2922 30.7473C77.2724 30.6967 77.2525 30.6461 77.2327 30.5955C77.1732 30.5449 77.1137 30.5955 77.0741 30.7473C77.0741 30.7473 77.1137 30.8485 77.1336 30.8991C77.193 30.9497 77.2525 30.8991 77.2922 30.7473ZM2.80685 47.2948C2.82668 47.2441 2.86634 47.2441 2.88618 47.1935C2.86634 47.1429 2.84651 47.0923 2.80685 47.0417C2.72753 46.9911 2.68787 47.0923 2.7077 47.1935C2.72753 47.2441 2.76719 47.2441 2.80685 47.2948ZM68.5864 83.4765C68.5666 83.4258 68.5467 83.3753 68.5269 83.3247C68.4674 83.274 68.4079 83.3246 68.3881 83.4765C68.3881 83.4765 68.4277 83.5777 68.4476 83.6283C68.5071 83.6789 68.5467 83.6283 68.5864 83.4765ZM83.2415 13.1878L83.2019 13.289H83.2614L83.2415 13.1878Z" fill="#00659E"/>
<g clip-path="url(#clip0)">
<path d="M71.9 52.4998H56.24L70.8893 37.5828C71.5896 36.8673 71.5896 35.7097 70.8893 34.9942L60.7022 24.6093C59.994 23.9061 58.8635 23.9098 58.1597 24.6175L44 39.0394V29.3356C43.9971 28.7485 43.8577 28.1705 43.5932 27.6489L37.3832 15.4573C36.911 14.559 35.9909 13.9992 34.9905 14.0015C33.99 14.0038 33.0724 14.5678 32.6042 15.4683L26.405 27.6581C26.1421 28.1769 26.0033 28.7517 26 29.3356V60.7498C26.0055 65.3038 29.6288 68.9942 34.1 68.9998H71.9C76.3735 68.9998 80 65.3061 80 60.7498C80 56.1934 76.3735 52.4998 71.9 52.4998ZM59.4368 25.9164L69.6167 36.2867L53.6984 52.4998H34.1C33.8295 52.5 33.5591 52.514 33.29 52.5419L35.8865 49.8983L36.386 50.4061C36.7379 50.7638 37.3079 50.7632 37.659 50.4047C38.0102 50.0463 38.0096 49.4658 37.6577 49.1081L37.1582 48.6003L38.4308 47.3032L39.7052 48.6012C39.9327 48.8327 40.2642 48.9231 40.5748 48.8382C40.8854 48.7533 41.128 48.5061 41.2111 48.1896C41.2942 47.8732 41.2053 47.5356 40.9778 47.3041L39.7043 46.007L40.9769 44.7108L43.523 47.3041C43.8761 47.6515 44.4375 47.6465 44.7846 47.2929C45.1318 46.9393 45.1367 46.3676 44.7956 46.0079L42.2495 43.4147L43.523 42.1185L44.7965 43.4156C45.1505 43.7547 45.7048 43.7463 46.0488 43.3967C46.3928 43.0471 46.4021 42.4825 46.07 42.1213L44.7965 40.8242L46.07 39.528L48.6161 42.1213C48.9692 42.4687 49.5306 42.4637 49.8777 42.1101C50.2249 41.7565 50.2298 41.1848 49.8887 40.8251L47.3435 38.2318L48.6161 36.9357L49.8896 38.2318C50.1156 38.4701 50.4502 38.5657 50.7649 38.4818C51.0795 38.3979 51.3253 38.1476 51.4076 37.8271C51.49 37.5066 51.3962 37.1658 51.1622 36.9357L49.8887 35.6395L51.1622 34.3424L53.7074 36.9357C53.9349 37.1672 54.2664 37.2576 54.577 37.1727C54.8876 37.0878 55.1302 36.8405 55.2133 36.5241C55.2964 36.2077 55.2075 35.8701 54.98 35.6386L52.433 33.0463L53.7056 31.7501L54.98 33.0463C55.3331 33.3937 55.8945 33.3887 56.2416 33.0351C56.5888 32.6815 56.5937 32.1098 56.2526 31.7501L54.98 30.4539L56.2526 29.1578L58.7978 31.7501C59.1509 32.0975 59.7123 32.0925 60.0594 31.7389C60.4066 31.3853 60.4115 30.8136 60.0704 30.4539L57.5252 27.8616L59.4368 25.9164ZM31.3334 31.1048L28.0421 28.4198L31.2974 22.0243C33.5392 23.5478 36.4608 23.5478 38.7026 22.0243L41.9579 28.4208L38.6666 31.1048L36.2726 28.6664C35.5697 27.9507 34.4303 27.9507 33.7274 28.6664L31.3334 31.1048ZM39.5 43.6228V32.7282C39.6032 32.674 39.7009 32.6095 39.7916 32.5357L42.2 30.5713V40.8728L39.5 43.6228ZM34.2008 16.3208C34.3575 16.0223 34.662 15.8351 34.9944 15.833C35.3267 15.8309 35.6335 16.0142 35.7938 16.3107L37.8584 20.3651C36.1639 21.657 33.8361 21.657 32.1416 20.3651L34.2008 16.3208ZM27.8 30.5713L30.2084 32.5357C30.3002 32.5997 30.3979 32.6547 30.5 32.6998V43.3331C30.5 43.8394 30.9029 44.2498 31.4 44.2498C31.8971 44.2498 32.3 43.8394 32.3 43.3331V32.6484C32.4104 32.5774 32.513 32.4944 32.606 32.4009L35 29.9626L37.394 32.4009C37.4868 32.494 37.5894 32.5764 37.7 32.6466V45.4561L32.3 50.9561V46.9998C32.3 46.4935 31.8971 46.0831 31.4 46.0831C30.9029 46.0831 30.5 46.4935 30.5 46.9998V52.7894L28.88 54.4394L28.8566 54.4642C28.8522 54.4706 28.8483 54.4773 28.8449 54.4843C28.4645 54.8149 28.1147 55.1803 27.8 55.5761V30.5713ZM71.9 67.1664H34.1C30.6206 67.1664 27.8 64.2936 27.8 60.7498C27.8 57.2059 30.6206 54.3331 34.1 54.3331H71.9C75.3794 54.3331 78.2 57.2059 78.2 60.7498C78.2 64.2936 75.3794 67.1664 71.9 67.1664Z" fill="white"/>
<path d="M34.0996 56.167C31.6143 56.167 29.5996 58.219 29.5996 60.7503C29.5996 63.2816 31.6143 65.3336 34.0996 65.3336C36.5849 65.3336 38.5996 63.2816 38.5996 60.7503C38.5966 58.2203 36.5837 56.17 34.0996 56.167ZM34.0996 63.5003C32.6084 63.5003 31.3996 62.2691 31.3996 60.7503C31.3996 59.2315 32.6084 58.0003 34.0996 58.0003C35.5908 58.0003 36.7996 59.2315 36.7996 60.7503C36.7996 62.2691 35.5908 63.5003 34.0996 63.5003Z" fill="white"/>
<path d="M71.8994 56.167C69.4141 56.167 67.3994 58.219 67.3994 60.7503C67.3994 63.2816 69.4141 65.3336 71.8994 65.3336C74.3847 65.3336 76.3994 63.2816 76.3994 60.7503C76.3964 58.2203 74.3835 56.17 71.8994 56.167ZM71.8994 63.5003C70.4082 63.5003 69.1994 62.2691 69.1994 60.7503C69.1994 59.2315 70.4082 58.0003 71.8994 58.0003C73.3906 58.0003 74.5994 59.2315 74.5994 60.7503C74.5994 62.2691 73.3906 63.5003 71.8994 63.5003Z" fill="white"/>
</g>
<defs>
<clipPath id="clip0">
<rect width="54" height="55" fill="white" transform="translate(26 14)"/>
</clipPath>
</defs>
</svg>
