<svg width="105" height="88" viewBox="0 0 105 88" fill="none" xmlns="http://www.w3.org/2000/svg">
<path d="M102.557 35.3395L102.637 35.312V35.3945L102.557 35.3395Z" fill="#FFB820"/>
<path d="M104.213 31.7617C104.213 31.6258 104.266 31.5986 104.347 31.5986C104.347 31.6258 104.32 31.6802 104.32 31.6802C104.266 31.7345 104.24 31.7345 104.213 31.7617Z" fill="#FFB820"/>
<path d="M96.6079 29.586C96.3729 29.586 96.1901 29.5083 96.2424 29.4566C96.3468 29.353 96.5035 29.353 96.6341 29.353C96.7385 29.353 96.8168 29.353 96.8952 29.3789C96.9213 29.3789 96.9735 29.4307 96.9996 29.4566C96.9735 29.4824 96.9213 29.5342 96.8952 29.5342C96.7907 29.586 96.6863 29.586 96.6079 29.586Z" fill="#FFB820"/>
<path d="M4.35932 63.7683C4.15706 63.7683 3.95481 63.7333 3.77094 63.7333C3.67901 63.7333 3.56869 63.6983 3.47675 63.6283C3.21934 63.4184 2.96192 63.3835 2.70451 63.3835C2.46548 63.3835 2.24484 63.3835 2.00581 63.3835C1.87711 63.3835 1.73001 63.3835 1.61969 63.3135C1.34389 63.1386 1.0497 63.0686 0.755514 62.9986C0.700354 62.9986 0.626807 62.8937 0.590034 62.7887C0.534873 62.6488 0.461326 62.4739 0.44294 62.2989C0.314233 61.5293 0.167139 60.7596 0.0200447 59.9899C-0.0167288 59.815 0.00165793 59.6051 0.0384314 59.4302C0.148752 59.0454 0.185525 58.6255 0.240686 58.1707C0.295846 57.681 0.38778 57.2262 0.44294 56.7014C0.479713 56.4215 0.479713 56.2116 0.38778 56.0017C0.351006 55.8967 0.314233 55.7918 0.277459 55.6868C0.167139 55.267 0.167139 54.8472 0.240686 54.4274C0.295846 54.1825 0.406166 54.0426 0.534873 53.9726C0.663581 53.9026 0.792288 53.9026 0.920995 53.8676C1.01293 53.8326 1.12325 53.7977 1.21518 53.7627C1.28873 53.7277 1.3255 53.6227 1.30712 53.4828C1.30712 53.4478 1.27034 53.3778 1.25196 53.3429C1.23357 53.3079 1.1968 53.2379 1.17841 53.2379C0.847448 53.1679 0.534873 52.923 0.259072 52.6082C0.222299 52.5732 0.203912 52.5382 0.185525 52.5032C0.111978 52.3983 0.0935916 52.1534 0.185525 52.0484C0.461326 51.7336 0.44294 51.3837 0.332619 50.9289C0.277459 50.719 0.222299 50.4741 0.222299 50.2292C0.222299 49.9144 0.203912 49.5995 0.222299 49.2846C0.259072 48.9698 0.332619 48.6899 0.516487 48.6199C0.55326 48.6199 0.590034 48.5849 0.60842 48.55C0.645194 48.515 0.681967 48.445 0.681967 48.445C0.645194 48.3401 0.590034 48.3051 0.516487 48.2701C0.424553 48.2351 0.314233 48.2351 0.222299 48.2001C0.148752 48.1651 0.0568182 47.8853 0.0752049 47.7453C0.111978 47.4305 0.203912 47.1506 0.148752 46.8357C0.111978 46.5558 0.130365 46.4859 0.222299 46.3809C0.369393 46.241 0.516487 46.0661 0.645194 45.9261C0.737128 45.8212 0.755514 45.5413 0.681967 45.4363C0.626807 45.3664 0.590034 45.2614 0.534873 45.1914C0.461326 45.0515 0.387779 44.9465 0.314233 44.8066C0.240686 44.6667 0.240686 44.4218 0.295846 44.2818C0.351006 44.2119 0.38778 44.1069 0.44294 44.0369C0.571647 43.862 0.700354 43.6521 0.792288 43.3722C0.884222 43.0574 1.03132 42.9874 1.21518 42.9524C1.34389 42.9174 1.4726 42.9174 1.6013 42.8475C1.67485 42.8125 1.71162 42.7075 1.71162 42.5676C1.71162 42.4626 1.65646 42.3227 1.58292 42.3227C1.25196 42.2527 0.920995 42.2527 0.590034 42.1828C0.534873 42.1828 0.461326 42.0778 0.406166 42.0428C0.277459 41.9029 0.240686 41.623 0.332619 41.4481C0.516487 41.0982 0.590034 40.7484 0.44294 40.2586C0.38778 40.0837 0.406166 39.9087 0.4981 39.7688C0.516487 39.7338 0.55326 39.6639 0.571647 39.6639C0.700354 39.5939 0.829061 39.5589 0.957768 39.5939C1.45421 39.6639 1.95065 39.5589 2.44709 39.5589C2.48387 39.5589 2.52064 39.5239 2.53903 39.5239C2.5758 39.4889 2.59419 39.4539 2.61258 39.419C2.5758 39.384 2.55742 39.349 2.52064 39.314C2.3 39.2091 2.06097 39.314 1.82195 39.244C1.73001 39.2091 1.61969 39.244 1.52776 39.1391C1.21518 38.8242 0.902608 38.8242 0.571647 38.7892C0.4981 38.7892 0.461326 38.6493 0.479713 38.5793C0.4981 38.5443 0.516487 38.4744 0.55326 38.4744C0.590034 38.4394 0.626807 38.4394 0.645194 38.4394C0.902608 38.4394 1.17841 38.4394 1.41744 38.1945C1.7484 38.0895 2.04259 37.7747 2.35516 37.5998C2.37355 37.5998 2.39193 37.4948 2.42871 37.4598C2.41032 37.4248 2.37355 37.3899 2.35516 37.3549C2.26323 37.2849 2.17129 37.2849 2.06097 37.2849C1.73001 37.2849 1.39905 37.2849 1.06809 37.2849C0.902608 37.2849 0.755514 37.11 0.626807 36.9001C0.55326 36.7601 0.55326 36.5502 0.60842 36.4103C0.645194 36.3053 0.700354 36.2703 0.773901 36.2004C0.884222 36.0954 0.884221 35.9205 0.810675 35.7456C0.681967 35.3607 0.44294 35.2208 0.259072 34.9759C0.203912 34.871 0.185525 34.766 0.203912 34.6261C0.203912 34.5561 0.222299 34.5211 0.240686 34.4511C0.277459 34.3462 0.295846 34.2412 0.332619 34.1013C0.44294 33.6465 0.55326 33.6115 0.718741 33.7165C0.884221 33.8214 1.0497 33.8214 1.1968 33.6815C1.3255 33.5765 1.45421 33.5066 1.56453 33.3666C1.7484 33.1567 1.93227 33.1217 2.13452 33.1217C2.83322 33.1567 3.53191 33.1567 4.21222 33.1217C4.41448 33.1217 4.46964 32.9468 4.39609 32.6669C4.30416 32.2821 4.34093 31.9322 4.41448 31.5824C4.45125 31.4075 4.41448 31.2326 4.34093 31.0926C4.23061 30.8477 4.1019 30.6728 4.00997 30.3929C3.95481 30.218 3.95481 30.0081 4.00997 29.8682C4.08351 29.6582 4.19383 29.5183 4.28577 29.3434C4.46964 29.0285 4.54318 28.6087 4.56157 28.1539C4.56157 27.979 4.56157 27.7691 4.56157 27.5941C4.56157 27.2793 4.5248 26.9644 4.41448 26.7195C4.35932 26.5796 4.28577 26.4047 4.23061 26.2647C4.17545 26.0898 4.15706 25.9149 4.15706 25.74C4.15706 25.3551 4.19383 25.0053 4.28577 24.6554C4.34093 24.4455 4.41448 24.2356 4.46964 23.9907C4.50641 23.8158 4.50641 23.6409 4.46964 23.431C4.43286 23.326 4.41448 23.2211 4.3777 23.0811C4.35932 22.9762 4.32254 22.8362 4.32254 22.7313C4.34093 22.3115 4.30416 21.8567 4.43286 21.4368C4.50641 21.157 4.54318 20.8421 4.5248 20.5272C4.48802 19.8975 4.5248 19.2678 4.59834 18.6381C4.63512 18.3932 4.63512 18.1483 4.59834 17.9034C4.54318 17.4836 4.46964 17.0638 4.3777 16.644C4.35932 16.539 4.35932 16.3991 4.39609 16.2941C4.48802 15.8743 4.54318 15.4545 4.54318 14.9997C4.54318 14.6848 4.61673 14.4049 4.70866 14.1251C4.8006 13.8802 4.85576 13.5653 4.87414 13.2504C4.89253 12.6907 4.9293 12.1309 4.9293 11.5712C4.9293 11.1164 4.96608 10.6966 5.0764 10.3117C5.09479 10.2418 5.09479 10.2068 5.11317 10.1368C5.14995 9.71699 5.13156 9.26219 5.24188 8.84237C5.22349 8.70243 5.22349 8.59748 5.20511 8.45754C5.20511 8.3176 5.16833 8.17766 5.20511 8.07271C5.31543 7.58292 5.33381 7.09314 5.31543 6.60335C5.29704 6.21852 5.33381 5.83369 5.42575 5.51883C5.48091 5.34391 5.49929 5.16898 5.49929 4.99406C5.51768 4.6792 5.51768 4.36434 5.55445 4.04947C5.57284 3.80458 5.66477 3.59467 5.77509 3.45473C6.01412 3.13987 6.23476 2.86 6.51056 2.86C6.62088 2.86 6.69443 2.79003 6.78637 2.68507C6.91507 2.58012 7.04378 2.54513 7.17249 2.51015C7.41151 2.47516 7.63216 2.47516 7.87118 2.44018C7.99989 2.4052 8.14698 2.44018 8.2573 2.33523C8.62504 2.1603 8.97439 2.12532 9.34212 2.12532C10.2982 2.12532 11.2543 2.09033 12.2288 2.09033C13.093 2.09033 13.9572 2.09033 14.803 2.09033C15.0788 2.09033 15.3362 2.05535 15.5752 1.88043C15.7039 1.81046 15.851 1.81046 15.9797 1.88043C16.0349 1.91541 16.1084 1.95039 16.1636 1.98538C16.3291 2.05535 16.4946 2.05535 16.66 1.95039C16.7888 1.88043 16.9175 1.81046 17.0462 1.81046C17.8736 1.81046 18.701 1.7055 19.5284 1.74049C20.1168 1.77547 20.7235 1.7055 21.3119 1.7055C21.5141 1.7055 21.698 1.63553 21.9003 1.53058C21.9922 1.46061 22.1025 1.42562 22.1945 1.42562C22.8196 1.39064 23.4448 1.35566 24.0699 1.32067C24.1986 1.32067 24.3273 1.2507 24.456 1.18073C24.548 1.11076 24.6399 1.11076 24.7502 1.14575C24.9157 1.2507 25.0812 1.28569 25.2283 1.14575C25.4489 0.970824 25.6879 0.970824 25.9086 0.93584C26.166 0.900855 26.4418 0.93584 26.6992 0.93584C26.9566 0.93584 27.2324 0.86587 27.4898 0.725932C27.7472 0.585993 28.023 0.585993 28.2805 0.725932C28.593 0.900855 28.924 0.93584 29.2366 1.18073C29.3285 1.2507 29.4388 1.21572 29.5308 1.14575C29.6779 1.00581 29.8433 0.93584 30.0088 0.93584C30.2478 0.900855 30.4685 0.900855 30.6891 0.725932C30.7811 0.655962 30.873 0.655962 30.9833 0.620978C31.1304 0.585993 33.1162 0.620978 33.2633 0.655962C33.3552 0.690947 33.4655 0.725932 33.5575 0.795901C33.631 0.830886 33.6862 0.830886 33.7597 0.795901C33.8149 0.760916 33.8884 0.725932 33.9436 0.690947C34.1458 0.620978 34.3297 0.620978 34.532 0.760916C34.6055 0.795901 34.6607 0.795901 34.7158 0.760916C35.0652 0.516024 35.4329 0.551008 35.7823 0.830886C35.8742 0.900855 35.9661 0.900855 36.0764 0.830886C36.1684 0.795901 36.2603 0.760916 36.3706 0.830886C36.5361 0.93584 36.7016 0.93584 36.8671 0.830886C37.1613 0.655962 37.4554 0.585993 37.7496 0.585993C38.1725 0.585993 38.6138 0.551008 39.0367 0.551008C39.239 0.551008 39.4228 0.446054 39.6251 0.306116C39.7538 0.201162 39.8825 0.201162 40.0112 0.306116C40.0664 0.3411 40.1399 0.376085 40.1951 0.41107C40.287 0.446054 40.3973 0.481039 40.4893 0.376085C40.7467 0.131192 41.0041 0.131192 41.2615 0.236146C41.4638 0.306116 41.6476 0.446054 41.8499 0.306116C41.905 0.271131 41.9786 0.306116 42.0337 0.3411C42.1992 0.446054 42.3463 0.41107 42.5118 0.376085C42.8979 0.236146 43.284 0.131192 43.6886 0.201162C43.8173 0.236146 43.946 0.271131 44.0931 0.236146C44.7182 0.0962078 45.3434 0.201162 45.9685 0.166177C46.3914 0.271131 46.8327 0.236146 47.2556 0.201162C47.4946 0.166177 47.7153 0.236146 47.9359 0.446054C47.9911 0.481039 48.0646 0.516024 48.1198 0.446054C48.3404 0.271131 48.561 0.201162 48.8001 0.201162C49.1678 0.201162 49.5355 0.166177 49.8849 0.166177C50.3078 0.131192 50.7491 0.201162 51.172 0.306116C51.2639 0.3411 51.3558 0.41107 51.4661 0.446054C51.5581 0.516024 51.6684 0.516024 51.7603 0.446054C51.9442 0.3411 52.1465 0.271131 52.3487 0.236146C52.8451 0.166177 53.3416 0.271131 53.838 0.271131C53.93 0.271131 54.0403 0.306116 54.1322 0.376085C54.3896 0.551008 54.6287 0.620978 54.9045 0.376085C55.1251 0.201162 55.3641 0.201162 55.5848 0.3411C55.6399 0.376085 55.7135 0.446054 55.7686 0.481039C55.8238 0.516024 55.8974 0.551008 55.9709 0.551008C56.0628 0.551008 56.1732 0.585993 56.2651 0.516024C56.4857 0.3411 56.7064 0.271131 56.9454 0.271131C57.1844 0.306116 57.4051 0.236146 57.6441 0.201162C58.1773 0.166177 58.7105 0.131192 59.2254 0.236146C59.3541 0.271131 59.4828 0.306116 59.6115 0.376085C59.685 0.41107 59.7402 0.41107 59.7953 0.3411C60.0528 0.131192 60.3102 0.201162 60.5676 0.0262385C60.6411 -0.00874616 60.6963 -0.00874616 60.7698 0.0262385C61.1927 0.201162 61.6156 0.236146 62.0569 0.166177C62.6453 0.0612232 63.252 0.166177 63.8404 0.166177C64.0059 0.166177 64.1714 0.236146 64.3185 0.3411C64.4104 0.41107 64.5023 0.376085 64.6127 0.3411C64.7046 0.306116 64.8149 0.236146 64.9069 0.236146C65.4033 0.271131 65.8997 0.201162 66.3962 0.201162C66.5249 0.201162 66.672 0.166177 66.8007 0.201162C67.0581 0.271131 67.3339 0.201162 67.5913 0.236146C67.6649 0.236146 67.72 0.306116 67.7752 0.3411C67.8304 0.376085 67.9039 0.376085 67.9591 0.306116C68.1061 0.166177 68.2716 0.0962078 68.4371 0.131192C69.8529 0.201162 71.2871 0.131192 72.7028 0.236146C72.997 0.271131 73.2912 0.236146 73.6038 0.236146C73.7693 0.236146 73.9347 0.271131 74.1002 0.376085C74.1922 0.446054 74.3025 0.376085 74.3944 0.3411C74.468 0.3411 74.5231 0.306116 74.5967 0.3411C74.8541 0.516024 75.1115 0.516024 75.3873 0.516024C76.0492 0.516024 76.7111 0.516024 77.3731 0.551008C77.5937 0.551008 77.8327 0.551008 78.0534 0.760916C78.1085 0.830886 78.1821 0.86587 78.2372 0.795901C78.4579 0.620978 78.6785 0.585993 78.9175 0.620978C79.1566 0.655962 79.3772 0.620978 79.6162 0.620978C79.7817 0.620978 79.9472 0.655962 80.0943 0.760916C80.1495 0.795901 80.223 0.830886 80.2782 0.86587C80.4804 0.93584 80.6827 0.93584 80.8665 0.760916C80.9953 0.655962 81.124 0.620978 81.2527 0.725932C81.3814 0.830886 81.4917 0.900855 81.6388 0.900855C82.0065 0.900855 82.3743 0.900855 82.7236 0.93584C82.9626 0.93584 83.1833 0.93584 83.4039 1.11076C83.5142 1.18073 83.5878 1.04079 83.6429 0.900855C83.6797 0.795901 83.7533 0.760916 83.8084 0.795901C83.9739 0.900855 84.1394 0.93584 84.3049 0.93584C84.9668 0.93584 85.6287 0.970824 86.2906 0.970824C86.548 0.970824 86.8239 1.00581 87.0813 1.18073C87.3019 1.32067 87.5409 1.2507 87.7616 1.32067C87.9271 1.35566 88.0925 1.39064 88.258 1.42562C88.5338 1.74049 88.828 1.7055 89.1222 1.7055C89.398 1.7055 89.6554 1.74049 89.8944 1.98538C89.9496 2.05535 90.0231 2.05535 90.0783 2.05535C90.1518 2.05535 90.207 2.05535 90.2806 2.05535C91.016 1.98538 91.7331 2.09033 92.4686 2.12532C92.7076 2.12532 92.9282 2.26526 93.1121 2.54513C93.2224 2.72006 93.3511 2.68507 93.4799 2.58012C93.6086 2.47516 93.7373 2.51015 93.866 2.6151C94.0498 2.79003 94.2337 2.86 94.436 2.86C94.6014 2.86 94.7669 2.86 94.9324 2.86C95.0611 2.86 95.1898 2.92997 95.3185 2.99993C95.4105 3.0699 95.5208 2.99993 95.6127 2.99993C95.6862 2.99993 95.7414 2.96495 95.815 2.99993C96.0724 3.17486 96.3298 3.17486 96.6056 3.17486C97.2675 3.20984 97.9294 3.20984 98.5914 3.24483C98.6465 3.24483 98.7201 3.3148 98.7752 3.34978C98.8488 3.38477 98.8855 3.48972 98.8672 3.66464C98.8488 3.7696 98.812 3.90954 98.7384 3.90954C98.481 3.9795 98.2236 4.04947 97.9662 4.2244C97.9111 4.25938 97.8375 4.2244 97.764 4.18941C97.5801 4.04947 97.3778 3.97951 97.1756 4.11944C96.9917 4.25938 96.7895 4.32935 96.5872 4.36434C96.5137 4.39932 96.4585 4.43431 96.4585 4.53926C96.4585 4.53926 96.5137 4.60923 96.5504 4.60923C97.0469 4.64421 97.5433 4.6792 98.0398 4.6792C98.3707 4.6792 98.7017 4.71418 99.0326 4.71418C99.2901 4.71418 99.5659 4.74917 99.8049 4.95908C99.86 4.99406 99.9336 4.99406 100.007 4.95908C100.43 4.64421 100.853 4.74917 101.276 4.81914C101.331 4.81914 101.405 4.88911 101.46 4.92409C101.588 5.02904 101.717 5.06403 101.846 5.06403C102.048 5.09901 102.25 5.09901 102.434 5.134C102.471 5.134 102.508 5.16898 102.526 5.20397C102.545 5.30892 102.489 5.37889 102.434 5.44886C102.158 5.76372 101.883 5.83369 101.57 5.69375C101.441 5.62378 101.313 5.62378 101.184 5.69375C100.89 5.86868 100.596 5.83369 100.301 5.65877C100.228 5.62378 100.173 5.5888 100.117 5.62378C99.7681 5.86868 99.4004 5.72874 99.0326 5.72874C98.9407 5.72874 98.8304 5.69375 98.7384 5.62378C98.573 5.51883 98.4259 5.55381 98.2604 5.62378C97.7456 5.90366 97.2124 5.93865 96.6975 5.5888C96.4585 5.41388 96.2562 5.5888 96.0724 5.86868C96.054 5.90366 96.054 6.00861 96.0724 6.00861C96.1275 6.0436 96.2011 6.07858 96.2562 6.11357C96.4585 6.14855 96.6608 6.18354 96.8446 6.14855C97.4146 6.0436 97.9662 6.14855 98.5362 6.18354C98.6281 6.18354 98.7384 6.21852 98.8304 6.28849C98.9591 6.39345 99.0878 6.35846 99.2165 6.28849C99.3084 6.25351 99.4188 6.28849 99.5107 6.35846C99.6394 6.46342 99.7681 6.46342 99.8968 6.35846C100.154 6.18354 100.412 6.18354 100.669 6.35846C100.945 6.56837 101.239 6.60335 101.552 6.56837C101.791 6.53338 102.011 6.63834 102.214 6.84825C102.379 7.02317 102.526 6.9532 102.692 6.77828C102.728 6.74329 102.747 6.70831 102.784 6.70831C102.857 6.63834 102.967 6.67332 103.041 6.88323C103.151 7.16311 103.28 7.26806 103.464 7.26806C103.537 7.26806 103.593 7.26806 103.666 7.30305C103.74 7.33803 103.776 7.44299 103.776 7.54794C103.776 7.58292 103.74 7.65289 103.703 7.65289C103.501 7.68788 103.317 7.72286 103.115 7.79283C103.041 7.82782 103.004 7.89779 102.967 8.00274C102.912 8.14268 103.004 8.35259 103.115 8.42256C103.151 8.42256 103.188 8.45754 103.206 8.45754C103.298 8.42256 103.39 8.35259 103.482 8.28262C103.611 8.17766 103.74 8.14268 103.868 8.28262C103.924 8.35259 103.979 8.38757 104.052 8.45754C104.107 8.52751 104.163 8.59748 104.163 8.73742C104.163 8.7724 104.107 8.80739 104.071 8.80739C103.979 8.84237 103.868 8.84237 103.776 8.84237C103.041 8.80739 102.324 8.87736 101.588 8.91234C101.441 8.91234 101.331 9.01729 101.239 9.19222C101.037 9.57705 100.779 9.64702 100.504 9.64702C99.8417 9.64702 99.1797 9.64702 98.5178 9.682C98.4259 9.682 98.3339 9.78696 98.2604 9.96188C98.242 9.99687 98.2236 10.0668 98.242 10.1368C98.242 10.1718 98.2788 10.2418 98.2972 10.2418C98.3523 10.2767 98.4259 10.3117 98.481 10.3467C98.8672 10.4517 99.2717 10.4167 99.6762 10.4167C100.173 10.4167 100.669 10.4167 101.166 10.4167C101.368 10.4167 101.552 10.4517 101.754 10.5566C101.883 10.6266 102.011 10.6266 102.14 10.6616C102.545 10.6966 102.931 10.6616 103.317 10.4517C103.445 10.3817 103.574 10.4167 103.703 10.4867C103.776 10.5216 103.813 10.6266 103.813 10.7665C103.813 10.8365 103.795 10.8715 103.795 10.9415C103.776 11.0114 103.758 11.0464 103.74 11.0814C103.574 11.2563 103.409 11.4662 103.206 11.5362C103.115 11.5712 103.004 11.6411 102.931 11.7111C102.747 11.921 102.563 11.956 102.361 11.956C102.269 11.956 102.232 12.026 102.269 12.1309C102.287 12.1659 102.305 12.2359 102.342 12.2359C102.526 12.4108 102.692 12.5857 102.912 12.5507C103.078 12.5507 103.243 12.5857 103.409 12.6207C103.464 12.6207 103.556 12.6557 103.593 12.7257C103.629 12.7956 103.611 12.9706 103.611 13.0755C103.611 13.2155 103.648 13.2854 103.721 13.3204C103.813 13.3554 103.924 13.3904 104.015 13.4603C104.071 13.4953 104.126 13.5653 104.181 13.6703C104.273 13.8102 104.31 14.0201 104.273 14.16C104.163 14.6148 104.052 15.0696 103.942 15.5244C103.887 15.7693 103.795 15.9093 103.666 16.0492C103.574 16.1192 103.501 16.2241 103.427 16.3641C103.39 16.434 103.372 16.574 103.354 16.6789C103.335 16.7839 103.464 17.0638 103.537 17.0638C103.574 17.0638 103.611 17.0988 103.629 17.0988C103.795 17.0988 103.96 17.1337 104.126 17.1337C104.291 17.1337 104.457 17.1687 104.622 17.1687C104.714 17.1687 104.751 17.2387 104.733 17.3436C104.733 17.4136 104.696 17.4486 104.677 17.4836C104.475 17.6935 104.254 17.8684 104.015 17.8684C103.942 17.8684 103.887 17.8684 103.813 17.9034C103.611 17.9384 103.537 18.1133 103.519 18.4981C103.519 18.6381 103.611 18.883 103.684 18.883C104.015 18.9529 104.346 18.9879 104.677 19.0579C104.769 19.0929 104.861 19.1978 104.935 19.3028C105.008 19.4077 105.027 19.6876 104.953 19.7926C104.788 20.0025 104.622 20.2124 104.457 20.3873C104.365 20.4923 104.273 20.5622 104.181 20.5622C103.887 20.5972 103.593 20.5972 103.298 20.7721C103.059 20.8071 102.839 20.8071 102.6 20.8421C102.232 20.8771 101.864 20.9121 101.515 20.9471C101.478 20.9471 101.46 20.982 101.423 21.017C101.441 21.052 101.441 21.122 101.46 21.122C101.644 21.2619 101.827 21.3669 101.956 21.7167C102.066 21.9966 102.25 21.9966 102.416 22.0316C102.489 22.0316 102.545 22.1016 102.581 22.2065C102.581 22.2065 102.545 22.3115 102.508 22.3115C102.342 22.3814 102.177 22.4514 102.03 22.5913C101.883 22.7663 101.699 22.6963 101.552 22.7663C101.515 22.7663 101.478 22.8013 101.46 22.8362C101.423 22.9062 101.441 23.0112 101.496 23.1161C101.607 23.2561 101.717 23.396 101.809 23.5709C101.938 23.7808 102.103 23.8858 102.269 23.8858C102.508 23.8858 102.728 23.9208 102.967 23.9208C103.059 23.9208 103.17 23.9208 103.262 23.9907C103.648 24.2356 104.052 24.2006 104.438 24.3056C104.512 24.3406 104.567 24.4105 104.549 24.5155C104.549 24.5855 104.53 24.6205 104.512 24.6904C104.457 24.8653 104.365 24.9703 104.273 25.0053C104.107 25.0403 103.942 25.0753 103.776 25.1102C103.648 25.1452 103.501 25.1102 103.39 25.1802C103.096 25.3901 102.802 25.3551 102.508 25.3901C102.25 25.4251 101.975 25.4251 101.717 25.4601C101.68 25.4601 101.662 25.5301 101.644 25.565C101.662 25.6 101.662 25.67 101.699 25.67C101.754 25.705 101.827 25.74 101.883 25.7749C102.214 25.8449 102.545 25.8099 102.875 25.8099C103.078 25.8099 103.28 25.8099 103.464 25.8449C103.501 25.8449 103.537 25.8799 103.537 25.9499C103.556 26.0198 103.519 26.1248 103.445 26.1248C103.28 26.1598 103.114 26.1598 102.949 26.1598C102.82 26.1598 102.692 26.1948 102.563 26.2997C102.416 26.4397 102.25 26.4746 102.085 26.5096C101.791 26.5446 101.496 26.5446 101.184 26.5796C101.092 26.5796 100.982 26.5796 100.89 26.6146C100.706 26.6845 100.522 26.8945 100.32 26.8945C100.117 26.8945 99.9152 26.8945 99.7313 26.9994C99.6946 26.9994 99.6762 27.0694 99.6578 27.1044C99.6762 27.1393 99.7129 27.1743 99.7497 27.2093C99.8784 27.2793 100.007 27.2793 100.136 27.2793C100.522 27.2793 100.926 27.2443 101.313 27.3842C101.349 27.3842 101.368 27.4542 101.386 27.4892C101.368 27.5242 101.331 27.5941 101.313 27.5941C101.221 27.6291 101.11 27.6641 101.018 27.6641C100.651 27.6991 100.301 27.6641 99.9336 27.7691C99.9152 27.7691 99.8784 27.839 99.86 27.874C99.8784 27.909 99.8968 27.979 99.9336 28.014C100.117 28.1189 100.32 28.0839 100.504 28.2589C100.559 28.3288 100.632 28.3288 100.687 28.2589C100.835 28.1539 101 28.0839 101.166 28.0839C101.368 28.0839 101.57 28.049 101.754 28.049C101.956 28.049 102.14 28.1189 102.324 28.3288C102.379 28.3988 102.434 28.4338 102.508 28.4688C102.673 28.5387 102.82 28.6087 102.967 28.7836C103.298 29.0985 103.648 29.2734 104.015 29.3084C104.107 29.3084 104.144 29.4134 104.107 29.4833C104.089 29.5183 104.052 29.5533 104.015 29.5533C103.482 29.5883 102.949 29.6582 102.434 29.6932C102.195 29.6932 101.975 29.7282 101.754 29.8682C101.662 29.9381 101.552 29.9381 101.46 29.9031C101.294 29.8332 101.147 29.8332 100.982 29.9031C100.816 29.9731 100.651 29.9731 100.485 30.0081C100.191 30.0431 99.8968 30.0431 99.5842 30.0781C99.4555 30.0781 99.3084 30.0781 99.1981 30.183C98.8855 30.4279 98.5546 30.4279 98.2236 30.4979C98.0214 30.5329 97.8375 30.6728 97.6904 30.8827C97.672 30.9177 97.672 30.9877 97.672 31.0226C97.6904 31.0576 97.7272 31.0926 97.764 31.0926C98.2604 31.0926 98.7568 31.0926 99.2533 31.0926C99.382 31.0926 99.5291 31.0926 99.6394 31.0226C99.86 30.8827 100.099 30.8827 100.32 30.8477C100.743 30.8127 101.184 30.8127 101.607 30.7778C101.938 30.7778 102.269 30.7778 102.581 30.9877C102.71 31.0926 102.839 31.0576 102.967 31.0576C103.206 31.0576 103.427 31.0576 103.648 31.1976C103.721 31.2326 103.758 31.3375 103.776 31.4774C103.795 31.6174 103.776 31.7223 103.684 31.7573C103.629 31.7923 103.556 31.8273 103.501 31.8623C103.298 31.8973 103.114 31.9322 102.912 31.9672C102.71 31.9672 102.526 32.1072 102.324 32.1771C102.269 32.2121 102.195 32.1771 102.122 32.1771C102.03 32.1422 101.938 32.1072 101.827 32.1771C101.57 32.3521 101.313 32.3521 101.037 32.3521C100.798 32.3521 100.577 32.3521 100.338 32.3521C100.283 32.3521 100.209 32.422 100.154 32.457C100.099 32.492 100.044 32.597 99.9888 32.6669C99.8233 32.9118 99.6394 33.0168 99.4372 33.0168C98.9039 33.0518 98.3707 33.0867 97.8559 33.1217C97.764 33.1217 97.6536 33.1567 97.5617 33.2267C97.3411 33.4016 97.1204 33.4716 96.8814 33.4716C96.6791 33.4716 96.4769 33.4716 96.293 33.5066C96.2011 33.5066 96.0908 33.5415 95.9988 33.6115C95.7782 33.7514 95.5575 33.8564 95.3369 33.9963C95.153 34.1363 94.9508 34.1713 94.7485 34.1713C94.5831 34.1713 94.4176 34.2762 94.2705 34.4162C94.1785 34.4861 94.0866 34.5561 93.9947 34.5561C93.6269 34.5911 93.2592 34.6261 92.9282 34.871C92.726 34.9059 92.5421 34.9759 92.3399 35.0109C92.2847 35.0459 92.2112 35.0809 92.156 35.1508C92.1008 35.2208 92.0457 35.3258 92.0457 35.4307C92.0457 35.5357 92.0825 35.6406 92.156 35.6406C92.2479 35.6756 92.3583 35.6756 92.4502 35.7106C92.5237 35.7106 92.5789 35.7806 92.5789 35.8855C92.5789 35.9205 92.5237 35.9555 92.5054 35.9905C92.4134 36.0255 92.3031 36.0255 92.2112 36.0604C92.1376 36.0604 92.0641 36.1304 92.0457 36.2354C92.0273 36.3403 92.0825 36.4803 92.1376 36.5502C92.1928 36.6202 92.2479 36.6902 92.3031 36.7251C92.395 36.7601 92.5054 36.7951 92.5973 36.7951C93.0018 36.8301 93.3879 36.8651 93.7924 36.8651C93.9947 36.8651 94.1785 36.9351 94.3808 37.04C94.5095 37.11 94.6382 37.11 94.7669 37.11C95.5024 37.145 96.2195 37.145 96.9549 37.145C97.1204 37.145 97.2859 37.145 97.4514 37.1799C97.5433 37.1799 97.6352 37.2849 97.7272 37.3899C97.7823 37.4598 97.8375 37.5298 97.8927 37.5648L97.8743 37.5298C97.8375 37.8097 97.7088 37.8796 97.6169 38.0546C97.5249 38.1945 97.5249 38.4044 97.5985 38.5443C97.6353 38.6143 97.6904 38.7193 97.7456 38.7892C97.764 38.8242 97.764 38.9292 97.764 38.9292C97.5985 39.1391 97.3962 39.1391 97.2123 39.279C97.0653 39.384 96.8814 39.384 96.7343 39.4539C96.6975 39.4539 96.6791 39.5239 96.6608 39.5589C96.6424 39.6289 96.6791 39.6988 96.7711 39.7338C96.8446 39.7688 96.8998 39.7688 96.9733 39.7688C97.0101 39.7688 97.0469 39.7688 97.0653 39.7688C97.433 39.7688 97.7823 40.0137 98.1317 40.1886C98.1685 40.1886 98.1869 40.2586 98.2052 40.3286C98.2052 40.3635 98.1869 40.4335 98.1501 40.4685C97.9662 40.6434 97.7823 40.7134 97.5801 40.8183C97.4514 40.8883 97.3227 40.8883 97.194 40.8883C96.2746 40.9233 95.3369 40.9583 94.4176 41.0283C94.344 41.0283 94.2889 41.0982 94.2889 41.1682C94.2889 41.2032 94.344 41.2732 94.3624 41.2732C94.4543 41.3081 94.5647 41.3081 94.6566 41.3081C94.9508 41.3081 95.245 41.3431 95.5575 41.3431C95.7782 41.3431 95.9437 41.518 96.0908 41.7979C96.1092 41.8329 96.1459 41.8679 96.1643 41.9379C96.2011 42.0428 96.2379 42.1478 96.2562 42.2527C96.2746 42.3227 96.1275 42.6376 96.0724 42.6376C95.9804 42.6725 95.8885 42.7425 95.7782 42.7425C95.0427 42.7775 94.3256 42.8125 93.5902 42.8125C92.4686 42.8125 91.347 42.8125 90.207 42.8125C89.8761 42.8125 89.5451 42.8475 89.2141 42.8824C89.1774 42.8824 89.1406 42.9174 89.1222 42.9874C89.1038 43.0574 89.1406 43.1273 89.2325 43.1273C89.5267 43.1623 89.8209 43.2673 90.1151 43.2323C90.2438 43.2323 90.3725 43.2673 90.5012 43.3722C90.6483 43.5122 90.8138 43.5472 90.9793 43.5472C91.4389 43.5472 91.8986 43.5821 92.3766 43.5821C92.6708 43.6171 92.965 43.5821 93.2592 43.827C93.3511 43.897 93.4615 43.827 93.5534 43.7571C93.6821 43.6521 93.8108 43.6521 93.9395 43.7571C94.0682 43.862 94.1969 43.897 94.3256 43.897C94.7301 43.932 95.1163 43.967 95.5208 44.002C95.5575 44.002 95.5943 44.0719 95.5943 44.1069C95.5943 44.1769 95.5575 44.2818 95.484 44.2818C95.0243 44.3168 94.5647 44.3168 94.0866 44.3168C93.057 44.3168 92.0273 44.2818 91.016 44.2818C90.6851 44.2818 90.3541 44.3168 90.0231 44.3518C89.9496 44.3518 89.8944 44.4568 89.9128 44.5617C89.9128 44.6317 89.9312 44.6667 89.9496 44.7366C90.0415 44.9465 90.1519 45.0515 90.299 45.0165C90.3909 44.9815 90.5012 44.9465 90.5931 44.8766C90.7218 44.7716 90.8505 44.7716 90.9793 44.8766C91.1447 45.0165 91.2918 44.9815 91.4573 44.8416C91.586 44.7366 91.7331 44.7016 91.8434 44.8066C92.156 45.0865 92.487 45.0865 92.8179 45.1914C92.9099 45.2264 93.0018 45.3314 93.057 45.5063C93.1121 45.6462 93.0937 45.7512 93.0018 45.7862C92.9099 45.8561 92.8179 45.8561 92.7076 45.8561C92.3031 45.8561 91.917 45.8561 91.5125 45.8561C91.4205 45.8561 91.3102 45.8911 91.2183 45.8911C91.1815 45.8911 91.1631 45.9611 91.1264 45.9961C91.1447 46.0311 91.1631 46.0661 91.1815 46.101C91.3102 46.206 91.4389 46.206 91.5676 46.206C92.0273 46.206 92.487 46.136 92.965 46.241C93.0386 46.241 93.0753 46.3459 93.0937 46.4859C93.0937 46.5908 93.0937 46.7657 93.1305 46.8357C93.1673 46.9057 93.2592 46.9407 93.3144 46.9407C93.6453 46.9757 93.9763 46.9756 94.3073 47.0106C94.436 47.0106 94.5647 47.0456 94.6934 47.1506C94.8405 47.2905 95.0059 47.3255 95.1714 47.3255C95.5392 47.3255 95.9069 47.3605 96.2562 47.3605C96.3482 47.3605 96.4585 47.3605 96.5504 47.4304C96.9917 47.8153 97.4698 47.6404 97.911 47.7803C98.003 47.8153 98.0397 47.8853 98.003 48.0252C97.9846 48.0952 97.9846 48.1301 97.9478 48.2001C97.8375 48.445 97.6536 48.48 97.5065 48.5849C97.4146 48.6199 97.3962 48.7249 97.433 48.8648C97.4882 49.0747 97.4146 49.2147 97.3411 49.3196C97.3227 49.3546 97.2859 49.3896 97.2859 49.4596C97.2675 49.5645 97.3227 49.6345 97.3962 49.6345C97.4882 49.6695 97.5985 49.6695 97.6904 49.7044C97.7272 49.7044 97.7456 49.7394 97.764 49.8094C97.8007 49.8794 97.764 49.9843 97.672 49.9843C97.2491 50.0893 96.8078 50.0193 96.3849 50.0543C96.2195 50.0543 96.054 50.0893 95.9069 50.2642C95.815 50.3692 95.7046 50.3692 95.6127 50.2992C95.4472 50.1942 95.3001 50.1243 95.1347 50.1243C95.0427 50.1243 94.9324 50.1243 94.8405 50.1243C93.3511 50.1593 91.8618 50.1593 90.3725 50.0893C90.207 50.0893 90.0415 50.1243 89.876 50.1243C89.8025 50.1243 89.7473 50.1942 89.729 50.2642C89.7657 50.2992 89.7841 50.3342 89.8209 50.3342C89.9128 50.3692 90.0231 50.3692 90.1151 50.3692C91.0344 50.3692 91.9721 50.3692 92.8915 50.4041C93.057 50.4041 93.2224 50.4041 93.3879 50.4041C93.4799 50.4041 93.5902 50.4391 93.6821 50.5091C93.8292 50.649 93.9947 50.684 94.1602 50.719C94.5647 50.719 94.9508 50.754 95.3553 50.754C95.6127 50.754 95.8885 50.789 96.1459 50.789C96.2379 50.789 96.3482 50.824 96.4401 50.8939C96.624 51.0339 96.8078 51.1388 97.0101 51.1388C97.2675 51.1738 97.5433 51.1738 97.8007 51.3487C97.9294 51.4187 98.0581 51.4187 98.1868 51.4537C98.7201 51.4887 99.2533 51.4887 99.7681 51.5237C99.86 51.5237 99.9704 51.5586 100.062 51.5936C100.099 51.5936 100.136 51.6286 100.154 51.6636C100.173 51.7685 100.136 51.8385 100.062 51.8735C99.9704 51.9085 99.86 51.9435 99.8049 52.1184C99.7865 52.2234 99.8417 52.3633 99.8968 52.4333C99.9152 52.4682 99.952 52.5032 99.9704 52.5382C100.062 52.6432 100.154 52.6432 100.265 52.6432C100.596 52.6432 100.908 52.8181 101.239 53.028C101.423 53.1329 101.423 53.2029 101.313 53.5528C101.202 53.9026 101.202 53.9026 101.331 54.1825C101.423 54.3924 101.423 54.4624 101.276 54.5323C101.11 54.6023 100.963 54.7422 100.816 54.8472C100.687 54.9172 100.559 54.9522 100.43 55.0221C100.246 55.1271 100.173 55.5119 100.283 55.7568C100.338 55.8967 100.412 56.0367 100.485 56.1766C100.559 56.3166 100.651 56.3865 100.743 56.4215C100.908 56.4565 101.074 56.4565 101.239 56.4915C101.313 56.4915 101.368 56.5614 101.368 56.6314C101.368 56.6664 101.331 56.7364 101.294 56.7364C101.239 56.7714 101.166 56.8063 101.11 56.8413C100.982 56.9463 100.926 57.1562 101 57.4361C101.055 57.7159 101.037 57.9258 100.945 58.1358C100.926 58.1707 100.908 58.2407 100.871 58.2757C100.596 58.7305 100.265 59.0454 99.9152 59.2553C99.8784 59.2553 99.8417 59.2902 99.8233 59.2902C99.5842 59.1853 99.3636 59.4302 99.143 59.5002C99.1246 59.5002 99.0878 59.5701 99.0878 59.6401C99.0878 59.6751 99.1062 59.7451 99.143 59.7451C99.2349 59.85 99.3268 59.85 99.4372 59.85C99.621 59.885 99.7313 60.0949 99.7681 60.4098C99.8233 60.7246 99.8968 60.8296 100.044 60.8646C100.467 60.8995 100.908 60.9695 101.331 61.0045C101.349 61.0045 101.405 61.0395 101.405 61.0745C101.405 61.1444 101.405 61.2144 101.368 61.2494C101.313 61.3194 101.257 61.3893 101.257 61.5293C101.257 61.5643 101.313 61.5992 101.331 61.5992C101.386 61.6342 101.46 61.6692 101.515 61.7042C101.607 61.7742 101.68 61.8791 101.717 62.054C101.754 62.229 101.791 62.4039 101.864 62.5438C101.938 62.6488 102.03 62.7537 102.14 62.7187C102.232 62.6838 102.324 62.6138 102.434 62.6138C102.508 62.6138 102.563 62.6838 102.6 62.7887C102.636 62.8937 102.636 63.0336 102.6 63.1386C102.489 63.3835 102.342 63.5584 102.177 63.5934C102.011 63.6283 101.846 63.6283 101.68 63.6283C101.607 63.6283 101.552 63.6633 101.478 63.6983C101.313 63.7333 101.202 64.0831 101.257 64.398C101.294 64.5729 101.331 64.7479 101.294 64.9228C101.239 65.1677 101.129 65.3076 101 65.4126C100.724 65.6575 100.448 65.8674 100.154 65.9024C100.081 65.9024 100.044 66.0073 100.044 66.1472C100.062 66.2872 100.099 66.3571 100.154 66.4271C100.191 66.4621 100.209 66.4971 100.246 66.4971C100.338 66.5321 100.448 66.5671 100.54 66.5671C101.11 66.5671 101.662 66.602 102.232 66.602C102.305 66.602 102.361 66.602 102.434 66.637C102.636 66.637 102.784 66.9169 102.839 67.3367C102.857 67.4767 102.82 67.5816 102.747 67.6166C102.692 67.6516 102.618 67.6866 102.563 67.6866C101.901 67.7565 101.239 67.7915 100.577 67.7565C100.338 67.7565 100.117 67.8965 99.9336 68.1414C99.9152 68.1764 99.8968 68.2463 99.8784 68.2813C99.8784 68.3163 99.8968 68.3513 99.9336 68.3863C99.952 68.4212 99.9887 68.4562 100.026 68.4562C100.191 68.4912 100.356 68.4912 100.522 68.5262C100.761 68.5262 100.982 68.5612 101.202 68.7011C101.368 68.7711 101.533 68.8061 101.699 68.8411C101.772 68.876 101.809 68.981 101.809 69.086C101.809 69.1559 101.791 69.2259 101.772 69.2609C101.717 69.4008 101.644 69.5408 101.57 69.6807C101.478 69.8556 101.349 69.9606 101.221 69.9606C101.184 69.9606 101.147 69.9606 101.129 69.9606C100.835 69.9256 100.54 69.9956 100.265 70.2404C100.173 70.3104 100.081 70.3454 99.9704 70.3454C99.713 70.3804 99.4371 70.3804 99.1797 70.4504C99.0143 70.4853 98.8672 70.5903 98.7201 70.8002C98.7017 70.8352 98.6649 70.9052 98.6649 70.9401C98.6649 70.9751 98.7017 71.0451 98.7384 71.0451C99.1981 71.15 99.6394 71.4649 100.099 71.4999C100.154 71.4999 100.246 71.5699 100.265 71.6748C100.375 71.9897 100.559 72.1646 100.743 72.3045C100.835 72.3745 100.908 72.5145 100.908 72.7244C100.926 72.8993 100.926 73.1092 100.945 73.2841C100.963 73.424 101.074 73.634 101.147 73.634C101.441 73.6689 101.735 73.7039 102.03 73.7739C102.103 73.7739 102.177 73.8789 102.158 73.9488C102.122 74.0538 102.066 74.0888 101.993 74.0888C101.864 74.0888 101.735 74.1237 101.607 74.1587C101.552 74.1937 101.478 74.2287 101.423 74.2637C101.331 74.3337 101.257 74.4736 101.202 74.6485C101.257 74.8234 101.349 74.8934 101.405 75.0333C101.46 75.1383 101.46 75.2432 101.441 75.3482C101.405 75.4881 101.349 75.5581 101.276 75.5231C101.147 75.4532 101.037 75.3832 100.89 75.4532C100.798 75.4881 100.687 75.4182 100.596 75.4532C100.504 75.4881 100.412 75.5931 100.32 75.6631C100.265 75.6981 100.191 75.6981 100.136 75.733C100.117 75.768 100.099 75.803 100.062 75.873C100.099 75.908 100.117 75.9429 100.154 75.9429C100.356 75.9779 100.559 75.9779 100.743 75.9779C101.276 75.9429 101.809 76.0129 102.324 76.1179C102.416 76.1529 102.508 76.2578 102.581 76.3977C102.636 76.5377 102.618 76.6426 102.545 76.7126C102.489 76.7476 102.416 76.8176 102.361 76.8176C102.158 76.8525 101.956 76.8525 101.772 76.8875C101.699 76.8875 101.644 76.9925 101.644 77.0974C101.644 77.2374 101.68 77.3423 101.735 77.4123C101.883 77.5872 102.048 77.5872 102.214 77.6222C102.342 77.6572 102.471 77.7622 102.563 77.9371C102.581 77.9721 102.618 78.042 102.618 78.112C102.618 78.147 102.6 78.2169 102.581 78.2519C102.526 78.3569 102.397 78.4269 102.416 78.6368C102.434 78.8117 102.526 78.9516 102.581 79.0916C102.618 79.2315 102.6 79.3365 102.526 79.3714C102.471 79.4064 102.397 79.4414 102.342 79.4414C102.011 79.4414 101.68 79.4414 101.349 79.4764C101.276 79.4764 101.221 79.5114 101.147 79.5114C101.055 79.5114 100.945 79.7913 100.982 79.8962C101.018 80.0012 101.074 80.1061 101.129 80.1411C101.294 80.2111 101.46 80.2111 101.625 80.2461C101.699 80.2461 101.754 80.316 101.809 80.386C101.846 80.456 101.735 80.8058 101.68 80.8408C101.625 80.8758 101.57 80.9458 101.496 80.9807C101.331 81.0507 101.166 81.1207 101.018 81.2256C100.853 81.3656 100.687 81.2956 100.54 81.1906C100.467 81.1557 100.412 81.1207 100.356 81.1906C100.173 81.3306 99.9704 81.4006 99.7681 81.4006C99.6394 81.4006 99.5107 81.3656 99.3636 81.4006C99.2717 81.4006 99.1614 81.4006 99.0694 81.4705C98.7936 81.7154 98.4994 81.7154 98.2052 81.7504C97.6169 81.7854 97.0101 81.8204 96.4217 81.8204C96.293 81.8204 96.1459 81.8204 96.0356 81.9253C95.815 82.1002 95.5943 82.1352 95.3553 82.1352C94.9508 82.1352 94.5647 82.1702 94.1602 82.2052C94.0682 82.2052 93.9579 82.2052 93.866 82.2752C93.6453 82.4151 93.4247 82.4851 93.1857 82.4851C92.5605 82.5201 91.9354 82.5201 91.2918 82.555C91.1264 82.555 90.9609 82.59 90.7954 82.695C90.6299 82.7999 90.4828 82.8699 90.3173 82.8699C90.1886 82.8699 90.0599 82.8699 89.9128 82.8699C89.7106 82.9049 89.5267 82.9749 89.3612 83.2197C89.2141 83.4646 89.0303 83.6046 88.8096 83.6046C88.0742 83.6046 87.3571 83.6396 86.6216 83.6396C86.2171 83.6396 85.831 83.6396 85.4265 83.6396C85.1874 83.6396 84.9668 83.7095 84.7461 83.8145C84.6542 83.8845 84.5439 83.8845 84.452 83.9194C83.9555 84.0244 83.4591 83.9894 82.9626 83.9544C82.8339 83.9544 82.7052 83.8495 82.5765 83.7795C82.3559 83.6046 82.1352 83.5696 81.8962 83.7445C81.7675 83.8495 81.6388 83.9194 81.5101 83.9194C81.2159 83.9194 80.9217 84.0244 80.6275 83.9894C80.2598 83.9544 79.8921 84.0244 79.5427 84.0244C79.3772 84.0244 79.2117 84.0594 79.0463 84.0244C78.6234 83.9544 78.1821 84.0594 77.7592 84.0244C77.3547 83.9894 76.9686 83.9894 76.564 83.9894C76.2699 83.9894 75.9757 83.9894 75.6631 83.9894C75.4976 83.9894 75.3321 83.8845 75.2218 83.6396C75.185 83.5346 75.1299 83.4646 75.0747 83.3947C75.0196 83.3247 74.946 83.2897 74.8909 83.3247C74.8541 83.3247 74.8173 83.3247 74.7989 83.3597C74.4863 83.7095 74.1738 83.6746 73.8612 83.3597C73.7693 83.2547 73.6773 83.2897 73.5854 83.3597C73.5302 83.3947 73.4751 83.4646 73.4015 83.5346C73.2177 83.6746 73.0154 83.6746 72.8315 83.5346C72.6477 83.3597 72.4638 83.2198 72.2616 83.2547C72.1328 83.2547 72.0041 83.1498 71.8754 83.0798C71.7835 83.0098 71.6732 83.0098 71.5812 83.0798C71.3974 83.2547 71.1951 83.2897 70.9929 83.2897C70.6619 83.3247 70.3309 83.2547 70 83.3247C69.8897 83.3597 69.8161 83.4297 69.8345 83.6746C69.8345 83.8145 69.8161 83.9194 69.7426 83.9544C69.7058 83.9544 69.6874 83.9894 69.6506 83.9894C69.5771 83.9894 69.5035 83.9894 69.4668 83.9194C69.2829 83.7095 69.099 83.6746 68.8968 83.6396C68.8048 83.6396 68.6945 83.6746 68.6026 83.7445C68.4555 83.9194 68.3084 84.0244 68.1429 84.0244C67.9039 84.0244 67.6833 84.0944 67.4626 84.2343C67.3707 84.3043 67.2604 84.3043 67.1684 84.3043C66.911 84.3393 66.6352 84.3043 66.3778 84.3393C66.1572 84.3742 65.9917 84.1993 65.8446 83.9194C65.771 83.7795 65.6791 83.7095 65.5688 83.7795C65.5136 83.8145 65.4401 83.8845 65.3849 83.9194C65.201 84.0244 64.9988 84.0944 64.8149 84.2693C64.6862 84.3742 64.5575 84.3742 64.4288 84.3742C64.2265 84.3393 64.0243 84.3393 63.8404 84.1993C63.4911 83.9194 63.1233 83.9894 62.7556 84.0244C62.5717 84.2343 62.3695 84.1643 62.1856 84.0594C61.6524 84.0244 61.1192 83.9544 60.6044 84.0244C60.4757 84.0594 60.3469 84.0594 60.2182 84.1643C59.8873 84.4092 59.5747 84.3742 59.2437 84.1643C59.0783 84.0594 58.9312 84.0944 58.7657 84.2343C58.5634 84.4092 58.3796 84.3742 58.2325 84.0244C58.1957 83.9194 58.1405 83.8495 58.0854 83.7795C57.8096 83.9894 57.497 83.8845 57.2212 84.1643C57.0741 84.3043 56.9086 84.3742 56.7431 84.3742C56.6144 84.3742 56.4857 84.3743 56.3386 84.4092C56.2099 84.4092 56.0812 84.4792 55.9525 84.5842C55.8238 84.6891 55.6951 84.7241 55.5664 84.7241C55.309 84.7241 55.0332 84.7241 54.7758 84.7241C54.2793 84.7241 53.7829 84.7241 53.2864 84.7591C53.029 84.7591 52.7532 84.7941 52.4958 84.7241C52.3303 84.6891 52.1648 84.7591 52.0177 84.934C51.7603 85.2139 51.4845 85.4588 51.2271 85.7037C51.1352 85.7736 51.0433 85.8436 50.9513 85.8786C50.4181 85.9136 49.8849 85.9835 49.3701 85.9486C49.2046 85.9486 49.0391 85.8786 48.892 85.7386C48.7633 85.6337 48.6346 85.5637 48.5059 85.5637C48.1014 85.5637 47.7153 85.5637 47.3107 85.5287C47.0717 85.5287 46.8511 85.5637 46.6304 85.7037C46.5385 85.7736 46.4466 85.8086 46.3362 85.8086C46.0972 85.8436 45.8766 85.8786 45.6376 85.8436C44.9021 85.8086 44.185 85.8436 43.4495 85.8786C42.9899 85.8786 42.5302 85.8436 42.0521 85.8086C41.9602 85.8086 41.8499 85.8786 41.7947 86.0185C41.7212 86.1585 41.666 86.2984 41.5925 86.4383C41.5189 86.5783 41.4086 86.6133 41.3167 86.5783C41.2615 86.5433 41.188 86.5433 41.1328 86.4733C41.0592 86.4034 41.0041 86.3684 40.9489 86.4383C40.6364 86.6832 40.3054 86.6133 39.9744 86.6133C39.809 86.6133 39.6435 86.6832 39.4964 86.8232C39.4044 86.9281 39.3125 86.9281 39.2206 86.8232C39.1654 86.7882 39.1103 86.7182 39.0367 86.6483C38.908 86.5433 38.7793 86.5433 38.6506 86.5783C38.3932 86.6483 38.1541 86.8931 37.8967 87.0331C37.6393 87.208 37.3819 87.278 37.1245 87.278C36.5545 87.278 36.0029 87.278 35.4329 87.278C35.0284 87.278 34.6423 87.313 34.2378 87.3829C34.1458 87.3829 34.0355 87.4529 33.9436 87.5229C33.8149 87.5928 33.6862 87.5579 33.5575 87.5229C33.4839 87.4879 33.4288 87.4879 33.3552 87.5229C33.1897 87.6278 33.0426 87.6628 32.8588 87.6628C31.7004 87.6978 30.542 87.6978 29.3837 87.7328C28.7585 87.7328 28.1334 87.7328 27.4898 87.7328C27.2876 87.7328 27.1037 87.8027 26.9015 87.9077C26.7176 88.0476 26.5153 88.0127 26.3131 87.9077C26.2579 87.8727 26.1844 87.8377 26.1292 87.8377C26.0005 87.8377 25.8718 87.9777 25.7431 87.9077C25.6144 87.8727 25.4857 87.7328 25.357 87.7328C25.265 87.7328 25.1547 87.7328 25.0628 87.8027C24.8973 87.9427 24.7502 87.9427 24.5847 87.8027C24.4928 87.7328 24.4009 87.6978 24.2905 87.6978C23.9228 87.6978 23.5551 87.6978 23.2057 87.6978C23.077 87.6978 22.9483 87.7328 22.8196 87.8377C22.5622 88.0126 22.3048 88.0127 22.0474 87.8027C21.9554 87.7328 21.8635 87.6978 21.7532 87.6978C21.0545 87.7328 20.3558 87.6278 19.6755 87.6278C19.3813 87.6278 19.0871 87.6278 18.7745 87.6278C18.609 87.6278 18.4436 87.5928 18.2965 87.4879C18.131 87.3829 17.9839 87.3479 17.8184 87.313C17.6162 87.278 17.4139 87.278 17.23 87.243C17.1013 87.243 16.9726 87.173 16.8439 87.0681C16.6233 86.8931 16.3842 86.8582 16.1636 87.0331C15.943 87.173 15.7223 87.243 15.4833 87.1031C15.4097 87.0681 15.3546 87.0681 15.281 87.1031C15.1891 87.138 15.0788 87.208 14.9869 87.208C14.6927 87.208 14.3985 87.208 14.0859 87.243C13.9572 87.243 13.8285 87.208 13.6998 87.1031C13.5343 86.9981 13.3688 87.0331 13.2217 87.138C13.093 87.243 12.9643 87.243 12.8356 87.173C12.615 87.0331 12.3943 86.9631 12.1553 86.9631C11.2543 86.9281 10.3718 86.8931 9.47083 86.8931C9.26857 86.8931 9.08471 86.8582 8.88245 86.7182C8.79052 86.6482 8.69859 86.6483 8.58827 86.6832C8.5331 86.7182 8.45956 86.7532 8.4044 86.7532C7.81602 86.5083 7.22765 86.5783 6.62088 86.5433C6.36347 86.5083 6.10606 86.4383 5.84864 86.3334C5.59123 86.2284 5.33381 86.2284 5.05801 86.1585C4.94769 86.1235 4.87414 86.0185 4.8006 85.9136C4.78221 85.8786 4.76382 85.8086 4.72705 85.7736C4.67189 85.6687 4.61673 85.6337 4.56157 85.6687C4.3777 85.8086 4.17545 85.8786 3.97319 85.7386C3.91803 85.7037 3.86287 85.5987 3.8261 85.4938C3.77094 85.3538 3.84449 85.1439 3.97319 85.0739C4.00997 85.039 4.02835 85.039 4.06513 85.039C4.1019 85.039 4.13867 85.004 4.15706 85.004C4.15706 85.039 4.17545 85.1089 4.17545 85.1439C4.19383 85.1789 4.21222 85.1789 4.23061 85.1789C4.23061 85.1089 4.19384 85.039 4.13867 85.004C4.06513 84.5842 3.93642 84.2343 3.91803 83.7795C3.88126 83.2897 3.86287 83.2897 4.08351 83.1148C4.24899 82.9749 4.35932 82.765 4.35932 82.4151C4.35932 82.3451 4.35932 82.2752 4.35932 82.2402C4.35932 82.1002 4.35932 81.9953 4.39609 81.8554C4.46964 81.5405 4.46964 81.2606 4.34093 81.0157C4.28577 80.9108 4.24899 80.8058 4.26738 80.6659C4.28577 80.5609 4.35932 80.491 4.39609 80.386C4.41448 80.351 4.43286 80.281 4.46964 80.2461C4.54318 80.0711 4.5248 79.8612 4.41448 79.7913C4.32254 79.7213 4.23061 79.6863 4.13867 79.5814C4.06513 79.5114 4.04674 79.4064 4.04674 79.3015C4.04674 79.1615 4.08351 79.0566 4.13867 79.0216C4.19384 78.9516 4.26738 78.9516 4.32254 78.9166C4.45125 78.8467 4.48802 78.6718 4.41448 78.5318C4.35932 78.3919 4.28577 78.2519 4.23061 78.112C4.13867 77.9021 4.19384 77.6572 4.34093 77.5173C4.39609 77.4823 4.46964 77.4473 4.5248 77.4473C4.59834 77.4123 4.6535 77.3423 4.6535 77.2374C4.6535 77.0974 4.61673 76.9925 4.56157 76.9225C4.50641 76.8525 4.45125 76.8176 4.39609 76.7476C4.26738 76.6077 4.26738 76.5727 4.35932 76.3628C4.46964 76.1529 4.46964 76.1529 4.34093 75.9779C4.19384 75.733 4.15706 75.5931 4.23061 75.3482C4.30416 75.0683 4.3777 74.7885 4.45125 74.5086C4.50641 74.2987 4.50641 74.2637 4.41448 74.0188C4.3777 73.9138 4.32254 73.8439 4.28577 73.7389C4.23061 73.564 4.19384 73.3891 4.23061 73.2141C4.28577 72.8643 4.35932 72.5145 4.3777 72.1296C4.39609 71.8148 4.45125 71.5349 4.50641 71.22C4.54318 71.0101 4.50641 70.8352 4.43286 70.6952C4.28577 70.3454 4.17545 69.9606 4.08351 69.5757C4.06513 69.4708 4.06513 69.3308 4.13867 69.2609C4.249 69.1209 4.3777 69.016 4.45125 68.8061C4.48802 68.7011 4.50641 68.5612 4.50641 68.4562C4.50641 68.3513 4.48802 68.2113 4.45125 68.1064C4.35932 67.7565 4.43286 67.5116 4.57996 67.3017C4.67189 67.1618 4.67189 66.9869 4.57996 66.812C4.48802 66.637 4.39609 66.4621 4.30416 66.2872C4.249 66.1472 4.17545 65.9723 4.21222 65.7624C4.34093 65.0277 4.3777 64.2931 4.34093 63.5234C4.3777 63.5234 4.39609 63.5234 4.41448 63.4884C4.43286 63.4884 4.43286 63.4184 4.43286 63.3835C4.39609 63.5584 4.35932 63.5934 4.35932 63.7683ZM96.3298 49.7394C96.4217 49.7744 96.5137 49.7744 96.624 49.7744C96.6607 49.7744 96.6791 49.7394 96.7159 49.7044C96.7343 49.6695 96.7527 49.6345 96.7711 49.5995C96.7527 49.5645 96.7159 49.4945 96.6975 49.4945C96.4401 49.3896 96.1827 49.4945 95.9437 49.4945C95.9069 49.4945 95.8701 49.5295 95.8701 49.5645C95.8517 49.6345 95.8885 49.7394 95.9621 49.7394C96.0724 49.7394 96.2011 49.7394 96.3298 49.7394ZM101.166 8.52751C101.147 8.52751 101.184 8.52751 101.202 8.52751C101.276 8.49253 101.313 8.42256 101.294 8.35259C101.276 8.3176 101.239 8.28262 101.221 8.24763C101.092 8.21265 100.982 8.21265 100.853 8.28262C100.816 8.28262 100.798 8.35259 100.779 8.38757C100.816 8.49253 100.871 8.56249 100.926 8.56249C101 8.52751 101.074 8.52751 101.166 8.52751ZM49.5172 83.9194C49.4436 83.7795 49.3517 83.7795 49.2597 83.8145C49.223 83.8145 49.1862 83.8495 49.1862 83.8845C49.1678 83.9544 49.2046 84.0244 49.2781 84.0594C49.4068 84.0944 49.5172 84.0244 49.5172 83.9194Z" fill="#00659E"/>
<path d="M41.1453 66.6938C41.1453 66.7197 41.1453 66.7715 41.1191 66.7715C40.9884 66.8492 40.8576 66.8492 40.7269 66.7974C40.7007 66.7715 40.6484 66.7456 40.6484 66.7197C40.6484 66.642 40.8315 66.5901 41.0145 66.642C41.0668 66.616 41.1192 66.6679 41.1453 66.6938Z" fill="#FFB820"/>
<path d="M74.0424 15.1396H53.5445C53.0833 15.1396 52.7096 15.533 52.7096 16.0185C52.7096 16.504 53.0833 16.8974 53.5445 16.8974H74.0424C75.3037 16.8974 76.33 17.9777 76.33 19.3055V41.9368C76.33 43.2646 75.3037 44.3449 74.0424 44.3449H70.7684C70.5925 44.3449 70.421 44.4034 70.2786 44.512L64.5855 48.8526V45.2238C64.5855 44.7383 64.2118 44.3449 63.7506 44.3449H45.6284C44.3669 44.3449 43.3407 43.2646 43.3407 41.9368V19.3055C43.3407 17.9777 44.367 16.8974 45.6284 16.8974H49.9065C50.3677 16.8974 50.7414 16.504 50.7414 16.0185C50.7414 15.533 50.3677 15.1396 49.9065 15.1396H45.6284C43.4462 15.1396 41.6709 17.0083 41.6709 19.3055V41.9368C41.6709 44.234 43.4463 46.1027 45.6284 46.1027H62.9157V50.5743C62.9157 50.9045 63.0916 51.2068 63.371 51.3571C63.6671 51.5057 63.9569 51.482 64.2404 51.2862L71.039 46.1028H74.0424C76.2246 46.1028 77.9999 44.2341 77.9999 41.937V19.3055C77.9999 17.0085 76.2245 15.1396 74.0424 15.1396Z" fill="white"/>
<path d="M69.4915 61.5934C69.3174 60.2835 68.585 59.1699 67.4799 58.5361L63.7671 56.4068C63.3622 56.1742 62.8551 56.3317 62.6345 56.7582C62.4141 57.1844 62.5635 57.7182 62.9685 57.9503L66.6808 60.0795C67.316 60.4437 67.7369 61.0833 67.8376 61.8355C67.8381 61.8403 67.8387 61.8451 67.8394 61.8498C67.9368 62.6096 67.6911 63.3507 67.1656 63.8825L66.6184 64.4356L52.9117 56.3172L54.5225 54.8257C55.2097 54.1893 56.2101 54.0717 57.0126 54.5332L59.3292 55.8621C59.7341 56.0943 60.2412 55.9373 60.4619 55.511C60.6824 55.0848 60.5333 54.551 60.1283 54.3186L57.8122 52.99C56.3969 52.1766 54.6314 52.3836 53.4198 53.5057L49.6659 56.9815C48.897 57.6933 47.7747 57.7594 46.937 57.1418C41.2827 52.9721 37.1766 48.3849 34.384 43.1187C33.9131 42.2295 34.0446 41.1329 34.7111 40.3901L37.6826 37.0819C38.7905 35.8471 39.0503 33.9971 38.3289 32.4785L33.3285 21.9513C32.7714 20.7771 31.7484 19.9682 30.5217 19.7319C29.2943 19.4952 28.0647 19.871 27.1479 20.7622L25.2487 22.6091C23.1494 24.6504 21.7601 27.2902 21.2311 30.243C20.7011 33.2006 21.0868 36.1842 22.3464 38.8721C22.352 38.8845 22.3572 38.8953 22.3616 38.9042C23.1598 40.6034 24.0228 42.2649 24.9252 43.8399C25.0758 44.105 25.2383 44.385 25.4077 44.6725C25.6509 45.0847 26.1656 45.2115 26.5574 44.9556C26.9492 44.6996 27.0696 44.1577 26.8265 43.7453C26.6618 43.4661 26.5042 43.1942 26.3567 42.9348C25.4777 41.4005 24.6381 39.7844 23.8612 38.1311C23.8569 38.1215 23.8524 38.1121 23.8478 38.1027C21.653 33.428 22.6336 27.6921 26.2201 24.064L33.7496 38.9022L33.4975 39.183C32.3276 40.4865 32.0977 42.4123 32.9256 43.9751C35.8439 49.4786 40.1136 54.2563 45.979 58.5816C46.6522 59.0778 47.4298 59.3228 48.2048 59.3228C49.1228 59.3228 50.037 58.9787 50.7687 58.3013L51.5833 57.5471L65.3603 65.7072L65.3464 65.7212C61.7952 69.3126 56.4755 70.1299 52.1092 67.7549C42.645 62.6055 34.9513 55.7984 29.2416 47.5233C28.9706 47.1305 28.4485 47.0432 28.0754 47.3286C27.7023 47.614 27.6196 48.1634 27.8905 48.5562C33.7545 57.0552 41.6449 64.04 51.3423 69.3167C53.2511 70.3549 55.3181 70.8607 57.3716 70.8607C60.6985 70.8607 63.9885 69.5322 66.5029 66.9892L68.3224 65.1502C69.2299 64.2316 69.6574 62.9549 69.4976 61.6432C69.4961 61.6264 69.494 61.61 69.4915 61.5934ZM27.4854 22.8269L28.2809 22.0534C28.8081 21.541 29.515 21.3252 30.2212 21.4609C30.9263 21.5967 31.5144 22.0617 31.8348 22.7372L36.8354 33.2647C37.2444 34.1258 37.097 35.1748 36.4689 35.8747L34.9593 37.5555L27.4854 22.8269Z" fill="white"/>
<path d="M71.2695 31.4543C71.2695 29.7615 69.9611 28.3843 68.3529 28.3843C66.7449 28.3843 65.4365 29.7615 65.4365 31.4543C65.4365 33.147 66.7449 34.5242 68.3529 34.5242C69.9611 34.5242 71.2695 33.147 71.2695 31.4543ZM67.1062 31.4543C67.1062 30.7307 67.6654 30.142 68.3528 30.142C69.0403 30.142 69.5995 30.7307 69.5995 31.4543C69.5995 32.1779 69.0403 32.7665 68.3528 32.7665C67.6654 32.7665 67.1062 32.1779 67.1062 31.4543Z" fill="white"/>
<path d="M62.7519 31.4543C62.7519 29.7615 61.4435 28.3843 59.8355 28.3843C58.2273 28.3843 56.9189 29.7615 56.9189 31.4543C56.9189 33.147 58.2273 34.5242 59.8355 34.5242C61.4435 34.5242 62.7519 33.147 62.7519 31.4543ZM58.5887 31.4543C58.5887 30.7307 59.148 30.142 59.8354 30.142C60.5228 30.142 61.082 30.7307 61.082 31.4543C61.082 32.1779 60.5228 32.7665 59.8354 32.7665C59.148 32.7665 58.5887 32.1779 58.5887 31.4543Z" fill="white"/>
<path d="M48.4014 31.4543C48.4014 33.147 49.7096 34.5242 51.3179 34.5242C52.9262 34.5242 54.2344 33.147 54.2344 31.4543C54.2344 29.7615 52.9261 28.3843 51.3179 28.3843C49.7097 28.3843 48.4014 29.7615 48.4014 31.4543ZM51.3179 30.142C52.0053 30.142 52.5646 30.7307 52.5646 31.4543C52.5646 32.1779 52.0053 32.7665 51.3179 32.7665C50.6305 32.7665 50.0713 32.1779 50.0713 31.4543C50.0713 30.7307 50.6305 30.142 51.3179 30.142Z" fill="white"/>
</svg>
