<svg width="98" height="70" viewBox="0 0 98 70" fill="none" xmlns="http://www.w3.org/2000/svg">
<path d="M3.65352 50.7259C3.48401 50.7259 3.3145 50.6981 3.1604 50.6981C3.08336 50.6981 2.9909 50.6702 2.91385 50.6146C2.69811 50.4476 2.48237 50.4198 2.26663 50.4198C2.06631 50.4198 1.88139 50.4198 1.68106 50.4198C1.57319 50.4198 1.44991 50.4198 1.35745 50.3641C1.12631 50.225 0.87975 50.1693 0.633192 50.1137C0.586963 50.1137 0.525324 50.0302 0.494504 49.9467C0.448275 49.8354 0.386635 49.6962 0.371225 49.5571C0.263357 48.9449 0.140078 48.3326 0.0167993 47.7204C-0.0140203 47.5813 0.00138951 47.4143 0.0322092 47.2752C0.124668 46.969 0.155488 46.6351 0.201717 46.2733C0.247947 45.8837 0.324996 45.522 0.371225 45.1045C0.402045 44.8819 0.402045 44.7149 0.324996 44.548C0.294176 44.4645 0.263357 44.381 0.232537 44.2975C0.140078 43.9636 0.140078 43.6296 0.201717 43.2957C0.247947 43.1009 0.340406 42.9896 0.448275 42.9339C0.556143 42.8782 0.664012 42.8782 0.771881 42.8504C0.84893 42.8226 0.941389 42.7948 1.01844 42.7669C1.08008 42.7391 1.1109 42.6556 1.09549 42.5443C1.09549 42.5165 1.06467 42.4608 1.04926 42.433C1.03385 42.4052 1.00303 42.3495 0.987619 42.3495C0.710242 42.2938 0.448275 42.099 0.217127 41.8486C0.186307 41.8208 0.170898 41.7929 0.155488 41.7651C0.0938485 41.6816 0.0784386 41.4868 0.155488 41.4033C0.386635 41.1529 0.371225 40.8746 0.278766 40.5128C0.232537 40.3458 0.186307 40.1511 0.186307 39.9562C0.186307 39.7058 0.170898 39.4553 0.186307 39.2049C0.217127 38.9544 0.278766 38.7318 0.432865 38.6761C0.463684 38.6761 0.494504 38.6483 0.509914 38.6205C0.540734 38.5927 0.571553 38.537 0.571553 38.537C0.540734 38.4535 0.494504 38.4257 0.432865 38.3979C0.355816 38.37 0.263357 38.37 0.186307 38.3422C0.124668 38.3144 0.047619 38.0917 0.0630288 37.9804C0.0938485 37.73 0.170898 37.5073 0.124668 37.2569C0.0938485 37.0343 0.109258 36.9786 0.186307 36.8951C0.309586 36.7838 0.432865 36.6447 0.540734 36.5333C0.617783 36.4499 0.633192 36.2272 0.571553 36.1437C0.525324 36.0881 0.494504 36.0046 0.448275 35.9489C0.386635 35.8376 0.324996 35.7541 0.263357 35.6428C0.201717 35.5315 0.201717 35.3367 0.247947 35.2254C0.294176 35.1697 0.324996 35.0863 0.371225 35.0306C0.479094 34.8915 0.586963 34.7245 0.664012 34.5019C0.741061 34.2514 0.86434 34.1957 1.01844 34.1679C1.12631 34.1401 1.23418 34.1401 1.34204 34.0844C1.40368 34.0566 1.4345 33.9731 1.4345 33.8618C1.4345 33.7783 1.38827 33.667 1.32663 33.667C1.04926 33.6114 0.771881 33.6114 0.494504 33.5557C0.448275 33.5557 0.386635 33.4722 0.340406 33.4444C0.232537 33.3331 0.201717 33.1104 0.278766 32.9713C0.432865 32.693 0.494504 32.4147 0.371225 32.0251C0.324996 31.886 0.340406 31.7468 0.417455 31.6355C0.432865 31.6077 0.463684 31.552 0.479094 31.552C0.586963 31.4964 0.694832 31.4686 0.802701 31.4964C1.21877 31.552 1.63483 31.4686 2.0509 31.4686C2.08172 31.4686 2.11254 31.4407 2.12795 31.4407C2.15877 31.4129 2.17418 31.3851 2.18959 31.3572C2.15877 31.3294 2.14336 31.3016 2.11254 31.2738C1.92762 31.1903 1.72729 31.2738 1.52696 31.2181C1.44991 31.1903 1.35745 31.2181 1.28041 31.1346C1.01844 30.8842 0.756471 30.8842 0.479094 30.8563C0.417455 30.8563 0.386635 30.745 0.402045 30.6894C0.417455 30.6615 0.432865 30.6059 0.463684 30.6059C0.494504 30.578 0.525324 30.578 0.540734 30.578C0.756471 30.578 0.987619 30.578 1.18795 30.3832C1.46532 30.2998 1.71188 30.0493 1.97385 29.9102C1.98926 29.9102 2.00467 29.8267 2.03549 29.7988C2.02008 29.771 1.98926 29.7432 1.97385 29.7154C1.8968 29.6597 1.81975 29.6597 1.72729 29.6597C1.44991 29.6597 1.17254 29.6597 0.89516 29.6597C0.756471 29.6597 0.633192 29.5206 0.525324 29.3536C0.463684 29.2423 0.463684 29.0753 0.509914 28.964C0.540734 28.8805 0.586963 28.8527 0.648602 28.797C0.741061 28.7135 0.741061 28.5744 0.679422 28.4352C0.571553 28.1291 0.371225 28.0178 0.217127 27.823C0.170898 27.7395 0.155488 27.656 0.170898 27.5447C0.170898 27.4891 0.186307 27.4613 0.201717 27.4056C0.232537 27.3221 0.247947 27.2386 0.278766 27.1273C0.371225 26.7655 0.463684 26.7377 0.602373 26.8212C0.741061 26.9047 0.87975 26.9047 1.00303 26.7934C1.1109 26.7099 1.21877 26.6542 1.31122 26.5429C1.46532 26.3759 1.61942 26.3481 1.78893 26.3481C2.3745 26.3759 2.96008 26.3759 3.53024 26.3481C3.69975 26.3481 3.74598 26.209 3.68434 25.9863C3.60729 25.6802 3.63811 25.4019 3.69975 25.1237C3.73057 24.9845 3.69975 24.8454 3.63811 24.7341C3.54565 24.5393 3.43778 24.4001 3.36073 24.1775C3.3145 24.0383 3.3145 23.8714 3.36073 23.7601C3.42237 23.5931 3.51483 23.4818 3.59188 23.3426C3.74598 23.0922 3.80762 22.7582 3.82303 22.3965C3.82303 22.2573 3.82303 22.0903 3.82303 21.9512C3.82303 21.7007 3.79221 21.4503 3.69975 21.2555C3.65352 21.1442 3.59188 21.005 3.54565 20.8937C3.49942 20.7546 3.48401 20.6154 3.48401 20.4763C3.48401 20.1702 3.51483 19.8919 3.59188 19.6136C3.63811 19.4466 3.69975 19.2797 3.74598 19.0849C3.7768 18.9457 3.7768 18.8066 3.74598 18.6396C3.71516 18.5561 3.69975 18.4726 3.66893 18.3613C3.65352 18.2778 3.6227 18.1665 3.6227 18.083C3.63811 17.7491 3.60729 17.3873 3.71516 17.0534C3.7768 16.8308 3.80762 16.5803 3.79221 16.3298C3.76139 15.8289 3.79221 15.328 3.85385 14.8271C3.88467 14.6323 3.88467 14.4375 3.85385 14.2427C3.80762 13.9088 3.74598 13.5748 3.66893 13.2409C3.65352 13.1574 3.65352 13.0461 3.68434 12.9626C3.76139 12.6287 3.80762 12.2947 3.80762 11.9329C3.80762 11.6825 3.86926 11.4599 3.94631 11.2372C4.02336 11.0424 4.06958 10.792 4.08499 10.5415C4.1004 10.0963 4.13122 9.651 4.13122 9.20575C4.13122 8.84398 4.16204 8.51003 4.2545 8.20392C4.26991 8.14826 4.26991 8.12043 4.28532 8.06478C4.31614 7.73083 4.30073 7.36906 4.39319 7.03512C4.37778 6.92381 4.37778 6.84032 4.36237 6.72901C4.36237 6.61769 4.33155 6.50638 4.36237 6.42289C4.45483 6.03329 4.47024 5.6437 4.45483 5.2541C4.43942 4.94798 4.47024 4.64187 4.54729 4.39141C4.59352 4.25227 4.60893 4.11313 4.60893 3.97398C4.62434 3.72353 4.62434 3.47307 4.65516 3.22262C4.67057 3.02782 4.74762 2.86084 4.84008 2.74953C5.0404 2.49907 5.22532 2.27645 5.45647 2.27645C5.54893 2.27645 5.61057 2.22079 5.68762 2.1373C5.79549 2.05382 5.90335 2.02599 6.01122 1.99816C6.21155 1.97033 6.39647 1.97033 6.5968 1.9425C6.70467 1.91468 6.82794 1.9425 6.9204 1.85902C7.2286 1.71988 7.52139 1.69205 7.82958 1.69205C8.63089 1.69205 9.43221 1.66422 10.2489 1.66422C10.9732 1.66422 11.6974 1.66422 12.4063 1.66422C12.6374 1.66422 12.8532 1.63639 13.0535 1.49725C13.1614 1.44159 13.2847 1.44159 13.3925 1.49725C13.4388 1.52508 13.5004 1.5529 13.5466 1.58073C13.6853 1.63639 13.824 1.63639 13.9627 1.5529C14.0706 1.49725 14.1784 1.44159 14.2863 1.44159C14.9797 1.44159 15.6732 1.3581 16.3666 1.38593C16.8597 1.41376 17.3683 1.3581 17.8614 1.3581C18.0309 1.3581 18.185 1.30245 18.3545 1.21896C18.4315 1.16331 18.524 1.13548 18.6011 1.13548C19.125 1.10765 19.6489 1.07982 20.1729 1.05199C20.2807 1.05199 20.3886 0.996334 20.4965 0.940677C20.5735 0.88502 20.6506 0.88502 20.743 0.912849C20.8817 0.996334 21.0204 1.02416 21.1437 0.912849C21.3286 0.773706 21.5289 0.773706 21.7138 0.745878C21.9296 0.718049 22.1607 0.745878 22.3765 0.745878C22.5922 0.745878 22.8233 0.690221 23.0391 0.578906C23.2548 0.467592 23.486 0.467592 23.7017 0.578906C23.9637 0.718049 24.2411 0.745878 24.503 0.940677C24.5801 0.996334 24.6725 0.968506 24.7496 0.912849C24.8729 0.801535 25.0115 0.745878 25.1502 0.745878C25.3506 0.718049 25.5355 0.718049 25.7204 0.578906C25.7974 0.523249 25.8745 0.523249 25.967 0.495421C26.0902 0.467592 27.7545 0.495421 27.8778 0.523249C27.9548 0.551078 28.0473 0.578906 28.1243 0.634563C28.186 0.662392 28.2322 0.662392 28.2938 0.634563C28.3401 0.606735 28.4017 0.578906 28.4479 0.551078C28.6174 0.495421 28.7715 0.495421 28.941 0.606735C29.0027 0.634563 29.0489 0.634563 29.0951 0.606735C29.3879 0.411935 29.6961 0.439764 29.9889 0.662392C30.066 0.718049 30.143 0.718049 30.2355 0.662392C30.3125 0.634564 30.3896 0.606735 30.482 0.662392C30.6207 0.745878 30.7594 0.745878 30.8981 0.662392C31.1447 0.523249 31.3912 0.467592 31.6378 0.467592C31.9922 0.467592 32.362 0.439764 32.7165 0.439764C32.886 0.439764 33.0401 0.356278 33.2096 0.244964C33.3174 0.161479 33.4253 0.161479 33.5332 0.244964C33.5794 0.272793 33.641 0.300621 33.6873 0.32845C33.7643 0.356278 33.8568 0.384107 33.9338 0.300621C34.1496 0.105822 34.3653 0.105822 34.581 0.189307C34.7506 0.244964 34.9047 0.356278 35.0742 0.244964C35.1204 0.217136 35.182 0.244964 35.2283 0.272793C35.3669 0.356278 35.4902 0.32845 35.6289 0.300621C35.9525 0.189307 36.2761 0.105822 36.6151 0.161479C36.723 0.189307 36.8309 0.217136 36.9542 0.189307C37.4781 0.0779933 38.002 0.161479 38.526 0.13365C38.8804 0.217136 39.2502 0.189307 39.6047 0.161479C39.805 0.13365 39.9899 0.189307 40.1748 0.356278C40.221 0.384107 40.2827 0.411935 40.3289 0.356278C40.5138 0.217136 40.6987 0.161479 40.8991 0.161479C41.2073 0.161479 41.5155 0.13365 41.8083 0.13365C42.1627 0.105822 42.5325 0.161479 42.8869 0.244964C42.964 0.272793 43.041 0.32845 43.1335 0.356278C43.2106 0.411935 43.303 0.411935 43.3801 0.356278C43.5342 0.272793 43.7037 0.217136 43.8732 0.189307C44.2892 0.13365 44.7053 0.217136 45.1214 0.217136C45.1984 0.217136 45.2909 0.244964 45.3679 0.300621C45.5837 0.439764 45.784 0.495421 46.0151 0.300621C46.2001 0.161479 46.4004 0.161479 46.5853 0.272793C46.6315 0.300621 46.6932 0.356278 46.7394 0.384107C46.7856 0.411935 46.8473 0.439764 46.9089 0.439764C46.986 0.439764 47.0784 0.467592 47.1555 0.411935C47.3404 0.272793 47.5253 0.217136 47.7256 0.217136C47.926 0.244964 48.1109 0.189307 48.3112 0.161479C48.7581 0.13365 49.205 0.105822 49.6365 0.189307C49.7443 0.217136 49.8522 0.244964 49.9601 0.300621C50.0217 0.32845 50.0679 0.32845 50.1142 0.272793C50.3299 0.105822 50.5456 0.161479 50.7614 0.0223362C50.823 -0.00549228 50.8692 -0.00549228 50.9309 0.0223362C51.2853 0.161479 51.6397 0.189307 52.0096 0.13365C52.5027 0.0501647 53.0112 0.13365 53.5043 0.13365C53.643 0.13365 53.7817 0.189307 53.905 0.272793C53.982 0.32845 54.0591 0.300621 54.1515 0.272793C54.2286 0.244964 54.321 0.189307 54.3981 0.189307C54.8142 0.217136 55.2302 0.161479 55.6463 0.161479C55.7542 0.161479 55.8774 0.13365 55.9853 0.161479C56.201 0.217136 56.4322 0.161479 56.6479 0.189307C56.7096 0.189307 56.7558 0.244964 56.802 0.272793C56.8483 0.300621 56.9099 0.300621 56.9561 0.244964C57.0794 0.13365 57.2181 0.0779933 57.3568 0.105822C58.5433 0.161479 59.7453 0.105822 60.9319 0.189307C61.1784 0.217136 61.425 0.189307 61.6869 0.189307C61.8256 0.189307 61.9643 0.217136 62.103 0.300621C62.18 0.356278 62.2725 0.300621 62.3496 0.272793C62.4112 0.272793 62.4574 0.244964 62.5191 0.272793C62.7348 0.411935 62.9505 0.411935 63.1817 0.411935C63.7364 0.411935 64.2912 0.411935 64.8459 0.439764C65.0309 0.439764 65.2312 0.439764 65.4161 0.606735C65.4623 0.662392 65.524 0.69022 65.5702 0.634563C65.7551 0.495421 65.94 0.467592 66.1404 0.495421C66.3407 0.523249 66.5256 0.495421 66.726 0.495421C66.8646 0.495421 67.0033 0.523249 67.1266 0.606735C67.1728 0.634563 67.2345 0.662392 67.2807 0.69022C67.4502 0.745878 67.6197 0.745878 67.7738 0.606735C67.8817 0.523249 67.9896 0.495421 68.0974 0.578906C68.2053 0.662392 68.2978 0.718049 68.421 0.718049C68.7292 0.718049 69.0374 0.718049 69.3302 0.745878C69.5305 0.745878 69.7155 0.745878 69.9004 0.88502C69.9928 0.940677 70.0545 0.829363 70.1007 0.718049C70.1315 0.634564 70.1932 0.606735 70.2394 0.634563C70.3781 0.718049 70.5168 0.745878 70.6555 0.745878C71.2102 0.745878 71.765 0.773706 72.3197 0.773706C72.5355 0.773706 72.7666 0.801535 72.9823 0.940677C73.1673 1.05199 73.3676 0.996334 73.5525 1.05199C73.6912 1.07982 73.8299 1.10765 73.9686 1.13548C74.1997 1.38593 74.4463 1.3581 74.6928 1.3581C74.924 1.3581 75.1397 1.38593 75.34 1.58073C75.3863 1.63639 75.4479 1.63639 75.4941 1.63639C75.5558 1.63639 75.602 1.63639 75.6637 1.63639C76.28 1.58073 76.881 1.66422 77.4974 1.69205C77.6977 1.69205 77.8827 1.80336 78.0368 2.02599C78.1292 2.16513 78.2371 2.1373 78.345 2.05382C78.4528 1.97033 78.5607 1.99816 78.6686 2.08165C78.8227 2.22079 78.9768 2.27645 79.1463 2.27645C79.285 2.27645 79.4236 2.27645 79.5623 2.27645C79.6702 2.27645 79.7781 2.3321 79.8859 2.38776C79.963 2.44342 80.0554 2.38776 80.1325 2.38776C80.1941 2.38776 80.2404 2.35993 80.302 2.38776C80.5177 2.5269 80.7335 2.5269 80.9646 2.5269C81.5194 2.55473 82.0741 2.55473 82.6289 2.58256C82.6751 2.58256 82.7368 2.63822 82.783 2.66604C82.8446 2.69387 82.8754 2.77736 82.86 2.9165C82.8446 2.99999 82.8138 3.1113 82.7522 3.1113C82.5364 3.16696 82.3207 3.22262 82.105 3.36176C82.0587 3.38959 81.9971 3.36176 81.9354 3.33393C81.7813 3.22262 81.6118 3.16696 81.4423 3.27827C81.2882 3.38959 81.1187 3.44524 80.9492 3.47307C80.8876 3.5009 80.8413 3.52873 80.8413 3.61221C80.8413 3.61221 80.8876 3.66787 80.9184 3.66787C81.3345 3.6957 81.7505 3.72353 82.1666 3.72353C82.444 3.72353 82.7214 3.75136 82.9987 3.75136C83.2145 3.75136 83.4456 3.77919 83.6459 3.94616C83.6922 3.97398 83.7538 3.97398 83.8154 3.94616C84.1699 3.6957 84.5243 3.77919 84.8787 3.83484C84.925 3.83484 84.9866 3.8905 85.0328 3.91833C85.1407 4.00181 85.2486 4.02964 85.3564 4.02964C85.5259 4.05747 85.6954 4.05747 85.8495 4.0853C85.8804 4.0853 85.9112 4.11313 85.9266 4.14096C85.942 4.22444 85.8958 4.2801 85.8495 4.33576C85.6184 4.58621 85.3872 4.64187 85.1253 4.53055C85.0174 4.4749 84.9095 4.4749 84.8017 4.53055C84.5551 4.6697 84.3086 4.64187 84.062 4.50273C84.0004 4.4749 83.9541 4.44707 83.9079 4.4749C83.6151 4.6697 83.3069 4.55838 82.9987 4.55838C82.9217 4.55838 82.8292 4.53055 82.7522 4.4749C82.6135 4.39141 82.4902 4.41924 82.3515 4.4749C81.92 4.69753 81.4732 4.72535 81.0417 4.44707C80.8413 4.30793 80.6718 4.44707 80.5177 4.6697C80.5023 4.69753 80.5023 4.78101 80.5177 4.78101C80.564 4.80884 80.6256 4.83667 80.6718 4.8645C80.8413 4.89233 81.0109 4.92015 81.165 4.89233C81.6427 4.80884 82.105 4.89233 82.5827 4.92015C82.6597 4.92015 82.7522 4.94798 82.8292 5.00364C82.9371 5.08712 83.045 5.0593 83.1528 5.00364C83.2299 4.97581 83.3223 5.00364 83.3994 5.0593C83.5072 5.14278 83.6151 5.14278 83.723 5.0593C83.9387 4.92015 84.1545 4.92015 84.3702 5.0593C84.6013 5.22627 84.8479 5.2541 85.1099 5.22627C85.3102 5.19844 85.4951 5.28192 85.6646 5.4489C85.8033 5.58804 85.9266 5.53238 86.0653 5.39324C86.0961 5.36541 86.1115 5.33758 86.1423 5.33758C86.204 5.28192 86.2964 5.30975 86.3581 5.47672C86.4505 5.69935 86.5584 5.78284 86.7125 5.78284C86.7741 5.78284 86.8204 5.78284 86.882 5.81067C86.9436 5.8385 86.9745 5.92198 86.9745 6.00547C86.9745 6.03329 86.9436 6.08895 86.9128 6.08895C86.7433 6.11678 86.5892 6.14461 86.4197 6.20027C86.3581 6.22809 86.3272 6.28375 86.2964 6.36724C86.2502 6.47855 86.3272 6.64552 86.4197 6.70118C86.4505 6.70118 86.4813 6.72901 86.4968 6.72901C86.5738 6.70118 86.6509 6.64552 86.7279 6.58986C86.8358 6.50638 86.9436 6.47855 87.0515 6.58986C87.0977 6.64552 87.144 6.67335 87.2056 6.72901C87.2518 6.78466 87.2981 6.84032 87.2981 6.95164C87.2981 6.97946 87.2518 7.00729 87.221 7.00729C87.144 7.03512 87.0515 7.03512 86.9745 7.03512C86.3581 7.00729 85.7571 7.06295 85.1407 7.09078C85.0174 7.09078 84.925 7.17426 84.8479 7.31341C84.6784 7.61952 84.4627 7.67518 84.2315 7.67518C83.6768 7.67518 83.122 7.67518 82.5673 7.70301C82.4902 7.70301 82.4131 7.78649 82.3515 7.92563C82.3361 7.95346 82.3207 8.00912 82.3361 8.06478C82.3361 8.0926 82.3669 8.14826 82.3823 8.14826C82.4286 8.17609 82.4902 8.20392 82.5364 8.23175C82.86 8.31523 83.1991 8.2874 83.5381 8.2874C83.9541 8.2874 84.3702 8.2874 84.7863 8.2874C84.9558 8.2874 85.1099 8.31523 85.2794 8.39872C85.3872 8.45438 85.4951 8.45438 85.603 8.4822C85.942 8.51003 86.2656 8.4822 86.5892 8.31523C86.6971 8.25958 86.8049 8.2874 86.9128 8.34306C86.9745 8.37089 87.0053 8.45438 87.0053 8.56569C87.0053 8.62135 86.9899 8.64917 86.9899 8.70483C86.9745 8.76049 86.959 8.78832 86.9436 8.81615C86.8049 8.95529 86.6663 9.12226 86.4968 9.17792C86.4197 9.20574 86.3272 9.2614 86.2656 9.31706C86.1115 9.48403 85.9574 9.51186 85.7879 9.51186C85.7109 9.51186 85.68 9.56752 85.7109 9.651C85.7263 9.67883 85.7417 9.73449 85.7725 9.73449C85.9266 9.87363 86.0653 10.0128 86.2502 9.98494C86.3889 9.98494 86.5276 10.0128 86.6663 10.0406C86.7125 10.0406 86.7895 10.0684 86.8204 10.1241C86.8512 10.1797 86.8358 10.3189 86.8358 10.4024C86.8358 10.5137 86.8666 10.5693 86.9282 10.5972C87.0053 10.625 87.0977 10.6528 87.1748 10.7085C87.221 10.7363 87.2673 10.792 87.3135 10.8755C87.3905 10.9868 87.4213 11.1537 87.3905 11.2651C87.2981 11.6268 87.2056 11.9886 87.1132 12.3504C87.0669 12.5452 86.9899 12.6565 86.882 12.7678C86.805 12.8235 86.7433 12.9069 86.6817 13.0183C86.6508 13.0739 86.6354 13.1852 86.62 13.2687C86.6046 13.3522 86.7125 13.5748 86.7741 13.5748C86.805 13.5748 86.8358 13.6026 86.8512 13.6026C86.9899 13.6026 87.1286 13.6305 87.2673 13.6305C87.4059 13.6305 87.5446 13.6583 87.6833 13.6583C87.7604 13.6583 87.7912 13.714 87.7758 13.7975C87.7758 13.8531 87.745 13.8809 87.7295 13.9088C87.56 14.0757 87.3751 14.2149 87.1748 14.2149C87.1131 14.2149 87.0669 14.2149 87.0053 14.2427C86.8358 14.2705 86.7741 14.4097 86.7587 14.7158C86.7587 14.8271 86.8358 15.0219 86.8974 15.0219C87.1748 15.0776 87.4522 15.1054 87.7295 15.161C87.8066 15.1889 87.8836 15.2724 87.9453 15.3558C88.0069 15.4393 88.0223 15.662 87.9607 15.7454C87.822 15.9124 87.6833 16.0794 87.5446 16.2185C87.4676 16.302 87.3905 16.3577 87.3135 16.3577C87.0669 16.3855 86.8204 16.3855 86.5738 16.5246C86.3735 16.5525 86.1886 16.5525 85.9882 16.5803C85.68 16.6081 85.3718 16.636 85.0791 16.6638C85.0482 16.6638 85.0328 16.6916 85.002 16.7194C85.0174 16.7473 85.0174 16.8029 85.0328 16.8029C85.1869 16.9142 85.341 16.9977 85.4489 17.276C85.5413 17.4986 85.6954 17.4986 85.8341 17.5265C85.8958 17.5265 85.942 17.5821 85.9728 17.6656C85.9728 17.6656 85.942 17.7491 85.9112 17.7491C85.7725 17.8048 85.6338 17.8604 85.5105 17.9717C85.3872 18.1109 85.2332 18.0552 85.1099 18.1109C85.0791 18.1109 85.0482 18.1387 85.0328 18.1665C85.002 18.2222 85.0174 18.3057 85.0636 18.3892C85.1561 18.5005 85.2486 18.6118 85.3256 18.7509C85.4335 18.9179 85.5722 19.0014 85.7109 19.0014C85.9112 19.0014 86.0961 19.0292 86.2964 19.0292C86.3735 19.0292 86.4659 19.0292 86.543 19.0849C86.8666 19.2797 87.2056 19.2518 87.5292 19.3353C87.5909 19.3632 87.6371 19.4188 87.6217 19.5023C87.6217 19.558 87.6063 19.5858 87.5909 19.6414C87.5446 19.7806 87.4676 19.8641 87.3905 19.8919C87.2518 19.9197 87.1132 19.9476 86.9745 19.9754C86.8666 20.0032 86.7433 19.9754 86.6509 20.031C86.4043 20.198 86.1577 20.1702 85.9112 20.198C85.6954 20.2258 85.4643 20.2258 85.2486 20.2537C85.2177 20.2537 85.2023 20.3093 85.1869 20.3372C85.2023 20.365 85.2023 20.4206 85.2332 20.4206C85.2794 20.4485 85.341 20.4763 85.3873 20.5041C85.6646 20.5598 85.942 20.5319 86.2194 20.5319C86.3889 20.5319 86.5584 20.5319 86.7125 20.5598C86.7433 20.5598 86.7741 20.5876 86.7741 20.6433C86.7895 20.6989 86.7587 20.7824 86.6971 20.7824C86.5584 20.8102 86.4197 20.8102 86.281 20.8102C86.1731 20.8102 86.0653 20.8381 85.9574 20.9215C85.8341 21.0329 85.6954 21.0607 85.5568 21.0885C85.3102 21.1163 85.0636 21.1164 84.8017 21.1442C84.7246 21.1442 84.6322 21.1442 84.5551 21.172C84.401 21.2277 84.2469 21.3946 84.0774 21.3946C83.9079 21.3946 83.7384 21.3946 83.5843 21.4781C83.5535 21.4781 83.5381 21.5338 83.5227 21.5616C83.5381 21.5894 83.5689 21.6173 83.5997 21.6451C83.7076 21.7007 83.8154 21.7007 83.9233 21.7007C84.2469 21.7007 84.5859 21.6729 84.9095 21.7842C84.9404 21.7842 84.9558 21.8399 84.9712 21.8677C84.9558 21.8955 84.9249 21.9512 84.9095 21.9512C84.8325 21.979 84.74 22.0069 84.663 22.0069C84.3548 22.0347 84.062 22.0069 83.7538 22.0903C83.7384 22.0903 83.7076 22.146 83.6922 22.1738C83.7076 22.2017 83.723 22.2573 83.7538 22.2851C83.9079 22.3686 84.0774 22.3408 84.2315 22.4799C84.2777 22.5356 84.3394 22.5356 84.3856 22.4799C84.5089 22.3965 84.6476 22.3408 84.7863 22.3408C84.9558 22.3408 85.1253 22.313 85.2794 22.313C85.4489 22.313 85.603 22.3686 85.7571 22.5356C85.8033 22.5913 85.8495 22.6191 85.9112 22.6469C86.0499 22.7026 86.1731 22.7582 86.2964 22.8974C86.5738 23.1478 86.8666 23.287 87.1748 23.3148C87.2518 23.3148 87.2827 23.3983 87.2518 23.4539C87.2364 23.4818 87.2056 23.5096 87.1748 23.5096C86.7279 23.5374 86.281 23.5931 85.8495 23.6209C85.6492 23.6209 85.4643 23.6487 85.2794 23.7601C85.2023 23.8157 85.1099 23.8157 85.0328 23.7879C84.8941 23.7322 84.7709 23.7322 84.6322 23.7879C84.4935 23.8435 84.3548 23.8435 84.2161 23.8714C83.9695 23.8992 83.723 23.8992 83.461 23.927C83.3531 23.927 83.2299 23.927 83.1374 24.0105C82.8754 24.2053 82.5981 24.2053 82.3207 24.261C82.1512 24.2888 81.9971 24.4001 81.8738 24.5671C81.8584 24.5949 81.8584 24.6506 81.8584 24.6784C81.8738 24.7062 81.9046 24.7341 81.9354 24.7341C82.3515 24.7341 82.7676 24.7341 83.1836 24.7341C83.2915 24.7341 83.4148 24.7341 83.5072 24.6784C83.6922 24.5671 83.8925 24.5671 84.0774 24.5393C84.4318 24.5114 84.8017 24.5114 85.1561 24.4836C85.4335 24.4836 85.7109 24.4836 85.9728 24.6506C86.0807 24.7341 86.1886 24.7062 86.2964 24.7062C86.4967 24.7062 86.6817 24.7062 86.8666 24.8175C86.9282 24.8454 86.9591 24.9289 86.9745 25.0402C86.9899 25.1515 86.9745 25.235 86.8974 25.2628C86.8512 25.2906 86.7895 25.3185 86.7433 25.3463C86.5738 25.3741 86.4197 25.4019 86.2502 25.4298C86.0807 25.4298 85.9266 25.5411 85.7571 25.5967C85.7109 25.6246 85.6492 25.5967 85.5876 25.5967C85.5105 25.5689 85.4335 25.5411 85.341 25.5967C85.1253 25.7359 84.9095 25.7359 84.6784 25.7359C84.4781 25.7359 84.2931 25.7359 84.0928 25.7359C84.0466 25.7359 83.9849 25.7915 83.9387 25.8194C83.8925 25.8472 83.8463 25.9307 83.8 25.9863C83.6614 26.1811 83.5073 26.2646 83.3377 26.2646C82.8909 26.2925 82.444 26.3203 82.0125 26.3481C81.9354 26.3481 81.843 26.3759 81.7659 26.4316C81.581 26.5707 81.3961 26.6264 81.1958 26.6264C81.0263 26.6264 80.8568 26.6264 80.7027 26.6542C80.6256 26.6542 80.5331 26.6821 80.4561 26.7377C80.2712 26.849 80.0863 26.9325 79.9013 27.0438C79.7472 27.1551 79.5777 27.183 79.4082 27.183C79.2695 27.183 79.1309 27.2664 79.0076 27.3778C78.9305 27.4334 78.8535 27.4891 78.7764 27.4891C78.4682 27.5169 78.16 27.5447 77.8827 27.7395C77.7132 27.7674 77.5591 27.823 77.3895 27.8508C77.3433 27.8787 77.2817 27.9065 77.2355 27.9622C77.1892 28.0178 77.143 28.1013 77.143 28.1848C77.143 28.2683 77.1738 28.3518 77.2355 28.3518C77.3125 28.3796 77.405 28.3796 77.482 28.4074C77.5436 28.4074 77.5899 28.4631 77.5899 28.5466C77.5899 28.5744 77.5436 28.6022 77.5282 28.63C77.4512 28.6579 77.3587 28.6579 77.2817 28.6857C77.22 28.6857 77.1584 28.7414 77.143 28.8248C77.1276 28.9083 77.1738 29.0196 77.22 29.0753C77.2663 29.131 77.3125 29.1866 77.3587 29.2144C77.4358 29.2423 77.5282 29.2701 77.6053 29.2701C77.9443 29.2979 78.2679 29.3258 78.6069 29.3258C78.7764 29.3258 78.9305 29.3814 79.1 29.4649C79.2079 29.5206 79.3158 29.5206 79.4236 29.5206C80.04 29.5484 80.641 29.5484 81.2574 29.5484C81.3961 29.5484 81.5348 29.5484 81.6735 29.5762C81.7505 29.5762 81.8276 29.6597 81.9046 29.7432C81.9509 29.7988 81.9971 29.8545 82.0433 29.8823L82.0279 29.8545C81.9971 30.0771 81.8892 30.1328 81.8122 30.2719C81.7351 30.3832 81.7351 30.5502 81.7968 30.6615C81.8276 30.7172 81.8738 30.8007 81.92 30.8563C81.9354 30.8842 81.9354 30.9676 81.9354 30.9676C81.7968 31.1346 81.6273 31.1346 81.4732 31.2459C81.3499 31.3294 81.1958 31.3294 81.0725 31.3851C81.0417 31.3851 81.0263 31.4407 81.0109 31.4686C80.9954 31.5242 81.0263 31.5799 81.1033 31.6077C81.165 31.6355 81.2112 31.6355 81.2728 31.6355C81.3036 31.6355 81.3345 31.6355 81.3499 31.6355C81.6581 31.6355 81.9509 31.8303 82.2436 31.9695C82.2745 31.9695 82.2899 32.0251 82.3053 32.0808C82.3053 32.1086 82.2899 32.1643 82.2591 32.1921C82.105 32.3312 81.9509 32.3869 81.7813 32.4704C81.6735 32.526 81.5656 32.526 81.4577 32.526C80.6872 32.5539 79.9013 32.5817 79.1309 32.6374C79.0692 32.6374 79.023 32.693 79.023 32.7487C79.023 32.7765 79.0692 32.8322 79.0846 32.8322C79.1617 32.86 79.2541 32.86 79.3312 32.86C79.5777 32.86 79.8243 32.8878 80.0863 32.8878C80.2712 32.8878 80.4099 33.027 80.5331 33.2496C80.5486 33.2774 80.5794 33.3052 80.5948 33.3609C80.6256 33.4444 80.6564 33.5279 80.6718 33.6114C80.6872 33.667 80.564 33.9175 80.5177 33.9175C80.4407 33.9453 80.3636 34.0009 80.2712 34.0009C79.6548 34.0288 79.0538 34.0566 78.4374 34.0566C77.4974 34.0566 76.5574 34.0566 75.602 34.0566C75.3246 34.0566 75.0473 34.0844 74.7699 34.1123C74.7391 34.1123 74.7082 34.1401 74.6928 34.1957C74.6774 34.2514 74.7082 34.3071 74.7853 34.3071C75.0318 34.3349 75.2784 34.4184 75.525 34.3905C75.6328 34.3905 75.7407 34.4184 75.8486 34.5019C75.9718 34.6132 76.1105 34.641 76.2492 34.641C76.6345 34.641 77.0197 34.6688 77.4204 34.6688C77.6669 34.6967 77.9135 34.6688 78.16 34.8636C78.2371 34.9193 78.3296 34.8636 78.4066 34.808C78.5145 34.7245 78.6223 34.7245 78.7302 34.808C78.8381 34.8915 78.9459 34.9193 79.0538 34.9193C79.3928 34.9471 79.7164 34.9749 80.0554 35.0028C80.0863 35.0028 80.1171 35.0584 80.1171 35.0863C80.1171 35.1419 80.0863 35.2254 80.0246 35.2254C79.6394 35.2532 79.2541 35.2532 78.8535 35.2532C77.9905 35.2532 77.1276 35.2254 76.28 35.2254C76.0027 35.2254 75.7253 35.2532 75.4479 35.2811C75.3863 35.2811 75.34 35.3645 75.3555 35.448C75.3555 35.5037 75.3709 35.5315 75.3863 35.5872C75.4633 35.7541 75.5558 35.8376 75.6791 35.8098C75.7561 35.782 75.8486 35.7541 75.9256 35.6985C76.0335 35.615 76.1414 35.615 76.2492 35.6985C76.3879 35.8098 76.5112 35.782 76.6499 35.6707C76.7578 35.5872 76.881 35.5593 76.9735 35.6428C77.2355 35.8655 77.5128 35.8655 77.7902 35.9489C77.8673 35.9768 77.9443 36.0603 77.9905 36.1994C78.0368 36.3107 78.0214 36.3942 77.9443 36.422C77.8673 36.4777 77.7902 36.4777 77.6977 36.4777C77.3587 36.4777 77.0351 36.4777 76.6961 36.4777C76.6191 36.4777 76.5266 36.5055 76.4496 36.5055C76.4187 36.5055 76.4033 36.5612 76.3725 36.589C76.3879 36.6168 76.4033 36.6447 76.4187 36.6725C76.5266 36.756 76.6345 36.756 76.7423 36.756C77.1276 36.756 77.5128 36.7003 77.9135 36.7838C77.9751 36.7838 78.0059 36.8673 78.0214 36.9786C78.0214 37.0621 78.0214 37.2012 78.0522 37.2569C78.083 37.3125 78.16 37.3404 78.2063 37.3404C78.4837 37.3682 78.761 37.3682 79.0384 37.396C79.1463 37.396 79.2541 37.4239 79.362 37.5073C79.4853 37.6187 79.624 37.6465 79.7627 37.6465C80.0709 37.6465 80.3791 37.6743 80.6718 37.6743C80.7489 37.6743 80.8413 37.6743 80.9184 37.73C81.2882 38.0361 81.6889 37.8969 82.0587 38.0083C82.1358 38.0361 82.1666 38.0917 82.1358 38.2031C82.1204 38.2587 82.1204 38.2865 82.0895 38.3422C81.9971 38.537 81.843 38.5648 81.7197 38.6483C81.6427 38.6761 81.6273 38.7596 81.6581 38.8709C81.7043 39.0379 81.6427 39.1492 81.581 39.2327C81.5656 39.2605 81.5348 39.2884 81.5348 39.344C81.5194 39.4275 81.5656 39.4832 81.6273 39.4832C81.7043 39.511 81.7968 39.511 81.8738 39.5388C81.9046 39.5388 81.92 39.5667 81.9354 39.6223C81.9663 39.678 81.9354 39.7615 81.8584 39.7615C81.504 39.8449 81.1341 39.7893 80.7797 39.8171C80.641 39.8171 80.5023 39.8449 80.3791 39.9841C80.302 40.0676 80.2095 40.0676 80.1325 40.0119C79.9938 39.9284 79.8705 39.8728 79.7318 39.8728C79.6548 39.8728 79.5623 39.8728 79.4853 39.8728C78.2371 39.9006 76.9889 39.9006 75.7407 39.8449C75.602 39.8449 75.4633 39.8728 75.3246 39.8728C75.263 39.8728 75.2168 39.9284 75.2014 39.9841C75.2322 40.0119 75.2476 40.0397 75.2784 40.0397C75.3555 40.0676 75.4479 40.0676 75.525 40.0676C76.2955 40.0676 77.0814 40.0676 77.8518 40.0954C77.9905 40.0954 78.1292 40.0954 78.2679 40.0954C78.345 40.0954 78.4374 40.1232 78.5145 40.1789C78.6377 40.2902 78.7764 40.318 78.9151 40.3459C79.2541 40.3459 79.5777 40.3737 79.9168 40.3737C80.1325 40.3737 80.3636 40.4015 80.5794 40.4015C80.6564 40.4015 80.7489 40.4293 80.8259 40.485C80.98 40.5963 81.1341 40.6798 81.3036 40.6798C81.5194 40.7076 81.7505 40.7076 81.9663 40.8468C82.0741 40.9024 82.182 40.9024 82.2899 40.9302C82.7368 40.9581 83.1836 40.9581 83.6151 40.9859C83.6922 40.9859 83.7846 41.0137 83.8617 41.0416C83.8925 41.0416 83.9233 41.0694 83.9387 41.0972C83.9541 41.1807 83.9233 41.2364 83.8617 41.2642C83.7846 41.292 83.6922 41.3199 83.6459 41.459C83.6305 41.5425 83.6768 41.6538 83.723 41.7094C83.7384 41.7373 83.7692 41.7651 83.7846 41.7929C83.8617 41.8764 83.9387 41.8764 84.0312 41.8764C84.3086 41.8764 84.5705 42.0156 84.8479 42.1825C85.002 42.266 85.002 42.3217 84.9095 42.6C84.8171 42.8782 84.8171 42.8782 84.925 43.1009C85.002 43.2678 85.002 43.3235 84.8787 43.3792C84.74 43.4348 84.6168 43.5461 84.4935 43.6296C84.3856 43.6853 84.2777 43.7131 84.1699 43.7688C84.0158 43.8522 83.9541 44.1584 84.0466 44.3532C84.0928 44.4645 84.1545 44.5758 84.2161 44.6871C84.2777 44.7984 84.3548 44.8541 84.4318 44.8819C84.5705 44.9097 84.7092 44.9097 84.8479 44.9376C84.9095 44.9376 84.9558 44.9932 84.9558 45.0489C84.9558 45.0767 84.9249 45.1324 84.8941 45.1324C84.8479 45.1602 84.7863 45.188 84.74 45.2158C84.6322 45.2993 84.5859 45.4663 84.6476 45.6889C84.6938 45.9116 84.6784 46.0785 84.6013 46.2455C84.5859 46.2733 84.5705 46.329 84.5397 46.3568C84.3086 46.7186 84.0312 46.969 83.7384 47.136C83.7076 47.136 83.6768 47.1638 83.6613 47.1638C83.461 47.0804 83.2761 47.2751 83.0912 47.3308C83.0758 47.3308 83.045 47.3865 83.045 47.4421C83.045 47.47 83.0604 47.5256 83.0912 47.5256C83.1682 47.6091 83.2453 47.6091 83.3377 47.6091C83.4918 47.6369 83.5843 47.8039 83.6151 48.0543C83.6613 48.3048 83.723 48.3883 83.8463 48.4161C84.2007 48.4439 84.5705 48.4996 84.925 48.5274C84.9404 48.5274 84.9866 48.5553 84.9866 48.5831C84.9866 48.6387 84.9866 48.6944 84.9558 48.7222C84.9095 48.7779 84.8633 48.8335 84.8633 48.9449C84.8633 48.9727 84.9095 49.0005 84.925 49.0005C84.9712 49.0283 85.0328 49.0562 85.0791 49.084C85.1561 49.1397 85.2177 49.2231 85.2486 49.3623C85.2794 49.5014 85.3102 49.6406 85.3718 49.7519C85.4335 49.8354 85.5105 49.9189 85.603 49.891C85.68 49.8632 85.7571 49.8075 85.8495 49.8075C85.9112 49.8075 85.9574 49.8632 85.9882 49.9467C86.019 50.0302 86.019 50.1415 85.9882 50.225C85.8958 50.4198 85.7725 50.5589 85.6338 50.5867C85.4951 50.6146 85.3564 50.6146 85.2177 50.6146C85.1561 50.6146 85.1099 50.6424 85.0482 50.6702C84.9095 50.6981 84.8171 50.9763 84.8633 51.2268C84.8941 51.3659 84.9249 51.5051 84.8941 51.6442C84.8479 51.839 84.7554 51.9503 84.6476 52.0338C84.4164 52.2286 84.1853 52.3956 83.9387 52.4234C83.8771 52.4234 83.8463 52.5069 83.8463 52.6182C83.8617 52.7295 83.8925 52.7852 83.9387 52.8409C83.9695 52.8687 83.9849 52.8965 84.0158 52.8965C84.0928 52.9243 84.1853 52.9522 84.2623 52.9522C84.74 52.9522 85.2023 52.98 85.68 52.98C85.7417 52.98 85.7879 52.98 85.8495 53.0078C86.0191 53.0078 86.1423 53.2305 86.1886 53.5644C86.204 53.6757 86.1731 53.7592 86.1115 53.787C86.0653 53.8148 86.0036 53.8427 85.9574 53.8427C85.4027 53.8983 84.8479 53.9262 84.2931 53.8983C84.0928 53.8983 83.9079 54.0097 83.7538 54.2045C83.7384 54.2323 83.723 54.2879 83.7076 54.3158C83.7076 54.3436 83.723 54.3714 83.7538 54.3993C83.7692 54.4271 83.8 54.4549 83.8308 54.4549C83.9695 54.4827 84.1082 54.4827 84.2469 54.5106C84.4472 54.5106 84.6322 54.5384 84.8171 54.6497C84.9558 54.7054 85.0945 54.7332 85.2332 54.761C85.2948 54.7888 85.3256 54.8723 85.3256 54.9558C85.3256 55.0115 85.3102 55.0671 85.2948 55.095C85.2486 55.2063 85.1869 55.3176 85.1253 55.4289C85.0482 55.568 84.9404 55.6515 84.8325 55.6515C84.8017 55.6515 84.7709 55.6515 84.7554 55.6515C84.5089 55.6237 84.2623 55.6794 84.0312 55.8742C83.9541 55.9298 83.8771 55.9576 83.7846 55.9576C83.5689 55.9855 83.3377 55.9855 83.122 56.0411C82.9833 56.069 82.86 56.1524 82.7368 56.3194C82.7213 56.3472 82.6905 56.4029 82.6905 56.4307C82.6905 56.4586 82.7213 56.5142 82.7522 56.5142C83.1374 56.5977 83.5072 56.8482 83.8925 56.876C83.9387 56.876 84.0158 56.9316 84.0312 57.0151C84.1236 57.2656 84.2777 57.4047 84.4318 57.516C84.5089 57.5717 84.5705 57.683 84.5705 57.85C84.5859 57.9891 84.5859 58.1561 84.6013 58.2952C84.6168 58.4066 84.7092 58.5735 84.7709 58.5735C85.0174 58.6014 85.264 58.6292 85.5105 58.6848C85.5722 58.6848 85.6338 58.7683 85.6184 58.824C85.5876 58.9075 85.5413 58.9353 85.4797 58.9353C85.3718 58.9353 85.264 58.9631 85.1561 58.991C85.1099 59.0188 85.0482 59.0466 85.002 59.0744C84.925 59.1301 84.8633 59.2414 84.8171 59.3806C84.8633 59.5197 84.9404 59.5754 84.9866 59.6867C85.0328 59.7702 85.0328 59.8536 85.0174 59.9371C84.9866 60.0484 84.9404 60.1041 84.8787 60.0763C84.7709 60.0206 84.6784 59.965 84.5551 60.0206C84.4781 60.0484 84.3856 59.9928 84.3086 60.0206C84.2315 60.0484 84.1545 60.1319 84.0774 60.1876C84.0312 60.2154 83.9695 60.2154 83.9233 60.2432C83.9079 60.2711 83.8925 60.2989 83.8617 60.3545C83.8925 60.3824 83.9079 60.4102 83.9387 60.4102C84.1082 60.438 84.2777 60.438 84.4318 60.438C84.8787 60.4102 85.3256 60.4659 85.7571 60.5493C85.8341 60.5772 85.9112 60.6607 85.9728 60.772C86.0191 60.8833 86.0036 60.9668 85.942 61.0224C85.8958 61.0503 85.8341 61.1059 85.7879 61.1059C85.6184 61.1337 85.4489 61.1338 85.2948 61.1616C85.2331 61.1616 85.1869 61.2451 85.1869 61.3285C85.1869 61.4399 85.2177 61.5233 85.264 61.579C85.3873 61.7181 85.5259 61.7181 85.6646 61.746C85.7725 61.7738 85.8804 61.8573 85.9574 61.9964C85.9728 62.0243 86.0036 62.0799 86.0036 62.1356C86.0036 62.1634 85.9882 62.2191 85.9728 62.2469C85.9266 62.3304 85.8187 62.386 85.8341 62.553C85.8495 62.6921 85.9266 62.8035 85.9728 62.9148C86.0036 63.0261 85.9882 63.1096 85.9266 63.1374C85.8804 63.1652 85.8187 63.1931 85.7725 63.1931C85.4951 63.1931 85.2177 63.1931 84.9404 63.2209C84.8787 63.2209 84.8325 63.2487 84.7709 63.2487C84.6938 63.2487 84.6013 63.4713 84.6322 63.5548C84.663 63.6383 84.7092 63.7218 84.7554 63.7496C84.8941 63.8053 85.0328 63.8053 85.1715 63.8331C85.2331 63.8331 85.2794 63.8888 85.3256 63.9444C85.3564 64.0001 85.264 64.2784 85.2177 64.3062C85.1715 64.334 85.1253 64.3897 85.0636 64.4175C84.9249 64.4732 84.7863 64.5288 84.663 64.6123C84.5243 64.7236 84.3856 64.668 84.2623 64.5845C84.2007 64.5567 84.1545 64.5288 84.1082 64.5845C83.9541 64.6958 83.7846 64.7515 83.6151 64.7515C83.5072 64.7515 83.3994 64.7236 83.2761 64.7515C83.1991 64.7515 83.1066 64.7515 83.0295 64.8071C82.7984 65.0019 82.5518 65.0019 82.3053 65.0297C81.8122 65.0576 81.3036 65.0854 80.8105 65.0854C80.7027 65.0854 80.5794 65.0854 80.4869 65.1689C80.302 65.308 80.1171 65.3359 79.9168 65.3359C79.5777 65.3359 79.2541 65.3637 78.9151 65.3915C78.8381 65.3915 78.7456 65.3915 78.6686 65.4472C78.4837 65.5585 78.2987 65.6141 78.0984 65.6141C77.5745 65.642 77.0505 65.642 76.5112 65.6698C76.3725 65.6698 76.2338 65.6976 76.0951 65.7811C75.9564 65.8646 75.8332 65.9202 75.6945 65.9202C75.5866 65.9202 75.4787 65.9202 75.3555 65.9202C75.1859 65.9481 75.0318 66.0037 74.8932 66.1985C74.7699 66.3933 74.6158 66.5047 74.4309 66.5047C73.8145 66.5047 73.2135 66.5325 72.5971 66.5325C72.2581 66.5325 71.9345 66.5325 71.5955 66.5325C71.3951 66.5325 71.2102 66.5881 71.0253 66.6716C70.9482 66.7273 70.8558 66.7273 70.7787 66.7551C70.3627 66.8386 69.9466 66.8108 69.5305 66.7829C69.4227 66.7829 69.3148 66.6995 69.2069 66.6438C69.022 66.5047 68.8371 66.4768 68.6368 66.616C68.5289 66.6994 68.421 66.7551 68.3132 66.7551C68.0666 66.7551 67.82 66.8386 67.5735 66.8108C67.2653 66.7829 66.9571 66.8386 66.6643 66.8386C66.5256 66.8386 66.3869 66.8664 66.2482 66.8386C65.8938 66.7829 65.524 66.8664 65.1696 66.8386C64.8305 66.8108 64.5069 66.8108 64.1679 66.8108C63.9214 66.8108 63.6748 66.8108 63.4128 66.8108C63.2741 66.8108 63.1355 66.7273 63.043 66.5325C63.0122 66.449 62.966 66.3933 62.9197 66.3377C62.8735 66.282 62.8119 66.2542 62.7656 66.282C62.7348 66.282 62.704 66.282 62.6886 66.3099C62.4266 66.5881 62.1646 66.5603 61.9027 66.3099C61.8256 66.2264 61.7486 66.2542 61.6715 66.3099C61.6253 66.3377 61.5791 66.3933 61.5174 66.449C61.3633 66.5603 61.1938 66.5603 61.0397 66.449C60.8856 66.3099 60.7315 66.1985 60.562 66.2264C60.4542 66.2264 60.3463 66.1429 60.2384 66.0872C60.1614 66.0316 60.0689 66.0316 59.9919 66.0872C59.8378 66.2264 59.6683 66.2542 59.4987 66.2542C59.2214 66.282 58.944 66.2264 58.6666 66.282C58.5741 66.3099 58.5125 66.3655 58.5279 66.5603C58.5279 66.6716 58.5125 66.7551 58.4509 66.7829C58.4201 66.7829 58.4046 66.8108 58.3738 66.8108C58.3122 66.8108 58.2505 66.8108 58.2197 66.7551C58.0656 66.5881 57.9115 66.5603 57.742 66.5325C57.665 66.5325 57.5725 66.5603 57.4955 66.616C57.3722 66.7551 57.2489 66.8386 57.1102 66.8386C56.9099 66.8386 56.725 66.8942 56.5401 67.0056C56.463 67.0612 56.3705 67.0612 56.2935 67.0612C56.0778 67.0891 55.8466 67.0612 55.6309 67.0891C55.446 67.1169 55.3073 66.9777 55.184 66.7551C55.1223 66.6438 55.0453 66.5881 54.9528 66.6438C54.9066 66.6716 54.845 66.7273 54.7987 66.7551C54.6446 66.8386 54.4751 66.8942 54.321 67.0334C54.2132 67.1169 54.1053 67.1169 53.9974 67.1169C53.8279 67.0891 53.6584 67.0891 53.5043 66.9777C53.2115 66.7551 52.9033 66.8108 52.5951 66.8386C52.441 67.0056 52.2715 66.9499 52.1174 66.8664C51.6705 66.8386 51.2237 66.7829 50.7922 66.8386C50.6843 66.8664 50.5765 66.8664 50.4686 66.9499C50.1912 67.1447 49.9292 67.1169 49.6519 66.9499C49.5132 66.8664 49.3899 66.8942 49.2512 67.0056C49.0817 67.1447 48.9276 67.1169 48.8043 66.8386C48.7735 66.7551 48.7273 66.6995 48.681 66.6438C48.4499 66.8108 48.1879 66.7273 47.9568 66.9499C47.8335 67.0612 47.6948 67.1169 47.5561 67.1169C47.4483 67.1169 47.3404 67.1169 47.2171 67.1447C47.1092 67.1447 47.0014 67.2004 46.8935 67.2839C46.7856 67.3673 46.6778 67.3952 46.5699 67.3952C46.3542 67.3952 46.123 67.3952 45.9073 67.3952C45.4912 67.3952 45.0751 67.3952 44.6591 67.423C44.4433 67.423 44.2122 67.4508 43.9965 67.3952C43.8578 67.3673 43.7191 67.423 43.5958 67.5621C43.3801 67.7848 43.1489 67.9796 42.9332 68.1744C42.8561 68.23 42.7791 68.2857 42.702 68.3135C42.2551 68.3413 41.8083 68.397 41.3768 68.3692C41.2381 68.3692 41.0994 68.3135 40.9761 68.2022C40.8683 68.1187 40.7604 68.063 40.6525 68.063C40.3135 68.063 39.9899 68.063 39.6509 68.0352C39.4506 68.0352 39.2656 68.063 39.0807 68.1744C39.0037 68.23 38.9266 68.2579 38.8342 68.2579C38.6338 68.2857 38.4489 68.3135 38.2486 68.2857C37.6322 68.2578 37.0312 68.2857 36.4148 68.3135C36.0296 68.3135 35.6443 68.2857 35.2437 68.2579C35.1666 68.2579 35.0742 68.3135 35.0279 68.4248C34.9663 68.5361 34.9201 68.6474 34.8584 68.7588C34.7968 68.8701 34.7043 68.8979 34.6273 68.8701C34.581 68.8422 34.5194 68.8422 34.4732 68.7866C34.4115 68.7309 34.3653 68.7031 34.3191 68.7588C34.0571 68.9536 33.7797 68.8979 33.5024 68.8979C33.3637 68.8979 33.225 68.9536 33.1017 69.0649C33.0247 69.1484 32.9476 69.1484 32.8706 69.0649C32.8243 69.037 32.7781 68.9814 32.7165 68.9257C32.6086 68.8422 32.5007 68.8422 32.3928 68.8701C32.1771 68.9257 31.9768 69.1205 31.761 69.2318C31.5453 69.371 31.3296 69.4266 31.1138 69.4266C30.6361 69.4266 30.1738 69.4266 29.6961 69.4266C29.3571 69.4266 29.0335 69.4545 28.6945 69.5101C28.6174 69.5101 28.525 69.5658 28.4479 69.6214C28.3401 69.6771 28.2322 69.6493 28.1243 69.6214C28.0627 69.5936 28.0165 69.5936 27.9548 69.6214C27.8161 69.7049 27.6929 69.7328 27.5388 69.7328C26.5679 69.7606 25.5971 69.7606 24.6263 69.7884C24.1024 69.7884 23.5784 69.7884 23.0391 69.7884C22.8696 69.7884 22.7155 69.8441 22.546 69.9276C22.3919 70.0389 22.2224 70.011 22.0529 69.9276C22.0066 69.8997 21.945 69.8719 21.8988 69.8719C21.7909 69.8719 21.683 69.9832 21.5751 69.9276C21.4673 69.8997 21.3594 69.7884 21.2515 69.7884C21.1745 69.7884 21.082 69.7884 21.005 69.8441C20.8663 69.9554 20.743 69.9554 20.6043 69.8441C20.5273 69.7884 20.4502 69.7606 20.3578 69.7606C20.0496 69.7606 19.7414 69.7606 19.4486 69.7606C19.3407 69.7606 19.2329 69.7884 19.125 69.8719C18.9092 70.011 18.6935 70.011 18.4778 69.8441C18.4007 69.7884 18.3237 69.7606 18.2312 69.7606C17.6456 69.7884 17.0601 69.7049 16.4899 69.7049C16.2433 69.7049 15.9968 69.7049 15.7348 69.7049C15.5961 69.7049 15.4574 69.6771 15.3342 69.5936C15.1955 69.5101 15.0722 69.4823 14.9335 69.4545C14.764 69.4266 14.5945 69.4266 14.4404 69.3988C14.3325 69.3988 14.2247 69.3432 14.1168 69.2597C13.9319 69.1205 13.7315 69.0927 13.5466 69.2318C13.3617 69.3432 13.1768 69.3988 12.9765 69.2875C12.9148 69.2597 12.8686 69.2597 12.807 69.2875C12.7299 69.3153 12.6374 69.371 12.5604 69.371C12.3138 69.371 12.0673 69.371 11.8053 69.3988C11.6974 69.3988 11.5896 69.371 11.4817 69.2875C11.343 69.204 11.2043 69.2318 11.0811 69.3153C10.9732 69.3988 10.8653 69.3988 10.7575 69.3432C10.5725 69.2318 10.3876 69.1762 10.1873 69.1762C9.4322 69.1484 8.69253 69.1205 7.93745 69.1205C7.76794 69.1205 7.61384 69.0927 7.44434 68.9814C7.36729 68.9257 7.29024 68.9257 7.19778 68.9536C7.15155 68.9814 7.08991 69.0092 7.04368 69.0092C6.55057 68.8144 6.05745 68.8701 5.54893 68.8422C5.33319 68.8144 5.11745 68.7588 4.90172 68.6753C4.68598 68.5918 4.47024 68.5918 4.23909 68.5361C4.14663 68.5083 4.08499 68.4248 4.02336 68.3413C4.00795 68.3135 3.99254 68.2579 3.96172 68.23C3.91549 68.1465 3.86926 68.1187 3.82303 68.1465C3.66893 68.2578 3.49942 68.3135 3.32991 68.2022C3.28368 68.1744 3.23745 68.0909 3.20663 68.0074C3.1604 67.8961 3.22204 67.7291 3.32991 67.6734C3.36073 67.6456 3.37614 67.6456 3.40696 67.6456C3.43778 67.6456 3.4686 67.6178 3.48401 67.6178C3.48401 67.6456 3.49942 67.7013 3.49942 67.7291C3.51483 67.7569 3.53024 67.7569 3.54565 67.7569C3.54565 67.7013 3.51483 67.6456 3.4686 67.6178C3.40696 67.2839 3.29909 67.0056 3.28368 66.6438C3.25286 66.2542 3.23745 66.2542 3.42237 66.1151C3.56106 66.0037 3.65352 65.8368 3.65352 65.5585C3.65352 65.5028 3.65352 65.4472 3.65352 65.4193C3.65352 65.308 3.65352 65.2245 3.68434 65.1132C3.74598 64.8628 3.74598 64.6401 3.63811 64.4453C3.59188 64.3619 3.56106 64.2784 3.57647 64.1671C3.59188 64.0836 3.65352 64.0279 3.68434 63.9444C3.69975 63.9166 3.71516 63.8609 3.74598 63.8331C3.80762 63.694 3.79221 63.527 3.69975 63.4713C3.6227 63.4157 3.54565 63.3879 3.4686 63.3044C3.40696 63.2487 3.39155 63.1652 3.39155 63.0817C3.39155 62.9704 3.42237 62.8869 3.4686 62.8591C3.51483 62.8035 3.57647 62.8035 3.6227 62.7756C3.73057 62.72 3.76139 62.5808 3.69975 62.4695C3.65352 62.3582 3.59188 62.2469 3.54565 62.1356C3.4686 61.9686 3.51483 61.7738 3.63811 61.6625C3.68434 61.6347 3.74598 61.6068 3.79221 61.6068C3.85385 61.579 3.90008 61.5233 3.90008 61.4399C3.90008 61.3285 3.86926 61.2451 3.82303 61.1894C3.7768 61.1337 3.73057 61.1059 3.68434 61.0503C3.57647 60.9389 3.57647 60.9111 3.65352 60.7442C3.74598 60.5772 3.74598 60.5772 3.63811 60.438C3.51483 60.2432 3.48401 60.1319 3.54565 59.9371C3.60729 59.7145 3.66893 59.4919 3.73057 59.2692C3.7768 59.1023 3.7768 59.0744 3.69975 58.8796C3.66893 58.7962 3.6227 58.7405 3.59188 58.657C3.54565 58.5179 3.51483 58.3787 3.54565 58.2396C3.59188 57.9613 3.65352 57.683 3.66893 57.3769C3.68434 57.1264 3.73057 56.9038 3.7768 56.6534C3.80762 56.4864 3.7768 56.3472 3.71516 56.2359C3.59188 55.9576 3.49942 55.6515 3.42237 55.3454C3.40696 55.2619 3.40696 55.1506 3.4686 55.095C3.56106 54.9837 3.66893 54.9002 3.73057 54.7332C3.76139 54.6497 3.7768 54.5384 3.7768 54.4549C3.7768 54.3714 3.76139 54.2601 3.73057 54.1766C3.65352 53.8983 3.71516 53.7035 3.83844 53.5366C3.91549 53.4253 3.91549 53.2861 3.83844 53.147C3.76139 53.0078 3.68434 52.8687 3.60729 52.7295C3.56106 52.6182 3.49942 52.4791 3.53024 52.3121C3.63811 51.7277 3.66893 51.1433 3.63811 50.5311C3.66893 50.5311 3.68434 50.5311 3.69975 50.5033C3.71516 50.5033 3.71516 50.4476 3.71516 50.4198C3.68434 50.5589 3.65352 50.5867 3.65352 50.7259ZM80.7335 39.5667C80.8105 39.5945 80.8876 39.5945 80.98 39.5945C81.0108 39.5945 81.0263 39.5667 81.0571 39.5388C81.0725 39.511 81.0879 39.4832 81.1033 39.4553C81.0879 39.4275 81.0571 39.3719 81.0417 39.3719C80.8259 39.2884 80.6102 39.3719 80.4099 39.3719C80.3791 39.3719 80.3482 39.3997 80.3482 39.4275C80.3328 39.4832 80.3636 39.5667 80.4253 39.5667C80.5177 39.5667 80.6256 39.5667 80.7335 39.5667ZM84.7863 6.78466C84.7709 6.78466 84.8017 6.78466 84.8171 6.78466C84.8787 6.75684 84.9095 6.70118 84.8941 6.64552C84.8787 6.61769 84.8479 6.58986 84.8325 6.56204C84.7246 6.53421 84.6322 6.53421 84.5243 6.58986C84.4935 6.58986 84.4781 6.64552 84.4627 6.67335C84.4935 6.75684 84.5397 6.81249 84.5859 6.81249C84.6476 6.78466 84.7092 6.78466 84.7863 6.78466ZM41.5001 66.7551C41.4384 66.6438 41.3614 66.6438 41.2843 66.6716C41.2535 66.6716 41.2227 66.6995 41.2227 66.7273C41.2073 66.7829 41.2381 66.8386 41.2997 66.8664C41.4076 66.8942 41.5001 66.8386 41.5001 66.7551Z" fill="#00659E"/>
<path d="M91.7384 5.50146C92.1925 5.5283 92.6199 5.5283 93.074 5.55513C93.1274 5.55513 93.1808 5.58196 93.1808 5.63563C93.1808 5.6893 93.1274 5.76979 93.0205 5.76979C92.8336 5.79663 92.6466 5.82346 92.4596 5.85029C91.8185 6.17229 91.1508 6.09179 90.5097 5.82346C90.4296 5.79663 90.3227 5.79663 90.2426 5.74296C90.1892 5.71613 90.1625 5.6893 90.1357 5.63563C90.1357 5.63563 90.1892 5.58196 90.2159 5.55513C90.296 5.5283 90.4029 5.50146 90.483 5.50146C90.9104 5.50146 91.3377 5.50146 91.7384 5.50146Z" fill="#FFB820"/>
<path d="M83.0037 30.2632C82.7633 30.2632 82.5764 30.1838 82.6298 30.1308C82.7366 30.0249 82.8969 30.0249 83.0304 30.0249C83.1373 30.0249 83.2174 30.0249 83.2975 30.0514C83.3243 30.0514 83.3777 30.1043 83.4044 30.1308C83.3777 30.1573 83.3243 30.2102 83.2975 30.2102C83.1907 30.2632 83.0839 30.2632 83.0037 30.2632Z" fill="#FFB820"/>
<path d="M97.3208 12.9544C97.214 12.9812 97.1338 12.9544 97.0537 12.8741C97.0804 12.7938 97.1338 12.7402 97.2407 12.7402C97.3742 12.7402 97.5078 12.7402 97.6414 12.7402C97.7482 12.7402 97.8283 12.7938 97.8016 12.8473C97.8016 12.8741 97.7482 12.9009 97.6948 12.9276C97.6414 12.9544 97.6146 12.9544 97.5612 12.9544C97.4811 12.9812 97.401 12.9544 97.3208 12.9544Z" fill="#FFB820"/>
<path d="M26.27 68.2208C26.27 68.2473 26.27 68.3003 26.2432 68.3003C26.1095 68.3798 25.9757 68.3798 25.842 68.3268C25.8152 68.3003 25.7617 68.2738 25.7617 68.2473C25.7617 68.1678 25.949 68.1148 26.1362 68.1678C26.1897 68.1413 26.2432 68.1943 26.27 68.2208Z" fill="#FFB820"/>
<path d="M92.1927 49.0171C92.1927 49.044 92.1927 49.0978 92.1927 49.1246C92.1392 49.2321 92.059 49.2321 92.0322 49.0977C92.0322 49.0709 92.0322 49.0171 92.0322 48.9903C92.059 48.9634 92.0857 48.9097 92.1125 48.9097C92.1392 48.9365 92.166 48.9903 92.1927 49.0171Z" fill="#FFB820"/>
<path d="M86.5562 35.3395L86.6364 35.312V35.3945L86.5562 35.3395Z" fill="#FFB820"/>
<path d="M90.2158 31.7585C90.3228 31.7585 90.3763 31.8116 90.3763 31.8647C90.3496 31.8647 90.2961 31.8647 90.2961 31.8382C90.2693 31.8116 90.2693 31.7585 90.2426 31.7319L90.2158 31.7585Z" fill="#FFB820"/>
<path d="M90.2424 31.7344C90.1355 31.7344 90.082 31.6797 90.082 31.625C90.1088 31.625 90.1622 31.625 90.1622 31.6523C90.1889 31.6797 90.1889 31.7344 90.2157 31.7617L90.2424 31.7344Z" fill="#FFB820"/>
<path d="M88.2124 31.7617C88.2124 31.6258 88.2659 31.5986 88.3463 31.5986C88.3463 31.6258 88.3195 31.6802 88.3195 31.6802C88.2659 31.7345 88.2392 31.7345 88.2124 31.7617Z" fill="#FFB820"/>
<path d="M53.6394 17.2119H41.4126C41.1375 17.2119 40.9146 17.4348 40.9146 17.7099C40.9146 17.985 41.1375 18.208 41.4126 18.208H53.6394C54.3918 18.208 55.0039 18.8201 55.0039 19.5725V32.397C55.0039 33.1494 54.3918 33.7616 53.6394 33.7616H51.6865C51.5815 33.7616 51.4793 33.7947 51.3944 33.8563L47.9984 36.3159V34.2596C47.9984 33.9845 47.7755 33.7616 47.5004 33.7616H36.6907C35.9382 33.7616 35.3261 33.1494 35.3261 32.397V19.5725C35.3261 18.8201 35.9383 18.208 36.6907 18.208H39.2426C39.5177 18.208 39.7406 17.985 39.7406 17.7099C39.7406 17.4348 39.5177 17.2119 39.2426 17.2119H36.6907C35.389 17.2119 34.3301 18.2708 34.3301 19.5725V32.397C34.3301 33.6987 35.3891 34.7576 36.6907 34.7576H47.0024V37.2915C47.0024 37.4787 47.1073 37.65 47.274 37.7351C47.4506 37.8193 47.6235 37.8059 47.7926 37.6949L51.8479 34.7577H53.6394C54.9411 34.7577 56 33.6988 56 32.3971V19.5725C56 18.2709 54.941 17.2119 53.6394 17.2119Z" fill="white"/>
<path d="M50.9248 43.5357C50.8209 42.7934 50.384 42.1624 49.7249 41.8032L47.5102 40.5966C47.2687 40.4648 46.9662 40.5541 46.8346 40.7958C46.7031 41.0373 46.7922 41.3397 47.0338 41.4713L49.2482 42.6778C49.6271 42.8842 49.8782 43.2466 49.9382 43.6729C49.9385 43.6756 49.9389 43.6783 49.9393 43.681C49.9974 44.1115 49.8508 44.5315 49.5374 44.8329L49.211 45.1463L41.035 40.5458L41.9959 39.7006C42.4058 39.34 43.0025 39.2734 43.4812 39.5349L44.863 40.288C45.1045 40.4195 45.407 40.3305 45.5387 40.089C45.6702 39.8475 45.5812 39.545 45.3397 39.4133L43.9582 38.6604C43.1139 38.1995 42.0608 38.3168 41.3381 38.9527L39.0989 40.9223C38.6403 41.3257 37.9709 41.3631 37.4712 41.0131C34.0985 38.6503 31.6492 36.0509 29.9834 33.0667C29.7025 32.5628 29.781 31.9414 30.1786 31.5205L31.951 29.6459C32.6119 28.9461 32.7668 27.8978 32.3365 27.0372L29.3538 21.0719C29.0216 20.4064 28.4113 19.9481 27.6796 19.8142C26.9475 19.6801 26.2141 19.893 25.6672 20.398L24.5343 21.4446C23.2821 22.6013 22.4534 24.0972 22.1378 25.7705C21.8217 27.4465 22.0518 29.1371 22.8031 30.6603C22.8065 30.6673 22.8096 30.6734 22.8122 30.6785C23.2883 31.6413 23.8031 32.5829 24.3414 33.4754C24.4312 33.6256 24.5281 33.7843 24.6291 33.9472C24.7742 34.1808 25.0812 34.2526 25.315 34.1076C25.5486 33.9625 25.6205 33.6555 25.4755 33.4218C25.3772 33.2636 25.2832 33.1095 25.1952 32.9625C24.6709 32.0931 24.1701 31.1772 23.7067 30.2404C23.7041 30.2349 23.7014 30.2296 23.6987 30.2243C22.3895 27.5753 22.9745 24.3249 25.1138 22.269L29.605 30.6774L29.4546 30.8365C28.7568 31.5751 28.6197 32.6664 29.1135 33.552C30.8543 36.6706 33.4011 39.378 36.8997 41.829C37.3013 42.1102 37.7652 42.249 38.2274 42.249C38.775 42.249 39.3203 42.054 39.7568 41.6702L40.2427 41.2428L48.4605 45.8668L48.4522 45.8748C46.334 47.9099 43.1608 48.3731 40.5563 47.0272C34.911 44.1092 30.3218 40.2519 26.9161 35.5626C26.7544 35.34 26.4429 35.2906 26.2204 35.4523C25.9978 35.614 25.9485 35.9254 26.1101 36.148C29.608 40.964 34.3145 44.9221 40.0989 47.9122C41.2375 48.5006 42.4705 48.7872 43.6953 48.7872C45.6798 48.7872 47.6423 48.0343 49.1421 46.5933L50.2274 45.5512C50.7687 45.0307 51.0237 44.3072 50.9284 43.5639C50.9275 43.5544 50.9262 43.5451 50.9248 43.5357ZM25.8685 21.568L26.343 21.1297C26.6575 20.8393 27.0791 20.7171 27.5003 20.794C27.9209 20.8709 28.2717 21.1344 28.4629 21.5172L31.4457 27.4828C31.6896 27.9707 31.6017 28.5652 31.2271 28.9618L30.3266 29.9142L25.8685 21.568Z" fill="white"/>
<path d="M51.9857 26.457C51.9857 25.4977 51.2052 24.7173 50.246 24.7173C49.2868 24.7173 48.5063 25.4977 48.5063 26.457C48.5063 27.4162 49.2868 28.1966 50.246 28.1966C51.2052 28.1966 51.9857 27.4162 51.9857 26.457ZM49.5023 26.457C49.5023 26.0469 49.8359 25.7133 50.2459 25.7133C50.6559 25.7133 50.9895 26.0469 50.9895 26.457C50.9895 26.867 50.6559 27.2006 50.2459 27.2006C49.8359 27.2006 49.5023 26.867 49.5023 26.457Z" fill="white"/>
<path d="M46.9046 26.457C46.9046 25.4977 46.1242 24.7173 45.165 24.7173C44.2057 24.7173 43.4253 25.4977 43.4253 26.457C43.4253 27.4162 44.2057 28.1966 45.165 28.1966C46.1242 28.1966 46.9046 27.4162 46.9046 26.457ZM44.4213 26.457C44.4213 26.0469 44.7549 25.7133 45.1649 25.7133C45.575 25.7133 45.9085 26.0469 45.9085 26.457C45.9085 26.867 45.575 27.2006 45.1649 27.2006C44.7549 27.2006 44.4213 26.867 44.4213 26.457Z" fill="white"/>
<path d="M38.3447 26.457C38.3447 27.4162 39.1251 28.1966 40.0844 28.1966C41.0437 28.1966 41.8241 27.4162 41.8241 26.457C41.8241 25.4977 41.0437 24.7173 40.0844 24.7173C39.1252 24.7173 38.3447 25.4977 38.3447 26.457ZM40.0844 25.7133C40.4945 25.7133 40.8281 26.0469 40.8281 26.457C40.8281 26.867 40.4945 27.2006 40.0844 27.2006C39.6744 27.2006 39.3408 26.867 39.3408 26.457C39.3408 26.0469 39.6744 25.7133 40.0844 25.7133Z" fill="white"/>
</svg>
