<svg width="89" height="71" viewBox="0 0 89 71" fill="none" xmlns="http://www.w3.org/2000/svg">
<path d="M11.3994 62.7944C11.6011 62.5087 11.8196 62.3454 12.0213 62.223C12.139 62.1414 12.2398 62.1822 12.3407 62.2638C12.4752 62.3863 12.6096 62.3454 12.7441 62.1822C12.845 62.019 12.9458 61.9373 13.0635 61.9373C13.3156 61.9373 13.5678 61.8965 13.8199 61.8965C13.9376 61.8965 14.0384 61.9781 14.1393 62.1006C14.2401 62.2638 14.3578 62.223 14.4586 62.1006C14.5763 61.9373 14.6772 62.019 14.7612 62.223C14.778 62.2638 14.7948 62.3454 14.8116 62.3863C14.9125 62.6311 15.0638 62.6311 15.1814 62.3046C15.2319 62.1822 15.2319 62.0598 15.1983 61.9373C15.1646 61.8149 15.131 61.6925 15.0806 61.6516C14.8957 61.4476 14.694 61.4068 14.5259 61.1619C14.4754 61.1211 14.4082 61.1211 14.3578 61.0803C13.8703 61.0803 13.3997 61.0803 12.9122 61.0803C12.7441 61.0803 12.576 61.0395 12.4079 60.8762C12.2566 60.7538 12.0886 60.6314 11.9205 60.5089C11.8364 60.4273 11.7524 60.4681 11.6683 60.4681C11.5843 60.4681 11.5002 60.4273 11.4162 60.4273C11.3321 60.4681 11.2481 60.5497 11.1809 60.5905C11.0632 60.6314 10.9455 60.5497 10.8615 60.3865C10.7438 60.1824 10.643 59.9376 10.5421 59.7335C10.4917 59.6111 10.4413 59.6519 10.4076 59.7743C10.3404 59.9784 10.2732 60.2232 10.1555 60.2232C9.9874 60.264 9.81931 60.264 9.66803 59.9784C9.61761 59.8967 9.58398 59.8151 9.53355 59.7335C9.46632 59.6111 9.39909 59.5294 9.29823 59.4886C9.18057 59.4478 9.07971 59.4478 8.96204 59.4478C8.84438 59.4478 8.74353 59.3662 8.64267 59.2846C8.00392 58.754 8.00393 58.754 7.3988 58.7132C7.09623 58.6724 6.77686 58.754 6.47429 58.6316C6.45748 58.6316 6.40705 58.5908 6.40705 58.55C6.40705 58.3867 6.45748 58.3051 6.4911 58.2235C6.54153 58.101 6.52472 57.9786 6.45748 57.9378C6.32301 57.8562 6.17173 57.8153 6.03725 57.8562C5.90278 57.8562 5.85235 57.9786 5.85235 58.3459C5.85235 58.5908 5.80193 58.6724 5.68426 58.6316C5.60021 58.6316 5.51617 58.55 5.46574 58.3867C5.44894 58.3459 5.44893 58.2235 5.44893 58.1826C5.49936 57.8562 5.60021 57.6113 5.70107 57.3664C5.81873 57.1215 5.95321 57.0399 6.08768 57.0807C6.17172 57.1215 6.23896 57.244 6.32301 57.1624C6.33981 57.1215 6.35663 57.0807 6.37344 56.9991C6.37344 56.9175 6.37344 56.8359 6.35663 56.795C6.3062 56.7134 6.25578 56.6726 6.20535 56.6318C5.90278 56.591 5.58341 56.591 5.28084 56.3053C5.21361 56.2237 5.11275 56.2645 5.0287 56.2237C4.65891 56.1829 4.2891 56.1421 3.93611 56.1012C3.86887 56.1012 3.83525 55.9788 3.85207 55.8972C3.86887 55.8564 3.90249 55.8156 3.9193 55.8156C4.08739 55.7748 4.25548 55.7748 4.42358 55.7339C4.57485 55.7339 4.60848 55.6115 4.62528 55.2442C4.62528 55.0809 4.64209 54.9993 4.72614 54.9585C4.89423 54.9177 5.06232 54.9177 5.23041 54.9177C5.3985 54.8769 5.41531 54.7953 5.44893 54.3055C5.44893 54.1831 5.48255 54.0607 5.49936 53.8974C5.51617 53.7342 5.43212 53.4893 5.36488 53.4485C5.33127 53.4485 5.31446 53.4077 5.28084 53.4077C5.19679 53.4485 5.11275 53.4893 5.04552 53.3669C4.86061 52.9587 4.6589 52.8363 4.42358 52.8771C4.30591 52.9179 4.20506 52.8771 4.08739 52.8771C4.05377 52.8771 4.02016 52.9179 4.02016 52.9587C4.00334 53.0812 4.03697 53.1628 4.1042 53.2036C4.13782 53.2036 4.15463 53.2444 4.18825 53.2444C4.25549 53.2852 4.2891 53.326 4.2891 53.4893C4.2891 53.5301 4.23867 53.5709 4.22186 53.5709C3.96973 53.6117 3.71758 53.6525 3.46545 53.6117C3.3814 53.6117 3.29736 53.4893 3.24693 53.326C3.16289 52.9996 3.04523 52.8771 2.89395 52.8771C2.75948 52.8771 2.60819 52.8363 2.47372 52.8363C2.33925 52.8363 2.18797 52.7955 2.05349 52.7547C2.01988 52.7547 2.00306 52.6731 1.98625 52.6322C2.00306 52.5914 2.03668 52.5506 2.05349 52.5098C2.27201 52.3874 2.50734 52.4282 2.72585 52.3874C2.87714 52.3466 2.99479 52.2649 3.12927 52.1017C3.31416 51.8568 3.31417 51.8568 3.1797 51.4487C3.16289 51.4079 3.16289 51.3263 3.16289 51.2855C3.1797 51.2446 3.21331 51.2038 3.23012 51.2038C3.43183 51.163 3.61673 51.0406 3.81844 50.959C3.86887 50.9181 3.9361 50.9998 3.98653 51.0406C4.13782 51.1222 4.27229 50.9181 4.33952 50.6325C4.42358 50.2652 4.50762 49.9387 4.62528 49.6122C4.69252 49.4081 4.6589 49.2857 4.55805 49.1632C4.50761 49.0816 4.45719 49.0408 4.40676 48.9592C4.30591 48.7959 4.20506 48.7143 4.08739 48.7143C3.5495 48.6735 3.01161 48.7551 2.47372 48.7959C2.2552 48.8367 2.01988 48.7959 1.80135 48.7959C1.58283 48.7959 1.41474 48.6735 1.29708 48.2246C1.26346 48.1021 1.21303 48.0613 1.17941 47.9389C1.09537 47.7348 1.09537 47.6124 1.17941 47.49C1.3307 47.3267 1.48197 47.1635 1.66687 47.1227C2.12072 47.0818 2.57457 47.041 3.02841 46.9594C3.06204 46.9594 3.09565 46.9186 3.09565 46.8778C3.11246 46.7962 3.07884 46.7145 3.01161 46.6737C2.89394 46.6329 2.79308 46.6737 2.67542 46.5513C2.60819 46.4697 2.59138 46.388 2.59138 46.2248C2.59138 46.1024 2.625 45.9799 2.69224 45.9391C2.82671 45.8575 2.97799 45.8575 3.11246 45.8167C3.33098 45.7351 3.48226 45.531 3.56631 45.0413C3.61673 44.7556 3.70078 44.6331 3.81844 44.5515C3.85206 44.5515 3.86887 44.5107 3.90249 44.4699C3.9193 44.4291 3.96973 44.3883 3.96973 44.3475C3.96973 44.225 3.9361 44.1026 3.88568 44.021C3.83525 43.9393 3.78482 43.8577 3.7344 43.8577C3.65035 43.8169 3.56631 43.8169 3.48226 43.8169C2.9948 43.8577 2.52414 43.7353 2.03668 43.6945C1.98625 43.6945 1.93583 43.6128 1.8854 43.5312C1.83497 43.4496 1.80135 43.3272 1.80135 43.2047C1.80135 43.0823 1.83497 43.0007 1.90221 42.9599C2.03668 42.919 2.18796 42.919 2.32243 42.8782C2.52414 42.8374 2.70905 42.715 2.86033 42.3477C2.91076 42.2252 2.96118 42.2252 3.01161 42.2661C3.14608 42.3069 3.14607 42.2661 3.21331 42.062C3.23012 42.0212 3.24693 41.9396 3.24693 41.8988C3.36459 41.4498 3.53269 41.2866 3.7344 41.1641C3.86887 41.0825 3.90249 40.5928 3.80163 40.3071C3.78482 40.2663 3.75121 40.2255 3.7344 40.1847C3.61673 40.103 3.51588 40.1438 3.39822 40.1438C3.31417 40.1438 3.23012 40.1438 3.14607 40.103C2.94437 40.0214 2.77628 39.7357 2.57457 39.7357C2.40648 39.7357 2.23839 39.6949 2.0703 39.6541C2.00306 39.6541 1.96945 39.5317 1.96945 39.45C1.96945 39.4092 2.00306 39.3276 2.01987 39.3276C2.0703 39.2868 2.12073 39.246 2.18796 39.2052C2.28882 39.1236 2.37286 38.9195 2.4569 38.7154C2.52414 38.5114 2.49052 38.3073 2.42329 38.1849C2.30562 37.9808 2.15434 38.0216 2.01987 37.94C2.00306 37.94 1.96944 37.8584 1.95263 37.8176C1.96944 37.7768 1.98625 37.6951 2.00305 37.6543C2.18796 37.3278 2.40649 37.1646 2.64181 37.1646C2.75948 37.1646 2.86032 37.1238 2.97798 37.1238C3.14607 37.1238 3.31416 37.0421 3.46545 36.8789C3.54949 36.7973 3.63354 36.7973 3.71758 36.7157C3.78482 36.6748 3.81844 36.5932 3.80163 36.4708C3.80163 36.3484 3.76802 36.2259 3.70078 36.1443C3.61674 36.0627 3.53269 36.0219 3.44865 36.1035C3.23013 36.3075 3.01161 36.3892 2.79309 36.3892C2.38966 36.3892 2.00306 36.3892 1.59964 36.3892C1.56603 36.3892 1.5324 36.3892 1.5156 36.3484C1.46517 36.2667 1.43155 36.1851 1.38113 36.1035C1.36431 36.0627 1.36431 35.981 1.38113 35.8994C1.39794 35.777 1.43155 35.6545 1.48197 35.6137C1.65006 35.4505 1.81816 35.4913 1.98625 35.4505C2.10391 35.4097 2.0871 35.1648 2.0871 35.0016C2.0871 34.7567 2.20477 34.471 2.30563 34.4302C2.35606 34.3894 2.4233 34.3486 2.47372 34.3486C2.69224 34.3078 2.92756 34.3078 3.12927 34.0221C3.1797 33.9813 3.23012 33.9405 3.29736 33.9405C3.3814 33.8996 3.46545 33.8996 3.54949 33.8996C3.71758 33.8588 3.88568 33.8588 4.05377 33.7772C4.22186 33.6956 4.37315 33.4507 4.54124 33.4099C4.55805 33.4099 4.59167 33.3283 4.60848 33.2875C4.59167 33.2467 4.57485 33.2058 4.55805 33.2058C4.22186 33.165 3.88568 33.165 3.54949 33.165C3.3814 33.165 3.21331 33.1242 3.06203 32.9202C2.9948 32.8385 2.89395 32.7977 2.82671 32.7161C2.75947 32.6753 2.65862 32.6753 2.65862 32.4304C2.65862 32.308 2.72585 32.2264 2.77628 32.1447C2.82671 32.0631 2.84351 31.9407 2.84351 31.7774C2.82671 31.655 2.79309 31.5326 2.72585 31.5326C2.67543 31.4917 2.60819 31.4917 2.55776 31.4917C2.27201 31.4509 1.98625 31.4509 1.71731 31.4509C1.59964 31.4509 1.49879 31.4101 1.38113 31.4101C1.34751 31.4101 1.31388 31.3285 1.31388 31.3285C1.31388 31.2061 1.36431 31.1244 1.41474 31.1244C1.58283 31.0836 1.75092 31.0428 1.90221 30.8388C2.01987 30.6755 2.17116 30.6755 2.30563 30.6347C2.37287 30.5939 2.40648 30.5123 2.40648 30.4306C2.40648 30.3898 2.35605 30.349 2.33924 30.3082C2.17114 30.2674 2.00305 30.2674 1.83496 30.2266C1.75092 30.1858 1.66687 30.1858 1.58283 30.1041C1.39793 29.9001 1.19622 29.8593 1.01132 29.8593C0.893655 29.8593 0.792802 29.8185 0.675142 29.7777C0.641519 29.7777 0.624704 29.696 0.607896 29.6552C0.624704 29.6144 0.658327 29.5736 0.675142 29.5328C0.759187 29.492 0.843233 29.4512 0.927278 29.4512C1.46517 29.4512 2.00306 29.4512 2.54095 29.4104C2.87714 29.4104 3.21331 29.4104 3.54949 29.2879C3.56631 29.2879 3.59992 29.2063 3.59992 29.2063C3.59992 29.1247 3.58312 29.043 3.54949 29.043C3.39821 28.839 3.24693 28.6757 3.07884 28.6757C2.57456 28.6349 2.0703 28.5941 1.54922 28.5533C1.46517 28.5533 1.38112 28.4717 1.31388 28.3084C1.29707 28.2676 1.28027 28.186 1.26346 28.1452C1.22984 28.0227 1.26346 27.9003 1.34751 27.9003C1.56603 27.8595 1.80135 27.8595 2.01987 27.8187C2.22158 27.7779 2.40647 27.8595 2.59138 28.0636C2.60819 28.1044 2.6418 28.1044 2.67542 28.1044C2.79308 28.1452 2.89394 28.0636 2.97798 27.9003C3.04522 27.533 3.16289 27.4106 3.31417 27.3698C3.39822 27.3289 3.48226 27.2473 3.54949 27.1657C3.66716 27.0433 3.76802 27.0841 3.86888 27.2065C3.9193 27.2881 3.96973 27.2881 4.03697 27.2473C4.12101 27.2065 4.18825 27.1249 4.27229 27.0433C4.44039 26.9208 4.60848 26.88 4.77657 27.0025C4.99509 27.1249 4.99509 27.1249 5.17999 26.9208C5.19679 26.88 5.23041 26.8392 5.24722 26.7984C5.28084 26.676 5.26403 26.5943 5.17999 26.5943C4.96147 26.5535 4.72614 26.5535 4.50762 26.5127C4.45719 26.5127 4.40676 26.4311 4.33952 26.4311C4.25548 26.3903 4.22186 26.1046 4.27229 25.9414C4.33953 25.6149 4.45719 25.37 4.59167 25.37C4.97827 25.3292 5.3817 25.2884 5.7683 25.2884C5.85235 25.2884 5.9364 25.3292 6.02045 25.4516C6.20535 25.7373 6.39025 25.6965 6.59196 25.6965C6.64238 25.6965 6.70962 25.6557 6.76005 25.6149C6.77686 25.6149 6.82728 25.574 6.82728 25.5332C6.82728 25.4924 6.81048 25.4108 6.81048 25.3292C6.76005 25.1659 6.69281 25.0435 6.60877 25.0027C6.10449 24.9211 5.60021 25.0027 5.07913 24.8802C4.99509 24.8802 4.97828 24.7578 4.96147 24.4313C4.96147 24.1864 4.91104 24.1048 4.79337 24.1048C4.67571 24.1048 4.57486 24.1864 4.52443 24.5129C4.50762 24.5538 4.49082 24.6354 4.45719 24.6354C4.40677 24.6354 4.37315 24.5538 4.37315 24.3905C4.37315 24.3089 4.35634 24.2681 4.35634 24.1864C4.33953 23.9416 4.25549 23.8191 4.18825 23.7783C3.71759 23.6559 3.23013 23.6151 2.74266 23.6559C2.65862 23.6559 2.57457 23.6559 2.49053 23.5743C2.47372 23.5335 2.4569 23.4926 2.42329 23.4518C2.4401 23.411 2.45691 23.3294 2.49053 23.3294C2.70905 23.1661 2.94437 23.3702 3.16289 23.2478C3.23013 23.207 3.24693 23.1253 3.26374 22.9621C3.26374 22.5132 3.28055 22.5132 3.44865 22.5948C3.56631 22.6764 3.56631 22.6764 3.76801 22.5132C3.81845 22.4723 3.88568 22.4315 3.93611 22.4315C4.18825 22.4315 4.44039 22.4315 4.69252 22.4724C4.72614 22.4724 4.74295 22.5132 4.77657 22.5132C4.87742 22.6356 4.99509 22.6356 5.09594 22.5132C5.19679 22.3907 5.31446 22.4315 5.43212 22.4724C5.48255 22.5132 5.53298 22.554 5.60021 22.5948C5.73469 22.7172 5.86916 22.7172 6.00363 22.5948C6.03726 22.554 6.05406 22.554 6.08768 22.5132C6.22215 22.3499 6.35662 22.3499 6.4911 22.5132C6.74323 22.758 6.99537 22.7172 7.24751 22.6764C7.33156 22.6764 7.3988 22.5132 7.44922 22.3499C7.46604 22.3091 7.48284 22.2275 7.46604 22.1459C7.46604 22.105 7.43241 22.0642 7.41561 22.0234C7.2307 21.901 7.02899 21.9418 6.82728 21.901C6.45748 21.8602 6.08768 21.8602 5.73469 21.8194C5.71787 21.8194 5.66745 21.7786 5.66745 21.6969C5.65064 21.6153 5.70107 21.5337 5.7683 21.4929C5.85235 21.4521 5.9364 21.4521 6.02045 21.4521C6.3062 21.4112 6.59196 21.4112 6.8609 21.4112C6.92814 21.4112 6.96176 21.2888 6.92814 21.2072C6.91133 21.1664 6.87771 21.1256 6.8609 21.1256C6.74324 21.0847 6.64238 21.0847 6.52472 21.0847C6.27258 21.0847 6.02045 21.1256 5.78512 20.7991C5.73469 20.7583 5.66745 20.7583 5.61703 20.7991C5.49936 20.8807 5.39851 20.8807 5.28084 20.7991C5.11275 20.6358 4.94466 20.6766 4.77657 20.6766C4.60848 20.6358 4.44039 20.6766 4.27229 20.6358C4.18825 20.6358 4.12101 20.5134 4.03697 20.3909C3.95292 19.942 3.76801 19.9012 3.59992 19.9012C3.43183 19.8604 3.26374 19.8604 3.09565 19.8604C2.86032 19.9012 2.65862 19.6972 2.4569 19.4115C2.35605 19.289 2.32244 18.9217 2.38967 18.7177C2.49053 18.432 2.59138 18.2687 2.74266 18.2687C2.77629 18.2687 2.79309 18.2687 2.82671 18.2687L2.80991 18.2279C2.84352 18.3504 2.87713 18.4728 2.92756 18.4728C3.1797 18.5952 3.43183 18.5952 3.68397 18.4728C3.75121 18.432 3.78483 18.3095 3.76801 18.1871C3.75121 18.0647 3.71759 17.9422 3.66716 17.9422C3.61673 17.9422 3.5495 17.9422 3.49907 18.0239C3.39822 18.1463 3.33098 18.0647 3.28055 17.9014C3.23013 17.7382 3.1797 17.5749 3.12927 17.4117C3.07884 17.2484 3.01161 17.126 2.92756 17.0852C2.84352 17.0852 2.75947 17.0852 2.67542 17.0444C2.62499 17.0444 2.55776 17.0036 2.50733 17.0036C2.49052 17.0036 2.45691 16.922 2.4401 16.8811C2.42329 16.7995 2.4401 16.6771 2.50733 16.6363C3.12927 16.5546 3.75121 16.5546 4.37315 16.5546C5.46575 16.5546 6.57514 16.6363 7.66774 16.5138C7.73498 16.5138 7.76859 16.3914 7.75179 16.3098C7.73498 16.269 7.70136 16.2281 7.68455 16.1873C7.65093 16.1465 7.63413 16.1465 7.6005 16.1465C6.81047 16.1465 6.02044 16.1057 5.23041 16.1057C5.07913 16.1057 4.94466 16.0649 4.81018 15.9017C4.70933 15.7792 4.59166 15.7792 4.474 15.7792C4.05377 15.7792 3.63355 15.7384 3.1965 15.7384C2.89395 15.7384 2.57457 15.82 2.27201 15.6568C2.2552 15.6568 2.22157 15.5752 2.20477 15.5343C2.22157 15.4935 2.2552 15.4119 2.27201 15.4119C2.55776 15.2895 2.82671 15.2895 3.11246 15.3303C3.39822 15.3303 3.68398 15.3711 3.95292 15.2895C4.03697 15.2487 4.07058 15.0854 4.00334 14.8406C3.95292 14.6773 3.90249 14.5141 3.86888 14.31C3.85207 14.1876 3.86888 14.0243 3.86888 13.9019C3.86888 13.8611 3.83525 13.8203 3.81845 13.7794C3.68397 13.657 3.53269 13.657 3.39822 13.657C2.9948 13.6978 2.60819 13.657 2.20477 13.6162C2.17115 13.6162 2.15434 13.6162 2.12072 13.6162C2.00306 13.6162 2.01988 13.453 2.13754 13.2897C2.30563 13.0448 2.49053 12.8816 2.69224 12.8816C3.23014 12.8816 3.76802 12.8816 4.30591 12.8816C4.89423 12.8816 5.49936 12.8816 6.08768 12.8816C6.17172 12.8816 6.25577 12.8816 6.33982 12.8816C6.8441 12.7591 7.34837 12.8816 7.85264 12.7591C7.88626 12.7591 7.90307 12.6775 7.91988 12.6367C7.90307 12.5959 7.88626 12.5551 7.85264 12.5143C7.76859 12.4735 7.68455 12.4327 7.6005 12.4327C7.34837 12.4327 7.09623 12.4735 6.8441 12.5143C6.76005 12.5143 6.676 12.5143 6.59196 12.4327C6.40705 12.2286 6.22215 12.147 6.02045 12.1062C5.11275 12.0653 4.20506 12.0653 3.31417 12.0245C3.1797 12.0245 3.02842 11.9837 2.89395 11.8613C2.79309 11.7797 2.67543 11.7389 2.55776 11.7389C2.35606 11.7389 2.15434 11.698 1.96945 11.7389C1.68369 11.7797 1.41474 11.5756 1.1626 11.2491C1.14579 11.2083 1.11218 11.1675 1.09537 11.1267C0.977701 10.9226 0.826418 10.8818 0.691942 10.8818C0.490237 10.8818 0.288523 10.8818 0.103625 10.841C0.0363867 10.841 -0.0140359 10.7186 0.00277163 10.6369C0.0195792 10.5145 0.0868094 10.4737 0.154047 10.4737C0.725558 10.4737 1.28027 10.3921 1.85178 10.4737C2.05349 10.5145 2.2552 10.4737 2.4401 10.4737C2.74266 10.4737 3.06204 10.4737 3.3646 10.4737C3.58312 10.4737 3.81845 10.4329 4.03697 10.3921C4.12101 10.3921 4.20506 10.3104 4.2723 10.2288C4.40676 10.1064 4.54124 9.98395 4.67571 9.98395C4.92785 9.94314 5.17999 9.94314 5.43212 9.90233C5.46575 9.90233 5.49936 9.86152 5.49936 9.8207C5.51617 9.73908 5.46574 9.65745 5.3985 9.65745C5.19679 9.61664 5.0119 9.61664 4.81018 9.57583C4.79338 9.57583 4.75976 9.53502 4.74295 9.45339C4.70933 9.37177 4.74295 9.24933 4.81018 9.24933C5.3985 9.08609 6.00363 9.1269 6.59196 9.20853C6.676 9.20853 6.76005 9.29015 6.8441 9.33096C6.89452 9.37177 6.94495 9.37177 7.01219 9.33096C7.19708 9.16771 7.3988 9.12691 7.6005 9.12691C7.71817 9.12691 7.83583 9.1269 7.93669 9.00447C8.12159 8.80041 8.30649 8.75959 8.5082 8.63716C8.55863 8.59635 8.60906 8.55554 8.65949 8.51473C8.79396 8.35148 8.92843 8.35148 9.06291 8.51473C9.11333 8.59635 9.18057 8.59635 9.231 8.55554C9.44952 8.35148 9.66803 8.31066 9.88655 8.22904C9.90336 8.22904 9.92017 8.14742 9.95379 8.10661C9.93698 8.0658 9.92017 8.02498 9.88655 7.98417C9.68484 7.86174 9.49994 7.86174 9.29824 7.90255C8.878 7.90255 8.45777 7.86173 8.02073 7.94336C7.85264 7.98417 7.68455 7.94336 7.51646 7.82092C7.48284 7.82092 7.46604 7.7393 7.44922 7.7393C7.46604 7.69849 7.48284 7.65767 7.51646 7.61686C7.73498 7.49443 7.97031 7.49443 8.18883 7.49443C8.59225 7.49443 8.97886 7.49443 9.38228 7.49443C9.4327 7.49443 9.49994 7.45362 9.55037 7.41281C9.58399 7.41281 9.60079 7.33119 9.6176 7.29038C9.60079 7.24956 9.56718 7.20875 9.55037 7.16794C9.34866 7.0455 9.16376 7.08631 8.96205 7.12712C8.54182 7.16794 8.12159 7.12713 7.68455 7.08632C7.56689 7.08632 7.46604 7.00469 7.36518 6.88225C7.26432 6.75982 7.14666 6.6782 7.0458 6.71901C6.50791 6.71901 5.97002 6.75982 5.43212 6.75982C5.17999 6.75982 4.92785 6.71901 4.67571 6.6782C4.64209 6.6782 4.62528 6.59657 4.60848 6.59657C4.62528 6.51494 4.67571 6.43332 4.74295 6.43332C4.96147 6.39251 5.19679 6.3517 5.41532 6.3517C6.60877 6.35171 7.78541 6.31089 8.97886 6.31089C9.231 6.31089 9.48313 6.27008 9.73527 6.27008C9.76889 6.27008 9.80251 6.22926 9.80251 6.18845C9.81932 6.06602 9.7857 5.9844 9.73527 5.94359C9.70165 5.90278 9.68485 5.90277 9.65122 5.90277C9.58399 5.90277 9.53356 5.86196 9.49994 5.73952C9.46633 5.61709 9.53356 5.2906 9.60079 5.24978C9.65122 5.20898 9.70165 5.12735 9.75208 5.12735C9.86975 5.08654 9.9706 5.04573 10.0883 5.00491C10.1555 4.9641 10.1891 4.84167 10.1891 4.71923C10.1891 4.5968 10.1723 4.47436 10.1219 4.39274C10.0715 4.31112 10.0042 4.22949 9.98741 4.14786C9.9706 4.02543 10.0378 3.94381 10.0883 3.86218C10.1555 3.78056 10.1555 3.65813 10.1555 3.53569C10.1387 3.2092 10.2227 3.08676 10.3572 3.2092C10.3908 3.25001 10.4076 3.25001 10.4413 3.29082C10.4917 3.33163 10.5421 3.41326 10.5925 3.49488L10.5757 3.45406C10.643 3.69893 10.727 3.82137 10.8615 3.82137C11.08 3.82137 11.3153 3.86218 11.517 3.5765C11.5675 3.53569 11.6347 3.53569 11.6851 3.5765C11.8028 3.65813 11.9037 3.73975 12.0045 3.5765C12.0549 3.49488 12.1054 3.49488 12.1726 3.53569C12.223 3.5765 12.2735 3.61732 12.3239 3.69894C12.4584 3.82137 12.5928 3.86219 12.7273 3.69894C12.845 3.57651 12.9458 3.61731 13.0467 3.73975C13.0803 3.78056 13.0971 3.78056 13.1307 3.78056C13.4333 3.82137 13.7527 3.86218 14.0552 3.73975C14.1729 3.69894 14.2737 3.61732 14.3746 3.49488C14.5091 3.33163 14.6435 3.37244 14.778 3.49488C14.8621 3.57651 14.9461 3.57651 15.0133 3.49488C15.0638 3.45407 15.1142 3.41325 15.1646 3.33163C15.2319 3.25001 15.3159 3.25001 15.3663 3.04595C15.3327 2.92351 15.2823 2.88271 15.2151 2.84189C15.0974 2.80108 14.9965 2.71946 14.9125 2.47459C14.8621 2.35215 14.8789 2.22971 14.9293 2.14809C14.9461 2.10728 14.9797 2.06647 14.9965 2.06647C15.131 1.98485 15.2823 1.98485 15.4168 2.14809C15.5344 2.27053 15.6353 2.22971 15.7361 2.10728C15.7529 2.06647 15.7866 2.06647 15.8202 2.02566C16.1564 1.98484 16.4925 1.90322 16.8287 2.06647C16.9128 2.10728 16.9296 2.1889 16.896 2.35215C16.8624 2.47459 16.8455 2.59702 16.8119 2.67864C16.7279 3.00514 16.7279 3.08676 16.8287 3.12757C16.9632 3.16838 17.1145 3.2092 17.249 3.16839C17.3666 3.12757 17.4675 3.00514 17.5011 2.67864C17.5011 2.59702 17.5179 2.55621 17.5347 2.47459C17.5515 2.22971 17.6356 2.10728 17.7028 2.06647C17.8877 1.98485 18.0894 1.94404 18.2911 1.98485C18.3584 1.98485 18.4088 2.06647 18.4088 2.14809C18.4088 2.1889 18.392 2.27052 18.3584 2.31133C18.3079 2.39296 18.2575 2.47459 18.2239 2.55621C18.1398 2.76027 18.039 2.84189 17.9213 2.84189C17.8541 2.84189 17.8205 2.88271 17.7869 3.00514C17.8373 3.08676 17.8877 3.12757 17.9381 3.12757C18.0726 3.12757 18.2239 3.12758 18.3584 3.00514C18.5433 2.8419 18.7282 2.67864 18.9131 2.5154C18.9635 2.47459 19.0139 2.39297 19.0812 2.39297C19.3165 2.39297 19.5182 2.1889 19.7367 2.02566C19.7871 1.98484 19.8544 1.98484 19.9048 2.02566C20.2578 2.35215 20.6276 2.39296 20.9806 2.35215C21.5185 2.27053 22.0564 2.35215 22.5775 2.35215C22.6615 2.35215 22.7456 2.35215 22.8296 2.43377C22.9641 2.55621 23.0986 2.5154 23.2498 2.39297C23.3507 2.31134 23.4684 2.31134 23.586 2.43377C23.6701 2.5154 23.7541 2.59702 23.8213 2.59702C24.1575 2.63783 24.4937 2.67864 24.8299 2.55621C24.9139 2.5154 24.9812 2.43378 25.0484 2.27053C25.0652 2.22972 25.082 2.14809 25.082 2.10728C25.0484 1.94403 24.998 1.90322 24.9476 1.98485C24.8971 2.02566 24.8467 2.06647 24.7963 2.1481C24.7122 2.27053 24.6282 2.27053 24.5609 2.18891C24.4097 2.02566 24.2416 1.94403 24.0735 1.94403C23.7037 1.94403 23.3339 1.98485 22.9809 1.86241C22.9473 1.86241 22.9137 1.8216 22.9137 1.78079C22.8968 1.65836 22.9305 1.53591 22.9641 1.41348C22.9977 1.29105 23.0481 1.25023 23.1154 1.20942C23.2835 1.16861 23.4515 1.12779 23.6196 1.08698C23.8214 1.08698 24.0063 1.08698 24.208 1.08698C24.3256 1.08698 24.4265 0.964548 24.5273 0.882928C24.5946 0.842111 24.6954 0.882928 24.7627 0.842119C24.7795 0.842119 24.7963 0.760492 24.8299 0.719682C24.9308 0.434 24.9308 0.434 25.0316 0.556436C25.1157 0.638063 25.1829 0.719682 25.2669 0.801302C25.3174 0.842119 25.351 0.964555 25.3678 1.1278C25.3174 1.1278 25.2501 1.1278 25.1997 1.16861C25.1829 1.16861 25.1493 1.20942 25.1325 1.25024C25.1157 1.29105 25.1157 1.37267 25.1157 1.37267C25.1493 1.49511 25.1997 1.4951 25.2501 1.41348C25.3006 1.33186 25.3342 1.25023 25.3342 1.08698C25.4014 1.08698 25.4518 1.08698 25.5191 1.08698C25.5359 1.29104 25.6031 1.41348 25.6872 1.45429C25.7376 1.4951 25.788 1.45429 25.8384 1.45429C25.8553 1.45429 25.8889 1.41348 25.9057 1.37267C25.9225 1.29105 25.8889 1.20942 25.8216 1.20942C25.7208 1.16861 25.6031 1.16861 25.5023 1.16861C25.5191 1.04617 25.5359 0.923738 25.5863 0.842119C25.6535 0.719683 25.7208 0.638063 25.8048 0.556436C25.8721 0.474817 25.9561 0.39319 26.0402 0.515619C26.141 0.638056 26.2419 0.678873 26.3427 0.760492C26.4268 0.842119 26.4772 0.923738 26.5276 1.1278C26.5612 1.29105 26.6285 1.45429 26.7125 1.53591C26.7293 1.65835 26.763 1.78079 26.8134 1.8216C26.8302 1.86241 26.8638 1.86241 26.8806 1.86241C26.8974 1.86241 26.931 1.8216 26.9479 1.78079C26.9647 1.69917 26.931 1.61754 26.8638 1.57673C26.8134 1.57673 26.7629 1.57673 26.6957 1.57673C26.7798 1.08699 26.931 0.801302 27.1328 0.719683C27.4353 0.597246 27.7211 0.311564 28.0236 0.107508C28.1077 0.0666908 28.1917 0.0666908 28.2758 0.107508C28.3262 0.148318 28.3934 0.148318 28.4439 0.148318C28.5279 0.148318 28.612 0.0666985 28.696 0.0258813C28.8809 0.189127 29.0826 0.229937 29.2507 0.47481C29.402 0.719683 29.5701 0.678866 29.7214 0.47481C29.7382 0.434001 29.7718 0.393183 29.7886 0.393183C29.8054 0.352374 29.839 0.311564 29.8726 0.311564C29.9567 0.270755 30.0407 0.229945 30.1248 0.311564C30.2256 0.393191 30.3265 0.556437 30.4273 0.638057C30.4778 0.678874 30.545 0.678866 30.5954 0.678866C30.7131 0.678866 30.814 0.597247 30.9148 0.474811C31.0661 0.270747 31.2342 0.229938 31.4023 0.270747C31.5199 0.270747 31.6208 0.311565 31.7385 0.352382C31.8561 0.393192 31.9402 0.515628 32.0242 0.760494C32.0746 0.923747 32.0746 1.04618 31.9906 1.08699C31.8393 1.20942 31.6712 1.29105 31.5031 1.41348C31.335 1.53591 31.167 1.4951 30.9989 1.4951C30.8308 1.53591 30.6627 1.4543 30.5114 1.25024C30.4105 1.1278 30.2929 1.16861 30.1752 1.25024C30.1416 1.25024 30.1248 1.29105 30.0912 1.33186C29.9567 1.4951 29.839 1.57673 29.6877 1.57673C29.2171 1.53592 28.7296 1.61754 28.259 1.57673C28.1245 1.57673 27.9732 1.61754 27.8555 1.78079C27.7043 1.94404 27.5362 1.94403 27.3681 2.02566C27.3513 1.98484 27.3513 1.90322 27.3345 1.86241C27.3177 1.8216 27.3008 1.8216 27.284 1.8216C27.284 1.90322 27.3177 1.98485 27.3849 1.98485C27.4017 2.18891 27.4353 2.35215 27.5026 2.5154C27.5698 2.63783 27.6538 2.71945 27.7379 2.71945C27.7883 2.71945 27.8555 2.67864 27.906 2.63783C28.0741 2.5154 28.2422 2.43377 28.4103 2.43377C28.7464 2.43377 29.0826 2.43377 29.4188 2.43377C29.5869 2.43377 29.755 2.39296 29.9231 2.22972C29.9735 2.18891 30.0239 2.18891 30.0912 2.22972C30.2761 2.43377 30.461 2.59703 30.6291 2.76027C30.8308 2.80108 30.9989 3.12757 31.2006 3.16839C31.335 3.2092 31.3855 3.41326 31.3855 3.69894C31.3855 3.86219 31.4191 3.94381 31.4863 3.94381C31.8225 3.98462 32.1587 4.06625 32.4949 3.903C32.5621 3.86219 32.5957 3.78057 32.5453 3.61732C32.4949 3.45407 32.4444 3.29082 32.4108 3.12757C32.3772 2.96433 32.394 2.88271 32.4781 2.84189C32.6798 2.71946 32.8647 2.71946 33.0496 2.92352C33.1 3.00514 33.1336 3.08676 33.1168 3.25001C33.1 3.53569 32.9992 3.73976 33.016 4.02544C33.016 4.14788 33.0664 4.27031 33.1168 4.27031C33.2009 4.31111 33.2849 4.2295 33.369 4.14787C33.5034 4.02543 33.6379 3.98462 33.7724 4.10706C33.9068 4.2295 34.0413 4.31111 34.1758 4.14787C34.2935 3.98462 34.4615 4.02544 34.5624 3.82138C34.6128 3.73976 34.6128 3.61732 34.596 3.45407C34.5792 3.41326 34.5624 3.33163 34.5288 3.33163C34.512 3.29082 34.4784 3.29083 34.4447 3.29083C34.3439 3.37245 34.2262 3.45407 34.1254 3.53569C34.0413 3.5765 33.9573 3.53569 33.9068 3.37245C33.8396 3.16839 33.8732 2.96433 33.9573 2.88271C33.9909 2.8419 34.0077 2.80108 34.0413 2.80108C34.2598 2.76027 34.4952 2.76027 34.7137 2.71946C34.7641 2.71946 34.8314 2.76027 34.8818 2.80108C34.9826 2.88271 35.0835 3.08677 35.2012 3.04596C35.2852 3.00514 35.3692 2.92352 35.4365 2.88271C35.5037 2.8419 35.6046 3.08677 35.6214 3.25001C35.6214 3.45407 35.5878 3.65813 35.5709 3.82138C35.5709 3.98463 35.6046 4.06625 35.655 4.14787C35.6886 4.18868 35.7054 4.2295 35.739 4.2295C35.9576 4.27031 36.1929 4.27031 36.4114 4.31112C36.6131 4.35193 36.798 4.31112 36.9997 4.27031C37.1006 4.27031 37.1174 4.14787 37.1174 3.86219C37.1174 3.61732 37.1846 3.45407 37.2519 3.53569C37.3527 3.65813 37.4536 3.78057 37.5544 3.86219C37.5712 3.903 37.5712 3.98463 37.588 4.02544C37.6049 4.06625 37.6217 4.06625 37.6385 4.06625C37.6385 3.98462 37.6049 3.903 37.5544 3.903C37.5712 3.45408 37.6385 3.12758 37.8234 2.96433C37.9747 2.80108 38.1428 2.67865 38.294 2.5154C38.3781 2.43377 38.3781 2.18891 38.3108 2.02566C38.294 1.98484 38.2772 1.90323 38.2436 1.90323C38.1596 1.86241 38.0755 1.8216 37.9915 1.8216C37.857 1.78079 37.7057 1.78079 37.5712 1.65835C37.3863 1.49511 37.1846 1.4543 36.9829 1.4543C36.3106 1.49511 35.6214 1.4543 34.949 1.41348C34.7809 1.41348 34.6128 1.49511 34.4615 1.73998C34.3271 1.94403 34.1926 1.90322 34.0581 1.73998C33.9741 1.65835 33.9237 1.49511 33.8732 1.33186C33.806 1.1278 33.8396 0.719684 33.9573 0.678867C33.9909 0.678867 34.0077 0.638057 34.0413 0.638057C34.2935 0.597248 34.5456 0.556438 34.7977 0.801304C34.8818 0.882931 34.949 0.882931 35.0331 0.801304C35.1171 0.719685 35.2012 0.678875 35.2852 0.638058C35.3356 0.597248 35.4029 0.638058 35.4533 0.638058C35.7054 0.638058 35.9576 0.638058 36.2097 0.597248C36.4955 0.556439 36.7644 0.638058 37.0502 0.801304C37.1006 0.842121 37.1678 0.801312 37.2182 0.760495C37.4032 0.556439 37.6049 0.638058 37.8066 0.597249C38.0083 0.556439 38.1932 0.638066 38.3949 0.760495C38.5126 0.842122 38.6134 0.842122 38.7311 0.801305C39.0336 0.597249 39.3362 0.556439 39.6388 0.842122C39.7228 0.923741 39.8069 0.923741 39.8909 0.923741C40.0926 0.964559 40.2775 1.00537 40.4792 0.964559C40.849 0.923749 41.2188 0.842115 41.5718 0.882932C41.9416 0.923742 42.3114 1.00537 42.6644 1.00537C42.7485 1.00537 42.8325 1.04618 42.9166 1.12781C43.1351 1.41349 43.3536 1.33186 43.5721 1.16862C43.6898 1.087 43.7906 1.08699 43.8915 1.20942C44.0764 1.37267 44.2781 1.33186 44.4798 1.20943C44.5302 1.16862 44.5807 1.08699 44.6143 1.00537C44.6647 0.923742 44.6983 0.801306 44.7319 0.719687C44.7656 0.801306 44.816 0.882933 44.8496 0.96456C44.9 1.04618 44.9336 1.12781 44.9841 1.16862C45.0681 1.20943 45.1522 1.25024 45.2362 1.25024C46.0767 1.20943 46.9339 1.29104 47.7744 1.29104C47.9089 1.29104 48.0602 1.29105 48.1946 1.25024C48.3963 1.20943 48.5812 1.25024 48.7661 1.4543C48.9006 1.61755 49.0351 1.57674 49.1864 1.53592C49.3545 1.49511 49.5057 1.33186 49.6906 1.49511C49.7411 1.53592 49.8083 1.49511 49.8587 1.41348C49.9932 1.25024 50.1277 1.29105 50.2622 1.4543C50.3294 1.53593 50.4134 1.61755 50.4975 1.61755C50.6656 1.57674 50.8337 1.53593 51.0018 1.57674C51.1699 1.61755 51.3379 1.61755 51.506 1.61755C51.7246 1.61755 51.9599 1.61755 52.1784 1.57674C52.3129 1.57674 52.4642 1.49512 52.5986 1.37268C52.7331 1.20943 52.8676 1.25024 53.0021 1.37268C53.0861 1.4543 53.1701 1.4543 53.2542 1.4543C53.5399 1.49511 53.8257 1.49511 54.0946 1.53592C54.2123 1.53592 54.3132 1.57674 54.4308 1.65836C54.5149 1.73998 54.5989 1.73998 54.683 1.65836C54.7838 1.57674 54.9015 1.53592 55.0191 1.49511C55.3049 1.49511 55.5907 1.4543 55.8596 1.4543C56.1622 1.41349 56.4815 1.4543 56.7841 1.61755C56.9018 1.69917 57.0026 1.65836 57.1203 1.57674C57.3892 1.41349 57.675 1.41349 57.9608 1.37268C58.2969 1.33186 58.6331 1.33186 58.9693 1.37268C59.1878 1.41349 59.4231 1.41349 59.6417 1.37268C59.8434 1.33186 60.0451 1.37268 60.23 1.57674C60.2804 1.61755 60.3477 1.65836 60.3981 1.57674C60.583 1.37268 60.7847 1.33187 60.9864 1.37268C61.5243 1.37268 62.0622 1.41348 62.6001 1.41348C62.6841 1.41348 62.7682 1.41348 62.8522 1.49511C63.1548 1.78079 63.4574 1.78079 63.7767 1.73998C63.9112 1.69918 64.0625 1.65836 64.197 1.53592C64.2474 1.49511 64.2978 1.4543 64.365 1.4543C64.6508 1.41349 64.9366 1.41349 65.2055 1.4543C65.4744 1.69918 65.7602 1.65836 66.046 1.69917C66.1636 1.69917 66.2645 1.65836 66.3821 1.53592C66.4326 1.49511 66.483 1.49511 66.5502 1.53592C66.6511 1.61755 66.7688 1.69917 66.8864 1.61755C67.0881 1.53592 67.273 1.49511 67.4747 1.61755C67.8109 1.61755 68.1471 1.82161 68.4833 1.69917C68.7859 1.73999 69.1052 1.73999 69.4078 1.7808C69.4582 1.7808 69.5255 1.82161 69.5759 1.86242C69.7608 2.02567 69.9625 2.06648 70.1642 2.06648C70.3659 2.06648 70.5676 2.06648 70.7525 2.10729C70.887 2.10729 71.0383 2.18892 71.1728 2.27054C71.3408 2.39298 71.5089 2.39298 71.677 2.27054C71.7275 2.22973 71.7779 2.27053 71.8451 2.31134C71.9292 2.35216 72.0132 2.43378 72.0973 2.43378C72.6352 2.43378 73.173 2.4746 73.7109 2.51541C73.8622 2.51541 73.9967 2.55623 74.1312 2.67865C74.2656 2.80109 74.4001 2.76028 74.5514 2.67865C74.854 2.43379 75.1565 2.43378 75.4591 2.71946C75.5431 2.80109 75.6272 2.80109 75.7112 2.8419C75.8457 2.8419 75.997 2.8419 76.1315 2.8419C76.2491 2.8419 76.35 2.92353 76.4676 2.92353C76.703 3.20921 76.9551 3.1684 77.2072 3.20921C77.409 3.25003 77.5939 3.25002 77.7956 3.29084C77.9973 3.29084 78.1822 3.33164 78.3671 3.5357C78.7873 3.65814 79.1907 4.06626 79.611 4.06626C79.7286 4.06626 79.8295 4.14789 79.9303 4.22951C80.0312 4.35194 80.1488 4.39275 80.2665 4.39275C80.3169 4.39275 80.3842 4.39275 80.4346 4.43357C80.7204 4.71925 81.0397 4.80087 81.3423 4.88249C81.4095 4.88249 81.4936 5.16818 81.4768 5.33143C81.46 5.45386 81.4432 5.61711 81.4432 5.73954C81.4432 5.86198 81.4768 5.98441 81.544 6.02522C81.5776 6.06604 81.5944 6.06604 81.6281 6.06604C81.8634 6.02523 82.0651 6.3109 82.2668 6.55578C82.3172 6.59659 82.3508 6.75984 82.3677 6.88227C82.4349 7.29039 82.5694 7.53526 82.7375 7.65769C82.9055 7.78013 83.0568 7.94338 83.2081 8.06581C83.3426 8.14744 83.4771 8.22906 83.6115 8.35149C83.6956 8.43312 83.7796 8.47393 83.8637 8.51474C83.9981 8.55556 84.1494 8.59637 84.2671 8.7188C84.5024 8.92286 84.7714 8.92286 85.0235 8.88205C85.0907 8.88205 85.1412 8.80043 85.1412 8.7188C85.1412 8.67799 85.1075 8.59637 85.0907 8.55555C84.9226 8.35149 84.7377 8.14744 84.5697 7.90257C84.452 7.73932 84.3511 7.78013 84.2503 7.90257C84.2167 7.94338 84.1999 7.94338 84.1662 7.98419C83.9981 8.10662 83.8301 8.06581 83.6956 7.78013C83.5947 7.53526 83.4939 7.3312 83.3762 7.12714C83.2754 6.9639 83.1745 6.9639 83.0568 7.08633C83.0064 7.12714 82.956 7.20876 82.9055 7.20876C82.8551 7.24958 82.7879 7.16795 82.7711 7.0047C82.7543 6.84146 82.7879 6.71902 82.8383 6.67821C82.8551 6.6374 82.8887 6.59659 82.9055 6.59659C83.0736 6.55578 83.2417 6.51496 83.4098 6.51496C83.5443 6.51496 83.6956 6.51497 83.8301 6.67821C84.0486 6.88227 84.2671 6.92308 84.5024 6.92308C84.6201 6.92308 84.7209 6.88227 84.8386 6.88227C84.9226 6.88227 85.0235 6.88227 85.0907 6.9639C85.2924 7.24958 85.511 7.29039 85.7463 7.24958C85.948 7.20877 86.1497 7.20876 86.3346 7.20876C86.4187 7.20876 86.5027 7.20876 86.5868 7.12714C86.8053 6.88227 87.0238 6.88227 87.2423 6.88227C87.6121 6.88227 87.9819 6.84146 88.3349 6.9639C88.419 7.00471 88.4862 7.12714 88.5534 7.24958C88.6039 7.37201 88.6039 7.49445 88.5366 7.57607C88.3685 7.78013 88.2845 8.06581 88.2172 8.47393C88.2004 8.63718 88.2004 8.75961 88.2509 8.84124C88.419 9.08611 88.5198 9.53504 88.6879 9.82072C88.7888 9.98397 88.7719 10.188 88.6711 10.5145C88.5534 10.8002 88.5534 10.841 88.6711 10.9226C88.7551 10.9634 88.8392 11.0043 88.9064 11.1267C88.9568 11.2083 89.0241 11.5348 88.9905 11.6572C88.9737 11.7797 88.9568 11.9021 88.9232 12.0246C88.8392 12.3919 88.7888 12.7592 88.8056 13.2081C88.8224 13.6162 88.8224 14.0243 88.7888 14.4325C88.7719 14.5549 88.7719 14.7181 88.7551 14.8406C88.7215 15.1671 88.5702 15.4527 88.4358 15.4119C88.3853 15.4119 88.3181 15.3711 88.2677 15.3303C88.2172 15.2895 88.15 15.3303 88.0996 15.3711C87.9987 15.4936 87.8811 15.5344 87.7634 15.5344C87.5953 15.5344 87.4272 15.5344 87.2591 15.5344C87.2591 15.4936 87.2423 15.4119 87.2423 15.3711C87.2255 15.3303 87.2087 15.3303 87.1919 15.3303C87.1919 15.4119 87.2255 15.4527 87.2759 15.4936C87.3095 15.6976 87.3768 15.8201 87.4608 15.8609C87.5449 15.9017 87.6289 15.9017 87.713 15.8609C87.8811 15.8201 88.0492 15.8609 88.2004 16.0649C88.3349 16.2282 88.4694 16.269 88.6039 16.3098C88.6879 16.3506 88.7383 16.5955 88.7047 16.7587C88.6375 17.0444 88.6039 17.4117 88.4694 17.575C88.4021 17.6566 88.3853 17.779 88.419 17.8606C88.4358 17.9015 88.4694 17.9014 88.4862 17.9423C88.5366 17.9831 88.587 18.0239 88.6543 18.0647C88.6711 18.1055 88.7215 18.1463 88.7215 18.1871C88.6711 18.6769 88.7888 19.1258 88.7719 19.6155C88.7551 19.8196 88.7215 19.9828 88.6375 20.0645C88.5534 20.1461 88.4694 20.1461 88.4021 20.2685C88.3517 20.3502 88.3181 20.5134 88.3685 20.595C88.419 20.7583 88.4862 20.8399 88.5534 21.0031C88.6207 21.1664 88.6375 21.3296 88.6039 21.5337C88.587 21.6153 88.5702 21.6561 88.5702 21.6969C88.503 22.0643 88.503 22.1867 88.6039 22.4316C88.6375 22.5132 88.6879 22.5948 88.7215 22.7172C88.7888 22.8805 88.7719 23.1254 88.7383 23.2886C88.6543 23.5743 88.4862 23.6151 88.4021 23.9008C88.3349 24.1048 88.419 24.3905 88.3181 24.6354C88.2172 24.8395 88.2172 24.9211 88.2845 25.1251C88.3349 25.2884 88.3853 25.4516 88.4358 25.6149C88.4862 25.7781 88.4526 25.9822 88.3853 26.1454C88.3685 26.1862 88.3349 26.2271 88.3181 26.2679C88.2509 26.4311 88.2509 26.4719 88.2845 26.7984C88.3013 27.0025 88.3349 27.2065 88.3349 27.4106C88.3349 27.8187 88.3181 28.2268 88.3181 28.6349C88.3181 28.8798 88.2341 29.0023 88.1668 29.0431C88.0155 29.1655 87.8474 29.3287 87.6962 29.4104C87.6457 29.4512 87.5785 29.4104 87.5281 29.3696C87.3768 29.3287 87.3264 29.4104 87.3264 29.7777C87.3264 29.8593 87.3264 29.9001 87.3432 29.9817C87.2927 29.9817 87.2423 29.9817 87.1919 29.9817C87.1751 29.9817 87.1415 30.0225 87.1246 30.0634C87.1078 30.1042 87.1078 30.145 87.1078 30.1858C87.1415 30.3082 87.1919 30.3082 87.2423 30.2266C87.2927 30.145 87.3095 30.0634 87.3264 29.9409C87.4608 29.9409 87.6121 29.9817 87.713 30.2674C87.8306 30.5939 87.9819 30.7572 88.1668 30.7572C88.2172 30.7572 88.2845 30.798 88.3349 30.8388C88.4021 30.8796 88.4862 31.1245 88.4694 31.2877C88.419 31.6142 88.419 31.9407 88.4694 32.2672C88.4862 32.3896 88.4694 32.5529 88.4358 32.6345C88.2845 32.9202 88.1332 33.2467 87.9819 33.5324C87.9315 33.614 87.8811 33.614 87.8138 33.614C87.6625 33.614 87.5449 33.4507 87.4104 33.3691C87.36 33.3283 87.2927 33.3691 87.2423 33.4099C87.091 33.614 86.9902 33.9813 86.8389 34.1037C86.7717 34.1853 86.7548 34.3078 86.8053 34.3486C86.8221 34.3894 86.8557 34.3894 86.8893 34.3894C86.9397 34.3894 87.007 34.4302 87.0574 34.3486C87.1583 34.267 87.2591 34.1037 87.36 34.0221C87.4944 33.8997 87.6289 33.9405 87.7634 34.1037C87.7802 34.1445 87.8138 34.1853 87.8306 34.2262C87.8811 34.471 87.9315 34.7159 87.9651 34.9608C88.0155 35.2873 88.0996 35.5321 88.2341 35.6954C88.3349 35.8178 88.3517 36.1035 88.2677 36.3892C88.1836 36.6749 88.0996 36.9605 88.0323 37.2462C87.9651 37.4911 87.8811 37.6135 87.7634 37.6543C87.4608 37.6952 87.1415 37.736 86.8389 37.8176C86.7717 37.8176 86.738 37.9808 86.738 38.1033C86.7212 38.2665 86.7548 38.389 86.8053 38.4298C86.8557 38.4706 86.9061 38.5114 86.9566 38.5522C87.091 38.5522 87.2423 38.5522 87.3768 38.6746C87.4608 38.7154 87.5281 38.8379 87.5617 39.0419C87.5953 39.2052 87.5785 39.3276 87.4944 39.3276C87.2087 39.4092 86.9397 39.4093 86.654 39.4093C86.6036 39.1644 86.5195 39.0011 86.4019 39.0011C86.2674 39.0011 86.1329 39.0011 85.9984 39.0419C85.9816 39.0419 85.948 39.0828 85.9312 39.1644C85.9144 39.246 85.948 39.3276 86.0152 39.3684C86.2338 39.4909 86.4355 39.4093 86.654 39.4093C86.6876 39.6133 86.7548 39.7357 86.8389 39.7766C86.9229 39.8174 87.007 39.8582 87.0574 40.0214C87.1078 40.1847 87.1078 40.4704 87.0238 40.5112C86.9734 40.552 86.9229 40.5928 86.8557 40.5928C86.738 40.5928 86.6372 40.552 86.5195 40.4704C86.4187 40.3887 86.301 40.3071 86.2001 40.2663C85.9816 40.2255 85.7631 40.1439 85.5446 39.9398C85.4437 39.8582 85.3261 39.8174 85.2084 39.8174C84.9226 39.8174 84.6537 39.8582 84.3679 39.899C84.3343 39.899 84.3175 39.899 84.2839 39.9398C84.183 39.9806 84.183 40.1031 84.2671 40.1031C84.4352 40.1847 84.6033 40.1847 84.7714 40.2255C84.8554 40.2663 84.9226 40.3479 84.9899 40.5112C85.0403 40.6336 85.0571 40.756 85.0067 40.8377C84.9899 40.8785 84.9563 40.9193 84.9395 40.9193C84.805 40.8377 84.6705 40.756 84.536 40.7152C84.3679 40.6744 84.1999 40.7152 84.0318 40.756C83.8132 40.7968 83.5947 41.0417 83.3762 41.0417C83.1745 41.0417 82.9896 41.0825 82.7879 41.1233C82.7038 41.1642 82.6366 41.2866 82.603 41.4907C82.5862 41.4907 82.5526 41.5315 82.5357 41.5315C82.5189 41.5315 82.5189 41.6131 82.5189 41.6539C82.5694 41.6539 82.5862 41.6131 82.5862 41.4498C82.6702 41.4498 82.7543 41.4907 82.8383 41.4907C83.0064 41.5315 83.0232 41.6131 82.9896 42.0212C82.956 42.3885 82.956 42.4293 83.0064 42.5926C83.1577 43.0007 83.309 43.4088 83.4603 43.8169C83.4939 43.9394 83.5275 44.0618 83.5107 44.1842C83.4771 44.3067 83.4266 44.3475 83.3594 44.3475C83.2753 44.3883 83.1913 44.3883 83.1073 44.4291C83.04 44.4699 82.9728 44.7148 82.9728 44.878C82.956 45.2045 82.956 45.5718 83.0064 45.8983C83.0736 46.2656 83.1577 46.6329 83.2249 47.0002C83.2753 47.2451 83.2753 47.5308 83.2585 47.8165C83.2585 47.8981 83.2417 47.9389 83.2249 48.0205C83.1577 48.347 83.1577 48.6735 83.2417 49C83.309 49.2449 83.309 49.5306 83.2753 49.7754C83.2417 49.9795 83.1913 50.1427 83.2081 50.3468C83.2585 50.7141 83.1745 50.9998 83.0904 51.2855C83.04 51.4487 83.04 51.6528 83.0904 51.8568C83.1073 51.8976 83.1073 51.9793 83.1241 52.0609C83.1913 52.7547 83.1913 53.4077 82.9896 54.0199C82.956 54.1423 82.9055 54.2239 82.8887 54.3464C82.8047 54.8769 82.7879 55.4075 82.9224 55.8972C82.9896 56.1421 83.0736 56.3053 83.2081 56.3053C83.2585 56.3053 83.3258 56.3053 83.3762 56.3053C83.4098 56.3053 83.4266 56.3053 83.4602 56.3461C83.4939 56.3869 83.5275 56.3869 83.5275 56.4278C83.5443 56.5094 83.5107 56.591 83.4434 56.6318C83.393 56.6726 83.3258 56.6318 83.2753 56.6726C83.0904 56.7134 83.0232 56.9175 83.1409 57.3256C83.2753 57.7745 83.2585 57.8154 83.0568 57.9786C82.9728 58.0194 82.9055 58.101 82.8215 58.2235C82.7543 58.3459 82.7038 58.55 82.7543 58.754C82.8215 59.0805 82.8551 59.407 82.8383 59.7335C82.8047 60.1416 82.8383 60.5497 82.8719 60.9579C82.9224 61.4884 82.9224 61.4884 82.8215 61.8965C82.8047 61.9373 82.7879 62.019 82.7711 62.0598C82.7375 62.1822 82.7375 62.3047 82.7543 62.4271C82.8551 62.9985 82.956 63.529 83.0568 64.1004C83.0904 64.3452 83.1073 64.3861 82.9392 64.5085C82.7879 64.6309 82.687 64.7942 82.6534 65.2023C82.6534 65.2839 82.6366 65.3247 82.6366 65.4063C82.5862 65.5696 82.5357 65.7328 82.4517 65.7737C82.3677 65.8145 82.2836 65.8145 82.1996 65.8553C82.1323 65.8961 82.0987 65.9777 82.1155 66.0593C82.1323 66.1001 82.1659 66.141 82.1828 66.1818C82.2332 66.2226 82.3004 66.2226 82.3508 66.2634C82.4349 66.3042 82.4853 66.5491 82.4685 66.7531C82.4517 66.8756 82.4181 67.0388 82.4349 67.1613C82.4685 67.3653 82.5526 67.4469 82.603 67.5694C82.6534 67.6918 82.6534 67.8142 82.6534 67.9367C82.6198 68.304 82.5021 68.508 82.3677 68.5897C82.1491 68.7121 81.9138 68.7529 81.6953 68.8753C81.5272 68.957 81.3759 69.0794 81.191 69.0794C80.9725 69.0794 80.7372 69.161 80.5355 69.4059C80.4346 69.5283 80.3169 69.5283 80.1993 69.5283C80.0312 69.5691 79.8631 69.5691 79.695 69.6916C79.5101 69.8548 79.3084 69.8956 79.1067 69.9365C78.7705 70.0181 78.4343 70.0181 78.0981 70.2629C77.9973 70.3446 77.8796 70.3446 77.7619 70.3446C77.3921 70.3854 77.0223 70.3854 76.6693 70.6303C76.6189 70.6711 76.5517 70.6303 76.5013 70.5894C76.4172 70.5486 76.3332 70.5486 76.2491 70.6302C76.0642 70.7935 75.8625 70.8343 75.6608 70.8343C75.207 70.8751 74.7531 70.8751 74.2993 70.8751C73.8118 70.8751 73.3411 70.9159 72.8537 70.9159C72.1981 70.9159 71.5594 70.9159 70.9038 70.9567C70.4836 70.9976 70.0633 70.9567 69.6263 70.9976C69.475 70.9976 69.3406 70.9159 69.2229 70.7527C69.1725 70.6711 69.122 70.7119 69.0548 70.7527C68.9539 70.8751 68.8363 70.9159 68.7186 70.9159C68.2311 70.9159 67.7605 70.9159 67.273 70.9159C67.2394 70.9159 67.2058 70.9159 67.189 70.9159C67.0377 70.7527 66.8696 70.7527 66.7015 70.7935C66.4494 70.5078 66.2141 70.5894 65.9619 70.8343C65.8274 70.9567 65.693 70.9976 65.5417 70.9976C65.34 70.9567 65.1383 70.9976 64.9534 70.8343C64.9029 70.7935 64.8357 70.8343 64.7853 70.8751C64.634 70.9976 64.5331 70.8751 64.4323 70.5486C64.3314 70.2221 64.2138 70.1813 64.0625 70.3854C63.9112 70.5894 63.7599 70.6711 63.575 70.6711C63.3229 70.6711 63.0707 70.7119 62.8186 70.6711C62.6841 70.6302 62.5328 70.6711 62.3984 70.7527C62.2639 70.8751 62.1294 70.7935 61.9781 70.7527C61.5747 70.6302 60.7847 70.5894 60.2804 70.6302C60.0787 70.6711 59.8938 70.6711 59.6921 70.6711C59.608 70.6711 59.524 70.6302 59.4568 70.5078C59.3223 70.3446 59.1878 70.3038 59.0533 70.467C58.9861 70.5486 58.9021 70.6302 58.818 70.6302C58.5995 70.5894 58.3642 70.6302 58.1457 70.4262C57.9103 70.2221 57.6414 70.2629 57.3892 70.2629C57.3388 70.2629 57.2716 70.3038 57.2211 70.3446C57.0867 70.467 56.9522 70.5486 56.8177 70.5486C56.5992 70.5486 56.3639 70.5894 56.1454 70.6302C55.9773 70.6302 55.8092 70.5894 55.6411 70.4262C55.557 70.3446 55.473 70.3038 55.389 70.3038C55.1032 70.3038 54.8174 70.2629 54.5485 70.5078C54.4476 70.5894 54.33 70.6302 54.2123 70.6302C54.0442 70.6302 53.8761 70.5894 53.708 70.4262C53.6072 70.3038 53.5063 70.2221 53.3887 70.0997C53.3382 70.0589 53.2878 70.0589 53.2206 70.0997C52.9516 70.3038 52.6659 70.2629 52.3801 70.2629C52.2961 70.2629 52.2793 70.1405 52.2961 69.9773C52.3129 69.814 52.3129 69.6916 52.2624 69.61C52.212 69.5283 52.1616 69.4875 52.0944 69.5283C52.0103 69.5691 51.9263 69.61 51.8422 69.6508C51.7918 69.6916 51.7414 69.6916 51.6741 69.6508C51.5901 69.5691 51.506 69.5691 51.422 69.5283C51.3043 69.4875 51.1867 69.4875 51.0858 69.61C50.7664 69.9773 50.4302 69.9364 50.0941 69.9773C50.01 69.9773 49.926 69.8956 49.8587 69.7732C49.7411 69.5691 49.6738 69.2835 49.5898 68.9978C49.5562 68.8753 49.4889 68.8345 49.4385 68.8345C49.3881 68.8345 49.3208 68.7937 49.2704 68.8345C49.0855 69.0386 48.867 68.7937 48.6989 69.0386C48.5308 69.1202 48.3627 69.2426 48.2114 69.3651C48.1274 69.4467 48.0433 69.4059 47.9593 69.3243C47.9089 69.2835 47.8584 69.2018 47.7912 69.2018C47.3374 69.161 46.8835 69.0794 46.4297 69.2018C46.3456 69.2426 46.2784 69.3651 46.228 69.5283L46.2448 69.4875C46.1607 69.4467 46.0767 69.4875 45.9926 69.4059C45.875 69.2835 45.7909 69.2426 45.6901 69.4467C45.6564 69.5283 45.606 69.6099 45.5556 69.6916C45.5052 69.7732 45.4547 69.814 45.4043 69.8548C45.1522 69.9364 44.9 69.9773 44.6479 70.0181C44.4462 70.0181 44.2613 69.9773 44.0596 69.8956C43.9419 69.8548 43.9587 69.6099 43.9587 69.4467C43.9587 69.4059 43.9419 69.3243 43.9251 69.2835C43.8411 69.161 43.404 68.8753 43.2864 68.8345C43.1519 68.7937 43.0006 68.7937 42.8661 68.7529C42.7485 68.7529 42.6476 68.6713 42.5467 68.508C42.4459 68.3856 42.345 68.2632 42.2442 68.1815C42.1938 68.1407 42.1265 68.0999 42.0761 68.0999C41.824 68.1815 41.5718 67.8959 41.3197 67.9775C41.1852 68.0183 41.0339 67.9775 40.8995 67.9367C40.5969 67.855 40.2775 67.855 39.9749 67.8959C39.7732 67.9367 39.5883 67.8142 39.4034 67.651C39.269 67.5285 39.1345 67.5694 38.9832 67.6102C38.9328 67.651 38.8655 67.651 38.8151 67.7326C38.6806 67.855 38.5462 67.8959 38.3949 67.9367C38.1932 67.9367 38.0083 67.9775 37.8066 67.9775C37.6553 67.9775 37.5208 67.8959 37.4031 67.7326C37.2855 67.6102 37.1846 67.6102 37.0838 67.7734C36.9325 67.9775 36.798 68.1815 36.714 68.5897C36.6299 68.9978 36.4618 69.1202 36.2937 69.161C36.1257 69.2018 35.9576 69.161 35.7895 69.161C35.7054 69.161 35.6214 69.161 35.5373 69.0794C35.1507 68.7937 34.7641 68.7937 34.3607 68.7529C34.159 68.7529 33.9741 68.7121 33.7724 68.508C33.6883 68.4264 33.6043 68.4264 33.5202 68.4264C32.9487 68.4264 32.394 68.3856 31.8225 68.3856C31.6208 68.3856 31.4359 68.304 31.251 68.1407C31.1501 68.0183 31.0325 68.0183 30.9148 67.9775C30.7971 67.9775 30.6963 67.9775 30.5786 67.9775C30.3265 67.9775 30.0744 67.9775 29.8222 67.9367C29.7046 67.9367 29.6037 67.8959 29.486 67.8142C29.3179 67.6918 29.1498 67.651 28.9818 67.651C28.6456 67.651 28.3094 67.6102 27.9732 67.6102C27.7715 67.6102 27.5866 67.5694 27.3849 67.3653C27.2504 67.2429 27.1159 67.2429 26.9647 67.2429C26.5108 67.2021 26.057 67.2021 25.6031 67.1612C25.4855 67.1612 25.3678 67.1612 25.2669 67.0796C25.0148 66.8756 24.7627 66.8347 24.5105 66.8347C24.208 66.8347 23.8886 66.8347 23.586 66.7939C23.4684 66.7939 23.3507 66.7939 23.2498 66.7123C23.0313 66.5491 22.8128 66.5082 22.5775 66.5082C22.3758 66.5082 22.1909 66.4674 21.9891 66.4674C21.9051 66.4674 21.8211 66.4674 21.737 66.3858C21.4344 66.0593 21.1319 66.1409 20.8125 66.1001C20.6948 66.1001 20.594 66.1001 20.4763 66.1001C20.325 66.1001 20.1906 66.0185 20.0729 65.8553C19.9384 65.692 19.804 65.6104 19.6695 65.6512C19.182 65.7736 18.7114 65.692 18.2407 65.6512C18.123 65.6512 18.0222 65.6104 17.9045 65.488C17.7701 65.3655 17.6356 65.3247 17.4843 65.3247C17.2658 65.3247 17.0304 65.2839 16.8119 65.2839C16.5934 65.2431 16.3581 65.2431 16.1396 65.0798C16.0387 64.9982 15.921 64.9982 15.8034 64.9574C15.6017 64.9166 15.4168 64.9166 15.2151 64.8758C15.131 64.8758 15.047 64.8758 14.9629 64.7942C14.694 64.5085 14.4082 64.5085 14.1393 64.5085C13.8535 64.5085 13.5846 64.386 13.2988 64.2228C12.9626 64.0595 12.6264 64.1004 12.2903 64.0187C12.2734 64.0187 12.2398 63.9779 12.2398 63.9371C12.2398 63.8555 12.2566 63.7739 12.2735 63.733C12.3239 63.6514 12.3743 63.6106 12.4079 63.529C12.4584 63.4474 12.492 63.3249 12.5256 63.2433C12.5424 63.2025 12.5592 63.1209 12.5424 63.0801C12.5256 63.0392 12.492 62.9576 12.4752 62.9576C12.3407 62.9168 12.1894 62.9168 12.0549 62.8352C11.7524 62.7128 11.7188 62.7128 11.517 62.9984C11.5002 63.0392 11.4834 63.0801 11.4666 63.1617C11.4498 63.2025 11.4498 63.2841 11.433 63.3657L11.4498 63.3249C11.3658 63.2841 11.3153 63.1209 11.2985 62.9168C11.4162 63.0392 11.4162 62.9168 11.3994 62.7944ZM80.6195 64.7125C80.5691 64.7125 80.5186 64.7125 80.4682 64.7125C80.4514 64.7125 80.4178 64.7534 80.401 64.7942C80.3842 64.835 80.3842 64.8758 80.3842 64.9166C80.4178 64.9982 80.4682 65.039 80.5186 64.9574C80.5691 64.9574 80.6027 64.835 80.6195 64.7125C80.6363 64.6717 80.6531 64.6717 80.6867 64.6309C80.7035 64.6309 80.7035 64.5493 80.7035 64.5085C80.6531 64.4677 80.6195 64.5493 80.6195 64.7125ZM81.46 65.5288C81.1574 65.488 80.838 65.5288 80.5523 65.8145C80.5018 65.8553 80.4514 65.8961 80.3842 65.8961C80.132 65.9777 79.8799 66.0185 79.6278 65.8961C79.5941 65.8961 79.5605 65.8553 79.5437 65.8145C79.5269 65.7328 79.5437 65.6104 79.5941 65.5288C79.6446 65.4472 79.6614 65.3247 79.6278 65.2431C79.611 65.2023 79.5773 65.1615 79.5605 65.1615C79.3924 65.1207 79.2243 65.1615 79.0731 65.4063C78.9386 65.6512 78.8041 65.9369 78.6528 66.0593C78.6192 66.1001 78.6024 66.141 78.5856 66.1818C78.5184 66.3042 78.4847 66.5083 78.4343 66.6715C78.4007 66.7939 78.4847 67.1204 78.5352 67.1613C78.7369 67.2429 78.9218 67.2021 79.1235 67.0796C79.258 66.998 79.3924 66.8348 79.5269 66.8348C79.695 66.7939 79.8631 66.7939 80.0312 66.7123C80.1993 66.6307 80.3506 66.4675 80.5186 66.3858C80.8044 66.3042 81.0565 66.0185 81.3255 65.8145C81.4095 65.7737 81.4431 65.6512 81.46 65.5288C81.6112 65.5288 81.7793 65.5288 81.9474 65.4472C81.981 65.4472 81.9979 65.3655 82.0147 65.3247C81.9979 65.2839 81.981 65.2431 81.9642 65.2023C81.8634 65.1207 81.7457 65.0799 81.6281 65.1615C81.5608 65.2431 81.4936 65.3247 81.46 65.5288ZM47.9089 2.96433C47.808 3.08677 47.7072 3.2092 47.6063 3.33163C47.5559 3.37245 47.4886 3.37245 47.4382 3.41327C47.4046 3.41327 47.3878 3.41326 47.3542 3.37245C47.2869 3.33164 47.2701 3.2092 47.2869 3.04596C47.3037 2.80109 47.2533 2.67865 47.1525 2.67865C46.9844 2.67865 46.8163 2.67865 46.6482 2.67865C46.5641 2.67865 46.4801 2.71946 46.4129 2.84189C46.228 3.12758 46.0431 3.04596 45.8413 2.96433C45.5388 2.63784 45.2362 2.67866 44.9337 2.80108C44.9 2.80108 44.8832 2.84189 44.8496 2.84189C44.7992 2.88271 44.7488 2.8419 44.6815 2.80108C44.5975 2.71947 44.5134 2.67865 44.4294 2.67865C44.3117 2.63784 44.2277 2.47459 44.1604 2.22972C44.11 2.02566 44.0428 1.94404 43.9587 1.94404C43.9251 1.94404 43.9083 1.94404 43.8747 1.94404C43.673 1.94404 43.4713 1.94404 43.2864 1.94404C43.0342 1.98485 42.7989 2.31134 42.5468 2.31134C42.4963 2.31134 42.4459 2.39296 42.3955 2.43377C42.3618 2.47459 42.345 2.5154 42.3282 2.5154C42.261 2.59702 42.177 2.71946 42.0929 2.71946C41.8072 2.71946 41.5214 2.71946 41.2524 2.67865C41.1684 2.67865 41.0844 2.59703 41.0339 2.43377C40.9331 2.1481 40.8154 2.02566 40.6641 1.98485C40.1599 1.86242 39.6556 1.94404 39.1345 1.98485C39.0504 1.98485 38.9832 2.10728 38.9328 2.31134C38.8992 2.47459 38.8319 2.63784 38.7647 2.76027C38.6975 2.84189 38.6975 2.96433 38.7143 3.04596C38.7311 3.08677 38.7647 3.12758 38.7815 3.12758C38.9832 3.2092 39.1681 3.2092 39.3698 3.37245C39.4202 3.41326 39.4875 3.41326 39.5379 3.37245C39.6556 3.29083 39.7564 3.29083 39.8741 3.41327C40.059 3.57651 40.2439 3.73975 40.4288 3.86219C40.5297 3.94381 40.6473 3.903 40.7482 3.78057C40.8658 3.61732 41.0003 3.49489 41.1516 3.49489C41.2861 3.49489 41.4373 3.49489 41.5718 3.49489C41.7231 3.49489 41.8576 3.57651 41.9752 3.78057C42.0761 3.94381 42.1769 3.98462 42.2946 3.98462C42.7148 3.98462 43.1351 4.06625 43.5553 3.86219C43.757 3.86219 43.9587 3.90301 44.1436 3.86219C44.9336 3.82138 45.7237 3.86219 46.5137 3.86219C47.0516 3.86219 47.5895 3.8622 48.1274 3.82138C48.161 3.82138 48.1778 3.82138 48.2114 3.78057C48.2451 3.78057 48.2619 3.73976 48.2955 3.69894C48.3795 3.65813 48.4131 3.41327 48.3627 3.2092C48.2451 2.59703 48.0602 2.5154 47.9089 2.96433ZM23.2835 63.8555C23.0649 64.1412 22.8128 64.3452 22.5775 64.5085C22.527 64.5493 22.4766 64.5085 22.4094 64.4677C22.3253 64.4268 22.2413 64.386 22.1572 64.3452C22.0228 64.3452 21.8715 64.3452 21.737 64.3452C21.6193 64.3452 21.5185 64.3044 21.4176 64.1412C21.2832 63.9779 21.1487 63.9371 21.0142 63.9779C20.8461 64.0187 20.6948 64.182 20.5099 64.1004C20.4595 64.0595 20.4091 64.1412 20.3587 64.2228C20.2242 64.386 20.0897 64.386 19.9552 64.2228C19.888 64.1412 19.804 64.0595 19.7199 63.9779C19.6359 63.8963 19.5686 63.9371 19.4846 64.1004C19.4005 64.3044 19.4173 64.5085 19.5014 64.5901C19.8376 64.9166 20.1906 65.1615 20.5772 65.0798C20.6276 65.0798 20.6948 65.0798 20.7453 65.0798C20.947 65.0798 21.1319 65.1615 21.3168 65.3655C21.384 65.4471 21.4849 65.488 21.5689 65.488C21.6866 65.5288 21.7874 65.5288 21.9051 65.488C22.4934 65.3655 23.0985 65.488 23.6869 65.488C23.7709 65.488 23.855 65.5696 23.939 65.6512C24.0399 65.7328 24.1575 65.8145 24.2416 65.9777C24.4097 66.2634 24.6114 66.3042 24.7963 66.4674C24.8467 66.5083 24.9139 66.5491 24.9644 66.4674C25.0988 66.3042 25.2333 66.2226 25.3678 66.2226C25.6199 66.2226 25.8721 66.2226 26.1242 66.0185C26.1746 65.9777 26.2419 66.0185 26.2923 66.0593C26.3763 66.1001 26.4604 66.2226 26.5276 66.2226C26.6957 66.2634 26.847 66.5083 26.9815 66.7531C27.0655 66.9572 27.1832 66.998 27.3008 66.998C27.553 66.998 27.8051 66.998 28.0573 66.998C28.2758 66.998 28.5111 66.9572 28.7128 66.7123C28.7632 66.6715 28.8305 66.6715 28.8809 66.6715C28.9649 66.6715 29.0658 66.6715 29.133 66.7531C29.3348 66.998 29.5701 66.998 29.7718 67.2429C29.8726 67.3653 29.9903 67.4061 30.108 67.4061C30.2761 67.4061 30.4442 67.4061 30.6122 67.4061C30.814 67.4061 30.9989 67.5285 31.1838 67.6918C31.2678 67.7734 31.3687 67.6918 31.4191 67.5285C31.4863 67.3245 31.5704 67.1204 31.6544 66.9572C31.7385 66.8347 31.7216 66.6715 31.6376 66.4674C31.5704 66.3042 31.5368 66.3042 31.4023 66.3858C31.3182 66.4674 31.2342 66.4674 31.1501 66.3858C31.0157 66.2634 30.898 66.1409 30.7635 65.9777C30.7131 65.9369 30.6459 65.9369 30.5954 66.0185C30.4105 66.2226 30.2088 66.2634 30.0071 66.2634C29.6709 66.2226 29.3348 66.2634 28.9986 65.9777C28.9481 66.0185 28.8809 66.0185 28.8473 66.0593C28.7632 66.1409 28.6792 66.1409 28.612 66.0593C28.5615 65.9777 28.5111 65.8961 28.4775 65.8145C28.343 65.5288 28.1917 65.3655 28.0068 65.4063C27.5866 65.488 27.1664 65.3247 26.7461 65.4471C26.6957 65.4471 26.6285 65.4063 26.578 65.4063C26.4604 65.3655 26.3931 65.1615 26.3595 64.835C26.3427 64.5493 26.4436 64.2636 26.5444 64.3452C26.7293 64.5085 26.931 64.5493 27.1328 64.5493C27.553 64.5085 27.9732 64.5085 28.3934 64.7942C28.4439 64.835 28.4943 64.7942 28.5615 64.7533C28.612 64.7125 28.6624 64.6717 28.7296 64.6717C29.1498 64.6309 29.5701 64.6309 30.0071 64.6309C30.0575 64.6309 30.1248 64.6717 30.1752 64.7125C30.3097 64.8758 30.4442 64.9166 30.5786 64.9166C30.9148 64.9166 31.251 64.9166 31.604 64.9166C31.7721 64.9166 31.9402 64.9574 32.1083 65.1207C32.3268 65.3247 32.5453 65.4063 32.7806 65.3655C32.9487 65.3655 33.1168 65.3655 33.2849 65.3655C33.4362 65.3655 33.5707 65.4471 33.6883 65.6104C33.7892 65.7328 33.9068 65.7328 34.0245 65.6512C34.1254 65.5696 34.2262 65.4471 34.3271 65.3247C34.3775 65.2431 34.4111 65.1207 34.3943 65.039C34.3775 64.9982 34.3439 64.9574 34.3271 64.9574C34.0245 64.9166 33.7051 64.9166 33.4026 64.8758C33.2849 64.8758 33.184 64.835 33.0664 64.7533C32.8983 64.6309 32.7302 64.5901 32.5621 64.5901C32.2259 64.5901 31.8897 64.5901 31.5536 64.5493C31.4359 64.5493 31.3182 64.5085 31.2174 64.4269C31.0325 64.2636 30.8308 64.2228 30.6291 64.2228C30.1752 64.2636 29.7214 64.1412 29.2675 64.1412C29.1498 64.1412 29.049 64.1004 28.9313 64.0187C28.7128 63.8555 28.4943 63.7739 28.259 63.7739C27.9228 63.8147 27.5866 63.7739 27.2504 63.529C27.1496 63.4474 27.0319 63.4882 26.9142 63.4474C26.5108 63.4066 26.1242 63.3657 25.7208 63.3249C25.6031 63.3249 25.5023 63.2841 25.3846 63.2025C25.1661 63.0393 24.9476 62.9984 24.7122 62.9984C24.3088 62.9984 23.9222 62.9576 23.5188 62.9576C23.3843 62.9576 23.233 62.876 23.0985 62.7536C22.9977 62.6311 22.88 62.6311 22.7624 62.6311C22.5102 62.6311 22.2581 62.5903 22.006 62.5903C21.8883 62.5903 21.7706 62.5903 21.6698 62.4679C21.4513 62.2638 21.2327 62.223 20.9974 62.223C20.6948 62.223 20.3755 62.223 20.0729 62.1822C19.9889 62.1822 19.9048 62.1822 19.8208 62.1006C19.6022 61.8965 19.3837 61.8557 19.1484 61.8557C18.5601 61.8149 17.9549 61.8149 17.3666 61.8965C17.3162 61.8965 17.249 61.9373 17.1985 61.9373C17.1649 61.9373 17.1481 61.9781 17.1313 62.019C17.0977 62.1006 17.1313 62.1822 17.2153 62.223C17.4675 62.3454 17.7196 62.2638 17.9549 62.5495C18.0558 62.6719 18.1735 62.6311 18.2911 62.6311C18.5433 62.6311 18.7954 62.6311 19.0475 62.6311C19.182 62.6311 19.3333 62.6719 19.4678 62.7944C19.6863 63.0392 19.9048 63.0801 20.1233 63.0801C20.3755 63.0801 20.6276 63.0801 20.8797 63.0801C21.0815 63.0801 21.2664 63.1617 21.4681 63.3249C21.5689 63.4066 21.6866 63.4474 21.8042 63.4474C21.9723 63.4474 22.1404 63.4474 22.3085 63.4474C22.5607 63.4066 22.8128 63.4474 23.0649 63.4882C23.149 63.4882 23.2162 63.6514 23.2498 63.8555L23.2835 63.8555ZM50.5647 4.14787C51.0186 4.10706 51.3548 4.10706 51.6909 4.10706C51.7246 4.10706 51.7414 4.10706 51.775 4.10706C51.8254 4.06625 51.8926 4.06625 51.9431 3.98463C52.0944 3.78057 52.2624 3.78057 52.4305 3.73975C52.481 3.73975 52.5314 3.65813 52.5818 3.61732C52.6491 3.57652 52.7499 3.20921 52.7163 3.12758C52.6827 3.00514 52.6154 3.00515 52.565 2.96433C52.4305 2.92352 52.2793 2.92352 52.1448 3.08677C52.1112 3.12759 52.0944 3.1684 52.0775 3.1684C51.9431 3.29083 51.8926 3.20921 51.8926 2.8419C51.8926 2.67865 51.8758 2.59703 51.7918 2.55621C51.6237 2.47459 51.4556 2.59703 51.2875 2.59703C51.0858 2.59703 50.9009 2.55621 50.6992 2.55621C50.6488 2.55621 50.5983 2.63784 50.5479 2.71946C50.4639 2.80109 50.4303 3.00514 50.363 3.12758C50.2958 3.29082 50.2117 3.33164 50.1277 3.29083C50.0773 3.29083 50.01 3.25002 49.9596 3.2092C49.6234 2.88271 49.304 2.88271 48.9847 3.29083C48.9174 3.37245 48.8166 3.37245 48.7325 3.41327C48.6653 3.45408 48.6317 3.5357 48.6653 3.61732C48.6821 3.65813 48.7157 3.69894 48.7325 3.69894C48.9342 3.73976 49.1191 3.78057 49.304 3.98463C49.4049 4.10706 49.5226 4.14788 49.6402 4.10706C50.01 4.14788 50.3462 4.10706 50.5647 4.14787ZM20.3587 46.6329C20.4427 46.5921 20.5436 46.5921 20.6612 46.5105C20.6948 46.5105 20.7116 46.4289 20.7285 46.4289C20.7957 46.3472 20.8125 46.2656 20.8125 46.1024C20.7957 45.9799 20.7621 45.8167 20.7116 45.8167C20.4931 45.7351 20.2746 45.531 20.0729 45.2453C20.0561 45.2045 20.0225 45.1637 20.0057 45.1637C19.8712 45.0413 19.7367 44.9596 19.5854 45.1229C19.4005 45.2861 19.2156 45.4494 19.0139 45.4494C18.7282 45.4494 18.4424 45.4086 18.1735 45.2045C17.8205 44.9188 17.4507 44.9188 17.0809 45.0821C16.9968 45.1229 16.9296 45.2453 16.8792 45.4086C16.8455 45.531 16.8287 45.6534 16.8624 45.7759C16.896 45.8983 16.9296 45.9799 16.9968 46.0207C17.0304 46.0207 17.0472 46.0616 17.0809 46.0616C17.4171 45.8167 17.7532 45.8167 18.0726 46.1024C18.2071 46.2248 18.3584 46.184 18.4928 46.3064C18.6609 46.4697 18.8122 46.4289 18.9803 46.2656C19.1148 46.1432 19.2661 46.1432 19.4005 46.2248C19.5182 46.3064 19.6191 46.388 19.7199 46.4697C19.9216 46.5921 20.1233 46.6329 20.3587 46.6329ZM27.7715 60.713C27.6034 60.917 27.4689 61.2435 27.284 61.4476C27.2672 61.4884 27.2336 61.5292 27.2336 61.6108C27.2168 61.6517 27.2168 61.7333 27.2336 61.8149C27.2672 62.019 27.3513 62.1006 27.4353 62.1006C27.5698 62.1006 27.7043 61.9373 27.8219 61.8149C27.9732 61.6108 28.0236 61.2435 27.8555 60.8762C27.8219 60.7538 27.8051 60.7538 27.7715 60.713ZM17.7364 57.7745C17.7364 57.9378 17.77 58.0194 17.8373 58.0602C18.0894 58.1826 18.3248 58.101 18.5769 58.1418C18.7618 58.1826 18.9635 58.1418 19.1484 58.101C19.2156 58.101 19.2493 57.9786 19.2324 57.9378C19.2156 57.897 19.182 57.8562 19.1652 57.8562C18.9467 57.8153 18.7282 57.7745 18.5097 57.8153C18.3079 57.8562 18.123 57.7337 17.9381 57.5705C17.9213 57.5297 17.8877 57.5705 17.8541 57.5705C17.7869 57.5297 17.7532 57.6521 17.7364 57.7745ZM26.8638 59.2846C26.7629 59.2846 26.6285 59.2846 26.494 59.2846C26.4772 59.2846 26.4268 59.3254 26.4268 59.3662C26.41 59.4886 26.4436 59.6111 26.494 59.6519C26.6117 59.8151 26.7461 59.9376 26.8806 59.8151C27.0319 59.6519 27.2168 59.7335 27.3513 59.5294C27.3681 59.4886 27.3681 59.4478 27.3849 59.407C27.3681 59.3662 27.3345 59.3254 27.3177 59.3254C27.1832 59.3254 27.0319 59.3254 26.8638 59.2846ZM80.3842 6.06604C80.3842 6.14766 80.401 6.18847 80.401 6.27009C80.4346 6.43334 80.4682 6.6374 80.5186 6.80064C80.5523 6.92308 80.6195 6.9639 80.6699 6.88227C80.7204 6.84146 80.754 6.71902 80.7708 6.59659C80.7876 6.39252 80.7876 6.18847 80.7372 6.02522C80.6699 5.82117 80.5691 5.78036 80.4346 5.9436C80.4178 5.98441 80.401 6.02523 80.3842 6.06604ZM16.2572 60.2232C16.3076 60.2232 16.3749 60.2232 16.4253 60.1824C16.4589 60.1824 16.4757 60.1416 16.4925 60.1008C16.5094 60.06 16.5262 60.0192 16.5262 59.9784C16.5094 59.9376 16.4757 59.8559 16.4589 59.8559C16.274 59.8151 16.0891 59.6927 15.8874 59.6519C15.8706 59.6519 15.837 59.7335 15.837 59.7743C15.837 59.8151 15.837 59.9376 15.8538 59.9784C15.9715 60.264 16.1227 60.1824 16.2572 60.2232ZM81.0397 52.3466C81.0902 52.3466 81.1574 52.265 81.1742 52.1425C81.1742 52.1017 81.1574 52.0201 81.1406 51.9385C81.0733 51.6936 80.9725 51.5712 80.8548 51.5712C80.7876 51.5712 80.7372 51.612 80.7035 51.6936C80.6699 51.7752 80.6867 51.8976 80.7372 52.0201C80.8212 52.265 80.9221 52.3466 81.0397 52.3466ZM8.23926 22.8397C8.34011 22.8397 8.45777 22.7988 8.55863 22.7988C8.57544 22.7988 8.60906 22.758 8.62586 22.7172C8.64267 22.6764 8.60906 22.554 8.54182 22.554C8.35692 22.5132 8.17202 22.5132 7.97031 22.5132C7.9535 22.5132 7.91989 22.554 7.90307 22.5948C7.88626 22.6356 7.86946 22.6764 7.85264 22.7172C7.86946 22.758 7.88626 22.7988 7.91988 22.8397C8.02073 22.8805 8.1384 22.8805 8.23926 22.8397ZM75.8625 68.9978C75.8289 68.9978 75.7617 68.9978 75.7112 69.0386C75.6272 69.0386 75.6104 69.1202 75.6272 69.2835C75.644 69.4059 75.6944 69.4875 75.7448 69.5283C75.8289 69.5691 75.8961 69.4467 75.9802 69.3651C76.0306 69.3243 76.081 69.2426 76.0978 69.1202C76.0642 69.0386 76.0138 68.9978 75.9466 68.9978C75.9466 68.957 75.9129 68.957 75.8625 68.9978ZM70.0297 67.7734C69.9121 67.8142 69.8616 67.8142 69.7944 67.8142C69.7608 67.8142 69.7272 67.855 69.7272 67.8959C69.7104 67.9775 69.7608 68.0591 69.828 68.0591C69.9793 68.0591 70.1474 68.1815 70.2987 68.0183C70.3155 68.0183 70.3323 67.9367 70.3323 67.8959C70.3155 67.855 70.2987 67.7734 70.2651 67.7734C70.1642 67.7734 70.0633 67.7734 70.0297 67.7734ZM17.7364 60.2232C17.7869 60.264 17.8373 60.3457 17.8877 60.3865C17.9045 60.4273 17.9381 60.4273 17.9549 60.4273C18.0054 60.4273 18.0558 60.3457 18.0894 60.2232C18.123 60.06 18.1062 59.9784 18.039 59.9376C17.9381 59.9376 17.8205 59.9376 17.7196 59.9376C17.686 59.9376 17.6524 59.9784 17.6524 59.9784C17.6356 60.1008 17.6692 60.1824 17.7364 60.2232ZM21.3 58.4683C21.4344 58.4683 21.4849 58.4683 21.5353 58.4683C21.5521 58.4683 21.5857 58.4275 21.6025 58.3867C21.6193 58.3051 21.5857 58.2643 21.5185 58.2235C21.384 58.2235 21.2495 58.2235 21.1151 58.2235C21.0983 58.2235 21.0646 58.2643 21.0478 58.3051C21.031 58.3459 21.0646 58.4275 21.1487 58.4683C21.2159 58.4683 21.3 58.4683 21.3 58.4683ZM2.65862 34.9199C2.72585 34.9199 2.67542 34.9199 2.62499 34.9199C2.55776 34.9199 2.50733 34.9607 2.49053 35.0832C2.47372 35.1648 2.52414 35.2872 2.59138 35.2872C2.72585 35.2872 2.86032 35.2872 2.9948 35.2464C3.06203 35.2464 3.11246 35.124 3.09565 35.0832C3.06204 34.9607 3.01161 34.9608 2.94437 34.9608C2.89395 34.9608 2.82671 34.9608 2.65862 34.9199ZM56.2462 3.5357C56.2966 3.49489 56.3303 3.37245 56.3303 3.25002C56.3303 3.12758 56.2966 3.00515 56.2294 2.96433C56.179 2.92352 56.1286 2.92352 56.0613 2.96433C55.9941 2.96433 55.9605 3.04596 55.9773 3.20921C55.9773 3.25002 55.9941 3.33164 56.0109 3.37245C56.0781 3.5357 56.1454 3.57651 56.2462 3.5357ZM26.6621 46.5513C26.6117 46.5513 26.5612 46.5513 26.5108 46.5921C26.4436 46.6329 26.41 46.6737 26.4268 46.7962C26.4436 46.837 26.4604 46.9186 26.4772 46.9186C26.5444 47.0002 26.6117 47.0818 26.6957 47.1635C26.7461 47.2043 26.7966 47.1635 26.847 47.0818C26.8806 47.0002 26.9142 46.8778 26.8974 46.7554C26.847 46.7145 26.7966 46.6737 26.7461 46.6329C26.7125 46.5513 26.6789 46.5513 26.6621 46.5513ZM3.7344 34.9608C3.68397 34.9608 3.61673 34.9608 3.56631 35.0016C3.53269 35.0016 3.51588 35.0424 3.49907 35.0832C3.51588 35.1648 3.56631 35.2056 3.61674 35.2056C3.66716 35.2056 3.7344 35.2056 3.78483 35.2056C3.83525 35.2056 3.90249 35.2056 3.93611 35.124C3.96973 35.0424 3.86887 34.9608 3.7344 34.9608ZM87.5617 8.63718C87.4608 8.63718 87.3432 8.75961 87.3768 8.84124C87.4104 8.96367 87.4608 9.00449 87.5113 9.00449C87.5617 9.00449 87.6121 9.00449 87.6625 9.00449C87.713 9.00449 87.7802 9.00448 87.8138 8.88205C87.8306 8.84124 87.7802 8.7188 87.713 8.7188C87.6794 8.63718 87.6289 8.63718 87.5617 8.63718ZM81.8466 7.04552C81.7625 7.04552 81.6785 7.04552 81.6112 7.20876C81.6785 7.37201 81.7625 7.37201 81.8466 7.41282C81.8802 7.41282 81.897 7.41282 81.9306 7.41282C81.9979 7.41282 82.0483 7.37201 82.0819 7.24958C82.0483 7.12714 81.9979 7.08633 81.9474 7.08633C81.897 7.08633 81.8802 7.08633 81.8466 7.04552ZM53.7585 3.73975C53.7248 3.57651 53.6912 3.41326 53.6576 3.25002C53.6408 3.20921 53.6072 3.1684 53.5904 3.1684C53.5736 3.1684 53.5399 3.25002 53.5399 3.29083C53.5063 3.5357 53.5231 3.82138 53.6072 3.98463C53.6576 4.06625 53.708 4.02544 53.7585 3.94382C53.7585 3.903 53.7417 3.82138 53.7585 3.73975ZM38.563 65.7328C38.563 65.7328 38.5126 65.7328 38.4621 65.7328C38.4285 65.7328 38.4117 65.7328 38.3949 65.7736C38.3781 65.8145 38.3445 65.8553 38.3277 65.8553C38.3445 65.8961 38.3613 65.9777 38.3949 65.9777C38.4789 66.0185 38.5462 66.0185 38.6302 66.0185C38.7479 66.0185 38.8319 65.8961 38.7815 65.8145C38.7143 65.7736 38.6806 65.7328 38.563 65.7328ZM18.9131 60.6314C19.0307 60.5905 19.1148 60.5905 19.1988 60.5497C19.2156 60.5497 19.2493 60.5089 19.2661 60.4681C19.2493 60.4273 19.2324 60.3865 19.2324 60.3865C19.1484 60.3457 19.0812 60.3049 18.9971 60.3049C18.9131 60.264 18.7954 60.4273 18.829 60.5089C18.8458 60.5905 18.8963 60.6314 18.9131 60.6314ZM86.0825 34.0221C86.0993 34.0629 86.1329 34.1037 86.1497 34.1037C86.2338 34.1445 86.3178 34.1445 86.3682 33.9813C86.3682 33.9813 86.3346 33.8588 86.3178 33.8588C86.2338 33.7772 86.1665 33.7772 86.0825 33.8997C86.0825 33.8997 86.0825 33.9813 86.0825 34.0221ZM19.5686 60.6722C19.5854 60.713 19.5854 60.7946 19.6022 60.8354C19.6527 60.9987 19.804 60.9578 19.804 60.8354C19.804 60.713 19.7703 60.5905 19.7367 60.5089C19.6863 60.4273 19.6359 60.3865 19.6022 60.5089C19.5854 60.5497 19.5854 60.5905 19.5686 60.6722ZM71.7275 67.9775C71.7443 68.0183 71.7611 68.0999 71.7779 68.0999C71.8619 68.1407 71.9292 68.1407 71.9964 68.0183C72.0132 67.9775 72.03 67.9367 72.03 67.8959C72.0132 67.7734 71.9124 67.6918 71.8283 67.7734C71.7611 67.8142 71.7275 67.855 71.7275 67.9775ZM61.5411 69.7324C61.5747 69.8548 61.6251 69.8956 61.6756 69.8548C61.6924 69.8548 61.7092 69.7732 61.726 69.7324C61.7092 69.6916 61.6924 69.6508 61.6756 69.61C61.6251 69.5691 61.5747 69.61 61.5411 69.7324ZM50.0941 69.161C50.1109 69.161 50.1277 69.1202 50.1613 69.0794C50.1445 69.0386 50.1445 68.9978 50.1277 68.957C50.0604 68.9162 50.0268 68.9978 50.0436 69.0794C50.0268 69.1202 50.0773 69.161 50.0941 69.161ZM22.006 58.6724C22.0228 58.7132 22.0228 58.7948 22.0396 58.7948C22.0564 58.7948 22.09 58.7948 22.1068 58.7948C22.1572 58.7132 22.1404 58.6316 22.0564 58.6316C22.0564 58.6316 22.0228 58.6724 22.006 58.6724ZM75.0893 51.7344C75.0893 51.7752 75.0893 51.8568 75.1061 51.8568C75.1229 51.8976 75.1565 51.8976 75.1901 51.8976C75.2574 51.816 75.2574 51.7344 75.1733 51.6936C75.1397 51.6936 75.1061 51.7344 75.0893 51.7344ZM23.4852 46.3472C23.502 46.388 23.5188 46.4289 23.5356 46.4697C23.586 46.5105 23.6364 46.4697 23.6701 46.3472C23.6701 46.3472 23.6364 46.2656 23.6196 46.2248C23.5692 46.184 23.5188 46.2248 23.4852 46.3472ZM86.6204 33.0018C86.6036 33.0426 86.5699 33.0426 86.5531 33.0834C86.5699 33.1242 86.5868 33.165 86.6204 33.2059C86.6876 33.2467 86.7212 33.1651 86.7044 33.0834C86.6876 33.0426 86.654 33.0426 86.6204 33.0018ZM30.8644 3.82138C30.8812 3.86219 30.898 3.903 30.9148 3.94381C30.9652 3.98462 31.0157 3.94381 31.0325 3.82138C31.0325 3.82138 30.9989 3.73976 30.9821 3.69894C30.9316 3.65813 30.898 3.69895 30.8644 3.82138ZM18.4424 60.5089L18.476 60.4273L18.4256 60.4273L18.4424 60.5089Z" fill="#00659E"/>
<g clip-path="url(#clip0)">
<path d="M60.8442 20.1476H40.32C39.7563 20.1476 39.2157 20.3715 38.8171 20.7701C38.4184 21.1687 38.1945 21.7093 38.1945 22.2731V30.2572H27.6255C27.0621 30.2583 26.5221 30.4826 26.1238 30.881C25.7254 31.2794 25.5011 31.8194 25.5 32.3827V45.8665C25.5011 46.4298 25.7254 46.9698 26.1238 47.3682C26.5221 47.7666 27.0621 47.9909 27.6255 47.992H31.6802L31.58 51.3076C31.5758 51.4363 31.6062 51.5638 31.6678 51.6769C31.7295 51.7899 31.8203 51.8844 31.9308 51.9506C32.0452 52.0067 32.1709 52.0358 32.2982 52.0358C32.4256 52.0358 32.5513 52.0067 32.6657 51.9506L39.8231 47.9753H48.3167C48.5958 47.9753 48.8722 47.9203 49.1301 47.8135C49.388 47.7066 49.6223 47.5501 49.8197 47.3527C50.017 47.1553 50.1736 46.921 50.2804 46.6632C50.3872 46.4053 50.4422 46.1289 50.4422 45.8498V39.5067H51.6699L57.3323 43.4988C57.4454 43.5661 57.5729 43.6057 57.7042 43.6144C57.8356 43.6232 57.9671 43.6007 58.0881 43.5489C58.212 43.4918 58.3171 43.4006 58.391 43.286C58.465 43.1713 58.5048 43.038 58.5057 42.9016V39.5067H60.8651C61.4288 39.5067 61.9694 39.2827 62.368 38.8841C62.7666 38.4855 62.9906 37.9449 62.9906 37.3812V22.2731C62.9906 21.9922 62.9349 21.7141 62.8268 21.4548C62.7187 21.1956 62.5602 20.9603 62.3607 20.7627C62.1611 20.565 61.9243 20.4089 61.664 20.3033C61.4037 20.1977 61.1251 20.1448 60.8442 20.1476ZM48.9807 45.8665C48.9807 46.0426 48.9107 46.2114 48.7862 46.336C48.6617 46.4605 48.4928 46.5304 48.3167 46.5304H39.6143C39.4902 46.5311 39.3682 46.5627 39.2593 46.6223L33.0666 50.0632L33.1501 47.2821C33.1523 47.1835 33.1341 47.0855 33.0967 46.9943C33.0594 46.9031 33.0036 46.8205 32.933 46.7517C32.8646 46.6814 32.7828 46.6256 32.6924 46.5876C32.602 46.5496 32.5049 46.5301 32.4068 46.5304H27.6255C27.4494 46.5304 27.2805 46.4605 27.156 46.336C27.0315 46.2114 26.9615 46.0426 26.9615 45.8665V32.3827C26.9626 32.207 27.0329 32.0387 27.1572 31.9144C27.2815 31.7902 27.4497 31.7199 27.6255 31.7188H38.1945V37.3812C38.1945 37.9449 38.4184 38.4855 38.8171 38.8841C39.2157 39.2827 39.7563 39.5067 40.32 39.5067H48.9807V45.8665ZM61.5081 37.3812C61.5081 37.5573 61.4382 37.7262 61.3137 37.8507C61.1892 37.9752 61.0203 38.0451 60.8442 38.0451H57.7541C57.5603 38.0451 57.3744 38.1221 57.2373 38.2592C57.1003 38.3962 57.0233 38.5821 57.0233 38.7759V41.4902L52.3255 38.1788C52.2033 38.0925 52.0575 38.0459 51.9079 38.0451H40.32C40.1439 38.0451 39.975 37.9752 39.8505 37.8507C39.726 37.7262 39.656 37.5573 39.656 37.3812V22.2731C39.6538 22.1845 39.6693 22.0963 39.7017 22.0138C39.7341 21.9313 39.7826 21.8562 39.8445 21.7927C39.9064 21.7293 39.9803 21.6789 40.062 21.6445C40.1437 21.6101 40.2314 21.5924 40.32 21.5924H60.8442C61.0203 21.5924 61.1892 21.6624 61.3137 21.7869C61.4382 21.9114 61.5081 22.0803 61.5081 22.2564V37.3812Z" fill="white"/>
<path d="M44.9465 28.4282C44.6467 28.4282 44.3536 28.5171 44.1043 28.6837C43.8551 28.8502 43.6608 29.087 43.546 29.364C43.4313 29.6409 43.4013 29.9457 43.4598 30.2398C43.5183 30.5338 43.6626 30.8039 43.8746 31.0159C44.0866 31.2279 44.3567 31.3723 44.6508 31.4307C44.9448 31.4892 45.2496 31.4592 45.5266 31.3445C45.8036 31.2298 46.0403 31.0355 46.2069 30.7862C46.3734 30.5369 46.4623 30.2438 46.4623 29.944C46.4623 29.745 46.4231 29.5479 46.3469 29.364C46.2708 29.1801 46.1591 29.013 46.0183 28.8722C45.8776 28.7314 45.7105 28.6198 45.5266 28.5436C45.3427 28.4674 45.1456 28.4282 44.9465 28.4282Z" fill="white"/>
<path d="M50.9975 28.4282C50.6976 28.4274 50.4041 28.5156 50.1543 28.6817C49.9044 28.8477 49.7095 29.0842 49.5941 29.3611C49.4788 29.638 49.4481 29.9429 49.5062 30.2372C49.5642 30.5315 49.7082 30.802 49.92 31.0144C50.1319 31.2268 50.402 31.3716 50.6961 31.4304C50.9903 31.4893 51.2953 31.4595 51.5725 31.3449C51.8497 31.2303 52.0867 31.036 52.2534 30.7866C52.4202 30.5373 52.5092 30.244 52.5092 29.9441C52.5097 29.7452 52.4711 29.5482 52.3953 29.3643C52.3196 29.1804 52.2083 29.0133 52.0679 28.8725C51.9275 28.7316 51.7607 28.6199 51.577 28.5437C51.3933 28.4675 51.1964 28.4282 50.9975 28.4282Z" fill="white"/>
<path d="M57.0483 28.4282C56.7483 28.4274 56.4549 28.5156 56.205 28.6817C55.9552 28.8477 55.7603 29.0842 55.6449 29.3611C55.5295 29.638 55.4989 29.9429 55.5569 30.2372C55.615 30.5315 55.759 30.802 55.9708 31.0144C56.1826 31.2268 56.4527 31.3716 56.7469 31.4304C57.041 31.4893 57.346 31.4595 57.6233 31.3449C57.9005 31.2303 58.1375 31.036 58.3042 30.7866C58.471 30.5373 58.56 30.244 58.56 29.9441C58.5605 29.7452 58.5218 29.5482 58.4461 29.3643C58.3704 29.1804 58.2591 29.0133 58.1187 28.8725C57.9783 28.7316 57.8114 28.6199 57.6278 28.5437C57.4441 28.4675 57.2472 28.4282 57.0483 28.4282Z" fill="white"/>
</g>
<defs>
<clipPath id="clip0">
<rect width="38" height="38" fill="white" transform="translate(24.999 16.999)"/>
</clipPath>
</defs>
</svg>
