<svg width="105" height="89" viewBox="0 0 105 89" fill="none" xmlns="http://www.w3.org/2000/svg">
<path d="M13.4493 78.8257C13.6873 78.4715 13.9451 78.269 14.183 78.1172C14.3218 78.016 14.4408 78.0666 14.5598 78.1678C14.7185 78.3196 14.8771 78.269 15.0358 78.0666C15.1548 77.8642 15.2737 77.763 15.4126 77.763C15.71 77.763 16.0075 77.7124 16.3049 77.7124C16.4438 77.7124 16.5628 77.8136 16.6817 77.9654C16.8007 78.1678 16.9395 78.1172 17.0585 77.9654C17.1973 77.763 17.3163 77.8642 17.4155 78.1172C17.4353 78.1678 17.4551 78.269 17.475 78.3197C17.594 78.6233 17.7724 78.6233 17.9113 78.2184C17.9708 78.0666 17.9708 77.9148 17.9311 77.763C17.8914 77.6112 17.8518 77.4594 17.7923 77.4088C17.5741 77.1558 17.3362 77.1052 17.1379 76.8015C17.0784 76.7509 16.999 76.7509 16.9395 76.7003C16.3644 76.7003 15.8092 76.7003 15.2341 76.7003C15.0358 76.7003 14.8375 76.6497 14.6391 76.4473C14.4607 76.2955 14.2624 76.1437 14.064 75.9919C13.9649 75.8907 13.8657 75.9413 13.7666 75.9413C13.6674 75.9413 13.5683 75.8907 13.4691 75.8907C13.37 75.9413 13.2708 76.0425 13.1915 76.0931C13.0527 76.1437 12.9138 76.0425 12.8147 75.8401C12.6759 75.587 12.5569 75.2834 12.4379 75.0304C12.3784 74.8786 12.3189 74.9292 12.2793 75.081C12.1999 75.334 12.1206 75.6376 11.9818 75.6376C11.7835 75.6883 11.5852 75.6883 11.4067 75.334C11.3472 75.2328 11.3075 75.1316 11.248 75.0304C11.1687 74.8786 11.0894 74.7774 10.9704 74.7268C10.8316 74.6762 10.7126 74.6762 10.5738 74.6762C10.435 74.6762 10.316 74.575 10.197 74.4738C9.44341 73.8159 9.44342 73.8159 8.7295 73.7653C8.37254 73.7147 7.99575 73.8159 7.63879 73.6641C7.61897 73.6641 7.55946 73.6135 7.55946 73.5629C7.55946 73.3605 7.61895 73.2593 7.65862 73.1581C7.71811 73.0062 7.69828 72.8544 7.61896 72.8038C7.46031 72.7026 7.28183 72.652 7.12318 72.7026C6.96454 72.7026 6.90505 72.8544 6.90505 73.3099C6.90505 73.6135 6.84555 73.7147 6.70673 73.6641C6.60758 73.6641 6.50842 73.5629 6.44893 73.3605C6.4291 73.3099 6.4291 73.1581 6.4291 73.1075C6.48859 72.7026 6.60758 72.399 6.72656 72.0954C6.86538 71.7918 7.02403 71.6905 7.18267 71.7412C7.28182 71.7918 7.36115 71.9436 7.4603 71.8424C7.48013 71.7918 7.49998 71.7412 7.51981 71.6399C7.51981 71.5387 7.5198 71.4375 7.49997 71.3869C7.44048 71.2857 7.38099 71.2351 7.3215 71.1845C6.96454 71.1339 6.58775 71.1339 6.23079 70.7797C6.15147 70.6785 6.03247 70.7291 5.93332 70.6785C5.49704 70.6279 5.06075 70.5773 4.6443 70.5267C4.56498 70.5267 4.52532 70.3749 4.54515 70.2736C4.56498 70.223 4.60465 70.1724 4.62447 70.1724C4.82279 70.1218 5.0211 70.1218 5.21941 70.0712C5.39789 70.0712 5.43755 69.9194 5.45738 69.464C5.45738 69.2616 5.47721 69.1604 5.57636 69.1098C5.77467 69.0592 5.97298 69.0592 6.17129 69.0592C6.3696 69.0085 6.38944 68.9073 6.4291 68.3001C6.4291 68.1483 6.46876 67.9965 6.48859 67.7941C6.50842 67.5916 6.40926 67.288 6.32994 67.2374C6.29028 67.2374 6.27046 67.1868 6.23079 67.1868C6.13164 67.2374 6.03248 67.288 5.95316 67.1362C5.73502 66.6302 5.49704 66.4784 5.21941 66.529C5.08059 66.5796 4.9616 66.529 4.82279 66.529C4.78312 66.529 4.74346 66.5796 4.74346 66.6302C4.72363 66.782 4.76329 66.8832 4.84261 66.9338C4.88228 66.9338 4.90211 66.9844 4.94177 66.9844C5.0211 67.035 5.06076 67.0856 5.06076 67.288C5.06076 67.3386 5.00126 67.3892 4.98143 67.3892C4.68397 67.4398 4.3865 67.4904 4.08904 67.4398C3.98988 67.4398 3.89072 67.288 3.83123 67.0856C3.73208 66.6808 3.59327 66.529 3.41479 66.529C3.25614 66.529 3.07766 66.4784 2.91901 66.4784C2.76037 66.4784 2.58189 66.4278 2.42324 66.3772C2.38358 66.3772 2.36374 66.2759 2.34391 66.2253C2.36374 66.1747 2.40341 66.1241 2.42324 66.0735C2.68105 65.9217 2.95867 65.9723 3.21648 65.9217C3.39496 65.8711 3.53377 65.7699 3.69241 65.5675C3.91055 65.2639 3.91055 65.2639 3.75191 64.7578C3.73208 64.7072 3.73208 64.606 3.73208 64.5554C3.75191 64.5048 3.79157 64.4542 3.8114 64.4542C4.04938 64.4036 4.26751 64.2518 4.50549 64.1506C4.56498 64.1 4.6443 64.2012 4.7038 64.2518C4.88228 64.353 5.04092 64.1 5.12025 63.7458C5.2194 63.2903 5.31856 62.8855 5.45738 62.4807C5.5367 62.2276 5.49704 62.0758 5.37805 61.924C5.31856 61.8228 5.25906 61.7722 5.19957 61.671C5.08058 61.4686 4.9616 61.3674 4.82279 61.3674C4.1882 61.3168 3.55361 61.418 2.91901 61.4686C2.66121 61.5192 2.38358 61.4686 2.12577 61.4686C1.86797 61.4686 1.66966 61.3168 1.53085 60.7601C1.49118 60.6083 1.43169 60.5577 1.39202 60.4059C1.29287 60.1529 1.29287 60.0011 1.39202 59.8493C1.5705 59.6468 1.74898 59.4444 1.96712 59.3938C2.50256 59.3432 3.038 59.2926 3.57343 59.1914C3.6131 59.1914 3.65276 59.1408 3.65276 59.0902C3.67259 58.989 3.63292 58.8878 3.5536 58.8372C3.41478 58.7866 3.29579 58.8372 3.15698 58.6854C3.07765 58.5842 3.05782 58.483 3.05782 58.2805C3.05782 58.1287 3.0975 57.9769 3.17682 57.9263C3.33547 57.8251 3.51394 57.8251 3.67259 57.7745C3.93039 57.6733 4.10887 57.4203 4.20802 56.813C4.26752 56.4588 4.36667 56.307 4.50549 56.2058C4.54515 56.2058 4.56497 56.1552 4.60464 56.1046C4.62447 56.054 4.68396 56.0034 4.68396 55.9528C4.68396 55.801 4.6443 55.6491 4.58481 55.5479C4.52532 55.4467 4.46582 55.3455 4.40633 55.3455C4.30718 55.2949 4.20802 55.2949 4.10887 55.2949C3.53377 55.3455 2.9785 55.1937 2.40341 55.1431C2.34391 55.1431 2.28443 55.0419 2.22493 54.9407C2.16544 54.8395 2.12577 54.6877 2.12577 54.5359C2.12577 54.3841 2.16543 54.2828 2.24475 54.2322C2.4034 54.1816 2.58189 54.1816 2.74053 54.131C2.97851 54.0804 3.19665 53.9286 3.37513 53.4732C3.43462 53.3214 3.4941 53.3214 3.5536 53.372C3.71224 53.4226 3.71224 53.372 3.79157 53.119C3.8114 53.0684 3.83123 52.9671 3.83123 52.9165C3.97005 52.3599 4.16835 52.1575 4.40633 52.0057C4.56497 51.9045 4.60464 51.2972 4.48565 50.943C4.46582 50.8924 4.42616 50.8418 4.40633 50.7912C4.26751 50.69 4.14853 50.7406 4.00971 50.7406C3.91056 50.7406 3.8114 50.7406 3.71224 50.69C3.47427 50.5888 3.27597 50.2345 3.038 50.2345C2.83968 50.2345 2.64137 50.1839 2.44306 50.1333C2.36374 50.1333 2.32408 49.9815 2.32408 49.8803C2.32408 49.8297 2.36375 49.7285 2.38358 49.7285C2.44307 49.6779 2.50256 49.6273 2.58189 49.5767C2.70088 49.4755 2.80003 49.2225 2.89918 48.9694C2.9785 48.7164 2.93884 48.4634 2.85951 48.3116C2.7207 48.0586 2.54222 48.1092 2.38358 48.008C2.36375 48.008 2.32408 47.9068 2.30425 47.8562C2.32408 47.8056 2.34391 47.7044 2.36374 47.6537C2.58188 47.2489 2.83969 47.0465 3.11733 47.0465C3.25614 47.0465 3.37512 46.9959 3.51393 46.9959C3.71224 46.9959 3.91055 46.8947 4.08904 46.6923C4.18819 46.5911 4.28735 46.5911 4.3865 46.4899C4.46582 46.4393 4.50548 46.338 4.48565 46.1862C4.48565 46.0344 4.44599 45.8826 4.36667 45.7814C4.26752 45.6802 4.16836 45.6296 4.06921 45.7308C3.8114 45.9838 3.55361 46.085 3.2958 46.085C2.81986 46.085 2.36375 46.085 1.8878 46.085C1.84814 46.085 1.80847 46.085 1.78864 46.0344C1.72915 45.9332 1.68949 45.832 1.63 45.7308C1.61017 45.6802 1.61017 45.579 1.63 45.4778C1.64983 45.326 1.68949 45.1742 1.74898 45.1236C1.94729 44.9211 2.1456 44.9717 2.34391 44.9211C2.48273 44.8705 2.46289 44.5669 2.46289 44.3645C2.46289 44.0609 2.60172 43.7067 2.7207 43.656C2.7802 43.6054 2.85952 43.5548 2.91902 43.5548C3.17682 43.5042 3.45444 43.5042 3.69241 43.15C3.75191 43.0994 3.8114 43.0488 3.89073 43.0488C3.98988 42.9982 4.08904 42.9982 4.18819 42.9982C4.3865 42.9476 4.58481 42.9476 4.78312 42.8464C4.98143 42.7452 5.15991 42.4416 5.35822 42.391C5.37805 42.391 5.41772 42.2897 5.43755 42.2391C5.41772 42.1885 5.39788 42.1379 5.37805 42.1379C4.98143 42.0873 4.58481 42.0873 4.18819 42.0873C3.98988 42.0873 3.79157 42.0367 3.61309 41.7837C3.53377 41.6825 3.41479 41.6319 3.33547 41.5307C3.25614 41.4801 3.13716 41.4801 3.13716 41.1765C3.13716 41.0247 3.21648 40.9234 3.27597 40.8222C3.33547 40.721 3.35529 40.5692 3.35529 40.3668C3.33546 40.215 3.2958 40.0632 3.21648 40.0632C3.15698 40.0126 3.07767 40.0126 3.01817 40.0126C2.68105 39.962 2.34392 39.962 2.02662 39.962C1.8878 39.962 1.76882 39.9114 1.63 39.9114C1.59033 39.9114 1.55067 39.8102 1.55067 39.8102C1.55067 39.6584 1.61015 39.5571 1.66965 39.5571C1.86796 39.5065 2.06627 39.4559 2.24475 39.2029C2.38357 39.0005 2.56206 39.0005 2.7207 38.9499C2.80003 38.8993 2.83969 38.7981 2.83969 38.6969C2.83969 38.6463 2.78018 38.5957 2.76035 38.5451C2.56204 38.4945 2.36374 38.4945 2.16543 38.4439C2.06628 38.3933 1.96711 38.3933 1.86796 38.292C1.64982 38.039 1.41185 37.9884 1.19371 37.9884C1.0549 37.9884 0.935907 37.9378 0.79709 37.8872C0.757425 37.8872 0.737596 37.786 0.717768 37.7354C0.737596 37.6848 0.777262 37.6342 0.79709 37.5836C0.896242 37.533 0.995409 37.4824 1.09456 37.4824C1.72915 37.4824 2.36374 37.4824 2.99833 37.4318C3.39495 37.4318 3.79157 37.4318 4.18819 37.28C4.20802 37.28 4.24768 37.1788 4.24768 37.1788C4.24768 37.0776 4.22785 36.9764 4.18819 36.9764C4.00971 36.7233 3.83123 36.5209 3.63292 36.5209C3.03799 36.4703 2.44307 36.4197 1.82831 36.3691C1.72916 36.3691 1.62999 36.2679 1.55067 36.0655C1.53084 36.0149 1.51101 35.9137 1.49118 35.8631C1.45152 35.7113 1.49118 35.5594 1.59033 35.5594C1.84814 35.5088 2.12577 35.5088 2.38358 35.4582C2.62155 35.4076 2.83969 35.5088 3.05783 35.7619C3.07765 35.8125 3.11731 35.8125 3.15698 35.8125C3.29579 35.8631 3.41478 35.7619 3.51393 35.5594C3.59326 35.104 3.73207 34.9522 3.91055 34.9016C4.00971 34.851 4.10887 34.7498 4.18819 34.6486C4.32701 34.4968 4.44599 34.5474 4.56498 34.6992C4.62448 34.8004 4.68397 34.8004 4.76329 34.7498C4.86244 34.6992 4.94177 34.598 5.04093 34.4968C5.23924 34.345 5.43755 34.2944 5.63586 34.4462C5.89366 34.598 5.89366 34.598 6.1118 34.3449C6.13163 34.2943 6.1713 34.2437 6.19113 34.1931C6.23079 34.0413 6.21095 33.9401 6.1118 33.9401C5.854 33.8895 5.57636 33.8895 5.31856 33.8389C5.25907 33.8389 5.19957 33.7377 5.12025 33.7377C5.0211 33.6871 4.98143 33.3329 5.04093 33.1305C5.12025 32.7256 5.25907 32.422 5.41772 32.422C5.87383 32.3714 6.34977 32.3208 6.80589 32.3208C6.90504 32.3208 7.0042 32.3714 7.10335 32.5232C7.32149 32.8774 7.53963 32.8268 7.77761 32.8268C7.8371 32.8268 7.91642 32.7762 7.97592 32.7256C7.99574 32.7256 8.05524 32.675 8.05524 32.6244C8.05524 32.5738 8.03542 32.4726 8.03542 32.3714C7.97592 32.169 7.89659 32.0172 7.79744 31.9666C7.20251 31.8654 6.60758 31.9666 5.99282 31.8148C5.89366 31.8148 5.87383 31.663 5.854 31.2581C5.854 30.9545 5.7945 30.8533 5.65569 30.8533C5.51687 30.8533 5.39789 30.9545 5.3384 31.3593C5.31857 31.4099 5.29874 31.5111 5.25907 31.5111C5.19958 31.5111 5.15991 31.4099 5.15991 31.2075C5.15991 31.1063 5.14009 31.0557 5.14009 30.9545C5.12026 30.6509 5.0211 30.4991 4.94177 30.4485C4.38651 30.2967 3.8114 30.246 3.23631 30.2966C3.13716 30.2966 3.038 30.2966 2.93884 30.1954C2.91902 30.1448 2.89918 30.0942 2.85951 30.0436C2.87934 29.993 2.89918 29.8918 2.93884 29.8918C3.19665 29.6894 3.47428 29.9424 3.73208 29.7906C3.8114 29.74 3.83124 29.6388 3.85107 29.4364C3.85107 28.8797 3.8709 28.8797 4.06921 28.9809C4.20803 29.0822 4.20802 29.0822 4.44599 28.8797C4.50549 28.8291 4.58481 28.7785 4.6443 28.7785C4.94177 28.7785 5.23924 28.7785 5.5367 28.8291C5.57636 28.8291 5.59619 28.8797 5.63586 28.8797C5.75485 29.0316 5.89366 29.0316 6.01264 28.8797C6.13163 28.7279 6.27045 28.7785 6.40927 28.8291C6.46876 28.8797 6.52825 28.9303 6.60758 28.9809C6.76622 29.1328 6.92488 29.1328 7.08352 28.9809C7.12319 28.9303 7.14301 28.9303 7.18267 28.8797C7.34132 28.6773 7.49997 28.6773 7.65862 28.8797C7.95608 29.1834 8.25356 29.1328 8.55102 29.0822C8.65017 29.0822 8.72949 28.8797 8.78899 28.6773C8.80882 28.6267 8.82865 28.5255 8.80882 28.4243C8.80882 28.3737 8.76915 28.3231 8.74932 28.2725C8.53118 28.1207 8.29322 28.1713 8.05524 28.1207C7.61896 28.0701 7.18267 28.0701 6.76622 28.0195C6.74639 28.0195 6.6869 27.9689 6.6869 27.8677C6.66707 27.7665 6.72656 27.6653 6.80589 27.6146C6.90504 27.564 7.0042 27.564 7.10335 27.564C7.44048 27.5134 7.77761 27.5134 8.0949 27.5134C8.17423 27.5134 8.21389 27.3616 8.17423 27.2604C8.1544 27.2098 8.11473 27.1592 8.0949 27.1592C7.95609 27.1086 7.8371 27.1086 7.69828 27.1086C7.40082 27.1086 7.10336 27.1592 6.82572 26.7544C6.76623 26.7038 6.68691 26.7038 6.62741 26.7544C6.4886 26.8556 6.36961 26.8556 6.23079 26.7544C6.03248 26.552 5.83417 26.6026 5.63586 26.6026C5.43755 26.552 5.23924 26.6026 5.04093 26.552C4.94177 26.552 4.86244 26.4002 4.76329 26.2483C4.66414 25.6917 4.44599 25.6411 4.24768 25.6411C4.04937 25.5905 3.85107 25.5905 3.65276 25.5905C3.37512 25.6411 3.13716 25.3881 2.89918 25.0339C2.78019 24.882 2.74054 24.4266 2.81986 24.1736C2.93885 23.8194 3.05783 23.6169 3.23631 23.6169C3.27597 23.6169 3.2958 23.6169 3.33547 23.6169L3.31564 23.5663C3.3553 23.7181 3.39495 23.87 3.45445 23.87C3.75191 24.0218 4.04938 24.0218 4.34684 23.87C4.42617 23.8194 4.46582 23.6676 4.44599 23.5157C4.42617 23.3639 4.3865 23.2121 4.32701 23.2121C4.26751 23.2121 4.1882 23.2121 4.1287 23.3133C4.00971 23.4651 3.93039 23.3639 3.8709 23.1615C3.8114 22.9591 3.75191 22.7567 3.69242 22.5543C3.63292 22.3518 3.5536 22.2 3.45445 22.1494C3.3553 22.1494 3.25613 22.1494 3.15698 22.0988C3.09748 22.0988 3.01816 22.0482 2.95867 22.0482C2.93884 22.0482 2.89918 21.947 2.87935 21.8964C2.85952 21.7952 2.87934 21.6434 2.95867 21.5928C3.69242 21.4916 4.42617 21.4916 5.15991 21.4916C6.44893 21.4916 7.75778 21.5928 9.04679 21.441C9.12612 21.441 9.16577 21.2892 9.14595 21.188C9.12612 21.1374 9.08645 21.0868 9.06662 21.0362C9.02696 20.9855 9.00714 20.9856 8.96747 20.9856C8.03541 20.9856 7.10335 20.9349 6.17129 20.9349C5.99281 20.9349 5.83416 20.8843 5.67552 20.6819C5.55653 20.5301 5.41771 20.5301 5.27889 20.5301C4.78312 20.5301 4.28736 20.4795 3.77175 20.4795C3.41479 20.4795 3.038 20.5807 2.68104 20.3783C2.66121 20.3783 2.62154 20.2771 2.60171 20.2265C2.62154 20.1759 2.66121 20.0747 2.68104 20.0747C3.01817 19.9229 3.33546 19.9229 3.67259 19.9735C4.00971 19.9735 4.34684 20.0241 4.66414 19.9229C4.76329 19.8723 4.80295 19.6699 4.72363 19.3662C4.66413 19.1638 4.60465 18.9614 4.56498 18.7084C4.54515 18.5566 4.56498 18.3542 4.56498 18.2023C4.56498 18.1517 4.52532 18.1011 4.50549 18.0505C4.34684 17.8987 4.16836 17.8987 4.00971 17.8987C3.53377 17.9493 3.07765 17.8987 2.60171 17.8481C2.56204 17.8481 2.54222 17.8481 2.50256 17.8481C2.36374 17.8481 2.38358 17.6457 2.52239 17.4433C2.72071 17.1397 2.93885 16.9372 3.17682 16.9372C3.81141 16.9372 4.44599 16.9372 5.08058 16.9372C5.77467 16.9372 6.48859 16.9373 7.18267 16.9373C7.28182 16.9373 7.38099 16.9373 7.48014 16.9373C8.07508 16.7854 8.67 16.9372 9.26493 16.7854C9.3046 16.7854 9.32443 16.6842 9.34426 16.6336C9.32443 16.583 9.3046 16.5324 9.26493 16.4818C9.16578 16.4312 9.06662 16.3806 8.96747 16.3806C8.67001 16.3806 8.37254 16.4312 8.07508 16.4818C7.97592 16.4818 7.87676 16.4818 7.77761 16.3806C7.55947 16.1276 7.34133 16.0264 7.10335 15.9758C6.03247 15.9252 4.9616 15.9252 3.91056 15.8746C3.75191 15.8746 3.57344 15.824 3.41479 15.6722C3.2958 15.5709 3.15699 15.5203 3.01818 15.5203C2.7802 15.5203 2.54222 15.4697 2.32408 15.5203C1.98696 15.5709 1.66965 15.3179 1.37219 14.9131C1.35236 14.8625 1.3127 14.8119 1.29287 14.7613C1.15406 14.5083 0.975566 14.4577 0.81692 14.4577C0.578944 14.4577 0.340976 14.4577 0.122836 14.4071C0.0435131 14.4071 -0.0159733 14.2552 0.00385552 14.154C0.0236843 14.0022 0.103 13.9516 0.182322 13.9516C0.856578 13.9516 1.51101 13.8504 2.18527 13.9516C2.42324 14.0022 2.66121 13.9516 2.87935 13.9516C3.23631 13.9516 3.61309 13.9516 3.97005 13.9516C4.22785 13.9516 4.50549 13.901 4.76329 13.8504C4.86244 13.8504 4.9616 13.7492 5.04093 13.648C5.19957 13.4962 5.35823 13.3444 5.51687 13.3444C5.81433 13.2938 6.1118 13.2938 6.40927 13.2432C6.44893 13.2432 6.48859 13.1926 6.48859 13.142C6.50842 13.0408 6.44892 12.9395 6.3696 12.9395C6.13163 12.8889 5.91349 12.8889 5.67552 12.8383C5.65569 12.8383 5.61602 12.7877 5.59619 12.6865C5.55653 12.5853 5.59619 12.4335 5.67552 12.4335C6.3696 12.2311 7.08352 12.2817 7.77761 12.3829C7.87676 12.3829 7.97592 12.4841 8.07508 12.5347C8.13457 12.5853 8.19406 12.5853 8.27339 12.5347C8.49153 12.3323 8.72949 12.2817 8.96747 12.2817C9.10629 12.2817 9.2451 12.2817 9.36409 12.1299C9.58223 11.8769 9.80037 11.8263 10.0383 11.6744C10.0978 11.6238 10.1573 11.5733 10.2168 11.5226C10.3755 11.3202 10.5341 11.3202 10.6928 11.5226C10.7523 11.6239 10.8316 11.6239 10.8911 11.5732C11.1489 11.3202 11.4067 11.2696 11.6645 11.1684C11.6843 11.1684 11.7042 11.0672 11.7438 11.0166C11.724 10.966 11.7042 10.9154 11.6645 10.8648C11.4265 10.713 11.2084 10.713 10.9704 10.7636C10.4746 10.7636 9.97885 10.713 9.46324 10.8142C9.26493 10.8648 9.06662 10.8142 8.86831 10.6624C8.82865 10.6624 8.80882 10.5612 8.78899 10.5612C8.80882 10.5106 8.82865 10.46 8.86831 10.4094C9.12612 10.2575 9.40375 10.2575 9.66156 10.2575C10.1375 10.2575 10.5936 10.2575 11.0696 10.2575C11.1291 10.2575 11.2084 10.2069 11.2679 10.1563C11.3075 10.1563 11.3274 10.0551 11.3472 10.0045C11.3274 9.95392 11.2877 9.90332 11.2679 9.85272C11.0299 9.70091 10.8118 9.75151 10.5738 9.80211C10.078 9.85272 9.58223 9.80212 9.06662 9.75151C8.92781 9.75151 8.80883 9.6503 8.68984 9.49849C8.57085 9.34668 8.43203 9.24547 8.31304 9.29608C7.67845 9.29608 7.04386 9.34668 6.40927 9.34668C6.1118 9.34668 5.81433 9.29608 5.51687 9.24547C5.47721 9.24547 5.45738 9.14426 5.43755 9.14426C5.45738 9.04305 5.51687 8.94185 5.59619 8.94185C5.854 8.89124 6.13163 8.84064 6.38944 8.84064C7.79744 8.84064 9.18561 8.79003 10.5936 8.79003C10.8911 8.79003 11.1885 8.73944 11.486 8.73944C11.5257 8.73944 11.5653 8.68883 11.5653 8.63822C11.5852 8.48641 11.5455 8.38521 11.486 8.33461C11.4463 8.284 11.4265 8.284 11.3869 8.284C11.3075 8.284 11.248 8.23339 11.2084 8.08158C11.1687 7.92977 11.248 7.52494 11.3274 7.47434C11.3869 7.42373 11.4464 7.32253 11.5058 7.32253C11.6447 7.27192 11.7637 7.22132 11.9025 7.17072C11.9818 7.12011 12.0214 6.9683 12.0214 6.81649C12.0214 6.66468 12.0016 6.51287 11.9421 6.41166C11.8826 6.31046 11.8033 6.20924 11.7835 6.10804C11.7637 5.95623 11.843 5.85501 11.9025 5.75381C11.9818 5.65261 11.9818 5.50079 11.9818 5.34898C11.962 4.94415 12.0611 4.79234 12.2198 4.94415C12.2594 4.99475 12.2792 4.99475 12.3189 5.04536C12.3784 5.09597 12.4379 5.19717 12.4974 5.29837L12.4776 5.24777C12.5569 5.55139 12.656 5.70321 12.8147 5.70321C13.0725 5.70321 13.3501 5.75381 13.5881 5.39959C13.6476 5.34898 13.7269 5.34898 13.7864 5.39959C13.9252 5.50079 14.0442 5.602 14.1632 5.39959C14.2227 5.29838 14.2822 5.29837 14.3615 5.34898C14.421 5.39959 14.4805 5.45019 14.54 5.5514C14.6986 5.7032 14.8573 5.75381 15.0159 5.5514C15.1548 5.39959 15.2737 5.45018 15.3927 5.60199C15.4324 5.6526 15.4522 5.6526 15.4919 5.6526C15.8488 5.70321 16.2256 5.7538 16.5826 5.60199C16.7214 5.55139 16.8404 5.45018 16.9594 5.29837C17.118 5.09596 17.2767 5.14656 17.4353 5.29837C17.5345 5.39958 17.6336 5.39958 17.713 5.29837C17.7724 5.24777 17.8319 5.19716 17.8914 5.09596C17.9708 4.99476 18.0699 4.99476 18.1294 4.74173C18.0897 4.58992 18.0303 4.53932 17.9509 4.48871C17.8121 4.43811 17.6931 4.3369 17.594 4.03328C17.5345 3.88147 17.5543 3.72966 17.6138 3.62845C17.6336 3.57785 17.6733 3.52724 17.6931 3.52724C17.8518 3.42604 18.0303 3.42604 18.1889 3.62845C18.3277 3.78026 18.4467 3.72966 18.5657 3.57785C18.5855 3.52724 18.6252 3.52724 18.6648 3.47664C19.0615 3.42603 19.4581 3.32483 19.8547 3.52724C19.9539 3.57785 19.9737 3.67905 19.934 3.88147C19.8944 4.03328 19.8745 4.1851 19.8349 4.28631C19.7357 4.69114 19.7357 4.79233 19.8547 4.84294C20.0134 4.89354 20.1918 4.94415 20.3505 4.89354C20.4893 4.84294 20.6083 4.69114 20.6479 4.28631C20.6479 4.1851 20.6678 4.13449 20.6876 4.03328C20.7074 3.72966 20.8066 3.57785 20.8859 3.52724C21.1041 3.42604 21.342 3.37543 21.58 3.42604C21.6593 3.42604 21.7188 3.52725 21.7188 3.62845C21.7188 3.67906 21.699 3.78026 21.6593 3.83086C21.5998 3.93207 21.5403 4.03328 21.5007 4.13449C21.4015 4.38751 21.2825 4.48871 21.1437 4.48871C21.0644 4.48871 21.0247 4.53933 20.9851 4.69114C21.0446 4.79234 21.1041 4.84294 21.1636 4.84294C21.3222 4.84294 21.5007 4.84295 21.6593 4.69114C21.8775 4.48872 22.0956 4.2863 22.3138 4.08388C22.3732 4.03328 22.4327 3.93208 22.5121 3.93208C22.7897 3.93208 23.0277 3.67905 23.2855 3.47664C23.345 3.42603 23.4243 3.42603 23.4838 3.47664C23.9002 3.88147 24.3365 3.93207 24.753 3.88147C25.3876 3.78026 26.0222 3.88147 26.6369 3.88147C26.7361 3.88147 26.8352 3.88148 26.9344 3.98268C27.093 4.13449 27.2517 4.08389 27.4302 3.93208C27.5492 3.83088 27.688 3.83087 27.8268 3.98268C27.9259 4.08388 28.0251 4.1851 28.1044 4.1851C28.501 4.2357 28.8977 4.2863 29.2943 4.13449C29.3934 4.08388 29.4728 3.98268 29.5521 3.78026C29.5719 3.72966 29.5917 3.62846 29.5917 3.57785C29.5521 3.37543 29.4926 3.32484 29.4331 3.42604C29.3736 3.47665 29.3141 3.52725 29.2546 3.62846C29.1555 3.78026 29.0563 3.78026 28.977 3.67906C28.7985 3.47665 28.6002 3.37543 28.4019 3.37543C27.9656 3.37543 27.5293 3.42604 27.1129 3.27423C27.0732 3.27423 27.0335 3.22363 27.0335 3.17303C27.0137 3.02122 27.0534 2.86939 27.093 2.71758C27.1327 2.56577 27.1922 2.51517 27.2715 2.46457C27.4698 2.41396 27.6681 2.36336 27.8665 2.31275C28.1044 2.31275 28.3226 2.31275 28.5605 2.31275C28.6994 2.31275 28.8183 2.16093 28.9373 2.05973C29.0166 2.00912 29.1356 2.05974 29.215 2.00913C29.2348 2.00913 29.2546 1.90793 29.2943 1.85732C29.4133 1.5031 29.4133 1.5031 29.5323 1.65491C29.6314 1.75611 29.7107 1.85732 29.8099 1.95853C29.8694 2.00913 29.909 2.16094 29.9289 2.36336C29.8694 2.36336 29.7901 2.36336 29.7306 2.41396C29.7107 2.41396 29.6711 2.46457 29.6512 2.51517C29.6314 2.56578 29.6314 2.66698 29.6314 2.66698C29.6711 2.81879 29.7306 2.81879 29.79 2.71758C29.8495 2.61638 29.8892 2.51517 29.8892 2.31275C29.9685 2.31275 30.028 2.31275 30.1073 2.31275C30.1272 2.56577 30.2065 2.71758 30.3057 2.76819C30.3652 2.81879 30.4246 2.76819 30.4841 2.76819C30.504 2.76819 30.5436 2.71759 30.5635 2.66698C30.5833 2.56578 30.5436 2.46457 30.4643 2.46457C30.3453 2.41396 30.2065 2.41396 30.0875 2.41396C30.1073 2.26215 30.1272 2.11034 30.1867 2.00913C30.266 1.85732 30.3453 1.75611 30.4445 1.65491C30.5238 1.5537 30.623 1.45249 30.7221 1.6043C30.8411 1.75611 30.9601 1.80672 31.0791 1.90793C31.1782 2.00913 31.2377 2.11034 31.2972 2.36336C31.3369 2.56577 31.4162 2.7682 31.5154 2.8694C31.5352 3.02121 31.5748 3.17302 31.6343 3.22362C31.6542 3.27423 31.6938 3.27423 31.7137 3.27423C31.7335 3.27423 31.7732 3.22363 31.793 3.17303C31.8128 3.07182 31.7732 2.97061 31.6938 2.92001C31.6343 2.92001 31.5748 2.92001 31.4955 2.92001C31.5947 2.31276 31.7732 1.95853 32.0111 1.85732C32.3681 1.70551 32.7052 1.35129 33.0622 1.09827C33.1613 1.04766 33.2605 1.04766 33.3596 1.09827C33.4191 1.14887 33.4985 1.14887 33.5579 1.14887C33.6571 1.14887 33.7563 1.04766 33.8554 0.997055C34.0736 1.19947 34.3115 1.25008 34.5098 1.5537C34.6883 1.85732 34.8866 1.80672 35.0651 1.5537C35.0849 1.50309 35.1246 1.45249 35.1444 1.45249C35.1643 1.40189 35.2039 1.35128 35.2436 1.35128C35.3427 1.30067 35.4419 1.25008 35.541 1.35128C35.66 1.45248 35.779 1.65492 35.898 1.75612C35.9575 1.80673 36.0368 1.80672 36.0963 1.80672C36.2351 1.80672 36.3541 1.70551 36.4731 1.5537C36.6516 1.30068 36.8499 1.25007 37.0482 1.30068C37.187 1.30068 37.306 1.35129 37.4448 1.40189C37.5837 1.4525 37.6828 1.60431 37.782 1.90793C37.8415 2.11034 37.8414 2.26215 37.7423 2.31275C37.5638 2.46456 37.3655 2.56577 37.1672 2.71758C36.9689 2.86939 36.7706 2.81879 36.5723 2.81879C36.374 2.8694 36.1757 2.7682 35.9972 2.51518C35.8782 2.36337 35.7394 2.41397 35.6006 2.51518C35.5609 2.51518 35.5411 2.56577 35.5014 2.61638C35.3427 2.81879 35.2039 2.92001 35.0254 2.92001C34.4702 2.8694 33.8951 2.97061 33.3398 2.92001C33.1812 2.92001 33.0027 2.97061 32.8639 3.17303C32.6854 3.37544 32.4871 3.37543 32.2888 3.47664C32.2689 3.42603 32.2689 3.32484 32.2491 3.27423C32.2293 3.22362 32.2094 3.22362 32.1896 3.22362C32.1896 3.32483 32.2293 3.42604 32.3086 3.42604C32.3284 3.67906 32.3681 3.88147 32.4474 4.08388C32.5267 4.23569 32.6259 4.33691 32.725 4.33691C32.7845 4.33691 32.8639 4.2863 32.9234 4.23569C33.1217 4.08389 33.32 3.98268 33.5183 3.98268C33.9149 3.98268 34.3115 3.98268 34.7082 3.98268C34.9065 3.98268 35.1048 3.93208 35.3031 3.72966C35.3626 3.67905 35.4221 3.67905 35.5014 3.72966C35.7195 3.98268 35.9377 4.1851 36.136 4.38751C36.374 4.43812 36.5723 4.84294 36.8102 4.89355C36.9689 4.94415 37.0284 5.19717 37.0284 5.5514C37.0284 5.75382 37.068 5.85502 37.1474 5.85502C37.544 5.90563 37.9406 6.00684 38.3372 5.80442C38.4166 5.75382 38.4562 5.65261 38.3967 5.4502C38.3372 5.24778 38.2777 5.04536 38.2381 4.84294C38.1984 4.64053 38.2182 4.53932 38.3174 4.48872C38.5554 4.33691 38.7735 4.3369 38.9916 4.58992C39.0511 4.69113 39.0908 4.79234 39.071 4.99476C39.0512 5.34898 38.9322 5.60201 38.952 5.95623C38.952 6.10804 39.0115 6.25985 39.071 6.25985C39.1701 6.31046 39.2693 6.20924 39.3684 6.10804C39.5271 5.95623 39.6857 5.90563 39.8444 6.05744C40.003 6.20925 40.1617 6.31046 40.3203 6.10804C40.4591 5.90563 40.6575 5.95624 40.7764 5.70322C40.8359 5.60201 40.8359 5.45019 40.8161 5.24777C40.7963 5.19717 40.7765 5.09596 40.7368 5.09596C40.717 5.04536 40.6773 5.04537 40.6376 5.04537C40.5186 5.14657 40.3798 5.24778 40.2608 5.34899C40.1617 5.39959 40.0625 5.34899 40.003 5.14657C39.9237 4.89355 39.9634 4.64053 40.0625 4.53932C40.1022 4.48872 40.122 4.43812 40.1617 4.43812C40.4195 4.38751 40.6971 4.38751 40.9549 4.33691C41.0144 4.33691 41.0937 4.38751 41.1532 4.43812C41.2722 4.53932 41.3912 4.79234 41.53 4.74174C41.6292 4.69113 41.7283 4.58993 41.8077 4.53932C41.887 4.48872 42.006 4.79234 42.0258 4.99476C42.0258 5.24778 41.9861 5.5008 41.9663 5.70322C41.9663 5.90563 42.006 6.00684 42.0655 6.10804C42.1051 6.15865 42.125 6.20925 42.1646 6.20925C42.4224 6.25986 42.7001 6.25985 42.9579 6.31046C43.1958 6.36106 43.414 6.31046 43.6519 6.25985C43.7709 6.25985 43.7908 6.10804 43.7908 5.75382C43.7908 5.4502 43.8701 5.24778 43.9494 5.34899C44.0684 5.5008 44.1874 5.65261 44.3064 5.75382C44.3262 5.80442 44.3262 5.90563 44.346 5.95623C44.3659 6.00684 44.3857 6.00683 44.4055 6.00683C44.4055 5.90563 44.3659 5.80442 44.3064 5.80442C44.3262 5.24778 44.4055 4.84295 44.6237 4.64054C44.8021 4.43812 45.0005 4.2863 45.1789 4.08389C45.2781 3.98268 45.2781 3.67906 45.1988 3.47664C45.1789 3.42604 45.1591 3.32483 45.1194 3.32483C45.0203 3.27423 44.9211 3.22363 44.822 3.22363C44.6633 3.17302 44.4849 3.17302 44.3262 3.02121C44.1081 2.8188 43.8701 2.76819 43.6321 2.76819C42.8389 2.8188 42.0258 2.76819 41.2326 2.71758C41.0343 2.71758 40.8359 2.8188 40.6575 3.12242C40.4988 3.37544 40.3402 3.32483 40.1815 3.12242C40.0824 3.02121 40.0229 2.8188 39.9634 2.61638C39.8841 2.36336 39.9237 1.85732 40.0625 1.80672C40.1022 1.80672 40.122 1.75612 40.1617 1.75612C40.4591 1.70551 40.7566 1.65491 41.0541 1.95853C41.1532 2.05973 41.2326 2.05973 41.3317 1.95853C41.4309 1.85732 41.53 1.80673 41.6292 1.75612C41.6887 1.70551 41.768 1.75612 41.8275 1.75612C42.125 1.75612 42.4224 1.75611 42.7199 1.70551C43.057 1.6549 43.3743 1.75611 43.7114 1.95853C43.7709 2.00913 43.8503 1.95854 43.9098 1.90793C44.1279 1.65491 44.3659 1.75611 44.6038 1.70551C44.8418 1.6549 45.06 1.75612 45.2979 1.90793C45.4367 2.00913 45.5557 2.00913 45.6945 1.95853C46.0515 1.70551 46.4085 1.65491 46.7654 2.00914C46.8646 2.11034 46.9637 2.11035 47.0629 2.11035C47.3009 2.16095 47.519 2.21156 47.757 2.16095C48.1933 2.11035 48.6295 2.00913 49.046 2.05973C49.4823 2.11034 49.9186 2.21155 50.335 2.21155C50.4342 2.21155 50.5333 2.26216 50.6325 2.36336C50.8903 2.71759 51.1481 2.61638 51.4059 2.41397C51.5447 2.31276 51.6637 2.31276 51.7827 2.46457C52.0008 2.66699 52.2388 2.61638 52.4768 2.46457C52.5362 2.41397 52.5957 2.31276 52.6354 2.21155C52.6949 2.11035 52.7346 1.95853 52.7742 1.85733C52.8139 1.95853 52.8734 2.05975 52.913 2.16095C52.9725 2.26216 53.0122 2.36336 53.0717 2.41397C53.1708 2.46457 53.27 2.51518 53.3691 2.51518C54.3607 2.46457 55.3721 2.56578 56.3636 2.56578C56.5223 2.56578 56.7008 2.56579 56.8594 2.51518C57.0974 2.46457 57.3155 2.51517 57.5337 2.76819C57.6923 2.97061 57.851 2.92001 58.0294 2.86941C58.2278 2.8188 58.4062 2.61638 58.6244 2.8188C58.6839 2.86941 58.7632 2.81879 58.8227 2.71759C58.9813 2.51517 59.14 2.56578 59.2986 2.76819C59.378 2.8694 59.4771 2.97061 59.5763 2.97061C59.7746 2.92 59.9729 2.86941 60.1712 2.92001C60.3695 2.97062 60.5678 2.97061 60.7661 2.97061C61.0239 2.97061 61.3016 2.97062 61.5594 2.92001C61.718 2.92001 61.8965 2.8188 62.0551 2.66699C62.2138 2.46458 62.3724 2.51518 62.5311 2.66699C62.6302 2.76819 62.7294 2.76819 62.8286 2.76819C63.1657 2.8188 63.5028 2.8188 63.8201 2.86941C63.9589 2.86941 64.0779 2.92001 64.2167 3.02122C64.3159 3.12242 64.415 3.12242 64.5142 3.02122C64.6332 2.92001 64.772 2.86941 64.9108 2.8188C65.2479 2.8188 65.5851 2.7682 65.9024 2.7682C66.2593 2.71759 66.6361 2.7682 66.9931 2.97061C67.1319 3.07182 67.2509 3.02122 67.3897 2.92001C67.707 2.7176 68.0441 2.7176 68.3812 2.66699C68.7779 2.61639 69.1745 2.61639 69.5711 2.66699C69.8289 2.7176 70.1065 2.7176 70.3643 2.66699C70.6023 2.61639 70.8403 2.66699 71.0584 2.92001C71.1179 2.97062 71.1972 3.02122 71.2567 2.92001C71.4749 2.66699 71.7129 2.61639 71.9508 2.66699C72.5854 2.66699 73.22 2.71759 73.8546 2.71759C73.9538 2.71759 74.0529 2.7176 74.1521 2.8188C74.509 3.17303 74.866 3.17303 75.2428 3.12242C75.4014 3.07182 75.5799 3.02122 75.7386 2.86941C75.798 2.8188 75.8575 2.7682 75.9369 2.7682C76.274 2.71759 76.6111 2.71759 76.9284 2.7682C77.2457 3.07182 77.5828 3.02121 77.92 3.07182C78.0588 3.07182 78.1778 3.02122 78.3166 2.86941C78.3761 2.8188 78.4356 2.8188 78.5149 2.86941C78.6339 2.97061 78.7727 3.07182 78.9115 2.97061C79.1495 2.86941 79.3676 2.8188 79.6056 2.97061C80.0022 2.97061 80.3988 3.22363 80.7955 3.07182C81.1524 3.12242 81.5292 3.12243 81.8862 3.17304C81.9457 3.17304 82.025 3.22364 82.0845 3.27424C82.3026 3.47666 82.5406 3.52726 82.7786 3.52726C83.0165 3.52726 83.2545 3.52726 83.4727 3.57786C83.6313 3.57786 83.8098 3.67907 83.9684 3.78028C84.1667 3.93209 84.3651 3.93209 84.5634 3.78028C84.6229 3.72967 84.6824 3.78027 84.7617 3.83087C84.8608 3.88148 84.96 3.98269 85.0591 3.98269C85.6937 3.98269 86.3283 4.03329 86.9629 4.0839C87.1414 4.0839 87.3 4.13451 87.4587 4.28632C87.6173 4.43813 87.776 4.38752 87.9545 4.28632C88.3114 3.9827 88.6684 3.98269 89.0253 4.33692C89.1245 4.43812 89.2237 4.43812 89.3228 4.48873C89.4815 4.48873 89.6599 4.48873 89.8186 4.48873C89.9574 4.48873 90.0764 4.58993 90.2152 4.58993C90.4928 4.94416 90.7903 4.89356 91.0878 4.94417C91.3257 4.99477 91.5439 4.99477 91.7819 5.04538C92.0198 5.04538 92.238 5.09598 92.4561 5.349C92.9519 5.50081 93.4278 6.00684 93.9236 6.00684C94.0624 6.00684 94.1814 6.10806 94.3004 6.20926C94.4194 6.36107 94.5582 6.41168 94.697 6.41168C94.7565 6.41168 94.8358 6.41168 94.8953 6.46229C95.2325 6.81651 95.6092 6.91771 95.9662 7.01892C96.0455 7.01892 96.1447 7.37315 96.1249 7.57557C96.105 7.72738 96.0852 7.92979 96.0852 8.0816C96.0852 8.23341 96.1249 8.38522 96.2042 8.43583C96.2438 8.48643 96.2637 8.48643 96.3033 8.48643C96.581 8.43583 96.8189 8.79006 97.0569 9.09368C97.1164 9.14429 97.1561 9.3467 97.1759 9.49851C97.2552 10.0045 97.4139 10.3082 97.6122 10.46C97.8105 10.6118 97.989 10.8142 98.1675 10.966C98.3261 11.0672 98.4847 11.1684 98.6434 11.3202C98.7426 11.4214 98.8417 11.4721 98.9409 11.5227C99.0995 11.5733 99.278 11.6239 99.4168 11.7757C99.6944 12.0287 100.012 12.0287 100.309 11.9781C100.389 11.9781 100.448 11.8769 100.448 11.7757C100.448 11.7251 100.408 11.6239 100.389 11.5733C100.19 11.3202 99.9721 11.0672 99.7738 10.7636C99.6349 10.5612 99.516 10.6118 99.397 10.7636C99.3573 10.8142 99.3375 10.8142 99.2978 10.8648C99.0995 11.0166 98.9012 10.966 98.7426 10.6118C98.6236 10.3082 98.5046 10.0552 98.3658 9.80213C98.2468 9.59971 98.1278 9.59972 97.989 9.75153C97.9295 9.80214 97.87 9.90333 97.8105 9.90333C97.751 9.95394 97.6717 9.85273 97.6518 9.65031C97.632 9.4479 97.6717 9.2961 97.7312 9.24549C97.751 9.19488 97.7907 9.14428 97.8105 9.14428C98.0088 9.09367 98.2071 9.04307 98.4054 9.04307C98.5641 9.04307 98.7426 9.04307 98.9012 9.24549C99.159 9.49851 99.4168 9.54911 99.6944 9.54911C99.8333 9.54911 99.9522 9.49851 100.091 9.49851C100.19 9.49851 100.309 9.49851 100.389 9.59972C100.627 9.95394 100.884 10.0045 101.162 9.95394C101.4 9.90333 101.638 9.90333 101.856 9.90333C101.955 9.90333 102.054 9.90333 102.153 9.80213C102.411 9.49851 102.669 9.49851 102.927 9.49851C103.363 9.49851 103.799 9.44791 104.216 9.59972C104.315 9.65032 104.394 9.80213 104.474 9.95394C104.533 10.1058 104.533 10.2576 104.454 10.3588C104.256 10.6118 104.156 10.966 104.077 11.4721C104.057 11.6745 104.057 11.8263 104.117 11.9275C104.315 12.2311 104.434 12.7878 104.632 13.142C104.751 13.3444 104.732 13.5974 104.613 14.0023C104.474 14.3565 104.474 14.4071 104.613 14.5083C104.712 14.5589 104.811 14.6095 104.89 14.7613C104.95 14.8625 105.029 15.2673 104.989 15.4192C104.969 15.571 104.95 15.7228 104.91 15.8746C104.811 16.33 104.751 16.7855 104.771 17.3421C104.791 17.8481 104.791 18.3542 104.751 18.8602C104.732 19.012 104.732 19.2144 104.712 19.3663C104.672 19.7711 104.494 20.1253 104.335 20.0747C104.275 20.0747 104.196 20.0241 104.137 19.9735C104.077 19.9229 103.998 19.9735 103.938 20.0241C103.819 20.1759 103.68 20.2265 103.542 20.2265C103.343 20.2265 103.145 20.2265 102.947 20.2265C102.947 20.1759 102.927 20.0747 102.927 20.0241C102.907 19.9735 102.887 19.9735 102.867 19.9735C102.867 20.0747 102.907 20.1253 102.967 20.1759C103.006 20.4289 103.086 20.5807 103.185 20.6313C103.284 20.682 103.383 20.682 103.482 20.6313C103.68 20.5807 103.879 20.6313 104.057 20.8844C104.216 21.0868 104.375 21.1374 104.533 21.188C104.632 21.2386 104.692 21.5422 104.652 21.7446C104.573 22.0989 104.533 22.5543 104.375 22.7567C104.295 22.8579 104.275 23.0097 104.315 23.1109C104.335 23.1615 104.375 23.1615 104.394 23.2121C104.454 23.2627 104.513 23.3133 104.593 23.364C104.613 23.4146 104.672 23.4652 104.672 23.5158C104.613 24.123 104.751 24.6796 104.732 25.2869C104.712 25.5399 104.672 25.7423 104.573 25.8435C104.474 25.9447 104.375 25.9447 104.295 26.0966C104.236 26.1978 104.196 26.4002 104.256 26.5014C104.315 26.7038 104.394 26.805 104.474 27.0074C104.553 27.2098 104.573 27.4123 104.533 27.6653C104.513 27.7665 104.494 27.8171 104.494 27.8677C104.414 28.3231 104.414 28.4749 104.533 28.7786C104.573 28.8798 104.632 28.981 104.672 29.1328C104.751 29.3352 104.732 29.6388 104.692 29.8412C104.593 30.1955 104.394 30.2461 104.295 30.6003C104.216 30.8533 104.315 31.2075 104.196 31.5112C104.077 31.7642 104.077 31.8654 104.156 32.1184C104.216 32.3208 104.275 32.5232 104.335 32.7257C104.394 32.9281 104.355 33.1811 104.275 33.3835C104.256 33.4341 104.216 33.4847 104.196 33.5353C104.117 33.7377 104.117 33.7883 104.156 34.1932C104.176 34.4462 104.216 34.6992 104.216 34.9522C104.216 35.4583 104.196 35.9643 104.196 36.4703C104.196 36.774 104.097 36.9258 104.018 36.9764C103.839 37.1282 103.641 37.3306 103.462 37.4318C103.403 37.4824 103.324 37.4318 103.264 37.3812C103.086 37.3306 103.026 37.4318 103.026 37.8872C103.026 37.9884 103.026 38.039 103.046 38.1403C102.986 38.1403 102.927 38.1403 102.867 38.1403C102.848 38.1403 102.808 38.1909 102.788 38.2415C102.768 38.2921 102.768 38.3427 102.768 38.3933C102.808 38.5451 102.867 38.5451 102.927 38.4439C102.986 38.3427 103.006 38.2415 103.026 38.0897C103.185 38.0897 103.363 38.1403 103.482 38.4945C103.621 38.8993 103.799 39.1017 104.018 39.1017C104.077 39.1017 104.156 39.1523 104.216 39.2029C104.295 39.2535 104.394 39.5572 104.375 39.7596C104.315 40.1644 104.315 40.5692 104.375 40.9741C104.394 41.1259 104.375 41.3283 104.335 41.4295C104.156 41.7837 103.978 42.1886 103.799 42.5428C103.74 42.644 103.68 42.644 103.601 42.644C103.423 42.644 103.284 42.4416 103.125 42.3404C103.066 42.2898 102.986 42.3404 102.927 42.391C102.748 42.644 102.629 43.0994 102.451 43.2512C102.372 43.3525 102.352 43.5043 102.411 43.5549C102.431 43.6055 102.471 43.6055 102.51 43.6055C102.57 43.6055 102.649 43.6561 102.709 43.5549C102.828 43.4537 102.947 43.2512 103.066 43.15C103.224 42.9982 103.383 43.0488 103.542 43.2512C103.561 43.3018 103.601 43.3525 103.621 43.4031C103.68 43.7067 103.74 44.0103 103.78 44.3139C103.839 44.7188 103.938 45.0224 104.097 45.2248C104.216 45.3766 104.236 45.7308 104.137 46.0851C104.037 46.4393 103.938 46.7935 103.859 47.1477C103.78 47.4514 103.68 47.6032 103.542 47.6538C103.185 47.7044 102.808 47.755 102.451 47.8562C102.372 47.8562 102.332 48.0586 102.332 48.2104C102.312 48.4128 102.352 48.5646 102.411 48.6152C102.471 48.6658 102.53 48.7164 102.59 48.7671C102.748 48.7671 102.927 48.7671 103.086 48.9189C103.185 48.9695 103.264 49.1213 103.304 49.3743C103.343 49.5767 103.324 49.7285 103.224 49.7285C102.887 49.8297 102.57 49.8297 102.233 49.8297C102.173 49.5261 102.074 49.3237 101.935 49.3237C101.777 49.3237 101.618 49.3237 101.459 49.3743C101.44 49.3743 101.4 49.4249 101.38 49.5261C101.36 49.6273 101.4 49.7285 101.479 49.7791C101.737 49.9309 101.975 49.8297 102.233 49.8297C102.272 50.0828 102.352 50.2346 102.451 50.2852C102.55 50.3358 102.649 50.3864 102.709 50.5888C102.768 50.7912 102.768 51.1454 102.669 51.196C102.61 51.2466 102.55 51.2972 102.471 51.2972C102.332 51.2972 102.213 51.2466 102.074 51.1454C101.955 51.0442 101.816 50.943 101.697 50.8924C101.44 50.8418 101.182 50.7406 100.924 50.4876C100.805 50.3864 100.666 50.3358 100.527 50.3358C100.19 50.3358 99.8729 50.3864 99.5358 50.437C99.4961 50.437 99.4763 50.437 99.4366 50.4876C99.3177 50.5382 99.3177 50.69 99.4168 50.69C99.6151 50.7912 99.8134 50.7912 100.012 50.8418C100.111 50.8924 100.19 50.9936 100.27 51.196C100.329 51.3478 100.349 51.4997 100.289 51.6009C100.27 51.6515 100.23 51.7021 100.21 51.7021C100.051 51.6009 99.8928 51.4997 99.7341 51.4491C99.5358 51.3985 99.3375 51.4491 99.1392 51.4997C98.8814 51.5503 98.6236 51.8539 98.3658 51.8539C98.1278 51.8539 97.9096 51.9045 97.6717 51.9551C97.5725 52.0057 97.4932 52.1575 97.4535 52.4105C97.4337 52.4105 97.394 52.4611 97.3742 52.4611C97.3544 52.4611 97.3544 52.5623 97.3544 52.6129C97.4139 52.6129 97.4337 52.5623 97.4337 52.3599C97.5329 52.3599 97.632 52.4105 97.7312 52.4105C97.9295 52.4611 97.9493 52.5623 97.9096 53.0684C97.87 53.5238 97.87 53.5744 97.9295 53.7768C98.108 54.2829 98.2864 54.7889 98.4649 55.2949C98.5046 55.4468 98.5442 55.5986 98.5244 55.7504C98.4847 55.9022 98.4253 55.9528 98.3459 55.9528C98.2468 56.0034 98.1476 56.0034 98.0485 56.054C97.9691 56.1046 97.8898 56.4082 97.8898 56.6106C97.87 57.0155 97.87 57.4709 97.9295 57.8757C98.0088 58.3312 98.108 58.7866 98.1873 59.242C98.2468 59.5457 98.2468 59.8999 98.2269 60.2541C98.2269 60.3553 98.2071 60.4059 98.1873 60.5071C98.108 60.912 98.108 61.3168 98.2071 61.7216C98.2864 62.0252 98.2864 62.3795 98.2468 62.6831C98.2071 62.9361 98.1476 63.1385 98.1675 63.3915C98.2269 63.847 98.1278 64.2012 98.0286 64.5554C97.9691 64.7579 97.9691 65.0109 98.0286 65.2639C98.0485 65.3145 98.0485 65.4157 98.0683 65.5169C98.1476 66.3772 98.1476 67.1868 97.9096 67.9459C97.87 68.0977 97.8105 68.1989 97.7907 68.3507C97.6915 69.0086 97.6717 69.6664 97.8303 70.2737C97.9096 70.5773 98.0088 70.7797 98.1675 70.7797C98.2269 70.7797 98.3063 70.7797 98.3658 70.7797C98.4054 70.7797 98.4253 70.7797 98.4649 70.8303C98.5046 70.8809 98.5442 70.8809 98.5442 70.9315C98.5641 71.0327 98.5244 71.1339 98.4451 71.1845C98.3856 71.2351 98.3063 71.1845 98.2468 71.2351C98.0286 71.2857 97.9493 71.5388 98.0881 72.0448C98.2468 72.6014 98.2269 72.652 97.989 72.8545C97.8898 72.9051 97.8105 73.0063 97.7113 73.1581C97.632 73.3099 97.5725 73.5629 97.632 73.8159C97.7113 74.2208 97.751 74.6256 97.7312 75.0304C97.6915 75.5365 97.7312 76.0425 97.7708 76.5485C97.8303 77.2064 97.8303 77.2064 97.7113 77.7124C97.6915 77.763 97.6717 77.8642 97.6518 77.9148C97.6122 78.0666 97.6122 78.2185 97.632 78.3703C97.751 79.0787 97.87 79.7366 97.989 80.445C98.0286 80.7487 98.0485 80.7993 97.8502 80.9511C97.6717 81.1029 97.5527 81.3053 97.513 81.8113C97.513 81.9125 97.4932 81.9631 97.4932 82.0643C97.4337 82.2668 97.3742 82.4692 97.2751 82.5198C97.1759 82.5704 97.0767 82.5704 96.9776 82.621C96.8983 82.6716 96.8586 82.7728 96.8784 82.874C96.8983 82.9246 96.9379 82.9752 96.9578 83.0258C97.0173 83.0764 97.0966 83.0764 97.1561 83.127C97.2552 83.1776 97.3147 83.4813 97.2949 83.7343C97.2751 83.8861 97.2354 84.0885 97.2552 84.2403C97.2949 84.4933 97.394 84.5945 97.4535 84.7464C97.513 84.8982 97.513 85.05 97.513 85.2018C97.4734 85.6572 97.3345 85.9102 97.1759 86.0114C96.9181 86.1633 96.6405 86.2139 96.3827 86.3657C96.1843 86.4669 96.0059 86.6187 95.7877 86.6187C95.5299 86.6187 95.2523 86.7199 95.0143 87.0235C94.8953 87.1753 94.7565 87.1753 94.6177 87.1753C94.4194 87.2259 94.2211 87.2259 94.0228 87.3777C93.8046 87.5802 93.5667 87.6308 93.3287 87.6814C92.9321 87.7826 92.5354 87.7826 92.1388 88.0862C92.0198 88.1874 91.881 88.1874 91.7422 88.1874C91.3059 88.238 90.8696 88.238 90.4532 88.5416C90.3937 88.5922 90.3144 88.5416 90.2549 88.491C90.1557 88.4404 90.0566 88.4404 89.9574 88.5416C89.7393 88.744 89.5013 88.7947 89.2633 88.7947C88.7279 88.8453 88.1924 88.8453 87.657 88.8453C87.0819 88.8453 86.5266 88.8959 85.9515 88.8959C85.1781 88.8959 84.4245 88.8959 83.6511 88.9465C83.1554 88.9971 82.6596 88.9465 82.144 88.9971C81.9655 88.9971 81.8068 88.8959 81.668 88.6934C81.6085 88.5922 81.549 88.6428 81.4697 88.6934C81.3507 88.8453 81.2119 88.8959 81.0731 88.8959C80.498 88.8959 79.9427 88.8959 79.3676 88.8959C79.328 88.8959 79.2883 88.8959 79.2685 88.8959C79.09 88.6934 78.8917 88.6934 78.6934 88.744C78.3959 88.3898 78.1183 88.491 77.8208 88.7946C77.6622 88.9465 77.5035 88.9971 77.325 88.9971C77.0871 88.9465 76.8491 88.9971 76.6309 88.7946C76.5715 88.744 76.4921 88.7946 76.4326 88.8453C76.2542 88.9971 76.1352 88.8453 76.0162 88.4404C75.8972 88.0356 75.7584 87.985 75.5799 88.238C75.4014 88.491 75.2229 88.5922 75.0048 88.5922C74.7073 88.5922 74.4099 88.6428 74.1124 88.5922C73.9538 88.5416 73.7753 88.5922 73.6166 88.6934C73.458 88.8453 73.2993 88.744 73.1209 88.6934C72.6449 88.5416 71.7129 88.491 71.1179 88.5416C70.88 88.5922 70.6618 88.5922 70.4238 88.5922C70.3247 88.5922 70.2255 88.5416 70.1462 88.3898C69.9875 88.1874 69.8289 88.1368 69.6703 88.3392C69.5909 88.4404 69.4918 88.5416 69.3926 88.5416C69.1348 88.491 68.8572 88.5416 68.5994 88.2886C68.3217 88.0356 68.0045 88.0862 67.707 88.0862C67.6475 88.0862 67.5682 88.1368 67.5087 88.1874C67.35 88.3392 67.1914 88.4404 67.0327 88.4404C66.7749 88.4404 66.4973 88.491 66.2395 88.5416C66.0412 88.5416 65.8429 88.491 65.6446 88.2886C65.5454 88.1874 65.4462 88.1368 65.3471 88.1368C65.01 88.1368 64.6728 88.0862 64.3555 88.3898C64.2365 88.491 64.0977 88.5416 63.9589 88.5416C63.7606 88.5416 63.5623 88.491 63.364 88.2886C63.245 88.1368 63.126 88.0356 62.9872 87.8838C62.9277 87.8332 62.8682 87.8332 62.7889 87.8838C62.4716 88.1368 62.1345 88.0862 61.7973 88.0862C61.6982 88.0862 61.6783 87.9344 61.6982 87.732C61.718 87.5296 61.718 87.3777 61.6585 87.2765C61.599 87.1753 61.5395 87.1247 61.4602 87.1753C61.3611 87.2259 61.2619 87.2765 61.1627 87.3271C61.1033 87.3777 61.0438 87.3777 60.9644 87.3271C60.8653 87.2259 60.7661 87.2259 60.667 87.1753C60.5282 87.1247 60.3893 87.1247 60.2703 87.2765C59.8936 87.732 59.4969 87.6814 59.1003 87.732C59.0012 87.732 58.902 87.6308 58.8227 87.4789C58.6839 87.2259 58.6045 86.8717 58.5054 86.5175C58.4657 86.3657 58.3864 86.3151 58.3269 86.3151C58.2674 86.3151 58.1881 86.2645 58.1286 86.3151C57.9105 86.5681 57.6526 86.2645 57.4543 86.5681C57.256 86.6693 57.0577 86.8211 56.8792 86.9729C56.7801 87.0741 56.6809 87.0235 56.5818 86.9223C56.5223 86.8717 56.4628 86.7705 56.3835 86.7705C55.848 86.7199 55.3126 86.6187 54.7771 86.7705C54.678 86.8211 54.5987 86.9729 54.5392 87.1753L54.559 87.1247C54.4599 87.0741 54.3607 87.1247 54.2615 87.0235C54.1227 86.8717 54.0236 86.8211 53.9046 87.0741C53.8649 87.1753 53.8054 87.2765 53.7459 87.3777C53.6864 87.4789 53.6269 87.5295 53.5675 87.5802C53.27 87.6814 52.9725 87.732 52.6751 87.7826C52.4371 87.7826 52.2189 87.732 51.981 87.6308C51.8422 87.5802 51.862 87.2765 51.862 87.0741C51.862 87.0235 51.8422 86.9223 51.8223 86.8717C51.7232 86.7199 51.2076 86.3657 51.0688 86.3151C50.9101 86.2645 50.7316 86.2645 50.573 86.2138C50.4342 86.2138 50.3152 86.1126 50.1962 85.9102C50.0772 85.7584 49.9582 85.6066 49.8392 85.5054C49.7797 85.4548 49.7004 85.4042 49.6409 85.4042C49.3434 85.5054 49.046 85.1512 48.7485 85.2524C48.5899 85.303 48.4114 85.2524 48.2527 85.2018C47.8958 85.1006 47.519 85.1006 47.162 85.1512C46.9241 85.2018 46.7059 85.05 46.4878 84.8475C46.3291 84.6957 46.1705 84.7463 45.992 84.7969C45.9325 84.8475 45.8532 84.8475 45.7937 84.9488C45.635 85.1006 45.4764 85.1512 45.2979 85.2018C45.0599 85.2018 44.8418 85.2524 44.6038 85.2524C44.4254 85.2524 44.2667 85.1512 44.1279 84.9488C43.9891 84.7969 43.8701 84.7969 43.7511 84.9994C43.5726 85.2524 43.414 85.5054 43.3148 86.0114C43.2157 86.5175 43.0174 86.6693 42.819 86.7199C42.6207 86.7705 42.4224 86.7199 42.2241 86.7199C42.125 86.7199 42.0258 86.7199 41.9266 86.6187C41.4705 86.2645 41.0144 86.2645 40.5385 86.2138C40.3005 86.2138 40.0824 86.1632 39.8444 85.9102C39.7452 85.809 39.6461 85.809 39.5469 85.809C38.8727 85.809 38.2182 85.7584 37.544 85.7584C37.306 85.7584 37.0879 85.6572 36.8697 85.4548C36.7507 85.303 36.6119 85.303 36.4731 85.2524C36.3343 85.2524 36.2153 85.2524 36.0765 85.2524C35.779 85.2524 35.4816 85.2524 35.1841 85.2018C35.0453 85.2018 34.9263 85.1512 34.7875 85.05C34.5892 84.8981 34.3909 84.8475 34.1925 84.8475C33.7959 84.8475 33.3993 84.7969 33.0027 84.7969C32.7647 84.7969 32.5466 84.7463 32.3086 84.4933C32.1499 84.3415 31.9913 84.3415 31.8128 84.3415C31.2774 84.2909 30.7419 84.2909 30.2065 84.2403C30.0677 84.2403 29.9289 84.2403 29.8099 84.1391C29.5124 83.8861 29.215 83.8355 28.9175 83.8355C28.5605 83.8355 28.1837 83.8355 27.8268 83.7849C27.688 83.7849 27.5491 83.7849 27.4302 83.6837C27.1724 83.4812 26.9146 83.4306 26.6369 83.4306C26.3989 83.4306 26.1808 83.38 25.9428 83.38C25.8437 83.38 25.7445 83.38 25.6454 83.2788C25.2884 82.874 24.9315 82.9752 24.5547 82.9246C24.4158 82.9246 24.2969 82.9246 24.158 82.9246C23.9796 82.9246 23.8209 82.8234 23.6821 82.621C23.5235 82.4186 23.3648 82.3174 23.2062 82.368C22.6311 82.5198 22.0758 82.4186 21.5205 82.368C21.3817 82.368 21.2627 82.3174 21.1239 82.1655C20.9652 82.0137 20.8066 81.9631 20.6281 81.9631C20.3703 81.9631 20.0927 81.9125 19.8349 81.9125C19.5771 81.8619 19.2994 81.8619 19.0416 81.6595C18.9226 81.5583 18.7838 81.5583 18.645 81.5077C18.407 81.4571 18.1889 81.4571 17.9509 81.4065C17.8518 81.4065 17.7526 81.4065 17.6535 81.3053C17.3362 80.951 16.999 80.951 16.6817 80.951C16.3446 80.951 16.0273 80.7992 15.6902 80.5968C15.2936 80.3944 14.8969 80.445 14.5003 80.3438C14.4805 80.3438 14.4408 80.2932 14.4408 80.2426C14.4408 80.1414 14.4607 80.0402 14.4805 79.9896C14.54 79.8884 14.5995 79.8378 14.6391 79.7366C14.6986 79.6353 14.7383 79.4835 14.778 79.3823C14.7978 79.3317 14.8176 79.2305 14.7978 79.1799C14.778 79.1293 14.7383 79.0281 14.7185 79.0281C14.5598 78.9775 14.3813 78.9775 14.2227 78.8763C13.8657 78.7245 13.8261 78.7245 13.5881 79.0787C13.5683 79.1293 13.5484 79.1799 13.5286 79.2811C13.5088 79.3317 13.5088 79.4329 13.4889 79.5341L13.5088 79.4835C13.4096 79.4329 13.3501 79.2305 13.3303 78.9775C13.4691 79.1293 13.4691 78.9775 13.4493 78.8257ZM95.1135 81.2041C95.054 81.2041 94.9945 81.2041 94.935 81.2041C94.9152 81.2041 94.8755 81.2547 94.8557 81.3053C94.8358 81.3559 94.8358 81.4065 94.8358 81.4571C94.8755 81.5583 94.935 81.6089 94.9945 81.5077C95.054 81.5077 95.0936 81.3559 95.1135 81.2041C95.1333 81.1535 95.1531 81.1535 95.1928 81.1029C95.2126 81.1029 95.2126 81.0017 95.2126 80.9511C95.1531 80.9005 95.1135 81.0017 95.1135 81.2041ZM96.105 82.2162C95.7481 82.1656 95.3713 82.2162 95.0341 82.5704C94.9747 82.621 94.9152 82.6716 94.8358 82.6716C94.5384 82.7728 94.2409 82.8234 93.9434 82.6716C93.9038 82.6716 93.8641 82.621 93.8443 82.5704C93.8245 82.4692 93.8443 82.3174 93.9038 82.2162C93.9633 82.115 93.9831 81.9631 93.9434 81.8619C93.9236 81.8113 93.8839 81.7607 93.8641 81.7607C93.6658 81.7101 93.4675 81.7607 93.289 82.0643C93.1304 82.368 92.9717 82.7222 92.7932 82.874C92.7536 82.9246 92.7337 82.9752 92.7139 83.0258C92.6346 83.1776 92.5949 83.4307 92.5354 83.6331C92.4958 83.7849 92.5949 84.1897 92.6544 84.2403C92.8924 84.3415 93.1105 84.2909 93.3485 84.1391C93.5072 84.0379 93.6658 83.8355 93.8245 83.8355C94.0228 83.7849 94.2211 83.7849 94.4194 83.6837C94.6177 83.5825 94.7962 83.38 94.9945 83.2788C95.3316 83.1776 95.6291 82.8234 95.9464 82.5704C96.0455 82.5198 96.0852 82.368 96.105 82.2162C96.2835 82.2162 96.4818 82.2162 96.6801 82.115C96.7198 82.115 96.7396 82.0137 96.7594 81.9631C96.7396 81.9125 96.7198 81.8619 96.7 81.8113C96.581 81.7101 96.4421 81.6595 96.3033 81.7607C96.224 81.8619 96.1447 81.9631 96.105 82.2162ZM56.5223 4.64054C56.4033 4.79235 56.2843 4.94416 56.1653 5.09597C56.1058 5.14657 56.0265 5.14657 55.967 5.19718C55.9274 5.19718 55.9075 5.19718 55.8679 5.14657C55.7885 5.09597 55.7687 4.94416 55.7885 4.74174C55.8084 4.43812 55.7489 4.28631 55.6299 4.28631C55.4316 4.28631 55.2333 4.28631 55.035 4.28631C54.9358 4.28631 54.8366 4.33691 54.7573 4.48872C54.5392 4.84295 54.321 4.74174 54.0831 4.64054C53.7261 4.23571 53.3692 4.28631 53.0122 4.43812C52.9725 4.43812 52.9527 4.48872 52.913 4.48872C52.8535 4.53933 52.7941 4.48873 52.7147 4.43812C52.6156 4.33692 52.5164 4.28631 52.4173 4.28631C52.2784 4.23571 52.1793 4.03328 52.1 3.72966C52.0405 3.47664 51.9612 3.37544 51.862 3.37544C51.8223 3.37544 51.8025 3.37544 51.7628 3.37544C51.5249 3.37544 51.2869 3.37544 51.0688 3.37544C50.7713 3.42604 50.4937 3.83087 50.1962 3.83087C50.1367 3.83087 50.0772 3.93208 50.0177 3.98268C49.978 4.03329 49.9582 4.08389 49.9384 4.08389C49.8591 4.18509 49.7599 4.33691 49.6608 4.33691C49.3236 4.33691 48.9865 4.33692 48.6692 4.28631C48.57 4.28631 48.4709 4.1851 48.4114 3.98268C48.2924 3.62846 48.1536 3.47665 47.9751 3.42604C47.3802 3.27423 46.7852 3.37544 46.1705 3.42604C46.0713 3.42604 45.992 3.57785 45.9325 3.83087C45.8929 4.03328 45.8135 4.23571 45.7342 4.38751C45.6549 4.48872 45.6549 4.64054 45.6747 4.74174C45.6945 4.79235 45.7342 4.84294 45.754 4.84294C45.992 4.94415 46.2101 4.94416 46.4481 5.14657C46.5076 5.19718 46.5869 5.19718 46.6464 5.14657C46.7852 5.04537 46.9042 5.04537 47.0431 5.19718C47.2612 5.39959 47.4793 5.60201 47.6975 5.75382C47.8165 5.85502 47.9553 5.80442 48.0743 5.65261C48.2131 5.45019 48.3717 5.29838 48.5502 5.29838C48.7089 5.29838 48.8873 5.29838 49.046 5.29838C49.2245 5.29838 49.3831 5.39959 49.5219 5.65261C49.6409 5.85502 49.7599 5.90563 49.8987 5.90563C50.3945 5.90563 50.8903 6.00684 51.386 5.75382C51.624 5.75382 51.862 5.80442 52.0801 5.75382C53.0122 5.70321 53.9442 5.75382 54.8763 5.75382C55.5109 5.75382 56.1455 5.75383 56.7801 5.70322C56.8198 5.70322 56.8396 5.70321 56.8792 5.65261C56.9189 5.65261 56.9387 5.60201 56.9784 5.5514C57.0776 5.5008 57.1172 5.19718 57.0577 4.94416C56.9189 4.1851 56.7008 4.0839 56.5223 4.64054ZM27.4698 80.1414C27.212 80.4956 26.9146 80.7486 26.6369 80.9511C26.5774 81.0017 26.5179 80.9511 26.4386 80.9004C26.3395 80.8498 26.2403 80.7992 26.1411 80.7486C25.9825 80.7486 25.804 80.7486 25.6454 80.7486C25.5065 80.7486 25.3876 80.698 25.2686 80.4956C25.1099 80.2932 24.9513 80.2426 24.7926 80.2932C24.5943 80.3438 24.4158 80.5462 24.1977 80.445C24.1382 80.3944 24.0787 80.4956 24.0192 80.5968C23.8606 80.7992 23.7019 80.7992 23.5433 80.5968C23.464 80.4956 23.3648 80.3944 23.2656 80.2932C23.1665 80.192 23.0872 80.2426 22.988 80.445C22.8889 80.698 22.9087 80.951 23.0078 81.0523C23.4045 81.4571 23.8209 81.7607 24.277 81.6595C24.3365 81.6595 24.4158 81.6595 24.4753 81.6595C24.7133 81.6595 24.9315 81.7607 25.1496 82.0137C25.2289 82.1149 25.3479 82.1655 25.4471 82.1655C25.5859 82.2161 25.7049 82.2161 25.8437 82.1655C26.5378 82.0137 27.2517 82.1655 27.9458 82.1655C28.0449 82.1655 28.1441 82.2667 28.2432 82.368C28.3622 82.4692 28.501 82.5704 28.6002 82.7728C28.7985 83.127 29.0365 83.1776 29.2546 83.38C29.3141 83.4306 29.3934 83.4812 29.4529 83.38C29.6116 83.1776 29.7702 83.0764 29.9289 83.0764C30.2263 83.0764 30.5238 83.0764 30.8213 82.8234C30.8808 82.7728 30.9601 82.8234 31.0196 82.874C31.1187 82.9246 31.2179 83.0764 31.2972 83.0764C31.4955 83.127 31.674 83.4306 31.8326 83.7343C31.9318 83.9873 32.0706 84.0379 32.2094 84.0379C32.5069 84.0379 32.8044 84.0379 33.1018 84.0379C33.3596 84.0379 33.6373 83.9873 33.8752 83.6837C33.9347 83.6331 34.0141 83.6331 34.0736 83.6331C34.1727 83.6331 34.2917 83.6331 34.371 83.7343C34.609 84.0379 34.8866 84.0379 35.1246 84.3415C35.2436 84.4933 35.3824 84.5439 35.5212 84.5439C35.7195 84.5439 35.9178 84.5439 36.1162 84.5439C36.3541 84.5439 36.5723 84.6957 36.7904 84.8981C36.8896 84.9994 37.0085 84.8981 37.068 84.6957C37.1474 84.4427 37.2465 84.1897 37.3457 83.9873C37.4448 83.8355 37.425 83.6331 37.3258 83.38C37.2465 83.1776 37.2069 83.1776 37.0482 83.2788C36.9491 83.38 36.8499 83.38 36.7507 83.2788C36.5921 83.127 36.4533 82.9752 36.2946 82.7728C36.2351 82.7222 36.1558 82.7222 36.0963 82.8234C35.8782 83.0764 35.6402 83.127 35.4022 83.127C35.0056 83.0764 34.609 83.127 34.2124 82.7728C34.1529 82.8234 34.0736 82.8234 34.0339 82.874C33.9347 82.9752 33.8356 82.9752 33.7563 82.874C33.6968 82.7728 33.6373 82.6716 33.5976 82.5704C33.439 82.2161 33.2605 82.0137 33.0423 82.0643C32.5466 82.1655 32.0508 81.9631 31.555 82.1149C31.4955 82.1149 31.4162 82.0643 31.3567 82.0643C31.2179 82.0137 31.1386 81.7607 31.0989 81.3559C31.0791 81.0017 31.1981 80.6474 31.317 80.7486C31.5352 80.9511 31.7732 81.0017 32.0111 81.0017C32.5069 80.9511 33.0027 80.9511 33.4985 81.3053C33.558 81.3559 33.6174 81.3053 33.6968 81.2547C33.7563 81.2041 33.8158 81.1535 33.8951 81.1535C34.3908 81.1029 34.8866 81.1029 35.4022 81.1029C35.4617 81.1029 35.5411 81.1535 35.6005 81.2041C35.7592 81.4065 35.9178 81.4571 36.0765 81.4571C36.4731 81.4571 36.8697 81.4571 37.2862 81.4571C37.4845 81.4571 37.6828 81.5077 37.8811 81.7101C38.1389 81.9631 38.3967 82.0643 38.6744 82.0137C38.8727 82.0137 39.071 82.0137 39.2693 82.0137C39.4478 82.0137 39.6064 82.1149 39.7452 82.3174C39.8642 82.4692 40.003 82.4692 40.1419 82.368C40.2608 82.2668 40.3798 82.1149 40.4988 81.9631C40.5583 81.8619 40.598 81.7101 40.5781 81.6089C40.5583 81.5583 40.5186 81.5077 40.4988 81.5077C40.1419 81.4571 39.7651 81.4571 39.4081 81.4065C39.2693 81.4065 39.1503 81.3559 39.0115 81.2547C38.8132 81.1029 38.6149 81.0523 38.4165 81.0523C38.0199 81.0523 37.6233 81.0523 37.2267 81.0017C37.0879 81.0017 36.9491 80.9511 36.8301 80.8498C36.6119 80.6474 36.374 80.5968 36.136 80.5968C35.6005 80.6474 35.0651 80.4956 34.5297 80.4956C34.3908 80.4956 34.2719 80.445 34.133 80.3438C33.8752 80.1414 33.6174 80.0402 33.3398 80.0402C32.9432 80.0908 32.5466 80.0402 32.1499 79.7366C32.031 79.6354 31.8921 79.686 31.7533 79.6354C31.2774 79.5847 30.8213 79.5341 30.3453 79.4835C30.2065 79.4835 30.0875 79.4329 29.9487 79.3317C29.6909 79.1293 29.4331 79.0787 29.1555 79.0787C28.6795 79.0787 28.2234 79.0281 27.7475 79.0281C27.5888 79.0281 27.4103 78.9269 27.2517 78.7751C27.1327 78.6233 26.9939 78.6233 26.8551 78.6233C26.5576 78.6233 26.2601 78.5727 25.9627 78.5727C25.8238 78.5727 25.685 78.5727 25.566 78.4209C25.3082 78.1678 25.0504 78.1172 24.7728 78.1172C24.4158 78.1172 24.0391 78.1172 23.6821 78.0666C23.5829 78.0666 23.4838 78.0666 23.3846 77.9654C23.1268 77.7124 22.869 77.6618 22.5914 77.6618C21.8973 77.6112 21.1834 77.6112 20.4893 77.7124C20.4298 77.7124 20.3505 77.763 20.291 77.763C20.2513 77.763 20.2315 77.8136 20.2117 77.8642C20.172 77.9654 20.2117 78.0666 20.3108 78.1172C20.6083 78.269 20.9057 78.1678 21.1834 78.5221C21.3024 78.6739 21.4412 78.6233 21.58 78.6233C21.8775 78.6233 22.1749 78.6233 22.4724 78.6233C22.6311 78.6233 22.8095 78.6739 22.9682 78.8257C23.226 79.1293 23.4838 79.1799 23.7416 79.1799C24.039 79.1799 24.3365 79.1799 24.634 79.1799C24.872 79.1799 25.0901 79.2811 25.3281 79.4835C25.4471 79.5847 25.5859 79.6354 25.7247 79.6354C25.923 79.6354 26.1213 79.6354 26.3196 79.6354C26.6171 79.5847 26.9146 79.6354 27.212 79.686C27.3112 79.686 27.3905 79.8884 27.4302 80.1414L27.4698 80.1414ZM59.6556 6.10805C60.191 6.05744 60.5876 6.05745 60.9843 6.05745C61.0239 6.05745 61.0438 6.05745 61.0834 6.05745C61.1429 6.00684 61.2222 6.00683 61.2817 5.90563C61.4602 5.65261 61.6585 5.65261 61.8568 5.602C61.9163 5.602 61.9758 5.50081 62.0353 5.4502C62.1146 5.3996 62.2336 4.94415 62.194 4.84295C62.1543 4.69114 62.075 4.69115 62.0155 4.64054C61.8568 4.58993 61.6784 4.58993 61.5197 4.79235C61.48 4.84295 61.4602 4.89355 61.4404 4.89355C61.2817 5.04536 61.2222 4.94416 61.2222 4.48872C61.2222 4.28631 61.2024 4.1851 61.1033 4.1345C60.9049 4.03329 60.7066 4.1851 60.5083 4.1851C60.2704 4.1851 60.0522 4.1345 59.8142 4.1345C59.7547 4.1345 59.6953 4.23571 59.6358 4.33691C59.5366 4.43812 59.4969 4.69114 59.4176 4.84295C59.3383 5.04536 59.2391 5.09598 59.14 5.04537C59.0805 5.04537 59.0012 4.99476 58.9417 4.94416C58.545 4.53933 58.1683 4.53933 57.7915 5.04537C57.7121 5.14657 57.5932 5.14657 57.494 5.19718C57.4147 5.24778 57.375 5.349 57.4147 5.4502C57.4345 5.50081 57.4742 5.5514 57.494 5.5514C57.732 5.60201 57.9501 5.65261 58.1683 5.90563C58.2872 6.05744 58.4261 6.10805 58.5649 6.05745C59.0012 6.10805 59.3978 6.05744 59.6556 6.10805ZM24.0192 58.7866C24.1184 58.736 24.2374 58.736 24.3762 58.6348C24.4158 58.6348 24.4357 58.5336 24.4555 58.5336C24.5348 58.4324 24.5547 58.3312 24.5547 58.1287C24.5348 57.9769 24.4952 57.7745 24.4357 57.7745C24.1779 57.6733 23.9201 57.4203 23.6821 57.0661C23.6623 57.0155 23.6226 56.9648 23.6028 56.9648C23.4441 56.813 23.2855 56.7118 23.107 56.9142C22.8889 57.1167 22.6707 57.3191 22.4327 57.3191C22.0956 57.3191 21.7585 57.2685 21.4412 57.0155C21.0247 56.6612 20.5884 56.6612 20.1522 56.8636C20.053 56.9142 19.9737 57.0661 19.9142 57.2685C19.8745 57.4203 19.8547 57.5721 19.8944 57.7239C19.934 57.8757 19.9737 57.9769 20.053 58.0275C20.0927 58.0275 20.1125 58.0781 20.1522 58.0781C20.5488 57.7745 20.9454 57.7745 21.3222 58.1287C21.4809 58.2805 21.6593 58.2299 21.818 58.3818C22.0163 58.5842 22.1948 58.5336 22.3931 58.3312C22.5517 58.1793 22.7302 58.1793 22.8889 58.2805C23.0277 58.3818 23.1467 58.483 23.2656 58.5842C23.5036 58.736 23.7416 58.7866 24.0192 58.7866ZM32.7647 76.2449C32.5664 76.4979 32.4077 76.9027 32.1896 77.1558C32.1698 77.2064 32.1301 77.257 32.1301 77.3582C32.1103 77.4088 32.1103 77.51 32.1301 77.6112C32.1698 77.8642 32.2689 77.9654 32.3681 77.9654C32.5267 77.9654 32.6854 77.763 32.8242 77.6112C33.0027 77.3582 33.0622 76.9027 32.8639 76.4473C32.8242 76.2955 32.8044 76.2955 32.7647 76.2449ZM20.9256 72.6014C20.9256 72.8038 20.9652 72.905 21.0446 72.9556C21.342 73.1075 21.6197 73.0063 21.9171 73.0569C22.1353 73.1075 22.3732 73.0569 22.5914 73.0063C22.6707 73.0063 22.7104 72.8544 22.6905 72.8038C22.6707 72.7532 22.6311 72.7026 22.6112 72.7026C22.3534 72.652 22.0956 72.6014 21.8378 72.652C21.5998 72.7026 21.3817 72.5508 21.1636 72.3484C21.1437 72.2978 21.1041 72.3484 21.0644 72.3484C20.9851 72.2978 20.9454 72.4496 20.9256 72.6014ZM31.6938 74.4738C31.5748 74.4738 31.4162 74.4738 31.2575 74.4738C31.2377 74.4738 31.1782 74.5244 31.1782 74.575C31.1584 74.7268 31.1981 74.8786 31.2575 74.9292C31.3964 75.1316 31.555 75.2834 31.7137 75.1316C31.8921 74.9292 32.1103 75.0304 32.2689 74.7774C32.2888 74.7268 32.2888 74.6762 32.3086 74.6256C32.2888 74.575 32.2491 74.5244 32.2293 74.5244C32.0706 74.5244 31.8921 74.5244 31.6938 74.4738ZM94.8358 8.48643C94.8358 8.58764 94.8557 8.63825 94.8557 8.73945C94.8953 8.94187 94.935 9.19488 94.9945 9.3973C95.0342 9.54911 95.1135 9.59971 95.173 9.49851C95.2325 9.4479 95.2721 9.29609 95.292 9.14428C95.3118 8.89126 95.3118 8.63824 95.2523 8.43583C95.173 8.18281 95.054 8.13221 94.8953 8.33462C94.8755 8.38523 94.8557 8.43583 94.8358 8.48643ZM19.1805 75.6376C19.2399 75.6376 19.3193 75.6377 19.3788 75.587C19.4184 75.587 19.4383 75.5364 19.4581 75.4858C19.4779 75.4352 19.4977 75.3846 19.4977 75.334C19.4779 75.2834 19.4383 75.1822 19.4184 75.1822C19.2003 75.1316 18.9821 74.9798 18.7442 74.9292C18.7243 74.9292 18.6847 75.0304 18.6847 75.081C18.6847 75.1316 18.6847 75.2834 18.7045 75.334C18.8433 75.6883 19.0218 75.587 19.1805 75.6376ZM95.6092 65.8711C95.6687 65.8711 95.7481 65.7699 95.7679 65.6181C95.7679 65.5675 95.7481 65.4663 95.7282 65.3651C95.6489 65.0615 95.5299 64.9097 95.3911 64.9097C95.3118 64.9097 95.2523 64.9603 95.2126 65.0615C95.173 65.1627 95.1928 65.3145 95.2523 65.4663C95.3514 65.7699 95.4704 65.8711 95.6092 65.8711ZM9.72105 29.2846C9.84004 29.2846 9.97885 29.234 10.0978 29.234C10.1177 29.234 10.1573 29.1834 10.1772 29.1328C10.197 29.0822 10.1573 28.9303 10.078 28.9303C9.85987 28.8797 9.64173 28.8797 9.40376 28.8797C9.38393 28.8797 9.34426 28.9303 9.32443 28.9809C9.30461 29.0315 9.28476 29.0822 9.26493 29.1328C9.28476 29.1834 9.30459 29.234 9.34426 29.2846C9.46324 29.3352 9.60206 29.3352 9.72105 29.2846ZM89.5013 86.5175C89.4616 86.5175 89.3823 86.5175 89.3228 86.5681C89.2237 86.5681 89.2038 86.6693 89.2237 86.8717C89.2435 87.0235 89.303 87.1247 89.3625 87.1753C89.4616 87.2259 89.5409 87.0741 89.6401 86.9729C89.6996 86.9223 89.7591 86.8211 89.7789 86.6693C89.7393 86.5681 89.6798 86.5175 89.6004 86.5175C89.6004 86.4669 89.5608 86.4669 89.5013 86.5175ZM82.6199 84.9994C82.4811 85.05 82.4216 85.05 82.3423 85.05C82.3026 85.05 82.263 85.1006 82.263 85.1512C82.2431 85.2524 82.3026 85.3536 82.3819 85.3536C82.5604 85.3536 82.7587 85.5054 82.9372 85.303C82.957 85.303 82.9769 85.2018 82.9769 85.1512C82.957 85.1006 82.9372 84.9994 82.8976 84.9994C82.7786 84.9994 82.6596 84.9994 82.6199 84.9994ZM20.9256 75.6376C20.9851 75.6883 21.0446 75.7895 21.1041 75.8401C21.1239 75.8907 21.1636 75.8907 21.1834 75.8907C21.2429 75.8907 21.3024 75.7895 21.342 75.6376C21.3817 75.4352 21.3619 75.334 21.2825 75.2834C21.1636 75.2834 21.0247 75.2834 20.9058 75.2834C20.8661 75.2834 20.8264 75.334 20.8264 75.334C20.8066 75.4858 20.8463 75.587 20.9256 75.6376ZM25.1298 73.4617C25.2884 73.4617 25.3479 73.4617 25.4074 73.4617C25.4272 73.4617 25.4669 73.4111 25.4867 73.3605C25.5065 73.2593 25.4669 73.2087 25.3876 73.1581C25.2289 73.1581 25.0703 73.1581 24.9116 73.1581C24.8918 73.1581 24.8521 73.2087 24.8323 73.2593C24.8125 73.3099 24.8521 73.4111 24.9513 73.4617C25.0306 73.4617 25.1298 73.4617 25.1298 73.4617ZM3.13716 44.2633C3.21648 44.2633 3.15698 44.2633 3.09749 44.2633C3.01817 44.2633 2.95867 44.3139 2.93884 44.4657C2.91902 44.5669 2.9785 44.7187 3.05782 44.7187C3.21647 44.7187 3.37512 44.7187 3.53377 44.6681C3.61309 44.6681 3.67259 44.5163 3.65276 44.4657C3.61309 44.3139 3.5536 44.3139 3.47428 44.3139C3.41478 44.3139 3.33547 44.3139 3.13716 44.2633ZM66.3585 5.34899C66.418 5.29839 66.4576 5.14658 66.4576 4.99477C66.4576 4.84296 66.418 4.69115 66.3386 4.64054C66.2792 4.58993 66.2197 4.58993 66.1403 4.64054C66.061 4.64054 66.0213 4.74174 66.0412 4.94416C66.0412 4.99477 66.061 5.09597 66.0808 5.14658C66.1602 5.34899 66.2395 5.3996 66.3585 5.34899ZM31.4559 58.6854C31.3964 58.6854 31.3369 58.6854 31.2774 58.736C31.1981 58.7866 31.1584 58.8372 31.1782 58.989C31.1981 59.0396 31.2179 59.1408 31.2377 59.1408C31.317 59.242 31.3964 59.3432 31.4955 59.4444C31.555 59.495 31.6145 59.4444 31.674 59.3432C31.7137 59.242 31.7533 59.0902 31.7335 58.9384C31.674 58.8878 31.6145 58.8372 31.555 58.7866C31.5153 58.6854 31.4757 58.6854 31.4559 58.6854ZM4.40633 44.3139C4.34683 44.3139 4.26752 44.3139 4.20802 44.3645C4.16836 44.3645 4.14853 44.4151 4.1287 44.4657C4.14853 44.5669 4.20802 44.6175 4.26752 44.6175C4.32701 44.6175 4.40634 44.6175 4.46583 44.6175C4.52532 44.6175 4.60464 44.6175 4.6443 44.5163C4.68397 44.4151 4.56497 44.3139 4.40633 44.3139ZM103.304 11.6745C103.185 11.6745 103.046 11.8263 103.086 11.9275C103.125 12.0793 103.185 12.1299 103.244 12.1299C103.304 12.1299 103.363 12.1299 103.423 12.1299C103.482 12.1299 103.561 12.1299 103.601 11.9781C103.621 11.9275 103.561 11.7757 103.482 11.7757C103.443 11.6745 103.383 11.6745 103.304 11.6745ZM96.5611 9.70093C96.462 9.70093 96.3628 9.70092 96.2835 9.90333C96.3628 10.1057 96.462 10.1057 96.5611 10.1564C96.6008 10.1564 96.6206 10.1564 96.6603 10.1564C96.7396 10.1564 96.7991 10.1057 96.8388 9.95394C96.7991 9.80213 96.7396 9.75153 96.6801 9.75153C96.6206 9.75153 96.6008 9.75153 96.5611 9.70093ZM63.4235 5.602C63.3838 5.39959 63.3442 5.19718 63.3045 4.99476C63.2847 4.94416 63.245 4.89355 63.2252 4.89355C63.2053 4.89355 63.1657 4.99476 63.1657 5.04537C63.126 5.34899 63.1459 5.70322 63.245 5.90563C63.3045 6.00683 63.364 5.95623 63.4235 5.85502C63.4235 5.80442 63.4037 5.70321 63.4235 5.602ZM45.4962 82.4692C45.4962 82.4692 45.4367 82.4692 45.3772 82.4692C45.3376 82.4692 45.3178 82.4692 45.2979 82.5198C45.2781 82.5704 45.2384 82.621 45.2186 82.621C45.2384 82.6716 45.2583 82.7728 45.2979 82.7728C45.3971 82.8234 45.4764 82.8234 45.5756 82.8234C45.7144 82.8234 45.8135 82.6716 45.754 82.5704C45.6747 82.5198 45.635 82.4692 45.4962 82.4692ZM22.3138 76.1437C22.4526 76.0931 22.5517 76.0931 22.6509 76.0425C22.6707 76.0425 22.7104 75.9919 22.7302 75.9413C22.7104 75.8907 22.6905 75.8401 22.6905 75.8401C22.5914 75.7895 22.5121 75.7389 22.4129 75.7389C22.3138 75.6883 22.1749 75.8907 22.2146 75.9919C22.2344 76.0931 22.2939 76.1437 22.3138 76.1437ZM101.559 43.15C101.578 43.2006 101.618 43.2512 101.638 43.2512C101.737 43.3018 101.836 43.3018 101.896 43.0994C101.896 43.0994 101.856 42.9476 101.836 42.9476C101.737 42.8464 101.658 42.8464 101.559 42.9982C101.559 42.9982 101.559 43.0994 101.559 43.15ZM23.0872 76.1943C23.107 76.2449 23.107 76.3461 23.1268 76.3967C23.1863 76.5991 23.3648 76.5485 23.3648 76.3967C23.3648 76.2449 23.3251 76.0931 23.2855 75.9919C23.226 75.8907 23.1665 75.8401 23.1268 75.9919C23.107 76.0425 23.107 76.0931 23.0872 76.1943ZM84.6229 85.2524C84.6427 85.303 84.6625 85.4042 84.6823 85.4042C84.7815 85.4548 84.8608 85.4548 84.9402 85.303C84.96 85.2524 84.9798 85.2018 84.9798 85.1512C84.96 84.9994 84.841 84.8982 84.7418 84.9994C84.6625 85.05 84.6229 85.1006 84.6229 85.2524ZM72.6052 87.4283C72.6449 87.5802 72.7044 87.6308 72.7639 87.5802C72.7837 87.5802 72.8036 87.4789 72.8234 87.4283C72.8036 87.3777 72.7837 87.3271 72.7639 87.2765C72.7044 87.2259 72.6449 87.2765 72.6052 87.4283ZM59.1003 86.7199C59.1201 86.7199 59.14 86.6693 59.1796 86.6187C59.1598 86.5681 59.1598 86.5175 59.14 86.4669C59.0607 86.4163 59.021 86.5175 59.0408 86.6187C59.021 86.6693 59.0805 86.7199 59.1003 86.7199ZM25.9627 73.7147C25.9825 73.7653 25.9825 73.8665 26.0023 73.8665C26.0221 73.8665 26.0618 73.8665 26.0817 73.8665C26.1411 73.7653 26.1213 73.6641 26.0222 73.6641C26.0222 73.6641 25.9825 73.7147 25.9627 73.7147ZM88.5891 65.1121C88.5891 65.1627 88.5891 65.2639 88.6089 65.2639C88.6287 65.3145 88.6684 65.3145 88.708 65.3145C88.7874 65.2133 88.7874 65.1121 88.6882 65.0615C88.6486 65.0615 88.6089 65.1121 88.5891 65.1121ZM27.7078 58.4324C27.7276 58.483 27.7475 58.5336 27.7673 58.5842C27.8268 58.6348 27.8863 58.5842 27.9259 58.4324C27.9259 58.4324 27.8863 58.3312 27.8664 58.2806C27.807 58.2299 27.7475 58.2805 27.7078 58.4324ZM102.193 41.8849C102.173 41.9355 102.134 41.9355 102.114 41.9861C102.134 42.0368 102.153 42.0874 102.193 42.138C102.272 42.1886 102.312 42.0874 102.292 41.9861C102.272 41.9355 102.233 41.9355 102.193 41.8849ZM36.4136 5.70322C36.4334 5.75382 36.4533 5.80441 36.4731 5.85502C36.5326 5.90563 36.5921 5.85503 36.6119 5.70322C36.6119 5.70322 36.5723 5.60201 36.5524 5.5514C36.4929 5.50079 36.4533 5.55141 36.4136 5.70322ZM21.7585 75.9919L21.7981 75.8907L21.7386 75.8907L21.7585 75.9919Z" fill="#00659E"/>
<g clip-path="url(#clip0)">
<path d="M78.8512 18.3439H48.7415C47.9145 18.3439 47.1214 18.6997 46.5366 19.3329C45.9518 19.9661 45.6233 20.825 45.6233 21.7205V34.4041H30.1182C29.2917 34.4059 28.4995 34.7622 27.9151 35.3951C27.3307 36.0279 27.0016 36.8857 27 37.7807V59.201C27.0016 60.096 27.3307 60.9538 27.9151 61.5866C28.4995 62.2195 29.2917 62.5758 30.1182 62.5776H36.0666L35.9196 67.8447C35.9135 68.0492 35.958 68.2518 36.0484 68.4314C36.1389 68.611 36.2721 68.7612 36.4342 68.8663C36.602 68.9554 36.7864 69.0016 36.9733 69.0016C37.1601 69.0016 37.3445 68.9554 37.5124 68.8663L48.0125 62.551H60.4729C60.8824 62.551 61.2879 62.4637 61.6662 62.294C62.0445 62.1243 62.3883 61.8756 62.6778 61.562C62.9674 61.2485 63.197 60.8763 63.3538 60.4666C63.5105 60.0569 63.5911 59.6179 63.5911 59.1745V49.0978H65.3922L73.6992 55.4397C73.8651 55.5466 74.052 55.6096 74.2447 55.6234C74.4374 55.6373 74.6304 55.6016 74.808 55.5193C74.9897 55.4286 75.1438 55.2837 75.2523 55.1016C75.3608 54.9195 75.4192 54.7077 75.4206 54.4911V49.0978H78.8818C79.7088 49.0978 80.5019 48.7421 81.0867 48.1089C81.6715 47.4756 82 46.6168 82 45.7213V21.7205C82 21.2743 81.9184 20.8325 81.7597 20.4206C81.6011 20.0088 81.3687 19.6351 81.0759 19.3211C80.7831 19.0071 80.4357 18.7591 80.0539 18.5914C79.672 18.4236 79.2632 18.3395 78.8512 18.3439ZM61.447 59.201C61.447 59.4807 61.3444 59.749 61.1617 59.9468C60.979 60.1446 60.7313 60.2558 60.4729 60.2558H47.7062C47.5241 60.2568 47.3451 60.307 47.1855 60.4017L38.1005 65.8679L38.223 61.4498C38.2261 61.2932 38.1995 61.1376 38.1447 60.9927C38.0899 60.8477 38.0081 60.7166 37.9044 60.6073C37.8041 60.4957 37.6841 60.407 37.5515 60.3466C37.4189 60.2862 37.2764 60.2553 37.1325 60.2558H30.1182C29.8598 60.2558 29.6121 60.1446 29.4294 59.9468C29.2468 59.749 29.1441 59.4807 29.1441 59.201V37.7807C29.1457 37.5015 29.2489 37.2342 29.4312 37.0368C29.6135 36.8394 29.8603 36.7277 30.1182 36.7259H45.6233V45.7213C45.6233 46.6168 45.9518 47.4756 46.5366 48.1089C47.1214 48.7421 47.9145 49.0978 48.7415 49.0978H61.447V59.201ZM79.8252 45.7213C79.8252 46.001 79.7226 46.2693 79.5399 46.4671C79.3573 46.6649 79.1095 46.776 78.8512 46.776H74.3179C74.0336 46.776 73.7609 46.8983 73.5598 47.1161C73.3588 47.3338 73.2458 47.629 73.2458 47.9369V52.2489L66.354 46.9883C66.1747 46.8513 65.9608 46.7772 65.7414 46.776H48.7415C48.4831 46.776 48.2354 46.6649 48.0527 46.4671C47.8701 46.2693 47.7674 46.001 47.7674 45.7213V21.7205C47.7642 21.5797 47.7869 21.4397 47.8344 21.3087C47.8819 21.1776 47.9531 21.0582 48.0439 20.9574C48.1347 20.8567 48.2432 20.7766 48.363 20.7219C48.4828 20.6673 48.6115 20.6391 48.7415 20.6392H78.8512C79.1095 20.6392 79.3573 20.7503 79.5399 20.9481C79.7226 21.1459 79.8252 21.4142 79.8252 21.6939V45.7213Z" fill="white"/>
<path d="M55.8717 30.5425C55.4378 30.5425 55.0136 30.6712 54.6528 30.9122C54.292 31.1533 54.0108 31.496 53.8447 31.8968C53.6787 32.2977 53.6352 32.7389 53.7199 33.1645C53.8045 33.59 54.0135 33.981 54.3203 34.2878C54.6272 34.5946 55.0181 34.8036 55.4437 34.8882C55.8693 34.9729 56.3104 34.9294 56.7113 34.7634C57.1122 34.5973 57.4548 34.3161 57.6959 33.9553C57.937 33.5945 58.0657 33.1704 58.0657 32.7364C58.0657 32.4483 58.0089 32.163 57.8987 31.8968C57.7884 31.6307 57.6268 31.3888 57.4231 31.1851C57.2193 30.9813 56.9775 30.8197 56.7113 30.7095C56.4451 30.5992 56.1598 30.5425 55.8717 30.5425Z" fill="white"/>
<path d="M64.6297 30.5425C64.1955 30.5413 63.7707 30.6689 63.4092 30.9093C63.0476 31.1496 62.7654 31.4919 62.5984 31.8927C62.4315 32.2934 62.3871 32.7348 62.4711 33.1608C62.5551 33.5867 62.7636 33.9782 63.0701 34.2857C63.3767 34.5931 63.7677 34.8027 64.1934 34.8878C64.6192 34.9729 65.0606 34.9299 65.4618 34.764C65.8631 34.5981 66.2061 34.3169 66.4474 33.956C66.6888 33.595 66.8176 33.1706 66.8176 32.7364C66.8184 32.4486 66.7624 32.1635 66.6528 31.8973C66.5432 31.6312 66.3822 31.3893 66.1789 31.1854C65.9757 30.9816 65.7342 30.8199 65.4684 30.7096C65.2025 30.5993 64.9175 30.5425 64.6297 30.5425Z" fill="white"/>
<path d="M73.3865 30.5425C72.9523 30.5413 72.5276 30.6689 72.166 30.9093C71.8044 31.1496 71.5223 31.4919 71.3553 31.8927C71.1883 32.2934 71.144 32.7348 71.2279 33.1608C71.3119 33.5867 71.5204 33.9782 71.827 34.2857C72.1336 34.5931 72.5245 34.8027 72.9502 34.8878C73.376 34.9729 73.8174 34.9299 74.2187 34.764C74.6199 34.5981 74.9629 34.3169 75.2043 33.956C75.4456 33.595 75.5744 33.1706 75.5744 32.7364C75.5752 32.4486 75.5192 32.1635 75.4096 31.8973C75.3 31.6312 75.139 31.3893 74.9358 31.1854C74.7325 30.9816 74.4911 30.8199 74.2252 30.7096C73.9594 30.5993 73.6744 30.5425 73.3865 30.5425Z" fill="white"/>
</g>
<defs>
<clipPath id="clip0">
<rect width="55" height="55" fill="white" transform="translate(27 14)"/>
</clipPath>
</defs>
</svg>
