<svg width="1920" height="99" viewBox="0 0 1920 99" fill="none" xmlns="http://www.w3.org/2000/svg">
<path d="M328.033 42.7777C325.1 42.7777 322.167 42.6775 319.234 42.3769C313.367 41.2745 308.035 40.4727 301.635 40.6732C266.039 41.2745 229.909 42.0762 194.313 42.1764C148.585 42.3769 102.989 43.8802 56.8608 44.0806C38.8627 44.0806 21.2645 44.9826 3.13305 45.4837C2.46645 45.4837 0.666593 45.4837 -4.6698e-06 45.5839L0 99.0002L1920 99L1920 14.6163C1919.47 14.5161 1919.07 14.4159 1918.53 14.3156C1915.6 13.7143 1912.67 14.015 1909.73 13.9148C1893.87 13.8145 1878 13.8145 1862.01 13.9148C1858.27 13.8146 1854.01 14.1152 1850.27 13.2132C1841.61 11.3091 1832.81 11.4093 1823.48 11.6098C1806.68 11.6098 1789.48 11.71 1772.82 11.71C1767.75 11.6098 1762.82 11.8102 1758.15 10.808C1752.28 9.70562 1746.42 9.40497 1740.55 9.30475C1728.42 9.20453 1716.69 9.30476 1704.56 9.10432C1700.82 9.10432 1696.56 9.00409 1692.82 8.40278C1686.16 6.99973 1679.09 6.99973 1672.43 6.89951C1657.36 6.69908 1642.7 6.7993 1627.63 6.89952C1619.63 6.7993 1611.77 6.69909 1603.77 5.29603C1599.23 4.49429 1593.77 4.39407 1589.1 4.59451C1576.17 4.69473 1563.1 4.79494 1550.17 5.19582C1546.04 5.0956 1542.17 5.5967 1538.44 6.59888C1530.84 9.10433 1523.24 9.5052 1515.78 6.79931C1513.24 5.99757 1509.91 5.69691 1506.98 5.69691C1501.91 5.59669 1496.98 5.79713 1491.91 5.49647C1488.98 5.49647 1485.65 5.39627 1483.11 4.59452C1475.65 2.69038 1467.65 2.89081 1459.78 2.79059C1435.92 2.99103 1412.05 3.19146 1388.06 3.49212C1380.06 3.69256 1372.19 3.59234 1364.19 1.88864C1361.26 1.38755 1358.33 1.28733 1355.39 1.28733C1331.79 1.78842 1307.93 1.78842 1284.07 1.78842C1262.34 1.78843 1240.47 2.79061 1218.34 2.79061C1209.54 2.69039 1200.34 2.79061 1191.54 1.18712C1188.61 0.686031 1185.68 0.585819 1182.74 0.585819C1163.95 0.0847296 1145.01 0.0847282 1125.82 0.385384C1091.02 0.986696 1056.22 2.38975 1021.43 2.18932C1017.69 2.18932 1013.43 2.5902 1009.69 2.5902C992.897 2.89085 975.698 3.49216 959.033 3.29173C946.102 3.09129 933.036 3.19151 920.104 3.59239C899.973 3.89304 880.242 4.09348 860.244 4.39414C856.111 4.39414 852.245 4.29391 848.512 3.69261C846.379 3.39195 844.779 3.19152 842.646 3.59239C834.646 5.2961 827.047 4.6948 819.181 3.09131C814.649 2.28956 809.582 1.98891 805.05 0.585852C800.917 -0.716984 797.05 0.285194 794.517 2.28956C791.051 5.09567 786.785 5.79719 781.452 5.69698C775.586 5.59676 769.72 5.7972 763.854 4.6948C757.988 3.5924 752.122 2.99109 746.389 2.18934C744.256 1.88869 742.656 1.58804 740.523 2.08913C735.857 3.29175 730.791 3.79283 725.858 3.99327C712.926 4.09349 699.86 4.19371 686.928 4.29393C683.995 4.29393 681.062 4.19371 678.129 4.19371C670.53 4.59459 666.397 4.59458 660.798 9.90615C659.465 11.209 657.865 11.6099 655.732 11.1088C648.266 9.70572 640.8 8.10222 632.401 8.5031C626.135 8.90397 620.669 7.60113 616.136 4.99546C614.136 3.69262 611.203 3.09132 608.137 4.39416C607.337 4.69481 606.404 4.89525 605.604 5.09569C602.671 5.79722 599.738 6.09786 596.805 5.1959C589.339 3.29176 581.873 2.49002 573.474 2.59024C553.342 2.89089 533.611 2.89089 513.48 3.09133C508.414 2.99111 503.481 2.49002 498.948 1.38762C496.015 0.585876 493.082 0.786316 490.149 1.58806C481.617 3.9933 472.951 3.89308 463.752 2.28959C461.619 1.98893 460.019 1.48784 457.886 1.48784C455.753 1.48784 453.753 1.18719 452.02 1.68828C448.287 2.3898 444.421 3.69265 440.554 4.09352C429.622 4.69483 418.69 4.89526 407.891 3.19155C397.092 1.48785 386.16 1.68828 375.628 3.79287C365.095 5.99767 354.163 6.09789 343.364 4.19374C337.498 3.09134 331.632 3.29178 325.766 3.9933C324.966 3.9933 324.033 4.49439 322.833 4.49439C320.7 4.69483 319.1 5.19592 316.967 5.49658C313.634 5.99767 310.701 4.89528 309.101 3.59244C304.968 -0.0154128 299.636 -0.316072 293.236 0.285237C291.103 0.485674 289.503 0.786329 287.37 1.28742C279.771 3.29178 271.772 3.8931 264.173 4.09354C258.307 4.29397 252.44 4.49441 246.174 4.39419C214.311 3.99332 182.448 4.69485 150.584 5.79725C145.518 5.99769 140.585 5.89747 135.519 5.59682C133.786 5.59682 131.386 4.79507 130.587 3.99332C127.387 0.585903 123.121 0.786348 118.055 2.08918C110.455 3.79289 102.456 3.69268 94.8569 5.59682C89.3908 7.1001 83.1248 6.69922 77.2588 5.39639C72.326 4.29399 67.6597 3.99333 62.9935 5.4966C59.6605 6.49878 55.3943 7.20031 51.6614 7.40074C48.7283 7.60118 45.7953 7.60118 42.8623 7.50097C28.9971 7.7014 13.8652 7.90184 -7.93778e-06 8.2025L-5.12539e-06 40.3725C7.06593 41.2745 15.3984 40.9738 22.4644 41.0741C27.5305 41.1743 32.1967 40.1721 36.7296 39.1699C41.3958 37.9673 46.462 37.7669 51.3948 38.8693C56.4609 39.671 60.9937 40.2723 65.6599 39.0697C69.5262 38.0675 73.2592 37.6666 77.3921 37.6666C83.2581 37.4662 89.1242 37.5664 95.3903 37.366L95.3903 37.0653C100.456 36.8649 105.389 36.9651 110.455 36.7647C115.521 36.5642 120.454 36.8649 125.12 37.9673C128.053 38.4684 130.987 37.7669 133.92 37.5664C136.053 37.366 138.186 36.8649 139.786 37.366C148.451 39.7712 157.384 39.0697 166.183 38.9695C192.18 38.769 218.177 38.5686 243.775 38.1677C256.707 38.0675 269.772 37.1655 282.304 37.366C295.236 37.5664 308.301 37.4662 321.233 37.5664C324.166 37.5664 327.099 37.867 329.499 39.1699C331.099 40.1721 331.899 41.2745 330.699 41.976C329.632 42.4771 328.833 42.7777 328.033 42.7777ZM576.673 12.0107C581.34 10.8081 586.006 10.6077 590.938 11.4094C593.072 11.7101 593.872 13.0129 594.271 14.0151C594.271 15.3179 593.338 16.3201 591.605 16.8212C589.072 17.5227 585.739 17.5227 583.206 17.0216C579.873 16.2199 576.54 15.1175 573.207 14.3158C573.607 13.3136 574.94 12.3114 576.673 12.0107ZM487.349 26.0413C488.283 25.5402 488.682 25.0391 489.482 24.7385C496.282 22.0326 503.481 19.8278 511.48 19.6273C518.679 19.4269 525.345 19.3267 531.745 17.0217C532.545 16.8212 533.878 16.5206 534.678 16.5206C541.744 17.623 548.143 14.6164 555.209 14.7166C561.075 14.8169 566.941 14.3158 572.807 14.2155C573.207 15.2177 573.607 16.2199 574.007 17.3223C574.807 18.6251 578.007 20.7297 580.14 20.7297C583.073 20.7297 586.006 21.0304 588.939 21.1306C599.871 21.0304 610.67 20.9302 621.602 20.7297C625.735 20.7297 629.601 21.331 633.334 22.4334C642 25.1393 650.799 24.1371 659.331 22.7341C664.398 20.7297 670.264 20.3288 676.53 20.1284C687.462 20.0282 698.394 19.8277 709.193 19.5271C716.259 19.3267 722.925 20.7297 729.191 22.8343C731.724 23.636 731.991 25.6404 729.857 27.4443C728.524 28.4465 726.924 28.9476 724.791 29.4487C721.058 30.1502 716.792 30.3507 713.059 29.8496C710.126 29.5489 707.193 29.0478 704.26 28.4465C699.727 27.3441 694.661 26.5424 689.595 26.7428C671.597 27.0435 653.599 27.0435 636 27.3441C630.934 27.5446 625.868 28.2461 621.735 29.4487C619.602 29.9498 617.869 30.1502 615.869 29.3485C611.336 28.0456 606.27 27.9454 601.338 27.3441C585.872 25.1393 585.872 25.1393 575.073 25.2395C572.14 25.2395 568.807 25.44 566.274 24.8387C560.008 23.2352 555.076 23.6361 550.276 26.6426C548.943 27.4443 546.543 27.3441 544.81 27.6448C544.01 27.6448 542.677 27.3441 541.877 27.3441C536.811 26.5424 532.278 26.4422 527.212 27.6448C525.479 28.1459 523.479 28.647 521.746 28.8474C519.613 29.0478 518.013 29.3485 515.88 29.2483C515.08 29.2483 513.747 29.2483 512.947 28.9476C509.214 28.647 505.481 26.843 501.215 27.2439C497.482 27.745 493.615 28.647 489.882 29.1481C489.083 29.4487 487.749 29.1481 487.349 28.647C485.616 28.3463 485.616 27.3441 487.349 26.0413ZM171.916 27.0435C160.983 27.6448 150.051 28.3463 139.252 28.1459C124.187 27.9455 109.522 28.5468 93.1237 28.8474C74.7256 29.6492 54.9945 29.4487 35.2632 30.4509C31.5302 30.6514 27.2639 30.3507 23.531 30.3507C22.7311 30.3507 20.9979 29.8496 20.9979 29.549C20.598 28.5468 21.9312 27.5446 24.0643 27.244C27.7973 26.5424 31.6635 25.8409 34.9965 24.8387C37.5295 24.1372 40.4626 23.3354 43.3956 23.4357C50.0616 23.2352 57.2607 23.135 64.3267 23.135C66.4598 23.135 68.4596 23.4357 70.1927 23.9367C75.1256 25.5402 79.7919 25.3398 84.0581 23.6361C86.5912 22.6339 89.924 22.4335 92.457 23.5359C96.9899 24.8387 101.656 25.9411 106.589 25.7407C119.521 25.44 132.186 25.0391 145.118 24.9389C153.917 24.8387 163.117 24.9389 171.916 25.5402C172.716 25.5402 173.649 26.0413 174.448 26.342C173.649 26.5424 172.716 27.0435 171.916 27.0435ZM232.309 26.0413C220.577 26.9433 208.845 27.0435 197.113 27.4444C194.18 27.4444 191.247 27.3441 188.847 26.0413C188.047 25.7407 192.713 24.3376 196.046 24.3376C196.846 24.3376 198.179 24.3376 198.979 24.3376C204.046 24.1372 209.112 24.2374 214.444 24.037C219.91 24.1372 225.777 24.1372 231.643 24.538C232.442 24.538 233.376 25.0391 234.176 25.3398C233.509 25.5402 233.109 26.0413 232.309 26.0413ZM435.221 40.9738C412.957 41.7756 394.959 41.976 382.027 41.5751C381.227 41.5751 380.827 41.074 380.027 40.7734C380.827 40.4727 381.76 39.9716 382.56 39.7712C390.559 39.3703 398.558 38.9694 406.424 38.769C416.023 39.671 425.756 37.7668 435.755 39.3703C436.555 39.3703 436.955 39.8714 437.888 40.1721C437.355 40.4727 436.555 40.9738 435.221 40.9738ZM310.434 29.0478C307.501 29.0478 304.168 29.2483 301.635 28.647C296.703 27.5446 292.036 28.5468 286.97 28.9476C283.637 29.4487 279.104 27.8452 276.971 25.7407C275.371 24.2374 274.971 22.4335 275.105 20.6295C274.705 18.8256 277.371 16.6208 279.904 16.3202C285.77 15.6186 291.636 15.2177 297.102 17.0217C304.568 19.4269 312.567 19.2265 319.767 17.0217C324.433 15.8191 329.099 15.318 334.032 16.9214C334.832 17.2221 335.632 17.4225 336.965 17.4225C342.031 18.2243 346.964 18.6252 351.63 17.3223C360.029 15.1175 368.562 13.9149 377.761 14.3158C379.894 14.3158 381.894 14.1153 383.627 14.1153C387.76 14.1153 391.626 14.5162 394.826 16.3201C400.158 19.2265 406.824 20.3289 414.024 19.928C416.157 19.7276 417.757 19.928 419.89 20.0282C424.023 20.0282 427.756 20.9302 431.088 21.9324C434.022 23.0348 436.955 23.0348 439.488 22.0326C445.887 19.8278 452.553 19.4269 459.619 20.0282C461.352 20.0282 463.352 20.8299 464.952 21.331C466.685 21.8321 468.285 22.9345 468.151 24.1372C468.551 25.1393 467.218 26.1415 465.085 26.6426C461.352 27.3441 457.486 28.0457 453.62 29.0478C448.553 30.2505 443.887 29.9498 439.354 28.647C436.421 27.8452 433.888 27.8452 430.955 28.5467C429.222 29.0478 427.222 29.0478 425.489 29.5489C416.823 27.4443 407.891 28.0457 399.092 28.2461C369.495 28.7472 339.765 28.3463 310.434 29.0478Z" fill="#00659E"/>
</svg>
