<svg width="98" height="31" viewBox="0 0 98 31" fill="none" xmlns="http://www.w3.org/2000/svg">
<path d="M28.3641 0.903521C28.2491 0.797222 28.0958 0.637779 28.0192 0.531483C27.9425 0.425186 27.6742 0.265739 27.7125 0.372036C27.7509 0.478333 27.9042 0.690928 27.9425 0.797224C27.9808 0.850372 27.7892 1.00982 27.7892 1.11611C27.7892 1.11611 27.7892 1.11611 27.7509 1.16926C27.6359 1.22241 27.6359 1.22241 27.6359 1.22241C27.5592 1.38186 27.4825 1.5413 27.4442 1.59445C27.4059 1.6476 27.2909 1.48815 27.2526 1.38186C27.2526 1.38186 27.2526 1.38186 27.2526 1.27556C27.2526 1.22241 27.2526 1.22241 27.2526 1.22241C27.2526 1.16926 27.2526 1.00982 27.1759 0.850372C27.1376 0.690928 27.0992 0.31889 27.0992 0.265741C27.0609 0.265741 27.0226 0.265739 26.9843 0.318888C26.9459 0.372036 26.8693 0.531483 26.7926 0.584631C26.7159 0.637779 26.9843 0.797224 26.9843 0.850372C27.0226 0.903521 27.0226 1.00982 26.9076 0.903521C26.7926 0.797222 26.5626 1.06297 26.5243 1.00982C26.486 1.00982 26.5243 0.744076 26.5626 0.690928C26.5626 0.690928 26.5626 0.690926 26.5626 0.637777C26.5626 0.584629 26.5626 0.584631 26.5626 0.584631C26.5626 0.531483 26.4476 0.478333 26.2943 0.478333C26.2943 0.478333 26.2943 0.478333 26.1793 0.478333C26.141 0.478333 26.141 0.478333 26.141 0.478333C26.141 0.318888 26.0643 0.212591 26.0643 0.212591C26.026 0.212591 25.8727 0.212591 25.7577 0.212591C25.7194 0.372036 25.7194 0.372036 25.7194 0.372036C25.8344 0.372036 25.911 0.478334 25.8727 0.531483C25.8344 0.584631 25.7577 0.744074 25.681 0.637777C25.6044 0.531481 25.3744 0.318888 25.2977 0.318888C25.1828 0.318888 24.9528 0.318888 24.9144 0.318888C24.9144 0.318888 24.9528 0.372036 25.0294 0.372036C25.1061 0.372036 25.2977 0.478333 25.2977 0.584631C25.2977 0.690928 25.5661 0.797224 25.6427 0.797224C25.681 0.797224 25.8344 0.903521 25.8727 0.903521C25.8727 0.903521 25.8727 0.903521 25.8727 0.956669C25.8727 1.00982 25.8344 1.06297 25.796 1.06297C25.5277 0.956671 25.2594 0.850372 24.9911 0.850372C24.7995 0.850372 24.7995 0.850372 24.7995 0.850372C24.7228 0.690928 24.6078 0.531481 24.5311 0.478333C24.4545 0.425184 24.3778 0.637777 24.3778 0.637777C24.3395 0.637777 24.2245 0.744076 24.1862 0.744076C24.1478 0.744076 23.9945 0.903521 24.0329 0.903521C24.0712 0.903521 24.1862 1.00982 24.2245 0.956669C24.2245 0.956669 24.2245 0.956669 24.2245 0.903521C24.3012 0.690926 24.3012 0.690928 24.3012 0.690928C24.4545 0.744076 24.6078 0.744076 24.6078 0.797224C24.6461 0.797224 24.6845 0.956669 24.6845 1.00982C24.6845 1.06297 24.4928 1.22241 24.4162 1.22241C24.3395 1.59445 24.1862 1.38186 24.1478 1.27556C24.0712 1.06297 23.8795 1.00982 23.7645 0.903521C23.6496 0.797222 23.6496 0.797224 23.6496 0.797224C23.5729 0.637779 23.4962 0.584631 23.4962 0.690928C23.4962 0.690928 23.4962 0.690928 23.4962 0.744076C23.4962 0.850372 23.4962 0.850372 23.4962 0.850372C23.3812 0.903521 23.1896 1.06297 23.0746 1.11611C23.0746 1.11611 23.0746 1.11612 23.0746 1.22241C23.0363 1.43501 22.9213 1.435 22.7296 1.435C22.653 1.435 22.5763 1.5413 22.538 1.5413C22.4997 1.5413 22.4613 1.38186 22.423 1.32871C22.3463 1.32871 22.3463 1.27556 22.423 1.22241C22.4997 1.16926 22.5763 1.00982 22.538 0.956669C22.4997 0.903521 22.1164 1.11611 22.1547 1.16926C22.1547 1.16926 22.1547 1.16926 22.193 1.22241C22.2697 1.43501 22.1547 1.5413 22.0014 1.435C21.848 1.38186 21.8097 1.48815 21.7331 1.5413C21.6181 1.5413 21.6181 1.5413 21.6181 1.5413C21.5031 1.5413 21.2348 1.48815 21.0815 1.435C21.0815 1.435 21.0815 1.43501 21.0048 1.48815C20.8898 1.5413 20.8898 1.5413 20.8898 1.5413C20.7748 1.5413 20.6215 1.48815 20.5448 1.435C20.4682 1.38186 20.1615 1.5413 20.0849 1.5413C20.0082 1.5413 19.8549 1.5413 19.7782 1.5413C19.7016 1.5413 19.4333 1.59445 19.3566 1.48815C19.2799 1.38186 18.9733 1.32871 18.8583 1.48815C18.8583 1.48815 18.8583 1.48815 18.6667 1.435C18.5517 1.38186 18.5517 1.38186 18.5517 1.38186C18.3984 1.38186 18.2067 1.435 18.0534 1.435C17.9384 1.435 17.5551 1.32871 17.4018 1.27556C17.2485 1.22241 16.7502 1.32871 16.5969 1.32871C16.5969 1.32871 16.5969 1.32871 16.4052 1.435C16.1369 1.6476 16.1369 1.6476 16.1369 1.6476C15.9069 1.59445 15.6386 1.48815 15.6003 1.48815C15.5619 1.48815 15.332 1.48815 15.217 1.48815C15.102 1.48815 14.7953 1.435 14.757 1.435C14.757 1.48815 14.6804 1.5413 14.642 1.48815C14.6037 1.43501 14.4504 1.38186 14.412 1.435C14.412 1.435 14.412 1.43501 14.3737 1.48815C14.3354 1.5413 14.3354 1.5413 14.3354 1.5413C14.2971 1.5413 14.2204 1.5413 14.1821 1.48815C14.1437 1.43501 14.0671 1.38186 14.0287 1.435C13.9904 1.48815 13.8371 1.38186 13.8371 1.38186C13.7988 1.38186 13.6454 1.32871 13.4921 1.27556C13.4921 1.27556 13.4921 1.27556 13.3388 1.32871C13.2621 1.38186 13.1855 1.38186 13.1088 1.435C13.0322 1.48815 12.9555 1.6476 12.8022 1.48815C12.8022 1.48815 12.7255 1.48815 12.6872 1.5413C12.5339 1.70075 12.4956 1.75389 12.3422 1.48815C12.2656 1.32871 12.2656 1.32871 12.2656 1.32871C12.1889 1.5413 12.1123 1.70075 12.0739 1.6476C12.0356 1.59445 11.9206 1.48815 11.9206 1.5413C11.9206 1.59445 11.8056 1.75389 11.729 1.75389C11.6523 1.75389 11.499 1.59445 11.4606 1.5413C11.4223 1.48815 11.3073 1.59445 11.269 1.5413C11.269 1.48815 11.2307 1.48815 11.2307 1.59445C11.2307 1.70075 11.0007 1.5413 11.0007 1.48815C10.8474 1.43501 10.8474 1.75389 10.6557 1.6476C10.5407 1.59445 10.5407 1.59445 10.5407 1.59445C10.3874 1.59445 10.2341 1.59445 10.1958 1.59445C10.1574 1.59445 10.0041 1.5413 9.88912 1.5413C9.77413 1.5413 9.50582 1.6476 9.42916 1.5413C9.42916 1.5413 9.42916 1.5413 9.3525 1.48815C9.31417 1.43501 9.31417 1.435 9.31417 1.435C9.23751 1.435 9.12252 1.5413 9.04586 1.59445C8.9692 1.6476 8.5859 1.48815 8.54757 1.5413C8.50924 1.59445 8.35592 1.70075 8.31759 1.6476C8.27926 1.59445 8.08761 1.70075 8.08761 1.70075C8.08761 1.70075 8.08761 1.70075 8.04928 1.6476C8.01095 1.59445 8.01095 1.5413 7.97262 1.5413C7.89596 1.5413 7.74264 1.48815 7.74264 1.6476C7.74264 1.70075 7.74264 1.70075 7.74264 1.70075C7.85763 1.75389 7.89596 1.86019 7.85763 1.86019C7.8193 1.91334 7.66598 1.91334 7.62765 1.86019C7.58932 1.80704 7.436 1.6476 7.436 1.80704C7.436 1.80704 7.436 1.80704 7.436 1.86019C7.436 1.91334 7.39767 1.96649 7.39767 1.96649C7.32101 1.96649 7.32101 1.96649 7.32101 1.96649C7.24435 1.96649 7.16769 2.01964 7.20602 2.12593C7.20602 2.12593 7.20602 2.12593 7.0527 2.07278C7.01437 2.07278 7.01437 2.07278 7.01437 2.07278C6.97604 2.01964 6.89938 2.01964 6.78439 2.07278C6.6694 2.17908 6.28611 2.17908 6.20945 2.17908C6.09446 2.17908 5.78782 2.33853 5.67283 2.33853C5.59617 2.33853 5.36619 2.28538 5.32786 2.39168C5.28953 2.49797 4.90623 2.60427 4.8679 2.55112C4.63792 2.87001 4.63792 2.87001 4.63792 2.87001C4.29295 2.92316 4.02464 2.97631 3.98631 2.97631C3.94798 2.97631 3.79466 2.97631 3.67967 2.97631C3.56468 2.97631 3.06639 2.92316 2.87474 2.92316C2.87474 2.92316 2.87474 2.92316 2.83641 3.24205C2.83641 3.2952 2.75975 3.34835 2.72142 3.2952C2.60643 3.24205 2.60643 3.24205 2.60643 3.24205C2.49144 3.2952 2.33812 3.4015 2.33812 3.45465C2.29979 3.50779 2.10814 3.61409 2.03149 3.61409C1.95483 3.61409 1.76318 3.77353 1.72485 3.72039C1.68652 3.72039 1.60986 3.72038 1.57153 3.82668C1.57153 3.82668 1.57153 3.82668 1.5332 3.87983C1.49487 3.93298 1.41821 3.93298 1.37988 3.87983C1.22656 3.77353 1.07324 3.77353 0.996578 3.77353C0.766598 3.77353 0.881588 3.87983 0.881588 3.98613C0.881588 4.03928 0.766598 4.14557 0.919918 4.14557C0.996578 4.14557 1.07324 4.19872 1.1499 4.25187C1.22656 4.30502 1.22656 4.35817 1.1499 4.41132C1.07324 4.46446 1.07324 4.46446 1.07324 4.46446C1.1499 4.51761 1.26489 4.67706 1.37988 4.78335C1.49487 4.88965 1.57153 5.26169 1.49487 5.31484C1.49487 5.31484 1.49487 5.31484 1.41821 5.31484C1.34155 5.31484 1.34155 5.31484 1.34155 5.31484C1.26489 5.26169 1.11157 5.26169 1.03491 5.31484C0.958248 5.36799 0.958248 5.84632 0.996578 6.00577C1.03491 6.16521 1.11157 6.6967 1.07324 6.6967C1.07324 6.6967 0.958248 6.64355 0.881588 6.53725C0.881588 6.53725 0.881588 6.53725 0.766598 6.6967C0.728268 6.80299 0.728268 6.80299 0.728268 6.80299C0.728268 6.90929 0.804928 7.01559 0.843258 7.12188C0.843258 7.12188 0.843258 7.12188 0.766598 7.17503C0.728268 7.17503 0.728268 7.17503 0.728268 7.17503C0.613279 7.12188 0.536619 7.12188 0.574949 7.22818C0.574949 7.22818 0.574949 7.22818 0.574949 7.28133C0.574949 7.49392 0.574949 7.49392 0.574949 7.49392C0.498289 7.70652 0.421629 7.97226 0.421629 8.02541C0.421629 8.1317 0.536619 8.45059 0.689938 8.50374C0.843258 8.55689 0.843258 9.08838 0.728268 9.03523C0.728268 9.03523 0.728268 9.03522 0.651609 8.98208C0.574949 8.92893 0.574949 8.92893 0.574949 8.92893C0.498289 8.87578 0.344969 8.98208 0.229979 9.14152C0.229979 9.14152 0.229979 9.14152 0.268309 9.30097C0.268309 9.35412 0.268309 9.40726 0.306639 9.46041C0.421629 9.61986 0.498289 9.72616 0.574949 9.83245C0.651608 9.93875 0.728268 9.67301 0.804928 9.83245C0.804928 9.8856 0.804928 9.8856 0.804928 9.8856C0.881588 9.8856 0.881588 9.93875 0.766598 9.9919C0.766598 9.9919 0.766598 9.9919 0.766598 10.045C0.766598 10.0982 0.804928 10.2045 0.843258 10.2576C0.881588 10.3108 0.919918 10.3108 0.958248 10.3108C1.11157 10.4171 1.11157 10.6828 1.03491 10.6828C0.919918 10.736 0.881588 10.7891 0.843258 10.8954C0.804928 10.9486 0.804928 10.9486 0.804928 10.9486C0.651608 10.9486 0.651608 11.0549 0.843258 11.108C1.03491 11.1612 1.49487 11.4801 1.72485 11.3206C1.72485 11.3206 1.72485 11.3206 1.99316 11.3738C2.03149 11.3738 2.14647 11.2675 2.1848 11.1612C2.22313 10.9486 2.22313 10.9486 2.22313 10.9486C2.33812 11.0017 2.41478 11.1612 2.37645 11.2675C2.37645 11.2675 2.37645 11.2675 2.37645 11.3738C2.41478 11.6395 2.45311 11.9052 2.49144 12.171C2.49144 12.2241 2.49144 12.2241 2.49144 12.2241C2.64476 12.2773 2.72142 12.3836 2.75975 12.3836C2.79808 12.3836 2.91307 12.543 2.9514 12.543C3.02806 12.543 3.21971 12.5962 3.25804 12.5962C3.29637 12.5962 3.37303 12.7025 3.41136 12.7556C3.44969 12.8088 3.60301 12.6493 3.60301 12.5962C3.64134 12.5962 3.75633 12.543 3.75633 12.6493C3.75633 12.7556 3.87132 12.9682 3.94798 12.8619C4.02464 12.8088 4.25462 12.9151 4.25462 12.9682C4.25462 12.9682 4.21629 13.0745 4.29295 13.1277C4.29295 13.1277 4.29295 13.1277 4.33128 13.1277C4.44627 13.0745 4.59959 12.8619 4.63792 13.1808C4.67625 13.1808 4.75291 13.1808 4.82957 13.1277C4.90623 13.0745 5.13621 13.2339 5.21287 13.2339C5.28953 13.2339 5.48118 13.2339 5.59617 13.2339C5.71116 13.2339 5.90281 13.4465 5.82615 13.4997C5.74949 13.5528 5.59617 13.7654 5.6345 13.9249C5.67283 14.0843 5.2512 14.5095 5.28953 14.5095C5.32786 14.5095 5.36619 14.669 5.2512 14.7753C5.2512 14.7753 5.2512 14.7753 5.2512 14.8815C5.2512 15.0941 5.2512 15.0941 5.2512 15.0941C5.13621 15.0941 5.02122 15.1473 4.94456 15.2004C4.94456 15.2004 4.94456 15.2004 4.90623 15.2536C4.82957 15.413 4.82957 15.413 4.82957 15.413C4.8679 15.5725 4.8679 15.8382 4.82957 15.9977C4.82957 15.9977 4.82957 15.9977 4.79124 16.1571C4.79124 16.2103 4.79124 16.2103 4.79124 16.2103C4.79124 16.2634 4.90623 16.2634 5.02122 16.1571C5.13621 16.0508 5.48118 16.2103 5.48118 16.2634C5.48118 16.3166 5.44285 16.4229 5.36619 16.4229C5.36619 16.4229 5.36619 16.4229 5.32786 16.4229C5.2512 16.3697 5.2512 16.3697 5.2512 16.3697C5.13621 16.3166 5.09788 16.3166 5.09788 16.3697C5.09788 16.3697 5.09788 16.3697 5.09788 16.4229C5.09788 16.476 5.09788 16.476 5.09788 16.476C5.09788 16.5291 5.09788 16.5823 5.05955 16.5823C5.02122 16.5823 4.90623 16.5292 4.8679 16.5823C4.82957 16.6354 4.90623 16.9012 4.98289 17.0606C4.98289 17.0606 4.98289 17.0606 5.13621 17.1138C5.17454 17.1138 5.21287 17.1138 5.21287 17.1669C5.17454 17.539 5.17454 17.539 5.17454 17.539C5.44285 17.6984 5.55784 17.8047 5.51951 17.8579C5.44285 17.911 5.21287 17.8579 5.17454 17.8579C5.13621 17.8579 4.82957 18.0173 4.59959 18.1236C4.59959 18.1236 4.59959 18.1236 4.36961 18.0705C4.25462 18.0705 4.25462 18.1236 4.21629 18.2299C4.25462 18.3893 4.25462 18.3893 4.25462 18.3893C4.17796 18.283 4.06297 18.2299 3.94798 18.283C3.83299 18.3362 3.52635 18.4956 3.48802 18.5488C3.56468 18.7082 3.56468 18.7082 3.56468 18.7082C3.52635 18.8677 3.44969 18.974 3.41136 19.0271C3.37303 19.0803 3.29637 19.0803 3.29637 19.0803C3.29637 19.0803 3.29637 19.0803 3.25804 19.0271C3.21971 18.974 3.21971 18.974 3.21971 18.974C3.18138 18.9208 3.06639 18.8677 2.98973 18.8677C2.91307 18.8145 2.64476 18.7614 2.60643 18.8145C2.5681 18.8677 2.49144 19.0803 2.52977 19.1334C2.5681 19.1866 2.87474 19.0803 2.98973 19.0803C2.98973 19.0803 2.98973 19.0803 2.98973 19.1866C3.02806 19.2929 2.9514 19.5055 2.91307 19.5055C2.37645 19.5586 2.37645 19.5586 2.37645 19.5586C2.45311 19.9838 2.45311 20.3558 2.37645 20.3558C2.29979 20.3558 2.1848 20.1964 2.14648 20.1964C2.10814 20.1964 2.06982 20.3027 2.06982 20.3027C2.06982 20.3027 2.03149 20.409 1.99316 20.5153C1.95483 20.6216 2.06982 20.8873 2.10815 20.9936C2.10815 20.9936 2.10815 20.9936 2.10815 21.0468C2.10815 21.0999 2.10815 21.0999 2.10815 21.0999C2.10815 21.1531 2.03149 21.2062 1.99316 21.2062C1.99316 21.2062 1.99316 21.2062 1.95483 21.2062C1.9165 21.2062 1.9165 21.2062 1.9165 21.2062C1.87817 21.2062 1.83984 21.2062 1.80151 21.2594C1.87817 21.3657 1.87817 21.3657 1.87817 21.3657C1.99316 21.5251 1.99316 21.6314 1.83984 21.5782C1.83984 21.5782 1.83984 21.5782 1.76318 21.5782C1.60986 21.5782 1.60986 21.5782 1.60986 21.5782C1.45654 21.5782 1.30322 21.6314 1.26489 21.7377C1.26489 21.7377 1.26489 21.7377 1.26489 21.7908C1.30322 22.3223 1.30322 22.3223 1.30322 22.3223C1.11157 22.5349 0.919918 22.7475 0.881588 22.8007C0.881588 22.8007 0.881588 22.8007 0.881588 22.8538C0.843258 22.9601 0.843258 22.9601 0.843258 22.9601C0.843258 23.1196 0.804928 23.3321 0.766598 23.4916C0.766598 23.4916 0.766598 23.4916 0.689938 23.5447C0.421629 23.4916 0.421629 23.651 0.459959 23.8636C0.459959 23.9168 0.459959 23.9168 0.459959 23.9168C0.459959 24.0762 0.344969 24.1294 0.19165 24.0231C0.19165 24.0231 0.19165 24.0231 0.268309 24.2357C0.344969 24.3951 0.19165 24.3951 0.15332 24.4483C0.15332 24.4483 0.0383299 24.2357 0 24.4483C0 24.5014 0 24.5014 0 24.5014C0.0766598 24.5546 0.15332 24.6077 0.15332 24.6077C0.15332 24.6077 0.11499 24.8203 0.0383299 24.9797C0.0383299 24.9797 0.0383299 24.9797 0.0766598 25.1923C0.0766598 25.2455 0.11499 25.2986 0.11499 25.3518C0.11499 25.4049 0.11499 25.4049 0.11499 25.4049C0.0766598 25.4581 0.0766598 25.5112 0.11499 25.5112C0.15332 25.5112 0.344969 25.5112 0.383299 25.6175C0.421629 25.7238 0.344969 25.9896 0.383299 26.0427C0.536619 25.8833 0.651608 25.8833 0.766598 26.0959C0.881588 26.2553 0.881588 26.2553 0.881588 26.2553C1.03491 26.0959 1.1499 26.0959 1.1499 26.149C1.1499 26.2022 1.34155 26.4148 1.49487 26.521C1.49487 26.521 1.49487 26.521 1.60986 26.2553C1.68652 26.0959 1.68652 26.0959 1.68652 26.0959C1.87817 26.2022 1.99316 26.3616 1.95483 26.3616C1.9165 26.3616 1.83984 26.4679 1.83984 26.4679C1.9165 26.4679 1.99316 26.4679 2.06982 26.4148C2.10815 26.4148 2.10815 26.4148 2.10815 26.4148C2.14648 26.4148 2.1848 26.4148 2.22313 26.4679C2.26146 26.521 2.37645 26.4679 2.37645 26.521C2.37645 26.5742 2.45311 26.6805 2.49144 26.5742C2.52977 26.4679 2.72142 26.521 2.79808 26.6805C2.79808 26.6805 2.79808 26.6805 2.87474 26.7868C2.91307 26.8399 2.91307 26.8399 2.91307 26.8399C2.98973 26.8399 3.10472 26.8399 3.18138 26.7868C3.25804 26.7336 3.60301 26.8399 3.64134 26.7868C3.718 26.7336 3.90965 26.6273 3.94798 26.7868C3.94798 26.7868 3.94798 26.7868 4.02464 26.8931C4.1013 26.9994 4.1013 26.9994 4.1013 26.9994C4.21629 26.9994 4.36961 26.9994 4.40794 26.9462C4.4846 26.8931 4.59959 27.1057 4.67625 27.1057C4.75291 27.1057 4.94456 27.0525 4.98289 26.9994C5.02122 26.9462 5.13621 26.9462 5.17454 26.9994C5.21287 27.1057 5.32786 27.3183 5.40452 27.2651C5.48118 27.212 5.6345 27.2651 5.71116 27.3183C5.74949 27.3714 5.94114 27.2651 5.94114 27.2651C5.94114 27.2651 5.94114 27.2651 5.94114 27.3183C5.94114 27.4246 5.94114 27.4246 5.94114 27.4246C6.0178 27.4246 6.17112 27.3183 6.32444 27.2651C6.32444 27.2651 6.32444 27.2651 6.32444 27.5309C6.36277 27.5309 6.51609 27.584 6.63107 27.6372C6.78439 27.6903 7.28268 27.584 7.39767 27.584C7.39767 27.584 7.39767 27.584 7.47433 27.5309C7.66598 27.5309 7.70431 27.3714 7.70431 27.584L7.8193 27.6372C7.93429 27.4246 8.12594 27.584 8.12594 27.6372C8.24093 27.7966 8.39425 27.584 8.47091 27.7435C8.50924 27.7966 8.50924 27.7966 8.50924 27.7966C8.70089 27.7435 8.85421 27.6372 8.89254 27.6372C8.93087 27.6372 9.04586 27.7435 9.16085 27.8498C9.27584 27.9561 9.62081 27.7966 9.62081 27.7966C9.62081 28.0624 9.62081 28.0624 9.62081 28.0624C9.77413 28.0092 10.0424 28.0092 10.1574 28.1155C10.1574 28.1155 10.1574 28.1155 10.2724 27.9029C10.3874 27.8498 10.3874 27.8498 10.3874 27.8498C10.5024 27.9029 10.6557 28.0092 10.7324 28.0624C10.7324 28.0624 10.7324 28.0624 10.809 28.0624C10.8474 28.0624 10.8474 28.0624 10.8474 28.0624C10.8857 28.0624 10.9624 28.0624 11.039 28.0624C11.1157 28.0624 11.4223 28.0624 11.499 28.0624C11.5756 28.0624 11.8056 28.1686 11.8056 28.1155C11.8439 28.0624 11.9206 28.0092 11.9206 28.0624C11.9206 28.0624 11.9206 28.0624 11.9589 28.1155C11.9973 28.1686 11.9973 28.1686 11.9973 28.1686C12.0356 28.2218 12.0356 28.2218 12.0739 28.1686C12.1123 28.1155 12.1123 28.0624 12.1506 28.0092C12.1506 28.0092 12.1506 28.0092 12.1889 28.0092C12.3039 28.1155 12.3039 28.1155 12.3039 28.1155C12.4572 28.1686 12.6489 28.2218 12.6872 28.2218C12.6872 28.2218 12.6872 28.2218 12.7255 28.2749C12.8788 28.4875 12.8788 28.4875 12.8788 28.4875C12.9555 28.2749 13.0705 28.1686 13.1088 28.2218C13.1472 28.2749 13.2238 28.3812 13.2621 28.3812C13.3005 28.3812 13.3388 28.4875 13.3771 28.7001C13.3771 28.7001 13.3771 28.7001 13.6071 28.4344C13.6454 28.3812 13.6454 28.3812 13.6454 28.3812C13.7604 28.4344 13.9138 28.4344 13.9904 28.4344C14.0671 28.4344 14.2204 28.3812 14.2204 28.4344C14.2204 28.4875 14.4504 28.4875 14.4887 28.4875C14.527 28.4875 14.6037 28.5407 14.5654 28.7533C14.5654 28.7533 14.5654 28.7533 14.7953 28.4875C14.8337 28.4875 14.9487 28.5407 15.0253 28.5938C15.0637 28.5938 15.0637 28.5938 15.0637 28.5938C15.102 28.647 15.2936 28.7001 15.447 28.7533C15.6386 28.8064 16.0602 28.5407 16.0986 28.5407C16.1369 28.5407 16.3669 28.5938 16.4819 28.647C16.5969 28.7001 17.1718 28.647 17.2868 28.647C17.2868 28.647 17.2868 28.647 17.3251 28.7001C17.5168 28.7533 17.5168 28.7533 17.5168 28.7533C17.6318 28.7001 17.7467 28.647 17.8234 28.5938C17.8234 28.5938 17.8234 28.5938 17.9001 28.5938C18.0151 28.5938 18.0151 28.5938 18.0151 28.5938C18.13 28.647 18.2834 28.7533 18.36 28.7533C18.4367 28.7533 18.7433 28.8064 18.8966 28.8064C18.8966 28.8064 18.8966 28.8064 19.05 28.8064C19.0883 28.8064 19.0883 28.8064 19.0883 28.8064C19.1266 28.8596 19.2033 28.8064 19.2033 28.7533C19.2033 28.7001 19.3949 28.7533 19.4333 28.7533C19.4716 28.8064 19.5866 28.8596 19.6249 28.8596C19.6632 28.8596 19.8166 28.7533 19.8549 28.7533C19.8932 28.7533 20.1615 28.9127 20.2765 28.9127C20.2765 28.9127 20.2765 28.9127 20.3149 28.8596C20.3915 28.7001 20.5065 29.019 20.5832 28.8064C20.6215 28.7001 20.6215 28.7001 20.6215 28.7001C20.7748 28.8064 20.9281 28.8064 20.9665 28.8064C21.0048 28.7533 21.1198 28.7001 21.1581 28.7001C21.1581 28.7533 21.2348 28.8064 21.2348 28.8064C21.2348 28.8064 21.3498 28.8064 21.3881 28.8596C21.4264 28.9127 21.7331 28.9127 21.963 28.9659C21.963 28.9659 21.963 28.9659 22.193 28.8596C22.3847 28.8064 22.6146 28.7533 22.8446 28.9659C22.9596 29.0722 22.9596 29.0722 22.9596 29.0722C23.1513 29.019 23.3429 28.9659 23.3429 28.9127C23.3812 28.8596 23.4962 28.8596 23.5346 28.9659C23.6112 29.0722 23.8795 28.8596 23.8795 28.9127C23.8795 28.9659 23.9562 29.0722 23.9945 28.9659C23.9945 28.9127 24.0712 28.8064 24.1095 28.9127C24.1478 29.019 24.4545 28.8596 24.6078 28.9127C24.6078 28.9127 24.6078 28.9127 24.7611 28.8596C24.9528 28.9659 24.9528 28.9659 24.9528 28.9659C25.1828 29.0722 25.4127 29.1253 25.4511 29.1253C25.4511 29.0722 25.5277 29.019 25.566 29.0722C25.6044 29.1253 25.681 29.2316 25.7194 29.2316C25.8727 29.0722 25.8727 29.0722 25.8727 29.0722C26.0643 29.0722 26.3326 29.1253 26.4476 29.0722C26.5626 29.0722 26.9843 29.1253 27.0609 29.019C27.0609 29.019 27.0609 29.019 27.1759 29.1785C27.1759 29.2316 27.3292 29.1253 27.4059 29.1253C27.6359 29.1253 27.6359 29.1253 27.6359 29.1253C27.9042 29.1253 28.2875 29.1785 28.4408 29.2316C28.4408 29.2316 28.4408 29.2316 28.5941 29.019C28.6324 28.9659 28.6324 28.9659 28.6324 28.9659C28.7091 28.9659 28.8624 29.019 28.9391 29.019C29.0157 29.019 29.2074 28.9659 29.2074 29.019C29.2074 29.0722 29.4757 29.0722 29.5524 28.9127C29.5524 28.9127 29.5524 28.9127 29.7057 29.0722C29.744 29.1253 29.744 29.1253 29.744 29.1253C29.859 29.0722 30.0123 29.0722 30.089 29.0722C30.1656 29.0722 30.3573 29.019 30.434 29.019C30.434 29.019 30.4339 29.019 30.5106 29.019C30.5489 29.019 30.6256 29.019 30.6639 29.019C30.7023 29.019 30.7789 29.0722 30.8172 29.0722C30.8556 29.0722 30.8556 29.0722 30.8556 29.0722C30.8939 29.0722 30.9706 29.0722 31.0472 29.0722C31.1239 29.0722 31.2772 29.019 31.3922 28.9127C31.3922 28.9127 31.3922 28.9127 31.3922 29.1253C31.4305 29.1253 31.6605 29.0722 31.8138 28.9659C31.8138 28.9659 31.8138 28.9659 31.9671 28.9659C32.0821 28.9659 32.0821 28.9659 32.0821 28.9659C32.2355 29.0722 32.3888 29.1253 32.4271 29.1785C32.4654 29.1785 32.5804 29.1253 32.6571 28.9659C32.6571 28.9659 32.6571 28.9659 32.8104 29.019C32.8871 29.0722 33.0404 29.0722 33.0787 29.019C33.232 28.9659 33.2704 29.2848 33.3854 29.2316C33.5003 29.1785 33.5003 29.1785 33.5003 29.1785C33.6537 29.1785 33.8453 29.1253 33.922 29.0722C33.922 29.0722 33.922 29.0722 33.9603 29.1253C34.1136 29.2848 34.1136 29.2848 34.1136 29.2848C34.3053 29.1785 34.4586 29.1253 34.4969 29.1785C34.5353 29.2316 34.6502 29.2848 34.6886 29.2316C34.7269 29.1785 34.8419 29.019 34.8419 29.019C34.8419 29.019 34.9569 29.0722 35.0335 29.1253C35.1102 29.1785 35.5318 29.1785 35.6468 29.1785C35.7618 29.1785 36.1068 29.1785 36.2218 29.1253C36.3368 29.0722 36.5667 29.2316 36.6434 29.1785C36.8734 29.5505 36.8734 29.5505 36.8734 29.5505C37.2183 29.4442 37.525 29.2848 37.6016 29.2848C37.6783 29.2848 37.8316 29.3379 37.8316 29.2316C37.8316 29.1253 38.1383 29.3379 38.2149 29.3911C38.2916 29.4442 38.4449 29.3911 38.5216 29.3911C38.5599 29.3911 38.7132 29.4442 38.7515 29.3911C38.7515 29.3379 38.8282 29.2848 38.8665 29.2848C38.9049 29.3379 39.0582 29.4442 39.2115 29.4442C39.2115 29.4442 39.2115 29.4442 39.3265 29.3911L39.6715 29.2316C39.7481 29.2848 39.7481 29.2848 39.7481 29.2848C39.8631 29.3911 39.9398 29.3911 39.9398 29.3911C39.9398 29.3379 40.0931 29.2316 40.1697 29.1785C40.1697 29.1785 40.1697 29.1785 40.3614 29.3911C40.3997 29.3911 40.3997 29.3911 40.3997 29.3911C40.4381 29.3911 40.5147 29.3379 40.553 29.3379C40.5914 29.2848 40.898 29.3379 41.0897 29.3911C41.1663 29.4974 41.1663 29.4974 41.1663 29.4974C41.243 29.4442 41.3196 29.2848 41.2813 29.1253C41.2813 29.1253 41.2813 29.1253 41.5113 29.2848C41.6646 29.3911 41.6646 29.3911 41.6646 29.3911C41.6646 29.2316 41.6646 29.1785 41.6646 29.2848C41.6646 29.3911 41.9329 29.2316 41.9329 29.2316C41.9329 29.2316 42.0479 29.2848 42.1629 29.2848C42.2396 29.2848 42.5845 29.1785 42.6995 29.1785C42.8145 29.1785 43.0062 29.2848 43.0445 29.2848C43.0828 29.2848 43.1595 29.1253 43.1978 29.1253C43.1978 29.1253 43.2361 29.1785 43.2745 29.2316C43.3128 29.2848 43.5044 29.3379 43.5811 29.2848C43.5811 29.2848 43.5811 29.2848 43.6578 29.2848C43.6961 29.2848 43.7728 29.3911 43.7728 29.3379C43.8877 29.2316 43.8877 29.2316 43.8877 29.2316C44.0027 29.2848 44.2327 29.2848 44.386 29.2316C44.386 29.2316 44.386 29.2316 44.5394 29.1785C44.5777 29.1785 44.5777 29.1785 44.5777 29.1785C44.6543 29.1785 44.731 29.2316 44.7693 29.2316C44.8077 29.2848 44.961 29.2848 45.0376 29.3379C45.076 29.3911 45.4209 29.2848 45.5743 29.2848C45.5743 29.2848 45.5743 29.2848 45.7276 29.2848C45.8426 29.2848 45.8426 29.2848 45.8426 29.2848C45.9959 29.2316 46.1109 29.2316 46.1492 29.2316C46.1875 29.2316 46.3409 29.3379 46.4559 29.3379C46.4559 29.3379 46.4559 29.3379 46.5325 29.2848C46.6092 29.2316 46.6858 29.0722 46.6858 29.3379C46.6858 29.3379 46.7625 29.3379 46.8008 29.3379C46.9925 29.3379 47.2225 29.2316 47.4141 29.2848C47.5674 29.3379 47.5674 29.3379 47.5674 29.3379C47.6824 29.2848 47.7974 29.2316 47.8357 29.2316C47.8741 29.2316 48.0274 29.2848 48.104 29.2848C48.1807 29.3379 48.679 29.2848 48.8323 29.2316C48.9856 29.1785 49.3689 29.4442 49.4456 29.4442C49.5222 29.4442 49.8672 29.4974 49.9822 29.5505C50.0972 29.6037 50.3655 29.3379 50.3655 29.3379C50.4038 29.3379 50.5572 29.4974 50.6338 29.3911C50.6338 29.3911 50.6338 29.3911 50.7105 29.3911C50.7871 29.3911 50.9021 29.4974 50.9788 29.4442C51.1321 29.3911 51.1321 29.3911 51.1321 29.3911C51.2088 29.4974 51.3237 29.5505 51.3621 29.5505C51.3621 29.5505 51.3621 29.5505 51.4004 29.4974C51.4771 29.4442 51.4771 29.4442 51.4771 29.4442C51.5537 29.3911 51.6304 29.3379 51.6687 29.3911C51.7071 29.4442 51.7837 29.4974 51.822 29.4442C51.822 29.3911 52.052 29.3911 52.0904 29.4442C52.1287 29.4974 52.282 29.5505 52.3203 29.4974C52.3587 29.4442 52.4737 29.2848 52.4737 29.2848C52.5886 29.5505 52.742 29.3379 52.8953 29.3379C52.9719 29.3379 52.9719 29.3379 52.9719 29.3379C53.0869 29.3911 53.1636 29.3911 53.2402 29.3911C53.2786 29.3911 53.3936 29.3911 53.4702 29.3379C53.5469 29.2848 53.8535 29.3911 54.0068 29.3911C54.0068 29.3911 54.0068 29.3911 54.1602 29.4442C54.2368 29.4442 54.3518 29.3379 54.4285 29.3911C54.5818 29.4442 54.5818 29.4442 54.5818 29.4442C54.7351 29.3911 54.9268 29.3911 55.0418 29.3379C55.0418 29.3379 55.0418 29.3379 55.1567 29.3379C55.3484 29.3911 55.3484 29.3911 55.3484 29.3911C55.5784 29.3911 55.77 29.4442 55.8084 29.4442C55.8467 29.4442 55.9617 29.3379 56 29.2848C56.0383 29.1785 56.3066 29.3379 56.345 29.2848C56.3833 29.2316 56.4983 29.1785 56.5366 29.1785C56.5366 29.2316 56.46 29.3911 56.46 29.3911C56.575 29.4442 56.575 29.4442 56.575 29.4442C56.6133 29.3379 56.6516 29.2316 56.6899 29.1785C56.7283 29.1785 56.8049 29.2316 56.8433 29.2316C56.8816 29.2848 56.9966 29.3379 57.0349 29.2848C57.0732 29.2316 57.1882 29.2848 57.1882 29.4442C57.1882 29.4442 57.1882 29.4442 57.3799 29.3379C57.3416 29.2316 57.4182 29.1785 57.5715 29.2316C57.6865 29.2848 58.0315 29.0722 58.0315 29.0722C58.0315 29.0722 58.0315 29.0722 58.0315 29.1253C58.0315 29.3379 58.0315 29.3379 58.0315 29.3379C58.1465 29.2848 58.2615 29.2316 58.2998 29.1785C58.3381 29.1253 58.4148 29.0722 58.4531 29.1253C58.4914 29.1785 58.5681 29.2848 58.6448 29.2316C58.7214 29.1785 59.0664 29.2848 59.1431 29.2848C59.2197 29.2848 59.488 29.1253 59.488 29.0722C59.488 29.019 59.7563 29.1253 59.7947 29.1785C59.833 29.2316 60.0246 29.2848 60.063 29.0722C60.063 29.0722 60.063 29.0722 60.2546 29.1253C60.4463 29.1785 60.1396 29.3379 60.2929 29.3379C60.4463 29.3379 60.4463 29.3379 60.4463 29.3379C60.5996 29.3379 60.9829 29.3379 61.2895 29.3379C61.2895 29.3379 61.2895 29.3379 61.5578 29.3379C61.7112 29.3379 61.8262 29.3379 61.9795 29.3379C62.0945 29.3379 62.0945 29.3379 62.0945 29.3379C62.2094 29.2848 62.4011 29.3911 62.5161 29.4974C62.5161 29.4974 62.5161 29.4974 62.6311 29.2848C62.7077 29.1785 62.7077 29.1785 62.7077 29.1785C62.7077 29.2848 62.7844 29.4442 62.8611 29.4974C62.8611 29.4974 62.8611 29.4974 62.9377 29.3911C63.0144 29.2316 63.0144 29.2316 63.0144 29.2316C63.1294 29.2848 63.2827 29.3379 63.3977 29.3379C63.5127 29.3379 63.781 29.4442 63.8576 29.4974C63.9343 29.5505 64.2026 29.3911 64.2793 29.3911C64.3559 29.3911 64.6242 29.3379 64.7009 29.3379C64.7392 29.3911 64.9309 29.4442 65.0459 29.4974C65.0459 29.4974 65.0459 29.4974 65.1225 29.5505C65.3142 29.6568 65.3142 29.6568 65.3142 29.6568C65.3908 29.4974 65.4675 29.4442 65.4675 29.4974C65.4675 29.5505 65.5825 29.71 65.6975 29.6568C65.8125 29.6037 66.1574 29.4974 66.2341 29.4974C66.3491 29.4974 66.694 29.71 66.8857 29.71C66.8857 29.71 66.8857 29.71 67.039 29.71C67.1923 29.71 67.3457 29.7631 67.5373 29.71C67.6523 29.71 67.6523 29.71 67.6523 29.71C67.729 29.7631 67.8823 29.7631 67.9973 29.7631C67.9973 29.7631 67.9973 29.7631 68.0356 29.8163C68.1889 29.9225 68.2272 29.8694 68.2656 29.71C68.3422 29.71 68.5722 29.8162 68.7255 29.9757C68.7255 29.9757 68.7255 29.9757 68.9555 29.7631C68.9938 29.7631 68.9938 29.7631 68.9938 29.7631C69.0322 29.7631 69.0322 29.8162 69.0322 29.8694C69.0322 29.9225 69.3388 29.8694 69.4155 29.8163C69.4921 29.7631 69.7604 29.8163 69.8371 29.8163C69.9138 29.8163 70.1437 29.9225 70.2204 29.9225C70.2971 29.9225 70.527 30.0288 70.642 29.9757C70.757 29.9225 71.1786 29.9757 71.2553 29.9757C71.2936 29.9225 71.447 29.8162 71.447 29.8694C71.447 29.9225 71.5236 29.9757 71.562 29.8694C71.562 29.8694 71.5619 29.8694 71.6003 29.8694C71.6769 29.8162 71.6769 29.8163 71.6769 29.8163C71.7536 29.8163 71.9836 29.8694 72.1369 29.8694C72.1369 29.8694 72.1369 29.8694 72.2136 29.9225C72.3285 30.0288 72.3285 30.0288 72.3285 30.0288C72.4052 29.9757 72.5202 29.9225 72.5585 29.9225C72.5969 29.9225 72.7118 29.9757 72.7502 30.0288C72.7885 30.0288 73.0185 29.9757 73.1335 29.9225C73.2485 29.8694 73.5934 30.0288 73.6318 30.0288C73.6701 30.0288 73.8234 29.8162 73.8234 29.8694C73.8234 29.9225 73.9384 30.082 74.0534 30.082C74.0534 30.082 74.0534 30.082 74.1301 30.082C74.245 30.082 74.245 30.082 74.245 30.082C74.36 30.0288 74.5517 29.9757 74.6667 29.9757C74.7817 29.9757 75.05 30.1351 75.1266 30.1351C75.2033 30.1351 75.3949 30.082 75.3949 30.1351C75.3949 30.1883 75.4716 30.3477 75.4716 30.3477C75.5866 30.1883 75.7016 30.0288 75.8932 30.2414C75.9699 30.2946 75.9699 30.2946 75.9699 30.2946C76.0849 30.2414 76.2382 30.2414 76.2765 30.2414C76.3148 30.2414 76.5065 30.1883 76.5448 30.1883C76.5448 30.1883 76.5448 30.1883 76.5832 30.1883C76.6982 30.2414 76.6982 30.2414 76.6982 30.2414C76.8515 30.2946 77.0431 30.2946 77.1581 30.2946C77.1581 30.2946 77.1581 30.2946 77.2731 30.2946C77.3498 30.2946 77.3498 30.2946 77.3498 30.2946C77.4648 30.4009 77.5797 30.454 77.6181 30.4009C77.6564 30.3477 77.7714 30.2414 77.8097 30.2946C77.8481 30.3477 78.078 30.454 78.1164 30.4009C78.1547 30.3477 78.3463 30.2414 78.538 30.2414C78.538 30.2414 78.538 30.2414 78.653 30.1883C78.768 30.1351 78.768 30.1351 78.768 30.1351C78.8446 30.1883 78.9979 30.2414 79.1129 30.2414C79.1129 30.2414 79.1129 30.2414 79.1896 30.2946C79.2279 30.2946 79.2279 30.2946 79.2279 30.2946C79.3046 30.2946 79.4962 30.3477 79.6879 30.4009C79.6879 30.4009 79.6879 30.4009 79.8795 30.2414C79.9945 30.1351 79.9945 30.1351 79.9945 30.1351C80.1862 30.1351 80.3395 30.2414 80.3395 30.3477C80.3395 30.454 80.5695 30.4009 80.6461 30.3477C80.6845 30.2946 80.9144 30.2946 80.9911 30.2946C81.0678 30.2946 81.2594 30.4009 81.2594 30.4009C81.2594 30.4009 81.3361 30.3477 81.3744 30.2946C81.4127 30.2414 81.7194 30.1883 81.681 30.2414C81.6427 30.2946 81.6427 30.3477 81.796 30.2946C81.796 30.2946 81.796 30.2946 81.9493 30.454C82.026 30.5072 82.2177 30.454 82.3326 30.454C82.4476 30.454 82.4476 30.454 82.4476 30.454C82.5243 30.3477 82.601 30.2946 82.6393 30.2946C82.6776 30.2946 82.8693 30.2946 83.0609 30.2414C83.0609 30.2414 83.0609 30.2414 83.1759 30.454C83.2142 30.5072 83.2142 30.5072 83.2142 30.5072C83.4059 30.4009 83.5209 30.4009 83.5209 30.454C83.5209 30.5072 83.4826 30.6666 83.4826 30.6666C83.4826 30.6666 83.6359 30.7198 83.7509 30.7198C83.8658 30.7198 84.2108 30.6135 84.2491 30.6135C84.2491 30.6135 84.2491 30.6135 84.2875 30.6135C84.4025 30.5603 84.4025 30.5603 84.4025 30.5603C84.5558 30.5603 84.7091 30.5603 84.7858 30.5072C84.8624 30.454 85.0924 30.7198 85.2457 30.8792C85.2457 30.8792 85.2457 30.8792 85.399 30.8261C85.5907 30.7198 85.5907 30.7198 85.5907 30.7198C85.7057 30.8261 85.7823 30.9324 85.8207 30.9324C85.859 30.9324 85.8973 30.9324 85.9357 30.9855C85.974 31.0387 86.1656 30.9324 86.2423 30.8792C86.2806 30.8261 86.5106 30.7729 86.4723 30.8792C86.434 30.9855 86.6639 30.8792 86.7023 30.9324C86.7406 30.9855 86.9322 30.9324 86.9706 30.8792C87.0472 30.8261 87.2772 30.8261 87.2772 30.8792C87.2772 30.9324 87.4689 30.9855 87.8138 30.9855C87.8138 30.9855 87.8138 30.9855 87.9288 30.8792C88.1588 30.6666 88.1588 30.6666 88.1588 30.6666C88.1971 30.8792 88.2738 30.9324 88.3888 30.8261C88.3888 30.8261 88.3888 30.8261 88.5804 30.9324C88.8104 31.0387 89.0787 30.9855 89.3087 30.8261C89.3854 30.7729 89.5387 30.6666 89.692 30.7729C89.7687 30.8261 89.9603 30.7198 90.0753 30.6135C90.152 30.5603 89.922 30.5072 90.0753 30.454C90.1136 30.454 90.1903 30.5603 90.2286 30.5072C90.3053 30.5072 90.4586 30.454 90.4586 30.4009C90.5352 30.1883 90.5353 30.1883 90.5353 30.1883C90.7269 30.1351 90.9569 30.0288 91.0719 29.9757C91.1869 29.9225 91.5702 29.8694 91.6085 29.8694C91.6852 29.8694 91.8768 29.8163 91.9535 29.8163C91.9918 29.8163 92.1068 29.8694 92.1068 29.7631C92.1068 29.6568 92.3368 29.8163 92.3751 29.8163C92.4134 29.8163 92.6051 29.8163 92.7201 29.8163C92.8734 29.8163 93.2183 29.6037 93.2567 29.6037C93.295 29.6037 93.41 29.6037 93.41 29.5505C93.41 29.4974 93.525 29.3379 93.6783 29.3911C93.8316 29.4442 94.2533 29.2316 94.4066 29.1785C94.4066 29.1785 94.4066 29.1785 94.4449 28.9127C94.4832 28.8064 94.7132 28.7533 94.7515 28.5407C94.7899 28.4344 94.7899 28.4344 94.7899 28.4344C94.9432 28.3281 95.0965 28.2749 95.1348 28.2749C95.1732 28.2749 95.2115 28.1686 95.1732 28.0624C95.3265 28.0092 95.3265 28.0092 95.3265 28.0092C95.2882 27.9029 95.2498 27.6903 95.2498 27.584C95.2498 27.584 95.2498 27.584 95.2498 27.4777C95.2882 27.2651 95.2882 27.2651 95.2882 27.2651C95.3265 26.9994 95.4032 26.7868 95.4415 26.7868C95.4415 26.7868 95.4415 26.7868 95.4798 26.7868C95.5181 26.7868 95.5181 26.7868 95.5181 26.7868C95.5565 26.7868 95.5948 26.7868 95.5948 26.7336C95.5948 26.6805 95.5181 26.6273 95.4415 26.5742C95.4415 26.5742 95.4415 26.5742 95.3648 26.521C95.3648 26.521 95.3648 26.4679 95.3648 26.4148C95.3648 26.4148 95.4032 26.4148 95.4415 26.4148L95.4798 26.4679C95.5565 26.4679 95.5565 26.4679 95.5565 26.4679C95.6331 26.4679 95.7098 26.4679 95.7098 26.4148C95.7098 26.3616 95.7865 26.2022 95.8631 26.0959C95.8631 26.0959 95.8631 26.0959 95.9398 25.9896C95.9781 25.9364 95.9781 25.9364 95.9781 25.9364C95.9781 25.777 95.9014 25.7238 95.7865 25.777C95.6715 25.8301 95.4032 25.777 95.4798 25.5112C95.5948 25.1923 95.5948 24.3951 95.5181 24.3951C95.4032 24.342 95.1732 24.2357 95.2115 24.2357C95.2498 24.2357 95.3648 24.1294 95.4415 24.0231C95.4415 24.0231 95.4415 24.0231 95.4798 23.9168C95.5948 23.651 95.6331 24.0762 95.7481 23.9168C95.7864 23.8636 95.7865 23.8636 95.7865 23.8636C95.9014 23.8105 95.9781 23.7042 95.9398 23.5979C95.9014 23.4916 96.0164 23.0664 96.0548 22.8538C96.0548 22.8538 96.0548 22.8538 95.9781 22.6412C95.9014 22.4286 96.0548 22.0566 96.2464 22.0566C96.3997 22.0566 96.3997 22.0566 96.3997 22.0566C96.5914 22.0034 96.668 21.9503 96.5914 21.9503C96.5147 21.9503 96.2464 21.844 96.2464 21.7908C96.2464 21.7377 96.3231 21.472 96.4381 21.5251C96.4381 21.5251 96.4381 21.5251 96.553 21.5251C96.6297 21.5251 96.6297 21.5251 96.6297 21.5251C96.7064 21.5251 96.783 21.5251 96.8597 21.472C96.9363 21.4188 97.243 21.472 97.358 21.472C97.5113 21.472 97.6646 21.0468 97.6646 20.9936C97.6646 20.9936 97.6646 20.9936 97.588 20.9936C97.4346 21.0468 97.358 20.8873 97.3963 20.7279C97.4346 20.6216 97.473 20.5153 97.5496 20.4621C97.7029 20.3558 97.7029 20.3558 97.7029 20.3558C97.7029 20.1432 97.7413 20.0369 97.7796 20.0901C97.7796 20.0901 97.7796 20.0901 97.8179 20.0901C97.8563 20.0901 97.9329 20.0901 97.9713 20.0369C98.0096 19.9838 98.0096 19.9306 97.9713 19.8775C97.8946 19.7712 97.8179 19.6649 97.6646 19.7181C97.6263 19.7181 97.588 19.6649 97.588 19.6118C97.588 19.5586 97.6263 19.5055 97.6646 19.5055C97.7796 19.4523 97.7796 19.4523 97.7796 19.4523C97.8946 19.3992 97.8946 19.2929 97.7796 19.1866C97.7796 19.1866 97.7796 19.1866 97.6646 19.1866C97.5496 19.1866 97.5496 19.1866 97.5496 19.1866C97.3963 19.2929 97.2813 19.2397 97.2813 19.0803C97.2813 19.0803 97.2813 19.0803 97.243 18.974C97.2047 18.8145 97.2047 18.8145 97.2047 18.8145C97.0897 18.7614 96.898 18.7082 96.8214 18.7082C96.7447 18.7082 96.7447 18.3893 96.8214 18.1768C96.8597 18.0173 96.9747 17.4327 96.898 17.3795C96.8214 17.3264 96.898 17.0075 96.9363 16.9543C96.9747 16.9012 97.0513 16.6886 97.013 16.6886C97.013 16.6886 97.013 16.6886 96.9363 16.6354C96.8597 16.5823 96.783 16.7949 96.7064 16.6354C96.6297 16.6354 96.5147 16.6886 96.4381 16.7417C96.3614 16.7949 96.0164 16.6886 95.9014 16.6886C95.7481 16.6354 95.3265 16.7949 95.2115 16.9012C95.0965 16.9543 94.6749 16.9543 94.5982 16.9543C94.5216 16.9543 94.2916 17.1138 94.2533 17.0606C94.2149 17.0075 94.1766 16.7949 94.1766 16.6886C94.1766 16.5823 94.4449 16.5291 94.5216 16.5291C94.5216 16.5291 94.5216 16.5291 94.5599 16.476C94.6366 16.4229 94.5599 16.2103 94.7515 16.2634C94.7899 16.2634 94.7899 16.2634 94.7899 16.2634C94.8282 16.1571 94.9432 16.104 95.0199 16.2103C95.0199 16.2103 95.0199 16.2103 95.0199 15.9445C95.0199 15.8914 95.0199 15.8914 95.0199 15.8914C95.1348 15.8382 95.2882 15.8382 95.4032 15.8382C95.4032 15.8382 95.4032 15.8382 95.4415 15.6788C95.4415 15.5725 95.4415 15.5725 95.4415 15.5725C95.4798 15.413 95.4415 15.3599 95.4032 15.413C95.3648 15.4662 95.1348 15.4662 95.0965 15.4662C95.0582 15.413 94.9049 15.3599 94.8282 15.4662C94.7515 15.5193 94.5216 15.7851 94.5216 15.7319C94.5599 15.5725 94.6749 15.413 94.6749 15.2536C94.6366 15.0941 94.6366 15.0941 94.6366 15.0941C94.4832 14.8815 94.4066 14.7221 94.4832 14.669C94.5216 14.6158 94.7132 14.6158 94.7899 14.7221C94.7899 14.7221 94.7899 14.7221 94.8282 14.8284C94.8665 14.8815 94.8665 14.8815 94.8665 14.8815C94.8665 14.9878 94.9049 15.041 94.9049 15.041C95.0199 14.8815 95.0199 14.8815 95.0199 14.8815C95.1348 14.9878 95.2882 15.041 95.3265 14.9878C95.3648 14.9878 95.3648 14.8284 95.2115 14.669C95.2115 14.669 95.2115 14.669 95.2882 14.4564C95.3265 14.4032 95.3265 14.4032 95.3265 14.4032C95.4415 14.4564 95.5565 14.3501 95.5948 14.1375C95.6331 13.978 95.7098 13.7654 95.7098 13.7654C95.7098 13.7654 95.5565 13.7123 95.4798 13.8186C95.4798 13.8186 95.4798 13.8186 95.4032 13.8717C95.3648 13.8717 95.2882 13.8186 95.2882 13.7654C95.2498 13.7123 95.2498 13.5528 95.2882 13.4997C95.3265 13.4465 95.5565 13.3934 95.5181 13.3402C95.4798 13.2871 95.2882 13.0745 95.3265 13.0214C95.3648 12.9682 95.4415 12.8088 95.4798 12.8619C95.4798 12.8619 95.4798 12.8619 95.5181 12.8619C95.6331 12.9151 95.7481 12.7556 95.8631 12.4899C95.9014 12.3836 95.9014 12.3836 95.9014 12.3836C95.8248 12.2773 95.7864 12.171 95.7481 12.1178C95.7098 12.1178 95.7098 12.0115 95.7865 11.9584C95.7865 11.9584 95.7864 11.9584 95.8248 11.9584C95.9781 11.9584 96.0164 11.9052 95.9398 11.7458C95.9398 11.6926 95.9014 11.6395 95.9014 11.6395C95.9781 11.5863 95.9781 11.5863 95.9781 11.5863C95.9781 11.4801 95.8631 11.4269 95.7865 11.4801C95.7865 11.4801 95.7864 11.4801 95.7481 11.5863C95.7481 11.6395 95.7481 11.6395 95.7481 11.6395C95.5565 11.6395 95.5565 11.5863 95.7481 11.4801C95.7481 11.4801 95.7481 11.4801 95.6715 11.2675C95.6331 11.1612 95.6331 11.1612 95.6331 11.1612C95.5948 11.0017 95.5948 10.8954 95.6331 10.8423C95.6715 10.7891 95.7481 10.5765 95.7098 10.4702C95.6715 10.3639 95.4032 10.2576 95.4032 10.2045C95.4032 10.2045 95.4032 10.2045 95.4415 10.1513C95.4798 10.045 95.4798 10.045 95.4798 10.045C95.5181 9.8856 95.5181 9.83245 95.4798 9.8856C95.4415 9.93875 95.2498 9.9919 95.2115 9.93875C95.1732 9.93875 94.9815 9.93875 94.9049 9.93875C94.8282 9.93875 94.6749 9.93875 94.7132 9.8856C94.7515 9.83245 94.8665 9.72615 94.9049 9.67301C94.9432 9.61986 95.1348 9.72616 95.1348 9.72616C95.1348 9.72616 95.1732 9.67301 95.1732 9.56671C95.1732 9.46041 95.4415 9.56671 95.4798 9.56671C95.5181 9.56671 95.5948 9.51356 95.5181 9.46041C95.4415 9.40726 95.2115 9.30097 95.1732 9.35412C95.1732 9.40726 95.0582 9.46041 95.0199 9.46041C94.9815 9.46041 94.8665 9.19467 94.8282 9.19467C94.7899 9.19467 94.6366 9.08838 94.5982 8.92893C94.5982 8.92893 94.5982 8.92893 94.6366 8.76949C94.6749 8.61004 94.7515 8.55689 94.8665 8.50374C94.9049 8.50374 94.9049 8.50374 94.9049 8.50374C94.9432 8.45059 94.9432 8.3443 94.8665 8.29115C94.8282 8.18485 94.5982 8.02541 94.5599 7.97226C94.5216 7.91911 94.5216 7.75966 94.5216 7.75966C94.4832 7.75966 94.4449 7.65337 94.4449 7.65337C94.4449 7.65337 94.4449 7.54707 94.5216 7.49392C94.5599 7.44077 94.6749 7.17503 94.6749 7.01559C94.6749 7.01559 94.6749 7.01559 94.5982 6.90929C94.4449 6.6967 94.4832 6.53725 94.7132 6.43095C94.9049 6.32466 94.9049 6.32466 94.9049 6.32466C94.7899 6.16521 94.6749 5.95262 94.5982 5.84632C94.5599 5.74003 94.4066 5.63373 94.5216 5.63373C94.5216 5.63373 94.5216 5.63373 94.5216 5.42113C94.5216 5.31484 94.5216 5.31484 94.5216 5.31484C94.5216 5.20854 94.5599 4.99595 94.5599 4.88965C94.5599 4.88965 94.5599 4.88965 94.6366 4.8365C94.7132 4.73021 94.7132 4.73021 94.7132 4.73021C94.6749 4.62391 94.6366 4.41132 94.5982 4.30502C94.5982 4.30502 94.5982 4.30502 94.6749 4.19872C94.8665 3.87983 94.8665 3.87983 94.8665 3.87983C94.7132 3.72039 94.5599 3.61409 94.5599 3.61409C94.5599 3.61409 94.6749 3.2952 94.8665 2.97631C94.8665 2.97631 94.8665 2.97631 95.0199 2.65742C95.0582 2.55112 95.0582 2.55112 95.0582 2.55112C94.9815 2.60427 94.9049 2.60427 94.8665 2.60427C94.8665 2.60427 94.7899 2.60427 94.7132 2.55112C94.6366 2.49797 94.4832 2.39168 94.4449 2.39168C94.4066 2.39168 94.2149 2.33853 94.1383 2.28538C94.1383 2.28538 94.1383 2.28538 94.0616 2.23223C93.9466 2.17908 93.9466 2.17908 93.9466 2.17908C93.8316 2.17908 93.525 2.12593 93.295 2.07278C93.065 2.01964 92.2601 1.91334 92.1068 1.86019C92.1068 1.86019 92.1068 1.86019 91.9918 1.86019C91.8768 1.86019 91.8768 1.86019 91.8768 1.86019C91.7235 1.80704 91.4168 1.75389 91.1102 1.75389C91.1102 1.75389 91.1102 1.75389 90.8419 1.75389C90.7269 1.75389 90.7269 1.75389 90.7269 1.75389C90.6119 1.70075 90.4203 1.5413 90.3053 1.435C90.3053 1.435 90.3053 1.43501 90.1903 1.6476C90.1903 1.70075 89.9603 1.59445 89.9603 1.59445C89.8836 1.80704 89.7687 1.43501 89.692 1.6476C89.6537 1.70075 89.6537 1.70075 89.6537 1.70075C89.5003 1.59445 89.347 1.5413 89.2704 1.5413C89.1554 1.43501 89.1554 1.435 89.1554 1.435C89.0021 1.435 88.8104 1.43501 88.7337 1.38186C88.6571 1.32871 88.3888 1.435 88.3504 1.435C88.2738 1.435 87.9671 1.38186 87.8138 1.38186C87.6605 1.38186 87.2006 1.22241 87.1622 1.27556C87.1239 1.32871 86.8556 1.16926 86.7023 1.11611C86.7023 1.11611 86.7023 1.11611 86.5873 1.16926C86.434 1.22241 86.434 1.22241 86.434 1.22241C86.2423 1.16926 86.0507 1.16926 85.9357 1.11611C85.8207 1.11611 85.5907 1.00982 85.5907 1.06297C85.5907 1.11612 85.399 1.06297 85.284 0.956669C85.1691 0.850372 84.7858 1.00982 84.7091 0.956669C84.7091 0.956669 84.7091 0.956669 84.6708 1.00982C84.5175 1.11611 84.5175 1.11611 84.5175 1.11611C84.4025 1.00982 84.1725 0.956669 84.0192 1.00982C84.0192 1.00982 84.0192 1.00982 83.9042 0.956669C83.7892 0.903521 83.7892 0.903521 83.7892 0.903521C83.6742 0.956669 83.4442 1.00982 83.2909 0.956669C83.2909 0.956669 83.2909 0.956669 83.1759 0.956669C83.0609 0.956669 83.0609 0.956669 83.0609 0.956669C82.9076 0.903521 82.716 0.903521 82.601 1.00982C82.601 1.00982 82.601 1.00982 82.4476 0.903521C82.3326 0.850372 82.3326 0.850372 82.3326 0.850372C82.1793 0.850372 81.8727 0.850372 81.681 0.797224C81.681 0.797224 81.681 0.797224 81.4511 0.850372C81.2977 0.903521 81.2977 0.903521 81.2977 0.903521C81.1061 0.850372 80.9144 0.744076 80.8378 0.744076C80.7611 0.744076 80.5695 0.797224 80.5311 0.797224C80.4928 0.744076 80.2628 0.797224 80.1479 0.797224C80.0329 0.797224 79.6879 0.690928 79.6496 0.744076C79.6496 0.797224 79.6112 0.797224 79.6112 0.690928C79.6112 0.584631 79.3429 0.797224 79.3046 0.797224C79.2663 0.797224 78.9979 0.797224 78.883 0.744076C78.768 0.690928 78.4613 0.797224 78.3847 0.744076C78.308 0.744076 78.0014 0.797224 77.8864 0.797224C77.7714 0.797224 77.3881 0.797224 77.2731 0.797224C77.1581 0.850372 76.8515 0.637777 76.8131 0.637777C76.7748 0.637777 76.5832 0.690928 76.5448 0.690928C76.4682 0.690928 76.3149 0.690928 76.1615 0.690928C76.0082 0.690928 75.6249 0.744076 75.5866 0.744076C75.5483 0.744076 75.4333 0.690928 75.3949 0.744076C75.3566 0.797224 75.05 0.744076 74.935 0.690928C74.82 0.690928 74.4367 0.637779 74.2834 0.531483C74.2834 0.531483 74.2834 0.531483 74.0917 0.690928C73.9767 0.797224 73.9767 0.797224 73.9767 0.797224C73.7467 0.797224 73.4401 0.744076 73.2485 0.690928C73.2485 0.690928 73.2485 0.690928 73.0568 0.797224C73.0185 0.797224 73.0185 0.797224 73.0185 0.797224C72.9418 0.690928 72.7885 0.637777 72.6735 0.744076C72.5585 0.850372 72.0986 0.690926 71.8686 0.637777C71.6386 0.584629 71.0637 0.797224 71.0253 0.797224C70.987 0.797224 70.7953 0.744076 70.6037 0.744076C70.6037 0.744076 70.6037 0.744076 70.412 0.850372C70.2971 0.903521 70.2971 0.903521 70.2971 0.903521C70.2204 0.744074 70.1054 0.690928 70.0288 0.744076C69.9521 0.797224 69.7221 0.903521 69.6455 0.850372C69.5688 0.797224 69.3771 0.637779 69.3388 0.690928C69.3005 0.744076 69.0705 0.850372 68.8789 0.850372C68.8789 0.850372 68.8789 0.850372 68.7639 0.797224C68.6105 0.744076 68.4956 0.744076 68.3806 0.797224C68.2656 0.903521 68.2656 0.903521 68.2656 0.903521C68.1506 0.850372 68.0356 0.797224 67.9973 0.797224C67.9589 0.797224 67.729 0.903521 67.6906 0.903521C67.6523 0.903521 67.4223 0.850372 67.384 0.797224C67.3073 0.744076 67.1157 0.797224 67.039 0.797224C66.9624 0.797224 66.7324 0.797224 66.6557 0.797224C66.5791 0.797224 66.3874 0.850372 66.3874 0.903521C66.3874 0.956669 66.3491 1.11611 66.3107 1.11611C66.2724 1.11611 66.1958 1.06297 66.1958 1.11611C66.1958 1.16926 66.0424 1.22241 66.0041 1.16926C66.0041 1.16926 66.0041 1.16926 65.9658 1.06297C65.9275 1.00982 65.8125 0.956669 65.7358 0.903521C65.5058 0.744074 65.5058 0.744076 65.2758 0.956669C65.2375 1.00982 65.2375 1.00982 65.2375 1.00982C65.1992 1.06297 65.0842 1.00982 65.0459 0.956669C65.0075 0.903521 64.7775 0.797222 64.7009 0.903521C64.6242 0.956669 64.4326 1.11612 64.4326 1.06297C64.4326 1.00982 64.3176 0.797224 64.2026 0.797224C64.0876 0.797224 63.5893 0.850372 63.2444 0.744076C63.2444 0.744076 63.2444 0.744074 62.8994 0.903521C62.5161 0.584629 62.5161 0.584631 62.5161 0.584631C62.3244 0.478333 62.1711 0.425184 62.1328 0.478333C62.0945 0.531481 61.9411 0.425186 61.9028 0.425186C61.9028 0.425186 61.7112 0.372038 61.5578 0.425186C61.4045 0.425186 60.9446 0.531483 60.9062 0.531483C60.8679 0.531483 60.6379 0.425184 60.5613 0.372036C60.4846 0.318888 60.1396 0.318888 59.9863 0.212591C59.9863 0.212591 59.9863 0.212591 59.7947 0.425186C59.6797 0.531483 59.6797 0.531483 59.6797 0.531483C59.5647 0.478334 59.4114 0.478334 59.3347 0.531483C59.258 0.584631 59.0281 0.372036 58.9514 0.372036C58.8747 0.372036 58.6448 0.478334 58.6448 0.531483C58.6448 0.584631 58.5298 0.690928 58.4148 0.584631C58.4148 0.584631 58.4148 0.584629 58.3381 0.478333C58.2615 0.372036 58.2615 0.372036 58.2615 0.372036C58.1465 0.425184 58.0315 0.425186 57.9932 0.425186C57.9548 0.372038 57.8015 0.372038 57.8015 0.425186C57.8015 0.478334 57.7632 0.531483 57.7248 0.318888C57.7248 0.318888 57.7248 0.318888 57.5715 0.425186C57.4949 0.478334 57.4949 0.478333 57.4949 0.478333C57.4182 0.425184 57.3032 0.425186 57.2649 0.425186C57.2266 0.425186 56.9966 0.531481 56.9583 0.478333C56.8816 0.478333 56.6516 0.478334 56.575 0.531483C56.4983 0.584631 56.2683 0.531483 56.1533 0.584631C56.1533 0.584631 56.1533 0.584631 56.0383 0.584631C56 0.584631 55.9233 0.531483 55.885 0.531483C55.8084 0.637779 55.77 0.531483 55.6934 0.531483C55.655 0.531483 55.5784 0.584629 55.54 0.637777C55.54 0.637777 55.4634 0.584631 55.4634 0.531483C55.4634 0.478334 55.4634 0.478333 55.4634 0.478333C55.5017 0.425184 55.5017 0.425184 55.5017 0.372036C55.5017 0.372036 55.4251 0.372036 55.3484 0.372036C55.3101 0.372036 55.0801 0.372036 55.0034 0.318888C55.0034 0.318888 55.0034 0.318888 54.9268 0.318888C54.7734 0.318888 54.6201 0.425184 54.5435 0.372036C54.3901 0.265739 54.3901 0.265741 54.3901 0.265741C54.2752 0.31889 54.1218 0.372036 54.0835 0.372036C54.0068 0.372036 53.8152 0.265739 53.7769 0.212591C53.7385 0.159443 53.6619 0.372038 53.6619 0.425186C53.6619 0.425186 53.5086 0.425186 53.3936 0.425186C53.2786 0.425186 52.7803 0.318888 52.6653 0.318888C52.5503 0.318888 52.282 0.637779 52.2437 0.584631C52.2053 0.531483 52.1287 0.31889 51.937 0.265741C51.7837 0.265741 51.1704 0.478333 50.9021 0.584631C50.9021 0.584631 50.9021 0.584631 50.6721 0.318888C50.5955 0.265739 50.5955 0.265741 50.5955 0.265741C50.4422 0.31889 50.2888 0.372036 50.2505 0.372036C50.2122 0.425184 50.0589 0.372036 49.9822 0.372036C49.9055 0.425184 49.6756 0.31889 49.6372 0.265741C49.5989 0.265741 49.4073 0.265739 49.2539 0.318888C49.1006 0.372036 48.6023 0.265739 48.3723 0.212591C48.3723 0.212591 48.3723 0.212591 48.1807 0.372036C48.1807 0.372036 47.7207 0.212591 47.6824 0.212591C47.6441 0.159443 47.6441 0.159443 47.6057 0.159443C47.4908 0.106295 47.4908 0.106295 47.4908 0.106295C47.3758 0.159443 47.2991 0.265739 47.2991 0.318888C47.2991 0.372036 47.2608 0.531483 47.2225 0.531483C47.1841 0.531483 47.0691 0.478334 47.1075 0.425186C47.1075 0.425186 47.1075 0.425184 47.1075 0.372036C47.1075 0.318888 47.1075 0.318888 47.1075 0.318888C47.1075 0.212591 46.9925 0.159443 46.8775 0.159443C46.8775 0.159443 46.8775 0.159443 46.7625 0.159443C46.6858 0.159443 46.6858 0.159443 46.6858 0.159443C46.6092 0.106295 46.4175 0.106295 46.3025 0.106295C46.1875 0.106295 45.8042 0.159443 45.7276 0.159443C45.6509 0.106295 45.4209 0.212591 45.3443 0.159443C45.2676 0.106295 45.0376 0.212591 44.9993 0.159443C44.9993 0.159443 44.9993 0.159443 44.961 0.159443C44.7693 0.106295 44.616 0.159443 44.4244 0.212591C44.271 0.265739 44.271 0.265741 44.271 0.265741C44.0411 0.265741 43.8111 0.265741 43.7344 0.265741C43.6578 0.265741 43.5811 0.478333 43.5044 0.318888C43.5044 0.318888 43.5044 0.31889 43.4661 0.265741C43.4278 0.212593 43.4278 0.212591 43.4278 0.212591C43.3895 0.159443 43.2745 0.106295 43.1595 0.0531464C43.0445 -1.90735e-06 42.6612 0.212591 42.5845 0.212591C42.5079 0.212591 42.3929 0.212591 42.3546 0.212591C42.3162 0.212591 42.1246 0.212591 42.0862 0.212591C42.0479 0.212591 41.7796 0.212591 41.6646 0.212591C41.5496 0.212591 41.243 0.318888 41.243 0.372036C41.243 0.425184 41.1663 0.318888 41.0897 0.159443C41.0897 0.159443 41.0897 0.159443 40.898 0.318888C40.8597 0.372036 40.7064 0.159443 40.5914 0.159443C40.4764 0.159443 40.4764 0.159443 40.4764 0.159443C40.3614 0.212591 40.1697 0.159443 40.0548 -1.90735e-06C40.0548 -1.90735e-06 40.0548 -1.90735e-06 39.9014 0.159443C39.8248 0.265739 39.8248 0.265741 39.8248 0.265741C39.6715 0.31889 39.5181 0.372036 39.4798 0.318888C39.4415 0.265739 39.3265 0.106295 39.2882 0.212591C39.2498 0.265739 39.0965 0.372038 39.0198 0.265741C39.0198 0.265741 39.0198 0.265739 38.9432 0.212591C38.9049 0.212591 38.7899 0.212591 38.7899 0.212591C38.7899 0.478333 38.7899 0.478333 38.7899 0.478333C38.5982 0.531481 38.4066 0.531481 38.4066 0.478333C38.4066 0.372036 38.2916 0.265741 38.1766 0.265741C38.1766 0.265741 38.1766 0.265739 38.0999 0.212591C38.0233 0.212591 37.9849 0.106295 37.9849 0.265741C37.9849 0.425186 37.8699 0.425184 37.8316 0.372036C37.64 0.212591 37.4483 0.31889 37.2567 0.265741C37.1034 0.265741 37.1034 0.265741 37.1034 0.265741C36.95 0.212593 36.7967 0.212591 36.7967 0.212591C36.7967 0.212591 36.7967 0.212591 36.7584 0.212591C36.6051 0.265739 36.6051 0.265741 36.6051 0.265741C36.3751 0.31889 36.2601 0.372038 36.3368 0.425186C36.4134 0.478334 36.2601 0.637779 36.2601 0.690928C36.2601 0.744076 36.1451 0.797224 36.1451 0.690928C36.1451 0.584631 36.0684 0.265739 35.9918 0.318888C35.9918 0.318888 35.9918 0.318888 35.9535 0.372036C35.8768 0.425184 35.8768 0.425186 35.8768 0.425186C35.8385 0.531483 35.6851 0.584631 35.6085 0.531483C35.5318 0.478334 35.2252 0.425184 35.1869 0.478333C35.1485 0.584629 34.9952 0.744074 34.9185 0.637777C34.9185 0.637777 34.9185 0.637779 34.9185 0.531483C34.9185 0.265741 34.9185 0.265741 34.9185 0.265741C34.8036 0.265741 34.5736 0.265739 34.4586 0.318888C34.3436 0.372036 33.9603 0.318888 33.922 0.318888C33.8836 0.318888 33.7687 0.372038 33.692 0.425186C33.6153 0.478334 33.3087 0.425184 33.1937 0.372036C33.1937 0.372036 33.1937 0.372038 33.117 0.425186C33.0404 0.478334 33.0404 0.478333 33.0404 0.478333C32.9637 0.637777 32.8487 0.744076 32.7721 0.690928C32.6954 0.637779 32.5038 0.478334 32.5038 0.425186C32.5038 0.425186 32.5038 0.425184 32.5038 0.372036C32.5038 0.318888 32.5038 0.318888 32.5038 0.318888C32.5038 0.265739 32.4654 0.265741 32.4271 0.265741C32.3888 0.265741 32.3121 0.372036 32.2355 0.478333C32.1588 0.584629 31.9288 0.372036 31.8905 0.372036C31.8522 0.372036 31.6988 0.425186 31.6222 0.425186C31.6222 0.425186 31.6222 0.425184 31.6222 0.478333C31.5838 0.637777 31.5838 0.637777 31.5838 0.637777C31.6988 0.637777 31.8522 0.637777 31.9288 0.637777C32.0055 0.637777 32.0438 0.956669 31.9671 0.956669C31.8905 0.956669 31.6222 0.956669 31.6222 0.850372C31.6222 0.850372 31.6222 0.850372 31.5838 0.744076C31.5455 0.637777 31.4689 0.478333 31.3922 0.478333C31.2005 0.478333 31.3539 0.690928 31.2772 0.797224C31.2772 0.797224 31.1622 0.744076 31.0856 0.584631C31.0089 0.478333 30.5873 0.478333 30.4723 0.478333C30.3573 0.478333 30.204 0.744074 30.1656 0.637777C30.1273 0.531481 30.3956 0.425186 30.434 0.425186C30.434 0.425186 30.4723 0.31889 30.434 0.265741C30.434 0.265741 30.4339 0.265741 30.3956 0.265741C30.319 0.265741 30.319 0.265741 30.319 0.265741C30.2423 0.31889 30.089 0.425184 29.974 0.584631C29.974 0.584631 29.974 0.584631 29.9357 1.06297C29.9357 1.11612 29.7823 1.22241 29.7823 1.22241C29.4374 0.903521 29.5524 1.27556 29.514 1.435C29.4757 1.48815 29.4374 1.43501 29.4374 1.32871C29.4374 1.22241 29.3607 1.00982 29.2841 1.11611C29.2074 1.22241 29.0924 0.797224 29.0541 0.744076C29.0157 0.690928 28.9008 0.425186 28.8624 0.425186C28.8241 0.425186 28.5558 0.425186 28.3641 0.425186C28.3641 0.425186 28.3641 0.425186 28.1725 0.425186C28.1342 0.425186 28.1342 0.425186 28.1342 0.425186C28.0958 0.425186 28.0575 0.425184 28.0575 0.478333C28.0575 0.531481 28.0575 0.637779 28.0575 0.690928C28.0575 0.744076 28.2108 0.956669 28.2875 0.903521C28.2875 0.903521 28.2875 0.903521 28.3641 0.903521C28.4408 0.903521 28.4408 0.903521 28.4408 0.903521C28.4791 0.850372 28.5941 0.797224 28.7091 0.744076C28.7091 0.744076 28.7091 0.744076 28.7858 0.744076C28.8241 0.744076 28.9008 0.744076 28.9008 0.797224C28.9391 0.903521 28.9391 0.903521 28.9391 0.903521C28.9774 1.06297 29.0924 1.16926 29.1691 1.16926C29.1691 1.16926 29.1691 1.16926 29.2074 1.22241C29.2841 1.32871 29.2841 1.48815 29.3224 1.5413C29.4757 1.70075 29.4757 1.70075 29.4757 1.70075C29.399 1.80704 29.284 1.91334 29.2457 1.96649C29.2074 1.96649 29.0541 1.91334 29.0541 1.75389C29.0541 1.59445 28.9391 1.16926 28.8241 1.16926C28.8241 1.16926 28.8241 1.16926 28.7474 1.06297C28.6708 0.956671 28.5941 0.903521 28.4408 1.00982C28.3641 0.903521 28.3641 0.903521 28.3641 0.903521ZM29.5907 2.12593C29.514 2.17908 29.399 2.17908 29.399 2.17908C29.399 2.17908 29.399 2.07279 29.4757 2.01964C29.514 1.96649 29.8207 1.91334 29.974 2.01964C29.974 2.01964 29.974 2.01964 30.1273 1.86019C30.1273 1.86019 30.204 1.86019 30.204 1.91334C30.2423 1.96649 30.2423 1.96649 30.2423 1.96649C30.319 2.07278 30.319 2.17908 30.204 2.17908C30.089 2.17908 29.7057 2.07279 29.5907 2.12593ZM26.8309 1.86019C26.7159 1.80704 26.6393 1.70075 26.6776 1.59445C26.7159 1.48815 26.9843 1.70075 27.0226 1.75389C27.0609 1.80704 27.3676 1.80704 27.4442 1.80704C27.5209 1.80704 27.8275 1.86019 27.7892 1.96649C27.7509 2.07278 27.4825 1.96649 27.4059 1.96649C27.3292 1.96649 27.1376 1.96649 27.0226 2.01964C27.0226 2.01964 27.0226 2.01964 26.9076 1.96649C26.8309 1.86019 26.8309 1.86019 26.8309 1.86019ZM93.6783 16.6886C93.7933 16.6354 93.8316 16.6886 93.7933 16.7949C93.755 16.9012 93.5633 17.2732 93.4867 17.4858C93.4867 17.4858 93.4867 17.4858 93.3333 17.2201C93.2183 17.0075 93.2183 17.0075 93.2183 17.0075C93.1034 17.0606 93.065 17.1138 93.1417 17.0606C93.2183 17.0606 93.5633 16.7417 93.6783 16.6886ZM49.1773 1.80704C49.0623 1.80704 48.909 1.75389 48.909 1.70075C48.9473 1.59445 48.9473 1.59445 48.9473 1.59445C48.909 1.48815 48.909 1.38186 48.9856 1.32871C49.024 1.27556 49.2156 1.435 49.3306 1.435C49.3689 1.5413 49.2923 1.80704 49.1773 1.80704ZM95.3265 16.848C95.2498 17.0075 95.2115 17.0075 95.2498 16.848C95.2882 16.6886 95.5948 16.5291 95.6715 16.5291C95.6715 16.5291 95.6715 16.5291 95.6715 16.6886C95.6715 16.7417 95.6715 16.7417 95.6715 16.7417C95.7481 16.9012 95.6715 16.9012 95.4798 16.7417C95.4798 16.7417 95.4798 16.7417 95.4032 16.7949C95.3265 16.848 95.3265 16.848 95.3265 16.848ZM25.9493 2.01964C25.7194 1.96649 25.6044 1.91334 25.7194 1.91334C25.796 1.91334 26.0643 1.75389 26.1027 1.70075C26.1793 1.6476 26.371 1.59445 26.371 1.6476C26.371 1.70075 26.2943 1.91334 26.1793 1.86019C26.1793 1.86019 26.1793 1.86019 26.141 1.86019C25.9493 2.01964 25.9493 2.01964 25.9493 2.01964ZM35.3785 1.48815C35.3402 1.48815 35.3402 1.32871 35.4168 1.11611C35.4168 1.11611 35.4168 1.11612 35.5318 1.06297C35.6468 0.956671 35.6468 0.956669 35.6468 0.956669C35.7618 0.850372 35.9151 0.797224 35.9918 0.797224C35.9918 0.797224 35.9918 0.797224 35.9918 0.850372C36.0301 0.903521 36.0301 0.903521 36.0301 0.903521C36.0301 1.00982 35.9151 1.06297 35.7618 1.06297C35.7618 1.06297 35.7618 1.06297 35.6851 1.11611C35.6085 1.16926 35.6085 1.16926 35.6085 1.16926C35.5702 1.32871 35.4168 1.48815 35.3785 1.48815ZM66.4641 1.48815C66.5407 1.5413 66.5407 1.59445 66.5024 1.6476C66.4641 1.70075 66.3108 1.86019 66.2724 1.91334C66.2341 1.96649 66.0808 1.91334 66.1191 1.75389C66.1574 1.59445 66.4257 1.48815 66.4641 1.48815ZM32.3121 1.22241C32.2738 1.38186 32.2738 1.38186 32.3121 1.22241C32.3121 1.11612 32.2738 0.797224 32.3504 0.797224C32.4271 0.797224 32.3121 1.06297 32.3121 1.22241ZM2.91307 11.0017C2.98973 11.0017 3.02806 11.0549 3.02806 11.1612C2.87474 11.1612 2.83641 11.2675 2.83641 11.4269C2.83641 11.4801 2.83641 11.4801 2.83641 11.4801C2.79808 11.5863 2.75975 11.5332 2.68309 11.4269C2.64476 11.2675 2.83641 11.0549 2.91307 11.0017ZM1.60986 8.45059C1.60986 8.50374 1.5332 8.55689 1.49487 8.61004C1.49487 8.61004 1.49487 8.61004 1.45654 8.66319C1.41821 8.71634 1.37988 8.76948 1.30322 8.71634C1.22656 8.66319 1.18823 8.61004 1.30322 8.50374C1.37988 8.45059 1.22656 8.18485 1.41821 8.18485C1.45654 8.18485 1.5332 8.3443 1.60986 8.45059Z" fill="#FFB820"/>
</svg>
