<svg width="1440" height="93" viewBox="0 0 1440 93" fill="none" xmlns="http://www.w3.org/2000/svg">
<path d="M1408.4 19.8002C1400.2 19.9002 1392.1 19.5002 1383.9 19.6002C1380.8 19.6002 1377.9 19.0002 1375.1 18.4002C1372.9 17.9002 1370.7 17.6002 1368.5 17.5002C1361 17.4002 1353.4 17.5002 1346.2 17.4002C1338.7 17.3002 1331.4 17.4002 1323.9 15.5002C1321.1 14.7002 1318 14.9002 1315.1 15.1002C1301.6 15.1002 1288.1 14.7002 1274.9 15.2002C1268.9 15.4002 1263 15.3002 1257.3 13.4002C1255.1 12.9002 1252.9 12.6002 1250.7 12.5002C1242.5 12.4002 1234.4 12.5002 1226.2 12.6002C1218.7 12.7002 1211.1 12.9002 1203.9 13.0002C1197.9 13.2002 1192 12.8002 1186 11.4002C1181.6 10.3002 1177.2 10.5002 1172.5 10.9002C1168.7 11.1002 1165.2 12.3002 1161.8 12.8002C1157.4 13.2002 1153 10.9002 1148.7 11.1002C1145.6 11.1002 1142.7 11.0002 1139.6 11.0002C1133.6 10.9002 1127.7 11.1002 1121.7 11.0002C1117.9 10.9002 1114.2 10.6002 1110.7 9.80016C1107.9 9.00015 1104.8 8.70015 1101.9 8.90015C1083.3 9.40015 1064.5 8.30015 1046 9.30014C1043.8 9.50014 1041.6 9.50014 1039.4 8.90014C1035.6 8.10014 1032.2 8.00014 1028.4 8.50014C1027.8 8.50014 1026.8 8.20014 1026.2 8.20014C1023.4 7.40014 1020.6 7.60014 1017.4 8.60014C1011.7 10.3001 1005.7 10.7001 999.8 8.60014C995.5 7.00014 991 7.40013 986.6 7.40013C982.8 7.30013 979.1 7.50013 975.6 8.70013C970.5 10.7001 965.8 10.6001 960.5 9.20013C957.7 8.40013 954.5 8.60013 951.7 8.50013C942 8.60013 932.2 8.70012 922.5 9.00012C915.9 9.10012 909 9.00012 902.8 6.90012C900 6.10012 896.8 6.30012 894 7.30012C890.5 8.50012 886.7 9.00012 883 8.10012C881.4 7.80012 880.2 7.80011 878.6 8.30011C873.5 9.80011 868.2 9.70011 863.2 8.00011C860.4 7.20011 857.3 7.10011 854.4 7.30011C850.6 7.80011 847.1 9.00011 843.7 9.40011C839.3 10.1001 834.9 7.50011 830.5 7.90011C826.1 8.30011 821.7 8.80011 817.3 9.5001C812.9 8.7001 808.5 7.8001 804.1 8.0001C803.5 8.0001 802.5 8.0001 801.9 8.0001C772 8.5001 742.2 9.10009 712.3 9.40009C709.1 9.30009 706.3 9.00009 703.5 8.50008C701.9 8.20008 700.7 8.20009 699.1 8.70008C693.7 9.40008 690.3 9.80008 686.5 9.80008C682.1 9.70008 677.4 9.90008 673 9.60008C670.8 9.60008 668.6 9.00008 666.4 8.70008C664.8 8.40008 663.6 8.10008 662 8.60008C656.9 10.3001 651.9 10.7001 646.5 10.6001C637.4 10.7001 628.6 10.6001 619.5 10.4001C617.3 10.4001 615.1 10.1001 612.9 9.50007C607.9 8.20007 602.6 7.80007 597.6 7.70007C591 7.80007 584.1 8.00006 577.5 7.90006C574.7 7.90006 571.5 7.80006 568.7 7.00006C562.1 5.60006 555.6 5.00006 548.6 5.20006C535.1 5.50006 521.6 5.30005 508.4 6.10005C505.6 6.30005 502.4 6.30005 499.6 6.20005C494.3 5.90005 489.2 6.00005 483.9 6.20005C480.1 6.40005 476.4 6.30005 472.6 6.50004C469.4 6.40004 466.6 5.90004 463.8 5.10004C457.3 2.70004 450.7 3.40004 444 5.00004C442.7 5.50004 441.1 6.00004 439.9 6.20004C437 6.90004 433.9 7.10004 431.1 6.60004C428.9 6.60004 427.1 5.50004 424.8 5.50004C416 5.40003 406.9 3.90003 398.1 4.80003C393.4 5.00003 389 4.90003 384.6 4.80003C382.4 4.80003 380.2 4.20003 378 3.70003C374.9 2.90003 372 3.40003 369.2 4.30003C367 5.00003 364.8 5.00003 362.6 4.70003C360.4 4.40002 358.2 3.90002 356 4.60002C350.9 6.00002 345.6 5.70002 340.6 6.10002C334.6 6.50002 328.7 6.40002 323 4.80002C320.2 4.00002 317 4.20002 314.2 4.10002C295.7 4.10001 276.8 4.30001 258.3 4.20001C253 4.10001 247.9 4.00001 242.6 2.7C240.4 2.2 238.2 1.9 236 2.1C212.1 2.5 188.2 1.79999 164.4 2.69999C155.6 3.09999 146.5 2.89999 137.4 2.99999C134.3 2.89999 131.4 2.89999 128.6 2.09998C123.6 0.499984 118.6 0.099983 113.2 0.299982C88.6998 0.699978 63.8998 1.29997 39.2998 2.19997C28.2998 2.79997 17.2998 3.09996 5.99982 2.89996C3.99982 2.79996 1.99982 2.79996 -0.000183551 2.79996L-0.000199322 93L1441.5 93.0002L1441.5 19.8002C1430.5 19.6002 1419.3 19.5002 1408.4 19.8002ZM1124 21.5002C1121.8 21.2002 1121.5 20.4002 1123.4 19.7002C1124 19.5002 1125 19.7002 1125.6 20.0002C1125.9 20.0002 1125.9 20.8002 1126.2 21.0002C1125.3 21.3002 1124.6 21.8002 1124 21.5002ZM1404.9 30.4002C1403.3 30.4002 1402.1 30.1002 1400.9 29.3002C1402.2 28.3002 1403.4 28.1002 1405 28.1002C1406.6 27.9002 1407.8 28.1002 1409.1 29.2002C1407.8 29.9002 1406.5 30.4002 1404.9 30.4002Z" fill="#F5F5F5"/>
</svg>
