<svg width="117" height="98" viewBox="0 0 117 98" fill="none" xmlns="http://www.w3.org/2000/svg">
<path d="M112.142 26.8774C112.368 26.8774 112.593 26.9163 112.798 26.9163C112.901 26.9163 113.023 26.9551 113.126 27.0327C113.413 27.2655 113.7 27.3043 113.986 27.3043C114.253 27.3043 114.499 27.3043 114.765 27.3043C114.908 27.3043 115.072 27.3043 115.195 27.3819C115.503 27.5759 115.83 27.6535 116.158 27.7311C116.22 27.7311 116.302 27.8476 116.343 27.964C116.404 28.1192 116.486 28.3132 116.506 28.5072C116.65 29.3609 116.814 30.2146 116.978 31.0683C117.019 31.2624 116.998 31.4952 116.957 31.6892C116.834 32.1161 116.793 32.5817 116.732 33.0862C116.67 33.6294 116.568 34.1339 116.506 34.716C116.465 35.0264 116.465 35.2592 116.568 35.492C116.609 35.6085 116.65 35.7249 116.691 35.8413C116.814 36.3069 116.814 36.7726 116.732 37.2383C116.67 37.5099 116.547 37.6651 116.404 37.7427C116.261 37.8203 116.117 37.8203 115.974 37.8591C115.871 37.8979 115.748 37.9367 115.646 37.9755C115.564 38.0143 115.523 38.1308 115.544 38.286C115.544 38.3248 115.584 38.4024 115.605 38.4412C115.625 38.48 115.666 38.5576 115.687 38.5576C116.056 38.6352 116.404 38.9068 116.711 39.2561C116.752 39.2949 116.773 39.3337 116.793 39.3725C116.875 39.4889 116.896 39.7605 116.793 39.8769C116.486 40.2262 116.506 40.6142 116.629 41.1187C116.691 41.3515 116.752 41.6232 116.752 41.8948C116.752 42.244 116.773 42.5933 116.752 42.9425C116.711 43.2917 116.629 43.6022 116.424 43.6798C116.384 43.6798 116.343 43.7186 116.322 43.7574C116.281 43.7962 116.24 43.8738 116.24 43.8738C116.281 43.9902 116.343 44.029 116.424 44.0678C116.527 44.1066 116.65 44.1066 116.752 44.1454C116.834 44.1842 116.937 44.4947 116.916 44.6499C116.875 44.9991 116.773 45.3096 116.834 45.6588C116.875 45.9693 116.855 46.0469 116.752 46.1633C116.588 46.3185 116.424 46.5125 116.281 46.6677C116.179 46.7841 116.158 47.0946 116.24 47.211C116.302 47.2886 116.343 47.405 116.404 47.4826C116.486 47.6379 116.568 47.7543 116.65 47.9095C116.732 48.0647 116.732 48.3363 116.67 48.4916C116.609 48.5692 116.568 48.6856 116.506 48.7632C116.363 48.9572 116.22 49.19 116.117 49.5005C116.015 49.8497 115.851 49.9273 115.646 49.9661C115.503 50.0049 115.359 50.0049 115.216 50.0825C115.134 50.1213 115.093 50.2378 115.093 50.393C115.093 50.5094 115.154 50.6646 115.236 50.6646C115.605 50.7422 115.974 50.7422 116.343 50.8198C116.404 50.8198 116.486 50.9362 116.547 50.975C116.691 51.1303 116.732 51.4407 116.629 51.6347C116.424 52.0228 116.343 52.4108 116.506 52.9541C116.568 53.1481 116.547 53.3421 116.445 53.4973C116.424 53.5361 116.384 53.6137 116.363 53.6137C116.22 53.6914 116.076 53.7302 115.933 53.6914C115.38 53.6137 114.826 53.7302 114.273 53.7302C114.232 53.7302 114.191 53.769 114.171 53.769C114.13 53.8078 114.109 53.8466 114.089 53.8854C114.13 53.9242 114.15 53.963 114.191 54.0018C114.437 54.1182 114.703 54.0018 114.97 54.0794C115.072 54.1182 115.195 54.0794 115.298 54.1958C115.646 54.5451 115.994 54.5451 116.363 54.5839C116.445 54.5839 116.486 54.7391 116.465 54.8167C116.445 54.8555 116.424 54.9331 116.384 54.9331C116.343 54.9719 116.302 54.9719 116.281 54.9719C115.994 54.9719 115.687 54.9719 115.421 55.2435C115.052 55.3599 114.724 55.7092 114.376 55.9032C114.355 55.9032 114.335 56.0196 114.294 56.0584C114.314 56.0972 114.355 56.136 114.376 56.1748C114.478 56.2524 114.581 56.2524 114.703 56.2524C115.072 56.2524 115.441 56.2524 115.81 56.2524C115.994 56.2524 116.158 56.4465 116.302 56.6793C116.384 56.8345 116.384 57.0673 116.322 57.2226C116.281 57.339 116.22 57.3778 116.138 57.4554C116.015 57.5718 116.015 57.7658 116.097 57.9598C116.24 58.3867 116.506 58.5419 116.711 58.8135C116.773 58.93 116.793 59.0464 116.773 59.2016C116.773 59.2792 116.752 59.318 116.732 59.3956C116.691 59.512 116.67 59.6284 116.629 59.7837C116.506 60.2881 116.384 60.3269 116.199 60.2105C116.015 60.0941 115.83 60.0941 115.666 60.2493C115.523 60.3657 115.38 60.4433 115.257 60.5986C115.052 60.8314 114.847 60.8702 114.622 60.8702C113.843 60.8314 113.064 60.8314 112.306 60.8702C112.081 60.8702 112.02 61.0642 112.102 61.3746C112.204 61.8015 112.163 62.1895 112.081 62.5776C112.04 62.7716 112.081 62.9656 112.163 63.1208C112.286 63.3925 112.429 63.5865 112.532 63.8969C112.593 64.091 112.593 64.3238 112.532 64.479C112.45 64.7118 112.327 64.867 112.224 65.0611C112.02 65.4103 111.938 65.876 111.917 66.3804C111.917 66.5744 111.917 66.8073 111.917 67.0013C111.917 67.3505 111.958 67.6998 112.081 67.9714C112.142 68.1266 112.224 68.3206 112.286 68.4759C112.347 68.6699 112.368 68.8639 112.368 69.0579C112.368 69.4848 112.327 69.8728 112.224 70.2609C112.163 70.4937 112.081 70.7265 112.02 70.9982C111.979 71.1922 111.979 71.3862 112.02 71.619C112.061 71.7354 112.081 71.8519 112.122 72.0071C112.142 72.1235 112.183 72.2787 112.183 72.3951C112.163 72.8608 112.204 73.3652 112.061 73.8309C111.979 74.1413 111.938 74.4906 111.958 74.8398C111.999 75.5383 111.958 76.2368 111.876 76.9352C111.835 77.2069 111.835 77.4785 111.876 77.7501C111.938 78.2158 112.02 78.6814 112.122 79.1471C112.142 79.2635 112.142 79.4187 112.102 79.5351C111.999 80.0008 111.938 80.4665 111.938 80.9709C111.938 81.3202 111.856 81.6306 111.753 81.941C111.651 82.2127 111.589 82.5619 111.569 82.9111C111.548 83.532 111.507 84.1529 111.507 84.7738C111.507 85.2782 111.466 85.7439 111.343 86.1707C111.323 86.2483 111.323 86.2871 111.302 86.3647C111.261 86.8304 111.282 87.3348 111.159 87.8005C111.18 87.9557 111.18 88.0721 111.2 88.2274C111.2 88.3826 111.241 88.5378 111.2 88.6542C111.077 89.1975 111.057 89.7407 111.077 90.284C111.098 90.7108 111.057 91.1377 110.954 91.4869C110.893 91.681 110.872 91.875 110.872 92.069C110.852 92.4182 110.852 92.7675 110.811 93.1167C110.79 93.3883 110.688 93.6212 110.565 93.7764C110.299 94.1256 110.053 94.4361 109.745 94.4361C109.622 94.4361 109.54 94.5137 109.438 94.6301C109.295 94.7465 109.151 94.7853 109.008 94.8241C108.741 94.8629 108.496 94.8629 108.229 94.9017C108.086 94.9405 107.922 94.9017 107.799 95.0181C107.389 95.2122 107 95.251 106.59 95.251C105.525 95.251 104.459 95.2898 103.374 95.2898C102.411 95.2898 101.448 95.2898 100.505 95.2898C100.198 95.2898 99.9111 95.3286 99.6447 95.5226C99.5013 95.6002 99.3374 95.6002 99.194 95.5226C99.1325 95.4838 99.0506 95.445 98.9891 95.4062C98.8047 95.3286 98.6203 95.3286 98.436 95.445C98.2925 95.5226 98.1491 95.6002 98.0057 95.6002C97.0837 95.6002 96.1618 95.7166 95.2398 95.6778C94.5842 95.639 93.9081 95.7166 93.2525 95.7166C93.0271 95.7166 92.8222 95.7942 92.5968 95.9106C92.4944 95.9882 92.3715 96.0271 92.269 96.0271C91.5724 96.0659 90.8758 96.1047 90.1793 96.1435C90.0358 96.1435 89.8924 96.2211 89.749 96.2987C89.6466 96.3763 89.5441 96.3763 89.4212 96.3375C89.2368 96.2211 89.0524 96.1823 88.8885 96.3375C88.6426 96.5315 88.3763 96.5315 88.1304 96.5703C87.8436 96.6091 87.5363 96.5703 87.2495 96.5703C86.9626 96.5703 86.6553 96.6479 86.3685 96.8031C86.0816 96.9584 85.7743 96.9584 85.4875 96.8031C85.1392 96.6091 84.7704 96.5703 84.4221 96.2987C84.3197 96.2211 84.1967 96.2599 84.0943 96.3375C83.9304 96.4927 83.746 96.5703 83.5616 96.5703C83.2953 96.6091 83.0494 96.6091 82.8035 96.8031C82.7011 96.8808 82.5987 96.8808 82.4757 96.9196C82.3118 96.9584 80.0991 96.9196 79.9352 96.8807C79.8328 96.8419 79.7098 96.8031 79.6074 96.7255C79.5255 96.6867 79.464 96.6867 79.382 96.7255C79.3206 96.7643 79.2386 96.8031 79.1772 96.8419C78.9518 96.9196 78.7469 96.9196 78.5215 96.7643C78.4396 96.7255 78.3781 96.7255 78.3167 96.7643C77.9274 97.036 77.5176 96.9972 77.1283 96.6867C77.0259 96.6091 76.9235 96.6091 76.8005 96.6867C76.6981 96.7255 76.5957 96.7643 76.4727 96.6867C76.2883 96.5703 76.1039 96.5703 75.9195 96.6867C75.5917 96.8807 75.2639 96.9584 74.9361 96.9584C74.4649 96.9584 73.9732 96.9972 73.502 96.9972C73.2766 96.9972 73.0717 97.1136 72.8463 97.2688C72.7029 97.3852 72.5595 97.3852 72.4161 97.2688C72.3546 97.23 72.2727 97.1912 72.2112 97.1524C72.1088 97.1136 71.9858 97.0748 71.8834 97.1912C71.5966 97.4628 71.3097 97.4628 71.0229 97.3464C70.7975 97.2688 70.5926 97.1136 70.3673 97.2688C70.3058 97.3076 70.2239 97.2688 70.1624 97.23C69.978 97.1136 69.8141 97.1524 69.6297 97.1912C69.1995 97.3464 68.7692 97.4628 68.3185 97.3852C68.1751 97.3464 68.0316 97.3076 67.8677 97.3464C67.1711 97.5016 66.4745 97.3852 65.7779 97.424C65.3067 97.3076 64.815 97.3464 64.3438 97.3852C64.0774 97.424 63.8316 97.3464 63.5857 97.1136C63.5243 97.0748 63.4423 97.036 63.3808 97.1136C63.135 97.3076 62.8891 97.3852 62.6228 97.3852C62.213 97.3852 61.8033 97.424 61.414 97.424C60.9428 97.4628 60.451 97.3852 59.9798 97.2688C59.8774 97.23 59.7749 97.1524 59.652 97.1136C59.5496 97.036 59.4266 97.036 59.3242 97.1136C59.1193 97.23 58.894 97.3076 58.6686 97.3464C58.1154 97.424 57.5622 97.3076 57.009 97.3076C56.9066 97.3076 56.7837 97.2688 56.6812 97.1912C56.3944 96.9972 56.1281 96.9196 55.8207 97.1912C55.5749 97.3852 55.3085 97.3852 55.0627 97.23C55.0012 97.1912 54.9193 97.1136 54.8578 97.0748C54.7963 97.036 54.7144 96.9972 54.6324 96.9972C54.53 96.9972 54.4071 96.9584 54.3046 97.036C54.0588 97.23 53.8129 97.3076 53.5466 97.3076C53.2802 97.2688 53.0344 97.3464 52.768 97.3852C52.1739 97.424 51.5797 97.4628 51.006 97.3464C50.8626 97.3076 50.7192 97.2688 50.5758 97.1912C50.4938 97.1524 50.4324 97.1524 50.3709 97.23C50.0841 97.4628 49.7972 97.3852 49.5104 97.5792C49.4285 97.618 49.367 97.618 49.285 97.5792C48.8138 97.3852 48.3426 97.3464 47.8509 97.424C47.1953 97.5404 46.5191 97.424 45.8635 97.424C45.6791 97.424 45.4947 97.3464 45.3308 97.23C45.2284 97.1524 45.126 97.1912 45.003 97.23C44.9006 97.2688 44.7777 97.3464 44.6752 97.3464C44.122 97.3076 43.5689 97.3852 43.0157 97.3852C42.8723 97.3852 42.7084 97.424 42.5649 97.3852C42.2781 97.3076 41.9708 97.3852 41.684 97.3464C41.602 97.3464 41.5405 97.2688 41.4791 97.23C41.4176 97.1912 41.3357 97.1912 41.2742 97.2688C41.1103 97.424 40.9259 97.5016 40.7415 97.4628C39.1639 97.3852 37.5659 97.4628 35.9883 97.3464C35.6605 97.3076 35.3327 97.3464 34.9844 97.3464C34.8 97.3464 34.6156 97.3076 34.4312 97.1912C34.3287 97.1136 34.2058 97.1912 34.1034 97.23C34.0214 97.23 33.96 97.2688 33.878 97.23C33.5912 97.036 33.3043 97.036 32.997 97.036C32.2594 97.036 31.5219 97.036 30.7843 96.9972C30.5384 96.9972 30.2721 96.9972 30.0262 96.7643C29.9648 96.6867 29.8828 96.6479 29.8214 96.7255C29.5755 96.9196 29.3297 96.9584 29.0633 96.9196C28.797 96.8807 28.5511 96.9195 28.2848 96.9195C28.1004 96.9195 27.916 96.8807 27.7521 96.7643C27.6906 96.7255 27.6087 96.6867 27.5472 96.6479C27.3218 96.5703 27.0965 96.5703 26.8916 96.7643C26.7482 96.8807 26.6047 96.9195 26.4613 96.8031C26.3179 96.6867 26.195 96.6091 26.0311 96.6091C25.6213 96.6091 25.2115 96.6091 24.8223 96.5703C24.5559 96.5703 24.3101 96.5703 24.0642 96.3763C23.9413 96.2987 23.8593 96.4539 23.7979 96.6091C23.7569 96.7255 23.6749 96.7643 23.6135 96.7255C23.4291 96.6091 23.2447 96.5703 23.0603 96.5703C22.3227 96.5703 21.5852 96.5315 20.8476 96.5315C20.5608 96.5315 20.2534 96.4927 19.9666 96.2987C19.7207 96.1435 19.4544 96.2211 19.2085 96.1435C19.0241 96.1047 18.8398 96.0659 18.6554 96.027C18.348 95.6778 18.0202 95.7166 17.6924 95.7166C17.3851 95.7166 17.0983 95.6778 16.8319 95.4062C16.7705 95.3286 16.6885 95.3286 16.627 95.3286C16.5451 95.3286 16.4836 95.3286 16.4017 95.3286C15.5821 95.4062 14.7831 95.2898 13.9636 95.251C13.6972 95.251 13.4514 95.0957 13.2465 94.7853C13.1236 94.5913 12.9802 94.6301 12.8367 94.7465C12.6933 94.8629 12.5499 94.8241 12.4065 94.7077C12.2016 94.5137 11.9967 94.4361 11.7714 94.4361C11.587 94.4361 11.4026 94.4361 11.2182 94.4361C11.0748 94.4361 10.9314 94.3585 10.7879 94.2808C10.6855 94.2032 10.5626 94.2808 10.4601 94.2808C10.3782 94.2808 10.3167 94.3196 10.2348 94.2808C9.94793 94.0868 9.66109 94.0868 9.35378 94.0868C8.6162 94.048 7.87863 94.048 7.14107 94.0092C7.0796 94.0092 6.99765 93.9316 6.93618 93.8928C6.85423 93.854 6.81326 93.7376 6.83374 93.5436C6.85423 93.4271 6.89521 93.2719 6.97717 93.2719C7.26399 93.1943 7.55082 93.1167 7.83765 92.9227C7.89912 92.8839 7.98108 92.9227 8.06303 92.9615C8.26791 93.1167 8.49328 93.1943 8.71865 93.0391C8.92353 92.8839 9.14889 92.8063 9.37426 92.7675C9.45621 92.7287 9.51768 92.6899 9.51768 92.5734C9.51768 92.5734 9.45622 92.4958 9.41524 92.4958C8.86206 92.457 8.30888 92.4182 7.75571 92.4182C7.38693 92.4182 7.01813 92.3794 6.64935 92.3794C6.36251 92.3794 6.05519 92.3406 5.78884 92.1078C5.72738 92.069 5.64543 92.069 5.56348 92.1078C5.09226 92.457 4.62103 92.3406 4.1498 92.263C4.08833 92.263 4.00638 92.1854 3.94492 92.1466C3.8015 92.0302 3.65809 91.9914 3.51467 91.9914C3.2893 91.9526 3.06393 91.9526 2.85905 91.9138C2.81808 91.9138 2.7771 91.875 2.75661 91.8362C2.73612 91.7197 2.79759 91.6421 2.85905 91.5645C3.16637 91.2153 3.47369 91.1377 3.82199 91.2929C3.96541 91.3705 4.10882 91.3705 4.25224 91.2929C4.58005 91.0989 4.90787 91.1377 5.23567 91.3317C5.31763 91.3705 5.37909 91.4093 5.44056 91.3705C5.82983 91.0989 6.23959 91.2541 6.64935 91.2541C6.75179 91.2541 6.87473 91.2929 6.97717 91.3705C7.16155 91.4869 7.32546 91.4481 7.50985 91.3705C8.08351 91.0601 8.67767 91.0213 9.25134 91.4093C9.51768 91.6033 9.74305 91.4093 9.94794 91.0989C9.96842 91.0601 9.96842 90.9437 9.94794 90.9437C9.88647 90.9049 9.80452 90.866 9.74305 90.8272C9.51769 90.7884 9.29231 90.7496 9.08743 90.7884C8.4523 90.9049 7.83765 90.7884 7.20252 90.7496C7.10008 90.7496 6.97717 90.7108 6.87473 90.6332C6.73131 90.5168 6.58788 90.5556 6.44447 90.6332C6.34203 90.672 6.2191 90.6332 6.11666 90.5556C5.97324 90.4392 5.82982 90.4392 5.6864 90.5556C5.39957 90.7496 5.11275 90.7496 4.82591 90.5556C4.51859 90.3228 4.19077 90.284 3.84248 90.3228C3.57613 90.3616 3.33028 90.2452 3.10491 90.0123C2.92052 89.8183 2.75662 89.8959 2.57223 90.09C2.53125 90.1288 2.51076 90.1676 2.46979 90.1676C2.38783 90.2452 2.2649 90.2064 2.18295 89.9735C2.06002 89.6631 1.9166 89.5467 1.71172 89.5467C1.62977 89.5467 1.5683 89.5467 1.48634 89.5079C1.4044 89.4691 1.36343 89.3527 1.36343 89.2363C1.36343 89.1975 1.4044 89.1198 1.44538 89.1198C1.67075 89.081 1.87562 89.0422 2.10099 88.9646C2.18294 88.9258 2.22393 88.8482 2.2649 88.7318C2.32637 88.5766 2.22392 88.3438 2.10099 88.2661C2.06001 88.2661 2.01904 88.2273 1.99855 88.2273C1.89611 88.2661 1.79367 88.3438 1.69123 88.4214C1.54781 88.5378 1.4044 88.5766 1.26098 88.4214C1.19952 88.3438 1.13805 88.305 1.0561 88.2273C0.994637 88.1497 0.933183 88.0721 0.933183 87.9169C0.933183 87.8781 0.994645 87.8393 1.03562 87.8393C1.13806 87.8005 1.26098 87.8005 1.36343 87.8005C2.18295 87.8393 2.98199 87.7617 3.80151 87.7229C3.96542 87.7229 4.08833 87.6065 4.19077 87.4124C4.41615 86.9856 4.70298 86.908 5.0103 86.908C5.74787 86.908 6.48544 86.908 7.22301 86.8692C7.32545 86.8692 7.4279 86.7528 7.50985 86.5587C7.53034 86.5199 7.55082 86.4423 7.53033 86.3647C7.53033 86.3259 7.48936 86.2483 7.46887 86.2483C7.4074 86.2095 7.32546 86.1707 7.26399 86.1319C6.83374 86.0155 6.383 86.0543 5.93227 86.0543C5.37908 86.0543 4.82591 86.0543 4.27274 86.0543C4.04736 86.0543 3.84248 86.0155 3.61711 85.8991C3.47369 85.8215 3.33029 85.8215 3.18687 85.7827C2.73613 85.7439 2.30588 85.7827 1.87563 86.0155C1.73221 86.0931 1.5888 86.0543 1.44538 85.9767C1.36343 85.9379 1.32244 85.8215 1.32244 85.6662C1.32244 85.5886 1.34294 85.5498 1.34294 85.4722C1.36343 85.3946 1.38391 85.3558 1.4044 85.317C1.58879 85.123 1.77318 84.8902 1.99855 84.8125C2.10099 84.7737 2.22392 84.6961 2.30587 84.6185C2.51075 84.3857 2.71564 84.3469 2.94101 84.3469C3.04345 84.3469 3.08443 84.2693 3.04345 84.1529C3.02296 84.1141 3.00247 84.0365 2.96149 84.0365C2.75661 83.8424 2.57222 83.6484 2.32636 83.6872C2.14198 83.6872 1.95758 83.6484 1.77319 83.6096C1.71172 83.6096 1.60928 83.5708 1.56831 83.4932C1.52733 83.4156 1.54782 83.2216 1.54782 83.1051C1.54782 82.9499 1.50684 82.8723 1.42488 82.8335C1.32244 82.7947 1.19953 82.7559 1.09708 82.6783C1.03562 82.6395 0.974145 82.5619 0.912683 82.4455C0.810243 82.2903 0.769266 82.0574 0.810243 81.9022C0.933176 81.3978 1.0561 80.8933 1.17903 80.3888C1.24049 80.1172 1.34293 79.962 1.48634 79.8068C1.58878 79.7292 1.67075 79.6127 1.7527 79.4575C1.79368 79.3799 1.81416 79.2247 1.83465 79.1083C1.85513 78.9919 1.71172 78.6814 1.62977 78.6814C1.58879 78.6814 1.54782 78.6426 1.52733 78.6426C1.34294 78.6426 1.15854 78.6038 0.974146 78.6038C0.789751 78.6038 0.605371 78.565 0.420976 78.565C0.318537 78.565 0.277551 78.4874 0.298044 78.371C0.298044 78.2934 0.339014 78.2546 0.359506 78.2158C0.584871 77.983 0.830736 77.7889 1.09708 77.7889C1.17903 77.7889 1.2405 77.7889 1.32244 77.7501C1.54782 77.7113 1.62978 77.5173 1.65026 77.0905C1.65026 76.9352 1.54782 76.6636 1.46587 76.6636C1.09708 76.586 0.728289 76.5472 0.359507 76.4696C0.257067 76.4308 0.154627 76.3144 0.0726795 76.1979C-0.00927546 76.0815 -0.029768 75.7711 0.0521793 75.6547C0.236574 75.4219 0.420969 75.189 0.605364 74.995C0.707804 74.8786 0.810244 74.801 0.912684 74.801C1.2405 74.7622 1.5683 74.7622 1.89611 74.5682C2.16245 74.5294 2.40832 74.5294 2.67467 74.4906C3.08443 74.4517 3.49418 74.4129 3.88346 74.3741C3.92443 74.3741 3.94492 74.3353 3.9859 74.2965C3.96541 74.2577 3.9654 74.1801 3.94492 74.1801C3.74004 74.0249 3.53517 73.9085 3.39175 73.5204C3.26882 73.21 3.06394 73.21 2.87955 73.1712C2.79759 73.1712 2.73612 73.0936 2.69515 72.9772C2.69515 72.9772 2.73613 72.8608 2.77711 72.8608C2.9615 72.7832 3.14589 72.7055 3.30979 72.5503C3.4737 72.3563 3.67858 72.4339 3.84248 72.3563C3.88346 72.3563 3.92443 72.3175 3.94492 72.2787C3.9859 72.2011 3.96542 72.0847 3.90396 71.9683C3.78102 71.813 3.65809 71.6578 3.55565 71.4638C3.41223 71.231 3.22785 71.1146 3.04345 71.1146C2.7771 71.1146 2.53125 71.0758 2.2649 71.0758C2.16246 71.0758 2.03953 71.0758 1.93709 70.9981C1.50684 70.7265 1.05611 70.7653 0.625857 70.6489C0.54391 70.6101 0.482432 70.5325 0.502924 70.4161C0.502924 70.3385 0.523417 70.2997 0.543902 70.2221C0.605364 70.028 0.707804 69.9116 0.810244 69.8728C0.994639 69.834 1.17903 69.7952 1.36343 69.7564C1.50684 69.7176 1.67074 69.7564 1.79367 69.6788C2.12148 69.446 2.4493 69.4848 2.77711 69.446C3.06394 69.4072 3.37126 69.4072 3.65809 69.3684C3.69907 69.3684 3.71955 69.2907 3.74004 69.2519C3.71955 69.2131 3.71955 69.1355 3.67858 69.1355C3.61711 69.0967 3.53516 69.0579 3.4737 69.0191C3.10491 68.9415 2.73613 68.9803 2.36734 68.9803C2.14198 68.9803 1.91661 68.9803 1.71173 68.9415C1.67075 68.9415 1.62977 68.9027 1.62977 68.8251C1.60928 68.7475 1.65026 68.6311 1.73221 68.6311C1.9166 68.5923 2.10099 68.5923 2.28539 68.5923C2.42881 68.5923 2.57221 68.5535 2.71563 68.437C2.87954 68.2818 3.06394 68.243 3.24833 68.2042C3.57614 68.1654 3.90394 68.1654 4.25224 68.1266C4.35468 68.1266 4.47762 68.1266 4.58006 68.0878C4.78494 68.0102 4.98981 67.7774 5.21518 67.7774C5.44055 67.7774 5.66592 67.7774 5.87081 67.661C5.91178 67.661 5.93227 67.5833 5.95276 67.5445C5.93227 67.5057 5.8913 67.4669 5.85032 67.4281C5.7069 67.3505 5.56348 67.3505 5.42006 67.3505C4.98981 67.3505 4.53908 67.3893 4.10884 67.2341C4.06786 67.2341 4.04737 67.1565 4.02687 67.1177C4.04737 67.0789 4.08834 67.0013 4.10884 67.0013C4.21128 66.9625 4.3342 66.9237 4.43664 66.9237C4.8464 66.8849 5.23567 66.9237 5.64544 66.8073C5.66593 66.8073 5.7069 66.7297 5.72738 66.6908C5.7069 66.652 5.68642 66.5744 5.64544 66.5356C5.44056 66.4192 5.21518 66.458 5.0103 66.264C4.94884 66.1864 4.86689 66.1864 4.80542 66.264C4.64151 66.3804 4.45713 66.458 4.27274 66.458C4.04737 66.458 3.82199 66.4968 3.61711 66.4968C3.39175 66.4968 3.18687 66.4192 2.98199 66.1864C2.92053 66.1088 2.85906 66.07 2.77711 66.0312C2.59272 65.9536 2.42881 65.876 2.2649 65.6819C1.89612 65.3327 1.50685 65.1387 1.09708 65.0999C0.994639 65.0999 0.95367 64.9834 0.994639 64.9058C1.01513 64.867 1.05611 64.8282 1.09708 64.8282C1.69123 64.7894 2.28539 64.7118 2.85905 64.673C3.1254 64.673 3.37126 64.6342 3.61711 64.479C3.71955 64.4014 3.84248 64.4014 3.94492 64.4402C4.12931 64.5178 4.29322 64.5178 4.47762 64.4402C4.66201 64.3626 4.84641 64.3626 5.0308 64.3238C5.35861 64.285 5.68641 64.285 6.03471 64.2462C6.17812 64.2462 6.34204 64.2462 6.46496 64.1298C6.81326 63.8581 7.18204 63.8581 7.55083 63.7805C7.77619 63.7417 7.98107 63.5865 8.14498 63.3537C8.16546 63.3149 8.16547 63.2372 8.16547 63.1984C8.14498 63.1596 8.10401 63.1208 8.06303 63.1208C7.50985 63.1208 6.95667 63.1208 6.40349 63.1208C6.26007 63.1208 6.09617 63.1208 5.97325 63.1984C5.72739 63.3537 5.46104 63.3537 5.21518 63.3925C4.74395 63.4313 4.25225 63.4313 3.78102 63.4701C3.41223 63.4701 3.04344 63.4701 2.69515 63.2372C2.55174 63.1208 2.40832 63.1596 2.2649 63.1596C1.99856 63.1596 1.7527 63.1596 1.50685 63.0044C1.42489 62.9656 1.38391 62.8492 1.36343 62.694C1.34294 62.5388 1.36343 62.4224 1.46587 62.3836C1.52733 62.3447 1.60929 62.3059 1.67075 62.2671C1.89611 62.2283 2.101 62.1895 2.32637 62.1507C2.55174 62.1507 2.75662 61.9955 2.98199 61.9179C3.04345 61.8791 3.1254 61.9179 3.20735 61.9179C3.30979 61.9567 3.41223 61.9955 3.53516 61.9179C3.82199 61.7239 4.10884 61.7239 4.41616 61.7239C4.6825 61.7239 4.92836 61.7239 5.1947 61.7239C5.25617 61.7239 5.33812 61.6463 5.39958 61.6075C5.46105 61.5687 5.5225 61.4522 5.58396 61.3746C5.76836 61.103 5.97324 60.9866 6.19861 60.9866C6.79277 60.9478 7.38693 60.909 7.96059 60.8702C8.06303 60.8702 8.18595 60.8314 8.28839 60.7538C8.53425 60.5597 8.78011 60.4821 9.04646 60.4821C9.27182 60.4821 9.4972 60.4821 9.70208 60.4433C9.80452 60.4433 9.92744 60.4045 10.0299 60.3269C10.2757 60.1717 10.5216 60.0553 10.7675 59.9001C10.9723 59.7448 11.1977 59.706 11.4231 59.706C11.6075 59.706 11.7919 59.5896 11.9558 59.4344C12.0582 59.3568 12.1606 59.2792 12.2631 59.2792C12.6728 59.2404 13.0826 59.2016 13.4514 58.9299C13.6768 58.8911 13.8816 58.8135 14.107 58.7747C14.1685 58.7359 14.2504 58.6971 14.3119 58.6195C14.3734 58.5419 14.4348 58.4255 14.4348 58.3091C14.4348 58.1927 14.3938 58.0763 14.3119 58.0763C14.2095 58.0374 14.0865 58.0374 13.9841 57.9986C13.9021 57.9986 13.8407 57.921 13.8407 57.8046C13.8407 57.7658 13.9021 57.727 13.9226 57.6882C14.0251 57.6494 14.148 57.6494 14.2504 57.6106C14.3324 57.6106 14.4143 57.533 14.4348 57.4166C14.4553 57.3002 14.3938 57.1449 14.3324 57.0673C14.2709 56.9897 14.2094 56.9121 14.148 56.8733C14.0455 56.8345 13.9226 56.7957 13.8202 56.7957C13.3694 56.7569 12.9392 56.7181 12.4884 56.7181C12.2631 56.7181 12.0582 56.6405 11.8328 56.5241C11.6894 56.4465 11.546 56.4465 11.4026 56.4465C10.5831 56.4077 9.78402 56.4077 8.9645 56.4077C8.78011 56.4077 8.59572 56.4077 8.41133 56.3689C8.30889 56.3689 8.20645 56.2524 8.10401 56.136C8.04255 56.0584 7.98108 55.9808 7.91961 55.942L7.9401 55.9808C7.98108 55.6704 8.12449 55.5928 8.22693 55.3987C8.32937 55.2435 8.32937 55.0107 8.24742 54.8555C8.20644 54.7779 8.14498 54.6615 8.08352 54.5838C8.06303 54.545 8.06303 54.4286 8.06303 54.4286C8.24743 54.1958 8.47279 54.1958 8.67768 54.0406C8.84158 53.9242 9.04645 53.9242 9.21036 53.8466C9.25134 53.8466 9.27183 53.7689 9.29232 53.7301C9.3128 53.6525 9.27182 53.5749 9.16938 53.5361C9.08743 53.4973 9.02597 53.4973 8.94402 53.4973C8.90304 53.4973 8.86206 53.4973 8.84158 53.4973C8.43181 53.4973 8.04255 53.2257 7.65327 53.0317C7.61229 53.0317 7.5918 52.9541 7.57132 52.8764C7.57132 52.8376 7.5918 52.76 7.63278 52.7212C7.83766 52.5272 8.04255 52.4496 8.26791 52.3332C8.41133 52.2556 8.55474 52.2556 8.69815 52.2556C9.72256 52.2168 10.7675 52.178 11.7919 52.1004C11.8738 52.1004 11.9353 52.0227 11.9353 51.9451C11.9353 51.9063 11.8738 51.8287 11.8533 51.8287C11.7509 51.7899 11.6279 51.7899 11.5255 51.7899C11.1977 51.7899 10.8699 51.7511 10.5216 51.7511C10.2757 51.7511 10.0914 51.5571 9.92744 51.2467C9.90696 51.2079 9.86599 51.1691 9.8455 51.0914C9.80452 50.975 9.76355 50.8586 9.74305 50.7422C9.72257 50.6646 9.88647 50.3154 9.94794 50.3154C10.0504 50.2765 10.1528 50.1989 10.2757 50.1989C11.0953 50.1601 11.8943 50.1213 12.7138 50.1213C13.9636 50.1213 15.2134 50.1213 16.4836 50.1213C16.8524 50.1213 17.2212 50.0825 17.59 50.0437C17.631 50.0437 17.6719 50.0049 17.6924 49.9273C17.7129 49.8497 17.6719 49.7721 17.5695 49.7721C17.2417 49.7333 16.9139 49.6169 16.5861 49.6557C16.4426 49.6557 16.2992 49.6169 16.1558 49.5005C15.9919 49.3452 15.8075 49.3064 15.6231 49.3064C15.1109 49.3064 14.5987 49.2676 14.066 49.2676C13.7382 49.2288 13.4104 49.2676 13.0826 48.996C12.9802 48.9184 12.8572 48.996 12.7548 49.0736C12.6114 49.19 12.468 49.19 12.3245 49.0736C12.1811 48.9572 12.0377 48.9184 11.8943 48.9184C11.4436 48.8796 11.0133 48.8408 10.5626 48.802C10.5216 48.802 10.4806 48.7244 10.4806 48.6856C10.4806 48.608 10.5216 48.4915 10.6036 48.4915C11.1157 48.4527 11.6279 48.4527 12.1606 48.4527C13.308 48.4527 14.4553 48.4915 15.5821 48.4915C15.9509 48.4915 16.3197 48.4527 16.6885 48.4139C16.7705 48.4139 16.8319 48.2975 16.8114 48.1811C16.8114 48.1035 16.791 48.0647 16.7705 47.9871C16.668 47.7543 16.5451 47.6378 16.3812 47.6766C16.2787 47.7155 16.1558 47.7543 16.0534 47.8319C15.91 47.9483 15.7665 47.9483 15.6231 47.8319C15.4387 47.6766 15.2748 47.7155 15.0904 47.8707C14.947 47.9871 14.7831 48.0259 14.6602 47.9095C14.3119 47.599 13.9431 47.599 13.5743 47.4826C13.4719 47.4438 13.3694 47.3274 13.308 47.1334C13.2465 46.9782 13.267 46.8618 13.3694 46.823C13.4719 46.7453 13.5743 46.7453 13.6972 46.7453C14.148 46.7453 14.5782 46.7453 15.029 46.7453C15.1314 46.7453 15.2543 46.7065 15.3568 46.7065C15.3978 46.7065 15.4182 46.6289 15.4592 46.5901C15.4387 46.5513 15.4182 46.5125 15.3978 46.4737C15.2543 46.3573 15.1109 46.3573 14.9675 46.3573C14.4553 46.3573 13.9431 46.4349 13.4104 46.3185C13.3285 46.3185 13.2875 46.2021 13.267 46.0469C13.267 45.9304 13.267 45.7364 13.226 45.6588C13.185 45.5812 13.0826 45.5424 13.0211 45.5424C12.6524 45.5036 12.2836 45.5036 11.9148 45.4648C11.7714 45.4648 11.628 45.426 11.4845 45.3096C11.3206 45.1544 11.1362 45.1155 10.9518 45.1155C10.5421 45.1155 10.1323 45.0767 9.74305 45.0767C9.64061 45.0767 9.51768 45.0767 9.41524 44.9991C8.92353 44.5723 8.39084 44.7663 7.89913 44.6111C7.79669 44.5723 7.75571 44.4947 7.79669 44.3395C7.81718 44.2618 7.81717 44.223 7.85815 44.1454C7.98108 43.8738 8.18596 43.835 8.34986 43.7186C8.4523 43.6798 8.47279 43.5634 8.43181 43.4082C8.37035 43.1753 8.45231 43.0201 8.53425 42.9037C8.55475 42.8649 8.59572 42.8261 8.59572 42.7485C8.61621 42.6321 8.55475 42.5545 8.47279 42.5545C8.37035 42.5156 8.24742 42.5156 8.14498 42.4768C8.104 42.4768 8.08352 42.438 8.06303 42.3604C8.02205 42.2828 8.06303 42.1664 8.16547 42.1664C8.6367 42.05 9.12842 42.1276 9.59964 42.0888C9.78403 42.0888 9.96842 42.05 10.1323 41.856C10.2348 41.7396 10.3577 41.7396 10.4601 41.8172C10.6445 41.9336 10.8084 42.0112 10.9928 42.0112C11.0953 42.0112 11.2182 42.0112 11.3206 42.0112C12.9802 41.9724 14.6397 41.9724 16.2992 42.05C16.4836 42.05 16.668 42.0112 16.8524 42.0112C16.9344 42.0112 16.9958 41.9336 17.0163 41.856C16.9753 41.8172 16.9549 41.7784 16.9139 41.7784C16.8114 41.7396 16.6885 41.7396 16.5861 41.7396C15.5617 41.7396 14.5168 41.7396 13.4924 41.7008C13.308 41.7008 13.1236 41.7008 12.9392 41.7008C12.8367 41.7008 12.7138 41.662 12.6114 41.5843C12.4475 41.4291 12.2631 41.3903 12.0787 41.3515C11.628 41.3515 11.1977 41.3127 10.747 41.3127C10.4601 41.3127 10.1528 41.2739 9.86598 41.2739C9.76354 41.2739 9.64061 41.2351 9.53817 41.1575C9.3333 41.0023 9.12841 40.8859 8.90304 40.8859C8.61621 40.8471 8.30889 40.8471 8.02205 40.653C7.87864 40.5754 7.73523 40.5754 7.59181 40.5366C6.99766 40.4978 6.40349 40.4978 5.82982 40.459C5.72738 40.459 5.60447 40.4202 5.50202 40.3814C5.46105 40.3814 5.42007 40.3426 5.39958 40.3038C5.37909 40.1874 5.42007 40.1098 5.50202 40.071C5.60447 40.0322 5.72738 39.9934 5.78885 39.7993C5.80934 39.6829 5.74787 39.5277 5.68641 39.4501C5.66592 39.4113 5.62495 39.3725 5.60447 39.3337C5.50202 39.2173 5.39957 39.2173 5.27665 39.2173C4.90786 39.2173 4.55957 39.0232 4.19078 38.7904C3.9859 38.674 3.98591 38.5964 4.10884 38.2084C4.23176 37.8203 4.23176 37.8203 4.08834 37.5099C3.9859 37.277 3.9859 37.1994 4.1498 37.1218C4.3342 37.0442 4.4981 36.889 4.66201 36.7726C4.80542 36.695 4.94884 36.6562 5.09226 36.5786C5.29714 36.4621 5.37909 36.0353 5.25616 35.7637C5.1947 35.6084 5.11275 35.4532 5.0308 35.298C4.94885 35.1428 4.8464 35.0652 4.74396 35.0264C4.55957 34.9876 4.37517 34.9876 4.19078 34.9488C4.10883 34.9488 4.04736 34.8712 4.04736 34.7936C4.04736 34.7548 4.08835 34.6771 4.12932 34.6771C4.19079 34.6383 4.27273 34.5995 4.3342 34.5607C4.47761 34.4443 4.53908 34.2115 4.45712 33.9011C4.39566 33.5906 4.41616 33.3578 4.5186 33.125C4.53908 33.0862 4.55957 33.0086 4.60055 32.9697C4.90787 32.4653 5.27666 32.116 5.66592 31.8832C5.7069 31.8832 5.74788 31.8444 5.76837 31.8444C6.03471 31.9608 6.28057 31.6892 6.52643 31.6116C6.54692 31.6116 6.58789 31.534 6.58789 31.4564C6.58789 31.4176 6.5674 31.34 6.52643 31.34C6.42399 31.2235 6.32154 31.2235 6.19861 31.2235C5.99373 31.1847 5.8708 30.9519 5.82982 30.6027C5.76836 30.2534 5.68641 30.137 5.5225 30.0982C5.05128 30.0594 4.55957 29.9818 4.08834 29.943C4.06785 29.943 4.0064 29.9042 4.0064 29.8654C4.0064 29.7878 4.00638 29.7102 4.04736 29.6714C4.10882 29.5938 4.1703 29.5161 4.1703 29.3609C4.1703 29.3221 4.10883 29.2833 4.08834 29.2833C4.02688 29.2445 3.94492 29.2057 3.88346 29.1669C3.78102 29.0893 3.69907 28.9729 3.65809 28.7789C3.61712 28.5848 3.57615 28.3908 3.49419 28.2356C3.41225 28.1192 3.30981 28.0028 3.18687 28.0416C3.08443 28.0804 2.98199 28.158 2.85905 28.158C2.77711 28.158 2.71565 28.0804 2.67467 27.964C2.6337 27.8475 2.6337 27.6923 2.67467 27.5759C2.7976 27.3043 2.9615 27.1103 3.1459 27.0715C3.33029 27.0327 3.51469 27.0327 3.69907 27.0327C3.78103 27.0327 3.84249 26.9939 3.92444 26.9551C4.10883 26.9162 4.23176 26.5282 4.1703 26.179C4.12932 25.9849 4.08835 25.7909 4.12932 25.5969C4.19079 25.3253 4.3137 25.17 4.45712 25.0536C4.76445 24.782 5.07178 24.5492 5.39958 24.5104C5.48154 24.5104 5.52251 24.3939 5.52251 24.2387C5.50202 24.0835 5.46105 24.0059 5.39958 23.9283C5.35861 23.8895 5.33812 23.8507 5.29714 23.8507C5.1947 23.8119 5.07177 23.7731 4.96933 23.7731C4.3342 23.7731 3.71957 23.7343 3.08443 23.7343C3.00248 23.7343 2.94101 23.7343 2.85905 23.6955C2.63369 23.6955 2.46978 23.385 2.40832 22.9194C2.38783 22.7642 2.4288 22.6477 2.51076 22.6089C2.57222 22.5701 2.65417 22.5313 2.71564 22.5313C3.45321 22.4537 4.19079 22.4149 4.92836 22.4537C5.19471 22.4537 5.44057 22.2985 5.64545 22.0269C5.66593 21.9881 5.68642 21.9105 5.70691 21.8717C5.70691 21.8329 5.68642 21.7941 5.64545 21.7552C5.62495 21.7164 5.58398 21.6776 5.54301 21.6776C5.35861 21.6388 5.17422 21.6388 4.98982 21.6C4.72348 21.6 4.47761 21.5612 4.23176 21.406C4.04737 21.3284 3.86298 21.2896 3.67858 21.2508C3.59663 21.212 3.55566 21.0956 3.55566 20.9792C3.55566 20.9015 3.57615 20.8239 3.59663 20.7851C3.6581 20.6299 3.74005 20.4747 3.822 20.3195C3.92444 20.1255 4.06786 20.009 4.21128 20.009C4.25226 20.009 4.29323 20.009 4.31372 20.009C4.64152 20.0478 4.96933 19.9702 5.27665 19.6986C5.37909 19.621 5.48154 19.5822 5.60447 19.5822C5.8913 19.5434 6.19862 19.5434 6.48545 19.4658C6.66984 19.427 6.83375 19.3106 6.99765 19.0777C7.01814 19.0389 7.05911 18.9613 7.05911 18.9225C7.05911 18.8837 7.01814 18.8061 6.97717 18.8061C6.46497 18.6897 5.97325 18.3405 5.46104 18.3016C5.39958 18.3016 5.29713 18.224 5.27665 18.1076C5.15372 17.7584 4.94884 17.5644 4.74396 17.4091C4.64152 17.3315 4.55956 17.1763 4.55956 16.9435C4.53908 16.7495 4.53908 16.5166 4.5186 16.3226C4.49812 16.1674 4.37517 15.9346 4.29322 15.9346C3.96542 15.8958 3.6376 15.857 3.3098 15.7794C3.22784 15.7794 3.14589 15.6629 3.16638 15.5853C3.20735 15.4689 3.26882 15.4301 3.35078 15.4301C3.49419 15.4301 3.6376 15.3913 3.78102 15.3525C3.84248 15.3137 3.92444 15.2749 3.9859 15.2361C4.08834 15.1585 4.1703 15.0033 4.23176 14.8092C4.1703 14.6152 4.06786 14.5376 4.0064 14.3824C3.94493 14.266 3.94493 14.1496 3.96542 14.0332C4.00639 13.8779 4.06786 13.8003 4.1498 13.8391C4.29322 13.9167 4.41616 13.9943 4.58006 13.9167C4.6825 13.8779 4.80543 13.9555 4.90787 13.9167C5.01031 13.8779 5.11275 13.7615 5.21519 13.6839C5.27665 13.6451 5.3586 13.6451 5.42007 13.6063C5.44056 13.5675 5.46105 13.5287 5.50202 13.4511C5.46105 13.4123 5.44056 13.3735 5.39958 13.3735C5.17422 13.3347 4.94884 13.3347 4.74396 13.3347C4.14981 13.3735 3.55566 13.2959 2.98199 13.1795C2.87955 13.1407 2.77711 13.0242 2.69515 12.869C2.63369 12.7138 2.65418 12.5974 2.73614 12.5198C2.7976 12.481 2.87955 12.4034 2.94102 12.4034C3.16638 12.3646 3.39175 12.3646 3.59663 12.3257C3.67859 12.3257 3.74004 12.2093 3.74004 12.0929C3.74004 11.9377 3.69907 11.8213 3.6376 11.7437C3.4737 11.5497 3.28931 11.5497 3.10492 11.5109C2.9615 11.4721 2.81808 11.3556 2.71564 11.1616C2.69515 11.1228 2.65417 11.0452 2.65417 10.9676C2.65417 10.9288 2.67467 10.8512 2.69515 10.8124C2.75662 10.696 2.90004 10.6184 2.87955 10.3855C2.85906 10.1915 2.75662 10.0363 2.69515 9.88107C2.65418 9.72586 2.67467 9.60944 2.75661 9.57064C2.81808 9.53183 2.90003 9.49302 2.96149 9.49302C3.33028 9.49302 3.69907 9.49302 4.06786 9.45422C4.14981 9.45422 4.21127 9.41541 4.29322 9.41541C4.39566 9.41541 4.5186 9.10498 4.47762 8.98857C4.43665 8.87215 4.37518 8.75574 4.31372 8.71694C4.12933 8.63933 3.94493 8.63933 3.76054 8.60052C3.67859 8.60052 3.61712 8.52291 3.55566 8.4453C3.51468 8.3677 3.63761 7.97965 3.69907 7.94085C3.76054 7.90204 3.82201 7.82443 3.90396 7.78563C4.08835 7.70802 4.27274 7.63041 4.43665 7.514C4.62103 7.35878 4.80542 7.43639 4.96933 7.5528C5.05128 7.5916 5.11275 7.63041 5.17421 7.5528C5.37909 7.39759 5.60446 7.31997 5.82983 7.31997C5.97324 7.31997 6.11667 7.35878 6.28057 7.31997C6.38301 7.31997 6.50594 7.31997 6.60838 7.24237C6.9157 6.97073 7.24351 6.97073 7.57132 6.93193C8.22694 6.89313 8.90305 6.85432 9.55866 6.85432C9.70208 6.85432 9.86598 6.85432 9.98891 6.73791C10.2348 6.54388 10.4806 6.50508 10.747 6.50508C11.1977 6.50508 11.628 6.46628 12.0787 6.42747C12.1811 6.42747 12.3041 6.42747 12.4065 6.34986C12.6524 6.19465 12.8982 6.11703 13.1646 6.11703C13.8612 6.07823 14.5577 6.07823 15.2748 6.03943C15.4592 6.03943 15.6436 6.00062 15.828 5.88421C16.0124 5.7678 16.1763 5.69018 16.3607 5.69018C16.5041 5.69018 16.6475 5.69018 16.8114 5.69018C17.0368 5.65138 17.2417 5.57378 17.4261 5.30215C17.59 5.03051 17.7949 4.87529 18.0407 4.87529C18.8602 4.87529 19.6593 4.83649 20.4788 4.83649C20.9295 4.83649 21.3598 4.83649 21.8105 4.83649C22.0769 4.83649 22.3227 4.75888 22.5686 4.64247C22.671 4.56486 22.794 4.56486 22.8964 4.52605C23.4496 4.40964 24.0028 4.44844 24.5559 4.48724C24.6993 4.48724 24.8428 4.60366 24.9862 4.68127C25.232 4.87529 25.4779 4.9141 25.7442 4.72008C25.8877 4.60366 26.0311 4.52605 26.1745 4.52605C26.5023 4.52605 26.8301 4.40964 27.1579 4.44845C27.5677 4.48725 27.9774 4.40964 28.3667 4.40964C28.5511 4.40964 28.7355 4.37083 28.9199 4.40964C29.3911 4.48725 29.8828 4.37083 30.3541 4.40964C30.8048 4.44844 31.235 4.44845 31.6858 4.44845C32.0136 4.44845 32.3414 4.44845 32.6897 4.44845C32.8741 4.44845 33.0585 4.56486 33.1814 4.83649C33.2224 4.9529 33.2839 5.03051 33.3453 5.10812C33.4068 5.18573 33.4887 5.22453 33.5502 5.18573C33.5912 5.18573 33.6322 5.18573 33.6526 5.14692C34.0009 4.75888 34.3492 4.79768 34.6975 5.14692C34.8 5.26334 34.9024 5.22453 35.0049 5.14692C35.0663 5.10812 35.1278 5.03051 35.2097 4.9529C35.4146 4.79768 35.64 4.79768 35.8449 4.9529C36.0497 5.14692 36.2546 5.30214 36.48 5.26334C36.6234 5.26334 36.7668 5.37975 36.9102 5.45736C37.0127 5.53497 37.1356 5.53497 37.2381 5.45736C37.4429 5.26334 37.6683 5.22453 37.8937 5.22453C38.2625 5.18573 38.6312 5.26334 39 5.18573C39.123 5.14693 39.2049 5.06931 39.1844 4.79768C39.1844 4.64246 39.2049 4.52606 39.2869 4.48724C39.3278 4.48724 39.3483 4.44845 39.3893 4.44845C39.4713 4.44845 39.5532 4.44845 39.5942 4.52606C39.7991 4.75888 40.004 4.79768 40.2293 4.8365C40.3318 4.8365 40.4547 4.79768 40.5571 4.72008C40.721 4.52606 40.8849 4.40964 41.0693 4.40964C41.3357 4.40964 41.5815 4.33203 41.8274 4.17681C41.9298 4.0992 42.0528 4.09921 42.1552 4.09921C42.442 4.0604 42.7494 4.09921 43.0362 4.0604C43.282 4.0216 43.4664 4.21562 43.6303 4.52606C43.7123 4.68128 43.8147 4.75888 43.9377 4.68127C43.9991 4.64246 44.0811 4.56486 44.1425 4.52606C44.3474 4.40964 44.5728 4.33203 44.7777 4.13801C44.9211 4.0216 45.0645 4.02159 45.2079 4.02159C45.4333 4.0604 45.6587 4.0604 45.8635 4.21562C46.2528 4.52606 46.6626 4.44844 47.0723 4.40964C47.2772 4.17681 47.5026 4.25442 47.7075 4.37084C48.3016 4.40964 48.8958 4.48725 49.4694 4.40964C49.6129 4.37084 49.7563 4.37084 49.8997 4.25443C50.2685 3.9828 50.6168 4.0216 50.9856 4.25443C51.17 4.37084 51.3339 4.33203 51.5183 4.17681C51.7436 3.98279 51.9485 4.02159 52.1124 4.40964C52.1534 4.52606 52.2148 4.60366 52.2763 4.68127C52.5836 4.44844 52.9319 4.56486 53.2393 4.25443C53.4032 4.09921 53.5875 4.02159 53.7719 4.02159C53.9154 4.02159 54.0588 4.02159 54.2227 3.98279C54.3661 3.98279 54.5095 3.90518 54.6529 3.78877C54.7963 3.67235 54.9398 3.63355 55.0832 3.63355C55.37 3.63355 55.6773 3.63355 55.9642 3.63355C56.5173 3.63355 57.0705 3.63355 57.6237 3.59474C57.9105 3.59474 58.2179 3.55594 58.5047 3.63356C58.6891 3.67236 58.8735 3.59474 59.0374 3.40072C59.3242 3.09029 59.6315 2.81866 59.9184 2.54702C60.0208 2.46942 60.1232 2.39181 60.2257 2.353C60.8198 2.3142 61.414 2.23659 61.9877 2.27539C62.1721 2.27539 62.3564 2.35301 62.5203 2.50823C62.6638 2.62464 62.8072 2.70224 62.9506 2.70224C63.4013 2.70224 63.8316 2.70224 64.2823 2.74105C64.5487 2.74105 64.7945 2.70224 65.0404 2.54702C65.1428 2.46942 65.2453 2.43061 65.3682 2.43061C65.6345 2.3918 65.8804 2.35301 66.1467 2.39181C66.9663 2.43061 67.7653 2.39181 68.5848 2.353C69.097 2.353 69.6092 2.3918 70.1419 2.43061C70.2444 2.43061 70.3673 2.35301 70.4288 2.19779C70.5107 2.04257 70.5722 1.88736 70.6541 1.73214C70.7361 1.57692 70.859 1.53811 70.9614 1.57692C71.0229 1.61572 71.1049 1.61572 71.1663 1.69332C71.2483 1.77094 71.3097 1.80974 71.3712 1.73214C71.7195 1.46051 72.0883 1.53811 72.4571 1.53811C72.6415 1.53811 72.8259 1.4605 72.9898 1.30529C73.0922 1.18887 73.1946 1.18887 73.2971 1.30529C73.3585 1.34409 73.42 1.4217 73.502 1.49931C73.6454 1.61572 73.7888 1.61572 73.9322 1.57692C74.219 1.4993 74.4854 1.22767 74.7722 1.07245C75.0591 0.87843 75.3459 0.800823 75.6327 0.800823C76.2679 0.800823 76.8825 0.800824 77.5176 0.800824C77.9684 0.800824 78.3986 0.762021 78.8494 0.684407C78.9518 0.684407 79.0747 0.606801 79.1772 0.529194C79.3206 0.451588 79.464 0.490391 79.6074 0.529194C79.6894 0.567998 79.7508 0.567998 79.8328 0.529194C80.0172 0.412778 80.1811 0.373982 80.386 0.373982C81.6767 0.335171 82.9675 0.335172 84.2582 0.296369C84.9548 0.296369 85.6514 0.296369 86.3685 0.296369C86.5938 0.296369 86.7987 0.218755 87.0241 0.102346C87.229 -0.0528743 87.4543 -0.0140712 87.6797 0.102346C87.7412 0.141149 87.8231 0.17996 87.8846 0.17996C88.028 0.17996 88.1714 0.024732 88.3148 0.102346C88.4583 0.141149 88.6017 0.296369 88.7451 0.296369C88.8475 0.296369 88.9705 0.296369 89.0729 0.218755C89.2573 0.0635428 89.4212 0.0635428 89.6056 0.218755C89.708 0.296369 89.8105 0.335172 89.9334 0.335172C90.3432 0.335172 90.7529 0.335172 91.1422 0.335172C91.2856 0.335172 91.429 0.296369 91.5725 0.17996C91.8593 -0.0140632 92.1461 -0.0140708 92.4329 0.218755C92.5354 0.296369 92.6378 0.335172 92.7608 0.335172C93.5393 0.296369 94.3179 0.412779 95.0759 0.412779C95.4037 0.412779 95.7315 0.412779 96.0798 0.412779C96.2642 0.412779 96.4486 0.45159 96.6125 0.567999C96.7969 0.684416 96.9608 0.723219 97.1452 0.762022C97.3706 0.800833 97.5959 0.800825 97.8008 0.839636C97.9442 0.839636 98.0877 0.917242 98.2311 1.03365C98.4769 1.22767 98.7433 1.26648 98.9891 1.07245C99.235 0.917235 99.4808 0.839629 99.7472 0.994849C99.8291 1.03365 99.8906 1.03365 99.9726 0.994849C100.075 0.956046 100.198 0.878432 100.3 0.878432C100.628 0.878432 100.956 0.878439 101.304 0.839636C101.448 0.839636 101.591 0.878432 101.735 0.994849C101.919 1.11127 102.103 1.07246 102.267 0.956046C102.411 0.839636 102.554 0.839629 102.697 0.917243C102.943 1.07246 103.189 1.15007 103.456 1.15007C104.459 1.18887 105.443 1.22768 106.447 1.22768C106.672 1.22768 106.877 1.26649 107.102 1.4217C107.205 1.49931 107.307 1.4993 107.43 1.4605C107.492 1.4217 107.574 1.3829 107.635 1.3829C108.291 1.65452 108.946 1.57692 109.622 1.61572C109.909 1.65453 110.196 1.73213 110.483 1.84855C110.77 1.96496 111.057 1.96496 111.364 2.04257C111.487 2.08137 111.569 2.19779 111.651 2.31421C111.671 2.35301 111.692 2.43062 111.733 2.46942C111.794 2.58584 111.856 2.62464 111.917 2.58584C112.122 2.43062 112.347 2.35301 112.573 2.50823C112.634 2.54703 112.696 2.66344 112.737 2.77986C112.798 2.93507 112.716 3.1679 112.573 3.24551C112.532 3.28432 112.511 3.28432 112.47 3.28432C112.429 3.28432 112.388 3.32312 112.368 3.32312C112.368 3.28432 112.347 3.20671 112.347 3.16791C112.327 3.1291 112.306 3.1291 112.286 3.1291C112.286 3.2067 112.327 3.28432 112.388 3.32312C112.47 3.78877 112.614 4.17682 112.634 4.68127C112.675 5.22454 112.696 5.22454 112.45 5.41856C112.265 5.57378 112.142 5.80661 112.142 6.19466C112.142 6.27226 112.142 6.34988 112.142 6.38868C112.142 6.5439 112.142 6.66031 112.102 6.81552C112.02 7.16476 112.02 7.4752 112.163 7.74683C112.224 7.86325 112.265 7.97966 112.245 8.13488C112.224 8.2513 112.142 8.3289 112.102 8.44531C112.081 8.48412 112.061 8.56173 112.02 8.60053C111.938 8.79456 111.958 9.02738 112.081 9.105C112.183 9.1826 112.286 9.2214 112.388 9.33781C112.47 9.41543 112.491 9.53184 112.491 9.64825C112.491 9.80347 112.45 9.91988 112.388 9.95869C112.327 10.0363 112.245 10.0363 112.183 10.0751C112.04 10.1527 111.999 10.3467 112.081 10.502C112.142 10.6572 112.224 10.8124 112.286 10.9676C112.388 11.2004 112.327 11.4721 112.163 11.6273C112.102 11.6661 112.02 11.7049 111.958 11.7049C111.876 11.7437 111.815 11.8213 111.815 11.9377C111.815 12.0929 111.856 12.2094 111.917 12.287C111.979 12.3646 112.04 12.4034 112.102 12.481C112.245 12.6362 112.245 12.675 112.142 12.9078C112.02 13.1407 112.02 13.1407 112.163 13.3347C112.327 13.6063 112.368 13.7615 112.286 14.0332C112.204 14.3436 112.122 14.654 112.04 14.9645C111.979 15.1973 111.979 15.2361 112.081 15.5077C112.122 15.6241 112.183 15.7018 112.224 15.8182C112.286 16.0122 112.327 16.2062 112.286 16.4002C112.224 16.7883 112.142 17.1763 112.122 17.6032C112.102 17.9524 112.04 18.2629 111.979 18.6121C111.938 18.8449 111.979 19.0389 112.061 19.1942C112.224 19.5822 112.347 20.0091 112.45 20.4359C112.47 20.5523 112.47 20.7075 112.388 20.7851C112.265 20.9404 112.122 21.0568 112.04 21.2896C111.999 21.406 111.979 21.5612 111.979 21.6776C111.979 21.7941 111.999 21.9493 112.04 22.0657C112.142 22.4537 112.061 22.7254 111.897 22.9582C111.794 23.1134 111.794 23.3074 111.897 23.5015C111.999 23.6955 112.102 23.8895 112.204 24.0835C112.265 24.2387 112.347 24.4328 112.306 24.6656C112.163 25.4805 112.122 26.2954 112.163 27.1491C112.122 27.1491 112.102 27.1491 112.081 27.1879C112.061 27.1879 112.061 27.2655 112.061 27.3043C112.102 27.1103 112.142 27.0715 112.142 26.8774ZM9.6611 42.438C9.55866 42.3992 9.45623 42.3992 9.33329 42.3992C9.29232 42.3992 9.27183 42.438 9.23086 42.4768C9.21037 42.5156 9.18987 42.5544 9.16938 42.5933C9.18987 42.6321 9.23085 42.7097 9.25134 42.7097C9.53817 42.8261 9.825 42.7097 10.0913 42.7097C10.1323 42.7097 10.1733 42.6709 10.1733 42.6321C10.1938 42.5545 10.1528 42.438 10.0709 42.438C9.94793 42.438 9.80452 42.438 9.6611 42.438ZM4.27274 88.1497C4.29322 88.1497 4.25224 88.1497 4.23175 88.1497C4.1498 88.1885 4.10883 88.2661 4.12931 88.3438C4.1498 88.3826 4.19078 88.4214 4.21127 88.4602C4.35469 88.499 4.47762 88.499 4.62103 88.4214C4.66201 88.4214 4.68249 88.3438 4.70298 88.305C4.662 88.1885 4.60054 88.1109 4.53908 88.1109C4.45712 88.1497 4.37518 88.1497 4.27274 88.1497ZM61.8238 4.52606C61.9057 4.68128 62.0081 4.68128 62.1106 4.64247C62.1516 4.64247 62.1925 4.60366 62.1925 4.56486C62.213 4.48725 62.1721 4.40964 62.0901 4.37084C61.9467 4.33203 61.8238 4.40964 61.8238 4.52606Z" fill="#00659E"/>
<path d="M5.21505 93.9705C4.86675 93.9317 4.53894 93.9317 4.19065 93.8928C4.14967 93.8928 4.1087 93.854 4.1087 93.7764C4.1087 93.6988 4.14967 93.5824 4.23163 93.5824C4.37504 93.5436 4.51845 93.5048 4.66187 93.466C5.15358 93.0003 5.6658 93.1168 6.15751 93.5048C6.21897 93.5436 6.30093 93.5436 6.36239 93.6212C6.40337 93.66 6.42385 93.6988 6.44434 93.7764C6.44434 93.7764 6.40336 93.854 6.38287 93.8929C6.32141 93.9317 6.23946 93.9705 6.17799 93.9705C5.85018 93.9705 5.52237 93.9705 5.21505 93.9705Z" fill="#00659E"/>
<path d="M11.9144 57.9987C12.0988 57.9987 12.2422 58.1151 12.2012 58.1927C12.1193 58.3479 11.9963 58.3479 11.8939 58.3479C11.8119 58.3479 11.7505 58.3479 11.689 58.3091C11.6685 58.3091 11.6275 58.2315 11.6071 58.1927C11.6275 58.1539 11.6685 58.0763 11.689 58.0763C11.771 57.9987 11.8529 57.9987 11.9144 57.9987Z" fill="#00659E"/>
<path d="M0.933303 83.1439C1.01526 83.1051 1.07672 83.1439 1.13818 83.2603C1.1177 83.3767 1.07672 83.4543 0.994765 83.4543C0.892324 83.4543 0.789884 83.4543 0.687443 83.4543C0.605491 83.4543 0.544019 83.3767 0.564507 83.2991C0.564507 83.2603 0.605488 83.2215 0.646465 83.1827C0.687441 83.1439 0.707929 83.1439 0.748905 83.1439C0.810369 83.1051 0.871839 83.1439 0.933303 83.1439Z" fill="#00659E"/>
<path d="M55.431 2.85731C55.431 2.81845 55.431 2.74073 55.4515 2.74073C55.5541 2.62415 55.6567 2.62415 55.7593 2.70187C55.7798 2.74073 55.8208 2.77958 55.8208 2.81844C55.8208 2.93502 55.6772 3.01274 55.5336 2.93502C55.4925 2.97388 55.4515 2.89617 55.431 2.85731Z" fill="#00659E"/>
<path d="M4.86639 30.7576C4.86639 30.7188 4.86639 30.6411 4.86639 30.6022C4.90743 30.4468 4.96898 30.4468 4.9895 30.6411C4.9895 30.6799 4.9895 30.7576 4.9895 30.7965C4.96898 30.8354 4.94847 30.9131 4.92795 30.9131C4.90744 30.8742 4.88691 30.7965 4.86639 30.7576Z" fill="#00659E"/>
<path d="M9.1897 50.6258L9.12891 50.6646L9.12891 50.548L9.1897 50.6258Z" fill="#00659E"/>
<path d="M6.38306 55.8255C6.30099 55.8255 6.25996 55.7478 6.25996 55.6701C6.28048 55.6701 6.32151 55.6701 6.32151 55.7089C6.34202 55.7478 6.34203 55.8255 6.36254 55.8644L6.38306 55.8255Z" fill="#00659E"/>
<path d="M6.3625 55.8642C6.44457 55.8642 6.4856 55.9419 6.4856 56.0196C6.46508 56.0196 6.42405 56.0196 6.42405 55.9807C6.40353 55.9419 6.40353 55.8642 6.38301 55.8253L6.3625 55.8642Z" fill="#00659E"/>
<path d="M7.91919 55.8253C7.91919 56.0196 7.87866 56.0584 7.81788 56.0584C7.81788 56.0196 7.83813 55.9418 7.83813 55.9418C7.87866 55.8641 7.89893 55.8641 7.91919 55.8253Z" fill="#00659E"/>
<path d="M91.396 41.0319C90.3016 39.9172 89.7976 38.3978 90.0208 36.8571L90.2224 35.4513C90.8272 31.241 87.976 27.3644 83.728 26.6331L82.3096 26.3846C80.7616 26.1148 79.444 25.1776 78.7096 23.8073L78.0328 22.5577C76.0096 18.8018 71.3944 17.3179 67.5208 19.1923L66.2248 19.81C64.8136 20.4916 63.1864 20.4916 61.7752 19.81L60.4864 19.1852C56.6128 17.3179 51.9976 18.7947 49.9744 22.5506L49.2976 23.8002C48.556 25.1705 47.2456 26.1148 45.6976 26.3775L44.2792 26.626C40.0312 27.3573 37.18 31.2339 37.7848 35.4442L37.9864 36.85C38.2096 38.3907 37.7056 39.9101 36.6112 41.0248L35.6104 42.0401C32.608 45.0931 32.608 49.8856 35.6104 52.9386L36.6112 53.961C37.7056 55.0757 38.2096 56.5951 37.9864 58.1358L37.7848 59.5416C37.18 63.7519 40.0312 67.6285 44.2792 68.3598L45.6976 68.6083C47.2456 68.8781 48.5632 69.8153 49.2976 71.1856L49.9744 72.4352C51.4072 75.0906 54.1288 76.61 56.98 76.61C58.1536 76.61 59.356 76.3473 60.4864 75.8006L61.7752 75.19C63.1864 74.5084 64.8136 74.5084 66.2248 75.19L67.5136 75.8148C71.3872 77.6821 76.0024 76.2053 78.0256 72.4494L78.7024 71.1998C79.444 69.8295 80.7544 68.8852 82.3024 68.6225L83.7208 68.374C87.9688 67.6427 90.82 63.7661 90.2152 59.5558L90.0136 58.15C89.7904 56.6093 90.2944 55.0899 91.3888 53.9752L92.3896 52.9599C95.392 49.9069 95.392 45.1144 92.3896 42.0614L91.396 41.0319ZM90.3232 50.979L89.3224 51.9943C87.6088 53.7409 86.8168 56.1336 87.1624 58.5405L87.364 59.9463C87.7528 62.6301 85.9312 65.1009 83.224 65.5695L81.8056 65.818C79.372 66.2369 77.3128 67.7137 76.1608 69.865L75.484 71.1146C74.1952 73.5073 71.2504 74.4587 68.7808 73.2659L67.492 72.6411C65.2744 71.569 62.7256 71.569 60.508 72.6411L59.2192 73.2659C56.7496 74.4587 53.8048 73.5144 52.516 71.1146L51.8392 69.865C50.68 67.7137 48.6208 66.2369 46.1944 65.818L44.776 65.5695C42.0688 65.1009 40.2472 62.6301 40.636 59.9463L40.8376 58.5405C41.1832 56.1265 40.3984 53.7409 38.6776 51.9943L37.6768 50.9719C35.7616 49.0194 35.7616 45.9735 37.6768 44.021L38.6776 43.0057C40.3912 41.2591 41.1832 38.8664 40.8376 36.4595L40.636 35.0537C40.2472 32.3699 42.0688 29.8991 44.776 29.4305L46.1944 29.182C48.628 28.7631 50.6872 27.2863 51.8392 25.135L52.516 23.8854C53.4304 22.1885 55.1656 21.2229 56.98 21.2229C57.7288 21.2229 58.492 21.3862 59.2192 21.7341L60.508 22.3589C62.7256 23.431 65.2744 23.431 67.492 22.3589L68.7808 21.7341C71.2504 20.5413 74.1952 21.4856 75.484 23.8854L76.1608 25.135C77.32 27.2863 79.3792 28.7631 81.8056 29.182L83.224 29.4305C85.9312 29.8991 87.7528 32.3699 87.364 35.0537L87.1624 36.4595C86.8168 38.8735 87.6016 41.2591 89.3224 43.0057L90.3232 44.0281C92.2384 45.9735 92.2384 49.0265 90.3232 50.979Z" fill="white"/>
<path d="M75.4546 36.2039C74.893 35.6501 73.9786 35.6501 73.417 36.2039L52.5442 56.7868C51.9826 57.3406 51.9826 58.2423 52.5442 58.7961C52.825 59.073 53.1922 59.215 53.5594 59.215C53.9266 59.215 54.2938 59.073 54.5746 58.7961L75.4474 38.2132C76.0162 37.6594 76.0162 36.7577 75.4546 36.2039Z" fill="white"/>
<path d="M58.1466 43.7442C59.7162 43.7442 61.2786 43.1549 62.4738 41.9763C64.857 39.6262 64.857 35.7922 62.4738 33.4421C60.0906 31.092 56.2026 31.092 53.8194 33.4421C52.6602 34.5781 52.0266 36.0975 52.0266 37.7092C52.0266 39.3209 52.6602 40.8403 53.8194 41.9763C55.0146 43.1549 56.577 43.7442 58.1466 43.7442ZM55.857 35.4514C56.4906 34.8266 57.3186 34.5142 58.1466 34.5142C58.9746 34.5142 59.8026 34.8266 60.4362 35.4514C61.6962 36.6939 61.6962 38.7245 60.4362 39.967C59.169 41.2095 57.117 41.2095 55.857 39.967C55.245 39.3635 54.9066 38.5612 54.9066 37.7092C54.9066 36.8572 55.245 36.0549 55.857 35.4514Z" fill="white"/>
<path d="M65.5267 53.0238C63.1435 55.3739 63.1435 59.2079 65.5267 61.558C66.7219 62.7366 68.2843 63.3259 69.8539 63.3259C71.4235 63.3259 72.9859 62.7366 74.1811 61.558C75.3403 60.4149 75.9739 58.9026 75.9739 57.2909C75.9739 55.6792 75.3403 54.1598 74.1811 53.0238C71.7979 50.6666 67.9171 50.6666 65.5267 53.0238ZM72.1435 59.5487C70.8835 60.7912 68.8243 60.7912 67.5643 59.5487C66.3043 58.3062 66.3043 56.2756 67.5643 55.0331C68.1979 54.4083 69.0259 54.0959 69.8539 54.0959C70.6819 54.0959 71.5099 54.4083 72.1435 55.0331C72.7555 55.6366 73.0939 56.4389 73.0939 57.2909C73.0939 58.1429 72.7555 58.9452 72.1435 59.5487Z" fill="white"/>
</svg>
