<svg width="112" height="97" viewBox="0 0 112 97" fill="none" xmlns="http://www.w3.org/2000/svg">
<path d="M14.2949 85.7883C14.5479 85.3978 14.8219 85.1747 15.0748 85.0073C15.2224 84.8958 15.3489 84.9516 15.4753 85.0631C15.644 85.2305 15.8126 85.1747 15.9812 84.9516C16.1077 84.7285 16.2341 84.6169 16.3817 84.6169C16.6979 84.6169 17.014 84.5611 17.3302 84.5611C17.4777 84.5611 17.6042 84.6727 17.7307 84.84C17.8571 85.0631 18.0047 85.0073 18.1312 84.84C18.2787 84.6169 18.4052 84.7285 18.5106 85.0074C18.5317 85.0631 18.5527 85.1747 18.5738 85.2305C18.7003 85.5651 18.89 85.5651 19.0375 85.1189C19.1008 84.9516 19.1008 84.7842 19.0586 84.6169C19.0164 84.4496 18.9743 84.2822 18.9111 84.2264C18.6792 83.9475 18.4263 83.8918 18.2155 83.5571C18.1522 83.5013 18.0679 83.5013 18.0047 83.4455C17.3934 83.4455 16.8032 83.4455 16.192 83.4455C15.9812 83.4455 15.7704 83.3898 15.5596 83.1666C15.3699 82.9993 15.1591 82.832 14.9484 82.6646C14.843 82.5531 14.7376 82.6088 14.6322 82.6088C14.5268 82.6088 14.4214 82.5531 14.316 82.5531C14.2106 82.6088 14.1052 82.7204 14.0209 82.7762C13.8734 82.832 13.7258 82.7204 13.6204 82.4973C13.4729 82.2184 13.3464 81.8837 13.22 81.6048C13.1567 81.4375 13.0935 81.4933 13.0513 81.6606C12.967 81.9395 12.8827 82.2742 12.7352 82.2742C12.5244 82.33 12.3136 82.33 12.1239 81.9395C12.0607 81.8279 12.0185 81.7164 11.9553 81.6048C11.871 81.4375 11.7866 81.3259 11.6602 81.2701C11.5126 81.2144 11.3862 81.2144 11.2386 81.2144C11.0911 81.2144 10.9646 81.1028 10.8381 80.9913C10.0372 80.2661 10.0372 80.2661 9.27835 80.2103C8.89894 80.1546 8.49846 80.2661 8.11905 80.0988C8.09797 80.0988 8.03474 80.043 8.03474 79.9872C8.03474 79.7641 8.09797 79.6526 8.14012 79.541C8.20336 79.3737 8.18228 79.2063 8.09797 79.1505C7.92934 79.039 7.73964 78.9832 7.57101 79.039C7.40239 79.039 7.33916 79.2063 7.33916 79.7083C7.33916 80.043 7.27593 80.1546 7.12837 80.0988C7.02299 80.0988 6.9176 79.9872 6.85436 79.7641C6.83328 79.7083 6.83328 79.541 6.83328 79.4852C6.89652 79.039 7.02299 78.7043 7.14945 78.3696C7.29701 78.035 7.46562 77.9234 7.63425 77.9792C7.73964 78.035 7.82395 78.2023 7.92934 78.0907C7.95042 78.035 7.9715 77.9792 7.99258 77.8676C7.99258 77.7561 7.99258 77.6445 7.9715 77.5887C7.90826 77.4772 7.84503 77.4214 7.7818 77.3656C7.40239 77.3098 7.00191 77.3098 6.6225 76.9194C6.53819 76.8078 6.41172 76.8636 6.30633 76.8078C5.84261 76.752 5.37889 76.6963 4.93625 76.6405C4.85194 76.6405 4.80978 76.4731 4.83086 76.3616C4.85194 76.3058 4.89409 76.25 4.91517 76.25C5.12595 76.1942 5.33673 76.1942 5.54752 76.1385C5.73722 76.1385 5.77937 75.9711 5.80045 75.4691C5.80045 75.246 5.82153 75.1344 5.92692 75.0787C6.1377 75.0229 6.34848 75.0229 6.55927 75.0229C6.77004 74.9671 6.79112 74.8556 6.83328 74.1862C6.83328 74.0189 6.87544 73.8515 6.89652 73.6284C6.9176 73.4053 6.8122 73.0706 6.72789 73.0148C6.68574 73.0148 6.66466 72.9591 6.6225 72.9591C6.51711 73.0148 6.41172 73.0706 6.32741 72.9033C6.09555 72.3455 5.84261 72.1782 5.54752 72.2339C5.39996 72.2897 5.2735 72.2339 5.12595 72.2339C5.08379 72.2339 5.04164 72.2897 5.04164 72.3455C5.02056 72.5128 5.06272 72.6244 5.14703 72.6802C5.18919 72.6802 5.21027 72.7359 5.25242 72.7359C5.33673 72.7917 5.37889 72.8475 5.37889 73.0706C5.37889 73.1264 5.31565 73.1822 5.29457 73.1822C4.9784 73.238 4.66223 73.2937 4.34605 73.238C4.24067 73.238 4.13528 73.0706 4.07205 72.8475C3.96665 72.4013 3.81912 72.2339 3.62942 72.2339C3.46079 72.2339 3.27109 72.1782 3.10246 72.1782C2.93384 72.1782 2.74413 72.1224 2.57551 72.0666C2.53335 72.0666 2.51227 71.955 2.49119 71.8993C2.51227 71.8435 2.55443 71.7877 2.57551 71.7319C2.84953 71.5646 3.14462 71.6204 3.41863 71.5646C3.60834 71.5088 3.75587 71.3972 3.92449 71.1741C4.15636 70.8395 4.15636 70.8395 3.98773 70.2817C3.96665 70.2259 3.96665 70.1143 3.96665 70.0585C3.98773 70.0028 4.02989 69.947 4.05097 69.947C4.3039 69.8912 4.53576 69.7239 4.7887 69.6123C4.85194 69.5565 4.93625 69.6681 4.99948 69.7239C5.18919 69.8354 5.35781 69.5565 5.44212 69.1661C5.54752 68.6641 5.65291 68.2178 5.80045 67.7716C5.88477 67.4927 5.84261 67.3254 5.71613 67.158C5.6529 67.0465 5.58967 66.9907 5.52644 66.8791C5.39996 66.656 5.2735 66.5445 5.12595 66.5445C4.45145 66.4887 3.77696 66.6002 3.10246 66.656C2.82845 66.7118 2.53335 66.656 2.25933 66.656C1.98532 66.656 1.77454 66.4887 1.62699 65.8751C1.58483 65.7078 1.5216 65.652 1.47944 65.4847C1.37405 65.2058 1.37405 65.0384 1.47944 64.8711C1.66914 64.648 1.85884 64.4249 2.0907 64.3691C2.65981 64.3133 3.22892 64.2575 3.79803 64.146C3.84019 64.146 3.88234 64.0902 3.88234 64.0344C3.90342 63.9228 3.86127 63.8113 3.77696 63.7555C3.6294 63.6997 3.50294 63.7555 3.35539 63.5882C3.27107 63.4766 3.25 63.3651 3.25 63.1419C3.25 62.9746 3.29216 62.8073 3.37647 62.7515C3.5451 62.6399 3.7348 62.6399 3.90342 62.5841C4.17744 62.4726 4.36714 62.1937 4.47253 61.5243C4.53576 61.1339 4.64115 60.9666 4.7887 60.855C4.83086 60.855 4.85194 60.7992 4.89409 60.7434C4.91517 60.6877 4.9784 60.6319 4.9784 60.5761C4.9784 60.4088 4.93625 60.2414 4.87301 60.1299C4.80978 60.0183 4.74655 59.9068 4.68331 59.9068C4.57792 59.851 4.47253 59.851 4.36714 59.851C3.75587 59.9068 3.16569 59.7394 2.55442 59.6836C2.49119 59.6836 2.42796 59.5721 2.36472 59.4605C2.30149 59.349 2.25933 59.1816 2.25933 59.0143C2.25933 58.8469 2.30148 58.7354 2.3858 58.6796C2.55442 58.6238 2.74413 58.6238 2.91275 58.5681C3.16569 58.5123 3.39755 58.3449 3.58726 57.8429C3.65049 57.6756 3.71372 57.6756 3.77696 57.7314C3.94558 57.7871 3.94557 57.7314 4.02989 57.4525C4.05097 57.3967 4.07205 57.2851 4.07205 57.2294C4.21959 56.6158 4.43038 56.3927 4.68331 56.2253C4.85194 56.1138 4.89409 55.4444 4.76762 55.054C4.74655 54.9982 4.70439 54.9424 4.68331 54.8866C4.53576 54.7751 4.4093 54.8309 4.26175 54.8309C4.15636 54.8309 4.05097 54.8309 3.94557 54.7751C3.69264 54.6635 3.48187 54.2731 3.22893 54.2731C3.01814 54.2731 2.80736 54.2173 2.59658 54.1615C2.51227 54.1615 2.47012 53.9942 2.47012 53.8826C2.47012 53.8268 2.51227 53.7153 2.53335 53.7153C2.59658 53.6595 2.65981 53.6037 2.74413 53.5479C2.8706 53.4364 2.97598 53.1575 3.08138 52.8786C3.16569 52.5997 3.12353 52.3208 3.03922 52.1535C2.89167 51.8746 2.70197 51.9303 2.53335 51.8188C2.51227 51.8188 2.47011 51.7072 2.44903 51.6514C2.47011 51.5957 2.49118 51.4841 2.51226 51.4283C2.74413 50.9821 3.01815 50.759 3.31324 50.759C3.46079 50.759 3.58724 50.7032 3.7348 50.7032C3.94557 50.7032 4.15636 50.5916 4.34606 50.3685C4.45145 50.257 4.55684 50.257 4.66223 50.1454C4.74655 50.0896 4.7887 49.9781 4.76762 49.8107C4.76762 49.6434 4.72547 49.4761 4.64116 49.3645C4.53577 49.2529 4.43038 49.1972 4.32498 49.3087C4.05097 49.5876 3.77696 49.6992 3.50294 49.6992C2.99706 49.6992 2.51227 49.6992 2.00639 49.6992C1.96424 49.6992 1.92208 49.6992 1.901 49.6434C1.83777 49.5318 1.79562 49.4203 1.73239 49.3087C1.71131 49.2529 1.71131 49.1414 1.73239 49.0298C1.75346 48.8625 1.79561 48.6952 1.85884 48.6394C2.06963 48.4163 2.28041 48.472 2.49119 48.4163C2.63873 48.3605 2.61765 48.0258 2.61765 47.8027C2.61765 47.468 2.76521 47.0776 2.89168 47.0218C2.95491 46.966 3.03922 46.9102 3.10246 46.9102C3.37648 46.8544 3.67156 46.8544 3.92449 46.464C3.98773 46.4082 4.05097 46.3524 4.13528 46.3524C4.24067 46.2967 4.34606 46.2967 4.45145 46.2967C4.66223 46.2409 4.87301 46.2409 5.0838 46.1293C5.29457 46.0178 5.48429 45.6831 5.69506 45.6273C5.71614 45.6273 5.75829 45.5157 5.77937 45.46C5.75829 45.4042 5.73721 45.3484 5.71613 45.3484C5.29457 45.2926 4.87301 45.2926 4.45145 45.2926C4.24067 45.2926 4.02989 45.2369 3.84018 44.958C3.75587 44.8464 3.62941 44.7906 3.5451 44.6791C3.46079 44.6233 3.33431 44.6233 3.33431 44.2886C3.33431 44.1213 3.41863 44.0097 3.48187 43.8982C3.5451 43.7866 3.56617 43.6193 3.56617 43.3961C3.54509 43.2288 3.50295 43.0615 3.41863 43.0615C3.3554 43.0057 3.27109 43.0057 3.20785 43.0057C2.84953 42.9499 2.4912 42.9499 2.15395 42.9499C2.0064 42.9499 1.87993 42.8941 1.73239 42.8941C1.69023 42.8941 1.64807 42.7826 1.64807 42.7826C1.64807 42.6152 1.7113 42.5037 1.77453 42.5037C1.98531 42.4479 2.1961 42.3921 2.3858 42.1132C2.53335 41.8901 2.72305 41.8901 2.89168 41.8343C2.97599 41.7785 3.01814 41.667 3.01814 41.5554C3.01814 41.4997 2.9549 41.4439 2.93382 41.3881C2.72305 41.3323 2.51226 41.3323 2.30148 41.2765C2.19609 41.2208 2.0907 41.2208 1.98531 41.1092C1.75345 40.8303 1.50052 40.7745 1.26866 40.7745C1.12111 40.7745 0.994646 40.7187 0.847101 40.663C0.804941 40.663 0.783861 40.5514 0.762781 40.4956C0.783861 40.4398 0.826021 40.3841 0.847101 40.3283C0.952486 40.2725 1.05788 40.2167 1.16327 40.2167C1.83777 40.2167 2.51227 40.2167 3.18677 40.161C3.60833 40.161 4.02989 40.161 4.45145 39.9936C4.47253 39.9936 4.51469 39.8821 4.51469 39.8821C4.51469 39.7705 4.49361 39.6589 4.45145 39.6589C4.26174 39.38 4.07205 39.1569 3.86126 39.1569C3.22892 39.1011 2.59659 39.0454 1.94316 38.9896C1.83777 38.9896 1.73238 38.878 1.64807 38.6549C1.62699 38.5991 1.60591 38.4876 1.58483 38.4318C1.54267 38.2645 1.58483 38.0971 1.69023 38.0971C1.96424 38.0413 2.25933 38.0413 2.53335 37.9856C2.78629 37.9298 3.01814 38.0413 3.25 38.3202C3.27107 38.376 3.31323 38.376 3.35539 38.376C3.50294 38.4318 3.6294 38.3202 3.7348 38.0971C3.81911 37.5951 3.96665 37.4278 4.15636 37.372C4.26175 37.3162 4.36714 37.2047 4.45145 37.0931C4.59899 36.9258 4.72547 36.9815 4.85194 37.1489C4.91517 37.2604 4.97841 37.2604 5.06272 37.2047C5.16812 37.1489 5.25242 37.0373 5.35781 36.9258C5.5686 36.7584 5.77938 36.7027 5.99016 36.87C6.26418 37.0373 6.26417 37.0373 6.49603 36.7584C6.51711 36.7026 6.55927 36.6469 6.58035 36.5911C6.6225 36.4238 6.60143 36.3122 6.49603 36.3122C6.22202 36.2564 5.92692 36.2564 5.65291 36.2006C5.58967 36.2006 5.52644 36.0891 5.44213 36.0891C5.33673 36.0333 5.29458 35.6428 5.35781 35.4197C5.44213 34.9735 5.58967 34.6388 5.7583 34.6388C6.2431 34.583 6.74897 34.5273 7.23377 34.5273C7.33916 34.5273 7.44455 34.583 7.54994 34.7504C7.7818 35.1408 8.01366 35.0851 8.2666 35.0851C8.32983 35.0851 8.41414 35.0293 8.47738 34.9735C8.49845 34.9735 8.56169 34.9177 8.56169 34.8619C8.56169 34.8062 8.54061 34.6946 8.54061 34.583C8.47738 34.3599 8.39307 34.1926 8.28768 34.1368C7.65533 34.0253 7.02298 34.1368 6.36956 33.9695C6.26417 33.9695 6.2431 33.8021 6.22202 33.3559C6.22202 33.0212 6.15879 32.9097 6.01124 32.9097C5.86369 32.9097 5.73722 33.0212 5.67398 33.4675C5.65291 33.5232 5.63183 33.6348 5.58968 33.6348C5.52644 33.6348 5.48429 33.5232 5.48429 33.3001C5.48429 33.1886 5.46321 33.1328 5.46321 33.0212C5.44213 32.6866 5.33673 32.5192 5.25242 32.4634C4.66223 32.2961 4.05097 32.2403 3.43971 32.2961C3.33431 32.2961 3.22893 32.2961 3.12354 32.1845C3.10246 32.1288 3.08138 32.073 3.03922 32.0172C3.0603 31.9614 3.08138 31.8499 3.12354 31.8499C3.39755 31.6268 3.69264 31.9056 3.96665 31.7383C4.05097 31.6825 4.07205 31.571 4.09313 31.3479C4.09313 30.7343 4.11421 30.7343 4.32498 30.8458C4.47254 30.9574 4.47253 30.9574 4.72547 30.7343C4.78871 30.6785 4.87302 30.6227 4.93625 30.6227C5.25242 30.6227 5.5686 30.6227 5.88477 30.6785C5.92693 30.6785 5.948 30.7343 5.99016 30.7343C6.11663 30.9016 6.26417 30.9016 6.39064 30.7343C6.51711 30.5669 6.66466 30.6227 6.8122 30.6785C6.87544 30.7343 6.93868 30.7901 7.02299 30.8458C7.19161 31.0132 7.36024 31.0132 7.52886 30.8458C7.57102 30.7901 7.5921 30.7901 7.63425 30.7343C7.80287 30.5112 7.9715 30.5112 8.14012 30.7343C8.4563 31.069 8.77247 31.0132 9.08864 30.9574C9.19403 30.9574 9.27835 30.7343 9.34159 30.5112C9.36266 30.4554 9.38374 30.3438 9.36267 30.2323C9.36267 30.1765 9.32051 30.1207 9.29943 30.0649C9.06757 29.8976 8.81462 29.9534 8.56169 29.8976C8.09797 29.8418 7.63425 29.8418 7.19161 29.786C7.17053 29.786 7.10729 29.7303 7.10729 29.6187C7.08622 29.5071 7.14945 29.3956 7.23377 29.3398C7.33916 29.284 7.44455 29.284 7.54994 29.284C7.90827 29.2283 8.2666 29.2282 8.60385 29.2282C8.68816 29.2282 8.73032 29.0609 8.68816 28.9494C8.66708 28.8936 8.62493 28.8378 8.60385 28.8378C8.4563 28.782 8.32983 28.782 8.18228 28.782C7.86611 28.782 7.54994 28.8378 7.25485 28.3916C7.19161 28.3358 7.1073 28.3358 7.04407 28.3916C6.89652 28.5031 6.77005 28.5031 6.6225 28.3916C6.41172 28.1684 6.20094 28.2242 5.99016 28.2242C5.77938 28.1684 5.5686 28.2242 5.35781 28.1684C5.25242 28.1684 5.16812 28.0011 5.06272 27.8338C4.95733 27.2202 4.72547 27.1644 4.51469 27.1644C4.3039 27.1086 4.09313 27.1086 3.88234 27.1086C3.58725 27.1644 3.33431 26.8855 3.08138 26.4951C2.9549 26.3277 2.91276 25.8257 2.99707 25.5468C3.12354 25.1564 3.25 24.9333 3.43971 24.9333C3.48187 24.9333 3.50294 24.9333 3.5451 24.9333L3.52403 24.8775C3.56618 25.0448 3.60832 25.2122 3.67156 25.2122C3.98773 25.3795 4.3039 25.3795 4.62008 25.2122C4.70439 25.1564 4.74655 24.989 4.72547 24.8217C4.70439 24.6544 4.66223 24.487 4.599 24.487C4.53577 24.487 4.45145 24.487 4.38822 24.5986C4.26175 24.7659 4.17744 24.6544 4.11421 24.4312C4.05097 24.2081 3.98773 23.985 3.92449 23.7619C3.86126 23.5388 3.77696 23.3715 3.67156 23.3157C3.56617 23.3157 3.46078 23.3157 3.35539 23.2599C3.29215 23.2599 3.20784 23.2041 3.14461 23.2041C3.12353 23.2041 3.08139 23.0925 3.06031 23.0368C3.03923 22.9252 3.0603 22.7579 3.14461 22.7021C3.9245 22.5905 4.70439 22.5905 5.48429 22.5905C6.85436 22.5905 8.24552 22.7021 9.6156 22.5348C9.69991 22.5348 9.74207 22.3674 9.72099 22.2559C9.69991 22.2001 9.65776 22.1443 9.63668 22.0885C9.59452 22.0327 9.57344 22.0327 9.53128 22.0327C8.54061 22.0327 7.54994 21.977 6.55927 21.977C6.36956 21.977 6.20094 21.9212 6.03231 21.6981C5.90584 21.5307 5.7583 21.5307 5.61075 21.5307C5.0838 21.5307 4.55685 21.475 4.00881 21.475C3.6294 21.475 3.22893 21.5865 2.84952 21.3634C2.82845 21.3634 2.78628 21.2518 2.76521 21.1961C2.78628 21.1403 2.82845 21.0287 2.84952 21.0287C3.20785 20.8614 3.54509 20.8614 3.90342 20.9172C4.26175 20.9172 4.62008 20.9729 4.95733 20.8614C5.06272 20.8056 5.10488 20.5825 5.02056 20.2478C4.95733 20.0247 4.8941 19.8016 4.85194 19.5227C4.83086 19.3554 4.85194 19.1322 4.85194 18.9649C4.85194 18.9091 4.80978 18.8533 4.7887 18.7976C4.62007 18.6302 4.43038 18.6302 4.26175 18.6302C3.75587 18.686 3.27108 18.6302 2.76521 18.5744C2.72305 18.5744 2.70197 18.5744 2.65982 18.5744C2.51227 18.5744 2.53335 18.3513 2.6809 18.1282C2.89168 17.7935 3.12354 17.5704 3.37648 17.5704C4.05097 17.5704 4.72547 17.5704 5.39997 17.5704C6.13771 17.5704 6.89652 17.5704 7.63425 17.5704C7.73964 17.5704 7.84503 17.5704 7.95043 17.5704C8.58277 17.4031 9.21511 17.5704 9.84746 17.4031C9.88961 17.4031 9.91069 17.2915 9.93177 17.2357C9.91069 17.18 9.88961 17.1242 9.84746 17.0684C9.74207 17.0126 9.63668 16.9568 9.53128 16.9568C9.21511 16.9568 8.89894 17.0126 8.58277 17.0684C8.47738 17.0684 8.37199 17.0684 8.2666 16.9568C8.03474 16.678 7.80288 16.5664 7.54994 16.5106C6.41172 16.4548 5.2735 16.4548 4.15636 16.3991C3.98773 16.3991 3.79804 16.3433 3.62942 16.1759C3.50295 16.0644 3.3554 16.0086 3.20785 16.0086C2.95491 16.0086 2.70198 15.9528 2.47012 16.0086C2.11179 16.0644 1.77453 15.7855 1.45835 15.3393C1.43728 15.2835 1.39513 15.2277 1.37405 15.1719C1.2265 14.893 1.0368 14.8372 0.868174 14.8372C0.615237 14.8372 0.3623 14.8372 0.130435 14.7815C0.0461224 14.7815 -0.0171024 14.6141 0.00396999 14.5026C0.02505 14.3352 0.109355 14.2794 0.193667 14.2794C0.910327 14.2794 1.60591 14.1679 2.32257 14.2794C2.5755 14.3352 2.82845 14.2794 3.06031 14.2794C3.43971 14.2794 3.84019 14.2794 4.2196 14.2794C4.49361 14.2794 4.78871 14.2237 5.06272 14.1679C5.16812 14.1679 5.2735 14.0563 5.35781 13.9448C5.52644 13.7774 5.69506 13.6101 5.86369 13.6101C6.17986 13.5543 6.49604 13.5543 6.81221 13.4985C6.85437 13.4985 6.89652 13.4428 6.89652 13.387C6.9176 13.2754 6.85436 13.1639 6.77005 13.1639C6.51711 13.1081 6.28525 13.1081 6.03231 13.0523C6.01123 13.0523 5.96908 12.9965 5.948 12.885C5.90584 12.7734 5.948 12.6061 6.03231 12.6061C6.77005 12.383 7.52886 12.4387 8.2666 12.5503C8.37199 12.5503 8.47738 12.6619 8.58277 12.7176C8.64601 12.7734 8.70924 12.7734 8.79355 12.7176C9.02541 12.4945 9.27835 12.4387 9.53128 12.4387C9.67884 12.4387 9.82638 12.4387 9.95285 12.2714C10.1847 11.9925 10.4166 11.9367 10.6695 11.7694C10.7327 11.7136 10.796 11.6578 10.8592 11.6021C11.0278 11.3789 11.1965 11.3789 11.3651 11.6021C11.4283 11.7136 11.5126 11.7136 11.5759 11.6578C11.8499 11.3789 12.1239 11.3232 12.3979 11.2116C12.419 11.2116 12.4401 11.1 12.4822 11.0443C12.4611 10.9885 12.4401 10.9327 12.3979 10.8769C12.145 10.7096 11.9131 10.7096 11.6602 10.7654C11.1332 10.7654 10.6063 10.7096 10.0582 10.8211C9.84746 10.8769 9.63668 10.8211 9.4259 10.6538C9.38374 10.6538 9.36266 10.5423 9.34159 10.5423C9.36266 10.4865 9.38374 10.4307 9.4259 10.3749C9.69991 10.2076 9.99501 10.2076 10.269 10.2076C10.7749 10.2076 11.2597 10.2076 11.7656 10.2076C11.8288 10.2076 11.9131 10.1518 11.9764 10.096C12.0185 10.096 12.0396 9.98447 12.0607 9.92869C12.0396 9.87291 11.9974 9.81712 11.9764 9.76134C11.7234 9.59401 11.4916 9.64979 11.2386 9.70557C10.7117 9.76134 10.1847 9.70557 9.63668 9.64979C9.48913 9.64979 9.36266 9.53823 9.23619 9.37089C9.10972 9.20356 8.96218 9.09199 8.83571 9.14777C8.16121 9.14777 7.4867 9.20355 6.81221 9.20355C6.49604 9.20355 6.17986 9.14778 5.86369 9.092C5.82154 9.092 5.80046 8.98043 5.77938 8.98043C5.80046 8.86887 5.86369 8.75732 5.948 8.75732C6.22202 8.70154 6.51711 8.64577 6.79113 8.64577C8.28768 8.64577 9.76315 8.58998 11.2597 8.58998C11.5759 8.58998 11.892 8.53421 12.2082 8.53421C12.2504 8.53421 12.2925 8.47842 12.2925 8.42265C12.3136 8.2553 12.2714 8.14375 12.2082 8.08797C12.1661 8.0322 12.145 8.03219 12.1028 8.03219C12.0185 8.03219 11.9553 7.97642 11.9131 7.80908C11.871 7.64174 11.9553 7.19551 12.0396 7.13973C12.1028 7.08395 12.1661 6.97239 12.2293 6.97239C12.3768 6.91661 12.5033 6.86083 12.6509 6.80505C12.7352 6.74928 12.7773 6.58194 12.7773 6.4146C12.7773 6.24726 12.7562 6.07993 12.693 5.96837C12.6298 5.85681 12.5455 5.74525 12.5244 5.63369C12.5033 5.46635 12.5876 5.3548 12.6509 5.24323C12.7352 5.13168 12.7352 4.96434 12.7352 4.797C12.7141 4.35077 12.8195 4.18344 12.9881 4.35078C13.0303 4.40656 13.0513 4.40656 13.0935 4.46233C13.1567 4.51811 13.22 4.62967 13.2832 4.74123L13.2621 4.68545C13.3464 5.02012 13.4518 5.18746 13.6204 5.18746C13.8945 5.18746 14.1896 5.24324 14.4425 4.85278C14.5057 4.797 14.59 4.79701 14.6533 4.85278C14.8008 4.96434 14.9273 5.0759 15.0538 4.85278C15.117 4.74123 15.1802 4.74123 15.2645 4.79701C15.3278 4.85278 15.391 4.90856 15.4542 5.02013C15.6229 5.18746 15.7915 5.24324 15.9601 5.02013C16.1077 4.85278 16.2341 4.90856 16.3606 5.0759C16.4028 5.13168 16.4238 5.13168 16.466 5.13168C16.8454 5.18746 17.2459 5.24323 17.6253 5.0759C17.7728 5.02012 17.8993 4.90856 18.0258 4.74123C18.1944 4.51811 18.363 4.57389 18.5317 4.74123C18.637 4.85278 18.7424 4.85278 18.8267 4.74123C18.89 4.68545 18.9532 4.62966 19.0165 4.51811C19.1008 4.40655 19.2062 4.40655 19.2694 4.12766C19.2272 3.96032 19.164 3.90454 19.0797 3.84876C18.9321 3.79298 18.8057 3.68143 18.7003 3.34675C18.637 3.17941 18.6581 3.01208 18.7214 2.90051C18.7424 2.84474 18.7846 2.78896 18.8057 2.78896C18.9743 2.6774 19.164 2.6774 19.3326 2.90051C19.4802 3.06786 19.6066 3.01207 19.7331 2.84474C19.7542 2.78896 19.7963 2.78896 19.8385 2.73318C20.2601 2.6774 20.6816 2.56584 21.1032 2.78896C21.2086 2.84474 21.2297 2.9563 21.1875 3.17941C21.1454 3.34675 21.1243 3.51409 21.0821 3.62565C20.9767 4.07188 20.9767 4.18344 21.1032 4.23921C21.2718 4.29499 21.4615 4.35077 21.6301 4.29499C21.7777 4.23921 21.9042 4.07188 21.9463 3.62565C21.9463 3.51409 21.9674 3.45831 21.9885 3.34675C22.0095 3.01208 22.1149 2.84474 22.1993 2.78896C22.4311 2.6774 22.6841 2.62162 22.937 2.67741C23.0213 2.67741 23.0845 2.78896 23.0845 2.90051C23.0845 2.9563 23.0635 3.06785 23.0213 3.12363C22.9581 3.23519 22.8948 3.34675 22.8527 3.45831C22.7473 3.73721 22.6208 3.84876 22.4733 3.84876C22.389 3.84876 22.3468 3.90454 22.3046 4.07189C22.3679 4.18344 22.4311 4.23921 22.4943 4.23921C22.663 4.23921 22.8527 4.23922 23.0213 4.07189C23.2532 3.84876 23.485 3.62564 23.7169 3.40253C23.7801 3.34675 23.8434 3.23519 23.9277 3.23519C24.2228 3.23519 24.4757 2.95629 24.7497 2.73318C24.8129 2.6774 24.8973 2.6774 24.9605 2.73318C25.4031 3.17942 25.8669 3.23519 26.3095 3.17942C26.984 3.06786 27.6585 3.17942 28.3119 3.17942C28.4173 3.17942 28.5227 3.17942 28.6281 3.29097C28.7967 3.45831 28.9653 3.40254 29.155 3.2352C29.2815 3.12364 29.4291 3.12364 29.5766 3.29097C29.682 3.40253 29.7874 3.5141 29.8717 3.5141C30.2933 3.56987 30.7148 3.62564 31.1364 3.45831C31.2418 3.40253 31.3261 3.29097 31.4104 3.06786C31.4315 3.01208 31.4526 2.90052 31.4526 2.84474C31.4104 2.62162 31.3472 2.56585 31.2839 2.67741C31.2207 2.73319 31.1575 2.78896 31.0942 2.90052C30.9888 3.06786 30.8834 3.06786 30.7991 2.9563C30.6094 2.73319 30.3987 2.62162 30.1879 2.62162C29.7242 2.62162 29.2604 2.6774 28.8178 2.51007C28.7756 2.51007 28.7335 2.45429 28.7335 2.39851C28.7124 2.23117 28.7546 2.06383 28.7967 1.8965C28.8389 1.72916 28.9021 1.67337 28.9864 1.6176C29.1972 1.56182 29.408 1.50604 29.6188 1.45026C29.8717 1.45026 30.1036 1.45026 30.3565 1.45026C30.504 1.45026 30.6305 1.28292 30.757 1.17137C30.8413 1.11558 30.9678 1.17137 31.0521 1.11559C31.0732 1.11559 31.0942 1.00403 31.1364 0.948254C31.2629 0.557797 31.2629 0.557804 31.3893 0.72514C31.4947 0.836697 31.579 0.948246 31.6844 1.05981C31.7477 1.11559 31.7898 1.28293 31.8109 1.50604C31.7477 1.50604 31.6633 1.50605 31.6001 1.56183C31.579 1.56183 31.5369 1.6176 31.5158 1.67338C31.4947 1.72916 31.4947 1.84072 31.4947 1.84072C31.5369 2.00806 31.6001 2.00805 31.6633 1.8965C31.7266 1.78494 31.7687 1.67337 31.7687 1.45026C31.853 1.45026 31.9163 1.45026 32.0006 1.45026C32.0217 1.72915 32.106 1.8965 32.2114 1.95227C32.2746 2.00805 32.3378 1.95227 32.4011 1.95227C32.4222 1.95227 32.4643 1.8965 32.4854 1.84072C32.5065 1.72916 32.4643 1.6176 32.38 1.6176C32.2535 1.56182 32.106 1.56183 31.9795 1.56183C32.0006 1.39449 32.0217 1.22715 32.0849 1.11559C32.1692 0.948254 32.2535 0.836697 32.3589 0.72514C32.4432 0.613583 32.5486 0.502019 32.654 0.669354C32.7805 0.836697 32.907 0.892476 33.0334 1.00403C33.1388 1.11559 33.202 1.22715 33.2653 1.50604C33.3074 1.72916 33.3917 1.95228 33.4971 2.06383C33.5182 2.23117 33.5604 2.3985 33.6236 2.45429C33.6447 2.51007 33.6868 2.51007 33.7079 2.51007C33.729 2.51007 33.7712 2.45429 33.7922 2.39851C33.8133 2.28695 33.7712 2.1754 33.6868 2.11962C33.6236 2.11962 33.5604 2.11962 33.4761 2.11962C33.5815 1.45027 33.7712 1.05981 34.0241 0.948255C34.4035 0.780912 34.7618 0.390462 35.1412 0.11157C35.2466 0.0557836 35.352 0.0557836 35.4574 0.11157C35.5206 0.167348 35.605 0.167348 35.6682 0.167348C35.7736 0.167348 35.879 0.0557914 35.9844 1.29155e-05C36.2162 0.223127 36.4692 0.278898 36.6799 0.613577C36.8696 0.948248 37.0804 0.892469 37.2701 0.613577C37.2912 0.557798 37.3334 0.50202 37.3544 0.50202C37.3755 0.446241 37.4177 0.390463 37.4598 0.390463C37.5652 0.334684 37.6706 0.278906 37.776 0.390463C37.9025 0.50202 38.0289 0.725142 38.1554 0.836699C38.2186 0.892477 38.303 0.89247 38.3662 0.89247C38.5137 0.89247 38.6402 0.780913 38.7667 0.613577C38.9564 0.334677 39.1672 0.278899 39.3779 0.334677C39.5255 0.334677 39.652 0.390463 39.7995 0.446242C39.9471 0.502028 40.0524 0.669364 40.1578 1.00403C40.2211 1.22716 40.2211 1.39448 40.1157 1.45026C39.926 1.6176 39.7152 1.72916 39.5044 1.8965C39.2936 2.06383 39.0829 2.00806 38.8721 2.00805C38.6613 2.06383 38.4505 1.95228 38.2608 1.67338C38.1343 1.50605 37.9868 1.56183 37.8392 1.67338C37.7971 1.67338 37.776 1.72916 37.7339 1.78494C37.5652 2.00805 37.4177 2.11962 37.228 2.11962C36.6378 2.06384 36.0265 2.1754 35.4363 2.11962C35.2677 2.11962 35.078 2.1754 34.9305 2.39851C34.7407 2.62163 34.53 2.62163 34.3192 2.73318C34.2981 2.6774 34.2981 2.56585 34.277 2.51007C34.256 2.45429 34.2349 2.45429 34.2138 2.45429C34.2138 2.56585 34.256 2.67741 34.3403 2.67741C34.3613 2.9563 34.4035 3.17941 34.4878 3.40253C34.5721 3.56987 34.6775 3.68142 34.7829 3.68142C34.8461 3.68142 34.9305 3.62565 34.9937 3.56987C35.2045 3.40253 35.4153 3.29098 35.626 3.29098C36.0476 3.29098 36.4692 3.29098 36.8907 3.29098C37.1015 3.29098 37.3123 3.2352 37.5231 3.01208C37.5863 2.9563 37.6495 2.9563 37.7339 3.01208C37.9657 3.29098 38.1976 3.51409 38.4084 3.73721C38.6613 3.79299 38.8721 4.23922 39.125 4.295C39.2936 4.35078 39.3569 4.62968 39.3569 5.02013C39.3569 5.24325 39.399 5.3548 39.4833 5.3548C39.9049 5.41057 40.3265 5.52214 40.748 5.29903C40.8323 5.24325 40.8745 5.13169 40.8113 4.90858C40.748 4.68545 40.6848 4.46233 40.6426 4.23922C40.6005 4.0161 40.6216 3.90455 40.7269 3.84877C40.9799 3.68143 41.2117 3.68143 41.4436 3.96032C41.5068 4.07188 41.549 4.18344 41.5279 4.40655C41.5068 4.79701 41.3804 5.07591 41.4014 5.46636C41.4014 5.6337 41.4647 5.80103 41.5279 5.80103C41.6333 5.85681 41.7387 5.74525 41.8441 5.6337C42.0127 5.46636 42.1813 5.41058 42.35 5.57792C42.5186 5.74526 42.6872 5.85681 42.8558 5.6337C43.0034 5.41058 43.2142 5.46636 43.3406 5.18747C43.4039 5.07591 43.4039 4.90857 43.3828 4.68545C43.3617 4.62968 43.3406 4.51811 43.2985 4.51811C43.2774 4.46233 43.2352 4.46234 43.1931 4.46234C43.0666 4.5739 42.9191 4.68545 42.7926 4.79701C42.6872 4.85279 42.5818 4.79701 42.5186 4.5739C42.4343 4.295 42.4764 4.0161 42.5818 3.90455C42.624 3.84877 42.6451 3.79299 42.6872 3.79299C42.9612 3.73721 43.2563 3.7372 43.5303 3.68143C43.5936 3.68143 43.6779 3.73721 43.7411 3.79299C43.8676 3.90455 43.9941 4.18344 44.1416 4.12766C44.247 4.07188 44.3524 3.96033 44.4367 3.90455C44.521 3.84877 44.6475 4.18344 44.6686 4.40655C44.6686 4.68546 44.6264 4.96436 44.6053 5.18747C44.6053 5.41058 44.6475 5.52214 44.7107 5.6337C44.7529 5.68948 44.774 5.74526 44.8161 5.74526C45.0901 5.80104 45.3852 5.80104 45.6592 5.85682C45.9122 5.9126 46.144 5.85681 46.397 5.80103C46.5234 5.80103 46.5445 5.6337 46.5445 5.24324C46.5445 4.90857 46.6288 4.68545 46.7131 4.79701C46.8396 4.96435 46.9661 5.13168 47.0925 5.24324C47.1136 5.29903 47.1136 5.41058 47.1347 5.46636C47.1558 5.52215 47.1769 5.52214 47.1979 5.52214C47.1979 5.41058 47.1558 5.29903 47.0925 5.29903C47.1136 4.68546 47.1979 4.23922 47.4298 4.01611C47.6195 3.79299 47.8303 3.62565 48.02 3.40253C48.1254 3.29098 48.1254 2.9563 48.0411 2.73319C48.02 2.67741 47.9989 2.56585 47.9568 2.56585C47.8514 2.51006 47.746 2.45429 47.6406 2.45429C47.472 2.39851 47.2823 2.39851 47.1136 2.23118C46.8818 2.00806 46.6288 1.95228 46.3759 1.95228C45.5328 2.00806 44.6686 1.95228 43.8254 1.8965C43.6147 1.8965 43.4039 2.00806 43.2142 2.34273C43.0455 2.62163 42.8769 2.56585 42.7083 2.34273C42.6029 2.23117 42.5397 2.00806 42.4764 1.78494C42.3921 1.50604 42.4343 0.948249 42.5818 0.892471C42.624 0.892471 42.6451 0.8367 42.6872 0.8367C43.0034 0.780921 43.3196 0.725135 43.6357 1.05981C43.7411 1.17137 43.8254 1.17137 43.9308 1.05981C44.0362 0.948249 44.1416 0.892478 44.247 0.8367C44.3102 0.780922 44.3945 0.8367 44.4578 0.8367C44.774 0.8367 45.0901 0.836693 45.4063 0.780914C45.7646 0.725136 46.1019 0.836693 46.4602 1.05981C46.5234 1.11559 46.6078 1.05981 46.671 1.00404C46.9028 0.725144 47.1558 0.836693 47.4087 0.780915C47.6617 0.725136 47.8935 0.836701 48.1465 1.00404C48.294 1.11559 48.4205 1.11559 48.568 1.05982C48.9474 0.780915 49.3268 0.725144 49.7062 1.11559C49.8116 1.22715 49.917 1.22715 50.0224 1.22715C50.2753 1.28293 50.5072 1.33872 50.7601 1.28294C51.2239 1.22716 51.6876 1.11559 52.1302 1.17137C52.5939 1.22715 53.0577 1.33871 53.5003 1.33871C53.6057 1.33871 53.7111 1.39449 53.8165 1.50604C54.0905 1.8965 54.3645 1.78494 54.6385 1.56183C54.7861 1.45027 54.9125 1.45027 55.039 1.6176C55.2709 1.84072 55.5238 1.78494 55.7767 1.6176C55.84 1.56182 55.9032 1.45027 55.9454 1.33871C56.0086 1.22715 56.0508 1.05982 56.0929 0.94826C56.1351 1.05982 56.1983 1.17137 56.2405 1.28294C56.3037 1.3945 56.3459 1.50605 56.4091 1.56183C56.5145 1.61761 56.6199 1.67339 56.7253 1.67339C57.7792 1.61761 58.8542 1.72916 59.9081 1.72916C60.0767 1.72916 60.2664 1.72917 60.435 1.67339C60.688 1.61761 60.9198 1.67339 61.1517 1.95228C61.3203 2.1754 61.4889 2.11962 61.6786 2.06384C61.8894 2.00806 62.0791 1.78494 62.311 2.00806C62.3742 2.06384 62.4585 2.00806 62.5218 1.8965C62.6904 1.67338 62.859 1.72917 63.0276 1.95228C63.1119 2.06384 63.2173 2.1754 63.3227 2.1754C63.5335 2.11962 63.7443 2.06385 63.9551 2.11963C64.1659 2.1754 64.3766 2.1754 64.5874 2.1754C64.8614 2.1754 65.1565 2.1754 65.4305 2.11963C65.5992 2.11963 65.7889 2.00807 65.9575 1.84073C66.1261 1.61761 66.2947 1.67339 66.4634 1.84073C66.5688 1.95229 66.6741 1.95228 66.7795 1.95228C67.1379 2.00806 67.4962 2.00806 67.8334 2.06384C67.981 2.06384 68.1075 2.11963 68.255 2.23118C68.3604 2.34274 68.4658 2.34274 68.5712 2.23118C68.6977 2.11963 68.8452 2.06384 68.9927 2.00806C69.3511 2.00806 69.7094 1.95228 70.0467 1.95228C70.4261 1.89651 70.8265 1.95228 71.206 2.1754C71.3535 2.28696 71.48 2.23118 71.6275 2.11963C71.9648 1.89651 72.3231 1.89651 72.6814 1.84073C73.103 1.78495 73.5245 1.78495 73.9461 1.84073C74.2201 1.89651 74.5152 1.89651 74.7892 1.84073C75.0422 1.78495 75.2951 1.84073 75.527 2.11963C75.5902 2.17541 75.6745 2.23119 75.7378 2.11963C75.9696 1.84073 76.2225 1.78495 76.4755 1.84073C77.15 1.84073 77.8245 1.89651 78.499 1.89651C78.6044 1.89651 78.7098 1.89651 78.8152 2.00806C79.1946 2.39851 79.574 2.39852 79.9745 2.34274C80.1431 2.28696 80.3328 2.23118 80.5014 2.06384C80.5646 2.00806 80.6279 1.95229 80.7122 1.95229C81.0705 1.89651 81.4289 1.89651 81.7661 1.95229C82.1034 2.28697 82.4617 2.23118 82.82 2.28696C82.9676 2.28696 83.094 2.23118 83.2416 2.06384C83.3048 2.00807 83.368 2.00807 83.4524 2.06384C83.5788 2.1754 83.7264 2.28696 83.8739 2.1754C84.1269 2.06384 84.3587 2.00807 84.6117 2.1754C85.0332 2.1754 85.4548 2.45429 85.8763 2.28696C86.2557 2.34274 86.6562 2.34274 87.0356 2.39852C87.0989 2.39852 87.1832 2.4543 87.2464 2.51008C87.4783 2.73319 87.7312 2.78897 87.9842 2.78897C88.2371 2.78897 88.49 2.78897 88.7219 2.84475C88.8905 2.84475 89.0802 2.95632 89.2488 3.06787C89.4596 3.23521 89.6704 3.23521 89.8812 3.06787C89.9444 3.0121 90.0077 3.06787 90.092 3.12364C90.1974 3.17942 90.3028 3.29099 90.4081 3.29099C91.0826 3.29099 91.7571 3.34677 92.4316 3.40255C92.6213 3.40255 92.79 3.45832 92.9586 3.62567C93.1272 3.793 93.2959 3.73722 93.4856 3.62567C93.865 3.29099 94.2444 3.29099 94.6238 3.68144C94.7292 3.793 94.8346 3.793 94.9399 3.84878C95.1086 3.84878 95.2983 3.84878 95.4669 3.84878C95.6144 3.84878 95.7409 3.96033 95.8885 3.96033C96.1836 4.35079 96.4997 4.29502 96.8159 4.3508C97.0688 4.40657 97.3007 4.40657 97.5536 4.46235C97.8066 4.46235 98.0384 4.51812 98.2703 4.79702C98.7972 4.96436 99.3031 5.52215 99.8301 5.52215C99.9776 5.52215 100.104 5.63372 100.231 5.74527C100.357 5.91261 100.505 5.96839 100.652 5.96839C100.715 5.96839 100.8 5.96839 100.863 6.02417C101.221 6.41462 101.622 6.52617 102.001 6.63773C102.085 6.63773 102.191 7.02819 102.17 7.25131C102.149 7.41865 102.128 7.64176 102.128 7.8091C102.128 7.97644 102.17 8.14377 102.254 8.19955C102.296 8.25533 102.317 8.25533 102.359 8.25533C102.655 8.19955 102.907 8.59001 103.16 8.92468C103.224 8.98046 103.266 9.20358 103.287 9.37092C103.371 9.92871 103.54 10.2634 103.751 10.4307C103.961 10.5981 104.151 10.8212 104.341 10.9885C104.509 11.1001 104.678 11.2116 104.847 11.379C104.952 11.4905 105.057 11.5463 105.163 11.6021C105.331 11.6579 105.521 11.7136 105.669 11.881C105.964 12.1599 106.301 12.1599 106.617 12.1041C106.702 12.1041 106.765 11.9925 106.765 11.881C106.765 11.8252 106.723 11.7136 106.702 11.6579C106.491 11.379 106.259 11.1001 106.048 10.7654C105.901 10.5423 105.774 10.5981 105.648 10.7654C105.605 10.8212 105.584 10.8212 105.542 10.877C105.331 11.0443 105.121 10.9885 104.952 10.5981C104.826 10.2634 104.699 9.98448 104.552 9.70559C104.425 9.48247 104.299 9.48247 104.151 9.64981C104.088 9.70559 104.025 9.81714 103.961 9.81714C103.898 9.87292 103.814 9.76137 103.793 9.53824C103.772 9.31513 103.814 9.1478 103.877 9.09202C103.898 9.03624 103.94 8.98045 103.961 8.98045C104.172 8.92467 104.383 8.8689 104.594 8.8689C104.762 8.8689 104.952 8.8689 105.121 9.09202C105.395 9.37092 105.669 9.42669 105.964 9.42669C106.111 9.42669 106.238 9.37092 106.385 9.37092C106.491 9.37092 106.617 9.37092 106.702 9.48247C106.954 9.87292 107.229 9.9287 107.524 9.87292C107.777 9.81715 108.029 9.81715 108.261 9.81715C108.367 9.81715 108.472 9.81715 108.578 9.70559C108.852 9.37091 109.126 9.37092 109.4 9.37092C109.863 9.37092 110.327 9.31514 110.77 9.48248C110.875 9.53825 110.959 9.70559 111.044 9.87292C111.107 10.0403 111.107 10.2076 111.023 10.3192C110.812 10.5981 110.706 10.9885 110.622 11.5463C110.601 11.7694 110.601 11.9368 110.664 12.0483C110.875 12.383 111.001 12.9966 111.212 13.387C111.339 13.6101 111.318 13.889 111.191 14.3353C111.044 14.7257 111.044 14.7815 111.191 14.893C111.297 14.9488 111.402 15.0046 111.486 15.1719C111.55 15.2835 111.634 15.7297 111.592 15.8971C111.571 16.0644 111.55 16.2317 111.507 16.3991C111.402 16.9011 111.339 17.4031 111.36 18.0167C111.381 18.5745 111.381 19.1323 111.339 19.69C111.318 19.8574 111.318 20.0805 111.297 20.2478C111.254 20.6941 111.065 21.0845 110.896 21.0287C110.833 21.0287 110.749 20.973 110.685 20.9172C110.622 20.8614 110.538 20.9172 110.475 20.973C110.348 21.1403 110.201 21.1961 110.053 21.1961C109.842 21.1961 109.631 21.1961 109.421 21.1961C109.421 21.1403 109.4 21.0287 109.4 20.973C109.378 20.9172 109.357 20.9172 109.336 20.9172C109.336 21.0287 109.378 21.0845 109.442 21.1403C109.484 21.4192 109.568 21.5865 109.674 21.6423C109.779 21.6981 109.884 21.6981 109.99 21.6423C110.201 21.5865 110.411 21.6423 110.601 21.9212C110.77 22.1443 110.938 22.2001 111.107 22.2559C111.212 22.3117 111.276 22.6463 111.233 22.8695C111.149 23.2599 111.107 23.7619 110.938 23.985C110.854 24.0966 110.833 24.2639 110.875 24.3755C110.896 24.4313 110.938 24.4313 110.959 24.487C111.023 24.5428 111.086 24.5986 111.17 24.6544C111.191 24.7102 111.254 24.7659 111.254 24.8217C111.191 25.4911 111.339 26.1046 111.318 26.774C111.297 27.0529 111.254 27.276 111.149 27.3876C111.044 27.4991 110.938 27.4991 110.854 27.6665C110.791 27.778 110.749 28.0011 110.812 28.1127C110.875 28.3358 110.959 28.4474 111.044 28.6705C111.128 28.8936 111.149 29.1167 111.107 29.3956C111.086 29.5072 111.065 29.563 111.065 29.6187C110.98 30.1207 110.98 30.2881 111.107 30.6227C111.149 30.7343 111.212 30.8459 111.254 31.0132C111.339 31.2363 111.318 31.571 111.276 31.7941C111.17 32.1846 110.959 32.2403 110.854 32.6308C110.77 32.9097 110.875 33.3001 110.749 33.6348C110.622 33.9137 110.622 34.0253 110.706 34.3042C110.77 34.5273 110.833 34.7504 110.896 34.9735C110.959 35.1966 110.917 35.4755 110.833 35.6987C110.812 35.7544 110.77 35.8102 110.749 35.866C110.664 36.0891 110.664 36.1449 110.706 36.5911C110.727 36.87 110.77 37.1489 110.77 37.4278C110.77 37.9856 110.749 38.5434 110.749 39.1012C110.749 39.4358 110.643 39.6032 110.559 39.659C110.369 39.8263 110.158 40.0494 109.969 40.161C109.905 40.2168 109.821 40.161 109.758 40.1052C109.568 40.0494 109.505 40.161 109.505 40.663C109.505 40.7745 109.505 40.8303 109.526 40.9419C109.463 40.9419 109.4 40.9419 109.336 40.9419C109.315 40.9419 109.273 40.9977 109.252 41.0534C109.231 41.1092 109.231 41.165 109.231 41.2208C109.273 41.3881 109.336 41.3881 109.4 41.2766C109.463 41.165 109.484 41.0534 109.505 40.8861C109.674 40.8861 109.863 40.9419 109.99 41.3323C110.137 41.7786 110.327 42.0017 110.559 42.0017C110.622 42.0017 110.706 42.0575 110.77 42.1132C110.854 42.169 110.959 42.5037 110.938 42.7268C110.875 43.173 110.875 43.6193 110.938 44.0655C110.959 44.2329 110.938 44.456 110.896 44.5675C110.706 44.958 110.517 45.4042 110.327 45.7947C110.264 45.9062 110.201 45.9062 110.116 45.9062C109.927 45.9062 109.779 45.6831 109.61 45.5715C109.547 45.5158 109.463 45.5715 109.4 45.6273C109.21 45.9062 109.083 46.4082 108.894 46.5756C108.809 46.6871 108.788 46.8545 108.852 46.9102C108.873 46.966 108.915 46.966 108.957 46.966C109.02 46.966 109.104 47.0218 109.168 46.9102C109.294 46.7987 109.421 46.5756 109.547 46.464C109.716 46.2967 109.884 46.3525 110.053 46.5756C110.074 46.6314 110.116 46.6871 110.137 46.7429C110.201 47.0776 110.264 47.4123 110.306 47.7469C110.369 48.1932 110.475 48.5278 110.643 48.751C110.77 48.9183 110.791 49.3087 110.685 49.6992C110.58 50.0897 110.475 50.4801 110.39 50.8706C110.306 51.2052 110.201 51.3726 110.053 51.4284C109.674 51.4841 109.273 51.5399 108.894 51.6515C108.809 51.6515 108.767 51.8746 108.767 52.0419C108.746 52.265 108.788 52.4324 108.852 52.4882C108.915 52.5439 108.978 52.5997 109.041 52.6555C109.21 52.6555 109.4 52.6555 109.568 52.8228C109.674 52.8786 109.758 53.046 109.8 53.3248C109.842 53.548 109.821 53.7153 109.716 53.7153C109.357 53.8269 109.02 53.8269 108.662 53.8269C108.599 53.4922 108.493 53.2691 108.346 53.2691C108.177 53.2691 108.008 53.2691 107.84 53.3248C107.819 53.3248 107.777 53.3806 107.755 53.4922C107.734 53.6037 107.777 53.7153 107.861 53.7711C108.135 53.9384 108.388 53.8269 108.662 53.8269C108.704 54.1058 108.788 54.2731 108.894 54.3289C108.999 54.3846 109.104 54.4404 109.168 54.6635C109.231 54.8867 109.231 55.2771 109.126 55.3329C109.062 55.3887 108.999 55.4444 108.915 55.4444C108.767 55.4444 108.641 55.3887 108.493 55.2771C108.367 55.1656 108.219 55.054 108.093 54.9982C107.819 54.9424 107.545 54.8309 107.271 54.552C107.144 54.4404 106.997 54.3847 106.849 54.3847C106.491 54.3846 106.154 54.4404 105.795 54.4962C105.753 54.4962 105.732 54.4962 105.69 54.552C105.563 54.6078 105.563 54.7751 105.669 54.7751C105.88 54.8867 106.09 54.8867 106.301 54.9424C106.406 54.9982 106.491 55.1098 106.575 55.3329C106.638 55.5002 106.659 55.6676 106.596 55.7791C106.575 55.8349 106.533 55.8907 106.512 55.8907C106.343 55.7791 106.175 55.6676 106.006 55.6118C105.795 55.556 105.584 55.6118 105.374 55.6676C105.1 55.7233 104.826 56.058 104.552 56.058C104.299 56.058 104.067 56.1138 103.814 56.1696C103.708 56.2254 103.624 56.3927 103.582 56.6716C103.561 56.6716 103.519 56.7274 103.498 56.7274C103.477 56.7274 103.477 56.8389 103.477 56.8947C103.54 56.8947 103.561 56.8389 103.561 56.6158C103.666 56.6158 103.772 56.6716 103.877 56.6716C104.088 56.7274 104.109 56.8389 104.067 57.3967C104.025 57.8987 104.025 57.9545 104.088 58.1776C104.278 58.7354 104.467 59.2932 104.657 59.851C104.699 60.0183 104.741 60.1857 104.72 60.353C104.678 60.5203 104.615 60.5761 104.531 60.5761C104.425 60.6319 104.32 60.6319 104.214 60.6877C104.13 60.7435 104.046 61.0781 104.046 61.3013C104.025 61.7475 104.025 62.2495 104.088 62.6957C104.172 63.1977 104.278 63.6998 104.362 64.2018C104.425 64.5364 104.425 64.9269 104.404 65.3173C104.404 65.4289 104.383 65.4847 104.362 65.5962C104.278 66.0425 104.278 66.4887 104.383 66.9349C104.467 67.2696 104.467 67.6601 104.425 67.9947C104.383 68.2736 104.32 68.4968 104.341 68.7757C104.404 69.2777 104.299 69.6681 104.193 70.0586C104.13 70.2817 104.13 70.5606 104.193 70.8395C104.214 70.8953 104.214 71.0068 104.235 71.1184C104.32 72.0666 104.32 72.9591 104.067 73.7958C104.025 73.9631 103.961 74.0747 103.94 74.242C103.835 74.9671 103.814 75.6923 103.982 76.3616C104.067 76.6963 104.172 76.9194 104.341 76.9194C104.404 76.9194 104.488 76.9194 104.552 76.9194C104.594 76.9194 104.615 76.9194 104.657 76.9752C104.699 77.031 104.741 77.031 104.741 77.0867C104.762 77.1983 104.72 77.3099 104.636 77.3656C104.573 77.4214 104.488 77.3656 104.425 77.4214C104.193 77.4772 104.109 77.7561 104.256 78.3139C104.425 78.9274 104.404 78.9832 104.151 79.2063C104.046 79.2621 103.961 79.3737 103.856 79.541C103.772 79.7084 103.708 79.9873 103.772 80.2661C103.856 80.7124 103.898 81.1586 103.877 81.6048C103.835 82.1626 103.877 82.7204 103.919 83.2782C103.982 84.0033 103.982 84.0033 103.856 84.5611C103.835 84.6169 103.814 84.7285 103.793 84.7843C103.751 84.9516 103.751 85.1189 103.772 85.2863C103.898 86.0672 104.025 86.7923 104.151 87.5732C104.193 87.9079 104.214 87.9637 104.004 88.131C103.814 88.2983 103.687 88.5215 103.645 89.0792C103.645 89.1908 103.624 89.2466 103.624 89.3581C103.561 89.5813 103.498 89.8044 103.392 89.8602C103.287 89.9159 103.181 89.9159 103.076 89.9717C102.992 90.0275 102.95 90.139 102.971 90.2506C102.992 90.3064 103.034 90.3622 103.055 90.4179C103.118 90.4737 103.203 90.4737 103.266 90.5295C103.371 90.5853 103.434 90.92 103.413 91.1988C103.392 91.3662 103.35 91.5893 103.371 91.7566C103.413 92.0355 103.519 92.1471 103.582 92.3144C103.645 92.4818 103.645 92.6491 103.645 92.8164C103.603 93.3185 103.456 93.5974 103.287 93.7089C103.013 93.8762 102.718 93.932 102.444 94.0994C102.233 94.2109 102.043 94.3783 101.811 94.3783C101.537 94.3783 101.242 94.4898 100.989 94.8245C100.863 94.9918 100.715 94.9918 100.568 94.9918C100.357 95.0476 100.146 95.0476 99.9355 95.2149C99.7036 95.4381 99.4507 95.4938 99.1977 95.5496C98.7762 95.6612 98.3546 95.6612 97.933 95.9959C97.8066 96.1074 97.659 96.1074 97.5115 96.1074C97.0478 96.1632 96.584 96.1632 96.1414 96.4979C96.0782 96.5536 95.9939 96.4979 95.9306 96.4421C95.8252 96.3863 95.7198 96.3863 95.6144 96.4979C95.3826 96.721 95.1296 96.7768 94.8767 96.7768C94.3076 96.8325 93.7385 96.8325 93.1694 96.8325C92.5581 96.8325 91.9679 96.8883 91.3567 96.8883C90.5346 96.8883 89.7336 96.8883 88.9116 96.9441C88.3846 96.9999 87.8577 96.9441 87.3097 96.9999C87.12 96.9999 86.9513 96.8883 86.8038 96.6652C86.7405 96.5536 86.6773 96.6094 86.593 96.6652C86.4665 96.8325 86.319 96.8883 86.1714 96.8883C85.5602 96.8883 84.97 96.8883 84.3587 96.8883C84.3166 96.8883 84.2744 96.8883 84.2533 96.8883C84.0636 96.6652 83.8528 96.6652 83.6421 96.721C83.3259 96.3305 83.0308 96.4421 82.7146 96.7768C82.546 96.9441 82.3774 96.9999 82.1877 96.9999C81.9347 96.9441 81.6818 96.9999 81.4499 96.7768C81.3867 96.721 81.3024 96.7768 81.2391 96.8325C81.0494 96.9999 80.923 96.8325 80.7965 96.3863C80.67 95.9401 80.5225 95.8843 80.3328 96.1632C80.1431 96.4421 79.9534 96.5536 79.7215 96.5536C79.4053 96.5536 79.0892 96.6094 78.773 96.5536C78.6044 96.4979 78.4147 96.5536 78.246 96.6652C78.0774 96.8325 77.9088 96.721 77.7191 96.6652C77.2132 96.4979 76.2225 96.4421 75.5902 96.4979C75.3373 96.5536 75.1054 96.5536 74.8525 96.5536C74.7471 96.5536 74.6417 96.4979 74.5574 96.3305C74.3887 96.1074 74.2201 96.0516 74.0515 96.2747C73.9672 96.3863 73.8618 96.4979 73.7564 96.4979C73.4824 96.4421 73.1873 96.4979 72.9133 96.219C72.6182 95.9401 72.2809 95.9958 71.9648 95.9958C71.9015 95.9958 71.8172 96.0516 71.754 96.1074C71.5854 96.2747 71.4167 96.3863 71.2481 96.3863C70.9741 96.3863 70.679 96.4421 70.405 96.4979C70.1942 96.4979 69.9834 96.4421 69.7726 96.219C69.6672 96.1074 69.5619 96.0516 69.4565 96.0516C69.0981 96.0516 68.7398 95.9958 68.4026 96.3305C68.2761 96.4421 68.1285 96.4979 67.981 96.4979C67.7702 96.4979 67.5594 96.4421 67.3486 96.219C67.2222 96.0516 67.0957 95.9401 66.9482 95.7727C66.8849 95.7169 66.8217 95.7169 66.7374 95.7727C66.4001 96.0516 66.0418 95.9958 65.6835 95.9958C65.5781 95.9958 65.557 95.8285 65.5781 95.6054C65.5992 95.3823 65.5992 95.2149 65.5359 95.1034C65.4727 94.9918 65.4095 94.936 65.3251 94.9918C65.2198 95.0476 65.1144 95.1034 65.009 95.1592C64.9457 95.2149 64.8825 95.2149 64.7982 95.1592C64.6928 95.0476 64.5874 95.0476 64.482 94.9918C64.3345 94.936 64.1869 94.936 64.0605 95.1034C63.66 95.6054 63.2384 95.5496 62.8168 95.6054C62.7115 95.6054 62.6061 95.4938 62.5218 95.3265C62.3742 95.0476 62.2899 94.6571 62.1845 94.2667C62.1423 94.0994 62.058 94.0436 61.9948 94.0436C61.9316 94.0436 61.8472 93.9878 61.784 94.0436C61.5522 94.3225 61.2781 93.9878 61.0674 94.3225C60.8566 94.434 60.6458 94.6014 60.4561 94.7687C60.3507 94.8803 60.2453 94.8245 60.1399 94.7129C60.0767 94.6571 60.0135 94.5456 59.9291 94.5456C59.36 94.4898 58.7909 94.3782 58.2218 94.5456C58.1164 94.6014 58.0321 94.7687 57.9689 94.9918L57.9899 94.936C57.8846 94.8803 57.7792 94.936 57.6738 94.8245C57.5262 94.6571 57.4208 94.6014 57.2944 94.8803C57.2522 94.9918 57.189 95.1034 57.1257 95.2149C57.0625 95.3265 56.9993 95.3823 56.936 95.4381C56.6199 95.5496 56.3037 95.6054 55.9875 95.6612C55.7346 95.6612 55.5027 95.6054 55.2498 95.4938C55.1022 95.438 55.1233 95.1034 55.1233 94.8803C55.1233 94.8245 55.1022 94.7129 55.0812 94.6571C54.9758 94.4898 54.4277 94.0994 54.2802 94.0436C54.1116 93.9878 53.9219 93.9878 53.7532 93.932C53.6057 93.932 53.4792 93.8205 53.3528 93.5973C53.2263 93.43 53.0998 93.2627 52.9733 93.1511C52.9101 93.0953 52.8258 93.0395 52.7626 93.0395C52.4464 93.1511 52.1302 92.7607 51.814 92.8722C51.6454 92.928 51.4557 92.8722 51.2871 92.8164C50.9077 92.7049 50.5072 92.7049 50.1278 92.7607C49.8749 92.8164 49.643 92.6491 49.4111 92.426C49.2425 92.2586 49.0739 92.3144 48.8842 92.3702C48.821 92.426 48.7366 92.426 48.6734 92.5375C48.5048 92.7049 48.3362 92.7607 48.1465 92.8164C47.8935 92.8164 47.6617 92.8722 47.4087 92.8722C47.219 92.8722 47.0504 92.7607 46.9028 92.5375C46.7553 92.3702 46.6288 92.3702 46.5024 92.5933C46.3127 92.8722 46.144 93.1511 46.0386 93.7089C45.9333 94.2667 45.7225 94.434 45.5117 94.4898C45.3009 94.5456 45.0901 94.4898 44.8793 94.4898C44.7739 94.4898 44.6686 94.4898 44.5632 94.3782C44.0784 93.9878 43.5936 93.9878 43.0877 93.932C42.8348 93.932 42.6029 93.8762 42.35 93.5973C42.2446 93.4858 42.1392 93.4858 42.0338 93.4858C41.3171 93.4858 40.6216 93.43 39.9049 93.43C39.652 93.43 39.4201 93.3184 39.1882 93.0953C39.0618 92.928 38.9142 92.928 38.7667 92.8722C38.6191 92.8722 38.4927 92.8722 38.3451 92.8722C38.0289 92.8722 37.7128 92.8722 37.3966 92.8164C37.2491 92.8164 37.1226 92.7606 36.975 92.6491C36.7643 92.4818 36.5535 92.426 36.3427 92.426C35.9211 92.426 35.4996 92.3702 35.078 92.3702C34.8251 92.3702 34.5932 92.3144 34.3403 92.0355C34.1716 91.8682 34.003 91.8682 33.8133 91.8682C33.2442 91.8124 32.6751 91.8124 32.106 91.7566C31.9584 91.7566 31.8109 91.7566 31.6844 91.6451C31.3682 91.3662 31.0521 91.3104 30.7359 91.3104C30.3565 91.3104 29.956 91.3104 29.5766 91.2546C29.4291 91.2546 29.2815 91.2546 29.155 91.1431C28.881 90.9199 28.607 90.8642 28.3119 90.8642C28.059 90.8642 27.8271 90.8084 27.5742 90.8084C27.4688 90.8084 27.3634 90.8084 27.258 90.6968C26.8786 90.2506 26.4992 90.3621 26.0987 90.3064C25.9512 90.3064 25.8247 90.3064 25.6771 90.3064C25.4874 90.3064 25.3188 90.1948 25.1713 89.9717C25.0026 89.7486 24.834 89.637 24.6654 89.6928C24.0541 89.8601 23.4639 89.7486 22.8738 89.6928C22.7262 89.6928 22.5997 89.637 22.4522 89.4697C22.2836 89.3023 22.1149 89.2466 21.9252 89.2466C21.6512 89.2466 21.3561 89.1908 21.0821 89.1908C20.8081 89.135 20.513 89.135 20.239 88.9119C20.1125 88.8003 19.965 88.8003 19.8174 88.7445C19.5645 88.6888 19.3326 88.6888 19.0797 88.633C18.9743 88.633 18.8689 88.633 18.7635 88.5214C18.4263 88.131 18.0679 88.131 17.7307 88.131C17.3724 88.131 17.0351 87.9636 16.6768 87.7405C16.2552 87.5174 15.8336 87.5732 15.4121 87.4616C15.391 87.4616 15.3489 87.4058 15.3489 87.3501C15.3489 87.2385 15.3699 87.127 15.391 87.0712C15.4542 86.9596 15.5175 86.9038 15.5596 86.7923C15.6229 86.6807 15.665 86.5134 15.7072 86.4018C15.7283 86.346 15.7493 86.2345 15.7283 86.1787C15.7072 86.1229 15.665 86.0114 15.6439 86.0114C15.4753 85.9556 15.2856 85.9556 15.117 85.844C14.7376 85.6767 14.6954 85.6767 14.4425 86.0672C14.4214 86.1229 14.4003 86.1787 14.3793 86.2903C14.3582 86.346 14.3582 86.4576 14.3371 86.5692L14.3582 86.5134C14.2528 86.4576 14.1896 86.2345 14.1685 85.9556C14.316 86.1229 14.316 85.9556 14.2949 85.7883ZM101.095 88.4099C101.032 88.4099 100.968 88.4099 100.905 88.4099C100.884 88.4099 100.842 88.4657 100.821 88.5215C100.8 88.5772 100.8 88.633 100.8 88.6888C100.842 88.8003 100.905 88.8561 100.968 88.7446C101.032 88.7446 101.074 88.5772 101.095 88.4099C101.116 88.3541 101.137 88.3541 101.179 88.2983C101.2 88.2983 101.2 88.1868 101.2 88.131C101.137 88.0752 101.095 88.1868 101.095 88.4099ZM102.149 89.5255C101.769 89.4697 101.369 89.5255 101.01 89.9159C100.947 89.9717 100.884 90.0275 100.8 90.0275C100.483 90.139 100.167 90.1948 99.8512 90.0275C99.809 90.0275 99.7668 89.9717 99.7458 89.9159C99.7247 89.8044 99.7458 89.637 99.809 89.5255C99.8722 89.4139 99.8933 89.2466 99.8512 89.135C99.8301 89.0792 99.7879 89.0235 99.7668 89.0235C99.5561 88.9677 99.3453 89.0235 99.1556 89.3581C98.9869 89.6928 98.8183 90.0833 98.6286 90.2506C98.5865 90.3064 98.5654 90.3622 98.5443 90.4179C98.46 90.5853 98.4178 90.8642 98.3546 91.0873C98.3124 91.2546 98.4178 91.7009 98.4811 91.7566C98.734 91.8682 98.9659 91.8124 99.2188 91.6451C99.3874 91.5335 99.5561 91.3104 99.7247 91.3104C99.9355 91.2546 100.146 91.2546 100.357 91.1431C100.568 91.0315 100.758 90.8084 100.968 90.6968C101.327 90.5853 101.643 90.1948 101.98 89.9159C102.085 89.8602 102.128 89.6928 102.149 89.5255C102.338 89.5255 102.549 89.5255 102.76 89.4139C102.802 89.4139 102.823 89.3024 102.844 89.2466C102.823 89.1908 102.802 89.135 102.781 89.0792C102.655 88.9677 102.507 88.9119 102.359 89.0235C102.275 89.135 102.191 89.2466 102.149 89.5255ZM60.0767 4.01611C59.9502 4.18344 59.8237 4.35078 59.6973 4.51812C59.634 4.57389 59.5497 4.5739 59.4865 4.62968C59.4443 4.62968 59.4233 4.62968 59.3811 4.5739C59.2968 4.51812 59.2757 4.35078 59.2968 4.12767C59.3179 3.79299 59.2546 3.62566 59.1282 3.62566C58.9174 3.62566 58.7066 3.62566 58.4958 3.62566C58.3904 3.62566 58.285 3.68143 58.2007 3.84877C57.9689 4.23922 57.737 4.12767 57.4841 4.01611C57.1047 3.56987 56.7253 3.62566 56.3459 3.79299C56.3037 3.79299 56.2826 3.84877 56.2405 3.84877C56.1772 3.90455 56.114 3.84877 56.0297 3.79299C55.9243 3.68144 55.8189 3.62566 55.7135 3.62566C55.566 3.56988 55.4606 3.34676 55.3763 3.01208C55.313 2.73319 55.2287 2.62163 55.1233 2.62163C55.0812 2.62163 55.0601 2.62163 55.0179 2.62163C54.765 2.62163 54.5121 2.62163 54.2802 2.62163C53.964 2.67741 53.6689 3.12364 53.3528 3.12364C53.2895 3.12364 53.2263 3.2352 53.1631 3.29098C53.1209 3.34676 53.0998 3.40254 53.0787 3.40254C52.9944 3.51409 52.889 3.68143 52.7836 3.68143C52.4253 3.68143 52.067 3.68144 51.7297 3.62566C51.6244 3.62566 51.519 3.51409 51.4557 3.29098C51.3293 2.90052 51.1817 2.73319 50.992 2.67742C50.3597 2.51007 49.7273 2.62163 49.0739 2.67741C48.9685 2.67741 48.8842 2.84474 48.821 3.12363C48.7788 3.34676 48.6945 3.56987 48.6102 3.73721C48.5259 3.84877 48.5259 4.01611 48.5469 4.12766C48.568 4.18344 48.6102 4.23922 48.6313 4.23922C48.8842 4.35078 49.116 4.35078 49.369 4.5739C49.4322 4.62968 49.5165 4.62968 49.5798 4.5739C49.7273 4.46234 49.8538 4.46234 50.0013 4.62968C50.2332 4.8528 50.4651 5.07591 50.6969 5.24324C50.8234 5.35481 50.9709 5.29903 51.0974 5.13169C51.2449 4.90857 51.4136 4.74124 51.6033 4.74124C51.7719 4.74124 51.9616 4.74124 52.1302 4.74124C52.3199 4.74124 52.4886 4.85279 52.6361 5.13169C52.7626 5.35481 52.889 5.41059 53.0366 5.41059C53.5635 5.41059 54.0905 5.52214 54.6174 5.24324C54.8704 5.24324 55.1233 5.29903 55.3552 5.24324C56.3459 5.18746 57.3365 5.24324 58.3272 5.24324C59.0017 5.24324 59.6762 5.24325 60.3507 5.18747C60.3929 5.18747 60.4139 5.18747 60.4561 5.13169C60.4982 5.13169 60.5193 5.07592 60.5615 5.02014C60.6669 4.96436 60.709 4.62968 60.6458 4.35079C60.4982 3.5141 60.2664 3.40254 60.0767 4.01611ZM29.1972 87.2385C28.9232 87.629 28.607 87.9079 28.3119 88.131C28.2487 88.1868 28.1854 88.131 28.1011 88.0752C27.9957 88.0194 27.8904 87.9636 27.785 87.9079C27.6163 87.9079 27.4266 87.9079 27.258 87.9079C27.1105 87.9079 26.984 87.8521 26.8575 87.629C26.6889 87.4059 26.5203 87.3501 26.3516 87.4059C26.1409 87.4616 25.9512 87.6847 25.7193 87.5732C25.6561 87.5174 25.5928 87.629 25.5296 87.7405C25.361 87.9636 25.1923 87.9636 25.0237 87.7405C24.9394 87.629 24.834 87.5174 24.7286 87.4059C24.6232 87.2943 24.5389 87.3501 24.4335 87.5732C24.3281 87.8521 24.3492 88.131 24.4546 88.2425C24.8762 88.6888 25.3188 89.0234 25.8036 88.9119C25.8669 88.9119 25.9512 88.9119 26.0144 88.9119C26.2673 88.9119 26.4992 89.0234 26.7311 89.3023C26.8154 89.4139 26.9418 89.4697 27.0472 89.4697C27.1948 89.5255 27.3212 89.5255 27.4688 89.4697C28.2065 89.3023 28.9653 89.4697 29.7031 89.4697C29.8085 89.4697 29.9139 89.5812 30.0192 89.6928C30.1457 89.8044 30.2933 89.9159 30.3987 90.139C30.6094 90.5295 30.8624 90.5853 31.0942 90.8084C31.1575 90.8642 31.2418 90.9199 31.305 90.8084C31.4736 90.5853 31.6423 90.4737 31.8109 90.4737C32.1271 90.4737 32.4432 90.4737 32.7594 90.1948C32.8226 90.139 32.907 90.1948 32.9702 90.2506C33.0756 90.3064 33.181 90.4737 33.2653 90.4737C33.4761 90.5295 33.6658 90.8642 33.8344 91.1988C33.9398 91.4777 34.0873 91.5335 34.2349 91.5335C34.551 91.5335 34.8672 91.5335 35.1834 91.5335C35.4574 91.5335 35.7525 91.4777 36.0054 91.1431C36.0687 91.0873 36.153 91.0873 36.2162 91.0873C36.3216 91.0873 36.4481 91.0873 36.5324 91.1988C36.7853 91.5335 37.0804 91.5335 37.3334 91.8682C37.4598 92.0355 37.6074 92.0913 37.7549 92.0913C37.9657 92.0913 38.1765 92.0913 38.3873 92.0913C38.6402 92.0913 38.8721 92.2586 39.1039 92.4818C39.2093 92.5933 39.3358 92.4818 39.399 92.2586C39.4833 91.9797 39.5887 91.7008 39.6941 91.4777C39.7995 91.3104 39.7784 91.0873 39.673 90.8084C39.5887 90.5853 39.5466 90.5853 39.3779 90.6968C39.2726 90.8084 39.1672 90.8084 39.0618 90.6968C38.8931 90.5295 38.7456 90.3621 38.577 90.139C38.5137 90.0833 38.4294 90.0833 38.3662 90.1948C38.1343 90.4737 37.8814 90.5295 37.6285 90.5295C37.2069 90.4737 36.7853 90.5295 36.3638 90.139C36.3005 90.1948 36.2162 90.1948 36.1741 90.2506C36.0687 90.3621 35.9633 90.3621 35.879 90.2506C35.8157 90.139 35.7525 90.0275 35.7103 89.9159C35.5417 89.5255 35.352 89.3023 35.1202 89.3581C34.5932 89.4697 34.0662 89.2466 33.5393 89.4139C33.4761 89.4139 33.3917 89.3581 33.3285 89.3581C33.181 89.3023 33.0967 89.0234 33.0545 88.5772C33.0334 88.1868 33.1599 87.7963 33.2864 87.9079C33.5182 88.131 33.7712 88.1868 34.0241 88.1868C34.551 88.131 35.078 88.131 35.605 88.5214C35.6682 88.5772 35.7314 88.5214 35.8157 88.4657C35.879 88.4099 35.9422 88.3541 36.0265 88.3541C36.5535 88.2983 37.0804 88.2983 37.6285 88.2983C37.6917 88.2983 37.776 88.3541 37.8392 88.4099C38.0079 88.633 38.1765 88.6888 38.3451 88.6888C38.7667 88.6888 39.1882 88.6888 39.6309 88.6888C39.8417 88.6888 40.0524 88.7446 40.2632 88.9677C40.5372 89.2466 40.8113 89.3581 41.1064 89.3023C41.3171 89.3023 41.5279 89.3023 41.7387 89.3023C41.9284 89.3023 42.097 89.4139 42.2446 89.637C42.371 89.8044 42.5186 89.8044 42.6661 89.6928C42.7926 89.5812 42.9191 89.4139 43.0455 89.2466C43.1088 89.135 43.1509 88.9677 43.1299 88.8561C43.1088 88.8003 43.0666 88.7446 43.0455 88.7446C42.6661 88.6888 42.2656 88.6888 41.8862 88.633C41.7387 88.633 41.6122 88.5772 41.4647 88.4657C41.2539 88.2983 41.0431 88.2425 40.8323 88.2425C40.4108 88.2425 39.9892 88.2425 39.5676 88.1868C39.4201 88.1868 39.2726 88.131 39.1461 88.0194C38.9142 87.7963 38.6613 87.7405 38.4083 87.7405C37.8392 87.7963 37.2701 87.629 36.701 87.629C36.5535 87.629 36.427 87.5732 36.2794 87.4616C36.0054 87.2385 35.7314 87.127 35.4363 87.127C35.0148 87.1827 34.5932 87.127 34.1716 86.7923C34.0452 86.6807 33.8976 86.7365 33.7501 86.6807C33.2442 86.6249 32.7594 86.5692 32.2535 86.5134C32.106 86.5134 31.9795 86.4576 31.832 86.3461C31.558 86.1229 31.2839 86.0672 30.9888 86.0672C30.483 86.0672 29.9982 86.0114 29.4923 86.0114C29.3237 86.0114 29.134 85.8998 28.9653 85.7325C28.8389 85.5651 28.6913 85.5651 28.5438 85.5651C28.2276 85.5651 27.9114 85.5094 27.5953 85.5094C27.4477 85.5094 27.3002 85.5094 27.1737 85.342C26.8997 85.0631 26.6257 85.0074 26.3306 85.0074C25.9512 85.0074 25.5507 85.0074 25.1713 84.9516C25.0659 84.9516 24.9605 84.9516 24.8551 84.84C24.5811 84.5611 24.3071 84.5053 24.012 84.5053C23.2742 84.4496 22.5154 84.4496 21.7777 84.5611C21.7145 84.5611 21.6301 84.6169 21.5669 84.6169C21.5248 84.6169 21.5037 84.6727 21.4826 84.7285C21.4404 84.84 21.4826 84.9516 21.588 85.0074C21.9042 85.1747 22.2203 85.0631 22.5154 85.4536C22.6419 85.6209 22.7894 85.5651 22.937 85.5651C23.2532 85.5651 23.5693 85.5651 23.8855 85.5651C24.0541 85.5651 24.2438 85.6209 24.4125 85.7883C24.6865 86.1229 24.9605 86.1787 25.2345 86.1787C25.5507 86.1787 25.8668 86.1787 26.183 86.1787C26.436 86.1787 26.6678 86.2903 26.9208 86.5134C27.0472 86.6249 27.1948 86.6807 27.3423 86.6807C27.5531 86.6807 27.7639 86.6807 27.9747 86.6807C28.2908 86.6249 28.607 86.6807 28.9232 86.7365C29.0286 86.7365 29.1129 86.9596 29.155 87.2385L29.1972 87.2385ZM63.407 5.6337C63.9761 5.57792 64.3977 5.57792 64.8193 5.57792C64.8614 5.57792 64.8825 5.57792 64.9247 5.57792C64.9879 5.52214 65.0722 5.52214 65.1354 5.41059C65.3251 5.1317 65.5359 5.13169 65.7467 5.07591C65.8099 5.07591 65.8732 4.96436 65.9364 4.90858C66.0207 4.8528 66.1472 4.35078 66.105 4.23922C66.0629 4.07189 65.9786 4.07189 65.9153 4.01611C65.7467 3.96033 65.557 3.96033 65.3884 4.18345C65.3462 4.23923 65.3251 4.295 65.3041 4.295C65.1354 4.46235 65.0722 4.35078 65.0722 3.84877C65.0722 3.62565 65.0511 3.5141 64.9457 3.45832C64.735 3.34676 64.5242 3.5141 64.3134 3.5141C64.0605 3.5141 63.8286 3.45832 63.5757 3.45832C63.5124 3.45832 63.4492 3.56987 63.386 3.68143C63.2806 3.79299 63.2384 4.07189 63.1541 4.23922C63.0698 4.46234 62.9644 4.51812 62.859 4.46235C62.7958 4.46235 62.7115 4.40657 62.6482 4.35079C62.2267 3.90455 61.8262 3.90455 61.4257 4.46234C61.3414 4.5739 61.2149 4.5739 61.1095 4.62968C61.0252 4.68546 60.983 4.79702 61.0252 4.90858C61.0463 4.96436 61.0884 5.02014 61.1095 5.02014C61.3625 5.07592 61.5943 5.13169 61.8262 5.41059C61.9526 5.57792 62.1002 5.6337 62.2477 5.57792C62.7115 5.6337 63.133 5.57792 63.407 5.6337ZM25.5296 63.6997C25.635 63.644 25.7615 63.644 25.909 63.5324C25.9512 63.5324 25.9722 63.4208 25.9933 63.4208C26.0776 63.3093 26.0987 63.1977 26.0987 62.9746C26.0776 62.8073 26.0355 62.5842 25.9722 62.5842C25.6982 62.4726 25.4242 62.1937 25.1713 61.8032C25.1502 61.7475 25.108 61.6917 25.087 61.6917C24.9183 61.5244 24.7497 61.4128 24.56 61.6359C24.3281 61.859 24.0963 62.0821 23.8433 62.0821C23.485 62.0821 23.1267 62.0264 22.7894 61.7475C22.3468 61.357 21.8831 61.357 21.4194 61.5801C21.314 61.6359 21.2297 61.8032 21.1664 62.0264C21.1243 62.1937 21.1032 62.361 21.1453 62.5284C21.1875 62.6957 21.2297 62.8073 21.314 62.863C21.3561 62.863 21.3772 62.9188 21.4194 62.9188C21.8409 62.5842 22.2625 62.5842 22.663 62.9746C22.8316 63.1419 23.0213 63.0862 23.1899 63.2535C23.4007 63.4766 23.5904 63.4208 23.8012 63.1977C23.9698 63.0304 24.1595 63.0304 24.3281 63.1419C24.4757 63.2535 24.6022 63.3651 24.7286 63.4766C24.9816 63.644 25.2345 63.6997 25.5296 63.6997ZM34.8251 82.9435C34.6143 83.2224 34.4457 83.6687 34.2138 83.9475C34.1927 84.0033 34.1506 84.0591 34.1506 84.1707C34.1295 84.2264 34.1295 84.338 34.1506 84.4496C34.1927 84.7285 34.2981 84.84 34.4035 84.84C34.5721 84.84 34.7408 84.6169 34.8883 84.4496C35.078 84.1707 35.1412 83.6687 34.9305 83.1666C34.8883 82.9993 34.8672 82.9993 34.8251 82.9435ZM22.2414 78.9274C22.2414 79.1505 22.2836 79.2621 22.3679 79.3179C22.684 79.4852 22.9791 79.3737 23.2953 79.4294C23.5272 79.4852 23.7801 79.4294 24.012 79.3737C24.0963 79.3737 24.1384 79.2063 24.1174 79.1505C24.0963 79.0948 24.0541 79.039 24.0331 79.039C23.759 78.9832 23.485 78.9274 23.211 78.9832C22.9581 79.039 22.7262 78.8716 22.4943 78.6485C22.4733 78.5928 22.4311 78.6485 22.389 78.6485C22.3046 78.5928 22.2625 78.7601 22.2414 78.9274ZM33.6868 80.9913C33.5604 80.9913 33.3917 80.9913 33.2231 80.9913C33.202 80.9913 33.1388 81.047 33.1388 81.1028C33.1177 81.2702 33.1599 81.4375 33.2231 81.4933C33.3707 81.7164 33.5393 81.8837 33.7079 81.7164C33.8976 81.4933 34.1295 81.6048 34.2981 81.3259C34.3192 81.2702 34.3192 81.2144 34.3403 81.1586C34.3192 81.1028 34.277 81.047 34.256 81.047C34.0873 81.047 33.8976 81.047 33.6868 80.9913ZM100.8 8.25533C100.8 8.3669 100.821 8.42267 100.821 8.53423C100.863 8.75734 100.905 9.03624 100.968 9.25935C101.01 9.42669 101.095 9.48247 101.158 9.37092C101.221 9.31514 101.263 9.14779 101.284 8.98045C101.306 8.70156 101.306 8.42267 101.242 8.19955C101.158 7.92065 101.032 7.86488 100.863 8.08799C100.842 8.14377 100.821 8.19955 100.8 8.25533ZM20.3865 82.2742C20.4498 82.2742 20.5341 82.2742 20.5973 82.2184C20.6395 82.2184 20.6605 82.1626 20.6816 82.1068C20.7027 82.0511 20.7238 81.9953 20.7238 81.9395C20.7027 81.8837 20.6605 81.7722 20.6395 81.7722C20.4076 81.7164 20.1758 81.549 19.9228 81.4933C19.9017 81.4933 19.8596 81.6048 19.8596 81.6606C19.8596 81.7164 19.8596 81.8837 19.8807 81.9395C20.0282 82.33 20.2179 82.2184 20.3865 82.2742ZM101.622 71.5088C101.685 71.5088 101.769 71.3973 101.79 71.2299C101.79 71.1742 101.769 71.0626 101.748 70.951C101.664 70.6164 101.537 70.449 101.39 70.449C101.306 70.449 101.242 70.5048 101.2 70.6164C101.158 70.7279 101.179 70.8953 101.242 71.0626C101.348 71.3973 101.474 71.5088 101.622 71.5088ZM10.3323 31.1805C10.4587 31.1805 10.6063 31.1247 10.7327 31.1247C10.7538 31.1247 10.796 31.069 10.8171 31.0132C10.8381 30.9574 10.796 30.7901 10.7117 30.7901C10.4798 30.7343 10.2479 30.7343 9.995 30.7343C9.97392 30.7343 9.93177 30.7901 9.91069 30.8458C9.88962 30.9016 9.86853 30.9574 9.84746 31.0132C9.86853 31.069 9.88961 31.1247 9.93176 31.1805C10.0582 31.2363 10.2058 31.2363 10.3323 31.1805ZM95.1296 94.2667C95.0875 94.2667 95.0032 94.2667 94.9399 94.3225C94.8346 94.3225 94.8135 94.434 94.8346 94.6572C94.8556 94.8245 94.9189 94.936 94.9821 94.9918C95.0875 95.0476 95.1718 94.8803 95.2772 94.7687C95.3404 94.7129 95.4037 94.6014 95.4247 94.434C95.3826 94.3225 95.3193 94.2667 95.235 94.2667C95.235 94.2109 95.1929 94.2109 95.1296 94.2667ZM87.8155 92.5933C87.668 92.6491 87.6047 92.6491 87.5204 92.6491C87.4783 92.6491 87.4361 92.7049 87.4361 92.7607C87.415 92.8722 87.4783 92.9838 87.5626 92.9838C87.7523 92.9838 87.9631 93.1511 88.1528 92.928C88.1739 92.928 88.1949 92.8164 88.1949 92.7607C88.1739 92.7049 88.1528 92.5933 88.1106 92.5933C87.9842 92.5933 87.8577 92.5933 87.8155 92.5933ZM22.2414 82.2742C22.3046 82.33 22.3679 82.4415 22.4311 82.4973C22.4522 82.5531 22.4943 82.5531 22.5154 82.5531C22.5787 82.5531 22.6419 82.4415 22.684 82.2742C22.7262 82.0511 22.7051 81.9395 22.6208 81.8837C22.4943 81.8837 22.3468 81.8837 22.2203 81.8837C22.1782 81.8837 22.136 81.9395 22.136 81.9395C22.1149 82.1068 22.1571 82.2184 22.2414 82.2742ZM26.71 79.8757C26.8786 79.8757 26.9418 79.8757 27.0051 79.8757C27.0261 79.8757 27.0683 79.8199 27.0894 79.7641C27.1105 79.6526 27.0683 79.5968 26.984 79.541C26.8154 79.541 26.6467 79.541 26.4781 79.541C26.457 79.541 26.4149 79.5968 26.3938 79.6526C26.3727 79.7083 26.4149 79.8199 26.5203 79.8757C26.6046 79.8757 26.71 79.8757 26.71 79.8757ZM3.33431 47.6911C3.41863 47.6911 3.35539 47.6911 3.29215 47.6911C3.20784 47.6911 3.14462 47.7469 3.12354 47.9142C3.10246 48.0258 3.16569 48.1931 3.25 48.1931C3.41863 48.1931 3.58725 48.1931 3.75588 48.1374C3.84019 48.1374 3.90342 47.97 3.88234 47.9142C3.84019 47.7469 3.77696 47.7469 3.69264 47.7469C3.6294 47.7469 3.5451 47.7469 3.33431 47.6911ZM70.5314 4.79702C70.5947 4.74124 70.6368 4.5739 70.6368 4.40656C70.6368 4.23923 70.5947 4.07189 70.5104 4.01611C70.4471 3.96033 70.3839 3.96033 70.2996 4.01611C70.2153 4.01611 70.1731 4.12768 70.1942 4.35079C70.1942 4.40657 70.2153 4.51813 70.2364 4.5739C70.3207 4.79702 70.405 4.8528 70.5314 4.79702ZM33.4339 63.5882C33.3707 63.5882 33.3074 63.5882 33.2442 63.644C33.1599 63.6997 33.1177 63.7555 33.1388 63.9229C33.1599 63.9786 33.181 64.0902 33.2021 64.0902C33.2864 64.2017 33.3707 64.3133 33.4761 64.4249C33.5393 64.4806 33.6025 64.4249 33.6658 64.3133C33.7079 64.2017 33.7501 64.0344 33.729 63.8671C33.6658 63.8113 33.6025 63.7555 33.5393 63.6997C33.4971 63.5882 33.455 63.5882 33.4339 63.5882ZM4.68331 47.7469C4.62007 47.7469 4.53576 47.7469 4.47253 47.8027C4.43038 47.8027 4.4093 47.8585 4.38822 47.9142C4.4093 48.0258 4.47254 48.0816 4.53577 48.0816C4.599 48.0816 4.68331 48.0816 4.74655 48.0816C4.80979 48.0816 4.8941 48.0816 4.93625 47.97C4.97841 47.8585 4.85194 47.7469 4.68331 47.7469ZM109.8 11.7694C109.674 11.7694 109.526 11.9368 109.568 12.0483C109.61 12.2156 109.674 12.2714 109.737 12.2714C109.8 12.2714 109.863 12.2714 109.927 12.2714C109.99 12.2714 110.074 12.2714 110.116 12.1041C110.137 12.0483 110.074 11.881 109.99 11.881C109.948 11.7694 109.884 11.7694 109.8 11.7694ZM102.633 9.59403C102.528 9.59403 102.423 9.59402 102.338 9.81714C102.423 10.0403 102.528 10.0403 102.633 10.096C102.676 10.096 102.697 10.096 102.739 10.096C102.823 10.096 102.886 10.0403 102.929 9.87292C102.886 9.70559 102.823 9.64981 102.76 9.64981C102.697 9.64981 102.676 9.64981 102.633 9.59403ZM67.4119 5.07591C67.3697 4.8528 67.3276 4.62968 67.2854 4.40656C67.2643 4.35078 67.2222 4.295 67.2011 4.295C67.18 4.295 67.1379 4.40657 67.1379 4.46235C67.0957 4.79702 67.1168 5.18747 67.2222 5.41059C67.2854 5.52215 67.3486 5.46637 67.4119 5.3548C67.4119 5.29902 67.3908 5.18747 67.4119 5.07591ZM48.3572 89.8044C48.3572 89.8044 48.294 89.8044 48.2308 89.8044C48.1886 89.8044 48.1675 89.8044 48.1465 89.8601C48.1254 89.9159 48.0832 89.9717 48.0621 89.9717C48.0832 90.0275 48.1043 90.139 48.1465 90.139C48.2518 90.1948 48.3362 90.1948 48.4415 90.1948C48.5891 90.1948 48.6945 90.0275 48.6312 89.9159C48.5469 89.8601 48.5048 89.8044 48.3572 89.8044ZM23.7169 82.832C23.8644 82.7762 23.9698 82.7762 24.0752 82.7204C24.0963 82.7204 24.1384 82.6646 24.1595 82.6088C24.1384 82.5531 24.1174 82.4973 24.1174 82.4973C24.012 82.4415 23.9277 82.3857 23.8223 82.3857C23.7169 82.33 23.5693 82.5531 23.6115 82.6646C23.6326 82.7762 23.6958 82.832 23.7169 82.832ZM107.945 46.464C107.966 46.5198 108.008 46.5756 108.029 46.5756C108.135 46.6314 108.24 46.6314 108.303 46.4082C108.303 46.4082 108.261 46.2409 108.24 46.2409C108.135 46.1293 108.051 46.1293 107.945 46.2967C107.945 46.2967 107.945 46.4082 107.945 46.464ZM24.5389 82.8877C24.56 82.9435 24.56 83.0551 24.5811 83.1109C24.6443 83.334 24.834 83.2782 24.834 83.1109C24.834 82.9435 24.7919 82.7762 24.7497 82.6646C24.6865 82.5531 24.6232 82.4973 24.5811 82.6646C24.56 82.7204 24.56 82.7762 24.5389 82.8877ZM89.9444 92.8722C89.9655 92.928 89.9866 93.0396 90.0077 93.0396C90.113 93.0953 90.1974 93.0953 90.2817 92.928C90.3028 92.8722 90.3238 92.8164 90.3238 92.7607C90.3027 92.5933 90.1763 92.4818 90.0709 92.5933C89.9866 92.6491 89.9444 92.7049 89.9444 92.8722ZM77.1711 95.2707C77.2132 95.4381 77.2765 95.4938 77.3397 95.4381C77.3608 95.4381 77.3818 95.3265 77.4029 95.2707C77.3818 95.2149 77.3608 95.1592 77.3397 95.1034C77.2765 95.0476 77.2132 95.1034 77.1711 95.2707ZM62.8168 94.4898C62.8379 94.4898 62.859 94.434 62.9012 94.3782C62.8801 94.3225 62.8801 94.2667 62.859 94.2109C62.7747 94.1551 62.7325 94.2667 62.7536 94.3782C62.7325 94.434 62.7958 94.4898 62.8168 94.4898ZM27.5953 80.1546C27.6163 80.2103 27.6163 80.3219 27.6374 80.3219C27.6585 80.3219 27.7007 80.3219 27.7217 80.3219C27.785 80.2103 27.7639 80.0988 27.6585 80.0988C27.6585 80.0988 27.6163 80.1546 27.5953 80.1546ZM94.1601 70.6721C94.1601 70.7279 94.1601 70.8395 94.1811 70.8395C94.2022 70.8953 94.2444 70.8953 94.2865 70.8953C94.3708 70.7837 94.3708 70.6721 94.2654 70.6164C94.2233 70.6164 94.1811 70.6721 94.1601 70.6721ZM29.4501 63.3093C29.4712 63.3651 29.4923 63.4208 29.5134 63.4766C29.5766 63.5324 29.6398 63.4766 29.682 63.3093C29.682 63.3093 29.6398 63.1977 29.6188 63.1419C29.5555 63.0862 29.4923 63.1419 29.4501 63.3093ZM108.62 45.0695C108.599 45.1253 108.556 45.1253 108.535 45.1811C108.556 45.2369 108.578 45.2927 108.62 45.3484C108.704 45.4042 108.746 45.2927 108.725 45.1811C108.704 45.1253 108.662 45.1253 108.62 45.0695ZM38.7034 5.18747C38.7245 5.24325 38.7456 5.29902 38.7667 5.3548C38.8299 5.41057 38.8931 5.3548 38.9142 5.18747C38.9142 5.18747 38.8721 5.07591 38.851 5.02013C38.7878 4.96435 38.7456 5.02013 38.7034 5.18747ZM23.1267 82.6646L23.1688 82.5531L23.1056 82.5531L23.1267 82.6646Z" fill="#00659E"/>
<path d="M48.5017 60.3824L43.3455 51.7806C43.2634 51.6608 43.1535 51.5629 43.0252 51.4952C42.8969 51.4275 42.754 51.3922 42.609 51.3922C42.4639 51.3922 42.3211 51.4275 42.1927 51.4952C42.0644 51.5629 41.9545 51.6608 41.8725 51.7806L36.7162 60.3824C36.6359 60.5162 36.5935 60.6693 36.5935 60.8254C36.5935 60.9815 36.6359 61.1346 36.7162 61.2684L41.8725 69.8702C41.9489 69.9974 42.0569 70.1026 42.1859 70.1757C42.315 70.2487 42.4607 70.2871 42.609 70.2871C42.7572 70.2871 42.903 70.2487 43.032 70.1757C43.1611 70.1026 43.2691 69.9974 43.3455 69.8702L48.5017 61.2684C48.582 61.1346 48.6244 60.9815 48.6244 60.8254C48.6244 60.6693 48.582 60.5162 48.5017 60.3824ZM42.609 67.755L38.4548 60.8254L42.609 53.8958L46.7632 60.8254L42.609 67.755Z" fill="white"/>
<path d="M69.1265 51.7806C69.0445 51.6608 68.9345 51.5629 68.8062 51.4952C68.6779 51.4275 68.535 51.3922 68.39 51.3922C68.2449 51.3922 68.1021 51.4275 67.9737 51.4952C67.8454 51.5629 67.7355 51.6608 67.6535 51.7806L62.4972 60.3824C62.4169 60.5162 62.3745 60.6693 62.3745 60.8254C62.3745 60.9815 62.4169 61.1346 62.4972 61.2684L67.6535 69.8702C67.7299 69.9974 67.8379 70.1026 67.9669 70.1757C68.096 70.2487 68.2417 70.2871 68.39 70.2871C68.5382 70.2871 68.684 70.2487 68.813 70.1757C68.9421 70.1026 69.0501 69.9974 69.1265 69.8702L74.2827 61.2684C74.363 61.1346 74.4054 60.9815 74.4054 60.8254C74.4054 60.6693 74.363 60.5162 74.2827 60.3824L69.1265 51.7806ZM68.39 67.755L64.2358 60.8254L68.39 53.8958L72.5442 60.8254L68.39 67.755Z" fill="white"/>
<path d="M41.8725 44.0648C41.9489 44.192 42.0569 44.2972 42.1859 44.3702C42.315 44.4433 42.4607 44.4817 42.609 44.4817C42.7572 44.4817 42.903 44.4433 43.032 44.3702C43.1611 44.2972 43.2691 44.192 43.3455 44.0648L48.5017 35.463C48.582 35.3292 48.6244 35.176 48.6244 35.02C48.6244 34.8639 48.582 34.7108 48.5017 34.577L43.3455 25.9752C43.2634 25.8554 43.1535 25.7575 43.0252 25.6898C42.8969 25.6221 42.754 25.5867 42.609 25.5867C42.4639 25.5867 42.3211 25.6221 42.1927 25.6898C42.0644 25.7575 41.9545 25.8554 41.8725 25.9752L36.7162 34.577C36.6359 34.7108 36.5935 34.8639 36.5935 35.02C36.5935 35.176 36.6359 35.3292 36.7162 35.463L41.8725 44.0648ZM42.609 28.0904L46.7632 35.02L42.609 41.9496L38.4548 35.02L42.609 28.0904Z" fill="white"/>
<path d="M69.1265 25.9752C69.0445 25.8554 68.9345 25.7575 68.8062 25.6898C68.6779 25.6221 68.535 25.5867 68.39 25.5867C68.2449 25.5867 68.1021 25.6221 67.9737 25.6898C67.8454 25.7575 67.7355 25.8554 67.6535 25.9752L62.4972 34.577C62.4169 34.7108 62.3745 34.8639 62.3745 35.02C62.3745 35.176 62.4169 35.3292 62.4972 35.463L67.6535 44.0648C67.7299 44.192 67.8379 44.2972 67.9669 44.3702C68.096 44.4433 68.2417 44.4817 68.39 44.4817C68.5382 44.4817 68.684 44.4433 68.813 44.3702C68.9421 44.2972 69.0501 44.192 69.1265 44.0648L74.2827 35.463C74.363 35.3292 74.4054 35.176 74.4054 35.02C74.4054 34.8639 74.363 34.7108 74.2827 34.577L69.1265 25.9752ZM68.39 41.9496L64.2358 35.02L68.39 28.0904L72.5442 35.02L68.39 41.9496Z" fill="white"/>
<path d="M81.2813 21.257H29.7188C29.4908 21.257 29.2722 21.3476 29.1111 21.509C28.9499 21.6703 28.8594 21.8891 28.8594 22.1172V73.7281C28.8594 73.9562 28.9499 74.175 29.1111 74.3363C29.2722 74.4976 29.4908 74.5883 29.7188 74.5883H81.2813C81.5092 74.5883 81.7278 74.4976 81.8889 74.3363C82.0501 74.175 82.1406 73.9562 82.1406 73.7281V22.1172C82.1406 21.8891 82.0501 21.6703 81.8889 21.509C81.7278 21.3476 81.5092 21.257 81.2813 21.257ZM80.4219 26.3321C79.5969 26.1619 78.8397 25.7534 78.2441 25.1572C77.6485 24.561 77.2404 23.8032 77.0703 22.9774H80.4219V26.3321ZM75.3344 72.8679H61.4469C61.2603 71.5837 60.6643 70.3942 59.7475 69.4766C58.8308 68.559 57.6424 67.9624 56.3594 67.7756V53.8751C57.6424 53.6884 58.8308 53.0918 59.7475 52.1742C60.6643 51.2565 61.2603 50.067 61.4469 48.7828H75.3344C75.5209 50.067 76.117 51.2565 77.0337 52.1742C77.9505 53.0918 79.1389 53.6884 80.4219 53.8751V67.7756C79.1389 67.9624 77.9505 68.559 77.0337 69.4766C76.117 70.3942 75.5209 71.5837 75.3344 72.8679ZM30.5781 67.7756V53.8751C31.8611 53.6884 33.0495 53.0918 33.9663 52.1742C34.883 51.2565 35.4791 50.067 35.6656 48.7828H49.5531C49.7397 50.067 50.3357 51.2565 51.2525 52.1742C52.1692 53.0918 53.3576 53.6884 54.6406 53.8751V67.7756C53.3576 67.9624 52.1692 68.559 51.2525 69.4766C50.3357 70.3942 49.7397 71.5837 49.5531 72.8679H35.6656C35.4791 71.5837 34.883 70.3942 33.9663 69.4766C33.0495 68.559 31.8611 67.9624 30.5781 67.7756ZM35.6656 22.9774H49.5531C49.7397 24.2616 50.3357 25.4511 51.2525 26.3687C52.1692 27.2863 53.3576 27.8829 54.6406 28.0697V41.9702C53.3576 42.1569 52.1692 42.7535 51.2525 43.6711C50.3357 44.5887 49.7397 45.7783 49.5531 47.0625H35.6656C35.4791 45.7783 34.883 44.5887 33.9663 43.6711C33.0495 42.7535 31.8611 42.1569 30.5781 41.9702V28.0697C31.8611 27.8829 33.0495 27.2863 33.9663 26.3687C34.883 25.4511 35.4791 24.2616 35.6656 22.9774ZM54.6406 48.7828V52.1375C53.8156 51.9673 53.0585 51.5589 52.4628 50.9626C51.8672 50.3664 51.4591 49.6086 51.2891 48.7828H54.6406ZM51.2891 47.0625C51.4591 46.2367 51.8672 45.4788 52.4628 44.8826C53.0585 44.2864 53.8156 43.878 54.6406 43.7078V47.0625H51.2891ZM56.3594 48.7828H59.7109C59.5409 49.6086 59.1328 50.3664 58.5372 50.9626C57.9415 51.5589 57.1844 51.9673 56.3594 52.1375V48.7828ZM56.3594 47.0625V43.7078C57.1844 43.878 57.9415 44.2864 58.5372 44.8826C59.1328 45.4788 59.5409 46.2367 59.7109 47.0625H56.3594ZM56.3594 22.9774H59.7109C59.5409 23.8032 59.1328 24.561 58.5372 25.1572C57.9415 25.7534 57.1844 26.1619 56.3594 26.3321V22.9774ZM54.6406 26.3321C53.8156 26.1619 53.0585 25.7534 52.4628 25.1572C51.8672 24.561 51.4591 23.8032 51.2891 22.9774H54.6406V26.3321ZM33.9297 47.0625H30.5781V43.7078C31.4031 43.878 32.1603 44.2864 32.7559 44.8826C33.3515 45.4788 33.7596 46.2367 33.9297 47.0625ZM33.9297 48.7828C33.7596 49.6086 33.3515 50.3664 32.7559 50.9626C32.1603 51.5589 31.4031 51.9673 30.5781 52.1375V48.7828H33.9297ZM54.6406 69.5132V72.8679H51.2891C51.4591 72.0421 51.8672 71.2843 52.4628 70.6881C53.0585 70.0919 53.8156 69.6834 54.6406 69.5132ZM56.3594 69.5132C57.1844 69.6834 57.9415 70.0919 58.5372 70.6881C59.1328 71.2843 59.5409 72.0421 59.7109 72.8679H56.3594V69.5132ZM77.0703 48.7828H80.4219V52.1375C79.5969 51.9673 78.8397 51.5589 78.2441 50.9626C77.6485 50.3664 77.2404 49.6086 77.0703 48.7828ZM77.0703 47.0625C77.2404 46.2367 77.6485 45.4788 78.2441 44.8826C78.8397 44.2864 79.5969 43.878 80.4219 43.7078V47.0625H77.0703ZM75.3344 47.0625H61.4469C61.2603 45.7783 60.6643 44.5887 59.7475 43.6711C58.8308 42.7535 57.6424 42.1569 56.3594 41.9702V28.0697C57.6424 27.8829 58.8308 27.2863 59.7475 26.3687C60.6643 25.4511 61.2603 24.2616 61.4469 22.9774H75.3344C75.5209 24.2616 76.117 25.4511 77.0337 26.3687C77.9505 27.2863 79.1389 27.8829 80.4219 28.0697V41.9702C79.1389 42.1569 77.9505 42.7535 77.0337 43.6711C76.117 44.5887 75.5209 45.7783 75.3344 47.0625ZM33.9297 22.9774C33.7596 23.8032 33.3515 24.561 32.7559 25.1572C32.1603 25.7534 31.4031 26.1619 30.5781 26.3321V22.9774H33.9297ZM30.5781 69.5132C31.4031 69.6834 32.1603 70.0919 32.7559 70.6881C33.3515 71.2843 33.7596 72.0421 33.9297 72.8679H30.5781V69.5132ZM77.0703 72.8679C77.2404 72.0421 77.6485 71.2843 78.2441 70.6881C78.8397 70.0919 79.5969 69.6834 80.4219 69.5132V72.8679H77.0703Z" fill="white"/>
</svg>
