<svg width="110" height="101" viewBox="0 0 110 101" fill="none" xmlns="http://www.w3.org/2000/svg">
<path d="M103.215 40.8917C103.274 40.9895 103.334 41.0874 103.413 41.1363C103.473 41.1852 103.552 41.2341 103.611 41.1852C103.809 40.9895 104.027 40.9406 104.245 40.9406C104.503 40.9406 104.74 40.9406 104.998 40.8917C105.256 40.8427 105.493 40.9406 105.751 40.9406C105.929 40.9406 106.107 41.0384 106.266 41.2341C106.405 41.3809 106.543 41.332 106.682 41.1852C106.761 41.1363 106.821 41.1363 106.88 41.1852C107.019 41.332 107.138 41.4298 107.296 41.4298C107.435 41.4298 107.573 41.4788 107.712 41.5277C107.791 41.5277 107.91 41.8702 107.91 42.0659C107.93 42.4083 107.97 42.7508 107.95 43.0933C107.95 43.6315 107.91 44.1207 107.831 44.6589C107.791 44.9035 107.831 45.1971 107.93 45.3439C108.009 45.4906 108.108 45.6374 108.188 45.7842C108.306 46.0288 108.366 46.3224 108.346 46.7138C108.326 46.8605 108.306 47.0562 108.287 47.203C108.247 47.4966 108.306 47.6434 108.445 47.6923C108.623 47.6923 108.802 47.6923 108.98 47.7412C109.039 47.7412 109.119 47.8391 109.178 47.9369C109.317 48.2305 109.436 48.5729 109.535 48.9154C109.574 49.0622 109.614 49.209 109.614 49.4047C109.634 49.7471 109.634 50.0896 109.654 50.4321C109.654 50.7746 109.614 51.1171 109.535 51.4106C109.475 51.6552 109.416 51.8509 109.356 52.0956C109.297 52.2913 109.317 52.5359 109.436 52.7805C109.515 52.9762 109.594 53.123 109.673 53.3187C109.772 53.5633 109.832 53.9058 109.852 54.2483C109.852 54.6886 109.852 55.1289 109.852 55.5693C109.852 56.4988 109.852 56.5478 109.475 56.8413C109.436 56.8902 109.396 56.8902 109.376 56.9392C109.356 57.037 109.376 57.1838 109.455 57.2816C109.594 57.4284 109.713 57.6241 109.792 57.9177C109.812 57.9666 109.832 58.0644 109.832 58.1623C109.832 58.2602 109.832 58.358 109.832 58.4069C109.792 58.6516 109.753 58.8962 109.713 59.1408C109.753 59.4833 109.891 59.679 109.971 59.9725C110.01 60.1193 110.01 60.315 109.971 60.4618C109.891 60.7553 109.772 60.951 109.634 61.0489C109.555 61.0978 109.535 61.2935 109.555 61.4892C109.673 62.0763 109.654 62.6634 109.535 63.2505C109.515 63.3484 109.495 63.3973 109.495 63.4952C109.436 64.0333 109.455 64.5226 109.555 65.0118C109.594 65.1586 109.634 65.3054 109.673 65.4522C109.792 65.9414 109.812 66.0882 109.495 66.4307C109.337 66.6264 109.158 66.7242 109 66.871C108.96 66.871 108.94 66.9689 108.921 67.0178C108.901 67.1156 108.96 67.2624 109.039 67.3113C109.178 67.3603 109.317 67.4092 109.455 67.507C109.555 67.556 109.654 67.7027 109.713 67.9474C109.733 67.9963 109.772 68.0941 109.753 68.192C109.733 68.7302 109.614 69.1705 109.634 69.7087C109.673 70.2469 109.594 70.834 109.475 71.3721C109.416 71.5678 109.436 71.9103 109.396 72.1549C109.356 72.3996 109.297 72.5953 109.178 72.6931C109.119 72.791 109.059 72.8888 109 72.9377C108.901 73.0845 108.881 73.3781 108.98 73.5738C109.138 73.8673 109.198 74.2587 109.099 74.6991C109.059 74.8948 109.059 75.0415 109.099 75.1883C109.138 75.3351 109.138 75.5308 109.119 75.6776C109.079 75.9222 109.02 76.1668 109.02 76.4114C109 76.8518 108.901 77.2432 108.921 77.6835C108.921 78.0749 108.901 78.3195 108.742 78.5152C108.683 78.5642 108.623 78.7109 108.584 78.8577C108.524 79.0045 108.505 79.1513 108.544 79.298C108.564 79.347 108.604 79.3959 108.643 79.3959C108.821 79.3959 109 79.3959 109.178 79.4448C109.297 79.4448 109.376 79.7384 109.356 79.9341C109.297 80.5212 109.198 81.1083 108.98 81.4508C108.921 81.5486 108.901 81.6954 108.861 81.8422C108.841 81.8911 108.841 81.9889 108.821 82.0868L108.802 82.0868C108.584 82.1846 108.386 82.3314 108.247 82.7717C108.188 82.9674 108.168 83.3099 108.227 83.5056C108.326 83.897 108.485 84.0927 108.604 84.4352C108.663 84.6309 108.722 84.8755 108.782 85.0712C108.802 85.1202 108.802 85.218 108.802 85.3159C108.841 85.7562 108.703 86.2454 108.544 86.2944C108.366 86.3433 108.188 86.3922 108.009 86.4411C107.93 86.4411 107.871 86.539 107.811 86.5879C107.732 86.6368 107.633 87.0282 107.672 87.175C107.732 87.2729 107.791 87.3218 107.871 87.2239C107.93 87.175 108.009 87.0772 108.069 87.0282C108.128 86.9793 108.227 86.9793 108.267 87.0282C108.505 87.3218 108.742 87.4196 108.98 87.4686C109.02 87.4686 109.039 87.5664 109.059 87.6153C109.079 87.7132 109.039 87.86 108.96 87.9089C108.722 88.0067 108.465 88.0557 108.247 88.3492C108.128 88.5449 107.97 88.496 107.831 88.5449C107.692 88.5939 107.554 88.5449 107.415 88.6917C107.336 88.7406 107.197 89.0831 107.197 89.2299C107.197 89.3767 107.237 89.5234 107.296 89.6702C107.355 89.7681 107.415 89.9148 107.474 89.9148C107.573 89.9638 107.692 90.0127 107.791 90.0127C108.188 90.0616 108.564 90.0616 108.96 90.1105C109 90.1105 109.039 90.1595 109.059 90.2084C109.099 90.3062 109.079 90.453 109.02 90.5998C108.901 90.7955 108.782 90.9912 108.683 91.2358C108.544 91.5294 108.386 91.6761 108.207 91.7251C108.108 91.774 107.989 91.8229 107.89 91.8719C107.831 91.9208 107.772 92.0676 107.752 92.2143C107.613 92.1654 107.474 92.2633 107.355 92.41C107.256 92.5079 107.157 92.459 107.058 92.41C106.781 92.2143 106.504 92.1654 106.246 92.3611C106.226 92.3611 106.187 92.459 106.187 92.5079C106.187 92.6057 106.187 92.7036 106.206 92.7525C106.246 92.8504 106.305 92.9971 106.365 93.0461C106.741 93.2907 107.118 93.2907 107.494 93.1439C107.554 93.1439 107.633 93.0461 107.672 92.8993C107.712 92.8014 107.712 92.6057 107.732 92.41C107.732 92.3122 107.732 92.2143 107.732 92.1654C107.791 92.2143 107.851 92.3122 107.89 92.459C107.93 92.7036 107.989 92.8993 108.029 93.1439C108.088 93.4864 108.088 93.6332 108.029 93.8289C107.93 94.0735 107.831 94.3181 107.732 94.5138C107.653 94.6606 107.554 94.8074 107.455 94.8074C107.276 94.8074 107.118 94.8563 106.939 94.8563C106.761 94.8563 106.603 94.7584 106.444 94.5138C106.385 94.416 106.325 94.367 106.246 94.3181C106.226 94.2692 106.226 94.1713 106.206 94.1224C106.187 94.0735 106.167 94.0735 106.147 94.0735C106.147 94.1713 106.187 94.2692 106.266 94.2692C106.246 94.7095 106.305 95.1009 106.424 95.4923C106.583 95.9816 106.781 96.373 107.039 96.4219C107.098 96.4219 107.177 96.5198 107.237 96.5687C107.296 96.6665 107.355 96.7644 107.395 96.9112C107.435 97.0579 107.415 97.2536 107.336 97.3026C107.138 97.4983 106.939 97.645 106.741 97.7918C106.682 97.8407 106.603 97.8897 106.543 97.8897C106.325 97.9875 106.107 97.9386 105.909 98.1343C105.751 98.2811 105.592 98.4768 105.414 98.5257C105.256 98.5746 105.275 98.6235 105.414 98.966C105.533 99.2596 105.553 99.3085 105.473 99.6021C105.454 99.6999 105.434 99.7488 105.434 99.8467C105.335 100.434 105.176 100.678 104.82 100.532C104.721 100.483 104.622 100.287 104.661 99.9935C104.701 99.651 104.542 99.3085 104.681 99.0149C104.74 98.9171 104.8 98.8192 104.8 98.6235C104.8 98.6235 104.74 98.5746 104.721 98.5257C104.582 98.4768 104.443 98.4768 104.305 98.4278C104.206 98.4278 104.087 98.4278 103.988 98.5257C103.79 98.7703 103.591 98.9171 103.373 98.8682C103.235 98.8682 103.096 98.8682 102.938 98.9171C102.878 98.9171 102.779 98.966 102.74 99.0639C102.7 99.1617 102.7 99.3574 102.7 99.5531C102.7 99.7488 102.66 99.8467 102.561 99.8956C102.383 99.8956 102.205 99.8956 102.026 99.9445C101.907 99.9445 101.808 99.8467 101.709 99.7488C101.63 99.651 101.571 99.651 101.511 99.7488C101.274 99.9935 101.016 99.9935 100.778 99.9935C100.699 99.9935 100.62 99.9935 100.58 99.8956C100.243 99.3574 99.8273 99.4553 99.4509 99.1128C99.2726 99.0639 99.0943 99.0639 98.916 99.0149C98.8169 98.966 98.6981 98.9171 98.6188 98.7703C98.5198 98.6235 98.4405 98.4768 98.4009 98.2321C98.4405 98.0854 98.4802 97.9875 98.5396 97.8407C98.5594 97.7918 98.599 97.7429 98.6188 97.645C98.6981 97.4004 98.6783 97.1069 98.5792 97.009C98.3217 96.8133 98.0839 96.8133 97.8858 97.2536C97.6877 97.694 97.5094 97.9386 97.3113 98.1343C97.2519 98.1832 97.1726 98.2811 97.1132 98.2321C96.9151 98.0854 96.7566 98.2811 96.5981 98.4278C96.5189 98.4768 96.4594 98.5257 96.3802 98.4278C96.1821 98.1832 95.9642 98.1832 95.7661 98.4278C95.4491 98.4768 95.1321 98.5257 94.8151 98.2321C94.6765 98.0854 94.5378 98.0854 94.3991 98.0854C94.1812 98.0364 93.9831 97.9386 93.785 97.7429C93.6859 97.645 93.5868 97.5961 93.4878 97.4983C93.3491 97.4004 93.2104 97.4004 93.0718 97.3026C92.834 97.1069 92.5963 97.009 92.3388 97.009C91.9822 97.009 91.6256 96.9601 91.269 96.9601C91.0114 96.9601 90.7737 96.9112 90.5161 96.9112C90.2982 96.9112 90.1001 96.8133 89.8822 96.6665C89.6048 96.4708 89.3275 96.4219 89.0501 96.7644C88.9511 96.8622 88.852 96.8622 88.7332 96.8133C88.6341 96.7155 88.535 96.7155 88.4162 96.8133C88.0002 97.2047 87.5841 97.1069 87.1681 96.7155C87.0294 96.5687 86.8907 96.5687 86.7521 96.7155C86.4747 97.0579 86.1974 97.0579 85.92 96.7644C85.7813 96.6176 85.6625 96.5198 85.504 96.5198C85.2266 96.5198 84.9294 96.5198 84.6521 96.5687C84.0181 96.6665 83.3644 96.5198 82.7304 96.4219C82.6512 96.4219 82.5918 96.373 82.5323 96.3241C82.3936 96.2262 82.255 96.2751 82.1163 96.373C81.8389 96.5198 81.5616 96.4708 81.2842 96.1773C81.1456 96.0305 81.0069 95.9816 80.8682 96.0305C80.6503 96.0794 80.4522 96.0305 80.2541 95.7369C80.155 95.5902 80.0559 95.5902 79.9569 95.7369C79.739 96.0305 79.4814 96.1284 79.2437 96.0794C79.0654 96.0305 78.8871 95.9816 78.7088 95.9816C78.5899 95.9816 78.4909 95.8837 78.4116 95.7859C78.273 95.6391 78.1541 95.5412 77.9956 95.5902C77.7579 95.6391 77.5003 95.5902 77.2626 95.8348C77.1635 95.9327 77.0645 95.8837 76.9654 95.7369C76.8664 95.6391 76.7673 95.4923 76.6683 95.4923C76.3117 95.5412 75.9551 95.5412 75.5985 95.5902C75.539 95.5902 75.4598 95.688 75.4004 95.7369C75.123 95.9816 74.8457 95.9816 74.5683 95.7859C74.5485 95.7859 74.5287 95.688 74.5287 95.6391C74.5485 95.5902 74.5683 95.4923 74.6079 95.4923C74.8853 95.4923 75.0636 95.052 75.2617 94.7095C75.3211 94.6117 75.3806 94.6117 75.4598 94.6606C75.5985 94.8074 75.7372 94.8074 75.8758 94.6606C76.0343 94.4649 76.2126 94.367 76.3909 94.416C76.7871 94.4649 77.1834 94.4649 77.5598 94.367C77.6192 94.367 77.6984 94.2692 77.7579 94.1713C77.8173 94.0735 77.8569 93.9267 77.8767 93.7799C77.8965 93.6332 77.8569 93.4864 77.7777 93.3885C77.5796 93.1439 77.4013 92.8504 77.1834 92.8504C76.8664 92.8504 76.6485 92.459 76.49 91.774C76.4305 91.4804 76.3711 91.4804 76.2324 91.5783C76.0541 91.6761 75.8758 91.774 75.7173 91.9208C75.5787 92.0675 75.44 92.0675 75.3013 91.9208C75.2419 91.8718 75.1626 91.8229 75.1032 91.8229C74.8853 91.774 74.6674 91.8229 74.5089 92.2143C74.4494 92.3122 74.4098 92.459 74.3504 92.5568C74.1919 92.8014 74.0334 92.8993 73.8551 92.7525C73.7957 92.7036 73.7164 92.6057 73.657 92.5568C73.5579 92.459 73.4391 92.459 73.34 92.5568C73.241 92.6547 73.1419 92.6057 73.023 92.5079C72.8448 92.3611 72.6665 92.3122 72.4882 92.41C72.3891 92.459 72.29 92.6057 72.2306 92.8014C72.1316 93.1439 72.0127 93.1439 71.8938 92.8014C71.8344 92.6057 71.775 92.3611 71.7155 92.1654C71.6363 91.9208 71.5372 91.9208 71.4382 92.1165C71.3787 92.2143 71.3391 92.41 71.2995 92.5079C71.2203 92.7036 71.1212 92.8014 71.0023 92.8014C70.824 92.8504 70.6457 92.8993 70.4674 92.7036C70.1703 92.41 69.8335 92.3611 69.5759 91.9208C69.4769 91.774 69.3778 91.8229 69.2788 91.9697C69.0807 92.2633 68.8826 92.3122 68.6646 92.1165C68.4863 91.9208 68.3279 91.8718 68.1496 92.0675C67.9514 92.2632 67.7335 92.3611 67.5354 92.41C67.3175 92.459 67.1392 92.7525 66.9213 92.8014C66.7628 92.8014 66.6439 93.0461 66.5647 93.3396C66.3468 94.0735 66.01 94.4649 65.6732 94.7584C65.6137 94.8074 65.5147 94.8074 65.4751 94.7584C65.2175 94.416 64.9204 94.416 64.643 94.416C64.5241 94.416 64.3657 94.1224 64.3458 93.7799C64.326 93.6332 64.3062 93.4375 64.3062 93.2418C64.3062 92.7525 64.2468 92.41 64.0289 92.3122C63.8506 92.2632 63.6921 92.0675 63.5336 91.8229C63.4742 91.7251 63.3949 91.6272 63.3949 91.4804C63.3949 91.3337 63.494 91.2847 63.5732 91.2358C63.6723 91.1869 63.7911 91.138 63.8902 91.089C63.9298 91.089 63.9496 90.9912 63.9694 90.9423C63.9496 90.8933 63.9298 90.8444 63.8902 90.7955C63.7911 90.6976 63.6723 90.7466 63.5732 90.7466C63.4345 90.7466 63.2959 90.7466 63.1572 90.5509C63.0581 90.4041 63.0383 90.1105 62.9591 89.9638C62.8798 89.7681 62.7808 89.7191 62.6817 89.8659C62.6223 89.9638 62.5629 90.0616 62.5232 90.2084C62.4836 90.3552 62.444 90.5019 62.4044 90.6487C62.3647 90.8444 62.3053 90.9423 62.2657 90.8444C62.2459 90.7955 62.2261 90.6976 62.2063 90.6487C62.1864 90.5019 62.1666 90.3062 62.1468 90.1595C62.0874 89.817 61.8298 89.6702 61.6912 89.9148C61.5921 90.0616 61.5525 90.3062 61.4733 90.5019C61.4138 90.6487 61.3544 90.6976 61.295 90.7466C61.077 90.8444 60.8789 90.8444 60.6808 90.5509C60.6412 90.5019 60.6214 90.453 60.5818 90.4041C60.3836 90.2084 60.2053 90.2573 60.1063 90.6976C60.0072 91.1869 59.8686 91.5783 59.6705 91.8229C59.611 91.9208 59.5318 92.0186 59.5318 92.1654C59.5318 92.3122 59.6308 92.3611 59.6903 92.41C59.7893 92.459 59.9082 92.4589 60.0072 92.5079C60.1063 92.5568 60.2053 92.7036 60.245 92.9482L60.2648 92.8993C60.1657 92.9971 60.0667 93.095 59.9676 93.2418C59.9082 93.3396 59.8289 93.3396 59.7695 93.2907C59.611 93.1439 59.4525 92.9482 59.2544 92.9482C59.1157 92.9482 58.9771 92.9482 58.8186 92.8993C58.7393 92.8993 58.6799 92.8014 58.6601 92.7036C58.6601 92.6547 58.6799 92.5079 58.6997 92.459C58.8186 92.2632 58.9176 92.0186 58.9573 91.6761C58.9771 91.5783 58.9771 91.5294 58.9969 91.4315C59.0563 91.2358 59.0563 91.089 58.9771 90.9912C58.9573 90.9423 58.9176 90.9423 58.878 90.9423C58.6007 91.1869 58.3431 91.3337 58.046 91.2847C57.8677 91.2358 57.6894 91.2847 57.5111 91.3337C57.3328 91.3826 57.1545 91.4315 56.996 91.6272C56.8573 91.8229 56.7186 91.7251 56.5998 91.5783C56.5601 91.5294 56.5403 91.4804 56.5007 91.4804C56.3224 91.3337 56.2035 91.089 56.1045 90.6487C56.045 90.4041 55.946 90.3552 55.8271 90.3062C55.7479 90.3062 55.6686 90.3062 55.629 90.453C55.6092 90.5998 55.6686 90.7466 55.7479 90.8444C55.8271 90.9423 55.8469 91.138 55.7875 91.2358C55.6092 91.5294 55.4507 91.8718 55.2922 92.2143C55.1139 92.6057 54.8564 92.5079 54.6979 92.2143C54.4998 91.8229 54.3017 91.4315 54.2224 90.7955C54.4205 90.7955 54.6385 90.7955 54.8366 90.7955C54.9158 90.7955 54.9554 90.6487 54.9554 90.5509C54.9554 90.5019 54.9158 90.4041 54.8762 90.4041C54.8168 90.3552 54.7375 90.3552 54.6781 90.3552C54.4998 90.3062 54.3413 90.5019 54.2621 90.8933C53.9451 90.8933 53.6281 90.9423 53.2913 90.8933C53.0734 90.8933 52.8555 90.8444 52.6574 90.7955C52.4989 90.7466 52.4989 90.6976 52.4394 90.1105C52.4394 90.0616 52.3998 89.9638 52.38 89.9148C52.2215 89.6702 51.9046 89.7681 51.7857 90.0616C51.7659 90.1105 51.7263 90.1595 51.7064 90.2573C51.6074 90.6976 51.4489 90.7955 51.2508 90.8444C51.1121 90.8933 50.9734 90.8933 50.8348 90.9423C50.7951 90.9423 50.7555 91.0401 50.7555 91.089C50.7555 91.2358 50.7951 91.3337 50.8744 91.3826C51.0527 91.4804 51.231 91.3826 51.3697 91.7251C51.3895 91.774 51.4093 91.9208 51.3895 91.9697C51.3895 92.0186 51.33 92.1654 51.3102 92.1654C51.0725 92.0186 50.8348 91.9208 50.597 91.9208C50.3593 91.9208 50.3593 91.8718 50.2602 91.2358C50.2602 91.1869 50.2206 91.089 50.2008 91.089C49.7055 90.9912 49.2103 90.9912 48.715 90.8933C48.6357 90.8933 48.5763 90.7466 48.5565 90.6487C48.5169 90.453 48.6555 90.1105 48.7348 90.1105C48.7744 90.1105 48.814 90.1105 48.8338 90.1105C48.8933 90.1595 48.9725 90.2573 49.032 90.2573C49.0914 90.3062 49.1706 90.3062 49.2499 90.2573C49.3687 90.2573 49.4282 90.0127 49.4876 89.7681C49.5272 89.5234 49.5074 89.2788 49.4282 89.0831C49.4084 89.0342 49.3687 88.9363 49.3489 88.9363C49.2499 88.8874 49.131 88.8874 49.032 88.8874C48.7348 88.7896 48.4773 89.0342 48.2593 89.5724C48.1999 89.7191 48.1207 89.6702 48.0612 89.5724C47.982 89.3767 47.9027 89.2299 47.8235 89.0342C47.7641 88.9363 47.7244 88.7896 47.665 88.6917C47.5461 88.496 47.3876 88.5449 47.2886 88.8385C47.2292 89.0342 47.1697 89.2788 47.1103 89.4745C47.1103 89.4745 47.0509 89.4745 47.0509 89.4256C46.9914 88.9363 46.9716 88.3981 47.0311 87.86C47.0707 87.4686 46.9914 87.2729 46.8131 87.2729C46.7339 87.2729 46.6745 87.2729 46.5952 87.3218C46.4763 87.3707 46.3971 87.5175 46.3575 87.811C46.3179 88.0557 46.3179 88.3003 46.2782 88.5449C46.2584 88.6917 46.199 88.8874 46.1594 88.9853C45.9613 89.3277 45.7433 89.6702 45.5452 90.0127C45.3669 90.3552 45.149 90.4041 44.9311 90.3552C44.7924 90.3062 44.6537 90.1595 44.5151 90.1105C44.416 90.0616 44.3169 90.2084 44.1981 90.1105C43.9207 89.8659 43.6434 89.9148 43.3858 90.3062C43.3264 90.4041 43.2472 90.5019 43.2472 90.6487C43.267 90.7955 43.3462 90.8444 43.4255 90.8444C43.5245 90.8444 43.6434 90.8933 43.7424 90.8933C43.7622 90.8933 43.8019 90.9912 43.8217 91.0401C43.8415 91.138 43.8019 91.2847 43.7028 91.2847C43.4453 91.2847 43.2075 91.2847 42.95 91.2847C42.8509 91.2847 42.7717 91.0401 42.8311 90.7466C42.8906 90.3552 42.8509 90.0616 42.7123 89.8659C42.6528 89.7681 42.5736 89.6702 42.5934 89.4745C42.5934 89.3277 42.6726 89.2299 42.7519 89.2299C43.0292 89.181 43.3264 89.181 43.6038 89.181C43.6632 89.181 43.7424 89.132 43.8019 89.0831C43.8811 89.0342 43.9207 88.8874 43.9009 88.6917C43.9009 88.5938 43.8613 88.496 43.8415 88.496C43.7028 88.5449 43.5641 88.496 43.4255 88.3492C43.3264 88.2514 43.2273 88.2514 43.1085 88.3003C43.0094 88.3981 42.9104 88.496 42.8113 88.5938C42.7519 88.6428 42.6528 88.6917 42.6132 88.6428C42.2764 88.3003 41.9198 88.2514 41.5632 88.2514C41.3453 88.2514 41.1274 88.3003 40.9293 88.3492C40.8698 88.3492 40.7906 88.496 40.751 88.5938C40.6321 88.8385 40.5727 89.132 40.4934 89.4256C40.3944 89.817 40.1566 89.9148 40.018 89.6702C39.8991 89.4745 39.8 89.2299 39.6812 89.0342C39.5821 88.8874 39.4831 88.8385 39.384 88.9363C39.1859 89.181 38.9878 89.2788 38.7699 89.2788C38.4925 89.2299 38.1954 89.2299 37.918 89.2788C37.4623 89.3277 36.9869 89.3277 36.5312 89.2788C36.2737 89.2299 36.036 89.2788 35.7982 89.5724C35.7388 89.6213 35.6595 89.5724 35.6001 89.5234C35.5011 89.4256 35.3822 89.4256 35.2831 89.5234C35.1841 89.5724 35.085 89.6213 34.9662 89.5724C34.8275 89.4745 34.6888 89.4745 34.5501 89.6213C34.4115 89.7681 34.2728 89.817 34.1341 89.8659L34.1539 89.9148C34.0945 89.5234 33.9558 89.4256 33.7973 89.4745C33.7181 89.4745 33.6586 89.5234 33.5794 89.5724C33.203 90.0127 32.8068 89.8659 32.4304 89.817C32.3709 89.817 32.2917 89.7191 32.2322 89.6702C32.0539 89.4745 31.8955 89.5234 31.7172 89.7191C31.5587 89.9148 31.3606 89.8659 31.2021 89.9638C31.0832 90.0127 31.004 90.1595 30.9445 90.3552C30.786 91.0401 30.5483 90.9912 30.2908 90.8933C30.2512 90.8933 30.2313 90.8444 30.1917 90.7955C30.1323 90.7466 30.053 90.6487 29.9936 90.5509C29.8549 90.4041 29.7163 90.4041 29.5776 90.4041C29.4389 90.453 29.3002 90.5019 29.1615 90.6487C29.0625 90.7466 28.9634 90.7466 28.8446 90.6487C28.6068 90.4041 28.3493 90.4041 28.1116 90.6487C27.9531 90.8444 27.7748 90.8933 27.5965 90.8933C27.2993 90.8933 27.0418 91.089 26.8437 91.6761C26.804 91.8229 26.7248 91.9208 26.6654 91.9208C26.3088 91.9208 25.9522 91.9697 25.5956 91.8718C25.4965 91.8229 25.3975 91.6761 25.2984 91.6272C25.1993 91.5783 25.0805 91.6761 24.9814 91.6761C24.605 91.2847 24.2088 91.3826 23.8126 91.4315C23.7135 91.4315 23.5947 91.5294 23.4956 91.6272C23.3966 91.7251 23.2975 91.7251 23.1786 91.6272C23.0796 91.5294 22.9607 91.5294 22.8617 91.6272C22.723 91.774 22.5843 91.6761 22.4456 91.5783C22.2079 91.3826 21.9503 91.3826 21.7126 91.6272C21.4749 91.8718 21.2173 91.9697 20.9796 91.7251C20.7023 91.4804 20.4249 91.4315 20.1476 91.3826C19.791 91.3337 19.4344 91.3337 19.0778 91.3337C18.7806 91.3826 18.523 91.1869 18.2655 90.7955C18.1863 90.6976 18.1665 90.5509 18.2061 90.3552C18.2457 90.2084 18.3051 90.1105 18.3646 90.0616C18.424 90.0127 18.5032 90.0616 18.5627 90.1595C18.7013 90.3062 18.84 90.3552 18.9787 90.2084C19.157 90.0127 19.3155 90.0127 19.4938 90.2084C19.5532 90.2573 19.6325 90.3062 19.6919 90.3062C20.1277 90.3552 21.4947 90.3062 22.1485 90.1595C22.1683 90.1595 22.1881 90.0616 22.2277 90.0616C22.2079 90.0127 22.1881 89.9148 22.1485 89.8659C21.9702 89.7681 21.7919 89.7191 21.6334 89.4745C21.5541 89.3277 21.4353 89.2788 21.3362 89.2299C21.1975 89.132 21.0589 89.132 20.9202 89.0342C20.7221 88.8874 20.5042 88.7895 20.2862 88.7895C19.8306 88.7406 19.3551 88.6917 18.8995 88.6917C18.6419 88.6917 18.4042 88.5938 18.1665 88.3492C18.008 88.1535 17.8099 88.2024 17.6514 88.1535C17.6117 88.1535 17.5721 88.0557 17.5721 88.0067C17.5523 87.86 17.6117 87.7621 17.691 87.7132C17.7504 87.6643 17.8297 87.6643 17.8891 87.5664C17.9683 87.4686 17.9882 87.3218 17.9882 87.175C17.9882 86.9793 17.9485 86.8325 17.8693 86.7836C17.691 86.6368 17.5127 86.6858 17.3344 86.6368C17.275 86.6368 17.1957 86.539 17.1363 86.4411C17.0768 86.3433 17.0174 86.1965 17.057 86.0008C17.0769 85.8051 17.1561 85.7073 17.2353 85.7562C17.374 85.854 17.5127 86.0008 17.6514 86.0497C17.8693 86.0987 18.0872 86.0987 18.2853 86.0987C18.3448 86.0987 18.424 86.0497 18.4834 86.0008C18.523 86.0008 18.5627 85.903 18.5627 85.854C18.5627 85.7562 18.5429 85.6583 18.5032 85.6094C18.2457 85.2669 17.9882 84.9734 17.691 84.9734C17.4136 84.9734 17.1363 84.8755 16.8589 84.6309C16.6212 84.4352 16.3637 84.4352 16.1259 84.3373C16.0863 84.3373 16.0467 84.2395 16.0467 84.1906C16.0269 83.9949 16.0665 83.8481 16.1259 83.7502C16.1854 83.6524 16.2448 83.5545 16.3042 83.5056C16.4825 83.4078 16.6608 83.3588 16.8391 83.5545C17.1165 83.7992 17.3938 83.8481 17.6712 83.8481C18.3448 83.8481 19.0183 83.897 19.7117 83.8481C20.207 83.8481 20.7023 83.8481 21.2173 83.7992C21.2966 83.7992 21.356 83.6524 21.3164 83.5545C21.2966 83.5056 21.257 83.4078 21.2372 83.4078C21.0589 83.3588 20.8806 83.3588 20.7023 83.3588C20.5636 83.3588 20.4249 83.3099 20.2862 83.1631C20.1277 82.9674 19.9494 82.9185 19.7711 82.9185C19.3749 82.8696 18.9787 82.8696 18.6023 82.8207C18.4636 82.8207 18.3051 82.7717 18.1863 82.625C17.9485 82.3314 17.7108 82.2336 17.4533 82.2825C17.1957 82.3314 16.958 82.2825 16.7203 81.9889C16.6608 81.8911 16.5816 81.8911 16.5221 81.8422C16.3835 81.7932 16.2448 81.7932 16.0863 81.7932C15.8684 81.7932 15.6703 81.6954 15.4523 81.4997C15.3533 81.4018 15.2542 81.3529 15.1354 81.3529C14.9175 81.304 14.6995 81.255 14.5014 81.255C14.3231 81.255 14.1448 81.1572 13.9863 81.0104C13.8477 80.8636 13.709 80.8636 13.5703 80.8636C13.075 80.8147 12.5798 80.7169 12.0845 80.6679C11.8666 80.6679 11.6685 80.4722 11.4703 80.2276C11.4109 80.1298 11.3515 80.0319 11.3515 79.8851C11.3515 79.8362 11.4109 79.7873 11.4307 79.7384C11.609 79.6894 11.7873 79.6405 11.9656 79.6405C12.4015 79.6894 12.8175 79.7384 13.2533 79.6894C13.4316 79.6894 13.6099 79.7384 13.7882 79.7384C13.9665 79.7384 14.1448 79.8362 14.3033 79.983C14.4024 80.0808 14.5014 80.1298 14.6203 80.1298C14.8778 80.1787 15.1156 80.1787 15.3731 80.1787C15.5118 80.1787 15.591 80.0808 15.7099 79.6405C15.7693 79.4448 15.8288 79.2002 15.9476 79.1023C15.9674 79.2491 16.0071 79.3959 16.0665 79.4937C16.0863 79.5427 16.1259 79.5427 16.1457 79.5427C16.1655 79.5427 16.2052 79.4937 16.225 79.4448C16.2448 79.347 16.2052 79.2491 16.1259 79.2002C16.0665 79.2002 16.0071 79.1513 15.9278 79.1513C15.908 78.9556 15.908 78.8088 15.8882 78.6131C15.8684 78.4174 15.8288 78.2706 15.7495 78.2217C15.4722 77.9771 15.1948 78.026 14.9373 77.5856C14.759 77.4878 14.5807 77.5856 14.4222 77.7324C14.3231 77.8303 14.2241 77.7324 14.1448 77.4389C14.0854 77.2432 14.1052 77.0964 14.1646 76.9985C14.2241 76.9007 14.3033 76.8518 14.3627 76.8518C14.858 76.8518 15.3533 76.8518 15.8486 76.8518C15.9476 76.8518 15.9872 76.705 15.9674 76.6071C15.9476 76.5582 15.908 76.5093 15.8684 76.5093C15.7297 76.4604 15.591 76.4604 15.4325 76.4604C15.1156 76.4114 14.7986 76.4114 14.4816 76.3136C14.3429 76.2647 14.2043 76.1179 14.1052 75.8243C14.0854 75.7754 14.0656 75.6776 14.0458 75.5797C14.0458 75.5308 14.0656 75.4329 14.0854 75.3351C14.1646 75.0415 14.3033 74.8458 14.442 74.7969C14.7986 74.748 15.1552 74.6991 15.5118 74.748C15.908 74.748 16.3042 74.748 16.6806 74.6991C16.7797 74.6991 16.8193 74.5523 16.7995 74.4544C16.7797 74.4055 16.7401 74.3077 16.7203 74.3077C16.5816 74.2587 16.4429 74.2098 16.3042 74.1609C16.0071 73.7695 15.6901 73.7205 15.3731 73.6716C15.2741 73.6716 15.1552 73.6716 15.0561 73.5738C14.6203 73.1334 14.1448 73.2313 13.6892 73.0845C13.6099 73.0845 13.5505 73.0356 13.4911 72.9377C13.4316 72.8888 13.3722 72.791 13.3128 72.6442C13.2533 72.4974 13.2335 72.3506 13.2731 72.2039C13.293 72.1549 13.3326 72.0571 13.3524 72.0571C13.4514 72.0082 13.5703 72.0082 13.6694 72.0082C13.7486 72.0082 13.808 71.9592 13.8675 71.8125C13.9071 71.7146 13.808 71.2743 13.7288 71.1764C13.6694 71.1275 13.5901 71.0297 13.5307 70.9807C13.4316 70.9318 13.3128 70.9318 13.2137 70.8829C13.1345 70.8829 13.0552 70.785 13.0552 70.6382C13.0354 70.4915 13.0949 70.2958 13.1543 70.1979C13.2137 70.1001 13.2731 70.0022 13.3326 69.9533C13.4316 69.9044 13.5505 69.9044 13.6496 69.8554C13.7882 69.8554 13.9269 69.7087 14.0458 69.464C14.125 69.3173 14.2043 69.1216 14.3033 69.0237C14.3627 68.9259 14.442 68.8769 14.5014 68.8769C14.759 68.828 14.9967 68.828 15.2542 68.828C15.3929 68.828 15.5316 68.7302 15.6703 68.5345C15.7297 68.4366 15.7891 68.2898 15.7891 68.1431C15.8089 67.9963 15.7495 67.8984 15.6703 67.8495C15.591 67.8006 15.5316 67.8006 15.4523 67.8006C15.3533 67.7517 15.2344 67.7517 15.1354 67.7027C14.9373 67.6049 14.7193 67.4092 14.5212 67.3113C14.3429 67.2135 14.1646 67.2135 13.9863 67.1156C13.9071 67.0667 13.8675 66.9199 13.8873 66.7242C13.9071 66.5285 13.8873 66.3817 13.808 66.2839C13.6694 66.186 13.5307 66.0882 13.392 65.9903C13.2533 65.8436 13.1147 65.7946 12.976 65.7457C12.7184 65.6968 12.4807 65.6479 12.2232 65.5989C12.0251 65.55 11.9458 65.4522 11.9854 65.3543C12.0251 65.2075 12.0845 65.1586 12.1637 65.1097C12.3618 65.0118 12.3618 65.0118 12.3618 64.6694C12.3618 64.278 12.4015 64.1312 12.5005 64.1312C12.9364 64.1312 13.3524 64.0823 13.7882 64.0823C14.2439 64.0823 14.7193 64.0823 15.175 64.0333C15.2741 64.0333 15.3731 63.9355 15.4722 63.7398C15.5316 63.593 15.5712 63.4462 15.5514 63.2994C15.5514 63.2505 15.5118 63.1527 15.4722 63.1527C15.3731 63.0548 15.2542 63.0548 15.175 62.908C14.9571 62.6145 14.6995 62.5166 14.4618 62.4188C14.4222 62.4188 14.4024 62.3699 14.3627 62.3209C14.3231 62.2231 14.3627 62.0763 14.4618 62.0763C14.9175 62.0274 15.3929 61.9785 15.8486 61.8806C15.9476 61.8806 15.9872 61.7828 15.9476 61.636C15.9278 61.5871 15.908 61.4892 15.8882 61.4403C15.6901 61.1957 15.492 61 15.2741 61C14.8382 60.951 14.4222 60.9021 13.9863 60.8532C13.8873 60.8532 13.7684 60.8532 13.6694 60.7553C13.4316 60.5107 13.1939 60.4129 12.9364 60.4129C12.7581 60.4129 12.5798 60.2661 12.4213 60.0704C12.1835 59.8258 11.926 59.8747 11.6883 59.7768C11.609 59.7279 11.5496 59.679 11.5496 59.5322C11.5496 59.4833 11.5892 59.3854 11.609 59.3365C11.8269 59.0429 12.0449 58.7983 12.3222 58.7983C12.9958 58.7983 13.6694 58.7494 14.3429 58.7005C14.442 58.7005 14.5807 58.7494 14.6599 58.5537C14.7392 58.358 14.6797 58.0644 14.6797 57.8198C14.6797 57.3306 14.6797 57.2816 14.5609 57.2327C14.4618 57.1838 14.3429 57.1838 14.2439 57.1838C14.1646 57.1838 14.1052 57.1349 14.026 57.1349C13.9665 57.0859 13.8873 57.0859 13.8279 56.9881C13.6099 56.5967 13.3524 56.6456 13.1147 56.5967C13.0156 56.5478 12.976 56.4499 13.0156 56.2542C13.0552 55.8139 12.8967 55.716 12.7977 55.4714C12.7184 55.2757 12.7184 54.9332 12.8175 54.7864C12.8571 54.7375 12.8769 54.6886 12.9165 54.6397C13.0948 54.5907 13.2731 54.5418 13.4514 54.4929C13.6694 54.444 13.7684 54.1504 13.7486 53.6122C13.7288 53.3187 13.6496 53.1719 13.5505 53.2208C13.4911 53.2698 13.4118 53.3187 13.3524 53.3676C13.1939 53.4655 13.075 53.3187 12.9562 53.0741C12.8967 52.9762 12.8571 52.8294 12.8175 52.6827C12.7581 52.5848 12.6788 52.5359 12.6194 52.5848C12.3618 52.8784 12.0845 52.9762 11.7873 52.9273C11.51 52.8784 11.2128 52.9273 10.9355 52.8784C10.8364 52.8784 10.7175 52.8294 10.6185 52.7316C10.5194 52.6337 10.4204 52.6337 10.3015 52.6827C10.2024 52.7316 10.1034 52.7805 9.98452 52.8294C9.90528 52.8784 9.84585 52.7805 9.78642 52.6337C9.70717 52.438 9.72698 52.1934 9.74679 51.8999C9.78641 51.5574 9.76661 51.4106 9.66755 51.2638C9.50906 51.0681 9.35058 50.8235 9.17228 50.8235C8.8553 50.7746 8.53832 50.7256 8.22134 50.7256C7.9638 50.7256 7.72606 50.6767 7.48833 50.4321C7.31003 50.2853 7.13175 50.2853 6.95345 50.2853C5.9629 50.2364 4.95253 50.1875 3.96198 50.0896C3.86293 50.0896 3.82331 49.9428 3.80349 49.5514C3.80349 49.3557 3.78369 49.209 3.68464 49.16C3.32804 49.0133 2.97144 49.16 2.61484 49.0133C2.51578 48.9643 2.41672 48.8176 2.33748 48.6219C2.31767 48.5729 2.27805 48.4751 2.27805 48.4261C2.29786 48.2304 2.3771 48.1326 2.43654 48.1815C2.63465 48.3772 2.77333 48.2794 2.87238 47.839C2.912 47.6923 2.99125 47.6433 3.07049 47.6433C3.11011 47.6433 3.14973 47.6433 3.16955 47.6923C3.38746 48.0347 3.64502 48.0837 3.88275 47.9858C3.88275 48.0837 3.90255 48.1326 3.92236 48.2305C3.94217 48.2794 3.96199 48.2794 4.00161 48.2794C4.00161 48.1326 3.96199 48.0837 3.88275 48.0348C3.9818 47.5455 4.12047 47.1541 4.3384 46.9584C4.59594 46.6648 4.85347 46.3713 5.15064 46.3713C5.32894 46.3713 5.50725 46.2245 5.66574 46.0777C5.86384 45.882 6.08175 45.9799 6.29968 45.8331C6.35911 45.7842 6.41855 45.6863 6.47798 45.5885C6.53741 45.4906 6.55723 45.2949 6.53741 45.1482C6.53741 45.0992 6.47798 45.0503 6.43836 45.0503C5.8044 44.9525 5.15064 44.9525 4.51669 44.9035C3.92236 44.8546 3.30822 44.9525 2.69409 44.9525C2.33749 44.9525 1.98089 44.9525 1.62429 44.8057C1.58467 44.8057 1.54505 44.7568 1.52524 44.7568C1.44599 44.6589 1.40638 44.5611 1.40638 44.3654C1.40638 44.1696 1.42618 44.0229 1.52524 43.9739C1.62429 43.925 1.72334 43.8761 1.84221 43.8761C2.51578 43.8272 3.18936 43.7782 3.86293 43.6804C3.90255 43.6804 3.96198 43.5825 3.96198 43.5825C3.96198 43.4847 3.90255 43.3868 3.8233 43.3868C3.78368 43.3868 3.74406 43.3868 3.72425 43.3868C3.36765 43.3868 3.01106 43.3379 2.65446 43.3868C2.15919 43.4358 1.66391 43.3868 1.16864 43.3379C1.0894 43.3379 1.02996 43.1422 1.04976 43.0444C1.04976 42.9954 1.08939 42.8976 1.12902 42.8976C1.30732 42.8487 1.48562 42.7997 1.66391 42.7508C1.98089 42.7019 2.27805 42.3105 2.61484 42.3594C2.89219 42.4083 3.18936 42.3105 3.46671 42.2126C3.52614 42.2126 3.60539 42.1148 3.66482 42.0659C3.70444 42.0169 3.72426 41.968 3.74407 41.9191C3.8035 41.7723 3.82332 41.6255 3.78369 41.4788C3.76388 41.4298 3.72426 41.3809 3.68464 41.332C3.28842 41.2831 2.91201 41.2341 2.51578 41.2341C2.15918 41.2341 1.80259 41.1852 1.44599 41.1852C1.22806 41.1852 1.01015 41.1363 0.812047 41.1363C0.633748 41.1363 0.475248 40.8917 0.296957 40.9406C0.138463 40.9895 0.0790381 40.7938 0.118658 40.5002C0.178091 40.1578 0.21771 39.8642 0.178091 39.4728C0.178091 39.4239 0.197904 39.2771 0.217718 39.2771C0.435636 38.9346 0.653555 38.69 0.9111 38.6411C1.04978 38.6411 1.18845 38.5922 1.32712 38.4943C1.42618 38.4454 1.52523 38.2986 1.54504 38.0051C1.58466 37.5647 1.6441 37.1733 1.8224 36.9287C1.90165 36.8308 1.92146 36.6351 1.86203 36.4884C1.70354 35.9991 1.56486 35.5099 1.52524 34.8738C1.50542 34.5803 1.42618 34.4335 1.30732 34.3846C1.12902 34.3357 0.95072 34.2867 0.772421 34.2378C0.693174 34.2378 0.633741 34.14 0.633741 34.0421C0.633741 33.9932 0.673361 33.8953 0.693174 33.8464C0.792227 33.7485 0.891279 33.6018 0.950712 33.4061C1.04976 33.1125 1.06959 32.819 0.911101 32.5254C0.831854 32.3786 0.732794 32.2319 0.653548 32.0851C0.633734 32.0362 0.633734 31.9383 0.653548 31.8894C0.812033 31.6937 1.01015 31.7426 1.16864 31.5958C1.30732 31.498 1.42618 31.3023 1.56486 31.2534C1.8026 31.1555 2.06013 31.1555 2.31768 31.1555C2.39692 31.1555 2.45635 31.0577 2.47616 30.9598C2.47616 30.9109 2.43654 30.813 2.41673 30.7641C2.02051 30.2259 2.02051 30.2259 1.62429 30.1281C1.48562 30.0792 1.34695 30.0792 1.20827 30.0302C1.06959 29.9813 0.970534 29.6878 0.970534 29.2964C0.970534 29.1007 1.06958 28.7092 1.14883 28.6603C1.22806 28.6114 1.2875 28.5625 1.34693 28.5625C1.70353 28.5625 2.04032 28.22 2.3771 27.9754C2.45635 27.9264 2.51579 27.8286 2.49598 27.6818C2.49598 27.6329 2.43655 27.535 2.41673 27.535C2.27805 27.4372 2.13938 27.3883 2.00071 27.3393C1.98089 27.3393 1.96107 27.2415 1.94126 27.1926C2.13937 26.9479 2.3573 27.0458 2.57522 26.9969C2.67427 26.9479 2.79314 26.899 2.8922 26.8501C2.97144 26.8012 3.01105 26.6544 3.03087 26.5076C3.05068 26.3119 3.01105 26.1651 2.93181 26.1162C2.87238 26.0673 2.79314 25.9694 2.7337 25.9205C2.43654 25.627 2.11957 25.4802 1.8026 25.4802C1.446 25.4802 1.08939 25.5291 0.732795 25.3334C0.693175 25.3334 0.673362 25.2355 0.653548 25.1866C0.673362 25.1377 0.693183 25.0888 0.712989 25.0398C0.732802 24.9909 0.772422 24.942 0.812049 24.942C1.24789 24.942 1.6441 24.5995 2.04032 24.2081C2.06013 24.1592 2.09976 24.1103 2.09976 24.0613C2.09976 23.8656 2.06014 23.7189 2.00071 23.621C1.86203 23.4253 1.72334 23.4253 1.58467 23.5232C1.50542 23.5721 1.446 23.5232 1.40638 23.3764C1.34695 23.1318 1.34695 22.7893 1.40638 22.6425C1.46581 22.5447 1.50543 22.3979 1.56486 22.349C1.70354 22.2511 1.84221 22.2022 1.98089 22.2022C2.33749 22.2022 2.67428 21.8597 3.01106 21.664C3.09031 21.6151 3.12993 21.4683 3.11011 21.3704C3.09031 21.3215 3.05068 21.2726 3.01106 21.2237C2.79314 21.1747 2.57522 21.1258 2.37711 21.1258C2.23843 21.1258 2.09976 21.028 1.96108 20.8812C1.8224 20.7344 1.68372 20.6855 1.54504 20.6855C1.32712 20.6366 1.12902 20.6366 0.911102 20.5387C0.812049 20.4898 0.792236 20.3919 0.812049 20.1962C0.831855 20.0984 0.831855 20.0005 0.871475 20.0005C0.930908 19.9027 0.990333 19.8048 1.04977 19.7559C1.1092 19.707 1.18845 19.6581 1.2677 19.6581C1.58467 19.6091 1.90165 19.5602 2.21862 19.5113C2.43655 19.4624 2.65446 19.5113 2.85258 19.4134C3.09031 19.2667 3.32803 19.071 3.56576 18.8753C3.64501 18.8263 3.70444 18.7285 3.74407 18.5817C3.88274 18.0435 4.16009 17.9457 4.35821 17.5543C4.41764 17.4564 4.45727 17.3096 4.43745 17.1139C4.43745 17.065 4.39783 17.0161 4.35821 16.9672C4.29877 16.9182 4.21953 16.8693 4.16009 16.8693C4.02142 16.8204 3.88274 16.8204 3.74407 16.8204C3.70444 16.8204 3.66482 16.7715 3.66482 16.6736C3.64501 16.5758 3.68464 16.429 3.78369 16.429C4.04124 16.3801 4.27897 16.3801 4.53651 16.3311C4.75443 16.2822 4.95254 16.1844 5.15064 15.9397C5.21008 15.8419 5.28932 15.793 5.34875 15.6951C5.64592 15.3037 5.9629 15.2059 6.27988 15.4994C6.35912 15.5483 6.41855 15.5973 6.47798 15.4994C6.63647 15.3526 6.81477 15.2548 6.99306 15.2059C7.19117 15.1569 7.27042 15.0591 7.21099 14.9123C7.15156 14.8145 7.09212 14.7166 7.01288 14.7166C6.93364 14.7166 6.8742 14.6188 6.83458 14.472C6.83458 14.423 6.8742 14.3252 6.89401 14.3252C7.21098 14.1784 7.48833 13.7381 7.7855 13.5424C7.80531 13.5424 7.82513 13.4445 7.84495 13.3956C7.80532 13.3467 7.78551 13.2978 7.74589 13.2488C7.52797 13.151 7.31004 13.151 7.11194 13.2978C6.45818 13.6892 6.45818 13.7381 6.08176 13.7381C5.90347 13.7381 5.72517 13.8359 5.56668 14.0316C5.46763 14.1295 5.36857 14.1784 5.2497 14.1784C5.21008 14.1784 5.17046 14.1784 5.15064 14.1295C5.09121 14.0317 5.11102 13.9338 5.19027 13.787C5.32895 13.4935 5.32894 13.4445 5.21008 13.2488C5.15064 13.151 5.07141 13.0531 5.07141 12.9064C5.07141 12.7596 5.13084 12.6128 5.19027 12.515C5.2497 12.4171 5.30914 12.3193 5.36858 12.2703C5.50725 12.2214 5.64592 12.1725 5.7846 12.1236C5.9629 12.0746 6.14119 12.0257 6.29968 11.83C6.35912 11.7811 6.43835 11.6832 6.49779 11.6832C6.79495 11.6343 7.05251 11.4386 7.31004 11.1451C7.4091 11.0472 7.52796 11.0472 7.62701 11.0472C7.70626 11.0472 7.76569 10.9983 7.82513 10.8515C7.90437 10.6558 7.96381 10.4112 8.04305 10.3133C8.1223 10.2155 8.26097 10.3623 8.36002 10.2155C8.57795 9.97085 8.81567 9.67729 9.0336 9.43267C9.05341 9.38374 9.09303 9.2859 9.09303 9.23697C9.09303 9.09019 9.0336 8.99234 8.95435 8.99234C8.81568 8.99234 8.6572 8.99234 8.53833 9.09019C8.26098 9.33481 7.98362 9.48159 7.70627 9.43267C7.34967 9.33481 6.99307 9.62836 6.65629 9.38374C6.63647 9.38374 6.61665 9.28589 6.59685 9.23697C6.61665 9.18804 6.63647 9.09019 6.67609 9.04127C6.77515 8.99234 6.89401 8.94341 6.99307 8.89448C7.13174 8.84556 7.27042 8.74772 7.38928 8.50309C7.44872 8.40524 7.48835 8.25846 7.54778 8.16061C7.64684 8.01383 7.72608 7.91598 7.84495 7.91598C8.02325 7.86706 8.20153 7.86706 8.37983 7.81813C8.4987 7.7692 8.55814 7.62243 8.59776 7.32888C8.677 7.32888 8.73644 7.32888 8.81567 7.32888C8.8553 7.32888 8.87511 7.27995 8.91473 7.23102C8.93454 7.1821 8.93454 7.08425 8.93454 7.08425C8.89492 6.93748 8.81568 6.93748 8.75625 6.9864C8.69682 7.08425 8.65719 7.1821 8.63738 7.37781C8.53832 7.32888 8.41946 7.32887 8.34022 7.1821C8.32041 7.13318 8.28078 7.03532 8.28078 6.9864C8.26096 6.7907 8.30059 6.64393 8.36002 6.54607C8.39965 6.49715 8.41946 6.44823 8.45908 6.3993C8.65719 6.25252 8.87512 6.30145 9.07322 6.05682C9.27133 5.86112 9.46944 5.71435 9.68736 5.56757C9.76661 5.51865 9.82604 5.46972 9.88548 5.51864C10.1232 5.66542 10.3015 5.37186 10.4798 5.12723C10.5987 4.98046 10.6977 4.63798 10.7968 4.44228C10.876 4.29551 10.9949 4.19765 11.0741 4.05088C11.1138 3.95303 11.0741 3.75733 11.0939 3.56163C11.1336 3.17023 11.2921 3.17023 11.4109 3.02344C11.4704 2.9256 11.5496 2.9256 11.609 3.12131C11.6883 3.31701 11.7279 3.56163 11.8666 3.41485C11.9656 3.317 12.0647 3.21915 12.1637 3.12131C12.3817 2.82775 12.6194 2.68098 12.8769 2.58312C13.0354 2.28957 13.2335 2.58312 13.392 2.43635C13.5505 2.24065 13.7288 2.24065 13.9071 2.24065C14.0854 2.24065 14.2637 2.24065 14.442 2.24065C14.6995 2.28957 14.9373 2.1428 15.175 1.89817C15.3533 1.70247 15.5118 1.70247 15.6901 1.89817C15.8486 2.09387 16.0467 2.09387 16.2052 2.24065C16.3637 2.38742 16.5221 2.63205 16.7004 2.7299C16.8589 2.82775 16.9382 3.07237 17.0174 3.41485C17.0769 3.65948 17.1363 3.85518 17.2353 4.00195C17.2552 4.05088 17.2948 4.09981 17.3344 4.09981C17.5523 4.05089 17.7306 3.80626 17.9485 3.80626C18.1467 3.75733 18.2457 3.46378 18.2853 2.97453C18.325 2.5342 18.3844 2.48527 18.4834 2.7299C18.5429 2.87668 18.5627 3.02345 18.6419 2.97453C18.6617 2.97453 18.6815 2.82774 18.7014 2.77882C18.741 2.48527 18.8202 2.28957 18.9391 2.28957C19.2164 2.24064 19.4938 2.14279 19.7711 1.84924C19.8108 1.80032 19.8504 1.80032 19.8702 1.84924C20.0089 1.94709 20.1277 2.19173 20.2862 2.1428C20.4249 2.09387 20.524 1.80032 20.6428 1.60461C20.7221 1.45784 20.8608 1.50677 20.94 1.70247C21.0589 1.99602 21.1975 2.28957 21.257 2.7299C21.257 2.77882 21.257 2.9256 21.2372 2.97453C21.2174 3.02345 21.1777 3.17023 21.1579 3.12131C20.9598 2.97453 20.7419 2.9256 20.524 2.9256C20.4051 2.9256 20.306 3.07237 20.2664 3.317C20.1872 3.7084 20.0881 4.05088 19.9494 4.39336C19.791 4.73583 19.6127 5.02939 19.3749 5.02939C19.157 5.02939 18.9391 5.07832 18.741 5.07832C18.5627 5.07832 18.3844 5.17617 18.2259 5.32294C18.0278 5.51865 17.8099 5.46972 17.5919 5.37186C17.4136 5.27402 17.2552 5.07832 17.0769 5.02939C16.9382 4.98046 16.7995 4.98047 16.6608 5.17616C16.4429 5.46972 16.1854 5.56757 15.9476 5.61649C15.908 5.61649 15.8684 5.61649 15.8486 5.61649C15.492 5.51864 15.1354 5.71434 14.8184 6.10574C14.7788 6.15467 14.759 6.15467 14.7194 6.15467C14.6203 6.2036 14.5807 6.35037 14.6599 6.49715C14.8382 6.7907 15.0165 6.9864 15.2542 6.74177C15.3731 6.595 15.5316 6.595 15.6703 6.49715C15.908 6.25252 16.1457 6.10574 16.4033 6.10574C17.8297 6.15467 19.2561 6.0079 20.6825 6.0079C20.7815 6.0079 20.9004 6.00789 20.9994 5.95897C21.1777 5.86111 21.3362 5.66541 21.5145 5.61649C21.6532 5.61649 21.7919 5.61649 21.9504 5.56757C22.0296 5.56757 22.089 5.42079 22.0692 5.27402C22.0494 5.07832 21.9702 5.02939 21.8909 5.07832C21.7919 5.07832 21.673 5.07832 21.574 5.02939C21.4353 4.98046 21.356 4.54014 21.4353 4.19766C21.4749 4.05088 21.4947 3.85518 21.5343 3.75732C21.6928 3.41485 21.6928 3.07237 21.6136 2.58312C21.5541 2.24065 21.673 1.89817 21.8315 1.84924C21.9702 1.80032 22.1088 1.80032 22.2673 1.80032C22.406 1.80032 22.5447 1.70246 22.6834 1.55569C22.8617 1.40891 23.04 1.35999 23.1984 1.55569C23.4164 1.80032 23.6145 1.70247 23.8126 1.50677C23.9116 1.40891 24.0305 1.50677 24.1098 1.65354C24.1692 1.7514 24.2286 1.84924 24.2682 1.99602C24.4069 2.28957 24.5654 2.43635 24.7437 2.1428C24.8626 1.9471 25.0013 1.94709 25.1399 2.09387C25.3975 2.43635 25.6946 2.43635 25.972 2.19172C26.0314 2.14279 26.1107 2.04495 26.1701 1.99602C26.4474 1.80032 26.7248 1.75139 27.0022 2.04495C27.2003 2.24064 27.3984 2.38742 27.6163 2.38742C27.8342 2.38742 28.0521 2.38742 28.2502 2.38742C28.3691 2.38742 28.4682 2.28957 28.5474 2.19172C28.6861 1.99602 28.805 1.94709 28.9436 2.09387C29.0427 2.19172 29.1417 2.19173 29.2606 2.1428C29.3399 2.09387 29.3993 2.1428 29.4587 2.24065C29.6172 2.43635 29.7955 2.48527 29.9738 2.28957C30.0729 2.19172 30.1719 2.09387 30.2908 2.19172C30.4096 2.24065 30.5087 2.14279 30.6078 2.04495C30.7068 1.94709 30.8059 1.9471 30.9247 1.99602C31.1228 2.1428 31.321 2.43635 31.5389 2.43635C31.7172 2.43635 31.8955 2.58312 32.054 2.7299C32.1134 2.77882 32.1926 2.68098 32.2521 2.58312C32.4106 2.24065 32.6087 1.99602 32.8068 1.80032C32.9058 1.70246 33.0049 1.65354 33.1039 1.80032C33.2426 1.94709 33.3813 1.9471 33.5002 1.7514C33.7973 1.26214 34.1143 1.31107 34.4313 1.60462C34.6492 1.80032 34.9067 1.94709 35.0454 2.58312C35.0652 2.63205 35.1049 2.7299 35.1247 2.7299C35.1643 2.7299 35.2039 2.7299 35.2237 2.68097C35.4218 2.28957 35.6001 1.84924 35.8775 1.94709C35.8577 2.09387 35.818 2.24065 35.7982 2.38742C35.7388 2.72991 35.7586 2.87668 35.8775 2.87668C35.9369 2.87668 36.0162 2.87667 36.0756 2.82775C36.1548 2.77883 36.1945 2.68097 36.2143 2.5342C36.2341 2.33849 36.1945 2.19172 36.135 2.09387C36.036 1.94709 35.9369 1.94709 35.8379 1.94709C35.8973 1.70247 35.9765 1.5557 36.0756 1.50677C36.2539 1.45784 36.4322 1.40891 36.6105 1.35999C36.7293 1.35999 36.8086 1.26214 36.9076 1.11537C37.2048 0.723962 37.5218 0.772889 37.8388 1.01752C37.9378 1.06644 38.0369 1.21322 38.1359 1.26214C38.2152 1.31107 38.2746 1.31107 38.3538 1.21321C38.552 1.01751 38.7699 1.26214 38.968 1.01752C39.1661 0.77289 39.384 0.870737 39.6019 0.870737C39.9585 0.919664 40.3151 0.723962 40.6717 0.870737C40.9887 0.968591 41.3057 0.870737 41.6425 0.870737C41.7415 0.870737 41.8604 0.82181 41.9595 0.723963C42.0981 0.577188 42.2368 0.626108 42.3755 0.723963C42.4349 0.772882 42.5142 0.772882 42.5736 0.723963C42.7123 0.577188 42.8509 0.577188 42.9896 0.626108C43.0491 0.675035 43.1283 0.577188 43.1877 0.528261C43.3264 0.381487 43.4651 0.430414 43.5839 0.675043C43.6434 0.77289 43.683 0.919664 43.7424 1.01752C43.8415 1.21322 43.9009 1.21322 44.0198 1.01752C44.1585 0.723963 44.2971 0.479334 44.4952 0.723963C44.5943 0.82181 44.7132 0.77289 44.8122 0.675043C44.8915 0.577189 44.9509 0.577189 45.0103 0.626108C45.1886 0.77289 45.3669 0.723963 45.5254 0.528261C45.5849 0.430414 45.6641 0.430407 45.7235 0.479334C45.7632 0.528261 45.8028 0.528261 45.8226 0.577181C46.1198 1.01751 46.4367 1.01751 46.7537 0.626108C46.8924 0.479334 47.0311 0.528261 47.1697 0.626108C47.3084 0.723963 47.4471 0.821818 47.5858 0.919665C47.665 0.968592 47.7046 1.11537 47.665 1.21321C47.6452 1.26214 47.6056 1.31106 47.566 1.31106C47.249 1.31106 46.932 1.36 46.5952 1.36C46.2981 1.36 46.0207 1.36 45.7632 1.7514C45.4462 1.89817 45.1292 2.04495 44.8122 1.7514C44.733 1.70247 44.6736 1.65354 44.6141 1.70247C44.5151 1.75139 44.3962 1.84925 44.2971 1.84925C43.9802 1.89817 43.6632 1.89817 43.3264 1.89817C43.0689 1.89817 42.8311 1.84924 42.5934 1.65354C42.4943 1.5557 42.3953 1.50677 42.2764 1.50677C42.0189 1.45784 41.7811 1.45784 41.5236 1.40892C41.2661 1.35999 41.0283 1.50676 40.8104 1.80032C40.7114 1.89816 40.6123 1.9471 40.4934 1.99602C39.9982 1.99602 39.5029 2.04495 39.0076 1.99602C38.2548 1.89817 37.5218 2.04495 36.769 1.99602C36.7095 1.99602 36.6303 2.09387 36.5709 2.19172C36.551 2.19172 36.5709 2.33849 36.5907 2.43635C36.6105 2.58312 36.6501 2.7299 36.6699 2.9256C36.7095 3.21915 36.8086 3.36593 36.9076 3.41485C37.0859 3.46378 37.2642 3.46378 37.4425 3.46378C37.502 3.46378 37.5812 3.41486 37.6406 3.36593C37.8982 2.97453 38.1557 2.87667 38.4529 2.9256C38.8491 2.97453 39.2453 2.97453 39.6218 3.02345C39.7208 3.02345 39.8397 3.02345 39.9387 3.12131C40.2755 3.51271 40.6519 3.36593 40.9689 3.75733C41.0283 3.80625 41.1076 3.80626 41.167 3.70841C41.2264 3.65949 41.3057 3.56163 41.3651 3.56163C41.8208 3.46378 42.2962 3.5127 42.7519 3.75733C42.8906 3.80625 43.0292 3.95304 43.1679 3.95304C43.6236 4.00196 44.099 4.00196 44.5547 4.05088C44.8122 4.05088 45.05 3.95304 45.2877 3.70841C45.4264 3.56163 45.565 3.65948 45.6839 3.90411C45.7433 4.00196 45.783 4.14873 45.8424 4.24658C45.9018 4.34443 45.9811 4.34444 46.0405 4.29551C46.1792 4.14874 46.2981 4.05088 46.4565 4.05088C46.5952 4.05088 46.7339 4.05088 46.8924 4.00196C47.0311 4.00196 47.1697 4.05088 47.3084 4.24658C47.4867 4.49121 47.6452 4.49121 47.8235 4.29551C47.8829 4.24658 47.9622 4.24659 48.0216 4.34444C48.1603 4.49121 48.299 4.49121 48.4376 4.29551C48.5763 4.14874 48.6952 4.14873 48.8537 4.24658C49.1112 4.49121 49.1112 4.44229 49.1706 3.80626C49.1905 3.65948 49.2301 3.51271 49.3093 3.51271C49.5867 3.51271 49.8838 3.51271 50.1612 3.75733C50.2602 3.85518 50.3791 3.90411 50.4782 3.80626C50.6763 3.61056 50.8942 3.56163 51.1121 3.56163C51.8253 3.51271 52.5385 3.46378 53.2517 3.56163C53.5291 3.61056 53.8262 3.61056 54.1036 3.36593C54.3809 3.12131 54.6583 3.07238 54.9356 3.07238C55.2526 3.02346 55.5696 3.07238 55.9064 3.02345C56.0451 3.02345 56.1837 2.97453 56.3224 2.82775C56.4809 2.63205 56.5799 2.77883 56.6988 3.07238C56.7186 3.1213 56.7582 3.21915 56.7781 3.26808C56.8969 3.51271 57.0356 3.56163 57.1743 3.51271C57.2139 3.51271 57.2535 3.51271 57.2733 3.46379C57.5705 3.1213 57.8875 3.07238 58.2243 3.07238C58.8384 3.02346 59.4327 3.02345 60.0469 3.02345C60.1261 3.02345 60.1855 2.97453 60.245 2.9256C60.2648 2.9256 60.2846 2.77883 60.2846 2.77883C60.1261 2.48527 59.5714 2.04495 59.3931 2.04495C59.2544 2.04495 59.1158 2.04495 58.9573 2.09388C58.7393 2.14279 58.5412 2.04495 58.3431 1.80032C58.0658 1.50676 57.7884 1.40892 57.5111 1.65354C57.412 1.7514 57.313 1.75139 57.2139 1.60462C57.1148 1.50677 56.996 1.50677 56.9167 1.65354C56.6988 1.99603 56.4611 2.04495 56.2035 2.04495C55.9856 1.99602 55.7677 1.99602 55.5696 1.80032C55.2526 1.45784 54.9555 1.50677 54.6385 1.84925C54.3809 2.14279 54.163 2.04495 53.9451 1.55569C53.9253 1.50676 53.8857 1.40892 53.8658 1.36C53.7866 1.21321 53.7074 1.06644 53.5885 1.21321C53.4102 1.50677 53.1725 1.45784 52.9744 1.65354C52.9347 1.70247 52.9149 1.70247 52.8753 1.70247C52.8357 1.70247 52.7961 1.70247 52.7762 1.65354C52.5187 1.45784 52.281 1.50677 52.0432 1.7514C51.9046 1.89817 51.7659 1.80033 51.6866 1.40892C51.6272 1.16429 51.5281 1.11537 51.4093 1.16429C51.33 1.21322 51.2706 1.11537 51.2112 1.01752C51.1914 0.968592 51.1517 0.870738 51.1517 0.82181C51.1121 0.577181 51.1517 0.479342 51.2508 0.430415C51.5281 0.381488 51.8253 0.234713 52.1027 0.283633C52.5583 0.33256 53.0338 0.185786 53.4894 0.381488C53.6281 0.430407 53.7668 0.38148 53.9055 0.33256C54.0838 0.283633 54.2621 0.33256 54.4206 0.479335C54.5196 0.577189 54.6187 0.577189 54.7375 0.479335C54.8762 0.33256 55.0149 0.283633 55.1536 0.283633C55.6885 0.234714 56.2234 0.283641 56.7582 0.430415C56.8573 0.479343 56.9762 0.528262 57.0752 0.626109C57.1545 0.675037 57.2139 0.626109 57.2733 0.577182C57.4714 0.38148 57.6894 0.381488 57.9073 0.381488C58.1846 0.381488 58.4818 0.381488 58.7592 0.430415C58.8978 0.430415 59.0365 0.479335 59.1752 0.626109C59.3337 0.772891 59.512 0.821811 59.6903 0.870738C59.829 0.919666 59.9874 0.919666 60.1063 0.723964C60.344 0.430408 60.5818 0.332561 60.8393 0.381488C61.0572 0.381488 61.2752 0.381488 61.4733 0.381488C61.6119 0.381488 61.7506 0.430408 61.8893 0.577182C62.028 0.723964 62.1666 0.821811 62.3053 0.821811C62.761 0.870739 63.2364 0.968586 63.6921 0.821811C63.9298 0.772884 64.1874 0.772892 64.4449 0.772892C64.6232 0.772892 64.8015 0.870739 64.9798 0.968586C65.1581 1.06644 65.277 1.45784 65.4156 1.70247C65.5147 1.84925 65.6336 1.84925 65.7128 1.70247C65.7326 1.65355 65.7722 1.60462 65.7921 1.50677C65.9109 0.968594 66.109 0.870739 66.3468 0.870739C66.5647 0.870739 66.7628 0.919666 66.9807 1.11537C67.1788 1.36 67.3967 1.40892 67.6147 1.31106C67.793 1.26214 67.9713 1.1643 68.1496 1.11537C68.2486 1.06644 68.3675 1.06644 68.4665 1.11537C68.9222 1.31107 69.3778 1.31107 69.8533 1.36C70.2099 1.36 70.5665 1.36 70.9231 1.36C71.2797 1.36 71.6363 1.35999 71.9731 1.70247C72.0721 1.80032 72.191 1.70247 72.2901 1.60462C72.4287 1.45784 72.5674 1.50677 72.7061 1.65355C72.8448 1.80033 72.9834 1.89817 73.1221 1.89817C73.657 1.89817 74.1919 2.04495 74.7268 1.89818C75.0438 1.80033 75.3608 1.89818 75.6777 1.99602C75.7372 1.99602 75.8164 2.09387 75.8758 2.19172C75.9749 2.3385 76.0541 2.5342 76.074 2.77883C76.1136 3.21915 76.1136 3.65948 76.1532 4.05089C76.173 4.19766 76.2324 4.34444 76.2919 4.44229C76.4305 4.58907 76.5692 4.58906 76.7079 4.63799C76.807 4.68692 76.906 4.78477 77.0051 4.93155C77.0843 5.07832 77.1834 5.27402 77.2626 5.37187C77.3617 5.51864 77.4805 5.51865 77.5598 5.32295C77.6786 5.12725 77.7777 4.88262 77.8767 4.63799C77.9362 4.49122 77.9164 4.29551 77.8767 4.19767C77.8569 4.14874 77.8173 4.05089 77.7777 4.05089C77.5994 4.05089 77.4211 4.05089 77.2428 4.00196C77.1041 4.00196 76.9654 3.80626 76.8664 3.56163C76.7871 3.36593 76.7079 3.17023 76.6485 2.97453C76.6287 2.9256 76.6287 2.82776 76.6287 2.7299C76.6287 2.68098 76.6683 2.58313 76.6881 2.58313C77.3617 2.3385 78.0749 2.33851 78.6098 2.48528C78.6692 2.48528 78.7484 2.58313 78.8079 2.63205C78.8475 2.68098 78.8673 2.68098 78.9069 2.7299C79.0456 2.9256 79.1843 2.87668 79.3031 2.68097C79.4616 2.43635 79.6399 2.43635 79.8182 2.48528C79.8578 2.48528 79.8975 2.5342 79.9173 2.5342C80.0956 2.58313 80.2541 2.87668 80.4324 2.87668C80.789 2.87668 81.1456 3.02346 81.5022 2.97453C82.3937 2.87668 83.2851 2.9256 84.1766 3.02345C84.454 3.02345 84.7512 3.12131 85.0087 3.36593C85.1474 3.51272 85.2861 3.51271 85.4247 3.51271C85.5436 3.51271 85.6427 3.61056 85.7219 3.75733C85.8606 3.95303 85.9794 4.00196 86.1379 4.00196C86.1776 4.00196 86.2172 4.00196 86.237 4.00196C86.6728 3.95303 87.0889 4.05089 87.5049 4.34444C87.7822 4.54014 88.0596 4.58907 88.3369 4.83369C88.4756 4.98047 88.6143 4.88261 88.753 4.73584C88.9313 4.54014 89.1096 4.54014 89.2681 4.73584C89.5454 5.07831 89.8228 5.12724 90.1001 4.88262C90.2388 4.78477 90.3775 4.78477 90.5162 4.93155C90.6548 5.07832 90.7935 5.12724 90.9322 5.12724C91.0312 5.12724 91.1501 5.07832 91.2492 5.07832C91.4275 5.07832 91.6058 5.2251 91.7444 5.46972C91.8039 5.56757 91.8633 5.66543 91.9227 5.76327C91.9822 5.86113 92.0614 5.91006 92.1208 5.8122C92.2595 5.66543 92.3784 5.51864 92.5369 5.51864C92.9331 5.51864 93.3293 5.51864 93.7057 5.51864C93.9236 5.51864 94.1218 5.66542 94.3199 5.86112C94.617 6.15468 94.934 6.2036 95.2708 6.0079C95.3698 5.95898 95.4689 5.86113 95.5878 5.8122C95.667 5.76328 95.7264 5.76328 95.8057 5.8122C95.984 5.91006 96.1623 5.95898 96.3406 5.95898C96.9151 5.95898 97.4896 5.95898 98.0443 5.95898C98.3415 5.95898 98.6188 5.91005 98.8962 5.71435C99.0745 5.56757 99.2528 5.51865 99.4311 5.66543C99.9462 6.05683 100.481 6.05683 101.016 6.05683C101.194 6.05683 101.353 6.30146 101.472 6.64394C101.531 6.83964 101.571 7.18211 101.511 7.37781C101.452 7.57352 101.392 7.81814 101.333 8.01385C101.234 8.35632 101.234 8.55202 101.353 8.60094C101.67 8.74773 101.967 9.04127 102.264 9.33482C102.363 9.43268 102.403 9.72623 102.423 9.97086C102.442 10.1666 102.343 10.558 102.264 10.6069C102.165 10.7047 102.066 10.8026 101.967 10.9004C101.868 10.9983 101.828 11.3408 101.888 11.5365C101.927 11.6832 101.987 11.7811 102.046 11.8789C102.205 12.2214 102.205 12.6618 102.165 13.1021C102.165 13.1999 102.145 13.2488 102.125 13.3467C102.066 13.6892 102.046 14.0317 102.046 14.3741C102.046 14.6677 102.086 14.9123 102.165 15.108C102.363 15.5973 102.581 16.0865 102.779 16.5758C102.858 16.7715 102.918 17.065 102.858 17.3097C102.7 17.9946 102.68 18.8263 102.502 19.5113C102.442 19.7559 102.482 20.0495 102.561 20.2452C102.7 20.6366 102.858 20.979 102.997 21.4194C103.076 21.7129 103.037 22.1533 102.938 22.349C102.72 22.6914 102.482 22.7893 102.244 22.985C102.205 22.985 102.165 23.0828 102.165 23.1318C102.165 23.1807 102.185 23.2785 102.205 23.3275C102.363 23.5721 102.462 23.9146 102.522 24.3549C102.581 24.7463 102.581 24.6974 102.482 25.0398C102.363 25.4313 102.363 25.4802 102.403 25.7248C102.502 26.2141 102.621 26.6055 102.759 27.0458C102.878 27.3883 102.858 27.535 102.74 27.9754C102.68 28.1711 102.581 28.3668 102.621 28.6603C102.66 29.0517 102.601 29.2964 102.502 29.5899C102.343 29.9813 102.363 30.0302 102.541 30.3727C102.621 30.5195 102.72 30.6663 102.799 30.862C102.957 31.3023 102.997 31.7915 102.898 32.3297C102.858 32.5744 102.799 32.7701 102.839 33.0636C102.898 33.3572 102.819 33.5529 102.759 33.7486C102.66 34.0421 102.522 34.14 102.403 34.3357C102.323 34.4824 102.264 34.776 102.304 35.0206C102.323 35.1674 102.343 35.3631 102.363 35.5099C102.403 35.7545 102.403 35.9991 102.343 36.2438C102.244 36.6352 102.264 37.0755 102.304 37.5158C102.323 37.7604 102.363 38.0051 102.462 38.2008C102.522 38.2986 102.581 38.4454 102.581 38.5922C102.561 38.7389 102.482 38.8368 102.423 38.9346C102.264 39.326 102.304 39.7174 102.522 39.8642C102.561 39.9132 102.581 39.9132 102.621 39.9132C102.839 40.011 103.017 40.2556 103.195 40.5492C103.156 40.647 103.195 40.7938 103.215 40.8917C103.195 40.9406 103.156 40.8917 103.116 40.9406C102.898 40.9406 102.7 40.8917 102.502 40.5492C102.482 40.5003 102.442 40.5003 102.403 40.5003C102.323 40.5003 102.264 40.5492 102.264 40.7449C102.264 40.7938 102.284 40.9406 102.304 40.9895C102.423 41.332 102.601 41.4298 102.759 41.6745C102.858 41.8212 102.938 41.7723 103.037 41.5766C103.136 41.332 103.215 41.1852 103.215 40.8917ZM79.6795 8.64986C79.7192 8.64986 79.7588 8.64986 79.7786 8.64986C79.9371 8.64986 80.056 8.50309 80.0956 8.11169C80.1154 7.96492 80.155 7.76922 80.1748 7.62243C80.2144 7.37781 80.155 7.1821 80.0361 7.1821C79.7984 7.1821 79.7192 7.32888 79.6994 7.91598C79.6994 8.16061 79.6994 8.45417 79.6994 8.6988C79.6597 8.6988 79.6399 8.74772 79.6003 8.79664C79.5805 8.79664 79.5805 8.8945 79.5805 8.94342C79.6399 8.94342 79.6795 8.84556 79.6795 8.64986ZM24.7041 3.41485C24.6447 3.07237 24.5654 2.87668 24.4069 2.87668C24.3079 2.87668 24.2088 2.9256 24.1098 2.97453C24.0305 3.02345 23.9909 3.17023 24.0305 3.26807C24.0503 3.317 24.0899 3.36593 24.1098 3.41485C24.3079 3.5127 24.506 3.5127 24.7239 3.41485C24.7833 3.95303 24.922 4.29551 25.1201 4.49121C25.2192 4.58906 25.3182 4.68691 25.4173 4.73583C25.4371 4.73583 25.4767 4.63799 25.4965 4.54014C25.5163 4.49121 25.5163 4.39336 25.4965 4.29551C25.3975 3.80626 25.239 3.46378 25.0211 3.41485C24.9022 3.41485 24.8031 3.41485 24.7041 3.41485ZM91.2492 93.731C91.368 93.8778 91.4869 94.0735 91.6256 94.1713C91.784 94.2692 91.9623 94.3181 92.1406 94.367C92.1605 94.367 92.2001 94.4649 92.2199 94.5138C92.3189 95.3455 92.3189 95.3455 92.5567 95.5902C92.735 95.7859 92.8935 95.4434 92.8935 94.9541C92.8935 94.7584 92.8737 94.5627 92.9133 94.5138C92.9727 94.416 93.052 94.416 93.1114 94.367C93.151 94.367 93.1906 94.3181 93.2104 94.2692C93.2303 94.2203 93.2699 94.1713 93.2699 94.0735C93.2897 93.9267 93.2501 93.8289 93.151 93.7799C93.0123 93.731 92.8737 93.731 92.735 93.731C92.4774 93.7799 92.2397 93.6821 92.0218 93.4375C91.8633 93.2418 91.685 93.2907 91.5067 93.3396C91.4076 93.3885 91.3086 93.5353 91.2888 93.7799C91.2293 93.7799 91.1501 93.7799 91.0907 93.7799C91.051 93.7799 91.0312 93.8289 91.0114 93.8778C90.9916 93.9267 90.9916 94.0246 90.9916 94.0246C91.0312 94.1713 91.0907 94.1713 91.1699 94.0735C91.1897 94.0246 91.2293 93.8778 91.2492 93.731ZM85.9002 7.62243C85.8804 7.42674 85.8408 7.27997 85.7615 7.27997C85.5832 7.18211 85.4247 7.13318 85.2662 6.88856C85.2068 6.79071 85.1276 6.79071 85.0681 6.83963C84.87 7.08426 84.6719 7.1821 84.454 7.1821C84.2757 7.1821 84.0974 7.13318 83.9389 7.27997C83.8597 7.32889 83.82 7.47566 83.8399 7.67136C83.8399 7.72028 83.8795 7.81814 83.8993 7.86706C83.9587 7.96492 84.0182 8.01385 84.0974 8.01385C84.2361 8.01385 84.3748 7.86706 84.4936 7.76922C84.5927 7.67136 84.6917 7.72029 84.7908 7.86706C84.9889 8.16062 85.187 8.16061 85.3851 7.91598C85.5436 7.72028 85.7021 7.57351 85.8804 7.57351C85.9002 7.67136 85.9002 7.76921 85.92 7.81814C85.9993 7.96491 86.0983 8.11169 86.1775 8.25847C86.2964 8.45417 86.4351 8.5031 86.5738 8.35632C86.6332 8.25847 86.7124 8.20954 86.7719 8.20954C87.1681 8.20954 87.5445 8.16061 87.9407 8.20954C88.0002 8.20954 88.0794 8.25847 88.1388 8.35632C88.2577 8.55202 88.3766 8.74772 88.4756 8.94342C88.5351 9.04127 88.6539 8.89449 88.7332 8.64986C88.7728 8.50309 88.7728 8.30739 88.7134 8.16061C88.6539 8.06277 88.5945 7.96492 88.5351 7.86706C88.4954 7.81814 88.4756 7.81814 88.436 7.81814C88.3568 7.81814 88.2973 7.76922 88.2181 7.76922C88.0002 7.72029 87.8021 7.67136 87.5841 7.67136C87.3266 7.67136 87.1087 7.37781 86.8709 7.23103C86.653 7.13318 86.4549 7.08426 86.2568 7.37781C86.1775 7.52459 86.0389 7.57351 85.9002 7.62243ZM91.0312 9.23697C90.952 8.74772 90.8529 8.30739 90.7143 7.91598C90.6945 7.86706 90.6548 7.81814 90.635 7.81814C90.5162 7.76921 90.3775 8.01384 90.318 8.35632C90.2982 8.5031 90.3775 8.8945 90.4567 8.99235C90.5162 9.04127 90.5954 9.13912 90.6548 9.13912C90.7935 9.18805 90.9322 9.18805 91.0709 9.18805C91.0907 9.38375 91.1303 9.53052 91.1897 9.62837C91.2492 9.72623 91.3284 9.77514 91.3878 9.873C91.6058 10.2644 91.8435 10.3133 92.101 10.1176C92.2001 10.0198 92.2991 10.0198 92.418 10.1176C92.7944 10.4112 93.1906 10.3623 93.5869 10.2644C93.6859 10.2644 93.8048 10.1666 93.884 10.0198C94.0029 9.82407 94.1416 9.77515 94.3001 9.77515C94.3397 10.0198 94.4189 10.2155 94.518 10.2644C94.6566 10.3623 94.7953 10.3623 94.934 10.2155C94.9538 10.1666 94.9736 10.1176 94.9934 10.0687C94.9736 10.0198 94.934 9.92193 94.9142 9.92193C94.6963 9.82408 94.4982 9.82408 94.2802 9.82408C94.2604 9.62838 94.201 9.53053 94.1416 9.4816C94.0425 9.38375 93.9435 9.33483 93.8444 9.23698C93.7057 9.0902 93.6463 8.74773 93.5472 8.5031C93.468 8.30739 93.3689 8.25847 93.2699 8.40524C93.2104 8.50309 93.151 8.60094 93.0916 8.6988C92.9727 8.94342 92.8538 8.99235 92.7152 8.89449C92.5369 8.74772 92.3784 8.74772 92.2001 8.94342C92.002 9.18805 91.8039 9.28589 91.5859 9.28589C91.368 9.23697 91.2095 9.23697 91.0312 9.23697ZM80.5314 93.731C80.6305 93.8289 80.6899 94.0246 80.7493 94.2692C80.8484 94.6606 80.9276 94.8074 81.0861 94.7584C81.304 94.7095 81.5022 94.7095 81.7201 94.6117C81.9182 94.4649 82.1163 94.3181 82.3342 94.5138C82.3936 94.5627 82.4729 94.5138 82.5323 94.416C82.7106 94.2203 82.8691 94.2203 83.0474 94.416C83.1068 94.4649 83.1861 94.5627 83.2455 94.5138C83.4436 94.367 83.6615 94.367 83.8398 94.1224C83.8597 94.0735 83.8993 94.0246 83.8993 93.9267C83.9191 93.8289 83.9191 93.731 83.8993 93.6821C83.7408 92.9482 83.6417 92.7525 83.3248 92.9482C83.2455 92.9971 83.1861 93.0461 83.1267 92.9482C82.9484 92.8014 82.7899 92.8504 82.6314 93.095C82.5323 93.2418 82.4333 93.2418 82.3342 93.1928C82.2748 93.1928 82.1955 93.095 82.1361 93.0461C82.0965 92.9971 82.0767 92.9971 82.037 92.9482C81.938 92.8504 81.8191 92.7525 81.7399 92.8504C81.4427 93.1439 81.1257 93.1928 80.8088 93.2418C80.7097 93.2907 80.6305 93.4375 80.5908 93.731C80.5512 93.731 80.5314 93.7799 80.4918 93.8289C80.472 93.8778 80.472 93.9267 80.472 93.9756C80.4918 94.0246 80.5314 93.9267 80.5314 93.731ZM18.2853 9.77515C18.2853 10.2644 18.3051 10.7536 18.1863 11.2429C18.1665 11.2918 18.1665 11.3897 18.1665 11.4875C18.1665 11.6343 18.2061 11.7811 18.2853 11.83C18.5627 11.9279 18.84 11.8789 19.1174 11.7811C19.1768 11.7811 19.2363 11.6343 19.2957 11.5365C19.3155 11.4875 19.3155 11.3897 19.3353 11.2918C19.3551 11.1451 19.3551 10.9494 19.3749 10.8026L19.3551 10.8515C19.5928 10.8026 19.8504 10.7047 20.0683 11.0472C20.1079 11.0961 20.1872 10.9494 20.207 10.8026C20.2268 10.4601 20.2268 10.1176 20.2268 9.77515L20.207 9.82407C20.306 9.77515 20.4249 9.77515 20.5042 9.57944C20.5636 9.4816 20.5834 9.28589 20.5834 9.13911C20.5636 8.99234 20.524 8.79664 20.4447 8.79664C20.2268 8.74771 20.0287 8.74771 19.8108 8.69879C19.6325 8.69879 19.474 8.55201 19.3551 8.16061C19.2957 7.91598 19.1966 7.81814 19.0976 7.76921C18.9589 7.72028 18.8202 7.67136 18.6815 7.67136C18.3646 7.67136 18.0476 7.72028 17.7306 7.76921C17.6514 7.76921 17.5919 7.86706 17.5919 8.01384C17.5919 8.11169 17.6118 8.20953 17.6514 8.20953C17.7901 8.35631 17.8495 8.69879 17.9089 8.99234C17.9882 9.33482 18.1268 9.57944 18.2853 9.77515ZM28.8644 9.43267C29.0625 9.67729 29.2606 9.873 29.4587 10.0687C29.5974 10.2155 29.7361 10.2644 29.8747 10.1666C30.053 10.0687 30.2115 9.97085 30.3898 10.0687C30.7861 10.2644 31.1625 10.2155 31.5389 9.82407C31.6379 9.72622 31.7568 9.72622 31.8559 9.82407C32.1134 10.1666 32.3907 10.2155 32.6879 10.2155C32.9653 10.2155 33.2624 10.2155 33.5398 10.2155C33.7577 10.2155 33.9558 10.2644 34.1737 10.509C34.2332 10.558 34.3124 10.509 34.3718 10.4601C34.5303 10.3133 34.7086 10.1176 34.8671 9.92192C35.0058 10.0687 35.1445 10.1666 35.2633 10.3133C35.4416 10.509 35.6001 10.509 35.7784 10.3622C36.1548 10.1176 36.551 10.1666 36.9275 10.4601C37.1454 10.6558 37.3435 10.6558 37.5614 10.4601C37.6605 10.3623 37.7595 10.3623 37.8784 10.4112C38.1161 10.509 38.1161 10.509 38.2944 10.4112C38.3935 10.3623 38.5123 10.3133 38.6114 10.2155C38.651 10.2155 38.6708 10.1176 38.6906 10.0687C38.7104 9.97085 38.651 9.87299 38.5718 9.87299C38.3142 9.77514 38.0765 9.82408 37.819 9.82408C37.502 9.82408 37.185 9.72623 36.868 9.4816C36.7293 9.38374 36.5907 9.4816 36.452 9.57945C36.3529 9.6773 36.2539 9.77515 36.135 9.77515C35.9171 9.77515 35.6992 9.82407 35.5011 9.62837C35.303 9.43266 35.085 9.38374 34.8671 9.33482C34.5501 9.33482 34.2332 9.28589 33.8964 9.28589C33.7577 9.28589 33.619 9.18804 33.4803 8.99234C33.302 8.74772 33.1436 8.84557 32.9653 8.99234C32.8662 9.0902 32.7672 9.18804 32.6483 9.18804C32.3907 9.23697 32.153 9.23697 31.8955 9.23697C31.6775 9.23697 31.4794 9.18804 31.2615 8.94341C31.1625 8.84557 31.0436 8.79664 30.9445 8.89449C30.8059 8.99234 30.6672 8.99234 30.5285 8.84557C30.4295 8.74772 30.3106 8.74772 30.2115 8.74772C29.7559 8.74772 29.2804 8.74771 28.8248 8.79664C28.7257 8.79664 28.6069 8.89449 28.5078 8.94341C28.4286 8.99234 28.3691 9.04127 28.3097 8.94341C28.072 8.69879 27.8342 8.69878 27.5965 9.04127C27.4974 9.18804 27.3984 9.18804 27.2993 9.23697C27.2597 9.23697 27.2399 9.2859 27.2003 9.33482C27.121 9.43267 27.1012 9.57945 27.1012 9.72623C27.1012 9.92192 27.1408 10.0687 27.2201 10.1176C27.5767 10.3133 27.9333 10.2644 28.2899 10.1666C28.3889 10.1176 28.488 10.0198 28.587 9.87299C28.6861 9.67729 28.7851 9.57945 28.8644 9.43267ZM40.117 5.02939C39.9783 5.07832 39.8793 5.07832 39.7802 5.12724C39.6218 5.17616 39.5623 5.37187 39.6218 5.61649C39.7208 6.0079 39.8199 6.35037 39.8991 6.74178C39.9585 6.98641 40.0576 7.08425 40.1566 7.13318C40.2953 7.18211 40.434 7.1821 40.5727 7.1821C40.751 7.1821 40.9095 7.42674 41.0878 7.52458C41.1868 7.57351 41.3057 7.62243 41.4047 7.62243C41.6227 7.67136 41.8208 7.62243 42.0189 7.37781C42.1377 7.23104 42.2764 7.13318 42.4349 7.13318C43.1085 7.13318 43.7821 7.13318 44.4556 7.1821C44.5943 7.1821 44.733 7.23104 44.8717 7.27996C45.0896 7.62244 45.3669 7.23103 45.5849 7.5735C45.6641 7.5735 45.7235 7.57351 45.8028 7.52458C45.9415 7.37781 46.0801 7.42673 46.2188 7.5735C46.2584 7.62243 46.2782 7.62243 46.3179 7.62243C46.516 7.72029 46.6546 7.52458 46.7933 7.23103C46.8131 7.18211 46.8329 7.08425 46.8131 6.98641C46.8131 6.93748 46.7933 6.83962 46.7537 6.83962C46.516 6.595 46.2584 6.64393 46.0207 6.64393C45.7037 6.64393 45.3867 6.64392 45.0698 6.35037C45.0103 6.30145 44.9311 6.35037 44.8717 6.3993C44.733 6.54608 44.5943 6.49715 44.4556 6.35037C44.3962 6.30145 44.317 6.30145 44.2575 6.35037C44.1188 6.44822 43.9802 6.49716 43.8415 6.30145C43.7821 6.2036 43.7028 6.2036 43.6434 6.15467C43.4255 6.15467 43.2273 6.15467 43.0094 6.15467C42.9104 6.15467 42.8113 6.05682 42.7123 5.95897C42.6132 5.86112 42.5142 5.8122 42.4151 5.95897C42.2962 6.10575 42.1576 6.25253 42.0387 6.3993C41.9 6.54608 41.7811 6.64393 41.6227 6.64393C41.4444 6.64393 41.2661 6.64393 41.0878 6.64393C40.9491 6.64393 40.8104 6.54608 40.7312 6.20359C40.6717 5.95897 40.6123 5.76328 40.5529 5.56758C40.4538 5.27402 40.3151 5.17616 40.1765 5.12724C40.1566 4.98046 40.117 5.02939 40.117 5.02939ZM84.4738 9.6773C84.3351 9.6773 84.0578 9.6773 83.7606 9.82408C83.721 9.82408 83.6616 9.92193 83.6616 9.92193C83.6616 10.1176 83.721 10.1666 83.8002 10.2155C84.0578 10.4112 84.0578 10.4112 83.8795 10.9004C83.82 11.0472 83.8002 11.194 83.82 11.3897C83.8399 11.5365 83.8993 11.6832 83.9587 11.7322C84.1965 11.83 84.454 11.9279 84.6917 11.6832C84.9295 11.4386 85.1672 11.3408 85.4247 11.3408C85.6427 11.3408 85.8606 11.3408 86.0587 11.1451C86.2568 10.9494 86.4747 10.9004 86.6728 10.8515C86.8511 10.8515 87.0294 10.8026 87.2077 10.7537C87.2672 10.7537 87.3266 10.6069 87.386 10.509C87.5247 10.2644 87.5445 9.92193 87.4256 9.62837C87.3266 9.38375 87.2275 9.13912 87.1087 8.94342C87.0096 8.79664 86.8907 8.79664 86.8115 8.94342C86.7323 9.0902 86.6332 9.23697 86.554 9.38375C86.4549 9.53052 86.3558 9.53052 86.2568 9.43268C86.0785 9.23697 85.9002 9.23697 85.7417 9.38375C85.4644 9.62837 85.187 9.72623 84.9096 9.72623C84.8304 9.72623 84.7115 9.72622 84.4738 9.6773ZM65.8317 2.58313C65.7921 2.5342 65.7722 2.53421 65.7326 2.48528C65.6336 2.38742 65.5345 2.3385 65.4156 2.3385C65.3364 2.3385 65.277 2.43635 65.2373 2.58313C65.1779 2.77883 65.1977 3.1213 65.2968 3.26808C65.4156 3.46378 65.4949 3.70841 65.4751 4.09981C65.4751 4.14874 65.4949 4.24659 65.5147 4.29551C65.5939 4.44229 65.693 4.58907 65.7921 4.68692C65.8911 4.83369 65.9902 4.83369 66.0892 4.73584C66.1883 4.63799 66.2873 4.49121 66.3666 4.39336C66.5251 4.19766 66.5251 4.19766 66.3666 3.80626C66.3468 3.75734 66.327 3.61056 66.327 3.56163C66.327 3.51271 66.3864 3.46379 66.426 3.46379C66.6439 3.41486 66.842 3.36593 67.06 3.26808C67.0996 3.26808 67.1194 3.21915 67.159 3.17023C67.1392 3.1213 67.1194 3.02346 67.0996 2.97453C66.8618 2.58313 66.6043 2.28957 66.3666 1.94709C66.2279 1.80032 66.1486 1.84925 66.01 2.24065C65.9505 2.38742 65.8911 2.5342 65.8317 2.58313ZM81.9182 10.4601C81.9578 10.3623 81.9974 10.3133 81.9974 10.2644C82.0172 10.1666 82.0172 10.0687 81.9974 10.0198C81.8588 9.62837 81.7201 9.23697 81.5814 8.84557C81.4625 8.5031 81.4031 8.11168 81.3635 7.67136C81.3437 7.32888 81.304 7.32889 81.1852 7.72029C81.1258 7.91599 81.0465 8.11169 80.9474 8.20954C80.8088 8.35631 80.7692 8.6988 80.6503 8.94342C80.5909 9.04127 80.5314 9.13912 80.4522 9.13912C80.3531 9.13912 80.2343 9.18805 80.1352 9.23697C80.0956 9.23697 80.0758 9.33482 80.056 9.38375C80.0163 9.53052 80.056 9.6773 80.0956 9.82408C80.1748 10.0198 80.2739 10.1666 80.3729 10.1666C80.6899 10.2155 81.0069 10.2644 81.3239 10.3133C81.4229 10.3133 81.5418 10.2644 81.6408 10.3133C81.7399 10.3133 81.8389 10.4112 81.9182 10.4601ZM62.3053 2.9256L62.3053 2.87668C62.4836 2.87668 62.6619 2.87668 62.8402 2.87668C62.8996 2.87668 62.9789 2.82775 63.0383 2.77883C63.1176 2.7299 63.1374 2.58313 63.0779 2.38742C62.9987 2.09388 62.8996 1.84925 62.7808 1.65355C62.6619 1.45784 62.5232 1.36 62.3846 1.40892C62.3053 1.45784 62.2459 1.45784 62.1865 1.55569C62.0082 1.75139 61.8497 1.75139 61.6714 1.60462C61.5723 1.50677 61.4733 1.65354 61.4138 1.89817C61.295 2.38742 61.3544 2.82775 61.5723 2.87668C61.81 2.87668 62.0676 2.87667 62.3053 2.9256ZM89.585 93.2907C89.4265 93.2418 89.2284 93.2418 89.1096 93.5842C88.852 94.1713 88.5549 94.3181 88.2379 94.2692C88.1388 94.2692 88.02 94.2692 87.9209 94.2692C87.8615 94.2692 87.802 94.416 87.7228 94.4649C87.7426 94.5627 87.7426 94.6606 87.7624 94.7095C87.9011 95.0031 88.0002 95.3455 88.119 95.6391C88.1983 95.8348 88.3171 95.8837 88.3964 95.688C88.5152 95.4923 88.6143 95.2477 88.7332 95.052C88.8916 94.8074 89.0501 94.6117 89.2086 94.4649C89.3077 94.367 89.4067 94.3181 89.5058 94.2203C89.5454 94.1713 89.5652 94.1713 89.6048 94.1713C89.7039 94.0735 89.7831 93.9267 89.8228 93.6332C89.8624 93.4375 89.7633 93.2907 89.585 93.2907ZM85.6228 95.2966C85.8408 95.3455 85.9794 95.2477 86.1181 95.0031C86.1974 94.8563 86.2568 94.5138 86.2172 94.3181C86.1974 94.2203 86.1974 94.1713 86.1775 94.0735C86.1379 93.9267 86.0983 93.7799 86.0587 93.6332C85.9794 93.3396 85.8606 93.1928 85.7021 93.2907C85.4247 93.4375 85.286 93.8289 85.2662 94.5627C85.2662 94.9052 85.3851 95.2477 85.5238 95.2966C85.5634 95.2966 85.603 95.2966 85.6228 95.2966ZM27.2399 10.8515C27.0418 10.7536 26.9427 10.558 26.8635 10.2644C26.7842 9.92192 26.6456 9.82407 26.5069 9.82407C26.4078 9.82407 26.289 9.87299 26.1899 9.92192C26.0909 9.97085 25.9918 10.3133 26.0314 10.509C26.071 10.7536 26.1305 10.9494 26.1899 11.194C26.289 11.5854 26.289 11.5854 26.4276 11.4875C26.5267 11.4386 26.6257 11.3408 26.7446 11.3408C26.8833 11.3408 27.022 11.3408 27.1606 11.3408C27.2399 11.3408 27.2993 11.2918 27.3588 11.1451C27.3191 10.9494 27.2597 10.8515 27.2399 10.8515ZM105.275 45.0992C105.216 45.0992 105.256 45.0992 105.275 45.0992C105.374 45.0503 105.454 45.0014 105.454 44.9035C105.454 44.7078 105.394 44.6589 105.315 44.5611C105.117 44.3164 104.919 44.2186 104.701 44.1697C104.562 44.1697 104.423 44.0229 104.305 43.8761C104.186 43.7293 104.126 43.7783 104.027 43.974C103.948 44.2186 103.948 44.4632 104.047 44.61C104.265 44.9035 104.503 45.0992 104.74 45.0992C104.899 45.0992 105.038 45.0992 105.275 45.0992ZM45.8424 11.7811C46.0405 11.7811 46.1792 11.7811 46.3179 11.7811C46.3773 11.7811 46.4367 11.6343 46.516 11.5854C46.5754 11.4875 46.6348 11.3408 46.615 11.1451C46.615 10.9983 46.5358 10.9494 46.4565 10.9004C46.1792 10.7537 45.9018 10.7537 45.6245 10.9494C45.565 10.9983 45.5056 11.0961 45.4462 11.194C45.4264 11.2429 45.4066 11.3408 45.3867 11.3897C45.3471 11.5854 45.3867 11.6832 45.4858 11.6832C45.6245 11.7322 45.7632 11.7322 45.8424 11.7811ZM48.6357 11.3408C48.4178 11.3408 48.1999 11.3408 48.0018 11.3408C47.9424 11.3408 47.8631 11.3897 47.8037 11.4386C47.7641 11.4386 47.7443 11.5365 47.7244 11.5854C47.7443 11.6343 47.7839 11.7322 47.8037 11.7322C48.1405 11.9768 48.4971 11.83 48.8339 11.83C49.0122 11.83 49.1706 11.9768 49.3291 12.1236C49.3886 12.1725 49.4678 12.2214 49.5272 12.2214C49.5471 12.2214 49.5867 12.1236 49.6065 12.0746C49.6263 12.0257 49.6065 11.9279 49.6065 11.8789C49.5471 11.6343 49.4678 11.4875 49.3489 11.4386C49.1112 11.4386 48.8735 11.3897 48.6357 11.3408ZM80.2144 3.46379C80.155 3.51271 80.0758 3.51271 80.0163 3.56164C79.9767 3.56164 79.9569 3.65949 79.9371 3.70841C79.838 3.85518 79.7984 4.14874 79.8182 4.34444C79.8578 4.58907 79.9371 4.78477 80.0361 4.83369C80.0956 4.88262 80.1748 4.88262 80.2343 4.83369C80.3927 4.68692 80.5512 4.54014 80.7295 4.44229C80.8088 4.39337 80.8484 4.29551 80.8484 4.14874C80.8484 4.09981 80.8088 4.00197 80.789 3.95304C80.6701 3.80626 80.5314 3.65948 80.4126 3.51271C80.3531 3.46378 80.2739 3.46379 80.2144 3.46379ZM94.2604 94.3181C94.1614 94.3181 94.0821 94.3181 94.0227 94.367C93.9434 94.416 93.9038 94.5627 93.9038 94.7095C93.884 94.9052 93.9236 95.052 94.0029 95.1009C94.201 95.2966 94.4189 95.2477 94.6368 95.1988C94.6765 95.1988 94.6963 95.1498 94.7359 95.1009C94.8151 95.052 94.8548 94.9052 94.8349 94.6606C94.8151 94.5138 94.7557 94.367 94.6963 94.367C94.518 94.367 94.3793 94.3181 94.2604 94.3181ZM15.4524 8.64986C15.4524 8.64986 15.4524 8.69878 15.4524 8.64986C15.6307 8.69878 15.809 8.69879 15.9873 8.69879C16.0863 8.69879 16.1854 8.55201 16.2646 8.40523C16.2844 8.35631 16.2844 8.20953 16.2844 8.16061C16.2646 8.01383 16.225 7.86706 16.1457 7.81813C16.1061 7.81813 16.0665 7.7692 16.0467 7.81813C15.7495 8.16061 15.4325 8.25846 15.1156 8.25846C15.0363 8.25846 14.9769 8.25846 14.8977 8.30738C14.858 8.30738 14.8184 8.35631 14.8184 8.45416C14.7986 8.55201 14.8382 8.69879 14.9373 8.69879C15.0958 8.69879 15.2741 8.64986 15.4524 8.64986ZM69.9524 3.65948C69.9722 3.75734 69.9722 3.85518 69.992 3.90411C70.1307 4.34444 70.2693 4.73584 70.4873 4.88262C70.5863 4.98047 70.6854 5.12724 70.7844 5.22509C70.8042 5.22509 70.8438 5.12725 70.8637 5.07832C70.8835 5.02939 70.8835 4.88262 70.8637 4.83369C70.7646 4.39337 70.6259 3.95304 70.4476 3.65948C70.3288 3.41485 70.1901 3.41485 70.0514 3.51271C70.0118 3.51271 69.992 3.61055 69.9524 3.65948ZM10.9355 51.9488C11.0741 51.9488 11.2128 51.9488 11.3515 51.9488C11.4505 51.9488 11.4902 51.8509 11.4902 51.7531C11.4902 51.6552 11.4505 51.6063 11.4307 51.5574C11.3713 51.4595 11.3119 51.3617 11.2524 51.3127C11.1138 51.166 10.9949 51.0681 10.8364 51.2638C10.6779 51.4106 10.4996 51.5574 10.3411 51.7531C10.3213 51.7531 10.3213 51.8509 10.3015 51.8999C10.3411 51.9488 10.3609 51.9977 10.4005 51.9977C10.5788 51.9488 10.7572 51.9488 10.9355 51.9488ZM4.65537 48.7686C4.81385 48.7197 4.93273 48.7197 5.03178 48.6708C5.09121 48.6219 5.17046 48.5729 5.22989 48.4751C5.28933 48.3772 5.32895 48.2305 5.32895 48.0348C5.32895 47.9858 5.26951 47.9369 5.22989 47.9369C5.09121 47.888 4.95253 47.839 4.81386 47.839C4.75442 47.839 4.67518 47.9369 4.61574 47.9858C4.51669 48.0837 4.45726 48.4751 4.51669 48.6219C4.57612 48.7197 4.63556 48.7686 4.65537 48.7686ZM89.6841 14.472C89.5454 14.472 89.4265 14.472 89.3275 14.472C89.2879 14.472 89.2482 14.472 89.2284 14.5209C89.1492 14.5209 89.0898 14.6188 89.0303 14.7166C89.0501 14.8634 89.1096 14.9123 89.1888 14.9612C89.4662 15.108 89.7633 14.9612 90.0209 15.2548C90.0407 15.3037 90.0803 15.2548 90.1199 15.2548C90.1992 15.2059 90.2388 15.108 90.2784 14.9612C90.318 14.7655 90.2784 14.6188 90.1794 14.6188C89.9813 14.5698 89.8228 14.5209 89.6841 14.472ZM11.3317 5.17616C11.3515 5.46972 11.4109 5.61649 11.4902 5.76327C11.5694 5.91004 11.6883 5.91004 11.7675 5.71434C11.8468 5.51864 11.8864 5.32294 11.926 5.07831C11.9656 4.83369 11.926 4.58906 11.827 4.54014C11.6487 4.49121 11.4902 4.58906 11.3713 4.93154C11.3515 5.02939 11.3515 5.12724 11.3317 5.17616ZM65.0987 92.2632C65.0392 92.3122 64.96 92.3122 64.9005 92.3611C64.8213 92.41 64.7817 92.5079 64.7817 92.7036C64.7817 92.8993 64.8411 92.9971 64.9005 92.9971C64.9996 92.9482 65.0987 92.9482 65.1977 93.095C65.3562 93.2907 65.5147 93.3396 65.693 93.2418C65.7722 93.1928 65.8317 93.1439 65.8515 92.9971C65.8515 92.9971 65.8119 92.8504 65.7722 92.8504C65.6137 92.7525 65.4354 92.6057 65.2968 92.41C65.2373 92.3122 65.1581 92.3122 65.0987 92.2632ZM22.9805 89.0342C22.8815 89.0831 22.822 89.0831 22.7428 89.132C22.6437 89.181 22.6239 89.3277 22.6834 89.5234C22.822 90.0127 23.0201 90.0616 23.2381 89.9638C23.3173 89.9148 23.3371 89.7681 23.3569 89.5724C23.3569 89.3767 23.3371 89.2299 23.2579 89.181C23.1588 89.0831 23.0598 89.0831 22.9805 89.0342ZM79.3824 93.8289C79.3428 94.0246 79.3626 94.1224 79.4616 94.2203C79.6399 94.3181 79.7984 94.2692 79.9569 94.1224C80.0361 94.0246 80.0758 93.9267 80.0559 93.731C80.0361 93.5842 79.9965 93.4375 79.9173 93.3885C79.7786 93.2907 79.6399 93.3396 79.5211 93.4864C79.4418 93.5353 79.4022 93.6821 79.3824 93.8289ZM95.1123 12.466C95.1123 12.466 95.0331 12.466 94.9736 12.466C94.8944 12.515 94.7557 12.515 94.934 12.7596C94.9538 12.8085 94.9934 12.8085 95.0331 12.8085C95.2114 12.8574 95.3698 12.9553 95.5481 13.1021C95.568 13.1021 95.6076 13.1021 95.6274 13.0531C95.6472 13.0042 95.6868 12.9553 95.6868 12.8575C95.6868 12.7596 95.6868 12.6617 95.667 12.6128C95.5283 12.3682 95.35 12.466 95.1123 12.466ZM100.818 11.3897C100.758 11.3897 100.679 11.3897 100.62 11.4386C100.56 11.4875 100.521 11.6343 100.501 11.7811C100.481 11.9768 100.501 12.0746 100.58 12.2214C100.719 12.4171 100.838 12.4171 100.957 12.2214C101.036 12.1236 101.056 11.9768 101.036 11.83C101.016 11.6832 100.996 11.5365 100.917 11.4386C100.897 11.3897 100.857 11.3897 100.818 11.3897ZM15.6505 12.3193C15.7297 12.3193 15.7891 12.3193 15.8684 12.2703C15.908 12.2703 15.9278 12.2214 15.9674 12.1725C16.0467 12.1236 16.0665 11.9768 16.0071 11.7811C15.908 11.4386 15.7099 11.3408 15.5316 11.5365C15.4722 11.6343 15.4325 11.7811 15.4127 11.9768C15.3929 12.1725 15.5118 12.3193 15.6505 12.3193ZM21.7324 8.79664C21.3957 8.79664 21.257 8.79664 21.1183 8.79664C21.0391 8.79664 20.9796 8.94341 21.0192 9.04127C21.0391 9.09019 21.0787 9.13911 21.0985 9.13911C21.3758 9.13911 21.6532 9.09019 21.9305 9.09019C21.9702 9.09019 21.99 8.99234 22.0098 8.94341C21.99 8.89449 21.9702 8.84557 21.9306 8.79664C21.8117 8.69878 21.673 8.74771 21.7324 8.79664ZM81.522 4.49122C81.6012 4.49122 81.6606 4.49122 81.7399 4.44229C81.7795 4.44229 81.8191 4.39336 81.8389 4.39336C81.8786 4.34444 81.9182 4.29551 81.9182 4.24659C81.9182 4.05089 81.8588 3.95304 81.7993 3.90411C81.6606 3.80626 81.5616 3.56164 81.4031 3.61056C81.3437 3.61056 81.2842 3.75734 81.2644 3.90411C81.2446 4.09981 81.2644 4.24659 81.3437 4.34444C81.3833 4.39337 81.4625 4.44229 81.522 4.49122ZM63.9893 2.87668C64.0685 2.87668 64.1279 2.82775 64.1676 2.68097C64.1676 2.63205 64.1477 2.53421 64.1279 2.48528C63.9694 2.19172 63.811 1.89817 63.6327 1.60462C63.5534 1.45784 63.5138 1.50677 63.4742 1.70247C63.4544 1.75139 63.4544 1.84925 63.4544 1.94709C63.5138 2.48527 63.7317 2.87668 63.9893 2.87668ZM19.8702 85.3648C19.6325 85.3648 19.5334 85.3648 19.4344 85.3648C19.3353 85.3648 19.2957 85.5116 19.3155 85.6094C19.3353 85.6583 19.3749 85.7562 19.3947 85.7562C19.573 85.7562 19.7513 85.7562 19.9296 85.7562C20.0287 85.7562 20.0683 85.6094 20.0485 85.5605C20.0287 85.5116 19.9891 85.4626 19.9693 85.4626C19.89 85.3648 19.8108 85.3648 19.8702 85.3648ZM14.6401 11.9279C14.4816 11.9279 14.4222 11.9279 14.3429 11.9279C14.3033 11.9279 14.2637 11.9279 14.2439 11.9768C14.2043 12.0257 14.1844 12.0746 14.1646 12.1236C14.1646 12.1236 14.1845 12.2214 14.2043 12.2703C14.4222 12.4171 14.6203 12.466 14.8977 12.2703C14.9175 12.2703 14.9373 12.1725 14.9571 12.1236C14.9373 12.0746 14.8977 11.9768 14.8778 11.9768C14.759 11.9279 14.6599 11.9279 14.6401 11.9279ZM13.808 8.69879C13.6099 8.69879 13.5505 8.69879 13.4911 8.69879C13.4514 8.69879 13.4316 8.69879 13.392 8.74772C13.3524 8.79664 13.3326 8.84556 13.3128 8.89448C13.3128 8.89448 13.3326 8.99234 13.3524 9.04127C13.5901 9.23697 13.808 9.23697 14.0458 9.04127C14.0656 9.04127 14.0854 8.94341 14.0854 8.89448C14.0656 8.84556 14.026 8.74772 14.0062 8.74772C13.8873 8.69879 13.7882 8.69879 13.808 8.69879ZM76.4504 8.20954C76.2721 8.20954 76.173 8.20954 76.074 8.20954C76.0541 8.20954 76.0145 8.30739 75.9947 8.35632C75.9749 8.45417 76.0343 8.60094 76.1136 8.60094C76.3117 8.64987 76.5098 8.64987 76.7079 8.50309C76.7277 8.50309 76.7475 8.40524 76.7673 8.35632C76.7475 8.30739 76.7079 8.25847 76.6881 8.20954C76.5692 8.20954 76.4702 8.20954 76.4504 8.20954ZM10.1232 6.69285C9.9251 6.64392 9.76661 6.74177 9.64774 7.13318C9.62793 7.1821 9.60812 7.27995 9.60812 7.32888C9.64774 7.52458 9.70718 7.57351 9.78642 7.52458C9.90528 7.37781 10.044 7.23102 10.1628 7.08425C10.2421 6.9864 10.2619 6.83962 10.2024 6.74177C10.1628 6.69285 10.1232 6.69285 10.1232 6.69285ZM92.6557 15.5483C92.5765 15.5483 92.4378 15.5973 92.2991 15.6462C92.2595 15.6462 92.2199 15.744 92.2199 15.793C92.2397 15.9397 92.2793 15.9887 92.3586 16.0376C92.5369 16.0865 92.6954 16.0865 92.8737 15.9887C92.9529 15.9397 93.0123 15.8419 92.9925 15.744C92.9925 15.6951 92.9331 15.6462 92.9133 15.5973C92.8538 15.5973 92.7746 15.5973 92.6557 15.5483ZM71.2599 4.88262C71.3391 5.12724 71.4382 5.4208 71.5372 5.66542C71.5967 5.8122 71.6561 5.8122 71.7155 5.71434C71.7552 5.56757 71.7552 5.4208 71.7353 5.22509C71.6759 4.88261 71.557 4.68692 71.4184 4.63799C71.3788 4.63799 71.3589 4.63799 71.3193 4.68692C71.2797 4.73584 71.2599 4.78476 71.2599 4.88262ZM34.3322 12.3682C34.2728 12.3682 34.1935 12.3682 34.1341 12.4171C34.0945 12.4171 34.0549 12.515 34.0549 12.5639C34.0549 12.6617 34.0945 12.8085 34.1737 12.8085C34.2728 12.8574 34.3718 12.8085 34.4709 12.8085C34.5501 12.8085 34.6294 12.6617 34.6096 12.5639C34.5898 12.4171 34.5105 12.3682 34.4313 12.3682C34.3917 12.3682 34.3718 12.3682 34.3322 12.3682ZM95.4095 8.94342C95.3897 8.99235 95.35 9.09019 95.35 9.13912C95.35 9.23697 95.35 9.33482 95.3698 9.38375C95.4689 9.6773 95.7859 9.72623 95.8453 9.4816C95.8453 9.43268 95.8255 9.33482 95.8057 9.2859C95.667 9.13912 95.5481 8.94342 95.4095 8.94342ZM56.8969 4.00196C56.8771 4.00196 56.8375 4.00196 56.8177 4.05088C56.7781 4.09981 56.7384 4.09981 56.7384 4.19767C56.7384 4.29551 56.7781 4.44229 56.8573 4.44229C56.9564 4.44229 57.0554 4.44229 57.1545 4.44229C57.2337 4.44229 57.313 4.29551 57.2931 4.24659C57.2733 4.09981 57.1941 4.05088 57.1148 4.05088C57.0554 4.00196 56.9762 4.00196 56.8969 4.00196ZM105.216 93.2418C105.216 93.4375 105.256 93.5353 105.335 93.5842C105.414 93.6332 105.473 93.5353 105.513 93.3885C105.572 93.1439 105.454 92.8504 105.355 92.8993C105.275 92.9482 105.236 93.0461 105.216 93.2418ZM14.2835 71.5678C14.2835 71.7146 14.3231 71.8614 14.3826 71.9103C14.4816 72.0082 14.6005 71.7635 14.5807 71.5189C14.5609 71.3721 14.541 71.2254 14.4816 71.1764C14.3826 71.0786 14.2835 71.3232 14.2835 71.5678ZM78.5305 4.14874C78.5503 4.19766 78.5503 4.29551 78.5701 4.34444C78.6494 4.49122 78.7682 4.49122 78.8673 4.44229C78.8871 4.44229 78.9465 4.34444 78.9465 4.29551C78.9465 4.14874 78.9069 4.05089 78.8277 4.00196C78.6494 3.90411 78.5503 4.00196 78.5305 4.14874ZM22.4456 4.73583C22.4258 4.78476 22.3862 4.88261 22.3862 4.93154C22.3664 5.12724 22.406 5.27402 22.4654 5.37186C22.5249 5.46972 22.5843 5.46972 22.6437 5.37186C22.6834 5.27402 22.6834 5.12724 22.6239 4.98046C22.5645 4.78476 22.5249 4.73583 22.4456 4.73583ZM41.2463 4.98046C41.1868 4.98046 41.1274 5.07832 41.068 5.17616C41.1076 5.32295 41.167 5.42079 41.2264 5.42079C41.3651 5.46972 41.5038 5.37187 41.484 5.22509C41.5038 5.12724 41.3651 4.98046 41.2463 4.98046ZM13.7486 7.08425C13.7486 7.03532 13.7486 6.93748 13.7288 6.88855C13.6892 6.74177 13.6297 6.69285 13.5703 6.69285C13.5505 6.69285 13.5109 6.74177 13.4911 6.83962C13.4514 6.9864 13.5307 7.23102 13.6496 7.32888C13.6892 7.3778 13.7288 7.27995 13.7486 7.08425ZM92.2397 7.96491C92.319 8.16061 92.418 8.16061 92.5171 8.06277C92.6359 7.96491 92.6359 7.86706 92.5369 7.76922C92.4378 7.67136 92.3388 7.67136 92.2595 7.81814C92.2397 7.81814 92.2199 7.91599 92.2397 7.96491ZM16.8986 8.45416C16.9184 8.50309 16.9382 8.60094 16.9778 8.60094C17.057 8.64986 17.1165 8.55201 17.1561 8.40523C17.1957 8.25846 17.1957 8.11169 17.1561 7.9649C17.1165 7.86706 17.057 7.86706 16.9976 8.01384C16.9184 8.16061 16.8986 8.30739 16.8986 8.45416ZM77.8767 8.20954C77.7975 8.16061 77.7381 8.20954 77.6984 8.35632C77.7381 8.50309 77.7975 8.55201 77.8569 8.55201C77.9956 8.55201 78.1145 8.45417 78.055 8.35632C77.9956 8.25847 77.9362 8.20954 77.8767 8.20954ZM10.2421 8.69879C10.1628 8.69879 10.1034 8.74771 10.0638 8.89448C10.0836 9.04126 10.143 9.13911 10.2223 9.13911C10.3609 9.13911 10.4798 8.99234 10.4402 8.89448C10.3807 8.74771 10.3213 8.69879 10.2421 8.69879ZM91.2888 15.5483C91.2888 15.6951 91.3086 15.8419 91.3878 15.8908C91.4473 15.9887 91.5265 15.9397 91.5661 15.793C91.5859 15.6462 91.5463 15.4994 91.5067 15.4016C91.4473 15.2548 91.3878 15.2548 91.3482 15.3526C91.3086 15.4016 91.2888 15.4994 91.2888 15.5483ZM14.9967 71.8614C15.0363 72.0082 15.1156 72.0571 15.175 72.0571C15.2542 72.0571 15.3137 72.0082 15.3533 71.8614C15.3533 71.8614 15.3335 71.7146 15.3137 71.7146C15.2146 71.6168 15.1156 71.5678 15.0165 71.7146C15.0165 71.7146 15.0165 71.8125 14.9967 71.8614ZM54.4007 88.2514C54.48 88.4471 54.7177 88.3981 54.7573 88.2024C54.7573 88.1535 54.7177 88.0557 54.6979 88.0067C54.5988 87.9089 54.4998 87.9578 54.4205 88.1046C54.4007 88.1535 54.4007 88.2024 54.4007 88.2514ZM25.9125 90.5998C25.8927 90.6976 25.8729 90.7955 25.8729 90.8444C25.9125 91.0401 25.972 91.089 26.0512 90.9912C26.1305 90.8933 26.1701 90.7466 26.1503 90.5509C26.1503 90.453 26.1107 90.3552 26.0908 90.3552C26.0314 90.3062 25.9522 90.4041 25.9125 90.5998ZM86.7917 94.9052C86.7521 94.9052 86.7322 94.9052 86.6926 94.9541C86.6134 95.0031 86.5936 95.1498 86.5936 95.3455C86.5936 95.3945 86.6134 95.4923 86.6332 95.5412C86.6926 95.6391 86.7322 95.5902 86.7917 95.4434C86.8511 95.2966 86.8709 95.1988 86.8511 95.052C86.8511 94.9541 86.8115 94.9541 86.7917 94.9052ZM73.7759 3.07238C73.7363 2.97453 73.6768 2.9256 73.5976 2.9256C73.5183 2.9256 73.4589 2.97453 73.4193 3.07238C73.4193 3.07238 73.4391 3.17023 73.4589 3.21916C73.558 3.31701 73.657 3.31701 73.7363 3.21916C73.7561 3.17023 73.7561 3.1213 73.7759 3.07238ZM98.3415 95.7859C98.3613 95.737 98.4207 95.6391 98.4207 95.5902C98.4009 95.3945 98.3217 95.3455 98.2622 95.3945C98.2424 95.4434 98.183 95.5412 98.2028 95.5412C98.2028 95.7859 98.2821 95.8348 98.3415 95.7859ZM97.1924 95.4434C97.1726 95.4923 97.133 95.5412 97.1132 95.5902C97.133 95.6391 97.1528 95.737 97.1726 95.737C97.2321 95.7859 97.2915 95.737 97.3311 95.5902C97.3311 95.5902 97.2915 95.4434 97.2717 95.4434C97.2717 95.4434 97.2321 95.4434 97.1924 95.4434ZM78.4711 94.0735C78.4711 94.0246 78.4711 93.9267 78.4513 93.9267C78.4315 93.8778 78.3918 93.8778 78.3522 93.8778C78.273 93.9756 78.273 94.0735 78.372 94.1224C78.4116 94.1713 78.4513 94.1224 78.4711 94.0735ZM104.186 93.4375C104.206 93.4864 104.225 93.5842 104.245 93.5842C104.305 93.6332 104.364 93.5842 104.404 93.4375C104.404 93.4375 104.364 93.2907 104.344 93.2907C104.285 93.2418 104.225 93.2907 104.186 93.4375ZM107.039 44.7568C107.019 44.8057 106.979 44.8546 106.959 44.8546C106.979 44.9035 106.999 44.9525 107.019 45.0014C107.039 45.0503 107.078 45.0503 107.098 45.0014C107.118 45.0014 107.177 44.9035 107.177 44.9035C107.157 44.7568 107.098 44.7078 107.039 44.7568ZM1.8026 33.1125C1.78278 33.1614 1.74315 33.2104 1.72335 33.2104C1.74315 33.2593 1.76298 33.3571 1.8026 33.3571C1.90165 33.4061 1.94127 33.3082 1.90165 33.1615C1.86203 33.1125 1.82241 33.1125 1.8026 33.1125ZM85.187 14.2763C85.2464 14.3741 85.3059 14.3252 85.3455 14.2763C85.3257 14.2274 85.3059 14.1784 85.2662 14.1784C85.2464 14.1784 85.2068 14.1784 85.187 14.2274C85.187 14.1784 85.187 14.2274 85.187 14.2763ZM96.9943 11.9279C96.9745 11.9768 96.9349 12.0257 96.9151 12.0746C96.9349 12.1236 96.9547 12.2214 96.9943 12.2214C97.0934 12.2703 97.133 12.1725 97.0934 12.0257C97.0736 11.9279 97.0142 11.9279 96.9943 11.9279ZM19.9098 7.9649C19.9494 8.01383 19.9693 8.06276 20.0089 8.01384C20.0485 8.01384 20.0683 7.91598 20.0881 7.86706C20.0683 7.81813 20.0485 7.72028 20.0089 7.72028C19.9891 7.72028 19.9494 7.72028 19.9098 7.76921C19.9098 7.81814 19.9098 7.91598 19.9098 7.9649ZM69.5165 6.79071C69.5363 6.83963 69.5561 6.93748 69.5759 6.93748C69.6354 6.9864 69.6948 6.93748 69.7542 6.83963C69.7344 6.79071 69.7146 6.69285 69.6948 6.69285C69.6156 6.595 69.5561 6.64393 69.5165 6.79071ZM66.9807 4.24659C67.0005 4.24659 67.0401 4.29551 67.06 4.29551C67.0798 4.29551 67.1194 4.24659 67.1392 4.19767C67.1194 4.14874 67.0996 4.09981 67.06 4.05088C67.0401 4.05088 67.0005 4.05089 66.9609 4.09981C66.9807 4.09981 67.0005 4.19766 66.9807 4.24659ZM18.3844 12.7107L18.424 12.6128L18.3646 12.6128L18.3844 12.7107ZM17.5325 9.38374L17.4929 9.53052L17.5523 9.53052L17.5325 9.38374ZM85.3653 4.29551L85.4049 4.19767L85.3455 4.19767L85.3653 4.29551Z" fill="#00659E"/>
<path d="M49.2296 1.85034C48.873 1.80142 48.5362 1.75249 48.2193 1.26324C48.1994 1.21431 48.1598 1.11646 48.1598 1.06753C48.1598 0.920757 48.1994 0.822911 48.2787 0.773986C48.457 0.676135 48.6155 0.529355 48.774 0.333654C48.9919 0.0401016 49.2098 -0.106674 49.4673 0.0890269C49.7447 0.284728 50.0221 0.186879 50.2994 0.235805C50.3985 0.235805 50.4975 0.284731 50.6164 0.382582C50.6956 0.431507 50.7353 0.578282 50.7551 0.725058C50.7749 0.920759 50.7551 1.06754 50.6758 1.11646C50.6164 1.16539 50.557 1.26324 50.4777 1.26324C50.2994 1.31216 50.1409 1.36109 49.9626 1.55679C49.7249 1.80141 49.4872 1.75249 49.2296 1.85034Z" fill="#00659E"/>
<path d="M106.068 99.9946C106.087 99.8479 106.107 99.6522 106.147 99.5543C106.266 99.2118 106.424 99.0651 106.622 99.114C106.781 99.1629 106.88 99.3586 106.939 99.7011C106.979 99.8479 106.959 100.044 106.9 100.19C106.741 100.582 106.543 100.777 106.325 100.68C106.226 100.631 106.127 100.484 106.068 100.288C106.068 100.239 106.068 100.092 106.068 99.9946Z" fill="#00659E"/>
<path d="M73.5975 94.0259C73.7164 94.1237 73.7956 94.2705 73.8352 94.5151C73.8947 94.7598 73.8748 95.0044 73.7758 95.1512C73.6569 95.3469 73.5182 95.3958 73.3994 95.2979C73.3598 95.2979 73.3399 95.249 73.3003 95.2001C73.2211 95.1022 73.1418 94.7108 73.1815 94.5641C73.2211 94.4173 73.2805 94.3194 73.3399 94.2705C73.439 94.1727 73.5182 94.0748 73.5975 94.0259Z" fill="#00659E"/>
<path d="M34.115 89.4758C34.0357 89.8672 33.9763 90.2586 33.897 90.6011C33.8574 90.7968 33.798 90.8457 33.7385 90.8457C33.6395 90.7968 33.5404 90.4543 33.5602 90.3075C33.5602 90.2097 33.5801 90.1607 33.5999 90.0629C33.6791 89.7693 33.798 89.5736 33.9367 89.5736C33.9961 89.5736 34.0753 89.5736 34.1348 89.5247L34.115 89.4758Z" fill="#00659E"/>
<path d="M8.93478 52.4882C8.99421 52.4393 9.07345 52.3414 9.13289 52.3414C9.1527 52.3414 9.19232 52.3904 9.21213 52.4393C9.25175 52.5861 9.25176 52.7328 9.19232 52.8307C9.07346 53.0264 8.93478 52.9775 8.7961 52.9775C8.71686 52.9775 8.65743 52.9285 8.59799 52.8307C8.61781 52.6839 8.67723 52.635 8.73667 52.5861C8.7961 52.5371 8.85553 52.4882 8.93478 52.4882Z" fill="#00659E"/>
<path d="M14.9175 79.495C14.858 79.495 14.7788 79.495 14.7194 79.4461C14.6401 79.4461 14.5807 79.3482 14.5807 79.2015C14.5807 79.0058 14.6401 78.9079 14.7194 78.859C14.7788 78.8101 14.8382 78.7122 14.9175 78.6633C14.9967 78.6144 15.1156 78.7122 15.175 78.9568C15.1948 79.0058 15.1948 79.1525 15.1948 79.2015C15.175 79.3482 15.1156 79.3972 15.0363 79.4461C14.9967 79.495 14.9571 79.495 14.9175 79.495Z" fill="#00659E"/>
<path d="M5.13963e-05 44.9048C0.0198624 44.8559 0.0198648 44.758 0.0396758 44.758C0.138731 44.6602 0.237786 44.6602 0.33684 44.758C0.356651 44.758 0.376465 44.9048 0.376465 44.9048C0.336843 45.0516 0.257594 45.1005 0.198161 45.1005C0.118917 45.1005 0.0594843 45.0516 5.13963e-05 44.9048Z" fill="#00659E"/>
<path d="M42.1371 90.8458C42.1173 90.6501 42.1966 90.4055 42.2956 90.3076C42.3154 90.3076 42.355 90.3076 42.3749 90.3566C42.4343 90.5033 42.4343 90.6501 42.3749 90.7969C42.3352 90.9437 42.2758 90.9926 42.1966 90.9926C42.1966 90.9926 42.1569 90.8947 42.1371 90.8458Z" fill="#00659E"/>
<path d="M61.6319 92.9983C61.6517 92.9493 61.6517 92.8515 61.6715 92.8026C61.7706 92.6558 61.8696 92.7047 61.9687 92.8026C61.9885 92.8515 62.0083 92.9493 62.0083 92.9493C61.9687 93.0961 61.8894 93.1451 61.83 93.1451C61.7508 93.1451 61.6913 93.0961 61.6319 92.9983Z" fill="#00659E"/>
<path d="M103.533 99.6032C103.612 99.6032 103.671 99.6032 103.711 99.75C103.751 99.8967 103.651 100.044 103.513 99.9946C103.434 99.9946 103.394 99.8967 103.354 99.75C103.414 99.6521 103.473 99.6032 103.533 99.6032Z" fill="#00659E"/>
<path d="M74.509 94.7108C74.4892 94.6619 74.4496 94.564 74.4496 94.564C74.4694 94.4172 74.5288 94.3683 74.608 94.4172C74.6279 94.4172 74.6675 94.564 74.6675 94.564C74.6279 94.7108 74.5684 94.7597 74.509 94.7108Z" fill="#00659E"/>
<path d="M69.4976 94.0748C69.4579 94.1237 69.4381 94.1727 69.3985 94.1727C69.2994 94.1237 69.2796 93.977 69.3787 93.8791C69.3985 93.8302 69.4579 93.8791 69.4777 93.928C69.4976 93.928 69.4976 94.0259 69.4976 94.0748Z" fill="#00659E"/>
<path d="M58.1253 93.2921C58.165 93.39 58.2046 93.4389 58.2046 93.4878C58.165 93.6346 58.1055 93.6835 58.0461 93.6346C58.0263 93.5857 57.9669 93.4878 57.9867 93.4878C58.0065 93.2921 58.0659 93.2432 58.1253 93.2921Z" fill="#00659E"/>
<path d="M54.0235 92.0689C54.0037 92.0689 53.9443 92.02 53.9443 91.971C53.9245 91.8243 53.9839 91.7264 54.0632 91.7753C54.083 91.7753 54.1028 91.8732 54.1028 91.9221C54.0632 91.971 54.0434 92.0689 54.0235 92.0689Z" fill="#00659E"/>
<path d="M40.5127 90.1608C40.5524 90.2097 40.592 90.2097 40.592 90.2586C40.6316 90.4054 40.592 90.5033 40.4929 90.4543C40.4731 90.4543 40.4533 90.3565 40.4137 90.3076C40.4533 90.2586 40.4929 90.2097 40.5127 90.1608Z" fill="#00659E"/>
<path d="M32.4902 90.3076C32.5298 90.1608 32.5893 90.063 32.6685 90.1608C32.6883 90.2098 32.7478 90.3076 32.7279 90.3565C32.6883 90.5522 32.6289 90.6012 32.5496 90.5033C32.5298 90.4544 32.51 90.3565 32.4902 90.3076Z" fill="#00659E"/>
<path d="M17.7112 90.4054C17.6914 90.4054 17.6517 90.5032 17.6319 90.4543C17.5329 90.4054 17.5329 90.3075 17.6121 90.2097C17.6319 90.1608 17.6716 90.2097 17.7112 90.2586C17.7112 90.2586 17.7112 90.3075 17.7112 90.4054Z" fill="#00659E"/>
<path d="M41.9 89.0845C41.9198 89.1334 41.9595 89.2312 41.9595 89.2802C41.9397 89.4759 41.8604 89.5248 41.801 89.4269C41.7812 89.378 41.7217 89.2802 41.7416 89.2312C41.7416 89.0845 41.8208 88.9866 41.9 89.0845Z" fill="#00659E"/>
<path d="M16.4627 87.1274C16.5024 86.9806 16.5618 86.9317 16.6212 86.9806C16.641 87.0295 16.6807 87.1274 16.6807 87.1274C16.641 87.2742 16.5816 87.3231 16.5222 87.2742C16.4826 87.2742 16.4826 87.2252 16.4627 87.1274Z" fill="#00659E"/>
<path d="M108.782 82.137C108.842 82.2349 108.901 82.3327 108.941 82.4306C108.981 82.5774 108.981 82.7241 108.921 82.822C108.901 82.822 108.862 82.822 108.862 82.7731C108.822 82.7241 108.822 82.6752 108.802 82.5774C108.802 82.4306 108.802 82.2349 108.802 82.0881L108.782 82.137Z" fill="#00659E"/>
<path d="M13.0355 76.6083C13.0751 76.4615 13.1345 76.4126 13.194 76.4615C13.2138 76.5105 13.2534 76.6083 13.2534 76.6083C13.2138 76.7551 13.1544 76.804 13.0949 76.7551C13.0751 76.7062 13.0553 76.6572 13.0355 76.6083Z" fill="#00659E"/>
<path d="M12.4416 70.8354C12.4416 70.7864 12.4416 70.6886 12.4416 70.6886C12.4614 70.6396 12.501 70.6396 12.5406 70.6396C12.5604 70.6396 12.6001 70.7375 12.6199 70.7864C12.6001 70.8354 12.5604 70.8843 12.5406 70.8843C12.501 70.9332 12.4614 70.8843 12.4416 70.8354Z" fill="#00659E"/>
<path d="M0.851652 44.8559C0.891274 44.7091 0.950717 44.6112 1.01015 44.7091C1.02996 44.758 1.06958 44.8559 1.06958 44.8559C1.02996 45.0516 0.970528 45.1005 0.911095 45.0026C0.891284 45.0026 0.871463 44.9048 0.851652 44.8559Z" fill="#00659E"/>
<path d="M5.3681 10.0699C5.3681 10.021 5.3681 9.92314 5.3681 9.92314C5.38791 9.87421 5.42753 9.87421 5.46715 9.87421C5.48696 9.87421 5.50676 9.97206 5.54639 10.021C5.52658 10.0699 5.48696 10.1188 5.46715 10.1188C5.42753 10.1188 5.40772 10.0699 5.3681 10.0699Z" fill="#00659E"/>
<path d="M71.9735 94.3194C72.0527 94.3683 72.0725 94.4172 72.0725 94.564C72.0527 94.564 72.0329 94.5151 72.0131 94.5151C71.9933 94.4662 71.9933 94.3683 71.9933 94.3194L71.9735 94.3194Z" fill="#00659E"/>
<path d="M67.2778 94.2704C67.258 94.4661 67.2382 94.515 67.1787 94.515C67.1986 94.4661 67.1986 94.4171 67.2184 94.3682C67.2382 94.3193 67.2778 94.3193 67.2976 94.3193L67.2778 94.2704Z" fill="#00659E"/>
<path d="M71.9924 94.2704C71.8934 94.2704 71.8736 94.1726 71.8736 94.0258C71.8934 94.0258 71.933 94.0747 71.933 94.0747C71.9528 94.1236 71.9528 94.2215 71.9726 94.3193L71.9924 94.2704Z" fill="#00659E"/>
<path d="M67.2981 94.3193C67.2981 94.1726 67.3179 94.0258 67.3773 93.9279C67.3773 93.9279 67.417 94.0258 67.4368 94.0747C67.3971 94.1726 67.3377 94.2704 67.2783 94.2704L67.2981 94.3193Z" fill="#00659E"/>
<path d="M60.2054 92.7049C60.2846 92.7538 60.3242 92.8027 60.3242 92.9006C60.3044 92.9006 60.2648 92.9006 60.2648 92.8516C60.245 92.8027 60.245 92.7049 60.2252 92.6559L60.2054 92.7049Z" fill="#00659E"/>
<path d="M1.80322 48.8188C1.80322 49.0145 1.7636 49.1123 1.70417 49.0634C1.70417 49.0145 1.72397 48.9655 1.72397 48.9166C1.74378 48.8677 1.78341 48.8677 1.80322 48.8677L1.80322 48.8188Z" fill="#00659E"/>
<path d="M1.82209 48.8678C1.8419 48.6721 1.86171 48.5742 1.92114 48.6232C1.92114 48.6721 1.90133 48.721 1.88152 48.7699C1.86171 48.8189 1.82209 48.8189 1.80228 48.8678L1.82209 48.8678Z" fill="#00659E"/>
<path d="M19.3546 10.8039C19.2754 10.755 19.2358 10.6571 19.1962 10.5104C19.1565 10.2657 19.1763 10.0211 19.2754 9.87434C19.2952 9.82541 19.3348 9.82542 19.3745 9.82542C19.4537 9.87434 19.4933 10.0211 19.4537 10.1679C19.4141 10.4125 19.3744 10.6082 19.315 10.8528L19.3546 10.8039Z" fill="#00659E"/>
<path d="M20.2273 9.72751C20.1282 9.77643 20.0292 9.77643 19.9499 9.67858C19.9301 9.62965 19.8905 9.5318 19.8905 9.5318C19.9103 9.3361 19.9698 9.28718 20.049 9.3361C20.1282 9.3361 20.1481 9.38503 20.2273 9.72751Z" fill="#00659E"/>
<path d="M18.2852 9.77631C18.2852 9.5806 18.3248 9.48276 18.3843 9.48276C18.3843 9.53168 18.3843 9.62953 18.3645 9.62953C18.3447 9.67845 18.305 9.67846 18.2852 9.77631Z" fill="#00659E"/>
<path d="M83.8333 19.0333H40.4333C37.5811 19.0369 35.2702 21.3477 35.2667 24.2V64.5H28.0333C27.4627 64.5 27 64.9627 27 65.5333V67.6C27.0035 70.4523 29.3144 72.7631 32.1667 72.7667H64.2247V77.9333C64.2247 78.3249 64.4457 78.6826 64.7959 78.8577C65.146 79.0328 65.5648 78.9949 65.8782 78.7598L69.3914 76.125L72.9046 78.7598C73.0832 78.8945 73.3012 78.9672 73.5247 78.9667C73.6852 78.9682 73.8436 78.9329 73.9879 78.8632C74.3396 78.6871 74.5606 78.3264 74.5581 77.9333V72.7667H75.5667C78.4189 72.7631 80.7298 70.4523 80.7333 67.6V27.3H87.9667C88.5373 27.3 89 26.8373 89 26.2667V24.2C88.9965 21.3477 86.6856 19.0369 83.8333 19.0333ZM64.2247 70.7H32.1667C30.4547 70.7 29.0667 69.312 29.0667 67.6V66.5667H64.2247V70.7ZM72.4914 75.8667L70.0115 74.0069C69.6442 73.7309 69.1391 73.7309 68.7713 74.0069L66.2914 75.8667V64.3254C66.4912 64.3411 66.692 64.3375 66.8908 64.3138C67.4872 65.0833 68.406 65.5333 69.3793 65.5333C70.3526 65.5333 71.2709 65.0833 71.8673 64.3138C72.0731 64.3385 72.281 64.3426 72.4874 64.3254L72.4914 75.8667ZM73.8204 59.3126C73.5449 59.4105 73.3234 59.6209 73.2119 59.8909C73.0999 60.1613 73.1075 60.4661 73.2336 60.7305C73.4289 61.1402 73.3461 61.6286 73.0262 61.9505C72.7058 62.2724 72.2179 62.3582 71.8072 62.1649C71.5433 62.0388 71.2381 62.0307 70.9676 62.1422C70.6967 62.2542 70.4868 62.4757 70.3884 62.7517C70.2375 63.1796 69.8329 63.4662 69.3793 63.4662C68.9252 63.4662 68.5205 63.1796 68.3697 62.7517C68.2718 62.4757 68.0614 62.2542 67.7909 62.1422C67.52 62.0307 67.2147 62.0388 66.9508 62.1649C66.5401 62.3582 66.0522 62.2724 65.7323 61.9505C65.4119 61.6286 65.3292 61.1402 65.525 60.7305C65.6506 60.4666 65.6587 60.1613 65.5467 59.8914C65.4352 59.6209 65.2142 59.411 64.9387 59.3126C64.5103 59.1603 64.2237 58.7546 64.2237 58.3C64.2237 57.8454 64.5103 57.4397 64.9387 57.2874C65.2142 57.189 65.4347 56.9791 65.5462 56.7091C65.6582 56.4392 65.6501 56.1344 65.525 55.8706C65.3282 55.4609 65.4109 54.9719 65.7313 54.6495C66.0512 54.3276 66.5396 54.2413 66.9508 54.4351C67.2147 54.5612 67.52 54.5693 67.7909 54.4578C68.0614 54.3458 68.2718 54.1243 68.3697 53.8483C68.5205 53.4204 68.9252 53.1338 69.3793 53.1338C69.8329 53.1338 70.2375 53.4204 70.3884 53.8483C70.4868 54.1243 70.6967 54.3458 70.9676 54.4578C71.2381 54.5693 71.5433 54.5612 71.8072 54.4351C72.2179 54.2418 72.7058 54.3276 73.0262 54.6495C73.3461 54.9714 73.4289 55.4598 73.2336 55.8695C73.1075 56.1339 73.0999 56.4387 73.2119 56.7091C73.3234 56.9791 73.5449 57.1895 73.8204 57.2874C74.2478 57.4407 74.5333 57.8459 74.5333 58.3C74.5333 58.7541 74.2478 59.1593 73.8204 59.3126ZM79.6203 21.2292C79.5617 21.3119 79.5098 21.3997 79.4563 21.4865C79.3458 21.6631 79.2469 21.8457 79.1586 22.0339C79.1122 22.1374 79.0688 22.2327 79.0284 22.3336C78.9517 22.5365 78.8872 22.7433 78.8362 22.9537C78.8125 23.0501 78.7822 23.1429 78.764 23.2408C78.7015 23.5572 78.6692 23.8781 78.6667 24.2V67.6C78.6667 69.312 77.2786 70.7 75.5667 70.7C75.2221 70.6934 74.8815 70.6294 74.5581 70.5098V63.3219C75.2009 62.6458 75.5041 61.7159 75.385 60.7905C76.153 60.1926 76.602 59.2733 76.602 58.3C76.602 57.3267 76.153 56.4074 75.385 55.8095C75.5071 54.8448 75.1766 53.8776 74.4899 53.1883C73.8032 52.4996 72.837 52.1666 71.8713 52.2862C71.2749 51.5167 70.3566 51.0667 69.3833 51.0667C68.41 51.0667 67.4912 51.5167 66.8948 52.2862C65.9296 52.1671 64.9634 52.5001 64.2767 53.1888C63.5905 53.8776 63.26 54.8448 63.3816 55.8095C62.6137 56.4074 62.1641 57.3267 62.1641 58.3C62.1641 59.2733 62.6137 60.1926 63.3816 60.7905C63.2595 61.729 63.5723 62.672 64.2308 63.3521V64.5H37.3333V24.2C37.3333 22.488 38.7214 21.1 40.4333 21.1H79.7C79.6712 21.1404 79.6495 21.1868 79.6203 21.2292ZM86.9333 25.2333H80.7333V24.2C80.7333 22.488 82.1214 21.1 83.8333 21.1C85.5453 21.1 86.9333 22.488 86.9333 24.2V25.2333Z" fill="white"/>
<path d="M61.1001 27.3H65.2334V29.3667H61.1001V27.3Z" fill="white"/>
<path d="M50.7666 27.3H59.0333V29.3667H50.7666V27.3Z" fill="white"/>
<path d="M47.667 32.4667H68.3337V34.5333H47.667V32.4667Z" fill="white"/>
<path d="M42.5 38.6667H47.6667V40.7334H42.5V38.6667Z" fill="white"/>
<path d="M42.5 43.8333H53.8667V45.8999H42.5V43.8333Z" fill="white"/>
<path d="M49.7332 38.6667H73.4998V40.7334H49.7332V38.6667Z" fill="white"/>
<path d="M55.9331 43.8333H73.4998V45.8999H55.9331V43.8333Z" fill="white"/>
<path d="M42.5 49H63.1667V51.0667H42.5V49Z" fill="white"/>
<path d="M42.5 54.1667H60.0667V56.2334H42.5V54.1667Z" fill="white"/>
</svg>
