<svg width="125" height="95" viewBox="0 0 125 95" fill="none" xmlns="http://www.w3.org/2000/svg">
<path d="M4.94056 68.8408C4.71134 68.8408 4.48212 68.803 4.27373 68.803C4.16954 68.803 4.04451 68.7652 3.94032 68.6897C3.64858 68.4631 3.35685 68.4253 3.06511 68.4253C2.79421 68.4253 2.54415 68.4253 2.27325 68.4253C2.12739 68.4253 1.96068 68.4253 1.83565 68.3498C1.52308 68.1609 1.18966 68.0854 0.85625 68.0099C0.793735 68.0099 0.710381 67.8966 0.668705 67.7833C0.60619 67.6322 0.522837 67.4434 0.501998 67.2545C0.35613 66.4236 0.189424 65.5928 0.0227173 64.7619C-0.0189593 64.573 0.00187899 64.3464 0.0435556 64.1576C0.168585 63.7421 0.210262 63.2889 0.272777 62.798C0.335292 62.2692 0.439483 61.7782 0.501998 61.2117C0.543675 60.9096 0.543675 60.683 0.439483 60.4564C0.397807 60.3431 0.35613 60.2298 0.314454 60.1165C0.189424 59.6633 0.189424 59.21 0.272777 58.7568C0.335292 58.4925 0.460322 58.3414 0.60619 58.2659C0.752058 58.1903 0.897926 58.1903 1.04379 58.1526C1.14799 58.1148 1.27302 58.077 1.37721 58.0393C1.46056 58.0015 1.50224 57.8882 1.4814 57.7371C1.4814 57.6993 1.43972 57.6238 1.41888 57.586C1.39805 57.5483 1.35637 57.4727 1.33553 57.4727C0.960441 57.3972 0.60619 57.1328 0.293615 56.7929C0.251939 56.7552 0.2311 56.7174 0.210262 56.6796C0.126909 56.5663 0.106071 56.3019 0.210262 56.1886C0.522837 55.8487 0.501998 55.4711 0.376969 54.9801C0.314454 54.7535 0.251939 54.4891 0.251939 54.2247C0.251939 53.8848 0.2311 53.5449 0.251939 53.205C0.293615 52.8651 0.376969 52.563 0.585352 52.4874C0.627028 52.4874 0.668705 52.4497 0.689543 52.4119C0.73122 52.3741 0.772896 52.2986 0.772896 52.2986C0.73122 52.1853 0.668705 52.1475 0.585352 52.1098C0.48116 52.072 0.35613 52.072 0.251939 52.0342C0.168585 51.9964 0.0643939 51.6943 0.0852322 51.5432C0.126909 51.2033 0.2311 50.9012 0.168585 50.5613C0.126909 50.2591 0.147747 50.1836 0.251939 50.0703C0.418645 49.9192 0.585352 49.7304 0.73122 49.5793C0.835411 49.466 0.85625 49.1639 0.772896 49.0506C0.710381 48.975 0.668705 48.8617 0.60619 48.7862C0.522837 48.6351 0.439483 48.5218 0.35613 48.3708C0.272777 48.2197 0.272777 47.9553 0.335292 47.8043C0.397807 47.7287 0.439483 47.6154 0.501998 47.5399C0.647867 47.351 0.793735 47.1244 0.897926 46.8223C1.00212 46.4824 1.16882 46.4069 1.37721 46.3691C1.52308 46.3313 1.66894 46.3313 1.81481 46.2558C1.89816 46.218 1.93984 46.1047 1.93984 45.9536C1.93984 45.8403 1.87733 45.6893 1.79397 45.6893C1.41888 45.6137 1.04379 45.6137 0.668705 45.5382C0.60619 45.5382 0.522837 45.4249 0.460322 45.3871C0.314454 45.2361 0.272777 44.9339 0.376969 44.7451C0.585352 44.3674 0.668705 43.9897 0.501998 43.461C0.439483 43.2721 0.460322 43.0833 0.564513 42.9322C0.585352 42.8945 0.627028 42.8189 0.647867 42.8189C0.793735 42.7434 0.939603 42.7056 1.08547 42.7434C1.64811 42.8189 2.21074 42.7056 2.77337 42.7056C2.81505 42.7056 2.85673 42.6679 2.87757 42.6679C2.91924 42.6301 2.94008 42.5923 2.96092 42.5546C2.91924 42.5168 2.8984 42.479 2.85673 42.4413C2.60667 42.328 2.33577 42.4413 2.06487 42.3657C1.96068 42.328 1.83565 42.3657 1.73146 42.2524C1.37721 41.9125 1.02296 41.9125 0.647867 41.8747C0.564513 41.8747 0.522837 41.7237 0.543675 41.6481C0.564513 41.6104 0.585352 41.5348 0.627028 41.5348C0.668705 41.4971 0.710381 41.4971 0.73122 41.4971C1.02296 41.4971 1.33553 41.4971 1.60643 41.2327C1.98152 41.1194 2.31493 40.7795 2.66918 40.5907C2.69002 40.5907 2.71086 40.4774 2.75254 40.4396C2.7317 40.4018 2.69002 40.364 2.66918 40.3263C2.56499 40.2507 2.4608 40.2507 2.33577 40.2507C1.96068 40.2507 1.58559 40.2507 1.2105 40.2507C1.02296 40.2507 0.85625 40.0619 0.710381 39.8353C0.627028 39.6842 0.627028 39.4576 0.689543 39.3066C0.73122 39.1933 0.793735 39.1555 0.877088 39.08C1.00212 38.9667 1.00212 38.7778 0.918765 38.589C0.772896 38.1735 0.501998 38.0225 0.293615 37.7581C0.2311 37.6448 0.210262 37.5315 0.2311 37.3804C0.2311 37.3049 0.251939 37.2671 0.272777 37.1916C0.314454 37.0783 0.335292 36.965 0.376969 36.8139C0.501998 36.3229 0.627028 36.2852 0.814573 36.3985C1.00212 36.5118 1.18966 36.5118 1.35637 36.3607C1.50224 36.2474 1.64811 36.1719 1.77314 36.0208C1.98152 35.7942 2.1899 35.7564 2.41912 35.7564C3.21098 35.7942 4.00283 35.7942 4.77385 35.7564C5.00307 35.7564 5.06559 35.5676 4.98223 35.2654C4.87804 34.85 4.91972 34.4723 5.00307 34.0946C5.04475 33.9058 5.00307 33.717 4.91972 33.5659C4.79469 33.3015 4.64882 33.1127 4.54463 32.8105C4.48211 32.6217 4.48211 32.3951 4.54463 32.244C4.62798 32.0174 4.75301 31.8664 4.8572 31.6775C5.06559 31.3376 5.14894 30.8844 5.16978 30.3934C5.16978 30.2046 5.16978 29.978 5.16978 29.7891C5.16978 29.4492 5.1281 29.1093 5.00307 28.8449C4.94056 28.6939 4.8572 28.505 4.79469 28.354C4.73217 28.1651 4.71134 27.9763 4.71134 27.7875C4.71134 27.372 4.75301 26.9943 4.8572 26.6167C4.91972 26.3901 5.00307 26.1635 5.06559 25.8991C5.10726 25.7102 5.10726 25.5214 5.06559 25.2948C5.02391 25.1815 5.00307 25.0682 4.9614 24.9171C4.94056 24.8038 4.89888 24.6528 4.89888 24.5395C4.91972 24.0862 4.87804 23.5953 5.02391 23.1421C5.10726 22.8399 5.14894 22.5 5.1281 22.1601C5.08643 21.4803 5.1281 20.8005 5.21146 20.1207C5.25313 19.8563 5.25313 19.5919 5.21146 19.3275C5.14894 18.8743 5.06559 18.4211 4.9614 17.9679C4.94056 17.8546 4.94056 17.7035 4.98223 17.5902C5.08643 17.137 5.14894 16.6838 5.14894 16.1928C5.14894 15.8529 5.23229 15.5508 5.33649 15.2486C5.44068 14.9843 5.50319 14.6444 5.52403 14.3045C5.54487 13.7002 5.58655 13.0959 5.58655 12.4916C5.58655 12.0006 5.62822 11.5474 5.75325 11.132C5.77409 11.0564 5.77409 11.0187 5.79493 10.9431C5.83661 10.4899 5.81577 9.99895 5.9408 9.54574C5.91996 9.39467 5.91996 9.28137 5.89912 9.1303C5.89912 8.97923 5.85744 8.82816 5.89912 8.71486C6.02415 8.18611 6.04499 7.65737 6.02415 7.12862C6.00331 6.71318 6.04499 6.29774 6.14918 5.95783C6.21169 5.76899 6.23253 5.58015 6.23253 5.39131C6.25337 5.05141 6.25337 4.7115 6.29505 4.37159C6.31589 4.10722 6.42008 3.88061 6.54511 3.72954C6.81601 3.38964 7.06606 3.0875 7.37864 3.0875C7.50367 3.0875 7.58702 3.01196 7.69121 2.89866C7.83708 2.78536 7.98295 2.74759 8.12882 2.70982C8.39972 2.67205 8.64978 2.67205 8.92067 2.63429C9.06654 2.59652 9.23325 2.63429 9.35828 2.52098C9.77504 2.33214 10.171 2.29438 10.5877 2.29438C11.6713 2.29438 12.7549 2.25661 13.8594 2.25661C14.8388 2.25661 15.8182 2.25661 16.7767 2.25661C17.0893 2.25661 17.381 2.21884 17.6519 2.03C17.7978 1.95447 17.9645 1.95447 18.1104 2.03C18.1729 2.06777 18.2562 2.10554 18.3188 2.14331C18.5063 2.21884 18.6938 2.21884 18.8814 2.10554C19.0273 2.03 19.1731 1.95447 19.319 1.95447C20.2567 1.95447 21.1944 1.84117 22.1322 1.87893C22.799 1.9167 23.4867 1.84117 24.1535 1.84117C24.3827 1.84117 24.5911 1.76563 24.8203 1.65233C24.9245 1.57679 25.0495 1.53903 25.1537 1.53903C25.8622 1.50126 26.5707 1.46349 27.2792 1.42572C27.4251 1.42572 27.571 1.35019 27.7168 1.27465C27.821 1.19912 27.9252 1.19912 28.0502 1.23689C28.2378 1.35019 28.4253 1.38796 28.592 1.23689C28.8421 1.04805 29.113 1.04805 29.3631 1.01028C29.6548 0.972514 29.9674 1.01028 30.2591 1.01028C30.5508 1.01028 30.8634 0.934746 31.1551 0.783676C31.4469 0.632606 31.7595 0.632606 32.0512 0.783676C32.4054 0.972514 32.7805 1.01028 33.1348 1.27465C33.239 1.35019 33.364 1.31242 33.4682 1.23689C33.6349 1.08582 33.8224 1.01028 34.01 1.01028C34.2809 0.972514 34.531 0.972514 34.781 0.783676C34.8852 0.708141 34.9894 0.708141 35.1144 0.670374C35.2811 0.632606 37.5317 0.670374 37.6984 0.708141C37.8026 0.745909 37.9276 0.783676 38.0318 0.859211C38.1151 0.896979 38.1777 0.896979 38.261 0.859211C38.3235 0.821444 38.4069 0.783676 38.4694 0.745909C38.6986 0.670374 38.907 0.670374 39.1362 0.821444C39.2196 0.859211 39.2821 0.859211 39.3446 0.821444C39.7405 0.557071 40.1573 0.594839 40.5532 0.896979C40.6574 0.972514 40.7616 0.972514 40.8866 0.896979C40.9908 0.859211 41.095 0.821444 41.22 0.896979C41.4076 1.01028 41.5951 1.01028 41.7827 0.896979C42.1161 0.708141 42.4495 0.632606 42.7829 0.632606C43.2622 0.632606 43.7623 0.594839 44.2416 0.594839C44.4708 0.594839 44.6792 0.481536 44.9084 0.330466C45.0543 0.217163 45.2002 0.217163 45.346 0.330466C45.4085 0.368233 45.4919 0.406001 45.5544 0.443768C45.6586 0.481536 45.7836 0.519304 45.8878 0.406001C46.1796 0.141628 46.4713 0.141628 46.763 0.254931C46.9923 0.330466 47.2006 0.481536 47.4299 0.330466C47.4924 0.292698 47.5757 0.330466 47.6382 0.368233C47.8258 0.481536 47.9925 0.443768 48.18 0.406001C48.6176 0.254931 49.0553 0.141628 49.5137 0.217163C49.6596 0.254931 49.8054 0.292698 49.9721 0.254931C50.6806 0.103861 51.3891 0.217163 52.0976 0.179396C52.5769 0.292698 53.077 0.254931 53.5563 0.217163C53.8272 0.179396 54.0773 0.254931 54.3273 0.481536C54.3899 0.519304 54.4732 0.557071 54.5357 0.481536C54.7858 0.292698 55.0359 0.217163 55.3067 0.217163C55.7235 0.217163 56.1403 0.179396 56.5362 0.179396C57.0155 0.141628 57.5156 0.217163 57.9949 0.330466C58.0991 0.368233 58.2033 0.443768 58.3283 0.481536C58.4325 0.557071 58.5575 0.557071 58.6617 0.481536C58.8701 0.368233 59.0993 0.292698 59.3285 0.254931C59.8912 0.179396 60.4538 0.292698 61.0164 0.292698C61.1206 0.292698 61.2457 0.330466 61.3499 0.406001C61.6416 0.594839 61.9125 0.670374 62.2251 0.406001C62.4751 0.217163 62.746 0.217163 62.9961 0.368233C63.0586 0.406001 63.1419 0.481536 63.2045 0.519304C63.267 0.557071 63.3503 0.594839 63.4337 0.594839C63.5379 0.594839 63.6629 0.632606 63.7671 0.557071C64.0172 0.368233 64.2672 0.292698 64.5381 0.292698C64.809 0.330466 65.0591 0.254931 65.33 0.217163C65.9343 0.179396 66.5386 0.141628 67.1221 0.254931C67.2679 0.292698 67.4138 0.330466 67.5597 0.406001C67.643 0.443768 67.7055 0.443768 67.7681 0.368233C68.0598 0.141628 68.3515 0.217163 68.6433 0.0283256C68.7266 -0.00944188 68.7891 -0.00944188 68.8725 0.0283256C69.3518 0.217163 69.831 0.254931 70.3312 0.179396C70.998 0.0660932 71.6857 0.179396 72.3525 0.179396C72.54 0.179396 72.7276 0.254931 72.8943 0.368233C72.9985 0.443768 73.1027 0.406001 73.2277 0.368233C73.3319 0.330466 73.4569 0.254931 73.5611 0.254931C74.1237 0.292698 74.6864 0.217163 75.249 0.217163C75.3949 0.217163 75.5616 0.179396 75.7075 0.217163C75.9992 0.292698 76.3118 0.217163 76.6035 0.254931C76.6869 0.254931 76.7494 0.330466 76.8119 0.368233C76.8744 0.406001 76.9577 0.406001 77.0203 0.330466C77.187 0.179396 77.3745 0.103861 77.5621 0.141628C79.1666 0.217163 80.792 0.141628 82.3965 0.254931C82.73 0.292698 83.0634 0.254931 83.4176 0.254931C83.6052 0.254931 83.7927 0.292698 83.9803 0.406001C84.0844 0.481536 84.2095 0.406001 84.3137 0.368233C84.397 0.368233 84.4595 0.330466 84.5429 0.368233C84.8346 0.557071 85.1264 0.557071 85.4389 0.557071C86.1891 0.557071 86.9393 0.557071 87.6895 0.594839C87.9395 0.594839 88.2104 0.594839 88.4605 0.821444C88.523 0.896979 88.6064 0.934746 88.6689 0.859211C88.9189 0.670374 89.169 0.632606 89.4399 0.670374C89.7108 0.708141 89.9609 0.670374 90.2318 0.670374C90.4193 0.670374 90.6068 0.708141 90.7736 0.821444C90.8361 0.859211 90.9194 0.896979 90.9819 0.934746C91.2112 1.01028 91.4404 1.01028 91.6488 0.821444C91.7946 0.708141 91.9405 0.670374 92.0864 0.783676C92.2322 0.896979 92.3573 0.972514 92.524 0.972514C92.9407 0.972514 93.3575 0.972514 93.7534 1.01028C94.0243 1.01028 94.2744 1.01028 94.5244 1.19912C94.6495 1.27465 94.7328 1.12358 94.7953 0.972514C94.837 0.859211 94.9204 0.821444 94.9829 0.859211C95.1704 0.972514 95.358 1.01028 95.5455 1.01028C96.2957 1.01028 97.0459 1.04805 97.7961 1.04805C98.0878 1.04805 98.4004 1.08582 98.6921 1.27465C98.9422 1.42572 99.2131 1.35019 99.4631 1.42572C99.6507 1.46349 99.8382 1.50126 100.026 1.53903C100.338 1.87893 100.672 1.84117 101.005 1.84117C101.318 1.84117 101.609 1.87893 101.88 2.14331C101.943 2.21884 102.026 2.21884 102.089 2.21884C102.172 2.21884 102.235 2.21884 102.318 2.21884C103.152 2.14331 103.964 2.25661 104.798 2.29438C105.069 2.29438 105.319 2.44545 105.527 2.74759C105.652 2.93643 105.798 2.89866 105.944 2.78536C106.09 2.67205 106.236 2.70982 106.381 2.82312C106.59 3.01196 106.798 3.0875 107.027 3.0875C107.215 3.0875 107.403 3.0875 107.59 3.0875C107.736 3.0875 107.882 3.16303 108.028 3.23857C108.132 3.3141 108.257 3.23857 108.361 3.23857C108.444 3.23857 108.507 3.2008 108.59 3.23857C108.882 3.4274 109.174 3.4274 109.486 3.4274C110.237 3.46517 110.987 3.46517 111.737 3.50294C111.799 3.50294 111.883 3.57847 111.945 3.61624C112.029 3.65401 112.07 3.76731 112.049 3.95615C112.029 4.06945 111.987 4.22052 111.904 4.22052C111.612 4.29606 111.32 4.37159 111.028 4.56043C110.966 4.5982 110.882 4.56043 110.799 4.52266C110.591 4.37159 110.362 4.29606 110.132 4.44713C109.924 4.5982 109.695 4.67373 109.466 4.7115C109.382 4.74927 109.32 4.78703 109.32 4.90034C109.32 4.90034 109.382 4.97587 109.424 4.97587C109.986 5.01364 110.549 5.05141 111.112 5.05141C111.487 5.05141 111.862 5.08917 112.237 5.08917C112.529 5.08917 112.841 5.12694 113.112 5.35355C113.175 5.39131 113.258 5.39131 113.341 5.35355C113.821 5.01364 114.3 5.12694 114.779 5.20248C114.842 5.20248 114.925 5.27801 114.988 5.31578C115.134 5.42908 115.279 5.46685 115.425 5.46685C115.654 5.50462 115.884 5.50462 116.092 5.54239C116.134 5.54239 116.175 5.58015 116.196 5.61792C116.217 5.73122 116.155 5.80676 116.092 5.88229C115.78 6.2222 115.467 6.29774 115.113 6.14667C114.967 6.07113 114.821 6.07113 114.675 6.14667C114.342 6.3355 114.008 6.29774 113.675 6.1089C113.591 6.07113 113.529 6.03336 113.466 6.07113C113.071 6.3355 112.654 6.18443 112.237 6.18443C112.133 6.18443 112.008 6.14667 111.904 6.07113C111.716 5.95783 111.549 5.99559 111.362 6.07113C110.778 6.37327 110.174 6.41104 109.591 6.03336C109.32 5.84453 109.09 6.03336 108.882 6.3355C108.861 6.37327 108.861 6.48657 108.882 6.48657C108.945 6.52434 109.028 6.56211 109.09 6.59987C109.32 6.63764 109.549 6.67541 109.757 6.63764C110.403 6.52434 111.028 6.63764 111.674 6.67541C111.779 6.67541 111.904 6.71318 112.008 6.78871C112.154 6.90202 112.3 6.86425 112.445 6.78871C112.55 6.75095 112.675 6.78871 112.779 6.86425C112.925 6.97755 113.071 6.97755 113.216 6.86425C113.508 6.67541 113.8 6.67541 114.092 6.86425C114.404 7.09085 114.738 7.12862 115.092 7.09085C115.363 7.05309 115.613 7.16639 115.842 7.39299C116.03 7.58183 116.196 7.5063 116.384 7.31746C116.425 7.27969 116.446 7.24192 116.488 7.24192C116.571 7.16639 116.696 7.20416 116.78 7.43076C116.905 7.7329 117.051 7.8462 117.259 7.8462C117.342 7.8462 117.405 7.8462 117.488 7.88397C117.572 7.92174 117.613 8.03504 117.613 8.14834C117.613 8.18611 117.572 8.26165 117.53 8.26165C117.301 8.29941 117.092 8.33718 116.863 8.41272C116.78 8.45048 116.738 8.52602 116.696 8.63932C116.634 8.79039 116.738 9.017 116.863 9.09253C116.905 9.09253 116.946 9.1303 116.967 9.1303C117.071 9.09253 117.176 9.017 117.28 8.94146C117.426 8.82816 117.572 8.79039 117.717 8.94146C117.78 9.017 117.842 9.05476 117.926 9.1303C117.988 9.20584 118.051 9.28137 118.051 9.43244C118.051 9.47021 117.988 9.50798 117.947 9.50798C117.842 9.54574 117.717 9.54574 117.613 9.54574C116.78 9.50798 115.967 9.58351 115.134 9.62128C114.967 9.62128 114.842 9.73458 114.738 9.92342C114.508 10.3389 114.217 10.4144 113.904 10.4144C113.154 10.4144 112.404 10.4144 111.654 10.4522C111.549 10.4522 111.445 10.5655 111.362 10.7543C111.341 10.7921 111.32 10.8676 111.341 10.9431C111.341 10.9809 111.383 11.0564 111.403 11.0564C111.466 11.0942 111.549 11.132 111.612 11.1697C112.049 11.283 112.508 11.2453 112.966 11.2453C113.529 11.2453 114.092 11.2453 114.654 11.2453C114.883 11.2453 115.092 11.283 115.321 11.3964C115.467 11.4719 115.613 11.4719 115.759 11.5097C116.217 11.5474 116.655 11.5097 117.092 11.283C117.238 11.2075 117.384 11.2453 117.53 11.3208C117.613 11.3586 117.655 11.4719 117.655 11.623C117.655 11.6985 117.634 11.7363 117.634 11.8118C117.613 11.8873 117.592 11.9251 117.572 11.9629C117.384 12.1517 117.197 12.3783 116.967 12.4538C116.863 12.4916 116.738 12.5671 116.655 12.6427C116.446 12.8693 116.238 12.9071 116.009 12.9071C115.905 12.9071 115.863 12.9826 115.905 13.0959C115.925 13.1337 115.946 13.2092 115.988 13.2092C116.196 13.398 116.384 13.5869 116.634 13.5491C116.821 13.5491 117.009 13.5869 117.197 13.6246C117.259 13.6246 117.363 13.6624 117.405 13.7379C117.447 13.8135 117.426 14.0023 117.426 14.1156C117.426 14.2667 117.467 14.3422 117.551 14.38C117.655 14.4178 117.78 14.4555 117.884 14.5311C117.947 14.5688 118.009 14.6444 118.072 14.7577C118.176 14.9087 118.218 15.1353 118.176 15.2864C118.051 15.7774 117.926 16.2684 117.801 16.7593C117.738 17.0237 117.634 17.1748 117.488 17.3259C117.384 17.4014 117.301 17.5147 117.217 17.6658C117.176 17.7413 117.155 17.8924 117.134 18.0057C117.113 18.119 117.259 18.4211 117.342 18.4211C117.384 18.4211 117.426 18.4589 117.447 18.4589C117.634 18.4589 117.822 18.4966 118.009 18.4966C118.197 18.4966 118.384 18.5344 118.572 18.5344C118.676 18.5344 118.718 18.61 118.697 18.7233C118.697 18.7988 118.655 18.8366 118.634 18.8743C118.405 19.1009 118.155 19.2898 117.884 19.2898C117.801 19.2898 117.738 19.2898 117.655 19.3275C117.426 19.3653 117.342 19.5541 117.322 19.9696C117.322 20.1207 117.426 20.385 117.509 20.385C117.884 20.4606 118.259 20.4983 118.634 20.5739C118.739 20.6116 118.843 20.7249 118.926 20.8382C119.009 20.9515 119.03 21.2537 118.947 21.367C118.759 21.5936 118.572 21.8202 118.384 22.009C118.28 22.1223 118.176 22.1979 118.072 22.1979C117.738 22.2356 117.405 22.2356 117.071 22.4245C116.801 22.4622 116.551 22.4622 116.28 22.5C115.863 22.5378 115.446 22.5755 115.05 22.6133C115.008 22.6133 114.988 22.6511 114.946 22.6888C114.967 22.7266 114.967 22.8021 114.988 22.8021C115.196 22.9532 115.404 23.0665 115.55 23.4442C115.675 23.7463 115.884 23.7463 116.071 23.7841C116.155 23.7841 116.217 23.8596 116.259 23.9729C116.259 23.9729 116.217 24.0862 116.175 24.0862C115.988 24.1618 115.8 24.2373 115.634 24.3884C115.467 24.5772 115.259 24.5017 115.092 24.5772C115.05 24.5772 115.008 24.615 114.988 24.6528C114.946 24.7283 114.967 24.8416 115.029 24.9549C115.154 25.106 115.279 25.257 115.384 25.4459C115.529 25.6725 115.717 25.7858 115.905 25.7858C116.175 25.7858 116.425 25.8235 116.696 25.8235C116.801 25.8235 116.926 25.8235 117.03 25.8991C117.467 26.1635 117.926 26.1257 118.363 26.239C118.447 26.2768 118.509 26.3523 118.488 26.4656C118.488 26.5411 118.468 26.5789 118.447 26.6544C118.384 26.8433 118.28 26.9566 118.176 26.9943C117.988 27.0321 117.801 27.0699 117.613 27.1076C117.467 27.1454 117.301 27.1076 117.176 27.1832C116.842 27.4098 116.509 27.372 116.175 27.4098C115.884 27.4476 115.571 27.4476 115.279 27.4853C115.238 27.4853 115.217 27.5609 115.196 27.5986C115.217 27.6364 115.217 27.7119 115.259 27.7119C115.321 27.7497 115.404 27.7875 115.467 27.8252C115.842 27.9008 116.217 27.863 116.592 27.863C116.821 27.863 117.051 27.863 117.259 27.9008C117.301 27.9008 117.342 27.9385 117.342 28.0141C117.363 28.0896 117.322 28.2029 117.238 28.2029C117.051 28.2407 116.863 28.2407 116.676 28.2407C116.53 28.2407 116.384 28.2784 116.238 28.3917C116.071 28.5428 115.884 28.5806 115.696 28.6183C115.363 28.6561 115.029 28.6561 114.675 28.6939C114.571 28.6939 114.446 28.6939 114.342 28.7316C114.133 28.8072 113.925 29.0338 113.696 29.0338C113.466 29.0338 113.237 29.0338 113.029 29.1471C112.987 29.1471 112.966 29.2226 112.945 29.2604C112.966 29.2982 113.008 29.3359 113.05 29.3737C113.196 29.4492 113.341 29.4492 113.487 29.4492C113.925 29.4492 114.383 29.4115 114.821 29.5625C114.863 29.5625 114.883 29.6381 114.904 29.6758C114.883 29.7136 114.842 29.7891 114.821 29.7891C114.717 29.8269 114.592 29.8647 114.488 29.8647C114.071 29.9024 113.675 29.8647 113.258 29.978C113.237 29.978 113.196 30.0535 113.175 30.0913C113.196 30.129 113.216 30.2046 113.258 30.2424C113.466 30.3557 113.696 30.3179 113.904 30.5067C113.967 30.5823 114.05 30.5823 114.112 30.5067C114.279 30.3934 114.467 30.3179 114.654 30.3179C114.883 30.3179 115.113 30.2801 115.321 30.2801C115.55 30.2801 115.759 30.3557 115.967 30.5823C116.03 30.6578 116.092 30.6956 116.175 30.7333C116.363 30.8089 116.53 30.8844 116.696 31.0732C117.071 31.4131 117.467 31.602 117.884 31.6397C117.988 31.6397 118.03 31.7531 117.988 31.8286C117.968 31.8664 117.926 31.9041 117.884 31.9041C117.28 31.9419 116.676 32.0174 116.092 32.0552C115.821 32.0552 115.571 32.093 115.321 32.244C115.217 32.3196 115.092 32.3196 114.988 32.2818C114.8 32.2063 114.633 32.2063 114.446 32.2818C114.258 32.3573 114.071 32.3573 113.883 32.3951C113.55 32.4329 113.216 32.4329 112.862 32.4706C112.716 32.4706 112.55 32.4706 112.425 32.5839C112.07 32.8483 111.695 32.8483 111.32 32.9238C111.091 32.9616 110.883 33.1127 110.716 33.3393C110.695 33.3771 110.695 33.4526 110.695 33.4904C110.716 33.5281 110.757 33.5659 110.799 33.5659C111.362 33.5659 111.924 33.5659 112.487 33.5659C112.633 33.5659 112.8 33.5659 112.925 33.4904C113.175 33.3393 113.446 33.3393 113.696 33.3015C114.175 33.2638 114.675 33.2638 115.154 33.226C115.529 33.226 115.905 33.226 116.259 33.4526C116.405 33.5659 116.551 33.5281 116.696 33.5281C116.967 33.5281 117.217 33.5281 117.467 33.6792C117.551 33.717 117.592 33.8303 117.613 33.9813C117.634 34.1324 117.613 34.2457 117.509 34.2835C117.447 34.3212 117.363 34.359 117.301 34.3968C117.071 34.4345 116.863 34.4723 116.634 34.5101C116.405 34.5101 116.196 34.6612 115.967 34.7367C115.905 34.7745 115.821 34.7367 115.738 34.7367C115.634 34.6989 115.529 34.6612 115.404 34.7367C115.113 34.9255 114.821 34.9255 114.508 34.9255C114.237 34.9255 113.987 34.9255 113.717 34.9255C113.654 34.9255 113.571 35.0011 113.508 35.0388C113.446 35.0766 113.383 35.1899 113.321 35.2654C113.133 35.5298 112.925 35.6431 112.695 35.6431C112.091 35.6809 111.487 35.7186 110.903 35.7564C110.799 35.7564 110.674 35.7942 110.57 35.8697C110.32 36.0586 110.07 36.1341 109.799 36.1341C109.57 36.1341 109.34 36.1341 109.132 36.1719C109.028 36.1719 108.903 36.2096 108.799 36.2852C108.549 36.4362 108.299 36.5495 108.048 36.7006C107.84 36.8517 107.611 36.8894 107.382 36.8894C107.194 36.8894 107.007 37.0027 106.84 37.1538C106.736 37.2293 106.631 37.3049 106.527 37.3049C106.111 37.3426 105.694 37.3804 105.319 37.6448C105.089 37.6826 104.881 37.7581 104.652 37.7959C104.589 37.8336 104.506 37.8714 104.443 37.9469C104.381 38.0225 104.318 38.1358 104.318 38.2491C104.318 38.3624 104.36 38.4757 104.443 38.4757C104.548 38.5134 104.673 38.5134 104.777 38.5512C104.86 38.5512 104.923 38.6267 104.923 38.74C104.923 38.7778 104.86 38.8156 104.839 38.8533C104.735 38.8911 104.61 38.8911 104.506 38.9289C104.423 38.9289 104.339 39.0044 104.318 39.1177C104.298 39.231 104.36 39.3821 104.423 39.4576C104.485 39.5332 104.548 39.6087 104.61 39.6465C104.714 39.6842 104.839 39.722 104.944 39.722C105.402 39.7598 105.84 39.7975 106.298 39.7975C106.527 39.7975 106.736 39.8731 106.965 39.9864C107.111 40.0619 107.257 40.0619 107.403 40.0619C108.236 40.0997 109.049 40.0997 109.882 40.0997C110.07 40.0997 110.257 40.0997 110.445 40.1374C110.549 40.1374 110.653 40.2507 110.757 40.364C110.82 40.4396 110.883 40.5151 110.945 40.5529L110.924 40.5151C110.883 40.8173 110.737 40.8928 110.632 41.0816C110.528 41.2327 110.528 41.4593 110.612 41.6104C110.653 41.6859 110.716 41.7992 110.778 41.8747C110.799 41.9125 110.799 42.0258 110.799 42.0258C110.612 42.2524 110.382 42.2524 110.174 42.4035C110.007 42.5168 109.799 42.5168 109.632 42.5923C109.591 42.5923 109.57 42.6679 109.549 42.7056C109.528 42.7812 109.57 42.8567 109.674 42.8945C109.757 42.9322 109.82 42.9322 109.903 42.9322C109.945 42.9322 109.986 42.9322 110.007 42.9322C110.424 42.9322 110.82 43.1966 111.216 43.3854C111.258 43.3854 111.278 43.461 111.299 43.5365C111.299 43.5743 111.278 43.6498 111.237 43.6876C111.028 43.8764 110.82 43.952 110.591 44.0653C110.445 44.1408 110.299 44.1408 110.153 44.1408C109.111 44.1786 108.048 44.2163 107.007 44.2919C106.923 44.2919 106.861 44.3674 106.861 44.4429C106.861 44.4807 106.923 44.5562 106.944 44.5562C107.048 44.594 107.173 44.594 107.277 44.594C107.611 44.594 107.944 44.6318 108.299 44.6318C108.549 44.6318 108.736 44.8206 108.903 45.1228C108.924 45.1605 108.965 45.1983 108.986 45.2738C109.028 45.3871 109.07 45.5004 109.09 45.6137C109.111 45.6893 108.945 46.0292 108.882 46.0292C108.778 46.0669 108.674 46.1425 108.549 46.1425C107.715 46.1802 106.902 46.218 106.069 46.218C104.798 46.218 103.527 46.218 102.235 46.218C101.86 46.218 101.484 46.2558 101.109 46.2936C101.068 46.2936 101.026 46.3313 101.005 46.4069C100.984 46.4824 101.026 46.5579 101.13 46.5579C101.464 46.5957 101.797 46.709 102.13 46.6712C102.276 46.6712 102.422 46.709 102.568 46.8223C102.735 46.9734 102.922 47.0111 103.11 47.0111C103.631 47.0111 104.152 47.0489 104.694 47.0489C105.027 47.0867 105.36 47.0489 105.694 47.3133C105.798 47.3888 105.923 47.3133 106.027 47.2377C106.173 47.1244 106.319 47.1244 106.465 47.2377C106.611 47.351 106.757 47.3888 106.902 47.3888C107.361 47.4266 107.798 47.4643 108.257 47.5021C108.299 47.5021 108.34 47.5776 108.34 47.6154C108.34 47.6909 108.299 47.8043 108.215 47.8043C107.694 47.842 107.173 47.842 106.631 47.842C105.465 47.842 104.298 47.8043 103.152 47.8043C102.776 47.8043 102.401 47.842 102.026 47.8798C101.943 47.8798 101.88 47.9931 101.901 48.1064C101.901 48.1819 101.922 48.2197 101.943 48.2952C102.047 48.5218 102.172 48.6351 102.339 48.5974C102.443 48.5596 102.568 48.5218 102.672 48.4463C102.818 48.333 102.964 48.333 103.11 48.4463C103.297 48.5974 103.464 48.5596 103.652 48.4085C103.797 48.2952 103.964 48.2575 104.089 48.3708C104.443 48.6729 104.819 48.6729 105.194 48.7862C105.298 48.824 105.402 48.9373 105.465 49.1261C105.527 49.2772 105.506 49.3905 105.402 49.4283C105.298 49.5038 105.194 49.5038 105.069 49.5038C104.61 49.5038 104.173 49.5038 103.714 49.5038C103.61 49.5038 103.485 49.5416 103.381 49.5416C103.339 49.5416 103.318 49.6171 103.277 49.6549C103.297 49.6926 103.318 49.7304 103.339 49.7682C103.485 49.8815 103.631 49.8815 103.777 49.8815C104.298 49.8815 104.819 49.8059 105.36 49.9192C105.444 49.9192 105.485 50.0325 105.506 50.1836C105.506 50.2969 105.506 50.4857 105.548 50.5613C105.59 50.6368 105.694 50.6746 105.756 50.6746C106.131 50.7124 106.506 50.7123 106.882 50.7501C107.027 50.7501 107.173 50.7879 107.319 50.9012C107.486 51.0523 107.673 51.09 107.861 51.09C108.278 51.09 108.694 51.1278 109.09 51.1278C109.195 51.1278 109.32 51.1278 109.424 51.2033C109.924 51.6188 110.466 51.4299 110.966 51.581C111.07 51.6188 111.112 51.6943 111.07 51.8454C111.049 51.9209 111.049 51.9587 111.008 52.0342C110.882 52.2986 110.674 52.3364 110.507 52.4497C110.403 52.4874 110.382 52.6007 110.424 52.7518C110.487 52.9784 110.403 53.1295 110.32 53.2428C110.299 53.2805 110.257 53.3183 110.257 53.3938C110.237 53.5071 110.299 53.5827 110.382 53.5827C110.487 53.6204 110.612 53.6204 110.716 53.6582C110.757 53.6582 110.778 53.696 110.799 53.7715C110.841 53.8471 110.799 53.9604 110.695 53.9604C110.216 54.0737 109.716 53.9981 109.236 54.0359C109.049 54.0359 108.861 54.0737 108.694 54.2625C108.59 54.3758 108.465 54.3758 108.361 54.3003C108.174 54.187 108.007 54.1114 107.819 54.1114C107.715 54.1114 107.59 54.1114 107.486 54.1114C105.798 54.1492 104.11 54.1492 102.422 54.0737C102.235 54.0737 102.047 54.1114 101.86 54.1114C101.776 54.1114 101.714 54.187 101.693 54.2625C101.734 54.3003 101.755 54.338 101.797 54.338C101.901 54.3758 102.026 54.3758 102.13 54.3758C103.172 54.3758 104.235 54.3758 105.277 54.4136C105.465 54.4136 105.652 54.4136 105.84 54.4136C105.944 54.4136 106.069 54.4513 106.173 54.5269C106.34 54.6779 106.527 54.7157 106.715 54.7535C107.173 54.7535 107.611 54.7912 108.069 54.7912C108.361 54.7912 108.674 54.829 108.965 54.829C109.07 54.829 109.195 54.8668 109.299 54.9423C109.507 55.0934 109.716 55.2067 109.945 55.2067C110.237 55.2445 110.549 55.2445 110.841 55.4333C110.987 55.5088 111.133 55.5088 111.278 55.5466C111.883 55.5844 112.487 55.5844 113.071 55.6221C113.175 55.6221 113.3 55.6599 113.404 55.6977C113.446 55.6977 113.487 55.7354 113.508 55.7732C113.529 55.8865 113.487 55.962 113.404 55.9998C113.3 56.0376 113.175 56.0753 113.112 56.2642C113.091 56.3775 113.154 56.5285 113.216 56.6041C113.237 56.6419 113.279 56.6796 113.3 56.7174C113.404 56.8307 113.508 56.8307 113.633 56.8307C114.008 56.8307 114.363 57.0195 114.738 57.2461C114.946 57.3594 114.946 57.435 114.821 57.8126C114.696 58.1903 114.696 58.1903 114.842 58.4925C114.946 58.7191 114.946 58.7946 114.779 58.8701C114.592 58.9457 114.425 59.0967 114.258 59.21C114.112 59.2856 113.967 59.3233 113.821 59.3989C113.612 59.5122 113.529 59.9276 113.654 60.192C113.717 60.3431 113.8 60.4941 113.883 60.6452C113.967 60.7963 114.071 60.8718 114.175 60.9096C114.363 60.9474 114.55 60.9474 114.738 60.9851C114.821 60.9851 114.883 61.0607 114.883 61.1362C114.883 61.174 114.842 61.2495 114.8 61.2495C114.738 61.2873 114.654 61.325 114.592 61.3628C114.446 61.4761 114.383 61.7027 114.467 62.0048C114.529 62.307 114.508 62.5336 114.404 62.7602C114.383 62.798 114.363 62.8735 114.321 62.9113C114.008 63.4022 113.633 63.7421 113.237 63.9688C113.196 63.9688 113.154 64.0065 113.133 64.0065C112.862 63.8932 112.612 64.1576 112.362 64.2331C112.341 64.2331 112.3 64.3087 112.3 64.3842C112.3 64.422 112.32 64.4975 112.362 64.4975C112.466 64.6108 112.57 64.6108 112.695 64.6108C112.904 64.6486 113.029 64.8752 113.071 65.2151C113.133 65.555 113.216 65.6683 113.383 65.7061C113.862 65.7438 114.363 65.8194 114.842 65.8571C114.863 65.8571 114.925 65.8949 114.925 65.9327C114.925 66.0082 114.925 66.0837 114.883 66.1215C114.821 66.197 114.758 66.2726 114.758 66.4236C114.758 66.4614 114.821 66.4992 114.842 66.4992C114.904 66.5369 114.988 66.5747 115.05 66.6125C115.154 66.688 115.238 66.8013 115.279 66.9902C115.321 67.179 115.363 67.3678 115.446 67.5189C115.529 67.6322 115.634 67.7455 115.759 67.7077C115.863 67.67 115.967 67.5944 116.092 67.5944C116.175 67.5944 116.238 67.67 116.28 67.7833C116.321 67.8966 116.321 68.0476 116.28 68.1609C116.155 68.4253 115.988 68.6142 115.8 68.6519C115.613 68.6897 115.425 68.6897 115.238 68.6897C115.154 68.6897 115.092 68.7275 115.008 68.7652C114.821 68.803 114.696 69.1807 114.758 69.5206C114.8 69.7094 114.842 69.8983 114.8 70.0871C114.738 70.3515 114.613 70.5025 114.467 70.6158C114.154 70.8802 113.842 71.1068 113.508 71.1446C113.425 71.1446 113.383 71.2579 113.383 71.409C113.404 71.56 113.446 71.6356 113.508 71.7111C113.55 71.7489 113.571 71.7866 113.612 71.7866C113.717 71.8244 113.842 71.8622 113.946 71.8622C114.592 71.8622 115.217 71.8999 115.863 71.8999C115.946 71.8999 116.009 71.8999 116.092 71.9377C116.321 71.9377 116.488 72.2398 116.551 72.6931C116.571 72.8441 116.53 72.9574 116.446 72.9952C116.384 73.033 116.3 73.0707 116.238 73.0707C115.488 73.1463 114.738 73.184 113.987 73.1463C113.717 73.1463 113.466 73.2973 113.258 73.5617C113.237 73.5995 113.216 73.675 113.196 73.7128C113.196 73.7505 113.216 73.7883 113.258 73.8261C113.279 73.8638 113.321 73.9016 113.362 73.9016C113.55 73.9394 113.737 73.9394 113.925 73.9771C114.196 73.9771 114.446 74.0149 114.696 74.166C114.883 74.2415 115.071 74.2793 115.259 74.3171C115.342 74.3548 115.384 74.4681 115.384 74.5814C115.384 74.657 115.363 74.7325 115.342 74.7703C115.279 74.9213 115.196 75.0724 115.113 75.2235C115.008 75.4123 114.863 75.5256 114.717 75.5256C114.675 75.5256 114.633 75.5256 114.613 75.5256C114.279 75.4879 113.946 75.5634 113.633 75.8278C113.529 75.9033 113.425 75.9411 113.3 75.9411C113.008 75.9788 112.695 75.9788 112.404 76.0544C112.216 76.0921 112.049 76.2054 111.883 76.432C111.862 76.4698 111.82 76.5453 111.82 76.5831C111.82 76.6209 111.862 76.6964 111.904 76.6964C112.425 76.8097 112.925 77.1496 113.446 77.1874C113.508 77.1874 113.612 77.2629 113.633 77.3762C113.758 77.7161 113.967 77.905 114.175 78.056C114.279 78.1316 114.363 78.2826 114.363 78.5093C114.383 78.6981 114.383 78.9247 114.404 79.1135C114.425 79.2646 114.55 79.4912 114.633 79.4912C114.967 79.529 115.3 79.5667 115.634 79.6423C115.717 79.6423 115.8 79.7556 115.78 79.8311C115.738 79.9444 115.675 79.9822 115.592 79.9822C115.446 79.9822 115.3 80.02 115.154 80.0577C115.092 80.0955 115.008 80.1333 114.946 80.171C114.842 80.2466 114.758 80.3976 114.696 80.5865C114.758 80.7753 114.863 80.8508 114.925 81.0019C114.988 81.1152 114.988 81.2285 114.967 81.3418C114.925 81.4929 114.863 81.5684 114.779 81.5307C114.633 81.4551 114.508 81.3796 114.342 81.4551C114.237 81.4929 114.112 81.4174 114.008 81.4551C113.904 81.4929 113.8 81.6062 113.696 81.6817C113.633 81.7195 113.55 81.7195 113.487 81.7573C113.466 81.795 113.446 81.8328 113.404 81.9083C113.446 81.9461 113.466 81.9839 113.508 81.9839C113.737 82.0216 113.967 82.0216 114.175 82.0216C114.779 81.9839 115.384 82.0594 115.967 82.1727C116.071 82.2105 116.175 82.3238 116.259 82.4748C116.321 82.6259 116.3 82.7392 116.217 82.8148C116.155 82.8525 116.071 82.9281 116.009 82.9281C115.78 82.9658 115.55 82.9658 115.342 83.0036C115.259 83.0036 115.196 83.1169 115.196 83.2302C115.196 83.3813 115.238 83.4946 115.3 83.5701C115.467 83.7589 115.654 83.7589 115.842 83.7967C115.988 83.8345 116.134 83.9478 116.238 84.1366C116.259 84.1744 116.3 84.2499 116.3 84.3255C116.3 84.3632 116.28 84.4388 116.259 84.4765C116.196 84.5898 116.05 84.6654 116.071 84.892C116.092 85.0808 116.196 85.2319 116.259 85.3829C116.3 85.534 116.28 85.6473 116.196 85.6851C116.134 85.7228 116.05 85.7606 115.988 85.7606C115.613 85.7606 115.238 85.7606 114.863 85.7984C114.779 85.7984 114.717 85.8362 114.633 85.8362C114.529 85.8362 114.404 86.1383 114.446 86.2516C114.488 86.3649 114.55 86.4782 114.613 86.516C114.8 86.5915 114.988 86.5915 115.175 86.6293C115.259 86.6293 115.321 86.7048 115.384 86.7803C115.425 86.8559 115.3 87.2336 115.238 87.2713C115.175 87.3091 115.113 87.3846 115.029 87.4224C114.842 87.4979 114.654 87.5735 114.488 87.6868C114.3 87.8378 114.112 87.7623 113.946 87.649C113.862 87.6112 113.8 87.5735 113.737 87.649C113.529 87.8001 113.3 87.8756 113.071 87.8756C112.925 87.8756 112.779 87.8378 112.612 87.8756C112.508 87.8756 112.383 87.8756 112.279 87.9511C111.966 88.2155 111.633 88.2155 111.299 88.2533C110.632 88.291 109.945 88.3288 109.278 88.3288C109.132 88.3288 108.965 88.3288 108.84 88.4421C108.59 88.631 108.34 88.6687 108.069 88.6687C107.611 88.6687 107.173 88.7065 106.715 88.7443C106.611 88.7443 106.486 88.7443 106.381 88.8198C106.131 88.9709 105.881 89.0464 105.61 89.0464C104.902 89.0842 104.193 89.0842 103.464 89.1219C103.277 89.1219 103.089 89.1597 102.901 89.273C102.714 89.3863 102.547 89.4618 102.36 89.4618C102.214 89.4618 102.068 89.4618 101.901 89.4618C101.672 89.4996 101.464 89.5751 101.276 89.8395C101.109 90.1039 100.901 90.255 100.651 90.255C99.8174 90.255 99.0047 90.2927 98.1712 90.2927C97.7127 90.2927 97.2751 90.2927 96.8167 90.2927C96.5458 90.2927 96.2957 90.3683 96.0456 90.4816C95.9414 90.5571 95.8164 90.5571 95.7122 90.5949C95.1496 90.7082 94.587 90.6704 94.0243 90.6326C93.8784 90.6326 93.7326 90.5193 93.5867 90.4438C93.3367 90.255 93.0866 90.2172 92.8157 90.406C92.6698 90.5193 92.524 90.5949 92.3781 90.5949C92.0447 90.5949 91.7113 90.7082 91.3779 90.6704C90.9611 90.6326 90.5443 90.7082 90.1484 90.7082C89.9609 90.7082 89.7733 90.7459 89.5858 90.7082C89.1065 90.6326 88.6064 90.7459 88.1271 90.7082C87.6686 90.6704 87.231 90.6704 86.7726 90.6704C86.4392 90.6704 86.1058 90.6704 85.7515 90.6704C85.564 90.6704 85.3764 90.5571 85.2514 90.2927C85.2097 90.1794 85.1472 90.1039 85.0847 90.0284C85.0222 89.9528 84.9388 89.915 84.8763 89.9528C84.8346 89.9528 84.793 89.9528 84.7721 89.9906C84.4179 90.3683 84.0636 90.3305 83.7094 89.9906C83.6052 89.8773 83.501 89.915 83.3968 89.9906C83.3343 90.0284 83.2718 90.1039 83.1884 90.1794C82.98 90.3305 82.7508 90.3305 82.5424 90.1794C82.334 89.9906 82.1256 89.8395 81.8964 89.8773C81.7506 89.8773 81.6047 89.764 81.4588 89.6884C81.3546 89.6129 81.2296 89.6129 81.1254 89.6884C80.917 89.8773 80.6878 89.915 80.4586 89.915C80.0835 89.9528 79.7084 89.8773 79.3333 89.9528C79.2083 89.9906 79.1249 90.0661 79.1458 90.3305C79.1458 90.4816 79.1249 90.5949 79.0416 90.6326C78.9999 90.6326 78.9791 90.6704 78.9374 90.6704C78.854 90.6704 78.7707 90.6704 78.729 90.5949C78.5206 90.3683 78.3122 90.3305 78.083 90.2927C77.9788 90.2927 77.8538 90.3305 77.7496 90.406C77.5829 90.5949 77.4162 90.7082 77.2286 90.7082C76.9577 90.7082 76.7077 90.7837 76.4576 90.9348C76.3534 91.0103 76.2284 91.0103 76.1242 91.0103C75.8325 91.0481 75.5199 91.0103 75.2282 91.0481C74.9781 91.0858 74.7906 90.897 74.6239 90.5949C74.5405 90.4438 74.4363 90.3683 74.3113 90.4438C74.2488 90.4816 74.1654 90.5571 74.1029 90.5949C73.8945 90.7082 73.6653 90.7837 73.4569 90.9725C73.311 91.0858 73.1652 91.0858 73.0193 91.0858C72.7901 91.0481 72.5609 91.0481 72.3525 90.897C71.9566 90.5949 71.5398 90.6704 71.123 90.7082C70.9146 90.9348 70.6854 90.8592 70.477 90.7459C69.8727 90.7082 69.2684 90.6326 68.6849 90.7082C68.5391 90.7459 68.3932 90.7459 68.2473 90.8592C67.8722 91.1236 67.518 91.0858 67.1429 90.8592C66.9554 90.7459 66.7887 90.7837 66.6011 90.9348C66.3719 91.1236 66.1635 91.0858 65.9968 90.7082C65.9551 90.5949 65.8926 90.5193 65.8301 90.4438C65.5175 90.6704 65.1633 90.5571 64.8507 90.8592C64.684 91.0103 64.4964 91.0858 64.3089 91.0858C64.163 91.0858 64.0172 91.0858 63.8505 91.1236C63.7046 91.1236 63.5587 91.1991 63.4128 91.3124C63.267 91.4258 63.1211 91.4635 62.9752 91.4635C62.6835 91.4635 62.3709 91.4635 62.0792 91.4635C61.5166 91.4635 60.9539 91.4635 60.3913 91.5013C60.0996 91.5013 59.787 91.539 59.4952 91.4635C59.3077 91.4258 59.1202 91.5013 58.9535 91.6901C58.6617 91.9923 58.3491 92.2566 58.0574 92.521C57.9532 92.5965 57.849 92.6721 57.7448 92.7098C57.1405 92.7476 56.5362 92.8231 55.9527 92.7854C55.7652 92.7854 55.5776 92.7098 55.4109 92.5588C55.2651 92.4455 55.1192 92.3699 54.9733 92.3699C54.5149 92.3699 54.0773 92.3699 53.6188 92.3322C53.3479 92.3322 53.0979 92.3699 52.8478 92.521C52.7436 92.5965 52.6394 92.6343 52.5144 92.6343C52.2435 92.6721 51.9935 92.7098 51.7226 92.6721C50.889 92.6343 50.0763 92.6721 49.2428 92.7098C48.7218 92.7098 48.2009 92.6721 47.6591 92.6343C47.5549 92.6343 47.4299 92.7098 47.3673 92.8609C47.284 93.012 47.2215 93.1631 47.1381 93.3141C47.0548 93.4652 46.9297 93.503 46.8256 93.4652C46.763 93.4274 46.6797 93.4274 46.6172 93.3519C46.5338 93.2764 46.4713 93.2386 46.4088 93.3141C46.0545 93.5785 45.6794 93.503 45.3044 93.503C45.1168 93.503 44.9293 93.5785 44.7626 93.7296C44.6584 93.8429 44.5542 93.8429 44.45 93.7296C44.3875 93.6918 44.325 93.6163 44.2416 93.5407C44.0957 93.4274 43.9499 93.4274 43.804 93.4652C43.5123 93.5407 43.2414 93.8051 42.9496 93.9562C42.6579 94.145 42.3662 94.2205 42.0744 94.2205C41.4284 94.2205 40.8033 94.2205 40.1573 94.2205C39.6989 94.2205 39.2612 94.2583 38.8028 94.3338C38.6986 94.3338 38.5736 94.4094 38.4694 94.4849C38.3235 94.5605 38.1777 94.5227 38.0318 94.4849C37.9484 94.4472 37.8859 94.4472 37.8026 94.4849C37.615 94.5982 37.4483 94.636 37.2399 94.636C35.9271 94.6738 34.6143 94.6738 33.3015 94.7115C32.593 94.7115 31.8845 94.7115 31.1551 94.7115C30.9259 94.7115 30.7175 94.7871 30.4883 94.9004C30.2799 95.0514 30.0507 95.0137 29.8215 94.9004C29.759 94.8626 29.6756 94.8248 29.6131 94.8248C29.4672 94.8248 29.3214 94.9759 29.1755 94.9004C29.0296 94.8626 28.8838 94.7115 28.7379 94.7115C28.6337 94.7115 28.5087 94.7115 28.4045 94.7871C28.2169 94.9381 28.0502 94.9381 27.8627 94.7871C27.7585 94.7115 27.6543 94.6738 27.5293 94.6738C27.1125 94.6738 26.6958 94.6738 26.2998 94.6738C26.154 94.6738 26.0081 94.7115 25.8622 94.8248C25.5705 95.0137 25.2787 95.0137 24.987 94.7871C24.8828 94.7115 24.7786 94.6738 24.6536 94.6738C23.8617 94.7115 23.0699 94.5982 22.2989 94.5982C21.9655 94.5982 21.632 94.5982 21.2778 94.5982C21.0902 94.5982 20.9027 94.5604 20.736 94.4472C20.5485 94.3338 20.3817 94.2961 20.1942 94.2583C19.965 94.2205 19.7358 94.2205 19.5274 94.1828C19.3815 94.1828 19.2356 94.1072 19.0898 93.9939C18.8397 93.8051 18.5688 93.7673 18.3188 93.9562C18.0687 94.1072 17.8186 94.1828 17.5477 94.0317C17.4644 93.9939 17.4019 93.9939 17.3185 94.0317C17.2143 94.0695 17.0893 94.145 16.9851 94.145C16.6517 94.145 16.3183 94.145 15.964 94.1828C15.8182 94.1828 15.6723 94.145 15.5264 94.0317C15.3389 93.9184 15.1513 93.9562 14.9846 94.0695C14.8388 94.1828 14.6929 94.1828 14.547 94.1072C14.297 93.9562 14.0469 93.8806 13.776 93.8806C12.7549 93.8429 11.7547 93.8051 10.7336 93.8051C10.5044 93.8051 10.296 93.7673 10.0668 93.6163C9.96259 93.5407 9.8584 93.5407 9.73337 93.5785C9.67085 93.6163 9.5875 93.654 9.52498 93.654C8.85816 93.3897 8.19133 93.4652 7.50367 93.4274C7.21193 93.3897 6.9202 93.3141 6.62846 93.2008C6.33672 93.0875 6.04499 93.0875 5.73241 93.012C5.60738 92.9742 5.52403 92.8609 5.44068 92.7476C5.41984 92.7098 5.399 92.6343 5.35732 92.5965C5.29481 92.4832 5.23229 92.4455 5.16978 92.4832C4.9614 92.6343 4.73217 92.7098 4.50295 92.5588C4.44044 92.521 4.37792 92.4077 4.33625 92.2944C4.27373 92.1433 4.35709 91.9167 4.50295 91.8412C4.54463 91.8034 4.56547 91.8034 4.60715 91.8034C4.64882 91.8034 4.6905 91.7657 4.71134 91.7657C4.71134 91.8034 4.73217 91.879 4.73217 91.9167C4.75301 91.9545 4.77385 91.9545 4.79469 91.9545C4.79469 91.879 4.75301 91.8034 4.6905 91.7657C4.60714 91.3124 4.46128 90.9348 4.44044 90.4438C4.39876 89.915 4.37792 89.915 4.62798 89.7262C4.81553 89.5751 4.94056 89.3485 4.94056 88.9709C4.94056 88.8953 4.94056 88.8198 4.94056 88.782C4.94056 88.631 4.94056 88.5176 4.98223 88.3666C5.06559 88.0267 5.06559 87.7245 4.91972 87.4602C4.8572 87.3469 4.81553 87.2336 4.83637 87.0825C4.8572 86.9692 4.94056 86.8936 4.98223 86.7803C5.00307 86.7426 5.02391 86.667 5.06559 86.6293C5.14894 86.4404 5.1281 86.2138 5.00307 86.1383C4.89888 86.0628 4.79469 86.025 4.6905 85.9117C4.60714 85.8362 4.58631 85.7229 4.58631 85.6096C4.58631 85.4585 4.62798 85.3452 4.6905 85.3074C4.75301 85.2319 4.83637 85.2319 4.89888 85.1941C5.04475 85.1186 5.08643 84.9297 5.00307 84.7787C4.94056 84.6276 4.8572 84.4765 4.79469 84.3255C4.6905 84.0988 4.75301 83.8345 4.91972 83.6834C4.98223 83.6456 5.06559 83.6079 5.1281 83.6079C5.21146 83.5701 5.27397 83.4946 5.27397 83.3813C5.27397 83.2302 5.23229 83.1169 5.16978 83.0414C5.10726 82.9658 5.04475 82.9281 4.98223 82.8525C4.83637 82.7014 4.83637 82.6637 4.94056 82.4371C5.06559 82.2105 5.06559 82.2105 4.91972 82.0216C4.75301 81.7573 4.71134 81.6062 4.79469 81.3418C4.87804 81.0397 4.9614 80.7375 5.04475 80.4354C5.10726 80.2088 5.10726 80.171 5.00307 79.9066C4.9614 79.7934 4.89888 79.7178 4.8572 79.6045C4.79469 79.4157 4.75301 79.2268 4.79469 79.038C4.8572 78.6603 4.94056 78.2826 4.9614 77.8672C4.98223 77.5273 5.04475 77.2252 5.10726 76.8852C5.14894 76.6586 5.10726 76.4698 5.02391 76.3187C4.8572 75.9411 4.73217 75.5256 4.62798 75.1102C4.60714 74.9969 4.60714 74.8458 4.6905 74.7703C4.81553 74.6192 4.9614 74.5059 5.04475 74.2793C5.08643 74.166 5.10726 74.0149 5.10726 73.9016C5.10726 73.7883 5.08643 73.6372 5.04475 73.5239C4.94056 73.1463 5.02391 72.8819 5.19062 72.6553C5.29481 72.5042 5.29481 72.3154 5.19062 72.1265C5.08643 71.9377 4.98223 71.7489 4.87804 71.56C4.81553 71.409 4.73217 71.2201 4.77385 70.9935C4.91972 70.2004 4.9614 69.4073 4.91972 68.5764C4.9614 68.5764 4.98223 68.5764 5.00307 68.5386C5.02391 68.5386 5.02391 68.4631 5.02391 68.4253C4.98223 68.6142 4.94056 68.6519 4.94056 68.8408ZM109.174 53.696C109.278 53.7338 109.382 53.7338 109.507 53.7338C109.549 53.7338 109.57 53.696 109.611 53.6582C109.632 53.6204 109.653 53.5827 109.674 53.5449C109.653 53.5072 109.611 53.4316 109.591 53.4316C109.299 53.3183 109.007 53.4316 108.736 53.4316C108.694 53.4316 108.653 53.4694 108.653 53.5071C108.632 53.5827 108.674 53.696 108.757 53.696C108.882 53.696 109.028 53.696 109.174 53.696ZM114.654 9.20584C114.633 9.20584 114.675 9.20584 114.696 9.20584C114.779 9.16807 114.821 9.09253 114.8 9.017C114.779 8.97923 114.738 8.94146 114.717 8.9037C114.571 8.86593 114.446 8.86593 114.3 8.94146C114.258 8.94146 114.237 9.017 114.217 9.05476C114.258 9.16807 114.321 9.2436 114.383 9.2436C114.467 9.20583 114.55 9.20584 114.654 9.20584ZM56.1194 90.5949C56.0361 90.4438 55.9319 90.4438 55.8277 90.4816C55.786 90.4816 55.7444 90.5193 55.7444 90.5571C55.7235 90.6326 55.7652 90.7082 55.8485 90.7459C55.9944 90.7837 56.1194 90.7082 56.1194 90.5949Z" fill="#00659E"/>
<path d="M116.321 7.95655C116.214 7.98326 116.134 7.95655 116.054 7.87641C116.08 7.79628 116.134 7.74286 116.241 7.74286C116.374 7.74286 116.508 7.74286 116.641 7.74286C116.748 7.74286 116.828 7.79628 116.802 7.8497C116.802 7.87641 116.748 7.90313 116.695 7.92984C116.641 7.95655 116.615 7.95655 116.561 7.95655C116.481 7.98326 116.401 7.95655 116.321 7.95655Z" fill="#00659E"/>
<g clip-path="url(#clip0)">
<path d="M41.3335 57.0833C37.473 57.0833 34.3335 60.2228 34.3335 64.0833C34.3335 67.9439 37.473 71.0833 41.3335 71.0833C45.194 71.0833 48.3335 67.9439 48.3335 64.0833C48.3335 60.2228 45.1939 57.0833 41.3335 57.0833ZM41.3335 68.7499C38.7598 68.7499 36.6669 66.6569 36.6669 64.0833C36.6669 61.5096 38.7599 59.4167 41.3335 59.4167C43.9071 59.4167 46.0001 61.5097 46.0001 64.0833C46.0001 66.6569 43.9071 68.7499 41.3335 68.7499Z" fill="white"/>
<path d="M80.9998 57.0833C77.1392 57.0833 73.9998 60.2228 73.9998 64.0833C73.9998 67.9439 77.1392 71.0833 80.9998 71.0833C84.8603 71.0833 87.9998 67.9439 87.9998 64.0833C87.9998 60.2228 84.8603 57.0833 80.9998 57.0833ZM80.9998 68.7499C78.426 68.7499 76.3331 66.6569 76.3331 64.0833C76.3331 61.5096 78.4262 59.4167 80.9998 59.4167C83.5735 59.4167 85.6664 61.5097 85.6664 64.0833C85.6664 66.6569 83.5735 68.7499 80.9998 68.7499Z" fill="white"/>
<path d="M94.8146 50.619L84.3146 34.2857C84.0999 33.9519 83.7301 33.7501 83.3334 33.7501H70.5001C69.8549 33.7501 69.3335 34.2728 69.3335 34.9167V64.0834C69.3335 64.7285 69.8549 65.25 70.5001 65.25H75.1667V62.9166H71.6667V36.0835H82.6964L92.6667 51.5931V62.9169H86.8334V65.2501H93.8334C94.4785 65.2501 95 64.7287 95 64.0835V51.2501C95.0001 51.0273 94.936 50.8067 94.8146 50.619Z" fill="white"/>
<path d="M76.333 48.9166V40.75H85.6664V38.4166H75.1664C74.5212 38.4166 73.9998 38.9393 73.9998 39.5832V50.0833C73.9998 50.7284 74.5212 51.2499 75.1664 51.2499H92.6664V48.9165H76.333V48.9166Z" fill="white"/>
<path d="M70.5 25.5834H26.1666C25.5227 25.5834 25 26.1061 25 26.7501V64.0834C25 64.7286 25.5227 65.2501 26.1666 65.2501H35.5V62.9167H27.3334V27.9167H69.3334V62.9167H47.1666V65.2501H70.5C71.1452 65.2501 71.6666 64.7286 71.6666 64.0834V26.7501C71.6666 26.1061 71.1452 25.5834 70.5 25.5834Z" fill="white"/>
<path d="M33.1663 58.2499H26.1663V60.5833H33.1663V58.2499Z" fill="white"/>
<path d="M69.3331 58.2499H49.4998V60.5833H69.3331V58.2499Z" fill="white"/>
<path d="M93.8331 58.2499H89.1665V60.5833H93.8331V58.2499Z" fill="white"/>
<path d="M70.5001 30.2499H29.6667V32.5833H70.5001V30.2499Z" fill="white"/>
<path d="M42.5001 62.9167H40.1667V65.2501H42.5001V62.9167Z" fill="white"/>
<path d="M82.1666 62.9167H79.8333V65.2501H82.1666V62.9167Z" fill="white"/>
<path d="M46.0001 20.9166H29.6667V23.25H46.0001V20.9166Z" fill="white"/>
<path d="M27.3334 20.9166H25V23.25H27.3334V20.9166Z" fill="white"/>
</g>
<defs>
<clipPath id="clip0">
<rect width="70" height="70" fill="white" transform="translate(25 11)"/>
</clipPath>
</defs>
</svg>
