<svg width="112" height="96" viewBox="0 0 112 96" fill="none" xmlns="http://www.w3.org/2000/svg">
<path d="M97.4327 11.096C97.1794 11.4825 96.905 11.7033 96.6518 11.8689C96.504 11.9793 96.3774 11.9241 96.2508 11.8137C96.0819 11.6481 95.9131 11.7033 95.7443 11.9241C95.6176 12.1449 95.491 12.2553 95.3433 12.2553C95.0267 12.2553 94.7101 12.3105 94.3935 12.3105C94.2458 12.3105 94.1192 12.2001 93.9925 12.0345C93.8659 11.8137 93.7182 11.8689 93.5915 12.0345C93.4438 12.2553 93.3172 12.1449 93.2116 11.8689C93.1905 11.8137 93.1694 11.7033 93.1483 11.6481C93.0217 11.3168 92.8317 11.3168 92.684 11.7585C92.6207 11.9241 92.6207 12.0897 92.6629 12.2553C92.7051 12.4209 92.7473 12.5865 92.8106 12.6417C93.0428 12.9178 93.2961 12.973 93.5071 13.3042C93.5704 13.3594 93.6548 13.3594 93.7182 13.4146C94.3302 13.4146 94.9212 13.4146 95.5332 13.4146C95.7443 13.4146 95.9553 13.4698 96.1664 13.6906C96.3563 13.8562 96.5674 14.0219 96.7784 14.1875C96.8839 14.2979 96.9895 14.2427 97.095 14.2427C97.2005 14.2427 97.306 14.2979 97.4116 14.2979C97.5171 14.2427 97.6226 14.1323 97.707 14.0771C97.8548 14.0219 98.0025 14.1323 98.108 14.3531C98.2558 14.6291 98.3824 14.9603 98.509 15.2363C98.5723 15.402 98.6357 15.3468 98.6779 15.1811C98.7623 14.9051 98.8467 14.5739 98.9944 14.5739C99.2055 14.5187 99.4165 14.5187 99.6065 14.9051C99.6698 15.0155 99.712 15.1259 99.7753 15.2363C99.8598 15.402 99.9442 15.5124 100.071 15.5676C100.219 15.6228 100.345 15.6228 100.493 15.6228C100.641 15.6228 100.767 15.7332 100.894 15.8436C101.696 16.5612 101.696 16.5612 102.456 16.6164C102.836 16.6716 103.237 16.5612 103.616 16.7269C103.638 16.7269 103.701 16.7821 103.701 16.8373C103.701 17.0581 103.638 17.1685 103.595 17.2789C103.532 17.4445 103.553 17.6101 103.638 17.6653C103.806 17.7757 103.996 17.8309 104.165 17.7757C104.334 17.7757 104.397 17.6101 104.397 17.1133C104.397 16.7821 104.461 16.6717 104.608 16.7269C104.714 16.7269 104.819 16.8373 104.883 17.0581C104.904 17.1133 104.904 17.2789 104.904 17.3341C104.841 17.7757 104.714 18.107 104.587 18.4382C104.44 18.7694 104.271 18.8798 104.102 18.8246C103.996 18.7694 103.912 18.6038 103.806 18.7142C103.785 18.7694 103.764 18.8246 103.743 18.935C103.743 19.0454 103.743 19.1558 103.764 19.211C103.828 19.3214 103.891 19.3767 103.954 19.4319C104.334 19.4871 104.735 19.4871 105.115 19.8735C105.199 19.9839 105.326 19.9287 105.432 19.9839C105.896 20.0391 106.36 20.0943 106.803 20.1495C106.888 20.1495 106.93 20.3151 106.909 20.4255C106.888 20.4807 106.846 20.5359 106.824 20.5359C106.613 20.5911 106.402 20.5911 106.191 20.6463C106.001 20.6463 105.959 20.812 105.938 21.3088C105.938 21.5296 105.917 21.64 105.811 21.6952C105.6 21.7504 105.389 21.7504 105.178 21.7504C104.967 21.8056 104.946 21.916 104.904 22.5785C104.904 22.7441 104.862 22.9097 104.841 23.1305C104.819 23.3514 104.925 23.6826 105.009 23.7378C105.052 23.7378 105.073 23.793 105.115 23.793C105.22 23.7378 105.326 23.6826 105.41 23.8482C105.643 24.4002 105.896 24.5658 106.191 24.5106C106.339 24.4554 106.466 24.5106 106.613 24.5106C106.656 24.5106 106.698 24.4554 106.698 24.4002C106.719 24.2346 106.677 24.1242 106.592 24.069C106.55 24.069 106.529 24.0138 106.487 24.0138C106.402 23.9586 106.36 23.9034 106.36 23.6826C106.36 23.6274 106.423 23.5722 106.445 23.5722C106.761 23.517 107.078 23.4618 107.394 23.517C107.5 23.517 107.605 23.6826 107.669 23.9034C107.774 24.345 107.922 24.5106 108.112 24.5106C108.281 24.5106 108.471 24.5658 108.639 24.5658C108.808 24.5658 108.998 24.621 109.167 24.6763C109.209 24.6763 109.23 24.7867 109.252 24.8419C109.23 24.8971 109.188 24.9523 109.167 25.0075C108.893 25.1731 108.597 25.1179 108.323 25.1731C108.133 25.2283 107.985 25.3387 107.816 25.5595C107.584 25.8907 107.584 25.8907 107.753 26.4428C107.774 26.498 107.774 26.6084 107.774 26.6636C107.753 26.7188 107.711 26.774 107.69 26.774C107.437 26.8292 107.204 26.9948 106.951 27.1052C106.888 27.1604 106.803 27.05 106.74 26.9948C106.55 26.8844 106.381 27.1604 106.297 27.5469C106.191 28.0437 106.086 28.4853 105.938 28.927C105.854 29.203 105.896 29.3686 106.022 29.5342C106.086 29.6446 106.149 29.6998 106.212 29.8102C106.339 30.0311 106.466 30.1415 106.613 30.1415C107.289 30.1967 107.964 30.0863 108.639 30.0311C108.914 29.9758 109.209 30.0311 109.484 30.0311C109.758 30.0311 109.969 30.1967 110.117 30.8039C110.159 30.9695 110.222 31.0247 110.265 31.1903C110.37 31.4664 110.37 31.632 110.265 31.7976C110.075 32.0184 109.885 32.2392 109.653 32.2944C109.083 32.3496 108.513 32.4048 107.943 32.5152C107.901 32.5152 107.859 32.5704 107.859 32.6256C107.837 32.7361 107.88 32.8465 107.964 32.9017C108.112 32.9569 108.238 32.9017 108.386 33.0673C108.471 33.1777 108.492 33.2881 108.492 33.5089C108.492 33.6745 108.45 33.8401 108.365 33.8953C108.196 34.0058 108.006 34.0058 107.837 34.061C107.563 34.1714 107.373 34.4474 107.268 35.1098C107.204 35.4963 107.099 35.6619 106.951 35.7723C106.909 35.7723 106.888 35.8275 106.846 35.8827C106.824 35.9379 106.761 35.9931 106.761 36.0483C106.761 36.2139 106.803 36.3795 106.867 36.4899C106.93 36.6003 106.993 36.7108 107.057 36.7108C107.162 36.766 107.268 36.766 107.373 36.766C107.985 36.7108 108.576 36.8764 109.188 36.9316C109.252 36.9316 109.315 37.042 109.378 37.1524C109.441 37.2628 109.484 37.4284 109.484 37.594C109.484 37.7596 109.441 37.87 109.357 37.9252C109.188 37.9804 108.998 37.9804 108.829 38.0356C108.576 38.0909 108.344 38.2565 108.154 38.7533C108.091 38.9189 108.027 38.9189 107.964 38.8637C107.795 38.8085 107.795 38.8637 107.711 39.1397C107.69 39.1949 107.669 39.3053 107.669 39.3605C107.521 39.9678 107.31 40.1886 107.057 40.3542C106.888 40.4646 106.846 41.1271 106.972 41.5135C106.993 41.5687 107.035 41.6239 107.057 41.6791C107.204 41.7895 107.331 41.7343 107.479 41.7343C107.584 41.7343 107.69 41.7343 107.795 41.7895C108.049 41.8999 108.26 42.2864 108.513 42.2864C108.724 42.2864 108.935 42.3416 109.146 42.3968C109.23 42.3968 109.273 42.5624 109.273 42.6728C109.273 42.728 109.23 42.8384 109.209 42.8384C109.146 42.8936 109.083 42.9488 108.998 43.004C108.872 43.1144 108.766 43.3905 108.661 43.6665C108.576 43.9425 108.618 44.2185 108.703 44.3841C108.851 44.6601 109.04 44.6049 109.209 44.7154C109.23 44.7154 109.273 44.8258 109.294 44.881C109.273 44.9362 109.252 45.0466 109.23 45.1018C108.998 45.5434 108.724 45.7642 108.428 45.7642C108.281 45.7642 108.154 45.8194 108.006 45.8194C107.795 45.8194 107.584 45.9298 107.394 46.1507C107.289 46.2611 107.183 46.2611 107.078 46.3715C106.993 46.4267 106.951 46.5371 106.972 46.7027C106.972 46.8683 107.014 47.0339 107.099 47.1443C107.204 47.2547 107.31 47.3099 107.415 47.1995C107.69 46.9235 107.964 46.8131 108.238 46.8131C108.745 46.8131 109.23 46.8131 109.737 46.8131C109.779 46.8131 109.821 46.8131 109.842 46.8683C109.906 46.9787 109.948 47.0891 110.011 47.1995C110.032 47.2547 110.032 47.3652 110.011 47.4756C109.99 47.6412 109.948 47.8068 109.885 47.862C109.674 48.0828 109.463 48.0276 109.252 48.0828C109.104 48.138 109.125 48.4692 109.125 48.6901C109.125 49.0213 108.977 49.4077 108.851 49.4629C108.787 49.5181 108.703 49.5733 108.639 49.5733C108.365 49.6285 108.07 49.6285 107.816 50.0149C107.753 50.0702 107.69 50.1254 107.605 50.1254C107.5 50.1806 107.394 50.1806 107.289 50.1806C107.078 50.2358 106.867 50.2358 106.656 50.3462C106.445 50.4566 106.255 50.7878 106.044 50.843C106.022 50.843 105.98 50.9534 105.959 51.0086C105.98 51.0638 106.001 51.119 106.022 51.119C106.445 51.1742 106.867 51.1742 107.289 51.1742C107.5 51.1742 107.711 51.2294 107.901 51.5055C107.985 51.6159 108.112 51.6711 108.196 51.7815C108.281 51.8367 108.407 51.8367 108.407 52.1679C108.407 52.3335 108.323 52.4439 108.26 52.5543C108.196 52.6647 108.175 52.8304 108.175 53.0512C108.196 53.2168 108.238 53.3824 108.323 53.3824C108.386 53.4376 108.471 53.4376 108.534 53.4376C108.893 53.4928 109.252 53.4928 109.589 53.4928C109.737 53.4928 109.864 53.548 110.011 53.548C110.054 53.548 110.096 53.6584 110.096 53.6584C110.096 53.824 110.032 53.9344 109.969 53.9344C109.758 53.9896 109.547 54.0448 109.357 54.3209C109.209 54.5417 109.019 54.5417 108.851 54.5969C108.766 54.6521 108.724 54.7625 108.724 54.8729C108.724 54.9281 108.787 54.9833 108.808 55.0385C109.019 55.0937 109.23 55.0937 109.441 55.1489C109.547 55.2041 109.653 55.2041 109.758 55.3145C109.99 55.5906 110.243 55.6458 110.476 55.6458C110.623 55.6458 110.75 55.701 110.898 55.7562C110.94 55.7562 110.961 55.8666 110.982 55.9218C110.961 55.977 110.919 56.0322 110.898 56.0874C110.792 56.1426 110.687 56.1978 110.581 56.1978C109.906 56.1978 109.23 56.1978 108.555 56.253C108.133 56.253 107.711 56.253 107.289 56.4186C107.268 56.4186 107.225 56.529 107.225 56.529C107.225 56.6394 107.247 56.7499 107.289 56.7499C107.479 57.0259 107.669 57.2467 107.88 57.2467C108.513 57.3019 109.146 57.3571 109.8 57.4123C109.906 57.4123 110.011 57.5227 110.096 57.7435C110.117 57.7987 110.138 57.9091 110.159 57.9643C110.201 58.13 110.159 58.2956 110.054 58.2956C109.779 58.3508 109.484 58.3508 109.209 58.406C108.956 58.4612 108.724 58.3508 108.492 58.0748C108.471 58.0196 108.428 58.0196 108.386 58.0196C108.238 57.9643 108.112 58.0748 108.006 58.2956C107.922 58.7924 107.774 58.958 107.584 59.0132C107.479 59.0684 107.373 59.1788 107.289 59.2892C107.141 59.4549 107.014 59.3997 106.888 59.234C106.824 59.1236 106.761 59.1236 106.677 59.1788C106.571 59.234 106.487 59.3445 106.381 59.4549C106.17 59.6205 105.959 59.6757 105.748 59.5101C105.474 59.3444 105.474 59.3445 105.242 59.6205C105.22 59.6757 105.178 59.7309 105.157 59.7861C105.115 59.9517 105.136 60.0621 105.242 60.0621C105.516 60.1173 105.811 60.1173 106.086 60.1725C106.149 60.1725 106.212 60.2829 106.297 60.2829C106.402 60.3381 106.445 60.7246 106.381 60.9454C106.297 61.387 106.149 61.7182 105.98 61.7182C105.495 61.7734 104.988 61.8286 104.503 61.8286C104.397 61.8286 104.292 61.7734 104.186 61.6078C103.954 61.2214 103.722 61.2766 103.469 61.2766C103.405 61.2766 103.321 61.3318 103.258 61.387C103.237 61.387 103.173 61.4422 103.173 61.4974C103.173 61.5526 103.194 61.663 103.194 61.7734C103.258 61.9942 103.342 62.1599 103.448 62.2151C104.081 62.3255 104.714 62.2151 105.368 62.3807C105.474 62.3807 105.495 62.5463 105.516 62.9879C105.516 63.3191 105.579 63.4296 105.727 63.4296C105.875 63.4296 106.001 63.3191 106.065 62.8775C106.086 62.8223 106.107 62.7119 106.149 62.7119C106.212 62.7119 106.255 62.8223 106.255 63.0431C106.255 63.1535 106.276 63.2087 106.276 63.3191C106.297 63.6504 106.402 63.816 106.487 63.8712C107.078 64.0368 107.69 64.092 108.302 64.0368C108.407 64.0368 108.513 64.0368 108.618 64.1472C108.639 64.2024 108.661 64.2576 108.703 64.3128C108.682 64.368 108.661 64.4784 108.618 64.4784C108.344 64.6992 108.049 64.4232 107.774 64.5888C107.69 64.6441 107.669 64.7545 107.648 64.9753C107.648 65.5825 107.626 65.5825 107.415 65.4721C107.268 65.3617 107.268 65.3617 107.014 65.5825C106.951 65.6377 106.867 65.6929 106.803 65.6929C106.487 65.6929 106.17 65.6929 105.854 65.6377C105.811 65.6377 105.79 65.5825 105.748 65.5825C105.621 65.4169 105.474 65.4169 105.347 65.5825C105.22 65.7481 105.073 65.6929 104.925 65.6377C104.862 65.5825 104.798 65.5273 104.714 65.4721C104.545 65.3065 104.376 65.3065 104.207 65.4721C104.165 65.5273 104.144 65.5273 104.102 65.5825C103.933 65.8033 103.764 65.8033 103.595 65.5825C103.279 65.2513 102.962 65.3065 102.646 65.3617C102.54 65.3617 102.456 65.5825 102.392 65.8033C102.371 65.8585 102.35 65.9689 102.371 66.0794C102.371 66.1346 102.413 66.1898 102.435 66.245C102.667 66.4106 102.92 66.3554 103.173 66.4106C103.638 66.4658 104.102 66.4658 104.545 66.521C104.566 66.521 104.63 66.5762 104.63 66.6866C104.651 66.797 104.587 66.9074 104.503 66.9626C104.397 67.0178 104.292 67.0178 104.186 67.0178C103.828 67.073 103.469 67.073 103.131 67.073C103.047 67.073 103.004 67.2386 103.047 67.3491C103.068 67.4043 103.11 67.4595 103.131 67.4595C103.279 67.5147 103.405 67.5147 103.553 67.5147C103.87 67.5147 104.186 67.4595 104.482 67.9011C104.545 67.9563 104.63 67.9563 104.693 67.9011C104.841 67.7907 104.967 67.7907 105.115 67.9011C105.326 68.1219 105.537 68.0667 105.748 68.0667C105.959 68.1219 106.17 68.0667 106.381 68.1219C106.487 68.1219 106.571 68.2875 106.677 68.4531C106.782 69.0604 107.014 69.1156 107.225 69.1156C107.436 69.1708 107.648 69.1708 107.859 69.1708C108.154 69.1156 108.407 69.3916 108.661 69.778C108.787 69.9436 108.829 70.4405 108.745 70.7165C108.618 71.1029 108.492 71.3237 108.302 71.3237C108.26 71.3237 108.238 71.3237 108.196 71.3237L108.217 71.379C108.175 71.2133 108.133 71.0477 108.07 71.0477C107.753 70.8821 107.436 70.8821 107.12 71.0477C107.035 71.1029 106.993 71.2685 107.014 71.4342C107.035 71.5998 107.078 71.7654 107.141 71.7654C107.204 71.7654 107.289 71.7654 107.352 71.655C107.479 71.4894 107.563 71.5998 107.626 71.8206C107.69 72.0414 107.753 72.2622 107.816 72.483C107.88 72.7039 107.964 72.8695 108.07 72.9247C108.175 72.9247 108.281 72.9247 108.386 72.9799C108.45 72.9799 108.534 73.0351 108.597 73.0351C108.618 73.0351 108.661 73.1455 108.682 73.2007C108.703 73.3111 108.682 73.4767 108.597 73.5319C107.816 73.6423 107.035 73.6423 106.255 73.6423C104.883 73.6423 103.49 73.5319 102.118 73.6975C102.034 73.6975 101.991 73.8631 102.012 73.9735C102.034 74.0288 102.076 74.084 102.097 74.1392C102.139 74.1944 102.16 74.1944 102.202 74.1944C103.194 74.1944 104.186 74.2496 105.178 74.2496C105.368 74.2496 105.537 74.3048 105.706 74.5256C105.833 74.6912 105.98 74.6912 106.128 74.6912C106.656 74.6912 107.183 74.7464 107.732 74.7464C108.112 74.7464 108.513 74.636 108.893 74.8568C108.914 74.8568 108.956 74.9672 108.977 75.0224C108.956 75.0776 108.914 75.188 108.893 75.188C108.534 75.3537 108.196 75.3537 107.837 75.2984C107.479 75.2984 107.12 75.2432 106.782 75.3537C106.677 75.4089 106.634 75.6297 106.719 75.9609C106.782 76.1817 106.846 76.4025 106.888 76.6786C106.909 76.8442 106.888 77.065 106.888 77.2306C106.888 77.2858 106.93 77.341 106.951 77.3962C107.12 77.5618 107.31 77.5618 107.479 77.5618C107.985 77.5066 108.471 77.5618 108.977 77.617C109.019 77.617 109.04 77.617 109.083 77.617C109.23 77.617 109.209 77.8378 109.062 78.0587C108.851 78.3899 108.618 78.6107 108.365 78.6107C107.69 78.6107 107.014 78.6107 106.339 78.6107C105.6 78.6107 104.841 78.6107 104.102 78.6107C103.996 78.6107 103.891 78.6107 103.785 78.6107C103.152 78.7763 102.519 78.6107 101.886 78.7763C101.844 78.7763 101.823 78.8867 101.801 78.9419C101.823 78.9971 101.844 79.0523 101.886 79.1075C101.991 79.1627 102.097 79.2179 102.202 79.2179C102.519 79.2179 102.836 79.1627 103.152 79.1075C103.258 79.1075 103.363 79.1075 103.469 79.2179C103.701 79.494 103.933 79.6044 104.186 79.6596C105.326 79.7148 106.466 79.7148 107.584 79.77C107.753 79.77 107.943 79.8252 108.112 79.9908C108.238 80.1012 108.386 80.1564 108.534 80.1564C108.787 80.1564 109.04 80.2116 109.273 80.1564C109.631 80.1012 109.969 80.3772 110.286 80.8189C110.307 80.8741 110.349 80.9293 110.37 80.9845C110.518 81.2605 110.708 81.3157 110.877 81.3157C111.13 81.3157 111.383 81.3157 111.615 81.3709C111.7 81.3709 111.763 81.5365 111.742 81.6469C111.721 81.8125 111.636 81.8677 111.552 81.8677C110.834 81.8677 110.138 81.9781 109.42 81.8677C109.167 81.8125 108.914 81.8677 108.682 81.8677C108.302 81.8677 107.901 81.8677 107.521 81.8677C107.247 81.8677 106.951 81.9229 106.677 81.9781C106.571 81.9781 106.466 82.0886 106.381 82.199C106.212 82.3646 106.044 82.5302 105.875 82.5302C105.558 82.5854 105.242 82.5854 104.925 82.6406C104.883 82.6406 104.841 82.6958 104.841 82.751C104.819 82.8614 104.883 82.9718 104.967 82.9718C105.22 83.027 105.453 83.027 105.706 83.0822C105.727 83.0822 105.769 83.1374 105.79 83.2478C105.833 83.3583 105.79 83.5239 105.706 83.5239C104.967 83.7447 104.207 83.6895 103.469 83.5791C103.363 83.5791 103.258 83.4687 103.152 83.4135C103.089 83.3582 103.026 83.3582 102.941 83.4135C102.709 83.6343 102.456 83.6895 102.202 83.6895C102.055 83.6895 101.907 83.6895 101.78 83.8551C101.548 84.1311 101.316 84.1863 101.063 84.3519C100.999 84.4071 100.936 84.4623 100.873 84.5175C100.704 84.7383 100.535 84.7383 100.366 84.5175C100.303 84.4071 100.219 84.4071 100.155 84.4623C99.8809 84.7384 99.6065 84.7936 99.3321 84.904C99.311 84.904 99.2899 85.0144 99.2477 85.0696C99.2688 85.1248 99.2899 85.18 99.3321 85.2352C99.5854 85.4008 99.8175 85.4008 100.071 85.3456C100.598 85.3456 101.126 85.4008 101.675 85.2904C101.886 85.2352 102.097 85.2904 102.308 85.456C102.35 85.456 102.371 85.5664 102.392 85.5664C102.371 85.6216 102.35 85.6768 102.308 85.732C102.034 85.8976 101.738 85.8976 101.464 85.8976C100.957 85.8976 100.472 85.8976 99.9653 85.8976C99.902 85.8976 99.8175 85.9529 99.7542 86.0081C99.712 86.0081 99.6909 86.1185 99.6698 86.1737C99.6909 86.2289 99.7331 86.2841 99.7542 86.3393C100.007 86.5049 100.24 86.4497 100.493 86.3945C101.021 86.3393 101.548 86.3945 102.097 86.4497C102.245 86.4497 102.371 86.5601 102.498 86.7257C102.625 86.8913 102.772 87.0017 102.899 86.9465C103.574 86.9465 104.25 86.8913 104.925 86.8913C105.242 86.8913 105.558 86.9465 105.875 87.0017C105.917 87.0017 105.938 87.1121 105.959 87.1121C105.938 87.2225 105.875 87.3329 105.79 87.3329C105.516 87.3882 105.22 87.4434 104.946 87.4434C103.448 87.4434 101.97 87.4986 100.472 87.4986C100.155 87.4986 99.8386 87.5538 99.5221 87.5538C99.4799 87.5538 99.4377 87.609 99.4377 87.6642C99.4165 87.8298 99.4588 87.9402 99.5221 87.9954C99.5643 88.0506 99.5854 88.0506 99.6276 88.0506C99.712 88.0506 99.7753 88.1058 99.8175 88.2714C99.8597 88.437 99.7753 88.8787 99.6909 88.9339C99.6276 88.9891 99.5643 89.0995 99.501 89.0995C99.3532 89.1547 99.2266 89.2099 99.0789 89.2651C98.9944 89.3203 98.9522 89.4859 98.9522 89.6515C98.9522 89.8171 98.9733 89.9827 99.0367 90.0932C99.1 90.2036 99.1844 90.314 99.2055 90.4244C99.2266 90.59 99.1422 90.7004 99.0789 90.8108C98.9944 90.9212 98.9944 91.0868 98.9944 91.2524C99.0155 91.6941 98.91 91.8597 98.7412 91.6941C98.699 91.6389 98.6779 91.6389 98.6357 91.5837C98.5723 91.5285 98.509 91.4181 98.4457 91.3076L98.4668 91.3629C98.3824 91.0316 98.2769 90.866 98.108 90.866C97.8337 90.866 97.5382 90.8108 97.2849 91.1972C97.2216 91.2524 97.1372 91.2524 97.0739 91.1972C96.9261 91.0868 96.7995 90.9764 96.6729 91.1972C96.6096 91.3076 96.5462 91.3076 96.4618 91.2524C96.3985 91.1972 96.3352 91.142 96.2719 91.0316C96.103 90.866 95.9342 90.8108 95.7654 91.0316C95.6176 91.1972 95.491 91.142 95.3644 90.9764C95.3222 90.9212 95.301 90.9212 95.2588 90.9212C94.8789 90.866 94.478 90.8108 94.0981 90.9764C93.9503 91.0316 93.8237 91.142 93.6971 91.3076C93.5282 91.5285 93.3594 91.4733 93.1905 91.3076C93.085 91.1972 92.9795 91.1972 92.8951 91.3076C92.8317 91.3629 92.7684 91.4181 92.7051 91.5285C92.6207 91.6389 92.5152 91.6389 92.4519 91.9149C92.4941 92.0805 92.5574 92.1357 92.6418 92.1909C92.7895 92.2461 92.9162 92.3565 93.0217 92.6878C93.085 92.8534 93.0639 93.019 93.0006 93.1294C92.9795 93.1846 92.9373 93.2398 92.9162 93.2398C92.7473 93.3502 92.5574 93.3502 92.3885 93.1294C92.2408 92.9638 92.1142 93.019 91.9875 93.1846C91.9664 93.2398 91.9242 93.2398 91.882 93.295C91.4599 93.3502 91.0378 93.4606 90.6157 93.2398C90.5102 93.1846 90.4891 93.0742 90.5313 92.8534C90.5735 92.6878 90.5946 92.5221 90.6368 92.4117C90.7423 91.9701 90.7423 91.8597 90.6157 91.8045C90.4469 91.7493 90.2569 91.6941 90.0881 91.7493C89.9403 91.8045 89.8137 91.9701 89.7715 92.4117C89.7715 92.5221 89.7504 92.5773 89.7293 92.6878C89.7082 93.019 89.6027 93.1846 89.5182 93.2398C89.2861 93.3502 89.0328 93.4054 88.7796 93.3502C88.6951 93.3502 88.6318 93.2398 88.6318 93.1294C88.6318 93.0742 88.6529 92.9638 88.6951 92.9086C88.7585 92.7982 88.8218 92.6878 88.864 92.5773C88.9695 92.3013 89.0961 92.1909 89.2439 92.1909C89.3283 92.1909 89.3705 92.1357 89.4127 91.9701C89.3494 91.8597 89.2861 91.8045 89.2228 91.8045C89.0539 91.8045 88.864 91.8045 88.6951 91.9701C88.463 92.1909 88.2308 92.4117 87.9987 92.6326C87.9353 92.6878 87.872 92.7982 87.7876 92.7982C87.4921 92.7982 87.2389 93.0742 86.9645 93.295C86.9012 93.3502 86.8168 93.3502 86.7535 93.295C86.3103 92.8534 85.8459 92.7982 85.4027 92.8534C84.7274 92.9638 84.052 92.8534 83.3978 92.8534C83.2922 92.8534 83.1867 92.8534 83.0812 92.743C82.9123 92.5773 82.7435 92.6325 82.5535 92.7982C82.4269 92.9086 82.2792 92.9086 82.1314 92.743C82.0259 92.6325 81.9204 92.5221 81.836 92.5221C81.4139 92.4669 80.9918 92.4117 80.5697 92.5773C80.4641 92.6325 80.3797 92.743 80.2953 92.9638C80.2742 93.019 80.2531 93.1294 80.2531 93.1846C80.2953 93.4054 80.3586 93.4606 80.4219 93.3502C80.4852 93.295 80.5486 93.2398 80.6119 93.1294C80.7174 92.9638 80.8229 92.9638 80.9073 93.0742C81.0973 93.295 81.3083 93.4054 81.5194 93.4054C81.9837 93.4054 82.448 93.3502 82.8912 93.5158C82.9334 93.5158 82.9756 93.571 82.9756 93.6262C82.9967 93.7918 82.9545 93.9575 82.9123 94.1231C82.8701 94.2887 82.8068 94.3439 82.7224 94.3991C82.5113 94.4543 82.3003 94.5095 82.0892 94.5647C81.836 94.5647 81.6038 94.5647 81.3505 94.5647C81.2028 94.5647 81.0762 94.7303 80.9496 94.8407C80.8651 94.8959 80.7385 94.8407 80.6541 94.8959C80.633 94.8959 80.6119 95.0063 80.5697 95.0615C80.443 95.448 80.443 95.448 80.3164 95.2823C80.2109 95.1719 80.1264 95.0615 80.0209 94.9511C79.9576 94.8959 79.9154 94.7303 79.8943 94.5095C79.9576 94.5095 80.042 94.5095 80.1053 94.4543C80.1264 94.4543 80.1687 94.3991 80.1898 94.3439C80.2109 94.2887 80.2109 94.1783 80.2109 94.1783C80.1687 94.0126 80.1053 94.0126 80.042 94.1231C79.9787 94.2335 79.9365 94.3439 79.9365 94.5647C79.8521 94.5647 79.7888 94.5647 79.7044 94.5647C79.6832 94.2887 79.5988 94.1231 79.4933 94.0679C79.43 94.0126 79.3667 94.0679 79.3034 94.0679C79.2822 94.0679 79.24 94.1231 79.2189 94.1783C79.1978 94.2887 79.24 94.3991 79.3245 94.3991C79.4511 94.4543 79.5988 94.4543 79.7255 94.4543C79.7044 94.6199 79.6833 94.7855 79.6199 94.8959C79.5355 95.0615 79.4511 95.1719 79.3456 95.2823C79.2611 95.3928 79.1556 95.5032 79.0501 95.3375C78.9235 95.1719 78.7968 95.1167 78.6702 95.0063C78.5647 94.8959 78.5014 94.7855 78.438 94.5095C78.3958 94.2887 78.3114 94.0679 78.2059 93.9574C78.1848 93.7918 78.1426 93.6262 78.0793 93.571C78.0582 93.5158 78.0159 93.5158 77.9948 93.5158C77.9737 93.5158 77.9315 93.571 77.9104 93.6262C77.8893 93.7366 77.9315 93.847 78.0159 93.9022C78.0793 93.9022 78.1426 93.9022 78.227 93.9022C78.1215 94.5647 77.9315 94.9511 77.6783 95.0615C77.2984 95.2271 76.9396 95.6136 76.5597 95.8896C76.4542 95.9448 76.3486 95.9448 76.2431 95.8896C76.1798 95.8344 76.0954 95.8344 76.0321 95.8344C75.9265 95.8344 75.821 95.9448 75.7155 96C75.4833 95.7792 75.2301 95.724 75.019 95.3928C74.8291 95.0615 74.618 95.1167 74.4281 95.3928C74.407 95.448 74.3648 95.5032 74.3437 95.5032C74.3225 95.5584 74.2803 95.6136 74.2381 95.6136C74.1326 95.6688 74.0271 95.724 73.9215 95.6136C73.7949 95.5032 73.6683 95.2823 73.5416 95.1719C73.4783 95.1167 73.3939 95.1167 73.3306 95.1167C73.1829 95.1167 73.0562 95.2271 72.9296 95.3928C72.7397 95.6688 72.5286 95.724 72.3176 95.6688C72.1698 95.6688 72.0432 95.6136 71.8955 95.5584C71.7477 95.5032 71.6422 95.3375 71.5367 95.0063C71.4733 94.7855 71.4734 94.6199 71.5789 94.5647C71.7688 94.3991 71.9799 94.2887 72.1909 94.1231C72.402 93.9575 72.613 94.0127 72.8241 94.0127C73.0351 93.9575 73.2462 94.0679 73.4361 94.3439C73.5628 94.5095 73.7105 94.4543 73.8582 94.3439C73.9004 94.3439 73.9215 94.2887 73.9638 94.2335C74.1326 94.0126 74.2803 93.9022 74.4703 93.9022C75.0612 93.9574 75.6733 93.847 76.2642 93.9022C76.4331 93.9022 76.623 93.847 76.7707 93.6262C76.9607 93.4054 77.1717 93.4054 77.3828 93.295C77.4039 93.3502 77.4039 93.4606 77.425 93.5158C77.4461 93.571 77.4672 93.571 77.4883 93.571C77.4883 93.4606 77.4461 93.3502 77.3617 93.3502C77.3406 93.0742 77.2984 92.8534 77.214 92.6326C77.1295 92.4669 77.024 92.3565 76.9185 92.3565C76.8552 92.3565 76.7707 92.4117 76.7074 92.4669C76.4964 92.6325 76.2853 92.743 76.0743 92.743C75.6522 92.743 75.2301 92.743 74.808 92.743C74.5969 92.743 74.3859 92.7982 74.1748 93.019C74.1115 93.0742 74.0482 93.0742 73.9638 93.019C73.7316 92.743 73.4994 92.5221 73.2884 92.3013C73.0351 92.2461 72.8241 91.8045 72.5708 91.7493C72.402 91.6941 72.3387 91.4181 72.3387 91.0316C72.3387 90.8108 72.2964 90.7004 72.212 90.7004C71.7899 90.6452 71.3678 90.5348 70.9457 90.7556C70.8613 90.8108 70.8191 90.9212 70.8824 91.142C70.9457 91.3628 71.009 91.5837 71.0512 91.8045C71.0935 92.0253 71.0723 92.1357 70.9668 92.1909C70.7136 92.3565 70.4814 92.3565 70.2493 92.0805C70.1859 91.9701 70.1437 91.8597 70.1648 91.6389C70.1859 91.2524 70.3126 90.9764 70.2915 90.59C70.2915 90.4244 70.2281 90.2588 70.1648 90.2588C70.0593 90.2036 69.9538 90.314 69.8483 90.4244C69.6794 90.59 69.5106 90.6452 69.3417 90.4796C69.1729 90.314 69.0041 90.2036 68.8352 90.4244C68.6875 90.6452 68.4764 90.59 68.3498 90.866C68.2865 90.9764 68.2865 91.142 68.3076 91.3629C68.3287 91.4181 68.3498 91.5285 68.392 91.5285C68.4131 91.5837 68.4553 91.5837 68.4975 91.5837C68.6242 91.4733 68.7719 91.3629 68.8985 91.2524C69.004 91.1972 69.1096 91.2524 69.1729 91.4733C69.2573 91.7493 69.2151 92.0253 69.1096 92.1357C69.0674 92.1909 69.0463 92.2461 69.004 92.2461C68.7297 92.3013 68.4342 92.3013 68.1598 92.3565C68.0965 92.3565 68.0121 92.3013 67.9488 92.2461C67.8222 92.1357 67.6955 91.8597 67.5478 91.9149C67.4423 91.9701 67.3367 92.0805 67.2523 92.1357C67.1679 92.1909 67.0413 91.8597 67.0202 91.6389C67.0202 91.3629 67.0624 91.0868 67.0835 90.866C67.0835 90.6452 67.0413 90.5348 66.978 90.4244C66.9357 90.3692 66.9146 90.314 66.8724 90.314C66.5981 90.2588 66.3026 90.2588 66.0282 90.2036C65.775 90.1484 65.5428 90.2036 65.2895 90.2588C65.1629 90.2588 65.1418 90.4244 65.1418 90.8108C65.1418 91.142 65.0574 91.3629 64.973 91.2524C64.8463 91.0868 64.7197 90.9212 64.5931 90.8108C64.572 90.7556 64.572 90.6452 64.5509 90.59C64.5298 90.5348 64.5087 90.5348 64.4875 90.5348C64.4875 90.6452 64.5298 90.7556 64.5931 90.7556C64.572 91.3629 64.4875 91.8045 64.2554 92.0253C64.0654 92.2461 63.8544 92.4117 63.6644 92.6326C63.5589 92.743 63.5589 93.0742 63.6433 93.295C63.6644 93.3502 63.6856 93.4606 63.7278 93.4606C63.8333 93.5158 63.9388 93.571 64.0443 93.571C64.2132 93.6262 64.4031 93.6262 64.572 93.7918C64.8041 94.0126 65.0574 94.0679 65.3106 94.0679C66.1549 94.0126 67.0202 94.0679 67.8644 94.1231C68.0754 94.1231 68.2865 94.0126 68.4764 93.6814C68.6453 93.4054 68.8141 93.4606 68.9829 93.6814C69.0885 93.7918 69.1518 94.0126 69.2151 94.2335C69.2995 94.5095 69.2573 95.0615 69.1096 95.1167C69.0674 95.1167 69.0463 95.1719 69.004 95.1719C68.6875 95.2271 68.3709 95.2823 68.0543 94.9511C67.9488 94.8407 67.8644 94.8407 67.7588 94.9511C67.6533 95.0615 67.5478 95.1167 67.4423 95.1719C67.379 95.2271 67.2945 95.1719 67.2312 95.1719C66.9146 95.1719 66.5981 95.1719 66.2815 95.2271C65.9227 95.2823 65.585 95.1719 65.2262 94.9511C65.1629 94.8959 65.0785 94.9511 65.0152 95.0063C64.783 95.2823 64.5298 95.1719 64.2765 95.2271C64.0232 95.2823 63.7911 95.1719 63.5378 95.0063C63.3901 94.8959 63.2635 94.8959 63.1157 94.9511C62.7358 95.2271 62.3559 95.2823 61.976 94.8959C61.8705 94.7855 61.765 94.7855 61.6595 94.7855C61.4062 94.7303 61.174 94.6751 60.9208 94.7303C60.4565 94.7855 59.9922 94.8959 59.5489 94.8407C59.0846 94.7855 58.6203 94.6751 58.1771 94.6751C58.0716 94.6751 57.9661 94.6199 57.8605 94.5095C57.5862 94.1231 57.3118 94.2335 57.0374 94.4543C56.8897 94.5647 56.7631 94.5647 56.6364 94.3991C56.4043 94.1783 56.151 94.2335 55.8978 94.3991C55.8344 94.4543 55.7711 94.5647 55.7289 94.6751C55.6656 94.7855 55.6234 94.9511 55.5812 95.0615C55.539 94.9511 55.4757 94.8407 55.4334 94.7303C55.3701 94.6199 55.3279 94.5095 55.2646 94.4543C55.1591 94.3991 55.0536 94.3439 54.948 94.3439C53.8928 94.3991 52.8164 94.2887 51.7612 94.2887C51.5923 94.2887 51.4024 94.2887 51.2335 94.3439C50.9803 94.3991 50.7481 94.3439 50.5159 94.0679C50.3471 93.847 50.1783 93.9022 49.9883 93.9574C49.7773 94.0126 49.5873 94.2335 49.3552 94.0127C49.2919 93.9575 49.2074 94.0126 49.1441 94.1231C48.9753 94.3439 48.8064 94.2887 48.6376 94.0679C48.5532 93.9574 48.4476 93.847 48.3421 93.847C48.1311 93.9022 47.92 93.9574 47.709 93.9022C47.4979 93.847 47.2869 93.847 47.0758 93.847C46.8014 93.847 46.506 93.847 46.2316 93.9022C46.0628 93.9022 45.8728 94.0126 45.704 94.1783C45.5351 94.3991 45.3663 94.3439 45.1975 94.1783C45.0919 94.0678 44.9864 94.0679 44.8809 94.0679C44.5221 94.0126 44.1633 94.0126 43.8256 93.9574C43.6779 93.9574 43.5513 93.9022 43.4035 93.7918C43.298 93.6814 43.1925 93.6814 43.0869 93.7918C42.9603 93.9022 42.8126 93.9575 42.6648 94.0127C42.3061 94.0127 41.9473 94.0679 41.6096 94.0679C41.2297 94.1231 40.8287 94.0679 40.4488 93.847C40.3011 93.7366 40.1744 93.7918 40.0267 93.9022C39.689 94.1231 39.3302 94.1231 38.9714 94.1783C38.5493 94.2335 38.1272 94.2335 37.7051 94.1783C37.4308 94.1231 37.1353 94.1231 36.8609 94.1783C36.6077 94.2335 36.3544 94.1783 36.1222 93.9022C36.0589 93.847 35.9745 93.7918 35.9112 93.9022C35.679 94.1783 35.4258 94.2335 35.1725 94.1783C34.4972 94.1783 33.8218 94.1231 33.1464 94.1231C33.0409 94.1231 32.9354 94.1231 32.8298 94.0127C32.45 93.6262 32.0701 93.6262 31.6691 93.6814C31.5002 93.7366 31.3103 93.7918 31.1414 93.9574C31.0781 94.0126 31.0148 94.0679 30.9304 94.0679C30.5716 94.1231 30.2128 94.1231 29.8751 94.0679C29.5374 93.7366 29.1787 93.7918 28.8199 93.7366C28.6721 93.7366 28.5455 93.7918 28.3978 93.9574C28.3345 94.0126 28.2711 94.0126 28.1867 93.9574C28.0601 93.847 27.9123 93.7366 27.7646 93.847C27.5114 93.9575 27.2792 94.0126 27.0259 93.847C26.6038 93.847 26.1817 93.571 25.7596 93.7366C25.3797 93.6814 24.9787 93.6814 24.5988 93.6262C24.5355 93.6262 24.4511 93.571 24.3878 93.5158C24.1556 93.295 23.9024 93.2398 23.6491 93.2398C23.3959 93.2398 23.1426 93.2398 22.9104 93.1846C22.7416 93.1846 22.5516 93.0742 22.3828 92.9638C22.1718 92.7982 21.9607 92.7982 21.7497 92.9638C21.6863 93.019 21.623 92.9638 21.5386 92.9086C21.4331 92.8534 21.3275 92.743 21.222 92.743C20.5467 92.743 19.8713 92.6878 19.1959 92.6326C19.006 92.6326 18.8371 92.5773 18.6683 92.4117C18.4995 92.2461 18.3306 92.3013 18.1407 92.4117C17.7608 92.743 17.3809 92.743 17.001 92.3565C16.8955 92.2461 16.7899 92.2461 16.6844 92.1909C16.5156 92.1909 16.3256 92.1909 16.1568 92.1909C16.0091 92.1909 15.8824 92.0805 15.7347 92.0805C15.4392 91.6941 15.1226 91.7493 14.8061 91.6941C14.5528 91.6389 14.3206 91.6389 14.0674 91.5837C13.8141 91.5837 13.582 91.5285 13.3498 91.2524C12.8222 91.0868 12.3157 90.5348 11.788 90.5348C11.6403 90.5348 11.5137 90.4244 11.387 90.314C11.2604 90.1484 11.1127 90.0932 10.9649 90.0932C10.9016 90.0932 10.8172 90.0932 10.7539 90.0379C10.3951 89.6515 9.99409 89.5411 9.6142 89.4307C9.52978 89.4307 9.42425 89.0443 9.44536 88.8235C9.46646 88.6578 9.48757 88.437 9.48757 88.2714C9.48757 88.1058 9.44536 87.9402 9.36094 87.885C9.31873 87.8298 9.29762 87.8298 9.25541 87.8298C8.95994 87.885 8.70668 87.4986 8.45341 87.1673C8.3901 87.1121 8.34789 86.8913 8.32678 86.7257C8.24236 86.1737 8.07352 85.8424 7.86247 85.6768C7.65142 85.5112 7.46147 85.2904 7.27153 85.1248C7.10269 85.0144 6.93385 84.904 6.765 84.7384C6.65948 84.6279 6.55395 84.5727 6.44843 84.5175C6.27959 84.4623 6.08964 84.4071 5.9419 84.2415C5.64643 83.9655 5.30875 83.9655 4.99217 84.0207C4.90775 84.0207 4.84444 84.1311 4.84444 84.2415C4.84444 84.2967 4.88665 84.4071 4.90775 84.4623C5.1188 84.7384 5.35096 85.0144 5.56201 85.3456C5.70975 85.5664 5.83638 85.5112 5.96301 85.3456C6.00522 85.2904 6.02633 85.2904 6.06854 85.2352C6.27959 85.0696 6.49064 85.1248 6.65948 85.5112C6.78611 85.8424 6.91274 86.1185 7.06048 86.3945C7.18711 86.6153 7.31374 86.6153 7.46147 86.4497C7.52479 86.3945 7.5881 86.2841 7.65142 86.2841C7.71474 86.2289 7.79916 86.3393 7.82026 86.5601C7.84137 86.7809 7.79916 86.9465 7.73584 87.0017C7.71474 87.0569 7.67252 87.1121 7.65142 87.1121C7.44037 87.1673 7.22932 87.2225 7.01827 87.2225C6.84942 87.2225 6.65948 87.2225 6.49064 87.0017C6.21627 86.7257 5.9419 86.6705 5.64643 86.6705C5.4987 86.6705 5.37207 86.7257 5.22433 86.7257C5.1188 86.7257 4.99217 86.7257 4.90775 86.6153C4.65449 86.2289 4.38012 86.1737 4.08465 86.2289C3.83139 86.2841 3.57813 86.2841 3.34597 86.2841C3.24045 86.2841 3.13492 86.2841 3.0294 86.3945C2.75503 86.7257 2.48066 86.7257 2.2063 86.7257C1.74198 86.7257 1.27767 86.7809 0.834462 86.6153C0.728936 86.5601 0.644516 86.3945 0.560095 86.2289C0.49678 86.0633 0.49678 85.8976 0.5812 85.7872C0.792252 85.5112 0.897777 85.1248 0.982198 84.5727C1.0033 84.3519 1.0033 84.1863 0.939988 84.0759C0.728936 83.7447 0.602305 83.1374 0.391254 82.751C0.264623 82.5302 0.285728 82.2542 0.412359 81.8125C0.560095 81.4261 0.560095 81.3709 0.412359 81.2605C0.306833 81.2053 0.201308 81.1501 0.116887 80.9845C0.0535718 80.8741 -0.0308487 80.4324 0.0113616 80.2668C0.0324667 80.1012 0.0535719 79.9356 0.0957821 79.77C0.201308 79.2731 0.264623 78.7763 0.243518 78.1691C0.222413 77.617 0.222413 77.065 0.264623 76.5129C0.285728 76.3473 0.285728 76.1265 0.306833 75.9609C0.349044 75.5193 0.53899 75.1328 0.707831 75.188C0.771146 75.188 0.855567 75.2432 0.918882 75.2984C0.982198 75.3537 1.06662 75.2984 1.12993 75.2432C1.25656 75.0776 1.4043 75.0224 1.55204 75.0224C1.76309 75.0224 1.97414 75.0224 2.18519 75.0224C2.18519 75.0776 2.2063 75.188 2.2063 75.2432C2.2274 75.2984 2.24851 75.2984 2.26961 75.2984C2.26961 75.188 2.2274 75.1328 2.16409 75.0776C2.12188 74.8016 2.03745 74.636 1.93193 74.5808C1.8264 74.5256 1.72088 74.5256 1.61535 74.5808C1.4043 74.636 1.19325 74.5808 1.0033 74.3048C0.834462 74.084 0.665621 74.0288 0.49678 73.9735C0.391254 73.9183 0.327939 73.5871 0.370149 73.3663C0.454569 72.9799 0.49678 72.483 0.665621 72.2622C0.750041 72.1518 0.771146 71.9862 0.728936 71.8758C0.707831 71.8206 0.665621 71.8206 0.644516 71.7654C0.5812 71.7102 0.517885 71.655 0.433464 71.5998C0.412359 71.5446 0.349044 71.4894 0.349044 71.4342C0.412359 70.7717 0.264623 70.1645 0.285728 69.502C0.306833 69.226 0.349044 69.0052 0.454569 68.8948C0.560095 68.7844 0.665621 68.7844 0.750041 68.6187C0.813357 68.5083 0.855567 68.2875 0.792252 68.1771C0.728936 67.9563 0.644516 67.8459 0.560095 67.6251C0.475675 67.4043 0.454569 67.1834 0.49678 66.9074C0.517885 66.797 0.53899 66.7418 0.53899 66.6866C0.62341 66.1898 0.62341 66.0242 0.49678 65.6929C0.454569 65.5825 0.391254 65.4721 0.349044 65.3065C0.264623 65.0857 0.285728 64.7545 0.327939 64.5336C0.433464 64.1472 0.644516 64.092 0.750041 63.7056C0.834462 63.4296 0.728936 63.0431 0.855567 62.7119C0.982198 62.4359 0.982198 62.3255 0.897777 62.0494C0.834462 61.8286 0.771146 61.6078 0.707831 61.387C0.644516 61.1662 0.686726 60.8902 0.771146 60.6693C0.792252 60.6141 0.834462 60.5589 0.855567 60.5037C0.939988 60.2829 0.939987 60.2277 0.897777 59.7861C0.876672 59.5101 0.834462 59.234 0.834462 58.958C0.834462 58.406 0.855567 57.8539 0.855567 57.3019C0.855567 56.9707 0.961093 56.8051 1.04551 56.7499C1.23546 56.5842 1.44651 56.3634 1.63646 56.253C1.69977 56.1978 1.78419 56.253 1.84751 56.3082C2.03745 56.3634 2.10077 56.253 2.10077 55.7562C2.10077 55.6458 2.10077 55.5906 2.07966 55.4802C2.14298 55.4802 2.2063 55.4802 2.26961 55.4802C2.29072 55.4802 2.33293 55.425 2.35403 55.3698C2.37514 55.3145 2.37514 55.2593 2.37514 55.2041C2.33293 55.0385 2.26961 55.0385 2.2063 55.1489C2.14298 55.2593 2.12188 55.3698 2.10077 55.5354C1.93193 55.5354 1.74198 55.4802 1.61535 55.0937C1.46762 54.6521 1.27767 54.4313 1.04551 54.4313C0.982198 54.4313 0.897777 54.3761 0.834462 54.3209C0.750041 54.2657 0.644516 53.9344 0.665621 53.7136C0.728936 53.272 0.728936 52.8304 0.665621 52.3887C0.644516 52.2231 0.665621 52.0023 0.707831 51.8919C0.897777 51.5055 1.08772 51.0638 1.27767 50.6774C1.34099 50.567 1.4043 50.567 1.48872 50.567C1.67867 50.567 1.8264 50.7878 1.99524 50.8982C2.05856 50.9534 2.14298 50.8982 2.2063 50.843C2.39624 50.567 2.52287 50.0702 2.71282 49.9045C2.79724 49.7941 2.81834 49.6285 2.75503 49.5733C2.73392 49.5181 2.69171 49.5181 2.6495 49.5181C2.58619 49.5181 2.50177 49.4629 2.43845 49.5733C2.31182 49.6837 2.18519 49.9045 2.05856 50.0149C1.88972 50.1806 1.72088 50.1254 1.55204 49.9045C1.53093 49.8493 1.48872 49.7941 1.46762 49.7389C1.4043 49.4077 1.34099 49.0765 1.29877 48.7453C1.23546 48.3036 1.12993 47.9724 0.961093 47.7516C0.834462 47.586 0.813357 47.1995 0.918882 46.8131C1.02441 46.4267 1.12993 46.0403 1.21435 45.6538C1.29877 45.3226 1.4043 45.157 1.55204 45.1018C1.93193 45.0466 2.33293 44.9914 2.71282 44.881C2.79724 44.881 2.83945 44.6601 2.83945 44.4945C2.86055 44.2737 2.81834 44.1081 2.75503 44.0529C2.69171 43.9977 2.6284 43.9425 2.56508 43.8873C2.39624 43.8873 2.2063 43.8873 2.03745 43.7217C1.93193 43.6665 1.84751 43.5009 1.8053 43.2248C1.76309 43.004 1.78419 42.8384 1.88972 42.8384C2.24851 42.728 2.58619 42.728 2.94498 42.728C3.00829 43.0592 3.11382 43.28 3.26155 43.28C3.43039 43.28 3.59923 43.28 3.76808 43.2248C3.78918 43.2248 3.83139 43.1696 3.8525 43.0592C3.8736 42.9488 3.83139 42.8384 3.74697 42.7832C3.4726 42.6176 3.21934 42.728 2.94498 42.728C2.90277 42.452 2.81834 42.2864 2.71282 42.2312C2.60729 42.176 2.50177 42.1208 2.43845 41.8999C2.37514 41.6791 2.37514 41.2927 2.48066 41.2375C2.54398 41.1823 2.60729 41.1271 2.69171 41.1271C2.83945 41.1271 2.96608 41.1823 3.11382 41.2927C3.24045 41.4031 3.38818 41.5135 3.51481 41.5687C3.78918 41.6239 4.06355 41.7343 4.33791 42.0103C4.46454 42.1208 4.61228 42.176 4.76002 42.176C5.1188 42.176 5.45649 42.1208 5.81527 42.0656C5.85748 42.0656 5.87859 42.0656 5.9208 42.0103C6.04743 41.9551 6.04743 41.7895 5.9419 41.7895C5.73085 41.6791 5.5198 41.6791 5.30875 41.6239C5.20322 41.5687 5.1188 41.4583 5.03438 41.2375C4.97107 41.0719 4.94996 40.9063 5.01328 40.7959C5.03438 40.7407 5.07659 40.6855 5.0977 40.6855C5.26654 40.7959 5.43538 40.9063 5.60422 40.9615C5.81527 41.0167 6.02632 40.9615 6.23738 40.9063C6.51174 40.8511 6.78611 40.5198 7.06048 40.5198C7.31374 40.5198 7.54589 40.4646 7.79916 40.4094C7.90468 40.3542 7.9891 40.1886 8.03131 39.9126C8.05242 39.9126 8.09463 39.8574 8.11573 39.8574C8.13684 39.8574 8.13684 39.747 8.13684 39.6918C8.07352 39.6918 8.05242 39.747 8.05242 39.9678C7.94689 39.9678 7.84137 39.9126 7.73584 39.9126C7.52479 39.8574 7.50368 39.747 7.54589 39.1949C7.5881 38.6981 7.5881 38.6429 7.52479 38.4221C7.33484 37.87 7.1449 37.318 6.95495 36.766C6.91274 36.6003 6.87053 36.4347 6.89163 36.2691C6.93385 36.1035 6.99716 36.0483 7.08158 36.0483C7.18711 35.9931 7.29263 35.9931 7.39816 35.9379C7.48258 35.8827 7.567 35.5515 7.567 35.3307C7.5881 34.889 7.5881 34.3922 7.52479 33.9505C7.44037 33.4537 7.33484 32.9569 7.25042 32.46C7.18711 32.1288 7.18711 31.7424 7.20821 31.356C7.20821 31.2455 7.22932 31.1903 7.25042 31.0799C7.33484 30.6383 7.33484 30.1967 7.22932 29.755C7.1449 29.4238 7.1449 29.0374 7.18711 28.7062C7.22932 28.4301 7.29263 28.2093 7.27153 27.9333C7.20821 27.4365 7.31374 27.05 7.41926 26.6636C7.48258 26.4428 7.48258 26.1668 7.41926 25.8907C7.39816 25.8355 7.39816 25.7251 7.37705 25.6147C7.29263 24.6763 7.29263 23.793 7.54589 22.9649C7.5881 22.7993 7.65142 22.6889 7.67253 22.5233C7.77805 21.8056 7.79916 21.088 7.63031 20.4255C7.54589 20.0943 7.44037 19.8735 7.27153 19.8735C7.20821 19.8735 7.12379 19.8735 7.06048 19.8735C7.01827 19.8735 6.99716 19.8735 6.95495 19.8183C6.91274 19.7631 6.87053 19.7631 6.87053 19.7079C6.84943 19.5975 6.89164 19.4871 6.97606 19.4319C7.03937 19.3767 7.12379 19.4319 7.18711 19.3767C7.41926 19.3215 7.50368 19.0454 7.35595 18.4934C7.18711 17.8861 7.20821 17.8309 7.46147 17.6101C7.567 17.5549 7.65142 17.4445 7.75695 17.2789C7.84137 17.1133 7.90468 16.8373 7.84137 16.5612C7.75695 16.1196 7.71474 15.678 7.73584 15.2363C7.77805 14.6843 7.73584 14.1323 7.69363 13.5802C7.63031 12.8626 7.63031 12.8626 7.75695 12.3105C7.77805 12.2553 7.79916 12.1449 7.82026 12.0897C7.86247 11.9241 7.86247 11.7585 7.84137 11.5929C7.71474 10.82 7.5881 10.1024 7.46147 9.3295C7.41926 8.99828 7.39816 8.94307 7.60921 8.77746C7.79916 8.61185 7.92579 8.39103 7.968 7.83899C7.968 7.72858 7.9891 7.67338 7.9891 7.56297C8.05242 7.34215 8.11573 7.12133 8.22126 7.06613C8.32678 7.01093 8.43231 7.01093 8.53784 6.95572C8.62226 6.90052 8.66447 6.79011 8.64336 6.6797C8.62226 6.6245 8.58005 6.56929 8.55894 6.51409C8.49563 6.45888 8.41121 6.45888 8.34789 6.40368C8.24236 6.34848 8.17905 6.01725 8.20015 5.74123C8.22126 5.57562 8.26347 5.3548 8.24236 5.18919C8.20015 4.91317 8.09463 4.80276 8.03131 4.63715C7.968 4.47154 7.968 4.30592 7.968 4.14031C8.01021 3.64347 8.15794 3.36745 8.32678 3.25704C8.60115 3.09143 8.89662 3.03623 9.17099 2.87062C9.38204 2.76021 9.57199 2.59459 9.80414 2.59459C10.0785 2.59459 10.374 2.48419 10.6272 2.15296C10.7539 1.98735 10.9016 1.98735 11.0493 1.98735C11.2604 1.93214 11.4714 1.93214 11.6825 1.76653C11.9147 1.54572 12.1679 1.49051 12.4212 1.43531C12.8433 1.3249 13.2654 1.3249 13.6875 0.993675C13.8141 0.883266 13.9619 0.883266 14.1096 0.883266C14.5739 0.828062 15.0382 0.828062 15.4814 0.496837C15.5447 0.441633 15.6292 0.496837 15.6925 0.552041C15.798 0.607246 15.9035 0.607246 16.0091 0.496837C16.2412 0.276021 16.4945 0.220817 16.7477 0.220817C17.3176 0.165612 17.8874 0.165612 18.4572 0.165612C19.0693 0.165612 19.6602 0.110408 20.2723 0.110408C21.0954 0.110408 21.8974 0.110408 22.7205 0.0552041C23.2481 -4.11303e-09 23.7757 0.0552041 24.3245 0C24.5144 0 24.6833 0.110408 24.831 0.331225C24.8943 0.441633 24.9576 0.386429 25.0421 0.331225C25.1687 0.165612 25.3164 0.110408 25.4642 0.110408C26.0762 0.110408 26.6671 0.110408 27.2792 0.110408C27.3214 0.110408 27.3636 0.110408 27.3847 0.110408C27.5747 0.331225 27.7857 0.331225 27.9968 0.276021C28.3133 0.66245 28.6088 0.552041 28.9254 0.220817C29.0942 0.0552041 29.2631 0 29.453 0C29.7063 0.0552041 29.9595 -1.64521e-08 30.1917 0.220817C30.255 0.276021 30.3394 0.220817 30.4028 0.165612C30.5927 0 30.7193 0.165612 30.846 0.607246C30.9726 1.04888 31.1203 1.10408 31.3103 0.828062C31.5002 0.552041 31.6902 0.441633 31.9223 0.441633C32.2389 0.441633 32.5555 0.386429 32.8721 0.441633C33.0409 0.496837 33.2308 0.441633 33.3997 0.331225C33.5685 0.165612 33.7374 0.276021 33.9273 0.331225C34.4338 0.496837 35.4258 0.552041 36.0589 0.496837C36.3122 0.441633 36.5443 0.441633 36.7976 0.441633C36.9031 0.441633 37.0087 0.496837 37.0931 0.66245C37.2619 0.883266 37.4308 0.93847 37.5996 0.717654C37.684 0.607246 37.7896 0.496837 37.8951 0.496837C38.1694 0.552041 38.4649 0.496837 38.7393 0.772858C39.0348 1.04888 39.3724 0.993675 39.689 0.993675C39.7523 0.993675 39.8368 0.93847 39.9001 0.883266C40.0689 0.717654 40.2378 0.607246 40.4066 0.607246C40.681 0.607246 40.9764 0.552041 41.2508 0.496837C41.4618 0.496837 41.6729 0.552041 41.8839 0.772858C41.9895 0.883266 42.095 0.93847 42.2005 0.93847C42.5593 0.93847 42.9181 0.993675 43.2558 0.66245C43.3824 0.552041 43.5302 0.496837 43.6779 0.496837C43.8889 0.496837 44.1 0.552041 44.311 0.772858C44.4377 0.93847 44.5643 1.04888 44.712 1.21449C44.7754 1.2697 44.8387 1.2697 44.9231 1.21449C45.2608 0.93847 45.6196 0.993675 45.9783 0.993675C46.0839 0.993675 46.105 1.15929 46.0839 1.3801C46.0628 1.60092 46.0628 1.76653 46.1261 1.87694C46.1894 1.98735 46.2527 2.04255 46.3371 1.98735C46.4427 1.93214 46.5482 1.87694 46.6537 1.82174C46.717 1.76653 46.7803 1.76653 46.8648 1.82174C46.9703 1.93214 47.0758 1.93214 47.1813 1.98735C47.3291 2.04255 47.4768 2.04255 47.6034 1.87694C48.0044 1.3801 48.4265 1.43531 48.8486 1.3801C48.9542 1.3801 49.0597 1.49051 49.1441 1.65612C49.2919 1.93214 49.3763 2.31857 49.4818 2.705C49.524 2.87062 49.6084 2.92582 49.6717 2.92582C49.7351 2.92582 49.8195 2.98102 49.8828 2.92582C50.115 2.6498 50.3893 2.98102 50.6004 2.6498C50.8114 2.53939 51.0225 2.37378 51.2124 2.20817C51.3179 2.09776 51.4235 2.15296 51.529 2.26337C51.5923 2.31857 51.6556 2.42898 51.74 2.42898C52.3099 2.48419 52.8797 2.59459 53.4496 2.42898C53.5551 2.37378 53.6395 2.20817 53.7028 1.98735L53.6817 2.04255C53.7872 2.09776 53.8928 2.04255 53.9983 2.15296C54.146 2.31857 54.2516 2.37378 54.3782 2.09776C54.4204 1.98735 54.4837 1.87694 54.547 1.76653C54.6103 1.65612 54.6737 1.60092 54.737 1.54572C55.0536 1.43531 55.3701 1.3801 55.6867 1.3249C55.94 1.3249 56.1721 1.3801 56.4254 1.49051C56.5731 1.54572 56.552 1.87694 56.552 2.09776C56.552 2.15296 56.5731 2.26337 56.5942 2.31857C56.6998 2.48419 57.2485 2.87062 57.3962 2.92582C57.5651 2.98102 57.755 2.98102 57.9239 3.03623C58.0716 3.03623 58.1982 3.14664 58.3249 3.36745C58.4515 3.53307 58.5781 3.69868 58.7047 3.80909C58.7681 3.86429 58.8525 3.91949 58.9158 3.91949C59.2324 3.80909 59.5489 4.19551 59.8655 4.08511C60.0344 4.0299 60.2243 4.08511 60.3932 4.14031C60.773 4.25072 61.174 4.25072 61.5539 4.19551C61.8072 4.14031 62.0394 4.30592 62.2715 4.52674C62.4403 4.69235 62.6092 4.63715 62.7991 4.58194C62.8625 4.52674 62.9469 4.52674 63.0102 4.41633C63.179 4.25072 63.3479 4.19551 63.5378 4.14031C63.7911 4.14031 64.0232 4.08511 64.2765 4.08511C64.4664 4.08511 64.6353 4.19551 64.783 4.41633C64.9308 4.58194 65.0574 4.58194 65.184 4.36113C65.374 4.08511 65.5428 3.80909 65.6483 3.25704C65.7539 2.705 65.9649 2.53939 66.176 2.48419C66.387 2.42898 66.5981 2.48419 66.8091 2.48419C66.9146 2.48419 67.0202 2.48419 67.1257 2.59459C67.6111 2.98102 68.0965 2.98102 68.6031 3.03623C68.8563 3.03623 69.0885 3.09143 69.3417 3.36745C69.4473 3.47786 69.5528 3.47786 69.6583 3.47786C70.3759 3.47786 71.0723 3.53306 71.7899 3.53306C72.0432 3.53306 72.2753 3.64347 72.5075 3.86429C72.6341 4.0299 72.7819 4.0299 72.9296 4.08511C73.0773 4.08511 73.204 4.08511 73.3517 4.08511C73.6683 4.08511 73.9849 4.08511 74.3014 4.14031C74.4492 4.14031 74.5758 4.19551 74.7235 4.30592C74.9346 4.47154 75.1456 4.52674 75.3567 4.52674C75.7788 4.52674 76.2009 4.58194 76.623 4.58194C76.8763 4.58194 77.1084 4.63715 77.3617 4.91317C77.5305 5.07878 77.6994 5.07878 77.8893 5.07878C78.4591 5.13399 79.029 5.13399 79.5988 5.18919C79.7466 5.18919 79.8943 5.18919 80.0209 5.2996C80.3375 5.57562 80.6541 5.63082 80.9707 5.63082C81.3505 5.63082 81.7515 5.63082 82.1314 5.68603C82.2792 5.68603 82.4269 5.68603 82.5535 5.79643C82.8279 6.01725 83.1023 6.07246 83.3978 6.07246C83.651 6.07246 83.8832 6.12766 84.1364 6.12766C84.242 6.12766 84.3475 6.12766 84.453 6.23807C84.8329 6.6797 85.2128 6.56929 85.6138 6.6245C85.7615 6.6245 85.8882 6.6245 86.0359 6.6245C86.2258 6.6245 86.3947 6.7349 86.5424 6.95572C86.7113 7.17654 86.8801 7.28695 87.0489 7.23174C87.661 7.06613 88.2519 7.17654 88.8429 7.23174C88.9906 7.23174 89.1172 7.28695 89.265 7.45256C89.4338 7.61817 89.6027 7.67338 89.7926 7.67338C90.067 7.67338 90.3624 7.72858 90.6368 7.72858C90.9112 7.78378 91.2066 7.78378 91.481 8.0046C91.6076 8.11501 91.7554 8.11501 91.9031 8.17021C92.1564 8.22542 92.3885 8.22542 92.6418 8.28062C92.7473 8.28062 92.8528 8.28062 92.9584 8.39103C93.2961 8.77746 93.6548 8.77746 93.9925 8.77746C94.3513 8.77746 94.689 8.94307 95.0478 9.16389C95.4699 9.3847 95.892 9.3295 96.3141 9.43991C96.3352 9.43991 96.3774 9.49511 96.3774 9.55032C96.3774 9.66073 96.3563 9.77113 96.3352 9.82634C96.2719 9.93675 96.2086 9.99195 96.1664 10.1024C96.103 10.2128 96.0608 10.3784 96.0186 10.4888C95.9975 10.544 95.9764 10.6544 95.9975 10.7096C96.0186 10.7648 96.0608 10.8752 96.0819 10.8752C96.2508 10.9304 96.4407 10.9304 96.6096 11.0408C96.9895 11.2064 97.0317 11.2064 97.2849 10.82C97.306 10.7648 97.3271 10.7096 97.3482 10.5992C97.3693 10.544 97.3693 10.4336 97.3904 10.3232L97.3694 10.3784C97.4749 10.4336 97.5382 10.6544 97.5593 10.9304C97.4116 10.7648 97.4116 10.9304 97.4327 11.096ZM10.5217 8.50144C10.585 8.50144 10.6483 8.50144 10.7117 8.50144C10.7328 8.50144 10.775 8.44623 10.7961 8.39103C10.8172 8.33582 10.8172 8.28062 10.8172 8.22542C10.775 8.11501 10.7117 8.0598 10.6483 8.17021C10.585 8.17021 10.5428 8.33582 10.5217 8.50144C10.5006 8.55664 10.4795 8.55664 10.4373 8.61185C10.4162 8.61185 10.4162 8.72225 10.4162 8.77746C10.4795 8.83266 10.5217 8.72225 10.5217 8.50144ZM9.46646 7.39735C9.84635 7.45256 10.2474 7.39735 10.6061 7.01093C10.6695 6.95572 10.7328 6.90052 10.8172 6.90052C11.1338 6.79011 11.4503 6.73491 11.7669 6.90052C11.8091 6.90052 11.8513 6.95572 11.8724 7.01093C11.8936 7.12133 11.8724 7.28695 11.8091 7.39735C11.7458 7.50776 11.7247 7.67338 11.7669 7.78378C11.788 7.83899 11.8302 7.89419 11.8513 7.89419C12.0624 7.9494 12.2734 7.89419 12.4634 7.56297C12.6322 7.23174 12.8011 6.84531 12.991 6.6797C13.0332 6.6245 13.0543 6.56929 13.0754 6.51409C13.1599 6.34848 13.2021 6.07246 13.2654 5.85164C13.3076 5.68603 13.2021 5.24439 13.1388 5.18919C12.8855 5.07878 12.6533 5.13398 12.4001 5.2996C12.2312 5.41001 12.0624 5.63082 11.8936 5.63082C11.6825 5.68603 11.4714 5.68603 11.2604 5.79643C11.0493 5.90684 10.8594 6.12766 10.6483 6.23807C10.2896 6.34848 9.97298 6.73491 9.6353 7.01093C9.52978 7.06613 9.48757 7.23174 9.46646 7.39735C9.27652 7.39735 9.06546 7.39735 8.85441 7.50776C8.8122 7.50776 8.7911 7.61817 8.76999 7.67338C8.7911 7.72858 8.8122 7.78378 8.83331 7.83899C8.95994 7.9494 9.10767 8.0046 9.25541 7.89419C9.33983 7.78378 9.42425 7.67338 9.46646 7.39735ZM51.5923 92.0253C51.7189 91.8597 51.8456 91.6941 51.9722 91.5285C52.0355 91.4733 52.1199 91.4733 52.1833 91.4181C52.2255 91.4181 52.2466 91.4181 52.2888 91.4733C52.3732 91.5285 52.3943 91.6941 52.3732 91.9149C52.3521 92.2461 52.4154 92.4117 52.542 92.4117C52.7531 92.4117 52.9641 92.4117 53.1752 92.4117C53.2807 92.4117 53.3862 92.3565 53.4707 92.1909C53.7028 91.8045 53.935 91.9149 54.1882 92.0253C54.5681 92.4669 54.948 92.4117 55.3279 92.2461C55.3701 92.2461 55.3912 92.1909 55.4334 92.1909C55.4968 92.1357 55.5601 92.1909 55.6445 92.2461C55.75 92.3565 55.8555 92.4117 55.9611 92.4117C56.1088 92.4669 56.2143 92.6878 56.2988 93.019C56.3621 93.295 56.4465 93.4054 56.552 93.4054C56.5942 93.4054 56.6153 93.4054 56.6575 93.4054C56.9108 93.4054 57.1641 93.4054 57.3962 93.4054C57.7128 93.3502 58.0083 92.9086 58.3249 92.9086C58.3882 92.9086 58.4515 92.7982 58.5148 92.743C58.557 92.6878 58.5781 92.6326 58.5992 92.6326C58.6836 92.5221 58.7892 92.3565 58.8947 92.3565C59.2535 92.3565 59.6123 92.3565 59.9499 92.4117C60.0555 92.4117 60.161 92.5221 60.2243 92.743C60.3509 93.1294 60.4987 93.295 60.6886 93.3502C61.3218 93.5158 61.9549 93.4054 62.6092 93.3502C62.7147 93.3502 62.7991 93.1846 62.8625 92.9086C62.9047 92.6878 62.9891 92.4669 63.0735 92.3013C63.1579 92.1909 63.1579 92.0253 63.1368 91.9149C63.1157 91.8597 63.0735 91.8045 63.0524 91.8045C62.7991 91.6941 62.567 91.6941 62.3137 91.4733C62.2504 91.4181 62.166 91.4181 62.1027 91.4733C61.9549 91.5837 61.8283 91.5837 61.6806 91.4181C61.4484 91.1972 61.2163 90.9764 60.9841 90.8108C60.8575 90.7004 60.7097 90.7556 60.5831 90.9212C60.4354 91.142 60.2665 91.3076 60.0766 91.3076C59.9077 91.3076 59.7178 91.3076 59.5489 91.3076C59.359 91.3076 59.1902 91.1972 59.0424 90.9212C58.9158 90.7004 58.7892 90.6452 58.6414 90.6452C58.1138 90.6452 57.5862 90.5348 57.0585 90.8108C56.8053 90.8108 56.552 90.7556 56.3199 90.8108C55.3279 90.866 54.336 90.8108 53.344 90.8108C52.6687 90.8108 51.9933 90.8108 51.3179 90.866C51.2757 90.866 51.2546 90.866 51.2124 90.9212C51.1702 90.9212 51.1491 90.9764 51.1069 91.0316C51.0014 91.0868 50.9592 91.4181 51.0225 91.6941C51.1702 92.5221 51.4024 92.6325 51.5923 92.0253ZM82.5113 9.66072C82.7857 9.2743 83.1023 8.99828 83.3978 8.77746C83.4611 8.72225 83.5244 8.77746 83.6088 8.83266C83.7143 8.88787 83.8199 8.94307 83.9254 8.99828C84.0942 8.99828 84.2842 8.99828 84.453 8.99828C84.6007 8.99828 84.7274 9.05348 84.854 9.2743C85.0228 9.49511 85.1917 9.55032 85.3605 9.49511C85.5716 9.43991 85.7615 9.21909 85.9937 9.3295C86.057 9.3847 86.1203 9.2743 86.1836 9.16389C86.3525 8.94307 86.5213 8.94307 86.6902 9.16389C86.7746 9.2743 86.8801 9.3847 86.9856 9.49511C87.0911 9.60552 87.1756 9.55032 87.2811 9.3295C87.3866 9.05348 87.3655 8.77746 87.26 8.66705C86.8379 8.22542 86.3947 7.89419 85.9093 8.0046C85.8459 8.0046 85.7615 8.0046 85.6982 8.0046C85.4449 8.0046 85.2128 7.89419 84.9806 7.61817C84.8962 7.50776 84.7696 7.45256 84.6641 7.45256C84.5163 7.39736 84.3897 7.39736 84.242 7.45256C83.5033 7.61817 82.7435 7.45256 82.0048 7.45256C81.8993 7.45256 81.7938 7.34215 81.6882 7.23174C81.5616 7.12133 81.4139 7.01093 81.3083 6.79011C81.0973 6.40368 80.844 6.34848 80.6119 6.12766C80.5486 6.07246 80.4641 6.01725 80.4008 6.12766C80.232 6.34848 80.0631 6.45888 79.8943 6.45888C79.5777 6.45888 79.2611 6.45888 78.9446 6.73491C78.8812 6.79011 78.7968 6.7349 78.7335 6.6797C78.628 6.6245 78.5225 6.45888 78.438 6.45888C78.227 6.40368 78.037 6.07246 77.8682 5.74123C77.7627 5.46521 77.6149 5.41001 77.4672 5.41001C77.1506 5.41001 76.8341 5.41001 76.5175 5.41001C76.2431 5.41001 75.9476 5.46521 75.6944 5.79643C75.6311 5.85164 75.5466 5.85164 75.4833 5.85164C75.3778 5.85164 75.2512 5.85164 75.1667 5.74123C74.9135 5.41001 74.618 5.41001 74.3648 5.07878C74.2381 4.91317 74.0904 4.85796 73.9426 4.85796C73.7316 4.85796 73.5205 4.85796 73.3095 4.85796C73.0562 4.85796 72.8241 4.69235 72.5919 4.47154C72.4864 4.36113 72.3598 4.47154 72.2964 4.69235C72.212 4.96837 72.1065 5.24439 72.001 5.46521C71.8955 5.63082 71.9166 5.85164 72.0221 6.12766C72.1065 6.34848 72.1487 6.34848 72.3176 6.23807C72.4231 6.12766 72.5286 6.12766 72.6341 6.23807C72.803 6.40368 72.9507 6.56929 73.1195 6.79011C73.1829 6.84531 73.2673 6.84531 73.3306 6.73491C73.5628 6.45888 73.816 6.40368 74.0693 6.40368C74.4914 6.45888 74.9135 6.40368 75.3356 6.79011C75.3989 6.73491 75.4833 6.7349 75.5255 6.6797C75.6311 6.56929 75.7366 6.56929 75.821 6.6797C75.8843 6.79011 75.9476 6.90052 75.9898 7.01093C76.1587 7.39735 76.3486 7.61817 76.5808 7.56297C77.1084 7.45256 77.636 7.67338 78.1637 7.50776C78.227 7.50776 78.3114 7.56297 78.3747 7.56297C78.5225 7.61817 78.6069 7.89419 78.6491 8.33582C78.6702 8.72225 78.5436 9.10868 78.4169 8.99828C78.1848 8.77746 77.9315 8.72225 77.6783 8.72225C77.1506 8.77746 76.623 8.77746 76.0954 8.39103C76.0321 8.33582 75.9687 8.39103 75.8843 8.44623C75.821 8.50144 75.7577 8.55664 75.6733 8.55664C75.1456 8.61185 74.618 8.61185 74.0693 8.61185C74.006 8.61185 73.9215 8.55664 73.8582 8.50144C73.6894 8.28062 73.5205 8.22542 73.3517 8.22542C72.9296 8.22542 72.5075 8.22542 72.0643 8.22542C71.8532 8.22542 71.6422 8.17021 71.4311 7.9494C71.1568 7.67338 70.8824 7.56297 70.5869 7.61817C70.3759 7.61817 70.1648 7.61817 69.9538 7.61817C69.7638 7.61817 69.595 7.50776 69.4473 7.28695C69.3206 7.12133 69.1729 7.12133 69.0252 7.23174C68.8985 7.34215 68.7719 7.50776 68.6453 7.67338C68.5819 7.78378 68.5397 7.9494 68.5608 8.0598C68.5819 8.11501 68.6242 8.17021 68.6453 8.17021C69.0252 8.22542 69.4262 8.22542 69.806 8.28062C69.9538 8.28062 70.0804 8.33582 70.2281 8.44623C70.4392 8.61185 70.6502 8.66705 70.8613 8.66705C71.2834 8.66705 71.7055 8.66705 72.1276 8.72225C72.2753 8.72225 72.4231 8.77746 72.5497 8.88787C72.7819 9.10868 73.0351 9.16389 73.2884 9.16389C73.8582 9.10868 74.4281 9.2743 74.9979 9.2743C75.1456 9.2743 75.2723 9.3295 75.42 9.43991C75.6944 9.66072 75.9687 9.77113 76.2642 9.77113C76.6863 9.71593 77.1084 9.77113 77.5305 10.1024C77.6572 10.2128 77.8049 10.1576 77.9526 10.2128C78.4592 10.268 78.9446 10.3232 79.4511 10.3784C79.5988 10.3784 79.7255 10.4336 79.8732 10.544C80.1476 10.7648 80.4219 10.82 80.7174 10.82C81.2239 10.82 81.7093 10.8752 82.2159 10.8752C82.3847 10.8752 82.5746 10.9856 82.7435 11.1512C82.8701 11.3168 83.0179 11.3168 83.1656 11.3168C83.4822 11.3168 83.7987 11.3721 84.1153 11.3721C84.2631 11.3721 84.4108 11.3721 84.5374 11.5377C84.8118 11.8137 85.0862 11.8689 85.3816 11.8689C85.7615 11.8689 86.1625 11.8689 86.5424 11.9241C86.6479 11.9241 86.7535 11.9241 86.859 12.0345C87.1334 12.3105 87.4077 12.3657 87.7032 12.3657C88.4419 12.4209 89.2017 12.4209 89.9403 12.3105C90.0037 12.3105 90.0881 12.2553 90.1514 12.2553C90.1936 12.2553 90.2147 12.2001 90.2358 12.1449C90.278 12.0345 90.2358 11.9241 90.1303 11.8689C89.8137 11.7033 89.4971 11.8137 89.2017 11.4273C89.075 11.2616 88.9273 11.3168 88.7796 11.3168C88.463 11.3168 88.1464 11.3168 87.8298 11.3168C87.661 11.3168 87.471 11.2616 87.3022 11.096C87.0278 10.7648 86.7535 10.7096 86.4791 10.7096C86.1625 10.7096 85.8459 10.7096 85.5294 10.7096C85.2761 10.7096 85.044 10.5992 84.7907 10.3784C84.6641 10.268 84.5163 10.2128 84.3686 10.2128C84.1575 10.2128 83.9465 10.2128 83.7354 10.2128C83.4189 10.268 83.1023 10.2128 82.7857 10.1576C82.6802 10.1576 82.5958 9.93675 82.5535 9.66072H82.5113ZM48.2577 90.4244C47.6879 90.4796 47.2658 90.4796 46.8437 90.4796C46.8014 90.4796 46.7803 90.4796 46.7381 90.4796C46.6748 90.5348 46.5904 90.5348 46.5271 90.6452C46.3371 90.9212 46.1261 90.9212 45.915 90.9764C45.8517 90.9764 45.7884 91.0868 45.7251 91.142C45.6407 91.1972 45.514 91.6941 45.5562 91.8045C45.5985 91.9701 45.6829 91.9701 45.7462 92.0253C45.915 92.0805 46.105 92.0805 46.2738 91.8597C46.316 91.8045 46.3371 91.7493 46.3582 91.7493C46.5271 91.5837 46.5904 91.6941 46.5904 92.1909C46.5904 92.4117 46.6115 92.5221 46.717 92.5773C46.9281 92.6878 47.1391 92.5221 47.3502 92.5221C47.6034 92.5221 47.8356 92.5773 48.0889 92.5773C48.1522 92.5773 48.2155 92.4669 48.2788 92.3565C48.3843 92.2461 48.4265 91.9701 48.511 91.8045C48.5954 91.5837 48.7009 91.5285 48.8064 91.5837C48.8698 91.5837 48.9542 91.6389 49.0175 91.6941C49.4396 92.1357 49.8406 92.1357 50.2416 91.5837C50.326 91.4733 50.4526 91.4733 50.5582 91.4181C50.6426 91.3628 50.6848 91.2524 50.6426 91.142C50.6215 91.0868 50.5793 91.0316 50.5582 91.0316C50.3049 90.9764 50.0727 90.9212 49.8406 90.6452C49.714 90.4796 49.5662 90.4244 49.4185 90.4796C48.9542 90.4244 48.5321 90.4796 48.2577 90.4244ZM86.1836 32.9569C86.0781 33.0121 85.9515 33.0121 85.8037 33.1225C85.7615 33.1225 85.7404 33.2329 85.7193 33.2329C85.6349 33.3433 85.6138 33.4537 85.6138 33.6745C85.6349 33.8401 85.6771 34.061 85.7404 34.061C86.0148 34.1714 86.2892 34.4474 86.5424 34.8338C86.5635 34.889 86.6057 34.9442 86.6268 34.9442C86.7957 35.1098 86.9645 35.2202 87.1545 34.9994C87.3866 34.7786 87.6188 34.5578 87.872 34.5578C88.2308 34.5578 88.5896 34.613 88.9273 34.889C89.3705 35.2754 89.8348 35.2754 90.2991 35.0546C90.4047 34.9994 90.4891 34.8338 90.5524 34.613C90.5946 34.4474 90.6157 34.2818 90.5735 34.1162C90.5313 33.9505 90.4891 33.8401 90.4047 33.7849C90.3624 33.7849 90.3413 33.7297 90.2991 33.7297C89.877 34.061 89.4549 34.061 89.0539 33.6745C88.8851 33.5089 88.6951 33.5641 88.5263 33.3985C88.3152 33.1777 88.1253 33.2329 87.9142 33.4537C87.7454 33.6193 87.5555 33.6193 87.3866 33.5089C87.2389 33.3985 87.1123 33.2881 86.9856 33.1777C86.7324 33.0121 86.4791 32.9569 86.1836 32.9569ZM76.8763 13.9114C77.0873 13.6354 77.2562 13.1938 77.4883 12.9178C77.5094 12.8626 77.5516 12.8074 77.5516 12.697C77.5727 12.6417 77.5727 12.5313 77.5516 12.4209C77.5094 12.1449 77.4039 12.0345 77.2984 12.0345C77.1295 12.0345 76.9607 12.2553 76.8129 12.4209C76.623 12.697 76.5597 13.1938 76.7707 13.6906C76.813 13.8562 76.8341 13.8562 76.8763 13.9114ZM89.476 17.8861C89.476 17.6653 89.4338 17.5549 89.3494 17.4997C89.0328 17.3341 88.7373 17.4445 88.4208 17.3893C88.1886 17.3341 87.9353 17.3893 87.7032 17.4445C87.6188 17.4445 87.5766 17.6101 87.5977 17.6653C87.6188 17.7205 87.661 17.7757 87.6821 17.7757C87.9565 17.8309 88.2308 17.8861 88.5052 17.8309C88.7585 17.7757 88.9906 17.9413 89.2228 18.1622C89.2439 18.2174 89.2861 18.1622 89.3283 18.1622C89.4127 18.2174 89.4549 18.0518 89.476 17.8861ZM78.0159 15.8436C78.1426 15.8436 78.3114 15.8436 78.4803 15.8436C78.5014 15.8436 78.5647 15.7884 78.5647 15.7332C78.5858 15.5676 78.5436 15.402 78.4803 15.3468C78.3325 15.1259 78.1637 14.9603 77.9948 15.1259C77.8049 15.3468 77.5727 15.2363 77.4039 15.5124C77.3828 15.5676 77.3828 15.6228 77.3617 15.678C77.3828 15.7332 77.425 15.7884 77.4461 15.7884C77.6149 15.7884 77.8049 15.7884 78.0159 15.8436ZM10.8172 87.8298C10.8172 87.7194 10.7961 87.6642 10.7961 87.5538C10.7539 87.3329 10.7117 87.0569 10.6483 86.8361C10.6061 86.6705 10.5217 86.6153 10.4584 86.7257C10.3951 86.7809 10.3529 86.9465 10.3318 87.1121C10.3107 87.3882 10.3107 87.6642 10.374 87.885C10.4584 88.161 10.585 88.2162 10.7539 87.9954C10.775 87.9402 10.7961 87.885 10.8172 87.8298ZM91.3333 14.5739C91.27 14.5739 91.1855 14.5739 91.1222 14.6291C91.08 14.6291 91.0589 14.6843 91.0378 14.7395C91.0167 14.7947 90.9956 14.8499 90.9956 14.9051C91.0167 14.9603 91.0589 15.0707 91.08 15.0707C91.3122 15.1259 91.5443 15.2915 91.7976 15.3468C91.8187 15.3468 91.8609 15.2363 91.8609 15.1811C91.8609 15.1259 91.8609 14.9603 91.8398 14.9051C91.6921 14.5187 91.5021 14.6291 91.3333 14.5739ZM9.99409 25.2283C9.93077 25.2283 9.84635 25.3387 9.82525 25.5043C9.82525 25.5595 9.84635 25.6699 9.86746 25.7803C9.95188 26.1116 10.0785 26.2772 10.2262 26.2772C10.3107 26.2772 10.374 26.222 10.4162 26.1116C10.4584 26.0012 10.4373 25.8355 10.374 25.6699C10.2685 25.3387 10.1418 25.2283 9.99409 25.2283ZM101.4 65.1409C101.274 65.1409 101.126 65.1961 100.999 65.1961C100.978 65.1961 100.936 65.2513 100.915 65.3065C100.894 65.3617 100.936 65.5273 101.021 65.5273C101.253 65.5825 101.485 65.5825 101.738 65.5825C101.759 65.5825 101.801 65.5273 101.823 65.4721C101.844 65.4169 101.865 65.3617 101.886 65.3065C101.865 65.2513 101.844 65.1961 101.801 65.1409C101.675 65.0857 101.527 65.0857 101.4 65.1409ZM16.4945 2.705C16.5367 2.705 16.6211 2.705 16.6844 2.6498C16.7899 2.6498 16.811 2.53939 16.7899 2.31857C16.7688 2.15296 16.7055 2.04255 16.6422 1.98735C16.5367 1.93214 16.4523 2.09776 16.3467 2.20817C16.2834 2.26337 16.2201 2.37378 16.199 2.53939C16.2412 2.6498 16.3045 2.705 16.3889 2.705C16.3889 2.76021 16.4312 2.76021 16.4945 2.705ZM23.818 4.36113C23.9657 4.30592 24.029 4.30592 24.1134 4.30592C24.1556 4.30592 24.1978 4.25072 24.1978 4.19551C24.219 4.08511 24.1556 3.9747 24.0712 3.9747C23.8813 3.9747 23.6702 3.80909 23.4803 4.0299C23.4592 4.0299 23.4381 4.14031 23.4381 4.19551C23.4592 4.25072 23.4803 4.36113 23.5225 4.36113C23.6491 4.36113 23.7757 4.36113 23.818 4.36113ZM89.476 14.5739C89.4127 14.5187 89.3494 14.4083 89.2861 14.3531C89.265 14.2979 89.2228 14.2979 89.2017 14.2979C89.1383 14.2979 89.075 14.4083 89.0328 14.5739C88.9906 14.7947 89.0117 14.9051 89.0961 14.9603C89.2228 14.9603 89.3705 14.9603 89.4971 14.9603C89.5393 14.9603 89.5816 14.9051 89.5816 14.9051C89.6027 14.7395 89.5604 14.6291 89.476 14.5739ZM85.0017 16.9477C84.8329 16.9477 84.7696 16.9477 84.7063 16.9477C84.6852 16.9477 84.643 17.0029 84.6218 17.0581C84.6007 17.1685 84.643 17.2237 84.7274 17.2789C84.8962 17.2789 85.0651 17.2789 85.2339 17.2789C85.255 17.2789 85.2972 17.2237 85.3183 17.1685C85.3394 17.1133 85.2972 17.0029 85.1917 16.9477C85.1073 16.9477 85.0017 16.9477 85.0017 16.9477ZM108.407 48.8005C108.323 48.8005 108.386 48.8005 108.45 48.8005C108.534 48.8005 108.597 48.7453 108.618 48.5796C108.639 48.4692 108.576 48.3036 108.492 48.3036C108.323 48.3036 108.154 48.3036 107.985 48.3588C107.901 48.3588 107.837 48.5244 107.859 48.5796C107.901 48.7453 107.964 48.7453 108.049 48.7453C108.112 48.7453 108.196 48.7453 108.407 48.8005ZM41.1242 91.2524C41.0608 91.3076 41.0186 91.4733 41.0186 91.6389C41.0186 91.8045 41.0608 91.9701 41.1453 92.0253C41.2086 92.0805 41.2719 92.0805 41.3563 92.0253C41.4407 92.0253 41.483 91.9149 41.4618 91.6941C41.4618 91.6389 41.4407 91.5285 41.4196 91.4733C41.3352 91.2524 41.2508 91.1972 41.1242 91.2524ZM78.2692 33.0673C78.3325 33.0673 78.3958 33.0673 78.4592 33.0121C78.5436 32.9569 78.5858 32.9017 78.5647 32.7361C78.5436 32.6809 78.5225 32.5704 78.5014 32.5704C78.4169 32.46 78.3325 32.3496 78.227 32.2392C78.1637 32.184 78.1004 32.2392 78.037 32.3496C77.9948 32.46 77.9526 32.6256 77.9737 32.7913C78.037 32.8465 78.1004 32.9017 78.1637 32.9569C78.2059 33.0673 78.2481 33.0673 78.2692 33.0673ZM107.057 48.7453C107.12 48.7453 107.204 48.7453 107.268 48.6901C107.31 48.6901 107.331 48.6348 107.352 48.5796C107.331 48.4692 107.268 48.414 107.204 48.414C107.141 48.414 107.057 48.414 106.993 48.414C106.93 48.414 106.846 48.414 106.803 48.5244C106.761 48.6348 106.888 48.7453 107.057 48.7453ZM1.8053 84.3519C1.93193 84.3519 2.07966 84.1863 2.03745 84.0759C1.99524 83.9103 1.93193 83.8551 1.86861 83.8551C1.8053 83.8551 1.74198 83.8551 1.67867 83.8551C1.61535 83.8551 1.53093 83.8551 1.48872 84.0207C1.46762 84.0759 1.53093 84.2415 1.61535 84.2415C1.65756 84.3519 1.72088 84.3519 1.8053 84.3519ZM8.98104 86.5049C9.08657 86.5049 9.19209 86.5049 9.27652 86.2841C9.19209 86.0633 9.08657 86.0633 8.98104 86.0081C8.93883 86.0081 8.91773 86.0081 8.87552 86.0081C8.7911 86.0081 8.72778 86.0633 8.68557 86.2289C8.72778 86.3945 8.7911 86.4497 8.85441 86.4497C8.91773 86.4497 8.93883 86.4497 8.98104 86.5049ZM44.2477 90.9764C44.2899 91.1972 44.3321 91.4181 44.3744 91.6389C44.3955 91.6941 44.4377 91.7493 44.4588 91.7493C44.4799 91.7493 44.5221 91.6389 44.5221 91.5837C44.5643 91.2524 44.5432 90.866 44.4377 90.6452C44.3744 90.5348 44.311 90.59 44.2477 90.7004C44.2477 90.7556 44.2688 90.866 44.2477 90.9764ZM63.3268 7.12133C63.3268 7.12133 63.3901 7.12133 63.4534 7.12133C63.4956 7.12133 63.5167 7.12133 63.5378 7.06613C63.5589 7.01093 63.6011 6.95572 63.6222 6.95572C63.6011 6.90052 63.58 6.79011 63.5378 6.79011C63.4323 6.73491 63.3479 6.73491 63.2423 6.73491C63.0946 6.73491 62.9891 6.90052 63.0524 7.01093C63.1368 7.06613 63.179 7.12133 63.3268 7.12133ZM87.9987 14.0219C87.8509 14.0771 87.7454 14.0771 87.6399 14.1323C87.6188 14.1323 87.5766 14.1875 87.5555 14.2427C87.5766 14.2979 87.5977 14.3531 87.5977 14.3531C87.7032 14.4083 87.7876 14.4635 87.8931 14.4635C87.9987 14.5187 88.1464 14.2979 88.1042 14.1875C88.0831 14.0771 88.0198 14.0219 87.9987 14.0219ZM3.66255 50.0149C3.64144 49.9597 3.59923 49.9045 3.57813 49.9045C3.4726 49.8493 3.36708 49.8493 3.30376 50.0702C3.30376 50.0702 3.34597 50.2358 3.36708 50.2358C3.4726 50.3462 3.55702 50.3462 3.66255 50.1806C3.66255 50.1806 3.66255 50.0702 3.66255 50.0149ZM87.1756 13.9666C87.1545 13.9114 87.1545 13.801 87.1334 13.7458C87.07 13.525 86.8801 13.5802 86.8801 13.7458C86.8801 13.9114 86.9223 14.0771 86.9645 14.1875C87.0278 14.2979 87.0911 14.3531 87.1334 14.1875C87.1545 14.1323 87.1545 14.0771 87.1756 13.9666ZM21.6863 4.08511C21.6652 4.0299 21.6441 3.91949 21.623 3.91949C21.5175 3.86429 21.4331 3.86429 21.3487 4.0299C21.3275 4.08511 21.3064 4.14031 21.3064 4.19551C21.3275 4.36113 21.4542 4.47154 21.5597 4.36113C21.6441 4.30592 21.6863 4.25072 21.6863 4.08511ZM34.476 1.71133C34.4338 1.54572 34.3705 1.49051 34.3072 1.54572C34.2861 1.54572 34.265 1.65612 34.2439 1.71133C34.265 1.76653 34.2861 1.82174 34.3072 1.87694C34.3705 1.93214 34.4338 1.87694 34.476 1.71133ZM48.8486 2.48419C48.8275 2.48419 48.8064 2.53939 48.7642 2.59459C48.7853 2.6498 48.7853 2.705 48.8064 2.76021C48.8909 2.81541 48.9331 2.705 48.912 2.59459C48.9331 2.53939 48.8698 2.48419 48.8486 2.48419ZM84.1153 16.6717C84.0942 16.6164 84.0942 16.506 84.0731 16.506C84.052 16.506 84.0098 16.506 83.9887 16.506C83.9254 16.6164 83.9465 16.7269 84.052 16.7269C84.052 16.7269 84.0942 16.6717 84.1153 16.6717ZM17.4653 26.0564C17.4653 26.0012 17.4653 25.8907 17.4442 25.8907C17.4231 25.8355 17.3809 25.8355 17.3387 25.8355C17.2543 25.9459 17.2543 26.0564 17.3598 26.1116C17.402 26.1116 17.4442 26.0564 17.4653 26.0564ZM82.2581 33.3433C82.237 33.2881 82.2159 33.2329 82.1948 33.1777C82.1314 33.1225 82.0681 33.1777 82.0259 33.3433C82.0259 33.3433 82.0681 33.4537 82.0892 33.5089C82.1525 33.5641 82.2159 33.5089 82.2581 33.3433ZM2.98719 51.3951C3.00829 51.3399 3.0505 51.3398 3.07161 51.2846C3.0505 51.2294 3.0294 51.1742 2.98719 51.119C2.90277 51.0638 2.86055 51.1742 2.88166 51.2846C2.90277 51.3398 2.94498 51.3399 2.98719 51.3951ZM72.9929 90.866C72.9718 90.8108 72.9507 90.7556 72.9296 90.7004C72.8663 90.6452 72.803 90.7004 72.7819 90.866C72.7819 90.866 72.8241 90.9764 72.8452 91.0316C72.9085 91.0868 72.9507 91.0316 72.9929 90.866ZM88.5896 14.1875L88.5474 14.2979H88.6107L88.5896 14.1875Z" fill="#00659E"/>
<g clip-path="url(#clip0)">
<path d="M27.9669 72.7703H74.3668C74.9009 72.7703 75.3336 72.3393 75.3336 71.808V63.1454H82.1C82.6341 63.1454 83.0669 62.7145 83.0669 62.1831V52.5578C83.0669 52.0264 82.6341 51.5955 82.1 51.5955H75.3336V42.9329C75.3336 42.4011 74.9009 41.9702 74.3668 41.9702H72.5928C72.729 41.341 72.5848 40.6836 72.1976 40.1681L67.8296 34.3707L69.8466 32.8643C70.7426 32.1964 71.2431 31.1257 71.1798 30.0128L71.0829 28.2794C71.0564 27.8093 71.2679 27.3573 71.6462 27.0748L73.6627 25.5689L74.5115 26.695C74.665 26.899 74.8938 27.0343 75.1478 27.0704C75.1929 27.0766 75.2385 27.0801 75.2845 27.0797C75.4938 27.0801 75.6974 27.0123 75.8646 26.8871L83.8404 20.9298C85.121 19.9733 85.3807 18.1637 84.4201 16.8882L83.8829 16.1744C82.9208 14.9007 81.1044 14.6429 79.8229 15.5981L71.848 21.555C71.421 21.874 71.3343 22.4776 71.6546 22.9028L72.5029 24.029L70.4864 25.5354C69.5903 26.2033 69.0894 27.2736 69.1531 28.3865L69.2496 30.1198C69.2766 30.5899 69.0651 31.0424 68.6867 31.3244L66.6702 32.8308L62.3018 27.0334C61.8447 26.417 61.1022 26.0773 60.3344 26.1333C59.6021 26.1862 58.9476 26.6091 58.6003 27.2537L50.6573 41.9702H27.9669C27.4328 41.9702 27 42.4011 27 42.9329V52.5578C27 53.0896 27.4328 53.5205 27.9669 53.5205H34.7332V61.2204H27.9669C27.4328 61.2204 27 61.6513 27 62.1831V71.808C27 72.3393 27.4328 72.7703 27.9669 72.7703ZM80.9831 17.1376C81.4097 16.8186 82.0155 16.9045 82.3363 17.3297L82.8735 18.0434C83.1934 18.4686 83.1067 19.0714 82.6801 19.3904L75.4774 24.7705L73.7804 22.5173L80.9831 17.1376ZM44.4002 63.1454H57.9334V70.8453H44.4002V63.1454ZM52.1335 53.5205H65.6666V61.2204H52.1335V53.5205ZM73.4003 70.8453H59.8667V63.1454H73.4003V70.8453ZM81.1336 61.2204H67.6V53.5205H81.1336V61.2204ZM73.4003 51.5955H59.8667V45.9906L69.7612 43.8952H73.4003V51.5955ZM60.3039 28.1658C60.3367 28.0984 60.4048 28.0552 60.48 28.053L60.4991 28.0521C60.6017 28.0539 60.6969 28.1045 60.7553 28.1882L65.1228 33.9856L61.1349 36.9645C60.7079 37.2835 60.6212 37.8867 60.9416 38.3123C61.2619 38.7375 61.8677 38.8234 62.2952 38.5049L66.2831 35.526L70.651 41.3234C70.7205 41.408 70.7409 41.5221 70.7041 41.6247C70.6811 41.6961 70.6205 41.7486 70.5462 41.7618L51.3684 45.8223C51.2493 45.8408 51.1299 45.7902 51.0613 45.6915C50.9843 45.599 50.9688 45.4703 51.0215 45.3619L60.3039 28.1658ZM49.5152 46.8467C50.0302 47.5521 50.9144 47.8883 51.7706 47.705L57.9334 46.4V51.5955H44.4002V43.8952H49.6178L49.3182 44.4503C48.9041 45.2183 48.9815 46.1563 49.5152 46.8467ZM28.9333 47.7455H30.8666C31.4007 47.7455 31.8335 47.3146 31.8335 46.7828C31.8335 46.2515 31.4007 45.8206 30.8666 45.8206H28.9333V43.8952H42.4669V51.5955H28.9333V47.7455ZM36.6665 53.5205H50.2002V61.2204H36.6665V53.5205ZM28.9333 63.1454H42.4669V70.8453H28.9333V63.1454Z" fill="white"/>
<path d="M39.567 46.7829C39.567 46.2515 39.1343 45.8206 38.6001 45.8206H34.7335C34.1999 45.8206 33.7671 46.2515 33.7671 46.7829C33.7671 47.3147 34.1999 47.7456 34.7335 47.7456H38.6001C39.1343 47.7456 39.567 47.3147 39.567 46.7829Z" fill="white"/>
</g>
<defs>
<clipPath id="clip0">
<rect width="58" height="63" fill="white" transform="translate(27 12)"/>
</clipPath>
</defs>
</svg>
