<svg width="113" height="94" viewBox="0 0 113 94" fill="none" xmlns="http://www.w3.org/2000/svg">
<path d="M107.995 25.8835C108.212 25.8835 108.429 25.9208 108.627 25.9208C108.725 25.9208 108.844 25.9582 108.942 26.033C109.219 26.2572 109.495 26.2945 109.771 26.2945C110.027 26.2945 110.264 26.2945 110.521 26.2945C110.659 26.2945 110.817 26.2945 110.935 26.3693C111.231 26.5561 111.547 26.6309 111.862 26.7056C111.922 26.7056 112 26.8177 112.04 26.9298C112.099 27.0793 112.178 27.2661 112.198 27.453C112.336 28.2751 112.494 29.0972 112.652 29.9194C112.691 30.1062 112.671 30.3304 112.632 30.5173C112.513 30.9283 112.474 31.3768 112.415 31.8626C112.356 32.3857 112.257 32.8716 112.198 33.4321C112.158 33.731 112.158 33.9553 112.257 34.1795C112.296 34.2916 112.336 34.4037 112.375 34.5158C112.494 34.9642 112.494 35.4127 112.415 35.8611C112.356 36.1227 112.237 36.2722 112.099 36.3469C111.961 36.4216 111.823 36.4216 111.685 36.459C111.586 36.4964 111.468 36.5338 111.369 36.5711C111.29 36.6085 111.251 36.7206 111.27 36.8701C111.27 36.9074 111.31 36.9822 111.33 37.0196C111.349 37.0569 111.389 37.1317 111.409 37.1317C111.764 37.2064 112.099 37.468 112.395 37.8043C112.435 37.8417 112.454 37.8791 112.474 37.9164C112.553 38.0285 112.573 38.2901 112.474 38.4022C112.178 38.7385 112.198 39.1122 112.316 39.598C112.375 39.8223 112.435 40.0838 112.435 40.3454C112.435 40.6818 112.454 41.0181 112.435 41.3544C112.395 41.6907 112.316 41.9897 112.119 42.0644C112.079 42.0644 112.04 42.1018 112.02 42.1392C111.981 42.1765 111.941 42.2513 111.941 42.2513C111.981 42.3634 112.04 42.4007 112.119 42.4381C112.218 42.4755 112.336 42.4755 112.435 42.5129C112.513 42.5502 112.612 42.8492 112.592 42.9987C112.553 43.335 112.454 43.6339 112.513 43.9703C112.553 44.2692 112.533 44.344 112.435 44.4561C112.277 44.6055 112.119 44.7924 111.981 44.9419C111.882 45.054 111.862 45.3529 111.941 45.465C112 45.5398 112.04 45.6519 112.099 45.7266C112.178 45.8761 112.257 45.9882 112.336 46.1377C112.415 46.2872 112.415 46.5487 112.356 46.6982C112.296 46.773 112.257 46.8851 112.198 46.9598C112.06 47.1467 111.922 47.3709 111.823 47.6698C111.724 48.0062 111.566 48.0809 111.369 48.1183C111.231 48.1556 111.093 48.1556 110.955 48.2304C110.876 48.2677 110.836 48.3798 110.836 48.5293C110.836 48.6414 110.896 48.7909 110.975 48.7909C111.33 48.8657 111.685 48.8657 112.04 48.9404C112.099 48.9404 112.178 49.0525 112.237 49.0899C112.375 49.2393 112.415 49.5383 112.316 49.7251C112.119 50.0988 112.04 50.4725 112.198 50.9957C112.257 51.1826 112.237 51.3694 112.139 51.5189C112.119 51.5562 112.079 51.631 112.06 51.631C111.922 51.7057 111.783 51.7431 111.645 51.7057C111.113 51.631 110.58 51.7431 110.047 51.7431C110.008 51.7431 109.968 51.7805 109.949 51.7805C109.909 51.8178 109.889 51.8552 109.87 51.8926C109.909 51.9299 109.929 51.9673 109.968 52.0047C110.205 52.1168 110.462 52.0047 110.718 52.0794C110.817 52.1168 110.935 52.0794 111.034 52.1915C111.369 52.5279 111.705 52.5279 112.06 52.5652C112.139 52.5652 112.178 52.7147 112.158 52.7894C112.139 52.8268 112.119 52.9015 112.079 52.9015C112.04 52.9389 112 52.9389 111.981 52.9389C111.705 52.9389 111.409 52.9389 111.152 53.2005C110.797 53.3126 110.481 53.6489 110.146 53.8358C110.126 53.8358 110.106 53.9479 110.067 53.9853C110.087 54.0226 110.126 54.06 110.146 54.0974C110.244 54.1721 110.343 54.1721 110.462 54.1721C110.817 54.1721 111.172 54.1721 111.527 54.1721C111.705 54.1721 111.862 54.359 112 54.5832C112.079 54.7326 112.079 54.9569 112.02 55.1063C111.981 55.2184 111.922 55.2558 111.843 55.3306C111.724 55.4427 111.724 55.6295 111.803 55.8164C111.941 56.2274 112.198 56.3769 112.395 56.6385C112.454 56.7506 112.474 56.8627 112.454 57.0122C112.454 57.0869 112.435 57.1243 112.415 57.199C112.375 57.3111 112.356 57.4232 112.316 57.5727C112.198 58.0585 112.079 58.0959 111.902 57.9838C111.724 57.8717 111.547 57.8717 111.389 58.0212C111.251 58.1333 111.113 58.208 110.994 58.3575C110.797 58.5817 110.6 58.6191 110.383 58.6191C109.633 58.5817 108.883 58.5817 108.153 58.6191C107.936 58.6191 107.877 58.8059 107.956 59.1049C108.054 59.5159 108.015 59.8896 107.936 60.2633C107.897 60.4502 107.936 60.637 108.015 60.7865C108.133 61.0481 108.271 61.2349 108.37 61.5339C108.429 61.7207 108.429 61.9449 108.37 62.0944C108.291 62.3186 108.173 62.4681 108.074 62.655C107.877 62.9913 107.798 63.4397 107.778 63.9255C107.778 64.1124 107.778 64.3366 107.778 64.5234C107.778 64.8598 107.818 65.1961 107.936 65.4577C107.995 65.6071 108.074 65.794 108.133 65.9435C108.193 66.1303 108.212 66.3172 108.212 66.504C108.212 66.9151 108.173 67.2888 108.074 67.6625C108.015 67.8867 107.936 68.1109 107.877 68.3725C107.837 68.5593 107.837 68.7462 107.877 68.9704C107.916 69.0825 107.936 69.1946 107.975 69.3441C107.995 69.4562 108.035 69.6057 108.035 69.7178C108.015 70.1662 108.054 70.652 107.916 71.1004C107.837 71.3994 107.798 71.7357 107.818 72.072C107.857 72.7447 107.818 73.4173 107.739 74.09C107.699 74.3516 107.699 74.6132 107.739 74.8747C107.798 75.3232 107.877 75.7716 107.975 76.22C107.995 76.3322 107.995 76.4816 107.956 76.5937C107.857 77.0422 107.798 77.4906 107.798 77.9764C107.798 78.3127 107.719 78.6117 107.62 78.9106C107.522 79.1722 107.462 79.5086 107.443 79.8449C107.423 80.4428 107.384 81.0407 107.384 81.6386C107.384 82.1244 107.344 82.5728 107.226 82.9839C107.206 83.0586 107.206 83.096 107.186 83.1708C107.147 83.6192 107.167 84.105 107.048 84.5534C107.068 84.7029 107.068 84.815 107.088 84.9645C107.088 85.114 107.127 85.2634 107.088 85.3755C106.969 85.8987 106.95 86.4219 106.969 86.9451C106.989 87.3561 106.95 87.7672 106.851 88.1035C106.792 88.2904 106.772 88.4772 106.772 88.6641C106.752 89.0004 106.752 89.3367 106.713 89.673C106.693 89.9346 106.594 90.1588 106.476 90.3083C106.219 90.6446 105.983 90.9436 105.687 90.9436C105.568 90.9436 105.489 91.0183 105.391 91.1304C105.253 91.2425 105.115 91.2799 104.976 91.3173C104.72 91.3547 104.483 91.3546 104.227 91.392C104.089 91.4294 103.931 91.392 103.812 91.5041C103.418 91.691 103.043 91.7283 102.648 91.7283C101.622 91.7283 100.596 91.7657 99.5506 91.7657C98.6233 91.7657 97.696 91.7657 96.7884 91.7657C96.4924 91.7657 96.2162 91.8031 95.9597 91.9899C95.8216 92.0647 95.6637 92.0647 95.5256 91.9899C95.4664 91.9526 95.3875 91.9152 95.3283 91.8778C95.1507 91.8031 94.9732 91.8031 94.7956 91.9152C94.6575 91.9899 94.5194 92.0647 94.3813 92.0647C93.4934 92.0647 92.6055 92.1768 91.7177 92.1394C91.0863 92.102 90.4352 92.1768 89.8038 92.1768C89.5868 92.1768 89.3895 92.2515 89.1724 92.3636C89.0738 92.4384 88.9554 92.4757 88.8568 92.4757C88.1859 92.5131 87.5151 92.5505 86.8443 92.5878C86.7061 92.5878 86.568 92.6626 86.4299 92.7373C86.3313 92.8121 86.2326 92.8121 86.1142 92.7747C85.9367 92.6626 85.7591 92.6252 85.6012 92.7747C85.3645 92.9615 85.108 92.9615 84.8712 92.9989C84.595 93.0363 84.299 92.9989 84.0228 92.9989C83.7466 92.9989 83.4506 93.0736 83.1744 93.2231C82.8982 93.3726 82.6022 93.3726 82.326 93.2231C81.9906 93.0363 81.6354 92.9989 81.3 92.7373C81.2014 92.6626 81.083 92.6999 80.9843 92.7747C80.8265 92.9242 80.6489 92.9989 80.4713 92.9989C80.2149 93.0363 79.9781 93.0363 79.7413 93.2231C79.6427 93.2979 79.544 93.2979 79.4256 93.3352C79.2678 93.3726 77.1369 93.3352 76.9791 93.2979C76.8804 93.2605 76.762 93.2231 76.6634 93.1484C76.5845 93.111 76.5253 93.111 76.4464 93.1484C76.3872 93.1857 76.3082 93.2231 76.2491 93.2605C76.032 93.3352 75.8347 93.3352 75.6177 93.1857C75.5388 93.1484 75.4796 93.1484 75.4204 93.1857C75.0455 93.4473 74.6509 93.41 74.276 93.111C74.1774 93.0363 74.0787 93.0363 73.9603 93.111C73.8617 93.1484 73.763 93.1857 73.6446 93.111C73.4671 92.9989 73.2895 92.9989 73.1119 93.111C72.7962 93.2979 72.4805 93.3726 72.1649 93.3726C71.7111 93.3726 71.2375 93.41 70.7837 93.41C70.5667 93.41 70.3694 93.5221 70.1524 93.6715C70.0143 93.7837 69.8761 93.7837 69.738 93.6715C69.6788 93.6342 69.5999 93.5968 69.5407 93.5594C69.4421 93.5221 69.3237 93.4847 69.225 93.5968C68.9488 93.8584 68.6726 93.8584 68.3964 93.7463C68.1793 93.6715 67.982 93.5221 67.765 93.6715C67.7058 93.7089 67.6269 93.6715 67.5677 93.6342C67.3901 93.5221 67.2323 93.5594 67.0547 93.5968C66.6404 93.7463 66.226 93.8584 65.792 93.7837C65.6538 93.7463 65.5157 93.7089 65.3579 93.7463C64.6871 93.8958 64.0162 93.7837 63.3454 93.821C62.8916 93.7089 62.4181 93.7463 61.9643 93.7837C61.7078 93.821 61.471 93.7463 61.2342 93.5221C61.175 93.4847 61.0961 93.4473 61.0369 93.5221C60.8002 93.7089 60.5634 93.7837 60.3069 93.7837C59.9123 93.7837 59.5177 93.821 59.1428 93.821C58.689 93.8584 58.2155 93.7837 57.7617 93.6715C57.663 93.6342 57.5644 93.5594 57.446 93.5221C57.3474 93.4473 57.229 93.4473 57.1303 93.5221C56.933 93.6342 56.716 93.7089 56.4989 93.7463C55.9662 93.821 55.4335 93.7089 54.9008 93.7089C54.8021 93.7089 54.6838 93.6715 54.5851 93.5968C54.3089 93.41 54.0524 93.3352 53.7564 93.5968C53.5197 93.7837 53.2632 93.7837 53.0264 93.6342C52.9672 93.5968 52.8883 93.5221 52.8291 93.4847C52.7699 93.4473 52.691 93.41 52.6121 93.41C52.5134 93.41 52.395 93.3726 52.2964 93.4473C52.0596 93.6342 51.8228 93.7089 51.5664 93.7089C51.3099 93.6715 51.0731 93.7463 50.8166 93.7837C50.2444 93.821 49.6722 93.8584 49.1198 93.7463C48.9817 93.7089 48.8436 93.6715 48.7054 93.5968C48.6265 93.5594 48.5673 93.5594 48.5081 93.6342C48.2319 93.8584 47.9557 93.7837 47.6795 93.9705C47.6005 94.0079 47.5414 94.0079 47.4624 93.9705C47.0086 93.7837 46.5548 93.7463 46.0813 93.821C45.4499 93.9331 44.7988 93.821 44.1675 93.821C43.9899 93.821 43.8123 93.7463 43.6545 93.6342C43.5558 93.5594 43.4572 93.5968 43.3388 93.6342C43.2401 93.6715 43.1217 93.7463 43.0231 93.7463C42.4904 93.7089 41.9577 93.7837 41.4249 93.7837C41.2868 93.7837 41.129 93.821 40.9909 93.7837C40.7146 93.7089 40.4187 93.7837 40.1425 93.7463C40.0635 93.7463 40.0043 93.6715 39.9452 93.6342C39.886 93.5968 39.807 93.5968 39.7479 93.6715C39.59 93.821 39.4124 93.8958 39.2349 93.8584C37.7156 93.7837 36.1767 93.8584 34.6574 93.7463C34.3417 93.7089 34.026 93.7463 33.6906 93.7463C33.5131 93.7463 33.3355 93.7089 33.1579 93.5968C33.0593 93.5221 32.9409 93.5968 32.8422 93.6342C32.7633 93.6342 32.7041 93.6715 32.6252 93.6342C32.349 93.4473 32.0727 93.4473 31.7768 93.4473C31.0665 93.4473 30.3562 93.4473 29.6459 93.41C29.4091 93.41 29.1526 93.41 28.9159 93.1857C28.8567 93.111 28.7778 93.0736 28.7186 93.1484C28.4818 93.3352 28.245 93.3726 27.9886 93.3352C27.7321 93.2979 27.4953 93.3352 27.2388 93.3352C27.0612 93.3352 26.8837 93.2979 26.7258 93.1857C26.6666 93.1484 26.5877 93.111 26.5285 93.0736C26.3115 92.9989 26.0944 92.9989 25.8971 93.1857C25.759 93.2979 25.6209 93.3352 25.4828 93.2231C25.3447 93.111 25.2263 93.0363 25.0685 93.0363C24.6739 93.0363 24.2792 93.0363 23.9044 92.9989C23.6479 92.9989 23.4111 92.9989 23.1743 92.812C23.056 92.7373 22.977 92.8868 22.9178 93.0363C22.8784 93.1484 22.7995 93.1857 22.7403 93.1484C22.5627 93.0363 22.3851 92.9989 22.2076 92.9989C21.4973 92.9989 20.787 92.9615 20.0767 92.9615C19.8005 92.9615 19.5045 92.9242 19.2283 92.7373C18.9915 92.5878 18.735 92.6626 18.4982 92.5878C18.3207 92.5505 18.1431 92.5131 17.9655 92.4757C17.6696 92.1394 17.3539 92.1768 17.0382 92.1768C16.7422 92.1768 16.466 92.1394 16.2095 91.8778C16.1503 91.8031 16.0714 91.8031 16.0122 91.8031C15.9333 91.8031 15.8741 91.8031 15.7952 91.8031C15.006 91.8778 14.2365 91.7657 13.4473 91.7283C13.1908 91.7283 12.954 91.5789 12.7567 91.2799C12.6383 91.0931 12.5002 91.1304 12.3621 91.2425C12.224 91.3546 12.0859 91.3173 11.9478 91.2052C11.7505 91.0183 11.5532 90.9436 11.3361 90.9436C11.1586 90.9436 10.981 90.9436 10.8034 90.9436C10.6653 90.9436 10.5272 90.8688 10.3891 90.7941C10.2904 90.7194 10.172 90.7941 10.0734 90.7941C9.99447 90.7941 9.93526 90.8315 9.85635 90.7941C9.58012 90.6073 9.3039 90.6073 9.00794 90.6073C8.29765 90.5699 7.58736 90.5699 6.87707 90.5325C6.81787 90.5325 6.73895 90.4578 6.67976 90.4204C6.60084 90.383 6.56138 90.2709 6.58111 90.0841C6.60084 89.972 6.6403 89.8225 6.71922 89.8225C6.99545 89.7478 7.27167 89.673 7.54789 89.4862C7.60708 89.4488 7.68601 89.4862 7.76493 89.5235C7.96223 89.673 8.17927 89.7478 8.39631 89.5983C8.59361 89.4488 8.81063 89.3741 9.02766 89.3367C9.10659 89.2993 9.16578 89.262 9.16578 89.1498C9.16578 89.1498 9.10659 89.0751 9.06713 89.0751C8.53441 89.0377 8.00169 89.0004 7.46898 89.0004C7.11383 89.0004 6.75868 88.963 6.40353 88.963C6.1273 88.963 5.83135 88.9256 5.57485 88.7014C5.51566 88.664 5.43675 88.664 5.35783 88.7014C4.90402 89.0377 4.45022 88.9256 3.99642 88.8509C3.93723 88.8509 3.85831 88.7762 3.79912 88.7388C3.661 88.6267 3.5229 88.5893 3.38479 88.5893C3.16776 88.5519 2.95071 88.5519 2.75341 88.5146C2.71395 88.5146 2.67449 88.4772 2.65476 88.4398C2.63503 88.3277 2.69422 88.253 2.75341 88.1782C3.04937 87.8419 3.34532 87.7672 3.68074 87.9167C3.81886 87.9914 3.95696 87.9914 4.09508 87.9167C4.41076 87.7298 4.72646 87.7672 5.04215 87.954C5.12106 87.9914 5.18025 88.0288 5.23945 87.9914C5.61433 87.7298 6.00893 87.8793 6.40353 87.8793C6.50218 87.8793 6.62058 87.9167 6.71922 87.9914C6.8968 88.1035 7.05463 88.0661 7.23221 87.9914C7.78466 87.6924 8.35684 87.6551 8.90929 88.0288C9.16579 88.2156 9.38283 88.0288 9.58013 87.7298C9.59986 87.6924 9.59986 87.5803 9.58013 87.5803C9.52094 87.543 9.44202 87.5056 9.38283 87.4682C9.16579 87.4309 8.94875 87.3935 8.75145 87.4309C8.13981 87.543 7.5479 87.4309 6.93626 87.3935C6.8376 87.3935 6.71922 87.3561 6.62058 87.2814C6.48246 87.1693 6.34434 87.2066 6.20623 87.2814C6.10758 87.3187 5.9892 87.2814 5.89055 87.2066C5.75243 87.0945 5.61431 87.0945 5.4762 87.2066C5.19997 87.3935 4.92376 87.3935 4.64754 87.2066C4.35158 86.9824 4.03588 86.9451 3.70047 86.9824C3.44397 87.0198 3.20721 86.9077 2.99018 86.6835C2.81261 86.4966 2.65477 86.5714 2.4772 86.7582C2.43774 86.7956 2.418 86.8329 2.37854 86.8329C2.29962 86.9077 2.18124 86.8703 2.10231 86.6461C1.98393 86.3471 1.84582 86.235 1.64851 86.235C1.5696 86.235 1.5104 86.235 1.43147 86.1977C1.35256 86.1603 1.3131 86.0482 1.3131 85.9361C1.3131 85.8987 1.35256 85.824 1.39202 85.824C1.60906 85.7866 1.80635 85.7492 2.02338 85.6745C2.10231 85.6371 2.14178 85.5624 2.18124 85.4503C2.24043 85.3008 2.14177 85.0766 2.02338 85.0018C1.98393 85.0018 1.94447 84.9645 1.92474 84.9645C1.82608 85.0018 1.72743 85.0766 1.62878 85.1513C1.49067 85.2634 1.35256 85.3008 1.21445 85.1513C1.15525 85.0766 1.09606 85.0392 1.01714 84.9645C0.957948 84.8897 0.898766 84.815 0.898766 84.6655C0.898766 84.6282 0.957955 84.5908 0.997414 84.5908C1.09607 84.5534 1.21445 84.5534 1.3131 84.5534C2.10231 84.5908 2.8718 84.516 3.66102 84.4787C3.81886 84.4787 3.93723 84.3666 4.03589 84.1797C4.25292 83.7687 4.52915 83.6939 4.8251 83.6939C5.53539 83.6939 6.24568 83.6939 6.95598 83.6565C7.05463 83.6565 7.15329 83.5444 7.23221 83.3576C7.25194 83.3202 7.27167 83.2455 7.25194 83.1707C7.25194 83.1334 7.21248 83.0586 7.19275 83.0586C7.13355 83.0213 7.05464 82.9839 6.99545 82.9465C6.5811 82.8344 6.14703 82.8718 5.71297 82.8718C5.18025 82.8718 4.64753 82.8718 4.11482 82.8718C3.89778 82.8718 3.70047 82.8344 3.48344 82.7223C3.34532 82.6476 3.20722 82.6476 3.06911 82.6102C2.63504 82.5728 2.2207 82.6102 1.80636 82.8344C1.66824 82.9092 1.53014 82.8718 1.39202 82.7971C1.3131 82.7597 1.27364 82.6476 1.27364 82.4981C1.27364 82.4234 1.29337 82.386 1.29337 82.3112C1.3131 82.2365 1.33283 82.1991 1.35256 82.1618C1.53014 81.9749 1.7077 81.7507 1.92474 81.676C2.02339 81.6386 2.14177 81.5639 2.22069 81.4891C2.41799 81.2649 2.6153 81.2275 2.83234 81.2275C2.93099 81.2275 2.97045 81.1528 2.93099 81.0407C2.91126 81.0033 2.89153 80.9286 2.85207 80.9286C2.65476 80.7417 2.47719 80.5549 2.24043 80.5923C2.06285 80.5923 1.88528 80.5549 1.7077 80.5175C1.64851 80.5175 1.54986 80.4801 1.5104 80.4054C1.47094 80.3307 1.49068 80.1438 1.49068 80.0317C1.49068 79.8822 1.45121 79.8075 1.37229 79.7701C1.27364 79.7328 1.15526 79.6954 1.0566 79.6207C0.997415 79.5833 0.938218 79.5085 0.87903 79.3964C0.780374 79.247 0.740915 79.0227 0.780374 78.8733C0.898759 78.3875 1.01714 77.9017 1.13552 77.4159C1.19471 77.1543 1.29337 77.0048 1.43147 76.8553C1.53013 76.7806 1.60906 76.6685 1.68798 76.519C1.72744 76.4443 1.74716 76.2948 1.76689 76.1827C1.78662 76.0706 1.64852 75.7716 1.56959 75.7716C1.53013 75.7716 1.49067 75.7342 1.47094 75.7342C1.29337 75.7342 1.11579 75.6969 0.938219 75.6969C0.760645 75.6969 0.583078 75.6595 0.405504 75.6595C0.306856 75.6595 0.267389 75.5848 0.287119 75.4727C0.287119 75.3979 0.326578 75.3605 0.346307 75.3232C0.563341 75.099 0.800112 74.9121 1.0566 74.9121C1.13553 74.9121 1.19471 74.9121 1.27364 74.8747C1.49067 74.8374 1.5696 74.6505 1.58933 74.2395C1.58933 74.09 1.49067 73.8284 1.41175 73.8284C1.0566 73.7537 0.701456 73.7163 0.346308 73.6415C0.247652 73.6042 0.149011 73.4921 0.0700854 73.38C-0.00883303 73.2679 -0.0285702 72.9689 0.0503482 72.8568C0.227922 72.6326 0.405497 72.4084 0.583071 72.2215C0.681726 72.1094 0.780375 72.0347 0.87903 72.0347C1.19471 71.9973 1.5104 71.9973 1.82608 71.8104C2.08257 71.7731 2.31935 71.7731 2.57585 71.7357C2.97045 71.6983 3.36505 71.661 3.73993 71.6236C3.77939 71.6236 3.79912 71.5862 3.83859 71.5489C3.81886 71.5115 3.81885 71.4368 3.79912 71.4368C3.60182 71.2873 3.40452 71.1752 3.26641 70.8015C3.14803 70.5025 2.95072 70.5025 2.77315 70.4652C2.69423 70.4652 2.63503 70.3904 2.59558 70.2783C2.59558 70.2783 2.63504 70.1662 2.6745 70.1662C2.85208 70.0915 3.02964 70.0167 3.18749 69.8672C3.34532 69.6804 3.54263 69.7551 3.70047 69.6804C3.73993 69.6804 3.77939 69.643 3.79912 69.6057C3.83858 69.5309 3.81887 69.4188 3.75967 69.3067C3.64129 69.1572 3.52291 69.0077 3.42425 68.8209C3.28614 68.5967 3.10857 68.4846 2.93099 68.4846C2.67449 68.4846 2.43774 68.4472 2.18124 68.4472C2.08259 68.4472 1.9642 68.4472 1.86555 68.3725C1.45121 68.1109 1.01715 68.1482 0.602808 68.0361C0.52389 67.9988 0.464693 67.924 0.484423 67.8119C0.484423 67.7372 0.504153 67.6998 0.523882 67.6251C0.583079 67.4382 0.681727 67.3261 0.780375 67.2888C0.957949 67.2514 1.13552 67.214 1.3131 67.1766C1.45121 67.1393 1.60905 67.1766 1.72743 67.1019C2.04312 66.8777 2.35881 66.9151 2.6745 66.8777C2.95072 66.8403 3.24668 66.8403 3.52291 66.8029C3.56237 66.8029 3.58209 66.7282 3.60182 66.6908C3.58209 66.6535 3.58209 66.5787 3.54263 66.5787C3.48344 66.5414 3.40451 66.504 3.34532 66.4666C2.99018 66.3919 2.63504 66.4293 2.27989 66.4293C2.06286 66.4293 1.84582 66.4293 1.64852 66.3919C1.60906 66.3919 1.56959 66.3545 1.56959 66.2798C1.54986 66.205 1.58932 66.0929 1.66825 66.0929C1.84582 66.0556 2.02339 66.0556 2.20097 66.0556C2.33908 66.0556 2.47718 66.0182 2.6153 65.9061C2.77314 65.7566 2.95072 65.7192 3.1283 65.6819C3.44398 65.6445 3.75966 65.6445 4.09508 65.6071C4.19373 65.6071 4.31212 65.6071 4.41077 65.5698C4.60807 65.495 4.80538 65.2708 5.02241 65.2708C5.23944 65.2708 5.45648 65.2708 5.65378 65.1587C5.69324 65.1587 5.71298 65.084 5.73271 65.0466C5.71298 65.0092 5.67352 64.9718 5.63406 64.9345C5.49594 64.8597 5.35782 64.8597 5.21971 64.8597C4.80538 64.8597 4.37131 64.8971 3.95697 64.7476C3.91751 64.7476 3.89778 64.6729 3.87805 64.6355C3.89778 64.5982 3.93724 64.5234 3.95697 64.5234C4.05563 64.486 4.17401 64.4487 4.27265 64.4487C4.66726 64.4113 5.04215 64.4487 5.43675 64.3366C5.45648 64.3366 5.49594 64.2618 5.51567 64.2245C5.49594 64.1871 5.47621 64.1124 5.43675 64.075C5.23945 63.9629 5.02241 64.0002 4.82511 63.8134C4.76591 63.7387 4.68699 63.7387 4.6278 63.8134C4.46996 63.9255 4.29239 64.0002 4.11482 64.0002C3.89778 64.0002 3.68074 64.0376 3.48344 64.0376C3.26641 64.0376 3.06911 63.9629 2.87181 63.7387C2.81261 63.6639 2.75342 63.6266 2.6745 63.5892C2.49693 63.5144 2.33908 63.4397 2.18124 63.2529C1.82609 62.9165 1.45121 62.7297 1.05661 62.6923C0.957957 62.6923 0.918498 62.5802 0.957957 62.5055C0.977687 62.4681 1.01715 62.4307 1.05661 62.4307C1.62879 62.3934 2.20096 62.3186 2.75341 62.2813C3.00991 62.2813 3.24668 62.2439 3.48344 62.0944C3.5821 62.0197 3.70047 62.0197 3.79912 62.057C3.97669 62.1318 4.13455 62.1318 4.31212 62.057C4.4897 61.9823 4.66727 61.9823 4.84484 61.9449C5.16053 61.9076 5.47621 61.9076 5.81163 61.8702C5.94973 61.8702 6.10758 61.8702 6.22597 61.7581C6.56138 61.4965 6.91653 61.4965 7.27168 61.4218C7.48871 61.3844 7.68601 61.2349 7.84385 61.0107C7.86358 60.9733 7.86359 60.8986 7.86359 60.8612C7.84385 60.8238 7.80439 60.7865 7.76493 60.7865C7.23221 60.7865 6.69949 60.7865 6.16677 60.7865C6.02865 60.7865 5.87081 60.7865 5.75244 60.8612C5.51567 61.0107 5.25917 61.0107 5.02241 61.0481C4.56861 61.0854 4.09508 61.0854 3.64128 61.1228C3.28614 61.1228 2.93099 61.1228 2.59558 60.8986C2.45746 60.7865 2.31935 60.8238 2.18124 60.8238C1.92475 60.8238 1.68798 60.8238 1.45121 60.6744C1.37229 60.637 1.33283 60.5249 1.3131 60.3754C1.29337 60.2259 1.3131 60.1138 1.41175 60.0765C1.47094 60.0391 1.54986 60.0017 1.60906 59.9643C1.82609 59.927 2.02339 59.8896 2.24043 59.8522C2.45746 59.8522 2.65477 59.7028 2.87181 59.628C2.931 59.5907 3.00991 59.628 3.08883 59.628C3.18749 59.6654 3.28614 59.7028 3.40451 59.628C3.68074 59.4412 3.95697 59.4412 4.25293 59.4412C4.50943 59.4412 4.74619 59.4412 5.00268 59.4412C5.06187 59.4412 5.1408 59.3664 5.19998 59.3291C5.25917 59.2917 5.31836 59.1796 5.37755 59.1049C5.55513 58.8433 5.75243 58.7312 5.96946 58.7312C6.54164 58.6938 7.11383 58.6564 7.66629 58.6191C7.76493 58.6191 7.88331 58.5817 7.98197 58.5069C8.21873 58.3201 8.45549 58.2454 8.71199 58.2454C8.92903 58.2454 9.14606 58.2454 9.34336 58.208C9.44202 58.208 9.56039 58.1706 9.65905 58.0959C9.89581 57.9464 10.1326 57.8343 10.3693 57.6848C10.5667 57.5353 10.7837 57.498 11.0007 57.498C11.1783 57.498 11.3559 57.3859 11.5137 57.2364C11.6124 57.1617 11.711 57.0869 11.8097 57.0869C12.2043 57.0495 12.5989 57.0122 12.954 56.7506C13.171 56.7132 13.3684 56.6385 13.5854 56.6011C13.6446 56.5637 13.7235 56.5264 13.7827 56.4516C13.8419 56.3769 13.9011 56.2648 13.9011 56.1527C13.9011 56.0406 13.8616 55.9285 13.7827 55.9285C13.684 55.8911 13.5657 55.8911 13.467 55.8537C13.3881 55.8537 13.3289 55.779 13.3289 55.6669C13.3289 55.6295 13.3881 55.5921 13.4078 55.5548C13.5065 55.5174 13.6248 55.5174 13.7235 55.48C13.8024 55.48 13.8813 55.4053 13.9011 55.2932C13.9208 55.1811 13.8616 55.0316 13.8024 54.9569C13.7432 54.8821 13.684 54.8074 13.6248 54.77C13.5262 54.7326 13.4078 54.6953 13.3092 54.6953C12.8751 54.6579 12.4608 54.6205 12.0267 54.6205C11.8097 54.6205 11.6124 54.5458 11.3953 54.4337C11.2572 54.3589 11.1191 54.3589 10.981 54.3589C10.1918 54.3216 9.42228 54.3216 8.63306 54.3216C8.45549 54.3216 8.27793 54.3216 8.10035 54.2842C8.0017 54.2842 7.90305 54.1721 7.8044 54.06C7.7452 53.9853 7.68601 53.9105 7.62682 53.8731L7.64655 53.9105C7.68601 53.6116 7.82412 53.5368 7.92278 53.35C8.02143 53.2005 8.02142 52.9763 7.9425 52.8268C7.90304 52.7521 7.84385 52.64 7.78466 52.5652C7.76493 52.5278 7.76493 52.4157 7.76493 52.4157C7.94251 52.1915 8.15954 52.1915 8.35685 52.042C8.51469 51.9299 8.71199 51.9299 8.86983 51.8552C8.90929 51.8552 8.92903 51.7805 8.94876 51.7431C8.96849 51.6683 8.92902 51.5936 8.83036 51.5562C8.75145 51.5189 8.69226 51.5189 8.61334 51.5189C8.57388 51.5189 8.53442 51.5189 8.51469 51.5189C8.12008 51.5189 7.7452 51.2573 7.37033 51.0704C7.33087 51.0704 7.31113 50.9957 7.2914 50.921C7.2914 50.8836 7.31113 50.8089 7.35059 50.7715C7.54789 50.5846 7.7452 50.5099 7.96224 50.3978C8.10035 50.323 8.23846 50.323 8.37658 50.323C9.36309 50.2857 10.3694 50.2483 11.3559 50.1736C11.4348 50.1736 11.494 50.0988 11.494 50.0241C11.494 49.9867 11.4348 49.912 11.4151 49.912C11.3164 49.8746 11.198 49.8746 11.0994 49.8746C10.7837 49.8746 10.468 49.8372 10.1326 49.8372C9.89582 49.8372 9.71824 49.6504 9.56039 49.3514C9.54066 49.3141 9.50121 49.2767 9.48148 49.202C9.44202 49.0899 9.40256 48.9778 9.38283 48.8656C9.36309 48.7909 9.52094 48.4546 9.58014 48.4546C9.67878 48.4172 9.77743 48.3425 9.89581 48.3425C10.685 48.3051 11.4545 48.2677 12.2437 48.2677C13.4473 48.2677 14.6508 48.2677 15.8741 48.2677C16.2293 48.2677 16.5844 48.2304 16.9396 48.193C16.979 48.193 17.0185 48.1556 17.0382 48.0809C17.0579 48.0061 17.0185 47.9314 16.9198 47.9314C16.6041 47.894 16.2884 47.7819 15.9728 47.8193C15.8346 47.8193 15.6965 47.7819 15.5584 47.6698C15.4006 47.5203 15.223 47.483 15.0454 47.483C14.5522 47.483 14.0589 47.4456 13.5459 47.4456C13.2302 47.4082 12.9146 47.4456 12.5989 47.184C12.5002 47.1093 12.3818 47.184 12.2832 47.2588C12.1451 47.3709 12.007 47.3709 11.8688 47.2588C11.7307 47.1467 11.5926 47.1093 11.4545 47.1093C11.0205 47.0719 10.6061 47.0345 10.172 46.9972C10.1326 46.9972 10.0931 46.9224 10.0931 46.8851C10.0931 46.8103 10.1326 46.6982 10.2115 46.6982C10.7048 46.6608 11.198 46.6608 11.711 46.6608C12.8159 46.6608 13.9208 46.6982 15.006 46.6982C15.3611 46.6982 15.7163 46.6608 16.0714 46.6235C16.1503 46.6235 16.2095 46.5114 16.1898 46.3993C16.1898 46.3245 16.1701 46.2872 16.1503 46.2124C16.0517 45.9882 15.9333 45.8761 15.7755 45.9135C15.6768 45.9508 15.5584 45.9882 15.4598 46.0629C15.3217 46.175 15.1836 46.175 15.0454 46.0629C14.8679 45.9135 14.71 45.9508 14.5324 46.1003C14.3943 46.2124 14.2365 46.2498 14.1181 46.1377C13.7827 45.8387 13.4275 45.8387 13.0724 45.7266C12.9737 45.6892 12.8751 45.5771 12.8159 45.3903C12.7567 45.2408 12.7764 45.1287 12.8751 45.0913C12.9737 45.0166 13.0724 45.0166 13.1908 45.0166C13.6249 45.0166 14.0392 45.0166 14.4733 45.0166C14.5719 45.0166 14.6903 44.9792 14.7889 44.9792C14.8284 44.9792 14.8481 44.9045 14.8876 44.8671C14.8679 44.8297 14.8481 44.7924 14.8284 44.755C14.6903 44.6429 14.5522 44.6429 14.4141 44.6429C13.9208 44.6429 13.4275 44.7176 12.9146 44.6055C12.8356 44.6055 12.7962 44.4934 12.7764 44.3439C12.7764 44.2318 12.7764 44.045 12.737 43.9703C12.6975 43.8955 12.5989 43.8581 12.5397 43.8581C12.1845 43.8208 11.8294 43.8208 11.4742 43.7834C11.3361 43.7834 11.198 43.746 11.0599 43.6339C10.9021 43.4844 10.7245 43.4471 10.5469 43.4471C10.1523 43.4471 9.7577 43.4097 9.38283 43.4097C9.28418 43.4097 9.16578 43.4097 9.06714 43.335C8.59361 42.9239 8.08062 43.1108 7.6071 42.9613C7.50844 42.9239 7.46898 42.8492 7.50844 42.6997C7.52817 42.625 7.52817 42.5876 7.56763 42.5128C7.68602 42.2513 7.88331 42.2139 8.04116 42.1018C8.13981 42.0644 8.15954 41.9523 8.12008 41.8028C8.06089 41.5786 8.13981 41.4291 8.21873 41.317C8.23846 41.2797 8.27792 41.2423 8.27792 41.1675C8.29765 41.0554 8.23846 40.9807 8.15954 40.9807C8.06089 40.9433 7.9425 40.9433 7.84385 40.906C7.80439 40.906 7.78466 40.8686 7.76494 40.7939C7.72548 40.7191 7.76494 40.607 7.86359 40.607C8.31739 40.4949 8.79091 40.5696 9.24472 40.5323C9.42228 40.5323 9.59986 40.4949 9.7577 40.3081C9.85635 40.1959 9.97474 40.1959 10.0734 40.2707C10.251 40.3828 10.4088 40.4575 10.5864 40.4575C10.685 40.4575 10.8034 40.4575 10.9021 40.4575C12.5002 40.4202 14.0984 40.4202 15.6965 40.4949C15.8741 40.4949 16.0517 40.4575 16.2293 40.4575C16.3082 40.4575 16.3674 40.3828 16.3871 40.3081C16.3476 40.2707 16.3279 40.2333 16.2884 40.2333C16.1898 40.1959 16.0714 40.1959 15.9728 40.1959C14.9862 40.1959 13.98 40.1959 12.9935 40.1586C12.8159 40.1586 12.6383 40.1586 12.4608 40.1586C12.3621 40.1586 12.2437 40.1212 12.1451 40.0465C11.9872 39.897 11.8097 39.8596 11.6321 39.8222C11.198 39.8222 10.7837 39.7849 10.3496 39.7849C10.0734 39.7849 9.77743 39.7475 9.50121 39.7475C9.40255 39.7475 9.28418 39.7101 9.18553 39.6354C8.98822 39.4859 8.79091 39.3738 8.57388 39.3738C8.29765 39.3364 8.0017 39.3364 7.72548 39.1496C7.58736 39.0749 7.44925 39.0749 7.31114 39.0375C6.73896 39.0001 6.16677 39.0001 5.61432 38.9628C5.51567 38.9628 5.39729 38.9254 5.29864 38.888C5.25918 38.888 5.21972 38.8506 5.19999 38.8133C5.18026 38.7012 5.21972 38.6264 5.29864 38.5891C5.39729 38.5517 5.51567 38.5143 5.57486 38.3275C5.59459 38.2154 5.5354 38.0659 5.47621 37.9912C5.45647 37.9538 5.41702 37.9164 5.39729 37.879C5.29864 37.7669 5.19998 37.7669 5.0816 37.7669C4.72645 37.7669 4.39103 37.5801 4.03589 37.3559C3.83859 37.2438 3.8386 37.169 3.95698 36.7953C4.07536 36.4216 4.07535 36.4216 3.93724 36.1227C3.83859 35.8985 3.83858 35.8237 3.99643 35.749C4.174 35.6742 4.33185 35.5248 4.48969 35.4127C4.6278 35.3379 4.76592 35.3006 4.90403 35.2258C5.10134 35.1137 5.18026 34.7026 5.06187 34.4411C5.00268 34.2916 4.92376 34.1421 4.84485 33.9926C4.76592 33.8431 4.66726 33.7684 4.56862 33.731C4.39104 33.6937 4.21347 33.6937 4.03589 33.6563C3.95697 33.6563 3.89778 33.5816 3.89778 33.5068C3.89778 33.4695 3.93724 33.3947 3.97671 33.3947C4.03589 33.3573 4.11481 33.32 4.17401 33.2826C4.31212 33.1705 4.37131 32.9463 4.29239 32.6473C4.23319 32.3484 4.25294 32.1242 4.35158 31.8999C4.37131 31.8626 4.39103 31.7878 4.4305 31.7505C4.72645 31.2647 5.0816 30.9283 5.45648 30.7041C5.49594 30.7041 5.53541 30.6667 5.55514 30.6667C5.81163 30.7789 6.04839 30.5173 6.28516 30.4425C6.30489 30.4425 6.34435 30.3678 6.34435 30.2931C6.34435 30.2557 6.32462 30.1809 6.28516 30.1809C6.18651 30.0688 6.08785 30.0688 5.96947 30.0688C5.77216 30.0315 5.65378 29.8072 5.61432 29.4709C5.55513 29.1346 5.47621 29.0225 5.31837 28.9851C4.86457 28.9478 4.39104 28.873 3.93724 28.8357C3.91751 28.8357 3.85833 28.7983 3.85833 28.7609C3.85833 28.6862 3.85831 28.6114 3.89778 28.5741C3.95697 28.4993 4.01616 28.4246 4.01616 28.2751C4.01616 28.2377 3.95697 28.2004 3.93724 28.2004C3.87805 28.163 3.79912 28.1256 3.73993 28.0883C3.64129 28.0135 3.56237 27.9014 3.52291 27.7146C3.48344 27.5277 3.44399 27.3409 3.36506 27.1914C3.28615 27.0793 3.18749 26.9672 3.06911 27.0045C2.97046 27.0419 2.8718 27.1167 2.75342 27.1167C2.6745 27.1167 2.61531 27.0419 2.57585 26.9298C2.53639 26.8177 2.53639 26.6682 2.57585 26.5561C2.69424 26.2945 2.85207 26.1077 3.02965 26.0703C3.20722 26.0329 3.38479 26.0329 3.56237 26.0329C3.64129 26.0329 3.70048 25.9956 3.7794 25.9582C3.95698 25.9208 4.07535 25.5471 4.01617 25.2108C3.97671 25.024 3.93724 24.8371 3.97671 24.6503C4.03589 24.3887 4.15427 24.2392 4.29239 24.1271C4.58834 23.8655 4.88431 23.6413 5.19999 23.6039C5.27891 23.6039 5.31837 23.4918 5.31837 23.3424C5.29864 23.1929 5.25918 23.1181 5.19999 23.0434C5.16053 23.006 5.1408 22.9687 5.10134 22.9687C5.00268 22.9313 4.8843 22.8939 4.78564 22.8939C4.174 22.8939 3.5821 22.8566 2.97046 22.8566C2.89154 22.8566 2.83234 22.8565 2.75342 22.8192C2.53638 22.8192 2.37854 22.5202 2.31935 22.0718C2.29962 21.9223 2.33908 21.8102 2.418 21.7728C2.47719 21.7355 2.55611 21.6981 2.6153 21.6981C3.3256 21.6234 4.0359 21.586 4.74619 21.6234C5.00268 21.6234 5.23945 21.4739 5.43676 21.2123C5.45649 21.1749 5.47622 21.1002 5.49595 21.0628C5.49595 21.0254 5.47622 20.9881 5.43676 20.9507C5.41703 20.9133 5.37756 20.876 5.3381 20.876C5.16053 20.8386 4.98295 20.8386 4.80538 20.8012C4.54889 20.8012 4.31212 20.7639 4.07535 20.6144C3.89778 20.5396 3.72021 20.5023 3.54263 20.4649C3.46371 20.4275 3.42425 20.3154 3.42425 20.2033C3.42425 20.1286 3.44399 20.0538 3.46372 20.0165C3.52291 19.867 3.60183 19.7175 3.68075 19.568C3.7794 19.3812 3.91752 19.2691 4.05563 19.2691C4.09509 19.2691 4.13455 19.2691 4.15428 19.2691C4.46997 19.3065 4.78564 19.2317 5.0816 18.9701C5.18025 18.8954 5.27891 18.858 5.39729 18.858C5.67352 18.8207 5.96947 18.8207 6.2457 18.7459C6.42327 18.7085 6.58111 18.5964 6.73896 18.3722C6.75869 18.3349 6.79815 18.2601 6.79815 18.2227C6.79815 18.1854 6.75869 18.1106 6.71923 18.1106C6.22597 17.9985 5.75244 17.6622 5.25918 17.6248C5.19999 17.6248 5.10133 17.5501 5.0816 17.438C4.96322 17.1017 4.76592 16.9148 4.56862 16.7653C4.46996 16.6906 4.39104 16.5411 4.39104 16.3169C4.37131 16.1301 4.37131 15.9058 4.35158 15.719C4.33186 15.5695 4.21347 15.3453 4.13454 15.3453C3.81886 15.3079 3.50317 15.2706 3.18749 15.1958C3.10857 15.1958 3.02965 15.0837 3.04938 15.009C3.08884 14.8969 3.14803 14.8595 3.22695 14.8595C3.36507 14.8595 3.50317 14.8221 3.64129 14.7848C3.70048 14.7474 3.7794 14.71 3.83859 14.6726C3.93724 14.5979 4.01617 14.4484 4.07535 14.2616C4.01617 14.0747 3.91752 14 3.85833 13.8505C3.79913 13.7384 3.79913 13.6263 3.81886 13.5142C3.85832 13.3647 3.91751 13.29 3.99643 13.3274C4.13454 13.4021 4.25293 13.4768 4.41077 13.4021C4.50943 13.3647 4.62781 13.4395 4.72646 13.4021C4.82511 13.3647 4.92376 13.2526 5.02241 13.1779C5.0816 13.1405 5.16052 13.1405 5.21972 13.1031C5.23945 13.0658 5.25918 13.0284 5.29864 12.9537C5.25918 12.9163 5.23945 12.8789 5.19999 12.8789C4.98296 12.8416 4.76592 12.8416 4.56862 12.8416C3.99644 12.8789 3.42426 12.8042 2.87181 12.6921C2.77315 12.6547 2.6745 12.5426 2.59558 12.3931C2.53638 12.2436 2.55612 12.1315 2.63504 12.0568C2.69424 12.0194 2.77315 11.9447 2.83234 11.9447C3.04938 11.9073 3.26642 11.9073 3.46372 11.8699C3.54264 11.8699 3.60182 11.7578 3.60182 11.6457C3.60182 11.4963 3.56236 11.3841 3.50317 11.3094C3.34533 11.1226 3.16776 11.1226 2.99019 11.0852C2.85207 11.0478 2.71396 10.9357 2.6153 10.7489C2.59557 10.7115 2.55611 10.6368 2.55611 10.562C2.55611 10.5246 2.57585 10.4499 2.59558 10.4125C2.65477 10.3004 2.79288 10.2257 2.77315 10.0015C2.75343 9.81463 2.65477 9.66515 2.59558 9.51568C2.55612 9.3662 2.57584 9.25409 2.65477 9.21672C2.71396 9.17935 2.79288 9.14198 2.85207 9.14198C3.20721 9.14198 3.56237 9.14198 3.91752 9.10461C3.99644 9.10461 4.05563 9.06724 4.13454 9.06724C4.2332 9.06724 4.35159 8.76829 4.31213 8.65618C4.27266 8.54407 4.21347 8.43197 4.15428 8.39459C3.97671 8.31985 3.79913 8.31985 3.62156 8.28248C3.54264 8.28248 3.48344 8.20774 3.42426 8.133C3.3848 8.05826 3.50318 7.68458 3.56237 7.64721C3.62157 7.60984 3.68076 7.53509 3.75967 7.49772C3.93725 7.42299 4.11481 7.34825 4.27266 7.23614C4.45023 7.08666 4.6278 7.16141 4.78564 7.27351C4.86457 7.31088 4.92376 7.34825 4.98295 7.27351C5.18025 7.12404 5.39729 7.04929 5.61433 7.04929C5.75243 7.04929 5.89055 7.08666 6.04839 7.04929C6.14705 7.04929 6.26543 7.04929 6.36407 6.97455C6.66003 6.71297 6.97572 6.71297 7.2914 6.6756C7.92278 6.63823 8.57388 6.60086 9.20525 6.60086C9.34337 6.60086 9.50121 6.60086 9.61958 6.48875C9.85635 6.30191 10.0931 6.26453 10.3496 6.26453C10.7837 6.26453 11.198 6.22716 11.6321 6.1898C11.7307 6.1898 11.8491 6.1898 11.9478 6.11506C12.1845 5.96558 12.4213 5.89084 12.6778 5.89084C13.3486 5.85347 14.0195 5.85347 14.71 5.8161C14.8876 5.8161 15.0652 5.77874 15.2427 5.66663C15.4203 5.55452 15.5782 5.47978 15.7557 5.47978C15.8938 5.47978 16.032 5.47978 16.1898 5.47978C16.4068 5.44241 16.6041 5.36768 16.7817 5.10609C16.9396 4.8445 17.1369 4.69502 17.3736 4.69502C18.1628 4.69502 18.9323 4.65765 19.7215 4.65765C20.1556 4.65765 20.5699 4.65765 21.004 4.65765C21.2605 4.65765 21.4973 4.58292 21.734 4.47081C21.8327 4.39607 21.9511 4.39607 22.0497 4.3587C22.5824 4.24659 23.1152 4.28396 23.6479 4.32133C23.786 4.32133 23.9241 4.43343 24.0622 4.50818C24.299 4.69502 24.5357 4.73239 24.7922 4.54555C24.9304 4.43344 25.0685 4.3587 25.2066 4.3587C25.5223 4.3587 25.838 4.24659 26.1536 4.28397C26.5482 4.32133 26.9428 4.24659 27.3177 4.24659C27.4953 4.24659 27.6729 4.20922 27.8504 4.24659C28.3042 4.32133 28.7778 4.20922 29.2316 4.24659C29.6656 4.28396 30.08 4.28397 30.5141 4.28397C30.8297 4.28397 31.1454 4.28397 31.4808 4.28397C31.6584 4.28397 31.836 4.39607 31.9544 4.65765C31.9938 4.76977 32.053 4.84451 32.1122 4.91924C32.1714 4.99398 32.2503 5.03135 32.3095 4.99398C32.349 4.99398 32.3884 4.99397 32.4082 4.9566C32.7436 4.58292 33.079 4.62029 33.4144 4.9566C33.5131 5.06872 33.6117 5.03135 33.7104 4.9566C33.7696 4.91924 33.8288 4.8445 33.9077 4.76976C34.105 4.62029 34.322 4.62029 34.5193 4.76976C34.7166 4.9566 34.9139 5.10609 35.131 5.06872C35.2691 5.06872 35.4072 5.18083 35.5453 5.25556C35.6439 5.3303 35.7623 5.3303 35.861 5.25556C36.0583 5.06872 36.2753 5.03135 36.4923 5.03135C36.8475 4.99398 37.2027 5.06872 37.5578 4.99398C37.6762 4.95661 37.7551 4.88188 37.7354 4.62029C37.7354 4.47081 37.7551 4.3587 37.834 4.32133C37.8735 4.32133 37.8932 4.28397 37.9327 4.28397C38.0116 4.28397 38.0905 4.28396 38.13 4.3587C38.3273 4.58292 38.5246 4.62029 38.7416 4.65765C38.8403 4.65765 38.9586 4.62029 39.0573 4.54555C39.2151 4.3587 39.373 4.24659 39.5506 4.24659C39.8071 4.24659 40.0438 4.17185 40.2806 4.02237C40.3792 3.94763 40.4976 3.94763 40.5963 3.94763C40.8725 3.91026 41.1684 3.94764 41.4447 3.91027C41.6814 3.8729 41.859 4.05975 42.0169 4.35871C42.0958 4.50818 42.1944 4.58292 42.3128 4.50818C42.372 4.4708 42.4509 4.39607 42.5101 4.35871C42.7074 4.24659 42.9245 4.17185 43.1218 3.98501C43.2599 3.8729 43.398 3.8729 43.5361 3.8729C43.7531 3.91026 43.9702 3.91026 44.1675 4.05975C44.5424 4.3587 44.937 4.28396 45.3316 4.24659C45.5289 4.02238 45.7459 4.09712 45.9432 4.20922C46.5154 4.24659 47.0876 4.32133 47.64 4.24659C47.7781 4.20922 47.9162 4.20922 48.0544 4.09712C48.4095 3.83554 48.7449 3.8729 49.1001 4.09712C49.2776 4.20922 49.4355 4.17185 49.613 4.02237C49.8301 3.83553 50.0274 3.8729 50.1852 4.24659C50.2247 4.3587 50.2839 4.43344 50.3431 4.50818C50.639 4.28396 50.9744 4.39607 51.2704 4.09712C51.4282 3.94764 51.6058 3.8729 51.7834 3.8729C51.9215 3.8729 52.0596 3.8729 52.2175 3.83553C52.3556 3.83553 52.4937 3.76079 52.6318 3.64868C52.7699 3.53657 52.908 3.49921 53.0461 3.49921C53.3224 3.49921 53.6183 3.49921 53.8945 3.49921C54.4273 3.49921 54.96 3.4992 55.4927 3.46183C55.7689 3.46183 56.0649 3.42446 56.3411 3.49921C56.5187 3.53658 56.6963 3.46183 56.8541 3.27499C57.1303 2.97603 57.4263 2.71445 57.7025 2.45286C57.8012 2.37812 57.8998 2.30339 57.9985 2.26602C58.5706 2.22865 59.1428 2.15391 59.6953 2.19128C59.8728 2.19128 60.0504 2.26602 60.2083 2.41549C60.3464 2.52761 60.4845 2.60234 60.6226 2.60234C61.0567 2.60234 61.471 2.60234 61.9051 2.63971C62.1616 2.63971 62.3983 2.60234 62.6351 2.45286C62.7338 2.37812 62.8324 2.34075 62.9508 2.34075C63.2073 2.30339 63.444 2.26602 63.7005 2.30339C64.4898 2.34076 65.2592 2.30339 66.0485 2.26602C66.5417 2.26602 67.035 2.30339 67.548 2.34076C67.6466 2.34076 67.765 2.26602 67.8242 2.11654C67.9031 1.96706 67.9623 1.81758 68.0412 1.66811C68.1201 1.51863 68.2385 1.48126 68.3372 1.51863C68.3964 1.556 68.4753 1.556 68.5345 1.63073C68.6134 1.70548 68.6726 1.74285 68.7318 1.66811C69.0672 1.40652 69.4223 1.48126 69.7775 1.48126C69.9551 1.48126 70.1326 1.40652 70.2905 1.25705C70.3891 1.14493 70.4878 1.14493 70.5864 1.25705C70.6456 1.29441 70.7048 1.36915 70.7837 1.44389C70.9219 1.556 71.06 1.556 71.1981 1.51863C71.4743 1.44389 71.7308 1.1823 72.007 1.03283C72.2833 0.845974 72.5595 0.771237 72.8357 0.771237C73.4473 0.771237 74.0393 0.771237 74.6509 0.771237C75.085 0.771237 75.4993 0.733868 75.9334 0.659131C76.032 0.659131 76.1504 0.584393 76.2491 0.509656C76.3872 0.434918 76.5253 0.472287 76.6634 0.509656C76.7423 0.547024 76.8015 0.547024 76.8804 0.509656C77.058 0.397549 77.2158 0.360181 77.4131 0.360181C78.6562 0.322812 79.8992 0.322804 81.1422 0.285436C81.813 0.285436 82.4839 0.285436 83.1744 0.285436C83.3915 0.285436 83.5888 0.210698 83.8058 0.0985921C84.0031 -0.0508829 84.2201 -0.0135141 84.4372 0.0985922C84.4964 0.135961 84.5753 0.173337 84.6345 0.173337C84.7726 0.173337 84.9107 0.0238547 85.0488 0.0985923C85.1869 0.135961 85.325 0.285436 85.4631 0.285436C85.5618 0.285436 85.6802 0.285436 85.7788 0.210699C85.9564 0.0612236 86.1142 0.0612236 86.2918 0.210699C86.3905 0.285436 86.4891 0.322813 86.6075 0.322813C87.0021 0.322813 87.3967 0.322813 87.7716 0.322813C87.9097 0.322813 88.0478 0.285444 88.1859 0.173338C88.4622 -0.0135138 88.7384 -0.0135138 89.0146 0.210699C89.1133 0.285436 89.2119 0.322813 89.3303 0.322813C90.08 0.285444 90.8298 0.397551 91.5598 0.397551C91.8755 0.397551 92.1912 0.397551 92.5266 0.397551C92.7042 0.397551 92.8818 0.43492 93.0396 0.547026C93.2172 0.65914 93.375 0.696509 93.5526 0.733877C93.7696 0.771246 93.9867 0.771246 94.184 0.808615C94.3221 0.808615 94.4602 0.883353 94.5983 0.995459C94.8351 1.18231 95.0916 1.21967 95.3283 1.03283C95.5651 0.883353 95.8019 0.808615 96.0584 0.95809C96.1373 0.995459 96.1965 0.995459 96.2754 0.95809C96.374 0.920722 96.4924 0.845976 96.5911 0.845976C96.9068 0.845976 97.2224 0.845984 97.5579 0.808615C97.696 0.808615 97.8341 0.845984 97.9722 0.95809C98.1498 1.0702 98.3273 1.03283 98.4852 0.920722C98.6233 0.808615 98.7614 0.808615 98.8995 0.883353C99.1363 1.03283 99.3731 1.10757 99.6295 1.10757C100.596 1.14494 101.543 1.18231 102.51 1.18231C102.727 1.18231 102.925 1.21968 103.142 1.36916C103.24 1.44389 103.339 1.44389 103.457 1.40652C103.516 1.36916 103.595 1.33179 103.655 1.33179C104.286 1.59337 104.917 1.51863 105.568 1.556C105.845 1.59338 106.121 1.66811 106.397 1.78022C106.673 1.89233 106.95 1.89233 107.245 1.96706C107.364 2.00443 107.443 2.11655 107.522 2.22865C107.541 2.26602 107.561 2.34076 107.601 2.37813C107.66 2.49023 107.719 2.52761 107.778 2.49023C107.975 2.34076 108.193 2.26602 108.41 2.4155C108.469 2.45287 108.528 2.56498 108.567 2.67709C108.627 2.82656 108.548 3.05078 108.41 3.12552C108.37 3.16289 108.35 3.16289 108.311 3.16289C108.271 3.16289 108.232 3.20026 108.212 3.20026C108.212 3.16289 108.193 3.08815 108.193 3.05078C108.173 3.01341 108.153 3.0134 108.133 3.0134C108.133 3.08814 108.173 3.16289 108.232 3.20026C108.311 3.64869 108.449 4.02238 108.469 4.50819C108.508 5.03136 108.528 5.03136 108.291 5.21821C108.114 5.36768 107.995 5.5919 107.995 5.96559C107.995 6.04033 107.995 6.11507 107.995 6.15244C107.995 6.30192 107.995 6.41402 107.956 6.5635C107.877 6.89983 107.877 7.19878 108.015 7.46036C108.074 7.57248 108.114 7.68459 108.094 7.83406C108.074 7.94617 107.995 8.0209 107.956 8.13301C107.936 8.17038 107.916 8.24512 107.877 8.28249C107.798 8.46934 107.818 8.69356 107.936 8.76829C108.035 8.84303 108.133 8.8804 108.232 8.99251C108.311 9.06725 108.331 9.17936 108.331 9.29147C108.331 9.44094 108.291 9.55305 108.232 9.59042C108.173 9.66516 108.094 9.66516 108.035 9.70253C107.897 9.77727 107.857 9.96411 107.936 10.1136C107.995 10.2631 108.074 10.4125 108.133 10.562C108.232 10.7862 108.173 11.0478 108.015 11.1973C107.956 11.2347 107.877 11.272 107.818 11.272C107.739 11.3094 107.68 11.3841 107.68 11.4963C107.68 11.6457 107.719 11.7579 107.778 11.8326C107.837 11.9073 107.897 11.9447 107.956 12.0194C108.094 12.1689 108.094 12.2063 107.995 12.4305C107.877 12.6547 107.877 12.6547 108.015 12.8416C108.173 13.1031 108.212 13.2526 108.133 13.5142C108.054 13.8132 107.975 14.1121 107.897 14.4111C107.837 14.6353 107.837 14.6727 107.936 14.9342C107.975 15.0464 108.035 15.1211 108.074 15.2332C108.133 15.42 108.173 15.6069 108.133 15.7937C108.074 16.1674 107.995 16.5411 107.975 16.9522C107.956 17.2885 107.897 17.5875 107.837 17.9238C107.798 18.148 107.837 18.3349 107.916 18.4843C108.074 18.858 108.193 19.2691 108.291 19.6802C108.311 19.7923 108.311 19.9417 108.232 20.0165C108.114 20.166 107.975 20.2781 107.897 20.5023C107.857 20.6144 107.837 20.7639 107.837 20.876C107.837 20.9881 107.857 21.1376 107.897 21.2497C107.995 21.6234 107.916 21.8849 107.758 22.1092C107.66 22.2586 107.66 22.4455 107.758 22.6323C107.857 22.8192 107.956 23.006 108.054 23.1929C108.114 23.3424 108.193 23.5292 108.153 23.7534C108.015 24.5382 107.975 25.3229 108.015 26.1451C107.975 26.1451 107.956 26.1451 107.936 26.1824C107.916 26.1824 107.916 26.2572 107.916 26.2945C107.956 26.1077 107.995 26.0703 107.995 25.8835ZM9.30391 40.8686C9.20525 40.8312 9.1066 40.8312 8.98822 40.8312C8.94876 40.8312 8.92903 40.8686 8.88957 40.906C8.86984 40.9433 8.8501 40.9807 8.83037 41.0181C8.8501 41.0554 8.88956 41.1302 8.9093 41.1302C9.18552 41.2423 9.46174 41.1302 9.71824 41.1302C9.7577 41.1302 9.79716 41.0928 9.79716 41.0554C9.81689 40.9807 9.77743 40.8686 9.69851 40.8686C9.58013 40.8686 9.44201 40.8686 9.30391 40.8686ZM4.11482 84.8897C4.13455 84.8897 4.09508 84.8897 4.07535 84.8897C3.99643 84.9271 3.95697 85.0018 3.9767 85.0766C3.99643 85.114 4.0359 85.1513 4.05563 85.1887C4.19373 85.2261 4.31212 85.2261 4.45023 85.1513C4.48969 85.1513 4.50942 85.0766 4.52915 85.0392C4.48969 84.9271 4.4305 84.8524 4.37131 84.8524C4.29238 84.8897 4.21346 84.8897 4.11482 84.8897ZM59.5374 4.35871C59.6164 4.50818 59.715 4.50818 59.8137 4.47081C59.8531 4.47081 59.8926 4.43344 59.8926 4.39607C59.9123 4.32133 59.8728 4.24659 59.7939 4.20922C59.6558 4.17186 59.5374 4.24659 59.5374 4.35871Z" fill="#00659E"/>
<path d="M5.02223 90.4951C4.68682 90.4577 4.37113 90.4577 4.03571 90.4204C3.99625 90.4204 3.9568 90.383 3.9568 90.3083C3.9568 90.2335 3.99626 90.1214 4.07518 90.1214C4.21329 90.0841 4.3514 90.0467 4.48951 90.0093C4.96304 89.5609 5.45631 89.673 5.92984 90.0467C5.98903 90.0841 6.06795 90.0841 6.12714 90.1588C6.1666 90.1962 6.18632 90.2335 6.20605 90.3083C6.20605 90.3083 6.1666 90.383 6.14687 90.4204C6.08767 90.4577 6.00875 90.4951 5.94956 90.4951C5.63388 90.4951 5.31819 90.4951 5.02223 90.4951Z" fill="#00659E"/>
<path d="M11.4741 55.8536C11.6516 55.8536 11.7898 55.9657 11.7503 56.0405C11.6714 56.1899 11.553 56.1899 11.4544 56.1899C11.3754 56.1899 11.3162 56.1899 11.257 56.1526C11.2373 56.1526 11.1979 56.0778 11.1781 56.0405C11.1979 56.0031 11.2373 55.9284 11.257 55.9284C11.336 55.8536 11.4149 55.8536 11.4741 55.8536Z" fill="#00659E"/>
<path d="M0.898644 80.069C0.977565 80.0316 1.03676 80.069 1.09595 80.1811C1.07622 80.2932 1.03675 80.3679 0.957832 80.3679C0.85918 80.3679 0.760529 80.3679 0.661877 80.3679C0.582955 80.3679 0.523757 80.2932 0.543487 80.2184C0.543487 80.1811 0.582953 80.1437 0.622413 80.1063C0.661874 80.069 0.681605 80.069 0.721065 80.069C0.780256 80.0316 0.839452 80.069 0.898644 80.069Z" fill="#00659E"/>
<path d="M53.3809 2.75147C53.3809 2.71405 53.3809 2.63921 53.4007 2.63921C53.4995 2.52694 53.5983 2.52694 53.6971 2.60179C53.7168 2.63921 53.7563 2.67663 53.7563 2.71405C53.7563 2.82632 53.618 2.90116 53.4797 2.82632C53.4402 2.86374 53.4007 2.7889 53.3809 2.75147Z" fill="#00659E"/>
<path d="M4.68686 29.6198C4.68686 29.5824 4.68686 29.5076 4.68686 29.4702C4.72638 29.3205 4.78566 29.3205 4.80542 29.5076C4.80542 29.545 4.80542 29.6198 4.80542 29.6573C4.78566 29.6947 4.76591 29.7695 4.74615 29.7695C4.72639 29.7321 4.70662 29.6573 4.68686 29.6198Z" fill="#00659E"/>
<path d="M8.8501 48.7536L8.79156 48.791L8.79156 48.6787L8.8501 48.7536Z" fill="#00659E"/>
<path d="M6.14697 53.7612C6.06794 53.7612 6.02843 53.6863 6.02843 53.6115C6.04819 53.6115 6.0877 53.6115 6.0877 53.6489C6.10746 53.6863 6.10746 53.7612 6.12722 53.7986L6.14697 53.7612Z" fill="#00659E"/>
<path d="M6.12755 53.7981C6.20658 53.7981 6.24609 53.8729 6.24609 53.9478C6.22634 53.9478 6.18682 53.9478 6.18682 53.9103C6.16706 53.8729 6.16706 53.7981 6.1473 53.7606L6.12755 53.7981Z" fill="#00659E"/>
<path d="M7.62671 53.7608C7.62671 53.9479 7.58768 53.9854 7.52914 53.9854C7.52914 53.9479 7.54865 53.8731 7.54865 53.8731C7.58768 53.7982 7.6072 53.7982 7.62671 53.7608Z" fill="#00659E"/>
<path d="M84.7675 23.6403H53.9812C53.1357 23.6403 52.3247 23.9703 51.7268 24.5577C51.1289 25.1451 50.793 25.9419 50.793 26.7726V38.5387H34.9395C34.0944 38.5404 33.2844 38.8709 32.6869 39.458C32.0893 40.045 31.7529 40.8408 31.7512 41.6711V61.5418C31.7529 62.3721 32.0893 63.1678 32.6869 63.7549C33.2844 64.342 34.0944 64.6725 34.9395 64.6741H41.0216L40.8712 69.5603C40.865 69.75 40.9105 69.9379 41.003 70.1045C41.0955 70.2711 41.2317 70.4104 41.3974 70.508C41.569 70.5906 41.7575 70.6335 41.9486 70.6335C42.1397 70.6335 42.3282 70.5906 42.4998 70.508L53.2358 64.6495H65.9763C66.395 64.6495 66.8096 64.5685 67.1964 64.4111C67.5832 64.2537 67.9347 64.0229 68.2307 63.7321C68.5268 63.4412 68.7616 63.0959 68.9218 62.7159C69.0821 62.3359 69.1645 61.9286 69.1645 61.5172V52.1695H71.0061L79.4997 58.0526C79.6694 58.1518 79.8605 58.2102 80.0576 58.2231C80.2546 58.2359 80.4519 58.2028 80.6334 58.1264C80.8193 58.0423 80.9769 57.9079 81.0878 57.739C81.1987 57.5701 81.2584 57.3736 81.2598 57.1726V52.1695H84.7988C85.6444 52.1695 86.4553 51.8395 87.0532 51.2521C87.6512 50.6647 87.9871 49.868 87.9871 49.0372V26.7726C87.9871 26.3587 87.9036 25.9488 87.7414 25.5668C87.5792 25.1847 87.3416 24.838 87.0422 24.5468C86.7428 24.2555 86.3876 24.0254 85.9972 23.8698C85.6068 23.7142 85.1888 23.6362 84.7675 23.6403ZM66.9722 61.5418C66.9722 61.8013 66.8673 62.0502 66.6805 62.2337C66.4937 62.4172 66.2404 62.5203 65.9763 62.5203H52.9227C52.7365 62.5213 52.5535 62.5678 52.3902 62.6557L43.1011 67.7264L43.2264 63.628C43.2296 63.4827 43.2023 63.3384 43.1463 63.2039C43.0903 63.0695 43.0067 62.9478 42.9007 62.8464C42.7981 62.7428 42.6754 62.6606 42.5398 62.6045C42.4042 62.5485 42.2585 62.5198 42.1114 62.5203H34.9395C34.6753 62.5203 34.422 62.4172 34.2352 62.2337C34.0485 62.0502 33.9435 61.8013 33.9435 61.5418V41.6711C33.9452 41.4121 34.0506 41.1641 34.237 40.981C34.4235 40.7978 34.6758 40.6942 34.9395 40.6926H50.793V49.0372C50.793 49.868 51.1289 50.6647 51.7268 51.2521C52.3247 51.8395 53.1357 52.1695 53.9812 52.1695H66.9722V61.5418ZM85.7634 49.0372C85.7634 49.2967 85.6585 49.5456 85.4717 49.7291C85.285 49.9126 85.0316 50.0157 84.7675 50.0157H80.1323C79.8416 50.0157 79.5628 50.1291 79.3572 50.3311C79.1517 50.5331 79.0362 50.807 79.0362 51.0926V55.0926L71.9895 50.2126C71.8061 50.0855 71.5875 50.0168 71.3631 50.0157H53.9812C53.7171 50.0157 53.4638 49.9126 53.277 49.7291C53.0902 49.5456 52.9853 49.2967 52.9853 49.0372V26.7726C52.9819 26.642 53.0052 26.5122 53.0538 26.3906C53.1023 26.269 53.1752 26.1582 53.268 26.0648C53.3608 25.9713 53.4717 25.897 53.5942 25.8463C53.7167 25.7956 53.8483 25.7695 53.9812 25.7695H84.7675C85.0316 25.7695 85.285 25.8726 85.4717 26.0561C85.6585 26.2396 85.7634 26.4885 85.7634 26.748V49.0372Z" fill="white"/>
<path d="M60.9212 35.8435C60.4715 35.8435 60.0319 35.9745 59.658 36.22C59.2841 36.4654 58.9926 36.8143 58.8205 37.2225C58.6484 37.6307 58.6034 38.0798 58.6912 38.5132C58.7789 38.9465 58.9954 39.3445 59.3134 39.6569C59.6314 39.9693 60.0366 40.1821 60.4776 40.2683C60.9187 40.3545 61.3759 40.3102 61.7913 40.1412C62.2068 39.9721 62.5619 39.6858 62.8118 39.3184C63.0616 38.9511 63.1949 38.5192 63.1949 38.0774C63.1949 37.784 63.1361 37.4935 63.0219 37.2225C62.9076 36.9515 62.7401 36.7052 62.529 36.4978C62.3178 36.2904 62.0672 36.1258 61.7913 36.0135C61.5155 35.9013 61.2198 35.8435 60.9212 35.8435Z" fill="white"/>
<path d="M69.9975 35.8433C69.5476 35.8421 69.1073 35.972 68.7326 36.2167C68.3579 36.4615 68.0655 36.8099 67.8924 37.218C67.7194 37.6261 67.6734 38.0754 67.7605 38.5091C67.8475 38.9429 68.0635 39.3415 68.3813 39.6545C68.699 39.9675 69.1041 40.1809 69.5454 40.2676C69.9866 40.3543 70.4441 40.3104 70.8599 40.1415C71.2758 39.9726 71.6313 39.6863 71.8814 39.3188C72.1315 38.9513 72.265 38.5192 72.265 38.0771C72.2658 37.7841 72.2078 37.4937 72.0942 37.2227C71.9806 36.9517 71.8137 36.7054 71.6031 36.4979C71.3925 36.2904 71.1422 36.1258 70.8667 36.0134C70.5912 35.9011 70.2958 35.8433 69.9975 35.8433Z" fill="white"/>
<path d="M79.0735 35.8433C78.6235 35.8421 78.1833 35.972 77.8085 36.2167C77.4338 36.4615 77.1414 36.8099 76.9683 37.218C76.7953 37.6261 76.7494 38.0754 76.8364 38.5091C76.9234 38.9429 77.1395 39.3415 77.4572 39.6545C77.7749 39.9675 78.1801 40.1809 78.6213 40.2676C79.0625 40.3543 79.52 40.3104 79.9359 40.1415C80.3517 39.9726 80.7072 39.6863 80.9573 39.3188C81.2074 38.9513 81.3409 38.5192 81.3409 38.0771C81.3418 37.7841 81.2837 37.4937 81.1701 37.2227C81.0566 36.9517 80.8897 36.7054 80.679 36.4979C80.4684 36.2904 80.2182 36.1258 79.9426 36.0134C79.6671 35.9011 79.3718 35.8433 79.0735 35.8433Z" fill="white"/>
</svg>
