<svg width="118" height="94" viewBox="0 0 118 94" fill="none" xmlns="http://www.w3.org/2000/svg">
<path d="M15.0982 83.1351C15.3654 82.7567 15.6548 82.5405 15.9219 82.3784C16.0778 82.2703 16.2113 82.3243 16.3449 82.4324C16.523 82.5946 16.7011 82.5405 16.8792 82.3243C17.0128 82.1081 17.1464 82 17.3022 82C17.6361 82 17.9701 81.9459 18.304 81.9459C18.4598 81.9459 18.5934 82.054 18.727 82.2162C18.8606 82.4324 19.0164 82.3784 19.15 82.2162C19.3058 82 19.4394 82.1081 19.5507 82.3784C19.5729 82.4324 19.5952 82.5405 19.6175 82.5946C19.751 82.9189 19.9514 82.9189 20.1072 82.4865C20.174 82.3243 20.174 82.1621 20.1295 82C20.085 81.8378 20.0405 81.6757 19.9737 81.6216C19.7288 81.3513 19.4616 81.2973 19.239 80.973C19.1722 80.9189 19.0832 80.9189 19.0164 80.8648C18.3708 80.8648 17.7474 80.8648 17.1018 80.8648C16.8792 80.8648 16.6566 80.8108 16.434 80.5946C16.2336 80.4324 16.011 80.2703 15.7884 80.1081C15.677 80 15.5657 80.054 15.4544 80.054C15.3431 80.054 15.2318 80 15.1205 80C15.0092 80.054 14.8979 80.1621 14.8088 80.2162C14.653 80.2703 14.4971 80.1621 14.3858 79.9459C14.23 79.6757 14.0964 79.3513 13.9628 79.0811C13.8961 78.9189 13.8293 78.973 13.7847 79.1351C13.6957 79.4054 13.6066 79.7297 13.4508 79.7297C13.2282 79.7838 13.0056 79.7838 12.8052 79.4054C12.7384 79.2973 12.6939 79.1892 12.6271 79.0811C12.5381 78.9189 12.449 78.8108 12.3154 78.7567C12.1596 78.7027 12.026 78.7027 11.8702 78.7027C11.7143 78.7027 11.5808 78.5946 11.4472 78.4865C10.6012 77.7838 10.6012 77.7838 9.79979 77.7297C9.39907 77.6757 8.97609 77.7838 8.57536 77.6216C8.5531 77.6216 8.48631 77.5675 8.48631 77.5135C8.48631 77.2973 8.5531 77.1892 8.59762 77.0811C8.66441 76.9189 8.64215 76.7567 8.5531 76.7027C8.375 76.5946 8.17465 76.5405 7.99654 76.5946C7.81844 76.5946 7.75166 76.7567 7.75166 77.2432C7.75166 77.5675 7.68487 77.6757 7.52903 77.6216C7.41773 77.6216 7.30641 77.5135 7.23962 77.2973C7.21736 77.2432 7.21736 77.0811 7.21736 77.027C7.28415 76.5946 7.41773 76.2702 7.5513 75.9459C7.70713 75.6216 7.88523 75.5135 8.06332 75.5675C8.17464 75.6216 8.26369 75.7838 8.375 75.6757C8.39726 75.6216 8.41953 75.5675 8.44179 75.4594C8.44179 75.3513 8.44179 75.2432 8.41953 75.1892C8.35274 75.0811 8.28595 75.027 8.21917 74.973C7.81844 74.9189 7.39546 74.9189 6.99474 74.5405C6.90569 74.4324 6.77212 74.4865 6.66081 74.4324C6.17104 74.3784 5.68126 74.3243 5.21375 74.2702C5.1247 74.2702 5.08018 74.1081 5.10244 74C5.1247 73.9459 5.16923 73.8919 5.19149 73.8919C5.41412 73.8378 5.63673 73.8378 5.85936 73.7838C6.05972 73.7838 6.10425 73.6216 6.12651 73.1351C6.12651 72.9189 6.14877 72.8108 6.26008 72.7567C6.4827 72.7027 6.70532 72.7027 6.92795 72.7027C7.15057 72.6486 7.17284 72.5405 7.21736 71.8919C7.21736 71.7297 7.26189 71.5675 7.28415 71.3513C7.30641 71.1351 7.1951 70.8108 7.10605 70.7567C7.06152 70.7567 7.03926 70.7027 6.99474 70.7027C6.88343 70.7567 6.77212 70.8108 6.68307 70.6486C6.43818 70.1081 6.17103 69.9459 5.85936 70C5.70352 70.054 5.56995 70 5.41412 70C5.36959 70 5.32507 70.054 5.32507 70.1081C5.3028 70.2702 5.34733 70.3784 5.43638 70.4324C5.4809 70.4324 5.50317 70.4865 5.54769 70.4865C5.63673 70.5405 5.68127 70.5946 5.68127 70.8108C5.68127 70.8648 5.61447 70.9189 5.59221 70.9189C5.25828 70.973 4.92434 71.027 4.59041 70.973C4.4791 70.973 4.36778 70.8108 4.301 70.5946C4.18969 70.1621 4.03386 70 3.8335 70C3.6554 70 3.45504 69.9459 3.27695 69.9459C3.09885 69.9459 2.89848 69.8919 2.72038 69.8378C2.67586 69.8378 2.6536 69.7297 2.63133 69.6757C2.6536 69.6216 2.69812 69.5675 2.72038 69.5135C3.0098 69.3513 3.32147 69.4054 3.61088 69.3513C3.81124 69.2973 3.96706 69.1892 4.14516 68.973C4.39005 68.6486 4.39005 68.6486 4.21195 68.1081C4.18969 68.054 4.18969 67.9459 4.18969 67.8919C4.21195 67.8378 4.25647 67.7838 4.27873 67.7838C4.54588 67.7297 4.79076 67.5675 5.05792 67.4594C5.1247 67.4054 5.21375 67.5135 5.28054 67.5675C5.4809 67.6757 5.659 67.4054 5.74805 67.027C5.85936 66.5405 5.97067 66.1081 6.12651 65.6757C6.21556 65.4054 6.17103 65.2432 6.03745 65.0811C5.97067 64.973 5.90389 64.9189 5.8371 64.8108C5.70352 64.5946 5.56995 64.4865 5.41412 64.4865C4.70172 64.4324 3.98934 64.5405 3.27695 64.5946C2.98753 64.6486 2.67586 64.5946 2.38645 64.5946C2.09704 64.5946 1.87442 64.4324 1.71858 63.8378C1.67406 63.6757 1.60727 63.6216 1.56275 63.4594C1.45143 63.1892 1.45143 63.027 1.56275 62.8648C1.7631 62.6486 1.96346 62.4324 2.20834 62.3784C2.80943 62.3243 3.41051 62.2703 4.01159 62.1621C4.05612 62.1621 4.10064 62.1081 4.10064 62.054C4.1229 61.9459 4.07838 61.8378 3.98933 61.7838C3.83349 61.7297 3.69991 61.7838 3.54408 61.6216C3.45503 61.5135 3.43277 61.4054 3.43277 61.1892C3.43277 61.027 3.4773 60.8648 3.56635 60.8108C3.74445 60.7027 3.9448 60.7027 4.1229 60.6486C4.41232 60.5405 4.61267 60.2703 4.72398 59.6216C4.79077 59.2432 4.90208 59.0811 5.05792 58.973C5.10244 58.973 5.1247 58.9189 5.16923 58.8648C5.19149 58.8108 5.25828 58.7567 5.25828 58.7027C5.25828 58.5405 5.21375 58.3784 5.14697 58.2703C5.08018 58.1621 5.01339 58.054 4.9466 58.054C4.83529 58 4.72399 58 4.61267 58C3.96707 58.054 3.34372 57.8919 2.69811 57.8378C2.63133 57.8378 2.56455 57.7297 2.49777 57.6216C2.43098 57.5135 2.38645 57.3513 2.38645 57.1892C2.38645 57.027 2.43097 56.9189 2.52002 56.8648C2.69812 56.8108 2.89848 56.8108 3.07658 56.7567C3.34373 56.7027 3.58862 56.5405 3.78897 56.054C3.85576 55.8919 3.92254 55.8919 3.98933 55.9459C4.16743 56 4.16742 55.9459 4.25647 55.6757C4.27873 55.6216 4.301 55.5135 4.301 55.4594C4.45683 54.8648 4.67946 54.6486 4.9466 54.4865C5.1247 54.3784 5.16923 53.7297 5.03565 53.3513C5.01339 53.2973 4.96887 53.2432 4.9466 53.1892C4.79077 53.0811 4.6572 53.1351 4.50136 53.1351C4.39005 53.1351 4.27873 53.1351 4.16742 53.0811C3.90028 52.973 3.67766 52.5946 3.41052 52.5946C3.18789 52.5946 2.96526 52.5405 2.74265 52.4865C2.6536 52.4865 2.60908 52.3243 2.60908 52.2162C2.60908 52.1621 2.6536 52.054 2.67586 52.054C2.74265 52 2.80943 51.9459 2.89848 51.8919C3.03206 51.7838 3.14337 51.5135 3.25467 51.2432C3.34372 50.973 3.2992 50.7027 3.21015 50.5405C3.05431 50.2703 2.85396 50.3243 2.67586 50.2162C2.6536 50.2162 2.60906 50.1081 2.5868 50.054C2.60906 50 2.63133 49.8919 2.65359 49.8378C2.89848 49.4054 3.1879 49.1892 3.49957 49.1892C3.6554 49.1892 3.78896 49.1351 3.9448 49.1351C4.16742 49.1351 4.39005 49.027 4.59041 48.8108C4.70172 48.7027 4.81303 48.7027 4.92434 48.5946C5.01339 48.5405 5.05792 48.4324 5.03565 48.2703C5.03565 48.1081 4.99114 47.9459 4.90209 47.8378C4.79077 47.7297 4.67946 47.6757 4.56815 47.7838C4.27874 48.054 3.98933 48.1621 3.69992 48.1621C3.16563 48.1621 2.6536 48.1621 2.1193 48.1621C2.07478 48.1621 2.03025 48.1621 2.00799 48.1081C1.9412 48 1.89668 47.8919 1.8299 47.7838C1.80763 47.7297 1.80763 47.6216 1.8299 47.5135C1.85216 47.3513 1.89668 47.1892 1.96346 47.1351C2.18608 46.9189 2.40871 46.973 2.63133 46.9189C2.78717 46.8648 2.7649 46.5405 2.7649 46.3243C2.7649 46 2.92075 45.6216 3.05432 45.5676C3.12111 45.5135 3.21016 45.4594 3.27695 45.4594C3.56635 45.4054 3.87802 45.4054 4.14516 45.027C4.21195 44.973 4.27873 44.9189 4.36778 44.9189C4.4791 44.8649 4.59041 44.8649 4.70172 44.8649C4.92434 44.8108 5.14697 44.8108 5.36958 44.7027C5.59221 44.5946 5.79257 44.2703 6.0152 44.2162C6.03746 44.2162 6.08199 44.1081 6.10425 44.054C6.08199 44 6.05972 43.9459 6.03745 43.9459C5.59221 43.8919 5.14697 43.8919 4.70172 43.8919C4.4791 43.8919 4.25647 43.8378 4.05612 43.5676C3.96707 43.4594 3.8335 43.4054 3.74445 43.2973C3.6554 43.2432 3.52182 43.2432 3.52182 42.9189C3.52182 42.7567 3.61088 42.6486 3.67767 42.5405C3.74445 42.4324 3.7667 42.2703 3.7667 42.054C3.74444 41.8919 3.69993 41.7297 3.61088 41.7297C3.54409 41.6757 3.45504 41.6757 3.38825 41.6757C3.0098 41.6216 2.63133 41.6216 2.27514 41.6216C2.1193 41.6216 1.98573 41.5676 1.8299 41.5676C1.78537 41.5676 1.74084 41.4594 1.74084 41.4594C1.74084 41.2973 1.80762 41.1892 1.87441 41.1892C2.09703 41.1351 2.31966 41.0811 2.52002 40.8108C2.67586 40.5946 2.87622 40.5946 3.05432 40.5405C3.14337 40.4865 3.18789 40.3784 3.18789 40.2703C3.18789 40.2162 3.1211 40.1621 3.09883 40.1081C2.87622 40.054 2.65359 40.054 2.43096 40C2.31966 39.9459 2.20835 39.9459 2.09703 39.8378C1.85214 39.5676 1.58501 39.5135 1.34012 39.5135C1.18428 39.5135 1.05071 39.4594 0.894877 39.4054C0.850351 39.4054 0.828081 39.2973 0.805819 39.2432C0.828081 39.1892 0.872614 39.1351 0.894877 39.0811C1.00619 39.027 1.11749 38.973 1.22881 38.973C1.9412 38.973 2.65359 38.973 3.36598 38.9189C3.81124 38.9189 4.25647 38.9189 4.70172 38.7567C4.72398 38.7567 4.76851 38.6486 4.76851 38.6486C4.76851 38.5405 4.74624 38.4324 4.70172 38.4324C4.50136 38.1622 4.301 37.9459 4.07838 37.9459C3.41051 37.8919 2.74265 37.8378 2.05252 37.7838C1.94121 37.7838 1.82989 37.6757 1.74084 37.4594C1.71858 37.4054 1.69632 37.2973 1.67406 37.2432C1.62953 37.0811 1.67406 36.9189 1.78536 36.9189C2.07478 36.8649 2.38645 36.8649 2.67586 36.8108C2.94301 36.7567 3.18788 36.8649 3.43277 37.1351C3.45503 37.1892 3.49956 37.1892 3.54408 37.1892C3.69992 37.2432 3.83349 37.1351 3.9448 36.9189C4.03385 36.4324 4.18968 36.2703 4.39005 36.2162C4.50136 36.1622 4.61267 36.054 4.70172 35.9459C4.85755 35.7838 4.99114 35.8378 5.1247 36C5.19149 36.1081 5.25828 36.1081 5.34733 36.054C5.45864 36 5.54769 35.8919 5.659 35.7838C5.88162 35.6216 6.10425 35.5676 6.32687 35.7297C6.61628 35.8919 6.61628 35.8919 6.86116 35.6216C6.88342 35.5676 6.92795 35.5135 6.95021 35.4594C6.99474 35.2973 6.97248 35.1892 6.86116 35.1892C6.57176 35.1351 6.26008 35.1351 5.97067 35.0811C5.90389 35.0811 5.8371 34.973 5.74805 34.973C5.63674 34.9189 5.59222 34.5405 5.659 34.3243C5.74805 33.8919 5.90389 33.5676 6.08199 33.5676C6.59402 33.5135 7.12831 33.4594 7.64034 33.4594C7.75166 33.4594 7.86297 33.5135 7.97428 33.6757C8.21916 34.054 8.46405 34 8.7312 34C8.79798 34 8.88703 33.9459 8.95382 33.8919C8.97608 33.8919 9.04287 33.8378 9.04287 33.7838C9.04287 33.7297 9.02061 33.6216 9.02061 33.5135C8.95383 33.2973 8.86477 33.1351 8.75347 33.0811C8.0856 32.973 7.41772 33.0811 6.72759 32.9189C6.61628 32.9189 6.59402 32.7567 6.57176 32.3243C6.57176 32 6.50497 31.8919 6.34914 31.8919C6.1933 31.8919 6.05973 32 5.99294 32.4324C5.97067 32.4865 5.94841 32.5946 5.90389 32.5946C5.8371 32.5946 5.79257 32.4865 5.79257 32.2703C5.79257 32.1622 5.77031 32.1081 5.77031 32C5.74805 31.6757 5.63674 31.5135 5.54769 31.4594C4.92435 31.2973 4.27874 31.2432 3.63314 31.2973C3.52182 31.2973 3.41052 31.2973 3.2992 31.1892C3.27694 31.1351 3.25467 31.0811 3.21015 31.027C3.23241 30.973 3.25468 30.8649 3.2992 30.8649C3.58861 30.6486 3.90028 30.9189 4.18969 30.7567C4.27873 30.7027 4.301 30.5946 4.32326 30.3784C4.32326 29.7838 4.34553 29.7838 4.56815 29.8919C4.72399 30 4.72399 30 4.99113 29.7838C5.05792 29.7297 5.14697 29.6757 5.21376 29.6757C5.54769 29.6757 5.88162 29.6757 6.21556 29.7297C6.26009 29.7297 6.28235 29.7838 6.32687 29.7838C6.46044 29.9459 6.61628 29.9459 6.74986 29.7838C6.88343 29.6216 7.03926 29.6757 7.1951 29.7297C7.26189 29.7838 7.32868 29.8378 7.41773 29.8919C7.59582 30.054 7.77392 30.054 7.95202 29.8919C7.99655 29.8378 8.0188 29.8378 8.06333 29.7838C8.24143 29.5676 8.41953 29.5676 8.59762 29.7838C8.93156 30.1081 9.26549 30.054 9.59943 30C9.71074 30 9.79979 29.7838 9.86658 29.5676C9.88884 29.5135 9.9111 29.4054 9.88884 29.2973C9.88884 29.2432 9.84432 29.1892 9.82205 29.1351C9.57717 28.973 9.31002 29.027 9.04287 28.973C8.5531 28.9189 8.06333 28.9189 7.59582 28.8649C7.57356 28.8649 7.50677 28.8108 7.50677 28.7027C7.48451 28.5946 7.55129 28.4865 7.64035 28.4324C7.75166 28.3784 7.86297 28.3784 7.97428 28.3784C8.35274 28.3243 8.7312 28.3243 9.0874 28.3243C9.17645 28.3243 9.22097 28.1621 9.17645 28.054C9.15418 28 9.10966 27.9459 9.0874 27.9459C8.93156 27.8919 8.79798 27.8919 8.64215 27.8919C8.30821 27.8919 7.97428 27.9459 7.66261 27.5135C7.59582 27.4594 7.50678 27.4594 7.43999 27.5135C7.28415 27.6216 7.15058 27.6216 6.99474 27.5135C6.77212 27.2973 6.54949 27.3513 6.32687 27.3513C6.10425 27.2973 5.88162 27.3513 5.659 27.2973C5.54769 27.2973 5.45864 27.1351 5.34733 26.973C5.23602 26.3784 4.99113 26.3243 4.76851 26.3243C4.54589 26.2703 4.32326 26.2703 4.10064 26.2703C3.78897 26.3243 3.52182 26.054 3.25467 25.6757C3.1211 25.5135 3.07659 25.027 3.16564 24.7568C3.2992 24.3784 3.43278 24.1622 3.63314 24.1622C3.67766 24.1622 3.69992 24.1622 3.74445 24.1622L3.72219 24.1081C3.76672 24.2703 3.81123 24.4324 3.87802 24.4324C4.21195 24.5946 4.54589 24.5946 4.87982 24.4324C4.96887 24.3784 5.01339 24.2162 4.99113 24.054C4.96887 23.8919 4.92434 23.7297 4.85755 23.7297C4.79077 23.7297 4.70172 23.7297 4.63494 23.8378C4.50136 24 4.41232 23.8919 4.34553 23.6757C4.27874 23.4594 4.21195 23.2432 4.14516 23.027C4.07837 22.8108 3.98933 22.6486 3.87802 22.5946C3.7667 22.5946 3.6554 22.5946 3.54409 22.5405C3.4773 22.5405 3.38825 22.4865 3.32146 22.4865C3.2992 22.4865 3.25468 22.3784 3.23242 22.3243C3.21015 22.2162 3.23241 22.054 3.32146 22C4.14517 21.8919 4.96887 21.8919 5.79257 21.8919C7.23963 21.8919 8.70893 22 10.156 21.8378C10.245 21.8378 10.2896 21.6757 10.2673 21.5676C10.245 21.5135 10.2005 21.4594 10.1782 21.4054C10.1337 21.3513 10.1115 21.3513 10.0669 21.3513C9.02061 21.3513 7.97428 21.2973 6.92795 21.2973C6.72759 21.2973 6.54949 21.2432 6.37139 21.027C6.23782 20.8649 6.08198 20.8649 5.92615 20.8649C5.36959 20.8649 4.81304 20.8108 4.23422 20.8108C3.83349 20.8108 3.41052 20.9189 3.0098 20.7027C2.98754 20.7027 2.943 20.5946 2.92074 20.5405C2.943 20.4865 2.98754 20.3784 3.0098 20.3784C3.38825 20.2162 3.74445 20.2162 4.1229 20.2703C4.50136 20.2703 4.87982 20.3243 5.23602 20.2162C5.34733 20.1621 5.39186 19.9459 5.30281 19.6216C5.23602 19.4054 5.16923 19.1892 5.12471 18.9189C5.10244 18.7568 5.12471 18.5405 5.12471 18.3784C5.12471 18.3243 5.08018 18.2703 5.05792 18.2162C4.87982 18.054 4.67946 18.054 4.50136 18.054C3.96707 18.1081 3.45504 18.054 2.92074 18C2.87622 18 2.85395 18 2.80943 18C2.65359 18 2.67586 17.7838 2.8317 17.5676C3.05432 17.2432 3.2992 17.027 3.56636 17.027C4.27875 17.027 4.99113 17.027 5.70352 17.027C6.48271 17.027 7.28415 17.027 8.06333 17.027C8.17464 17.027 8.28595 17.027 8.39727 17.027C9.06513 16.8649 9.733 17.027 10.4009 16.8649C10.4454 16.8649 10.4677 16.7567 10.4899 16.7027C10.4677 16.6486 10.4454 16.5946 10.4009 16.5405C10.2896 16.4865 10.1782 16.4324 10.0669 16.4324C9.733 16.4324 9.39907 16.4865 9.06513 16.5405C8.95382 16.5405 8.84251 16.5405 8.7312 16.4324C8.48632 16.1621 8.24143 16.054 7.97428 16C6.77212 15.9459 5.56995 15.9459 4.39005 15.8919C4.21195 15.8919 4.0116 15.8378 3.83351 15.6757C3.69993 15.5676 3.54409 15.5135 3.38826 15.5135C3.12111 15.5135 2.85396 15.4594 2.60908 15.5135C2.23062 15.5676 1.87441 15.2973 1.54048 14.8649C1.51821 14.8108 1.4737 14.7567 1.45143 14.7027C1.2956 14.4324 1.09523 14.3784 0.917132 14.3784C0.649981 14.3784 0.382838 14.3784 0.13795 14.3243C0.0488996 14.3243 -0.0178804 14.1622 0.00438213 14.054C0.0266447 13.8919 0.115687 13.8378 0.204738 13.8378C0.961658 13.8378 1.69632 13.7297 2.45323 13.8378C2.72039 13.8919 2.98754 13.8378 3.23242 13.8378C3.63314 13.8378 4.05612 13.8378 4.45684 13.8378C4.74625 13.8378 5.05793 13.7838 5.34733 13.7297C5.45864 13.7297 5.56996 13.6216 5.659 13.5135C5.8371 13.3513 6.0152 13.1892 6.19329 13.1892C6.52723 13.1351 6.86116 13.1351 7.1951 13.0811C7.23963 13.0811 7.28415 13.027 7.28415 12.973C7.30641 12.8649 7.23963 12.7567 7.15058 12.7567C6.88343 12.7027 6.63854 12.7027 6.37139 12.6486C6.34913 12.6486 6.30461 12.5946 6.28234 12.4865C6.23782 12.3784 6.28234 12.2162 6.37139 12.2162C7.15058 12 7.95202 12.054 8.7312 12.1622C8.84251 12.1622 8.95382 12.2703 9.06514 12.3243C9.13192 12.3784 9.19871 12.3784 9.28776 12.3243C9.53264 12.1081 9.79979 12.054 10.0669 12.054C10.2228 12.054 10.3786 12.054 10.5122 11.8919C10.7571 11.6216 11.002 11.5676 11.2691 11.4054C11.3359 11.3513 11.4027 11.2973 11.4695 11.2432C11.6476 11.027 11.8257 11.027 12.0038 11.2432C12.0706 11.3513 12.1596 11.3513 12.2264 11.2973C12.5158 11.027 12.8052 10.973 13.0946 10.8649C13.1169 10.8649 13.1391 10.7568 13.1837 10.7027C13.1614 10.6486 13.1391 10.5946 13.0946 10.5405C12.8275 10.3784 12.5826 10.3784 12.3154 10.4324C11.7589 10.4324 11.2023 10.3784 10.6235 10.4865C10.4009 10.5405 10.1782 10.4865 9.95563 10.3243C9.91111 10.3243 9.88884 10.2162 9.86658 10.2162C9.88884 10.1622 9.91111 10.1081 9.95563 10.054C10.245 9.89188 10.5567 9.89188 10.8461 9.89188C11.3804 9.89188 11.8925 9.89188 12.4267 9.89188C12.4935 9.89188 12.5826 9.83783 12.6494 9.78378C12.6939 9.78378 12.7162 9.67567 12.7384 9.62162C12.7162 9.56757 12.6716 9.5135 12.6494 9.45945C12.3822 9.29729 12.1373 9.35134 11.8702 9.4054C11.3136 9.45945 10.7571 9.4054 10.1782 9.35135C10.0224 9.35135 9.88884 9.24324 9.75527 9.08108C9.62169 8.91891 9.46586 8.8108 9.33229 8.86485C8.61989 8.86485 7.9075 8.91891 7.1951 8.91891C6.86116 8.91891 6.52723 8.86486 6.19329 8.81081C6.14878 8.81081 6.12651 8.70269 6.10425 8.70269C6.12651 8.59458 6.19329 8.48648 6.28234 8.48648C6.57176 8.43243 6.88343 8.37837 7.17284 8.37837C8.75346 8.37837 10.3118 8.32432 11.8925 8.32432C12.2264 8.32432 12.5603 8.27026 12.8943 8.27026C12.9388 8.27026 12.9833 8.2162 12.9833 8.16215C13.0056 7.99999 12.961 7.89188 12.8943 7.83783C12.8497 7.78378 12.8275 7.78378 12.7829 7.78378C12.6939 7.78378 12.6271 7.72972 12.5826 7.56756C12.5381 7.4054 12.6271 6.97297 12.7162 6.91892C12.7829 6.86486 12.8497 6.75675 12.9165 6.75675C13.0724 6.7027 13.2059 6.64864 13.3618 6.59459C13.4508 6.54054 13.4953 6.37837 13.4953 6.21621C13.4953 6.05405 13.4731 5.89188 13.4063 5.78378C13.3395 5.67567 13.2505 5.56756 13.2282 5.45945C13.2059 5.29729 13.295 5.18918 13.3618 5.08107C13.4508 4.97296 13.4508 4.8108 13.4508 4.64864C13.4286 4.2162 13.5399 4.05405 13.718 4.21621C13.7625 4.27026 13.7847 4.27026 13.8293 4.32432C13.8961 4.37837 13.9628 4.48648 14.0296 4.59459L14.0074 4.54054C14.0964 4.86485 14.2077 5.02702 14.3858 5.02702C14.6752 5.02702 14.9869 5.08107 15.2541 4.7027C15.3208 4.64864 15.4099 4.64864 15.4767 4.7027C15.6325 4.81081 15.7661 4.91892 15.8997 4.7027C15.9665 4.59459 16.0332 4.59458 16.1223 4.64864C16.1891 4.70269 16.2559 4.75675 16.3227 4.86486C16.5008 5.02702 16.6788 5.08108 16.8569 4.86486C17.0128 4.7027 17.1464 4.75675 17.2799 4.91891C17.3245 4.97296 17.3467 4.97297 17.3912 4.97297C17.792 5.02702 18.2149 5.08107 18.6157 4.91891C18.7715 4.86485 18.9051 4.75675 19.0387 4.59459C19.2168 4.37837 19.3948 4.43243 19.5729 4.59459C19.6843 4.7027 19.7956 4.7027 19.8846 4.59459C19.9514 4.54054 20.0182 4.48648 20.085 4.37837C20.174 4.27026 20.2853 4.27027 20.3521 3.99999C20.3076 3.83783 20.2408 3.78378 20.1518 3.72972C19.9959 3.67567 19.8624 3.56756 19.751 3.24324C19.6843 3.08108 19.7065 2.91892 19.7733 2.81081C19.7956 2.75675 19.8401 2.7027 19.8624 2.7027C20.0405 2.59459 20.2408 2.59459 20.4189 2.81081C20.5747 2.97297 20.7083 2.91891 20.8419 2.75675C20.8642 2.70269 20.9087 2.7027 20.9532 2.64865C21.3985 2.59459 21.8437 2.48648 22.289 2.7027C22.4003 2.75675 22.4225 2.86486 22.378 3.08108C22.3335 3.24324 22.3112 3.40541 22.2667 3.51351C22.1554 3.94594 22.1554 4.05405 22.289 4.1081C22.467 4.16216 22.6674 4.21621 22.8455 4.16216C23.0013 4.1081 23.1349 3.94594 23.1794 3.51351C23.1794 3.40541 23.2017 3.35135 23.224 3.24324C23.2462 2.91892 23.3575 2.75675 23.4466 2.7027C23.6915 2.59459 23.9586 2.54054 24.2258 2.59459C24.3148 2.59459 24.3816 2.7027 24.3816 2.81081C24.3816 2.86486 24.3593 2.97296 24.3148 3.02702C24.248 3.13513 24.1812 3.24324 24.1367 3.35134C24.0254 3.62162 23.8918 3.72972 23.736 3.72972C23.6469 3.72972 23.6024 3.78379 23.5579 3.94595C23.6247 4.05405 23.6915 4.1081 23.7583 4.1081C23.9364 4.1081 24.1367 4.1081 24.3148 3.94595C24.5597 3.72973 24.8046 3.51351 25.0495 3.29729C25.1163 3.24324 25.1831 3.13513 25.2721 3.13513C25.5838 3.13514 25.8509 2.86486 26.1403 2.64865C26.2071 2.59459 26.2962 2.59459 26.363 2.64865C26.8305 3.08107 27.3202 3.13513 27.7877 3.08108C28.5001 2.97297 29.2125 3.08108 29.9027 3.08108C30.014 3.08108 30.1253 3.08107 30.2366 3.18918C30.4147 3.35135 30.5928 3.2973 30.7932 3.13514C30.9267 3.02703 31.0826 3.02702 31.2384 3.18918C31.3497 3.29729 31.461 3.40541 31.5501 3.40541C31.9953 3.45946 32.4406 3.51351 32.8858 3.35135C32.9971 3.29729 33.0862 3.18919 33.1752 2.97297C33.1975 2.91892 33.2197 2.8108 33.2197 2.75675C33.1752 2.54053 33.1084 2.48649 33.0417 2.59459C32.9749 2.64865 32.9081 2.7027 32.8413 2.81081C32.73 2.97297 32.6187 2.97297 32.5296 2.86487C32.3292 2.64865 32.1066 2.54054 31.884 2.54054C31.3942 2.54054 30.9045 2.59459 30.437 2.43243C30.3924 2.43243 30.3479 2.37838 30.3479 2.32432C30.3256 2.16216 30.3702 2 30.4147 1.83783C30.4592 1.67567 30.526 1.62162 30.6151 1.56756C30.8377 1.51351 31.0603 1.45945 31.2829 1.4054C31.5501 1.4054 31.795 1.4054 32.0621 1.4054C32.2179 1.4054 32.3515 1.24324 32.4851 1.13513C32.5741 1.08107 32.7077 1.13514 32.7968 1.08108C32.819 1.08108 32.8413 0.972974 32.8858 0.91892C33.0194 0.54054 33.0194 0.54054 33.153 0.702703C33.2643 0.810811 33.3533 0.918912 33.4646 1.02702C33.5314 1.08107 33.5759 1.24324 33.5982 1.45945C33.5314 1.45945 33.4424 1.45946 33.3756 1.51352C33.3533 1.51352 33.3088 1.56757 33.2865 1.62162C33.2643 1.67567 33.2643 1.78379 33.2643 1.78379C33.3088 1.94595 33.3756 1.94594 33.4424 1.83783C33.5092 1.72973 33.5537 1.62162 33.5537 1.4054C33.6427 1.4054 33.7095 1.4054 33.7986 1.4054C33.8208 1.67567 33.9099 1.83783 34.0212 1.89189C34.088 1.94594 34.1548 1.89189 34.2215 1.89189C34.2438 1.89189 34.2883 1.83784 34.3106 1.78379C34.3329 1.67568 34.2883 1.56756 34.1993 1.56756C34.0657 1.51351 33.9099 1.51352 33.7763 1.51352C33.7986 1.35135 33.8208 1.18919 33.8876 1.08108C33.9767 0.91892 34.0657 0.810811 34.177 0.702703C34.2661 0.594594 34.3774 0.486486 34.4887 0.648649C34.6223 0.810811 34.7558 0.864866 34.8894 0.972974C35.0007 1.08108 35.0675 1.18919 35.1343 1.45945C35.1788 1.67567 35.2679 1.89189 35.3792 2C35.4015 2.16216 35.446 2.32432 35.5128 2.37838C35.535 2.43243 35.5796 2.43243 35.6018 2.43243C35.6241 2.43243 35.6686 2.37838 35.6909 2.32432C35.7131 2.21621 35.6686 2.10811 35.5796 2.05405C35.5128 2.05405 35.446 2.05405 35.3569 2.05405C35.4682 1.40541 35.6686 1.02703 35.9357 0.91892C36.3365 0.756757 36.7149 0.378378 37.1156 0.108107C37.227 0.0540523 37.3383 0.0540523 37.4496 0.108107C37.5164 0.162161 37.6054 0.162161 37.6722 0.162161C37.7835 0.162161 37.8948 0.0540524 38.0061 -1.79896e-06C38.251 0.216215 38.5182 0.27027 38.7408 0.594588C38.9412 0.918913 39.1638 0.864859 39.3641 0.594588C39.3864 0.540533 39.4309 0.486487 39.4532 0.486487C39.4755 0.432433 39.52 0.378378 39.5645 0.378378C39.6758 0.324324 39.7871 0.27027 39.8984 0.378378C40.032 0.486487 40.1656 0.702704 40.2992 0.810813C40.366 0.864867 40.455 0.864859 40.5218 0.864859C40.6776 0.864859 40.8112 0.756751 40.9448 0.594588C41.1451 0.324324 41.3678 0.27027 41.5904 0.324325C41.7462 0.324325 41.8798 0.378379 42.0356 0.432433C42.1915 0.486487 42.3028 0.64865 42.4141 0.972976C42.4809 1.18919 42.4809 1.35135 42.3696 1.4054C42.1692 1.56757 41.9466 1.67567 41.7239 1.83784C41.5013 2 41.2787 1.94594 41.0561 1.94594C40.8335 2 40.6108 1.89189 40.4105 1.62162C40.2769 1.45946 40.1211 1.51352 39.9652 1.62162C39.9207 1.62162 39.8984 1.67567 39.8539 1.72973C39.6758 1.94594 39.52 2.05405 39.3196 2.05405C38.6963 2.00001 38.0507 2.10811 37.4273 2.05405C37.2492 2.05405 37.0489 2.10811 36.893 2.32432C36.6927 2.54054 36.47 2.54054 36.2474 2.64865C36.2252 2.59459 36.2252 2.48649 36.2029 2.43243C36.1806 2.37838 36.1584 2.37838 36.1361 2.37838C36.1361 2.48649 36.1806 2.59459 36.2697 2.59459C36.2919 2.86487 36.3365 3.08108 36.4255 3.29729C36.5146 3.45946 36.6259 3.56756 36.7372 3.56756C36.804 3.56756 36.893 3.51351 36.9598 3.45946C37.1824 3.29729 37.4051 3.18918 37.6277 3.18918C38.0729 3.18918 38.5182 3.18918 38.9634 3.18918C39.186 3.18918 39.4087 3.13513 39.6313 2.91891C39.6981 2.86486 39.7649 2.86486 39.8539 2.91891C40.0988 3.18918 40.3437 3.4054 40.5663 3.62162C40.8335 3.67567 41.0561 4.10811 41.3232 4.16216C41.5013 4.21622 41.5681 4.48649 41.5681 4.86487C41.5681 5.08108 41.6126 5.18919 41.7017 5.18919C42.1469 5.24324 42.5922 5.35136 43.0374 5.13514C43.1265 5.08108 43.171 4.97298 43.1042 4.75676C43.0374 4.54054 42.9706 4.32432 42.9261 4.10811C42.8816 3.89189 42.9038 3.78378 43.0152 3.72973C43.2823 3.56757 43.5272 3.56757 43.7721 3.83784C43.8389 3.94595 43.8834 4.05405 43.8611 4.27027C43.8389 4.64864 43.7053 4.91892 43.7276 5.2973C43.7276 5.45946 43.7943 5.62162 43.8611 5.62162C43.9724 5.67567 44.0838 5.56757 44.1951 5.45946C44.3732 5.29729 44.5513 5.24325 44.7294 5.40541C44.9075 5.56757 45.0856 5.67567 45.2637 5.45946C45.4195 5.24324 45.6421 5.2973 45.7757 5.02703C45.8425 4.91892 45.8425 4.75675 45.8202 4.54054C45.798 4.48649 45.7757 4.37837 45.7312 4.37837C45.7089 4.32432 45.6644 4.32433 45.6199 4.32433C45.4863 4.43243 45.3304 4.54053 45.1969 4.64864C45.0856 4.7027 44.9742 4.64865 44.9075 4.43243C44.8184 4.16216 44.8629 3.89189 44.9743 3.78378C45.0188 3.72973 45.041 3.67568 45.0856 3.67568C45.375 3.62163 45.6866 3.62162 45.9761 3.56757C46.0428 3.56757 46.1319 3.62163 46.1987 3.67568C46.3323 3.78379 46.4658 4.05405 46.6217 4C46.733 3.94595 46.8443 3.83784 46.9333 3.78378C47.0224 3.72973 47.156 4.05405 47.1782 4.27027C47.1782 4.54054 47.1337 4.81081 47.1114 5.02703C47.1114 5.24325 47.156 5.35135 47.2227 5.45946C47.2673 5.51351 47.2895 5.56757 47.334 5.56757C47.6235 5.62163 47.9351 5.62162 48.2245 5.67567C48.4917 5.72973 48.7366 5.67567 49.0037 5.62162C49.1373 5.62162 49.1596 5.45946 49.1596 5.08108C49.1596 4.75675 49.2486 4.54054 49.3377 4.64864C49.4712 4.81081 49.6048 4.97297 49.7384 5.08108C49.7606 5.13513 49.7606 5.24325 49.7829 5.2973C49.8052 5.35136 49.8274 5.35135 49.8497 5.35135C49.8497 5.24324 49.8052 5.13514 49.7384 5.13514C49.7606 4.54054 49.8497 4.10811 50.0946 3.89189C50.2949 3.67568 50.5176 3.51351 50.7179 3.2973C50.8292 3.18919 50.8292 2.86486 50.7402 2.64865C50.7179 2.5946 50.6957 2.48648 50.6511 2.48648C50.5398 2.43243 50.4285 2.37838 50.3172 2.37838C50.1391 2.32433 49.9387 2.32433 49.7606 2.16216C49.5158 1.94595 49.2486 1.89189 48.9815 1.89189C48.091 1.94595 47.1782 1.89189 46.2877 1.83784C46.0651 1.83784 45.8425 1.94595 45.6421 2.27027C45.464 2.54054 45.2859 2.48649 45.1078 2.27027C44.9965 2.16216 44.9297 1.94595 44.8629 1.72973C44.7739 1.45946 44.8184 0.918914 44.9743 0.86486C45.0188 0.86486 45.041 0.810814 45.0856 0.810814C45.4195 0.756759 45.7534 0.702705 46.0874 1.02702C46.1987 1.13513 46.2877 1.13513 46.399 1.02702C46.5103 0.918915 46.6217 0.864868 46.733 0.810814C46.7998 0.75676 46.8888 0.810814 46.9556 0.810814C47.2895 0.810814 47.6235 0.810807 47.9574 0.75676C48.3359 0.702706 48.6921 0.810807 49.0705 1.02702C49.1373 1.08108 49.2264 1.02703 49.2931 0.972977C49.538 0.702706 49.8052 0.810807 50.0723 0.75676C50.3395 0.702706 50.5844 0.810815 50.8515 0.972978C51.0073 1.08109 51.1409 1.08108 51.2967 1.02702C51.6975 0.756761 52.0982 0.702707 52.4989 1.08109C52.6102 1.1892 52.7215 1.1892 52.8328 1.1892C53.1 1.24324 53.3449 1.2973 53.612 1.24325C54.1018 1.1892 54.5916 1.08108 55.0591 1.13513C55.5488 1.18919 56.0386 1.2973 56.5061 1.2973C56.6174 1.2973 56.7288 1.35135 56.8401 1.45946C57.1295 1.83784 57.4189 1.72974 57.7083 1.51352C57.8641 1.40541 57.9977 1.40541 58.1313 1.56757C58.3762 1.78379 58.6433 1.72973 58.9105 1.56757C58.9772 1.51351 59.044 1.40541 59.0886 1.2973C59.1553 1.18919 59.1999 1.02703 59.2444 0.918925C59.2889 1.02703 59.3557 1.13514 59.4002 1.24325C59.467 1.35136 59.5115 1.45947 59.5783 1.51352C59.6896 1.56758 59.8009 1.62162 59.9123 1.62162C61.0254 1.56758 62.1608 1.67568 63.2739 1.67568C63.452 1.67568 63.6523 1.67568 63.8304 1.62162C64.0976 1.56758 64.3425 1.62162 64.5873 1.8919C64.7654 2.10811 64.9435 2.05406 65.1439 2C65.3665 1.94595 65.5669 1.72973 65.8118 1.94595C65.8786 2 65.9676 1.94595 66.0344 1.83784C66.2125 1.62162 66.3906 1.67568 66.5687 1.8919C66.6577 2 66.7691 2.10811 66.8804 2.10811C67.103 2.05406 67.3256 2.00001 67.5482 2.05406C67.7709 2.10811 67.9935 2.10811 68.2161 2.10811C68.5055 2.10811 68.8172 2.10811 69.1066 2.05406C69.2847 2.05406 69.4851 1.94596 69.6632 1.7838C69.8413 1.56758 70.0194 1.62163 70.1975 1.7838C70.3088 1.8919 70.4201 1.8919 70.5314 1.8919C70.9098 1.94595 71.2883 1.94595 71.6445 2.00001C71.8003 2.00001 71.9339 2.05406 72.0897 2.16217C72.2011 2.27028 72.3124 2.27028 72.4237 2.16217C72.5573 2.05406 72.7131 2.00001 72.8689 1.94595C73.2474 1.94595 73.6258 1.8919 73.982 1.8919C74.3828 1.83784 74.8057 1.8919 75.2065 2.10811C75.3623 2.21622 75.4959 2.16217 75.6517 2.05406C76.0079 1.83785 76.3864 1.83785 76.7648 1.7838C77.2101 1.72974 77.6553 1.72974 78.1006 1.7838C78.39 1.83785 78.7017 1.83785 78.9911 1.7838C79.2582 1.72974 79.5254 1.7838 79.7702 2.05406C79.837 2.10812 79.9261 2.16217 79.9929 2.05406C80.2378 1.7838 80.5049 1.72974 80.772 1.7838C81.4844 1.7838 82.1968 1.83784 82.9092 1.83785C83.0205 1.83785 83.1319 1.83785 83.2432 1.94595C83.6439 2.32433 84.0446 2.32433 84.4676 2.27028C84.6457 2.21623 84.8461 2.16217 85.0242 2.00001C85.0909 1.94595 85.1577 1.8919 85.2468 1.8919C85.6252 1.83785 86.0037 1.83785 86.3599 1.8919C86.7161 2.21623 87.0945 2.16217 87.473 2.21623C87.6288 2.21623 87.7624 2.16217 87.9183 2.00001C87.985 1.94595 88.0518 1.94595 88.1409 2.00001C88.2744 2.10812 88.4303 2.21623 88.5861 2.10812C88.8533 2.00001 89.0982 1.94595 89.3653 2.10812C89.8106 2.10812 90.2558 2.37838 90.701 2.21623C91.1018 2.27028 91.5247 2.27028 91.9255 2.32434C91.9923 2.32434 92.0813 2.37839 92.1481 2.43244C92.393 2.64866 92.6601 2.70272 92.9273 2.70272C93.1944 2.70272 93.4616 2.70271 93.7065 2.75676C93.8846 2.75676 94.0849 2.86488 94.263 2.97299C94.4856 3.13515 94.7083 3.13515 94.9309 2.97299C94.9977 2.91893 95.0645 2.97298 95.1535 3.02703C95.2648 3.08109 95.3761 3.1892 95.4874 3.1892C96.1998 3.1892 96.9122 3.24325 97.6246 3.29731C97.825 3.29731 98.0031 3.35137 98.1812 3.51353C98.3593 3.67569 98.5374 3.62163 98.7377 3.51353C99.1385 3.1892 99.5392 3.1892 99.9399 3.56758C100.051 3.67569 100.163 3.67569 100.274 3.72974C100.452 3.72974 100.652 3.72974 100.83 3.72974C100.986 3.72974 101.12 3.83785 101.276 3.83785C101.587 4.21622 101.921 4.16217 102.255 4.21623C102.522 4.27028 102.767 4.27028 103.034 4.32434C103.302 4.32434 103.546 4.37838 103.791 4.64866C104.348 4.81082 104.882 5.35136 105.439 5.35136C105.595 5.35136 105.728 5.45948 105.862 5.56759C105.995 5.72975 106.151 5.7838 106.307 5.7838C106.374 5.7838 106.463 5.7838 106.53 5.83786C106.908 6.21623 107.331 6.32434 107.732 6.43245C107.821 6.43245 107.932 6.81083 107.91 7.02704C107.888 7.18921 107.865 7.40542 107.865 7.56758C107.865 7.72974 107.91 7.8919 107.999 7.94596C108.043 8.00001 108.066 8.00001 108.11 8.00001C108.422 7.94596 108.689 8.32434 108.956 8.64866C109.023 8.70272 109.067 8.91894 109.09 9.0811C109.179 9.62164 109.357 9.94596 109.579 10.1081C109.802 10.2703 110.002 10.4865 110.203 10.6487C110.381 10.7568 110.559 10.8649 110.737 11.027C110.848 11.1351 110.96 11.1892 111.071 11.2433C111.249 11.2973 111.45 11.3514 111.605 11.5135C111.917 11.7838 112.273 11.7838 112.607 11.7297C112.696 11.7297 112.763 11.6216 112.763 11.5135C112.763 11.4595 112.718 11.3514 112.696 11.2973C112.474 11.027 112.229 10.7568 112.006 10.4324C111.85 10.2162 111.717 10.2703 111.583 10.4324C111.539 10.4865 111.516 10.4865 111.472 10.5406C111.249 10.7027 111.027 10.6487 110.848 10.2703C110.715 9.94596 110.581 9.67569 110.425 9.40542C110.292 9.1892 110.158 9.18921 110.002 9.35137C109.936 9.40542 109.869 9.51353 109.802 9.51353C109.735 9.56758 109.646 9.45947 109.624 9.24325C109.602 9.02704 109.646 8.86488 109.713 8.81083C109.735 8.75677 109.78 8.70271 109.802 8.70271C110.025 8.64866 110.247 8.5946 110.47 8.5946C110.648 8.5946 110.848 8.59461 111.027 8.81083C111.316 9.0811 111.605 9.13515 111.917 9.13515C112.073 9.13515 112.206 9.0811 112.362 9.0811C112.474 9.0811 112.607 9.0811 112.696 9.18921C112.963 9.56758 113.253 9.62163 113.564 9.56758C113.832 9.51353 114.099 9.51353 114.344 9.51353C114.455 9.51353 114.566 9.51353 114.678 9.40542C114.967 9.08109 115.256 9.0811 115.546 9.0811C116.036 9.0811 116.525 9.02705 116.993 9.18921C117.104 9.24326 117.193 9.40542 117.282 9.56758C117.349 9.72974 117.349 9.89191 117.26 10C117.037 10.2703 116.926 10.6487 116.837 11.1892C116.815 11.4054 116.815 11.5676 116.882 11.6757C117.104 12 117.238 12.5946 117.46 12.973C117.594 13.1892 117.572 13.4595 117.438 13.8919C117.282 14.2703 117.282 14.3243 117.438 14.4324C117.549 14.4865 117.661 14.5406 117.75 14.7027C117.817 14.8108 117.906 15.2433 117.861 15.4054C117.839 15.5676 117.817 15.7297 117.772 15.8919C117.661 16.3784 117.594 16.8649 117.616 17.4595C117.638 18 117.638 18.5406 117.594 19.0811C117.572 19.2433 117.572 19.4595 117.549 19.6216C117.505 20.0541 117.305 20.4324 117.126 20.3784C117.06 20.3784 116.971 20.3243 116.904 20.2703C116.837 20.2162 116.748 20.2703 116.681 20.3243C116.548 20.4865 116.392 20.5406 116.236 20.5406C116.013 20.5406 115.791 20.5406 115.568 20.5406C115.568 20.4865 115.546 20.3784 115.546 20.3243C115.524 20.2703 115.501 20.2703 115.479 20.2703C115.479 20.3784 115.524 20.4324 115.59 20.4865C115.635 20.7568 115.724 20.9189 115.835 20.973C115.947 21.027 116.058 21.027 116.169 20.973C116.392 20.9189 116.614 20.973 116.815 21.2433C116.993 21.4595 117.171 21.5135 117.349 21.5676C117.46 21.6216 117.527 21.946 117.483 22.1622C117.394 22.5406 117.349 23.027 117.171 23.2433C117.082 23.3514 117.06 23.5135 117.104 23.6216C117.126 23.6757 117.171 23.6757 117.193 23.7297C117.26 23.7838 117.327 23.8379 117.416 23.8919C117.438 23.946 117.505 24 117.505 24.0541C117.438 24.7027 117.594 25.2973 117.572 25.946C117.549 26.2162 117.505 26.4324 117.394 26.5406C117.282 26.6487 117.171 26.6487 117.082 26.8108C117.015 26.9189 116.971 27.1351 117.037 27.2433C117.104 27.4595 117.193 27.5676 117.282 27.7838C117.371 28 117.394 28.2162 117.349 28.4865C117.327 28.5946 117.305 28.6487 117.305 28.7027C117.215 29.1892 117.215 29.3514 117.349 29.6757C117.394 29.7838 117.46 29.8919 117.505 30.0541C117.594 30.2703 117.572 30.5946 117.527 30.8108C117.416 31.1892 117.193 31.2433 117.082 31.6216C116.993 31.8919 117.104 32.2703 116.971 32.5946C116.837 32.8649 116.837 32.973 116.926 33.2433C116.993 33.4595 117.06 33.6757 117.126 33.8919C117.193 34.1081 117.149 34.3784 117.06 34.5946C117.037 34.6487 116.993 34.7027 116.971 34.7568C116.882 34.973 116.882 35.027 116.926 35.4595C116.948 35.7297 116.993 36 116.993 36.2703C116.993 36.8108 116.971 37.3514 116.971 37.8919C116.971 38.2162 116.859 38.3784 116.77 38.4324C116.57 38.5946 116.347 38.8108 116.147 38.9189C116.08 38.973 115.991 38.9189 115.924 38.8649C115.724 38.8108 115.657 38.9189 115.657 39.4054C115.657 39.5135 115.657 39.5676 115.679 39.6757C115.613 39.6757 115.546 39.6757 115.479 39.6757C115.457 39.6757 115.412 39.7297 115.39 39.7838C115.368 39.8378 115.368 39.8919 115.368 39.946C115.412 40.1081 115.479 40.1081 115.546 40C115.613 39.8919 115.635 39.7838 115.657 39.6216C115.835 39.6216 116.036 39.6757 116.169 40.0541C116.325 40.4865 116.525 40.7027 116.77 40.7027C116.837 40.7027 116.926 40.7568 116.993 40.8108C117.082 40.8649 117.193 41.1892 117.171 41.4054C117.104 41.8378 117.104 42.2703 117.171 42.7027C117.193 42.8649 117.171 43.0811 117.126 43.1892C116.926 43.5676 116.726 44 116.525 44.3784C116.459 44.4865 116.392 44.4865 116.303 44.4865C116.102 44.4865 115.947 44.2703 115.768 44.1622C115.702 44.1081 115.613 44.1622 115.546 44.2162C115.345 44.4865 115.212 44.973 115.011 45.1351C114.922 45.2433 114.9 45.4054 114.967 45.4595C114.989 45.5135 115.034 45.5135 115.078 45.5135C115.145 45.5135 115.234 45.5676 115.301 45.4595C115.434 45.3514 115.568 45.1351 115.702 45.027C115.88 44.8649 116.058 44.9189 116.236 45.1351C116.258 45.1892 116.303 45.2433 116.325 45.2973C116.392 45.6216 116.459 45.946 116.503 46.2703C116.57 46.7027 116.681 47.027 116.859 47.2433C116.993 47.4054 117.015 47.7838 116.904 48.1622C116.792 48.5406 116.681 48.9189 116.592 49.2973C116.503 49.6216 116.392 49.7838 116.236 49.8378C115.835 49.8919 115.412 49.946 115.011 50.0541C114.922 50.0541 114.878 50.2703 114.878 50.4324C114.856 50.6487 114.9 50.8108 114.967 50.8649C115.034 50.9189 115.101 50.973 115.167 51.027C115.345 51.027 115.546 51.027 115.724 51.1892C115.835 51.2433 115.924 51.4054 115.969 51.6757C116.013 51.8919 115.991 52.0541 115.88 52.0541C115.501 52.1622 115.145 52.1622 114.767 52.1622C114.7 51.8378 114.589 51.6216 114.433 51.6216C114.255 51.6216 114.076 51.6216 113.898 51.6757C113.876 51.6757 113.832 51.7297 113.809 51.8378C113.787 51.946 113.832 52.0541 113.921 52.1081C114.21 52.2703 114.477 52.1622 114.767 52.1622C114.811 52.4324 114.9 52.5946 115.011 52.6487C115.123 52.7027 115.234 52.7568 115.301 52.973C115.368 53.1892 115.368 53.5676 115.256 53.6216C115.19 53.6757 115.123 53.7297 115.034 53.7297C114.878 53.7297 114.744 53.6757 114.589 53.5676C114.455 53.4595 114.299 53.3514 114.166 53.2973C113.876 53.2433 113.587 53.1351 113.297 52.8649C113.164 52.7568 113.008 52.7027 112.852 52.7027C112.474 52.7027 112.117 52.7568 111.739 52.8108C111.694 52.8108 111.672 52.8108 111.628 52.8649C111.494 52.9189 111.494 53.0811 111.605 53.0811C111.828 53.1892 112.051 53.1892 112.273 53.2433C112.385 53.2973 112.474 53.4054 112.563 53.6216C112.629 53.7838 112.652 53.946 112.585 54.0541C112.563 54.1081 112.518 54.1622 112.496 54.1622C112.318 54.0541 112.14 53.946 111.962 53.8919C111.739 53.8378 111.516 53.8919 111.294 53.946C111.004 54 110.715 54.3243 110.425 54.3243C110.158 54.3243 109.913 54.3784 109.646 54.4324C109.535 54.4865 109.446 54.6487 109.401 54.9189C109.379 54.9189 109.335 54.973 109.312 54.973C109.29 54.973 109.29 55.0811 109.29 55.1351C109.357 55.1351 109.379 55.0811 109.379 54.8649C109.49 54.8649 109.602 54.9189 109.713 54.9189C109.936 54.973 109.958 55.0811 109.913 55.6216C109.869 56.1081 109.869 56.1622 109.936 56.3784C110.136 56.9189 110.336 57.4595 110.537 58C110.581 58.1622 110.626 58.3243 110.604 58.4865C110.559 58.6487 110.492 58.7027 110.403 58.7027C110.292 58.7568 110.181 58.7568 110.069 58.8108C109.98 58.8649 109.891 59.1892 109.891 59.4054C109.869 59.8378 109.869 60.3243 109.936 60.7568C110.025 61.2432 110.136 61.7297 110.225 62.2162C110.292 62.5405 110.292 62.9189 110.27 63.2973C110.27 63.4054 110.247 63.4595 110.225 63.5676C110.136 64 110.136 64.4324 110.247 64.8649C110.336 65.1892 110.336 65.5676 110.292 65.8919C110.247 66.1622 110.181 66.3784 110.203 66.6486C110.27 67.1351 110.158 67.5135 110.047 67.8919C109.98 68.1081 109.98 68.3784 110.047 68.6486C110.069 68.7027 110.069 68.8108 110.092 68.9189C110.181 69.8378 110.181 70.7027 109.913 71.5135C109.869 71.6757 109.802 71.7838 109.78 71.9459C109.669 72.6487 109.646 73.3514 109.824 74C109.913 74.3243 110.025 74.5405 110.203 74.5405C110.27 74.5405 110.359 74.5405 110.425 74.5405C110.47 74.5405 110.492 74.5405 110.537 74.5946C110.581 74.6486 110.626 74.6486 110.626 74.7027C110.648 74.8108 110.604 74.9189 110.514 74.973C110.448 75.027 110.359 74.973 110.292 75.027C110.047 75.0811 109.958 75.3514 110.114 75.8919C110.292 76.4865 110.27 76.5405 110.002 76.7568C109.891 76.8108 109.802 76.9189 109.691 77.0811C109.602 77.2432 109.535 77.5135 109.602 77.7838C109.691 78.2162 109.735 78.6486 109.713 79.0811C109.669 79.6216 109.713 80.1622 109.758 80.7027C109.824 81.4054 109.824 81.4054 109.691 81.9459C109.669 82 109.646 82.1081 109.624 82.1622C109.579 82.3243 109.579 82.4865 109.602 82.6486C109.735 83.4054 109.869 84.1081 110.002 84.8649C110.047 85.1892 110.069 85.2432 109.847 85.4054C109.646 85.5676 109.513 85.7838 109.468 86.3243C109.468 86.4324 109.446 86.4865 109.446 86.5946C109.379 86.8108 109.312 87.027 109.201 87.0811C109.09 87.1351 108.978 87.1351 108.867 87.1892C108.778 87.2432 108.734 87.3514 108.756 87.4595C108.778 87.5135 108.823 87.5676 108.845 87.6216C108.912 87.6757 109.001 87.6757 109.067 87.7297C109.179 87.7838 109.246 88.1081 109.223 88.3784C109.201 88.5405 109.156 88.7568 109.179 88.9189C109.223 89.1892 109.335 89.2973 109.401 89.4595C109.468 89.6216 109.468 89.7838 109.468 89.9459C109.424 90.4324 109.268 90.7027 109.09 90.8108C108.8 90.973 108.489 91.027 108.199 91.1892C107.977 91.2973 107.776 91.4595 107.531 91.4595C107.242 91.4595 106.93 91.5676 106.663 91.8919C106.53 92.0541 106.374 92.0541 106.218 92.0541C105.995 92.1081 105.773 92.1081 105.55 92.2703C105.305 92.4865 105.038 92.5405 104.771 92.5946C104.326 92.7027 103.88 92.7027 103.435 93.027C103.302 93.1351 103.146 93.1351 102.99 93.1351C102.5 93.1892 102.01 93.1892 101.543 93.5135C101.476 93.5676 101.387 93.5135 101.32 93.4595C101.209 93.4054 101.098 93.4054 100.986 93.5135C100.741 93.7297 100.474 93.7838 100.207 93.7838C99.606 93.8378 99.0049 93.8378 98.4038 93.8378C97.7582 93.8378 97.1348 93.8919 96.4892 93.8919C95.621 93.8919 94.775 93.8919 93.9068 93.9459C93.3503 94 92.7937 93.9459 92.2149 94C92.0145 94 91.8364 93.8919 91.6806 93.6757C91.6138 93.5676 91.547 93.6216 91.458 93.6757C91.3244 93.8378 91.1685 93.8919 91.0127 93.8919C90.3671 93.8919 89.7438 93.8919 89.0982 93.8919C89.0536 93.8919 89.0091 93.8919 88.9868 93.8919C88.7865 93.6757 88.5639 93.6757 88.3412 93.7297C88.0073 93.3513 87.6956 93.4595 87.3617 93.7838C87.1836 93.9459 87.0055 94 86.8051 94C86.538 93.9459 86.2708 94 86.026 93.7838C85.9592 93.7297 85.8701 93.7838 85.8033 93.8378C85.603 94 85.4694 93.8378 85.3358 93.4054C85.2022 92.973 85.0464 92.9189 84.8461 93.1892C84.6457 93.4595 84.4453 93.5676 84.2004 93.5676C83.8665 93.5676 83.5326 93.6216 83.1986 93.5676C83.0205 93.5135 82.8202 93.5676 82.6421 93.6757C82.464 93.8378 82.2859 93.7297 82.0855 93.6757C81.5512 93.5135 80.5049 93.4595 79.837 93.5135C79.5699 93.5676 79.325 93.5676 79.0578 93.5676C78.9465 93.5676 78.8352 93.5135 78.7462 93.3513C78.5681 93.1351 78.39 93.0811 78.2119 93.2973C78.1228 93.4054 78.0115 93.5135 77.9002 93.5135C77.6108 93.4595 77.2991 93.5135 77.0097 93.2432C76.698 92.973 76.3418 93.027 76.0079 93.027C75.9411 93.027 75.8521 93.0811 75.7853 93.1351C75.6072 93.2973 75.4291 93.4054 75.251 93.4054C74.9616 93.4054 74.6499 93.4595 74.3605 93.5135C74.1379 93.5135 73.9153 93.4595 73.6926 93.2432C73.5813 93.1351 73.47 93.0811 73.3587 93.0811C72.9802 93.0811 72.6018 93.027 72.2456 93.3513C72.112 93.4594 71.9562 93.5135 71.8003 93.5135C71.5777 93.5135 71.3551 93.4594 71.1325 93.2432C70.9989 93.0811 70.8653 92.973 70.7095 92.8108C70.6427 92.7567 70.5759 92.7567 70.4869 92.8108C70.1307 93.0811 69.7522 93.027 69.3737 93.027C69.2624 93.027 69.2402 92.8649 69.2624 92.6486C69.2847 92.4324 69.2847 92.2703 69.2179 92.1622C69.1511 92.054 69.0843 92 68.9953 92.054C68.884 92.1081 68.7727 92.1622 68.6614 92.2162C68.5946 92.2703 68.5278 92.2703 68.4387 92.2162C68.3274 92.1081 68.2161 92.1081 68.1048 92.054C67.949 92 67.7931 92 67.6595 92.1622C67.2366 92.6486 66.7913 92.5946 66.3461 92.6486C66.2348 92.6486 66.1234 92.5405 66.0344 92.3784C65.8786 92.1081 65.7895 91.7297 65.6782 91.3513C65.6337 91.1892 65.5446 91.1351 65.4778 91.1351C65.411 91.1351 65.322 91.0811 65.2552 91.1351C65.0103 91.4054 64.7209 91.0811 64.4983 91.4054C64.2757 91.5135 64.053 91.6757 63.8527 91.8378C63.7414 91.9459 63.6301 91.8919 63.5188 91.7838C63.452 91.7297 63.3852 91.6216 63.2961 91.6216C62.695 91.5676 62.094 91.4594 61.4929 91.6216C61.3816 91.6757 61.2925 91.8378 61.2257 92.054L61.248 92C61.1367 91.9459 61.0254 92 60.9141 91.8919C60.7582 91.7297 60.6469 91.6757 60.5133 91.9459C60.4688 92.054 60.402 92.1622 60.3352 92.2703C60.2685 92.3784 60.2017 92.4324 60.1349 92.4865C59.8009 92.5946 59.467 92.6486 59.1331 92.7027C58.8659 92.7027 58.621 92.6486 58.3539 92.5405C58.1981 92.4865 58.2203 92.1621 58.2203 91.9459C58.2203 91.8919 58.1981 91.7838 58.1758 91.7297C58.0645 91.5676 57.4857 91.1892 57.3298 91.1351C57.1517 91.0811 56.9514 91.0811 56.7733 91.027C56.6174 91.027 56.4839 90.9189 56.3503 90.7027C56.2167 90.5405 56.0831 90.3784 55.9496 90.2703C55.8828 90.2162 55.7937 90.1621 55.7269 90.1621C55.393 90.2703 55.0591 89.8919 54.7251 90C54.547 90.054 54.3467 90 54.1686 89.9459C53.7679 89.8378 53.3449 89.8378 52.9442 89.8919C52.677 89.9459 52.4321 89.7838 52.1872 89.5676C52.0091 89.4054 51.831 89.4594 51.6307 89.5135C51.5639 89.5676 51.4748 89.5676 51.4081 89.6757C51.23 89.8378 51.0519 89.8919 50.8515 89.9459C50.5844 89.9459 50.3395 90 50.0723 90C49.872 90 49.6939 89.8919 49.538 89.6757C49.3822 89.5135 49.2486 89.5135 49.115 89.7297C48.9147 90 48.7366 90.2703 48.6253 90.8108C48.514 91.3513 48.2913 91.5135 48.0687 91.5676C47.8461 91.6216 47.6235 91.5676 47.4008 91.5676C47.2895 91.5676 47.1782 91.5676 47.0669 91.4594C46.5549 91.0811 46.0428 91.0811 45.5085 91.027C45.2414 91.027 44.9965 90.973 44.7294 90.7027C44.618 90.5946 44.5067 90.5946 44.3954 90.5946C43.6385 90.5946 42.9038 90.5405 42.1469 90.5405C41.8798 90.5405 41.6349 90.4324 41.39 90.2162C41.2564 90.054 41.1006 90.054 40.9448 90C40.7889 90 40.6554 90 40.4995 90C40.1656 90 39.8316 90 39.4977 89.9459C39.3419 89.9459 39.2083 89.8919 39.0525 89.7838C38.8298 89.6216 38.6072 89.5676 38.3846 89.5676C37.9394 89.5676 37.4941 89.5135 37.0489 89.5135C36.7817 89.5135 36.5368 89.4594 36.2697 89.1892C36.0916 89.027 35.9135 89.027 35.7131 89.027C35.112 88.973 34.511 88.973 33.9099 88.9189C33.754 88.9189 33.5982 88.9189 33.4646 88.8108C33.1307 88.5405 32.7968 88.4865 32.4628 88.4865C32.0621 88.4865 31.6391 88.4865 31.2384 88.4324C31.0826 88.4324 30.9267 88.4324 30.7932 88.3243C30.5037 88.1081 30.2143 88.054 29.9027 88.054C29.6355 88.054 29.3906 88 29.1235 88C29.0122 88 28.9009 88 28.7895 87.8919C28.3888 87.4594 27.9881 87.5675 27.5651 87.5135C27.4093 87.5135 27.2757 87.5135 27.1199 87.5135C26.9195 87.5135 26.7414 87.4054 26.5856 87.1892C26.4075 86.973 26.2294 86.8648 26.0513 86.9189C25.4057 87.0811 24.7823 86.973 24.159 86.9189C24.0032 86.9189 23.8696 86.8648 23.7137 86.7027C23.5356 86.5405 23.3575 86.4865 23.1572 86.4865C22.8678 86.4865 22.5561 86.4324 22.2667 86.4324C21.9773 86.3784 21.6656 86.3784 21.3762 86.1621C21.2426 86.054 21.0868 86.054 20.9309 86C20.6638 85.9459 20.4189 85.9459 20.1518 85.8919C20.0405 85.8919 19.9291 85.8919 19.8178 85.7838C19.4616 85.4054 19.0832 85.4054 18.727 85.4054C18.3485 85.4054 17.9923 85.2432 17.6139 85.027C17.1686 84.8108 16.7234 84.8648 16.2781 84.7567C16.2559 84.7567 16.2113 84.7027 16.2113 84.6486C16.2113 84.5405 16.2336 84.4324 16.2559 84.3784C16.3226 84.2702 16.3894 84.2162 16.434 84.1081C16.5007 84 16.5453 83.8378 16.5898 83.7297C16.6121 83.6757 16.6343 83.5675 16.6121 83.5135C16.5898 83.4594 16.5453 83.3513 16.523 83.3513C16.3449 83.2973 16.1445 83.2973 15.9664 83.1892C15.5657 83.027 15.5212 83.027 15.2541 83.4054C15.2318 83.4594 15.2095 83.5135 15.1873 83.6216C15.165 83.6757 15.165 83.7838 15.1427 83.8919L15.165 83.8378C15.0537 83.7838 14.9869 83.5675 14.9646 83.2973C15.1205 83.4594 15.1205 83.2973 15.0982 83.1351ZM106.774 85.6757C106.708 85.6757 106.641 85.6757 106.574 85.6757C106.552 85.6757 106.507 85.7297 106.485 85.7838C106.463 85.8378 106.463 85.8919 106.463 85.9459C106.507 86.0541 106.574 86.1081 106.641 86C106.708 86 106.752 85.8378 106.774 85.6757C106.797 85.6216 106.819 85.6216 106.863 85.5676C106.886 85.5676 106.886 85.4595 106.886 85.4054C106.819 85.3514 106.774 85.4595 106.774 85.6757ZM107.888 86.7568C107.487 86.7027 107.064 86.7568 106.685 87.1351C106.619 87.1892 106.552 87.2432 106.463 87.2432C106.129 87.3513 105.795 87.4054 105.461 87.2432C105.416 87.2432 105.372 87.1892 105.35 87.1351C105.327 87.027 105.35 86.8649 105.416 86.7568C105.483 86.6486 105.505 86.4865 105.461 86.3784C105.439 86.3243 105.394 86.2703 105.372 86.2703C105.149 86.2162 104.927 86.2703 104.726 86.5946C104.548 86.9189 104.37 87.2973 104.17 87.4595C104.125 87.5135 104.103 87.5676 104.081 87.6216C103.992 87.7838 103.947 88.0541 103.88 88.2703C103.836 88.4324 103.947 88.8649 104.014 88.9189C104.281 89.027 104.526 88.973 104.793 88.8108C104.971 88.7027 105.149 88.4865 105.327 88.4865C105.55 88.4324 105.773 88.4324 105.995 88.3243C106.218 88.2162 106.418 88 106.641 87.8919C107.019 87.7838 107.353 87.4054 107.709 87.1351C107.821 87.0811 107.865 86.9189 107.888 86.7568C108.088 86.7568 108.311 86.7568 108.533 86.6486C108.578 86.6486 108.6 86.5405 108.622 86.4865C108.6 86.4324 108.578 86.3784 108.555 86.3243C108.422 86.2162 108.266 86.1622 108.11 86.2703C108.021 86.3784 107.932 86.4865 107.888 86.7568ZM63.452 3.8919C63.3184 4.05406 63.1848 4.21621 63.0512 4.37838C62.9845 4.43243 62.8954 4.43244 62.8286 4.48649C62.7841 4.48649 62.7618 4.48649 62.7173 4.43244C62.6283 4.37838 62.606 4.21622 62.6283 4C62.6505 3.67568 62.5837 3.51352 62.4502 3.51352C62.2275 3.51352 62.0049 3.51352 61.7823 3.51352C61.671 3.51352 61.5597 3.56757 61.4706 3.72973C61.2257 4.10811 60.9808 4 60.7137 3.89189C60.313 3.45946 59.9123 3.51352 59.5115 3.67568C59.467 3.67568 59.4448 3.72973 59.4002 3.72973C59.3334 3.78379 59.2667 3.72974 59.1776 3.67568C59.0663 3.56758 58.955 3.51352 58.8437 3.51352C58.6878 3.45947 58.5765 3.24324 58.4875 2.91892C58.4207 2.64865 58.3316 2.54055 58.2203 2.54055C58.1758 2.54055 58.1535 2.54055 58.109 2.54055C57.8419 2.54055 57.5747 2.54054 57.3298 2.54054C56.9959 2.5946 56.6842 3.02703 56.3503 3.02703C56.2835 3.02703 56.2167 3.13513 56.1499 3.18919C56.1054 3.24324 56.0831 3.2973 56.0609 3.2973C55.9718 3.40541 55.8605 3.56757 55.7492 3.56757C55.3707 3.56757 54.9923 3.56757 54.6361 3.51352C54.5248 3.51352 54.4135 3.4054 54.3467 3.18919C54.2131 2.81081 54.0573 2.64865 53.8569 2.5946C53.189 2.43244 52.5212 2.54054 51.831 2.5946C51.7197 2.5946 51.6307 2.75675 51.5639 3.02702C51.5194 3.24324 51.4303 3.45946 51.3413 3.62162C51.2522 3.72973 51.2522 3.89189 51.2745 4C51.2967 4.05406 51.3413 4.10811 51.3635 4.10811C51.6307 4.21621 51.8756 4.21622 52.1427 4.43244C52.2095 4.48649 52.2985 4.48649 52.3653 4.43244C52.5212 4.32433 52.6547 4.32433 52.8106 4.48649C53.0555 4.70271 53.3004 4.91892 53.5452 5.08108C53.6788 5.18919 53.8347 5.13513 53.9682 4.97298C54.1241 4.75676 54.3022 4.5946 54.5025 4.5946C54.6806 4.5946 54.881 4.5946 55.0591 4.5946C55.2594 4.5946 55.4375 4.70271 55.5934 4.97298C55.7269 5.18919 55.8605 5.24324 56.0164 5.24324C56.5729 5.24324 57.1295 5.35135 57.686 5.08108C57.9532 5.08108 58.2203 5.13513 58.4652 5.08108C59.5115 5.02703 60.5579 5.08108 61.6042 5.08108C62.3166 5.08108 63.029 5.08109 63.7414 5.02703C63.7859 5.02703 63.8082 5.02703 63.8527 4.97298C63.8972 4.97298 63.9195 4.91893 63.964 4.86487C64.0753 4.81082 64.1198 4.48649 64.0531 4.21622C63.8972 3.40541 63.6523 3.2973 63.452 3.8919ZM30.8377 84.5405C30.5483 84.9189 30.2143 85.1892 29.9027 85.4054C29.8359 85.4594 29.7691 85.4054 29.68 85.3513C29.5687 85.2973 29.4574 85.2432 29.3461 85.1892C29.168 85.1892 28.9676 85.1892 28.7895 85.1892C28.6337 85.1892 28.5001 85.1351 28.3666 84.9189C28.1885 84.7027 28.0104 84.6486 27.8323 84.7027C27.6096 84.7567 27.4093 84.973 27.1644 84.8648C27.0976 84.8108 27.0308 84.9189 26.964 85.027C26.7859 85.2432 26.6078 85.2432 26.4297 85.027C26.3407 84.9189 26.2294 84.8108 26.1181 84.7027C26.0068 84.5946 25.9177 84.6486 25.8064 84.8648C25.6951 85.1351 25.7173 85.4054 25.8287 85.5135C26.2739 85.9459 26.7414 86.2703 27.2534 86.1621C27.3202 86.1621 27.4093 86.1621 27.4761 86.1621C27.7432 86.1621 27.9881 86.2703 28.233 86.5405C28.322 86.6486 28.4556 86.7027 28.5669 86.7027C28.7228 86.7567 28.8563 86.7567 29.0122 86.7027C29.7913 86.5405 30.5928 86.7027 31.372 86.7027C31.4833 86.7027 31.5946 86.8108 31.7059 86.9189C31.8395 87.027 31.9953 87.1351 32.1066 87.3513C32.3292 87.7297 32.5964 87.7838 32.8413 88C32.9081 88.054 32.9971 88.1081 33.0639 88C33.242 87.7838 33.4201 87.6757 33.5982 87.6757C33.9321 87.6757 34.2661 87.6757 34.6 87.4054C34.6668 87.3513 34.7558 87.4054 34.8226 87.4594C34.9339 87.5135 35.0453 87.6757 35.1343 87.6757C35.3569 87.7297 35.5573 88.054 35.7354 88.3784C35.8467 88.6486 36.0025 88.7027 36.1584 88.7027C36.4923 88.7027 36.8262 88.7027 37.1602 88.7027C37.4496 88.7027 37.7613 88.6486 38.0284 88.3243C38.0952 88.2703 38.1842 88.2703 38.251 88.2703C38.3623 88.2703 38.4959 88.2703 38.585 88.3784C38.8521 88.7027 39.1638 88.7027 39.4309 89.027C39.5645 89.1892 39.7203 89.2432 39.8762 89.2432C40.0988 89.2432 40.3214 89.2432 40.544 89.2432C40.8112 89.2432 41.0561 89.4054 41.301 89.6216C41.4123 89.7297 41.5459 89.6216 41.6126 89.4054C41.7017 89.1351 41.813 88.8648 41.9243 88.6486C42.0356 88.4865 42.0134 88.2703 41.902 88C41.813 87.7838 41.7685 87.7838 41.5904 87.8919C41.4791 88 41.3678 88 41.2564 87.8919C41.0783 87.7297 40.9225 87.5676 40.7444 87.3513C40.6776 87.2973 40.5886 87.2973 40.5218 87.4054C40.2769 87.6757 40.0098 87.7297 39.7426 87.7297C39.2974 87.6757 38.8521 87.7297 38.4069 87.3513C38.3401 87.4054 38.251 87.4054 38.2065 87.4594C38.0952 87.5676 37.9839 87.5676 37.8948 87.4594C37.828 87.3513 37.7613 87.2432 37.7167 87.1351C37.5386 86.7567 37.3383 86.5405 37.0934 86.5946C36.5368 86.7027 35.9803 86.4865 35.4237 86.6486C35.3569 86.6486 35.2679 86.5946 35.2011 86.5946C35.0453 86.5405 34.9562 86.2703 34.9117 85.8378C34.8894 85.4594 35.023 85.0811 35.1566 85.1892C35.4015 85.4054 35.6686 85.4594 35.9357 85.4594C36.4923 85.4054 37.0489 85.4054 37.6054 85.7838C37.6722 85.8378 37.739 85.7838 37.828 85.7297C37.8948 85.6757 37.9616 85.6216 38.0507 85.6216C38.6072 85.5676 39.1638 85.5676 39.7426 85.5676C39.8094 85.5676 39.8984 85.6216 39.9652 85.6757C40.1433 85.8919 40.3214 85.9459 40.4995 85.9459C40.9448 85.9459 41.39 85.9459 41.8575 85.9459C42.0801 85.9459 42.3028 86 42.5254 86.2162C42.8148 86.4865 43.1042 86.5946 43.4159 86.5405C43.6385 86.5405 43.8611 86.5405 44.0838 86.5405C44.2841 86.5405 44.4622 86.6486 44.618 86.8649C44.7516 87.027 44.9075 87.027 45.0633 86.9189C45.1969 86.8108 45.3304 86.6486 45.464 86.4865C45.5308 86.3784 45.5753 86.2162 45.5531 86.1081C45.5308 86.054 45.4863 86 45.464 86C45.0633 85.9459 44.6403 85.9459 44.2396 85.8919C44.0837 85.8919 43.9502 85.8378 43.7943 85.7297C43.5717 85.5676 43.3491 85.5135 43.1265 85.5135C42.6812 85.5135 42.236 85.5135 41.7907 85.4594C41.6349 85.4594 41.4791 85.4054 41.3455 85.2973C41.1006 85.0811 40.8335 85.027 40.5663 85.027C39.9652 85.0811 39.3641 84.9189 38.7631 84.9189C38.6072 84.9189 38.4736 84.8648 38.3178 84.7567C38.0284 84.5405 37.739 84.4324 37.4273 84.4324C36.9821 84.4865 36.5368 84.4324 36.0916 84.1081C35.958 84 35.8022 84.054 35.6463 84C35.112 83.9459 34.6 83.8919 34.0657 83.8378C33.9099 83.8378 33.7763 83.7838 33.6205 83.6757C33.3311 83.4594 33.0416 83.4054 32.73 83.4054C32.1957 83.4054 31.6836 83.3513 31.1494 83.3513C30.9713 83.3513 30.7709 83.2432 30.5928 83.0811C30.4592 82.9189 30.3034 82.9189 30.1475 82.9189C29.8136 82.9189 29.4797 82.8648 29.1457 82.8648C28.9899 82.8648 28.8341 82.8648 28.7005 82.7027C28.4111 82.4324 28.1217 82.3784 27.81 82.3784C27.4093 82.3784 26.9863 82.3784 26.5856 82.3243C26.4743 82.3243 26.363 82.3243 26.2516 82.2162C25.9622 81.9459 25.6728 81.8919 25.3611 81.8919C24.582 81.8378 23.7805 81.8378 23.0013 81.9459C22.9346 81.9459 22.8455 82 22.7787 82C22.7342 82 22.7119 82.054 22.6897 82.1081C22.6451 82.2162 22.6897 82.3243 22.801 82.3784C23.1349 82.5405 23.4688 82.4324 23.7805 82.8108C23.9141 82.973 24.0699 82.9189 24.2258 82.9189C24.5597 82.9189 24.8936 82.9189 25.2276 82.9189C25.4057 82.9189 25.606 82.973 25.7841 83.1351C26.0735 83.4594 26.3629 83.5135 26.6524 83.5135C26.9863 83.5135 27.3202 83.5135 27.6542 83.5135C27.9213 83.5135 28.1662 83.6216 28.4333 83.8378C28.5669 83.9459 28.7228 84 28.8786 84C29.1012 84 29.3238 84 29.5465 84C29.8804 83.9459 30.2143 84 30.5483 84.054C30.6596 84.054 30.7486 84.2703 30.7932 84.5405L30.8377 84.5405ZM66.9694 5.45946C67.5705 5.40541 68.0157 5.40542 68.461 5.40542C68.5055 5.40542 68.5278 5.40542 68.5723 5.40542C68.6391 5.35136 68.7281 5.35135 68.7949 5.24325C68.9953 4.97298 69.2179 4.97297 69.4405 4.91892C69.5073 4.91892 69.5741 4.81082 69.6409 4.75676C69.7299 4.70271 69.8635 4.21621 69.819 4.10811C69.7745 3.94595 69.6854 3.94595 69.6186 3.8919C69.4405 3.83784 69.2402 3.83784 69.0621 4.05406C69.0175 4.10811 68.9953 4.16217 68.973 4.16217C68.7949 4.32433 68.7281 4.21622 68.7281 3.72973C68.7281 3.51352 68.7059 3.40541 68.5946 3.35135C68.3719 3.24325 68.1493 3.40542 67.9267 3.40542C67.6595 3.40542 67.4147 3.35135 67.1475 3.35135C67.0807 3.35135 67.0139 3.45946 66.9472 3.56757C66.8358 3.67568 66.7913 3.94595 66.7023 4.10811C66.6132 4.32432 66.5019 4.37838 66.3906 4.32433C66.3238 4.32433 66.2348 4.27028 66.168 4.21622C65.7227 3.78379 65.2997 3.78379 64.8768 4.32433C64.7877 4.43244 64.6541 4.43244 64.5428 4.48649C64.4538 4.54055 64.4092 4.64865 64.4538 4.75676C64.476 4.81082 64.5206 4.86487 64.5428 4.86487C64.81 4.91893 65.0549 4.97298 65.2997 5.24324C65.4333 5.40541 65.5892 5.45947 65.745 5.40541C66.2348 5.45947 66.68 5.40541 66.9694 5.45946ZM26.964 61.7297C27.0753 61.6757 27.2089 61.6757 27.3648 61.5676C27.4093 61.5676 27.4315 61.4594 27.4538 61.4594C27.5429 61.3513 27.5651 61.2432 27.5651 61.027C27.5429 60.8648 27.4983 60.6486 27.4315 60.6486C27.1421 60.5405 26.8527 60.2703 26.5856 59.8919C26.5633 59.8378 26.5188 59.7838 26.4965 59.7838C26.3184 59.6216 26.1403 59.5135 25.94 59.7297C25.6951 59.9459 25.4502 60.1621 25.183 60.1621C24.8046 60.1621 24.4261 60.1081 24.0699 59.8378C23.6024 59.4594 23.1126 59.4594 22.6229 59.6757C22.5116 59.7297 22.4225 59.8919 22.3557 60.1081C22.3112 60.2703 22.2889 60.4324 22.3335 60.5946C22.378 60.7567 22.4225 60.8648 22.5116 60.9189C22.5561 60.9189 22.5784 60.973 22.6229 60.973C23.0681 60.6486 23.5134 60.6486 23.9364 61.027C24.1145 61.1892 24.3148 61.1351 24.4929 61.2973C24.7155 61.5135 24.9159 61.4594 25.1385 61.2432C25.3166 61.0811 25.517 61.0811 25.6951 61.1892C25.8509 61.2973 25.9845 61.4054 26.1181 61.5135C26.3852 61.6757 26.6524 61.7297 26.964 61.7297ZM36.7817 80.3784C36.5591 80.6486 36.381 81.0811 36.1361 81.3513C36.1138 81.4054 36.0693 81.4594 36.0693 81.5676C36.0471 81.6216 36.0471 81.7297 36.0693 81.8378C36.1138 82.1081 36.2252 82.2162 36.3365 82.2162C36.5146 82.2162 36.6927 82 36.8485 81.8378C37.0489 81.5676 37.1156 81.0811 36.893 80.5946C36.8485 80.4324 36.8262 80.4324 36.7817 80.3784ZM23.4911 76.4865C23.4911 76.7027 23.5356 76.8108 23.6247 76.8648C23.9586 77.027 24.2703 76.9189 24.6042 76.973C24.8491 77.027 25.1163 76.973 25.3611 76.9189C25.4502 76.9189 25.4947 76.7567 25.4725 76.7027C25.4502 76.6486 25.4057 76.5946 25.3834 76.5946C25.094 76.5405 24.8046 76.4865 24.5152 76.5405C24.248 76.5946 24.0031 76.4324 23.7583 76.2162C23.736 76.1621 23.6915 76.2162 23.647 76.2162C23.5579 76.1621 23.5134 76.3243 23.4911 76.4865ZM35.5796 78.4865C35.446 78.4865 35.2679 78.4865 35.0898 78.4865C35.0675 78.4865 35.0007 78.5405 35.0007 78.5946C34.9785 78.7567 35.023 78.9189 35.0898 78.973C35.2456 79.1892 35.4237 79.3513 35.6018 79.1892C35.8022 78.973 36.0471 79.0811 36.2252 78.8108C36.2474 78.7567 36.2474 78.7027 36.2697 78.6486C36.2474 78.5946 36.2029 78.5405 36.1806 78.5405C36.0025 78.5405 35.8022 78.5405 35.5796 78.4865ZM106.463 8.00001C106.463 8.10812 106.485 8.16218 106.485 8.27028C106.53 8.4865 106.574 8.75676 106.641 8.97298C106.685 9.13514 106.774 9.18921 106.841 9.0811C106.908 9.02704 106.953 8.86487 106.975 8.70271C106.997 8.43244 106.997 8.16218 106.93 7.94596C106.841 7.67569 106.708 7.62163 106.53 7.83785C106.507 7.8919 106.485 7.94596 106.463 8.00001ZM21.532 79.7297C21.5988 79.7297 21.6879 79.7297 21.7547 79.6757C21.7992 79.6757 21.8214 79.6216 21.8437 79.5675C21.866 79.5135 21.8882 79.4594 21.8882 79.4054C21.866 79.3513 21.8214 79.2432 21.7992 79.2432C21.5543 79.1892 21.3094 79.027 21.0423 78.973C21.02 78.973 20.9755 79.0811 20.9755 79.1351C20.9755 79.1892 20.9755 79.3513 20.9977 79.4054C21.1536 79.7838 21.3539 79.6757 21.532 79.7297ZM107.331 69.2973C107.398 69.2973 107.487 69.1892 107.509 69.027C107.509 68.973 107.487 68.8649 107.465 68.7568C107.376 68.4324 107.242 68.2703 107.086 68.2703C106.997 68.2703 106.93 68.3243 106.886 68.4324C106.841 68.5405 106.863 68.7027 106.93 68.8649C107.042 69.1892 107.175 69.2973 107.331 69.2973ZM10.9129 30.2162C11.0465 30.2162 11.2023 30.1622 11.3359 30.1622C11.3582 30.1622 11.4027 30.1081 11.4249 30.054C11.4472 30 11.4027 29.8378 11.3136 29.8378C11.0687 29.7838 10.8239 29.7838 10.5567 29.7838C10.5344 29.7838 10.4899 29.8378 10.4677 29.8919C10.4454 29.9459 10.4231 30 10.4009 30.054C10.4231 30.1081 10.4454 30.1621 10.4899 30.2162C10.6235 30.2703 10.7793 30.2703 10.9129 30.2162ZM100.474 91.3513C100.43 91.3513 100.341 91.3513 100.274 91.4054C100.163 91.4054 100.14 91.5135 100.163 91.7297C100.185 91.8919 100.252 92 100.318 92.0541C100.43 92.1081 100.519 91.9459 100.63 91.8378C100.697 91.7838 100.764 91.6757 100.786 91.5135C100.741 91.4054 100.675 91.3513 100.586 91.3513C100.586 91.2973 100.541 91.2973 100.474 91.3513ZM92.7492 89.7297C92.5933 89.7838 92.5266 89.7838 92.4375 89.7838C92.393 89.7838 92.3485 89.8378 92.3485 89.8919C92.3262 90 92.393 90.1081 92.482 90.1081C92.6824 90.1081 92.905 90.2703 93.1054 90.054C93.1276 90.054 93.1499 89.9459 93.1499 89.8919C93.1276 89.8378 93.1054 89.7297 93.0608 89.7297C92.9273 89.7297 92.7937 89.7297 92.7492 89.7297ZM23.4911 79.7297C23.5579 79.7838 23.6247 79.8919 23.6915 79.9459C23.7137 80 23.7583 80 23.7805 80C23.8473 80 23.9141 79.8919 23.9586 79.7297C24.0031 79.5135 23.9809 79.4054 23.8918 79.3513C23.7583 79.3513 23.6024 79.3513 23.4688 79.3513C23.4243 79.3513 23.3798 79.4054 23.3798 79.4054C23.3575 79.5675 23.4021 79.6757 23.4911 79.7297ZM28.2107 77.4054C28.3888 77.4054 28.4556 77.4054 28.5224 77.4054C28.5447 77.4054 28.5892 77.3513 28.6115 77.2973C28.6337 77.1892 28.5892 77.1351 28.5001 77.0811C28.322 77.0811 28.1439 77.0811 27.9658 77.0811C27.9436 77.0811 27.899 77.1351 27.8768 77.1892C27.8545 77.2432 27.899 77.3513 28.0104 77.4054C28.0994 77.4054 28.2107 77.4054 28.2107 77.4054ZM3.52182 46.2162C3.61087 46.2162 3.54408 46.2162 3.4773 46.2162C3.38825 46.2162 3.32147 46.2703 3.2992 46.4324C3.27694 46.5405 3.34372 46.7027 3.43277 46.7027C3.61087 46.7027 3.78897 46.7027 3.96707 46.6486C4.05612 46.6486 4.1229 46.4865 4.10064 46.4324C4.05612 46.2703 3.98933 46.2703 3.90028 46.2703C3.83349 46.2703 3.74445 46.2703 3.52182 46.2162ZM74.4941 4.64865C74.5609 4.5946 74.6054 4.43244 74.6054 4.27028C74.6054 4.10811 74.5609 3.94595 74.4718 3.8919C74.405 3.83784 74.3382 3.83784 74.2492 3.8919C74.1601 3.8919 74.1156 4.00001 74.1379 4.21622C74.1379 4.27028 74.1601 4.37839 74.1824 4.43244C74.2715 4.64866 74.3605 4.7027 74.4941 4.64865ZM35.3124 61.6216C35.2456 61.6216 35.1788 61.6216 35.112 61.6757C35.023 61.7297 34.9785 61.7838 35.0007 61.9459C35.023 62 35.0453 62.1081 35.0675 62.1081C35.1566 62.2162 35.2456 62.3243 35.3569 62.4324C35.4237 62.4865 35.4905 62.4324 35.5573 62.3243C35.6018 62.2162 35.6463 62.054 35.6241 61.8919C35.5573 61.8378 35.4905 61.7838 35.4237 61.7297C35.3792 61.6216 35.3347 61.6216 35.3124 61.6216ZM4.9466 46.2703C4.87982 46.2703 4.79077 46.2703 4.72399 46.3243C4.67946 46.3243 4.6572 46.3784 4.63494 46.4324C4.6572 46.5405 4.72399 46.5946 4.79077 46.5946C4.85756 46.5946 4.94661 46.5946 5.0134 46.5946C5.08019 46.5946 5.16923 46.5946 5.21375 46.4865C5.25828 46.3784 5.1247 46.2703 4.9466 46.2703ZM115.969 11.4054C115.835 11.4054 115.679 11.5676 115.724 11.6757C115.768 11.8379 115.835 11.8919 115.902 11.8919C115.969 11.8919 116.036 11.8919 116.102 11.8919C116.169 11.8919 116.258 11.8919 116.303 11.7297C116.325 11.6757 116.258 11.5135 116.169 11.5135C116.125 11.4054 116.058 11.4054 115.969 11.4054ZM108.4 9.29731C108.288 9.29731 108.177 9.29731 108.088 9.51352C108.177 9.72974 108.288 9.72974 108.4 9.7838C108.444 9.7838 108.466 9.7838 108.511 9.7838C108.6 9.7838 108.667 9.72974 108.711 9.56758C108.667 9.40542 108.6 9.35137 108.533 9.35137C108.466 9.35137 108.444 9.35136 108.4 9.29731ZM71.1993 4.91892C71.1547 4.7027 71.1102 4.48649 71.0657 4.27028C71.0434 4.21622 70.9989 4.16217 70.9766 4.16217C70.9544 4.16217 70.9098 4.27028 70.9098 4.32433C70.8653 4.64866 70.8876 5.02704 70.9989 5.24325C71.0657 5.35135 71.1325 5.2973 71.1993 5.18919C71.1993 5.13514 71.177 5.02703 71.1993 4.91892ZM51.0741 87.027C51.0741 87.027 51.0073 87.027 50.9405 87.027C50.896 87.027 50.8738 87.027 50.8515 87.0811C50.8292 87.1351 50.7847 87.1892 50.7625 87.1892C50.7847 87.2432 50.807 87.3513 50.8515 87.3513C50.9628 87.4054 51.0519 87.4054 51.1632 87.4054C51.319 87.4054 51.4303 87.2432 51.3635 87.1351C51.2745 87.0811 51.23 87.027 51.0741 87.027ZM25.0495 80.2703C25.2053 80.2162 25.3166 80.2162 25.4279 80.1621C25.4502 80.1621 25.4947 80.1081 25.517 80.054C25.4947 80 25.4725 79.9459 25.4725 79.9459C25.3611 79.8919 25.2721 79.8378 25.1608 79.8378C25.0495 79.7838 24.8936 80 24.9382 80.1081C24.9604 80.2162 25.0272 80.2703 25.0495 80.2703ZM114.01 45.027C114.032 45.0811 114.076 45.1351 114.099 45.1351C114.21 45.1892 114.321 45.1892 114.388 44.973C114.388 44.973 114.344 44.8108 114.321 44.8108C114.21 44.7027 114.121 44.7027 114.01 44.8649C114.01 44.8649 114.01 44.973 114.01 45.027ZM25.9177 80.3243C25.94 80.3784 25.94 80.4865 25.9622 80.5405C26.029 80.7567 26.2294 80.7027 26.2294 80.5405C26.2294 80.3784 26.1849 80.2162 26.1403 80.1081C26.0735 80 26.0068 79.9459 25.9622 80.1081C25.94 80.1621 25.94 80.2162 25.9177 80.3243ZM94.9977 90C95.0199 90.0541 95.0422 90.1622 95.0645 90.1622C95.1758 90.2162 95.2648 90.2162 95.3539 90.054C95.3761 90 95.3984 89.9459 95.3984 89.8919C95.3761 89.7297 95.2426 89.6216 95.1312 89.7297C95.0422 89.7838 94.9977 89.8378 94.9977 90ZM81.5067 92.3243C81.5512 92.4865 81.618 92.5405 81.6848 92.4865C81.7071 92.4865 81.7293 92.3784 81.7516 92.3243C81.7293 92.2703 81.7071 92.2162 81.6848 92.1622C81.618 92.1081 81.5512 92.1622 81.5067 92.3243ZM66.3461 91.5676C66.3683 91.5676 66.3906 91.5135 66.4351 91.4594C66.4129 91.4054 66.4129 91.3513 66.3906 91.2973C66.3015 91.2432 66.257 91.3513 66.2793 91.4594C66.257 91.5135 66.3238 91.5676 66.3461 91.5676ZM29.1457 77.6757C29.168 77.7297 29.168 77.8378 29.1903 77.8378C29.2125 77.8378 29.2571 77.8378 29.2793 77.8378C29.3461 77.7297 29.3238 77.6216 29.2125 77.6216C29.2125 77.6216 29.168 77.6757 29.1457 77.6757ZM99.4501 68.4865C99.4501 68.5405 99.4501 68.6486 99.4724 68.6486C99.4947 68.7027 99.5392 68.7027 99.5837 68.7027C99.6728 68.5946 99.6728 68.4865 99.5614 68.4324C99.5169 68.4324 99.4724 68.4865 99.4501 68.4865ZM31.1048 61.3513C31.1271 61.4054 31.1494 61.4594 31.1716 61.5135C31.2384 61.5676 31.3052 61.5135 31.3497 61.3513C31.3497 61.3513 31.3052 61.2432 31.2829 61.1892C31.2161 61.1351 31.1493 61.1892 31.1048 61.3513ZM114.722 43.6757C114.7 43.7297 114.655 43.7297 114.633 43.7838C114.655 43.8378 114.678 43.8919 114.722 43.946C114.811 44 114.856 43.8919 114.833 43.7838C114.811 43.7297 114.767 43.7297 114.722 43.6757ZM40.878 5.02703C40.9002 5.08108 40.9225 5.13513 40.9448 5.18918C41.0116 5.24324 41.0783 5.18919 41.1006 5.02703C41.1006 5.02703 41.0561 4.91892 41.0338 4.86487C40.967 4.81081 40.9225 4.86487 40.878 5.02703ZM24.4261 80.1081L24.4707 80L24.4039 80L24.4261 80.1081Z" fill="#00659E"/>
<path d="M90.1941 35.577H89.2202V34.6019C89.2202 34.1569 88.8596 33.7963 88.4145 33.7963C87.9695 33.7963 87.6089 34.1569 87.6089 34.6019V35.577H86.635C86.1899 35.577 85.8293 35.9376 85.8293 36.3827V39.0509C85.8293 39.0974 85.7915 39.1351 85.7451 39.1351H79.5164C79.0713 39.1351 78.7107 39.4957 78.7107 39.9408V40.9147H77.7368C77.2918 40.9147 76.9311 41.2753 76.9311 41.7203C76.9311 42.1654 77.2918 42.526 77.7368 42.526H78.7107V43.5C78.7107 43.9451 79.0713 44.3057 79.5164 44.3057H85.745C85.7915 44.3057 85.8292 44.3435 85.8292 44.3898V58.6267C85.8292 58.6731 85.7914 58.7108 85.745 58.7108H69.7284C69.682 58.7108 69.6443 58.673 69.6443 58.6267V54.1777C69.6443 53.7327 69.2837 53.3721 68.8386 53.3721H67.8647V52.3982C67.8647 51.9531 67.5041 51.5925 67.0591 51.5925C66.614 51.5925 66.2534 51.9531 66.2534 52.3982V53.3721H65.2794C64.8344 53.3721 64.4738 53.7327 64.4738 54.1777V58.6268C64.4738 58.6732 64.4359 58.7109 64.3896 58.7109H48.373C48.3266 58.7109 48.2889 58.6731 48.2889 58.6268V44.3898C48.2889 44.3434 48.3267 44.3057 48.373 44.3057H64.3896C64.436 44.3057 64.4738 44.3435 64.4738 44.3898V47.0592C64.4738 47.5043 64.8344 47.8649 65.2794 47.8649H66.2534V48.8389C66.2534 49.2839 66.614 49.6445 67.0591 49.6445C67.5041 49.6445 67.8647 49.2839 67.8647 48.8389V47.8649H68.8386C69.2837 47.8649 69.6443 47.5043 69.6443 47.0592V44.3898C69.6443 44.3434 69.6821 44.3057 69.7284 44.3057H72.3978C72.8429 44.3057 73.2035 43.9451 73.2035 43.5V42.5261H74.1775C74.6225 42.5261 74.9832 42.1655 74.9832 41.7205C74.9832 41.2754 74.6225 40.9148 74.1775 40.9148H73.2035V39.9409C73.2035 39.4959 72.8429 39.1352 72.3978 39.1352H69.7284C69.682 39.1352 69.6443 39.0974 69.6443 39.051V36.3816C69.6443 35.9365 69.2837 35.5759 68.8386 35.5759H67.8647V34.602C67.8647 34.157 67.5041 33.7964 67.0591 33.7964C66.614 33.7964 66.2534 34.157 66.2534 34.602V35.5759H65.2794C64.8344 35.5759 64.4738 35.9365 64.4738 36.3816V39.051C64.4738 39.0975 64.4359 39.1352 64.3896 39.1352H56.4421C55.9971 39.1352 55.6365 39.4959 55.6365 39.9409C55.6365 40.3859 55.9971 40.7466 56.4421 40.7466H64.3895C65.3244 40.7466 66.085 39.9859 66.085 39.051V37.1872H68.033V39.051C68.033 39.9859 68.7935 40.7466 69.7284 40.7466H71.5922V42.6943H69.7284C68.7935 42.6943 68.033 43.4549 68.033 44.3898V46.2535H66.085V44.3898C66.085 43.4549 65.3244 42.6943 64.3895 42.6943H48.3729C47.438 42.6943 46.6775 43.4549 46.6775 44.3898V58.6267C46.6775 59.5616 47.438 60.3222 48.3729 60.3222H64.3895C65.3244 60.3222 66.085 59.5616 66.085 58.6267V54.9834H68.033V58.6268C68.033 59.5617 68.7935 60.3223 69.7284 60.3223H85.745C86.6799 60.3223 87.4405 59.5617 87.4405 58.6268V44.3898C87.4405 43.4549 86.6799 42.6943 85.745 42.6943H80.322V40.7465H85.745C86.6799 40.7465 87.4405 39.9858 87.4405 39.0509V37.1883H89.3884V62.186C89.3884 62.2324 89.3506 62.2701 89.3043 62.2701H44.8137C44.7673 62.2701 44.7296 62.2323 44.7296 62.186V17.6954C44.7296 17.649 44.7674 17.6113 44.8137 17.6113H79.6847C80.1297 17.6113 80.4904 17.2507 80.4904 16.8057C80.4904 16.3606 80.1297 16 79.6847 16H44.8137C44.6287 16 44.4511 16.0308 44.2842 16.0858C44.1757 16.0314 44.0536 16 43.9239 16H42.1443C41.6992 16 41.3386 16.3606 41.3386 16.8057C41.3386 17.2507 41.6992 17.6113 42.1443 17.6113H43.1225C43.1211 17.6394 43.1182 17.6671 43.1182 17.6954V62.186C43.1182 62.2144 43.1211 62.2421 43.1225 62.2701H42.1443C41.6992 62.2701 41.3386 62.6308 41.3386 63.0758C41.3386 63.5209 41.6992 63.8815 42.1443 63.8815H43.1182V64.8554C43.1182 65.3004 43.4788 65.661 43.9238 65.661C44.3689 65.661 44.7295 65.3004 44.7295 64.8554V63.8772C44.7575 63.8786 44.7853 63.8815 44.8136 63.8815H89.3042C89.3326 63.8815 89.3603 63.8786 89.3883 63.8772V64.8554C89.3883 65.3004 89.7489 65.661 90.194 65.661C90.639 65.661 90.9996 65.3004 90.9996 64.8554V63.0758C90.9996 62.946 90.9683 62.824 90.9138 62.7154C90.9688 62.5486 90.9996 62.3709 90.9996 62.1859V36.3827C90.9998 35.9377 90.6391 35.577 90.1941 35.577Z" fill="white"/>
<path d="M89.3041 16H82.9071C82.4621 16 82.1014 16.3606 82.1014 16.8057C82.1014 17.2507 82.4621 17.6113 82.9071 17.6113H89.3041C89.3505 17.6113 89.3882 17.6491 89.3882 17.6954V28.459H88.4486C88.4371 28.4586 88.4259 28.4573 88.4143 28.4573C88.4027 28.4573 88.3914 28.4586 88.3799 28.459L87.4403 28.4591V21.2548C87.4403 20.3199 86.6796 19.5592 85.7448 19.5592H69.7282C68.7933 19.5592 68.0327 20.3199 68.0327 21.2548V28.4573H66.0847V21.2548C66.0847 20.3199 65.3242 19.5592 64.3893 19.5592H48.3727C47.4378 19.5592 46.6772 20.3199 46.6772 21.2548V39.0509C46.6772 39.9858 47.4378 40.7465 48.3727 40.7465H53.2192C53.6643 40.7465 54.0249 40.3858 54.0249 39.9408C54.0249 39.4957 53.6643 39.1351 53.2192 39.1351H48.3728C48.3264 39.1351 48.2887 39.0973 48.2887 39.0509V21.2548C48.2887 21.2082 48.3265 21.1705 48.3728 21.1705H64.3894C64.4358 21.1705 64.4735 21.2083 64.4735 21.2548V29.2629C64.4735 29.708 64.8341 30.0686 65.2792 30.0686H66.2532V31.0426C66.2532 31.4877 66.6138 31.8483 67.0588 31.8483C67.5039 31.8483 67.8645 31.4877 67.8645 31.0426V30.0686H68.8384C69.2834 30.0686 69.644 29.708 69.644 29.2629V21.2548C69.644 21.2082 69.6819 21.1705 69.7282 21.1705H85.7448C85.7913 21.1705 85.829 21.2083 85.829 21.2548V29.2648C85.829 29.4784 85.9138 29.6833 86.065 29.8345C86.216 29.9856 86.4209 30.0704 86.6346 30.0704H87.6085V31.0426C87.6085 31.4877 87.9691 31.8483 88.4142 31.8483C88.8592 31.8483 89.2199 31.4877 89.2199 31.0426V30.0704H90.1937C90.6388 30.0704 90.9994 29.7097 90.9994 29.2648V17.6954C90.9995 16.7605 90.239 16 89.3041 16V16Z" fill="white"/>
<path d="M86.6345 65.8291C86.1895 65.8291 85.8289 66.1897 85.8289 66.6348V67.6086H48.2886V66.6349C48.2886 66.1898 47.928 65.8292 47.4829 65.8292C47.0379 65.8292 46.6772 66.1898 46.6772 66.6349V70.194C46.6772 70.6391 47.0379 70.9997 47.4829 70.9997C47.928 70.9997 48.2886 70.6391 48.2886 70.194V69.2201H85.829V70.194C85.829 70.6391 86.1896 70.9997 86.6346 70.9997C87.0797 70.9997 87.4403 70.6391 87.4403 70.194V66.6348C87.4402 66.1898 87.0796 65.8291 86.6345 65.8291Z" fill="white"/>
<path d="M36.8057 58.7113C36.3606 58.7113 36 59.0719 36 59.517C36 59.962 36.3606 60.3226 36.8057 60.3226H40.365C40.81 60.3226 41.1706 59.962 41.1706 59.517C41.1706 59.0719 40.81 58.7113 40.365 58.7113H39.3911V21.1709H40.3649C40.8099 21.1709 41.1705 20.8103 41.1705 20.3652C41.1705 19.9202 40.8099 19.5596 40.3649 19.5596H36.8057C36.3606 19.5596 36 19.9202 36 20.3652C36 20.8103 36.3606 21.1709 36.8057 21.1709H37.7797V58.7113H36.8057Z" fill="white"/>
<path d="M36.8057 63.8818H38.5853C39.0304 63.8818 39.391 63.5212 39.391 63.0762C39.391 62.6311 39.0304 62.2705 38.5853 62.2705H36.8057C36.3606 62.2705 36 62.6311 36 63.0762C36 63.5211 36.3607 63.8818 36.8057 63.8818Z" fill="white"/>
<path d="M36.8057 17.6113H38.5853C39.0304 17.6113 39.391 17.2507 39.391 16.8057C39.391 16.3606 39.0304 16 38.5854 16H36.8057C36.3607 16 36 16.3607 36 16.8057C36 17.2506 36.3607 17.6113 36.8057 17.6113Z" fill="white"/>
<path d="M43.9248 67.6091C43.4798 67.6091 43.1191 67.9697 43.1191 68.4148V70.1943C43.1191 70.6394 43.4798 71 43.9248 71C44.3699 71 44.7305 70.6394 44.7305 70.1943V68.4148C44.7305 67.9697 44.3697 67.6091 43.9248 67.6091Z" fill="white"/>
<path d="M90.1943 67.6091C89.7493 67.6091 89.3887 67.9697 89.3887 68.4148V70.1943C89.3887 70.6394 89.7493 71 90.1943 71C90.6394 71 91 70.6394 91 70.1943V68.4148C91 67.9697 90.6394 67.6091 90.1943 67.6091Z" fill="white"/>
<path d="M40.9352 66.065C40.6205 65.7505 40.1104 65.7505 39.7958 66.065L38.5859 67.2749L37.376 66.065C37.0613 65.7505 36.5512 65.7505 36.2366 66.065C35.9219 66.3797 35.9219 66.8898 36.2366 67.2044L37.4465 68.4143L36.2365 69.6242C35.9218 69.939 35.9218 70.449 36.2365 70.7637C36.3937 70.921 36.6 70.9997 36.8061 70.9997C37.0123 70.9997 37.2185 70.921 37.3759 70.7638L38.5858 69.5539L39.7957 70.7638C39.953 70.921 40.1593 70.9997 40.3654 70.9997C40.5716 70.9997 40.7778 70.921 40.9352 70.7638C41.2498 70.449 41.2498 69.939 40.9352 69.6243L39.7253 68.4144L40.9352 67.2045C41.2497 66.8897 41.2497 66.3796 40.9352 66.065Z" fill="white"/>
</svg>
