<svg width="124" height="97" viewBox="0 0 124 97" fill="none" xmlns="http://www.w3.org/2000/svg">
<path d="M107.397 11.2116C107.118 11.6021 106.816 11.8252 106.537 11.9925C106.374 12.1041 106.234 12.0483 106.095 11.9367C105.909 11.7694 105.722 11.8252 105.536 12.0483C105.397 12.2714 105.257 12.383 105.094 12.383C104.745 12.383 104.396 12.4388 104.047 12.4388C103.885 12.4388 103.745 12.3272 103.605 12.1599C103.466 11.9367 103.303 11.9925 103.163 12.1599C103.001 12.383 102.861 12.2714 102.745 11.9925C102.721 11.9367 102.698 11.8252 102.675 11.7694C102.535 11.4347 102.326 11.4347 102.163 11.881C102.093 12.0483 102.093 12.2156 102.14 12.383C102.186 12.5503 102.233 12.7177 102.303 12.7734C102.559 13.0523 102.838 13.1081 103.07 13.4428C103.14 13.4986 103.233 13.4986 103.303 13.5543C103.978 13.5543 104.629 13.5543 105.304 13.5543C105.536 13.5543 105.769 13.6101 106.002 13.8332C106.211 14.0006 106.444 14.1679 106.676 14.3353C106.793 14.4468 106.909 14.391 107.025 14.391C107.141 14.391 107.258 14.4468 107.374 14.4468C107.49 14.391 107.607 14.2795 107.7 14.2237C107.863 14.1679 108.025 14.2795 108.142 14.5026C108.305 14.7815 108.444 15.1162 108.584 15.3951C108.654 15.5624 108.723 15.5066 108.77 15.3393C108.863 15.0604 108.956 14.7257 109.119 14.7257C109.352 14.6699 109.584 14.6699 109.794 15.0604C109.863 15.1719 109.91 15.2835 109.98 15.3951C110.073 15.5624 110.166 15.674 110.305 15.7297C110.468 15.7855 110.608 15.7855 110.771 15.7855C110.933 15.7855 111.073 15.8971 111.213 16.0086C112.097 16.7338 112.097 16.7338 112.934 16.7895C113.353 16.8453 113.795 16.7338 114.214 16.9011C114.237 16.9011 114.307 16.9569 114.307 17.0127C114.307 17.2358 114.237 17.3473 114.19 17.4589C114.121 17.6262 114.144 17.7936 114.237 17.8493C114.423 17.9609 114.632 18.0167 114.818 17.9609C115.005 17.9609 115.074 17.7936 115.074 17.2915C115.074 16.9569 115.144 16.8453 115.307 16.9011C115.423 16.9011 115.54 17.0127 115.609 17.2358C115.633 17.2915 115.633 17.4589 115.633 17.5147C115.563 17.9609 115.423 18.2956 115.284 18.6302C115.121 18.9649 114.935 19.0765 114.749 19.0207C114.632 18.9649 114.539 18.7976 114.423 18.9091C114.4 18.9649 114.376 19.0207 114.353 19.1323C114.353 19.2438 114.353 19.3554 114.376 19.4112C114.446 19.5227 114.516 19.5785 114.586 19.6343C115.005 19.6901 115.447 19.6901 115.865 20.0805C115.958 20.1921 116.098 20.1363 116.214 20.1921C116.726 20.2478 117.238 20.3036 117.726 20.3594C117.819 20.3594 117.866 20.5267 117.843 20.6383C117.819 20.6941 117.773 20.7499 117.75 20.7499C117.517 20.8056 117.284 20.8056 117.052 20.8614C116.842 20.8614 116.796 21.0288 116.773 21.5308C116.773 21.7539 116.749 21.8654 116.633 21.9212C116.4 21.977 116.168 21.977 115.935 21.977C115.702 22.0328 115.679 22.1443 115.633 22.8137C115.633 22.981 115.586 23.1484 115.563 23.3715C115.54 23.5946 115.656 23.9293 115.749 23.985C115.796 23.985 115.819 24.0408 115.865 24.0408C115.982 23.9851 116.098 23.9293 116.191 24.0966C116.447 24.6544 116.726 24.8217 117.052 24.766C117.215 24.7102 117.354 24.766 117.517 24.766C117.564 24.766 117.61 24.7102 117.61 24.6544C117.633 24.4871 117.587 24.3755 117.494 24.3197C117.447 24.3197 117.424 24.2639 117.377 24.2639C117.284 24.2082 117.238 24.1524 117.238 23.9293C117.238 23.8735 117.308 23.8177 117.331 23.8177C117.68 23.7619 118.029 23.7062 118.378 23.7619C118.494 23.7619 118.61 23.9293 118.68 24.1524C118.797 24.5986 118.959 24.766 119.169 24.766C119.355 24.766 119.564 24.8217 119.75 24.8217C119.936 24.8217 120.146 24.8775 120.332 24.9333C120.378 24.9333 120.402 25.0449 120.425 25.1006C120.402 25.1564 120.355 25.2122 120.332 25.268C120.03 25.4353 119.704 25.3795 119.401 25.4353C119.192 25.4911 119.029 25.6026 118.843 25.8258C118.587 26.1604 118.587 26.1604 118.773 26.7182C118.797 26.774 118.797 26.8856 118.797 26.9413C118.773 26.9971 118.727 27.0529 118.703 27.0529C118.424 27.1087 118.168 27.276 117.889 27.3876C117.819 27.4434 117.726 27.3318 117.657 27.276C117.447 27.1645 117.261 27.4434 117.168 27.8338C117.052 28.3358 116.935 28.7821 116.773 29.2283C116.68 29.5072 116.726 29.6745 116.866 29.8419C116.935 29.9534 117.005 30.0092 117.075 30.1208C117.215 30.3439 117.354 30.4554 117.517 30.4554C118.261 30.5112 119.006 30.3997 119.75 30.3439C120.053 30.2881 120.378 30.3439 120.681 30.3439C120.983 30.3439 121.216 30.5112 121.379 31.1248C121.425 31.2921 121.495 31.3479 121.542 31.5152C121.658 31.7941 121.658 31.9615 121.542 32.1288C121.332 32.3519 121.123 32.575 120.867 32.6308C120.239 32.6866 119.611 32.7424 118.983 32.8539C118.936 32.8539 118.89 32.9097 118.89 32.9655C118.866 33.0771 118.913 33.1886 119.006 33.2444C119.169 33.3002 119.308 33.2444 119.471 33.4117C119.564 33.5233 119.588 33.6348 119.588 33.858C119.588 34.0253 119.541 34.1926 119.448 34.2484C119.262 34.36 119.052 34.36 118.866 34.4158C118.564 34.5273 118.355 34.8062 118.238 35.4756C118.168 35.866 118.052 36.0333 117.889 36.1449C117.843 36.1449 117.819 36.2007 117.773 36.2565C117.75 36.3122 117.68 36.368 117.68 36.4238C117.68 36.5911 117.726 36.7585 117.796 36.87C117.866 36.9816 117.936 37.0932 118.006 37.0932C118.122 37.1489 118.238 37.1489 118.355 37.1489C119.029 37.0932 119.681 37.2605 120.355 37.3163C120.425 37.3163 120.495 37.4278 120.565 37.5394C120.634 37.6509 120.681 37.8183 120.681 37.9856C120.681 38.153 120.634 38.2645 120.541 38.3203C120.355 38.3761 120.146 38.3761 119.96 38.4319C119.681 38.4876 119.425 38.655 119.215 39.157C119.145 39.3243 119.076 39.3243 119.006 39.2685C118.82 39.2128 118.82 39.2685 118.727 39.5474C118.703 39.6032 118.68 39.7148 118.68 39.7706C118.517 40.3841 118.285 40.6072 118.006 40.7746C117.819 40.8861 117.773 41.5555 117.913 41.9459C117.936 42.0017 117.982 42.0575 118.006 42.1133C118.168 42.2248 118.308 42.1691 118.471 42.1691C118.587 42.1691 118.703 42.1691 118.82 42.2248C119.099 42.3364 119.332 42.7269 119.611 42.7269C119.843 42.7269 120.076 42.7826 120.309 42.8384C120.402 42.8384 120.448 43.0057 120.448 43.1173C120.448 43.1731 120.402 43.2846 120.378 43.2846C120.309 43.3404 120.239 43.3962 120.146 43.452C120.006 43.5635 119.89 43.8424 119.774 44.1213C119.681 44.4002 119.727 44.6791 119.82 44.8465C119.983 45.1254 120.192 45.0696 120.378 45.1811C120.402 45.1811 120.448 45.2927 120.472 45.3485C120.448 45.4043 120.425 45.5158 120.402 45.5716C120.146 46.0178 119.843 46.2409 119.518 46.2409C119.355 46.2409 119.215 46.2967 119.052 46.2967C118.82 46.2967 118.587 46.4083 118.378 46.6314C118.261 46.743 118.145 46.743 118.029 46.8545C117.936 46.9103 117.889 47.0219 117.913 47.1892C117.913 47.3565 117.959 47.5239 118.052 47.6354C118.168 47.747 118.285 47.8028 118.401 47.6912C118.703 47.4123 119.006 47.3007 119.308 47.3007C119.867 47.3007 120.402 47.3007 120.96 47.3007C121.007 47.3007 121.053 47.3007 121.076 47.3565C121.146 47.4681 121.193 47.5796 121.262 47.6912C121.286 47.747 121.286 47.8585 121.262 47.9701C121.239 48.1374 121.193 48.3048 121.123 48.3605C120.89 48.5837 120.658 48.5279 120.425 48.5837C120.262 48.6394 120.285 48.9741 120.285 49.1972C120.285 49.5319 120.123 49.9224 119.983 49.9781C119.913 50.0339 119.82 50.0897 119.75 50.0897C119.448 50.1455 119.122 50.1455 118.843 50.5359C118.773 50.5917 118.703 50.6475 118.61 50.6475C118.494 50.7033 118.378 50.7033 118.261 50.7033C118.029 50.7591 117.796 50.7591 117.564 50.8706C117.331 50.9822 117.122 51.3168 116.889 51.3726C116.866 51.3726 116.819 51.4842 116.796 51.54C116.819 51.5957 116.842 51.6515 116.866 51.6515C117.331 51.7073 117.796 51.7073 118.261 51.7073C118.494 51.7073 118.727 51.7631 118.936 52.042C119.029 52.1535 119.169 52.2093 119.262 52.3209C119.355 52.3767 119.494 52.3767 119.494 52.7113C119.494 52.8787 119.401 52.9902 119.332 53.1018C119.262 53.2133 119.239 53.3807 119.239 53.6038C119.262 53.7711 119.308 53.9385 119.401 53.9385C119.471 53.9942 119.564 53.9942 119.634 53.9942C120.03 54.05 120.425 54.05 120.797 54.05C120.96 54.05 121.1 54.1058 121.262 54.1058C121.309 54.1058 121.356 54.2174 121.356 54.2174C121.356 54.3847 121.286 54.4963 121.216 54.4963C120.983 54.552 120.751 54.6078 120.541 54.8867C120.378 55.1098 120.169 55.1098 119.983 55.1656C119.89 55.2214 119.843 55.3329 119.843 55.4445C119.843 55.5003 119.913 55.5561 119.936 55.6118C120.169 55.6676 120.402 55.6676 120.634 55.7234C120.751 55.7792 120.867 55.7792 120.983 55.8907C121.239 56.1696 121.518 56.2254 121.774 56.2254C121.937 56.2254 122.077 56.2812 122.24 56.337C122.286 56.337 122.309 56.4485 122.333 56.5043C122.309 56.5601 122.263 56.6159 122.24 56.6716C122.123 56.7274 122.007 56.7832 121.891 56.7832C121.146 56.7832 120.402 56.7832 119.657 56.839C119.192 56.839 118.727 56.839 118.261 57.0063C118.238 57.0063 118.192 57.1179 118.192 57.1179C118.192 57.2294 118.215 57.341 118.261 57.341C118.471 57.6199 118.68 57.843 118.913 57.843C119.611 57.8988 120.309 57.9546 121.03 58.0103C121.146 58.0103 121.262 58.1219 121.356 58.345C121.379 58.4008 121.402 58.5124 121.425 58.5681C121.472 58.7355 121.425 58.9028 121.309 58.9028C121.007 58.9586 120.681 58.9586 120.378 59.0144C120.099 59.0702 119.843 58.9586 119.588 58.6797C119.564 58.6239 119.518 58.6239 119.471 58.6239C119.308 58.5681 119.169 58.6797 119.052 58.9028C118.959 59.4048 118.797 59.5722 118.587 59.6279C118.471 59.6837 118.355 59.7953 118.261 59.9068C118.099 60.0742 117.959 60.0184 117.819 59.8511C117.75 59.7395 117.68 59.7395 117.587 59.7953C117.471 59.8511 117.377 59.9626 117.261 60.0742C117.029 60.2415 116.796 60.2973 116.563 60.13C116.261 59.9626 116.261 59.9626 116.005 60.2415C115.982 60.2973 115.935 60.3531 115.912 60.4089C115.865 60.5762 115.889 60.6877 116.005 60.6877C116.307 60.7435 116.633 60.7435 116.935 60.7993C117.005 60.7993 117.075 60.9109 117.168 60.9109C117.284 60.9666 117.331 61.3571 117.261 61.5802C117.168 62.0264 117.005 62.3611 116.819 62.3611C116.284 62.4169 115.726 62.4727 115.191 62.4727C115.074 62.4727 114.958 62.4169 114.842 62.2496C114.586 61.8591 114.33 61.9149 114.051 61.9149C113.981 61.9149 113.888 61.9707 113.818 62.0265C113.795 62.0265 113.725 62.0822 113.725 62.138C113.725 62.1938 113.748 62.3053 113.748 62.4169C113.818 62.64 113.911 62.8074 114.028 62.8631C114.725 62.9747 115.423 62.8631 116.144 63.0305C116.261 63.0305 116.284 63.1978 116.307 63.644C116.307 63.9787 116.377 64.0903 116.54 64.0903C116.703 64.0903 116.842 63.9787 116.912 63.5325C116.935 63.4767 116.959 63.3652 117.005 63.3652C117.075 63.3652 117.122 63.4767 117.122 63.6998C117.122 63.8114 117.145 63.8672 117.145 63.9787C117.168 64.3134 117.284 64.4807 117.377 64.5365C118.029 64.7038 118.703 64.7596 119.378 64.7038C119.494 64.7038 119.611 64.7038 119.727 64.8154C119.75 64.8712 119.774 64.927 119.82 64.9827C119.797 65.0385 119.774 65.1501 119.727 65.1501C119.425 65.3732 119.099 65.0943 118.797 65.2616C118.703 65.3174 118.68 65.429 118.657 65.6521C118.657 66.2657 118.634 66.2657 118.401 66.1541C118.238 66.0425 118.238 66.0425 117.959 66.2657C117.889 66.3214 117.796 66.3772 117.726 66.3772C117.377 66.3772 117.029 66.3772 116.68 66.3214C116.633 66.3214 116.61 66.2657 116.563 66.2657C116.424 66.0983 116.261 66.0983 116.121 66.2657C115.982 66.433 115.819 66.3772 115.656 66.3214C115.586 66.2657 115.516 66.2099 115.423 66.1541C115.237 65.9868 115.051 65.9868 114.865 66.1541C114.818 66.2099 114.795 66.2099 114.749 66.2657C114.563 66.4888 114.376 66.4888 114.19 66.2657C113.841 65.931 113.492 65.9868 113.143 66.0425C113.027 66.0425 112.934 66.2657 112.864 66.4888C112.841 66.5446 112.818 66.6561 112.841 66.7677C112.841 66.8235 112.888 66.8792 112.911 66.935C113.167 67.1024 113.446 67.0466 113.725 67.1024C114.237 67.1581 114.749 67.1581 115.237 67.2139C115.26 67.2139 115.33 67.2697 115.33 67.3812C115.354 67.4928 115.284 67.6044 115.191 67.6601C115.074 67.7159 114.958 67.7159 114.842 67.7159C114.446 67.7717 114.051 67.7717 113.679 67.7717C113.585 67.7717 113.539 67.939 113.585 68.0506C113.609 68.1064 113.655 68.1622 113.679 68.1622C113.841 68.2179 113.981 68.2179 114.144 68.2179C114.493 68.2179 114.842 68.1622 115.167 68.6084C115.237 68.6642 115.33 68.6642 115.4 68.6084C115.563 68.4968 115.702 68.4968 115.865 68.6084C116.098 68.8315 116.331 68.7757 116.563 68.7757C116.796 68.8315 117.029 68.7757 117.261 68.8315C117.377 68.8315 117.471 68.9988 117.587 69.1662C117.703 69.7798 117.959 69.8355 118.192 69.8355C118.424 69.8913 118.657 69.8913 118.89 69.8913C119.215 69.8355 119.494 70.1144 119.774 70.5049C119.913 70.6722 119.96 71.1742 119.867 71.4531C119.727 71.8436 119.588 72.0667 119.378 72.0667C119.332 72.0667 119.308 72.0667 119.262 72.0667L119.285 72.1225C119.239 71.9551 119.192 71.7878 119.122 71.7878C118.773 71.6205 118.424 71.6205 118.075 71.7878C117.982 71.8436 117.936 72.0109 117.959 72.1783C117.982 72.3456 118.029 72.5129 118.099 72.5129C118.168 72.5129 118.261 72.5129 118.331 72.4014C118.471 72.234 118.564 72.3456 118.634 72.5687C118.703 72.7918 118.773 73.015 118.843 73.2381C118.913 73.4612 119.006 73.6285 119.122 73.6843C119.239 73.6843 119.355 73.6843 119.471 73.7401C119.541 73.7401 119.634 73.7959 119.704 73.7959C119.727 73.7959 119.774 73.9074 119.797 73.9632C119.82 74.0748 119.797 74.2421 119.704 74.2979C118.843 74.4094 117.982 74.4094 117.122 74.4094C115.609 74.4094 114.074 74.2979 112.562 74.4652C112.469 74.4652 112.422 74.6325 112.446 74.7441C112.469 74.7999 112.515 74.8557 112.539 74.9114C112.585 74.9672 112.608 74.9672 112.655 74.9672C113.748 74.9672 114.842 75.023 115.935 75.023C116.144 75.023 116.331 75.0788 116.517 75.3019C116.656 75.4692 116.819 75.4692 116.982 75.4692C117.564 75.4692 118.145 75.525 118.75 75.525C119.169 75.525 119.611 75.4135 120.03 75.6366C120.053 75.6366 120.099 75.7481 120.123 75.8039C120.099 75.8597 120.053 75.9712 120.03 75.9712C119.634 76.1386 119.262 76.1386 118.866 76.0828C118.471 76.0828 118.075 76.027 117.703 76.1386C117.587 76.1944 117.54 76.4175 117.633 76.7522C117.703 76.9753 117.773 77.1984 117.819 77.4773C117.843 77.6446 117.819 77.8677 117.819 78.0351C117.819 78.0909 117.866 78.1466 117.889 78.2024C118.075 78.3698 118.285 78.3698 118.471 78.3698C119.029 78.314 119.564 78.3697 120.123 78.4255C120.169 78.4255 120.192 78.4255 120.239 78.4255C120.402 78.4255 120.378 78.6486 120.216 78.8718C119.983 79.2064 119.727 79.4296 119.448 79.4296C118.703 79.4296 117.959 79.4296 117.215 79.4296C116.4 79.4296 115.563 79.4296 114.749 79.4296C114.632 79.4296 114.516 79.4296 114.4 79.4296C113.702 79.5969 113.004 79.4296 112.306 79.5969C112.259 79.5969 112.236 79.7085 112.213 79.7642C112.236 79.82 112.259 79.8758 112.306 79.9316C112.422 79.9874 112.539 80.0431 112.655 80.0431C113.004 80.0431 113.353 79.9874 113.702 79.9316C113.818 79.9316 113.934 79.9316 114.051 80.0431C114.307 80.322 114.563 80.4336 114.842 80.4894C116.098 80.5451 117.354 80.5451 118.587 80.6009C118.773 80.6009 118.983 80.6567 119.169 80.824C119.308 80.9356 119.471 80.9914 119.634 80.9914C119.913 80.9914 120.192 81.0471 120.448 80.9914C120.844 80.9356 121.216 81.2145 121.565 81.6607C121.588 81.7165 121.635 81.7723 121.658 81.8281C121.821 82.107 122.03 82.1627 122.216 82.1627C122.495 82.1627 122.775 82.1627 123.031 82.2185C123.124 82.2185 123.193 82.3858 123.17 82.4974C123.147 82.6647 123.054 82.7205 122.961 82.7205C122.17 82.7205 121.402 82.8321 120.611 82.7205C120.332 82.6647 120.053 82.7205 119.797 82.7205C119.378 82.7205 118.936 82.7205 118.517 82.7205C118.215 82.7205 117.889 82.7763 117.587 82.8321C117.471 82.8321 117.354 82.9436 117.261 83.0552C117.075 83.2225 116.889 83.3899 116.703 83.3899C116.354 83.4457 116.005 83.4457 115.656 83.5014C115.609 83.5014 115.563 83.5572 115.563 83.613C115.54 83.7245 115.609 83.8361 115.702 83.8361C115.982 83.8919 116.238 83.8919 116.517 83.9477C116.54 83.9477 116.587 84.0034 116.61 84.115C116.656 84.2266 116.61 84.3939 116.517 84.3939C115.702 84.617 114.865 84.5612 114.051 84.4497C113.934 84.4497 113.818 84.3381 113.702 84.2823C113.632 84.2266 113.562 84.2266 113.469 84.2823C113.213 84.5055 112.934 84.5612 112.655 84.5612C112.492 84.5612 112.329 84.5612 112.19 84.7286C111.934 85.0075 111.678 85.0633 111.399 85.2306C111.329 85.2864 111.259 85.3421 111.189 85.3979C111.003 85.621 110.817 85.621 110.631 85.3979C110.561 85.2864 110.468 85.2864 110.398 85.3421C110.096 85.621 109.794 85.6768 109.491 85.7884C109.468 85.7884 109.445 85.8999 109.398 85.9557C109.421 86.0115 109.445 86.0673 109.491 86.1231C109.77 86.2904 110.026 86.2904 110.305 86.2346C110.887 86.2346 111.469 86.2904 112.073 86.1788C112.306 86.1231 112.539 86.1788 112.771 86.3462C112.818 86.3462 112.841 86.4577 112.864 86.4577C112.841 86.5135 112.818 86.5693 112.771 86.6251C112.469 86.7924 112.143 86.7924 111.841 86.7924C111.282 86.7924 110.747 86.7924 110.189 86.7924C110.119 86.7924 110.026 86.8482 109.956 86.904C109.91 86.904 109.887 87.0155 109.863 87.0713C109.887 87.1271 109.933 87.1829 109.956 87.2386C110.236 87.406 110.491 87.3502 110.771 87.2944C111.352 87.2386 111.934 87.2944 112.539 87.3502C112.701 87.3502 112.841 87.4618 112.981 87.6291C113.12 87.7964 113.283 87.908 113.423 87.8522C114.167 87.8522 114.912 87.7964 115.656 87.7964C116.005 87.7964 116.354 87.8522 116.703 87.908C116.749 87.908 116.773 88.0196 116.796 88.0196C116.773 88.1311 116.703 88.2427 116.61 88.2427C116.307 88.2984 115.982 88.3542 115.679 88.3542C114.028 88.3542 112.399 88.41 110.747 88.41C110.398 88.41 110.049 88.4658 109.7 88.4658C109.654 88.4658 109.607 88.5216 109.607 88.5773C109.584 88.7447 109.631 88.8562 109.7 88.912C109.747 88.9678 109.77 88.9678 109.817 88.9678C109.91 88.9678 109.98 89.0236 110.026 89.1909C110.073 89.3582 109.98 89.8045 109.887 89.8603C109.817 89.916 109.747 90.0276 109.677 90.0276C109.514 90.0834 109.375 90.1392 109.212 90.1949C109.119 90.2507 109.072 90.4181 109.072 90.5854C109.072 90.7527 109.096 90.9201 109.165 91.0316C109.235 91.1432 109.328 91.2547 109.352 91.3663C109.375 91.5336 109.282 91.6452 109.212 91.7568C109.119 91.8683 109.119 92.0357 109.119 92.203C109.142 92.6492 109.026 92.8166 108.84 92.6492C108.793 92.5934 108.77 92.5934 108.723 92.5377C108.654 92.4819 108.584 92.3703 108.514 92.2588L108.537 92.3145C108.444 91.9799 108.328 91.8125 108.142 91.8125C107.839 91.8125 107.514 91.7568 107.235 92.1472C107.165 92.203 107.072 92.203 107.002 92.1472C106.839 92.0357 106.699 91.9241 106.56 92.1472C106.49 92.2588 106.42 92.2588 106.327 92.203C106.257 92.1472 106.188 92.0914 106.118 91.9799C105.932 91.8125 105.746 91.7568 105.56 91.9799C105.397 92.1472 105.257 92.0914 105.118 91.9241C105.071 91.8683 105.048 91.8683 105.001 91.8683C104.582 91.8125 104.14 91.7568 103.722 91.9241C103.559 91.9799 103.419 92.0914 103.28 92.2588C103.094 92.4819 102.907 92.4261 102.721 92.2588C102.605 92.1472 102.489 92.1472 102.396 92.2588C102.326 92.3145 102.256 92.3703 102.186 92.4819C102.093 92.5934 101.977 92.5934 101.907 92.8723C101.954 93.0397 102.023 93.0955 102.117 93.1512C102.279 93.207 102.419 93.3186 102.535 93.6532C102.605 93.8206 102.582 93.9879 102.512 94.0995C102.489 94.1553 102.442 94.211 102.419 94.211C102.233 94.3226 102.023 94.3226 101.837 94.0995C101.675 93.9321 101.535 93.9879 101.395 94.1553C101.372 94.211 101.326 94.211 101.279 94.2668C100.814 94.3226 100.349 94.4342 99.8832 94.211C99.7669 94.1553 99.7436 94.0437 99.7902 93.8206C99.8367 93.6532 99.86 93.4859 99.9065 93.3744C100.023 92.9281 100.023 92.8166 99.8832 92.7608C99.6971 92.705 99.4877 92.6492 99.3016 92.705C99.1388 92.7608 98.9992 92.9281 98.9527 93.3744C98.9527 93.4859 98.9294 93.5417 98.9062 93.6532C98.8829 93.9879 98.7666 94.1553 98.6735 94.211C98.4176 94.3226 98.1385 94.3784 97.8593 94.3226C97.7662 94.3226 97.6964 94.211 97.6964 94.0995C97.6964 94.0437 97.7197 93.9321 97.7662 93.8764C97.836 93.7648 97.9058 93.6532 97.9523 93.5417C98.0687 93.2628 98.2083 93.1512 98.3711 93.1512C98.4641 93.1512 98.5107 93.0955 98.5572 92.9281C98.4874 92.8166 98.4176 92.7608 98.3478 92.7608C98.1617 92.7608 97.9523 92.7608 97.7662 92.9281C97.5103 93.1512 97.2544 93.3744 96.9985 93.5975C96.9287 93.6533 96.859 93.7648 96.7659 93.7648C96.4402 93.7648 96.161 94.0437 95.8586 94.2668C95.7888 94.3226 95.6958 94.3226 95.626 94.2668C95.1374 93.8206 94.6256 93.7648 94.1371 93.8206C93.3927 93.9321 92.6482 93.8206 91.9271 93.8206C91.8108 93.8206 91.6944 93.8206 91.5781 93.709C91.392 93.5417 91.2059 93.5975 90.9965 93.7648C90.8569 93.8764 90.6941 93.8764 90.5312 93.709C90.4149 93.5975 90.2986 93.4859 90.2056 93.4859C89.7403 93.4301 89.275 93.3744 88.8097 93.5417C88.6934 93.5975 88.6004 93.709 88.5073 93.9321C88.4841 93.9879 88.4608 94.0995 88.4608 94.1553C88.5073 94.3784 88.5771 94.4342 88.6469 94.3226C88.7167 94.2668 88.7865 94.211 88.8563 94.0995C88.9726 93.9321 89.0889 93.9321 89.182 94.0437C89.3913 94.2668 89.624 94.3784 89.8566 94.3784C90.3684 94.3784 90.8802 94.3226 91.3687 94.4899C91.4153 94.4899 91.4618 94.5457 91.4618 94.6015C91.4851 94.7688 91.4385 94.9362 91.392 95.1035C91.3455 95.2708 91.2757 95.3266 91.1826 95.3824C90.95 95.4382 90.7174 95.494 90.4847 95.5497C90.2056 95.5497 89.9497 95.5497 89.6705 95.5497C89.5077 95.5497 89.3681 95.7171 89.2285 95.8286C89.1354 95.8844 88.9959 95.8286 88.9028 95.8844C88.8795 95.8844 88.8563 95.996 88.8097 96.0518C88.6702 96.4422 88.6702 96.4422 88.5306 96.2749C88.4143 96.1633 88.3212 96.0518 88.2049 95.9402C88.1351 95.8844 88.0886 95.7171 88.0653 95.494C88.1351 95.494 88.2281 95.494 88.2979 95.4382C88.3212 95.4382 88.3677 95.3824 88.391 95.3266C88.4143 95.2708 88.4143 95.1593 88.4143 95.1593C88.3677 94.9919 88.2979 94.992 88.2282 95.1035C88.1584 95.2151 88.1118 95.3266 88.1118 95.5497C88.0188 95.5497 87.949 95.5497 87.8559 95.5497C87.8327 95.2708 87.7396 95.1035 87.6233 95.0477C87.5535 94.9919 87.4837 95.0477 87.4139 95.0477C87.3907 95.0477 87.3441 95.1035 87.3209 95.1593C87.2976 95.2708 87.3441 95.3824 87.4372 95.3824C87.5768 95.4382 87.7396 95.4382 87.8792 95.4382C87.8559 95.6055 87.8327 95.7729 87.7629 95.8844C87.6698 96.0518 87.5768 96.1633 87.4604 96.2749C87.3674 96.3864 87.2511 96.498 87.1348 96.3307C86.9952 96.1633 86.8556 96.1075 86.716 95.996C86.5997 95.8844 86.5299 95.7729 86.4601 95.494C86.4136 95.2708 86.3205 95.0477 86.2042 94.9362C86.181 94.7688 86.1344 94.6015 86.0646 94.5457C86.0414 94.4899 85.9948 94.4899 85.9716 94.4899C85.9483 94.4899 85.9018 94.5457 85.8785 94.6015C85.8553 94.7131 85.9018 94.8246 85.9949 94.8804C86.0646 94.8804 86.1344 94.8804 86.2275 94.8804C86.1112 95.5497 85.9018 95.9402 85.6226 96.0518C85.2039 96.2191 84.8084 96.6095 84.3897 96.8884C84.2733 96.9442 84.157 96.9442 84.0407 96.8884C83.9709 96.8327 83.8779 96.8327 83.8081 96.8327C83.6917 96.8327 83.5754 96.9442 83.4591 97C83.2032 96.7769 82.924 96.7211 82.6914 96.3864C82.482 96.0518 82.2494 96.1075 82.04 96.3864C82.0168 96.4422 81.9702 96.498 81.947 96.498C81.9237 96.5538 81.8772 96.6095 81.8307 96.6095C81.7143 96.6653 81.598 96.7211 81.4817 96.6095C81.3421 96.498 81.2025 96.2749 81.063 96.1633C80.9932 96.1075 80.9001 96.1075 80.8303 96.1075C80.6675 96.1075 80.5279 96.2191 80.3883 96.3864C80.1789 96.6653 79.9463 96.7211 79.7137 96.6653C79.5508 96.6653 79.4112 96.6095 79.2484 96.5538C79.0856 96.498 78.9692 96.3306 78.8529 95.996C78.7831 95.7729 78.7831 95.6055 78.8994 95.5497C79.1088 95.3824 79.3415 95.2708 79.5741 95.1035C79.8067 94.9362 80.0394 94.992 80.272 94.992C80.5046 94.9362 80.7373 95.0477 80.9466 95.3266C81.0862 95.494 81.2491 95.4382 81.4119 95.3266C81.4584 95.3266 81.4817 95.2708 81.5282 95.2151C81.7143 94.9919 81.8772 94.8804 82.0866 94.8804C82.7379 94.9362 83.4126 94.8246 84.064 94.8804C84.2501 94.8804 84.4594 94.8246 84.6223 94.6015C84.8317 94.3784 85.0643 94.3784 85.2969 94.2668C85.3202 94.3226 85.3202 94.4342 85.3435 94.4899C85.3667 94.5457 85.39 94.5457 85.4133 94.5457C85.4133 94.4342 85.3667 94.3226 85.2737 94.3226C85.2504 94.0437 85.2039 93.8206 85.1108 93.5975C85.0178 93.4301 84.9015 93.3186 84.7851 93.3186C84.7153 93.3186 84.6223 93.3744 84.5525 93.4301C84.3199 93.5975 84.0872 93.709 83.8546 93.709C83.3893 93.709 82.924 93.709 82.4588 93.709C82.2261 93.709 81.9935 93.7648 81.7609 93.9879C81.6911 94.0437 81.6213 94.0437 81.5282 93.9879C81.2723 93.709 81.0164 93.4859 80.7838 93.2628C80.5046 93.207 80.272 92.7608 79.9928 92.705C79.8067 92.6492 79.7369 92.3703 79.7369 91.9799C79.7369 91.7568 79.6904 91.6452 79.5974 91.6452C79.1321 91.5894 78.6668 91.4779 78.2015 91.701C78.1085 91.7568 78.062 91.8683 78.1317 92.0914C78.2015 92.3145 78.2713 92.5377 78.3179 92.7608C78.3644 92.9839 78.3411 93.0955 78.2248 93.1512C77.9456 93.3186 77.6897 93.3186 77.4338 93.0397C77.3641 92.9281 77.3175 92.8166 77.3408 92.5934C77.364 92.203 77.5036 91.9241 77.4804 91.5336C77.4804 91.3663 77.4106 91.199 77.3408 91.199C77.2245 91.1432 77.1081 91.2547 76.9918 91.3663C76.8057 91.5336 76.6196 91.5894 76.4335 91.4221C76.2474 91.2547 76.0613 91.1432 75.8752 91.3663C75.7123 91.5894 75.4797 91.5336 75.3401 91.8125C75.2703 91.9241 75.2703 92.0914 75.2936 92.3145C75.3168 92.3703 75.3401 92.4819 75.3866 92.4819C75.4099 92.5377 75.4564 92.5377 75.503 92.5377C75.6425 92.4261 75.8054 92.3146 75.945 92.203C76.0613 92.1472 76.1776 92.203 76.2474 92.4261C76.3404 92.705 76.2939 92.9839 76.1776 93.0955C76.1311 93.1512 76.1078 93.207 76.0613 93.207C75.7589 93.2628 75.4332 93.2628 75.1307 93.3186C75.0609 93.3186 74.9679 93.2628 74.8981 93.207C74.7585 93.0955 74.6189 92.8166 74.4561 92.8723C74.3398 92.9281 74.2235 93.0397 74.1304 93.0955C74.0373 93.1512 73.8978 92.8166 73.8745 92.5934C73.8745 92.3145 73.921 92.0356 73.9443 91.8125C73.9443 91.5894 73.8978 91.4779 73.828 91.3663C73.7814 91.3105 73.7582 91.2547 73.7117 91.2547C73.4092 91.199 73.0835 91.199 72.7811 91.1432C72.502 91.0874 72.2461 91.1432 71.9669 91.199C71.8273 91.199 71.804 91.3663 71.804 91.7568C71.804 92.0914 71.711 92.3146 71.6179 92.203C71.4784 92.0357 71.3388 91.8683 71.1992 91.7568C71.1759 91.701 71.1759 91.5894 71.1527 91.5336C71.1294 91.4779 71.1061 91.4779 71.0829 91.4779C71.0829 91.5894 71.1294 91.701 71.1992 91.701C71.1759 92.3145 71.0829 92.7608 70.827 92.9839C70.6176 93.207 70.385 93.3744 70.1756 93.5975C70.0593 93.709 70.0593 94.0437 70.1523 94.2668C70.1756 94.3226 70.1989 94.4342 70.2454 94.4342C70.3617 94.4899 70.478 94.5457 70.5943 94.5457C70.7804 94.6015 70.9898 94.6015 71.1759 94.7688C71.4318 94.9919 71.711 95.0477 71.9902 95.0477C72.9207 94.9919 73.8745 95.0477 74.805 95.1035C75.0377 95.1035 75.2703 94.9919 75.4797 94.6573C75.6658 94.3784 75.8519 94.4342 76.038 94.6573C76.1543 94.7688 76.2241 94.9919 76.2939 95.2151C76.387 95.494 76.3404 96.0518 76.1776 96.1075C76.1311 96.1075 76.1078 96.1633 76.0613 96.1633C75.7123 96.2191 75.3634 96.2749 75.0144 95.9402C74.8981 95.8286 74.805 95.8286 74.6887 95.9402C74.5724 96.0518 74.4561 96.1075 74.3398 96.1633C74.27 96.2191 74.1769 96.1633 74.1071 96.1633C73.7582 96.1633 73.4092 96.1633 73.0603 96.2191C72.6648 96.2749 72.2926 96.1633 71.8971 95.9402C71.8273 95.8844 71.7343 95.9402 71.6645 95.996C71.4086 96.2749 71.1294 96.1633 70.8502 96.2191C70.5711 96.2749 70.3152 96.1633 70.036 95.996C69.8732 95.8844 69.7336 95.8844 69.5707 95.9402C69.152 96.2191 68.7332 96.2749 68.3145 95.8844C68.1982 95.7729 68.0819 95.7729 67.9655 95.7729C67.6864 95.7171 67.4305 95.6613 67.1513 95.7171C66.6395 95.7729 66.1277 95.8844 65.6392 95.8286C65.1274 95.7729 64.6156 95.6613 64.1271 95.6613C64.0107 95.6613 63.8944 95.6055 63.7781 95.494C63.4757 95.1035 63.1732 95.2151 62.8708 95.4382C62.708 95.5497 62.5684 95.5497 62.4288 95.3824C62.1729 95.1593 61.8937 95.2151 61.6146 95.3824C61.5448 95.4382 61.475 95.5497 61.4285 95.6613C61.3587 95.7729 61.3122 95.9402 61.2656 96.0518C61.2191 95.9402 61.1493 95.8286 61.1028 95.7171C61.033 95.6055 60.9865 95.494 60.9167 95.4382C60.8004 95.3824 60.684 95.3266 60.5677 95.3266C59.4045 95.3824 58.2181 95.2708 57.0549 95.2708C56.8688 95.2708 56.6594 95.2708 56.4733 95.3266C56.1942 95.3824 55.9383 95.3266 55.6824 95.0477C55.4962 94.8246 55.3101 94.8804 55.1008 94.9362C54.8681 94.9919 54.6588 95.2151 54.4029 94.992C54.3331 94.9362 54.24 94.992 54.1702 95.1035C53.9841 95.3266 53.798 95.2708 53.6119 95.0477C53.5188 94.9362 53.4025 94.8246 53.2862 94.8246C53.0536 94.8804 52.8209 94.9362 52.5883 94.8804C52.3557 94.8246 52.123 94.8246 51.8904 94.8246C51.588 94.8246 51.2623 94.8246 50.9598 94.8804C50.7737 94.8804 50.5644 94.9919 50.3783 95.1593C50.1921 95.3824 50.006 95.3266 49.8199 95.1593C49.7036 95.0477 49.5873 95.0477 49.471 95.0477C49.0755 94.9919 48.68 94.9919 48.3078 94.9362C48.1449 94.9362 48.0054 94.8804 47.8425 94.7688C47.7262 94.6573 47.6099 94.6573 47.4936 94.7688C47.354 94.8804 47.1911 94.9362 47.0283 94.992C46.6328 94.992 46.2373 95.0477 45.8651 95.0477C45.4464 95.1035 45.0044 95.0477 44.5856 94.8246C44.4228 94.7131 44.2832 94.7688 44.1203 94.8804C43.7481 95.1035 43.3526 95.1035 42.9572 95.1593C42.4919 95.2151 42.0266 95.2151 41.5613 95.1593C41.2589 95.1035 40.9332 95.1035 40.6308 95.1593C40.3516 95.2151 40.0725 95.1593 39.8166 94.8804C39.7468 94.8246 39.6537 94.7688 39.5839 94.8804C39.328 95.1593 39.0489 95.2151 38.7697 95.1593C38.0253 95.1593 37.2808 95.1035 36.5364 95.1035C36.4201 95.1035 36.3038 95.1035 36.1874 94.992C35.7687 94.6015 35.35 94.6015 34.9079 94.6573C34.7218 94.7131 34.5125 94.7688 34.3264 94.9362C34.2566 94.9919 34.1868 95.0477 34.0937 95.0477C33.6982 95.1035 33.3028 95.1035 32.9305 95.0477C32.5583 94.7131 32.1628 94.7688 31.7674 94.7131C31.6045 94.7131 31.4649 94.7688 31.3021 94.9362C31.2323 94.9919 31.1625 94.9919 31.0695 94.9362C30.9299 94.8246 30.767 94.7131 30.6042 94.8246C30.325 94.9362 30.0691 94.992 29.79 94.8246C29.3247 94.8246 28.8594 94.5457 28.3941 94.7131C27.9754 94.6573 27.5334 94.6573 27.1146 94.6015C27.0448 94.6015 26.9518 94.5457 26.882 94.4899C26.6261 94.2668 26.3469 94.211 26.0678 94.211C25.7886 94.211 25.5094 94.211 25.2535 94.1553C25.0674 94.1553 24.8581 94.0437 24.672 93.9321C24.4393 93.7648 24.2067 93.7648 23.974 93.9321C23.9043 93.9879 23.8345 93.9321 23.7414 93.8764C23.6251 93.8206 23.5088 93.709 23.3925 93.709C22.648 93.709 21.9036 93.6533 21.1592 93.5975C20.9498 93.5975 20.7637 93.5417 20.5776 93.3744C20.3915 93.207 20.2053 93.2628 19.996 93.3744C19.5772 93.709 19.1585 93.709 18.7397 93.3186C18.6234 93.207 18.5071 93.207 18.3908 93.1512C18.2047 93.1512 17.9953 93.1512 17.8092 93.1512C17.6463 93.1512 17.5068 93.0397 17.3439 93.0397C17.0182 92.6492 16.6693 92.705 16.3203 92.6492C16.0412 92.5934 15.7853 92.5934 15.5061 92.5377C15.2269 92.5377 14.971 92.4819 14.7151 92.203C14.1335 92.0357 13.5752 91.4779 12.9936 91.4779C12.8308 91.4779 12.6912 91.3663 12.5516 91.2547C12.412 91.0874 12.2492 91.0316 12.0863 91.0316C12.0165 91.0316 11.9235 91.0316 11.8537 90.9758C11.4582 90.5854 11.0162 90.4738 10.5975 90.3623C10.5044 90.3623 10.3881 89.9718 10.4114 89.7487C10.4346 89.5814 10.4579 89.3582 10.4579 89.1909C10.4579 89.0236 10.4114 88.8562 10.3183 88.8005C10.2718 88.7447 10.2485 88.7447 10.202 88.7447C9.8763 88.8005 9.59713 88.41 9.31797 88.0753C9.24818 88.0195 9.20165 87.7964 9.17839 87.6291C9.08533 87.0713 8.89922 86.7366 8.66659 86.5693C8.43395 86.402 8.22458 86.1788 8.01521 86.0115C7.8291 85.8999 7.64299 85.7884 7.45688 85.621C7.34056 85.5095 7.22424 85.4537 7.10793 85.3979C6.92182 85.3421 6.71244 85.2864 6.5496 85.119C6.22391 84.8401 5.85169 84.8401 5.50274 84.8959C5.40968 84.8959 5.33989 85.0075 5.33989 85.119C5.33989 85.1748 5.38642 85.2864 5.40968 85.3421C5.64232 85.621 5.89822 85.8999 6.13085 86.2346C6.2937 86.4577 6.43328 86.4019 6.57286 86.2346C6.61939 86.1788 6.64265 86.1788 6.68918 86.1231C6.92182 85.9557 7.15445 86.0115 7.34056 86.402C7.48014 86.7366 7.61973 87.0155 7.78257 87.2944C7.92215 87.5175 8.06173 87.5175 8.22458 87.3502C8.29437 87.2944 8.36416 87.1829 8.43395 87.1829C8.50374 87.1271 8.5968 87.2386 8.62006 87.4618C8.64332 87.6849 8.5968 87.8522 8.52701 87.908C8.50374 87.9638 8.45722 88.0196 8.43395 88.0196C8.20132 88.0753 7.96868 88.1311 7.73604 88.1311C7.54993 88.1311 7.34056 88.1311 7.15445 87.908C6.85203 87.6291 6.5496 87.5733 6.22391 87.5733C6.06106 87.5733 5.92148 87.6291 5.75864 87.6291C5.64232 87.6291 5.50274 87.6291 5.40968 87.5175C5.13052 87.1271 4.82809 87.0713 4.5024 87.1271C4.22324 87.1829 3.94407 87.1829 3.68817 87.1829C3.57186 87.1829 3.45554 87.1829 3.33922 87.2944C3.03679 87.6291 2.73437 87.6291 2.43194 87.6291C1.92014 87.6291 1.40834 87.6849 0.919805 87.5175C0.803486 87.4618 0.710432 87.2944 0.617378 87.1271C0.547587 86.9597 0.547587 86.7924 0.640641 86.6808C0.873277 86.402 0.989595 86.0115 1.08265 85.4537C1.10591 85.2306 1.10591 85.0633 1.03612 84.9517C0.803487 84.617 0.663905 84.0034 0.431269 83.613C0.291687 83.3899 0.314951 83.111 0.454532 82.6647C0.617378 82.2743 0.617378 82.2185 0.454532 82.107C0.338214 82.0512 0.221896 81.9954 0.128842 81.8281C0.0590508 81.7165 -0.0340037 81.2703 0.0125236 81.1029C0.0357872 80.9356 0.0590508 80.7683 0.105578 80.6009C0.221896 80.0989 0.291687 79.5969 0.268423 78.9833C0.24516 78.4255 0.24516 77.8677 0.291687 77.3099C0.314951 77.1426 0.314951 76.9195 0.338214 76.7522C0.384741 76.3059 0.594114 75.9155 0.780223 75.9712C0.850014 75.9712 0.943068 76.027 1.01286 76.0828C1.08265 76.1386 1.1757 76.0828 1.2455 76.027C1.38508 75.8597 1.54792 75.8039 1.71077 75.8039C1.9434 75.8039 2.17604 75.8039 2.40868 75.8039C2.40868 75.8597 2.43194 75.9713 2.43194 76.027C2.4552 76.0828 2.47847 76.0828 2.50173 76.0828C2.50173 75.9712 2.4552 75.9155 2.38541 75.8597C2.33889 75.5808 2.24583 75.4135 2.12951 75.3577C2.01319 75.3019 1.89688 75.3019 1.78056 75.3577C1.54792 75.4135 1.31529 75.3577 1.10591 75.0788C0.919805 74.8557 0.733696 74.7999 0.547587 74.7441C0.431269 74.6883 0.361478 74.3536 0.408005 74.1305C0.501059 73.7401 0.547587 73.2381 0.733696 73.0149C0.82675 72.9034 0.850014 72.7361 0.803486 72.6245C0.780223 72.5687 0.733696 72.5687 0.710432 72.5129C0.640641 72.4572 0.57085 72.4014 0.477796 72.3456C0.454532 72.2898 0.384741 72.234 0.384741 72.1783C0.454532 71.5089 0.291687 70.8953 0.314951 70.226C0.338214 69.9471 0.384741 69.724 0.501059 69.6124C0.617378 69.5009 0.733696 69.5009 0.82675 69.3335C0.896541 69.222 0.943068 68.9988 0.873277 68.8873C0.803486 68.6642 0.710432 68.5526 0.617378 68.3295C0.524323 68.1064 0.501059 67.8833 0.547587 67.6044C0.57085 67.4928 0.594114 67.437 0.594114 67.3812C0.687168 66.8792 0.687168 66.7119 0.547587 66.3772C0.501059 66.2657 0.431269 66.1541 0.384741 65.9868C0.291687 65.7637 0.314951 65.429 0.361478 65.2059C0.477796 64.8154 0.710432 64.7596 0.82675 64.3692C0.919805 64.0903 0.803487 63.6998 0.943068 63.3652C1.08265 63.0863 1.08265 62.9747 0.989595 62.6958C0.919805 62.4727 0.850014 62.2496 0.780223 62.0265C0.710432 61.8033 0.756959 61.5244 0.850014 61.3013C0.873277 61.2455 0.919805 61.1898 0.943068 61.134C1.03612 60.9109 1.03612 60.8551 0.989595 60.4089C0.966332 60.13 0.919805 59.8511 0.919805 59.5722C0.919805 59.0144 0.943068 58.4566 0.943068 57.8988C0.943068 57.5641 1.05939 57.3968 1.15244 57.341C1.36181 57.1737 1.59445 56.9505 1.80382 56.839C1.87361 56.7832 1.96667 56.839 2.03646 56.8948C2.24583 56.9505 2.31562 56.839 2.31562 56.337C2.31562 56.2254 2.31562 56.1696 2.29236 56.0581C2.36215 56.0581 2.43194 56.0581 2.50173 56.0581C2.52499 56.0581 2.57152 56.0023 2.59478 55.9465C2.61805 55.8907 2.61805 55.835 2.61805 55.7792C2.57152 55.6118 2.50173 55.6118 2.43194 55.7234C2.36215 55.835 2.33889 55.9465 2.31562 56.1139C2.12951 56.1139 1.92014 56.0581 1.78056 55.6676C1.61771 55.2214 1.40834 54.9983 1.15244 54.9983C1.08265 54.9983 0.989595 54.9425 0.919805 54.8867C0.82675 54.8309 0.710432 54.4963 0.733696 54.2731C0.803486 53.8269 0.803486 53.3807 0.733696 52.9344C0.710432 52.7671 0.733696 52.544 0.780223 52.4324C0.989595 52.042 1.19897 51.5957 1.40834 51.2053C1.47813 51.0937 1.54792 51.0937 1.64098 51.0937C1.85035 51.0937 2.01319 51.3168 2.1993 51.4284C2.26909 51.4842 2.36215 51.4284 2.43194 51.3726C2.64131 51.0937 2.78089 50.5917 2.99027 50.4244C3.08332 50.3128 3.10658 50.1455 3.03679 50.0897C3.01353 50.0339 2.967 50.0339 2.92048 50.0339C2.85068 50.0339 2.75763 49.9781 2.68784 50.0897C2.54826 50.2013 2.40868 50.4244 2.26909 50.5359C2.08299 50.7033 1.89688 50.6475 1.71077 50.4244C1.6875 50.3686 1.64098 50.3128 1.61771 50.257C1.54792 49.9224 1.47813 49.5877 1.4316 49.253C1.36181 48.8068 1.2455 48.4721 1.05939 48.249C0.919805 48.0817 0.896541 47.6912 1.01286 47.3007C1.12918 46.9103 1.2455 46.5198 1.33855 46.1294C1.4316 45.7947 1.54792 45.6274 1.71077 45.5716C2.12951 45.5158 2.57152 45.46 2.99027 45.3485C3.08332 45.3485 3.12985 45.1254 3.12985 44.958C3.15311 44.7349 3.10658 44.5676 3.03679 44.5118C2.967 44.456 2.89721 44.4002 2.82742 44.3445C2.64131 44.3445 2.43194 44.3444 2.24583 44.1771C2.12951 44.1213 2.03646 43.954 1.98993 43.6751C1.9434 43.452 1.96667 43.2846 2.08299 43.2846C2.47847 43.1731 2.85068 43.1731 3.24617 43.1731C3.31596 43.5078 3.43228 43.7309 3.59512 43.7309C3.78123 43.7309 3.96734 43.7309 4.15345 43.6751C4.17671 43.6751 4.22324 43.6193 4.2465 43.5078C4.26977 43.3962 4.22324 43.2846 4.13018 43.2289C3.82776 43.0615 3.54859 43.1731 3.24617 43.1731C3.19964 42.8942 3.10658 42.7269 2.99027 42.6711C2.87395 42.6153 2.75763 42.5595 2.68784 42.3364C2.61805 42.1133 2.61805 41.7228 2.73437 41.667C2.80416 41.6113 2.87395 41.5555 2.967 41.5555C3.12985 41.5555 3.26943 41.6113 3.43228 41.7228C3.57186 41.8344 3.7347 41.9459 3.87428 42.0017C4.17671 42.0575 4.47914 42.1691 4.78156 42.448C4.92115 42.5595 5.08399 42.6153 5.24684 42.6153C5.64232 42.6153 6.01454 42.5595 6.41002 42.5037C6.45654 42.5037 6.47981 42.5037 6.52634 42.448C6.66592 42.3922 6.66592 42.2248 6.5496 42.2248C6.31696 42.1133 6.08433 42.1133 5.85169 42.0575C5.73537 42.0017 5.64232 41.8902 5.54926 41.667C5.47947 41.4997 5.45621 41.3324 5.526 41.2208C5.54926 41.165 5.59579 41.1093 5.61905 41.1093C5.80516 41.2208 5.99127 41.3324 6.17738 41.3882C6.41002 41.4439 6.64265 41.3882 6.87529 41.3324C7.17772 41.2766 7.48014 40.9419 7.78257 40.9419C8.06173 40.9419 8.31763 40.8861 8.5968 40.8304C8.71311 40.7746 8.80617 40.6072 8.8527 40.3283C8.87596 40.3283 8.92249 40.2726 8.94575 40.2726C8.96902 40.2726 8.96902 40.161 8.96902 40.1052C8.89922 40.1052 8.87596 40.161 8.87596 40.3841C8.75964 40.3841 8.64332 40.3283 8.52701 40.3283C8.29437 40.2726 8.27111 40.161 8.31763 39.6032C8.36416 39.1012 8.36416 39.0454 8.29437 38.8223C8.085 38.2645 7.87563 37.7067 7.66625 37.1489C7.61973 36.9816 7.5732 36.8143 7.59646 36.6469C7.64299 36.4796 7.71278 36.4238 7.80583 36.4238C7.92215 36.368 8.03847 36.368 8.15479 36.3122C8.24784 36.2565 8.3409 35.9218 8.3409 35.6987C8.36416 35.2524 8.36416 34.7504 8.29437 34.3042C8.20132 33.8022 8.085 33.3002 7.99194 32.7982C7.92215 32.4635 7.92215 32.073 7.94542 31.6826C7.94542 31.571 7.96868 31.5152 7.99194 31.4037C8.085 30.9574 8.085 30.5112 7.96868 30.065C7.87562 29.7303 7.87563 29.3398 7.92215 29.0052C7.96868 28.7263 8.03847 28.5032 8.01521 28.2243C7.94542 27.7223 8.06173 27.3318 8.17805 26.9413C8.24784 26.7182 8.24784 26.4393 8.17805 26.1604C8.15479 26.1047 8.15479 25.9931 8.13153 25.8815C8.03847 24.9333 8.03847 24.0408 8.31763 23.2041C8.36416 23.0368 8.43395 22.9252 8.45722 22.7579C8.57353 22.0328 8.5968 21.3076 8.41069 20.6383C8.31763 20.3036 8.20132 20.0805 8.01521 20.0805C7.94542 20.0805 7.85236 20.0805 7.78257 20.0805C7.73604 20.0805 7.71278 20.0805 7.66625 20.0247C7.61973 19.9689 7.5732 19.9689 7.5732 19.9132C7.54993 19.8016 7.59646 19.6901 7.68952 19.6343C7.75931 19.5785 7.85236 19.6343 7.92215 19.5785C8.17805 19.5227 8.27111 19.2438 8.10826 18.686C7.92215 18.0725 7.94542 18.0167 8.22458 17.7936C8.3409 17.7378 8.43395 17.6262 8.55027 17.4589C8.64332 17.2915 8.71312 17.0127 8.64332 16.7338C8.55027 16.2875 8.50374 15.8413 8.52701 15.3951C8.57353 14.8373 8.52701 14.2795 8.48048 13.7217C8.41069 12.9965 8.41069 12.9966 8.55027 12.4388C8.57353 12.383 8.5968 12.2714 8.62006 12.2156C8.66659 12.0483 8.66659 11.881 8.64332 11.7136C8.50374 10.9327 8.36416 10.2076 8.22458 9.42668C8.17805 9.09201 8.15479 9.03623 8.38743 8.86889C8.5968 8.70155 8.73638 8.47844 8.78291 7.92064C8.78291 7.80909 8.80617 7.75331 8.80617 7.64175C8.87596 7.41863 8.94575 7.19551 9.06207 7.13974C9.17839 7.08396 9.29471 7.08396 9.41102 7.02818C9.50408 6.9724 9.5506 6.86084 9.52734 6.74928C9.50408 6.6935 9.45755 6.63772 9.43429 6.58194C9.3645 6.52616 9.27144 6.52616 9.20165 6.47039C9.08533 6.41461 9.01554 6.07993 9.03881 5.80103C9.06207 5.6337 9.1086 5.41058 9.08533 5.24324C9.03881 4.96435 8.92249 4.85279 8.8527 4.68545C8.78291 4.51811 8.78291 4.35078 8.78291 4.18344C8.82943 3.68143 8.99228 3.40253 9.17839 3.29097C9.48081 3.12363 9.80651 3.06785 10.1089 2.90052C10.3416 2.78896 10.5509 2.62162 10.8068 2.62162C11.1093 2.62162 11.435 2.51006 11.7141 2.17539C11.8537 2.00805 12.0165 2.00805 12.1794 2.00805C12.412 1.95227 12.6447 1.95227 12.8773 1.78493C13.1332 1.56182 13.4124 1.50604 13.6915 1.45026C14.1568 1.3387 14.6221 1.3387 15.0873 1.00403C15.2269 0.892467 15.3898 0.892467 15.5526 0.892467C16.0644 0.836688 16.5762 0.836688 17.0648 0.502013C17.1345 0.446233 17.2276 0.502013 17.2974 0.557792C17.4137 0.613571 17.53 0.613571 17.6463 0.502013C17.9022 0.278896 18.1814 0.223117 18.4606 0.223117C19.0887 0.167338 19.7168 0.167338 20.3449 0.167338C21.0196 0.167338 21.6709 0.111558 22.3456 0.111558C23.2529 0.111558 24.1369 0.111558 25.0442 0.0557792C25.6258 -4.15587e-09 26.2074 0.0557792 26.8122 0C27.0216 0 27.2077 0.111558 27.3705 0.334675C27.4403 0.446233 27.5101 0.390454 27.6032 0.334675C27.7428 0.167338 27.9056 0.111558 28.0684 0.111558C28.7431 0.111558 29.3945 0.111558 30.0691 0.111558C30.1156 0.111558 30.1622 0.111558 30.1854 0.111558C30.3948 0.334675 30.6274 0.334675 30.8601 0.278896C31.209 0.66935 31.5347 0.557792 31.8837 0.223117C32.0698 0.0557792 32.2559 0 32.4653 0C32.7444 0.0557792 33.0236 -1.66235e-08 33.2795 0.223117C33.3493 0.278896 33.4423 0.223117 33.5121 0.167338C33.7215 0 33.8611 0.167337 34.0007 0.613571C34.1402 1.0598 34.3031 1.11558 34.5125 0.836688C34.7218 0.557792 34.9312 0.446233 35.1871 0.446233C35.5361 0.446233 35.885 0.390454 36.234 0.446233C36.4201 0.502013 36.6295 0.446233 36.8156 0.334675C37.0017 0.167338 37.1878 0.278896 37.3972 0.334675C37.9555 0.502013 39.0489 0.557792 39.7468 0.502013C40.0259 0.446233 40.2818 0.446233 40.561 0.446233C40.6773 0.446233 40.7936 0.502013 40.8867 0.66935C41.0728 0.892467 41.2589 0.948246 41.445 0.725129C41.5381 0.613571 41.6544 0.502013 41.7707 0.502013C42.0731 0.557792 42.3988 0.502013 42.7013 0.780909C43.0269 1.0598 43.3992 1.00403 43.7481 1.00403C43.8179 1.00403 43.911 0.948246 43.9808 0.892467C44.1669 0.725129 44.353 0.613571 44.5391 0.613571C44.8415 0.613571 45.1672 0.557792 45.4696 0.502013C45.7023 0.502013 45.9349 0.557792 46.1675 0.780909C46.2839 0.892467 46.4002 0.948246 46.5165 0.948246C46.912 0.948246 47.3075 1.00403 47.6797 0.66935C47.8193 0.557792 47.9821 0.502013 48.1449 0.502013C48.3776 0.502013 48.6102 0.557792 48.8429 0.780909C48.9824 0.948246 49.122 1.0598 49.2849 1.22714C49.3547 1.28292 49.4244 1.28292 49.5175 1.22714C49.8897 0.948246 50.2852 1.00403 50.6807 1.00403C50.797 1.00403 50.8203 1.17136 50.797 1.39448C50.7737 1.6176 50.7737 1.78493 50.8435 1.89649C50.9133 2.00805 50.9831 2.06383 51.0762 2.00805C51.1925 1.95227 51.3088 1.89649 51.4251 1.84071C51.4949 1.78493 51.5647 1.78493 51.6577 1.84071C51.7741 1.95227 51.8904 1.95227 52.0067 2.00805C52.1695 2.06383 52.3324 2.06383 52.472 1.89649C52.914 1.39448 53.3793 1.45026 53.8445 1.39448C53.9608 1.39448 54.0772 1.50604 54.1702 1.67338C54.3331 1.95227 54.4261 2.34273 54.5424 2.73318C54.589 2.90052 54.682 2.9563 54.7518 2.9563C54.8216 2.9563 54.9147 3.01208 54.9844 2.9563C55.2403 2.6774 55.5428 3.01208 55.7754 2.6774C56.008 2.56584 56.2407 2.3985 56.4501 2.23117C56.5664 2.11961 56.6827 2.17539 56.799 2.28695C56.8688 2.34273 56.9386 2.45428 57.0316 2.45428C57.6598 2.51006 58.2879 2.62162 58.916 2.45428C59.0323 2.3985 59.1254 2.23117 59.1952 2.00805L59.1719 2.06383C59.2882 2.11961 59.4045 2.06383 59.5209 2.17539C59.6837 2.34273 59.8 2.3985 59.9396 2.11961C59.9861 2.00805 60.0559 1.89649 60.1257 1.78493C60.1955 1.67338 60.2653 1.6176 60.3351 1.56182C60.684 1.45026 61.033 1.39448 61.3819 1.3387C61.6611 1.3387 61.917 1.39448 62.1962 1.50604C62.359 1.56182 62.3357 1.89649 62.3357 2.11961C62.3357 2.17539 62.359 2.28695 62.3823 2.34273C62.4986 2.51006 63.1034 2.90052 63.2663 2.9563C63.4524 3.01208 63.6618 3.01208 63.8479 3.06786C64.0107 3.06786 64.1503 3.17941 64.2899 3.40253C64.4295 3.56987 64.5691 3.73721 64.7086 3.84876C64.7784 3.90454 64.8715 3.96032 64.9413 3.96032C65.2902 3.84876 65.6392 4.23922 65.9881 4.12766C66.1742 4.07188 66.3836 4.12766 66.5697 4.18344C66.9885 4.295 67.4305 4.295 67.8492 4.23922C68.1284 4.18344 68.3843 4.35078 68.6402 4.57389C68.8263 4.74123 69.0124 4.68545 69.2218 4.62967C69.2916 4.57389 69.3846 4.57389 69.4544 4.46233C69.6405 4.295 69.8266 4.23922 70.036 4.18344C70.3152 4.18344 70.5711 4.12766 70.8502 4.12766C71.0596 4.12766 71.2457 4.23922 71.4086 4.46233C71.5714 4.62967 71.711 4.62967 71.8506 4.40656C72.0599 4.12766 72.246 3.84876 72.3624 3.29097C72.4787 2.73318 72.7113 2.56584 72.944 2.51006C73.1766 2.45428 73.4092 2.51006 73.6419 2.51006C73.7582 2.51006 73.8745 2.51006 73.9908 2.62162C74.5259 3.01208 75.0609 3.01208 75.6193 3.06786C75.8984 3.06786 76.1543 3.12363 76.4335 3.40253C76.5498 3.51409 76.6661 3.51409 76.7825 3.51409C77.5734 3.51409 78.3411 3.56987 79.1321 3.56987C79.4112 3.56987 79.6671 3.68143 79.923 3.90454C80.0626 4.07188 80.2255 4.07188 80.3883 4.12766C80.5512 4.12766 80.6907 4.12766 80.8536 4.12766C81.2025 4.12766 81.5515 4.12766 81.9005 4.18344C82.0633 4.18344 82.2029 4.23922 82.3657 4.35078C82.5984 4.51811 82.831 4.57389 83.0636 4.57389C83.5289 4.57389 83.9942 4.62967 84.4594 4.62967C84.7386 4.62967 84.9945 4.68545 85.2737 4.96435C85.4598 5.13168 85.6459 5.13168 85.8553 5.13168C86.4834 5.18746 87.1115 5.18746 87.7396 5.24324C87.9025 5.24324 88.0653 5.24324 88.2049 5.3548C88.5538 5.6337 88.9028 5.68948 89.2518 5.68948C89.6705 5.68948 90.1125 5.68948 90.5312 5.74526C90.6941 5.74526 90.8569 5.74526 90.9965 5.85681C91.299 6.07993 91.6014 6.13571 91.9271 6.13571C92.2062 6.13571 92.4621 6.19149 92.7413 6.19149C92.8576 6.19149 92.9739 6.19149 93.0902 6.30305C93.509 6.74928 93.9277 6.63772 94.3698 6.6935C94.5326 6.6935 94.6722 6.6935 94.835 6.6935C95.0444 6.6935 95.2305 6.80506 95.3933 7.02818C95.5795 7.25129 95.7656 7.36285 95.9517 7.30707C96.6263 7.13974 97.2777 7.25129 97.9291 7.30707C98.0919 7.30707 98.2315 7.36285 98.3943 7.53019C98.5805 7.69753 98.7666 7.75331 98.9759 7.75331C99.2784 7.75331 99.6041 7.80909 99.9065 7.80909C100.209 7.86486 100.535 7.86486 100.837 8.08798C100.977 8.19954 101.139 8.19954 101.302 8.25532C101.581 8.3111 101.837 8.3111 102.117 8.36688C102.233 8.36688 102.349 8.36688 102.465 8.47844C102.838 8.86889 103.233 8.86889 103.605 8.86889C104.001 8.86889 104.373 9.03623 104.769 9.25934C105.234 9.48246 105.699 9.42668 106.164 9.53824C106.188 9.53824 106.234 9.59402 106.234 9.6498C106.234 9.76136 106.211 9.87292 106.188 9.92869C106.118 10.0403 106.048 10.096 106.002 10.2076C105.932 10.3191 105.885 10.4865 105.839 10.598C105.815 10.6538 105.792 10.7654 105.815 10.8212C105.839 10.8769 105.885 10.9885 105.909 10.9885C106.095 11.0443 106.304 11.0443 106.49 11.1558C106.909 11.3232 106.955 11.3232 107.235 10.9327C107.258 10.8769 107.281 10.8212 107.304 10.7096C107.328 10.6538 107.328 10.5423 107.351 10.4307L107.328 10.4865C107.444 10.5423 107.514 10.7654 107.537 11.0443C107.374 10.8769 107.374 11.0443 107.397 11.2116ZM11.5978 8.58999C11.6676 8.58999 11.7374 8.58999 11.8072 8.58999C11.8304 8.58999 11.877 8.53421 11.9002 8.47844C11.9235 8.42266 11.9235 8.36688 11.9235 8.3111C11.877 8.19954 11.8072 8.14376 11.7374 8.25532C11.6676 8.25532 11.6211 8.42266 11.5978 8.58999C11.5745 8.64577 11.5513 8.64577 11.5047 8.70155C11.4815 8.70155 11.4815 8.81311 11.4815 8.86889C11.5513 8.92467 11.5978 8.81311 11.5978 8.58999ZM10.4346 7.47441C10.8534 7.53019 11.2954 7.47441 11.6909 7.08396C11.7606 7.02818 11.8304 6.9724 11.9235 6.9724C12.2724 6.86084 12.6214 6.80506 12.9704 6.9724C13.0169 6.9724 13.0634 7.02818 13.0867 7.08396C13.1099 7.19551 13.0867 7.36285 13.0169 7.47441C12.9471 7.58597 12.9238 7.75331 12.9704 7.86486C12.9936 7.92064 13.0401 7.97642 13.0634 7.97642C13.296 8.0322 13.5287 7.97642 13.7381 7.64175C13.9242 7.30707 14.1103 6.91662 14.3196 6.74928C14.3662 6.6935 14.3894 6.63772 14.4127 6.58194C14.5058 6.41461 14.5523 6.13571 14.6221 5.91259C14.6686 5.74526 14.5523 5.29902 14.4825 5.24324C14.2033 5.13168 13.9474 5.18746 13.6683 5.3548C13.4822 5.46636 13.296 5.68948 13.1099 5.68948C12.8773 5.74526 12.6447 5.74526 12.412 5.85681C12.1794 5.96837 11.97 6.19149 11.7374 6.30305C11.3419 6.41461 10.9929 6.80506 10.6207 7.08396C10.5044 7.13974 10.4579 7.30707 10.4346 7.47441C10.2253 7.47441 9.99261 7.47441 9.75998 7.58597C9.71345 7.58597 9.69019 7.69753 9.66692 7.75331C9.69019 7.80909 9.71345 7.86486 9.73671 7.92064C9.8763 8.0322 10.0391 8.08798 10.202 7.97642C10.295 7.86486 10.3881 7.75331 10.4346 7.47441ZM56.8688 92.9839C57.0084 92.8166 57.148 92.6492 57.2875 92.4819C57.3573 92.4261 57.4504 92.4261 57.5202 92.3703C57.5667 92.3703 57.59 92.3703 57.6365 92.4261C57.7296 92.4819 57.7528 92.6492 57.7296 92.8723C57.7063 93.207 57.7761 93.3744 57.9157 93.3744C58.1483 93.3744 58.3809 93.3744 58.6136 93.3744C58.7299 93.3744 58.8462 93.3186 58.9393 93.1512C59.1952 92.7608 59.4511 92.8723 59.7302 92.9839C60.149 93.4301 60.5677 93.3743 60.9865 93.207C61.033 93.207 61.0563 93.1512 61.1028 93.1512C61.1726 93.0955 61.2424 93.1512 61.3354 93.207C61.4517 93.3186 61.5681 93.3744 61.6844 93.3744C61.8472 93.4301 61.9635 93.6533 62.0566 93.9879C62.1264 94.2668 62.2194 94.3784 62.3357 94.3784C62.3823 94.3784 62.4055 94.3784 62.4521 94.3784C62.7312 94.3784 63.0104 94.3784 63.2663 94.3784C63.6152 94.3226 63.9409 93.8764 64.2899 93.8764C64.3597 93.8764 64.4295 93.7648 64.4993 93.709C64.5458 93.6533 64.5691 93.5975 64.5923 93.5975C64.6854 93.4859 64.8017 93.3186 64.918 93.3186C65.3135 93.3186 65.709 93.3186 66.0812 93.3744C66.1975 93.3744 66.3138 93.4859 66.3836 93.709C66.5232 94.0995 66.686 94.2668 66.8954 94.3226C67.5933 94.4899 68.2912 94.3784 69.0124 94.3226C69.1287 94.3226 69.2218 94.1553 69.2916 93.8764C69.3381 93.6533 69.4312 93.4301 69.5242 93.2628C69.6173 93.1512 69.6173 92.9839 69.594 92.8723C69.5707 92.8166 69.5242 92.7608 69.5009 92.7608C69.2218 92.6492 68.9659 92.6492 68.6867 92.4261C68.6169 92.3703 68.5239 92.3703 68.4541 92.4261C68.2912 92.5377 68.1517 92.5377 67.9888 92.3703C67.7329 92.1472 67.477 91.9241 67.2211 91.7568C67.0815 91.6452 66.9187 91.701 66.7791 91.8683C66.6163 92.0914 66.4301 92.2588 66.2208 92.2588C66.0347 92.2588 65.8253 92.2588 65.6392 92.2588C65.4298 92.2588 65.2437 92.1472 65.0809 91.8683C64.9413 91.6452 64.8017 91.5894 64.6389 91.5894C64.0573 91.5894 63.4757 91.4779 62.8941 91.7568C62.6149 91.7568 62.3358 91.701 62.0799 91.7568C60.9865 91.8125 59.8931 91.7568 58.7997 91.7568C58.0552 91.7568 57.3108 91.7568 56.5664 91.8125C56.5198 91.8125 56.4966 91.8125 56.4501 91.8683C56.4035 91.8683 56.3803 91.9241 56.3337 91.9799C56.2174 92.0357 56.1709 92.3703 56.2407 92.6492C56.4035 93.4859 56.6594 93.5975 56.8688 92.9839ZM90.95 9.76136C91.2524 9.3709 91.6014 9.09201 91.9271 8.86889C91.9969 8.81311 92.0667 8.86889 92.1597 8.92467C92.276 8.98045 92.3923 9.03623 92.5087 9.09201C92.6948 9.09201 92.9041 9.09201 93.0902 9.09201C93.2531 9.09201 93.3927 9.14779 93.5323 9.3709C93.7184 9.59402 93.9045 9.6498 94.0906 9.59402C94.3232 9.53824 94.5326 9.31512 94.7885 9.42668C94.8583 9.48246 94.9281 9.3709 94.9979 9.25934C95.184 9.03623 95.3701 9.03623 95.5562 9.25934C95.6492 9.3709 95.7656 9.48246 95.8819 9.59402C95.9982 9.70558 96.0913 9.6498 96.2076 9.42668C96.3239 9.14779 96.3006 8.86889 96.1843 8.75733C95.719 8.3111 95.2305 7.97642 94.6954 8.08798C94.6256 8.08798 94.5326 8.08798 94.4628 8.08798C94.1836 8.08798 93.9277 7.97642 93.6718 7.69753C93.5788 7.58597 93.4392 7.53019 93.3229 7.53019C93.16 7.47441 93.0205 7.47441 92.8576 7.53019C92.0434 7.69753 91.2059 7.53019 90.3917 7.53019C90.2754 7.53019 90.159 7.41863 90.0427 7.30707C89.9031 7.19551 89.7403 7.08396 89.624 6.86084C89.3913 6.47039 89.1122 6.41461 88.8563 6.19149C88.7865 6.13571 88.6934 6.07993 88.6236 6.19149C88.4375 6.41461 88.2514 6.52616 88.0653 6.52616C87.7164 6.52616 87.3674 6.52616 87.0184 6.80506C86.9487 6.86084 86.8556 6.80506 86.7858 6.74928C86.6695 6.6935 86.5532 6.52616 86.4601 6.52616C86.2275 6.47039 86.0181 6.13571 85.832 5.80103C85.7157 5.52214 85.5528 5.46636 85.39 5.46636C85.041 5.46636 84.6921 5.46636 84.3431 5.46636C84.0407 5.46636 83.715 5.52214 83.4359 5.85681C83.3661 5.91259 83.273 5.91259 83.2032 5.91259C83.0869 5.91259 82.9473 5.91259 82.8543 5.80103C82.5751 5.46636 82.2494 5.46636 81.9702 5.13168C81.8307 4.96435 81.6678 4.90857 81.505 4.90857C81.2723 4.90857 81.0397 4.90857 80.8071 4.90857C80.5279 4.90857 80.272 4.74123 80.0161 4.51811C79.8998 4.40656 79.7602 4.51811 79.6904 4.74123C79.5974 5.02013 79.481 5.29902 79.3647 5.52214C79.2484 5.68948 79.2717 5.91259 79.388 6.19149C79.481 6.41461 79.5276 6.41461 79.7137 6.30305C79.83 6.19149 79.9463 6.19149 80.0626 6.30305C80.2487 6.47039 80.4116 6.63772 80.5977 6.86084C80.6675 6.91662 80.7605 6.91662 80.8303 6.80506C81.0862 6.52616 81.3654 6.47039 81.6445 6.47039C82.1098 6.52616 82.5751 6.47039 83.0404 6.86084C83.1102 6.80506 83.2032 6.80506 83.2497 6.74928C83.3661 6.63772 83.4824 6.63772 83.5754 6.74928C83.6452 6.86084 83.715 6.9724 83.7615 7.08396C83.9476 7.47441 84.157 7.69753 84.4129 7.64175C84.9945 7.53019 85.5761 7.75331 86.1577 7.58597C86.2275 7.58597 86.3205 7.64175 86.3903 7.64175C86.5532 7.69753 86.6462 7.97642 86.6928 8.42266C86.716 8.81311 86.5764 9.20357 86.4369 9.09201C86.181 8.86889 85.9018 8.81311 85.6226 8.81311C85.041 8.86889 84.4594 8.86889 83.8779 8.47844C83.8081 8.42266 83.7383 8.47844 83.6452 8.53421C83.5754 8.58999 83.5056 8.64577 83.4126 8.64577C82.831 8.70155 82.2494 8.70155 81.6445 8.70155C81.5748 8.70155 81.4817 8.64577 81.4119 8.58999C81.2258 8.36688 81.0397 8.3111 80.8536 8.3111C80.3883 8.3111 79.923 8.3111 79.4345 8.3111C79.2019 8.3111 78.9692 8.25532 78.7366 8.0322C78.4342 7.75331 78.1317 7.64175 77.8061 7.69753C77.5734 7.69753 77.3408 7.69753 77.1081 7.69753C76.8988 7.69753 76.7127 7.58597 76.5498 7.36285C76.4102 7.19551 76.2474 7.19551 76.0845 7.30707C75.945 7.41863 75.8054 7.58597 75.6658 7.75331C75.596 7.86486 75.5495 8.0322 75.5728 8.14376C75.596 8.19954 75.6425 8.25532 75.6658 8.25532C76.0845 8.3111 76.5266 8.3111 76.9453 8.36688C77.1081 8.36688 77.2477 8.42266 77.4106 8.53421C77.6432 8.70155 77.8758 8.75733 78.1085 8.75733C78.5738 8.75733 79.039 8.75733 79.5043 8.81311C79.6671 8.81311 79.83 8.86889 79.9696 8.98045C80.2255 9.20357 80.5046 9.25934 80.7838 9.25934C81.4119 9.20357 82.04 9.3709 82.6682 9.3709C82.831 9.3709 82.9706 9.42668 83.1334 9.53824C83.4359 9.76136 83.7383 9.87292 84.064 9.87292C84.5292 9.81714 84.9945 9.87292 85.4598 10.2076C85.5994 10.3191 85.7622 10.2634 85.9251 10.3191C86.4834 10.3749 87.0184 10.4307 87.5768 10.4865C87.7396 10.4865 87.8792 10.5423 88.042 10.6538C88.3445 10.8769 88.6469 10.9327 88.9726 10.9327C89.5309 10.9327 90.066 10.9885 90.6243 10.9885C90.8104 10.9885 91.0198 11.1001 91.2059 11.2674C91.3455 11.4347 91.5083 11.4347 91.6712 11.4347C92.0201 11.4347 92.3691 11.4905 92.718 11.4905C92.8809 11.4905 93.0437 11.4905 93.1833 11.6579C93.4857 11.9367 93.7882 11.9925 94.1138 11.9925C94.5326 11.9925 94.9746 11.9925 95.3933 12.0483C95.5097 12.0483 95.626 12.0483 95.7423 12.1599C96.0447 12.4388 96.3472 12.4945 96.6728 12.4945C97.4871 12.5503 98.3246 12.5503 99.1388 12.4388C99.2086 12.4388 99.3016 12.383 99.3714 12.383C99.418 12.383 99.4412 12.3272 99.4645 12.2714C99.511 12.1599 99.4645 12.0483 99.3482 11.9925C98.9992 11.8252 98.6503 11.9367 98.3246 11.5463C98.185 11.379 98.0221 11.4347 97.8593 11.4347C97.5103 11.4347 97.1614 11.4347 96.8124 11.4347C96.6263 11.4347 96.4169 11.379 96.2308 11.2116C95.9284 10.8769 95.626 10.8212 95.3236 10.8212C94.9746 10.8212 94.6256 10.8212 94.2767 10.8212C93.9975 10.8212 93.7416 10.7096 93.4625 10.4865C93.3229 10.3749 93.16 10.3191 92.9972 10.3191C92.7646 10.3191 92.5319 10.3191 92.2993 10.3191C91.9503 10.3749 91.6014 10.3191 91.2524 10.2634C91.1361 10.2634 91.0431 10.0403 90.9965 9.76136H90.95ZM53.1931 91.3663C52.565 91.4221 52.0998 91.4221 51.6345 91.4221C51.588 91.4221 51.5647 91.4221 51.5182 91.4221C51.4484 91.4779 51.3553 91.4779 51.2855 91.5894C51.0762 91.8683 50.8435 91.8683 50.6109 91.9241C50.5411 91.9241 50.4713 92.0356 50.4015 92.0914C50.3085 92.1472 50.1689 92.6492 50.2154 92.7608C50.2619 92.9281 50.355 92.9281 50.4248 92.9839C50.6109 93.0397 50.8203 93.0397 51.0064 92.8166C51.0529 92.7608 51.0762 92.705 51.0994 92.705C51.2855 92.5377 51.3553 92.6492 51.3553 93.1512C51.3553 93.3744 51.3786 93.4859 51.4949 93.5417C51.7275 93.6532 51.9602 93.4859 52.1928 93.4859C52.472 93.4859 52.7279 93.5417 53.007 93.5417C53.0768 93.5417 53.1466 93.4301 53.2164 93.3186C53.3327 93.207 53.3793 92.9281 53.4723 92.7608C53.5654 92.5377 53.6817 92.4819 53.798 92.5377C53.8678 92.5377 53.9608 92.5934 54.0306 92.6492C54.4959 93.0955 54.9379 93.0955 55.3799 92.5377C55.473 92.4261 55.6126 92.4261 55.7289 92.3703C55.8219 92.3145 55.8685 92.203 55.8219 92.0914C55.7987 92.0356 55.7521 91.9799 55.7289 91.9799C55.4497 91.9241 55.1938 91.8683 54.9379 91.5894C54.7983 91.4221 54.6355 91.3663 54.4726 91.4221C53.9608 91.3663 53.4956 91.4221 53.1931 91.3663ZM94.9979 33.3002C94.8816 33.356 94.742 33.356 94.5791 33.4675C94.5326 33.4675 94.5093 33.5791 94.4861 33.5791C94.393 33.6906 94.3698 33.8022 94.3698 34.0253C94.393 34.1926 94.4395 34.4158 94.5093 34.4158C94.8118 34.5273 95.1142 34.8062 95.3933 35.1967C95.4166 35.2524 95.4631 35.3082 95.4864 35.3082C95.6725 35.4756 95.8586 35.5871 96.068 35.364C96.3239 35.1409 96.5798 34.9178 96.859 34.9178C97.2544 34.9178 97.6499 34.9735 98.0221 35.2524C98.5107 35.6429 99.0225 35.6429 99.5343 35.4198C99.6506 35.364 99.7436 35.1967 99.8134 34.9735C99.86 34.8062 99.8832 34.6389 99.8367 34.4715C99.7902 34.3042 99.7436 34.1926 99.6506 34.1369C99.6041 34.1369 99.5808 34.0811 99.5343 34.0811C99.069 34.4158 98.6037 34.4158 98.1617 34.0253C97.9756 33.858 97.7662 33.9137 97.5801 33.7464C97.3475 33.5233 97.1381 33.5791 96.9055 33.8022C96.7194 33.9695 96.51 33.9695 96.3239 33.858C96.161 33.7464 96.0215 33.6348 95.8819 33.5233C95.6027 33.356 95.3236 33.3002 94.9979 33.3002ZM84.7386 14.0564C84.9713 13.7775 85.1574 13.3312 85.4133 13.0523C85.4365 12.9966 85.483 12.9408 85.483 12.8292C85.5063 12.7734 85.5063 12.6619 85.483 12.5503C85.4365 12.2714 85.3202 12.1599 85.2039 12.1599C85.0178 12.1599 84.8317 12.383 84.6688 12.5503C84.4594 12.8292 84.3897 13.3312 84.6223 13.8332C84.6688 14.0006 84.6921 14.0006 84.7386 14.0564ZM98.627 18.0725C98.627 17.8493 98.5805 17.7378 98.4874 17.682C98.1385 17.5147 97.8128 17.6262 97.4638 17.5704C97.2079 17.5147 96.9287 17.5704 96.6728 17.6262C96.5798 17.6262 96.5333 17.7936 96.5565 17.8493C96.5798 17.9051 96.6263 17.9609 96.6496 17.9609C96.952 18.0167 97.2544 18.0725 97.5569 18.0167C97.836 17.9609 98.0919 18.1282 98.3478 18.3514C98.3711 18.4071 98.4176 18.3514 98.4641 18.3514C98.5572 18.4071 98.6037 18.2398 98.627 18.0725ZM85.9949 16.0086C86.1344 16.0086 86.3205 16.0086 86.5067 16.0086C86.5299 16.0086 86.5997 15.9528 86.5997 15.8971C86.623 15.7297 86.5764 15.5624 86.5067 15.5066C86.3438 15.2835 86.1577 15.1162 85.9716 15.2835C85.7622 15.5066 85.5063 15.3951 85.3202 15.674C85.2969 15.7297 85.2969 15.7855 85.2737 15.8413C85.2969 15.8971 85.3435 15.9528 85.3667 15.9528C85.5528 15.9528 85.7622 15.9528 85.9949 16.0086ZM11.9235 88.7447C11.9235 88.6331 11.9002 88.5773 11.9002 88.4658C11.8537 88.2427 11.8072 87.9638 11.7374 87.7407C11.6909 87.5733 11.5978 87.5175 11.528 87.6291C11.4582 87.6849 11.4117 87.8522 11.3884 88.0196C11.3652 88.2984 11.3652 88.5773 11.435 88.8005C11.528 89.0794 11.6676 89.1351 11.8537 88.912C11.877 88.8562 11.9002 88.8005 11.9235 88.7447ZM100.674 14.7257C100.604 14.7257 100.511 14.7257 100.442 14.7815C100.395 14.7815 100.372 14.8373 100.349 14.893C100.325 14.9488 100.302 15.0046 100.302 15.0604C100.325 15.1162 100.372 15.2277 100.395 15.2277C100.651 15.2835 100.907 15.4508 101.186 15.5066C101.209 15.5066 101.256 15.3951 101.256 15.3393C101.256 15.2835 101.256 15.1162 101.233 15.0604C101.07 14.6699 100.86 14.7815 100.674 14.7257ZM11.0162 25.4911C10.9464 25.4911 10.8534 25.6026 10.8301 25.77C10.8301 25.8258 10.8534 25.9373 10.8766 26.0489C10.9697 26.3836 11.1093 26.5509 11.2721 26.5509C11.3652 26.5509 11.435 26.4951 11.4815 26.3836C11.528 26.272 11.5047 26.1047 11.435 25.9373C11.3186 25.6026 11.1791 25.4911 11.0162 25.4911ZM111.771 65.8194C111.631 65.8194 111.469 65.8752 111.329 65.8752C111.306 65.8752 111.259 65.931 111.236 65.9868C111.213 66.0425 111.259 66.2099 111.352 66.2099C111.608 66.2657 111.864 66.2657 112.143 66.2657C112.166 66.2657 112.213 66.2099 112.236 66.1541C112.259 66.0983 112.283 66.0425 112.306 65.9868C112.283 65.931 112.259 65.8752 112.213 65.8194C112.073 65.7637 111.911 65.7637 111.771 65.8194ZM18.1814 2.73318C18.2279 2.73318 18.321 2.73318 18.3908 2.6774C18.5071 2.6774 18.5304 2.56584 18.5071 2.34273C18.4838 2.17539 18.414 2.06383 18.3443 2.00805C18.2279 1.95227 18.1349 2.11961 18.0186 2.23117C17.9488 2.28695 17.879 2.3985 17.8557 2.56584C17.9022 2.6774 17.972 2.73318 18.0651 2.73318C18.0651 2.78896 18.1116 2.78896 18.1814 2.73318ZM26.2539 4.40656C26.4167 4.35078 26.4865 4.35078 26.5796 4.35078C26.6261 4.35078 26.6726 4.295 26.6726 4.23922C26.6959 4.12766 26.6261 4.0161 26.533 4.0161C26.3237 4.0161 26.091 3.84876 25.8817 4.07188C25.8584 4.07188 25.8351 4.18344 25.8351 4.23922C25.8584 4.295 25.8817 4.40656 25.9282 4.40656C26.0678 4.40656 26.2074 4.40656 26.2539 4.40656ZM98.627 14.7257C98.5572 14.6699 98.4874 14.5584 98.4176 14.5026C98.3944 14.4468 98.3478 14.4468 98.3246 14.4468C98.2548 14.4468 98.185 14.5584 98.1385 14.7257C98.0919 14.9488 98.1152 15.0604 98.2082 15.1162C98.3478 15.1162 98.5107 15.1162 98.6503 15.1162C98.6968 15.1162 98.7433 15.0604 98.7433 15.0604C98.7666 14.893 98.72 14.7815 98.627 14.7257ZM93.6951 17.1242C93.509 17.1242 93.4392 17.1242 93.3694 17.1242C93.3462 17.1242 93.2996 17.18 93.2764 17.2358C93.2531 17.3473 93.2996 17.4031 93.3927 17.4589C93.5788 17.4589 93.7649 17.4589 93.951 17.4589C93.9743 17.4589 94.0208 17.4031 94.0441 17.3473C94.0673 17.2915 94.0208 17.18 93.9045 17.1242C93.8114 17.1242 93.6951 17.1242 93.6951 17.1242ZM119.494 49.3088C119.401 49.3088 119.471 49.3088 119.541 49.3088C119.634 49.3088 119.704 49.253 119.727 49.0857C119.75 48.9741 119.681 48.8068 119.588 48.8068C119.401 48.8068 119.215 48.8068 119.029 48.8626C118.936 48.8626 118.866 49.0299 118.89 49.0857C118.936 49.253 119.006 49.253 119.099 49.253C119.169 49.253 119.262 49.253 119.494 49.3088ZM45.33 92.203C45.2603 92.2588 45.2137 92.4261 45.2137 92.5934C45.2137 92.7608 45.2603 92.9281 45.3533 92.9839C45.4231 93.0397 45.4929 93.0397 45.5859 92.9839C45.679 92.9839 45.7255 92.8723 45.7023 92.6492C45.7023 92.5934 45.679 92.4819 45.6557 92.4261C45.5627 92.203 45.4696 92.1472 45.33 92.203ZM86.274 33.4117C86.3438 33.4117 86.4136 33.4117 86.4834 33.3559C86.5764 33.3002 86.623 33.2444 86.5997 33.0771C86.5764 33.0213 86.5532 32.9097 86.5299 32.9097C86.4369 32.7982 86.3438 32.6866 86.2275 32.575C86.1577 32.5193 86.0879 32.575 86.0181 32.6866C85.9716 32.7982 85.9251 32.9655 85.9483 33.1328C86.0181 33.1886 86.0879 33.2444 86.1577 33.3002C86.2042 33.4117 86.2507 33.4117 86.274 33.4117ZM118.006 49.253C118.075 49.253 118.168 49.253 118.238 49.1972C118.285 49.1972 118.308 49.1415 118.331 49.0857C118.308 48.9741 118.238 48.9183 118.168 48.9183C118.099 48.9183 118.006 48.9183 117.936 48.9183C117.866 48.9183 117.773 48.9183 117.726 49.0299C117.68 49.1415 117.819 49.253 118.006 49.253ZM1.98993 85.2306C2.12951 85.2306 2.29236 85.0633 2.24583 84.9517C2.1993 84.7844 2.12951 84.7286 2.05972 84.7286C1.98993 84.7286 1.92014 84.7286 1.85035 84.7286C1.78056 84.7286 1.6875 84.7286 1.64098 84.8959C1.61771 84.9517 1.6875 85.119 1.78056 85.119C1.82709 85.2306 1.89688 85.2306 1.98993 85.2306ZM9.89956 87.406C10.0159 87.406 10.1322 87.406 10.2253 87.1829C10.1322 86.9597 10.0159 86.9597 9.89956 86.904C9.85303 86.904 9.82977 86.904 9.78324 86.904C9.69019 86.904 9.6204 86.9597 9.57387 87.1271C9.6204 87.2944 9.69019 87.3502 9.75998 87.3502C9.82977 87.3502 9.85303 87.3502 9.89956 87.406ZM48.7731 91.9241C48.8196 92.1472 48.8661 92.3703 48.9126 92.5934C48.9359 92.6492 48.9824 92.705 49.0057 92.705C49.029 92.705 49.0755 92.5934 49.0755 92.5377C49.122 92.203 49.0988 91.8125 48.9824 91.5894C48.9126 91.4779 48.8429 91.5336 48.7731 91.6452C48.7731 91.701 48.7963 91.8125 48.7731 91.9241ZM69.8034 7.19551C69.8034 7.19551 69.8732 7.19551 69.943 7.19551C69.9895 7.19551 70.0127 7.19551 70.036 7.13974C70.0593 7.08396 70.1058 7.02818 70.1291 7.02818C70.1058 6.9724 70.0825 6.86084 70.036 6.86084C69.9197 6.80506 69.8266 6.80506 69.7103 6.80506C69.5475 6.80506 69.4312 6.9724 69.5009 7.08396C69.594 7.13974 69.6405 7.19551 69.8034 7.19551ZM96.9985 14.1679C96.8357 14.2237 96.7194 14.2237 96.6031 14.2795C96.5798 14.2795 96.5333 14.3353 96.51 14.391C96.5333 14.4468 96.5565 14.5026 96.5565 14.5026C96.6728 14.5584 96.7659 14.6141 96.8822 14.6141C96.9985 14.6699 97.1614 14.4468 97.1149 14.3353C97.0916 14.2237 97.0218 14.1679 96.9985 14.1679ZM4.03713 50.5359C4.01387 50.4802 3.96734 50.4244 3.94407 50.4244C3.82776 50.3686 3.71144 50.3686 3.64165 50.5917C3.64165 50.5917 3.68817 50.7591 3.71144 50.7591C3.82776 50.8706 3.92081 50.8706 4.03713 50.7033C4.03713 50.7033 4.03713 50.5917 4.03713 50.5359ZM96.0913 14.1121C96.068 14.0564 96.068 13.9448 96.0447 13.889C95.9749 13.6659 95.7656 13.7217 95.7656 13.889C95.7656 14.0564 95.8121 14.2237 95.8586 14.3353C95.9284 14.4468 95.9982 14.5026 96.0447 14.3353C96.068 14.2795 96.068 14.2237 96.0913 14.1121ZM23.9043 4.12766C23.881 4.07188 23.8577 3.96032 23.8345 3.96032C23.7181 3.90454 23.6251 3.90454 23.532 4.07188C23.5088 4.12766 23.4855 4.18344 23.4855 4.23922C23.5088 4.40656 23.6484 4.51811 23.7647 4.40656C23.8577 4.35078 23.9043 4.295 23.9043 4.12766ZM38.002 1.72915C37.9555 1.56182 37.8857 1.50604 37.8159 1.56182C37.7926 1.56182 37.7694 1.67338 37.7461 1.72915C37.7694 1.78493 37.7926 1.84071 37.8159 1.89649C37.8857 1.95227 37.9555 1.89649 38.002 1.72915ZM53.8445 2.51006C53.8213 2.51006 53.798 2.56584 53.7515 2.62162C53.7747 2.6774 53.7747 2.73318 53.798 2.78896C53.8911 2.84474 53.9376 2.73318 53.9143 2.62162C53.9376 2.56584 53.8678 2.51006 53.8445 2.51006ZM92.718 16.8453C92.6948 16.7895 92.6948 16.678 92.6715 16.678C92.6482 16.678 92.6017 16.678 92.5784 16.678C92.5087 16.7895 92.5319 16.9011 92.6482 16.9011C92.6482 16.9011 92.6948 16.8453 92.718 16.8453ZM19.2515 26.3278C19.2515 26.272 19.2515 26.1604 19.2283 26.1604C19.205 26.1047 19.1585 26.1047 19.112 26.1047C19.0189 26.2162 19.0189 26.3278 19.1352 26.3836C19.1817 26.3836 19.2283 26.3278 19.2515 26.3278ZM90.6708 33.6906C90.6476 33.6348 90.6243 33.5791 90.601 33.5233C90.5312 33.4675 90.4615 33.5233 90.4149 33.6906C90.4149 33.6906 90.4615 33.8022 90.4847 33.858C90.5545 33.9137 90.6243 33.858 90.6708 33.6906ZM3.29269 51.9304C3.31596 51.8746 3.36248 51.8746 3.38575 51.8189C3.36248 51.7631 3.33922 51.7073 3.29269 51.6515C3.19964 51.5957 3.15311 51.7073 3.17638 51.8189C3.19964 51.8746 3.24617 51.8746 3.29269 51.9304ZM80.4581 91.8125C80.4348 91.7568 80.4116 91.701 80.3883 91.6452C80.3185 91.5894 80.2487 91.6452 80.2255 91.8125C80.2255 91.8125 80.272 91.9241 80.2953 91.9799C80.3651 92.0357 80.4116 91.9799 80.4581 91.8125ZM97.6499 14.3353L97.6034 14.4468H97.6732L97.6499 14.3353Z" fill="#00659E"/>
<g clip-path="url(#clip0)">
<path d="M80.6 60.1997H64.36L79.5519 45.0116C80.2781 44.2831 80.2781 43.1044 79.5519 42.3759L68.9875 31.8021C68.253 31.0862 67.0807 31.0899 66.3508 31.8105L51.6667 46.4947V36.6144C51.6637 36.0167 51.5191 35.4281 51.2448 34.8971L44.8048 22.4837C44.3151 21.5691 43.3609 20.9991 42.3234 21.0015C41.286 21.0038 40.3344 21.5781 39.8488 22.4949L33.42 34.9064C33.1473 35.4347 33.0034 36.0199 33 36.6144V68.5997C33.0057 73.2366 36.7632 76.9941 41.4 76.9997H80.6C85.2392 76.9997 89 73.2389 89 68.5997C89 63.9605 85.2392 60.1997 80.6 60.1997ZM67.6752 33.1331L78.2321 43.6919L61.7243 60.1997H41.4C41.1195 60.1999 40.8391 60.2143 40.56 60.2427L43.2527 57.5509L43.7707 58.068C44.1356 58.4322 44.7267 58.4315 45.0909 58.0666C45.455 57.7017 45.4544 57.1106 45.0895 56.7464L44.5715 56.2293L45.8912 54.9087L47.2128 56.2303C47.4487 56.466 47.7925 56.558 48.1146 56.4716C48.4367 56.3851 48.6883 56.1334 48.7745 55.8112C48.8607 55.489 48.7684 55.1453 48.5325 54.9096L47.2119 53.5889L48.5316 52.2692L51.172 54.9096C51.5382 55.2633 52.1203 55.2583 52.4804 54.8982C52.8404 54.5382 52.8454 53.9561 52.4917 53.5899L49.8513 50.9495L51.172 49.6297L52.4927 50.9504C52.8598 51.2956 53.4346 51.2871 53.7913 50.9312C54.148 50.5752 54.1578 50.0004 53.8133 49.6325L52.4927 48.3119L53.8133 46.9921L56.4537 49.6325C56.82 49.9862 57.4021 49.9812 57.7621 49.6212C58.1221 49.2611 58.1272 48.679 57.7735 48.3128L55.134 45.6724L56.4537 44.3527L57.7744 45.6724C58.0087 45.915 58.3558 46.0123 58.6821 45.9269C59.0084 45.8415 59.2632 45.5867 59.3487 45.2603C59.4341 44.934 59.3368 44.587 59.0941 44.3527L57.7735 43.0329L59.0941 41.7123L61.7336 44.3527C61.9695 44.5884 62.3133 44.6804 62.6354 44.594C62.9575 44.5075 63.2091 44.2558 63.2953 43.9336C63.3815 43.6114 63.2892 43.2677 63.0533 43.032L60.412 40.3925L61.7317 39.0728L63.0533 40.3925C63.4196 40.7462 64.0017 40.7412 64.3617 40.3812C64.7217 40.0211 64.7268 39.439 64.3731 39.0728L63.0533 37.7531L64.3731 36.4333L67.0125 39.0728C67.3788 39.4265 67.9609 39.4214 68.3209 39.0614C68.6809 38.7014 68.686 38.1193 68.3323 37.7531L65.6928 35.1136L67.6752 33.1331ZM38.5309 38.4157L35.1177 35.682L38.4936 29.1701C40.8184 30.7214 43.8483 30.7214 46.1731 29.1701L49.5489 35.6829L46.1357 38.4157L43.6531 35.9331C42.9241 35.2044 41.7425 35.2044 41.0136 35.9331L38.5309 38.4157ZM47 51.1613V40.0687C47.107 40.0135 47.2083 39.9479 47.3024 39.8727L49.8 37.8725V48.3613L47 51.1613ZM41.5045 23.3629C41.6671 23.059 41.9829 22.8685 42.3275 22.8663C42.6721 22.8642 42.9902 23.0508 43.1565 23.3527L45.2976 27.4808C43.5403 28.7962 41.1264 28.7962 39.3691 27.4808L41.5045 23.3629ZM34.8667 37.8725L37.3643 39.8727C37.4595 39.9379 37.5608 39.9938 37.6667 40.0397V50.8664C37.6667 51.3819 38.0845 51.7997 38.6 51.7997C39.1155 51.7997 39.5333 51.3819 39.5333 50.8664V39.9875C39.6479 39.9151 39.7543 39.8306 39.8507 39.7355L42.3333 37.2528L44.816 39.7355C44.9122 39.8303 45.0187 39.9142 45.1333 39.9856V53.028L39.5333 58.628V54.5997C39.5333 54.0843 39.1155 53.6664 38.6 53.6664C38.0845 53.6664 37.6667 54.0843 37.6667 54.5997V60.4947L35.9867 62.1747L35.9624 62.1999C35.9578 62.2064 35.9538 62.2132 35.9503 62.2204C35.5557 62.5569 35.193 62.929 34.8667 63.332V37.8725ZM80.6 75.1331H41.4C37.7917 75.1331 34.8667 72.208 34.8667 68.5997C34.8667 64.9915 37.7917 62.0664 41.4 62.0664H80.6C84.2083 62.0664 87.1333 64.9915 87.1333 68.5997C87.1333 72.208 84.2083 75.1331 80.6 75.1331Z" fill="white"/>
<path d="M41.3996 63.9333C38.8222 63.9333 36.7329 66.0227 36.7329 68.6C36.7329 71.1773 38.8222 73.2667 41.3996 73.2667C43.9769 73.2667 46.0662 71.1773 46.0662 68.6C46.0632 66.024 43.9756 63.9364 41.3996 63.9333ZM41.3996 71.4C39.8532 71.4 38.5996 70.1464 38.5996 68.6C38.5996 67.0536 39.8532 65.8 41.3996 65.8C42.946 65.8 44.1996 67.0536 44.1996 68.6C44.1996 70.1464 42.946 71.4 41.3996 71.4Z" fill="white"/>
<path d="M80.6 63.9333C78.0227 63.9333 75.9333 66.0227 75.9333 68.6C75.9333 71.1773 78.0227 73.2667 80.6 73.2667C83.1773 73.2667 85.2667 71.1773 85.2667 68.6C85.2636 66.024 83.1761 63.9364 80.6 63.9333ZM80.6 71.4C79.0536 71.4 77.8 70.1464 77.8 68.6C77.8 67.0536 79.0536 65.8 80.6 65.8C82.1464 65.8 83.4 67.0536 83.4 68.6C83.4 70.1464 82.1464 71.4 80.6 71.4Z" fill="white"/>
</g>
<defs>
<clipPath id="clip0">
<rect width="56" height="56" fill="white" transform="translate(33 21)"/>
</clipPath>
</defs>
</svg>
