<svg width="123" height="93" viewBox="0 0 123 93" fill="none" xmlns="http://www.w3.org/2000/svg">
<path d="M4.85389 67.3904C4.62869 67.3904 4.40349 67.3535 4.19876 67.3535C4.0964 67.3535 3.97356 67.3165 3.8712 67.2425C3.58458 67.0207 3.29796 66.9837 3.01134 66.9837C2.74519 66.9837 2.49952 66.9837 2.23338 66.9837C2.09007 66.9837 1.92628 66.9837 1.80345 66.9098C1.49636 66.7249 1.16879 66.651 0.841229 66.577C0.779811 66.577 0.69792 66.4661 0.656974 66.3552C0.595556 66.2073 0.513665 66.0225 0.493192 65.8376C0.349883 65.0242 0.186101 64.2108 0.0223188 63.3975C-0.0186267 63.2126 0.00184603 62.9908 0.0427915 62.8059C0.165628 62.3992 0.206574 61.9556 0.267992 61.4749C0.32941 60.9573 0.431774 60.4767 0.493192 59.9221C0.534138 59.6263 0.534138 59.4045 0.431774 59.1827C0.390828 59.0718 0.349883 58.9608 0.308937 58.8499C0.186101 58.4063 0.186101 57.9626 0.267992 57.5189C0.32941 57.2601 0.452247 57.1123 0.595556 57.0383C0.738865 56.9644 0.882174 56.9644 1.02548 56.9274C1.12785 56.8904 1.25068 56.8534 1.35305 56.8165C1.43494 56.7795 1.47588 56.6686 1.45541 56.5207C1.45541 56.4837 1.41447 56.4098 1.39399 56.3728C1.37352 56.3358 1.33257 56.2619 1.3121 56.2619C0.943593 56.188 0.595556 55.9291 0.288465 55.5964C0.247519 55.5594 0.227046 55.5225 0.206574 55.4855C0.124683 55.3746 0.10421 55.1158 0.206574 55.0049C0.513665 54.6721 0.493192 54.3024 0.370356 53.8218C0.308937 53.5999 0.247519 53.3411 0.247519 53.0823C0.247519 52.7496 0.227046 52.4168 0.247519 52.0841C0.288465 51.7513 0.370356 51.4556 0.575083 51.3816C0.616029 51.3816 0.656974 51.3446 0.677447 51.3077C0.718392 51.2707 0.759338 51.1968 0.759338 51.1968C0.718392 51.0858 0.656974 51.0489 0.575083 51.0119C0.472719 50.9749 0.349883 50.9749 0.247519 50.938C0.165628 50.901 0.0632643 50.6052 0.083737 50.4573C0.124683 50.1246 0.227046 49.8288 0.165628 49.4961C0.124683 49.2003 0.145155 49.1263 0.247519 49.0154C0.411301 48.8675 0.575083 48.6827 0.718392 48.5348C0.820756 48.4239 0.841229 48.1281 0.759338 48.0172C0.69792 47.9432 0.656974 47.8323 0.595556 47.7584C0.513665 47.6105 0.431774 47.4996 0.349883 47.3517C0.267992 47.2038 0.267992 46.945 0.32941 46.7971C0.390828 46.7232 0.431774 46.6122 0.493192 46.5383C0.636501 46.3534 0.779811 46.1316 0.882174 45.8358C0.984538 45.5031 1.14832 45.4291 1.35305 45.3922C1.49636 45.3552 1.63967 45.3552 1.78298 45.2813C1.86487 45.2443 1.90581 45.1334 1.90581 44.9855C1.90581 44.8746 1.84439 44.7267 1.7625 44.7267C1.39399 44.6527 1.02548 44.6527 0.656974 44.5788C0.595556 44.5788 0.513665 44.4679 0.452247 44.4309C0.308937 44.283 0.267992 43.9872 0.370356 43.8024C0.575083 43.4327 0.656974 43.063 0.493192 42.5453C0.431774 42.3605 0.452247 42.1756 0.55461 42.0277C0.575083 41.9908 0.616029 41.9168 0.636501 41.9168C0.779811 41.8429 0.92312 41.8059 1.06643 41.8429C1.61919 41.9168 2.17196 41.8059 2.72472 41.8059C2.76567 41.8059 2.80661 41.7689 2.82709 41.7689C2.86803 41.732 2.8885 41.695 2.90898 41.658C2.86803 41.6211 2.84756 41.5841 2.80661 41.5471C2.56094 41.4362 2.29479 41.5471 2.02865 41.4732C1.92628 41.4362 1.80345 41.4732 1.70108 41.3622C1.35305 41.0295 1.00501 41.0295 0.636501 40.9925C0.55461 40.9925 0.513665 40.8446 0.534138 40.7707C0.55461 40.7337 0.575083 40.6598 0.616029 40.6598C0.656974 40.6228 0.69792 40.6228 0.718392 40.6228C1.00501 40.6228 1.3121 40.6228 1.57825 40.364C1.94676 40.2531 2.27432 39.9203 2.62236 39.7355C2.64283 39.7355 2.6633 39.6246 2.70425 39.5876C2.68378 39.5506 2.64283 39.5137 2.62236 39.4767C2.51999 39.4027 2.41763 39.4027 2.29479 39.4027C1.92628 39.4027 1.55778 39.4027 1.18927 39.4027C1.00501 39.4027 0.841229 39.2179 0.69792 38.9961C0.616029 38.8482 0.616029 38.6263 0.677447 38.4784C0.718392 38.3675 0.779811 38.3306 0.861702 38.2566C0.984538 38.1457 0.984538 37.9608 0.902647 37.776C0.759338 37.3693 0.493192 37.2214 0.288465 36.9626C0.227046 36.8517 0.206574 36.7408 0.227046 36.5929C0.227046 36.5189 0.247519 36.482 0.267992 36.408C0.308937 36.2971 0.32941 36.1862 0.370356 36.0383C0.493192 35.5577 0.616029 35.5207 0.800283 35.6316C0.984538 35.7425 1.16879 35.7425 1.33257 35.5946C1.47588 35.4837 1.61919 35.4098 1.74203 35.2619C1.94676 35.0401 2.15148 35.0031 2.37669 35.0031C3.15465 35.0401 3.93261 35.0401 4.69011 35.0031C4.91531 35.0031 4.97672 34.8182 4.89483 34.5225C4.79247 34.1158 4.83342 33.746 4.91531 33.3763C4.95625 33.1915 4.91531 33.0066 4.83342 32.8587C4.71058 32.5999 4.56727 32.4151 4.46491 32.1193C4.40349 31.9344 4.40349 31.7126 4.46491 31.5647C4.5468 31.3429 4.66963 31.195 4.772 31.0101C4.97672 30.6774 5.05862 30.2337 5.07909 29.7531C5.07909 29.5682 5.07909 29.3464 5.07909 29.1615C5.07909 28.8288 5.03814 28.496 4.91531 28.2372C4.85389 28.0894 4.772 27.9045 4.71058 27.7566C4.64916 27.5718 4.62869 27.3869 4.62869 27.202C4.62869 26.7953 4.66963 26.4256 4.772 26.0559C4.83342 25.8341 4.91531 25.6122 4.97672 25.3534C5.01767 25.1686 5.01767 24.9837 4.97672 24.7619C4.93578 24.651 4.91531 24.5401 4.87436 24.3922C4.85389 24.2813 4.81294 24.1334 4.81294 24.0225C4.83342 23.5788 4.79247 23.0982 4.93578 22.6545C5.01767 22.3587 5.05862 22.026 5.03814 21.6932C4.9972 21.0277 5.03814 20.3622 5.12003 19.6967C5.16098 19.4379 5.16098 19.1791 5.12003 18.9203C5.05862 18.4767 4.97672 18.033 4.87436 17.5894C4.85389 17.4784 4.85389 17.3306 4.89483 17.2196C4.9972 16.776 5.05862 16.3323 5.05862 15.8517C5.05862 15.5189 5.14051 15.2232 5.24287 14.9274C5.34523 14.6686 5.40665 14.3358 5.42713 14.0031C5.4476 13.4115 5.48854 12.82 5.48854 12.2284C5.48854 11.7478 5.52949 11.3041 5.65233 10.8974C5.6728 10.8235 5.6728 10.7865 5.69327 10.7126C5.73422 10.2689 5.71374 9.78829 5.83658 9.34463C5.81611 9.19674 5.81611 9.08583 5.79563 8.93794C5.79563 8.79005 5.75469 8.64217 5.79563 8.53125C5.91847 8.01365 5.93894 7.49604 5.91847 6.97844C5.898 6.57174 5.93894 6.16505 6.04131 5.83231C6.10273 5.64745 6.1232 5.46259 6.1232 5.27773C6.14367 4.94498 6.14367 4.61224 6.18462 4.27949C6.20509 4.02069 6.30745 3.79886 6.43029 3.65097C6.69644 3.31822 6.94211 3.02245 7.2492 3.02245C7.37204 3.02245 7.45393 2.9485 7.55629 2.83759C7.6996 2.72667 7.84291 2.6897 7.98622 2.65273C8.25236 2.61576 8.49804 2.61576 8.76418 2.57879C8.90749 2.54181 9.07127 2.57879 9.19411 2.46787C9.60357 2.28301 9.99255 2.24604 10.402 2.24604C11.4666 2.24604 12.5312 2.20907 13.6162 2.20907C14.5784 2.20907 15.5407 2.20907 16.4824 2.20907C16.7895 2.20907 17.0761 2.1721 17.3423 1.98724C17.4856 1.91329 17.6494 1.91329 17.7927 1.98724C17.8541 2.02421 17.936 2.06118 17.9974 2.09815C18.1817 2.1721 18.3659 2.1721 18.5502 2.06118C18.6935 1.98724 18.8368 1.91329 18.9801 1.91329C19.9014 1.91329 20.8226 1.80238 21.7439 1.83935C22.399 1.87632 23.0746 1.80238 23.7298 1.80238C23.955 1.80238 24.1597 1.72843 24.3849 1.61752C24.4873 1.54357 24.6101 1.5066 24.7125 1.5066C25.4085 1.46963 26.1046 1.43266 26.8007 1.39569C26.944 1.39569 27.0873 1.32174 27.2306 1.2478C27.333 1.17386 27.4353 1.17386 27.5582 1.21083C27.7424 1.32174 27.9267 1.35872 28.0905 1.21083C28.3361 1.02597 28.6023 1.02597 28.848 0.988997C29.1346 0.952025 29.4417 0.988997 29.7283 0.988997C30.0149 0.988997 30.322 0.915053 30.6086 0.767166C30.8952 0.619278 31.2023 0.619278 31.4889 0.767166C31.837 0.952025 32.2055 0.988997 32.5535 1.2478C32.6559 1.32174 32.7787 1.28477 32.8811 1.21083C33.0449 1.06294 33.2291 0.988997 33.4134 0.988997C33.6795 0.952025 33.9252 0.952025 34.1709 0.767166C34.2732 0.693222 34.3756 0.693222 34.4984 0.65625C34.6622 0.619278 36.8733 0.65625 37.0371 0.693222C37.1394 0.730194 37.2623 0.767166 37.3646 0.841109C37.4465 0.878081 37.5079 0.878081 37.5898 0.841109C37.6512 0.804137 37.7331 0.767166 37.7945 0.730194C38.0197 0.65625 38.2245 0.65625 38.4497 0.804138C38.5316 0.841109 38.593 0.841109 38.6544 0.804138C39.0434 0.545335 39.4528 0.582307 39.8418 0.878081C39.9442 0.952025 40.0465 0.952025 40.1694 0.878081C40.2717 0.841109 40.3741 0.804138 40.4969 0.878081C40.6812 0.988997 40.8655 0.988997 41.0497 0.878081C41.3773 0.693222 41.7048 0.619278 42.0324 0.619278C42.5033 0.619278 42.9946 0.582306 43.4655 0.582306C43.6907 0.582306 43.8954 0.471391 44.1206 0.323504C44.2639 0.212588 44.4072 0.212588 44.5506 0.323504C44.612 0.360475 44.6939 0.397447 44.7553 0.434419C44.8576 0.471391 44.9805 0.508363 45.0828 0.397447C45.3695 0.138644 45.6561 0.138644 45.9427 0.24956C46.1679 0.323504 46.3726 0.471391 46.5978 0.323504C46.6592 0.286532 46.7411 0.323504 46.8026 0.360475C46.9868 0.471391 47.1506 0.434419 47.3348 0.397447C47.7648 0.24956 48.1947 0.138644 48.6451 0.212588C48.7884 0.24956 48.9317 0.286532 49.0955 0.24956C49.7916 0.101673 50.4877 0.212588 51.1837 0.175616C51.6546 0.286532 52.1459 0.24956 52.6168 0.212588C52.883 0.175616 53.1286 0.24956 53.3743 0.471391C53.4357 0.508363 53.5176 0.545335 53.579 0.471391C53.8247 0.286532 54.0704 0.212588 54.3365 0.212588C54.746 0.212588 55.1554 0.175616 55.5444 0.175616C56.0153 0.138644 56.5066 0.212588 56.9775 0.323504C57.0799 0.360475 57.1822 0.434419 57.3051 0.471391C57.4074 0.545335 57.5303 0.545335 57.6326 0.471391C57.8374 0.360475 58.0626 0.286532 58.2878 0.24956C58.8405 0.175616 59.3933 0.286532 59.9461 0.286532C60.0484 0.286532 60.1713 0.323504 60.2736 0.397447C60.5602 0.582306 60.8264 0.65625 61.1335 0.397447C61.3792 0.212588 61.6453 0.212588 61.891 0.360475C61.9524 0.397447 62.0343 0.471391 62.0957 0.508363C62.1571 0.545335 62.239 0.582306 62.3209 0.582306C62.4233 0.582306 62.5461 0.619278 62.6485 0.545335C62.8941 0.360475 63.1398 0.286532 63.406 0.286532C63.6721 0.323504 63.9178 0.24956 64.1839 0.212588C64.7776 0.175616 65.3713 0.138644 65.9446 0.24956C66.0879 0.286532 66.2312 0.323504 66.3745 0.397447C66.4564 0.434419 66.5178 0.434419 66.5792 0.360475C66.8659 0.138644 67.1525 0.212588 67.4391 0.0277289C67.521 -0.00924296 67.5824 -0.00924296 67.6643 0.0277289C68.1352 0.212588 68.606 0.24956 69.0974 0.175616C69.7525 0.0647007 70.4281 0.175616 71.0832 0.175616C71.2675 0.175616 71.4518 0.24956 71.6155 0.360475C71.7179 0.434419 71.8203 0.397447 71.9431 0.360475C72.0455 0.323504 72.1683 0.24956 72.2707 0.24956C72.8234 0.286532 73.3762 0.212588 73.929 0.212588C74.0723 0.212588 74.236 0.175616 74.3794 0.212588C74.666 0.286532 74.9731 0.212588 75.2597 0.24956C75.3416 0.24956 75.403 0.323504 75.4644 0.360475C75.5258 0.397447 75.6077 0.397447 75.6691 0.323504C75.8329 0.175616 76.0172 0.101673 76.2014 0.138644C77.7778 0.212588 79.3747 0.138644 80.9511 0.24956C81.2787 0.286532 81.6062 0.24956 81.9543 0.24956C82.1385 0.24956 82.3228 0.286532 82.507 0.397447C82.6094 0.471391 82.7322 0.397447 82.8346 0.360475C82.9165 0.360475 82.9779 0.323504 83.0598 0.360475C83.3464 0.545335 83.633 0.545335 83.9401 0.545335C84.6771 0.545335 85.4142 0.545335 86.1512 0.582306C86.3969 0.582306 86.663 0.582306 86.9087 0.804138C86.9701 0.878081 87.052 0.915053 87.1134 0.841109C87.3591 0.65625 87.6048 0.619278 87.8709 0.65625C88.137 0.693222 88.3827 0.65625 88.6489 0.65625C88.8331 0.65625 89.0174 0.693222 89.1812 0.804138C89.2426 0.841109 89.3245 0.878081 89.3859 0.915053C89.6111 0.988997 89.8363 0.988997 90.041 0.804138C90.1843 0.693222 90.3276 0.65625 90.4709 0.767166C90.6143 0.878081 90.7371 0.952025 90.9009 0.952025C91.3103 0.952025 91.7198 0.952025 92.1088 0.988997C92.3749 0.988997 92.6206 0.988997 92.8662 1.17386C92.9891 1.2478 93.071 1.09991 93.1324 0.952025C93.1733 0.841109 93.2552 0.804137 93.3167 0.841109C93.5009 0.952025 93.6852 0.988997 93.8694 0.988997C94.6064 0.988997 95.3435 1.02597 96.0805 1.02597C96.3671 1.02597 96.6742 1.06294 96.9608 1.2478C97.2065 1.39569 97.4726 1.32174 97.7183 1.39569C97.9025 1.43266 98.0868 1.46963 98.2711 1.5066C98.5781 1.83935 98.9057 1.80238 99.2333 1.80238C99.5404 1.80238 99.827 1.83935 100.093 2.09815C100.155 2.1721 100.236 2.1721 100.298 2.1721C100.38 2.1721 100.441 2.1721 100.523 2.1721C101.342 2.09815 102.14 2.20907 102.959 2.24604C103.225 2.24604 103.471 2.39393 103.676 2.6897C103.799 2.87456 103.942 2.83759 104.085 2.72667C104.229 2.61576 104.372 2.65273 104.515 2.76365C104.72 2.9485 104.925 3.02245 105.15 3.02245C105.334 3.02245 105.518 3.02245 105.703 3.02245C105.846 3.02245 105.989 3.09639 106.133 3.17034C106.235 3.24428 106.358 3.17034 106.46 3.17034C106.542 3.17034 106.603 3.13336 106.685 3.17034C106.972 3.35519 107.259 3.35519 107.566 3.35519C108.303 3.39217 109.04 3.39217 109.777 3.42914C109.838 3.42914 109.92 3.50308 109.981 3.54005C110.063 3.57703 110.104 3.68794 110.084 3.8728C110.063 3.98372 110.022 4.1316 109.941 4.1316C109.654 4.20555 109.367 4.27949 109.081 4.46435C109.019 4.50132 108.937 4.46435 108.855 4.42738C108.651 4.27949 108.426 4.20555 108.2 4.35343C107.996 4.50132 107.77 4.57527 107.545 4.61224C107.463 4.64921 107.402 4.68618 107.402 4.7971C107.402 4.7971 107.463 4.87104 107.504 4.87104C108.057 4.90801 108.61 4.94498 109.163 4.94498C109.531 4.94498 109.9 4.98196 110.268 4.98196C110.555 4.98196 110.862 5.01893 111.128 5.24076C111.189 5.27773 111.271 5.27773 111.353 5.24076C111.824 4.90801 112.295 5.01893 112.766 5.09287C112.827 5.09287 112.909 5.16681 112.97 5.20379C113.114 5.3147 113.257 5.35167 113.4 5.35167C113.626 5.38865 113.851 5.38865 114.056 5.42562C114.096 5.42562 114.137 5.46259 114.158 5.49956C114.178 5.61048 114.117 5.68442 114.056 5.75836C113.748 6.09111 113.441 6.16505 113.093 6.01717C112.95 5.94322 112.807 5.94322 112.663 6.01717C112.336 6.20203 112.008 6.16505 111.681 5.9802C111.599 5.94322 111.537 5.90625 111.476 5.94322C111.087 6.20203 110.678 6.05414 110.268 6.05414C110.166 6.05414 110.043 6.01717 109.941 5.94322C109.756 5.83231 109.592 5.86928 109.408 5.94322C108.835 6.239 108.241 6.27597 107.668 5.90625C107.402 5.72139 107.177 5.90625 106.972 6.20203C106.951 6.239 106.951 6.34991 106.972 6.34991C107.033 6.38689 107.115 6.42386 107.177 6.46083C107.402 6.4978 107.627 6.53477 107.832 6.4978C108.466 6.38689 109.081 6.4978 109.715 6.53477C109.818 6.53477 109.941 6.57174 110.043 6.64569C110.186 6.7566 110.33 6.71963 110.473 6.64569C110.575 6.60872 110.698 6.64569 110.8 6.71963C110.944 6.83055 111.087 6.83055 111.23 6.71963C111.517 6.53477 111.804 6.53477 112.09 6.71963C112.397 6.94146 112.725 6.97843 113.073 6.94146C113.339 6.90449 113.585 7.01541 113.81 7.23724C113.994 7.4221 114.158 7.34815 114.342 7.16329C114.383 7.12632 114.404 7.08935 114.445 7.08935C114.526 7.01541 114.649 7.05238 114.731 7.27421C114.854 7.56998 114.997 7.6809 115.202 7.6809C115.284 7.6809 115.345 7.6809 115.427 7.71787C115.509 7.75484 115.55 7.86576 115.55 7.97667C115.55 8.01365 115.509 8.08759 115.468 8.08759C115.243 8.12456 115.038 8.16153 114.813 8.23548C114.731 8.27245 114.69 8.34639 114.649 8.45731C114.588 8.6052 114.69 8.82703 114.813 8.90097C114.854 8.90097 114.895 8.93794 114.915 8.93794C115.018 8.90097 115.12 8.82703 115.222 8.75308C115.366 8.64217 115.509 8.6052 115.652 8.75308C115.714 8.82703 115.775 8.864 115.857 8.93794C115.919 9.01189 115.98 9.08583 115.98 9.23372C115.98 9.27069 115.919 9.30766 115.878 9.30766C115.775 9.34463 115.652 9.34463 115.55 9.34463C114.731 9.30766 113.933 9.3816 113.114 9.41858C112.95 9.41858 112.827 9.52949 112.725 9.71435C112.5 10.121 112.213 10.195 111.906 10.195C111.169 10.195 110.432 10.195 109.695 10.232C109.592 10.232 109.49 10.3429 109.408 10.5277C109.388 10.5647 109.367 10.6386 109.388 10.7126C109.388 10.7496 109.429 10.8235 109.449 10.8235C109.511 10.8605 109.592 10.8974 109.654 10.9344C110.084 11.0453 110.534 11.0084 110.985 11.0084C111.537 11.0084 112.09 11.0084 112.643 11.0084C112.868 11.0084 113.073 11.0453 113.298 11.1563C113.441 11.2302 113.585 11.2302 113.728 11.2672C114.178 11.3041 114.608 11.2672 115.038 11.0453C115.182 10.9714 115.325 11.0084 115.468 11.0823C115.55 11.1193 115.591 11.2302 115.591 11.3781C115.591 11.452 115.571 11.489 115.571 11.5629C115.55 11.6369 115.53 11.6739 115.509 11.7108C115.325 11.8957 115.141 12.1175 114.915 12.1915C114.813 12.2284 114.69 12.3024 114.608 12.3763C114.404 12.5982 114.199 12.6351 113.974 12.6351C113.871 12.6351 113.83 12.7091 113.871 12.82C113.892 12.857 113.912 12.9309 113.953 12.9309C114.158 13.1158 114.342 13.3006 114.588 13.2636C114.772 13.2636 114.956 13.3006 115.141 13.3376C115.202 13.3376 115.304 13.3746 115.345 13.4485C115.386 13.5225 115.366 13.7073 115.366 13.8182C115.366 13.9661 115.407 14.0401 115.489 14.077C115.591 14.114 115.714 14.151 115.816 14.2249C115.878 14.2619 115.939 14.3358 116 14.4467C116.103 14.5946 116.144 14.8165 116.103 14.9644C115.98 15.445 115.857 15.9256 115.734 16.4063C115.673 16.6651 115.571 16.8129 115.427 16.9608C115.325 17.0348 115.243 17.1457 115.161 17.2936C115.12 17.3675 115.1 17.5154 115.079 17.6263C115.059 17.7372 115.202 18.033 115.284 18.033C115.325 18.033 115.366 18.07 115.386 18.07C115.571 18.07 115.755 18.107 115.939 18.107C116.123 18.107 116.308 18.1439 116.492 18.1439C116.594 18.1439 116.635 18.2179 116.615 18.3288C116.615 18.4027 116.574 18.4397 116.553 18.4767C116.328 18.6985 116.082 18.8834 115.816 18.8834C115.734 18.8834 115.673 18.8834 115.591 18.9203C115.366 18.9573 115.284 19.1422 115.263 19.5489C115.263 19.6967 115.366 19.9556 115.448 19.9556C115.816 20.0295 116.185 20.0665 116.553 20.1404C116.656 20.1774 116.758 20.2883 116.84 20.3992C116.922 20.5101 116.942 20.8059 116.86 20.9168C116.676 21.1387 116.492 21.3605 116.308 21.5453C116.205 21.6563 116.103 21.7302 116 21.7302C115.673 21.7672 115.345 21.7672 115.018 21.952C114.752 21.989 114.506 21.989 114.24 22.026C113.83 22.0629 113.421 22.0999 113.032 22.1369C112.991 22.1369 112.97 22.1739 112.93 22.2108C112.95 22.2478 112.95 22.3217 112.97 22.3217C113.175 22.4696 113.38 22.5806 113.523 22.9503C113.646 23.246 113.851 23.246 114.035 23.283C114.117 23.283 114.178 23.357 114.219 23.4679C114.219 23.4679 114.178 23.5788 114.137 23.5788C113.953 23.6527 113.769 23.7267 113.605 23.8746C113.441 24.0594 113.237 23.9855 113.073 24.0594C113.032 24.0594 112.991 24.0964 112.97 24.1334C112.93 24.2073 112.95 24.3182 113.011 24.4291C113.134 24.577 113.257 24.7249 113.359 24.9098C113.503 25.1316 113.687 25.2425 113.871 25.2425C114.137 25.2425 114.383 25.2795 114.649 25.2795C114.752 25.2795 114.874 25.2795 114.977 25.3534C115.407 25.6122 115.857 25.5753 116.287 25.6862C116.369 25.7232 116.43 25.7971 116.41 25.908C116.41 25.982 116.389 26.0189 116.369 26.0929C116.308 26.2777 116.205 26.3887 116.103 26.4256C115.919 26.4626 115.734 26.4996 115.55 26.5365C115.407 26.5735 115.243 26.5365 115.12 26.6105C114.793 26.8323 114.465 26.7953 114.137 26.8323C113.851 26.8693 113.544 26.8693 113.257 26.9063C113.216 26.9063 113.196 26.9802 113.175 27.0172C113.196 27.0541 113.196 27.1281 113.237 27.1281C113.298 27.1651 113.38 27.202 113.441 27.239C113.81 27.3129 114.178 27.276 114.547 27.276C114.772 27.276 114.997 27.276 115.202 27.3129C115.243 27.3129 115.284 27.3499 115.284 27.4239C115.304 27.4978 115.263 27.6087 115.182 27.6087C114.997 27.6457 114.813 27.6457 114.629 27.6457C114.485 27.6457 114.342 27.6827 114.199 27.7936C114.035 27.9415 113.851 27.9784 113.667 28.0154C113.339 28.0524 113.011 28.0524 112.663 28.0894C112.561 28.0894 112.438 28.0894 112.336 28.1263C112.131 28.2003 111.926 28.4221 111.701 28.4221C111.476 28.4221 111.251 28.4221 111.046 28.533C111.005 28.533 110.985 28.607 110.964 28.6439C110.985 28.6809 111.026 28.7179 111.067 28.7548C111.21 28.8288 111.353 28.8288 111.496 28.8288C111.926 28.8288 112.377 28.7918 112.807 28.9397C112.848 28.9397 112.868 29.0137 112.889 29.0506C112.868 29.0876 112.827 29.1615 112.807 29.1615C112.704 29.1985 112.582 29.2355 112.479 29.2355C112.07 29.2725 111.681 29.2355 111.271 29.3464C111.251 29.3464 111.21 29.4203 111.189 29.4573C111.21 29.4943 111.23 29.5682 111.271 29.6052C111.476 29.7161 111.701 29.6791 111.906 29.864C111.967 29.9379 112.049 29.9379 112.111 29.864C112.274 29.7531 112.459 29.6791 112.643 29.6791C112.868 29.6791 113.093 29.6422 113.298 29.6422C113.523 29.6422 113.728 29.7161 113.933 29.938C113.994 30.0119 114.056 30.0489 114.137 30.0858C114.322 30.1598 114.485 30.2337 114.649 30.4186C115.018 30.7513 115.407 30.9362 115.816 30.9732C115.919 30.9732 115.96 31.0841 115.919 31.158C115.898 31.195 115.857 31.232 115.816 31.232C115.222 31.2689 114.629 31.3429 114.056 31.3798C113.789 31.3798 113.544 31.4168 113.298 31.5647C113.196 31.6387 113.073 31.6387 112.97 31.6017C112.786 31.5277 112.622 31.5277 112.438 31.6017C112.254 31.6756 112.07 31.6756 111.885 31.7126C111.558 31.7496 111.23 31.7496 110.882 31.7865C110.739 31.7865 110.575 31.7865 110.452 31.8975C110.104 32.1563 109.736 32.1563 109.367 32.2302C109.142 32.2672 108.937 32.4151 108.774 32.6369C108.753 32.6739 108.753 32.7478 108.753 32.7848C108.774 32.8218 108.815 32.8587 108.855 32.8587C109.408 32.8587 109.961 32.8587 110.514 32.8587C110.657 32.8587 110.821 32.8587 110.944 32.7848C111.189 32.6369 111.456 32.6369 111.701 32.5999C112.172 32.563 112.663 32.563 113.134 32.526C113.503 32.526 113.871 32.526 114.219 32.7478C114.363 32.8587 114.506 32.8218 114.649 32.8218C114.915 32.8218 115.161 32.8218 115.407 32.9696C115.489 33.0066 115.53 33.1175 115.55 33.2654C115.571 33.4133 115.55 33.5242 115.448 33.5612C115.386 33.5982 115.304 33.6351 115.243 33.6721C115.018 33.7091 114.813 33.746 114.588 33.783C114.363 33.783 114.158 33.9309 113.933 34.0049C113.871 34.0418 113.789 34.0049 113.708 34.0049C113.605 33.9679 113.503 33.9309 113.38 34.0049C113.093 34.1897 112.807 34.1897 112.5 34.1897C112.233 34.1897 111.988 34.1897 111.722 34.1897C111.66 34.1897 111.578 34.2637 111.517 34.3006C111.455 34.3376 111.394 34.4485 111.333 34.5225C111.148 34.7813 110.944 34.8922 110.718 34.8922C110.125 34.9291 109.531 34.9661 108.958 35.0031C108.855 35.0031 108.733 35.0401 108.63 35.114C108.385 35.2989 108.139 35.3728 107.873 35.3728C107.648 35.3728 107.422 35.3728 107.218 35.4098C107.115 35.4098 106.992 35.4468 106.89 35.5207C106.644 35.6686 106.399 35.7795 106.153 35.9274C105.948 36.0753 105.723 36.1122 105.498 36.1122C105.314 36.1122 105.129 36.2232 104.966 36.371C104.863 36.445 104.761 36.5189 104.659 36.5189C104.249 36.5559 103.84 36.5929 103.471 36.8517C103.246 36.8887 103.041 36.9626 102.816 36.9996C102.755 37.0365 102.673 37.0735 102.611 37.1475C102.55 37.2214 102.488 37.3323 102.488 37.4432C102.488 37.5541 102.529 37.6651 102.611 37.6651C102.714 37.702 102.836 37.702 102.939 37.739C103.021 37.739 103.082 37.813 103.082 37.9239C103.082 37.9608 103.021 37.9978 103 38.0348C102.898 38.0718 102.775 38.0718 102.673 38.1087C102.591 38.1087 102.509 38.1827 102.488 38.2936C102.468 38.4045 102.529 38.5524 102.591 38.6263C102.652 38.7003 102.714 38.7742 102.775 38.8112C102.877 38.8482 103 38.8851 103.103 38.8851C103.553 38.9221 103.983 38.9591 104.433 38.9591C104.659 38.9591 104.863 39.033 105.088 39.1439C105.232 39.2179 105.375 39.2179 105.518 39.2179C106.337 39.2549 107.136 39.2549 107.955 39.2549C108.139 39.2549 108.323 39.2549 108.507 39.2918C108.61 39.2918 108.712 39.4027 108.815 39.5137C108.876 39.5876 108.937 39.6615 108.999 39.6985L108.978 39.6615C108.937 39.9573 108.794 40.0313 108.692 40.2161C108.589 40.364 108.589 40.5858 108.671 40.7337C108.712 40.8077 108.774 40.9186 108.835 40.9925C108.855 41.0295 108.855 41.1404 108.855 41.1404C108.671 41.3622 108.446 41.3622 108.241 41.5101C108.077 41.621 107.873 41.621 107.709 41.695C107.668 41.695 107.648 41.7689 107.627 41.8059C107.607 41.8799 107.648 41.9538 107.75 41.9908C107.832 42.0277 107.893 42.0277 107.975 42.0277C108.016 42.0277 108.057 42.0277 108.077 42.0277C108.487 42.0277 108.876 42.2865 109.265 42.4714C109.306 42.4714 109.326 42.5453 109.347 42.6193C109.347 42.6563 109.326 42.7302 109.285 42.7672C109.081 42.952 108.876 43.026 108.651 43.1369C108.507 43.2108 108.364 43.2108 108.221 43.2108C107.197 43.2478 106.153 43.2848 105.129 43.3587C105.048 43.3587 104.986 43.4327 104.986 43.5066C104.986 43.5436 105.048 43.6175 105.068 43.6175C105.17 43.6545 105.293 43.6545 105.396 43.6545C105.723 43.6545 106.051 43.6915 106.399 43.6915C106.644 43.6915 106.829 43.8763 106.992 44.1721C107.013 44.2091 107.054 44.246 107.074 44.32C107.115 44.4309 107.156 44.5418 107.177 44.6527C107.197 44.7267 107.033 45.0594 106.972 45.0594C106.87 45.0964 106.767 45.1703 106.644 45.1703C105.825 45.2073 105.027 45.2443 104.208 45.2443C102.959 45.2443 101.71 45.2443 100.441 45.2443C100.073 45.2443 99.7041 45.2813 99.3356 45.3182C99.2947 45.3182 99.2537 45.3552 99.2333 45.4291C99.2128 45.5031 99.2537 45.577 99.3561 45.577C99.6837 45.614 100.011 45.7249 100.339 45.688C100.482 45.688 100.625 45.7249 100.769 45.8358C100.933 45.9837 101.117 46.0207 101.301 46.0207C101.813 46.0207 102.325 46.0577 102.857 46.0577C103.185 46.0946 103.512 46.0577 103.84 46.3165C103.942 46.3904 104.065 46.3165 104.167 46.2425C104.311 46.1316 104.454 46.1316 104.597 46.2425C104.74 46.3534 104.884 46.3904 105.027 46.3904C105.477 46.4274 105.907 46.4644 106.358 46.5013C106.399 46.5013 106.44 46.5753 106.44 46.6122C106.44 46.6862 106.399 46.7971 106.317 46.7971C105.805 46.8341 105.293 46.8341 104.761 46.8341C103.614 46.8341 102.468 46.7971 101.342 46.7971C100.973 46.7971 100.605 46.8341 100.236 46.8711C100.155 46.8711 100.093 46.982 100.114 47.0929C100.114 47.1668 100.134 47.2038 100.155 47.2777C100.257 47.4996 100.38 47.6105 100.544 47.5735C100.646 47.5365 100.769 47.4996 100.871 47.4256C101.014 47.3147 101.158 47.3147 101.301 47.4256C101.485 47.5735 101.649 47.5365 101.833 47.3887C101.977 47.2777 102.14 47.2408 102.263 47.3517C102.611 47.6475 102.98 47.6475 103.348 47.7584C103.451 47.7953 103.553 47.9063 103.614 48.0911C103.676 48.239 103.655 48.3499 103.553 48.3869C103.451 48.4608 103.348 48.4608 103.225 48.4608C102.775 48.4608 102.345 48.4608 101.895 48.4608C101.792 48.4608 101.67 48.4978 101.567 48.4978C101.526 48.4978 101.506 48.5718 101.465 48.6087C101.485 48.6457 101.506 48.6827 101.526 48.7196C101.67 48.8306 101.813 48.8306 101.956 48.8306C102.468 48.8306 102.98 48.7566 103.512 48.8675C103.594 48.8675 103.635 48.9784 103.655 49.1263C103.655 49.2372 103.655 49.4221 103.696 49.4961C103.737 49.57 103.84 49.607 103.901 49.607C104.27 49.6439 104.638 49.6439 105.007 49.6809C105.15 49.6809 105.293 49.7179 105.437 49.8288C105.6 49.9767 105.785 50.0137 105.969 50.0137C106.378 50.0137 106.788 50.0506 107.177 50.0506C107.279 50.0506 107.402 50.0506 107.504 50.1246C107.996 50.5313 108.528 50.3464 109.019 50.4943C109.122 50.5313 109.163 50.6052 109.122 50.7531C109.101 50.827 109.101 50.864 109.06 50.938C108.937 51.1968 108.733 51.2337 108.569 51.3446C108.466 51.3816 108.446 51.4925 108.487 51.6404C108.548 51.8623 108.466 52.0101 108.385 52.1211C108.364 52.158 108.323 52.195 108.323 52.2689C108.303 52.3799 108.364 52.4538 108.446 52.4538C108.548 52.4908 108.671 52.4908 108.774 52.5277C108.815 52.5277 108.835 52.5647 108.855 52.6387C108.896 52.7126 108.855 52.8235 108.753 52.8235C108.282 52.9344 107.791 52.8605 107.32 52.8975C107.136 52.8975 106.951 52.9344 106.788 53.1193C106.685 53.2302 106.563 53.2302 106.46 53.1563C106.276 53.0454 106.112 52.9714 105.928 52.9714C105.825 52.9714 105.703 52.9714 105.6 52.9714C103.942 53.0084 102.284 53.0084 100.625 52.9344C100.441 52.9344 100.257 52.9714 100.073 52.9714C99.9908 52.9714 99.9294 53.0453 99.9089 53.1193C99.9498 53.1563 99.9703 53.1932 100.011 53.1932C100.114 53.2302 100.236 53.2302 100.339 53.2302C101.362 53.2302 102.407 53.2302 103.43 53.2672C103.614 53.2672 103.799 53.2672 103.983 53.2672C104.085 53.2672 104.208 53.3041 104.311 53.3781C104.474 53.526 104.659 53.563 104.843 53.5999C105.293 53.5999 105.723 53.6369 106.174 53.6369C106.46 53.6369 106.767 53.6739 107.054 53.6739C107.156 53.6739 107.279 53.7108 107.381 53.7848C107.586 53.9327 107.791 54.0436 108.016 54.0436C108.303 54.0806 108.61 54.0806 108.896 54.2654C109.04 54.3394 109.183 54.3394 109.326 54.3763C109.92 54.4133 110.514 54.4133 111.087 54.4503C111.189 54.4503 111.312 54.4873 111.415 54.5242C111.455 54.5242 111.496 54.5612 111.517 54.5982C111.537 54.7091 111.496 54.783 111.415 54.82C111.312 54.857 111.189 54.8939 111.128 55.0788C111.107 55.1897 111.169 55.3376 111.23 55.4115C111.251 55.4485 111.292 55.4855 111.312 55.5225C111.415 55.6334 111.517 55.6334 111.64 55.6334C112.008 55.6334 112.356 55.8182 112.725 56.0401C112.93 56.151 112.93 56.2249 112.807 56.5946C112.684 56.9644 112.684 56.9644 112.827 57.2601C112.93 57.482 112.93 57.5559 112.766 57.6299C112.582 57.7038 112.418 57.8517 112.254 57.9626C112.111 58.0365 111.967 58.0735 111.824 58.1475C111.619 58.2584 111.537 58.6651 111.66 58.9239C111.722 59.0718 111.804 59.2196 111.885 59.3675C111.967 59.5154 112.07 59.5894 112.172 59.6263C112.356 59.6633 112.541 59.6633 112.725 59.7003C112.807 59.7003 112.868 59.7742 112.868 59.8482C112.868 59.8851 112.827 59.9591 112.786 59.9591C112.725 59.9961 112.643 60.033 112.582 60.07C112.438 60.1809 112.377 60.4027 112.459 60.6985C112.52 60.9943 112.5 61.2161 112.397 61.438C112.377 61.4749 112.356 61.5489 112.315 61.5858C112.008 62.0665 111.64 62.3992 111.251 62.6211C111.21 62.6211 111.169 62.658 111.148 62.658C110.882 62.5471 110.637 62.8059 110.391 62.8799C110.37 62.8799 110.329 62.9538 110.329 63.0277C110.329 63.0647 110.35 63.1387 110.391 63.1387C110.493 63.2496 110.596 63.2496 110.718 63.2496C110.923 63.2865 111.046 63.5084 111.087 63.8411C111.148 64.1739 111.23 64.2848 111.394 64.3218C111.865 64.3587 112.356 64.4327 112.827 64.4697C112.848 64.4697 112.909 64.5066 112.909 64.5436C112.909 64.6175 112.909 64.6915 112.868 64.7284C112.807 64.8024 112.745 64.8763 112.745 65.0242C112.745 65.0612 112.807 65.0982 112.827 65.0982C112.889 65.1351 112.97 65.1721 113.032 65.2091C113.134 65.283 113.216 65.3939 113.257 65.5788C113.298 65.7637 113.339 65.9485 113.421 66.0964C113.503 66.2073 113.605 66.3182 113.728 66.2813C113.83 66.2443 113.933 66.1704 114.056 66.1704C114.137 66.1704 114.199 66.2443 114.24 66.3552C114.281 66.4661 114.281 66.614 114.24 66.7249C114.117 66.9837 113.953 67.1686 113.769 67.2056C113.585 67.2425 113.4 67.2425 113.216 67.2425C113.134 67.2425 113.073 67.2795 112.991 67.3165C112.807 67.3534 112.684 67.7232 112.745 68.0559C112.786 68.2408 112.827 68.4256 112.786 68.6105C112.725 68.8693 112.602 69.0172 112.459 69.1281C112.152 69.3869 111.844 69.6087 111.517 69.6457C111.435 69.6457 111.394 69.7566 111.394 69.9045C111.415 70.0524 111.455 70.1263 111.517 70.2003C111.558 70.2373 111.578 70.2742 111.619 70.2742C111.722 70.3112 111.844 70.3482 111.947 70.3482C112.582 70.3482 113.196 70.3851 113.83 70.3851C113.912 70.3851 113.974 70.3851 114.056 70.4221C114.281 70.4221 114.445 70.7179 114.506 71.1616C114.526 71.3094 114.485 71.4204 114.404 71.4573C114.342 71.4943 114.26 71.5313 114.199 71.5313C113.462 71.6052 112.725 71.6422 111.988 71.6052C111.722 71.6052 111.476 71.7531 111.271 72.0119C111.251 72.0489 111.23 72.1228 111.21 72.1598C111.21 72.1968 111.23 72.2337 111.271 72.2707C111.292 72.3077 111.333 72.3447 111.374 72.3447C111.558 72.3816 111.742 72.3816 111.926 72.4186C112.193 72.4186 112.438 72.4556 112.684 72.6035C112.868 72.6774 113.052 72.7144 113.237 72.7513C113.319 72.7883 113.359 72.8992 113.359 73.0101C113.359 73.0841 113.339 73.158 113.319 73.195C113.257 73.3429 113.175 73.4908 113.093 73.6387C112.991 73.8235 112.848 73.9344 112.704 73.9344C112.663 73.9344 112.622 73.9344 112.602 73.9344C112.274 73.8975 111.947 73.9714 111.64 74.2302C111.537 74.3042 111.435 74.3411 111.312 74.3411C111.026 74.3781 110.718 74.3781 110.432 74.452C110.248 74.489 110.084 74.5999 109.92 74.8218C109.9 74.8587 109.859 74.9327 109.859 74.9697C109.859 75.0066 109.9 75.0806 109.941 75.0806C110.452 75.1915 110.944 75.5242 111.455 75.5612C111.517 75.5612 111.619 75.6351 111.64 75.7461C111.763 76.0788 111.967 76.2637 112.172 76.4116C112.274 76.4855 112.356 76.6334 112.356 76.8552C112.377 77.0401 112.377 77.2619 112.397 77.4468C112.418 77.5947 112.541 77.8165 112.622 77.8165C112.95 77.8535 113.278 77.8904 113.605 77.9644C113.687 77.9644 113.769 78.0753 113.748 78.1492C113.708 78.2601 113.646 78.2971 113.564 78.2971C113.421 78.2971 113.278 78.3341 113.134 78.3711C113.073 78.408 112.991 78.445 112.93 78.482C112.827 78.5559 112.745 78.7038 112.684 78.8887C112.745 79.0735 112.848 79.1475 112.909 79.2954C112.97 79.4063 112.97 79.5172 112.95 79.6281C112.909 79.776 112.848 79.8499 112.766 79.813C112.622 79.739 112.5 79.6651 112.336 79.739C112.233 79.776 112.111 79.702 112.008 79.739C111.906 79.776 111.804 79.8869 111.701 79.9609C111.64 79.9978 111.558 79.9978 111.496 80.0348C111.476 80.0718 111.455 80.1087 111.415 80.1827C111.455 80.2197 111.476 80.2566 111.517 80.2566C111.742 80.2936 111.967 80.2936 112.172 80.2936C112.766 80.2566 113.359 80.3306 113.933 80.4415C114.035 80.4785 114.137 80.5894 114.219 80.7373C114.281 80.8851 114.26 80.9961 114.178 81.07C114.117 81.107 114.035 81.1809 113.974 81.1809C113.748 81.2179 113.523 81.2179 113.319 81.2549C113.237 81.2549 113.175 81.3658 113.175 81.4767C113.175 81.6246 113.216 81.7355 113.278 81.8094C113.441 81.9943 113.626 81.9943 113.81 82.0313C113.953 82.0682 114.096 82.1792 114.199 82.364C114.219 82.401 114.26 82.4749 114.26 82.5489C114.26 82.5859 114.24 82.6598 114.219 82.6968C114.158 82.8077 114.015 82.8816 114.035 83.1035C114.056 83.2883 114.158 83.4362 114.219 83.5841C114.26 83.732 114.24 83.8429 114.158 83.8799C114.096 83.9168 114.015 83.9538 113.953 83.9538C113.585 83.9538 113.216 83.9538 112.848 83.9908C112.766 83.9908 112.704 84.0278 112.622 84.0278C112.52 84.0278 112.397 84.3235 112.438 84.4344C112.479 84.5454 112.541 84.6563 112.602 84.6932C112.786 84.7672 112.97 84.7672 113.155 84.8042C113.237 84.8042 113.298 84.8781 113.359 84.952C113.4 85.026 113.278 85.3957 113.216 85.4327C113.155 85.4697 113.093 85.5436 113.011 85.5806C112.827 85.6545 112.643 85.7285 112.479 85.8394C112.295 85.9873 112.111 85.9133 111.947 85.8024C111.865 85.7654 111.804 85.7285 111.742 85.8024C111.537 85.9503 111.312 86.0242 111.087 86.0242C110.944 86.0242 110.8 85.9873 110.637 86.0242C110.534 86.0242 110.411 86.0242 110.309 86.0982C110.002 86.357 109.674 86.357 109.347 86.394C108.692 86.4309 108.016 86.4679 107.361 86.4679C107.218 86.4679 107.054 86.4679 106.931 86.5788C106.685 86.7637 106.44 86.8006 106.174 86.8006C105.723 86.8006 105.293 86.8376 104.843 86.8746C104.74 86.8746 104.618 86.8746 104.515 86.9485C104.27 87.0964 104.024 87.1704 103.758 87.1704C103.062 87.2073 102.366 87.2073 101.649 87.2443C101.465 87.2443 101.281 87.2813 101.096 87.3922C100.912 87.5031 100.748 87.577 100.564 87.577C100.421 87.577 100.277 87.577 100.114 87.577C99.8884 87.614 99.6837 87.688 99.4994 87.9468C99.3356 88.2056 99.1309 88.3535 98.8852 88.3535C98.0663 88.3535 97.2679 88.3904 96.449 88.3904C95.9986 88.3904 95.5687 88.3904 95.1183 88.3904C94.8521 88.3904 94.6064 88.4644 94.3608 88.5753C94.2584 88.6492 94.1356 88.6492 94.0332 88.6862C93.4804 88.7971 92.9277 88.7601 92.3749 88.7232C92.2316 88.7232 92.0883 88.6123 91.945 88.5383C91.6993 88.3535 91.4536 88.3165 91.1875 88.5013C91.0442 88.6123 90.9009 88.6862 90.7576 88.6862C90.43 88.6862 90.1024 88.7971 89.7749 88.7601C89.3654 88.7232 88.956 88.7971 88.567 88.7971C88.3827 88.7971 88.1985 88.8341 88.0142 88.7971C87.5433 88.7232 87.052 88.8341 86.5811 88.7971C86.1307 88.7601 85.7008 88.7601 85.2504 88.7601C84.9228 88.7601 84.5953 88.7601 84.2472 88.7601C84.063 88.7601 83.8787 88.6492 83.7559 88.3904C83.7149 88.2795 83.6535 88.2056 83.5921 88.1316C83.5307 88.0577 83.4488 88.0207 83.3874 88.0577C83.3464 88.0577 83.3055 88.0577 83.285 88.0947C82.937 88.4644 82.5889 88.4274 82.2409 88.0947C82.1385 87.9837 82.0362 88.0207 81.9338 88.0947C81.8724 88.1316 81.811 88.2056 81.7291 88.2795C81.5243 88.4274 81.2991 88.4274 81.0944 88.2795C80.8897 88.0947 80.685 87.9468 80.4598 87.9837C80.3165 87.9837 80.1731 87.8728 80.0298 87.7989C79.9275 87.7249 79.8046 87.7249 79.7023 87.7989C79.4975 87.9837 79.2723 88.0207 79.0471 88.0207C78.6786 88.0577 78.3101 87.9837 77.9416 88.0577C77.8188 88.0947 77.7369 88.1686 77.7574 88.4274C77.7574 88.5753 77.7369 88.6862 77.655 88.7232C77.614 88.7232 77.5936 88.7601 77.5526 88.7601C77.4707 88.7601 77.3888 88.7601 77.3479 88.6862C77.1432 88.4644 76.9384 88.4274 76.7132 88.3904C76.6109 88.3904 76.4881 88.4274 76.3857 88.5013C76.2219 88.6862 76.0581 88.7971 75.8739 88.7971C75.6077 88.7971 75.362 88.8711 75.1164 89.019C75.014 89.0929 74.8912 89.0929 74.7888 89.0929C74.5022 89.1299 74.1951 89.0929 73.9085 89.1299C73.6628 89.1668 73.4786 88.982 73.3148 88.6862C73.2329 88.5383 73.1305 88.4644 73.0077 88.5383C72.9463 88.5753 72.8644 88.6492 72.803 88.6862C72.5982 88.7971 72.373 88.8711 72.1683 89.0559C72.025 89.1668 71.8817 89.1668 71.7384 89.1668C71.5132 89.1299 71.288 89.1299 71.0832 88.982C70.6943 88.6862 70.2848 88.7601 69.8754 88.7971C69.6706 89.019 69.4454 88.945 69.2407 88.8341C68.647 88.7971 68.0533 88.7232 67.48 88.7971C67.3367 88.8341 67.1934 88.8341 67.0501 88.945C66.6816 89.2038 66.3336 89.1668 65.965 88.945C65.7808 88.8341 65.617 88.8711 65.4328 89.019C65.2076 89.2038 65.0028 89.1668 64.8391 88.7971C64.7981 88.6862 64.7367 88.6123 64.6753 88.5383C64.3682 88.7601 64.0201 88.6492 63.713 88.945C63.5493 89.0929 63.365 89.1668 63.1808 89.1668C63.0375 89.1668 62.8941 89.1668 62.7304 89.2038C62.5871 89.2038 62.4437 89.2778 62.3004 89.3887C62.1571 89.4996 62.0138 89.5366 61.8705 89.5366C61.5839 89.5366 61.2768 89.5366 60.9902 89.5366C60.4374 89.5366 59.8846 89.5366 59.3319 89.5735C59.0453 89.5735 58.7382 89.6105 58.4516 89.5366C58.2673 89.4996 58.083 89.5735 57.9193 89.7584C57.6326 90.0542 57.3256 90.313 57.0389 90.5718C56.9366 90.6457 56.8342 90.7197 56.7318 90.7566C56.1381 90.7936 55.5444 90.8675 54.9712 90.8306C54.7869 90.8306 54.6027 90.7566 54.4389 90.6087C54.2956 90.4978 54.1523 90.4239 54.009 90.4239C53.5586 90.4239 53.1286 90.4239 52.6782 90.3869C52.4121 90.3869 52.1664 90.4239 51.9207 90.5718C51.8184 90.6457 51.716 90.6827 51.5932 90.6827C51.327 90.7197 51.0814 90.7566 50.8152 90.7197C49.9963 90.6827 49.1979 90.7197 48.379 90.7566C47.8671 90.7566 47.3553 90.7197 46.823 90.6827C46.7207 90.6827 46.5978 90.7566 46.5364 90.9045C46.4545 91.0524 46.3931 91.2003 46.3112 91.3482C46.2293 91.4961 46.1065 91.533 46.0041 91.4961C45.9427 91.4591 45.8608 91.4591 45.7994 91.3851C45.7175 91.3112 45.6561 91.2742 45.5947 91.3482C45.2466 91.607 44.8781 91.533 44.5096 91.533C44.3254 91.533 44.1411 91.607 43.9773 91.7549C43.875 91.8658 43.7726 91.8658 43.6702 91.7549C43.6088 91.7179 43.5474 91.644 43.4655 91.57C43.3222 91.4591 43.1789 91.4591 43.0356 91.4961C42.749 91.57 42.4828 91.8288 42.1962 91.9767C41.9096 92.1616 41.6229 92.2355 41.3363 92.2355C40.7017 92.2355 40.0875 92.2355 39.4528 92.2355C39.0024 92.2355 38.5725 92.2725 38.1221 92.3464C38.0197 92.3464 37.8969 92.4204 37.7945 92.4943C37.6512 92.5682 37.5079 92.5313 37.3646 92.4943C37.2827 92.4573 37.2213 92.4573 37.1394 92.4943C36.9552 92.6052 36.7914 92.6422 36.5867 92.6422C35.2969 92.6792 34.0071 92.6792 32.7173 92.7161C32.0212 92.7161 31.3252 92.7161 30.6086 92.7161C30.3834 92.7161 30.1787 92.7901 29.9535 92.901C29.7488 93.0489 29.5236 93.0119 29.2984 92.901C29.2369 92.864 29.155 92.827 29.0936 92.827C28.9503 92.827 28.807 92.9749 28.6637 92.901C28.5204 92.864 28.3771 92.7161 28.2338 92.7161C28.1314 92.7161 28.0086 92.7161 27.9062 92.7901C27.7219 92.938 27.5582 92.938 27.3739 92.7901C27.2716 92.7161 27.1692 92.6792 27.0463 92.6792C26.6369 92.6792 26.2274 92.6792 25.8385 92.6792C25.6952 92.6792 25.5518 92.7161 25.4085 92.827C25.1219 93.0119 24.8353 93.0119 24.5487 92.7901C24.4463 92.7161 24.3439 92.6792 24.2211 92.6792C23.4431 92.7161 22.6652 92.6052 21.9077 92.6052C21.5801 92.6052 21.2526 92.6052 20.9045 92.6052C20.7203 92.6052 20.536 92.5682 20.3722 92.4573C20.188 92.3464 20.0242 92.3094 19.8399 92.2725C19.6147 92.2355 19.3895 92.2355 19.1848 92.1985C19.0415 92.1985 18.8982 92.1246 18.7549 92.0137C18.5092 91.8288 18.2431 91.7918 17.9974 91.9767C17.7517 92.1246 17.5061 92.1985 17.2399 92.0506C17.158 92.0137 17.0966 92.0137 17.0147 92.0506C16.9123 92.0876 16.7895 92.1616 16.6871 92.1616C16.3596 92.1616 16.032 92.1616 15.684 92.1985C15.5407 92.1985 15.3974 92.1616 15.254 92.0506C15.0698 91.9397 14.8855 91.9767 14.7218 92.0876C14.5784 92.1985 14.4351 92.1985 14.2918 92.1246C14.0462 91.9767 13.8005 91.9027 13.5343 91.9027C12.5312 91.8658 11.5485 91.8288 10.5453 91.8288C10.3201 91.8288 10.1154 91.7918 9.89019 91.644C9.78782 91.57 9.68546 91.57 9.56262 91.607C9.5012 91.644 9.41931 91.6809 9.35789 91.6809C8.70277 91.4221 8.04764 91.4961 7.37204 91.4591C7.08542 91.4221 6.7988 91.3482 6.51218 91.2373C6.22556 91.1264 5.93894 91.1264 5.63185 91.0524C5.50902 91.0154 5.42713 90.9045 5.34523 90.7936C5.32476 90.7566 5.30429 90.6827 5.26334 90.6457C5.20192 90.5348 5.14051 90.4978 5.07909 90.5348C4.87436 90.6827 4.64916 90.7566 4.42396 90.6087C4.36254 90.5718 4.30112 90.4609 4.26018 90.3499C4.19876 90.202 4.28065 89.9802 4.42396 89.9063C4.46491 89.8693 4.48538 89.8693 4.52632 89.8693C4.56727 89.8693 4.60822 89.8323 4.62869 89.8323C4.62869 89.8693 4.64916 89.9432 4.64916 89.9802C4.66963 90.0172 4.69011 90.0172 4.71058 90.0172C4.71058 89.9432 4.66963 89.8693 4.60822 89.8323C4.52632 89.3887 4.38301 89.019 4.36254 88.5383C4.3216 88.0207 4.30112 88.0207 4.5468 87.8358C4.73105 87.688 4.85389 87.4661 4.85389 87.0964C4.85389 87.0225 4.85389 86.9485 4.85389 86.9116C4.85389 86.7637 4.85389 86.6528 4.89483 86.5049C4.97672 86.1721 4.97673 85.8763 4.83342 85.6175C4.772 85.5066 4.73105 85.3957 4.75152 85.2478C4.772 85.1369 4.85389 85.063 4.89483 84.952C4.91531 84.9151 4.93578 84.8411 4.97672 84.8042C5.05862 84.6193 5.03814 84.3975 4.91531 84.3235C4.81294 84.2496 4.71058 84.2126 4.60822 84.1017C4.52632 84.0278 4.50585 83.9168 4.50585 83.8059C4.50585 83.658 4.5468 83.5471 4.60822 83.5101C4.66963 83.4362 4.75152 83.4362 4.81294 83.3992C4.95625 83.3253 4.9972 83.1404 4.91531 82.9925C4.85389 82.8447 4.772 82.6968 4.71058 82.5489C4.60822 82.327 4.66963 82.0682 4.83342 81.9204C4.89483 81.8834 4.97673 81.8464 5.03814 81.8464C5.12003 81.8094 5.18145 81.7355 5.18145 81.6246C5.18145 81.4767 5.14051 81.3658 5.07909 81.2918C5.01767 81.2179 4.95625 81.1809 4.89483 81.107C4.75152 80.9591 4.75152 80.9221 4.85389 80.7003C4.97672 80.4785 4.97673 80.4785 4.83342 80.2936C4.66963 80.0348 4.62869 79.8869 4.71058 79.6281C4.79247 79.3323 4.87436 79.0366 4.95625 78.7408C5.01767 78.519 5.01767 78.482 4.91531 78.2232C4.87436 78.1123 4.81294 78.0383 4.772 77.9274C4.71058 77.7425 4.66963 77.5577 4.71058 77.3728C4.772 77.0031 4.85389 76.6334 4.87436 76.2267C4.89483 75.8939 4.95625 75.5982 5.01767 75.2654C5.05862 75.0436 5.01767 74.8587 4.93578 74.7108C4.772 74.3411 4.64916 73.9344 4.5468 73.5277C4.52632 73.4168 4.52632 73.2689 4.60822 73.195C4.73105 73.0471 4.87436 72.9362 4.95625 72.7144C4.9972 72.6035 5.01767 72.4556 5.01767 72.3447C5.01767 72.2337 4.9972 72.0858 4.95625 71.9749C4.85389 71.6052 4.93578 71.3464 5.09956 71.1246C5.20192 70.9767 5.20192 70.7918 5.09956 70.607C4.9972 70.4221 4.89483 70.2373 4.79247 70.0524C4.73105 69.9045 4.64916 69.7197 4.69011 69.4978C4.83342 68.7214 4.87436 67.945 4.83342 67.1316C4.87436 67.1316 4.89483 67.1316 4.91531 67.0947C4.93578 67.0947 4.93578 67.0207 4.93578 66.9837C4.89483 67.1686 4.85389 67.2056 4.85389 67.3904ZM107.259 52.5647C107.361 52.6017 107.463 52.6017 107.586 52.6017C107.627 52.6017 107.648 52.5647 107.689 52.5277C107.709 52.4908 107.729 52.4538 107.75 52.4168C107.729 52.3799 107.689 52.3059 107.668 52.3059C107.381 52.195 107.095 52.3059 106.829 52.3059C106.788 52.3059 106.747 52.3429 106.747 52.3799C106.726 52.4538 106.767 52.5647 106.849 52.5647C106.972 52.5647 107.115 52.5647 107.259 52.5647ZM112.643 9.01189C112.622 9.01189 112.663 9.01189 112.684 9.01189C112.766 8.97491 112.807 8.90097 112.786 8.82703C112.766 8.79006 112.725 8.75308 112.704 8.71611C112.561 8.67914 112.438 8.67914 112.295 8.75308C112.254 8.75308 112.233 8.82703 112.213 8.864C112.254 8.97491 112.315 9.04886 112.377 9.04886C112.459 9.01189 112.541 9.01189 112.643 9.01189ZM55.135 88.6862C55.0531 88.5383 54.9507 88.5383 54.8484 88.5753C54.8074 88.5753 54.7665 88.6123 54.7665 88.6492C54.746 88.7232 54.7869 88.7971 54.8688 88.8341C55.0121 88.8711 55.135 88.7971 55.135 88.6862Z" fill="#00659E"/>
<path d="M110.275 40.209C109.955 40.209 109.707 40.1026 109.778 40.0316C109.92 39.8896 110.133 39.8896 110.31 39.8896C110.452 39.8896 110.559 39.8896 110.665 39.9251C110.7 39.9251 110.771 39.9961 110.807 40.0316C110.771 40.0671 110.7 40.1381 110.665 40.1381C110.523 40.209 110.381 40.209 110.275 40.209Z" fill="#FFB820"/>
<path d="M34.901 90.6363C34.901 90.6718 34.901 90.7429 34.8655 90.7429C34.6878 90.8495 34.5101 90.8495 34.3324 90.7785C34.2969 90.7429 34.2258 90.7074 34.2258 90.6718C34.2258 90.5652 34.4746 90.4942 34.7234 90.5652C34.7944 90.5297 34.8655 90.6008 34.901 90.6363Z" fill="#FFB820"/>
<path d="M122.483 65.1212C122.483 65.1567 122.483 65.2278 122.483 65.2633C122.412 65.4055 122.305 65.4055 122.27 65.2278C122.27 65.1922 122.27 65.1212 122.27 65.0856C122.305 65.0501 122.341 64.979 122.376 64.979C122.412 65.0145 122.447 65.0856 122.483 65.1212Z" fill="#FFB820"/>
<path d="M114.995 46.9516L115.101 46.916V47.0226L114.995 46.9516Z" fill="#FFB820"/>
<path d="M119.856 42.1967C119.998 42.1967 120.069 42.2677 120.069 42.3388C120.034 42.3388 119.963 42.3388 119.963 42.3033C119.927 42.2677 119.927 42.1967 119.892 42.1611L119.856 42.1967Z" fill="#FFB820"/>
<path d="M119.892 42.1612C119.75 42.1612 119.679 42.0901 119.679 42.019C119.714 42.019 119.786 42.019 119.786 42.0546C119.821 42.0901 119.821 42.1612 119.857 42.1967L119.892 42.1612Z" fill="#FFB820"/>
<path d="M117.195 42.1966C117.195 42.0189 117.266 41.9834 117.372 41.9834C117.372 42.0189 117.337 42.09 117.337 42.09C117.266 42.1611 117.23 42.1611 117.195 42.1966Z" fill="#FFB820"/>
<path d="M81.6952 17.1753H59.3993C58.8977 17.1753 58.4912 17.5752 58.4912 18.0688C58.4912 18.5624 58.8977 18.9623 59.3993 18.9623H81.6952C83.0672 18.9623 84.1835 20.0606 84.1835 21.4105V44.4191C84.1835 45.769 83.0672 46.8673 81.6952 46.8673H78.134C77.9427 46.8673 77.7562 46.9268 77.6013 47.0372L71.4088 51.4501V47.7608C71.4088 47.2673 71.0023 46.8673 70.5006 46.8673H50.7888C49.4166 46.8673 48.3004 45.769 48.3004 44.4191V21.4105C48.3004 20.0606 49.4168 18.9623 50.7888 18.9623H55.4422C55.9439 18.9623 56.3503 18.5624 56.3503 18.0688C56.3503 17.5752 55.9439 17.1753 55.4422 17.1753H50.7888C48.4151 17.1753 46.4841 19.0751 46.4841 21.4105V44.4191C46.4841 46.7545 48.4152 48.6543 50.7888 48.6543H69.5925V53.2005C69.5925 53.5362 69.7838 53.8436 70.0877 53.9963C70.4098 54.1474 70.725 54.1233 71.0334 53.9243L78.4284 48.6545H81.6952C84.0689 48.6545 85.9999 46.7546 85.9999 44.4192V21.4105C85.9999 19.0753 84.0688 17.1753 81.6952 17.1753Z" fill="white"/>
<path d="M76.7454 64.4036C76.556 63.0719 75.7594 61.9397 74.5573 61.2953L70.5188 59.1306C70.0784 58.8941 69.5269 59.0542 69.2869 59.4878C69.0471 59.9211 69.2096 60.4638 69.6501 60.6998L73.6882 62.8645C74.3791 63.2347 74.8369 63.885 74.9464 64.6497C74.947 64.6546 74.9476 64.6595 74.9483 64.6642C75.0543 65.4367 74.787 66.1902 74.2155 66.7309L73.6202 67.2932L58.7112 59.0394L60.4633 57.5231C61.2108 56.876 62.2989 56.7566 63.1718 57.2257L65.6917 58.5768C66.1321 58.8128 66.6836 58.6532 66.9237 58.2198C67.1636 57.7865 67.0013 57.2438 66.5608 57.0076L64.0416 55.6568C62.5021 54.8298 60.5818 55.0403 59.2638 56.1811L55.1807 59.7148C54.3443 60.4385 53.1236 60.5057 52.2124 59.8778C46.0621 55.6386 41.5958 50.975 38.5582 45.6209C38.046 44.7169 38.1892 43.6021 38.9141 42.8469L42.1462 39.4836C43.3514 38.2282 43.6339 36.3474 42.8492 34.8034L37.4102 24.1008C36.8043 22.907 35.6915 22.0846 34.3572 21.8444C33.0221 21.6038 31.6847 21.9858 30.6874 22.8918L28.6217 24.7695C26.3382 26.8448 24.827 29.5287 24.2516 32.5307C23.6751 35.5376 24.0947 38.5709 25.4648 41.3036C25.4708 41.3162 25.4765 41.3272 25.4813 41.3363C26.3494 43.0637 27.2882 44.7529 28.2698 46.3542C28.4336 46.6237 28.6103 46.9084 28.7946 47.2007C29.0591 47.6198 29.6189 47.7487 30.0452 47.4885C30.4713 47.2282 30.6023 46.6773 30.3378 46.2581C30.1587 45.9742 29.9873 45.6978 29.8268 45.434C28.8707 43.8742 27.9575 42.2311 27.1124 40.5502C27.1077 40.5404 27.1029 40.5309 27.0979 40.5214C24.7105 35.7687 25.7772 29.9372 29.6783 26.2487L37.8683 41.3342L37.594 41.6197C36.3215 42.9449 36.0715 44.9028 36.972 46.4917C40.1463 52.0868 44.7905 56.9442 51.1704 61.3416C51.9027 61.8461 52.7485 62.0951 53.5914 62.0951C54.59 62.0951 55.5844 61.7453 56.3803 61.0566L57.2663 60.2899L72.2518 68.5859L72.2367 68.6002C68.374 72.2514 62.5876 73.0824 57.8383 70.6678C47.5439 65.4325 39.1753 58.512 32.9648 50.099C32.67 49.6996 32.1021 49.6109 31.6963 49.9011C31.2904 50.1912 31.2005 50.7498 31.4952 51.1491C37.8736 59.7897 46.456 66.891 57.0041 72.2556C59.0804 73.3111 61.3288 73.8253 63.5623 73.8253C67.181 73.8253 70.7597 72.4747 73.4947 69.8894L75.4737 68.0197C76.4608 67.0858 76.9258 65.7878 76.752 64.4542C76.7504 64.4372 76.7481 64.4205 76.7454 64.4036ZM31.0545 24.991L31.9198 24.2046C32.4933 23.6836 33.2622 23.4643 34.0303 23.6022C34.7972 23.7403 35.437 24.213 35.7854 24.8997L41.2247 35.6028C41.6696 36.4782 41.5093 37.5447 40.8261 38.2563L39.184 39.965L31.0545 24.991Z" fill="white"/>
<path d="M78.6801 33.7618C78.6801 32.0408 77.2569 30.6406 75.5077 30.6406C73.7586 30.6406 72.3354 32.0408 72.3354 33.7618C72.3354 35.4827 73.7586 36.8829 75.5077 36.8829C77.2569 36.8829 78.6801 35.4827 78.6801 33.7618ZM74.1516 33.7618C74.1516 33.0262 74.7599 32.4276 75.5076 32.4276C76.2553 32.4276 76.8636 33.0262 76.8636 33.7618C76.8636 34.4975 76.2553 35.0959 75.5076 35.0959C74.7599 35.0959 74.1516 34.4975 74.1516 33.7618Z" fill="white"/>
<path d="M69.4149 33.7618C69.4149 32.0408 67.9918 30.6406 66.2427 30.6406C64.4935 30.6406 63.0703 32.0408 63.0703 33.7618C63.0703 35.4827 64.4935 36.8829 66.2427 36.8829C67.9918 36.8829 69.4149 35.4827 69.4149 33.7618ZM64.8865 33.7618C64.8865 33.0262 65.4949 32.4276 66.2426 32.4276C66.9903 32.4276 67.5985 33.0262 67.5985 33.7618C67.5985 34.4975 66.9903 35.0959 66.2426 35.0959C65.4949 35.0959 64.8865 34.4975 64.8865 33.7618Z" fill="white"/>
<path d="M53.8054 33.7618C53.8054 35.4827 55.2284 36.8829 56.9778 36.8829C58.7271 36.8829 60.1502 35.4827 60.1502 33.7618C60.1502 32.0408 58.727 30.6406 56.9778 30.6406C55.2286 30.6406 53.8054 32.0408 53.8054 33.7618ZM56.9778 32.4276C57.7255 32.4276 58.3339 33.0262 58.3339 33.7618C58.3339 34.4975 57.7255 35.0959 56.9778 35.0959C56.2301 35.0959 55.6219 34.4975 55.6219 33.7618C55.6219 33.0262 56.2301 32.4276 56.9778 32.4276Z" fill="white"/>
</svg>
