<svg width="102" height="28" viewBox="0 0 102 28" fill="none" xmlns="http://www.w3.org/2000/svg">
<path d="M72.4781 0.816084C72.5978 0.720074 72.7574 0.576059 72.8372 0.480049C72.917 0.384039 73.1962 0.240023 73.1564 0.336033C73.1165 0.432043 72.9569 0.624065 72.917 0.720076C72.8771 0.76808 73.0766 0.912094 73.0766 1.0081C73.0766 1.0081 73.0766 1.0081 73.1165 1.05611C73.2361 1.10411 73.2361 1.10411 73.2361 1.10411C73.3159 1.24813 73.3957 1.39215 73.4356 1.44015C73.4755 1.48816 73.5952 1.34414 73.6351 1.24813C73.6351 1.24813 73.6351 1.24813 73.6351 1.15212C73.6351 1.10411 73.6351 1.10411 73.6351 1.10411C73.6351 1.05611 73.6351 0.912094 73.7149 0.76808C73.7548 0.624063 73.7947 0.288029 73.7947 0.240025C73.8346 0.240025 73.8745 0.240025 73.9143 0.288029C73.9542 0.336035 74.034 0.480049 74.1138 0.528053C74.1936 0.576059 73.9143 0.720074 73.9143 0.76808C73.8745 0.816084 73.8745 0.912094 73.9941 0.816084C74.1138 0.720074 74.3532 0.960098 74.3931 0.912094C74.433 0.912094 74.3931 0.67207 74.3532 0.624063C74.3532 0.624063 74.3532 0.624063 74.3532 0.576057C74.3532 0.528053 74.3532 0.528053 74.3532 0.528053C74.3532 0.480049 74.4729 0.432043 74.6324 0.432043C74.6324 0.432043 74.6324 0.432043 74.7521 0.432043C74.792 0.432043 74.792 0.432043 74.792 0.432043C74.792 0.288029 74.8718 0.192019 74.8718 0.192019C74.9117 0.192019 75.0713 0.192019 75.191 0.192019C75.2309 0.336033 75.2309 0.336033 75.2309 0.336033C75.1112 0.336033 75.0314 0.432045 75.0713 0.480049C75.1112 0.528055 75.191 0.672068 75.2708 0.576057C75.3505 0.480049 75.5899 0.288029 75.6697 0.288029C75.7894 0.288029 76.0287 0.288029 76.0686 0.288029C76.0686 0.288029 76.0287 0.336033 75.949 0.336033C75.8692 0.336033 75.6697 0.432043 75.6697 0.528053C75.6697 0.624063 75.3904 0.720076 75.3106 0.720076C75.2708 0.720076 75.1112 0.816084 75.0713 0.816084C75.0713 0.816084 75.0713 0.816084 75.0713 0.86409C75.0713 0.912094 75.1112 0.9601 75.1511 0.9601C75.4303 0.86409 75.7096 0.76808 75.9889 0.76808C76.1883 0.76808 76.1883 0.76808 76.1883 0.76808C76.2681 0.624063 76.3878 0.480049 76.4676 0.432043C76.5474 0.384039 76.6272 0.576057 76.6272 0.576057C76.6671 0.576057 76.7867 0.672068 76.8266 0.672068C76.8665 0.672068 77.0261 0.816084 76.9862 0.816084C76.9463 0.816084 76.8266 0.912094 76.7867 0.86409C76.7867 0.86409 76.7867 0.864088 76.7867 0.816084C76.707 0.624063 76.707 0.624063 76.707 0.624063C76.5474 0.67207 76.3878 0.67207 76.3878 0.720076C76.3479 0.720076 76.308 0.864088 76.308 0.912094C76.308 0.960098 76.5075 1.10411 76.5873 1.10411C76.6671 1.44015 76.8266 1.24813 76.8665 1.15212C76.9463 0.960098 77.1458 0.912094 77.2655 0.816084C77.3852 0.720074 77.3852 0.720076 77.3852 0.720076C77.4649 0.576059 77.5447 0.528055 77.5447 0.624063C77.5447 0.624063 77.5447 0.624063 77.5447 0.672068C77.5447 0.768078 77.5447 0.76808 77.5447 0.76808C77.6644 0.816084 77.8639 0.960098 77.9836 1.0081C77.9836 1.0081 77.9836 1.0081 77.9836 1.10411C78.0235 1.29613 78.1432 1.29613 78.3426 1.29613C78.4224 1.29613 78.5022 1.39214 78.5421 1.39214C78.582 1.39214 78.6219 1.24813 78.6618 1.20012C78.7416 1.20012 78.7416 1.15212 78.6618 1.10411C78.582 1.05611 78.5022 0.912094 78.5421 0.86409C78.582 0.816084 78.9809 1.0081 78.941 1.05611C78.941 1.05611 78.941 1.05611 78.9011 1.10411C78.8214 1.29613 78.941 1.39214 79.1006 1.29613C79.2602 1.24813 79.3001 1.34414 79.3799 1.39214C79.4996 1.39214 79.4996 1.39214 79.4996 1.39214C79.6192 1.39214 79.8985 1.34414 80.0581 1.29613C80.0581 1.29613 80.0581 1.29613 80.1379 1.34414C80.2576 1.39215 80.2576 1.39214 80.2576 1.39214C80.3772 1.39214 80.5368 1.34414 80.6166 1.29613C80.6964 1.24813 81.0155 1.39214 81.0953 1.39214C81.1751 1.39214 81.3347 1.39214 81.4145 1.39214C81.4943 1.39214 81.7735 1.44015 81.8533 1.34414C81.9331 1.24813 82.2523 1.20012 82.372 1.34414C82.372 1.34414 82.372 1.34414 82.5714 1.29613C82.6911 1.24813 82.6911 1.24813 82.6911 1.24813C82.8507 1.24813 83.0502 1.29613 83.2097 1.29613C83.3294 1.29613 83.7284 1.20012 83.8879 1.15212C84.0475 1.10411 84.5661 1.20012 84.7257 1.20012C84.7257 1.20012 84.7257 1.20012 84.9252 1.29613C85.2045 1.48815 85.2045 1.48815 85.2045 1.48815C85.4438 1.44015 85.7231 1.34414 85.763 1.34414C85.8029 1.34414 86.0422 1.34414 86.1619 1.34414C86.2816 1.34414 86.6008 1.29613 86.6407 1.29613C86.6407 1.34414 86.7204 1.39215 86.7603 1.34414C86.8002 1.29613 86.9598 1.24813 86.9997 1.29613C86.9997 1.29613 86.9997 1.29613 87.0396 1.34414C87.0795 1.39215 87.0795 1.39214 87.0795 1.39214C87.1194 1.39214 87.1992 1.39215 87.2391 1.34414C87.279 1.29613 87.3588 1.24813 87.3987 1.29613C87.4385 1.34414 87.5981 1.24813 87.5981 1.24813C87.638 1.24813 87.7976 1.20012 87.9572 1.15212C87.9572 1.15212 87.9572 1.15212 88.1168 1.20012C88.1965 1.24813 88.2763 1.24813 88.3561 1.29613C88.4359 1.34414 88.5157 1.48816 88.6753 1.34414C88.6753 1.34414 88.7551 1.34414 88.795 1.39214C88.9545 1.53616 88.9944 1.58416 89.154 1.34414C89.2338 1.20012 89.2338 1.20012 89.2338 1.20012C89.3136 1.39215 89.3934 1.53616 89.4333 1.48815C89.4732 1.44015 89.5928 1.34414 89.5928 1.39214C89.5928 1.44015 89.7125 1.58416 89.7923 1.58416C89.8721 1.58416 90.0317 1.44015 90.0716 1.39214C90.1115 1.34414 90.2312 1.44015 90.271 1.39214C90.271 1.34414 90.3109 1.34414 90.3109 1.44015C90.3109 1.53616 90.5503 1.39215 90.5503 1.34414C90.7099 1.29613 90.7099 1.58416 90.9094 1.48815C91.029 1.44015 91.029 1.44015 91.029 1.44015C91.1886 1.44015 91.3482 1.44015 91.3881 1.44015C91.428 1.44015 91.5876 1.39214 91.7072 1.39214C91.8269 1.39214 92.1062 1.48815 92.186 1.39214C92.186 1.39214 92.186 1.39215 92.2658 1.34414C92.3057 1.29613 92.3057 1.29613 92.3057 1.29613C92.3855 1.29613 92.5051 1.39215 92.5849 1.44015C92.6647 1.48816 93.0637 1.34414 93.1035 1.39214C93.1434 1.44015 93.303 1.53616 93.3429 1.48815C93.3828 1.44015 93.5823 1.53616 93.5823 1.53616C93.5823 1.53616 93.5823 1.53616 93.6222 1.48815C93.6621 1.44015 93.6621 1.39214 93.702 1.39214C93.7818 1.39214 93.9413 1.34414 93.9413 1.48815C93.9413 1.53616 93.9413 1.53616 93.9413 1.53616C93.8216 1.58416 93.7818 1.68017 93.8216 1.68017C93.8615 1.72818 94.0211 1.72818 94.061 1.68017C94.1009 1.63217 94.2605 1.48815 94.2605 1.63217C94.2605 1.63217 94.2605 1.63217 94.2605 1.68017C94.2605 1.72818 94.3004 1.77618 94.3004 1.77618C94.3802 1.77618 94.3802 1.77618 94.3802 1.77618C94.46 1.77618 94.5397 1.82419 94.4999 1.9202C94.4999 1.9202 94.4999 1.9202 94.6594 1.87219C94.6993 1.87219 94.6993 1.87219 94.6993 1.87219C94.7392 1.82419 94.819 1.82419 94.9387 1.87219C95.0584 1.9682 95.4573 1.9682 95.5371 1.9682C95.6568 1.9682 95.9759 2.11222 96.0956 2.11222C96.1754 2.11222 96.4148 2.06421 96.4547 2.16022C96.4946 2.25624 96.8935 2.35225 96.9334 2.30424C97.1728 2.59227 97.1728 2.59227 97.1728 2.59227C97.5318 2.64027 97.8111 2.68828 97.851 2.68828C97.8909 2.68828 98.0505 2.68828 98.1701 2.68828C98.2898 2.68828 98.8084 2.64027 99.0079 2.64027C99.0079 2.64027 99.0079 2.64027 99.0478 2.9283C99.0478 2.97631 99.1276 3.02431 99.1675 2.97631C99.2872 2.9283 99.2872 2.9283 99.2872 2.9283C99.4069 2.97631 99.5664 3.07232 99.5664 3.12033C99.6063 3.16833 99.8058 3.26434 99.8856 3.26434C99.9654 3.26434 100.165 3.40836 100.205 3.36035C100.245 3.36035 100.324 3.36035 100.364 3.45636C100.364 3.45636 100.364 3.45636 100.404 3.50436C100.444 3.55237 100.524 3.55237 100.564 3.50436C100.723 3.40835 100.883 3.40835 100.963 3.40835C101.202 3.40835 101.082 3.50437 101.082 3.60037C101.082 3.64838 101.202 3.74439 101.043 3.74439C100.963 3.74439 100.883 3.79239 100.803 3.8404C100.723 3.8884 100.723 3.93641 100.803 3.98442C100.883 4.03242 100.883 4.03242 100.883 4.03242C100.803 4.08042 100.683 4.22444 100.564 4.32045C100.444 4.41646 100.364 4.75249 100.444 4.8005C100.444 4.8005 100.444 4.8005 100.524 4.8005C100.604 4.8005 100.604 4.8005 100.604 4.8005C100.683 4.75249 100.843 4.75249 100.923 4.8005C101.003 4.84851 101.003 5.28055 100.963 5.42456C100.923 5.56858 100.843 6.04863 100.883 6.04863C100.883 6.04863 101.003 6.00063 101.082 5.90462C101.082 5.90462 101.082 5.90462 101.202 6.04863C101.242 6.14464 101.242 6.14464 101.242 6.14464C101.242 6.24065 101.162 6.33666 101.122 6.43267C101.122 6.43267 101.122 6.43267 101.202 6.48067C101.242 6.48067 101.242 6.48067 101.242 6.48067C101.362 6.43267 101.441 6.43267 101.402 6.52868C101.402 6.52868 101.402 6.52868 101.402 6.57668C101.402 6.7687 101.402 6.76871 101.402 6.76871C101.481 6.96072 101.561 7.20075 101.561 7.24875C101.561 7.34476 101.441 7.6328 101.282 7.6808C101.122 7.72881 101.122 8.20885 101.242 8.16085C101.242 8.16085 101.242 8.16085 101.322 8.11284C101.402 8.06484 101.402 8.06484 101.402 8.06484C101.481 8.01683 101.641 8.11284 101.761 8.25686C101.761 8.25686 101.761 8.25686 101.721 8.40088C101.721 8.44888 101.721 8.49689 101.681 8.54489C101.561 8.68891 101.481 8.78492 101.402 8.88093C101.322 8.97694 101.242 8.73691 101.162 8.88093C101.162 8.92893 101.162 8.92893 101.162 8.92893C101.082 8.92893 101.082 8.97693 101.202 9.02494C101.202 9.02494 101.202 9.02494 101.202 9.07294C101.202 9.12095 101.162 9.21696 101.122 9.26497C101.082 9.31297 101.043 9.31297 101.003 9.31297C100.843 9.40898 100.843 9.64901 100.923 9.64901C101.043 9.69701 101.082 9.74502 101.122 9.84103C101.162 9.88903 101.162 9.88903 101.162 9.88903C101.322 9.88903 101.322 9.98504 101.122 10.033C100.923 10.081 100.444 10.3691 100.205 10.2251C100.205 10.2251 100.205 10.2251 99.9255 10.2731C99.8856 10.2731 99.7659 10.1771 99.726 10.0811C99.6861 9.88903 99.6861 9.88903 99.6861 9.88903C99.5664 9.93703 99.4867 10.081 99.5265 10.1771C99.5265 10.1771 99.5265 10.1771 99.5265 10.2731C99.4867 10.5131 99.4468 10.7531 99.4069 10.9931C99.4069 11.0411 99.4069 11.0412 99.4069 11.0412C99.2473 11.0892 99.1675 11.1852 99.1276 11.1852C99.0877 11.1852 98.968 11.3292 98.9281 11.3292C98.8483 11.3292 98.6489 11.3772 98.609 11.3772C98.5691 11.3772 98.4893 11.4732 98.4494 11.5212C98.4095 11.5692 98.2499 11.4252 98.2499 11.3772C98.21 11.3772 98.0903 11.3292 98.0903 11.4252C98.0903 11.5212 97.9707 11.7132 97.8909 11.6172C97.8111 11.5692 97.5717 11.6652 97.5717 11.7132C97.5717 11.7132 97.6116 11.8092 97.5318 11.8572C97.5318 11.8572 97.5318 11.8572 97.4919 11.8572C97.3723 11.8092 97.2127 11.6172 97.1728 11.9052C97.1329 11.9052 97.0531 11.9052 96.9733 11.8572C96.8935 11.8092 96.6542 11.9532 96.5744 11.9532C96.4946 11.9532 96.2951 11.9532 96.1754 11.9532C96.0557 11.9532 95.8563 12.1453 95.9361 12.1933C96.0158 12.2413 96.1754 12.4333 96.1355 12.5773C96.0956 12.7213 96.5345 13.1054 96.4946 13.1054C96.4547 13.1054 96.4148 13.2494 96.5345 13.3454C96.5345 13.3454 96.5345 13.3454 96.5345 13.4414C96.5345 13.6334 96.5345 13.6334 96.5345 13.6334C96.6542 13.6334 96.7738 13.6814 96.8536 13.7294C96.8536 13.7294 96.8536 13.7294 96.8935 13.7774C96.9733 13.9214 96.9733 13.9214 96.9733 13.9214C96.9334 14.0655 96.9334 14.3055 96.9733 14.4495C96.9733 14.4495 96.9733 14.4495 97.0132 14.5935C97.0132 14.6415 97.0132 14.6415 97.0132 14.6415C97.0132 14.6895 96.8935 14.6895 96.7738 14.5935C96.6542 14.4975 96.2951 14.6415 96.2951 14.6895C96.2951 14.7375 96.335 14.8335 96.4148 14.8335C96.4148 14.8335 96.4148 14.8335 96.4547 14.8335C96.5345 14.7855 96.5345 14.7855 96.5345 14.7855C96.6542 14.7375 96.694 14.7375 96.694 14.7855C96.694 14.7855 96.694 14.7855 96.694 14.8335C96.694 14.8815 96.694 14.8815 96.694 14.8815C96.694 14.9296 96.694 14.9776 96.7339 14.9776C96.7738 14.9776 96.8935 14.9296 96.9334 14.9776C96.9733 15.0256 96.8935 15.2656 96.8137 15.4096C96.8137 15.4096 96.8137 15.4096 96.6542 15.4576C96.6143 15.4576 96.5744 15.4576 96.5744 15.5056C96.6143 15.8417 96.6143 15.8417 96.6143 15.8417C96.335 15.9857 96.2153 16.0817 96.2552 16.1297C96.335 16.1777 96.5744 16.1297 96.6143 16.1297C96.6542 16.1297 96.9733 16.2737 97.2127 16.3697C97.2127 16.3697 97.2127 16.3697 97.452 16.3217C97.5717 16.3217 97.5717 16.3697 97.6116 16.4657C97.5717 16.6097 97.5717 16.6097 97.5717 16.6097C97.6515 16.5137 97.7712 16.4657 97.8909 16.5137C98.0106 16.5617 98.3297 16.7057 98.3696 16.7537C98.2898 16.8978 98.2898 16.8978 98.2898 16.8978C98.3297 17.0418 98.4095 17.1378 98.4494 17.1858C98.4893 17.2338 98.5691 17.2338 98.5691 17.2338C98.5691 17.2338 98.5691 17.2338 98.609 17.1858C98.6489 17.1378 98.6489 17.1378 98.6489 17.1378C98.6888 17.0898 98.8084 17.0418 98.8882 17.0418C98.968 16.9938 99.2473 16.9458 99.2872 16.9938C99.3271 17.0418 99.4069 17.2338 99.367 17.2818C99.3271 17.3298 99.0079 17.2338 98.8882 17.2338C98.8882 17.2338 98.8882 17.2338 98.8882 17.3298C98.8483 17.4258 98.9281 17.6178 98.968 17.6178C99.5265 17.6658 99.5265 17.6658 99.5265 17.6658C99.4468 18.0499 99.4468 18.3859 99.5265 18.3859C99.6063 18.3859 99.726 18.2419 99.7659 18.2419C99.8058 18.2419 99.8457 18.3379 99.8457 18.3379C99.8457 18.3379 99.8856 18.4339 99.9255 18.5299C99.9654 18.6259 99.8457 18.866 99.8058 18.962C99.8058 18.962 99.8058 18.962 99.8058 19.01C99.8058 19.058 99.8058 19.058 99.8058 19.058C99.8058 19.106 99.8856 19.154 99.9255 19.154C99.9255 19.154 99.9255 19.154 99.9654 19.154C100.005 19.154 100.005 19.154 100.005 19.154C100.045 19.154 100.085 19.154 100.125 19.202C100.045 19.298 100.045 19.298 100.045 19.298C99.9255 19.442 99.9255 19.538 100.085 19.49C100.085 19.49 100.085 19.49 100.165 19.49C100.324 19.49 100.324 19.49 100.324 19.49C100.484 19.49 100.644 19.538 100.683 19.634C100.683 19.634 100.683 19.634 100.683 19.682C100.644 20.1621 100.644 20.1621 100.644 20.1621C100.843 20.3541 101.043 20.5461 101.082 20.5941C101.082 20.5941 101.082 20.5941 101.082 20.6422C101.122 20.7382 101.122 20.7382 101.122 20.7382C101.122 20.8822 101.162 21.0742 101.202 21.2182C101.202 21.2182 101.202 21.2182 101.282 21.2662C101.561 21.2182 101.561 21.3622 101.521 21.5542C101.521 21.6023 101.521 21.6023 101.521 21.6023C101.521 21.7463 101.641 21.7943 101.801 21.6983C101.801 21.6983 101.801 21.6983 101.721 21.8903C101.641 22.0343 101.801 22.0343 101.84 22.0823C101.84 22.0823 101.96 21.8903 102 22.0823C102 22.1303 102 22.1303 102 22.1303C101.92 22.1783 101.84 22.2263 101.84 22.2263C101.84 22.2263 101.88 22.4183 101.96 22.5624C101.96 22.5624 101.96 22.5624 101.92 22.7544C101.92 22.8024 101.88 22.8504 101.88 22.8984C101.88 22.9464 101.88 22.9464 101.88 22.9464C101.92 22.9944 101.92 23.0424 101.88 23.0424C101.84 23.0424 101.641 23.0424 101.601 23.1384C101.561 23.2344 101.641 23.4744 101.601 23.5225C101.441 23.3784 101.322 23.3784 101.202 23.5705C101.082 23.7145 101.082 23.7145 101.082 23.7145C100.923 23.5705 100.803 23.5705 100.803 23.6185C100.803 23.6665 100.604 23.8585 100.444 23.9545C100.444 23.9545 100.444 23.9545 100.324 23.7145C100.245 23.5705 100.245 23.5705 100.245 23.5705C100.045 23.6665 99.9255 23.8105 99.9654 23.8105C100.005 23.8105 100.085 23.9065 100.085 23.9065C100.005 23.9065 99.9255 23.9065 99.8457 23.8585C99.8058 23.8585 99.8058 23.8585 99.8058 23.8585C99.7659 23.8585 99.726 23.8585 99.6861 23.9065C99.6462 23.9545 99.5265 23.9065 99.5265 23.9545C99.5265 24.0025 99.4468 24.0985 99.4069 24.0025C99.367 23.9065 99.1675 23.9545 99.0877 24.0985C99.0877 24.0985 99.0877 24.0985 99.0079 24.1945C98.968 24.2425 98.968 24.2425 98.968 24.2425C98.8882 24.2425 98.7686 24.2425 98.6888 24.1945C98.609 24.1465 98.2499 24.2425 98.21 24.1945C98.1302 24.1465 97.9308 24.0505 97.8909 24.1945C97.8909 24.1945 97.8909 24.1945 97.8111 24.2905C97.7313 24.3865 97.7313 24.3865 97.7313 24.3865C97.6116 24.3865 97.452 24.3865 97.4121 24.3385C97.3324 24.2905 97.2127 24.4826 97.1329 24.4826C97.0531 24.4826 96.8536 24.4345 96.8137 24.3865C96.7738 24.3385 96.6542 24.3385 96.6143 24.3865C96.5744 24.4826 96.4547 24.6746 96.3749 24.6266C96.2951 24.5786 96.1355 24.6266 96.0557 24.6746C96.0158 24.7226 95.8164 24.6266 95.8164 24.6266C95.8164 24.6266 95.8164 24.6266 95.8164 24.6746C95.8164 24.7706 95.8164 24.7706 95.8164 24.7706C95.7366 24.7706 95.577 24.6746 95.4174 24.6266C95.4174 24.6266 95.4174 24.6266 95.4174 24.8666C95.3775 24.8666 95.218 24.9146 95.0983 24.9626C94.9387 25.0106 94.4201 24.9146 94.3004 24.9146C94.3004 24.9146 94.3004 24.9146 94.2206 24.8666C94.0211 24.8666 93.9812 24.7226 93.9812 24.9146L93.8615 24.9626C93.7419 24.7706 93.5424 24.9146 93.5424 24.9626C93.4227 25.1066 93.2631 24.9146 93.1833 25.0586C93.1434 25.1066 93.1434 25.1066 93.1434 25.1066C92.944 25.0586 92.7844 24.9626 92.7445 24.9626C92.7046 24.9626 92.5849 25.0586 92.4652 25.1546C92.3456 25.2506 91.9865 25.1066 91.9865 25.1066C91.9865 25.3466 91.9865 25.3466 91.9865 25.3466C91.8269 25.2986 91.5477 25.2986 91.428 25.3946C91.428 25.3946 91.428 25.3946 91.3083 25.2026C91.1886 25.1546 91.1886 25.1546 91.1886 25.1546C91.0689 25.2026 90.9094 25.2986 90.8296 25.3466C90.8296 25.3466 90.8296 25.3466 90.7498 25.3466C90.7099 25.3466 90.7099 25.3466 90.7099 25.3466C90.67 25.3466 90.5902 25.3466 90.5104 25.3466C90.4306 25.3466 90.1115 25.3466 90.0317 25.3466C89.9519 25.3466 89.7125 25.4427 89.7125 25.3946C89.6726 25.3466 89.5928 25.2986 89.5928 25.3466C89.5928 25.3466 89.5928 25.3466 89.5529 25.3946C89.5131 25.4427 89.5131 25.4427 89.5131 25.4427C89.4732 25.4907 89.4732 25.4907 89.4333 25.4427C89.3934 25.3946 89.3934 25.3466 89.3535 25.2986C89.3535 25.2986 89.3535 25.2986 89.3136 25.2986C89.1939 25.3946 89.1939 25.3946 89.1939 25.3946C89.0343 25.4427 88.8349 25.4907 88.795 25.4907C88.795 25.4907 88.795 25.4907 88.7551 25.5387C88.5955 25.7307 88.5955 25.7307 88.5955 25.7307C88.5157 25.5387 88.396 25.4427 88.3561 25.4907C88.3162 25.5387 88.2364 25.6347 88.1965 25.6347C88.1566 25.6347 88.1168 25.7307 88.0769 25.9227C88.0769 25.9227 88.0769 25.9227 87.8375 25.6827C87.7976 25.6347 87.7976 25.6347 87.7976 25.6347C87.6779 25.6827 87.5183 25.6827 87.4385 25.6827C87.3588 25.6827 87.1992 25.6347 87.1992 25.6827C87.1992 25.7307 86.9598 25.7307 86.9199 25.7307C86.88 25.7307 86.8002 25.7787 86.8401 25.9707C86.8401 25.9707 86.8401 25.9707 86.6008 25.7307C86.5609 25.7307 86.4412 25.7787 86.3614 25.8267C86.3215 25.8267 86.3215 25.8267 86.3215 25.8267C86.2816 25.8747 86.0821 25.9227 85.9226 25.9707C85.7231 26.0187 85.2842 25.7787 85.2444 25.7787C85.2045 25.7787 84.9651 25.8267 84.8454 25.8747C84.7257 25.9227 84.1273 25.8747 84.0076 25.8747C84.0076 25.8747 84.0076 25.8747 83.9677 25.9227C83.7683 25.9707 83.7683 25.9707 83.7683 25.9707C83.6486 25.9227 83.5289 25.8747 83.4491 25.8267C83.4491 25.8267 83.4491 25.8267 83.3693 25.8267C83.2496 25.8267 83.2496 25.8267 83.2496 25.8267C83.13 25.8747 82.9704 25.9707 82.8906 25.9707C82.8108 25.9707 82.4916 26.0187 82.3321 26.0187C82.3321 26.0187 82.3321 26.0187 82.1725 26.0187C82.1326 26.0187 82.1326 26.0187 82.1326 26.0187C82.0927 26.0667 82.0129 26.0187 82.0129 25.9707C82.0129 25.9227 81.8134 25.9707 81.7735 25.9707C81.7336 26.0187 81.614 26.0667 81.5741 26.0667C81.5342 26.0667 81.3746 25.9707 81.3347 25.9707C81.2948 25.9707 81.0155 26.1147 80.8959 26.1147C80.8959 26.1147 80.8959 26.1147 80.856 26.0667C80.7762 25.9227 80.6565 26.2107 80.5767 26.0187C80.5368 25.9227 80.5368 25.9227 80.5368 25.9227C80.3772 26.0187 80.2177 26.0187 80.1778 26.0187C80.1379 25.9707 80.0182 25.9227 79.9783 25.9227C79.9783 25.9707 79.8985 26.0187 79.8985 26.0187C79.8985 26.0187 79.7788 26.0187 79.7389 26.0667C79.699 26.1147 79.3799 26.1147 79.1405 26.1627C79.1405 26.1627 79.1405 26.1627 78.9011 26.0667C78.7017 26.0187 78.4623 25.9707 78.2229 26.1627C78.1033 26.2587 78.1033 26.2587 78.1033 26.2587C77.9038 26.2107 77.7043 26.1627 77.7043 26.1147C77.6644 26.0667 77.5447 26.0667 77.5048 26.1627C77.4251 26.2587 77.1458 26.0667 77.1458 26.1147C77.1458 26.1627 77.066 26.2587 77.0261 26.1627C77.0261 26.1147 76.9463 26.0187 76.9064 26.1147C76.8665 26.2107 76.5474 26.0667 76.3878 26.1147C76.3878 26.1147 76.3878 26.1147 76.2282 26.0667C76.0287 26.1627 76.0287 26.1627 76.0287 26.1627C75.7894 26.2587 75.55 26.3067 75.5101 26.3067C75.5101 26.2587 75.4303 26.2107 75.3904 26.2587C75.3505 26.3067 75.2708 26.4028 75.2309 26.4028C75.0713 26.2587 75.0713 26.2587 75.0713 26.2587C74.8718 26.2587 74.5926 26.3067 74.4729 26.2587C74.3532 26.2587 73.9143 26.3067 73.8346 26.2107C73.8346 26.2107 73.8346 26.2107 73.7149 26.3547C73.7149 26.4028 73.5553 26.3067 73.4755 26.3067C73.2361 26.3067 73.2361 26.3067 73.2361 26.3067C72.9569 26.3067 72.5579 26.3547 72.3984 26.4028C72.3984 26.4028 72.3984 26.4028 72.2388 26.2107C72.1989 26.1627 72.1989 26.1627 72.1989 26.1627C72.1191 26.1627 71.9595 26.2107 71.8797 26.2107C71.7999 26.2107 71.6005 26.1627 71.6005 26.2107C71.6005 26.2587 71.3212 26.2587 71.2414 26.1147C71.2414 26.1147 71.2414 26.1147 71.0818 26.2587C71.0419 26.3067 71.0419 26.3067 71.0419 26.3067C70.9223 26.2587 70.7627 26.2587 70.6829 26.2587C70.6031 26.2587 70.4036 26.2107 70.3238 26.2107C70.3238 26.2107 70.3239 26.2107 70.2441 26.2107C70.2042 26.2107 70.1244 26.2107 70.0845 26.2107C70.0446 26.2107 69.9648 26.2587 69.9249 26.2587C69.885 26.2587 69.885 26.2587 69.885 26.2587C69.8451 26.2587 69.7653 26.2587 69.6855 26.2587C69.6058 26.2587 69.4462 26.2107 69.3265 26.1147C69.3265 26.1147 69.3265 26.1147 69.3265 26.3067C69.2866 26.3067 69.0472 26.2587 68.8876 26.1627C68.8876 26.1627 68.8876 26.1627 68.7281 26.1627C68.6084 26.1627 68.6084 26.1627 68.6084 26.1627C68.4488 26.2587 68.2892 26.3067 68.2493 26.3547C68.2094 26.3547 68.0898 26.3067 68.01 26.1627C68.01 26.1627 68.01 26.1627 67.8504 26.2107C67.7706 26.2587 67.611 26.2587 67.5711 26.2107C67.4116 26.1627 67.3717 26.4508 67.252 26.4028C67.1323 26.3547 67.1323 26.3547 67.1323 26.3547C66.9727 26.3547 66.7732 26.3067 66.6935 26.2587C66.6935 26.2587 66.6935 26.2587 66.6536 26.3067C66.494 26.4508 66.494 26.4508 66.494 26.4508C66.2945 26.3547 66.1349 26.3067 66.095 26.3547C66.0551 26.4028 65.9355 26.4508 65.8956 26.4028C65.8557 26.3547 65.736 26.2107 65.736 26.2107C65.736 26.2107 65.6163 26.2587 65.5365 26.3067C65.4567 26.3547 65.0179 26.3547 64.8982 26.3547C64.7785 26.3547 64.4195 26.3547 64.2998 26.3067C64.1801 26.2587 63.9407 26.4028 63.861 26.3547C63.6216 26.6908 63.6216 26.6908 63.6216 26.6908C63.2625 26.5948 62.9434 26.4508 62.8636 26.4508C62.7838 26.4508 62.6242 26.4988 62.6242 26.4028C62.6242 26.3067 62.3051 26.4988 62.2253 26.5468C62.1455 26.5948 61.9859 26.5468 61.9061 26.5468C61.8662 26.5468 61.7067 26.5948 61.6668 26.5468C61.6668 26.4988 61.587 26.4508 61.5471 26.4508C61.5072 26.4988 61.3476 26.5948 61.188 26.5948C61.188 26.5948 61.188 26.5948 61.0684 26.5468L60.7093 26.4028C60.6295 26.4508 60.6295 26.4508 60.6295 26.4508C60.5098 26.5468 60.43 26.5468 60.43 26.5468C60.43 26.4988 60.2705 26.4028 60.1907 26.3547C60.1907 26.3547 60.1907 26.3547 59.9912 26.5468C59.9513 26.5468 59.9513 26.5468 59.9513 26.5468C59.9114 26.5468 59.8316 26.4988 59.7917 26.4988C59.7518 26.4508 59.4327 26.4988 59.2332 26.5468C59.1534 26.6428 59.1534 26.6428 59.1534 26.6428C59.0736 26.5948 58.9938 26.4508 59.0337 26.3067C59.0337 26.3067 59.0337 26.3067 58.7944 26.4508C58.6348 26.5468 58.6348 26.5468 58.6348 26.5468C58.6348 26.4028 58.6348 26.3547 58.6348 26.4508C58.6348 26.5468 58.3555 26.4028 58.3555 26.4028C58.3555 26.4028 58.2358 26.4508 58.1162 26.4508C58.0364 26.4508 57.6773 26.3547 57.5576 26.3547C57.438 26.3547 57.2385 26.4508 57.1986 26.4508C57.1587 26.4508 57.0789 26.3067 57.039 26.3067C57.039 26.3067 56.9991 26.3547 56.9592 26.4028C56.9193 26.4508 56.7199 26.4988 56.6401 26.4508C56.6401 26.4508 56.6401 26.4508 56.5603 26.4508C56.5204 26.4508 56.4406 26.5468 56.4406 26.4988C56.3209 26.4028 56.3209 26.4028 56.3209 26.4028C56.2012 26.4508 55.9619 26.4508 55.8023 26.4028C55.8023 26.4028 55.8023 26.4028 55.6427 26.3547C55.6028 26.3547 55.6028 26.3547 55.6028 26.3547C55.523 26.3547 55.4432 26.4028 55.4033 26.4028C55.3635 26.4508 55.2039 26.4508 55.1241 26.4988C55.0842 26.5468 54.7251 26.4508 54.5656 26.4508C54.5656 26.4508 54.5656 26.4508 54.406 26.4508C54.2863 26.4508 54.2863 26.4508 54.2863 26.4508C54.1267 26.4028 54.007 26.4028 53.9671 26.4028C53.9273 26.4028 53.7677 26.4988 53.648 26.4988C53.648 26.4988 53.648 26.4988 53.5682 26.4508C53.4884 26.4028 53.4086 26.2587 53.4086 26.4988C53.4086 26.4988 53.3288 26.4988 53.2889 26.4988C53.0895 26.4988 52.8501 26.4028 52.6506 26.4508C52.4911 26.4988 52.4911 26.4988 52.4911 26.4988C52.3714 26.4508 52.2517 26.4028 52.2118 26.4028C52.1719 26.4028 52.0123 26.4508 51.9325 26.4508C51.8527 26.4988 51.3341 26.4508 51.1745 26.4028C51.015 26.3547 50.616 26.5948 50.5362 26.5948C50.4564 26.5948 50.0974 26.6428 49.9777 26.6908C49.858 26.7388 49.5788 26.4988 49.5788 26.4988C49.5389 26.4988 49.3793 26.6428 49.2995 26.5468C49.2995 26.5468 49.2995 26.5468 49.2197 26.5468C49.1399 26.5468 49.0202 26.6428 48.9405 26.5948C48.7809 26.5468 48.7809 26.5468 48.7809 26.5468C48.7011 26.6428 48.5814 26.6908 48.5415 26.6908C48.5415 26.6908 48.5415 26.6908 48.5016 26.6428C48.4218 26.5948 48.4218 26.5948 48.4218 26.5948C48.342 26.5468 48.2622 26.4988 48.2224 26.5468C48.1825 26.5948 48.1027 26.6428 48.0628 26.5948C48.0628 26.5468 47.8234 26.5468 47.7835 26.5948C47.7436 26.6428 47.584 26.6908 47.5441 26.6428C47.5043 26.5948 47.3846 26.4508 47.3846 26.4508C47.2649 26.6908 47.1053 26.4988 46.9457 26.4988C46.8659 26.4988 46.8659 26.4988 46.8659 26.4988C46.7463 26.5468 46.6665 26.5468 46.5867 26.5468C46.5468 26.5468 46.4271 26.5468 46.3473 26.4988C46.2675 26.4508 45.9484 26.5468 45.7888 26.5468C45.7888 26.5468 45.7888 26.5468 45.6292 26.5948C45.5494 26.5948 45.4297 26.4988 45.35 26.5468C45.1904 26.5948 45.1904 26.5948 45.1904 26.5948C45.0308 26.5468 44.8313 26.5468 44.7116 26.4988C44.7116 26.4988 44.7116 26.4988 44.592 26.4988C44.3925 26.5468 44.3925 26.5468 44.3925 26.5468C44.1531 26.5468 43.9537 26.5948 43.9138 26.5948C43.8739 26.5948 43.7542 26.4988 43.7143 26.4508C43.6744 26.3547 43.3951 26.4988 43.3552 26.4508C43.3153 26.4028 43.1957 26.3547 43.1558 26.3547C43.1558 26.4028 43.2356 26.5468 43.2356 26.5468C43.1159 26.5948 43.1159 26.5948 43.1159 26.5948C43.076 26.4988 43.0361 26.4028 42.9962 26.3547C42.9563 26.3547 42.8765 26.4028 42.8366 26.4028C42.7967 26.4508 42.677 26.4988 42.6371 26.4508C42.5972 26.4028 42.4776 26.4508 42.4776 26.5948C42.4776 26.5948 42.4776 26.5948 42.2781 26.4988C42.318 26.4028 42.2382 26.3547 42.0786 26.4028C41.9589 26.4508 41.5999 26.2587 41.5999 26.2587C41.5999 26.2587 41.5999 26.2587 41.5999 26.3067C41.5999 26.4988 41.5999 26.4988 41.5999 26.4988C41.4802 26.4508 41.3605 26.4028 41.3206 26.3547C41.2807 26.3067 41.2009 26.2587 41.161 26.3067C41.1212 26.3547 41.0414 26.4508 40.9616 26.4028C40.8818 26.3547 40.5227 26.4508 40.4429 26.4508C40.3632 26.4508 40.0839 26.3067 40.0839 26.2587C40.0839 26.2107 39.8046 26.3067 39.7647 26.3547C39.7248 26.4028 39.5254 26.4508 39.4855 26.2587C39.4855 26.2587 39.4855 26.2587 39.286 26.3067C39.0865 26.3547 39.4057 26.4988 39.2461 26.4988C39.0865 26.4988 39.0865 26.4988 39.0865 26.4988C38.927 26.4988 38.528 26.4988 38.2089 26.4988C38.2089 26.4988 38.2089 26.4988 37.9296 26.4988C37.77 26.4988 37.6503 26.4988 37.4908 26.4988C37.3711 26.4988 37.3711 26.4988 37.3711 26.4988C37.2514 26.4508 37.0519 26.5468 36.9322 26.6428C36.9322 26.6428 36.9322 26.6428 36.8126 26.4508C36.7328 26.3547 36.7328 26.3547 36.7328 26.3547C36.7328 26.4508 36.653 26.5948 36.5732 26.6428C36.5732 26.6428 36.5732 26.6428 36.4934 26.5468C36.4136 26.4028 36.4136 26.4028 36.4136 26.4028C36.2939 26.4508 36.1343 26.4988 36.0147 26.4988C35.895 26.4988 35.6157 26.5948 35.5359 26.6428C35.4561 26.6908 35.1769 26.5468 35.0971 26.5468C35.0173 26.5468 34.738 26.4988 34.6583 26.4988C34.6184 26.5468 34.4189 26.5948 34.2992 26.6428C34.2992 26.6428 34.2992 26.6428 34.2194 26.6908C34.0199 26.7868 34.0199 26.7868 34.0199 26.7868C33.9402 26.6428 33.8604 26.5948 33.8604 26.6428C33.8604 26.6908 33.7407 26.8348 33.621 26.7868C33.5013 26.7388 33.1423 26.6428 33.0625 26.6428C32.9428 26.6428 32.5837 26.8348 32.3843 26.8348C32.3843 26.8348 32.3843 26.8348 32.2247 26.8348C32.0651 26.8348 31.9055 26.8828 31.7061 26.8348C31.5864 26.8348 31.5864 26.8348 31.5864 26.8348C31.5066 26.8828 31.347 26.8828 31.2273 26.8828C31.2273 26.8828 31.2273 26.8828 31.1874 26.9308C31.0279 27.0268 30.988 26.9788 30.9481 26.8348C30.8683 26.8348 30.6289 26.9308 30.4693 27.0748C30.4693 27.0748 30.4693 27.0748 30.23 26.8828C30.1901 26.8828 30.1901 26.8828 30.1901 26.8828C30.1502 26.8828 30.1502 26.9308 30.1502 26.9788C30.1502 27.0268 29.831 26.9788 29.7512 26.9308C29.6715 26.8828 29.3922 26.9308 29.3124 26.9308C29.2326 26.9308 28.9932 27.0268 28.9135 27.0268C28.8337 27.0268 28.5943 27.1228 28.4746 27.0748C28.3549 27.0268 27.9161 27.0748 27.8363 27.0748C27.7964 27.0268 27.6368 26.9308 27.6368 26.9788C27.6368 27.0268 27.5571 27.0748 27.5172 26.9788C27.5172 26.9788 27.5172 26.9788 27.4773 26.9788C27.3975 26.9308 27.3975 26.9308 27.3975 26.9308C27.3177 26.9308 27.0783 26.9788 26.9187 26.9788C26.9187 26.9788 26.9187 26.9788 26.839 27.0268C26.7193 27.1228 26.7193 27.1228 26.7193 27.1228C26.6395 27.0748 26.5198 27.0268 26.4799 27.0268C26.44 27.0268 26.3203 27.0748 26.2804 27.1228C26.2405 27.1228 26.0012 27.0748 25.8815 27.0268C25.7618 26.9788 25.4028 27.1228 25.3629 27.1228C25.323 27.1228 25.1634 26.9308 25.1634 26.9788C25.1634 27.0268 25.0437 27.1708 24.924 27.1708C24.924 27.1708 24.924 27.1708 24.8442 27.1708C24.7245 27.1708 24.7245 27.1708 24.7245 27.1708C24.6049 27.1228 24.4054 27.0748 24.2857 27.0748C24.166 27.0748 23.8868 27.2188 23.807 27.2188C23.7272 27.2188 23.5277 27.1708 23.5277 27.2188C23.5277 27.2668 23.4479 27.4109 23.4479 27.4109C23.3282 27.2668 23.2086 27.1228 23.0091 27.3148C22.9293 27.3629 22.9293 27.3629 22.9293 27.3629C22.8096 27.3148 22.65 27.3148 22.6102 27.3148C22.5703 27.3148 22.3708 27.2668 22.3309 27.2668C22.3309 27.2668 22.3309 27.2668 22.291 27.2668C22.1713 27.3148 22.1713 27.3148 22.1713 27.3148C22.0117 27.3629 21.8123 27.3629 21.6926 27.3629C21.6926 27.3629 21.6926 27.3629 21.5729 27.3629C21.4931 27.3629 21.4931 27.3629 21.4931 27.3629C21.3734 27.4589 21.2537 27.5069 21.2138 27.4589C21.174 27.4109 21.0543 27.3148 21.0144 27.3629C20.9745 27.4109 20.7351 27.5069 20.6952 27.4589C20.6553 27.4109 20.4558 27.3148 20.2564 27.3148C20.2564 27.3148 20.2564 27.3148 20.1367 27.2668C20.017 27.2188 20.017 27.2188 20.017 27.2188C19.9372 27.2668 19.7776 27.3148 19.658 27.3148C19.658 27.3148 19.658 27.3148 19.5782 27.3629C19.5383 27.3629 19.5383 27.3629 19.5383 27.3629C19.4585 27.3629 19.259 27.4109 19.0595 27.4589C19.0595 27.4589 19.0595 27.4589 18.8601 27.3148C18.7404 27.2188 18.7404 27.2188 18.7404 27.2188C18.5409 27.2188 18.3813 27.3148 18.3813 27.4109C18.3813 27.5069 18.142 27.4589 18.0622 27.4109C18.0223 27.3629 17.7829 27.3629 17.7031 27.3629C17.6234 27.3629 17.4239 27.4589 17.4239 27.4589C17.4239 27.4589 17.3441 27.4109 17.3042 27.3629C17.2643 27.3148 16.9451 27.2668 16.985 27.3148C17.0249 27.3629 17.0249 27.4109 16.8654 27.3629C16.8654 27.3629 16.8654 27.3629 16.7058 27.5069C16.626 27.5549 16.4265 27.5069 16.3068 27.5069C16.1871 27.5069 16.1871 27.5069 16.1871 27.5069C16.1074 27.4109 16.0276 27.3629 15.9877 27.3629C15.9478 27.3629 15.7483 27.3629 15.5488 27.3148C15.5488 27.3148 15.5488 27.3148 15.4292 27.5069C15.3893 27.5549 15.3893 27.5549 15.3893 27.5549C15.1898 27.4589 15.0701 27.4589 15.0701 27.5069C15.0701 27.5549 15.11 27.6989 15.11 27.6989C15.11 27.6989 14.9504 27.7469 14.8307 27.7469C14.7111 27.7469 14.352 27.6509 14.3121 27.6509C14.3121 27.6509 14.3121 27.6509 14.2722 27.6509C14.1525 27.6029 14.1525 27.6029 14.1525 27.6029C13.993 27.6029 13.8334 27.6029 13.7536 27.5549C13.6738 27.5069 13.4344 27.7469 13.2749 27.8909C13.2749 27.8909 13.2749 27.8909 13.1153 27.8429C12.9158 27.7469 12.9158 27.7469 12.9158 27.7469C12.7961 27.8429 12.7163 27.9389 12.6764 27.9389C12.6366 27.9389 12.5967 27.9389 12.5568 27.9869C12.5169 28.0349 12.3174 27.9389 12.2376 27.8909C12.1977 27.8429 11.9583 27.7949 11.9982 27.8909C12.0381 27.9869 11.7988 27.8909 11.7589 27.9389C11.719 27.9869 11.5195 27.9389 11.4796 27.8909C11.3998 27.8429 11.1605 27.8429 11.1605 27.8909C11.1605 27.9389 10.961 27.9869 10.6019 27.9869C10.6019 27.9869 10.6019 27.9869 10.4823 27.8909C10.2429 27.6989 10.2429 27.6989 10.2429 27.6989C10.203 27.8909 10.1232 27.9389 10.0035 27.8429C10.0035 27.8429 10.0035 27.8429 9.80405 27.9389C9.56468 28.0349 9.28542 27.9869 9.04606 27.8429C8.96627 27.7949 8.80669 27.6989 8.64711 27.7949C8.56732 27.8429 8.36785 27.7469 8.24817 27.6509C8.16838 27.6029 8.40775 27.5549 8.24817 27.5069C8.20827 27.5069 8.12848 27.6029 8.08858 27.5549C8.0088 27.5549 7.84923 27.5069 7.84923 27.4589C7.76944 27.2668 7.76943 27.2668 7.76943 27.2668C7.56996 27.2188 7.3306 27.1228 7.21091 27.0748C7.09123 27.0268 6.69229 26.9788 6.6524 26.9788C6.5726 26.9788 6.37313 26.9308 6.29334 26.9308C6.25345 26.9308 6.13377 26.9788 6.13377 26.8828C6.13377 26.7868 5.8944 26.9308 5.85451 26.9308C5.81461 26.9308 5.61514 26.9308 5.49545 26.9308C5.33588 26.9308 4.97683 26.7388 4.93694 26.7388C4.89704 26.7388 4.77735 26.7388 4.77735 26.6908C4.77735 26.6428 4.65767 26.4988 4.49809 26.5468C4.33852 26.5948 3.89968 26.4028 3.7401 26.3547C3.7401 26.3547 3.7401 26.3547 3.7002 26.1147C3.66031 26.0187 3.42094 25.9707 3.38105 25.7787C3.34116 25.6827 3.34116 25.6827 3.34116 25.6827C3.18158 25.5867 3.022 25.5387 2.9821 25.5387C2.94221 25.5387 2.90232 25.4427 2.94221 25.3466C2.78264 25.2986 2.78263 25.2986 2.78263 25.2986C2.82253 25.2026 2.86243 25.0106 2.86243 24.9146C2.86243 24.9146 2.86243 24.9146 2.86243 24.8186C2.82253 24.6266 2.82253 24.6266 2.82253 24.6266C2.78263 24.3865 2.70285 24.1945 2.66296 24.1945C2.66296 24.1945 2.66295 24.1945 2.62305 24.1945C2.58316 24.1945 2.58316 24.1945 2.58316 24.1945C2.54327 24.1945 2.50337 24.1945 2.50337 24.1465C2.50337 24.0985 2.58317 24.0505 2.66296 24.0025C2.66296 24.0025 2.66296 24.0025 2.74274 23.9545C2.74274 23.9545 2.74274 23.9065 2.74274 23.8585C2.74274 23.8585 2.70285 23.8585 2.66296 23.8585L2.62305 23.9065C2.54327 23.9065 2.54327 23.9065 2.54327 23.9065C2.46348 23.9065 2.38369 23.9065 2.38369 23.8585C2.38369 23.8105 2.3039 23.6665 2.22411 23.5705C2.22411 23.5705 2.22411 23.5705 2.14433 23.4744C2.10443 23.4264 2.10443 23.4264 2.10443 23.4264C2.10443 23.2824 2.18422 23.2344 2.3039 23.2824C2.42358 23.3304 2.70284 23.2824 2.62305 23.0424C2.50337 22.7544 2.50337 22.0343 2.58316 22.0343C2.70284 21.9863 2.94221 21.8903 2.90231 21.8903C2.86242 21.8903 2.74274 21.7943 2.66296 21.6983C2.66296 21.6983 2.66295 21.6983 2.62305 21.6023C2.50337 21.3622 2.46348 21.7463 2.3438 21.6023C2.3039 21.5542 2.3039 21.5542 2.3039 21.5542C2.18422 21.5062 2.10443 21.4102 2.14433 21.3142C2.18422 21.2182 2.06454 20.8342 2.02464 20.6422C2.02464 20.6422 2.02464 20.6422 2.10443 20.4501C2.18422 20.2581 2.02464 19.9221 1.82517 19.9221C1.66559 19.9221 1.6656 19.9221 1.6656 19.9221C1.46613 19.8741 1.38633 19.8261 1.46613 19.8261C1.54591 19.8261 1.82517 19.7301 1.82517 19.682C1.82517 19.634 1.74538 19.394 1.62569 19.442C1.62569 19.442 1.62569 19.442 1.50601 19.442C1.42622 19.442 1.42622 19.442 1.42622 19.442C1.34644 19.442 1.26665 19.442 1.18686 19.394C1.10707 19.346 0.787918 19.394 0.668236 19.394C0.508659 19.394 0.349075 19.01 0.349075 18.962C0.349075 18.962 0.349075 18.962 0.428864 18.962C0.58844 19.01 0.668228 18.866 0.628334 18.7219C0.58844 18.6259 0.548553 18.5299 0.468765 18.4819C0.309181 18.3859 0.309181 18.3859 0.309181 18.3859C0.309181 18.1939 0.269287 18.0979 0.229393 18.1459C0.229393 18.1459 0.229393 18.1459 0.189499 18.1459C0.149605 18.1459 0.0698166 18.1459 0.0299225 18.0979C-0.00997162 18.0499 -0.00997162 18.0019 0.0299225 17.9539C0.109711 17.8579 0.189499 17.7619 0.349075 17.8099C0.388969 17.8099 0.428864 17.7618 0.428864 17.7138C0.428864 17.6658 0.388969 17.6178 0.349075 17.6178C0.229393 17.5698 0.229393 17.5698 0.229393 17.5698C0.109711 17.5218 0.109711 17.4258 0.229393 17.3298C0.229393 17.3298 0.229393 17.3298 0.349075 17.3298C0.468758 17.3298 0.468765 17.3298 0.468765 17.3298C0.628342 17.4258 0.748024 17.3778 0.748024 17.2338C0.748024 17.2338 0.748016 17.2338 0.78791 17.1378C0.827805 16.9938 0.827812 16.9938 0.827812 16.9938C0.947495 16.9458 1.14697 16.8978 1.22675 16.8978C1.30654 16.8978 1.30654 16.6097 1.22675 16.4177C1.18686 16.2737 1.06718 15.7456 1.14697 15.6976C1.22675 15.6496 1.14697 15.3616 1.10707 15.3136C1.06718 15.2656 0.987389 15.0736 1.02728 15.0736C1.02728 15.0736 1.02728 15.0736 1.10707 15.0256C1.18686 14.9776 1.26665 15.1696 1.34644 15.0256C1.42622 15.0256 1.54591 15.0736 1.62569 15.1216C1.70548 15.1696 2.06453 15.0736 2.18422 15.0736C2.3438 15.0256 2.78263 15.1696 2.90231 15.2656C3.022 15.3136 3.46084 15.3136 3.54063 15.3136C3.62041 15.3136 3.85978 15.4576 3.89967 15.4096C3.93957 15.3616 3.97946 15.1696 3.97946 15.0736C3.97946 14.9776 3.7002 14.9296 3.62041 14.9296C3.62041 14.9296 3.62041 14.9296 3.58052 14.8815C3.50073 14.8335 3.58052 14.6415 3.38105 14.6895C3.34116 14.6895 3.34116 14.6895 3.34116 14.6895C3.30126 14.5935 3.18158 14.5455 3.10179 14.6415C3.10179 14.6415 3.10179 14.6415 3.10179 14.4015C3.10179 14.3535 3.10179 14.3535 3.10179 14.3535C2.98211 14.3055 2.82253 14.3055 2.70284 14.3055C2.70284 14.3055 2.70285 14.3055 2.66296 14.1615C2.66296 14.0655 2.66296 14.0655 2.66296 14.0655C2.62306 13.9214 2.66295 13.8734 2.70284 13.9214C2.74274 13.9695 2.98211 13.9695 3.022 13.9695C3.0619 13.9214 3.22147 13.8734 3.30126 13.9695C3.38105 14.0175 3.62041 14.2575 3.62041 14.2095C3.58052 14.0655 3.46084 13.9214 3.46084 13.7774C3.50073 13.6334 3.50073 13.6334 3.50073 13.6334C3.66031 13.4414 3.7401 13.2974 3.66032 13.2494C3.62042 13.2014 3.42094 13.2014 3.34116 13.2974C3.34116 13.2974 3.34116 13.2974 3.30126 13.3934C3.26137 13.4414 3.26137 13.4414 3.26137 13.4414C3.26137 13.5374 3.22147 13.5854 3.22147 13.5854C3.10179 13.4414 3.10179 13.4414 3.10179 13.4414C2.98211 13.5374 2.82253 13.5854 2.78263 13.5374C2.74274 13.5374 2.74274 13.3934 2.90231 13.2494C2.90231 13.2494 2.90232 13.2494 2.82253 13.0574C2.78263 13.0094 2.78263 13.0094 2.78263 13.0094C2.66295 13.0574 2.54327 12.9613 2.50337 12.7693C2.46348 12.6253 2.38369 12.4333 2.38369 12.4333C2.38369 12.4333 2.54327 12.3853 2.62305 12.4813C2.62305 12.4813 2.62305 12.4813 2.70284 12.5293C2.74274 12.5293 2.82253 12.4813 2.82253 12.4333C2.86243 12.3853 2.86243 12.2413 2.82253 12.1933C2.78263 12.1453 2.54327 12.0973 2.58316 12.0493C2.62305 12.0013 2.82253 11.8092 2.78263 11.7612C2.74274 11.7132 2.66295 11.5692 2.62305 11.6172C2.62305 11.6172 2.62305 11.6172 2.58316 11.6172C2.46348 11.6652 2.3438 11.5212 2.22411 11.2812C2.18422 11.1852 2.18422 11.1852 2.18422 11.1852C2.26401 11.0892 2.3039 10.9931 2.3438 10.9451C2.38369 10.9451 2.38369 10.8491 2.3039 10.8011C2.3039 10.8011 2.3039 10.8011 2.26401 10.8011C2.10443 10.8011 2.06454 10.7531 2.14433 10.6091C2.14433 10.5611 2.18422 10.5131 2.18422 10.5131C2.10443 10.4651 2.10443 10.4651 2.10443 10.4651C2.10443 10.3691 2.22411 10.3211 2.3039 10.3691C2.3039 10.3691 2.3039 10.3691 2.3438 10.4651C2.3438 10.5131 2.3438 10.5131 2.3438 10.5131C2.54327 10.5131 2.54327 10.4651 2.3438 10.3691C2.3438 10.3691 2.3438 10.3691 2.42358 10.1771C2.46348 10.081 2.46348 10.0811 2.46348 10.0811C2.50338 9.93704 2.50338 9.84102 2.46348 9.79302C2.42358 9.74501 2.3438 9.55299 2.38369 9.45698C2.42358 9.36097 2.70284 9.26497 2.70284 9.21696C2.70284 9.21696 2.70285 9.21696 2.66296 9.16895C2.62306 9.07294 2.62305 9.07294 2.62305 9.07294C2.58316 8.92893 2.58316 8.88092 2.62305 8.92893C2.66295 8.97693 2.86242 9.02494 2.90231 8.97693C2.94221 8.97693 3.14169 8.97693 3.22147 8.97693C3.30126 8.97693 3.46084 8.97693 3.42094 8.92893C3.38105 8.88092 3.26137 8.78491 3.22147 8.73691C3.18158 8.6889 2.9821 8.78492 2.9821 8.78492C2.9821 8.78492 2.94221 8.73691 2.94221 8.6409C2.94221 8.54489 2.66295 8.6409 2.62305 8.6409C2.58316 8.6409 2.50337 8.5929 2.58316 8.54489C2.66295 8.49689 2.90232 8.40088 2.94221 8.44888C2.94221 8.49689 3.0619 8.54489 3.10179 8.54489C3.14169 8.54489 3.26137 8.30486 3.30126 8.30486C3.34116 8.30486 3.50073 8.20885 3.54063 8.06484C3.54063 8.06484 3.54063 8.06484 3.50073 7.92083C3.46084 7.77681 3.38105 7.72881 3.26137 7.6808C3.22147 7.6808 3.22147 7.6808 3.22147 7.6808C3.18158 7.6328 3.18158 7.53679 3.26137 7.48878C3.30126 7.39277 3.54063 7.24876 3.58052 7.20075C3.62041 7.15275 3.62041 7.00873 3.62041 7.00873C3.66031 7.00873 3.7002 6.91272 3.7002 6.91272C3.7002 6.91272 3.7002 6.81671 3.62041 6.76871C3.58052 6.7207 3.46084 6.48067 3.46084 6.33666C3.46084 6.33666 3.46084 6.33666 3.54063 6.24065C3.70021 6.04863 3.66031 5.90462 3.42094 5.80861C3.22147 5.71259 3.22147 5.71259 3.22147 5.71259C3.34116 5.56858 3.46084 5.37656 3.54063 5.28055C3.58052 5.18454 3.7401 5.08853 3.62041 5.08853C3.62041 5.08853 3.62041 5.08853 3.62041 4.89651C3.62041 4.8005 3.62041 4.8005 3.62041 4.8005C3.62041 4.70449 3.58052 4.51247 3.58052 4.41646C3.58052 4.41646 3.58052 4.41646 3.50073 4.36845C3.42094 4.27244 3.42094 4.27244 3.42094 4.27244C3.46084 4.17643 3.50073 3.98442 3.54063 3.8884C3.54063 3.8884 3.54063 3.8884 3.46084 3.79239C3.26137 3.50436 3.26137 3.50436 3.26137 3.50436C3.42094 3.36035 3.58052 3.26434 3.58052 3.26434C3.58052 3.26434 3.46084 2.97631 3.26137 2.68828C3.26137 2.68828 3.26137 2.68828 3.10179 2.40025C3.0619 2.30424 3.0619 2.30424 3.0619 2.30424C3.14169 2.35225 3.22147 2.35224 3.26137 2.35224C3.26137 2.35224 3.34116 2.35225 3.42094 2.30424C3.50073 2.25624 3.66031 2.16022 3.7002 2.16022C3.7401 2.16022 3.93958 2.11222 4.01936 2.06421C4.01936 2.06421 4.01936 2.06421 4.09915 2.01621C4.21883 1.9682 4.21883 1.9682 4.21883 1.9682C4.33852 1.9682 4.65767 1.9202 4.89703 1.87219C5.13641 1.82419 5.97419 1.72818 6.13377 1.68017C6.13377 1.68017 6.13377 1.68017 6.25345 1.68017C6.37313 1.68017 6.37313 1.68017 6.37313 1.68017C6.53271 1.63217 6.85186 1.58416 7.17101 1.58416C7.17101 1.58416 7.17102 1.58416 7.45028 1.58416C7.56996 1.58416 7.56996 1.58416 7.56996 1.58416C7.68964 1.53616 7.88911 1.39214 8.0088 1.29613C8.0088 1.29613 8.0088 1.29613 8.12849 1.48815C8.12849 1.53616 8.36785 1.44015 8.36785 1.44015C8.44764 1.63217 8.56732 1.29613 8.64711 1.48815C8.687 1.53616 8.687 1.53616 8.687 1.53616C8.84658 1.44015 9.00616 1.39214 9.08595 1.39214C9.20563 1.29613 9.20564 1.29613 9.20564 1.29613C9.36521 1.29613 9.56468 1.29613 9.64447 1.24813C9.72426 1.20012 10.0035 1.29613 10.0434 1.29613C10.1232 1.29613 10.4424 1.24813 10.6019 1.24813C10.7615 1.24813 11.2402 1.10411 11.2801 1.15212C11.32 1.20012 11.5993 1.05611 11.7589 1.0081C11.7589 1.0081 11.7589 1.0081 11.8786 1.05611C12.0381 1.10411 12.0381 1.10411 12.0381 1.10411C12.2376 1.05611 12.4371 1.05611 12.5568 1.0081C12.6764 1.0081 12.9158 0.912094 12.9158 0.9601C12.9158 1.0081 13.1153 0.9601 13.235 0.86409C13.3547 0.76808 13.7536 0.912094 13.8334 0.86409C13.8334 0.86409 13.8334 0.864088 13.8733 0.912094C14.0329 1.0081 14.0329 1.0081 14.0329 1.0081C14.1525 0.912094 14.3919 0.864088 14.5515 0.912094C14.5515 0.912094 14.5515 0.912094 14.6712 0.86409C14.7908 0.816084 14.7908 0.816084 14.7908 0.816084C14.9105 0.864088 15.1499 0.912094 15.3095 0.86409C15.3095 0.86409 15.3095 0.86409 15.4292 0.86409C15.5488 0.86409 15.5488 0.86409 15.5488 0.86409C15.7084 0.816084 15.9079 0.816084 16.0276 0.912094C16.0276 0.912094 16.0276 0.912094 16.1871 0.816084C16.3068 0.768078 16.3068 0.76808 16.3068 0.76808C16.4664 0.76808 16.7856 0.76808 16.985 0.720076C16.985 0.720076 16.985 0.720074 17.2244 0.76808C17.384 0.816084 17.384 0.816084 17.384 0.816084C17.5835 0.768078 17.7829 0.672068 17.8627 0.672068C17.9425 0.672068 18.142 0.720076 18.1819 0.720076C18.2218 0.67207 18.4611 0.720076 18.5808 0.720076C18.7005 0.720076 19.0595 0.624063 19.0994 0.672068C19.0994 0.720074 19.1393 0.720074 19.1393 0.624063C19.1393 0.528055 19.4186 0.720076 19.4585 0.720076C19.4984 0.720076 19.7776 0.720074 19.8973 0.672068C20.017 0.624063 20.3362 0.720074 20.416 0.672068C20.4958 0.672068 20.8149 0.720076 20.9346 0.720076C21.0543 0.720076 21.4532 0.720076 21.5729 0.720076C21.6926 0.76808 22.0117 0.576057 22.0516 0.576057C22.0915 0.576057 22.291 0.624063 22.3309 0.624063C22.4107 0.624063 22.5703 0.624063 22.7298 0.624063C22.8894 0.624063 23.2884 0.672068 23.3282 0.672068C23.3681 0.672068 23.4878 0.624063 23.5277 0.672068C23.5676 0.720074 23.8868 0.67207 24.0065 0.624063C24.1261 0.624063 24.5251 0.576059 24.6847 0.480049C24.6847 0.480049 24.6847 0.480049 24.8841 0.624063C25.0038 0.720074 25.0038 0.720076 25.0038 0.720076C25.2432 0.720076 25.5623 0.67207 25.7618 0.624063C25.7618 0.624063 25.7618 0.624065 25.9613 0.720076C26.0012 0.720076 26.0012 0.720076 26.0012 0.720076C26.081 0.624065 26.2405 0.576059 26.3602 0.672068C26.4799 0.768078 26.9586 0.624063 27.198 0.576057C27.4374 0.528053 28.0358 0.720076 28.0757 0.720076C28.1156 0.720076 28.315 0.672068 28.5145 0.672068C28.5145 0.672068 28.5145 0.67207 28.714 0.76808C28.8337 0.816084 28.8337 0.816084 28.8337 0.816084C28.9135 0.672068 29.0331 0.624063 29.1129 0.672068C29.1927 0.720074 29.4321 0.816084 29.5119 0.76808C29.5917 0.720074 29.7911 0.576059 29.831 0.624063C29.8709 0.67207 30.1103 0.76808 30.3098 0.76808C30.3098 0.76808 30.3098 0.76808 30.4295 0.720076C30.589 0.67207 30.7087 0.67207 30.8284 0.720076C30.9481 0.816084 30.9481 0.816084 30.9481 0.816084C31.0678 0.768078 31.1874 0.720076 31.2273 0.720076C31.2672 0.720076 31.5066 0.816084 31.5465 0.816084C31.5864 0.816084 31.8258 0.76808 31.8657 0.720076C31.9454 0.67207 32.1449 0.720076 32.2247 0.720076C32.3045 0.720076 32.5439 0.720076 32.6236 0.720076C32.7034 0.720076 32.9029 0.768078 32.9029 0.816084C32.9029 0.864088 32.9428 1.0081 32.9827 1.0081C33.0226 1.0081 33.1024 0.960098 33.1024 1.0081C33.1024 1.05611 33.2619 1.10411 33.3018 1.05611C33.3018 1.05611 33.3018 1.05611 33.3417 0.9601C33.3816 0.912094 33.5013 0.864088 33.5811 0.816084C33.8205 0.672068 33.8205 0.67207 34.0598 0.86409C34.0997 0.912094 34.0997 0.912094 34.0997 0.912094C34.1396 0.960098 34.2593 0.912094 34.2992 0.86409C34.3391 0.816084 34.5785 0.720074 34.6583 0.816084C34.738 0.864088 34.9375 1.0081 34.9375 0.9601C34.9375 0.912094 35.0572 0.720076 35.1769 0.720076C35.2966 0.720076 35.8152 0.768078 36.1742 0.672068C36.1742 0.672068 36.1742 0.672068 36.5333 0.816084C36.9322 0.528053 36.9322 0.528053 36.9322 0.528053C37.1317 0.432043 37.2913 0.384039 37.3312 0.432043C37.3711 0.480049 37.5307 0.384039 37.5705 0.384039C37.5705 0.384039 37.77 0.336035 37.9296 0.384039C38.0892 0.384039 38.5679 0.480049 38.6078 0.480049C38.6477 0.480049 38.8871 0.384039 38.9669 0.336033C39.0466 0.288029 39.4057 0.288029 39.5653 0.192019C39.5653 0.192019 39.5653 0.192019 39.7647 0.384039C39.8844 0.480049 39.8844 0.480049 39.8844 0.480049C40.0041 0.432045 40.1637 0.432045 40.2435 0.480049C40.3233 0.528055 40.5626 0.336033 40.6424 0.336033C40.7222 0.336033 40.9616 0.432045 40.9616 0.480049C40.9616 0.528055 41.0813 0.624063 41.2009 0.528053C41.2009 0.528053 41.2009 0.528053 41.2807 0.432043C41.3605 0.336033 41.3605 0.336033 41.3605 0.336033C41.4802 0.384039 41.5999 0.384039 41.6398 0.384039C41.6797 0.336035 41.8392 0.336035 41.8392 0.384039C41.8392 0.432045 41.8791 0.480049 41.919 0.288029C41.919 0.288029 41.919 0.288029 42.0786 0.384039C42.1584 0.432045 42.1584 0.432043 42.1584 0.432043C42.2382 0.384039 42.3579 0.384039 42.3978 0.384039C42.4377 0.384039 42.677 0.480049 42.7169 0.432043C42.7967 0.432043 43.0361 0.432045 43.1159 0.480049C43.1957 0.528055 43.435 0.480049 43.5547 0.528053C43.5547 0.528053 43.5547 0.528053 43.6744 0.528053C43.7143 0.528053 43.7941 0.480049 43.834 0.480049C43.9138 0.576059 43.9537 0.480049 44.0334 0.480049C44.0733 0.480049 44.1531 0.528053 44.193 0.576057C44.193 0.576057 44.2728 0.528055 44.2728 0.480049C44.2728 0.432045 44.2728 0.432043 44.2728 0.432043C44.2329 0.384039 44.2329 0.384039 44.2329 0.336033C44.2329 0.336033 44.3127 0.336033 44.3925 0.336033C44.4324 0.336033 44.6718 0.336035 44.7515 0.288029C44.7515 0.288029 44.7515 0.288029 44.8313 0.288029C44.9909 0.288029 45.1505 0.384039 45.2303 0.336033C45.3899 0.240023 45.3898 0.240025 45.3898 0.240025C45.5095 0.288029 45.6691 0.336033 45.709 0.336033C45.7888 0.336033 45.9883 0.240023 46.0282 0.192019C46.0681 0.144014 46.1478 0.336035 46.1478 0.384039C46.1478 0.384039 46.3074 0.384039 46.4271 0.384039C46.5468 0.384039 47.0654 0.288029 47.1851 0.288029C47.3048 0.288029 47.584 0.576059 47.6239 0.528053C47.6638 0.480049 47.7436 0.288029 47.9431 0.240025C48.1027 0.240025 48.741 0.432043 49.0202 0.528053C49.0202 0.528053 49.0202 0.528053 49.2596 0.288029C49.3394 0.240025 49.3394 0.240025 49.3394 0.240025C49.499 0.288029 49.6586 0.336033 49.6984 0.336033C49.7383 0.384039 49.8979 0.336033 49.9777 0.336033C50.0575 0.384039 50.2969 0.288029 50.3368 0.240025C50.3767 0.240025 50.5761 0.240025 50.7357 0.288029C50.8953 0.336035 51.4139 0.240023 51.6533 0.192019C51.6533 0.192019 51.6533 0.192019 51.8527 0.336033C51.8527 0.336033 52.3315 0.192019 52.3714 0.192019C52.4113 0.144014 52.4113 0.144014 52.4512 0.144014C52.5708 0.0960102 52.5708 0.0960083 52.5708 0.0960083C52.6905 0.144012 52.7703 0.240025 52.7703 0.288029C52.7703 0.336035 52.8102 0.480049 52.8501 0.480049C52.89 0.480049 53.0097 0.432045 52.9698 0.384039C52.9698 0.384039 52.9698 0.384039 52.9698 0.336033C52.9698 0.288029 52.9698 0.288029 52.9698 0.288029C52.9698 0.192019 53.0895 0.144014 53.2092 0.144014C53.2092 0.144014 53.2092 0.144014 53.3288 0.144014C53.4086 0.144014 53.4086 0.144014 53.4086 0.144014C53.4884 0.0960102 53.6879 0.0960083 53.8076 0.0960083C53.9273 0.0960083 54.3262 0.144014 54.406 0.144014C54.4858 0.0960102 54.7251 0.192019 54.8049 0.144014C54.8847 0.0960102 55.1241 0.192019 55.164 0.144014C55.164 0.144014 55.164 0.144014 55.2039 0.144014C55.4033 0.0960102 55.5629 0.144014 55.7624 0.192019C55.922 0.240023 55.922 0.240025 55.922 0.240025C56.1613 0.240025 56.4007 0.240025 56.4805 0.240025C56.5603 0.240025 56.6401 0.432043 56.7199 0.288029C56.7199 0.288029 56.7199 0.288029 56.7598 0.240025C56.7996 0.19202 56.7997 0.192019 56.7997 0.192019C56.8395 0.144014 56.9592 0.0960083 57.0789 0.0480042C57.1986 -1.90735e-06 57.5975 0.192019 57.6773 0.192019C57.7571 0.192019 57.8768 0.192019 57.9167 0.192019C57.9566 0.192019 58.1561 0.192019 58.196 0.192019C58.2358 0.192019 58.5151 0.192019 58.6348 0.192019C58.7545 0.192019 59.0736 0.288029 59.0736 0.336033C59.0736 0.384039 59.1534 0.288029 59.2332 0.144014C59.2332 0.144014 59.2332 0.144014 59.4327 0.288029C59.4726 0.336035 59.6322 0.144014 59.7518 0.144014C59.8715 0.144014 59.8715 0.144014 59.8715 0.144014C59.9912 0.192019 60.1907 0.144014 60.3104 0C60.3104 0 60.3104 0 60.4699 0.144014C60.5497 0.240025 60.5497 0.240025 60.5497 0.240025C60.7093 0.288029 60.8689 0.336035 60.9088 0.288029C60.9487 0.240025 61.0683 0.0960083 61.1082 0.192019C61.1481 0.240023 61.3077 0.336035 61.3875 0.240025C61.3875 0.240025 61.3875 0.240023 61.4673 0.192019C61.5072 0.192019 61.6269 0.192019 61.6269 0.192019C61.6269 0.432043 61.6269 0.432043 61.6269 0.432043C61.8263 0.480049 62.0258 0.480049 62.0258 0.432043C62.0258 0.336033 62.1455 0.240025 62.2652 0.240025C62.2652 0.240025 62.2652 0.240023 62.345 0.192019C62.4248 0.192019 62.4647 0.0960102 62.4647 0.240025C62.4647 0.384039 62.5843 0.384039 62.6242 0.336033C62.8237 0.192019 63.0232 0.288029 63.2226 0.240025C63.3822 0.240025 63.3822 0.240025 63.3822 0.240025C63.5418 0.19202 63.7014 0.192019 63.7014 0.192019C63.7014 0.192019 63.7014 0.192019 63.7413 0.192019C63.9009 0.240023 63.9009 0.240025 63.9009 0.240025C64.1402 0.288029 64.2599 0.336035 64.1801 0.384039C64.1003 0.432045 64.2599 0.576059 64.2599 0.624063C64.2599 0.67207 64.3796 0.720074 64.3796 0.624063C64.3796 0.528055 64.4594 0.240025 64.5392 0.288029C64.5392 0.288029 64.5392 0.288029 64.5791 0.336033C64.6588 0.384039 64.6588 0.384039 64.6588 0.384039C64.6987 0.480049 64.8583 0.528055 64.9381 0.480049C65.0179 0.432045 65.3371 0.384039 65.3769 0.432043C65.4168 0.528053 65.5764 0.672068 65.6562 0.576057C65.6562 0.576057 65.6562 0.576059 65.6562 0.480049C65.6562 0.240025 65.6562 0.240025 65.6562 0.240025C65.7759 0.240025 66.0153 0.240025 66.1349 0.288029C66.2546 0.336035 66.6536 0.288029 66.6935 0.288029C66.7334 0.288029 66.853 0.336035 66.9328 0.384039C67.0126 0.432045 67.3318 0.384039 67.4515 0.336033C67.4515 0.336033 67.4515 0.336035 67.5312 0.384039C67.611 0.432045 67.611 0.432043 67.611 0.432043C67.6908 0.576059 67.8105 0.67207 67.8903 0.624063C67.9701 0.576059 68.1696 0.432045 68.1696 0.384039C68.1696 0.384039 68.1696 0.384039 68.1696 0.336033C68.1696 0.288029 68.1696 0.288029 68.1696 0.288029C68.1696 0.240025 68.2094 0.240025 68.2493 0.240025C68.2892 0.240025 68.369 0.336033 68.4488 0.432043C68.5286 0.528053 68.768 0.336033 68.8079 0.336033C68.8478 0.336033 69.0073 0.384039 69.0871 0.384039C69.0871 0.384039 69.0871 0.384039 69.0871 0.432043C69.127 0.576059 69.127 0.576057 69.127 0.576057C69.0073 0.576057 68.8478 0.576057 68.768 0.576057C68.6882 0.576057 68.6483 0.86409 68.7281 0.86409C68.8079 0.86409 69.0871 0.864088 69.0871 0.76808C69.0871 0.76808 69.0871 0.768078 69.127 0.672068C69.1669 0.576059 69.2467 0.432043 69.3265 0.432043C69.526 0.432043 69.3664 0.624065 69.4462 0.720076C69.4462 0.720076 69.5659 0.67207 69.6456 0.528053C69.7254 0.432043 70.1643 0.432043 70.284 0.432043C70.4036 0.432043 70.5632 0.672068 70.6031 0.576057C70.643 0.480049 70.3637 0.384039 70.3238 0.384039C70.3238 0.384039 70.284 0.288029 70.3238 0.240025C70.3238 0.240025 70.3239 0.240025 70.3637 0.240025C70.4435 0.240025 70.4435 0.240025 70.4435 0.240025C70.5233 0.288029 70.6829 0.384039 70.8026 0.528053C70.8026 0.528053 70.8026 0.528055 70.8425 0.9601C70.8425 1.0081 71.0021 1.10411 71.0021 1.10411C71.3611 0.816084 71.2414 1.15212 71.2813 1.29613C71.3212 1.34414 71.3611 1.29613 71.3611 1.20012C71.3611 1.10411 71.4409 0.912094 71.5207 1.0081C71.6005 1.10411 71.7202 0.720074 71.76 0.672068C71.7999 0.624063 71.9196 0.384039 71.9595 0.384039C71.9994 0.384039 72.2787 0.384039 72.4781 0.384039C72.4781 0.384039 72.4781 0.384039 72.6776 0.384039C72.7175 0.384039 72.7175 0.384039 72.7175 0.384039C72.7574 0.384039 72.7973 0.384039 72.7973 0.432043C72.7973 0.480049 72.7973 0.576059 72.7973 0.624063C72.7973 0.67207 72.6377 0.864088 72.5579 0.816084C72.5579 0.816084 72.5579 0.816084 72.4781 0.816084C72.3984 0.816084 72.3984 0.816084 72.3984 0.816084C72.3585 0.768078 72.2388 0.720074 72.1191 0.672068C72.1191 0.672068 72.1191 0.672068 72.0393 0.672068C71.9994 0.672068 71.9196 0.67207 71.9196 0.720076C71.8797 0.816084 71.8797 0.816084 71.8797 0.816084C71.8398 0.960098 71.7202 1.05611 71.6404 1.05611C71.6404 1.05611 71.6404 1.05611 71.6005 1.10411C71.5207 1.20012 71.5207 1.34414 71.4808 1.39214C71.3212 1.53616 71.3212 1.53616 71.3212 1.53616C71.401 1.63217 71.5207 1.72818 71.5606 1.77618C71.6005 1.77618 71.76 1.72818 71.76 1.58416C71.76 1.44015 71.8797 1.05611 71.9994 1.05611C71.9994 1.05611 71.9994 1.05611 72.0792 0.9601C72.159 0.86409 72.2388 0.816084 72.3984 0.912094C72.4781 0.816084 72.4781 0.816084 72.4781 0.816084ZM71.2015 1.9202C71.2813 1.9682 71.401 1.9682 71.401 1.9682C71.401 1.9682 71.401 1.87219 71.3212 1.82419C71.2813 1.77618 70.9622 1.72818 70.8026 1.82419C70.8026 1.82419 70.8026 1.82419 70.643 1.68017C70.643 1.68017 70.5632 1.68017 70.5632 1.72818C70.5233 1.77618 70.5233 1.77618 70.5233 1.77618C70.4435 1.87219 70.4435 1.9682 70.5632 1.9682C70.6829 1.9682 71.0818 1.87219 71.2015 1.9202ZM74.0739 1.68017C74.1936 1.63217 74.2734 1.53616 74.2335 1.44015C74.1936 1.34414 73.9143 1.53616 73.8745 1.58416C73.8346 1.63217 73.5154 1.63217 73.4356 1.63217C73.3558 1.63217 73.0367 1.68017 73.0766 1.77618C73.1165 1.87219 73.3957 1.77618 73.4755 1.77618C73.5553 1.77618 73.7548 1.77618 73.8745 1.82419C73.8745 1.82419 73.8745 1.82419 73.9941 1.77618C74.0739 1.68017 74.0739 1.68017 74.0739 1.68017ZM4.49809 15.0736C4.37841 15.0256 4.33852 15.0736 4.37841 15.1696C4.4183 15.2656 4.61777 15.6016 4.69756 15.7936C4.69756 15.7936 4.69757 15.7936 4.85715 15.5536C4.97683 15.3616 4.97682 15.3616 4.97682 15.3616C5.0965 15.4096 5.13641 15.4576 5.05662 15.4096C4.97683 15.4096 4.61777 15.1216 4.49809 15.0736ZM50.8155 1.63217C50.9352 1.63217 51.0947 1.58416 51.0947 1.53616C51.0549 1.44015 51.0549 1.44015 51.0549 1.44015C51.0948 1.34414 51.0948 1.24813 51.015 1.20012C50.9751 1.15212 50.7756 1.29613 50.6559 1.29613C50.616 1.39214 50.6958 1.63217 50.8155 1.63217ZM2.78263 15.2176C2.86242 15.3616 2.90232 15.3616 2.86243 15.2176C2.82253 15.0736 2.50337 14.9296 2.42358 14.9296C2.42358 14.9296 2.42358 14.9296 2.42358 15.0736C2.42358 15.1216 2.42358 15.1216 2.42358 15.1216C2.3438 15.2656 2.42358 15.2656 2.62305 15.1216C2.62305 15.1216 2.62305 15.1216 2.70284 15.1696C2.78263 15.2176 2.78263 15.2176 2.78263 15.2176ZM74.9915 1.82419C75.2309 1.77618 75.3505 1.72818 75.2309 1.72818C75.1511 1.72818 74.8718 1.58416 74.8319 1.53616C74.7521 1.48815 74.5527 1.44015 74.5527 1.48815C74.5527 1.53616 74.6324 1.72818 74.7521 1.68017C74.7521 1.68017 74.7521 1.68017 74.792 1.68017C74.9915 1.82419 74.9915 1.82419 74.9915 1.82419ZM65.1775 1.34414C65.2174 1.34414 65.2174 1.20012 65.1376 1.0081C65.1376 1.0081 65.1376 1.0081 65.0179 0.9601C64.8982 0.86409 64.8982 0.86409 64.8982 0.86409C64.7785 0.76808 64.6189 0.720076 64.5392 0.720076C64.5392 0.720076 64.5392 0.720074 64.5392 0.76808C64.4993 0.816084 64.4993 0.816084 64.4993 0.816084C64.4993 0.912094 64.619 0.9601 64.7785 0.9601C64.7785 0.9601 64.7785 0.960098 64.8583 1.0081C64.9381 1.05611 64.9381 1.05611 64.9381 1.05611C64.978 1.20012 65.1376 1.34414 65.1775 1.34414ZM32.8231 1.34414C32.7433 1.39215 32.7433 1.44015 32.7832 1.48815C32.8231 1.53616 32.9827 1.68017 33.0226 1.72818C33.0625 1.77618 33.2221 1.72818 33.1822 1.58416C33.1423 1.44015 32.863 1.34414 32.8231 1.34414ZM68.369 1.10411C68.4089 1.24813 68.4089 1.24813 68.369 1.10411C68.369 1.0081 68.4089 0.720076 68.3291 0.720076C68.2493 0.720076 68.369 0.9601 68.369 1.10411ZM98.968 9.93703C98.8882 9.93703 98.8483 9.98504 98.8483 10.0811C99.0079 10.0811 99.0478 10.1771 99.0478 10.3211C99.0478 10.3691 99.0478 10.3691 99.0478 10.3691C99.0877 10.4651 99.1276 10.4171 99.2074 10.3211C99.2473 10.1771 99.0478 9.98504 98.968 9.93703ZM100.324 7.6328C100.324 7.6808 100.404 7.7288 100.444 7.77681C100.444 7.77681 100.444 7.77681 100.484 7.82482C100.524 7.87282 100.564 7.92082 100.644 7.87282C100.723 7.82481 100.763 7.77681 100.644 7.6808C100.564 7.6328 100.723 7.39277 100.524 7.39277C100.484 7.39277 100.404 7.53679 100.324 7.6328Z" fill="#FFB820"/>
</svg>
