<svg width="72" height="28" viewBox="0 0 72 28" fill="none" xmlns="http://www.w3.org/2000/svg">
<path d="M20.839 27.1839C20.7545 27.2799 20.6418 27.4239 20.5855 27.52C20.5292 27.616 20.3321 27.76 20.3602 27.664C20.3884 27.568 20.501 27.3759 20.5292 27.2799C20.5573 27.2319 20.4165 27.0879 20.4165 26.9919C20.4165 26.9919 20.4165 26.9919 20.3884 26.9439C20.3039 26.8959 20.3039 26.8959 20.3039 26.8959C20.2476 26.7519 20.1913 26.6079 20.1631 26.5599C20.1349 26.5118 20.0505 26.6559 20.0223 26.7519C20.0223 26.7519 20.0223 26.7519 20.0223 26.8479C20.0223 26.8959 20.0223 26.8959 20.0223 26.8959C20.0223 26.9439 20.0223 27.0879 19.966 27.2319C19.9378 27.3759 19.9097 27.712 19.9097 27.76C19.8815 27.76 19.8533 27.76 19.8252 27.712C19.797 27.664 19.7407 27.52 19.6844 27.4719C19.628 27.4239 19.8252 27.2799 19.8252 27.2319C19.8533 27.1839 19.8533 27.0879 19.7688 27.1839C19.6844 27.2799 19.5154 27.0399 19.4872 27.0879C19.4591 27.0879 19.4872 27.3279 19.5154 27.3759C19.5154 27.3759 19.5154 27.3759 19.5154 27.4239C19.5154 27.4719 19.5154 27.4719 19.5154 27.4719C19.5154 27.52 19.4309 27.568 19.3183 27.568C19.3183 27.568 19.3183 27.568 19.2338 27.568C19.2056 27.568 19.2056 27.568 19.2056 27.568C19.2056 27.712 19.1493 27.808 19.1493 27.808C19.1211 27.808 19.0085 27.808 18.924 27.808C18.8959 27.664 18.8959 27.664 18.8959 27.664C18.9803 27.664 19.0367 27.568 19.0085 27.52C18.9803 27.4719 18.924 27.3279 18.8677 27.4239C18.8114 27.52 18.6424 27.712 18.5861 27.712C18.5016 27.712 18.3326 27.712 18.3045 27.712C18.3045 27.712 18.3326 27.664 18.389 27.664C18.4453 27.664 18.5861 27.568 18.5861 27.4719C18.5861 27.3759 18.7832 27.2799 18.8395 27.2799C18.8677 27.2799 18.9803 27.1839 19.0085 27.1839C19.0085 27.1839 19.0085 27.1839 19.0085 27.1359C19.0085 27.0879 18.9803 27.0399 18.9522 27.0399C18.7551 27.1359 18.5579 27.2319 18.3608 27.2319C18.22 27.2319 18.22 27.2319 18.22 27.2319C18.1637 27.3759 18.0792 27.52 18.0229 27.568C17.9666 27.616 17.9102 27.4239 17.9102 27.4239C17.8821 27.4239 17.7976 27.3279 17.7694 27.3279C17.7413 27.3279 17.6286 27.1839 17.6568 27.1839C17.6849 27.1839 17.7694 27.0879 17.7976 27.1359C17.7976 27.1359 17.7976 27.1359 17.7976 27.1839C17.8539 27.3759 17.8539 27.3759 17.8539 27.3759C17.9666 27.3279 18.0792 27.3279 18.0792 27.2799C18.1074 27.2799 18.1355 27.1359 18.1355 27.0879C18.1355 27.0399 17.9947 26.8959 17.9384 26.8959C17.8821 26.5599 17.7694 26.7519 17.7413 26.8479C17.685 27.0399 17.5441 27.0879 17.4597 27.1839C17.3752 27.2799 17.3752 27.2799 17.3752 27.2799C17.3189 27.4239 17.2625 27.4719 17.2625 27.3759C17.2625 27.3759 17.2625 27.3759 17.2625 27.3279C17.2625 27.2319 17.2625 27.2319 17.2625 27.2319C17.1781 27.1839 17.0373 27.0399 16.9528 26.9919C16.9528 26.9919 16.9528 26.9919 16.9528 26.8959C16.9246 26.7039 16.8401 26.7039 16.6993 26.7039C16.643 26.7039 16.5867 26.6079 16.5585 26.6079C16.5304 26.6079 16.5022 26.7519 16.474 26.7999C16.4177 26.7999 16.4177 26.8479 16.474 26.8959C16.5304 26.9439 16.5867 27.0879 16.5585 27.1359C16.5304 27.1839 16.2488 26.9919 16.2769 26.9439C16.2769 26.9439 16.2769 26.9439 16.3051 26.8959C16.3614 26.7039 16.2769 26.6079 16.1643 26.7039C16.0516 26.7519 16.0235 26.6559 15.9671 26.6079C15.8827 26.6079 15.8827 26.6079 15.8827 26.6079C15.7982 26.6079 15.6011 26.6559 15.4884 26.7039C15.4884 26.7039 15.4884 26.7039 15.4321 26.6559C15.3476 26.6079 15.3476 26.6079 15.3476 26.6079C15.2631 26.6079 15.1505 26.6559 15.0942 26.7039C15.0378 26.7519 14.8126 26.6079 14.7562 26.6079C14.6999 26.6079 14.5873 26.6079 14.5309 26.6079C14.4746 26.6079 14.2775 26.5599 14.2212 26.6559C14.1649 26.7519 13.9396 26.7999 13.8551 26.6559C13.8551 26.6559 13.8551 26.6559 13.7143 26.7039C13.6298 26.7519 13.6298 26.7519 13.6298 26.7519C13.5172 26.7519 13.3764 26.7039 13.2637 26.7039C13.1792 26.7039 12.8976 26.7999 12.785 26.8479C12.6723 26.8959 12.3062 26.7999 12.1936 26.7999C12.1936 26.7999 12.1936 26.7999 12.0528 26.7039C11.8557 26.5118 11.8557 26.5118 11.8557 26.5118C11.6867 26.5599 11.4896 26.6559 11.4614 26.6559C11.4333 26.6559 11.2643 26.6559 11.1798 26.6559C11.0953 26.6559 10.87 26.7039 10.8419 26.7039C10.8419 26.6559 10.7856 26.6079 10.7574 26.6559C10.7292 26.7039 10.6166 26.7519 10.5884 26.7039C10.5884 26.7039 10.5884 26.7039 10.5603 26.6559C10.5321 26.6079 10.5321 26.6079 10.5321 26.6079C10.504 26.6079 10.4476 26.6079 10.4195 26.6559C10.3913 26.7039 10.335 26.7519 10.3068 26.7039C10.2787 26.6559 10.166 26.7519 10.166 26.7519C10.1379 26.7519 10.0252 26.7999 9.91258 26.8479C9.91258 26.8479 9.91258 26.8479 9.79994 26.7999C9.74362 26.7519 9.6873 26.7519 9.63098 26.7039C9.57465 26.6559 9.51833 26.5118 9.40569 26.6559C9.40569 26.6559 9.34937 26.6559 9.32121 26.6079C9.20856 26.4638 9.1804 26.4158 9.06776 26.6559C9.01144 26.7999 9.01144 26.7999 9.01144 26.7999C8.95512 26.6079 8.8988 26.4638 8.87064 26.5118C8.84248 26.5599 8.75799 26.6559 8.75799 26.6079C8.75799 26.5599 8.67351 26.4158 8.61719 26.4158C8.56087 26.4158 8.44823 26.5599 8.42006 26.6079C8.3919 26.6559 8.30742 26.5599 8.27926 26.6079C8.27926 26.6559 8.2511 26.6559 8.2511 26.5599C8.2511 26.4638 8.08214 26.6079 8.08214 26.6559C7.96949 26.7039 7.96949 26.4158 7.82869 26.5118C7.74421 26.5599 7.74421 26.5599 7.74421 26.5599C7.63156 26.5599 7.51892 26.5599 7.49076 26.5599C7.4626 26.5599 7.34996 26.6079 7.26547 26.6079C7.18099 26.6079 6.98387 26.5118 6.92754 26.6079C6.92754 26.6079 6.92754 26.6079 6.87122 26.6559C6.84306 26.7039 6.84306 26.7039 6.84306 26.7039C6.78674 26.7039 6.70226 26.6079 6.64594 26.5599C6.58962 26.5118 6.30801 26.6559 6.27985 26.6079C6.25169 26.5599 6.13904 26.4638 6.11088 26.5118C6.08272 26.5599 5.94192 26.4638 5.94192 26.4638C5.94192 26.4638 5.94192 26.4638 5.91376 26.5118C5.8856 26.5599 5.8856 26.6079 5.85744 26.6079C5.80112 26.6079 5.68847 26.6559 5.68847 26.5118C5.68847 26.4638 5.68847 26.4638 5.68847 26.4638C5.77295 26.4158 5.80111 26.3198 5.77295 26.3198C5.74479 26.2718 5.63215 26.2718 5.60399 26.3198C5.57583 26.3678 5.46319 26.5118 5.46319 26.3678C5.46319 26.3678 5.46319 26.3678 5.46319 26.3198C5.46319 26.2718 5.43503 26.2238 5.43503 26.2238C5.3787 26.2238 5.3787 26.2238 5.3787 26.2238C5.32238 26.2238 5.26606 26.1758 5.29422 26.0798C5.29422 26.0798 5.29422 26.0798 5.18158 26.1278C5.15342 26.1278 5.15342 26.1278 5.15342 26.1278C5.12526 26.1758 5.06894 26.1758 4.98445 26.1278C4.89997 26.0318 4.61836 26.0318 4.56204 26.0318C4.47756 26.0318 4.25227 25.8878 4.16779 25.8878C4.11147 25.8878 3.94251 25.9358 3.91434 25.8398C3.88618 25.7438 3.60458 25.6478 3.57642 25.6958C3.40745 25.4077 3.40745 25.4077 3.40745 25.4077C3.154 25.3597 2.95688 25.3117 2.92872 25.3117C2.90056 25.3117 2.78791 25.3117 2.70343 25.3117C2.61895 25.3117 2.25286 25.3597 2.11206 25.3597C2.11206 25.3597 2.11206 25.3597 2.0839 25.0717C2.0839 25.0237 2.02757 24.9757 1.99941 25.0237C1.91493 25.0717 1.91493 25.0717 1.91493 25.0717C1.83045 25.0237 1.71781 24.9277 1.71781 24.8797C1.68965 24.8317 1.54884 24.7357 1.49252 24.7357C1.4362 24.7357 1.29539 24.5916 1.26723 24.6397C1.23907 24.6397 1.18275 24.6397 1.15459 24.5436C1.15459 24.5436 1.15459 24.5436 1.12643 24.4956C1.09827 24.4476 1.04195 24.4476 1.01379 24.4956C0.901144 24.5916 0.788501 24.5916 0.73218 24.5916C0.563215 24.5916 0.647697 24.4956 0.647697 24.3996C0.647697 24.3516 0.563215 24.2556 0.675858 24.2556C0.732179 24.2556 0.788501 24.2076 0.844823 24.1596C0.901144 24.1116 0.901144 24.0636 0.844823 24.0156C0.788501 23.9676 0.788501 23.9676 0.788501 23.9676C0.844823 23.9196 0.929305 23.7756 1.01379 23.6796C1.09827 23.5835 1.15459 23.2475 1.09827 23.1995C1.09827 23.1995 1.09827 23.1995 1.04195 23.1995C0.985626 23.1995 0.985626 23.1995 0.985626 23.1995C0.929305 23.2475 0.816662 23.2475 0.76034 23.1995C0.704019 23.1515 0.704019 22.7194 0.73218 22.5754C0.76034 22.4314 0.816662 21.9514 0.788501 21.9514C0.788501 21.9514 0.704019 21.9994 0.647697 22.0954C0.647697 22.0954 0.647697 22.0954 0.563215 21.9514C0.535054 21.8554 0.535054 21.8554 0.535054 21.8554C0.535054 21.7593 0.591376 21.6633 0.619536 21.5673C0.619536 21.5673 0.619537 21.5673 0.563215 21.5193C0.535054 21.5193 0.535054 21.5193 0.535054 21.5193C0.450572 21.5673 0.394251 21.5673 0.422411 21.4713C0.422411 21.4713 0.422411 21.4713 0.422411 21.4233C0.422411 21.2313 0.422411 21.2313 0.422411 21.2313C0.36609 21.0393 0.309768 20.7992 0.309768 20.7512C0.309768 20.6552 0.394251 20.3672 0.506894 20.3192C0.619537 20.2712 0.619537 19.7911 0.535054 19.8391C0.535054 19.8391 0.535054 19.8392 0.478733 19.8872C0.422411 19.9352 0.422411 19.9352 0.422411 19.9352C0.36609 19.9832 0.253447 19.8872 0.168965 19.7431C0.168965 19.7431 0.168965 19.7431 0.197125 19.5991C0.197125 19.5511 0.197125 19.5031 0.225286 19.4551C0.309768 19.3111 0.36609 19.2151 0.422411 19.1191C0.478733 19.0231 0.535054 19.2631 0.591376 19.1191C0.591376 19.0711 0.591376 19.0711 0.591376 19.0711C0.647697 19.0711 0.647697 19.0231 0.563215 18.9751C0.563215 18.9751 0.563215 18.9751 0.563215 18.9271C0.563215 18.8791 0.591376 18.783 0.619536 18.735C0.647697 18.687 0.675858 18.687 0.704019 18.687C0.816662 18.591 0.816662 18.351 0.76034 18.351C0.675858 18.303 0.647697 18.255 0.619536 18.159C0.591376 18.111 0.591376 18.111 0.591376 18.111C0.478733 18.111 0.478733 18.015 0.619536 17.967C0.76034 17.919 1.09827 17.6309 1.26723 17.7749C1.26723 17.7749 1.26723 17.7749 1.46436 17.7269C1.49252 17.7269 1.577 17.8229 1.60516 17.9189C1.63332 18.111 1.63332 18.111 1.63332 18.111C1.71781 18.063 1.77413 17.919 1.74597 17.8229C1.74597 17.8229 1.74597 17.8229 1.74597 17.7269C1.77413 17.4869 1.80229 17.2469 1.83045 17.0069C1.83045 16.9589 1.83045 16.9588 1.83045 16.9588C1.94309 16.9108 1.99941 16.8148 2.02757 16.8148C2.05573 16.8148 2.14022 16.6708 2.16838 16.6708C2.2247 16.6708 2.3655 16.6228 2.39366 16.6228C2.42182 16.6228 2.47815 16.5268 2.50631 16.4788C2.53447 16.4308 2.64711 16.5748 2.64711 16.6228C2.67527 16.6228 2.75975 16.6708 2.75975 16.5748C2.75975 16.4788 2.84424 16.2868 2.90056 16.3828C2.95688 16.4308 3.12584 16.3348 3.12584 16.2868C3.12584 16.2868 3.09768 16.1908 3.154 16.1428C3.154 16.1428 3.154 16.1428 3.18216 16.1428C3.26665 16.1908 3.37929 16.3828 3.40745 16.0948C3.43561 16.0948 3.49193 16.0948 3.54825 16.1428C3.60458 16.1908 3.77354 16.0468 3.82986 16.0468C3.88618 16.0468 4.02699 16.0468 4.11147 16.0468C4.19595 16.0468 4.33676 15.8547 4.28043 15.8067C4.22411 15.7587 4.11147 15.5667 4.13963 15.4227C4.16779 15.2787 3.85802 14.8946 3.88618 14.8946C3.91434 14.8946 3.94251 14.7506 3.85802 14.6546C3.85802 14.6546 3.85802 14.6546 3.85802 14.5586C3.85802 14.3666 3.85802 14.3666 3.85802 14.3666C3.77354 14.3666 3.68906 14.3186 3.63274 14.2706C3.63274 14.2706 3.63274 14.2706 3.60458 14.2226C3.54825 14.0786 3.54825 14.0786 3.54825 14.0786C3.57642 13.9345 3.57642 13.6945 3.54825 13.5505C3.54825 13.5505 3.54825 13.5505 3.52009 13.4065C3.52009 13.3585 3.52009 13.3585 3.52009 13.3585C3.52009 13.3105 3.60458 13.3105 3.68906 13.4065C3.77354 13.5025 4.02699 13.3585 4.02699 13.3105C4.02699 13.2625 3.99883 13.1665 3.94251 13.1665C3.94251 13.1665 3.94251 13.1665 3.91434 13.1665C3.85802 13.2145 3.85802 13.2145 3.85802 13.2145C3.77354 13.2625 3.74538 13.2625 3.74538 13.2145C3.74538 13.2145 3.74538 13.2145 3.74538 13.1665C3.74538 13.1185 3.74538 13.1185 3.74538 13.1185C3.74538 13.0704 3.74538 13.0224 3.71722 13.0224C3.68906 13.0224 3.60458 13.0704 3.57642 13.0224C3.54825 12.9744 3.60458 12.7344 3.6609 12.5904C3.6609 12.5904 3.6609 12.5904 3.77354 12.5424C3.8017 12.5424 3.82986 12.5424 3.82986 12.4944C3.8017 12.1583 3.8017 12.1583 3.8017 12.1583C3.99883 12.0143 4.08331 11.9183 4.05515 11.8703C3.99883 11.8223 3.82986 11.8703 3.8017 11.8703C3.77354 11.8703 3.54825 11.7263 3.37929 11.6303C3.37929 11.6303 3.37929 11.6303 3.21033 11.6783C3.12584 11.6783 3.12584 11.6303 3.09768 11.5343C3.12584 11.3903 3.12584 11.3903 3.12584 11.3903C3.06952 11.4863 2.98504 11.5343 2.90056 11.4863C2.81608 11.4383 2.59079 11.2943 2.56263 11.2463C2.61895 11.1022 2.61895 11.1022 2.61895 11.1022C2.59079 10.9582 2.53447 10.8622 2.50631 10.8142C2.47815 10.7662 2.42182 10.7662 2.42182 10.7662C2.42182 10.7662 2.42182 10.7662 2.39366 10.8142C2.3655 10.8622 2.3655 10.8622 2.3655 10.8622C2.33734 10.9102 2.25286 10.9582 2.19654 10.9582C2.14022 11.0062 1.94309 11.0542 1.91493 11.0062C1.88677 10.9582 1.83045 10.7662 1.85861 10.7182C1.88677 10.6702 2.11206 10.7662 2.19654 10.7662C2.19654 10.7662 2.19654 10.7662 2.19654 10.6702C2.2247 10.5742 2.16838 10.3822 2.14022 10.3822C1.74597 10.3342 1.74597 10.3342 1.74597 10.3342C1.80229 9.95012 1.80229 9.61408 1.74597 9.61408C1.68965 9.61408 1.60516 9.7581 1.577 9.7581C1.54884 9.7581 1.52068 9.66209 1.52068 9.66209C1.52068 9.66209 1.49252 9.56608 1.46436 9.47007C1.4362 9.37406 1.52068 9.13404 1.54884 9.03802C1.54884 9.03802 1.54884 9.03802 1.54884 8.99002C1.54884 8.94201 1.54884 8.94201 1.54884 8.94201C1.54884 8.89401 1.49252 8.84601 1.46436 8.84601C1.46436 8.84601 1.46436 8.84601 1.4362 8.84601C1.40804 8.84601 1.40804 8.84601 1.40804 8.84601C1.37988 8.84601 1.35172 8.846 1.32356 8.798C1.37988 8.70199 1.37988 8.70199 1.37988 8.70199C1.46436 8.55797 1.46436 8.46196 1.35172 8.50997C1.35172 8.50997 1.35172 8.50997 1.29539 8.50997C1.18275 8.50997 1.18275 8.50997 1.18275 8.50997C1.07011 8.50997 0.957466 8.46196 0.929305 8.36596C0.929305 8.36596 0.929305 8.36596 0.929305 8.31795C0.957466 7.8379 0.957465 7.8379 0.957465 7.8379C0.816662 7.64588 0.675858 7.45386 0.647697 7.40585C0.647697 7.40585 0.647697 7.40585 0.647697 7.35785C0.619537 7.26184 0.619536 7.26184 0.619536 7.26184C0.619536 7.11782 0.591376 6.9258 0.563215 6.78179C0.563215 6.78179 0.563215 6.78179 0.506894 6.73378C0.309768 6.78179 0.309768 6.63777 0.337929 6.44575C0.337929 6.39775 0.337929 6.39775 0.337929 6.39775C0.337929 6.25373 0.253447 6.20573 0.140804 6.30174C0.140804 6.30174 0.140804 6.30174 0.197125 6.10972C0.253447 5.9657 0.140804 5.9657 0.112643 5.9177C0.112643 5.9177 0.0281608 6.10972 0 5.9177C0 5.86969 0 5.86969 0 5.86969C0.0563215 5.82169 0.112643 5.77368 0.112643 5.77368C0.112643 5.77368 0.0844823 5.58166 0.0281608 5.43765C0.0281608 5.43765 0.0281608 5.43765 0.0563215 5.24563C0.0563215 5.19762 0.0844823 5.14962 0.0844823 5.10161C0.0844823 5.05361 0.0844823 5.05361 0.0844823 5.05361C0.0563215 5.0056 0.0563215 4.9576 0.0844823 4.9576C0.112643 4.9576 0.253447 4.9576 0.281608 4.86159C0.309768 4.76558 0.253447 4.52555 0.281608 4.47755C0.394251 4.62156 0.478733 4.62156 0.563215 4.42954C0.647697 4.28553 0.647697 4.28553 0.647697 4.28553C0.76034 4.42954 0.844823 4.42954 0.844823 4.38154C0.844823 4.33353 0.985626 4.14151 1.09827 4.0455C1.09827 4.0455 1.09827 4.0455 1.18275 4.28553C1.23907 4.42954 1.23907 4.42954 1.23907 4.42954C1.37988 4.33353 1.46436 4.18952 1.4362 4.18952C1.40804 4.18952 1.35172 4.09351 1.35172 4.09351C1.40804 4.09351 1.46436 4.09351 1.52068 4.14151C1.54884 4.14151 1.54884 4.14151 1.54884 4.14151C1.577 4.14151 1.60516 4.14151 1.63332 4.09351C1.66148 4.0455 1.74597 4.09351 1.74597 4.0455C1.74597 3.9975 1.80229 3.90149 1.83045 3.9975C1.85861 4.09351 1.99941 4.0455 2.05573 3.90149C2.05573 3.90149 2.05573 3.90149 2.11206 3.80548C2.14022 3.75747 2.14022 3.75747 2.14022 3.75747C2.19654 3.75747 2.28102 3.75747 2.33734 3.80548C2.39366 3.85348 2.64711 3.75747 2.67527 3.80548C2.73159 3.85348 2.8724 3.94949 2.90056 3.80548C2.90056 3.80548 2.90056 3.80548 2.95688 3.70947C3.0132 3.61346 3.0132 3.61346 3.0132 3.61346C3.09768 3.61346 3.21033 3.61346 3.23849 3.66146C3.29481 3.70947 3.37929 3.51745 3.43561 3.51745C3.49193 3.51745 3.63274 3.56545 3.6609 3.61346C3.68906 3.66146 3.77354 3.66146 3.8017 3.61346C3.82986 3.51745 3.91434 3.32543 3.97067 3.37343C4.02699 3.42144 4.13963 3.37343 4.19595 3.32543C4.22411 3.27742 4.36492 3.37343 4.36492 3.37343C4.36492 3.37343 4.36492 3.37343 4.36492 3.32543C4.36492 3.22942 4.36492 3.22942 4.36492 3.22942C4.42124 3.22942 4.53388 3.32543 4.64652 3.37343C4.64652 3.37343 4.64652 3.37343 4.64652 3.13341C4.67468 3.13341 4.78733 3.0854 4.87181 3.0374C4.98445 2.98939 5.35054 3.0854 5.43503 3.0854C5.43503 3.0854 5.43502 3.0854 5.49135 3.13341C5.63215 3.13341 5.66031 3.27742 5.66031 3.0854L5.74479 3.0374C5.82928 3.22942 5.97008 3.0854 5.97008 3.0374C6.05456 2.89338 6.1672 3.0854 6.22353 2.94139C6.25169 2.89338 6.25169 2.89338 6.25169 2.89338C6.39249 2.94139 6.50513 3.0374 6.53329 3.0374C6.56146 3.0374 6.64594 2.94139 6.73042 2.84538C6.8149 2.74937 7.06835 2.89338 7.06835 2.89338C7.06835 2.65336 7.06835 2.65336 7.06835 2.65336C7.18099 2.70136 7.37812 2.70136 7.4626 2.60535C7.4626 2.60535 7.4626 2.60535 7.54708 2.79737C7.63156 2.84538 7.63156 2.84538 7.63156 2.84538C7.71605 2.79737 7.82869 2.70136 7.88501 2.65336C7.88501 2.65336 7.88501 2.65336 7.94133 2.65336C7.96949 2.65336 7.96949 2.65336 7.96949 2.65336C7.99765 2.65336 8.05398 2.65336 8.1103 2.65336C8.16662 2.65336 8.3919 2.65336 8.44823 2.65336C8.50455 2.65336 8.67351 2.55735 8.67351 2.60535C8.70167 2.65336 8.75799 2.70136 8.75799 2.65336C8.75799 2.65336 8.75799 2.65336 8.78615 2.60535C8.81431 2.55735 8.81432 2.55735 8.81432 2.55735C8.84248 2.50934 8.84248 2.50934 8.87064 2.55735C8.8988 2.60535 8.8988 2.65336 8.92696 2.70136C8.92696 2.70136 8.92696 2.70136 8.95512 2.70136C9.0396 2.60535 9.0396 2.60535 9.0396 2.60535C9.15224 2.55735 9.29305 2.50934 9.32121 2.50934C9.32121 2.50934 9.32121 2.50934 9.34937 2.46134C9.46201 2.26932 9.46201 2.26932 9.46201 2.26932C9.51833 2.46134 9.60282 2.55735 9.63098 2.50934C9.65914 2.46134 9.71546 2.36533 9.74362 2.36533C9.77178 2.36533 9.79994 2.26932 9.8281 2.0773C9.8281 2.0773 9.8281 2.0773 9.99707 2.31732C10.0252 2.36533 10.0252 2.36533 10.0252 2.36533C10.1097 2.31732 10.2224 2.31732 10.2787 2.31732C10.335 2.31732 10.4476 2.36533 10.4476 2.31732C10.4476 2.26932 10.6166 2.26932 10.6448 2.26932C10.6729 2.26932 10.7292 2.22131 10.7011 2.02929C10.7011 2.02929 10.7011 2.02929 10.87 2.26932C10.8982 2.26932 10.9827 2.22131 11.039 2.17331C11.0672 2.17331 11.0672 2.17331 11.0672 2.17331C11.0953 2.1253 11.2361 2.0773 11.3488 2.02929C11.4896 1.98129 11.7994 2.22131 11.8275 2.22131C11.8557 2.22131 12.0246 2.17331 12.1091 2.1253C12.1936 2.0773 12.616 2.1253 12.7005 2.1253C12.7005 2.1253 12.7005 2.1253 12.7287 2.0773C12.8695 2.02929 12.8695 2.02929 12.8695 2.02929C12.9539 2.0773 13.0384 2.1253 13.0947 2.17331C13.0947 2.17331 13.0947 2.17331 13.1511 2.17331C13.2356 2.17331 13.2356 2.17331 13.2356 2.17331C13.32 2.1253 13.4327 2.02929 13.489 2.02929C13.5453 2.02929 13.7706 1.98129 13.8833 1.98129C13.8833 1.98129 13.8832 1.98129 13.9959 1.98129C14.0241 1.98129 14.0241 1.98129 14.0241 1.98129C14.0522 1.93328 14.1085 1.98129 14.1085 2.02929C14.1085 2.0773 14.2493 2.02929 14.2775 2.02929C14.3057 1.98129 14.3901 1.93328 14.4183 1.93328C14.4465 1.93328 14.5591 2.02929 14.5873 2.02929C14.6154 2.02929 14.8126 1.88528 14.897 1.88528C14.897 1.88528 14.897 1.88528 14.9252 1.93328C14.9815 2.0773 15.066 1.78927 15.1223 1.98129C15.1505 2.0773 15.1505 2.0773 15.1505 2.0773C15.2631 1.98129 15.3758 1.98129 15.4039 1.98129C15.4321 2.02929 15.5166 2.0773 15.5447 2.0773C15.5447 2.02929 15.6011 1.98129 15.6011 1.98129C15.6011 1.98129 15.6855 1.98129 15.7137 1.93328C15.7419 1.88528 15.9671 1.88528 16.1361 1.83727C16.1361 1.83727 16.1361 1.83727 16.3051 1.93328C16.4459 1.98129 16.6148 2.02929 16.7838 1.83727C16.8683 1.74126 16.8683 1.74126 16.8683 1.74126C17.0091 1.78927 17.1499 1.83727 17.1499 1.88528C17.1781 1.93328 17.2625 1.93328 17.2907 1.83727C17.347 1.74126 17.5441 1.93328 17.5441 1.88528C17.5441 1.83727 17.6005 1.74126 17.6286 1.83727C17.6286 1.88528 17.685 1.98129 17.7131 1.88528C17.7413 1.78927 17.9666 1.93328 18.0792 1.88528C18.0792 1.88528 18.0792 1.88528 18.1918 1.93328C18.3326 1.83727 18.3326 1.83727 18.3326 1.83727C18.5016 1.74126 18.6706 1.69326 18.6987 1.69326C18.6987 1.74126 18.7551 1.78927 18.7832 1.74126C18.8114 1.69326 18.8677 1.59725 18.8959 1.59725C19.0085 1.74126 19.0085 1.74126 19.0085 1.74126C19.1493 1.74126 19.3464 1.69326 19.4309 1.74126C19.5154 1.74126 19.8252 1.69326 19.8815 1.78927C19.8815 1.78927 19.8815 1.78927 19.966 1.64525C19.966 1.59725 20.0786 1.69326 20.1349 1.69326C20.3039 1.69326 20.3039 1.69326 20.3039 1.69326C20.501 1.69326 20.7826 1.64525 20.8953 1.59725C20.8953 1.59725 20.8953 1.59725 21.0079 1.78927C21.0361 1.83727 21.0361 1.83727 21.0361 1.83727C21.0924 1.83727 21.205 1.78927 21.2614 1.78927C21.3177 1.78927 21.4585 1.83727 21.4585 1.78927C21.4585 1.74126 21.6556 1.74126 21.7119 1.88528C21.7119 1.88528 21.7119 1.88528 21.8246 1.74126C21.8527 1.69326 21.8527 1.69326 21.8527 1.69326C21.9372 1.74126 22.0499 1.74126 22.1062 1.74126C22.1625 1.74126 22.3033 1.78927 22.3596 1.78927C22.3596 1.78927 22.3596 1.78927 22.416 1.78927C22.4441 1.78927 22.5004 1.78927 22.5286 1.78927C22.5568 1.78927 22.6131 1.74126 22.6412 1.74126C22.6694 1.74126 22.6694 1.74126 22.6694 1.74126C22.6976 1.74126 22.7539 1.74126 22.8102 1.74126C22.8665 1.74126 22.9792 1.78927 23.0637 1.88528C23.0637 1.88528 23.0637 1.88528 23.0637 1.69326C23.0918 1.69326 23.2608 1.74126 23.3734 1.83727C23.3734 1.83727 23.3734 1.83727 23.4861 1.83727C23.5705 1.83727 23.5705 1.83727 23.5705 1.83727C23.6832 1.74126 23.7958 1.69326 23.824 1.64525C23.8522 1.64525 23.9366 1.69326 23.993 1.83727C23.993 1.83727 23.993 1.83727 24.1056 1.78927C24.1619 1.74126 24.2746 1.74126 24.3027 1.78927C24.4154 1.83727 24.4435 1.54924 24.528 1.59725C24.6125 1.64525 24.6125 1.64525 24.6125 1.64525C24.7251 1.64525 24.8659 1.69326 24.9223 1.74126C24.9223 1.74126 24.9223 1.74126 24.9504 1.69326C25.0631 1.54924 25.0631 1.54924 25.0631 1.54924C25.2039 1.64525 25.3165 1.69326 25.3447 1.64525C25.3728 1.59725 25.4573 1.54924 25.4855 1.59725C25.5136 1.64525 25.5981 1.78927 25.5981 1.78927C25.5981 1.78927 25.6826 1.74126 25.7389 1.69326C25.7952 1.64525 26.105 1.64525 26.1895 1.64525C26.274 1.64525 26.5274 1.64525 26.6119 1.69326C26.6964 1.74126 26.8654 1.59725 26.9217 1.64525C27.0906 1.30922 27.0906 1.30922 27.0906 1.30922C27.3441 1.40523 27.5694 1.54924 27.6257 1.54924C27.682 1.54924 27.7947 1.50124 27.7947 1.59725C27.7947 1.69326 28.0199 1.50124 28.0763 1.45323C28.1326 1.40523 28.2452 1.45323 28.3016 1.45323C28.3297 1.45323 28.4424 1.40523 28.4705 1.45323C28.4705 1.50124 28.5268 1.54924 28.555 1.54924C28.5832 1.50124 28.6958 1.40523 28.8084 1.40523C28.8084 1.40523 28.8084 1.40523 28.8929 1.45323L29.1464 1.59725C29.2027 1.54924 29.2027 1.54924 29.2027 1.54924C29.2872 1.45323 29.3435 1.45323 29.3435 1.45323C29.3435 1.50124 29.4561 1.59725 29.5125 1.64525C29.5125 1.64525 29.5125 1.64525 29.6533 1.45323C29.6814 1.45323 29.6814 1.45323 29.6814 1.45323C29.7096 1.45323 29.7659 1.50124 29.7941 1.50124C29.8222 1.54924 30.0475 1.50124 30.1883 1.45323C30.2446 1.35722 30.2446 1.35722 30.2446 1.35722C30.301 1.40523 30.3573 1.54924 30.3291 1.69326C30.3291 1.69326 30.3291 1.69326 30.4981 1.54924C30.6107 1.45323 30.6107 1.45323 30.6107 1.45323C30.6107 1.59725 30.6107 1.64525 30.6107 1.54924C30.6107 1.45323 30.8079 1.59725 30.8079 1.59725C30.8079 1.59725 30.8923 1.54924 30.9768 1.54924C31.0331 1.54924 31.2866 1.64525 31.3711 1.64525C31.4556 1.64525 31.5964 1.54924 31.6245 1.54924C31.6527 1.54924 31.709 1.69326 31.7372 1.69326C31.7372 1.69326 31.7653 1.64525 31.7935 1.59725C31.8216 1.54924 31.9625 1.50124 32.0188 1.54924C32.0188 1.54924 32.0188 1.54924 32.0751 1.54924C32.1033 1.54924 32.1596 1.45323 32.1596 1.50124C32.2441 1.59725 32.2441 1.59725 32.2441 1.59725C32.3285 1.54924 32.4975 1.54924 32.6101 1.59725C32.6101 1.59725 32.6101 1.59725 32.7228 1.64525C32.751 1.64525 32.751 1.64525 32.751 1.64525C32.8073 1.64525 32.8636 1.59725 32.8918 1.59725C32.9199 1.54924 33.0326 1.54924 33.0889 1.50124C33.117 1.45323 33.3705 1.54924 33.4831 1.54924C33.4831 1.54924 33.4831 1.54924 33.5958 1.54924C33.6803 1.54924 33.6803 1.54924 33.6803 1.54924C33.7929 1.59725 33.8774 1.59725 33.9055 1.59725C33.9337 1.59725 34.0463 1.50124 34.1308 1.50124C34.1308 1.50124 34.1308 1.50124 34.1872 1.54924C34.2435 1.59725 34.2998 1.74126 34.2998 1.50124C34.2998 1.50124 34.3561 1.50124 34.3843 1.50124C34.5251 1.50124 34.694 1.59725 34.8348 1.54924C34.9475 1.50124 34.9475 1.50124 34.9475 1.50124C35.032 1.54924 35.1165 1.59725 35.1446 1.59725C35.1728 1.59725 35.2854 1.54924 35.3417 1.54924C35.3981 1.50124 35.7642 1.54924 35.8768 1.59725C35.9894 1.64525 36.271 1.40523 36.3274 1.40523C36.3837 1.40523 36.6371 1.35722 36.7216 1.30922C36.8061 1.26121 37.0032 1.50124 37.0032 1.50124C37.0314 1.50124 37.144 1.35722 37.2004 1.45323C37.2004 1.45323 37.2004 1.45323 37.2567 1.45323C37.313 1.45323 37.3975 1.35722 37.4538 1.40523C37.5664 1.45323 37.5664 1.45323 37.5664 1.45323C37.6228 1.35722 37.7072 1.30922 37.7354 1.30922C37.7354 1.30922 37.7354 1.30922 37.7636 1.35722C37.8199 1.40523 37.8199 1.40523 37.8199 1.40523C37.8762 1.45323 37.9325 1.50124 37.9607 1.45323C37.9889 1.40523 38.0452 1.35722 38.0733 1.40523C38.0733 1.45323 38.2423 1.45323 38.2705 1.40523C38.2986 1.35722 38.4113 1.30922 38.4394 1.35722C38.4676 1.40523 38.5521 1.54924 38.5521 1.54924C38.6366 1.30922 38.7492 1.50124 38.8618 1.50124C38.9182 1.50124 38.9182 1.50124 38.9182 1.50124C39.0026 1.45323 39.059 1.45323 39.1153 1.45323C39.1434 1.45323 39.2279 1.45323 39.2842 1.50124C39.3406 1.54924 39.5659 1.45323 39.6785 1.45323C39.6785 1.45323 39.6785 1.45323 39.7911 1.40523C39.8475 1.40523 39.9319 1.50124 39.9883 1.45323C40.1009 1.40523 40.1009 1.40523 40.1009 1.40523C40.2136 1.45323 40.3544 1.45323 40.4388 1.50124C40.4388 1.50124 40.4388 1.50124 40.5233 1.50124C40.6641 1.45323 40.6641 1.45323 40.6641 1.45323C40.8331 1.45323 40.9739 1.40523 41.0021 1.40523C41.0302 1.40523 41.1147 1.50124 41.1429 1.54924C41.171 1.64525 41.3681 1.50124 41.3963 1.54924C41.4245 1.59725 41.5089 1.64525 41.5371 1.64525C41.5371 1.59725 41.4808 1.45323 41.4808 1.45323C41.5653 1.40523 41.5653 1.40523 41.5653 1.40523C41.5934 1.50124 41.6216 1.59725 41.6498 1.64525C41.6779 1.64525 41.7342 1.59725 41.7624 1.59725C41.7906 1.54924 41.875 1.50124 41.9032 1.54924C41.9314 1.59725 42.0158 1.54924 42.0158 1.40523C42.0158 1.40523 42.0158 1.40523 42.1566 1.50124C42.1285 1.59725 42.1848 1.64525 42.2975 1.59725C42.3819 1.54924 42.6354 1.74126 42.6354 1.74126C42.6354 1.74126 42.6354 1.74126 42.6354 1.69326C42.6354 1.50124 42.6354 1.50124 42.6354 1.50124C42.7199 1.54924 42.8043 1.59725 42.8325 1.64525C42.8607 1.69326 42.917 1.74126 42.9451 1.69326C42.9733 1.64525 43.0296 1.54924 43.0859 1.59725C43.1423 1.64525 43.3957 1.54924 43.452 1.54924C43.5084 1.54924 43.7055 1.69326 43.7055 1.74126C43.7055 1.78927 43.9026 1.69326 43.9308 1.64525C43.9589 1.59725 44.0997 1.54924 44.1279 1.74126C44.1279 1.74126 44.1279 1.74126 44.2687 1.69326C44.4095 1.64525 44.1842 1.50124 44.2969 1.50124C44.4095 1.50124 44.4095 1.50124 44.4095 1.50124C44.5222 1.50124 44.8038 1.50124 45.029 1.50124C45.029 1.50124 45.029 1.50124 45.2262 1.50124C45.3388 1.50124 45.4233 1.50124 45.5359 1.50124C45.6204 1.50124 45.6204 1.50124 45.6204 1.50124C45.7049 1.54924 45.8457 1.45323 45.9302 1.35722C45.9302 1.35722 45.9302 1.35722 46.0147 1.54924C46.071 1.64525 46.071 1.64525 46.071 1.64525C46.071 1.54924 46.1273 1.40523 46.1836 1.35722C46.1836 1.35722 46.1836 1.35722 46.24 1.45323C46.2963 1.59725 46.2963 1.59725 46.2963 1.59725C46.3808 1.54924 46.4934 1.50124 46.5779 1.50124C46.6624 1.50124 46.8595 1.40523 46.9158 1.35722C46.9721 1.30922 47.1693 1.45323 47.2256 1.45323C47.2819 1.45323 47.479 1.50124 47.5353 1.50124C47.5635 1.45323 47.7043 1.40523 47.7888 1.35722C47.7888 1.35722 47.7888 1.35722 47.8451 1.30922C47.9859 1.21321 47.9859 1.21321 47.9859 1.21321C48.0422 1.35722 48.0986 1.40523 48.0986 1.35722C48.0986 1.30922 48.183 1.1652 48.2675 1.21321C48.352 1.26121 48.6055 1.35722 48.6618 1.35722C48.7463 1.35722 48.9997 1.1652 49.1405 1.1652C49.1405 1.1652 49.1405 1.1652 49.2532 1.1652C49.3658 1.1652 49.4784 1.1172 49.6192 1.1652C49.7037 1.1652 49.7037 1.1652 49.7037 1.1652C49.76 1.1172 49.8727 1.1172 49.9572 1.1172C49.9572 1.1172 49.9572 1.1172 49.9853 1.06919C50.098 0.973183 50.1261 1.02119 50.1543 1.1652C50.2106 1.1652 50.3796 1.06919 50.4922 0.925179C50.4922 0.925179 50.4922 0.925178 50.6612 1.1172C50.6894 1.1172 50.6894 1.1172 50.6894 1.1172C50.7175 1.1172 50.7175 1.06919 50.7175 1.02119C50.7175 0.973184 50.9428 1.02119 50.9991 1.06919C51.0554 1.1172 51.2526 1.06919 51.3089 1.06919C51.3652 1.06919 51.5342 0.973183 51.5905 0.973183C51.6468 0.973183 51.8158 0.877174 51.9003 0.925179C51.9847 0.973184 52.2945 0.925179 52.3508 0.925179C52.379 0.973184 52.4916 1.06919 52.4916 1.02119C52.4916 0.973184 52.548 0.925179 52.5761 1.02119C52.5761 1.02119 52.5761 1.02119 52.6043 1.02119C52.6606 1.06919 52.6606 1.06919 52.6606 1.06919C52.7169 1.06919 52.8859 1.02119 52.9985 1.02119C52.9985 1.02119 52.9985 1.02119 53.0549 0.973183C53.1393 0.877173 53.1393 0.877174 53.1393 0.877174C53.1957 0.925179 53.2801 0.973183 53.3083 0.973183C53.3365 0.973183 53.4209 0.925179 53.4491 0.877174C53.4773 0.877174 53.6462 0.925178 53.7307 0.973183C53.8152 1.02119 54.0686 0.877174 54.0968 0.877174C54.125 0.877174 54.2376 1.06919 54.2376 1.02119C54.2376 0.973184 54.3221 0.829168 54.4066 0.829168C54.4066 0.829168 54.4066 0.829168 54.4629 0.829168C54.5474 0.829168 54.5474 0.829168 54.5474 0.829168C54.6319 0.877174 54.7727 0.925179 54.8571 0.925179C54.9416 0.925179 55.1388 0.781164 55.1951 0.781164C55.2514 0.781164 55.3922 0.829168 55.3922 0.781164C55.3922 0.733158 55.4485 0.589143 55.4485 0.589143C55.533 0.733159 55.6175 0.877174 55.7583 0.685154C55.8146 0.637148 55.8146 0.637148 55.8146 0.637148C55.8991 0.685153 56.0117 0.685154 56.0399 0.685154C56.0681 0.685154 56.2089 0.733158 56.237 0.733158C56.237 0.733158 56.237 0.733158 56.2652 0.733158C56.3497 0.685153 56.3497 0.685154 56.3497 0.685154C56.4623 0.637148 56.6031 0.637148 56.6876 0.637148C56.6876 0.637148 56.6876 0.637148 56.7721 0.637148C56.8284 0.637148 56.8284 0.637148 56.8284 0.637148C56.9129 0.541138 56.9974 0.493133 57.0255 0.541138C57.0537 0.589143 57.1382 0.685153 57.1663 0.637148C57.1945 0.589144 57.3634 0.493133 57.3916 0.541138C57.4198 0.589143 57.5606 0.685154 57.7014 0.685154C57.7014 0.685154 57.7014 0.685153 57.7859 0.733158C57.8703 0.781164 57.8703 0.781164 57.8703 0.781164C57.9267 0.733158 58.0393 0.685154 58.1238 0.685154C58.1238 0.685154 58.1238 0.685153 58.1801 0.637148C58.2083 0.637148 58.2083 0.637148 58.2083 0.637148C58.2646 0.637148 58.4054 0.589143 58.5462 0.541138C58.5462 0.541138 58.5462 0.541138 58.687 0.685154C58.7715 0.781164 58.7715 0.781164 58.7715 0.781164C58.9123 0.781164 59.0249 0.685153 59.0249 0.589143C59.0249 0.493133 59.1939 0.541138 59.2502 0.589143C59.2784 0.637148 59.4473 0.637148 59.5037 0.637148C59.56 0.637148 59.7008 0.541138 59.7008 0.541138C59.7008 0.541138 59.7571 0.589144 59.7853 0.637148C59.8134 0.685153 60.0387 0.733159 60.0106 0.685154C59.9824 0.637148 59.9824 0.589144 60.095 0.637148C60.095 0.637148 60.095 0.637148 60.2077 0.493133C60.264 0.445128 60.4048 0.493133 60.4893 0.493133C60.5738 0.493133 60.5738 0.493133 60.5738 0.493133C60.6301 0.589143 60.6864 0.637148 60.7146 0.637148C60.7427 0.637148 60.8835 0.637148 61.0243 0.685154C61.0243 0.685154 61.0243 0.685153 61.1088 0.493133C61.137 0.445128 61.137 0.445128 61.137 0.445128C61.2778 0.541138 61.3623 0.541138 61.3623 0.493133C61.3623 0.445128 61.3341 0.301113 61.3341 0.301113C61.3341 0.301113 61.4468 0.253108 61.5312 0.253108C61.6157 0.253108 61.8692 0.349118 61.8973 0.349118C61.8973 0.349118 61.8973 0.349118 61.9255 0.349118C62.01 0.397123 62.01 0.397123 62.01 0.397123C62.1226 0.397123 62.2353 0.397123 62.2916 0.445128C62.3479 0.493133 62.5169 0.253108 62.6295 0.109093C62.6295 0.109093 62.6295 0.109093 62.7422 0.157098C62.883 0.253108 62.883 0.253108 62.883 0.253108C62.9674 0.157098 63.0238 0.0610884 63.0519 0.0610884C63.0801 0.0610884 63.1082 0.0610884 63.1364 0.0130834C63.1646 -0.0349216 63.3054 0.0610884 63.3617 0.109093C63.3899 0.157098 63.5588 0.205103 63.5307 0.109093C63.5025 0.0130834 63.6715 0.109093 63.6996 0.0610884C63.7278 0.0130834 63.8686 0.0610884 63.8967 0.109093C63.9531 0.157098 64.122 0.157098 64.122 0.109093C64.122 0.0610884 64.2628 0.0130834 64.5163 0.0130834C64.5163 0.0130834 64.5163 0.0130834 64.6008 0.109093C64.7697 0.301113 64.7697 0.301113 64.7697 0.301113C64.7979 0.109093 64.8542 0.0610884 64.9387 0.157098C64.9387 0.157098 64.9387 0.157098 65.0795 0.0610884C65.2485 -0.0349216 65.4456 0.0130834 65.6145 0.157098C65.6709 0.205103 65.7835 0.301113 65.8962 0.205103C65.9525 0.157098 66.0933 0.253108 66.1778 0.349118C66.2341 0.397123 66.0651 0.445128 66.1778 0.493133C66.2059 0.493133 66.2623 0.397123 66.2904 0.445128C66.3467 0.445128 66.4594 0.493133 66.4594 0.541138C66.5157 0.733158 66.5157 0.733158 66.5157 0.733158C66.6565 0.781164 66.8255 0.877174 66.9099 0.925179C66.9944 0.973184 67.276 1.02119 67.3042 1.02119C67.3605 1.02119 67.5013 1.06919 67.5576 1.06919C67.5858 1.06919 67.6703 1.02119 67.6703 1.1172C67.6703 1.21321 67.8392 1.06919 67.8674 1.06919C67.8956 1.06919 68.0364 1.06919 68.1209 1.06919C68.2335 1.06919 68.4869 1.26121 68.5151 1.26121C68.5433 1.26121 68.6278 1.26121 68.6278 1.30922C68.6278 1.35722 68.7122 1.50124 68.8249 1.45323C68.9375 1.40523 69.2473 1.59725 69.3599 1.64525C69.3599 1.64525 69.3599 1.64525 69.3881 1.88528C69.4163 1.98129 69.5852 2.02929 69.6134 2.22131C69.6415 2.31732 69.6415 2.31732 69.6415 2.31732C69.7542 2.41333 69.8668 2.46134 69.895 2.46134C69.9231 2.46134 69.9513 2.55735 69.9231 2.65336C70.0358 2.70136 70.0358 2.70136 70.0358 2.70136C70.0076 2.79737 69.9795 2.98939 69.9795 3.0854C69.9795 3.0854 69.9795 3.0854 69.9795 3.18141C70.0076 3.37343 70.0076 3.37343 70.0076 3.37343C70.0358 3.61346 70.0921 3.80548 70.1203 3.80548C70.1203 3.80548 70.1203 3.80548 70.1484 3.80548C70.1766 3.80548 70.1766 3.80548 70.1766 3.80548C70.2048 3.80548 70.2329 3.80548 70.2329 3.85348C70.2329 3.90149 70.1766 3.94949 70.1203 3.9975C70.1203 3.9975 70.1203 3.9975 70.0639 4.0455C70.0639 4.0455 70.0639 4.09351 70.0639 4.14151C70.0639 4.14151 70.0921 4.14151 70.1203 4.14151L70.1484 4.09351C70.2048 4.09351 70.2048 4.09351 70.2048 4.09351C70.2611 4.09351 70.3174 4.09351 70.3174 4.14151C70.3174 4.18952 70.3737 4.33353 70.43 4.42954C70.43 4.42954 70.43 4.42954 70.4864 4.52555C70.5145 4.57356 70.5145 4.57356 70.5145 4.57356C70.5145 4.71757 70.4582 4.76558 70.3737 4.71757C70.2892 4.66957 70.0921 4.71757 70.1484 4.9576C70.2329 5.24563 70.2329 5.9657 70.1766 5.9657C70.0921 6.01371 69.9231 6.10972 69.9513 6.10972C69.9795 6.10972 70.0639 6.20573 70.1203 6.30174C70.1203 6.30174 70.1203 6.30174 70.1484 6.39775C70.2329 6.63777 70.2611 6.25373 70.3456 6.39775C70.3737 6.44575 70.3737 6.44575 70.3737 6.44575C70.4582 6.49376 70.5145 6.58977 70.4864 6.68578C70.4582 6.78179 70.5427 7.16583 70.5708 7.35785C70.5708 7.35785 70.5708 7.35785 70.5145 7.54987C70.4582 7.74189 70.5708 8.07792 70.7116 8.07792C70.8243 8.07792 70.8243 8.07792 70.8243 8.07792C70.9651 8.12593 71.0214 8.17393 70.9651 8.17393C70.9088 8.17393 70.7116 8.26995 70.7116 8.31795C70.7116 8.36596 70.768 8.60598 70.8524 8.55797C70.8524 8.55797 70.8525 8.55797 70.9369 8.55797C70.9933 8.55797 70.9933 8.55797 70.9933 8.55797C71.0496 8.55797 71.1059 8.55797 71.1622 8.60598C71.2185 8.65399 71.4438 8.60598 71.5283 8.60598C71.641 8.60598 71.7536 8.99002 71.7536 9.03802C71.7536 9.03802 71.7536 9.03802 71.6973 9.03802C71.5846 8.99002 71.5283 9.13404 71.5565 9.27805C71.5846 9.37406 71.6128 9.47007 71.6691 9.51807C71.7818 9.61409 71.7818 9.61408 71.7818 9.61408C71.7818 9.8061 71.8099 9.90211 71.8381 9.85411C71.8381 9.85411 71.8381 9.85411 71.8662 9.85411C71.8944 9.85411 71.9507 9.85411 71.9789 9.90211C72.007 9.95012 72.007 9.99813 71.9789 10.0461C71.9226 10.1421 71.8662 10.2381 71.7536 10.1901C71.7254 10.1901 71.6973 10.2382 71.6973 10.2862C71.6973 10.3342 71.7254 10.3822 71.7536 10.3822C71.8381 10.4302 71.8381 10.4302 71.8381 10.4302C71.9226 10.4782 71.9226 10.5742 71.8381 10.6702C71.8381 10.6702 71.8381 10.6702 71.7536 10.6702C71.6691 10.6702 71.6691 10.6702 71.6691 10.6702C71.5565 10.5742 71.472 10.6222 71.472 10.7662C71.472 10.7662 71.472 10.7662 71.4438 10.8622C71.4157 11.0062 71.4157 11.0062 71.4157 11.0062C71.3312 11.0542 71.1904 11.1022 71.1341 11.1022C71.0777 11.1022 71.0777 11.3903 71.1341 11.5823C71.1622 11.7263 71.2467 12.2544 71.1904 12.3024C71.1341 12.3504 71.1904 12.6384 71.2185 12.6864C71.2467 12.7344 71.303 12.9264 71.2749 12.9264C71.2749 12.9264 71.2749 12.9264 71.2185 12.9744C71.1622 13.0224 71.1059 12.8304 71.0496 12.9744C70.9933 12.9744 70.9088 12.9264 70.8524 12.8784C70.7961 12.8304 70.5427 12.9264 70.4582 12.9264C70.3456 12.9744 70.0358 12.8304 69.9513 12.7344C69.8668 12.6864 69.5571 12.6864 69.5007 12.6864C69.4444 12.6864 69.2755 12.5424 69.2473 12.5904C69.2191 12.6384 69.191 12.8304 69.191 12.9264C69.191 13.0224 69.3881 13.0704 69.4444 13.0704C69.4444 13.0704 69.4444 13.0704 69.4726 13.1185C69.5289 13.1665 69.4726 13.3585 69.6134 13.3105C69.6415 13.3105 69.6415 13.3105 69.6415 13.3105C69.6697 13.4065 69.7542 13.4545 69.8105 13.3585C69.8105 13.3585 69.8105 13.3585 69.8105 13.5985C69.8105 13.6465 69.8105 13.6465 69.8105 13.6465C69.895 13.6945 70.0076 13.6945 70.0921 13.6945C70.0921 13.6945 70.0921 13.6945 70.1203 13.8385C70.1203 13.9345 70.1203 13.9345 70.1203 13.9345C70.1484 14.0786 70.1203 14.1266 70.0921 14.0786C70.0639 14.0305 69.895 14.0305 69.8668 14.0305C69.8387 14.0786 69.726 14.1266 69.6697 14.0305C69.6134 13.9825 69.4444 13.7425 69.4444 13.7905C69.4726 13.9345 69.5571 14.0786 69.5571 14.2226C69.5289 14.3666 69.5289 14.3666 69.5289 14.3666C69.4163 14.5586 69.3599 14.7026 69.4163 14.7506C69.4444 14.7986 69.5852 14.7986 69.6415 14.7026C69.6415 14.7026 69.6415 14.7026 69.6697 14.6066C69.6979 14.5586 69.6979 14.5586 69.6979 14.5586C69.6979 14.4626 69.726 14.4146 69.726 14.4146C69.8105 14.5586 69.8105 14.5586 69.8105 14.5586C69.895 14.4626 70.0076 14.4146 70.0358 14.4626C70.0639 14.4626 70.0639 14.6066 69.9513 14.7506C69.9513 14.7506 69.9513 14.7506 70.0076 14.9426C70.0358 14.9906 70.0358 14.9906 70.0358 14.9906C70.1203 14.9426 70.2048 15.0387 70.2329 15.2307C70.2611 15.3747 70.3174 15.5667 70.3174 15.5667C70.3174 15.5667 70.2048 15.6147 70.1484 15.5187C70.1484 15.5187 70.1484 15.5187 70.0921 15.4707C70.0639 15.4707 70.0076 15.5187 70.0076 15.5667C69.9795 15.6147 69.9795 15.7587 70.0076 15.8067C70.0358 15.8547 70.2048 15.9027 70.1766 15.9507C70.1484 15.9987 70.0076 16.1908 70.0358 16.2388C70.0639 16.2868 70.1203 16.4308 70.1484 16.3828C70.1484 16.3828 70.1484 16.3828 70.1766 16.3828C70.2611 16.3348 70.3456 16.4788 70.43 16.7188C70.4582 16.8148 70.4582 16.8148 70.4582 16.8148C70.4019 16.9108 70.3737 17.0069 70.3456 17.0549C70.3174 17.0549 70.3174 17.1509 70.3737 17.1989C70.3737 17.1989 70.3737 17.1989 70.4019 17.1989C70.5145 17.1989 70.5427 17.2469 70.4864 17.3909C70.4864 17.4389 70.4582 17.4869 70.4582 17.4869C70.5145 17.5349 70.5145 17.5349 70.5145 17.5349C70.5145 17.6309 70.43 17.6789 70.3737 17.6309C70.3737 17.6309 70.3737 17.6309 70.3456 17.5349C70.3456 17.4869 70.3456 17.4869 70.3456 17.4869C70.2048 17.4869 70.2048 17.5349 70.3456 17.6309C70.3456 17.6309 70.3456 17.6309 70.2892 17.8229C70.2611 17.919 70.2611 17.9189 70.2611 17.9189C70.2329 18.063 70.2329 18.159 70.2611 18.207C70.2892 18.255 70.3456 18.447 70.3174 18.543C70.2892 18.639 70.0921 18.735 70.0921 18.783C70.0921 18.783 70.0921 18.783 70.1203 18.831C70.1484 18.9271 70.1484 18.9271 70.1484 18.9271C70.1766 19.0711 70.1766 19.1191 70.1484 19.0711C70.1203 19.0231 69.9795 18.9751 69.9513 19.0231C69.9231 19.0231 69.7823 19.0231 69.726 19.0231C69.6697 19.0231 69.5571 19.0231 69.5852 19.0711C69.6134 19.1191 69.6979 19.2151 69.726 19.2631C69.7542 19.3111 69.895 19.2151 69.895 19.2151C69.895 19.2151 69.9231 19.2631 69.9231 19.3591C69.9231 19.4551 70.1203 19.3591 70.1484 19.3591C70.1766 19.3591 70.2329 19.4071 70.1766 19.4551C70.1203 19.5031 69.9513 19.5991 69.9231 19.5511C69.9231 19.5031 69.8387 19.4551 69.8105 19.4551C69.7823 19.4551 69.6979 19.6951 69.6697 19.6951C69.6415 19.6951 69.5289 19.7911 69.5007 19.9352C69.5007 19.9352 69.5007 19.9352 69.5289 20.0792C69.5571 20.2232 69.6134 20.2712 69.6979 20.3192C69.726 20.3192 69.726 20.3192 69.726 20.3192C69.7542 20.3672 69.7542 20.4632 69.6979 20.5112C69.6697 20.6072 69.5007 20.7512 69.4726 20.7992C69.4444 20.8473 69.4444 20.9913 69.4444 20.9913C69.4163 20.9913 69.3881 21.0873 69.3881 21.0873C69.3881 21.0873 69.3881 21.1833 69.4444 21.2313C69.4726 21.2793 69.5571 21.5193 69.5571 21.6633C69.5571 21.6633 69.5571 21.6633 69.5007 21.7593C69.3881 21.9514 69.4163 22.0954 69.5852 22.1914C69.726 22.2874 69.726 22.2874 69.726 22.2874C69.6415 22.4314 69.5571 22.6234 69.5007 22.7194C69.4726 22.8155 69.3599 22.9115 69.4444 22.9115C69.4444 22.9115 69.4444 22.9115 69.4444 23.1035C69.4444 23.1995 69.4444 23.1995 69.4444 23.1995C69.4444 23.2955 69.4726 23.4875 69.4726 23.5835C69.4726 23.5835 69.4726 23.5835 69.5289 23.6315C69.5852 23.7276 69.5852 23.7276 69.5852 23.7276C69.5571 23.8236 69.5289 24.0156 69.5007 24.1116C69.5007 24.1116 69.5007 24.1116 69.5571 24.2076C69.6979 24.4956 69.6979 24.4956 69.6979 24.4956C69.5852 24.6397 69.4726 24.7357 69.4726 24.7357C69.4726 24.7357 69.5571 25.0237 69.6979 25.3117C69.6979 25.3117 69.6979 25.3117 69.8105 25.5998C69.8387 25.6958 69.8387 25.6958 69.8387 25.6958C69.7823 25.6478 69.726 25.6478 69.6979 25.6478C69.6979 25.6478 69.6415 25.6478 69.5852 25.6958C69.5289 25.7438 69.4163 25.8398 69.3881 25.8398C69.3599 25.8398 69.2191 25.8878 69.1628 25.9358C69.1628 25.9358 69.1628 25.9358 69.1065 25.9838C69.022 26.0318 69.022 26.0318 69.022 26.0318C68.9375 26.0318 68.7122 26.0798 68.5433 26.1278C68.3743 26.1758 67.7829 26.2718 67.6703 26.3198C67.6703 26.3198 67.6703 26.3198 67.5858 26.3198C67.5013 26.3198 67.5013 26.3198 67.5013 26.3198C67.3887 26.3678 67.1634 26.4158 66.9381 26.4158C66.9381 26.4158 66.9381 26.4158 66.741 26.4158C66.6565 26.4158 66.6565 26.4158 66.6565 26.4158C66.572 26.4638 66.4312 26.6079 66.3467 26.7039C66.3467 26.7039 66.3467 26.7039 66.2622 26.5118C66.2622 26.4638 66.0933 26.5599 66.0933 26.5599C66.037 26.3678 65.9525 26.7039 65.8962 26.5118C65.868 26.4638 65.868 26.4638 65.868 26.4638C65.7554 26.5599 65.6427 26.6079 65.5864 26.6079C65.5019 26.7039 65.5019 26.7039 65.5019 26.7039C65.3893 26.7039 65.2485 26.7039 65.1921 26.7519C65.1358 26.7999 64.9387 26.7039 64.9105 26.7039C64.8542 26.7039 64.6289 26.7519 64.5163 26.7519C64.4036 26.7519 64.0657 26.8959 64.0376 26.8479C64.0094 26.7999 63.8123 26.9439 63.6996 26.9919C63.6996 26.9919 63.6996 26.9919 63.6151 26.9439C63.5025 26.8959 63.5025 26.8959 63.5025 26.8959C63.3617 26.9439 63.2209 26.9439 63.1364 26.9919C63.0519 26.9919 62.883 27.0879 62.883 27.0399C62.883 26.9919 62.7422 27.0399 62.6577 27.1359C62.5732 27.2319 62.2916 27.0879 62.2353 27.1359C62.2353 27.1359 62.2353 27.1359 62.2071 27.0879C62.0945 26.9919 62.0945 26.9919 62.0945 26.9919C62.01 27.0879 61.841 27.1359 61.7284 27.0879C61.7284 27.0879 61.7284 27.0879 61.6439 27.1359C61.5594 27.1839 61.5594 27.1839 61.5594 27.1839C61.4749 27.1359 61.306 27.0879 61.1933 27.1359C61.1933 27.1359 61.1933 27.1359 61.1088 27.1359C61.0243 27.1359 61.0243 27.1359 61.0243 27.1359C60.9117 27.1839 60.7709 27.1839 60.6864 27.0879C60.6864 27.0879 60.6864 27.0879 60.5738 27.1839C60.4893 27.2319 60.4893 27.2319 60.4893 27.2319C60.3767 27.2319 60.1514 27.2319 60.0106 27.2799C60.0106 27.2799 60.0106 27.2799 59.8416 27.2319C59.729 27.1839 59.729 27.1839 59.729 27.1839C59.5882 27.2319 59.4473 27.3279 59.391 27.3279C59.3347 27.3279 59.1939 27.2799 59.1657 27.2799C59.1376 27.3279 58.9686 27.2799 58.8841 27.2799C58.7996 27.2799 58.5462 27.3759 58.518 27.3279C58.518 27.2799 58.4899 27.2799 58.4899 27.3759C58.4899 27.4719 58.2928 27.2799 58.2646 27.2799C58.2364 27.2799 58.0393 27.2799 57.9548 27.3279C57.8703 27.3759 57.6451 27.2799 57.5887 27.3279C57.5324 27.3279 57.3071 27.2799 57.2226 27.2799C57.1382 27.2799 56.8566 27.2799 56.7721 27.2799C56.6876 27.2319 56.4623 27.4239 56.4341 27.4239C56.406 27.4239 56.2652 27.3759 56.237 27.3759C56.1807 27.3759 56.0681 27.3759 55.9554 27.3759C55.8428 27.3759 55.5612 27.3279 55.533 27.3279C55.5048 27.3279 55.4204 27.3759 55.3922 27.3279C55.364 27.2799 55.1388 27.3279 55.0543 27.3759C54.9698 27.3759 54.6882 27.4239 54.5755 27.52C54.5755 27.52 54.5755 27.52 54.4347 27.3759C54.3503 27.2799 54.3503 27.2799 54.3503 27.2799C54.1813 27.2799 53.956 27.3279 53.8152 27.3759C53.8152 27.3759 53.8152 27.3759 53.6744 27.2799C53.6462 27.2799 53.6462 27.2799 53.6462 27.2799C53.5899 27.3759 53.4773 27.4239 53.3928 27.3279C53.3083 27.2319 52.9704 27.3759 52.8014 27.4239C52.6324 27.4719 52.21 27.2799 52.1819 27.2799C52.1537 27.2799 52.0129 27.3279 51.8721 27.3279C51.8721 27.3279 51.8721 27.3279 51.7313 27.2319C51.6468 27.1839 51.6468 27.1839 51.6468 27.1839C51.5905 27.3279 51.506 27.3759 51.4497 27.3279C51.3934 27.2799 51.2244 27.1839 51.1681 27.2319C51.1118 27.2799 50.971 27.4239 50.9428 27.3759C50.9146 27.3279 50.7457 27.2319 50.6049 27.2319C50.6049 27.2319 50.6049 27.2319 50.5204 27.2799C50.4077 27.3279 50.3233 27.3279 50.2388 27.2799C50.1543 27.1839 50.1543 27.1839 50.1543 27.1839C50.0698 27.2319 49.9853 27.2799 49.9572 27.2799C49.929 27.2799 49.76 27.1839 49.7319 27.1839C49.7037 27.1839 49.5348 27.2319 49.5066 27.2799C49.4503 27.3279 49.3095 27.2799 49.2532 27.2799C49.1968 27.2799 49.0279 27.2799 48.9715 27.2799C48.9152 27.2799 48.7744 27.2319 48.7744 27.1839C48.7744 27.1359 48.7463 26.9919 48.7181 26.9919C48.6899 26.9919 48.6336 27.0399 48.6336 26.9919C48.6336 26.9439 48.521 26.8959 48.4928 26.9439C48.4928 26.9439 48.4928 26.9439 48.4647 27.0399C48.4365 27.0879 48.352 27.1359 48.2957 27.1839C48.1267 27.3279 48.1267 27.3279 47.9578 27.1359C47.9296 27.0879 47.9296 27.0879 47.9296 27.0879C47.9014 27.0399 47.817 27.0879 47.7888 27.1359C47.7606 27.1839 47.5917 27.2799 47.5353 27.1839C47.479 27.1359 47.3382 26.9919 47.3382 27.0399C47.3382 27.0879 47.2537 27.2799 47.1693 27.2799C47.0848 27.2799 46.7187 27.2319 46.4652 27.3279C46.4652 27.3279 46.4652 27.3279 46.2118 27.1839C45.9302 27.4719 45.9302 27.4719 45.9302 27.4719C45.7894 27.568 45.6767 27.616 45.6486 27.568C45.6204 27.52 45.5078 27.616 45.4796 27.616C45.4796 27.616 45.3388 27.664 45.2262 27.616C45.1135 27.616 44.7756 27.52 44.7474 27.52C44.7193 27.52 44.5503 27.616 44.494 27.664C44.4377 27.712 44.1842 27.712 44.0716 27.808C44.0716 27.808 44.0716 27.808 43.9308 27.616C43.8463 27.52 43.8463 27.52 43.8463 27.52C43.7618 27.568 43.6492 27.568 43.5928 27.52C43.5365 27.4719 43.3676 27.664 43.3112 27.664C43.2549 27.664 43.0859 27.568 43.0859 27.52C43.0859 27.4719 43.0015 27.3759 42.917 27.4719C42.917 27.4719 42.917 27.4719 42.8607 27.568C42.8043 27.664 42.8043 27.664 42.8043 27.664C42.7199 27.616 42.6354 27.616 42.6072 27.616C42.5791 27.664 42.4664 27.664 42.4664 27.616C42.4664 27.568 42.4383 27.52 42.4101 27.712C42.4101 27.712 42.4101 27.712 42.2975 27.616C42.2411 27.568 42.2411 27.568 42.2411 27.568C42.1848 27.616 42.1003 27.616 42.0722 27.616C42.044 27.616 41.875 27.52 41.8469 27.568C41.7906 27.568 41.6216 27.568 41.5653 27.52C41.5089 27.4719 41.34 27.52 41.2555 27.4719C41.2555 27.4719 41.2555 27.4719 41.171 27.4719C41.1429 27.4719 41.0865 27.52 41.0584 27.52C41.0021 27.4239 40.9739 27.52 40.9176 27.52C40.8894 27.52 40.8331 27.4719 40.8049 27.4239C40.8049 27.4239 40.7486 27.4719 40.7486 27.52C40.7486 27.568 40.7486 27.568 40.7486 27.568C40.7768 27.616 40.7768 27.616 40.7768 27.664C40.7768 27.664 40.7204 27.664 40.6641 27.664C40.636 27.664 40.467 27.664 40.4107 27.712C40.4107 27.712 40.4107 27.712 40.3544 27.712C40.2417 27.712 40.1291 27.616 40.0728 27.664C39.9601 27.76 39.9601 27.76 39.9601 27.76C39.8756 27.712 39.763 27.664 39.7348 27.664C39.6785 27.664 39.5377 27.76 39.5095 27.808C39.4814 27.856 39.4251 27.664 39.4251 27.616C39.4251 27.616 39.3124 27.616 39.2279 27.616C39.1434 27.616 38.7774 27.712 38.6929 27.712C38.6084 27.712 38.4113 27.4239 38.3831 27.4719C38.3549 27.52 38.2986 27.712 38.1578 27.76C38.0452 27.76 37.5946 27.568 37.3975 27.4719C37.3975 27.4719 37.3975 27.4719 37.2285 27.712C37.1722 27.76 37.1722 27.76 37.1722 27.76C37.0595 27.712 36.9469 27.664 36.9187 27.664C36.8906 27.616 36.7779 27.664 36.7216 27.664C36.6653 27.616 36.4963 27.712 36.4682 27.76C36.44 27.76 36.2992 27.76 36.1866 27.712C36.0739 27.664 35.7078 27.76 35.5389 27.808C35.5389 27.808 35.5389 27.808 35.3981 27.664C35.3981 27.664 35.0601 27.808 35.032 27.808C35.0038 27.856 35.0038 27.856 34.9757 27.856C34.8912 27.904 34.8912 27.904 34.8912 27.904C34.8067 27.856 34.7504 27.76 34.7504 27.712C34.7504 27.664 34.7222 27.52 34.694 27.52C34.6659 27.52 34.5814 27.568 34.6096 27.616C34.6096 27.616 34.6096 27.616 34.6096 27.664C34.6096 27.712 34.6096 27.712 34.6096 27.712C34.6096 27.808 34.5251 27.856 34.4406 27.856C34.4406 27.856 34.4406 27.856 34.3561 27.856C34.2998 27.856 34.2998 27.856 34.2998 27.856C34.2435 27.904 34.1027 27.904 34.0182 27.904C33.9337 27.904 33.6521 27.856 33.5958 27.856C33.5395 27.904 33.3705 27.808 33.3142 27.856C33.2578 27.904 33.0889 27.808 33.0607 27.856C33.0607 27.856 33.0607 27.856 33.0326 27.856C32.8918 27.904 32.7791 27.856 32.6383 27.808C32.5257 27.76 32.5257 27.76 32.5257 27.76C32.3567 27.76 32.1877 27.76 32.1314 27.76C32.0751 27.76 32.0188 27.568 31.9625 27.712C31.9625 27.712 31.9625 27.712 31.9343 27.76C31.9061 27.808 31.9061 27.808 31.9061 27.808C31.878 27.856 31.7935 27.904 31.709 27.952C31.6245 28 31.3429 27.808 31.2866 27.808C31.2303 27.808 31.1458 27.808 31.1176 27.808C31.0895 27.808 30.9487 27.808 30.9205 27.808C30.8923 27.808 30.6952 27.808 30.6107 27.808C30.5263 27.808 30.301 27.712 30.301 27.664C30.301 27.616 30.2446 27.712 30.1883 27.856C30.1883 27.856 30.1883 27.856 30.0475 27.712C30.0194 27.664 29.9067 27.856 29.8222 27.856C29.7378 27.856 29.7378 27.856 29.7378 27.856C29.6533 27.808 29.5125 27.856 29.428 28C29.428 28 29.428 28 29.3153 27.856C29.259 27.76 29.259 27.76 29.259 27.76C29.1464 27.712 29.0337 27.664 29.0056 27.712C28.9774 27.76 28.8929 27.904 28.8648 27.808C28.8366 27.76 28.724 27.664 28.6676 27.76C28.6676 27.76 28.6676 27.76 28.6113 27.808C28.5832 27.808 28.4987 27.808 28.4987 27.808C28.4987 27.568 28.4987 27.568 28.4987 27.568C28.3579 27.52 28.2171 27.52 28.2171 27.568C28.2171 27.664 28.1326 27.76 28.0481 27.76C28.0481 27.76 28.0481 27.76 27.9918 27.808C27.9355 27.808 27.9073 27.904 27.9073 27.76C27.9073 27.616 27.8228 27.616 27.7947 27.664C27.6539 27.808 27.5131 27.712 27.3722 27.76C27.2596 27.76 27.2596 27.76 27.2596 27.76C27.147 27.808 27.0343 27.808 27.0343 27.808C27.0343 27.808 27.0343 27.808 27.0062 27.808C26.8935 27.76 26.8935 27.76 26.8935 27.76C26.7246 27.712 26.6401 27.664 26.6964 27.616C26.7527 27.568 26.6401 27.4239 26.6401 27.3759C26.6401 27.3279 26.5556 27.2799 26.5556 27.3759C26.5556 27.4719 26.4993 27.76 26.4429 27.712C26.4429 27.712 26.4429 27.712 26.4148 27.664C26.3585 27.616 26.3585 27.616 26.3585 27.616C26.3303 27.52 26.2177 27.4719 26.1613 27.52C26.105 27.568 25.8797 27.616 25.8516 27.568C25.8234 27.4719 25.7108 27.3279 25.6544 27.4239C25.6544 27.4239 25.6544 27.4239 25.6544 27.52C25.6544 27.76 25.6544 27.76 25.6544 27.76C25.57 27.76 25.401 27.76 25.3165 27.712C25.232 27.664 24.9504 27.712 24.9223 27.712C24.8941 27.712 24.8096 27.664 24.7533 27.616C24.697 27.568 24.4717 27.616 24.3872 27.664C24.3872 27.664 24.3872 27.664 24.3309 27.616C24.2746 27.568 24.2746 27.568 24.2746 27.568C24.2182 27.4239 24.1338 27.3279 24.0774 27.3759C24.0211 27.4239 23.8803 27.568 23.8803 27.616C23.8803 27.616 23.8803 27.616 23.8803 27.664C23.8803 27.712 23.8803 27.712 23.8803 27.712C23.8803 27.76 23.8522 27.76 23.824 27.76C23.7958 27.76 23.7395 27.664 23.6832 27.568C23.6269 27.4719 23.4579 27.664 23.4297 27.664C23.4016 27.664 23.2889 27.616 23.2326 27.616C23.2326 27.616 23.2326 27.616 23.2326 27.568C23.2045 27.4239 23.2045 27.4239 23.2045 27.4239C23.2889 27.4239 23.4016 27.4239 23.4579 27.4239C23.5142 27.4239 23.5424 27.1359 23.4861 27.1359C23.4297 27.1359 23.2326 27.1359 23.2326 27.2319C23.2326 27.2319 23.2326 27.2319 23.2045 27.3279C23.1763 27.4239 23.12 27.568 23.0637 27.568C22.9229 27.568 23.0355 27.3759 22.9792 27.2799C22.9792 27.2799 22.8947 27.3279 22.8384 27.4719C22.782 27.568 22.4723 27.568 22.3878 27.568C22.3033 27.568 22.1907 27.3279 22.1625 27.4239C22.1343 27.52 22.3315 27.616 22.3596 27.616C22.3596 27.616 22.3878 27.712 22.3596 27.76C22.3596 27.76 22.3596 27.76 22.3315 27.76C22.2752 27.76 22.2752 27.76 22.2752 27.76C22.2188 27.712 22.1062 27.616 22.0217 27.4719C22.0217 27.4719 22.0217 27.4719 21.9935 27.0399C21.9935 26.9919 21.8809 26.8959 21.8809 26.8959C21.6275 27.1839 21.7119 26.8479 21.6838 26.7039C21.6556 26.6559 21.6275 26.7039 21.6275 26.7999C21.6275 26.8959 21.5711 27.0879 21.5148 26.9919C21.4585 26.8959 21.374 27.2799 21.3458 27.3279C21.3177 27.3759 21.2332 27.616 21.205 27.616C21.1769 27.616 20.9798 27.616 20.839 27.616C20.839 27.616 20.839 27.616 20.6982 27.616C20.67 27.616 20.67 27.616 20.67 27.616C20.6418 27.616 20.6137 27.616 20.6137 27.568C20.6137 27.52 20.6137 27.4239 20.6137 27.3759C20.6137 27.3279 20.7263 27.1359 20.7826 27.1839C20.7826 27.1839 20.7826 27.1839 20.839 27.1839C20.8953 27.1839 20.8953 27.1839 20.8953 27.1839C20.9234 27.2319 21.0079 27.2799 21.0924 27.3279C21.0924 27.3279 21.0924 27.3279 21.1487 27.3279C21.1769 27.3279 21.2332 27.3279 21.2332 27.2799C21.2614 27.1839 21.2614 27.1839 21.2614 27.1839C21.2895 27.0399 21.374 26.9439 21.4303 26.9439C21.4303 26.9439 21.4303 26.9439 21.4585 26.8959C21.5148 26.7999 21.5148 26.6559 21.543 26.6079C21.6556 26.4638 21.6556 26.4638 21.6556 26.4638C21.5993 26.3678 21.5148 26.2718 21.4867 26.2238C21.4585 26.2238 21.3458 26.2718 21.3458 26.4158C21.3458 26.5599 21.2614 26.9439 21.1769 26.9439C21.1769 26.9439 21.1769 26.9439 21.1206 27.0399C21.0642 27.1359 21.0079 27.1839 20.8953 27.0879C20.839 27.1839 20.839 27.1839 20.839 27.1839ZM21.7401 26.0798C21.6838 26.0318 21.5993 26.0318 21.5993 26.0318C21.5993 26.0318 21.5993 26.1278 21.6556 26.1758C21.6838 26.2238 21.9091 26.2718 22.0217 26.1758C22.0217 26.1758 22.0217 26.1758 22.1343 26.3198C22.1343 26.3198 22.1907 26.3198 22.1907 26.2718C22.2188 26.2238 22.2188 26.2238 22.2188 26.2238C22.2752 26.1278 22.2752 26.0318 22.1907 26.0318C22.1062 26.0318 21.8246 26.1278 21.7401 26.0798ZM19.7125 26.3198C19.628 26.3678 19.5717 26.4638 19.5999 26.5599C19.628 26.6559 19.8252 26.4638 19.8533 26.4158C19.8815 26.3678 20.1068 26.3678 20.1631 26.3678C20.2194 26.3678 20.4447 26.3198 20.4165 26.2238C20.3884 26.1278 20.1913 26.2238 20.1349 26.2238C20.0786 26.2238 19.9378 26.2238 19.8533 26.1758C19.8533 26.1758 19.8533 26.1758 19.7688 26.2238C19.7125 26.3198 19.7125 26.3198 19.7125 26.3198ZM68.8249 12.9264C68.9094 12.9744 68.9375 12.9264 68.9094 12.8304C68.8812 12.7344 68.7404 12.3984 68.6841 12.2064C68.6841 12.2064 68.6841 12.2064 68.5714 12.4464C68.4869 12.6384 68.4869 12.6384 68.4869 12.6384C68.4025 12.5904 68.3743 12.5424 68.4306 12.5904C68.4869 12.5904 68.7404 12.8784 68.8249 12.9264ZM36.1302 26.3678C36.0458 26.3678 35.9331 26.4158 35.9331 26.4638C35.9613 26.5599 35.9613 26.5599 35.9613 26.5599C35.9331 26.6559 35.9331 26.7519 35.9894 26.7999C36.0176 26.8479 36.1584 26.7039 36.2429 26.7039C36.271 26.6079 36.2147 26.3678 36.1302 26.3678ZM70.0358 12.7824C69.9795 12.6384 69.9513 12.6384 69.9795 12.7824C70.0076 12.9264 70.2329 13.0704 70.2892 13.0704C70.2892 13.0704 70.2892 13.0704 70.2892 12.9264C70.2892 12.8784 70.2892 12.8784 70.2892 12.8784C70.3456 12.7344 70.2892 12.7344 70.1484 12.8784C70.1484 12.8784 70.1484 12.8784 70.0921 12.8304C70.0358 12.7824 70.0358 12.7824 70.0358 12.7824ZM19.0648 26.1758C18.8959 26.2238 18.8114 26.2718 18.8959 26.2718C18.9522 26.2718 19.1493 26.4158 19.1775 26.4638C19.2338 26.5118 19.3746 26.5599 19.3746 26.5118C19.3746 26.4638 19.3183 26.2718 19.2338 26.3198C19.2338 26.3198 19.2338 26.3198 19.2056 26.3198C19.0648 26.1758 19.0648 26.1758 19.0648 26.1758ZM25.9924 26.6559C25.9642 26.6559 25.9642 26.7999 26.0205 26.9919C26.0205 26.9919 26.0205 26.9919 26.105 27.0399C26.1895 27.1359 26.1895 27.1359 26.1895 27.1359C26.274 27.2319 26.3866 27.2799 26.4429 27.2799C26.4429 27.2799 26.4429 27.2799 26.4429 27.2319C26.4711 27.1839 26.4711 27.1839 26.4711 27.1839C26.4711 27.0879 26.3866 27.0399 26.274 27.0399C26.274 27.0399 26.274 27.0399 26.2177 26.9919C26.1613 26.9439 26.1613 26.9439 26.1613 26.9439C26.1332 26.7999 26.0205 26.6559 25.9924 26.6559ZM48.8307 26.6559C48.8871 26.6079 48.8871 26.5599 48.8589 26.5118C48.8307 26.4638 48.7181 26.3198 48.6899 26.2718C48.6618 26.2238 48.5491 26.2718 48.5773 26.4158C48.6055 26.5599 48.8026 26.6559 48.8307 26.6559ZM23.7395 26.8959C23.7114 26.7519 23.7114 26.7519 23.7395 26.8959C23.7395 26.9919 23.7114 27.2799 23.7677 27.2799C23.824 27.2799 23.7395 27.0399 23.7395 26.8959ZM2.14022 18.063C2.19654 18.063 2.2247 18.015 2.2247 17.9189C2.11206 17.9189 2.0839 17.8229 2.0839 17.6789C2.0839 17.6309 2.0839 17.6309 2.0839 17.6309C2.05573 17.5349 2.02757 17.5829 1.97125 17.6789C1.94309 17.8229 2.0839 18.015 2.14022 18.063ZM1.18275 20.3672C1.18275 20.3192 1.12643 20.2712 1.09827 20.2232C1.09827 20.2232 1.09827 20.2232 1.07011 20.1752C1.04195 20.1272 1.01379 20.0792 0.957465 20.1272C0.901144 20.1752 0.872983 20.2232 0.957465 20.3192C1.01379 20.3672 0.901144 20.6072 1.04195 20.6072C1.07011 20.6072 1.12643 20.4632 1.18275 20.3672Z" fill="#FFB820"/>
</svg>
