<svg width="201" height="33" viewBox="0 0 201 33" fill="none" xmlns="http://www.w3.org/2000/svg">
<path d="M58.1754 0.961815C57.9396 0.84866 57.6251 0.678928 57.4679 0.565773C57.3106 0.452618 56.7603 0.282887 56.839 0.396042C56.9176 0.509197 57.232 0.735504 57.3106 0.84866C57.3893 0.905235 56.9962 1.07497 56.9962 1.18812C56.9962 1.18812 56.9962 1.18812 56.9176 1.2447C56.6817 1.30128 56.6817 1.30128 56.6817 1.30128C56.5245 1.47101 56.3673 1.64074 56.2886 1.69732C56.21 1.7539 55.9742 1.58417 55.8956 1.47101C55.8956 1.47101 55.8956 1.47101 55.8956 1.35786C55.8956 1.30128 55.8956 1.30128 55.8956 1.30128C55.8956 1.2447 55.8956 1.07497 55.7383 0.905239C55.6597 0.735508 55.5811 0.339462 55.5811 0.282887C55.5025 0.282887 55.4239 0.28289 55.3453 0.339466C55.2666 0.396042 55.1094 0.565777 54.9522 0.622353C54.795 0.678928 55.3453 0.848663 55.3453 0.905239C55.4239 0.961815 55.4239 1.07497 55.188 0.961815C54.9522 0.84866 54.4805 1.13155 54.4019 1.07497C54.3233 1.07497 54.4019 0.792084 54.4805 0.735508C54.4805 0.735508 54.4805 0.735504 54.4805 0.678928C54.4805 0.622353 54.4805 0.622353 54.4805 0.622353C54.4805 0.565777 54.2446 0.509197 53.9302 0.509197C53.9302 0.509197 53.9302 0.509197 53.6943 0.509197C53.6157 0.509197 53.6157 0.509197 53.6157 0.509197C53.6157 0.339466 53.4585 0.226311 53.4585 0.226311C53.3799 0.226311 53.0654 0.226311 52.8296 0.226311C52.7509 0.396042 52.7509 0.396042 52.7509 0.396042C52.9868 0.396042 53.144 0.509197 53.0654 0.565773C52.9868 0.622349 52.8296 0.792084 52.6723 0.678928C52.5151 0.565773 52.0434 0.339466 51.8862 0.339466C51.6503 0.339466 51.1786 0.339466 51.1 0.339466C51.1 0.339466 51.1786 0.396042 51.3359 0.396042C51.4931 0.396042 51.8862 0.509197 51.8862 0.622353C51.8862 0.735508 52.4365 0.84866 52.5937 0.84866C52.6723 0.84866 52.9868 0.961815 53.0654 0.961815C53.0654 0.961815 53.0654 0.961815 53.0654 1.01839C53.0654 1.07497 52.9868 1.13155 52.9082 1.13155C52.3579 1.01839 51.8076 0.905239 51.2573 0.905239C50.8642 0.905239 50.8642 0.905239 50.8642 0.905239C50.7069 0.735508 50.4711 0.565773 50.3139 0.509197C50.1566 0.452621 49.9994 0.678928 49.9994 0.678928C49.9208 0.678928 49.685 0.792084 49.6063 0.792084C49.5277 0.792084 49.2133 0.961815 49.2919 0.961815C49.3705 0.961815 49.6063 1.07497 49.6849 1.01839C49.6849 1.01839 49.6849 1.01839 49.6849 0.961815C49.8422 0.735504 49.8422 0.735508 49.8422 0.735508C50.1566 0.792084 50.4711 0.792084 50.4711 0.84866C50.5497 0.84866 50.6283 1.01839 50.6283 1.07497C50.6283 1.13155 50.2353 1.30128 50.078 1.30128C49.9208 1.69732 49.6063 1.47101 49.5277 1.35786C49.3705 1.13155 48.9774 1.07497 48.7416 0.961815C48.5057 0.84866 48.5057 0.84866 48.5057 0.84866C48.3485 0.678928 48.1913 0.622353 48.1913 0.735508C48.1913 0.735508 48.1913 0.735508 48.1913 0.792084C48.1913 0.905239 48.1913 0.905239 48.1913 0.905239C47.9554 0.961815 47.5623 1.13155 47.3265 1.18812C47.3265 1.18812 47.3265 1.18812 47.3265 1.30128C47.2479 1.52759 47.012 1.52759 46.6189 1.52759C46.4617 1.52759 46.3045 1.64074 46.2259 1.64074C46.1473 1.64074 46.0686 1.47101 45.99 1.41443C45.8328 1.41443 45.8328 1.35786 45.99 1.30128C46.1473 1.2447 46.3045 1.07497 46.2259 1.01839C46.1473 0.961815 45.3611 1.18812 45.4397 1.2447C45.4397 1.2447 45.4397 1.2447 45.5183 1.30128C45.6756 1.52759 45.4397 1.64074 45.1253 1.52759C44.8108 1.47101 44.7322 1.58417 44.5749 1.64074C44.3391 1.64074 44.3391 1.64074 44.3391 1.64074C44.1033 1.64074 43.5529 1.58417 43.2385 1.52759C43.2385 1.52759 43.2385 1.52759 43.0813 1.58417C42.8454 1.64074 42.8454 1.64074 42.8454 1.64074C42.6096 1.64074 42.2951 1.58417 42.1379 1.52759C41.9806 1.47101 41.3517 1.64074 41.1945 1.64074C41.0373 1.64074 40.7228 1.64074 40.5656 1.64074C40.4083 1.64074 39.858 1.69732 39.7008 1.58417C39.5436 1.47101 38.9146 1.41443 38.6788 1.58417C38.6788 1.58417 38.6788 1.58417 38.2857 1.52759C38.0499 1.47101 38.0499 1.47101 38.0499 1.47101C37.7354 1.47101 37.3423 1.52759 37.0279 1.52759C36.792 1.52759 36.0059 1.41443 35.6914 1.35786C35.3769 1.30128 34.3549 1.41443 34.0405 1.41443C34.0405 1.41443 34.0405 1.41443 33.6474 1.52759C33.0971 1.7539 33.0971 1.7539 33.0971 1.7539C32.6254 1.69732 32.0751 1.58417 31.9965 1.58417C31.9179 1.58417 31.4462 1.58417 31.2103 1.58417C30.9745 1.58417 30.3456 1.52759 30.2669 1.52759C30.2669 1.58417 30.1097 1.64074 30.0311 1.58417C29.9525 1.52759 29.638 1.47101 29.5594 1.52759C29.5594 1.52759 29.5594 1.52759 29.4808 1.58417C29.4022 1.64074 29.4022 1.64074 29.4022 1.64074C29.3236 1.64074 29.1663 1.64074 29.0877 1.58417C29.0091 1.52759 28.8519 1.47101 28.7732 1.52759C28.6946 1.58417 28.3802 1.47101 28.3802 1.47101C28.3016 1.47101 27.9871 1.41443 27.6726 1.35786C27.6726 1.35786 27.6726 1.35786 27.3582 1.41443C27.2009 1.47101 27.0437 1.47101 26.8865 1.52759C26.7292 1.58417 26.572 1.7539 26.2576 1.58417C26.2576 1.58417 26.1003 1.58417 26.0217 1.64074C25.7072 1.81047 25.6286 1.86705 25.3142 1.58417C25.1569 1.41443 25.1569 1.41443 25.1569 1.41443C24.9997 1.64074 24.8425 1.81048 24.7639 1.7539C24.6852 1.69732 24.4494 1.58417 24.4494 1.64074C24.4494 1.69732 24.2136 1.86705 24.0563 1.86705C23.8991 1.86705 23.5846 1.69732 23.506 1.64074C23.4274 1.58417 23.1916 1.69732 23.1129 1.64074C23.1129 1.58417 23.0343 1.58417 23.0343 1.69732C23.0343 1.81048 22.5626 1.64074 22.5626 1.58417C22.2482 1.52759 22.2482 1.86705 21.8551 1.7539C21.6192 1.69732 21.6192 1.69732 21.6192 1.69732C21.3048 1.69732 20.9903 1.69732 20.9117 1.69732C20.8331 1.69732 20.5186 1.64074 20.2828 1.64074C20.0469 1.64074 19.4966 1.7539 19.3394 1.64074C19.3394 1.64074 19.3394 1.64074 19.1822 1.58417C19.1035 1.52759 19.1035 1.52759 19.1035 1.52759C18.9463 1.52759 18.7105 1.64074 18.5532 1.69732C18.396 1.7539 17.6099 1.58417 17.5312 1.64074C17.4526 1.69732 17.1382 1.81048 17.0595 1.7539C16.9809 1.69732 16.5879 1.81047 16.5879 1.81047C16.5879 1.81047 16.5879 1.81048 16.5092 1.7539C16.4306 1.69732 16.4306 1.64074 16.352 1.64074C16.1948 1.64074 15.8803 1.58417 15.8803 1.7539C15.8803 1.81048 15.8803 1.81047 15.8803 1.81047C16.1162 1.86705 16.1948 1.98021 16.1162 1.98021C16.0375 2.03679 15.7231 2.03679 15.6445 1.98021C15.5659 1.92363 15.2514 1.7539 15.2514 1.92363C15.2514 1.92363 15.2514 1.92363 15.2514 1.98021C15.2514 2.03679 15.1728 2.09336 15.1728 2.09336C15.0155 2.09336 15.0155 2.09336 15.0155 2.09336C14.8583 2.09336 14.7011 2.14994 14.7797 2.26309C14.7797 2.26309 14.7797 2.26309 14.4652 2.20652C14.3866 2.20652 14.3866 2.20652 14.3866 2.20652C14.308 2.14994 14.1508 2.14994 13.9149 2.20652C13.6791 2.31967 12.8929 2.31967 12.7357 2.31967C12.4999 2.31967 11.8709 2.4894 11.6351 2.4894C11.4779 2.4894 11.0062 2.43283 10.9275 2.54598C10.8489 2.65914 10.0628 2.77229 9.98416 2.71571C9.51247 3.05518 9.51247 3.05518 9.51247 3.05518C8.80493 3.11175 8.25462 3.16833 8.176 3.16833C8.09739 3.16833 7.78293 3.16833 7.54708 3.16833C7.31123 3.16833 6.28923 3.11175 5.89616 3.11175C5.89616 3.11175 5.89616 3.11175 5.81754 3.45122C5.81754 3.5078 5.66031 3.56437 5.5817 3.50779C5.34585 3.45122 5.34585 3.45122 5.34585 3.45122C5.11 3.5078 4.79554 3.62095 4.79554 3.67753C4.71693 3.73411 4.32385 3.84726 4.16662 3.84726C4.00939 3.84726 3.61631 4.01699 3.53769 3.96041C3.45908 3.96041 3.30185 3.96041 3.22323 4.07357C3.22323 4.07357 3.22323 4.07357 3.14462 4.13015C3.066 4.18672 2.90877 4.18672 2.83016 4.13015C2.51569 4.01699 2.20123 4.01699 2.044 4.01699C1.57231 4.01699 1.80815 4.13015 1.80815 4.2433C1.80815 4.29988 1.57231 4.41303 1.88677 4.41303C2.044 4.41303 2.20123 4.46961 2.35846 4.52619C2.51569 4.58277 2.51569 4.63934 2.35846 4.69592C2.20123 4.7525 2.20123 4.75249 2.20123 4.75249C2.35846 4.80907 2.59431 4.97881 2.83016 5.09196C3.066 5.20512 3.22323 5.60116 3.066 5.65773C3.066 5.65773 3.066 5.65773 2.90877 5.65773C2.75154 5.65773 2.75154 5.65773 2.75154 5.65773C2.59431 5.60116 2.27985 5.60116 2.12262 5.65773C1.96539 5.71431 1.96539 6.22351 2.044 6.39324C2.12262 6.56297 2.27985 7.12874 2.20123 7.12874C2.20123 7.12874 1.96539 7.07217 1.80815 6.95901C1.80815 6.95901 1.80815 6.95901 1.57231 7.12874C1.49369 7.2419 1.49369 7.2419 1.49369 7.2419C1.49369 7.35505 1.65092 7.46821 1.72954 7.58136C1.72954 7.58136 1.72954 7.58136 1.57231 7.63794C1.49369 7.63794 1.49369 7.63794 1.49369 7.63794C1.25785 7.58136 1.10062 7.58136 1.17923 7.69452C1.17923 7.69452 1.17923 7.69452 1.17923 7.75109C1.17923 7.9774 1.17923 7.9774 1.17923 7.9774C1.022 8.20371 0.86477 8.4866 0.86477 8.54318C0.86477 8.65633 1.10062 8.9958 1.41508 9.05237C1.72954 9.10895 1.72954 9.67472 1.49369 9.61815C1.49369 9.61815 1.49369 9.61814 1.33646 9.56157C1.17923 9.50499 1.17923 9.50499 1.17923 9.50499C1.022 9.44841 0.707539 9.56157 0.471693 9.7313C0.471693 9.7313 0.471693 9.7313 0.550308 9.90103C0.550308 9.95761 0.550308 10.0142 0.628923 10.0708C0.86477 10.2405 1.022 10.3537 1.17923 10.4668C1.33646 10.58 1.49369 10.2971 1.65092 10.4668C1.65092 10.5234 1.65092 10.5234 1.65092 10.5234C1.80815 10.5234 1.80815 10.58 1.57231 10.6365C1.57231 10.6365 1.57231 10.6365 1.57231 10.6931C1.57231 10.7497 1.65092 10.8628 1.72954 10.9194C1.80815 10.976 1.88677 10.976 1.96539 10.976C2.27985 11.0892 2.27985 11.372 2.12262 11.372C1.88677 11.4286 1.80815 11.4852 1.72954 11.5984C1.65092 11.6549 1.65092 11.6549 1.65092 11.6549C1.33646 11.6549 1.33646 11.7681 1.72954 11.8247C2.12262 11.8812 3.066 12.2207 3.53769 12.051C3.53769 12.051 3.53769 12.051 4.088 12.1075C4.16662 12.1075 4.40246 11.9944 4.48108 11.8812C4.55969 11.6549 4.55969 11.6549 4.55969 11.6549C4.79554 11.7115 4.95277 11.8812 4.87416 11.9944C4.87416 11.9944 4.87416 11.9944 4.87416 12.1075C4.95277 12.3904 5.03139 12.6733 5.11 12.9562C5.11 13.0128 5.11 13.0128 5.11 13.0128C5.42446 13.0694 5.5817 13.1825 5.66031 13.1825C5.73893 13.1825 5.97477 13.3522 6.05339 13.3522C6.21062 13.3522 6.6037 13.4088 6.68231 13.4088C6.76093 13.4088 6.91816 13.522 6.99677 13.5786C7.07539 13.6351 7.38985 13.4654 7.38985 13.4088C7.46847 13.4088 7.70431 13.3522 7.70431 13.4654C7.70431 13.5786 7.94016 13.8049 8.09739 13.6917C8.25462 13.6351 8.72631 13.7483 8.72631 13.8049C8.72631 13.8049 8.6477 13.918 8.80493 13.9746C8.80493 13.9746 8.80493 13.9746 8.88354 13.9746C9.11939 13.918 9.43385 13.6917 9.51247 14.0312C9.59108 14.0312 9.74831 14.0312 9.90554 13.9746C10.0628 13.918 10.5345 14.0878 10.6917 14.0878C10.8489 14.0878 11.0062 14.3051 11.242 14.3051C11.5 14.5 11.4779 14.6535 11.5565 14.8233C11.6351 14.993 10.7703 15.4456 10.8489 15.4456C10.9275 15.4456 11.0062 15.6153 10.7703 15.7285C10.7703 15.7285 10.7703 15.7285 10.7703 15.8417C10.7703 16.068 10.7703 16.068 10.7703 16.068C10.5345 16.068 10.2986 16.1245 10.1414 16.1811C10.1414 16.1811 10.1414 16.1811 10.0628 16.2377C9.90554 16.4074 9.90554 16.4074 9.90554 16.4074C9.98416 16.5772 9.98416 16.86 9.90554 17.0298C9.90554 17.0298 9.90554 17.0298 9.82693 17.1995C9.82693 17.2561 9.82693 17.2561 9.82693 17.2561C9.82693 17.3127 10.0628 17.3127 10.2986 17.1995C10.5345 17.0864 11.242 17.2561 11.242 17.3127C11.242 17.3692 11.1634 17.4824 11.0062 17.4824C11.0062 17.4824 11.0062 17.4824 10.9275 17.4824C10.7703 17.4258 10.7703 17.4258 10.7703 17.4258C10.5345 17.3692 10.4559 17.3692 10.4559 17.4258C10.4559 17.4258 10.4559 17.4258 10.4559 17.4824C10.4559 17.539 10.4559 17.539 10.4559 17.539C10.4559 17.5955 10.4559 17.6521 10.3772 17.6521C10.2986 17.6521 10.0628 17.5955 9.98416 17.6521C9.90554 17.7087 10.0628 17.9916 10.22 18.1613C10.22 18.1613 9.82693 18.3024 10.1414 18.359C10.1414 18.3024 10.22 18.359 10.1414 18.359C10 18.5 10.0786 18.4434 10 18.5C10.0786 18.5 9.84277 18.5566 10 18.5C9.92138 18.5 9.97169 18.3868 9.5 18.5C9.5 18.5 9.63414 18.7271 9.16244 18.6705C8.9266 18.6705 8.96216 18.6694 8.88354 18.7825C8.96216 18.9522 8.72631 19.01 8.72631 19.01C8.56908 18.8968 8.5 19 8.09739 19.4626C7.86154 19.5192 7.23262 19.6889 7.154 19.7455C7.31123 19.9152 7.31123 19.9152 7.31123 19.9152C7.23262 20.085 7.07539 20.1981 6.99677 20.2547C6.91816 20.3113 6.76093 20.3113 6.76093 20.3113C6.76093 20.3113 6.76093 20.3113 6.68231 20.2547C6.6037 20.1981 6.6037 20.1981 6.6037 20.1981C6.52508 20.1415 6.28923 20.0849 6.132 20.0849C5.97477 20.0284 5.42446 19.9718 5.34585 20.0284C5.26723 20.0849 5.11 20.3113 5.18862 20.3678C5.26723 20.4244 5.89616 20.3113 6.132 20.3113C6.132 20.3113 6.132 20.3113 6.132 20.4244C6.21062 20.5376 6.05339 20.7639 5.97477 20.7639C4.87416 20.8205 4.87416 20.8205 4.87416 20.8205C5.03139 21.2731 5.03139 21.6691 4.87416 21.6691C4.71693 21.6691 4.48108 21.4994 4.40246 21.4994C4.32385 21.4994 4.24523 21.6125 4.24523 21.6125C4.24523 21.6125 4.16662 21.7257 4.088 21.8388C4.00939 21.952 4.24523 22.2349 4.32385 22.348C4.32385 22.348 4.32385 22.348 4.32385 22.4046C4.32385 22.4612 4.32385 22.4612 4.32385 22.4612C4.32385 22.5178 4.16662 22.5744 4.088 22.5744C4.088 22.5744 4.088 22.5744 4.00939 22.5744C3.93077 22.5744 3.93077 22.5744 3.93077 22.5744C3.85216 22.5744 3.77354 22.5744 3.69492 22.6309C3.85216 22.7441 3.85216 22.7441 3.85216 22.7441C4.088 22.9138 4.088 23.027 3.77354 22.9704C3.77354 22.9704 3.77354 22.9704 3.61631 22.9704C3.30185 22.9704 3.30185 22.9704 3.30185 22.9704C2.98739 22.9704 2.67292 23.027 2.59431 23.1401C2.59431 23.1401 2.59431 23.1401 2.59431 23.1967C2.67292 23.7625 2.67292 23.7625 2.67292 23.7625C2.27985 23.9888 1.88677 24.2151 1.80815 24.2717C1.80815 24.2717 1.80815 24.2717 1.80815 24.3282C1.72954 24.4414 1.72954 24.4414 1.72954 24.4414C1.72954 24.6111 1.65092 24.8374 1.57231 25.0072C1.57231 25.0072 1.57231 25.0072 1.41508 25.0638C0.86477 25.0072 0.86477 25.1769 0.943385 25.4032C0.943385 25.4598 0.943385 25.4598 0.943385 25.4598C0.943385 25.6295 0.707539 25.6861 0.393077 25.573C0.393077 25.573 0.393077 25.573 0.550308 25.7993C0.707539 25.969 0.393077 25.969 0.314462 26.0256C0.314462 26.0256 0.0786154 25.7993 0 26.0256C0 26.0821 0 26.0821 0 26.0821C0.157231 26.1387 0.314462 26.1953 0.314462 26.1953C0.314462 26.1953 0.235846 26.4216 0.0786154 26.5913C0.0786154 26.5913 0.0786154 26.5913 0.157231 26.8177C0.157231 26.8742 0.235846 26.9308 0.235846 26.9874C0.235846 27.044 0.235846 27.044 0.235846 27.044C0.157231 27.1005 0.157231 27.1571 0.235846 27.1571C0.314462 27.1571 0.707539 27.1571 0.786154 27.2703C0.86477 27.3834 0.707539 27.6663 0.786154 27.7229C1.10062 27.5532 1.33646 27.5532 1.57231 27.7795C1.80815 27.9492 1.80815 27.9492 1.80815 27.9492C2.12262 27.7795 2.35846 27.7795 2.35846 27.836C2.35846 27.8926 2.75154 28.1189 3.066 28.2321C3.066 28.2321 3.066 28.2321 3.30185 27.9492C3.45908 27.7795 3.45908 27.7795 3.45908 27.7795C3.85216 27.8926 4.088 28.0624 4.00939 28.0624C3.93077 28.0624 3.77354 28.1755 3.77354 28.1755C3.93077 28.1755 4.088 28.1755 4.24523 28.1189C4.32385 28.1189 4.32385 28.1189 4.32385 28.1189C4.40246 28.1189 4.48108 28.1189 4.55969 28.1755C4.63831 28.2321 4.87416 28.1755 4.87416 28.2321C4.87416 28.2887 5.03139 28.4018 5.11 28.2887C5.18862 28.1755 5.5817 28.2321 5.73893 28.4018C5.73893 28.4018 5.73893 28.4018 5.89616 28.515C5.97477 28.5715 5.97477 28.5715 5.97477 28.5715C6.132 28.5715 6.36785 28.5715 6.52508 28.515C6.68231 28.4584 7.38985 28.5715 7.46847 28.515C7.6257 28.4584 8.01877 28.3452 8.09739 28.515C8.09739 28.515 8.09739 28.515 8.25462 28.6281C8.41185 28.7413 8.41185 28.7413 8.41185 28.7413C8.6477 28.7413 8.96216 28.7413 9.04077 28.6847C9.19801 28.6281 9.43385 28.8544 9.59108 28.8544C9.74831 28.8544 10.1414 28.7979 10.22 28.7413C10.2986 28.6847 10.5345 28.6847 10.6131 28.7413C10.6917 28.8544 10.9275 29.0807 11.0848 29.0242C11.242 28.9676 11.5565 29.0242 11.7137 29.0807C11.7923 29.1373 12.1854 29.0242 12.1854 29.0242C12.1854 29.0242 12.1854 29.0242 12.1854 29.0807C12.1854 29.1939 12.1854 29.1939 12.1854 29.1939C12.3426 29.1939 12.6571 29.0807 12.9715 29.0242C12.9715 29.0242 12.9715 29.0242 12.9715 29.3071C13.0502 29.3071 13.3646 29.3636 13.6005 29.4202C13.9149 29.4768 14.9369 29.3636 15.1728 29.3636C15.1728 29.3636 15.1728 29.3636 15.33 29.3071C15.7231 29.3071 15.8017 29.1373 15.8017 29.3636L16.0375 29.4202C16.2734 29.1939 16.6665 29.3636 16.6665 29.4202C16.9023 29.5899 17.2168 29.3636 17.374 29.5334C17.4526 29.5899 17.4526 29.5899 17.4526 29.5899C17.8457 29.5334 18.1602 29.4202 18.2388 29.4202C18.3174 29.4202 18.5532 29.5334 18.7891 29.6465C19.0249 29.7597 19.7325 29.5899 19.7325 29.5899C19.7325 29.8728 19.7325 29.8728 19.7325 29.8728C20.0469 29.8162 20.5972 29.8163 20.8331 29.9294C20.8331 29.9294 20.8331 29.9294 21.0689 29.7031C21.3048 29.6465 21.3048 29.6465 21.3048 29.6465C21.5406 29.7031 21.8551 29.8162 22.0123 29.8728C22.0123 29.8728 22.0123 29.8728 22.1696 29.8728C22.2482 29.8728 22.2482 29.8728 22.2482 29.8728C22.3268 29.8728 22.484 29.8728 22.6412 29.8728C22.7985 29.8728 23.4274 29.8728 23.5846 29.8728C23.7419 29.8728 24.2136 29.986 24.2136 29.9294C24.2922 29.8728 24.4494 29.8162 24.4494 29.8728C24.4494 29.8728 24.4494 29.8728 24.528 29.9294C24.6066 29.986 24.6066 29.986 24.6066 29.986C24.6852 30.0426 24.6852 30.0426 24.7639 29.986C24.8425 29.9294 24.8425 29.8728 24.9211 29.8162C24.9211 29.8162 24.9211 29.8162 24.9997 29.8162C25.2356 29.9294 25.2355 29.9294 25.2355 29.9294C25.55 29.986 25.9431 30.0426 26.0217 30.0426C26.0217 30.0426 26.0217 30.0426 26.1003 30.0991C26.4148 30.3254 26.4148 30.3254 26.4148 30.3254C26.572 30.0991 26.8079 29.986 26.8865 30.0426C26.9651 30.0991 27.1223 30.2123 27.2009 30.2123C27.2796 30.2123 27.3582 30.3254 27.4368 30.5518C27.4368 30.5518 27.4368 30.5518 27.9085 30.2689C27.9871 30.2123 27.9871 30.2123 27.9871 30.2123C28.2229 30.2689 28.5374 30.2689 28.6946 30.2689C28.8519 30.2689 29.1663 30.2123 29.1663 30.2689C29.1663 30.3254 29.638 30.3254 29.7166 30.3254C29.7952 30.3254 29.9525 30.382 29.8739 30.6083C29.8739 30.6083 29.8739 30.6083 30.3456 30.3254C30.4242 30.3254 30.66 30.382 30.8172 30.4386C30.8959 30.4386 30.8959 30.4386 30.8959 30.4386C30.9745 30.4952 31.3676 30.5518 31.682 30.6083C32.0751 30.6649 32.9399 30.382 33.0185 30.382C33.0971 30.382 33.5688 30.4386 33.8046 30.4952C34.0405 30.5518 35.2197 30.4952 35.4556 30.4952C35.4556 30.4952 35.4556 30.4952 35.5342 30.5518C35.9272 30.6083 35.9272 30.6083 35.9272 30.6083C36.1631 30.5518 36.3989 30.4952 36.5562 30.4386C36.5562 30.4386 36.5562 30.4386 36.7134 30.4386C36.9492 30.4386 36.9492 30.4386 36.9492 30.4386C37.1851 30.4952 37.4996 30.6083 37.6568 30.6083C37.814 30.6083 38.4429 30.6649 38.7574 30.6649C38.7574 30.6649 38.7574 30.6649 39.0719 30.6649C39.1505 30.6649 39.1505 30.6649 39.1505 30.6649C39.2291 30.7215 39.3863 30.6649 39.3863 30.6083C39.3863 30.5518 39.7794 30.6083 39.858 30.6083C39.9366 30.6649 40.1725 30.7215 40.2511 30.7215C40.3297 30.7215 40.6442 30.6083 40.7228 30.6083C40.8014 30.6083 41.3517 30.7781 41.5876 30.7781C41.5876 30.7781 41.5876 30.7781 41.6662 30.7215C41.8234 30.5518 42.0592 30.8912 42.2165 30.6649C42.2951 30.5518 42.2951 30.5518 42.2951 30.5518C42.6096 30.6649 42.924 30.6649 43.0026 30.6649C43.0813 30.6083 43.3171 30.5518 43.3957 30.5518C43.3957 30.6083 43.5529 30.6649 43.5529 30.6649C43.5529 30.6649 43.7888 30.6649 43.8674 30.7215C43.946 30.7781 44.5749 30.7781 45.0466 30.8346C45.0466 30.8346 45.0466 30.8346 45.5183 30.7215C45.9114 30.6649 46.3831 30.6083 46.8548 30.8346C47.0906 30.9478 47.0906 30.9478 47.0906 30.9478C47.4837 30.8912 47.8768 30.8346 47.8768 30.7781C47.9554 30.7215 48.1913 30.7215 48.2699 30.8346C48.4271 30.9478 48.9774 30.7215 48.9774 30.7781C48.9774 30.8346 49.1346 30.9478 49.2133 30.8346C49.2133 30.7781 49.3705 30.6649 49.4491 30.7781C49.5277 30.8912 50.1566 30.7215 50.4711 30.7781C50.4711 30.7781 50.4711 30.7781 50.7856 30.7215C51.1786 30.8346 51.1786 30.8346 51.1786 30.8346C51.6503 30.9478 52.122 31.0044 52.2006 31.0044C52.2006 30.9478 52.3579 30.8912 52.4365 30.9478C52.5151 31.0044 52.6723 31.1175 52.7509 31.1175C53.0654 30.9478 53.0654 30.9478 53.0654 30.9478C53.4585 30.9478 54.0088 31.0044 54.2446 30.9478C54.4805 30.9478 55.3453 31.0044 55.5025 30.8912C55.5025 30.8912 55.5025 30.8912 55.7383 31.061C55.7383 31.1175 56.0528 31.0044 56.21 31.0044C56.6817 31.0044 56.6817 31.0044 56.6817 31.0044C57.232 31.0044 58.0182 31.061 58.3326 31.1175C58.3326 31.1175 58.3326 31.1175 58.6471 30.8912C58.7257 30.8346 58.7257 30.8346 58.7257 30.8346C58.883 30.8346 59.1974 30.8912 59.3546 30.8912C59.5119 30.8912 59.905 30.8346 59.905 30.8912C59.905 30.9478 60.4553 30.9478 60.6125 30.7781C60.6125 30.7781 60.6125 30.7781 60.927 30.9478C61.0056 31.0044 61.0056 31.0044 61.0056 31.0044C61.2414 30.9478 61.5559 30.9478 61.7131 30.9478C61.8703 30.9478 62.2634 30.8912 62.4207 30.8912C62.4207 30.8912 62.4206 30.8912 62.5779 30.8912C62.6565 30.8912 62.8137 30.8912 62.8923 30.8912C62.971 30.8912 63.1282 30.9478 63.2068 30.9478C63.2854 30.9478 63.2854 30.9478 63.2854 30.9478C63.364 30.9478 63.5213 30.9478 63.6785 30.9478C63.8357 30.9478 64.1502 30.8912 64.386 30.7781C64.386 30.7781 64.386 30.7781 64.386 31.0044C64.4647 31.0044 64.9363 30.9478 65.2508 30.8346C65.2508 30.8346 65.2508 30.8346 65.5653 30.8346C65.8011 30.8346 65.8011 30.8346 65.8011 30.8346C66.1156 30.9478 66.43 31.0044 66.5087 31.061C66.5873 31.061 66.8231 31.0044 66.9803 30.8346C66.9803 30.8346 66.9803 30.8346 67.2948 30.8912C67.452 30.9478 67.7665 30.9478 67.8451 30.8912C68.1596 30.8346 68.2382 31.1741 68.474 31.1175C68.7099 31.061 68.7099 31.061 68.7099 31.061C69.0243 31.061 69.4174 31.0044 69.5747 30.9478C69.5747 30.9478 69.5747 30.9478 69.6533 31.0044C69.9677 31.1741 69.9677 31.1741 69.9677 31.1741C70.3608 31.061 70.6753 31.0044 70.7539 31.061C70.8325 31.1175 71.0684 31.1741 71.147 31.1175C71.2256 31.061 71.4614 30.8912 71.4614 30.8912C71.4614 30.8912 71.6973 30.9478 71.8545 31.0044C72.0117 31.061 72.8765 31.061 73.1124 31.061C73.3482 31.061 74.0557 31.061 74.2916 31.0044C74.5274 30.9478 74.9991 31.1175 75.1563 31.061C75.628 31.457 75.628 31.457 75.628 31.457C76.3356 31.3438 76.9645 31.1741 77.1217 31.1741C77.279 31.1741 77.5934 31.2307 77.5934 31.1175C77.5934 31.0044 78.2223 31.2307 78.3796 31.2873C78.5368 31.3438 78.8513 31.2873 79.0085 31.2873C79.0871 31.2873 79.4016 31.3438 79.4802 31.2873C79.4802 31.2307 79.6374 31.1741 79.716 31.1741C79.7947 31.2307 80.1091 31.3438 80.4236 31.3438C80.4236 31.3438 80.4236 31.3438 80.6594 31.2873L81.367 31.1175C81.5242 31.1741 81.5242 31.1741 81.5242 31.1741C81.76 31.2873 81.9173 31.2873 81.9173 31.2873C81.9173 31.2307 82.2317 31.1175 82.389 31.061C82.389 31.061 82.389 31.061 82.782 31.2873C82.8607 31.2873 82.8607 31.2873 82.8607 31.2873C82.9393 31.2873 83.0965 31.2307 83.1751 31.2307C83.2537 31.1741 83.8827 31.2307 84.2757 31.2873C84.433 31.4004 84.433 31.4004 84.433 31.4004C84.5902 31.3438 84.7474 31.1741 84.6688 31.0044C84.6688 31.0044 84.6688 31.0044 85.1405 31.1741C85.455 31.2873 85.455 31.2873 85.455 31.2873C85.455 31.1175 85.455 31.061 85.455 31.1741C85.455 31.2873 86.0053 31.1175 86.0053 31.1175C86.0053 31.1175 86.2411 31.1741 86.477 31.1741C86.6342 31.1741 87.3417 31.061 87.5776 31.061C87.8134 31.061 88.2065 31.1741 88.2851 31.1741C88.3637 31.1741 88.521 31.0044 88.5996 31.0044C88.5996 31.0044 88.6782 31.061 88.7568 31.1175C88.8354 31.1741 89.2285 31.2307 89.3857 31.1741C89.3857 31.1741 89.3857 31.1741 89.543 31.1741C89.6216 31.1741 89.7788 31.2873 89.7788 31.2307C90.0147 31.1175 90.0147 31.1175 90.0147 31.1175C90.2505 31.1741 90.7222 31.1741 91.0367 31.1175C91.0367 31.1175 91.0367 31.1175 91.3511 31.061C91.4297 31.061 91.4297 31.061 91.4297 31.061C91.587 31.061 91.7442 31.1175 91.8228 31.1175C91.9014 31.1741 92.2159 31.1741 92.3731 31.2307C92.4517 31.2873 93.1593 31.1741 93.4737 31.1741C93.4737 31.1741 93.4737 31.1741 93.7882 31.1741C94.024 31.1741 94.024 31.1741 94.024 31.1741C94.3385 31.1175 94.5744 31.1175 94.653 31.1175C94.7316 31.1175 95.0461 31.2307 95.2819 31.2307C95.2819 31.2307 95.2819 31.2307 95.4391 31.1741C95.5964 31.1175 95.7536 30.9478 95.7536 31.2307C95.7536 31.2307 95.9108 31.2307 95.9894 31.2307C96.3825 31.2307 96.8542 31.1175 97.2473 31.1741C97.5617 31.2307 97.5617 31.2307 97.5617 31.2307C97.7976 31.1741 98.0334 31.1175 98.1121 31.1175C98.1907 31.1175 98.5051 31.1741 98.6624 31.1741C98.8196 31.2307 99.8416 31.1741 100.156 31.1175C100.471 31.061 101.257 31.3438 101.414 31.3438C101.571 31.3438 102.279 31.4004 102.515 31.457C102.75 31.5136 103.301 31.2307 103.301 31.2307C103.379 31.2307 103.694 31.4004 103.851 31.2873C103.851 31.2873 103.851 31.2873 104.008 31.2873C104.165 31.2873 104.401 31.4004 104.559 31.3438C104.873 31.2873 104.873 31.2873 104.873 31.2873C105.03 31.4004 105.266 31.457 105.345 31.457C105.345 31.457 105.345 31.457 105.423 31.4004C105.581 31.3438 105.581 31.3438 105.581 31.3438C105.738 31.2873 105.895 31.2307 105.974 31.2873C106.052 31.3438 106.209 31.4004 106.288 31.3438C106.288 31.2873 106.76 31.2873 106.838 31.3438C106.917 31.4004 107.231 31.457 107.31 31.4004C107.389 31.3438 107.625 31.1741 107.625 31.1741C107.86 31.457 108.175 31.2307 108.489 31.2307C108.647 31.2307 108.647 31.2307 108.647 31.2307C108.882 31.2873 109.04 31.2873 109.197 31.2873C109.275 31.2873 109.511 31.2873 109.669 31.2307C109.826 31.1741 110.455 31.2873 110.769 31.2873C110.769 31.2873 110.769 31.2873 111.084 31.3438C111.241 31.3438 111.477 31.2307 111.634 31.2873C111.948 31.3438 111.948 31.3438 111.948 31.3438C112.263 31.2873 112.656 31.2873 112.892 31.2307C112.892 31.2307 112.892 31.2307 113.128 31.2307C113.521 31.2873 113.521 31.2873 113.521 31.2873C113.992 31.2873 114.385 31.3438 114.464 31.3438C114.543 31.3438 114.779 31.2307 114.857 31.1741C114.936 31.061 115.486 31.2307 115.565 31.1741C115.643 31.1175 115.879 31.061 115.958 31.061C115.958 31.1175 115.801 31.2873 115.801 31.2873C116.036 31.3438 116.036 31.3438 116.036 31.3438C116.115 31.2307 116.194 31.1175 116.272 31.061C116.351 31.061 116.508 31.1175 116.587 31.1175C116.665 31.1741 116.901 31.2307 116.98 31.1741C117.058 31.1175 117.294 31.1741 117.294 31.3438C117.294 31.3438 117.294 31.3438 117.687 31.2307C117.609 31.1175 117.766 31.061 118.08 31.1175C118.316 31.1741 119.024 30.9478 119.024 30.9478C119.024 30.9478 119.024 30.9478 119.024 31.0044C119.024 31.2307 119.024 31.2307 119.024 31.2307C119.26 31.1741 119.495 31.1175 119.574 31.061C119.653 31.0044 119.81 30.9478 119.889 31.0044C119.967 31.061 120.124 31.1741 120.282 31.1175C120.439 31.061 121.146 31.1741 121.304 31.1741C121.461 31.1741 122.011 31.0044 122.011 30.9478C122.011 30.8912 122.561 31.0044 122.64 31.061C122.719 31.1175 123.112 31.1741 123.19 30.9478C123.19 30.9478 123.19 30.9478 123.583 31.0044C123.977 31.061 123.348 31.2307 123.662 31.2307C123.977 31.2307 123.977 31.2307 123.977 31.2307C124.291 31.2307 125.077 31.2307 125.706 31.2307C125.706 31.2307 125.706 31.2307 126.256 31.2307C126.571 31.2307 126.807 31.2307 127.121 31.2307C127.357 31.2307 127.357 31.2307 127.357 31.2307C127.593 31.1741 127.986 31.2873 128.222 31.4004C128.222 31.4004 128.222 31.4004 128.458 31.1741C128.615 31.061 128.615 31.061 128.615 31.061C128.615 31.1741 128.772 31.3438 128.929 31.4004C128.929 31.4004 128.929 31.4004 129.087 31.2873C129.244 31.1175 129.244 31.1175 129.244 31.1175C129.48 31.1741 129.794 31.2307 130.03 31.2307C130.266 31.2307 130.816 31.3438 130.973 31.4004C131.131 31.457 131.681 31.2873 131.838 31.2873C131.995 31.2873 132.546 31.2307 132.703 31.2307C132.781 31.2873 133.175 31.3438 133.41 31.4004C133.41 31.4004 133.41 31.4004 133.568 31.457C133.961 31.5701 133.961 31.5701 133.961 31.5701C134.118 31.4004 134.275 31.3438 134.275 31.4004C134.275 31.457 134.511 31.6267 134.747 31.5701C134.983 31.5136 135.69 31.4004 135.847 31.4004C136.083 31.4004 136.791 31.6267 137.184 31.6267C137.184 31.6267 137.184 31.6267 137.498 31.6267C137.813 31.6267 138.127 31.6833 138.52 31.6267C138.756 31.6267 138.756 31.6267 138.756 31.6267C138.913 31.6833 139.228 31.6833 139.464 31.6833C139.464 31.6833 139.464 31.6833 139.542 31.7399C139.857 31.853 139.935 31.7965 140.014 31.6267C140.171 31.6267 140.643 31.7399 140.957 31.9096C140.957 31.9096 140.957 31.9096 141.429 31.6833C141.508 31.6833 141.508 31.6833 141.508 31.6833C141.586 31.6833 141.586 31.7399 141.586 31.7965C141.586 31.853 142.215 31.7965 142.373 31.7399C142.53 31.6833 143.08 31.7399 143.237 31.7399C143.395 31.7399 143.866 31.853 144.023 31.853C144.181 31.853 144.652 31.9662 144.888 31.9096C145.124 31.853 145.989 31.9096 146.146 31.9096C146.225 31.853 146.539 31.7399 146.539 31.7965C146.539 31.853 146.696 31.9096 146.775 31.7965C146.775 31.7965 146.775 31.7965 146.854 31.7965C147.011 31.7399 147.011 31.7399 147.011 31.7399C147.168 31.7399 147.64 31.7965 147.954 31.7965C147.954 31.7965 147.954 31.7965 148.111 31.853C148.347 31.9662 148.347 31.9662 148.347 31.9662C148.505 31.9096 148.74 31.853 148.819 31.853C148.898 31.853 149.133 31.9096 149.212 31.9662C149.291 31.9662 149.762 31.9096 149.998 31.853C150.234 31.7965 150.942 31.9662 151.02 31.9662C151.099 31.9662 151.413 31.7399 151.413 31.7965C151.413 31.853 151.649 32.0228 151.885 32.0228C151.885 32.0228 151.885 32.0228 152.042 32.0228C152.278 32.0228 152.278 32.0228 152.278 32.0228C152.514 31.9662 152.907 31.9096 153.143 31.9096C153.379 31.9096 153.929 32.0793 154.086 32.0793C154.243 32.0793 154.637 32.0228 154.637 32.0793C154.637 32.1359 154.794 32.3057 154.794 32.3057C155.03 32.1359 155.265 31.9662 155.659 32.1925C155.816 32.2491 155.816 32.2491 155.816 32.2491C156.052 32.1925 156.366 32.1925 156.445 32.1925C156.523 32.1925 156.916 32.1359 156.995 32.1359C156.995 32.1359 156.995 32.1359 157.074 32.1359C157.309 32.1925 157.309 32.1925 157.309 32.1925C157.624 32.2491 158.017 32.2491 158.253 32.2491C158.253 32.2491 158.253 32.2491 158.489 32.2491C158.646 32.2491 158.646 32.2491 158.646 32.2491C158.882 32.3622 159.118 32.4188 159.196 32.3622C159.275 32.3057 159.511 32.1925 159.589 32.2491C159.668 32.3057 160.14 32.4188 160.218 32.3622C160.297 32.3057 160.69 32.1925 161.083 32.1925C161.083 32.1925 161.083 32.1925 161.319 32.1359C161.555 32.0793 161.555 32.0793 161.555 32.0793C161.712 32.1359 162.026 32.1925 162.262 32.1925C162.262 32.1925 162.262 32.1925 162.419 32.2491C162.498 32.2491 162.498 32.2491 162.498 32.2491C162.655 32.2491 163.048 32.3057 163.441 32.3622C163.441 32.3622 163.441 32.3622 163.835 32.1925C164.07 32.0793 164.07 32.0793 164.07 32.0793C164.463 32.0793 164.778 32.1925 164.778 32.3057C164.778 32.4188 165.25 32.3622 165.407 32.3057C165.485 32.2491 165.957 32.2491 166.114 32.2491C166.272 32.2491 166.665 32.3622 166.665 32.3622C166.665 32.3622 166.822 32.3057 166.901 32.2491C166.979 32.1925 167.608 32.1359 167.529 32.1925C167.451 32.2491 167.451 32.3057 167.765 32.2491C167.765 32.2491 167.765 32.2491 168.08 32.4188C168.237 32.4754 168.63 32.4188 168.866 32.4188C169.102 32.4188 169.102 32.4188 169.102 32.4188C169.259 32.3057 169.416 32.2491 169.495 32.2491C169.573 32.2491 169.967 32.2491 170.36 32.1925C170.36 32.1925 170.36 32.1925 170.595 32.4188C170.674 32.4754 170.674 32.4754 170.674 32.4754C171.067 32.3622 171.303 32.3622 171.303 32.4188C171.303 32.4754 171.224 32.6451 171.224 32.6451C171.224 32.6451 171.539 32.7017 171.775 32.7017C172.011 32.7017 172.718 32.5885 172.797 32.5885C172.797 32.5885 172.797 32.5885 172.875 32.5885C173.111 32.532 173.111 32.532 173.111 32.532C173.426 32.532 173.74 32.532 173.897 32.4754C174.055 32.4188 174.526 32.7017 174.841 32.8714C174.841 32.8714 174.841 32.8714 175.155 32.8148C175.548 32.7017 175.548 32.7017 175.548 32.7017C175.784 32.8148 175.941 32.928 176.02 32.928C176.099 32.928 176.177 32.928 176.256 32.9846C176.334 33.0412 176.727 32.928 176.885 32.8714C176.963 32.8148 177.435 32.7583 177.356 32.8714C177.278 32.9846 177.749 32.8714 177.828 32.928C177.907 32.9846 178.3 32.928 178.378 32.8714C178.536 32.8148 179.007 32.8148 179.007 32.8714C179.007 32.928 179.4 32.9846 180.108 32.9846C180.108 32.9846 180.108 32.9846 180.344 32.8714C180.815 32.6451 180.815 32.6451 180.815 32.6451C180.894 32.8714 181.051 32.928 181.287 32.8148C181.287 32.8148 181.287 32.8148 181.68 32.928C182.152 33.0412 182.702 32.9846 183.174 32.8148C183.331 32.7583 183.646 32.6451 183.96 32.7583C184.117 32.8148 184.51 32.7017 184.746 32.5885C184.903 32.532 184.432 32.4754 184.746 32.4188C184.825 32.4188 184.982 32.532 185.061 32.4754C185.218 32.4754 185.532 32.4188 185.532 32.3622C185.69 32.1359 185.69 32.1359 185.69 32.1359C186.083 32.0793 186.554 31.9662 186.79 31.9096C187.026 31.853 187.812 31.7965 187.891 31.7965C188.048 31.7965 188.441 31.7399 188.598 31.7399C188.677 31.7399 188.913 31.7965 188.913 31.6833C188.913 31.5701 189.385 31.7399 189.463 31.7399C189.542 31.7399 189.935 31.7399 190.171 31.7399C190.485 31.7399 191.193 31.5136 191.271 31.5136C191.35 31.5136 191.586 31.5136 191.586 31.457C191.586 31.4004 191.822 31.2307 192.136 31.2873C192.451 31.3438 193.315 31.1175 193.63 31.061C193.63 31.061 193.63 31.061 193.708 30.7781C193.787 30.6649 194.259 30.6083 194.337 30.382C194.416 30.2689 194.416 30.2689 194.416 30.2689C194.73 30.1557 195.045 30.0991 195.124 30.0991C195.202 30.0991 195.281 29.986 195.202 29.8728C195.517 29.8162 195.517 29.8162 195.517 29.8162C195.438 29.7031 195.359 29.4768 195.359 29.3636C195.359 29.3636 195.359 29.3636 195.359 29.2505C195.438 29.0242 195.438 29.0242 195.438 29.0242C195.517 28.7413 195.674 28.515 195.752 28.515C195.752 28.515 195.752 28.515 195.831 28.515C195.91 28.515 195.91 28.515 195.91 28.515C195.988 28.515 196.067 28.515 196.067 28.4584C196.067 28.4018 195.91 28.3452 195.752 28.2887C195.752 28.2887 195.752 28.2887 195.595 28.2321C195.595 28.2321 195.595 28.1755 195.595 28.1189C195.595 28.1189 195.674 28.1189 195.752 28.1189L195.831 28.1755C195.988 28.1755 195.988 28.1755 195.988 28.1755C196.145 28.1755 196.303 28.1755 196.303 28.1189C196.303 28.0624 196.46 27.8926 196.617 27.7795C196.617 27.7795 196.617 27.7795 196.774 27.6663C196.853 27.6097 196.853 27.6097 196.853 27.6097C196.853 27.44 196.696 27.3834 196.46 27.44C196.224 27.4966 195.674 27.44 195.831 27.1571C196.067 26.8177 196.067 25.969 195.91 25.969C195.674 25.9124 195.202 25.7993 195.281 25.7993C195.359 25.7993 195.595 25.6861 195.752 25.573C195.752 25.573 195.752 25.573 195.831 25.4598C196.067 25.1769 196.145 25.6295 196.381 25.4598C196.46 25.4032 196.46 25.4032 196.46 25.4032C196.696 25.3466 196.853 25.2335 196.774 25.1203C196.696 25.0072 196.932 24.5546 197.01 24.3282C197.01 24.3282 197.01 24.3282 196.853 24.1019C196.696 23.8756 197.01 23.4796 197.403 23.4796C197.718 23.4796 197.718 23.4796 197.718 23.4796C198.111 23.423 198.268 23.3664 198.111 23.3664C197.954 23.3664 197.403 23.2533 197.403 23.1967C197.403 23.1401 197.561 22.8572 197.796 22.9138C197.796 22.9138 197.796 22.9138 198.032 22.9138C198.189 22.9138 198.189 22.9138 198.189 22.9138C198.347 22.9138 198.504 22.9138 198.661 22.8572C198.818 22.8007 199.447 22.8572 199.683 22.8572C199.998 22.8572 200.312 22.4046 200.312 22.348C200.312 22.348 200.312 22.348 200.155 22.348C199.84 22.4046 199.683 22.2349 199.762 22.0652C199.84 21.952 199.919 21.8388 200.076 21.7823C200.391 21.6691 200.391 21.6691 200.391 21.6691C200.391 21.4428 200.469 21.3297 200.548 21.3862C200.548 21.3862 200.548 21.3862 200.627 21.3862C200.705 21.3862 200.862 21.3862 200.941 21.3297C201.02 21.2731 201.02 21.2165 200.941 21.1599C200.784 21.0468 200.627 20.9336 200.312 20.9902C200.233 20.9902 200.155 20.9336 200.155 20.877C200.155 20.8205 200.233 20.7639 200.312 20.7639C200.548 20.7073 200.548 20.7073 200.548 20.7073C200.784 20.6507 200.784 20.5376 200.548 20.4244C200.548 20.4244 200.548 20.4244 200.312 20.4244C200.076 20.4244 200.076 20.4244 200.076 20.4244C199.762 20.5376 199.526 20.481 199.526 20.3113C199.526 20.3113 199.526 20.3113 199.447 20.1981C199.369 20.0284 199.369 20.0284 199.369 20.0284C199.133 19.9718 198.74 19.9152 198.583 19.9152C198.425 19.9152 198.425 19.5758 198.583 19.3494C198.661 19.1797 198.897 18.5574 198.74 18.5008C198.583 18.4442 198.74 18.1047 198.818 18.0482C198.897 17.9916 199.054 17.7653 198.976 17.7653C198.976 17.7653 198.976 17.7653 198.818 17.7087C198.661 17.6521 198.504 17.8784 198.347 17.7087C198.189 17.7087 197.954 17.7653 197.796 17.8219C197.639 17.8784 196.932 17.7653 196.696 17.7653C196.381 17.7087 195.517 17.8784 195.281 17.9916C195.045 18.0482 194.18 18.0482 194.023 18.0482C193.866 18.0482 193.394 18.2179 193.315 18.1613C193.237 18.1047 193.158 17.8784 193.158 17.7653C193.158 17.6521 193.708 17.5955 193.866 17.5955C193.866 17.5955 193.866 17.5955 193.944 17.539C194.102 17.4824 193.944 17.2561 194.337 17.3127C194.416 17.3127 194.416 17.3127 194.416 17.3127C194.495 17.1995 194.73 17.1429 194.888 17.2561C194.888 17.2561 194.888 17.2561 194.888 16.9732C194.888 16.9166 194.888 16.9166 194.888 16.9166C195.123 16.86 195.438 16.86 195.674 16.86C195.674 16.86 195.674 16.86 195.752 16.6903C195.752 16.5772 195.752 16.5772 195.752 16.5772C195.831 16.4074 195.752 16.3508 195.674 16.4074C195.595 16.464 195.123 16.464 195.045 16.464C194.966 16.4074 194.652 16.3508 194.495 16.464C194.337 16.5206 193.866 16.8035 193.866 16.7469C193.944 16.5772 194.18 16.4074 194.18 16.2377C194.101 16.068 194.102 16.068 194.102 16.068C193.787 15.8417 193.63 15.6719 193.787 15.6153C193.866 15.5588 194.259 15.5588 194.416 15.6719C194.416 15.6719 194.416 15.6719 194.495 15.7851C194.573 15.8417 194.573 15.8417 194.573 15.8417C194.573 15.9548 194.652 16.0114 194.652 16.0114C194.888 15.8417 194.888 15.8417 194.888 15.8417C195.123 15.9548 195.438 16.0114 195.517 15.9548C195.595 15.9548 195.595 15.7851 195.281 15.6153C195.281 15.6153 195.281 15.6153 195.438 15.389C195.517 15.3325 195.517 15.3325 195.517 15.3325C195.752 15.389 195.988 15.2759 196.067 15.0496C196.145 14.8798 196.303 14.6535 196.303 14.6535C196.303 14.6535 195.988 14.597 195.831 14.7101C195.831 14.7101 195.831 14.7101 195.674 14.7667C195.595 14.7667 195.438 14.7101 195.438 14.6535C195.359 14.597 195.359 14.4272 195.438 14.3706C195.517 14.3141 195.988 14.2575 195.91 14.2009C195.831 14.1443 195.438 13.918 195.517 13.8614C195.595 13.8049 195.752 13.6351 195.831 13.6917C195.831 13.6917 195.831 13.6917 195.91 13.6917C196.145 13.7483 196.381 13.5786 196.617 13.2957C196.696 13.1825 196.696 13.1825 196.696 13.1825C196.539 13.0694 196.46 12.9562 196.381 12.8996C196.303 12.8996 196.303 12.7865 196.46 12.7299C196.46 12.7299 196.46 12.7299 196.539 12.7299C196.853 12.7299 196.932 12.6733 196.774 12.5036C196.774 12.447 196.696 12.3904 196.696 12.3904C196.853 12.3339 196.853 12.3339 196.853 12.3339C196.853 12.2207 196.617 12.1641 196.46 12.2207C196.46 12.2207 196.46 12.2207 196.381 12.3339C196.381 12.3904 196.381 12.3904 196.381 12.3904C195.988 12.3904 195.988 12.3339 196.381 12.2207C196.381 12.2207 196.381 12.2207 196.224 11.9944C196.145 11.8812 196.145 11.8812 196.145 11.8812C196.067 11.7115 196.067 11.5984 196.145 11.5418C196.224 11.4852 196.381 11.2589 196.303 11.1457C196.224 11.0326 195.674 10.9194 195.674 10.8628C195.674 10.8628 195.674 10.8628 195.752 10.8063C195.831 10.6931 195.831 10.6931 195.831 10.6931C195.91 10.5234 195.91 10.4668 195.831 10.5234C195.752 10.58 195.359 10.6365 195.281 10.58C195.202 10.58 194.809 10.58 194.652 10.58C194.495 10.58 194.18 10.58 194.259 10.5234C194.337 10.4668 194.573 10.3537 194.652 10.2971C194.73 10.2405 195.124 10.3537 195.124 10.3537C195.124 10.3537 195.202 10.2971 195.202 10.1839C195.202 10.0708 195.752 10.1839 195.831 10.1839C195.91 10.1839 196.067 10.1273 195.91 10.0708C195.752 10.0142 195.281 9.90103 195.202 9.95761C195.202 10.0142 194.966 10.0708 194.888 10.0708C194.809 10.0708 194.573 9.78788 194.495 9.78788C194.416 9.78788 194.101 9.67472 194.023 9.50499C194.023 9.50499 194.023 9.50499 194.102 9.33526C194.18 9.16553 194.337 9.10895 194.573 9.05237C194.652 9.05237 194.652 9.05237 194.652 9.05237C194.73 8.9958 194.73 8.88264 194.573 8.82606C194.495 8.71291 194.023 8.54318 193.944 8.4866C193.866 8.43002 193.866 8.26029 193.866 8.26029C193.787 8.26029 193.708 8.14713 193.708 8.14713C193.708 8.14713 193.708 8.03398 193.866 7.9774C193.944 7.92083 194.18 7.63794 194.18 7.46821C194.18 7.46821 194.18 7.46821 194.023 7.35505C193.708 7.12874 193.787 6.95901 194.259 6.84586C194.652 6.7327 194.652 6.7327 194.652 6.7327C194.416 6.56297 194.18 6.33666 194.023 6.22351C193.944 6.11035 193.63 5.9972 193.866 5.9972C193.866 5.9972 193.866 5.9972 193.866 5.77089C193.866 5.65773 193.866 5.65773 193.866 5.65773C193.866 5.54458 193.944 5.31827 193.944 5.20511C193.944 5.20511 193.944 5.20511 194.102 5.14854C194.259 5.03538 194.259 5.03538 194.259 5.03538C194.18 4.92223 194.101 4.69592 194.023 4.58276C194.023 4.58276 194.023 4.58276 194.18 4.46961C194.573 4.13014 194.573 4.13015 194.573 4.13015C194.259 3.96041 193.944 3.84726 193.944 3.84726C193.944 3.84726 194.18 3.5078 194.573 3.16833C194.573 3.16833 194.573 3.16833 194.888 2.82887C194.966 2.71571 194.966 2.71571 194.966 2.71571C194.809 2.77229 194.652 2.77229 194.573 2.77229C194.573 2.77229 194.416 2.77229 194.259 2.71571C194.102 2.65914 193.787 2.54598 193.708 2.54598C193.63 2.54598 193.237 2.4894 193.079 2.43283C193.079 2.43283 193.079 2.43283 192.922 2.37625C192.686 2.31967 192.686 2.31967 192.686 2.31967C192.451 2.31967 191.822 2.26309 191.35 2.20652C190.878 2.14994 189.227 2.03679 188.913 1.98021C188.913 1.98021 188.913 1.98021 188.677 1.98021C188.441 1.98021 188.441 1.98021 188.441 1.98021C188.127 1.92363 187.498 1.86705 186.869 1.86705C186.869 1.86705 186.869 1.86705 186.319 1.86705C186.083 1.86705 186.083 1.86705 186.083 1.86705C185.847 1.81047 185.454 1.64074 185.218 1.52759C185.218 1.52759 185.218 1.52759 184.982 1.7539C184.982 1.81048 184.51 1.69732 184.51 1.69732C184.353 1.92363 184.117 1.52759 183.96 1.7539C183.881 1.81048 183.881 1.81047 183.881 1.81047C183.567 1.69732 183.253 1.64074 183.095 1.64074C182.859 1.52759 182.859 1.52759 182.859 1.52759C182.545 1.52759 182.152 1.52759 181.995 1.47101C181.837 1.41443 181.287 1.52759 181.209 1.52759C181.051 1.52759 180.422 1.47101 180.108 1.47101C179.793 1.47101 178.85 1.30128 178.771 1.35786C178.693 1.41443 178.143 1.2447 177.828 1.18812C177.828 1.18812 177.828 1.18812 177.592 1.2447C177.278 1.30128 177.278 1.30128 177.278 1.30128C176.885 1.2447 176.492 1.2447 176.256 1.18812C176.02 1.18812 175.548 1.07497 175.548 1.13155C175.548 1.18813 175.155 1.13155 174.919 1.01839C174.683 0.905239 173.897 1.07497 173.74 1.01839C173.74 1.01839 173.74 1.01839 173.661 1.07497C173.347 1.18813 173.347 1.18812 173.347 1.18812C173.111 1.07497 172.639 1.01839 172.325 1.07497C172.325 1.07497 172.325 1.07497 172.089 1.01839C171.853 0.961815 171.853 0.961815 171.853 0.961815C171.617 1.01839 171.146 1.07497 170.831 1.01839C170.831 1.01839 170.831 1.01839 170.595 1.01839C170.36 1.01839 170.36 1.01839 170.36 1.01839C170.045 0.961815 169.652 0.961815 169.416 1.07497C169.416 1.07497 169.416 1.07497 169.102 0.961815C168.866 0.905239 168.866 0.905239 168.866 0.905239C168.551 0.905239 167.923 0.905235 167.529 0.84866C167.529 0.84866 167.529 0.848663 167.058 0.905239C166.743 0.961815 166.743 0.961815 166.743 0.961815C166.35 0.905239 165.957 0.792084 165.8 0.792084C165.643 0.792084 165.25 0.84866 165.171 0.84866C165.092 0.792084 164.621 0.84866 164.385 0.84866C164.149 0.84866 163.441 0.735508 163.363 0.792084C163.363 0.84866 163.284 0.848663 163.284 0.735508C163.284 0.622353 162.734 0.84866 162.655 0.84866C162.577 0.84866 162.026 0.84866 161.791 0.792084C161.555 0.735508 160.926 0.84866 160.769 0.792084C160.611 0.792084 159.982 0.84866 159.747 0.84866C159.511 0.84866 158.725 0.84866 158.489 0.84866C158.253 0.905235 157.624 0.678928 157.545 0.678928C157.467 0.678928 157.074 0.735508 156.995 0.735508C156.838 0.735508 156.523 0.735508 156.209 0.735508C155.894 0.735508 155.108 0.792084 155.03 0.792084C154.951 0.792084 154.715 0.735508 154.637 0.792084C154.558 0.84866 153.929 0.792084 153.693 0.735508C153.457 0.735508 152.671 0.678928 152.357 0.565773C152.357 0.565773 152.357 0.565777 151.964 0.735508C151.728 0.848663 151.728 0.84866 151.728 0.84866C151.256 0.84866 150.627 0.792084 150.234 0.735508C150.234 0.735508 150.234 0.735504 149.841 0.84866C149.762 0.84866 149.762 0.84866 149.762 0.84866C149.605 0.735504 149.291 0.678928 149.055 0.792084C148.819 0.905239 147.876 0.735504 147.404 0.678928C146.932 0.622353 145.753 0.84866 145.674 0.84866C145.596 0.84866 145.203 0.792084 144.81 0.792084C144.81 0.792084 144.81 0.792084 144.417 0.905239C144.181 0.961815 144.181 0.961815 144.181 0.961815C144.023 0.792084 143.788 0.735508 143.63 0.792084C143.473 0.84866 143.001 0.961815 142.844 0.905239C142.687 0.848663 142.294 0.678932 142.215 0.735508C142.137 0.792084 141.665 0.905239 141.272 0.905239C141.272 0.905239 141.272 0.905235 141.036 0.84866C140.722 0.792084 140.486 0.792084 140.25 0.84866C140.014 0.961815 140.014 0.961815 140.014 0.961815C139.778 0.905239 139.542 0.84866 139.464 0.84866C139.385 0.84866 138.913 0.961815 138.835 0.961815C138.756 0.961815 138.285 0.905235 138.206 0.84866C138.049 0.792084 137.656 0.84866 137.498 0.84866C137.341 0.84866 136.869 0.84866 136.712 0.84866C136.555 0.84866 136.162 0.905239 136.162 0.961815C136.162 1.01839 136.083 1.18812 136.005 1.18812C135.926 1.18812 135.769 1.13155 135.769 1.18812C135.769 1.2447 135.454 1.30128 135.376 1.2447C135.376 1.2447 135.376 1.2447 135.297 1.13155C135.219 1.07497 134.983 1.01839 134.825 0.961815C134.354 0.792084 134.354 0.792084 133.882 1.01839C133.803 1.07497 133.803 1.07497 133.803 1.07497C133.725 1.13155 133.489 1.07497 133.41 1.01839C133.332 0.961815 132.86 0.84866 132.703 0.961815C132.546 1.01839 132.153 1.18813 132.153 1.13155C132.153 1.07497 131.917 0.84866 131.681 0.84866C131.445 0.84866 130.423 0.905239 129.715 0.792084C129.715 0.792084 129.715 0.792084 129.008 0.961815C128.222 0.622353 128.222 0.622353 128.222 0.622353C127.829 0.509197 127.514 0.452621 127.436 0.509197C127.357 0.565773 127.043 0.452621 126.964 0.452621C126.964 0.452621 126.571 0.396046 126.256 0.452621C125.942 0.452621 124.999 0.565773 124.92 0.565773C124.841 0.565773 124.37 0.452618 124.212 0.396042C124.055 0.339466 123.348 0.339466 123.033 0.226311C123.033 0.226311 123.033 0.226311 122.64 0.452621C122.404 0.565777 122.404 0.565773 122.404 0.565773C122.168 0.509197 121.854 0.509197 121.697 0.565773C121.539 0.622349 121.068 0.396042 120.911 0.396042C120.753 0.396042 120.282 0.509197 120.282 0.565773C120.282 0.622349 120.046 0.735508 119.81 0.622353C119.81 0.622353 119.81 0.622353 119.653 0.509197C119.495 0.396042 119.495 0.396042 119.495 0.396042C119.26 0.452618 119.024 0.452621 118.945 0.452621C118.867 0.396046 118.552 0.396046 118.552 0.452621C118.552 0.509197 118.473 0.565777 118.395 0.339466C118.395 0.339466 118.395 0.339466 118.08 0.452621C117.923 0.509197 117.923 0.509197 117.923 0.509197C117.766 0.452621 117.53 0.452621 117.451 0.452621C117.373 0.452621 116.901 0.565773 116.823 0.509197C116.665 0.509197 116.194 0.509197 116.036 0.565773C115.879 0.622349 115.407 0.565777 115.172 0.622353C115.172 0.622353 115.172 0.622353 114.936 0.622353C114.857 0.622353 114.7 0.565773 114.621 0.565773C114.464 0.678928 114.385 0.565773 114.228 0.565773C114.15 0.565773 113.992 0.622353 113.914 0.678928C113.914 0.678928 113.757 0.622349 113.757 0.565773C113.757 0.509197 113.757 0.509197 113.757 0.509197C113.835 0.452621 113.835 0.452618 113.835 0.396042C113.835 0.396042 113.678 0.396042 113.521 0.396042C113.442 0.396042 112.97 0.396042 112.813 0.339466C112.813 0.339466 112.813 0.339466 112.656 0.339466C112.341 0.339466 112.027 0.452618 111.87 0.396042C111.555 0.282887 111.555 0.282887 111.555 0.282887C111.319 0.339462 111.005 0.396042 110.926 0.396042C110.769 0.396042 110.376 0.282887 110.297 0.226311C110.219 0.169735 110.062 0.396046 110.062 0.452621C110.062 0.452621 109.747 0.452621 109.511 0.452621C109.275 0.452621 108.253 0.339466 108.018 0.339466C107.782 0.339466 107.231 0.678928 107.153 0.622353C107.074 0.565777 106.917 0.339462 106.524 0.282887C106.209 0.282887 104.952 0.509197 104.401 0.622353C104.401 0.622353 104.401 0.622353 103.93 0.339466C103.772 0.28289 103.772 0.282887 103.772 0.282887C103.458 0.339462 103.143 0.396042 103.065 0.396042C102.986 0.452618 102.672 0.396042 102.515 0.396042C102.357 0.452618 101.886 0.339462 101.807 0.282887C101.728 0.282887 101.335 0.28289 101.021 0.339466C100.706 0.396042 99.6844 0.282887 99.2127 0.226311C99.2127 0.226311 99.2127 0.226311 98.8196 0.396042C98.8196 0.396042 97.8762 0.226311 97.7976 0.226311C97.719 0.169735 97.719 0.169731 97.6404 0.169731C97.4045 0.113155 97.4045 0.113155 97.4045 0.113155C97.1687 0.169731 97.0114 0.28289 97.0114 0.339466C97.0114 0.396042 96.9328 0.565773 96.8542 0.565773C96.7756 0.565773 96.5397 0.509197 96.6184 0.452621C96.6184 0.452621 96.6184 0.452618 96.6184 0.396042C96.6184 0.339466 96.6184 0.339466 96.6184 0.339466C96.6184 0.226311 96.3825 0.169731 96.1467 0.169731C96.1467 0.169731 96.1467 0.169731 95.9108 0.169731C95.7536 0.169731 95.7536 0.169731 95.7536 0.169731C95.5964 0.113155 95.2033 0.113155 94.9674 0.113155C94.7316 0.113155 93.9454 0.169731 93.7882 0.169731C93.631 0.113155 93.1593 0.226307 93.002 0.169731C92.8448 0.113155 92.3731 0.226307 92.2945 0.169731C92.2945 0.169731 92.2945 0.169731 92.2159 0.169731C91.8228 0.113155 91.5084 0.169735 91.1153 0.226311C90.8008 0.282887 90.8008 0.282887 90.8008 0.282887C90.3291 0.282887 89.8574 0.282887 89.7002 0.282887C89.543 0.282887 89.3857 0.509197 89.2285 0.339466C89.2285 0.339466 89.2285 0.339462 89.1499 0.282887C89.0713 0.226311 89.0713 0.226311 89.0713 0.226311C88.9927 0.169735 88.7568 0.113155 88.521 0.0565796C88.2851 3.8147e-06 87.499 0.226311 87.3417 0.226311C87.1845 0.226311 86.9487 0.226311 86.87 0.226311C86.7914 0.226311 86.3983 0.226311 86.3197 0.226311C86.2411 0.226311 85.6908 0.226311 85.455 0.226311C85.2191 0.226311 84.5902 0.339466 84.5902 0.396042C84.5902 0.452618 84.433 0.339462 84.2757 0.169731C84.2757 0.169731 84.2757 0.169735 83.8827 0.339466C83.804 0.396042 83.4896 0.169731 83.2537 0.169731C83.0179 0.169731 83.0179 0.169731 83.0179 0.169731C82.782 0.226307 82.389 0.169731 82.1531 0C82.1531 0 82.1531 0 81.8387 0.169731C81.6814 0.282887 81.6814 0.282887 81.6814 0.282887C81.367 0.339462 81.0525 0.396042 80.9739 0.339466C80.8953 0.28289 80.6594 0.113155 80.5808 0.226311C80.5022 0.282887 80.1877 0.396042 80.0305 0.282887C80.0305 0.282887 80.0305 0.282887 79.8733 0.226311C79.7947 0.226311 79.5588 0.226311 79.5588 0.226311C79.5588 0.509197 79.5588 0.509197 79.5588 0.509197C79.1657 0.565773 78.7727 0.565773 78.7727 0.509197C78.7727 0.396042 78.5368 0.282887 78.301 0.282887C78.301 0.282887 78.301 0.282887 78.1437 0.226311C77.9865 0.226311 77.9079 0.113155 77.9079 0.282887C77.9079 0.452618 77.672 0.452618 77.5934 0.396042C77.2003 0.226311 76.8073 0.339462 76.4142 0.282887C76.0997 0.282887 76.0997 0.282887 76.0997 0.282887C75.7853 0.226311 75.4708 0.226311 75.4708 0.226311C75.4708 0.226311 75.4708 0.226311 75.3922 0.226311C75.0777 0.282887 75.0777 0.282887 75.0777 0.282887C74.606 0.339462 74.3702 0.396046 74.5274 0.452621C74.6847 0.509197 74.3702 0.678932 74.3702 0.735508C74.3702 0.792084 74.1343 0.848663 74.1343 0.735508C74.1343 0.622353 73.9771 0.28289 73.8199 0.339466C73.8199 0.339466 73.8199 0.339466 73.7413 0.396042C73.584 0.452618 73.584 0.452621 73.584 0.452621C73.5054 0.565777 73.191 0.622349 73.0337 0.565773C72.8765 0.509197 72.2476 0.452621 72.169 0.509197C72.0903 0.622353 71.7759 0.792084 71.6187 0.678928C71.6187 0.678928 71.6187 0.678928 71.6187 0.565773C71.6187 0.282887 71.6187 0.282887 71.6187 0.282887C71.3828 0.282887 70.9111 0.28289 70.6753 0.339466C70.4394 0.396042 69.6533 0.339466 69.5747 0.339466C69.496 0.339466 69.2602 0.396046 69.103 0.452621C68.9457 0.509197 68.3168 0.452618 68.081 0.396042C68.081 0.396042 68.081 0.396046 67.9237 0.452621C67.7665 0.509197 67.7665 0.509197 67.7665 0.509197C67.6093 0.678928 67.3734 0.792084 67.2162 0.735508C67.059 0.678932 66.6659 0.509197 66.6659 0.452621C66.6659 0.452621 66.6659 0.452618 66.6659 0.396042C66.6659 0.339466 66.6659 0.339466 66.6659 0.339466C66.6659 0.28289 66.5873 0.282887 66.5087 0.282887C66.43 0.282887 66.2728 0.396042 66.1156 0.509197C65.9583 0.622353 65.4866 0.396042 65.408 0.396042C65.3294 0.396042 65.015 0.452621 64.8577 0.452621C64.8577 0.452621 64.8577 0.452621 64.8577 0.509197C64.7791 0.678928 64.7791 0.678928 64.7791 0.678928C65.015 0.678928 65.3294 0.678928 65.4866 0.678928C65.6439 0.678928 65.7225 1.01839 65.5653 1.01839C65.408 1.01839 64.8577 1.01839 64.8577 0.905239C64.8577 0.905239 64.8577 0.905239 64.7791 0.792084C64.7005 0.678928 64.5433 0.509197 64.386 0.509197C63.993 0.509197 64.3074 0.735504 64.1502 0.84866C64.1502 0.84866 63.9143 0.792084 63.7571 0.622353C63.5999 0.509197 62.7351 0.509197 62.4993 0.509197C62.2634 0.509197 61.949 0.792084 61.8703 0.678928C61.7917 0.565773 62.342 0.452621 62.4207 0.452621C62.4207 0.452621 62.4993 0.339462 62.4207 0.282887C62.4207 0.282887 62.4206 0.282887 62.342 0.282887C62.1848 0.282887 62.1848 0.282887 62.1848 0.282887C62.0276 0.339462 61.7131 0.452621 61.4773 0.622353C61.4773 0.622353 61.4773 0.622353 61.3986 1.13155C61.3986 1.18813 61.0842 1.30128 61.0842 1.30128C60.3766 0.961815 60.6125 1.35786 60.5339 1.52759C60.4553 1.58417 60.3766 1.52759 60.3766 1.41443C60.3766 1.30128 60.2194 1.07497 60.0622 1.18812C59.905 1.30128 59.6691 0.84866 59.5905 0.792084C59.5119 0.735508 59.276 0.452621 59.1974 0.452621C59.1188 0.452621 58.5685 0.452621 58.1754 0.452621C58.1754 0.452621 58.1754 0.452621 57.7823 0.452621C57.7037 0.452621 57.7037 0.452621 57.7037 0.452621C57.6251 0.452621 57.5465 0.452621 57.5465 0.509197C57.5465 0.565773 57.5465 0.678932 57.5465 0.735508C57.5465 0.792084 57.861 1.01839 58.0182 0.961815C58.0182 0.961815 58.0182 0.961815 58.1754 0.961815C58.3326 0.961815 58.3326 0.961815 58.3326 0.961815C58.4113 0.905239 58.6471 0.84866 58.883 0.792084C58.883 0.792084 58.883 0.792084 59.0402 0.792084C59.1188 0.792084 59.276 0.792084 59.276 0.84866C59.3546 0.961815 59.3546 0.961815 59.3546 0.961815C59.4333 1.13155 59.6691 1.2447 59.8263 1.2447C59.8263 1.2447 59.8263 1.2447 59.905 1.30128C60.0622 1.41443 60.0622 1.58417 60.1408 1.64074C60.4553 1.81047 60.4553 1.81047 60.4553 1.81047C60.298 1.92363 60.0622 2.03678 59.9836 2.09336C59.9049 2.09336 59.5905 2.03678 59.5905 1.86705C59.5905 1.69732 59.3546 1.2447 59.1188 1.2447C59.1188 1.2447 59.1188 1.2447 58.9616 1.13155C58.8043 1.01839 58.6471 0.961815 58.3326 1.07497C58.1754 0.961815 58.1754 0.961815 58.1754 0.961815ZM60.6911 2.26309C60.5339 2.31967 60.298 2.31967 60.298 2.31967C60.298 2.31967 60.298 2.20652 60.4553 2.14994C60.5339 2.09336 61.1628 2.03678 61.4773 2.14994C61.4773 2.14994 61.4773 2.14994 61.7917 1.98021C61.7917 1.98021 61.949 1.98021 61.949 2.03679C62.0276 2.09336 62.0276 2.09336 62.0276 2.09336C62.1848 2.20652 62.1848 2.31967 61.949 2.31967C61.7131 2.31967 60.927 2.20652 60.6911 2.26309ZM55.0308 1.98021C54.795 1.92363 54.6377 1.81048 54.7163 1.69732C54.795 1.58417 55.3453 1.81047 55.4239 1.86705C55.5025 1.92363 56.1314 1.92363 56.2886 1.92363C56.4459 1.92363 57.0748 1.98021 56.9962 2.09336C56.9176 2.20652 56.3673 2.09336 56.21 2.09336C56.0528 2.09336 55.6597 2.09336 55.4239 2.14994C55.4239 2.14994 55.4239 2.14994 55.188 2.09336C55.0308 1.98021 55.0308 1.98021 55.0308 1.98021ZM192.136 17.7653C192.372 17.7087 192.451 17.7653 192.372 17.8784C192.293 17.9916 191.9 18.3876 191.743 18.6139C191.743 18.6139 191.743 18.6139 191.429 18.3311C191.193 18.1047 191.193 18.1047 191.193 18.1047C190.957 18.1613 190.878 18.2179 191.035 18.1613C191.193 18.1613 191.9 17.8219 192.136 17.7653ZM100.864 1.92363C100.628 1.92363 100.313 1.86705 100.313 1.81047C100.392 1.69732 100.392 1.69732 100.392 1.69732C100.313 1.58417 100.313 1.47101 100.471 1.41443C100.549 1.35786 100.942 1.52759 101.178 1.52759C101.257 1.64074 101.099 1.92363 100.864 1.92363ZM195.517 17.935C195.359 18.1047 195.281 18.1047 195.359 17.935C195.438 17.7653 196.067 17.5955 196.224 17.5955C196.224 17.5955 196.224 17.5955 196.224 17.7653C196.224 17.8219 196.224 17.8219 196.224 17.8219C196.381 17.9916 196.224 17.9916 195.831 17.8219C195.831 17.8219 195.831 17.8219 195.674 17.8784C195.517 17.935 195.517 17.935 195.517 17.935ZM53.2226 2.14994C52.7509 2.09336 52.5151 2.03679 52.7509 2.03679C52.9082 2.03679 53.4585 1.86705 53.5371 1.81047C53.6943 1.7539 54.0874 1.69732 54.0874 1.7539C54.0874 1.81048 53.9302 2.03679 53.6943 1.98021C53.6943 1.98021 53.6943 1.98021 53.6157 1.98021C53.2226 2.14994 53.2226 2.14994 53.2226 2.14994ZM72.562 1.58417C72.4834 1.58417 72.4834 1.41443 72.6407 1.18812C72.6407 1.18812 72.6406 1.18813 72.8765 1.13155C73.1123 1.01839 73.1124 1.01839 73.1124 1.01839C73.3482 0.905239 73.6627 0.84866 73.8199 0.84866C73.8199 0.84866 73.8199 0.848663 73.8199 0.905239C73.8985 0.961815 73.8985 0.961815 73.8985 0.961815C73.8985 1.07497 73.6627 1.13155 73.3482 1.13155C73.3482 1.13155 73.3482 1.13155 73.191 1.18812C73.0337 1.2447 73.0337 1.2447 73.0337 1.2447C72.9551 1.41443 72.6406 1.58417 72.562 1.58417ZM136.319 1.58417C136.476 1.64074 136.476 1.69732 136.398 1.7539C136.319 1.81048 136.005 1.98021 135.926 2.03679C135.847 2.09336 135.533 2.03678 135.612 1.86705C135.69 1.69732 136.241 1.58417 136.319 1.58417ZM66.2728 1.30128C66.1942 1.47101 66.1942 1.47101 66.2728 1.30128C66.2728 1.18812 66.1942 0.84866 66.3514 0.84866C66.5087 0.84866 66.2728 1.13155 66.2728 1.30128ZM5.97477 11.7115C6.132 11.7115 6.21062 11.7681 6.21062 11.8812C5.89616 11.8812 5.81754 11.9944 5.81754 12.1641C5.81754 12.2207 5.81754 12.2207 5.81754 12.2207C5.73893 12.3339 5.66031 12.2773 5.50308 12.1641C5.42446 11.9944 5.81754 11.7681 5.97477 11.7115ZM3.30185 8.99579C3.30185 9.05237 3.14462 9.10895 3.066 9.16553C3.066 9.16553 3.066 9.16553 2.98739 9.22211C2.90877 9.27868 2.83016 9.33526 2.67292 9.27868C2.51569 9.2221 2.43708 9.16553 2.67292 9.05237C2.83016 8.9958 2.51569 8.71291 2.90877 8.71291C2.98739 8.71291 3.14462 8.88264 3.30185 8.99579Z" fill="#FFB820"/>
</svg>
