<svg width="137" height="31" viewBox="0 0 137 31" fill="none" xmlns="http://www.w3.org/2000/svg">
<path d="M97.3481 30.0965C97.5089 30.2028 97.7232 30.3622 97.8304 30.4685C97.9375 30.5748 98.3126 30.7343 98.259 30.628C98.2054 30.5217 97.9911 30.3091 97.9375 30.2028C97.8839 30.1496 98.1519 29.9902 98.1519 29.8839C98.1519 29.8839 98.1519 29.8839 98.2054 29.8307C98.3662 29.7776 98.3662 29.7776 98.3662 29.7776C98.4734 29.6181 98.5805 29.4587 98.6341 29.4056C98.6877 29.3524 98.8484 29.5118 98.902 29.6181C98.902 29.6181 98.902 29.6181 98.902 29.7244C98.902 29.7776 98.902 29.7776 98.902 29.7776C98.902 29.8307 98.902 29.9902 99.0092 30.1496C99.0628 30.3091 99.1164 30.6811 99.1164 30.7343C99.1699 30.7343 99.2235 30.7343 99.2771 30.6811C99.3307 30.628 99.4379 30.4685 99.545 30.4154C99.6522 30.3622 99.2771 30.2028 99.2771 30.1496C99.2235 30.0965 99.2235 29.9902 99.3843 30.0965C99.545 30.2028 99.8665 29.937 99.9201 29.9902C99.9737 29.9902 99.9201 30.2559 99.8665 30.3091C99.8665 30.3091 99.8665 30.3091 99.8665 30.3622C99.8665 30.4154 99.8665 30.4154 99.8665 30.4154C99.8665 30.4685 100.027 30.5217 100.242 30.5217C100.242 30.5217 100.242 30.5217 100.402 30.5217C100.456 30.5217 100.456 30.5217 100.456 30.5217C100.456 30.6811 100.563 30.7874 100.563 30.7874C100.617 30.7874 100.831 30.7874 100.992 30.7874C101.045 30.628 101.045 30.628 101.045 30.628C100.885 30.628 100.777 30.5217 100.831 30.4685C100.885 30.4154 100.992 30.2559 101.099 30.3622C101.206 30.4685 101.528 30.6811 101.635 30.6811C101.796 30.6811 102.117 30.6811 102.171 30.6811C102.171 30.6811 102.117 30.628 102.01 30.628C101.903 30.628 101.635 30.5217 101.635 30.4154C101.635 30.3091 101.26 30.2028 101.153 30.2028C101.099 30.2028 100.885 30.0965 100.831 30.0965C100.831 30.0965 100.831 30.0965 100.831 30.0433C100.831 29.9902 100.885 29.937 100.938 29.937C101.313 30.0433 101.688 30.1496 102.063 30.1496C102.331 30.1496 102.331 30.1496 102.331 30.1496C102.439 30.3091 102.599 30.4685 102.706 30.5217C102.814 30.5748 102.921 30.3622 102.921 30.3622C102.974 30.3622 103.135 30.2559 103.189 30.2559C103.242 30.2559 103.457 30.0965 103.403 30.0965C103.349 30.0965 103.189 29.9902 103.135 30.0433C103.135 30.0433 103.135 30.0433 103.135 30.0965C103.028 30.3091 103.028 30.3091 103.028 30.3091C102.814 30.2559 102.599 30.2559 102.599 30.2028C102.546 30.2028 102.492 30.0433 102.492 29.9902C102.492 29.937 102.76 29.7776 102.867 29.7776C102.974 29.4056 103.189 29.6181 103.242 29.7244C103.349 29.937 103.617 29.9902 103.778 30.0965C103.939 30.2028 103.939 30.2028 103.939 30.2028C104.046 30.3622 104.153 30.4154 104.153 30.3091C104.153 30.3091 104.153 30.3091 104.153 30.2559C104.153 30.1496 104.153 30.1496 104.153 30.1496C104.314 30.0965 104.582 29.937 104.743 29.8839C104.743 29.8839 104.743 29.8839 104.743 29.7776C104.796 29.565 104.957 29.565 105.225 29.565C105.332 29.565 105.439 29.4587 105.493 29.4587C105.546 29.4587 105.6 29.6181 105.654 29.6713C105.761 29.6713 105.761 29.7244 105.654 29.7776C105.546 29.8307 105.439 29.9902 105.493 30.0433C105.546 30.0965 106.082 29.8839 106.029 29.8307C106.029 29.8307 106.029 29.8307 105.975 29.7776C105.868 29.565 106.029 29.4587 106.243 29.565C106.457 29.6181 106.511 29.5118 106.618 29.4587C106.779 29.4587 106.779 29.4587 106.779 29.4587C106.94 29.4587 107.315 29.5118 107.529 29.565C107.529 29.565 107.529 29.565 107.636 29.5118C107.797 29.4587 107.797 29.4587 107.797 29.4587C107.958 29.4587 108.172 29.5118 108.279 29.565C108.386 29.6181 108.815 29.4587 108.922 29.4587C109.029 29.4587 109.244 29.4587 109.351 29.4587C109.458 29.4587 109.833 29.4056 109.94 29.5118C110.047 29.6181 110.476 29.6713 110.637 29.5118C110.637 29.5118 110.637 29.5118 110.905 29.565C111.066 29.6181 111.066 29.6181 111.066 29.6181C111.28 29.6181 111.548 29.565 111.762 29.565C111.923 29.565 112.459 29.6713 112.673 29.7244C112.887 29.7776 113.584 29.6713 113.798 29.6713C113.798 29.6713 113.798 29.6713 114.066 29.565C114.441 29.3524 114.441 29.3524 114.441 29.3524C114.763 29.4056 115.138 29.5118 115.191 29.5118C115.245 29.5118 115.567 29.5118 115.727 29.5118C115.888 29.5118 116.317 29.565 116.37 29.565C116.37 29.5118 116.477 29.4587 116.531 29.5118C116.585 29.565 116.799 29.6181 116.853 29.565C116.853 29.565 116.853 29.565 116.906 29.5118C116.96 29.4587 116.96 29.4587 116.96 29.4587C117.013 29.4587 117.12 29.4587 117.174 29.5118C117.228 29.565 117.335 29.6181 117.388 29.565C117.442 29.5118 117.656 29.6181 117.656 29.6181C117.71 29.6181 117.924 29.6713 118.139 29.7244C118.139 29.7244 118.139 29.7244 118.353 29.6713C118.46 29.6181 118.567 29.6181 118.674 29.565C118.782 29.5118 118.889 29.3524 119.103 29.5118C119.103 29.5118 119.21 29.5118 119.264 29.4587C119.478 29.2993 119.532 29.2461 119.746 29.5118C119.853 29.6713 119.853 29.6713 119.853 29.6713C119.96 29.4587 120.068 29.2993 120.121 29.3524C120.175 29.4056 120.335 29.5118 120.335 29.4587C120.335 29.4056 120.496 29.2461 120.603 29.2461C120.711 29.2461 120.925 29.4056 120.978 29.4587C121.032 29.5118 121.193 29.4056 121.246 29.4587C121.246 29.5118 121.3 29.5118 121.3 29.4056C121.3 29.2993 121.621 29.4587 121.621 29.5118C121.836 29.565 121.836 29.2461 122.104 29.3524C122.264 29.4056 122.264 29.4056 122.264 29.4056C122.479 29.4056 122.693 29.4056 122.747 29.4056C122.8 29.4056 123.015 29.4587 123.175 29.4587C123.336 29.4587 123.711 29.3524 123.818 29.4587C123.818 29.4587 123.818 29.4587 123.926 29.5118C123.979 29.565 123.979 29.565 123.979 29.565C124.086 29.565 124.247 29.4587 124.354 29.4056C124.461 29.3524 124.997 29.5118 125.051 29.4587C125.104 29.4056 125.319 29.2993 125.372 29.3524C125.426 29.4056 125.694 29.2993 125.694 29.2993C125.694 29.2993 125.694 29.2993 125.747 29.3524C125.801 29.4056 125.801 29.4587 125.855 29.4587C125.962 29.4587 126.176 29.5118 126.176 29.3524C126.176 29.2993 126.176 29.2993 126.176 29.2993C126.015 29.2461 125.962 29.1398 126.015 29.1398C126.069 29.0867 126.283 29.0867 126.337 29.1398C126.39 29.193 126.605 29.3524 126.605 29.193C126.605 29.193 126.605 29.193 126.605 29.1398C126.605 29.0867 126.658 29.0335 126.658 29.0335C126.766 29.0335 126.766 29.0335 126.766 29.0335C126.873 29.0335 126.98 28.9804 126.926 28.8741C126.926 28.8741 126.926 28.8741 127.141 28.9272C127.194 28.9272 127.194 28.9272 127.194 28.9272C127.248 28.9804 127.355 28.9804 127.516 28.9272C127.676 28.8209 128.212 28.8209 128.319 28.8209C128.48 28.8209 128.909 28.6615 129.07 28.6615C129.177 28.6615 129.498 28.7146 129.552 28.6083C129.605 28.502 130.141 28.3957 130.195 28.4489C130.516 28.13 130.516 28.13 130.516 28.13C130.999 28.0768 131.374 28.0237 131.427 28.0237C131.481 28.0237 131.695 28.0237 131.856 28.0237C132.017 28.0237 132.713 28.0768 132.981 28.0768C132.981 28.0768 132.981 28.0768 133.035 27.7579C133.035 27.7048 133.142 27.6517 133.196 27.7048C133.356 27.7579 133.356 27.7579 133.356 27.7579C133.517 27.7048 133.731 27.5985 133.731 27.5454C133.785 27.4922 134.053 27.3859 134.16 27.3859C134.267 27.3859 134.535 27.2265 134.589 27.2796C134.642 27.2796 134.749 27.2796 134.803 27.1733C134.803 27.1733 134.803 27.1733 134.857 27.1202C134.91 27.067 135.017 27.067 135.071 27.1202C135.285 27.2265 135.5 27.2265 135.607 27.2265C135.928 27.2265 135.768 27.1202 135.768 27.0139C135.768 26.9607 135.928 26.8544 135.714 26.8544C135.607 26.8544 135.5 26.8013 135.392 26.7481C135.285 26.695 135.285 26.6418 135.392 26.5887C135.5 26.5355 135.5 26.5355 135.5 26.5355C135.392 26.4824 135.232 26.3229 135.071 26.2166C134.91 26.1103 134.803 25.7383 134.91 25.6852C134.91 25.6852 134.91 25.6852 135.017 25.6852C135.125 25.6852 135.125 25.6852 135.125 25.6852C135.232 25.7383 135.446 25.7383 135.553 25.6852C135.66 25.632 135.66 25.1537 135.607 24.9942C135.553 24.8348 135.446 24.3033 135.5 24.3033C135.5 24.3033 135.66 24.3565 135.768 24.4627C135.768 24.4627 135.768 24.4627 135.928 24.3033C135.982 24.197 135.982 24.197 135.982 24.197C135.982 24.0907 135.875 23.9844 135.821 23.8781C135.821 23.8781 135.821 23.8781 135.928 23.825C135.982 23.825 135.982 23.825 135.982 23.825C136.143 23.8781 136.25 23.8781 136.196 23.7718C136.196 23.7718 136.196 23.7718 136.196 23.7187C136.196 23.5061 136.196 23.5061 136.196 23.5061C136.303 23.2935 136.411 23.0277 136.411 22.9746C136.411 22.8683 136.25 22.5494 136.035 22.4963C135.821 22.4431 135.821 21.9116 135.982 21.9648C135.982 21.9648 135.982 21.9648 136.089 22.0179C136.196 22.0711 136.196 22.0711 136.196 22.0711C136.303 22.1242 136.518 22.0179 136.678 21.8585C136.678 21.8585 136.678 21.8585 136.625 21.699C136.625 21.6459 136.625 21.5927 136.571 21.5396C136.411 21.3801 136.303 21.2738 136.196 21.1675C136.089 21.0613 135.982 21.327 135.875 21.1675C135.875 21.1144 135.875 21.1144 135.875 21.1144C135.768 21.1144 135.768 21.0613 135.928 21.0081C135.928 21.0081 135.928 21.0081 135.928 20.955C135.928 20.9018 135.875 20.7955 135.821 20.7424C135.768 20.6892 135.714 20.6892 135.66 20.6892C135.446 20.5829 135.446 20.3172 135.553 20.3172C135.714 20.264 135.768 20.2109 135.821 20.1046C135.875 20.0514 135.875 20.0514 135.875 20.0514C136.089 20.0514 136.089 19.9451 135.821 19.892C135.553 19.8388 134.91 19.5199 134.589 19.6794C134.589 19.6794 134.589 19.6794 134.214 19.6262C134.16 19.6262 133.999 19.7325 133.946 19.8388C133.892 20.0514 133.892 20.0514 133.892 20.0514C133.731 19.9983 133.624 19.8388 133.678 19.7325C133.678 19.7325 133.678 19.7325 133.678 19.6262C133.624 19.3605 133.571 19.0948 133.517 18.829C133.517 18.7759 133.517 18.7759 133.517 18.7759C133.303 18.7227 133.196 18.6164 133.142 18.6164C133.088 18.6164 132.928 18.457 132.874 18.457C132.767 18.457 132.499 18.4038 132.445 18.4038C132.392 18.4038 132.285 18.2975 132.231 18.2444C132.177 18.1912 131.963 18.3507 131.963 18.4038C131.91 18.4038 131.749 18.457 131.749 18.3507C131.749 18.2444 131.588 18.0318 131.481 18.1381C131.374 18.1912 131.052 18.0849 131.052 18.0318C131.052 18.0318 131.106 17.9255 130.999 17.8723C130.999 17.8723 130.999 17.8723 130.945 17.8723C130.784 17.9255 130.57 18.1381 130.516 17.8192C130.463 17.8192 130.356 17.8192 130.248 17.8723C130.141 17.9255 129.82 17.7661 129.713 17.7661C129.605 17.7661 129.338 17.7661 129.177 17.7661C129.016 17.7661 128.748 17.5535 128.855 17.5003C128.962 17.4472 129.177 17.2346 129.123 17.0751C129.07 16.9157 129.659 16.4905 129.605 16.4905C129.552 16.4905 129.498 16.331 129.659 16.2247C129.659 16.2247 129.659 16.2247 129.659 16.1185C129.659 15.9059 129.659 15.9059 129.659 15.9059C129.82 15.9059 129.981 15.8527 130.088 15.7996C130.088 15.7996 130.088 15.7996 130.141 15.7464C130.248 15.587 130.248 15.587 130.248 15.587C130.195 15.4275 130.195 15.1618 130.248 15.0023C130.248 15.0023 130.248 15.0023 130.302 14.8429C130.302 14.7897 130.302 14.7897 130.302 14.7897C130.302 14.7366 130.141 14.7366 129.981 14.8429C129.82 14.9492 129.338 14.7897 129.338 14.7366C129.338 14.6834 129.391 14.5771 129.498 14.5771C129.498 14.5771 129.498 14.5771 129.552 14.5771C129.659 14.6303 129.659 14.6303 129.659 14.6303C129.82 14.6834 129.873 14.6834 129.873 14.6303C129.873 14.6303 129.873 14.6303 129.873 14.5771C129.873 14.524 129.873 14.524 129.873 14.524C129.873 14.4709 129.873 14.4177 129.927 14.4177C129.981 14.4177 130.141 14.4708 130.195 14.4177C130.248 14.3646 130.141 14.0988 130.034 13.9394C130.034 13.9394 130.034 13.9394 129.82 13.8862C129.766 13.8862 129.713 13.8862 129.713 13.8331C129.766 13.461 129.766 13.461 129.766 13.461C129.391 13.3016 129.23 13.1953 129.284 13.1421C129.391 13.089 129.713 13.1421 129.766 13.1421C129.82 13.1421 130.248 12.9827 130.57 12.8764C130.57 12.8764 130.57 12.8764 130.891 12.9295C131.052 12.9295 131.052 12.8764 131.106 12.7701C131.052 12.6107 131.052 12.6107 131.052 12.6107C131.159 12.717 131.32 12.7701 131.481 12.717C131.642 12.6638 132.07 12.5044 132.124 12.4512C132.017 12.2918 132.017 12.2918 132.017 12.2918C132.07 12.1323 132.177 12.026 132.231 11.9729C132.285 11.9197 132.392 11.9197 132.392 11.9197C132.392 11.9197 132.392 11.9197 132.445 11.9729C132.499 12.026 132.499 12.026 132.499 12.026C132.553 12.0792 132.713 12.1323 132.82 12.1323C132.928 12.1855 133.303 12.2386 133.356 12.1855C133.41 12.1323 133.517 11.9197 133.463 11.8666C133.41 11.8134 132.981 11.9197 132.82 11.9197C132.82 11.9197 132.82 11.9197 132.82 11.8134C132.767 11.7071 132.874 11.4945 132.928 11.4945C133.678 11.4414 133.678 11.4414 133.678 11.4414C133.571 11.0162 133.571 10.6442 133.678 10.6442C133.785 10.6442 133.946 10.8036 133.999 10.8036C134.053 10.8036 134.106 10.6973 134.106 10.6973C134.106 10.6973 134.16 10.591 134.214 10.4847C134.267 10.3784 134.106 10.1127 134.053 10.0064C134.053 10.0064 134.053 10.0064 134.053 9.95324C134.053 9.90009 134.053 9.90009 134.053 9.90009C134.053 9.84694 134.16 9.79379 134.214 9.79379C134.214 9.79379 134.214 9.79379 134.267 9.79379C134.321 9.79379 134.321 9.79379 134.321 9.79379C134.374 9.79379 134.428 9.79379 134.482 9.74064C134.374 9.63435 134.374 9.63435 134.374 9.63435C134.214 9.4749 134.214 9.3686 134.428 9.42175C134.428 9.42175 134.428 9.42175 134.535 9.42175C134.749 9.42175 134.749 9.42175 134.749 9.42175C134.964 9.42175 135.178 9.3686 135.232 9.26231C135.232 9.26231 135.232 9.26231 135.232 9.20916C135.178 8.67768 135.178 8.67768 135.178 8.67768C135.446 8.46508 135.714 8.25249 135.768 8.19934C135.768 8.19934 135.768 8.19934 135.768 8.14619C135.821 8.03989 135.821 8.03989 135.821 8.03989C135.821 7.88045 135.875 7.66785 135.928 7.50841C135.928 7.50841 135.928 7.50841 136.035 7.45526C136.411 7.50841 136.411 7.34896 136.357 7.13637C136.357 7.08322 136.357 7.08322 136.357 7.08322C136.357 6.92378 136.518 6.87063 136.732 6.97693C136.732 6.97693 136.732 6.97693 136.625 6.76433C136.518 6.60489 136.732 6.60489 136.786 6.55174C136.786 6.55174 136.946 6.76433 137 6.55174C137 6.49859 137 6.49859 137 6.49859C136.893 6.44544 136.786 6.39229 136.786 6.39229C136.786 6.39229 136.839 6.1797 136.946 6.02025C136.946 6.02025 136.946 6.02025 136.893 5.80766C136.893 5.75451 136.839 5.70136 136.839 5.64822C136.839 5.59507 136.839 5.59507 136.839 5.59507C136.893 5.54192 136.893 5.48877 136.839 5.48877C136.786 5.48877 136.518 5.48877 136.464 5.38247C136.411 5.27618 136.518 5.01044 136.464 4.95729C136.25 5.11673 136.089 5.11673 135.928 4.90414C135.768 4.74469 135.768 4.74469 135.768 4.74469C135.553 4.90414 135.392 4.90414 135.392 4.85099C135.392 4.79784 135.125 4.58525 134.91 4.47895C134.91 4.47895 134.91 4.47895 134.749 4.74469C134.642 4.90414 134.642 4.90414 134.642 4.90414C134.374 4.79784 134.214 4.6384 134.267 4.6384C134.321 4.6384 134.428 4.5321 134.428 4.5321C134.321 4.5321 134.214 4.5321 134.106 4.58525C134.053 4.58525 134.053 4.58525 134.053 4.58525C133.999 4.58525 133.946 4.58525 133.892 4.5321C133.839 4.47895 133.678 4.5321 133.678 4.47895C133.678 4.4258 133.571 4.31951 133.517 4.4258C133.463 4.5321 133.196 4.47895 133.088 4.31951C133.088 4.31951 133.088 4.31951 132.981 4.21321C132.928 4.16006 132.928 4.16006 132.928 4.16006C132.82 4.16006 132.66 4.16006 132.553 4.21321C132.445 4.26636 131.963 4.16006 131.91 4.21321C131.802 4.26636 131.534 4.37265 131.481 4.21321C131.481 4.21321 131.481 4.21321 131.374 4.10691C131.267 4.00062 131.267 4.00062 131.267 4.00062C131.106 4.00062 130.891 4.00062 130.838 4.05376C130.731 4.10691 130.57 3.89432 130.463 3.89432C130.356 3.89432 130.088 3.94747 130.034 4.00062C129.981 4.05376 129.82 4.05376 129.766 4.00062C129.713 3.89432 129.552 3.68173 129.445 3.73487C129.338 3.78802 129.123 3.73487 129.016 3.68172C128.962 3.62858 128.695 3.73487 128.695 3.73487C128.695 3.73487 128.695 3.73487 128.695 3.68172C128.695 3.57543 128.695 3.57543 128.695 3.57543C128.587 3.57543 128.373 3.68173 128.159 3.73487C128.159 3.73487 128.159 3.73487 128.159 3.46913C128.105 3.46913 127.891 3.41598 127.73 3.36283C127.516 3.30969 126.819 3.41598 126.658 3.41598C126.658 3.41598 126.658 3.41598 126.551 3.46913C126.283 3.46913 126.23 3.62858 126.23 3.41598L126.069 3.36283C125.908 3.57543 125.64 3.41598 125.64 3.36283C125.48 3.20339 125.265 3.41598 125.158 3.25654C125.104 3.20339 125.104 3.20339 125.104 3.20339C124.837 3.25654 124.622 3.36283 124.569 3.36283C124.515 3.36283 124.354 3.25654 124.194 3.15024C124.033 3.04394 123.551 3.20339 123.551 3.20339C123.551 2.93765 123.551 2.93765 123.551 2.93765C123.336 2.9908 122.961 2.9908 122.8 2.8845C122.8 2.8845 122.8 2.8845 122.64 3.09709C122.479 3.15024 122.479 3.15024 122.479 3.15024C122.318 3.09709 122.104 2.9908 121.997 2.93765C121.997 2.93765 121.997 2.93765 121.889 2.93765C121.836 2.93765 121.836 2.93765 121.836 2.93765C121.782 2.93765 121.675 2.93765 121.568 2.93765C121.461 2.93765 121.032 2.93765 120.925 2.93765C120.818 2.93765 120.496 2.83135 120.496 2.8845C120.443 2.93765 120.335 2.9908 120.335 2.93765C120.335 2.93765 120.335 2.93765 120.282 2.8845C120.228 2.83135 120.228 2.83135 120.228 2.83135C120.175 2.7782 120.175 2.7782 120.121 2.83135C120.068 2.8845 120.068 2.93765 120.014 2.9908C120.014 2.9908 120.014 2.9908 119.96 2.9908C119.8 2.8845 119.8 2.8845 119.8 2.8845C119.585 2.83135 119.317 2.7782 119.264 2.7782C119.264 2.7782 119.264 2.7782 119.21 2.72505C118.996 2.51246 118.996 2.51246 118.996 2.51246C118.889 2.72505 118.728 2.83135 118.674 2.7782C118.621 2.72505 118.514 2.61876 118.46 2.61876C118.406 2.61876 118.353 2.51246 118.299 2.29987C118.299 2.29987 118.299 2.29987 117.978 2.56561C117.924 2.61876 117.924 2.61876 117.924 2.61876C117.763 2.56561 117.549 2.56561 117.442 2.56561C117.335 2.56561 117.12 2.61876 117.12 2.56561C117.12 2.51246 116.799 2.51246 116.745 2.51246C116.692 2.51246 116.585 2.45931 116.638 2.24672C116.638 2.24672 116.638 2.24672 116.317 2.51246C116.263 2.51246 116.102 2.45931 115.995 2.40616C115.942 2.40616 115.942 2.40616 115.942 2.40616C115.888 2.35301 115.62 2.29987 115.406 2.24672C115.138 2.19357 114.548 2.45931 114.495 2.45931C114.441 2.45931 114.12 2.40616 113.959 2.35301C113.798 2.29987 112.995 2.35301 112.834 2.35301C112.834 2.35301 112.834 2.35301 112.78 2.29987C112.512 2.24672 112.512 2.24672 112.512 2.24672C112.352 2.29987 112.191 2.35301 112.084 2.40616C112.084 2.40616 112.084 2.40616 111.976 2.40616C111.816 2.40616 111.816 2.40616 111.816 2.40616C111.655 2.35301 111.441 2.24672 111.333 2.24672C111.226 2.24672 110.798 2.19357 110.583 2.19357C110.583 2.19357 110.583 2.19357 110.369 2.19357C110.315 2.19357 110.315 2.19357 110.315 2.19357C110.262 2.14042 110.155 2.19357 110.155 2.24672C110.155 2.29987 109.887 2.24672 109.833 2.24672C109.78 2.19357 109.619 2.14042 109.565 2.14042C109.512 2.14042 109.297 2.24672 109.244 2.24672C109.19 2.24672 108.815 2.08727 108.654 2.08727C108.654 2.08727 108.654 2.08727 108.601 2.14042C108.493 2.29987 108.333 1.98098 108.226 2.19357C108.172 2.29987 108.172 2.29987 108.172 2.29987C107.958 2.19357 107.743 2.19357 107.69 2.19357C107.636 2.24672 107.475 2.29987 107.422 2.29987C107.422 2.24672 107.315 2.19357 107.315 2.19357C107.315 2.19357 107.154 2.19357 107.1 2.14042C107.047 2.08727 106.618 2.08727 106.297 2.03412C106.297 2.03412 106.297 2.03412 105.975 2.14042C105.707 2.19357 105.386 2.24672 105.064 2.03412C104.903 1.92783 104.903 1.92783 104.903 1.92783C104.635 1.98098 104.368 2.03412 104.368 2.08727C104.314 2.14042 104.153 2.14042 104.1 2.03412C103.992 1.92783 103.617 2.14042 103.617 2.08727C103.617 2.03412 103.51 1.92783 103.457 2.03412C103.457 2.08727 103.349 2.19357 103.296 2.08727C103.242 1.98098 102.814 2.14042 102.599 2.08727C102.599 2.08727 102.599 2.08727 102.385 2.14042C102.117 2.03412 102.117 2.03412 102.117 2.03412C101.796 1.92783 101.474 1.87468 101.42 1.87468C101.42 1.92783 101.313 1.98098 101.26 1.92783C101.206 1.87468 101.099 1.76838 101.045 1.76838C100.831 1.92783 100.831 1.92783 100.831 1.92783C100.563 1.92783 100.188 1.87468 100.027 1.92783C99.8665 1.92783 99.2771 1.87468 99.1699 1.98098C99.1699 1.98098 99.1699 1.98098 99.0092 1.82153C99.0092 1.76838 98.7949 1.87468 98.6877 1.87468C98.3662 1.87468 98.3662 1.87468 98.3662 1.87468C97.9911 1.87468 97.4553 1.82153 97.2409 1.76838C97.2409 1.76838 97.2409 1.76838 97.0266 1.98098C96.973 2.03412 96.973 2.03412 96.973 2.03412C96.8658 2.03412 96.6515 1.98098 96.5443 1.98098C96.4372 1.98098 96.1693 2.03412 96.1693 1.98098C96.1693 1.92783 95.7942 1.92783 95.687 2.08727C95.687 2.08727 95.687 2.08727 95.4727 1.92783C95.4191 1.87468 95.4191 1.87468 95.4191 1.87468C95.2583 1.92783 95.044 1.92783 94.9368 1.92783C94.8297 1.92783 94.5617 1.98098 94.4546 1.98098C94.4546 1.98098 94.4546 1.98098 94.3474 1.98098C94.2938 1.98098 94.1867 1.98098 94.1331 1.98098C94.0795 1.98098 93.9723 1.92783 93.9187 1.92783C93.8652 1.92783 93.8652 1.92783 93.8652 1.92783C93.8116 1.92783 93.7044 1.92783 93.5972 1.92783C93.4901 1.92783 93.2757 1.98098 93.115 2.08727C93.115 2.08727 93.115 2.08727 93.115 1.87468C93.0614 1.87468 92.7399 1.92783 92.5256 2.03412C92.5256 2.03412 92.5256 2.03412 92.3112 2.03412C92.1505 2.03412 92.1505 2.03412 92.1505 2.03412C91.9361 1.92783 91.7218 1.87468 91.6682 1.82153C91.6146 1.82153 91.4539 1.87468 91.3467 2.03412C91.3467 2.03412 91.3467 2.03412 91.1324 1.98098C91.0252 1.92783 90.8109 1.92783 90.7573 1.98098C90.543 2.03412 90.4894 1.71523 90.3286 1.76838C90.1679 1.82153 90.1679 1.82153 90.1679 1.82153C89.9536 1.82153 89.6856 1.87468 89.5785 1.92783C89.5785 1.92783 89.5785 1.92783 89.5249 1.87468C89.3106 1.71523 89.3106 1.71523 89.3106 1.71523C89.0426 1.82153 88.8283 1.87468 88.7747 1.82153C88.7211 1.76838 88.5604 1.71523 88.5068 1.76838C88.4532 1.82153 88.2925 1.98098 88.2925 1.98098C88.2925 1.98098 88.1317 1.92783 88.0245 1.87468C87.9174 1.82153 87.328 1.82153 87.1672 1.82153C87.0065 1.82153 86.5242 1.82153 86.3634 1.87468C86.2027 1.92783 85.8812 1.76838 85.774 1.82153C85.4525 1.44949 85.4525 1.44949 85.4525 1.44949C84.9703 1.55579 84.5416 1.71523 84.4344 1.71523C84.3273 1.71523 84.1129 1.66209 84.1129 1.76838C84.1129 1.87468 83.6843 1.66209 83.5771 1.60894C83.4699 1.55579 83.2556 1.60894 83.1484 1.60894C83.0948 1.60894 82.8805 1.55579 82.8269 1.60894C82.8269 1.66209 82.7198 1.71523 82.6662 1.71523C82.6126 1.66209 82.3983 1.55579 82.1839 1.55579C82.1839 1.55579 82.1839 1.55579 82.0232 1.60894L81.5409 1.76838C81.4338 1.71523 81.4338 1.71523 81.4338 1.71523C81.273 1.60894 81.1658 1.60894 81.1658 1.60894C81.1658 1.66209 80.9515 1.76838 80.8443 1.82153C80.8443 1.82153 80.8443 1.82153 80.5764 1.60894C80.5228 1.60894 80.5228 1.60894 80.5228 1.60894C80.4692 1.60894 80.3621 1.66209 80.3085 1.66209C80.2549 1.71523 79.8262 1.66209 79.5583 1.60894C79.4512 1.50264 79.4512 1.50264 79.4512 1.50264C79.344 1.55579 79.2368 1.71523 79.2904 1.87468C79.2904 1.87468 79.2904 1.87468 78.9689 1.71523C78.7546 1.60894 78.7546 1.60894 78.7546 1.60894C78.7546 1.76838 78.7546 1.82153 78.7546 1.71523C78.7546 1.60894 78.3795 1.76838 78.3795 1.76838C78.3795 1.76838 78.2187 1.71523 78.058 1.71523C77.9508 1.71523 77.4686 1.82153 77.3078 1.82153C77.1471 1.82153 76.8791 1.71523 76.8256 1.71523C76.772 1.71523 76.6648 1.87468 76.6112 1.87468C76.6112 1.87468 76.5576 1.82153 76.5041 1.76838C76.4505 1.71523 76.1826 1.66209 76.0754 1.71523C76.0754 1.71523 76.0754 1.71523 75.9682 1.71523C75.9146 1.71523 75.8075 1.60894 75.8075 1.66209C75.6467 1.76838 75.6467 1.76838 75.6467 1.76838C75.486 1.71523 75.1645 1.71523 74.9501 1.76838C74.9501 1.76838 74.9501 1.76838 74.7358 1.82153C74.6822 1.82153 74.6822 1.82153 74.6822 1.82153C74.575 1.82153 74.4679 1.76838 74.4143 1.76838C74.3607 1.71523 74.1464 1.71523 74.0392 1.66209C73.9856 1.60894 73.5034 1.71523 73.289 1.71523C73.289 1.71523 73.289 1.71523 73.0747 1.71523C72.914 1.71523 72.914 1.71523 72.914 1.71523C72.6996 1.76838 72.5389 1.76838 72.4853 1.76838C72.4317 1.76838 72.2174 1.66209 72.0566 1.66209C72.0566 1.66209 72.0566 1.66209 71.9494 1.71523C71.8423 1.76838 71.7351 1.92783 71.7351 1.66209C71.7351 1.66209 71.6279 1.66209 71.5744 1.66209C71.3064 1.66209 70.9849 1.76838 70.717 1.71523C70.5027 1.66209 70.5027 1.66209 70.5027 1.66209C70.3419 1.71523 70.1812 1.76838 70.1276 1.76838C70.074 1.76838 69.8597 1.71523 69.7525 1.71523C69.6453 1.66209 68.9488 1.71523 68.7344 1.76838C68.5201 1.82153 67.9843 1.55579 67.8771 1.55579C67.7699 1.55579 67.2877 1.50264 67.1269 1.44949C66.9662 1.39634 66.5911 1.66209 66.5911 1.66209C66.5375 1.66209 66.3232 1.50264 66.216 1.60894C66.216 1.60894 66.216 1.60894 66.1088 1.60894C66.0017 1.60894 65.8409 1.50264 65.7337 1.55579C65.5194 1.60894 65.5194 1.60894 65.5194 1.60894C65.4122 1.50264 65.2515 1.44949 65.1979 1.44949C65.1979 1.44949 65.1979 1.44949 65.1443 1.50264C65.0372 1.55579 65.0372 1.55579 65.0372 1.55579C64.93 1.60894 64.8228 1.66209 64.7692 1.60894C64.7157 1.55579 64.6085 1.50264 64.5549 1.55579C64.5549 1.60894 64.2334 1.60894 64.1798 1.55579C64.1262 1.50264 63.9119 1.44949 63.8583 1.50264C63.8047 1.55579 63.644 1.71523 63.644 1.71523C63.4832 1.44949 63.2689 1.66209 63.0546 1.66209C62.9474 1.66209 62.9474 1.66209 62.9474 1.66209C62.7866 1.60894 62.6795 1.60894 62.5723 1.60894C62.5187 1.60894 62.358 1.60894 62.2508 1.66209C62.1436 1.71523 61.715 1.60894 61.5006 1.60894C61.5006 1.60894 61.5006 1.60894 61.2863 1.55579C61.1791 1.55579 61.0184 1.66209 60.9112 1.60894C60.6969 1.55579 60.6969 1.55579 60.6969 1.55579C60.4825 1.60894 60.2146 1.60894 60.0539 1.66209C60.0539 1.66209 60.0539 1.66209 59.8931 1.66209C59.6252 1.60894 59.6252 1.60894 59.6252 1.60894C59.3037 1.60894 59.0358 1.55579 58.9822 1.55579C58.9286 1.55579 58.7679 1.66209 58.7143 1.71523C58.6607 1.82153 58.2856 1.66209 58.232 1.71523C58.1785 1.76838 58.0177 1.82153 57.9641 1.82153C57.9641 1.76838 58.0713 1.60894 58.0713 1.60894C57.9105 1.55579 57.9105 1.55579 57.9105 1.55579C57.8569 1.66209 57.8034 1.76838 57.7498 1.82153C57.6962 1.82153 57.589 1.76838 57.5354 1.76838C57.4819 1.71523 57.3211 1.66209 57.2675 1.71523C57.2139 1.76838 57.0532 1.71523 57.0532 1.55579C57.0532 1.55579 57.0532 1.55579 56.7853 1.66209C56.8389 1.76838 56.7317 1.82153 56.5173 1.76838C56.3566 1.71523 55.8743 1.92783 55.8743 1.92783C55.8743 1.92783 55.8743 1.92783 55.8743 1.87468C55.8743 1.66209 55.8743 1.66209 55.8743 1.66209C55.7136 1.71523 55.5528 1.76838 55.4993 1.82153C55.4457 1.87468 55.3385 1.92783 55.2849 1.87468C55.2313 1.82153 55.1242 1.71523 55.017 1.76838C54.9098 1.82153 54.4276 1.71523 54.3204 1.71523C54.2133 1.71523 53.8382 1.87468 53.8382 1.92783C53.8382 1.98098 53.4631 1.87468 53.4095 1.82153C53.3559 1.76838 53.088 1.71523 53.0344 1.92783C53.0344 1.92783 53.0344 1.92783 52.7665 1.87468C52.4986 1.82153 52.9272 1.66209 52.7129 1.66209C52.4986 1.66209 52.4986 1.66209 52.4986 1.66209C52.2842 1.66209 51.7484 1.66209 51.3197 1.66209C51.3197 1.66209 51.3197 1.66209 50.9446 1.66209C50.7303 1.66209 50.5696 1.66209 50.3552 1.66209C50.1945 1.66209 50.1945 1.66209 50.1945 1.66209C50.0337 1.71523 49.7658 1.60894 49.6051 1.50264C49.6051 1.50264 49.6051 1.50264 49.4443 1.71523C49.3371 1.82153 49.3371 1.82153 49.3371 1.82153C49.3371 1.71523 49.23 1.55579 49.1228 1.50264C49.1228 1.50264 49.1228 1.50264 49.0156 1.60894C48.9085 1.76838 48.9085 1.76838 48.9085 1.76838C48.7477 1.71523 48.5334 1.66209 48.3726 1.66209C48.2119 1.66209 47.8368 1.55579 47.7296 1.50264C47.6225 1.44949 47.2474 1.60894 47.1402 1.60894C47.033 1.60894 46.658 1.66209 46.5508 1.66209C46.4972 1.60894 46.2293 1.55579 46.0685 1.50264C46.0685 1.50264 46.0685 1.50264 45.9614 1.44949C45.6935 1.3432 45.6935 1.3432 45.6935 1.3432C45.5863 1.50264 45.4791 1.55579 45.4791 1.50264C45.4791 1.44949 45.3184 1.29005 45.1576 1.3432C44.9969 1.39634 44.5146 1.50264 44.4074 1.50264C44.2467 1.50264 43.7644 1.29005 43.4965 1.29005C43.4965 1.29005 43.4965 1.29005 43.2822 1.29005C43.0679 1.29005 42.8535 1.2369 42.5856 1.29005C42.4249 1.29005 42.4249 1.29005 42.4249 1.29005C42.3177 1.2369 42.1033 1.2369 41.9426 1.2369C41.9426 1.2369 41.9426 1.2369 41.889 1.18375C41.6747 1.07745 41.6211 1.1306 41.5675 1.29005C41.4603 1.29005 41.1388 1.18375 40.9245 1.0243C40.9245 1.0243 40.9245 1.0243 40.603 1.2369C40.5494 1.2369 40.5494 1.2369 40.5494 1.2369C40.4958 1.2369 40.4958 1.18375 40.4958 1.1306C40.4958 1.07745 40.0672 1.1306 39.96 1.18375C39.8528 1.2369 39.4777 1.18375 39.3706 1.18375C39.2634 1.18375 38.9419 1.07745 38.8347 1.07745C38.7276 1.07745 38.4061 0.971156 38.2453 1.0243C38.0846 1.07745 37.4952 1.0243 37.388 1.0243C37.3344 1.07745 37.1201 1.18375 37.1201 1.1306C37.1201 1.07745 37.0129 1.0243 36.9593 1.1306C36.9593 1.1306 36.9593 1.1306 36.9057 1.1306C36.7986 1.18375 36.7986 1.18375 36.7986 1.18375C36.6914 1.18375 36.3699 1.1306 36.1556 1.1306C36.1556 1.1306 36.1556 1.1306 36.0484 1.07745C35.8876 0.971156 35.8876 0.971156 35.8876 0.971156C35.7805 1.0243 35.6197 1.07745 35.5661 1.07745C35.5126 1.07745 35.3518 1.0243 35.2982 0.971156C35.2446 0.971156 34.9231 1.0243 34.7624 1.07745C34.6016 1.1306 34.1194 0.971156 34.0658 0.971156C34.0122 0.971156 33.7979 1.18375 33.7979 1.1306C33.7979 1.07745 33.6371 0.918008 33.4764 0.918008C33.4764 0.918008 33.4764 0.918008 33.3692 0.918008C33.2085 0.918008 33.2085 0.918008 33.2085 0.918008C33.0477 0.971156 32.7798 1.0243 32.619 1.0243C32.4583 1.0243 32.0832 0.86486 31.976 0.86486C31.8689 0.86486 31.601 0.918008 31.601 0.86486C31.601 0.811711 31.4938 0.652266 31.4938 0.652266C31.333 0.811711 31.1723 0.971156 30.9044 0.758563C30.7972 0.705414 30.7972 0.705414 30.7972 0.705414C30.6364 0.758563 30.4221 0.758563 30.3685 0.758563C30.3149 0.758563 30.047 0.811711 29.9934 0.811711C29.9934 0.811711 29.9934 0.811711 29.9399 0.811711C29.7791 0.758563 29.7791 0.758563 29.7791 0.758563C29.5648 0.705414 29.2969 0.705414 29.1361 0.705414C29.1361 0.705414 29.1361 0.705414 28.9754 0.705414C28.8682 0.705414 28.8682 0.705414 28.8682 0.705414C28.7074 0.599118 28.5467 0.545969 28.4931 0.599118C28.4395 0.652266 28.2788 0.758563 28.2252 0.705414C28.1716 0.652266 27.8501 0.545969 27.7965 0.599118C27.7429 0.652266 27.475 0.758563 27.2071 0.758563C27.2071 0.758563 27.2071 0.758563 27.0463 0.811711C26.8856 0.86486 26.8856 0.86486 26.8856 0.86486C26.7784 0.811711 26.5641 0.758563 26.4033 0.758563C26.4033 0.758563 26.4033 0.758563 26.2962 0.705414C26.2426 0.705414 26.2426 0.705414 26.2426 0.705414C26.1354 0.705414 25.8675 0.652266 25.5996 0.599118C25.5996 0.599118 25.5996 0.599118 25.3317 0.758563C25.1709 0.86486 25.1709 0.86486 25.1709 0.86486C24.903 0.86486 24.6887 0.758563 24.6887 0.652266C24.6887 0.545969 24.3672 0.599118 24.26 0.652266C24.2064 0.705414 23.8849 0.705414 23.7777 0.705414C23.6706 0.705414 23.4027 0.599118 23.4027 0.599118C23.4027 0.599118 23.2955 0.652266 23.2419 0.705414C23.1883 0.758563 22.7597 0.811711 22.8132 0.758563C22.8668 0.705414 22.8668 0.652266 22.6525 0.705414C22.6525 0.705414 22.6525 0.705414 22.4381 0.545969C22.331 0.492821 22.0631 0.545969 21.9023 0.545969C21.7416 0.545969 21.7416 0.545969 21.7416 0.545969C21.6344 0.652266 21.5272 0.705414 21.4736 0.705414C21.4201 0.705414 21.1521 0.705414 20.8842 0.758563C20.8842 0.758563 20.8842 0.758563 20.7235 0.545969C20.6699 0.492821 20.6699 0.492821 20.6699 0.492821C20.402 0.599118 20.2412 0.599118 20.2412 0.545969C20.2412 0.492821 20.2948 0.333376 20.2948 0.333376C20.2948 0.333376 20.0805 0.280227 19.9197 0.280227C19.759 0.280227 19.2767 0.386524 19.2231 0.386524C19.2231 0.386524 19.2231 0.386524 19.1695 0.386524C19.0088 0.439672 19.0088 0.439672 19.0088 0.439672C18.7945 0.439672 18.5801 0.439672 18.473 0.492821C18.3658 0.545969 18.0443 0.280227 17.83 0.120782C17.83 0.120782 17.83 0.120782 17.6156 0.17393C17.3477 0.280227 17.3477 0.280227 17.3477 0.280227C17.187 0.17393 17.0798 0.0676336 17.0262 0.0676336C16.9726 0.0676336 16.919 0.0676336 16.8654 0.0144852C16.8119 -0.0386632 16.544 0.0676336 16.4368 0.120782C16.3832 0.17393 16.0617 0.227079 16.1153 0.120782C16.1689 0.0144852 15.8474 0.120782 15.7938 0.0676336C15.7402 0.0144852 15.4723 0.0676336 15.4187 0.120782C15.3115 0.17393 14.99 0.17393 14.99 0.120782C14.99 0.0676336 14.7221 0.0144852 14.2399 0.0144852C14.2399 0.0144852 14.2398 0.0144852 14.0791 0.120782C13.7576 0.333376 13.7576 0.333376 13.7576 0.333376C13.704 0.120782 13.5968 0.0676336 13.4361 0.17393C13.4361 0.17393 13.4361 0.17393 13.1682 0.0676336C12.8467 -0.0386632 12.4716 0.0144852 12.1501 0.17393C12.0429 0.227079 11.8286 0.333376 11.6143 0.227079C11.5071 0.17393 11.2392 0.280227 11.0784 0.386524C10.9713 0.439672 11.2928 0.492821 11.0784 0.545969C11.0248 0.545969 10.9177 0.439672 10.8641 0.492821C10.7569 0.492821 10.5426 0.545969 10.5426 0.599118C10.4354 0.811711 10.4354 0.811711 10.4354 0.811711C10.1675 0.86486 9.84599 0.971156 9.68524 1.0243C9.52449 1.07745 8.98866 1.1306 8.93507 1.1306C8.82791 1.1306 8.55998 1.18375 8.45282 1.18375C8.39923 1.18375 8.23848 1.1306 8.23848 1.2369C8.23848 1.3432 7.91698 1.18375 7.8634 1.18375C7.80981 1.18375 7.54189 1.18375 7.38113 1.18375C7.16681 1.18375 6.68456 1.39634 6.63097 1.39634C6.57739 1.39634 6.41664 1.39634 6.41664 1.44949C6.41664 1.50264 6.25589 1.66209 6.04155 1.60894C5.82721 1.55579 5.23779 1.76838 5.02347 1.82153C5.02347 1.82153 5.02347 1.82153 4.96988 2.08727C4.91629 2.19357 4.59479 2.24672 4.5412 2.45931C4.48763 2.56561 4.48763 2.56561 4.48763 2.56561C4.2733 2.67191 4.05896 2.72505 4.00537 2.72505C3.95178 2.72505 3.89821 2.83135 3.9518 2.93765C3.73746 2.9908 3.73746 2.9908 3.73746 2.9908C3.79103 3.09709 3.84462 3.30969 3.84462 3.41598C3.84462 3.41598 3.84462 3.41598 3.84462 3.52228C3.79105 3.73487 3.79103 3.73487 3.79103 3.73487C3.73746 4.00062 3.63029 4.21321 3.57671 4.21321C3.57671 4.21321 3.57671 4.21321 3.52312 4.21321C3.46954 4.21321 3.46953 4.21321 3.46953 4.21321C3.41595 4.21321 3.36237 4.21321 3.36237 4.26636C3.36237 4.31951 3.46954 4.37265 3.57671 4.4258C3.57671 4.4258 3.57671 4.4258 3.68387 4.47895C3.68387 4.47895 3.68387 4.5321 3.68387 4.58525C3.68387 4.58525 3.63029 4.58525 3.57671 4.58525L3.52312 4.5321C3.41595 4.5321 3.41595 4.5321 3.41595 4.5321C3.30879 4.5321 3.20161 4.5321 3.20161 4.58525C3.20161 4.6384 3.09445 4.79784 2.98729 4.90414C2.98729 4.90414 2.98729 4.90414 2.88011 5.01043C2.82654 5.06358 2.82654 5.06358 2.82654 5.06358C2.82654 5.22303 2.9337 5.27618 3.09445 5.22303C3.2552 5.16988 3.63029 5.22303 3.52312 5.48877C3.36237 5.80766 3.36237 6.60489 3.46953 6.60489C3.63028 6.65803 3.95178 6.76433 3.89821 6.76433C3.84462 6.76433 3.68387 6.87063 3.57671 6.97693C3.57671 6.97693 3.57671 6.97693 3.52312 7.08322C3.36237 7.34896 3.30879 6.92378 3.14804 7.08322C3.09445 7.13637 3.09445 7.13637 3.09445 7.13637C2.9337 7.18952 2.82654 7.29582 2.88011 7.40211C2.9337 7.50841 2.77295 7.9336 2.71936 8.14619C2.71936 8.14619 2.71936 8.14619 2.82654 8.35878C2.9337 8.57138 2.71936 8.94342 2.45145 8.94342C2.23711 8.94342 2.23712 8.94342 2.23712 8.94342C1.96919 8.99657 1.86203 9.04971 1.96919 9.04971C2.07637 9.04971 2.45145 9.15601 2.45145 9.20916C2.45145 9.26231 2.34428 9.52805 2.18353 9.4749C2.18353 9.4749 2.18353 9.4749 2.02278 9.4749C1.9156 9.4749 1.9156 9.4749 1.9156 9.4749C1.80844 9.4749 1.70128 9.4749 1.5941 9.52805C1.48694 9.5812 1.05827 9.52805 0.897522 9.52805C0.683197 9.52805 0.468857 9.95324 0.468857 10.0064C0.468857 10.0064 0.468857 10.0064 0.576019 10.0064C0.790359 9.95324 0.897522 10.1127 0.843933 10.2721C0.790359 10.3784 0.736771 10.4847 0.629608 10.5379C0.415268 10.6442 0.415268 10.6442 0.415268 10.6442C0.415268 10.8568 0.361679 10.9631 0.308105 10.9099C0.308105 10.9099 0.30809 10.9099 0.254517 10.9099C0.200928 10.9099 0.0937653 10.9099 0.0401764 10.9631C-0.0133972 11.0162 -0.0133972 11.0694 0.0401764 11.1225C0.147354 11.2288 0.254517 11.3351 0.468857 11.2819C0.52243 11.2819 0.576019 11.3351 0.576019 11.3882C0.576019 11.4414 0.52243 11.4945 0.468857 11.4945C0.308105 11.5477 0.308105 11.5477 0.308105 11.5477C0.147354 11.6008 0.147354 11.7071 0.308105 11.8134C0.308105 11.8134 0.308105 11.8134 0.468857 11.8134C0.629608 11.8134 0.629608 11.8134 0.629608 11.8134C0.843948 11.7071 1.00468 11.7603 1.00468 11.9197C1.00468 11.9197 1.00468 11.9197 1.05827 12.026C1.11185 12.1855 1.11186 12.1855 1.11186 12.1855C1.27261 12.2386 1.54053 12.2918 1.64769 12.2918C1.75485 12.2918 1.75485 12.6107 1.64769 12.8232C1.59412 12.9827 1.43336 13.5673 1.54053 13.6205C1.64769 13.6736 1.54053 13.9925 1.48694 14.0457C1.43335 14.0988 1.32619 14.3114 1.37978 14.3114C1.37978 14.3114 1.37978 14.3114 1.48694 14.3646C1.5941 14.4177 1.70128 14.2051 1.80844 14.3646C1.91562 14.3646 2.07635 14.3114 2.18353 14.2583C2.2907 14.2051 2.77295 14.3114 2.9337 14.3114C3.14803 14.3646 3.73746 14.2051 3.89821 14.0988C4.05896 14.0457 4.64838 14.0457 4.75554 14.0457C4.86272 14.0457 5.1842 13.8862 5.23779 13.9394C5.29138 13.9925 5.34496 14.2051 5.34496 14.3114C5.34496 14.4177 4.96988 14.4709 4.86272 14.4709C4.86272 14.4709 4.8627 14.4709 4.80913 14.524C4.70195 14.5771 4.80913 14.7897 4.5412 14.7366C4.48763 14.7366 4.48763 14.7366 4.48763 14.7366C4.43404 14.8429 4.27328 14.896 4.16612 14.7897C4.16612 14.7897 4.16612 14.7897 4.16612 15.0555C4.16612 15.1086 4.16612 15.1086 4.16612 15.1086C4.00537 15.1618 3.79103 15.1618 3.63028 15.1618C3.63028 15.1618 3.63029 15.1618 3.57671 15.3212C3.57671 15.4275 3.57671 15.4275 3.57671 15.4275C3.52312 15.587 3.57671 15.6401 3.63028 15.587C3.68387 15.5338 4.00537 15.5338 4.05896 15.5338C4.11253 15.587 4.32687 15.6401 4.43404 15.5338C4.54121 15.4807 4.86272 15.2149 4.86272 15.2681C4.80913 15.4275 4.64838 15.587 4.64838 15.7464C4.70197 15.9059 4.70197 15.9059 4.70197 15.9059C4.91629 16.1185 5.02347 16.2779 4.91631 16.331C4.86272 16.3842 4.59479 16.3842 4.48763 16.2779C4.48763 16.2779 4.48763 16.2779 4.43404 16.1716C4.38046 16.1185 4.38046 16.1185 4.38046 16.1185C4.38046 16.0122 4.32687 15.959 4.32687 15.959C4.16612 16.1185 4.16612 16.1185 4.16612 16.1185C4.00537 16.0122 3.79103 15.959 3.73746 16.0122C3.68387 16.0122 3.68387 16.1716 3.89821 16.331C3.89821 16.331 3.89821 16.331 3.79103 16.5436C3.73746 16.5968 3.73746 16.5968 3.73746 16.5968C3.57671 16.5436 3.41595 16.6499 3.36237 16.8625C3.30878 17.022 3.20161 17.2346 3.20161 17.2346C3.20161 17.2346 3.41595 17.2877 3.52312 17.1814C3.52312 17.1814 3.52312 17.1814 3.63028 17.1283C3.68387 17.1283 3.79103 17.1814 3.79103 17.2346C3.84462 17.2877 3.84462 17.4472 3.79103 17.5003C3.73746 17.5535 3.41595 17.6066 3.46953 17.6598C3.52312 17.7129 3.79103 17.9255 3.73746 17.9786C3.68387 18.0318 3.57671 18.1912 3.52312 18.1381C3.52312 18.1381 3.52312 18.1381 3.46953 18.1381C3.30878 18.0849 3.14804 18.2444 2.98729 18.5101C2.9337 18.6164 2.9337 18.6164 2.9337 18.6164C3.04086 18.7227 3.09445 18.829 3.14804 18.8822C3.20161 18.8822 3.20161 18.9885 3.09445 19.0416C3.09445 19.0416 3.09445 19.0416 3.04086 19.0416C2.82654 19.0416 2.77295 19.0948 2.88011 19.2542C2.88011 19.3074 2.9337 19.3605 2.9337 19.3605C2.82652 19.4137 2.82654 19.4137 2.82654 19.4137C2.82654 19.5199 2.98729 19.5731 3.09445 19.5199C3.09445 19.5199 3.09445 19.5199 3.14804 19.4137C3.14804 19.3605 3.14804 19.3605 3.14804 19.3605C3.41595 19.3605 3.41595 19.4137 3.14804 19.5199C3.14804 19.5199 3.14804 19.5199 3.2552 19.7325C3.30879 19.8388 3.30879 19.8388 3.30879 19.8388C3.36237 19.9983 3.36237 20.1046 3.30879 20.1577C3.2552 20.2109 3.14803 20.4235 3.20161 20.5298C3.2552 20.6361 3.63028 20.7424 3.63028 20.7955C3.63028 20.7955 3.63029 20.7955 3.57671 20.8487C3.52312 20.955 3.52312 20.955 3.52312 20.955C3.46954 21.1144 3.46954 21.1675 3.52312 21.1144C3.57671 21.0613 3.84462 21.0081 3.89821 21.0613C3.95178 21.0613 4.21971 21.0613 4.32687 21.0613C4.43404 21.0613 4.64838 21.0613 4.59479 21.1144C4.54121 21.1675 4.38046 21.2738 4.32687 21.327C4.27328 21.3801 4.00537 21.2738 4.00537 21.2738C4.00537 21.2738 3.9518 21.327 3.9518 21.4333C3.9518 21.5396 3.57671 21.4333 3.52312 21.4333C3.46954 21.4333 3.36237 21.4864 3.46953 21.5396C3.57671 21.5927 3.89821 21.699 3.9518 21.6459C3.9518 21.5927 4.11253 21.5396 4.16612 21.5396C4.21971 21.5396 4.38046 21.8053 4.43404 21.8053C4.48763 21.8053 4.70197 21.9116 4.75554 22.0711C4.75554 22.0711 4.75554 22.0711 4.70197 22.2305C4.64838 22.39 4.54121 22.4431 4.38046 22.4963C4.32687 22.4963 4.32687 22.4963 4.32687 22.4963C4.27328 22.5494 4.2733 22.6557 4.38046 22.7089C4.43405 22.8151 4.75554 22.9746 4.80913 23.0277C4.8627 23.0809 4.86272 23.2403 4.86272 23.2403C4.91629 23.2403 4.96988 23.3466 4.96988 23.3466C4.96988 23.3466 4.96988 23.4529 4.86272 23.5061C4.80913 23.5592 4.64838 23.825 4.64838 23.9844C4.64838 23.9844 4.64838 23.9844 4.75554 24.0907C4.96988 24.3033 4.91629 24.4627 4.59479 24.569C4.32687 24.6753 4.32687 24.6753 4.32687 24.6753C4.48763 24.8348 4.64838 25.0474 4.75554 25.1537C4.80913 25.26 5.02347 25.3663 4.86272 25.3663C4.86272 25.3663 4.86272 25.3663 4.86272 25.5789C4.86272 25.6852 4.86272 25.6852 4.86272 25.6852C4.86272 25.7915 4.80913 26.0041 4.80913 26.1103C4.80913 26.1103 4.80913 26.1103 4.70197 26.1635C4.59479 26.2698 4.59479 26.2698 4.59479 26.2698C4.64838 26.3761 4.70197 26.5887 4.75554 26.695C4.75554 26.695 4.75555 26.695 4.64838 26.8013C4.38046 27.1202 4.38046 27.1202 4.38046 27.1202C4.5948 27.2796 4.80913 27.3859 4.80913 27.3859C4.80913 27.3859 4.64838 27.7048 4.38046 28.0237C4.38046 28.0237 4.38046 28.0237 4.16612 28.3426C4.11253 28.4489 4.11255 28.4489 4.11255 28.4489C4.21971 28.3957 4.32687 28.3957 4.38046 28.3957C4.38046 28.3957 4.48763 28.3957 4.59479 28.4489C4.70197 28.502 4.91629 28.6083 4.96988 28.6083C5.02347 28.6083 5.29138 28.6615 5.39854 28.7146C5.39854 28.7146 5.39854 28.7146 5.50571 28.7678C5.66646 28.8209 5.66647 28.8209 5.66647 28.8209C5.82722 28.8209 6.25589 28.8741 6.57739 28.9272C6.8989 28.9804 8.02415 29.0867 8.23848 29.1398C8.23848 29.1398 8.23848 29.1398 8.39923 29.1398C8.55998 29.1398 8.55998 29.1398 8.55998 29.1398C8.77431 29.193 9.20299 29.2461 9.63165 29.2461C9.63165 29.2461 9.63166 29.2461 10.0067 29.2461C10.1675 29.2461 10.1675 29.2461 10.1675 29.2461C10.3282 29.2993 10.5962 29.4587 10.7569 29.565C10.7569 29.565 10.7569 29.565 10.9177 29.3524C10.9177 29.2993 11.2392 29.4056 11.2392 29.4056C11.3463 29.193 11.5071 29.565 11.6143 29.3524C11.6678 29.2993 11.6678 29.2993 11.6678 29.2993C11.8822 29.4056 12.0965 29.4587 12.2037 29.4587C12.3644 29.565 12.3644 29.565 12.3644 29.565C12.5788 29.565 12.8467 29.565 12.9538 29.6181C13.061 29.6713 13.4361 29.565 13.4897 29.565C13.5968 29.565 14.0255 29.6181 14.2399 29.6181C14.4542 29.6181 15.0972 29.7776 15.1508 29.7244C15.2044 29.6713 15.5794 29.8307 15.7938 29.8839C15.7938 29.8839 15.7938 29.8839 15.9545 29.8307C16.1689 29.7776 16.1689 29.7776 16.1689 29.7776C16.4368 29.8307 16.7047 29.8307 16.8654 29.8839C17.0262 29.8839 17.3477 29.9902 17.3477 29.937C17.3477 29.8839 17.6156 29.937 17.7764 30.0433C17.9371 30.1496 18.473 29.9902 18.5801 30.0433C18.5801 30.0433 18.5801 30.0433 18.6337 29.9902C18.848 29.8839 18.848 29.8839 18.848 29.8839C19.0088 29.9902 19.3303 30.0433 19.5446 29.9902C19.5446 29.9902 19.5446 29.9902 19.7054 30.0433C19.8661 30.0965 19.8661 30.0965 19.8661 30.0965C20.0269 30.0433 20.3484 29.9902 20.5627 30.0433C20.5627 30.0433 20.5627 30.0433 20.7235 30.0433C20.8842 30.0433 20.8842 30.0433 20.8842 30.0433C21.0986 30.0965 21.3665 30.0965 21.5272 29.9902C21.5272 29.9902 21.5272 29.9902 21.7416 30.0965C21.9023 30.1496 21.9023 30.1496 21.9023 30.1496C22.1166 30.1496 22.5453 30.1496 22.8132 30.2028C22.8132 30.2028 22.8132 30.2028 23.1347 30.1496C23.3491 30.0965 23.3491 30.0965 23.3491 30.0965C23.617 30.1496 23.8849 30.2559 23.9921 30.2559C24.0992 30.2559 24.3672 30.2028 24.4207 30.2028C24.4743 30.2559 24.7958 30.2028 24.9566 30.2028C25.1173 30.2028 25.5996 30.3091 25.6532 30.2559C25.6532 30.2028 25.7067 30.2028 25.7067 30.3091C25.7067 30.4154 26.0818 30.2028 26.1354 30.2028C26.189 30.2028 26.5641 30.2028 26.7248 30.2559C26.8856 30.3091 27.3143 30.2028 27.4214 30.2559C27.5286 30.2559 27.9573 30.2028 28.118 30.2028C28.2788 30.2028 28.8146 30.2028 28.9754 30.2028C29.1361 30.1496 29.5648 30.3622 29.6184 30.3622C29.6719 30.3622 29.9399 30.3091 29.9934 30.3091C30.1006 30.3091 30.3149 30.3091 30.5293 30.3091C30.7436 30.3091 31.2794 30.2559 31.333 30.2559C31.3866 30.2559 31.5474 30.3091 31.601 30.2559C31.6545 30.2028 32.0832 30.2559 32.244 30.3091C32.4047 30.3091 32.9405 30.3622 33.1549 30.4685C33.1549 30.4685 33.1549 30.4685 33.4228 30.3091C33.5835 30.2028 33.5835 30.2028 33.5835 30.2028C33.9051 30.2028 34.3337 30.2559 34.6016 30.3091C34.6016 30.3091 34.6016 30.3091 34.8696 30.2028C34.9231 30.2028 34.9231 30.2028 34.9231 30.2028C35.0303 30.3091 35.2446 30.3622 35.4054 30.2559C35.5661 30.1496 36.2092 30.3091 36.5307 30.3622C36.8522 30.4154 37.6559 30.2028 37.7095 30.2028C37.7631 30.2028 38.031 30.2559 38.2989 30.2559C38.2989 30.2559 38.2989 30.2559 38.5668 30.1496C38.7276 30.0965 38.7276 30.0965 38.7276 30.0965C38.8347 30.2559 38.9955 30.3091 39.1027 30.2559C39.2098 30.2028 39.5313 30.0965 39.6385 30.1496C39.7457 30.2028 40.0136 30.3622 40.0672 30.3091C40.1208 30.2559 40.4423 30.1496 40.7102 30.1496C40.7102 30.1496 40.7102 30.1496 40.8709 30.2028C41.0853 30.2559 41.246 30.2559 41.4068 30.2028C41.5675 30.0965 41.5675 30.0965 41.5675 30.0965C41.7283 30.1496 41.889 30.2028 41.9426 30.2028C41.9962 30.2028 42.3177 30.0965 42.3713 30.0965C42.4249 30.0965 42.7464 30.1496 42.7999 30.2028C42.9071 30.2559 43.175 30.2028 43.2822 30.2028C43.3894 30.2028 43.7109 30.2028 43.818 30.2028C43.9252 30.2028 44.1931 30.1496 44.1931 30.0965C44.1931 30.0433 44.2467 29.8839 44.3003 29.8839C44.3539 29.8839 44.461 29.937 44.461 29.8839C44.461 29.8307 44.6754 29.7776 44.7289 29.8307C44.7289 29.8307 44.729 29.8307 44.7825 29.937C44.8361 29.9902 44.9969 30.0433 45.104 30.0965C45.4255 30.2559 45.4255 30.2559 45.747 30.0433C45.8006 29.9902 45.8006 29.9902 45.8006 29.9902C45.8542 29.937 46.015 29.9902 46.0685 30.0433C46.1221 30.0965 46.4436 30.2028 46.5508 30.0965C46.658 30.0433 46.9259 29.8839 46.9259 29.937C46.9259 29.9902 47.0866 30.2028 47.2474 30.2028C47.4081 30.2028 48.1047 30.1496 48.587 30.2559C48.587 30.2559 48.587 30.2559 49.0692 30.0965C49.6051 30.4154 49.6051 30.4154 49.6051 30.4154C49.873 30.5217 50.0873 30.5748 50.1409 30.5217C50.1945 30.4685 50.4088 30.5748 50.4624 30.5748C50.4624 30.5748 50.7303 30.628 50.9446 30.5748C51.159 30.5748 51.802 30.4685 51.8556 30.4685C51.9092 30.4685 52.2307 30.5748 52.3378 30.628C52.445 30.6811 52.9273 30.6811 53.1416 30.7874C53.1416 30.7874 53.1416 30.7874 53.4095 30.5748C53.5703 30.4685 53.5702 30.4685 53.5702 30.4685C53.731 30.5217 53.9453 30.5217 54.0525 30.4685C54.1597 30.4154 54.4812 30.628 54.5883 30.628C54.6955 30.628 55.017 30.5217 55.017 30.4685C55.017 30.4154 55.1778 30.3091 55.3385 30.4154C55.3385 30.4154 55.3385 30.4154 55.4457 30.5217C55.5528 30.628 55.5528 30.628 55.5528 30.628C55.7136 30.5748 55.8744 30.5748 55.9279 30.5748C55.9815 30.628 56.1959 30.628 56.1959 30.5748C56.1959 30.5217 56.2494 30.4685 56.303 30.6811C56.303 30.6811 56.303 30.6811 56.5173 30.5748C56.6245 30.5217 56.6245 30.5217 56.6245 30.5217C56.7317 30.5748 56.8924 30.5748 56.946 30.5748C56.9996 30.5748 57.3211 30.4685 57.3747 30.5217C57.4819 30.5217 57.8034 30.5217 57.9105 30.4685C58.0177 30.4154 58.3392 30.4685 58.4999 30.4154C58.4999 30.4154 58.4999 30.4154 58.6607 30.4154C58.7143 30.4154 58.8214 30.4685 58.875 30.4685C58.9822 30.3622 59.0358 30.4685 59.143 30.4685C59.1965 30.4685 59.3037 30.4154 59.3573 30.3622C59.3573 30.3622 59.4644 30.4154 59.4644 30.4685C59.4644 30.5217 59.4644 30.5217 59.4644 30.5217C59.4109 30.5748 59.4109 30.5748 59.4109 30.628C59.4109 30.628 59.518 30.628 59.6252 30.628C59.6788 30.628 60.0003 30.628 60.1075 30.6811C60.1075 30.6811 60.1075 30.6811 60.2146 30.6811C60.429 30.6811 60.6433 30.5748 60.7505 30.628C60.9648 30.7343 60.9648 30.7343 60.9648 30.7343C61.1255 30.6811 61.3399 30.628 61.3935 30.628C61.5006 30.628 61.7686 30.7343 61.8221 30.7874C61.8757 30.8406 61.9829 30.628 61.9829 30.5748C61.9829 30.5748 62.1972 30.5748 62.358 30.5748C62.5187 30.5748 63.2153 30.6811 63.3761 30.6811C63.5368 30.6811 63.9119 30.3622 63.9655 30.4154C64.0191 30.4685 64.1262 30.6811 64.3941 30.7343C64.6085 30.7343 65.4658 30.5217 65.8409 30.4154C65.8409 30.4154 65.8409 30.4154 66.1624 30.6811C66.2696 30.7343 66.2696 30.7343 66.2696 30.7343C66.4839 30.6811 66.6982 30.628 66.7518 30.628C66.8054 30.5748 67.0197 30.628 67.1269 30.628C67.2341 30.5748 67.5556 30.6811 67.6092 30.7343C67.6628 30.7343 67.9307 30.7343 68.145 30.6811C68.3593 30.628 69.0559 30.7343 69.3774 30.7874C69.3774 30.7874 69.3774 30.7874 69.6453 30.628C69.6453 30.628 70.2884 30.7874 70.3419 30.7874C70.3955 30.8406 70.3955 30.8406 70.4491 30.8406C70.6099 30.8937 70.6099 30.8937 70.6099 30.8937C70.7706 30.8406 70.8778 30.7343 70.8778 30.6811C70.8778 30.628 70.9314 30.4685 70.9849 30.4685C71.0385 30.4685 71.1993 30.5217 71.1457 30.5748C71.1457 30.5748 71.1457 30.5748 71.1457 30.628C71.1457 30.6811 71.1457 30.6811 71.1457 30.6811C71.1457 30.7874 71.3064 30.8406 71.4672 30.8406C71.4672 30.8406 71.4672 30.8406 71.6279 30.8406C71.7351 30.8406 71.7351 30.8406 71.7351 30.8406C71.8423 30.8937 72.1102 30.8937 72.271 30.8937C72.4317 30.8937 72.9675 30.8406 73.0747 30.8406C73.1819 30.8937 73.5034 30.7874 73.6105 30.8406C73.7177 30.8937 74.0392 30.7874 74.0928 30.8406C74.0928 30.8406 74.0928 30.8406 74.1464 30.8406C74.4143 30.8937 74.6286 30.8406 74.8965 30.7874C75.1109 30.7343 75.1109 30.7343 75.1109 30.7343C75.4324 30.7343 75.7539 30.7343 75.8611 30.7343C75.9682 30.7343 76.0754 30.5217 76.1826 30.6811C76.1826 30.6811 76.1826 30.6811 76.2361 30.7343C76.2897 30.7874 76.2897 30.7874 76.2897 30.7874C76.3433 30.8406 76.5041 30.8937 76.6648 30.9469C76.8256 31 77.3614 30.7874 77.4686 30.7874C77.5757 30.7874 77.7365 30.7874 77.7901 30.7874C77.8436 30.7874 78.1116 30.7874 78.1652 30.7874C78.2187 30.7874 78.5938 30.7874 78.7546 30.7874C78.9153 30.7874 79.344 30.6811 79.344 30.628C79.344 30.5748 79.4512 30.6811 79.5583 30.8406C79.5583 30.8406 79.5583 30.8406 79.8262 30.6811C79.8798 30.628 80.0942 30.8406 80.2549 30.8406C80.4157 30.8406 80.4157 30.8406 80.4157 30.8406C80.5764 30.7874 80.8443 30.8406 81.0051 31C81.0051 31 81.0051 31 81.2194 30.8406C81.3266 30.7343 81.3266 30.7343 81.3266 30.7343C81.5409 30.6811 81.7553 30.628 81.8088 30.6811C81.8624 30.7343 82.0232 30.8937 82.0768 30.7874C82.1303 30.7343 82.3447 30.628 82.4518 30.7343C82.4518 30.7343 82.4518 30.7343 82.559 30.7874C82.6126 30.7874 82.7733 30.7874 82.7733 30.7874C82.7733 30.5217 82.7733 30.5217 82.7733 30.5217C83.0413 30.4685 83.3092 30.4685 83.3092 30.5217C83.3092 30.628 83.4699 30.7343 83.6307 30.7343C83.6307 30.7343 83.6307 30.7343 83.7379 30.7874C83.845 30.7874 83.8986 30.8937 83.8986 30.7343C83.8986 30.5748 84.0594 30.5748 84.1129 30.628C84.3809 30.7874 84.6488 30.6811 84.9167 30.7343C85.131 30.7343 85.131 30.7343 85.131 30.7343C85.3454 30.7874 85.5597 30.7874 85.5597 30.7874C85.5597 30.7874 85.5597 30.7874 85.6133 30.7874C85.8276 30.7343 85.8276 30.7343 85.8276 30.7343C86.1491 30.6811 86.3099 30.628 86.2027 30.5748C86.0955 30.5217 86.3099 30.3622 86.3099 30.3091C86.3099 30.2559 86.4706 30.2028 86.4706 30.3091C86.4706 30.4154 86.5778 30.7343 86.685 30.6811C86.685 30.6811 86.685 30.6811 86.7385 30.628C86.8457 30.5748 86.8457 30.5748 86.8457 30.5748C86.8993 30.4685 87.1136 30.4154 87.2208 30.4685C87.328 30.5217 87.7566 30.5748 87.8102 30.5217C87.8638 30.4154 88.0781 30.2559 88.1853 30.3622C88.1853 30.3622 88.1853 30.3622 88.1853 30.4685C88.1853 30.7343 88.1853 30.7343 88.1853 30.7343C88.346 30.7343 88.6675 30.7343 88.8283 30.6811C88.989 30.628 89.5249 30.6811 89.5785 30.6811C89.6321 30.6811 89.7928 30.628 89.9 30.5748C90.0071 30.5217 90.4358 30.5748 90.5966 30.628C90.5966 30.628 90.5966 30.628 90.7037 30.5748C90.8109 30.5217 90.8109 30.5217 90.8109 30.5217C90.9181 30.3622 91.0788 30.2559 91.186 30.3091C91.2931 30.3622 91.5611 30.5217 91.5611 30.5748C91.5611 30.5748 91.5611 30.5748 91.5611 30.628C91.5611 30.6811 91.5611 30.6811 91.5611 30.6811C91.5611 30.7343 91.6146 30.7343 91.6682 30.7343C91.7218 30.7343 91.829 30.628 91.9361 30.5217C92.0433 30.4154 92.3648 30.628 92.4184 30.628C92.472 30.628 92.6863 30.5748 92.7935 30.5748C92.7935 30.5748 92.7935 30.5748 92.7935 30.5217C92.8471 30.3622 92.8471 30.3622 92.8471 30.3622C92.6863 30.3622 92.472 30.3622 92.3648 30.3622C92.2577 30.3622 92.2041 30.0433 92.3112 30.0433C92.4184 30.0433 92.7935 30.0433 92.7935 30.1496C92.7935 30.1496 92.7935 30.1496 92.8471 30.2559C92.9007 30.3622 93.0078 30.5217 93.115 30.5217C93.3829 30.5217 93.1686 30.3091 93.2757 30.2028C93.2757 30.2028 93.4365 30.2559 93.5437 30.4154C93.6508 30.5217 94.2402 30.5217 94.401 30.5217C94.5617 30.5217 94.7761 30.2559 94.8297 30.3622C94.8833 30.4685 94.5082 30.5748 94.4546 30.5748C94.4546 30.5748 94.401 30.6811 94.4546 30.7343C94.4546 30.7343 94.4546 30.7343 94.5082 30.7343C94.6153 30.7343 94.6153 30.7343 94.6153 30.7343C94.7225 30.6811 94.9368 30.5748 95.0976 30.4154C95.0976 30.4154 95.0976 30.4154 95.1512 29.937C95.1512 29.8839 95.3655 29.7776 95.3655 29.7776C95.8478 30.0965 95.687 29.7244 95.7406 29.565C95.7942 29.5118 95.8478 29.565 95.8478 29.6713C95.8478 29.7776 95.9549 29.9902 96.0621 29.8839C96.1693 29.7776 96.33 30.2028 96.3836 30.2559C96.4372 30.3091 96.5979 30.5748 96.6515 30.5748C96.7051 30.5748 97.0802 30.5748 97.3481 30.5748C97.3481 30.5748 97.3481 30.5748 97.616 30.5748C97.6696 30.5748 97.6696 30.5748 97.6696 30.5748C97.7232 30.5748 97.7768 30.5748 97.7768 30.5217C97.7768 30.4685 97.7768 30.3622 97.7768 30.3091C97.7768 30.2559 97.5624 30.0433 97.4553 30.0965C97.4553 30.0965 97.4553 30.0965 97.3481 30.0965C97.2409 30.0965 97.2409 30.0965 97.2409 30.0965C97.1873 30.1496 97.0266 30.2028 96.8658 30.2559C96.8658 30.2559 96.8658 30.2559 96.7587 30.2559C96.7051 30.2559 96.5979 30.2559 96.5979 30.2028C96.5443 30.0965 96.5443 30.0965 96.5443 30.0965C96.4908 29.937 96.33 29.8307 96.2228 29.8307C96.2228 29.8307 96.2228 29.8307 96.1693 29.7776C96.0621 29.6713 96.0621 29.5118 96.0085 29.4587C95.7942 29.2993 95.7942 29.2993 95.7942 29.2993C95.9013 29.193 96.0621 29.0867 96.1157 29.0335C96.1693 29.0335 96.3836 29.0867 96.3836 29.2461C96.3836 29.4056 96.5443 29.8307 96.7051 29.8307C96.7051 29.8307 96.7051 29.8307 96.8123 29.937C96.9194 30.0433 97.0266 30.0965 97.2409 29.9902C97.3481 30.0965 97.3481 30.0965 97.3481 30.0965ZM95.6334 28.8741C95.7406 28.8209 95.9013 28.8209 95.9013 28.8209C95.9013 28.8209 95.9013 28.9272 95.7942 28.9804C95.7406 29.0335 95.3119 29.0867 95.0976 28.9804C95.0976 28.9804 95.0976 28.9804 94.8833 29.1398C94.8833 29.1398 94.7761 29.1398 94.7761 29.0867C94.7225 29.0335 94.7225 29.0335 94.7225 29.0335C94.6153 28.9272 94.6153 28.8209 94.7761 28.8209C94.9368 28.8209 95.4727 28.9272 95.6334 28.8741ZM99.4914 29.1398C99.6522 29.193 99.7594 29.2993 99.7058 29.4056C99.6522 29.5118 99.2771 29.2993 99.2235 29.2461C99.1699 29.193 98.7413 29.193 98.6341 29.193C98.5269 29.193 98.0983 29.1398 98.1519 29.0335C98.2054 28.9272 98.5805 29.0335 98.6877 29.0335C98.7949 29.0335 99.0628 29.0335 99.2235 28.9804C99.2235 28.9804 99.2235 28.9804 99.3843 29.0335C99.4914 29.1398 99.4914 29.1398 99.4914 29.1398ZM6.04155 14.3114C5.8808 14.3646 5.82721 14.3114 5.8808 14.2051C5.93439 14.0988 6.2023 13.7268 6.30946 13.5142C6.30946 13.5142 6.30948 13.5142 6.5238 13.7799C6.68456 13.9925 6.68456 13.9925 6.68456 13.9925C6.84531 13.9394 6.8989 13.8862 6.79173 13.9394C6.68456 13.9394 6.2023 14.2583 6.04155 14.3114ZM68.2522 29.193C68.4129 29.193 68.6273 29.2461 68.6273 29.2993C68.5737 29.4056 68.5737 29.4056 68.5737 29.4056C68.6273 29.5118 68.6273 29.6181 68.5201 29.6713C68.4665 29.7244 68.1986 29.565 68.0378 29.565C67.9843 29.4587 68.0914 29.193 68.2522 29.193ZM3.73746 14.152C3.84462 13.9925 3.89821 13.9925 3.84462 14.152C3.79105 14.3114 3.36237 14.4709 3.2552 14.4709C3.2552 14.4709 3.2552 14.4709 3.2552 14.3114C3.2552 14.2583 3.2552 14.2583 3.2552 14.2583C3.14804 14.0988 3.2552 14.0988 3.52312 14.2583C3.52312 14.2583 3.52312 14.2583 3.63028 14.2051C3.73746 14.152 3.73746 14.152 3.73746 14.152ZM100.724 28.9804C101.045 29.0335 101.206 29.0867 101.045 29.0867C100.938 29.0867 100.563 29.2461 100.51 29.2993C100.402 29.3524 100.134 29.4056 100.134 29.3524C100.134 29.2993 100.242 29.0867 100.402 29.1398C100.402 29.1398 100.402 29.1398 100.456 29.1398C100.724 28.9804 100.724 28.9804 100.724 28.9804ZM87.5423 29.5118C87.5959 29.5118 87.5959 29.6713 87.4887 29.8839C87.4887 29.8839 87.4887 29.8839 87.328 29.937C87.1672 30.0433 87.1672 30.0433 87.1672 30.0433C87.0065 30.1496 86.7921 30.2028 86.685 30.2028C86.685 30.2028 86.685 30.2028 86.685 30.1496C86.6314 30.0965 86.6314 30.0965 86.6314 30.0965C86.6314 29.9902 86.7921 29.937 87.0065 29.937C87.0065 29.937 87.0065 29.937 87.1136 29.8839C87.2208 29.8307 87.2208 29.8307 87.2208 29.8307C87.2744 29.6713 87.4887 29.5118 87.5423 29.5118ZM44.0859 29.5118C43.9788 29.4587 43.9788 29.4056 44.0324 29.3524C44.0859 29.2993 44.3003 29.1398 44.3539 29.0867C44.4074 29.0335 44.6218 29.0867 44.5682 29.2461C44.5146 29.4056 44.1395 29.5118 44.0859 29.5118ZM91.829 29.7776C91.8826 29.6181 91.8826 29.6181 91.829 29.7776C91.829 29.8839 91.8826 30.2028 91.7754 30.2028C91.6682 30.2028 91.829 29.937 91.829 29.7776ZM132.928 19.9983C132.82 19.9983 132.767 19.9451 132.767 19.8388C132.981 19.8388 133.035 19.7325 133.035 19.5731C133.035 19.5199 133.035 19.5199 133.035 19.5199C133.088 19.4137 133.142 19.4668 133.249 19.5731C133.303 19.7325 133.035 19.9451 132.928 19.9983ZM134.749 22.5494C134.749 22.4963 134.857 22.4431 134.91 22.39C134.91 22.39 134.91 22.39 134.964 22.3368C135.017 22.2837 135.071 22.2305 135.178 22.2837C135.285 22.3368 135.339 22.39 135.178 22.4963C135.071 22.5494 135.285 22.8151 135.017 22.8151C134.964 22.8151 134.857 22.6557 134.749 22.5494Z" fill="#FFB820"/>
</svg>
