<svg width="24" height="24" viewBox="0 0 24 24" fill="none" xmlns="http://www.w3.org/2000/svg">
<path d="M18.9688 0H4.46875C3.2842 0.00206548 2.14875 0.473542 1.31115 1.31115C0.473542 2.14875 0.00206548 3.2842 0 4.46875V18.9688C0.00206548 20.1533 0.473542 21.2887 1.31115 22.1264C2.14875 22.964 3.2842 23.4354 4.46875 23.4375H18.9688C20.1533 23.4354 21.2887 22.964 22.1264 22.1264C22.964 21.2887 23.4354 20.1533 23.4375 18.9688V4.46875C23.4354 3.2842 22.964 2.14875 22.1264 1.31115C21.2887 0.473542 20.1533 0.00206548 18.9688 0ZM21.875 18.9688C21.8729 19.7389 21.5661 20.4769 21.0215 21.0215C20.4769 21.5661 19.7389 21.8729 18.9688 21.875H4.46875C3.6986 21.8729 2.96058 21.5661 2.416 21.0215C1.87142 20.4769 1.56456 19.7389 1.5625 18.9688V4.46875C1.56456 3.6986 1.87142 2.96058 2.416 2.416C2.96058 1.87142 3.6986 1.56456 4.46875 1.5625H18.9688C19.7389 1.56456 20.4769 1.87142 21.0215 2.416C21.5661 2.96058 21.8729 3.6986 21.875 4.46875V18.9688Z" fill="#ACACAC"/>
<path d="M18.75 13.1562C18.5428 13.1562 18.3441 13.2386 18.1976 13.3851C18.0511 13.5316 17.9688 13.7303 17.9688 13.9375V16.8672L6.57031 5.46875H9.5C9.7072 5.46875 9.90591 5.38644 10.0524 5.23993C10.1989 5.09341 10.2812 4.8947 10.2812 4.6875C10.2812 4.4803 10.1989 4.28159 10.0524 4.13507C9.90591 3.98856 9.7072 3.90625 9.5 3.90625H4.44531C4.30234 3.90625 4.16523 3.96304 4.06414 4.06414C3.96304 4.16523 3.90625 4.30234 3.90625 4.44531V9.5C3.90625 9.7072 3.98856 9.90591 4.13507 10.0524C4.28159 10.1989 4.4803 10.2812 4.6875 10.2812C4.8947 10.2812 5.09341 10.1989 5.23993 10.0524C5.38644 9.90591 5.46875 9.7072 5.46875 9.5V6.57031L16.8672 17.9688H13.9375C13.7303 17.9688 13.5316 18.0511 13.3851 18.1976C13.2386 18.3441 13.1562 18.5428 13.1562 18.75C13.1562 18.9572 13.2386 19.1559 13.3851 19.3024C13.5316 19.4489 13.7303 19.5312 13.9375 19.5312H18.9922C19.1352 19.5312 19.2723 19.4745 19.3734 19.3734C19.4745 19.2723 19.5312 19.1352 19.5312 18.9922V13.9375C19.5312 13.7303 19.4489 13.5316 19.3024 13.3851C19.1559 13.2386 18.9572 13.1562 18.75 13.1562Z" fill="#ACACAC"/>
</svg>
