<svg width="40" height="39" viewBox="0 0 40 39" fill="none" xmlns="http://www.w3.org/2000/svg">
<path d="M38.8233 1.08246L33.8833 0.310196C33.8022 0.297515 33.7194 0.300933 33.6396 0.320255C33.5598 0.339576 33.4846 0.374423 33.4183 0.422804C33.352 0.471186 33.2959 0.532155 33.2532 0.60223C33.2104 0.672305 33.1819 0.750113 33.1692 0.831212L29.8793 21.875H27.7662L28.508 16.2436C28.5293 16.082 28.4866 15.9185 28.389 15.7879C28.2915 15.6574 28.1468 15.5701 27.9858 15.5446L28.2378 13.9482L29.4581 13.0608C29.5245 13.0126 29.5808 12.9517 29.6237 12.8817C29.6666 12.8117 29.6953 12.7339 29.7081 12.6529L30.7802 5.86254V5.86199L30.9755 4.62723C31.0014 4.4635 30.9612 4.2962 30.8637 4.16214C30.7662 4.02808 30.6194 3.93824 30.4557 3.91238L25.5163 3.13277C25.3526 3.10692 25.1853 3.14716 25.0512 3.24465C24.9172 3.34214 24.8273 3.48889 24.8015 3.65262L23.5344 11.678C23.5216 11.7591 23.5248 11.8419 23.544 11.9217C23.5632 12.0015 23.598 12.0768 23.6462 12.1432L24.5338 13.3635L24.2816 14.9597C24.1206 14.9343 23.9561 14.9728 23.8231 15.067C23.69 15.1612 23.5991 15.3036 23.5695 15.4639L22.388 21.875H21.3712L21.2263 16.2343C21.2222 16.0714 21.1545 15.9165 21.0377 15.8027C20.9209 15.6889 20.7644 15.6253 20.6013 15.6254V14.0088L21.6683 12.9419C21.7264 12.8839 21.7725 12.815 21.804 12.7392C21.8354 12.6634 21.8517 12.5821 21.8517 12.5V4.37496C21.8517 4.26843 21.8245 4.16366 21.7726 4.07061C21.7207 3.97756 21.6459 3.89932 21.5553 3.84331C21.4647 3.78731 21.3612 3.7554 21.2548 3.75061C21.1484 3.74583 21.0425 3.76833 20.9472 3.81598L15.9472 6.31598C15.8434 6.36789 15.7561 6.44767 15.6951 6.5464C15.634 6.64513 15.6017 6.7589 15.6017 6.87496V12.5C15.6017 12.582 15.6179 12.6633 15.6493 12.7391C15.6807 12.815 15.7267 12.8839 15.7848 12.9419L16.8517 14.0088V15.625C16.6887 15.6249 16.5321 15.6886 16.4153 15.8023C16.2986 15.9161 16.2309 16.071 16.2267 16.2339L16.0823 21.875H14.6423C14.0537 19.6475 13.6291 17.8024 13.3127 16.1009L11.4846 6.26949L12.0991 6.1552C12.1439 6.14689 12.1877 6.13366 12.2296 6.11574L17.531 3.85848C17.6619 3.80278 17.7698 3.70411 17.837 3.57878C17.9043 3.45344 17.9267 3.30893 17.9007 3.1691L17.4437 0.71129C17.4177 0.571501 17.3448 0.444757 17.237 0.351979C17.1293 0.259202 16.9931 0.205937 16.851 0.200977L11.0925 0.00035225C11.0469 -0.00116828 11.0013 0.00223689 10.9565 0.0105085L0.510547 1.95309C0.347613 1.98344 0.203406 2.07726 0.109641 2.21392C0.0158764 2.35059 -0.0197683 2.5189 0.0105467 2.68184L0.924609 7.59762C0.939571 7.67833 0.970298 7.7553 1.01503 7.82412C1.05977 7.89294 1.11763 7.95227 1.18532 7.99871C1.253 8.04515 1.32918 8.07779 1.40949 8.09476C1.4898 8.11173 1.57267 8.1127 1.65336 8.09762L6.56906 7.18356L8.39719 17.015C8.66891 18.4765 8.90023 20.0361 9.1175 21.875H7.88258L6.19563 12.7649C6.10507 12.2759 5.82397 11.8429 5.41416 11.5612C5.00436 11.2794 4.49942 11.172 4.01043 11.2626C3.52144 11.3531 3.08845 11.6342 2.80671 12.044C2.52497 12.4538 2.41757 12.9588 2.50812 13.4478L4.06891 21.875H1.24977C1.08401 21.875 0.925034 21.9408 0.807824 22.058C0.690613 22.1752 0.624766 22.3342 0.624766 22.5V25C0.624766 25.1657 0.690613 25.3247 0.807824 25.4419C0.925034 25.5591 1.08401 25.625 1.24977 25.625H1.87477V35.625C1.87551 36.2878 2.13914 36.9232 2.60782 37.3919C3.0765 37.8606 3.71195 38.1242 4.37477 38.125H8.74977V36.875H4.37477C4.04337 36.8746 3.72565 36.7427 3.49132 36.5084C3.25698 36.2741 3.12516 35.9564 3.12477 35.625V25.625H6.24977V28.75C6.24977 28.9157 6.31561 29.0747 6.43282 29.1919C6.55003 29.3091 6.70901 29.375 6.87477 29.375H8.74977V30.625H9.99977V29.375H11.8748C12.0405 29.375 12.1995 29.3091 12.3167 29.1919C12.4339 29.0747 12.4998 28.9157 12.4998 28.75V25.625H14.3748V32.5H15.6248V25.625H23.1248V31.875H24.3748V25.625H26.2498V28.75C26.2498 28.9157 26.3156 29.0747 26.4328 29.1919C26.55 29.3091 26.709 29.375 26.8748 29.375H28.7498V30.625H29.9998V29.375H31.8748C32.0405 29.375 32.1995 29.3091 32.3167 29.1919C32.4339 29.0747 32.4998 28.9157 32.4998 28.75V25.625H35.6248V31.875H36.8748V25.625H37.4998C37.6655 25.625 37.8245 25.5591 37.9417 25.4419C38.0589 25.3247 38.1248 25.1657 38.1248 25V22.5C38.1248 22.3342 38.0589 22.1752 37.9417 22.058C37.8245 21.9408 37.6655 21.875 37.4998 21.875H36.2052L39.3442 1.79684C39.3569 1.71572 39.3536 1.63289 39.3343 1.55309C39.315 1.47328 39.2801 1.39806 39.2318 1.33171C39.1834 1.26537 39.1224 1.20921 39.0523 1.16645C38.9822 1.12368 38.9044 1.09514 38.8233 1.08246ZM27.1891 16.6843L27.0258 17.924L24.4619 17.5192L24.6884 16.2895L27.1891 16.6843ZM29.6429 5.04965L29.5452 5.66801C29.519 5.83145 29.429 5.97784 29.2951 6.07508C29.1611 6.17233 28.9941 6.21252 28.8305 6.18684L26.3612 5.79684C26.1975 5.77099 26.0507 5.68118 25.9532 5.54716C25.8557 5.41313 25.8154 5.24587 25.8413 5.08215L25.9388 4.46496L29.6429 5.04965ZM25.6969 12.8376L24.8094 11.6173L25.5658 6.82692C25.7528 6.9288 25.9559 6.99805 26.1663 7.03168L28.6356 7.42184C28.7327 7.4373 28.8308 7.44513 28.9291 7.44527C29.0434 7.4452 29.1574 7.43459 29.2697 7.41356L28.5135 12.2026L27.2932 13.0901C27.2268 13.1384 27.1705 13.1992 27.1276 13.2692C27.0847 13.3392 27.056 13.417 27.0432 13.4981L26.7508 15.3501L25.5164 15.1548L25.8088 13.3028C25.8216 13.2217 25.8183 13.1389 25.7991 13.0591C25.7799 12.9793 25.7452 12.904 25.6969 12.8376ZM24.2352 18.7489L26.8625 19.1638L26.5054 21.875H23.6591L24.2352 18.7489ZM19.9926 16.875L20.0246 18.125H17.4288L17.4609 16.875H19.9926ZM20.602 5.38621V7.11371L16.852 8.98871V7.26121L20.602 5.38621ZM17.9189 13.3081L16.852 12.2412V10.3862L20.602 8.51121V12.2411L19.535 13.308C19.4769 13.366 19.4308 13.4349 19.3994 13.5108C19.3679 13.5866 19.3517 13.6679 19.3517 13.75V15.625H18.1017V13.75C18.1017 13.6679 18.0856 13.5866 18.0541 13.5108C18.0227 13.4349 17.9767 13.366 17.9187 13.308L17.9189 13.3081ZM17.3968 19.375H20.0566L20.1207 21.875H17.3327L17.3968 19.375ZM1.35352 3.06754L11.1175 1.25191L16.3066 1.43277L16.5801 2.90481L11.8031 4.93879L2.03883 6.75434L1.35352 3.06754ZM9.62586 16.7863L7.79773 6.95488L10.2555 6.49793L12.0837 16.3294C12.3905 17.9794 12.7966 19.7586 13.3499 21.8749H10.3757C10.1502 19.9441 9.91 18.3143 9.62586 16.7864V16.7863ZM5.6493 16.6797L4.42016 16.9074L4.19258 15.6782L5.42164 15.4507L5.6493 16.6797ZM3.8368 12.7521C3.90683 12.6503 4.0055 12.5715 4.12032 12.5257C4.23513 12.48 4.36094 12.4693 4.48184 12.495C4.60274 12.5207 4.7133 12.5817 4.79953 12.6702C4.88577 12.7588 4.94382 12.8709 4.96633 12.9925L5.19398 14.2216L3.96484 14.4492L3.73727 13.22C3.72212 13.1393 3.72314 13.0564 3.74025 12.9761C3.75736 12.8958 3.79023 12.8197 3.83695 12.7522L3.8368 12.7521ZM4.6482 18.1365L5.87734 17.9089L6.61141 21.875H5.34016L4.6482 18.1365ZM11.2498 28.125H9.99977V26.875H8.74977V28.125H7.49977V25.625H11.2498V28.125ZM31.2498 28.125H29.9998V26.875H28.7498V28.125H27.4998V25.625H31.2498V28.125ZM36.8748 24.375H1.87477V23.125H36.8748V24.375ZM34.9401 21.875H31.1445L31.4116 20.1668L32.6465 20.3598L32.8396 19.125L31.6046 18.9318L31.8942 17.0794L33.1292 17.2725L33.3223 16.0374L32.0873 15.8443L32.377 13.9919L33.6119 14.185L33.805 12.95L32.5701 12.7567L32.8597 10.9042L34.0947 11.0973L34.2878 9.86223L33.0528 9.66918L33.3424 7.81676L34.5773 8.00981L34.7705 6.77481L33.5355 6.58168L33.8251 4.72926L35.0601 4.92238L35.2531 3.68746L34.0181 3.49434L34.3077 1.64191L38.0127 2.22113L34.9401 21.875Z" fill="#00659E"/>
<path d="M35.6248 33.125H29.3748C29.2778 33.125 29.1821 33.1476 29.0953 33.191L27.9773 33.75H27.0224L25.9044 33.191C25.8176 33.1476 25.7219 33.125 25.6248 33.125H23.7498C23.5841 33.125 23.4251 33.1908 23.3079 33.3081C23.1907 33.4253 23.1248 33.5842 23.1248 33.75H11.2498C11.1678 33.75 11.0865 33.7662 11.0107 33.7976C10.9348 33.829 10.8659 33.875 10.8079 33.933L9.55789 35.183C9.49985 35.2411 9.45381 35.31 9.4224 35.3858C9.39098 35.4616 9.37482 35.5429 9.37482 35.625C9.37482 35.7071 9.39098 35.7884 9.4224 35.8642C9.45381 35.94 9.49985 36.0089 9.55789 36.067L10.8079 37.317C10.8659 37.375 10.9348 37.421 11.0107 37.4524C11.0865 37.4838 11.1678 37.5 11.2498 37.5H23.1248C23.1248 37.6658 23.1907 37.8247 23.3079 37.9419C23.4251 38.0592 23.5841 38.125 23.7498 38.125H25.6248C25.7219 38.125 25.8176 38.1024 25.9044 38.059L27.0224 37.5H27.9773L29.0953 38.059C29.1821 38.1024 29.2778 38.125 29.3748 38.125H35.6248C36.2879 38.125 36.9238 37.8616 37.3926 37.3928C37.8614 36.9239 38.1248 36.288 38.1248 35.625C38.1248 34.962 37.8614 34.3261 37.3926 33.8572C36.9238 33.3884 36.2879 33.125 35.6248 33.125ZM11.5087 36.25L10.8837 35.625L11.5087 35H23.1248V36.25H11.5087ZM28.4044 36.316C28.3176 36.2726 28.2219 36.25 28.1248 36.25H26.8748C26.7778 36.25 26.6821 36.2726 26.5953 36.316L25.4773 36.875H24.3748V34.375H25.4773L26.5953 34.934C26.6821 34.9774 26.7778 35 26.8748 35H28.1248C28.2219 35 28.3176 34.9774 28.4044 34.934L29.5224 34.375H33.7498V36.875H29.5224L28.4044 36.316ZM35.6248 36.875H34.9998V34.375H35.6248C35.9564 34.375 36.2743 34.5067 36.5087 34.7411C36.7431 34.9755 36.8748 35.2935 36.8748 35.625C36.8748 35.9565 36.7431 36.2745 36.5087 36.5089C36.2743 36.7433 35.9564 36.875 35.6248 36.875Z" fill="#00659E"/>
</svg>
