<svg width="55" height="55" viewBox="0 0 55 55" fill="none" xmlns="http://www.w3.org/2000/svg">
<g clip-path="url(#clip0)">
<path d="M25.3789 37.3041C25.7989 36.8841 25.7989 36.2043 25.3789 35.7843C24.9584 35.3655 24.2773 35.3655 23.8564 35.7843C23.4368 36.2043 23.4368 36.8841 23.8564 37.3041C24.2773 37.7229 24.9584 37.7229 25.3789 37.3041Z" fill="#00659E"/>
<path d="M20.2832 11.8131C20.2832 18.3268 25.5929 23.6265 32.1194 23.6265C38.6458 23.6265 43.9555 18.3268 43.9555 11.8131C43.9555 5.29934 38.6458 0 32.1194 0C25.5929 0 20.2832 5.29934 20.2832 11.8131ZM41.8037 11.8131C41.8037 17.1426 37.4594 21.4785 32.1194 21.4785C26.7794 21.4785 22.435 17.1426 22.435 11.8131C22.435 6.48392 26.7794 2.14802 32.1194 2.14802C37.4594 2.14802 41.8037 6.48392 41.8037 11.8131Z" fill="#FFB820"/>
<path d="M12.4479 54.6823C12.865 55.1019 13.544 55.1065 13.9666 54.6911L19.1834 49.5617C20.0696 48.6771 20.3391 47.3675 19.9494 46.2291L21.0715 45.149C21.6757 44.5665 22.4712 44.2455 23.3121 44.2455H37.6166C40.1544 44.2455 42.553 43.2729 44.3714 41.5067C44.4462 41.4341 43.8034 42.1898 54.1301 29.8716C55.6618 28.063 55.4327 25.3473 53.6189 23.8169C51.8165 22.3008 49.1164 22.5186 47.5806 24.2961L41.2311 30.8094C40.4293 29.8246 39.2067 29.2107 37.8857 29.2107H25.8868C24.1794 28.4977 22.3678 28.1369 20.4985 28.1369C15.317 28.1369 10.7927 30.5253 8.36465 35.0035C7.34172 34.81 6.26288 35.1189 5.48675 35.8935L0.367918 41.0174C-0.0499975 41.4358 -0.0508383 42.1126 0.366236 42.5322L12.4479 54.6823ZM20.4981 30.2845C22.1462 30.2845 23.7396 30.6155 25.2351 31.2685C25.3714 31.3281 25.5181 31.3587 25.6665 31.3587H37.8857C39.0524 31.3587 40.0379 32.3083 40.0379 33.5063C40.0379 34.6909 39.0726 35.6543 37.8857 35.6543H29.1065C28.5124 35.6543 28.0306 36.1352 28.0306 36.7281C28.0306 37.3214 28.5124 37.8019 29.1065 37.8019H37.8857C40.2591 37.8019 42.1897 35.875 42.1897 33.5063C42.1897 33.3175 42.1763 33.1303 42.1519 32.9448C48.2941 26.6434 49.1602 25.7581 49.1972 25.714C49.964 24.8106 51.3254 24.696 52.231 25.458C53.1375 26.223 53.2523 27.5809 52.4833 28.4893L42.8321 40.0045C41.4228 41.3548 39.5725 42.0979 37.6166 42.0979H23.3121C21.9103 42.0979 20.5834 42.633 19.5769 43.6035L18.6624 44.4843L10.2327 36.0714C12.2028 32.3825 15.8997 30.2845 20.4981 30.2845ZM7.00958 37.4112C7.36442 37.0571 7.90931 36.9933 8.34194 37.2602C8.5282 37.3735 7.9934 36.8876 17.6618 46.5236C18.0919 46.9529 18.0688 47.6369 17.6677 48.0372L13.2203 52.41L2.64753 41.7774L7.00958 37.4112Z" fill="#00659E"/>
<path d="M33.8056 5H29.5925C28.938 5 28.4075 5.51551 28.4075 6.15143V10.8486H27.185C26.5305 10.8486 26 11.3641 26 12C26 12.6359 26.5305 13.1514 27.185 13.1514H28.4075V14.3577H27.185C26.5305 14.3577 26 14.8732 26 15.5091C26 16.1451 26.5305 16.6606 27.185 16.6606H28.4075V17.8486C28.4075 18.4845 28.938 19 29.5925 19C30.2469 19 30.7774 18.4845 30.7774 17.8486V16.6606H33.2037C33.8582 16.6606 34.3887 16.1451 34.3887 15.5091C34.3887 14.8732 33.8582 14.3577 33.2037 14.3577H30.7774V13.1514H33.8056C36.1184 13.1514 38 11.3231 38 9.07574C38 6.82837 36.1185 5 33.8056 5ZM33.8056 10.8485H30.7774V7.30281H33.8056C34.8116 7.30281 35.6301 8.09807 35.6301 9.07563C35.6301 10.0532 34.8117 10.8485 33.8056 10.8485Z" fill="#FFB820"/>
</g>
<defs>
<clipPath id="clip0">
<rect width="55" height="55" fill="white"/>
</clipPath>
</defs>
</svg>
