<svg width="39" height="34" viewBox="0 0 39 34" fill="none" xmlns="http://www.w3.org/2000/svg">
<path d="M1.28125 32.5H0V33.75H1.28125V32.5Z" fill="#00659E"/>
<path d="M32.6719 0H16.0156V1.25H32.6719V0Z" fill="#00659E"/>
<path d="M14.7344 0H13.4531V1.25H14.7344V0Z" fill="#00659E"/>
<path d="M35.875 18.125C35.875 17.9592 35.8075 17.8003 35.6874 17.6831C35.5672 17.5658 35.4043 17.5 35.2344 17.5H32.6719V14.375C32.6719 14.2092 32.6044 14.0503 32.4842 13.9331C32.3641 13.8158 32.2012 13.75 32.0312 13.75H28.1875V11.25H32.0312C32.2012 11.25 32.3641 11.1842 32.4842 11.0669C32.6044 10.9497 32.6719 10.7908 32.6719 10.625V7.5H36.5156C36.6855 7.5 36.8485 7.43415 36.9686 7.31694C37.0888 7.19973 37.1562 7.04076 37.1562 6.875V3.125C37.1562 2.95924 37.0888 2.80027 36.9686 2.68306C36.8485 2.56585 36.6855 2.5 36.5156 2.5H9.60938C9.43947 2.5 9.27652 2.56585 9.15638 2.68306C9.03624 2.80027 8.96875 2.95924 8.96875 3.125V6.875C8.96875 7.04076 9.03624 7.19973 9.15638 7.31694C9.27652 7.43415 9.43947 7.5 9.60938 7.5H13.4531V10H0.640625C0.470721 10 0.307775 10.0658 0.187635 10.1831C0.0674942 10.3003 0 10.4592 0 10.625V14.375C0 14.5408 0.0674942 14.6997 0.187635 14.8169C0.307775 14.9342 0.470721 15 0.640625 15H4.48438V18.125C4.48438 18.2908 4.55187 18.4497 4.67201 18.5669C4.79215 18.6842 4.9551 18.75 5.125 18.75H8.96875V21.25H5.125C4.9551 21.25 4.79215 21.3158 4.67201 21.4331C4.55187 21.5503 4.48438 21.7092 4.48438 21.875V25.625C4.48438 25.7908 4.55187 25.9497 4.67201 26.0669C4.79215 26.1842 4.9551 26.25 5.125 26.25H8.96875V28.75H5.125C4.9551 28.75 4.79215 28.8158 4.67201 28.9331C4.55187 29.0503 4.48438 29.2092 4.48438 29.375V32.5H2.5625V33.75H38.4375V32.5H35.875V18.125ZM34.5938 32.5H19.2188V25.9125L23.4795 22.35C23.4853 22.345 23.4872 22.3375 23.493 22.3325C23.5382 22.2893 23.5767 22.2398 23.607 22.1856C23.6213 22.1672 23.6345 22.148 23.6467 22.1281C23.6836 22.0486 23.7028 21.9623 23.7031 21.875V18.75H34.5938V32.5ZM14.7344 22.5H21.3328L18.3411 25H14.7344V22.5ZM10.25 11.25H17.9375V13.75H10.25V11.25ZM14.7344 15H22.4219V17.5H14.7344V15ZM19.2188 18.75H22.4219V21.25H19.2188V18.75ZM31.3906 17.5H23.7031V15H31.3906V17.5ZM26.9062 13.75H19.2188V11.25H26.9062V13.75ZM31.3906 10H23.7031V7.5H31.3906V10ZM35.875 6.25H28.1875V3.75H35.875V6.25ZM26.9062 6.25H19.2188V3.75H26.9062V6.25ZM10.25 3.75H17.9375V6.25H10.25V3.75ZM14.7344 7.5H22.4219V10H14.7344V7.5ZM1.28125 11.25H8.96875V13.75H1.28125V11.25ZM5.76562 15H13.4531V17.5H5.76562V15ZM10.25 18.75H17.9375V21.25H10.25V18.75ZM5.76562 22.5H13.4531V25H5.76562V22.5ZM10.25 26.25H17.9375V28.75H10.25V26.25ZM5.76562 30H13.4531V32.5H5.76562V30ZM14.7344 30H17.9375V32.5H14.7344V30Z" fill="#00659E"/>
<path d="M38.4375 20H37.1562V28.75H38.4375V20Z" fill="#00659E"/>
</svg>
