<svg width="63" height="63" viewBox="0 0 63 63" fill="none" xmlns="http://www.w3.org/2000/svg">
<rect width="63" height="63" rx="6" fill="white"/>
<g clip-path="url(#clip0)">
<path d="M29.3801 41.3046C29.8001 40.8846 29.8001 40.2048 29.3801 39.7848C28.9596 39.366 28.2785 39.366 27.8577 39.7848C27.4381 40.2048 27.4381 40.8846 27.8577 41.3046C28.2785 41.7234 28.9596 41.7234 29.3801 41.3046Z" fill="#00659E"/>
<path d="M24.2812 15.8131C24.2812 22.3268 29.591 27.6265 36.1174 27.6265C42.6439 27.6265 47.9536 22.3268 47.9536 15.8131C47.9536 9.29934 42.6439 4 36.1174 4C29.591 4 24.2812 9.29934 24.2812 15.8131ZM45.8018 15.8131C45.8018 21.1426 41.4574 25.4785 36.1174 25.4785C30.7774 25.4785 26.4331 21.1426 26.4331 15.8131C26.4331 10.4839 30.7774 6.14802 36.1174 6.14802C41.4574 6.14802 45.8018 10.4839 45.8018 15.8131Z" fill="#FFB820"/>
<path d="M16.4477 58.6823C16.8648 59.1019 17.5438 59.1065 17.9663 58.6911L23.1831 53.5617C24.0694 52.6771 24.3389 51.3675 23.9491 50.2291L25.0713 49.149C25.6755 48.5665 26.4709 48.2455 27.3118 48.2455H41.6164C44.1541 48.2455 46.5527 47.2729 48.3711 45.5067C48.446 45.4341 47.8031 46.1898 58.1299 33.8716C59.6616 32.063 59.4324 29.3473 57.6187 27.8169C55.8162 26.3008 53.1162 26.5186 51.5803 28.2961L45.2309 34.8094C44.4291 33.8246 43.2065 33.2107 41.8854 33.2107H29.8866C28.1792 32.4977 26.3675 32.1369 24.4982 32.1369C19.3168 32.1369 14.7924 34.5253 12.3644 39.0035C11.3415 38.81 10.2626 39.1189 9.48651 39.8935L4.36767 45.0174C3.94976 45.4358 3.94892 46.1126 4.36599 46.5322L16.4477 58.6823ZM24.4978 34.2845C26.1459 34.2845 27.7394 34.6155 29.2349 35.2685C29.3711 35.3281 29.5178 35.3587 29.6663 35.3587H41.8854C43.0522 35.3587 44.0377 36.3083 44.0377 37.5063C44.0377 38.6909 43.0723 39.6543 41.8854 39.6543H33.1063C32.5122 39.6543 32.0304 40.1352 32.0304 40.7281C32.0304 41.3214 32.5122 41.8019 33.1063 41.8019H41.8854C44.2588 41.8019 46.1895 39.875 46.1895 37.5063C46.1895 37.3175 46.176 37.1303 46.1516 36.9448C52.2938 30.6434 53.1599 29.7581 53.1969 29.714C53.9638 28.8106 55.3252 28.696 56.2308 29.458C57.1373 30.223 57.252 31.5809 56.4831 32.4893L46.8319 44.0045C45.4226 45.3548 43.5722 46.0979 41.6164 46.0979H27.3118C25.9101 46.0979 24.5832 46.633 23.5766 47.6035L22.6622 48.4843L14.2324 40.0714C16.2026 36.3825 19.8995 34.2845 24.4978 34.2845ZM11.0093 41.4112C11.3642 41.0571 11.9091 40.9933 12.3417 41.2602C12.528 41.3735 11.9932 40.8876 21.6615 50.5236C22.0917 50.9529 22.0685 51.6369 21.6674 52.0372L17.22 56.41L6.64729 45.7774L11.0093 41.4112Z" fill="#00659E"/>
<path d="M37.8056 9H33.5925C32.938 9 32.4075 9.51551 32.4075 10.1514V14.8486H31.185C30.5305 14.8486 30 15.3641 30 16C30 16.6359 30.5305 17.1514 31.185 17.1514H32.4075V18.3577H31.185C30.5305 18.3577 30 18.8732 30 19.5091C30 20.1451 30.5305 20.6606 31.185 20.6606H32.4075V21.8486C32.4075 22.4845 32.938 23 33.5925 23C34.2469 23 34.7774 22.4845 34.7774 21.8486V20.6606H37.2037C37.8582 20.6606 38.3887 20.1451 38.3887 19.5091C38.3887 18.8732 37.8582 18.3577 37.2037 18.3577H34.7774V17.1514H37.8056C40.1184 17.1514 42 15.3231 42 13.0757C42 10.8284 40.1185 9 37.8056 9ZM37.8056 14.8485H34.7774V11.3028H37.8056C38.8116 11.3028 39.6301 12.0981 39.6301 13.0756C39.6301 14.0532 38.8117 14.8485 37.8056 14.8485Z" fill="#FFB820"/>
</g>
<defs>
<clipPath id="clip0">
<rect width="55" height="55" fill="white" transform="translate(4 4)"/>
</clipPath>
</defs>
</svg>
