<svg width="55" height="55" viewBox="0 0 55 55" fill="none" xmlns="http://www.w3.org/2000/svg">
<g clip-path="url(#clip0)">
<path d="M47.8356 11.1996C47.8148 11.1589 47.7909 11.1199 47.7637 11.0835C47.7377 11.0302 47.706 10.9796 47.6697 10.9328L37.9116 0.287613C37.9073 0.282849 37.9012 0.281116 37.8969 0.276785C37.8315 0.213544 37.7574 0.160266 37.6768 0.118684C37.6526 0.106556 37.6339 0.0853311 37.6093 0.0736359C37.4984 0.025556 37.3788 0.000433153 37.258 0H7.98378C7.49388 0 7.09668 0.397201 7.09668 0.887097V54.1129C7.09668 54.6028 7.49388 55 7.98378 55H47.016C47.5059 55 47.9031 54.6028 47.9031 54.1129V11.5323C47.9023 11.4179 47.8793 11.3053 47.8356 11.1996ZM38.1451 3.16678L44.9997 10.6452H38.1451V3.16678ZM8.87087 53.2258V1.77419H36.3709V11.5323C36.3709 12.0222 36.7681 12.4194 37.258 12.4194H46.1289V53.2258H8.87087Z" fill="#00659E"/>
<path d="M14.1937 16.855C13.7038 16.855 13.3066 17.2522 13.3066 17.7421C13.3066 18.232 13.7038 18.6292 14.1937 18.6292H26.6131C27.103 18.6292 27.5002 18.232 27.5002 17.7421C27.5002 17.2522 27.103 16.855 26.6131 16.855H24.8389V11.5324H26.6131C26.9839 11.532 27.3157 11.3007 27.4443 10.9529C27.573 10.6046 27.4712 10.2135 27.1896 9.97222L20.9799 4.64963C20.6481 4.36549 20.1587 4.36549 19.8269 4.64963L13.6172 9.97222C13.3357 10.2135 13.2339 10.6046 13.3625 10.9529C13.4912 11.3007 13.823 11.532 14.1937 11.5324H15.9679V16.855H14.1937ZM20.4034 6.49097L24.2178 9.75824H16.5891L20.4034 6.49097ZM17.7421 11.5324H23.0647V16.855H17.7421V11.5324Z" fill="#FFB820"/>
<path d="M40.8066 23.0645H14.1937C13.7038 23.0645 13.3066 23.4617 13.3066 23.9515C13.3066 24.4414 13.7038 24.8386 14.1937 24.8386H40.8066C41.2965 24.8386 41.6937 24.4414 41.6937 23.9515C41.6937 23.4617 41.2965 23.0645 40.8066 23.0645Z" fill="#FFB820"/>
<path d="M14.1937 31.9353H30.1615C30.6514 31.9353 31.0486 31.5381 31.0486 31.0482C31.0486 30.5583 30.6514 30.1611 30.1615 30.1611H14.1937C13.7038 30.1611 13.3066 30.5583 13.3066 31.0482C13.3066 31.5381 13.7038 31.9353 14.1937 31.9353Z" fill="#FFB820"/>
<path d="M40.8066 37.2583H14.1937C13.7038 37.2583 13.3066 37.6555 13.3066 38.1454C13.3066 38.6353 13.7038 39.0325 14.1937 39.0325H40.8066C41.2965 39.0325 41.6937 38.6353 41.6937 38.1454C41.6937 37.6555 41.2965 37.2583 40.8066 37.2583Z" fill="#FFB820"/>
<path d="M22.1776 44.355H14.1937C13.7038 44.355 13.3066 44.7522 13.3066 45.2421C13.3066 45.732 13.7038 46.1292 14.1937 46.1292H22.1776C22.6675 46.1292 23.0647 45.732 23.0647 45.2421C23.0647 44.7522 22.6675 44.355 22.1776 44.355Z" fill="#FFB820"/>
<path d="M26.6125 44.355H24.8383C24.3484 44.355 23.9512 44.7522 23.9512 45.2421C23.9512 45.732 24.3484 46.1292 24.8383 46.1292H26.6125C27.1024 46.1292 27.4996 45.732 27.4996 45.2421C27.4996 44.7522 27.1024 44.355 26.6125 44.355Z" fill="#FFB820"/>
<path d="M36.371 31.9353C36.8609 31.9353 37.2581 31.5381 37.2581 31.0482C37.2581 30.5583 36.8609 30.1611 36.371 30.1611H32.8226C32.3327 30.1611 31.9355 30.5583 31.9355 31.0482C31.9355 31.5381 32.3327 31.9353 32.8226 31.9353H36.371Z" fill="#FFB820"/>
<path d="M40.8068 30.1611H39.0326C38.5427 30.1611 38.1455 30.5583 38.1455 31.0482C38.1455 31.5381 38.5427 31.9353 39.0326 31.9353H40.8068C41.2967 31.9353 41.6939 31.5381 41.6939 31.0482C41.6939 30.5583 41.2967 30.1611 40.8068 30.1611Z" fill="#FFB820"/>
</g>
<defs>
<clipPath id="clip0">
<rect width="55" height="55" fill="white"/>
</clipPath>
</defs>
</svg>
