<svg width="63" height="63" viewBox="0 0 63 63" fill="none" xmlns="http://www.w3.org/2000/svg">
<rect width="63" height="63" rx="6" fill="white"/>
<path d="M51.6636 41.086C48.6542 39.4625 46.5148 36.6247 45.7941 33.3001L45.5138 32.0075C44.9973 29.6245 43.6674 27.4692 41.7694 25.9384C40.2036 24.6757 38.304 23.8826 36.3181 23.643C37.4575 22.4473 38.1592 20.831 38.1592 19.053V17.457C38.1592 13.7846 35.1714 10.7969 31.499 10.7969C27.8266 10.7969 24.8388 13.7846 24.8388 17.457V19.053C24.8388 20.831 25.5405 22.4472 26.6798 23.6429C24.6939 23.8825 22.7944 24.6757 21.2285 25.9383C20.3655 26.6343 19.6172 27.4597 19.0043 28.3919C18.6784 28.8877 18.8161 29.5537 19.3119 29.8796C19.8075 30.2054 20.4735 30.0678 20.7996 29.5721C21.2897 28.8265 21.8879 28.1665 22.5771 27.6107C23.768 26.6503 25.2005 26.0305 26.7039 25.8074L30.5852 32.4449C30.7778 32.7743 31.1309 32.9768 31.5124 32.9768C31.894 32.9768 32.2471 32.7743 32.4397 32.4449L36.3187 25.8112C37.813 26.0375 39.2363 26.6558 40.4206 27.6108C41.9379 28.8345 43.001 30.5576 43.414 32.4627L43.6943 33.7554C44.5481 37.694 47.081 41.055 50.6435 42.9768C51.2984 43.3301 51.6052 44.0911 51.3729 44.7863C51.2304 45.2129 50.9217 45.539 50.504 45.7048C50.0866 45.8702 49.6191 45.8425 49.2214 45.6287C48.2264 45.094 47.2952 44.4655 46.4347 43.7508C46.4335 43.7497 46.4323 43.7487 46.431 43.7477C45.8027 43.2255 45.212 42.6576 44.6631 42.0453C42.7222 39.8803 41.3709 37.234 40.7548 34.3927L40.4745 33.0999C40.349 32.52 39.777 32.1525 39.1971 32.2776C38.6936 32.3868 38.3503 32.8324 38.3507 33.3274H38.3504V33.335V33.3411V44.2714L31.4987 47.4042L24.6472 44.2715V33.341C24.6472 33.3389 24.6472 33.3369 24.6472 33.3348V33.3273H24.6469C24.6473 32.8323 24.304 32.3866 23.8005 32.2775C23.2205 32.1519 22.6487 32.5201 22.523 33.0998L22.2428 34.3926C21.6268 37.2339 20.2753 39.8802 18.3344 42.045C17.0329 43.4968 15.4993 44.7024 13.7762 45.6285C13.3785 45.8425 12.9112 45.8701 12.4937 45.7046C12.0758 45.5388 11.7673 45.2127 11.6248 44.7861C11.3925 44.0909 11.6992 43.3299 12.3542 42.9766C14.3089 41.9222 16.003 40.3879 17.2531 38.54C17.5856 38.0486 17.4567 37.3807 16.9654 37.0483C16.4738 36.7157 15.8061 36.8447 15.4737 37.3361C14.4168 38.8984 12.9854 40.195 11.3342 41.0858C9.75778 41.9361 9.02302 43.7786 9.5872 45.4669C9.9289 46.4896 10.6997 47.3042 11.7018 47.7016C12.1378 47.8745 12.5961 47.9602 13.0533 47.9602C13.6528 47.9602 14.2505 47.8127 14.7935 47.5209C14.7946 47.5203 14.7957 47.5197 14.7967 47.519C14.7909 48.1185 14.8917 48.7218 15.1053 49.3025C15.633 50.7366 16.7665 51.8379 18.2152 52.324L20.7721 53.182C20.3892 53.8922 20.2254 54.7214 20.337 55.5701C20.4913 56.7425 21.155 57.7742 22.1581 58.4004C22.7934 58.7971 23.5149 59 24.2434 59C24.6653 59 25.0896 58.9319 25.5008 58.7939L31.499 56.7815L37.497 58.794C37.9082 58.932 38.3324 59.0001 38.7543 59.0001C39.4828 59.0001 40.2044 58.7971 40.8395 58.4006C41.8427 57.7743 42.5065 56.7426 42.6608 55.5701C42.7719 54.726 42.6113 53.8961 42.2255 53.1822L44.7826 52.3242C46.2313 51.8382 47.3648 50.7369 47.8924 49.3027C48.1061 48.7221 48.2068 48.1188 48.2011 47.5193C48.2021 47.5198 48.2032 47.5204 48.2043 47.5211C48.7473 47.813 49.345 47.9604 49.9446 47.9604C50.4018 47.9604 50.8601 47.8746 51.2961 47.7018C52.2982 47.3044 53.069 46.4899 53.4107 45.4671C53.9748 43.7788 53.2401 41.9363 51.6636 41.086ZM31.5126 29.7746L29.1378 25.7132H33.8875L31.5126 29.7746ZM36.0107 19.053C36.0107 21.54 33.9879 23.5635 31.501 23.5647H31.4969C29.01 23.5636 26.9872 21.5401 26.9872 19.053V17.457C26.9872 14.9692 29.0111 12.9453 31.4989 12.9453C33.9867 12.9453 36.0106 14.9692 36.0106 17.457V19.053H36.0107ZM40.499 39.8262C41.0305 40.8117 41.6485 41.7505 42.3479 42.6296C41.9268 42.7015 41.5086 42.8273 41.1033 43.0126L40.499 43.2889V39.8262ZM22.499 39.8262V43.289L21.8946 43.0126C21.4894 42.8273 21.0712 42.7015 20.65 42.6297C21.3494 41.7506 21.9675 40.8117 22.499 39.8262ZM18.8988 50.2874C18.0711 50.0096 17.4233 49.3803 17.1218 48.5608C16.8202 47.7413 16.9056 46.8423 17.3561 46.0943C18.108 44.845 19.6751 44.3602 21.0013 44.9666L28.9156 48.5853L22.607 51.4698C22.5815 51.4815 22.5567 51.4941 22.5314 51.5062L18.8988 50.2874ZM40.5307 55.2899C40.4605 55.8236 40.1584 56.2932 39.7018 56.5781C39.2453 56.8631 38.6907 56.9283 38.1805 56.7572L34.8759 55.6483L40.1148 53.8904C40.4385 54.2722 40.5974 54.7827 40.5307 55.2899ZM45.8761 48.5608C45.5746 49.3803 44.9268 50.0096 44.0991 50.2874L24.8176 56.7573C24.3072 56.9287 23.7527 56.8631 23.2962 56.5783C22.8396 56.2932 22.5374 55.8237 22.4673 55.2901C22.3638 54.5037 22.779 53.7536 23.5004 53.4238L41.9967 44.9666C42.3819 44.7904 42.7873 44.7064 43.1874 44.7064C44.1643 44.7064 45.1084 45.208 45.6418 46.0942C46.0923 46.8424 46.1777 47.7414 45.8761 48.5608Z" fill="#00659E"/>
<path d="M9.58594 29.7037C11.5566 29.2204 13.0234 27.4398 13.0234 25.3223C13.0234 22.8345 10.9995 20.8105 8.51172 20.8105C6.02394 20.8105 4 22.8345 4 25.3223C4 27.4399 5.46685 29.2204 7.4375 29.7037V35.4199C7.4375 36.0131 7.91843 36.4941 8.51172 36.4941C9.10501 36.4941 9.58594 36.0131 9.58594 35.4199V29.7037ZM6.14844 25.3223C6.14844 24.0191 7.20858 22.959 8.51172 22.959C9.81485 22.959 10.875 24.0191 10.875 25.3223C10.875 26.6254 9.81485 27.6855 8.51172 27.6855C7.20858 27.6855 6.14844 26.6253 6.14844 25.3223Z" fill="#FFB820"/>
<path d="M16.6758 12.8931V18.6094C16.6758 19.2027 17.1567 19.6836 17.75 19.6836C18.3433 19.6836 18.8242 19.2027 18.8242 18.6094V12.8931C20.7949 12.4098 22.2617 10.6292 22.2617 8.51172C22.2617 6.02394 20.2378 4 17.75 4C15.2622 4 13.2383 6.02394 13.2383 8.51172C13.2383 10.6292 14.7051 12.4098 16.6758 12.8931ZM17.75 6.14833C19.0531 6.14833 20.1133 7.20848 20.1133 8.51161C20.1133 9.81475 19.0531 10.8749 17.75 10.8749C16.4469 10.8749 15.3867 9.81475 15.3867 8.51161C15.3867 7.20848 16.4469 6.14833 17.75 6.14833Z" fill="#FFB820"/>
<path d="M59 25.3223C59 22.8345 56.9761 20.8105 54.4883 20.8105C52.0005 20.8105 49.9766 22.8345 49.9766 25.3223C49.9766 27.4399 51.4434 29.2204 53.4141 29.7037V35.4199C53.4141 36.0131 53.895 36.4941 54.4883 36.4941C55.0816 36.4941 55.5625 36.0131 55.5625 35.4199V29.7037C57.5332 29.2204 59 27.4398 59 25.3223ZM54.4883 27.6855C53.1851 27.6855 52.125 26.6254 52.125 25.3223C52.125 24.0191 53.1851 22.959 54.4883 22.959C55.7914 22.959 56.8516 24.0191 56.8516 25.3223C56.8516 26.6254 55.7914 27.6855 54.4883 27.6855Z" fill="#FFB820"/>
<path d="M44.1758 12.8931V18.6094C44.1758 19.2027 44.6567 19.6836 45.25 19.6836C45.8433 19.6836 46.3242 19.2027 46.3242 18.6094V12.8931C48.2949 12.4098 49.7617 10.6292 49.7617 8.51172C49.7617 6.02394 47.7378 4 45.25 4C42.7622 4 40.7383 6.02394 40.7383 8.51172C40.7383 10.6292 42.2051 12.4098 44.1758 12.8931ZM45.25 6.14833C46.5531 6.14833 47.6133 7.20848 47.6133 8.51161C47.6133 9.81475 46.5531 10.8749 45.25 10.8749C43.9469 10.8749 42.8867 9.81475 42.8867 8.51161C42.8867 7.20848 43.9469 6.14833 45.25 6.14833Z" fill="#FFB820"/>
<path d="M17.4944 32.7679C17.2946 32.9677 17.1797 33.2448 17.1797 33.5273C17.1797 33.8099 17.2946 34.087 17.4944 34.2867C17.6942 34.4865 17.9714 34.6016 18.2539 34.6016C18.5364 34.6016 18.8136 34.4866 19.0134 34.2867C19.2132 34.087 19.3281 33.8108 19.3281 33.5273C19.3281 33.2448 19.2132 32.9677 19.0134 32.7679C18.8136 32.5681 18.5364 32.4531 18.2539 32.4531C17.9714 32.4532 17.6942 32.5681 17.4944 32.7679Z" fill="#00659E"/>
</svg>
