<svg width="55" height="55" viewBox="0 0 55 55" fill="none" xmlns="http://www.w3.org/2000/svg">
<path d="M47.6646 37.086C44.6551 35.4625 42.5157 32.6247 41.795 29.3001L41.5148 28.0075C40.9983 25.6245 39.6684 23.4692 37.7704 21.9384C36.2046 20.6757 34.3049 19.8826 32.319 19.643C33.4585 18.4473 34.1601 16.831 34.1601 15.053V13.457C34.1601 9.7846 31.1724 6.79688 27.5 6.79688C23.8275 6.79688 20.8398 9.7846 20.8398 13.457V15.053C20.8398 16.831 21.5415 18.4472 22.6808 19.6429C20.6949 19.8825 18.7954 20.6757 17.2295 21.9383C16.3665 22.6343 15.6182 23.4597 15.0053 24.3919C14.6794 24.8877 14.8171 25.5537 15.3129 25.8796C15.8085 26.2054 16.4745 26.0678 16.8005 25.5721C17.2907 24.8265 17.8888 24.1665 18.5781 23.6107C19.7689 22.6503 21.2015 22.0305 22.7049 21.8074L26.5861 28.4449C26.7787 28.7743 27.1318 28.9768 27.5134 28.9768C27.895 28.9768 28.2481 28.7743 28.4407 28.4449L32.3197 21.8112C33.814 22.0375 35.2373 22.6558 36.4216 23.6108C37.9389 24.8345 39.002 26.5576 39.415 28.4627L39.6953 29.7554C40.549 33.694 43.0819 37.055 46.6445 38.9768C47.2993 39.3301 47.6061 40.0911 47.3739 40.7863C47.2313 41.2129 46.9227 41.539 46.5049 41.7048C46.0876 41.8702 45.6201 41.8425 45.2223 41.6287C44.2274 41.094 43.2962 40.4655 42.4357 39.7508C42.4345 39.7497 42.4332 39.7487 42.4319 39.7477C41.8036 39.2255 41.213 38.6576 40.6641 38.0453C38.7232 35.8803 37.3718 33.234 36.7558 30.3927L36.4755 29.0999C36.3499 28.52 35.778 28.1525 35.198 28.2776C34.6946 28.3868 34.3512 28.8324 34.3517 29.3274H34.3513V29.335V29.3411V40.2714L27.4997 43.4042L20.6482 40.2715V29.341C20.6482 29.3389 20.6482 29.3369 20.6482 29.3348V29.3273H20.6479C20.6483 28.8323 20.305 28.3866 19.8015 28.2775C19.2215 28.1519 18.6497 28.5201 18.524 29.0998L18.2438 30.3926C17.6278 33.2339 16.2763 35.8802 14.3354 38.045C13.0339 39.4968 11.5002 40.7024 9.77719 41.6285C9.37952 41.8425 8.91213 41.8701 8.49469 41.7046C8.07681 41.5388 7.7683 41.2127 7.62575 40.7861C7.3935 40.0909 7.70019 39.3299 8.35514 38.9766C10.3099 37.9222 12.0039 36.3879 13.2541 34.54C13.5866 34.0486 13.4577 33.3807 12.9663 33.0483C12.4748 32.7157 11.807 32.8447 11.4747 33.3361C10.4178 34.8984 8.98635 36.195 7.33517 37.0858C5.75876 37.9361 5.02399 39.7786 5.58817 41.4669C5.92988 42.4896 6.70063 43.3042 7.70277 43.7016C8.1388 43.8745 8.59706 43.9602 9.05425 43.9602C9.65377 43.9602 10.2515 43.8127 10.7945 43.5209C10.7956 43.5203 10.7966 43.5197 10.7977 43.519C10.7919 44.1185 10.8927 44.7218 11.1063 45.3025C11.634 46.7366 12.7675 47.8379 14.2162 48.324L16.773 49.182C16.3902 49.8922 16.2264 50.7214 16.338 51.5701C16.4922 52.7425 17.156 53.7742 18.1591 54.4004C18.7944 54.7971 19.5158 55 20.2444 55C20.6662 55 21.0905 54.9319 21.5018 54.7939L27.5 52.7815L33.498 54.794C33.9092 54.932 34.3334 55.0001 34.7553 55.0001C35.4838 55.0001 36.2053 54.7971 36.8405 54.4006C37.8436 53.7743 38.5075 52.7426 38.6618 51.5701C38.7728 50.726 38.6122 49.8961 38.2265 49.1822L40.7836 48.3242C42.2322 47.8382 43.3658 46.7369 43.8934 45.3027C44.1071 44.7221 44.2077 44.1188 44.202 43.5193C44.2031 43.5198 44.2042 43.5204 44.2053 43.5211C44.7483 43.813 45.346 43.9604 45.9456 43.9604C46.4028 43.9604 46.861 43.8746 47.2971 43.7018C48.2992 43.3044 49.07 42.4899 49.4117 41.4671C49.9757 39.7788 49.2411 37.9363 47.6646 37.086ZM27.5136 25.7746L25.1387 21.7132H29.8885L27.5136 25.7746ZM32.0117 15.053C32.0117 17.54 29.9888 19.5635 27.502 19.5647H27.4978C25.011 19.5636 22.9881 17.5401 22.9881 15.053V13.457C22.9881 10.9692 25.0121 8.94531 27.4999 8.94531C29.9877 8.94531 32.0116 10.9692 32.0116 13.457V15.053H32.0117ZM36.5 35.8262C37.0315 36.8117 37.6495 37.7505 38.3488 38.6296C37.9277 38.7015 37.5095 38.8273 37.1042 39.0126L36.5 39.2889V35.8262ZM18.5 35.8262V39.289L17.8956 39.0126C17.4904 38.8273 17.0722 38.7015 16.651 38.6297C17.3503 37.7506 17.9684 36.8117 18.5 35.8262ZM14.8998 46.2874C14.072 46.0096 13.4243 45.3803 13.1227 44.5608C12.8212 43.7413 12.9066 42.8423 13.357 42.0943C14.109 40.845 15.6761 40.3602 17.0023 40.9666L24.9166 44.5853L18.608 47.4698C18.5825 47.4815 18.5576 47.4941 18.5324 47.5062L14.8998 46.2874ZM36.5317 51.2899C36.4614 51.8236 36.1594 52.2932 35.7028 52.5781C35.2463 52.8631 34.6917 52.9283 34.1815 52.7572L30.8769 51.6483L36.1157 49.8904C36.4395 50.2722 36.5984 50.7827 36.5317 51.2899ZM41.8771 44.5608C41.5756 45.3803 40.9278 46.0096 40.1 46.2874L20.8186 52.7573C20.3082 52.9287 19.7537 52.8631 19.2971 52.5783C18.8406 52.2932 18.5384 51.8237 18.4683 51.2901C18.3648 50.5037 18.78 49.7536 19.5013 49.4238L37.9977 40.9666C38.3829 40.7904 38.7883 40.7064 39.1883 40.7064C40.1652 40.7064 41.1094 41.208 41.6428 42.0942C42.0932 42.8424 42.1786 43.7414 41.8771 44.5608Z" fill="#00659E"/>
<path d="M5.58594 25.7042C7.55659 25.2209 9.02344 23.4403 9.02344 21.3228C9.02344 18.835 6.9995 16.811 4.51172 16.811C2.02394 16.811 0 18.835 0 21.3228C0 23.4404 1.46685 25.2209 3.4375 25.7042V31.4204C3.4375 32.0136 3.91843 32.4946 4.51172 32.4946C5.10501 32.4946 5.58594 32.0136 5.58594 31.4204V25.7042ZM2.14844 21.3228C2.14844 20.0196 3.20858 18.9595 4.51172 18.9595C5.81485 18.9595 6.875 20.0196 6.875 21.3228C6.875 22.6259 5.81485 23.686 4.51172 23.686C3.20858 23.686 2.14844 22.6258 2.14844 21.3228Z" fill="#FFB820"/>
<path d="M12.6758 8.89362V14.6099C12.6758 15.2032 13.1567 15.6841 13.75 15.6841C14.3433 15.6841 14.8242 15.2032 14.8242 14.6099V8.89362C16.7949 8.41033 18.2617 6.62971 18.2617 4.51221C18.2617 2.02442 16.2378 0.000488281 13.75 0.000488281C11.2622 0.000488281 9.23828 2.02442 9.23828 4.51221C9.23828 6.62971 10.7051 8.41033 12.6758 8.89362ZM13.75 2.14882C15.0531 2.14882 16.1133 3.20897 16.1133 4.5121C16.1133 5.81523 15.0531 6.87538 13.75 6.87538C12.4469 6.87538 11.3867 5.81523 11.3867 4.5121C11.3867 3.20897 12.4469 2.14882 13.75 2.14882Z" fill="#FFB820"/>
<path d="M55 21.3228C55 18.835 52.9761 16.811 50.4883 16.811C48.0005 16.811 45.9766 18.835 45.9766 21.3228C45.9766 23.4404 47.4434 25.2209 49.4141 25.7042V31.4204C49.4141 32.0136 49.895 32.4946 50.4883 32.4946C51.0816 32.4946 51.5625 32.0136 51.5625 31.4204V25.7042C53.5332 25.2209 55 23.4403 55 21.3228ZM50.4883 23.686C49.1851 23.686 48.125 22.6259 48.125 21.3228C48.125 20.0196 49.1851 18.9595 50.4883 18.9595C51.7914 18.9595 52.8516 20.0196 52.8516 21.3228C52.8516 22.6259 51.7914 23.686 50.4883 23.686Z" fill="#FFB820"/>
<path d="M40.1758 8.89362V14.6099C40.1758 15.2032 40.6567 15.6841 41.25 15.6841C41.8433 15.6841 42.3242 15.2032 42.3242 14.6099V8.89362C44.2949 8.41033 45.7617 6.62971 45.7617 4.51221C45.7617 2.02442 43.7378 0.000488281 41.25 0.000488281C38.7622 0.000488281 36.7383 2.02442 36.7383 4.51221C36.7383 6.62971 38.2051 8.41033 40.1758 8.89362ZM41.25 2.14882C42.5531 2.14882 43.6133 3.20897 43.6133 4.5121C43.6133 5.81523 42.5531 6.87538 41.25 6.87538C39.9469 6.87538 38.8867 5.81523 38.8867 4.5121C38.8867 3.20897 39.9469 2.14882 41.25 2.14882Z" fill="#FFB820"/>
<path d="M13.4954 28.7679C13.2956 28.9677 13.1807 29.2448 13.1807 29.5273C13.1807 29.8099 13.2956 30.087 13.4954 30.2867C13.6952 30.4865 13.9724 30.6016 14.2549 30.6016C14.5374 30.6016 14.8146 30.4866 15.0144 30.2867C15.2142 30.087 15.3291 29.8108 15.3291 29.5273C15.3291 29.2448 15.2142 28.9677 15.0144 28.7679C14.8146 28.5681 14.5374 28.4531 14.2549 28.4531C13.9724 28.4532 13.6952 28.5681 13.4954 28.7679Z" fill="#00659E"/>
</svg>
