<svg width="63" height="63" viewBox="0 0 63 63" fill="none" xmlns="http://www.w3.org/2000/svg">
<rect width="63" height="63" rx="6" fill="white"/>
<g clip-path="url(#clip0)">
<path d="M47.9435 32.8666L50.4448 30.3596C51.1804 29.6222 50.0397 28.4841 49.3042 29.2215L46.8699 31.6615C46.0918 32.2793 45.1951 32.2654 44.4406 31.6462L47.8348 28.2441C48.5704 27.5067 47.4296 26.3684 46.6941 27.106L41.3327 32.4799C40.6681 33.1462 39.5608 33.1462 38.8961 32.4799C38.2229 31.8053 38.2229 30.7075 38.8959 30.0327C38.896 30.0326 38.8961 30.0326 38.8961 30.0325L39.7668 29.1598C40.5025 28.4224 39.3616 27.2841 38.6261 28.0217L37.7555 28.8945C37.0908 29.5607 35.9836 29.5607 35.3188 28.8945C34.6455 28.2197 34.6455 27.1218 35.3189 26.447C35.3191 26.4467 35.3192 26.4466 35.3194 26.4464L36.1896 25.5742C36.9253 24.8369 35.7844 23.6987 35.049 24.4363L34.1789 25.3084C33.5294 25.9579 32.3914 25.9601 31.7417 25.3089C30.9716 24.5371 31.2229 23.5305 31.8248 22.7782L32.6123 21.9887C33.3481 21.2514 32.2073 20.1134 31.4717 20.8507L30.6848 21.6396C30.0046 22.2674 28.9284 22.3225 28.2475 21.6402C27.5742 20.9655 27.5742 19.8675 28.2475 19.1927L36.5924 10.8285C38.3285 9.08829 40.9989 8.5987 43.2373 9.6101C43.5431 9.74823 43.9024 9.6825 44.1392 9.4449L48.1978 5.37685C48.9335 4.63957 47.7928 3.50142 47.0572 4.23892L43.3762 7.92855C40.6459 6.93724 37.5247 7.61265 35.4517 9.69055L27.1068 18.0549C24.9606 20.2042 26.6086 23.9146 29.6429 23.7529C29.4123 25.7661 31.1558 27.589 33.2132 27.4168C33.1424 28.3546 33.4641 29.3168 34.1781 30.0325C34.8636 30.7196 35.8242 31.0742 36.7903 31.0023C36.7196 31.9402 37.0412 32.9024 37.7551 33.6181C39.0299 34.8958 41.1952 34.8987 42.473 33.6181L43.3024 32.7868C44.5286 34.0119 46.6836 34.1284 47.9435 32.8666Z" fill="#00659E"/>
<path d="M58.6984 14.7646C58.3835 14.4504 57.8734 14.4509 57.5592 14.7659L53.5006 18.8339C53.2646 19.0707 53.1991 19.4285 53.3363 19.7334C54.346 21.9788 53.8575 24.6572 52.1204 26.3984C51.3848 27.1356 52.5253 28.274 53.261 27.5363C55.3339 25.4586 56.007 22.3304 55.0174 19.5951L58.7 15.904C59.0141 15.589 59.0135 15.0789 58.6984 14.7646Z" fill="#00659E"/>
<path d="M10.5774 34.6237L9.73905 35.464C7.6662 37.5416 6.99304 40.6698 7.98264 43.4052L4.3001 47.0963C3.56453 47.8336 4.70494 48.9719 5.44071 48.2344L9.49931 44.1663C9.7354 43.9297 9.80082 43.5718 9.66365 43.2669C8.65397 41.0215 9.14248 38.3431 10.8796 36.6019L11.7179 35.7617C12.4537 35.0244 11.3129 33.8862 10.5774 34.6237Z" fill="#00659E"/>
<path d="M33.6169 42.4966C33.6172 42.4963 33.6175 42.4959 33.6179 42.4956C34.916 41.1932 34.9157 39.075 33.6169 37.7732C32.9314 37.0861 31.9708 36.7316 31.0046 36.8034C31.0754 35.8656 30.7538 34.9034 30.0398 34.1877C29.3546 33.5009 28.3934 33.1455 27.4274 33.218C27.4982 32.2802 27.1766 31.318 26.4627 30.6023C25.7585 29.8965 24.7624 29.5419 23.7722 29.6392C23.8202 28.7258 23.497 27.7962 22.8025 27.1C21.5277 25.8223 19.3624 25.8194 18.0847 27.1L13.4652 31.7301C12.7295 32.4675 13.87 33.6053 14.6058 32.8681L19.2252 28.2381C19.8898 27.5718 20.9972 27.5718 21.6617 28.2381C22.3349 28.9128 22.335 30.0104 21.6621 30.6853C21.662 30.6854 21.6618 30.6855 21.6617 30.6856L20.8741 31.475C20.1386 32.2123 21.2788 33.3506 22.0147 32.613L22.8024 31.8237C23.4866 31.1394 24.5942 31.011 25.3219 31.7404C25.9952 32.4152 25.9952 33.5131 25.3219 34.1879L24.4514 35.0607C23.7158 35.7978 24.8563 36.9363 25.592 36.1986L26.462 35.3265C27.1115 34.677 28.2497 34.6748 28.8992 35.326C29.5725 36.0007 29.5725 37.0986 28.8992 37.7735C28.899 37.7737 28.8989 37.7738 28.8987 37.774L28.0285 38.6462C27.293 39.3834 28.4335 40.5219 29.1691 39.7841L30.0397 38.9114C30.7044 38.2452 31.8115 38.2451 32.4763 38.9114C33.1495 39.5862 33.1495 40.684 32.4763 41.3589L31.0767 42.7618C31.0767 42.7618 31.0767 42.7618 31.0766 42.7619L27.1149 46.7329C26.3793 47.4702 27.5197 48.6084 28.2555 47.8709L31.6469 44.4715C32.2929 45.2251 32.2512 46.1556 31.6596 46.9091L26.4085 52.1723C24.6724 53.9124 22.0018 54.402 19.7636 53.3907C19.458 53.2526 19.0987 53.3184 18.8617 53.5559L14.8031 57.6239C14.0675 58.3612 15.208 59.4995 15.9437 58.762L19.6248 55.0723C22.355 56.0636 25.4762 55.3882 27.5492 53.3103L32.8671 47.9801C34.287 46.558 33.6893 44.6431 32.8392 43.2766L33.6169 42.4966Z" fill="#00659E"/>
<path d="M14.2782 15.4475C15.0099 16.1915 16.1563 15.0591 15.4265 14.3175L10.3198 9.12748C9.58929 8.38483 8.44083 9.51502 9.17145 10.2576L14.2782 15.4475Z" fill="#FFB820"/>
<path d="M18.9719 20.1406C19.6926 20.9013 20.8551 19.7858 20.1416 19.0326L18.6435 17.4512C17.9271 16.6951 16.7575 17.8032 17.4738 18.5593L18.9719 20.1406Z" fill="#FFB820"/>
<path d="M11.9679 24.4303L6.19657 22.8339C5.19258 22.5562 4.76304 24.109 5.76692 24.3867L11.5382 25.9832C12.5066 26.2508 12.9614 24.7052 11.9679 24.4303Z" fill="#FFB820"/>
<path d="M24.7395 12.4152C24.9964 13.4059 26.5615 13.0228 26.2991 12.0108L24.7961 6.21451C24.5345 5.20623 22.975 5.61064 23.2365 6.61892L24.7395 12.4152Z" fill="#FFB820"/>
<path d="M47.3501 46.3023C46.6197 45.5596 45.4711 46.6899 46.2017 47.4324L51.3085 52.6225C52.0402 53.3664 53.1866 52.2341 52.4569 51.4924L47.3501 46.3023Z" fill="#FFB820"/>
<path d="M42.6552 41.6085C41.9389 40.8523 40.7692 41.9605 41.4856 42.7165L42.9837 44.2979C43.7043 45.0586 44.8668 43.943 44.1533 43.1898L42.6552 41.6085Z" fill="#FFB820"/>
<path d="M55.8614 37.362L50.0901 35.7655C49.0861 35.4879 48.6566 37.0406 49.6605 37.3184L55.4318 38.9149C56.4002 39.1823 56.8551 37.6369 55.8614 37.362Z" fill="#FFB820"/>
<path d="M36.8859 49.3337C36.6244 48.3254 35.0649 48.7298 35.3263 49.7381L36.8293 55.5344C37.0863 56.525 38.6514 56.1419 38.389 55.13L36.8859 49.3337Z" fill="#FFB820"/>
</g>
<defs>
<clipPath id="clip0">
<rect width="55" height="55" fill="white" transform="translate(4 4)"/>
</clipPath>
</defs>
</svg>
