<svg width="32" height="38" viewBox="0 0 32 38" fill="none" xmlns="http://www.w3.org/2000/svg">
<path d="M28.75 0H2.50001C1.8372 0.000744409 1.20175 0.264375 0.73307 0.733055C0.26439 1.20173 0.000758713 1.83719 1.43042e-05 2.5V28.2162C-0.00156135 28.6808 0.127065 29.1365 0.371309 29.5317C0.615554 29.927 0.965645 30.2459 1.38189 30.4523L14.5069 37.0148C14.8543 37.1874 15.237 37.2773 15.625 37.2773C16.013 37.2773 16.3957 37.1874 16.7431 37.0148L29.8681 30.4523C30.2844 30.2459 30.6345 29.927 30.8787 29.5317C31.123 29.1365 31.2516 28.6808 31.25 28.2162V2.5C31.2493 1.83719 30.9856 1.20173 30.517 0.733055C30.0483 0.264375 29.4128 0.000744409 28.75 0ZM30 28.2162C30.0008 28.4485 29.9365 28.6764 29.8144 28.874C29.6922 29.0716 29.5171 29.231 29.309 29.3342L16.184 35.8967C16.0103 35.983 15.819 36.028 15.625 36.028C15.4311 36.028 15.2397 35.983 15.066 35.8967L1.94103 29.3342C1.73288 29.231 1.55782 29.0716 1.43568 28.874C1.31354 28.6764 1.24922 28.4485 1.25001 28.2162V2.5C1.25041 2.1686 1.38223 1.85089 1.61657 1.61655C1.8509 1.38221 2.16861 1.25039 2.50001 1.25H28.75C29.0814 1.25039 29.3991 1.38221 29.6335 1.61655C29.8678 1.85089 29.9996 2.1686 30 2.5V28.2162Z" fill="#00659E"/>
<path d="M27.5002 3.125H3.75018C3.58442 3.125 3.42545 3.19085 3.30824 3.30806C3.19103 3.42527 3.12518 3.58424 3.12518 3.75V27.4437C3.12519 27.5597 3.15751 27.6735 3.21853 27.7722C3.27954 27.871 3.36684 27.9507 3.47065 28.0027L15.3457 33.9402C15.4324 33.9836 15.5281 34.0062 15.6252 34.0062C15.7222 34.0062 15.8179 33.9836 15.9047 33.9402L27.7797 28.0027C27.8835 27.9507 27.9708 27.871 28.0318 27.7722C28.0929 27.6735 28.1252 27.5597 28.1252 27.4437V3.75C28.1252 3.58424 28.0593 3.42527 27.9421 3.30806C27.8249 3.19085 27.6659 3.125 27.5002 3.125ZM26.8752 18.125H21.8752V15.4253L23.0224 15.6165C23.112 15.6314 23.2037 15.6266 23.2912 15.6025C23.3787 15.5784 23.4599 15.5355 23.5292 15.4769C23.5984 15.4182 23.6541 15.3452 23.6922 15.2628C23.7304 15.1804 23.7502 15.0908 23.7502 15V12.5C23.7502 12.3521 23.6977 12.2089 23.6021 12.096C23.5064 11.9831 23.3739 11.9078 23.2279 11.8835L16.2502 10.7205V4.375H26.8752V18.125ZM17.5002 23.125V20C17.5002 19.5027 17.3026 19.0258 16.951 18.6742C16.5994 18.3225 16.1225 18.125 15.6252 18.125C15.1279 18.125 14.651 18.3225 14.2994 18.6742C13.9477 19.0258 13.7502 19.5027 13.7502 20V23.125H10.6252V15.217L15.6252 14.3836L20.6252 15.217V23.125H17.5002ZM16.2502 23.125H15.0002V20C15.0002 19.8342 15.066 19.6753 15.1832 19.5581C15.3005 19.4408 15.4594 19.375 15.6252 19.375C15.7909 19.375 15.9499 19.4408 16.0671 19.5581C16.1843 19.6753 16.2502 19.8342 16.2502 20V23.125ZM15.6252 11.8836L22.5002 13.0295V14.2622L15.7279 13.1335C15.6599 13.1222 15.5905 13.1222 15.5224 13.1335L8.75018 14.2622V13.0295L15.6252 11.8836ZM15.0002 4.375V10.7205L8.02245 11.8835C7.87651 11.9078 7.74394 11.9831 7.64831 12.096C7.55267 12.2089 7.50019 12.3521 7.50018 12.5V15C7.50019 15.0908 7.51996 15.1804 7.55813 15.2628C7.59629 15.3452 7.65194 15.4182 7.7212 15.4769C7.79046 15.5355 7.87166 15.5784 7.95917 15.6025C8.04668 15.6266 8.13838 15.6314 8.22792 15.6165L9.37518 15.4253V18.125H4.37518V4.375H15.0002ZM4.37518 19.375H9.37518V23.125H8.12518V24.375H15.0002V32.3698L4.37518 27.0573V19.375ZM16.2502 32.3698V24.375H23.1252V23.125H21.8752V19.375H26.8752V27.0573L16.2502 32.3698Z" fill="#00659E"/>
<path d="M15.0002 15.625H16.2502V16.875H15.0002V15.625Z" fill="#00659E"/>
<path d="M5.62518 5.625H6.87518V6.875H5.62518V5.625Z" fill="#00659E"/>
<path d="M5.62518 25H6.87518V26.25H5.62518V25Z" fill="#00659E"/>
<path d="M24.3752 25H25.6252V26.25H24.3752V25Z" fill="#00659E"/>
<path d="M24.3752 5.625H25.6252V6.875H24.3752V5.625Z" fill="#00659E"/>
</svg>
