<svg width="55" height="55" viewBox="0 0 55 55" fill="none" xmlns="http://www.w3.org/2000/svg">
<g clip-path="url(#clip0)">
<path d="M43.9449 28.8666L46.4462 26.3596C47.1819 25.6222 46.0412 24.4841 45.3056 25.2215L42.8713 27.6615C42.0932 28.2793 41.1965 28.2654 40.4421 27.6462L43.8362 24.2441C44.5719 23.5067 43.4311 22.3684 42.6956 23.106L37.3342 28.4799C36.6695 29.1462 35.5623 29.1462 34.8975 28.4799C34.2244 27.8053 34.2244 26.7075 34.8973 26.0327C34.8974 26.0326 34.8975 26.0326 34.8975 26.0325L35.7682 25.1598C36.504 24.4224 35.3631 23.2841 34.6276 24.0217L33.7569 24.8945C33.0922 25.5607 31.985 25.5607 31.3203 24.8945C30.647 24.2197 30.647 23.1218 31.3204 22.447C31.3206 22.4467 31.3207 22.4466 31.3209 22.4464L32.1911 21.5742C32.9267 20.8369 31.7859 19.6987 31.0504 20.4363L30.1804 21.3084C29.5309 21.9579 28.3928 21.9601 27.7432 21.3089C26.973 20.5371 27.2244 19.5305 27.8262 18.7782L28.6138 17.9887C29.3496 17.2514 28.2087 16.1134 27.4732 16.8507L26.6863 17.6396C26.0061 18.2674 24.9298 18.3225 24.2489 17.6402C23.5757 16.9655 23.5757 15.8675 24.2489 15.1927L32.5939 6.82848C34.33 5.08829 37.0004 4.5987 39.2387 5.6101C39.5445 5.74823 39.9038 5.6825 40.1407 5.4449L44.1993 1.37685C44.9349 0.63957 43.7942 -0.498577 43.0587 0.23892L39.3776 3.92855C36.6474 2.93724 33.5262 3.61265 31.4531 5.69055L23.1082 14.0549C20.9621 16.2042 22.61 19.9146 25.6443 19.7529C25.4137 21.7661 27.1573 23.589 29.2146 23.4168C29.1439 24.3546 29.4656 25.3168 30.1795 26.0325C30.865 26.7196 31.8256 27.0742 32.7918 27.0023C32.721 27.9402 33.0426 28.9024 33.7566 29.6181C35.0314 30.8958 37.1967 30.8987 38.4745 29.6181L39.3038 28.7868C40.5301 30.0119 42.6851 30.1284 43.9449 28.8666Z" fill="#00659E"/>
<path d="M54.7006 10.7646C54.3857 10.4504 53.8756 10.4509 53.5614 10.7659L49.5028 14.8339C49.2668 15.0707 49.2013 15.4285 49.3385 15.7334C50.3482 17.9788 49.8597 20.6572 48.1226 22.3984C47.387 23.1356 48.5275 24.274 49.2632 23.5363C51.3361 21.4586 52.0092 18.3304 51.0196 15.5951L54.7021 11.904C55.0163 11.589 55.0157 11.0789 54.7006 10.7646Z" fill="#00659E"/>
<path d="M6.57766 30.6237L5.7393 31.464C3.66644 33.5416 2.99329 36.6698 3.98288 39.4052L0.30034 43.0963C-0.435223 43.8336 0.705179 44.9719 1.44096 44.2344L5.49955 40.1663C5.73565 39.9297 5.80106 39.5718 5.66389 39.2669C4.65421 37.0215 5.14273 34.3431 6.87981 32.6019L7.71816 31.7617C8.45394 31.0244 7.31311 29.8862 6.57766 30.6237Z" fill="#00659E"/>
<path d="M29.6166 38.4966C29.617 38.4963 29.6173 38.4959 29.6176 38.4956C30.9158 37.1932 30.9155 35.075 29.6166 33.7732C28.9311 33.0861 27.9705 32.7316 27.0044 32.8034C27.0752 31.8656 26.7536 30.9034 26.0396 30.1877C25.3544 29.5009 24.3932 29.1455 23.4272 29.218C23.498 28.2802 23.1764 27.318 22.4624 26.6023C21.7582 25.8965 20.7622 25.5419 19.7719 25.6392C19.82 24.7258 19.4967 23.7962 18.8022 23.1C17.5274 21.8223 15.3621 21.8194 14.0844 23.1L9.46493 27.7301C8.72926 28.4675 9.86977 29.6053 10.6056 28.8681L15.2249 24.2381C15.8895 23.5718 16.9969 23.5718 17.6615 24.2381C18.3347 24.9128 18.3348 26.0104 17.6618 26.6853C17.6617 26.6854 17.6616 26.6855 17.6615 26.6856L16.8738 27.475C16.1384 28.2123 17.2786 29.3506 18.0145 28.613L18.8021 27.8237C19.4863 27.1394 20.594 27.011 21.3217 27.7404C21.995 28.4152 21.995 29.5131 21.3217 30.1879L20.4511 31.0607C19.7155 31.7978 20.8561 32.9363 21.5917 32.1986L22.4618 31.3265C23.1113 30.677 24.2494 30.6748 24.899 31.326C25.5722 32.0007 25.5722 33.0986 24.899 33.7735C24.8988 33.7737 24.8986 33.7738 24.8984 33.774L24.0283 34.6462C23.2927 35.3834 24.4332 36.5219 25.1689 35.7841L26.0395 34.9114C26.7041 34.2452 27.8113 34.2451 28.476 34.9114C29.1493 35.5862 29.1493 36.684 28.476 37.3589L27.0764 38.7618C27.0764 38.7618 27.0764 38.7618 27.0763 38.7619L23.1146 42.7329C22.3791 43.4702 23.5195 44.6084 24.2552 43.8709L27.6467 40.4715C28.2927 41.2251 28.251 42.1556 27.6594 42.9091L22.4083 48.1723C20.6722 49.9124 18.0016 50.402 15.7634 49.3907C15.4577 49.2526 15.0984 49.3184 14.8615 49.5559L10.8029 53.6239C10.0673 54.3612 11.2077 55.4995 11.9435 54.762L15.6245 51.0723C18.3547 52.0636 21.4759 51.3882 23.549 49.3103L28.8669 43.9801C30.2868 42.558 29.689 40.6431 28.839 39.2766L29.6166 38.4966Z" fill="#00659E"/>
<path d="M10.277 11.4471C11.0087 12.191 12.1551 11.0586 11.4253 10.317L6.31858 5.12699C5.58807 4.38434 4.43961 5.51454 5.17023 6.25708L10.277 11.4471Z" fill="#FFB820"/>
<path d="M14.9707 16.1406C15.6913 16.9013 16.8539 15.7858 16.1403 15.0326L14.6422 13.4512C13.9259 12.6951 12.7563 13.8032 13.4726 14.5593L14.9707 16.1406Z" fill="#FFB820"/>
<path d="M7.96664 20.4299L2.19535 18.8334C1.19136 18.5557 0.761819 20.1085 1.7657 20.3863L7.53699 21.9827C8.50543 22.2503 8.96021 20.7047 7.96664 20.4299Z" fill="#FFB820"/>
<path d="M20.7414 8.41524C20.9984 9.40591 22.5635 9.02277 22.3011 8.01083L20.7981 2.21451C20.5365 1.20623 18.977 1.61064 19.2384 2.61892L20.7414 8.41524Z" fill="#FFB820"/>
<path d="M43.3505 42.3023C42.6201 41.5596 41.4716 42.6899 42.2022 43.4324L47.309 48.6225C48.0407 49.3664 49.1871 48.2341 48.4574 47.4924L43.3505 42.3023Z" fill="#FFB820"/>
<path d="M38.6569 37.609C37.9406 36.8528 36.7709 37.9609 37.4873 38.717L38.9854 40.2983C39.706 41.059 40.8685 39.9435 40.155 39.1903L38.6569 37.609Z" fill="#FFB820"/>
<path d="M51.8622 33.3625L46.0909 31.766C45.0869 31.4883 44.6573 33.0411 45.6612 33.3189L51.4325 34.9154C52.4009 35.1828 52.8558 33.6374 51.8622 33.3625Z" fill="#FFB820"/>
<path d="M32.8862 45.3341C32.6246 44.3259 31.0651 44.7303 31.3265 45.7385L32.8296 51.5349C33.0865 52.5255 34.6516 52.1424 34.3892 51.1305L32.8862 45.3341Z" fill="#FFB820"/>
</g>
<defs>
<clipPath id="clip0">
<rect width="55" height="55" fill="white"/>
</clipPath>
</defs>
</svg>
