<svg width="63" height="63" viewBox="0 0 63 63" fill="none" xmlns="http://www.w3.org/2000/svg">
<rect width="63" height="63" rx="6" fill="white"/>
<g clip-path="url(#clip0)">
<path d="M4.90071 31.4878H4.9328C5.4271 31.4881 5.8326 31.0964 5.84944 30.6023C6.34535 16.436 18.2314 5.354 32.3977 5.84979C37.8467 6.04057 43.0933 7.96152 47.3772 11.3344H42.4988C41.9925 11.3344 41.5821 11.7449 41.5821 12.2511C41.5821 12.7573 41.9925 13.1677 42.4988 13.1677H49.8319H49.8448C49.9165 13.1619 49.9872 13.1478 50.0556 13.1256C50.1025 13.1188 50.1486 13.1087 50.194 13.0953C50.2197 13.0843 50.2389 13.0614 50.2637 13.0476C50.3459 13.0074 50.4215 12.9545 50.4873 12.8909L50.4965 12.8845C50.5198 12.8526 50.541 12.8193 50.5597 12.7846C50.6078 12.7261 50.6482 12.6617 50.6798 12.593C50.705 12.5199 50.7205 12.4438 50.7257 12.3666C50.7362 12.3288 50.7439 12.2901 50.7486 12.2511V4.91791C50.7486 4.41169 50.3382 4.00126 49.8319 4.00126C49.3257 4.00126 48.9153 4.41169 48.9153 4.91791V10.2271C37.1707 0.604404 19.8488 2.32449 10.2261 14.0692C6.40676 18.7308 4.22492 24.5182 4.01615 30.5409C3.99919 31.0466 4.39507 31.4704 4.90071 31.4878Z" fill="#FFB820"/>
<path d="M12.3209 48.5584C11.9844 48.1787 11.404 48.1437 11.0243 48.4801C10.6445 48.8165 10.6095 49.3969 10.9459 49.7767C11.5769 50.4848 12.2435 51.1603 12.9433 51.8006C13.3238 52.1346 13.9029 52.0968 14.2369 51.7164C14.5614 51.3466 14.5362 50.7868 14.1798 50.4476C13.5283 49.8501 12.9079 49.2196 12.3209 48.5584Z" fill="#FFB820"/>
<path d="M23.2613 55.8165C22.4232 55.5328 21.6005 55.2057 20.7964 54.8366C20.3428 54.612 19.7928 54.7976 19.5681 55.2512C19.3434 55.7048 19.529 56.2548 19.9826 56.4795C19.9982 56.4872 20.014 56.4945 20.0301 56.5013C20.8922 56.8982 21.7747 57.2494 22.6737 57.5536C23.1533 57.7158 23.6737 57.4585 23.836 56.9789C23.9984 56.4992 23.741 55.9788 23.2613 55.8165Z" fill="#FFB820"/>
<path d="M18.4473 53.6041V53.6031C17.6854 53.1518 16.9469 52.6623 16.2345 52.1365C15.837 51.8229 15.2607 51.891 14.947 52.2884C14.6334 52.6859 14.7015 53.2623 15.099 53.5759C15.1139 53.5876 15.129 53.5989 15.1446 53.6097C15.9065 54.1738 16.6968 54.6984 17.5123 55.1817C17.9479 55.4399 18.5104 55.2961 18.7685 54.8604C19.0268 54.4247 18.8829 53.8622 18.4473 53.6041Z" fill="#FFB820"/>
<path d="M10.6622 46.4896C10.1454 45.7712 9.66578 45.0268 9.22488 44.2594C8.97177 43.8203 8.41055 43.6695 7.97136 43.9226C7.53217 44.1757 7.38139 44.7369 7.6345 45.1761C8.1068 45.9966 8.62081 46.7924 9.17446 47.5603C9.47844 47.9651 10.0531 48.0468 10.4579 47.7428C10.8511 47.4475 10.9413 46.8946 10.6622 46.4896Z" fill="#FFB820"/>
<path d="M8.10382 42.2725C8.10382 42.1448 8.077 42.0184 8.02533 41.9016L8.02349 41.8952C7.66474 41.0872 7.34804 40.2611 7.07477 39.4203C6.94185 38.9318 6.43804 38.6435 5.94958 38.7766C5.46113 38.9095 5.17284 39.4133 5.30587 39.9018C5.31366 39.9302 5.32271 39.9582 5.33314 39.9859C5.62566 40.8889 5.96471 41.7762 6.34878 42.6441C6.49579 42.976 6.82464 43.1898 7.18751 43.1895C7.69373 43.1893 8.10393 42.7788 8.10382 42.2725Z" fill="#FFB820"/>
<path d="M5.68482 37.9416C5.68493 37.9416 5.68516 37.9415 5.68528 37.9415C6.17992 37.8361 6.49571 37.3501 6.39109 36.8553C6.20845 35.9894 6.07015 35.1147 5.97677 34.2346C5.92338 33.7309 5.4717 33.3659 4.968 33.4192C4.46431 33.4726 4.09925 33.9243 4.15265 34.428C4.25302 35.3707 4.40163 36.3075 4.59814 37.2348C4.70309 37.7301 5.1896 38.0465 5.68482 37.9416Z" fill="#FFB820"/>
<path d="M57.5333 37.0049C57.533 37.0048 57.5326 37.0048 57.5323 37.0046C57.041 36.883 56.544 37.1825 56.4222 37.6738C56.2098 38.5331 55.9531 39.3809 55.6532 40.2138C55.4815 40.6902 55.7286 41.2155 56.205 41.3871C56.6814 41.5588 57.2066 41.3117 57.3783 40.8353C57.6999 39.9433 57.9753 39.0351 58.2033 38.1147C58.3247 37.6233 58.0248 37.1264 57.5333 37.0049Z" fill="#FFB820"/>
<path d="M28.4296 56.9836C27.551 56.879 26.6785 56.7291 25.8153 56.5345C25.3215 56.4229 24.8306 56.7327 24.719 57.2265C24.6074 57.7204 24.9173 58.2112 25.4111 58.3228C26.3362 58.5314 27.2716 58.692 28.2133 58.8041C28.2498 58.8086 28.2865 58.8106 28.3233 58.8105C28.8295 58.8095 29.239 58.3981 29.238 57.8919C29.2371 57.4283 28.8901 57.0384 28.4296 56.9836Z" fill="#FFB820"/>
<path d="M55.8429 42.234C55.3872 42.014 54.8395 42.2048 54.6191 42.6602C54.2337 43.457 53.8073 44.2333 53.3413 44.9857C53.0821 45.4207 53.2246 45.9833 53.6596 46.2423C54.0839 46.4952 54.6324 46.3663 54.8996 45.951C55.3984 45.1444 55.8553 44.3125 56.2681 43.4586C56.4889 43.003 56.2985 42.4548 55.8429 42.234Z" fill="#FFB820"/>
<path d="M53.1361 47.001C52.7399 46.6859 52.1632 46.7517 51.8481 47.148C51.8426 47.1549 51.8372 47.1619 51.832 47.1688V47.167C51.2911 47.8686 50.7145 48.5416 50.1041 49.1836C49.7551 49.5506 49.7696 50.1312 50.1366 50.4802C50.5036 50.8292 51.0842 50.8147 51.4332 50.4477C52.0859 49.7599 52.7033 49.0394 53.283 48.289C53.5981 47.8928 53.5323 47.3161 53.1361 47.001Z" fill="#FFB820"/>
<path d="M58.0977 31.5442C57.5997 31.5187 57.1753 31.9019 57.15 32.3999C57.1495 32.4091 57.1492 32.4185 57.1489 32.4278C57.1179 33.3124 57.041 34.1948 56.9189 35.0714C56.8498 35.5723 57.1992 36.0344 57.6998 36.1045C57.7424 36.1107 57.7852 36.1138 57.8282 36.1137C58.285 36.113 58.6717 35.776 58.7347 35.3235C58.8652 34.3845 58.9475 33.4394 58.9813 32.492C58.9988 31.9863 58.6034 31.562 58.0977 31.5442Z" fill="#FFB820"/>
<path d="M48.1804 51.0072V51.0099C47.5058 51.5858 46.8022 52.1267 46.0722 52.6306C45.6547 52.9191 45.5504 53.4914 45.8389 53.9088C46.1274 54.3262 46.6997 54.4306 47.1171 54.1421C47.8978 53.6 48.6503 53.0187 49.3721 52.4005C49.7568 52.0714 49.802 51.4928 49.4729 51.108C49.144 50.7232 48.5652 50.6781 48.1804 51.0072Z" fill="#FFB820"/>
<path d="M38.9328 56.074C38.0857 56.3292 37.226 56.5403 36.357 56.7064C35.8598 56.8021 35.5343 57.2826 35.63 57.7797C35.7128 58.2107 36.0896 58.5224 36.5284 58.5232C36.5865 58.5235 36.6445 58.5182 36.7016 58.5076C37.6332 58.3296 38.5548 58.1029 39.4626 57.8284C39.9434 57.6699 40.2047 57.1517 40.0463 56.6709C39.8934 56.2071 39.4037 55.9446 38.9328 56.074Z" fill="#FFB820"/>
<path d="M33.7754 57.068C33.7586 57.0689 33.7418 57.0704 33.7251 57.0722L33.7297 57.0759C32.9964 57.1382 32.2456 57.1675 31.4977 57.1675H31.0787C30.5788 57.1746 30.1702 57.5683 30.1447 58.0677C30.1355 58.5739 30.5384 58.9916 31.0445 59.0008C31.0446 59.0008 31.0447 59.0008 31.0448 59.0008H31.4977C32.2988 59.0008 33.1018 58.9651 33.8809 58.8982C34.3864 58.869 34.7725 58.4357 34.7433 57.9303C34.7141 57.4249 34.2807 57.0387 33.7754 57.068Z" fill="#FFB820"/>
<path d="M43.8196 54.0211H43.8205C43.0445 54.4461 42.2472 54.831 41.4317 55.1743C40.9627 55.3646 40.7366 55.8991 40.9268 56.3682C41.117 56.8373 41.6516 57.0634 42.1207 56.8732C42.1276 56.8704 42.1344 56.8675 42.1411 56.8646C43.0149 56.4969 43.8691 56.0845 44.7004 55.6289C45.1444 55.3857 45.3071 54.8286 45.0638 54.3846C44.8208 53.9406 44.2636 53.7779 43.8196 54.0211Z" fill="#FFB820"/>
<path d="M31.4986 12.251C20.8673 12.251 12.249 20.8693 12.249 31.5005C12.249 42.1318 20.8673 50.7501 31.4986 50.7501C42.1298 50.7501 50.7481 42.1318 50.7481 31.5005C50.7361 20.8743 42.1248 12.2631 31.4986 12.251ZM46.1649 32.4172H48.8681C48.3919 41.2991 41.2972 48.3939 32.4152 48.87V46.1669C32.4152 45.6606 32.0048 45.2502 31.4986 45.2502C30.9924 45.2502 30.5819 45.6606 30.5819 46.1669V48.87C21.7 48.3939 14.6053 41.2991 14.1291 32.4172H16.8323C17.3385 32.4172 17.7489 32.0068 17.7489 31.5005C17.7489 30.9943 17.3385 30.5839 16.8323 30.5839H14.1291C14.6053 21.7019 21.7 14.6072 30.5819 14.131V16.8342C30.5819 17.3404 30.9924 17.7509 31.4986 17.7509C32.0048 17.7509 32.4152 17.3404 32.4152 16.8342V14.131C41.2972 14.6072 48.3919 21.7019 48.8681 30.5839H46.1649C45.6587 30.5839 45.2483 30.9943 45.2483 31.5005C45.2483 32.0068 45.6587 32.4172 46.1649 32.4172Z" fill="#00659E"/>
<path d="M32.4155 28.9191V20.5006C32.4155 19.9944 32.0051 19.584 31.4988 19.584C30.9926 19.584 30.5822 19.9944 30.5822 20.5006V28.9191C29.8059 29.1964 29.1948 29.8075 28.9176 30.5837H24.1657C23.6595 30.5837 23.249 30.9942 23.249 31.5004C23.249 32.0066 23.6595 32.417 24.1657 32.417H28.9176C29.4199 33.8465 30.986 34.5982 32.4155 34.0959C33.845 33.5935 34.5966 32.0275 34.0943 30.5979C33.8184 29.8126 33.2008 29.1951 32.4155 28.9191ZM31.4988 32.417C30.9926 32.417 30.5822 32.0066 30.5822 31.5004C30.5822 30.9942 30.9926 30.5837 31.4988 30.5837C32.0051 30.5837 32.4155 30.9942 32.4155 31.5004C32.4155 32.0066 32.0052 32.417 31.4988 32.417Z" fill="#00659E"/>
</g>
<defs>
<clipPath id="clip0">
<rect width="55" height="55" fill="white" transform="translate(4 4)"/>
</clipPath>
</defs>
</svg>
