<svg width="55" height="55" viewBox="0 0 55 55" fill="none" xmlns="http://www.w3.org/2000/svg">
<g clip-path="url(#clip0)">
<path d="M0.902178 27.4878H0.934261C1.42856 27.4881 1.83406 27.0964 1.85091 26.6023C2.34681 12.436 14.2328 1.354 28.3991 1.84979C33.8481 2.04057 39.0948 3.96152 43.3786 7.33443H38.5002C37.994 7.33443 37.5836 7.74486 37.5836 8.25108C37.5836 8.75729 37.994 9.16772 38.5002 9.16772H45.8334H45.8462C45.918 9.16188 45.9887 9.14778 46.0571 9.12556C46.1039 9.11879 46.1501 9.10871 46.1955 9.09531C46.2211 9.08431 46.2404 9.06139 46.2651 9.04764C46.3474 9.00742 46.4229 8.95449 46.4888 8.89089L46.498 8.88448C46.5212 8.85262 46.5424 8.81928 46.5612 8.78456C46.6092 8.72613 46.6497 8.66173 46.6813 8.59298C46.7065 8.51988 46.722 8.4438 46.7271 8.36657C46.7377 8.32876 46.7453 8.29015 46.75 8.25108V0.917909C46.75 0.411692 46.3396 0.00126371 45.8334 0.00126371C45.3272 0.00126371 44.9168 0.411692 44.9168 0.917909V6.22712C33.1721 -3.3956 15.8503 -1.67551 6.22755 10.0692C2.40823 14.7308 0.226381 20.5182 0.0176149 26.5409C0.00065699 27.0466 0.396533 27.4704 0.902178 27.4878Z" fill="#FFB820"/>
<path d="M8.3233 44.5584C7.98689 44.1787 7.40642 44.1437 7.0267 44.4801C6.64698 44.8165 6.61192 45.3969 6.94833 45.7767C7.57933 46.4848 8.24596 47.1603 8.9457 47.8006C9.32622 48.1346 9.90532 48.0968 10.2393 47.7164C10.5638 47.3466 10.5386 46.7868 10.1823 46.4476C9.53075 45.8501 8.9103 45.2196 8.3233 44.5584Z" fill="#FFB820"/>
<path d="M19.2627 51.8165C18.4247 51.5328 17.602 51.2057 16.7979 50.8366C16.3442 50.612 15.7942 50.7976 15.5696 51.2512C15.3449 51.7048 15.5305 52.2548 15.9841 52.4795C15.9997 52.4872 16.0155 52.4945 16.0315 52.5013C16.8937 52.8982 17.7762 53.2494 18.6752 53.5536C19.1548 53.7158 19.6752 53.4585 19.8375 52.9789C19.9998 52.4992 19.7425 51.9788 19.2627 51.8165Z" fill="#FFB820"/>
<path d="M14.4475 49.6045V49.6036C13.6857 49.1523 12.9472 48.6628 12.2347 48.137C11.8372 47.8234 11.2609 47.8914 10.9473 48.2889C10.6337 48.6864 10.7017 49.2627 11.0992 49.5764C11.1141 49.588 11.1292 49.5994 11.1448 49.6102C11.9068 50.1742 12.6971 50.6989 13.5125 51.1822C13.9482 51.4404 14.5106 51.2966 14.7688 50.8609C15.0271 50.4252 14.8831 49.8627 14.4475 49.6045Z" fill="#FFB820"/>
<path d="M6.6634 42.4896C6.14664 41.7712 5.667 41.0268 5.2261 40.2594C4.97299 39.8203 4.41177 39.6695 3.97258 39.9226C3.5334 40.1757 3.38261 40.7369 3.63572 41.1761C4.10802 41.9966 4.62203 42.7924 5.17568 43.5603C5.47966 43.9651 6.05429 44.0468 6.4591 43.7428C6.85234 43.4475 6.94251 42.8946 6.6634 42.4896Z" fill="#FFB820"/>
<path d="M4.1065 38.2721C4.1065 38.1443 4.07969 38.0179 4.02801 37.9012L4.02618 37.8947C3.66743 37.0867 3.35073 36.2606 3.07745 35.4198C2.94454 34.9313 2.44073 34.6431 1.95227 34.7761C1.46381 34.909 1.17553 35.4128 1.30855 35.9013C1.31635 35.9297 1.3254 35.9578 1.33582 35.9854C1.62835 36.8884 1.96739 37.7757 2.35147 38.6436C2.49848 38.9755 2.82732 39.1893 3.1902 39.189C3.69642 39.1888 4.10662 38.7783 4.1065 38.2721Z" fill="#FFB820"/>
<path d="M1.68628 33.9411C1.6864 33.9411 1.68663 33.941 1.68674 33.941C2.18139 33.8356 2.49717 33.3496 2.39256 32.8548C2.20992 31.9889 2.07162 31.1142 1.97824 30.2341C1.92484 29.7304 1.47316 29.3654 0.969467 29.4188C0.46577 29.4722 0.100716 29.9238 0.154111 30.4275C0.254484 31.3702 0.403095 32.307 0.599601 33.2343C0.704557 33.7296 1.19107 34.046 1.68628 33.9411Z" fill="#FFB820"/>
<path d="M53.5343 33.0054C53.534 33.0052 53.5336 33.0052 53.5333 33.0051C53.0419 32.8834 52.545 33.183 52.4232 33.6743C52.2108 34.5336 51.9541 35.3814 51.6541 36.2143C51.4825 36.6907 51.7295 37.216 52.206 37.3876C52.6824 37.5593 53.2076 37.3122 53.3793 36.8358C53.7009 35.9438 53.9762 35.0356 54.2043 34.1152C54.3257 33.6238 54.0257 33.1269 53.5343 33.0054Z" fill="#FFB820"/>
<path d="M24.4306 52.9831C23.552 52.8785 22.6795 52.7287 21.8163 52.534C21.3225 52.4224 20.8316 52.7322 20.72 53.226C20.6084 53.7199 20.9182 54.2108 21.4121 54.3224C22.3372 54.5309 23.2725 54.6915 24.2143 54.8036C24.2508 54.8081 24.2875 54.8101 24.3243 54.81C24.8305 54.809 25.24 54.3976 25.239 53.8914C25.2381 53.4278 24.8911 53.0379 24.4306 52.9831Z" fill="#FFB820"/>
<path d="M51.8439 38.2335C51.3882 38.0135 50.8405 38.2043 50.62 38.6597C50.2347 39.4565 49.8082 40.2328 49.3422 40.9853C49.0831 41.4202 49.2256 41.9828 49.6605 42.2419C50.0848 42.4947 50.6333 42.3658 50.9005 41.9505C51.3994 41.1439 51.8563 40.312 52.2691 39.4581C52.4899 39.0025 52.2995 38.4543 51.8439 38.2335Z" fill="#FFB820"/>
<path d="M49.1359 43.001C48.7397 42.6859 48.163 42.7517 47.8479 43.148C47.8424 43.1549 47.837 43.1619 47.8317 43.1688V43.167C47.2909 43.8686 46.7142 44.5416 46.1038 45.1836C45.7548 45.5506 45.7694 46.1312 46.1364 46.4802C46.5034 46.8292 47.084 46.8147 47.433 46.4477C48.0856 45.7599 48.7031 45.0394 49.2828 44.289C49.5979 43.8928 49.5321 43.3161 49.1359 43.001Z" fill="#FFB820"/>
<path d="M54.0989 27.5437C53.6009 27.5182 53.1765 27.9014 53.1512 28.3994C53.1507 28.4086 53.1504 28.418 53.1502 28.4273C53.1191 29.3119 53.0422 30.1943 52.9201 31.0709C52.851 31.5718 53.2005 32.0339 53.7011 32.104C53.7436 32.1102 53.7864 32.1133 53.8294 32.1132C54.2862 32.1125 54.6729 31.7755 54.736 31.323C54.8665 30.384 54.9487 29.439 54.9825 28.4915C55.0001 27.9858 54.6046 27.5616 54.0989 27.5437Z" fill="#FFB820"/>
<path d="M44.1834 47.0067V47.0094C43.5087 47.5853 42.8051 48.1263 42.0751 48.6301C41.6577 48.9186 41.5533 49.4909 41.8418 49.9083C42.1303 50.3257 42.7026 50.4301 43.1201 50.1416C43.9007 49.5995 44.6533 49.0183 45.375 48.4C45.7598 48.0709 45.8049 47.4923 45.4758 47.1075C45.1469 46.7228 44.5681 46.6776 44.1834 47.0067Z" fill="#FFB820"/>
<path d="M34.9354 52.074C34.0884 52.3292 33.2286 52.5403 32.3597 52.7064C31.8625 52.8021 31.537 53.2826 31.6327 53.7797C31.7155 54.2107 32.0922 54.5224 32.5311 54.5232C32.5892 54.5235 32.6472 54.5182 32.7043 54.5076C33.6359 54.3296 34.5574 54.1029 35.4653 53.8284C35.9461 53.6699 36.2074 53.1517 36.0489 52.6709C35.8961 52.2071 35.4064 51.9446 34.9354 52.074Z" fill="#FFB820"/>
<path d="M29.7783 53.0675C29.7615 53.0684 29.7448 53.0699 29.728 53.0717L29.7326 53.0754C28.9993 53.1377 28.2486 53.167 27.5006 53.167H27.0817C26.5818 53.1741 26.1732 53.5678 26.1476 54.0672C26.1384 54.5734 26.5413 54.9912 27.0474 55.0003C27.0475 55.0003 27.0476 55.0003 27.0478 55.0003H27.5006C28.3017 55.0003 29.1047 54.9646 29.8839 54.8977C30.3893 54.8686 30.7754 54.4352 30.7462 53.9298C30.717 53.4244 30.2836 53.0383 29.7783 53.0675Z" fill="#FFB820"/>
<path d="M39.8194 50.0216H39.8203C39.0442 50.4466 38.247 50.8315 37.4315 51.1748C36.9624 51.3651 36.7363 51.8996 36.9265 52.3687C37.1167 52.8378 37.6514 53.0639 38.1205 52.8737C38.1273 52.8709 38.1341 52.868 38.1409 52.8651C39.0147 52.4974 39.8689 52.085 40.7001 51.6294C41.1441 51.3862 41.3069 50.8291 41.0636 50.3851C40.8206 49.9411 40.2634 49.7784 39.8194 50.0216Z" fill="#FFB820"/>
<path d="M27.5005 8.25098C16.8693 8.25098 8.25098 16.8693 8.25098 27.5005C8.25098 38.1318 16.8693 46.7501 27.5005 46.7501C38.1318 46.7501 46.7501 38.1318 46.7501 27.5005C46.7381 16.8743 38.1268 8.26312 27.5005 8.25098ZM42.1669 28.4172H44.8701C44.3939 37.2991 37.2991 44.3939 28.4172 44.87V42.1669C28.4172 41.6606 28.0068 41.2502 27.5005 41.2502C26.9943 41.2502 26.5839 41.6606 26.5839 42.1669V44.87C17.7019 44.3939 10.6072 37.2991 10.131 28.4172H12.8342C13.3404 28.4172 13.7509 28.0068 13.7509 27.5005C13.7509 26.9943 13.3404 26.5839 12.8342 26.5839H10.131C10.6072 17.7019 17.7019 10.6072 26.5839 10.131V12.8342C26.5839 13.3404 26.9943 13.7509 27.5005 13.7509C28.0068 13.7509 28.4172 13.3404 28.4172 12.8342V10.131C37.2991 10.6072 44.3939 17.7019 44.8701 26.5839H42.1669C41.6606 26.5839 41.2502 26.9943 41.2502 27.5005C41.2502 28.0068 41.6606 28.4172 42.1669 28.4172Z" fill="#00659E"/>
<path d="M28.4172 24.9191V16.5006C28.4172 15.9944 28.0068 15.584 27.5005 15.584C26.9943 15.584 26.5839 15.9944 26.5839 16.5006V24.9191C25.8076 25.1964 25.1966 25.8075 24.9193 26.5837H20.1674C19.6612 26.5837 19.2507 26.9942 19.2507 27.5004C19.2507 28.0066 19.6612 28.417 20.1674 28.417H24.9193C25.4216 29.8465 26.9877 30.5982 28.4172 30.0959C29.8467 29.5935 30.5984 28.0275 30.096 26.5979C29.8201 25.8126 29.2025 25.1951 28.4172 24.9191ZM27.5005 28.417C26.9943 28.417 26.5839 28.0066 26.5839 27.5004C26.5839 26.9942 26.9943 26.5837 27.5005 26.5837C28.0068 26.5837 28.4172 26.9942 28.4172 27.5004C28.4172 28.0066 28.0069 28.417 27.5005 28.417Z" fill="#00659E"/>
</g>
<defs>
<clipPath id="clip0">
<rect width="55" height="55" fill="white"/>
</clipPath>
</defs>
</svg>
