<svg width="35" height="36" viewBox="0 0 35 36" fill="none" xmlns="http://www.w3.org/2000/svg">
<path d="M6.875 31.875H5.625V33.125H6.875V31.875Z" fill="#00659E"/>
<path d="M31.875 0H7.5C6.83696 0 6.20107 0.263392 5.73223 0.732233C5.26339 1.20107 5 1.83696 5 2.5V21.875H3.125C2.95924 21.875 2.80027 21.9408 2.68306 22.0581C2.56585 22.1753 2.5 22.3342 2.5 22.5V23.125H0V24.375H2.5V33.125H0V34.375H2.5V35C2.5 35.1658 2.56585 35.3247 2.68306 35.4419C2.80027 35.5592 2.95924 35.625 3.125 35.625H9.375C9.54076 35.625 9.69973 35.5592 9.81694 35.4419C9.93415 35.3247 10 35.1658 10 35V34.375H11.7294C13.4259 35.1954 15.2855 35.6227 17.17 35.625H22.8125C23.2149 35.6264 23.6098 35.5164 23.9536 35.3072C24.2973 35.0979 24.5764 34.7976 24.76 34.4395C24.9436 34.0814 25.0245 33.6795 24.9937 33.2783C24.9629 32.877 24.8217 32.4922 24.5856 32.1662C24.9407 31.9452 25.2252 31.6273 25.4056 31.25H30C30.1658 31.25 30.3247 31.1842 30.4419 31.0669C30.5592 30.9497 30.625 30.7908 30.625 30.625V11.25H33.75C33.9158 11.25 34.0747 11.1842 34.1919 11.0669C34.3092 10.9497 34.375 10.7908 34.375 10.625V2.5C34.375 1.83696 34.1116 1.20107 33.6428 0.732233C33.1739 0.263392 32.538 0 31.875 0ZM8.75 34.375H3.75V23.125H8.75V34.375ZM22.8125 34.375H17.17C15.4288 34.3721 13.712 33.9657 12.1544 33.1875C12.0673 33.1453 11.9717 33.1239 11.875 33.125H10V24.375H11.875C12.0265 24.3751 12.1728 24.3203 12.2869 24.2206L13.4075 23.2394C14.5641 22.2328 15.445 20.948 15.967 19.5063C16.489 18.0647 16.6348 16.5137 16.3906 15H16.5156C17.0147 14.9984 17.5 15.1642 17.8937 15.4709C18.2875 15.7776 18.567 16.2075 18.6875 16.6919C19.1197 18.4068 18.9972 20.2147 18.3375 21.8556L18.3269 21.875H16.875V23.125H24.0625C24.3111 23.125 24.5496 23.2238 24.7254 23.3996C24.9012 23.5754 25 23.8139 25 24.0625C25 24.3111 24.9012 24.5496 24.7254 24.7254C24.5496 24.9012 24.3111 25 24.0625 25H21.875V26.25H23.4375C23.6861 26.25 23.9246 26.3488 24.1004 26.5246C24.2762 26.7004 24.375 26.9389 24.375 27.1875C24.375 27.4361 24.2762 27.6746 24.1004 27.8504C23.9246 28.0262 23.6861 28.125 23.4375 28.125H21.875V29.375H23.4375C23.6861 29.375 23.9246 29.4738 24.1004 29.6496C24.2762 29.8254 24.375 30.0639 24.375 30.3125C24.375 30.5611 24.2762 30.7996 24.1004 30.9754C23.9246 31.1512 23.6861 31.25 23.4375 31.25H21.875V32.5H22.8125C23.0611 32.5 23.2996 32.5988 23.4754 32.7746C23.6512 32.9504 23.75 33.1889 23.75 33.4375C23.75 33.6861 23.6512 33.9246 23.4754 34.1004C23.2996 34.2762 23.0611 34.375 22.8125 34.375ZM29.375 30H25.5931C25.5268 29.5254 25.3055 29.0859 24.9638 28.75C25.34 28.3871 25.5725 27.9006 25.6185 27.3799C25.6644 26.8592 25.5207 26.3394 25.2137 25.9163C25.619 25.6669 25.9317 25.2919 26.1041 24.8484C26.2765 24.4049 26.2993 23.9172 26.1689 23.4595C26.0386 23.0019 25.7622 22.5994 25.3819 22.3134C25.0017 22.0273 24.5383 21.8734 24.0625 21.875H19.6537C20.2678 20.1093 20.3526 18.2026 19.8975 16.3894C19.71 15.6351 19.2752 14.9653 18.6626 14.4869C18.05 14.0085 17.2948 13.7491 16.5175 13.75H15.625C15.5301 13.75 15.4364 13.7717 15.3511 13.8133C15.2657 13.855 15.191 13.9155 15.1326 13.9903C15.0742 14.0651 15.0335 14.1523 15.0138 14.2451C14.9941 14.338 14.9958 14.4341 15.0188 14.5263C15.3709 15.9201 15.3299 17.3843 14.9002 18.7563C14.4704 20.1283 13.6688 21.3542 12.5844 22.2981L11.64 23.125H10V22.5C10 22.3342 9.93415 22.1753 9.81694 22.0581C9.69973 21.9408 9.54076 21.875 9.375 21.875H6.25V2.5C6.25 2.16848 6.3817 1.85054 6.61612 1.61612C6.85054 1.3817 7.16848 1.25 7.5 1.25H29.7225C29.4975 1.62834 29.3776 2.05984 29.375 2.5V30ZM33.125 10H30.625V2.5C30.625 2.16848 30.7567 1.85054 30.9911 1.61612C31.2255 1.3817 31.5435 1.25 31.875 1.25C32.2065 1.25 32.5245 1.3817 32.7589 1.61612C32.9933 1.85054 33.125 2.16848 33.125 2.5V10Z" fill="#00659E"/>
<path d="M14.3752 6.25021C14.3771 5.67921 14.2226 5.1186 13.9283 4.62926C13.634 4.13992 13.2113 3.74057 12.7061 3.47456C12.2008 3.20855 11.6323 3.08607 11.0623 3.1204C10.4924 3.15474 9.9427 3.34458 9.47303 3.66931C9.00336 3.99405 8.63163 4.44126 8.39823 4.96238C8.16483 5.48351 8.07867 6.05862 8.14912 6.62526C8.21956 7.1919 8.44391 7.72841 8.7978 8.17653C9.15169 8.62464 9.62159 8.96723 10.1565 9.16708L8.87523 10.8752L9.87523 11.6252L11.2502 9.79208L12.6252 11.6252L13.6252 10.8752L12.344 9.16708C12.9388 8.94484 13.4518 8.54666 13.8147 8.02557C14.1776 7.50447 14.3731 6.8852 14.3752 6.25021ZM11.2502 8.12521C10.8794 8.12521 10.5169 8.01524 10.2085 7.80921C9.90019 7.60319 9.65987 7.31035 9.51795 6.96774C9.37604 6.62513 9.33891 6.24813 9.41126 5.88441C9.4836 5.5207 9.66218 5.18661 9.9244 4.92438C10.1866 4.66216 10.5207 4.48358 10.8844 4.41124C11.2481 4.33889 11.6251 4.37602 11.9678 4.51793C12.3104 4.65985 12.6032 4.90017 12.8092 5.20851C13.0153 5.51686 13.1252 5.87937 13.1252 6.25021C13.1252 6.74749 12.9277 7.2244 12.5761 7.57603C12.2244 7.92766 11.7475 8.12521 11.2502 8.12521Z" fill="#00659E"/>
<path d="M11.875 5.625H10.625V6.875H11.875V5.625Z" fill="#00659E"/>
<path d="M18.75 3.75H17.5V5H18.75V3.75Z" fill="#00659E"/>
<path d="M27.5 3.75H20V5H27.5V3.75Z" fill="#00659E"/>
<path d="M27.5 6.25H16.25V7.5H27.5V6.25Z" fill="#00659E"/>
<path d="M27.5 8.75H16.25V10H27.5V8.75Z" fill="#00659E"/>
<path d="M25 11.25H16.25V12.5H25V11.25Z" fill="#00659E"/>
<path d="M33.125 16.25H31.875V26.25H33.125V16.25Z" fill="#00659E"/>
<path d="M33.125 27.5H31.875V28.75H33.125V27.5Z" fill="#00659E"/>
<path d="M3.75 3.75H2.5V16.25H3.75V3.75Z" fill="#00659E"/>
</svg>
