<svg width="105" height="88" viewBox="0 0 105 88" fill="none" xmlns="http://www.w3.org/2000/svg">
<path d="M99.9549 24.9556C100.156 24.9556 100.357 24.9902 100.539 24.9902C100.631 24.9902 100.74 25.0248 100.831 25.0939C101.087 25.3015 101.343 25.3361 101.598 25.3361C101.836 25.3361 102.055 25.3361 102.292 25.3361C102.42 25.3361 102.566 25.3361 102.676 25.4052C102.95 25.5782 103.242 25.6474 103.534 25.7165C103.589 25.7165 103.662 25.8203 103.698 25.9241C103.753 26.0624 103.826 26.2353 103.845 26.4083C103.972 27.1692 104.118 27.9301 104.265 28.6911C104.301 28.864 104.283 29.0715 104.246 29.2445C104.137 29.6249 104.1 30.04 104.045 30.4896C103.991 30.9738 103.899 31.4235 103.845 31.9423C103.808 32.219 103.808 32.4265 103.899 32.634C103.936 32.7378 103.972 32.8416 104.009 32.9453C104.118 33.3604 104.118 33.7754 104.045 34.1905C103.991 34.4326 103.881 34.5709 103.753 34.6401C103.625 34.7093 103.498 34.7093 103.37 34.7439C103.278 34.7785 103.169 34.813 103.078 34.8476C103.004 34.8822 102.968 34.986 102.986 35.1243C102.986 35.1589 103.023 35.2281 103.041 35.2627C103.059 35.2973 103.096 35.3664 103.114 35.3665C103.443 35.4356 103.753 35.6777 104.027 35.989C104.064 36.0236 104.082 36.0582 104.1 36.0928C104.173 36.1966 104.191 36.4387 104.1 36.5424C103.826 36.8537 103.844 37.1996 103.954 37.6492C104.009 37.8568 104.064 38.0989 104.064 38.341C104.064 38.6523 104.082 38.9636 104.064 39.2748C104.027 39.5861 103.954 39.8628 103.771 39.932C103.735 39.932 103.698 39.9666 103.68 40.0012C103.644 40.0358 103.607 40.1049 103.607 40.1049C103.644 40.2087 103.698 40.2433 103.771 40.2779C103.863 40.3125 103.972 40.3125 104.064 40.3471C104.137 40.3816 104.228 40.6583 104.21 40.7967C104.173 41.108 104.082 41.3847 104.137 41.696C104.173 41.9727 104.155 42.0418 104.064 42.1456C103.918 42.284 103.771 42.4569 103.644 42.5952C103.552 42.699 103.534 42.9757 103.607 43.0795C103.662 43.1486 103.698 43.2524 103.753 43.3216C103.826 43.4599 103.899 43.5637 103.972 43.702C104.045 43.8404 104.045 44.0825 103.991 44.2209C103.936 44.29 103.899 44.3938 103.844 44.463C103.717 44.6359 103.589 44.8434 103.497 45.1201C103.406 45.4314 103.26 45.5006 103.077 45.5352C102.95 45.5698 102.822 45.5698 102.694 45.6389C102.621 45.6735 102.584 45.7773 102.584 45.9156C102.584 46.0194 102.639 46.1577 102.712 46.1578C103.041 46.2269 103.37 46.2269 103.698 46.2961C103.753 46.2961 103.826 46.3999 103.881 46.4345C104.009 46.5728 104.045 46.8495 103.954 47.0224C103.771 47.3683 103.698 47.7142 103.844 48.1984C103.899 48.3714 103.881 48.5443 103.79 48.6826C103.771 48.7172 103.735 48.7864 103.717 48.7864C103.589 48.8556 103.461 48.8902 103.333 48.8556C102.84 48.7864 102.347 48.8902 101.854 48.8902C101.817 48.8902 101.781 48.9247 101.763 48.9247C101.726 48.9593 101.708 48.9939 101.69 49.0285C101.726 49.0631 101.744 49.0977 101.781 49.1323C102 49.236 102.237 49.1323 102.475 49.2015C102.566 49.236 102.676 49.2015 102.767 49.3052C103.077 49.6165 103.388 49.6165 103.717 49.6511C103.79 49.6511 103.826 49.7894 103.808 49.8586C103.79 49.8932 103.771 49.9624 103.735 49.9624C103.698 49.997 103.662 49.997 103.644 49.997C103.388 49.997 103.114 49.997 102.877 50.2391C102.548 50.3428 102.256 50.6541 101.945 50.8271C101.927 50.8271 101.909 50.9308 101.872 50.9654C101.89 51 101.927 51.0346 101.945 51.0692C102.037 51.1383 102.128 51.1383 102.237 51.1384C102.566 51.1384 102.895 51.1384 103.224 51.1384C103.388 51.1384 103.534 51.3113 103.662 51.5188C103.735 51.6572 103.735 51.8647 103.68 52.003C103.644 52.1068 103.589 52.1414 103.516 52.2106C103.406 52.3143 103.406 52.4873 103.479 52.6602C103.607 53.0407 103.844 53.179 104.027 53.4211C104.082 53.5249 104.1 53.6287 104.082 53.767C104.082 53.8362 104.064 53.8708 104.045 53.9399C104.009 54.0437 103.99 54.1475 103.954 54.2858C103.844 54.7355 103.735 54.77 103.57 54.6663C103.406 54.5625 103.242 54.5625 103.096 54.7009C102.968 54.8046 102.84 54.8738 102.73 55.0122C102.548 55.2197 102.365 55.2543 102.164 55.2543C101.47 55.2197 100.777 55.2197 100.101 55.2543C99.9 55.2543 99.8452 55.4272 99.9182 55.7039C100.01 56.0844 99.973 56.4302 99.9 56.7761C99.8634 56.949 99.9 57.122 99.973 57.2603C100.083 57.5024 100.21 57.6754 100.302 57.9521C100.356 58.125 100.356 58.3325 100.302 58.4709C100.229 58.6784 100.119 58.8168 100.028 58.9897C99.8452 59.301 99.7721 59.716 99.7539 60.1657C99.7539 60.3386 99.7539 60.5461 99.7539 60.7191C99.7539 61.0304 99.7904 61.3417 99.8999 61.5838C99.9547 61.7221 100.028 61.8951 100.083 62.0334C100.137 62.2063 100.156 62.3793 100.156 62.5522C100.156 62.9327 100.119 63.2786 100.028 63.6244C99.973 63.832 99.8999 64.0395 99.8451 64.2816C99.8086 64.4545 99.8086 64.6275 99.8451 64.835C99.8817 64.9388 99.8999 65.0425 99.9364 65.1809C99.9547 65.2846 99.9912 65.423 99.9912 65.5267C99.973 65.9418 100.009 66.3914 99.8817 66.8065C99.8086 67.0832 99.7721 67.3945 99.7903 67.7058C99.8269 68.3283 99.7903 68.9509 99.7173 69.5735C99.6808 69.8156 99.6808 70.0577 99.7173 70.2998C99.7721 70.7149 99.8451 71.1299 99.9364 71.545C99.9547 71.6487 99.9547 71.7871 99.9182 71.8908C99.8268 72.3059 99.7721 72.7209 99.7721 73.1706C99.7721 73.4819 99.699 73.7586 99.6077 74.0353C99.5164 74.2774 99.4616 74.5887 99.4433 74.9C99.4251 75.4534 99.3886 76.0068 99.3886 76.5602C99.3886 77.0098 99.352 77.4248 99.2425 77.8053C99.2242 77.8745 99.2242 77.9091 99.2059 77.9782C99.1694 78.3933 99.1877 78.8429 99.0781 79.258C99.0964 79.3963 99.0964 79.5001 99.1146 79.6384C99.1146 79.7768 99.1511 79.9151 99.1146 80.0189C99.0051 80.5031 98.9868 80.9874 99.005 81.4716C99.0233 81.852 98.9868 82.2325 98.8955 82.5438C98.8407 82.7167 98.8224 82.8897 98.8224 83.0626C98.8042 83.3739 98.8042 83.6852 98.7676 83.9965C98.7494 84.2386 98.6581 84.4461 98.5485 84.5845C98.3111 84.8957 98.092 85.1724 97.8181 85.1724C97.7085 85.1724 97.6354 85.2416 97.5441 85.3454C97.4163 85.4491 97.2885 85.4837 97.1606 85.5183C96.9232 85.5529 96.7041 85.5529 96.4667 85.5875C96.3389 85.6221 96.1928 85.5875 96.0832 85.6912C95.718 85.8642 95.371 85.8988 95.0058 85.8988C94.0562 85.8988 93.1066 85.9333 92.1388 85.9333C91.2805 85.9333 90.4222 85.9333 89.5822 85.9333C89.3083 85.9333 89.0526 85.9679 88.8152 86.1409C88.6874 86.21 88.5413 86.21 88.4135 86.1409C88.3587 86.1063 88.2857 86.0717 88.2309 86.0371C88.0665 85.9679 87.9022 85.9679 87.7378 86.0717C87.61 86.1408 87.4822 86.21 87.3543 86.21C86.5326 86.21 85.7108 86.3138 84.8891 86.2792C84.3047 86.2446 83.7021 86.3138 83.1177 86.3138C82.9168 86.3138 82.7342 86.3829 82.5333 86.4867C82.442 86.5559 82.3325 86.5905 82.2412 86.5905C81.6203 86.625 80.9994 86.6596 80.3785 86.6942C80.2507 86.6942 80.1229 86.7634 79.995 86.8326C79.9037 86.9017 79.8124 86.9017 79.7028 86.8672C79.5385 86.7634 79.3741 86.7288 79.2281 86.8672C79.0089 87.0401 78.7715 87.0401 78.5524 87.0747C78.2967 87.1093 78.0228 87.0747 77.7672 87.0747C77.5115 87.0747 77.2376 87.1438 76.9819 87.2822C76.7263 87.4205 76.4523 87.4205 76.1967 87.2822C75.8862 87.1092 75.5575 87.0747 75.2471 86.8325C75.1558 86.7634 75.0462 86.798 74.9549 86.8671C74.8088 87.0055 74.6445 87.0747 74.4801 87.0747C74.2427 87.1092 74.0236 87.1092 73.8045 87.2822C73.7131 87.3514 73.6218 87.3514 73.5123 87.3859C73.3662 87.4205 71.394 87.3859 71.2479 87.3513C71.1566 87.3168 71.047 87.2822 70.9557 87.213C70.8826 87.1784 70.8279 87.1784 70.7548 87.213C70.7 87.2476 70.627 87.2822 70.5722 87.3168C70.3713 87.3859 70.1887 87.3859 69.9878 87.2476C69.9148 87.213 69.86 87.213 69.8052 87.2476C69.4583 87.4897 69.093 87.4551 68.7461 87.1784C68.6548 87.1092 68.5635 87.1092 68.4539 87.1784C68.3626 87.213 68.2713 87.2476 68.1617 87.1784C67.9974 87.0746 67.833 87.0746 67.6687 87.1784C67.3765 87.3513 67.0843 87.4205 66.7921 87.4205C66.3721 87.4205 65.9338 87.4551 65.5138 87.4551C65.313 87.4551 65.1303 87.5588 64.9295 87.6972C64.8016 87.801 64.6738 87.801 64.546 87.6972C64.4912 87.6626 64.4181 87.628 64.3634 87.5934C64.2721 87.5588 64.1625 87.5242 64.0712 87.628C63.8155 87.8701 63.5599 87.8701 63.3042 87.7664C63.1033 87.6972 62.9207 87.5588 62.7198 87.6972C62.6651 87.7318 62.592 87.6972 62.5372 87.6626C62.3729 87.5588 62.2268 87.5934 62.0624 87.628C61.679 87.7664 61.2955 87.8701 60.8937 87.8009C60.7659 87.7663 60.6381 87.7318 60.492 87.7663C59.8711 87.9047 59.2502 87.8009 58.6293 87.8355C58.2093 87.7317 57.771 87.7663 57.351 87.8009C57.1136 87.8355 56.8945 87.7663 56.6754 87.5588C56.6206 87.5242 56.5475 87.4896 56.4928 87.5588C56.2736 87.7317 56.0545 87.8009 55.8171 87.8009C55.4519 87.8009 55.0866 87.8355 54.7397 87.8355C54.3197 87.8701 53.8814 87.8009 53.4614 87.6971C53.3701 87.6626 53.2788 87.5934 53.1692 87.5588C53.0779 87.4896 52.9683 87.4896 52.877 87.5588C52.6944 87.6625 52.4935 87.7317 52.2927 87.7663C51.7996 87.8355 51.3065 87.7317 50.8135 87.7317C50.7222 87.7317 50.6126 87.6971 50.5213 87.628C50.2657 87.455 50.0283 87.3858 49.7543 87.6279C49.5352 87.8009 49.2978 87.8009 49.0787 87.6625C49.0239 87.6279 48.9508 87.5588 48.8961 87.5242C48.8413 87.4896 48.7682 87.455 48.6952 87.455C48.6039 87.455 48.4943 87.4204 48.403 87.4896C48.1839 87.6625 47.9647 87.7317 47.7273 87.7317C47.4899 87.6971 47.2708 87.7663 47.0334 87.8009C46.5038 87.8355 45.9742 87.87 45.4629 87.7663C45.3351 87.7317 45.2073 87.6971 45.0795 87.6279C45.0064 87.5933 44.9516 87.5933 44.8968 87.6625C44.6412 87.87 44.3855 87.8009 44.1299 87.9738C44.0568 88.0084 44.002 88.0084 43.929 87.9738C43.509 87.8009 43.089 87.7663 42.6507 87.8354C42.0663 87.9392 41.4637 87.8354 40.8794 87.8354C40.715 87.8354 40.5506 87.7663 40.4046 87.6625C40.3133 87.5933 40.2219 87.6279 40.1124 87.6625C40.0211 87.6971 39.9115 87.7663 39.8202 87.7663C39.3271 87.7317 38.8341 87.8008 38.341 87.8008C38.2132 87.8008 38.0671 87.8354 37.9393 87.8008C37.6836 87.7317 37.4097 87.8008 37.154 87.7662C37.081 87.7662 37.0262 87.6971 36.9714 87.6625C36.9167 87.6279 36.8436 87.6279 36.7888 87.6971C36.6427 87.8354 36.4784 87.9046 36.314 87.87C34.9079 87.8008 33.4835 87.87 32.0774 87.7662C31.7852 87.7316 31.4931 87.7662 31.1826 87.7662C31.0183 87.7662 30.8539 87.7316 30.6896 87.6279C30.5982 87.5587 30.4887 87.6279 30.3974 87.6625C30.3243 87.6625 30.2695 87.697 30.1965 87.6625C29.9408 87.4895 29.6852 87.4895 29.4113 87.4895C28.7539 87.4895 28.0965 87.4895 27.439 87.4549C27.2199 87.4549 26.9825 87.4549 26.7634 87.2474C26.7086 87.1782 26.6355 87.1436 26.5808 87.2128C26.3616 87.3857 26.1425 87.4203 25.9051 87.3857C25.6677 87.3511 25.4486 87.3857 25.2112 87.3857C25.0468 87.3857 24.8825 87.3511 24.7364 87.2474C24.6816 87.2128 24.6085 87.1782 24.5538 87.1436C24.3529 87.0744 24.152 87.0744 23.9694 87.2474C23.8416 87.3511 23.7137 87.3857 23.5859 87.282C23.4581 87.1782 23.3485 87.109 23.2024 87.109C22.8372 87.109 22.472 87.109 22.125 87.0744C21.8876 87.0744 21.6685 87.0744 21.4493 86.9015C21.3398 86.8323 21.2667 86.9707 21.2119 87.109C21.1754 87.2128 21.1024 87.2474 21.0476 87.2128C20.8832 87.109 20.7189 87.0744 20.5545 87.0744C19.8971 87.0744 19.2397 87.0398 18.5823 87.0398C18.3267 87.0398 18.0527 87.0052 17.7971 86.8323C17.578 86.6939 17.3406 86.7631 17.1214 86.6939C16.9571 86.6594 16.7927 86.6248 16.6284 86.5902C16.3544 86.2789 16.0623 86.3135 15.7701 86.3135C15.4962 86.3135 15.2405 86.2789 15.0031 86.0368C14.9483 85.9676 14.8753 85.9676 14.8205 85.9676C14.7475 85.9676 14.6927 85.9676 14.6196 85.9676C13.8892 86.0368 13.177 85.933 12.4465 85.8984C12.2091 85.8984 11.99 85.7601 11.8074 85.4834C11.6978 85.3104 11.57 85.345 11.4422 85.4488C11.3143 85.5525 11.1865 85.5179 11.0587 85.4142C10.8761 85.2412 10.6935 85.1721 10.4926 85.1721C10.3282 85.1721 10.1639 85.1721 9.99953 85.1721C9.8717 85.1721 9.74388 85.1029 9.61605 85.0337C9.52474 84.9645 9.41518 85.0337 9.32387 85.0337C9.25083 85.0337 9.19603 85.0683 9.12299 85.0337C8.86733 84.8608 8.61168 84.8608 8.33776 84.8608C7.68035 84.8262 7.02295 84.8262 6.36555 84.7916C6.31076 84.7916 6.23772 84.7224 6.18293 84.6878C6.10989 84.6532 6.07336 84.5495 6.09162 84.3765C6.10989 84.2728 6.14641 84.1344 6.21945 84.1344C6.47511 84.0652 6.73076 83.9961 6.98642 83.8231C7.04121 83.7886 7.11426 83.8231 7.1873 83.8577C7.36991 83.9961 7.57079 84.0653 7.77167 83.9269C7.95428 83.7886 8.15515 83.7194 8.35602 83.6848C8.42907 83.6502 8.48385 83.6156 8.48385 83.5119C8.48385 83.5119 8.42907 83.4427 8.39254 83.4427C7.89949 83.4081 7.40644 83.3735 6.91339 83.3735C6.58468 83.3735 6.25598 83.3389 5.92727 83.3389C5.67161 83.3389 5.39769 83.3043 5.1603 83.0968C5.10551 83.0622 5.03248 83.0622 4.95943 83.0968C4.53942 83.4081 4.1194 83.3043 3.69939 83.2351C3.64461 83.2351 3.57157 83.166 3.51678 83.1314C3.38895 83.0276 3.26113 82.993 3.1333 82.993C2.93243 82.9584 2.73155 82.9584 2.54893 82.9238C2.51241 82.9238 2.47589 82.8893 2.45763 82.8547C2.43937 82.7509 2.49416 82.6817 2.54894 82.6126C2.82286 82.3013 3.09678 82.2321 3.40722 82.3704C3.53505 82.4396 3.66287 82.4396 3.7907 82.3705C4.08289 82.1975 4.37508 82.2321 4.66725 82.405C4.7403 82.4396 4.79508 82.4742 4.84987 82.4396C5.19683 82.1975 5.56205 82.3359 5.92728 82.3359C6.01859 82.3359 6.12816 82.3705 6.21946 82.4396C6.38381 82.5434 6.5299 82.5088 6.69425 82.4396C7.20557 82.1629 7.73515 82.1284 8.24646 82.4742C8.48386 82.6472 8.68474 82.4742 8.86735 82.1975C8.88561 82.1629 8.88562 82.0592 8.86735 82.0592C8.81257 82.0246 8.73952 81.99 8.68474 81.9554C8.48387 81.9208 8.28299 81.8862 8.10038 81.9208C7.53427 82.0246 6.98644 81.9208 6.42034 81.8862C6.32903 81.8862 6.21946 81.8516 6.12816 81.7825C6.00033 81.6787 5.87249 81.7133 5.74466 81.7825C5.65336 81.8171 5.5438 81.7825 5.45249 81.7133C5.32467 81.6095 5.19683 81.6095 5.069 81.7133C4.81334 81.8862 4.55769 81.8862 4.30203 81.7133C4.02811 81.5058 3.73592 81.4712 3.42548 81.5058C3.18808 81.5403 2.96895 81.4366 2.76808 81.2291C2.60373 81.0561 2.45765 81.1253 2.2933 81.2982C2.25677 81.3328 2.23851 81.3674 2.20199 81.3674C2.12894 81.4366 2.01937 81.402 1.94633 81.1945C1.83676 80.9178 1.70893 80.814 1.52632 80.814C1.45327 80.814 1.39848 80.814 1.32544 80.7794C1.2524 80.7448 1.21587 80.6411 1.21588 80.5373C1.21588 80.5027 1.25241 80.4335 1.28893 80.4335C1.4898 80.399 1.6724 80.3644 1.87328 80.2952C1.94632 80.2606 1.98285 80.1914 2.01938 80.0877C2.07416 79.9493 1.98285 79.7418 1.87328 79.6726C1.83676 79.6726 1.80024 79.638 1.78197 79.638C1.69067 79.6726 1.59936 79.7418 1.50805 79.811C1.38022 79.9147 1.2524 79.9493 1.12457 79.811C1.06979 79.7418 1.015 79.7072 0.941961 79.638C0.887175 79.5688 0.832396 79.4997 0.832396 79.3613C0.832397 79.3267 0.887183 79.2921 0.923705 79.2921C1.01501 79.2576 1.12457 79.2576 1.21588 79.2576C1.94633 79.2922 2.65853 79.223 3.38898 79.1884C3.53507 79.1884 3.64463 79.0846 3.73594 78.9117C3.93682 78.5312 4.19247 78.4621 4.46639 78.4621C5.1238 78.4621 5.7812 78.4621 6.43861 78.4275C6.52992 78.4275 6.62123 78.3237 6.69427 78.1508C6.71254 78.1162 6.73079 78.047 6.71253 77.9778C6.71253 77.9433 6.67601 77.8741 6.65775 77.8741C6.60296 77.8395 6.52992 77.8049 6.47513 77.7703C6.09165 77.6666 5.6899 77.7011 5.28815 77.7011C4.7951 77.7011 4.30205 77.7011 3.80899 77.7011C3.60811 77.7011 3.42551 77.6665 3.22463 77.5628C3.0968 77.4936 2.96898 77.4936 2.84115 77.459C2.4394 77.4244 2.05591 77.459 1.67242 77.6665C1.54459 77.7357 1.41677 77.7011 1.28894 77.632C1.2159 77.5974 1.17937 77.4936 1.17937 77.3553C1.17937 77.2861 1.19763 77.2515 1.19763 77.1823C1.2159 77.1131 1.23415 77.0786 1.25241 77.044C1.41677 76.871 1.58111 76.6635 1.78199 76.5943C1.87329 76.5597 1.98286 76.4906 2.0559 76.4214C2.23852 76.2139 2.42114 76.1793 2.62201 76.1793C2.71332 76.1793 2.74985 76.1101 2.71332 76.0063C2.69506 75.9718 2.67679 75.9026 2.64027 75.9026C2.45766 75.7296 2.29331 75.5567 2.07418 75.5913C1.90983 75.5913 1.74548 75.5567 1.58112 75.5221C1.52634 75.5221 1.43504 75.4875 1.39851 75.4184C1.36199 75.3492 1.38026 75.1762 1.38026 75.0725C1.38026 74.9341 1.34373 74.8649 1.27068 74.8304C1.17938 74.7958 1.06981 74.7612 0.978504 74.692C0.923725 74.6574 0.868931 74.5882 0.814153 74.4845C0.722845 74.3461 0.686324 74.1386 0.722846 74.0003C0.832414 73.5506 0.941982 73.101 1.05156 72.6513C1.10634 72.4092 1.19765 72.2709 1.32548 72.1325C1.41678 72.0634 1.48984 71.9596 1.56288 71.8212C1.5994 71.7521 1.61766 71.6137 1.63592 71.51C1.65419 71.4062 1.52636 71.1295 1.45331 71.1295C1.41679 71.1295 1.38027 71.0949 1.362 71.0949C1.19765 71.0949 1.0333 71.0603 0.868946 71.0603C0.704594 71.0603 0.540257 71.0257 0.375905 71.0257C0.284596 71.0257 0.248067 70.9566 0.266332 70.8528C0.266332 70.7836 0.302847 70.749 0.321112 70.7144C0.521987 70.5069 0.741127 70.334 0.978523 70.334C1.05157 70.334 1.10635 70.334 1.1794 70.2994C1.38027 70.2648 1.45332 70.0919 1.47158 69.7114C1.47158 69.5731 1.38028 69.3309 1.30723 69.3309C0.978528 69.2618 0.649823 69.2272 0.321118 69.158C0.22981 69.1234 0.138509 69.0197 0.065466 68.9159C-0.00757736 68.8121 -0.0258409 68.5354 0.0472033 68.4317C0.211557 68.2241 0.37591 68.0166 0.540263 67.8437C0.631565 67.7399 0.722873 67.6707 0.814182 67.6707C1.10636 67.6362 1.39854 67.6362 1.69072 67.4632C1.92812 67.4286 2.14726 67.4286 2.38466 67.3941C2.74988 67.3595 3.1151 67.3249 3.46207 67.2903C3.49859 67.2903 3.51685 67.2557 3.55337 67.2211C3.53512 67.1865 3.53511 67.1174 3.51685 67.1174C3.33424 66.979 3.15163 66.8752 3.0238 66.5294C2.91424 66.2527 2.73163 66.2527 2.56728 66.2181C2.49423 66.2181 2.43944 66.1489 2.40292 66.0451C2.40292 66.0451 2.43945 65.9414 2.47597 65.9414C2.64032 65.8722 2.80467 65.803 2.95076 65.6647C3.09685 65.4917 3.27946 65.5609 3.42555 65.4917C3.46207 65.4917 3.49859 65.4572 3.51686 65.4226C3.55338 65.3534 3.53513 65.2496 3.48035 65.1459C3.37078 65.0075 3.26121 64.8692 3.1699 64.6962C3.04208 64.4887 2.87773 64.3849 2.71337 64.3849C2.47598 64.3849 2.25685 64.3503 2.01945 64.3503C1.92814 64.3503 1.81857 64.3503 1.72726 64.2812C1.34378 64.0391 0.942028 64.0736 0.558545 63.9699C0.485501 63.9353 0.430707 63.8661 0.448972 63.7624C0.448972 63.6932 0.467237 63.6586 0.485495 63.5894C0.540282 63.4165 0.631584 63.3127 0.722892 63.2781C0.887245 63.2435 1.0516 63.209 1.21595 63.1744C1.34378 63.1398 1.48987 63.1744 1.59943 63.1052C1.89162 62.8977 2.1838 62.9323 2.47598 62.8977C2.73165 62.8631 3.00556 62.8631 3.26122 62.8285C3.29774 62.8285 3.316 62.7593 3.33425 62.7247C3.316 62.6902 3.316 62.621 3.27947 62.621C3.2247 62.5864 3.15164 62.5518 3.09687 62.5172C2.76816 62.448 2.43946 62.4826 2.11076 62.4826C1.90988 62.4826 1.70901 62.4826 1.5264 62.448C1.48987 62.448 1.45335 62.4134 1.45335 62.3443C1.43509 62.2751 1.47161 62.1713 1.54466 62.1713C1.709 62.1367 1.87336 62.1367 2.03771 62.1367C2.16554 62.1367 2.29337 62.1022 2.42119 61.9984C2.56729 61.86 2.73164 61.8255 2.89599 61.7909C3.18818 61.7563 3.48035 61.7563 3.79079 61.7217C3.8821 61.7217 3.99167 61.7217 4.08298 61.6871C4.26559 61.6179 4.4482 61.4104 4.64908 61.4104C4.84995 61.4104 5.05083 61.4104 5.23344 61.3067C5.26997 61.3067 5.28823 61.2375 5.30649 61.2029C5.28823 61.1683 5.25171 61.1337 5.21519 61.0991C5.08736 61.03 4.95952 61.03 4.83169 61.03C4.44821 61.03 4.04646 61.0645 3.66297 60.9262C3.62645 60.9262 3.60819 60.857 3.58993 60.8224C3.60819 60.7878 3.64472 60.7187 3.66297 60.7187C3.75428 60.6841 3.86385 60.6495 3.95516 60.6495C4.32038 60.6149 4.66735 60.6495 5.03257 60.5457C5.05084 60.5457 5.08735 60.4766 5.10561 60.442C5.08735 60.4074 5.0691 60.3382 5.03257 60.3036C4.84997 60.1999 4.64908 60.2344 4.46647 60.0615C4.41169 59.9923 4.33864 59.9923 4.28386 60.0615C4.13777 60.1653 3.97342 60.2344 3.80906 60.2344C3.60819 60.2344 3.40732 60.269 3.22471 60.269C3.02383 60.269 2.84122 60.1998 2.65861 59.9923C2.60383 59.9231 2.54904 59.8886 2.476 59.854C2.31164 59.7848 2.16556 59.7156 2.01947 59.5427C1.69077 59.2314 1.3438 59.0585 0.978572 59.0239C0.887271 59.0239 0.850742 58.9201 0.887271 58.8509C0.905529 58.8163 0.942051 58.7818 0.978573 58.7818C1.50815 58.7472 2.03772 58.678 2.54904 58.6434C2.78643 58.6434 3.00557 58.6088 3.22471 58.4705C3.31602 58.4013 3.42558 58.4013 3.51689 58.4359C3.68124 58.5051 3.82734 58.5051 3.99169 58.4359C4.15604 58.3667 4.32039 58.3667 4.48475 58.3321C4.77693 58.2975 5.0691 58.2975 5.37955 58.263C5.50737 58.263 5.65347 58.263 5.76304 58.1592C6.07348 57.9171 6.40218 57.9171 6.73088 57.8479C6.93176 57.8133 7.11437 57.675 7.26045 57.4675C7.27872 57.4329 7.27873 57.3637 7.27873 57.3291C7.26046 57.2945 7.22394 57.2599 7.18742 57.2599C6.69436 57.2599 6.2013 57.2599 5.70825 57.2599C5.58042 57.2599 5.43434 57.2599 5.32476 57.3291C5.10563 57.4674 4.86823 57.4674 4.6491 57.502C4.22908 57.5366 3.79081 57.5366 3.37081 57.5712C3.0421 57.5712 2.7134 57.5712 2.40296 57.3637C2.27513 57.2599 2.1473 57.2945 2.01948 57.2945C1.78208 57.2945 1.56294 57.2945 1.34381 57.1561C1.27076 57.1216 1.23424 57.0178 1.21598 56.8794C1.19772 56.7411 1.21598 56.6373 1.30729 56.6027C1.36207 56.5682 1.43512 56.5336 1.4899 56.499C1.69077 56.4644 1.87339 56.4298 2.07426 56.3952C2.27514 56.3952 2.45776 56.2569 2.65863 56.1877C2.71341 56.1531 2.78645 56.1877 2.8595 56.1877C2.95081 56.2223 3.04211 56.2569 3.15167 56.1877C3.40733 56.0148 3.66299 56.0148 3.93692 56.0148C4.17432 56.0148 4.39345 56.0148 4.63084 56.0148C4.68563 56.0148 4.75868 55.9456 4.81345 55.911C4.86824 55.8764 4.92302 55.7727 4.9778 55.7035C5.14215 55.4614 5.32477 55.3576 5.52565 55.3576C6.05522 55.323 6.5848 55.2884 7.09612 55.2539C7.18743 55.2539 7.29699 55.2193 7.38829 55.1501C7.60743 54.9772 7.82657 54.908 8.06397 54.908C8.26484 54.908 8.46572 54.908 8.64833 54.8734C8.73964 54.8734 8.8492 54.8388 8.94051 54.7696C9.15964 54.6313 9.37878 54.5275 9.59792 54.3892C9.78053 54.2508 9.9814 54.2162 10.1823 54.2162C10.3466 54.2162 10.511 54.1125 10.6571 53.9741C10.7484 53.905 10.8397 53.8358 10.931 53.8358C11.2962 53.8012 11.6614 53.7666 11.9901 53.5245C12.191 53.4899 12.3736 53.4207 12.5745 53.3862C12.6293 53.3516 12.7023 53.317 12.7571 53.2478C12.8119 53.1786 12.8667 53.0749 12.8667 52.9711C12.8667 52.8673 12.8302 52.7636 12.7571 52.7636C12.6658 52.729 12.5563 52.729 12.4649 52.6944C12.3919 52.6944 12.3371 52.6252 12.3371 52.5215C12.3371 52.4869 12.3919 52.4523 12.4102 52.4177C12.5015 52.3831 12.611 52.3831 12.7023 52.3485C12.7754 52.3485 12.8484 52.2794 12.8667 52.1756C12.885 52.0718 12.8302 51.9335 12.7754 51.8643C12.7206 51.7951 12.6658 51.726 12.611 51.6914C12.5197 51.6568 12.4102 51.6222 12.3189 51.6222C11.9171 51.5876 11.5336 51.553 11.1319 51.553C10.931 51.553 10.7484 51.4838 10.5475 51.3801C10.4197 51.3109 10.2919 51.3109 10.164 51.3109C9.43358 51.2763 8.72139 51.2763 7.99093 51.2763C7.82658 51.2763 7.66224 51.2763 7.49788 51.2417C7.40658 51.2417 7.31528 51.1379 7.22397 51.0342C7.16919 50.965 7.11439 50.8958 7.05962 50.8612L7.07787 50.8958C7.1144 50.6191 7.24223 50.55 7.33354 50.377C7.42485 50.2387 7.42484 50.0311 7.3518 49.8928C7.31527 49.8236 7.26049 49.7199 7.20571 49.6507C7.18744 49.6161 7.18745 49.5123 7.18745 49.5123C7.35181 49.3048 7.55268 49.3048 7.73529 49.1665C7.88139 49.0627 8.06399 49.0627 8.21008 48.9935C8.2466 48.9935 8.26487 48.9243 8.28313 48.8898C8.30139 48.8206 8.26486 48.7514 8.17355 48.7168C8.10051 48.6822 8.04573 48.6822 7.97269 48.6822C7.93617 48.6822 7.89964 48.6822 7.88138 48.6822C7.51615 48.6822 7.16919 48.4401 6.82223 48.2672C6.78571 48.2672 6.76744 48.198 6.74918 48.1288C6.74918 48.0942 6.76744 48.0251 6.80397 47.9905C6.98658 47.8175 7.16919 47.7484 7.37007 47.6446C7.4979 47.5754 7.62572 47.5754 7.75355 47.5754C8.66662 47.5408 9.59795 47.5063 10.511 47.4371C10.5841 47.4371 10.6388 47.3679 10.6388 47.2987C10.6388 47.2642 10.5841 47.195 10.5658 47.195C10.4745 47.1604 10.3649 47.1604 10.2736 47.1604C9.98143 47.1604 9.68926 47.1258 9.37882 47.1258C9.15968 47.1258 8.99532 46.9529 8.84924 46.6762C8.83097 46.6416 8.79446 46.607 8.77619 46.5378C8.73967 46.434 8.70315 46.3303 8.68489 46.2265C8.66663 46.1573 8.81273 45.8461 8.86751 45.8461C8.95881 45.8115 9.05012 45.7423 9.15968 45.7423C9.89014 45.7077 10.6023 45.6731 11.3328 45.6731C12.4467 45.6731 13.5606 45.6731 14.6928 45.6731C15.0216 45.6732 15.3503 45.6386 15.679 45.604C15.7155 45.604 15.752 45.5694 15.7703 45.5002C15.7885 45.431 15.752 45.3619 15.6607 45.3619C15.3685 45.3273 15.0763 45.2235 14.7842 45.2581C14.6563 45.2581 14.5285 45.2235 14.4007 45.1197C14.2546 44.9814 14.0902 44.9468 13.9259 44.9468C13.4693 44.9468 13.0128 44.9122 12.538 44.9122C12.2458 44.8776 11.9537 44.9122 11.6615 44.6701C11.5702 44.6009 11.4606 44.6701 11.3693 44.7393C11.2415 44.843 11.1136 44.843 10.9858 44.7393C10.858 44.6355 10.7302 44.6009 10.6023 44.6009C10.2006 44.5663 9.8171 44.5317 9.41536 44.4972C9.37883 44.4972 9.3423 44.428 9.3423 44.3934C9.34231 44.3242 9.37882 44.2204 9.45186 44.2204C9.9084 44.1859 10.3649 44.1859 10.8397 44.1859C11.8624 44.1859 12.885 44.2205 13.8894 44.2205C14.2181 44.2205 14.5468 44.1859 14.8755 44.1513C14.9485 44.1513 15.0033 44.0475 14.985 43.9438C14.985 43.8746 14.9668 43.84 14.9485 43.7708C14.8572 43.5633 14.7476 43.4595 14.6015 43.4941C14.5102 43.5287 14.4007 43.5633 14.3094 43.6325C14.1815 43.7362 14.0537 43.7362 13.9259 43.6325C13.7615 43.4941 13.6154 43.5287 13.4511 43.6671C13.3233 43.7708 13.1772 43.8054 13.0676 43.7017C12.7572 43.425 12.4285 43.4249 12.0998 43.3212C12.0084 43.2866 11.9171 43.1828 11.8624 43.0099C11.8076 42.8715 11.8258 42.7678 11.9171 42.7332C12.0085 42.664 12.0998 42.664 12.2093 42.664C12.6111 42.664 12.9946 42.664 13.3963 42.664C13.4876 42.664 13.5972 42.6294 13.6885 42.6294C13.725 42.6294 13.7433 42.5603 13.7798 42.5257C13.7615 42.4911 13.7433 42.4565 13.725 42.4219C13.5972 42.3182 13.4694 42.3182 13.3415 42.3182C12.885 42.3182 12.4285 42.3873 11.9537 42.2836C11.8806 42.2836 11.8441 42.1798 11.8258 42.0414C11.8258 41.9377 11.8258 41.7647 11.7893 41.6956C11.7528 41.6264 11.6615 41.5918 11.6067 41.5918C11.278 41.5572 10.9493 41.5572 10.6206 41.5226C10.4928 41.5226 10.365 41.488 10.2371 41.3843C10.091 41.2459 9.92668 41.2113 9.76232 41.2113C9.3971 41.2113 9.03188 41.1767 8.68492 41.1767C8.59361 41.1767 8.48403 41.1767 8.39273 41.1076C7.95446 40.7271 7.47967 40.9 7.0414 40.7617C6.95009 40.7271 6.91357 40.6579 6.95009 40.5196C6.96836 40.4504 6.96835 40.4158 7.00488 40.3466C7.11445 40.1045 7.29705 40.0699 7.44315 39.9662C7.53445 39.9316 7.55272 39.8278 7.51619 39.6895C7.46141 39.482 7.53446 39.3436 7.6075 39.2398C7.62577 39.2052 7.66228 39.1707 7.66228 39.1015C7.68055 38.9977 7.62577 38.9286 7.55272 38.9286C7.46142 38.894 7.35184 38.894 7.26053 38.8594C7.22401 38.8594 7.20576 38.8248 7.1875 38.7556C7.15098 38.6864 7.1875 38.5827 7.27881 38.5827C7.69881 38.4789 8.13708 38.5481 8.5571 38.5135C8.72145 38.5135 8.8858 38.4789 9.03188 38.306C9.12319 38.2022 9.23277 38.2022 9.32407 38.2714C9.48843 38.3752 9.63451 38.4443 9.79886 38.4443C9.89017 38.4443 9.99973 38.4443 10.091 38.4443C11.5702 38.4098 13.0494 38.4098 14.5285 38.4789C14.6929 38.4789 14.8572 38.4444 15.0216 38.4444C15.0946 38.4444 15.1494 38.3752 15.1677 38.306C15.1311 38.2714 15.1129 38.2368 15.0764 38.2368C14.9851 38.2022 14.8755 38.2022 14.7842 38.2022C13.8711 38.2022 12.9398 38.2022 12.0267 38.1676C11.8624 38.1676 11.698 38.1676 11.5337 38.1676C11.4424 38.1676 11.3328 38.1331 11.2415 38.0639C11.0954 37.9255 10.9311 37.8909 10.7667 37.8564C10.365 37.8564 9.98147 37.8218 9.57973 37.8218C9.32407 37.8218 9.05015 37.7872 8.79449 37.7872C8.70319 37.7872 8.59362 37.7526 8.50231 37.6834C8.31971 37.5451 8.13709 37.4413 7.93621 37.4413C7.68055 37.4067 7.40664 37.4067 7.15098 37.2338C7.02315 37.1646 6.89533 37.1646 6.7675 37.13C6.23792 37.0954 5.70833 37.0954 5.19702 37.0608C5.10571 37.0608 4.99615 37.0262 4.90484 36.9916C4.86832 36.9916 4.8318 36.957 4.81354 36.9225C4.79528 36.8187 4.8318 36.7495 4.90485 36.7149C4.99615 36.6804 5.10571 36.6458 5.1605 36.4728C5.17876 36.3691 5.12398 36.2307 5.06919 36.1615C5.05094 36.127 5.01441 36.0924 4.99616 36.0578C4.90485 35.954 4.81353 35.954 4.70397 35.954C4.37526 35.954 4.06482 35.7811 3.73613 35.5735C3.55351 35.4698 3.55352 35.4006 3.66308 35.0547C3.77266 34.7089 3.77265 34.7089 3.64482 34.4322C3.55352 34.2246 3.55352 34.1555 3.6996 34.0863C3.86396 34.0171 4.01005 33.8788 4.15614 33.775C4.28397 33.7058 4.4118 33.6712 4.53963 33.6021C4.72225 33.4983 4.7953 33.1178 4.68572 32.8757C4.63094 32.7374 4.5579 32.599 4.48486 32.4607C4.41181 32.3223 4.3205 32.2531 4.2292 32.2186C4.06485 32.184 3.90049 32.184 3.73614 32.1494C3.6631 32.1494 3.60831 32.0802 3.60831 32.011C3.60831 31.9764 3.64483 31.9073 3.68136 31.9073C3.73614 31.8727 3.80919 31.8381 3.86397 31.8035C3.9918 31.6997 4.04658 31.4922 3.97353 31.2155C3.91876 30.9388 3.93703 30.7313 4.02833 30.5238C4.0466 30.4892 4.06485 30.42 4.10138 30.3854C4.3753 29.9358 4.704 29.6245 5.05096 29.417C5.08749 29.417 5.12401 29.3824 5.14227 29.3824C5.37967 29.4862 5.59881 29.244 5.81794 29.1749C5.83621 29.1749 5.87273 29.1057 5.87273 29.0365C5.87273 29.0019 5.85446 28.9328 5.81794 28.9328C5.72663 28.829 5.63533 28.829 5.52576 28.829C5.34314 28.7944 5.23358 28.5869 5.19706 28.2756C5.14228 27.9643 5.06923 27.8605 4.92314 27.8259C4.50314 27.7914 4.06486 27.7222 3.64485 27.6876C3.62659 27.6876 3.57182 27.653 3.57182 27.6184C3.57182 27.5492 3.57181 27.4801 3.60833 27.4455C3.66311 27.3763 3.7179 27.3071 3.71791 27.1688C3.71791 27.1342 3.66312 27.0996 3.64485 27.0996C3.59007 27.065 3.51702 27.0304 3.46225 26.9958C3.37094 26.9267 3.29789 26.8229 3.26137 26.65C3.22485 26.477 3.18833 26.3041 3.11529 26.1657C3.04224 26.062 2.95094 25.9582 2.84137 25.9928C2.75006 26.0274 2.65875 26.0966 2.54918 26.0966C2.47613 26.0966 2.42136 26.0274 2.38483 25.9236C2.34831 25.8199 2.34831 25.6815 2.38484 25.5777C2.49441 25.3356 2.6405 25.1627 2.80485 25.1281C2.9692 25.0935 3.13356 25.0935 3.29791 25.0935C3.37095 25.0935 3.42573 25.0589 3.49878 25.0244C3.66313 24.9898 3.7727 24.6439 3.71792 24.3326C3.6814 24.1597 3.64487 23.9867 3.68139 23.8138C3.73618 23.5717 3.84574 23.4333 3.97357 23.3296C4.24749 23.0875 4.52142 22.8799 4.8136 22.8453C4.88665 22.8453 4.92316 22.7416 4.92316 22.6032C4.9049 22.4649 4.86839 22.3957 4.8136 22.3265C4.77708 22.2919 4.75882 22.2574 4.7223 22.2574C4.63099 22.2228 4.52142 22.1882 4.43011 22.1882C3.86401 22.1882 3.31618 22.1536 2.75008 22.1536C2.67703 22.1536 2.62225 22.1536 2.5492 22.119C2.34832 22.119 2.20223 21.8423 2.14745 21.4272C2.12919 21.2889 2.16572 21.1851 2.23876 21.1505C2.29355 21.116 2.36659 21.0814 2.42137 21.0814C3.07878 21.0122 3.7362 20.9776 4.3936 21.0122C4.63099 21.0122 4.85013 20.8739 5.03275 20.6317C5.05101 20.5972 5.06927 20.528 5.08752 20.4934C5.08753 20.4588 5.06927 20.4242 5.03275 20.3896C5.01449 20.355 4.97797 20.3205 4.94144 20.3205C4.77709 20.2859 4.61273 20.2859 4.44838 20.2513C4.21098 20.2513 3.99185 20.2167 3.77272 20.0783C3.60836 20.0092 3.44401 19.9746 3.27966 19.94C3.20661 19.9054 3.17009 19.8016 3.17009 19.6979C3.17009 19.6287 3.18836 19.5595 3.20662 19.5249C3.2614 19.3866 3.33445 19.2482 3.40749 19.1099C3.4988 18.937 3.62663 18.8332 3.75446 18.8332C3.79099 18.8332 3.82751 18.8332 3.84577 18.8332C4.13795 18.8678 4.43012 18.7986 4.70404 18.5565C4.79535 18.4873 4.88667 18.4527 4.99623 18.4527C5.25189 18.4181 5.5258 18.4181 5.78147 18.349C5.94582 18.3144 6.09191 18.2106 6.23799 18.0031C6.25626 17.9685 6.29278 17.8993 6.29278 17.8648C6.29278 17.8302 6.25627 17.761 6.21974 17.761C5.76321 17.6572 5.32493 17.3459 4.86841 17.3113C4.81362 17.3113 4.72231 17.2422 4.70405 17.1384C4.59448 16.8271 4.41187 16.6542 4.22927 16.5158C4.13796 16.4467 4.06491 16.3083 4.06491 16.1008C4.04665 15.9278 4.04666 15.7203 4.0284 15.5474C4.01014 15.409 3.90057 15.2015 3.82752 15.2015C3.53534 15.1669 3.24316 15.1323 2.95098 15.0631C2.87793 15.0631 2.80489 14.9594 2.82315 14.8902C2.85967 14.7865 2.91446 14.7519 2.98751 14.7519C3.11534 14.7519 3.24316 14.7173 3.37099 14.6827C3.42577 14.6481 3.49882 14.6135 3.5536 14.5789C3.64491 14.5098 3.71795 14.3714 3.77274 14.1985C3.71795 14.0255 3.62665 13.9563 3.57188 13.818C3.51709 13.7142 3.51709 13.6105 3.53535 13.5067C3.57187 13.3684 3.62665 13.2992 3.69969 13.3338C3.82752 13.4029 3.9371 13.4721 4.08319 13.403C4.17449 13.3684 4.28406 13.4375 4.37537 13.403C4.46667 13.3684 4.55798 13.2646 4.64929 13.1954C4.70406 13.1608 4.77712 13.1608 4.8319 13.1263C4.85016 13.0917 4.86843 13.0571 4.90495 12.9879C4.86843 12.9533 4.85016 12.9187 4.81364 12.9187C4.61277 12.8841 4.41189 12.8841 4.22928 12.8841C3.6997 12.9187 3.17013 12.8495 2.65882 12.7458C2.56751 12.7112 2.4762 12.6074 2.40315 12.4691C2.34837 12.3307 2.36664 12.227 2.43968 12.1578C2.49446 12.1232 2.56751 12.054 2.62229 12.054C2.82316 12.0194 3.02404 12.0194 3.20666 11.9849C3.2797 11.9849 3.33447 11.8811 3.33447 11.7773C3.33447 11.639 3.29795 11.5352 3.24317 11.466C3.09708 11.2931 2.93273 11.2931 2.76838 11.2585C2.64055 11.2239 2.51272 11.1202 2.42141 10.9472C2.40316 10.9126 2.36663 10.8435 2.36663 10.7743C2.36663 10.7397 2.3849 10.6705 2.40316 10.6359C2.45794 10.5322 2.58578 10.463 2.56752 10.2555C2.54925 10.0825 2.45795 9.9442 2.40316 9.80584C2.36664 9.6675 2.3849 9.56373 2.45795 9.52915C2.51273 9.49456 2.58577 9.45997 2.64056 9.45997C2.96926 9.45998 3.29797 9.45998 3.62667 9.42539C3.69972 9.42539 3.7545 9.3908 3.82754 9.3908C3.91885 9.3908 4.02842 9.1141 3.9919 9.01034C3.95538 8.90657 3.90059 8.80281 3.84582 8.76823C3.68146 8.69905 3.51711 8.69905 3.35276 8.66446C3.27971 8.66446 3.22493 8.59528 3.17014 8.52611C3.13362 8.45693 3.24319 8.11106 3.29798 8.07648C3.35276 8.04189 3.40755 7.97271 3.48059 7.93812C3.64494 7.86894 3.80929 7.79978 3.95539 7.69601C4.11973 7.55767 4.28408 7.62684 4.43017 7.7306C4.50321 7.7652 4.558 7.79978 4.61278 7.7306C4.7954 7.59225 4.99627 7.52308 5.19715 7.52308C5.32498 7.52308 5.45281 7.55767 5.5989 7.52308C5.6902 7.52308 5.79977 7.52308 5.89108 7.45391C6.165 7.2118 6.45718 7.2118 6.74936 7.17722C7.33372 7.14263 7.93635 7.10804 8.5207 7.10805C8.64853 7.10805 8.79462 7.10805 8.90419 7.00428C9.12333 6.83135 9.34246 6.79676 9.57986 6.79676C9.9816 6.79676 10.3651 6.76218 10.7668 6.72759C10.8582 6.72759 10.9677 6.7276 11.059 6.65842C11.2782 6.52007 11.4973 6.45089 11.7347 6.4509C12.3556 6.41631 12.9765 6.41631 13.6156 6.38173C13.78 6.38173 13.9443 6.34715 14.1087 6.24338C14.273 6.13962 14.4191 6.07044 14.5835 6.07045C14.7113 6.07045 14.8391 6.07045 14.9852 6.07045C15.1861 6.03586 15.3687 5.96669 15.533 5.72458C15.6791 5.48246 15.8617 5.34411 16.0809 5.34411C16.8113 5.34411 17.5235 5.30953 18.254 5.30954C18.6557 5.30954 19.0392 5.30954 19.441 5.30954C19.6783 5.30954 19.8975 5.24037 20.1166 5.13661C20.2079 5.06743 20.3175 5.06743 20.4088 5.03285C20.9019 4.92908 21.3949 4.96367 21.888 4.99826C22.0158 4.99827 22.1436 5.10203 22.2715 5.1712C22.4906 5.34414 22.7097 5.37873 22.9471 5.2058C23.0749 5.10203 23.2028 5.03286 23.3306 5.03286C23.6228 5.03286 23.915 4.9291 24.2072 4.96369C24.5724 4.99828 24.9376 4.9291 25.2846 4.9291C25.4489 4.9291 25.6133 4.89452 25.7776 4.92911C26.1976 4.99828 26.6359 4.89453 27.0559 4.92911C27.4577 4.9637 27.8411 4.96371 28.2429 4.96371C28.5351 4.96371 28.8273 4.96371 29.1377 4.96371C29.3021 4.96371 29.4664 5.06747 29.576 5.30958C29.6125 5.41335 29.6673 5.48252 29.7221 5.5517C29.7768 5.62087 29.8499 5.65546 29.9047 5.62087C29.9412 5.62087 29.9777 5.62087 29.996 5.58628C30.3064 5.24041 30.6169 5.275 30.9273 5.58629C31.0186 5.69005 31.1099 5.65546 31.2012 5.58629C31.256 5.5517 31.3108 5.48253 31.3838 5.41335C31.5664 5.275 31.7673 5.275 31.9499 5.41335C32.1325 5.58629 32.3152 5.72464 32.516 5.69006C32.6439 5.69006 32.7717 5.79382 32.8995 5.863C32.9908 5.93217 33.1004 5.93217 33.1917 5.863C33.3743 5.69006 33.5752 5.65548 33.7761 5.65548C34.1048 5.62089 34.4335 5.69007 34.7622 5.62089C34.8717 5.58631 34.9448 5.51713 34.9265 5.27502C34.9265 5.13667 34.9448 5.0329 35.0178 4.99832C35.0544 4.99832 35.0726 4.96374 35.1091 4.96374C35.1822 4.96374 35.2552 4.96374 35.2918 5.03291C35.4744 5.24043 35.657 5.27503 35.8579 5.30961C35.9492 5.30961 36.0587 5.27503 36.15 5.20585C36.2961 5.03292 36.4422 4.92915 36.6066 4.92915C36.844 4.92915 37.0631 4.85998 37.2822 4.72163C37.3735 4.65245 37.4831 4.65245 37.5744 4.65245C37.8301 4.61787 38.104 4.65246 38.3596 4.61787C38.5788 4.58329 38.7431 4.75623 38.8892 5.03293C38.9623 5.17127 39.0536 5.24045 39.1631 5.17127C39.2179 5.13669 39.291 5.06752 39.3458 5.03293C39.5284 4.92916 39.7292 4.85999 39.9119 4.68706C40.0397 4.5833 40.1675 4.58329 40.2953 4.58329C40.4962 4.61788 40.6971 4.61788 40.8797 4.75624C41.2267 5.03293 41.5919 4.96376 41.9571 4.92918C42.1397 4.72165 42.3406 4.79083 42.5232 4.89459C43.0528 4.92918 43.5824 4.99836 44.0937 4.92918C44.2215 4.8946 44.3493 4.8946 44.4772 4.79083C44.8059 4.54872 45.1163 4.58332 45.445 4.79084C45.6094 4.89461 45.7555 4.86002 45.9198 4.72167C46.1207 4.54873 46.3033 4.58332 46.4494 4.92919C46.4859 5.03295 46.5407 5.10213 46.5955 5.17131C46.8694 4.96378 47.1799 5.06755 47.4538 4.79085C47.5999 4.6525 47.7642 4.58332 47.9286 4.58332C48.0564 4.58332 48.1842 4.58332 48.3303 4.54874C48.4581 4.54874 48.586 4.47957 48.7138 4.3758C48.8416 4.27204 48.9695 4.23746 49.0973 4.23746C49.3529 4.23746 49.6269 4.23746 49.8825 4.23746C50.3756 4.23746 50.8686 4.23746 51.3617 4.20287C51.6173 4.20288 51.8913 4.16829 52.1469 4.23747C52.3113 4.27205 52.4756 4.20288 52.6217 4.02994C52.8774 3.75324 53.1513 3.51113 53.407 3.26902C53.4983 3.19985 53.5896 3.13067 53.6809 3.09609C54.2105 3.0615 54.74 2.99233 55.2513 3.02692C55.4157 3.02692 55.5801 3.0961 55.7261 3.23445C55.854 3.33821 55.9818 3.40738 56.1096 3.40739C56.5114 3.40739 56.8949 3.40739 57.2966 3.44197C57.534 3.44198 57.7531 3.40739 57.9723 3.26904C58.0636 3.19987 58.1549 3.16528 58.2645 3.16528C58.5019 3.13069 58.721 3.09611 58.9584 3.1307C59.6888 3.16529 60.401 3.1307 61.1315 3.09612C61.588 3.09612 62.0445 3.13071 62.5193 3.1653C62.6106 3.1653 62.7202 3.09613 62.775 2.95778C62.848 2.81942 62.9028 2.68108 62.9759 2.54273C63.0489 2.40438 63.1585 2.36979 63.2498 2.40438C63.3046 2.43896 63.3776 2.43896 63.4324 2.50814C63.5055 2.57732 63.5602 2.61191 63.615 2.54273C63.9255 2.30062 64.2542 2.3698 64.5829 2.3698C64.7472 2.3698 64.9116 2.30062 65.0577 2.16228C65.149 2.05851 65.2403 2.05851 65.3316 2.16228C65.3864 2.19686 65.4411 2.26604 65.5142 2.33521C65.642 2.43897 65.7698 2.43897 65.8977 2.40439C66.1533 2.33522 66.3907 2.0931 66.6464 1.95476C66.9021 1.78181 67.1577 1.71265 67.4134 1.71265C67.9795 1.71265 68.5273 1.71265 69.0934 1.71266C69.4952 1.71266 69.8786 1.67807 70.2804 1.60889C70.3717 1.60889 70.4813 1.53972 70.5726 1.47055C70.7004 1.40138 70.8282 1.43596 70.9561 1.47055C71.0291 1.50514 71.0839 1.50514 71.1569 1.47055C71.3213 1.36679 71.4674 1.3322 71.65 1.3322C72.8005 1.29762 73.9509 1.29762 75.1014 1.26304C75.7223 1.26305 76.3431 1.26305 76.9823 1.26305C77.1832 1.26305 77.3658 1.19388 77.5666 1.09011C77.7493 0.95176 77.9501 0.986352 78.151 1.09011C78.2058 1.1247 78.2788 1.1593 78.3336 1.1593C78.4615 1.1593 78.5893 1.02094 78.7171 1.09012C78.8449 1.12471 78.9728 1.26306 79.1006 1.26306C79.1919 1.26306 79.3015 1.26306 79.3928 1.19389C79.5571 1.05553 79.7032 1.05554 79.8676 1.19389C79.9589 1.26306 80.0502 1.29765 80.1597 1.29765C80.525 1.29765 80.8902 1.29765 81.2372 1.29765C81.365 1.29765 81.4928 1.26307 81.6207 1.15931C81.8763 0.986369 82.132 0.98637 82.3876 1.1939C82.4789 1.26307 82.5702 1.29766 82.6798 1.29766C83.3737 1.26308 84.0677 1.36684 84.7433 1.36684C85.0355 1.36685 85.3277 1.36685 85.6381 1.36685C85.8025 1.36685 85.9668 1.40144 86.1129 1.5052C86.2773 1.60897 86.4234 1.64355 86.5877 1.67815C86.7886 1.71273 86.9895 1.71273 87.1721 1.74732C87.2999 1.74732 87.4277 1.81649 87.5556 1.92026C87.7747 2.0932 88.0121 2.12778 88.2312 1.95485C88.4504 1.8165 88.6695 1.74732 88.9069 1.88568C88.9799 1.92026 89.0347 1.92026 89.1078 1.88568C89.1991 1.85109 89.3086 1.78191 89.4 1.78191C89.6921 1.78191 89.9843 1.78192 90.2948 1.74733C90.4226 1.74733 90.5504 1.78192 90.6782 1.88568C90.8426 1.98944 91.0069 1.95486 91.153 1.8511C91.2809 1.74733 91.4087 1.74734 91.5365 1.81651C91.7557 1.95486 91.9748 2.02404 92.2122 2.02404C93.107 2.05864 93.9835 2.09323 94.8783 2.09323C95.0792 2.09323 95.2618 2.12781 95.4627 2.26617C95.554 2.33534 95.6453 2.33534 95.7549 2.30075C95.8097 2.26617 95.8827 2.23158 95.9375 2.23158C96.5219 2.4737 97.1062 2.40453 97.7088 2.43911C97.9645 2.4737 98.2202 2.54287 98.4758 2.64664C98.7315 2.7504 98.9871 2.7504 99.261 2.81958C99.3706 2.85417 99.4437 2.95793 99.5167 3.0617C99.535 3.09629 99.5532 3.16546 99.5897 3.20005C99.6445 3.30381 99.6993 3.3384 99.7541 3.30381C99.9367 3.16546 100.138 3.09629 100.338 3.23464C100.393 3.26922 100.448 3.37299 100.485 3.47675C100.539 3.6151 100.466 3.82262 100.338 3.8918C100.302 3.92639 100.284 3.92639 100.247 3.92639C100.211 3.92639 100.174 3.96097 100.156 3.96097C100.156 3.92639 100.138 3.85721 100.138 3.82263C100.119 3.78804 100.101 3.78804 100.083 3.78804C100.083 3.85721 100.119 3.92639 100.174 3.96097C100.247 4.37603 100.375 4.7219 100.393 5.17154C100.43 5.65576 100.448 5.65577 100.229 5.8287C100.065 5.96705 99.955 6.17458 99.955 6.52045C99.955 6.58963 99.955 6.6588 99.955 6.69339C99.955 6.83174 99.955 6.9355 99.9184 7.07385C99.8454 7.38514 99.8454 7.66184 99.9732 7.90395C100.028 8.00772 100.065 8.11148 100.046 8.24983C100.028 8.35359 99.955 8.42276 99.9184 8.52652C99.9002 8.56111 99.8819 8.63029 99.8454 8.66488C99.7723 8.83781 99.7906 9.04534 99.9002 9.11451C99.9915 9.18369 100.083 9.21827 100.174 9.32204C100.247 9.39121 100.265 9.49498 100.265 9.59874C100.265 9.73709 100.229 9.84086 100.174 9.87544C100.119 9.94462 100.046 9.94462 99.9915 9.97921C99.8636 10.0484 99.8271 10.2213 99.9002 10.3597C99.9549 10.498 100.028 10.6364 100.083 10.7747C100.174 10.9822 100.119 11.2244 99.9732 11.3627C99.9184 11.3973 99.8454 11.4319 99.7906 11.4319C99.7175 11.4665 99.6628 11.5356 99.6628 11.6394C99.6628 11.7778 99.6993 11.8815 99.7541 11.9507C99.8088 12.0199 99.8636 12.0545 99.9184 12.1236C100.046 12.262 100.046 12.2966 99.9549 12.5041C99.8454 12.7116 99.8454 12.7116 99.9732 12.8845C100.119 13.1267 100.156 13.265 100.083 13.5071C100.01 13.7838 99.9367 14.0605 99.8636 14.3372C99.8088 14.5448 99.8088 14.5793 99.9001 14.8215C99.9367 14.9252 99.9914 14.9944 100.028 15.0981C100.083 15.2711 100.119 15.444 100.083 15.617C100.028 15.9628 99.9549 16.3087 99.9367 16.6892C99.9184 17.0005 99.8636 17.2772 99.8088 17.5885C99.7723 17.796 99.8088 17.9689 99.8819 18.1073C100.028 18.4531 100.138 18.8336 100.229 19.2141C100.247 19.3178 100.247 19.4562 100.174 19.5254C100.064 19.6637 99.9366 19.7675 99.8636 19.975C99.8271 20.0788 99.8088 20.2171 99.8088 20.3209C99.8088 20.4246 99.8271 20.563 99.8636 20.6667C99.9549 21.0126 99.8819 21.2547 99.7358 21.4623C99.6445 21.6006 99.6445 21.7735 99.7358 21.9465C99.8271 22.1194 99.9184 22.2924 100.01 22.4653C100.064 22.6036 100.138 22.7766 100.101 22.9841C99.9731 23.7104 99.9366 24.4368 99.9731 25.1977C99.9366 25.1977 99.9184 25.1977 99.9001 25.2323C99.8818 25.2323 99.8818 25.3015 99.8818 25.3361C99.9184 25.1631 99.9549 25.1285 99.9549 24.9556ZM8.61188 38.8248C8.52057 38.7902 8.42927 38.7902 8.3197 38.7902C8.28318 38.7902 8.26491 38.8248 8.22839 38.8594C8.21013 38.894 8.19186 38.9286 8.1736 38.9631C8.19186 38.9977 8.22839 39.0669 8.24665 39.0669C8.50231 39.1707 8.75796 39.0669 8.99536 39.0669C9.03188 39.0669 9.06841 39.0323 9.06841 38.9977C9.08667 38.9286 9.05015 38.8248 8.9771 38.8248C8.86754 38.8248 8.73971 38.8248 8.61188 38.8248ZM3.80898 79.5689C3.82725 79.5689 3.79072 79.5689 3.77246 79.5689C3.69942 79.6034 3.66289 79.6726 3.68115 79.7418C3.69941 79.7764 3.73594 79.811 3.7542 79.8456C3.88203 79.8801 3.9916 79.8802 4.11943 79.811C4.15595 79.811 4.17421 79.7418 4.19246 79.7072C4.15594 79.6035 4.10116 79.5343 4.04638 79.5343C3.97333 79.5689 3.90029 79.5689 3.80898 79.5689ZM55.1052 5.033C55.1783 5.17134 55.2696 5.17134 55.3609 5.13676C55.3974 5.13676 55.434 5.10217 55.434 5.06758C55.4522 4.99841 55.4157 4.92923 55.3426 4.89464C55.2148 4.86006 55.1053 4.92923 55.1052 5.033Z" fill="#00659E"/>
<path d="M4.64944 84.7568C4.339 84.7223 4.04682 84.7223 3.73638 84.6877C3.69986 84.6877 3.66334 84.6532 3.66334 84.5841C3.66334 84.515 3.69986 84.4114 3.77291 84.4114C3.90073 84.3768 4.02856 84.3423 4.15639 84.3077C4.59466 83.8932 5.0512 83.9968 5.48947 84.3423C5.54425 84.3768 5.6173 84.3768 5.67208 84.4459C5.7086 84.4805 5.72686 84.515 5.74512 84.5841C5.74512 84.5841 5.7086 84.6532 5.69034 84.6877C5.63555 84.7223 5.56251 84.7568 5.50772 84.7568C5.21554 84.7568 4.92336 84.7568 4.64944 84.7568Z" fill="#FFB820"/>
<path d="M10.6199 52.6962C10.7843 52.6962 10.9121 52.7998 10.8756 52.8688C10.8025 53.007 10.6929 53.007 10.6016 53.007C10.5286 53.007 10.4738 53.007 10.419 52.9724C10.4008 52.9724 10.3642 52.9034 10.346 52.8688C10.3642 52.8343 10.4008 52.7653 10.419 52.7653C10.4921 52.6962 10.5651 52.6962 10.6199 52.6962Z" fill="#FFB820"/>
<path d="M0.831064 75.1053C0.904108 75.0707 0.95889 75.1053 1.01367 75.2089C0.995411 75.3126 0.958887 75.3817 0.885844 75.3817C0.794539 75.3817 0.703235 75.3817 0.611931 75.3817C0.538887 75.3817 0.484098 75.3126 0.502359 75.2435C0.50236 75.2089 0.538886 75.1744 0.575408 75.1398C0.61193 75.1053 0.630191 75.1053 0.666712 75.1053C0.721495 75.0707 0.776282 75.1053 0.831064 75.1053Z" fill="#FFB820"/>
<path d="M49.4055 3.54745C49.4055 3.51271 49.4055 3.44323 49.4238 3.44323C49.5152 3.33901 49.6066 3.33901 49.6981 3.40849C49.7164 3.44323 49.7529 3.47797 49.7529 3.51271C49.7529 3.61693 49.6249 3.68641 49.4969 3.61693C49.4604 3.65167 49.4238 3.58219 49.4055 3.54745Z" fill="#FFB820"/>
<path d="M4.33757 28.4121C4.33757 28.3775 4.33757 28.3083 4.33757 28.2737C4.37414 28.1354 4.42899 28.1354 4.44727 28.3083C4.44727 28.3429 4.44727 28.4121 4.44727 28.4466C4.42898 28.4812 4.41071 28.5504 4.39242 28.5504C4.37414 28.5158 4.35585 28.4466 4.33757 28.4121Z" fill="#FFB820"/>
<path d="M8.19141 46.1234L8.13674 46.1583L8.13674 46.0537L8.19141 46.1234Z" fill="#FFB820"/>
<path d="M5.68945 50.7552C5.61653 50.7552 5.58007 50.686 5.58007 50.6169C5.59831 50.6169 5.63476 50.6169 5.63476 50.6515C5.65299 50.686 5.653 50.7552 5.67123 50.7898L5.68945 50.7552Z" fill="#FFB820"/>
<path d="M5.67128 50.7888C5.7446 50.7888 5.78125 50.8589 5.78125 50.929C5.76292 50.929 5.72626 50.929 5.72626 50.8939C5.70793 50.8589 5.70793 50.7888 5.6896 50.7538L5.67128 50.7888Z" fill="#FFB820"/>
<path d="M7.05859 50.7557C7.05859 50.9296 7.02259 50.9644 6.96858 50.9644C6.96858 50.9296 6.98658 50.86 6.98658 50.86C7.02258 50.7905 7.04059 50.7905 7.05859 50.7557Z" fill="#FFB820"/>
<path d="M46.8842 60.1607C46.8692 60.0869 46.8473 60.0144 46.8185 59.9441C46.7897 59.8749 46.754 59.8081 46.7125 59.7459C46.671 59.6825 46.6226 59.6237 46.5696 59.5707C46.5166 59.5177 46.4578 59.4693 46.3944 59.4278C46.3322 59.3863 46.2654 59.3506 46.1951 59.3218C46.1259 59.293 46.0533 59.2699 45.9796 59.2561C45.8309 59.2262 45.6777 59.2262 45.5302 59.2561C45.4564 59.2699 45.3838 59.293 45.3135 59.3218C45.2444 59.3506 45.1776 59.3863 45.1153 59.4278C45.052 59.4693 44.9932 59.5177 44.9402 59.5707C44.8872 59.6237 44.8388 59.6825 44.7973 59.7459C44.7546 59.8081 44.7201 59.8749 44.6913 59.9441C44.6625 60.0144 44.6394 60.0869 44.6256 60.1607C44.6106 60.2344 44.6025 60.3105 44.6025 60.3854C44.6025 60.4603 44.6106 60.5364 44.6256 60.6101C44.6394 60.6839 44.6625 60.7565 44.6913 60.8256C44.7201 60.8959 44.7546 60.9627 44.7973 61.025C44.8388 61.0883 44.8872 61.1471 44.9402 61.2001C44.9932 61.2531 45.052 61.3015 45.1153 61.343C45.1776 61.3846 45.2444 61.4203 45.3135 61.4491C45.3838 61.4779 45.4564 61.501 45.5302 61.5148C45.6039 61.5298 45.68 61.5379 45.7549 61.5379C45.8298 61.5379 45.9058 61.5298 45.9796 61.5148C46.0533 61.501 46.1259 61.4779 46.1951 61.4491C46.2654 61.4203 46.3322 61.3845 46.3944 61.343C46.4578 61.3015 46.5166 61.2531 46.5696 61.2001C46.6226 61.1471 46.671 61.0883 46.7125 61.025C46.754 60.9627 46.7897 60.8959 46.8185 60.8256C46.8473 60.7565 46.8692 60.6839 46.8842 60.6101C46.8992 60.5364 46.9072 60.4603 46.9072 60.3854C46.9072 60.3105 46.8992 60.2344 46.8842 60.1607Z" fill="white"/>
<path d="M80.007 60.5157C80.0025 60.5042 79.9979 60.4928 79.9931 60.4815C78.9324 57.9997 76.445 57.0824 73.5012 58.0878L65.4731 60.3079C65.0089 58.9023 63.8511 57.7062 62.2141 57.0987C62.204 57.095 62.1938 57.0913 62.1836 57.0878L53.3588 54.0927C52.6243 53.1432 50.3236 50.7139 46.0157 50.7139C43.0052 50.7139 40.3421 52.7791 38.8184 55.0302H28.1523C27.5159 55.0302 27 55.5461 27 56.1825V70.711C27 71.3474 27.5159 71.8633 28.1523 71.8633H35.0038C35.6403 71.8633 36.1562 71.3474 36.1562 70.711V69.716H39.3693C40.0057 69.716 40.5216 69.2001 40.5216 68.5637V68.232C42.3946 68.3954 43.0107 68.7507 44.7309 69.7426C46.0538 70.5055 48.0532 71.6584 51.6538 73.2773C51.6705 73.2848 51.6875 73.292 51.7044 73.2987C52.3955 73.5705 53.7464 73.9976 55.4118 73.9976C56.5711 73.9976 57.883 73.7905 59.2297 73.1801L76.9747 66.8265C77.0063 66.8152 77.0374 66.8025 77.0678 66.7885C78.7637 66.0082 81.2909 63.8092 80.007 60.5157ZM33.8515 69.5585H29.3047V57.3348H33.8515V69.5585ZM38.2169 67.4112H36.1562V57.3348H38.2169V67.4112ZM76.147 64.6747L58.4099 71.0254C58.3943 71.031 58.3732 71.0393 58.3579 71.0455C58.3424 71.0518 58.3268 71.0585 58.3115 71.0655C55.8412 72.2008 53.4931 71.5212 52.5728 71.1634C49.0948 69.5984 47.2385 68.528 45.8822 67.7459C43.9965 66.6585 43.0879 66.1344 40.5216 65.9225V56.6413C41.6139 54.851 43.7321 53.0184 46.0159 53.0184C49.9322 53.0184 51.5917 55.5657 51.6569 55.6685C51.7976 55.8973 52.0139 56.0698 52.2682 56.1562L61.4265 59.2645C62.8892 59.8135 63.6622 61.0661 63.3069 62.3152C63.1429 62.8921 62.764 63.3705 62.2402 63.6624C61.7208 63.9518 61.1204 64.0233 60.5482 63.865L50.224 60.5933C49.6169 60.4009 48.9695 60.737 48.7773 61.3437C48.585 61.9504 48.921 62.598 49.5277 62.7903L59.8699 66.0677C59.8809 66.0712 59.8918 66.0745 59.9029 66.0776C60.3158 66.195 60.7361 66.2531 61.154 66.2531C61.9189 66.2531 62.6754 66.0583 63.362 65.6757C64.4236 65.0842 65.1913 64.1146 65.5237 62.9455C65.5502 62.8522 65.5737 62.7589 65.5941 62.6655L74.2462 60.2686C75.4958 59.8418 77.1362 59.688 77.8665 61.3701C78.6225 63.3448 76.6577 64.4311 76.147 64.6747Z" fill="white"/>
<path d="M68.3756 30.1583C68.3606 30.0845 68.3387 30.0119 68.3087 29.9416C68.2799 29.8725 68.2454 29.8056 68.2027 29.7434C68.1612 29.68 68.1128 29.6213 68.0598 29.5683C68.0068 29.5153 67.948 29.4669 67.8847 29.4254C67.8224 29.3839 67.7556 29.3482 67.6865 29.3194C67.6162 29.2905 67.5436 29.2675 67.471 29.2537C67.3223 29.2237 67.1691 29.2237 67.0204 29.2537C66.9467 29.2675 66.8741 29.2905 66.8049 29.3194C66.7346 29.3482 66.6678 29.3839 66.6056 29.4254C66.5422 29.4669 66.4834 29.5153 66.4304 29.5683C66.3774 29.6213 66.329 29.68 66.2875 29.7434C66.246 29.8056 66.2103 29.8725 66.1815 29.9416C66.1527 30.0119 66.1296 30.0845 66.1158 30.1583C66.1008 30.232 66.0928 30.3081 66.0928 30.383C66.0928 30.4579 66.1008 30.5339 66.1158 30.6077C66.1296 30.6814 66.1527 30.754 66.1815 30.8232C66.2103 30.8935 66.246 30.9603 66.2875 31.0225C66.329 31.0859 66.3774 31.1447 66.4304 31.1977C66.4834 31.2507 66.5422 31.2991 66.6056 31.3406C66.6678 31.382 66.7346 31.4178 66.8049 31.4466C66.8741 31.4754 66.9467 31.4973 67.0204 31.5123C67.0942 31.5272 67.1702 31.5353 67.2451 31.5353C67.32 31.5353 67.3961 31.5272 67.471 31.5123C67.5436 31.4973 67.6162 31.4754 67.6865 31.4466C67.7556 31.4178 67.8224 31.382 67.8847 31.3406C67.948 31.2991 68.0068 31.2507 68.0598 31.1977C68.1128 31.1447 68.1612 31.0859 68.2027 31.0225C68.2454 30.9603 68.2799 30.8935 68.3087 30.8232C68.3387 30.754 68.3606 30.6814 68.3756 30.6077C68.3905 30.5339 68.3975 30.4579 68.3975 30.383C68.3975 30.3081 68.3905 30.232 68.3756 30.1583Z" fill="white"/>
<path d="M84.8462 18.9055H77.9947C77.3582 18.9055 76.8423 19.4214 76.8423 20.0579V21.0528H73.6293C72.9928 21.0528 72.4769 21.5687 72.4769 22.2052V22.5368C70.6039 22.3733 69.9879 22.0181 68.2678 21.0262C66.9449 20.2633 64.9454 19.1104 61.3447 17.4915C61.328 17.4839 61.3112 17.4769 61.294 17.4702C60.122 17.009 57.0501 16.1017 53.7693 17.5885L49.1323 19.2488L45.2236 15.3403C44.7737 14.8903 44.044 14.8903 43.594 15.3403L30.7617 28.1725C30.3467 28.5876 30.267 29.3075 30.7617 29.8022L52.6893 51.7298C53.0402 52.0808 53.8618 52.187 54.3191 51.7298L66.0344 40.0146C66.339 40.0409 66.655 40.0551 66.9827 40.0551C69.9933 40.0551 72.6563 37.9898 74.1799 35.7389H84.8462C85.4826 35.7389 85.9985 35.223 85.9985 34.5865V20.0579C85.9985 19.4214 85.4826 18.9055 84.8462 18.9055ZM44.4087 17.7848L47.0351 20.4112C46.2544 20.894 45.3518 21.1524 44.4087 21.1524C43.4655 21.1524 42.563 20.8941 41.7823 20.4112L44.4087 17.7848ZM35.8327 31.6138L33.2063 28.9873L35.8327 26.3609C36.3156 27.1416 36.5739 28.0442 36.5739 28.9873C36.5739 29.9304 36.3157 30.833 35.8327 31.6138ZM53.5043 49.2852L50.8783 46.6593C52.4816 45.6699 54.5267 45.6699 56.1301 46.6593L53.5043 49.2852ZM57.7904 44.9992C55.244 43.152 51.7646 43.152 49.2181 44.9992L37.4929 33.2739C38.3928 32.0363 38.8786 30.5496 38.8786 28.9873C38.8786 27.4248 38.3929 25.9383 37.4929 24.7007L40.1222 22.0715C41.3598 22.9714 42.8464 23.4572 44.4088 23.4572C45.9713 23.4572 47.4578 22.9714 48.6954 22.0715L51.1878 24.5639C50.65 24.6433 50.1256 24.8205 49.6365 25.093C48.8105 25.5533 48.1625 26.2425 47.7589 27.0763C46.4591 27.3171 45.2557 27.9464 44.3117 28.8903C41.7506 31.4515 41.7506 35.6187 44.3118 38.1799C45.5923 39.4604 47.2744 40.1007 48.9566 40.1007C50.6386 40.1007 52.3208 39.4605 53.6014 38.1799C54.4346 37.3467 55.0182 36.3228 55.3106 35.2068L59.2013 36.5273C58.7633 38.5563 59.2119 40.6909 60.422 42.3676L57.7904 44.9992ZM50.7844 33.6702C50.7945 33.6739 50.8047 33.6775 50.8149 33.681L53.1192 34.4631C52.9452 35.2484 52.5514 35.9705 51.9718 36.5502C50.3092 38.2126 47.6039 38.2128 45.9416 36.5502C44.279 34.8877 44.279 32.1826 45.9416 30.52C46.3426 30.1188 46.8158 29.8052 47.3315 29.5926C47.5442 31.3628 48.8188 32.9407 50.7844 33.6702ZM62.0824 40.7071C61.6376 39.9823 61.386 39.155 61.3462 38.3107C61.8982 38.7097 62.5728 39.1007 63.3785 39.411L62.0824 40.7071ZM72.4768 34.1271C71.3846 35.9176 69.2664 37.7502 66.9827 37.7502C66.5554 37.7502 66.1549 37.7197 65.7805 37.6656C65.779 37.6653 65.7775 37.6651 65.776 37.6649C63.2874 37.3034 61.9488 35.889 61.5075 35.329C61.484 35.2944 61.3839 35.1634 61.369 35.1416C61.2348 34.9017 61.0147 34.7088 60.734 34.6135L51.5719 31.5039C50.1098 30.9551 49.3369 29.7031 49.6912 28.4544C49.6914 28.4536 49.6916 28.4528 49.6919 28.452C49.6922 28.4511 49.6924 28.4501 49.6927 28.4491C49.8573 27.8741 50.2355 27.3972 50.7582 27.106C51.2775 26.8166 51.8777 26.7448 52.4502 26.9035L62.7744 30.1751C63.3812 30.3677 64.0289 30.0314 64.2211 29.4247C64.4133 28.818 64.0774 28.1704 63.4707 27.9781L55.2596 25.3761L55.188 25.3044C55.1873 25.3037 55.1866 25.3029 55.1858 25.3022L50.9348 21.0512L54.5886 19.7428C54.601 19.7383 54.6162 19.7327 54.6284 19.7277C54.6315 19.7265 54.6375 19.7242 54.6405 19.7229C54.6562 19.7166 54.6716 19.7099 54.6869 19.7028C57.1571 18.5676 59.5051 19.2471 60.4255 19.605C63.9036 21.17 65.76 22.2404 67.1163 23.0225C69.002 24.11 69.9106 24.634 72.4768 24.8459V34.1271ZM76.8423 33.4339H74.7816V23.3575H76.8423V33.4339ZM83.6938 33.4339H79.147V21.2102H83.6938V33.4339Z" fill="white"/>
</svg>
