<svg width="115" height="87" viewBox="0 0 115 87" fill="none" xmlns="http://www.w3.org/2000/svg">
<path d="M112.236 4.20203C112.817 4.23625 113.363 4.23625 113.944 4.27047C114.013 4.27047 114.081 4.30469 114.081 4.37313C114.081 4.44157 114.013 4.54423 113.876 4.54423C113.637 4.57845 113.398 4.61267 113.158 4.64689C112.338 5.05754 111.484 4.95488 110.664 4.61267C110.561 4.57845 110.425 4.57845 110.322 4.51001C110.254 4.47579 110.22 4.44157 110.186 4.37313C110.186 4.37313 110.254 4.30469 110.288 4.27047C110.391 4.23625 110.527 4.20203 110.63 4.20203C111.176 4.20203 111.723 4.20203 112.236 4.20203Z" fill="#FFB820"/>
<path d="M112.819 59.8667C112.819 59.9008 112.819 59.9692 112.819 60.0033C112.75 60.14 112.648 60.14 112.613 59.9692C112.613 59.935 112.613 59.8667 112.613 59.8325C112.648 59.7983 112.682 59.73 112.716 59.73C112.75 59.7642 112.784 59.8325 112.819 59.8667Z" fill="#FFB820"/>
<path d="M110.29 37.7925C110.427 37.7925 110.495 37.861 110.495 37.9294C110.461 37.9294 110.393 37.9294 110.393 37.8952C110.358 37.861 110.358 37.7925 110.324 37.7583L110.29 37.7925Z" fill="#FFB820"/>
<path d="M105.607 42.3689L105.71 42.335V42.4368L105.607 42.3689Z" fill="#FFB820"/>
<path d="M110.323 37.758C110.187 37.758 110.118 37.6898 110.118 37.6216C110.152 37.6216 110.221 37.6216 110.221 37.6557C110.255 37.6898 110.255 37.758 110.289 37.7921L110.323 37.758Z" fill="#FFB820"/>
<path d="M107.727 37.7943C107.727 37.6243 107.795 37.5903 107.898 37.5903C107.898 37.6243 107.864 37.6923 107.864 37.6923C107.795 37.7603 107.761 37.7603 107.727 37.7943Z" fill="#FFB820"/>
<path d="M4.46124 63.104C4.25425 63.104 4.04727 63.0699 3.8591 63.0699C3.76502 63.0699 3.65212 63.0358 3.55804 62.9677C3.29461 62.7633 3.03117 62.7292 2.76774 62.7292C2.52312 62.7292 2.29732 62.7292 2.05271 62.7292C1.92099 62.7292 1.77046 62.7292 1.65756 62.661C1.37531 62.4907 1.07424 62.4225 0.773178 62.3544C0.716728 62.3544 0.641462 62.2522 0.603828 62.15C0.547379 62.0137 0.472112 61.8433 0.453296 61.6729C0.321579 60.9233 0.171046 60.1737 0.0205133 59.4241C-0.0171199 59.2538 0.0016967 59.0493 0.0393299 58.879C0.15223 58.5042 0.189863 58.0953 0.246313 57.6524C0.302763 57.1753 0.396846 56.7324 0.453296 56.2213C0.490929 55.9487 0.490929 55.7443 0.396846 55.5399C0.359212 55.4376 0.321579 55.3354 0.283946 55.2332C0.171046 54.8243 0.171046 54.4155 0.246313 54.0066C0.302763 53.7681 0.415662 53.6318 0.547379 53.5636C0.679095 53.4955 0.810811 53.4955 0.942528 53.4614C1.03661 53.4274 1.14951 53.3933 1.24359 53.3592C1.31886 53.3251 1.35649 53.2229 1.33768 53.0866C1.33768 53.0526 1.30004 52.9844 1.28123 52.9503C1.26241 52.9163 1.22478 52.8481 1.20596 52.8481C0.867261 52.78 0.547379 52.5415 0.265129 52.2348C0.227496 52.2007 0.208679 52.1667 0.189863 52.1326C0.114596 52.0304 0.0957798 51.7919 0.189863 51.6896C0.472112 51.383 0.453296 51.0423 0.340396 50.5993C0.283946 50.3949 0.227496 50.1564 0.227496 49.9179C0.227496 49.6112 0.208679 49.3046 0.227496 48.9979C0.265129 48.6912 0.340396 48.4187 0.528562 48.3505C0.566195 48.3505 0.603829 48.3165 0.622645 48.2824C0.660278 48.2483 0.697912 48.1802 0.697912 48.1802C0.660278 48.0779 0.603829 48.0439 0.528562 48.0098C0.434479 47.9757 0.321579 47.9757 0.227496 47.9417C0.15223 47.9076 0.0581466 47.635 0.0769632 47.4987C0.114596 47.1921 0.208679 46.9195 0.15223 46.6128C0.114596 46.3402 0.133413 46.2721 0.227496 46.1699C0.378029 46.0336 0.528562 45.8632 0.660278 45.7269C0.754361 45.6247 0.773178 45.3521 0.697912 45.2499C0.641462 45.1818 0.603828 45.0795 0.547379 45.0114C0.472112 44.8751 0.396846 44.7729 0.321579 44.6366C0.246313 44.5003 0.246313 44.2618 0.302763 44.1255C0.359212 44.0574 0.396846 43.9552 0.453296 43.887C0.585012 43.7166 0.716728 43.5122 0.810811 43.2396C0.904894 42.933 1.05543 42.8648 1.24359 42.8308C1.37531 42.7967 1.50703 42.7967 1.63874 42.7285C1.71401 42.6945 1.75164 42.5922 1.75164 42.456C1.75164 42.3537 1.69519 42.2174 1.61993 42.2174C1.28123 42.1493 0.942528 42.1493 0.603828 42.0812C0.547379 42.0812 0.472112 41.9789 0.415662 41.9449C0.283946 41.8086 0.246313 41.536 0.340396 41.3656C0.528562 41.0249 0.603828 40.6842 0.453296 40.2072C0.396846 40.0368 0.415662 39.8664 0.509745 39.7301C0.528562 39.6961 0.566195 39.6279 0.585012 39.6279C0.716728 39.5598 0.848445 39.5257 0.980161 39.5598C1.48821 39.6279 1.99626 39.5257 2.50431 39.5257C2.54194 39.5257 2.57957 39.4916 2.59839 39.4916C2.63602 39.4576 2.65484 39.4235 2.67366 39.3894C2.63602 39.3553 2.61721 39.3213 2.57957 39.2872C2.35377 39.185 2.10916 39.2872 1.86454 39.2191C1.77046 39.185 1.65756 39.2191 1.56348 39.1168C1.24359 38.8102 0.923711 38.8102 0.585012 38.7761C0.509745 38.7761 0.472112 38.6398 0.490929 38.5717C0.509745 38.5376 0.528562 38.4695 0.566195 38.4695C0.603828 38.4354 0.641462 38.4354 0.660278 38.4354C0.923711 38.4354 1.20596 38.4354 1.45058 38.1969C1.78928 38.0947 2.09034 37.788 2.41022 37.6176C2.42904 37.6176 2.44786 37.5154 2.48549 37.4813C2.46667 37.4473 2.42904 37.4132 2.41022 37.3791C2.31614 37.311 2.22206 37.311 2.10916 37.311C1.77046 37.311 1.43176 37.311 1.09306 37.311C0.923711 37.311 0.773178 37.1406 0.641462 36.9362C0.566195 36.7999 0.566195 36.5955 0.622645 36.4592C0.660278 36.3569 0.716728 36.3229 0.791995 36.2547C0.904894 36.1525 0.904894 35.9822 0.829628 35.8118C0.697912 35.437 0.453296 35.3007 0.265129 35.0622C0.208679 34.96 0.189863 34.8578 0.208679 34.7215C0.208679 34.6533 0.227496 34.6192 0.246313 34.5511C0.283946 34.4489 0.302763 34.3467 0.340396 34.2104C0.453296 33.7674 0.566195 33.7334 0.735545 33.8356C0.904894 33.9378 1.07424 33.9378 1.22478 33.8015C1.35649 33.6993 1.48821 33.6311 1.60111 33.4948C1.78928 33.2904 1.97744 33.2563 2.18442 33.2563C2.89946 33.2904 3.61449 33.2904 4.3107 33.2563C4.51769 33.2563 4.57414 33.086 4.49887 32.8134C4.40479 32.4386 4.44242 32.0979 4.51769 31.7571C4.55532 31.5868 4.51769 31.4164 4.44242 31.2801C4.32952 31.0416 4.1978 30.8713 4.10372 30.5987C4.04727 30.4283 4.04727 30.2239 4.10372 30.0876C4.17899 29.8831 4.29189 29.7469 4.38597 29.5765C4.57413 29.2698 4.6494 28.861 4.66822 28.418C4.66822 28.2477 4.66822 28.0432 4.66822 27.8729C4.66822 27.5662 4.63059 27.2595 4.51769 27.021C4.46124 26.8847 4.38597 26.7144 4.32952 26.5781C4.27307 26.4077 4.25425 26.2374 4.25425 26.067C4.25425 25.6922 4.29189 25.3515 4.38597 25.0108C4.44242 24.8063 4.51769 24.6019 4.57413 24.3634C4.61177 24.193 4.61177 24.0226 4.57413 23.8182C4.5365 23.716 4.51769 23.6138 4.48005 23.4775C4.46124 23.3753 4.4236 23.239 4.4236 23.1368C4.44242 22.7279 4.40479 22.2849 4.5365 21.8761C4.61177 21.6035 4.6494 21.2968 4.63059 20.9902C4.59295 20.3769 4.63059 19.7636 4.70585 19.1503C4.74348 18.9117 4.74348 18.6732 4.70585 18.4347C4.6494 18.0259 4.57413 17.617 4.48005 17.2081C4.46124 17.1059 4.46124 16.9696 4.49887 16.8674C4.59295 16.4585 4.6494 16.0496 4.6494 15.6067C4.6494 15.3 4.72467 15.0275 4.81875 14.7549C4.91283 14.5164 4.96928 14.2097 4.9881 13.9031C5.00692 13.3579 5.04455 12.8127 5.04455 12.2676C5.04455 11.8246 5.08218 11.4158 5.19508 11.041C5.2139 10.9728 5.2139 10.9387 5.23272 10.8706C5.27035 10.4617 5.25153 10.0188 5.36443 9.60991C5.34562 9.47362 5.34562 9.3714 5.3268 9.23511C5.3268 9.09882 5.28917 8.96253 5.3268 8.86031C5.4397 8.3833 5.45852 7.90628 5.4397 7.42926C5.42088 7.05446 5.45852 6.67966 5.5526 6.37301C5.60905 6.20265 5.62787 6.03228 5.62787 5.86192C5.64668 5.55526 5.64668 5.24861 5.68432 4.94196C5.70313 4.70345 5.79722 4.49901 5.91012 4.36272C6.15473 4.05607 6.38053 3.78349 6.66278 3.78349C6.77568 3.78349 6.85095 3.71534 6.94503 3.61312C7.07675 3.51091 7.20846 3.47683 7.34018 3.44276C7.58479 3.40869 7.81059 3.40869 8.05521 3.37461C8.18693 3.34054 8.33746 3.37461 8.45036 3.2724C8.82669 3.10203 9.18421 3.06796 9.56054 3.06796C10.539 3.06796 11.5175 3.03389 12.5147 3.03389C13.3991 3.03389 14.2835 3.03389 15.1491 3.03389C15.4313 3.03389 15.6948 2.99982 15.9394 2.82945C16.0711 2.76131 16.2216 2.76131 16.3533 2.82945C16.4098 2.86352 16.4851 2.8976 16.5415 2.93167C16.7109 2.99982 16.8802 2.99982 17.0496 2.8976C17.1813 2.82945 17.313 2.76131 17.4447 2.76131C18.2915 2.76131 19.1382 2.65909 19.9849 2.69316C20.5871 2.72723 21.208 2.65909 21.8102 2.65909C22.0171 2.65909 22.2053 2.59094 22.4123 2.48873C22.5064 2.42058 22.6193 2.38651 22.7134 2.38651C23.3531 2.35244 23.9929 2.31836 24.6327 2.28429C24.7644 2.28429 24.8961 2.21614 25.0278 2.148C25.1219 2.07985 25.216 2.07985 25.3289 2.11393C25.4982 2.21614 25.6676 2.25022 25.8181 2.11393C26.0439 1.94356 26.2885 1.94356 26.5143 1.90949C26.7777 1.87542 27.06 1.90949 27.3234 1.90949C27.5869 1.90949 27.8691 1.84135 28.1325 1.70505C28.396 1.56876 28.6782 1.56876 28.9417 1.70505C29.2615 1.87542 29.6002 1.90949 29.9201 2.148C30.0142 2.21614 30.1271 2.18207 30.2212 2.11393C30.3717 1.97764 30.5411 1.90949 30.7104 1.90949C30.955 1.87542 31.1808 1.87542 31.4066 1.70505C31.5007 1.63691 31.5948 1.63691 31.7077 1.60284C31.8582 1.56876 33.8904 1.60284 34.041 1.63691C34.135 1.67098 34.2479 1.70505 34.342 1.7732C34.4173 1.80727 34.4737 1.80727 34.549 1.7732C34.6055 1.73913 34.6807 1.70505 34.7372 1.67098C34.9442 1.60284 35.1323 1.60284 35.3393 1.73913C35.4146 1.7732 35.471 1.7732 35.5275 1.73913C35.885 1.50062 36.2613 1.53469 36.6188 1.80727C36.7129 1.87542 36.807 1.87542 36.9199 1.80727C37.014 1.7732 37.1081 1.73913 37.221 1.80727C37.3903 1.90949 37.5597 1.90949 37.729 1.80727C38.0301 1.63691 38.3311 1.56876 38.6322 1.56876C39.065 1.56876 39.5166 1.53469 39.9494 1.53469C40.1564 1.53469 40.3445 1.43247 40.5515 1.29618C40.6832 1.19396 40.8149 1.19396 40.9467 1.29618C41.0031 1.33026 41.0784 1.36433 41.1348 1.3984C41.2289 1.43247 41.3418 1.46655 41.4359 1.36433C41.6993 1.12582 41.9628 1.12582 42.2262 1.22804C42.4332 1.29618 42.6213 1.43247 42.8283 1.29618C42.8848 1.26211 42.96 1.29618 43.0165 1.33026C43.1858 1.43247 43.3364 1.3984 43.5057 1.36433C43.9009 1.22804 44.296 1.12582 44.71 1.19396C44.8417 1.22804 44.9734 1.26211 45.1239 1.22804C45.7637 1.09175 46.4035 1.19396 47.0432 1.15989C47.476 1.26211 47.9276 1.22804 48.3604 1.19396C48.605 1.15989 48.8308 1.22804 49.0566 1.43247C49.1131 1.46655 49.1883 1.50062 49.2448 1.43247C49.4706 1.26211 49.6964 1.19396 49.941 1.19396C50.3173 1.19396 50.6937 1.15989 51.0512 1.15989C51.484 1.12582 51.9356 1.19396 52.3683 1.29618C52.4624 1.33026 52.5565 1.3984 52.6694 1.43247C52.7635 1.50062 52.8764 1.50062 52.9705 1.43247C53.1586 1.33026 53.3656 1.26211 53.5726 1.22804C54.0807 1.15989 54.5887 1.26211 55.0968 1.26211C55.1908 1.26211 55.3037 1.29618 55.3978 1.36433C55.6613 1.53469 55.9059 1.60284 56.1881 1.36433C56.4139 1.19396 56.6585 1.19396 56.8843 1.33026C56.9408 1.36433 57.0161 1.43247 57.0725 1.46655C57.129 1.50062 57.2042 1.53469 57.2795 1.53469C57.3736 1.53469 57.4865 1.56876 57.5806 1.50062C57.8064 1.33026 58.0321 1.26211 58.2768 1.26211C58.5214 1.29618 58.7472 1.22804 58.9918 1.19396C59.5375 1.15989 60.0832 1.12582 60.61 1.22804C60.7417 1.26211 60.8735 1.29618 61.0052 1.36433C61.0804 1.3984 61.1369 1.3984 61.1933 1.33026C61.4568 1.12582 61.7202 1.19396 61.9836 1.0236C62.0589 0.989529 62.1154 0.989529 62.1906 1.0236C62.6234 1.19396 63.0562 1.22804 63.5078 1.15989C64.1099 1.05767 64.7309 1.15989 65.333 1.15989C65.5023 1.15989 65.6717 1.22804 65.8222 1.33026C65.9163 1.3984 66.0104 1.36433 66.1233 1.33026C66.2174 1.29618 66.3303 1.22804 66.4244 1.22804C66.9324 1.26211 67.4405 1.19396 67.9485 1.19396C68.0802 1.19396 68.2308 1.15989 68.3625 1.19396C68.6259 1.26211 68.9082 1.19396 69.1716 1.22804C69.2469 1.22804 69.3033 1.29618 69.3598 1.33026C69.4162 1.36433 69.4915 1.36433 69.5479 1.29618C69.6985 1.15989 69.8678 1.09175 70.0371 1.12582C71.486 1.19396 72.9537 1.12582 74.4026 1.22804C74.7037 1.26211 75.0047 1.22804 75.3246 1.22804C75.494 1.22804 75.6633 1.26211 75.8327 1.36433C75.9268 1.43247 76.0397 1.36433 76.1337 1.33026C76.209 1.33026 76.2654 1.29618 76.3407 1.33026C76.6041 1.50062 76.8676 1.50062 77.1498 1.50062C77.8272 1.50062 78.5046 1.50062 79.182 1.53469C79.4078 1.53469 79.6524 1.53469 79.8782 1.73913C79.9347 1.80727 80.01 1.84135 80.0664 1.7732C80.2922 1.60284 80.518 1.56876 80.7626 1.60284C81.0072 1.63691 81.233 1.60284 81.4777 1.60284C81.647 1.60284 81.8164 1.63691 81.9669 1.73913C82.0233 1.7732 82.0986 1.80727 82.1551 1.84135C82.362 1.90949 82.569 1.90949 82.7572 1.73913C82.8889 1.63691 83.0206 1.60284 83.1523 1.70505C83.284 1.80727 83.3969 1.87542 83.5475 1.87542C83.9238 1.87542 84.3001 1.87542 84.6577 1.90949C84.9023 1.90949 85.1281 1.90949 85.3539 2.07985C85.4668 2.148 85.542 2.01171 85.5985 1.87542C85.6361 1.7732 85.7114 1.73913 85.7678 1.7732C85.9372 1.87542 86.1065 1.90949 86.2759 1.90949C86.9533 1.90949 87.6307 1.94356 88.3081 1.94356C88.5715 1.94356 88.8538 1.97764 89.1172 2.148C89.343 2.28429 89.5876 2.21614 89.8134 2.28429C89.9828 2.31836 90.1521 2.35244 90.3215 2.38651C90.6037 2.69316 90.9048 2.65909 91.2058 2.65909C91.4881 2.65909 91.7515 2.69316 91.9961 2.93167C92.0526 2.99982 92.1279 2.99982 92.1843 2.99982C92.2596 2.99982 92.316 2.99982 92.3913 2.99982C93.144 2.93167 93.8778 3.03389 94.6305 3.06796C94.8751 3.06796 95.1009 3.20425 95.2891 3.47683C95.402 3.6472 95.5337 3.61312 95.6654 3.51091C95.7971 3.40869 95.9288 3.44276 96.0605 3.54498C96.2487 3.71534 96.4369 3.78349 96.6438 3.78349C96.8132 3.78349 96.9826 3.78349 97.1519 3.78349C97.2836 3.78349 97.4153 3.85163 97.547 3.91978C97.6411 3.98792 97.754 3.91978 97.8481 3.91978C97.9234 3.91978 97.9798 3.8857 98.0551 3.91978C98.3185 4.09014 98.582 4.09014 98.8642 4.09014C99.5416 4.12421 100.219 4.12421 100.896 4.15829C100.953 4.15829 101.028 4.22643 101.085 4.2605C101.16 4.29458 101.197 4.39679 101.179 4.56716C101.16 4.66938 101.122 4.80567 101.047 4.80567C100.784 4.87381 100.52 4.94196 100.257 5.11232C100.2 5.14639 100.125 5.11232 100.05 5.07825C99.8615 4.94196 99.6545 4.87381 99.4475 5.0101C99.2594 5.14639 99.0524 5.21454 98.8454 5.24861C98.7701 5.28268 98.7137 5.31676 98.7137 5.41897C98.7137 5.41897 98.7701 5.48712 98.8078 5.48712C99.3158 5.52119 99.8239 5.55526 100.332 5.55526C100.671 5.55526 101.009 5.58934 101.348 5.58934C101.611 5.58934 101.894 5.62341 102.138 5.82785C102.195 5.86192 102.27 5.86192 102.345 5.82785C102.778 5.52119 103.211 5.62341 103.644 5.69156C103.7 5.69156 103.775 5.7597 103.832 5.79377C103.964 5.89599 104.095 5.93006 104.227 5.93006C104.434 5.96414 104.641 5.96414 104.829 5.99821C104.867 5.99821 104.904 6.03228 104.923 6.06635C104.942 6.16857 104.886 6.23672 104.829 6.30486C104.547 6.61152 104.265 6.67966 103.945 6.54337C103.813 6.47523 103.681 6.47523 103.55 6.54337C103.248 6.71374 102.947 6.67966 102.646 6.5093C102.571 6.47523 102.515 6.44115 102.458 6.47523C102.101 6.71374 101.724 6.57744 101.348 6.57744C101.254 6.57744 101.141 6.54337 101.047 6.47523C100.878 6.37301 100.727 6.40708 100.558 6.47523C100.031 6.74781 99.4852 6.78188 98.9583 6.44115C98.7137 6.27079 98.5067 6.44115 98.3185 6.71374C98.2997 6.74781 98.2997 6.85003 98.3185 6.85003C98.375 6.8841 98.4502 6.91817 98.5067 6.95224C98.7137 6.98632 98.9207 7.02039 99.1088 6.98632C99.6921 6.8841 100.257 6.98632 100.84 7.02039C100.934 7.02039 101.047 7.05446 101.141 7.12261C101.273 7.22482 101.404 7.19075 101.536 7.12261C101.63 7.08853 101.743 7.12261 101.837 7.19075C101.969 7.29297 102.101 7.29297 102.232 7.19075C102.496 7.02039 102.759 7.02039 103.023 7.19075C103.305 7.39519 103.606 7.42926 103.926 7.39519C104.171 7.36112 104.396 7.46333 104.603 7.66777C104.773 7.83813 104.923 7.76999 105.093 7.59962C105.13 7.56555 105.149 7.53148 105.187 7.53148C105.262 7.46333 105.375 7.49741 105.45 7.70184C105.563 7.97442 105.695 8.07664 105.883 8.07664C105.958 8.07664 106.015 8.07664 106.09 8.11071C106.165 8.14479 106.203 8.247 106.203 8.34922C106.203 8.3833 106.165 8.45144 106.127 8.45144C105.92 8.48551 105.732 8.51959 105.525 8.58773C105.45 8.6218 105.412 8.68995 105.375 8.79217C105.318 8.92846 105.412 9.13289 105.525 9.20104C105.563 9.20104 105.601 9.23511 105.619 9.23511C105.713 9.20104 105.808 9.13289 105.902 9.06475C106.033 8.96253 106.165 8.92846 106.297 9.06475C106.353 9.13289 106.41 9.16697 106.485 9.23511C106.541 9.30326 106.598 9.3714 106.598 9.50769C106.598 9.54177 106.541 9.57584 106.504 9.57584C106.41 9.60991 106.297 9.60991 106.203 9.60991C105.45 9.57584 104.716 9.64398 103.964 9.67806C103.813 9.67806 103.7 9.78027 103.606 9.95064C103.399 10.3254 103.136 10.3936 102.853 10.3936C102.176 10.3936 101.499 10.3936 100.821 10.4277C100.727 10.4277 100.633 10.5299 100.558 10.7002C100.539 10.7343 100.52 10.8025 100.539 10.8706C100.539 10.9047 100.577 10.9728 100.595 10.9728C100.652 11.0069 100.727 11.041 100.784 11.075C101.179 11.1773 101.593 11.1432 102.007 11.1432C102.515 11.1432 103.023 11.1432 103.531 11.1432C103.738 11.1432 103.926 11.1773 104.133 11.2795C104.265 11.3476 104.396 11.3476 104.528 11.3817C104.942 11.4158 105.337 11.3817 105.732 11.1773C105.864 11.1091 105.996 11.1432 106.127 11.2113C106.203 11.2454 106.24 11.3476 106.24 11.4839C106.24 11.5521 106.221 11.5861 106.221 11.6543C106.203 11.7224 106.184 11.7565 106.165 11.7906C105.996 11.9609 105.826 12.1654 105.619 12.2335C105.525 12.2676 105.412 12.3357 105.337 12.4039C105.149 12.6083 104.961 12.6424 104.754 12.6424C104.66 12.6424 104.622 12.7105 104.66 12.8127C104.679 12.8468 104.697 12.915 104.735 12.915C104.923 13.0853 105.093 13.2557 105.318 13.2216C105.488 13.2216 105.657 13.2557 105.826 13.2898C105.883 13.2898 105.977 13.3238 106.015 13.392C106.052 13.4601 106.033 13.6305 106.033 13.7327C106.033 13.869 106.071 13.9371 106.146 13.9712C106.24 14.0053 106.353 14.0394 106.447 14.1075C106.504 14.1416 106.56 14.2097 106.617 14.3119C106.711 14.4482 106.748 14.6527 106.711 14.789C106.598 15.2319 106.485 15.6748 106.372 16.1178C106.316 16.3563 106.222 16.4926 106.09 16.6289C105.996 16.697 105.92 16.7992 105.845 16.9355C105.808 17.0037 105.789 17.14 105.77 17.2422C105.751 17.3444 105.883 17.617 105.958 17.617C105.996 17.617 106.033 17.6511 106.052 17.6511C106.222 17.6511 106.391 17.6851 106.56 17.6851C106.73 17.6851 106.899 17.7192 107.068 17.7192C107.162 17.7192 107.2 17.7873 107.181 17.8896C107.181 17.9577 107.144 17.9918 107.125 18.0259C106.918 18.2303 106.692 18.4007 106.447 18.4007C106.372 18.4007 106.316 18.4007 106.24 18.4347C106.033 18.4688 105.958 18.6392 105.939 19.014C105.939 19.1503 106.033 19.3888 106.109 19.3888C106.447 19.4569 106.786 19.491 107.125 19.5591C107.219 19.5932 107.313 19.6954 107.388 19.7976C107.463 19.8999 107.482 20.1724 107.407 20.2747C107.238 20.4791 107.068 20.6835 106.899 20.8539C106.805 20.9561 106.711 21.0243 106.617 21.0243C106.316 21.0583 106.015 21.0583 105.713 21.2287C105.469 21.2628 105.243 21.2628 104.998 21.2968C104.622 21.3309 104.246 21.365 103.888 21.3991C103.851 21.3991 103.832 21.4331 103.794 21.4672C103.813 21.5013 103.813 21.5694 103.832 21.5694C104.02 21.7057 104.208 21.8079 104.34 22.1486C104.453 22.4212 104.641 22.4212 104.81 22.4553C104.886 22.4553 104.942 22.5234 104.98 22.6257C104.98 22.6257 104.942 22.7279 104.904 22.7279C104.735 22.796 104.566 22.8642 104.415 23.0005C104.265 23.1708 104.076 23.1027 103.926 23.1708C103.888 23.1708 103.851 23.2049 103.832 23.239C103.794 23.3071 103.813 23.4093 103.869 23.5116C103.982 23.6478 104.095 23.7841 104.189 23.9545C104.321 24.1589 104.49 24.2612 104.66 24.2612C104.904 24.2612 105.13 24.2952 105.375 24.2952C105.469 24.2952 105.582 24.2952 105.676 24.3634C106.071 24.6019 106.485 24.5678 106.88 24.67C106.955 24.7041 107.012 24.7722 106.993 24.8745C106.993 24.9426 106.974 24.9767 106.955 25.0448C106.899 25.2152 106.805 25.3174 106.711 25.3515C106.541 25.3856 106.372 25.4196 106.203 25.4537C106.071 25.4878 105.92 25.4537 105.808 25.5218C105.506 25.7263 105.205 25.6922 104.904 25.7263C104.641 25.7604 104.359 25.7604 104.095 25.7944C104.058 25.7944 104.039 25.8626 104.02 25.8966C104.039 25.9307 104.039 25.9989 104.076 25.9989C104.133 26.0329 104.208 26.067 104.265 26.1011C104.603 26.1692 104.942 26.1352 105.281 26.1352C105.488 26.1352 105.695 26.1352 105.883 26.1692C105.92 26.1692 105.958 26.2033 105.958 26.2714C105.977 26.3396 105.939 26.4418 105.864 26.4418C105.695 26.4759 105.525 26.4759 105.356 26.4759C105.224 26.4759 105.093 26.51 104.961 26.6122C104.81 26.7485 104.641 26.7825 104.472 26.8166C104.17 26.8507 103.869 26.8507 103.55 26.8848C103.455 26.8848 103.343 26.8848 103.248 26.9188C103.06 26.987 102.872 27.1914 102.665 27.1914C102.458 27.1914 102.251 27.1914 102.063 27.2936C102.025 27.2936 102.007 27.3618 101.988 27.3958C102.007 27.4299 102.044 27.464 102.082 27.4981C102.214 27.5662 102.345 27.5662 102.477 27.5662C102.872 27.5662 103.286 27.5321 103.681 27.6684C103.719 27.6684 103.738 27.7366 103.757 27.7706C103.738 27.8047 103.7 27.8729 103.681 27.8729C103.587 27.9069 103.474 27.941 103.38 27.941C103.004 27.9751 102.646 27.941 102.27 28.0432C102.251 28.0432 102.214 28.1114 102.195 28.1454C102.214 28.1795 102.232 28.2477 102.27 28.2817C102.458 28.3839 102.665 28.3499 102.853 28.5202C102.91 28.5884 102.985 28.5884 103.041 28.5202C103.192 28.418 103.361 28.3499 103.531 28.3499C103.738 28.3499 103.945 28.3158 104.133 28.3158C104.34 28.3158 104.528 28.3839 104.716 28.5884C104.773 28.6565 104.829 28.6906 104.904 28.7247C105.074 28.7928 105.224 28.861 105.375 29.0313C105.713 29.338 106.071 29.5083 106.447 29.5424C106.541 29.5424 106.579 29.6446 106.541 29.7128C106.523 29.7469 106.485 29.7809 106.447 29.7809C105.902 29.815 105.356 29.8831 104.829 29.9172C104.584 29.9172 104.359 29.9513 104.133 30.0876C104.039 30.1557 103.926 30.1557 103.832 30.1217C103.662 30.0535 103.512 30.0535 103.343 30.1217C103.173 30.1898 103.004 30.1898 102.835 30.2239C102.533 30.2579 102.232 30.2579 101.912 30.292C101.781 30.292 101.63 30.292 101.517 30.3942C101.197 30.6327 100.859 30.6327 100.52 30.7009C100.313 30.735 100.125 30.8713 99.9744 31.0757C99.9556 31.1098 99.9556 31.1779 99.9556 31.212C99.9744 31.246 100.012 31.2801 100.05 31.2801C100.558 31.2801 101.066 31.2801 101.574 31.2801C101.706 31.2801 101.856 31.2801 101.969 31.212C102.195 31.0757 102.439 31.0757 102.665 31.0416C103.098 31.0075 103.55 31.0075 103.982 30.9735C104.321 30.9735 104.66 30.9735 104.98 31.1779C105.111 31.2801 105.243 31.246 105.375 31.246C105.619 31.246 105.845 31.246 106.071 31.3823C106.146 31.4164 106.184 31.5186 106.203 31.6549C106.222 31.7912 106.203 31.8934 106.109 31.9275C106.052 31.9616 105.977 31.9956 105.92 32.0297C105.713 32.0638 105.525 32.0979 105.318 32.1319C105.111 32.1319 104.923 32.2682 104.716 32.3364C104.66 32.3704 104.584 32.3364 104.509 32.3364C104.415 32.3023 104.321 32.2682 104.208 32.3364C103.945 32.5067 103.681 32.5067 103.399 32.5067C103.154 32.5067 102.929 32.5067 102.684 32.5067C102.628 32.5067 102.552 32.5749 102.496 32.609C102.439 32.643 102.383 32.7452 102.326 32.8134C102.157 33.0519 101.969 33.1541 101.762 33.1541C101.216 33.1882 100.671 33.2223 100.144 33.2563C100.05 33.2563 99.9368 33.2904 99.8427 33.3586C99.6169 33.5289 99.3911 33.5971 99.1465 33.5971C98.9395 33.5971 98.7325 33.5971 98.5443 33.6311C98.4502 33.6311 98.3373 33.6652 98.2433 33.7334C98.0175 33.8696 97.7917 33.9719 97.5659 34.1082C97.3777 34.2444 97.1707 34.2785 96.9637 34.2785C96.7944 34.2785 96.625 34.3807 96.4745 34.517C96.3804 34.5852 96.2863 34.6533 96.1923 34.6533C95.8159 34.6874 95.4396 34.7215 95.1009 34.96C94.8939 34.994 94.7057 35.0622 94.4988 35.0963C94.4423 35.1303 94.367 35.1644 94.3106 35.2326C94.2541 35.3007 94.1977 35.4029 94.1977 35.5051C94.1977 35.6073 94.2353 35.7096 94.3106 35.7096C94.4047 35.7436 94.5176 35.7436 94.6117 35.7777C94.6869 35.7777 94.7434 35.8459 94.7434 35.9481C94.7434 35.9822 94.6869 36.0162 94.6681 36.0503C94.574 36.0844 94.4611 36.0844 94.367 36.1184C94.2918 36.1184 94.2165 36.1866 94.1977 36.2888C94.1789 36.391 94.2353 36.5273 94.2918 36.5955C94.3482 36.6636 94.4047 36.7318 94.4611 36.7658C94.5552 36.7999 94.6681 36.834 94.7622 36.834C95.1762 36.868 95.5713 36.9021 95.9853 36.9021C96.1923 36.9021 96.3804 36.9703 96.5874 37.0725C96.7191 37.1406 96.8508 37.1406 96.9825 37.1406C97.7352 37.1747 98.4691 37.1747 99.2217 37.1747C99.3911 37.1747 99.5604 37.1747 99.7298 37.2088C99.8239 37.2088 99.9179 37.311 100.012 37.4132C100.068 37.4813 100.125 37.5495 100.181 37.5836L100.163 37.5495C100.125 37.8221 99.9932 37.8902 99.8991 38.0606C99.805 38.1969 99.805 38.4013 99.8803 38.5376C99.9179 38.6057 99.9744 38.708 100.031 38.7761C100.05 38.8102 100.05 38.9124 100.05 38.9124C99.8803 39.1168 99.6733 39.1168 99.4852 39.2531C99.3346 39.3553 99.1465 39.3553 98.9959 39.4235C98.9583 39.4235 98.9395 39.4916 98.9207 39.5257C98.9018 39.5939 98.9395 39.662 99.0336 39.6961C99.1088 39.7301 99.1653 39.7301 99.2405 39.7301C99.2782 39.7301 99.3158 39.7301 99.3346 39.7301C99.711 39.7301 100.068 39.9687 100.426 40.139C100.464 40.139 100.482 40.2072 100.501 40.2753C100.501 40.3094 100.482 40.3775 100.445 40.4116C100.257 40.582 100.068 40.6501 99.8615 40.7523C99.7298 40.8205 99.5981 40.8205 99.4663 40.8205C98.5255 40.8545 97.5659 40.8886 96.625 40.9568C96.5498 40.9568 96.4933 41.0249 96.4933 41.093C96.4933 41.1271 96.5498 41.1953 96.5686 41.1953C96.6627 41.2293 96.7756 41.2293 96.8697 41.2293C97.1707 41.2293 97.4718 41.2634 97.7917 41.2634C98.0175 41.2634 98.1868 41.4338 98.3373 41.7064C98.3562 41.7404 98.3938 41.7745 98.4126 41.8426C98.4502 41.9449 98.4879 42.0471 98.5067 42.1493C98.5255 42.2174 98.375 42.5241 98.3185 42.5241C98.2244 42.5582 98.1304 42.6263 98.0175 42.6263C97.2648 42.6604 96.531 42.6945 95.7783 42.6945C94.6305 42.6945 93.4827 42.6945 92.316 42.6945C91.9773 42.6945 91.6386 42.7285 91.2999 42.7626C91.2623 42.7626 91.2247 42.7967 91.2058 42.8648C91.187 42.933 91.2247 43.0011 91.3187 43.0011C91.6198 43.0352 91.9209 43.1374 92.2219 43.1033C92.3537 43.1033 92.4854 43.1374 92.6171 43.2396C92.7676 43.3759 92.937 43.41 93.1063 43.41C93.5767 43.41 94.0472 43.4441 94.5364 43.4441C94.8375 43.4781 95.1385 43.4441 95.4396 43.6826C95.5337 43.7507 95.6466 43.6826 95.7407 43.6144C95.8724 43.5122 96.0041 43.5122 96.1358 43.6144C96.2675 43.7166 96.3992 43.7507 96.5309 43.7507C96.9449 43.7848 97.3401 43.8189 97.754 43.8529C97.7917 43.8529 97.8293 43.9211 97.8293 43.9552C97.8293 44.0233 97.7917 44.1255 97.7164 44.1255C97.246 44.1596 96.7756 44.1596 96.2863 44.1596C95.2326 44.1596 94.1789 44.1255 93.144 44.1255C92.8053 44.1255 92.4666 44.1596 92.1279 44.1937C92.0526 44.1937 91.9961 44.2959 92.015 44.3981C92.015 44.4662 92.0338 44.5003 92.0526 44.5685C92.1467 44.7729 92.2596 44.8751 92.4101 44.841C92.5042 44.807 92.6171 44.7729 92.7112 44.7048C92.8429 44.6025 92.9746 44.6025 93.1063 44.7048C93.2757 44.841 93.4262 44.807 93.5956 44.6707C93.7273 44.5685 93.8778 44.5344 93.9907 44.6366C94.3106 44.9092 94.6493 44.9092 94.988 45.0114C95.0821 45.0455 95.1762 45.1477 95.2326 45.3181C95.2891 45.4543 95.2702 45.5566 95.1762 45.5906C95.0821 45.6588 94.988 45.6588 94.8751 45.6588C94.4611 45.6588 94.066 45.6588 93.652 45.6588C93.5579 45.6588 93.445 45.6929 93.3509 45.6929C93.3133 45.6929 93.2945 45.761 93.2569 45.7951C93.2757 45.8292 93.2945 45.8632 93.3133 45.8973C93.445 45.9995 93.5767 45.9995 93.7085 45.9995C94.1789 45.9995 94.6493 45.9314 95.1385 46.0336C95.2138 46.0336 95.2514 46.1358 95.2702 46.2721C95.2702 46.3743 95.2702 46.5447 95.3079 46.6128C95.3455 46.681 95.4396 46.715 95.496 46.715C95.8347 46.7491 96.1734 46.7491 96.5121 46.7832C96.6438 46.7832 96.7756 46.8173 96.9073 46.9195C97.0578 47.0558 97.2272 47.0898 97.3965 47.0898C97.7728 47.0898 98.1492 47.1239 98.5067 47.1239C98.6008 47.1239 98.7137 47.1239 98.8078 47.1921C99.2594 47.5669 99.7486 47.3965 100.2 47.5328C100.294 47.5669 100.332 47.635 100.294 47.7713C100.275 47.8394 100.275 47.8735 100.238 47.9417C100.125 48.1802 99.9368 48.2142 99.7862 48.3165C99.6921 48.3505 99.6733 48.4527 99.711 48.589C99.7674 48.7935 99.6921 48.9298 99.6169 49.032C99.5981 49.0661 99.5604 49.1001 99.5604 49.1683C99.5416 49.2705 99.5981 49.3386 99.6733 49.3386C99.7674 49.3727 99.8803 49.3727 99.9744 49.4068C100.012 49.4068 100.031 49.4408 100.05 49.509C100.087 49.5771 100.05 49.6794 99.9556 49.6794C99.5228 49.7816 99.0712 49.7134 98.6384 49.7475C98.4691 49.7475 98.2997 49.7816 98.1492 49.9519C98.0551 50.0542 97.9422 50.0542 97.8481 49.986C97.6788 49.8838 97.5282 49.8157 97.3589 49.8157C97.2648 49.8157 97.1519 49.8157 97.0578 49.8157C95.5337 49.8497 94.0095 49.8497 92.4854 49.7816C92.316 49.7816 92.1467 49.8157 91.9773 49.8157C91.9021 49.8157 91.8456 49.8838 91.8268 49.9519C91.8644 49.986 91.8832 50.0201 91.9209 50.0201C92.015 50.0542 92.1279 50.0542 92.2219 50.0542C93.1628 50.0542 94.1224 50.0542 95.0633 50.0882C95.2326 50.0882 95.402 50.0882 95.5713 50.0882C95.6654 50.0882 95.7783 50.1223 95.8724 50.1904C96.0229 50.3267 96.1923 50.3608 96.3616 50.3949C96.7756 50.3949 97.1707 50.429 97.5847 50.429C97.8481 50.429 98.1304 50.463 98.3938 50.463C98.4879 50.463 98.6008 50.4971 98.6949 50.5653C98.883 50.7015 99.0712 50.8038 99.2782 50.8038C99.5416 50.8378 99.8239 50.8378 100.087 51.0082C100.219 51.0763 100.351 51.0763 100.482 51.1104C101.028 51.1445 101.574 51.1445 102.101 51.1786C102.195 51.1786 102.308 51.2126 102.402 51.2467C102.439 51.2467 102.477 51.2808 102.496 51.3148C102.515 51.4171 102.477 51.4852 102.402 51.5193C102.308 51.5534 102.195 51.5874 102.138 51.7578C102.119 51.86 102.176 51.9963 102.232 52.0644C102.251 52.0985 102.289 52.1326 102.308 52.1667C102.402 52.2689 102.496 52.2689 102.609 52.2689C102.947 52.2689 103.267 52.4392 103.606 52.6437C103.794 52.7459 103.794 52.814 103.681 53.1548C103.568 53.4955 103.568 53.4955 103.7 53.7681C103.794 53.9725 103.794 54.0407 103.644 54.1088C103.474 54.1769 103.324 54.3132 103.173 54.4155C103.042 54.4836 102.91 54.5177 102.778 54.5858C102.59 54.688 102.515 55.0628 102.628 55.3013C102.684 55.4376 102.759 55.5739 102.835 55.7102C102.91 55.8465 103.004 55.9147 103.098 55.9487C103.267 55.9828 103.437 55.9828 103.606 56.0169C103.681 56.0169 103.738 56.085 103.738 56.1532C103.738 56.1872 103.7 56.2554 103.662 56.2554C103.606 56.2895 103.531 56.3235 103.474 56.3576C103.343 56.4598 103.286 56.6643 103.361 56.9368C103.418 57.2094 103.399 57.4139 103.305 57.6183C103.286 57.6524 103.267 57.7205 103.23 57.7546C102.947 58.1975 102.609 58.5042 102.251 58.7086C102.214 58.7086 102.176 58.7427 102.157 58.7427C101.912 58.6405 101.687 58.879 101.461 58.9471C101.442 58.9471 101.404 59.0153 101.404 59.0834C101.404 59.1175 101.423 59.1856 101.461 59.1856C101.555 59.2878 101.649 59.2878 101.762 59.2878C101.95 59.3219 102.063 59.5264 102.101 59.833C102.157 60.1397 102.232 60.2419 102.383 60.276C102.816 60.31 103.267 60.3782 103.7 60.4122C103.719 60.4122 103.775 60.4463 103.775 60.4804C103.775 60.5485 103.775 60.6167 103.738 60.6508C103.681 60.7189 103.625 60.787 103.625 60.9233C103.625 60.9574 103.681 60.9915 103.7 60.9915C103.757 61.0256 103.832 61.0596 103.888 61.0937C103.982 61.1618 104.058 61.2641 104.095 61.4344C104.133 61.6048 104.17 61.7752 104.246 61.9114C104.321 62.0137 104.415 62.1159 104.528 62.0818C104.622 62.0477 104.716 61.9796 104.829 61.9796C104.904 61.9796 104.961 62.0477 104.998 62.15C105.036 62.2522 105.036 62.3885 104.998 62.4907C104.886 62.7292 104.735 62.8996 104.566 62.9336C104.396 62.9677 104.227 62.9677 104.058 62.9677C103.982 62.9677 103.926 63.0018 103.851 63.0358C103.681 63.0699 103.568 63.4106 103.625 63.7173C103.662 63.8877 103.7 64.058 103.662 64.2284C103.606 64.4669 103.493 64.6032 103.361 64.7054C103.079 64.9439 102.797 65.1483 102.496 65.1824C102.421 65.1824 102.383 65.2846 102.383 65.4209C102.402 65.5572 102.439 65.6254 102.496 65.6935C102.533 65.7276 102.552 65.7617 102.59 65.7617C102.684 65.7957 102.797 65.8298 102.891 65.8298C103.474 65.8298 104.039 65.8639 104.622 65.8639C104.697 65.8639 104.754 65.8639 104.829 65.8979C105.036 65.8979 105.187 66.1705 105.243 66.5794C105.262 66.7157 105.224 66.8179 105.149 66.852C105.093 66.8861 105.017 66.9201 104.961 66.9201C104.283 66.9883 103.606 67.0223 102.929 66.9883C102.684 66.9883 102.458 67.1246 102.27 67.3631C102.251 67.3971 102.232 67.4653 102.214 67.4994C102.214 67.5334 102.232 67.5675 102.27 67.6016C102.289 67.6357 102.326 67.6697 102.364 67.6697C102.533 67.7038 102.703 67.7038 102.872 67.7379C103.117 67.7379 103.343 67.7719 103.568 67.9082C103.738 67.9764 103.907 68.0105 104.076 68.0445C104.152 68.0786 104.189 68.1808 104.189 68.283C104.189 68.3512 104.17 68.4193 104.152 68.4534C104.095 68.5897 104.02 68.726 103.945 68.8623C103.851 69.0326 103.719 69.1348 103.587 69.1348C103.55 69.1348 103.512 69.1348 103.493 69.1348C103.192 69.1008 102.891 69.1689 102.609 69.4074C102.515 69.4756 102.421 69.5096 102.308 69.5096C102.044 69.5437 101.762 69.5437 101.499 69.6119C101.329 69.6459 101.179 69.7482 101.028 69.9526C101.009 69.9867 100.972 70.0548 100.972 70.0889C100.972 70.123 101.009 70.1911 101.047 70.1911C101.517 70.2933 101.969 70.6 102.439 70.634C102.496 70.634 102.59 70.7022 102.609 70.8044C102.722 71.1111 102.91 71.2814 103.098 71.4177C103.192 71.4859 103.267 71.6221 103.267 71.8266C103.286 71.9969 103.286 72.2014 103.305 72.3717C103.324 72.508 103.437 72.7125 103.512 72.7125C103.813 72.7466 104.114 72.7806 104.415 72.8488C104.49 72.8488 104.566 72.951 104.547 73.0191C104.509 73.1213 104.453 73.1554 104.377 73.1554C104.246 73.1554 104.114 73.1895 103.982 73.2236C103.926 73.2576 103.851 73.2917 103.794 73.3258C103.7 73.3939 103.625 73.5302 103.568 73.7006C103.625 73.8709 103.719 73.9391 103.775 74.0754C103.832 74.1776 103.832 74.2798 103.813 74.382C103.775 74.5183 103.719 74.5865 103.644 74.5524C103.512 74.4843 103.399 74.4161 103.248 74.4843C103.154 74.5183 103.041 74.4502 102.947 74.4843C102.853 74.5183 102.759 74.6205 102.665 74.6887C102.609 74.7228 102.533 74.7228 102.477 74.7568C102.458 74.7909 102.439 74.825 102.402 74.8931C102.439 74.9272 102.458 74.9613 102.496 74.9613C102.703 74.9953 102.91 74.9953 103.098 74.9953C103.644 74.9613 104.189 75.0294 104.716 75.1316C104.81 75.1657 104.904 75.2679 104.98 75.4042C105.036 75.5405 105.017 75.6427 104.942 75.7109C104.886 75.7449 104.81 75.8131 104.754 75.8131C104.547 75.8472 104.34 75.8472 104.152 75.8812C104.076 75.8812 104.02 75.9835 104.02 76.0857C104.02 76.222 104.058 76.3242 104.114 76.3923C104.265 76.5627 104.434 76.5627 104.603 76.5968C104.735 76.6308 104.867 76.7331 104.961 76.9034C104.98 76.9375 105.017 77.0056 105.017 77.0738C105.017 77.1078 104.998 77.176 104.98 77.2101C104.923 77.3123 104.791 77.3804 104.81 77.5849C104.829 77.7552 104.923 77.8915 104.98 78.0278C105.017 78.1641 104.998 78.2663 104.923 78.3004C104.867 78.3345 104.791 78.3685 104.735 78.3685C104.396 78.3685 104.058 78.3685 103.719 78.4026C103.644 78.4026 103.587 78.4367 103.512 78.4367C103.418 78.4367 103.305 78.7093 103.343 78.8115C103.38 78.9137 103.437 79.0159 103.493 79.05C103.662 79.1181 103.832 79.1181 104.001 79.1522C104.076 79.1522 104.133 79.2204 104.189 79.2885C104.227 79.3566 104.114 79.6974 104.058 79.7314C104.001 79.7655 103.945 79.8337 103.869 79.8677C103.7 79.9359 103.531 80.004 103.38 80.1062C103.211 80.2425 103.042 80.1744 102.891 80.0722C102.816 80.0381 102.759 80.004 102.703 80.0722C102.515 80.2085 102.308 80.2766 102.101 80.2766C101.969 80.2766 101.837 80.2425 101.687 80.2766C101.593 80.2766 101.48 80.2766 101.386 80.3447C101.103 80.5833 100.802 80.5833 100.501 80.6173C99.8991 80.6514 99.2782 80.6855 98.676 80.6855C98.5443 80.6855 98.3938 80.6855 98.2809 80.7877C98.0551 80.9581 97.8293 80.9921 97.5847 80.9921C97.1707 80.9921 96.7756 81.0262 96.3616 81.0603C96.2675 81.0603 96.1546 81.0603 96.0605 81.1284C95.8347 81.2647 95.6089 81.3329 95.3643 81.3329C94.7246 81.3669 94.0848 81.3669 93.4262 81.401C93.2569 81.401 93.0875 81.4351 92.9182 81.5373C92.7488 81.6395 92.5983 81.7077 92.4289 81.7077C92.2972 81.7077 92.1655 81.7077 92.015 81.7077C91.808 81.7417 91.6198 81.8099 91.4505 82.0484C91.2999 82.2869 91.1118 82.4232 90.886 82.4232C90.1333 82.4232 89.3995 82.4573 88.6468 82.4573C88.2328 82.4573 87.8377 82.4573 87.4237 82.4573C87.1791 82.4573 86.9533 82.5254 86.7275 82.6276C86.6334 82.6958 86.5205 82.6958 86.4264 82.7298C85.9184 82.8321 85.4103 82.798 84.9023 82.7639C84.7706 82.7639 84.6389 82.6617 84.5071 82.5935C84.2813 82.4232 84.0555 82.3891 83.8109 82.5595C83.6792 82.6617 83.5475 82.7298 83.4158 82.7298C83.1147 82.7298 82.8136 82.8321 82.5126 82.798C82.1362 82.7639 81.7599 82.8321 81.4024 82.8321C81.233 82.8321 81.0637 82.8661 80.8943 82.8321C80.4616 82.7639 80.01 82.8661 79.5772 82.8321C79.1632 82.798 78.7681 82.798 78.3541 82.798C78.053 82.798 77.752 82.798 77.4321 82.798C77.2627 82.798 77.0934 82.6958 76.9805 82.4573C76.9429 82.355 76.8864 82.2869 76.8299 82.2188C76.7735 82.1506 76.6982 82.1165 76.6418 82.1506C76.6041 82.1506 76.5665 82.1506 76.5477 82.1847C76.2278 82.5254 75.9079 82.4913 75.5881 82.1847C75.494 82.0825 75.3999 82.1165 75.3058 82.1847C75.2494 82.2188 75.1929 82.2869 75.1176 82.355C74.9295 82.4913 74.7225 82.4913 74.5343 82.355C74.3462 82.1847 74.158 82.0484 73.951 82.0825C73.8193 82.0825 73.6876 81.9802 73.5559 81.9121C73.4618 81.8439 73.3489 81.8439 73.2548 81.9121C73.0666 82.0825 72.8596 82.1165 72.6527 82.1165C72.314 82.1506 71.9753 82.0825 71.6366 82.1506C71.5237 82.1847 71.4484 82.2528 71.4672 82.4913C71.4672 82.6276 71.4484 82.7298 71.3731 82.7639C71.3355 82.7639 71.3167 82.798 71.279 82.798C71.2038 82.798 71.1285 82.798 71.0909 82.7298C70.9027 82.5254 70.7145 82.4913 70.5076 82.4573C70.4135 82.4573 70.3006 82.4913 70.2065 82.5595C70.056 82.7298 69.9054 82.8321 69.7361 82.8321C69.4915 82.8321 69.2657 82.9002 69.0399 83.0365C68.9458 83.1046 68.8329 83.1046 68.7388 83.1046C68.4754 83.1387 68.1931 83.1046 67.9297 83.1387C67.7039 83.1728 67.5345 83.0024 67.384 82.7298C67.3087 82.5935 67.2147 82.5254 67.1018 82.5935C67.0453 82.6276 66.97 82.6958 66.9136 82.7298C66.7254 82.8321 66.5184 82.9002 66.3303 83.0706C66.1986 83.1728 66.0668 83.1728 65.9351 83.1728C65.7281 83.1387 65.5212 83.1387 65.333 83.0024C64.9755 82.7298 64.5992 82.798 64.2228 82.8321C64.0347 83.0365 63.8277 82.9683 63.6395 82.8661C63.0938 82.8321 62.5481 82.7639 62.0213 82.8321C61.8896 82.8661 61.7578 82.8661 61.6261 82.9683C61.2874 83.2069 60.9675 83.1728 60.6288 82.9683C60.4595 82.8661 60.309 82.9002 60.1396 83.0365C59.9326 83.2069 59.7445 83.1728 59.5939 82.8321C59.5563 82.7298 59.4998 82.6617 59.4434 82.5935C59.1611 82.798 58.8413 82.6958 58.559 82.9683C58.4085 83.1046 58.2391 83.1728 58.0698 83.1728C57.9381 83.1728 57.8064 83.1728 57.6558 83.2069C57.5241 83.2069 57.3924 83.275 57.2607 83.3772C57.129 83.4794 56.9972 83.5135 56.8655 83.5135C56.6021 83.5135 56.3198 83.5135 56.0564 83.5135C55.5484 83.5135 55.0403 83.5135 54.5323 83.5476C54.2688 83.5476 53.9866 83.5817 53.7231 83.5135C53.5538 83.4794 53.3844 83.5476 53.2339 83.7179C52.9705 83.9905 52.6882 84.229 52.4248 84.4675C52.3307 84.5357 52.2366 84.6038 52.1426 84.6379C51.5969 84.672 51.0512 84.7401 50.5243 84.7061C50.355 84.7061 50.1856 84.6379 50.0351 84.5016C49.9034 84.3994 49.7717 84.3313 49.6399 84.3313C49.226 84.3313 48.8308 84.3313 48.4169 84.2972C48.1722 84.2972 47.9464 84.3313 47.7206 84.4675C47.6266 84.5357 47.5325 84.5698 47.4196 84.5698C47.175 84.6038 46.9492 84.6379 46.7045 84.6038C45.9519 84.5698 45.218 84.6038 44.4654 84.6379C43.9949 84.6379 43.5245 84.6038 43.0353 84.5698C42.9412 84.5698 42.8283 84.6379 42.7719 84.7742C42.6966 84.9105 42.6402 85.0468 42.5649 85.1831C42.4896 85.3194 42.3767 85.3534 42.2826 85.3194C42.2262 85.2853 42.1509 85.2853 42.0945 85.2171C42.0192 85.149 41.9628 85.1149 41.9063 85.1831C41.5864 85.4216 41.2477 85.3534 40.909 85.3534C40.7397 85.3534 40.5703 85.4216 40.4198 85.5579C40.3257 85.6601 40.2316 85.6601 40.1375 85.5579C40.0811 85.5238 40.0246 85.4557 39.9494 85.3875C39.8177 85.2853 39.6859 85.2853 39.5542 85.3194C39.2908 85.3875 39.0462 85.626 38.7827 85.7623C38.5193 85.9327 38.2559 86.0008 37.9924 86.0008C37.4091 86.0008 36.8446 86.0008 36.2613 86.0008C35.8474 86.0008 35.4522 86.0349 35.0382 86.103C34.9442 86.103 34.8313 86.1712 34.7372 86.2393C34.6055 86.3075 34.4737 86.2734 34.342 86.2393C34.2668 86.2052 34.2103 86.2052 34.135 86.2393C33.9657 86.3415 33.8152 86.3756 33.627 86.3756C32.4415 86.4097 31.2561 86.4097 30.0707 86.4438C29.4309 86.4438 28.7911 86.4438 28.1325 86.4438C27.9256 86.4438 27.7374 86.5119 27.5304 86.6141C27.3422 86.7504 27.1353 86.7163 26.9283 86.6141C26.8718 86.58 26.7966 86.546 26.7401 86.546C26.6084 86.546 26.4767 86.6823 26.345 86.6141C26.2132 86.58 26.0815 86.4438 25.9498 86.4438C25.8557 86.4438 25.7428 86.4438 25.6487 86.5119C25.4794 86.6482 25.3289 86.6482 25.1595 86.5119C25.0654 86.4438 24.9713 86.4097 24.8584 86.4097C24.4821 86.4097 24.1058 86.4097 23.7483 86.4097C23.6166 86.4097 23.4848 86.4438 23.3531 86.546C23.0897 86.7163 22.8263 86.7163 22.5628 86.5119C22.4687 86.4438 22.3747 86.4097 22.2618 86.4097C21.5467 86.4438 20.8317 86.3415 20.1355 86.3415C19.8344 86.3415 19.5333 86.3415 19.2135 86.3415C19.0441 86.3415 18.8748 86.3075 18.7242 86.2052C18.5549 86.103 18.4044 86.069 18.235 86.0349C18.028 86.0008 17.821 86.0008 17.6329 85.9667C17.5012 85.9667 17.3694 85.8986 17.2377 85.7964C17.0119 85.626 16.7673 85.5919 16.5415 85.7623C16.3157 85.8986 16.0899 85.9667 15.8453 85.8305C15.77 85.7964 15.7136 85.7964 15.6383 85.8305C15.5442 85.8645 15.4313 85.9327 15.3372 85.9327C15.0362 85.9327 14.7351 85.9327 14.4152 85.9667C14.2835 85.9667 14.1518 85.9327 14.0201 85.8305C13.8507 85.7282 13.6814 85.7623 13.5308 85.8645C13.3991 85.9667 13.2674 85.9667 13.1357 85.8986C12.9099 85.7623 12.6841 85.6942 12.4395 85.6942C11.5175 85.6601 10.6143 85.626 9.69226 85.626C9.48527 85.626 9.29711 85.5919 9.09012 85.4557C8.99604 85.3875 8.90196 85.3875 8.78906 85.4216C8.73261 85.4557 8.65734 85.4897 8.60089 85.4897C7.99876 85.2512 7.39663 85.3194 6.77568 85.2853C6.51225 85.2512 6.24881 85.1831 5.98538 85.0809C5.72195 84.9786 5.45852 84.9786 5.17627 84.9105C5.06337 84.8764 4.9881 84.7742 4.91283 84.672C4.89402 84.6379 4.8752 84.5698 4.83757 84.5357C4.78112 84.4335 4.72467 84.3994 4.66822 84.4335C4.48005 84.5698 4.27307 84.6379 4.06609 84.5016C4.00964 84.4675 3.95319 84.3653 3.91555 84.2631C3.8591 84.1268 3.93437 83.9224 4.06609 83.8542C4.10372 83.8202 4.12254 83.8202 4.16017 83.8202C4.1978 83.8202 4.23544 83.7861 4.25425 83.7861C4.25425 83.8202 4.27307 83.8883 4.27307 83.9224C4.29189 83.9565 4.3107 83.9565 4.32952 83.9565C4.32952 83.8883 4.29189 83.8202 4.23544 83.7861C4.16017 83.3772 4.02845 83.0365 4.00964 82.5935C3.972 82.1165 3.95319 82.1165 4.17899 81.9462C4.34834 81.8099 4.46124 81.6054 4.46124 81.2647C4.46124 81.1966 4.46124 81.1284 4.46124 81.0943C4.46124 80.9581 4.46124 80.8558 4.49887 80.7196C4.57414 80.4129 4.57414 80.1403 4.44242 79.9018C4.38597 79.7996 4.34834 79.6974 4.36715 79.5611C4.38597 79.4589 4.46124 79.3907 4.49887 79.2885C4.51769 79.2544 4.5365 79.1863 4.57413 79.1522C4.6494 78.9818 4.63059 78.7774 4.51769 78.7093C4.4236 78.6411 4.32952 78.607 4.23544 78.5048C4.16017 78.4367 4.14135 78.3345 4.14135 78.2322C4.14135 78.096 4.17899 77.9937 4.23544 77.9597C4.29189 77.8915 4.36715 77.8915 4.4236 77.8574C4.55532 77.7893 4.59295 77.6189 4.51769 77.4827C4.46124 77.3464 4.38597 77.2101 4.32952 77.0738C4.23544 76.8693 4.29189 76.6308 4.44242 76.4945C4.49887 76.4605 4.57414 76.4264 4.63059 76.4264C4.70585 76.3923 4.7623 76.3242 4.7623 76.222C4.7623 76.0857 4.72467 75.9835 4.66822 75.9153C4.61177 75.8472 4.55532 75.8131 4.49887 75.7449C4.36715 75.6087 4.36715 75.5746 4.46124 75.3701C4.57413 75.1657 4.57414 75.1657 4.44242 74.9953C4.29189 74.7568 4.25425 74.6205 4.32952 74.382C4.40479 74.1095 4.48005 73.8369 4.55532 73.5643C4.61177 73.3599 4.61177 73.3258 4.51769 73.0873C4.48005 72.9851 4.4236 72.9169 4.38597 72.8147C4.32952 72.6443 4.29189 72.474 4.32952 72.3036C4.38597 71.9629 4.46124 71.6222 4.48005 71.2474C4.49887 70.9407 4.55532 70.6681 4.61177 70.3615C4.6494 70.157 4.61177 69.9867 4.5365 69.8504C4.38597 69.5096 4.27307 69.1348 4.17899 68.76C4.16017 68.6578 4.16017 68.5215 4.23544 68.4534C4.34834 68.3171 4.48005 68.2149 4.55532 68.0105C4.59295 67.9082 4.61177 67.7719 4.61177 67.6697C4.61177 67.5675 4.59295 67.4312 4.55532 67.329C4.46124 66.9883 4.5365 66.7498 4.68703 66.5453C4.78112 66.409 4.78112 66.2387 4.68703 66.0683C4.59295 65.8979 4.49887 65.7276 4.40479 65.5572C4.34834 65.4209 4.27307 65.2506 4.3107 65.0461C4.44242 64.3306 4.48005 63.6151 4.44242 62.8655C4.48005 62.8655 4.49887 62.8655 4.51769 62.8314C4.5365 62.8314 4.5365 62.7633 4.5365 62.7292C4.49887 62.8996 4.46124 62.9336 4.46124 63.104ZM98.582 49.4408C98.676 49.4749 98.7701 49.4749 98.883 49.4749C98.9207 49.4749 98.9395 49.4408 98.9771 49.4068C98.9959 49.3727 99.0147 49.3386 99.0336 49.3046C99.0147 49.2705 98.9771 49.2023 98.9583 49.2023C98.6949 49.1001 98.4314 49.2023 98.1868 49.2023C98.1492 49.2023 98.1115 49.2364 98.1115 49.2705C98.0927 49.3386 98.1304 49.4408 98.2056 49.4408C98.3185 49.4408 98.4502 49.4408 98.582 49.4408ZM103.531 9.30326C103.512 9.30326 103.55 9.30326 103.568 9.30326C103.644 9.26919 103.681 9.20104 103.662 9.13289C103.644 9.09882 103.606 9.06475 103.587 9.03068C103.455 8.9966 103.343 8.9966 103.211 9.06475C103.173 9.06475 103.154 9.13289 103.136 9.16697C103.173 9.26918 103.23 9.33733 103.286 9.33733C103.361 9.30326 103.437 9.30326 103.531 9.30326ZM50.6749 82.7298C50.5996 82.5935 50.5055 82.5935 50.4114 82.6276C50.3738 82.6276 50.3362 82.6617 50.3362 82.6958C50.3173 82.7639 50.355 82.8321 50.4302 82.8661C50.562 82.9002 50.6749 82.8321 50.6749 82.7298Z" fill="#00659E"/>
<path d="M101.064 35.8757C100.757 35.8757 100.518 35.7734 100.586 35.7052C100.723 35.5687 100.928 35.5687 101.098 35.5687C101.235 35.5687 101.338 35.5687 101.44 35.6028C101.474 35.6028 101.543 35.6711 101.577 35.7052C101.543 35.7393 101.474 35.8075 101.44 35.8075C101.303 35.8757 101.167 35.8757 101.064 35.8757Z" fill="#FFB820"/>
<path d="M77.8151 42.5959C78.839 41.3989 80 40.0409 80 38.3C80 36.5591 78.839 35.2018 77.8158 34.0048C77.201 33.2866 76.5662 32.5439 76.4111 31.9566C76.2428 31.3189 76.4291 30.3221 76.6091 29.3575C76.8943 27.8308 77.2183 26.1011 76.3855 24.6458C75.5415 23.1716 73.8835 22.5885 72.4199 22.0733C71.5151 21.7555 70.5798 21.4258 70.1339 20.9764C69.6888 20.5256 69.3634 19.5799 69.0491 18.665C68.5402 17.1852 67.9635 15.5087 66.5042 14.6547C65.0648 13.8126 63.3528 14.1402 61.8442 14.4286C60.8902 14.6106 59.9037 14.7982 59.2737 14.6281C58.6928 14.4713 57.959 13.8294 57.2487 13.2092C56.0648 12.1739 54.7218 11 53 11C51.2782 11 49.9358 12.1739 48.752 13.2085C48.0417 13.8301 47.3072 14.472 46.7263 14.6288C46.0949 14.7961 45.1098 14.6113 44.1558 14.4286C42.6465 14.1388 40.9352 13.8126 39.4958 14.6547C38.0378 15.508 37.4612 17.1845 36.9516 18.6643C36.6373 19.5792 36.3112 20.5249 35.8668 20.9757C35.4209 21.4258 34.4856 21.7548 33.5808 22.0726C32.1172 22.5871 30.4592 23.1702 29.6145 24.6458C28.7824 26.1004 29.1057 27.8315 29.3909 29.3575C29.5716 30.3221 29.7572 31.3189 29.5882 31.9566C29.4332 32.5439 28.7983 33.2859 28.1849 34.0041C27.161 35.2011 26 36.5591 26 38.3C26 40.0409 27.161 41.3982 28.1842 42.5952C28.799 43.3134 29.4338 44.0561 29.5889 44.6434C29.7572 45.2811 29.5709 46.2779 29.3909 47.2425C29.1057 48.7692 28.7817 50.4989 29.6145 51.9542C30.4585 53.4284 32.1165 54.0115 33.5801 54.5267C34.4849 54.8445 35.4202 55.1742 35.8661 55.6236C35.9201 55.6782 35.972 55.7405 36.0225 55.8091L30.9105 72.1786C30.7783 72.6042 30.8531 73.0683 31.1141 73.4281C31.3751 73.7872 31.7891 74 32.2308 74H44.6923C45.296 74 45.8312 73.6045 46.0125 73.0221L48.9632 63.5749C50.0958 64.5605 51.3793 65.6 53 65.6C54.6214 65.6 55.9042 64.5598 57.0368 63.5742L59.9875 73.0214C60.1688 73.6045 60.7033 74 61.3077 74H73.7692C74.2109 74 74.6249 73.7872 74.8859 73.4281C75.1469 73.0676 75.2217 72.6042 75.0895 72.1786L69.9775 55.8091C70.028 55.7412 70.0799 55.6789 70.1332 55.6243C70.5791 55.1742 71.5144 54.8452 72.4192 54.5274C73.8828 54.0129 75.5408 53.4298 76.3855 51.9542C77.2176 50.4996 76.8943 48.7685 76.6091 47.2425C76.4284 46.2779 76.2428 45.2811 76.4118 44.6434C76.5662 44.0561 77.201 43.3134 77.8151 42.5959ZM43.6774 71.2H34.1201L37.6806 59.7998C38.0932 60.6601 38.6415 61.4448 39.4958 61.9453C40.9352 62.7874 42.6472 62.4591 44.1558 62.1714C45.0378 62.0027 45.9343 61.8417 46.5657 61.9516L43.6774 71.2ZM62.3226 71.2L59.4343 61.9509C60.065 61.8424 60.9615 62.002 61.8442 62.1707C63.3535 62.4598 65.0648 62.7867 66.5042 61.9446C67.3592 61.4448 67.9068 60.6594 68.3194 59.7984L71.8799 71.2H62.3226ZM75.7202 40.7647C74.9012 41.7216 74.0552 42.7114 73.736 43.9203C73.4044 45.174 73.6502 46.49 73.8876 47.7619C74.0932 48.8609 74.3058 49.9977 73.988 50.5521C73.6592 51.1261 72.5667 51.5111 71.5102 51.8821C70.3105 52.3042 69.0698 52.7403 68.1761 53.6447C67.2816 54.5484 66.8503 55.8028 66.4328 57.0159C66.0652 58.0841 65.6852 59.1887 65.1175 59.5212C64.5692 59.8418 63.4448 59.6276 62.3593 59.4197C61.0993 59.1782 59.7985 58.9304 58.5592 59.265C57.3629 59.5884 56.384 60.4445 55.4376 61.2726C54.5778 62.0244 53.6909 62.8 53 62.8C52.3091 62.8 51.4215 62.0237 50.5624 61.2726C49.616 60.4445 48.6371 59.5891 47.4415 59.2664C47.0088 59.1488 46.5685 59.1033 46.1261 59.1033C45.2995 59.1033 44.4618 59.2636 43.6421 59.4197C42.5538 59.6276 41.4302 59.8418 40.8825 59.5212C40.3148 59.1887 39.9341 58.0841 39.5672 57.0159C39.1497 55.8028 38.7184 54.5484 37.8239 53.6447C36.9302 52.7403 35.6895 52.3042 34.4898 51.8821C33.4333 51.5104 32.3408 51.1261 32.012 50.5521C31.6942 49.9977 31.9075 48.8616 32.1124 47.7633C32.3505 46.4907 32.5963 45.1747 32.2654 43.921C31.9455 42.7114 31.0988 41.7216 30.2798 40.7647C29.5363 39.8953 28.7692 38.9986 28.7692 38.3C28.7692 37.6014 29.537 36.704 30.2798 35.8353C31.0988 34.8784 31.9448 33.8886 32.264 32.6797C32.5956 31.426 32.3498 30.11 32.1124 28.8381C31.9068 27.7391 31.6942 26.6023 32.012 26.0479C32.3408 25.4739 33.4333 25.0889 34.4898 24.7179C35.6895 24.2958 36.9302 23.8597 37.8239 22.9553C38.7184 22.0516 39.1497 20.7972 39.5672 19.5841C39.9348 18.5159 40.3148 17.4113 40.8825 17.0788C41.4295 16.7575 42.5545 16.9724 43.6407 17.1803C44.9 17.4218 46.2015 17.6696 47.4408 17.335C48.6371 17.0116 49.616 16.1555 50.5624 15.3274C51.4222 14.5756 52.3091 13.8 53 13.8C53.6909 13.8 54.5785 14.5763 55.4376 15.3274C56.384 16.1555 57.3629 17.0109 58.5585 17.3336C59.7992 17.6696 61.1 17.4211 62.3579 17.1803C63.4448 16.9717 64.5692 16.7575 65.1175 17.0788C65.6852 17.4113 66.0659 18.5159 66.4328 19.5841C66.8503 20.7972 67.2816 22.0516 68.1761 22.9553C69.0698 23.8597 70.3105 24.2958 71.5102 24.7179C72.5667 25.0896 73.6592 25.4739 73.988 26.0479C74.3058 26.6023 74.0925 27.7384 73.8876 28.8367C73.6495 30.1093 73.4037 31.4253 73.7346 32.679C74.0545 33.8886 74.9012 34.8784 75.7202 35.8353C76.4637 36.7047 77.2308 37.6014 77.2308 38.3C77.2308 38.9986 76.463 39.896 75.7202 40.7647ZM53 20.8C43.4565 20.8 35.6923 28.6505 35.6923 38.3C35.6923 47.9495 43.4565 55.8 53 55.8C62.5435 55.8 70.3077 47.9495 70.3077 38.3C70.3077 28.6505 62.5435 20.8 53 20.8ZM53 53C44.9838 53 38.4615 46.4053 38.4615 38.3C38.4615 30.1947 44.9838 23.6 53 23.6C61.0162 23.6 67.5385 30.1947 67.5385 38.3C67.5385 46.4053 61.0162 53 53 53ZM61.5168 34.2323L56.5072 33.4595L54.2538 28.605C54.0253 28.1136 53.5365 27.8 53 27.8C52.4635 27.8 51.9747 28.1136 51.7462 28.605L49.4928 33.4595L44.4832 34.2323C43.9702 34.3114 43.5445 34.6747 43.379 35.1724C43.2135 35.6701 43.3382 36.2189 43.7009 36.5941L47.3265 40.3517L46.1115 45.685C45.9904 46.2163 46.1849 46.7693 46.61 47.1039C47.0351 47.4392 47.6132 47.4931 48.0929 47.2453L53 44.7029L57.9071 47.246C58.1065 47.3496 58.3225 47.4 58.5385 47.4C58.841 47.4 59.1415 47.2999 59.3893 47.1046C59.8137 46.7693 60.0089 46.2163 59.8878 45.6857L58.6728 40.3524L62.2984 36.5948C62.6605 36.2196 62.7851 35.6708 62.6203 35.1731C62.4555 34.6754 62.0298 34.3121 61.5168 34.2323ZM56.1625 38.944C55.8329 39.2849 55.6986 39.7721 55.8038 40.2362L56.5204 43.382L53.6307 41.884C53.4327 41.7818 53.2153 41.73 52.9993 41.73C52.7826 41.73 52.5659 41.7811 52.3679 41.884L49.4782 43.382L50.1948 40.2362C50.3 39.7721 50.1657 39.2856 49.8362 38.944L47.564 36.5899L50.6406 36.1146C51.0968 36.0432 51.4894 35.7478 51.6853 35.325L53 32.4949L54.3133 35.325C54.5092 35.7478 54.9018 36.0432 55.358 36.1146L58.4346 36.5899L56.1625 38.944Z" fill="white"/>
</svg>
