<svg width="101" height="80" viewBox="0 0 101 80" fill="none" xmlns="http://www.w3.org/2000/svg">
<path d="M88.0631 9.19275C87.8342 9.5129 87.5862 9.69585 87.3573 9.83306C87.2237 9.92453 87.1093 9.87879 86.9948 9.78732C86.8422 9.65011 86.6896 9.69585 86.537 9.87879C86.4226 10.0617 86.3081 10.1532 86.1746 10.1532C85.8885 10.1532 85.6023 10.1989 85.3162 10.1989C85.1827 10.1989 85.0682 10.1075 84.9538 9.97027C84.8393 9.78732 84.7058 9.83306 84.5913 9.97027C84.4578 10.1532 84.3433 10.0617 84.248 9.83306C84.2289 9.78732 84.2098 9.69585 84.1907 9.65011C84.0763 9.37569 83.9046 9.3757 83.7711 9.74159C83.7138 9.87879 83.7138 10.016 83.752 10.1532C83.7901 10.2904 83.8283 10.4276 83.8855 10.4734C84.0954 10.702 84.3243 10.7478 84.515 11.0222C84.5722 11.0679 84.6485 11.0679 84.7058 11.1137C85.259 11.1137 85.7931 11.1137 86.3463 11.1137C86.537 11.1137 86.7278 11.1594 86.9185 11.3424C87.0902 11.4796 87.281 11.6168 87.4717 11.754C87.5671 11.8455 87.6625 11.7997 87.7579 11.7997C87.8532 11.7997 87.9486 11.8455 88.044 11.8455C88.1394 11.7997 88.2347 11.7082 88.3111 11.6625C88.4446 11.6168 88.5781 11.7082 88.6735 11.8912C88.807 12.1199 88.9215 12.3943 89.0359 12.623C89.0932 12.7602 89.1504 12.7144 89.1885 12.5772C89.2648 12.3486 89.3411 12.0741 89.4747 12.0741C89.6654 12.0284 89.8562 12.0284 90.0279 12.3486C90.0851 12.44 90.1232 12.5315 90.1805 12.623C90.2568 12.7602 90.3331 12.8517 90.4475 12.8974C90.581 12.9431 90.6955 12.9431 90.829 12.9431C90.9626 12.9431 91.077 13.0346 91.1915 13.1261C91.9163 13.7206 91.9163 13.7206 92.6031 13.7664C92.9464 13.8121 93.3088 13.7206 93.6522 13.8579C93.6713 13.8579 93.7285 13.9036 93.7285 13.9493C93.7285 14.1323 93.6713 14.2237 93.6331 14.3152C93.5759 14.4524 93.595 14.5896 93.6713 14.6354C93.8239 14.7268 93.9956 14.7726 94.1482 14.7268C94.3008 14.7268 94.358 14.5896 94.358 14.178C94.358 13.9036 94.4152 13.8121 94.5488 13.8579C94.6441 13.8579 94.7395 13.9493 94.7967 14.1323C94.8158 14.178 94.8158 14.3152 94.8158 14.361C94.7586 14.7268 94.6441 15.0013 94.5297 15.2757C94.3962 15.5501 94.2436 15.6416 94.091 15.5958C93.9956 15.5501 93.9193 15.4129 93.8239 15.5044C93.8048 15.5501 93.7857 15.5958 93.7667 15.6873C93.7667 15.7788 93.7667 15.8702 93.7857 15.916C93.843 16.0075 93.9002 16.0532 93.9574 16.0989C94.3008 16.1447 94.6632 16.1447 95.0066 16.4648C95.0829 16.5563 95.1973 16.5106 95.2927 16.5563C95.7124 16.602 96.132 16.6478 96.5326 16.6935C96.6089 16.6935 96.6471 16.8307 96.628 16.9222C96.6089 16.9679 96.5708 17.0137 96.5517 17.0137C96.3609 17.0594 96.1702 17.0594 95.9794 17.1051C95.8077 17.1051 95.7696 17.2423 95.7505 17.654C95.7505 17.8369 95.7315 17.9284 95.6361 17.9741C95.4453 18.0199 95.2546 18.0199 95.0638 18.0199C94.873 18.0656 94.854 18.1571 94.8158 18.7059C94.8158 18.8431 94.7777 18.9803 94.7586 19.1633C94.7395 19.3462 94.8349 19.6206 94.9112 19.6664C94.9493 19.6664 94.9684 19.7121 95.0066 19.7121C95.102 19.6664 95.1973 19.6206 95.2736 19.7578C95.4835 20.2152 95.7124 20.3524 95.9794 20.3067C96.113 20.2609 96.2274 20.3067 96.3609 20.3067C96.3991 20.3067 96.4372 20.2609 96.4372 20.2152C96.4563 20.078 96.4182 19.9865 96.3419 19.9408C96.3037 19.9408 96.2846 19.895 96.2465 19.895C96.1702 19.8493 96.132 19.8036 96.132 19.6206C96.132 19.5749 96.1893 19.5292 96.2083 19.5292C96.4945 19.4834 96.7806 19.4377 97.0667 19.4834C97.1621 19.4834 97.2575 19.6206 97.3147 19.8036C97.4101 20.1695 97.5436 20.3067 97.7153 20.3067C97.8679 20.3067 98.0396 20.3524 98.1922 20.3524C98.3448 20.3524 98.5165 20.3981 98.6691 20.4439C98.7072 20.4439 98.7263 20.5353 98.7454 20.5811C98.7263 20.6268 98.6881 20.6726 98.6691 20.7183C98.4211 20.8555 98.154 20.8098 97.9061 20.8555C97.7344 20.9012 97.6009 20.9927 97.4482 21.1757C97.2384 21.4501 97.2384 21.4501 97.391 21.9074C97.4101 21.9532 97.4101 22.0446 97.4101 22.0904C97.391 22.1361 97.3529 22.1819 97.3338 22.1819C97.1049 22.2276 96.8951 22.3648 96.6662 22.4563C96.6089 22.502 96.5326 22.4105 96.4754 22.3648C96.3037 22.2733 96.1511 22.502 96.0748 22.8222C95.9794 23.2338 95.884 23.5997 95.7505 23.9656C95.6742 24.1943 95.7124 24.3315 95.8268 24.4687C95.8841 24.5601 95.9413 24.6059 95.9985 24.6973C96.113 24.8803 96.2274 24.9718 96.3609 24.9718C96.9714 25.0175 97.5818 24.926 98.1922 24.8803C98.4402 24.8346 98.7072 24.8803 98.9552 24.8803C99.2032 24.8803 99.3939 25.0175 99.5275 25.5206C99.5656 25.6578 99.6229 25.7035 99.661 25.8408C99.7564 26.0694 99.7564 26.2066 99.661 26.3439C99.4893 26.5268 99.3176 26.7097 99.1078 26.7555C98.5928 26.8012 98.0777 26.847 97.5627 26.9384C97.5246 26.9384 97.4864 26.9842 97.4864 27.0299C97.4673 27.1214 97.5055 27.2128 97.5818 27.2586C97.7153 27.3043 97.8298 27.2586 97.9633 27.3958C98.0396 27.4873 98.0587 27.5787 98.0587 27.7617C98.0587 27.8989 98.0205 28.0361 97.9442 28.0818C97.7916 28.1733 97.6199 28.1733 97.4673 28.219C97.2193 28.3105 97.0477 28.5392 96.9523 29.088C96.8951 29.4082 96.7997 29.5454 96.6662 29.6369C96.628 29.6369 96.6089 29.6826 96.5708 29.7283C96.5517 29.7741 96.4945 29.8198 96.4945 29.8655C96.4945 30.0028 96.5326 30.14 96.5899 30.2314C96.6471 30.3229 96.7043 30.4144 96.7615 30.4144C96.8569 30.4601 96.9523 30.4601 97.0477 30.4601C97.6009 30.4144 98.135 30.5516 98.6882 30.5973C98.7454 30.5973 98.8026 30.6888 98.8598 30.7803C98.9171 30.8717 98.9552 31.009 98.9552 31.1462C98.9552 31.2834 98.9171 31.3748 98.8408 31.4206C98.6882 31.4663 98.5165 31.4663 98.3639 31.5121C98.135 31.5578 97.9251 31.695 97.7534 32.1066C97.6962 32.2438 97.639 32.2438 97.5818 32.1981C97.4292 32.1524 97.4292 32.1981 97.3529 32.4268C97.3338 32.4725 97.3147 32.564 97.3147 32.6097C97.1812 33.1128 96.9904 33.2958 96.7615 33.433C96.6089 33.5245 96.5708 34.0733 96.6852 34.3934C96.7043 34.4392 96.7425 34.4849 96.7615 34.5307C96.8951 34.6221 97.0095 34.5764 97.143 34.5764C97.2384 34.5764 97.3338 34.5764 97.4292 34.6221C97.6581 34.7136 97.8488 35.0337 98.0777 35.0337C98.2685 35.0337 98.4593 35.0795 98.65 35.1252C98.7263 35.1252 98.7645 35.2624 98.7645 35.3539C98.7645 35.3996 98.7263 35.4911 98.7072 35.4911C98.65 35.5368 98.5928 35.5826 98.5165 35.6283C98.402 35.7198 98.3066 35.9485 98.2113 36.1772C98.135 36.4058 98.1731 36.6345 98.2494 36.7717C98.3829 37.0004 98.5546 36.9547 98.7072 37.0461C98.7263 37.0461 98.7645 37.1376 98.7835 37.1834C98.7645 37.2291 98.7454 37.3206 98.7263 37.3663C98.5165 37.7322 98.2685 37.9151 98.0014 37.9151C97.8679 37.9151 97.7535 37.9609 97.6199 37.9609C97.4292 37.9609 97.2384 38.0523 97.0667 38.2353C96.9714 38.3268 96.876 38.3268 96.7806 38.4182C96.7043 38.464 96.6662 38.5554 96.6852 38.6927C96.6852 38.8299 96.7234 38.9671 96.7997 39.0585C96.8951 39.15 96.9904 39.1958 97.0858 39.1043C97.3338 38.8756 97.5818 38.7841 97.8298 38.7841C98.2876 38.7841 98.7263 38.7841 99.1841 38.7841C99.2223 38.7841 99.2604 38.7841 99.2795 38.8299C99.3367 38.9213 99.3749 39.0128 99.4321 39.1043C99.4512 39.15 99.4512 39.2415 99.4321 39.333C99.413 39.4702 99.3749 39.6074 99.3176 39.6531C99.1269 39.8361 98.9361 39.7903 98.7454 39.8361C98.6119 39.8818 98.6309 40.1562 98.6309 40.3392C98.6309 40.6136 98.4974 40.9337 98.3829 40.9795C98.3257 41.0252 98.2494 41.0709 98.1922 41.0709C97.9442 41.1167 97.6772 41.1167 97.4482 41.4368C97.391 41.4826 97.3338 41.5283 97.2575 41.5283C97.1621 41.574 97.0667 41.574 96.9714 41.574C96.7806 41.6198 96.5899 41.6198 96.3991 41.7112C96.2083 41.8027 96.0367 42.0771 95.8459 42.1229C95.8268 42.1229 95.7887 42.2143 95.7696 42.2601C95.7887 42.3058 95.8078 42.3516 95.8268 42.3516C96.2083 42.3973 96.5899 42.3973 96.9714 42.3973C97.1621 42.3973 97.3529 42.443 97.5246 42.6717C97.6009 42.7632 97.7153 42.8089 97.7916 42.9004C97.8679 42.9461 97.9824 42.9461 97.9824 43.2205C97.9824 43.3578 97.9061 43.4492 97.8488 43.5407C97.7916 43.6322 97.7725 43.7694 97.7725 43.9523C97.7916 44.0895 97.8298 44.2267 97.9061 44.2267C97.9633 44.2725 98.0396 44.2725 98.0968 44.2725C98.4211 44.3182 98.7454 44.3182 99.0506 44.3182C99.1841 44.3182 99.2986 44.364 99.4321 44.364C99.4702 44.364 99.5084 44.4554 99.5084 44.4554C99.5084 44.5926 99.4512 44.6841 99.394 44.6841C99.2032 44.7298 99.0124 44.7756 98.8408 45.0043C98.7072 45.1872 98.5355 45.1872 98.3829 45.2329C98.3066 45.2787 98.2685 45.3701 98.2685 45.4616C98.2685 45.5074 98.3257 45.5531 98.3448 45.5988C98.5356 45.6446 98.7263 45.6446 98.9171 45.6903C99.0124 45.736 99.1078 45.736 99.2032 45.8275C99.413 46.0562 99.6419 46.1019 99.8518 46.1019C99.9853 46.1019 100.1 46.1477 100.233 46.1934C100.271 46.1934 100.291 46.2849 100.31 46.3306C100.291 46.3763 100.252 46.4221 100.233 46.4678C100.138 46.5136 100.043 46.5593 99.9471 46.5593C99.3367 46.5593 98.7263 46.5593 98.1159 46.605C97.7344 46.605 97.3529 46.605 96.9714 46.7422C96.9523 46.7422 96.9141 46.8337 96.9141 46.8337C96.9141 46.9252 96.9332 47.0167 96.9714 47.0167C97.143 47.2453 97.3147 47.4283 97.5055 47.4283C98.0777 47.474 98.65 47.5198 99.2413 47.5655C99.3367 47.5655 99.4321 47.657 99.5084 47.8399C99.5275 47.8856 99.5466 47.9771 99.5656 48.0229C99.6038 48.1601 99.5656 48.2973 99.4703 48.2973C99.2223 48.343 98.9552 48.343 98.7072 48.3887C98.4783 48.4345 98.2685 48.343 98.0587 48.1143C98.0396 48.0686 98.0014 48.0686 97.9633 48.0686C97.8298 48.0229 97.7153 48.1143 97.6199 48.2973C97.5436 48.7089 97.4101 48.8461 97.2384 48.8918C97.143 48.9376 97.0477 49.0291 96.9714 49.1205C96.8378 49.2577 96.7234 49.212 96.6089 49.0748C96.5517 48.9833 96.4945 48.9833 96.4182 49.0291C96.3228 49.0748 96.2465 49.1663 96.1511 49.2577C95.9604 49.3949 95.7696 49.4407 95.5788 49.3035C95.3309 49.1663 95.3309 49.1663 95.121 49.3949C95.102 49.4407 95.0638 49.4864 95.0447 49.5322C95.0066 49.6694 95.0257 49.7608 95.121 49.7608C95.369 49.8066 95.6361 49.8066 95.8841 49.8523C95.9413 49.8523 95.9985 49.9438 96.0748 49.9438C96.1702 49.9895 96.2083 50.3097 96.1511 50.4926C96.0748 50.8585 95.9413 51.1329 95.7887 51.1329C95.3499 51.1787 94.8921 51.2244 94.4534 51.2244C94.358 51.2244 94.2626 51.1787 94.1673 51.0415C93.9574 50.7213 93.7476 50.767 93.5187 50.767C93.4615 50.767 93.3852 50.8128 93.3279 50.8585C93.3089 50.8585 93.2516 50.9042 93.2516 50.95C93.2516 50.9957 93.2707 51.0872 93.2707 51.1787C93.3279 51.3616 93.4042 51.4988 93.4996 51.5445C94.0719 51.636 94.6441 51.5446 95.2355 51.6818C95.3309 51.6818 95.3499 51.819 95.369 52.1849C95.369 52.4593 95.4262 52.5507 95.5598 52.5507C95.6933 52.5507 95.8077 52.4593 95.865 52.0934C95.884 52.0476 95.9031 51.9562 95.9413 51.9562C95.9985 51.9562 96.0367 52.0476 96.0367 52.2306C96.0367 52.3221 96.0557 52.3678 96.0557 52.4593C96.0748 52.7337 96.1702 52.8709 96.2465 52.9166C96.7806 53.0538 97.3338 53.0996 97.887 53.0538C97.9824 53.0538 98.0777 53.0538 98.1731 53.1453C98.1922 53.1911 98.2113 53.2368 98.2494 53.2825C98.2303 53.3283 98.2113 53.4197 98.1731 53.4197C97.9251 53.6027 97.6581 53.374 97.4101 53.5112C97.3338 53.5569 97.3147 53.6484 97.2956 53.8314C97.2956 54.3345 97.2766 54.3345 97.0858 54.243C96.9523 54.1515 96.9523 54.1515 96.7234 54.3345C96.6662 54.3802 96.5898 54.4259 96.5326 54.4259C96.2465 54.4259 95.9604 54.4259 95.6742 54.3802C95.6361 54.3802 95.617 54.3345 95.5788 54.3345C95.4644 54.1973 95.3309 54.1973 95.2164 54.3345C95.102 54.4717 94.9684 54.4259 94.8349 54.3802C94.7777 54.3345 94.7204 54.2887 94.6441 54.243C94.4915 54.1058 94.3389 54.1058 94.1863 54.243C94.1482 54.2887 94.1291 54.2887 94.091 54.3345C93.9383 54.5174 93.7857 54.5174 93.6331 54.3345C93.347 54.06 93.0609 54.1058 92.7747 54.1515C92.6794 54.1515 92.6031 54.3345 92.5458 54.5174C92.5268 54.5631 92.5077 54.6546 92.5267 54.7461C92.5267 54.7918 92.5649 54.8376 92.584 54.8833C92.7938 55.0205 93.0227 54.9748 93.2516 55.0205C93.6713 55.0662 94.091 55.0662 94.4915 55.112C94.5106 55.112 94.5678 55.1577 94.5678 55.2492C94.5869 55.3407 94.5297 55.4321 94.4534 55.4779C94.358 55.5236 94.2626 55.5236 94.1673 55.5236C93.843 55.5693 93.5187 55.5693 93.2135 55.5693C93.1372 55.5693 93.099 55.7066 93.1372 55.798C93.1562 55.8438 93.1944 55.8895 93.2135 55.8895C93.347 55.9352 93.4615 55.9352 93.595 55.9352C93.8811 55.9352 94.1673 55.8895 94.4343 56.2554C94.4915 56.3011 94.5678 56.3011 94.6251 56.2554C94.7586 56.1639 94.873 56.1639 95.0066 56.2554C95.1973 56.4383 95.3881 56.3926 95.5788 56.3926C95.7696 56.4383 95.9604 56.3926 96.1511 56.4383C96.2465 56.4383 96.3228 56.5755 96.4182 56.7127C96.5135 57.2159 96.7234 57.2616 96.9141 57.2616C97.1049 57.3073 97.2956 57.3073 97.4864 57.3073C97.7535 57.2616 97.9824 57.4903 98.2113 57.8104C98.3257 57.9476 98.3639 58.3593 98.2876 58.5879C98.1731 58.9081 98.0587 59.091 97.887 59.091C97.8488 59.091 97.8298 59.091 97.7916 59.091L97.8107 59.1368C97.7725 58.9996 97.7344 58.8624 97.6772 58.8624C97.391 58.7251 97.1049 58.7251 96.8188 58.8624C96.7425 58.9081 96.7043 59.0453 96.7234 59.1825C96.7425 59.3197 96.7806 59.4569 96.8378 59.4569C96.8951 59.4569 96.9714 59.4569 97.0286 59.3655C97.143 59.2282 97.2193 59.3197 97.2766 59.5027C97.3338 59.6856 97.391 59.8686 97.4482 60.0515C97.5055 60.2344 97.5818 60.3717 97.6772 60.4174C97.7725 60.4174 97.8679 60.4174 97.9633 60.4631C98.0205 60.4631 98.0968 60.5089 98.154 60.5089C98.1731 60.5089 98.2113 60.6003 98.2303 60.6461C98.2494 60.7375 98.2303 60.8748 98.154 60.9205C97.4482 61.012 96.7424 61.012 96.0367 61.012C94.7967 61.012 93.5378 60.9205 92.2979 61.0577C92.2215 61.0577 92.1834 61.1949 92.2025 61.2864C92.2215 61.3321 92.2597 61.3779 92.2788 61.4236C92.3169 61.4693 92.336 61.4693 92.3742 61.4693C93.2707 61.4693 94.1673 61.5151 95.0638 61.5151C95.2355 61.5151 95.3881 61.5608 95.5407 61.7437C95.6552 61.881 95.7887 61.881 95.9222 61.881C96.3991 61.881 96.876 61.9267 97.3719 61.9267C97.7153 61.9267 98.0777 61.8352 98.4211 62.0182C98.4402 62.0182 98.4783 62.1096 98.4974 62.1554C98.4783 62.2011 98.4402 62.2926 98.4211 62.2926C98.0968 62.4298 97.7916 62.4298 97.4673 62.384C97.143 62.384 96.8188 62.3383 96.5135 62.4298C96.4182 62.4755 96.38 62.6585 96.4563 62.9329C96.5135 63.1158 96.5708 63.2988 96.6089 63.5275C96.628 63.6647 96.6089 63.8476 96.6089 63.9848C96.6089 64.0306 96.6471 64.0763 96.6662 64.122C96.8188 64.2592 96.9904 64.2592 97.143 64.2592C97.6009 64.2135 98.0396 64.2592 98.4974 64.305C98.5356 64.305 98.5546 64.305 98.5928 64.305C98.7263 64.305 98.7072 64.4879 98.5737 64.6709C98.3829 64.9453 98.1731 65.1282 97.9442 65.1282C97.3338 65.1282 96.7234 65.1282 96.113 65.1282C95.4453 65.1282 94.7586 65.1282 94.091 65.1282C93.9956 65.1282 93.9002 65.1282 93.8048 65.1282C93.2326 65.2654 92.6603 65.1282 92.088 65.2654C92.0499 65.2654 92.0308 65.3569 92.0117 65.4026C92.0308 65.4484 92.0499 65.4941 92.088 65.5399C92.1834 65.5856 92.2788 65.6313 92.3742 65.6313C92.6603 65.6313 92.9464 65.5856 93.2326 65.5399C93.3279 65.5399 93.4233 65.5399 93.5187 65.6313C93.7285 65.86 93.9383 65.9515 94.1673 65.9972C95.1973 66.043 96.2274 66.043 97.2384 66.0887C97.391 66.0887 97.5627 66.1344 97.7153 66.2716C97.8298 66.3631 97.9633 66.4088 98.0968 66.4088C98.3257 66.4088 98.5546 66.4546 98.7645 66.4088C99.0887 66.3631 99.394 66.5918 99.6801 66.9577C99.6992 67.0034 99.7373 67.0491 99.7564 67.0949C99.8899 67.3236 100.062 67.3693 100.214 67.3693C100.443 67.3693 100.672 67.3693 100.882 67.415C100.958 67.415 101.015 67.5522 100.996 67.6437C100.977 67.7809 100.901 67.8267 100.825 67.8267C100.176 67.8267 99.5466 67.9181 98.898 67.8267C98.6691 67.7809 98.4402 67.8267 98.2303 67.8267C97.887 67.8267 97.5246 67.8267 97.1812 67.8267C96.9332 67.8267 96.6661 67.8724 96.4182 67.9181C96.3228 67.9181 96.2274 68.0096 96.1511 68.1011C95.9985 68.2383 95.8459 68.3755 95.6933 68.3755C95.4072 68.4212 95.121 68.4212 94.8349 68.467C94.7967 68.467 94.7586 68.5127 94.7586 68.5584C94.7395 68.6499 94.7967 68.7414 94.873 68.7414C95.102 68.7871 95.3118 68.7871 95.5407 68.8329C95.5598 68.8329 95.5979 68.8786 95.617 68.9701C95.6551 69.0615 95.617 69.1988 95.5407 69.1988C94.873 69.3817 94.1863 69.336 93.5187 69.2445C93.4233 69.2445 93.3279 69.153 93.2326 69.1073C93.1753 69.0615 93.1181 69.0615 93.0418 69.1073C92.832 69.2902 92.6031 69.336 92.3742 69.336C92.2406 69.336 92.1071 69.336 91.9926 69.4732C91.7828 69.7019 91.573 69.7476 91.3441 69.8848C91.2868 69.9305 91.2296 69.9763 91.1724 70.022C91.0198 70.2049 90.8672 70.2049 90.7146 70.022C90.6573 69.9305 90.581 69.9305 90.5238 69.9763C90.2758 70.205 90.0279 70.2507 89.7799 70.3422C89.7608 70.3422 89.7417 70.4336 89.7036 70.4794C89.7226 70.5251 89.7417 70.5708 89.7799 70.6166C90.0088 70.7538 90.2186 70.7538 90.4475 70.7081C90.9244 70.7081 91.4013 70.7538 91.8973 70.6623C92.088 70.6166 92.2788 70.6623 92.4695 70.7995C92.5077 70.7995 92.5268 70.891 92.5458 70.891C92.5268 70.9367 92.5077 70.9825 92.4695 71.0282C92.2215 71.1654 91.9545 71.1654 91.7065 71.1654C91.2487 71.1654 90.81 71.1654 90.3521 71.1654C90.2949 71.1654 90.2186 71.2112 90.1614 71.2569C90.1232 71.2569 90.1042 71.3484 90.0851 71.3941C90.1042 71.4398 90.1423 71.4856 90.1614 71.5313C90.3903 71.6685 90.6001 71.6228 90.829 71.577C91.3059 71.5313 91.7828 71.577 92.2788 71.6228C92.4123 71.6228 92.5268 71.7142 92.6412 71.8515C92.7557 71.9887 92.8892 72.0801 93.0036 72.0344C93.6141 72.0344 94.2245 71.9887 94.8349 71.9887C95.121 71.9887 95.4072 72.0344 95.6933 72.0801C95.7314 72.0801 95.7505 72.1716 95.7696 72.1716C95.7505 72.2631 95.6933 72.3546 95.617 72.3546C95.369 72.4003 95.102 72.446 94.854 72.446C93.4996 72.446 92.1643 72.4918 90.81 72.4918C90.5238 72.4918 90.2377 72.5375 89.9516 72.5375C89.9134 72.5375 89.8753 72.5832 89.8753 72.629C89.8562 72.7662 89.8943 72.8577 89.9516 72.9034C89.9897 72.9491 90.0088 72.9491 90.0469 72.9491C90.1232 72.9491 90.1805 72.9949 90.2186 73.1321C90.2568 73.2693 90.1805 73.6352 90.1042 73.6809C90.0469 73.7266 89.9897 73.8181 89.9325 73.8181C89.7989 73.8639 89.6845 73.9096 89.551 73.9553C89.4747 74.0011 89.4365 74.1383 89.4365 74.2755C89.4365 74.4127 89.4556 74.5499 89.5128 74.6414C89.57 74.7328 89.6463 74.8243 89.6654 74.9158C89.6845 75.053 89.6082 75.1445 89.551 75.2359C89.4747 75.3274 89.4747 75.4646 89.4747 75.6018C89.4937 75.9677 89.3984 76.1049 89.2458 75.9677C89.2076 75.922 89.1885 75.922 89.1504 75.8763C89.0932 75.8305 89.0359 75.739 88.9787 75.6476L88.9978 75.6933C88.9215 75.4189 88.8261 75.2817 88.6735 75.2817C88.4255 75.2817 88.1584 75.2359 87.9295 75.5561C87.8723 75.6018 87.796 75.6018 87.7388 75.5561C87.6053 75.4646 87.4908 75.3732 87.3764 75.5561C87.3191 75.6476 87.2619 75.6476 87.1856 75.6018C87.1284 75.5561 87.0711 75.5104 87.0139 75.4189C86.8613 75.2817 86.7087 75.2359 86.5561 75.4189C86.4226 75.5561 86.3081 75.5104 86.1937 75.3732C86.1555 75.3274 86.1364 75.3274 86.0983 75.3274C85.7549 75.2817 85.3925 75.2359 85.0491 75.3732C84.9156 75.4189 84.8011 75.5104 84.6867 75.6476C84.5341 75.8305 84.3815 75.7848 84.2289 75.6476C84.1335 75.5561 84.0381 75.5561 83.9618 75.6476C83.9046 75.6933 83.8474 75.739 83.7901 75.8305C83.7138 75.922 83.6185 75.922 83.5612 76.1507C83.5994 76.2879 83.6566 76.3336 83.7329 76.3794C83.8664 76.4251 83.9809 76.5166 84.0763 76.791C84.1335 76.9282 84.1144 77.0654 84.0572 77.1569C84.0381 77.2026 84 77.2483 83.9809 77.2483C83.8283 77.3398 83.6566 77.3398 83.504 77.1569C83.3705 77.0197 83.256 77.0654 83.1416 77.2026C83.1225 77.2483 83.0844 77.2483 83.0462 77.2941C82.6647 77.3398 82.2832 77.4313 81.9017 77.2483C81.8063 77.2026 81.7872 77.1111 81.8254 76.9282C81.8635 76.791 81.8826 76.6538 81.9207 76.5623C82.0161 76.1964 82.0161 76.1049 81.9017 76.0592C81.7491 76.0135 81.5774 75.9677 81.4248 76.0135C81.2913 76.0592 81.1768 76.1964 81.1386 76.5623C81.1386 76.6538 81.1196 76.6995 81.1005 76.791C81.0814 77.0654 80.986 77.2026 80.9097 77.2483C80.6999 77.3398 80.471 77.3856 80.2421 77.3398C80.1658 77.3398 80.1086 77.2483 80.1086 77.1569C80.1086 77.1111 80.1276 77.0197 80.1658 76.9739C80.223 76.8825 80.2802 76.791 80.3184 76.6995C80.4138 76.4708 80.5282 76.3794 80.6618 76.3794C80.7381 76.3794 80.7762 76.3336 80.8144 76.1964C80.7571 76.1049 80.6999 76.0592 80.6427 76.0592C80.4901 76.0592 80.3184 76.0592 80.1658 76.1964C79.956 76.3793 79.7461 76.5623 79.5363 76.7452C79.4791 76.791 79.4218 76.8824 79.3455 76.8824C79.0785 76.8824 78.8496 77.1111 78.6016 77.2941C78.5444 77.3398 78.4681 77.3398 78.4108 77.2941C78.0102 76.9282 77.5906 76.8825 77.19 76.9282C76.5796 77.0197 75.9692 76.9282 75.3778 76.9282C75.2824 76.9282 75.1871 76.9282 75.0917 76.8367C74.9391 76.6995 74.7865 76.7452 74.6148 76.8824C74.5003 76.9739 74.3668 76.9739 74.2333 76.8367C74.1379 76.7452 74.0425 76.6538 73.9662 76.6538C73.5847 76.608 73.2032 76.5623 72.8217 76.6995C72.7263 76.7452 72.65 76.8367 72.5737 77.0197C72.5546 77.0654 72.5356 77.1569 72.5356 77.2026C72.5737 77.3856 72.6309 77.4313 72.6882 77.3398C72.7454 77.2941 72.8026 77.2483 72.8598 77.1569C72.9552 77.0197 73.0506 77.0197 73.1269 77.1111C73.2986 77.2941 73.4893 77.3856 73.6801 77.3856C74.0998 77.3856 74.5194 77.3398 74.92 77.477C74.9582 77.477 74.9963 77.5228 74.9963 77.5685C75.0154 77.7057 74.9772 77.8429 74.9391 77.9801C74.9009 78.1173 74.8437 78.1631 74.7674 78.2088C74.5766 78.2545 74.3859 78.3003 74.1951 78.346C73.9662 78.346 73.7564 78.346 73.5275 78.346C73.394 78.346 73.2795 78.4832 73.1651 78.5747C73.0888 78.6204 72.9743 78.5747 72.898 78.6204C72.8789 78.6204 72.8598 78.7119 72.8217 78.7576C72.7072 79.0778 72.7072 79.0778 72.5928 78.9406C72.4974 78.8491 72.4211 78.7576 72.3257 78.6662C72.2685 78.6204 72.2304 78.4832 72.2113 78.3003C72.2685 78.3003 72.3448 78.3003 72.402 78.2545C72.4211 78.2545 72.4593 78.2088 72.4783 78.1631C72.4974 78.1173 72.4974 78.0259 72.4974 78.0259C72.4593 77.8886 72.402 77.8886 72.3448 77.9801C72.2876 78.0716 72.2494 78.1631 72.2494 78.346C72.1731 78.346 72.1159 78.346 72.0396 78.346C72.0205 78.1173 71.9442 77.9801 71.8488 77.9344C71.7916 77.8886 71.7344 77.9344 71.6772 77.9344C71.6581 77.9344 71.6199 77.9801 71.6009 78.0259C71.5818 78.1173 71.6199 78.2088 71.6962 78.2088C71.8107 78.2545 71.9442 78.2545 72.0587 78.2545C72.0396 78.3917 72.0205 78.529 71.9633 78.6204C71.887 78.7576 71.8107 78.8491 71.7153 78.9406C71.639 79.0321 71.5436 79.1235 71.4483 78.9863C71.3338 78.8491 71.2194 78.8034 71.1049 78.7119C71.0095 78.6204 70.9523 78.529 70.8951 78.3003C70.8569 78.1173 70.7806 77.9344 70.6852 77.8429C70.6662 77.7057 70.628 77.5685 70.5708 77.5228C70.5517 77.477 70.5135 77.477 70.4945 77.477C70.4754 77.477 70.4372 77.5228 70.4182 77.5685C70.3991 77.66 70.4372 77.7514 70.5135 77.7972C70.5708 77.7972 70.628 77.7972 70.7043 77.7972C70.6089 78.346 70.4372 78.6662 70.2083 78.7576C69.865 78.8949 69.5407 79.215 69.1973 79.4437C69.102 79.4894 69.0066 79.4894 68.9112 79.4437C68.854 79.3979 68.7777 79.3979 68.7205 79.3979C68.6251 79.3979 68.5297 79.4894 68.4343 79.5352C68.2245 79.3522 67.9956 79.3065 67.8048 79.0321C67.6331 78.7576 67.4424 78.8034 67.2707 79.0321C67.2516 79.0778 67.2135 79.1235 67.1944 79.1235C67.1753 79.1693 67.1372 79.215 67.099 79.215C67.0036 79.2607 66.9083 79.3065 66.8129 79.215C66.6984 79.1235 66.584 78.9406 66.4695 78.8491C66.4123 78.8034 66.336 78.8034 66.2788 78.8034C66.1452 78.8034 66.0308 78.8949 65.9163 79.0321C65.7447 79.2607 65.5539 79.3065 65.3632 79.2607C65.2296 79.2607 65.1152 79.215 64.9816 79.1693C64.8481 79.1235 64.7527 78.9863 64.6574 78.7119C64.6001 78.529 64.6001 78.3918 64.6955 78.346C64.8672 78.2088 65.0579 78.1173 65.2487 77.9801C65.4395 77.8429 65.6302 77.8886 65.821 77.8886C66.0117 77.8429 66.2025 77.9344 66.3742 78.1631C66.4886 78.3003 66.6221 78.2545 66.7557 78.1631C66.7938 78.1631 66.8129 78.1173 66.851 78.0716C67.0036 77.8886 67.1372 77.7972 67.3089 77.7972C67.843 77.8429 68.3962 77.7514 68.9303 77.7972C69.0829 77.7972 69.2546 77.7514 69.3881 77.5685C69.5598 77.3856 69.7505 77.3856 69.9413 77.2941C69.9604 77.3398 69.9604 77.4313 69.9794 77.477C69.9985 77.5228 70.0176 77.5228 70.0367 77.5228C70.0367 77.4313 69.9985 77.3398 69.9222 77.3398C69.9031 77.1111 69.865 76.9282 69.7887 76.7452C69.7124 76.608 69.617 76.5166 69.5216 76.5166C69.4644 76.5166 69.3881 76.5623 69.3309 76.608C69.1401 76.7452 68.9494 76.8367 68.7586 76.8367C68.3771 76.8367 67.9956 76.8367 67.6141 76.8367C67.4233 76.8367 67.2326 76.8825 67.0418 77.0654C66.9846 77.1111 66.9273 77.1111 66.851 77.0654C66.6412 76.8367 66.4314 76.6538 66.2406 76.4708C66.0117 76.4251 65.821 76.0592 65.5921 76.0135C65.4395 75.9677 65.3822 75.739 65.3822 75.4189C65.3822 75.2359 65.3441 75.1445 65.2678 75.1445C64.8863 75.0987 64.5048 75.0073 64.1232 75.1902C64.0469 75.2359 64.0088 75.3274 64.066 75.5104C64.1232 75.6933 64.1805 75.8763 64.2186 76.0592C64.2568 76.2421 64.2377 76.3336 64.1423 76.3794C63.9134 76.5166 63.7036 76.5166 63.4937 76.2879C63.4365 76.1964 63.3984 76.1049 63.4174 75.922C63.4365 75.6018 63.551 75.3732 63.5319 75.053C63.5319 74.9158 63.4747 74.7786 63.4174 74.7786C63.3221 74.7328 63.2267 74.8243 63.1313 74.9158C62.9787 75.053 62.8261 75.0987 62.6735 74.9615C62.5209 74.8243 62.3683 74.7328 62.2157 74.9158C62.0822 75.0987 61.8914 75.053 61.7769 75.2817C61.7197 75.3732 61.7197 75.5104 61.7388 75.6933C61.7579 75.739 61.7769 75.8305 61.8151 75.8305C61.8342 75.8763 61.8723 75.8763 61.9105 75.8763C62.0249 75.7848 62.1585 75.6933 62.2729 75.6018C62.3683 75.5561 62.4637 75.6018 62.5209 75.7848C62.5972 76.0135 62.559 76.2421 62.4637 76.3336C62.4255 76.3793 62.4064 76.4251 62.3683 76.4251C62.1203 76.4708 61.8532 76.4708 61.6053 76.5166C61.548 76.5166 61.4717 76.4708 61.4145 76.4251C61.3001 76.3336 61.1856 76.1049 61.0521 76.1507C60.9567 76.1964 60.8613 76.2879 60.785 76.3336C60.7087 76.3793 60.5943 76.1049 60.5752 75.922C60.5752 75.6933 60.6133 75.4646 60.6324 75.2817C60.6324 75.0987 60.5943 75.0073 60.537 74.9158C60.4989 74.8701 60.4798 74.8243 60.4417 74.8243C60.1937 74.7786 59.9266 74.7786 59.6786 74.7328C59.4497 74.6871 59.2399 74.7328 59.011 74.7786C58.8965 74.7786 58.8775 74.9158 58.8775 75.2359C58.8775 75.5104 58.8012 75.6933 58.7249 75.6018C58.6104 75.4646 58.4959 75.3274 58.3815 75.2359C58.3624 75.1902 58.3624 75.0987 58.3433 75.053C58.3243 75.0073 58.3052 75.0073 58.2861 75.0073C58.2861 75.0987 58.3243 75.1902 58.3815 75.1902C58.3624 75.6933 58.2861 76.0592 58.0763 76.2421C57.9046 76.4251 57.7138 76.5623 57.5422 76.7452C57.4468 76.8367 57.4468 77.1111 57.5231 77.2941C57.5422 77.3398 57.5612 77.4313 57.5994 77.4313C57.6948 77.477 57.7901 77.5228 57.8855 77.5228C58.0381 77.5685 58.2098 77.5685 58.3624 77.7057C58.5722 77.8886 58.8012 77.9344 59.0301 77.9344C59.7931 77.8886 60.5752 77.9344 61.3382 77.9801C61.529 77.9801 61.7197 77.8886 61.8914 77.6142C62.044 77.3856 62.1966 77.4313 62.3492 77.6142C62.4446 77.7057 62.5018 77.8886 62.559 78.0716C62.6353 78.3003 62.5972 78.7576 62.4637 78.8034C62.4255 78.8034 62.4064 78.8491 62.3683 78.8491C62.0822 78.8948 61.796 78.9406 61.5099 78.6662C61.4145 78.5747 61.3382 78.5747 61.2428 78.6662C61.1474 78.7576 61.0521 78.8034 60.9567 78.8491C60.8995 78.8948 60.8232 78.8491 60.7659 78.8491C60.4798 78.8491 60.1937 78.8491 59.9075 78.8949C59.5833 78.9406 59.278 78.8491 58.9538 78.6662C58.8965 78.6204 58.8202 78.6662 58.763 78.7119C58.5532 78.9406 58.3243 78.8491 58.0954 78.8949C57.8665 78.9406 57.6566 78.8491 57.4277 78.7119C57.2942 78.6204 57.1797 78.6204 57.0462 78.6662C56.7028 78.8949 56.3595 78.9406 56.0161 78.6204C55.9207 78.529 55.8254 78.529 55.73 78.529C55.5011 78.4832 55.2913 78.4375 55.0623 78.4832C54.6427 78.529 54.223 78.6204 53.8224 78.5747C53.4028 78.529 52.9831 78.4375 52.5825 78.4375C52.4871 78.4375 52.3918 78.3917 52.2964 78.3003C52.0484 77.9801 51.8004 78.0716 51.5524 78.2545C51.4189 78.346 51.3045 78.346 51.19 78.2088C50.9802 78.0259 50.7513 78.0716 50.5224 78.2088C50.4651 78.2545 50.4079 78.346 50.3698 78.4375C50.3125 78.529 50.2744 78.6662 50.2362 78.7576C50.1981 78.6662 50.1409 78.5747 50.1027 78.4832C50.0455 78.3917 50.0073 78.3003 49.9501 78.2545C49.8547 78.2088 49.7593 78.1631 49.664 78.1631C48.7102 78.2088 47.7373 78.1173 46.7836 78.1173C46.6309 78.1173 46.4593 78.1173 46.3067 78.1631C46.0778 78.2088 45.8679 78.1631 45.6581 77.9344C45.5055 77.7514 45.3529 77.7972 45.1812 77.8429C44.9904 77.8886 44.8188 78.0716 44.6089 77.8886C44.5517 77.8429 44.4754 77.8886 44.4182 77.9801C44.2656 78.1631 44.113 78.1173 43.9604 77.9344C43.8841 77.8429 43.7887 77.7514 43.6933 77.7514C43.5026 77.7972 43.3118 77.8429 43.121 77.7972C42.9303 77.7514 42.7395 77.7514 42.5488 77.7514C42.3008 77.7514 42.0337 77.7514 41.7858 77.7972C41.6331 77.7972 41.4615 77.8886 41.3089 78.0259C41.1563 78.2088 41.0037 78.1631 40.8511 78.0259C40.7557 77.9344 40.6603 77.9344 40.5649 77.9344C40.2406 77.8886 39.9163 77.8886 39.6111 77.8429C39.4776 77.8429 39.3632 77.7972 39.2296 77.7057C39.1343 77.6142 39.0389 77.6142 38.9435 77.7057C38.829 77.7972 38.6955 77.8429 38.562 77.8886C38.2377 77.8886 37.9134 77.9344 37.6082 77.9344C37.2648 77.9801 36.9024 77.9344 36.5591 77.7514C36.4255 77.66 36.3111 77.7057 36.1775 77.7972C35.8723 77.9801 35.548 77.9801 35.2238 78.0259C34.8423 78.0716 34.4607 78.0716 34.0792 78.0259C33.8312 77.9801 33.5642 77.9801 33.3162 78.0259C33.0873 78.0716 32.8584 78.0259 32.6486 77.7972C32.5913 77.7514 32.515 77.7057 32.4578 77.7972C32.248 78.0259 32.0191 78.0716 31.7902 78.0259C31.1797 78.0259 30.5693 77.9801 29.9589 77.9801C29.8635 77.9801 29.7681 77.9801 29.6728 77.8886C29.3294 77.5685 28.986 77.5685 28.6236 77.6142C28.471 77.66 28.2993 77.7057 28.1467 77.8429C28.0895 77.8886 28.0323 77.9344 27.956 77.9344C27.6317 77.9801 27.3074 77.9801 27.0022 77.9344C26.697 77.66 26.3727 77.7057 26.0484 77.66C25.9149 77.66 25.8004 77.7057 25.6669 77.8429C25.6097 77.8886 25.5524 77.8886 25.4761 77.8429C25.3617 77.7514 25.2282 77.66 25.0946 77.7514C24.8657 77.8429 24.6559 77.8886 24.427 77.7514C24.0455 77.7514 23.664 77.5228 23.2825 77.66C22.9391 77.6142 22.5767 77.6142 22.2333 77.5685C22.1761 77.5685 22.0998 77.5228 22.0425 77.477C21.8327 77.2941 21.6038 77.2483 21.3749 77.2483C21.146 77.2483 20.9171 77.2483 20.7073 77.2026C20.5547 77.2026 20.383 77.1111 20.2304 77.0197C20.0396 76.8824 19.8489 76.8824 19.6581 77.0197C19.6009 77.0654 19.5436 77.0197 19.4673 76.9739C19.372 76.9282 19.2766 76.8367 19.1812 76.8367C18.5708 76.8367 17.9604 76.791 17.35 76.7452C17.1783 76.7452 17.0257 76.6995 16.8731 76.5623C16.7205 76.4251 16.5679 76.4708 16.3962 76.5623C16.0528 76.8367 15.7095 76.8367 15.3661 76.5166C15.2707 76.4251 15.1753 76.4251 15.08 76.3794C14.9274 76.3794 14.7557 76.3794 14.6031 76.3794C14.4695 76.3794 14.3551 76.2879 14.2216 76.2879C13.9545 75.9677 13.6684 76.0135 13.3822 75.9677C13.1533 75.922 12.9435 75.922 12.7146 75.8763C12.4857 75.8763 12.2759 75.8305 12.066 75.6018C11.5891 75.4646 11.1313 75.0073 10.6544 75.0073C10.5209 75.0073 10.4065 74.9158 10.292 74.8243C10.1775 74.6871 10.044 74.6414 9.91049 74.6414C9.85326 74.6414 9.77696 74.6414 9.71973 74.5956C9.39545 74.2755 9.03301 74.184 8.68965 74.0925C8.61335 74.0925 8.51797 73.7724 8.53705 73.5894C8.55612 73.4522 8.5752 73.2693 8.5752 73.1321C8.5752 72.9949 8.53705 72.8577 8.46074 72.8119C8.42259 72.7662 8.40352 72.7662 8.36537 72.7662C8.09831 72.8119 7.8694 72.4918 7.64049 72.2173C7.58327 72.1716 7.54512 71.9887 7.52604 71.8515C7.44974 71.3941 7.29713 71.1197 7.10638 70.9825C6.91562 70.8453 6.74394 70.6623 6.57226 70.5251C6.41966 70.4336 6.26705 70.3422 6.11445 70.205C6.01907 70.1135 5.92369 70.0677 5.82832 70.022C5.67571 69.9763 5.50403 69.9305 5.3705 69.7933C5.10344 69.5646 4.79824 69.5646 4.5121 69.6104C4.4358 69.6104 4.37857 69.7019 4.37857 69.7933C4.37857 69.8391 4.41672 69.9305 4.4358 69.9763C4.62656 70.205 4.83639 70.4336 5.02714 70.7081C5.16067 70.891 5.27512 70.8453 5.38958 70.7081C5.42773 70.6623 5.4468 70.6623 5.48496 70.6166C5.67571 70.4794 5.86647 70.5251 6.01907 70.8453C6.13352 71.1197 6.24798 71.3484 6.38151 71.577C6.49596 71.76 6.61041 71.76 6.74394 71.6228C6.80117 71.577 6.8584 71.4856 6.91562 71.4856C6.97285 71.4398 7.04915 71.5313 7.06823 71.7143C7.0873 71.8972 7.04915 72.0344 6.99192 72.0801C6.97285 72.1259 6.9347 72.1716 6.91562 72.1716C6.72487 72.2174 6.53411 72.2631 6.34336 72.2631C6.19075 72.2631 6.01907 72.2631 5.86647 72.0801C5.61848 71.8515 5.3705 71.8057 5.10344 71.8057C4.96992 71.8057 4.85546 71.8515 4.72193 71.8515C4.62656 71.8515 4.5121 71.8515 4.4358 71.76C4.20689 71.4398 3.95891 71.3941 3.69185 71.4398C3.46295 71.4856 3.23404 71.4856 3.02421 71.4856C2.92883 71.4856 2.83345 71.4856 2.73807 71.577C2.49009 71.8515 2.24211 71.8515 1.99413 71.8515C1.57447 71.8515 1.1548 71.8972 0.754216 71.76C0.658838 71.7142 0.582536 71.577 0.506234 71.4398C0.449007 71.3026 0.449007 71.1654 0.525309 71.0739C0.716065 70.8453 0.811443 70.5251 0.887745 70.0677C0.906821 69.8848 0.906821 69.7476 0.849594 69.6561C0.658838 69.3817 0.544385 68.8786 0.353629 68.5584C0.239176 68.3755 0.258251 68.1468 0.372705 67.7809C0.506234 67.4608 0.506234 67.415 0.372705 67.3236C0.277327 67.2778 0.181949 67.2321 0.105647 67.0949C0.0484201 67.0034 -0.0278821 66.6375 0.010269 66.5003C0.0293446 66.3631 0.0484201 66.2259 0.0865713 66.0887C0.181949 65.6771 0.239176 65.2654 0.2201 64.7623C0.201025 64.305 0.201025 63.8476 0.239176 63.3902C0.258251 63.253 0.258251 63.0701 0.277327 62.9329C0.315478 62.567 0.487158 62.2468 0.639763 62.2926C0.696989 62.2926 0.773292 62.3383 0.830518 62.384C0.887745 62.4298 0.964047 62.3841 1.02127 62.3383C1.13573 62.2011 1.26926 62.1554 1.40279 62.1554C1.59354 62.1554 1.7843 62.1554 1.97505 62.1554C1.97505 62.2011 1.99413 62.2926 1.99413 62.3383C2.0132 62.3841 2.03228 62.384 2.05135 62.384C2.05135 62.2926 2.0132 62.2468 1.95598 62.2011C1.91783 61.9724 1.84152 61.8352 1.74615 61.7895C1.65077 61.7437 1.55539 61.7437 1.46001 61.7895C1.26926 61.8352 1.0785 61.7895 0.90682 61.5608C0.754216 61.3778 0.601611 61.3321 0.449007 61.2864C0.353629 61.2406 0.296402 60.9662 0.334554 60.7833C0.410856 60.4631 0.449007 60.0515 0.601611 59.8686C0.677914 59.7771 0.696989 59.6399 0.658838 59.5484C0.639763 59.5027 0.601611 59.5027 0.582536 59.4569C0.525309 59.4112 0.468083 59.3655 0.39178 59.3197C0.372705 59.274 0.315478 59.2282 0.315478 59.1825C0.372705 58.6337 0.239176 58.1306 0.258251 57.5817C0.277327 57.3531 0.315478 57.1701 0.410856 57.0786C0.506234 56.9872 0.601611 56.9872 0.677914 56.85C0.73514 56.7585 0.773292 56.5755 0.716065 56.4841C0.658838 56.3011 0.582536 56.2097 0.506234 56.0267C0.429931 55.8438 0.410856 55.6608 0.449007 55.4321C0.468083 55.3407 0.487158 55.2949 0.487158 55.2492C0.56346 54.8376 0.56346 54.7004 0.449007 54.4259C0.410856 54.3345 0.353629 54.243 0.315478 54.1058C0.239176 53.9228 0.258251 53.6484 0.296402 53.4655C0.39178 53.1453 0.582536 53.0996 0.677914 52.7794C0.754216 52.5507 0.658838 52.2306 0.773292 51.9562C0.887745 51.7275 0.887745 51.636 0.811443 51.4073C0.754216 51.2244 0.696989 51.0415 0.639763 50.8585C0.582536 50.6756 0.620687 50.4469 0.696989 50.2639C0.716065 50.2182 0.754216 50.1725 0.773292 50.1267C0.849594 49.9438 0.849594 49.898 0.811443 49.5322C0.792367 49.3035 0.754216 49.0748 0.754216 48.8461C0.754216 48.3887 0.773292 47.9314 0.773292 47.474C0.773292 47.1996 0.868669 47.0624 0.944972 47.0167C1.11665 46.8794 1.30741 46.6965 1.47909 46.605C1.53631 46.5593 1.61262 46.605 1.66984 46.6508C1.84152 46.6965 1.89875 46.605 1.89875 46.1934C1.89875 46.1019 1.89875 46.0562 1.87967 45.9647C1.9369 45.9647 1.99413 45.9647 2.05135 45.9647C2.07043 45.9647 2.10858 45.919 2.12766 45.8732C2.14673 45.8275 2.14673 45.7818 2.14673 45.736C2.10858 45.5988 2.05135 45.5988 1.99413 45.6903C1.9369 45.7818 1.91783 45.8732 1.89875 46.0105C1.74615 46.0105 1.57447 45.9647 1.46001 45.6446C1.32648 45.2787 1.1548 45.0957 0.944972 45.0957C0.887745 45.0957 0.811443 45.05 0.754216 45.0043C0.677914 44.9585 0.582536 44.6841 0.601611 44.5012C0.658838 44.1353 0.658838 43.7694 0.601611 43.4035C0.582536 43.2663 0.601611 43.0833 0.639763 42.9919C0.811443 42.6717 0.983123 42.3058 1.1548 41.9857C1.21203 41.8942 1.26926 41.8942 1.34556 41.8942C1.51724 41.8942 1.65077 42.0771 1.80337 42.1686C1.8606 42.2143 1.9369 42.1686 1.99413 42.1229C2.16581 41.8942 2.28026 41.4826 2.45194 41.3454C2.52824 41.2539 2.54732 41.1167 2.49009 41.0709C2.47102 41.0252 2.43287 41.0252 2.39471 41.0252C2.33749 41.0252 2.26119 40.9795 2.20396 41.0709C2.08951 41.1624 1.97505 41.3454 1.8606 41.4368C1.70799 41.574 1.55539 41.5283 1.40279 41.3454C1.38371 41.2996 1.34556 41.2539 1.32648 41.2081C1.26926 40.9337 1.21203 40.6593 1.17388 40.3849C1.11665 40.019 1.02127 39.7446 0.868669 39.5616C0.754216 39.4244 0.73514 39.1043 0.830518 38.7841C0.925896 38.464 1.02127 38.1438 1.09758 37.8237C1.17388 37.5492 1.26926 37.412 1.40279 37.3663C1.74615 37.3206 2.10858 37.2748 2.45194 37.1834C2.52824 37.1834 2.56639 37.0004 2.56639 36.8632C2.58547 36.6803 2.54732 36.543 2.49009 36.4973C2.43287 36.4516 2.37564 36.4058 2.31841 36.3601C2.16581 36.3601 1.99413 36.3601 1.84152 36.2229C1.74615 36.1772 1.66984 36.0399 1.63169 35.8113C1.59354 35.6283 1.61262 35.4911 1.70799 35.4911C2.03228 35.3996 2.33749 35.3996 2.66177 35.3996C2.719 35.6741 2.81438 35.857 2.94791 35.857C3.10051 35.857 3.25311 35.857 3.40572 35.8113C3.4248 35.8113 3.46295 35.7655 3.48202 35.6741C3.5011 35.5826 3.46295 35.4911 3.38664 35.4454C3.13866 35.3082 2.90975 35.3996 2.66177 35.3996C2.62362 35.171 2.54732 35.0338 2.45194 34.988C2.35656 34.9423 2.26119 34.8965 2.20396 34.7136C2.14673 34.5306 2.14673 34.2105 2.24211 34.1648C2.29934 34.119 2.35656 34.0733 2.43287 34.0733C2.56639 34.0733 2.68085 34.119 2.81438 34.2105C2.92883 34.302 3.06236 34.3934 3.17681 34.4392C3.42479 34.4849 3.67278 34.5764 3.92076 34.8051C4.03521 34.8965 4.16874 34.9423 4.30227 34.9423C4.62656 34.9423 4.93176 34.8965 5.25605 34.8508C5.2942 34.8508 5.31328 34.8508 5.35143 34.8051C5.46588 34.7593 5.46588 34.6221 5.3705 34.6221C5.17975 34.5307 4.98899 34.5306 4.79824 34.4849C4.70286 34.4392 4.62656 34.3477 4.55025 34.1648C4.49303 34.0275 4.47395 33.8903 4.53118 33.7989C4.55025 33.7531 4.5884 33.7074 4.60748 33.7074C4.76008 33.7989 4.91269 33.8903 5.06529 33.9361C5.25605 33.9818 5.4468 33.9361 5.63756 33.8903C5.88554 33.8446 6.13352 33.5702 6.38151 33.5702C6.61041 33.5702 6.82024 33.5245 7.04915 33.4787C7.14453 33.433 7.22083 33.2958 7.25898 33.0671C7.27806 33.0671 7.31621 33.0214 7.33528 33.0214C7.35436 33.0214 7.35436 32.9299 7.35436 32.8841C7.29713 32.8841 7.27806 32.9299 7.27806 33.1128C7.18268 33.1128 7.0873 33.0671 6.99192 33.0671C6.80117 33.0214 6.78209 32.9299 6.82024 32.4725C6.8584 32.0609 6.8584 32.0152 6.80117 31.8322C6.62949 31.3748 6.45781 30.9175 6.28613 30.4601C6.24798 30.3229 6.20983 30.1857 6.2289 30.0485C6.26705 29.9113 6.32428 29.8655 6.40058 29.8655C6.49596 29.8198 6.59134 29.8198 6.68672 29.7741C6.76302 29.7283 6.83932 29.4539 6.83932 29.271C6.8584 28.9051 6.8584 28.4935 6.80117 28.1276C6.72487 27.7159 6.62949 27.3043 6.55319 26.8927C6.49596 26.6183 6.49596 26.2981 6.51504 25.978C6.51504 25.8865 6.53411 25.8408 6.55319 25.7493C6.62949 25.3834 6.62949 25.0175 6.53411 24.6516C6.45781 24.3772 6.45781 24.057 6.49596 23.7826C6.53411 23.5539 6.59134 23.371 6.57226 23.1423C6.51504 22.7307 6.61041 22.4105 6.70579 22.0904C6.76302 21.9074 6.76302 21.6788 6.70579 21.4501C6.68672 21.4043 6.68672 21.3129 6.66764 21.2214C6.59134 20.4439 6.59134 19.7121 6.82024 19.0261C6.8584 18.8888 6.91562 18.7974 6.9347 18.6602C7.03008 18.0656 7.04915 17.471 6.89655 16.9222C6.82024 16.6478 6.72487 16.4648 6.57226 16.4648C6.51504 16.4648 6.43873 16.4648 6.38151 16.4648C6.34336 16.4648 6.32428 16.4648 6.28613 16.4191C6.24798 16.3733 6.20983 16.3733 6.20983 16.3276C6.19075 16.2361 6.2289 16.1447 6.3052 16.0989C6.36243 16.0532 6.43873 16.0989 6.49596 16.0532C6.70579 16.0075 6.78209 15.7788 6.64856 15.3214C6.49596 14.8183 6.51504 14.7726 6.74394 14.5896C6.83932 14.5439 6.91562 14.4524 7.011 14.3152C7.0873 14.178 7.14453 13.9493 7.0873 13.7206C7.011 13.3548 6.97285 12.9889 6.99192 12.623C7.03008 12.1656 6.99192 11.7082 6.95377 11.2509C6.89655 10.6563 6.89655 10.6563 7.011 10.1989C7.03008 10.1532 7.04915 10.0617 7.06823 10.016C7.10638 9.87879 7.10638 9.74158 7.0873 9.60438C6.97285 8.96407 6.8584 8.3695 6.74394 7.72919C6.70579 7.45477 6.68672 7.40903 6.87747 7.27183C7.04915 7.13462 7.1636 6.95167 7.20176 6.49431C7.20176 6.40284 7.22083 6.3571 7.22083 6.26563C7.27806 6.08268 7.33528 5.89974 7.43066 5.854C7.52604 5.80826 7.62142 5.80826 7.7168 5.76253C7.7931 5.71679 7.83125 5.62532 7.81217 5.53385C7.7931 5.48811 7.75495 5.44237 7.73587 5.39664C7.67865 5.3509 7.60234 5.3509 7.54512 5.30516C7.44974 5.25943 7.39251 4.98501 7.41159 4.75633C7.43066 4.61912 7.46881 4.43618 7.44974 4.29897C7.41159 4.07029 7.31621 3.97881 7.25898 3.8416C7.20176 3.70439 7.20176 3.56719 7.20176 3.42998C7.23991 3.01835 7.37344 2.78967 7.52604 2.6982C7.77402 2.56099 8.04108 2.51525 8.28906 2.37804C8.47982 2.28657 8.6515 2.14936 8.86133 2.14936C9.10931 2.14936 9.37637 2.05789 9.60528 1.78347C9.71973 1.64626 9.85326 1.64626 9.98679 1.64626C10.1775 1.60053 10.3683 1.60053 10.5591 1.46332C10.7689 1.28037 10.9978 1.23464 11.2267 1.1889C11.6082 1.09743 11.9897 1.09743 12.3712 0.823009C12.4857 0.731536 12.6192 0.731536 12.7527 0.731536C13.1724 0.6858 13.5921 0.6858 13.9927 0.411382C14.0499 0.365646 14.1262 0.411382 14.1834 0.457119C14.2788 0.502855 14.3742 0.502855 14.4695 0.411382C14.6794 0.228437 14.9083 0.182701 15.1372 0.182701C15.6522 0.136965 16.1673 0.136965 16.6823 0.136965C17.2355 0.136965 17.7696 0.0912284 18.3228 0.0912284C19.0668 0.0912284 19.7916 0.0912284 20.5356 0.0454921C21.0125 -0.000244144 21.4894 0.0454921 21.9853 -0.000244141C22.157 -0.000244141 22.3096 0.0912284 22.4431 0.274174C22.5004 0.365646 22.5576 0.31991 22.6339 0.274174C22.7483 0.136965 22.8819 0.0912284 23.0154 0.0912284C23.5686 0.0912284 24.1027 0.0912284 24.6559 0.0912284C24.694 0.0912284 24.7322 0.0912284 24.7513 0.0912284C24.923 0.274174 25.1137 0.274174 25.3045 0.228437C25.5906 0.548591 25.8577 0.457119 26.1438 0.182701C26.2964 0.0454921 26.449 -0.000244141 26.6207 -0.000244141C26.8496 0.0454921 27.0785 -0.000244154 27.2883 0.182701C27.3456 0.228437 27.4219 0.182701 27.4791 0.136965C27.6508 -0.000244141 27.7652 0.136965 27.8797 0.502855C27.9941 0.868745 28.1276 0.914482 28.2993 0.6858C28.471 0.457119 28.6427 0.365646 28.8525 0.365646C29.1387 0.365646 29.4248 0.31991 29.7109 0.365646C29.8635 0.411382 30.0352 0.365646 30.1878 0.274174C30.3404 0.136965 30.493 0.228437 30.6647 0.274174C31.1225 0.411382 32.0191 0.457119 32.5913 0.411382C32.8202 0.365646 33.0301 0.365646 33.259 0.365646C33.3544 0.365646 33.4497 0.411382 33.526 0.548591C33.6786 0.731536 33.8312 0.777273 33.9838 0.594328C34.0602 0.502855 34.1555 0.411382 34.2509 0.411382C34.4989 0.457119 34.7659 0.411382 35.0139 0.640064C35.281 0.868745 35.5862 0.823009 35.8723 0.823009C35.9296 0.823009 36.0059 0.777273 36.0631 0.731536C36.2157 0.594328 36.3683 0.502855 36.5209 0.502855C36.7689 0.502855 37.0359 0.457119 37.2839 0.411382C37.4747 0.411382 37.6654 0.457119 37.8562 0.640064C37.9516 0.731537 38.0469 0.777273 38.1423 0.777273C38.4666 0.777273 38.7909 0.823009 39.0961 0.548591C39.2106 0.457119 39.3441 0.411382 39.4776 0.411382C39.6684 0.411382 39.8591 0.457119 40.0499 0.640064C40.1643 0.777273 40.2788 0.868745 40.4123 1.00595C40.4695 1.05169 40.5268 1.05169 40.6031 1.00595C40.9083 0.777273 41.2326 0.823009 41.5568 0.823009C41.6522 0.823009 41.6713 0.960218 41.6522 1.14316C41.6331 1.32611 41.6331 1.46332 41.6904 1.55479C41.7476 1.64626 41.8048 1.692 41.8811 1.64626C41.9765 1.60053 42.0719 1.55479 42.1673 1.50905C42.2245 1.46332 42.2817 1.46332 42.358 1.50905C42.4534 1.60053 42.5488 1.60053 42.6442 1.64626C42.7777 1.692 42.9112 1.692 43.0257 1.55479C43.3881 1.14316 43.7696 1.1889 44.1511 1.14316C44.2465 1.14316 44.3419 1.23464 44.4182 1.37184C44.5517 1.60053 44.628 1.92068 44.7234 2.24083C44.7615 2.37804 44.8378 2.42378 44.8951 2.42378C44.9523 2.42378 45.0286 2.46952 45.0858 2.42378C45.2957 2.1951 45.5436 2.46952 45.7344 2.1951C45.9252 2.10362 46.1159 1.96642 46.2876 1.82921C46.383 1.73773 46.4783 1.78347 46.5737 1.87494C46.6309 1.92068 46.6882 2.01215 46.7645 2.01215C47.2795 2.05789 47.7946 2.14936 48.3096 2.01215C48.405 1.96642 48.4813 1.82921 48.5385 1.64626L48.5194 1.692C48.6148 1.73773 48.7102 1.692 48.8056 1.78347C48.9391 1.92068 49.0345 1.96642 49.1489 1.73773C49.1871 1.64626 49.2443 1.55479 49.3015 1.46332C49.3587 1.37184 49.416 1.32611 49.4732 1.28037C49.7593 1.1889 50.0455 1.14316 50.3316 1.09743C50.5605 1.09743 50.7703 1.14316 50.9993 1.23464C51.1328 1.28037 51.1137 1.55479 51.1137 1.73773C51.1137 1.78347 51.1328 1.87494 51.1519 1.92068C51.2472 2.05789 51.7432 2.37804 51.8767 2.42378C52.0293 2.46952 52.201 2.46952 52.3536 2.51525C52.4871 2.51525 52.6016 2.60672 52.7161 2.78967C52.8305 2.92688 52.945 3.06409 53.0594 3.15556C53.1166 3.2013 53.1929 3.24703 53.2502 3.24703C53.5363 3.15556 53.8224 3.47571 54.1086 3.38424C54.2612 3.3385 54.4329 3.38424 54.5855 3.42998C54.9288 3.52145 55.2913 3.52145 55.6346 3.47571C55.8635 3.42998 56.0733 3.56719 56.2832 3.75013C56.4358 3.88734 56.5884 3.8416 56.7601 3.79587C56.8173 3.75013 56.8936 3.75013 56.9508 3.65866C57.1034 3.52145 57.256 3.47571 57.4277 3.42998C57.6566 3.42998 57.8665 3.38424 58.0954 3.38424C58.267 3.38424 58.4196 3.47571 58.5532 3.65866C58.6867 3.79587 58.8012 3.79587 58.9156 3.61292C59.0873 3.38424 59.2399 3.15556 59.3353 2.6982C59.4306 2.24083 59.6214 2.10363 59.8122 2.05789C60.0029 2.01215 60.1937 2.05789 60.3844 2.05789C60.4798 2.05789 60.5752 2.05789 60.6706 2.14936C61.1093 2.46952 61.548 2.46952 62.0059 2.51525C62.2348 2.51525 62.4446 2.56099 62.6735 2.78967C62.7689 2.88114 62.8643 2.88114 62.9596 2.88114C63.6082 2.88114 64.2377 2.92688 64.8863 2.92688C65.1152 2.92688 65.325 3.01835 65.5348 3.2013C65.6493 3.3385 65.7828 3.3385 65.9163 3.38424C66.0499 3.38424 66.1643 3.38424 66.2979 3.38424C66.584 3.38424 66.8701 3.38424 67.1562 3.42998C67.2898 3.42998 67.4042 3.47571 67.5378 3.56719C67.7285 3.7044 67.9193 3.75013 68.11 3.75013C68.4915 3.75013 68.8731 3.79587 69.2546 3.79587C69.4835 3.79587 69.6933 3.8416 69.9222 4.07029C70.0748 4.20749 70.2274 4.20749 70.3991 4.20749C70.9141 4.25323 71.4292 4.25323 71.9442 4.29897C72.0778 4.29897 72.2113 4.29897 72.3257 4.39044C72.6119 4.61912 72.898 4.66486 73.1841 4.66486C73.5275 4.66486 73.8899 4.66486 74.2333 4.71059C74.3668 4.71059 74.5003 4.71059 74.6148 4.80207C74.8628 4.98501 75.1108 5.03075 75.3778 5.03075C75.6067 5.03075 75.8166 5.07648 76.0455 5.07648C76.1408 5.07648 76.2362 5.07648 76.3316 5.16796C76.675 5.53385 77.0183 5.44237 77.3808 5.48811C77.5143 5.48811 77.6287 5.48811 77.7623 5.48811C77.9339 5.48811 78.0865 5.57958 78.2201 5.76253C78.3727 5.94547 78.5253 6.03695 78.6779 5.99121C79.2311 5.854 79.7652 5.94547 80.2993 5.99121C80.4328 5.99121 80.5473 6.03695 80.6808 6.17415C80.8334 6.31136 80.986 6.3571 81.1577 6.3571C81.4057 6.3571 81.6728 6.40284 81.9207 6.40284C82.1687 6.44857 82.4358 6.44857 82.6838 6.63152C82.7982 6.72299 82.9317 6.72299 83.0653 6.76873C83.2942 6.81446 83.504 6.81446 83.7329 6.8602C83.8283 6.8602 83.9237 6.8602 84.0191 6.95167C84.3243 7.27183 84.6485 7.27183 84.9538 7.27183C85.278 7.27183 85.5833 7.40903 85.9075 7.59198C86.289 7.77492 86.6706 7.72919 87.0521 7.82066C87.0711 7.82066 87.1093 7.8664 87.1093 7.91213C87.1093 8.00361 87.0902 8.09508 87.0711 8.14082C87.0139 8.23229 86.9567 8.27802 86.9185 8.3695C86.8613 8.46097 86.8232 8.59818 86.785 8.68965C86.7659 8.73539 86.7469 8.82686 86.7659 8.8726C86.785 8.91833 86.8232 9.0098 86.8422 9.0098C86.9948 9.05554 87.1665 9.05554 87.3191 9.14701C87.6625 9.28422 87.7006 9.28422 87.9295 8.96407C87.9486 8.91833 87.9677 8.8726 87.9868 8.78112C88.0058 8.73539 88.0058 8.64391 88.0249 8.55244L88.0058 8.59818C88.1012 8.64391 88.1584 8.82686 88.1775 9.05554C88.044 8.91833 88.044 9.05554 88.0631 9.19275ZM9.5099 7.04314C9.56713 7.04314 9.62435 7.04314 9.68158 7.04314C9.70065 7.04314 9.73881 6.99741 9.75788 6.95167C9.77696 6.90593 9.77696 6.8602 9.77696 6.81446C9.73881 6.72299 9.68158 6.67725 9.62435 6.76873C9.56713 6.76873 9.52898 6.90593 9.5099 7.04314C9.49082 7.08888 9.47175 7.08888 9.4336 7.13462C9.41452 7.13462 9.41452 7.22609 9.41452 7.27183C9.47175 7.31756 9.5099 7.22609 9.5099 7.04314ZM8.55612 6.12842C8.89948 6.17415 9.26192 6.12842 9.5862 5.80826C9.64343 5.76253 9.70065 5.71679 9.77696 5.71679C10.0631 5.62532 10.3492 5.57958 10.6354 5.71679C10.6735 5.71679 10.7117 5.76253 10.7307 5.80826C10.7498 5.89974 10.7307 6.03695 10.6735 6.12842C10.6163 6.21989 10.5972 6.3571 10.6354 6.44857C10.6544 6.49431 10.6926 6.54004 10.7117 6.54004C10.9024 6.58578 11.0932 6.54004 11.2649 6.26563C11.4175 5.99121 11.5701 5.67105 11.7417 5.53385C11.7799 5.48811 11.799 5.44237 11.818 5.39664C11.8943 5.25943 11.9325 5.03075 11.9897 4.8478C12.0279 4.71059 11.9325 4.3447 11.8753 4.29897C11.6464 4.20749 11.4365 4.25323 11.2076 4.39044C11.055 4.48191 10.9024 4.66486 10.7498 4.66486C10.5591 4.71059 10.3683 4.71059 10.1775 4.80207C9.98679 4.89354 9.81511 5.07648 9.62435 5.16796C9.30007 5.25943 9.01394 5.57958 8.70873 5.80826C8.61335 5.854 8.5752 5.99121 8.55612 6.12842C8.38444 6.12842 8.19369 6.12842 8.00293 6.21989C7.96478 6.21989 7.9457 6.31136 7.92663 6.3571C7.9457 6.40284 7.96478 6.44857 7.98385 6.49431C8.09831 6.58578 8.23184 6.63152 8.36537 6.54004C8.44167 6.44857 8.51797 6.3571 8.55612 6.12842ZM46.6309 76.2421C46.7454 76.1049 46.8599 75.9677 46.9743 75.8305C47.0315 75.7848 47.1078 75.7848 47.1651 75.739C47.2032 75.739 47.2223 75.739 47.2604 75.7848C47.3367 75.8305 47.3558 75.9677 47.3367 76.1507C47.3177 76.4251 47.3749 76.5623 47.4893 76.5623C47.6801 76.5623 47.8709 76.5623 48.0616 76.5623C48.157 76.5623 48.2524 76.5166 48.3287 76.3794C48.5385 76.0592 48.7483 76.1507 48.9772 76.2421C49.3206 76.608 49.664 76.5623 50.0073 76.4251C50.0455 76.4251 50.0645 76.3794 50.1027 76.3794C50.1599 76.3336 50.2172 76.3793 50.2935 76.4251C50.3888 76.5166 50.4842 76.5623 50.5796 76.5623C50.7131 76.608 50.8085 76.791 50.8848 77.0654C50.942 77.2941 51.0183 77.3856 51.1137 77.3856C51.1519 77.3856 51.1709 77.3856 51.2091 77.3856C51.438 77.3856 51.6669 77.3856 51.8767 77.3856C52.1629 77.3398 52.4299 76.9739 52.7161 76.9739C52.7733 76.9739 52.8305 76.8825 52.8877 76.8367C52.9259 76.791 52.945 76.7452 52.964 76.7452C53.0403 76.6538 53.1357 76.5166 53.2311 76.5166C53.5554 76.5166 53.8797 76.5166 54.1849 76.5623C54.2802 76.5623 54.3756 76.6538 54.4329 76.8367C54.5473 77.1569 54.6808 77.2941 54.8525 77.3398C55.4248 77.477 55.997 77.3856 56.5884 77.3398C56.6838 77.3398 56.7601 77.2026 56.8173 76.9739C56.8555 76.791 56.9318 76.608 57.0081 76.4708C57.0844 76.3793 57.0844 76.2421 57.0653 76.1507C57.0462 76.1049 57.0081 76.0592 56.989 76.0592C56.7601 75.9677 56.5502 75.9677 56.3213 75.7848C56.2641 75.739 56.1878 75.739 56.1306 75.7848C55.9971 75.8763 55.8826 75.8763 55.7491 75.739C55.5392 75.5561 55.3294 75.3732 55.1196 75.2359C55.0051 75.1445 54.8716 75.1902 54.7571 75.3274C54.6236 75.5104 54.471 75.6476 54.2993 75.6476C54.1467 75.6476 53.975 75.6476 53.8224 75.6476C53.6508 75.6476 53.4981 75.5561 53.3646 75.3274C53.2502 75.1445 53.1357 75.0987 53.0022 75.0987C52.5253 75.0987 52.0484 75.0073 51.5715 75.2359C51.3426 75.2359 51.1137 75.1902 50.9039 75.2359C50.0073 75.2817 49.1108 75.2359 48.2142 75.2359C47.6038 75.2359 46.9934 75.2359 46.383 75.2817C46.3448 75.2817 46.3257 75.2817 46.2876 75.3274C46.2494 75.3274 46.2304 75.3732 46.1922 75.4189C46.0968 75.4646 46.0587 75.739 46.1159 75.9677C46.2494 76.6538 46.4593 76.7452 46.6309 76.2421ZM74.5766 8.00361C74.8246 7.68345 75.1108 7.45477 75.3778 7.27183C75.4351 7.22609 75.4923 7.27182 75.5686 7.31756C75.664 7.3633 75.7593 7.40903 75.8547 7.45477C76.0073 7.45477 76.179 7.45477 76.3316 7.45477C76.4651 7.45477 76.5796 7.50051 76.694 7.68345C76.8466 7.8664 76.9992 7.91213 77.1518 7.8664C77.3426 7.82066 77.5143 7.63772 77.7241 7.72919C77.7813 7.77493 77.8386 7.68345 77.8958 7.59198C78.0484 7.40903 78.201 7.40903 78.3536 7.59198C78.4299 7.68345 78.5253 7.77492 78.6207 7.8664C78.716 7.95787 78.7923 7.91213 78.8877 7.72919C78.9831 7.50051 78.964 7.27183 78.8686 7.18035C78.4871 6.81446 78.0865 6.54004 77.6478 6.63152C77.5906 6.63152 77.5143 6.63152 77.4571 6.63152C77.2281 6.63152 77.0183 6.54004 76.8085 6.31136C76.7322 6.21989 76.6177 6.17415 76.5224 6.17415C76.3888 6.12842 76.2744 6.12842 76.1408 6.17415C75.4732 6.31136 74.7865 6.17415 74.1188 6.17415C74.0235 6.17415 73.9281 6.08268 73.8327 5.99121C73.7182 5.89974 73.5847 5.80826 73.4893 5.62532C73.2986 5.30517 73.0697 5.25943 72.8598 5.07648C72.8026 5.03075 72.7263 4.98501 72.6691 5.07648C72.5165 5.25943 72.3639 5.3509 72.2113 5.3509C71.9251 5.3509 71.639 5.3509 71.3529 5.57958C71.2956 5.62532 71.2193 5.57958 71.1621 5.53385C71.0667 5.48811 70.9714 5.3509 70.8951 5.3509C70.7043 5.30516 70.5326 5.03075 70.38 4.75633C70.2846 4.52765 70.1511 4.48191 70.0176 4.48191C69.7315 4.48191 69.4453 4.48191 69.1592 4.48191C68.9112 4.48191 68.6441 4.52765 68.4152 4.80207C68.358 4.8478 68.2817 4.8478 68.2245 4.8478C68.1291 4.8478 68.0147 4.8478 67.9384 4.75633C67.7094 4.48191 67.4424 4.48191 67.2135 4.20749C67.099 4.07029 66.9655 4.02455 66.832 4.02455C66.6412 4.02455 66.4505 4.02455 66.2597 4.02455C66.0308 4.02455 65.821 3.88734 65.6111 3.70439C65.5158 3.61292 65.4013 3.7044 65.3441 3.88734C65.2678 4.11602 65.1724 4.3447 65.077 4.52765C64.9816 4.66486 65.0007 4.8478 65.0961 5.07648C65.1724 5.25943 65.2105 5.25943 65.3632 5.16796C65.4585 5.07648 65.5539 5.07648 65.6493 5.16796C65.8019 5.30517 65.9354 5.44237 66.088 5.62532C66.1452 5.67106 66.2215 5.67106 66.2788 5.57958C66.4886 5.3509 66.7175 5.30516 66.9464 5.30516C67.3279 5.3509 67.7094 5.30517 68.091 5.62532C68.1482 5.57958 68.2245 5.57958 68.2626 5.53385C68.358 5.44237 68.4534 5.44237 68.5297 5.53385C68.5869 5.62532 68.6441 5.71679 68.6823 5.80826C68.8349 6.12842 69.0066 6.31136 69.2164 6.26563C69.6933 6.17415 70.1702 6.3571 70.6471 6.21989C70.7043 6.21989 70.7806 6.26563 70.8378 6.26563C70.9714 6.31136 71.0477 6.54004 71.0858 6.90593C71.1049 7.22609 70.9904 7.54624 70.876 7.45477C70.6662 7.27183 70.4372 7.22609 70.2083 7.22609C69.7315 7.27183 69.2546 7.27183 68.7777 6.95167C68.7205 6.90593 68.6632 6.95167 68.5869 6.99741C68.5297 7.04314 68.4725 7.08888 68.3962 7.08888C67.9193 7.13462 67.4424 7.13462 66.9464 7.13462C66.8892 7.13462 66.8129 7.08888 66.7557 7.04314C66.6031 6.8602 66.4505 6.81446 66.2979 6.81446C65.9163 6.81446 65.5348 6.81446 65.1342 6.81446C64.9435 6.81446 64.7527 6.76873 64.562 6.58578C64.314 6.3571 64.066 6.26563 63.799 6.31136C63.6082 6.31136 63.4174 6.31136 63.2267 6.31136C63.055 6.31136 62.9024 6.21989 62.7689 6.03695C62.6544 5.89974 62.5209 5.89974 62.3874 5.99121C62.2729 6.08268 62.1585 6.21989 62.044 6.3571C61.9868 6.44857 61.9486 6.58578 61.9677 6.67725C61.9868 6.72299 62.0249 6.76873 62.044 6.76873C62.3874 6.81446 62.7498 6.81446 63.0932 6.8602C63.2267 6.8602 63.3411 6.90594 63.4747 6.99741C63.6654 7.13462 63.8562 7.18035 64.0469 7.18035C64.4285 7.18035 64.81 7.18035 65.1915 7.22609C65.325 7.22609 65.4585 7.27183 65.573 7.3633C65.7828 7.54624 66.0117 7.59198 66.2406 7.59198C66.7557 7.54624 67.2707 7.68345 67.7858 7.68345C67.9193 7.68345 68.0337 7.72919 68.1673 7.82066C68.4152 8.00361 68.6632 8.09508 68.9303 8.09508C69.3118 8.04934 69.6933 8.09508 70.0748 8.3695C70.1893 8.46097 70.3228 8.41523 70.4563 8.46097C70.9141 8.50671 71.3529 8.55244 71.8107 8.59818C71.9442 8.59818 72.0587 8.64391 72.1922 8.73539C72.4402 8.91833 72.6882 8.96407 72.9552 8.96407C73.413 8.96407 73.8518 9.0098 74.3096 9.0098C74.4622 9.0098 74.6339 9.10128 74.7865 9.23849C74.9009 9.3757 75.0345 9.37569 75.168 9.37569C75.4541 9.37569 75.7403 9.42143 76.0264 9.42143C76.1599 9.42143 76.2934 9.42143 76.4079 9.55864C76.6559 9.78732 76.9039 9.83306 77.1709 9.83306C77.5143 9.83306 77.8767 9.83306 78.2201 9.87879C78.3155 9.87879 78.4108 9.87879 78.5062 9.97027C78.7542 10.1989 79.0022 10.2447 79.2692 10.2447C79.9369 10.2904 80.6236 10.2904 81.2912 10.1989C81.3485 10.1989 81.4248 10.1532 81.482 10.1532C81.5202 10.1532 81.5392 10.1075 81.5583 10.0617C81.5965 9.97027 81.5583 9.87879 81.4629 9.83306C81.1768 9.69585 80.8907 9.78732 80.6236 9.46717C80.5091 9.32996 80.3756 9.37569 80.2421 9.37569C79.956 9.37569 79.6698 9.37569 79.3837 9.37569C79.2311 9.37569 79.0594 9.32996 78.9068 9.19275C78.6588 8.91833 78.4108 8.8726 78.1629 8.8726C77.8767 8.8726 77.5906 8.8726 77.3045 8.8726C77.0755 8.8726 76.8657 8.78112 76.6368 8.59818C76.5224 8.50671 76.3888 8.46097 76.2553 8.46097C76.0645 8.46097 75.8738 8.46097 75.683 8.46097C75.3969 8.50671 75.1108 8.46097 74.8246 8.41523C74.7293 8.41523 74.6529 8.23229 74.6148 8.00361H74.5766ZM43.617 74.9158C43.102 74.9615 42.7205 74.9615 42.3389 74.9615C42.3008 74.9615 42.2817 74.9615 42.2436 74.9615C42.1863 75.0073 42.11 75.0073 42.0528 75.0987C41.8811 75.3274 41.6904 75.3274 41.4996 75.3732C41.4424 75.3732 41.3852 75.4646 41.3279 75.5104C41.2516 75.5561 41.1372 75.9677 41.1753 76.0592C41.2135 76.1964 41.2898 76.1964 41.347 76.2421C41.4996 76.2879 41.6713 76.2879 41.8239 76.1049C41.8621 76.0592 41.8811 76.0135 41.9002 76.0135C42.0528 75.8763 42.11 75.9677 42.11 76.3794C42.11 76.5623 42.1291 76.6538 42.2245 76.6995C42.4152 76.791 42.606 76.6538 42.7968 76.6538C43.0257 76.6538 43.2355 76.6995 43.4644 76.6995C43.5216 76.6995 43.5789 76.608 43.6361 76.5166C43.7315 76.4251 43.7696 76.1964 43.8459 76.0592C43.9222 75.8763 44.0176 75.8305 44.113 75.8763C44.1702 75.8763 44.2465 75.922 44.3037 75.9677C44.6852 76.3336 45.0477 76.3336 45.4101 75.8763C45.4864 75.7848 45.6009 75.7848 45.6962 75.739C45.7725 75.6933 45.8107 75.6018 45.7725 75.5104C45.7535 75.4646 45.7153 75.4189 45.6962 75.4189C45.4673 75.3732 45.2575 75.3274 45.0477 75.0987C44.9332 74.9615 44.7997 74.9158 44.6662 74.9615C44.2465 74.9158 43.865 74.9615 43.617 74.9158ZM77.8958 27.3043C77.8004 27.3501 77.686 27.3501 77.5524 27.4415C77.5143 27.4415 77.4952 27.533 77.4761 27.533C77.3998 27.6245 77.3808 27.7159 77.3808 27.8989C77.3998 28.0361 77.438 28.219 77.4952 28.219C77.7432 28.3105 77.9912 28.5392 78.2201 28.8594C78.2392 28.9051 78.2773 28.9508 78.2964 28.9508C78.449 29.088 78.6016 29.1795 78.7733 28.9966C78.9831 28.8136 79.1929 28.6307 79.4218 28.6307C79.7461 28.6307 80.0704 28.6764 80.3756 28.9051C80.7762 29.2252 81.1959 29.2252 81.6155 29.0423C81.7109 28.9966 81.7872 28.8594 81.8444 28.6764C81.8826 28.5392 81.9017 28.402 81.8635 28.2648C81.8254 28.1276 81.7872 28.0361 81.7109 27.9904C81.6728 27.9904 81.6537 27.9446 81.6155 27.9446C81.234 28.219 80.8525 28.219 80.4901 27.8989C80.3375 27.7617 80.1658 27.8074 80.0132 27.6702C79.8224 27.4873 79.6507 27.533 79.46 27.7159C79.3074 27.8532 79.1357 27.8532 78.9831 27.7617C78.8496 27.6702 78.7351 27.5787 78.6207 27.4873C78.3918 27.3501 78.1629 27.3043 77.8958 27.3043ZM69.4835 11.5253C69.6742 11.2966 69.8268 10.9307 70.0367 10.702C70.0557 10.6563 70.0939 10.6106 70.0939 10.5191C70.113 10.4734 70.113 10.3819 70.0939 10.2904C70.0557 10.0617 69.9604 9.97027 69.865 9.97027C69.7124 9.97027 69.5598 10.1532 69.4262 10.2904C69.2546 10.5191 69.1973 10.9307 69.3881 11.3424C69.4262 11.4796 69.4453 11.4796 69.4835 11.5253ZM80.8716 14.8183C80.8716 14.6354 80.8334 14.5439 80.7571 14.4982C80.471 14.361 80.2039 14.4524 79.9178 14.4067C79.708 14.3609 79.4791 14.4067 79.2692 14.4524C79.1929 14.4524 79.1548 14.5896 79.1739 14.6354C79.1929 14.6811 79.2311 14.7268 79.2502 14.7268C79.4981 14.7726 79.7461 14.8183 79.9941 14.7726C80.223 14.7268 80.4328 14.864 80.6427 15.047C80.6618 15.0927 80.6999 15.047 80.7381 15.047C80.8144 15.0927 80.8525 14.9555 80.8716 14.8183ZM70.5135 13.1261C70.628 13.1261 70.7806 13.1261 70.9332 13.1261C70.9523 13.1261 71.0095 13.0803 71.0095 13.0346C71.0286 12.8974 70.9904 12.7602 70.9332 12.7144C70.7997 12.5315 70.6471 12.3943 70.4945 12.5315C70.3228 12.7144 70.113 12.623 69.9604 12.8517C69.9413 12.8974 69.9413 12.9431 69.9222 12.9889C69.9413 13.0346 69.9794 13.0803 69.9985 13.0803C70.1511 13.0803 70.3228 13.0803 70.5135 13.1261ZM9.77696 72.7662C9.77696 72.6747 9.75788 72.629 9.75788 72.5375C9.71973 72.3546 9.68158 72.1259 9.62435 71.9429C9.5862 71.8057 9.5099 71.76 9.45267 71.8515C9.39545 71.8972 9.3573 72.0344 9.33822 72.1716C9.31914 72.4003 9.31914 72.629 9.37637 72.8119C9.45267 73.0406 9.56713 73.0863 9.71973 72.9034C9.73881 72.8577 9.75788 72.8119 9.77696 72.7662ZM82.5502 12.0741C82.493 12.0741 82.4167 12.0741 82.3595 12.1199C82.3213 12.1199 82.3023 12.1656 82.2832 12.2113C82.2641 12.2571 82.245 12.3028 82.245 12.3486C82.2641 12.3943 82.3023 12.4858 82.3213 12.4858C82.5312 12.5315 82.741 12.6687 82.9699 12.7144C82.989 12.7144 83.0271 12.623 83.0271 12.5772C83.0271 12.5315 83.0271 12.3943 83.008 12.3486C82.8745 12.0284 82.7028 12.1199 82.5502 12.0741ZM9.03301 20.9012C8.97578 20.9012 8.89948 20.9927 8.88041 21.1299C8.88041 21.1757 8.89948 21.2671 8.91856 21.3586C8.99486 21.633 9.10931 21.7702 9.24284 21.7702C9.31914 21.7702 9.37637 21.7245 9.41452 21.633C9.45267 21.5415 9.4336 21.4043 9.37637 21.2671C9.28099 20.9927 9.16654 20.9012 9.03301 20.9012ZM91.6493 53.9686C91.5348 53.9686 91.4013 54.0143 91.2868 54.0143C91.2678 54.0143 91.2296 54.06 91.2105 54.1058C91.1915 54.1515 91.2296 54.2887 91.3059 54.2887C91.5157 54.3345 91.7256 54.3345 91.9545 54.3345C91.9736 54.3345 92.0117 54.2887 92.0308 54.243C92.0499 54.1973 92.0689 54.1515 92.088 54.1058C92.0689 54.06 92.0499 54.0143 92.0117 53.9686C91.8973 53.9228 91.7637 53.9228 91.6493 53.9686ZM14.9083 2.24083C14.9464 2.24083 15.0227 2.24083 15.08 2.1951C15.1753 2.1951 15.1944 2.10362 15.1753 1.92068C15.1563 1.78347 15.099 1.692 15.0418 1.64626C14.9464 1.60053 14.8701 1.73773 14.7748 1.82921C14.7175 1.87494 14.6603 1.96642 14.6412 2.10363C14.6794 2.1951 14.7366 2.24083 14.8129 2.24083C14.8129 2.28657 14.8511 2.28657 14.9083 2.24083ZM21.5275 3.61292C21.661 3.56719 21.7183 3.56719 21.7946 3.56719C21.8327 3.56719 21.8709 3.52145 21.8709 3.47571C21.8899 3.38424 21.8327 3.29277 21.7564 3.29277C21.5847 3.29277 21.394 3.15556 21.2223 3.3385C21.2032 3.3385 21.1841 3.42998 21.1841 3.47571C21.2032 3.52145 21.2223 3.61292 21.2604 3.61292C21.3749 3.61292 21.4894 3.61292 21.5275 3.61292ZM80.8716 12.0741C80.8144 12.0284 80.7571 11.9369 80.6999 11.8912C80.6808 11.8455 80.6427 11.8455 80.6236 11.8455C80.5664 11.8455 80.5091 11.9369 80.471 12.0741C80.4328 12.2571 80.4519 12.3486 80.5282 12.3943C80.6427 12.3943 80.7762 12.3943 80.8907 12.3943C80.9288 12.3943 80.967 12.3486 80.967 12.3486C80.986 12.2113 80.9479 12.1199 80.8716 12.0741ZM76.8276 14.0408C76.675 14.0408 76.6177 14.0408 76.5605 14.0408C76.5414 14.0408 76.5033 14.0865 76.4842 14.1323C76.4651 14.2237 76.5033 14.2695 76.5796 14.3152C76.7322 14.3152 76.8848 14.3152 77.0374 14.3152C77.0565 14.3152 77.0946 14.2695 77.1137 14.2237C77.1328 14.178 77.0946 14.0865 76.9992 14.0408C76.9229 14.0408 76.8276 14.0408 76.8276 14.0408ZM97.9824 40.4306C97.9061 40.4306 97.9633 40.4306 98.0205 40.4306C98.0968 40.4306 98.154 40.3849 98.1731 40.2477C98.1922 40.1562 98.135 40.019 98.0587 40.019C97.9061 40.019 97.7535 40.019 97.6009 40.0647C97.5246 40.0647 97.4673 40.202 97.4864 40.2477C97.5246 40.3849 97.5818 40.3849 97.6581 40.3849C97.7153 40.3849 97.7916 40.3849 97.9824 40.4306ZM37.1695 75.6018C37.1122 75.6476 37.0741 75.7848 37.0741 75.922C37.0741 76.0592 37.1122 76.1964 37.1885 76.2421C37.2458 76.2879 37.303 76.2879 37.3793 76.2421C37.4556 76.2421 37.4938 76.1507 37.4747 75.9677C37.4747 75.922 37.4556 75.8305 37.4365 75.7848C37.3602 75.6018 37.2839 75.5561 37.1695 75.6018ZM70.7425 27.3958C70.7997 27.3958 70.8569 27.3958 70.9141 27.3501C70.9904 27.3043 71.0286 27.2586 71.0095 27.1214C70.9904 27.0756 70.9714 26.9842 70.9523 26.9842C70.876 26.8927 70.7997 26.8012 70.7043 26.7097C70.6471 26.664 70.5899 26.7097 70.5326 26.8012C70.4945 26.8927 70.4563 27.0299 70.4754 27.1671C70.5326 27.2128 70.5899 27.2586 70.6471 27.3043C70.6852 27.3958 70.7234 27.3958 70.7425 27.3958ZM96.7615 40.3849C96.8188 40.3849 96.8951 40.3849 96.9523 40.3392C96.9904 40.3392 97.0095 40.2934 97.0286 40.2477C97.0095 40.1562 96.9523 40.1105 96.8951 40.1105C96.8378 40.1105 96.7615 40.1105 96.7043 40.1105C96.6471 40.1105 96.5708 40.1105 96.5326 40.202C96.4945 40.2934 96.6089 40.3849 96.7615 40.3849ZM1.63169 69.8848C1.74615 69.8848 1.87967 69.7476 1.84152 69.6561C1.80337 69.5189 1.74615 69.4732 1.68892 69.4732C1.63169 69.4732 1.57447 69.4732 1.51724 69.4732C1.46001 69.4732 1.38371 69.4732 1.34556 69.6104C1.32648 69.6561 1.38371 69.7933 1.46001 69.7933C1.49816 69.8848 1.55539 69.8848 1.63169 69.8848ZM8.11738 71.6685C8.21276 71.6685 8.30814 71.6685 8.38444 71.4856C8.30814 71.3026 8.21276 71.3026 8.11738 71.2569C8.07923 71.2569 8.06016 71.2569 8.02201 71.2569C7.9457 71.2569 7.88848 71.3026 7.85033 71.4398C7.88848 71.577 7.9457 71.6228 8.00293 71.6228C8.06016 71.6228 8.07923 71.6228 8.11738 71.6685ZM39.9927 75.3732C40.0308 75.5561 40.069 75.739 40.1071 75.922C40.1262 75.9677 40.1643 76.0135 40.1834 76.0135C40.2025 76.0135 40.2406 75.922 40.2406 75.8763C40.2788 75.6018 40.2597 75.2817 40.1643 75.0987C40.1071 75.0073 40.0499 75.053 39.9927 75.1445C39.9927 75.1902 40.0117 75.2817 39.9927 75.3732ZM57.237 5.89974C57.237 5.89974 57.2942 5.89974 57.3514 5.89974C57.3896 5.89974 57.4086 5.89974 57.4277 5.854C57.4468 5.80826 57.4849 5.76253 57.504 5.76253C57.4849 5.71679 57.4659 5.62532 57.4277 5.62532C57.3323 5.57958 57.256 5.57958 57.1607 5.57958C57.0271 5.57958 56.9318 5.71679 56.989 5.80826C57.0653 5.854 57.1034 5.89974 57.237 5.89974ZM79.5363 11.6168C79.4028 11.6625 79.3074 11.6625 79.212 11.7082C79.1929 11.7082 79.1548 11.754 79.1357 11.7997C79.1548 11.8455 79.1739 11.8912 79.1739 11.8912C79.2692 11.9369 79.3455 11.9827 79.4409 11.9827C79.5363 12.0284 79.6698 11.8455 79.6317 11.754C79.6126 11.6625 79.5554 11.6168 79.5363 11.6168ZM3.31034 41.4368C3.29127 41.3911 3.25311 41.3454 3.23404 41.3454C3.13866 41.2996 3.04328 41.2996 2.98606 41.4826C2.98606 41.4826 3.02421 41.6198 3.04328 41.6198C3.13866 41.7113 3.21496 41.7112 3.31034 41.574C3.31034 41.574 3.31034 41.4826 3.31034 41.4368ZM78.7923 11.571C78.7733 11.5253 78.7733 11.4338 78.7542 11.3881C78.697 11.2051 78.5253 11.2509 78.5253 11.3881C78.5253 11.5253 78.5634 11.6625 78.6016 11.754C78.6588 11.8455 78.716 11.8912 78.7542 11.754C78.7733 11.7082 78.7733 11.6625 78.7923 11.571ZM19.6009 3.38424C19.5818 3.3385 19.5627 3.24703 19.5436 3.24703C19.4483 3.2013 19.372 3.2013 19.2957 3.3385C19.2766 3.38424 19.2575 3.42998 19.2575 3.47571C19.2766 3.61292 19.391 3.70439 19.4864 3.61292C19.5627 3.56719 19.6009 3.52145 19.6009 3.38424ZM31.1607 1.41758C31.1225 1.28037 31.0653 1.23464 31.0081 1.28037C30.989 1.28037 30.9699 1.37184 30.9508 1.41758C30.9699 1.46332 30.989 1.50905 31.0081 1.55479C31.0653 1.60053 31.1225 1.55479 31.1607 1.41758ZM44.1511 2.05789C44.132 2.05789 44.113 2.10362 44.0748 2.14936C44.0939 2.1951 44.0939 2.24083 44.113 2.28657C44.1893 2.33231 44.2274 2.24083 44.2084 2.14936C44.2274 2.10362 44.1702 2.05789 44.1511 2.05789ZM76.0264 13.8121C76.0073 13.7664 76.0073 13.6749 75.9882 13.6749C75.9692 13.6749 75.931 13.6749 75.9119 13.6749C75.8547 13.7664 75.8738 13.8579 75.9692 13.8579C75.9692 13.8579 76.0073 13.8121 76.0264 13.8121ZM15.7858 21.5873C15.7858 21.5415 15.7858 21.4501 15.7667 21.4501C15.7476 21.4043 15.7095 21.4043 15.6713 21.4043C15.595 21.4958 15.595 21.5873 15.6904 21.633C15.7285 21.633 15.7667 21.5873 15.7858 21.5873ZM74.3477 27.6245C74.3287 27.5787 74.3096 27.533 74.2905 27.4873C74.2333 27.4415 74.1761 27.4873 74.1379 27.6245C74.1379 27.6245 74.1761 27.7159 74.1951 27.7617C74.2524 27.8074 74.3096 27.7617 74.3477 27.6245ZM2.69992 42.5802C2.719 42.5345 2.75715 42.5345 2.77623 42.4888C2.75715 42.443 2.73807 42.3973 2.69992 42.3516C2.62362 42.3058 2.58547 42.3973 2.60455 42.4888C2.62362 42.5345 2.66177 42.5345 2.69992 42.5802ZM65.9736 75.2817C65.9545 75.2359 65.9354 75.1902 65.9163 75.1445C65.8591 75.0987 65.8019 75.1445 65.7828 75.2817C65.7828 75.2817 65.821 75.3732 65.84 75.4189C65.8973 75.4646 65.9354 75.4189 65.9736 75.2817ZM80.0704 11.754L80.0323 11.8455H80.0895L80.0704 11.754Z" fill="#00659E"/>
<path d="M63.6953 35.4609C64.774 35.4609 65.6484 34.5865 65.6484 33.5078C65.6484 32.4291 64.774 31.5547 63.6953 31.5547C62.6166 31.5547 61.7422 32.4291 61.7422 33.5078C61.7422 34.5865 62.6166 35.4609 63.6953 35.4609Z" fill="white"/>
<path d="M68.1875 16.9062H65.6484V14.9531C65.6484 13.8744 64.774 13 63.6953 13C62.6166 13 61.7422 13.8744 61.7422 14.9531V16.9062H52.8555V14.9531C52.8555 13.8744 51.9811 13 50.9023 13C49.8236 13 48.9492 13.8744 48.9492 14.9531V16.9062H40.1602V14.9531C40.1602 13.8744 39.2857 13 38.207 13C37.1283 13 36.2539 13.8744 36.2539 14.9531V16.9062H33.8125C29.5047 16.9062 26 20.4109 26 24.7188V55.1875C26 59.4953 29.5047 63 33.8125 63H48.7539C49.8326 63 50.707 62.1256 50.707 61.0469C50.707 59.9682 49.8326 59.0938 48.7539 59.0938H33.8125C31.6586 59.0938 29.9062 57.3414 29.9062 55.1875V24.7188C29.9062 22.5648 31.6586 20.8125 33.8125 20.8125H36.2539V22.7656C36.2539 23.8443 37.1283 24.7188 38.207 24.7188C39.2857 24.7188 40.1602 23.8443 40.1602 22.7656V20.8125H48.9492V22.7656C48.9492 23.8443 49.8236 24.7188 50.9023 24.7188C51.9811 24.7188 52.8555 23.8443 52.8555 22.7656V20.8125H61.7422V22.7656C61.7422 23.8443 62.6166 24.7188 63.6953 24.7188C64.774 24.7188 65.6484 23.8443 65.6484 22.7656V20.8125H68.1875C70.3414 20.8125 72.0938 22.5648 72.0938 24.7188V35.8516C72.0938 36.9303 72.9682 37.8047 74.0469 37.8047C75.1256 37.8047 76 36.9303 76 35.8516V24.7188C76 20.4109 72.4953 16.9062 68.1875 16.9062Z" fill="white"/>
<path d="M64.1836 39.3672C57.668 39.3672 52.3672 44.668 52.3672 51.1836C52.3672 57.6992 57.668 63 64.1836 63C70.6992 63 76 57.6992 76 51.1836C76 44.668 70.6992 39.3672 64.1836 39.3672ZM64.1836 59.0938C59.822 59.0938 56.2734 55.5453 56.2734 51.1836C56.2734 46.8219 59.822 43.2734 64.1836 43.2734C68.5452 43.2734 72.0938 46.8219 72.0938 51.1836C72.0938 55.5453 68.5452 59.0938 64.1836 59.0938Z" fill="white"/>
<path d="M67.0156 49.2305H66.1367V47.1797C66.1367 46.101 65.2623 45.2266 64.1836 45.2266C63.1049 45.2266 62.2305 46.101 62.2305 47.1797V51.1836C62.2305 52.2623 63.1049 53.1367 64.1836 53.1367H67.0156C68.0943 53.1367 68.9688 52.2623 68.9688 51.1836C68.9688 50.1049 68.0943 49.2305 67.0156 49.2305Z" fill="white"/>
<path d="M55.1992 35.4609C56.2779 35.4609 57.1523 34.5865 57.1523 33.5078C57.1523 32.4291 56.2779 31.5547 55.1992 31.5547C54.1205 31.5547 53.2461 32.4291 53.2461 33.5078C53.2461 34.5865 54.1205 35.4609 55.1992 35.4609Z" fill="white"/>
<path d="M46.7031 43.957C47.7818 43.957 48.6562 43.0826 48.6562 42.0039C48.6562 40.9252 47.7818 40.0508 46.7031 40.0508C45.6244 40.0508 44.75 40.9252 44.75 42.0039C44.75 43.0826 45.6244 43.957 46.7031 43.957Z" fill="white"/>
<path d="M38.207 35.4609C39.2857 35.4609 40.1602 34.5865 40.1602 33.5078C40.1602 32.4291 39.2857 31.5547 38.207 31.5547C37.1284 31.5547 36.2539 32.4291 36.2539 33.5078C36.2539 34.5865 37.1284 35.4609 38.207 35.4609Z" fill="white"/>
<path d="M38.207 43.957C39.2857 43.957 40.1602 43.0826 40.1602 42.0039C40.1602 40.9252 39.2857 40.0508 38.207 40.0508C37.1284 40.0508 36.2539 40.9252 36.2539 42.0039C36.2539 43.0826 37.1284 43.957 38.207 43.957Z" fill="white"/>
<path d="M38.207 52.4531C39.2857 52.4531 40.1602 51.5787 40.1602 50.5C40.1602 49.4213 39.2857 48.5469 38.207 48.5469C37.1284 48.5469 36.2539 49.4213 36.2539 50.5C36.2539 51.5787 37.1284 52.4531 38.207 52.4531Z" fill="white"/>
<path d="M46.7031 52.4531C47.7818 52.4531 48.6562 51.5787 48.6562 50.5C48.6562 49.4213 47.7818 48.5469 46.7031 48.5469C45.6244 48.5469 44.75 49.4213 44.75 50.5C44.75 51.5787 45.6244 52.4531 46.7031 52.4531Z" fill="white"/>
<path d="M46.7031 35.4609C47.7818 35.4609 48.6562 34.5865 48.6562 33.5078C48.6562 32.4291 47.7818 31.5547 46.7031 31.5547C45.6244 31.5547 44.75 32.4291 44.75 33.5078C44.75 34.5865 45.6244 35.4609 46.7031 35.4609Z" fill="white"/>
</svg>
