<svg width="103" height="83" viewBox="0 0 103 83" fill="none" xmlns="http://www.w3.org/2000/svg">
<path d="M13.1931 72.6435C13.4265 72.3129 13.6794 72.1239 13.9129 71.9822C14.049 71.8878 14.1658 71.935 14.2825 72.0295C14.4381 72.1712 14.5937 72.1239 14.7494 71.935C14.8661 71.7461 14.9828 71.6516 15.119 71.6516C15.4108 71.6516 15.7026 71.6044 15.9944 71.6044C16.1306 71.6044 16.2473 71.6988 16.364 71.8405C16.4807 72.0295 16.6169 71.9822 16.7336 71.8405C16.8698 71.6516 16.9865 71.7461 17.0838 71.9822C17.1032 72.0295 17.1227 72.1239 17.1421 72.1712C17.2588 72.4546 17.4339 72.4546 17.5701 72.0767C17.6285 71.935 17.6285 71.7933 17.5896 71.6516C17.5506 71.5099 17.5117 71.3682 17.4534 71.321C17.2394 71.0848 17.006 71.0376 16.8114 70.7542C16.7531 70.707 16.6752 70.707 16.6169 70.6597C16.0527 70.6597 15.508 70.6597 14.9439 70.6597C14.7494 70.6597 14.5548 70.6125 14.3603 70.4236C14.1852 70.2819 13.9907 70.1402 13.7962 69.9985C13.6989 69.904 13.6016 69.9513 13.5044 69.9513C13.4071 69.9513 13.3098 69.904 13.2126 69.904C13.1153 69.9512 13.018 70.0457 12.9402 70.0929C12.804 70.1402 12.6679 70.0457 12.5706 69.8568C12.4344 69.6206 12.3177 69.3372 12.201 69.1011C12.1426 68.9594 12.0843 69.0066 12.0454 69.1483C11.9676 69.3845 11.8897 69.6679 11.7536 69.6679C11.559 69.7151 11.3645 69.7151 11.1894 69.3845C11.1311 69.29 11.0921 69.1955 11.0338 69.1011C10.956 68.9594 10.8782 68.8649 10.7614 68.8177C10.6253 68.7704 10.5086 68.7704 10.3724 68.7704C10.2362 68.7704 10.1195 68.676 10.0028 68.5815C9.26354 67.9675 9.26354 67.9675 8.56323 67.9203C8.21307 67.873 7.84345 67.9675 7.49329 67.8258C7.47384 67.8258 7.41547 67.7786 7.41547 67.7313C7.41547 67.5424 7.47383 67.4479 7.51274 67.3535C7.5711 67.2118 7.55165 67.0701 7.47384 67.0228C7.31821 66.9284 7.14313 66.8811 6.9875 66.9284C6.83188 66.9284 6.77351 67.0701 6.77351 67.4952C6.77351 67.7786 6.71516 67.873 6.57899 67.8258C6.48172 67.8258 6.38445 67.7313 6.3261 67.5424C6.30664 67.4952 6.30664 67.3535 6.30664 67.3062C6.365 66.9284 6.48172 66.645 6.59844 66.3616C6.73461 66.0782 6.89024 65.9837 7.04586 66.031C7.14313 66.0782 7.22094 66.2199 7.31821 66.1254C7.33766 66.0782 7.35712 66.031 7.37657 65.9365C7.37657 65.842 7.37657 65.7476 7.35712 65.7003C7.29876 65.6059 7.2404 65.5586 7.18204 65.5114C6.83188 65.4642 6.46227 65.4642 6.11211 65.1336C6.03429 65.0391 5.91757 65.0863 5.82031 65.0391C5.39233 64.9919 4.96436 64.9446 4.55584 64.8974C4.47803 64.8974 4.43913 64.7557 4.45857 64.6612C4.47803 64.614 4.51694 64.5668 4.53639 64.5668C4.73092 64.5195 4.92545 64.5195 5.11999 64.4723C5.29507 64.4723 5.33398 64.3306 5.35343 63.9055C5.35343 63.7166 5.37288 63.6221 5.47015 63.5749C5.66467 63.5277 5.85921 63.5277 6.05374 63.5277C6.24828 63.4804 6.26773 63.386 6.30664 62.8192C6.30664 62.6775 6.34554 62.5358 6.365 62.3468C6.38445 62.1579 6.28719 61.8745 6.20937 61.8273C6.17046 61.8273 6.15102 61.7801 6.11211 61.7801C6.01484 61.8273 5.91757 61.8745 5.83976 61.7328C5.62578 61.2605 5.39233 61.1188 5.11999 61.166C4.98381 61.2133 4.8671 61.166 4.73092 61.166C4.69202 61.166 4.65311 61.2133 4.65311 61.2605C4.63365 61.4022 4.67256 61.4967 4.75037 61.5439C4.78928 61.5439 4.80874 61.5911 4.84764 61.5911C4.92545 61.6384 4.96436 61.6856 4.96436 61.8745C4.96436 61.9218 4.906 61.969 4.88654 61.969C4.59474 62.0162 4.30295 62.0635 4.01115 62.0162C3.91388 62.0162 3.81661 61.8745 3.75826 61.6856C3.66099 61.3077 3.52483 61.166 3.34975 61.166C3.19412 61.166 3.01904 61.1188 2.86341 61.1188C2.70779 61.1188 2.53271 61.0716 2.37708 61.0243C2.33817 61.0243 2.31872 60.9299 2.29926 60.8826C2.31872 60.8354 2.35763 60.7882 2.37708 60.7409C2.62998 60.5993 2.90232 60.6465 3.15521 60.5992C3.33029 60.552 3.46645 60.4576 3.62208 60.2686C3.83607 59.9852 3.83607 59.9852 3.68044 59.5129C3.66099 59.4657 3.66099 59.3712 3.66099 59.324C3.68044 59.2767 3.71935 59.2295 3.7388 59.2295C3.97225 59.1823 4.18623 59.0406 4.41967 58.9461C4.47803 58.8989 4.55584 58.9934 4.6142 59.0406C4.78928 59.135 4.94491 58.8989 5.02272 58.5683C5.11999 58.1432 5.21726 57.7653 5.35343 57.3875C5.43124 57.1513 5.39233 57.0096 5.27561 56.8679C5.21725 56.7734 5.15889 56.7262 5.10053 56.6317C4.98381 56.4428 4.8671 56.3483 4.73092 56.3483C4.10841 56.3011 3.48592 56.3956 2.86341 56.4428C2.61052 56.49 2.33817 56.4428 2.08528 56.4428C1.83239 56.4428 1.63786 56.3011 1.50169 55.7816C1.46278 55.6399 1.40441 55.5926 1.36551 55.4509C1.26824 55.2148 1.26824 55.0731 1.36551 54.9314C1.54059 54.7424 1.71566 54.5535 1.92965 54.5063C2.45489 54.459 2.98013 54.4118 3.50536 54.3174C3.54427 54.3174 3.58318 54.2701 3.58318 54.2229C3.60263 54.1284 3.56372 54.034 3.48591 53.9867C3.34974 53.9395 3.23302 53.9867 3.09685 53.845C3.01904 53.7506 2.99958 53.6561 2.99958 53.4672C2.99958 53.3255 3.03849 53.1838 3.1163 53.1365C3.27194 53.0421 3.44701 53.0421 3.60263 52.9948C3.85552 52.9004 4.0306 52.6642 4.12787 52.0974C4.18623 51.7668 4.28349 51.6251 4.41967 51.5306C4.45857 51.5306 4.47803 51.4834 4.51693 51.4362C4.53639 51.3889 4.59474 51.3417 4.59474 51.2945C4.59474 51.1528 4.55584 51.0111 4.49748 50.9166C4.43912 50.8222 4.38076 50.7277 4.3224 50.7277C4.22514 50.6805 4.12787 50.6805 4.0306 50.6805C3.46645 50.7277 2.92177 50.586 2.35762 50.5388C2.29926 50.5388 2.24091 50.4443 2.18255 50.3498C2.12419 50.2554 2.08528 50.1137 2.08528 49.972C2.08528 49.8303 2.12418 49.7358 2.202 49.6886C2.35763 49.6414 2.53271 49.6414 2.68833 49.5941C2.92177 49.5469 3.13576 49.4052 3.31084 48.9801C3.3692 48.8384 3.42755 48.8384 3.48591 48.8856C3.64154 48.9329 3.64153 48.8856 3.71935 48.6495C3.7388 48.6022 3.75826 48.5078 3.75826 48.4605C3.89443 47.941 4.08896 47.7521 4.3224 47.6104C4.47803 47.5159 4.51693 46.9491 4.40022 46.6185C4.38076 46.5713 4.34185 46.524 4.3224 46.4768C4.18623 46.3823 4.06951 46.4296 3.93334 46.4296C3.83607 46.4296 3.7388 46.4296 3.64153 46.3823C3.4081 46.2879 3.21357 45.9572 2.98013 45.9572C2.7856 45.9572 2.59107 45.91 2.39653 45.8628C2.31872 45.8628 2.27982 45.7211 2.27982 45.6266C2.27982 45.5794 2.31872 45.4849 2.33817 45.4849C2.39653 45.4377 2.4549 45.3904 2.53271 45.3432C2.64943 45.2488 2.74669 45.0126 2.84396 44.7764C2.92177 44.5403 2.88286 44.3041 2.80505 44.1624C2.66887 43.9262 2.4938 43.9735 2.33817 43.879C2.31872 43.879 2.27981 43.7845 2.26035 43.7373C2.27981 43.6901 2.29926 43.5956 2.31871 43.5484C2.5327 43.1705 2.7856 42.9816 3.05795 42.9816C3.19412 42.9816 3.31083 42.9344 3.447 42.9344C3.64153 42.9344 3.83607 42.8399 4.01115 42.651C4.10842 42.5565 4.20568 42.5565 4.30295 42.462C4.38076 42.4148 4.41966 42.3203 4.40022 42.1786C4.40022 42.037 4.36131 41.8953 4.2835 41.8008C4.18623 41.7063 4.08897 41.6591 3.9917 41.7536C3.73881 41.9897 3.48592 42.0842 3.23302 42.0842C2.76615 42.0842 2.31872 42.0842 1.85184 42.0842C1.81294 42.0842 1.77403 42.0842 1.75458 42.037C1.69621 41.9425 1.65731 41.848 1.59895 41.7536C1.5795 41.7063 1.5795 41.6119 1.59895 41.5174C1.6184 41.3757 1.6573 41.234 1.71567 41.1868C1.9102 40.9978 2.10473 41.0451 2.29926 40.9978C2.43544 40.9506 2.41598 40.6672 2.41598 40.4783C2.41598 40.1949 2.55216 39.8643 2.66889 39.817C2.72724 39.7698 2.80506 39.7226 2.86341 39.7226C3.11631 39.6753 3.38864 39.6753 3.62208 39.3447C3.68044 39.2975 3.7388 39.2502 3.81661 39.2502C3.91388 39.203 4.01115 39.203 4.10842 39.203C4.30295 39.1558 4.49748 39.1558 4.69201 39.0613C4.88654 38.9669 5.06163 38.6835 5.25617 38.6362C5.27561 38.6362 5.31452 38.5418 5.33398 38.4945C5.31452 38.4473 5.29507 38.4001 5.27561 38.4001C4.88654 38.3528 4.49748 38.3528 4.10842 38.3528C3.91388 38.3528 3.71935 38.3056 3.54427 38.0694C3.46646 37.975 3.34974 37.9277 3.27193 37.8333C3.19412 37.786 3.07739 37.786 3.07739 37.5026C3.07739 37.361 3.15521 37.2665 3.21357 37.172C3.27194 37.0776 3.29138 36.9359 3.29138 36.7469C3.27193 36.6052 3.23303 36.4635 3.15521 36.4635C3.09686 36.4163 3.01904 36.4163 2.96068 36.4163C2.62998 36.3691 2.29927 36.3691 1.98802 36.3691C1.85185 36.3691 1.73512 36.3218 1.59895 36.3218C1.56004 36.3218 1.52114 36.2274 1.52114 36.2274C1.52114 36.0857 1.57949 35.9912 1.63785 35.9912C1.83238 35.944 2.02692 35.8968 2.202 35.6606C2.33817 35.4717 2.51325 35.4717 2.66889 35.4244C2.7467 35.3772 2.7856 35.2827 2.7856 35.1883C2.7856 35.141 2.72724 35.0938 2.70778 35.0466C2.51325 34.9993 2.31871 34.9993 2.12419 34.9521C2.02692 34.9049 1.92965 34.9049 1.83238 34.8104C1.61839 34.5742 1.38497 34.527 1.17098 34.527C1.03481 34.527 0.918085 34.4798 0.781908 34.4325C0.743006 34.4325 0.723543 34.3381 0.704096 34.2909C0.723543 34.2436 0.762461 34.1964 0.781908 34.1492C0.879175 34.1019 0.976442 34.0547 1.07371 34.0547C1.69621 34.0547 2.31872 34.0547 2.94122 34.0075C3.33029 34.0075 3.71935 34.0075 4.10842 33.8658C4.12787 33.8658 4.16678 33.7713 4.16678 33.7713C4.16678 33.6768 4.14732 33.5824 4.10842 33.5824C3.93334 33.3462 3.75826 33.1573 3.56372 33.1573C2.98013 33.11 2.39654 33.0628 1.79348 33.0156C1.69622 33.0156 1.59895 32.9211 1.52114 32.7322C1.50168 32.685 1.48223 32.5905 1.46278 32.5433C1.42387 32.4016 1.46278 32.2599 1.56005 32.2599C1.81294 32.2126 2.08528 32.2126 2.33817 32.1654C2.57161 32.1182 2.78559 32.2126 2.99958 32.4488C3.01904 32.496 3.05794 32.496 3.09685 32.496C3.23302 32.5433 3.34973 32.4488 3.447 32.2599C3.52482 31.8348 3.66099 31.6931 3.83607 31.6458C3.93334 31.5986 4.0306 31.5041 4.10842 31.4097C4.24458 31.268 4.36131 31.3152 4.47803 31.4569C4.53639 31.5514 4.59475 31.5514 4.67256 31.5041C4.76983 31.4569 4.84764 31.3624 4.94491 31.268C5.13944 31.1263 5.33398 31.0791 5.52851 31.2208C5.7814 31.3625 5.7814 31.3624 5.99539 31.1263C6.01484 31.0791 6.05374 31.0318 6.0732 30.9846C6.11211 30.8429 6.09265 30.7484 5.99539 30.7484C5.74249 30.7012 5.47015 30.7012 5.21726 30.654C5.15889 30.654 5.10053 30.5595 5.02272 30.5595C4.92546 30.5123 4.88655 30.1816 4.94491 29.9927C5.02272 29.6149 5.15889 29.3315 5.31452 29.3315C5.76195 29.2842 6.22882 29.237 6.67625 29.237C6.77352 29.237 6.87078 29.2842 6.96805 29.4259C7.18204 29.7565 7.39602 29.7093 7.62947 29.7093C7.68782 29.7093 7.76563 29.6621 7.824 29.6149C7.84345 29.6149 7.9018 29.5676 7.9018 29.5204C7.9018 29.4732 7.88236 29.3787 7.88236 29.2842C7.824 29.0953 7.74619 28.9536 7.64892 28.9064C7.06532 28.8119 6.48171 28.9064 5.87866 28.7647C5.7814 28.7647 5.76195 28.623 5.74249 28.2451C5.74249 27.9617 5.68414 27.8673 5.54796 27.8673C5.41179 27.8673 5.29507 27.9617 5.23671 28.3396C5.21726 28.3868 5.1978 28.4813 5.1589 28.4813C5.10053 28.4813 5.06163 28.3868 5.06163 28.1979C5.06163 28.1034 5.04218 28.0562 5.04218 27.9617C5.02272 27.6783 4.92546 27.5366 4.84764 27.4894C4.30295 27.3477 3.73881 27.3005 3.17466 27.3477C3.07739 27.3477 2.98014 27.3477 2.88287 27.2532C2.86341 27.206 2.84395 27.1588 2.80505 27.1115C2.8245 27.0643 2.84396 26.9698 2.88287 26.9698C3.13576 26.7809 3.4081 27.0171 3.66099 26.8754C3.7388 26.8281 3.75826 26.7337 3.77771 26.5448C3.77771 26.0252 3.79717 26.0252 3.9917 26.1197C4.12787 26.2141 4.12787 26.2141 4.36131 26.0252C4.41967 25.978 4.49748 25.9307 4.55584 25.9307C4.84764 25.9307 5.13944 25.9307 5.43125 25.978C5.47015 25.978 5.4896 26.0252 5.52851 26.0252C5.64523 26.1669 5.7814 26.1669 5.89812 26.0252C6.01484 25.8835 6.15101 25.9307 6.28719 25.978C6.34554 26.0252 6.40391 26.0724 6.48172 26.1197C6.63735 26.2614 6.79297 26.2614 6.9486 26.1197C6.98751 26.0724 7.00696 26.0724 7.04586 26.0252C7.20149 25.8363 7.35712 25.8363 7.51274 26.0252C7.80454 26.3086 8.09634 26.2614 8.38814 26.2141C8.48541 26.2141 8.56322 26.0252 8.62158 25.8363C8.64104 25.789 8.66049 25.6946 8.64104 25.6001C8.64104 25.5529 8.60213 25.5056 8.58267 25.4584C8.36868 25.3167 8.13525 25.3639 7.9018 25.3167C7.47383 25.2695 7.04586 25.2695 6.63735 25.2222C6.61789 25.2222 6.55953 25.175 6.55953 25.0806C6.54008 24.9861 6.59844 24.8916 6.67625 24.8444C6.77352 24.7972 6.87078 24.7972 6.96805 24.7972C7.29876 24.7499 7.62947 24.7499 7.94071 24.7499C8.01853 24.7499 8.05744 24.6082 8.01853 24.5138C7.99908 24.4665 7.96017 24.4193 7.94071 24.4193C7.80454 24.3721 7.68782 24.3721 7.55165 24.3721C7.25985 24.3721 6.96805 24.4193 6.6957 24.0414C6.63735 23.9942 6.55953 23.9942 6.50118 24.0414C6.365 24.1359 6.24828 24.1359 6.11211 24.0414C5.91757 23.8525 5.72304 23.8997 5.52851 23.8997C5.33398 23.8525 5.13944 23.8997 4.94491 23.8525C4.84764 23.8525 4.76983 23.7108 4.67256 23.5691C4.5753 23.0496 4.36131 23.0023 4.16678 23.0023C3.97225 22.9551 3.77771 22.9551 3.58318 22.9551C3.31083 23.0023 3.07739 22.7662 2.84396 22.4355C2.72724 22.2938 2.68833 21.8688 2.76615 21.6326C2.88287 21.302 2.99958 21.113 3.17466 21.113C3.21357 21.113 3.23303 21.113 3.27193 21.113L3.25248 21.0658C3.29139 21.2075 3.33029 21.3492 3.38864 21.3492C3.68044 21.4909 3.97225 21.4909 4.26405 21.3492C4.34186 21.302 4.38076 21.1603 4.36132 21.0186C4.34186 20.8769 4.30295 20.7352 4.24459 20.7352C4.18623 20.7352 4.10842 20.7352 4.05006 20.8296C3.93334 20.9713 3.85552 20.8769 3.79717 20.6879C3.73881 20.499 3.68045 20.3101 3.62208 20.1212C3.56372 19.9322 3.48591 19.7905 3.38864 19.7433C3.29138 19.7433 3.19412 19.7433 3.09685 19.6961C3.03848 19.6961 2.96067 19.6488 2.90232 19.6488C2.88286 19.6488 2.84396 19.5544 2.82451 19.5071C2.80506 19.4127 2.8245 19.271 2.90232 19.2237C3.62209 19.1293 4.34186 19.1293 5.06163 19.1293C6.3261 19.1293 7.61001 19.2237 8.87448 19.082C8.95229 19.082 8.99119 18.9403 8.97174 18.8459C8.95229 18.7987 8.91338 18.7514 8.89393 18.7042C8.85502 18.657 8.83557 18.657 8.79666 18.657C7.88236 18.657 6.96805 18.6097 6.05374 18.6097C5.87866 18.6097 5.72304 18.5625 5.56742 18.3736C5.45069 18.2319 5.31452 18.2319 5.17835 18.2319C4.69201 18.2319 4.20568 18.1846 3.6999 18.1846C3.34974 18.1846 2.98014 18.2791 2.62998 18.0902C2.61052 18.0902 2.57161 17.9957 2.55216 17.9485C2.57161 17.9012 2.61052 17.8068 2.62998 17.8068C2.96068 17.6651 3.27193 17.6651 3.60263 17.7123C3.93334 17.7123 4.26405 17.7595 4.5753 17.6651C4.67256 17.6178 4.71147 17.4289 4.63365 17.1455C4.5753 16.9566 4.51694 16.7677 4.47803 16.5315C4.45858 16.3898 4.47803 16.2009 4.47803 16.0592C4.47803 16.0119 4.43912 15.9647 4.41967 15.9175C4.26404 15.7758 4.08896 15.7758 3.93334 15.7758C3.46646 15.823 3.01904 15.7758 2.55216 15.7286C2.51325 15.7286 2.4938 15.7286 2.45489 15.7286C2.31872 15.7286 2.33818 15.5396 2.47435 15.3507C2.66889 15.0673 2.88287 14.8784 3.1163 14.8784C3.73881 14.8784 4.36131 14.8784 4.98381 14.8784C5.66468 14.8784 6.365 14.8784 7.04586 14.8784C7.14313 14.8784 7.2404 14.8784 7.33766 14.8784C7.92126 14.7367 8.50486 14.8784 9.08846 14.7367C9.12737 14.7367 9.14682 14.6422 9.16627 14.595C9.14682 14.5477 9.12737 14.5005 9.08846 14.4533C8.99119 14.406 8.89393 14.3588 8.79666 14.3588C8.50486 14.3588 8.21306 14.406 7.92126 14.4533C7.824 14.4533 7.72673 14.4533 7.62947 14.3588C7.41548 14.1227 7.20149 14.0282 6.96805 13.981C5.91757 13.9337 4.8671 13.9337 3.83607 13.8865C3.68045 13.8865 3.50537 13.8393 3.34975 13.6976C3.23303 13.6031 3.09686 13.5559 2.96068 13.5559C2.72724 13.5559 2.49381 13.5086 2.27982 13.5559C1.94911 13.6031 1.63785 13.3669 1.34605 12.9891C1.32659 12.9418 1.2877 12.8946 1.26824 12.8474C1.13207 12.6112 0.956988 12.564 0.801364 12.564C0.567919 12.564 0.334483 12.564 0.120494 12.5168C0.0426813 12.5168 -0.0156759 12.3751 0.00377905 12.2806C0.023234 12.1389 0.101039 12.0917 0.178851 12.0917C0.840266 12.0917 1.48223 11.9972 2.14364 12.0917C2.37709 12.1389 2.61052 12.0917 2.82451 12.0917C3.17467 12.0917 3.54428 12.0917 3.89443 12.0917C4.14733 12.0917 4.41967 12.0444 4.67256 11.9972C4.76983 11.9972 4.8671 11.9027 4.94491 11.8083C5.10054 11.6666 5.25616 11.5249 5.41179 11.5249C5.70359 11.4776 5.99539 11.4776 6.28719 11.4304C6.32609 11.4304 6.365 11.3832 6.365 11.3359C6.38446 11.2415 6.32609 11.147 6.24828 11.147C6.01484 11.0998 5.80085 11.0998 5.56742 11.0526C5.54796 11.0526 5.50905 11.0053 5.4896 10.9109C5.45069 10.8164 5.4896 10.6747 5.56742 10.6747C6.24828 10.4858 6.9486 10.533 7.62947 10.6275C7.72673 10.6275 7.824 10.7219 7.92126 10.7692C7.97962 10.8164 8.03798 10.8164 8.11579 10.7692C8.32978 10.5802 8.56322 10.533 8.79666 10.533C8.93283 10.533 9.06901 10.533 9.18572 10.3913C9.39971 10.1551 9.6137 10.1079 9.84714 9.9662C9.9055 9.91898 9.96386 9.87175 10.0222 9.82452C10.1779 9.63559 10.3335 9.63559 10.4891 9.82452C10.5475 9.91898 10.6253 9.91898 10.6836 9.87175C10.9365 9.63559 11.1894 9.58835 11.4423 9.49388C11.4618 9.49388 11.4812 9.39943 11.5201 9.35219C11.5007 9.30497 11.4812 9.25773 11.4423 9.2105C11.2089 9.0688 10.9949 9.0688 10.7614 9.11603C10.2751 9.11603 9.78878 9.0688 9.28299 9.16326C9.08846 9.21049 8.89393 9.16326 8.6994 9.02156C8.66049 9.02156 8.64104 8.9271 8.62158 8.9271C8.64104 8.87986 8.66049 8.83263 8.6994 8.7854C8.95229 8.6437 9.22463 8.64371 9.47753 8.64371C9.94441 8.64371 10.3918 8.64371 10.8587 8.64371C10.9171 8.64371 10.9949 8.59647 11.0532 8.54924C11.0922 8.54924 11.1116 8.45478 11.1311 8.40755C11.1116 8.36032 11.0727 8.31308 11.0532 8.26585C10.8198 8.12416 10.6058 8.17138 10.3724 8.21862C9.88605 8.26585 9.39971 8.21862 8.89393 8.17139C8.75775 8.17139 8.64104 8.07692 8.52432 7.93522C8.4076 7.79353 8.27143 7.69906 8.1547 7.74629C7.5322 7.74629 6.90969 7.79353 6.28719 7.79353C5.99539 7.79353 5.70359 7.74629 5.41179 7.69906C5.37288 7.69906 5.35343 7.60459 5.33398 7.60459C5.35343 7.51013 5.41178 7.41567 5.4896 7.41567C5.7425 7.36843 6.01484 7.3212 6.26773 7.3212C7.64891 7.3212 9.01065 7.27397 10.3918 7.27397C10.6836 7.27397 10.9754 7.22674 11.2672 7.22674C11.3061 7.22674 11.345 7.1795 11.345 7.13227C11.3645 6.99057 11.3256 6.89611 11.2672 6.84888C11.2283 6.80165 11.2089 6.80165 11.17 6.80165C11.0922 6.80165 11.0338 6.75441 10.9949 6.61272C10.956 6.47102 11.0338 6.09317 11.1116 6.04593C11.17 5.9987 11.2283 5.90423 11.2867 5.90423C11.4229 5.857 11.5396 5.80976 11.6758 5.76254C11.7536 5.7153 11.7925 5.5736 11.7925 5.43191C11.7925 5.29021 11.773 5.14852 11.7147 5.05405C11.6563 4.95958 11.5785 4.86512 11.559 4.77066C11.5396 4.62896 11.6174 4.5345 11.6758 4.44003C11.7536 4.34556 11.7536 4.20387 11.7536 4.06217C11.7341 3.68431 11.8314 3.54262 11.987 3.68431C12.0259 3.73155 12.0454 3.73155 12.0843 3.77878C12.1426 3.82602 12.201 3.92047 12.2593 4.01494L12.2399 3.96771C12.3177 4.2511 12.415 4.3928 12.5706 4.3928C12.8235 4.3928 13.0958 4.44003 13.3293 4.1094C13.3876 4.06218 13.4655 4.06218 13.5238 4.1094C13.66 4.20387 13.7767 4.29834 13.8934 4.1094C13.9518 4.01494 14.0101 4.01493 14.088 4.06217C14.1463 4.1094 14.2047 4.15664 14.263 4.2511C14.4187 4.3928 14.5743 4.44003 14.7299 4.2511C14.8661 4.10941 14.9828 4.15664 15.0995 4.29833C15.1384 4.34556 15.1579 4.34557 15.1968 4.34557C15.547 4.3928 15.9166 4.44003 16.2667 4.29833C16.4029 4.2511 16.5196 4.15664 16.6363 4.01494C16.792 3.82602 16.9476 3.87324 17.1032 4.01494C17.2005 4.10941 17.2978 4.10941 17.3756 4.01494C17.4339 3.96771 17.4923 3.92048 17.5506 3.82601C17.6285 3.73154 17.7257 3.73155 17.7841 3.49538C17.7452 3.35369 17.6868 3.30645 17.609 3.25922C17.4728 3.21199 17.3561 3.11753 17.2588 2.83413C17.2005 2.69244 17.2199 2.55074 17.2783 2.45627C17.2978 2.40904 17.3367 2.36181 17.3561 2.36181C17.5117 2.26735 17.6868 2.26735 17.8424 2.45627C17.9786 2.59797 18.0953 2.55074 18.2121 2.40904C18.2315 2.36181 18.2704 2.36181 18.3093 2.31458C18.6984 2.26735 19.0875 2.17288 19.4765 2.36181C19.5738 2.40905 19.5932 2.50351 19.5543 2.69243C19.5154 2.83413 19.496 2.97584 19.4571 3.07029C19.3598 3.44816 19.3598 3.54262 19.4765 3.58985C19.6321 3.63708 19.8072 3.68432 19.9629 3.63708C20.099 3.58985 20.2157 3.44816 20.2546 3.07029C20.2546 2.97584 20.2741 2.9286 20.2936 2.83413C20.313 2.55074 20.4103 2.40905 20.4881 2.36181C20.7021 2.26735 20.9355 2.22011 21.169 2.26735C21.2468 2.26735 21.3051 2.36181 21.3051 2.45627C21.3051 2.50351 21.2857 2.59797 21.2468 2.6452C21.1884 2.73967 21.1301 2.83413 21.0912 2.9286C20.9939 3.16476 20.8772 3.25922 20.741 3.25922C20.6632 3.25922 20.6243 3.30646 20.5854 3.44816C20.6437 3.54262 20.7021 3.58985 20.7604 3.58985C20.9161 3.58985 21.0911 3.58986 21.2468 3.44816C21.4608 3.25923 21.6747 3.0703 21.8887 2.88136C21.9471 2.83413 22.0055 2.73968 22.0833 2.73968C22.3556 2.73968 22.5891 2.50351 22.8419 2.31458C22.9003 2.26735 22.9781 2.26735 23.0365 2.31458C23.445 2.69243 23.873 2.73967 24.2815 2.69243C24.904 2.59798 25.5265 2.69243 26.1295 2.69244C26.2268 2.69244 26.3241 2.69244 26.4214 2.7869C26.577 2.9286 26.7326 2.88137 26.9077 2.73968C27.0244 2.64521 27.1606 2.6452 27.2967 2.7869C27.394 2.88137 27.4913 2.97584 27.5691 2.97584C27.9582 3.02307 28.3472 3.0703 28.7363 2.9286C28.8336 2.88137 28.9114 2.7869 28.9892 2.59798C29.0086 2.55074 29.0281 2.45628 29.0281 2.40904C28.9892 2.22012 28.9308 2.17289 28.8725 2.26735C28.8141 2.31458 28.7557 2.36182 28.6974 2.45628C28.6001 2.59798 28.5028 2.59798 28.425 2.50351C28.25 2.31458 28.0554 2.22011 27.8609 2.22011C27.4329 2.22011 27.0049 2.26735 26.5964 2.12566C26.5575 2.12566 26.5186 2.07842 26.5186 2.03119C26.4992 1.88949 26.5381 1.74779 26.577 1.60609C26.6159 1.4644 26.6742 1.41717 26.7521 1.36993C26.9466 1.3227 27.1411 1.27547 27.3357 1.22823C27.5691 1.22823 27.7831 1.22823 28.0165 1.22823C28.1527 1.22823 28.2694 1.08654 28.3861 0.992072C28.4639 0.944839 28.5807 0.99208 28.6585 0.944846C28.6779 0.944846 28.6974 0.850379 28.7363 0.803146C28.853 0.472518 28.853 0.472526 28.9697 0.614219C29.067 0.708686 29.1448 0.803146 29.2421 0.897613C29.3004 0.944839 29.3393 1.08654 29.3588 1.27547C29.3004 1.27547 29.2226 1.27547 29.1643 1.32271C29.1448 1.32271 29.1059 1.36993 29.0865 1.41717C29.067 1.4644 29.067 1.55887 29.067 1.55887C29.1059 1.70056 29.1643 1.70056 29.2226 1.60609C29.281 1.51163 29.3199 1.41717 29.3199 1.22823C29.3977 1.22823 29.4561 1.22823 29.5339 1.22823C29.5533 1.46439 29.6311 1.60609 29.7284 1.65333C29.7868 1.70056 29.8451 1.65333 29.9035 1.65333C29.9229 1.65333 29.9618 1.6061 29.9813 1.55887C30.0008 1.4644 29.9618 1.36993 29.884 1.36993C29.7673 1.3227 29.6311 1.32271 29.5144 1.32271C29.5339 1.18101 29.5533 1.03931 29.6117 0.944847C29.6895 0.803146 29.7673 0.708686 29.8646 0.614219C29.9424 0.519752 30.0397 0.425285 30.1369 0.566986C30.2536 0.708679 30.3704 0.75592 30.4871 0.85038C30.5844 0.944847 30.6427 1.03931 30.7011 1.27547C30.74 1.4644 30.8178 1.65333 30.9151 1.74779C30.9345 1.88949 30.9734 2.03119 31.0318 2.07841C31.0512 2.12565 31.0901 2.12566 31.1096 2.12566C31.129 2.12566 31.168 2.07842 31.1874 2.03119C31.2069 1.93672 31.168 1.84226 31.0901 1.79503C31.0318 1.79503 30.9734 1.79503 30.8956 1.79503C30.9929 1.22824 31.168 0.897613 31.4014 0.803146C31.7516 0.661453 32.0823 0.330826 32.4324 0.0946657C32.5297 0.0474322 32.6269 0.0474322 32.7242 0.0946658C32.7826 0.141892 32.8604 0.141899 32.9187 0.141899C33.016 0.141899 33.1133 0.0474323 33.2106 0.000198718C33.4245 0.189125 33.658 0.236359 33.8525 0.519753C34.0276 0.803147 34.2221 0.755913 34.3972 0.519753C34.4167 0.47252 34.4556 0.425286 34.475 0.425286C34.4945 0.378052 34.5334 0.330826 34.5723 0.330826C34.6696 0.283593 34.7668 0.236359 34.8641 0.330827C34.9808 0.425286 35.0975 0.61422 35.2142 0.708688C35.2726 0.755914 35.3504 0.755914 35.4088 0.755914C35.5449 0.755914 35.6617 0.661446 35.7784 0.519753C35.9535 0.283593 36.148 0.23636 36.3425 0.283593C36.4787 0.283593 36.5954 0.330827 36.7316 0.37806C36.8678 0.425294 36.965 0.566987 37.0623 0.850381C37.1207 1.03932 37.1207 1.181 37.0234 1.22823C36.8483 1.36994 36.6538 1.4644 36.4593 1.6061C36.2647 1.7478 36.0702 1.70056 35.8757 1.70056C35.6811 1.74779 35.4866 1.65333 35.3115 1.41717C35.1948 1.27548 35.0586 1.3227 34.9224 1.41717C34.8835 1.41717 34.8641 1.4644 34.8252 1.51164C34.6696 1.70056 34.5334 1.79503 34.3583 1.79503C33.8136 1.7478 33.2495 1.84226 32.7048 1.79503C32.5491 1.79503 32.3741 1.84226 32.2379 2.03119C32.0628 2.22012 31.8683 2.22012 31.6737 2.31458C31.6543 2.26735 31.6543 2.17288 31.6348 2.12566C31.6154 2.07842 31.5959 2.07841 31.5765 2.07841C31.5765 2.17288 31.6154 2.26735 31.6932 2.26735C31.7126 2.50351 31.7516 2.69244 31.8294 2.88136C31.9072 3.02306 32.0045 3.11753 32.1017 3.11753C32.1601 3.11753 32.2379 3.0703 32.2963 3.02306C32.4908 2.88137 32.6853 2.7869 32.8798 2.7869C33.2689 2.7869 33.658 2.7869 34.047 2.7869C34.2416 2.7869 34.4361 2.73967 34.6306 2.55074C34.689 2.50351 34.7474 2.50351 34.8252 2.55074C35.0392 2.7869 35.2531 2.97583 35.4477 3.16477C35.6811 3.212 35.8757 3.58985 36.1091 3.63709C36.2647 3.68432 36.3231 3.92048 36.3231 4.25111C36.3231 4.44003 36.362 4.5345 36.4398 4.5345C36.8289 4.58173 37.2179 4.6762 37.607 4.48727C37.6848 4.44003 37.7237 4.34557 37.6654 4.15665C37.607 3.96771 37.5486 3.77878 37.5097 3.58985C37.4708 3.40093 37.4903 3.30646 37.5875 3.25923C37.821 3.11753 38.035 3.11753 38.2489 3.35369C38.3073 3.44815 38.3462 3.54262 38.3268 3.73155C38.3073 4.06217 38.1906 4.29834 38.21 4.62897C38.21 4.77067 38.2684 4.91235 38.3268 4.91235C38.424 4.95959 38.5213 4.86512 38.6186 4.77066C38.7742 4.62896 38.9298 4.58174 39.0854 4.72343C39.2411 4.86513 39.3967 4.95959 39.5523 4.77066C39.6885 4.58173 39.883 4.62897 39.9998 4.39281C40.0581 4.29834 40.0581 4.15664 40.0387 3.96771C40.0192 3.92048 39.9998 3.82601 39.9608 3.82601C39.9414 3.77878 39.9025 3.77879 39.8636 3.77879C39.7469 3.87325 39.6107 3.96771 39.494 4.06217C39.3967 4.10941 39.2994 4.06218 39.2411 3.87325C39.1633 3.63709 39.2022 3.40093 39.2994 3.30646C39.3383 3.25923 39.3578 3.212 39.3967 3.212C39.6496 3.16477 39.9219 3.16476 40.1748 3.11753C40.2332 3.11753 40.311 3.16477 40.3694 3.212C40.4861 3.30647 40.6028 3.54262 40.739 3.49539C40.8362 3.44816 40.9335 3.35369 41.0113 3.30646C41.0891 3.25923 41.2059 3.54262 41.2253 3.73155C41.2253 3.96771 41.1864 4.20387 41.1669 4.39281C41.1669 4.58174 41.2059 4.6762 41.2642 4.77066C41.3031 4.8179 41.3226 4.86513 41.3615 4.86513C41.6144 4.91236 41.8867 4.91236 42.1396 4.9596C42.3731 5.00682 42.587 4.95959 42.8205 4.91236C42.9372 4.91236 42.9567 4.77066 42.9567 4.44004C42.9567 4.15664 43.0345 3.96771 43.1123 4.06217C43.229 4.20388 43.3457 4.34557 43.4624 4.44004C43.4819 4.48727 43.4819 4.58174 43.5013 4.62897C43.5208 4.6762 43.5403 4.6762 43.5597 4.6762C43.5597 4.58174 43.5208 4.48727 43.4624 4.48727C43.4819 3.96771 43.5597 3.58985 43.7737 3.40093C43.9488 3.212 44.1433 3.0703 44.3184 2.88137C44.4157 2.78691 44.4157 2.50351 44.3378 2.31459C44.3184 2.26735 44.2989 2.17288 44.26 2.17288C44.1628 2.12565 44.0655 2.07842 43.9682 2.07842C43.8126 2.03119 43.6375 2.03119 43.4819 1.88949C43.2679 1.70056 43.0345 1.65333 42.801 1.65333C42.0229 1.70056 41.2253 1.65333 40.4472 1.6061C40.2526 1.6061 40.0581 1.70056 39.883 1.98396C39.7274 2.22012 39.5718 2.17288 39.4162 1.98396C39.3189 1.88949 39.2605 1.70056 39.2022 1.51164C39.1244 1.27547 39.1633 0.803148 39.2994 0.755914C39.3383 0.755914 39.3578 0.708688 39.3967 0.708689C39.6885 0.661455 39.9803 0.614221 40.2721 0.897615C40.3694 0.992075 40.4472 0.992075 40.5444 0.897615C40.6417 0.803148 40.739 0.755915 40.8362 0.708689C40.8946 0.661455 40.9724 0.708689 41.0308 0.708689C41.3226 0.708689 41.6144 0.708681 41.9062 0.661448C42.2369 0.614222 42.5481 0.708682 42.8788 0.897616C42.9372 0.944842 43.015 0.897616 43.0734 0.850382C43.2874 0.614222 43.5208 0.708682 43.7542 0.661448C43.9877 0.614222 44.2017 0.70869 44.4351 0.850383C44.5713 0.94485 44.688 0.944842 44.8242 0.897616C45.1743 0.661449 45.5245 0.614223 45.8746 0.94485C45.9719 1.03931 46.0692 1.03931 46.1664 1.03931C46.3999 1.08654 46.6139 1.13378 46.8473 1.08654C47.2753 1.03932 47.7033 0.944843 48.1118 0.992077C48.5397 1.03931 48.9677 1.13378 49.3762 1.13378C49.4735 1.13378 49.5708 1.18101 49.668 1.27547C49.9209 1.6061 50.1738 1.51164 50.4267 1.32271C50.5629 1.22825 50.6796 1.22824 50.7963 1.36994C51.0103 1.55886 51.2438 1.51163 51.4772 1.36994C51.5356 1.3227 51.5939 1.22824 51.6328 1.13378C51.6912 1.03931 51.7301 0.897618 51.769 0.803151C51.8079 0.897618 51.8663 0.992085 51.9052 1.08654C51.9635 1.18101 52.0024 1.27548 52.0608 1.32271C52.1581 1.36994 52.2553 1.41717 52.3526 1.41717C53.3253 1.36994 54.3174 1.4644 55.29 1.4644C55.4457 1.4644 55.6207 1.46441 55.7764 1.41717C56.0098 1.36994 56.2238 1.41717 56.4378 1.65333C56.5934 1.84227 56.749 1.79503 56.9241 1.7478C57.1187 1.70057 57.2937 1.51163 57.5077 1.70057C57.5661 1.74779 57.6439 1.70057 57.7023 1.6061C57.8579 1.41717 58.0135 1.46441 58.1691 1.65333C58.2469 1.7478 58.3442 1.84226 58.4415 1.84226C58.636 1.79503 58.8305 1.7478 59.0251 1.79503C59.2196 1.84227 59.4141 1.84226 59.6087 1.84226C59.8616 1.84226 60.1339 1.84227 60.3868 1.79503C60.5424 1.79503 60.7175 1.70057 60.8731 1.55887C61.0288 1.36994 61.1844 1.41717 61.34 1.55887C61.4373 1.65333 61.5346 1.65333 61.6318 1.65333C61.9625 1.70057 62.2932 1.70057 62.6045 1.7478C62.7407 1.7478 62.8574 1.79504 62.9935 1.88949C63.0908 1.98396 63.1881 1.98396 63.2853 1.88949C63.4021 1.79504 63.5382 1.74779 63.6744 1.70057C64.0051 1.70057 64.3358 1.65333 64.6471 1.65334C64.9972 1.6061 65.3669 1.65334 65.717 1.84226C65.8532 1.93673 65.9699 1.8895 66.1061 1.79504C66.4173 1.60611 66.748 1.60611 67.0787 1.55888C67.4678 1.51164 67.8569 1.51164 68.2459 1.55888C68.4988 1.60611 68.7712 1.60611 69.0241 1.55888C69.2575 1.51164 69.491 1.55888 69.7049 1.79504C69.7633 1.84227 69.8411 1.8895 69.8995 1.79504C70.1135 1.55888 70.3469 1.51164 70.5803 1.55888C71.2028 1.55888 71.8253 1.6061 72.4479 1.6061C72.5451 1.6061 72.6424 1.6061 72.7397 1.70057C73.0898 2.03119 73.44 2.0312 73.8096 1.98396C73.9652 1.93673 74.1403 1.8895 74.2959 1.7478C74.3543 1.70057 74.4126 1.65334 74.4904 1.65334C74.8212 1.6061 75.1519 1.6061 75.4631 1.65334C75.7744 1.93673 76.1051 1.8895 76.4358 1.93673C76.572 1.93673 76.6887 1.8895 76.8248 1.7478C76.8832 1.70057 76.9416 1.70057 77.0194 1.7478C77.1361 1.84226 77.2723 1.93673 77.4084 1.84226C77.6419 1.7478 77.8559 1.70057 78.0893 1.84226C78.4784 1.84226 78.8674 2.07843 79.2565 1.93673C79.6067 1.98397 79.9763 1.98397 80.3264 2.0312C80.3848 2.0312 80.4626 2.07843 80.521 2.12567C80.735 2.31459 80.9684 2.36183 81.2018 2.36183C81.4353 2.36183 81.6687 2.36182 81.8827 2.40905C82.0383 2.40905 82.2134 2.50352 82.369 2.59799C82.5636 2.73968 82.7581 2.73968 82.9526 2.59799C83.011 2.55075 83.0694 2.59798 83.1472 2.64521C83.2444 2.69245 83.3417 2.78691 83.439 2.78691C84.0615 2.78691 84.684 2.83415 85.3065 2.88137C85.4816 2.88137 85.6372 2.92862 85.7928 3.07031C85.9484 3.21201 86.1041 3.16478 86.2791 3.07031C86.6293 2.78692 86.9795 2.78692 87.3296 3.11754C87.4269 3.212 87.5242 3.212 87.6214 3.25924C87.7771 3.25924 87.9521 3.25924 88.1078 3.25924C88.2439 3.25924 88.3607 3.3537 88.4968 3.3537C88.7692 3.68433 89.061 3.6371 89.3528 3.68433C89.5862 3.73156 89.8002 3.73156 90.0336 3.7788C90.2671 3.7788 90.4811 3.82602 90.695 4.06218C91.1814 4.20389 91.6483 4.67621 92.1346 4.67621C92.2708 4.67621 92.3875 4.77068 92.5042 4.86514C92.6209 5.00684 92.7571 5.05407 92.8933 5.05407C92.9516 5.05407 93.0294 5.05408 93.0878 5.1013C93.4185 5.43193 93.7881 5.52639 94.1383 5.62086C94.2161 5.62086 94.3134 5.95148 94.2939 6.14041C94.2745 6.28211 94.255 6.47104 94.255 6.61274C94.255 6.75443 94.2939 6.89613 94.3717 6.94336C94.4106 6.99059 94.4301 6.9906 94.469 6.9906C94.7413 6.94337 94.9748 7.27399 95.2082 7.55739C95.2666 7.60461 95.3055 7.79355 95.3249 7.93524C95.4027 8.40757 95.5584 8.69095 95.7529 8.83266C95.9474 8.97435 96.1225 9.16328 96.2976 9.30498C96.4532 9.39944 96.6088 9.4939 96.7645 9.6356C96.8617 9.73007 96.959 9.7773 97.0563 9.82454C97.2119 9.87177 97.387 9.919 97.5232 10.0607C97.7955 10.2969 98.1068 10.2969 98.3986 10.2496C98.4764 10.2496 98.5347 10.1552 98.5347 10.0607C98.5347 10.0135 98.4958 9.919 98.4764 9.87176C98.2818 9.6356 98.0678 9.39944 97.8733 9.11605C97.7371 8.92712 97.6204 8.97436 97.5037 9.11605C97.4648 9.16328 97.4453 9.16328 97.4064 9.21052C97.2119 9.35221 97.0174 9.30498 96.8617 8.97436C96.745 8.69096 96.6283 8.45479 96.4921 8.21863C96.3754 8.0297 96.2587 8.02971 96.1225 8.17141C96.0642 8.21863 96.0058 8.31309 95.9474 8.31309C95.8891 8.36033 95.8113 8.26586 95.7918 8.07693C95.7724 7.88801 95.8113 7.74631 95.8696 7.69908C95.8891 7.65185 95.928 7.60461 95.9474 7.60461C96.142 7.55738 96.3365 7.51015 96.531 7.51015C96.6867 7.51015 96.8617 7.51015 97.0174 7.69908C97.2703 7.93524 97.5232 7.98247 97.7955 7.98247C97.9317 7.98247 98.0484 7.93524 98.1846 7.93524C98.2818 7.93524 98.3986 7.93524 98.4764 8.02971C98.7098 8.36034 98.9627 8.40756 99.235 8.36034C99.4685 8.3131 99.7019 8.31309 99.9159 8.31309C100.013 8.31309 100.11 8.31309 100.208 8.21863C100.461 7.93524 100.713 7.93524 100.966 7.93524C101.394 7.93524 101.822 7.88801 102.231 8.02971C102.328 8.07694 102.406 8.21864 102.484 8.36034C102.542 8.50203 102.542 8.64373 102.464 8.73819C102.27 8.97436 102.172 9.30498 102.095 9.77731C102.075 9.96623 102.075 10.1079 102.134 10.2024C102.328 10.4858 102.445 11.0053 102.639 11.336C102.756 11.5249 102.737 11.7611 102.62 12.1389C102.484 12.4695 102.484 12.5168 102.62 12.6112C102.717 12.6585 102.814 12.7057 102.892 12.8474C102.951 12.9419 103.028 13.3197 102.99 13.4614C102.97 13.6031 102.951 13.7448 102.912 13.8865C102.814 14.3116 102.756 14.7367 102.776 15.2563C102.795 15.7286 102.795 16.2009 102.756 16.6732C102.737 16.8149 102.737 17.0039 102.717 17.1455C102.678 17.5234 102.503 17.854 102.348 17.8068C102.289 17.8068 102.211 17.7596 102.153 17.7123C102.095 17.6651 102.017 17.7123 101.959 17.7596C101.842 17.9013 101.706 17.9485 101.569 17.9485C101.375 17.9485 101.18 17.9485 100.986 17.9485C100.986 17.9013 100.966 17.8068 100.966 17.7596C100.947 17.7123 100.927 17.7123 100.908 17.7123C100.908 17.8068 100.947 17.854 101.005 17.9013C101.044 18.1374 101.122 18.2791 101.219 18.3264C101.317 18.3736 101.414 18.3736 101.511 18.3264C101.706 18.2791 101.9 18.3264 102.075 18.5625C102.231 18.7514 102.386 18.7987 102.542 18.8459C102.639 18.8931 102.698 19.1765 102.659 19.3655C102.581 19.6961 102.542 20.1212 102.386 20.3101C102.309 20.4046 102.289 20.5463 102.328 20.6407C102.348 20.688 102.386 20.688 102.406 20.7352C102.464 20.7824 102.523 20.8297 102.6 20.8769C102.62 20.9241 102.678 20.9714 102.678 21.0186C102.62 21.5854 102.756 22.1049 102.737 22.6717C102.717 22.9079 102.678 23.0968 102.581 23.1913C102.484 23.2857 102.386 23.2857 102.309 23.4274C102.25 23.5219 102.211 23.7108 102.27 23.8053C102.328 23.9942 102.406 24.0887 102.484 24.2776C102.562 24.4665 102.581 24.6555 102.542 24.8916C102.523 24.9861 102.503 25.0333 102.503 25.0806C102.425 25.5057 102.425 25.6474 102.542 25.9308C102.581 26.0252 102.639 26.1197 102.678 26.2614C102.756 26.4503 102.737 26.7337 102.698 26.9226C102.6 27.2533 102.406 27.3005 102.309 27.6311C102.231 27.8673 102.328 28.1979 102.211 28.4813C102.095 28.7175 102.095 28.8119 102.172 29.0481C102.231 29.237 102.289 29.4259 102.348 29.6149C102.406 29.8038 102.367 30.04 102.289 30.2289C102.27 30.2761 102.231 30.3234 102.211 30.3706C102.134 30.5595 102.134 30.6068 102.172 30.9846C102.192 31.2208 102.231 31.4569 102.231 31.6931C102.231 32.1654 102.211 32.6377 102.211 33.1101C102.211 33.3935 102.114 33.5352 102.036 33.5824C101.861 33.7241 101.667 33.913 101.492 34.0075C101.433 34.0547 101.355 34.0075 101.297 33.9602C101.122 33.913 101.064 34.0075 101.064 34.4326C101.064 34.527 101.064 34.5743 101.083 34.6687C101.025 34.6687 100.966 34.6687 100.908 34.6687C100.889 34.6687 100.85 34.716 100.83 34.7632C100.811 34.8104 100.811 34.8577 100.811 34.9049C100.85 35.0466 100.908 35.0466 100.966 34.9521C101.025 34.8577 101.044 34.7632 101.064 34.6215C101.219 34.6215 101.394 34.6687 101.511 34.9994C101.647 35.3772 101.822 35.5661 102.036 35.5661C102.095 35.5661 102.172 35.6134 102.231 35.6606C102.309 35.7078 102.406 35.9912 102.386 36.1802C102.328 36.558 102.328 36.9359 102.386 37.3137C102.406 37.4554 102.386 37.6444 102.348 37.7388C102.172 38.0695 101.997 38.4473 101.822 38.7779C101.764 38.8724 101.706 38.8724 101.628 38.8724C101.453 38.8724 101.317 38.6835 101.161 38.589C101.103 38.5418 101.025 38.589 100.966 38.6362C100.791 38.8724 100.675 39.2975 100.5 39.4392C100.422 39.5337 100.402 39.6754 100.461 39.7226C100.48 39.7698 100.519 39.7698 100.558 39.7698C100.616 39.7698 100.694 39.8171 100.752 39.7226C100.869 39.6281 100.986 39.4392 101.103 39.3447C101.258 39.203 101.414 39.2503 101.569 39.4392C101.589 39.4864 101.628 39.5337 101.647 39.5809C101.706 39.8643 101.764 40.1477 101.803 40.4311C101.861 40.8089 101.959 41.0923 102.114 41.2813C102.231 41.423 102.25 41.7536 102.153 42.0842C102.056 42.4148 101.959 42.7455 101.881 43.0761C101.803 43.3595 101.706 43.5012 101.569 43.5484C101.219 43.5956 100.85 43.6429 100.5 43.7373C100.422 43.7373 100.383 43.9263 100.383 44.068C100.363 44.2569 100.402 44.3986 100.461 44.4458C100.519 44.4931 100.577 44.5403 100.636 44.5875C100.791 44.5875 100.966 44.5875 101.122 44.7292C101.219 44.7764 101.297 44.9181 101.336 45.1543C101.375 45.3432 101.355 45.4849 101.258 45.4849C100.927 45.5794 100.616 45.5794 100.286 45.5794C100.227 45.296 100.13 45.1071 99.9937 45.1071C99.8381 45.1071 99.6825 45.1071 99.5268 45.1543C99.5074 45.1543 99.4685 45.2015 99.449 45.296C99.4296 45.3905 99.4685 45.4849 99.5463 45.5322C99.7992 45.6739 100.033 45.5794 100.286 45.5794C100.324 45.8156 100.402 45.9573 100.5 46.0045C100.597 46.0517 100.694 46.099 100.752 46.2879C100.811 46.4768 100.811 46.8074 100.713 46.8547C100.655 46.9019 100.597 46.9491 100.519 46.9491C100.383 46.9491 100.266 46.9019 100.13 46.8074C100.013 46.713 99.877 46.6185 99.7603 46.5713C99.5074 46.524 99.2545 46.4296 99.0016 46.1934C98.8849 46.099 98.7487 46.0517 98.6125 46.0517C98.2818 46.0517 97.9706 46.099 97.6399 46.1462C97.601 46.1462 97.5815 46.1462 97.5426 46.1934C97.4259 46.2406 97.4259 46.3823 97.5232 46.3823C97.7177 46.4768 97.9122 46.4768 98.1068 46.524C98.204 46.5713 98.2818 46.6657 98.3596 46.8547C98.418 46.9964 98.4375 47.1381 98.3791 47.2325C98.3596 47.2798 98.3207 47.327 98.3013 47.327C98.1457 47.2325 97.99 47.1381 97.8344 47.0908C97.6399 47.0436 97.4453 47.0908 97.2508 47.1381C96.9979 47.1853 96.745 47.4687 96.4921 47.4687C96.2587 47.4687 96.0447 47.5159 95.8113 47.5632C95.714 47.6104 95.6362 47.7521 95.5973 47.9882C95.5778 47.9882 95.5389 48.0355 95.5195 48.0355C95.5 48.0355 95.5 48.1299 95.5 48.1772C95.5584 48.1772 95.5778 48.1299 95.5778 47.941C95.6751 47.941 95.7724 47.9882 95.8696 47.9882C96.0642 48.0355 96.0836 48.1299 96.0447 48.6023C96.0058 49.0274 96.0058 49.0746 96.0642 49.2635C96.2392 49.7358 96.4143 50.2082 96.5894 50.6805C96.6283 50.8222 96.6672 50.9639 96.6478 51.1056C96.6088 51.2473 96.5505 51.2945 96.4727 51.2945C96.3754 51.3417 96.2781 51.3417 96.1809 51.389C96.1031 51.4362 96.0252 51.7196 96.0252 51.9085C96.0058 52.2864 96.0058 52.7115 96.0642 53.0893C96.142 53.5144 96.2392 53.9395 96.317 54.3646C96.3754 54.648 96.3754 54.9786 96.356 55.3093C96.356 55.4037 96.3365 55.4509 96.317 55.5454C96.2392 55.9233 96.2392 56.3011 96.3365 56.679C96.4143 56.9624 96.4143 57.293 96.3754 57.5764C96.3365 57.8126 96.2781 58.0015 96.2976 58.2377C96.356 58.6627 96.2587 58.9934 96.1614 59.324C96.1031 59.5129 96.1031 59.7491 96.1614 59.9852C96.1809 60.0325 96.1809 60.1269 96.2003 60.2214C96.2781 61.0244 96.2781 61.7801 96.0447 62.4886C96.0058 62.6303 95.9474 62.7247 95.928 62.8664C95.8307 63.4804 95.8113 64.0945 95.9669 64.6612C96.0447 64.9446 96.142 65.1336 96.2976 65.1336C96.356 65.1336 96.4338 65.1336 96.4921 65.1336C96.531 65.1336 96.5505 65.1336 96.5894 65.1808C96.6283 65.228 96.6672 65.228 96.6672 65.2753C96.6867 65.3697 96.6478 65.4642 96.5699 65.5114C96.5116 65.5587 96.4338 65.5114 96.3754 65.5587C96.1614 65.6059 96.0836 65.8421 96.2198 66.3144C96.3754 66.8339 96.356 66.8812 96.1225 67.0701C96.0252 67.1173 95.9474 67.2118 95.8502 67.3535C95.7724 67.4952 95.714 67.7313 95.7724 67.9675C95.8502 68.3454 95.8891 68.7232 95.8696 69.1011C95.8307 69.5734 95.8696 70.0457 95.9085 70.5181C95.9669 71.1321 95.9669 71.1321 95.8502 71.6044C95.8307 71.6516 95.8113 71.7461 95.7918 71.7933C95.7529 71.935 95.7529 72.0767 95.7724 72.2184C95.8891 72.8797 96.0058 73.4937 96.1225 74.1549C96.1614 74.4383 96.1809 74.4856 95.9863 74.6273C95.8113 74.769 95.6945 74.9579 95.6556 75.4302C95.6556 75.5247 95.6362 75.5719 95.6362 75.6664C95.5778 75.8553 95.5195 76.0442 95.4222 76.0915C95.3249 76.1387 95.2277 76.1387 95.1304 76.1859C95.0526 76.2332 95.0137 76.3276 95.0331 76.4221C95.0526 76.4693 95.0915 76.5166 95.1109 76.5638C95.1693 76.611 95.2471 76.611 95.3055 76.6583C95.4027 76.7055 95.4611 76.9889 95.4416 77.225C95.4222 77.3667 95.3833 77.5557 95.4027 77.6974C95.4416 77.9335 95.5389 78.028 95.5973 78.1697C95.6556 78.3114 95.6556 78.4531 95.6556 78.5948C95.6167 79.0199 95.4806 79.256 95.3249 79.3505C95.072 79.4922 94.7997 79.5394 94.5468 79.6811C94.3523 79.7756 94.1772 79.9173 93.9632 79.9173C93.7103 79.9173 93.438 80.0118 93.2045 80.2951C93.0878 80.4368 92.9516 80.4368 92.8155 80.4368C92.6209 80.4841 92.4264 80.4841 92.2319 80.6258C92.0179 80.8147 91.7844 80.8619 91.551 80.9092C91.1619 81.0036 90.7729 81.0036 90.3838 81.287C90.2671 81.3815 90.1309 81.3815 89.9947 81.3815C89.5668 81.4287 89.1388 81.4287 88.7303 81.7121C88.6719 81.7593 88.5941 81.7121 88.5357 81.6649C88.4385 81.6176 88.3412 81.6176 88.2439 81.7121C88.0299 81.901 87.7965 81.9483 87.5631 81.9483C87.0378 81.9955 86.5126 81.9955 85.9873 81.9955C85.4232 81.9955 84.8785 82.0427 84.3144 82.0427C83.5557 82.0427 82.8165 82.0427 82.0578 82.09C81.5714 82.1372 81.0851 82.09 80.5793 82.1372C80.4042 82.1372 80.2486 82.0427 80.1124 81.8538C80.0541 81.7593 79.9957 81.8066 79.9179 81.8538C79.8012 81.9955 79.665 82.0427 79.5289 82.0427C78.9647 82.0427 78.42 82.0427 77.8559 82.0427C77.817 82.0427 77.7781 82.0427 77.7586 82.0427C77.5835 81.8538 77.389 81.8538 77.1945 81.901C76.9027 81.5704 76.6303 81.6649 76.3385 81.9483C76.1829 82.09 76.0273 82.1372 75.8522 82.1372C75.6187 82.09 75.3853 82.1372 75.1713 81.9483C75.113 81.901 75.0351 81.9483 74.9768 81.9955C74.8017 82.1372 74.685 81.9955 74.5683 81.6176C74.4515 81.2398 74.3154 81.1926 74.1403 81.4287C73.9652 81.6649 73.7901 81.7593 73.5761 81.7593C73.2843 81.7593 72.9925 81.8066 72.7007 81.7593C72.5451 81.7121 72.37 81.7593 72.2144 81.8538C72.0588 81.9955 71.9032 81.901 71.7281 81.8538C71.2612 81.7121 70.3469 81.6649 69.7633 81.7121C69.5299 81.7593 69.3159 81.7593 69.0824 81.7593C68.9852 81.7593 68.8879 81.7121 68.8101 81.5704C68.6545 81.3815 68.4988 81.3343 68.3432 81.5232C68.2654 81.6176 68.1681 81.7121 68.0709 81.7121C67.818 81.6649 67.5456 81.7121 67.2927 81.4759C67.0204 81.2398 66.7091 81.287 66.4173 81.287C66.359 81.287 66.2812 81.3342 66.2228 81.3815C66.0672 81.5232 65.9115 81.6176 65.7559 81.6176C65.503 81.6176 65.2307 81.6649 64.9778 81.7121C64.7832 81.7121 64.5887 81.6649 64.3942 81.4759C64.2969 81.3815 64.1996 81.3342 64.1024 81.3342C63.7717 81.3342 63.441 81.287 63.1297 81.5704C63.013 81.6649 62.8768 81.7121 62.7407 81.7121C62.5461 81.7121 62.3516 81.6649 62.1571 81.4759C62.0403 81.3342 61.9236 81.2398 61.7874 81.0981C61.7291 81.0509 61.6707 81.0509 61.5929 81.0981C61.2817 81.3342 60.951 81.287 60.6202 81.287C60.523 81.287 60.5035 81.1453 60.523 80.9564C60.5424 80.7675 60.5424 80.6258 60.4841 80.5313C60.4257 80.4368 60.3674 80.3896 60.2895 80.4368C60.1923 80.4841 60.095 80.5313 59.9977 80.5785C59.9394 80.6258 59.881 80.6258 59.8032 80.5785C59.7059 80.4841 59.6087 80.4841 59.5114 80.4368C59.3752 80.3896 59.2391 80.3896 59.1223 80.5313C58.7527 80.9564 58.3637 80.9092 57.9746 80.9564C57.8773 80.9564 57.7801 80.8619 57.7023 80.7202C57.5661 80.4841 57.4883 80.1534 57.391 79.8228C57.3521 79.6811 57.2743 79.6339 57.2159 79.6339C57.1576 79.6339 57.0797 79.5867 57.0214 79.6339C56.8074 79.87 56.5545 79.5867 56.36 79.87C56.1654 79.9645 55.9709 80.1062 55.7958 80.2479C55.6986 80.3424 55.6013 80.2951 55.504 80.2007C55.4457 80.1534 55.3873 80.059 55.3095 80.059C54.7843 80.0117 54.259 79.9173 53.7338 80.059C53.6365 80.1062 53.5587 80.2479 53.5003 80.4368L53.5198 80.3896C53.4225 80.3424 53.3253 80.3896 53.228 80.2951C53.0918 80.1534 52.9946 80.1062 52.8778 80.3424C52.8389 80.4368 52.7806 80.5313 52.7222 80.6258C52.6638 80.7202 52.6055 80.7675 52.5471 80.8147C52.2553 80.9092 51.9635 80.9564 51.6717 81.0036C51.4383 81.0036 51.2243 80.9564 50.9909 80.8619C50.8547 80.8147 50.8741 80.5313 50.8741 80.3424C50.8741 80.2951 50.8547 80.2007 50.8352 80.1534C50.738 80.0117 50.2322 79.6811 50.096 79.6339C49.9404 79.5867 49.7653 79.5867 49.6097 79.5394C49.4735 79.5394 49.3568 79.445 49.2401 79.256C49.1233 79.1143 49.0066 78.9726 48.8899 78.8782C48.8315 78.8309 48.7537 78.7837 48.6954 78.7837C48.4036 78.8782 48.1118 78.5475 47.82 78.642C47.6643 78.6892 47.4893 78.642 47.3336 78.5948C46.9835 78.5003 46.6139 78.5003 46.2637 78.5475C46.0303 78.5948 45.8163 78.4531 45.6023 78.2641C45.4467 78.1224 45.291 78.1697 45.116 78.2169C45.0576 78.2641 44.9798 78.2641 44.9214 78.3586C44.7658 78.5003 44.6102 78.5475 44.4351 78.5948C44.2017 78.5948 43.9877 78.642 43.7542 78.642C43.5792 78.642 43.4235 78.5475 43.2874 78.3586C43.1512 78.2169 43.0345 78.2169 42.9177 78.4058C42.7427 78.642 42.587 78.8782 42.4898 79.3505C42.3925 79.8228 42.198 79.9645 42.0034 80.0117C41.8089 80.059 41.6144 80.0117 41.4198 80.0117C41.3226 80.0117 41.2253 80.0117 41.128 79.9173C40.6806 79.5866 40.2332 79.5866 39.7663 79.5394C39.5329 79.5394 39.3189 79.4922 39.0854 79.256C38.9882 79.1616 38.8909 79.1616 38.7936 79.1616C38.1322 79.1616 37.4903 79.1143 36.8289 79.1143C36.5954 79.1143 36.3814 79.0199 36.1675 78.8309C36.0507 78.6892 35.9146 78.6892 35.7784 78.642C35.6422 78.642 35.5255 78.642 35.3893 78.642C35.0975 78.642 34.8057 78.642 34.5139 78.5948C34.3777 78.5948 34.261 78.5475 34.1249 78.4531C33.9303 78.3114 33.7358 78.2641 33.5413 78.2641C33.1522 78.2641 32.7631 78.2169 32.3741 78.2169C32.1406 78.2169 31.9266 78.1697 31.6932 77.9335C31.5376 77.7918 31.3819 77.7918 31.2069 77.7918C30.6816 77.7446 30.1564 77.7446 29.6311 77.6974C29.495 77.6974 29.3588 77.6974 29.2421 77.6029C28.9503 77.3667 28.6585 77.3195 28.3667 77.3195C28.0165 77.3195 27.6469 77.3195 27.2967 77.2723C27.1606 77.2723 27.0244 77.2723 26.9077 77.1778C26.6548 76.9889 26.4019 76.9416 26.1295 76.9416C25.8961 76.9416 25.6821 76.8944 25.4487 76.8944C25.3514 76.8944 25.2542 76.8944 25.1569 76.7999C24.8067 76.4221 24.4566 76.5165 24.087 76.4693C23.9508 76.4693 23.8341 76.4693 23.6979 76.4693C23.5228 76.4693 23.3672 76.3748 23.231 76.1859C23.0754 75.997 22.9198 75.9025 22.7641 75.9498C22.2 76.0915 21.6553 75.997 21.1106 75.9498C20.9744 75.9498 20.8577 75.9025 20.7215 75.7608C20.5659 75.6191 20.4103 75.5719 20.2352 75.5719C19.9823 75.5719 19.71 75.5247 19.4571 75.5247C19.2042 75.4774 18.9318 75.4774 18.6789 75.2885C18.5622 75.194 18.426 75.194 18.2899 75.1468C18.0564 75.0996 17.8424 75.0996 17.609 75.0523C17.5117 75.0523 17.4145 75.0523 17.3172 74.9579C17.006 74.6273 16.6752 74.6273 16.364 74.6273C16.0333 74.6273 15.722 74.4856 15.3913 74.2966C15.0023 74.1077 14.6132 74.1549 14.2241 74.0605C14.2047 74.0605 14.1658 74.0132 14.1658 73.966C14.1658 73.8715 14.1852 73.7771 14.2047 73.7298C14.263 73.6354 14.3214 73.5881 14.3603 73.4937C14.4187 73.3992 14.4576 73.2575 14.4965 73.163C14.5159 73.1158 14.5354 73.0214 14.5159 72.9741C14.4965 72.9269 14.4576 72.8324 14.4381 72.8324C14.2825 72.7852 14.1074 72.7852 13.9518 72.6907C13.6016 72.549 13.5627 72.549 13.3293 72.8797C13.3098 72.9269 13.2904 72.9741 13.2709 73.0686C13.2515 73.1158 13.2515 73.2103 13.232 73.3047L13.2515 73.2575C13.1542 73.2103 13.0958 73.0214 13.0764 72.7852C13.2126 72.9269 13.2126 72.7852 13.1931 72.6435ZM93.3018 74.8634C93.2434 74.8634 93.1851 74.8634 93.1267 74.8634C93.1073 74.8634 93.0683 74.9107 93.0489 74.9579C93.0294 75.0051 93.0294 75.0524 93.0294 75.0996C93.0683 75.1941 93.1267 75.2413 93.1851 75.1468C93.2434 75.1468 93.2823 75.0051 93.3018 74.8634C93.3212 74.8162 93.3407 74.8162 93.3796 74.769C93.3991 74.769 93.3991 74.6745 93.3991 74.6273C93.3407 74.58 93.3018 74.6745 93.3018 74.8634ZM94.2745 75.8081C93.9243 75.7608 93.5547 75.8081 93.224 76.1387C93.1656 76.1859 93.1073 76.2332 93.0294 76.2332C92.7376 76.3276 92.4458 76.3749 92.154 76.2332C92.1151 76.2332 92.0762 76.1859 92.0568 76.1387C92.0373 76.0442 92.0568 75.9025 92.1151 75.8081C92.1735 75.7136 92.1929 75.5719 92.154 75.4774C92.1346 75.4302 92.0957 75.383 92.0762 75.383C91.8817 75.3358 91.6872 75.383 91.5121 75.6664C91.3565 75.9498 91.2008 76.2804 91.0258 76.4221C90.9868 76.4693 90.9674 76.5166 90.9479 76.5638C90.8701 76.7055 90.8312 76.9417 90.7729 77.1306C90.734 77.2723 90.8312 77.6501 90.8896 77.6974C91.123 77.7918 91.337 77.7446 91.5704 77.6029C91.7261 77.5084 91.8817 77.3195 92.0373 77.3195C92.2319 77.2723 92.4264 77.2723 92.6209 77.1778C92.8155 77.0833 92.9905 76.8944 93.1851 76.8C93.5158 76.7055 93.8076 76.3749 94.1188 76.1387C94.2161 76.0915 94.255 75.9498 94.2745 75.8081C94.4495 75.8081 94.6441 75.8081 94.8386 75.7136C94.8775 75.7136 94.897 75.6191 94.9164 75.5719C94.897 75.5247 94.8775 75.4774 94.858 75.4302C94.7413 75.3358 94.6052 75.2885 94.469 75.383C94.3912 75.4774 94.3134 75.5719 94.2745 75.8081ZM55.4457 3.40093C55.3289 3.54262 55.2122 3.68432 55.0955 3.82602C55.0372 3.87325 54.9593 3.87326 54.901 3.92048C54.8621 3.92048 54.8426 3.92048 54.8037 3.87325C54.7259 3.82602 54.7064 3.68432 54.7259 3.49539C54.7454 3.212 54.687 3.0703 54.5703 3.0703C54.3757 3.0703 54.1812 3.0703 53.9867 3.0703C53.8894 3.0703 53.7921 3.11754 53.7143 3.25923C53.5003 3.58986 53.2864 3.4954 53.0529 3.40093C52.7028 3.02307 52.3526 3.0703 52.0024 3.212C51.9635 3.212 51.9441 3.25923 51.9052 3.25923C51.8468 3.30646 51.7885 3.25924 51.7106 3.212C51.6134 3.11754 51.5161 3.0703 51.4188 3.0703C51.2827 3.02307 51.1854 2.83414 51.1076 2.55075C51.0492 2.31459 50.9714 2.22012 50.8741 2.22012C50.8352 2.22012 50.8158 2.22012 50.7769 2.22012C50.5434 2.22012 50.31 2.22012 50.096 2.22012C49.8042 2.26735 49.5319 2.64521 49.2401 2.64521C49.1817 2.64521 49.1233 2.73967 49.065 2.78691C49.0261 2.83414 49.0066 2.88137 48.9872 2.88137C48.9094 2.97583 48.8121 3.11753 48.7148 3.11753C48.3841 3.11753 48.0534 3.11753 47.7422 3.0703C47.6449 3.0703 47.5476 2.97583 47.4893 2.78691C47.3726 2.45628 47.2364 2.31459 47.0613 2.26735C46.4777 2.12566 45.8941 2.22012 45.291 2.26735C45.1938 2.26735 45.116 2.40905 45.0576 2.64521C45.0187 2.83414 44.9409 3.02307 44.8631 3.16477C44.7853 3.25923 44.7853 3.40093 44.8047 3.49539C44.8242 3.54262 44.8631 3.58985 44.8825 3.58985C45.116 3.68432 45.33 3.68432 45.5634 3.87325C45.6218 3.92048 45.6996 3.92048 45.7579 3.87325C45.8941 3.77879 46.0108 3.77879 46.147 3.92048C46.361 4.10942 46.575 4.29834 46.789 4.44004C46.9057 4.5345 47.0418 4.48727 47.1586 4.34558C47.2947 4.15664 47.4504 4.01495 47.6254 4.01495C47.7811 4.01495 47.9561 4.01495 48.1118 4.01495C48.2869 4.01495 48.4425 4.10941 48.5787 4.34558C48.6954 4.5345 48.8121 4.58174 48.9483 4.58174C49.4346 4.58174 49.9209 4.6762 50.4073 4.44004C50.6407 4.44004 50.8741 4.48727 51.0881 4.44004C52.0024 4.3928 52.9167 4.44004 53.831 4.44004C54.4536 4.44004 55.0761 4.44005 55.6986 4.39281C55.7375 4.39281 55.7569 4.3928 55.7958 4.34558C55.8347 4.34558 55.8542 4.29835 55.8931 4.25111C55.9904 4.20388 56.0293 3.92048 55.9709 3.68432C55.8347 2.97584 55.6207 2.88138 55.4457 3.40093ZM26.9466 73.8715C26.6937 74.2022 26.4019 74.4383 26.1295 74.6273C26.0712 74.6745 26.0128 74.6273 25.935 74.58C25.8377 74.5328 25.7405 74.4856 25.6432 74.4383C25.4876 74.4383 25.3125 74.4383 25.1569 74.4383C25.0207 74.4383 24.904 74.3911 24.7873 74.2022C24.6316 74.0132 24.476 73.966 24.3204 74.0132C24.1259 74.0605 23.9508 74.2494 23.7368 74.1549C23.6784 74.1077 23.6201 74.2022 23.5617 74.2966C23.4061 74.4856 23.2505 74.4856 23.0948 74.2966C23.017 74.2022 22.9198 74.1077 22.8225 74.0132C22.7252 73.9188 22.6474 73.966 22.5501 74.1549C22.4529 74.3911 22.4723 74.6273 22.5696 74.7217C22.9587 75.0996 23.3672 75.383 23.8146 75.2885C23.873 75.2885 23.9508 75.2885 24.0091 75.2885C24.2426 75.2885 24.4566 75.383 24.6705 75.6191C24.7484 75.7136 24.8651 75.7608 24.9623 75.7608C25.0985 75.8081 25.2152 75.8081 25.3514 75.7608C26.0323 75.6191 26.7326 75.7608 27.4135 75.7608C27.5107 75.7608 27.608 75.8553 27.7053 75.9498C27.822 76.0442 27.9582 76.1387 28.0554 76.3276C28.25 76.6582 28.4834 76.7055 28.6974 76.8944C28.7557 76.9416 28.8336 76.9889 28.8919 76.8944C29.0475 76.7055 29.2032 76.611 29.3588 76.611C29.6506 76.611 29.9424 76.611 30.2342 76.3748C30.2926 76.3276 30.3704 76.3748 30.4287 76.4221C30.526 76.4693 30.6233 76.611 30.7011 76.611C30.8956 76.6582 31.0707 76.9416 31.2263 77.225C31.3236 77.4612 31.4598 77.5084 31.5959 77.5084C31.8877 77.5084 32.1795 77.5084 32.4713 77.5084C32.7242 77.5084 32.9966 77.4612 33.23 77.1778C33.2884 77.1306 33.3662 77.1306 33.4245 77.1306C33.5218 77.1306 33.6385 77.1306 33.7163 77.225C33.9498 77.5084 34.2221 77.5084 34.4556 77.7918C34.5723 77.9335 34.7085 77.9807 34.8446 77.9807C35.0392 77.9807 35.2337 77.9807 35.4282 77.9807C35.6617 77.9807 35.8757 78.1224 36.0896 78.3114C36.1869 78.4058 36.3036 78.3114 36.362 78.1224C36.4398 77.8863 36.5371 77.6501 36.6343 77.4612C36.7316 77.3195 36.7121 77.1306 36.6149 76.8944C36.5371 76.7055 36.4982 76.7055 36.3425 76.7999C36.2453 76.8944 36.148 76.8944 36.0507 76.7999C35.8951 76.6582 35.7589 76.5165 35.6033 76.3276C35.5449 76.2804 35.4671 76.2804 35.4088 76.3749C35.1948 76.611 34.9613 76.6582 34.7279 76.6582C34.3388 76.611 33.9498 76.6582 33.5607 76.3276C33.5024 76.3748 33.4245 76.3749 33.3856 76.4221C33.2884 76.5165 33.1911 76.5165 33.1133 76.4221C33.0549 76.3276 32.9966 76.2332 32.9577 76.1387C32.802 75.8081 32.6269 75.6191 32.413 75.6664C31.9266 75.7608 31.4403 75.5719 30.954 75.7136C30.8956 75.7136 30.8178 75.6664 30.7594 75.6664C30.6233 75.6191 30.5454 75.383 30.5065 75.0051C30.4871 74.6745 30.6038 74.3439 30.7205 74.4383C30.9345 74.6273 31.168 74.6745 31.4014 74.6745C31.8877 74.6273 32.3741 74.6273 32.8604 74.9579C32.9187 75.0051 32.9771 74.9579 33.0549 74.9106C33.1133 74.8634 33.1716 74.8162 33.2495 74.8162C33.7358 74.769 34.2221 74.769 34.7279 74.769C34.7863 74.769 34.8641 74.8162 34.9224 74.8634C35.0781 75.0523 35.2337 75.0996 35.3893 75.0996C35.7784 75.0996 36.1675 75.0996 36.576 75.0996C36.7705 75.0996 36.965 75.1468 37.1596 75.3357C37.4125 75.5719 37.6654 75.6664 37.9377 75.6191C38.1322 75.6191 38.3268 75.6191 38.5213 75.6191C38.6964 75.6191 38.852 75.7136 38.9882 75.9025C39.1049 76.0442 39.2411 76.0442 39.3772 75.9498C39.494 75.8553 39.6107 75.7136 39.7274 75.5719C39.7858 75.4774 39.8247 75.3357 39.8052 75.2413C39.7858 75.194 39.7469 75.1468 39.7274 75.1468C39.3772 75.0996 39.0076 75.0996 38.6575 75.0523C38.5213 75.0523 38.4046 75.0051 38.2684 74.9106C38.0739 74.769 37.8793 74.7217 37.6848 74.7217C37.2957 74.7217 36.9067 74.7217 36.5176 74.6745C36.3814 74.6745 36.2453 74.6273 36.1285 74.5328C35.9146 74.3439 35.6811 74.2966 35.4477 74.2966C34.9224 74.3439 34.3972 74.2022 33.872 74.2022C33.7358 74.2022 33.6191 74.1549 33.4829 74.0605C33.23 73.8715 32.9771 73.7771 32.7048 73.7771C32.3157 73.8243 31.9266 73.7771 31.5376 73.4937C31.4208 73.3992 31.2847 73.4464 31.1485 73.3992C30.6816 73.352 30.2342 73.3047 29.7673 73.2575C29.6311 73.2575 29.5144 73.2103 29.3783 73.1158C29.1254 72.9269 28.8725 72.8797 28.6001 72.8797C28.1332 72.8797 27.6858 72.8324 27.2189 72.8324C27.0633 72.8324 26.8882 72.738 26.7326 72.5963C26.6159 72.4546 26.4797 72.4546 26.3435 72.4546C26.0517 72.4546 25.7599 72.4073 25.4681 72.4073C25.332 72.4073 25.1958 72.4073 25.0791 72.2656C24.8262 72.0295 24.5733 71.9822 24.3009 71.9822C23.9508 71.9822 23.5812 71.9822 23.231 71.935C23.1337 71.935 23.0365 71.935 22.9392 71.8405C22.6863 71.6044 22.4334 71.5572 22.1611 71.5572C21.4802 71.5099 20.7799 71.5099 20.099 71.6044C20.0407 71.6044 19.9629 71.6516 19.9045 71.6516C19.8656 71.6516 19.8461 71.6988 19.8267 71.7461C19.7878 71.8405 19.8267 71.935 19.924 71.9822C20.2157 72.1239 20.5075 72.0295 20.7799 72.3601C20.8966 72.5018 21.0328 72.4546 21.169 72.4546C21.4608 72.4546 21.7526 72.4546 22.0444 72.4546C22.2 72.4546 22.3751 72.5018 22.5307 72.6435C22.7836 72.9269 23.0365 72.9741 23.2894 72.9741C23.5812 72.9741 23.873 72.9741 24.1648 72.9741C24.3982 72.9741 24.6122 73.0686 24.8456 73.2575C24.9623 73.352 25.0985 73.3992 25.2347 73.3992C25.4292 73.3992 25.6238 73.3992 25.8183 73.3992C26.1101 73.352 26.4019 73.3992 26.6937 73.4464C26.791 73.4464 26.8688 73.6354 26.9077 73.8715L26.9466 73.8715ZM58.5193 4.77067C59.0445 4.72343 59.4336 4.72343 59.8227 4.72343C59.8616 4.72343 59.881 4.72343 59.9199 4.72343C59.9783 4.67621 60.0561 4.6762 60.1145 4.58174C60.2895 4.34558 60.4841 4.34557 60.6786 4.29834C60.737 4.29834 60.7953 4.20388 60.8537 4.15665C60.9315 4.10942 61.0482 3.68432 61.0093 3.58986C60.9704 3.44816 60.8926 3.44816 60.8342 3.40093C60.6786 3.3537 60.5035 3.3537 60.3479 3.54263C60.309 3.58986 60.2895 3.63709 60.2701 3.63709C60.1145 3.77879 60.0561 3.68432 60.0561 3.25923C60.0561 3.0703 60.0367 2.97584 59.9394 2.92861C59.7448 2.83414 59.5503 2.97584 59.3558 2.97584C59.1223 2.97584 58.9084 2.92861 58.6749 2.92861C58.6166 2.92861 58.5582 3.02307 58.4998 3.11754C58.4026 3.212 58.3637 3.44816 58.2859 3.58986C58.208 3.77878 58.1108 3.82602 58.0135 3.77879C57.9551 3.77879 57.8773 3.73156 57.819 3.68432C57.4299 3.30647 57.0603 3.30646 56.6907 3.77879C56.6129 3.87325 56.4961 3.87326 56.3989 3.92048C56.3211 3.96772 56.2822 4.06218 56.3211 4.15665C56.3405 4.20388 56.3794 4.25111 56.3989 4.25111C56.6323 4.29835 56.8463 4.34558 57.0603 4.58174C57.177 4.72343 57.3132 4.77067 57.4494 4.72343C57.8773 4.77067 58.2664 4.72343 58.5193 4.77067ZM23.5617 53.9395C23.659 53.8923 23.7757 53.8923 23.9119 53.7978C23.9508 53.7978 23.9702 53.7033 23.9897 53.7033C24.0675 53.6089 24.087 53.5144 24.087 53.3255C24.0675 53.1838 24.0286 52.9949 23.9702 52.9949C23.7173 52.9004 23.4644 52.6642 23.231 52.3336C23.2116 52.2864 23.1726 52.2391 23.1532 52.2391C22.9976 52.0974 22.8419 52.003 22.6669 52.1919C22.4529 52.3808 22.2389 52.5698 22.0054 52.5698C21.6747 52.5698 21.344 52.5225 21.0328 52.2864C20.6243 51.9557 20.1963 51.9557 19.7683 52.1447C19.6711 52.1919 19.5932 52.3336 19.5349 52.5225C19.496 52.6642 19.4765 52.8059 19.5154 52.9476C19.5543 53.0893 19.5932 53.1838 19.6711 53.231C19.71 53.231 19.7294 53.2782 19.7683 53.2782C20.1574 52.9948 20.5465 52.9949 20.9161 53.3255C21.0717 53.4672 21.2468 53.4199 21.4024 53.5616C21.5969 53.7506 21.772 53.7033 21.9665 53.5144C22.1222 53.3727 22.2972 53.3727 22.4529 53.4672C22.5891 53.5616 22.7058 53.6561 22.8225 53.7506C23.0559 53.8923 23.2894 53.9395 23.5617 53.9395ZM32.1406 70.2346C31.9461 70.4708 31.7905 70.8487 31.5765 71.0848C31.557 71.1321 31.5181 71.1793 31.5181 71.2738C31.4987 71.321 31.4987 71.4155 31.5181 71.5099C31.557 71.7461 31.6543 71.8405 31.7515 71.8405C31.9072 71.8405 32.0628 71.6516 32.199 71.5099C32.3741 71.2738 32.4324 70.8487 32.2379 70.4236C32.199 70.2819 32.1795 70.2819 32.1406 70.2346ZM20.527 66.8339C20.527 67.0228 20.5659 67.1173 20.6437 67.1645C20.9355 67.3062 21.2079 67.2118 21.4997 67.259C21.7137 67.3062 21.9471 67.259 22.1611 67.2118C22.2389 67.2118 22.2778 67.0701 22.2583 67.0228C22.2389 66.9756 22.2 66.9284 22.1805 66.9284C21.9276 66.8812 21.6747 66.8339 21.4218 66.8812C21.1884 66.9284 20.9744 66.7867 20.7604 66.5978C20.741 66.5505 20.7021 66.5978 20.6632 66.5978C20.5854 66.5505 20.5465 66.6922 20.527 66.8339ZM31.0901 68.5815C30.9734 68.5815 30.8178 68.5815 30.6622 68.5815C30.6427 68.5815 30.5844 68.6287 30.5844 68.676C30.5649 68.8177 30.6038 68.9594 30.6622 69.0066C30.7983 69.1955 30.954 69.3372 31.1096 69.1955C31.2847 69.0066 31.4987 69.1011 31.6543 68.8649C31.6737 68.8177 31.6737 68.7704 31.6932 68.7232C31.6737 68.676 31.6348 68.6287 31.6154 68.6287C31.4598 68.6287 31.2847 68.6287 31.0901 68.5815ZM93.0294 6.9906C93.0294 7.08506 93.0489 7.13229 93.0489 7.22676C93.0878 7.41569 93.1267 7.65185 93.1851 7.84077C93.224 7.98247 93.3018 8.02971 93.3601 7.93524C93.4185 7.88801 93.4574 7.74631 93.4769 7.60461C93.4963 7.36845 93.4963 7.13229 93.438 6.94336C93.3601 6.7072 93.2434 6.65997 93.0878 6.8489C93.0683 6.89613 93.0489 6.94336 93.0294 6.9906ZM18.8151 69.6679C18.8735 69.6679 18.9513 69.6679 19.0096 69.6206C19.0485 69.6206 19.068 69.5734 19.0874 69.5262C19.1069 69.4789 19.1264 69.4317 19.1264 69.3845C19.1069 69.3372 19.068 69.2428 19.0485 69.2428C18.8346 69.1955 18.6206 69.0538 18.3871 69.0066C18.3677 69.0066 18.3288 69.1011 18.3288 69.1483C18.3288 69.1955 18.3288 69.3372 18.3482 69.3845C18.4844 69.7151 18.6595 69.6206 18.8151 69.6679ZM93.7881 60.552C93.8465 60.552 93.9243 60.4576 93.9437 60.3159C93.9437 60.2686 93.9243 60.1742 93.9048 60.0797C93.827 59.7963 93.7103 59.6546 93.5741 59.6546C93.4963 59.6546 93.438 59.7019 93.3991 59.7963C93.3601 59.8908 93.3796 60.0325 93.438 60.1742C93.5352 60.4576 93.6519 60.552 93.7881 60.552ZM9.53589 26.4031C9.65261 26.4031 9.78878 26.3558 9.9055 26.3558C9.92495 26.3558 9.96386 26.3086 9.98332 26.2614C10.0028 26.2141 9.96386 26.0724 9.88605 26.0724C9.67206 26.0252 9.45808 26.0252 9.22463 26.0252C9.20518 26.0252 9.16628 26.0724 9.14682 26.1197C9.12737 26.1669 9.10791 26.2141 9.08846 26.2614C9.10791 26.3086 9.12737 26.3558 9.16627 26.4031C9.28299 26.4503 9.41917 26.4503 9.53589 26.4031ZM87.7965 79.8228C87.7576 79.8228 87.6798 79.8228 87.6214 79.8701C87.5242 79.8701 87.5047 79.9645 87.5242 80.1534C87.5436 80.2951 87.602 80.3896 87.6603 80.4368C87.7576 80.4841 87.8354 80.3424 87.9327 80.2479C87.991 80.2007 88.0494 80.1062 88.0688 79.9645C88.0299 79.8701 87.9716 79.8228 87.8938 79.8228C87.8938 79.7756 87.8549 79.7756 87.7965 79.8228ZM81.0462 78.4058C80.91 78.4531 80.8517 78.4531 80.7739 78.4531C80.735 78.4531 80.696 78.5003 80.696 78.5475C80.6766 78.642 80.735 78.7365 80.8128 78.7365C80.9878 78.7365 81.1824 78.8782 81.3575 78.6892C81.3769 78.6892 81.3964 78.5948 81.3964 78.5475C81.3769 78.5003 81.3575 78.4058 81.3186 78.4058C81.2018 78.4058 81.0851 78.4058 81.0462 78.4058ZM20.527 69.6679C20.5854 69.7151 20.6437 69.8096 20.7021 69.8568C20.7215 69.904 20.7604 69.904 20.7799 69.904C20.8382 69.904 20.8966 69.8096 20.9355 69.6679C20.9744 69.4789 20.955 69.3845 20.8772 69.3372C20.7604 69.3372 20.6243 69.3372 20.5075 69.3372C20.4686 69.3372 20.4297 69.3845 20.4297 69.3845C20.4103 69.5262 20.4492 69.6206 20.527 69.6679ZM24.6511 67.6369C24.8067 67.6369 24.8651 67.6369 24.9234 67.6369C24.9429 67.6369 24.9818 67.5896 25.0013 67.5424C25.0207 67.4479 24.9818 67.4007 24.904 67.3535C24.7484 67.3535 24.5927 67.3535 24.4371 67.3535C24.4177 67.3535 24.3788 67.4007 24.3593 67.4479C24.3398 67.4952 24.3788 67.5896 24.476 67.6369C24.5538 67.6369 24.6511 67.6369 24.6511 67.6369ZM3.07739 40.3838C3.15521 40.3838 3.09685 40.3838 3.03849 40.3838C2.96067 40.3838 2.90231 40.4311 2.88287 40.5727C2.86341 40.6672 2.92177 40.8089 2.99958 40.8089C3.15521 40.8089 3.31083 40.8089 3.46646 40.7617C3.54427 40.7617 3.60263 40.62 3.58318 40.5727C3.54427 40.4311 3.48591 40.4311 3.4081 40.4311C3.34974 40.4311 3.27193 40.4311 3.07739 40.3838ZM65.0945 4.06218C65.1529 4.01495 65.1918 3.87325 65.1918 3.73156C65.1918 3.58986 65.1529 3.44817 65.0751 3.40093C65.0167 3.3537 64.9583 3.3537 64.8805 3.40093C64.8027 3.40093 64.7638 3.4954 64.7833 3.68433C64.7833 3.73156 64.8027 3.82602 64.8222 3.87325C64.9 4.06219 64.9778 4.10941 65.0945 4.06218ZM30.8567 53.845C30.7983 53.845 30.74 53.845 30.6816 53.8923C30.6038 53.9395 30.5649 53.9867 30.5844 54.1284C30.6038 54.1757 30.6233 54.2701 30.6427 54.2701C30.7205 54.3646 30.7983 54.4591 30.8956 54.5535C30.954 54.6008 31.0123 54.5535 31.0707 54.4591C31.1096 54.3646 31.1485 54.2229 31.1291 54.0812C31.0707 54.034 31.0123 53.9867 30.954 53.9395C30.9151 53.845 30.8762 53.845 30.8567 53.845ZM4.3224 40.4311C4.26404 40.4311 4.18623 40.4311 4.12787 40.4783C4.08896 40.4783 4.06951 40.5255 4.05006 40.5727C4.06951 40.6672 4.12787 40.7144 4.18624 40.7144C4.24459 40.7144 4.3224 40.7144 4.38076 40.7144C4.43913 40.7144 4.51694 40.7144 4.55584 40.62C4.59475 40.5255 4.47803 40.4311 4.3224 40.4311ZM101.336 9.96622C101.219 9.96622 101.083 10.1079 101.122 10.2024C101.161 10.3441 101.219 10.3913 101.278 10.3913C101.336 10.3913 101.394 10.3913 101.453 10.3913C101.511 10.3913 101.589 10.3913 101.628 10.2496C101.647 10.2024 101.589 10.0607 101.511 10.0607C101.472 9.96623 101.414 9.96622 101.336 9.96622ZM94.7219 8.12417C94.6246 8.12417 94.5273 8.12417 94.4495 8.31309C94.5273 8.50203 94.6246 8.50203 94.7219 8.54925C94.7608 8.54925 94.7802 8.54925 94.8191 8.54925C94.897 8.54925 94.9553 8.50203 94.9942 8.36033C94.9553 8.21863 94.897 8.17141 94.8386 8.17141C94.7802 8.17141 94.7608 8.1714 94.7219 8.12417ZM62.2154 4.29834C62.1765 4.10941 62.1376 3.92049 62.0987 3.73156C62.0792 3.68433 62.0403 3.63709 62.0209 3.63709C62.0014 3.63709 61.9625 3.73156 61.9625 3.77879C61.9236 4.06219 61.9431 4.39281 62.0403 4.58174C62.0987 4.6762 62.1571 4.62897 62.2154 4.53451C62.2154 4.48727 62.196 4.39281 62.2154 4.29834ZM44.6296 76.0442C44.6296 76.0442 44.5713 76.0442 44.5129 76.0442C44.474 76.0442 44.4546 76.0442 44.4351 76.0915C44.4156 76.1387 44.3767 76.1859 44.3573 76.1859C44.3767 76.2332 44.3962 76.3276 44.4351 76.3276C44.5324 76.3749 44.6102 76.3749 44.7074 76.3749C44.8436 76.3749 44.9409 76.2332 44.8825 76.1387C44.8047 76.0915 44.7658 76.0442 44.6296 76.0442ZM21.8887 70.1402C22.0249 70.0929 22.1222 70.0929 22.2194 70.0457C22.2389 70.0457 22.2778 69.9985 22.2972 69.9513C22.2778 69.904 22.2583 69.8568 22.2583 69.8568C22.1611 69.8096 22.0833 69.7623 21.986 69.7623C21.8887 69.7151 21.7526 69.904 21.7915 69.9985C21.8109 70.0929 21.8693 70.1402 21.8887 70.1402ZM99.6241 39.3447C99.6436 39.392 99.6825 39.4392 99.7019 39.4392C99.7992 39.4864 99.8965 39.4864 99.9548 39.2975C99.9548 39.2975 99.9159 39.1558 99.8965 39.1558C99.7992 39.0613 99.7214 39.0613 99.6241 39.203C99.6241 39.203 99.6241 39.2975 99.6241 39.3447ZM22.6474 70.1874C22.6669 70.2346 22.6669 70.3291 22.6863 70.3763C22.7447 70.5653 22.9198 70.518 22.9198 70.3763C22.9198 70.2346 22.8809 70.0929 22.8419 69.9985C22.7836 69.904 22.7252 69.8568 22.6863 69.9985C22.6669 70.0457 22.6669 70.0929 22.6474 70.1874ZM83.011 78.642C83.0304 78.6892 83.0499 78.7837 83.0694 78.7837C83.1666 78.8309 83.2444 78.8309 83.3222 78.6892C83.3417 78.642 83.3612 78.5948 83.3612 78.5475C83.3417 78.4059 83.225 78.3114 83.1277 78.4058C83.0499 78.4531 83.011 78.5003 83.011 78.642ZM71.2223 80.673C71.2612 80.8147 71.3196 80.8619 71.3779 80.8147C71.3974 80.8147 71.4168 80.7202 71.4363 80.673C71.4168 80.6258 71.3974 80.5785 71.3779 80.5313C71.3196 80.4841 71.2612 80.5313 71.2223 80.673ZM57.9746 80.0117C57.994 80.0117 58.0135 79.9645 58.0524 79.9173C58.033 79.87 58.033 79.8228 58.0135 79.7756C57.9357 79.7283 57.8968 79.8228 57.9162 79.9173C57.8968 79.9645 57.9551 80.0117 57.9746 80.0117ZM25.4681 67.873C25.4876 67.9203 25.4876 68.0147 25.507 68.0147C25.5265 68.0147 25.5654 68.0147 25.5849 68.0147C25.6432 67.9203 25.6238 67.8258 25.5265 67.8258C25.5265 67.8258 25.4876 67.873 25.4681 67.873ZM86.9017 59.8436C86.9017 59.8908 86.9017 59.9852 86.9211 59.9852C86.9406 60.0325 86.9795 60.0325 87.0184 60.0325C87.0962 59.938 87.0962 59.8436 86.9989 59.7963C86.96 59.7963 86.9211 59.8436 86.9017 59.8436ZM27.18 53.6089C27.1995 53.6561 27.2189 53.7033 27.2384 53.7506C27.2967 53.7978 27.3551 53.7506 27.394 53.6089C27.394 53.6089 27.3551 53.5144 27.3357 53.4672C27.2773 53.4199 27.2189 53.4672 27.18 53.6089ZM100.247 38.1639C100.227 38.2112 100.188 38.2112 100.169 38.2584C100.188 38.3056 100.208 38.3529 100.247 38.4001C100.324 38.4473 100.363 38.3529 100.344 38.2584C100.324 38.2112 100.286 38.2112 100.247 38.1639ZM35.72 4.39281C35.7395 4.44004 35.7589 4.48727 35.7784 4.5345C35.8367 4.58173 35.8951 4.5345 35.9146 4.39281C35.9146 4.39281 35.8757 4.29834 35.8562 4.25111C35.7978 4.20387 35.7589 4.25111 35.72 4.39281ZM21.344 69.9985L21.3829 69.904L21.3246 69.904L21.344 69.9985Z" fill="#00659E"/>
<g clip-path="url(#clip0)">
<path d="M76.7497 62.7501H75.6247V33.5001C76.565 33.3789 77.4281 32.9167 78.0503 32.2013C78.6724 31.4858 79.0102 30.5669 78.9997 29.6189C78.9997 26.9526 76.8622 26.0751 74.4997 24.5339V15.5001C74.4997 15.2017 74.3812 14.9156 74.1702 14.7046C73.9592 14.4936 73.6731 14.3751 73.3747 14.3751H66.6247C66.3263 14.3751 66.0402 14.4936 65.8292 14.7046C65.6182 14.9156 65.4997 15.2017 65.4997 15.5001V18.7176L55.071 11.9114C54.1573 11.3159 53.0903 10.9989 51.9997 10.9989C50.9092 10.9989 49.8421 11.3159 48.9285 11.9114L26.7885 26.3451C26.1195 26.7858 25.5999 27.4189 25.2983 28.161C24.9967 28.9031 24.9272 29.7192 25.099 30.5016C25.2709 31.284 25.6759 31.9959 26.2608 32.5433C26.8456 33.0907 27.5827 33.4478 28.3747 33.5676V62.7501H27.2497C26.9514 62.7501 26.6652 62.8686 26.4542 63.0796C26.2433 63.2906 26.1247 63.5767 26.1247 63.8751C26.1247 64.1735 26.2433 64.4596 26.4542 64.6706C26.6652 64.8816 26.9514 65.0001 27.2497 65.0001H76.7497C77.0481 65.0001 77.3342 64.8816 77.5452 64.6706C77.7562 64.4596 77.8747 64.1735 77.8747 63.8751C77.8747 63.5767 77.7562 63.2906 77.5452 63.0796C77.3342 62.8686 77.0481 62.7501 76.7497 62.7501ZM67.7497 16.6251H72.2497V23.1164L67.7497 20.1801V16.6251ZM27.2497 29.6639C27.2497 28.3476 26.3047 29.3601 50.1547 13.8014C50.7034 13.4432 51.3445 13.2524 51.9997 13.2524C52.655 13.2524 53.296 13.4432 53.8447 13.8014L75.9734 28.2351C76.3509 28.4813 76.6151 28.8673 76.7079 29.3082C76.8007 29.7492 76.7146 30.2089 76.4684 30.5864C76.2223 30.9638 75.8363 31.228 75.3953 31.3208C74.9544 31.4137 74.4946 31.3275 74.1172 31.0814L52.6185 17.0639C51.7185 16.4789 53.046 15.9389 29.8822 31.0814C29.6262 31.2498 29.3294 31.3459 29.0232 31.3594C28.7171 31.3728 28.4129 31.3033 28.1431 31.158C27.8733 31.0127 27.6478 30.7971 27.4905 30.534C27.3332 30.271 27.25 29.9703 27.2497 29.6639ZM30.6247 62.7501C30.6247 29.9564 30.411 33.4214 31.1085 32.9714L51.9997 19.3476L72.8909 32.9714C73.5772 33.4214 73.3747 29.9001 73.3747 62.7501H30.6247Z" fill="white"/>
<path d="M66.4112 32.9037C65.635 32.7462 65.5225 33.0837 62.7662 35.8287L61.36 35.3675L60.8987 33.9612C63.6212 31.2275 63.9812 31.0925 63.8237 30.305C63.5087 28.8425 58.48 27.9875 55.3412 31.1262C54.5583 31.9086 53.9647 32.8598 53.6059 33.9069C53.2471 34.954 53.1326 36.0693 53.2712 37.1675C53.3028 37.5286 53.2524 37.8922 53.1239 38.2312C52.9953 38.5701 52.7919 38.8757 52.5287 39.125C46.2062 45.4475 45.8687 46.2012 44.395 46.0212C43.1463 45.867 41.879 46.0395 40.7171 46.5219C39.5551 47.0043 38.5383 47.7802 37.7662 48.7734C36.994 49.7667 36.4929 50.9435 36.3119 52.1885C36.1309 53.4335 36.2763 54.7042 36.7337 55.8762C36.802 56.0504 36.9127 56.2048 37.0557 56.3254C37.1987 56.446 37.3695 56.529 37.5526 56.567C37.7358 56.605 37.9256 56.5967 38.1047 56.5429C38.2839 56.489 38.4468 56.3914 38.5787 56.2587L41.2 53.6487L42.6062 54.11L43.0675 55.5162L40.4575 58.1375C40.3245 58.2686 40.2263 58.4308 40.1717 58.6093C40.1171 58.7879 40.1078 58.9772 40.1446 59.1603C40.1815 59.3433 40.2633 59.5143 40.3827 59.6579C40.5021 59.8014 40.6554 59.913 40.8287 59.9825C41.9884 60.4395 43.2463 60.5901 44.4811 60.4197C45.7159 60.2492 46.886 59.7636 47.8786 59.0096C48.8712 58.2555 49.6527 57.2585 50.148 56.1146C50.6433 54.9707 50.8355 53.7185 50.7062 52.4787C50.6661 52.0959 50.7109 51.7089 50.8373 51.3453C50.9637 50.9817 51.1686 50.6504 51.4375 50.375C57.7712 44.0412 58.0075 43.3212 59.7287 43.49C60.9676 43.616 62.2181 43.4216 63.3603 42.9254C64.5025 42.4291 65.498 41.6477 66.2513 40.6561C67.0046 39.6645 67.4905 38.4959 67.6623 37.2625C67.8341 36.0291 67.6861 34.7722 67.2325 33.6125C67.1664 33.4347 67.0565 33.2765 66.9129 33.1526C66.7693 33.0287 66.5967 32.9431 66.4112 32.9037ZM59.9537 41.2287C59.2349 41.1501 58.5076 41.2325 57.8246 41.4699C57.1416 41.7073 56.52 42.0937 56.005 42.6012L49.84 48.7662C49.3324 49.2813 48.946 49.9029 48.7086 50.5859C48.4712 51.2689 48.3888 51.9962 48.4675 52.715C48.5412 53.4089 48.4691 54.1105 48.2557 54.7748C48.0423 55.4392 47.6924 56.0516 47.2284 56.5728C46.7645 57.094 46.1967 57.5124 45.5615 57.8012C44.9263 58.0901 44.2377 58.2429 43.54 58.25C45.2275 56.5625 45.7 56.3037 45.43 55.4825C44.5187 52.76 44.5412 52.3887 43.8437 52.1637C39.9737 50.8812 40.9525 50.7125 38.4887 53.1762C38.4977 52.4715 38.6551 51.7766 38.9507 51.1367C39.2462 50.4968 39.6732 49.9264 40.2039 49.4626C40.7346 48.9988 41.357 48.652 42.0307 48.4448C42.7043 48.2376 43.4141 48.1746 44.1137 48.26C44.8175 48.3447 45.5313 48.2648 46.199 48.0266C46.8667 47.7884 47.4699 47.3985 47.9612 46.8875L54.1262 40.7225C56.95 37.8987 54.0362 35.615 56.9275 32.7125C57.8561 31.7908 59.1067 31.2663 60.415 31.25C57.94 33.7362 58.165 32.8362 59.4025 36.605C59.6387 37.3137 60.0662 37.3025 62.7775 38.1912C63.61 38.4725 63.9025 37.9437 65.545 36.3012C65.537 37.0037 65.3815 37.6967 65.0887 38.3353C64.7959 38.974 64.3723 39.544 63.8452 40.0085C63.3181 40.473 62.6994 40.8216 62.029 41.0318C61.3587 41.242 60.6516 41.3091 59.9537 41.2287Z" fill="white"/>
</g>
<defs>
<clipPath id="clip0">
<rect width="54" height="54" fill="white" transform="translate(25 11)"/>
</clipPath>
</defs>
</svg>
