<svg width="737" height="586" viewBox="0 0 737 586" fill="none" xmlns="http://www.w3.org/2000/svg">
<path d="M205.322 329.723H235.596V387.096H205.322V464H136.23V387.096H18.5547L15.3809 342.418L135.986 108.531H205.322V329.723ZM82.5195 329.723H136.23V210.826L134.766 213.512L82.5195 329.723ZM688.721 329.723H718.994V387.096H688.721V464H619.629V387.096H501.953L498.779 342.418L619.385 108.531H688.721V329.723ZM565.918 329.723H619.629V210.826L618.164 213.512L565.918 329.723Z" fill="#00659E"/>
<g clip-path="url(#clip0)">
<path d="M440.455 439.545C479.208 400.792 479.208 337.735 440.455 298.982C431.839 290.367 421.936 283.526 410.963 278.598L410.959 144.191C410.958 142.27 410.195 140.427 408.837 139.069L372.064 102.296C369.235 99.4674 364.649 99.4674 361.821 102.296L331.516 132.6C330.16 133.957 329.396 135.797 329.395 137.716L329.379 158.125C329.378 160.049 330.141 161.893 331.501 163.253L344.041 175.793L331.517 188.317C328.688 191.146 328.688 195.732 331.517 198.56L336.537 203.58L331.516 208.6C328.688 211.429 328.688 216.015 331.516 218.844L342.537 229.865L331.516 240.886C330.158 242.244 329.396 244.086 329.395 246.008L329.395 278.597C318.418 283.523 308.512 290.364 299.893 298.982C261.14 337.735 261.14 400.792 299.893 439.545C338.645 478.298 401.701 478.298 440.455 439.545ZM310.136 309.227C318.52 300.843 328.321 294.428 339.269 290.16C342.1 289.056 343.84 286.366 343.877 283.501C343.878 283.47 343.881 283.443 343.881 283.411L343.881 249.009L357.902 234.988C360.731 232.159 360.731 227.573 357.902 224.744L346.881 213.723L351.901 208.703C354.73 205.874 354.73 201.288 351.901 198.459L346.881 193.439L359.406 180.915C362.234 178.087 362.234 173.5 359.406 170.671L343.868 155.134L343.88 140.725L366.942 117.663L374.18 124.9L374.179 250.104C374.179 253.705 377.098 256.624 380.698 256.623C384.299 256.623 387.217 253.706 387.218 250.103L387.218 137.938L396.471 147.192L396.476 283.411C396.476 283.442 396.478 283.468 396.479 283.497C396.514 286.361 398.253 289.053 401.085 290.159C412.03 294.429 421.829 300.846 430.209 309.227C463.314 342.332 463.314 396.197 430.209 429.302C397.104 462.407 343.24 462.407 310.135 429.301C277.031 396.197 277.032 342.331 310.136 309.227Z" fill="#FFB820"/>
<path d="M389.36 431.227C399.939 420.648 399.939 403.436 389.36 392.858C378.782 382.279 361.57 382.279 350.991 392.858C340.412 403.436 340.412 420.649 350.991 431.227C361.57 441.806 378.781 441.806 389.36 431.227ZM361.235 403.101C366.165 398.171 374.187 398.171 379.117 403.101C384.047 408.031 384.047 416.053 379.117 420.984C374.187 425.914 366.165 425.914 361.235 420.984C356.305 416.053 356.305 408.031 361.235 403.101Z" fill="#FFB820"/>
</g>
<defs>
<clipPath id="clip0">
<rect width="294.074" height="294.074" fill="white" transform="translate(576.5 303.5) rotate(135)"/>
</clipPath>
</defs>
</svg>
