<?xml version="1.0" encoding="utf-8"?>
<!-- Generator: Adobe Illustrator 23.0.1, SVG Export Plug-In . SVG Version: 6.00 Build 0)  -->
<svg version="1.1" id="Слой_1" xmlns="http://www.w3.org/2000/svg" xmlns:xlink="http://www.w3.org/1999/xlink" x="0px" y="0px"
	 viewBox="0 0 14 18" style="enable-background:new 0 0 14 18;" xml:space="preserve">
<style type="text/css">
	.st0{fill:#FFB820;}
</style>
<path d="M11.7,7L11.7,7l-0.1-0.1C10.2,5.8,9.5,4,9.7,2.2L10,0L7.8,1.2c-2.3,1.2-3.8,3.5-4,6L1.4,6.5L1.2,6.9
	c-0.8,1.7-1.1,3.4-1.1,4.9c0,1.7,0.7,3.2,1.9,4.4C3.2,17.3,4.8,18,6.5,18h1c3.5,0,6.3-2.8,6.3-6.2C13.8,9.8,13.1,8.3,11.7,7z
	 M7.2,16.9H6.7c-1.3,0-2.4-1-2.4-2.3c0-0.5,0.1-1.1,0.3-1.7l1.5,0.4l0-0.7c0-1,0.5-1.9,1.4-2.5c0,1,0.4,2,1.2,2.6l0.1,0.1
	c0.6,0.5,0.8,1,0.8,1.8C9.6,15.9,8.5,16.9,7.2,16.9z M10.3,16.1c0.2-0.5,0.4-1,0.4-1.5c0-1-0.4-1.9-1.2-2.6l0,0l0,0
	c-0.6-0.5-0.9-1.3-0.8-2.1l0.2-1.6L7.3,9.1C6.2,9.7,5.4,10.8,5.2,12l-1.1-0.3l-0.2,0.4c-0.4,0.9-0.6,1.8-0.6,2.6
	c0,0.5,0.1,1,0.4,1.5c-1.5-0.9-2.4-2.5-2.5-4.4c0-1.2,0.3-2.6,0.8-4l2.8,0.8V7.8c0-2.4,1.4-4.6,3.5-5.8l0.3-0.2l0,0.2
	c-0.2,2.2,0.5,4.3,2.2,5.6l0.1,0.1l0,0c1.2,1.1,1.8,2.3,1.8,3.9C12.8,13.6,11.8,15.2,10.3,16.1z"/>
<path class="st0" d="M9.6,14.6c0,1.3-1.1,2.3-2.4,2.3H6.7c-1.3,0-2.4-1-2.4-2.3c0-0.5,0.1-1.1,0.3-1.7l1.5,0.4l0-0.7
	c0-1,0.5-1.9,1.4-2.5c0,1,0.4,2,1.2,2.6l0.1,0.1C9.4,13.3,9.6,13.9,9.6,14.6z"/>
<path class="st0" d="M12.8,11.8c0,1.8-1,3.5-2.5,4.4c0.2-0.5,0.4-1,0.4-1.5c0-1-0.4-1.9-1.2-2.6l0,0l0,0c-0.6-0.5-0.9-1.3-0.8-2.1
	l0.2-1.6L7.3,9.1C6.2,9.7,5.4,10.8,5.2,12l-1.1-0.3l-0.2,0.4c-0.4,0.9-0.6,1.8-0.6,2.6c0,0.5,0.1,1,0.4,1.5
	c-1.5-0.9-2.4-2.5-2.5-4.4c0-1.2,0.3-2.6,0.8-4l2.8,0.8V7.8c0-2.4,1.4-4.6,3.5-5.8l0.3-0.2l0,0.2c-0.2,2.2,0.5,4.3,2.2,5.6l0.1,0.1
	l0,0C12.2,8.9,12.8,10.1,12.8,11.8z"/>
</svg>
