<svg width="86" height="60" viewBox="0 0 86 60" fill="none" xmlns="http://www.w3.org/2000/svg">
<rect x="34" y="17" width="23" height="26" fill="white"/>
<path d="M83.405 9.9109C82.4327 6.29622 79.5827 3.44682 75.9686 2.4735C69.366 0.666931 42.955 0.666931 42.955 0.666931C42.955 0.666931 16.5451 0.666931 9.94248 2.405C6.39785 3.37729 3.4784 6.29674 2.50611 9.9109C0.768555 16.513 0.768555 30.2049 0.768555 30.2049C0.768555 30.2049 0.768555 43.9658 2.50611 50.4988C3.47943 54.113 6.32832 56.9624 9.943 57.9357C16.6146 59.7428 42.956 59.7428 42.956 59.7428C42.956 59.7428 69.366 59.7428 75.9686 58.0047C79.5833 57.0319 82.4327 54.1825 83.406 50.5684C85.143 43.9658 85.143 30.2744 85.143 30.2744C85.143 30.2744 85.2126 16.513 83.405 9.9109V9.9109ZM34.5464 42.8539V17.5558L56.5084 30.2049L34.5464 42.8539Z" fill="#C8102E"/>
</svg>
