<svg width="19" height="19" viewBox="0 0 19 19" fill="none" xmlns="http://www.w3.org/2000/svg">
<g clip-path="url(#clip0)">
<path d="M4.58582 10.0214L13.3739 18.7851C13.6618 19.0721 14.128 19.0716 14.4154 18.7837C14.7026 18.4957 14.7019 18.0293 14.4139 17.7421L6.14897 9.49997L14.4142 1.25786C14.7022 0.970634 14.7029 0.504505 14.4157 0.216537C14.2716 0.0721817 14.0828 3.76681e-06 13.8941 3.7503e-06C13.7058 3.73384e-06 13.5177 0.071699 13.3739 0.215053L4.58582 8.97858C4.44714 9.11655 4.36932 9.30433 4.36932 9.49997C4.36932 9.69561 4.44736 9.88316 4.58582 10.0214Z" fill="black"/>
</g>
<defs>
<clipPath id="clip0">
<rect width="19" height="19" fill="white" transform="translate(19 19) rotate(-180)"/>
</clipPath>
</defs>
</svg>
