<svg width="14" height="18" viewBox="0 0 14 18" fill="none" xmlns="http://www.w3.org/2000/svg">
<path d="M11.663 7.03233L11.5674 6.93785L11.5497 6.92316C10.1634 5.77234 9.48922 4.04584 9.70016 2.18628L9.94818 0L7.82095 1.14779C5.56025 2.36755 4.07188 4.62729 3.82139 7.15401L1.43447 6.45706L1.24812 6.88265C0.497206 8.59678 0.126143 10.2423 0.145232 11.7735C0.166106 13.4437 0.835584 15.0098 2.03034 16.1834C3.22277 17.3548 4.80041 18 6.47238 18H7.49535C10.9648 18 13.8031 15.2044 13.8225 11.7678C13.8333 9.83137 13.1268 8.28216 11.663 7.03233ZM6.72795 16.9428C5.43679 16.9428 4.37317 15.8975 4.35711 14.6125C4.35052 14.086 4.45571 13.5199 4.67022 12.9248L6.1704 13.3628L6.17671 12.6645C6.18592 11.6507 6.6976 10.7145 7.52982 10.1574C7.52734 11.1886 7.95663 12.1311 8.74188 12.792L8.77278 12.8225L8.8023 12.8496C9.36522 13.3276 9.61433 13.8721 9.61021 14.6151C9.60293 15.8987 8.53946 16.9428 7.2395 16.9428H6.72795ZM10.292 16.1444C10.5289 15.6864 10.6642 15.1688 10.6672 14.6211C10.6731 13.5734 10.292 12.7346 9.50227 12.0572L9.45311 12.0086L9.43539 11.994C8.80299 11.4689 8.50787 10.7105 8.60441 9.8587L8.78541 8.26294L7.27672 9.07702C6.16298 9.67797 5.39998 10.7513 5.18287 11.9733L4.0602 11.6455L3.87385 12.0709C3.48315 12.9627 3.29006 13.8223 3.30022 14.6258C3.30682 15.1585 3.43536 15.6717 3.67184 16.1334C2.2097 15.2126 1.22532 13.5965 1.20225 11.7603C1.1866 10.5059 1.4673 9.15352 2.03694 7.73422L4.83501 8.55119L4.84133 7.85287C4.8633 5.43781 6.19731 3.22503 8.32289 2.0782L8.66992 1.89088L8.64987 2.06721C8.39897 4.27944 9.20303 6.33882 10.8566 7.72159L10.9338 7.79794L10.9633 7.825C12.2019 8.8768 12.7745 10.1279 12.7655 11.7619C12.755 13.6048 11.7674 15.2256 10.292 16.1444Z" fill="black"/>
</svg>
