<svg width="9" height="8" viewBox="0 0 9 8" fill="none" xmlns="http://www.w3.org/2000/svg">
<path d="M5.55603 4.03742C5.53541 4.01679 5.53541 3.98321 5.55603 3.96258L8.07451 1.44287C8.28986 1.22743 8.28986 0.876877 8.07451 0.66143L7.57524 0.16191C7.47088 0.0574891 7.33213 0 7.18454 0C7.03696 0 6.89819 0.0574891 6.79383 0.161894L4.27535 2.68164C4.26261 2.69438 4.24807 2.69707 4.23814 2.69707C4.2282 2.69707 4.21366 2.6944 4.20092 2.68164L1.68243 0.161894C1.57807 0.0574891 1.43932 0 1.29171 0C1.14411 0 1.00538 0.0574891 0.90102 0.161894L0.40175 0.66143C0.186396 0.876877 0.186396 1.22743 0.40175 1.44287L2.92023 3.96258C2.94085 3.98321 2.94085 4.01679 2.92023 4.03742L0.40175 6.55713C0.186412 6.77258 0.186412 7.12312 0.40175 7.33857L0.90102 7.83809C1.00538 7.94249 1.14413 7.99998 1.29171 7.99998C1.4393 7.99998 1.57807 7.94249 1.68243 7.83809L4.2009 5.31838C4.21365 5.30562 4.22817 5.30295 4.23812 5.30295C4.24807 5.30295 4.26258 5.30562 4.27534 5.31839L6.79382 7.83811C6.89818 7.94251 7.03692 8 7.18453 8C7.33213 8 7.47087 7.94251 7.57522 7.83811L8.07449 7.33859C8.28983 7.12315 8.28983 6.7726 8.07449 6.55715L5.55603 4.03742Z" fill="#ACACAC"/>
</svg>
