<svg id="_1" data-name="1" xmlns="http://www.w3.org/2000/svg" viewBox="0 0 1933.9 864"><defs><style>.cls-1{fill:#2a2b2b;}.cls-1,.cls-10,.cls-11,.cls-12,.cls-13,.cls-14,.cls-15,.cls-16,.cls-17,.cls-18,.cls-19,.cls-2,.cls-20,.cls-21,.cls-22,.cls-23,.cls-24,.cls-25,.cls-26,.cls-27,.cls-28,.cls-29,.cls-3,.cls-30,.cls-31,.cls-4,.cls-5,.cls-6,.cls-7,.cls-8,.cls-9{fill-rule:evenodd;}.cls-2{fill:#00619d;}.cls-3{fill:#fff;}.cls-4{fill:#fdfcfc;}.cls-5{fill:#898989;}.cls-6{fill:#eeefef;}.cls-7{fill:#4a4b4b;}.cls-8{fill:#3c3c3c;}.cls-9{fill:#a2a2a1;}.cls-10{fill:#e7e9e9;}.cls-11{fill:#cfcfcf;}.cls-12{fill:#f4f3f4;}.cls-13{fill:#595758;}.cls-14{fill:#9d9c9c;}.cls-15{fill:#7b7b7b;}.cls-16{fill:#8d8d8d;}.cls-17{fill:#c7c8c8;}.cls-18{fill:#a6a6a7;}.cls-19{fill:#dbdcdc;}.cls-20{fill:#636463;}.cls-21{fill:#848383;}.cls-22{fill:#f2f2f3;}.cls-23{fill:#666565;}.cls-24{fill:#b5b4b5;}.cls-25{fill:#aaabab;}.cls-26{fill:#6d6d6d;}.cls-27{fill:#707070;}.cls-28{fill:#acacad;}.cls-29{fill:#858685;}.cls-30{fill:#dbdad9;}.cls-31{fill:#565656;}</style></defs><path class="cls-1" d="M1210.65,1462c7.14,1.33,4-1.12,6.32,6.1-8.93-1.85-5.11,2-6.32-6.1Zm467.58-24.23c-1.55-5.32-.69-3.6,5.22-4.77-2.13,4.29.22,3.67-5.22,4.77Zm136.41,2.18c-3.76-6.41-2.69-14.45.08-20a37.6,37.6,0,0,1-.08,20Zm-143.94-3.66c-2.71-4.29-2.85-4.82-1.23-9.09,1.5,2,1.11-.5,1.93,3.92.49,2.59-.24,2.91-.7,5.17Zm-521.41-2.88c-4.07-4.6-4-3.67-3.31-19.6.29-6.26,0-14.69,1.43-20.21,6.86,7.62,2.27,28.72,1.88,39.81ZM1815.21,1404c-.18,8.16-.13,1.35-1.79,3.71-3.31-6.1-3.19-3.57,0-9.18,1.7,2.81,1.9-.9,1.76,5.47Zm111.28-5.91c7.09,1.39,1.76-2.3,6.63,3.39l-4.08,2.81c.4,6.94,1.29,9.27-2.66,14.61l.11-20.81Zm-115.61-8c3.18,3,2.69-1.44,3.94,6.28-5.28-2.17-2.34.71-3.94-6.28Zm-847.27,13.36c-8.51-7.74-2.22-13.55,3.53-19-.53,6.88-.4,14.7-3.53,19Zm284.05,20.09,4.42-7c-1.65,5.68-1.83,15-5.51,22.17l8.14,9.44-5.62,7.88,10.68.83c.85,3.76-.46,5.17-.49,5.34-1.94,12.17-3.9-5.44-.83,3.49l7.57-.81-5.3-38.52c-6.48-7.58,1.39,2.55-5.82-1.5l7.95-4.4c-8.49-5.6-6.81-11.56-6.39-22-7.18-1.2,3.82,6.13-3.18,1.3-7.45-5.13,6.41,4.74,1.52-24.69-2.21-13.34-4-30.36-5.56-44-1.91-16.91-7.15-77.81-13.62-86.84l-39.13-1.14-22.11,139.85c-3.14,29.79-9.23,47-14.21,84.51h35.16l6.36-45.52,24.41-3.07,6.86,44.78,11.48-1.59-4.27-8.11c8.19-7.32,5.32-3.23,4.44-9.63,0-.29-.16-.88-.19-1.17-1.79-14.79-1.3-4.39-4.64-12.19,6.72-.79,5.71-1.42,7.88-7.52Zm541.91-33.1c5.73-2.38,7.49-2.69,13,1.33-2.2,9.67-4.93,5.53-13.69,8.14-2-7.51-2.64-3.89.64-9.47Zm23.88-6c-2.4-4.63-2.13-2.69,1.71-6.73,4.29,7.24,2.41,5-1.71,6.73Zm115.16-14.81c2.29,2.73,5,4.19,4.81,8.19-.25,7.13.1-3-1.16,3-1,4.7-3.07-4.16.5,2.15,5.16,5.58,3.72,3.25.84,7.56-5.71-1.27-3.69-.43-6.4-4.94l-2.12-2.47c4.78-10,1.4-5.29,3.53-13.49Zm-4.1-23.21c5.55-6.6,4.82-7.66,13.17-8.8-1.64,5.94,2.81,1.15-4.33,5.18-.72,8.88,2.52,10.52-4.52,18.69-6.14-5.75-4.79-5,.47-9.09-5.39-4.3-2.1-.42-4.79-6Zm2.49-9.2c-.91-7.23,2-4.2-6.75-6.66,4.64,7.35,1.23,4.59,6.75,6.66Zm-112.16,6.36c-.23-3.91-.71-8.61-.67-12.46.13-10.46,2-8.74,3-9.87,2.11,5.56.67,17.47-2.29,22.33Zm225.16,4.89c6.46,7.71,9.6,8.8,13.82,18.94,2.64,6.35,2,6.17,2.85,12.17,2.62,18.21,13.79,15.59,2.16,39.8-3.06,6.35-3.81,17.13-7.17,25.27-8.37,20.29-17,22.64-37.1,28.19-16.7,4.61-42.61,7.36-56.57-3.74-1-18.77,0-36.18,1.21-55.27,2-30.32-5.59-145.91-.76-168.72,2-9.52,11.38-4.18,18.82-2.7,14.86,3,84.84-19.61,78.6,62-2,25.57-12.67,30.26-15.86,44Zm-223.67-46.62c4.37,6.33,2.93,2.57-1,5.68-.91-2.66-.82-.22-.37-3.68a10.09,10.09,0,0,1,1.37-2Zm-265.48-5.21,2.6,11.93c-8.81,1.67-7.31,3.65-6.5-5.48.49-5.44-1.69-4.21,3.9-6.45Zm377.76,73c1.15-5.69-.51-.56-7.85-5.59.48-4.94.79-6.8.41-11.84l-2.33-10.38c-1.43-7.43,2.92-53.86-1.88-69.9-14.47-48.44-51.15-24.16-61.09-36.28-9.12,10.1-19.27,11.52-26.14,25.73s-5.23,23.25-5.36,39.17c-.13,15.63-2.13,33.34-1.89,50,.18,12.92,4.31,36.09,2.35,47.44-13,75.51,67.67,91.86,85.86,53.54,3.07-6.46,1.25-6.19,3-9.59,6.61-13.11,1.6,9.66,5.4-5l.48-22.65-4.78-.47-3.87-4.72,7.21.44c1.48-7.44,4.19-15.32,4.1-19.64-.2-10.16-5.15-11.8-.39-21.38l6.81,1.11ZM1670.77,1244l-80.56-.13-.53,204.5c7.34,5.28,11.58,3.25,14.93,12.47-11.77,3.8-12.91-2.44-15.2,4.64,5.77,6,30.15,2.2,40.28,2.6,10.7.41,30,1.55,40.78.48,7-11.62-.79-17.55,2.26-29.2l-48.19-.37-1.94-70.11,32.86,1.3-.55-35c-12.76-8.81-18.71.76-29.75-1.63-5.72-9.29-2.22-44.45-2.22-58.19l48,.74-.16-32.15Zm46.4,193.25-2.83,34.79,34.52,4,2.08-93.66c51.76-5.46,56.69-16.95,58.34-68.37.55-17.14-1.91-36.44-13-50-12.29-15.08-27.65-14-44.27-15.28-14.85-1.14-44.29-5.82-41.52,16.56,2.85,23.12-1.51,33.87.19,55.74,1.24,16,8.14,110.24,6.46,116.23ZM1310.4,1342.8c-3.67-13.54-8.36-.16-8.17-30.72.11-18-1.45-17.78,4.08-33.22,7.14-19.93,8.25-34.22,33-41.53,23.43-6.91,36.22,3,46,7.49,20.71,9.6,24.47,47.45,20.9,71.23l-39.6.48-1.16-46.2c-4.52-5.65-9.63-5.31-16.76-2.53-14,19.24-.74,97-3,124.87-1.22,15.17-5.51,9.25.44,27.6,2.43,7.5.67,16.48,10.88,18.44,19.15,3.69,12-35.42,13.59-51.24l36-.06c1.18,25.42,10.31,44.52-9.11,67.52-18.87,22.35-67.17,20-82.71-7.14l-12-30.4c-1.2-4.5-1.12-37,0-41.63,4-15.81,7.59-6.54,7.54-33Zm-18-83.75a17.74,17.74,0,0,1-4.58,3.42,27.41,27.41,0,0,1-3.71,1c.9-6.64,2.57-5.6,8.29-4.45Zm152.17-12.75c6.35,14.78-3.33,18.47.62,29.34l33.5,1.15,1.36,190.53,35.11,1.49c7-33.85-.3-60.65-.25-95.3,0-31-1.74-65.13-.25-95.45l36-4.38c5.85-7.89,2.56-8.92.86-20.78l-1-6.71-106,.11ZM1044,1342c15.27-9.94,17.56-97.2,26.47-104.71,8.06-3.14,41-2.78,46.83,2.77,2.52,4.12-9.42,25.75-2.79,47.25,6,19.52,3.54,35.48.62,54.34-1.57,10.08,1.31,15.93,2.65,24.84l1.2,60.85c.25,2.85.77,8.42,1,10,1,5.94-6.54-.77,4.93,4.88a7.44,7.44,0,0,1,1.46.58c-12.71,10.26.5,11.92-8.11,20.74-6.14,6.28-22.23,8.13-31.5,4.92L1083,1327.34l-25.7,142-14.08.65c-6-21.58-10.22-47.72-13.68-71.12-2-13.65-6.49-69.2-14.17-73l-.45,143.76-31.74-.42c-1.91-12.11-1.69-231.11-1.42-231.82,7.64-5.15,33-2.83,43.47.86,1.91,11.66,4.23,35.73,9.84,47.7,3,6.46,11.47,51,9,56Zm517.92-105.21c5,3.07,2.79-3,3.47,5.84-6.9.06-3,1.66-4.85-1.78-3.07-5.85.89-3.17,1.38-4.06ZM1034,1235.35c.84,7.85-1.7,4.91,6.21,6.32-1.55-7.39,1.22-5.35-6.21-6.32Zm261.56,3.32c3.2,8.45-.29,6.71-.55,7.33-4.1-3-3.26-6.92-3-11.85,1.32,1.59,2.86,2.7,3.55,4.52ZM845.77,1314c-33.69,0-64.95,14.88-54.6,54.6,9,34.37,56,28.19,85.37,27.91,15.63-.15,38.89,6.52,23.56,25.52-8.22,10.17-33.69,1.66-49.26,8.4-26.88,11.63-39.72,47.82-17.13,70.35,23.39,23.34,65.8,14.82,98.46,14.82H2065c59.33,0,63.36,11.35,63.36-49.92q0-112.32,0-224.64c0-58.44-12.51-46.1-67.2-46.09H928.34c-22.65,0-95.08-2.9-112.13,1.28-48.91,12-45.12,84.63,12.53,88.71,9.91.7,18-2.56,21.72,7.23C854.29,1302.13,850.55,1306.69,845.77,1314Z" transform="translate(-591.88 -843.59)"/><path class="cls-1" d="M1595.05,1133.51c8.69-6.11,5-.11,5.47.22-3.67,2.87-1.66,4.18-5.47-.22ZM1001.14,843.59c-4.53.47-3.09,2.21-11.37,7.68,0,35-5.23,301.71,2.58,310.38,7.1,6.39,166,2.58,189.43,2.58,9.31-13.47,7.6-15.61,28.75-15.41l136.36,0c9.08,19.69-16.6,15.36,65.29,15.36H1990.1l7.85-14.66c21.15-7.15,97.27,6.93,108.61-3.28,4.37-5.54-3.18-17.31-3.18-28.14,10.24-4.72,26.18,3.27,25.06-11.35-.94-12.13-21-7.85-30.82-7.85l-11.7-40.27c-16.65,0-37.85,5.91-38.22-13.49,7.74,0,19.2,2,24.3-2.58,6.54-7.27-13.14-76-18.54-87.66h-67.21l-2.27-21.1,69.47-2.1c6.07-11.81-1.53-27-4.61-39.39-3.42-13.7-5.19-29.88-12.66-41.09-42,0-17.2-3.92-32.87-7.45l-126.5-.23c0,20.43-9.53,15.45-28.79,15.37h-134.4c-4.55-9.86-1.19-5.47-7.68-15.36h-704.8ZM1228,1114.68c6.31,1.25,8.28.6,3.61,6.49-7-3.44-3.11-1.44-3.61-6.49Zm-61.36-87.49-.68,56c-.12.42-.53,1-.65,1.33a8,8,0,0,1-.78,1.21c-3.71-8.55-1-19.52-1.07-29,0-5.15-.41-10-.4-15.4,0-9.82-2.34-10,3.58-14.12Zm378.15,59.7c-4.59-5.15-5.39-10.79.8-13.88,6.91,7.11,1.1,1.67,1,6.54-.11,3.44,4.15,1.07-1.75,7.34Zm230.46-17.25c-.82-4.53,5.3,1.69,2,1-5.29-1-1.19,3.67-2-1Zm195.6-12.41c1.74,2.75,2.37,2,2.39,7.14.06,17.68,1.42,3.37-3.4,9.2-4-7.31-1.8-1-.73-7.77l1.74-8.57Zm-692.59,13.64,2.66,2.53-3.57,2.83,5.6,42.49c-7.57-5.51-3.38-5.21-7.53-13.69-3.22-6.58-4.64-5.26-10.89-10.61-.33.42-.73.59-.89,1.34s-.68,1-.89,1.29c-1.59,2.14-1.19,1.64-2.68,3.52-9.22,11.65-1.11,9.76-9.76,17.71l-6.77-42.35-24.2-.89-7.45,48.79-34.89.09,36.34-227.22,41.33.43c3.95,37.94,12,81.17,15.81,120.93.59,6.25,2.73,14.74,2.91,20,.62,18.94-6.92,1-3.61,14.67,6.61,3.19-4.75,1,2-.9,3.59-1-1.84-3.25,2.79-.15,2.56,1.72,3,5,2.31,8-3.49,14.69,5.93-12.41-1.66,3.12-2.91,6-2-4-1.11,3.2.41,3.45,1.52,3.88,4.16,4.81Zm404.85-68.14c4.84,2.08,8,.72,2.73,6.71l-2.73-6.71Zm-372.68-.29,5.3-.08c-10.08,7.78-5.08.28-5.3.08Zm232.33-20.17c3.08,5,2.75,22.13.06,28.57-3.94-4-4.67-16.93-3.56-23.33,1.43-8.32-.5-3.26,3.5-5.24Zm398.37-7.2,9.85,2.07c2.94.84,3.81,4.24,3.12,7.18-9.38,3.2-16.19,2.16-13-9.25Zm-15.47,6c33.8-.07,36,74.68,29.94,100.75-4.74,20.51-10.52,29.48-28.73,38.35-9.74,4.73-52.86,6.77-62.9,1.93l.51-17.79c-9.32-12.08-1.78-78.7-2.39-99.47-.42-14.27-1.54-98.81,1.89-105.06l32.57-.68-.63,80.29,27,1.27-.8-4.83c-.06-.22-.2-.75-.28-1l-2.29-4.11c6-.34,6.78.56,11.85,6.56l-5.74,3.76ZM1426.21,955c1.23,2.29,2.28,1.45-.52,5-1.81-2.84-3.2.24.52-5ZM1615,928.11c7.21-.05,19.5.89,25.71.31,13-1.23,3.32-4.62,21.81-4.62l.24-27.41-80.44.44.74,206.36,18.76,9c-6.23,5.3-5.08,2.57-15.21,3.36-5,.39.19-1.64-3.61.72,3.07,7.55,9.65,5,19.21,4.45,19.47-1.11,53.25,8.4,61.84,1.77,5.74-9.37,1.42-20,1.71-30.81l-46.15-.22c-6.66-11.49-4.86-51.79-4.83-70.79l32.37,1.42.85-34.63-30.58-1.26c-6.18-9.55-3-45-2.42-58ZM1547.56,931c-2,.43-33.52-.72-39.14-1l2.08,192-37.4-1.76-.81-191.3-34.14-.48c-2.28-12.16,5.08-20.2,7.86-29.66l104,.39c1.53,11-.89,9.28-2.13,15.44-.9,4.42.07,11.25-.27,16.36ZM1105,908.87c9.76-5.93,5.55,0,5.8.81l-5.8-.81Zm621.1-14.42c10.7-1.65,39.59,2.67,49.34,1.3,7.52-1.06,1.91-2.72,8.4-2.4,3.73.18,4.11,1.75,12.32,1.86,12.42.16,14.87-3.56,26.93-3.63l-.34,55.59c-2.58,23.16,0,33.68.4,55.69.34,19.43,2.33,104.32-1,117.19-3.66,5.89,2.57,2-7.44,3.81-3.22.56-26.13,1-28.31-1.85-9.85-29.77-2.7-54.71-4-88.34-1.22-31.31-.09-66.46-.07-98.43l-20.86-.07c.68,16.83-1.13,46.46-2.65,63.2-2.17,24,1.17,41.05-.13,62.18-1.6,26.11,1.52,27.92-13.2,51-10.25,16-30.77,15.58-49.38,13.91l-.08-30.26c19.34-13.87,21.28,9.29,25-34.74,1.67-19.76,2.75-35.39,2.13-55.57-.48-15.79,1.47-41,2.55-57.37,1.12-16.79.43-35.5.43-53ZM1324,903.34c10.11-2.7,24.15-2.81,34.57-2.09,12,.82,16.66-.54,22.52,2.36l2.25,1.42c.37.19.84.52,1.22.71,8.41,4.17,27.46-.29,33.91,43.22,2.38,16,.41,50.07-7.09,64.63-11.91,23.09-39.5,20.3-49.87,21.58-5.15,11.23-1.1,70.87-2.07,87.81l-34.75,3.31c-2.64-17.9,1.67-39.67.74-55.19-3.74-62.27.74-65.16.9-114.25,0-11-2.71-19.4-2.27-26.79.68-11.49,4.51-14.24-.06-26.72Zm-179.32,220.35c-3.6,2.17-2.11,2.33-6.77.23l-18-.21-2.07-19c-5.76-6-5.45-13.26-6-21.93-1-15-4.76-57.46-24.83-55.69-9.17,17.91,1.21,74.85-1,96.72l-39.4-1.06c-.08-2,1.49-32.52,1.52-32.65,6.59-28.47-2.06-52.27,1.18-70.28,2.4-13.31-4.58-22.45-2-40.19,9.74-3.83-1.69,4.61,5.64,2.17-.07-8.12-4.85-8.67-1.9-23.15l1.08-61.19,33,.45c3.15,7.64,1.79,18.11,1.72,26.51-.18,20.67-5.26,12.67-7.17,13.26,1,8.39.32,3,5.52,9.53l-1.39,40.38c31,1,22.31-45.68,35.39-87.68,21.59-6.71,17.24-5,19.91,2.84,1.82-6-1-3.43,5.95-3.77,8.41-.42,5.5,1.5,6.56,2.14,1.4,12.58-7,42.08-10,56.08-6.44,30.92-4.24,25.94-19.51,51.52,18.16,15.88,18.59,27.75,20.44,52,.62,8.19,11.22,38.85,11.27,62.44l-9.28.52Zm399.25-235.31c2.72,6.32-.54,2.69-1.2,4-3.15-2-1.55.42-2.91-2.91-2.39-5.84.36-2.19,1-3.45C1545,887.87,1542.17,884.4,1543.89,888.38Z" transform="translate(-591.88 -843.59)"/><path class="cls-2" d="M1652.26,1681.19l-.47,8.61-10.63.29-.51-5.54-.28-12.94-45.8-.55-1,18.11-9.59.51c-2.1-48.16-.6-16.38,8.74-37.78,7.69-17.6,6.23-38.34,6.23-57.08l46.08-.56-.18,57.84c2,20.21,6.81-10.31,7.44,29.09Zm572,26.4a125.1,125.1,0,0,0,13.57-1.92c-1.34-15-18.56-56.63-23.7-74.22-4.08-14-17.35-63.32-27.63-70.29-17-11.55-158.33-7.17-188.68-7.17H1016.65c-40.9,0-157.23-7.69-186,11.73-16.51,11.14-9.81,67.31-9.82,88.11,0,35,2.26,50.5,44.37,53.55l3,.21H2224.21Zm-419.36-37.38-14,.86,23.85-76.63,17.75-.07,24.17,76.66-14.32-.17-7.44-20.5-23.27-.27-6.69,20.12Zm-486.31-26c-10.62,44.34-82,32.19-68-23.32,11-43.57,81.28-32.19,68,23.32ZM1958,1671.11H1944v-76.8H1958l.25,31.75,31.38.43.51-32.18H2004v76.8H1990.1v-32.64l-32.14.31v32.33Zm-612.48,0h-13.94v-76.8h13.94l.25,31.75,31.37.43.52-32.18h13.94v76.8h-13.94v-32.64l-32.14.31v32.33Zm-303.87-75.39c16.27-1.32,45.5-5.87,49.76,16.23,4.89,25.35-14.93,31.26-35.69,31.25l-.15,27.91h-13.92v-75.39Zm841.49,75.33-15.88.06v-76.8l12.93.28-.52,60c2.08-9.52,27.42-56.11,35.59-60.29h11.52v76.8l-12.94-.28.47-57.2-31.17,57.42Zm-205.44,0-15.88.06v-76.8l12.93.28-.52,60c2.07-9.52,27.42-56.11,35.58-60.29h11.52v76.8l-12.93-.28.48-57.2-31.18,57.42Zm-172.8,0-15.92.06,0-76.8,12.93.28-.52,60c2.07-9.52,27.42-56.11,35.58-60.29h11.52v76.8l-12.93-.28.48-57.2-31.18,57.42Zm-306.67-21,18.54-55.3,18.3-.23,4.28,76.64h-13.38l-2.74-61.56c-5.2,13.5-22.15,92.92-34.77,47.2l-13.17-47.82-3.56,61.67-13,.61,5-75.75,18.63-1.36,15.79,55.9Zm203.49-55.69h57.09v11.52h-21.63v65.28h-14l0-64.77-11-.62-10.5.11v-11.52ZM1117,1626.44l28.29.58-.31,11-28,.2v20.91l31.63.72v10.8l-45.57.51v-76.8h44.16v11.52l-30.22.31v20.3Zm619.4-26.85c46.3-15,60.53,16.38,33.11,31.56,4.75,3.24,11.41,3.28,14.15,12.26,8.35,27.4-33.5,34.51-49,21.9l2.27-9.19c12.82,3.26,29.13,9.86,33.32-8-7.07-20.5-22.18-1.85-23.53-17.32,3.93-10.61,29.43-1.06,20.35-21.2-12.62-7.27-15.62-3.84-28.29,0l-2.43-10Zm173.86-10.23c-12.71,3.72-11.75,4.49-24.72,0l-2.48-9.94c17.31,0,2.78,2.75,14.88,6.75,12.32-4-2.45-6.75,15.23-6.65Z" transform="translate(-591.88 -843.59)"/><path class="cls-1" d="M2164.82,1285.19c6.12,13.23,2.87,9.24,0,21.12-7.75,0-19.21-2-24.31,2.58-6.32,7-3.61,83.08-.65,95.34l71,.52c6.74,29.81-8.17,22.52-71,22.52-5.06,11-3.05,75.46,1.26,87.06,15.33,5.7,47.77-7.15,64.79-11.41,16.23-4.05,52.84-11.17,66.43-18.05V1227.59c-19.41-9.83-87.36-23-112.56-29.68-29.08-7.71-21.84,20-21.84,43.12C2137.94,1291.06,2133,1285.19,2164.82,1285.19Z" transform="translate(-591.88 -843.59)"/><path class="cls-1" d="M847.7,878.15v259.2c14,1.25,47.59,10.43,62.59,14.21,18.47,4.65,47.14,12.67,66,12.67,0-8.35-.06-16.71.11-25.06.27-13.5,3.2-16.91-9.71-17.18v-5.76c12-.2,8.95,4.14,9.71-32.74.27-13.5,3.2-16.91-9.71-17.18v-5.76c15-.25,9.72-9.19,9.57-22.93-.15-15,5.43-26.67-9.57-27v-5.76c15.37-.25,9.54-10.51,9.52-25s6.5-24.71-9.52-25v-5.76c15.37-.25,9.54-10.51,9.52-25s6.5-24.7-9.52-25v-7.68c14.81,0,9.6,1.82,9.6-40.32C941.3,851.27,871.67,877.64,847.7,878.15Z" transform="translate(-591.88 -843.59)"/><path class="cls-3" d="M1058.57,1407.71c.07.09,6.39-1.89.35,7.59-3-4.36-2.84-1.24-.35-7.59Zm-10.53.69c3.82-2.61,1.13-2.76,4.56,1.13l-4.56-1.13Zm-4.35-32.23c-.26-5.83-2.12.11,2-1.41l.88.11c1.83,4.25-2.81,1.94-2.84,1.3Zm18-5.56c-1.91,2.59-4.14,1.53-1.18-1.28,1.46-1.39,3.73-2.18,1.18,1.28Zm35-94.44c.19-.9,2.58-4.81,3-.64.18,1.55-4.13,5.78-3,.64ZM1044,1342c2.48-5-6-49.54-9-56-5.61-12-7.93-36-9.84-47.7-10.49-3.69-35.83-6-43.47-.86-.27.71-.49,219.71,1.42,231.82l31.74.42.45-143.76c7.68,3.84,12.15,59.39,14.17,73,3.46,23.4,7.73,49.54,13.68,71.12l14.08-.65,25.7-142,3.87,141.11c9.27,3.21,25.36,1.36,31.5-4.92,8.61-8.82-4.6-10.48,8.11-20.74a7.44,7.44,0,0,0-1.46-.58c-11.47-5.65-3.92,1.06-4.93-4.88-.28-1.62-.8-7.19-1-10l-1.2-60.85c-1.34-8.91-4.22-14.76-2.65-24.84,2.92-18.86,5.4-34.82-.62-54.34-6.63-21.5,5.31-43.13,2.79-47.25-5.85-5.55-38.77-5.91-46.83-2.77C1061.58,1244.75,1059.29,1332,1044,1342Z" transform="translate(-591.88 -843.59)"/><path class="cls-1" d="M2469.39,1357c-.13-6,4.1-12.17,9.26-13.68,7.26-2.12,15,1.07,17.5,8.24a15.75,15.75,0,0,1,.91,4.13c1.18,16.81-27.3,17.94-27.67,1.31Zm56.39-7.67c-3.45-39.81-48.29-31.61-59.45-31.44-31.43.47-61.4,4.3-91.64,8.21-46.18,6-38.29,5.74-38.9-54.46-.26-26.52-26.12-55.62-50-42.14,0,36.85-2.63,236.22,1.92,255.36,27.8,6.75,48.09-18.8,48.08-46,0-50.53-11.66-59.71,41.08-52.77,26.54,3.49,64.17,8.63,91.25,8.58,30.25,0,55-1.37,57.67-33.5Z" transform="translate(-591.88 -843.59)"/><path class="cls-1" d="M635.69,1020.15c-4.42.17-7.81-.34-10.2-2.14-2.56-1.93-4-5.34-4.26-11-.17-3.22.92-6.42,4.19-9.45,7.68-4.25,16.59-4,20.49,1.66,5.45,8,2.81,20.37-10.22,20.89Zm-43.36-4.83c1.42,7.88,5.47,15.33,11.9,21.81,14.63,14.74,32.89,13,52,10.54s39.85-2.86,59.81-5.48c18.8-2.46,39.66-6.58,58.67-6.6,12,18.23,7.59,23.33,7.6,57.69,0,18.84,7.54,33.31,24.75,40.53,31.57,13.24,25.26-8.74,25.25-32.94l0-195.85c.06-9.93,2.43-23.76-6.29-26.54-7-2.24-19.67,2.14-25.61,6.19-41,28,5.1,94.74-35.21,95.46-16.69.3-86.51-9.79-121-9.89-18.55-.06-36.57.39-46.84,18.55a43.46,43.46,0,0,0-5,13.73A45.71,45.71,0,0,0,592.33,1015.32Z" transform="translate(-591.88 -843.59)"/><path class="cls-3" d="M1998.5,1366.2c23.72-1.88,23,15.52,21.7,35-.91,13.69-.19,40.53-21.38,34.47l-.32-69.5Zm.37-94.44c23.42.47,23.52,11.84,23.46,32.66,0,17.09-2.83,31-23.76,27.93l.3-60.59Zm41.13,76.7c3.19-13.77,13.91-18.46,15.86-44,6.24-81.64-63.74-59.07-78.6-62-7.44-1.48-16.8-6.82-18.82,2.7-4.83,22.81,2.74,138.4.76,168.72-1.25,19.09-2.24,36.5-1.21,55.27,14,11.1,39.87,8.35,56.57,3.74,20.13-5.55,28.73-7.9,37.1-28.19,3.36-8.14,4.11-18.92,7.17-25.27,11.63-24.21.46-21.59-2.16-39.8-.87-6-.21-5.82-2.85-12.17C2049.6,1357.26,2046.46,1356.17,2040,1348.46Z" transform="translate(-591.88 -843.59)"/><path class="cls-3" d="M1811.27,1092.93c10.21,2.69,4.62-1.09,6.41,6.12-8.33-1.91-3.19,1.78-6.41-6.12ZM1746,1062.62c-4.46.8-2.13-3.43.21-3.12,5.39.7-.15,3.11-.21,3.12Zm-1.34-21.26c2.16-2.12,7.25.1,2.92,2.12a2,2,0,0,1-2.92-2.12Zm5.29-23.26c-2.68-2.75-3.31,5-2.15-3.49.6-4.48-.1-1.06,2.31-3.51,2.89,5.37.76,1.91-.16,7Zm-22.73-18.17c7.11,1.55,4.2,0,5.17,4.47l-5.17-4.47Zm17.67-2.94c4.14-7.35,0-6.5,5.64-6.09.21,3.68-.07,6.83-5.64,6.09Zm.15-85.3c5.66,5,3.54,1.51,7.78,7.91-6.07-2.21-7.75-1.8-7.78-7.91Zm7.27-3.39c3-4.6-2.77-1.64,5.08-3l-5.08,3Zm8.59-4.89-23.8-.69c4-7.55,3-2.81,5.07-3,13.84-1.23,14.43-.4,18.73,3.69Zm-34.78-9c0,17.52.69,36.23-.43,53-1.08,16.37-3,41.58-2.55,57.37.62,20.18-.46,35.81-2.13,55.57-3.72,44-5.66,20.87-25,34.74l.08,30.26c18.61,1.67,39.13,2.13,49.38-13.91,14.72-23,11.6-24.84,13.2-51,1.3-21.13-2-38.19.13-62.18,1.52-16.74,3.33-46.37,2.65-63.2l20.86.07c0,32-1.15,67.12.07,98.43,1.3,33.63-5.85,58.57,4,88.34,2.18,2.83,25.09,2.41,28.31,1.85,10-1.77,3.78,2.08,7.44-3.81,3.37-12.87,1.38-97.76,1-117.19-.38-22-3-32.53-.4-55.69l.34-55.59c-12.06.07-14.51,3.79-26.93,3.63-8.21-.11-8.59-1.68-12.32-1.86-6.49-.32-.88,1.34-8.4,2.4C1765.66,897.12,1736.77,892.8,1726.07,894.45Z" transform="translate(-591.88 -843.59)"/><path class="cls-3" d="M1846.1,1428.49c4,5.46,4.89,4.85-.26,9.58-6.95-4.45-7.54-5.77.26-9.58Zm69.83,4.39c-3.2-.18-5.9-4.63-.92-3.09,3.26,1,1.1,3.1.92,3.09Zm-20-6.31c6.24,1.33,8.23,1.89,9.7,8.13-9.86.36-6.28-.59-9.7-8.13Zm13.18-26.57c0-9.88-2.76-3.17,3.82-5.36-2.62,8.5-.28,2.72-3.82,5.36Zm8.79-18.69-7.74,5c1.71,1.27,2.93,2.76,4,3.64,4.4,3.51-1.62,1.58,4,2.11l-.33-10.7Zm-23.14-4.6c2.19-6.51,7-4.68,11-1.38l-11,1.38Zm1.54-12.23c-.36-5.62-2.08-.24,2.24-1.14,5.21-1.1-1.92,6-2.24,1.14Zm6.12-23.61c-7.85,3.65-4.59.93-6.22-.19,1.3-1.72,0-8.2,6.22.19Zm-3.62-19.28c.31,1.92-3.65,5.15-2.94.55,0-.06,2.24-4.83,2.94-.55Zm3-37.93c.13,8,3,3.25-4.84,5.19l4.84-5.19Zm-26.87,159.91c23.47-14.87,6.91-119.85,9.29-143,1.11-10.82,4-33.35-13.33-33.79-17.08-.44-7.48,23.35-8,35.72-.66,16.18-2.25,33.62-.93,49.69,1.39,16.93,1,33.13,1,50.17,0,20.1-4.8,31.16,12,41.26Zm44.63-29.29-2.1,3.8c-2.14-1.87-1.36-.66-2.68-4.27l-3.87-4.72,7.21.44c1.48-7.44,4.19-15.32,4.1-19.64-.2-10.16-5.15-11.8-.39-21.38l6.81,1.11c1.15-5.69-.51-.56-7.85-5.59.48-4.94.79-6.8.41-11.84l-2.33-10.38c-1.43-7.43,2.92-53.86-1.88-69.9-11.8-39.5-38.36-30.64-53.16-32.6-3.34-.45-6.09-1.44-7.93-3.68-9.12,10.1-19.27,11.52-26.14,25.73s-5.23,23.25-5.36,39.17c-.13,15.63-2.13,33.34-1.89,50,.18,12.92,4.31,36.09,2.35,47.44-13,75.51,67.67,91.86,85.86,53.54,3.07-6.46,1.25-6.19,3-9.59,6.61-13.11,1.6,9.66,5.4-5Z" transform="translate(-591.88 -843.59)"/><path class="cls-3" d="M1065.33,1027.58l6-.45c-.45,1.23-1.16,1.33-1.38,1.89-1.57,4-4.21-1-4.66-1.44Zm42.76-42.95c-2.46,6.33-.34,2.44-6.19,4.11,4.47-5.91-.39-3.89,6.19-4.11Zm-31.66-53c-2.12,4.37.81,6.14-5.4,2.07l5.4-2.07Zm-15.25-30.81c-4.75-1.94-2-2.32-4.46,2.28h4.22l3,.08c4.67.57.51-1.92,4.89,1.33,5.77,4.3-1.91.75,3.2,10.39l4.45,16.73a26.61,26.61,0,0,0,2.74,1.29c5.73,1,2,.3,3.74,0l-.45-32.21c-10.12-2.61-13.28.8-21.28.06Zm50.64,181.92c3.57-1,.81-20.73,1.11-25.78,10.76,18.9,5.13,26,4.9,47.71l2.07,19,18,.21c-.58-7.14-.65-1.92,1.68-3.7,3.89,4.34-.7,1.15,5.09,3.47l9.28-.52c-.05-23.59-10.65-54.25-11.27-62.44-1.85-24.27-2.28-36.14-20.44-52,15.27-25.58,13.07-20.6,19.51-51.52,2.92-14,11.35-43.5,10-56.08-1.06-.64,1.85-2.56-6.56-2.14-7,.34-4.13-2.19-5.95,3.77-2.67-7.81,1.68-9.55-19.91-2.84-13.08,42-4.41,88.64-35.39,87.68l1.39-40.38c-5.2-6.49-4.54-1.14-5.52-9.53,1.91-.59,7,7.41,7.17-13.26.07-8.4,1.43-18.87-1.72-26.51l-33-.45-1.08,61.19c-3,14.48,1.83,15,1.9,23.15-7.33,2.44,4.1-6-5.64-2.17-2.56,17.74,4.42,26.88,2,40.19-3.24,18,5.41,41.81-1.18,70.28,0,.13-1.6,30.63-1.52,32.65l39.4,1.06c2.17-21.87-8.21-78.81,1-96.72C1107.06,1025.31,1110.8,1067.78,1111.82,1082.77Z" transform="translate(-591.88 -843.59)"/><path class="cls-3" d="M1397.08,1289c-4.73-2.08-3.81,0-2.3-5.28,2.71,4.49,2.32-4.5,2.3,5.28Zm-14.85-6.43c2-1.9-3.58-.59,5.94-4.26-3.42,5.64,1.13,4.24-5.94,4.26Zm11.31-2c5.49-1.58,3,.05,4.76-4.38-8.28-1.2-4.78-3-4.76,4.38Zm-21.68-29.72c2,3.15,4.07-.8,0,5.17-4.22-4.15-2.55-1.2,0-5.17Zm-61.46,91.94c0,26.42-3.57,17.15-7.54,33-1.16,4.6-1.24,37.13,0,41.63l12,30.4c15.54,27.14,63.84,29.49,82.71,7.14,19.42-23,10.29-42.1,9.11-67.52l-36,.06c-1.6,15.82,5.56,54.93-13.59,51.24-10.21-2-8.45-10.94-10.88-18.44-6-18.35-1.66-12.43-.44-27.6,2.23-27.89-11-105.63,3-124.87,7.13-2.78,12.24-3.12,16.76,2.53l1.16,46.2,39.6-.48c3.57-23.78-.19-61.63-20.9-71.23-9.73-4.51-22.52-14.4-46-7.49-24.8,7.31-25.91,21.6-33,41.53-5.53,15.44-4,15.25-4.08,33.22C1302,1342.64,1306.73,1329.26,1310.4,1342.8Z" transform="translate(-591.88 -843.59)"/><path class="cls-3" d="M1274.43,1090.52c2.45,5,.34-.21.57,3.74-4.74-2.31-4.4-2.23-2.93-6.75.77.84,1,.15,2.36,3Zm-17.83-14.84c1.16,4.14,2.45,2.38,2.5,5.91l-1.63,5,6.67,3,3.64-8.67c2.12-9-2.48-2.72,2.81-10.88-6,2.4-6.06,3.11-14,5.65Zm9.48-9.37c0-.49,1.47-4,2.92.34,1.59,4.78-2.69,2.54-2.92-.34Zm-35.77-72.65c.12-1,.75-5.5,1-6.44,3.18-11.61-2.7,7.19,1.06-2.88l6,55.17-14.29.39,6.17-46.24Zm34,32.61c-4.19-6.77-2.58-3.91.18-8.15,1,1.88,2.2,3.09-.18,8.15Zm13,50c-5.92,9.5-6.54,1.69-6.82,1.58a34.16,34.16,0,0,1,3.86-3.26l3.87-3.68c-2.64-.93-3.75-1.36-4.16-4.81-.86-7.19-1.8,2.77,1.11-3.2,7.59-15.53-1.83,11.57,1.66-3.12.73-3.08.25-6.31-2.31-8-4.63-3.1.8-.88-2.79.15-6.74,1.94,4.62,4.09-2,.9-3.31-13.66,4.23,4.27,3.61-14.67-.18-5.29-2.32-13.78-2.91-20-3.78-39.76-11.86-83-15.81-120.93l-41.33-.43L1177,1123.92l34.89-.09,7.45-48.79,24.2.89,6.77,42.35c8.65-8,.54-6.06,9.76-17.71,1.49-1.88,1.09-1.38,2.68-3.52.21-.28.75-.56.89-1.29s.56-.92.89-1.34c6.25,5.35,7.67,4,10.89,10.61,4.15,8.48,0,8.18,7.53,13.69Z" transform="translate(-591.88 -843.59)"/><path class="cls-3" d="M1254.75,1435.4l4.29,6c-6.56-3.39-3,3.19-4.29-6Zm-1.86-18.06L1249,1412c5.32,2.7,1.22-2.92,3.85,5.36Zm-15.08-16c-3.12,4.51-4.11,1.15-.93-2.16.7-.73,3.5-1.56.93,2.16Zm-30.35-14.88c1.06-21.06,6.21-42,9.54-62l5.55,63-15.09-1Zm37.93-14.36c1.08-7.52-2.58-2.77,4.76-7.1l-4.76,7.1Zm-5.61,59-.92-9.07c7.56-.55,2-1.66,8.8,1.55l4.42-7c-1.65,5.68-1.83,15-5.51,22.17l8.14,9.44-5.62,7.88,10.68.83c.85,3.76-.46,5.17-.49,5.34-1.94,12.17-3.9-5.44-.83,3.49l7.57-.81-5.3-38.52c-6.48-7.58,1.39,2.55-5.82-1.5l7.95-4.4c-8.49-5.6-6.81-11.56-6.39-22-7.18-1.2,3.82,6.13-3.18,1.3-7.45-5.13,6.41,4.74,1.52-24.69-2.21-13.34-4-30.36-5.56-44-1.91-16.91-7.15-77.81-13.62-86.84l-39.13-1.14-22.11,139.85c-3.14,29.79-9.23,47-14.21,84.51h35.16l6.36-45.52,24.41-3.07,6.86,44.78,11.48-1.59-4.27-8.11c8.19-7.32,5.32-3.23,4.44-9.63,0-.29-.16-.88-.19-1.17C1242.63,1428.5,1243.12,1438.9,1239.78,1431.1Z" transform="translate(-591.88 -843.59)"/><path class="cls-3" d="M1897.09,1088.27c-2.73-8.37-2.22-67.29,1.51-74.79,12.36-3,19.05,8.95,23.77,18.75,8.76,18.21,2.07,21.8.28,36.55l-7.21-1.89c7.38,6.61,5.08,1.15,4,8.7-1.86,12.43-7.35,13.7-22.3,12.68Zm-29.21-163.08c2.37-5.69-3.08-1.17,4.13-3.83-2.79,5.39,1.71,3.44-4.13,3.83Zm57.75,55.91-2.74-.41-27-1.27.63-80.29-32.57.68c-3.43,6.25-2.31,90.79-1.89,105.06.61,20.77-6.93,87.39,2.39,99.47l-.51,17.79c10,4.84,53.16,2.8,62.9-1.93,18.21-8.87,24-17.84,28.73-38.35C1961.61,1055.78,1959.43,981,1925.63,981.1Z" transform="translate(-591.88 -843.59)"/><path class="cls-3" d="M1763.76,1373.92c2.5-4-.65-2.43,4-4.88-2.33,5.55,1.4,2.62-4,4.88Zm10.15-60.14c1.24,17.64-1,40.29-22.83,40.87-5.47-18.56-.77-52.75-5.29-77,25.73-7.13,26.85,18.07,28.12,36.15Zm-56.74,123.46-2.83,34.79,34.52,4,2.08-93.66c51.76-5.46,56.69-16.95,58.34-68.37.55-17.14-1.91-36.44-13-50-12.29-15.08-27.65-14-44.27-15.28-14.85-1.14-44.29-5.82-41.52,16.56,2.85,23.12-1.51,33.87.19,55.74C1712,1337.05,1718.85,1431.25,1717.17,1437.24Z" transform="translate(-591.88 -843.59)"/><path class="cls-3" d="M1374.29,1027.4c0-5.34-2.24-3.57,2.93-4.12l-2.93,4.12Zm10.17-28.48c.07-2.36-3.61-.42,1.43-.52,3.32-.07-1.55,4.54-1.43.52Zm-29.06-66.15c6.81,12.57,2,52.13,4,69.13,20.41,7.58,25.81-16.41,24.86-32.53-1.33-22.37-.35-30.09-19.16-40.8l-.28-10.8c-12.13,14.26,2,1.86-5.42,11.57-.9,1.19-1.4-.56-4,3.43Zm25.65-29.16c-5.86-2.9-10.48-1.54-22.52-2.36-10.42-.72-24.46-.61-34.57,2.09,4.57,12.48.74,15.23.06,26.72-.44,7.39,2.3,15.76,2.27,26.79-.16,49.09-4.64,52-.9,114.25.93,15.52-3.38,37.29-.74,55.19l34.75-3.31c1-16.94-3.08-76.58,2.07-87.81,10.37-1.28,38,1.51,49.87-21.58,7.5-14.56,9.47-48.59,7.09-64.63-6.45-43.51-25.5-39.05-33.91-43.22-.38-.19-.85-.52-1.22-.71Z" transform="translate(-591.88 -843.59)"/><path class="cls-4" d="M1612.9,1394.05c3.84,7.52-1,5.66-1.2,5.91-1.8-5-1.82-2.16,1.2-5.91Zm2.77,1.44,7.54.57c-3.48-2.86,1.71-7.87-7.54-.57Zm-.16-12.86c.54.77,6.71-3.78.46,5.33-5.78-7.75-.29-4.37-.46-5.33Zm22.85-131.54c.06-4.84.13-.79,2.27-1.28l.94.28c1,3.52-3.22,2.53-3.21,1Zm-48.15-7.23-.53,204.5c7.34,5.28,11.58,3.25,14.93,12.47-11.77,3.8-12.91-2.44-15.2,4.64,5.77,6,30.15,2.2,40.28,2.6,10.7.41,30,1.55,40.78.48,7-11.62-.79-17.55,2.26-29.2l-48.19-.37-1.94-70.11,32.86,1.3-.55-35c-12.76-8.81-18.71.76-29.75-1.63-5.72-9.29-2.22-44.45-2.22-58.19l48,.74-.16-32.15Z" transform="translate(-591.88 -843.59)"/><path class="cls-4" d="M1608.11,1046.51v6.84c-7.36-3.49-5.49-3.53,0-6.84Zm23.53-133.44c-.15-3.23-.12-.69,1.85-.87,4.86-.43-1.59,6.79-1.85.87Zm4.49-10c-.27.21,2.06,4.09-4.5.38,2.85-3,1.42-2.1,4.5-.38Zm-21.11,25c7.21-.05,19.5.89,25.71.31,13-1.23,3.32-4.62,21.81-4.62l.24-27.41-80.44.44.74,206.36,18.76,9c-6.23,5.3-5.08,2.57-15.21,3.36-5,.39.19-1.64-3.61.72,3.07,7.55,9.65,5,19.21,4.45,19.47-1.11,53.25,8.4,61.84,1.77,5.74-9.37,1.42-20,1.71-30.81l-46.15-.22c-6.66-11.49-4.86-51.79-4.83-70.79l32.37,1.42.85-34.63-30.58-1.26C1611.26,976.61,1614.43,941.16,1615,928.11Z" transform="translate(-591.88 -843.59)"/><path class="cls-3" d="M1495,1088.24l3.33,6.62c-5.75-2.39-2.69,1.52-3.33-6.62Zm-16.66-167.85c.06-3.23,2.27-4,3.66-.08,1.22,3.46-3.71,2.53-3.66.08Zm-9.27-9.28c-2.17,2.67-2.52.44-2.25.2,2.79-2.49,7.21-6.35,2.25-.2Zm-7,.4c-1.6-3.56-2.51-.12,0-4.6.28.42,1,.9,1,1.1l-1,3.5ZM1547.56,931c.34-5.11-.63-11.94.27-16.36,1.24-6.16,3.66-4.4,2.13-15.44l-104-.39c-2.78,9.46-10.14,17.5-7.86,29.66l34.14.48.81,191.3,37.4,1.76-2.08-192C1514,930.25,1545.57,931.4,1547.56,931Z" transform="translate(-591.88 -843.59)"/><path class="cls-3" d="M1500.45,1465.23c-2.14-3.94-1.29-15.43,1.6-20.54.45,6.72,1.64,14.94-1.6,20.54Zm1.56-23.43c-2.29-5.78.17-37.08,3.82-42.49,2,5.65-.4,13.69-.2,22.1.15,6.14,1.69,18.24-3.62,20.39Zm13.15,27c7-33.85-.3-60.65-.25-95.3,0-31-1.74-65.13-.25-95.45l36-4.38c5.85-7.89,2.56-8.92.86-20.78l-1-6.71-106,.11c6.35,14.78-3.33,18.47.62,29.34l33.5,1.15,1.36,190.53Z" transform="translate(-591.88 -843.59)"/><path class="cls-1" d="M1870.86,1266.73c-17.08-.44-7.48,23.35-8,35.72-.66,16.18-2.25,33.62-.93,49.69,1.39,16.93,1,33.13,1,50.17,0,20.1-4.8,31.16,12,41.26,23.47-14.87,6.91-119.85,9.29-143C1885.3,1289.7,1888.18,1267.17,1870.86,1266.73Z" transform="translate(-591.88 -843.59)"/><path class="cls-3" d="M1201,1645.87l-1.9,4.6c-2.47-2.24-1.81,4.61-2.1-4l-14.56-52.33-18.63,1.36-5,75.75,13-.61,3.56-61.67,13.17,47.82c12.62,45.72,29.57-33.7,34.77-47.2l2.74,61.56h13.38l-4.28-76.64-18.3.23Z" transform="translate(-591.88 -843.59)"/><path class="cls-3" d="M1611.85,1605.83h19.21v53.76l-17.3.18-10.61-1.07c6.6-11.65,8.7-29.74,8.7-43.27v-9.6Zm28.8,78.72,2.21,3.74,7.4.1c.24-7.1-.53-3.6,2-7.2-.66-41.32-5.14-5.63-7.44-29.09l.18-57.84-46.08.56c0,18.74,1.46,39.48-6.23,57.08-9.34,21.4-10.84-10.38-8.74,37.78l9.59-.51,1-18.11,45.8.55Z" transform="translate(-591.88 -843.59)"/><path class="cls-3" d="M1536,1613.63l-.48,57.2,12.93.28v-76.8H1537c-8.16,4.18-33.51,50.77-35.58,60.29l.52-60-12.93-.28,0,76.8,15.92-.06Z" transform="translate(-591.88 -843.59)"/><path class="cls-3" d="M1914.27,1613.63l-.47,57.2,12.94.28v-76.8h-11.52c-8.17,4.18-33.51,50.77-35.59,60.29l.52-60-12.93-.28v76.8l15.88-.06Z" transform="translate(-591.88 -843.59)"/><path class="cls-3" d="M1708.84,1613.63l-.48,57.2,12.93.28v-76.8h-11.52c-8.16,4.18-33.51,50.77-35.58,60.29l.52-60-12.93-.28v76.8l15.88-.06Z" transform="translate(-591.88 -843.59)"/><polygon class="cls-3" points="753.6 795.19 785.74 794.88 785.74 827.52 799.69 827.52 799.69 750.72 785.74 750.72 785.23 782.9 753.86 782.47 753.61 750.72 739.66 750.72 739.66 827.52 753.61 827.52 753.6 795.19"/><polygon class="cls-3" points="1366.08 795.19 1398.22 794.88 1398.22 827.52 1412.17 827.52 1412.17 750.72 1398.22 750.72 1397.71 782.9 1366.34 782.47 1366.09 750.72 1352.14 750.72 1352.14 827.52 1366.09 827.52 1366.08 795.19"/><path class="cls-3" d="M1277.27,1606.86c32.25-11.57,36.8,44.28,14.81,51.79-32.37,11-37.93-43.5-14.81-51.79Zm41.27,37.37c13.3-55.51-57-66.89-68-23.32C1236.51,1676.42,1307.92,1688.57,1318.54,1644.23Z" transform="translate(-591.88 -843.59)"/><path class="cls-3" d="M1814.09,1639.76c1.73-9.15,5.92-23.7,9.57-30.68l8.36,30.77-17.93-.09Zm-2.55,10.33,23.27.27,7.44,20.5,14.32.17-24.17-76.66-17.75.07-23.85,76.63,14-.86Z" transform="translate(-591.88 -843.59)"/><polygon class="cls-3" points="525.12 762.55 555.34 762.24 555.34 750.72 511.18 750.72 511.18 827.52 556.75 827.01 556.75 816.21 525.13 815.49 525.12 794.58 553.1 794.38 553.42 783.43 525.13 782.85 525.12 762.55"/><path class="cls-3" d="M1056.33,1605.18c12-1.8,22.22-.34,21.68,14-.47,12.59-11.44,14.72-22.42,12.62l.74-26.64Zm-14.72-9.46v75.39h13.92l.15-27.91c20.76,0,40.58-5.9,35.69-31.25C1087.11,1589.85,1057.88,1594.4,1041.61,1595.72Z" transform="translate(-591.88 -843.59)"/><path class="cls-2" d="M1277.27,1606.86c-23.12,8.29-17.56,62.84,14.81,51.79C1314.07,1651.14,1309.52,1595.29,1277.27,1606.86Z" transform="translate(-591.88 -843.59)"/><path class="cls-1" d="M1897.09,1088.27c15,1,20.44-.25,22.3-12.68,1.13-7.55,3.43-2.09-4-8.7l7.21,1.89c1.79-14.75,8.48-18.34-.28-36.55-4.72-9.8-11.41-21.74-23.77-18.75C1894.87,1021,1894.36,1079.9,1897.09,1088.27Z" transform="translate(-591.88 -843.59)"/><path class="cls-3" d="M1737,1656.12l-2.27,9.19c15.45,12.61,57.3,5.5,49-21.9-2.74-9-9.4-9-14.15-12.26,27.42-15.18,13.19-46.61-33.11-31.56l2.43,10c10.26-3.1,14.17-5.93,22-3.06,6.37,2.35,9.28,6.55,5.77,13.35-3.84,7.41-16.78,2.74-19.81,10.92,1.35,15.47,16.46-3.18,23.53,17.32C1766.11,1666,1749.8,1659.38,1737,1656.12Z" transform="translate(-591.88 -843.59)"/><path class="cls-1" d="M1763.71,1293.4c-1.35-8.78,1.38-3,2.31-1,1.87,3.93-2.21,1.64-2.31,1Zm-17.92-15.77c4.52,24.27-.18,58.46,5.29,77,21.83-.58,24.07-23.23,22.83-40.87C1772.64,1295.7,1771.52,1270.5,1745.79,1277.63Z" transform="translate(-591.88 -843.59)"/><path class="cls-1" d="M1355.4,932.77c6.81,12.57,2,52.13,4,69.13,20.41,7.58,25.81-16.41,24.86-32.53-1.33-22.37-.35-30.09-19.16-40.8l-.28-10.8c-12.13,14.26,2,1.86-5.42,11.57C1358.46,930.53,1358,928.78,1355.4,932.77Z" transform="translate(-591.88 -843.59)"/><polygon class="cls-3" points="845.26 827.52 845.26 762.24 866.89 762.24 866.89 750.72 809.81 750.72 809.81 762.24 820.3 762.13 831.31 762.75 831.28 827.52 845.26 827.52"/><path class="cls-1" d="M1998.82,1435.7c21.19,6.06,20.47-20.78,21.38-34.47,1.29-19.51,2-36.91-21.7-35Z" transform="translate(-591.88 -843.59)"/><path class="cls-1" d="M1998.57,1332.35c20.93,3.09,23.71-10.84,23.76-27.93.06-20.82,0-32.19-23.46-32.66Z" transform="translate(-591.88 -843.59)"/><path class="cls-2" d="M1611.85,1615.43c0,13.53-2.1,31.62-8.7,43.27l10.61,1.07,17.3-.18v-53.76h-19.21Z" transform="translate(-591.88 -843.59)"/><path class="cls-1" d="M2114.4,1045.19c-2.77,2.77-2.14,10.13.76,13,3.85,3.88,48.42,4.84,53.28,0a9.21,9.21,0,0,0,0-12.61c-3.76-3.76-11.26-2.48-17-2.4C2144.08,1043.31,2118.46,1041.13,2114.4,1045.19Z" transform="translate(-591.88 -843.59)"/><path class="cls-1" d="M758.88,1300.55c-17.3,11.22-1,35.07,15,26.2C793.44,1315.91,775.4,1289.84,758.88,1300.55Z" transform="translate(-591.88 -843.59)"/><path class="cls-2" d="M1055.59,1631.82c11,2.1,22,0,22.42-12.62.54-14.36-9.69-15.82-21.68-14Z" transform="translate(-591.88 -843.59)"/><path class="cls-1" d="M1207.46,1386.45l15.09,1-5.55-63C1213.67,1344.44,1208.52,1365.39,1207.46,1386.45Z" transform="translate(-591.88 -843.59)"/><path class="cls-1" d="M1224.14,1039.9l14.29-.39-6-55.17c-3.76,10.07,2.12-8.73-1.06,2.88-.26.94-.89,5.44-1,6.44Z" transform="translate(-591.88 -843.59)"/><path class="cls-1" d="M1061.18,900.85l-.24,2.28,3,.08c4.67.57.51-1.92,4.89,1.33,5.77,4.3-1.91.75,3.2,10.39l4.45,16.73a26.61,26.61,0,0,0,2.74,1.29c5.73,1,2,.3,3.74,0l-.45-32.21C1072.34,898.18,1069.18,901.59,1061.18,900.85Z" transform="translate(-591.88 -843.59)"/><path class="cls-2" d="M1814.09,1639.76l17.93.09-8.36-30.77C1820,1616.42,1816.13,1630.48,1814.09,1639.76Z" transform="translate(-591.88 -843.59)"/><path class="cls-4" d="M1885.54,1589.38c13,4.47,12,3.7,24.72,0l2.91-9.82c-17.68-.1-2.91,2.68-15.23,6.65-12.1-4,2.43-6.75-14.88-6.75Z" transform="translate(-591.88 -843.59)"/><path class="cls-5" d="M1111.82,1082.77c.56,8.67.25,16,6,21.93.23-21.68,5.86-28.81-4.9-47.71C1112.63,1062,1115.39,1081.76,1111.82,1082.77Z" transform="translate(-591.88 -843.59)"/><path class="cls-6" d="M1166.61,1027.19c-5.92,4.11-3.56,4.3-3.58,14.12,0,5.35.39,10.25.4,15.4,0,9.49-2.64,20.46,1.07,29a8,8,0,0,0,.78-1.21c.12-.32.53-.91.65-1.33Z" transform="translate(-591.88 -843.59)"/><path class="cls-4" d="M1149.29,1433.43c.39-11.09,5-32.19-1.88-39.81-1.44,5.52-1.14,14-1.43,20.21C1145.25,1429.76,1145.22,1428.83,1149.29,1433.43Z" transform="translate(-591.88 -843.59)"/><path class="cls-7" d="M1502,1441.8c5.31-2.15,3.77-14.25,3.62-20.39-.2-8.41,2.17-16.45.2-22.1C1502.18,1404.72,1499.72,1436,1502,1441.8Z" transform="translate(-591.88 -843.59)"/><path class="cls-6" d="M1924.51,1346.41c2.69,5.56-.6,1.68,4.79,6-5.26,4.08-6.61,3.34-.47,9.09,7-8.17,3.8-9.81,4.52-18.69,7.14-4,2.69.76,4.33-5.18C1929.33,1338.75,1930.06,1339.81,1924.51,1346.41Z" transform="translate(-591.88 -843.59)"/><path class="cls-8" d="M1256.6,1075.68c1.16,4.14,2.45,2.38,2.5,5.91l-1.63,5,6.67,3,3.64-8.67c2.12-9-2.48-2.72,2.81-10.88C1264.63,1072.43,1264.53,1073.14,1256.6,1075.68Z" transform="translate(-591.88 -843.59)"/><path class="cls-4" d="M1542.73,982.27c-4,2-2.07-3.08-3.5,5.24-1.11,6.4-.38,19.3,3.56,23.33C1545.48,1004.4,1545.81,987.28,1542.73,982.27Z" transform="translate(-591.88 -843.59)"/><path class="cls-4" d="M1789.57,1390.48c-3.28,5.58-2.66,2-.64,9.47,8.76-2.61,11.49,1.53,13.69-8.14C1797.06,1387.79,1795.3,1388.1,1789.57,1390.48Z" transform="translate(-591.88 -843.59)"/><path class="cls-4" d="M1954.07,984.32c.69-2.94-.18-6.34-3.12-7.18l-9.85-2.07C1937.88,986.48,1944.69,987.52,1954.07,984.32Z" transform="translate(-591.88 -843.59)"/><path class="cls-4" d="M963.61,1403.49c3.13-4.28,3-12.1,3.53-19C961.39,1389.94,955.1,1395.75,963.61,1403.49Z" transform="translate(-591.88 -843.59)"/><path class="cls-9" d="M1737.05,902.72l23.8.69c-4.3-4.09-4.89-4.92-18.73-3.69C1740,899.91,1741.07,895.17,1737.05,902.72Z" transform="translate(-591.88 -843.59)"/><path class="cls-10" d="M1927.2,1385.58l5.56-2.62c-3.57-6.31-1.5,2.55-.5-2.15,1.26-6,.91,4.13,1.16-3,.14-4-2.52-5.46-4.81-8.19-2.13,8.2,1.25,3.46-3.53,13.49Z" transform="translate(-591.88 -843.59)"/><path class="cls-11" d="M1922.89,980.69l2.74.41,5.74-3.76c-5.07-6-5.87-6.9-11.85-6.56l2.29,4.11c.08.22.22.75.28,1Z" transform="translate(-591.88 -843.59)"/><path class="cls-6" d="M1553.45,1308.56l-2.6-11.93c-5.59,2.24-3.41,1-3.9,6.45C1546.14,1312.21,1544.64,1310.23,1553.45,1308.56Z" transform="translate(-591.88 -843.59)"/><path class="cls-12" d="M1926.38,1418.91c3.95-5.34,3.06-7.67,2.66-14.61l4.08-2.81c-4.87-5.69.46-2-6.63-3.39Z" transform="translate(-591.88 -843.59)"/><path class="cls-6" d="M1544.76,1086.89c5.9-6.27,1.64-3.9,1.75-7.34.15-4.87,6,.57-1-6.54C1539.37,1076.1,1540.17,1081.74,1544.76,1086.89Z" transform="translate(-591.88 -843.59)"/><path class="cls-4" d="M1814.84,1343.57c3-4.86,4.4-16.77,2.29-22.33-.92,1.13-2.83-.59-3,9.87C1814.13,1335,1814.61,1339.66,1814.84,1343.57Z" transform="translate(-591.88 -843.59)"/><path class="cls-13" d="M1239.78,1431.1c6.72-.79,5.71-1.42,7.88-7.52-6.83-3.21-1.24-2.1-8.8-1.55Z" transform="translate(-591.88 -843.59)"/><path class="cls-14" d="M1969.81,1073.57c4.82-5.83,3.46,8.48,3.4-9.2,0-5.11-.65-4.39-2.39-7.14l-1.74,8.57C1968,1072.53,1965.8,1066.26,1969.81,1073.57Z" transform="translate(-591.88 -843.59)"/><path class="cls-1" d="M1845.84,1438.07c5.15-4.73,4.27-4.12.26-9.58C1838.3,1432.3,1838.89,1433.62,1845.84,1438.07Z" transform="translate(-591.88 -843.59)"/><path class="cls-12" d="M1814.64,1440a37.6,37.6,0,0,0,.08-20C1812,1425.52,1810.88,1433.56,1814.64,1440Z" transform="translate(-591.88 -843.59)"/><path class="cls-1" d="M1895.91,1426.57c3.42,7.54-.16,8.49,9.7,8.13C1904.14,1428.46,1902.15,1427.9,1895.91,1426.57Z" transform="translate(-591.88 -843.59)"/><path class="cls-13" d="M1910.14,1386.26c1.71,1.27,2.93,2.76,4,3.64,4.4,3.51-1.62,1.58,4,2.11l-.33-10.7Z" transform="translate(-591.88 -843.59)"/><path class="cls-1" d="M1500.45,1465.23c3.24-5.6,2-13.82,1.6-20.54C1499.16,1449.8,1498.31,1461.29,1500.45,1465.23Z" transform="translate(-591.88 -843.59)"/><path class="cls-15" d="M1277.32,1076.23l3.57-2.83-2.66-2.53-3.87,3.68a34.16,34.16,0,0,0-3.86,3.26C1270.78,1077.92,1271.4,1085.73,1277.32,1076.23Z" transform="translate(-591.88 -843.59)"/><path class="cls-16" d="M1927.2,1385.58c2.71,4.51.69,3.67,6.4,4.94,2.88-4.31,4.32-2-.84-7.56Z" transform="translate(-591.88 -843.59)"/><path class="cls-6" d="M1295,1246c.26-.62,3.75,1.12.55-7.33-.69-1.82-2.23-2.93-3.55-4.52C1291.76,1239.08,1290.92,1243.05,1295,1246Z" transform="translate(-591.88 -843.59)"/><path class="cls-4" d="M1040.22,1241.67c-1.55-7.39,1.22-5.35-6.21-6.32C1034.85,1243.2,1032.31,1240.26,1040.22,1241.67Z" transform="translate(-591.88 -843.59)"/><path class="cls-12" d="M1231.58,1121.17c4.67-5.89,2.7-5.24-3.61-6.49C1228.47,1119.73,1224.62,1117.73,1231.58,1121.17Z" transform="translate(-591.88 -843.59)"/><path class="cls-4" d="M1217,1468.12c-2.27-7.22.82-4.77-6.32-6.1C1211.86,1470.09,1208,1466.27,1217,1468.12Z" transform="translate(-591.88 -843.59)"/><path class="cls-8" d="M1894.74,1376.71l11-1.38C1901.73,1372,1896.93,1370.2,1894.74,1376.71Z" transform="translate(-591.88 -843.59)"/><path class="cls-12" d="M1565.41,1242.58c-.68-8.82,1.52-2.77-3.47-5.84-.49.89-4.45-1.79-1.38,4.06C1562.37,1244.24,1558.51,1242.64,1565.41,1242.58Z" transform="translate(-591.88 -843.59)"/><path class="cls-17" d="M1813.42,1407.72c1.66-2.36,1.61,4.45,1.79-3.71.14-6.37-.06-2.66-1.76-5.47C1810.23,1404.15,1810.11,1401.62,1813.42,1407.72Z" transform="translate(-591.88 -843.59)"/><path class="cls-18" d="M1811.27,1092.93c3.22,7.9-1.92,4.21,6.41,6.12C1815.89,1091.84,1821.48,1095.62,1811.27,1092.93Z" transform="translate(-591.88 -843.59)"/><path class="cls-4" d="M1542.69,892.38c.66-1.31,3.92,2.32,1.2-4-1.72-4,1.1-.51-3.07-2.36-.68,1.26-3.43-2.39-1,3.45C1541.14,892.8,1539.54,890.43,1542.69,892.38Z" transform="translate(-591.88 -843.59)"/><path class="cls-19" d="M1284.11,1263.5a27.41,27.41,0,0,0,3.71-1,17.74,17.74,0,0,0,4.58-3.42C1286.68,1257.9,1285,1256.86,1284.11,1263.5Z" transform="translate(-591.88 -843.59)"/><path class="cls-20" d="M1744.84,997c5.57.74,5.85-2.41,5.64-6.09C1744.82,990.49,1749,989.64,1744.84,997Z" transform="translate(-591.88 -843.59)"/><path class="cls-6" d="M1927,1337.21c-.91-7.23,2-4.2-6.75-6.66C1924.89,1337.9,1921.48,1335.14,1927,1337.21Z" transform="translate(-591.88 -843.59)"/><path class="cls-7" d="M1058.92,1415.3c6-9.48-.28-7.5-.35-7.59C1056.08,1414.06,1055.91,1410.94,1058.92,1415.3Z" transform="translate(-591.88 -843.59)"/><path class="cls-6" d="M1813.45,1384.43c4.12-1.78,6,.51,1.71-6.73C1811.32,1381.74,1811.05,1379.8,1813.45,1384.43Z" transform="translate(-591.88 -843.59)"/><path class="cls-8" d="M1896.18,1340.68c1.63,1.12-1.63,3.84,6.22.19C1896.15,1332.48,1897.48,1339,1896.18,1340.68Z" transform="translate(-591.88 -843.59)"/><path class="cls-8" d="M1752.77,919.6c-4.24-6.4-2.12-2.88-7.78-7.91C1745,917.8,1746.7,917.39,1752.77,919.6Z" transform="translate(-591.88 -843.59)"/><path class="cls-8" d="M1608.11,1053.35v-6.84C1602.62,1049.82,1600.75,1049.86,1608.11,1053.35Z" transform="translate(-591.88 -843.59)"/><path class="cls-7" d="M1393.54,1280.58c5.49-1.58,3,.05,4.76-4.38C1390,1275,1393.52,1273.24,1393.54,1280.58Z" transform="translate(-591.88 -843.59)"/><path class="cls-21" d="M1137.87,1123.92c4.66,2.1,3.17,1.94,6.77-.23-5.79-2.32-1.2.87-5.09-3.47C1137.22,1122,1137.29,1116.78,1137.87,1123.92Z" transform="translate(-591.88 -843.59)"/><path class="cls-10" d="M1678.23,1437.79c5.44-1.1,3.09-.48,5.22-4.77C1677.54,1434.19,1676.68,1432.47,1678.23,1437.79Z" transform="translate(-591.88 -843.59)"/><path class="cls-8" d="M1750.06,1011.1c-2.41,2.45-1.71-1-2.31,3.51-1.16,8.49-.53.74,2.15,3.49C1750.82,1013,1753,1016.47,1750.06,1011.1Z" transform="translate(-591.88 -843.59)"/><path class="cls-7" d="M1264.34,1026.27c2.38-5.06,1.18-6.27.18-8.15C1261.76,1022.36,1260.15,1019.5,1264.34,1026.27Z" transform="translate(-591.88 -843.59)"/><path class="cls-10" d="M1600.52,1133.73c-.46-.33,3.22-6.33-5.47-.22C1598.86,1137.91,1596.85,1136.6,1600.52,1133.73Z" transform="translate(-591.88 -843.59)"/><path class="cls-4" d="M1670.7,1436.31c.46-2.26,1.19-2.58.7-5.17-.82-4.42-.43-1.93-1.93-3.92C1667.85,1431.49,1668,1432,1670.7,1436.31Z" transform="translate(-591.88 -843.59)"/><path class="cls-7" d="M1615.51,1382.63c.17,1-5.32-2.42.46,5.33C1622.22,1378.85,1616.05,1383.4,1615.51,1382.63Z" transform="translate(-591.88 -843.59)"/><path class="cls-22" d="M1685.81,1009.44c5.27-6,2.11-4.63-2.73-6.71Z" transform="translate(-591.88 -843.59)"/><path class="cls-23" d="M1623.21,1396.06c-3.48-2.86,1.71-7.87-7.54-.57Z" transform="translate(-591.88 -843.59)"/><path class="cls-16" d="M1275,1094.26c-.23-4,1.88,1.27-.57-3.74-1.4-2.86-1.59-2.17-2.36-3C1270.6,1092,1270.26,1092,1275,1094.26Z" transform="translate(-591.88 -843.59)"/><path class="cls-9" d="M1101.9,988.74c5.85-1.67,3.73,2.22,6.19-4.11C1101.51,984.85,1106.37,982.83,1101.9,988.74Z" transform="translate(-591.88 -843.59)"/><path class="cls-8" d="M1611.7,1400c.24-.25,5,1.61,1.2-5.91C1609.88,1397.8,1609.9,1395,1611.7,1400Z" transform="translate(-591.88 -843.59)"/><path class="cls-8" d="M1909.09,1400c3.54-2.64,1.2,3.14,3.82-5.36C1906.33,1396.83,1909.13,1390.12,1909.09,1400Z" transform="translate(-591.88 -843.59)"/><path class="cls-16" d="M1478.33,920.39c0,2.45,4.88,3.38,3.66-.08C1480.6,916.37,1478.39,917.16,1478.33,920.39Z" transform="translate(-591.88 -843.59)"/><path class="cls-18" d="M1814.82,1396.41c-1.25-7.72-.76-3.3-3.94-6.28C1812.48,1397.12,1809.54,1394.24,1814.82,1396.41Z" transform="translate(-591.88 -843.59)"/><path class="cls-7" d="M1382.23,1282.6c7.07,0,2.52,1.38,5.94-4.26C1378.65,1282,1384.19,1280.7,1382.23,1282.6Z" transform="translate(-591.88 -843.59)"/><path class="cls-24" d="M1815.33,1307.52c3.93-3.11,5.37.65,1-5.68a10.09,10.09,0,0,0-1.37,2C1814.51,1307.3,1814.42,1304.86,1815.33,1307.52Z" transform="translate(-591.88 -843.59)"/><path class="cls-24" d="M1105,908.87l5.8.81C1110.52,908.92,1114.73,902.94,1105,908.87Z" transform="translate(-591.88 -843.59)"/><path class="cls-25" d="M1371.86,1256c4.07-6,2-2,0-5.17C1369.31,1254.83,1367.64,1251.88,1371.86,1256Z" transform="translate(-591.88 -843.59)"/><path class="cls-26" d="M1746.16,1059.5c-2.34-.31-4.67,3.92-.21,3.12C1746,1062.61,1751.55,1060.2,1746.16,1059.5Z" transform="translate(-591.88 -843.59)"/><path class="cls-5" d="M1071.37,1027.13l-6,.45c.45.46,3.09,5.46,4.66,1.44C1070.21,1028.46,1070.92,1028.36,1071.37,1027.13Z" transform="translate(-591.88 -843.59)"/><path class="cls-10" d="M1310.4,1002.44c.22.2-4.78,7.7,5.3-.08Z" transform="translate(-591.88 -843.59)"/><path class="cls-7" d="M1397.08,1289c0-9.78.41-.79-2.3-5.28C1393.27,1289,1392.35,1287,1397.08,1289Z" transform="translate(-591.88 -843.59)"/><path class="cls-8" d="M1896.93,1288.85c7.82-1.94,5,2.85,4.84-5.19Z" transform="translate(-591.88 -843.59)"/><path class="cls-7" d="M1744.61,1041.36a2,2,0,0,0,2.92,2.12C1751.86,1041.46,1746.77,1039.24,1744.61,1041.36Z" transform="translate(-591.88 -843.59)"/><path class="cls-14" d="M1919.53,1414.28l-4.78-.47c1.32,3.61.54,2.4,2.68,4.27Z" transform="translate(-591.88 -843.59)"/><path class="cls-14" d="M1060.94,903.13l.24-2.28c-4.75-1.94-2-2.32-4.46,2.28Z" transform="translate(-591.88 -843.59)"/><path class="cls-11" d="M1763.71,1293.4c.1.64,4.18,2.93,2.31-1C1765.09,1290.44,1762.36,1284.62,1763.71,1293.4Z" transform="translate(-591.88 -843.59)"/><path class="cls-26" d="M1266.08,1066.31c.23,2.88,4.51,5.12,2.92.34C1267.55,1062.26,1266,1065.82,1266.08,1066.31Z" transform="translate(-591.88 -843.59)"/><path class="cls-21" d="M1096.65,1276.17c-1.08,5.14,3.23.91,3-.64C1099.23,1271.36,1096.84,1275.27,1096.65,1276.17Z" transform="translate(-591.88 -843.59)"/><path class="cls-16" d="M1076.43,931.66l-5.4,2.07C1077.24,937.8,1074.31,936,1076.43,931.66Z" transform="translate(-591.88 -843.59)"/><path class="cls-13" d="M1915,1429.79c-5-1.54-2.28,2.91.92,3.09C1916.11,1432.89,1918.27,1430.79,1915,1429.79Z" transform="translate(-591.88 -843.59)"/><path class="cls-8" d="M1245.39,1372.09l4.76-7.1C1242.81,1369.32,1246.47,1364.57,1245.39,1372.09Z" transform="translate(-591.88 -843.59)"/><path class="cls-5" d="M1236.88,1399.17c-3.18,3.31-2.19,6.67.93,2.16C1240.38,1397.61,1237.58,1398.44,1236.88,1399.17Z" transform="translate(-591.88 -843.59)"/><path class="cls-27" d="M1895.84,1322.14c-.71,4.6,3.25,1.37,2.94-.55C1898.08,1317.31,1895.85,1322.08,1895.84,1322.14Z" transform="translate(-591.88 -843.59)"/><path class="cls-28" d="M1631.64,913.07c.26,5.92,6.71-1.3,1.85-.87C1631.52,912.38,1631.49,909.84,1631.64,913.07Z" transform="translate(-591.88 -843.59)"/><path class="cls-29" d="M1631.63,903.49c6.56,3.71,4.23-.17,4.5-.38C1633.05,901.39,1634.48,900.49,1631.63,903.49Z" transform="translate(-591.88 -843.59)"/><path class="cls-15" d="M1896.28,1364.48c.32,4.88,7.45-2.24,2.24-1.14C1894.2,1364.24,1895.92,1358.86,1896.28,1364.48Z" transform="translate(-591.88 -843.59)"/><path class="cls-7" d="M1867.88,925.19c5.84-.39,1.34,1.56,4.13-3.83C1864.8,924,1870.25,919.5,1867.88,925.19Z" transform="translate(-591.88 -843.59)"/><path class="cls-30" d="M1425.69,960.06c2.8-3.59,1.75-2.75.52-5C1422.49,960.3,1423.88,957.22,1425.69,960.06Z" transform="translate(-591.88 -843.59)"/><path class="cls-8" d="M1498.32,1094.86l-3.33-6.62C1495.63,1096.38,1492.57,1092.47,1498.32,1094.86Z" transform="translate(-591.88 -843.59)"/><path class="cls-13" d="M1259,1441.39l-4.29-6C1256,1444.58,1252.48,1438,1259,1441.39Z" transform="translate(-591.88 -843.59)"/><path class="cls-15" d="M1638.36,1251.09c0,1.53,4.26,2.52,3.21-1l-.94-.28C1638.49,1250.3,1638.42,1246.25,1638.36,1251.09Z" transform="translate(-591.88 -843.59)"/><path class="cls-23" d="M1727.17,999.93l5.17,4.47C1731.37,1000,1734.28,1001.48,1727.17,999.93Z" transform="translate(-591.88 -843.59)"/><path class="cls-16" d="M1763.76,1373.92c5.44-2.26,1.71.67,4-4.88C1763.11,1371.49,1766.26,1369.93,1763.76,1373.92Z" transform="translate(-591.88 -843.59)"/><path class="cls-31" d="M1060.5,1369.33c-3,2.81-.73,3.87,1.18,1.28C1064.23,1367.15,1062,1367.94,1060.5,1369.33Z" transform="translate(-591.88 -843.59)"/><path class="cls-26" d="M1043.69,1376.17c0,.64,4.67,2.95,2.84-1.3l-.88-.11C1041.57,1376.28,1043.43,1370.34,1043.69,1376.17Z" transform="translate(-591.88 -843.59)"/><path class="cls-15" d="M1466.81,911.31c-.27.24.08,2.47,2.25-.2C1474,905,1469.6,908.82,1466.81,911.31Z" transform="translate(-591.88 -843.59)"/><path class="cls-29" d="M1374.29,1027.4l2.93-4.12C1372.05,1023.83,1374.28,1022.06,1374.29,1027.4Z" transform="translate(-591.88 -843.59)"/><path class="cls-13" d="M1462.09,911.51l1-3.5c-.07-.2-.75-.68-1-1.1C1459.58,911.39,1460.49,908,1462.09,911.51Z" transform="translate(-591.88 -843.59)"/><path class="cls-16" d="M1048,1408.4l4.56,1.13C1049.17,1405.64,1051.86,1405.79,1048,1408.4Z" transform="translate(-591.88 -843.59)"/><path class="cls-28" d="M1775.22,1069.64c.85,4.72-3.25,0,2,1C1780.52,1071.33,1774.4,1065.11,1775.22,1069.64Z" transform="translate(-591.88 -843.59)"/><path class="cls-26" d="M1252.89,1417.34c-2.63-8.28,1.47-2.66-3.85-5.36Z" transform="translate(-591.88 -843.59)"/><path class="cls-20" d="M1752.26,908.3l5.08-3C1749.49,906.66,1755.25,903.7,1752.26,908.3Z" transform="translate(-591.88 -843.59)"/><path class="cls-13" d="M1384.46,998.92c-.12,4,4.75-.59,1.43-.52C1380.85,998.5,1384.53,996.56,1384.46,998.92Z" transform="translate(-591.88 -843.59)"/></svg>