<svg width="152" height="33" viewBox="0 0 152 33" fill="none" xmlns="http://www.w3.org/2000/svg">
<path d="M43.9933 32.0382C43.815 32.1513 43.5772 32.3211 43.4583 32.4342C43.3394 32.5474 42.9232 32.7171 42.9827 32.604C43.0421 32.4908 43.2799 32.2645 43.3394 32.1513C43.3988 32.0948 43.1016 31.925 43.1016 31.8119C43.1016 31.8119 43.1016 31.8119 43.0421 31.7553C42.8638 31.6987 42.8638 31.6987 42.8638 31.6987C42.7449 31.529 42.626 31.3593 42.5665 31.3027C42.5071 31.2461 42.3287 31.4158 42.2693 31.529C42.2693 31.529 42.2693 31.529 42.2693 31.6421C42.2693 31.6987 42.2693 31.6987 42.2693 31.6987C42.2693 31.7553 42.2693 31.925 42.1504 32.0948C42.0909 32.2645 42.0315 32.6605 42.0315 32.7171C41.972 32.7171 41.9126 32.7171 41.8531 32.6605C41.7937 32.604 41.6748 32.4342 41.5559 32.3776C41.437 32.3211 41.8531 32.1513 41.8531 32.0948C41.9126 32.0382 41.9126 31.925 41.7342 32.0382C41.5559 32.1513 41.1992 31.8685 41.1397 31.925C41.0803 31.925 41.1397 32.2079 41.1992 32.2645C41.1992 32.2645 41.1992 32.2645 41.1992 32.3211C41.1992 32.3777 41.1992 32.3776 41.1992 32.3776C41.1992 32.4342 41.0208 32.4908 40.783 32.4908C40.783 32.4908 40.783 32.4908 40.6047 32.4908C40.5452 32.4908 40.5452 32.4908 40.5452 32.4908C40.5452 32.6605 40.4263 32.7737 40.4263 32.7737C40.3669 32.7737 40.1291 32.7737 39.9507 32.7737C39.8913 32.604 39.8913 32.604 39.8913 32.604C40.0696 32.604 40.1885 32.4908 40.1291 32.4342C40.0696 32.3776 39.9507 32.2079 39.8318 32.3211C39.7129 32.4342 39.3562 32.6605 39.2373 32.6605C39.059 32.6605 38.7023 32.6605 38.6428 32.6605C38.6428 32.6605 38.7023 32.604 38.8212 32.604C38.9401 32.604 39.2373 32.4908 39.2373 32.3776C39.2373 32.2645 39.6535 32.1513 39.7724 32.1513C39.8318 32.1513 40.0696 32.0382 40.1291 32.0382C40.1291 32.0382 40.1291 32.0382 40.1291 31.9816C40.1291 31.925 40.0696 31.8685 40.0102 31.8685C39.594 31.9816 39.1779 32.0948 38.7617 32.0948C38.4645 32.0948 38.4645 32.0948 38.4645 32.0948C38.3456 32.2645 38.1672 32.4342 38.0483 32.4908C37.9294 32.5474 37.8105 32.3211 37.8105 32.3211C37.751 32.3211 37.5727 32.2079 37.5132 32.2079C37.4538 32.2079 37.216 32.0382 37.2754 32.0382C37.3349 32.0382 37.5132 31.925 37.5727 31.9816C37.5727 31.9816 37.5727 31.9816 37.5727 32.0382C37.6916 32.2645 37.6916 32.2645 37.6916 32.2645C37.9294 32.2079 38.1672 32.2079 38.1672 32.1513C38.2267 32.1513 38.2861 31.9816 38.2861 31.925C38.2861 31.8685 37.9888 31.6987 37.8699 31.6987C37.751 31.3027 37.5132 31.529 37.4538 31.6421C37.3349 31.8685 37.0376 31.925 36.8593 32.0382C36.6809 32.1513 36.6809 32.1513 36.6809 32.1513C36.562 32.3211 36.4431 32.3776 36.4431 32.2645C36.4431 32.2645 36.4431 32.2645 36.4431 32.2079C36.4431 32.0948 36.4431 32.0948 36.4431 32.0948C36.2648 32.0382 35.9675 31.8685 35.7892 31.8119C35.7892 31.8119 35.7892 31.8119 35.7892 31.6987C35.7297 31.4724 35.5514 31.4724 35.2541 31.4724C35.1352 31.4724 35.0163 31.3593 34.9569 31.3593C34.8974 31.3593 34.838 31.529 34.7785 31.5856C34.6596 31.5856 34.6596 31.6421 34.7785 31.6987C34.8974 31.7553 35.0163 31.925 34.9569 31.9816C34.8974 32.0382 34.3029 31.8119 34.3624 31.7553C34.3624 31.7553 34.3624 31.7553 34.4218 31.6987C34.5407 31.4724 34.3624 31.3593 34.1246 31.4724C33.8868 31.529 33.8273 31.4158 33.7084 31.3593C33.5301 31.3593 33.5301 31.3593 33.5301 31.3593C33.3517 31.3593 32.9356 31.4158 32.6978 31.4724C32.6978 31.4724 32.6978 31.4724 32.5789 31.4158C32.4005 31.3593 32.4005 31.3593 32.4005 31.3593C32.2222 31.3593 31.9844 31.4158 31.8655 31.4724C31.7466 31.529 31.2709 31.3593 31.152 31.3593C31.0331 31.3593 30.7953 31.3593 30.6764 31.3593C30.5575 31.3593 30.1414 31.3027 30.0225 31.4158C29.9036 31.529 29.428 31.5856 29.2496 31.4158C29.2496 31.4158 29.2496 31.4158 28.9524 31.4724C28.774 31.529 28.774 31.529 28.774 31.529C28.5362 31.529 28.239 31.4724 28.0012 31.4724C27.8228 31.4724 27.2283 31.5856 26.9905 31.6421C26.7527 31.6987 25.9799 31.5856 25.7421 31.5856C25.7421 31.5856 25.7421 31.5856 25.4448 31.4724C25.0286 31.2461 25.0286 31.2461 25.0286 31.2461C24.6719 31.3027 24.2558 31.4158 24.1963 31.4158C24.1369 31.4158 23.7802 31.4158 23.6018 31.4158C23.4235 31.4158 22.9479 31.4724 22.8884 31.4724C22.8884 31.4158 22.7695 31.3593 22.7101 31.4158C22.6506 31.4724 22.4128 31.529 22.3534 31.4724C22.3534 31.4724 22.3534 31.4724 22.2939 31.4158C22.2345 31.3593 22.2345 31.3593 22.2345 31.3593C22.175 31.3593 22.0561 31.3593 21.9967 31.4158C21.9372 31.4724 21.8183 31.529 21.7589 31.4724C21.6994 31.4158 21.4616 31.529 21.4616 31.529C21.4022 31.529 21.1644 31.5856 20.9266 31.6421C20.9266 31.6421 20.9266 31.6421 20.6888 31.5856C20.5699 31.529 20.451 31.529 20.3321 31.4724C20.2132 31.4158 20.0943 31.2461 19.8565 31.4158C19.8565 31.4158 19.7376 31.4158 19.6781 31.3593C19.4403 31.1895 19.3809 31.1329 19.143 31.4158C19.0241 31.5856 19.0242 31.5856 19.0242 31.5856C18.9053 31.3593 18.7863 31.1895 18.7269 31.2461C18.6674 31.3027 18.4891 31.4158 18.4891 31.3593C18.4891 31.3027 18.3107 31.1329 18.1918 31.1329C18.0729 31.1329 17.8351 31.3027 17.7757 31.3593C17.7162 31.4158 17.5379 31.3027 17.4784 31.3593C17.4784 31.4158 17.419 31.4158 17.419 31.3027C17.419 31.1895 17.0623 31.3593 17.0623 31.4158C16.8245 31.4724 16.8245 31.1329 16.5272 31.2461C16.3489 31.3027 16.3489 31.3027 16.3489 31.3027C16.1111 31.3027 15.8733 31.3027 15.8138 31.3027C15.7544 31.3027 15.5166 31.3593 15.3382 31.3593C15.1599 31.3593 14.7437 31.2461 14.6248 31.3593C14.6248 31.3593 14.6248 31.3593 14.5059 31.4158C14.4465 31.4724 14.4465 31.4724 14.4465 31.4724C14.3276 31.4724 14.1492 31.3593 14.0303 31.3027C13.9114 31.2461 13.3169 31.4158 13.2575 31.3593C13.198 31.3027 12.9602 31.1895 12.9008 31.2461C12.8413 31.3027 12.544 31.1895 12.544 31.1895C12.544 31.1895 12.544 31.1895 12.4846 31.2461C12.4251 31.3027 12.4251 31.3593 12.3657 31.3593C12.2468 31.3593 12.009 31.4158 12.009 31.2461C12.009 31.1895 12.009 31.1895 12.009 31.1895C12.1873 31.1329 12.2468 31.0198 12.1873 31.0198C12.1279 30.9632 11.8901 30.9632 11.8306 31.0198C11.7712 31.0764 11.5334 31.2461 11.5334 31.0764C11.5334 31.0764 11.5334 31.0764 11.5334 31.0198C11.5334 30.9632 11.4739 30.9066 11.4739 30.9066C11.355 30.9066 11.355 30.9066 11.355 30.9066C11.2361 30.9066 11.1172 30.8501 11.1767 30.7369C11.1767 30.7369 11.1767 30.7369 10.9389 30.7935C10.8794 30.7935 10.8794 30.7935 10.8794 30.7935C10.82 30.8501 10.7011 30.8501 10.5227 30.7935C10.3444 30.6803 9.74988 30.6803 9.63098 30.6803C9.45263 30.6803 8.97702 30.5106 8.79867 30.5106C8.67977 30.5106 8.32307 30.5672 8.26362 30.454C8.20417 30.3409 7.60966 30.2277 7.55021 30.2843C7.19351 29.9448 7.19351 29.9448 7.19351 29.9448C6.65845 29.8882 6.2423 29.8317 6.18285 29.8317C6.1234 29.8317 5.8856 29.8317 5.70725 29.8317C5.52889 29.8317 4.75604 29.8882 4.45879 29.8882C4.45879 29.8882 4.45879 29.8882 4.39933 29.5488C4.39933 29.4922 4.28043 29.4356 4.22098 29.4922C4.04263 29.5488 4.04263 29.5488 4.04263 29.5488C3.86428 29.4922 3.62648 29.379 3.62648 29.3225C3.56703 29.2659 3.26978 29.1527 3.15087 29.1527C3.03197 29.1527 2.73472 28.983 2.67527 29.0396C2.61582 29.0396 2.49692 29.0396 2.43747 28.9264C2.43747 28.9264 2.43747 28.9264 2.37802 28.8699C2.31857 28.8133 2.19967 28.8133 2.14022 28.8699C1.90242 28.983 1.66461 28.983 1.54571 28.983C1.18901 28.983 1.36736 28.8699 1.36736 28.7567C1.36736 28.7001 1.18901 28.587 1.42681 28.587C1.54571 28.587 1.66461 28.5304 1.78351 28.4738C1.90242 28.4172 1.90242 28.3607 1.78351 28.3041C1.66461 28.2475 1.66461 28.2475 1.66461 28.2475C1.78351 28.1909 1.96187 28.0212 2.14022 27.908C2.31857 27.7949 2.43747 27.3988 2.31857 27.3423C2.31857 27.3423 2.31857 27.3423 2.19967 27.3423C2.08077 27.3423 2.08077 27.3423 2.08077 27.3423C1.96187 27.3988 1.72406 27.3988 1.60516 27.3423C1.48626 27.2857 1.48626 26.7765 1.54571 26.6068C1.60516 26.437 1.72406 25.8713 1.66461 25.8713C1.66461 25.8713 1.48626 25.9278 1.36736 26.041C1.36736 26.041 1.36736 26.041 1.18901 25.8713C1.12956 25.7581 1.12956 25.7581 1.12956 25.7581C1.12956 25.6449 1.24846 25.5318 1.30791 25.4186C1.30791 25.4186 1.30791 25.4186 1.18901 25.3621C1.12956 25.3621 1.12956 25.3621 1.12956 25.3621C0.951208 25.4186 0.832307 25.4186 0.891757 25.3055C0.891757 25.3055 0.891757 25.3055 0.891757 25.2489C0.891757 25.0226 0.891757 25.0226 0.891757 25.0226C0.772856 24.7963 0.653955 24.5134 0.653955 24.4568C0.653955 24.3437 0.832307 24.0042 1.07011 23.9476C1.30791 23.891 1.30791 23.3253 1.12956 23.3819C1.12956 23.3819 1.12956 23.3819 1.01066 23.4384C0.891757 23.495 0.891757 23.495 0.891757 23.495C0.772856 23.5516 0.535054 23.4384 0.356703 23.2687C0.356703 23.2687 0.356703 23.2687 0.416153 23.099C0.416153 23.0424 0.416153 22.9858 0.475604 22.9292C0.653955 22.7595 0.772856 22.6463 0.891757 22.5332C1.01066 22.42 1.12956 22.7029 1.24846 22.5332C1.24846 22.4766 1.24846 22.4766 1.24846 22.4766C1.36736 22.4766 1.36736 22.42 1.18901 22.3635C1.18901 22.3635 1.18901 22.3635 1.18901 22.3069C1.18901 22.2503 1.24846 22.1372 1.30791 22.0806C1.36736 22.024 1.42681 22.024 1.48626 22.024C1.72406 21.9108 1.72406 21.628 1.60516 21.628C1.42681 21.5714 1.36736 21.5148 1.30791 21.4016C1.24846 21.3451 1.24846 21.3451 1.24846 21.3451C1.01066 21.3451 1.01066 21.2319 1.30791 21.1753C1.60516 21.1188 2.31857 20.7793 2.67527 20.949C2.67527 20.949 2.67527 20.949 3.09142 20.8925C3.15087 20.8925 3.32923 21.0056 3.38868 21.1188C3.44813 21.3451 3.44813 21.3451 3.44813 21.3451C3.62648 21.2885 3.74538 21.1188 3.68593 21.0056C3.68593 21.0056 3.68593 21.0056 3.68593 20.8925C3.74538 20.6096 3.80483 20.3267 3.86428 20.0438C3.86428 19.9872 3.86428 19.9872 3.86428 19.9872C4.10208 19.9306 4.22098 19.8175 4.28043 19.8175C4.33988 19.8175 4.51824 19.6478 4.57769 19.6478C4.69659 19.6478 4.99384 19.5912 5.05329 19.5912C5.11274 19.5912 5.23164 19.478 5.29109 19.4214C5.35054 19.3649 5.58834 19.5346 5.58834 19.5912C5.6478 19.5912 5.82615 19.6478 5.82615 19.5346C5.82615 19.4214 6.0045 19.1951 6.1234 19.3083C6.2423 19.3649 6.599 19.2517 6.599 19.1951C6.599 19.1951 6.53955 19.082 6.65845 19.0254C6.65845 19.0254 6.65845 19.0254 6.7179 19.0254C6.89626 19.082 7.13406 19.3083 7.19351 18.9688C7.25296 18.9688 7.37186 18.9688 7.49076 19.0254C7.60966 19.082 7.96636 18.9122 8.08526 18.9122C8.20417 18.9122 8.50142 18.9122 8.67977 18.9122C8.85812 18.9122 9.15537 18.6859 9.03647 18.6294C8.91757 18.5728 8.67977 18.3465 8.73922 18.1767C8.79867 18.007 8.14471 17.5544 8.20417 17.5544C8.26362 17.5544 8.32307 17.3847 8.14472 17.2715C8.14472 17.2715 8.14472 17.2715 8.14472 17.1583C8.14472 16.932 8.14472 16.932 8.14472 16.932C7.96636 16.932 7.78801 16.8755 7.66911 16.8189C7.66911 16.8189 7.66911 16.8189 7.60966 16.7623C7.49076 16.5926 7.49076 16.5926 7.49076 16.5926C7.55021 16.4228 7.55021 16.14 7.49076 15.9702C7.49076 15.9702 7.49076 15.9702 7.43131 15.8005C7.43131 15.7439 7.43131 15.7439 7.43131 15.7439C7.43131 15.6873 7.60966 15.6873 7.78801 15.8005C7.96636 15.9136 8.50142 15.7439 8.50142 15.6873C8.50142 15.6308 8.44197 15.5176 8.32307 15.5176C8.32307 15.5176 8.32307 15.5176 8.26362 15.5176C8.14472 15.5742 8.14472 15.5742 8.14472 15.5742C7.96636 15.6308 7.90691 15.6308 7.90691 15.5742C7.90691 15.5742 7.90691 15.5742 7.90691 15.5176C7.90691 15.461 7.90691 15.461 7.90691 15.461C7.90691 15.4045 7.90691 15.3479 7.84746 15.3479C7.78801 15.3479 7.60966 15.4045 7.55021 15.3479C7.49076 15.2913 7.60966 15.0084 7.72856 14.8387C7.72856 14.8387 7.72856 14.8387 7.96636 14.7821C8.02581 14.7821 8.08526 14.7821 8.08526 14.7255C8.02581 14.3295 8.02581 14.3295 8.02581 14.3295C8.44197 14.1598 8.62032 14.0466 8.56087 13.99C8.44197 13.9334 8.08526 13.99 8.02581 13.99C7.96636 13.99 7.49076 13.8203 7.13406 13.7071C7.13406 13.7071 7.13406 13.7071 6.77735 13.7637C6.599 13.7637 6.599 13.7071 6.53955 13.594C6.599 13.4242 6.599 13.4242 6.599 13.4242C6.4801 13.5374 6.30175 13.594 6.1234 13.5374C5.94505 13.4808 5.46944 13.3111 5.40999 13.2545C5.52889 13.0848 5.52889 13.0848 5.52889 13.0848C5.46944 12.915 5.35054 12.8019 5.29109 12.7453C5.23164 12.6887 5.11274 12.6887 5.11274 12.6887C5.11274 12.6887 5.11274 12.6887 5.05329 12.7453C4.99384 12.8019 4.99384 12.8019 4.99384 12.8019C4.93439 12.8585 4.75604 12.9151 4.63714 12.9151C4.51824 12.9716 4.10208 13.0282 4.04263 12.9716C3.98318 12.9151 3.86428 12.6887 3.92373 12.6322C3.98318 12.5756 4.45879 12.6887 4.63714 12.6887C4.63714 12.6887 4.63714 12.6887 4.63714 12.5756C4.69659 12.4624 4.57769 12.2361 4.51824 12.2361C3.68593 12.1795 3.68593 12.1795 3.68593 12.1795C3.80483 11.7269 3.80483 11.3309 3.68593 11.3309C3.56703 11.3309 3.38868 11.5006 3.32923 11.5006C3.26978 11.5006 3.21033 11.3875 3.21033 11.3875C3.21033 11.3875 3.15087 11.2743 3.09142 11.1612C3.03197 11.048 3.21033 10.7651 3.26978 10.652C3.26978 10.652 3.26978 10.652 3.26978 10.5954C3.26978 10.5388 3.26978 10.5388 3.26978 10.5388C3.26978 10.4822 3.15087 10.4256 3.09142 10.4256C3.09142 10.4256 3.09142 10.4256 3.03197 10.4256C2.97252 10.4256 2.97252 10.4256 2.97252 10.4256C2.91307 10.4256 2.85362 10.4256 2.79417 10.3691C2.91307 10.2559 2.91307 10.2559 2.91307 10.2559C3.09142 10.0862 3.09142 9.97303 2.85362 10.0296C2.85362 10.0296 2.85362 10.0296 2.73472 10.0296C2.49692 10.0296 2.49692 10.0296 2.49692 10.0296C2.25912 10.0296 2.02132 9.97303 1.96187 9.85987C1.96187 9.85987 1.96187 9.85987 1.96187 9.8033C2.02132 9.23752 2.02132 9.23752 2.02132 9.23752C1.72406 9.01122 1.42681 8.7849 1.36736 8.72833C1.36736 8.72833 1.36736 8.72833 1.36736 8.67175C1.30791 8.5586 1.30791 8.5586 1.30791 8.5586C1.30791 8.38886 1.24846 8.16255 1.18901 7.99282C1.18901 7.99282 1.18901 7.99282 1.07011 7.93624C0.653955 7.99282 0.653955 7.82309 0.713406 7.59678C0.713406 7.5402 0.713406 7.5402 0.713406 7.5402C0.713406 7.37047 0.535054 7.31389 0.297252 7.42705C0.297252 7.42705 0.297252 7.42705 0.416153 7.20074C0.535054 7.03101 0.297252 7.03101 0.237802 6.97443C0.237802 6.97443 0.0594505 7.20074 0 6.97443C0 6.91785 0 6.91785 0 6.91785C0.118901 6.86128 0.237802 6.8047 0.237802 6.8047C0.237802 6.8047 0.178351 6.57839 0.0594505 6.40866C0.0594505 6.40866 0.0594505 6.40866 0.118901 6.18235C0.118901 6.12577 0.178351 6.06919 0.178351 6.01262C0.178351 5.95604 0.178351 5.95604 0.178351 5.95604C0.118901 5.89946 0.118901 5.84288 0.178351 5.84288C0.237802 5.84288 0.535054 5.84288 0.594505 5.72973C0.653955 5.61657 0.535054 5.33369 0.594505 5.27711C0.832307 5.44684 1.01066 5.44684 1.18901 5.22053C1.36736 5.0508 1.36736 5.0508 1.36736 5.0508C1.60516 5.22053 1.78351 5.22053 1.78351 5.16396C1.78351 5.10738 2.08077 4.88107 2.31857 4.76791C2.31857 4.76791 2.31857 4.76791 2.49692 5.0508C2.61582 5.22053 2.61582 5.22053 2.61582 5.22053C2.91307 5.10738 3.09142 4.93765 3.03197 4.93765C2.97252 4.93765 2.85362 4.82449 2.85362 4.82449C2.97252 4.82449 3.09142 4.82449 3.21033 4.88107C3.26978 4.88107 3.26978 4.88107 3.26978 4.88107C3.32923 4.88107 3.38868 4.88107 3.44813 4.82449C3.50758 4.76791 3.68593 4.82449 3.68593 4.76791C3.68593 4.71134 3.80483 4.59818 3.86428 4.71134C3.92373 4.82449 4.22098 4.76792 4.33988 4.59818C4.33988 4.59818 4.33988 4.59818 4.45879 4.48503C4.51824 4.42845 4.51824 4.42845 4.51824 4.42845C4.63714 4.42845 4.81549 4.42845 4.93439 4.48503C5.05329 4.54161 5.58834 4.42845 5.64779 4.48503C5.7667 4.54161 6.06395 4.65476 6.1234 4.48503C6.1234 4.48503 6.1234 4.48503 6.2423 4.37187C6.3612 4.25872 6.3612 4.25872 6.3612 4.25872C6.53955 4.25872 6.77735 4.25872 6.8368 4.3153C6.95571 4.37187 7.13406 4.14556 7.25296 4.14556C7.37186 4.14556 7.66911 4.20214 7.72856 4.25872C7.78801 4.3153 7.96636 4.3153 8.02581 4.25872C8.08526 4.14556 8.26362 3.91926 8.38252 3.97583C8.50142 4.03241 8.73922 3.97583 8.85812 3.91926C8.91757 3.86268 9.21482 3.97583 9.21482 3.97583C9.21482 3.97583 9.21482 3.97583 9.21482 3.91926C9.21482 3.8061 9.21482 3.8061 9.21482 3.8061C9.33372 3.8061 9.57153 3.91926 9.80933 3.97583C9.80933 3.97583 9.80933 3.97583 9.80933 3.69295C9.86878 3.69295 10.1066 3.63637 10.2849 3.57979C10.5227 3.52321 11.2956 3.63637 11.4739 3.63637C11.4739 3.63637 11.4739 3.63637 11.5928 3.69295C11.8901 3.69295 11.9495 3.86268 11.9495 3.63637L12.1279 3.57979C12.3062 3.8061 12.6035 3.63637 12.6035 3.57979C12.7819 3.41006 13.0197 3.63637 13.1386 3.46664C13.198 3.41006 13.198 3.41006 13.198 3.41006C13.4953 3.46664 13.7331 3.57979 13.7925 3.57979C13.852 3.57979 14.0303 3.46664 14.2087 3.35348C14.387 3.24033 14.9221 3.41006 14.9221 3.41006C14.9221 3.12717 14.9221 3.12717 14.9221 3.12717C15.1599 3.18375 15.576 3.18375 15.7544 3.0706C15.7544 3.0706 15.7544 3.0706 15.9327 3.2969C16.1111 3.35348 16.1111 3.35348 16.1111 3.35348C16.2894 3.2969 16.5272 3.18375 16.6461 3.12717C16.6461 3.12717 16.6461 3.12717 16.765 3.12717C16.8245 3.12717 16.8245 3.12717 16.8245 3.12717C16.8839 3.12717 17.0028 3.12717 17.1217 3.12717C17.2406 3.12717 17.7162 3.12717 17.8351 3.12717C17.954 3.12717 18.3107 3.01402 18.3107 3.0706C18.3702 3.12717 18.4891 3.18375 18.4891 3.12717C18.4891 3.12717 18.4891 3.12717 18.5485 3.0706C18.608 3.01402 18.608 3.01402 18.608 3.01402C18.6674 2.95744 18.6674 2.95744 18.7269 3.01402C18.7863 3.0706 18.7864 3.12717 18.8458 3.18375C18.8458 3.18375 18.8458 3.18375 18.9053 3.18375C19.0836 3.0706 19.0836 3.0706 19.0836 3.0706C19.3214 3.01402 19.6187 2.95744 19.6781 2.95744C19.6781 2.95744 19.6781 2.95744 19.7376 2.90086C19.9754 2.67455 19.9754 2.67455 19.9754 2.67455C20.0943 2.90086 20.2726 3.01402 20.3321 2.95744C20.3915 2.90086 20.5104 2.78771 20.5699 2.78771C20.6293 2.78771 20.6888 2.67455 20.7482 2.44824C20.7482 2.44824 20.7482 2.44824 21.1049 2.73113C21.1644 2.78771 21.1644 2.78771 21.1644 2.78771C21.3427 2.73113 21.5805 2.73113 21.6994 2.73113C21.8183 2.73113 22.0561 2.78771 22.0561 2.73113C22.0561 2.67455 22.4128 2.67455 22.4723 2.67455C22.5317 2.67455 22.6506 2.61798 22.5912 2.39167C22.5912 2.39167 22.5912 2.39167 22.9479 2.67455C23.0073 2.67455 23.1857 2.61798 23.3046 2.5614C23.364 2.5614 23.364 2.5614 23.364 2.5614C23.4235 2.50482 23.7207 2.44824 23.9585 2.39167C24.2558 2.33509 24.9097 2.61798 24.9692 2.61798C25.0286 2.61798 25.3854 2.5614 25.5637 2.50482C25.7421 2.44824 26.6338 2.50482 26.8122 2.50482C26.8122 2.50482 26.8122 2.50482 26.8716 2.44824C27.1689 2.39167 27.1689 2.39167 27.1689 2.39167C27.3472 2.44824 27.5256 2.50482 27.6445 2.5614C27.6445 2.5614 27.6445 2.5614 27.7634 2.5614C27.9417 2.5614 27.9417 2.5614 27.9417 2.5614C28.1201 2.50482 28.3579 2.39167 28.4768 2.39167C28.5957 2.39167 29.0713 2.33509 29.3091 2.33509C29.3091 2.33509 29.3091 2.33509 29.5469 2.33509C29.6063 2.33509 29.6063 2.33509 29.6063 2.33509C29.6658 2.27851 29.7847 2.33509 29.7847 2.39167C29.7847 2.44824 30.0819 2.39167 30.1414 2.39167C30.2008 2.33509 30.3792 2.27851 30.4386 2.27851C30.4981 2.27851 30.7359 2.39167 30.7953 2.39167C30.8548 2.39167 31.2709 2.22194 31.4493 2.22194C31.4493 2.22194 31.4493 2.22194 31.5087 2.27851C31.6277 2.44824 31.806 2.10878 31.9249 2.33509C31.9844 2.44824 31.9844 2.44824 31.9844 2.44824C32.2222 2.33509 32.46 2.33509 32.5194 2.33509C32.5789 2.39167 32.7572 2.44824 32.8167 2.44824C32.8167 2.39167 32.9356 2.33509 32.9356 2.33509C32.9356 2.33509 33.1139 2.33509 33.1734 2.27851C33.2328 2.22194 33.7084 2.22194 34.0651 2.16536C34.0651 2.16536 34.0651 2.16536 34.4218 2.27851C34.7191 2.33509 35.0758 2.39167 35.4325 2.16536C35.6108 2.0522 35.6108 2.0522 35.6108 2.0522C35.9081 2.10878 36.2053 2.16536 36.2053 2.22194C36.2648 2.27851 36.4431 2.27851 36.5026 2.16536C36.6215 2.0522 37.0376 2.27851 37.0376 2.22194C37.0376 2.16536 37.1565 2.0522 37.216 2.16536C37.216 2.22194 37.3349 2.33509 37.3943 2.22194C37.4538 2.10878 37.9294 2.27851 38.1672 2.22194C38.1672 2.22194 38.1672 2.22194 38.405 2.27851C38.7023 2.16536 38.7023 2.16536 38.7023 2.16536C39.059 2.0522 39.4157 1.99563 39.4751 1.99563C39.4751 2.0522 39.594 2.10878 39.6535 2.0522C39.7129 1.99563 39.8318 1.88247 39.8913 1.88247C40.1291 2.0522 40.1291 2.0522 40.1291 2.0522C40.4263 2.0522 40.8425 1.99563 41.0208 2.0522C41.1992 2.0522 41.8531 1.99563 41.972 2.10878C41.972 2.10878 41.972 2.10878 42.1504 1.93905C42.1504 1.88247 42.3882 1.99563 42.5071 1.99563C42.8638 1.99563 42.8638 1.99563 42.8638 1.99563C43.2799 1.99563 43.8744 1.93905 44.1122 1.88247C44.1122 1.88247 44.1122 1.88247 44.3501 2.10878C44.4095 2.16536 44.4095 2.16536 44.4095 2.16536C44.5284 2.16536 44.7662 2.10878 44.8851 2.10878C45.004 2.10878 45.3013 2.16536 45.3013 2.10878C45.3013 2.0522 45.7174 2.0522 45.8363 2.22194C45.8363 2.22194 45.8363 2.22194 46.0741 2.0522C46.1336 1.99563 46.1336 1.99563 46.1336 1.99563C46.3119 2.0522 46.5497 2.0522 46.6686 2.0522C46.7875 2.0522 47.0848 2.10878 47.2037 2.10878C47.2037 2.10878 47.2037 2.10878 47.3226 2.10878C47.382 2.10878 47.5009 2.10878 47.5604 2.10878C47.6198 2.10878 47.7387 2.0522 47.7982 2.0522C47.8576 2.0522 47.8576 2.0522 47.8576 2.0522C47.9171 2.0522 48.036 2.0522 48.1549 2.0522C48.2738 2.0522 48.5116 2.10878 48.6899 2.22194C48.6899 2.22194 48.6899 2.22194 48.6899 1.99563C48.7494 1.99563 49.1061 2.0522 49.3439 2.16536C49.3439 2.16536 49.3439 2.16536 49.5817 2.16536C49.76 2.16536 49.76 2.16536 49.76 2.16536C49.9978 2.0522 50.2356 1.99563 50.2951 1.93905C50.3545 1.93905 50.5329 1.99563 50.6518 2.16536C50.6518 2.16536 50.6518 2.16536 50.8896 2.10878C51.0085 2.0522 51.2463 2.0522 51.3058 2.10878C51.5436 2.16536 51.603 1.82589 51.7814 1.88247C51.9597 1.93905 51.9597 1.93905 51.9597 1.93905C52.1975 1.93905 52.4948 1.99563 52.6137 2.0522C52.6137 2.0522 52.6137 2.0522 52.6731 1.99563C52.9109 1.82589 52.9109 1.82589 52.9109 1.82589C53.2082 1.93905 53.446 1.99563 53.5054 1.93905C53.5649 1.88247 53.7432 1.82589 53.8027 1.88247C53.8621 1.93905 54.0405 2.10878 54.0405 2.10878C54.0405 2.10878 54.2188 2.0522 54.3377 1.99563C54.4566 1.93905 55.1106 1.93905 55.2889 1.93905C55.4673 1.93905 56.0023 1.93905 56.1807 1.99563C56.359 2.0522 56.7157 1.88247 56.8346 1.93905C57.1914 1.54301 57.1914 1.54301 57.1914 1.54301C57.7264 1.65616 58.202 1.82589 58.3209 1.82589C58.4398 1.82589 58.6776 1.76932 58.6776 1.88247C58.6776 1.99563 59.1532 1.76932 59.2721 1.71274C59.391 1.65616 59.6288 1.71274 59.7477 1.71274C59.8072 1.71274 60.045 1.65616 60.1044 1.71274C60.1044 1.76932 60.2233 1.82589 60.2828 1.82589C60.3422 1.76932 60.58 1.65616 60.8178 1.65616C60.8178 1.65616 60.8178 1.65616 60.9962 1.71274L61.5312 1.88247C61.6501 1.82589 61.6501 1.82589 61.6501 1.82589C61.8285 1.71274 61.9474 1.71274 61.9474 1.71274C61.9474 1.76932 62.1852 1.88247 62.3041 1.93905C62.3041 1.93905 62.3041 1.93905 62.6013 1.71274C62.6608 1.71274 62.6608 1.71274 62.6608 1.71274C62.7202 1.71274 62.8391 1.76932 62.8986 1.76932C62.958 1.82589 63.4337 1.76932 63.7309 1.71274C63.8498 1.59958 63.8498 1.59958 63.8498 1.59958C63.9687 1.65616 64.0876 1.82589 64.0282 1.99563C64.0282 1.99563 64.0282 1.99563 64.3849 1.82589C64.6227 1.71274 64.6227 1.71274 64.6227 1.71274C64.6227 1.88247 64.6227 1.93905 64.6227 1.82589C64.6227 1.71274 65.0388 1.88247 65.0388 1.88247C65.0388 1.88247 65.2172 1.82589 65.3955 1.82589C65.5144 1.82589 66.0495 1.93905 66.2278 1.93905C66.4062 1.93905 66.7034 1.82589 66.7629 1.82589C66.8223 1.82589 66.9412 1.99563 67.0007 1.99563C67.0007 1.99563 67.0601 1.93905 67.1196 1.88247C67.179 1.82589 67.4763 1.76932 67.5952 1.82589C67.5952 1.82589 67.5952 1.82589 67.7141 1.82589C67.7735 1.82589 67.8924 1.71274 67.8924 1.76932C68.0708 1.88247 68.0708 1.88247 68.0708 1.88247C68.2491 1.82589 68.6058 1.82589 68.8436 1.88247C68.8436 1.88247 68.8436 1.88247 69.0814 1.93905C69.1409 1.93905 69.1409 1.93905 69.1409 1.93905C69.2598 1.93905 69.3787 1.88247 69.4381 1.88247C69.4976 1.82589 69.7354 1.82589 69.8543 1.76932C69.9138 1.71274 70.4488 1.82589 70.6866 1.82589C70.6866 1.82589 70.6866 1.82589 70.9244 1.82589C71.1028 1.82589 71.1028 1.82589 71.1028 1.82589C71.3406 1.88247 71.5189 1.88247 71.5784 1.88247C71.6378 1.88247 71.8756 1.76932 72.054 1.76932C72.054 1.76932 72.054 1.76932 72.1729 1.82589C72.2918 1.88247 72.4107 2.0522 72.4107 1.76932C72.4107 1.76932 72.5296 1.76932 72.589 1.76932C72.8863 1.76932 73.243 1.88247 73.5402 1.82589C73.778 1.76932 73.778 1.76932 73.778 1.76932C73.9564 1.82589 74.1347 1.88247 74.1942 1.88247C74.2536 1.88247 74.4914 1.82589 74.6103 1.82589C74.7292 1.76932 75.5021 1.82589 75.7399 1.88247C75.9777 1.93905 76.5722 1.65616 76.6911 1.65616C76.81 1.65616 77.3451 1.59958 77.5234 1.54301C77.7018 1.48643 78.1179 1.76932 78.1179 1.76932C78.1774 1.76932 78.4152 1.59958 78.5341 1.71274C78.5341 1.71274 78.5341 1.71274 78.653 1.71274C78.7719 1.71274 78.9502 1.59958 79.0691 1.65616C79.3069 1.71274 79.3069 1.71274 79.3069 1.71274C79.4258 1.59958 79.6042 1.54301 79.6636 1.54301C79.6636 1.54301 79.6636 1.54301 79.7231 1.59958C79.842 1.65616 79.842 1.65616 79.842 1.65616C79.9609 1.71274 80.0798 1.76932 80.1392 1.71274C80.1987 1.65616 80.3176 1.59958 80.377 1.65616C80.377 1.71274 80.7337 1.71274 80.7932 1.65616C80.8526 1.59958 81.0904 1.54301 81.1499 1.59958C81.2093 1.65616 81.3877 1.82589 81.3877 1.82589C81.5661 1.54301 81.8038 1.76932 82.0416 1.76932C82.1606 1.76932 82.1606 1.76932 82.1606 1.76932C82.3389 1.71274 82.4578 1.71274 82.5767 1.71274C82.6362 1.71274 82.8145 1.71274 82.9334 1.76932C83.0523 1.82589 83.5279 1.71274 83.7657 1.71274C83.7657 1.71274 83.7657 1.71274 84.0035 1.65616C84.1224 1.65616 84.3008 1.76932 84.4197 1.71274C84.6575 1.65616 84.6575 1.65616 84.6575 1.65616C84.8953 1.71274 85.1925 1.71274 85.3709 1.76932C85.3709 1.76932 85.3709 1.76932 85.5492 1.76932C85.8465 1.71274 85.8465 1.71274 85.8465 1.71274C86.2032 1.71274 86.5004 1.65616 86.5599 1.65616C86.6193 1.65616 86.7977 1.76932 86.8571 1.82589C86.9166 1.93905 87.3327 1.76932 87.3922 1.82589C87.4516 1.88247 87.63 1.93905 87.6894 1.93905C87.6894 1.88247 87.5705 1.71274 87.5705 1.71274C87.7489 1.65616 87.7489 1.65616 87.7489 1.65616C87.8083 1.76932 87.8678 1.88247 87.9273 1.93905C87.9867 1.93905 88.1056 1.88247 88.1651 1.88247C88.2245 1.82589 88.4029 1.76932 88.4623 1.82589C88.5218 1.88247 88.7001 1.82589 88.7001 1.65616C88.7001 1.65616 88.7001 1.65616 88.9974 1.76932C88.9379 1.88247 89.0568 1.93905 89.2946 1.88247C89.473 1.82589 90.008 2.0522 90.008 2.0522C90.008 2.0522 90.008 2.0522 90.008 1.99563C90.008 1.76932 90.008 1.76932 90.008 1.76932C90.1864 1.82589 90.3647 1.88247 90.4242 1.93905C90.4836 1.99563 90.6025 2.0522 90.662 1.99563C90.7214 1.93905 90.8403 1.82589 90.9592 1.88247C91.0781 1.93905 91.6132 1.82589 91.7321 1.82589C91.851 1.82589 92.2671 1.99563 92.2671 2.0522C92.2671 2.10878 92.6833 1.99563 92.7427 1.93905C92.8022 1.88247 93.0994 1.82589 93.1589 2.0522C93.1589 2.0522 93.1589 2.0522 93.4561 1.99563C93.7534 1.93905 93.2778 1.76932 93.5156 1.76932C93.7534 1.76932 93.7534 1.76932 93.7534 1.76932C93.9912 1.76932 94.5857 1.76932 95.0613 1.76932C95.0613 1.76932 95.0613 1.76932 95.4775 1.76932C95.7153 1.76932 95.8936 1.76932 96.1314 1.76932C96.3098 1.76932 96.3098 1.76932 96.3098 1.76932C96.4881 1.82589 96.7854 1.71274 96.9637 1.59958C96.9637 1.59958 96.9637 1.59958 97.1421 1.82589C97.261 1.93905 97.261 1.93905 97.261 1.93905C97.261 1.82589 97.3799 1.65616 97.4988 1.59958C97.4988 1.59958 97.4988 1.59958 97.6177 1.71274C97.7366 1.88247 97.7366 1.88247 97.7366 1.88247C97.9149 1.82589 98.1527 1.76932 98.3311 1.76932C98.5094 1.76932 98.9256 1.65616 99.0445 1.59958C99.1634 1.54301 99.5795 1.71274 99.6984 1.71274C99.8174 1.71274 100.233 1.76932 100.352 1.76932C100.412 1.71274 100.709 1.65616 100.887 1.59958C100.887 1.59958 100.887 1.59958 101.006 1.54301C101.304 1.42985 101.304 1.42985 101.304 1.42985C101.423 1.59958 101.541 1.65616 101.541 1.59958C101.541 1.54301 101.72 1.37328 101.898 1.42985C102.076 1.48643 102.612 1.59958 102.73 1.59958C102.909 1.59958 103.444 1.37328 103.741 1.37328C103.741 1.37328 103.741 1.37328 103.979 1.37328C104.217 1.37328 104.454 1.3167 104.752 1.37328C104.93 1.37328 104.93 1.37328 104.93 1.37328C105.049 1.3167 105.287 1.3167 105.465 1.3167C105.465 1.3167 105.465 1.3167 105.525 1.26012C105.762 1.14697 105.822 1.20354 105.881 1.37328C106 1.37328 106.357 1.26012 106.595 1.09039C106.595 1.09039 106.595 1.09039 106.951 1.3167C107.011 1.3167 107.011 1.3167 107.011 1.3167C107.07 1.3167 107.07 1.26012 107.07 1.20354C107.07 1.14697 107.546 1.20354 107.665 1.26012C107.784 1.3167 108.2 1.26012 108.319 1.26012C108.438 1.26012 108.794 1.14697 108.913 1.14697C109.032 1.14697 109.389 1.03381 109.567 1.09039C109.746 1.14697 110.4 1.09039 110.518 1.09039C110.578 1.14697 110.816 1.26012 110.816 1.20354C110.816 1.14697 110.935 1.09039 110.994 1.20354C110.994 1.20354 110.994 1.20354 111.053 1.20354C111.172 1.26012 111.172 1.26012 111.172 1.26012C111.291 1.26012 111.648 1.20354 111.886 1.20354C111.886 1.20354 111.886 1.20354 112.005 1.14697C112.183 1.03381 112.183 1.03381 112.183 1.03381C112.302 1.09039 112.48 1.14697 112.54 1.14697C112.599 1.14697 112.778 1.09039 112.837 1.03381C112.896 1.03381 113.253 1.09039 113.432 1.14697C113.61 1.20354 114.145 1.03381 114.204 1.03381C114.264 1.03381 114.502 1.26012 114.502 1.20354C114.502 1.14697 114.68 0.977234 114.858 0.977234C114.858 0.977234 114.858 0.977234 114.977 0.977234C115.156 0.977234 115.156 0.977234 115.156 0.977234C115.334 1.03381 115.631 1.09039 115.81 1.09039C115.988 1.09039 116.404 0.920657 116.523 0.920657C116.642 0.920657 116.939 0.977234 116.939 0.920657C116.939 0.86408 117.058 0.694348 117.058 0.694348C117.236 0.86408 117.415 1.03381 117.712 0.807502C117.831 0.750925 117.831 0.750925 117.831 0.750925C118.009 0.807502 118.247 0.807502 118.306 0.807502C118.366 0.807502 118.663 0.86408 118.723 0.86408C118.723 0.86408 118.723 0.86408 118.782 0.86408C118.96 0.807502 118.96 0.807502 118.96 0.807502C119.198 0.750925 119.495 0.750925 119.674 0.750925C119.674 0.750925 119.674 0.750925 119.852 0.750925C119.971 0.750925 119.971 0.750925 119.971 0.750925C120.149 0.63777 120.328 0.581193 120.387 0.63777C120.447 0.694348 120.625 0.807502 120.684 0.750925C120.744 0.694348 121.101 0.581193 121.16 0.63777C121.22 0.694348 121.517 0.807502 121.814 0.807502C121.814 0.807502 121.814 0.807502 121.992 0.86408C122.171 0.920657 122.171 0.920657 122.171 0.920657C122.29 0.86408 122.527 0.807502 122.706 0.807502C122.706 0.807502 122.706 0.807502 122.825 0.750925C122.884 0.750925 122.884 0.750925 122.884 0.750925C123.003 0.750925 123.3 0.694348 123.598 0.63777C123.598 0.63777 123.598 0.63777 123.895 0.807502C124.073 0.920657 124.073 0.920657 124.073 0.920657C124.37 0.920657 124.608 0.807502 124.608 0.694348C124.608 0.581193 124.965 0.63777 125.084 0.694348C125.143 0.750925 125.5 0.750925 125.619 0.750925C125.738 0.750925 126.035 0.63777 126.035 0.63777C126.035 0.63777 126.154 0.694348 126.213 0.750925C126.273 0.807502 126.748 0.86408 126.689 0.807502C126.63 0.750925 126.63 0.694348 126.867 0.750925C126.867 0.750925 126.867 0.750925 127.105 0.581193C127.224 0.524616 127.521 0.581193 127.7 0.581193C127.878 0.581193 127.878 0.581193 127.878 0.581193C127.997 0.694348 128.116 0.750925 128.175 0.750925C128.235 0.750925 128.532 0.750925 128.829 0.807502C128.829 0.807502 128.829 0.807502 129.008 0.581193C129.067 0.524616 129.067 0.524616 129.067 0.524616C129.364 0.63777 129.543 0.63777 129.543 0.581193C129.543 0.524616 129.483 0.354884 129.483 0.354884C129.483 0.354884 129.721 0.298306 129.899 0.298306C130.078 0.298306 130.613 0.411461 130.672 0.411461C130.672 0.411461 130.672 0.411461 130.732 0.411461C130.91 0.468038 130.91 0.468038 130.91 0.468038C131.148 0.468038 131.386 0.468038 131.504 0.524616C131.623 0.581193 131.98 0.298306 132.218 0.128574C132.218 0.128574 132.218 0.128574 132.456 0.185152C132.753 0.298306 132.753 0.298306 132.753 0.298306C132.931 0.185152 133.05 0.071997 133.11 0.071997C133.169 0.071997 133.229 0.0719971 133.288 0.0154197C133.347 -0.0411576 133.645 0.0719971 133.764 0.128574C133.823 0.185152 134.18 0.241729 134.12 0.128574C134.061 0.0154197 134.418 0.128574 134.477 0.071997C134.536 0.0154197 134.834 0.0719971 134.893 0.128574C135.012 0.185152 135.369 0.185152 135.369 0.128574C135.369 0.0719971 135.666 0.0154197 136.201 0.0154197C136.201 0.0154197 136.201 0.0154197 136.379 0.128574C136.736 0.354884 136.736 0.354884 136.736 0.354884C136.796 0.128574 136.914 0.0719971 137.093 0.185152C137.093 0.185152 137.093 0.185152 137.39 0.071997C137.747 -0.0411576 138.163 0.0154197 138.52 0.185152C138.639 0.241729 138.876 0.354884 139.114 0.241729C139.233 0.185152 139.53 0.298306 139.709 0.411461C139.828 0.468038 139.471 0.524616 139.709 0.581193C139.768 0.581193 139.887 0.468038 139.946 0.524616C140.065 0.524616 140.303 0.581193 140.303 0.63777C140.422 0.86408 140.422 0.86408 140.422 0.86408C140.719 0.920657 141.076 1.03381 141.254 1.09039C141.433 1.14697 142.027 1.20354 142.087 1.20354C142.206 1.20354 142.503 1.26012 142.622 1.26012C142.681 1.26012 142.859 1.20354 142.859 1.3167C142.859 1.42985 143.216 1.26012 143.276 1.26012C143.335 1.26012 143.632 1.26012 143.811 1.26012C144.048 1.26012 144.584 1.48643 144.643 1.48643C144.702 1.48643 144.881 1.48643 144.881 1.54301C144.881 1.59958 145.059 1.76932 145.297 1.71274C145.535 1.65616 146.189 1.88247 146.427 1.93905C146.427 1.93905 146.427 1.93905 146.486 2.22194C146.545 2.33509 146.902 2.39167 146.962 2.61798C147.021 2.73113 147.021 2.73113 147.021 2.73113C147.259 2.84429 147.497 2.90086 147.556 2.90086C147.616 2.90086 147.675 3.01402 147.616 3.12717C147.853 3.18375 147.853 3.18375 147.853 3.18375C147.794 3.2969 147.734 3.52321 147.734 3.63637C147.734 3.63637 147.734 3.63637 147.734 3.74952C147.794 3.97583 147.794 3.97583 147.794 3.97583C147.853 4.25872 147.972 4.48503 148.032 4.48503C148.032 4.48503 148.032 4.48503 148.091 4.48503C148.151 4.48503 148.151 4.48503 148.151 4.48503C148.21 4.48503 148.269 4.48503 148.269 4.54161C148.269 4.59818 148.151 4.65476 148.032 4.71134C148.032 4.71134 148.032 4.71134 147.913 4.76791C147.913 4.76791 147.913 4.82449 147.913 4.88107C147.913 4.88107 147.972 4.88107 148.032 4.88107L148.091 4.82449C148.21 4.82449 148.21 4.82449 148.21 4.82449C148.329 4.82449 148.448 4.82449 148.448 4.88107C148.448 4.93765 148.567 5.10738 148.686 5.22053C148.686 5.22053 148.686 5.22053 148.805 5.33369C148.864 5.39027 148.864 5.39027 148.864 5.39027C148.864 5.56 148.745 5.61657 148.567 5.56C148.388 5.50342 147.972 5.56 148.091 5.84288C148.269 6.18235 148.269 7.03101 148.151 7.03101C147.972 7.08758 147.616 7.20074 147.675 7.20074C147.734 7.20074 147.913 7.31389 148.032 7.42705C148.032 7.42705 148.032 7.42705 148.091 7.5402C148.269 7.82309 148.329 7.37047 148.507 7.5402C148.567 7.59678 148.567 7.59678 148.567 7.59678C148.745 7.65336 148.864 7.76651 148.805 7.87967C148.745 7.99282 148.923 8.44544 148.983 8.67175C148.983 8.67175 148.983 8.67175 148.864 8.89806C148.745 9.12437 148.983 9.52041 149.28 9.52041C149.518 9.52041 149.518 9.52041 149.518 9.52041C149.815 9.57699 149.934 9.63356 149.815 9.63356C149.696 9.63356 149.28 9.74672 149.28 9.8033C149.28 9.85987 149.399 10.1428 149.577 10.0862C149.577 10.0862 149.577 10.0862 149.756 10.0862C149.875 10.0862 149.875 10.0862 149.875 10.0862C149.994 10.0862 150.112 10.0862 150.231 10.1428C150.35 10.1993 150.826 10.1428 151.004 10.1428C151.242 10.1428 151.48 10.5954 151.48 10.652C151.48 10.652 151.48 10.652 151.361 10.652C151.123 10.5954 151.004 10.7651 151.064 10.9348C151.123 11.048 151.183 11.1612 151.301 11.2177C151.539 11.3309 151.539 11.3309 151.539 11.3309C151.539 11.5572 151.599 11.6703 151.658 11.6138C151.658 11.6138 151.658 11.6138 151.718 11.6138C151.777 11.6138 151.896 11.6138 151.955 11.6703C152.015 11.7269 152.015 11.7835 151.955 11.8401C151.837 11.9532 151.718 12.0664 151.48 12.0098C151.42 12.0098 151.361 12.0664 151.361 12.123C151.361 12.1795 151.42 12.2361 151.48 12.2361C151.658 12.2927 151.658 12.2927 151.658 12.2927C151.837 12.3493 151.837 12.4624 151.658 12.5756C151.658 12.5756 151.658 12.5756 151.48 12.5756C151.301 12.5756 151.301 12.5756 151.301 12.5756C151.064 12.4624 150.885 12.519 150.885 12.6887C150.885 12.6887 150.885 12.6887 150.826 12.8019C150.766 12.9716 150.766 12.9716 150.766 12.9716C150.588 13.0282 150.291 13.0848 150.172 13.0848C150.053 13.0848 150.053 13.4242 150.172 13.6506C150.231 13.8203 150.41 14.4426 150.291 14.4992C150.172 14.5558 150.291 14.8953 150.35 14.9518C150.41 15.0084 150.529 15.2347 150.469 15.2347C150.469 15.2347 150.469 15.2347 150.35 15.2913C150.231 15.3479 150.112 15.1216 149.994 15.2913C149.875 15.2913 149.696 15.2347 149.577 15.1781C149.458 15.1216 148.923 15.2347 148.745 15.2347C148.507 15.2913 147.853 15.1216 147.675 15.0084C147.497 14.9518 146.843 14.9518 146.724 14.9518C146.605 14.9518 146.248 14.7821 146.189 14.8387C146.129 14.8953 146.07 15.1216 146.07 15.2347C146.07 15.3479 146.486 15.4045 146.605 15.4045C146.605 15.4045 146.605 15.4045 146.664 15.461C146.783 15.5176 146.664 15.7439 146.962 15.6873C147.021 15.6873 147.021 15.6873 147.021 15.6873C147.08 15.8005 147.259 15.8571 147.378 15.7439C147.378 15.7439 147.378 15.7439 147.378 16.0268C147.378 16.0834 147.378 16.0834 147.378 16.0834C147.556 16.14 147.794 16.14 147.972 16.14C147.972 16.14 147.972 16.14 148.032 16.3097C148.032 16.4228 148.032 16.4228 148.032 16.4228C148.091 16.5926 148.032 16.6492 147.972 16.5926C147.913 16.536 147.556 16.536 147.497 16.536C147.437 16.5926 147.199 16.6492 147.08 16.536C146.962 16.4794 146.605 16.1965 146.605 16.2531C146.664 16.4228 146.843 16.5926 146.843 16.7623C146.783 16.932 146.783 16.932 146.783 16.932C146.545 17.1583 146.427 17.3281 146.545 17.3847C146.605 17.4412 146.902 17.4412 147.021 17.3281C147.021 17.3281 147.021 17.3281 147.08 17.2149C147.14 17.1583 147.14 17.1583 147.14 17.1583C147.14 17.0452 147.199 16.9886 147.199 16.9886C147.378 17.1583 147.378 17.1583 147.378 17.1583C147.556 17.0452 147.794 16.9886 147.853 17.0452C147.913 17.0452 147.913 17.2149 147.675 17.3847C147.675 17.3847 147.675 17.3847 147.794 17.611C147.853 17.6675 147.853 17.6675 147.853 17.6675C148.032 17.611 148.21 17.7241 148.269 17.9504C148.329 18.1202 148.448 18.3465 148.448 18.3465C148.448 18.3465 148.21 18.403 148.091 18.2899C148.091 18.2899 148.091 18.2899 147.972 18.2333C147.913 18.2333 147.794 18.2899 147.794 18.3465C147.734 18.403 147.734 18.5728 147.794 18.6294C147.853 18.6859 148.21 18.7425 148.151 18.7991C148.091 18.8557 147.794 19.082 147.853 19.1386C147.913 19.1951 148.032 19.3649 148.091 19.3083C148.091 19.3083 148.091 19.3083 148.151 19.3083C148.329 19.2517 148.507 19.4214 148.686 19.7043C148.745 19.8175 148.745 19.8175 148.745 19.8175C148.626 19.9306 148.567 20.0438 148.507 20.1004C148.448 20.1004 148.448 20.2135 148.567 20.2701C148.567 20.2701 148.567 20.2701 148.626 20.2701C148.864 20.2701 148.923 20.3267 148.805 20.4964C148.805 20.553 148.745 20.6096 148.745 20.6096C148.864 20.6661 148.864 20.6661 148.864 20.6661C148.864 20.7793 148.686 20.8359 148.567 20.7793C148.567 20.7793 148.567 20.7793 148.507 20.6661C148.507 20.6096 148.507 20.6096 148.507 20.6096C148.21 20.6096 148.21 20.6661 148.507 20.7793C148.507 20.7793 148.507 20.7793 148.388 21.0056C148.329 21.1188 148.329 21.1188 148.329 21.1188C148.269 21.2885 148.269 21.4016 148.329 21.4582C148.388 21.5148 148.507 21.7411 148.448 21.8543C148.388 21.9674 147.972 22.0806 147.972 22.1372C147.972 22.1372 147.972 22.1372 148.032 22.1937C148.091 22.3069 148.091 22.3069 148.091 22.3069C148.151 22.4766 148.151 22.5332 148.091 22.4766C148.032 22.42 147.734 22.3635 147.675 22.42C147.616 22.42 147.318 22.42 147.199 22.42C147.08 22.42 146.843 22.42 146.902 22.4766C146.962 22.5332 147.14 22.6463 147.199 22.7029C147.259 22.7595 147.556 22.6463 147.556 22.6463C147.556 22.6463 147.616 22.7029 147.616 22.8161C147.616 22.9292 148.032 22.8161 148.091 22.8161C148.151 22.8161 148.269 22.8727 148.151 22.9292C148.032 22.9858 147.675 23.099 147.616 23.0424C147.616 22.9858 147.437 22.9292 147.378 22.9292C147.318 22.9292 147.14 23.2121 147.08 23.2121C147.021 23.2121 146.783 23.3253 146.724 23.495C146.724 23.495 146.724 23.495 146.783 23.6647C146.843 23.8345 146.962 23.891 147.14 23.9476C147.199 23.9476 147.199 23.9476 147.199 23.9476C147.259 24.0042 147.259 24.1174 147.14 24.1739C147.08 24.2871 146.724 24.4568 146.664 24.5134C146.605 24.57 146.605 24.7397 146.605 24.7397C146.545 24.7397 146.486 24.8529 146.486 24.8529C146.486 24.8529 146.486 24.966 146.605 25.0226C146.664 25.0792 146.843 25.3621 146.843 25.5318C146.843 25.5318 146.843 25.5318 146.724 25.6449C146.486 25.8713 146.545 26.041 146.902 26.1541C147.199 26.2673 147.199 26.2673 147.199 26.2673C147.021 26.437 146.843 26.6633 146.724 26.7765C146.664 26.8896 146.427 27.0028 146.605 27.0028C146.605 27.0028 146.605 27.0028 146.605 27.2291C146.605 27.3423 146.605 27.3423 146.605 27.3423C146.605 27.4554 146.664 27.6817 146.664 27.7949C146.664 27.7949 146.664 27.7949 146.783 27.8515C146.902 27.9646 146.902 27.9646 146.902 27.9646C146.843 28.0778 146.783 28.3041 146.724 28.4172C146.724 28.4172 146.724 28.4172 146.843 28.5304C147.14 28.8699 147.14 28.8699 147.14 28.8699C146.902 29.0396 146.664 29.1527 146.664 29.1527C146.664 29.1527 146.843 29.4922 147.14 29.8317C147.14 29.8317 147.14 29.8317 147.378 30.1711C147.437 30.2843 147.437 30.2843 147.437 30.2843C147.318 30.2277 147.199 30.2277 147.14 30.2277C147.14 30.2277 147.021 30.2277 146.902 30.2843C146.783 30.3409 146.545 30.454 146.486 30.454C146.427 30.454 146.129 30.5106 146.01 30.5672C146.01 30.5672 146.01 30.5672 145.891 30.6238C145.713 30.6803 145.713 30.6803 145.713 30.6803C145.535 30.6803 145.059 30.7369 144.702 30.7935C144.346 30.8501 143.097 30.9632 142.859 31.0198C142.859 31.0198 142.859 31.0198 142.681 31.0198C142.503 31.0198 142.503 31.0198 142.503 31.0198C142.265 31.0764 141.789 31.1329 141.314 31.1329C141.314 31.1329 141.314 31.1329 140.898 31.1329C140.719 31.1329 140.719 31.1329 140.719 31.1329C140.541 31.1895 140.244 31.3593 140.065 31.4724C140.065 31.4724 140.065 31.4724 139.887 31.2461C139.887 31.1895 139.53 31.3027 139.53 31.3027C139.411 31.0764 139.233 31.4724 139.114 31.2461C139.055 31.1895 139.055 31.1895 139.055 31.1895C138.817 31.3027 138.579 31.3593 138.46 31.3593C138.282 31.4724 138.282 31.4724 138.282 31.4724C138.044 31.4724 137.747 31.4724 137.628 31.529C137.509 31.5856 137.093 31.4724 137.033 31.4724C136.914 31.4724 136.439 31.529 136.201 31.529C135.963 31.529 135.25 31.6987 135.19 31.6421C135.131 31.5856 134.715 31.7553 134.477 31.8119C134.477 31.8119 134.477 31.8119 134.299 31.7553C134.061 31.6987 134.061 31.6987 134.061 31.6987C133.764 31.7553 133.466 31.7553 133.288 31.8119C133.11 31.8119 132.753 31.925 132.753 31.8685C132.753 31.8119 132.456 31.8685 132.277 31.9816C132.099 32.0948 131.504 31.925 131.386 31.9816C131.386 31.9816 131.386 31.9816 131.326 31.925C131.088 31.8119 131.088 31.8119 131.088 31.8119C130.91 31.925 130.553 31.9816 130.315 31.925C130.315 31.925 130.315 31.925 130.137 31.9816C129.959 32.0382 129.959 32.0382 129.959 32.0382C129.78 31.9816 129.424 31.925 129.186 31.9816C129.186 31.9816 129.186 31.9816 129.008 31.9816C128.829 31.9816 128.829 31.9816 128.829 31.9816C128.591 32.0382 128.294 32.0382 128.116 31.925C128.116 31.925 128.116 31.925 127.878 32.0382C127.7 32.0948 127.7 32.0948 127.7 32.0948C127.462 32.0948 126.986 32.0948 126.689 32.1513C126.689 32.1513 126.689 32.1513 126.332 32.0948C126.094 32.0382 126.094 32.0382 126.094 32.0382C125.797 32.0948 125.5 32.2079 125.381 32.2079C125.262 32.2079 124.965 32.1513 124.905 32.1513C124.846 32.2079 124.489 32.1513 124.311 32.1513C124.133 32.1513 123.598 32.2645 123.538 32.2079C123.538 32.1513 123.479 32.1513 123.479 32.2645C123.479 32.3776 123.062 32.1513 123.003 32.1513C122.944 32.1513 122.527 32.1513 122.349 32.2079C122.171 32.2645 121.695 32.1513 121.576 32.2079C121.457 32.2079 120.982 32.1513 120.803 32.1513C120.625 32.1513 120.031 32.1513 119.852 32.1513C119.674 32.0948 119.198 32.3211 119.139 32.3211C119.079 32.3211 118.782 32.2645 118.723 32.2645C118.604 32.2645 118.366 32.2645 118.128 32.2645C117.89 32.2645 117.296 32.2079 117.236 32.2079C117.177 32.2079 116.999 32.2645 116.939 32.2079C116.88 32.1513 116.404 32.2079 116.226 32.2645C116.047 32.2645 115.453 32.3211 115.215 32.4342C115.215 32.4342 115.215 32.4342 114.918 32.2645C114.739 32.1513 114.739 32.1513 114.739 32.1513C114.383 32.1513 113.907 32.2079 113.61 32.2645C113.61 32.2645 113.61 32.2645 113.313 32.1513C113.253 32.1513 113.253 32.1513 113.253 32.1513C113.134 32.2645 112.896 32.3211 112.718 32.2079C112.54 32.0948 111.826 32.2645 111.47 32.3211C111.113 32.3777 110.221 32.1513 110.162 32.1513C110.102 32.1513 109.805 32.2079 109.508 32.2079C109.508 32.2079 109.508 32.2079 109.211 32.0948C109.032 32.0382 109.032 32.0382 109.032 32.0382C108.913 32.2079 108.735 32.2645 108.616 32.2079C108.497 32.1513 108.14 32.0382 108.022 32.0948C107.903 32.1513 107.605 32.3211 107.546 32.2645C107.486 32.2079 107.13 32.0948 106.833 32.0948C106.833 32.0948 106.833 32.0948 106.654 32.1513C106.416 32.2079 106.238 32.2079 106.06 32.1513C105.881 32.0382 105.881 32.0382 105.881 32.0382C105.703 32.0948 105.525 32.1513 105.465 32.1513C105.406 32.1513 105.049 32.0382 104.99 32.0382C104.93 32.0382 104.573 32.0948 104.514 32.1513C104.395 32.2079 104.098 32.1513 103.979 32.1513C103.86 32.1513 103.503 32.1513 103.384 32.1513C103.265 32.1513 102.968 32.0948 102.968 32.0382C102.968 31.9816 102.909 31.8119 102.849 31.8119C102.79 31.8119 102.671 31.8685 102.671 31.8119C102.671 31.7553 102.433 31.6987 102.374 31.7553C102.374 31.7553 102.374 31.7553 102.314 31.8685C102.255 31.925 102.076 31.9816 101.958 32.0382C101.601 32.2079 101.601 32.2079 101.244 31.9816C101.185 31.925 101.185 31.925 101.185 31.925C101.125 31.8685 100.947 31.925 100.887 31.9816C100.828 32.0382 100.471 32.1513 100.352 32.0382C100.233 31.9816 99.9362 31.8119 99.9362 31.8685C99.9362 31.925 99.7579 32.1513 99.5795 32.1513C99.4012 32.1513 98.6283 32.0948 98.0933 32.2079C98.0933 32.2079 98.0933 32.2079 97.5582 32.0382C96.9637 32.3777 96.9637 32.3776 96.9637 32.3776C96.6665 32.4908 96.4287 32.5474 96.3692 32.4908C96.3098 32.4342 96.072 32.5474 96.0125 32.5474C96.0125 32.5474 95.7153 32.604 95.4775 32.5474C95.2397 32.5474 94.5263 32.4342 94.4668 32.4342C94.4074 32.4342 94.0506 32.5474 93.9317 32.604C93.8128 32.6605 93.2778 32.6605 93.04 32.7737C93.04 32.7737 93.04 32.7737 92.7427 32.5474C92.5644 32.4342 92.5644 32.4342 92.5644 32.4342C92.386 32.4908 92.1482 32.4908 92.0293 32.4342C91.9104 32.3776 91.5537 32.604 91.4348 32.604C91.3159 32.604 90.9592 32.4908 90.9592 32.4342C90.9592 32.3776 90.7809 32.2645 90.6025 32.3776C90.6025 32.3776 90.6025 32.3776 90.4836 32.4908C90.3647 32.604 90.3647 32.604 90.3647 32.604C90.1864 32.5474 90.008 32.5474 89.9486 32.5474C89.8891 32.604 89.6513 32.604 89.6513 32.5474C89.6513 32.4908 89.5919 32.4342 89.5324 32.6605C89.5324 32.6605 89.5324 32.6605 89.2946 32.5474C89.1757 32.4908 89.1757 32.4908 89.1757 32.4908C89.0568 32.5474 88.8785 32.5474 88.819 32.5474C88.7596 32.5474 88.4029 32.4342 88.3434 32.4908C88.2245 32.4908 87.8678 32.4908 87.7489 32.4342C87.63 32.3776 87.2733 32.4342 87.0949 32.3776C87.0949 32.3776 87.0949 32.3776 86.9166 32.3776C86.8571 32.3776 86.7382 32.4342 86.6788 32.4342C86.5599 32.3211 86.5004 32.4342 86.3815 32.4342C86.3221 32.4342 86.2032 32.3777 86.1437 32.3211C86.1437 32.3211 86.0248 32.3776 86.0248 32.4342C86.0248 32.4908 86.0248 32.4908 86.0248 32.4908C86.0843 32.5474 86.0843 32.5474 86.0843 32.604C86.0843 32.604 85.9654 32.604 85.8465 32.604C85.787 32.604 85.4303 32.604 85.3114 32.6605C85.3114 32.6605 85.3114 32.6605 85.1925 32.6605C84.9547 32.6605 84.7169 32.5474 84.598 32.604C84.3602 32.7171 84.3602 32.7171 84.3602 32.7171C84.1819 32.6605 83.9441 32.604 83.8846 32.604C83.7657 32.604 83.4685 32.7171 83.409 32.7737C83.3496 32.8303 83.2307 32.604 83.2307 32.5474C83.2307 32.5474 82.9929 32.5474 82.8145 32.5474C82.6362 32.5474 81.8633 32.6605 81.685 32.6605C81.5066 32.6605 81.0904 32.3211 81.031 32.3776C80.9715 32.4342 80.8526 32.6605 80.5554 32.7171C80.3176 32.7171 79.3664 32.4908 78.9502 32.3776C78.9502 32.3776 78.9502 32.3776 78.5935 32.6605C78.4746 32.7171 78.4746 32.7171 78.4746 32.7171C78.2368 32.6605 77.999 32.604 77.9396 32.604C77.8801 32.5474 77.6423 32.604 77.5234 32.604C77.4045 32.5474 77.0478 32.6605 76.9884 32.7171C76.9289 32.7171 76.6317 32.7171 76.3939 32.6605C76.1561 32.604 75.3832 32.7171 75.0265 32.7737C75.0265 32.7737 75.0265 32.7737 74.7292 32.604C74.7292 32.604 74.0158 32.7737 73.9564 32.7737C73.8969 32.8303 73.8969 32.8303 73.8375 32.8303C73.6591 32.8868 73.6591 32.8868 73.6591 32.8868C73.4808 32.8303 73.3619 32.7171 73.3619 32.6605C73.3619 32.604 73.3024 32.4342 73.243 32.4342C73.1835 32.4342 73.0052 32.4908 73.0646 32.5474C73.0646 32.5474 73.0646 32.5474 73.0646 32.604C73.0646 32.6605 73.0646 32.6605 73.0646 32.6605C73.0646 32.7737 72.8863 32.8303 72.7079 32.8303C72.7079 32.8303 72.7079 32.8303 72.5296 32.8303C72.4107 32.8303 72.4107 32.8303 72.4107 32.8303C72.2918 32.8868 71.9945 32.8868 71.8162 32.8868C71.6378 32.8868 71.0433 32.8303 70.9244 32.8303C70.8055 32.8868 70.4488 32.7737 70.3299 32.8303C70.211 32.8868 69.8543 32.7737 69.7949 32.8303C69.7949 32.8303 69.7949 32.8303 69.7354 32.8303C69.4381 32.8868 69.2003 32.8303 68.9031 32.7737C68.6653 32.7171 68.6653 32.7171 68.6653 32.7171C68.3086 32.7171 67.9519 32.7171 67.833 32.7171C67.7141 32.7171 67.5952 32.4908 67.4763 32.6605C67.4763 32.6605 67.4763 32.6605 67.4168 32.7171C67.3574 32.7737 67.3574 32.7737 67.3574 32.7737C67.2979 32.8303 67.1196 32.8868 66.9412 32.9434C66.7629 33 66.1684 32.7737 66.0495 32.7737C65.9306 32.7737 65.7522 32.7737 65.6928 32.7737C65.6333 32.7737 65.3361 32.7737 65.2766 32.7737C65.2172 32.7737 64.801 32.7737 64.6227 32.7737C64.4443 32.7737 63.9687 32.6605 63.9687 32.604C63.9687 32.5474 63.8498 32.6605 63.7309 32.8303C63.7309 32.8303 63.7309 32.8303 63.4337 32.6605C63.3742 32.604 63.1364 32.8303 62.958 32.8303C62.7797 32.8303 62.7797 32.8303 62.7797 32.8303C62.6013 32.7737 62.3041 32.8303 62.1257 33C62.1257 33 62.1257 33 61.8879 32.8303C61.769 32.7171 61.769 32.7171 61.769 32.7171C61.5312 32.6605 61.2934 32.604 61.234 32.6605C61.1745 32.7171 60.9962 32.8868 60.9367 32.7737C60.8773 32.7171 60.6395 32.604 60.5206 32.7171C60.5206 32.7171 60.5206 32.7171 60.4017 32.7737C60.3422 32.7737 60.1639 32.7737 60.1639 32.7737C60.1639 32.4908 60.1639 32.4908 60.1639 32.4908C59.8666 32.4342 59.5694 32.4342 59.5694 32.4908C59.5694 32.604 59.391 32.7171 59.2127 32.7171C59.2127 32.7171 59.2127 32.7171 59.0938 32.7737C58.9749 32.7737 58.9154 32.8868 58.9154 32.7171C58.9154 32.5474 58.7371 32.5474 58.6776 32.604C58.3804 32.7737 58.0831 32.6605 57.7859 32.7171C57.5481 32.7171 57.5481 32.7171 57.5481 32.7171C57.3103 32.7737 57.0725 32.7737 57.0725 32.7737C57.0725 32.7737 57.0725 32.7737 57.013 32.7737C56.7752 32.7171 56.7752 32.7171 56.7752 32.7171C56.4185 32.6605 56.2401 32.604 56.359 32.5474C56.4779 32.4908 56.2401 32.3211 56.2401 32.2645C56.2401 32.2079 56.0618 32.1513 56.0618 32.2645C56.0618 32.3776 55.9429 32.7171 55.824 32.6605C55.824 32.6605 55.824 32.6605 55.7645 32.604C55.6456 32.5474 55.6456 32.5474 55.6456 32.5474C55.5862 32.4342 55.3484 32.3776 55.2295 32.4342C55.1106 32.4908 54.635 32.5474 54.5755 32.4908C54.5161 32.3776 54.2783 32.2079 54.1594 32.3211C54.1594 32.3211 54.1594 32.3211 54.1594 32.4342C54.1594 32.7171 54.1594 32.7171 54.1594 32.7171C53.981 32.7171 53.6243 32.7171 53.446 32.6605C53.2676 32.604 52.6731 32.6605 52.6137 32.6605C52.5542 32.6605 52.3759 32.604 52.257 32.5474C52.1381 32.4908 51.6625 32.5474 51.4841 32.604C51.4841 32.604 51.4841 32.604 51.3652 32.5474C51.2463 32.4908 51.2463 32.4908 51.2463 32.4908C51.1274 32.3211 50.9491 32.2079 50.8302 32.2645C50.7113 32.3211 50.414 32.4908 50.414 32.5474C50.414 32.5474 50.414 32.5474 50.414 32.604C50.414 32.6605 50.414 32.6605 50.414 32.6605C50.414 32.7171 50.3545 32.7171 50.2951 32.7171C50.2356 32.7171 50.1167 32.604 49.9978 32.4908C49.8789 32.3776 49.5222 32.604 49.4628 32.604C49.4033 32.604 49.1655 32.5474 49.0466 32.5474C49.0466 32.5474 49.0466 32.5474 49.0466 32.4908C48.9872 32.3211 48.9872 32.3211 48.9872 32.3211C49.1655 32.3211 49.4033 32.3211 49.5222 32.3211C49.6411 32.3211 49.7006 31.9816 49.5817 31.9816C49.4628 31.9816 49.0466 31.9816 49.0466 32.0948C49.0466 32.0948 49.0466 32.0948 48.9872 32.2079C48.9277 32.3211 48.8088 32.4908 48.6899 32.4908C48.3927 32.4908 48.6305 32.2645 48.5116 32.1513C48.5116 32.1513 48.3332 32.2079 48.2143 32.3776C48.0954 32.4908 47.4415 32.4908 47.2631 32.4908C47.0848 32.4908 46.847 32.2079 46.7875 32.3211C46.7281 32.4342 47.1442 32.5474 47.2037 32.5474C47.2037 32.5474 47.2631 32.6605 47.2037 32.7171C47.2037 32.7171 47.2037 32.7171 47.1442 32.7171C47.0253 32.7171 47.0253 32.7171 47.0253 32.7171C46.9064 32.6605 46.6686 32.5474 46.4903 32.3776C46.4903 32.3776 46.4903 32.3776 46.4308 31.8685C46.4308 31.8119 46.193 31.6987 46.193 31.6987C45.658 32.0382 45.8363 31.6421 45.7769 31.4724C45.7174 31.4158 45.658 31.4724 45.658 31.5856C45.658 31.6987 45.5391 31.925 45.4202 31.8119C45.3013 31.6987 45.1229 32.1513 45.0635 32.2079C45.004 32.2645 44.8257 32.5474 44.7662 32.5474C44.7068 32.5474 44.2906 32.5474 43.9933 32.5474C43.9933 32.5474 43.9933 32.5474 43.6961 32.5474C43.6366 32.5474 43.6366 32.5474 43.6366 32.5474C43.5772 32.5474 43.5177 32.5474 43.5177 32.4908C43.5177 32.4342 43.5177 32.3211 43.5177 32.2645C43.5177 32.2079 43.7555 31.9816 43.8744 32.0382C43.8744 32.0382 43.8744 32.0382 43.9933 32.0382C44.1123 32.0382 44.1122 32.0382 44.1122 32.0382C44.1717 32.0948 44.3501 32.1513 44.5284 32.2079C44.5284 32.2079 44.5284 32.2079 44.6473 32.2079C44.7068 32.2079 44.8257 32.2079 44.8257 32.1513C44.8851 32.0382 44.8851 32.0382 44.8851 32.0382C44.9446 31.8685 45.1229 31.7553 45.2418 31.7553C45.2418 31.7553 45.2418 31.7553 45.3013 31.6987C45.4202 31.5856 45.4202 31.4158 45.4796 31.3593C45.7174 31.1895 45.7174 31.1895 45.7174 31.1895C45.5985 31.0764 45.4202 30.9632 45.3607 30.9066C45.3013 30.9066 45.0635 30.9632 45.0635 31.1329C45.0635 31.3027 44.8851 31.7553 44.7068 31.7553C44.7068 31.7553 44.7068 31.7553 44.5879 31.8685C44.469 31.9816 44.35 32.0382 44.1122 31.925C43.9933 32.0382 43.9933 32.0382 43.9933 32.0382ZM45.8958 30.7369C45.7769 30.6803 45.5985 30.6803 45.5985 30.6803C45.5985 30.6803 45.5985 30.7935 45.7174 30.8501C45.7769 30.9066 46.2525 30.9632 46.4903 30.8501C46.4903 30.8501 46.4903 30.8501 46.7281 31.0198C46.7281 31.0198 46.847 31.0198 46.847 30.9632C46.9064 30.9066 46.9064 30.9066 46.9064 30.9066C47.0253 30.7935 47.0253 30.6803 46.847 30.6803C46.6686 30.6803 46.0741 30.7935 45.8958 30.7369ZM41.6153 31.0198C41.437 31.0764 41.3181 31.1895 41.3775 31.3027C41.437 31.4158 41.8531 31.1895 41.9126 31.1329C41.972 31.0764 42.4476 31.0764 42.5665 31.0764C42.6854 31.0764 43.161 31.0198 43.1016 30.9066C43.0421 30.7935 42.626 30.9066 42.5071 30.9066C42.3882 30.9066 42.0909 30.9066 41.9126 30.8501C41.9126 30.8501 41.9126 30.8501 41.7342 30.9066C41.6153 31.0198 41.6153 31.0198 41.6153 31.0198ZM145.297 15.2347C145.475 15.2913 145.535 15.2347 145.475 15.1216C145.416 15.0084 145.119 14.6124 145 14.3861C145 14.3861 145 14.3861 144.762 14.6689C144.584 14.8953 144.584 14.8953 144.584 14.8953C144.405 14.8387 144.346 14.7821 144.465 14.8387C144.584 14.8387 145.119 15.1781 145.297 15.2347ZM76.275 31.0764C76.0966 31.0764 75.8588 31.1329 75.8588 31.1895C75.9183 31.3027 75.9183 31.3027 75.9183 31.3027C75.8588 31.4158 75.8588 31.529 75.9777 31.5856C76.0371 31.6421 76.3344 31.4724 76.5128 31.4724C76.5722 31.3593 76.4533 31.0764 76.275 31.0764ZM147.853 15.065C147.734 14.8953 147.675 14.8953 147.734 15.065C147.794 15.2347 148.269 15.4045 148.388 15.4045C148.388 15.4045 148.388 15.4045 148.388 15.2347C148.388 15.1781 148.388 15.1781 148.388 15.1781C148.507 15.0084 148.388 15.0084 148.091 15.1781C148.091 15.1781 148.091 15.1781 147.972 15.1216C147.853 15.065 147.853 15.065 147.853 15.065ZM40.248 30.8501C39.8913 30.9066 39.7129 30.9632 39.8913 30.9632C40.0102 30.9632 40.4263 31.1329 40.4858 31.1895C40.6047 31.2461 40.9019 31.3027 40.9019 31.2461C40.9019 31.1895 40.783 30.9632 40.6047 31.0198C40.6047 31.0198 40.6047 31.0198 40.5452 31.0198C40.248 30.8501 40.248 30.8501 40.248 30.8501ZM54.8728 31.4158C54.8133 31.4158 54.8133 31.5856 54.9322 31.8119C54.9322 31.8119 54.9322 31.8119 55.1106 31.8685C55.2889 31.9816 55.2889 31.9816 55.2889 31.9816C55.4673 32.0948 55.7051 32.1513 55.824 32.1513C55.824 32.1513 55.824 32.1513 55.824 32.0948C55.8834 32.0382 55.8834 32.0382 55.8834 32.0382C55.8834 31.925 55.7051 31.8685 55.4673 31.8685C55.4673 31.8685 55.4673 31.8685 55.3484 31.8119C55.2295 31.7553 55.2295 31.7553 55.2295 31.7553C55.17 31.5856 54.9322 31.4158 54.8728 31.4158ZM103.087 31.4158C103.206 31.3593 103.206 31.3027 103.147 31.2461C103.087 31.1895 102.849 31.0198 102.79 30.9632C102.73 30.9066 102.493 30.9632 102.552 31.1329C102.612 31.3027 103.028 31.4158 103.087 31.4158ZM50.1167 31.6987C50.0573 31.529 50.0573 31.529 50.1167 31.6987C50.1167 31.8119 50.0573 32.1513 50.1762 32.1513C50.2951 32.1513 50.1167 31.8685 50.1167 31.6987ZM4.51824 21.2885C4.63714 21.2885 4.69659 21.2319 4.69659 21.1188C4.45879 21.1188 4.39933 21.0056 4.39933 20.8359C4.39933 20.7793 4.39933 20.7793 4.39933 20.7793C4.33988 20.6661 4.28043 20.7227 4.16153 20.8359C4.10208 21.0056 4.39933 21.2319 4.51824 21.2885ZM2.49692 24.0042C2.49692 23.9476 2.37802 23.8911 2.31857 23.8345C2.31857 23.8345 2.31857 23.8345 2.25912 23.7779C2.19967 23.7213 2.14022 23.6647 2.02132 23.7213C1.90242 23.7779 1.84296 23.8345 2.02132 23.9476C2.14022 24.0042 1.90241 24.2871 2.19967 24.2871C2.25912 24.2871 2.37802 24.1174 2.49692 24.0042Z" fill="#FFB820"/>
</svg>
