<svg width="26" height="26" viewBox="0 0 26 26" fill="none" xmlns="http://www.w3.org/2000/svg">
<g clip-path="url(#clip0_1218_1820)">
<path d="M22.191 3.80574C17.1135 -1.27031 8.88227 -1.26909 3.80623 3.80853C-1.26982 8.88615 -1.2686 17.1173 3.80902 22.1933C8.88664 27.2694 17.1178 27.2681 22.1938 22.1905C24.6316 19.752 26.0008 16.4448 26 12.9967C25.9993 9.5492 24.6292 6.24314 22.191 3.80574ZM19.6881 18.1084C19.6875 18.1089 19.6869 18.1095 19.6863 18.1101V18.1058L19.0277 18.7601C18.1758 19.6227 16.9352 19.9776 15.756 19.6961C14.5679 19.3781 13.4386 18.8719 12.4107 18.1968C11.4557 17.5864 10.5706 16.873 9.77165 16.0691C9.03649 15.3393 8.37603 14.538 7.79997 13.6771C7.16987 12.7508 6.67115 11.7416 6.31797 10.6784C5.91309 9.42941 6.2486 8.05887 7.18465 7.13811L7.95597 6.36679C8.17042 6.15137 8.51888 6.15061 8.73424 6.36506C8.7348 6.36562 8.73541 6.36618 8.73597 6.36679L11.1713 8.8021C11.3867 9.01655 11.3875 9.36502 11.173 9.58038C11.1725 9.58094 11.1719 9.5815 11.1713 9.58211L9.74129 11.0121C9.33097 11.4179 9.27938 12.0629 9.61997 12.5288C10.1372 13.2386 10.7095 13.9065 11.3317 14.5265C12.0253 15.2231 12.7793 15.8568 13.585 16.4202C14.0505 16.7449 14.6816 16.6901 15.0843 16.2902L16.4666 14.8862C16.6811 14.6707 17.0295 14.67 17.2449 14.8844C17.2454 14.885 17.246 14.8855 17.2466 14.8862L19.6863 17.3302C19.9017 17.5446 19.9025 17.893 19.6881 18.1084Z" fill="#00659E"/>
</g>
<defs>
<clipPath id="clip0_1218_1820">
<rect width="26" height="26" fill="white"/>
</clipPath>
</defs>
</svg>
