<svg id="Слой_1" data-name="Слой 1" xmlns="http://www.w3.org/2000/svg" viewBox="0 0 993.25 893.9"><defs><style>.cls-1{fill:#ffd629;}.cls-1,.cls-2{fill-rule:evenodd;}.cls-2,.cls-4{fill:#fff;}.cls-3{fill:#e5231f;}</style></defs><path class="cls-1" d="M983.09,94.59c-9.31,1.83-12.81,6.13-17.66,13.59L770.16,383.7l-229,32.89c-7,.81-15.47,6.12-18.81,12.36,0,0-55.57,172.05-58.22,180.53s-1.38,17.15,11.6,31.1c16.54,14.91,134,130.47,134,130.47L579,952.69c-4.93,25-6.24,35,23.14,35l95.68,0c9.59,0,19.78,1.4,28.25-3.72,0,0,99.63-52.52,103.82-55.06s11.25-2.68,21.49,2.37l83,44.06c5.86,3.11,15,8.84,20.81,11,6.53,2.47,51,1.26,61.08,1.09l221.23.15c7.74,0,24.24.92,30.93-.93,22.34-6.16,18.63-25.76,15.37-43.47-3.29-17.88-7.19-35.87-9.8-53.84-3.62-24.94-9.49-55.42-14-81.16-1.58-8.92-3.63-18-4.91-26.92-2.6-18.13-7-36.4-9.46-54.37-1.27-9.32-3-18.15-4.58-27.39-1.45-8.7-3.89-18.31-4.93-26.83-.45-3.72-.53-6.67-.53-6.67l206-200.36c5.72-6.06,11.59-9.24,13.88-17.94,2.34-8.86-.27-17.33-6.43-23.9-6.74-7.19-14.63-6.84-23.36-8.45l-285.06-40.53L1017.39,123.35c-7.21-14.71-13.37-32.87-34.3-28.76Z" transform="translate(-463 -94)"/><path class="cls-2" d="M1431.5,446.5c5.12-5.85,5.07-7.79-3.32-9.51l-302.33-44.38S995.59,125,993.84,121.13s-8.61-7.75-12.1,0l-133,272.77L549.34,436.46c-10.46,1-12.66,4-4.21,11.65l217,210-52,304.26c0,5.72,3.24,4.9,7.75,2.94L988.22,822.75l269.64,142.47c11.5,7.43,6.81-8.41,6.22-13.64l-50.55-292.1,218-213Z" transform="translate(-463 -94)"/><path d="M792.22,539.41,770.69,571h-10.3l27-38.83-23.49-34.91h11.54l19,28.11,18-28.11h10.3l-23.59,35.12L825.28,571H813.64l-21.42-31.62Zm63.34,32.65a27.62,27.62,0,0,1-10.19-1.85,22.93,22.93,0,0,1-8.19-5.41,25.23,25.23,0,0,1-5.41-8.7,36.62,36.62,0,0,1,0-23.64,24.5,24.5,0,0,1,5.41-8.7,23.21,23.21,0,0,1,8.19-5.36,27.62,27.62,0,0,1,10.19-1.85,27.9,27.9,0,0,1,10.3,1.85,23.21,23.21,0,0,1,8.19,5.36,25,25,0,0,1,5.46,8.7,35.76,35.76,0,0,1,0,23.64,25.78,25.78,0,0,1-5.46,8.7,22.93,22.93,0,0,1-8.19,5.41,27.9,27.9,0,0,1-10.3,1.85Zm0-8a18.54,18.54,0,0,0,6.7-1.18,13.7,13.7,0,0,0,5.3-3.63,17.24,17.24,0,0,0,3.51-6.14,30.72,30.72,0,0,0,0-17.55,17.24,17.24,0,0,0-3.51-6.14,13.57,13.57,0,0,0-5.3-3.62,18.54,18.54,0,0,0-6.7-1.19,17.72,17.72,0,0,0-6.59,1.19,13.83,13.83,0,0,0-5.2,3.62,16.58,16.58,0,0,0-3.45,6.14,31.67,31.67,0,0,0,0,17.55,16.58,16.58,0,0,0,3.45,6.14,14,14,0,0,0,5.2,3.63,17.72,17.72,0,0,0,6.59,1.18Zm63.56,0a14.63,14.63,0,0,0,11.48-4.91c2.92-3.26,4.38-8.21,4.38-14.81s-1.46-11.39-4.38-14.72a14.52,14.52,0,0,0-11.48-5,17.12,17.12,0,0,0-6.55,1.24,14.24,14.24,0,0,0-5.25,3.67,17.43,17.43,0,0,0-3.5,6.15,29.75,29.75,0,0,0,0,17.33,18,18,0,0,0,3.5,6.2,13.7,13.7,0,0,0,5.25,3.68,17.89,17.89,0,0,0,6.55,1.18Zm1.33,8a19.29,19.29,0,0,1-10.66-2.88,20.82,20.82,0,0,1-7.15-7.93v28h-9.07V517.58h8l.82,10.5a22.28,22.28,0,0,1,7.21-8.39,19.19,19.19,0,0,1,11.23-3.14,23.76,23.76,0,0,1,8.91,1.7,20.65,20.65,0,0,1,7.51,5.15,24.84,24.84,0,0,1,5.15,8.65,35.2,35.2,0,0,1,1.91,12.2,34.83,34.83,0,0,1-2,12.31,25,25,0,0,1-5.25,8.65,21.14,21.14,0,0,1-7.62,5.15,24.47,24.47,0,0,1-9.07,1.7Zm58.1,0a27.67,27.67,0,0,1-10.2-1.85,22.93,22.93,0,0,1-8.19-5.41,25.23,25.23,0,0,1-5.41-8.7,36.8,36.8,0,0,1,0-23.64,24.5,24.5,0,0,1,5.41-8.7,23.21,23.21,0,0,1,8.19-5.36,27.67,27.67,0,0,1,10.2-1.85,28,28,0,0,1,10.3,1.85,23.26,23.26,0,0,1,8.18,5.36,25,25,0,0,1,5.46,8.7,35.76,35.76,0,0,1,0,23.64,25.78,25.78,0,0,1-5.46,8.7,23,23,0,0,1-8.18,5.41,28,28,0,0,1-10.3,1.85Zm0-8a18.53,18.53,0,0,0,6.69-1.18,13.81,13.81,0,0,0,5.31-3.63,17.38,17.38,0,0,0,3.5-6.14,30.49,30.49,0,0,0,0-17.55,17.38,17.38,0,0,0-3.5-6.14,13.68,13.68,0,0,0-5.31-3.62,18.53,18.53,0,0,0-6.69-1.19,17.78,17.78,0,0,0-6.6,1.19,13.83,13.83,0,0,0-5.2,3.62,16.86,16.86,0,0,0-3.45,6.14,31.92,31.92,0,0,0,0,17.55,16.86,16.86,0,0,0,3.45,6.14,14,14,0,0,0,5.2,3.63,17.78,17.78,0,0,0,6.6,1.18Zm38-46.45h9.07v45.73h19.77V517.58h9.07v45.73h19.77V517.58h9.07V571h-66.75V517.58Zm104,7a15.13,15.13,0,0,0-10.19,3.61q-4.23,3.6-5.36,10.91h28.74a17.35,17.35,0,0,0-.72-6.43,12,12,0,0,0-2.68-4.54,10.73,10.73,0,0,0-4.28-2.67,16.54,16.54,0,0,0-5.51-.88Zm21.32,42a26.15,26.15,0,0,1-2.83,1.75,32.72,32.72,0,0,1-9.47,3.21,36.84,36.84,0,0,1-6.75.56q-13.5,0-20.5-7.31t-7-20.5a33.44,33.44,0,0,1,1.9-11.64,24.88,24.88,0,0,1,5.31-8.7,23,23,0,0,1,8.08-5.46,26.72,26.72,0,0,1,10.15-1.9,25.59,25.59,0,0,1,10.2,2,18.74,18.74,0,0,1,7.46,5.79,22.23,22.23,0,0,1,4,9.46,39,39,0,0,1,0,13.08h-37.7q.51,8.65,5.25,12.93t13.39,4.27a22.85,22.85,0,0,0,9.58-1.8,43.75,43.75,0,0,0,6.6-3.66l2.36,8Zm34.61-42a15.13,15.13,0,0,0-10.19,3.61q-4.23,3.6-5.36,10.91h28.74a17.35,17.35,0,0,0-.72-6.43,12.08,12.08,0,0,0-2.68-4.54,10.73,10.73,0,0,0-4.28-2.67,16.54,16.54,0,0,0-5.51-.88Zm21.32,42a26.15,26.15,0,0,1-2.83,1.75,32.65,32.65,0,0,1-9.48,3.21,36.66,36.66,0,0,1-6.74.56q-13.5,0-20.5-7.31t-7-20.5a33.44,33.44,0,0,1,1.9-11.64,24.88,24.88,0,0,1,5.31-8.7,23,23,0,0,1,8.08-5.46,26.72,26.72,0,0,1,10.15-1.9,25.62,25.62,0,0,1,10.2,2,18.74,18.74,0,0,1,7.46,5.79,22.23,22.23,0,0,1,4,9.46,39,39,0,0,1-.05,13.08h-37.7q.51,8.65,5.25,12.93t13.39,4.27a22.85,22.85,0,0,0,9.58-1.8,43.12,43.12,0,0,0,6.59-3.66l2.37,8Z" transform="translate(-463 -94)"/><path d="M861.4,620.64v44.7h-8.34V611.88H867l16.07,36,16.69-36H913v53.46h-9v-44.7l-18.13,38.72H878.7l-17.3-38.72Zm89.9-1.75a15.21,15.21,0,0,0-10.2,3.6q-4.22,3.6-5.35,10.92h28.73a17,17,0,0,0-.72-6.44,11.84,11.84,0,0,0-2.68-4.53,10.72,10.72,0,0,0-4.27-2.68,16.8,16.8,0,0,0-5.51-.87Zm21.32,42a27.18,27.18,0,0,1-2.83,1.75,35.25,35.25,0,0,1-4.07,1.79,33.86,33.86,0,0,1-5.41,1.42,36.61,36.61,0,0,1-6.74.57q-13.5,0-20.5-7.31t-7-20.5A33.35,33.35,0,0,1,928,626.92a25,25,0,0,1,5.3-8.7,23.15,23.15,0,0,1,8.09-5.46,26.69,26.69,0,0,1,10.15-1.91,25.37,25.37,0,0,1,10.19,2,18.73,18.73,0,0,1,7.47,5.78,22.23,22.23,0,0,1,4,9.46,38.77,38.77,0,0,1-.06,13.08H935.44q.51,8.65,5.25,12.93t13.39,4.27a22.85,22.85,0,0,0,9.58-1.8,44,44,0,0,0,6.59-3.65l2.37,8Zm37.16,5.53A30.44,30.44,0,0,1,999,664.51a23.41,23.41,0,0,1-8.5-5.4,24.43,24.43,0,0,1-5.51-8.65,35.44,35.44,0,0,1,0-23.39,25.07,25.07,0,0,1,5.61-8.8,24.37,24.37,0,0,1,8.5-5.51,29.15,29.15,0,0,1,10.66-1.91,37.32,37.32,0,0,1,9,1,19.48,19.48,0,0,1,7,3.09l-2.27,7.83a43.67,43.67,0,0,0-5.87-2.68,22.06,22.06,0,0,0-7.72-1.23c-5.36,0-9.64,1.64-12.83,5s-4.79,8.29-4.79,15c0,6.26,1.58,11.09,4.74,14.45s7.42,5.06,12.77,5.06a23,23,0,0,0,7.11-1,31.7,31.7,0,0,0,6.08-2.67l2.16,7.45a23,23,0,0,1-6.59,3.17,30.67,30.67,0,0,1-8.76,1.12Zm49.83-46.76v45.73h-9.06V619.61h-16.27v-7.73h41.92v7.73Zm49.53,46.76a27.67,27.67,0,0,1-10.2-1.86,22.78,22.78,0,0,1-8.19-5.4,25.18,25.18,0,0,1-5.41-8.71,36.77,36.77,0,0,1,0-23.63,24.63,24.63,0,0,1,5.41-8.71,23.19,23.19,0,0,1,8.19-5.35,27.67,27.67,0,0,1,10.2-1.86,28,28,0,0,1,10.3,1.86,23.15,23.15,0,0,1,8.18,5.35,25,25,0,0,1,5.46,8.71,35.73,35.73,0,0,1,0,23.63,25.58,25.58,0,0,1-5.46,8.71,22.74,22.74,0,0,1-8.18,5.4,28,28,0,0,1-10.3,1.86Zm0-8a18.53,18.53,0,0,0,6.69-1.18,13.9,13.9,0,0,0,5.31-3.62,17.52,17.52,0,0,0,3.5-6.15,30.46,30.46,0,0,0,0-17.54,17.52,17.52,0,0,0-3.5-6.15,13.68,13.68,0,0,0-5.31-3.62,18.53,18.53,0,0,0-6.69-1.18,17.78,17.78,0,0,0-6.6,1.18,13.83,13.83,0,0,0-5.2,3.62,17,17,0,0,0-3.45,6.15,31.88,31.88,0,0,0,0,17.54,17,17,0,0,0,3.45,6.15,14.06,14.06,0,0,0,5.2,3.62,17.78,17.78,0,0,0,6.6,1.18Z" transform="translate(-463 -94)"/><path d="M832.82,716.77v7H836a6,6,0,0,0,3.56-1,3.48,3.48,0,0,0,1.36-3.07,2.41,2.41,0,0,0-1.23-2.38,7.68,7.68,0,0,0-3.44-.63Zm0,9.76v7.72h3.68a11.48,11.48,0,0,0,2.21-.2,4.83,4.83,0,0,0,1.71-.64,3.1,3.1,0,0,0,1.12-1.18,3.74,3.74,0,0,0,.4-1.82,3.28,3.28,0,0,0-1.38-3,8.68,8.68,0,0,0-4.38-.85Zm-3-12.48h6.46a10.72,10.72,0,0,1,5.73,1.27,4.71,4.71,0,0,1,2,4.3,5.14,5.14,0,0,1-1.21,3.7,6.27,6.27,0,0,1-3.27,1.71,7.49,7.49,0,0,1,4.21,1.52,4.75,4.75,0,0,1,1.43,3.79,6.78,6.78,0,0,1-.64,3.06,5.48,5.48,0,0,1-1.8,2.05,8.15,8.15,0,0,1-2.73,1.15,15.5,15.5,0,0,1-3.44.37h-6.72V714.05ZM866.9,737h-2.82V720.36h2.82V737Zm-14.69-8.42v6h2.53a5.66,5.66,0,0,0,3-.69,2.46,2.46,0,0,0,1.13-2.29,2.64,2.64,0,0,0-1-2.34,5,5,0,0,0-2.85-.7Zm-2.82-8.19h2.82v5.79H855a8.52,8.52,0,0,1,4.93,1.25,4.54,4.54,0,0,1,1.79,4,5.72,5.72,0,0,1-.51,2.5,4.47,4.47,0,0,1-1.44,1.72,6.41,6.41,0,0,1-2.21,1,11.59,11.59,0,0,1-2.78.32h-5.35V720.36Zm30,16.93a8.67,8.67,0,0,1-3.28-.6,6.71,6.71,0,0,1-2.58-1.8,8.68,8.68,0,0,1-1.7-3.08,14.22,14.22,0,0,1-.6-4.38c0-1.39,0-2.71.12-4a19.15,19.15,0,0,1,.56-3.49,9.72,9.72,0,0,1,1.3-2.89,7.32,7.32,0,0,1,2.3-2.19,8.27,8.27,0,0,1,3.41-1.09c1.19-.11,2.35-.18,3.51-.23a9.82,9.82,0,0,0,2-.32,6.37,6.37,0,0,0,1.41-.6l.45,2.62a3.88,3.88,0,0,1-1.57.61c-.62.1-1.29.2-2,.29l-1.76.09c-.55,0-1.08.06-1.58.11s-1,.14-1.44.24a5.78,5.78,0,0,0-1.3.48,4.87,4.87,0,0,0-2.27,2.64,15.44,15.44,0,0,0-.8,4.15,6.22,6.22,0,0,1,2.4-2.79,7.31,7.31,0,0,1,3.87-1,7.65,7.65,0,0,1,2.93.56,6.76,6.76,0,0,1,2.37,1.65,7.85,7.85,0,0,1,1.58,2.67,10.49,10.49,0,0,1,.58,3.64,10.25,10.25,0,0,1-.61,3.68A8,8,0,0,1,885,735a7,7,0,0,1-2.5,1.68,8.42,8.42,0,0,1-3.13.58Zm-.07-2.5a5.34,5.34,0,0,0,2-.37,4.15,4.15,0,0,0,1.6-1.12,5.23,5.23,0,0,0,1.05-1.91,8.56,8.56,0,0,0,.39-2.73,8.45,8.45,0,0,0-.39-2.72,5,5,0,0,0-1.07-1.91,4.28,4.28,0,0,0-1.65-1.13,5.87,5.87,0,0,0-2.08-.37,4.91,4.91,0,0,0-3.66,1.48,6.26,6.26,0,0,0-1.46,4.56,8.8,8.8,0,0,0,.4,2.77,5.58,5.58,0,0,0,1.09,1.94,4.19,4.19,0,0,0,1.65,1.14,5.74,5.74,0,0,0,2.11.37Zm18.63,2.5a8.71,8.71,0,0,1-3.17-.58,7.09,7.09,0,0,1-2.55-1.68,8,8,0,0,1-1.68-2.7,11.55,11.55,0,0,1,0-7.35,7.65,7.65,0,0,1,1.68-2.7,7.33,7.33,0,0,1,2.55-1.67,9.18,9.18,0,0,1,6.37,0,7.2,7.2,0,0,1,2.54,1.67,7.69,7.69,0,0,1,1.7,2.7,11.2,11.2,0,0,1,0,7.35,8.07,8.07,0,0,1-1.7,2.7,7,7,0,0,1-2.54,1.68,8.79,8.79,0,0,1-3.2.58Zm0-2.5a5.69,5.69,0,0,0,2.08-.37,4.14,4.14,0,0,0,1.64-1.12,5.29,5.29,0,0,0,1.09-1.91,8.27,8.27,0,0,0,.4-2.73,8.17,8.17,0,0,0-.4-2.72,5.21,5.21,0,0,0-1.09-1.91A4.17,4.17,0,0,0,900,722.9a5.91,5.91,0,0,0-2.08-.37,5.62,5.62,0,0,0-2,.37,4.32,4.32,0,0,0-1.62,1.13,5.18,5.18,0,0,0-1.07,1.91,8.46,8.46,0,0,0-.38,2.72,8.57,8.57,0,0,0,.38,2.73,5.26,5.26,0,0,0,1.07,1.91,4.3,4.3,0,0,0,1.62,1.12,5.42,5.42,0,0,0,2,.37Zm19.74,0a4.56,4.56,0,0,0,3.57-1.53,8.41,8.41,0,0,0,0-9.17,4.52,4.52,0,0,0-3.57-1.56,5.28,5.28,0,0,0-2,.39,4.31,4.31,0,0,0-1.63,1.14A5.44,5.44,0,0,0,912.9,726a9.28,9.28,0,0,0,0,5.39,5.58,5.58,0,0,0,1.09,1.92,4.2,4.2,0,0,0,1.63,1.14,5.46,5.46,0,0,0,2,.37Zm.42,2.5a6,6,0,0,1-3.32-.9,6.53,6.53,0,0,1-2.22-2.46v8.7h-2.82V720.36h2.5l.26,3.26a6.88,6.88,0,0,1,2.24-2.61,6,6,0,0,1,3.48-1,7.26,7.26,0,0,1,2.77.53,6.32,6.32,0,0,1,2.34,1.6,7.86,7.86,0,0,1,1.6,2.68,11.19,11.19,0,0,1,.59,3.8,10.74,10.74,0,0,1-.61,3.82,7.81,7.81,0,0,1-1.63,2.69,6.55,6.55,0,0,1-2.37,1.6,7.63,7.63,0,0,1-2.81.53Zm28-14.53h-7.68V737h-2.82V720.36h13.31V737h-2.81V722.76Zm14.56,14.53a8.71,8.71,0,0,1-3.17-.58,7.09,7.09,0,0,1-2.55-1.68,8,8,0,0,1-1.68-2.7,11.55,11.55,0,0,1,0-7.35,7.65,7.65,0,0,1,1.68-2.7,7.33,7.33,0,0,1,2.55-1.67,9.18,9.18,0,0,1,6.37,0,7.2,7.2,0,0,1,2.54,1.67,7.69,7.69,0,0,1,1.7,2.7,11.2,11.2,0,0,1,0,7.35,8.07,8.07,0,0,1-1.7,2.7,7,7,0,0,1-2.54,1.68,8.79,8.79,0,0,1-3.2.58Zm0-2.5a5.69,5.69,0,0,0,2.08-.37,4.14,4.14,0,0,0,1.64-1.12,5.29,5.29,0,0,0,1.09-1.91,8.27,8.27,0,0,0,.4-2.73,8.17,8.17,0,0,0-.4-2.72,5.21,5.21,0,0,0-1.09-1.91,4.17,4.17,0,0,0-1.64-1.13,5.91,5.91,0,0,0-2.08-.37,5.62,5.62,0,0,0-2,.37A4.32,4.32,0,0,0,957,724a5.18,5.18,0,0,0-1.07,1.91,8.46,8.46,0,0,0-.38,2.72,8.57,8.57,0,0,0,.38,2.73A5.26,5.26,0,0,0,957,733.3a4.3,4.3,0,0,0,1.62,1.12,5.42,5.42,0,0,0,2,.37Zm15.2-2.11a6.38,6.38,0,0,1-1.75,3.34,4.6,4.6,0,0,1-3.34,1l-.42-2.56q2.2.09,2.85-2.37a23.65,23.65,0,0,0,.62-4.69c.1-1.88.15-4.24.15-7h10.81V737h-2.81V722.76h-5.35c0,2.11-.08,4-.17,5.63a24.42,24.42,0,0,1-.59,4.29Zm16.57-4.13v6h2.69a5.64,5.64,0,0,0,3-.69,2.46,2.46,0,0,0,1.14-2.29,2.62,2.62,0,0,0-1-2.34,5,5,0,0,0-2.85-.7Zm-2.81-8.19h2.81v5.79h2.91a8.52,8.52,0,0,1,5,1.25,4.58,4.58,0,0,1,1.77,4,5.72,5.72,0,0,1-.51,2.5,4.47,4.47,0,0,1-1.44,1.72,6.41,6.41,0,0,1-2.21,1,11.59,11.59,0,0,1-2.78.32h-5.5V720.36Zm20.16,16.93a11.63,11.63,0,0,1-3.19-.4,7.53,7.53,0,0,1-2.16-1l.87-2.42a10.08,10.08,0,0,0,1.92.9,7.58,7.58,0,0,0,2.49.38,8.82,8.82,0,0,0,1.6-.14,4.43,4.43,0,0,0,1.3-.46,2.35,2.35,0,0,0,.88-.8,2.26,2.26,0,0,0,.32-1.24,2.19,2.19,0,0,0-.95-2,5.63,5.63,0,0,0-3-.6h-2.2v-2.27h2.3q3.3,0,3.3-2.46a1.93,1.93,0,0,0-.28-1.08,2.13,2.13,0,0,0-.73-.7,3.23,3.23,0,0,0-1.07-.38,6.7,6.7,0,0,0-1.28-.12,7.21,7.21,0,0,0-2.48.39,10.77,10.77,0,0,0-2,.93l-.68-2.34a9.66,9.66,0,0,1,2.13-1A9.49,9.49,0,0,1,1010,720a7,7,0,0,1,4.39,1.15,4,4,0,0,1,1.47,3.33,3.56,3.56,0,0,1-.9,2.59,4.43,4.43,0,0,1-2.43,1.22q4,.48,4,3.8a4.77,4.77,0,0,1-.56,2.39,4.72,4.72,0,0,1-1.51,1.6,6.35,6.35,0,0,1-2.16.89,11,11,0,0,1-2.52.28Zm17.6,0a8.71,8.71,0,0,1-3.17-.58,7.09,7.09,0,0,1-2.55-1.68,8,8,0,0,1-1.68-2.7,11.55,11.55,0,0,1,0-7.35,7.65,7.65,0,0,1,1.68-2.7,7.33,7.33,0,0,1,2.55-1.67,9.18,9.18,0,0,1,6.37,0,7.2,7.2,0,0,1,2.54,1.67,7.69,7.69,0,0,1,1.7,2.7,11.2,11.2,0,0,1,0,7.35,8.07,8.07,0,0,1-1.7,2.7,7,7,0,0,1-2.54,1.68,8.79,8.79,0,0,1-3.2.58Zm0-2.5a5.69,5.69,0,0,0,2.08-.37,4.14,4.14,0,0,0,1.64-1.12,5.29,5.29,0,0,0,1.09-1.91,8.27,8.27,0,0,0,.4-2.73,8.17,8.17,0,0,0-.4-2.72,5.21,5.21,0,0,0-1.09-1.91,4.17,4.17,0,0,0-1.64-1.13,5.91,5.91,0,0,0-2.08-.37,5.62,5.62,0,0,0-2,.37,4.32,4.32,0,0,0-1.62,1.13,5.18,5.18,0,0,0-1.07,1.91,8.46,8.46,0,0,0-.38,2.72,8.57,8.57,0,0,0,.38,2.73,5.26,5.26,0,0,0,1.07,1.91,4.3,4.3,0,0,0,1.62,1.12,5.42,5.42,0,0,0,2,.37Zm14.62-12v4.51h3.14a5,5,0,0,0,2.57-.58,1.82,1.82,0,0,0,1-1.66,1.86,1.86,0,0,0-.87-1.79,5.1,5.1,0,0,0-2.46-.48Zm0,6.75v5.06h3.3a9.87,9.87,0,0,0,1.61-.12,3.54,3.54,0,0,0,1.25-.4,2.15,2.15,0,0,0,.82-.76,2.3,2.3,0,0,0,.28-1.19,2.13,2.13,0,0,0-1-2,6,6,0,0,0-3-.58Zm-2.82-9.15h6.21a8.1,8.1,0,0,1,4.55,1,3.64,3.64,0,0,1,1.53,3.25,3.55,3.55,0,0,1-.73,2.35,4.12,4.12,0,0,1-2.15,1.26q3.56.59,3.55,3.94a4.43,4.43,0,0,1-.51,2.19,4.19,4.19,0,0,1-1.41,1.49,6.21,6.21,0,0,1-2.16.83,13.75,13.75,0,0,1-2.73.26h-6.15V720.36Zm21.54,14.43a5.17,5.17,0,0,0,3-.93,7.28,7.28,0,0,0,1.06-.9,6.58,6.58,0,0,0,.78-1v-2.78h-2.17a8.18,8.18,0,0,0-4.23.79,2.51,2.51,0,0,0-1.21,2.24,2.53,2.53,0,0,0,.67,1.83,2.76,2.76,0,0,0,2.11.71Zm5-.58a8,8,0,0,1-.85,1.11,5.48,5.48,0,0,1-1.18,1,6.76,6.76,0,0,1-3.57,1,5.13,5.13,0,0,1-3.61-1.27,4.67,4.67,0,0,1-1.38-3.63q0-5.42,8-5.41h2.43v-1.25a3,3,0,0,0-.91-2.46,4.86,4.86,0,0,0-3-.74,9.18,9.18,0,0,0-2.9.42,11.79,11.79,0,0,0-2.19,1l-.67-2.34a10.73,10.73,0,0,1,2.4-1,11.54,11.54,0,0,1,3.55-.49,7.84,7.84,0,0,1,4.88,1.31,4.79,4.79,0,0,1,1.68,4v8.9c0,.19,0,.41,0,.65s0,.5,0,.76,0,.49,0,.72,0,.41.07.56h-2.59c-.05-.3-.09-.72-.15-1.27s-.08-1-.08-1.42v-.07Zm13.6-11.45V737h-2.81V722.76h-5.06v-2.4h13v2.4Zm14.91-.23a4.73,4.73,0,0,0-3.16,1.12,5.37,5.37,0,0,0-1.67,3.4h8.93a5.39,5.39,0,0,0-.22-2,3.66,3.66,0,0,0-.84-1.41,3.23,3.23,0,0,0-1.32-.83,5,5,0,0,0-1.72-.28Zm6.63,13a8.73,8.73,0,0,1-.88.54,9.18,9.18,0,0,1-1.27.56,10.74,10.74,0,0,1-1.68.44,11.07,11.07,0,0,1-2.09.18q-4.2,0-6.37-2.28a8.81,8.81,0,0,1-2.18-6.36,10.25,10.25,0,0,1,.6-3.62,7.61,7.61,0,0,1,1.64-2.7,7.15,7.15,0,0,1,2.52-1.7,8.37,8.37,0,0,1,3.15-.59,7.86,7.86,0,0,1,3.17.61,5.79,5.79,0,0,1,2.32,1.79,7,7,0,0,1,1.24,2.94,12.06,12.06,0,0,1,0,4.07h-11.71a5.57,5.57,0,0,0,1.63,4,6,6,0,0,0,4.16,1.33,7.12,7.12,0,0,0,3-.56,12.3,12.3,0,0,0,2-1.14l.74,2.48Zm8-2.89A6.38,6.38,0,0,1,1107,736a4.6,4.6,0,0,1-3.34,1l-.42-2.56q2.21.09,2.85-2.37a23.65,23.65,0,0,0,.62-4.69c.1-1.88.15-4.24.15-7h10.81V737h-2.81V722.76h-5.35c0,2.11-.08,4-.17,5.63a24.42,24.42,0,0,1-.59,4.29Zm20.51-10.15a4.76,4.76,0,0,0-3.17,1.12,5.37,5.37,0,0,0-1.66,3.4h8.92a5.19,5.19,0,0,0-.22-2,3.64,3.64,0,0,0-.83-1.41,3.27,3.27,0,0,0-1.33-.83,5,5,0,0,0-1.71-.28Zm6.62,13a7.73,7.73,0,0,1-.88.54,9.57,9.57,0,0,1-1.26.56,10.74,10.74,0,0,1-1.68.44,11.26,11.26,0,0,1-2.1.18q-4.18,0-6.37-2.28a8.81,8.81,0,0,1-2.17-6.36,10.49,10.49,0,0,1,.59-3.62,7.63,7.63,0,0,1,1.65-2.7,7,7,0,0,1,2.51-1.7,8.37,8.37,0,0,1,3.15-.59,7.83,7.83,0,0,1,3.17.61,5.79,5.79,0,0,1,2.32,1.79,7,7,0,0,1,1.25,2.94,12.08,12.08,0,0,1,0,4.07h-11.71a5.61,5.61,0,0,0,1.63,4,6,6,0,0,0,4.16,1.33,7.14,7.14,0,0,0,3-.56,13.16,13.16,0,0,0,2-1.14l.73,2.48Zm11.43-17.42a6.5,6.5,0,0,1-2.23-.34,4.41,4.41,0,0,1-1.57-.92,3.85,3.85,0,0,1-.92-1.38,4.52,4.52,0,0,1-.31-1.71h2.82a2,2,0,0,0,2.21,2.3,2.26,2.26,0,0,0,1.6-.54,2.34,2.34,0,0,0,.57-1.76h2.82a4.29,4.29,0,0,1-1.23,3.09,5.05,5.05,0,0,1-3.76,1.26Zm-7.33,2.21h2.81v12.77l8.87-12.77h2.85V737h-2.82V724.23L1142.9,737H1140V720.36Z" transform="translate(-463 -94)"/><path d="M888.26,763.16v-8.28h-3.78a10.3,10.3,0,0,0-2.09.2,4.59,4.59,0,0,0-1.64.69,3.33,3.33,0,0,0-1.07,1.27,4.42,4.42,0,0,0-.38,1.93,3.85,3.85,0,0,0,1.25,3.19,5.63,5.63,0,0,0,3.61,1Zm0,2.72h-3.84l-6.34,9.19H874.4l7-9.73a6.82,6.82,0,0,1-3.88-2.1,6.31,6.31,0,0,1-1.34-4.27,7.11,7.11,0,0,1,.61-3.1,5.51,5.51,0,0,1,1.71-2.11,7.3,7.3,0,0,1,2.64-1.22,13.8,13.8,0,0,1,3.39-.38h6.82v22.91h-3v-9.19Zm19.17,1.83h-8v7.36h-2.82V758.46h2.82v6.85h8v-6.85h2.81v16.61h-2.81v-7.36Zm18.27-6.85h-6.05c-.06,1.58-.15,3-.25,4.26s-.24,2.36-.4,3.32a14.16,14.16,0,0,1-.63,2.48,6.14,6.14,0,0,1-.93,1.75h8.26V760.86Zm2.5,14.21H915.84l-.28,4.73H913v-7.13h1.25a3.64,3.64,0,0,0,1.4-1.7,12.07,12.07,0,0,0,.8-2.91,34,34,0,0,0,.4-4.16c.08-1.6.15-3.41.21-5.44h11.43v14.21H931v7.13h-2.46l-.35-4.73Zm12.41-14.43a4.71,4.71,0,0,0-3.17,1.12,5.31,5.31,0,0,0-1.66,3.39h8.93a5.17,5.17,0,0,0-.23-2,3.64,3.64,0,0,0-.83-1.41,3.31,3.31,0,0,0-1.33-.83,5.2,5.2,0,0,0-1.71-.27Zm6.63,13c-.24.17-.53.35-.88.55a12.32,12.32,0,0,1-1.27.55,9.74,9.74,0,0,1-1.68.44,11.23,11.23,0,0,1-2.09.18q-4.2,0-6.37-2.27a8.85,8.85,0,0,1-2.18-6.37,10.49,10.49,0,0,1,.59-3.62,7.87,7.87,0,0,1,1.65-2.7,7.25,7.25,0,0,1,2.51-1.7,8.38,8.38,0,0,1,3.16-.59,7.81,7.81,0,0,1,3.16.61,5.75,5.75,0,0,1,2.32,1.8,6.79,6.79,0,0,1,1.25,2.93,12.32,12.32,0,0,1,0,4.07H935.68a5.58,5.58,0,0,0,1.64,4,6,6,0,0,0,4.16,1.33,7,7,0,0,0,3-.56,14.07,14.07,0,0,0,2-1.13l.74,2.47Zm8.38-5.67h-1.47v7.07h-2.82V758.46h2.82v7.14h1.6l5.82-7.14h3.2L958,766.65l6.94,8.42h-3.42L955.62,768Zm18.82,7.39a9.33,9.33,0,0,1-3.36-.58,7.11,7.11,0,0,1-2.64-1.68,7.54,7.54,0,0,1-1.72-2.69,10.16,10.16,0,0,1-.6-3.63,10,10,0,0,1,.62-3.63,7.93,7.93,0,0,1,1.74-2.74,7.81,7.81,0,0,1,2.64-1.71,9.2,9.2,0,0,1,3.32-.59,11.88,11.88,0,0,1,2.8.32,6,6,0,0,1,2.16,1l-.71,2.43a13.51,13.51,0,0,0-1.82-.83,6.79,6.79,0,0,0-2.4-.38,5.29,5.29,0,0,0-4,1.54,6.44,6.44,0,0,0-1.48,4.65,6.33,6.33,0,0,0,1.47,4.49,5.16,5.16,0,0,0,4,1.57,6.92,6.92,0,0,0,2.2-.32,10,10,0,0,0,1.89-.83l.67,2.32a7,7,0,0,1-2,1,9.56,9.56,0,0,1-2.72.35Zm13.18-2.5a5,5,0,0,0,3-.93,7.28,7.28,0,0,0,1.06-.9,6.58,6.58,0,0,0,.78-1v-2.78h-2.17a8.28,8.28,0,0,0-4.23.79,2.74,2.74,0,0,0-.54,4.07,2.76,2.76,0,0,0,2.11.71Zm5-.57a8.82,8.82,0,0,1-.85,1.1,5.48,5.48,0,0,1-1.18,1,6.53,6.53,0,0,1-1.58.71,6.89,6.89,0,0,1-2,.27,5.08,5.08,0,0,1-3.61-1.27,4.67,4.67,0,0,1-1.38-3.63q0-5.4,8-5.41h2.43v-1.24a3,3,0,0,0-.91-2.47,4.87,4.87,0,0,0-3-.73,9.49,9.49,0,0,0-2.9.41,11.79,11.79,0,0,0-2.19,1l-.67-2.33a10.29,10.29,0,0,1,2.4-1,11.52,11.52,0,0,1,3.55-.5,7.84,7.84,0,0,1,4.88,1.31,4.81,4.81,0,0,1,1.68,4v8.9c0,.19,0,.41,0,.66s0,.49,0,.75,0,.49,0,.72,0,.41.07.56h-2.59c-.05-.3-.1-.72-.15-1.27s-.08-1-.08-1.42v-.06Zm13.28-8.16h26.27v2.4h-26.27v-2.4Zm35,10.91v-3c2-1.55,3.65-3,5.07-4.17a42,42,0,0,0,3.52-3.38,12.25,12.25,0,0,0,2.06-2.93,6.56,6.56,0,0,0,.68-2.89,4.11,4.11,0,0,0-1.24-3.12,5.08,5.08,0,0,0-3.63-1.17,8.13,8.13,0,0,0-3,.57,9.72,9.72,0,0,0-2.56,1.51l-.35-3a8.23,8.23,0,0,1,2.67-1.23,13.41,13.41,0,0,1,3.54-.43,10.08,10.08,0,0,1,3.26.48,6.67,6.67,0,0,1,2.37,1.34,5.65,5.65,0,0,1,1.46,2.08,7.08,7.08,0,0,1,.49,2.69,8.64,8.64,0,0,1-.78,3.63,13.94,13.94,0,0,1-2.22,3.36,29.34,29.34,0,0,1-3.52,3.34c-1.39,1.14-3,2.33-4.68,3.59h11.4v2.72Zm25.09.32a6.74,6.74,0,0,1-3-.69,6.32,6.32,0,0,1-2.4-2.14,11.47,11.47,0,0,1-1.57-3.68,25.36,25.36,0,0,1,0-10.6,11,11,0,0,1,1.57-3.64,6.43,6.43,0,0,1,2.4-2.12,6.87,6.87,0,0,1,3-.68,6.7,6.7,0,0,1,3,.67,6.27,6.27,0,0,1,2.37,2.09,11,11,0,0,1,1.55,3.64,25.22,25.22,0,0,1,0,10.57,11.58,11.58,0,0,1-1.55,3.7,6.25,6.25,0,0,1-2.37,2.17,6.47,6.47,0,0,1-3,.71Zm0-2.53a3.75,3.75,0,0,0,1.92-.48,3.7,3.7,0,0,0,1.41-1.57,9.39,9.39,0,0,0,.88-2.86,26.52,26.52,0,0,0,.31-4.34,27.81,27.81,0,0,0-.29-4.33,9.21,9.21,0,0,0-.87-2.87,3.47,3.47,0,0,0-3.32-2,3.57,3.57,0,0,0-3.38,2,9.43,9.43,0,0,0-.9,2.87,31.47,31.47,0,0,0,0,8.67,10,10,0,0,0,.88,2.86,3.74,3.74,0,0,0,1.43,1.57,3.84,3.84,0,0,0,1.93.48Zm17.95,2.21v-19.3l-6.33,4.83v-3.23l6.82-5.21h2.46v22.91Zm17.67.32a10.69,10.69,0,0,1-3.07-.43,7.19,7.19,0,0,1-2.44-1.28,6,6,0,0,1-1.59-2,6.16,6.16,0,0,1-.58-2.74,6,6,0,0,1,1.17-3.74,6.82,6.82,0,0,1,3.12-2.27,5.73,5.73,0,0,1-2.55-1.94,5.37,5.37,0,0,1-.94-3.25,5.63,5.63,0,0,1,.53-2.49,5.32,5.32,0,0,1,1.44-1.84,6.23,6.23,0,0,1,2.17-1.14,9.31,9.31,0,0,1,2.74-.38,9.47,9.47,0,0,1,2.67.36,6.5,6.5,0,0,1,2.16,1.11,5.15,5.15,0,0,1,1.46,1.81,5.63,5.63,0,0,1,.52,2.51,5.53,5.53,0,0,1-.95,3.28,5.82,5.82,0,0,1-2.53,2,6.43,6.43,0,0,1,3.08,2.17,5.93,5.93,0,0,1,1.17,3.75,6.49,6.49,0,0,1-.57,2.76,5.89,5.89,0,0,1-1.6,2.08,7.32,7.32,0,0,1-2.4,1.3,9.64,9.64,0,0,1-3,.45Zm0-13.63a4,4,0,0,0,2.81-1,3.49,3.49,0,0,0,1.09-2.73,3.45,3.45,0,0,0-1.09-2.72,4,4,0,0,0-2.81-1,4.18,4.18,0,0,0-2.83,1,3.39,3.39,0,0,0-1.14,2.72,3.43,3.43,0,0,0,1.14,2.73,4.1,4.1,0,0,0,2.83,1Zm0,11.13a5.5,5.5,0,0,0,1.84-.3,4.51,4.51,0,0,0,1.47-.87,3.84,3.84,0,0,0,1-1.4,5.28,5.28,0,0,0,0-3.78,3.84,3.84,0,0,0-1-1.4,4.34,4.34,0,0,0-1.47-.87,5.51,5.51,0,0,0-1.84-.31,5.93,5.93,0,0,0-1.91.31,4.33,4.33,0,0,0-1.51.87,3.77,3.77,0,0,0-1,1.4,5.28,5.28,0,0,0,0,3.78,3.77,3.77,0,0,0,1,1.4,4.5,4.5,0,0,0,1.51.87,5.93,5.93,0,0,0,1.91.3Z" transform="translate(-463 -94)"/><path class="cls-3" d="M992.52,407.41,965.4,468.33H945.61l29.79-65.15c-14-7.11-23.34-20-23.34-43.8,0-33.35,21.12-50,46.24-50h25.57v159h-17.12V407.41Z" transform="translate(-463 -94)"/><path class="cls-4" d="M1006.75,323.81h-9.11c-13.79,0-27.13,9.11-27.13,35.57,0,25.57,12.23,33.8,27.13,33.8h9.11V323.81Z" transform="translate(-463 -94)"/></svg>