<svg xmlns="http://www.w3.org/2000/svg" viewBox="0 0 26 26"><path d="M13,0A13,13,0,1,1,0,13,13,13,0,0,1,13,0Zm7.79,9.09a2.05,2.05,0,0,0-1.44-1.44A48.54,48.54,0,0,0,13,7.31a48.54,48.54,0,0,0-6.35.34A2.05,2.05,0,0,0,5.21,9.09,21.75,21.75,0,0,0,4.88,13a21.75,21.75,0,0,0,.33,3.91,2.05,2.05,0,0,0,1.44,1.44,48.54,48.54,0,0,0,6.35.34,48.54,48.54,0,0,0,6.35-.34,2.05,2.05,0,0,0,1.44-1.44A21.13,21.13,0,0,0,21.13,13,21.13,21.13,0,0,0,20.79,9.09Zm-9.42,6.35V10.56L15.6,13Z" transform="translate(0 0)" style="fill:#aaa;fill-rule:evenodd"/></svg>